<svg viewBox="0 0 4723 728" xmlns="http://www.w3.org/2000/svg"><path d="M0 714 269 14H331L600 714H527L403 386H176L73 714ZM276 66 183 362H394L282 66ZM762 714V14H901Q1009 14 1069.0 59.0Q1129 104 1129 184Q1129 243 1094.0 284.5Q1059 326 996 341V347Q1082 358 1130.5 406.5Q1179 455 1179 529Q1179 616 1112.0 665.0Q1045 714 924 714ZM902 38H830V338H901Q1059 338 1059 188Q1059 38 902 38ZM924 362H830V690H924Q1107 690 1107 526Q1107 362 924 362ZM1329 364Q1329 287 1356.5 220.5Q1384 154 1433.5 104.5Q1483 55 1549.5 27.5Q1616 0 1693 0Q1770 0 1836.5 27.5Q1903 55 1952.5 104.5Q2002 154 2029.5 220.5Q2057 287 2057 364Q2057 441 2029.5 507.5Q2002 574 1952.5 623.5Q1903 673 1836.5 700.5Q1770 728 1693 728Q1616 728 1549.5 700.5Q1483 673 1433.5 623.5Q1384 574 1356.5 507.5Q1329 441 1329 364ZM1405 364Q1405 466 1441.0 542.5Q1477 619 1542.0 661.5Q1607 704 1693 704Q1779 704 1844.0 661.5Q1909 619 1945.0 542.0Q1981 465 1981 364Q1981 263 1945.0 186.5Q1909 110 1844.0 67.0Q1779 24 1693 24Q1607 24 1542.5 66.5Q1478 109 1441.5 185.5Q1405 262 1405 364ZM2267 14H2401Q2507 14 2565.5 58.5Q2624 103 2624 183Q2624 245 2587.5 286.0Q2551 327 2482 341V347Q2548 360 2590.0 409.0Q2632 458 2653 530Q2672 596 2690.5 632.5Q2709 669 2731.5 685.0Q2754 701 2785 708V714H2744Q2700 714 2671.5 698.0Q2643 682 2623.0 644.0Q2603 606 2585 539Q2556 436 2508.0 393.0Q2460 350 2391 350H2385V332H2391Q2552 332 2552 184Q2552 38 2401 38H2335V714H2267ZM2909 714V14H3214V63L3039 40Q2993 34 2977 34V339Q2990 339 3039 336L3203 326V372L3039 362Q2990 359 2977 359V694Q2995 694 3040 688L3217 665V714ZM3587 714V34Q3572 34 3525 40L3329 65V14H3913V65L3717 40Q3670 34 3655 34V714ZM3995 364Q3995 287 4022.5 220.5Q4050 154 4099.5 104.5Q4149 55 4215.5 27.5Q4282 0 4359 0Q4436 0 4502.5 27.5Q4569 55 4618.5 104.5Q4668 154 4695.5 220.5Q4723 287 4723 364Q4723 441 4695.5 507.5Q4668 574 4618.5 623.5Q4569 673 4502.5 700.5Q4436 728 4359 728Q4282 728 4215.5 700.5Q4149 673 4099.5 623.5Q4050 574 4022.5 507.5Q3995 441 3995 364ZM4071 364Q4071 466 4107.0 542.5Q4143 619 4208.0 661.5Q4273 704 4359 704Q4445 704 4510.0 661.5Q4575 619 4611.0 542.0Q4647 465 4647 364Q4647 263 4611.0 186.5Q4575 110 4510.0 67.0Q4445 24 4359 24Q4273 24 4208.5 66.5Q4144 109 4107.5 185.5Q4071 262 4071 364Z" /></svg>