<svg viewBox="0 0 13383 2716" xmlns="http://www.w3.org/2000/svg"><path d="M1370 2034H883V1946L1001 1936Q1009 1936 1016.0 1925.5Q1023 1915 1023 1906Q1023 1902 1022 1901L881 1526H408L272 1895Q271 1897 271 1901Q271 1913 281.5 1924.5Q292 1936 301 1936L422 1946V2034H10V1946L129 1921L606 627H760L1235 1891Q1243 1912 1249.0 1919.0Q1255 1926 1278 1930L1370 1946ZM844 1428 643 891 444 1428ZM2447 1493Q2447 1647 2386.0 1769.5Q2325 1892 2195.0 1963.0Q2065 2034 1859 2034H1564V672H1409V604L1673 525H1755V1098Q1790 1081 1868.5 1051.5Q1947 1022 2037 1022Q2172 1022 2263.0 1087.0Q2354 1152 2400.5 1259.5Q2447 1367 2447 1493ZM2238 1534Q2238 1340 2156.0 1241.5Q2074 1143 1925 1143Q1891 1143 1838.5 1154.0Q1786 1165 1755 1176V1936Q1755 1936 1790.5 1937.0Q1826 1938 1855 1938Q2037 1938 2137.5 1848.0Q2238 1758 2238 1534ZM3582 1127 3475 1139 3082 2097Q3069 2130 3041.5 2191.5Q3014 2253 2976.5 2317.5Q2939 2382 2896 2425Q2859 2462 2814.5 2482.5Q2770 2503 2718 2503Q2645 2503 2606.5 2467.5Q2568 2432 2568 2386Q2568 2318 2634 2263L2826 2351Q2860 2317 2894.0 2259.0Q2928 2201 2955.5 2139.0Q2983 2077 2998 2032L2650 1139L2537 1127V1047H2990V1127L2892 1133Q2859 1136 2859 1166Q2859 1174 2861 1178L3099 1782L3342 1178Q3345 1172 3345 1165Q3345 1135 3314 1133L3217 1127V1047H3582ZM4347 1737Q4347 1888 4243.0 1973.5Q4139 2059 3956 2059Q3862 2059 3782.5 2039.5Q3703 2020 3672 2007V1735H3776L3801 1909Q3832 1929 3877.5 1947.5Q3923 1966 3983 1966Q4071 1966 4119.0 1917.0Q4167 1868 4167 1807Q4167 1726 4109.0 1684.5Q4051 1643 3944 1592L3917 1579Q3805 1526 3745.5 1468.5Q3686 1411 3686 1319Q3686 1182 3782.0 1102.0Q3878 1022 4055 1022Q4145 1022 4215.5 1038.5Q4286 1055 4317 1069V1311H4210L4194 1168Q4172 1151 4129.0 1136.0Q4086 1121 4038 1121Q3954 1121 3913.0 1159.5Q3872 1198 3872 1258Q3872 1327 3921.5 1367.5Q3971 1408 4101 1467Q4208 1516 4277.5 1576.5Q4347 1637 4347 1737ZM5162 1737Q5162 1888 5058.0 1973.5Q4954 2059 4771 2059Q4677 2059 4597.5 2039.5Q4518 2020 4487 2007V1735H4591L4616 1909Q4647 1929 4692.5 1947.5Q4738 1966 4798 1966Q4886 1966 4934.0 1917.0Q4982 1868 4982 1807Q4982 1726 4924.0 1684.5Q4866 1643 4759 1592L4732 1579Q4620 1526 4560.5 1468.5Q4501 1411 4501 1319Q4501 1182 4597.0 1102.0Q4693 1022 4870 1022Q4960 1022 5030.5 1038.5Q5101 1055 5132 1069V1311H5025L5009 1168Q4987 1151 4944.0 1136.0Q4901 1121 4853 1121Q4769 1121 4728.0 1159.5Q4687 1198 4687 1258Q4687 1327 4736.5 1367.5Q4786 1408 4916 1467Q5023 1516 5092.5 1576.5Q5162 1637 5162 1737ZM5678 709Q5678 761 5642.0 798.5Q5606 836 5554 836Q5502 836 5464.5 798.5Q5427 761 5427 709Q5427 656 5464.5 620.0Q5502 584 5554 584Q5606 584 5642.0 620.0Q5678 656 5678 709ZM5783 2034H5302V1954L5402 1948Q5445 1945 5445 1903V1172H5304V1100L5554 1022H5635V1903Q5635 1922 5647.5 1934.0Q5660 1946 5678 1948L5783 1954ZM6973 2034H6521V1954L6607 1948Q6625 1946 6637.5 1934.0Q6650 1922 6650 1903V1370Q6650 1273 6605.0 1222.5Q6560 1172 6453 1172Q6395 1172 6337.5 1188.5Q6280 1205 6228 1231V1903Q6228 1945 6271 1948L6357 1954V2034H5894V1954L5994 1948Q6037 1945 6037 1903V1192H5894V1125L6144 1047H6228V1149Q6314 1100 6404.5 1061.0Q6495 1022 6566 1022Q6700 1022 6770.0 1105.5Q6840 1189 6840 1338V1903Q6840 1922 6852.5 1934.0Q6865 1946 6883 1948L6973 1954ZM7460 709Q7460 761 7424.0 798.5Q7388 836 7336 836Q7284 836 7246.5 798.5Q7209 761 7209 709Q7209 656 7246.5 620.0Q7284 584 7336 584Q7388 584 7424.0 620.0Q7460 656 7460 709ZM7565 2034H7084V1954L7184 1948Q7227 1945 7227 1903V1172H7086V1100L7336 1022H7417V1903Q7417 1922 7429.5 1934.0Q7442 1946 7460 1948L7565 1954ZM8520 1841V1958Q8451 1995 8364.5 2027.0Q8278 2059 8174 2059Q8031 2059 7925.5 1992.0Q7820 1925 7762.5 1809.5Q7705 1694 7705 1547Q7705 1375 7773.5 1258.0Q7842 1141 7954.5 1081.5Q8067 1022 8198 1022Q8333 1022 8424.5 1074.5Q8516 1127 8516 1227Q8516 1287 8478.5 1317.5Q8441 1348 8395 1348Q8361 1348 8336.0 1336.5Q8311 1325 8292 1313V1135Q8245 1108 8206 1108Q8115 1108 8049.5 1161.5Q7984 1215 7949.0 1308.0Q7914 1401 7914 1520Q7914 1633 7952.0 1726.5Q7990 1820 8065.5 1875.0Q8141 1930 8253 1930Q8324 1930 8389.0 1907.0Q8454 1884 8520 1841ZM9597 2034H9294L9267 1913Q9267 1913 9236.5 1935.0Q9206 1957 9156.0 1986.0Q9106 2015 9045.5 2037.0Q8985 2059 8925 2059Q8814 2059 8736.5 1985.0Q8659 1911 8659 1782Q8659 1725 8679.5 1676.0Q8700 1627 8761.5 1582.5Q8823 1538 8944.5 1495.5Q9066 1453 9267 1409V1321Q9267 1119 9076 1119Q9023 1119 8984.5 1129.0Q8946 1139 8931 1145V1323H8782Q8754 1323 8730.0 1312.5Q8706 1302 8706 1264Q8706 1180 8770.0 1126.5Q8834 1073 8932.5 1047.5Q9031 1022 9132 1022Q9259 1022 9329.0 1061.5Q9399 1101 9427.0 1170.5Q9455 1240 9455 1329V1903Q9455 1922 9467.5 1934.0Q9480 1946 9498 1948L9597 1954ZM9267 1841V1487Q9129 1521 9047.5 1555.5Q8966 1590 8926.0 1624.5Q8886 1659 8873.5 1694.5Q8861 1730 8861 1768Q8861 1831 8901.5 1884.5Q8942 1938 9015 1938Q9056 1938 9100.0 1923.5Q9144 1909 9182.0 1889.5Q9220 1870 9243.5 1855.5Q9267 1841 9267 1841ZM11540 1649Q11540 1752 11484.5 1848.0Q11429 1944 11309.5 2005.5Q11190 2067 10997 2067Q10887 2067 10805.0 2048.0Q10723 2029 10678.0 2010.0Q10633 1991 10633 1991V1628H10762L10789 1860Q10791 1872 10802.0 1886.0Q10813 1900 10823 1905Q10828 1906 10881.5 1929.0Q10935 1952 11030 1952Q11161 1952 11246.0 1888.0Q11331 1824 11331 1710Q11331 1648 11296.5 1601.5Q11262 1555 11207.0 1519.0Q11152 1483 11089.5 1453.5Q11027 1424 10971 1397Q10887 1357 10815.0 1311.5Q10743 1266 10699.0 1199.0Q10655 1132 10655 1028Q10655 906 10717.0 816.0Q10779 726 10886.0 676.5Q10993 627 11128 627Q11238 627 11322.0 648.5Q11406 670 11471 691L11489 697V1016H11372L11341 820Q11339 806 11328.5 799.5Q11318 793 11309 784Q11301 778 11259.5 758.0Q11218 738 11131 738Q11008 738 10937.0 806.5Q10866 875 10866 979Q10866 1073 10939.5 1135.0Q11013 1197 11151 1250Q11337 1320 11438.5 1407.5Q11540 1495 11540 1649ZM12228 2034H11688V1946L11810 1938Q11832 1936 11842.5 1922.0Q11853 1908 11853 1893V801Q11853 786 11842.5 772.5Q11832 759 11810 758L11688 750V660H12228V750L12103 758Q12082 759 12071.0 772.5Q12060 786 12060 801V1893Q12060 1908 12071.0 1922.0Q12082 1936 12103 1938L12228 1946ZM13347 2034H12351V1946L12470 1938Q12492 1936 12502.5 1922.0Q12513 1908 12513 1893V801Q12513 786 12502.5 771.5Q12492 757 12470 756L12351 748V660H12874V748L12765 756Q12743 757 12731.5 771.5Q12720 786 12720 801V1934H13150Q13164 1934 13179.0 1923.0Q13194 1912 13195 1899L13228 1653H13347Z" fill="currentColor" /></svg>