<svg viewBox="0 0 4065 713" xmlns="http://www.w3.org/2000/svg"><path d="M506 700 278 0H225L0 700H60L139 455H366L447 700ZM154 400 251 86 351 400ZM934 700V0H879V227Q845 212 805.0 201.0Q765 190 716 190Q686 190 656.5 198.0Q627 206 602.5 223.5Q578 241 563.5 270.0Q549 299 549 341V531Q549 586 566.5 622.0Q584 658 615.0 677.5Q646 697 688.0 704.0Q730 711 778 710Q792 710 812.0 709.0Q832 708 853.5 706.5Q875 705 893.5 703.5Q912 702 923.5 701.0Q935 700 934 700ZM879 277V654Q879 654 874.0 654.5Q869 655 860.0 656.0Q851 657 838.0 658.0Q825 659 808.5 660.0Q792 661 773 662Q723 663 690.5 655.5Q658 648 639.0 630.5Q620 613 612.0 586.5Q604 560 604 524V345Q604 310 616.0 288.5Q628 267 645.5 256.0Q663 245 681.0 241.0Q699 237 712 237Q760 237 799.5 248.5Q839 260 879 277ZM1014 199 1167 700H1244L1399 199H1340L1207 642L1072 199ZM1498 566V504L1803 488V358Q1803 302 1781.5 265.0Q1760 228 1720.5 209.0Q1681 190 1627 190Q1574 190 1532.0 209.0Q1490 228 1466.0 266.0Q1442 304 1442 361V566Q1442 608 1454.5 636.0Q1467 664 1490.0 681.0Q1513 698 1545.0 705.0Q1577 712 1615 712Q1653 712 1697.0 699.5Q1741 687 1778 665L1756 622Q1719 641 1683.0 652.5Q1647 664 1610 664Q1586 664 1565.5 658.5Q1545 653 1530.0 641.5Q1515 630 1506.5 611.5Q1498 593 1498 566ZM1747 351V438L1498 449V362Q1498 322 1513.5 294.0Q1529 266 1558.0 251.5Q1587 237 1626 237Q1661 237 1688.0 251.0Q1715 265 1731.0 290.5Q1747 316 1747 351ZM2197 358V700H2252V355Q2252 323 2244.5 297.5Q2237 272 2222.5 252.0Q2208 232 2187.0 218.0Q2166 204 2138.5 197.0Q2111 190 2078 190Q2053 190 2028.5 195.5Q2004 201 1981.5 210.5Q1959 220 1940 233V199H1883V700H1940V275Q1961 263 1981.0 255.5Q2001 248 2022.5 244.0Q2044 240 2067 240Q2091 240 2114.0 246.0Q2137 252 2156.0 265.5Q2175 279 2186.0 301.5Q2197 324 2197 358ZM2392 568V252H2489L2513 200H2392V0H2336V568Q2336 626 2361.0 661.0Q2386 696 2441 713L2458 670Q2436 662 2421.5 648.5Q2407 635 2399.5 614.5Q2392 594 2392 568ZM3095 0H2859V700H2916V455H3095Q3145 455 3182.5 442.5Q3220 430 3244.5 403.0Q3269 376 3281.5 332.0Q3294 288 3294 226Q3294 162 3281.0 118.5Q3268 75 3242.5 49.0Q3217 23 3180.0 11.5Q3143 0 3095 0ZM2916 400V53H3100Q3129 53 3154.0 60.5Q3179 68 3197.5 86.5Q3216 105 3226.5 139.0Q3237 173 3237 226Q3237 283 3226.5 318.0Q3216 353 3197.0 370.5Q3178 388 3153.5 394.0Q3129 400 3100 400ZM3642 239 3646 191Q3646 191 3632.5 189.0Q3619 187 3601 188Q3547 191 3507.5 203.0Q3468 215 3431 232V199H3374V700H3431V291Q3445 282 3465.0 272.5Q3485 263 3508.0 255.5Q3531 248 3555.0 243.5Q3579 239 3600 238Q3617 237 3629.5 238.0Q3642 239 3642 239ZM4065 515V384Q4065 292 4018.0 240.0Q3971 188 3882 188Q3823 188 3781.0 210.5Q3739 233 3717.0 276.5Q3695 320 3695 384V515Q3695 569 3716.0 613.0Q3737 657 3779.5 683.5Q3822 710 3884 710Q3975 710 4020.0 656.5Q4065 603 4065 515ZM4009 384V525Q4009 566 3995.5 596.5Q3982 627 3954.0 643.5Q3926 660 3884 660Q3844 660 3814.0 643.0Q3784 626 3767.5 595.5Q3751 565 3751 525V384Q3751 336 3766.0 303.5Q3781 271 3810.5 254.5Q3840 238 3884 238Q3928 238 3955.5 254.5Q3983 271 3996.0 303.5Q4009 336 4009 384Z" fill="currentColor" /></svg>