<svg viewBox="0 0 4643 1547" xmlns="http://www.w3.org/2000/svg"><path d="M156 485Q85 485 85 617V624Q85 637 79 637Q64 637 56.5 601.0Q49 565 49 540Q49 499 67.5 467.0Q86 435 125 435Q202 435 273 525Q333 455 401.5 383.5Q470 312 508 276L546 239Q608 146 648 146Q658 146 658 155Q658 161 654 169Q566 342 493 559Q401 835 401 982Q401 1028 412 1049Q416 1054 416 1059Q416 1066 404 1066Q377 1066 359.0 1052.5Q341 1039 333.5 1017.0Q326 995 323.0 977.5Q320 960 320 942Q320 912 331.0 853.0Q342 794 342 767Q342 727 324.5 672.5Q307 618 278 573Q246 617 219.5 661.0Q193 705 182 726L172 748Q136 822 101.0 883.0Q66 944 49 968L32 991Q21 1004 12 1004Q1 1004 1 981Q4 840 257 544Q208 485 156 485ZM499 328Q389 424 293 553Q335 617 358 699Q361 708 363 708L368 699Q393 614 428.5 522.5Q464 431 487 382L510 334Q513 328 513.0 326.0Q513 324 510 324ZM687 799Q691 791 691 788L681 795Q650 831 609.5 869.0Q569 907 544 928L519 948Q478 978 457 978Q437 978 437 949Q437 877 490.0 779.0Q543 681 627.5 607.0Q712 533 788 533Q803 533 813.5 536.5Q824 540 828.5 543.0Q833 546 834 546Q836 546 839 543Q845 535 854.5 523.0Q864 511 887.0 490.5Q910 470 924 470Q931 470 931 480Q931 494 917 522Q810 719 787 760Q779 775 750.5 824.5Q722 874 710 895Q773 844 814 807Q858 761 917 694Q920 691 922.0 691.0Q924 691 924 695Q924 714 909 732Q865 780 833 814Q791 858 683 942L657 990Q464 1345 391 1452Q384 1463 373.0 1478.5Q362 1494 337.0 1520.5Q312 1547 297 1547Q273 1547 273 1478Q273 1376 346 1256Q423 1129 586 995ZM820 566Q821 565 821 562Q821 555 805 555Q765 555 702.0 617.0Q639 679 593.0 753.0Q547 827 547 862Q547 876 559 876Q570 876 587 862Q602 849 627.5 825.5Q653 802 715.0 725.0Q777 648 820 566ZM371 1254Q363 1266 352.0 1285.5Q341 1305 322.0 1352.5Q303 1400 303 1432Q303 1449 309 1449Q314 1449 324.0 1439.5Q334 1430 341 1420L348 1410Q432 1280 560 1043Q434 1152 371 1254ZM1048 799 1079 746Q1079 743 1077.0 743.0Q1075 743 1072 746Q1035 789 995.0 829.5Q955 870 934 889L912 908Q834 982 804 982Q790 982 790 964Q790 944 806.5 903.0Q823 862 840 830L856 799Q940 642 980 589Q1000 563 1029.0 545.5Q1058 528 1074 528Q1084 528 1084 535Q1084 539 1080 546Q1078 550 1039.0 612.5Q1000 675 976 720Q910 841 910 859Q910 866 916 866Q925 866 947 848Q1012 792 1090 697Q1133 651 1180 577Q1212 528 1265 528Q1274 528 1274 536L1266 555Q1252 580 1203.5 664.5Q1155 749 1148 761Q1107 833 1107 856Q1107 865 1113 865Q1123 865 1177 815Q1219 773 1288 694Q1291 691 1293.0 691.0Q1295 691 1295 695Q1295 714 1280 732Q1206 814 1149 869Q1110 906 1061.5 943.0Q1013 980 991 980Q976 980 976 959Q976 947 994.0 907.0Q1012 867 1030 833ZM1484 903Q1401 979 1370 979Q1356 979 1356 963Q1356 943 1373.5 902.0Q1391 861 1409 830L1427 799Q1431 792 1431.0 790.0Q1431 788 1429 788Q1425 788 1414 799Q1384 832 1345.5 869.5Q1307 907 1283 928L1260 948Q1221 978 1200 978Q1178 978 1178 944Q1178 927 1187.5 892.0Q1197 857 1202 845Q1225 789 1259.5 736.0Q1294 683 1341.0 634.5Q1388 586 1450.5 556.0Q1513 526 1580 526Q1636 526 1636 543Q1636 553 1611 553Q1519 553 1438.5 631.5Q1358 710 1308 812Q1294 840 1294 859Q1294 870 1301 870Q1313 870 1332 853Q1344 842 1364.5 824.0Q1385 806 1431.0 755.0Q1477 704 1504 660Q1508 652 1516.5 641.0Q1525 630 1549.0 611.5Q1573 593 1597 593Q1610 593 1610 600Q1610 602 1607 607Q1603 615 1584.5 647.0Q1566 679 1550.0 707.5Q1534 736 1516.0 769.5Q1498 803 1487.5 827.0Q1477 851 1477 859Q1477 865 1482 865Q1497 865 1555 807Q1599 761 1658 694Q1661 691 1663.0 691.0Q1665 691 1665 695Q1665 714 1650 732Q1552 841 1484 903ZM1707 556Q1701 553 1701 549Q1701 543 1712 543H1742Q1846 375 1912 297Q1981 217 2049.0 177.5Q2117 138 2154 138Q2178 138 2178 159Q2178 205 2130.5 252.5Q2083 300 2050 314Q2044 316 2042 316Q2038 316 2038 311Q2038 308 2041 303Q2099 218 2099 190Q2099 183 2093 183Q2081 183 2053 205Q1985 256 1815 543H1892Q1906 543 1906 547Q1906 552 1898.5 558.0Q1891 564 1887 564H1816Q1802 564 1802 571Q1802 574 1803.5 588.0Q1805 602 1805 610Q1805 703 1748.5 833.5Q1692 964 1602 1084Q1550 1153 1506.0 1198.0Q1462 1243 1439.5 1257.5Q1417 1272 1406 1272Q1392 1272 1392 1253Q1392 1161 1583 824Q1583 823 1602.0 788.0Q1621 753 1657.5 687.5Q1694 622 1731 562ZM1778 638Q1778 624 1775 612Q1617 884 1555 1015Q1498 1133 1498 1153Q1498 1157 1501 1157Q1515 1157 1570 1092Q1628 1024 1703.0 877.0Q1778 730 1778 638ZM1936 869Q1819 979 1786 979Q1769 979 1769.0 956.0Q1769 933 1787.0 889.0Q1805 845 1823 812L1841 780Q1917 647 1956 589Q1973 564 1999.5 546.5Q2026 529 2049 529Q2057 529 2057 536Q2057 541 2050 555Q2038 577 1991.0 660.0Q1944 743 1935 760Q1894 832 1894 856Q1894 865 1900 865Q1910 865 1964 815Q2006 773 2075 694Q2078 691 2080.0 691.0Q2082 691 2082 695Q2082 714 2067 732Q1993 814 1936 869ZM2069 472Q2044 472 2044 442Q2044 414 2065.0 385.5Q2086 357 2111 357Q2141 357 2141 391Q2141 419 2118.0 445.5Q2095 472 2069 472ZM2315 869Q2198 979 2161 979Q2144 979 2144 961Q2144 950 2149.0 933.5Q2154 917 2161.5 900.5Q2169 884 2176.0 870.0Q2183 856 2190.0 844.0Q2197 832 2197 831Q2212 804 2242.0 755.5Q2272 707 2290.0 675.5Q2308 644 2308 637Q2308 632 2303 632L2289 637Q2243 670 2179.0 739.5Q2115 809 2074 862L2033 914Q2020 933 2010.0 945.0Q2000 957 1981.5 968.5Q1963 980 1944 980Q1930 980 1930.0 972.0Q1930 964 1949.0 925.5Q1968 887 1987 852L2006 818L2104 646Q2119 621 2128.5 607.5Q2138 594 2155.0 573.5Q2172 553 2191.5 543.0Q2211 533 2233 531Q2241 531 2241 538Q2241 544 2238 548Q2215 584 2167.5 667.0Q2120 750 2107 775Q2104 781 2104 784Q2104 786 2106.0 786.0Q2108 786 2116 780Q2135 758 2165.5 725.0Q2196 692 2269.0 625.5Q2342 559 2389 536Q2400 531 2410 531Q2424 531 2424 547Q2416 594 2347 708Q2271 833 2271 856Q2271 864 2278 864Q2283 864 2289.5 860.5Q2296 857 2304.0 850.5Q2312 844 2317.5 839.0Q2323 834 2332.0 825.5Q2341 817 2343 815Q2385 773 2454 694Q2457 691 2459.0 691.0Q2461 691 2461 695Q2461 714 2446 732Q2372 814 2315 869ZM2650 903Q2567 979 2536 979Q2522 979 2522 963Q2522 943 2539.5 902.0Q2557 861 2575 830L2593 799Q2597 792 2597.0 790.0Q2597 788 2595 788Q2591 788 2580 799Q2550 832 2511.5 869.5Q2473 907 2449 928L2426 948Q2387 978 2366 978Q2344 978 2344 944Q2344 927 2353.5 892.0Q2363 857 2368 845Q2391 789 2425.5 736.0Q2460 683 2507.0 634.5Q2554 586 2616.5 556.0Q2679 526 2746 526Q2802 526 2802 543Q2802 553 2777 553Q2685 553 2604.5 631.5Q2524 710 2474 812Q2460 840 2460 859Q2460 870 2467 870Q2479 870 2498 853Q2510 842 2530.5 824.0Q2551 806 2597.0 755.0Q2643 704 2670 660Q2674 652 2682.5 641.0Q2691 630 2715.0 611.5Q2739 593 2763 593Q2776 593 2776 600Q2776 602 2773 607Q2769 615 2750.5 647.0Q2732 679 2716.0 707.5Q2700 736 2682.0 769.5Q2664 803 2653.5 827.0Q2643 851 2643 859Q2643 865 2648 865Q2663 865 2721 807Q2765 761 2824 694Q2827 691 2829.0 691.0Q2831 691 2831 695Q2831 714 2816 732Q2718 841 2650 903ZM2875 897Q2891 857 2920.5 804.0Q2950 751 2972 718L2994 686Q3008 666 3022 666Q3033 666 3033 677L3030 687Q2994 778 2994 844Q2994 897 3017.5 930.5Q3041 964 3091 964Q3166 964 3212.0 898.5Q3258 833 3258 757Q3258 692 3213.5 571.5Q3169 451 3169 408Q3169 315 3248.5 258.5Q3328 202 3423 202Q3440 202 3456.5 204.0Q3473 206 3493.0 210.5Q3513 215 3525.0 225.0Q3537 235 3537 250Q3537 270 3509.0 318.0Q3481 366 3462 391Q3455 396 3450 396Q3443 396 3443 384Q3443 356 3449 308Q3449 230 3389 230Q3338 230 3302.5 265.0Q3267 300 3267 350Q3267 416 3313.5 534.0Q3360 652 3360 716Q3360 836 3265.5 913.5Q3171 991 3053 991Q3033 991 3005.0 987.0Q2977 983 2946.0 974.5Q2915 966 2893.5 949.5Q2872 933 2872 912Q2872 904 2875 897ZM3600 869Q3555 912 3498.5 949.5Q3442 987 3403 987Q3357 987 3357 916Q3357 841 3410.0 749.5Q3463 658 3544.5 593.0Q3626 528 3699 528Q3738 528 3738 557Q3738 607 3673 670Q3667 676 3647.0 691.0Q3627 706 3619 706Q3614 706 3614 701L3617 692Q3657 621 3657 584Q3657 564 3644 564Q3613 564 3565.5 624.5Q3518 685 3483.0 762.5Q3448 840 3448 885Q3448 921 3474 921Q3519 921 3587 856Q3640 807 3739 694Q3742 691 3744.0 691.0Q3746 691 3746 695Q3746 714 3731 732Q3657 814 3600 869ZM3895 759Q3887 759 3887 753Q3887 750 3890 745Q3949 653 3949 619Q3949 610 3942 610Q3912 610 3801 746Q3768 788 3739.5 833.0Q3711 878 3700 902L3688 925Q3676 949 3651.0 969.5Q3626 990 3599 990Q3585 990 3585 983Q3585 977 3593.5 958.0Q3602 939 3614.0 916.0Q3626 893 3638.0 871.0Q3650 849 3658 834L3667 819L3772 636Q3833 521 3900 521Q3909 521 3909 528Q3909 537 3865.5 602.5Q3822 668 3815 686Q3813 692 3813 693Q3813 695 3815.0 695.0Q3817 695 3822 690Q3897 605 3981 539Q3986 534 4003.0 524.5Q4020 515 4033 515Q4052 515 4052 548Q4052 584 4028.0 634.0Q4004 684 3963 722L3959 726Q3955 729 3950.5 732.5Q3946 736 3939.0 741.0Q3932 746 3925.0 749.5Q3918 753 3910.0 756.0Q3902 759 3895 759ZM4074 869Q3957 979 3924 979Q3907 979 3907.0 956.0Q3907 933 3925.0 889.0Q3943 845 3961 812L3979 780Q4055 647 4094 589Q4111 564 4137.5 546.5Q4164 529 4187 529Q4195 529 4195 536Q4195 541 4188 555Q4176 577 4129.0 660.0Q4082 743 4073 760Q4032 832 4032 856Q4032 865 4038 865Q4048 865 4102 815Q4144 773 4213 694Q4216 691 4218.0 691.0Q4220 691 4220 695Q4220 714 4205 732Q4131 814 4074 869ZM4207 472Q4182 472 4182 442Q4182 414 4203.0 385.5Q4224 357 4249 357Q4279 357 4279 391Q4279 419 4256.0 445.5Q4233 472 4207 472ZM4155 930Q4150 939 4150 948Q4150 966 4178 966Q4207 966 4239.0 939.5Q4271 913 4296.5 875.5Q4322 838 4343.5 800.5Q4365 763 4376 736L4388 710Q4414 645 4414 615Q4414 594 4399 594Q4390 594 4381 600Q4349 620 4292.5 702.5Q4236 785 4196 858ZM4368 468Q4375 468 4375 476Q4375 490 4358.5 530.0Q4342 570 4326 602L4309 635Q4308 637 4308 639Q4308 642 4310.0 642.0Q4312 642 4316 638Q4319 633 4325.0 626.0Q4331 619 4349.0 599.5Q4367 580 4383.5 565.5Q4400 551 4421.5 539.0Q4443 527 4460 527Q4499 527 4499 591Q4499 643 4468 719Q4468 721 4456.5 747.0Q4445 773 4420.0 814.0Q4395 855 4363.0 893.5Q4331 932 4283.5 960.0Q4236 988 4186 988Q4172 988 4160.0 984.5Q4148 981 4142.0 977.5Q4136 974 4134 974L4127 978Q4100 1018 4041.0 1126.0Q3982 1234 3947 1307Q3942 1316 3934.0 1331.0Q3926 1346 3903.0 1385.0Q3880 1424 3859.5 1453.5Q3839 1483 3814.5 1507.5Q3790 1532 3773 1532Q3763 1532 3763 1523Q3763 1496 3821.5 1384.5Q3880 1273 3939 1174L3998 1076Q4143 823 4224 674Q4226 670 4230.0 662.5Q4234 655 4246.0 633.5Q4258 612 4269.0 592.5Q4280 573 4295.0 549.5Q4310 526 4323.0 508.5Q4336 491 4348.0 479.5Q4360 468 4368 468ZM4627 815Q4669 773 4738 694Q4741 691 4743.0 691.0Q4745 691 4745 695Q4745 714 4730 732Q4656 814 4599 869Q4479 985 4440 985Q4426 985 4426 967Q4426 946 4442.0 904.0Q4458 862 4474 830L4490 799Q4513 758 4566.0 659.0Q4619 560 4668.5 472.0Q4718 384 4762 313H4683Q4673 313 4673.0 308.0Q4673 303 4681.0 298.0Q4689 293 4698 293Q4720 293 4775 292Q4824 215 4859 170Q4890 131 4902 131Q4909 131 4909 140Q4909 161 4871 230L4837 292H4940Q4949 292 4949 297Q4949 313 4920 313H4826Q4595 751 4583 772Q4541 849 4541 872Q4541 879 4546 879Q4560 879 4627 815Z" fill="currentColor" /></svg>