<svg viewBox="0 0 7091 1475" xmlns="http://www.w3.org/2000/svg"><path d="M758 41 1311 1475H1106L979 1145H332L205 1475H0L553 41ZM410 940H900L656 308ZM1733 0V1475H1537V0ZM2061 607Q2061 566 2076.5 530.0Q2092 494 2118.5 467.5Q2145 441 2181.0 425.5Q2217 410 2257 410H2806V0H3003V1475H2806V1295Q2803 1332 2786.0 1365.0Q2769 1398 2742.5 1422.5Q2716 1447 2682.0 1461.0Q2648 1475 2610 1475H2257Q2217 1475 2181.0 1459.5Q2145 1444 2118.5 1417.5Q2092 1391 2076.5 1355.0Q2061 1319 2061 1278ZM2257 1278H2806V607H2257ZM3527 607V1475H3331V410H3527V598Q3529 559 3545.0 524.5Q3561 490 3587.5 464.5Q3614 439 3649.0 424.5Q3684 410 3724 410H3933Q3974 410 4009.5 425.5Q4045 441 4072.0 467.5Q4099 494 4114.5 530.0Q4130 566 4130 607V787H3933V607ZM4582 410V1475H4385V410ZM4375 0H4592V205H4375ZM5116 607V1278H5624V1098H5821V1278Q5821 1319 5805.5 1355.0Q5790 1391 5763.5 1417.5Q5737 1444 5701.0 1459.5Q5665 1475 5624 1475H5116Q5076 1475 5040.0 1459.5Q5004 1444 4977.5 1417.5Q4951 1391 4935.5 1355.0Q4920 1319 4920 1278V607Q4920 566 4935.5 530.0Q4951 494 4977.5 467.5Q5004 441 5040.0 425.5Q5076 410 5116 410H5624Q5665 410 5701.0 425.5Q5737 441 5763.5 467.5Q5790 494 5805.5 530.0Q5821 566 5821 607V787H5624V607ZM7091 1475H6894V607H6345V1475H6149V0H6345V598Q6347 559 6363.0 524.5Q6379 490 6405.5 464.5Q6432 439 6467.0 424.5Q6502 410 6542 410H6894Q6935 410 6971.0 425.5Q7007 441 7033.5 467.5Q7060 494 7075.5 530.0Q7091 566 7091 607Z" fill="currentColor" /></svg>