<svg viewBox="0 0 5374 1200" xmlns="http://www.w3.org/2000/svg"><path d="M556 900H474L459 836L423 726L279 723L149 726L110 832L94 900H14L249 259H342ZM401 658 297 342H290L174 658L286 660ZM736 699 741 900H662L668 705L663 205L742 198ZM941 668V670Q941 754 979.0 799.0Q1017 844 1087 844Q1122 844 1157.0 832.5Q1192 821 1221 800L1229 806L1217 874Q1147 908 1077 908Q979 908 923.0 845.5Q867 783 867 674Q867 564 923.0 499.0Q979 434 1074 434Q1154 434 1198.0 479.5Q1242 525 1242 606Q1242 633 1238 657L1228 667ZM946 614 1167 610 1169 596Q1169 545 1144.5 517.5Q1120 490 1074 490Q1024 490 990.5 522.5Q957 555 946 614ZM1669 502 1667 506Q1689 541 1689 591Q1689 664 1640.5 707.0Q1592 750 1509 750Q1476 750 1447 742Q1430 755 1424.0 763.0Q1418 771 1418 781Q1418 802 1444.0 810.5Q1470 819 1529 828Q1587 836 1624.0 846.0Q1661 856 1688.0 878.5Q1715 901 1715 941Q1715 983 1686.5 1018.0Q1658 1053 1608.5 1073.0Q1559 1093 1500 1093Q1420 1093 1375.5 1056.5Q1331 1020 1331 962Q1355 914 1419 875V870Q1383 859 1363.5 840.5Q1344 822 1344 790Q1365 755 1405 729V725Q1373 705 1356.5 672.5Q1340 640 1340 597Q1340 522 1388.5 479.5Q1437 437 1518 437Q1571 437 1608 455Q1677 442 1753 421L1761 427V481Q1730 490 1669 502ZM1618 590Q1618 542 1592.0 516.0Q1566 490 1517 490Q1467 490 1439.0 517.0Q1411 544 1411 594Q1411 642 1437.5 669.0Q1464 696 1513 696Q1563 696 1590.5 668.0Q1618 640 1618 590ZM1510 887 1478 882Q1440 905 1420.5 926.0Q1401 947 1401 970Q1401 999 1429.5 1018.0Q1458 1037 1509 1037Q1567 1037 1606.0 1013.5Q1645 990 1645 956Q1645 923 1611.5 910.0Q1578 897 1510 887ZM2079 443V520L2070 523Q2053 518 2033 518Q2000 518 1972.5 544.5Q1945 571 1918 629L1917 699L1922 900H1843L1848 706L1844 447L1919 440L1918 534H1924Q1952 484 1986.0 462.5Q2020 441 2053 441Q2065 441 2079 443ZM2201 668V670Q2201 754 2239.0 799.0Q2277 844 2347 844Q2382 844 2417.0 832.5Q2452 821 2481 800L2489 806L2477 874Q2407 908 2337 908Q2239 908 2183.0 845.5Q2127 783 2127 674Q2127 564 2183.0 499.0Q2239 434 2334 434Q2414 434 2458.0 479.5Q2502 525 2502 606Q2502 633 2498 657L2488 667ZM2206 614 2427 610 2429 596Q2429 545 2404.5 517.5Q2380 490 2334 490Q2284 490 2250.5 522.5Q2217 555 2206 614ZM2645 498 2755 814H2762L2876 505L2891 442H2962L2798 884Q2773 952 2744.5 991.0Q2716 1030 2675.5 1052.5Q2635 1075 2569 1091H2562Q2541 1070 2529 1044L2531 1035Q2607 1020 2647.5 992.5Q2688 965 2723 900L2555 444L2630 439ZM3328 554Q3328 571 3322 677Q3316 783 3316 801Q3316 823 3323.0 831.5Q3330 840 3347 840Q3362 840 3381 834L3389 841L3381 886Q3352 903 3324 906Q3293 903 3274.5 884.0Q3256 865 3255 832H3248Q3194 887 3141 907Q3074 907 3036.5 873.5Q2999 840 2999 782Q2999 738 3022.5 712.0Q3046 686 3092 675L3254 637L3255 572Q3255 533 3234.5 512.0Q3214 491 3176 491Q3142 491 3108.0 507.0Q3074 523 3035 557L3027 553L3017 496Q3100 434 3188 434Q3253 434 3290.5 466.0Q3328 498 3328 554ZM3108 723Q3088 729 3079.0 739.5Q3070 750 3070 771Q3070 804 3088.5 822.5Q3107 841 3138 841Q3193 841 3250 770L3253 688ZM3994 284 3981 361 3967 365Q3938 343 3905.5 331.0Q3873 319 3841 319Q3804 319 3776.5 334.0Q3749 349 3734.5 373.0Q3720 397 3720 423Q3720 450 3736.5 470.5Q3753 491 3778.0 506.0Q3803 521 3846 542Q3900 567 3933.0 588.5Q3966 610 3989.5 643.0Q4013 676 4013 723Q4013 773 3986.0 815.0Q3959 857 3910.0 882.0Q3861 907 3798 907Q3756 907 3710.5 895.5Q3665 884 3626 862L3636 780L3647 775Q3682 809 3724.5 825.5Q3767 842 3806 842Q3844 842 3873.5 827.0Q3903 812 3918.5 787.0Q3934 762 3934 734Q3934 692 3902.0 666.5Q3870 641 3805 611Q3752 585 3720.0 564.5Q3688 544 3665.0 511.5Q3642 479 3642 432Q3642 383 3668.5 342.0Q3695 301 3742.5 277.5Q3790 254 3851 254Q3920 254 3994 284ZM4407 554Q4407 571 4401 677Q4395 783 4395 801Q4395 823 4402.0 831.5Q4409 840 4426 840Q4441 840 4460 834L4468 841L4460 886Q4431 903 4403 906Q4372 903 4353.5 884.0Q4335 865 4334 832H4327Q4273 887 4220 907Q4153 907 4115.5 873.5Q4078 840 4078 782Q4078 738 4101.5 712.0Q4125 686 4171 675L4333 637L4334 572Q4334 533 4313.5 512.0Q4293 491 4255 491Q4221 491 4187.0 507.0Q4153 523 4114 557L4106 553L4096 496Q4179 434 4267 434Q4332 434 4369.5 466.0Q4407 498 4407 554ZM4187 723Q4167 729 4158.0 739.5Q4149 750 4149 771Q4149 804 4167.5 822.5Q4186 841 4217 841Q4272 841 4329 770L4332 688ZM4857 589Q4858 548 4838.0 525.0Q4818 502 4779 502Q4716 502 4643 573V699L4647 900H4568L4573 706L4569 447L4644 440V507H4650Q4712 452 4777 436Q4852 436 4891.5 471.0Q4931 506 4930 571L4928 701L4932 900H4852ZM5319 457 5308 522 5296 525Q5246 492 5200 492Q5166 492 5145.0 511.0Q5124 530 5124 557Q5124 584 5145.5 600.5Q5167 617 5212 638Q5251 656 5274.5 670.5Q5298 685 5315.0 709.0Q5332 733 5332 768Q5332 805 5313.0 837.0Q5294 869 5257.0 888.5Q5220 908 5169 908Q5099 908 5036 875L5046 807L5055 801Q5083 825 5115.5 838.0Q5148 851 5177 851Q5214 851 5237.0 830.5Q5260 810 5260 782Q5260 755 5238.5 738.5Q5217 722 5172 701Q5133 683 5109.0 668.5Q5085 654 5068.0 629.0Q5051 604 5051 567Q5051 509 5093.5 472.0Q5136 435 5209 435Q5266 435 5319 457Z" fill="currentColor" /></svg>