<svg viewBox="0 0 2210.125 773" xmlns="http://www.w3.org/2000/svg"><path d="M208.125 516 143.125 706 220.125 726Q223.125 745 215.125 761Q188.125 759 154.625 757.5Q121.125 756 93.125 756Q65.125 756 47.125 757.5Q29.125 759 1.125 761Q-1.875 742 3.125 726Q25.125 723 44.125 718.0Q63.125 713 80.125 706L317.125 37Q325.125 32 336.625 30.5Q348.125 29 356.125 29L627.125 706L704.125 726Q707.125 745 699.125 761Q672.125 759 638.625 757.5Q605.125 756 577.125 756Q558.125 756 531.125 757.0Q504.125 758 477.625 759.0Q451.125 760 432.125 761Q429.125 742 434.125 726Q457.125 723 476.625 718.0Q496.125 713 514.125 706L440.125 516ZM317.125 176Q307.125 212 296.625 249.0Q286.125 286 273.125 324L226.125 461H418.125L363.125 319Q346.125 278 335.625 244.0Q325.125 210 319.125 176ZM878.125 706 955.125 726Q958.125 745 950.125 761Q923.125 759 889.625 757.5Q856.125 756 828.125 756Q800.125 756 767.125 757.5Q734.125 759 706.125 761Q703.125 742 708.125 726Q727.125 721 745.625 717.0Q764.125 713 778.125 706V70L695.125 62Q692.125 42 700.125 27Q736.125 22 772.625 15.0Q809.125 8 840.125 0Q850.125 1 859.125 3.5Q868.125 6 878.125 11ZM1172.125 706 1239.125 726Q1242.125 745 1234.125 761Q1207.125 759 1178.625 757.5Q1150.125 756 1122.125 756Q1094.125 756 1061.125 757.5Q1028.125 759 1000.125 761Q997.125 742 1002.125 726Q1021.125 721 1039.625 717.0Q1058.125 713 1072.125 706V316L989.125 308Q986.125 288 994.125 273Q1030.125 268 1066.625 261.0Q1103.125 254 1134.125 246Q1144.125 247 1153.125 249.5Q1162.125 252 1172.125 257ZM1105.125 155Q1088.125 155 1074.125 144.0Q1060.125 133 1052.125 117.0Q1044.125 101 1044.125 87Q1044.125 74 1055.125 60.5Q1066.125 47 1082.625 37.5Q1099.125 28 1115.125 28Q1133.125 28 1147.125 39.5Q1161.125 51 1168.625 66.5Q1176.125 82 1176.125 96Q1176.125 109 1165.625 123.0Q1155.125 137 1138.625 146.0Q1122.125 155 1105.125 155ZM1445.125 479H1471.125L1631.125 301L1558.125 286Q1557.125 282 1557.125 275Q1557.125 263 1563.125 251Q1590.125 252 1613.625 254.0Q1637.125 256 1665.125 256Q1694.125 256 1712.625 254.0Q1731.125 252 1759.125 251Q1760.125 255 1760.125 258.5Q1760.125 262 1760.125 266Q1760.125 275 1757.125 286Q1741.125 287 1719.125 293.5Q1697.125 300 1682.125 311L1546.125 457L1731.125 706Q1740.125 714 1759.625 719.0Q1779.125 724 1798.125 726Q1798.125 729 1798.625 731.5Q1799.125 734 1799.125 737Q1799.125 749 1793.125 761Q1764.125 759 1734.625 758.0Q1705.125 757 1674.125 757Q1652.125 757 1629.625 758.0Q1607.125 759 1583.125 761Q1582.125 757 1582.125 753.5Q1582.125 750 1582.125 747Q1582.125 736 1585.125 726L1634.125 723L1491.125 519H1445.125V706L1512.125 726Q1512.125 729 1512.625 731.5Q1513.125 734 1513.125 737Q1513.125 749 1507.125 761Q1480.125 759 1451.625 757.5Q1423.125 756 1395.125 756Q1367.125 756 1334.125 757.5Q1301.125 759 1273.125 761Q1272.125 757 1272.125 753.5Q1272.125 750 1272.125 747Q1272.125 736 1275.125 726Q1294.125 721 1312.625 717.0Q1331.125 713 1345.125 706V70L1262.125 62Q1261.125 59 1261.125 56.0Q1261.125 53 1261.125 51Q1261.125 39 1267.125 27Q1303.125 22 1339.625 15.0Q1376.125 8 1407.125 0Q1417.125 1 1426.125 3.5Q1435.125 6 1445.125 11ZM1893.125 506Q1893.125 607 1933.625 662.5Q1974.125 718 2044.125 718Q2075.125 718 2096.125 714.5Q2117.125 711 2137.625 701.0Q2158.125 691 2184.125 673Q2200.125 680 2202.125 697Q2171.125 733 2128.125 753.0Q2085.125 773 2041.125 773Q1965.125 773 1908.125 741.0Q1851.125 709 1819.125 649.0Q1787.125 589 1787.125 506Q1787.125 421 1820.625 361.5Q1854.125 302 1910.625 270.5Q1967.125 239 2036.125 239Q2125.125 239 2167.625 298.5Q2210.125 358 2210.125 452Q2210.125 459 2210.125 465.0Q2210.125 471 2209.125 478L2195.125 489L1893.125 486ZM2035.125 282Q2006.125 282 1977.625 300.0Q1949.125 318 1927.125 354.0Q1905.125 390 1897.125 445L2115.125 433Q2115.125 356 2098.625 319.0Q2082.125 282 2035.125 282Z" fill="currentColor" /></svg>