<svg viewBox="0 0 3334 2340" xmlns="http://www.w3.org/2000/svg"><path d="M322 1336H623L672 625ZM251 1484 52 1887Q29 1934 -24 1928L-71 1924Q-106 1922 -117.0 1897.5Q-128 1873 -114 1846L568 531Q611 449 681 449L763 447Q844 447 838 546L767 1883Q763 1926 705 1928L636 1926Q584 1926 588 1871L615 1484ZM1455 421 1082 1883Q1070 1928 1020 1928H986Q910 1928 926 1862L1301 419Q1313 374 1362 374H1409Q1467 374 1455 421ZM1833 421 1460 1883Q1448 1928 1398 1928H1364Q1288 1928 1304 1862L1679 419Q1691 374 1740 374H1787Q1845 374 1833 421ZM2302 929Q2310 881 2349 881L2396 879Q2471 881 2451 953L2205 1772Q2269 1725 2332 1637Q2355 1604 2383 1623L2433 1656Q2465 1678 2443 1707Q2359 1805 2288.5 1859.5Q2218 1914 2121 1936Q2093 1940 2084 1914L2046 1801Q1988 1877 1947.0 1905.5Q1906 1934 1884 1934H1880Q1863 1934 1829.5 1910.5Q1796 1887 1763.0 1849.0Q1730 1811 1715.5 1766.0Q1701 1721 1717.5 1602.5Q1734 1484 1811.0 1271.0Q1888 1058 1969.0 974.0Q2050 890 2172 892Q2240 892 2302 929ZM2271 1043Q2162 982 2093.5 1040.5Q2025 1099 1959.5 1279.0Q1894 1459 1874.5 1561.5Q1855 1664 1858.0 1701.0Q1861 1738 1894.0 1755.0Q1927 1772 2003.5 1688.0Q2080 1604 2137.5 1458.0Q2195 1312 2271 1043ZM2714 1463 2927 1111Q2995 1000 3066.5 944.0Q3138 888 3189 888H3232Q3265 888 3283.5 899.0Q3302 910 3313.5 949.0Q3325 988 3302 1064L3073 1899Q3067 1928 3040 1928H2933Q2903 1928 2917 1879L3132 1176Q3148 1121 3148.0 1103.5Q3148 1086 3134.0 1086.0Q3120 1086 3100.5 1104.5Q3081 1123 3048 1172Q3009 1228 2954.0 1317.0Q2899 1406 2815 1537Q2657 1778 2591 1899Q2575 1928 2542 1928H2485Q2473 1928 2464.5 1911.5Q2456 1895 2462 1875L2710 941Q2720 888 2751 888H2835Q2884 888 2868 947Z" fill="currentColor" /></svg>