<svg viewBox="0 0 7384 1309" xmlns="http://www.w3.org/2000/svg"><path d="M696 1057H572L381 505L188 1057H63L321 321H440ZM447 823 476 904H285L313 823ZM965 885Q965 919 974.0 938.5Q983 958 999.0 967.5Q1015 977 1035.5 980.0Q1056 983 1080 983V1057Q1067 1059 1053 1060Q1042 1061 1027.0 1061.5Q1012 1062 997 1062Q982 1062 967.0 1061.0Q952 1060 940 1058Q906 1051 887.0 1028.0Q868 1005 858.0 976.5Q848 948 845.5 921.0Q843 894 843 879V867V280H965ZM1328 885Q1328 919 1337.0 938.5Q1346 958 1362.0 967.5Q1378 977 1398.5 980.0Q1419 983 1443 983V1057Q1430 1059 1416 1060Q1405 1061 1390.0 1061.5Q1375 1062 1360 1062Q1345 1062 1330.0 1061.0Q1315 1060 1303 1058Q1269 1051 1250.0 1028.0Q1231 1005 1221.0 976.5Q1211 948 1208.5 921.0Q1206 894 1206 879V867V280H1328ZM1833 488Q1887 493 1930.5 517.0Q1974 541 2005.0 579.0Q2036 617 2052.5 666.0Q2069 715 2069 768Q2069 792 2066 816H1723V728H1954Q1954 702 1945.5 678.0Q1937 654 1920.5 633.5Q1904 613 1882.0 599.0Q1860 585 1833 582ZM1829 963Q1840 963 1856.5 960.5Q1873 958 1891.5 951.5Q1910 945 1928.5 935.0Q1947 925 1961 911L2005 978Q1972 1019 1928.0 1040.0Q1884 1061 1816 1061Q1761 1061 1713.0 1038.5Q1665 1016 1631.0 977.0Q1597 938 1577.0 886.0Q1557 834 1557 774Q1557 717 1575.5 666.0Q1594 615 1626.0 576.5Q1658 538 1700.5 514.0Q1743 490 1792 487V583Q1755 590 1731.0 613.0Q1707 636 1693.5 665.5Q1680 695 1674.5 726.0Q1669 757 1669 779Q1669 818 1678.5 851.5Q1688 885 1708.0 909.5Q1728 934 1757.5 948.5Q1787 963 1829 963ZM2343 493 2356 551V857V859V1057H2235V493ZM2397 518Q2422 504 2457.0 496.5Q2492 489 2552 489V615Q2524 607 2484 606Q2462 606 2439.5 609.5Q2417 613 2397 620ZM2842 886Q2842 920 2851.0 939.0Q2860 958 2876.5 968.0Q2893 978 2913.5 980.5Q2934 983 2957 983V1057Q2944 1059 2931 1060Q2920 1061 2904.5 1061.5Q2889 1062 2874 1062Q2859 1062 2843.5 1061.0Q2828 1060 2817 1058Q2783 1052 2764.0 1028.5Q2745 1005 2735.5 976.5Q2726 948 2723.5 921.0Q2721 894 2721 879V575H2647V493H2721V333H2842V493H2932V575H2842ZM3197 887Q3197 932 3215.5 954.0Q3234 976 3269 980V1061Q3265 1062 3256 1062Q3222 1062 3190.5 1053.0Q3159 1044 3135.0 1024.0Q3111 1004 3097.5 971.0Q3084 938 3084 890Q3084 844 3103.5 810.5Q3123 777 3153.5 755.5Q3184 734 3223.0 723.5Q3262 713 3302 713H3346V784H3324Q3304 784 3282.0 788.0Q3260 792 3241.0 803.0Q3222 814 3209.5 834.5Q3197 855 3197 887ZM3508 890Q3508 898 3509.0 913.5Q3510 929 3513.0 945.0Q3516 961 3522.5 974.0Q3529 987 3540 991L3508 1058Q3495 1058 3480.5 1052.0Q3466 1046 3452.5 1035.0Q3439 1024 3429.5 1010.5Q3420 997 3415 981Q3405 1006 3375.5 1025.5Q3346 1045 3310 1054V978Q3334 973 3353.5 958.5Q3373 944 3387 924V713Q3387 664 3382.0 635.0Q3377 606 3365.0 592.5Q3353 579 3335.5 575.5Q3318 572 3294 572Q3272 572 3252.5 577.5Q3233 583 3216.5 590.5Q3200 598 3187.5 607.0Q3175 616 3169 621L3124 552Q3134 541 3154.0 529.5Q3174 518 3200.0 509.0Q3226 500 3256.5 494.5Q3287 489 3320 489Q3350 489 3378.5 495.0Q3407 501 3430.5 515.0Q3454 529 3471.5 552.5Q3489 576 3496 611Q3503 646 3505.5 681.5Q3508 717 3508 752V882ZM4318 434Q4313 432 4306.0 427.0Q4299 422 4286.0 417.5Q4273 413 4253.0 410.0Q4233 407 4202 409V308Q4246 309 4291.5 317.5Q4337 326 4365 344Q4359 357 4351.0 372.5Q4343 388 4336.0 401.5Q4329 415 4324.0 424.0Q4319 433 4318 434ZM3973 514Q3973 470 3988.0 435.0Q4003 400 4028.5 373.5Q4054 347 4088.5 331.5Q4123 316 4161 311V416Q4129 427 4108.0 454.5Q4087 482 4087 510Q4087 549 4108.0 573.0Q4129 597 4161 615V729Q4128 713 4095.0 694.5Q4062 676 4035.0 651.0Q4008 626 3990.5 593.0Q3973 560 3973 514ZM3989 922Q4003 930 4024.5 937.5Q4046 945 4069.0 951.5Q4092 958 4115.0 962.0Q4138 966 4158 966H4161V1061H4159Q4135 1061 4109.5 1058.5Q4084 1056 4058.0 1050.0Q4032 1044 4008.5 1033.5Q3985 1023 3968 1008ZM4202 635Q4235 650 4269.5 667.0Q4304 684 4332.0 708.5Q4360 733 4378.0 768.0Q4396 803 4396 855Q4396 891 4382.5 925.0Q4369 959 4344.5 986.5Q4320 1014 4284.0 1033.0Q4248 1052 4202 1058V962Q4284 942 4284 853Q4284 818 4261.0 795.0Q4238 772 4202 752ZM4676 886Q4676 920 4685.0 939.0Q4694 958 4710.5 968.0Q4727 978 4747.5 980.5Q4768 983 4791 983V1057Q4778 1059 4765 1060Q4754 1061 4738.5 1061.5Q4723 1062 4708 1062Q4693 1062 4677.5 1061.0Q4662 1060 4651 1058Q4617 1052 4598.0 1028.5Q4579 1005 4569.5 976.5Q4560 948 4557.5 921.0Q4555 894 4555 879V575H4481V493H4555V333H4676V493H4766V575H4676ZM5195 488Q5249 493 5292.5 517.0Q5336 541 5367.0 579.0Q5398 617 5414.5 666.0Q5431 715 5431 768Q5431 792 5428 816H5085V728H5316Q5316 702 5307.5 678.0Q5299 654 5282.5 633.5Q5266 613 5244.0 599.0Q5222 585 5195 582ZM5191 963Q5202 963 5218.5 960.5Q5235 958 5253.5 951.5Q5272 945 5290.5 935.0Q5309 925 5323 911L5367 978Q5334 1019 5290.0 1040.0Q5246 1061 5178 1061Q5123 1061 5075.0 1038.5Q5027 1016 4993.0 977.0Q4959 938 4939.0 886.0Q4919 834 4919 774Q4919 717 4937.5 666.0Q4956 615 4988.0 576.5Q5020 538 5062.5 514.0Q5105 490 5154 487V583Q5117 590 5093.0 613.0Q5069 636 5055.5 665.5Q5042 695 5036.5 726.0Q5031 757 5031 779Q5031 818 5040.5 851.5Q5050 885 5070.0 909.5Q5090 934 5119.5 948.5Q5149 963 5191 963ZM5705 493 5718 550V1057H5597V493ZM6017 555Q6034 572 6043.5 594.5Q6053 617 6057.5 641.5Q6062 666 6063.0 691.0Q6064 716 6064 740V1037V1057H5942V750Q5942 716 5939.0 685.0Q5936 654 5925.0 630.0Q5914 606 5895.0 592.5Q5876 579 5842 579Q5828 579 5804.5 583.5Q5781 588 5759 598V521Q5786 507 5817.5 497.0Q5849 487 5879 487Q5924 487 5955.0 505.5Q5986 524 6017 555ZM6606 639Q6591 621 6564.5 605.5Q6538 590 6494 587V491Q6549 494 6588.5 514.5Q6628 535 6660 574ZM6494 962Q6530 958 6555.5 944.5Q6581 931 6604 913L6649 978Q6618 1017 6582.0 1037.5Q6546 1058 6494 1061ZM6215 775Q6215 718 6231.5 668.0Q6248 618 6280.0 580.0Q6312 542 6355.5 518.5Q6399 495 6453 491V588Q6403 599 6373.0 649.5Q6343 700 6343 772Q6343 809 6350.5 841.5Q6358 874 6372.0 899.0Q6386 924 6406.5 941.0Q6427 958 6453 962V1061Q6398 1058 6354.0 1034.5Q6310 1011 6279.0 972.5Q6248 934 6231.5 883.0Q6215 832 6215 775ZM6937 1057H6815V493H6937ZM6948 313Q6948 343 6927.0 363.5Q6906 384 6876 384Q6846 384 6825.5 363.0Q6805 342 6805 313Q6805 283 6826.0 262.0Q6847 241 6876 241Q6906 241 6927.0 262.0Q6948 283 6948 313ZM7227 885Q7227 919 7236.0 938.5Q7245 958 7261.0 967.5Q7277 977 7297.5 980.0Q7318 983 7342 983V1057Q7329 1059 7315 1060Q7304 1061 7289.0 1061.5Q7274 1062 7259 1062Q7244 1062 7229.0 1061.0Q7214 1060 7202 1058Q7168 1051 7149.0 1028.0Q7130 1005 7120.0 976.5Q7110 948 7107.5 921.0Q7105 894 7105 879V867V280H7227Z" fill="currentColor" /></svg>