<svg viewBox="0 0 5619 798" xmlns="http://www.w3.org/2000/svg"><path d="M536 648Q589 653 646 667L643 691Q569 683 482.5 683.0Q396 683 343 691L339 666Q384 652 435 645Q443 579 446 432Q394 426 331.5 426.0Q269 426 226 432Q202 530 202.0 589.0Q202 648 245 673L241 687Q210 683 136.5 683.0Q63 683 4 691L0 666Q45 652 96 645L254 85Q136 85 103 117Q96 131 96.0 161.0Q96 191 106 202L105 209Q80 224 55 251Q43 250 35.5 241.0Q28 232 28 220Q28 171 87.0 103.0Q146 35 197 17Q348 34 503 46Q517 28 526 0L547 6Q533 76 528.0 150.0Q523 224 523.0 388.0Q523 552 536 648ZM237 382Q282 389 343.5 389.0Q405 389 446 382Q446 205 441 93L438 90Q386 85 309 85ZM1062 694Q997 683 885.5 683.0Q774 683 699 693L696 668Q724 657 760 650Q770 590 770 446V399Q770 275 760 195Q727 190 697 180L701 154Q752 162 821.0 162.0Q890 162 939 154L942 179Q897 190 853 195Q845 249 845.0 417.5Q845 586 853 642Q877 646 921.0 646.0Q965 646 1000 629Q1014 595 1014 549H1039Q1043 626 1067 674ZM1362 627Q1362 565 1331.0 441.5Q1300 318 1262 202L1258 203L1233 389Q1217 504 1217 596Q1217 652 1252 671L1248 688Q1218 683 1169.5 683.0Q1121 683 1063 691L1059 665Q1093 654 1123 649L1216 193Q1164 184 1139 177L1142 151Q1214 162 1275.5 162.0Q1337 162 1371 155L1373 172Q1346 179 1346 195Q1346 217 1408 449L1430 524L1437 522Q1437 496 1528 196Q1528 179 1501 172L1503 155Q1537 162 1599.5 162.0Q1662 162 1733 151L1736 177Q1709 184 1667 192Q1664 216 1664.0 262.5Q1664 309 1677.0 453.0Q1690 597 1701 651Q1738 656 1777 665L1774 690Q1722 683 1658.5 683.0Q1595 683 1544 691L1540 665Q1573 655 1611 650Q1608 414 1579 205H1576Q1473 509 1466 599Q1445 606 1417.0 624.5Q1389 643 1374 661L1362 653ZM2183 564 2197 578Q2130 663 2036 695Q1939 695 1884.0 633.5Q1829 572 1829.0 467.5Q1829 363 1894.0 271.0Q1959 179 2060 150Q2133 150 2225 165L2224 187Q2205 187 2188 194Q2169 239 2163 301H2138Q2130 267 2130 231Q2092 212 2040.0 212.0Q1988 212 1954 240Q1920 302 1915 388Q1957 395 2005 395Q2088 395 2105 360L2126 363Q2117 393 2117.0 422.0Q2117 451 2124 493L2100 497Q2089 467 2084 435Q2044 431 2004.5 431.0Q1965 431 1915 436Q1918 525 1948.0 575.0Q1978 625 2050.0 625.0Q2122 625 2183 564ZM2516 690Q2464 683 2399.5 683.0Q2335 683 2284 691L2280 665Q2312 655 2340 650Q2349 572 2349 446V399Q2349 265 2339 193Q2312 190 2274 177L2277 151Q2334 162 2396.5 162.0Q2459 162 2486 155L2488 172Q2461 179 2461 195Q2461 207 2484.5 245.5Q2508 284 2530 320Q2596 425 2686 578L2689 576V454Q2689 320 2675.0 252.5Q2661 185 2627 174L2629 157Q2655 162 2707.0 162.0Q2759 162 2814 151L2817 177Q2776 190 2748 193Q2738 273 2738 399V446Q2738 598 2748 652Q2790 659 2815 668L2812 694Q2762 683 2718.0 683.0Q2674 683 2650 687Q2650 665 2619.5 613.0Q2589 561 2564 521Q2483 390 2405 255L2401 257V391Q2401 590 2431 650Q2476 655 2519 665ZM2891 164 3121 157Q3235 157 3296.5 211.0Q3358 265 3358.0 372.5Q3358 480 3290.5 573.0Q3223 666 3123 695Q3097 695 3055.5 685.5Q3014 676 2987 665Q2976 678 2967 702L2946 697Q2965 608 2965.0 445.5Q2965 283 2956 202Q2922 189 2891 189ZM3047 203Q3040 268 3040.0 410.5Q3040 553 3044 608Q3094 631 3146.5 631.0Q3199 631 3230 604Q3268 532 3268 427Q3268 329 3235 264Q3217 230 3184.5 211.0Q3152 192 3113.5 192.0Q3075 192 3047 203ZM3437 164 3667 157Q3757 157 3802.0 183.5Q3847 210 3847 280Q3847 328 3817.5 365.0Q3788 402 3740 420L3852 649Q3886 655 3916 663L3912 690Q3870 683 3817.5 683.0Q3765 683 3735 688L3731 672Q3744 659 3744 629Q3744 568 3674 433Q3653 429 3625 429L3627 400H3637Q3755 400 3755 292Q3755 192 3654 192Q3620 192 3593 203Q3586 269 3586.0 429.0Q3586 589 3595 650Q3639 655 3677 665L3674 690Q3622 683 3557.5 683.0Q3493 683 3442 691L3438 665Q3466 656 3501 650Q3511 575 3511.0 416.5Q3511 258 3502 197Q3463 184 3437 184ZM4028 151Q4122 162 4218.0 162.0Q4314 162 4407 151L4411 177Q4381 189 4349 195Q4338 277 4338.0 423.0Q4338 569 4349 651Q4369 654 4423 666L4419 691Q4371 683 4296.0 683.0Q4221 683 4181 691L4177 665Q4211 654 4254 649Q4260 591 4263 488Q4216 483 4169.0 483.0Q4122 483 4087 488Q4067 570 4067 602Q4067 651 4102 671L4098 688Q4075 683 4011.0 683.0Q3947 683 3910 691L3906 665Q3930 656 3972 649L4102 193Q4058 186 4025 177ZM4095 441Q4134 447 4181.5 447.0Q4229 447 4263 441Q4263 256 4255 202Q4221 200 4204.5 200.0Q4188 200 4154 202ZM4646 671Q4646 583 4684.5 519.0Q4723 455 4765 455Q4776 455 4787 462L4790 469Q4777 494 4774 532L4768 536Q4764 534 4753.0 534.0Q4742 534 4720.5 546.0Q4699 558 4687 570Q4680 584 4680 602Q4680 649 4743.5 682.5Q4807 716 4866 716Q4989 716 4989 576Q4989 523 4888 443Q4846 409 4804 375Q4703 295 4703 236Q4703 166 4766.0 105.5Q4829 45 4909 17Q4995 17 5072 34V54Q5020 102 5014 202H4989Q4989 149 4984 109Q4941 89 4890.5 89.0Q4840 89 4805.0 110.5Q4770 132 4770.0 165.0Q4770 198 4799.5 231.5Q4829 265 4871.0 296.5Q4913 328 4954.5 360.5Q4996 393 5025.5 430.5Q5055 468 5055 503Q5055 603 5000.0 681.0Q4945 759 4850 798Q4725 785 4650 728Q4646 700 4646 671ZM5567 628 5581 642Q5508 756 5383 798Q5297 798 5242.0 754.0Q5187 710 5164.5 641.0Q5142 572 5142.0 471.0Q5142 370 5167.5 279.5Q5193 189 5256.0 116.5Q5319 44 5413 17Q5514 17 5619 36L5618 58Q5592 58 5570 67Q5545 126 5537 208H5512Q5503 161 5503 118Q5450 89 5386.5 89.0Q5323 89 5282 127Q5231 230 5231 392Q5231 573 5278 648Q5296 678 5328.5 697.5Q5361 717 5404.5 717.0Q5448 717 5492.5 691.5Q5537 666 5567 628Z" fill="currentColor" /></svg>