<svg viewBox="0 0 4088 1296" xmlns="http://www.w3.org/2000/svg"><path d="M98 289Q212 300 336.0 300.0Q460 300 574 289L578 314Q533 328 482 335Q469 431 469.0 625.5Q469 820 482 916Q535 921 592 935L589 959Q515 951 428.5 951.0Q342 951 289 959L285 934Q330 920 381 913Q389 847 392 700Q340 694 277.5 694.0Q215 694 172 700Q148 798 148.0 857.0Q148 916 191 941L187 955Q156 951 82.5 951.0Q9 951 -50 959L-54 934Q-9 920 42 913L206 332Q150 326 95 313ZM183 650Q228 657 289.5 657.0Q351 657 392 650Q392 408 382 340Q351 337 320.5 337.0Q290 337 258 340ZM785 721Q785 750 785.0 812.5Q785 875 791 921Q819 927 854 940L852 959Q796 951 746.0 951.0Q696 951 645 957L642 938Q672 925 701 918Q710 854 711 721L713 534Q713 508 713.0 440.5Q713 373 706 302Q680 294 652 294V273Q752 266 843 240L848 258Q829 273 801 287Q789 353 787 534ZM1668 957Q1620 951 1586.5 951.0Q1553 951 1525 953V939Q1540 861 1544 682Q1544 674 1544 666Q1544 548 1502 548Q1466 548 1414.0 597.0Q1362 646 1344 688L1340 920Q1374 927 1409 940L1407 959Q1351 951 1316.0 951.0Q1281 951 1253 953V939Q1268 861 1272 682Q1272 674 1272 666Q1272 548 1230 548Q1194 548 1142.5 597.0Q1091 646 1073 688Q1073 833 1084 921Q1111 927 1147 940L1145 959Q1089 951 1039.0 951.0Q989 951 938 957L935 938Q965 925 994 918Q1003 850 1003 761V677Q1003 585 996 514Q972 506 942 506V485Q1006 482 1077 466L1084 470Q1073 539 1073 626L1077 627Q1109 580 1161.0 530.5Q1213 481 1255 466Q1345 466 1345 626L1349 627Q1381 580 1433.0 530.5Q1485 481 1527 466Q1617 466 1617 623Q1617 630 1617 637L1612 918Q1641 925 1671 938ZM1944 894Q2007 894 2067 841L2078 851Q2021 929 1932 966Q1844 966 1800.0 911.0Q1756 856 1756.0 758.0Q1756 660 1811.0 575.5Q1866 491 1958 466Q2025 466 2052.0 492.5Q2079 519 2079 586Q2079 624 2069 651Q2090 659 2118 659L2117 680Q2111 680 2104 680Q1992 680 1836 713Q1836 846 1888 879Q1910 894 1944 894ZM1865 552Q1838 608 1836 687Q1918 660 1999 646Q1999 580 1986.5 554.0Q1974 528 1934.0 528.0Q1894 528 1865 552ZM2517 660Q2517 548 2471 548Q2432 548 2379.0 597.0Q2326 646 2308 688Q2308 833 2319 921Q2346 927 2382 940L2380 959Q2324 951 2274.0 951.0Q2224 951 2173 957L2170 938Q2200 925 2229 918Q2238 850 2238 761V677Q2238 585 2231 514Q2207 506 2177 506V485Q2241 482 2312 466L2319 470Q2308 539 2308 626L2312 627Q2346 580 2400.5 530.5Q2455 481 2499 466Q2560 466 2578 521Q2590 560 2590 617Q2590 626 2590 637L2585 918Q2614 925 2644 938L2641 957Q2593 951 2559.5 951.0Q2526 951 2496 953V939Q2512 861 2516 682Q2517 672 2517 660ZM2729 775Q2729 671 2785.0 584.5Q2841 498 2935 466Q2989 466 3033 476Q3033 346 3026 288Q3002 280 2972 280V259Q3036 256 3107 240L3114 245Q3097 343 3097 575V758Q3097 860 3104 918Q3128 926 3158 926V947Q3094 950 3023 966L3016 962Q3027 893 3027 806L3023 805Q2988 855 2940.0 902.0Q2892 949 2849 966Q2794 966 2761.5 905.0Q2729 844 2729 775ZM2809 730Q2809 780 2826.5 832.0Q2844 884 2877 884Q2912 884 2962.0 834.0Q3012 784 3027 744Q3027 595 3020 552Q2967 528 2917.5 528.0Q2868 528 2842 552Q2809 628 2809 730ZM3462 959Q3411 951 3351.0 951.0Q3291 951 3234 957L3231 938Q3261 925 3290 918Q3299 850 3299 761V677Q3299 585 3292 514Q3268 506 3238 506V485Q3302 482 3373 466L3380 470Q3369 539 3369 626L3373 627Q3387 587 3424.5 534.5Q3462 482 3494 466Q3539 466 3582 482V496Q3544 544 3539 621H3517Q3517 582 3515 560Q3502 550 3481 550Q3451 550 3417.5 597.5Q3384 645 3369 688Q3369 833 3380 921Q3430 928 3464 940ZM3624 775Q3624 671 3680.0 584.5Q3736 498 3830 466Q3897 466 3970 487Q3984 466 3993 434L4014 440Q3992 530 3992 758Q3992 860 3999 918Q4023 926 4053 926V947Q3989 950 3918 966L3911 962Q3922 893 3922 806L3918 805Q3883 855 3835.0 902.0Q3787 949 3744 966Q3689 966 3656.5 905.0Q3624 844 3624 775ZM3704 730Q3704 779 3721.5 831.5Q3739 884 3772 884Q3807 884 3857.0 834.0Q3907 784 3922 744Q3922 595 3915 552Q3862 528 3812.5 528.0Q3763 528 3737 552Q3704 628 3704 730Z" fill="currentColor" /></svg>