<svg viewBox="0 0 7152 1200" xmlns="http://www.w3.org/2000/svg"><path d="M3 900 88 309H323L406 900H227L219 814H182L176 900ZM85 853H89L92 832Q94 821 95 808L98 777L201 776L303 777L311 853H316L292 601L261 351L204 353L152 351L113 599ZM201 775 99 773 124 600 156 355 204 354 257 355 280 601 302 773ZM183 737H219L201 434ZM434 900V270H590V900ZM508 853H512L517 567L513 309H509L504 567ZM750 907Q684 907 662.0 874.0Q640 841 640 776V405H796V770Q796 798 813 798Q817 798 822.0 797.5Q827 797 830 795V405H986V900H853L841 835Q832 866 807.0 886.5Q782 907 750 907ZM762 853Q787 853 805 838V836Q786 851 762 851Q740 851 732.0 834.0Q724 817 724 803L728 649L724 451H720L715 649L718 803Q719 826 730.0 839.5Q741 853 762 853ZM908 857H912L917 644L913 451H909L904 644ZM1036 900V405H1169L1181 470Q1190 439 1215.0 418.5Q1240 398 1272 398Q1317 398 1340.5 414.0Q1364 430 1374 461Q1385 434 1408.5 416.0Q1432 398 1462 398Q1528 398 1550.0 431.0Q1572 464 1572 529V900H1416V535Q1416 507 1399 507Q1395 507 1390.0 507.5Q1385 508 1382 510V900H1226V535Q1226 507 1209 507Q1205 507 1200.0 507.5Q1195 508 1192 510V900ZM1297 853H1301L1306 655L1303 501Q1302 478 1291.0 464.5Q1280 451 1259 451Q1234 451 1216 466V468Q1236 453 1259 453Q1281 453 1289.5 470.0Q1298 487 1297 501L1293 655ZM1493 853H1497L1502 655L1499 501Q1498 478 1487.0 464.5Q1476 451 1455 451Q1430 451 1412 466V468Q1432 453 1455 453Q1477 453 1485.5 470.0Q1494 487 1493 501L1489 655ZM1112 853H1116L1121 660L1117 471H1113L1108 660ZM1617 900V405H1750L1762 470Q1771 439 1796.0 418.5Q1821 398 1853 398Q1919 398 1941.0 431.0Q1963 464 1963 529V900H1807V535Q1807 507 1790 507Q1786 507 1781.0 507.5Q1776 508 1773 510V900ZM1882 853H1886L1891 655L1888 501Q1887 478 1876.0 464.5Q1865 451 1844 451Q1819 451 1801 466V468Q1821 453 1844 453Q1866 453 1874.5 470.0Q1883 487 1882 501L1878 655ZM1693 853H1697L1702 660L1698 471H1694L1689 660ZM2085 352Q2053 352 2031.0 330.5Q2009 309 2009 279Q2009 248 2031.0 226.5Q2053 205 2085 205Q2117 205 2140.0 226.5Q2163 248 2163 279Q2163 309 2140.0 330.5Q2117 352 2085 352ZM2086 316Q2123 316 2123 279Q2123 242 2086 242Q2049 242 2049 279Q2049 316 2086 316ZM2086 314Q2072 314 2063.0 303.5Q2054 293 2054 279Q2054 264 2063.0 254.5Q2072 245 2086 245Q2100 245 2108.5 254.5Q2117 264 2117 279Q2117 293 2108.5 303.5Q2100 314 2086 314ZM2008 900V405H2164V900ZM2083 853H2087L2092 660L2088 471H2084L2079 660ZM2535 908Q2473 908 2432.5 892.5Q2392 877 2372.5 838.5Q2353 800 2353 731V712H2520V756Q2520 790 2524.0 804.5Q2528 819 2541 819Q2553 819 2557 809Q2561 800 2561 764Q2561 731 2550.0 713.0Q2539 695 2515.5 682.5Q2492 670 2454 654Q2398 629 2378.0 587.5Q2358 546 2358 478Q2358 414 2375.5 376.5Q2393 339 2433.0 323.0Q2473 307 2541 307Q2723 307 2723 451V517H2564V501Q2564 481 2563.5 465.0Q2563 449 2562 439Q2559 419 2543 419Q2530 419 2526.5 435.0Q2523 451 2523 473Q2523 501 2533.5 515.5Q2544 530 2563.0 538.0Q2582 546 2605 555Q2652 572 2679.0 590.5Q2706 609 2718.0 640.5Q2730 672 2730 729Q2730 827 2679.0 867.5Q2628 908 2535 908ZM2540 861Q2551 861 2564.5 860.0Q2578 859 2586 857Q2621 849 2636.5 823.0Q2652 797 2652 740Q2652 692 2633.5 663.5Q2615 635 2575 621L2544 610L2515 596Q2477 577 2462.5 549.5Q2448 522 2448 479Q2448 428 2460.5 402.5Q2473 377 2507 370Q2515 368 2524.5 367.0Q2534 366 2544 366Q2562 366 2575 369Q2612 375 2626.5 400.5Q2641 426 2641 479H2644Q2647 422 2631.5 397.0Q2616 372 2575 366Q2568 365 2560.0 364.5Q2552 364 2544 364Q2522 364 2507 367Q2469 374 2452.0 399.5Q2435 425 2435 479Q2435 568 2513 600L2543 612L2573 625Q2612 642 2626.0 668.0Q2640 694 2640 740Q2640 794 2628.5 820.5Q2617 847 2585 854Q2577 856 2564.0 857.5Q2551 859 2540 859Q2532 859 2519.5 858.0Q2507 857 2500 855Q2464 848 2450.5 822.0Q2437 796 2437 739H2434Q2431 799 2445.5 825.5Q2460 852 2499 858Q2506 859 2519.0 860.0Q2532 861 2540 861ZM2856 907Q2835 907 2812.0 901.0Q2789 895 2773.5 874.5Q2758 854 2758 811V730Q2758 688 2778.0 664.5Q2798 641 2829.0 628.0Q2860 615 2894 603Q2925 593 2934.0 578.5Q2943 564 2943 535V503Q2943 492 2940.0 484.5Q2937 477 2926 477Q2915 477 2912 486Q2909 496 2909 516V579H2768V514Q2768 454 2802.5 424.5Q2837 395 2927 395Q2991 395 3029.0 403.5Q3067 412 3084.5 437.5Q3102 463 3102 514V900H2946V851Q2940 870 2919.5 888.5Q2899 907 2856 907ZM2830 534H2838V505Q2838 474 2863.5 452.5Q2889 431 2924 431V429Q2889 429 2859.5 450.0Q2830 471 2830 505ZM3018 853H3022L3027 660L3023 471H3019L3014 660ZM2874 861V859Q2855 859 2846.5 843.0Q2838 827 2838 789V719Q2838 685 2857.5 668.0Q2877 651 2894 645V643Q2874 650 2851.0 668.5Q2828 687 2828 719V789Q2828 829 2841.0 845.0Q2854 861 2874 861ZM2926 820Q2939 820 2941.0 806.5Q2943 793 2943 773V654Q2928 663 2918.5 677.0Q2909 691 2909 714V779Q2909 796 2911.5 808.0Q2914 820 2926 820ZM3147 900V405H3280L3292 470Q3301 439 3326.0 418.5Q3351 398 3383 398Q3449 398 3471.0 431.0Q3493 464 3493 529V900H3337V535Q3337 507 3320 507Q3316 507 3311.0 507.5Q3306 508 3303 510V900ZM3412 853H3416L3421 655L3418 501Q3417 478 3406.0 464.5Q3395 451 3374 451Q3349 451 3331 466V468Q3351 453 3374 453Q3396 453 3404.5 470.0Q3413 487 3412 501L3408 655ZM3223 853H3227L3232 660L3228 471H3224L3219 660ZM3703 914Q3603 914 3565.0 877.0Q3527 840 3527 756V722H3684V791Q3684 810 3687 821Q3690 832 3701 832Q3711 832 3714.5 824.0Q3718 816 3718 805V759Q3718 733 3707.5 721.0Q3697 709 3678.0 702.0Q3659 695 3635 685Q3597 671 3568.5 644.0Q3540 617 3540 565V537Q3540 461 3580.5 428.0Q3621 395 3716 395Q3812 395 3848.5 431.0Q3885 467 3885 547V579H3734V516Q3734 496 3731 486Q3728 477 3717 477Q3706 477 3703.0 484.5Q3700 492 3700 503V550Q3700 573 3713.5 584.5Q3727 596 3747.5 602.0Q3768 608 3789 616Q3828 629 3856.5 655.0Q3885 681 3885 730V766Q3885 846 3843.0 880.0Q3801 914 3703 914ZM3704 871Q3713 871 3725.0 870.5Q3737 870 3745 868Q3777 861 3791.0 833.5Q3805 806 3805 758Q3805 716 3787.5 692.5Q3770 669 3735 656L3710 647L3684 635Q3650 619 3639.0 595.0Q3628 571 3628 534Q3628 490 3639.5 468.5Q3651 447 3681 441Q3688 439 3697.0 438.5Q3706 438 3714 438H3729Q3733 438 3736.0 438.5Q3739 439 3742 440Q3775 445 3788.5 467.0Q3802 489 3802 534H3804Q3807 486 3793.0 464.5Q3779 443 3742 438Q3736 437 3729.0 436.5Q3722 436 3714 436Q3706 436 3697.0 436.5Q3688 437 3681 438Q3647 444 3631.5 466.0Q3616 488 3616 534Q3616 573 3632.0 599.5Q3648 626 3683 639L3710 649L3734 659Q3769 673 3781.5 695.5Q3794 718 3794 758Q3794 803 3783.5 831.5Q3773 860 3744 865Q3737 867 3725.0 868.5Q3713 870 3704 870Q3696 870 3683.5 869.0Q3671 868 3665 866Q3633 860 3620.5 832.5Q3608 805 3608 757H3605Q3603 808 3616.0 836.0Q3629 864 3664 869Q3670 870 3683.0 870.5Q3696 871 3704 871ZM4074 900V309H4233V900ZM4149 853H4153L4158 600L4154 353H4150L4145 600ZM4283 900V405H4416L4428 470Q4437 439 4462.0 418.5Q4487 398 4519 398Q4585 398 4607.0 431.0Q4629 464 4629 529V900H4473V535Q4473 507 4456 507Q4452 507 4447.0 507.5Q4442 508 4439 510V900ZM4548 853H4552L4557 655L4554 501Q4553 478 4542.0 464.5Q4531 451 4510 451Q4485 451 4467 466V468Q4487 453 4510 453Q4532 453 4540.5 470.0Q4549 487 4548 501L4544 655ZM4359 853H4363L4368 660L4364 471H4360L4355 660ZM4674 900V270H4830V900ZM4748 853H4752L4757 567L4753 309H4749L4744 567ZM4957 352Q4925 352 4903.0 330.5Q4881 309 4881 279Q4881 248 4903.0 226.5Q4925 205 4957 205Q4989 205 5012.0 226.5Q5035 248 5035 279Q5035 309 5012.0 330.5Q4989 352 4957 352ZM4958 316Q4995 316 4995 279Q4995 242 4958 242Q4921 242 4921 279Q4921 316 4958 316ZM4958 314Q4944 314 4935.0 303.5Q4926 293 4926 279Q4926 264 4935.0 254.5Q4944 245 4958 245Q4972 245 4980.5 254.5Q4989 264 4989 279Q4989 293 4980.5 303.5Q4972 314 4958 314ZM4880 900V405H5036V900ZM4955 853H4959L4964 660L4960 471H4956L4951 660ZM5086 900V405H5219L5231 470Q5240 439 5265.0 418.5Q5290 398 5322 398Q5388 398 5410.0 431.0Q5432 464 5432 529V900H5276V535Q5276 507 5259 507Q5255 507 5250.0 507.5Q5245 508 5242 510V900ZM5351 853H5355L5360 655L5357 501Q5356 478 5345.0 464.5Q5334 451 5313 451Q5288 451 5270 466V468Q5290 453 5313 453Q5335 453 5343.5 470.0Q5352 487 5351 501L5347 655ZM5162 853H5166L5171 660L5167 471H5163L5158 660ZM5645 912Q5586 912 5547.5 898.5Q5509 885 5490.5 846.5Q5472 808 5472 734V527Q5472 453 5517.0 425.0Q5562 397 5645 397Q5728 397 5773.0 425.0Q5818 453 5818 527V667H5628V802Q5628 819 5632.5 825.5Q5637 832 5645 832Q5653 832 5657.5 825.5Q5662 819 5662 802V712H5818V733Q5818 807 5799.5 846.0Q5781 885 5743.0 898.5Q5705 912 5645 912ZM5735 633H5743V518Q5743 485 5725.5 463.5Q5708 442 5672 442V444Q5707 444 5721.0 465.5Q5735 487 5735 518ZM5608 867V865Q5586 865 5568.0 846.0Q5550 827 5551 798L5554 655L5551 511Q5550 482 5573.5 463.5Q5597 445 5625 445V443Q5590 443 5567.0 461.5Q5544 480 5543 517L5540 655L5543 797Q5544 828 5565.0 847.5Q5586 867 5608 867ZM5628 600H5662V507Q5662 490 5657.5 483.5Q5653 477 5645 477Q5637 477 5632.5 483.5Q5628 490 5628 507ZM5664 867Q5700 867 5721.5 843.5Q5743 820 5743 787V736H5735V787Q5735 818 5717.0 841.5Q5699 865 5664 865ZM6185 912Q6125 912 6084.5 897.0Q6044 882 6023.5 841.5Q6003 801 6003 727V435Q6003 361 6053.0 330.5Q6103 300 6185 300Q6267 300 6313.5 330.5Q6360 361 6360 435V726Q6360 801 6341.5 841.0Q6323 881 6284.0 896.5Q6245 912 6185 912ZM6149 855H6176Q6182 855 6185 854Q6187 855 6192 855H6216Q6280 855 6282 786L6286 600L6282 407Q6281 376 6261.5 362.5Q6242 349 6210 351L6185 352L6155 351Q6123 350 6103.5 363.0Q6084 376 6083 407L6079 600L6083 786Q6085 855 6149 855ZM6176 852 6164 851H6149Q6086 849 6087 786L6092 599L6087 407Q6086 378 6105.0 367.0Q6124 356 6155 355L6185 354L6210 355Q6241 356 6260.0 367.0Q6279 378 6278 407L6273 599L6278 786Q6279 849 6216 851H6202L6192 852ZM6185 820Q6193 820 6197 813Q6201 808 6201 790V427Q6201 410 6197 403Q6193 397 6185 397Q6178 397 6173 403Q6169 410 6169 427V790Q6169 808 6173 813Q6177 820 6185 820ZM6405 900V405H6538L6550 470Q6559 439 6584.0 418.5Q6609 398 6641 398Q6707 398 6729.0 431.0Q6751 464 6751 529V900H6595V535Q6595 507 6578 507Q6574 507 6569.0 507.5Q6564 508 6561 510V900ZM6670 853H6674L6679 655L6676 501Q6675 478 6664.0 464.5Q6653 451 6632 451Q6607 451 6589 466V468Q6609 453 6632 453Q6654 453 6662.5 470.0Q6671 487 6670 501L6666 655ZM6481 853H6485L6490 660L6486 471H6482L6477 660ZM6964 912Q6905 912 6866.5 898.5Q6828 885 6809.5 846.5Q6791 808 6791 734V527Q6791 453 6836.0 425.0Q6881 397 6964 397Q7047 397 7092.0 425.0Q7137 453 7137 527V667H6947V802Q6947 819 6951.5 825.5Q6956 832 6964 832Q6972 832 6976.5 825.5Q6981 819 6981 802V712H7137V733Q7137 807 7118.5 846.0Q7100 885 7062.0 898.5Q7024 912 6964 912ZM7054 633H7062V518Q7062 485 7044.5 463.5Q7027 442 6991 442V444Q7026 444 7040.0 465.5Q7054 487 7054 518ZM6927 867V865Q6905 865 6887.0 846.0Q6869 827 6870 798L6873 655L6870 511Q6869 482 6892.5 463.5Q6916 445 6944 445V443Q6909 443 6886.0 461.5Q6863 480 6862 517L6859 655L6862 797Q6863 828 6884.0 847.5Q6905 867 6927 867ZM6947 600H6981V507Q6981 490 6976.5 483.5Q6972 477 6964 477Q6956 477 6951.5 483.5Q6947 490 6947 507ZM6983 867Q7019 867 7040.5 843.5Q7062 820 7062 787V736H7054V787Q7054 818 7036.0 841.5Q7018 865 6983 865Z" fill="currentColor" /></svg>