<svg viewBox="0 0 8499 2560" xmlns="http://www.w3.org/2000/svg"><path d="M813 2020Q826 1957 826.0 1919.5Q826 1882 824.5 1863.0Q823 1844 820.5 1822.5Q818 1801 814.5 1774.5Q811 1748 808 1713Q785 1474 645 1320Q583 1252 511.0 1216.5Q439 1181 392.5 1181.0Q346 1181 321 1187Q265 1355 265 1538Q265 1700 282 1780Q309 1900 365 2021H66Q90 1961 90.0 1768.5Q90 1576 119.0 1408.5Q148 1241 194.5 1110.0Q241 979 298.5 880.5Q356 782 413.5 708.5Q471 635 522.0 582.5Q573 530 607 490H922Q879 539 879 627Q879 667 892 758L917 940Q1054 1884 1162 2020ZM362 1081Q401 1066 444.0 1066.0Q487 1066 521.5 1072.0Q556 1078 590 1092Q663 1120 712 1181Q663 924 652 867L617 692L560 760Q440 904 362 1081ZM1306 2020Q1352 1862 1352 1477Q1352 1203 1304 1103Q1292 1078 1277 1056L1244 1010H1591Q1576 1069 1571 1104L1564 1164Q1680 990 1859.5 990.0Q2039 990 2092 1185Q2171 1050 2301 1006Q2347 990 2404.5 990.0Q2462 990 2508.5 1014.5Q2555 1039 2587 1084Q2650 1175 2650 1333V1440Q2650 1746 2658.5 1823.5Q2667 1901 2671 1926Q2677 1970 2691 2020H2396Q2440 1869 2440 1477Q2440 1318 2424.0 1263.5Q2408 1209 2382.5 1184.5Q2357 1160 2313 1160Q2184 1160 2108 1312V1440Q2108 1746 2116.5 1823.5Q2125 1901 2129 1926Q2135 1970 2149 2020H1854Q1899 1866 1899 1477Q1899 1314 1883.0 1261.5Q1867 1209 1842.0 1184.5Q1817 1160 1773.5 1160.0Q1730 1160 1695.0 1177.0Q1660 1194 1632 1222Q1579 1274 1549 1356Q1547 1385 1547 1416V1477Q1547 1862 1593 2020ZM2075 1400 2071 1418ZM3678 1486 3675 1678Q3675 1857 3708 1922Q3728 1961 3755 1982L3802 2020H3512L3481 1904Q3368 2040 3159 2040Q3040 2040 2967 1960Q2903 1888 2903.0 1790.0Q2903 1692 2949.5 1619.0Q2996 1546 3072 1498Q3222 1405 3449 1401V1390Q3449 1147 3374 1105Q3347 1090 3304.5 1090.0Q3262 1090 3220.0 1118.0Q3178 1146 3144 1190Q3076 1279 3047 1400Q2958 1347 2958 1197Q2958 1136 2974 1060Q3012 1060 3046 1049L3123 1025Q3236 990 3344.0 990.0Q3452 990 3516.5 1022.0Q3581 1054 3617 1117Q3678 1224 3678 1486ZM3374 1856Q3449 1767 3449 1647V1499Q3309 1512 3218 1592Q3119 1678 3119 1810Q3119 1872 3147.5 1906.0Q3176 1940 3219.0 1940.0Q3262 1940 3302.0 1917.5Q3342 1895 3374 1856ZM3975 2020Q4021 1862 4021 1477Q4021 1203 3977 1103Q3959 1062 3913 1010H4268Q4250 1073 4239 1183Q4333 1065 4501 1016Q4573 995 4606 950Q4639 1029 4639.0 1086.0Q4639 1143 4633.0 1191.5Q4627 1240 4615 1286Q4589 1385 4546 1440Q4509 1245 4431 1212Q4341 1173 4255 1318Q4237 1348 4225 1382Q4224 1405 4224.0 1429.0Q4224 1453 4224 1477Q4224 1862 4270 2020ZM5517 1486 5514 1678Q5514 1857 5547 1922Q5567 1961 5594 1982L5641 2020H5351L5320 1904Q5207 2040 4998 2040Q4879 2040 4806 1960Q4742 1888 4742.0 1790.0Q4742 1692 4788.5 1619.0Q4835 1546 4911 1498Q5061 1405 5288 1401V1390Q5288 1147 5213 1105Q5186 1090 5143.5 1090.0Q5101 1090 5059.0 1118.0Q5017 1146 4983 1190Q4915 1279 4886 1400Q4797 1347 4797 1197Q4797 1136 4813 1060Q4851 1060 4885 1049L4962 1025Q5075 990 5183.0 990.0Q5291 990 5355.5 1022.0Q5420 1054 5456 1117Q5517 1224 5517 1486ZM5213 1856Q5288 1767 5288 1647V1499Q5148 1512 5057 1592Q4958 1678 4958 1810Q4958 1872 4986.5 1906.0Q5015 1940 5058.0 1940.0Q5101 1940 5141.0 1917.5Q5181 1895 5213 1856ZM5800 2020Q5846 1862 5846 1477Q5846 1203 5798 1103Q5786 1078 5771 1056L5738 1010H6085Q6070 1060 6065 1104L6057 1176Q6178 990 6365 990Q6486 990 6554 1084Q6620 1176 6620 1333V1440Q6620 1715 6625.0 1776.0Q6630 1837 6633.0 1869.0Q6636 1901 6640 1926Q6647 1973 6661 2020H6368Q6414 1862 6414 1477Q6414 1323 6394.5 1266.0Q6375 1209 6348.0 1184.5Q6321 1160 6277 1160Q6196 1160 6130 1224Q6073 1279 6043 1364Q6041 1391 6041 1420V1477Q6041 1862 6087 2020ZM7208 610Q7187 687 7187.0 794.5Q7187 902 7191.5 932.0Q7196 962 7206 980Q7225 1010 7280 1010H7548Q7548 1066 7521 1096Q7472 1150 7401 1150Q7366 1150 7339 1140Q7290 1120 7263.0 1120.0Q7236 1120 7219.0 1130.5Q7202 1141 7192 1161Q7174 1197 7174.0 1318.0Q7174 1439 7181.5 1566.0Q7189 1693 7219.0 1778.5Q7249 1864 7310.0 1907.0Q7371 1950 7478 1950Q7478 1981 7436 2024Q7425 2036 7417 2040Q7240 2040 7152 1998Q7051 1948 7008 1820Q6965 1690 6965 1435Q6965 1212 6953.0 1171.5Q6941 1131 6931 1118Q6919 1103 6873 1081Q6935 1034 6996 906L7046 801Q7099 681 7136.5 645.5Q7174 610 7208 610ZM8353 1680Q8389 1704 8389.0 1763.5Q8389 1823 8373.0 1868.0Q8357 1913 8317 1952Q8227 2040 8043 2040Q7829 2040 7717 1882Q7618 1741 7618 1501Q7618 1259 7752 1121Q7879 990 8096 990Q8247 990 8332 1078Q8399 1148 8399.0 1239.5Q8399 1331 8363.5 1404.5Q8328 1478 8259 1531Q8117 1641 7862 1647Q7883 1848 7988 1916Q8026 1940 8089.0 1940.0Q8152 1940 8223.0 1874.0Q8294 1808 8353 1680ZM7856 1552Q8172 1531 8172 1246Q8172 1139 8108 1102Q8086 1090 8050.0 1090.0Q8014 1090 7977.5 1112.0Q7941 1134 7914 1184Q7856 1293 7856 1521Z" fill="currentColor" /></svg>