<svg viewBox="0 0 3352 726" xmlns="http://www.w3.org/2000/svg"><path d="M348 0 616 716H518L303 115L90 716H0L264 81L282 14ZM480 436V481L160 491V426ZM1336 716 1341 396Q1342 362 1330.0 334.0Q1318 306 1295.5 289.0Q1273 272 1240 272Q1214 272 1188.0 284.0Q1162 296 1141.0 312.5Q1120 329 1109 343L1091 293Q1113 274 1137.5 256.5Q1162 239 1186.5 225.5Q1211 212 1234.0 204.0Q1257 196 1276 196Q1330 196 1363.0 223.0Q1396 250 1410.0 291.0Q1424 332 1421 376L1416 451L1426 716ZM1031 716 1036 396Q1037 362 1025.0 333.0Q1013 304 990.5 285.5Q968 267 935 267Q909 267 883.0 279.0Q857 291 836.5 307.0Q816 323 806 336L796 283Q814 269 836.5 254.0Q859 239 883.0 225.5Q907 212 929.5 204.0Q952 196 971 196Q1025 196 1058.0 223.0Q1091 250 1105.0 291.0Q1119 332 1116 376L1111 451L1121 716ZM726 716V416L716 226L806 206V466L811 716ZM1839 726 1834 627 1844 421Q1847 364 1827.5 331.5Q1808 299 1772.5 288.0Q1737 277 1689.5 285.5Q1642 294 1589 321V271Q1648 233 1690.0 217.0Q1732 201 1754 201Q1808 201 1845.0 228.0Q1882 255 1901.5 296.0Q1921 337 1919 381L1914 511L1924 706ZM1682 726Q1648 726 1618.0 710.5Q1588 695 1569.5 665.5Q1551 636 1551 594Q1551 557 1565.0 525.0Q1579 493 1612.0 470.5Q1645 448 1701 441L1864 420V462L1718 493Q1685 500 1668.0 513.5Q1651 527 1645.5 544.0Q1640 561 1640 579Q1640 598 1649.0 616.0Q1658 634 1676.0 644.5Q1694 655 1721 655Q1749 654 1773.5 639.0Q1798 624 1819.0 601.0Q1840 578 1859 554L1836 641Q1817 655 1794.5 675.0Q1772 695 1744.5 710.5Q1717 726 1682 726ZM2099 716V416L2079 226L2169 206L2179 466V716ZM2167 387 2159 332Q2189 300 2215.5 271.0Q2242 242 2273.0 222.5Q2304 203 2348 201L2359 299Q2321 298 2295.0 302.0Q2269 306 2249.5 316.0Q2230 326 2211.0 343.5Q2192 361 2167 387ZM2764 716 2769 396Q2770 362 2758.0 333.0Q2746 304 2723.5 285.5Q2701 267 2668 267Q2642 267 2616.0 279.0Q2590 291 2569.5 307.0Q2549 323 2539 336L2529 283Q2547 269 2569.5 254.0Q2592 239 2616.0 225.5Q2640 212 2662.5 204.0Q2685 196 2704 196Q2758 196 2791.0 223.0Q2824 250 2838.0 291.0Q2852 332 2849 376L2844 451L2854 716ZM2459 716V416L2449 226L2539 206V466L2544 716ZM3267 726 3262 627 3272 421Q3275 364 3255.5 331.5Q3236 299 3200.5 288.0Q3165 277 3117.5 285.5Q3070 294 3017 321V271Q3076 233 3118.0 217.0Q3160 201 3182 201Q3236 201 3273.0 228.0Q3310 255 3329.5 296.0Q3349 337 3347 381L3342 511L3352 706ZM3110 726Q3076 726 3046.0 710.5Q3016 695 2997.5 665.5Q2979 636 2979 594Q2979 557 2993.0 525.0Q3007 493 3040.0 470.5Q3073 448 3129 441L3292 420V462L3146 493Q3113 500 3096.0 513.5Q3079 527 3073.5 544.0Q3068 561 3068 579Q3068 598 3077.0 616.0Q3086 634 3104.0 644.5Q3122 655 3149 655Q3177 654 3201.5 639.0Q3226 624 3247.0 601.0Q3268 578 3287 554L3264 641Q3245 655 3222.5 675.0Q3200 695 3172.5 710.5Q3145 726 3110 726Z" /></svg>