<svg viewBox="0 0 2805 820" xmlns="http://www.w3.org/2000/svg"><path d="M210 751V620Q210 608 159.0 598.0Q108 588 75 588Q73 588 68.5 603.0Q64 618 62 625Q49 677 36 736L31 758Q29 766 21 766Q13 766 6.5 761.0Q0 756 0 749L1 747V746L12 696Q24 649 33 604Q43 553 48 538Q56 505 80 373L86 340Q112 186 122 146Q127 122 140 75Q145 55 154 35Q163 18 169 18Q185 18 192 28Q197 37 207.5 127.0Q218 217 226 309L239 475Q239 518 245 605Q251 693 251 736V740Q251 751 248 760Q244 768 229 768Q221 768 215.5 763.0Q210 758 210 751ZM209 565Q209 503 202.0 395.5Q195 288 187 206Q185 171 179 129L175 90Q175 91 173 79L171 67Q163 89 155.5 128.0Q148 167 140 220Q116 369 99 444L90 478Q75 528 75 554V560Q119 574 176 574H182Q185 575 189 575Q209 575 209 565ZM766 756V690Q766 546 760 465L757 428Q753 403 753 384Q753 350 755 322L757 260Q757 229 753 213Q733 227 632 634L631 649Q628 674 623 689Q620 700 614.5 706.0Q609 712 602 712Q586 712 579.0 704.0Q572 696 572 679Q572 652 546.5 539.0Q521 426 491.5 322.0Q462 218 451 207Q450 242 443 372Q429 602 429 734L430 774Q426 787 409 787Q406 787 399.0 781.5Q392 776 392 773Q392 683 408 457Q423 247 423 142Q423 137 421 132Q418 126 418 123Q418 108 444 108Q461 108 464 123Q468 143 468 153L469 165Q474 191 498 245Q517 288 527 320Q533 344 538 359Q554 417 559 445L572 471Q575 486 584 520Q593 558 597.0 582.0Q601 606 601 628Q612 611 663.5 423.5Q715 236 724 184Q725 182 725.5 178.5Q726 175 727 169Q729 156 736 130Q744 110 760 110Q767 110 776.0 116.0Q785 122 785 128Q785 545 798 569V621Q797 644 797 674Q797 738 804 770Q805 771 805.5 773.0Q806 775 807 778Q808 782 808 787Q808 798 801.5 809.0Q795 820 786 820Q766 820 766 756ZM753 207H752L750 208L753 209ZM1130 755Q1121 682 1119 664L1114 624Q1092 619 1064 619L1028 617Q1004 614 993 614Q987 614 986 619Q986 622 985 622L983 642Q982 660 972 714Q967 741 960 756Q952 773 945 773Q939 773 932.0 767.5Q925 762 925 756L926 753L927 750Q945 679 957 609L969 547L981 471Q981 471 992 405Q997 378 1010 318Q1024 250 1027 225Q1028 222 1031 188Q1035 150 1038 132Q1041 106 1044 102H1051Q1054 103 1058 103Q1070 103 1076 97Q1083 97 1088.5 101.5Q1094 106 1094 112Q1094 160 1101 222Q1105 254 1107 275Q1118 404 1163 759V762Q1163 772 1155 777Q1140 777 1136.0 773.5Q1132 770 1130 755ZM1109 597Q1099 453 1071 172L1017 439Q994 554 994 584Q994 589 1032.0 593.0Q1070 597 1099 597ZM1337 754 1336 717Q1335 701 1335 681Q1335 671 1336 664L1337 646Q1337 636 1333 622Q1333 555 1323 373Q1313 197 1312 134Q1250 134 1229 131Q1209 126 1209 115Q1214 104 1228 104Q1258 104 1315 108Q1367 113 1402 113H1423L1444 112Q1462 112 1462 125Q1462 131 1455.5 134.5Q1449 138 1440 138Q1420 138 1398 136L1355 134Q1351 134 1351 137Q1350 140 1350 156Q1350 253 1362 450Q1373 654 1373 743Q1373 750 1364.5 756.0Q1356 762 1348 762ZM1595 758Q1590 758 1587 759H1579Q1557 759 1551 749Q1551 742 1559 737L1564 732H1593L1597 728L1599 719L1600 707Q1600 646 1597 598L1595 561L1593 488Q1593 449 1596 371L1598 255Q1598 179 1593 139Q1584 136 1563 136L1552 137Q1546 138 1539 138Q1520 138 1520 121Q1520 117 1529.0 113.0Q1538 109 1544 109Q1582 109 1620 113Q1643 114 1666 122Q1684 128 1684 139Q1684 141 1681 147L1658 149Q1651 143 1629 143L1624 146Q1627 155 1627 199Q1627 265 1626 318L1624 437Q1624 482 1628 546Q1631 619 1631 656V669Q1630 676 1630 687Q1630 710 1633 715L1632 717Q1632 727 1654 727Q1663 727 1669 726H1684Q1713 726 1713 740Q1713 749 1707.0 754.5Q1701 760 1691 760Q1682 760 1675 758Q1667 757 1658 757Q1652 757 1640 762Q1628 768 1622 768Q1599 768 1595 758ZM1879 775Q1860 769 1846.5 758.0Q1833 747 1821 725Q1800 685 1796 610Q1794 576 1794 550V436Q1794 371 1798 310Q1801 265 1807.0 234.0Q1813 203 1826 172Q1840 140 1857 127Q1864 121 1884 113Q1897 108 1909 102H1949H1952Q1953 103 1955 103L1960 104L1964 107Q1967 110 1967 111Q1968 113 1968 117L1955 132H1913Q1894 132 1878.5 150.5Q1863 169 1855 197Q1847 222 1842.0 256.0Q1837 290 1836 315Q1834 347 1834 359L1832 364Q1832 420 1830 465L1828 566Q1828 610 1834 647Q1839 687 1863 719Q1886 751 1934 751Q1949 751 1959 742Q1974 742 1974 753Q1974 760 1961.5 769.5Q1949 779 1936 784H1903ZM2256 782Q2244 776 2238 765Q2238 753 2249 753Q2260 753 2277 760Q2293 768 2304 768Q2326 768 2344.5 750.0Q2363 732 2373 703Q2393 646 2393 602Q2393 553 2379.0 503.0Q2365 453 2342 409Q2337 398 2325 376Q2300 326 2287.0 298.0Q2274 270 2264 236Q2250 191 2250 139Q2250 106 2260.5 75.5Q2271 45 2294 23Q2319 0 2350 0Q2362 0 2379.0 9.5Q2396 19 2396 28Q2396 36 2390 36Q2384 36 2374 31Q2365 26 2357 26Q2334 26 2316.5 43.0Q2299 60 2291 85Q2284 106 2284 131Q2284 170 2294.0 211.5Q2304 253 2321 289L2356 362L2366 383Q2387 426 2398.5 454.0Q2410 482 2418 517Q2429 564 2429 607Q2429 665 2399 725Q2384 754 2359.0 772.0Q2334 790 2304 790Q2286 790 2276.5 788.5Q2267 787 2256 782ZM2591 712Q2579 686 2566.5 547.0Q2554 408 2554 340V287Q2553 264 2553 236Q2553 184 2559 133Q2563 108 2569.5 90.0Q2576 72 2588 55Q2610 21 2654 10Q2677 4 2705 4Q2724 4 2743.5 15.0Q2763 26 2763 41Q2763 52 2747 52Q2741 52 2724 45Q2709 38 2697 38Q2669 38 2646.5 49.5Q2624 61 2611 80Q2600 96 2592.0 124.0Q2584 152 2582 180Q2579 205 2579 240L2580 296Q2581 320 2581 348Q2581 417 2595.0 551.0Q2609 685 2622 706Q2634 725 2657.5 735.0Q2681 745 2707 745Q2753 745 2777 716Q2786 704 2796 704Q2805 704 2805 718Q2805 736 2794.0 749.5Q2783 763 2764 770Q2732 784 2694 784Q2666 784 2635.0 762.0Q2604 740 2591 712Z" fill="currentColor" /></svg>