<svg viewBox="0 0 6974 1371" xmlns="http://www.w3.org/2000/svg"><path d="M130 1371 0 1349 397 74H584L963 1349L842 1371L726 991L784 1038H191L250 991ZM246 981 214 937H750L718 981L473 141H499ZM1173 1358V373H1269L1287 437Q1388 389 1454.0 373.5Q1520 358 1593 358Q1695 358 1760.5 395.0Q1826 432 1858.0 506.5Q1890 581 1890 695V1358H1762V690Q1762 571 1722.5 517.0Q1683 463 1586 463Q1525 463 1446.5 478.0Q1368 493 1264 558L1301 491V1358ZM2440 1368Q2302 1368 2213.0 1298.0Q2124 1228 2124 1089Q2124 1022 2160.0 950.5Q2196 879 2277.5 830.0Q2359 781 2494 781Q2537 780 2605.5 787.0Q2674 794 2749 818L2697 850V749Q2697 634 2671.5 572.5Q2646 511 2599.5 487.0Q2553 463 2490 463Q2429 463 2354.5 477.0Q2280 491 2206 515L2181 416Q2259 390 2341.0 374.0Q2423 358 2496 358Q2603 358 2676.5 392.5Q2750 427 2787.5 508.5Q2825 590 2825 731V1358H2729L2698 1245L2722 1281Q2703 1297 2658.5 1317.5Q2614 1338 2556.5 1353.0Q2499 1368 2440 1368ZM2460 1266Q2534 1266 2606.0 1242.5Q2678 1219 2715 1188L2697 1246V856L2733 914Q2674 890 2625.0 882.5Q2576 875 2536 875Q2403 875 2327.5 927.0Q2252 979 2252 1080Q2252 1180 2306.5 1223.0Q2361 1266 2460 1266ZM3110 1358V0H3238V430Q3333 386 3396.5 372.0Q3460 358 3530 358Q3632 358 3697.5 395.0Q3763 432 3795.0 506.5Q3827 581 3827 695V1358H3699V690Q3699 571 3659.5 517.0Q3620 463 3523 463Q3462 463 3383.5 478.0Q3305 493 3201 558L3238 491V1358ZM4470 1368Q4277 1368 4170.5 1248.5Q4064 1129 4064 862Q4064 732 4093.5 637.0Q4123 542 4176.5 480.0Q4230 418 4303.0 388.0Q4376 358 4463 358Q4574 358 4653.5 407.5Q4733 457 4775.5 546.0Q4818 635 4818 754Q4818 776 4816.0 810.5Q4814 845 4810 889H4147L4193 835Q4187 1013 4227.0 1105.0Q4267 1197 4335.0 1230.0Q4403 1263 4481 1263Q4564 1263 4630.5 1244.5Q4697 1226 4760 1197L4803 1288Q4737 1325 4649.5 1346.5Q4562 1368 4470 1368ZM4698 844V788Q4706 640 4645.0 551.5Q4584 463 4464 463Q4326 463 4254.5 564.0Q4183 665 4193 838L4147 799H4744ZM5002 1358V1258H5194V473H5006V373H5322V1258H5514V1358ZM5257 182Q5219 182 5193.0 156.0Q5167 130 5167 92Q5167 54 5193.0 28.0Q5219 2 5257 2Q5295 2 5321.0 28.0Q5347 54 5347 92Q5347 130 5321.0 156.0Q5295 182 5257 182ZM5724 1358V373H5820L5838 437Q5935 389 5997.5 373.5Q6060 358 6130 358Q6203 358 6263.0 380.5Q6323 403 6369 474L6328 467Q6415 412 6510.0 385.0Q6605 358 6681 358Q6783 358 6848.0 395.0Q6913 432 6943.5 506.5Q6974 581 6974 695V1358H6846V690Q6846 571 6808.5 517.0Q6771 463 6680 463Q6622 463 6548.0 478.0Q6474 493 6376 558L6389 526Q6400 550 6406.5 602.5Q6413 655 6413 695V1358H6285V690Q6285 571 6247.5 517.0Q6210 463 6119 463Q6061 463 5987.0 478.0Q5913 493 5815 558L5852 490V1358Z" fill="currentColor" /></svg>