<svg viewBox="0 0 5300 710" xmlns="http://www.w3.org/2000/svg"><path d="M0 700V685L73 642L302 96L342 73L566 642L630 685V700H409V685L493 642L422 459H197L122 643L193 685V700ZM211 425H409L312 175ZM660 700V684L735 650V308L662 294V279L770 240H801V299Q841 276 877.0 258.0Q913 240 946 240Q982 240 1012.5 252.0Q1043 264 1061.5 289.0Q1080 314 1080 354V650L1155 684V700H982V684L1014 650V386Q1014 361 1001.5 341.0Q989 321 967.0 309.0Q945 297 917 297Q891 297 861.0 304.0Q831 311 801 326V650L873 684V700ZM1421 710Q1369 710 1331.0 694.5Q1293 679 1268.0 649.5Q1243 620 1230.5 579.5Q1218 539 1218 489Q1218 413 1246.5 357.5Q1275 302 1323.0 271.0Q1371 240 1429 240Q1455 240 1489.0 243.5Q1523 247 1544 258L1529 347H1507L1447 285Q1440 283 1424.0 282.5Q1408 282 1402 282Q1361 282 1332.5 298.5Q1304 315 1290.0 350.5Q1276 386 1276 445Q1276 522 1298.5 568.0Q1321 614 1359.5 634.0Q1398 654 1445 654Q1471 654 1502.0 646.5Q1533 639 1562 626L1571 648Q1550 662 1529.5 673.5Q1509 685 1490.0 693.0Q1471 701 1453.5 705.5Q1436 710 1421 710ZM1627 700V684L1702 650V308L1629 294V279L1737 240H1768V650L1840 684V700ZM1737 149Q1731 149 1722.5 145.0Q1714 141 1706.5 134.5Q1699 128 1693.5 121.0Q1688 114 1688 107Q1688 100 1692.5 91.5Q1697 83 1704.0 75.0Q1711 67 1718.5 62.0Q1726 57 1732 57Q1737 57 1745.5 61.0Q1754 65 1762.0 71.5Q1770 78 1775.5 85.0Q1781 92 1781 99Q1781 106 1776.0 114.5Q1771 123 1764.0 131.0Q1757 139 1749.5 144.0Q1742 149 1737 149ZM1901 700V682L2165 284H1992L1924 373H1908L1929 250H2256V270L1991 666H2190L2265 568H2281L2258 700ZM2478 710Q2444 710 2416.0 696.5Q2388 683 2371.5 659.0Q2355 635 2355 605Q2355 567 2386.0 534.5Q2417 502 2473.5 481.0Q2530 460 2605 459V369Q2605 347 2594.0 325.5Q2583 304 2559.5 289.0Q2536 274 2499 274Q2498 274 2492.5 274.5Q2487 275 2485 276L2406 359H2384L2377 289Q2417 272 2443.5 261.0Q2470 250 2492.5 245.0Q2515 240 2542 240Q2574 240 2602.5 252.0Q2631 264 2649.0 286.5Q2667 309 2667 341V638L2738 658V672L2636 710H2605V658Q2585 670 2564.5 682.0Q2544 694 2523.0 702.0Q2502 710 2478 710ZM2503 660Q2524 660 2548.5 653.0Q2573 646 2605 630V508Q2592 506 2568.0 504.0Q2544 502 2516 502Q2473 502 2444.0 522.0Q2415 542 2415 580Q2415 623 2443.0 641.5Q2471 660 2503 660ZM2790 700V684L2865 650V308L2792 294V279L2900 240H2931V301Q2974 269 3004.5 254.5Q3035 240 3057 240Q3086 240 3105 250L3091 334H3069L2996 299Q2976 302 2959.5 310.0Q2943 318 2931 326V650L3023 684V700ZM3589 710Q3539 710 3501.5 703.5Q3464 697 3432 685L3454 558H3479L3513 653Q3541 663 3573.0 666.5Q3605 670 3634 671Q3662 671 3688.0 660.0Q3714 649 3731.0 624.5Q3748 600 3748 562Q3748 515 3723.0 479.5Q3698 444 3632 418L3577 396Q3535 379 3507.0 357.5Q3479 336 3465.0 307.5Q3451 279 3451 243Q3451 197 3476.5 160.0Q3502 123 3550.5 100.5Q3599 78 3666 78Q3713 78 3747.0 85.5Q3781 93 3806 104L3785 227H3760L3716 134Q3690 124 3663.5 120.5Q3637 117 3611 117Q3564 117 3537.0 140.5Q3510 164 3510 210Q3510 265 3540.5 295.0Q3571 325 3619 345L3674 368Q3728 390 3757.5 415.5Q3787 441 3798.0 469.0Q3809 497 3809 529Q3809 580 3780.0 621.0Q3751 662 3701.5 686.0Q3652 710 3589 710ZM4120 710Q4063 710 4016.0 687.0Q3969 664 3941.5 613.0Q3914 562 3914 477Q3914 429 3929.0 386.5Q3944 344 3971.5 311.0Q3999 278 4036.0 259.0Q4073 240 4117 240Q4174 240 4208.0 262.0Q4242 284 4258.0 317.0Q4274 350 4277.0 385.0Q4280 420 4275 447H3984Q3982 518 4004.0 564.0Q4026 610 4066.0 631.5Q4106 653 4157 653Q4178 653 4212.0 644.0Q4246 635 4282 613L4288 635Q4247 663 4204.0 686.5Q4161 710 4120 710ZM3985 413H4203Q4203 372 4191.0 342.0Q4179 312 4154.0 295.5Q4129 279 4088 279Q4055 279 4033.5 291.0Q4012 303 4000.5 332.0Q3989 361 3985 413ZM4365 700V684L4440 650V308L4367 294V279L4475 240H4506V301Q4549 269 4579.5 254.5Q4610 240 4632 240Q4661 240 4680 250L4666 334H4644L4571 299Q4551 302 4534.5 310.0Q4518 318 4506 326V650L4598 684V700ZM4703 700V684L4778 650V308L4705 294V279L4813 240H4844V650L4916 684V700ZM4813 149Q4807 149 4798.5 145.0Q4790 141 4782.5 134.5Q4775 128 4769.5 121.0Q4764 114 4764 107Q4764 100 4768.5 91.5Q4773 83 4780.0 75.0Q4787 67 4794.5 62.0Q4802 57 4808 57Q4813 57 4821.5 61.0Q4830 65 4838.0 71.5Q4846 78 4851.5 85.0Q4857 92 4857 99Q4857 106 4852.0 114.5Q4847 123 4840.0 131.0Q4833 139 4825.5 144.0Q4818 149 4813 149ZM4969 700V684L5044 650V284H4983V250H5044V228Q5044 165 5061.0 121.0Q5078 77 5106.0 50.5Q5134 24 5167.5 12.0Q5201 0 5234 0Q5251 0 5268.5 2.0Q5286 4 5300 9L5287 83H5268L5197 32Q5157 32 5133.5 72.0Q5110 112 5110 207V250H5138L5241 245L5232 292L5138 284H5110V650L5217 684V700Z" /></svg>