<svg viewBox="0 0 5280 769" xmlns="http://www.w3.org/2000/svg"><path d="M4 764 0 717 96 690 56 715Q63 700 72.5 681.5Q82 663 91.5 641.5Q101 620 108 599L285 54L340 44L547 608Q556 636 569.5 663.0Q583 690 594 714L552 689L649 706L644 759H542Q530 759 506.0 760.0Q482 761 454.5 762.0Q427 763 403 764L400 717L506 685L478 718Q472 682 465.0 649.5Q458 617 445 584L296 166H317L168 631Q161 652 159.0 674.5Q157 697 155 717L124 691L229 706L224 759H139Q127 759 103.5 760.0Q80 761 53.5 762.0Q27 763 4 764ZM176 534V483H459V534ZM736 764 731 716 843 693 803 730Q805 722 808.5 702.0Q812 682 815.5 659.5Q819 637 819 625V403Q819 390 816.0 367.5Q813 345 809.0 322.5Q805 300 803 290L843 336L733 317L738 265H862L881 283L895 433L873 375Q888 337 911.5 311.0Q935 285 967.0 271.0Q999 257 1037 257Q1108 257 1144.0 285.5Q1180 314 1193.0 366.0Q1206 418 1206 488V595Q1206 632 1209.5 668.0Q1213 704 1216 724L1180 697L1293 707L1286 759H1158Q1154 759 1136.0 760.0Q1118 761 1096.5 762.0Q1075 763 1058 764L1053 716L1153 692L1116 715Q1119 705 1122.5 690.5Q1126 676 1128.5 659.0Q1131 642 1131 625V487Q1131 443 1123.0 403.5Q1115 364 1092.0 339.0Q1069 314 1025 314Q964 314 929.5 362.0Q895 410 895 484V595Q895 634 898.0 675.0Q901 716 904 734L867 697L980 707L973 759H846Q836 759 817.0 760.0Q798 761 776.5 762.0Q755 763 736 764ZM1565 769Q1472 769 1417.5 700.0Q1363 631 1363 511Q1363 394 1418.5 325.5Q1474 257 1568 257Q1593 257 1614.0 259.5Q1635 262 1660.0 269.5Q1685 277 1720 292L1713 364Q1678 336 1645.5 324.5Q1613 313 1578 313Q1517 313 1481.5 366.5Q1446 420 1446 514Q1446 605 1479.0 658.0Q1512 711 1567 711Q1629 711 1664.0 670.0Q1699 629 1699 556V140Q1699 127 1696.0 106.0Q1693 85 1689.0 65.5Q1685 46 1683 38L1721 71L1599 50L1604 0L1706 3H1762L1780 21Q1779 42 1777.5 70.0Q1776 98 1775.0 125.0Q1774 152 1774 170V596Q1774 635 1780.0 675.0Q1786 715 1790 732L1751 696L1854 707L1848 759H1723L1703 646L1710 663Q1711 680 1697.0 698.5Q1683 717 1660.0 733.0Q1637 749 1612.0 759.0Q1587 769 1565 769ZM2065 769Q1998 769 1959.0 734.5Q1920 700 1920 642Q1920 590 1953.5 555.5Q1987 521 2054 510L2229 481V530L2066 561Q2036 566 2019.0 584.0Q2002 602 2002 628Q2002 666 2021.5 687.5Q2041 709 2077 709Q2130 709 2169.5 675.0Q2209 641 2216 591V450Q2216 378 2192.0 342.5Q2168 307 2120 307Q2099 307 2075.0 311.0Q2051 315 2030.0 322.0Q2009 329 1998 337L2029 294L2017 369L2018 410L1960 413L1950 280Q1980 272 2010.0 267.0Q2040 262 2070.0 259.5Q2100 257 2130 257Q2219 257 2255.0 305.5Q2291 354 2291 472V595Q2291 640 2296.5 673.5Q2302 707 2306 726L2273 696L2371 707L2365 759H2240L2220 646L2238 643Q2236 671 2211.5 700.5Q2187 730 2148.5 749.5Q2110 769 2065 769ZM2643 769Q2550 769 2495.5 700.0Q2441 631 2441 511Q2441 394 2496.5 325.5Q2552 257 2646 257Q2671 257 2692.0 259.5Q2713 262 2738.0 269.5Q2763 277 2798 292L2791 364Q2756 336 2723.5 324.5Q2691 313 2656 313Q2595 313 2559.5 366.5Q2524 420 2524 514Q2524 605 2557.0 658.0Q2590 711 2645 711Q2707 711 2742.0 670.0Q2777 629 2777 556V140Q2777 127 2774.0 106.0Q2771 85 2767.0 65.5Q2763 46 2761 38L2799 71L2677 50L2682 0L2784 3H2840L2858 21Q2857 42 2855.5 70.0Q2854 98 2853.0 125.0Q2852 152 2852 170V596Q2852 635 2858.0 675.0Q2864 715 2868 732L2829 696L2932 707L2926 759H2801L2781 646L2788 663Q2789 680 2775.0 698.5Q2761 717 2738.0 733.0Q2715 749 2690.0 759.0Q2665 769 2643 769ZM3143 769Q3076 769 3037.0 734.5Q2998 700 2998 642Q2998 590 3031.5 555.5Q3065 521 3132 510L3307 481V530L3144 561Q3114 566 3097.0 584.0Q3080 602 3080 628Q3080 666 3099.5 687.5Q3119 709 3155 709Q3208 709 3247.5 675.0Q3287 641 3294 591V450Q3294 378 3270.0 342.5Q3246 307 3198 307Q3177 307 3153.0 311.0Q3129 315 3108.0 322.0Q3087 329 3076 337L3107 294L3095 369L3096 410L3038 413L3028 280Q3058 272 3088.0 267.0Q3118 262 3148.0 259.5Q3178 257 3208 257Q3297 257 3333.0 305.5Q3369 354 3369 472V595Q3369 640 3374.5 673.5Q3380 707 3384 726L3351 696L3449 707L3443 759H3318L3298 646L3316 643Q3314 671 3289.5 700.5Q3265 730 3226.5 749.5Q3188 769 3143 769ZM3756 764 3751 715 3865 692 3826 731Q3828 722 3831.0 700.5Q3834 679 3837.0 656.5Q3840 634 3840 624V189Q3840 178 3837.5 156.5Q3835 135 3831.5 113.0Q3828 91 3826 81L3865 119L3753 101L3758 49Q3777 50 3800.0 51.0Q3823 52 3843.5 53.0Q3864 54 3873 54L3937 81Q3936 89 3933.5 112.0Q3931 135 3928.5 164.0Q3926 193 3926 219V594Q3926 620 3928.0 646.5Q3930 673 3933.0 695.5Q3936 718 3938 731L3899 696L4035 706L4028 759H3890Q3878 759 3855.0 760.0Q3832 761 3805.5 762.0Q3779 763 3756 764ZM4018 466Q3976 466 3938.5 464.5Q3901 463 3857 461V405Q3892 409 3928.0 414.0Q3964 419 3999 419Q4078 419 4125.5 379.0Q4173 339 4173 257Q4173 179 4125.5 138.0Q4078 97 3999 97Q3978 97 3957.0 98.0Q3936 99 3915.5 100.5Q3895 102 3873 104V54Q3914 54 3956.5 51.5Q3999 49 4040 49Q4144 49 4203.0 101.0Q4262 153 4262 257Q4262 324 4228.5 370.5Q4195 417 4140.0 441.5Q4085 466 4018 466ZM4362 764 4357 716 4469 693 4429 730Q4431 722 4434.5 702.0Q4438 682 4441.5 659.5Q4445 637 4445 625V403Q4445 390 4442.0 367.5Q4439 345 4435.0 322.5Q4431 300 4429 290L4469 336L4359 317L4364 265H4488L4507 283L4521 433L4491 401Q4502 374 4516.0 348.5Q4530 323 4550.5 302.0Q4571 281 4601.5 268.5Q4632 256 4676 256Q4693 256 4709.5 258.5Q4726 261 4742 266L4733 427L4676 424V372Q4676 367 4672.0 353.0Q4668 339 4662.5 322.5Q4657 306 4652 295L4699 321Q4689 322 4678.5 322.0Q4668 322 4658 322Q4586 322 4553.5 365.0Q4521 408 4521 479V595Q4521 634 4524.0 675.0Q4527 716 4530 734L4493 697L4627 707L4621 759H4472Q4462 759 4443.0 760.0Q4424 761 4402.5 762.0Q4381 763 4362 764ZM5053 769Q4977 769 4926.0 736.0Q4875 703 4849.5 645.5Q4824 588 4824 513Q4824 437 4849.5 379.5Q4875 322 4926.0 289.0Q4977 256 5053 256Q5167 256 5223.5 326.5Q5280 397 5280 513Q5280 588 5254.5 646.0Q5229 704 5178.5 736.5Q5128 769 5053 769ZM5053 715Q5107 715 5138.0 685.0Q5169 655 5181.5 608.5Q5194 562 5194 513Q5194 463 5181.5 416.5Q5169 370 5138.0 340.0Q5107 310 5053 310Q4999 310 4968.0 339.5Q4937 369 4923.5 415.5Q4910 462 4910 513Q4910 563 4923.5 609.5Q4937 656 4968.0 685.5Q4999 715 5053 715Z" /></svg>