<svg viewBox="0 0 6520 3300" xmlns="http://www.w3.org/2000/svg"><path d="M245 2500H40Q67 2439 98.0 2362.0Q129 2285 180 2145L580 1040H795L1195 2145Q1245 2284 1277.0 2362.0Q1309 2440 1335 2500H1130L994 2115H379ZM940 1960 685 1235 433 1960ZM2445 2500H2260Q2260 2500 2260.0 2457.0Q2260 2414 2260.0 2346.0Q2260 2278 2260.0 2202.0Q2260 2126 2260.0 2058.5Q2260 1991 2260 1950Q2260 1825 2238.0 1756.5Q2216 1688 2172.0 1661.5Q2128 1635 2060 1635Q1988 1635 1922.0 1678.0Q1856 1721 1806.5 1786.5Q1757 1852 1735 1920V2500H1550Q1550 2500 1550.0 2455.5Q1550 2411 1550.0 2340.0Q1550 2269 1550.0 2185.5Q1550 2102 1550.0 2022.5Q1550 1943 1550 1885Q1550 1738 1533.5 1635.0Q1517 1532 1500 1480H1680Q1688 1501 1695.5 1538.0Q1703 1575 1710.0 1613.0Q1717 1651 1720 1675Q1815 1561 1912.0 1510.5Q2009 1460 2115 1460Q2275 1460 2360.0 1564.5Q2445 1669 2445 1875Q2445 1925 2445.0 2002.5Q2445 2080 2445.0 2166.0Q2445 2252 2445.0 2328.0Q2445 2404 2445.0 2452.0Q2445 2500 2445 2500ZM3610 900V1970Q3610 2159 3631.5 2287.5Q3653 2416 3685 2500H3505Q3494 2474 3478.5 2422.0Q3463 2370 3450 2315Q3379 2416 3287.0 2470.5Q3195 2525 3085 2525Q2963 2525 2873.0 2465.0Q2783 2405 2734.0 2295.5Q2685 2186 2685 2040Q2685 1863 2748.0 1733.0Q2811 1603 2918.5 1531.5Q3026 1460 3160 1460Q3224 1460 3295.5 1486.0Q3367 1512 3425 1545V1265Q3425 1145 3419.5 1054.0Q3414 963 3400 900ZM3425 2100V1705Q3351 1665 3293.5 1647.5Q3236 1630 3160 1630Q3084 1630 3018.0 1675.5Q2952 1721 2911.0 1806.0Q2870 1891 2870 2010Q2870 2184 2930.0 2274.5Q2990 2365 3120 2365Q3181 2365 3240.5 2326.5Q3300 2288 3349.0 2227.0Q3398 2166 3425 2100ZM3945 1480H4145Q4145 1616 4145.0 1752.0Q4145 1888 4145 2025Q4145 2089 4147.5 2180.5Q4150 2272 4154.5 2359.0Q4159 2446 4165 2500H3960Q3960 2428 3960.0 2331.0Q3960 2234 3960.0 2137.5Q3960 2041 3960 1970Q3960 1824 3957.5 1691.5Q3955 1559 3945 1480ZM3925 1155Q3925 1099 3960.0 1059.5Q3995 1020 4050 1020Q4106 1020 4143.0 1059.5Q4180 1099 4180 1155Q4180 1210 4143.0 1250.0Q4106 1290 4050 1290Q3995 1290 3960.0 1250.0Q3925 1210 3925 1155ZM4665 2500H4480Q4480 2379 4480.0 2242.5Q4480 2106 4480.0 1970.0Q4480 1834 4480.0 1713.5Q4480 1593 4480.0 1503.0Q4480 1413 4480 1370Q4480 1209 4478.0 1086.5Q4476 964 4465 900H4665ZM5070 1480H5320L4771 1976L4615 1950ZM4640 1950 4745 1840 5350 2500H5105ZM6425 2500H6250Q6236 2468 6225.5 2406.5Q6215 2345 6210.0 2279.5Q6205 2214 6205 2170V2090Q6166 2193 6105.0 2293.5Q6044 2394 5962.0 2459.5Q5880 2525 5775 2525Q5649 2525 5562.0 2413.5Q5475 2302 5475 2090Q5475 1971 5507.0 1858.5Q5539 1746 5605.0 1656.0Q5671 1566 5773.0 1513.0Q5875 1460 6015 1460Q6112 1460 6198.0 1472.5Q6284 1485 6360 1505V1970Q6360 2159 6378.0 2287.5Q6396 2416 6425 2500ZM6175 1765V1638Q6150 1632 6112.5 1626.0Q6075 1620 6000 1620Q5870 1620 5795.5 1687.5Q5721 1755 5690.5 1862.0Q5660 1969 5660 2090Q5660 2206 5703.0 2280.5Q5746 2355 5805 2355Q5858 2355 5911.0 2308.5Q5964 2262 6011.5 2188.5Q6059 2115 6095.5 2033.5Q6132 1952 6153.5 1880.0Q6175 1808 6175 1765Z" fill="currentColor" /></svg>