<svg viewBox="0 0 11981 1347" xmlns="http://www.w3.org/2000/svg"><path d="M203 1324H0L392 46H703L1095 1324H892L560 180H535ZM837 967H256V801H837ZM2105 1324H1909V720Q1909 649 1889.5 597.0Q1870 545 1825.5 516.0Q1781 487 1704 487Q1633 487 1581.0 513.0Q1529 539 1496.5 583.0Q1464 627 1450 683L1418 547H1460Q1477 485 1516.0 434.5Q1555 384 1620.0 354.0Q1685 324 1781 324Q1896 324 1967.0 367.5Q2038 411 2071.5 494.0Q2105 577 2105 698ZM1457 1324H1261V346H1457L1449 575L1457 587ZM2770 1347Q2536 1347 2419.5 1235.5Q2303 1124 2303 914V754Q2303 547 2411.5 433.5Q2520 320 2728 320Q2869 320 2963.0 371.5Q3057 423 3104.0 517.0Q3151 611 3151 740V777Q3151 811 3148.0 846.0Q3145 881 3140 913H2960Q2962 861 2962.5 815.0Q2963 769 2963 731Q2963 650 2937.0 594.0Q2911 538 2859.0 508.5Q2807 479 2728 479Q2611 479 2554.0 545.5Q2497 612 2497 735V827L2498 850V937Q2498 992 2514.5 1037.0Q2531 1082 2567.5 1114.5Q2604 1147 2662.0 1164.5Q2720 1182 2803 1182Q2897 1182 2979.5 1158.0Q3062 1134 3135 1094L3117 1261Q3051 1300 2963.5 1323.5Q2876 1347 2770 1347ZM3100 913H2407V766H3100ZM4219 1324H3987L3628 883H3531V731H3629L3973 346H4202L3774 821V778ZM3548 1324H3353V0H3548ZM5839 1324H5604L5181 750H5048V591H5181L5598 46H5826L5332 685L5331 637ZM5062 1324H4863V46H5062ZM6731 1324H6536L6544 1092L6537 1062V754L6538 705Q6538 592 6480.5 539.0Q6423 486 6296 486Q6193 486 6105.0 515.0Q6017 544 5946 582L5964 418Q6004 395 6058.0 373.0Q6112 351 6180.0 337.0Q6248 323 6329 323Q6440 323 6517.0 349.5Q6594 376 6641.0 426.0Q6688 476 6709.5 546.0Q6731 616 6731 702ZM6205 1346Q6060 1346 5983.0 1274.5Q5906 1203 5906 1071V1041Q5906 901 5992.5 833.5Q6079 766 6265 740L6559 698L6570 840L6288 880Q6187 894 6144.0 928.5Q6101 963 6101 1030V1044Q6101 1111 6142.5 1147.0Q6184 1183 6269 1183Q6347 1183 6403.0 1157.0Q6459 1131 6494.0 1087.5Q6529 1044 6542 991L6569 1122H6533Q6517 1182 6480.0 1233.0Q6443 1284 6376.5 1315.0Q6310 1346 6205 1346ZM7807 1324H7611V720Q7611 649 7591.5 597.0Q7572 545 7527.5 516.0Q7483 487 7406 487Q7335 487 7283.0 513.0Q7231 539 7198.5 583.0Q7166 627 7152 683L7120 547H7162Q7179 485 7218.0 434.5Q7257 384 7322.0 354.0Q7387 324 7483 324Q7598 324 7669.0 367.5Q7740 411 7773.5 494.0Q7807 577 7807 698ZM7159 1324H6963V346H7159L7151 575L7159 587ZM8887 1324H8691V720Q8691 649 8671.5 597.0Q8652 545 8607.5 516.0Q8563 487 8486 487Q8415 487 8363.0 513.0Q8311 539 8278.5 583.0Q8246 627 8232 683L8200 547H8242Q8259 485 8298.0 434.5Q8337 384 8402.0 354.0Q8467 324 8563 324Q8678 324 8749.0 367.5Q8820 411 8853.5 494.0Q8887 577 8887 698ZM8239 1324H8043V346H8239L8231 575L8239 587ZM9893 1324H9698L9706 1092L9699 1062V754L9700 705Q9700 592 9642.5 539.0Q9585 486 9458 486Q9355 486 9267.0 515.0Q9179 544 9108 582L9126 418Q9166 395 9220.0 373.0Q9274 351 9342.0 337.0Q9410 323 9491 323Q9602 323 9679.0 349.5Q9756 376 9803.0 426.0Q9850 476 9871.5 546.0Q9893 616 9893 702ZM9367 1346Q9222 1346 9145.0 1274.5Q9068 1203 9068 1071V1041Q9068 901 9154.5 833.5Q9241 766 9427 740L9721 698L9732 840L9450 880Q9349 894 9306.0 928.5Q9263 963 9263 1030V1044Q9263 1111 9304.5 1147.0Q9346 1183 9431 1183Q9509 1183 9565.0 1157.0Q9621 1131 9656.0 1087.5Q9691 1044 9704 991L9731 1122H9695Q9679 1182 9642.0 1233.0Q9605 1284 9538.5 1315.0Q9472 1346 9367 1346ZM10446 1346Q10271 1346 10179.5 1236.0Q10088 1126 10088 915V760Q10088 547 10180.5 435.5Q10273 324 10454 324Q10541 324 10603.5 351.5Q10666 379 10705.5 429.0Q10745 479 10762 547H10827L10772 728Q10769 648 10737.0 593.5Q10705 539 10649.0 511.0Q10593 483 10518 483Q10405 483 10345.0 548.0Q10285 613 10285 741V928Q10285 1053 10344.5 1118.0Q10404 1183 10518 1183Q10587 1183 10639.5 1157.0Q10692 1131 10727.0 1086.0Q10762 1041 10775 985L10821 1123H10764Q10748 1184 10710.5 1235.0Q10673 1286 10609.0 1316.0Q10545 1346 10446 1346ZM10963 1324H10767L10775 1095L10772 1033V627L10773 589L10768 312V0H10963ZM11981 1324H11786L11794 1092L11787 1062V754L11788 705Q11788 592 11730.5 539.0Q11673 486 11546 486Q11443 486 11355.0 515.0Q11267 544 11196 582L11214 418Q11254 395 11308.0 373.0Q11362 351 11430.0 337.0Q11498 323 11579 323Q11690 323 11767.0 349.5Q11844 376 11891.0 426.0Q11938 476 11959.5 546.0Q11981 616 11981 702ZM11455 1346Q11310 1346 11233.0 1274.5Q11156 1203 11156 1071V1041Q11156 901 11242.5 833.5Q11329 766 11515 740L11809 698L11820 840L11538 880Q11437 894 11394.0 928.5Q11351 963 11351 1030V1044Q11351 1111 11392.5 1147.0Q11434 1183 11519 1183Q11597 1183 11653.0 1157.0Q11709 1131 11744.0 1087.5Q11779 1044 11792 991L11819 1122H11783Q11767 1182 11730.0 1233.0Q11693 1284 11626.5 1315.0Q11560 1346 11455 1346Z" /></svg>