<svg viewBox="0 0 10233 1701" xmlns="http://www.w3.org/2000/svg"><path d="M0 1324 392 46H703L1095 1324H892L560 180H535L203 1324ZM256 967V801H837V967ZM1909 1324V720Q1909 649 1889.5 597.0Q1870 545 1825.5 516.0Q1781 487 1704 487Q1633 487 1581.0 513.0Q1529 539 1496.5 583.0Q1464 627 1450 683L1418 547H1460Q1477 485 1516.0 434.5Q1555 384 1620.0 354.0Q1685 324 1781 324Q1896 324 1967.0 367.5Q2038 411 2071.5 494.0Q2105 577 2105 698V1324ZM1261 1324V346H1457L1449 575L1457 587V1324ZM2770 1347Q2536 1347 2419.5 1235.5Q2303 1124 2303 914V754Q2303 547 2411.5 433.5Q2520 320 2728 320Q2869 320 2963.0 371.5Q3057 423 3104.0 517.0Q3151 611 3151 740V777Q3151 811 3148.0 846.0Q3145 881 3140 913H2960Q2962 861 2962.5 815.0Q2963 769 2963 731Q2963 650 2937.0 594.0Q2911 538 2859.0 508.5Q2807 479 2728 479Q2611 479 2554.0 545.5Q2497 612 2497 735V827L2498 850V937Q2498 992 2514.5 1037.0Q2531 1082 2567.5 1114.5Q2604 1147 2662.0 1164.5Q2720 1182 2803 1182Q2897 1182 2979.5 1158.0Q3062 1134 3135 1094L3117 1261Q3051 1300 2963.5 1323.5Q2876 1347 2770 1347ZM2407 913V766H3100V913ZM3987 1324 3628 883H3531V731H3629L3973 346H4202L3774 821V778L4219 1324ZM3353 1324V0H3548V1324ZM4872 1324V1159H5255Q5377 1159 5428.0 1109.0Q5479 1059 5479 969V938Q5479 846 5427.0 796.5Q5375 747 5247 747H4871V589H5245Q5360 589 5408.5 540.5Q5457 492 5457 405V389Q5457 304 5410.0 257.0Q5363 210 5244 210H4868V46H5263Q5474 46 5566.0 126.5Q5658 207 5658 357V375Q5658 490 5605.0 553.5Q5552 617 5441 632V642Q5568 667 5625.5 739.0Q5683 811 5683 942V980Q5683 1144 5587.0 1234.0Q5491 1324 5276 1324ZM4733 1324V46H4931V1324ZM6469 1324 6477 1092 6470 1062V754L6471 705Q6471 592 6413.5 539.0Q6356 486 6229 486Q6126 486 6038.0 515.0Q5950 544 5879 582L5897 418Q5937 395 5991.0 373.0Q6045 351 6113.0 337.0Q6181 323 6262 323Q6373 323 6450.0 349.5Q6527 376 6574.0 426.0Q6621 476 6642.5 546.0Q6664 616 6664 702V1324ZM6138 1346Q5993 1346 5916.0 1274.5Q5839 1203 5839 1071V1041Q5839 901 5925.5 833.5Q6012 766 6198 740L6492 698L6503 840L6221 880Q6120 894 6077.0 928.5Q6034 963 6034 1030V1044Q6034 1111 6075.5 1147.0Q6117 1183 6202 1183Q6280 1183 6336.0 1157.0Q6392 1131 6427.0 1087.5Q6462 1044 6475 991L6502 1122H6466Q6450 1182 6413.0 1233.0Q6376 1284 6309.5 1315.0Q6243 1346 6138 1346ZM7544 1324V720Q7544 649 7524.5 597.0Q7505 545 7460.5 516.0Q7416 487 7339 487Q7268 487 7216.0 513.0Q7164 539 7131.5 583.0Q7099 627 7085 683L7053 547H7095Q7112 485 7151.0 434.5Q7190 384 7255.0 354.0Q7320 324 7416 324Q7531 324 7602.0 367.5Q7673 411 7706.5 494.0Q7740 577 7740 698V1324ZM6896 1324V346H7092L7084 575L7092 587V1324ZM8369 1028Q8163 1028 8053.0 940.0Q7943 852 7943 689V673Q7943 570 7986.0 494.5Q8029 419 8123.5 376.5Q8218 334 8371 329L8879 312V465L8607 453V464Q8665 479 8703.5 510.5Q8742 542 8762.0 589.0Q8782 636 8782 700V711Q8782 865 8677.5 946.5Q8573 1028 8369 1028ZM8361 1545H8386Q8471 1545 8530.0 1533.0Q8589 1521 8620.5 1495.0Q8652 1469 8652 1426V1423Q8652 1372 8616.0 1346.5Q8580 1321 8491 1313L8209 1286L8258 1284Q8210 1292 8173.5 1308.5Q8137 1325 8116.5 1351.5Q8096 1378 8096 1417V1419Q8096 1465 8127.5 1493.0Q8159 1521 8218.5 1533.0Q8278 1545 8361 1545ZM8349 1701Q8214 1701 8116.5 1677.5Q8019 1654 7966.5 1602.5Q7914 1551 7914 1466V1462Q7914 1405 7939.5 1366.0Q7965 1327 8009.5 1303.5Q8054 1280 8109 1272V1262Q8036 1247 8000.5 1212.5Q7965 1178 7965 1123V1122Q7965 1084 7982.0 1056.5Q7999 1029 8033.5 1012.5Q8068 996 8120 991V969L8326 1019L8251 1016Q8192 1017 8169.5 1031.0Q8147 1045 8147 1071V1072Q8147 1102 8180.5 1116.5Q8214 1131 8294 1140L8532 1166Q8690 1183 8763.0 1243.0Q8836 1303 8836 1425V1430Q8836 1524 8781.5 1584.0Q8727 1644 8625.5 1672.5Q8524 1701 8382 1701ZM8366 884Q8443 884 8494.5 861.5Q8546 839 8572.0 794.0Q8598 749 8598 684V669Q8598 605 8572.5 561.0Q8547 517 8496.5 494.0Q8446 471 8369 471H8364Q8281 471 8229.0 495.5Q8177 520 8153.5 564.5Q8130 609 8130 670V684Q8130 749 8156.0 794.0Q8182 839 8234.5 861.5Q8287 884 8366 884ZM9015 1324V0H9211V1324ZM10038 1324 10046 1092 10039 1062V754L10040 705Q10040 592 9982.5 539.0Q9925 486 9798 486Q9695 486 9607.0 515.0Q9519 544 9448 582L9466 418Q9506 395 9560.0 373.0Q9614 351 9682.0 337.0Q9750 323 9831 323Q9942 323 10019.0 349.5Q10096 376 10143.0 426.0Q10190 476 10211.5 546.0Q10233 616 10233 702V1324ZM9707 1346Q9562 1346 9485.0 1274.5Q9408 1203 9408 1071V1041Q9408 901 9494.5 833.5Q9581 766 9767 740L10061 698L10072 840L9790 880Q9689 894 9646.0 928.5Q9603 963 9603 1030V1044Q9603 1111 9644.5 1147.0Q9686 1183 9771 1183Q9849 1183 9905.0 1157.0Q9961 1131 9996.0 1087.5Q10031 1044 10044 991L10071 1122H10035Q10019 1182 9982.0 1233.0Q9945 1284 9878.5 1315.0Q9812 1346 9707 1346Z" fill="currentColor" /></svg>