<svg viewBox="0 0 10383 3732" xmlns="http://www.w3.org/2000/svg"><path d="M42 2500 434 1222H745L1137 2500H934L602 1356H577L245 2500ZM298 2143V1977H879V2143ZM1951 2500V1896Q1951 1825 1931.5 1773.0Q1912 1721 1867.5 1692.0Q1823 1663 1746 1663Q1675 1663 1623.0 1689.0Q1571 1715 1538.5 1759.0Q1506 1803 1492 1859L1460 1723H1502Q1519 1661 1558.0 1610.5Q1597 1560 1662.0 1530.0Q1727 1500 1823 1500Q1938 1500 2009.0 1543.5Q2080 1587 2113.5 1670.0Q2147 1753 2147 1874V2500ZM1303 2500V1522H1499L1491 1751L1499 1763V2500ZM2812 2523Q2578 2523 2461.5 2411.5Q2345 2300 2345 2090V1930Q2345 1723 2453.5 1609.5Q2562 1496 2770 1496Q2911 1496 3005.0 1547.5Q3099 1599 3146.0 1693.0Q3193 1787 3193 1916V1953Q3193 1987 3190.0 2022.0Q3187 2057 3182 2089H3002Q3004 2037 3004.5 1991.0Q3005 1945 3005 1907Q3005 1826 2979.0 1770.0Q2953 1714 2901.0 1684.5Q2849 1655 2770 1655Q2653 1655 2596.0 1721.5Q2539 1788 2539 1911V2003L2540 2026V2113Q2540 2168 2556.5 2213.0Q2573 2258 2609.5 2290.5Q2646 2323 2704.0 2340.5Q2762 2358 2845 2358Q2939 2358 3021.5 2334.0Q3104 2310 3177 2270L3159 2437Q3093 2476 3005.5 2499.5Q2918 2523 2812 2523ZM2449 2089V1942H3142V2089ZM4029 2500 3670 2059H3573V1907H3671L4015 1522H4244L3816 1997V1954L4261 2500ZM3395 2500V1176H3590V2500ZM4914 2500V2335H5297Q5419 2335 5470.0 2285.0Q5521 2235 5521 2145V2114Q5521 2022 5469.0 1972.5Q5417 1923 5289 1923H4913V1765H5287Q5402 1765 5450.5 1716.5Q5499 1668 5499 1581V1565Q5499 1480 5452.0 1433.0Q5405 1386 5286 1386H4910V1222H5305Q5516 1222 5608.0 1302.5Q5700 1383 5700 1533V1551Q5700 1666 5647.0 1729.5Q5594 1793 5483 1808V1818Q5610 1843 5667.5 1915.0Q5725 1987 5725 2118V2156Q5725 2320 5629.0 2410.0Q5533 2500 5318 2500ZM4775 2500V1222H4973V2500ZM6511 2500 6519 2268 6512 2238V1930L6513 1881Q6513 1768 6455.5 1715.0Q6398 1662 6271 1662Q6168 1662 6080.0 1691.0Q5992 1720 5921 1758L5939 1594Q5979 1571 6033.0 1549.0Q6087 1527 6155.0 1513.0Q6223 1499 6304 1499Q6415 1499 6492.0 1525.5Q6569 1552 6616.0 1602.0Q6663 1652 6684.5 1722.0Q6706 1792 6706 1878V2500ZM6180 2522Q6035 2522 5958.0 2450.5Q5881 2379 5881 2247V2217Q5881 2077 5967.5 2009.5Q6054 1942 6240 1916L6534 1874L6545 2016L6263 2056Q6162 2070 6119.0 2104.5Q6076 2139 6076 2206V2220Q6076 2287 6117.5 2323.0Q6159 2359 6244 2359Q6322 2359 6378.0 2333.0Q6434 2307 6469.0 2263.5Q6504 2220 6517 2167L6544 2298H6508Q6492 2358 6455.0 2409.0Q6418 2460 6351.5 2491.0Q6285 2522 6180 2522ZM7586 2500V1896Q7586 1825 7566.5 1773.0Q7547 1721 7502.5 1692.0Q7458 1663 7381 1663Q7310 1663 7258.0 1689.0Q7206 1715 7173.5 1759.0Q7141 1803 7127 1859L7095 1723H7137Q7154 1661 7193.0 1610.5Q7232 1560 7297.0 1530.0Q7362 1500 7458 1500Q7573 1500 7644.0 1543.5Q7715 1587 7748.5 1670.0Q7782 1753 7782 1874V2500ZM6938 2500V1522H7134L7126 1751L7134 1763V2500ZM8411 2204Q8205 2204 8095.0 2116.0Q7985 2028 7985 1865V1849Q7985 1746 8028.0 1670.5Q8071 1595 8165.5 1552.5Q8260 1510 8413 1505L8921 1488V1641L8649 1629V1640Q8707 1655 8745.5 1686.5Q8784 1718 8804.0 1765.0Q8824 1812 8824 1876V1887Q8824 2041 8719.5 2122.5Q8615 2204 8411 2204ZM8403 2721H8428Q8513 2721 8572.0 2709.0Q8631 2697 8662.5 2671.0Q8694 2645 8694 2602V2599Q8694 2548 8658.0 2522.5Q8622 2497 8533 2489L8251 2462L8300 2460Q8252 2468 8215.5 2484.5Q8179 2501 8158.5 2527.5Q8138 2554 8138 2593V2595Q8138 2641 8169.5 2669.0Q8201 2697 8260.5 2709.0Q8320 2721 8403 2721ZM8391 2877Q8256 2877 8158.5 2853.5Q8061 2830 8008.5 2778.5Q7956 2727 7956 2642V2638Q7956 2581 7981.5 2542.0Q8007 2503 8051.5 2479.5Q8096 2456 8151 2448V2438Q8078 2423 8042.5 2388.5Q8007 2354 8007 2299V2298Q8007 2260 8024.0 2232.5Q8041 2205 8075.5 2188.5Q8110 2172 8162 2167V2145L8368 2195L8293 2192Q8234 2193 8211.5 2207.0Q8189 2221 8189 2247V2248Q8189 2278 8222.5 2292.5Q8256 2307 8336 2316L8574 2342Q8732 2359 8805.0 2419.0Q8878 2479 8878 2601V2606Q8878 2700 8823.5 2760.0Q8769 2820 8667.5 2848.5Q8566 2877 8424 2877ZM8408 2060Q8485 2060 8536.5 2037.5Q8588 2015 8614.0 1970.0Q8640 1925 8640 1860V1845Q8640 1781 8614.5 1737.0Q8589 1693 8538.5 1670.0Q8488 1647 8411 1647H8406Q8323 1647 8271.0 1671.5Q8219 1696 8195.5 1740.5Q8172 1785 8172 1846V1860Q8172 1925 8198.0 1970.0Q8224 2015 8276.5 2037.5Q8329 2060 8408 2060ZM9057 2500V1176H9253V2500ZM10080 2500 10088 2268 10081 2238V1930L10082 1881Q10082 1768 10024.5 1715.0Q9967 1662 9840 1662Q9737 1662 9649.0 1691.0Q9561 1720 9490 1758L9508 1594Q9548 1571 9602.0 1549.0Q9656 1527 9724.0 1513.0Q9792 1499 9873 1499Q9984 1499 10061.0 1525.5Q10138 1552 10185.0 1602.0Q10232 1652 10253.5 1722.0Q10275 1792 10275 1878V2500ZM9749 2522Q9604 2522 9527.0 2450.5Q9450 2379 9450 2247V2217Q9450 2077 9536.5 2009.5Q9623 1942 9809 1916L10103 1874L10114 2016L9832 2056Q9731 2070 9688.0 2104.5Q9645 2139 9645 2206V2220Q9645 2287 9686.5 2323.0Q9728 2359 9813 2359Q9891 2359 9947.0 2333.0Q10003 2307 10038.0 2263.5Q10073 2220 10086 2167L10113 2298H10077Q10061 2358 10024.0 2409.0Q9987 2460 9920.5 2491.0Q9854 2522 9749 2522Z" fill="currentColor" /></svg>