<svg viewBox="0 0 12200 2923" xmlns="http://www.w3.org/2000/svg"><path d="M1233 1899H794V1820L901 1811Q910 1811 916 1798Q922 1785 920 1779L793 1442H367L245 1774Q244 1776 244 1779Q244 1809 271 1811L380 1820V1899H9V1820L116 1797L545 633H684L1111 1770Q1119 1791 1125 1796Q1131 1802 1150 1805L1233 1820ZM760 1354 579 871 400 1354ZM2250 1899H1843V1827L1921 1822Q1959 1819 1959 1781V1302Q1959 1122 1782 1122Q1687 1122 1579 1176V1781Q1579 1819 1618 1822L1696 1827V1899H1279V1827L1370 1822Q1408 1821 1408 1781V1141H1279V1080L1504 1011H1579V1103Q1779 989 1884 989Q2130 989 2130 1272V1781Q2130 1819 2169 1822L2250 1827ZM3295 1899H2888V1827L2966 1822Q3004 1819 3004 1781V1302Q3004 1122 2827 1122Q2732 1122 2624 1176V1781Q2624 1819 2663 1822L2741 1827V1899H2324V1827L2415 1822Q2453 1821 2453 1781V1141H2324V1080L2549 1011H2624V1103Q2824 989 2929 989Q3175 989 3175 1272V1781Q3175 1819 3214 1822L3295 1827ZM4239 1899H3966L3941 1790Q3766 1921 3634 1921Q3534 1921 3464.5 1855.0Q3395 1789 3395 1672Q3395 1587 3449.0 1529.5Q3503 1472 3587.5 1435.0Q3672 1398 3766.5 1375.5Q3861 1353 3941 1337V1257Q3941 1075 3771 1075Q3700 1075 3640 1099V1259H3506Q3437 1259 3437 1206Q3437 1146 3473.5 1104.5Q3510 1063 3568.0 1037.5Q3626 1012 3693.0 1000.5Q3760 989 3821 989Q4112 989 4112 1265V1781Q4112 1820 4151 1822L4239 1827ZM3941 1725V1407Q3715 1464 3635 1530Q3578 1578 3578 1660Q3578 1720 3614 1764Q3654 1813 3715 1813Q3807 1813 3941 1725ZM5238 1442Q5238 1659 5115.0 1790.0Q4992 1921 4772 1921Q4715 1921 4608 1904V2180Q4608 2216 4649 2219L4758 2228V2300H4311V2228L4399 2219Q4437 2215 4437 2180V1141H4311V1080L4536 1011H4608V1103Q4754 989 4887 989Q4994 989 5073.0 1050.5Q5152 1112 5195.0 1214.5Q5238 1317 5238 1442ZM5054 1467Q5054 1377 5027.0 1297.0Q5000 1217 4943.5 1167.0Q4887 1117 4797 1117Q4712 1117 4608 1173V1806Q4689 1836 4758 1836Q4858 1836 4923.5 1785.0Q4989 1734 5021.5 1650.0Q5054 1566 5054 1467ZM6311 1899H6018V1794Q5852 1921 5723 1921Q5468 1921 5468 1623V1123H5340V1060L5566 989H5639V1588Q5639 1796 5818 1796Q5909 1796 6018 1741V1123H5889V1060L6114 989H6189V1781Q6189 1819 6230 1822L6311 1827ZM7052 1199H6980Q6934 1148 6880 1148Q6795 1148 6695 1263V1781Q6695 1820 6734 1822L6856 1827V1899H6395V1829L6486 1822Q6524 1819 6524 1781V1141H6391V1080L6620 1011H6695V1175Q6722 1142 6763.0 1098.0Q6804 1054 6850.5 1021.5Q6897 989 6939 989Q7003 989 7052 1016ZM8078 1899H7671V1827L7749 1822Q7787 1819 7787 1781V1302Q7787 1122 7610 1122Q7515 1122 7407 1176V1781Q7407 1819 7446 1822L7524 1827V1899H7107V1827L7198 1822Q7236 1821 7236 1781V1141H7107V1080L7332 1011H7407V1103Q7607 989 7712 989Q7958 989 7958 1272V1781Q7958 1819 7997 1822L8078 1827ZM9022 1899H8749L8724 1790Q8549 1921 8417 1921Q8317 1921 8247.5 1855.0Q8178 1789 8178 1672Q8178 1587 8232.0 1529.5Q8286 1472 8370.5 1435.0Q8455 1398 8549.5 1375.5Q8644 1353 8724 1337V1257Q8724 1075 8554 1075Q8483 1075 8423 1099V1259H8289Q8220 1259 8220 1206Q8220 1146 8256.5 1104.5Q8293 1063 8351.0 1037.5Q8409 1012 8476.0 1000.5Q8543 989 8604 989Q8895 989 8895 1265V1781Q8895 1820 8934 1822L9022 1827ZM8724 1725V1407Q8498 1464 8418 1530Q8361 1578 8361 1660Q8361 1720 8397 1764Q8437 1813 8498 1813Q8590 1813 8724 1725ZM10542 1553Q10542 1680 10474.5 1763.5Q10407 1847 10296.0 1888.0Q10185 1929 10054 1929Q9870 1929 9726 1860V1534H9842L9866 1742Q9869 1772 9898 1783Q10005 1825 10083 1825Q10155 1825 10217.0 1801.5Q10279 1778 10316.5 1730.0Q10354 1682 10354 1607Q10354 1549 10309.0 1500.5Q10264 1452 10190.0 1409.5Q10116 1367 10030 1326Q9950 1287 9885.5 1244.5Q9821 1202 9784.0 1142.5Q9747 1083 9747 994Q9747 878 9804.5 797.5Q9862 717 9959.0 675.0Q10056 633 10172 633Q10235 633 10316.0 648.5Q10397 664 10496 696V983H10391L10364 806Q10361 782 10324.0 766.0Q10287 750 10243.0 741.5Q10199 733 10174 733Q10066 733 10001.5 792.5Q9937 852 9937 950Q9937 1095 10192 1193Q10286 1229 10365.5 1274.0Q10445 1319 10493.5 1385.5Q10542 1452 10542 1553ZM11161 1899H10675V1820L10785 1813Q10824 1810 10824 1772V789Q10824 754 10785 751L10675 743V662H11161V743L11049 751Q11010 754 11010 789V1772Q11010 1810 11049 1813L11161 1820ZM11271 1899V1820L11379 1813Q11417 1810 11417 1772V789Q11417 752 11379 749L11271 742V662H11742V742L11644 749Q11604 752 11604 789V1809H11991Q12026 1809 12031 1778L12061 1556H12168V1899Z" fill="currentColor" /></svg>