<svg viewBox="0 0 5704 1190" xmlns="http://www.w3.org/2000/svg"><path d="M15 941 16 927 68 920Q75 919 80 907L296 240H362L592 921L661 925Q661 926 660 940L460 941Q460 932 461 927L513 920Q521 919 521 908L466 745H154L101 919L217 925Q217 926 216 940ZM303 259 160 725H459ZM691 941 692 927 744 920Q753 919 753 906V473Q751 465 747 465L686 463L687 449Q750 440 772 440Q812 440 817 475H818V496Q900 440 975 437Q1048 437 1086 466Q1103 479 1116.5 506.5Q1130 534 1130 572V920L1205 925Q1205 926 1204 940L1004 941Q1004 932 1005 927L1057 920Q1065 919 1065 906V597Q1065 557 1054.5 529.0Q1044 501 1031.0 488.0Q1018 475 999 468Q977 460 953 460Q893 461 818 507V920L893 925Q893 926 892 940ZM1474 921 1513 919 1516 929Q1515 929 1502 932Q1472 939 1435 939Q1401 937 1373.0 927.5Q1345 918 1321.0 887.5Q1297 857 1297 809V458H1246L1254 450L1298 441L1306 345L1362 340V440H1483V458H1362V792Q1362 868 1394.0 894.5Q1426 921 1474 921ZM1697 481V920L1772 925Q1772 926 1771 940L1571 941Q1571 932 1572 927L1624 920Q1630 920 1632 911V472Q1630 465 1626 465L1566 463L1567 449Q1621 440 1649.0 440.0Q1677 440 1687.0 453.0Q1697 466 1697 481ZM1663.0 306.0Q1643 306 1632.0 293.5Q1621 281 1621.0 260.5Q1621 240 1632.5 227.5Q1644 215 1664.0 215.0Q1684 215 1696.5 227.5Q1709 240 1709.0 261.5Q1709 283 1696.0 294.5Q1683 306 1663.0 306.0ZM2122 454Q2037 454 1984.5 520.5Q1932 587 1932 709Q1932 926 2097 926Q2162 926 2208.0 913.5Q2254 901 2258 898L2265 909Q2242 924 2189.0 934.0Q2136 944 2093.0 944.0Q2050 944 2015.0 935.0Q1980 926 1944.5 903.0Q1909 880 1888.0 830.5Q1867 781 1867 710Q1867 579 1934 512Q2009 435 2123 435Q2159 435 2199.5 444.5Q2240 454 2262 474V605L2243 612L2238 507Q2216 484 2184.5 469.0Q2153 454 2122 454ZM2645 255 2646 240H2890Q3025 240 3106.5 318.5Q3188 397 3188 574Q3188 749 3131 836Q3081 912 2975 932Q2928 940 2865 940H2846L2645 941L2646 927L2698 920Q2708 919 2710 907V275Q2708 262 2698 261ZM2885 255H2778V925H2860Q2908 925 2941.5 919.5Q2975 914 3011.5 893.5Q3048 873 3069 837Q3120 752 3120 579Q3120 399 3049 324Q2984 255 2885 255ZM3399 481V920L3474 925Q3474 926 3473 940L3273 941Q3273 932 3274 927L3326 920Q3332 920 3334 911V472Q3332 465 3328 465L3268 463L3269 449Q3323 440 3351.0 440.0Q3379 440 3389.0 453.0Q3399 466 3399 481ZM3365.0 306.0Q3345 306 3334.0 293.5Q3323 281 3323.0 260.5Q3323 240 3334.5 227.5Q3346 215 3366.0 215.0Q3386 215 3398.5 227.5Q3411 240 3411.0 261.5Q3411 283 3398.0 294.5Q3385 306 3365.0 306.0ZM3977 231V888Q3977 919 3993 919L4053 922L4052 937Q4004 945 3952 945Q3941 944 3928.5 934.0Q3916 924 3914 908Q3857 944 3782 944Q3709 944 3647 903Q3612 880 3590.5 830.5Q3569 781 3569 710Q3569 579 3636 510Q3707 436 3798 436Q3854 436 3912 465V226Q3912 215 3906 215L3845 213L3846 199Q3909 190 3932.5 190.0Q3956 190 3966.5 203.0Q3977 216 3977 231ZM3795 926Q3856 926 3912 899V481Q3868 454 3825 454Q3739 454 3686.5 520.0Q3634 586 3634 709Q3634 926 3795 926ZM4381.5 944.0Q4277 944 4212.5 884.0Q4148 824 4148.0 700.5Q4148 577 4216.5 506.5Q4285 436 4389.0 436.0Q4493 436 4558.0 496.0Q4623 556 4623.0 679.5Q4623 803 4554.5 873.5Q4486 944 4381.5 944.0ZM4388.0 454.0Q4313 454 4263.0 519.0Q4213 584 4213.0 695.5Q4213 807 4260.5 866.5Q4308 926 4383.0 926.0Q4458 926 4508.0 861.0Q4558 796 4558.0 685.0Q4558 574 4510.5 514.0Q4463 454 4388.0 454.0ZM4683 941 4684 927 4736 920Q4745 919 4745 906V473Q4743 465 4739 465L4678 463L4679 449Q4742 440 4764 440Q4804 440 4809 475H4810V496Q4892 440 4967 437Q5040 437 5078 466Q5095 479 5108.5 506.5Q5122 534 5122 572V920L5197 925Q5197 926 5196 940L4996 941Q4996 932 4997 927L5049 920Q5057 919 5057 906V597Q5057 557 5046.5 529.0Q5036 501 5023.0 488.0Q5010 475 4991 468Q4969 460 4945 460Q4885 461 4810 507V920L4885 925Q4885 926 4884 940ZM5308 710Q5308 926 5476 926Q5520 926 5570.0 916.5Q5620 907 5634 899L5641 909Q5618 924 5565.5 934.0Q5513 944 5469.5 944.0Q5426 944 5391.5 935.0Q5357 926 5321.0 903.0Q5285 880 5264.0 831.0Q5243 782 5243 711Q5243 579 5311 509Q5382 436 5476.0 436.0Q5570 436 5619.5 488.0Q5669 540 5669 634Q5669 654 5666 677H5309Q5308 688 5308 710ZM5610 627Q5610 552 5577.0 504.5Q5544 457 5487 457Q5413 457 5362 522Q5321 573 5311 658H5609Q5610 647 5610 627Z" fill="currentColor" /></svg>