<svg viewBox="0 0 7236 3083" xmlns="http://www.w3.org/2000/svg"><path d="M30 2409 200 649H797L964 2409H631L606 2125H394L372 2409ZM419 1844H579L502 949H486ZM1072 2409V849H1434L1616 1695V849H1936V2409H1592L1396 1564V2409ZM2243 2409V1187H2034V849H2804V1187H2595V2409ZM3322 2425Q3106 2425 2997.0 2294.5Q2888 2164 2888 1929V1293Q2888 1066 2999.5 949.5Q3111 833 3322 833Q3534 833 3645.0 949.5Q3756 1066 3756 1293V1929Q3756 2164 3647.0 2294.5Q3538 2425 3322 2425ZM3325 2111Q3375 2111 3390.0 2065.5Q3405 2020 3405 1956V1277Q3405 1230 3392.0 1188.5Q3379 1147 3327 1147Q3276 1147 3257.5 1185.5Q3239 1224 3239 1280V1958Q3239 2027 3255.0 2069.0Q3271 2111 3325 2111ZM3898 2409V849H4260L4442 1695V849H4762V2409H4418L4222 1564V2409ZM5816 2425Q5575 2425 5468.5 2305.0Q5362 2185 5362 1923V1751H5710V1971Q5710 2032 5728.5 2066.5Q5747 2101 5793 2101Q5841 2101 5859.5 2073.0Q5878 2045 5878 1981Q5878 1900 5862.0 1845.5Q5846 1791 5806.5 1741.5Q5767 1692 5697 1626L5539 1476Q5362 1309 5362 1094Q5362 869 5466.5 751.0Q5571 633 5769 633Q6011 633 6112.5 762.0Q6214 891 6214 1154H5856V1033Q5856 997 5835.5 977.0Q5815 957 5780 957Q5738 957 5718.5 980.5Q5699 1004 5699 1041Q5699 1078 5719.0 1121.0Q5739 1164 5798 1220L6001 1415Q6062 1473 6113.0 1537.5Q6164 1602 6195.0 1687.5Q6226 1773 6226 1896Q6226 2144 6134.5 2284.5Q6043 2425 5816 2425ZM6753 2425Q6562 2425 6445.5 2306.0Q6329 2187 6329 1973V1161Q6329 905 6430.5 769.0Q6532 633 6761 633Q6886 633 6983.5 679.0Q7081 725 7137.0 816.5Q7193 908 7193 1047V1351H6843V1091Q6843 1012 6823.0 984.5Q6803 957 6761 957Q6712 957 6695.0 992.5Q6678 1028 6678 1087V1968Q6678 2041 6699.5 2071.0Q6721 2101 6761 2101Q6806 2101 6824.5 2064.0Q6843 2027 6843 1968V1651H7197V1984Q7197 2216 7080.0 2320.5Q6963 2425 6753 2425Z" fill="currentColor" /></svg>