<svg viewBox="0 0 7167 1792" xmlns="http://www.w3.org/2000/svg"><path d="M0 1776 170 16H767L934 1776H601L576 1492H364L342 1776ZM389 1211H549L472 316H456ZM1042 1776V216H1404L1586 1062V216H1906V1776H1562L1366 931V1776ZM2213 1776V554H2004V216H2774V554H2565V1776ZM3292 1792Q3076 1792 2967.0 1661.5Q2858 1531 2858 1296V660Q2858 433 2969.5 316.5Q3081 200 3292 200Q3504 200 3615.0 316.5Q3726 433 3726 660V1296Q3726 1531 3617.0 1661.5Q3508 1792 3292 1792ZM3295 1478Q3345 1478 3360.0 1432.5Q3375 1387 3375 1323V644Q3375 597 3362.0 555.5Q3349 514 3297 514Q3246 514 3227.5 552.5Q3209 591 3209 647V1325Q3209 1394 3225.0 1436.0Q3241 1478 3295 1478ZM3868 1776V216H4230L4412 1062V216H4732V1776H4388L4192 931V1776ZM5786 1792Q5545 1792 5438.5 1672.0Q5332 1552 5332 1290V1118H5680V1338Q5680 1399 5698.5 1433.5Q5717 1468 5763 1468Q5811 1468 5829.5 1440.0Q5848 1412 5848 1348Q5848 1267 5832.0 1212.5Q5816 1158 5776.5 1108.5Q5737 1059 5667 993L5509 843Q5332 676 5332 461Q5332 236 5436.5 118.0Q5541 0 5739 0Q5981 0 6082.5 129.0Q6184 258 6184 521H5826V400Q5826 364 5805.5 344.0Q5785 324 5750 324Q5708 324 5688.5 347.5Q5669 371 5669 408Q5669 445 5689.0 488.0Q5709 531 5768 587L5971 782Q6032 840 6083.0 904.5Q6134 969 6165.0 1054.5Q6196 1140 6196 1263Q6196 1511 6104.5 1651.5Q6013 1792 5786 1792ZM6723 1792Q6532 1792 6415.5 1673.0Q6299 1554 6299 1340V528Q6299 272 6400.5 136.0Q6502 0 6731 0Q6856 0 6953.5 46.0Q7051 92 7107.0 183.5Q7163 275 7163 414V718H6813V458Q6813 379 6793.0 351.5Q6773 324 6731 324Q6682 324 6665.0 359.5Q6648 395 6648 454V1335Q6648 1408 6669.5 1438.0Q6691 1468 6731 1468Q6776 1468 6794.5 1431.0Q6813 1394 6813 1335V1018H7167V1351Q7167 1583 7050.0 1687.5Q6933 1792 6723 1792Z" /></svg>