<svg viewBox="0 0 4827 2474" xmlns="http://www.w3.org/2000/svg"><path d="M1040 1796H1166L1046 1452H463L346 1796H502V1968H10V1796H142L614 452H909L1380 1796H1532V1968H1040ZM520 1286H988L752 608ZM2387 1151H2197V1087Q2164 1087 2129.5 1099.5Q2095 1112 2065.0 1137.5Q2035 1163 2012.5 1202.5Q1990 1242 1980 1296V1796H2156V1968H1642V1796H1785L1786 1104H1642V932H1973V1075Q1991 1043 2013.5 1015.5Q2036 988 2063.5 967.5Q2091 947 2124.5 935.5Q2158 924 2197 924Q2249 924 2295.0 924.0Q2341 924 2387 926ZM2522 932H2880V1104H2783L3039 1818L3289 1104H3226V932H3554V1104H3465L3126 1984H2942L2604 1104H2522ZM3688 1450Q3689 1327 3727.5 1226.0Q3766 1125 3835.0 1052.5Q3904 980 3999.0 941.0Q4094 902 4208 902Q4323 902 4418.5 941.0Q4514 980 4582.0 1051.5Q4650 1123 4688.0 1224.0Q4726 1325 4726 1448Q4726 1569 4688.0 1670.5Q4650 1772 4582.0 1845.0Q4514 1918 4418.5 1958.5Q4323 1999 4208 1999Q4091 1999 3996.0 1959.0Q3901 1919 3833.0 1846.5Q3765 1774 3727.0 1673.0Q3689 1572 3688 1450ZM3885 1450Q3885 1539 3910.5 1611.0Q3936 1683 3980.5 1733.5Q4025 1784 4083.5 1811.5Q4142 1839 4208 1839Q4277 1839 4336.5 1812.0Q4396 1785 4440.0 1734.5Q4484 1684 4509.0 1612.0Q4534 1540 4534 1450Q4534 1356 4509.0 1283.0Q4484 1210 4440.5 1161.0Q4397 1112 4337.0 1087.0Q4277 1062 4208 1062Q4142 1062 4083.5 1087.0Q4025 1112 3980.5 1161.0Q3936 1210 3910.5 1283.0Q3885 1356 3885 1450Z" fill="currentColor" /></svg>