<svg viewBox="0 0 1872 683" xmlns="http://www.w3.org/2000/svg"><path d="M19 667Q7 667 3.5 660.0Q0 653 0 647Q0 641 8.0 636.5Q16 632 26.5 628.5Q37 625 48.0 622.5Q59 620 64 617L268 52Q280 26 295.0 13.0Q310 0 331 0Q344 0 356 4Q392 92 417.0 162.5Q442 233 464.5 299.0Q487 365 510.5 433.5Q534 502 566 588Q575 608 583.0 614.0Q591 620 614 626Q623 628 628.0 631.5Q633 635 633 645Q633 650 625.0 658.5Q617 667 599 667H447Q435 667 431.5 660.0Q428 653 428 647Q428 638 440 634L478 617Q464 578 452.5 542.0Q441 506 430 471Q363 471 306.5 470.5Q250 470 182 470L139 595Q139 609 150.0 614.0Q161 619 173.5 622.0Q186 625 196.5 629.0Q207 633 207 645Q207 667 173 667ZM201 413Q263 413 310.5 414.0Q358 415 413 415Q391 340 368.0 264.5Q345 189 310 99ZM653 623Q654 610 654.0 591.5Q654 573 655.5 556.5Q657 540 662.5 528.5Q668 517 680 517Q686 517 690.5 524.5Q695 532 699.0 542.5Q703 553 706.5 563.0Q710 573 713 579Q724 599 756.0 616.5Q788 634 829 634Q855 634 877.5 618.0Q900 602 900 573Q900 545 882.0 527.0Q864 509 837.5 495.0Q811 481 780.0 468.5Q749 456 722.5 439.0Q696 422 678.0 397.5Q660 373 660 335Q660 301 676.0 274.0Q692 247 717.5 228.5Q743 210 775.0 200.0Q807 190 838 190Q898 190 926.0 209.5Q954 229 954 249Q954 259 954.0 274.5Q954 290 952.0 304.5Q950 319 945.0 329.0Q940 339 930 339Q924 339 918.5 331.0Q913 323 909 314Q904 303 900 289Q891 266 869.5 255.5Q848 245 792 245Q770 245 752.5 257.5Q735 270 735 301Q735 327 753.0 344.5Q771 362 798.5 376.0Q826 390 858.0 403.5Q890 417 917.5 435.5Q945 454 963.0 479.5Q981 505 981 544Q981 578 964.5 604.0Q948 630 921.5 647.5Q895 665 861.5 674.0Q828 683 795 683Q776 683 755.0 678.5Q734 674 714.0 666.5Q694 659 678.0 647.5Q662 636 653 623ZM1053 566Q1053 521 1076.0 490.0Q1099 459 1137.0 438.5Q1175 418 1223.5 407.0Q1272 396 1323 392V370Q1323 346 1320.0 322.0Q1317 298 1306 278Q1294 258 1273.5 252.5Q1253 247 1233 247Q1206 247 1191.0 248.5Q1176 250 1168.5 254.0Q1161 258 1159.5 265.5Q1158 273 1158 286Q1158 300 1161.5 303.5Q1165 307 1165 312Q1165 320 1158.5 328.5Q1152 337 1142.5 343.5Q1133 350 1121.5 354.0Q1110 358 1100 358Q1077 358 1072.0 344.5Q1067 331 1067 321Q1067 297 1090.5 274.0Q1114 251 1147.5 232.0Q1181 213 1217.0 201.5Q1253 190 1278 190Q1320 190 1346.5 203.0Q1373 216 1387.0 237.0Q1401 258 1406.0 284.5Q1411 311 1411 338V624Q1422 624 1434.0 619.5Q1446 615 1458 615Q1469 615 1472.5 619.0Q1476 623 1476 630Q1476 634 1468.0 642.5Q1460 651 1445.5 660.0Q1431 669 1412.0 676.0Q1393 683 1370 683Q1351 683 1337.0 675.0Q1323 667 1323 648V610Q1297 642 1266.0 662.5Q1235 683 1191 683Q1154 683 1127.5 672.0Q1101 661 1084.5 643.5Q1068 626 1060.5 605.5Q1053 585 1053 566ZM1147 533Q1147 573 1167.0 600.0Q1187 627 1241 627Q1261 627 1283.5 612.0Q1306 597 1323 573V438Q1295 439 1264.0 443.5Q1233 448 1207.0 458.0Q1181 468 1164.0 486.0Q1147 504 1147 533ZM1528 647Q1528 642 1534.5 637.5Q1541 633 1550.0 629.0Q1559 625 1568.0 621.5Q1577 618 1581 616V287Q1561 283 1540.0 274.0Q1519 265 1519 258Q1519 248 1531.0 237.5Q1543 227 1560.5 219.0Q1578 211 1598.0 205.5Q1618 200 1633 200Q1641 200 1648.0 202.0Q1655 204 1657 210V303Q1678 256 1711.5 223.0Q1745 190 1790 190Q1799 190 1812.5 193.0Q1826 196 1839.5 204.5Q1853 213 1862.5 228.0Q1872 243 1872 266Q1872 275 1866.0 283.5Q1860 292 1851.0 298.5Q1842 305 1831.5 309.5Q1821 314 1811 315Q1803 315 1797.5 311.5Q1792 308 1790 294Q1785 271 1775.5 264.0Q1766 257 1747 257Q1733 257 1719.0 271.0Q1705 285 1693.5 305.5Q1682 326 1674.5 348.5Q1667 371 1667 388V595Q1667 609 1682.0 613.5Q1697 618 1714.5 620.5Q1732 623 1746.5 627.5Q1761 632 1761 645Q1761 667 1727 667H1547Q1535 667 1531.5 660.0Q1528 653 1528 647Z" /></svg>