<svg viewBox="0 0 1897 1213" xmlns="http://www.w3.org/2000/svg"><path d="M150 705Q122 817 115.5 853.5Q109 890 109 932V949H-27V939Q18 904 93.5 661.5Q169 419 191.5 344.0Q214 269 216 248L333 236Q333 271 396.0 454.5Q459 638 497.5 738.0Q536 838 557.0 877.0Q578 916 604 939V949H436V932Q436 896 426.5 865.0Q417 834 414 825L374 705Q334 704 261.0 704.0Q188 704 150 705ZM258 323Q238 376 162 648H357Q339 593 304.0 475.0Q269 357 258 323ZM734 520Q716 538 716.0 569.5Q716 601 736.0 618.5Q756 636 786.5 644.0Q817 652 852.0 664.0Q887 676 917.5 689.5Q948 703 968.0 733.0Q988 763 988 806Q988 882 932.0 921.0Q876 960 784.5 960.0Q693 960 622 913Q625 862 652 822Q742 904 816 904Q848 904 873 891Q897 870 897.0 834.5Q897 799 869.5 779.5Q842 760 803.0 749.0Q764 738 725.0 724.0Q686 710 658.5 680.0Q631 650 631 602Q631 532 683.5 494.5Q736 457 816.0 457.0Q896 457 973 491Q964 535 938 579Q867 508 790 508Q757 508 734 520ZM1267 960Q1183 960 1149.5 916.5Q1116 873 1116 782V639Q1116 544 1086 476V469H1225V476Q1210 529 1210 609V766Q1210 826 1225.0 852.0Q1240 878 1298.0 878.0Q1356 878 1434 823V639Q1434 542 1405 476V469H1543V476Q1528 529 1528 609V778Q1528 822 1543.0 864.5Q1558 907 1578 921L1579 933L1462 961Q1445 915 1438 873Q1389 915 1349.0 937.5Q1309 960 1267 960ZM1841 949H1712V937Q1729 887 1729 779V362Q1729 282 1683 238V226L1820 202L1826 212Q1823 241 1823 404L1824 779Q1824 887 1841 937Z" fill="currentColor" /></svg>