<svg viewBox="0 0 1868 759" xmlns="http://www.w3.org/2000/svg"><path d="M177 503Q149 615 142.5 651.5Q136 688 136 730V747H0V737Q45 702 120.5 459.5Q196 217 218.5 142.0Q241 67 243 46L360 34Q360 69 423.0 252.5Q486 436 524.5 536.0Q563 636 584.0 675.0Q605 714 631 737V747H463V730Q463 694 453.5 663.0Q444 632 441 623L401 503Q361 502 288.0 502.0Q215 502 177 503ZM285 121Q265 174 189 446H384Q366 391 331.0 273.0Q296 155 285 121ZM761 318Q743 336 743.0 367.5Q743 399 763.0 416.5Q783 434 813.5 442.0Q844 450 879.0 462.0Q914 474 944.5 487.5Q975 501 995.0 531.0Q1015 561 1015 604Q1015 680 959.0 719.0Q903 758 811.5 758.0Q720 758 649 711Q652 660 679 620Q769 702 843 702Q875 702 900 689Q924 668 924.0 632.5Q924 597 896.5 577.5Q869 558 830.0 547.0Q791 536 752.0 522.0Q713 508 685.5 478.0Q658 448 658 400Q658 330 710.5 292.5Q763 255 843.0 255.0Q923 255 1000 289Q991 333 965 377Q894 306 817 306Q784 306 761 318ZM1294 758Q1210 758 1176.5 714.5Q1143 671 1143 580V437Q1143 342 1113 274V267H1252V274Q1237 327 1237 407V564Q1237 624 1252.0 650.0Q1267 676 1325.0 676.0Q1383 676 1461 621V437Q1461 340 1432 274V267H1570V274Q1555 327 1555 407V576Q1555 620 1570.0 662.5Q1585 705 1605 719L1606 731L1489 759Q1472 713 1465 671Q1416 713 1376.0 735.5Q1336 758 1294 758ZM1868 747H1739V735Q1756 685 1756 577V160Q1756 80 1710 36V24L1847 0L1853 10Q1850 39 1850 202L1851 577Q1851 685 1868 735Z" /></svg>