<svg viewBox="0 0 9571.914285714285 907" xmlns="http://www.w3.org/2000/svg"><path d="M0 715 251 46H356L606 715H506L455 569H151L100 715ZM180 488H426L303 141ZM810 715Q763 715 737.5 705.5Q712 696 702.5 669.0Q693 642 693 591V286H609V219H693V94H777V219H873V286H777V577Q777 615 784.5 628.0Q792 641 828 641H873V715ZM983 715V47H1067V442L1267 219H1368L1181 424L1393 715H1290L1125 486L1067 549V715ZM1559 125Q1534 125 1515.5 106.5Q1497 88 1497 62Q1497 36 1515.5 18.0Q1534 0 1559 0Q1585 0 1603.5 18.0Q1622 36 1622 62Q1622 88 1603.5 106.5Q1585 125 1559 125ZM1517 715V286H1448V219H1601V715ZM1751 715V219H1813L1835 294Q1856 259 1894.0 235.0Q1932 211 1995 211Q2085 211 2122.0 263.5Q2159 316 2159 401V715H2075V426Q2075 388 2068.0 355.5Q2061 323 2037.5 303.0Q2014 283 1966 283Q1905 283 1870.0 324.5Q1835 366 1835 446V715ZM2466 727Q2423 727 2381.5 713.5Q2340 700 2307.5 672.5Q2275 645 2258 603L2339 573Q2350 617 2387.5 636.5Q2425 656 2466 656Q2496 656 2522.5 647.0Q2549 638 2566.0 621.0Q2583 604 2583 582Q2583 541 2550.5 524.0Q2518 507 2473 498L2404 484Q2368 476 2337.0 461.5Q2306 447 2287.0 420.0Q2268 393 2268 348Q2268 303 2296.0 272.5Q2324 242 2367.5 226.0Q2411 210 2459 210Q2518 210 2570.5 234.5Q2623 259 2645 311L2566 340Q2553 310 2520.5 295.5Q2488 281 2453 281Q2415 281 2384.0 298.0Q2353 315 2353 347Q2353 379 2379.5 393.5Q2406 408 2445 416L2510 429Q2550 437 2586.0 452.0Q2622 467 2645.0 496.5Q2668 526 2668 579Q2668 626 2639.0 659.0Q2610 692 2564.0 709.5Q2518 727 2466 727ZM2974 727Q2931 727 2889.0 712.0Q2847 697 2812.5 665.5Q2778 634 2757.0 585.0Q2736 536 2736 469Q2736 402 2757.0 353.0Q2778 304 2812.5 272.5Q2847 241 2889.0 226.0Q2931 211 2974 211Q3017 211 3059.5 226.0Q3102 241 3136.5 272.5Q3171 304 3191.5 353.0Q3212 402 3212 469Q3212 536 3191.5 585.0Q3171 634 3136.5 665.5Q3102 697 3059.5 712.0Q3017 727 2974 727ZM2974 653Q3010 653 3044.0 633.5Q3078 614 3100.0 573.5Q3122 533 3122 469Q3122 405 3100.0 364.5Q3078 324 3044.0 304.5Q3010 285 2974 285Q2939 285 2904.5 304.5Q2870 324 2848.0 364.5Q2826 405 2826 469Q2826 533 2848.0 573.5Q2870 614 2904.5 633.5Q2939 653 2974 653ZM3320 715V219H3382L3404 294Q3425 259 3463.0 235.0Q3501 211 3564 211Q3654 211 3691.0 263.5Q3728 316 3728 401V715H3644V426Q3644 388 3637.0 355.5Q3630 323 3606.5 303.0Q3583 283 3535 283Q3474 283 3439.0 324.5Q3404 366 3404 446V715ZM4152 715V47H4246V331H4596V47H4690V715H4596V412H4246V715ZM4803 876V802H4837Q4873 802 4892.0 796.5Q4911 791 4922.5 772.5Q4934 754 4945 716L4766 220H4859L4981 602L5103 220H5195L5019 737Q5001 790 4982.5 820.5Q4964 851 4933.0 863.5Q4902 876 4846 876ZM5265 876V219H5326L5349 297Q5372 258 5412.0 234.5Q5452 211 5510 211Q5567 211 5615.5 241.5Q5664 272 5693.5 329.5Q5723 387 5723 469Q5723 550 5693.5 608.0Q5664 666 5615.5 696.5Q5567 727 5510 727Q5452 727 5412.0 703.5Q5372 680 5349 640V876ZM5488 655Q5552 655 5590.5 606.0Q5629 557 5629 469Q5629 380 5590.5 331.5Q5552 283 5488 283Q5424 283 5385.5 331.5Q5347 380 5347 469Q5347 557 5385.5 606.0Q5424 655 5488 655ZM6042 727Q5964 727 5910.0 692.5Q5856 658 5827.5 599.5Q5799 541 5799 468Q5799 389 5831.0 331.5Q5863 274 5917.5 242.5Q5972 211 6040 211Q6099 211 6144.0 234.5Q6189 258 6218.5 297.5Q6248 337 6261.5 387.0Q6275 437 6271 490H5889Q5891 552 5916.5 588.0Q5942 624 5977.0 638.5Q6012 653 6042 653Q6084 653 6112.5 639.5Q6141 626 6158 604L6239 628Q6212 671 6162.0 699.0Q6112 727 6042 727ZM5890 423H6182Q6182 388 6164.5 356.0Q6147 324 6115.5 303.5Q6084 283 6040 283Q6003 283 5970.0 297.0Q5937 311 5915.5 342.0Q5894 373 5890 423ZM6370 715V219H6431L6458 311Q6484 266 6528.5 238.5Q6573 211 6635 211V298Q6628 298 6620.5 298.0Q6613 298 6606 299Q6521 306 6487.5 358.0Q6454 410 6454 502V715ZM6827 715Q6780 715 6754.5 705.5Q6729 696 6719.5 669.0Q6710 642 6710 591V48H6794V577Q6794 615 6802.0 628.0Q6810 641 6845 641H6864V715ZM7160 727Q7082 727 7028.0 692.5Q6974 658 6945.5 599.5Q6917 541 6917 468Q6917 389 6949.0 331.5Q6981 274 7035.5 242.5Q7090 211 7158 211Q7217 211 7262.0 234.5Q7307 258 7336.5 297.5Q7366 337 7379.5 387.0Q7393 437 7389 490H7007Q7009 552 7034.5 588.0Q7060 624 7095.0 638.5Q7130 653 7160 653Q7202 653 7230.5 639.5Q7259 626 7276 604L7357 628Q7330 671 7280.0 699.0Q7230 727 7160 727ZM7008 423H7300Q7300 388 7282.5 356.0Q7265 324 7233.5 303.5Q7202 283 7158 283Q7121 283 7088.0 297.0Q7055 311 7033.5 342.0Q7012 373 7008 423ZM7692 907Q7652 907 7612.5 895.5Q7573 884 7542.5 858.0Q7512 832 7499 791L7583 768Q7597 807 7629.0 820.0Q7661 833 7692 833Q7769 833 7796.5 796.0Q7824 759 7824 687V621Q7801 660 7763.0 683.0Q7725 706 7666 706Q7611 706 7563.0 677.5Q7515 649 7485.5 593.5Q7456 538 7456 459Q7456 379 7485.5 324.0Q7515 269 7563.0 240.0Q7611 211 7666 211Q7725 211 7763.0 234.5Q7801 258 7824 297L7847 219H7908V668Q7908 786 7860.5 846.5Q7813 907 7692 907ZM7687 636Q7725 636 7756.5 618.0Q7788 600 7807.5 561.0Q7827 522 7827 459Q7827 396 7807.5 357.0Q7788 318 7756.5 300.5Q7725 283 7687 283Q7626 283 7586.5 328.5Q7547 374 7547 459Q7547 544 7586.5 590.0Q7626 636 7687 636ZM8134 125Q8109 125 8090.5 106.5Q8072 88 8072 62Q8072 36 8090.5 18.0Q8109 0 8134 0Q8160 0 8178.5 18.0Q8197 36 8197 62Q8197 88 8178.5 106.5Q8160 125 8134 125ZM8092 715V286H8023V219H8176V715ZM8571 727Q8513 727 8473.0 703.5Q8433 680 8410 640L8388 715H8326V47H8410V297Q8433 258 8473.0 234.5Q8513 211 8571 211Q8628 211 8676.5 241.5Q8725 272 8754.5 329.5Q8784 387 8784 469Q8784 551 8754.5 608.5Q8725 666 8676.5 696.5Q8628 727 8571 727ZM8549 655Q8613 655 8651.5 606.0Q8690 557 8690 469Q8690 380 8651.5 331.5Q8613 283 8549 283Q8485 283 8446.5 331.5Q8408 380 8408 469Q8408 557 8446.5 606.0Q8485 655 8549 655ZM9009 715Q8962 715 8936.5 705.5Q8911 696 8901.5 669.0Q8892 642 8892 591V48H8976V577Q8976 615 8984.0 628.0Q8992 641 9027 641H9046V715ZM9342 727Q9264 727 9210.0 692.5Q9156 658 9127.5 599.5Q9099 541 9099 468Q9099 389 9131.0 331.5Q9163 274 9217.5 242.5Q9272 211 9340 211Q9399 211 9444.0 234.5Q9489 258 9518.5 297.5Q9548 337 9561.5 387.0Q9575 437 9571 490H9189Q9191 552 9216.5 588.0Q9242 624 9277.0 638.5Q9312 653 9342 653Q9384 653 9412.5 639.5Q9441 626 9458 604L9539 628Q9512 671 9462.0 699.0Q9412 727 9342 727ZM9190 423H9482Q9482 388 9464.5 356.0Q9447 324 9415.5 303.5Q9384 283 9340 283Q9303 283 9270.0 297.0Q9237 311 9215.5 342.0Q9194 373 9190 423Z" /></svg>