<svg viewBox="0 0 16432 1300" xmlns="http://www.w3.org/2000/svg"><path d="M35 984 287 316H346L597 984H540L479 816H153L91 984ZM170 768H461L318 375H314ZM977 984Q937 984 914.0 975.0Q891 966 881.5 941.0Q872 916 872 868V532H762V488H872V364H926V488H1141V532H926V867Q926 910 936.5 923.0Q947 936 981 936H1091V984ZM1416 984V276H1470V739L1730 488H1799L1587 690L1830 984H1761L1550 726L1470 802V984ZM2011 984V940H2191V532H2036V488H2245V940H2425V984ZM2207 385Q2188 385 2173.5 370.5Q2159 356 2159 337Q2159 317 2173.5 303.0Q2188 289 2207 289Q2227 289 2241.0 303.0Q2255 317 2255 337Q2255 356 2241.0 370.5Q2227 385 2207 385ZM2642 984V488H2682L2694 568Q2706 549 2728.5 528.0Q2751 507 2786.0 492.5Q2821 478 2867 478Q2930 478 2970.0 501.5Q3010 525 3029.0 565.5Q3048 606 3048 656V984H2994V673Q2994 610 2964.0 568.0Q2934 526 2861 526Q2789 526 2742.5 574.0Q2696 622 2696 711V984ZM3484 996Q3440 996 3396.5 983.0Q3353 970 3319.5 942.5Q3286 915 3270 872L3323 852Q3337 898 3379.0 923.0Q3421 948 3485 948Q3555 948 3592.5 921.5Q3630 895 3630 854Q3630 807 3594.5 787.5Q3559 768 3504 756L3425 739Q3361 725 3323.0 697.5Q3285 670 3285 613Q3285 572 3309.5 541.5Q3334 511 3377.0 494.5Q3420 478 3474 478Q3544 478 3594.0 504.0Q3644 530 3664 577L3613 597Q3600 562 3561.0 544.0Q3522 526 3472 526Q3416 526 3376.5 547.5Q3337 569 3337 610Q3337 644 3365.5 662.5Q3394 681 3439 691L3518 708Q3596 724 3639.0 754.5Q3682 785 3682 850Q3682 895 3656.0 928.0Q3630 961 3585.5 978.5Q3541 996 3484 996ZM4108 996Q4065 996 4021.5 981.0Q3978 966 3942.0 934.5Q3906 903 3884.0 854.0Q3862 805 3862 737Q3862 669 3884.0 620.0Q3906 571 3942.0 539.5Q3978 508 4021.5 493.0Q4065 478 4108 478Q4152 478 4195.5 493.0Q4239 508 4275.0 539.5Q4311 571 4332.5 620.0Q4354 669 4354 737Q4354 805 4332.5 854.0Q4311 903 4275.0 934.5Q4239 966 4195.5 981.0Q4152 996 4108 996ZM4108 948Q4157 948 4200.5 925.5Q4244 903 4271.5 856.0Q4299 809 4299 737Q4299 664 4271.5 617.5Q4244 571 4200.5 548.5Q4157 526 4108 526Q4059 526 4015.5 548.5Q3972 571 3944.5 617.5Q3917 664 3917 737Q3917 809 3944.5 856.0Q3972 903 4015.5 925.5Q4059 948 4108 948ZM4538 984V488H4578L4590 568Q4602 549 4624.5 528.0Q4647 507 4682.0 492.5Q4717 478 4763 478Q4826 478 4866.0 501.5Q4906 525 4925.0 565.5Q4944 606 4944 656V984H4890V673Q4890 610 4860.0 568.0Q4830 526 4757 526Q4685 526 4638.5 574.0Q4592 622 4592 711V984ZM5753 984V316H5809V615H6199V316H6255V984H6199V663H5809V984ZM6418 1146V1098H6495Q6529 1098 6544.5 1087.5Q6560 1077 6576 1043L6609 973L6386 488H6445L6636 911H6640L6828 488H6886L6622 1059Q6612 1081 6602.0 1097.5Q6592 1114 6578.5 1125.0Q6565 1136 6545.0 1141.0Q6525 1146 6494 1146ZM7052 1146V488H7092L7108 576Q7125 548 7151.5 526.0Q7178 504 7213.0 491.0Q7248 478 7291 478Q7360 478 7413.0 508.5Q7466 539 7495.5 597.0Q7525 655 7525 737Q7525 819 7495.5 877.0Q7466 935 7413.0 965.5Q7360 996 7291 996Q7246 996 7210.0 982.5Q7174 969 7148.0 947.0Q7122 925 7106 900V1146ZM7286 948Q7369 948 7419.5 893.0Q7470 838 7470 737Q7470 636 7419.5 581.0Q7369 526 7286 526Q7204 526 7155.0 584.0Q7106 642 7106 737Q7106 834 7155.0 891.0Q7204 948 7286 948ZM7907 996Q7830 996 7776.5 961.5Q7723 927 7695.5 868.5Q7668 810 7668 739Q7668 659 7698.5 600.5Q7729 542 7782.5 510.0Q7836 478 7905 478Q7963 478 8007.0 500.5Q8051 523 8079.5 560.5Q8108 598 8121.0 645.0Q8134 692 8131 740H7723Q7723 801 7741.0 841.0Q7759 881 7787.5 904.5Q7816 928 7849.0 938.0Q7882 948 7912 948Q7965 948 7997.5 929.5Q8030 911 8049 884L8103 903Q8078 940 8032.5 968.0Q7987 996 7907 996ZM7725 695H8074Q8074 657 8055.5 618.0Q8037 579 8000.0 552.5Q7963 526 7905 526Q7863 526 7824.5 542.0Q7786 558 7759.5 595.0Q7733 632 7725 695ZM8378 984V488H8418L8434 613Q8466 548 8527.5 515.0Q8589 482 8662 482Q8680 482 8701.5 484.5Q8723 487 8736 490V550Q8714 544 8691.5 540.5Q8669 537 8649 537Q8589 537 8540.0 562.0Q8491 587 8461.5 637.5Q8432 688 8432 766V984ZM9186 984Q9147 984 9125.5 975.0Q9104 966 9095.5 945.5Q9087 925 9087 889V320H8972V276H9141V886Q9141 914 9149.5 925.0Q9158 936 9191 936H9376V984ZM9803 996Q9726 996 9672.5 961.5Q9619 927 9591.5 868.5Q9564 810 9564 739Q9564 659 9594.5 600.5Q9625 542 9678.5 510.0Q9732 478 9801 478Q9859 478 9903.0 500.5Q9947 523 9975.5 560.5Q10004 598 10017.0 645.0Q10030 692 10027 740H9619Q9619 801 9637.0 841.0Q9655 881 9683.5 904.5Q9712 928 9745.0 938.0Q9778 948 9808 948Q9861 948 9893.5 929.5Q9926 911 9945 884L9999 903Q9974 940 9928.5 968.0Q9883 996 9803 996ZM9621 695H9970Q9970 657 9951.5 618.0Q9933 579 9896.0 552.5Q9859 526 9801 526Q9759 526 9720.5 542.0Q9682 558 9655.5 595.0Q9629 632 9621 695ZM10423 1170Q10378 1170 10335.0 1158.0Q10292 1146 10261.0 1121.0Q10230 1096 10220 1056L10275 1041Q10285 1079 10325.0 1100.0Q10365 1121 10425 1121Q10472 1121 10509.0 1106.5Q10546 1092 10567.5 1061.5Q10589 1031 10589 984V887Q10563 927 10518.0 953.5Q10473 980 10408 980Q10341 980 10289.0 950.5Q10237 921 10207.5 865.0Q10178 809 10178 730Q10178 651 10207.5 595.0Q10237 539 10289.0 508.5Q10341 478 10408 478Q10473 478 10518.5 506.5Q10564 535 10589 577L10603 488H10643V988Q10643 1044 10615.5 1085.0Q10588 1126 10538.5 1148.0Q10489 1170 10423 1170ZM10413 932Q10467 932 10506.5 907.0Q10546 882 10567.5 837.0Q10589 792 10589 731Q10589 639 10541.0 582.5Q10493 526 10413 526Q10332 526 10282.5 580.0Q10233 634 10233 731Q10233 827 10282.5 879.5Q10332 932 10413 932ZM10859 984V940H11039V532H10884V488H11093V940H11273V984ZM11055 385Q11036 385 11021.5 370.5Q11007 356 11007 337Q11007 317 11021.5 303.0Q11036 289 11055 289Q11075 289 11089.0 303.0Q11103 317 11103 337Q11103 356 11089.0 370.5Q11075 385 11055 385ZM11715 996Q11670 996 11634.0 982.5Q11598 969 11572.0 947.0Q11546 925 11529 899L11516 984H11476V276H11530V579Q11548 549 11574.5 526.5Q11601 504 11636.5 491.0Q11672 478 11715 478Q11784 478 11837.0 508.5Q11890 539 11919.5 597.0Q11949 655 11949 737Q11949 819 11919.5 877.0Q11890 935 11837.0 965.5Q11784 996 11715 996ZM11710 948Q11793 948 11843.5 893.0Q11894 838 11894 737Q11894 636 11843.5 581.0Q11793 526 11710 526Q11628 526 11579.0 582.5Q11530 639 11530 737Q11530 801 11552.5 848.5Q11575 896 11615.5 922.0Q11656 948 11710 948ZM12346 984Q12307 984 12285.5 975.0Q12264 966 12255.5 945.5Q12247 925 12247 889V320H12132V276H12301V886Q12301 914 12309.5 925.0Q12318 936 12351 936H12536V984ZM12963 996Q12886 996 12832.5 961.5Q12779 927 12751.5 868.5Q12724 810 12724 739Q12724 659 12754.5 600.5Q12785 542 12838.5 510.0Q12892 478 12961 478Q13019 478 13063.0 500.5Q13107 523 13135.5 560.5Q13164 598 13177.0 645.0Q13190 692 13187 740H12779Q12779 801 12797.0 841.0Q12815 881 12843.5 904.5Q12872 928 12905.0 938.0Q12938 948 12968 948Q13021 948 13053.5 929.5Q13086 911 13105 884L13159 903Q13134 940 13088.5 968.0Q13043 996 12963 996ZM12781 695H13130Q13130 657 13111.5 618.0Q13093 579 13056.0 552.5Q13019 526 12961 526Q12919 526 12880.5 542.0Q12842 558 12815.5 595.0Q12789 632 12781 695ZM13955 984V316H14052L14220 909H14224L14388 316H14485V984H14429V376H14425L14252 984H14190L14015 376H14011V984ZM14852 996Q14809 996 14765.5 981.0Q14722 966 14686.0 934.5Q14650 903 14628.0 854.0Q14606 805 14606 737Q14606 669 14628.0 620.0Q14650 571 14686.0 539.5Q14722 508 14765.5 493.0Q14809 478 14852 478Q14896 478 14939.5 493.0Q14983 508 15019.0 539.5Q15055 571 15076.5 620.0Q15098 669 15098 737Q15098 805 15076.5 854.0Q15055 903 15019.0 934.5Q14983 966 14939.5 981.0Q14896 996 14852 996ZM14852 948Q14901 948 14944.5 925.5Q14988 903 15015.5 856.0Q15043 809 15043 737Q15043 664 15015.5 617.5Q14988 571 14944.5 548.5Q14901 526 14852 526Q14803 526 14759.5 548.5Q14716 571 14688.5 617.5Q14661 664 14661 737Q14661 809 14688.5 856.0Q14716 903 14759.5 925.5Q14803 948 14852 948ZM15282 984V488H15322L15334 568Q15346 549 15368.5 528.0Q15391 507 15426.0 492.5Q15461 478 15507 478Q15570 478 15610.0 501.5Q15650 525 15669.0 565.5Q15688 606 15688 656V984H15634V673Q15634 610 15604.0 568.0Q15574 526 15501 526Q15429 526 15382.5 574.0Q15336 622 15336 711V984ZM16116 996Q16073 996 16029.5 981.0Q15986 966 15950.0 934.5Q15914 903 15892.0 854.0Q15870 805 15870 737Q15870 669 15892.0 620.0Q15914 571 15950.0 539.5Q15986 508 16029.5 493.0Q16073 478 16116 478Q16160 478 16203.5 493.0Q16247 508 16283.0 539.5Q16319 571 16340.5 620.0Q16362 669 16362 737Q16362 805 16340.5 854.0Q16319 903 16283.0 934.5Q16247 966 16203.5 981.0Q16160 996 16116 996ZM16116 948Q16165 948 16208.5 925.5Q16252 903 16279.5 856.0Q16307 809 16307 737Q16307 664 16279.5 617.5Q16252 571 16208.5 548.5Q16165 526 16116 526Q16067 526 16023.5 548.5Q15980 571 15952.5 617.5Q15925 664 15925 737Q15925 809 15952.5 856.0Q15980 903 16023.5 925.5Q16067 948 16116 948Z" fill="currentColor" /></svg>