<svg viewBox="0 0 17812 2444" xmlns="http://www.w3.org/2000/svg"><path d="M733 1377Q857 1377 857 1345V1338Q857 1321 790.0 1054.5Q723 788 700 788H696Q694 788 658 866Q472 1265 472 1352V1358Q472 1373 510 1373L526 1375L599 1377ZM710 547H733Q818 547 885 702Q999 963 1144 1545Q1163 1619 1200.5 1693.0Q1238 1767 1238 1787Q1238 1844 1200.0 1887.0Q1162 1930 1110 1930H1088Q1001 1930 979 1875Q975 1866 970.5 1823.5Q966 1781 958 1744Q930 1614 888.5 1565.5Q847 1517 655.0 1517.0Q463 1517 417.5 1561.0Q372 1605 323 1741Q308 1783 299.5 1834.0Q291 1885 282 1900Q264 1929 208.5 1929.0Q153 1929 120.0 1891.0Q87 1853 87.0 1801.5Q87 1750 139 1678Q190 1606 330 1238Q550 658 626 586Q668 547 710 547ZM1783 1951Q1710 1951 1666 1858Q1633 1788 1548.5 1522.5Q1464 1257 1437 1206Q1370 1079 1370.0 1043.5Q1370 1008 1392.0 991.5Q1414 975 1485 975Q1599 975 1636 1059Q1643 1074 1658.0 1151.5Q1673 1229 1688 1288L1708 1376Q1783 1706 1823 1706Q1850 1706 1975 1369Q2032 1215 2048.5 1126.5Q2065 1038 2070 1028Q2099 973 2192 973H2212Q2280 973 2280 1042Q2280 1091 2250.0 1142.0Q2220 1193 2110.5 1455.5Q2001 1718 1949.0 1811.5Q1897 1905 1863.5 1928.0Q1830 1951 1783 1951ZM2614 1344V1360Q2614 1390 2669 1390H2693L2699 1389L2748 1385Q2825 1374 2848 1374Q2957 1374 3012 1333Q3038 1313 3038 1262V1251Q3038 1176 2988.5 1132.0Q2939 1088 2870 1088H2863L2857 1089Q2760 1089 2687.0 1171.0Q2614 1253 2614 1344ZM2832 1965H2810Q2619 1965 2506.0 1843.5Q2393 1722 2393 1519V1475Q2393 1378 2431 1278Q2508 1078 2682 1002Q2774 961 2869 961H2912Q3043 961 3133.5 1048.5Q3224 1136 3224 1274V1294Q3224 1392 3146 1433Q3092 1462 2894.0 1491.0Q2696 1520 2678 1526Q2618 1547 2618 1606Q2618 1688 2688.0 1746.0Q2758 1804 2876 1804Q2931 1804 3026.0 1774.0Q3121 1744 3136 1744Q3187 1744 3187 1788Q3187 1847 3072.0 1906.0Q2957 1965 2832 1965ZM3504 1432V1355Q3504 1216 3489.0 1151.5Q3474 1087 3474 1061Q3474 1000 3563.0 1000.0Q3652 1000 3692 1033Q3703 1042 3720.5 1068.0Q3738 1094 3752 1094Q3755 1094 3839.0 1043.0Q3923 992 3983 992H3998Q4047 992 4076.0 1015.5Q4105 1039 4105 1073V1086Q4105 1127 4076.5 1145.0Q4048 1163 3986 1163Q3845 1163 3780.5 1262.0Q3716 1361 3716 1612Q3716 1648 3728.5 1723.0Q3741 1798 3741.0 1836.0Q3741 1874 3700.0 1909.0Q3659 1944 3596 1944H3562Q3507 1944 3477.5 1917.5Q3448 1891 3448.0 1852.5Q3448 1814 3462 1774Q3500 1666 3500 1536Q3504 1464 3504 1432ZM4592 652V664Q4592 715 4562.5 750.5Q4533 786 4472 786H4456L4425 782Q4398 782 4373.0 757.0Q4348 732 4348 682V670L4353 634Q4353 613 4378.5 582.0Q4404 551 4444 551L4467 548H4487L4515 552Q4541 552 4566.5 577.5Q4592 603 4592 652ZM4545 1074 4534 1343 4532 1370 4529 1452V1491Q4529 1635 4537.5 1680.0Q4546 1725 4570.0 1767.5Q4594 1810 4594 1829V1838Q4594 1887 4544.0 1916.0Q4494 1945 4408 1945H4383Q4333 1945 4307.0 1922.5Q4281 1900 4281 1874V1852Q4281 1839 4304.0 1759.5Q4327 1680 4327 1543Q4330 1504 4330 1489L4333 1434L4335 1407Q4340 1337 4340 1298L4341 1258Q4341 1183 4316.5 1125.0Q4292 1067 4292 1053Q4292 981 4428 981H4464Q4515 981 4530.0 1007.5Q4545 1034 4545 1074ZM5159 1826H5185Q5267 1826 5329.5 1770.5Q5392 1715 5392 1642L5394 1629V1616L5396 1585V1528Q5396 1470 5337 1470H5292L5285 1471L5246 1474Q5218 1478 5206 1478Q5125 1478 5056 1539Q5008 1582 5008 1661V1681Q5008 1748 5051.5 1787.0Q5095 1826 5159 1826ZM4936 1187Q4869 1187 4869 1101Q4869 1037 4977.5 989.5Q5086 942 5203 942H5253Q5354 942 5431.0 979.5Q5508 1017 5548.5 1081.0Q5589 1145 5598 1248Q5600 1272 5600.0 1481.0Q5600 1690 5605.5 1721.5Q5611 1753 5637.5 1798.0Q5664 1843 5664.0 1872.0Q5664 1901 5636.5 1921.5Q5609 1942 5557.0 1942.0Q5505 1942 5444.0 1916.5Q5383 1891 5355 1891Q5352 1891 5255.0 1926.5Q5158 1962 5091 1962H5069Q4957 1962 4878.5 1891.0Q4800 1820 4800.0 1689.0Q4800 1558 4886.0 1484.5Q4972 1411 5095 1384Q5132 1376 5218.0 1363.0Q5304 1350 5335 1336Q5389 1311 5389.0 1241.5Q5389 1172 5343.0 1132.5Q5297 1093 5233.5 1093.0Q5170 1093 5067.0 1140.0Q4964 1187 4936 1187ZM6454 1287Q6455 1126 6503 987Q6601 707 6847 597Q6978 538 7156.5 538.0Q7335 538 7432 582Q7475 601 7505.5 643.5Q7536 686 7536.0 727.5Q7536 769 7514.0 794.5Q7492 820 7479.0 820.0Q7466 820 7346 766Q7227 713 7134 713H7131Q6941 713 6823 844Q6755 919 6721 1032Q6687 1146 6686 1266Q6686 1640 6923 1741Q6999 1774 7094.0 1774.0Q7189 1774 7256.5 1717.5Q7324 1661 7324 1547Q7324 1469 7247 1387Q7223 1361 7223 1348Q7223 1308 7326.5 1308.0Q7430 1308 7491.0 1329.0Q7552 1350 7552 1390Q7552 1479 7526.5 1640.0Q7501 1801 7481 1834Q7448 1889 7359 1919Q7203 1972 7099 1972H7063Q6934 1972 6823 1926Q6593 1829 6504 1589Q6454 1454 6454 1327ZM7886 1432V1355Q7886 1216 7871.0 1151.5Q7856 1087 7856 1061Q7856 1000 7945.0 1000.0Q8034 1000 8074 1033Q8085 1042 8102.5 1068.0Q8120 1094 8134 1094Q8137 1094 8221.0 1043.0Q8305 992 8365 992H8380Q8429 992 8458.0 1015.5Q8487 1039 8487 1073V1086Q8487 1127 8458.5 1145.0Q8430 1163 8368 1163Q8227 1163 8162.5 1262.0Q8098 1361 8098 1612Q8098 1648 8110.5 1723.0Q8123 1798 8123.0 1836.0Q8123 1874 8082.0 1909.0Q8041 1944 7978 1944H7944Q7889 1944 7859.5 1917.5Q7830 1891 7830.0 1852.5Q7830 1814 7844 1774Q7882 1666 7882 1536Q7886 1464 7886 1432ZM8655 1053Q8655 990 8761 990H8784Q8850 990 8873.0 1043.0Q8896 1096 8896 1241L8884 1575Q8884 1808 9051 1808Q9112 1808 9168.0 1765.0Q9224 1722 9251 1662Q9310 1530 9310 1189L9308 1145V1106Q9308 1053 9332.0 1029.0Q9356 1005 9416.0 1005.0Q9476 1005 9495.0 1034.0Q9514 1063 9514 1128L9512 1181L9508 1417Q9508 1474 9515.0 1592.0Q9522 1710 9530.0 1764.5Q9538 1819 9538 1829Q9538 1918 9407 1918Q9362 1918 9317.5 1884.5Q9273 1851 9254.5 1851.0Q9236 1851 9192 1873Q9067 1936 8979 1936H8954Q8811 1936 8744.0 1848.0Q8677 1760 8677 1531L8687 1228Q8687 1171 8671.0 1119.0Q8655 1067 8655 1053ZM9969 1344V1360Q9969 1390 10024 1390H10048L10054 1389L10103 1385Q10180 1374 10203 1374Q10312 1374 10367 1333Q10393 1313 10393 1262V1251Q10393 1176 10343.5 1132.0Q10294 1088 10225 1088H10218L10212 1089Q10115 1089 10042.0 1171.0Q9969 1253 9969 1344ZM10187 1965H10165Q9974 1965 9861.0 1843.5Q9748 1722 9748 1519V1475Q9748 1378 9786 1278Q9863 1078 10037 1002Q10129 961 10224 961H10267Q10398 961 10488.5 1048.5Q10579 1136 10579 1274V1294Q10579 1392 10501 1433Q10447 1462 10249.0 1491.0Q10051 1520 10033 1526Q9973 1547 9973 1606Q9973 1688 10043.0 1746.0Q10113 1804 10231 1804Q10286 1804 10381.0 1774.0Q10476 1744 10491 1744Q10542 1744 10542 1788Q10542 1847 10427.0 1906.0Q10312 1965 10187 1965ZM11153 947H11179Q11310 947 11387.5 984.0Q11465 1021 11465.0 1094.5Q11465 1168 11400 1168Q11383 1168 11304.0 1127.5Q11225 1087 11155.0 1087.0Q11085 1087 11042.5 1118.5Q11000 1150 11000.0 1205.0Q11000 1260 11059 1301Q11093 1325 11219.5 1377.0Q11346 1429 11400 1477Q11487 1554 11487.0 1674.0Q11487 1794 11385.0 1879.5Q11283 1965 11120 1965H11094Q10930 1965 10848.0 1917.5Q10766 1870 10766.0 1793.5Q10766 1717 10830 1717Q10851 1717 10939.5 1771.0Q11028 1825 11113.5 1825.0Q11199 1825 11242.0 1788.5Q11285 1752 11285.0 1696.5Q11285 1641 11231 1599Q11202 1576 11065.0 1515.5Q10928 1455 10866.5 1393.5Q10805 1332 10805.0 1220.0Q10805 1108 10905.0 1027.5Q11005 947 11153 947ZM12017 1826H12043Q12125 1826 12187.5 1770.5Q12250 1715 12250 1642L12252 1629V1616L12254 1585V1528Q12254 1470 12195 1470H12150L12143 1471L12104 1474Q12076 1478 12064 1478Q11983 1478 11914 1539Q11866 1582 11866 1661V1681Q11866 1748 11909.5 1787.0Q11953 1826 12017 1826ZM11794 1187Q11727 1187 11727 1101Q11727 1037 11835.5 989.5Q11944 942 12061 942H12111Q12212 942 12289.0 979.5Q12366 1017 12406.5 1081.0Q12447 1145 12456 1248Q12458 1272 12458.0 1481.0Q12458 1690 12463.5 1721.5Q12469 1753 12495.5 1798.0Q12522 1843 12522.0 1872.0Q12522 1901 12494.5 1921.5Q12467 1942 12415.0 1942.0Q12363 1942 12302.0 1916.5Q12241 1891 12213 1891Q12210 1891 12113.0 1926.5Q12016 1962 11949 1962H11927Q11815 1962 11736.5 1891.0Q11658 1820 11658.0 1689.0Q11658 1558 11744.0 1484.5Q11830 1411 11953 1384Q11990 1376 12076.0 1363.0Q12162 1350 12193 1336Q12247 1311 12247.0 1241.5Q12247 1172 12201.0 1132.5Q12155 1093 12091.5 1093.0Q12028 1093 11925.0 1140.0Q11822 1187 11794 1187ZM14042 1954H13889L13864 1953L13559 1948Q13535 1947 13467 1947Q13329 1947 13328 1859Q13328 1843 13342.5 1811.0Q13357 1779 13365.5 1753.0Q13374 1727 13395.0 1523.0Q13416 1319 13416 976L13418 927V840Q13418 788 13395.5 725.5Q13373 663 13373.0 637.5Q13373 612 13402.0 580.5Q13431 549 13494 549H13542Q13619 549 13661.5 579.5Q13704 610 13704.0 643.5Q13704 677 13680.0 734.5Q13656 792 13648 869Q13616 1176 13616 1451L13614 1500L13613 1574Q13613 1730 13648.0 1761.0Q13683 1792 13816.0 1792.0Q13949 1792 14040 1763Q14058 1757 14110.0 1736.0Q14162 1715 14191 1715Q14250 1715 14250 1791Q14250 1890 14204.5 1922.0Q14159 1954 14042 1954ZM14752 652V664Q14752 715 14722.5 750.5Q14693 786 14632 786H14616L14585 782Q14558 782 14533.0 757.0Q14508 732 14508 682V670L14513 634Q14513 613 14538.5 582.0Q14564 551 14604 551L14627 548H14647L14675 552Q14701 552 14726.5 577.5Q14752 603 14752 652ZM14705 1074 14694 1343 14692 1370 14689 1452V1491Q14689 1635 14697.5 1680.0Q14706 1725 14730.0 1767.5Q14754 1810 14754 1829V1838Q14754 1887 14704.0 1916.0Q14654 1945 14568 1945H14543Q14493 1945 14467.0 1922.5Q14441 1900 14441 1874V1852Q14441 1839 14464.0 1759.5Q14487 1680 14487 1543Q14490 1504 14490 1489L14493 1434L14495 1407Q14500 1337 14500 1298L14501 1258Q14501 1183 14476.5 1125.0Q14452 1067 14452 1053Q14452 981 14588 981H14624Q14675 981 14690.0 1007.5Q14705 1034 14705 1074ZM15402 1825H15432Q15541 1825 15615.5 1716.5Q15690 1608 15690 1421V1389L15689 1378L15688 1357Q15687 1346 15687 1336Q15687 1239 15633.0 1165.5Q15579 1092 15501 1092H15472Q15423 1092 15364.5 1126.0Q15306 1160 15282 1206Q15229 1306 15229 1522V1614Q15232 1644 15232 1664Q15232 1736 15276.5 1780.5Q15321 1825 15402 1825ZM15271 946Q15271 984 15283.5 1003.0Q15296 1022 15350 1022Q15351 1022 15415.5 1007.0Q15480 992 15549 992Q15698 992 15798.0 1110.0Q15898 1228 15898 1398V1470Q15898 1554 15865 1648Q15831 1742 15769 1811Q15642 1951 15456 1951H15434Q15382 1951 15300.0 1931.0Q15218 1911 15193 1911L15126 1917Q15023 1917 15023 1814V1773Q15023 1712 15047.5 1328.0Q15072 944 15072.0 838.0Q15072 732 15055.0 662.0Q15038 592 15038 586Q15038 502 15133 502H15153Q15234 502 15256.0 540.5Q15278 579 15278 683L15273 842L15271 887ZM16173 1432V1355Q16173 1216 16158.0 1151.5Q16143 1087 16143 1061Q16143 1000 16232.0 1000.0Q16321 1000 16361 1033Q16372 1042 16389.5 1068.0Q16407 1094 16421 1094Q16424 1094 16508.0 1043.0Q16592 992 16652 992H16667Q16716 992 16745.0 1015.5Q16774 1039 16774 1073V1086Q16774 1127 16745.5 1145.0Q16717 1163 16655 1163Q16514 1163 16449.5 1262.0Q16385 1361 16385 1612Q16385 1648 16397.5 1723.0Q16410 1798 16410.0 1836.0Q16410 1874 16369.0 1909.0Q16328 1944 16265 1944H16231Q16176 1944 16146.5 1917.5Q16117 1891 16117.0 1852.5Q16117 1814 16131 1774Q16169 1666 16169 1536Q16173 1464 16173 1432ZM17106 1344V1360Q17106 1390 17161 1390H17185L17191 1389L17240 1385Q17317 1374 17340 1374Q17449 1374 17504 1333Q17530 1313 17530 1262V1251Q17530 1176 17480.5 1132.0Q17431 1088 17362 1088H17355L17349 1089Q17252 1089 17179.0 1171.0Q17106 1253 17106 1344ZM17324 1965H17302Q17111 1965 16998.0 1843.5Q16885 1722 16885 1519V1475Q16885 1378 16923 1278Q17000 1078 17174 1002Q17266 961 17361 961H17404Q17535 961 17625.5 1048.5Q17716 1136 17716 1274V1294Q17716 1392 17638 1433Q17584 1462 17386.0 1491.0Q17188 1520 17170 1526Q17110 1547 17110 1606Q17110 1688 17180.0 1746.0Q17250 1804 17368 1804Q17423 1804 17518.0 1774.0Q17613 1744 17628 1744Q17679 1744 17679 1788Q17679 1847 17564.0 1906.0Q17449 1965 17324 1965Z" fill="currentColor" /></svg>