<svg viewBox="0 0 16525 2293" xmlns="http://www.w3.org/2000/svg"><path d="M857 1235V1229Q857 1135 696 759Q668 694 667 694L638 761Q472 1148 472 1231Q472 1245 489.5 1246.0Q507 1247 516 1247L594 1249H665L672 1248Q857 1248 857 1235ZM23 1768Q23 1743 80.0 1710.0Q137 1677 164.0 1626.0Q191 1575 240.0 1441.5Q289 1308 373.5 1105.0Q458 902 507.5 740.5Q557 579 575 536Q616 438 691 438H719Q738 438 766 459Q823 502 885 643Q906 691 948.0 807.5Q990 924 1116.0 1263.0Q1242 1602 1257 1632Q1282 1684 1342.0 1715.5Q1402 1747 1402 1766Q1402 1808 1352 1818Q1318 1825 1180 1825L1122 1826Q937 1826 937 1776Q937 1767 960.5 1733.0Q984 1699 984.0 1647.0Q984 1595 946.5 1498.0Q909 1401 883.5 1378.0Q858 1355 666.0 1355.0Q474 1355 442.0 1376.0Q410 1397 373.0 1489.0Q336 1581 336.0 1638.5Q336 1696 371.5 1740.0Q407 1784 407 1786Q407 1822 284.5 1822.0Q162 1822 92.5 1812.5Q23 1803 23 1768ZM1960 1841H1937Q1890 1841 1844 1754Q1821 1710 1703.0 1409.0Q1585 1108 1559.0 1061.5Q1533 1015 1478.0 978.5Q1423 942 1423 923Q1423 892 1467.0 883.0Q1511 874 1668.0 874.0Q1825 874 1825 919Q1825 922 1814.0 951.5Q1803 981 1803 1016Q1803 1153 1959 1514Q1988 1580 2000.0 1580.0Q2012 1580 2039 1520Q2200 1164 2200 1026Q2200 992 2174.0 954.0Q2148 916 2148 915Q2148 872 2334 872H2358Q2480 872 2480 914Q2480 950 2427.0 984.5Q2374 1019 2346 1070Q2333 1093 2213.0 1390.5Q2093 1688 2051.0 1764.5Q2009 1841 1960 1841ZM3208 1178V1147Q3208 1073 3155.0 1013.5Q3102 954 3025 954H3006Q2992 956 2987 956Q2917 956 2854.5 1036.0Q2792 1116 2792 1207V1220Q2792 1252 2830 1252Q2845 1255 2846 1255L2869 1256H2875L2882 1255L3075 1244L3111 1240Q3208 1240 3208 1178ZM2792 1443Q2792 1557 2878.0 1634.0Q2964 1711 3096 1711Q3149 1711 3192.5 1695.5Q3236 1680 3287.5 1658.0Q3339 1636 3352 1636Q3392 1636 3392 1679Q3392 1737 3244 1803Q3148 1846 3038 1846H3016Q2828 1846 2704 1732Q2637 1670 2600.0 1573.5Q2563 1477 2563 1366L2564 1343V1320Q2564 1224 2608 1131Q2653 1038 2715 978Q2846 852 3026 851Q3298 851 3388 1063Q3416 1130 3416 1186V1206Q3416 1275 3359.0 1298.5Q3302 1322 3090.0 1337.0Q2878 1352 2860 1357Q2792 1374 2792 1443ZM4099 1789Q4099 1828 3918 1828H3812L3770 1826L3707 1825Q3601 1825 3601 1787Q3601 1760 3648.5 1729.5Q3696 1699 3712.5 1650.5Q3729 1602 3729.0 1364.0Q3729 1126 3713.5 1075.0Q3698 1024 3665 1002Q3606 963 3606.0 945.0Q3606 927 3627 913Q3689 871 3837 871H3856Q3913 871 3937.0 928.5Q3961 986 3976.0 986.0Q3991 986 4027.5 958.0Q4064 930 4115.5 902.0Q4167 874 4230.0 874.0Q4293 874 4326.5 906.5Q4360 939 4360 990Q4359 1042 4333.0 1068.0Q4307 1094 4277.0 1094.0Q4247 1094 4198.0 1069.5Q4149 1045 4116.0 1045.0Q4083 1045 4044.0 1072.5Q4005 1100 3977.5 1170.5Q3950 1241 3950.0 1411.5Q3950 1582 3974.0 1631.5Q3998 1681 4048.5 1722.0Q4099 1763 4099 1789ZM4861 544Q4861 588 4823.5 625.5Q4786 663 4749 663Q4741 665 4736 665L4714 667Q4664 667 4624.5 634.0Q4585 601 4585 549V531Q4585 479 4626.5 443.5Q4668 408 4722 408H4727L4761 412Q4792 412 4825.5 445.5Q4859 479 4859 513L4861 522ZM4512 908Q4585 864 4743 864H4772Q4826 864 4833 914Q4837 941 4837.0 1277.5Q4837 1614 4851.0 1663.5Q4865 1713 4918.0 1739.5Q4971 1766 4971 1793Q4971 1831 4723 1831L4693 1832H4571Q4498 1832 4498 1796Q4498 1766 4542.5 1738.0Q4587 1710 4604 1676Q4623 1639 4623 1503L4624 1471V1440L4625 1393V1362L4626 1331Q4626 1094 4610.5 1054.5Q4595 1015 4543.0 990.0Q4491 965 4491.0 943.0Q4491 921 4512 908ZM5659 1365H5642Q5511 1365 5423.5 1423.5Q5336 1482 5336 1569V1589Q5336 1640 5367.5 1680.5Q5399 1721 5449 1721L5461 1723H5491Q5595 1723 5661 1638Q5690 1601 5690 1486Q5690 1477 5690 1468L5691 1444V1420Q5691 1365 5659 1365ZM5173 1042Q5173 968 5290.5 909.5Q5408 851 5534 851Q5538 851 5542 851Q5662 851 5734 880Q5880 938 5901 1126Q5903 1145 5903.0 1377.5Q5903 1610 5915.5 1650.0Q5928 1690 5983.5 1709.0Q6039 1728 6039 1745Q6039 1781 6003 1800Q5931 1838 5861.5 1838.0Q5792 1838 5758 1806Q5697 1749 5693.0 1749.0Q5689 1749 5580.0 1799.5Q5471 1850 5389 1850Q5266 1850 5196.0 1782.0Q5126 1714 5126 1617V1592Q5126 1488 5216.0 1409.0Q5306 1330 5540 1286Q5625 1270 5647 1256Q5691 1228 5691.0 1142.0Q5691 1056 5645.0 1010.0Q5599 964 5522.0 964.0Q5445 964 5373.5 1053.5Q5302 1143 5243 1143Q5173 1143 5173 1042ZM7062 906Q7120 951 7299.0 1028.0Q7478 1105 7548 1170Q7682 1294 7682 1428V1464Q7682 1630 7550 1734Q7489 1782 7398.0 1810.5Q7307 1839 7216 1839H7179Q6973 1839 6818 1777Q6748 1749 6748 1624V1589Q6748 1441 6799 1441Q6834 1441 6894.0 1536.0Q6954 1631 7032.5 1679.0Q7111 1727 7222.0 1727.0Q7333 1727 7401.0 1668.5Q7469 1610 7469 1524Q7469 1406 7359 1325Q7312 1291 7123.0 1203.5Q6934 1116 6861 1040Q6761 936 6761.0 786.0Q6761 636 6868 537Q6927 482 7015.0 451.5Q7103 421 7195 421H7232Q7270 421 7340 434L7375 441Q7437 453 7442 454L7473 456L7503 457Q7545 460 7562 467Q7621 491 7621.0 634.0Q7621 777 7565 777Q7537 777 7481.0 697.0Q7425 617 7382 588Q7300 532 7197.5 532.0Q7095 532 7030.0 585.5Q6965 639 6965.0 735.5Q6965 832 7062 906ZM8496 1178V1147Q8496 1073 8443.0 1013.5Q8390 954 8313 954H8294Q8280 956 8275 956Q8205 956 8142.5 1036.0Q8080 1116 8080 1207V1220Q8080 1252 8118 1252Q8133 1255 8134 1255L8157 1256H8163L8170 1255L8363 1244L8399 1240Q8496 1240 8496 1178ZM8080 1443Q8080 1557 8166.0 1634.0Q8252 1711 8384 1711Q8437 1711 8480.5 1695.5Q8524 1680 8575.5 1658.0Q8627 1636 8640 1636Q8680 1636 8680 1679Q8680 1737 8532 1803Q8436 1846 8326 1846H8304Q8116 1846 7992 1732Q7925 1670 7888.0 1573.5Q7851 1477 7851 1366L7852 1343V1320Q7852 1224 7896 1131Q7941 1038 8003 978Q8134 852 8314 851Q8586 851 8676 1063Q8704 1130 8704 1186V1206Q8704 1275 8647.0 1298.5Q8590 1322 8378.0 1337.0Q8166 1352 8148 1357Q8080 1374 8080 1443ZM9387 1789Q9387 1828 9206 1828H9100L9058 1826L8995 1825Q8889 1825 8889 1787Q8889 1760 8936.5 1729.5Q8984 1699 9000.5 1650.5Q9017 1602 9017.0 1364.0Q9017 1126 9001.5 1075.0Q8986 1024 8953 1002Q8894 963 8894.0 945.0Q8894 927 8915 913Q8977 871 9125 871H9144Q9201 871 9225.0 928.5Q9249 986 9264.0 986.0Q9279 986 9315.5 958.0Q9352 930 9403.5 902.0Q9455 874 9518.0 874.0Q9581 874 9614.5 906.5Q9648 939 9648 990Q9647 1042 9621.0 1068.0Q9595 1094 9565.0 1094.0Q9535 1094 9486.0 1069.5Q9437 1045 9404.0 1045.0Q9371 1045 9332.0 1072.5Q9293 1100 9265.5 1170.5Q9238 1241 9238.0 1411.5Q9238 1582 9262.0 1631.5Q9286 1681 9336.5 1722.0Q9387 1763 9387 1789ZM10149 544Q10149 588 10111.5 625.5Q10074 663 10037 663Q10029 665 10024 665L10002 667Q9952 667 9912.5 634.0Q9873 601 9873 549V531Q9873 479 9914.5 443.5Q9956 408 10010 408H10015L10049 412Q10080 412 10113.5 445.5Q10147 479 10147 513L10149 522ZM9800 908Q9873 864 10031 864H10060Q10114 864 10121 914Q10125 941 10125.0 1277.5Q10125 1614 10139.0 1663.5Q10153 1713 10206.0 1739.5Q10259 1766 10259 1793Q10259 1831 10011 1831L9981 1832H9859Q9786 1832 9786 1796Q9786 1766 9830.5 1738.0Q9875 1710 9892 1676Q9911 1639 9911 1503L9912 1471V1440L9913 1393V1362L9914 1331Q9914 1094 9898.5 1054.5Q9883 1015 9831.0 990.0Q9779 965 9779.0 943.0Q9779 921 9800 908ZM10777 1851H10722Q10429 1851 10429 1806Q10429 1780 10478.5 1749.0Q10528 1718 10543.5 1663.5Q10559 1609 10559.0 1355.0Q10559 1101 10544.5 1066.0Q10530 1031 10491.0 1004.5Q10452 978 10452.0 956.5Q10452 935 10496.5 879.5Q10541 824 10559 746Q10605 552 10686 464Q10789 351 10975 351Q11065 351 11119.0 382.5Q11173 414 11173.0 464.0Q11173 514 11146.5 538.0Q11120 562 11090.5 562.0Q11061 562 10994.5 526.0Q10928 490 10894 490Q10839 490 10809.5 558.5Q10780 627 10780.0 709.0Q10780 791 10814 829Q10826 842 10903.0 881.5Q10980 921 10980 951Q10980 974 10901.0 997.5Q10822 1021 10803 1049Q10771 1096 10771.0 1352.5Q10771 1609 10789.5 1661.0Q10808 1713 10862.0 1752.0Q10916 1791 10916 1812Q10916 1851 10777 1851ZM12353 1830H12323L12293 1829H12144Q11789 1829 11761 1824Q11709 1815 11709 1780Q11709 1765 11763.5 1727.0Q11818 1689 11834.5 1617.5Q11851 1546 11851.0 1092.0Q11851 638 11839.5 598.5Q11828 559 11781 539Q11707 507 11707.0 471.0Q11707 435 11819 435H11879L11908 436L11998 437Q12240 437 12240 473Q12240 485 12169 554Q12129 593 12111.5 687.5Q12094 782 12094.0 1191.0Q12094 1600 12106.5 1638.0Q12119 1676 12165 1691Q12193 1700 12275 1700Q12452 1700 12540 1654Q12590 1628 12648.0 1547.0Q12706 1466 12738.5 1466.0Q12771 1466 12771 1508V1534Q12771 1754 12717 1803Q12687 1830 12353 1830ZM13274 544Q13274 588 13236.5 625.5Q13199 663 13162 663Q13154 665 13149 665L13127 667Q13077 667 13037.5 634.0Q12998 601 12998 549V531Q12998 479 13039.5 443.5Q13081 408 13135 408H13140L13174 412Q13205 412 13238.5 445.5Q13272 479 13272 513L13274 522ZM12925 908Q12998 864 13156 864H13185Q13239 864 13246 914Q13250 941 13250.0 1277.5Q13250 1614 13264.0 1663.5Q13278 1713 13331.0 1739.5Q13384 1766 13384 1793Q13384 1831 13136 1831L13106 1832H12984Q12911 1832 12911 1796Q12911 1766 12955.5 1738.0Q13000 1710 13017 1676Q13036 1639 13036 1503L13037 1471V1440L13038 1393V1362L13039 1331Q13039 1094 13023.5 1054.5Q13008 1015 12956.0 990.0Q12904 965 12904.0 943.0Q12904 921 12925 908ZM14076 976H14047Q13994 976 13943.5 1005.5Q13893 1035 13865.5 1078.0Q13838 1121 13838 1324V1483Q13838 1631 13883.0 1687.5Q13928 1744 14038 1744H14059Q14165 1744 14230.0 1643.5Q14295 1543 14295 1415L14297 1392V1321Q14297 1174 14233.0 1075.0Q14169 976 14076 976ZM13610 1709Q13610 1698 13621.5 1608.0Q13633 1518 13633 1390V1102L13634 1053V853L13633 804V755L13632 731Q13631 706 13631 648Q13631 529 13567.5 499.0Q13504 469 13504 441Q13504 420 13533 406Q13605 371 13754 371Q13814 371 13831 439Q13841 478 13841.0 710.0Q13841 942 13878 942Q13901 942 13980.0 910.0Q14059 878 14145 878Q14310 878 14418.5 1004.0Q14527 1130 14527 1333V1359Q14527 1457 14492 1549Q14423 1729 14259 1802Q14171 1841 14078 1841H14054Q14015 1841 13935.0 1822.0Q13855 1803 13776 1803L13694 1810Q13610 1810 13610 1709ZM15210 1789Q15210 1828 15029 1828H14923L14881 1826L14818 1825Q14712 1825 14712 1787Q14712 1760 14759.5 1729.5Q14807 1699 14823.5 1650.5Q14840 1602 14840.0 1364.0Q14840 1126 14824.5 1075.0Q14809 1024 14776 1002Q14717 963 14717.0 945.0Q14717 927 14738 913Q14800 871 14948 871H14967Q15024 871 15048.0 928.5Q15072 986 15087.0 986.0Q15102 986 15138.5 958.0Q15175 930 15226.5 902.0Q15278 874 15341.0 874.0Q15404 874 15437.5 906.5Q15471 939 15471 990Q15470 1042 15444.0 1068.0Q15418 1094 15388.0 1094.0Q15358 1094 15309.0 1069.5Q15260 1045 15227.0 1045.0Q15194 1045 15155.0 1072.5Q15116 1100 15088.5 1170.5Q15061 1241 15061.0 1411.5Q15061 1582 15085.0 1631.5Q15109 1681 15159.5 1722.0Q15210 1763 15210 1789ZM16222 1178V1147Q16222 1073 16169.0 1013.5Q16116 954 16039 954H16020Q16006 956 16001 956Q15931 956 15868.5 1036.0Q15806 1116 15806 1207V1220Q15806 1252 15844 1252Q15859 1255 15860 1255L15883 1256H15889L15896 1255L16089 1244L16125 1240Q16222 1240 16222 1178ZM15806 1443Q15806 1557 15892.0 1634.0Q15978 1711 16110 1711Q16163 1711 16206.5 1695.5Q16250 1680 16301.5 1658.0Q16353 1636 16366 1636Q16406 1636 16406 1679Q16406 1737 16258 1803Q16162 1846 16052 1846H16030Q15842 1846 15718 1732Q15651 1670 15614.0 1573.5Q15577 1477 15577 1366L15578 1343V1320Q15578 1224 15622 1131Q15667 1038 15729 978Q15860 852 16040 851Q16312 851 16402 1063Q16430 1130 16430 1186V1206Q16430 1275 16373.0 1298.5Q16316 1322 16104.0 1337.0Q15892 1352 15874 1357Q15806 1374 15806 1443Z" fill="currentColor" /></svg>