<svg viewBox="0 0 3310 1216" xmlns="http://www.w3.org/2000/svg"><path d="M3 956 0 927Q47 918 67.0 907.5Q87 897 93 878L292 269L376 259L609 884Q616 901 632.5 910.0Q649 919 694 927L691 956Q658 954 626.0 953.5Q594 953 558 953Q479 953 417 956L414 927Q466 917 484.0 909.0Q502 901 502 889L447 711H221L167 889Q167 901 186.0 909.0Q205 917 253 927L250 956Q217 954 185.0 953.5Q153 953 117 953Q86 953 64.0 953.5Q42 954 3 956ZM235 665H431L330 363H326ZM756 556Q756 560 785.5 643.5Q815 727 864 887Q917 725 945.0 642.5Q973 560 973 555Q973 533 918 526L915 497Q915 497 937.0 498.5Q959 500 987 500Q1006 500 1029.5 499.0Q1053 498 1071.0 497.5Q1089 497 1089 497L1092 526Q1057 531 1045.0 540.5Q1033 550 1028 566L892 953L817 962L680 567Q676 556 664.0 543.5Q652 531 619 526L616 497Q616 497 634.0 497.5Q652 498 676.0 499.0Q700 500 718 500Q737 500 760.0 499.0Q783 498 799.5 497.5Q816 497 816 497L819 526Q786 530 771.0 539.0Q756 548 756 556ZM1471 870 1483 900Q1452 925 1410.5 943.5Q1369 962 1319 962Q1245 962 1197.5 932.5Q1150 903 1127.5 854.0Q1105 805 1105 746Q1105 698 1118.5 653.0Q1132 608 1160.0 572.0Q1188 536 1234.0 514.5Q1280 493 1344 493Q1380 493 1415.0 510.0Q1450 527 1473.0 564.5Q1496 602 1496 664L1462 705Q1458 704 1448.5 704.0Q1439 704 1425 704Q1400 704 1366.0 704.5Q1332 705 1297.0 706.0Q1262 707 1233.0 708.5Q1204 710 1190 711V720Q1190 814 1229.5 858.0Q1269 902 1332 902Q1369 902 1402.0 894.0Q1435 886 1471 870ZM1406 633Q1406 599 1392.5 579.5Q1379 560 1359.5 551.0Q1340 542 1322 542Q1273 542 1240.0 580.5Q1207 619 1196 670L1403 662Q1406 647 1406 633ZM1687 494 1706 503Q1705 514 1704.5 536.5Q1704 559 1704 585Q1726 548 1755.5 527.0Q1785 506 1810.5 496.5Q1836 487 1846 487Q1851 487 1861.5 497.5Q1872 508 1882.5 524.0Q1893 540 1897 557L1882 576Q1869 571 1851.0 566.5Q1833 562 1813 562Q1787 562 1762.0 574.5Q1737 587 1720.5 616.5Q1704 646 1704 699Q1704 781 1705.5 823.5Q1707 866 1709.5 882.0Q1712 898 1713 904Q1715 912 1743.0 918.5Q1771 925 1799 927L1796 956Q1780 955 1756.0 954.5Q1732 954 1708.0 953.5Q1684 953 1667 953Q1642 953 1609.5 953.5Q1577 954 1553 956L1556 927Q1567 926 1581.5 923.0Q1596 920 1608.0 915.0Q1620 910 1621 905Q1621 905 1623.0 890.0Q1625 875 1627.0 836.0Q1629 797 1629 724Q1629 651 1627.0 615.5Q1625 580 1623.0 568.5Q1621 557 1621 557L1557 538L1555 512Q1573 512 1597.5 509.5Q1622 507 1646.0 502.5Q1670 498 1687 494ZM2341 901 2351 927Q2313 962 2268 962Q2243 962 2223.0 946.5Q2203 931 2198 897Q2161 925 2124.5 943.5Q2088 962 2046 962Q2006 962 1974.5 937.0Q1943 912 1943 858Q1943 822 1966.0 787.5Q1989 753 2044.5 728.5Q2100 704 2195 698V605Q2195 576 2173.5 561.5Q2152 547 2122 547Q2078 547 2057.0 568.0Q2036 589 2036 620Q2036 632 2039 647L2017 657Q1996 646 1979.0 626.5Q1962 607 1962 599Q1962 592 1974.5 575.0Q1987 558 2012.0 539.0Q2037 520 2073.0 506.5Q2109 493 2156 493Q2187 493 2212.5 502.0Q2238 511 2253.0 534.0Q2268 557 2268 600Q2268 610 2268.5 636.0Q2269 662 2270.0 696.0Q2271 730 2271.5 764.5Q2272 799 2273.0 825.0Q2274 851 2274 861Q2275 888 2285.5 898.5Q2296 909 2310 909Q2316 909 2324.0 907.0Q2332 905 2341 901ZM2195 859V743Q2107 745 2067.0 776.0Q2027 807 2027 842Q2027 872 2045.0 887.0Q2063 902 2092 902Q2114 902 2140.5 891.5Q2167 881 2195 859ZM2715 524Q2721 515 2734.5 499.0Q2748 483 2764.5 470.0Q2781 457 2795 457Q2800 457 2810.5 467.5Q2821 478 2831.5 494.0Q2842 510 2846 527L2831 546Q2824 542 2812.5 539.5Q2801 537 2787 537Q2777 537 2765.0 539.5Q2753 542 2741 548Q2758 568 2767.0 596.5Q2776 625 2776 665Q2776 704 2757.5 742.0Q2739 780 2699.0 805.0Q2659 830 2594 830Q2571 830 2550 827Q2533 849 2523.0 865.5Q2513 882 2513 893Q2513 906 2528.5 911.0Q2544 916 2578 916H2653Q2749 916 2795.5 948.0Q2842 980 2842 1038Q2842 1079 2810.0 1120.5Q2778 1162 2716.0 1189.0Q2654 1216 2564 1216Q2519 1216 2477.5 1206.0Q2436 1196 2409.0 1175.0Q2382 1154 2382 1122Q2382 1094 2407.0 1056.0Q2432 1018 2485 975Q2454 968 2438.0 955.0Q2422 942 2422 926Q2422 906 2448.5 878.0Q2475 850 2512 820Q2464 805 2437.5 767.0Q2411 729 2411 659Q2411 620 2430.0 582.0Q2449 544 2489.5 519.0Q2530 494 2594 494Q2630 494 2661.0 500.5Q2692 507 2715 524ZM2690 675Q2690 642 2683.0 610.0Q2676 578 2655.5 556.5Q2635 535 2595 535Q2564 535 2544.0 549.0Q2524 563 2514.0 583.5Q2504 604 2500.0 624.5Q2496 645 2496 659Q2496 689 2504.5 719.0Q2513 749 2534.0 769.0Q2555 789 2591 789Q2630 789 2651.0 769.0Q2672 749 2680.5 722.0Q2689 695 2690 675ZM2466 1089Q2466 1126 2494.0 1151.0Q2522 1176 2580 1176Q2634 1176 2674.0 1155.5Q2714 1135 2736.0 1104.5Q2758 1074 2758 1046Q2758 1018 2734.0 998.0Q2710 978 2651 978H2516Q2491 1006 2478.5 1034.5Q2466 1063 2466 1089ZM3254 870 3266 900Q3235 925 3193.5 943.5Q3152 962 3102 962Q3028 962 2980.5 932.5Q2933 903 2910.5 854.0Q2888 805 2888 746Q2888 698 2901.5 653.0Q2915 608 2943.0 572.0Q2971 536 3017.0 514.5Q3063 493 3127 493Q3163 493 3198.0 510.0Q3233 527 3256.0 564.5Q3279 602 3279 664L3245 705Q3241 704 3231.5 704.0Q3222 704 3208 704Q3183 704 3149.0 704.5Q3115 705 3080.0 706.0Q3045 707 3016.0 708.5Q2987 710 2973 711V720Q2973 814 3012.5 858.0Q3052 902 3115 902Q3152 902 3185.0 894.0Q3218 886 3254 870ZM3189 633Q3189 599 3175.5 579.5Q3162 560 3142.5 551.0Q3123 542 3105 542Q3056 542 3023.0 580.5Q2990 619 2979 670L3186 662Q3189 647 3189 633Z" fill="currentColor" /></svg>