<svg viewBox="0 0 5398 1296" xmlns="http://www.w3.org/2000/svg"><path d="M518 1027 439 802H178L99 1027H10L260 336H363L613 1027ZM414 729 327 480 311 424H307L291 480L204 729ZM856 1027H762L603 571H689L807 936H811L929 571H1015ZM1275 969Q1347 969 1419 926L1448 986Q1364 1039 1268.5 1039.0Q1173 1039 1117.0 978.5Q1061 918 1061.0 804.0Q1061 690 1119.0 624.5Q1177 559 1273 559Q1360 559 1410 613Q1431 635 1445.5 677.0Q1460 719 1460 776L1429 811H1146Q1149 969 1275 969ZM1150 748H1376Q1376 692 1347.0 658.0Q1318 624 1270.5 624.0Q1223 624 1190.0 657.5Q1157 691 1150 748ZM1565 571H1619L1644 651H1648Q1703 580 1799 565L1808 644Q1761 647 1717.0 668.0Q1673 689 1650 724V1027H1565ZM2130 754V710Q2130 629 2046 629Q1980 629 1908 672L1879 612Q1963 559 2060 559Q2128 559 2171.5 593.5Q2215 628 2215 700V1027H2161L2136 967Q2104 1000 2060.0 1019.5Q2016 1039 1980 1039Q1918 1039 1881.0 1005.0Q1844 971 1844 916Q1844 754 2130 754ZM1999 969Q2062 969 2130 913V813Q2004 815 1964 851Q1945 868 1938.5 881.5Q1932 895 1932.0 916.5Q1932 938 1950.5 953.5Q1969 969 1999 969ZM2504 898Q2481 898 2460 895Q2435 943 2435 958Q2435 965 2453 970L2575 997Q2660 1016 2696.0 1041.5Q2732 1067 2732.0 1117.0Q2732 1167 2697 1201Q2629 1269 2497 1269Q2416 1269 2357.0 1239.0Q2298 1209 2298.0 1153.0Q2298 1097 2378 1024Q2348 1013 2348.0 991.0Q2348 969 2407 882Q2321 845 2321 727Q2321 661 2367.5 611.5Q2414 562 2504 562Q2556 562 2595 577L2735 561V628H2660Q2686 670 2686.0 734.5Q2686 799 2640.0 848.5Q2594 898 2504 898ZM2606 742Q2606 618 2505 618Q2465 618 2440 639Q2401 673 2401.0 723.5Q2401 774 2425.0 808.0Q2449 842 2502.0 842.0Q2555 842 2580.5 809.5Q2606 777 2606 742ZM2378 1140Q2378 1172 2413.0 1189.0Q2448 1206 2504.0 1206.0Q2560 1206 2608.0 1183.5Q2656 1161 2656 1122Q2656 1102 2633.0 1089.5Q2610 1077 2553 1065L2436 1039Q2378 1097 2378 1140ZM3007 969Q3079 969 3151 926L3180 986Q3096 1039 3000.5 1039.0Q2905 1039 2849.0 978.5Q2793 918 2793.0 804.0Q2793 690 2851.0 624.5Q2909 559 3005 559Q3092 559 3142 613Q3163 635 3177.5 677.0Q3192 719 3192 776L3161 811H2878Q2881 969 3007 969ZM2882 748H3108Q3108 692 3079.0 658.0Q3050 624 3002.5 624.0Q2955 624 2922.0 657.5Q2889 691 2882 748ZM3907 422Q3837 398 3777.0 398.0Q3717 398 3679.0 429.0Q3641 460 3641 504Q3641 567 3708 603L3849 681Q3967 747 3967 851Q3967 937 3906.0 988.0Q3845 1039 3734.0 1039.0Q3623 1039 3535 999L3560 929Q3642 965 3721.5 965.0Q3801 965 3839.0 934.0Q3877 903 3877 859Q3877 796 3810 760L3669 682Q3551 616 3551 512Q3551 426 3612.0 375.0Q3673 324 3776 324Q3846 324 3933 353ZM4329 754V710Q4329 629 4245 629Q4179 629 4107 672L4078 612Q4162 559 4259 559Q4327 559 4370.5 593.5Q4414 628 4414 700V1027H4360L4335 967Q4303 1000 4259.0 1019.5Q4215 1039 4179 1039Q4117 1039 4080.0 1005.0Q4043 971 4043 916Q4043 754 4329 754ZM4198 969Q4261 969 4329 913V813Q4203 815 4163 851Q4144 868 4137.5 881.5Q4131 895 4131.0 916.5Q4131 938 4149.5 953.5Q4168 969 4198 969ZM4946 682V1027H4861V686Q4861 660 4840.5 646.0Q4820 632 4786 632Q4715 632 4639 683V1027H4554V571H4608L4633 623Q4710 559 4800 559Q4867 559 4906.5 593.0Q4946 627 4946 682ZM5320 651Q5269 629 5224 629Q5137 629 5137 682Q5137 728 5253 771Q5296 787 5332.5 821.0Q5369 855 5369 903Q5369 972 5324.0 1005.5Q5279 1039 5199.0 1039.0Q5119 1039 5043 995L5068 933Q5131 969 5211 969Q5245 969 5266.0 954.5Q5287 940 5287.0 915.0Q5287 890 5263.0 872.0Q5239 854 5205.0 840.0Q5171 826 5137.0 809.5Q5103 793 5079.0 763.0Q5055 733 5055 692Q5055 628 5098.5 593.5Q5142 559 5209.0 559.0Q5276 559 5345 589Z" fill="currentColor" /></svg>