<svg viewBox="0 0 7150 1167" xmlns="http://www.w3.org/2000/svg"><path d="M143 720V675H507V720ZM296 239H354L609 937H559L367 409L326 290L284 411L92 937H41ZM746 937V903L1061 535L1150 430L1013 431H763V393H1208V427L895 794L803 900L941 899H1208V937ZM1630 949Q1549 949 1490.0 914.5Q1431 880 1399.5 816.0Q1368 752 1368 664Q1368 578 1399.5 514.5Q1431 451 1490.0 416.0Q1549 381 1630 381Q1747 381 1811.5 444.5Q1876 508 1871 621H1405V578L1823 580Q1819 506 1767.5 464.5Q1716 423 1630 423Q1530 423 1472.5 487.5Q1415 552 1415 663Q1415 738 1441.0 793.0Q1467 848 1515.0 877.5Q1563 907 1630 907Q1712 907 1767.0 868.0Q1822 829 1835 762H1881Q1864 849 1797.0 899.0Q1730 949 1630 949ZM2456 588V531Q2456 482 2423.5 452.5Q2391 423 2333 423Q2254 423 2196.5 486.0Q2139 549 2117 665L2104 592Q2122 523 2154.5 476.0Q2187 429 2232.5 405.0Q2278 381 2333 381Q2410 381 2456.0 422.0Q2502 463 2502 531V588ZM2083 937V393H2122L2129 543V937ZM2930 949Q2849 949 2790.0 914.5Q2731 880 2699.5 816.0Q2668 752 2668 664Q2668 578 2699.5 514.5Q2731 451 2790.0 416.0Q2849 381 2930 381Q3047 381 3111.5 444.5Q3176 508 3171 621H2705V578L3123 580Q3119 506 3067.5 464.5Q3016 423 2930 423Q2830 423 2772.5 487.5Q2715 552 2715 663Q2715 738 2741.0 793.0Q2767 848 2815.0 877.5Q2863 907 2930 907Q3012 907 3067.0 868.0Q3122 829 3135 762H3181Q3164 849 3097.0 899.0Q3030 949 2930 949ZM3620 937Q3573 937 3544.0 921.5Q3515 906 3501.5 875.5Q3488 845 3488 801V278L3534 238V801Q3534 824 3540.5 847.0Q3547 870 3568.0 884.5Q3589 899 3631 899H3820V937ZM3338 431V393H3744V431ZM4586 937 4643 239H4712L4851 774L4874 865L4897 774L5042 239H5108L5166 937H5119L5075 409L5068 295L5040 409L4900 937H4846L4709 409L4684 292L4675 409L4632 937ZM5524 949Q5442 949 5383.0 914.5Q5324 880 5292.5 816.0Q5261 752 5261 665Q5261 577 5292.5 513.5Q5324 450 5383.0 415.5Q5442 381 5524 381Q5647 381 5717.5 457.0Q5788 533 5788 665Q5788 752 5756.0 816.0Q5724 880 5665.0 914.5Q5606 949 5524 949ZM5524 907Q5625 907 5683.0 842.0Q5741 777 5741 665Q5741 552 5683.0 487.5Q5625 423 5524 423Q5423 423 5365.5 487.5Q5308 552 5308 665Q5308 777 5365.5 842.0Q5423 907 5524 907ZM6362 937V587Q6362 513 6318.0 468.0Q6274 423 6203 423Q6123 423 6062.0 484.5Q6001 546 5984 667L5973 573Q5998 483 6060.5 432.0Q6123 381 6205 381Q6266 381 6311.5 407.0Q6357 433 6382.5 479.5Q6408 526 6408 588V937ZM5948 937V393H5989L5994 542V937ZM6824 949Q6742 949 6683.0 914.5Q6624 880 6592.5 816.0Q6561 752 6561 665Q6561 577 6592.5 513.5Q6624 450 6683.0 415.5Q6742 381 6824 381Q6947 381 7017.5 457.0Q7088 533 7088 665Q7088 752 7056.0 816.0Q7024 880 6965.0 914.5Q6906 949 6824 949ZM6824 907Q6925 907 6983.0 842.0Q7041 777 7041 665Q7041 552 6983.0 487.5Q6925 423 6824 423Q6723 423 6665.5 487.5Q6608 552 6608 665Q6608 777 6665.5 842.0Q6723 907 6824 907Z" fill="currentColor" /></svg>