<svg viewBox="0 0 3410 1062" xmlns="http://www.w3.org/2000/svg"><path d="M185 792Q171 789 171 763Q171 762 176.5 758.5Q182 755 182 754V751Q182 746 181.0 735.0Q180 724 180 718Q180 704 187 686Q190 678 193.0 670.0Q196 662 198 654H196Q194 654 188.0 656.0Q182 658 180 658Q179 658 178.5 657.0Q178 656 177 656Q176 655 170 658L105 675Q97 676 86.5 678.5Q76 681 62 685Q62 682 61 681Q61 683 59 683Q58 683 58 682H57Q50 682 45 687L43 685Q42 685 40.0 686.0Q38 687 37 687Q36 687 34 685Q35 686 25 686Q15 683 11.0 678.5Q7 674 3 668L5 665Q1 662 1 657Q1 655 0.5 654.0Q0 653 0 652Q0 643 11 643Q17 643 23 646L32 658Q33 658 35.5 659.5Q38 661 40 661Q41 661 43.0 659.5Q45 658 47 658Q50 658 51 661Q54 659 54 657Q57 658 60.0 658.0Q63 658 66 658Q71 658 80.5 655.0Q90 652 90 652Q91 652 91 654L109 649Q134 649 149 642Q170 639 174 636Q177 633 183 632Q188 633 191.0 633.0Q194 633 195 633Q206 633 215 624Q216 616 221 611Q222 606 224.5 599.0Q227 592 231 584Q233 572 259 524Q261 522 262.5 519.5Q264 517 266 513Q267 512 267 505Q281 490 285 466Q287 463 290.5 456.0Q294 449 301 441Q301 436 302 433L307 426Q320 403 328.5 386.0Q337 369 341 358Q348 334 367 311Q386 288 387 281Q391 272 402 262Q402 259 400 257Q401 257 410 251V250Q410 248 409.0 245.0Q408 242 408 241Q408 239 411.5 237.0Q415 235 416 234Q425 214 424 211H427Q429 212 431 212Q435 210 439 194Q441 193 448 186Q448 186 449.0 179.5Q450 173 451 173Q458 173 456 175Q464 166 462 161H464Q462 161 471 155V161Q483 155 489 145Q489 143 489.5 140.5Q490 138 491 134Q483 126 473 126Q472 126 470.0 127.5Q468 129 466 129Q466 128 463 128H461Q461 128 457 126Q453 125 446.0 124.0Q439 123 429 121Q429 121 430.0 119.0Q431 117 431 114Q428 113 425.0 111.5Q422 110 419 109V124H411Q404 124 391.0 118.0Q378 112 378 112Q373 112 362.0 111.0Q351 110 345 110Q344 110 341.5 111.5Q339 113 338 113H314Q312 113 312.0 110.0Q312 107 309 107Q308 107 306.0 109.5Q304 112 302 112Q298 112 295 109Q293 109 291.0 110.0Q289 111 288 111Q286 111 283.0 110.0Q280 109 278 109Q270 109 269 110Q268 110 267.0 110.5Q266 111 266 111Q266 111 266 111Q263 111 256.5 108.0Q250 105 247 105Q246 105 244.5 107.5Q243 110 242 110Q240 110 237.5 108.5Q235 107 234 107Q232 107 228.0 108.5Q224 110 223 110H217Q215 109 212 109Q211 109 210.0 110.0Q209 111 208 111Q206 111 202.5 110.0Q199 109 197 109Q196 109 193.0 111.0Q190 113 188 113H185Q184 112 182 112Q181 112 180 113H177Q176 113 175.5 112.0Q175 111 174 111Q112 111 48 130Q42 131 29 147V148Q29 152 35 161Q37 166 43 174Q52 179 71 195L74 196Q83 200 97 212L99 210Q120 218 113 218L121 216Q129 218 129 219Q129 224 116 224Q114 224 113 223Q110 223 108 224L103 220L101 222Q99 220 98 220Q97 220 97.0 221.0Q97 222 96 222Q94 222 91.5 219.0Q89 216 88 216H85Q84 217 83 217Q80 217 77.0 213.0Q74 209 71 209H69Q68 210 66 210Q62 210 57.0 205.5Q52 201 50 201Q49 202 48.5 202.0Q48 202 48 202L47 198Q42 193 37.5 189.5Q33 186 29 184Q28 181 27.0 176.0Q26 171 25 164Q25 163 22.5 161.5Q20 160 19 156L21 153Q19 153 19 150Q19 125 34 125Q36 125 38.5 122.0Q41 119 42 119H43Q44 119 44 119Q46 118 54.0 114.5Q62 111 66 111Q67 111 68.5 112.0Q70 113 71 113Q75 113 85.0 109.0Q95 105 99 105L100 106H102Q111 106 115 105L117 102Q123 99 126 99Q127 99 127.5 100.0Q128 101 129 101Q130 101 131.5 100.0Q133 99 134 99Q135 99 136.0 100.0Q137 101 139 101Q140 101 141.0 100.0Q142 99 143 99Q144 99 146.0 100.0Q148 101 149 101Q151 101 155.0 97.5Q159 94 160 93L164 94Q172 94 171 93L174 99H182Q184 100 184.0 95.5Q184 91 194 91Q196 91 198.0 92.0Q200 93 202 93Q203 93 206.0 91.0Q209 89 210 89Q211 89 211 91H212Q214 91 217.5 89.5Q221 88 223 88H226Q227 89 228 89Q228 89 233.0 87.0Q238 85 248 85L256 93Q259 96 262 96Q272 96 277 87Q278 86 279 86Q282 86 284.0 87.5Q286 89 287 89Q288 89 290.0 88.0Q292 87 294 87H296Q297 88 297.5 88.0Q298 88 298 88Q299 88 302 85H307Q309 85 313.5 87.0Q318 89 320 89Q323 89 325 88H330Q330 88 331.5 86.5Q333 85 334 85Q336 85 338.0 87.0Q340 89 341 89Q342 89 344.5 88.0Q347 87 349 87Q350 87 353.0 88.0Q356 89 358 89Q359 89 363.5 86.0Q368 83 370 83Q371 83 372.5 84.0Q374 85 375 85Q376 85 378.0 84.0Q380 83 381 83L393 91H399Q401 87 401 85H411L413 87Q414 87 414 85H415Q416 85 418.0 86.0Q420 87 421 87Q422 87 422.0 86.0Q422 85 423 85Q424 85 425 87Q427 86 427 86Q427 86 427 85Q428 86 427 86Q429 89 430 89Q432 89 433 88H436Q442 88 445.5 90.5Q449 93 450 93Q451 93 452.0 92.0Q453 91 454 91Q484 91 487 95Q492 90 496 90Q497 90 502.0 95.0Q507 100 509 100Q511 100 516 95Q521 93 520 90H527L529 88Q524 81 524 79L526 77V74Q526 69 527 68Q530 61 570 30L575 29L589 21Q593 17 600 13Q602 13 604.0 12.5Q606 12 609 11L614 7Q631 0 640 0Q643 0 651 2L661 20Q667 21 672 30Q672 33 669.0 33.5Q666 34 666 39Q657 41 643 51Q642 52 640 52L628 65Q620 72 607.5 82.0Q595 92 578 106Q584 113 592 113Q593 113 594.0 112.0Q595 111 596 111Q597 111 598.0 112.0Q599 113 600 113Q601 113 602.0 112.0Q603 111 604 111Q608 111 611 115Q624 115 645 123Q662 130 664 133H665Q661 133 679 141Q682 141 685.5 143.0Q689 145 698 152Q698 154 700.0 158.0Q702 162 702 164Q702 167 698 178L695 184Q692 186 688.0 190.5Q684 195 679 200Q669 204 661.0 215.0Q653 226 639 230V232Q640 233 667 239L715 245Q725 248 725 250Q725 251 725.5 249.0Q726 247 727 247Q729 247 731 248Q733 249 734 248Q736 250 739 251Q780 272 787 272H789Q790 271 790.5 271.0Q791 271 791 271Q793 271 794.0 273.0Q795 275 796 275Q799 276 803.0 278.0Q807 280 812 282L814 285Q818 287 823.5 290.5Q829 294 836 299Q839 302 843 310Q847 310 866 335Q879 360 879 370Q879 373 881.5 375.5Q884 378 884 379Q884 381 881.5 382.5Q879 384 879 385Q879 387 880.5 390.5Q882 394 882 396Q882 397 880.5 400.0Q879 403 879 405V409Q880 410 880 413Q880 432 870 443L875 447Q882 443 885.5 441.5Q889 440 889 440Q896 440 893 443Q901 437 914 436Q917 433 928 432Q929 432 939.5 424.5Q950 417 952 417Q954 417 953.5 418.0Q953 419 955 419Q956 419 957.5 417.5Q959 416 960 416Q970 414 975.0 409.0Q980 404 996 404Q1000 404 1000 406Q1000 407 996.0 410.0Q992 413 992 414H990Q987 414 981.5 416.0Q976 418 973 418Q970 418 956.5 425.0Q943 432 940 435L937 433Q901 444 885 455L883 453Q861 460 861 469Q860 468 859 468Q854 468 854 478Q852 482 846.0 488.5Q840 495 823 509Q823 512 822 514Q818 519 812.5 525.0Q807 531 799 537Q796 542 789 543Q788 543 788 546Q752 566 729 592Q728 591 726 591Q718 591 713 602Q709 602 683 618Q680 618 673.0 620.0Q666 622 652 630H651Q645 630 634.0 637.0Q623 644 617 644Q616 644 616 643H615Q613 643 600.0 648.0Q587 653 585 655Q581 653 580 653Q579 653 574.5 655.5Q570 658 564 658Q562 658 557.5 661.0Q553 664 551 665Q547 666 542.5 666.0Q538 666 531 666H529Q529 665 528 665Q526 665 523.0 668.0Q520 671 519 671Q518 671 518 670H516Q514 670 510.5 670.0Q507 670 503 671Q501 674 480 676L476 679Q470 681 469 683Q467 683 463.5 683.0Q460 683 455 684Q452 684 434 691Q417 696 413 696H397Q386 696 383.5 697.5Q381 699 371 700Q370 701 368 701Q367 701 365.5 700.0Q364 699 363 699Q360 699 349.0 702.0Q338 705 328 704Q326 706 324 706Q323 706 320.0 704.5Q317 703 315 703Q312 703 304.5 704.5Q297 706 293 706Q292 706 291.0 705.0Q290 704 289 704Q288 704 287.5 705.0Q287 706 286 706Q285 704 285 704H279Q274 704 266.5 705.0Q259 706 255 706V707Q255 708 254 708Q249 708 240.0 705.5Q231 703 226 703L224 701Q226 699 226 695Q230 697 233 700L236 696Q242 695 245.0 694.5Q248 694 248 694Q249 694 251.5 695.5Q254 697 256 697Q258 697 257 696Q262 696 271.5 693.5Q281 691 285 691Q288 691 293.5 692.0Q299 693 301 693Q305 693 306 689Q308 691 310 691Q312 691 312 689Q314 691 321 691Q327 691 339.5 688.0Q352 685 358 685Q359 685 361.0 686.0Q363 687 364 687L367 683Q369 685 372 685Q374 685 379.0 683.0Q384 681 387 681Q388 681 388 682H389Q407 682 411 676L442 666Q463 659 473 659H474Q474 660 476 660Q477 660 477.5 658.0Q478 656 480 656Q481 656 481.0 657.5Q481 659 482 659Q484 659 494.5 654.5Q505 650 507 650H508Q508 651 509 651Q511 651 522.5 646.0Q534 641 536 641Q540 640 545.0 638.0Q550 636 557 634Q559 634 562.5 633.5Q566 633 570 632Q573 630 579.0 627.0Q585 624 597 621L662 593Q665 593 669.0 593.0Q673 593 678 592L687 583Q694 583 694 578Q704 577 719 560L739 550Q745 544 750 535Q753 528 775 519L773 518Q775 517 780 497Q781 495 783.0 493.5Q785 492 787 490L798 482Q798 482 797 481Q796 482 790.5 483.5Q785 485 776 488L708 510Q679 518 638.5 529.0Q598 540 545 553Q543 558 541 558Q540 558 539 557H538Q536 557 534.0 558.5Q532 560 530 560Q529 560 529 559H528Q531 559 522.5 563.0Q514 567 505 567Q504 567 504 566H503Q480 576 471 576Q470 576 469 575Q469 576 461 581Q451 583 439.5 585.0Q428 587 415 589L414 590Q410 591 408.0 592.5Q406 594 405 594Q404 594 404 593H402L379 601Q358 608 352 608H351Q350 607 349 607Q346 607 339.5 610.0Q333 613 329 613Q322 613 319 620Q315 617 313 617Q311 617 307.0 620.0Q303 623 301 623L280 626Q277 632 274 632Q273 632 272.5 631.0Q272 630 271 630Q272 630 251 638Q244 638 234 648H226V650Q226 656 218 661Q194 706 194 729Q193 730 190 752L187 761Q186 768 187 788Q187 788 185 792ZM663 134Q664 134 664 133ZM250 611H251Q255 611 255 609Q263 608 262 607H261Q261 607 261.0 607.0Q261 607 261 607Q262 607 262 607Q264 608 265 609L267 605Q271 607 275 611Q276 609 284 601H291Q291 608 295 611Q295 611 296.5 610.5Q298 610 302 609Q300 603 300 603Q301 604 302 604Q304 604 306.0 602.0Q308 600 309 600Q310 600 311 601H312Q314 601 315.0 599.0Q316 597 318 597Q319 597 320.0 597.5Q321 598 323 599Q324 597 336 593Q381 579 401 579Q406 579 407 576Q417 583 415 583H417Q424 583 427.0 578.0Q430 573 434 573H436Q436 574 437 574Q442 574 456 567V568Q495 556 497 556H498Q499 557 500 557Q504 557 511 551Q520 551 538 546H541Q572 538 615.0 525.0Q658 512 713 495L714 496H715Q713 496 720 492H721Q724 492 728 488Q729 489 733 489Q735 489 745.5 484.5Q756 480 758 480Q759 480 760 481H761Q762 481 765.0 479.5Q768 478 769 478H771Q771 479 772 479Q778 479 783.0 475.0Q788 471 791 471Q796 471 797 472Q798 469 807 462L804 458Q811 453 812 437Q814 435 818 435H822Q824 436 826 436Q829 436 834 431Q832 425 832 422Q832 420 833.5 417.5Q835 415 835 414Q835 411 832.0 404.0Q829 397 829 394Q829 391 831.5 384.5Q834 378 834 375Q834 372 831 369Q828 367 825 369V368Q825 367 823.0 366.0Q821 365 821 364L824 348Q825 344 819 344Q809 344 807 345Q807 340 801.0 335.5Q795 331 795 330Q794 327 791.5 324.5Q789 322 787 320V316Q787 304 763 294Q760 291 748 284Q745 283 740.5 281.0Q736 279 730 277Q729 277 723.0 271.0Q717 265 715 265Q696 265 673 251L663 250H662Q662 251 661 251Q660 251 659.0 249.0Q658 247 656 247Q654 247 652 248H649Q647 248 646.0 246.0Q645 244 643 244H641Q641 245 639 245Q637 245 631.0 242.0Q625 239 623 239Q622 239 612.0 244.5Q602 250 599 250Q596 250 575 259Q571 260 565.5 261.0Q560 262 553 263Q547 267 530.5 271.0Q514 275 497 275Q497 274 495.0 271.5Q493 269 493 268Q493 260 501 260Q504 260 509.0 261.0Q514 262 516 262Q517 262 518.5 261.0Q520 260 521 260H523Q523 261 524 261Q526 261 528.5 259.0Q531 257 532 257Q533 257 535.0 258.5Q537 260 538 260Q545 260 545 251Q547 253 552 253Q556 253 557.0 252.0Q558 251 559 250H561Q562 251 563 251Q568 251 579 243Q580 244 583 245Q584 243 594 240Q594 238 585.5 236.0Q577 234 566 234H536Q534 234 531.5 235.5Q529 237 528 237Q527 237 525.5 236.0Q524 235 523 235Q521 235 519 237H503Q500 235 501 231Q518 225 529 225Q530 225 532 227L534 225H541Q544 225 546.5 226.0Q549 227 550 227Q552 227 555.5 226.0Q559 225 560 225Q561 225 563.0 226.0Q565 227 566 227Q567 227 568.5 226.0Q570 225 571 225Q571 225 582.5 226.0Q594 227 595 229L597 226Q601 230 623 230Q627 230 640 217Q653 204 653 198Q653 193 649 192V187H654V186Q654 180 648 177Q647 178 646 178Q642 178 636 176Q635 170 627.5 169.0Q620 168 614 167L611 159Q612 157 612 154V153L607 149Q604 151 602.5 154.0Q601 157 598 157Q592 157 584.0 149.5Q576 142 570 142Q569 142 566.0 144.5Q563 147 560 147Q559 147 557.0 147.0Q555 147 553 146H546Q545 146 515 178Q496 198 483.0 213.0Q470 228 465 239L422 299Q419 300 412 314Q408 315 402 331Q400 333 398.0 336.0Q396 339 394 343L391 355Q388 355 386 358Q380 355 380 351Q380 348 390 331H389Q383 331 367 362Q350 395 345 400V401Q344 402 344 406Q336 409 336 420L333 424Q326 433 320 457Q313 461 308 477L305 476Q304 478 304.0 481.0Q304 484 303 489Q303 491 301.0 494.0Q299 497 300 500Q295 502 292 506Q290 519 283 526Q284 527 284 528Q284 531 280.0 534.5Q276 538 275 539Q277 543 277 546Q277 554 270.5 560.5Q264 567 264 568L258 584Q248 598 248 602Q248 603 249.0 606.0Q250 609 250 611ZM918 639Q917 638 915.5 636.0Q914 634 913 634H912Q912 635 911 635Q909 635 907 626Q906 625 900 623Q897 612 893 611V584L901 575Q902 574 900 568Q901 566 902.0 564.0Q903 562 905 560Q905 557 904 553Q906 547 910 544Q910 538 914 533Q916 533 925 521L935 506Q938 504 947 495V491Q950 489 953 485Q960 484 963 479Q963 478 963.0 476.0Q963 474 964 472Q966 471 968.0 471.0Q970 471 973 470Q975 464 978 462Q991 461 997 448Q998 448 1001.5 445.5Q1005 443 1006 443Q1006 443 1006 443Q1005 444 1009 445Q1011 443 1011 442Q1016 439 1020 439Q1025 433 1025 433Q1026 433 1026.5 434.0Q1027 435 1028 435Q1030 435 1035.5 432.5Q1041 430 1043 430H1044Q1043 431 1045 431Q1046 431 1047.5 429.5Q1049 428 1050 428Q1052 428 1054.0 429.5Q1056 431 1057 431Q1058 431 1058.5 430.0Q1059 429 1061 429Q1061 429 1061 429Q1059 429 1064 431Q1065 427 1069 427Q1071 427 1071.5 428.5Q1072 430 1074 430Q1075 430 1075 429H1077Q1079 429 1085 437Q1087 435 1087 435Q1094 440 1095 443V453L1093 451Q1087 453 1081 453Q1080 453 1079.5 452.0Q1079 451 1077 451Q1076 451 1074.5 452.0Q1073 453 1072 453Q1070 453 1068.5 452.0Q1067 451 1066 451Q1065 451 1065.0 452.0Q1065 453 1063 453H1062Q1063 452 1061 452Q1060 452 1049.5 457.0Q1039 462 1038 462Q1037 462 1035 459L1015 468L1008 466Q1007 466 1003.0 470.0Q999 474 997 474Q996 474 996 473H995Q991 473 987.5 477.5Q984 482 977 484Q976 485 977 488Q972 499 964 502Q963 503 963 506H956Q955 507 955 513Q955 513 953.5 513.0Q952 513 950 512Q947 517 949 522H939Q937 526 934.0 531.5Q931 537 928 545Q927 548 924.5 552.5Q922 557 920 563Q914 570 910 580V589Q910 590 909.0 593.0Q908 596 908 598Q913 603 918 603Q921 603 925.5 601.5Q930 600 934 592L937 594Q945 591 955 583Q956 582 960.0 581.0Q964 580 964 576Q965 576 966 577L970 570Q981 568 982 558Q984 558 985 559L992 553Q992 551 993 549Q994 549 995.0 548.5Q996 548 998 547L1004 536Q1007 533 1014 532Q1017 530 1019.5 527.0Q1022 524 1024 522Q1023 520 1022.0 518.0Q1021 516 1019 514Q1017 511 1021 509Q1019 510 1019 507V501Q1022 499 1026.5 497.0Q1031 495 1036 491Q1040 489 1041 489Q1041 489 1041 489Q1038 489 1043 491Q1045 486 1048.0 480.0Q1051 474 1054 466L1062 462Q1062 462 1064 468Q1056 479 1056 485Q1056 488 1066 491Q1066 491 1066.0 491.5Q1066 492 1065 493Q1069 496 1071.5 499.0Q1074 502 1075 504Q1068 514 1068 523L1070 525Q1069 526 1069 533Q1070 539 1071.5 545.5Q1073 552 1075 560L1082 570V573Q1082 587 1092 597L1095 595V598Q1101 600 1108 607H1119Q1122 611 1125 611Q1141 611 1141 603Q1141 603 1143 605Q1154 600 1176 572Q1191 554 1193 555L1197 556V560L1198 561Q1198 561 1190 572Q1190 576 1182 582Q1184 583 1182 585L1176 589L1178 592Q1168 595 1162.0 600.0Q1156 605 1157 607Q1155 607 1150 613Q1146 613 1146 617Q1144 615 1144 615L1141 617Q1141 617 1139.5 618.0Q1138 619 1136 621Q1135 621 1133.0 621.0Q1131 621 1129 622L1127 625H1122Q1121 624 1120 624Q1111 624 1106 629V625H1093V621Q1091 623 1090 623Q1088 623 1084.5 619.5Q1081 616 1077 617Q1072 609 1065.5 600.5Q1059 592 1057 594Q1057 593 1058 592Q1055 589 1054 583Q1047 575 1027 534Q1023 538 1017.0 545.0Q1011 552 1003 560Q1002 562 1001.0 564.5Q1000 567 999 571L992 575Q992 577 991.5 579.5Q991 582 990 586Q989 586 984.5 590.0Q980 594 976 594Q975 594 973 592Q971 594 968.0 597.5Q965 601 961 606Q962 607 967 607V611Q967 612 961 618L963 620Q960 622 950 632Q949 632 946.5 632.0Q944 632 941 633Q928 638 933 638Q930 638 926 637H920Q918 637 918 639ZM1255 637V633Q1248 632 1245 633Q1244 629 1237 624Q1236 623 1235 623Q1233 621 1229.5 617.5Q1226 614 1222 610Q1222 606 1218 605Q1218 602 1212 592Q1212 591 1212.0 589.0Q1212 587 1211 585L1208 582Q1207 575 1203 576Q1205 574 1205 571Q1205 569 1204.0 565.0Q1203 561 1201 557V552L1197 549Q1198 547 1198.5 546.0Q1199 545 1199 545Q1199 541 1195 538Q1195 534 1193 528Q1194 526 1194.0 524.0Q1194 522 1195 519L1193 516L1195 508L1192 498Q1192 491 1195 469Q1196 466 1198.0 460.0Q1200 454 1200 452V448Q1199 445 1198.0 443.0Q1197 441 1192 441H1184L1169 434Q1168 433 1168.0 431.5Q1168 430 1167 429Q1168 428 1168 427H1175L1198 434Q1200 434 1201 433H1204L1208 422Q1209 421 1210.0 419.0Q1211 417 1216 393Q1218 390 1220.0 385.5Q1222 381 1224 375Q1228 372 1230 367V360L1237 350Q1235 351 1242.0 342.0Q1249 333 1249 325Q1251 324 1256.5 316.5Q1262 309 1273 296L1276 290Q1289 277 1290 270Q1292 268 1295.0 265.5Q1298 263 1302 259Q1302 254 1312.0 247.0Q1322 240 1324 235Q1330 235 1346 219Q1353 216 1362 204H1364Q1369 204 1373 196Q1382 192 1392 184L1398 179Q1399 179 1399 180H1400Q1399 180 1408 176Q1439 162 1443 162H1445Q1446 163 1447 163Q1450 163 1457 160Q1458 160 1459.5 158.5Q1461 157 1462 157Q1463 157 1463.5 158.0Q1464 159 1465 159Q1466 159 1468.5 157.0Q1471 155 1472 155Q1472 155 1472 155Q1471 155 1473.0 156.0Q1475 157 1481 157Q1486 157 1490 155Q1494 159 1495.0 159.0Q1496 159 1518 161L1521 165Q1523 165 1523 163Q1524 163 1549 188V199Q1550 200 1553 200Q1553 205 1553.5 210.0Q1554 215 1555 219Q1556 220 1556 222Q1556 224 1555.0 227.0Q1554 230 1548 246L1545 256Q1538 269 1524 289L1514 298L1512 306H1509L1495 322Q1488 326 1476 343Q1464 346 1458 355Q1455 357 1449.0 362.0Q1443 367 1433 374Q1426 376 1415.0 381.0Q1404 386 1390 393Q1387 396 1376 404Q1369 405 1358 410Q1356 412 1343.5 416.0Q1331 420 1332 420H1331Q1331 419 1330 419Q1328 419 1329 422Q1328 421 1327.0 421.0Q1326 421 1326 421Q1325 421 1319.5 423.0Q1314 425 1303 429Q1283 436 1280 436Q1279 436 1279 435H1278Q1277 435 1269.0 438.5Q1261 442 1260 442Q1259 442 1258 441H1256Q1252 442 1243.5 442.5Q1235 443 1238 447Q1236 446 1235.0 445.5Q1234 445 1234 445Q1232 445 1230 447L1226 481Q1226 481 1228 483Q1227 486 1227 497Q1224 498 1224 502Q1224 503 1227.0 513.0Q1230 523 1230 525V531Q1229 530 1224 533V529H1221Q1213 529 1220 535V539Q1219 539 1211 544L1217 553H1220Q1222 553 1224.0 553.5Q1226 554 1229 555L1231 553H1238Q1240 558 1243 561Q1243 562 1244 565L1252 572Q1254 592 1267 588V592Q1268 593 1270 593Q1270 593 1273 592Q1276 599 1280 599Q1282 599 1291 596L1294 593V579Q1296 577 1296 576Q1296 574 1295.5 570.0Q1295 566 1294 562Q1291 561 1288 554Q1288 550 1287 547Q1283 539 1277 535H1272Q1265 535 1262.5 538.0Q1260 541 1258 541L1250 539Q1248 533 1242 528Q1243 524 1245.0 519.5Q1247 515 1250 508Q1254 508 1259.5 504.5Q1265 501 1267 501L1270 503H1283Q1285 508 1290 508Q1289 508 1314 501Q1314 500 1321.0 496.0Q1328 492 1330 492Q1331 492 1331.5 493.5Q1332 495 1333 495Q1338 495 1339 489Q1342 489 1345 488H1351Q1354 488 1360.5 484.5Q1367 481 1369 482Q1368 483 1368 486Q1317 509 1321 509Q1319 509 1319 508H1318Q1318 508 1309.5 512.5Q1301 517 1291 523L1286 529L1303 558V560Q1303 564 1306 573Q1306 573 1304.5 579.0Q1303 585 1303 588V595Q1303 605 1300 613Q1298 614 1295.5 616.0Q1293 618 1290 620Q1290 622 1289 623Q1280 635 1270 635L1263 633Q1259 633 1255 637ZM1233 433Q1241 430 1246 430Q1248 430 1250.0 431.0Q1252 432 1254 432Q1255 432 1258.0 430.5Q1261 429 1261 429H1263Q1263 430 1264 430L1274 427Q1275 427 1275.5 428.0Q1276 429 1277 429Q1278 429 1281.0 426.0Q1284 423 1286 423Q1287 423 1287 424H1288Q1288 422 1299 419L1302 421Q1304 417 1316 413L1323 406H1325Q1330 406 1341 398Q1344 398 1346 397Q1353 392 1355.0 391.0Q1357 390 1358 388Q1364 387 1366.0 384.0Q1368 381 1369 381Q1370 381 1370 382H1371Q1374 382 1380.5 378.5Q1387 375 1387 374V375H1388Q1391 375 1411 359L1415 353Q1420 358 1422 358Q1425 355 1424.5 356.0Q1424 357 1440 347L1443 342Q1445 343 1446.5 343.0Q1448 343 1448 343Q1448 338 1451.5 335.0Q1455 332 1461 320Q1454 316 1453 316Q1450 316 1442.0 323.5Q1434 331 1430 331Q1428 331 1428 330L1431 325Q1432 325 1435.0 322.5Q1438 320 1440 320Q1442 315 1443.5 312.5Q1445 310 1445 310Q1456 300 1466.0 290.0Q1476 280 1483 269Q1487 265 1491.5 258.5Q1496 252 1504 241V236L1508 232Q1508 226 1512 225Q1514 214 1516.0 206.5Q1518 199 1518 195Q1518 186 1499 177L1489 175Q1488 175 1486.5 172.5Q1485 170 1484 170L1477 172L1474 174H1471Q1470 173 1469 173Q1467 173 1466.0 174.0Q1465 175 1464 175Q1463 175 1462.0 174.0Q1461 173 1460 173Q1460 173 1456 175Q1453 174 1449 175L1441 178L1438 175Q1437 176 1435.5 178.0Q1434 180 1433 180Q1432 179 1431.0 179.0Q1430 179 1430 179Q1426 179 1421 187Q1419 188 1414.5 189.0Q1410 190 1405 192Q1401 196 1387 202L1358 225Q1358 224 1356 222Q1355 223 1346 229L1341 237H1336L1313 259Q1313 261 1312 262Q1307 266 1300.5 273.5Q1294 281 1286 291Q1285 294 1283.0 298.0Q1281 302 1279 307Q1277 309 1274.5 313.5Q1272 318 1273 322L1263 333L1261 342Q1259 346 1256.0 352.0Q1253 358 1248 366Q1249 368 1247 374Q1249 374 1249 375Q1245 378 1243 386Q1240 400 1239.0 401.5Q1238 403 1236 405Q1235 410 1234.5 413.0Q1234 416 1234 415Q1234 429 1236 423ZM1244 562 1243 561Q1243 559 1244 562ZM1346 1062Q1346 1062 1345.5 1062.0Q1345 1062 1343 1061H1340Q1334 1061 1316 1056Q1315 1056 1312.0 1056.0Q1309 1056 1305 1055Q1303 1055 1298.5 1052.5Q1294 1050 1293 1050Q1292 1050 1292 1051H1291Q1289 1051 1287.5 1049.5Q1286 1048 1277 1044Q1274 1044 1268 1042Q1262 1040 1254.0 1035.0Q1246 1030 1235 1023Q1231 1019 1224.5 1013.0Q1218 1007 1212 1000Q1211 1001 1210 1001Q1210 998 1211 997Q1207 995 1203 991Q1203 991 1193 971Q1192 965 1191.0 956.5Q1190 948 1188 938Q1185 926 1184 926Q1185 924 1186.0 920.5Q1187 917 1187 915V906Q1189 898 1188 897Q1190 882 1198 861V857L1200 854L1207 831Q1209 829 1211 829Q1212 829 1214 831L1217 822Q1229 804 1254 776Q1259 774 1277 758Q1282 756 1289 747Q1294 740 1311 733Q1310 735 1310 737Q1313 734 1313 732Q1315 729 1318.5 724.5Q1322 720 1327 715Q1329 714 1330.5 713.0Q1332 712 1334 711Q1345 708 1348 705Q1357 705 1367 690H1368Q1368 691 1369 691Q1370 691 1372.0 688.5Q1374 686 1375 686H1376Q1376 687 1377 687Q1378 687 1382.0 682.5Q1386 678 1387 678Q1389 678 1390.0 679.5Q1391 681 1392 681Q1397 681 1401 675Q1405 675 1412 669Q1412 669 1412.0 669.5Q1412 670 1413 671Q1418 666 1436 659Q1437 658 1438.0 656.5Q1439 655 1446 655L1450 652Q1451 652 1451 653H1454Q1453 654 1459.0 650.5Q1465 647 1467 647Q1467 647 1467 647Q1466 647 1468 649L1470 647L1471 648L1475 644Q1483 642 1490 638L1492 640Q1497 635 1499 635Q1500 635 1500 636H1501Q1506 636 1511 631Q1511 633 1513 633Q1514 633 1514.5 632.0Q1515 631 1516 631Q1517 631 1517.5 632.0Q1518 633 1519 633Q1520 633 1522.5 631.0Q1525 629 1526 629Q1537 624 1547 623Q1548 623 1550.0 621.0Q1552 619 1554 619Q1555 619 1555.0 620.0Q1555 621 1556 621Q1557 621 1559.5 619.5Q1562 618 1563 618L1572 616Q1573 616 1573 617H1575L1599 610Q1600 610 1601 611H1602Q1605 611 1605 610Q1605 611 1607 611H1609Q1609 610 1610 610Q1612 610 1611.5 611.0Q1611 612 1612 612Q1613 612 1616.5 610.5Q1620 609 1621 609Q1621 609 1621 609Q1620 609 1623 612Q1627 608 1626 608Q1628 608 1627 609H1628Q1632 609 1639 605L1636 599Q1634 597 1634 595Q1634 593 1635.5 589.0Q1637 585 1637 584Q1637 582 1635.5 580.5Q1634 579 1634 578V570Q1634 566 1631 562Q1632 561 1632 558Q1631 550 1630.0 543.5Q1629 537 1627 532Q1627 526 1623 518Q1623 514 1622.5 508.5Q1622 503 1621 496L1615 491H1613L1609 499Q1602 506 1590 521Q1583 525 1575 535Q1570 539 1562 550Q1553 555 1545 566Q1535 571 1527 580Q1526 580 1522.5 584.0Q1519 588 1516 587L1512 592L1482 607L1474 613Q1461 619 1458.5 619.0Q1456 619 1448 625Q1443 626 1441.0 626.5Q1439 627 1440 627Q1435 627 1432 624L1430 626H1427Q1421 626 1411.0 617.0Q1401 608 1399 604Q1398 600 1397.5 594.0Q1397 588 1396 576Q1395 577 1395 574Q1395 573 1401 563Q1403 565 1403 566V568Q1403 569 1403.0 571.5Q1403 574 1401 578Q1403 580 1403 581Q1408 579 1409 566Q1409 566 1409.0 566.5Q1409 567 1410 568L1419 562V561Q1419 562 1421 564V562Q1421 557 1419 557L1415 558Q1416 554 1418 551Q1417 551 1415 551Q1415 551 1413.5 550.0Q1412 549 1410 547L1408 549L1402 545L1404 542H1401Q1405 538 1408 538Q1408 537 1408.0 535.0Q1408 533 1407 531Q1409 529 1413.0 521.5Q1417 514 1415 512V506Q1417 506 1417 502Q1417 503 1418 504Q1424 500 1428 490Q1428 488 1430 488Q1431 488 1431 489H1433Q1436 489 1437.0 484.5Q1438 480 1443 479Q1445 476 1449.0 470.5Q1453 465 1462 457Q1460 455 1454 455L1423 457Q1423 457 1414.0 455.0Q1405 453 1400 453Q1402 451 1397 448L1400 446L1409 448Q1410 448 1411 447H1414L1416 445Q1419 448 1420 448H1435Q1442 448 1444.0 448.5Q1446 449 1444 449Q1446 449 1448 448H1451L1458 450Q1459 450 1462.0 448.5Q1465 447 1466 447H1468Q1469 448 1470 448Q1472 448 1476.5 446.5Q1481 445 1482 445Q1484 445 1484.0 446.0Q1484 447 1485 447Q1489 447 1496.5 446.0Q1504 445 1508 445Q1509 445 1518.0 439.5Q1527 434 1528 434Q1529 434 1530 435L1533 432Q1533 432 1539 434V437Q1539 440 1519 451L1488 481Q1486 481 1485 482Q1475 493 1460 519Q1458 519 1456 517Q1457 518 1457 522Q1455 524 1452.5 528.5Q1450 533 1446 539Q1443 546 1443 554Q1443 566 1446 577Q1447 576 1450 576V583L1454 582L1456 584H1458Q1459 585 1462.5 586.0Q1466 587 1467 587Q1469 587 1469 586H1470Q1472 586 1474.0 585.5Q1476 585 1479 584Q1480 588 1482 588Q1483 588 1485.5 585.5Q1488 583 1489 583H1491Q1491 584 1492 584Q1495 584 1503.5 578.0Q1512 572 1513 568Q1514 569 1515 569Q1513 568 1524.0 563.5Q1535 559 1541 549L1548 551Q1551 543 1566 530L1571 522Q1572 521 1574.0 518.5Q1576 516 1585 510L1589 503Q1590 502 1592.0 502.0Q1594 502 1597 501L1604 491Q1607 489 1613 482Q1615 482 1616 481V476L1613 470Q1609 455 1604 442Q1606 438 1605 435Q1604 434 1602 434L1603 430Q1603 429 1599.5 420.5Q1596 412 1596 411Q1596 406 1600 405H1602Q1605 424 1611 435Q1613 442 1617 448Q1617 446 1618 446V460L1619 461H1620L1627 455V451Q1628 450 1629.5 448.0Q1631 446 1635 444Q1636 443 1636 438Q1640 434 1644 433Q1646 428 1649.5 421.5Q1653 415 1658 406L1663 403L1666 407Q1664 407 1657 423Q1657 427 1651 441Q1651 439 1648 439Q1648 440 1639 461Q1637 461 1627 474Q1626 475 1626 477Q1626 481 1629 484Q1630 491 1631.5 500.5Q1633 510 1637 523L1640 532Q1640 533 1639 534Q1640 539 1641.5 546.5Q1643 554 1646 564V565Q1646 567 1647.5 569.5Q1649 572 1649 574V580L1653 589Q1655 597 1660 608Q1665 608 1671.0 608.0Q1677 608 1685 609Q1687 609 1690 610H1694L1695 612Q1697 613 1702 611H1712Q1716 615 1718 615Q1724 615 1723 614H1728L1718 619L1715 617H1716Q1716 617 1709.5 616.5Q1703 616 1689 615Q1689 613 1687 613L1675 615L1667 613Q1664 613 1661 616L1659 624Q1659 624 1662 634V637Q1662 641 1663.5 646.0Q1665 651 1666 657L1664 686L1663 723Q1667 726 1667 731L1664 741V746Q1664 749 1664.0 752.0Q1664 755 1665 758Q1665 759 1665.0 761.5Q1665 764 1664 768Q1663 769 1661.5 771.5Q1660 774 1660 780V799Q1659 799 1658.0 801.5Q1657 804 1656 812Q1656 817 1652.5 823.5Q1649 830 1646 850Q1639 855 1634 872Q1632 879 1628.5 886.0Q1625 893 1621 898Q1621 905 1612 919Q1608 923 1603 926Q1595 944 1570 966V968Q1568 971 1561 978L1524 1007Q1515 1017 1505 1020Q1499 1022 1492 1028Q1492 1026 1491 1026L1471 1035Q1461 1039 1460.5 1041.5Q1460 1044 1457 1044H1455Q1455 1043 1454 1043Q1450 1043 1442 1047Q1432 1047 1421 1053Q1406 1053 1403.5 1053.5Q1401 1054 1394 1057Q1387 1060 1386 1060H1382Q1379 1059 1377 1059Q1376 1059 1375.0 1060.5Q1374 1062 1373 1062Q1372 1062 1370.5 1060.5Q1369 1059 1368 1059Q1369 1060 1366 1061Q1361 1061 1358.0 1061.5Q1355 1062 1354 1062Q1354 1062 1354 1062Q1352 1062 1354 1062Q1353 1062 1353.0 1061.0Q1353 1060 1352 1060Q1351 1060 1349.0 1061.0Q1347 1062 1346 1062ZM1666 407Q1665 407 1666 407ZM1516 569Q1516 569 1516.0 569.0Q1516 569 1516 569ZM1301 1031H1306Q1307 1031 1309.5 1029.5Q1312 1028 1314 1027Q1314 1027 1314 1027H1315Q1315 1027 1314 1027Q1315 1028 1322 1031V1030L1323 1029Q1324 1030 1326 1030L1329 1028Q1330 1029 1333 1029Q1338 1027 1342 1023Q1350 1028 1351 1028Q1352 1028 1352 1027H1354L1367 1030Q1370 1030 1372.5 1027.5Q1375 1025 1380 1025H1384V1028H1391Q1394 1029 1393 1030Q1394 1030 1397 1025Q1400 1024 1401.5 1023.5Q1403 1023 1403 1023Q1402 1022 1403 1021Q1420 1010 1421 1010Q1425 1010 1426 1011V1017Q1426 1020 1420 1025Q1429 1023 1430 1022V1018Q1443 1013 1449.0 1010.0Q1455 1007 1455 1007L1473 992Q1475 994 1474 994Q1475 994 1478 990V986L1481 988Q1482 987 1483 987Q1483 987 1485 989Q1485 986 1487 986H1489Q1490 987 1491 987Q1492 987 1494.5 985.0Q1497 983 1499 983Q1501 983 1505 986Q1507 984 1509.0 980.0Q1511 976 1513 972Q1518 969 1517 969Q1518 969 1521.0 970.0Q1524 971 1526 971Q1527 971 1532 966Q1532 961 1531 958L1534 948Q1534 947 1547 938Q1549 935 1553.5 929.0Q1558 923 1569 922Q1571 907 1577 904V895L1584 889Q1582 884 1584 875Q1586 875 1591.5 869.0Q1597 863 1600 863Q1604 863 1604 856Q1604 854 1603.5 850.5Q1603 847 1602 843Q1602 842 1605.5 838.5Q1609 835 1612 835Q1616 830 1614 821Q1620 814 1625 796L1629 788Q1630 789 1633 789V781Q1633 776 1633.0 772.0Q1633 768 1632 764Q1635 757 1634 755Q1633 755 1633 754Q1635 752 1636 740Q1636 738 1636.0 735.5Q1636 733 1637 729L1640 732Q1640 708 1641 711Q1645 710 1645 679Q1645 674 1645.0 664.0Q1645 654 1644 640Q1643 628 1638 614Q1634 617 1626 617L1617 615Q1617 618 1616 618L1613 616Q1610 622 1600 622L1586 624L1585 626Q1583 625 1577 625Q1576 626 1576 627Q1576 628 1575 628H1571Q1569 627 1567 627Q1566 627 1563.0 629.0Q1560 631 1559 631H1555Q1553 630 1551 630Q1553 633 1547 635L1545 633Q1543 635 1542 635V632Q1541 633 1538.5 635.0Q1536 637 1535 637H1534Q1534 636 1532 636Q1531 636 1524.0 639.5Q1517 643 1516 643H1515Q1515 642 1514 642Q1515 642 1514.5 642.5Q1514 643 1512 644H1507Q1494 644 1483 652Q1450 673 1453 672Q1453 672 1453 672Q1452 670 1446 667Q1444 668 1442.0 669.5Q1440 671 1440 671Q1442 675 1440 677H1437Q1438 680 1434 684Q1432 684 1429 680L1417 679Q1413 679 1408 696Q1401 697 1391 706V709Q1390 710 1389.0 711.0Q1388 712 1386 714L1383 711Q1382 711 1375.5 715.5Q1369 720 1368 720L1361 718Q1360 718 1351.5 727.5Q1343 737 1341 737Q1340 737 1340 736H1339Q1338 736 1333.5 740.0Q1329 744 1327 746V748Q1327 751 1322 756H1320Q1320 755 1319 755Q1318 755 1316.0 757.0Q1314 759 1313 759H1311V757Q1311 755 1308 749Q1302 755 1302 760Q1303 760 1304 761L1294 765Q1295 767 1293 769H1292Q1292 768 1291 768L1288 771Q1289 772 1289 774Q1282 778 1275 783Q1276 783 1277 784Q1274 787 1274 791H1266V794Q1266 805 1257 808Q1257 809 1257.5 809.5Q1258 810 1258 810Q1258 814 1250 820L1239 829Q1239 830 1240.5 831.0Q1242 832 1242 833Q1241 834 1240 834Q1239 833 1239 832Q1238 837 1233.0 843.0Q1228 849 1224 861Q1222 863 1221.0 864.0Q1220 865 1216 870Q1212 886 1204 886L1200 885Q1200 885 1200.0 885.5Q1200 886 1199 888V892L1197 895Q1198 895 1199 896L1201 894L1203 896V902Q1203 905 1199 906Q1198 913 1198 913Q1198 919 1204 922Q1201 923 1198 928Q1197 927 1196 927L1198 936Q1196 938 1198 950Q1199 951 1200.0 951.5Q1201 952 1202 954V956Q1202 960 1201 964Q1203 971 1209.5 978.5Q1216 986 1219 992L1223 989Q1226 990 1229.5 995.0Q1233 1000 1240 1005L1242 1003Q1246 1007 1248.5 1011.0Q1251 1015 1253 1017Q1258 1014 1262 1014Q1266 1014 1269.0 1017.0Q1272 1020 1277 1023Q1279 1020 1281 1020H1287Q1289 1024 1292 1028L1294 1030Q1298 1030 1301 1031ZM1184 927Q1184 925 1184 926Q1184 926 1184 927ZM1393 1030Q1393 1030 1393.0 1030.0Q1393 1030 1393 1030ZM1816 640Q1811 635 1806 635L1798 637Q1797 637 1794.0 635.0Q1791 633 1790 633Q1787 633 1787 635Q1781 629 1777 629H1776Q1776 630 1774 630Q1771 630 1768 625L1764 620Q1763 620 1758.0 614.0Q1753 608 1755 595V592Q1754 590 1749 592Q1748 590 1747.0 587.5Q1746 585 1744 582Q1743 582 1735 590L1729 593L1723 602Q1716 606 1714.0 608.0Q1712 610 1711 610H1708Q1704 609 1704 606Q1704 604 1708.5 599.0Q1713 594 1715 594Q1715 594 1715 594Q1717 595 1718 595L1719 591Q1729 587 1729 580L1736 574Q1740 574 1743 568L1747 565L1751 545Q1753 545 1754.0 543.0Q1755 541 1759 531Q1760 530 1759 524Q1759 524 1758.5 524.0Q1758 524 1757 523Q1760 519 1757 512Q1758 508 1765 506Q1766 504 1772 498Q1773 499 1776 479Q1776 477 1781 475Q1782 464 1784.5 458.5Q1787 453 1793 444Q1795 431 1798 428Q1809 414 1810 407Q1817 406 1824 393Q1824 393 1823.5 393.0Q1823 393 1823 392Q1823 384 1837 367Q1851 351 1869 326Q1872 325 1884 313Q1890 311 1891 310Q1891 310 1891.0 310.0Q1891 310 1891 310Q1892 312 1892.0 312.5Q1892 313 1892 313Q1892 319 1886 321Q1875 338 1875 336Q1875 338 1877 338Q1878 338 1878 337H1879Q1881 337 1886 342Q1888 340 1891 339Q1891 339 1891.0 337.5Q1891 336 1892 334Q1893 333 1896.0 331.5Q1899 330 1903 326Q1904 322 1907.5 315.5Q1911 309 1918 305Q1917 304 1918 300Q1921 301 1924.5 297.0Q1928 293 1931 294Q1933 288 1935 285L1941 282Q1943 267 1951 267Q1951 267 1951 267Q1953 268 1954 268L1955 264Q1956 263 1958.0 262.0Q1960 261 1962 259V257Q1962 247 1974 246Q1975 244 1975 237H1980Q1983 234 1984.0 232.0Q1985 230 1989 228Q1988 217 2003 194Q1999 197 1996 197Q1995 197 1995 196Q1995 194 1995.0 192.0Q1995 190 1996 186Q1998 184 2001.5 181.0Q2005 178 2009 175Q2011 173 2013.5 170.5Q2016 168 2020 164Q2023 163 2030 153Q2032 151 2035.0 147.5Q2038 144 2040 140Q2048 138 2051.0 130.0Q2054 122 2070 116Q2074 111 2085 105Q2085 105 2087 99Q2093 97 2103 84Q2104 82 2114.5 74.5Q2125 67 2126 67H2130Q2130 67 2137.0 70.5Q2144 74 2154 80L2156 92L2153 98L2160 101Q2161 101 2161 104Q2161 109 2158 120Q2157 126 2156.5 131.5Q2156 137 2157 142L2137 170L2130 180Q2129 180 2125 182Q2114 192 2100 218Q2099 218 2099.0 217.5Q2099 217 2098 217Q2093 220 2089 230L2080 234Q2078 238 2074 242L2072 240L2069 250Q2064 254 2063.5 257.5Q2063 261 2060 265L2048 275Q2047 276 2036.5 283.0Q2026 290 2026 293Q2020 300 2010.5 310.5Q2001 321 1988 336Q1984 341 1977.5 347.5Q1971 354 1961 362Q1959 364 1954.0 369.5Q1949 375 1942 383Q1937 386 1930.0 391.0Q1923 396 1915 403Q1915 404 1912.0 406.0Q1909 408 1903 417H1900Q1897 421 1892.5 426.0Q1888 431 1883 439Q1881 439 1880 440Q1873 450 1865 455Q1865 456 1863.5 458.0Q1862 460 1857 463Q1857 465 1855.0 469.0Q1853 473 1847 476Q1846 477 1846 480H1843Q1840 483 1838 488Q1828 491 1829 498L1820 506Q1811 513 1802 525Q1801 528 1796 551Q1798 553 1796 562Q1793 572 1793.0 575.0Q1793 578 1793 579Q1793 584 1798.5 591.0Q1804 598 1804 602Q1807 604 1812 602Q1812 604 1816 605Q1819 612 1828 613L1831 609H1834Q1835 613 1839 613Q1841 613 1844.5 611.0Q1848 609 1849 609Q1849 609 1849 609Q1848 610 1852 611Q1853 610 1853 606H1861Q1881 606 1886 598Q1890 597 1895.0 595.0Q1900 593 1907 591Q1911 589 1912 585Q1911 585 1911 584H1922V579Q1924 578 1933 578L1937 572L1948 566Q1949 566 1952.5 565.0Q1956 564 1962 557Q1964 557 1966 556Q1972 552 1985 538L2004 528L2006 526H2015Q2014 530 2009 536L1996 545Q1983 554 1984 554H1983Q1983 553 1982 553Q1974 557 1972 563Q1969 563 1968 567Q1966 567 1963 568Q1963 568 1963.0 568.5Q1963 569 1962 571L1949 580Q1949 585 1941 587Q1938 587 1934 583L1928 587V588Q1928 593 1923.0 596.0Q1918 599 1915 597Q1916 598 1916 601Q1916 602 1911 609L1887 621H1886Q1886 620 1884 620Q1878 620 1872 626Q1869 627 1860.0 630.0Q1851 633 1850 633L1847 631H1834Q1830 631 1829.0 634.0Q1828 637 1826 637Q1825 637 1825 636H1823Q1817 636 1816 640ZM1821 492 1825 490Q1830 485 1835.5 478.0Q1841 471 1847 463Q1847 463 1850.0 460.0Q1853 457 1853 454Q1858 449 1864.0 443.5Q1870 438 1878 431L1882 424Q1883 423 1885.0 422.0Q1887 421 1889 419L1911 397Q1912 396 1912 393Q1919 388 1920 384Q1922 383 1927.0 378.0Q1932 373 1939 365Q1943 365 1949 356Q1951 355 1956 350Q1969 328 1969 327H1972L1987 311Q1991 307 1991 300Q2008 292 2010 280L2017 275Q2017 272 2024 265Q2024 265 2025.0 265.0Q2026 265 2027 264Q2029 261 2031.5 256.5Q2034 252 2038 245H2043L2046 238Q2048 234 2052.5 229.5Q2057 225 2062 218V214Q2065 214 2069 211Q2070 209 2071.0 206.5Q2072 204 2074 200Q2078 193 2084.5 184.0Q2091 175 2099 163Q2099 156 2107 146V143Q2108 142 2106 142Q2104 142 2102 144Q2077 163 2061.5 176.0Q2046 189 2041 195Q2038 196 2035 201Q2035 201 2032.5 204.0Q2030 207 2025 212Q2022 216 2016 215Q2015 223 2004.5 230.5Q1994 238 1993 244Q1983 249 1968 268Q1955 281 1932 310Q1926 313 1917 329L1910 335Q1910 339 1901 344Q1901 347 1897.0 351.0Q1893 355 1893 357Q1890 361 1883 367Q1883 367 1881 373Q1879 377 1876.0 379.5Q1873 382 1871 384Q1870 388 1870.0 390.0Q1870 392 1870 393Q1865 398 1859.5 407.0Q1854 416 1848 427Q1843 427 1840.0 436.0Q1837 445 1835 446Q1833 448 1830 449V453L1834 456Q1830 465 1824 466Q1824 470 1822 474Q1822 475 1824 475Q1822 480 1821.0 481.0Q1820 482 1818 484ZM2068 476Q2068 472 2076 464H2077Q2077 465 2078 465Q2079 465 2085.0 456.5Q2091 448 2092 448Q2095 448 2099 451V460Q2097 461 2094.0 464.5Q2091 468 2090 468Q2087 468 2084 465Q2083 465 2080 471L2071 476ZM2028 515Q2028 513 2024 512Q2031 508 2045 492Q2049 493 2052.0 486.0Q2055 479 2059 478H2064L2066 480Q2065 483 2063.0 487.0Q2061 491 2058 496H2057Q2054 496 2050.5 499.5Q2047 503 2047 505Q2047 506 2043.0 507.5Q2039 509 2032 515ZM2016 525V516Q2018 517 2019.0 517.5Q2020 518 2020 518Q2022 518 2022 516Q2024 518 2028 518Q2022 525 2016 525ZM2097 631Q2097 631 2090 627Q2087 627 2081.0 626.0Q2075 625 2063 619Q2061 618 2057.5 616.5Q2054 615 2050 612Q2049 607 2041 597H2039L2036 599Q2035 594 2030 590Q2030 586 2026 581Q2028 573 2026 563Q2024 557 2018 551L2021 547Q2023 543 2025.0 537.5Q2027 532 2029 525Q2030 521 2031.0 516.0Q2032 511 2034 504Q2033 503 2024.5 496.0Q2016 489 2010 492Q2011 490 2011.0 488.5Q2011 487 2011 487Q2011 486 2009.0 484.5Q2007 483 2007 481Q2007 481 2010.0 477.5Q2013 474 2014 474Q2016 474 2020.5 476.0Q2025 478 2027 478Q2028 478 2030.0 477.0Q2032 476 2033 476L2050 480Q2052 480 2056 478L2081 453Q2084 453 2084.5 451.5Q2085 450 2095 441Q2096 441 2098.5 440.0Q2101 439 2106 434L2109 429Q2138 409 2160 409H2167Q2165 411 2169 411Q2170 411 2172.0 410.0Q2174 409 2175 409L2181 413H2187Q2191 417 2191 417Q2192 417 2192 416H2193Q2191 416 2197 422Q2197 422 2192 438Q2189 440 2183.5 446.0Q2178 452 2176 452Q2175 452 2171.5 450.0Q2168 448 2166 448Q2165 448 2160.0 450.0Q2155 452 2153 454Q2152 455 2148.5 456.5Q2145 458 2125 465Q2126 472 2122 473Q2115 474 2113 478V479Q2118 484 2136 484Q2137 484 2138.5 483.0Q2140 482 2142 482Q2143 482 2144 483H2146Q2147 483 2149.0 481.5Q2151 480 2152 480Q2154 480 2164.0 483.0Q2174 486 2175 486Q2179 486 2181 481L2185 484H2190Q2191 484 2194 481V479Q2186 474 2182 474V466L2187 464Q2188 464 2189 465H2191L2200 462Q2203 468 2207 472Q2208 472 2208 470Q2211 471 2216.5 475.5Q2222 480 2224 480Q2225 480 2227.0 478.5Q2229 477 2231 476H2236Q2245 476 2256 472L2259 474Q2262 471 2266 471Q2268 471 2268 472H2269L2280 470Q2282 468 2287.0 467.0Q2292 466 2304 466Q2305 466 2305 465Q2309 463 2313.5 462.0Q2318 461 2324 460Q2325 459 2328.5 457.0Q2332 455 2341 453Q2343 453 2345.0 453.0Q2347 453 2351 452L2354 449Q2355 449 2355 450H2356Q2352 450 2370 442Q2371 443 2371.0 445.0Q2371 447 2372 450Q2369 450 2368 454Q2358 455 2354 462L2339 468Q2337 468 2334.5 468.0Q2332 468 2328 469L2319 474Q2318 474 2317.0 473.0Q2316 472 2315 472Q2316 472 2309.5 475.0Q2303 478 2298 478H2297Q2297 477 2296 477L2293 480Q2289 481 2282.5 481.0Q2276 481 2268 482Q2268 483 2267 484Q2269 484 2266.5 484.5Q2264 485 2259 486Q2256 486 2251.0 486.0Q2246 486 2239 487Q2238 487 2236 489L2249 504V507Q2249 507 2250.0 508.0Q2251 509 2256 517Q2259 523 2256 524Q2259 534 2259 531Q2259 532 2258.0 536.0Q2257 540 2255 547Q2253 550 2251.0 554.5Q2249 559 2247 565Q2244 569 2238.0 575.5Q2232 582 2222 592Q2222 593 2217.5 595.5Q2213 598 2208 605Q2202 608 2193.5 611.5Q2185 615 2174 620Q2170 621 2163.5 622.5Q2157 624 2149 625Q2146 626 2141.0 628.0Q2136 630 2128 630Q2111 630 2108 629ZM2106 621Q2106 622 2106.5 620.5Q2107 619 2108 619L2116 621Q2122 621 2123.5 619.5Q2125 618 2128 618H2132Q2135 619 2137 619Q2138 619 2140.0 617.5Q2142 616 2143 616Q2145 616 2145 617L2148 615H2161Q2161 615 2167.5 613.5Q2174 612 2180 608L2188 603Q2196 598 2202.0 595.5Q2208 593 2211 591Q2226 580 2231 567Q2231 564 2232.5 559.5Q2234 555 2234 554Q2234 550 2230 546Q2230 544 2230.5 540.0Q2231 536 2232 531L2230 529Q2228 521 2223 513Q2222 513 2221.0 512.0Q2220 511 2219 503L2214 499V494H2203Q2202 494 2201.0 493.0Q2200 492 2199 492H2194Q2183 497 2183 498H2184Q2184 498 2183 498L2175 495Q2175 495 2170.0 497.0Q2165 499 2159 499Q2158 499 2157.0 497.5Q2156 496 2154 496Q2153 496 2150.0 498.5Q2147 501 2146 501Q2144 501 2143.5 500.0Q2143 499 2142 499Q2141 499 2139.0 500.0Q2137 501 2136 501Q2136 501 2136 501Q2136 501 2129 497Q2129 505 2123 505Q2119 505 2119 498Q2115 499 2112.5 500.5Q2110 502 2107 502H2104L2101 499Q2100 502 2096 502Q2093 502 2092 501V498Q2091 499 2089.0 500.0Q2087 501 2085 502V503Q2085 508 2079.0 512.0Q2073 516 2062 522Q2062 523 2062.5 524.5Q2063 526 2063 527Q2063 537 2054 540L2045 567Q2047 567 2047 568L2058 601Q2059 601 2060 600H2063Q2066 600 2068.0 606.5Q2070 613 2074 613Q2075 613 2075 612H2076Q2075 612 2084 616Q2084 616 2090 618L2092 616Q2106 619 2106 621ZM2300 642Q2299 641 2299 639Q2299 635 2302.0 631.0Q2305 627 2305 627L2306 609Q2308 606 2314 601Q2314 598 2316 592Q2315 593 2315 583Q2317 581 2318 579Q2317 578 2317 561Q2317 562 2320 556Q2319 552 2320 546Q2322 542 2323.0 537.5Q2324 533 2323 529L2321 507Q2320 493 2321 492Q2319 487 2322 483Q2319 466 2300 453V448Q2301 448 2303.0 447.0Q2305 446 2306 446Q2307 446 2310.5 448.0Q2314 450 2315 450H2328Q2327 451 2334.5 460.5Q2342 470 2345 481Q2345 484 2346.5 488.0Q2348 492 2351 493Q2354 502 2354 512Q2354 516 2353.5 520.5Q2353 525 2352 530L2355 533Q2358 540 2358 548L2361 549L2382 518Q2382 517 2388 513Q2390 509 2394 505Q2399 505 2399.0 501.5Q2399 498 2409 490Q2412 476 2425 475V474Q2425 468 2430.0 467.5Q2435 467 2436 460L2445 454Q2446 452 2447.0 450.0Q2448 448 2450 445Q2451 444 2458 442Q2476 430 2476.5 429.0Q2477 428 2480 426Q2482 425 2484.0 424.0Q2486 423 2489 422Q2489 422 2491.0 418.5Q2493 415 2495 415Q2496 415 2496 416H2497Q2495 416 2508 409Q2511 407 2514.5 406.0Q2518 405 2522 404Q2528 394 2539 394Q2540 394 2540.5 395.0Q2541 396 2543 396Q2544 396 2545.5 395.0Q2547 394 2548 394Q2558 394 2563 405Q2571 423 2571 443V469Q2571 470 2573 472Q2573 474 2572 476L2577 510L2583 541Q2585 545 2588.0 549.5Q2591 554 2593 560L2596 562Q2601 564 2601 572L2613 577Q2618 582 2617 581L2629 575Q2631 576 2632.0 576.5Q2633 577 2633 577Q2635 577 2641.5 570.0Q2648 563 2649 560Q2651 560 2652 561Q2653 563 2653.5 564.0Q2654 565 2654 565Q2654 568 2634 588Q2633 588 2632.0 589.5Q2631 591 2630 591Q2628 591 2629 590H2628Q2626 590 2624 596L2611 605V609Q2600 613 2595.0 615.0Q2590 617 2591 617Q2587 617 2586.0 615.0Q2585 613 2584 613H2583Q2583 614 2582 614Q2576 614 2574 608L2573 609Q2569 609 2563.0 601.5Q2557 594 2555 592L2557 590Q2557 588 2553 587Q2550 575 2548 577Q2546 579 2545 566Q2546 564 2546.0 560.5Q2546 557 2547 553Q2542 544 2536 547Q2536 545 2534 539Q2535 537 2535.0 536.5Q2535 536 2535 536Q2532 531 2534 523L2536 514L2533 510V501Q2529 499 2527.0 496.5Q2525 494 2523 493V476Q2525 471 2526 470L2521 463V461Q2521 458 2519.0 453.5Q2517 449 2514 442Q2508 436 2502 436Q2501 436 2500.5 437.0Q2500 438 2498 438Q2498 438 2498 438Q2500 438 2495 436Q2493 438 2493 440Q2486 440 2483.0 443.0Q2480 446 2480 446Q2479 446 2479 445Q2480 444 2479 444Q2479 444 2465 456Q2463 456 2462 457Q2457 460 2457 463Q2444 467 2427 490Q2426 490 2422 492Q2415 500 2404.0 511.5Q2393 523 2379 538Q2376 541 2374.0 544.0Q2372 547 2363 559Q2362 560 2360.0 562.0Q2358 564 2356 566Q2356 569 2352.5 575.5Q2349 582 2349 593Q2349 595 2344.0 602.0Q2339 609 2339 613Q2339 615 2340 616Q2337 617 2331.5 620.0Q2326 623 2325 623Q2324 623 2323.5 622.0Q2323 621 2322 621Q2320 621 2316 625V627Q2316 630 2313 636Q2306 636 2306 642Q2302 643 2300 642ZM2710 634Q2707 634 2705 629Q2704 630 2704 631H2698L2695 625Q2694 626 2694 627Q2693 627 2691 625L2688 627Q2683 622 2677.5 613.5Q2672 605 2671 596Q2670 595 2667 595V587Q2671 586 2672 571L2675 567V562L2673 560L2677 557L2688 526L2698 515V512Q2710 504 2713 495Q2717 495 2717 491Q2730 487 2727 478Q2729 477 2729.5 477.0Q2730 477 2730 477Q2731 477 2734.0 478.5Q2737 480 2738 480Q2740 480 2741.5 479.0Q2743 478 2744 478Q2748 482 2749 482Q2754 482 2759 478Q2759 479 2760.0 481.0Q2761 483 2761 484Q2761 489 2757 493L2760 497Q2760 504 2748 519Q2736 532 2731 534Q2730 535 2729.0 537.5Q2728 540 2726 542H2724L2722 540L2712 553Q2712 557 2704 568Q2701 569 2699.5 568.5Q2698 568 2698 569V576Q2703 585 2702 588Q2699 594 2699 595Q2699 594 2705 603Q2704 604 2704 610Q2712 611 2725 619H2729Q2733 619 2734.5 617.5Q2736 616 2736 616Q2737 616 2737 617H2738Q2739 617 2743.0 613.0Q2747 609 2748 609Q2749 609 2749.0 610.0Q2749 611 2750 611Q2751 611 2754.0 610.0Q2757 609 2759 609V606Q2758 605 2759 605V606Q2760 607 2766 609L2765 605Q2768 604 2770 599Q2775 599 2779.5 597.5Q2784 596 2784 593H2792Q2792 595 2794 595Q2804 595 2805 582L2811 576Q2811 576 2813 578Q2817 574 2820 574Q2821 574 2821.5 575.0Q2822 576 2824 576Q2827 576 2830.0 573.0Q2833 570 2833 569Q2835 567 2838.0 565.0Q2841 563 2843 559L2849 562Q2848 561 2870 544Q2880 540 2880 538Q2884 538 2888 535V532L2902 525V531H2897Q2896 532 2896 537L2873 555Q2871 555 2872 554H2871Q2872 554 2862 564Q2860 566 2854 566Q2841 578 2844 577Q2844 577 2844 577Q2843 576 2842 576Q2841 577 2841 580H2840Q2836 580 2828 588Q2827 588 2825.0 588.0Q2823 588 2821 589Q2817 592 2811.5 596.5Q2806 601 2799 607H2793Q2786 613 2783 613H2780Q2779 612 2778 612Q2777 612 2770.5 616.0Q2764 620 2762 620H2761Q2761 619 2760 619Q2759 619 2752.5 622.5Q2746 626 2745 626H2744Q2744 625 2742 625Q2741 625 2739.5 626.0Q2738 627 2734 628Q2724 633 2728 633Q2727 633 2722.0 632.0Q2717 631 2715 631ZM2910 523Q2909 523 2908.5 521.5Q2908 520 2907 520L2921 505Q2925 505 2925 507Q2925 511 2918.5 516.5Q2912 522 2910 523ZM2779 443Q2771 443 2757 432Q2745 420 2745 413Q2757 408 2771.5 401.5Q2786 395 2802 387H2803Q2799 398 2792 405L2794 412V418L2789 424Q2789 443 2779 443ZM2935 646Q2927 641 2927 641Q2926 641 2925.5 642.0Q2925 643 2924 643Q2923 643 2921.0 642.0Q2919 641 2918 641H2909V638Q2899 634 2894.0 630.5Q2889 627 2882 620L2873 595Q2877 592 2877 588Q2877 587 2875.0 583.0Q2873 579 2873 578Q2873 576 2874.0 566.5Q2875 557 2884 541L2897 517Q2901 513 2905.0 507.5Q2909 502 2916 497Q2919 496 2934 480L2949 468Q2953 467 2959 458Q2972 453 2973 452Q2973 451 2973 451H2972Q2972 451 2973 451Q2973 451 2973 452Q2974 452 2975 454L2984 447H2993Q2995 447 3001.0 445.0Q3007 443 3008 443Q3011 443 3015 447H3025V451L3035 456Q3043 467 3045 467Q3045 476 3048 490Q3043 493 3039 500H3036Q3034 500 3031.5 498.0Q3029 496 3028 496Q3029 497 3025 498Q3024 497 3022.0 495.5Q3020 494 3020 493L3015 495Q3014 495 3008.5 492.5Q3003 490 3002 490Q3001 490 3000.5 491.5Q3000 493 2999 493Q2997 493 2998 492H2997Q2997 492 2995 494L2981 498Q2979 499 2976.0 501.5Q2973 504 2968 506H2965V500Q2967 499 2970.0 497.0Q2973 495 2977 493V491Q2972 486 2969 486Q2959 486 2945 500Q2944 500 2941.0 502.0Q2938 504 2931 512Q2929 512 2928 513Q2908 536 2909 540Q2908 541 2906 547L2902 549Q2904 552 2902 558L2892 579Q2892 586 2886 595Q2887 596 2887.5 597.5Q2888 599 2891 600Q2894 605 2899.0 615.0Q2904 625 2907 625Q2907 624 2910 623Q2910 626 2911 628L2916 631Q2917 631 2917.5 630.0Q2918 629 2919 629Q2919 629 2923 631H2938Q2938 633 2940 633Q2941 633 2941.5 632.0Q2942 631 2943 631Q2944 631 2945.5 632.0Q2947 633 2948 633Q2950 633 2954.5 630.0Q2959 627 2960 627H2962Q2962 628 2963 628L2977 625Q2980 624 2984.5 621.5Q2989 619 2990 619Q2992 619 2991.5 620.0Q2991 621 2993 621Q2990 620 3003 613L3022 606Q3028 602 3034 596L3049 589Q3052 588 3069 574L3078 570L3083 564Q3086 564 3087 563L3118 533Q3120 533 3122 532Q3122 532 3124.0 530.0Q3126 528 3132 524Q3132 527 3130 529Q3126 531 3121.0 536.0Q3116 541 3111 548Q3107 552 3100.5 559.0Q3094 566 3084 574L3039 604Q3032 608 3027.0 610.0Q3022 612 3019 613L3012 620Q2997 624 2989.5 628.5Q2982 633 2978 633H2977Q2977 632 2976 632Q2976 632 2972.0 634.5Q2968 637 2959 638Q2958 638 2958 641Q2952 639 2952 639Q2951 639 2948.0 641.0Q2945 643 2944 643H2942Q2942 642 2941 642Q2936 642 2935 646ZM3130 639Q3129 638 3127.5 636.0Q3126 634 3125 634H3124Q3124 635 3123 635Q3121 635 3119 626Q3118 625 3112 623Q3109 612 3105 611V584L3113 575Q3114 574 3112 568Q3113 566 3114.0 564.0Q3115 562 3117 560Q3117 557 3116 553Q3118 547 3122 544Q3122 538 3126 533Q3128 533 3137 521L3147 506Q3150 504 3159 495V491Q3162 489 3165 485Q3172 484 3175 479Q3175 478 3175.0 476.0Q3175 474 3176 472Q3178 471 3180.0 471.0Q3182 471 3185 470Q3187 464 3190 462Q3203 461 3209 448Q3210 448 3213.5 445.5Q3217 443 3218 443Q3218 443 3218 443Q3217 444 3221 445Q3223 443 3223 442Q3228 439 3232 439Q3237 433 3237 433Q3238 433 3238.5 434.0Q3239 435 3240 435Q3242 435 3247.5 432.5Q3253 430 3255 430H3256Q3255 431 3257 431Q3258 431 3259.5 429.5Q3261 428 3262 428Q3264 428 3266.0 429.5Q3268 431 3269 431Q3270 431 3270.5 430.0Q3271 429 3273 429Q3273 429 3273 429Q3271 429 3276 431Q3277 427 3281 427Q3283 427 3283.5 428.5Q3284 430 3286 430Q3287 430 3287 429H3289Q3291 429 3297 437Q3299 435 3299 435Q3306 440 3307 443V453L3305 451Q3299 453 3293 453Q3292 453 3291.5 452.0Q3291 451 3289 451Q3288 451 3286.5 452.0Q3285 453 3284 453Q3282 453 3280.5 452.0Q3279 451 3278 451Q3277 451 3277.0 452.0Q3277 453 3275 453H3274Q3275 452 3273 452Q3272 452 3261.5 457.0Q3251 462 3250 462Q3249 462 3247 459L3227 468L3220 466Q3219 466 3215.0 470.0Q3211 474 3209 474Q3208 474 3208 473H3207Q3203 473 3199.5 477.5Q3196 482 3189 484Q3188 485 3189 488Q3184 499 3176 502Q3175 503 3175 506H3168Q3167 507 3167 513Q3167 513 3165.5 513.0Q3164 513 3162 512Q3159 517 3161 522H3151Q3149 526 3146.0 531.5Q3143 537 3140 545Q3139 548 3136.5 552.5Q3134 557 3132 563Q3126 570 3122 580V589Q3122 590 3121.0 593.0Q3120 596 3120 598Q3125 603 3130 603Q3133 603 3137.5 601.5Q3142 600 3146 592L3149 594Q3157 591 3167 583Q3168 582 3172.0 581.0Q3176 580 3176 576Q3177 576 3178 577L3182 570Q3193 568 3194 558Q3196 558 3197 559L3204 553Q3204 551 3205 549Q3206 549 3207.0 548.5Q3208 548 3210 547L3216 536Q3219 533 3226 532Q3229 530 3231.5 527.0Q3234 524 3236 522Q3235 520 3234.0 518.0Q3233 516 3231 514Q3229 511 3233 509Q3231 510 3231 507V501Q3234 499 3238.5 497.0Q3243 495 3248 491Q3252 489 3253 489Q3253 489 3253 489Q3250 489 3255 491Q3257 486 3260.0 480.0Q3263 474 3266 466L3274 462Q3274 462 3276 468Q3268 479 3268 485Q3268 488 3278 491Q3278 491 3278.0 491.5Q3278 492 3277 493Q3281 496 3283.5 499.0Q3286 502 3287 504Q3280 514 3280 523L3282 525Q3281 526 3281 533Q3282 539 3283.5 545.5Q3285 552 3287 560L3294 570V573Q3294 587 3304 597L3307 595V598Q3313 600 3320 607H3331Q3334 611 3337 611Q3353 611 3353 603Q3353 603 3355 605Q3366 600 3388 572Q3403 554 3405 555L3409 556V560L3410 561Q3410 561 3402 572Q3402 576 3394 582Q3396 583 3394 585L3388 589L3390 592Q3380 595 3374.0 600.0Q3368 605 3369 607Q3367 607 3362 613Q3358 613 3358 617Q3356 615 3356 615L3353 617Q3353 617 3351.5 618.0Q3350 619 3348 621Q3347 621 3345.0 621.0Q3343 621 3341 622L3339 625H3334Q3333 624 3332 624Q3323 624 3318 629V625H3305V621Q3303 623 3302 623Q3300 623 3296.5 619.5Q3293 616 3289 617Q3284 609 3277.5 600.5Q3271 592 3269 594Q3269 593 3270 592Q3267 589 3266 583Q3259 575 3239 534Q3235 538 3229.0 545.0Q3223 552 3215 560Q3214 562 3213.0 564.5Q3212 567 3211 571L3204 575Q3204 577 3203.5 579.5Q3203 582 3202 586Q3201 586 3196.5 590.0Q3192 594 3188 594Q3187 594 3185 592Q3183 594 3180.0 597.5Q3177 601 3173 606Q3174 607 3179 607V611Q3179 612 3173 618L3175 620Q3172 622 3162 632Q3161 632 3158.5 632.0Q3156 632 3153 633Q3140 638 3145 638Q3142 638 3138 637H3132Q3130 637 3130 639Z" fill="currentColor" /></svg>