<svg viewBox="0 0 6210 1448" xmlns="http://www.w3.org/2000/svg"><path d="M248 1159Q202 1157 162.5 1146.0Q123 1135 93.0 1108.5Q63 1082 46.5 1035.0Q30 988 30 915Q30 844 49.5 792.0Q69 740 96.0 709.0Q123 678 145 671L140 652H123Q77 652 50.5 622.5Q24 593 23 543Q22 493 49.5 462.5Q77 432 123 432H398Q506 432 554.0 483.5Q602 535 602 617Q602 683 571.5 727.0Q541 771 480 780V795Q546 798 587.5 840.5Q629 883 629 966Q629 1056 577.0 1108.5Q525 1161 406 1160ZM221 710Q221 732 229.0 739.0Q237 746 259 746H351Q389 746 409.0 734.5Q429 723 429 689Q429 654 409.0 643.0Q389 632 351 632H259Q237 632 229.0 638.0Q221 644 221 667ZM221 911Q221 933 229.5 941.0Q238 949 261 949H364Q403 949 424.0 935.0Q445 921 445 885Q445 849 424.0 835.5Q403 822 364 822H261Q238 822 229.5 829.0Q221 836 221 858ZM819 1160Q745 1160 703.5 1120.0Q662 1080 662 1008Q662 936 710.0 903.5Q758 871 833 871Q877 871 913.0 877.0Q949 883 978 894H981V879Q981 856 964.0 842.5Q947 829 921 830Q896 830 878.5 833.0Q861 836 835 843Q787 855 752.0 841.0Q717 827 704 786Q692 743 709.5 714.0Q727 685 763 669Q794 654 832.5 644.0Q871 634 916 634Q1047 634 1108.5 697.5Q1170 761 1170 910V1065Q1170 1106 1145.0 1133.0Q1120 1160 1076 1160Q1028 1160 1004.5 1133.0Q981 1106 981 1067V1044H961Q961 1070 951.5 1097.0Q942 1124 912.5 1142.0Q883 1160 819 1160ZM829 941Q829 958 841.5 965.0Q854 972 896 972Q934 972 949.0 965.0Q964 958 964 941Q964 925 949.0 918.5Q934 912 896 912Q854 912 841.5 918.5Q829 925 829 941ZM1455 1366Q1394 1366 1351.5 1353.0Q1309 1340 1270 1313Q1236 1289 1222.0 1246.0Q1208 1203 1236 1159Q1254 1132 1276.5 1122.0Q1299 1112 1320.5 1113.5Q1342 1115 1358 1123Q1393 1140 1412.5 1147.5Q1432 1155 1457 1155Q1494 1155 1519.5 1129.0Q1545 1103 1545 1056V975H1527Q1520 1028 1486.5 1058.5Q1453 1089 1395 1089Q1351 1089 1309.0 1067.0Q1267 1045 1240.0 997.0Q1213 949 1213 870Q1213 754 1264.0 697.0Q1315 640 1396 640Q1452 640 1492.0 677.5Q1532 715 1532 782L1535 781V725Q1535 690 1557.5 663.5Q1580 637 1628 637Q1679 637 1701.5 663.5Q1724 690 1724 725L1725 1040Q1726 1144 1699.5 1217.0Q1673 1290 1613.5 1328.0Q1554 1366 1455 1366ZM1381 853Q1381 907 1453 907Q1500 907 1519.0 894.0Q1538 881 1538 853Q1538 824 1518.5 813.0Q1499 802 1452 802Q1418 802 1399.5 813.0Q1381 824 1381 853ZM1772 900Q1772 821 1803.5 761.0Q1835 701 1893.5 667.0Q1952 633 2033 633Q2096 633 2146.5 656.0Q2197 679 2226.0 717.5Q2255 756 2255 802Q2255 850 2227.0 870.0Q2199 890 2144 890H1934Q1934 916 1954.5 933.0Q1975 950 2024 950Q2049 950 2070.5 945.0Q2092 940 2114.5 935.5Q2137 931 2165 931Q2205 931 2231.0 959.5Q2257 988 2257 1038Q2257 1097 2196.5 1130.0Q2136 1163 2038 1163Q1969 1163 1908.5 1136.0Q1848 1109 1810.0 1050.5Q1772 992 1772 900ZM2096 857Q2111 857 2106 843Q2102 829 2082.0 814.0Q2062 799 2024 799Q1980 799 1958.5 818.0Q1937 837 1937 857ZM2396 1160Q2347 1160 2322.5 1134.0Q2298 1108 2298 1069V489Q2298 446 2322.5 417.5Q2347 389 2396 389Q2440 389 2464.0 417.5Q2488 446 2488 487V1069Q2488 1108 2464.0 1134.0Q2440 1160 2396 1160ZM2829 1160Q2780 1160 2751.5 1133.0Q2723 1106 2723 1054V913Q2723 807 2755.0 752.0Q2787 697 2836 673L2831 654H2814Q2768 654 2741.5 624.5Q2715 595 2714 544Q2713 494 2740.5 464.0Q2768 434 2814 434H3164Q3271 434 3271 534Q3271 579 3245.0 606.0Q3219 633 3164 633H2969Q2932 633 2932 676V748Q2979 735 3030.0 718.0Q3081 701 3128 701Q3178 701 3205.5 725.5Q3233 750 3233 800Q3233 849 3205.5 873.5Q3178 898 3128 899Q3081 900 3029.5 883.5Q2978 867 2931 854L2930 1054Q2930 1106 2902.5 1133.0Q2875 1160 2829 1160ZM3389 1160Q3315 1160 3273.5 1120.0Q3232 1080 3232 1008Q3232 936 3280.0 903.5Q3328 871 3403 871Q3447 871 3483.0 877.0Q3519 883 3548 894H3551V879Q3551 856 3534.0 842.5Q3517 829 3491 830Q3466 830 3448.5 833.0Q3431 836 3405 843Q3357 855 3322.0 841.0Q3287 827 3274 786Q3262 743 3279.5 714.0Q3297 685 3333 669Q3364 654 3402.5 644.0Q3441 634 3486 634Q3617 634 3678.5 697.5Q3740 761 3740 910V1065Q3740 1106 3715.0 1133.0Q3690 1160 3646 1160Q3598 1160 3574.5 1133.0Q3551 1106 3551 1067V1044H3531Q3531 1070 3521.5 1097.0Q3512 1124 3482.5 1142.0Q3453 1160 3389 1160ZM3399 941Q3399 958 3411.5 965.0Q3424 972 3466 972Q3504 972 3519.0 965.0Q3534 958 3534 941Q3534 925 3519.0 918.5Q3504 912 3466 912Q3424 912 3411.5 918.5Q3399 925 3399 941ZM4049 1163Q3996 1163 3953.5 1139.0Q3911 1115 3887.0 1070.5Q3863 1026 3863 966V790L3826 795Q3796 799 3773.0 774.0Q3750 749 3750 711Q3750 673 3773.0 648.5Q3796 624 3826 628L3863 633L3862 565Q3861 525 3885.0 501.5Q3909 478 3955 478Q4001 478 4026.0 501.5Q4051 525 4049 565L4047 633L4100 626Q4154 618 4182.0 645.5Q4210 673 4210 711Q4210 749 4182.5 776.5Q4155 804 4103 797L4047 790V939Q4047 952 4056.0 962.5Q4065 973 4078 969Q4093 965 4109.5 952.0Q4126 939 4152 939Q4191 939 4212.0 967.0Q4233 995 4233 1036Q4233 1068 4210.5 1097.5Q4188 1127 4147.0 1145.0Q4106 1163 4049 1163ZM4786 1163Q4679 1163 4605.0 1116.0Q4531 1069 4493.0 986.0Q4455 903 4455 795Q4455 688 4493.0 604.5Q4531 521 4605.0 473.5Q4679 426 4786 426Q4893 426 4966.5 473.5Q5040 521 5078.0 604.5Q5116 688 5116 795Q5116 903 5078.0 986.0Q5040 1069 4966.5 1116.0Q4893 1163 4786 1163ZM4581 779Q4581 810 4596.0 837.5Q4611 865 4655.0 881.5Q4699 898 4786 898Q4873 898 4916.5 881.5Q4960 865 4975.0 837.5Q4990 810 4990 779Q4990 747 4975.0 721.5Q4960 696 4916.5 680.5Q4873 665 4786 665Q4699 665 4655.0 680.5Q4611 696 4596.0 721.5Q4581 747 4581 779ZM5261 1160Q5217 1160 5190.5 1133.5Q5164 1107 5164 1068V737Q5164 695 5189.0 666.0Q5214 637 5261 637Q5307 637 5331.0 666.0Q5355 695 5355 739V789H5373Q5373 732 5393.5 699.0Q5414 666 5446.0 651.5Q5478 637 5510 637Q5587 637 5623.0 692.5Q5659 748 5659 850V1068Q5659 1107 5633.0 1133.5Q5607 1160 5563 1160Q5518 1160 5491.5 1133.5Q5465 1107 5465 1068V891Q5465 855 5451.5 835.0Q5438 815 5412 815Q5382 815 5368.5 837.0Q5355 859 5355 893V1068Q5355 1107 5330.0 1133.5Q5305 1160 5261 1160ZM5707 900Q5707 821 5738.5 761.0Q5770 701 5828.5 667.0Q5887 633 5968 633Q6031 633 6081.5 656.0Q6132 679 6161.0 717.5Q6190 756 6190 802Q6190 850 6162.0 870.0Q6134 890 6079 890H5869Q5869 916 5889.5 933.0Q5910 950 5959 950Q5984 950 6005.5 945.0Q6027 940 6049.5 935.5Q6072 931 6100 931Q6140 931 6166.0 959.5Q6192 988 6192 1038Q6192 1097 6131.5 1130.0Q6071 1163 5973 1163Q5904 1163 5843.5 1136.0Q5783 1109 5745.0 1050.5Q5707 992 5707 900ZM6031 857Q6046 857 6041 843Q6037 829 6017.0 814.0Q5997 799 5959 799Q5915 799 5893.5 818.0Q5872 837 5872 857Z" fill="currentColor" /></svg>