<svg viewBox="0 0 7039 1712" xmlns="http://www.w3.org/2000/svg"><path d="M420 731V797H145V731ZM305 797 337 747Q405 747 450.0 769.5Q495 792 517.5 829.0Q540 866 540 912Q540 1003 474.5 1047.0Q409 1091 288 1091Q261 1091 234.0 1089.5Q207 1088 181.0 1084.0Q155 1080 131 1074Q89 1062 89 1028V516Q89 500 97.5 491.0Q106 482 122 478Q156 468 194.5 464.5Q233 461 277 461Q390 461 453.0 501.5Q516 542 516 625Q516 667 495.5 702.5Q475 738 429.5 759.5Q384 781 308 781L299 731Q365 731 399.0 703.5Q433 676 433 627Q433 577 393.5 552.5Q354 528 277 528Q243 528 217.0 530.5Q191 533 169 537V1013Q193 1018 224.5 1021.0Q256 1024 288 1024Q371 1024 414.0 996.0Q457 968 457 910Q457 858 418.5 827.5Q380 797 305 797ZM839 1028Q881 1028 908.5 1019.5Q936 1011 948 1003V858L824 871Q772 875 747.0 894.0Q722 913 722 949Q722 986 751.5 1007.0Q781 1028 839 1028ZM838 605Q925 605 976.0 644.0Q1027 683 1027 767V1004Q1027 1026 1018.5 1037.5Q1010 1049 993 1059Q969 1072 929.0 1083.0Q889 1094 839 1094Q745 1094 693.5 1057.0Q642 1020 642 950Q642 885 685.5 850.5Q729 816 806 809L948 795V767Q948 717 918.0 694.0Q888 671 837 671Q796 671 758.5 683.0Q721 695 692 710Q684 703 677.5 693.5Q671 684 671 674Q671 648 700 634Q727 620 762.5 612.5Q798 605 838 605ZM1181 816 1261 828V1078Q1256 1080 1246.0 1082.5Q1236 1085 1224 1085Q1203 1085 1192.0 1076.5Q1181 1068 1181 1049ZM1261 866 1181 855V432Q1186 430 1196.5 427.5Q1207 425 1218 425Q1240 425 1250.5 433.5Q1261 442 1261 461ZM1848 849Q1848 923 1820.0 978.0Q1792 1033 1741.0 1063.0Q1690 1093 1621 1093Q1552 1093 1500.5 1063.0Q1449 1033 1421.0 978.0Q1393 923 1393 849Q1393 774 1421.5 719.5Q1450 665 1501.5 635.0Q1553 605 1621 605Q1689 605 1740.0 635.0Q1791 665 1819.5 719.5Q1848 774 1848 849ZM1621 671Q1554 671 1514.5 718.5Q1475 766 1475 849Q1475 933 1513.5 980.0Q1552 1027 1621 1027Q1689 1027 1727.5 979.5Q1766 932 1766 849Q1766 766 1727.5 718.5Q1689 671 1621 671ZM2401 849Q2401 923 2373.0 978.0Q2345 1033 2294.0 1063.0Q2243 1093 2174 1093Q2105 1093 2053.5 1063.0Q2002 1033 1974.0 978.0Q1946 923 1946 849Q1946 774 1974.5 719.5Q2003 665 2054.5 635.0Q2106 605 2174 605Q2242 605 2293.0 635.0Q2344 665 2372.5 719.5Q2401 774 2401 849ZM2174 671Q2107 671 2067.5 718.5Q2028 766 2028 849Q2028 933 2066.5 980.0Q2105 1027 2174 1027Q2242 1027 2280.5 979.5Q2319 932 2319 849Q2319 766 2280.5 718.5Q2242 671 2174 671ZM3070 731V797H2795V731ZM2955 797 2987 747Q3055 747 3100.0 769.5Q3145 792 3167.5 829.0Q3190 866 3190 912Q3190 1003 3124.5 1047.0Q3059 1091 2938 1091Q2911 1091 2884.0 1089.5Q2857 1088 2831.0 1084.0Q2805 1080 2781 1074Q2739 1062 2739 1028V516Q2739 500 2747.5 491.0Q2756 482 2772 478Q2806 468 2844.5 464.5Q2883 461 2927 461Q3040 461 3103.0 501.5Q3166 542 3166 625Q3166 667 3145.5 702.5Q3125 738 3079.5 759.5Q3034 781 2958 781L2949 731Q3015 731 3049.0 703.5Q3083 676 3083 627Q3083 577 3043.5 552.5Q3004 528 2927 528Q2893 528 2867.0 530.5Q2841 533 2819 537V1013Q2843 1018 2874.5 1021.0Q2906 1024 2938 1024Q3021 1024 3064.0 996.0Q3107 968 3107 910Q3107 858 3068.5 827.5Q3030 797 2955 797ZM3725 881H3645V789Q3645 729 3611.5 700.0Q3578 671 3525 671Q3486 671 3452.5 686.0Q3419 701 3396 722L3381 657Q3405 640 3444.5 622.5Q3484 605 3536 605Q3619 605 3672.0 650.0Q3725 695 3725 787ZM3326 816H3406V1078Q3401 1080 3391.0 1082.5Q3381 1085 3369 1085Q3348 1085 3337.0 1076.5Q3326 1068 3326 1049ZM3645 817 3725 818V1078Q3720 1080 3709.5 1082.5Q3699 1085 3688 1085Q3666 1085 3655.5 1076.5Q3645 1068 3645 1049ZM3406 855H3326V432Q3331 430 3341.5 427.5Q3352 425 3364 425Q3385 425 3395.5 433.5Q3406 442 3406 461ZM4040 1028Q4082 1028 4109.5 1019.5Q4137 1011 4149 1003V858L4025 871Q3973 875 3948.0 894.0Q3923 913 3923 949Q3923 986 3952.5 1007.0Q3982 1028 4040 1028ZM4039 605Q4126 605 4177.0 644.0Q4228 683 4228 767V1004Q4228 1026 4219.5 1037.5Q4211 1049 4194 1059Q4170 1072 4130.0 1083.0Q4090 1094 4040 1094Q3946 1094 3894.5 1057.0Q3843 1020 3843 950Q3843 885 3886.5 850.5Q3930 816 4007 809L4149 795V767Q4149 717 4119.0 694.0Q4089 671 4038 671Q3997 671 3959.5 683.0Q3922 695 3893 710Q3885 703 3878.5 693.5Q3872 684 3872 674Q3872 648 3901 634Q3928 620 3963.5 612.5Q3999 605 4039 605ZM4367 472Q4367 451 4382.0 436.5Q4397 422 4419 422Q4442 422 4456.0 436.5Q4470 451 4470 472Q4470 493 4456.0 507.5Q4442 522 4419 522Q4397 522 4382.0 507.5Q4367 493 4367 472ZM4379 816H4459V1078Q4454 1080 4444.0 1082.5Q4434 1085 4422 1085Q4401 1085 4390.0 1076.5Q4379 1068 4379 1049ZM4459 855H4379V620Q4384 618 4394.5 615.5Q4405 613 4417 613Q4438 613 4448.5 621.5Q4459 630 4459 650ZM4546 1226Q4570 1215 4587.0 1203.0Q4604 1191 4613.5 1169.5Q4623 1148 4623 1110V777H4703V1125Q4703 1183 4683.0 1215.5Q4663 1248 4637.0 1261.5Q4611 1275 4592 1275Q4567 1275 4557.5 1260.5Q4548 1246 4546 1226ZM4611 472Q4611 451 4626.0 436.5Q4641 422 4663 422Q4686 422 4700.0 436.5Q4714 451 4714 472Q4714 493 4700.0 507.5Q4686 522 4663 522Q4641 522 4626.0 507.5Q4611 493 4611 472ZM4703 866 4623 855V620Q4628 618 4638.5 615.5Q4649 613 4661 613Q4682 613 4692.5 621.5Q4703 630 4703 650ZM5023 1028Q5065 1028 5092.5 1019.5Q5120 1011 5132 1003V858L5008 871Q4956 875 4931.0 894.0Q4906 913 4906 949Q4906 986 4935.5 1007.0Q4965 1028 5023 1028ZM5022 605Q5109 605 5160.0 644.0Q5211 683 5211 767V1004Q5211 1026 5202.5 1037.5Q5194 1049 5177 1059Q5153 1072 5113.0 1083.0Q5073 1094 5023 1094Q4929 1094 4877.5 1057.0Q4826 1020 4826 950Q4826 885 4869.5 850.5Q4913 816 4990 809L5132 795V767Q5132 717 5102.0 694.0Q5072 671 5021 671Q4980 671 4942.5 683.0Q4905 695 4876 710Q4868 703 4861.5 693.5Q4855 684 4855 674Q4855 648 4884 634Q4911 620 4946.5 612.5Q4982 605 5022 605ZM5522 1028Q5564 1028 5591.5 1019.5Q5619 1011 5631 1003V858L5507 871Q5455 875 5430.0 894.0Q5405 913 5405 949Q5405 986 5434.5 1007.0Q5464 1028 5522 1028ZM5521 605Q5608 605 5659.0 644.0Q5710 683 5710 767V1004Q5710 1026 5701.5 1037.5Q5693 1049 5676 1059Q5652 1072 5612.0 1083.0Q5572 1094 5522 1094Q5428 1094 5376.5 1057.0Q5325 1020 5325 950Q5325 885 5368.5 850.5Q5412 816 5489 809L5631 795V767Q5631 717 5601.0 694.0Q5571 671 5520 671Q5479 671 5441.5 683.0Q5404 695 5375 710Q5367 703 5360.5 693.5Q5354 684 5354 674Q5354 648 5383 634Q5410 620 5445.5 612.5Q5481 605 5521 605ZM6256 775V877H6176V779Q6176 723 6144.5 697.0Q6113 671 6060 671Q6020 671 5989.0 681.0Q5958 691 5936 704V877H5856V708Q5856 687 5864.5 673.5Q5873 660 5894 647Q5920 632 5963.0 618.5Q6006 605 6060 605Q6151 605 6203.5 646.5Q6256 688 6256 775ZM5856 822H5936V1078Q5931 1080 5921.0 1082.5Q5911 1085 5899 1085Q5878 1085 5867.0 1076.5Q5856 1068 5856 1049ZM6176 822H6256V1078Q6251 1080 6240.5 1082.5Q6230 1085 6219 1085Q6197 1085 6186.5 1076.5Q6176 1068 6176 1049ZM6588 535Q6588 517 6611.0 499.5Q6634 482 6673.0 471.0Q6712 460 6758 460Q6822 460 6868.0 481.5Q6914 503 6939.0 542.0Q6964 581 6964 634Q6964 689 6933.5 742.0Q6903 795 6829 863L6666 1014H6963Q6967 1018 6970.0 1026.5Q6973 1035 6973 1046Q6973 1062 6964.5 1071.0Q6956 1080 6942 1080H6589Q6579 1073 6574.0 1062.5Q6569 1052 6569 1040Q6569 1024 6575.0 1011.5Q6581 999 6593 988L6773 815Q6835 757 6858.0 717.5Q6881 678 6881 635Q6881 588 6849.0 558.0Q6817 528 6752 528Q6708 528 6673.5 543.0Q6639 558 6616 575Q6605 570 6596.5 560.0Q6588 550 6588 535Z" fill="currentColor" /></svg>