<svg viewBox="0 0 6537 1564" xmlns="http://www.w3.org/2000/svg"><path d="M420 729V795H145V729ZM305 795 337 745Q405 745 450.0 767.5Q495 790 517.5 827.0Q540 864 540 910Q540 1001 474.5 1045.0Q409 1089 288 1089Q261 1089 234.0 1087.5Q207 1086 181.0 1082.0Q155 1078 131 1072Q89 1060 89 1026V514Q89 498 97.5 489.0Q106 480 122 476Q156 466 194.5 462.5Q233 459 277 459Q390 459 453.0 499.5Q516 540 516 623Q516 665 495.5 700.5Q475 736 429.5 757.5Q384 779 308 779L299 729Q365 729 399.0 701.5Q433 674 433 625Q433 575 393.5 550.5Q354 526 277 526Q243 526 217.0 528.5Q191 531 169 535V1011Q193 1016 224.5 1019.0Q256 1022 288 1022Q371 1022 414.0 994.0Q457 966 457 908Q457 856 418.5 825.5Q380 795 305 795ZM839 1092Q745 1092 693.5 1055.0Q642 1018 642 948Q642 883 685.5 848.5Q729 814 806 807L948 793V765Q948 715 918.0 692.0Q888 669 837 669Q796 669 758.5 681.0Q721 693 692 708Q684 701 677.5 691.5Q671 682 671 672Q671 646 700 632Q727 618 762.5 610.5Q798 603 838 603Q925 603 976.0 642.0Q1027 681 1027 765V1002Q1027 1024 1018.5 1035.5Q1010 1047 993 1057Q969 1070 929.0 1081.0Q889 1092 839 1092ZM839 1026Q881 1026 908.5 1017.5Q936 1009 948 1001V856L824 869Q772 873 747.0 892.0Q722 911 722 947Q722 984 751.5 1005.0Q781 1026 839 1026ZM1181 814 1261 826V1076Q1256 1078 1246.0 1080.5Q1236 1083 1224 1083Q1203 1083 1192.0 1074.5Q1181 1066 1181 1047ZM1261 864 1181 853V430Q1186 428 1196.5 425.5Q1207 423 1218 423Q1240 423 1250.5 431.5Q1261 440 1261 459ZM1848 847Q1848 921 1820.0 976.0Q1792 1031 1741.0 1061.0Q1690 1091 1621 1091Q1552 1091 1500.5 1061.0Q1449 1031 1421.0 976.0Q1393 921 1393 847Q1393 772 1421.5 717.5Q1450 663 1501.5 633.0Q1553 603 1621 603Q1689 603 1740.0 633.0Q1791 663 1819.5 717.5Q1848 772 1848 847ZM1621 669Q1554 669 1514.5 716.5Q1475 764 1475 847Q1475 931 1513.5 978.0Q1552 1025 1621 1025Q1689 1025 1727.5 977.5Q1766 930 1766 847Q1766 764 1727.5 716.5Q1689 669 1621 669ZM2401 847Q2401 921 2373.0 976.0Q2345 1031 2294.0 1061.0Q2243 1091 2174 1091Q2105 1091 2053.5 1061.0Q2002 1031 1974.0 976.0Q1946 921 1946 847Q1946 772 1974.5 717.5Q2003 663 2054.5 633.0Q2106 603 2174 603Q2242 603 2293.0 633.0Q2344 663 2372.5 717.5Q2401 772 2401 847ZM2174 669Q2107 669 2067.5 716.5Q2028 764 2028 847Q2028 931 2066.5 978.0Q2105 1025 2174 1025Q2242 1025 2280.5 977.5Q2319 930 2319 847Q2319 764 2280.5 716.5Q2242 669 2174 669ZM2911 539 2906 470H3139Q3142 474 3145.0 483.0Q3148 492 3148 502Q3148 518 3140.0 528.5Q3132 539 3117 539ZM2913 470 2918 539H2684Q2681 534 2678.0 525.0Q2675 516 2675 506Q2675 489 2683.0 479.5Q2691 470 2706 470ZM2871 512H2952V1076Q2947 1078 2936.5 1080.5Q2926 1083 2915 1083Q2893 1083 2882.0 1074.0Q2871 1065 2871 1046ZM3649 879H3569V787Q3569 727 3535.5 698.0Q3502 669 3449 669Q3410 669 3376.5 684.0Q3343 699 3320 720L3305 655Q3329 638 3368.5 620.5Q3408 603 3460 603Q3543 603 3596.0 648.0Q3649 693 3649 785ZM3250 814H3330V1076Q3325 1078 3315.0 1080.5Q3305 1083 3293 1083Q3272 1083 3261.0 1074.5Q3250 1066 3250 1047ZM3569 815 3649 816V1076Q3644 1078 3633.5 1080.5Q3623 1083 3612 1083Q3590 1083 3579.5 1074.5Q3569 1066 3569 1047ZM3330 853H3250V430Q3255 428 3265.5 425.5Q3276 423 3288 423Q3309 423 3319.5 431.5Q3330 440 3330 459ZM3964 1092Q3870 1092 3818.5 1055.0Q3767 1018 3767 948Q3767 883 3810.5 848.5Q3854 814 3931 807L4073 793V765Q4073 715 4043.0 692.0Q4013 669 3962 669Q3921 669 3883.5 681.0Q3846 693 3817 708Q3809 701 3802.5 691.5Q3796 682 3796 672Q3796 646 3825 632Q3852 618 3887.5 610.5Q3923 603 3963 603Q4050 603 4101.0 642.0Q4152 681 4152 765V1002Q4152 1024 4143.5 1035.5Q4135 1047 4118 1057Q4094 1070 4054.0 1081.0Q4014 1092 3964 1092ZM3964 1026Q4006 1026 4033.5 1017.5Q4061 1009 4073 1001V856L3949 869Q3897 873 3872.0 892.0Q3847 911 3847 947Q3847 984 3876.5 1005.0Q3906 1026 3964 1026ZM4671 758V873H4591V764Q4591 715 4562.5 692.0Q4534 669 4487 669Q4456 669 4427.0 679.0Q4398 689 4378 702V873H4298V706Q4298 686 4306.5 672.0Q4315 658 4336 645Q4363 628 4404.5 615.5Q4446 603 4488 603Q4539 603 4578.0 618.5Q4617 634 4636 661Q4642 667 4646.0 672.0Q4650 677 4654 685Q4661 697 4666.0 716.0Q4671 735 4671 758ZM4964 760V873H4884V764Q4884 715 4856.0 692.0Q4828 669 4781 669Q4746 669 4713.5 683.5Q4681 698 4655 725L4623 667Q4649 641 4691.0 622.0Q4733 603 4787 603Q4841 603 4880.5 620.0Q4920 637 4942.0 672.0Q4964 707 4964 760ZM4298 820H4378V1076Q4373 1078 4363.0 1080.5Q4353 1083 4341 1083Q4320 1083 4309.0 1074.5Q4298 1066 4298 1047ZM4591 820H4671V1076Q4666 1078 4655.5 1080.5Q4645 1083 4634 1083Q4612 1083 4601.5 1074.5Q4591 1066 4591 1047ZM4884 820H4964V1076Q4959 1078 4948.5 1080.5Q4938 1083 4927 1083Q4905 1083 4894.5 1074.5Q4884 1066 4884 1047ZM5320 603Q5382 603 5431.5 629.5Q5481 656 5509.5 710.0Q5538 764 5538 847Q5538 931 5508.5 985.0Q5479 1039 5427.0 1065.0Q5375 1091 5306 1091Q5257 1091 5217.5 1079.0Q5178 1067 5153 1053Q5132 1039 5124.0 1027.0Q5116 1015 5116 994V661H5196V994Q5211 1005 5240.0 1015.0Q5269 1025 5306 1025Q5374 1025 5415.5 982.0Q5457 939 5457 847Q5457 754 5415.0 711.5Q5373 669 5308 669Q5268 669 5237.0 684.5Q5206 700 5186 720L5171 655Q5193 638 5230.0 620.5Q5267 603 5320 603ZM5196 677H5116V430Q5121 428 5131.5 425.5Q5142 423 5154 423Q5175 423 5185.5 431.5Q5196 440 5196 459ZM5656 470Q5656 449 5671.0 434.5Q5686 420 5708 420Q5731 420 5745.0 434.5Q5759 449 5759 470Q5759 491 5745.0 505.5Q5731 520 5708 520Q5686 520 5671.0 505.5Q5656 491 5656 470ZM5668 814H5748V1076Q5743 1078 5733.0 1080.5Q5723 1083 5711 1083Q5690 1083 5679.0 1074.5Q5668 1066 5668 1047ZM5748 853H5668V618Q5673 616 5683.5 613.5Q5694 611 5706 611Q5727 611 5737.5 619.5Q5748 628 5748 648ZM6086 533Q6086 515 6109.0 497.5Q6132 480 6171.0 469.0Q6210 458 6256 458Q6320 458 6366.0 479.5Q6412 501 6437.0 540.0Q6462 579 6462 632Q6462 687 6431.5 740.0Q6401 793 6327 861L6164 1012H6461Q6465 1016 6468.0 1024.5Q6471 1033 6471 1044Q6471 1060 6462.5 1069.0Q6454 1078 6440 1078H6087Q6077 1071 6072.0 1060.5Q6067 1050 6067 1038Q6067 1022 6073.0 1009.5Q6079 997 6091 986L6271 813Q6333 755 6356.0 715.5Q6379 676 6379 633Q6379 586 6347.0 556.0Q6315 526 6250 526Q6206 526 6171.5 541.0Q6137 556 6114 573Q6103 568 6094.5 558.0Q6086 548 6086 533Z" fill="currentColor" /></svg>