<svg viewBox="0 0 5093 672" xmlns="http://www.w3.org/2000/svg"><path d="M331 309V375H56V309ZM216 375 248 325Q316 325 361.0 347.5Q406 370 428.5 407.0Q451 444 451 490Q451 581 385.5 625.0Q320 669 199 669Q172 669 145.0 667.5Q118 666 92.0 662.0Q66 658 42 652Q0 640 0 606V94Q0 78 8.5 69.0Q17 60 33 56Q67 46 105.5 42.5Q144 39 188 39Q301 39 364.0 79.5Q427 120 427 203Q427 245 406.5 280.5Q386 316 340.5 337.5Q295 359 219 359L210 309Q276 309 310.0 281.5Q344 254 344 205Q344 155 304.5 130.5Q265 106 188 106Q154 106 128.0 108.5Q102 111 80 115V591Q104 596 135.5 599.0Q167 602 199 602Q282 602 325.0 574.0Q368 546 368 488Q368 436 329.5 405.5Q291 375 216 375ZM750 672Q656 672 604.5 635.0Q553 598 553 528Q553 463 596.5 428.5Q640 394 717 387L859 373V345Q859 295 829.0 272.0Q799 249 748 249Q707 249 669.5 261.0Q632 273 603 288Q595 281 588.5 271.5Q582 262 582 252Q582 226 611 212Q638 198 673.5 190.5Q709 183 749 183Q836 183 887.0 222.0Q938 261 938 345V582Q938 604 929.5 615.5Q921 627 904 637Q880 650 840.0 661.0Q800 672 750 672ZM750 606Q792 606 819.5 597.5Q847 589 859 581V436L735 449Q683 453 658.0 472.0Q633 491 633 527Q633 564 662.5 585.0Q692 606 750 606ZM1092 394 1172 406V656Q1167 658 1157.0 660.5Q1147 663 1135 663Q1114 663 1103.0 654.5Q1092 646 1092 627ZM1172 444 1092 433V10Q1097 8 1107.5 5.5Q1118 3 1129 3Q1151 3 1161.5 11.5Q1172 20 1172 39ZM1759 427Q1759 501 1731.0 556.0Q1703 611 1652.0 641.0Q1601 671 1532 671Q1463 671 1411.5 641.0Q1360 611 1332.0 556.0Q1304 501 1304 427Q1304 352 1332.5 297.5Q1361 243 1412.5 213.0Q1464 183 1532 183Q1600 183 1651.0 213.0Q1702 243 1730.5 297.5Q1759 352 1759 427ZM1532 249Q1465 249 1425.5 296.5Q1386 344 1386 427Q1386 511 1424.5 558.0Q1463 605 1532 605Q1600 605 1638.5 557.5Q1677 510 1677 427Q1677 344 1638.5 296.5Q1600 249 1532 249ZM2312 427Q2312 501 2284.0 556.0Q2256 611 2205.0 641.0Q2154 671 2085 671Q2016 671 1964.5 641.0Q1913 611 1885.0 556.0Q1857 501 1857 427Q1857 352 1885.5 297.5Q1914 243 1965.5 213.0Q2017 183 2085 183Q2153 183 2204.0 213.0Q2255 243 2283.5 297.5Q2312 352 2312 427ZM2085 249Q2018 249 1978.5 296.5Q1939 344 1939 427Q1939 511 1977.5 558.0Q2016 605 2085 605Q2153 605 2191.5 557.5Q2230 510 2230 427Q2230 344 2191.5 296.5Q2153 249 2085 249ZM2981 309V375H2706V309ZM2866 375 2898 325Q2966 325 3011.0 347.5Q3056 370 3078.5 407.0Q3101 444 3101 490Q3101 581 3035.5 625.0Q2970 669 2849 669Q2822 669 2795.0 667.5Q2768 666 2742.0 662.0Q2716 658 2692 652Q2650 640 2650 606V94Q2650 78 2658.5 69.0Q2667 60 2683 56Q2717 46 2755.5 42.5Q2794 39 2838 39Q2951 39 3014.0 79.5Q3077 120 3077 203Q3077 245 3056.5 280.5Q3036 316 2990.5 337.5Q2945 359 2869 359L2860 309Q2926 309 2960.0 281.5Q2994 254 2994 205Q2994 155 2954.5 130.5Q2915 106 2838 106Q2804 106 2778.0 108.5Q2752 111 2730 115V591Q2754 596 2785.5 599.0Q2817 602 2849 602Q2932 602 2975.0 574.0Q3018 546 3018 488Q3018 436 2979.5 405.5Q2941 375 2866 375ZM3636 459H3556V367Q3556 307 3522.5 278.0Q3489 249 3436 249Q3397 249 3363.5 264.0Q3330 279 3307 300L3292 235Q3316 218 3355.5 200.5Q3395 183 3447 183Q3530 183 3583.0 228.0Q3636 273 3636 365ZM3237 394H3317V656Q3312 658 3302.0 660.5Q3292 663 3280 663Q3259 663 3248.0 654.5Q3237 646 3237 627ZM3556 395 3636 396V656Q3631 658 3620.5 660.5Q3610 663 3599 663Q3577 663 3566.5 654.5Q3556 646 3556 627ZM3317 433H3237V10Q3242 8 3252.5 5.5Q3263 3 3275 3Q3296 3 3306.5 11.5Q3317 20 3317 39ZM3951 672Q3857 672 3805.5 635.0Q3754 598 3754 528Q3754 463 3797.5 428.5Q3841 394 3918 387L4060 373V345Q4060 295 4030.0 272.0Q4000 249 3949 249Q3908 249 3870.5 261.0Q3833 273 3804 288Q3796 281 3789.5 271.5Q3783 262 3783 252Q3783 226 3812 212Q3839 198 3874.5 190.5Q3910 183 3950 183Q4037 183 4088.0 222.0Q4139 261 4139 345V582Q4139 604 4130.5 615.5Q4122 627 4105 637Q4081 650 4041.0 661.0Q4001 672 3951 672ZM3951 606Q3993 606 4020.5 597.5Q4048 589 4060 581V436L3936 449Q3884 453 3859.0 472.0Q3834 491 3834 527Q3834 564 3863.5 585.0Q3893 606 3951 606ZM4278 50Q4278 29 4293.0 14.5Q4308 0 4330 0Q4353 0 4367.0 14.5Q4381 29 4381 50Q4381 71 4367.0 85.5Q4353 100 4330 100Q4308 100 4293.0 85.5Q4278 71 4278 50ZM4290 394H4370V656Q4365 658 4355.0 660.5Q4345 663 4333 663Q4312 663 4301.0 654.5Q4290 646 4290 627ZM4370 433H4290V198Q4295 196 4305.5 193.5Q4316 191 4328 191Q4349 191 4359.5 199.5Q4370 208 4370 228ZM4708 113Q4708 95 4731.0 77.5Q4754 60 4793.0 49.0Q4832 38 4878 38Q4942 38 4988.0 59.5Q5034 81 5059.0 120.0Q5084 159 5084 212Q5084 267 5053.5 320.0Q5023 373 4949 441L4786 592H5083Q5087 596 5090.0 604.5Q5093 613 5093 624Q5093 640 5084.5 649.0Q5076 658 5062 658H4709Q4699 651 4694.0 640.5Q4689 630 4689 618Q4689 602 4695.0 589.5Q4701 577 4713 566L4893 393Q4955 335 4978.0 295.5Q5001 256 5001 213Q5001 166 4969.0 136.0Q4937 106 4872 106Q4828 106 4793.5 121.0Q4759 136 4736 153Q4725 148 4716.5 138.0Q4708 128 4708 113Z" /></svg>