<svg viewBox="0 0 3595 640" xmlns="http://www.w3.org/2000/svg"><path d="M30 587 42 416V206L30 36L0 29L1 10Q170 6 201 6Q407 6 407 167Q407 260 326 300Q432 343 432.0 445.5Q432 548 369.0 583.0Q306 618 169 618Q104 618 1 613L0 594ZM121 417 130 551Q174 557 203 557Q339 557 339 443Q339 382 304.0 355.5Q269 329 188 329Q182 329 121 332ZM121 207V274Q153 277 180 277Q253 277 284 251Q314 226 314 171Q314 66 193 66Q168 66 130 72ZM567 189 576 211Q640 200 685 200Q770 200 815.5 235.5Q861 271 861 338L859 437L868 587L902 594L901 613L777 622V581Q718 629 657.0 629.0Q596 629 561.5 596.0Q527 563 527.0 505.0Q527 447 577.0 418.5Q627 390 784 364V338Q784 299 761.5 277.5Q739 256 695.0 256.0Q651 256 582 285L578 322L561 323L551 189ZM777 529 782 421Q679 440 645.5 455.5Q612 471 612.0 502.0Q612 533 633.0 553.0Q654 573 693.5 573.0Q733 573 777 529ZM988 11 1117 0 1107 188V437L1115 588L1145 595L1144 614H992L991 595L1021 588L1030 437V188L1021 37L987 30ZM1263 506 1267 264 1215 266V233L1267 215L1322 115H1338L1344 215H1445L1440 258L1344 262V487Q1344 551 1357.0 569.5Q1370 588 1416 588H1455L1457 605Q1420 629 1365.0 629.0Q1310 629 1286.5 601.0Q1263 573 1263 506ZM1497 614 1496 595 1526 588 1535 434V188L1526 37L1492 30L1493 11L1622 0L1612 188V257Q1682 200 1747.5 200.0Q1813 200 1845.5 238.0Q1878 276 1878 344V436L1886 588L1916 595L1915 614H1750L1749 593L1792 588L1801 436V348Q1801 310 1779.5 289.5Q1758 269 1712.0 269.0Q1666 269 1612 309V434L1621 588L1666 593L1665 614ZM2036 189 2045 211Q2109 200 2154 200Q2239 200 2284.5 235.5Q2330 271 2330 338L2328 437L2337 587L2371 594L2370 613L2246 622V581Q2187 629 2126.0 629.0Q2065 629 2030.5 596.0Q1996 563 1996.0 505.0Q1996 447 2046.0 418.5Q2096 390 2253 364V338Q2253 299 2230.5 277.5Q2208 256 2164.0 256.0Q2120 256 2051 285L2047 322L2030 323L2020 189ZM2246 529 2251 421Q2148 440 2114.5 455.5Q2081 471 2081.0 502.0Q2081 533 2102.0 553.0Q2123 573 2162.5 573.0Q2202 573 2246 529ZM2478 184 2487 206 2692 215 2779 209 2782 223 2568 559H2678L2746 552L2762 515L2780 519L2752 640H2732L2733 618L2530 609L2450 618L2446 602L2660 265H2575L2493 275L2489 311L2472 312L2462 184ZM2892 189 2901 211Q2965 200 3010 200Q3095 200 3140.5 235.5Q3186 271 3186 338L3184 437L3193 587L3227 594L3226 613L3102 622V581Q3043 629 2982.0 629.0Q2921 629 2886.5 596.0Q2852 563 2852.0 505.0Q2852 447 2902.0 418.5Q2952 390 3109 364V338Q3109 299 3086.5 277.5Q3064 256 3020.0 256.0Q2976 256 2907 285L2903 322L2886 323L2876 189ZM3102 529 3107 421Q3004 440 2970.5 455.5Q2937 471 2937.0 502.0Q2937 533 2958.0 553.0Q2979 573 3018.5 573.0Q3058 573 3102 529ZM3313 216 3442 205 3438 271Q3464 229 3485.0 214.5Q3506 200 3536.0 200.0Q3566 200 3595 205L3590 321H3573L3566 278Q3537 268 3517.5 268.0Q3498 268 3481.0 278.0Q3464 288 3436 319L3432 393V437L3440 588L3500 595L3499 614H3317L3316 595L3346 588L3355 437V393L3346 242L3312 235Z" /></svg>