<svg viewBox="0 0 4207 993" xmlns="http://www.w3.org/2000/svg"><path d="M481 762Q434 762 389 756Q387 756 387 754Q387 749 396.5 738.0Q406 727 417.5 717.5Q429 708 434 708Q442 708 451.5 709.5Q461 711 470 712Q490 714 511.0 715.5Q532 717 553 717Q588 717 625.5 710.5Q663 704 691 682Q715 662 739.5 633.0Q764 604 764 571Q764 537 739.5 514.0Q715 491 678.0 477.5Q641 464 604.0 458.5Q567 453 541 453Q525 453 510.0 455.0Q495 457 479 459H477Q473 459 473 455Q473 450 479.5 440.5Q486 431 494.5 423.0Q503 415 507 415Q545 415 587.5 406.0Q630 397 671.0 381.0Q712 365 743 345Q767 330 798.5 306.0Q830 282 853.0 252.5Q876 223 876 191Q876 158 851.5 134.5Q827 111 791.0 95.0Q755 79 718.5 69.5Q682 60 657 56Q623 51 589.5 48.5Q556 46 521 46Q480 46 429.0 51.5Q378 57 325.5 69.5Q273 82 226.0 104.0Q179 126 145.0 159.5Q111 193 99 240Q96 253 96 267Q96 292 106.0 313.5Q116 335 141 344H144Q152 344 159.5 342.5Q167 341 174 341Q175 341 178.0 341.5Q181 342 181 344Q181 351 170.0 354.5Q159 358 154 358Q137 358 125.0 350.0Q113 342 106 342Q105 342 104.0 342.5Q103 343 103 343Q101 345 100.0 348.0Q99 351 95 351Q89 351 84.0 340.5Q79 330 76.0 317.0Q73 304 73 299Q73 278 78 255Q91 198 127.5 155.5Q164 113 216.0 83.0Q268 53 327.0 35.0Q386 17 445.5 8.5Q505 0 556 0Q629 0 699 15Q729 21 766.0 34.0Q803 47 837.0 67.0Q871 87 893.5 115.5Q916 144 916 181Q916 220 891.0 253.5Q866 287 831.5 313.0Q797 339 767 357Q757 363 738.5 373.5Q720 384 698.0 395.5Q676 407 657.5 414.5Q639 422 629 422Q658 423 690.5 430.0Q723 437 751.5 452.0Q780 467 798.0 491.5Q816 516 816 552Q816 585 798.5 612.5Q781 640 755 660Q690 709 627.0 735.5Q564 762 481 762ZM76 848Q65 848 50.0 847.0Q35 846 26 841Q22 838 11.0 831.5Q0 825 0 819Q0 812 5.5 812.5Q11 813 11 805Q11 797 8.0 789.0Q5 781 5 773Q5 764 10.0 748.5Q15 733 26 733Q29 733 29 736Q29 746 23.5 755.0Q18 764 18 773Q18 787 29.5 800.0Q41 813 57.5 821.5Q74 830 87 830Q92 830 98.0 830.0Q104 830 109 829Q160 822 205.0 779.5Q250 737 288.5 671.5Q327 606 359.5 529.5Q392 453 418.5 377.0Q445 301 465.0 236.0Q485 171 498 131Q503 115 509.0 105.5Q515 96 528 86Q546 72 570.0 65.5Q594 59 616 59Q618 59 622.5 60.0Q627 61 627 64Q627 68 620.0 69.5Q613 71 611 71Q597 71 581.0 94.0Q565 117 549.0 152.0Q533 187 519.0 224.5Q505 262 495.0 292.0Q485 322 481 333Q468 370 455.0 406.5Q442 443 428 479Q413 521 396.0 562.5Q379 604 357 643Q326 699 291.5 745.5Q257 792 209.5 819.5Q162 847 90 848ZM901 719Q843 719 843 660Q843 616 861.0 565.5Q879 515 908.0 468.5Q937 422 969 393Q1007 360 1058 360Q1070 360 1087.5 363.0Q1105 366 1118.0 374.5Q1131 383 1131 399Q1131 422 1114.0 451.5Q1097 481 1083 499Q1088 500 1095.5 502.0Q1103 504 1103 510Q1103 513 1098 513Q1089 513 1080.0 511.0Q1071 509 1062 509Q1028 509 992.5 519.0Q957 529 925 540Q915 564 907.5 593.0Q900 622 900 648Q900 667 907.5 682.0Q915 697 937 697Q964 697 992.5 681.5Q1021 666 1047.5 641.5Q1074 617 1095.0 590.0Q1116 563 1128 541Q1129 542 1129 545Q1129 554 1118.0 569.5Q1107 585 1095.5 600.0Q1084 615 1082 622Q1081 629 1078.5 634.0Q1076 639 1073 645Q1056 662 1024.5 679.5Q993 697 959.5 708.0Q926 719 901 719ZM939 508Q965 503 990.5 500.0Q1016 497 1042 497Q1050 497 1058.0 497.0Q1066 497 1074 498Q1082 481 1087.5 461.0Q1093 441 1093 422Q1093 407 1087.0 391.5Q1081 376 1061 376Q1042 376 1022.5 392.0Q1003 408 991 421Q975 440 962.5 462.5Q950 485 939 508ZM1144 717Q1128 717 1123.5 704.5Q1119 692 1119 679Q1119 632 1137.0 578.0Q1155 524 1184.0 474.5Q1213 425 1247 393Q1283 360 1332 360Q1352 360 1371.5 364.5Q1391 369 1410 377Q1427 365 1447.0 356.0Q1467 347 1488 347Q1493 347 1496 353V356Q1496 359 1493.5 358.5Q1491 358 1489 358Q1473 358 1454.0 382.5Q1435 407 1416.0 445.0Q1397 483 1381.5 525.0Q1366 567 1356.5 602.0Q1347 637 1347 655Q1347 662 1349.5 671.0Q1352 680 1361 680Q1366 680 1369.5 678.0Q1373 676 1377 674Q1399 661 1420.5 638.5Q1442 616 1460.5 589.5Q1479 563 1491 541Q1492 542 1492 545Q1492 551 1485.0 562.5Q1478 574 1469.0 587.0Q1460 600 1452.5 610.0Q1445 620 1445 622Q1444 629 1442.0 633.5Q1440 638 1436 645Q1423 658 1403.0 675.0Q1383 692 1361.5 704.5Q1340 717 1320 717Q1289 717 1289 684Q1289 664 1297.5 637.5Q1306 611 1317.5 584.5Q1329 558 1338 540Q1338 539 1338.0 537.0Q1338 535 1337 535Q1336 535 1334 537Q1322 553 1299.0 583.0Q1276 613 1248.5 643.5Q1221 674 1193.0 695.5Q1165 717 1144 717ZM1188 674Q1199 674 1215.5 659.5Q1232 645 1250.5 624.5Q1269 604 1283.5 585.0Q1298 566 1304 557Q1316 539 1331.5 512.0Q1347 485 1358.5 456.0Q1370 427 1370 407Q1370 376 1339 376Q1321 376 1301.0 392.0Q1281 408 1269 421Q1256 437 1239.5 467.0Q1223 497 1209.0 532.0Q1195 567 1185.5 599.0Q1176 631 1176 652Q1176 658 1178.0 666.0Q1180 674 1188 674ZM1648 718Q1630 718 1624.0 707.5Q1618 697 1618 681Q1618 655 1626.5 622.5Q1635 590 1642 565Q1616 605 1582.0 644.0Q1548 683 1504 706Q1497 710 1488.0 713.5Q1479 717 1471 717Q1457 717 1452.5 707.0Q1448 697 1448 686V682Q1448 666 1454.0 649.5Q1460 633 1465 618Q1473 595 1484.5 560.5Q1496 526 1505.5 491.0Q1515 456 1515 434Q1515 425 1512.5 417.0Q1510 409 1499 408Q1499 408 1497.5 408.0Q1496 408 1496 407Q1496 404 1506.5 400.5Q1517 397 1532.0 393.0Q1547 389 1560.0 386.5Q1573 384 1577 384Q1579 384 1584.5 385.0Q1590 386 1590 391Q1590 393 1589 394Q1579 418 1566.0 451.0Q1553 484 1540.5 520.5Q1528 557 1520.0 591.5Q1512 626 1512 653Q1512 658 1514.0 663.0Q1516 668 1522 668Q1533 668 1549.5 655.0Q1566 642 1573 635Q1610 596 1640.0 540.0Q1670 484 1686 433Q1691 418 1696.0 411.5Q1701 405 1714 395Q1730 384 1749.5 375.0Q1769 366 1789 366Q1791 366 1794.0 368.5Q1797 371 1797 374Q1797 376 1794.5 376.5Q1792 377 1790 377Q1777 377 1763.0 393.0Q1749 409 1736.0 434.0Q1723 459 1712.5 486.0Q1702 513 1694.5 535.5Q1687 558 1684 569Q1680 588 1675.5 607.0Q1671 626 1671 646Q1671 654 1673.5 666.5Q1676 679 1688 679Q1695 679 1702 674Q1724 661 1744.0 638.5Q1764 616 1781.0 589.5Q1798 563 1808 541Q1810 542 1810 545Q1810 553 1799.5 570.5Q1789 588 1778.5 603.5Q1768 619 1767 622Q1766 629 1764.5 633.5Q1763 638 1760 645Q1748 658 1728.5 675.0Q1709 692 1688.0 705.0Q1667 718 1648 718ZM2081 848Q2070 848 2055.0 847.0Q2040 846 2031 841Q2027 838 2016.0 831.5Q2005 825 2005 819Q2005 812 2010.5 812.5Q2016 813 2016 805Q2016 797 2013.0 789.0Q2010 781 2010 773Q2010 764 2015.0 748.5Q2020 733 2031 733Q2034 733 2034 736Q2034 744 2028.5 755.0Q2023 766 2023 773Q2023 787 2034.5 800.0Q2046 813 2062.5 821.5Q2079 830 2092 830Q2097 830 2103.0 830.0Q2109 830 2114 829Q2159 823 2199.0 788.5Q2239 754 2273.0 703.0Q2307 652 2335.0 594.5Q2363 537 2384.0 483.5Q2405 430 2418 392Q2416 387 2410.5 373.5Q2405 360 2405 356Q2405 345 2417.5 340.0Q2430 335 2438 334Q2455 283 2470.5 232.0Q2486 181 2503 131Q2508 115 2514.0 105.5Q2520 96 2533 86Q2551 72 2575.0 65.5Q2599 59 2621 59Q2623 59 2627.5 60.0Q2632 61 2632 64Q2632 68 2625.0 69.5Q2618 71 2616 71Q2602 71 2584.5 97.0Q2567 123 2549.5 162.5Q2532 202 2516.5 244.0Q2501 286 2490.0 319.0Q2479 352 2475 364Q2480 379 2486.5 394.0Q2493 409 2500 423Q2502 421 2505.5 418.0Q2509 415 2512 415Q2550 415 2592.5 406.0Q2635 397 2676.0 381.0Q2717 365 2748 345Q2772 330 2803.5 306.0Q2835 282 2858.0 252.5Q2881 223 2881 191Q2881 158 2856.5 134.5Q2832 111 2796.0 95.0Q2760 79 2723.5 69.5Q2687 60 2662 56Q2628 51 2594.5 48.5Q2561 46 2527 46Q2486 46 2435.0 51.5Q2384 57 2331.0 69.5Q2278 82 2231.0 104.0Q2184 126 2150.0 159.5Q2116 193 2104 240Q2101 253 2101 267Q2101 292 2111.0 313.5Q2121 335 2146 344H2149Q2157 344 2164.5 342.5Q2172 341 2179 341Q2180 341 2183.0 341.5Q2186 342 2186 344Q2186 351 2175.0 354.5Q2164 358 2159 358Q2142 358 2130.0 350.0Q2118 342 2111 342Q2110 342 2109.0 342.5Q2108 343 2108 343Q2106 345 2105.0 348.0Q2104 351 2100 351Q2094 351 2089.0 340.5Q2084 330 2081.0 317.0Q2078 304 2078 299Q2078 278 2083 255Q2096 198 2132.5 155.0Q2169 112 2221.0 82.5Q2273 53 2332.0 35.0Q2391 17 2450.5 8.5Q2510 0 2561 0Q2634 0 2704 15Q2734 21 2771.0 34.0Q2808 47 2842.0 67.0Q2876 87 2898.5 115.5Q2921 144 2921 181Q2921 222 2890.5 260.5Q2860 299 2811.5 332.5Q2763 366 2707.5 392.5Q2652 419 2601.0 435.5Q2550 452 2516 456Q2527 477 2546.0 508.5Q2565 540 2589.5 574.5Q2614 609 2642.0 639.0Q2670 669 2699.0 688.0Q2728 707 2755 707Q2779 707 2794.0 693.0Q2809 679 2818.5 658.5Q2828 638 2833 619Q2835 611 2836.5 602.0Q2838 593 2840 586H2842Q2844 586 2844 591Q2845 595 2845 601Q2845 611 2842 622Q2839 637 2838.0 652.0Q2837 667 2832 681Q2821 712 2798.5 730.5Q2776 749 2742 749Q2702 749 2665.0 728.0Q2628 707 2594.5 673.5Q2561 640 2532.5 599.5Q2504 559 2481.5 519.5Q2459 480 2444 449Q2427 498 2407.5 547.5Q2388 597 2362 643Q2330 699 2296.0 746.0Q2262 793 2215.0 820.5Q2168 848 2095 848ZM3053 285Q3045 285 3028.5 278.5Q3012 272 3012 262Q3012 261 3012.5 260.5Q3013 260 3013 259Q3018 249 3035.5 247.0Q3053 245 3062 241Q3082 233 3101.0 228.0Q3120 223 3137 210Q3141 212 3141 214Q3141 218 3132.5 225.0Q3124 232 3121 237Q3117 243 3103.5 254.5Q3090 266 3075.0 275.5Q3060 285 3053 285ZM2884 718Q2868 718 2862.0 710.0Q2856 702 2856 687Q2856 654 2869.5 607.0Q2883 560 2900.0 511.5Q2917 463 2927 425Q2931 411 2946.5 405.5Q2962 400 2973 392Q2989 381 3007.0 373.5Q3025 366 3045 366Q3050 366 3051.5 368.0Q3053 370 3053 371Q3053 377 3046 377Q3032 377 3017.0 393.5Q3002 410 2987.0 436.0Q2972 462 2960.0 490.0Q2948 518 2939.0 541.5Q2930 565 2927 576Q2922 592 2917.0 613.5Q2912 635 2912 653Q2912 660 2914.0 669.5Q2916 679 2926 679Q2933 679 2941 674Q2963 661 2984.5 638.5Q3006 616 3024.5 589.5Q3043 563 3054 541Q3056 542 3056 545Q3056 551 3049.0 562.5Q3042 574 3033.0 587.0Q3024 600 3016.5 610.0Q3009 620 3009 622Q3008 630 3006.0 633.5Q3004 637 3000 645Q2988 657 2968.0 674.5Q2948 692 2926.0 705.0Q2904 718 2884 718ZM3052 716Q3036 716 3029.5 706.0Q3023 696 3022.5 682.0Q3022 668 3022 656Q3022 637 3025.5 600.5Q3029 564 3036.0 523.5Q3043 483 3054.5 449.5Q3066 416 3082 404Q3098 392 3122.5 385.5Q3147 379 3166 379Q3168 379 3171.0 381.0Q3174 383 3175 385V388Q3174 391 3172.5 390.5Q3171 390 3169 390Q3150 390 3134.0 409.0Q3118 428 3106.0 455.0Q3094 482 3086.5 508.0Q3079 534 3076 548Q3072 567 3070.0 587.0Q3068 607 3068 627Q3068 637 3070.5 652.5Q3073 668 3087 668Q3101 668 3118.5 653.0Q3136 638 3146 628Q3191 580 3219.0 522.0Q3247 464 3267 403Q3270 394 3274.0 387.0Q3278 380 3287 375Q3291 373 3298.0 369.5Q3305 366 3309 366Q3315 366 3315 374Q3315 385 3305.5 405.0Q3296 425 3291 435Q3280 455 3261.0 489.5Q3242 524 3217.0 563.0Q3192 602 3164.0 636.5Q3136 671 3107.0 693.5Q3078 716 3052 716ZM3298 717Q3282 717 3277.5 704.5Q3273 692 3273 679Q3273 632 3291.0 578.0Q3309 524 3338.0 474.5Q3367 425 3401 393Q3437 360 3486 360Q3506 360 3525.5 364.5Q3545 369 3564 377Q3581 365 3601.0 356.0Q3621 347 3642 347Q3647 347 3650 353V356Q3650 359 3647.5 358.5Q3645 358 3643 358Q3627 358 3608.0 382.5Q3589 407 3570.0 445.0Q3551 483 3535.5 525.0Q3520 567 3510.5 602.0Q3501 637 3501 655Q3501 662 3503.5 671.0Q3506 680 3515 680Q3520 680 3523.5 678.0Q3527 676 3531 674Q3553 661 3574.5 638.5Q3596 616 3614.5 589.5Q3633 563 3645 541Q3646 542 3646 545Q3646 551 3639.0 562.5Q3632 574 3623.0 587.0Q3614 600 3606.5 610.0Q3599 620 3599 622Q3598 629 3596.0 633.5Q3594 638 3590 645Q3577 658 3557.0 675.0Q3537 692 3515.5 704.5Q3494 717 3474 717Q3443 717 3443 684Q3443 664 3451.5 637.5Q3460 611 3471.5 584.5Q3483 558 3492 540Q3492 539 3492.0 537.0Q3492 535 3491 535Q3490 535 3488 537Q3476 553 3453.0 583.0Q3430 613 3402.5 643.5Q3375 674 3347.0 695.5Q3319 717 3298 717ZM3342 674Q3353 674 3369.5 659.5Q3386 645 3404.5 624.5Q3423 604 3437.5 585.0Q3452 566 3458 557Q3470 539 3485.5 512.0Q3501 485 3512.5 456.0Q3524 427 3524 407Q3524 376 3493 376Q3475 376 3455.0 392.0Q3435 408 3423 421Q3410 437 3393.5 467.0Q3377 497 3363.0 532.0Q3349 567 3339.5 599.0Q3330 631 3330 652Q3330 658 3332.0 666.0Q3334 674 3342 674ZM3490 993Q3484 993 3467.0 988.0Q3450 983 3435.5 975.0Q3421 967 3421 959Q3421 957 3425 957Q3431 959 3434 959Q3435 959 3439 957Q3435 951 3435 945Q3435 940 3438 939Q3436 933 3433.0 927.5Q3430 922 3427 916Q3425 912 3418.0 903.5Q3411 895 3411 891Q3411 888 3413 882Q3434 911 3449.0 928.0Q3464 945 3485.0 952.5Q3506 960 3544 960Q3588 960 3626.5 928.0Q3665 896 3696.5 845.5Q3728 795 3752.5 737.0Q3777 679 3794.5 625.5Q3812 572 3821 537Q3809 553 3786.0 583.0Q3763 613 3735.0 643.5Q3707 674 3679.5 695.5Q3652 717 3631 717Q3615 717 3610.5 704.5Q3606 692 3606 679Q3606 633 3624.0 578.5Q3642 524 3671.0 474.0Q3700 424 3734 393Q3772 360 3819 360Q3839 360 3858.5 364.5Q3878 369 3897 377Q3914 365 3934.0 356.0Q3954 347 3975 347Q3980 347 3983 353V356Q3982 359 3980.0 358.5Q3978 358 3976 358Q3957 358 3940.5 379.0Q3924 400 3911.0 430.5Q3898 461 3889.0 489.0Q3880 517 3876 531Q3854 610 3821.5 691.5Q3789 773 3737 839Q3725 854 3712.0 868.5Q3699 883 3685 897Q3646 937 3597.0 965.0Q3548 993 3490 993ZM3675 674Q3686 674 3702.5 659.5Q3719 645 3737.5 624.5Q3756 604 3770.5 585.0Q3785 566 3791 557Q3803 539 3818.5 512.0Q3834 485 3845.5 456.0Q3857 427 3857 407Q3857 376 3826 376Q3808 376 3788.0 392.0Q3768 408 3756 421Q3743 437 3726.5 467.0Q3710 497 3696.0 532.0Q3682 567 3672.5 599.0Q3663 631 3663 652Q3663 658 3665.5 666.0Q3668 674 3675 674ZM3977 719Q3919 719 3919 660Q3919 616 3937.0 565.5Q3955 515 3984.0 468.5Q4013 422 4045 393Q4083 360 4134 360Q4146 360 4163.5 363.0Q4181 366 4194.0 374.5Q4207 383 4207 399Q4207 422 4190.0 451.5Q4173 481 4159 499Q4164 500 4171.5 502.0Q4179 504 4179 510Q4179 513 4174 513Q4165 513 4156.0 511.0Q4147 509 4138 509Q4104 509 4068.5 519.0Q4033 529 4001 540Q3991 564 3983.5 593.0Q3976 622 3976 648Q3976 667 3983.5 682.0Q3991 697 4013 697Q4040 697 4068.5 681.5Q4097 666 4123.5 641.5Q4150 617 4171.0 590.0Q4192 563 4204 541Q4205 542 4205 545Q4205 554 4194.0 569.5Q4183 585 4171.5 600.0Q4160 615 4158 622Q4157 629 4154.5 634.0Q4152 639 4149 645Q4132 662 4100.5 679.5Q4069 697 4035.5 708.0Q4002 719 3977 719ZM4015 508Q4041 503 4066.5 500.0Q4092 497 4118 497Q4126 497 4134.0 497.0Q4142 497 4150 498Q4158 481 4163.5 461.0Q4169 441 4169 422Q4169 407 4163.0 391.5Q4157 376 4137 376Q4118 376 4098.5 392.0Q4079 408 4067 421Q4051 440 4038.5 462.5Q4026 485 4015 508Z" fill="currentColor" /></svg>