<svg viewBox="0 0 3656 1200" xmlns="http://www.w3.org/2000/svg"><path d="M41 200H207Q292 200 331.0 239.5Q370 279 370 361V389Q370 443 352.5 477.0Q335 511 299 526V528Q381 556 381 674V734Q381 815 338.5 857.5Q296 900 214 900H41ZM194 485Q227 485 243.5 468.0Q260 451 260 411V372Q260 334 246.5 317.0Q233 300 204 300H151V485ZM214 800Q243 800 257.0 784.5Q271 769 271 731V670Q271 622 254.5 603.5Q238 585 200 585H151V800ZM445 200H745V300H555V485H706V585H555V800H745V900H445ZM808 200H974Q1059 200 1098.0 239.5Q1137 279 1137 361V389Q1137 443 1119.5 477.0Q1102 511 1066 526V528Q1148 556 1148 674V734Q1148 815 1105.5 857.5Q1063 900 981 900H808ZM961 485Q994 485 1010.5 468.0Q1027 451 1027 411V372Q1027 334 1013.5 317.0Q1000 300 971 300H918V485ZM981 800Q1010 800 1024.0 784.5Q1038 769 1038 731V670Q1038 622 1021.5 603.5Q1005 585 967 585H918V800ZM1297 200H1446L1560 900H1450L1430 761V763H1305L1285 900H1183ZM1417 668 1368 322H1366L1318 668ZM1591 734V694H1695V742Q1695 810 1752 810Q1780 810 1794.5 793.5Q1809 777 1809 740Q1809 696 1789.0 662.5Q1769 629 1715 582Q1647 522 1620.0 473.5Q1593 425 1593 364Q1593 281 1635.0 235.5Q1677 190 1757 190Q1836 190 1876.5 235.5Q1917 281 1917 366V395H1813V359Q1813 323 1799.0 306.5Q1785 290 1758 290Q1703 290 1703 357Q1703 395 1723.5 428.0Q1744 461 1798 508Q1867 568 1893.0 617.0Q1919 666 1919 732Q1919 818 1876.5 864.0Q1834 910 1753 910Q1673 910 1632.0 864.5Q1591 819 1591 734ZM2142 200H2280L2387 619H2389V200H2487V900H2374L2242 389H2240V900H2142ZM2569 200H2869V300H2679V485H2830V585H2679V800H2869V900H2569ZM2928 734V200H3038V742Q3038 778 3052.5 794.0Q3067 810 3094 810Q3121 810 3135.5 794.0Q3150 778 3150 742V200H3256V734Q3256 819 3214.0 864.5Q3172 910 3092 910Q3012 910 2970.0 864.5Q2928 819 2928 734ZM3334 200H3634V300H3444V485H3595V585H3444V800H3634V900H3334Z" fill="currentColor" /></svg>