<svg viewBox="0 0 5036 1258" xmlns="http://www.w3.org/2000/svg"><path d="M553 783Q553 845 518.5 894.0Q484 943 419 964Q376 978 302 978Q196 978 152 973L100 967V273H320Q366 273 402 286Q459 306 490.5 350.0Q522 394 522 454Q522 500 503.5 535.0Q485 570 446 589Q436 594 416 600Q441 606 448 610Q497 640 525.0 684.0Q553 728 553 783ZM160 329V578H319Q383 578 422.5 545.0Q462 512 462 450Q462 395 428.5 364.5Q395 334 334 329ZM493 783Q493 717 449.0 675.0Q405 633 326 633H160V918L245 921L312 923Q397 923 445.0 887.0Q493 851 493 783ZM868 925Q911 925 947.5 914.0Q984 903 1027 878L1053 920Q1013 947 964.0 963.0Q915 979 864 979Q759 979 700.5 911.5Q642 844 642 734Q642 663 668.0 600.5Q694 538 745.0 499.0Q796 460 865 460Q923 460 970.5 487.5Q1018 515 1045.5 562.5Q1073 610 1073 668Q1073 684 1072.0 696.5Q1071 709 1070 718L1068 739H702Q703 809 736.0 867.0Q769 925 868 925ZM1012 685Q1013 678 1013 665Q1013 623 993.0 588.5Q973 554 939.0 534.0Q905 514 864 514Q803 514 759.5 558.5Q716 603 705 685ZM1194 242H1254V968H1194ZM1414 242H1474V968H1414ZM1600 719Q1600 644 1631.5 584.5Q1663 525 1718.5 491.5Q1774 458 1845 458Q1915 458 1970.5 491.5Q2026 525 2057.5 584.0Q2089 643 2089 718Q2089 793 2057.5 852.0Q2026 911 1970.5 944.5Q1915 978 1844 978Q1773 978 1717.5 945.0Q1662 912 1631.0 853.0Q1600 794 1600 719ZM2029 718Q2029 657 2006.0 610.5Q1983 564 1941.0 538.0Q1899 512 1845 512Q1790 512 1748.0 538.0Q1706 564 1683.0 611.5Q1660 659 1660 719Q1660 779 1683.0 825.5Q1706 872 1748.0 898.0Q1790 924 1845 924Q1928 924 1978.5 867.0Q2029 810 2029 718ZM2207 824V343H2267V468H2424V522H2267V824Q2267 887 2290.5 907.5Q2314 928 2349 928Q2370 928 2384.0 925.5Q2398 923 2415 913L2442 959Q2405 982 2350 982Q2278 982 2242.5 944.0Q2207 906 2207 824ZM2832 896Q2812 935 2772.5 956.5Q2733 978 2677 978Q2598 978 2550.5 936.0Q2503 894 2503 822Q2503 746 2556.5 704.0Q2610 662 2708 662H2824V626Q2824 566 2798.0 537.0Q2772 508 2718 508Q2678 508 2636.0 522.5Q2594 537 2561 562L2534 518Q2571 487 2619.5 470.5Q2668 454 2719 454Q2800 454 2842.0 495.5Q2884 537 2884 615V824Q2884 901 2923 943L2884 976Q2865 961 2853.5 943.0Q2842 925 2832 896ZM2824 791V716H2722Q2637 716 2600.0 740.5Q2563 765 2563 821Q2563 871 2593.0 897.5Q2623 924 2678 924Q2745 924 2784.5 887.0Q2824 850 2824 791ZM3509 340H3275V284H3803V340H3569V968H3509ZM4015 925Q4058 925 4094.5 914.0Q4131 903 4174 878L4200 920Q4160 947 4111.0 963.0Q4062 979 4011 979Q3906 979 3847.5 911.5Q3789 844 3789 734Q3789 663 3815.0 600.5Q3841 538 3892.0 499.0Q3943 460 4012 460Q4070 460 4117.5 487.5Q4165 515 4192.5 562.5Q4220 610 4220 668Q4220 684 4219.0 696.5Q4218 709 4217 718L4215 739H3849Q3850 809 3883.0 867.0Q3916 925 4015 925ZM4159 685Q4160 678 4160 665Q4160 623 4140.0 588.5Q4120 554 4086.0 534.0Q4052 514 4011 514Q3950 514 3906.5 558.5Q3863 603 3852 685ZM4594 944 4482 762 4353 968H4288L4446 718L4286 468H4353L4482 674L4607 468H4673L4520 716L4642 914Q4652 930 4676 930L4678 987Q4650 987 4630.5 976.5Q4611 966 4594 944ZM4776 824V343H4836V468H4993V522H4836V824Q4836 887 4859.5 907.5Q4883 928 4918 928Q4939 928 4953.0 925.5Q4967 923 4984 913L5011 959Q4974 982 4919 982Q4847 982 4811.5 944.0Q4776 906 4776 824Z" fill="currentColor" /></svg>