<svg viewBox="0 0 2931 752" xmlns="http://www.w3.org/2000/svg"><path d="M165 740H0Q13 737 28.0 717.5Q43 698 43 642V147Q43 95 29.0 75.5Q15 56 1 52H165Q229 52 262.5 57.5Q296 63 321 74Q365 95 389.0 133.0Q413 171 413 215Q413 282 372.5 330.5Q332 379 266 393Q311 398 351.5 419.0Q392 440 417.5 476.0Q443 512 443 558Q443 622 409.0 662.5Q375 703 317 723Q291 732 257.5 736.0Q224 740 165 740ZM184 92H115V376H196Q232 376 256.0 365.0Q280 354 298 336Q317 317 328.0 290.0Q339 263 339 235Q339 201 326.5 171.0Q314 141 289 122Q269 107 246.0 99.5Q223 92 184 92ZM187 416H115V700H210Q282 700 322.5 666.0Q363 632 363 558Q363 489 310 445Q291 430 263.0 423.0Q235 416 187 416ZM547 566Q547 504 571.5 459.0Q596 414 635.0 391.0Q674 368 716 368Q776 368 819.5 411.5Q863 455 867 532H607Q607 580 625.0 616.5Q643 653 673.5 672.5Q704 692 740 692Q834 692 867 632Q858 686 818.0 719.0Q778 752 720 752Q666 752 627.0 725.5Q588 699 567.5 656.5Q547 614 547 566ZM608 500H790Q790 454 765.5 427.5Q741 401 709 401Q670 401 642.0 428.5Q614 456 608 500ZM943 52H937L1051 0V640Q1051 684 1060.0 706.0Q1069 728 1080.0 735.5Q1091 743 1091 740H947Q947 743 958.0 735.5Q969 728 978.0 705.5Q987 683 987 640V125Q987 83 973.5 67.5Q960 52 943 52ZM1167 52H1161L1275 0V640Q1275 684 1284.0 706.0Q1293 728 1304.0 735.5Q1315 743 1315 740H1171Q1171 743 1182.0 735.5Q1193 728 1202.0 705.5Q1211 683 1211 640V125Q1211 83 1197.5 67.5Q1184 52 1167 52ZM1395 566Q1395 504 1419.5 459.0Q1444 414 1483.0 391.0Q1522 368 1564 368Q1624 368 1667.5 411.5Q1711 455 1715 532H1455Q1455 580 1473.0 616.5Q1491 653 1521.5 672.5Q1552 692 1588 692Q1682 692 1715 632Q1706 686 1666.0 719.0Q1626 752 1568 752Q1514 752 1475.0 725.5Q1436 699 1415.5 656.5Q1395 614 1395 566ZM1456 500H1638Q1638 454 1613.5 427.5Q1589 401 1557 401Q1518 401 1490.0 428.5Q1462 456 1456 500ZM1995 48Q1945 48 1922.0 83.5Q1899 119 1899 175V376H2003V416H1899V640Q1899 683 1908.0 705.5Q1917 728 1928.0 735.5Q1939 743 1939 740H1794Q1794 743 1805.5 735.5Q1817 728 1826.0 705.5Q1835 683 1835 640V416H1779V376H1835V237Q1835 167 1858.5 113.5Q1882 60 1924.5 30.0Q1967 0 2022 0Q2065 0 2090 9V87Q2072 69 2046.5 58.5Q2021 48 1995 48ZM2273 698Q2255 724 2225.5 738.0Q2196 752 2167 752Q2121 752 2090.0 725.5Q2059 699 2059 656Q2059 545 2267 545V534Q2267 479 2251 453Q2229 416 2179 416Q2140 416 2114.5 439.0Q2089 462 2089 499Q2083 489 2079.5 481.0Q2076 473 2076 459Q2076 423 2110.0 395.5Q2144 368 2199 368Q2277 368 2310 420Q2321 436 2326.0 460.0Q2331 484 2331 523V642Q2331 673 2348.5 690.0Q2366 707 2398 707H2411L2352 752Q2320 751 2298.0 735.0Q2276 719 2273 698ZM2131 649Q2131 677 2146.0 693.0Q2161 709 2186 709Q2205 709 2222.0 700.0Q2239 691 2251 675Q2267 654 2267 618V575Q2187 575 2159.0 595.0Q2131 615 2131 649ZM2447 416 2555 368V640Q2555 684 2564.0 706.0Q2573 728 2584.0 735.5Q2595 743 2595 740H2451Q2451 743 2462.0 735.5Q2473 728 2482.0 706.0Q2491 684 2491 640V489Q2491 447 2477.5 431.5Q2464 416 2447 416ZM2475 199Q2475 180 2487.5 165.5Q2500 151 2522 151Q2544 151 2556.5 165.5Q2569 180 2569 199Q2569 218 2556.5 232.5Q2544 247 2522 247Q2500 247 2487.5 232.5Q2475 218 2475 199ZM2898 368Q2920 368 2931 374V456Q2909 429 2869 429Q2827 429 2803.0 465.5Q2779 502 2779 559V640Q2779 696 2792.0 717.0Q2805 738 2817 740H2676Q2688 738 2701.5 717.5Q2715 697 2715 640V489Q2715 447 2701.5 431.5Q2688 416 2671 416L2779 368V459Q2794 427 2828.5 397.5Q2863 368 2898 368Z" fill="currentColor" /></svg>