<svg viewBox="0 0 6454 3350" xmlns="http://www.w3.org/2000/svg"><path d="M875 2390H531Q505 2390 495.0 2383.5Q485 2377 485 2352V1834Q485 1800 493.5 1790.0Q502 1780 534 1780H875Q961 1780 1034.0 1814.0Q1107 1848 1151.0 1914.5Q1195 1981 1195 2080Q1195 2179 1151.0 2248.0Q1107 2317 1034.0 2353.5Q961 2390 875 2390ZM534 1670Q504 1670 494.5 1664.5Q485 1659 485 1630V1155Q485 1130 490.5 1120.0Q496 1110 520 1110H855Q931 1110 999.5 1138.5Q1068 1167 1111.5 1229.0Q1155 1291 1155 1390Q1155 1489 1111.5 1550.5Q1068 1612 999.5 1641.0Q931 1670 855 1670ZM895 2500Q1056 2500 1172.5 2457.5Q1289 2415 1352.0 2322.5Q1415 2230 1415 2080Q1415 1937 1339.0 1853.5Q1263 1770 1126 1734Q1108 1729 1107.0 1721.0Q1106 1713 1128 1707Q1240 1675 1297.5 1597.5Q1355 1520 1355 1390Q1355 1260 1293.0 1173.5Q1231 1087 1118.5 1043.5Q1006 1000 855 1000H108Q89 1000 82.0 1006.0Q75 1012 75 1032V1074Q75 1099 83.0 1104.5Q91 1110 116 1110H250Q278 1110 286.5 1115.5Q295 1121 295 1148V2360Q295 2380 285.5 2385.0Q276 2390 255 2390H112Q91 2390 83.0 2395.5Q75 2401 75 2424V2468Q75 2491 84.0 2495.5Q93 2500 116 2500ZM1585 2000Q1585 2140 1638.5 2258.5Q1692 2377 1796.0 2448.5Q1900 2520 2051 2520Q2178 2520 2267.0 2476.0Q2356 2432 2412.0 2354.5Q2468 2277 2496 2175Q2499 2164 2495.0 2159.0Q2491 2154 2476 2154H2418Q2403 2154 2399.0 2160.5Q2395 2167 2391 2178Q2351 2288 2272.5 2355.0Q2194 2422 2075 2422Q1972 2422 1908.5 2364.5Q1845 2307 1816.0 2212.0Q1787 2117 1787 2007Q1787 1990 1795.5 1984.0Q1804 1978 1820 1978H2463Q2484 1978 2491.5 1973.5Q2499 1969 2499 1949Q2499 1878 2485.0 1805.5Q2471 1733 2440.0 1667.5Q2409 1602 2358.5 1550.5Q2308 1499 2235.5 1469.5Q2163 1440 2065 1440Q1904 1440 1797.5 1513.5Q1691 1587 1638.0 1713.5Q1585 1840 1585 2000ZM1819 1892Q1801 1892 1796.0 1887.0Q1791 1882 1791 1867Q1791 1788 1821.0 1710.0Q1851 1632 1912.0 1580.0Q1973 1528 2065 1528Q2126 1528 2170.0 1563.0Q2214 1598 2243.0 1652.5Q2272 1707 2286.0 1766.5Q2300 1826 2300 1876Q2300 1886 2295.5 1889.0Q2291 1892 2271 1892ZM3357 1771Q3362 1786 3365.5 1793.0Q3369 1800 3390 1800H3446Q3463 1800 3469.0 1795.5Q3475 1791 3475 1775V1468Q3475 1440 3449 1440H3404Q3385 1440 3379.0 1444.0Q3373 1448 3368 1462L3342 1541Q3334 1568 3330.5 1564.0Q3327 1560 3311 1544Q3271 1503 3202.0 1469.5Q3133 1436 3035 1436Q2950 1436 2879.5 1470.5Q2809 1505 2767.0 1570.5Q2725 1636 2725 1730Q2725 1835 2770.0 1897.0Q2815 1959 2885.5 1993.0Q2956 2027 3035.0 2047.5Q3114 2068 3184.5 2089.5Q3255 2111 3300.0 2148.0Q3345 2185 3345 2254Q3345 2330 3288.5 2375.0Q3232 2420 3127 2420Q3044 2420 2983.0 2394.0Q2922 2368 2880.0 2315.0Q2838 2262 2812 2181Q2808 2169 2802.5 2161.5Q2797 2154 2780 2154H2719Q2702 2154 2696.5 2160.5Q2691 2167 2691 2185V2493Q2691 2508 2696.0 2514.0Q2701 2520 2716 2520H2762Q2778 2520 2786.5 2513.5Q2795 2507 2799 2496L2822 2424Q2829 2404 2838.0 2404.5Q2847 2405 2863 2419Q2909 2459 2984.5 2491.5Q3060 2524 3157 2524Q3254 2524 3334.5 2485.5Q3415 2447 3463.0 2373.5Q3511 2300 3511 2196Q3511 2097 3465.5 2038.5Q3420 1980 3348.5 1947.5Q3277 1915 3196.5 1893.5Q3116 1872 3044.0 1849.0Q2972 1826 2926.5 1787.0Q2881 1748 2881 1678Q2881 1615 2924.5 1576.5Q2968 1538 3047 1538Q3148 1538 3234.5 1599.0Q3321 1660 3357 1771ZM3738 1050Q3761 1050 3768.0 1056.0Q3775 1062 3775 1084V2356Q3775 2380 3771.5 2385.0Q3768 2390 3744 2390H3620Q3602 2390 3598.5 2398.0Q3595 2406 3595 2424V2464Q3595 2488 3603.5 2494.0Q3612 2500 3634 2500H4088Q4114 2500 4124.5 2494.0Q4135 2488 4135 2460V2416Q4135 2400 4128.5 2395.0Q4122 2390 4108 2390H3986Q3958 2390 3956.5 2381.0Q3955 2372 3955 2346V976Q3955 950 3945.5 945.0Q3936 940 3910 940H3636Q3617 940 3606.0 944.5Q3595 949 3595 970V1008Q3595 1029 3600.0 1039.5Q3605 1050 3628 1050ZM4241 2000Q4241 2140 4294.5 2258.5Q4348 2377 4452.0 2448.5Q4556 2520 4707 2520Q4834 2520 4923.0 2476.0Q5012 2432 5068.0 2354.5Q5124 2277 5152 2175Q5155 2164 5151.0 2159.0Q5147 2154 5132 2154H5074Q5059 2154 5055.0 2160.5Q5051 2167 5047 2178Q5007 2288 4928.5 2355.0Q4850 2422 4731 2422Q4628 2422 4564.5 2364.5Q4501 2307 4472.0 2212.0Q4443 2117 4443 2007Q4443 1990 4451.5 1984.0Q4460 1978 4476 1978H5119Q5140 1978 5147.5 1973.5Q5155 1969 5155 1949Q5155 1878 5141.0 1805.5Q5127 1733 5096.0 1667.5Q5065 1602 5014.5 1550.5Q4964 1499 4891.5 1469.5Q4819 1440 4721 1440Q4560 1440 4453.5 1513.5Q4347 1587 4294.0 1713.5Q4241 1840 4241 2000ZM4475 1892Q4457 1892 4452.0 1887.0Q4447 1882 4447 1867Q4447 1788 4477.0 1710.0Q4507 1632 4568.0 1580.0Q4629 1528 4721 1528Q4782 1528 4826.0 1563.0Q4870 1598 4899.0 1652.5Q4928 1707 4942.0 1766.5Q4956 1826 4956 1876Q4956 1886 4951.5 1889.0Q4947 1892 4927 1892ZM5234 2762Q5234 2829 5263.5 2888.0Q5293 2947 5348.0 2983.5Q5403 3020 5480 3020Q5538 3020 5604.5 2995.5Q5671 2971 5735.5 2902.5Q5800 2834 5852 2704L6285 1612Q6295 1588 6301.0 1579.0Q6307 1570 6341 1570H6423Q6446 1570 6450.0 1561.0Q6454 1552 6454 1530V1484Q6454 1467 6447.0 1463.5Q6440 1460 6423 1460H6065Q6040 1460 6032.0 1467.0Q6024 1474 6024 1500V1534Q6024 1554 6029.5 1562.0Q6035 1570 6057 1570H6129Q6161 1570 6165.5 1576.0Q6170 1582 6162 1604L5930 2194Q5917 2229 5910.0 2247.0Q5903 2265 5895 2265Q5889 2265 5881.5 2250.5Q5874 2236 5860 2206L5588 1600Q5578 1579 5585.0 1574.5Q5592 1570 5623 1570H5717Q5746 1570 5753.0 1562.5Q5760 1555 5760 1525V1500Q5760 1474 5753.5 1467.0Q5747 1460 5723 1460H5245Q5231 1460 5224.5 1463.0Q5218 1466 5218 1480V1536Q5218 1557 5224.5 1563.5Q5231 1570 5253 1570H5339Q5369 1570 5375.5 1576.0Q5382 1582 5391 1602L5784 2470Q5798 2500 5798.5 2515.5Q5799 2531 5787 2562L5764 2620Q5717 2740 5666.0 2805.0Q5615 2870 5567.0 2895.0Q5519 2920 5480 2920Q5431 2920 5401.5 2893.0Q5372 2866 5372 2832Q5372 2816 5380.5 2806.5Q5389 2797 5401.5 2789.5Q5414 2782 5426.5 2773.5Q5439 2765 5447.5 2751.0Q5456 2737 5456 2714Q5456 2667 5428.5 2641.5Q5401 2616 5356 2616Q5325 2616 5297.0 2633.5Q5269 2651 5251.5 2683.5Q5234 2716 5234 2762Z" fill="currentColor" /></svg>