<svg viewBox="0 0 6560 1760" xmlns="http://www.w3.org/2000/svg"><path d="M596 963Q596 1067 573.0 1153.5Q550 1240 501.5 1303.0Q453 1366 378.0 1401.0Q303 1436 199 1436H0V1401H37Q52 1401 66.5 1394.5Q81 1388 92.5 1377.5Q104 1367 111.0 1352.5Q118 1338 119 1323L131 115Q132 86 124.5 70.5Q117 55 102.5 48.5Q88 42 68.5 41.5Q49 41 25 41V6H242Q320 6 385.0 24.0Q450 42 496.5 79.0Q543 116 568.5 171.5Q594 227 594 303Q594 348 581.0 398.0Q568 448 542.0 492.0Q516 536 478.0 568.0Q440 600 391 609Q450 627 489.5 665.0Q529 703 552.5 751.5Q576 800 586.0 855.5Q596 911 596 963ZM492 971Q492 940 489.5 902.0Q487 864 479.5 825.0Q472 786 459.0 749.0Q446 712 426.0 683.5Q406 655 377.5 638.0Q349 621 310 621H228L217 1385Q299 1383 352.5 1344.0Q406 1305 437.0 1245.0Q468 1185 480.0 1112.5Q492 1040 492 971ZM234 37 228 586H307Q342 586 370.0 571.5Q398 557 418.5 533.5Q439 510 453.0 479.0Q467 448 475.5 415.0Q484 382 488.0 349.5Q492 317 492 289Q492 161 426.0 99.0Q360 37 244 37ZM890 203Q890 229 871.0 249.0Q852 269 826 269Q800 269 780.0 249.0Q760 229 760 203Q760 177 780.0 158.5Q800 140 826 140Q852 140 871.0 158.5Q890 177 890 203ZM971 1151V1186H685V1149H779L781 535Q781 517 778.0 498.5Q775 480 767.0 464.5Q759 449 745.5 439.0Q732 429 711 428H668V394L887 398L879 1149ZM1234 824Q1244 834 1256.5 844.5Q1269 855 1280.0 866.5Q1291 878 1298.0 890.0Q1305 902 1305 914Q1305 936 1294.5 951.0Q1284 966 1271.5 979.0Q1259 992 1248.5 1006.0Q1238 1020 1238 1039Q1238 1063 1251.5 1079.5Q1265 1096 1281.0 1111.5Q1297 1127 1310.5 1145.0Q1324 1163 1324 1190Q1324 1215 1308.5 1246.0Q1293 1277 1270.0 1311.5Q1247 1346 1219.5 1383.0Q1192 1420 1169.0 1457.5Q1146 1495 1130.5 1532.0Q1115 1569 1115 1604Q1115 1632 1123.0 1656.0Q1131 1680 1147.0 1697.5Q1163 1715 1185.0 1725.0Q1207 1735 1236 1735Q1275 1735 1310.0 1718.5Q1345 1702 1371.0 1674.0Q1397 1646 1412.5 1609.5Q1428 1573 1428 1534Q1428 1518 1424.5 1500.5Q1421 1483 1412.5 1469.0Q1404 1455 1390.5 1445.5Q1377 1436 1357 1436Q1331 1436 1317.0 1457.5Q1303 1479 1303 1504H1269Q1268 1482 1274.5 1463.0Q1281 1444 1293.0 1430.0Q1305 1416 1322.0 1408.5Q1339 1401 1359 1401Q1386 1401 1405.5 1413.0Q1425 1425 1437.5 1444.0Q1450 1463 1456.5 1486.5Q1463 1510 1463 1534Q1463 1580 1446.5 1621.0Q1430 1662 1400.5 1693.0Q1371 1724 1331.0 1742.0Q1291 1760 1244 1760Q1202 1760 1162.5 1745.0Q1123 1730 1093.0 1703.0Q1063 1676 1045.0 1639.0Q1027 1602 1027 1559Q1027 1516 1043.5 1475.0Q1060 1434 1084.5 1396.5Q1109 1359 1137.5 1324.5Q1166 1290 1190.5 1259.0Q1215 1228 1231.5 1200.0Q1248 1172 1248 1147Q1248 1129 1234.5 1116.0Q1221 1103 1205.0 1089.5Q1189 1076 1175.5 1060.0Q1162 1044 1162 1018Q1162 999 1173.0 982.5Q1184 966 1197.5 950.0Q1211 934 1222.5 917.0Q1234 900 1234 879Q1234 860 1219.5 845.0Q1205 830 1191 818Q1151 808 1117.5 786.5Q1084 765 1060.0 736.0Q1036 707 1022.5 672.5Q1009 638 1009 602Q1009 553 1028.0 512.5Q1047 472 1079.5 442.5Q1112 413 1155.0 397.0Q1198 381 1246 381Q1258 381 1271.5 382.5Q1285 384 1297 387Q1279 363 1264.5 329.5Q1250 296 1250 265Q1250 229 1265.0 198.5Q1280 168 1305.5 146.5Q1331 125 1363.0 113.0Q1395 101 1430 101Q1444 101 1458.0 102.5Q1472 104 1486 109L1480 138Q1473 136 1466.0 136.0Q1459 136 1451 136Q1417 136 1390.0 147.0Q1363 158 1344.0 178.5Q1325 199 1315.0 226.5Q1305 254 1305 287Q1305 312 1310.5 341.0Q1316 370 1328 396Q1363 407 1393.5 426.0Q1424 445 1446.5 471.5Q1469 498 1481.5 530.0Q1494 562 1494 598Q1494 651 1472.5 694.0Q1451 737 1415.5 767.0Q1380 797 1333.5 812.0Q1287 827 1236 824ZM1254 418Q1215 418 1189.0 432.5Q1163 447 1147.5 471.5Q1132 496 1125.5 529.5Q1119 563 1119 600Q1119 635 1127.0 667.5Q1135 700 1152.0 725.5Q1169 751 1195.0 766.0Q1221 781 1256 781Q1294 781 1319.0 764.5Q1344 748 1358.5 721.5Q1373 695 1379.0 660.5Q1385 626 1385 590Q1385 554 1377.5 522.5Q1370 491 1354.5 468.0Q1339 445 1314.0 431.5Q1289 418 1254 418ZM1741 725Q1786 725 1814.5 726.5Q1843 728 1858.0 720.0Q1873 712 1877.5 690.0Q1882 668 1881 621H1915V891H1881V813Q1881 805 1878.5 795.0Q1876 785 1871.0 776.5Q1866 768 1859.0 762.0Q1852 756 1842 756L1741 758L1752 1157Q1783 1157 1812.0 1157.0Q1841 1157 1870 1155Q1889 1154 1906.5 1144.0Q1924 1134 1937.5 1119.0Q1951 1104 1959.0 1085.5Q1967 1067 1967 1049L1969 908H2004L2001 1188Q1886 1190 1770.0 1193.5Q1654 1197 1539 1200L1537 1164Q1563 1164 1583.5 1163.5Q1604 1163 1618.0 1156.0Q1632 1149 1639.5 1133.0Q1647 1117 1647 1086V1080L1633 435Q1632 404 1624.0 385.5Q1616 367 1601.5 358.0Q1587 349 1565.5 347.0Q1544 345 1516 346L1514 312L1979 299L1981 584H1946L1944 435Q1944 396 1927.5 367.0Q1911 338 1866 338Q1832 338 1799.5 339.0Q1767 340 1733 340ZM2358 1350 2061 1360 2059 1325 2094 1323Q2108 1323 2120.0 1315.5Q2132 1308 2140.5 1296.5Q2149 1285 2154.0 1271.5Q2159 1258 2159 1246L2172 138Q2172 121 2169.0 103.0Q2166 85 2158.5 70.0Q2151 55 2137.0 45.0Q2123 35 2102 35L2067 37V0H2274L2260 1231Q2260 1243 2265.5 1258.0Q2271 1273 2280.0 1286.0Q2289 1299 2301.5 1307.5Q2314 1316 2329 1315H2358ZM2868 752Q2868 794 2867.5 847.5Q2867 901 2861.5 957.5Q2856 1014 2843.5 1068.5Q2831 1123 2805.5 1165.5Q2780 1208 2740.5 1234.0Q2701 1260 2642 1260Q2589 1260 2552.5 1236.5Q2516 1213 2492.0 1175.5Q2468 1138 2454.0 1089.5Q2440 1041 2433.0 991.0Q2426 941 2424.5 893.5Q2423 846 2423 809Q2423 765 2424.0 708.5Q2425 652 2431.0 593.0Q2437 534 2451.0 478.0Q2465 422 2491.0 378.0Q2517 334 2558.0 307.5Q2599 281 2659 281Q2711 281 2746.5 302.0Q2782 323 2805.0 358.5Q2828 394 2841.0 441.0Q2854 488 2860.0 540.5Q2866 593 2867.0 647.5Q2868 702 2868 752ZM2657 316Q2625 316 2603.5 338.0Q2582 360 2568.0 398.0Q2554 436 2546.0 486.0Q2538 536 2534.5 592.0Q2531 648 2530.5 706.0Q2530 764 2530 818Q2530 857 2530.5 902.5Q2531 948 2534.0 993.5Q2537 1039 2544.0 1081.0Q2551 1123 2564.0 1155.5Q2577 1188 2596.5 1207.5Q2616 1227 2645 1227Q2674 1227 2694.5 1206.5Q2715 1186 2728.0 1152.0Q2741 1118 2748.0 1073.5Q2755 1029 2758.5 980.5Q2762 932 2762.5 883.0Q2763 834 2763 791Q2763 696 2761.5 610.0Q2760 524 2750.0 458.5Q2740 393 2718.5 354.5Q2697 316 2657 316ZM3663 291V316Q3649 314 3640.5 314.0Q3632 314 3620 314Q3595 314 3575.0 329.0Q3555 344 3550 369L3405 1332Q3404 1341 3407.5 1350.5Q3411 1360 3418.0 1368.5Q3425 1377 3434.0 1382.0Q3443 1387 3454 1387L3515 1389V1411H3253V1387H3300Q3313 1387 3319.0 1376.5Q3325 1366 3325 1354Q3325 1353 3322.0 1328.0Q3319 1303 3311.0 1237.5Q3303 1172 3288.5 1059.5Q3274 947 3251 772L3163 1297Q3161 1308 3167.5 1314.5Q3174 1321 3184.0 1324.0Q3194 1327 3206.0 1327.5Q3218 1328 3226 1327V1352L2989 1350V1325H3048Q3064 1325 3073.5 1319.5Q3083 1314 3081 1297L3013 369Q3011 345 3005.0 333.5Q2999 322 2987.5 317.5Q2976 313 2960.0 313.5Q2944 314 2923 314V289L3198 291V316Q3181 316 3165.5 315.5Q3150 315 3138.5 319.0Q3127 323 3120.5 333.5Q3114 344 3116 365L3157 1149L3269 486H3306L3394 1203Q3426 970 3452 786Q3463 708 3473.5 632.5Q3484 557 3492.5 498.0Q3501 439 3506.0 402.5Q3511 366 3511 365Q3511 342 3501.5 330.0Q3492 318 3477.5 313.0Q3463 308 3445.0 307.5Q3427 307 3409 306L3411 281ZM4445 973Q4445 943 4438.5 911.5Q4432 880 4418.5 851.0Q4405 822 4382.5 797.0Q4360 772 4329 754Q4289 763 4241 760L4232 1309Q4231 1320 4235.5 1331.5Q4240 1343 4247.5 1352.0Q4255 1361 4265.5 1367.0Q4276 1373 4288 1373Q4302 1373 4316.5 1371.5Q4331 1370 4345 1370L4347 1405L4019 1422V1387L4077 1383Q4089 1382 4099.0 1374.5Q4109 1367 4116.0 1357.0Q4123 1347 4126.5 1335.0Q4130 1323 4130 1311L4149 103Q4149 75 4137.5 62.0Q4126 49 4108.5 44.5Q4091 40 4070.0 41.0Q4049 42 4030 43V9Q4082 7 4135.5 4.5Q4189 2 4243 2Q4331 2 4390.5 25.5Q4450 49 4486.0 94.0Q4522 139 4537.0 204.0Q4552 269 4552 351Q4552 405 4544.5 462.5Q4537 520 4517.5 572.5Q4498 625 4465.5 668.0Q4433 711 4382 736Q4428 755 4459.0 786.0Q4490 817 4509.0 855.0Q4528 893 4536.0 935.0Q4544 977 4544 1018Q4544 1114 4536.5 1208.5Q4529 1303 4529 1399Q4529 1487 4572.5 1546.0Q4616 1605 4706 1622V1643Q4698 1643 4690.5 1644.0Q4683 1645 4677 1645Q4622 1645 4576.5 1625.5Q4531 1606 4498.0 1571.5Q4465 1537 4447.0 1491.0Q4429 1445 4429 1391Q4429 1286 4437.0 1182.0Q4445 1078 4445 973ZM4241 727Q4306 723 4347.0 695.0Q4388 667 4411.5 624.5Q4435 582 4443.5 528.0Q4452 474 4452 418Q4452 380 4452.5 338.0Q4453 296 4449.5 255.0Q4446 214 4435.5 176.5Q4425 139 4403.5 110.5Q4382 82 4347.0 65.5Q4312 49 4259 50H4251ZM5040 1221Q5040 1193 5041.0 1165.5Q5042 1138 5044 1112Q5018 1157 4981.5 1182.0Q4945 1207 4905 1207Q4859 1207 4827.0 1183.0Q4795 1159 4774.5 1120.5Q4754 1082 4742.5 1033.5Q4731 985 4725.5 937.0Q4720 889 4719.0 846.0Q4718 803 4718 774Q4718 675 4723.0 578.5Q4728 482 4728 385Q4728 357 4717.0 343.5Q4706 330 4689.0 325.5Q4672 321 4651.0 321.5Q4630 322 4610 322V287H4831Q4829 415 4824.0 543.0Q4819 671 4819 799Q4819 818 4818.5 853.0Q4818 888 4820.0 930.0Q4822 972 4827.0 1015.0Q4832 1058 4843.5 1093.5Q4855 1129 4873.5 1151.5Q4892 1174 4921 1174Q4938 1174 4957.5 1159.0Q4977 1144 4995.0 1121.5Q5013 1099 5027.0 1072.0Q5041 1045 5046 1020Q5048 853 5046.0 713.0Q5044 573 5044 457Q5044 429 5033.0 415.5Q5022 402 5004.5 397.0Q4987 392 4966.0 393.0Q4945 394 4925 394V359H5146L5144 1121Q5144 1141 5158.0 1163.5Q5172 1186 5195 1188Q5211 1188 5225.0 1188.0Q5239 1188 5255 1190V1225ZM5546 1350 5249 1360 5247 1325 5282 1323Q5296 1323 5308.0 1315.5Q5320 1308 5328.5 1296.5Q5337 1285 5342.0 1271.5Q5347 1258 5347 1246L5360 138Q5360 121 5357.0 103.0Q5354 85 5346.5 70.0Q5339 55 5325.0 45.0Q5311 35 5290 35L5255 37V0H5462L5448 1231Q5448 1243 5453.5 1258.0Q5459 1273 5468.0 1286.0Q5477 1299 5489.5 1307.5Q5502 1316 5517 1315H5546ZM5783 725Q5828 725 5856.5 726.5Q5885 728 5900.0 720.0Q5915 712 5919.5 690.0Q5924 668 5923 621H5957V891H5923V813Q5923 805 5920.5 795.0Q5918 785 5913.0 776.5Q5908 768 5901.0 762.0Q5894 756 5884 756L5783 758L5794 1157Q5825 1157 5854.0 1157.0Q5883 1157 5912 1155Q5931 1154 5948.5 1144.0Q5966 1134 5979.5 1119.0Q5993 1104 6001.0 1085.5Q6009 1067 6009 1049L6011 908H6046L6043 1188Q5928 1190 5812.0 1193.5Q5696 1197 5581 1200L5579 1164Q5605 1164 5625.5 1163.5Q5646 1163 5660.0 1156.0Q5674 1149 5681.5 1133.0Q5689 1117 5689 1086V1080L5675 435Q5674 404 5666.0 385.5Q5658 367 5643.5 358.0Q5629 349 5607.5 347.0Q5586 345 5558 346L5556 312L6021 299L6023 584H5988L5986 435Q5986 396 5969.5 367.0Q5953 338 5908 338Q5874 338 5841.5 339.0Q5809 340 5775 340ZM6541 709H6502L6496 500Q6495 472 6488.0 439.5Q6481 407 6465.5 379.5Q6450 352 6426.5 334.0Q6403 316 6369 316Q6330 316 6307.5 339.0Q6285 362 6273.0 397.0Q6261 432 6258.0 472.5Q6255 513 6255 547Q6255 608 6271.5 655.5Q6288 703 6312.5 740.5Q6337 778 6365.5 805.5Q6394 833 6418 854Q6457 888 6484.5 922.0Q6512 956 6528.5 992.0Q6545 1028 6552.5 1067.5Q6560 1107 6560 1151Q6560 1211 6544.5 1260.5Q6529 1310 6499.5 1345.5Q6470 1381 6427.5 1400.5Q6385 1420 6330 1420Q6290 1420 6255.0 1407.0Q6220 1394 6193.5 1370.0Q6167 1346 6151.5 1312.5Q6136 1279 6136 1237Q6136 1202 6148.5 1172.5Q6161 1143 6183.5 1122.0Q6206 1101 6235.5 1089.5Q6265 1078 6300 1078Q6324 1078 6347 1084L6337 1119Q6327 1115 6317.0 1113.5Q6307 1112 6298 1112Q6242 1112 6206.5 1147.0Q6171 1182 6171 1237Q6171 1267 6182.0 1293.5Q6193 1320 6212.5 1340.0Q6232 1360 6258.0 1371.5Q6284 1383 6314 1383Q6355 1383 6382.0 1359.5Q6409 1336 6424.5 1300.5Q6440 1265 6446.5 1224.5Q6453 1184 6453 1149Q6453 1083 6431.5 1033.5Q6410 984 6378 953Q6338 914 6296.5 873.5Q6255 833 6221.5 786.0Q6188 739 6167.0 682.0Q6146 625 6146 553Q6146 416 6201.0 345.5Q6256 275 6347 275Q6396 275 6433.5 298.5Q6471 322 6494 365L6490 215L6529 213Z" /></svg>