<svg viewBox="0 0 26056 4788" xmlns="http://www.w3.org/2000/svg"><path d="M240 3936V736H568Q672 736 748.0 768.0Q824 800 866.5 881.5Q909 963 912 1110Q916 1263 918.0 1429.0Q920 1595 919.0 1741.5Q918 1888 912 1984Q906 2093 875.0 2190.0Q844 2287 746 2337V2341Q826 2384 864.5 2471.0Q903 2558 916 2688Q921 2737 922.5 2840.0Q924 2943 923.5 3071.5Q923 3200 921.0 3330.0Q919 3460 916 3564Q913 3696 876.0 3778.0Q839 3860 764.0 3898.0Q689 3936 572 3936ZM256 3920H572Q717 3920 805.5 3850.0Q894 3780 900 3563Q904 3422 906.5 3243.0Q909 3064 908.0 2909.5Q907 2755 900 2689Q886 2541 839.5 2458.0Q793 2375 707 2341V2336Q821 2296 855.0 2197.5Q889 2099 896 1983Q902 1890 903.0 1746.5Q904 1603 902.0 1437.0Q900 1271 896 1110Q893 964 851.0 887.0Q809 810 736.5 781.0Q664 752 568 752H256ZM272 3904V768H568Q664 768 732.5 796.0Q801 824 839.0 898.0Q877 972 880 1109Q884 1263 886.0 1429.0Q888 1595 887.0 1740.5Q886 1886 880 1982Q873 2109 829.0 2212.5Q785 2316 646 2335V2339Q756 2359 812.0 2443.0Q868 2527 884 2691Q891 2757 892.0 2909.0Q893 3061 890.5 3239.0Q888 3417 884 3563Q879 3766 798.5 3835.0Q718 3904 572 3904ZM288 2327H573Q708 2327 780.0 2254.5Q852 2182 864 1981Q870 1888 871.0 1745.0Q872 1602 870.0 1436.0Q868 1270 864 1109Q860 914 784.0 849.0Q708 784 568 784H288ZM304 2311V800H568Q699 800 771.5 859.5Q844 919 848 1110Q852 1265 854.0 1431.5Q856 1598 855.0 1743.0Q854 1888 848 1982Q837 2170 771.5 2240.5Q706 2311 573 2311ZM320 2296H572Q700 2296 761.0 2228.0Q822 2160 832 1981Q840 1841 839.0 1596.5Q838 1352 832 1110Q828 920 757.0 868.0Q686 816 568 816H320ZM288 3888H572Q705 3888 784.0 3826.5Q863 3765 868 3563Q872 3420 874.5 3241.5Q877 3063 876.0 2910.5Q875 2758 868 2692Q848 2486 771.0 2415.0Q694 2344 564 2344H288ZM304 3872V2360H564Q684 2360 758.5 2425.5Q833 2491 852 2693Q859 2760 860.0 2910.5Q861 3061 858.5 3237.5Q856 3414 852 3562Q847 3759 772.0 3815.5Q697 3872 572 3872ZM320 3856H572Q694 3856 762.5 3802.5Q831 3749 836 3562Q841 3374 843.0 3195.5Q845 3017 843.5 2883.0Q842 2749 836 2695Q817 2496 747.0 2436.0Q677 2376 564 2376H320ZM1360 752V736H1440V752ZM1360 816V800H1440V816ZM1360 784V768H1440V784ZM1424 3936V1536H1440V3936ZM1360 3936V1536H1376V3936ZM1392 3936V1536H1408V3936ZM2257 4496Q2068 4496 1951.5 4432.0Q1835 4368 1825 4176Q1824 4161 1824.0 4149.5Q1824 4138 1825 4120Q1830 3999 1894.5 3922.5Q1959 3846 2050 3833V3829Q1955 3791 1932.0 3733.5Q1909 3676 1909 3632Q1909 3623 1909.0 3616.0Q1909 3609 1909 3600Q1909 3534 1950.5 3472.0Q1992 3410 2068 3384V3376Q1989 3342 1949.0 3268.5Q1909 3195 1905 3056Q1900 2865 1898.0 2726.5Q1896 2588 1896.0 2466.0Q1896 2344 1898.5 2206.5Q1901 2069 1905 1880Q1909 1701 1980.5 1608.5Q2052 1516 2257 1516Q2402 1516 2473.5 1564.5Q2545 1613 2573 1724H2577Q2595 1672 2635.0 1629.5Q2675 1587 2727.0 1561.5Q2779 1536 2833 1536V1552Q2724 1556 2655.5 1626.5Q2587 1697 2575 1773H2571Q2550 1643 2479.5 1587.5Q2409 1532 2257 1532Q2080 1532 2002.5 1609.5Q1925 1687 1921 1880Q1916 2132 1913.5 2314.5Q1911 2497 1913.0 2667.5Q1915 2838 1921 3056Q1925 3194 1969.5 3274.5Q2014 3355 2117 3375V3383Q2023 3402 1974.0 3465.5Q1925 3529 1925 3600Q1925 3609 1925.0 3616.0Q1925 3623 1925 3632Q1925 3687 1960.5 3748.5Q1996 3810 2108 3830V3834Q1999 3841 1923.0 3912.0Q1847 3983 1841 4120Q1840 4138 1840.0 4149.5Q1840 4161 1841 4177Q1850 4364 1963.5 4422.5Q2077 4481 2257 4481Q2437 4481 2555.0 4422.5Q2673 4364 2673 4177Q2673 4157 2673.0 4146.5Q2673 4136 2673 4120Q2673 3929 2559.0 3877.5Q2445 3826 2257 3816Q2152 3810 2089.5 3787.5Q2027 3765 2000.0 3726.0Q1973 3687 1973 3632Q1973 3623 1973.0 3616.0Q1973 3609 1973 3600Q1973 3507 2029.5 3453.5Q2086 3400 2257 3400Q2436 3400 2511.5 3322.0Q2587 3244 2593 3056Q2599 2869 2600.0 2708.5Q2601 2548 2600.0 2363.5Q2599 2179 2595 1920Q2594 1779 2654.0 1689.5Q2714 1600 2833 1600V1616Q2719 1616 2664.5 1705.0Q2610 1794 2611 1969Q2613 2160 2615.0 2322.0Q2617 2484 2616.5 2657.0Q2616 2830 2609 3056Q2603 3248 2524.0 3331.0Q2445 3414 2257 3416Q2138 3417 2080.5 3440.0Q2023 3463 2006.0 3504.0Q1989 3545 1989 3600Q1989 3609 1989.0 3616.0Q1989 3623 1989 3632Q1989 3687 2016.5 3722.0Q2044 3757 2103.0 3775.5Q2162 3794 2257 3800Q2455 3812 2572.0 3868.0Q2689 3924 2689 4120Q2689 4134 2689.0 4146.5Q2689 4159 2689 4176Q2689 4368 2567.5 4432.0Q2446 4496 2257 4496ZM2257 4450Q2365 4450 2452.5 4430.5Q2540 4411 2591.0 4352.5Q2642 4294 2642 4178Q2642 4160 2642.0 4148.5Q2642 4137 2642 4120Q2642 3999 2592.0 3943.5Q2542 3888 2456.0 3870.5Q2370 3853 2262 3846Q2076 3834 1978.0 3898.0Q1880 3962 1873 4120Q1872 4138 1872.0 4150.0Q1872 4162 1873 4179Q1881 4354 1988.5 4402.0Q2096 4450 2257 4450ZM2257 4435Q2104 4435 2000.5 4392.0Q1897 4349 1889 4179Q1888 4162 1888.0 4150.0Q1888 4138 1889 4120Q1897 3942 2003.5 3896.0Q2110 3850 2257 3860Q2362 3866 2445.0 3881.0Q2528 3896 2576.5 3948.5Q2625 4001 2625 4120Q2625 4139 2625.0 4148.5Q2625 4158 2625 4179Q2625 4349 2517.5 4392.0Q2410 4435 2257 4435ZM2257 4420Q2353 4420 2432.5 4406.0Q2512 4392 2560.0 4341.0Q2608 4290 2609 4180Q2609 4158 2609.0 4148.5Q2609 4139 2609 4120Q2609 4007 2563.0 3958.0Q2517 3909 2437.5 3894.5Q2358 3880 2257 3874Q2111 3865 2012.0 3906.5Q1913 3948 1905 4120Q1904 4138 1904.0 4150.0Q1904 4162 1905 4180Q1912 4345 2012.5 4382.5Q2113 4420 2257 4420ZM2257 4466Q2086 4466 1975.5 4412.5Q1865 4359 1857 4178Q1856 4161 1856.0 4149.5Q1856 4138 1857 4120Q1863 3982 1939.5 3912.5Q2016 3843 2151 3836V3832Q2021 3809 1981.0 3751.0Q1941 3693 1941 3632Q1941 3623 1941.0 3616.0Q1941 3609 1941 3600Q1941 3523 1993.5 3459.5Q2046 3396 2170 3380V3376Q2042 3359 1992.0 3282.5Q1942 3206 1937 3056Q1931 2847 1929.0 2673.5Q1927 2500 1929.0 2313.5Q1931 2127 1937 1880Q1942 1698 2012.0 1623.0Q2082 1548 2257 1548Q2416 1548 2485.5 1612.0Q2555 1676 2570 1829H2574Q2581 1753 2617.0 1695.0Q2653 1637 2709.5 1603.5Q2766 1570 2833 1568V1584Q2711 1587 2642.5 1683.5Q2574 1780 2577 1932Q2582 2168 2584.5 2336.5Q2587 2505 2585.5 2669.0Q2584 2833 2577 3056Q2572 3237 2498.0 3311.0Q2424 3385 2257 3385Q2135 3385 2070.0 3417.0Q2005 3449 1981.0 3498.0Q1957 3547 1957 3600Q1957 3609 1957.0 3616.0Q1957 3623 1957 3632Q1957 3705 2017.5 3763.5Q2078 3822 2257 3831Q2376 3837 2466.5 3857.5Q2557 3878 2607.5 3937.0Q2658 3996 2658 4120Q2658 4136 2658.0 4147.5Q2658 4159 2658 4178Q2658 4359 2543.0 4412.5Q2428 4466 2257 4466ZM2257 3368Q2420 3368 2487.5 3299.5Q2555 3231 2561 3056Q2567 2867 2569.0 2682.0Q2571 2497 2569.0 2300.0Q2567 2103 2561 1880Q2557 1701 2483.0 1632.5Q2409 1564 2257 1564Q2097 1564 2027.5 1631.0Q1958 1698 1953 1880Q1945 2209 1944.0 2483.0Q1943 2757 1953 3056Q1959 3231 2026.5 3299.5Q2094 3368 2257 3368ZM2257 3352Q2105 3352 2040.0 3289.5Q1975 3227 1969 3056Q1961 2784 1960.5 2490.5Q1960 2197 1969 1880Q1974 1707 2038.0 1643.5Q2102 1580 2257 1580Q2413 1580 2476.5 1643.5Q2540 1707 2545 1880Q2551 2090 2553.0 2288.5Q2555 2487 2553.0 2677.5Q2551 2868 2545 3056Q2539 3227 2474.0 3289.5Q2409 3352 2257 3352ZM2257 3336Q2401 3336 2462.0 3278.5Q2523 3221 2529 3056Q2535 2892 2537.0 2694.0Q2539 2496 2537.5 2286.5Q2536 2077 2529 1880Q2524 1706 2460.5 1651.0Q2397 1596 2257 1596Q2118 1596 2054.0 1651.0Q1990 1706 1985 1880Q1976 2177 1976.0 2480.0Q1976 2783 1985 3056Q1991 3221 2052.0 3278.5Q2113 3336 2257 3336ZM4199 3956Q4018 3956 3931.5 3871.0Q3845 3786 3839 3584Q3835 3431 3833.5 3312.5Q3832 3194 3833.5 3075.5Q3835 2957 3839 2804H3855Q3852 2932 3850.0 3051.5Q3848 3171 3849.5 3299.0Q3851 3427 3855 3583Q3860 3783 3945.0 3861.5Q4030 3940 4199 3940Q4368 3940 4445.0 3856.0Q4522 3772 4527 3583Q4531 3446 4532.5 3349.0Q4534 3252 4532.5 3145.0Q4531 3038 4527 2873Q4521 2631 4480.5 2507.5Q4440 2384 4267 2344L4138 2318Q4045 2295 3995.5 2250.5Q3946 2206 3926.5 2106.0Q3907 2006 3903 1819Q3900 1671 3903.5 1469.5Q3907 1268 3907 1084Q3907 912 3970.0 846.0Q4033 780 4195 780Q4339 780 4400.5 847.0Q4462 914 4467 1090Q4470 1196 4470.0 1386.5Q4470 1577 4467 1796H4451Q4454 1575 4454.0 1385.5Q4454 1196 4451 1090Q4447 920 4388.0 858.0Q4329 796 4195 796Q4040 796 3981.5 858.0Q3923 920 3923 1084Q3923 1268 3919.5 1469.5Q3916 1671 3919 1818Q3923 2001 3941.0 2098.0Q3959 2195 4006.0 2237.5Q4053 2280 4142 2302L4271 2328Q4451 2370 4494.0 2499.5Q4537 2629 4543 2872Q4547 3038 4548.5 3143.0Q4550 3248 4548.5 3345.0Q4547 3442 4543 3584Q4537 3782 4455.0 3869.0Q4373 3956 4199 3956ZM4199 3924Q4036 3924 3956.0 3850.5Q3876 3777 3871 3583Q3867 3424 3865.5 3300.5Q3864 3177 3866.0 3060.0Q3868 2943 3871 2804H3887Q3884 2932 3882.0 3051.0Q3880 3170 3881.5 3298.5Q3883 3427 3887 3583Q3892 3761 3962.5 3834.5Q4033 3908 4199 3908Q4354 3908 4422.0 3834.0Q4490 3760 4495 3582Q4499 3445 4500.5 3347.5Q4502 3250 4500.5 3143.0Q4499 3036 4495 2873Q4491 2690 4470.5 2589.5Q4450 2489 4400.5 2442.5Q4351 2396 4260 2375L4131 2349Q4017 2321 3963.0 2264.0Q3909 2207 3892.0 2100.5Q3875 1994 3871 1819Q3869 1720 3870.0 1595.5Q3871 1471 3873.0 1338.5Q3875 1206 3875 1084Q3875 900 3947.5 824.0Q4020 748 4195 748Q4349 748 4421.5 822.0Q4494 896 4499 1089Q4502 1194 4502.0 1385.5Q4502 1577 4499 1796H4483Q4486 1575 4486.0 1385.0Q4486 1195 4483 1089Q4478 910 4413.0 837.0Q4348 764 4195 764Q4026 764 3958.5 834.5Q3891 905 3891 1084Q3891 1268 3887.5 1469.5Q3884 1671 3887 1819Q3891 2009 3911.5 2112.0Q3932 2215 3984.0 2262.0Q4036 2309 4134 2333L4264 2359Q4428 2397 4466.5 2514.0Q4505 2631 4511 2873Q4515 3038 4516.5 3141.5Q4518 3245 4516.5 3341.5Q4515 3438 4511 3583Q4506 3773 4431.0 3848.5Q4356 3924 4199 3924ZM4199 3892Q4045 3892 3976.5 3825.0Q3908 3758 3903 3582Q3899 3422 3897.5 3299.0Q3896 3176 3898.0 3059.5Q3900 2943 3903 2804H3919Q3916 2933 3914.0 3052.0Q3912 3171 3913.5 3298.5Q3915 3426 3919 3582Q3924 3753 3989.0 3814.5Q4054 3876 4199 3876Q4336 3876 4397.5 3812.5Q4459 3749 4463 3582Q4467 3444 4468.5 3347.5Q4470 3251 4468.5 3145.0Q4467 3039 4463 2874Q4459 2697 4441.0 2603.0Q4423 2509 4379.5 2467.0Q4336 2425 4253 2406L4123 2380Q3999 2350 3940.0 2285.5Q3881 2221 3862.0 2108.0Q3843 1995 3839 1820Q3836 1671 3839.5 1469.0Q3843 1267 3843 1084Q3843 886 3924.5 801.0Q4006 716 4195 716Q4366 716 4445.5 801.5Q4525 887 4531 1088Q4533 1184 4534.0 1361.5Q4535 1539 4531 1796H4515Q4518 1575 4518.0 1385.0Q4518 1195 4515 1089Q4510 889 4431.5 810.5Q4353 732 4195 732Q4013 732 3936.0 812.5Q3859 893 3859 1084Q3859 1267 3855.5 1469.0Q3852 1671 3855 1820Q3859 1994 3877.0 2104.0Q3895 2214 3951.5 2274.5Q4008 2335 4127 2364L4256 2390Q4344 2410 4390.5 2454.5Q4437 2499 4456.0 2596.5Q4475 2694 4479 2874Q4483 3039 4484.5 3143.5Q4486 3248 4484.5 3344.0Q4483 3440 4479 3582Q4474 3753 4411.0 3822.5Q4348 3892 4199 3892ZM5626 3936V1880Q5626 1768 5599.0 1690.5Q5572 1613 5505.0 1572.5Q5438 1532 5318 1532Q5207 1532 5119.5 1593.5Q5032 1655 4997 1766H4990L5004 1264V736H5021V1072L5004 1714H5008Q5041 1625 5129.0 1570.5Q5217 1516 5318 1516Q5445 1516 5515.0 1558.0Q5585 1600 5613.5 1681.5Q5642 1763 5642 1880V3936ZM4941 3936V736H4957V3936ZM5005 3936V1901Q5005 1833 5035.5 1758.5Q5066 1684 5134.5 1632.0Q5203 1580 5318 1580Q5470 1580 5524.0 1657.5Q5578 1735 5578 1880V3936H5562V1880Q5562 1743 5511.5 1669.5Q5461 1596 5318 1596Q5211 1596 5145.5 1644.5Q5080 1693 5050.5 1763.5Q5021 1834 5021 1901V3936ZM4973 3936V736H4987V1502L4982 1825H4989Q5012 1706 5098.5 1627.0Q5185 1548 5318 1548Q5494 1548 5552.0 1637.5Q5610 1727 5610 1880V3936H5594V1880Q5594 1728 5537.0 1646.0Q5480 1564 5318 1564Q5202 1564 5129.5 1621.0Q5057 1678 5023.0 1757.0Q4989 1836 4989 1901V3936ZM6431 3956Q6256 3956 6170.5 3876.0Q6085 3796 6079 3596Q6071 3318 6068.0 3042.5Q6065 2767 6067.5 2479.5Q6070 2192 6079 1880Q6085 1684 6167.5 1600.0Q6250 1516 6431 1516Q6613 1516 6695.0 1600.0Q6777 1684 6783 1880Q6794 2293 6795.5 2715.0Q6797 3137 6783 3596Q6777 3796 6691.5 3876.0Q6606 3956 6431 3956ZM6431 3940Q6597 3940 6679.5 3864.0Q6762 3788 6767 3595Q6781 3128 6780.0 2713.0Q6779 2298 6767 1881Q6762 1687 6680.0 1609.5Q6598 1532 6431 1532Q6265 1532 6182.5 1609.5Q6100 1687 6095 1881Q6087 2159 6084.0 2435.0Q6081 2711 6083.5 2997.5Q6086 3284 6095 3595Q6100 3788 6182.5 3864.0Q6265 3940 6431 3940ZM6431 3924Q6265 3924 6190.5 3847.5Q6116 3771 6111 3595Q6103 3300 6100.0 3019.0Q6097 2738 6100.0 2456.5Q6103 2175 6111 1881Q6116 1702 6190.5 1625.0Q6265 1548 6431 1548Q6597 1548 6671.5 1625.0Q6746 1702 6751 1881Q6759 2159 6762.0 2435.0Q6765 2711 6762.5 2998.0Q6760 3285 6751 3595Q6746 3771 6671.5 3847.5Q6597 3924 6431 3924ZM6431 3908Q6589 3908 6659.5 3835.5Q6730 3763 6735 3594Q6748 3151 6748.0 2736.0Q6748 2321 6735 1882Q6730 1712 6659.5 1638.0Q6589 1564 6431 1564Q6273 1564 6202.5 1638.0Q6132 1712 6127 1882Q6119 2161 6116.0 2437.0Q6113 2713 6115.5 2998.5Q6118 3284 6127 3594Q6132 3763 6203.0 3835.5Q6274 3908 6431 3908ZM6431 3892Q6290 3892 6219.0 3826.5Q6148 3761 6143 3594Q6135 3298 6132.0 3017.0Q6129 2736 6132.0 2456.0Q6135 2176 6143 1882Q6148 1712 6219.0 1646.0Q6290 1580 6431 1580Q6572 1580 6643.5 1646.0Q6715 1712 6719 1882Q6731 2301 6732.0 2714.0Q6733 3127 6719 3594Q6715 3761 6643.5 3826.5Q6572 3892 6431 3892ZM6431 3876Q6572 3876 6635.5 3810.0Q6699 3744 6703 3593Q6716 3147 6716.0 2736.5Q6716 2326 6703 1882Q6699 1729 6635.5 1662.5Q6572 1596 6431 1596Q6290 1596 6227.0 1662.5Q6164 1729 6159 1882Q6151 2180 6148.0 2461.0Q6145 2742 6148.0 3021.0Q6151 3300 6159 3593Q6164 3744 6227.0 3810.0Q6290 3876 6431 3876ZM7535 3956Q7466 3956 7412.5 3943.0Q7359 3930 7321.0 3902.5Q7283 3875 7258.5 3832.5Q7234 3790 7222.5 3730.0Q7211 3670 7211 3592V1536H7227V3592Q7227 3685 7244.5 3751.5Q7262 3818 7298.5 3859.5Q7335 3901 7394.0 3920.5Q7453 3940 7535 3940Q7647 3940 7733.5 3877.5Q7820 3815 7856 3706H7864L7849 3912V3936H7832V3917L7849 3758H7845Q7808 3846 7722.5 3901.0Q7637 3956 7535 3956ZM7896 3936V1536H7912V3936ZM7535 3892Q7465 3892 7415.5 3875.0Q7366 3858 7335.0 3822.0Q7304 3786 7289.5 3729.0Q7275 3672 7275 3592V1536H7291V3592Q7291 3694 7316.0 3756.5Q7341 3819 7394.5 3847.5Q7448 3876 7535 3876Q7642 3876 7707.5 3827.5Q7773 3779 7802.5 3708.0Q7832 3637 7832 3571V1536H7848V3571Q7848 3638 7817.5 3713.0Q7787 3788 7718.5 3840.0Q7650 3892 7535 3892ZM7535 3924Q7378 3924 7310.5 3847.0Q7243 3770 7243 3592V1536H7259V3592Q7259 3761 7323.0 3834.5Q7387 3908 7535 3908Q7653 3908 7725.0 3852.0Q7797 3796 7830.5 3717.0Q7864 3638 7864 3571V1536H7880V3936H7864V3896L7872 3647H7864Q7847 3751 7759.0 3837.5Q7671 3924 7535 3924ZM8456 3936V736H8472V3936ZM8392 3936V736H8408V3936ZM8424 3936V736H8440V3936ZM9633 3936H9617V736H9633ZM9601 3936H9585L9589 3595H9585Q9582 3746 9488.5 3835.0Q9395 3924 9243 3924Q9078 3924 9016.0 3830.5Q8954 3737 8950 3598Q8940 3256 8937.0 2981.5Q8934 2707 8937.5 2444.5Q8941 2182 8950 1877Q8954 1736 9016.5 1642.0Q9079 1548 9243 1548Q9395 1548 9486.5 1638.5Q9578 1729 9585 1882H9589L9585 1502V736H9601ZM9245 3908Q9364 3908 9435.5 3857.5Q9507 3807 9540.0 3734.0Q9573 3661 9574 3594Q9581 3280 9583.0 3002.0Q9585 2724 9582.5 2451.5Q9580 2179 9572 1881Q9571 1813 9538.5 1739.5Q9506 1666 9434.5 1615.0Q9363 1564 9244 1564Q9081 1564 9025.0 1659.0Q8969 1754 8965 1882Q8957 2183 8954.0 2460.0Q8951 2737 8954.0 3015.0Q8957 3293 8966 3598Q8970 3734 9030.0 3821.0Q9090 3908 9245 3908ZM9246 3892Q9101 3892 9043.5 3810.0Q8986 3728 8982 3598Q8972 3255 8969.0 2981.0Q8966 2707 8969.5 2445.0Q8973 2183 8982 1877Q8986 1744 9044.0 1662.0Q9102 1580 9246 1580Q9417 1580 9485.5 1680.5Q9554 1781 9557 1882Q9566 2181 9569.0 2454.0Q9572 2727 9569.0 3004.5Q9566 3282 9557 3594Q9554 3698 9483.5 3795.0Q9413 3892 9246 3892ZM9247 3876Q9407 3876 9472.5 3783.5Q9538 3691 9541 3594Q9550 3278 9553.0 2999.5Q9556 2721 9553.0 2449.0Q9550 2177 9541 1882Q9538 1782 9471.5 1689.0Q9405 1596 9247 1596Q9112 1596 9056.5 1674.0Q9001 1752 8997 1883Q8985 2306 8984.5 2722.5Q8984 3139 8997 3593Q9001 3721 9056.0 3798.5Q9111 3876 9247 3876ZM9241 3957Q9064 3957 8993.5 3857.5Q8923 3758 8918 3597Q8909 3287 8906.0 3011.5Q8903 2736 8906.5 2461.5Q8910 2187 8918 1881Q8923 1717 8994.0 1617.0Q9065 1517 9242 1517Q9344 1517 9433.0 1561.5Q9522 1606 9559 1695H9563L9554 1068V736H9570V1262L9579 1762H9572Q9540 1643 9449.5 1588.0Q9359 1533 9241 1533Q9060 1533 8999.5 1638.5Q8939 1744 8934 1881Q8925 2190 8922.0 2465.5Q8919 2741 8922.5 3015.5Q8926 3290 8934 3597Q8938 3741 9002.5 3841.0Q9067 3941 9242 3941Q9377 3941 9467.0 3873.0Q9557 3805 9576 3706H9580L9570 3936H9554L9555 3917L9563 3787H9559Q9522 3865 9436.5 3911.0Q9351 3957 9241 3957ZM10434 3956Q10228 3956 10153.0 3866.5Q10078 3777 10074 3596Q10069 3332 10066.5 3113.5Q10064 2895 10064.5 2698.0Q10065 2501 10067.5 2302.5Q10070 2104 10074 1880Q10078 1698 10155.0 1607.0Q10232 1516 10434 1516Q10610 1516 10690.0 1600.0Q10770 1684 10777 1873Q10780 1942 10781.5 2035.0Q10783 2128 10783.5 2241.5Q10784 2355 10781.5 2487.5Q10779 2620 10774 2768H10145Q10145 2939 10146.0 3071.5Q10147 3204 10149.5 3328.0Q10152 3452 10154 3595Q10157 3753 10214.5 3814.5Q10272 3876 10434 3876Q10581 3876 10636.0 3820.5Q10691 3765 10698 3593Q10701 3523 10700.5 3412.0Q10700 3301 10694 3172H10710Q10716 3296 10716.5 3409.5Q10717 3523 10714 3593Q10707 3773 10646.0 3832.5Q10585 3892 10434 3892Q10265 3892 10203.0 3826.5Q10141 3761 10138 3595Q10136 3465 10133.5 3338.0Q10131 3211 10130.0 3068.5Q10129 2926 10129 2752H10759Q10764 2592 10766.0 2458.5Q10768 2325 10768.0 2216.5Q10768 2108 10766.0 2022.5Q10764 1937 10761 1873Q10754 1674 10670.0 1603.0Q10586 1532 10434 1532Q10239 1532 10166.5 1618.0Q10094 1704 10090 1880Q10086 2101 10083.5 2306.5Q10081 2512 10081.0 2716.5Q10081 2921 10083.0 3137.0Q10085 3353 10090 3596Q10094 3776 10167.0 3858.0Q10240 3940 10434 3940Q10605 3940 10679.0 3867.5Q10753 3795 10762 3595Q10764 3550 10764.5 3483.0Q10765 3416 10763.5 3335.5Q10762 3255 10758 3172H10774Q10779 3287 10780.5 3400.5Q10782 3514 10778 3596Q10769 3797 10693.0 3876.5Q10617 3956 10434 3956ZM10434 3924Q10246 3924 10178.0 3847.0Q10110 3770 10106 3596Q10102 3357 10099.5 3142.0Q10097 2927 10097.0 2722.5Q10097 2518 10099.5 2310.5Q10102 2103 10106 1880Q10110 1705 10180.0 1626.5Q10250 1548 10434 1548Q10598 1548 10668.5 1623.5Q10739 1699 10746 1885Q10748 1937 10750.0 2057.5Q10752 2178 10751.5 2351.5Q10751 2525 10743 2736H10113Q10113 3002 10115.5 3200.0Q10118 3398 10122 3595Q10125 3770 10193.5 3839.0Q10262 3908 10434 3908Q10595 3908 10658.5 3843.0Q10722 3778 10730 3594Q10733 3525 10732.5 3412.5Q10732 3300 10726 3172H10742Q10747 3273 10748.5 3391.0Q10750 3509 10746 3594Q10738 3787 10669.5 3855.5Q10601 3924 10434 3924ZM10113 2720H10728Q10735 2534 10736.0 2365.0Q10737 2196 10735.0 2069.5Q10733 1943 10730 1885Q10723 1703 10656.0 1633.5Q10589 1564 10434 1564Q10259 1564 10192.0 1637.5Q10125 1711 10122 1881Q10118 2074 10115.5 2267.5Q10113 2461 10113 2720ZM10129 2704Q10129 2534 10130.0 2403.5Q10131 2273 10133.5 2150.5Q10136 2028 10138 1881Q10141 1716 10204.5 1648.0Q10268 1580 10434 1580Q10574 1580 10640.5 1642.0Q10707 1704 10714 1884Q10716 1936 10718.0 2052.5Q10720 2169 10719.5 2335.5Q10719 2502 10712 2704ZM10145 2688H10697Q10703 2505 10703.5 2342.0Q10704 2179 10702.0 2059.0Q10700 1939 10698 1884Q10691 1714 10630.5 1655.0Q10570 1596 10434 1596Q10273 1596 10215.0 1660.5Q10157 1725 10154 1881Q10152 2022 10149.5 2143.0Q10147 2264 10146.0 2392.5Q10145 2521 10145 2688ZM11227 3936V1536H11243V1576L11235 1825H11243Q11269 1709 11354.0 1638.5Q11439 1568 11572 1568Q11603 1568 11633.5 1568.0Q11664 1568 11695 1568V1584Q11664 1584 11633.5 1584.0Q11603 1584 11572 1584Q11454 1584 11382.0 1635.0Q11310 1686 11277.5 1759.5Q11245 1833 11245 1901V3936ZM11195 3936V1536H11211V3936ZM11261 3936V1901Q11261 1799 11330.5 1699.5Q11400 1600 11572 1600Q11603 1600 11633.5 1600.0Q11664 1600 11695 1600V1616Q11664 1616 11633.5 1616.0Q11603 1616 11572 1616Q11412 1616 11344.5 1708.5Q11277 1801 11277 1901V3936ZM11243 1766 11258 1560V1536H11275V1555L11258 1714H11262Q11300 1625 11386.0 1580.5Q11472 1536 11572 1536Q11603 1536 11633.5 1536.0Q11664 1536 11695 1536V1552Q11664 1552 11633.5 1552.0Q11603 1552 11572 1552Q11460 1552 11373.5 1603.5Q11287 1655 11251 1766ZM12318 3956Q12143 3956 12066.0 3872.5Q11989 3789 11986 3596Q11985 3488 11984.0 3402.0Q11983 3316 11986 3172H12002Q12000 3331 12000.5 3414.5Q12001 3498 12002 3596Q12005 3780 12078.5 3860.0Q12152 3940 12318 3940Q12481 3940 12558.0 3860.5Q12635 3781 12646 3595Q12650 3536 12650.5 3475.0Q12651 3414 12650.5 3350.0Q12650 3286 12650 3220Q12650 2976 12586.0 2867.0Q12522 2758 12389 2709L12273 2666Q12194 2637 12148.0 2599.5Q12102 2562 12079.5 2466.0Q12057 2370 12050 2166Q12047 2086 12047.5 2025.0Q12048 1964 12050 1882Q12055 1721 12116.5 1650.5Q12178 1580 12318 1580Q12459 1580 12521.5 1649.5Q12584 1719 12586 1880Q12588 1985 12588.0 2068.5Q12588 2152 12586 2296H12570Q12576 2171 12574.0 2068.0Q12572 1965 12570 1881Q12568 1728 12509.5 1662.0Q12451 1596 12318 1596Q12188 1596 12129.5 1662.5Q12071 1729 12066 1882Q12063 1981 12063.5 2036.0Q12064 2091 12066 2165Q12073 2347 12089.5 2440.0Q12106 2533 12149.5 2575.5Q12193 2618 12279 2651L12394 2695Q12478 2727 12539.0 2782.0Q12600 2837 12633.0 2940.5Q12666 3044 12666 3220Q12666 3284 12666.5 3348.5Q12667 3413 12666.5 3475.5Q12666 3538 12662 3596Q12650 3789 12570.0 3872.5Q12490 3956 12318 3956ZM12318 3924Q12160 3924 12090.5 3847.5Q12021 3771 12018 3595Q12017 3492 12015.0 3388.5Q12013 3285 12018 3172H12034Q12028 3298 12030.5 3403.0Q12033 3508 12034 3595Q12036 3762 12102.5 3835.0Q12169 3908 12318 3908Q12467 3908 12535.5 3835.0Q12604 3762 12614 3593Q12619 3504 12618.5 3415.0Q12618 3326 12618 3220Q12618 2986 12559.0 2885.5Q12500 2785 12377 2739L12262 2696Q12166 2660 12116.0 2612.5Q12066 2565 12045.5 2464.0Q12025 2363 12018 2167Q12015 2086 12015.5 2023.5Q12016 1961 12018 1881Q12023 1702 12093.5 1625.0Q12164 1548 12318 1548Q12476 1548 12545.5 1625.0Q12615 1702 12618 1880Q12620 1985 12620.0 2068.5Q12620 2152 12618 2296H12602Q12604 2137 12604.0 2056.0Q12604 1975 12602 1880Q12600 1710 12533.0 1637.0Q12466 1564 12318 1564Q12171 1564 12105.0 1638.0Q12039 1712 12034 1882Q12032 1962 12031.5 2025.5Q12031 2089 12034 2166Q12041 2371 12063.5 2469.5Q12086 2568 12134.5 2608.5Q12183 2649 12267 2681L12383 2725Q12505 2771 12569.5 2871.5Q12634 2972 12634 3220Q12634 3323 12634.5 3414.5Q12635 3506 12630 3594Q12619 3768 12548.0 3846.0Q12477 3924 12318 3924ZM12318 3892Q12177 3892 12114.5 3823.0Q12052 3754 12050 3594Q12049 3514 12046.5 3407.5Q12044 3301 12050 3172H12066Q12061 3290 12063.0 3396.0Q12065 3502 12066 3594Q12068 3745 12126.5 3810.5Q12185 3876 12318 3876Q12458 3876 12515.5 3805.5Q12573 3735 12582 3591Q12588 3498 12587.0 3407.5Q12586 3317 12586 3220Q12586 2991 12532.0 2900.5Q12478 2810 12366 2769L12250 2726Q12147 2688 12092.5 2635.0Q12038 2582 12015.5 2475.0Q11993 2368 11986 2168Q11983 2087 11983.5 2023.0Q11984 1959 11986 1880Q11992 1685 12069.0 1600.5Q12146 1516 12318 1516Q12493 1516 12570.0 1600.5Q12647 1685 12650 1880Q12652 1964 12654.0 2066.0Q12656 2168 12650 2296H12634Q12636 2138 12636.0 2056.0Q12636 1974 12634 1880Q12631 1697 12559.5 1614.5Q12488 1532 12318 1532Q12151 1532 12079.5 1614.5Q12008 1697 12002 1881Q11999 1978 11999.5 2037.5Q12000 2097 12002 2168Q12009 2363 12030.0 2466.5Q12051 2570 12103.5 2621.5Q12156 2673 12256 2711L12372 2755Q12489 2799 12545.5 2894.5Q12602 2990 12602 3220Q12602 3287 12602.5 3350.5Q12603 3414 12602.5 3474.5Q12602 3535 12598 3594Q12588 3753 12523.0 3822.5Q12458 3892 12318 3892ZM13941 3936V736H13957V3936ZM13877 3936V736H13893V3936ZM13909 3936V736H13925V3936ZM15122 3936V1880Q15122 1796 15107.5 1731.0Q15093 1666 15058.0 1622.0Q15023 1578 14963.5 1555.0Q14904 1532 14814 1532Q14702 1532 14615.5 1593.5Q14529 1655 14493 1766H14485L14500 1536H14517V1551L14500 1714H14504Q14539 1625 14626.5 1570.5Q14714 1516 14814 1516Q14890 1516 14945.0 1531.5Q15000 1547 15037.5 1577.0Q15075 1607 15097.0 1651.0Q15119 1695 15128.5 1752.5Q15138 1810 15138 1880V3936ZM14437 3936V1536H14453V3936ZM14503 3936V1901Q14503 1833 14533.0 1758.5Q14563 1684 14631.0 1632.0Q14699 1580 14814 1580Q14890 1580 14940.5 1599.5Q14991 1619 15020.0 1657.5Q15049 1696 15061.5 1752.0Q15074 1808 15074 1880V3936H15058V1880Q15058 1788 15036.5 1725.0Q15015 1662 14962.0 1629.0Q14909 1596 14814 1596Q14707 1596 14642.0 1644.5Q14577 1693 14548.0 1763.5Q14519 1834 14519 1901V3936ZM14469 3936V1536H14485L14477 1825H14485Q14508 1710 14594.5 1629.0Q14681 1548 14814 1548Q14990 1548 15048.0 1637.5Q15106 1727 15106 1880V3936H15090V1880Q15090 1728 15033.0 1646.0Q14976 1564 14814 1564Q14696 1564 14624.0 1620.0Q14552 1676 14519.5 1754.5Q14487 1833 14487 1901V3936ZM15674 3936V736H15690V3936ZM15610 3936V736H15626V3936ZM15642 3936V736H15658V3936ZM16170 752V736H16250V752ZM16170 816V800H16250V816ZM16170 784V768H16250V784ZM16234 3936V1536H16250V3936ZM16170 3936V1536H16186V3936ZM16202 3936V1536H16218V3936ZM17417 3936V1880Q17417 1796 17402.5 1731.0Q17388 1666 17353.0 1622.0Q17318 1578 17258.5 1555.0Q17199 1532 17109 1532Q16997 1532 16910.5 1593.5Q16824 1655 16788 1766H16780L16795 1536H16812V1551L16795 1714H16799Q16834 1625 16921.5 1570.5Q17009 1516 17109 1516Q17185 1516 17240.0 1531.5Q17295 1547 17332.5 1577.0Q17370 1607 17392.0 1651.0Q17414 1695 17423.5 1752.5Q17433 1810 17433 1880V3936ZM16732 3936V1536H16748V3936ZM16798 3936V1901Q16798 1833 16828.0 1758.5Q16858 1684 16926.0 1632.0Q16994 1580 17109 1580Q17185 1580 17235.5 1599.5Q17286 1619 17315.0 1657.5Q17344 1696 17356.5 1752.0Q17369 1808 17369 1880V3936H17353V1880Q17353 1788 17331.5 1725.0Q17310 1662 17257.0 1629.0Q17204 1596 17109 1596Q17002 1596 16937.0 1644.5Q16872 1693 16843.0 1763.5Q16814 1834 16814 1901V3936ZM16764 3936V1536H16780L16772 1825H16780Q16803 1710 16889.5 1629.0Q16976 1548 17109 1548Q17285 1548 17343.0 1637.5Q17401 1727 17401 1880V3936H17385V1880Q17385 1728 17328.0 1646.0Q17271 1564 17109 1564Q16991 1564 16919.0 1620.0Q16847 1676 16814.5 1754.5Q16782 1833 16782 1901V3936ZM18226 3956Q18020 3956 17945.0 3866.5Q17870 3777 17866 3596Q17861 3332 17858.5 3113.5Q17856 2895 17856.5 2698.0Q17857 2501 17859.5 2302.5Q17862 2104 17866 1880Q17870 1698 17947.0 1607.0Q18024 1516 18226 1516Q18402 1516 18482.0 1600.0Q18562 1684 18569 1873Q18572 1942 18573.5 2035.0Q18575 2128 18575.5 2241.5Q18576 2355 18573.5 2487.5Q18571 2620 18566 2768H17937Q17937 2939 17938.0 3071.5Q17939 3204 17941.5 3328.0Q17944 3452 17946 3595Q17949 3753 18006.5 3814.5Q18064 3876 18226 3876Q18373 3876 18428.0 3820.5Q18483 3765 18490 3593Q18493 3523 18492.5 3412.0Q18492 3301 18486 3172H18502Q18508 3296 18508.5 3409.5Q18509 3523 18506 3593Q18499 3773 18438.0 3832.5Q18377 3892 18226 3892Q18057 3892 17995.0 3826.5Q17933 3761 17930 3595Q17928 3465 17925.5 3338.0Q17923 3211 17922.0 3068.5Q17921 2926 17921 2752H18551Q18556 2592 18558.0 2458.5Q18560 2325 18560.0 2216.5Q18560 2108 18558.0 2022.5Q18556 1937 18553 1873Q18546 1674 18462.0 1603.0Q18378 1532 18226 1532Q18031 1532 17958.5 1618.0Q17886 1704 17882 1880Q17878 2101 17875.5 2306.5Q17873 2512 17873.0 2716.5Q17873 2921 17875.0 3137.0Q17877 3353 17882 3596Q17886 3776 17959.0 3858.0Q18032 3940 18226 3940Q18397 3940 18471.0 3867.5Q18545 3795 18554 3595Q18556 3550 18556.5 3483.0Q18557 3416 18555.5 3335.5Q18554 3255 18550 3172H18566Q18571 3287 18572.5 3400.5Q18574 3514 18570 3596Q18561 3797 18485.0 3876.5Q18409 3956 18226 3956ZM18226 3924Q18038 3924 17970.0 3847.0Q17902 3770 17898 3596Q17894 3357 17891.5 3142.0Q17889 2927 17889.0 2722.5Q17889 2518 17891.5 2310.5Q17894 2103 17898 1880Q17902 1705 17972.0 1626.5Q18042 1548 18226 1548Q18390 1548 18460.5 1623.5Q18531 1699 18538 1885Q18540 1937 18542.0 2057.5Q18544 2178 18543.5 2351.5Q18543 2525 18535 2736H17905Q17905 3002 17907.5 3200.0Q17910 3398 17914 3595Q17917 3770 17985.5 3839.0Q18054 3908 18226 3908Q18387 3908 18450.5 3843.0Q18514 3778 18522 3594Q18525 3525 18524.5 3412.5Q18524 3300 18518 3172H18534Q18539 3273 18540.5 3391.0Q18542 3509 18538 3594Q18530 3787 18461.5 3855.5Q18393 3924 18226 3924ZM17905 2720H18520Q18527 2534 18528.0 2365.0Q18529 2196 18527.0 2069.5Q18525 1943 18522 1885Q18515 1703 18448.0 1633.5Q18381 1564 18226 1564Q18051 1564 17984.0 1637.5Q17917 1711 17914 1881Q17910 2074 17907.5 2267.5Q17905 2461 17905 2720ZM17921 2704Q17921 2534 17922.0 2403.5Q17923 2273 17925.5 2150.5Q17928 2028 17930 1881Q17933 1716 17996.5 1648.0Q18060 1580 18226 1580Q18366 1580 18432.5 1642.0Q18499 1704 18506 1884Q18508 1936 18510.0 2052.5Q18512 2169 18511.5 2335.5Q18511 2502 18504 2704ZM17937 2688H18489Q18495 2505 18495.5 2342.0Q18496 2179 18494.0 2059.0Q18492 1939 18490 1884Q18483 1714 18422.5 1655.0Q18362 1596 18226 1596Q18065 1596 18007.0 1660.5Q17949 1725 17946 1881Q17944 2022 17941.5 2143.0Q17939 2264 17938.0 2392.5Q17937 2521 17937 2688ZM19787 3936V736H20131Q20235 736 20311.5 767.5Q20388 799 20430.5 879.5Q20473 960 20475 1108Q20481 1548 20483.0 1943.0Q20485 2338 20483.0 2732.0Q20481 3126 20475 3564Q20473 3710 20431.0 3791.0Q20389 3872 20312.0 3904.0Q20235 3936 20127 3936ZM19803 3920H20127Q20205 3920 20266.0 3903.5Q20327 3887 20369.5 3847.0Q20412 3807 20435.0 3738.0Q20458 3669 20459 3564Q20465 3126 20467.0 2732.0Q20469 2338 20467.0 1943.0Q20465 1548 20459 1108Q20457 964 20417.0 887.0Q20377 810 20304.0 781.0Q20231 752 20131 752H19803ZM19819 3904V768H20131Q20227 768 20296.0 794.5Q20365 821 20403.0 894.5Q20441 968 20443 1108Q20448 1438 20450.0 1740.5Q20452 2043 20452.0 2337.5Q20452 2632 20450.0 2933.5Q20448 3235 20443 3564Q20441 3702 20404.0 3775.5Q20367 3849 20297.0 3876.5Q20227 3904 20127 3904ZM19835 3888H20127Q20285 3888 20355.0 3812.0Q20425 3736 20427 3564Q20433 3126 20435.0 2711.0Q20437 2296 20435.0 1897.0Q20433 1498 20427 1108Q20425 933 20355.5 858.5Q20286 784 20131 784H19835ZM19851 3872V800H20131Q20226 800 20287.5 829.5Q20349 859 20379.5 926.0Q20410 993 20411 1108Q20416 1482 20418.5 1869.5Q20421 2257 20419.5 2675.5Q20418 3094 20411 3564Q20409 3743 20337.0 3807.5Q20265 3872 20127 3872ZM19867 3856H20127Q20212 3856 20271.5 3830.5Q20331 3805 20362.5 3741.5Q20394 3678 20395 3564Q20400 3210 20402.5 2807.5Q20405 2405 20403.5 1974.5Q20402 1544 20395 1108Q20393 932 20322.0 874.0Q20251 816 20131 816H19867ZM20932 752V736H21012V752ZM20932 816V800H21012V816ZM20932 784V768H21012V784ZM20996 3936V1536H21012V3936ZM20932 3936V1536H20948V3936ZM20964 3936V1536H20980V3936ZM21761 3956Q21586 3956 21509.0 3872.5Q21432 3789 21429 3596Q21428 3488 21427.0 3402.0Q21426 3316 21429 3172H21445Q21443 3331 21443.5 3414.5Q21444 3498 21445 3596Q21448 3780 21521.5 3860.0Q21595 3940 21761 3940Q21924 3940 22001.0 3860.5Q22078 3781 22089 3595Q22093 3536 22093.5 3475.0Q22094 3414 22093.5 3350.0Q22093 3286 22093 3220Q22093 2976 22029.0 2867.0Q21965 2758 21832 2709L21716 2666Q21637 2637 21591.0 2599.5Q21545 2562 21522.5 2466.0Q21500 2370 21493 2166Q21490 2086 21490.5 2025.0Q21491 1964 21493 1882Q21498 1721 21559.5 1650.5Q21621 1580 21761 1580Q21902 1580 21964.5 1649.5Q22027 1719 22029 1880Q22031 1985 22031.0 2068.5Q22031 2152 22029 2296H22013Q22019 2171 22017.0 2068.0Q22015 1965 22013 1881Q22011 1728 21952.5 1662.0Q21894 1596 21761 1596Q21631 1596 21572.5 1662.5Q21514 1729 21509 1882Q21506 1981 21506.5 2036.0Q21507 2091 21509 2165Q21516 2347 21532.5 2440.0Q21549 2533 21592.5 2575.5Q21636 2618 21722 2651L21837 2695Q21921 2727 21982.0 2782.0Q22043 2837 22076.0 2940.5Q22109 3044 22109 3220Q22109 3284 22109.5 3348.5Q22110 3413 22109.5 3475.5Q22109 3538 22105 3596Q22093 3789 22013.0 3872.5Q21933 3956 21761 3956ZM21761 3924Q21603 3924 21533.5 3847.5Q21464 3771 21461 3595Q21460 3492 21458.0 3388.5Q21456 3285 21461 3172H21477Q21471 3298 21473.5 3403.0Q21476 3508 21477 3595Q21479 3762 21545.5 3835.0Q21612 3908 21761 3908Q21910 3908 21978.5 3835.0Q22047 3762 22057 3593Q22062 3504 22061.5 3415.0Q22061 3326 22061 3220Q22061 2986 22002.0 2885.5Q21943 2785 21820 2739L21705 2696Q21609 2660 21559.0 2612.5Q21509 2565 21488.5 2464.0Q21468 2363 21461 2167Q21458 2086 21458.5 2023.5Q21459 1961 21461 1881Q21466 1702 21536.5 1625.0Q21607 1548 21761 1548Q21919 1548 21988.5 1625.0Q22058 1702 22061 1880Q22063 1985 22063.0 2068.5Q22063 2152 22061 2296H22045Q22047 2137 22047.0 2056.0Q22047 1975 22045 1880Q22043 1710 21976.0 1637.0Q21909 1564 21761 1564Q21614 1564 21548.0 1638.0Q21482 1712 21477 1882Q21475 1962 21474.5 2025.5Q21474 2089 21477 2166Q21484 2371 21506.5 2469.5Q21529 2568 21577.5 2608.5Q21626 2649 21710 2681L21826 2725Q21948 2771 22012.5 2871.5Q22077 2972 22077 3220Q22077 3323 22077.5 3414.5Q22078 3506 22073 3594Q22062 3768 21991.0 3846.0Q21920 3924 21761 3924ZM21761 3892Q21620 3892 21557.5 3823.0Q21495 3754 21493 3594Q21492 3514 21489.5 3407.5Q21487 3301 21493 3172H21509Q21504 3290 21506.0 3396.0Q21508 3502 21509 3594Q21511 3745 21569.5 3810.5Q21628 3876 21761 3876Q21901 3876 21958.5 3805.5Q22016 3735 22025 3591Q22031 3498 22030.0 3407.5Q22029 3317 22029 3220Q22029 2991 21975.0 2900.5Q21921 2810 21809 2769L21693 2726Q21590 2688 21535.5 2635.0Q21481 2582 21458.5 2475.0Q21436 2368 21429 2168Q21426 2087 21426.5 2023.0Q21427 1959 21429 1880Q21435 1685 21512.0 1600.5Q21589 1516 21761 1516Q21936 1516 22013.0 1600.5Q22090 1685 22093 1880Q22095 1964 22097.0 2066.0Q22099 2168 22093 2296H22077Q22079 2138 22079.0 2056.0Q22079 1974 22077 1880Q22074 1697 22002.5 1614.5Q21931 1532 21761 1532Q21594 1532 21522.5 1614.5Q21451 1697 21445 1881Q21442 1978 21442.5 2037.5Q21443 2097 21445 2168Q21452 2363 21473.0 2466.5Q21494 2570 21546.5 2621.5Q21599 2673 21699 2711L21815 2755Q21932 2799 21988.5 2894.5Q22045 2990 22045 3220Q22045 3287 22045.5 3350.5Q22046 3414 22045.5 3474.5Q22045 3535 22041 3594Q22031 3753 21966.0 3822.5Q21901 3892 21761 3892ZM22583 4736V4210L22574 3710H22581Q22614 3830 22705.0 3884.5Q22796 3939 22912 3939Q23091 3939 23153.0 3835.5Q23215 3732 23219 3591Q23229 3265 23231.5 2991.0Q23234 2717 23231.0 2449.0Q23228 2181 23219 1875Q23215 1725 23149.5 1628.0Q23084 1531 22911 1531Q22776 1531 22686.0 1599.0Q22596 1667 22577 1766H22573L22584 1536H22599L22598 1555L22591 1685H22595Q22632 1607 22717.5 1561.0Q22803 1515 22912 1515Q23088 1515 23159.0 1613.0Q23230 1711 23235 1875Q23245 2200 23247.5 2474.5Q23250 2749 23247.0 3016.5Q23244 3284 23235 3591Q23231 3755 23160.0 3855.0Q23089 3955 22912 3955Q22810 3955 22721.0 3911.0Q22632 3867 22594 3777H22590L22599 4404V4736ZM22520 4736V1536H22536V4736ZM22552 4736V1536H22568L22564 1877H22568Q22572 1724 22665.5 1636.0Q22759 1548 22910 1548Q23062 1548 23131.0 1633.5Q23200 1719 23204 1877Q23213 2173 23215.5 2450.5Q23218 2728 23215.5 3007.5Q23213 3287 23204 3591Q23200 3744 23134.0 3834.0Q23068 3924 22910 3924Q22757 3924 22666.0 3833.5Q22575 3743 22569 3590H22565L22568 3970V4736ZM22909 3908Q23069 3908 23126.5 3815.0Q23184 3722 23188 3590Q23201 3141 23201.0 2736.5Q23201 2332 23188 1878Q23184 1725 23118.0 1644.5Q23052 1564 22908 1564Q22790 1564 22718.5 1613.5Q22647 1663 22614.5 1734.5Q22582 1806 22580 1874Q22574 2171 22571.0 2440.5Q22568 2710 22570.5 2988.0Q22573 3266 22581 3590Q22583 3660 22616.0 3733.5Q22649 3807 22720.0 3857.5Q22791 3908 22909 3908ZM22907 3892Q22737 3892 22668.0 3792.0Q22599 3692 22596 3590Q22588 3289 22585.0 3012.5Q22582 2736 22585.0 2458.5Q22588 2181 22596 1878Q22599 1774 22670.0 1677.0Q22741 1580 22907 1580Q23052 1580 23110.0 1662.0Q23168 1744 23172 1878Q23181 2175 23183.5 2452.0Q23186 2729 23183.5 3007.5Q23181 3286 23172 3590Q23168 3747 23101.5 3819.5Q23035 3892 22907 3892ZM22906 3876Q23043 3876 23097.5 3797.0Q23152 3718 23156 3590Q23169 3141 23169.0 2737.0Q23169 2333 23156 1879Q23152 1751 23097.0 1673.5Q23042 1596 22906 1596Q22748 1596 22681.5 1688.0Q22615 1780 22612 1879Q22604 2177 22601.0 2457.0Q22598 2737 22601.0 3016.0Q22604 3295 22612 3590Q22615 3690 22681.5 3783.0Q22748 3876 22906 3876ZM23745 3936V736H23761V3936ZM23681 3936V736H23697V3936ZM23713 3936V736H23729V3936ZM24833 3936V1880Q24833 1693 24761.5 1612.5Q24690 1532 24525 1532Q24349 1532 24274.0 1615.0Q24199 1698 24193 1880Q24190 1973 24192.0 2081.0Q24194 2189 24197 2296H24181Q24178 2189 24176.0 2078.0Q24174 1967 24177 1880Q24183 1685 24263.5 1600.5Q24344 1516 24525 1516Q24641 1516 24712.0 1553.0Q24783 1590 24816.0 1670.0Q24849 1750 24849 1880V3936ZM24473 3908Q24591 3908 24663.0 3852.0Q24735 3796 24768.0 3717.0Q24801 3638 24801 3571V2533Q24732 2573 24638.0 2635.0Q24544 2697 24470 2755Q24320 2871 24266.5 3014.0Q24213 3157 24205 3357Q24203 3418 24204.0 3450.0Q24205 3482 24209 3574Q24217 3735 24286.0 3821.5Q24355 3908 24473 3908ZM24473 3892Q24364 3892 24298.5 3811.5Q24233 3731 24225 3573Q24221 3498 24220.0 3456.0Q24219 3414 24221 3357Q24229 3143 24286.5 3007.5Q24344 2872 24482 2766Q24546 2716 24629.0 2660.0Q24712 2604 24785 2561V3571Q24785 3638 24755.0 3713.0Q24725 3788 24656.5 3840.0Q24588 3892 24473 3892ZM24473 3876Q24580 3876 24645.0 3827.5Q24710 3779 24739.5 3708.0Q24769 3637 24769 3571V2589Q24711 2625 24635.5 2675.5Q24560 2726 24490 2780Q24351 2888 24298.0 3021.5Q24245 3155 24237 3358Q24235 3417 24236.0 3448.0Q24237 3479 24241 3573Q24249 3718 24309.0 3797.0Q24369 3876 24473 3876ZM24473 3956Q24328 3956 24249.0 3855.0Q24170 3754 24161 3576Q24157 3502 24156.0 3455.0Q24155 3408 24157 3356Q24164 3168 24216.5 3009.0Q24269 2850 24441 2717Q24487 2682 24541.0 2644.0Q24595 2606 24653.0 2568.0Q24711 2530 24769 2496V1880Q24769 1728 24712.5 1662.0Q24656 1596 24525 1596Q24385 1596 24323.5 1663.0Q24262 1730 24257 1882Q24254 1973 24256.0 2073.5Q24258 2174 24261 2296H24245Q24242 2184 24240.0 2075.5Q24238 1967 24241 1882Q24246 1727 24308.5 1653.5Q24371 1580 24525 1580Q24665 1580 24725.0 1649.5Q24785 1719 24785 1880V2505Q24697 2557 24610.5 2615.0Q24524 2673 24449 2731Q24286 2858 24233.0 3011.5Q24180 3165 24173 3356Q24171 3417 24172.0 3450.0Q24173 3483 24177 3575Q24186 3751 24263.0 3845.5Q24340 3940 24473 3940Q24586 3940 24673.0 3877.5Q24760 3815 24796 3706H24800L24787 3912V3936H24770V3917L24788 3758H24784Q24746 3849 24658.5 3902.5Q24571 3956 24473 3956ZM24802 3936V3896L24808 3647H24804Q24786 3753 24696.5 3838.5Q24607 3924 24473 3924Q24346 3924 24274.0 3833.5Q24202 3743 24193 3574Q24189 3500 24188.0 3456.0Q24187 3412 24189 3357Q24196 3169 24246.5 3019.0Q24297 2869 24461 2742Q24514 2701 24574.5 2660.0Q24635 2619 24694.0 2581.5Q24753 2544 24801 2516V1880Q24801 1710 24737.0 1637.0Q24673 1564 24525 1564Q24370 1564 24300.0 1637.5Q24230 1711 24225 1881Q24222 1974 24224.0 2081.0Q24226 2188 24229 2296H24213Q24210 2186 24208.0 2076.5Q24206 1967 24209 1881Q24214 1705 24286.5 1626.5Q24359 1548 24525 1548Q24681 1548 24749.0 1625.0Q24817 1702 24817 1880V3936ZM25280 4732Q25236 4732 25172.5 4726.5Q25109 4721 25077 4712V4696Q25111 4705 25173.0 4710.5Q25235 4716 25280 4716Q25382 4716 25444.5 4677.5Q25507 4639 25541.0 4562.0Q25575 4485 25588 4370L25924 1536H25940L25604 4372Q25589 4499 25551.0 4578.5Q25513 4658 25447.0 4695.0Q25381 4732 25280 4732ZM25280 4668Q25236 4668 25175.5 4662.5Q25115 4657 25077 4650V4634Q25112 4641 25172.5 4646.5Q25233 4652 25280 4652Q25393 4652 25450.0 4584.0Q25507 4516 25525 4362L25575 3936H25472L25192 1536H25208L25486 3920H25593L25541 4364Q25522 4526 25461.5 4597.0Q25401 4668 25280 4668ZM25280 4700Q25234 4700 25173.5 4694.5Q25113 4689 25077 4681V4665Q25112 4672 25171.0 4678.0Q25230 4684 25280 4684Q25421 4684 25479.5 4600.5Q25538 4517 25556 4366L25611 3904H25500L25463 3584L25224 1536H25240L25478 3572L25515 3888H25613L25892 1536H25908L25572 4368Q25553 4534 25488.5 4617.0Q25424 4700 25280 4700ZM25529 3872 25493 3561 25256 1536H25273L25508 3551L25543 3856H25585L25620 3553L25859 1536H25876L25635 3570L25599 3872Z" fill="currentColor" /></svg>