<svg viewBox="0 0 9851 2010" xmlns="http://www.w3.org/2000/svg"><path d="M0 1610V10H164Q253 10 293.0 53.5Q333 97 336 196Q339 335 339.0 437.0Q339 539 336 634Q335 703 314.5 741.0Q294 779 250 796V826Q295 841 316.0 879.5Q337 918 338 986Q341 1104 341.0 1205.5Q341 1307 338 1424Q335 1523 295.0 1566.5Q255 1610 166 1610ZM40 1570H166Q234 1570 264.5 1536.0Q295 1502 298 1424Q303 1307 303.0 1205.0Q303 1103 298 986Q295 902 261.5 866.0Q228 830 154 830H40ZM40 790H162Q231 790 262.0 754.0Q293 718 296 634Q301 517 301.0 415.0Q301 313 296 196Q293 118 262.5 84.0Q232 50 164 50H40ZM499 134V10H659V134ZM559 1610V410H599V1610ZM1006 1890Q912 1890 851.0 1858.0Q790 1826 790 1730Q790 1722 790.0 1715.5Q790 1709 790 1702Q790 1639 828.0 1608.0Q866 1577 902 1570V1554Q866 1536 849.0 1513.5Q832 1491 832 1458Q832 1453 832.0 1449.5Q832 1446 832 1442Q832 1403 854.0 1376.5Q876 1350 898 1346V1328Q864 1308 848.0 1269.5Q832 1231 830 1170Q828 1085 827.0 1019.5Q826 954 826.0 891.0Q826 828 827.0 755.0Q828 682 830 582Q831 517 848.5 477.0Q866 437 904.5 418.5Q943 400 1006 400Q1081 400 1121.0 424.0Q1161 448 1174 504H1190Q1190 463 1222.0 436.5Q1254 410 1294 410V450H1280Q1238 450 1211.0 495.5Q1184 541 1184 628V674Q1186 749 1186.5 808.5Q1187 868 1187.0 922.5Q1187 977 1185.5 1036.5Q1184 1096 1182 1170Q1180 1234 1162.5 1273.5Q1145 1313 1107.0 1331.5Q1069 1350 1006 1350Q945 1350 908.5 1365.0Q872 1380 872 1442V1458Q872 1487 886.5 1504.5Q901 1522 930.5 1530.5Q960 1539 1006 1542Q1105 1548 1163.5 1576.0Q1222 1604 1222 1702Q1222 1709 1222.0 1715.5Q1222 1722 1222 1730Q1222 1794 1194.5 1828.5Q1167 1863 1118.0 1876.5Q1069 1890 1006 1890ZM1006 1852Q1054 1852 1094.0 1845.0Q1134 1838 1158.0 1812.5Q1182 1787 1182 1732Q1182 1724 1182.0 1716.5Q1182 1709 1182 1702Q1182 1645 1158.5 1621.0Q1135 1597 1095.0 1590.5Q1055 1584 1006 1580Q933 1574 881.5 1595.0Q830 1616 830 1702Q830 1709 830.0 1716.5Q830 1724 830 1732Q830 1787 854.0 1812.5Q878 1838 918.0 1845.0Q958 1852 1006 1852ZM1006 1310Q1078 1310 1108.5 1281.0Q1139 1252 1142 1170Q1144 1102 1145.5 1029.5Q1147 957 1147.0 882.0Q1147 807 1145.5 731.5Q1144 656 1142 582Q1139 498 1109.5 469.0Q1080 440 1006 440Q933 440 903.0 469.0Q873 498 870 582Q868 656 867.0 731.5Q866 807 866.0 882.0Q866 957 867.0 1029.5Q868 1102 870 1170Q873 1252 903.5 1281.0Q934 1310 1006 1310ZM1977 1620Q1884 1620 1842.0 1576.5Q1800 1533 1797 1434Q1795 1356 1794.5 1298.0Q1794 1240 1794.5 1181.5Q1795 1123 1797 1044H1837Q1834 1141 1834.0 1238.5Q1834 1336 1837 1434Q1840 1512 1871.0 1546.0Q1902 1580 1975 1580Q2047 1580 2076.5 1546.0Q2106 1512 2109 1434Q2111 1365 2111.5 1314.5Q2112 1264 2111.0 1210.5Q2110 1157 2109 1078Q2108 985 2091.0 925.5Q2074 866 2011 850L1939 832Q1877 817 1847.5 785.0Q1818 753 1808.5 696.5Q1799 640 1797 552Q1796 475 1797.5 375.0Q1799 275 1799 184Q1799 118 1816.5 77.5Q1834 37 1873.0 18.5Q1912 0 1975 0Q2062 0 2101.0 43.5Q2140 87 2143 186Q2145 247 2145.0 338.5Q2145 430 2143 540H2103Q2106 451 2106.0 362.5Q2106 274 2103 186Q2100 108 2071.0 74.0Q2042 40 1973 40Q1901 40 1871.5 74.0Q1842 108 1839 186Q1836 277 1837.0 368.5Q1838 460 1839 552Q1841 669 1857.0 720.0Q1873 771 1939 788L2013 806Q2073 820 2101.0 853.0Q2129 886 2138.0 941.5Q2147 997 2149 1078Q2151 1161 2151.5 1213.5Q2152 1266 2151.5 1314.5Q2151 1363 2149 1434Q2146 1533 2105.0 1576.5Q2064 1620 1977 1620ZM2348 1610V10H2388V504H2404Q2427 448 2461.0 424.0Q2495 400 2550 400Q2628 400 2663.0 442.0Q2698 484 2698 582V1610H2658V582Q2658 505 2632.5 472.5Q2607 440 2550 440Q2484 440 2446.5 472.5Q2409 505 2388 582V1610ZM3092 1620Q3029 1620 2991.0 1601.5Q2953 1583 2935.5 1543.5Q2918 1504 2916 1440Q2913 1333 2911.5 1225.5Q2910 1118 2910.0 1011.0Q2910 904 2911.5 796.5Q2913 689 2916 582Q2918 517 2935.5 477.0Q2953 437 2991.0 418.5Q3029 400 3092 400Q3155 400 3193.0 418.5Q3231 437 3248.5 477.0Q3266 517 3268 582Q3271 689 3272.5 796.5Q3274 904 3274.0 1011.0Q3274 1118 3272.5 1225.5Q3271 1333 3268 1440Q3266 1504 3248.5 1543.5Q3231 1583 3193.0 1601.5Q3155 1620 3092 1620ZM3092 1580Q3164 1580 3194.5 1551.0Q3225 1522 3228 1440Q3232 1313 3234.0 1210.0Q3236 1107 3236.0 1011.0Q3236 915 3234.0 812.0Q3232 709 3228 582Q3225 498 3195.5 469.0Q3166 440 3092 440Q3019 440 2989.0 469.0Q2959 498 2956 582Q2952 709 2950.5 812.0Q2949 915 2949.0 1011.0Q2949 1107 2950.5 1210.0Q2952 1313 2956 1440Q2959 1522 2989.5 1551.0Q3020 1580 3092 1580ZM3630 1620Q3552 1620 3517.0 1577.5Q3482 1535 3482 1438V410H3522V1438Q3522 1514 3547.5 1547.0Q3573 1580 3630 1580Q3689 1580 3731.0 1543.5Q3773 1507 3792 1438V410H3832V1610H3792V1516H3776Q3757 1565 3719.0 1592.5Q3681 1620 3630 1620ZM4072 1610V10H4112V1610ZM4479 1620Q4401 1620 4367.0 1577.5Q4333 1535 4331 1438Q4330 1331 4329.0 1229.0Q4328 1127 4328.0 1024.5Q4328 922 4329.0 812.5Q4330 703 4331 582Q4333 484 4368.0 442.0Q4403 400 4481 400Q4537 400 4571.0 424.0Q4605 448 4627 504H4641V10H4681V1610H4641V1516H4625Q4603 1567 4569.0 1593.5Q4535 1620 4479 1620ZM4479 1580Q4545 1580 4582.5 1547.0Q4620 1514 4641 1438V582Q4620 505 4583.0 472.5Q4546 440 4481 440Q4424 440 4398.5 472.5Q4373 505 4371 582Q4369 747 4368.5 888.5Q4368 1030 4368.5 1163.5Q4369 1297 4371 1438Q4373 1514 4397.5 1547.0Q4422 1580 4479 1580ZM5081 1620Q4984 1620 4943.5 1578.0Q4903 1536 4901 1440Q4899 1333 4898.0 1225.5Q4897 1118 4897.0 1011.0Q4897 904 4898.0 796.5Q4899 689 4901 582Q4903 484 4945.0 442.0Q4987 400 5081 400Q5170 400 5209.5 442.0Q5249 484 5253 582Q5254 618 5255.0 680.0Q5256 742 5255.5 829.0Q5255 916 5251 1026H4937Q4937 1119 4938.5 1218.0Q4940 1317 4941 1440Q4943 1522 4974.0 1551.0Q5005 1580 5077 1580Q5149 1580 5179.5 1551.0Q5210 1522 5213 1440Q5215 1395 5214.5 1343.5Q5214 1292 5211 1228H5251Q5254 1292 5254.5 1344.0Q5255 1396 5253 1440Q5249 1536 5213.0 1578.0Q5177 1620 5081 1620ZM4937 986H5213Q5215 897 5215.5 819.0Q5216 741 5215.5 680.5Q5215 620 5213 582Q5209 505 5179.0 472.5Q5149 440 5081 440Q5008 440 4975.5 472.5Q4943 505 4941 582Q4940 700 4938.5 797.0Q4937 894 4937 986ZM5462 1610V410H5502V504H5516Q5537 451 5570.5 430.5Q5604 410 5662 410Q5674 410 5687.0 410.0Q5700 410 5712 410V450H5662Q5595 450 5558.5 479.0Q5522 508 5502 582V1610ZM5979 1620Q5885 1620 5850.0 1578.0Q5815 1536 5813 1440Q5812 1396 5812.0 1344.0Q5812 1292 5815 1228H5855Q5852 1291 5852.5 1342.0Q5853 1393 5853 1440Q5855 1522 5881.0 1551.0Q5907 1580 5979 1580Q6051 1580 6079.5 1551.0Q6108 1522 6111 1440Q6112 1408 6113.0 1375.0Q6114 1342 6114.0 1310.5Q6114 1279 6113 1252Q6110 1153 6092.5 1103.5Q6075 1054 6015 1032L5947 1006Q5890 984 5863.0 952.5Q5836 921 5827.0 867.5Q5818 814 5815 726Q5814 687 5815.0 654.0Q5816 621 5817 582Q5820 484 5854.5 442.0Q5889 400 5983 400Q6078 400 6113.0 442.0Q6148 484 6149 582Q6149 624 6149.5 674.5Q6150 725 6147 790H6107Q6109 748 6109.5 712.0Q6110 676 6109.5 644.0Q6109 612 6109 582Q6108 498 6081.5 469.0Q6055 440 5983 440Q5911 440 5885.5 469.0Q5860 498 5857 582Q5856 624 5855.0 657.0Q5854 690 5855 726Q5858 822 5870.5 879.0Q5883 936 5949 962L6019 988Q6091 1015 6123.0 1073.5Q6155 1132 6155 1252Q6155 1295 6154.5 1345.5Q6154 1396 6151 1440Q6145 1536 6109.5 1578.0Q6074 1620 5979 1620ZM6760 1610V10H6932Q7022 10 7062.5 53.5Q7103 97 7104 196Q7107 416 7108.0 613.5Q7109 811 7108.0 1008.0Q7107 1205 7104 1424Q7103 1523 7062.5 1566.5Q7022 1610 6930 1610ZM6800 1570H6930Q7002 1570 7032.5 1536.0Q7063 1502 7064 1424Q7066 1270 7066.5 1116.5Q7067 963 7067.0 810.0Q7067 657 7066.5 503.5Q7066 350 7064 196Q7063 118 7033.0 84.0Q7003 50 6932 50H6800ZM7272 134V10H7432V134ZM7332 1610V410H7372V1610ZM7745 1620Q7651 1620 7616.0 1578.0Q7581 1536 7579 1440Q7578 1396 7578.0 1344.0Q7578 1292 7581 1228H7621Q7618 1291 7618.5 1342.0Q7619 1393 7619 1440Q7621 1522 7647.0 1551.0Q7673 1580 7745 1580Q7817 1580 7845.5 1551.0Q7874 1522 7877 1440Q7878 1408 7879.0 1375.0Q7880 1342 7880.0 1310.5Q7880 1279 7879 1252Q7876 1153 7858.5 1103.5Q7841 1054 7781 1032L7713 1006Q7656 984 7629.0 952.5Q7602 921 7593.0 867.5Q7584 814 7581 726Q7580 687 7581.0 654.0Q7582 621 7583 582Q7586 484 7620.5 442.0Q7655 400 7749 400Q7844 400 7879.0 442.0Q7914 484 7915 582Q7915 624 7915.5 674.5Q7916 725 7913 790H7873Q7875 748 7875.5 712.0Q7876 676 7875.5 644.0Q7875 612 7875 582Q7874 498 7847.5 469.0Q7821 440 7749 440Q7677 440 7651.5 469.0Q7626 498 7623 582Q7622 624 7621.0 657.0Q7620 690 7621 726Q7624 822 7636.5 879.0Q7649 936 7715 962L7785 988Q7857 1015 7889.0 1073.5Q7921 1132 7921 1252Q7921 1295 7920.5 1345.5Q7920 1396 7917 1440Q7911 1536 7875.5 1578.0Q7840 1620 7745 1620ZM8126 2010V410H8166V504H8182Q8205 448 8238.0 424.0Q8271 400 8328 400Q8406 400 8440.5 442.0Q8475 484 8476 582Q8478 662 8478.5 767.5Q8479 873 8479.0 989.5Q8479 1106 8478.5 1221.5Q8478 1337 8476 1438Q8475 1535 8440.5 1577.5Q8406 1620 8328 1620Q8271 1620 8238.0 1595.5Q8205 1571 8182 1516H8166V2010ZM8328 1580Q8385 1580 8410.0 1547.0Q8435 1514 8436 1438Q8439 1301 8440.0 1187.5Q8441 1074 8440.5 974.5Q8440 875 8439.0 779.5Q8438 684 8436 582Q8435 505 8410.0 472.5Q8385 440 8328 440Q8262 440 8224.5 472.5Q8187 505 8166 582V1438Q8187 1514 8224.5 1547.0Q8262 1580 8328 1580ZM8695 1610V10H8735V1610ZM9091 1620Q9015 1620 8977.5 1568.5Q8940 1517 8935 1430Q8934 1400 8933.0 1374.0Q8932 1348 8933 1320Q8935 1256 8947.0 1199.5Q8959 1143 8989.0 1093.5Q9019 1044 9075 1000Q9111 973 9153.5 944.0Q9196 915 9239 890V582Q9239 505 9210.5 472.5Q9182 440 9113 440Q9053 440 9019.5 469.0Q8986 498 8983 582Q8982 611 8981.5 645.5Q8981 680 8981.5 717.0Q8982 754 8983 790H8945Q8944 736 8943.0 680.5Q8942 625 8943 582Q8945 517 8964.0 477.0Q8983 437 9021.0 418.5Q9059 400 9117 400Q9177 400 9212.5 419.0Q9248 438 9263.5 478.0Q9279 518 9279 582V1610H9239V1516H9227Q9212 1561 9181.0 1590.5Q9150 1620 9091 1620ZM9091 1580Q9148 1580 9184.0 1546.5Q9220 1513 9239 1446V936Q9206 954 9168.5 978.5Q9131 1003 9075 1050Q9014 1102 8995.0 1171.0Q8976 1240 8973 1320Q8973 1336 8973.5 1367.0Q8974 1398 8975 1430Q8980 1502 9011.0 1541.0Q9042 1580 9091 1580ZM9526 2008Q9504 2008 9469.5 2005.0Q9435 2002 9415 1998V1960Q9436 1964 9463.5 1967.0Q9491 1970 9522 1970Q9593 1970 9615.5 1940.0Q9638 1910 9648 1828L9676 1610H9599L9477 410H9521L9571 1018L9633 1570H9680L9744 1018L9807 410H9851L9688 1828Q9681 1892 9663.5 1931.5Q9646 1971 9613.0 1989.5Q9580 2008 9526 2008Z" /></svg>