<svg viewBox="0 0 6644 1012" xmlns="http://www.w3.org/2000/svg"><path d="M243 1012Q237 1012 234 1011Q224 1007 219.5 989.5Q215 972 215 947Q215 919 219.0 887.5Q223 856 229.0 828.0Q235 800 240 783Q227 776 210.5 759.5Q194 743 188 728Q186 720 186 715Q186 710 188 704Q190 701 192.5 702.0Q195 703 195 705Q198 719 209 730Q220 741 232.0 749.5Q244 758 247 760Q253 739 276 692Q298 646 329.5 585.0Q361 524 398 454L469 317Q503 250 532.0 192.0Q561 134 577 95Q568 106 552.0 131.0Q536 156 519.0 183.5Q502 211 489 232Q461 277 434 324Q406 372 376.0 417.0Q346 462 314 501Q281 541 244 570Q206 599 164.0 615.5Q122 632 73 630Q39 628 19.5 599.0Q0 570 0 537Q0 518 6 503Q16 480 37.5 454.0Q59 428 84.0 406.0Q109 384 131 372Q136 370 136 372Q136 375 133 378Q120 391 104.5 415.0Q89 439 74.5 468.0Q60 497 51 523Q43 549 43 569Q43 588 51.0 601.0Q59 614 78 614Q117 614 161 584Q204 554 249.5 507.0Q295 460 339 402Q383 344 423 287Q444 256 468.0 220.5Q492 185 514.0 153.5Q536 122 550 104Q566 84 574.5 74.0Q583 64 599 64Q616 64 622.0 74.5Q628 85 628 100Q628 116 622.5 135.0Q617 154 611 168Q575 245 534.0 321.0Q493 397 452 473Q410 549 372.0 626.5Q334 704 304 783Q311 785 326.5 788.0Q342 791 352 792Q369 745 386.0 701.5Q403 658 424 609Q445 561 472.5 503.0Q500 445 539 367Q555 335 576.5 294.5Q598 254 624.0 216.5Q650 179 681.5 155.0Q713 131 749 131Q789 131 809.5 155.0Q830 179 830 210Q830 221 827 233Q819 272 792.5 310.0Q766 348 728.5 380.0Q691 412 650 433Q744 447 802.5 488.5Q861 530 861 587Q861 629 840 663Q819 698 783.5 724.5Q748 751 701 770Q654 789 601 800Q564 808 525.0 812.5Q486 817 448 817Q417 817 387 814Q379 843 364.5 880.0Q350 917 328.5 950.5Q307 984 280 1001Q272 1005 262.5 1008.5Q253 1012 243 1012ZM419 795Q445 795 475 792Q564 784 642 750Q680 734 709 710Q738 687 755.5 657.5Q773 628 773 592Q773 535 730.5 497.5Q688 460 624 454Q620 458 609.0 473.5Q598 489 593 494Q586 504 578.0 492.0Q570 480 570 464Q570 448 579 438Q583 433 596.5 430.5Q610 428 627 430L657 395Q681 366 706.0 333.0Q731 300 748.5 263.5Q766 227 766 188Q766 173 761.0 163.5Q756 154 742 154Q721 154 697 173Q673 192 649.0 222.0Q625 252 603 288Q580 324 561 358Q542 392 528.5 420.0Q515 448 509 461Q456 586 429 674L392 794Q399 794 405.5 794.5Q412 795 419 795ZM258 990Q265 990 275.0 974.0Q285 958 296.0 933.5Q307 909 317.5 883.0Q328 857 336.0 836.5Q344 816 347 809Q336 808 319.5 805.5Q303 803 297 800Q293 806 286.0 824.0Q279 842 272.5 862.0Q266 882 264 894Q261 908 257.0 932.5Q253 957 253 974Q253 990 258 990ZM1095 385Q1069 385 1069 360Q1069 345 1080.0 334.5Q1091 324 1104 324Q1117 324 1124.5 333.0Q1132 342 1130 355Q1127 368 1117.5 376.5Q1108 385 1095 385ZM933 822Q881 822 881 757Q881 743 884 725Q888 704 899.5 674.5Q911 645 925.5 615.5Q940 586 952 565Q962 549 975.0 527.0Q988 505 1000.0 486.0Q1012 467 1015 461Q1021 448 1039.0 440.5Q1057 433 1071 433Q1087 433 1087 442Q1087 448 1083 453Q1064 484 1038.5 525.0Q1013 566 989.0 609.0Q965 652 949.0 691.0Q933 730 933 758Q933 773 938.5 782.0Q944 791 959 791Q975 791 995.5 775.5Q1016 760 1035.5 740.5Q1055 721 1065 710L1085 689Q1090 684 1094.0 678.5Q1098 673 1102 668Q1105 665 1107 665Q1113 665 1113 674Q1113 679 1109 683Q1098 697 1087.0 710.0Q1076 723 1064 736Q1039 766 1006.0 794.0Q973 822 933 822ZM1159 990Q1128 990 1114.5 974.5Q1101 959 1101 934Q1101 918 1107 896Q1115 862 1134.5 822.5Q1154 783 1169 760Q1181 742 1193.0 723.0Q1205 704 1218 684L1267 606Q1281 584 1281 562Q1281 538 1262 525L1248 516Q1240 511 1236 507L1222 530L1208 552Q1187 581 1160.0 616.0Q1133 651 1108.0 683.0Q1083 715 1066 734Q1063 737 1060 737Q1055 737 1052.5 732.0Q1050 727 1054 723Q1093 679 1129.5 632.5Q1166 586 1196 535L1208 515L1220 494Q1212 489 1205.0 475.5Q1198 462 1198 450Q1198 433 1212 430H1213Q1223 430 1233 442Q1243 456 1242 493Q1266 511 1289.0 517.0Q1312 523 1326.5 531.5Q1341 540 1341 564Q1341 568 1340.5 573.0Q1340 578 1339 583Q1334 607 1313.5 642.0Q1293 677 1268.0 713.5Q1243 750 1225 777Q1207 806 1187.0 840.5Q1167 875 1154.5 906.0Q1142 937 1146 955Q1149 965 1160 965Q1176 965 1199 952Q1230 934 1256.0 913.5Q1282 893 1310 865Q1325 850 1348.5 823.5Q1372 797 1398.0 766.5Q1424 736 1446 711Q1455 699 1466 687L1486 665Q1489 662 1491 662Q1497 662 1497 670Q1497 673 1492 680Q1482 694 1469.5 709.0Q1457 724 1446 737Q1420 767 1388.5 804.5Q1357 842 1325.5 878.0Q1294 914 1265 940Q1242 960 1217.0 975.0Q1192 990 1159 990ZM1479 998Q1460 998 1446.0 982.0Q1432 966 1432 932Q1432 913 1436 893Q1438 883 1444.0 854.0Q1450 825 1458 795Q1467 758 1483.0 710.5Q1499 663 1522 610Q1539 568 1557.0 531.0Q1575 494 1593 459H1455Q1444 459 1444 454Q1444 443 1466 443H1602Q1627 398 1654.0 358.0Q1681 318 1714 283Q1731 263 1745.5 255.0Q1760 247 1775.5 243.5Q1791 240 1810 236Q1764 292 1729.5 341.5Q1695 391 1665 443H1813Q1825 443 1825 449Q1825 452 1819.5 455.5Q1814 459 1803 459H1656Q1632 501 1610.0 547.5Q1588 594 1563 649Q1542 695 1525.5 747.5Q1509 800 1499.0 844.0Q1489 888 1489 907Q1489 953 1514 953Q1526 953 1544 941Q1583 917 1614.0 891.5Q1645 866 1673 838Q1688 824 1708.5 802.0Q1729 780 1750.0 757.0Q1771 734 1787 716L1804 697Q1807 694 1809 694Q1815 694 1815 702Q1815 707 1811 712Q1806 720 1800 727Q1793 734 1787 742Q1744 795 1692.0 849.0Q1640 903 1585 948Q1562 966 1537.0 982.0Q1512 998 1479 998ZM1947 958Q1918 958 1907.0 942.5Q1896 927 1896 898Q1896 866 1913.0 825.5Q1930 785 1953.0 745.5Q1976 706 1995 676Q1999 670 2009.0 653.5Q2019 637 2032.0 616.0Q2045 595 2056.0 576.5Q2067 558 2072 547Q2086 519 2086 506Q2086 498 2080 498Q2065 498 2018 539Q2000 556 1973.0 584.0Q1946 612 1916.5 645.5Q1887 679 1861.5 715.0Q1836 751 1821 784Q1815 797 1807.5 802.5Q1800 808 1793 808Q1776 808 1776 789Q1776 782 1779 775Q1789 747 1808.0 701.5Q1827 656 1849.0 604.0Q1871 552 1892.5 504.0Q1914 456 1929 423Q1908 429 1891.0 433.0Q1874 437 1861 437Q1853 437 1850 436Q1839 433 1839 430Q1839 427 1852 426Q1867 426 1889.0 420.5Q1911 415 1937 406Q1953 371 1975 327Q1997 283 2025.0 238.0Q2053 193 2086 150Q2119 107 2158 74Q2197 41 2241.0 20.5Q2285 0 2334 0Q2360 0 2375.0 16.5Q2390 33 2390 63Q2390 91 2372 122Q2354 154 2323.0 185.5Q2292 217 2252 248Q2211 279 2167 307Q2123 335 2077.0 359.0Q2031 383 1990 400Q1956 468 1925.0 537.5Q1894 607 1869 670Q1876 660 1894.0 639.0Q1912 618 1934.0 594.0Q1956 570 1974 552Q1994 533 2019.5 512.5Q2045 492 2069.5 478.5Q2094 465 2113 465Q2133 465 2141.5 473.0Q2150 481 2150 495Q2150 516 2136.5 544.0Q2123 572 2109 596Q2102 609 2084.5 636.0Q2067 663 2048.0 692.0Q2029 721 2018 739Q2003 761 1986.5 789.0Q1970 817 1957.5 842.5Q1945 868 1943 882Q1942 888 1941.5 892.5Q1941 897 1941 902Q1941 926 1959 926Q1968 926 1977 922Q1987 919 2005.5 903.5Q2024 888 2044.0 867.5Q2064 847 2082.0 827.5Q2100 808 2109 797L2183 711Q2188 705 2193.5 699.5Q2199 694 2204 688Q2213 676 2223 665Q2226 662 2229 662Q2235 662 2235 669Q2235 673 2230 680Q2219 694 2206.5 709.0Q2194 724 2183 737Q2175 747 2158.5 768.0Q2142 789 2123.0 813.0Q2104 837 2087 856Q2067 878 2042.0 902.0Q2017 926 1992.0 942.0Q1967 958 1947 958ZM2002 378Q2041 360 2083 336Q2124 313 2164.0 286.5Q2204 260 2240 231Q2275 203 2302 173Q2330 143 2345.0 114.5Q2360 86 2360 59Q2360 50 2356.0 41.0Q2352 32 2332 32Q2301 32 2269.0 48.5Q2237 65 2206.5 91.5Q2176 118 2150.0 147.5Q2124 177 2105 203Q2055 271 2002 378ZM2120 981Q2083 983 2061.0 967.5Q2039 952 2039 930Q2039 916 2049.5 900.5Q2060 885 2082 872Q2124 847 2177.0 836.5Q2230 826 2284 809L2303 769Q2315 743 2327.0 701.5Q2339 660 2348.0 616.0Q2357 572 2360 542Q2331 571 2304.5 599.5Q2278 628 2249.0 661.0Q2220 694 2183 737Q2177 744 2174 744Q2171 744 2171 739Q2171 727 2183 712L2255 626Q2272 606 2292.0 585.0Q2312 564 2333 542L2358 516Q2361 499 2367.0 480.0Q2373 461 2384.5 448.0Q2396 435 2415 435Q2435 435 2442.0 446.0Q2449 457 2446 468Q2438 471 2418.0 488.5Q2398 506 2379 523Q2380 532 2380.0 542.5Q2380 553 2380 565Q2380 589 2378.5 618.5Q2377 648 2372 684Q2364 737 2350 782Q2375 769 2398.0 752.5Q2421 736 2444 712Q2452 703 2460.0 694.0Q2468 685 2476 675Q2478 673 2480 673Q2483 673 2485.5 678.0Q2488 683 2485 687Q2467 712 2444 735Q2423 756 2397.0 773.5Q2371 791 2342 806Q2313 880 2259.0 927.5Q2205 975 2120 981ZM2098 958Q2109 958 2122 955Q2157 947 2195.0 919.5Q2233 892 2269 834Q2225 847 2182 857Q2138 867 2096 891Q2063 910 2063 934Q2063 958 2098 958ZM2472 998Q2453 998 2439.0 982.0Q2425 966 2425 932Q2425 913 2429 893Q2431 883 2437.0 854.0Q2443 825 2451 795Q2460 758 2476.0 710.5Q2492 663 2515 610Q2532 568 2550.0 531.0Q2568 494 2586 459H2448Q2437 459 2437 454Q2437 443 2459 443H2595Q2620 398 2647.0 358.0Q2674 318 2707 283Q2724 263 2738.5 255.0Q2753 247 2768.5 243.5Q2784 240 2803 236Q2757 292 2722.5 341.5Q2688 391 2658 443H2806Q2818 443 2818 449Q2818 452 2812.5 455.5Q2807 459 2796 459H2649Q2625 501 2603.0 547.5Q2581 594 2556 649Q2535 695 2518.5 747.5Q2502 800 2492.0 844.0Q2482 888 2482 907Q2482 953 2507 953Q2519 953 2537 941Q2576 917 2607.0 891.5Q2638 866 2666 838Q2681 824 2701.5 802.0Q2722 780 2743.0 757.0Q2764 734 2780 716L2797 697Q2800 694 2802 694Q2808 694 2808 702Q2808 707 2804 712Q2799 720 2793 727Q2786 734 2780 742Q2737 795 2685.0 849.0Q2633 903 2578 948Q2555 966 2530.0 982.0Q2505 998 2472 998ZM2887 826Q2853 826 2830.5 797.0Q2808 768 2808 723Q2808 687 2820 652Q2832 618 2852.5 587.0Q2873 556 2899 529Q2933 494 2976.5 468.0Q3020 442 3056 442Q3084 442 3099.5 455.5Q3115 469 3115 488Q3115 500 3107 514Q3133 517 3158 517Q3177 517 3196.0 515.0Q3215 513 3234 509H3238Q3246 509 3246 513Q3246 517 3237 520Q3227 524 3204.0 528.0Q3181 532 3156.0 534.5Q3131 537 3111 537Q3104 537 3099.0 537.0Q3094 537 3090 536L3080 541Q3092 558 3092 588Q3092 628 3072.5 669.5Q3053 711 3021.5 746.5Q2990 782 2954.5 804.0Q2919 826 2887 826ZM2896 802Q2923 802 2949.0 782.5Q2975 763 2996.5 731.5Q3018 700 3032.5 663.5Q3047 627 3052 593Q3053 587 3053.0 581.5Q3053 576 3053 571Q3053 562 3052.0 554.5Q3051 547 3048 543Q3046 543 3045 542Q3033 540 3027.5 536.0Q3022 532 3015 527Q3011 522 3011 515Q3011 508 3016.5 504.0Q3022 500 3029 502Q3054 507 3083 511Q3093 494 3093 480Q3093 456 3057 456Q3035 456 3011.5 472.5Q2988 489 2965.0 515.5Q2942 542 2921.0 573.5Q2900 605 2885 635Q2875 655 2867.5 684.0Q2860 713 2860 740Q2860 765 2868.5 783.5Q2877 802 2896 802ZM3344 823Q3327 823 3320.0 810.0Q3313 797 3313 779Q3313 747 3330.5 706.0Q3348 665 3371.0 622.0Q3394 579 3411.5 540.5Q3429 502 3429 475Q3429 462 3424.5 454.0Q3420 446 3411 446Q3399 446 3382 459Q3363 472 3339 502L3302 548Q3273 584 3243.5 624.5Q3214 665 3190.5 700.0Q3167 735 3156 756Q3147 772 3135 772Q3128 772 3122.0 765.0Q3116 758 3116 747Q3116 740 3119 731Q3154 664 3185.5 588.0Q3217 512 3248 450Q3257 433 3278.0 420.5Q3299 408 3315 408Q3330 408 3330 419Q3330 425 3321 442Q3310 459 3294.0 486.0Q3278 513 3261.0 543.0Q3244 573 3229.5 600.0Q3215 627 3208 644Q3219 629 3238.5 599.0Q3258 569 3292 529L3324 491Q3356 453 3383.0 439.0Q3410 425 3433 425Q3451 425 3464.0 434.0Q3477 443 3477 465Q3477 491 3466.0 516.5Q3455 542 3448 557Q3441 573 3428.0 601.0Q3415 629 3402.0 661.0Q3389 693 3380.0 721.0Q3371 749 3371 764Q3371 777 3379 777Q3389 777 3405.5 766.5Q3422 756 3438.5 743.0Q3455 730 3464 722Q3497 692 3531 652Q3536 646 3539 646Q3542 646 3542 652Q3542 655 3539.5 660.0Q3537 665 3534 671Q3528 681 3515.0 697.5Q3502 714 3488 729Q3467 752 3441.5 773.0Q3416 794 3385 811Q3377 815 3370.5 817.5Q3364 820 3360 821Q3356 822 3352.0 822.5Q3348 823 3344 823ZM3552 966Q3513 966 3492.0 934.5Q3471 903 3471 845Q3471 835 3471.5 825.0Q3472 815 3473 804Q3479 755 3503.5 697.0Q3528 639 3579 573Q3613 529 3653.0 507.0Q3693 485 3730 485Q3756 485 3776 495Q3800 508 3800 542Q3800 567 3782.0 597.5Q3764 628 3721 656Q3664 692 3626.0 704.0Q3588 716 3565 717Q3557 728 3549.0 751.5Q3541 775 3535.5 800.5Q3530 826 3528 846Q3528 850 3527.5 854.5Q3527 859 3527 864Q3527 894 3537.5 915.5Q3548 937 3575 937Q3599 937 3629.0 919.5Q3659 902 3688.5 877.5Q3718 853 3740.5 830.5Q3763 808 3772 797L3846 711L3886 665Q3889 662 3891 662Q3897 662 3897 670Q3897 673 3892 680Q3882 694 3869.5 709.0Q3857 724 3846 737Q3832 753 3811.5 778.0Q3791 803 3768.5 830.0Q3746 857 3725 877Q3687 914 3643.5 940.0Q3600 966 3552 966ZM3574 701Q3588 700 3609.0 690.0Q3630 680 3653.0 666.0Q3676 652 3695.5 637.5Q3715 623 3727 613Q3750 595 3761.0 573.0Q3772 551 3772 535Q3772 524 3766.5 516.0Q3761 508 3750 508Q3729 508 3704.5 528.5Q3680 549 3655.5 580.5Q3631 612 3609.5 644.5Q3588 677 3574 701ZM4263 1012Q4257 1012 4254 1011Q4244 1007 4239.5 989.5Q4235 972 4235 947Q4235 919 4239.0 887.5Q4243 856 4249.0 828.0Q4255 800 4260 783Q4247 776 4230.5 759.5Q4214 743 4208 728Q4206 720 4206 715Q4206 710 4208 704Q4210 701 4212.5 702.0Q4215 703 4215 705Q4218 719 4229 730Q4240 741 4252.0 749.5Q4264 758 4267 760Q4273 739 4296 692Q4318 646 4349.5 585.0Q4381 524 4418 454L4489 317Q4523 250 4552.0 192.0Q4581 134 4597 95Q4588 106 4572.0 131.0Q4556 156 4539.0 183.5Q4522 211 4509 232Q4481 277 4454 324Q4426 372 4396.0 417.0Q4366 462 4334 501Q4301 541 4264 570Q4226 599 4184.0 615.5Q4142 632 4093 630Q4059 628 4039.5 599.0Q4020 570 4020 537Q4020 518 4026 503Q4036 480 4057.5 454.0Q4079 428 4104.0 406.0Q4129 384 4151 372Q4156 370 4156 372Q4156 375 4153 378Q4140 391 4124.5 415.0Q4109 439 4094.5 468.0Q4080 497 4071 523Q4063 549 4063 569Q4063 588 4071.0 601.0Q4079 614 4098 614Q4137 614 4181 584Q4224 554 4269.5 507.0Q4315 460 4359 402Q4403 344 4443 287Q4464 256 4488.0 220.5Q4512 185 4534.0 153.5Q4556 122 4570 104Q4586 84 4594.5 74.0Q4603 64 4619 64Q4636 64 4642.0 74.5Q4648 85 4648 100Q4648 116 4642.5 135.0Q4637 154 4631 168Q4595 245 4554.0 321.0Q4513 397 4472 473Q4430 549 4392.0 626.5Q4354 704 4324 783Q4331 785 4346.5 788.0Q4362 791 4372 792Q4389 745 4406.0 701.5Q4423 658 4444 609Q4465 561 4492.5 503.0Q4520 445 4559 367Q4575 335 4596.5 294.5Q4618 254 4644.0 216.5Q4670 179 4701.5 155.0Q4733 131 4769 131Q4809 131 4829.5 155.0Q4850 179 4850 210Q4850 221 4847 233Q4839 272 4812.5 310.0Q4786 348 4748.5 380.0Q4711 412 4670 433Q4764 447 4822.5 488.5Q4881 530 4881 587Q4881 629 4860 663Q4839 698 4803.5 724.5Q4768 751 4721 770Q4674 789 4621 800Q4584 808 4545.0 812.5Q4506 817 4468 817Q4437 817 4407 814Q4399 843 4384.5 880.0Q4370 917 4348.5 950.5Q4327 984 4300 1001Q4292 1005 4282.5 1008.5Q4273 1012 4263 1012ZM4439 795Q4465 795 4495 792Q4584 784 4662 750Q4700 734 4729 710Q4758 687 4775.5 657.5Q4793 628 4793 592Q4793 535 4750.5 497.5Q4708 460 4644 454Q4640 458 4629.0 473.5Q4618 489 4613 494Q4606 504 4598.0 492.0Q4590 480 4590 464Q4590 448 4599 438Q4603 433 4616.5 430.5Q4630 428 4647 430L4677 395Q4701 366 4726.0 333.0Q4751 300 4768.5 263.5Q4786 227 4786 188Q4786 173 4781.0 163.5Q4776 154 4762 154Q4741 154 4717 173Q4693 192 4669.0 222.0Q4645 252 4623 288Q4600 324 4581 358Q4562 392 4548.5 420.0Q4535 448 4529 461Q4476 586 4449 674L4412 794Q4419 794 4425.5 794.5Q4432 795 4439 795ZM4278 990Q4285 990 4295.0 974.0Q4305 958 4316.0 933.5Q4327 909 4337.5 883.0Q4348 857 4356.0 836.5Q4364 816 4367 809Q4356 808 4339.5 805.5Q4323 803 4317 800Q4313 806 4306.0 824.0Q4299 842 4292.5 862.0Q4286 882 4284 894Q4281 908 4277.0 932.5Q4273 957 4273 974Q4273 990 4278 990ZM4988 826Q4954 826 4931.5 797.0Q4909 768 4909 723Q4909 687 4921 652Q4933 618 4953.5 587.0Q4974 556 5000 529Q5034 494 5077.5 468.0Q5121 442 5157 442Q5185 442 5200.5 455.5Q5216 469 5216 488Q5216 500 5208 514Q5234 517 5259 517Q5278 517 5297.0 515.0Q5316 513 5335 509H5339Q5347 509 5347 513Q5347 517 5338 520Q5328 524 5305.0 528.0Q5282 532 5257.0 534.5Q5232 537 5212 537Q5205 537 5200.0 537.0Q5195 537 5191 536L5181 541Q5193 558 5193 588Q5193 628 5173.5 669.5Q5154 711 5122.5 746.5Q5091 782 5055.5 804.0Q5020 826 4988 826ZM4997 802Q5024 802 5050.0 782.5Q5076 763 5097.5 731.5Q5119 700 5133.5 663.5Q5148 627 5153 593Q5154 587 5154.0 581.5Q5154 576 5154 571Q5154 562 5153.0 554.5Q5152 547 5149 543Q5147 543 5146 542Q5134 540 5128.5 536.0Q5123 532 5116 527Q5112 522 5112 515Q5112 508 5117.5 504.0Q5123 500 5130 502Q5155 507 5184 511Q5194 494 5194 480Q5194 456 5158 456Q5136 456 5112.5 472.5Q5089 489 5066.0 515.5Q5043 542 5022.0 573.5Q5001 605 4986 635Q4976 655 4968.5 684.0Q4961 713 4961 740Q4961 765 4969.5 783.5Q4978 802 4997 802ZM5433 825Q5413 825 5404.0 812.0Q5395 799 5395 777Q5395 751 5405.5 714.5Q5416 678 5431 640Q5417 662 5398.0 688.0Q5379 714 5358.0 737.0Q5337 760 5316.5 775.0Q5296 790 5279 790Q5251 790 5240.5 771.0Q5230 752 5230 727Q5230 711 5232.5 695.5Q5235 680 5239 668Q5257 617 5286.0 560.5Q5315 504 5349.5 452.0Q5384 400 5420 362Q5444 338 5456 338Q5462 338 5462 345Q5462 352 5455.5 365.0Q5449 378 5435 395Q5424 408 5405.0 442.5Q5386 477 5364.0 520.5Q5342 564 5322.5 607.0Q5303 650 5290 682Q5282 701 5278.5 716.0Q5275 731 5275 741Q5275 765 5291 765Q5312 765 5345 726Q5353 716 5368.0 695.5Q5383 675 5400.5 650.5Q5418 626 5434.0 603.0Q5450 580 5460 565L5483 523Q5488 513 5503.5 506.5Q5519 500 5532 500Q5541 500 5541 509Q5541 520 5536.5 531.5Q5532 543 5524 556Q5509 580 5495.0 613.0Q5481 646 5470.5 677.0Q5460 708 5457 726Q5453 743 5453 760Q5453 764 5453.5 768.0Q5454 772 5455 775Q5457 788 5465 788Q5469 788 5475 785Q5497 774 5519.0 753.5Q5541 733 5561 710Q5571 699 5580.0 689.0Q5589 679 5597 668Q5600 665 5602 665Q5608 665 5608 673Q5608 679 5604 683L5560 736Q5549 749 5537.0 761.5Q5525 774 5514 785Q5494 804 5472.0 814.5Q5450 825 5433 825ZM5792 823Q5775 823 5768.0 810.0Q5761 797 5761 779Q5761 747 5778.5 706.0Q5796 665 5819.0 622.0Q5842 579 5859.5 540.5Q5877 502 5877 475Q5877 462 5872.5 454.0Q5868 446 5859 446Q5847 446 5830 459Q5811 472 5787 502L5750 548Q5721 584 5691.5 624.5Q5662 665 5638.5 700.0Q5615 735 5604 756Q5595 772 5583 772Q5576 772 5570.0 765.0Q5564 758 5564 747Q5564 740 5567 731Q5602 664 5633.5 588.0Q5665 512 5696 450Q5705 433 5726.0 420.5Q5747 408 5763 408Q5778 408 5778 419Q5778 425 5769 442Q5758 459 5742.0 486.0Q5726 513 5709.0 543.0Q5692 573 5677.5 600.0Q5663 627 5656 644Q5667 629 5686.5 599.0Q5706 569 5740 529L5772 491Q5804 453 5831.0 439.0Q5858 425 5881 425Q5899 425 5912.0 434.0Q5925 443 5925 465Q5925 491 5914.0 516.5Q5903 542 5896 557Q5889 573 5876.0 601.0Q5863 629 5850.0 661.0Q5837 693 5828.0 721.0Q5819 749 5819 764Q5819 777 5827 777Q5837 777 5853.5 766.5Q5870 756 5886.5 743.0Q5903 730 5912 722Q5945 692 5979 652Q5984 646 5987 646Q5990 646 5990 652Q5990 655 5987.5 660.0Q5985 665 5982 671Q5976 681 5963.0 697.5Q5950 714 5936 729Q5915 752 5889.5 773.0Q5864 794 5833 811Q5825 815 5818.5 817.5Q5812 820 5808 821Q5804 822 5800.0 822.5Q5796 823 5792 823ZM6029 852Q5986 852 5968.0 826.0Q5950 800 5950 760Q5950 731 5957.5 696.5Q5965 662 5976.5 630.0Q5988 598 5999 576Q6019 535 6047.0 492.5Q6075 450 6107.0 415.0Q6139 380 6173.5 358.5Q6208 337 6241 337Q6270 337 6284.5 357.5Q6299 378 6299 405Q6299 434 6283 457Q6250 505 6235 505Q6230 505 6230 498Q6230 491 6238 470Q6242 461 6248.0 443.5Q6254 426 6258.5 407.5Q6263 389 6262 375Q6259 374 6253 374Q6232 374 6207.5 391.0Q6183 408 6158.0 435.0Q6133 462 6112.0 491.5Q6091 521 6077 546Q6066 566 6053.0 594.5Q6040 623 6028.5 654.5Q6017 686 6011 712Q6007 726 6005.0 740.0Q6003 754 6003 767Q6003 789 6011.5 804.0Q6020 819 6041 819Q6076 819 6109.5 803.0Q6143 787 6173.0 762.0Q6203 737 6228 711Q6249 690 6265 668Q6268 665 6270 665Q6276 665 6276 674Q6276 679 6272 683L6228 735Q6207 760 6174.0 787.5Q6141 815 6103.0 833.5Q6065 852 6029 852ZM6299 966Q6260 966 6239.0 934.5Q6218 903 6218 845Q6218 835 6218.5 825.0Q6219 815 6220 804Q6226 755 6250.5 697.0Q6275 639 6326 573Q6360 529 6400.0 507.0Q6440 485 6477 485Q6503 485 6523 495Q6547 508 6547 542Q6547 567 6529.0 597.5Q6511 628 6468 656Q6411 692 6373.0 704.0Q6335 716 6312 717Q6304 728 6296.0 751.5Q6288 775 6282.5 800.5Q6277 826 6275 846Q6275 850 6274.5 854.5Q6274 859 6274 864Q6274 894 6284.5 915.5Q6295 937 6322 937Q6346 937 6376.0 919.5Q6406 902 6435.5 877.5Q6465 853 6487.5 830.5Q6510 808 6519 797L6593 711L6633 665Q6636 662 6638 662Q6644 662 6644 670Q6644 673 6639 680Q6629 694 6616.5 709.0Q6604 724 6593 737Q6579 753 6558.5 778.0Q6538 803 6515.5 830.0Q6493 857 6472 877Q6434 914 6390.5 940.0Q6347 966 6299 966ZM6321 701Q6335 700 6356.0 690.0Q6377 680 6400.0 666.0Q6423 652 6442.5 637.5Q6462 623 6474 613Q6497 595 6508.0 573.0Q6519 551 6519 535Q6519 524 6513.5 516.0Q6508 508 6497 508Q6476 508 6451.5 528.5Q6427 549 6402.5 580.5Q6378 612 6356.5 644.5Q6335 677 6321 701Z" /></svg>