<svg viewBox="0 0 3193 1059" xmlns="http://www.w3.org/2000/svg"><path d="M533 603Q533 707 470.5 757.5Q408 808 262 808H0V50H262Q395 50 449.0 100.0Q503 150 503 253Q503 314 477.5 356.5Q452 399 397 423Q533 467 533 603ZM97 387H262Q403 387 404 260Q404 190 373.0 161.0Q342 132 262 132H97ZM262 469H97V726H262Q356 726 395.0 695.0Q434 664 434 597Q434 530 390.5 499.5Q347 469 262 469ZM692 0H786V151H692ZM692 255H786V808H692ZM1250 243V331H1227Q1141 331 1060 400V808H966V255H1060V317Q1142 243 1227 243ZM1815 255 1570 897Q1544 965 1523.0 998.0Q1502 1031 1473.5 1045.0Q1445 1059 1395 1059Q1366 1059 1336 1051V966Q1362 972 1388 972Q1422 972 1441.5 952.0Q1461 932 1484 873L1510 806L1300 255H1398L1557 683L1720 255ZM2305 488V808H2211V753Q2173 789 2135.0 805.0Q2097 821 2053 821Q2001 821 1959.0 798.5Q1917 776 1892.5 733.5Q1868 691 1868 633Q1868 543 1924.0 493.5Q1980 444 2075 444Q2150 444 2210 477Q2209 428 2200.0 399.0Q2191 370 2163.0 354.5Q2135 339 2080 339H2006V255H2095Q2183 255 2229.0 284.5Q2275 314 2290.0 363.5Q2305 413 2305 488ZM2211 676V550Q2155 522 2089 522Q2036 522 2000.0 547.5Q1964 573 1964 633Q1964 689 1994.5 714.5Q2025 740 2066 740Q2100 740 2137.5 724.0Q2175 708 2211 676ZM2924 475V808H2830V475Q2830 397 2803.5 364.0Q2777 331 2710 331Q2632 331 2554 399V808H2460V255H2554V314Q2636 243 2723 243Q2825 243 2874.5 297.0Q2924 351 2924 475ZM3099 0H3193V151H3099ZM3099 255H3193V808H3099Z" fill="currentColor" /></svg>