<svg viewBox="0 0 2503 1200" xmlns="http://www.w3.org/2000/svg"><path d="M365 581 368 577Q434 579 476.0 603.0Q518 627 537.5 666.0Q557 705 557 752Q557 802 534.0 843.5Q511 885 459.0 910.0Q407 935 320 935H61V920L168 906L161 914V265L168 273L61 263V248L182 243H326Q398 243 443.0 264.5Q488 286 509.0 323.5Q530 361 530 410Q530 472 493.5 518.0Q457 564 365 581ZM321 262H174L181 255V578L174 571H293Q371 571 418.5 550.0Q466 529 487.0 493.0Q508 457 508 412Q508 367 488.5 333.5Q469 300 428.0 281.0Q387 262 321 262ZM320 916Q399 916 446.0 894.0Q493 872 514.0 835.5Q535 799 535 754Q535 709 515.5 671.5Q496 634 455.0 612.0Q414 590 348 590H174L181 583V923L174 916ZM775 914 768 906 865 920V935H665V920L762 906L755 914V436L762 444L665 430V415L775 410ZM757 272Q746 272 739.0 264.0Q732 256 732 243Q732 229 739.5 221.0Q747 213 758 213Q770 213 777.0 221.0Q784 229 784 243Q784 257 776.0 264.5Q768 272 757 272ZM1104 941Q1067 941 1043.0 917.5Q1019 894 1019 844V425L1026 432H916V418L1026 413L1019 420V293L1039 292V420L1032 413H1192L1190 432H1032L1039 425V841Q1039 883 1058.0 902.0Q1077 921 1108 921Q1128 921 1151.0 914.0Q1174 907 1199 894L1206 910Q1149 941 1104 941ZM1432 941Q1395 941 1371.0 917.5Q1347 894 1347 844V425L1354 432H1244V418L1354 413L1347 420V293L1367 292V420L1360 413H1520L1518 432H1360L1367 425V841Q1367 883 1386.0 902.0Q1405 921 1436 921Q1456 921 1479.0 914.0Q1502 907 1527 894L1534 910Q1477 941 1432 941ZM1819 941Q1758 941 1710.0 911.0Q1662 881 1634.5 822.5Q1607 764 1607 681Q1607 598 1634.5 536.5Q1662 475 1712.5 441.0Q1763 407 1831 407Q1894 407 1936.5 435.5Q1979 464 2000.5 514.0Q2022 564 2022 630Q2022 635 2022.0 641.0Q2022 647 2021 658H1616V639H2010L2001 645Q2002 586 1986.0 536.0Q1970 486 1932.5 456.0Q1895 426 1831 426Q1768 426 1722.5 457.5Q1677 489 1652.5 546.0Q1628 603 1628 679Q1628 757 1653.0 811.0Q1678 865 1722.0 893.5Q1766 922 1822 922Q1865 922 1913.5 905.0Q1962 888 2012 853L2023 868Q1969 905 1917.5 923.0Q1866 941 1819 941ZM2135 935V920L2232 906L2225 914V436L2232 444L2135 430V415L2240 410L2245 511L2241 508Q2284 461 2327.0 434.0Q2370 407 2422 407Q2454 407 2488 417L2483 515H2465L2456 423L2461 431Q2452 429 2442.5 428.0Q2433 427 2424 427Q2375 427 2330.0 455.5Q2285 484 2241 532L2245 521V914L2238 906L2355 920V935Z" fill="currentColor" /></svg>