<svg viewBox="0 0 3254 691" xmlns="http://www.w3.org/2000/svg"><path d="M280 691 0 615 40 469 64 475V184H183L43 146L83 0L440 98V299L361 321L440 343V598ZM235 286 289 301V213L215 193V360ZM215 503H164L289 537V458L215 438ZM641 674 465 626 496 510V52L647 15V519L680 528ZM896 677 705 625 716 584V282H795L825 164L1122 242L1084 389L1064 384V517L1116 531L1077 677L908 631ZM867 512 913 525V524V343L867 331ZM1328 674 1152 626 1183 510V95L1334 34V204L1537 84V259L1469 299L1405 284L1537 362V613L1386 674V448L1334 418V519L1367 528ZM1758 677 1567 625 1578 584V282H1657L1687 164L1984 242L1946 389L1926 384V517L1978 531L1939 677L1770 631ZM1729 512 1775 525V524V343L1729 331ZM2340 674 2164 626 2195 510V154L2164 146L2203 0L2379 48L2346 172V519L2379 528ZM2585 674 2409 626 2440 510V344L2409 336L2448 190L2604 233L2620 174L2839 234L2806 358V519L2839 528L2800 674L2624 626L2655 510V340L2601 325L2591 362V519L2624 528ZM3045 674 2869 626 2900 510V95L3051 34V204L3254 84V259L3186 299L3122 284L3254 362V613L3103 674V448L3051 418V519L3084 528Z" /></svg>