<svg viewBox="0 0 3284 1167" xmlns="http://www.w3.org/2000/svg"><path d="M295 949 15 873 55 727 79 733V442H198L58 404L98 258L455 356V557L376 579L455 601V856ZM250 544 304 559V471L230 451V618ZM230 761H179L304 795V716L230 696ZM656 932 480 884 511 768V310L662 273V777L695 786ZM911 935 720 883 731 842V540H810L840 422L1137 500L1099 647L1079 642V775L1131 789L1092 935L923 889ZM882 770 928 783V782V601L882 589ZM1343 932 1167 884 1198 768V353L1349 292V462L1552 342V517L1484 557L1420 542L1552 620V871L1401 932V706L1349 676V777L1382 786ZM1773 935 1582 883 1593 842V540H1672L1702 422L1999 500L1961 647L1941 642V775L1993 789L1954 935L1785 889ZM1744 770 1790 783V782V601L1744 589ZM2355 932 2179 884 2210 768V412L2179 404L2218 258L2394 306L2361 430V777L2394 786ZM2600 932 2424 884 2455 768V602L2424 594L2463 448L2619 491L2635 432L2854 492L2821 616V777L2854 786L2815 932L2639 884L2670 768V598L2616 583L2606 620V777L2639 786ZM3060 932 2884 884 2915 768V353L3066 292V462L3269 342V517L3201 557L3137 542L3269 620V871L3118 932V706L3066 676V777L3099 786Z" fill="currentColor" /></svg>