<svg viewBox="0 0 4243 3700" xmlns="http://www.w3.org/2000/svg"><path d="M348 1066Q580 929 597 929Q614 929 655 961Q696 993 737.0 1049.0Q778 1105 778 1159V1503Q778 1550 610 1621Q639 1629 679.0 1669.5Q719 1710 749.5 1761.0Q780 1812 780 1855V2310Q780 2316 735.5 2337.0Q691 2358 624.0 2385.5Q557 2413 485.5 2439.0Q414 2465 357.5 2482.5Q301 2500 281 2500Q248 2500 206.0 2459.5Q164 2419 133.0 2351.0Q102 2283 102 2201V1218Q102 1107 18 1089V1044L225 927Q270 946 309.0 988.0Q348 1030 348 1066ZM532 1271Q532 1217 509 1176Q482 1130 437.0 1136.5Q392 1143 348 1197V1621Q532 1570 532 1400ZM452 2312Q492 2312 532 2279V1961Q532 1810 428 1810Q386 1810 348 1841V2160Q348 2312 452 2312ZM964 2201V1521Q964 1515 1010.5 1494.5Q1057 1474 1127.0 1447.0Q1197 1420 1269.5 1393.5Q1342 1367 1397.0 1350.0Q1452 1333 1466 1333Q1484 1333 1513.0 1356.5Q1542 1380 1571.5 1417.0Q1601 1454 1621.5 1494.5Q1642 1535 1642 1568V2310Q1642 2316 1597.5 2337.0Q1553 2358 1486.0 2385.5Q1419 2413 1347.5 2439.0Q1276 2465 1219.5 2482.5Q1163 2500 1143 2500Q1110 2500 1068.0 2459.5Q1026 2419 995.0 2351.0Q964 2283 964 2201ZM1314 2312Q1354 2312 1394 2279V1675Q1394 1523 1290 1523Q1248 1523 1210 1554V2160Q1210 2312 1314 2312ZM2092 1968V2197Q2092 2321 2176 2338V2383L1969 2500Q1924 2482 1885.0 2440.0Q1846 2398 1846 2361V1347Q1846 1292 1827.5 1268.5Q1809 1245 1764 1245V1187Q1897 1117 2016.0 1051.5Q2135 986 2239 925L2272 991Q2251 1001 2214.5 1030.5Q2178 1060 2153 1091Q2092 1168 2092 1267V1456Q2283 1333 2317 1333Q2355 1333 2401.0 1367.5Q2447 1402 2480.5 1457.0Q2514 1512 2514 1574V1798Q2514 1819 2301 1902Q2430 2244 2552 2295Q2588 2313 2638 2318V2377Q2448 2500 2399 2500Q2373 2500 2339.0 2462.5Q2305 2425 2268.0 2364.0Q2231 2303 2197.0 2231.5Q2163 2160 2135.5 2090.5Q2108 2021 2092 1968ZM2157 1531 2092 1542V1867Q2133 1867 2239 1816L2276 1798V1705Q2276 1531 2157 1531ZM2685 2201V1521Q2685 1515 2731.5 1494.5Q2778 1474 2848.0 1447.0Q2918 1420 2990.5 1393.5Q3063 1367 3118.0 1350.0Q3173 1333 3187 1333Q3205 1333 3234.0 1356.5Q3263 1380 3292.5 1417.0Q3322 1454 3342.5 1494.5Q3363 1535 3363 1568V2310Q3363 2316 3318.5 2337.0Q3274 2358 3207.0 2385.5Q3140 2413 3068.5 2439.0Q2997 2465 2940.5 2482.5Q2884 2500 2864 2500Q2831 2500 2789.0 2459.5Q2747 2419 2716.0 2351.0Q2685 2283 2685 2201ZM3035 2312Q3075 2312 3115 2279V1675Q3115 1523 3011 1523Q2969 1523 2931 1554V2160Q2931 2312 3035 2312ZM3467 1501V1456L3692 1333Q3700 1335 3708.5 1337.5Q3717 1340 3727 1344Q3747 1351 3780.0 1384.0Q3813 1417 3813 1458Q3820 1455 3910 1393Q3997 1333 4022 1333Q4066 1333 4107.5 1374.0Q4149 1415 4175.5 1471.5Q4202 1528 4202 1576V1677L3991 1795L3956 1767Q3956 1596 3924 1570Q3886 1544 3813 1544V2197Q3813 2321 3897 2338V2383L3690 2500Q3645 2482 3606.0 2440.0Q3567 2398 3567 2361V1681Q3567 1591 3535.5 1546.0Q3504 1501 3467 1501Z" fill="currentColor" /></svg>