<svg viewBox="0 0 5790 1920" xmlns="http://www.w3.org/2000/svg"><path d="M685 618Q685 739 631.0 800.5Q577 862 457 882V898Q504 904 543.5 919.0Q583 934 614 961Q644 987 665.0 1024.0Q686 1061 695 1102Q705 1147 705 1202Q705 1260 692.5 1310.0Q680 1360 655 1399Q628 1440 592.0 1466.5Q556 1493 513 1506Q467 1520 413 1520H60V330H404Q455 330 499.5 342.5Q544 355 578 379Q611 404 634.5 437.0Q658 470 673 518Q679 541 682.0 566.0Q685 591 685 618ZM344 550H295V797H344Q385 797 411 775Q423 765 431.5 751.0Q440 737 446 716Q448 706 449.0 695.5Q450 685 450 674Q450 628 432 597Q423 583 410.0 571.5Q397 560 381 555Q362 550 344 550ZM295 1300H356Q399 1300 427 1276Q442 1264 451.0 1246.5Q460 1229 465 1207Q470 1183 470 1158Q470 1134 464.5 1110.5Q459 1087 450 1070Q429 1034 395 1023Q377 1017 356 1017H295ZM1200 1530Q1124 1530 1058.0 1506.5Q992 1483 940 1443Q886 1403 845.5 1349.0Q805 1295 782 1223Q760 1157 760 1082Q760 1010 782.0 943.0Q804 876 844 821Q886 764 941.5 724.0Q997 684 1060 663Q1093 652 1128.0 646.0Q1163 640 1200 640Q1271 640 1338.5 663.0Q1406 686 1460 725Q1513 765 1554.5 820.5Q1596 876 1618 943Q1628 976 1634.0 1011.0Q1640 1046 1640 1082Q1640 1142 1621.5 1211.0Q1603 1280 1555 1347Q1515 1403 1459.0 1444.0Q1403 1485 1339 1507Q1306 1518 1271.0 1524.0Q1236 1530 1200 1530ZM1201 1315Q1234 1315 1267.5 1304.0Q1301 1293 1327 1271Q1360 1245 1378.5 1214.5Q1397 1184 1404 1158Q1409 1141 1412.0 1122.5Q1415 1104 1415 1085Q1415 1046 1404.0 1011.5Q1393 977 1374 948Q1357 924 1331.0 901.5Q1305 879 1268 866Q1235 855 1201 855Q1129 855 1074 898Q1048 918 1027.0 947.5Q1006 977 996 1011Q991 1028 988.0 1047.0Q985 1066 985 1085Q985 1116 994.0 1151.0Q1003 1186 1027 1221Q1046 1249 1072.0 1270.0Q1098 1291 1133 1303Q1166 1315 1201 1315ZM1940 1520H1715V320H1940ZM2630 1520H2405Q2405 1514 2406.5 1504.5Q2408 1495 2413 1481Q2418 1468 2421.0 1459.0Q2424 1450 2433 1434Q2436 1429 2439.0 1423.5Q2442 1418 2445 1413L2433 1403Q2422 1425 2404.0 1446.5Q2386 1468 2367 1482Q2347 1498 2323.0 1509.0Q2299 1520 2274 1524Q2261 1527 2247.0 1528.5Q2233 1530 2219 1530Q2030 1530 2030 1277V890Q2030 792 2067 730Q2084 701 2108.0 681.0Q2132 661 2166 650Q2196 640 2232 640Q2248 640 2269.5 643.5Q2291 647 2306 652Q2328 662 2340.5 669.5Q2353 677 2373 691Q2389 704 2405 722V320H2630ZM2415 1224V946Q2415 913 2402 889Q2398 882 2387.5 872.5Q2377 863 2364 859Q2351 855 2335 855Q2321 855 2308.0 858.5Q2295 862 2285 871Q2275 879 2268.5 888.5Q2262 898 2259 915Q2255 931 2255 946V1224Q2255 1257 2268 1280Q2272 1288 2282.5 1297.5Q2293 1307 2307 1311Q2319 1315 2335 1315Q2349 1315 2362.0 1311.5Q2375 1308 2386 1299Q2395 1291 2401.5 1281.5Q2408 1272 2412 1255Q2415 1239 2415 1224ZM3145 1530Q3069 1530 3003.0 1506.5Q2937 1483 2885 1443Q2831 1403 2790.5 1349.0Q2750 1295 2727 1223Q2705 1157 2705 1082Q2705 1010 2727.0 943.0Q2749 876 2789 821Q2831 764 2886.5 724.0Q2942 684 3005 663Q3038 652 3073.0 646.0Q3108 640 3145 640Q3216 640 3283.5 663.0Q3351 686 3405 725Q3458 765 3499.5 820.5Q3541 876 3563 943Q3573 976 3579.0 1011.0Q3585 1046 3585 1082Q3585 1142 3566.5 1211.0Q3548 1280 3500 1347Q3460 1403 3404.0 1444.0Q3348 1485 3284 1507Q3251 1518 3216.0 1524.0Q3181 1530 3145 1530ZM3146 1315Q3179 1315 3212.5 1304.0Q3246 1293 3272 1271Q3305 1245 3323.5 1214.5Q3342 1184 3349 1158Q3354 1141 3357.0 1122.5Q3360 1104 3360 1085Q3360 1046 3349.0 1011.5Q3338 977 3319 948Q3302 924 3276.0 901.5Q3250 879 3213 866Q3180 855 3146 855Q3074 855 3019 898Q2993 918 2972.0 947.5Q2951 977 2941 1011Q2936 1028 2933.0 1047.0Q2930 1066 2930 1085Q2930 1116 2939.0 1151.0Q2948 1186 2972 1221Q2991 1249 3017.0 1270.0Q3043 1291 3078 1303Q3111 1315 3146 1315ZM3660 650H3885Q3885 654 3883.0 666.5Q3881 679 3878 686Q3874 697 3870.0 708.0Q3866 719 3858 734Q3855 740 3852.0 745.5Q3849 751 3845 757L3857 767Q3876 739 3893.0 721.5Q3910 704 3931 687Q3950 672 3973.0 661.0Q3996 650 4018 645Q4029 643 4040.5 641.5Q4052 640 4064 640Q4094 640 4123.5 649.5Q4153 659 4175 678Q4219 718 4233 790Q4236 808 4238.0 828.0Q4240 848 4240 870V1520H4015V910Q4015 898 4013.0 891.5Q4011 885 4005 874Q4001 868 3993.0 863.0Q3985 858 3979 857Q3969 855 3961 855Q3953 855 3946.0 856.5Q3939 858 3931 860Q3922 862 3916.0 865.5Q3910 869 3900 874Q3896 876 3892.5 878.5Q3889 881 3885 884V1520H3660ZM4660 910V872Q4660 825 4601 825Q4550 825 4550 874Q4550 879 4551.0 884.5Q4552 890 4558 898Q4564 908 4577.0 921.5Q4590 935 4610 952Q4620 961 4633.5 972.0Q4647 983 4664 995Q4719 1038 4753.0 1066.0Q4787 1094 4818 1127Q4841 1152 4857.0 1179.5Q4873 1207 4879 1233Q4885 1261 4885 1291Q4885 1407 4811.5 1468.5Q4738 1530 4597 1530Q4487 1530 4418 1491Q4378 1469 4356.5 1437.5Q4335 1406 4327 1377Q4315 1337 4315 1293V1215H4510V1273Q4510 1300 4524 1317Q4533 1329 4540.5 1333.5Q4548 1338 4561 1341Q4567 1343 4573.5 1344.0Q4580 1345 4587 1345Q4599 1345 4609.5 1343.0Q4620 1341 4633 1334Q4651 1324 4657 1306Q4660 1294 4660 1286Q4660 1276 4657.0 1266.0Q4654 1256 4646 1245Q4639 1236 4621.5 1220.0Q4604 1204 4587 1190Q4576 1181 4563.0 1171.0Q4550 1161 4534 1149Q4487 1113 4449.5 1081.0Q4412 1049 4389 1022Q4365 994 4351.0 969.0Q4337 944 4331 916Q4325 889 4325 860Q4325 640 4593 640Q4643 640 4686.5 648.5Q4730 657 4760 673Q4823 708 4845 772Q4855 803 4855 845V910ZM5765 1082V1155H5157Q5163 1185 5176.5 1210.5Q5190 1236 5207 1254Q5226 1274 5247.0 1287.0Q5268 1300 5298 1307Q5311 1311 5325.5 1313.0Q5340 1315 5356 1315Q5404 1315 5444 1299Q5484 1283 5509 1254Q5515 1247 5520.0 1239.0Q5525 1231 5529 1223H5758Q5744 1285 5717.0 1331.0Q5690 1377 5657 1408Q5619 1446 5571.5 1473.0Q5524 1500 5468 1515Q5441 1522 5412.0 1526.0Q5383 1530 5353 1530Q5276 1530 5213.5 1507.5Q5151 1485 5102 1447Q4995 1365 4955 1228Q4935 1160 4935 1082Q4935 1007 4956.0 938.0Q4977 869 5015 815Q5054 760 5106.5 721.0Q5159 682 5222 661Q5286 640 5355 640Q5422 640 5486.0 662.5Q5550 685 5599 725Q5650 767 5687.5 821.0Q5725 875 5745 943Q5765 1009 5765 1082ZM5161 1005H5544Q5528 952 5490 914Q5453 877 5403 862Q5390 859 5377.0 857.0Q5364 855 5350 855Q5299 855 5252 882Q5235 892 5216.5 910.0Q5198 928 5183 955Q5169 980 5161 1005Z" fill="currentColor" /></svg>