<svg viewBox="0 0 2385 1000" xmlns="http://www.w3.org/2000/svg"><path d="M0 986V264H212Q316 264 374.5 313.5Q433 363 433 452Q433 551 349 605Q410 628 444.5 674.5Q479 721 479 784Q479 881 415.0 933.5Q351 986 232 986ZM90 581H210Q273 581 307.5 550.5Q342 520 342 465Q342 350 205 350H90ZM90 900H243Q317 900 352.5 872.0Q388 844 388 783Q388 724 351.0 693.5Q314 663 245 663H90ZM810 1000Q742 1000 688.5 967.5Q635 935 604.5 878.0Q574 821 574 749Q574 677 605.0 621.0Q636 565 689.5 532.5Q743 500 810 500Q877 500 930.0 532.5Q983 565 1013.5 621.0Q1044 677 1044 749Q1044 821 1013.5 878.0Q983 935 930.5 967.5Q878 1000 810 1000ZM809 914Q873 914 911.5 869.0Q950 824 950 749Q950 712 939 681Q879 679 830.5 657.0Q782 635 754 597Q714 614 691.0 654.5Q668 695 668 751Q668 824 706.5 869.0Q745 914 809 914ZM969 673Q952 668 945.0 660.0Q938 652 938 639Q938 619 948.0 605.0Q958 591 972 591Q976 591 980.0 591.5Q984 592 991 594Q996 595 1003.0 596.0Q1010 597 1017 597Q1039 597 1055.0 588.5Q1071 580 1084 558Q1071 532 1063.0 505.0Q1055 478 1048 443Q1063 426 1084.0 416.5Q1105 407 1124 407Q1149 407 1165.5 431.0Q1182 455 1182 493Q1182 506 1181 518Q1194 516 1209 512Q1241 505 1260.5 502.5Q1280 500 1294 500Q1348 500 1379.0 540.5Q1410 581 1410 650V811Q1410 866 1424.5 890.0Q1439 914 1471 914Q1485 914 1492.5 926.0Q1500 938 1500 958Q1500 974 1491.5 987.0Q1483 1000 1464 1000Q1319 1000 1319 822V667Q1319 622 1309.0 604.0Q1299 586 1273 586Q1264 586 1253.0 588.0Q1242 590 1214 596Q1175 604 1153 607Q1131 642 1095.0 661.5Q1059 681 1013 681Q991 681 969 673ZM1464 1000Q1451 1000 1443.0 988.0Q1435 976 1435 957Q1435 914 1471 914Q1500 914 1530.0 904.5Q1560 895 1600 872Q1561 804 1561 712Q1561 650 1584.0 602.5Q1607 555 1648.0 527.5Q1689 500 1741 500Q1785 500 1819.0 520.5Q1853 541 1872.0 577.0Q1891 613 1891 660Q1891 724 1853.5 777.0Q1816 830 1727 892Q1759 915 1813 915Q1827 915 1835.0 927.0Q1843 939 1843 959Q1843 978 1834.0 989.0Q1825 1000 1808 1000Q1760 1000 1718.0 984.0Q1676 968 1648 940Q1552 1000 1464 1000ZM1648 704Q1648 783 1676 830Q1741 785 1772.5 742.0Q1804 699 1804 660Q1804 624 1786.5 603.5Q1769 583 1738 583Q1699 583 1673.5 618.0Q1648 653 1648 704ZM1808 1000Q1794 1000 1786.0 988.0Q1778 976 1778 957Q1778 938 1787.5 926.5Q1797 915 1814 915Q1878 915 1937.5 884.0Q1997 853 2039 807Q2034 764 2034 698V228Q2034 118 2077.0 59.0Q2120 0 2200 0Q2285 0 2328.5 67.5Q2372 135 2372 266Q2372 427 2310.5 576.0Q2249 725 2136 839Q2138 845 2140 851Q2166 914 2236 914Q2291 914 2328 864Q2349 866 2365.5 882.0Q2382 898 2385 918Q2363 955 2321.0 977.5Q2279 1000 2229 1000Q2162 1000 2124.0 972.5Q2086 945 2066 905Q2065 902 2064 900Q2009 947 1946.5 973.5Q1884 1000 1808 1000ZM2201 86Q2164 86 2143.5 118.0Q2123 150 2123 209V694Q2123 714 2123 728Q2283 514 2283 261Q2283 86 2201 86Z" /></svg>