<svg viewBox="0 0 17340 1620" xmlns="http://www.w3.org/2000/svg"><path d="M0 1420V74L864 44Q944 44 1014.0 54.0Q1084 64 1155.5 91.5Q1227 119 1277.5 162.5Q1328 206 1360.0 278.0Q1392 350 1392 444Q1392 569 1337.0 646.5Q1282 724 1172 784Q1301 820 1368.5 908.5Q1436 997 1436 1132Q1436 1232 1398.0 1311.5Q1360 1391 1300.0 1441.0Q1240 1491 1159.0 1524.0Q1078 1557 998.5 1570.5Q919 1584 836 1584Q788 1584 691.5 1582.0Q595 1580 546 1580Q268 1580 36 1588Q3 1535 0 1420ZM574 408Q574 453 577.0 542.0Q580 631 580 676Q580 695 604 698Q618 696 652.5 691.5Q687 687 707.0 684.0Q727 681 755.5 669.5Q784 658 800.0 642.0Q816 626 828.0 595.5Q840 565 840 524Q840 372 630 372Q588 379 581 386Q574 394 574 408ZM592 1170Q592 1244 600 1244H632Q671 1244 699.5 1241.5Q728 1239 761.0 1229.0Q794 1219 814.0 1201.5Q834 1184 848.0 1152.0Q862 1120 862 1076Q862 1051 857.0 1030.0Q852 1009 841.0 994.0Q830 979 819.5 968.0Q809 957 789.5 949.5Q770 942 757.5 937.5Q745 933 720.0 930.0Q695 927 684.0 926.0Q673 925 646.0 923.5Q619 922 612 922V960Q611 971 601.5 1034.0Q592 1097 592 1134ZM1498 832 1496 810Q1515 647 1532 583Q1571 433 1672 332L1696 308Q1744 252 1842 212H1880Q1978 171 2202 136Q2258 136 2319.5 144.5Q2381 153 2456.0 172.5Q2531 192 2600.5 234.5Q2670 277 2716 336V364Q2880 569 2880 824Q2880 1111 2748 1292L2708 1342Q2662 1399 2593.5 1440.0Q2525 1481 2448.0 1502.5Q2371 1524 2300.5 1533.0Q2230 1542 2160 1542Q2057 1542 1963.5 1517.5Q1870 1493 1788.5 1441.0Q1707 1389 1645.0 1313.0Q1583 1237 1544.5 1129.5Q1506 1022 1498 892ZM2048 840Q2048 1192 2182 1192Q2219 1192 2246.5 1178.0Q2274 1164 2291.0 1135.0Q2308 1106 2319.0 1076.0Q2330 1046 2334.5 1001.0Q2339 956 2340.5 922.0Q2342 888 2342 840V804Q2342 752 2336.0 704.0Q2330 656 2315.5 607.5Q2301 559 2271.0 529.5Q2241 500 2198 500Q2048 500 2048 796ZM3492 851Q3510 778 3525.5 686.0Q3541 594 3551.0 522.0Q3561 450 3574.5 345.5Q3588 241 3597 180H4173Q4176 204 4179.5 231.5Q4183 259 4186.0 284.0Q4189 309 4192.5 337.0Q4196 365 4199.0 390.5Q4202 416 4205.0 444.0Q4208 472 4211.5 497.0Q4215 522 4218.5 549.0Q4222 576 4225 600L4268 883L4349 195Q4351 189 4356.5 185.0Q4362 181 4372.0 178.5Q4382 176 4391.0 174.5Q4400 173 4415.5 172.5Q4431 172 4440.0 172.0Q4449 172 4466.0 172.0Q4483 172 4489 172Q4521 172 4581.0 174.0Q4641 176 4673 176Q4677 176 4694.0 175.0Q4711 174 4721 174Q4759 174 4765 180Q4770 180 4782.5 179.0Q4795 178 4801 178Q4810 178 4816.5 179.0Q4823 180 4830.0 183.5Q4837 187 4842.5 192.0Q4848 197 4852.5 206.0Q4857 215 4859 228L4568 1504H3983L3872 862L3803 1392Q3802 1398 3797.5 1425.0Q3793 1452 3790.5 1462.0Q3788 1472 3782.0 1489.0Q3776 1506 3767.0 1513.0Q3758 1520 3745 1520Q3708 1520 3635.0 1517.0Q3562 1514 3525 1514Q3461 1514 3357.0 1517.0Q3253 1520 3205 1520H3173L2907 277L2913 206Q2913 204 2913.0 198.0Q2913 192 2913.0 190.5Q2913 189 2914.0 184.5Q2915 180 2917.0 178.0Q2919 176 2923.0 173.0Q2927 170 2933 168Q2961 172 2975 172H3041Q3061 172 3061 168H3095Q3099 168 3109.5 167.0Q3120 166 3129 166H3157Q3168 166 3189.0 165.0Q3210 164 3221 164H3287V168H3353Q3385 168 3401.5 177.5Q3418 187 3419 216ZM4944 1516Q4941 1512 4934.5 1507.0Q4928 1502 4920 1488V1056Q4920 971 4927.0 795.0Q4934 619 4934 528Q4934 508 4930.0 443.0Q4926 378 4926 340Q4926 199 4960 168Q5168 172 5270 172H5366Q5400 172 5418 174Q5420 172 5428 172Q5430 172 5445.5 174.0Q5461 176 5470 176Q5495 179 5512 218V232Q5512 243 5511.0 264.0Q5510 285 5510 296V340Q5509 345 5497.5 357.5Q5486 370 5486 378V1108H5910Q5926 1108 5934.0 1109.0Q5942 1110 5950.0 1118.0Q5958 1126 5958 1142V1476Q5950 1516 5862 1516ZM7106 808Q7157 808 7200.0 840.0Q7243 872 7269.0 920.5Q7295 969 7309.5 1021.5Q7324 1074 7324 1120Q7320 1242 7254.5 1332.5Q7189 1423 7080 1462L6996 1512H6052V168H6812Q7038 168 7170 264Q7228 302 7258.0 374.0Q7288 446 7288 526Q7288 628 7243.5 690.0Q7199 752 7106 808ZM6588 936 6548 1185Q6548 1189 6562.0 1194.5Q6576 1200 6586 1202H6664Q6729 1197 6768.5 1169.5Q6808 1142 6808 1078Q6808 1055 6803.0 1036.0Q6798 1017 6790.5 1003.0Q6783 989 6770.0 978.0Q6757 967 6745.5 960.0Q6734 953 6715.0 948.5Q6696 944 6683.5 941.5Q6671 939 6650.5 937.5Q6630 936 6619.0 936.0Q6608 936 6588 936ZM6568 496Q6576 541 6576 600V620Q6576 623 6575.0 630.0Q6574 637 6574 640Q6574 644 6575.0 657.5Q6576 671 6576 680V712Q6576 723 6584 726Q6610 726 6625.0 725.0Q6640 724 6668.5 721.0Q6697 718 6715.0 709.0Q6733 700 6752.0 685.5Q6771 671 6780.5 646.0Q6790 621 6790 588Q6790 543 6760.0 515.0Q6730 487 6692.0 478.5Q6654 470 6606 470Q6602 472 6584 472V470Q6568 476 6568 496ZM7917 176 8074 670Q8150 467 8216 264Q8218 256 8228.0 234.0Q8238 212 8240 198Q8248 174 8348 174Q8355 174 8367.5 175.0Q8380 176 8388 176Q8551 174 8740 172Q8764 175 8774 221L8320 1043L8336 1110Q8336 1168 8338.0 1287.0Q8340 1406 8340 1452V1482Q8336 1496 8324.5 1505.0Q8313 1514 8292.5 1516.5Q8272 1519 8256.5 1519.5Q8241 1520 8212.5 1519.0Q8184 1518 8174 1518H7792L7760 1476V1058L7529 565L7422 415Q7340 251 7340 204Q7340 176 7388 176ZM9378 804V694Q9388 554 9439.0 438.5Q9490 323 9568.5 244.0Q9647 165 9750.0 110.5Q9853 56 9965.5 31.0Q10078 6 10198 6Q10264 6 10335.5 17.0Q10407 28 10487.0 52.0Q10567 76 10640.5 122.5Q10714 169 10762 232Q10861 353 10905.5 485.5Q10950 618 10950 780Q10953 1118 10802 1324L10758 1384Q10700 1464 10592.0 1517.5Q10484 1571 10376.0 1591.5Q10268 1612 10158 1612Q10029 1612 9920.0 1586.0Q9811 1560 9732.0 1516.0Q9653 1472 9591.0 1409.0Q9529 1346 9489.5 1276.0Q9450 1206 9424.5 1124.0Q9399 1042 9388.5 964.0Q9378 886 9378 804ZM10174 408Q10133 408 10100.5 427.0Q10068 446 10047.5 473.0Q10027 500 10012.0 545.5Q9997 591 9990.0 627.5Q9983 664 9979.0 719.5Q9975 775 9974.5 805.5Q9974 836 9974 884Q9974 930 9977.5 971.5Q9981 1013 9992.5 1059.5Q10004 1106 10022.5 1140.5Q10041 1175 10073.5 1198.5Q10106 1222 10148 1224Q10192 1224 10226.0 1209.5Q10260 1195 10283.0 1172.5Q10306 1150 10322.0 1112.0Q10338 1074 10346.5 1039.0Q10355 1004 10359.5 952.0Q10364 900 10365.0 862.5Q10366 825 10366 768Q10366 726 10363.5 690.0Q10361 654 10355.0 610.0Q10349 566 10335.0 532.5Q10321 499 10301.0 469.5Q10281 440 10248.5 424.0Q10216 408 10174 408ZM12414 180Q12426 184 12432.5 214.5Q12439 245 12440.0 291.0Q12441 337 12440.0 379.0Q12439 421 12437.5 465.0Q12436 509 12436 520Q12434 560 12434 632V738Q12434 808 12436.0 930.0Q12438 1052 12438 1110V1474Q12434 1508 12382 1508H11822Q11804 1504 11776 1424Q11757 1371 11712.5 1250.0Q11668 1129 11636.0 1037.5Q11604 946 11578 860V854V860Q11575 926 11572.0 1056.5Q11569 1187 11566 1252V1456Q11566 1486 11559.0 1497.5Q11552 1509 11522 1516H11110L11066 1472Q11071 1306 11074.0 952.0Q11077 598 11082 428V212Q11092 176 11106 176V180Q11174 180 11319.5 176.0Q11465 172 11538 172H11706Q11707 172 11709 173Q11727 180 11729 189L11730 196Q11766 293 11803.0 397.0Q11840 501 11891.0 648.5Q11942 796 11962 852V704Q11982 352 11982 204Q11982 188 12004.0 184.0Q12026 180 12072 180ZM12630 264Q12630 204 12635 194Q12644 180 12664 180H12688Q12704 180 12710 182H12762Q12863 182 13067.5 177.0Q13272 172 13374 172H13640Q13666 175 13666 198V532Q13665 538 13662.5 542.5Q13660 547 13658.5 548.5Q13657 550 13649.0 555.5Q13641 561 13638 564H13174V688H13218Q13276 688 13395.0 684.0Q13514 680 13578 680Q13606 680 13616.0 691.0Q13626 702 13626 722Q13626 727 13624.0 739.0Q13622 751 13622 756V794Q13622 798 13623.0 810.5Q13624 823 13624 832V860Q13624 882 13626.0 904.0Q13628 926 13628 942V968Q13623 980 13620.0 984.0Q13617 988 13610 988V986Q13573 986 13482.5 991.0Q13392 996 13338 996H13178V1124Q13186 1124 13202.0 1125.0Q13218 1126 13226 1126Q13271 1126 13359.0 1123.0Q13447 1120 13486 1120H13614Q13666 1120 13680 1132Q13685 1138 13688 1144V1464Q13688 1485 13680.0 1496.0Q13672 1507 13650 1508H12660L12630 1482ZM15056 1616Q14938 1611 14844.0 1595.5Q14750 1580 14662.5 1545.5Q14575 1511 14515.5 1458.5Q14456 1406 14416.5 1324.0Q14377 1242 14368 1134Q14368 1115 14388 1112Q14394 1114 14408 1114Q14491 1114 14660.0 1110.0Q14829 1106 14912 1106Q14933 1106 14945.0 1119.5Q14957 1133 14964.5 1152.5Q14972 1172 14982.5 1191.5Q14993 1211 15018.5 1224.5Q15044 1238 15084 1238Q15133 1238 15170.5 1210.5Q15208 1183 15208 1136Q15208 1105 15176.0 1079.0Q15144 1053 15091.5 1036.5Q15039 1020 14991.5 1008.5Q14944 997 14894.0 988.5Q14844 980 14836 978Q14593 912 14486.5 814.0Q14380 716 14380 546Q14380 426 14424.0 330.5Q14468 235 14539.0 174.5Q14610 114 14707.0 73.5Q14804 33 14903.0 16.5Q15002 0 15108 0Q15389 0 15556 104Q15617 165 15645.5 196.5Q15674 228 15700.5 270.0Q15727 312 15737.5 352.5Q15748 393 15752 452L15716 488Q15511 496 15256 496Q15224 496 15204.5 489.0Q15185 482 15178.5 471.0Q15172 460 15165.5 448.0Q15159 436 15153.5 425.0Q15148 414 15130.5 407.0Q15113 400 15084 400Q15076 400 15058.5 403.0Q15041 406 15017.5 412.5Q14994 419 14977.0 432.5Q14960 446 14960 464Q14960 486 14982.5 504.0Q15005 522 15030.0 530.0Q15055 538 15092.0 547.5Q15129 557 15138 560Q15356 615 15398 628Q15617 697 15708 809Q15792 913 15792 1070Q15792 1165 15767.5 1243.0Q15743 1321 15703.0 1375.0Q15663 1429 15603.0 1471.0Q15543 1513 15481.5 1538.0Q15420 1563 15342.0 1580.0Q15264 1597 15198.5 1604.5Q15133 1612 15056 1616ZM17340 1020Q17323 1170 17261.0 1285.5Q17199 1401 17102.0 1473.5Q17005 1546 16881.5 1583.0Q16758 1620 16612 1620Q16476 1620 16364.0 1590.5Q16252 1561 16175.0 1512.0Q16098 1463 16039.0 1392.5Q15980 1322 15945.0 1247.5Q15910 1173 15888.5 1084.5Q15867 996 15859.5 919.5Q15852 843 15852 760V672Q15862 526 15920.0 409.5Q15978 293 16061.0 221.5Q16144 150 16251.0 102.5Q16358 55 16459.0 36.5Q16560 18 16660 18Q16821 18 16944.5 56.5Q17068 95 17146.0 165.0Q17224 235 17268.0 325.5Q17312 416 17324 528V624Q17324 656 17104 656Q17052 656 16959.5 654.0Q16867 652 16838 652Q16833 652 16823.0 653.0Q16813 654 16808 654Q16782 654 16768.5 632.5Q16755 611 16750.5 580.0Q16746 549 16739.5 518.0Q16733 487 16712.5 465.5Q16692 444 16656.0 444.0Q16620 444 16593.0 456.0Q16566 468 16550.0 493.5Q16534 519 16523.5 545.0Q16513 571 16508.5 612.5Q16504 654 16502.5 682.5Q16501 711 16500.0 758.5Q16499 806 16498 828Q16498 840 16496.0 872.0Q16494 904 16494 924Q16494 1173 16626 1180Q16662 1180 16685.0 1154.0Q16708 1128 16716.5 1096.0Q16725 1064 16736.0 1028.5Q16747 993 16760 980H17304Q17337 983 17340 1020Z" fill="currentColor" /></svg>