<svg viewBox="0 0 4740 719" xmlns="http://www.w3.org/2000/svg"><path d="M0 650V49Q47 29 108.0 19.5Q169 10 227 10Q359 10 425.5 57.0Q492 104 492 181Q492 229 467.0 268.0Q442 307 398 322Q450 335 481.0 374.5Q512 414 512 479Q512 532 487.0 570.5Q462 609 405.5 629.5Q349 650 254 650ZM168 268H253Q283 268 301.5 249.0Q320 230 320 203Q320 179 300.5 158.5Q281 138 228 138Q215 138 198.5 139.5Q182 141 168 145ZM168 522H265Q298 522 317.0 505.0Q336 488 336 458Q336 431 319.0 413.5Q302 396 266 396H168ZM602 650V226Q637 186 688.5 159.0Q740 132 807 132Q889 132 951 174L909 289Q894 279 873.5 274.0Q853 269 836 269Q815 269 797.5 274.5Q780 280 772 287V650ZM1388 702 1325 626Q1278 655 1208 655Q1115 655 1063.0 606.5Q1011 558 1011 479Q1011 407 1055.0 367.5Q1099 328 1183 328H1306V312Q1306 283 1280.0 268.5Q1254 254 1206 254Q1169 254 1137.5 262.5Q1106 271 1077 288L1038 172Q1076 151 1123.0 141.5Q1170 132 1217 132Q1333 132 1399.0 181.5Q1465 231 1465 314V542L1512 599ZM1233 531Q1271 531 1289.0 506.5Q1307 482 1307 457V429H1233Q1202 429 1186.5 442.0Q1171 455 1171 478Q1171 503 1188.5 517.0Q1206 531 1233 531ZM1949 702 1886 626Q1839 655 1769 655Q1676 655 1624.0 606.5Q1572 558 1572 479Q1572 407 1616.0 367.5Q1660 328 1744 328H1867V312Q1867 283 1841.0 268.5Q1815 254 1767 254Q1730 254 1698.5 262.5Q1667 271 1638 288L1599 172Q1637 151 1684.0 141.5Q1731 132 1778 132Q1894 132 1960.0 181.5Q2026 231 2026 314V542L2073 599ZM1794 531Q1832 531 1850.0 506.5Q1868 482 1868 457V429H1794Q1763 429 1747.5 442.0Q1732 455 1732 478Q1732 503 1749.5 517.0Q1767 531 1794 531ZM2530 699 2451 618V366Q2451 325 2429.0 303.0Q2407 281 2365 281Q2347 281 2331.0 285.0Q2315 289 2303 296V650H2143V0H2302V167Q2320 159 2354.0 154.0Q2388 149 2416 149Q2502 149 2556.0 202.5Q2610 256 2610 351V548L2651 594ZM3284 654Q3184 654 3111.5 615.5Q3039 577 3000.0 505.0Q2961 433 2961 333Q2961 233 3000.0 160.5Q3039 88 3111.5 49.0Q3184 10 3284 10Q3384 10 3454.5 49.0Q3525 88 3562.0 160.5Q3599 233 3599 333Q3599 483 3516.5 568.5Q3434 654 3284 654ZM3284 510Q3352 510 3387.5 465.5Q3423 421 3423 334Q3423 247 3387.5 200.5Q3352 154 3284 154Q3216 154 3176.5 200.5Q3137 247 3137 334Q3137 421 3176.5 465.5Q3216 510 3284 510ZM4078 719 3997 638V366Q3997 325 3975.0 303.0Q3953 281 3911 281Q3893 281 3877.0 285.0Q3861 289 3849 296V650H3689V219Q3727 181 3792.5 157.5Q3858 134 3935 134Q4046 134 4101.5 184.5Q4157 235 4157 321V563L4202 614ZM4535 656Q4455 656 4393.5 624.0Q4332 592 4297.0 531.0Q4262 470 4262 384Q4262 263 4329.5 197.5Q4397 132 4511 132Q4591 132 4641.5 162.5Q4692 193 4716.0 244.0Q4740 295 4740 357Q4740 379 4737.5 402.5Q4735 426 4730 449H4419Q4424 500 4461.5 518.0Q4499 536 4548 536Q4589 536 4623.0 526.5Q4657 517 4678 501L4721 601Q4696 622 4646.5 639.0Q4597 656 4535 656ZM4419 348H4600Q4600 308 4577.5 280.5Q4555 253 4510 253Q4467 253 4443.0 279.0Q4419 305 4419 348Z" fill="currentColor" /></svg>