<svg viewBox="0 0 4512 1163" xmlns="http://www.w3.org/2000/svg"><path d="M76 903 75 200Q230 205 309.0 242.5Q388 280 388.0 354.5Q388 429 346.0 465.0Q304 501 244 509Q323 516 378.5 564.0Q434 612 434.0 704.5Q434 797 342.5 849.5Q251 902 76 903ZM290 562Q208 535 113 535V865Q194 864 253.0 846.5Q312 829 342 802Q397 751 397.0 699.0Q397 647 368.0 612.0Q339 577 290 562ZM351 354Q351 298 287.0 268.0Q223 238 112 238V492Q351 489 351 354ZM571 400 570 664Q570 748 610.5 810.5Q651 873 711.5 873.0Q772 873 845 790V400H882V900H845V840Q780 910 704 910Q653 910 599 862Q570 836 551.5 785.0Q533 734 533 665L534 400ZM1022 150H1059V460Q1123 389 1195 389Q1250 389 1305 438Q1334 463 1352.5 514.0Q1371 565 1371.0 633.5Q1371 702 1351.0 752.0Q1331 802 1300.0 830.0Q1269 858 1220.5 874.5Q1172 891 1127.0 896.0Q1082 901 1022 901ZM1334 642Q1334 540 1295.0 483.0Q1256 426 1194.0 426.0Q1132 426 1059 510V863Q1334 863 1334 642ZM1478 150H1515V460Q1579 389 1651 389Q1706 389 1761 438Q1790 463 1808.5 514.0Q1827 565 1827.0 633.5Q1827 702 1807.0 752.0Q1787 802 1756.0 830.0Q1725 858 1676.5 874.5Q1628 891 1583.0 896.0Q1538 901 1478 901ZM1790 642Q1790 540 1751.0 483.0Q1712 426 1650.0 426.0Q1588 426 1515 510V863Q1790 863 1790 642ZM1975 900H1938V151H1975ZM2438 864V901Q2378 901 2332.5 896.0Q2287 891 2238.0 874.5Q2189 858 2157.5 830.0Q2126 802 2105.5 752.5Q2085 703 2085.0 634.5Q2085 566 2103.5 515.0Q2122 464 2151 438Q2205 390 2256 390Q2341 390 2388.5 440.0Q2436 490 2436 572Q2436 627 2435 636H2122Q2122 765 2199.0 814.5Q2276 864 2438 864ZM2399 599V577Q2399 511 2361.5 469.0Q2324 427 2262.5 427.0Q2201 427 2165.5 475.5Q2130 524 2123 599ZM2585 900H2548V400H2585V473Q2606 448 2649.5 419.5Q2693 391 2732.5 391.0Q2772 391 2801.5 413.5Q2831 436 2832 487H2795Q2795 459 2777.0 443.0Q2759 427 2728.0 427.0Q2697 427 2652.5 457.0Q2608 487 2585 523ZM3547 556Q3547 721 3491.0 810.5Q3435 900 3329.0 900.0Q3223 900 3161.0 809.5Q3099 719 3099.0 552.5Q3099 386 3160.0 290.5Q3221 195 3330 195Q3395 195 3440.5 228.5Q3486 262 3508 319Q3547 424 3547 556ZM3136 553Q3136 732 3217 816Q3262 862 3320.0 862.0Q3378 862 3415.0 836.0Q3452 810 3472 764Q3510 678 3510.0 539.0Q3510 400 3463.0 317.0Q3416 234 3328.0 234.0Q3240 234 3188.0 316.5Q3136 399 3136 553ZM3978 900 3979 636Q3979 552 3938.5 489.5Q3898 427 3837.5 427.0Q3777 427 3704 510V900H3667V400H3704V460Q3769 390 3845 390Q3896 390 3951 438Q3979 464 3997.5 515.0Q4016 566 4016 635L4015 900ZM4472 864V901Q4412 901 4366.5 896.0Q4321 891 4272.0 874.5Q4223 858 4191.5 830.0Q4160 802 4139.5 752.5Q4119 703 4119.0 634.5Q4119 566 4137.5 515.0Q4156 464 4185 438Q4239 390 4290 390Q4375 390 4422.5 440.0Q4470 490 4470 572Q4470 627 4469 636H4156Q4156 765 4233.0 814.5Q4310 864 4472 864ZM4433 599V577Q4433 511 4395.5 469.0Q4358 427 4296.5 427.0Q4235 427 4199.5 475.5Q4164 524 4157 599Z" fill="currentColor" /></svg>