<svg viewBox="0 0 4345 998.0" xmlns="http://www.w3.org/2000/svg"><path d="M578 127.0Q569 127.0 521 114.0Q456 104.0 437 104.0Q346 104.0 295 124.0Q256 138.0 221.5 165.5Q187 193.0 166.0 219.5Q145 246.0 128.5 288.5Q112 331.0 111 380.0Q111 494.0 190.0 576.5Q269 659.0 423 665.0Q473 665.0 570 646.0Q606 634.0 612 634.0Q620 637.0 625.5 648.5Q631 660.0 631 671.0Q631 695.0 559.5 721.5Q488 748.0 405 750.0Q291 748.0 187 694.0Q71 635.0 25 532.0Q0 474.0 0 407.0Q0 244.0 121.0 135.0Q242 26.0 422 26.0Q469 27.0 537.0 44.0Q605 61.0 605.0 73.5Q605 86.0 594.0 105.5Q583 125.0 578 127.0ZM1010 739.0Q980 739.0 982 706.0Q982 695.0 979 695.0Q971 698.0 947 712.0Q828 785.0 738 721.0Q697 692.0 697 641.0Q697 564.0 768.5 529.0Q840 494.0 946 494.0Q965 494.0 974 495.0Q974 478.0 975 471.0Q975 414.0 943.5 385.5Q912 357.0 856 357.0Q829 357.0 798.0 365.0Q767 373.0 758.0 373.0Q749 373.0 743.5 362.0Q738 351.0 738.0 333.0Q738 315.0 782.5 304.5Q827 294.0 868 294.0Q965 294.0 1015.5 345.0Q1066 396.0 1066 494.0V700.0Q1066 727.0 1056.0 733.0Q1046 739.0 1010 739.0ZM973 634.0Q975 606.0 975.0 574.0Q975 542.0 974 538.0Q836 551.0 806 588.0Q790 607.0 790 632.0Q790 685.0 869 685.0Q909 685.0 940.5 666.5Q972 648.0 973 634.0ZM1298 438.0Q1298 526.0 1377 526.0Q1415 526.0 1435.5 500.0Q1456 474.0 1456.0 429.5Q1456 385.0 1435.5 363.5Q1415 342.0 1379.0 342.0Q1343 342.0 1320.5 367.5Q1298 393.0 1298 438.0ZM1360 775.0H1340Q1322 775.0 1286 767.0Q1255 767.0 1255 844.0Q1255 939.0 1397 944.0Q1462 944.0 1500.0 918.5Q1538 893.0 1538 844.0Q1538 798.0 1491 786.0Q1451 775.0 1360 775.0ZM1530 387.0Q1534 411.0 1534 418.0Q1534 485.0 1487 536.0Q1473 551.0 1437.0 567.0Q1401 583.0 1359 585.0Q1320 585.0 1310.0 589.5Q1300 594.0 1293.5 598.0Q1287 602.0 1284 608.0Q1276 622.0 1276.0 637.5Q1276 653.0 1282.5 662.5Q1289 672.0 1295.5 676.5Q1302 681.0 1318 684.0Q1342 687.0 1414.0 688.5Q1486 690.0 1525 698.0Q1636 723.0 1636 825.0Q1636 877.0 1597.5 918.0Q1559 959.0 1503.5 978.5Q1448 998.0 1399.5 998.0Q1351 998.0 1317.0 992.0Q1283 986.0 1249.5 972.0Q1216 958.0 1196.0 930.5Q1176 903.0 1176.0 866.0Q1176 829.0 1194.0 797.5Q1212 766.0 1235 750.0Q1191 712.0 1191 669.0Q1191 646.0 1200.0 628.0Q1209 610.0 1218.5 602.0Q1228 594.0 1244.5 584.0Q1261 574.0 1267 569.0Q1248 554.0 1237.5 543.0Q1227 532.0 1214.5 504.5Q1202 477.0 1202 443.0Q1202 376.0 1255.5 335.0Q1309 294.0 1390.5 294.0Q1472 294.0 1505 333.0Q1569 289.0 1614 289.0Q1628 289.0 1635.5 308.0Q1643 327.0 1643.0 345.5Q1643 364.0 1638.0 368.5Q1633 373.0 1620 373.0Q1566 373.0 1530 387.0ZM1723 399.0 1721 195.0Q1721 175.0 1721.5 156.5Q1722 138.0 1722 124.0V77.0Q1722 32.0 1728.5 16.0Q1735 0.0 1767.5 0.0Q1800 0.0 1808.0 4.5Q1816 9.0 1816 25.0L1817 394.0L1818 614.0Q1818 644.0 1836.0 662.0Q1854 680.0 1877.0 680.0Q1900 680.0 1923.5 674.5Q1947 669.0 1953 669.0Q1966 669.0 1966 685.0Q1966 719.0 1919 735.0Q1886 745.0 1848.5 745.0Q1811 745.0 1788.0 732.0Q1765 719.0 1752.5 700.0Q1740 681.0 1733 646.0Q1723 597.0 1723 504.0ZM2109 61.0Q2155 61.0 2155 105.0Q2155 136.0 2135.5 151.0Q2116 166.0 2100.5 166.0Q2085 166.0 2075.0 163.0Q2065 160.0 2051.5 142.5Q2038 125.0 2038.5 109.5Q2039 94.0 2058.5 77.5Q2078 61.0 2109 61.0ZM2137 521.0 2140 719.0Q2140 731.0 2137 734.0Q2127 739.0 2095.0 739.0Q2063 739.0 2055.5 734.5Q2048 730.0 2048 707.0L2044 524.0Q2044 428.0 2045 402.0L2048 343.0Q2048 315.0 2057.0 310.0Q2066 305.0 2091.5 305.0Q2117 305.0 2135 308.0Q2137 352.0 2137 377.0ZM2724 512.0Q2724 615.0 2653.5 682.5Q2583 750.0 2484.5 750.0Q2386 750.0 2321.5 688.0Q2257 626.0 2257.0 520.5Q2257 415.0 2325.5 354.5Q2394 294.0 2514 294.0Q2581 294.0 2647 336.0Q2681 359.0 2702.5 404.5Q2724 450.0 2724 512.0ZM2498.0 676.0Q2561 676.0 2599.5 630.5Q2638 585.0 2638.0 518.0Q2638 451.0 2604.5 407.0Q2571 363.0 2506.5 363.0Q2442 363.0 2398.5 403.0Q2355 443.0 2355.0 517.0Q2355 591.0 2395.0 633.5Q2435 676.0 2498.0 676.0ZM2808 689.0 2844 693.0Q2884 693.0 2916.0 675.5Q2948 658.0 2948 625.0Q2948 613.0 2943.5 599.5Q2939 586.0 2911.5 560.5Q2884 535.0 2861.0 502.0Q2838 469.0 2838 428.0Q2838 388.0 2874 344.0Q2891 323.0 2925.0 308.5Q2959 294.0 2991.5 294.0Q3024 294.0 3031.5 301.5Q3039 309.0 3037 323.0L3029 352.0Q3014 348.0 2994.5 348.0Q2975 348.0 2954.0 363.5Q2933 379.0 2933.0 403.0Q2933 427.0 2951.0 451.5Q2969 476.0 2991.0 494.0Q3013 512.0 3031.0 543.0Q3049 574.0 3049 610.0Q3049 679.0 2988.0 714.5Q2927 750.0 2843 750.0Q2821 750.0 2811.0 741.5Q2801 733.0 2801.0 714.5Q2801 696.0 2808 689.0ZM3299 449.0 3297 593.0Q3297 634.0 3311.0 655.5Q3325 677.0 3358.0 677.0Q3391 677.0 3414 671.0Q3457 659.0 3457 683.0Q3457 750.0 3333 750.0Q3263 750.0 3224 687.0Q3205 647.0 3205 592.0L3207 476.0L3209 392.0Q3209 378.0 3205.0 374.5Q3201 371.0 3190 371.0L3151 374.0Q3126 374.0 3126 358.0Q3126 330.0 3132.5 318.5Q3139 307.0 3157 307.0L3196 310.0Q3210 310.0 3210 276.0Q3210 272.0 3210 271.0V214.0Q3210 188.0 3211 184.0Q3223 178.0 3290 178.0Q3308 178.0 3308 197.0L3305 307.0Q3317 308.0 3344 308.0L3424 302.0Q3440 302.0 3440 321.0Q3440 376.0 3386 376.0L3321 372.0Q3305 372.0 3301 374.0Q3299 392.0 3299 449.0ZM3556 632.0 3563 410.0Q3564 402.0 3564.0 382.0Q3564 362.0 3565.5 352.0Q3567 342.0 3570 328.0Q3576 303.0 3599 303.0Q3649 303.0 3649 325.0Q3649 342.0 3650 349.0Q3656 349.0 3708.0 322.0Q3760 295.0 3797 295.0Q3812 295.0 3817.5 302.5Q3823 310.0 3823.0 337.0Q3823 364.0 3816 378.0Q3810 379.0 3794.5 381.0Q3779 383.0 3771.5 384.0Q3764 385.0 3750.0 387.5Q3736 390.0 3728.0 391.5Q3720 393.0 3708.5 395.5Q3697 398.0 3689.5 401.0Q3682 404.0 3674 407.0Q3658 413.0 3652 423.0V488.0L3654 658.0V673.0Q3654 677.0 3654.0 689.5Q3654 702.0 3653.5 710.0Q3653 718.0 3649 726.0Q3641 739.0 3607.5 739.0Q3574 739.0 3568 735.0Q3556 727.0 3556 632.0ZM4345 512.0Q4345 615.0 4274.5 682.5Q4204 750.0 4105.5 750.0Q4007 750.0 3942.5 688.0Q3878 626.0 3878.0 520.5Q3878 415.0 3946.5 354.5Q4015 294.0 4135 294.0Q4202 294.0 4268 336.0Q4302 359.0 4323.5 404.5Q4345 450.0 4345 512.0ZM4119.0 676.0Q4182 676.0 4220.5 630.5Q4259 585.0 4259.0 518.0Q4259 451.0 4225.5 407.0Q4192 363.0 4127.5 363.0Q4063 363.0 4019.5 403.0Q3976 443.0 3976.0 517.0Q3976 591.0 4016.0 633.5Q4056 676.0 4119.0 676.0Z" /></svg>