<svg viewBox="0 0 4151 1874" xmlns="http://www.w3.org/2000/svg"><path d="M312 1313Q234 1313 184.5 1290.0Q135 1267 107.0 1222.0Q79 1177 68.5 1111.0Q58 1045 58 959Q58 871 68.5 804.0Q79 737 107.0 692.0Q135 647 184.5 624.0Q234 601 312 601Q348 601 383.5 604.5Q419 608 450.0 613.5Q481 619 503 624L500 691Q478 687 446.0 683.0Q414 679 381.0 676.0Q348 673 321 673Q264 673 228.5 690.0Q193 707 174.0 742.5Q155 778 148.0 831.5Q141 885 141 959Q141 1031 148.0 1084.5Q155 1138 173.5 1172.5Q192 1207 228.0 1224.0Q264 1241 322 1241Q364 1241 414.5 1235.5Q465 1230 500 1224L503 1292Q479 1297 447.0 1302.0Q415 1307 380.0 1310.0Q345 1313 312 1313ZM725 1313Q656 1313 620.0 1274.0Q584 1235 584 1160Q584 1111 601.0 1080.0Q618 1049 652.5 1032.5Q687 1016 738 1012L892 997V954Q892 903 869.5 882.0Q847 861 803 861Q778 861 743.5 863.0Q709 865 675.0 868.0Q641 871 615 874L611 815Q635 810 669.0 805.0Q703 800 740.0 796.5Q777 793 808 793Q865 793 901.0 810.5Q937 828 953.5 863.5Q970 899 970 954V1207Q972 1229 987.5 1239.0Q1003 1249 1027 1252L1024 1313Q1010 1313 997.0 1312.0Q984 1311 972.5 1308.5Q961 1306 950 1303Q937 1298 925.5 1291.0Q914 1284 903 1274Q884 1282 854.5 1291.0Q825 1300 791.5 1306.5Q758 1313 725 1313ZM738 1248Q765 1248 794.0 1243.0Q823 1238 849.0 1231.0Q875 1224 892 1218V1055L747 1069Q702 1073 682.5 1095.0Q663 1117 663 1158Q663 1200 682.0 1224.0Q701 1248 738 1248ZM1118 1303V803H1195V1303ZM1118 693V603H1195V693ZM1339 1303V803H1416V870Q1435 857 1464.0 841.5Q1493 826 1528.0 812.0Q1563 798 1598 792V871Q1564 878 1529.0 889.5Q1494 901 1464.5 914.0Q1435 927 1416 937V1303ZM1868 1313Q1784 1313 1737.5 1284.0Q1691 1255 1672.5 1196.0Q1654 1137 1654 1047Q1654 961 1674.5 905.0Q1695 849 1742.0 821.0Q1789 793 1868 793Q1948 793 1995.0 821.0Q2042 849 2062.5 905.0Q2083 961 2083 1047Q2083 1137 2064.5 1196.0Q2046 1255 1999.5 1284.0Q1953 1313 1868 1313ZM1868 1246Q1926 1246 1955.0 1225.5Q1984 1205 1993.5 1161.0Q2003 1117 2003 1047Q2003 978 1991.0 937.0Q1979 896 1950.0 878.0Q1921 860 1868 860Q1816 860 1786.5 878.0Q1757 896 1745.0 937.0Q1733 978 1733 1047Q1733 1117 1742.5 1161.0Q1752 1205 1781.0 1225.5Q1810 1246 1868 1246ZM2437 1303V612H2690Q2766 612 2815.0 636.5Q2864 661 2888.0 710.5Q2912 760 2912 836Q2912 911 2888.0 963.5Q2864 1016 2815.0 1043.5Q2766 1071 2690 1071H2517V1303ZM2517 1001H2690Q2764 1001 2797.0 958.0Q2830 915 2830 836Q2830 756 2797.0 719.0Q2764 682 2690 682H2517ZM3023 1303V586H3100V1303ZM3359 1313Q3290 1313 3254.0 1274.0Q3218 1235 3218 1160Q3218 1111 3235.0 1080.0Q3252 1049 3286.5 1032.5Q3321 1016 3372 1012L3526 997V954Q3526 903 3503.5 882.0Q3481 861 3437 861Q3412 861 3377.5 863.0Q3343 865 3309.0 868.0Q3275 871 3249 874L3245 815Q3269 810 3303.0 805.0Q3337 800 3374.0 796.5Q3411 793 3442 793Q3499 793 3535.0 810.5Q3571 828 3587.5 863.5Q3604 899 3604 954V1207Q3606 1229 3621.5 1239.0Q3637 1249 3661 1252L3658 1313Q3644 1313 3631.0 1312.0Q3618 1311 3606.5 1308.5Q3595 1306 3584 1303Q3571 1298 3559.5 1291.0Q3548 1284 3537 1274Q3518 1282 3488.5 1291.0Q3459 1300 3425.5 1306.5Q3392 1313 3359 1313ZM3372 1248Q3399 1248 3428.0 1243.0Q3457 1238 3483.0 1231.0Q3509 1224 3526 1218V1055L3381 1069Q3336 1073 3316.5 1095.0Q3297 1117 3297 1158Q3297 1200 3316.0 1224.0Q3335 1248 3372 1248ZM3843 1524 3908 1303H3833L3692 803H3770L3892 1236H3926L4049 803H4127L3921 1524Z" fill="currentColor" /></svg>