<svg viewBox="0 0 7986 2658" xmlns="http://www.w3.org/2000/svg"><path d="M92 1522Q92 1351 153.5 1214.5Q215 1078 320.0 982.5Q425 887 564.0 836.0Q703 785 859 785Q968 785 1081.0 806.0Q1194 827 1306 882L1244 1202Q1156 1154 1070.0 1130.0Q984 1106 912 1106Q825 1106 756.0 1134.5Q687 1163 639.0 1217.0Q591 1271 565.5 1348.0Q540 1425 540 1522Q540 1619 565.5 1696.0Q591 1773 639.0 1827.0Q687 1881 756.0 1909.5Q825 1938 912 1938Q984 1938 1070.0 1914.0Q1156 1890 1244 1842L1306 2162Q1194 2216 1081.0 2235.5Q968 2255 859 2255Q703 2255 564.0 2204.5Q425 2154 320.0 2059.5Q215 1965 153.5 1829.0Q92 1693 92 1522ZM1843 2255Q1779 2255 1720.5 2237.0Q1662 2219 1617.0 2182.0Q1572 2145 1545.5 2088.5Q1519 2032 1519 1955Q1519 1881 1543.0 1826.5Q1567 1772 1607.5 1733.0Q1648 1694 1702.5 1668.5Q1757 1643 1818.0 1628.5Q1879 1614 1943.5 1608.5Q2008 1603 2069 1603Q2111 1603 2150.0 1605.0Q2189 1607 2223 1610Q2221 1547 2199.0 1505.5Q2177 1464 2141.0 1439.5Q2105 1415 2057.0 1405.0Q2009 1395 1956 1395Q1907 1395 1855.5 1401.5Q1804 1408 1755.0 1417.5Q1706 1427 1661.5 1438.0Q1617 1449 1583 1458V1178Q1632 1167 1688.5 1156.5Q1745 1146 1806.0 1138.0Q1867 1130 1930.5 1125.0Q1994 1120 2056 1120Q2133 1120 2207.5 1129.5Q2282 1139 2348.5 1161.0Q2415 1183 2471.5 1220.0Q2528 1257 2568.5 1311.5Q2609 1366 2632.0 1440.0Q2655 1514 2655 1611V2226H2243V2047Q2219 2096 2176.0 2134.5Q2133 2173 2079.0 2200.0Q2025 2227 1964.0 2241.0Q1903 2255 1843 2255ZM2012 2020Q2040 2020 2076.5 2004.5Q2113 1989 2145.5 1957.0Q2178 1925 2200.5 1876.0Q2223 1827 2223 1759H2190Q2142 1759 2091.5 1769.0Q2041 1779 1999.0 1799.0Q1957 1819 1930.0 1848.0Q1903 1877 1903 1915Q1903 1945 1913.0 1965.0Q1923 1985 1938.5 1997.5Q1954 2010 1973.5 2015.0Q1993 2020 2012 2020ZM2945 1147H3377Q3371 1181 3365.0 1234.5Q3359 1288 3359 1345Q3393 1294 3444.5 1252.5Q3496 1211 3558.0 1181.5Q3620 1152 3689.5 1136.0Q3759 1120 3830 1120Q3908 1120 3978.0 1143.5Q4048 1167 4101.0 1218.0Q4154 1269 4185.0 1350.5Q4216 1432 4216 1548V2226H3784V1611Q3784 1549 3771.0 1508.0Q3758 1467 3735.0 1443.0Q3712 1419 3680.5 1409.0Q3649 1399 3612 1399Q3572 1399 3533.0 1412.5Q3494 1426 3462.0 1449.0Q3430 1472 3407.0 1503.0Q3384 1534 3377 1569V2226H2945ZM4932 2255Q4834 2255 4745.5 2222.0Q4657 2189 4590.5 2119.5Q4524 2050 4484.5 1943.0Q4445 1836 4445 1688Q4445 1532 4485.5 1423.5Q4526 1315 4592.0 1247.5Q4658 1180 4743.0 1150.0Q4828 1120 4918 1120Q4975 1120 5032.0 1133.0Q5089 1146 5139.0 1169.5Q5189 1193 5229.0 1225.0Q5269 1257 5292 1295V690H5724V2226H5292V2048Q5265 2097 5226.0 2135.5Q5187 2174 5139.5 2200.5Q5092 2227 5039.0 2241.0Q4986 2255 4932 2255ZM4877 1689Q4877 1771 4895.0 1826.0Q4913 1881 4942.5 1914.5Q4972 1948 5009.5 1962.5Q5047 1977 5086 1977Q5125 1977 5162.0 1962.5Q5199 1948 5228.0 1914.5Q5257 1881 5274.5 1825.5Q5292 1770 5292 1688Q5292 1607 5274.5 1551.5Q5257 1496 5228.0 1462.0Q5199 1428 5162.5 1413.5Q5126 1399 5087 1399Q5048 1399 5010.5 1413.5Q4973 1428 4943.0 1462.0Q4913 1496 4895.0 1551.5Q4877 1607 4877 1689ZM6296 2255Q6232 2255 6173.5 2237.0Q6115 2219 6070.0 2182.0Q6025 2145 5998.5 2088.5Q5972 2032 5972 1955Q5972 1881 5996.0 1826.5Q6020 1772 6060.5 1733.0Q6101 1694 6155.5 1668.5Q6210 1643 6271.0 1628.5Q6332 1614 6396.5 1608.5Q6461 1603 6522 1603Q6564 1603 6603.0 1605.0Q6642 1607 6676 1610Q6674 1547 6652.0 1505.5Q6630 1464 6594.0 1439.5Q6558 1415 6510.0 1405.0Q6462 1395 6409 1395Q6360 1395 6308.5 1401.5Q6257 1408 6208.0 1417.5Q6159 1427 6114.5 1438.0Q6070 1449 6036 1458V1178Q6085 1167 6141.5 1156.5Q6198 1146 6259.0 1138.0Q6320 1130 6383.5 1125.0Q6447 1120 6509 1120Q6586 1120 6660.5 1129.5Q6735 1139 6801.5 1161.0Q6868 1183 6924.5 1220.0Q6981 1257 7021.5 1311.5Q7062 1366 7085.0 1440.0Q7108 1514 7108 1611V2226H6696V2047Q6672 2096 6629.0 2134.5Q6586 2173 6532.0 2200.0Q6478 2227 6417.0 2241.0Q6356 2255 6296 2255ZM6465 2020Q6493 2020 6529.5 2004.5Q6566 1989 6598.5 1957.0Q6631 1925 6653.5 1876.0Q6676 1827 6676 1759H6643Q6595 1759 6544.5 1769.0Q6494 1779 6452.0 1799.0Q6410 1819 6383.0 1848.0Q6356 1877 6356 1915Q6356 1945 6366.0 1965.0Q6376 1985 6391.5 1997.5Q6407 2010 6426.5 2015.0Q6446 2020 6465 2020ZM7398 690H7830V2226H7398Z" fill="currentColor" /></svg>