<svg viewBox="0 0 5331 1437" xmlns="http://www.w3.org/2000/svg"><path d="M887 1148Q901 1148 913 1160L985 1238Q914 1332 810.0 1384.0Q706 1436 561 1436Q433 1436 329.5 1387.0Q226 1338 152.5 1249.5Q79 1161 39.5 1037.5Q0 914 0 765Q0 616 42.0 492.5Q84 369 160.0 280.0Q236 191 342.0 142.0Q448 93 576 93Q703 93 799.5 138.0Q896 183 968 260L908 344Q902 353 893.0 359.0Q884 365 870 365Q853 365 832.5 347.0Q812 329 779.0 307.5Q746 286 697.0 268.0Q648 250 575 250Q489 250 417.5 285.0Q346 320 294.5 386.5Q243 453 214.5 548.5Q186 644 186 765Q186 887 216.0 983.0Q246 1079 298.0 1145.0Q350 1211 420.5 1246.0Q491 1281 572 1281Q622 1281 661.5 1274.0Q701 1267 734.5 1252.5Q768 1238 797.5 1215.5Q827 1193 856 1162Q872 1148 887 1148ZM1802 1422Q1776 1422 1762.0 1414.0Q1748 1406 1743 1381L1721 1290Q1683 1325 1646.5 1352.5Q1610 1380 1570.0 1399.0Q1530 1418 1484.0 1427.5Q1438 1437 1383 1437Q1326 1437 1276.5 1421.5Q1227 1406 1189.5 1373.5Q1152 1341 1130.5 1292.5Q1109 1244 1109 1178Q1109 1120 1140.5 1066.5Q1172 1013 1243.0 971.0Q1314 929 1428.0 902.5Q1542 876 1708 872V797Q1708 683 1659.5 625.5Q1611 568 1518 568Q1456 568 1413.5 584.0Q1371 600 1340.0 619.0Q1309 638 1286.5 654.0Q1264 670 1241 670Q1223 670 1210.0 661.0Q1197 652 1189 638L1157 582Q1238 504 1331.5 465.5Q1425 427 1539 427Q1621 427 1685.0 453.5Q1749 480 1792.0 529.0Q1835 578 1857.5 646.0Q1880 714 1880 797V1422ZM1436 1314Q1480 1314 1517.0 1305.0Q1554 1296 1587.0 1279.5Q1620 1263 1649.5 1238.5Q1679 1214 1708 1184V982Q1591 987 1509.0 1001.5Q1427 1016 1375.5 1040.0Q1324 1064 1301.0 1096.5Q1278 1129 1278 1169Q1278 1207 1290.5 1234.5Q1303 1262 1324.0 1279.5Q1345 1297 1374.0 1305.5Q1403 1314 1436 1314ZM2137 1422V444H2238Q2266 444 2277.5 455.0Q2289 466 2291 492L2303 636Q2348 539 2414.0 483.0Q2480 427 2573 427Q2604 427 2631.0 433.5Q2658 440 2680 455L2666 585Q2663 610 2638 610Q2624 610 2598.5 604.5Q2573 599 2542 599Q2497 599 2462.5 612.5Q2428 626 2400.5 652.5Q2373 679 2352.0 717.0Q2331 755 2313 804V1422ZM3043 0V1422H2867V0ZM3300 1422ZM3513 444V1422H3337V444ZM3547 138Q3547 163 3537.0 185.5Q3527 208 3509.5 224.5Q3492 241 3469.5 251.0Q3447 261 3422 261Q3397 261 3375.0 251.0Q3353 241 3336.5 224.5Q3320 208 3310.0 185.5Q3300 163 3300 138Q3300 112 3310.0 89.5Q3320 67 3336.5 50.0Q3353 33 3375.0 23.0Q3397 13 3422 13Q3447 13 3469.5 23.0Q3492 33 3509.5 50.0Q3527 67 3537.0 89.5Q3547 112 3547 138ZM4077 1437Q3964 1437 3903.0 1372.0Q3842 1307 3842 1186V590H3730Q3715 590 3704.5 580.0Q3694 570 3694 551V481L3848 461L3889 160Q3891 145 3901.5 136.0Q3912 127 3928 127H4018V462H4287V590H4018V1174Q4018 1234 4045.5 1264.0Q4073 1294 4117 1294Q4143 1294 4161.5 1287.0Q4180 1280 4193.0 1271.0Q4206 1262 4215.5 1255.0Q4225 1248 4233 1248Q4242 1248 4247.5 1252.0Q4253 1256 4258 1265L4310 1349Q4265 1391 4204.0 1414.0Q4143 1437 4077 1437ZM4867 429Q4974 429 5060.0 464.5Q5146 500 5206.0 565.5Q5266 631 5298.5 724.0Q5331 817 5331 932Q5331 1048 5298.5 1141.0Q5266 1234 5206.0 1299.5Q5146 1365 5060.0 1400.5Q4974 1436 4867 1436Q4760 1436 4673.5 1400.5Q4587 1365 4526.5 1299.5Q4466 1234 4433.5 1141.0Q4401 1048 4401 932Q4401 817 4433.5 724.0Q4466 631 4526.5 565.5Q4587 500 4673.5 464.5Q4760 429 4867 429ZM4867 1299Q4938 1299 4991.0 1274.5Q5044 1250 5079.5 1203.0Q5115 1156 5132.5 1088.0Q5150 1020 5150 933Q5150 846 5132.5 778.0Q5115 710 5079.5 663.0Q5044 616 4991.0 591.0Q4938 566 4867 566Q4795 566 4741.5 591.0Q4688 616 4652.5 663.0Q4617 710 4599.5 778.0Q4582 846 4582 933Q4582 1020 4599.5 1088.0Q4617 1156 4652.5 1203.0Q4688 1250 4741.5 1274.5Q4795 1299 4867 1299Z" fill="currentColor" /></svg>