<svg viewBox="0 0 15368 1544" xmlns="http://www.w3.org/2000/svg"><path d="M662 1544Q0 1544 0 812Q0 465 167.0 274.5Q334 84 638 84Q785 84 894.0 130.5Q1003 177 1053 263L905 410Q860 342 790.5 305.0Q721 268 640 268Q447 268 330.5 407.0Q214 546 214 802Q214 1360 696 1360Q841 1360 982 1300L1028 1476Q854 1544 662 1544ZM1932 1534 1918 1220 1890 1132V858Q1890 752 1815.5 702.5Q1741 653 1594 649L1340 642L1360 454L1574 457Q1837 461 1964.5 570.5Q2092 680 2092 890V1332L2272 1354V1524ZM1558 1544Q1392 1544 1301.0 1464.0Q1210 1384 1210 1238Q1210 1070 1335.5 980.0Q1461 890 1690 890Q1785 890 1859.5 901.5Q1934 913 1992 936L1948 1080Q1881 1065 1817.0 1062.5Q1753 1060 1686 1060Q1410 1060 1410 1228Q1410 1298 1457.5 1336.0Q1505 1374 1592 1374Q1691 1374 1757.5 1340.0Q1824 1306 1857.0 1253.0Q1890 1200 1890 1144V1028L1952 1300H1868L1902 1268Q1902 1360 1859.5 1421.5Q1817 1483 1740.0 1513.5Q1663 1544 1558 1544ZM2832 1544Q2712 1544 2626.5 1537.0Q2541 1530 2470 1514L2494 1322Q2599 1338 2679.5 1346.0Q2760 1354 2832 1354Q2993 1354 3065.5 1322.5Q3138 1291 3138 1222Q3138 1174 3112.5 1150.5Q3087 1127 3034 1114L2790 1052Q2633 1012 2559.5 953.0Q2486 894 2486 774Q2486 600 2619.5 522.0Q2753 444 3050 444Q3127 444 3193.5 448.5Q3260 453 3330 464L3308 648Q3227 640 3165.0 637.0Q3103 634 3044 634Q2866 634 2786.0 664.5Q2706 695 2706 764Q2706 810 2739.0 830.5Q2772 851 2840 868L3036 916Q3203 956 3280.5 1023.0Q3358 1090 3358 1218Q3358 1389 3233.0 1466.5Q3108 1544 2832 1544ZM4216 1544Q3945 1544 3797.5 1401.5Q3650 1259 3650 992Q3650 732 3789.5 588.0Q3929 444 4188 444Q4343 444 4453.5 501.5Q4564 559 4611 664L4448 787Q4403 714 4333.0 674.0Q4263 634 4180 634Q4030 634 3947.0 724.5Q3864 815 3864 982Q3864 1163 3961.5 1258.5Q4059 1354 4240 1354Q4314 1354 4388.0 1347.0Q4462 1340 4532 1328L4556 1514Q4474 1532 4386.5 1538.0Q4299 1544 4216 1544ZM5532 1534 5518 1220 5490 1132V858Q5490 752 5415.5 702.5Q5341 653 5194 649L4940 642L4960 454L5174 457Q5437 461 5564.5 570.5Q5692 680 5692 890V1332L5872 1354V1524ZM5158 1544Q4992 1544 4901.0 1464.0Q4810 1384 4810 1238Q4810 1070 4935.5 980.0Q5061 890 5290 890Q5385 890 5459.5 901.5Q5534 913 5592 936L5548 1080Q5481 1065 5417.0 1062.5Q5353 1060 5286 1060Q5010 1060 5010 1228Q5010 1298 5057.5 1336.0Q5105 1374 5192 1374Q5291 1374 5357.5 1340.0Q5424 1306 5457.0 1253.0Q5490 1200 5490 1144V1028L5552 1300H5468L5502 1268Q5502 1360 5459.5 1421.5Q5417 1483 5340.0 1513.5Q5263 1544 5158 1544ZM6433 1544Q6225 1544 6117.5 1407.0Q6010 1270 6010 1004Q6010 728 6117.5 586.0Q6225 444 6433 444Q6552 444 6626.5 500.0Q6701 556 6714 656H6796L6734 958Q6734 794 6669.5 709.0Q6605 624 6480 624Q6352 624 6286.0 720.0Q6220 816 6220 1004Q6220 1182 6286.0 1273.0Q6352 1364 6480 1364Q6605 1364 6669.5 1279.0Q6734 1194 6734 1030L6806 1332H6714Q6704 1432 6629.5 1488.0Q6555 1544 6433 1544ZM6756 1534 6734 1326V24H6946V1524ZM7678 1524V524H7890V1524ZM7274 1524V1338H7698V1524ZM7870 1524V1338H8216V1524ZM7334 650V464H7890V650ZM7777 296Q7716 296 7672.5 252.5Q7629 209 7629 148Q7629 86 7672.5 43.0Q7716 0 7777 0Q7839 0 7882.0 43.0Q7925 86 7925 148Q7925 209 7882.0 252.5Q7839 296 7777 296ZM9132 1534 9118 1220 9090 1132V858Q9090 752 9015.5 702.5Q8941 653 8794 649L8540 642L8560 454L8774 457Q9037 461 9164.5 570.5Q9292 680 9292 890V1332L9472 1354V1524ZM8758 1544Q8592 1544 8501.0 1464.0Q8410 1384 8410 1238Q8410 1070 8535.5 980.0Q8661 890 8890 890Q8985 890 9059.5 901.5Q9134 913 9192 936L9148 1080Q9081 1065 9017.0 1062.5Q8953 1060 8886 1060Q8610 1060 8610 1228Q8610 1298 8657.5 1336.0Q8705 1374 8792 1374Q8891 1374 8957.5 1340.0Q9024 1306 9057.0 1253.0Q9090 1200 9090 1144V1028L9152 1300H9068L9102 1268Q9102 1360 9059.5 1421.5Q9017 1483 8940.0 1513.5Q8863 1544 8758 1544ZM11462 1544Q10800 1544 10800 812Q10800 465 10967.0 274.5Q11134 84 11438 84Q11585 84 11694.0 130.5Q11803 177 11853 263L11705 410Q11660 342 11590.5 305.0Q11521 268 11440 268Q11247 268 11130.5 407.0Q11014 546 11014 802Q11014 1360 11496 1360Q11641 1360 11782 1300L11828 1476Q11654 1544 11462 1544ZM12514 1544Q12294 1544 12172.0 1400.0Q12050 1256 12050 994Q12050 731 12172.0 587.5Q12294 444 12514 444Q12735 444 12856.5 587.5Q12978 731 12978 994Q12978 1256 12856.5 1400.0Q12735 1544 12514 1544ZM12514 1354Q12631 1354 12694.5 1260.0Q12758 1166 12758 994Q12758 821 12694.5 727.5Q12631 634 12514 634Q12397 634 12333.5 727.5Q12270 821 12270 994Q12270 1166 12333.5 1260.0Q12397 1354 12514 1354ZM13633 1544Q13425 1544 13317.5 1407.0Q13210 1270 13210 1004Q13210 728 13317.5 586.0Q13425 444 13633 444Q13752 444 13826.5 500.0Q13901 556 13914 656H13996L13934 958Q13934 794 13869.5 709.0Q13805 624 13680 624Q13552 624 13486.0 720.0Q13420 816 13420 1004Q13420 1182 13486.0 1273.0Q13552 1364 13680 1364Q13805 1364 13869.5 1279.0Q13934 1194 13934 1030L14006 1332H13914Q13904 1432 13829.5 1488.0Q13755 1544 13633 1544ZM13956 1534 13934 1326V24H14146V1524ZM15006 1544Q14735 1544 14587.5 1401.5Q14440 1259 14440 992Q14440 732 14565.0 588.0Q14690 444 14918 444Q15133 444 15250.5 574.0Q15368 704 15368 952Q15368 1025 15362 1088H14618V926H15176Q15176 783 15108.0 706.5Q15040 630 14920 630Q14785 630 14710.5 722.0Q14636 814 14636 982Q14636 1166 14738.5 1262.0Q14841 1358 15030 1358Q15096 1358 15160.0 1350.5Q15224 1343 15290 1330L15316 1516Q15222 1534 15144.0 1539.0Q15066 1544 15006 1544Z" /></svg>