<svg viewBox="0 0 4647 1260" xmlns="http://www.w3.org/2000/svg"><path d="M187 348Q201 342 245.0 343.5Q289 345 308 352L333 360Q364 381 368 381Q409 413 415 465Q421 487 417 505Q417 511 413 531L403 554L391 571Q385 572 384 572Q347 578 327.0 573.5Q307 569 292 552Q289 546 289 541Q290 536 292 532L297 516Q310 484 295 462Q295 459 285.0 451.0Q275 443 269.5 439.0Q264 435 250 438Q226 448 209 499Q189 525 181 567Q169 642 169 652L168 674V683Q166 685 170 770Q171 775 174 784Q177 795 183 820L196 842Q201 845 209 860Q214 860 217 867Q224 874 223 875Q228 876 238 881Q265 895 285 875Q292 868 302.5 855.5Q313 843 318.5 835.5Q324 828 336 821Q369 796 393 823Q398 831 394.5 861.5Q391 892 366 925Q364 931 353.0 944.5Q342 958 330 966Q328 973 254 976Q250 976 238 974Q227 977 208.5 971.0Q190 965 188 965L175 962Q167 962 159.0 957.0Q151 952 132.5 939.5Q114 927 104 919Q74 895 61 864Q57 857 56.0 844.5Q55 832 52 826Q44 818 44.5 800.0Q45 782 42 756Q42 744 43 742Q38 737 39.0 724.5Q40 712 40 690Q43 684 42.5 654.5Q42 625 44 610Q40 601 43 584L44 554Q45 536 53 516Q54 507 57.0 494.5Q60 482 83 444Q83 436 98 424Q98 420 106.0 412.0Q114 404 124 392Q138 375 155.0 367.0Q172 359 187 348ZM681 673Q680 651 671.0 639.5Q662 628 638 626Q631 631 619.5 659.5Q608 688 605 720Q595 768 595 816Q596 865 611 888Q613 892 615 891Q620 891 631 871Q684 775 681 673ZM712 864 697 903Q697 905 668 946Q659 965 634.5 967.0Q610 969 587 962Q556 951 540.0 936.0Q524 921 508.5 885.5Q493 850 492 827Q487 794 487 785V761Q487 725 490 719Q491 715 495 698Q500 656 519 618Q556 545 595 543H600Q602 544 606 544H619Q654 547 662 550Q677 554 688 554L714 559Q726 558 745.5 564.0Q765 570 766.5 573.0Q768 576 772.0 595.0Q776 614 777.5 622.5Q779 631 780 640Q788 713 806 776Q807 779 808.0 785.0Q809 791 815.0 808.5Q821 826 824.0 838.0Q827 850 835 870Q841 885 853 905Q875 936 830 953Q824 955 809 955Q806 955 790 945Q780 945 771 934L763 932Q756 925 751 925Q749 923 715 844Q712 855 712 864ZM1056 852 1069 777Q1069 771 1070.5 767.5Q1072 764 1072 758Q1073 750 1077 732Q1077 724 1081 719Q1083 703 1106 656Q1110 642 1119 632Q1119 626 1125 618L1137 597Q1137 595 1144 582Q1150 579 1152.0 571.5Q1154 564 1164 550Q1167 541 1187 533H1203L1225 540L1240 550Q1245 555 1247 564Q1249 562 1249 564Q1248 573 1237 609Q1227 642 1223.0 655.5Q1219 669 1214 683Q1214 684 1206.0 711.5Q1198 739 1192 749L1173 819Q1162 845 1159 865Q1137 963 1137.0 967.0Q1137 971 1129 992Q1127 1008 1094 1008Q1089 1003 1081 999Q1078 1003 1054 1000Q1011 1005 981 988Q974 976 969 950Q956 928 955 915L945 897Q945 884 940.5 873.0Q936 862 935 851Q932 844 932 835Q930 827 930 818Q926 799 927.0 778.5Q928 758 925 729Q925 712 924 708L925 682Q925 663 926 659Q922 643 922 631L921 612Q921 600 919.0 589.0Q917 578 921 567Q928 559 936 554Q948 544 972 553L997 564L1006 571Q1008 573 1005 581L1010 629Q1010 652 1016.0 687.5Q1022 723 1024.0 746.5Q1026 770 1031.5 811.5Q1037 853 1038 863Q1038 882 1042 884Q1051 869 1056 852ZM1489 593Q1487 588 1475.5 589.0Q1464 590 1458 601Q1417 666 1414 740Q1448 748 1472 710Q1503 612 1489 593ZM1411 990 1401 988 1387 974Q1381 974 1378 969Q1367 956 1338 917L1323 862Q1323 846 1317 834Q1307 789 1305.0 782.5Q1303 776 1302.5 746.0Q1302 716 1305 702Q1308 683 1342 608Q1351 599 1353 584L1369 561Q1391 535 1416 523Q1416 521 1450 513Q1457 512 1482 518Q1542 532 1557 553L1560 558Q1579 585 1582 641Q1579 666 1577.0 683.0Q1575 700 1555 745Q1540 773 1526 790Q1504 806 1496 806Q1492 808 1479 808H1456Q1453 807 1443.0 807.0Q1433 807 1414 802Q1414 824 1426.5 864.5Q1439 905 1447 914Q1468 930 1480.0 935.0Q1492 940 1512.0 936.5Q1532 933 1541 923L1567 891Q1592 857 1618 885Q1630 898 1627.5 910.5Q1625 923 1607 960Q1592 984 1575 1000Q1544 1016 1538 1016Q1529 1017 1510 1013Q1500 1018 1476 1012Q1476 1010 1470.5 1009.5Q1465 1009 1456 1006L1458 1005Q1456 1005 1446 1005L1418 990ZM1879 667 1874 658Q1862 658 1829 707Q1790 760 1774 812Q1763 843 1761 863Q1761 892 1773 901Q1778 901 1784.5 894.0Q1791 887 1792 884Q1799 880 1810 861Q1823 842 1824 841L1833 822L1850 793Q1848 793 1856 770Q1868 749 1869 738ZM1668 909Q1665 866 1669 843Q1692 759 1705 715Q1705 714 1712 690Q1723 655 1732 644Q1732 641 1740 628Q1740 619 1762 597L1773 585Q1791 569 1824 569Q1836 567 1852 570Q1881 583 1918 609L1928 615Q1936 617 1943 620Q1947 620 1960 624L1973 634Q1982 640 1984 651Q1978 657 1978 690Q1974 733 1984 791Q1988 845 2003 905Q2003 910 2010.5 932.0Q2018 954 2017 960Q2017 985 1970 985Q1924 982 1906 945Q1905 941 1899 929Q1887 917 1886 909L1884 895Q1880 892 1879 887Q1867 904 1849 922L1828 955L1820 963Q1819 967 1799.0 972.5Q1779 978 1770 974Q1765 974 1756 972L1712 954Q1697 950 1690 940Q1677 932 1677 931Q1667 914 1668 909ZM2277 416V442L2276 449V470Q2276 479 2275 488L2310 481Q2314 481 2339.0 476.0Q2364 471 2384.5 471.5Q2405 472 2412.5 480.0Q2420 488 2420 503Q2422 515 2413 526L2409 532Q2401 545 2386 549L2351 554L2306 565L2279 575Q2280 600 2282.5 630.0Q2285 660 2285 672L2288 709Q2301 797 2322 889Q2328 898 2335 930L2343 951Q2347 985 2301 985Q2293 985 2261 981Q2252 980 2235 963Q2235 961 2224 950L2205 904Q2203 901 2200 885Q2189 874 2182 835Q2182 833 2180 825V811Q2173 804 2170.0 772.0Q2167 740 2163 712Q2163 673 2157 637L2155 615V606Q2156 596 2155 596H2143Q2128 598 2118 596Q2074 596 2057 571Q2045 544 2056.0 536.0Q2067 528 2110 520Q2129 520 2159 507Q2159 482 2162 479Q2165 456 2168.5 449.5Q2172 443 2173 436Q2174 412 2190 365Q2196 342 2201 334Q2214 315 2255 322Q2272 325 2280 335Q2283 334 2280.5 359.0Q2278 384 2278.0 395.5Q2278 407 2277 416ZM2924 546 2940 512Q2945 498 2944.5 490.0Q2944 482 2944.0 477.0Q2944 472 2943.0 464.5Q2942 457 2936.5 449.5Q2931 442 2925.5 439.5Q2920 437 2905 431L2883 430Q2853 424 2832 435Q2832 457 2821 527L2815 596L2810 632Q2817 632 2846 621L2860 609Q2864 608 2885 587Q2890 585 2896 577L2906 565Q2909 566 2917 555ZM2808 813 2810 837Q2814 846 2810.0 863.0Q2806 880 2809 889Q2809 906 2810 909Q2819 909 2837.5 901.0Q2856 893 2861.0 892.0Q2866 891 2874 884Q2899 871 2926 854L2949 833Q2978 798 2989 782L2995 764Q3008 736 2970 711Q2962 699 2937 695H2936Q2901 685 2895 687L2851 697Q2839 703 2829.5 703.0Q2820 703 2809 694L2810 722Q2803 741 2806 759Q2810 777 2808 813ZM2852 991H2843Q2833 993 2804 988Q2753 980 2722 956Q2713 948 2701.5 934.5Q2690 921 2690.0 916.0Q2690 911 2690.5 903.0Q2691 895 2689 887V879Q2686 873 2690.0 857.5Q2694 842 2692 832Q2690 819 2689 804Q2686 800 2692 782Q2700 647 2700 634L2705 604Q2700 574 2707 552V530Q2706 516 2715 449Q2711 437 2688 418Q2683 413 2678.0 402.5Q2673 392 2682 369Q2688 361 2717 343Q2719 337 2771 320L2790 312Q2804 307 2846 308Q2869 311 2883 317Q2934 342 2977 374Q2990 380 2995 390Q3013 402 3028.5 428.5Q3044 455 3046 462Q3051 494 3036 539Q3029 562 2970 635Q2980 638 3004 652Q3007 656 3025 666Q3027 669 3030.5 673.0Q3034 677 3036 680L3044 685L3054 700L3069 713Q3079 723 3085 735Q3100 749 3101 758L3103 777Q3102 788 3073 849Q3062 871 3045 883L3030 901Q3024 909 3007.5 921.0Q2991 933 2980 944Q2975 946 2964.5 953.0Q2954 960 2933.5 970.0Q2913 980 2906 982Q2886 988 2852 991ZM3156 891Q3175 761 3175 757L3180 729Q3183 726 3183 684V664L3185 643Q3182 622 3182 610Q3178 591 3186 572Q3201 552 3237 560Q3250 564 3260 572Q3274 577 3280 582Q3288 585 3288 619Q3300 607 3341 592Q3347 592 3366.0 587.5Q3385 583 3398.0 583.0Q3411 583 3418 586Q3438 598 3440.0 601.5Q3442 605 3444.5 612.0Q3447 619 3446 619Q3455 628 3451 639Q3442 652 3423 654Q3405 654 3355 684L3325 699Q3286 726 3282 729Q3265 944 3260 967Q3257 976 3246.0 985.0Q3235 994 3219 982L3205 977Q3188 970 3175 953L3163 937L3157 920Q3157 914 3156 908ZM3812 683 3813 702Q3813 705 3819 765V777Q3819 801 3827 849Q3827 870 3848 922Q3853 925 3855 936L3854 946Q3856 951 3849 957Q3849 964 3830.0 964.0Q3811 964 3806.0 966.0Q3801 968 3790 964Q3786 966 3766 956Q3757 954 3752 938L3744 919Q3744 901 3734 887Q3734 882 3729.5 869.0Q3725 856 3723 855Q3713 895 3698 917Q3698 922 3692 929L3682 948Q3682 950 3673 959Q3667 972 3646 972Q3627 972 3600 962Q3593 961 3572 953Q3566 954 3553.5 949.5Q3541 945 3539 945Q3536 942 3525 935L3508 917Q3507 916 3504.5 907.5Q3502 899 3503.0 895.5Q3504 892 3503.0 885.0Q3502 878 3504 871Q3504 851 3508 827Q3507 824 3507.0 820.0Q3507 816 3511 805Q3510 800 3510 798L3515 759Q3515 745 3516 739V724Q3517 720 3517 713L3522 665Q3522 654 3523 651V641Q3525 639 3525 625L3534 597L3541 585Q3542 581 3552 576Q3568 566 3598 566Q3610 568 3624 576Q3627 575 3638 580Q3658 589 3640 631Q3636 658 3636 659Q3632 667 3632 672Q3626 704 3626 706Q3630 702 3623 718L3619 755Q3612 779 3613 808L3609 821Q3610 826 3608 852Q3610 855 3610 859L3611 867Q3610 870 3612.0 872.5Q3614 875 3623.5 874.5Q3633 874 3640 870Q3654 853 3659.0 834.5Q3664 816 3664 813Q3681 770 3685 763Q3690 736 3702 701Q3700 696 3702 681L3715 628Q3724 613 3724.0 609.5Q3724 606 3736 582Q3736 578 3742 566Q3749 555 3767 545H3770Q3792 543 3808 551Q3810 555 3810 565Q3812 575 3814 601V611L3810 633Q3818 658 3812 683ZM3963 572Q3990 539 4037 537Q4114 534 4151.5 575.0Q4189 616 4191.5 656.0Q4194 696 4171 699Q4138 700 4128 690Q4119 691 4105 677Q4099 674 4089 654L4078 629Q4070 611 4058 609Q4043 615 4043 639Q4047 686 4088 729Q4088 729 4089.5 731.5Q4091 734 4104 748Q4183 835 4186 888Q4186 922 4172 933Q4129 984 4060.0 986.0Q3991 988 3946 943Q3934 931 3934 920Q3928 901 3930 895Q3927 867 3930 853Q3936 821 3977 820Q3992 820 3996 838Q4009 889 4020.5 905.0Q4032 921 4058 920Q4091 918 4089.5 883.0Q4088 848 4056 818Q4046 806 4036.5 799.5Q4027 793 4024 790Q4023 787 4019 784Q3999 768 3968.5 731.0Q3938 694 3936 662Q3932 605 3963 572ZM4284 365 4286 352Q4286 349 4288 343Q4292 342 4292.0 336.0Q4292 330 4294 325Q4293 319 4302.0 305.5Q4311 292 4320 285Q4326 285 4328 283H4340Q4368 283 4373 287Q4384 292 4384 323Q4385 326 4385 338L4384 345V353Q4384 358 4384.5 364.0Q4385 370 4384 376V403Q4382 467 4382.0 487.5Q4382 508 4381 510Q4382 515 4382 582Q4385 632 4385 677V700Q4385 723 4384 732L4385 741Q4383 743 4383 753V767L4394 738Q4394 730 4403 715L4407 700Q4407 696 4415.5 679.0Q4424 662 4428 646L4435 634Q4435 624 4439 620L4440 614Q4448 600 4448 596L4449 581Q4449 579 4451 576Q4458 568 4461 556Q4486 523 4529 529Q4581 536 4581 595V625Q4584 640 4580 648L4581 665V684L4584 741V762Q4584 769 4583 774Q4584 777 4584 787Q4582 788 4584.0 795.5Q4586 803 4586.0 806.5Q4586 810 4588 835Q4588 894 4601 945L4602 952V958Q4611 983 4599 991Q4588 998 4579 989Q4576 990 4556 988Q4545 994 4517 972Q4511 968 4506 962Q4505 960 4503 954Q4499 940 4498 932Q4489 916 4489 912L4483 864Q4487 863 4481.0 839.0Q4475 815 4473 774V765Q4473 746 4474 746Q4467 746 4457 796L4450 829V839Q4446 847 4441 851L4410 979Q4412 987 4408.0 990.5Q4404 994 4393 995H4367Q4363 999 4355 999Q4330 999 4327 982Q4316 979 4316 970V964Q4304 940 4303.5 933.0Q4303 926 4303 920Q4301 916 4301 909Q4299 907 4299 898Q4294 885 4296 856L4295 844Q4296 830 4296 823V805L4297 796V785Q4297 781 4295 771Q4298 766 4296 759V734Q4296 715 4295 711V681Q4294 667 4295 662L4291 626Q4293 607 4289 589Q4290 585 4285.5 545.0Q4281 505 4283 498Q4283 491 4281.5 483.0Q4280 475 4283 471Q4283 470 4281 458Q4279 447 4281 434Q4279 429 4281 418Q4284 415 4282 406V389L4286 379Q4284 373 4284 365Z" fill="currentColor" /></svg>