<svg viewBox="0 0 8313.255319148937 952" xmlns="http://www.w3.org/2000/svg"><path d="M4.25531914893617 559Q-5.74468085106383 505 7.75531914893617 445.5Q21.25531914893617 386 51.25531914893617 327.0Q81.25531914893617 268 125.25531914893617 213.5Q169.25531914893617 159 219.75531914893617 115.0Q270.25531914893617 71 325.75531914893617 41.0Q381.25531914893617 11 434.25531914893617 0Q450.25531914893617 0 462.75531914893617 10.0Q475.25531914893617 20 484.25531914893617 35.0Q493.25531914893617 50 497.75531914893617 67.0Q502.25531914893617 84 502.25531914893617 98V195Q502.25531914893617 205 494.25531914893617 207.5Q486.25531914893617 210 480.25531914893617 210Q473.25531914893617 210 463.25531914893617 208.0Q453.25531914893617 206 453.25531914893617 195Q453.25531914893617 191 452.25531914893617 182.0Q451.25531914893617 173 450.25531914893617 162.0Q449.25531914893617 151 448.75531914893617 141.0Q448.25531914893617 131 448.25531914893617 128Q448.25531914893617 126 447.75531914893617 114.5Q447.25531914893617 103 445.25531914893617 91.0Q443.25531914893617 79 439.25531914893617 69.0Q435.25531914893617 59 429.25531914893617 59H394.25531914893617Q394.25531914893617 59 385.25531914893617 63.5Q376.25531914893617 68 364.25531914893617 74.0Q352.25531914893617 80 340.25531914893617 86.5Q328.25531914893617 93 322.25531914893617 98Q319.25531914893617 100 312.75531914893617 105.0Q306.25531914893617 110 299.25531914893617 115.0Q292.25531914893617 120 286.25531914893617 125.0Q280.25531914893617 130 277.25531914893617 132Q223.25531914893617 184 183.25531914893617 228.5Q143.25531914893617 273 116.25531914893617 321.0Q89.25531914893617 369 75.75531914893617 424.5Q62.25531914893617 480 62.25531914893617 556Q62.25531914893617 586 65.75531914893617 622.5Q69.25531914893617 659 76.75531914893617 697.0Q84.25531914893617 735 98.25531914893617 771.5Q112.25531914893617 808 133.25531914893617 836.0Q154.25531914893617 864 184.25531914893617 881.0Q214.25531914893617 898 255.25531914893617 898H277.25531914893617Q322.25531914893617 883 356.75531914893617 870.5Q391.25531914893617 858 418.75531914893617 845.0Q446.25531914893617 832 468.75531914893617 816.5Q491.25531914893617 801 512.7553191489362 779.0Q534.2553191489362 757 557.2553191489362 726.0Q580.2553191489362 695 609.2553191489362 653Q610.2553191489362 653 612.2553191489362 652.5Q614.2553191489362 652 616.2553191489362 652Q634.2553191489362 652 634.2553191489362 670Q634.2553191489362 693 622.7553191489362 721.5Q611.2553191489362 750 580.7553191489362 784.0Q550.2553191489362 818 495.7553191489362 855.5Q441.25531914893617 893 356.25531914893617 931Q340.25531914893617 938 328.25531914893617 942.5Q316.25531914893617 947 305.25531914893617 949.0Q294.25531914893617 951 282.75531914893617 951.5Q271.25531914893617 952 257.25531914893617 952Q205.25531914893617 952 166.75531914893617 934.0Q128.25531914893617 916 100.25531914893617 885.5Q72.25531914893617 855 53.75531914893617 815.5Q35.25531914893617 776 24.255319148936167 731.5Q13.25531914893617 687 8.75531914893617 642.5Q4.25531914893617 598 4.25531914893617 559ZM608.2553191489362 795Q610.2553191489362 789 614.7553191489362 773.5Q619.2553191489362 758 623.7553191489362 740.0Q628.2553191489362 722 631.7553191489362 705.5Q635.2553191489362 689 637.2553191489362 683Q643.2553191489362 659 651.7553191489362 631.0Q660.2553191489362 603 675.2553191489362 579.0Q690.2553191489362 555 713.7553191489362 539.5Q737.2553191489362 524 772.2553191489362 524Q785.2553191489362 524 790.7553191489362 533.5Q796.2553191489362 543 800.2553191489362 554Q800.2553191489362 558 800.7553191489362 568.5Q801.2553191489362 579 801.2553191489362 583Q801.2553191489362 626 792.7553191489362 659.0Q784.2553191489362 692 766.7553191489362 720.0Q749.2553191489362 748 724.2553191489362 772.5Q699.2553191489362 797 667.2553191489362 824Q666.2553191489362 827 664.2553191489362 834.0Q662.2553191489362 841 662.2553191489362 844V846Q662.2553191489362 864 668.2553191489362 875.0Q674.2553191489362 886 684.7553191489362 892.5Q695.2553191489362 899 708.7553191489362 900.5Q722.2553191489362 902 738.2553191489362 902Q785.2553191489362 902 828.2553191489362 889.0Q871.2553191489362 876 907.2553191489362 847Q912.2553191489362 842 919.7553191489362 832.5Q927.2553191489362 823 935.2553191489362 813.0Q943.2553191489362 803 952.2553191489362 795.5Q961.2553191489362 788 971.2553191489362 788Q981.2553191489362 788 983.2553191489362 796.0Q985.2553191489362 804 985.2553191489362 812Q985.2553191489362 834 971.7553191489362 853.5Q958.2553191489362 873 936.7553191489362 888.5Q915.2553191489362 904 887.7553191489362 916.0Q860.2553191489362 928 833.2553191489362 936.0Q806.2553191489362 944 781.7553191489362 948.0Q757.2553191489362 952 740.2553191489362 952Q687.2553191489362 952 651.7553191489362 934.5Q616.2553191489362 917 603.2553191489362 864ZM751.2553191489362 598Q731.2553191489362 616 719.7553191489362 630.5Q708.2553191489362 645 701.7553191489362 660.5Q695.2553191489362 676 690.7553191489362 694.0Q686.2553191489362 712 681.2553191489362 736Q700.2553191489362 721 712.7553191489362 706.0Q725.2553191489362 691 733.2553191489362 675.0Q741.2553191489362 659 745.2553191489362 640.5Q749.2553191489362 622 751.2553191489362 598ZM1220.2553191489362 800Q1215.2553191489362 805 1201.2553191489362 817.0Q1187.2553191489362 829 1171.7553191489362 842.5Q1156.2553191489362 856 1142.2553191489362 867.5Q1128.2553191489362 879 1122.2553191489362 883Q1120.2553191489362 884 1110.7553191489362 889.5Q1101.2553191489362 895 1089.2553191489362 902.5Q1077.2553191489362 910 1064.7553191489362 916.5Q1052.2553191489362 923 1045.2553191489362 927Q1033.2553191489362 933 1028.2553191489362 935.5Q1023.2553191489362 938 1013.2553191489362 938Q997.2553191489362 938 979.7553191489362 927.5Q962.2553191489362 917 962.2553191489362 898V790L976.2553191489362 717Q987.2553191489362 675 1001.2553191489362 648.5Q1015.2553191489362 622 1036.2553191489362 604.5Q1057.2553191489362 587 1086.7553191489362 578.0Q1116.2553191489362 569 1156.2553191489362 561Q1158.2553191489362 560 1169.2553191489362 556.0Q1180.2553191489362 552 1182.2553191489362 551H1196.2553191489362Q1212.2553191489362 551 1224.7553191489362 558.0Q1237.2553191489362 565 1249.2553191489362 576L1299.2553191489362 362Q1297.2553191489362 351 1299.2553191489362 331.5Q1301.2553191489362 312 1306.7553191489362 292.0Q1312.2553191489362 272 1321.2553191489362 258.0Q1330.2553191489362 244 1342.2553191489362 244Q1357.2553191489362 244 1365.7553191489362 255.0Q1374.2553191489362 266 1371.2553191489362 283L1317.2553191489362 610Q1299.2553191489362 653 1290.7553191489362 696.0Q1282.2553191489362 739 1282.2553191489362 785Q1282.2553191489362 806 1285.2553191489362 827.0Q1288.2553191489362 848 1296.7553191489362 865.0Q1305.2553191489362 882 1320.2553191489362 892.5Q1335.2553191489362 903 1359.2553191489362 903Q1412.2553191489362 903 1464.2553191489362 883.5Q1516.2553191489362 864 1556.2553191489362 830Q1558.2553191489362 830 1559.2553191489362 829.5Q1560.2553191489362 829 1562.2553191489362 829Q1570.2553191489362 829 1576.2553191489362 834Q1576.2553191489362 836 1576.7553191489362 840.0Q1577.2553191489362 844 1577.2553191489362 846Q1577.2553191489362 862 1564.2553191489362 876.0Q1551.2553191489362 890 1530.7553191489362 902.0Q1510.2553191489362 914 1485.7553191489362 923.0Q1461.2553191489362 932 1436.7553191489362 939.0Q1412.2553191489362 946 1391.2553191489362 949.0Q1370.2553191489362 952 1358.2553191489362 952Q1323.2553191489362 952 1299.7553191489362 940.5Q1276.2553191489362 929 1260.7553191489362 908.0Q1245.2553191489362 887 1237.2553191489362 859.5Q1229.2553191489362 832 1225.2553191489362 800ZM1025.2553191489362 761Q1025.2553191489362 767 1023.7553191489362 781.0Q1022.2553191489362 795 1020.7553191489362 811.5Q1019.2553191489362 828 1017.7553191489362 842.5Q1016.2553191489362 857 1015.2553191489362 864Q1015.2553191489362 866 1014.7553191489362 874.0Q1014.2553191489362 882 1014.2553191489362 884Q1028.2553191489362 884 1050.2553191489362 872.5Q1072.2553191489362 861 1096.2553191489362 842.5Q1120.2553191489362 824 1145.2553191489362 800.5Q1170.2553191489362 777 1189.7553191489362 754.0Q1209.2553191489362 731 1222.2553191489362 708.5Q1235.2553191489362 686 1235.2553191489362 670Q1235.2553191489362 665 1227.7553191489362 656.0Q1220.2553191489362 647 1210.7553191489362 639.0Q1201.2553191489362 631 1191.7553191489362 625.0Q1182.2553191489362 619 1175.2553191489362 619Q1154.2553191489362 612 1126.7553191489362 622.5Q1099.2553191489362 633 1075.2553191489362 654.5Q1051.2553191489362 676 1036.2553191489362 704.0Q1021.2553191489362 732 1025.2553191489362 761ZM1553.2553191489362 921Q1553.2553191489362 918 1553.2553191489362 906.0Q1553.2553191489362 894 1553.2553191489362 890Q1536.2553191489362 830 1548.7553191489362 772.0Q1561.2553191489362 714 1593.7553191489362 667.5Q1626.2553191489362 621 1676.7553191489362 589.5Q1727.2553191489362 558 1787.2553191489362 551H1805.2553191489362Q1827.2553191489362 551 1841.7553191489362 560.5Q1856.2553191489362 570 1864.7553191489362 585.0Q1873.2553191489362 600 1876.7553191489362 619.0Q1880.2553191489362 638 1880.2553191489362 657Q1880.2553191489362 683 1874.7553191489362 707.5Q1869.2553191489362 732 1862.7553191489362 757.0Q1856.2553191489362 782 1850.7553191489362 806.5Q1845.2553191489362 831 1845.2553191489362 858V864Q1846.2553191489362 866 1847.7553191489362 875.5Q1849.2553191489362 885 1850.2553191489362 887Q1852.2553191489362 887 1860.2553191489362 887.5Q1868.2553191489362 888 1870.2553191489362 888Q1880.2553191489362 888 1889.7553191489362 887.5Q1899.2553191489362 887 1909.2553191489362 883L2099.255319148936 795Q2100.255319148936 795 2102.755319148936 794.5Q2105.255319148936 794 2106.255319148936 794Q2116.255319148936 794 2122.755319148936 800.0Q2129.255319148936 806 2129.255319148936 816Q2129.255319148936 821 2128.755319148936 825.5Q2128.255319148936 830 2123.255319148936 834Q2116.255319148936 839 2097.755319148936 848.0Q2079.255319148936 857 2058.255319148936 868.0Q2037.2553191489362 879 2018.7553191489362 889.0Q2000.2553191489362 899 1992.2553191489362 902Q1978.2553191489362 910 1961.2553191489362 916.5Q1944.2553191489362 923 1926.2553191489362 929.0Q1908.2553191489362 935 1890.7553191489362 938.5Q1873.2553191489362 942 1859.2553191489362 942Q1837.2553191489362 942 1823.2553191489362 934.5Q1809.2553191489362 927 1802.2553191489362 914.5Q1795.2553191489362 902 1792.7553191489362 884.5Q1790.2553191489362 867 1792.2553191489362 848Q1772.2553191489362 864 1749.2553191489362 882.0Q1726.2553191489362 900 1701.2553191489362 915.0Q1676.2553191489362 930 1650.2553191489362 941.0Q1624.2553191489362 952 1597.2553191489362 952Q1582.2553191489362 952 1570.2553191489362 944.5Q1558.2553191489362 937 1553.2553191489362 921ZM1607.2553191489362 900Q1630.2553191489362 900 1658.2553191489362 886.5Q1686.2553191489362 873 1713.2553191489362 853.0Q1740.2553191489362 833 1762.2553191489362 810.5Q1784.2553191489362 788 1796.2553191489362 770Q1797.2553191489362 740 1804.7553191489362 712.5Q1812.2553191489362 685 1812.2553191489362 656Q1812.2553191489362 654 1811.7553191489362 650.0Q1811.2553191489362 646 1811.2553191489362 644Q1798.2553191489362 633 1789.2553191489362 631.0Q1780.2553191489362 629 1765.2553191489362 629Q1763.2553191489362 629 1756.7553191489362 629.0Q1750.2553191489362 629 1748.2553191489362 630Q1742.2553191489362 635 1728.2553191489362 648.5Q1714.2553191489362 662 1698.7553191489362 678.0Q1683.2553191489362 694 1669.7553191489362 708.0Q1656.2553191489362 722 1651.2553191489362 727Q1650.2553191489362 727 1647.2553191489362 730.5Q1644.2553191489362 734 1640.7553191489362 739.0Q1637.2553191489362 744 1634.7553191489362 748.5Q1632.2553191489362 753 1631.2553191489362 756L1607.2553191489362 873ZM2054.255319148936 832Q2082.255319148936 811 2095.755319148936 791.0Q2109.255319148936 771 2117.255319148936 751.0Q2125.255319148936 731 2130.255319148936 708.5Q2135.255319148936 686 2146.255319148936 659Q2142.255319148936 652 2141.755319148936 646.5Q2141.255319148936 641 2141.255319148936 633Q2141.255319148936 625 2143.755319148936 614.0Q2146.255319148936 603 2151.255319148936 593.5Q2156.255319148936 584 2163.255319148936 577.0Q2170.255319148936 570 2180.255319148936 570Q2179.255319148936 574 2191.755319148936 579.0Q2204.255319148936 584 2222.755319148936 590.0Q2241.255319148936 596 2262.255319148936 603.0Q2283.255319148936 610 2299.255319148936 618Q2317.255319148936 628 2324.755319148936 639.5Q2332.255319148936 651 2332.255319148936 672Q2332.255319148936 691 2327.755319148936 715.0Q2323.255319148936 739 2318.755319148936 763.5Q2314.255319148936 788 2309.755319148936 812.5Q2305.255319148936 837 2305.255319148936 857V883Q2304.255319148936 892 2309.755319148936 892.5Q2315.255319148936 893 2320.255319148936 893Q2332.255319148936 893 2342.255319148936 889.0Q2352.255319148936 885 2362.755319148936 880.0Q2373.255319148936 875 2383.255319148936 870.5Q2393.255319148936 866 2404.255319148936 864L2492.255319148936 810Q2496.255319148936 803 2502.755319148936 798.5Q2509.255319148936 794 2515.255319148936 790Q2525.255319148936 784 2539.255319148936 773Q2546.255319148936 767 2554.255319148936 761H2584.255319148936Q2587.255319148936 761 2588.255319148936 767.0Q2589.255319148936 773 2589.255319148936 776Q2589.255319148936 788 2572.255319148936 806.0Q2555.255319148936 824 2528.255319148936 843.0Q2501.255319148936 862 2468.255319148936 880.5Q2435.255319148936 899 2403.755319148936 914.0Q2372.255319148936 929 2345.755319148936 938.0Q2319.255319148936 947 2305.255319148936 947Q2287.255319148936 947 2276.255319148936 938.0Q2265.255319148936 929 2258.255319148936 916.0Q2251.255319148936 903 2248.755319148936 887.5Q2246.255319148936 872 2246.255319148936 857Q2246.255319148936 846 2253.255319148936 826.0Q2260.255319148936 806 2269.255319148936 785.0Q2278.255319148936 764 2285.255319148936 744.0Q2292.255319148936 724 2292.255319148936 712Q2292.255319148936 711 2277.755319148936 704.0Q2263.255319148936 697 2246.255319148936 688.5Q2229.255319148936 680 2214.755319148936 673.5Q2200.255319148936 667 2200.255319148936 666Q2178.255319148936 689 2169.755319148936 715.0Q2161.255319148936 741 2152.755319148936 769.0Q2144.255319148936 797 2127.755319148936 825.0Q2111.255319148936 853 2072.255319148936 880Q2071.255319148936 880 2067.755319148936 879.0Q2064.255319148936 878 2060.755319148936 873.5Q2057.255319148936 869 2055.255319148936 859.5Q2053.255319148936 850 2054.255319148936 832ZM2551.255319148936 844 2581.255319148936 706Q2585.255319148936 673 2592.755319148936 640.5Q2600.255319148936 608 2610.755319148936 583.0Q2621.255319148936 558 2633.255319148936 542.0Q2645.255319148936 526 2658.255319148936 526Q2673.255319148936 526 2680.255319148936 538.5Q2687.255319148936 551 2687.255319148936 564V576L2619.255319148936 795Q2613.255319148936 816 2610.755319148936 832.0Q2608.255319148936 848 2608.255319148936 868Q2608.255319148936 871 2607.755319148936 876.0Q2607.255319148936 881 2608.255319148936 886.0Q2609.255319148936 891 2611.755319148936 894.5Q2614.255319148936 898 2618.255319148936 898Q2628.255319148936 898 2640.755319148936 893.0Q2653.255319148936 888 2666.255319148936 881.5Q2679.255319148936 875 2690.255319148936 868.5Q2701.255319148936 862 2707.255319148936 858Q2730.255319148936 844 2749.255319148936 829.0Q2768.255319148936 814 2785.255319148936 798.0Q2802.255319148936 782 2817.255319148936 763.5Q2832.255319148936 745 2848.255319148936 722Q2853.255319148936 713 2860.255319148936 695.5Q2867.255319148936 678 2875.255319148936 655.5Q2883.255319148936 633 2891.255319148936 610.0Q2899.255319148936 587 2907.255319148936 567.0Q2915.255319148936 547 2923.255319148936 534.5Q2931.255319148936 522 2939.255319148936 522Q2949.255319148936 522 2953.755319148936 525.5Q2958.255319148936 529 2960.755319148936 535.0Q2963.255319148936 541 2964.755319148936 548.0Q2966.255319148936 555 2969.255319148936 561Q2970.255319148936 562 2974.255319148936 563.5Q2978.255319148936 565 2980.255319148936 566Q2990.255319148936 569 2990.755319148936 571.0Q2991.255319148936 573 2990.255319148936 575.5Q2989.255319148936 578 2990.255319148936 578.5Q2991.255319148936 579 3001.255319148936 579H3004.255319148936Q3016.255319148936 578 3034.755319148936 575.5Q3053.255319148936 573 3070.255319148936 571.0Q3087.255319148936 569 3099.755319148936 567.0Q3112.255319148936 565 3112.255319148936 565L3132.255319148936 608Q3103.255319148936 616 3083.255319148936 620.5Q3063.255319148936 625 3044.755319148936 627.0Q3026.255319148936 629 3005.755319148936 628.0Q2985.255319148936 627 2956.255319148936 625L2950.255319148936 630Q2931.255319148936 677 2911.755319148936 716.5Q2892.255319148936 756 2866.255319148936 789.5Q2840.255319148936 823 2807.755319148936 852.5Q2775.255319148936 882 2731.255319148936 907Q2703.255319148936 923 2674.255319148936 937.5Q2645.255319148936 952 2614.255319148936 952Q2595.255319148936 952 2582.755319148936 945.0Q2570.255319148936 938 2563.255319148936 926.5Q2556.255319148936 915 2553.755319148936 899.5Q2551.255319148936 884 2551.255319148936 868ZM3093.255319148936 741Q3094.255319148936 736 3099.255319148936 723.0Q3104.255319148936 710 3109.755319148936 695.0Q3115.255319148936 680 3120.255319148936 667.0Q3125.255319148936 654 3127.255319148936 649Q3133.255319148936 633 3138.755319148936 628.0Q3144.255319148936 623 3159.255319148936 623Q3175.255319148936 623 3180.255319148936 634.0Q3185.255319148936 645 3185.255319148936 660Q3185.255319148936 686 3177.755319148936 707.5Q3170.255319148936 729 3161.255319148936 750.5Q3152.255319148936 772 3144.755319148936 796.5Q3137.255319148936 821 3137.255319148936 853Q3137.255319148936 857 3137.255319148936 864.5Q3137.255319148936 872 3138.255319148936 879.5Q3139.255319148936 887 3142.255319148936 892.5Q3145.255319148936 898 3150.255319148936 898Q3176.255319148936 898 3202.755319148936 887.5Q3229.255319148936 877 3254.755319148936 862.5Q3280.255319148936 848 3303.755319148936 830.5Q3327.255319148936 813 3346.255319148936 800Q3353.255319148936 795 3356.755319148936 790.0Q3360.255319148936 785 3363.255319148936 780.5Q3366.255319148936 776 3370.755319148936 772.5Q3375.255319148936 769 3385.255319148936 769Q3398.255319148936 769 3406.755319148936 774.5Q3415.255319148936 780 3415.255319148936 794Q3415.255319148936 800 3414.755319148936 805.0Q3414.255319148936 810 3409.255319148936 814Q3408.255319148936 817 3401.755319148936 822.0Q3395.255319148936 827 3388.255319148936 832.5Q3381.255319148936 838 3375.255319148936 842.5Q3369.255319148936 847 3366.255319148936 848Q3365.255319148936 848 3360.755319148936 850.5Q3356.255319148936 853 3355.255319148936 853Q3354.255319148936 854 3352.755319148936 855.5Q3351.255319148936 857 3351.255319148936 858Q3330.255319148936 874 3305.755319148936 890.5Q3281.255319148936 907 3254.255319148936 920.5Q3227.255319148936 934 3198.755319148936 943.0Q3170.255319148936 952 3142.255319148936 952Q3118.255319148936 952 3105.755319148936 939.5Q3093.255319148936 927 3087.255319148936 908.0Q3081.255319148936 889 3080.255319148936 868.0Q3079.255319148936 847 3079.255319148936 830ZM3141.255319148936 478Q3141.255319148936 460 3148.255319148936 454.0Q3155.255319148936 448 3173.255319148936 448Q3182.255319148936 448 3191.255319148936 451.5Q3200.255319148936 455 3200.255319148936 468Q3200.255319148936 481 3187.755319148936 492.0Q3175.255319148936 503 3163.255319148936 503Q3151.255319148936 503 3146.255319148936 495.5Q3141.255319148936 488 3141.255319148936 478ZM3450.255319148936 770Q3450.255319148936 770 3451.755319148936 768.5Q3453.255319148936 767 3454.255319148936 766Q3456.255319148936 757 3462.255319148936 735.0Q3468.255319148936 713 3475.255319148936 687.5Q3482.255319148936 662 3488.755319148936 640.0Q3495.255319148936 618 3498.255319148936 610Q3499.255319148936 606 3504.755319148936 592.5Q3510.255319148936 579 3517.255319148936 563.0Q3524.255319148936 547 3531.255319148936 531.0Q3538.255319148936 515 3541.255319148936 507Q3548.255319148936 493 3562.755319148936 470.0Q3577.255319148936 447 3595.755319148936 426.5Q3614.255319148936 406 3634.255319148936 390.5Q3654.255319148936 375 3671.255319148936 375Q3680.255319148936 375 3685.755319148936 380.0Q3691.255319148936 385 3693.755319148936 391.5Q3696.255319148936 398 3697.255319148936 406.0Q3698.255319148936 414 3698.255319148936 420Q3698.255319148936 472 3683.755319148936 523.5Q3669.255319148936 575 3644.255319148936 622.0Q3619.255319148936 669 3584.755319148936 710.5Q3550.255319148936 752 3512.255319148936 785Q3511.255319148936 788 3509.755319148936 797.0Q3508.255319148936 806 3507.255319148936 810V812Q3507.255319148936 832 3517.755319148936 844.0Q3528.255319148936 856 3543.255319148936 861.5Q3558.255319148936 867 3576.755319148936 869.0Q3595.255319148936 871 3612.255319148936 871Q3621.255319148936 871 3638.755319148936 862.0Q3656.255319148936 853 3674.755319148936 841.5Q3693.255319148936 830 3711.255319148936 821.0Q3729.255319148936 812 3738.255319148936 812Q3747.255319148936 812 3752.255319148936 818.0Q3757.255319148936 824 3757.255319148936 833Q3757.255319148936 848 3734.255319148936 865.0Q3711.255319148936 882 3681.255319148936 896.5Q3651.255319148936 911 3623.755319148936 921.0Q3596.255319148936 931 3587.255319148936 931Q3557.255319148936 937 3531.255319148936 931.5Q3505.255319148936 926 3486.255319148936 912.5Q3467.255319148936 899 3454.755319148936 879.5Q3442.255319148936 860 3439.255319148936 839ZM3639.255319148936 472Q3630.255319148936 472 3618.755319148936 486.5Q3607.255319148936 501 3596.255319148936 520.0Q3585.255319148936 539 3576.755319148936 556.5Q3568.255319148936 574 3567.255319148936 580Q3564.255319148936 587 3558.255319148936 603.0Q3552.255319148936 619 3546.255319148936 636.5Q3540.255319148936 654 3534.755319148936 670.0Q3529.255319148936 686 3527.255319148936 693H3532.255319148936Q3532.255319148936 693 3538.255319148936 685.5Q3544.255319148936 678 3551.755319148936 668.0Q3559.255319148936 658 3567.755319148936 647.5Q3576.255319148936 637 3580.255319148936 630Q3584.255319148936 624 3591.255319148936 611.5Q3598.255319148936 599 3600.255319148936 596Q3604.255319148936 585 3611.255319148936 566.5Q3618.255319148936 548 3624.255319148936 530.0Q3630.255319148936 512 3634.755319148936 498.5Q3639.255319148936 485 3639.255319148936 483ZM3744.255319148936 770Q3744.255319148936 770 3745.755319148936 768.5Q3747.255319148936 767 3748.255319148936 766Q3750.255319148936 757 3756.255319148936 735.0Q3762.255319148936 713 3769.255319148936 687.5Q3776.255319148936 662 3782.755319148936 640.0Q3789.255319148936 618 3792.255319148936 610Q3793.255319148936 606 3798.755319148936 592.5Q3804.255319148936 579 3811.255319148936 563.0Q3818.255319148936 547 3825.255319148936 531.0Q3832.255319148936 515 3835.255319148936 507Q3842.255319148936 493 3856.755319148936 470.0Q3871.255319148936 447 3889.755319148936 426.5Q3908.255319148936 406 3928.255319148936 390.5Q3948.255319148936 375 3965.255319148936 375Q3974.255319148936 375 3979.755319148936 380.0Q3985.255319148936 385 3987.755319148936 391.5Q3990.255319148936 398 3991.255319148936 406.0Q3992.255319148936 414 3992.255319148936 420Q3992.255319148936 472 3977.755319148936 523.5Q3963.255319148936 575 3938.255319148936 622.0Q3913.255319148936 669 3878.755319148936 710.5Q3844.255319148936 752 3806.255319148936 785Q3805.255319148936 788 3803.755319148936 797.0Q3802.255319148936 806 3801.255319148936 810V812Q3801.255319148936 832 3811.755319148936 844.0Q3822.255319148936 856 3837.255319148936 861.5Q3852.255319148936 867 3870.755319148936 869.0Q3889.255319148936 871 3906.255319148936 871Q3915.255319148936 871 3932.755319148936 862.0Q3950.255319148936 853 3968.755319148936 841.5Q3987.255319148936 830 4005.255319148936 821.0Q4023.255319148936 812 4032.255319148936 812Q4041.255319148936 812 4046.255319148936 818.0Q4051.255319148936 824 4051.255319148936 833Q4051.255319148936 848 4028.255319148936 865.0Q4005.255319148936 882 3975.255319148936 896.5Q3945.255319148936 911 3917.755319148936 921.0Q3890.255319148936 931 3881.255319148936 931Q3851.255319148936 937 3825.255319148936 931.5Q3799.255319148936 926 3780.255319148936 912.5Q3761.255319148936 899 3748.755319148936 879.5Q3736.255319148936 860 3733.255319148936 839ZM3933.255319148936 472Q3924.255319148936 472 3912.755319148936 486.5Q3901.255319148936 501 3890.255319148936 520.0Q3879.255319148936 539 3870.755319148936 556.5Q3862.255319148936 574 3861.255319148936 580Q3858.255319148936 587 3852.255319148936 603.0Q3846.255319148936 619 3840.255319148936 636.5Q3834.255319148936 654 3828.755319148936 670.0Q3823.255319148936 686 3821.255319148936 693H3826.255319148936Q3826.255319148936 693 3832.255319148936 685.5Q3838.255319148936 678 3845.755319148936 668.0Q3853.255319148936 658 3861.755319148936 647.5Q3870.255319148936 637 3874.255319148936 630Q3878.255319148936 624 3885.255319148936 611.5Q3892.255319148936 599 3894.255319148936 596Q3898.255319148936 585 3905.255319148936 566.5Q3912.255319148936 548 3918.255319148936 530.0Q3924.255319148936 512 3928.755319148936 498.5Q3933.255319148936 485 3933.255319148936 483ZM4032.255319148936 795Q4034.255319148936 789 4038.755319148936 773.5Q4043.255319148936 758 4047.755319148936 740.0Q4052.255319148936 722 4055.755319148936 705.5Q4059.255319148936 689 4061.255319148936 683Q4067.255319148936 659 4075.755319148936 631.0Q4084.255319148936 603 4099.255319148936 579.0Q4114.255319148936 555 4137.755319148936 539.5Q4161.255319148936 524 4196.255319148936 524Q4209.255319148936 524 4214.755319148936 533.5Q4220.255319148936 543 4224.255319148936 554Q4224.255319148936 558 4224.755319148936 568.5Q4225.255319148936 579 4225.255319148936 583Q4225.255319148936 626 4216.755319148936 659.0Q4208.255319148936 692 4190.755319148936 720.0Q4173.255319148936 748 4148.255319148936 772.5Q4123.255319148936 797 4091.255319148936 824Q4090.255319148936 827 4088.255319148936 834.0Q4086.255319148936 841 4086.255319148936 844V846Q4086.255319148936 864 4092.255319148936 875.0Q4098.255319148936 886 4108.755319148936 892.5Q4119.255319148936 899 4132.755319148936 900.5Q4146.255319148936 902 4162.255319148936 902Q4209.255319148936 902 4252.255319148936 889.0Q4295.255319148936 876 4331.255319148936 847Q4336.255319148936 842 4343.755319148936 832.5Q4351.255319148936 823 4359.255319148936 813.0Q4367.255319148936 803 4376.255319148936 795.5Q4385.255319148936 788 4395.255319148936 788Q4405.255319148936 788 4407.255319148936 796.0Q4409.255319148936 804 4409.255319148936 812Q4409.255319148936 834 4395.755319148936 853.5Q4382.255319148936 873 4360.755319148936 888.5Q4339.255319148936 904 4311.755319148936 916.0Q4284.255319148936 928 4257.255319148936 936.0Q4230.255319148936 944 4205.755319148936 948.0Q4181.255319148936 952 4164.255319148936 952Q4111.255319148936 952 4075.755319148936 934.5Q4040.255319148936 917 4027.255319148936 864ZM4175.255319148936 598Q4155.255319148936 616 4143.755319148936 630.5Q4132.255319148936 645 4125.755319148936 660.5Q4119.255319148936 676 4114.755319148936 694.0Q4110.255319148936 712 4105.255319148936 736Q4124.255319148936 721 4136.755319148936 706.0Q4149.255319148936 691 4157.255319148936 675.0Q4165.255319148936 659 4169.255319148936 640.5Q4173.255319148936 622 4175.255319148936 598ZM4875.255319148936 559Q4865.255319148936 505 4878.755319148936 445.5Q4892.255319148936 386 4922.255319148936 327.0Q4952.255319148936 268 4996.255319148936 213.5Q5040.255319148936 159 5090.755319148936 115.0Q5141.255319148936 71 5196.755319148936 41.0Q5252.255319148936 11 5305.255319148936 0Q5321.255319148936 0 5333.755319148936 10.0Q5346.255319148936 20 5355.255319148936 35.0Q5364.255319148936 50 5368.755319148936 67.0Q5373.255319148936 84 5373.255319148936 98V195Q5373.255319148936 205 5365.255319148936 207.5Q5357.255319148936 210 5351.255319148936 210Q5344.255319148936 210 5334.255319148936 208.0Q5324.255319148936 206 5324.255319148936 195Q5324.255319148936 191 5323.255319148936 182.0Q5322.255319148936 173 5321.255319148936 162.0Q5320.255319148936 151 5319.755319148936 141.0Q5319.255319148936 131 5319.255319148936 128Q5319.255319148936 126 5318.755319148936 114.5Q5318.255319148936 103 5316.255319148936 91.0Q5314.255319148936 79 5310.255319148936 69.0Q5306.255319148936 59 5300.255319148936 59H5265.255319148936Q5265.255319148936 59 5256.255319148936 63.5Q5247.255319148936 68 5235.255319148936 74.0Q5223.255319148936 80 5211.255319148936 86.5Q5199.255319148936 93 5193.255319148936 98Q5190.255319148936 100 5183.755319148936 105.0Q5177.255319148936 110 5170.255319148936 115.0Q5163.255319148936 120 5157.255319148936 125.0Q5151.255319148936 130 5148.255319148936 132Q5094.255319148936 184 5054.255319148936 228.5Q5014.255319148936 273 4987.255319148936 321.0Q4960.255319148936 369 4946.755319148936 424.5Q4933.255319148936 480 4933.255319148936 556Q4933.255319148936 586 4936.755319148936 622.5Q4940.255319148936 659 4947.755319148936 697.0Q4955.255319148936 735 4969.255319148936 771.5Q4983.255319148936 808 5004.255319148936 836.0Q5025.255319148936 864 5055.255319148936 881.0Q5085.255319148936 898 5126.255319148936 898H5148.255319148936Q5193.255319148936 883 5227.755319148936 870.5Q5262.255319148936 858 5289.755319148936 845.0Q5317.255319148936 832 5339.755319148936 816.5Q5362.255319148936 801 5383.755319148936 779.0Q5405.255319148936 757 5428.255319148936 726.0Q5451.255319148936 695 5480.255319148936 653Q5481.255319148936 653 5483.255319148936 652.5Q5485.255319148936 652 5487.255319148936 652Q5505.255319148936 652 5505.255319148936 670Q5505.255319148936 693 5493.755319148936 721.5Q5482.255319148936 750 5451.755319148936 784.0Q5421.255319148936 818 5366.755319148936 855.5Q5312.255319148936 893 5227.255319148936 931Q5211.255319148936 938 5199.255319148936 942.5Q5187.255319148936 947 5176.255319148936 949.0Q5165.255319148936 951 5153.755319148936 951.5Q5142.255319148936 952 5128.255319148936 952Q5076.255319148936 952 5037.755319148936 934.0Q4999.255319148936 916 4971.255319148936 885.5Q4943.255319148936 855 4924.755319148936 815.5Q4906.255319148936 776 4895.255319148936 731.5Q4884.255319148936 687 4879.755319148936 642.5Q4875.255319148936 598 4875.255319148936 559ZM5468.255319148936 843Q5472.255319148936 829 5473.755319148936 814.0Q5475.255319148936 799 5477.755319148936 782.0Q5480.255319148936 765 5486.755319148936 743.5Q5493.255319148936 722 5507.255319148936 695.0Q5521.255319148936 668 5544.755319148936 632.5Q5568.255319148936 597 5606.255319148936 551Q5610.255319148936 545 5616.255319148936 540.5Q5622.255319148936 536 5629.255319148936 536Q5641.255319148936 536 5650.255319148936 545.5Q5659.255319148936 555 5659.255319148936 566Q5659.255319148936 567 5657.755319148936 572.5Q5656.255319148936 578 5655.255319148936 580Q5644.255319148936 603 5634.255319148936 621.0Q5624.255319148936 639 5613.255319148936 655.5Q5602.255319148936 672 5588.755319148936 690.0Q5575.255319148936 708 5557.255319148936 731Q5545.255319148936 761 5536.255319148936 787.0Q5527.255319148936 813 5527.255319148936 845Q5527.255319148936 861 5528.755319148936 871.0Q5530.255319148936 881 5538.255319148936 898H5549.255319148936Q5578.255319148936 898 5615.755319148936 874.5Q5653.255319148936 851 5689.755319148936 818.5Q5726.255319148936 786 5756.255319148936 752.0Q5786.255319148936 718 5800.255319148936 697Q5802.255319148936 695 5805.755319148936 687.5Q5809.255319148936 680 5810.255319148936 678Q5812.255319148936 672 5817.255319148936 657.5Q5822.255319148936 643 5827.755319148936 627.0Q5833.255319148936 611 5838.255319148936 596.5Q5843.255319148936 582 5845.255319148936 576Q5847.255319148936 567 5853.255319148936 566.0Q5859.255319148936 565 5865.255319148936 565Q5883.255319148936 565 5888.255319148936 572.5Q5893.255319148936 580 5893.255319148936 597V614Q5883.255319148936 641 5875.755319148936 664.0Q5868.255319148936 687 5861.755319148936 709.0Q5855.255319148936 731 5852.255319148936 753.0Q5849.255319148936 775 5849.255319148936 801Q5849.255319148936 804 5848.755319148936 815.0Q5848.255319148936 826 5849.755319148936 837.5Q5851.255319148936 849 5855.755319148936 858.5Q5860.255319148936 868 5869.255319148936 868Q5893.255319148936 868 5918.755319148936 861.5Q5944.255319148936 855 5970.255319148936 844.5Q5996.255319148936 834 6019.755319148936 821.0Q6043.255319148936 808 6064.255319148936 795Q6069.255319148936 793 6076.255319148936 786.0Q6083.255319148936 779 6091.255319148936 772.5Q6099.255319148936 766 6107.255319148936 761.0Q6115.255319148936 756 6122.255319148936 756Q6142.255319148936 756 6142.255319148936 776Q6142.255319148936 791 6124.255319148936 807.5Q6106.255319148936 824 6078.755319148936 840.0Q6051.255319148936 856 6017.255319148936 870.0Q5983.255319148936 884 5951.755319148936 894.5Q5920.255319148936 905 5895.255319148936 911.5Q5870.255319148936 918 5859.255319148936 918Q5855.255319148936 918 5844.755319148936 917.5Q5834.255319148936 917 5830.255319148936 917Q5814.255319148936 913 5805.255319148936 899.0Q5796.255319148936 885 5791.755319148936 867.5Q5787.255319148936 850 5786.255319148936 832.5Q5785.255319148936 815 5785.255319148936 804Q5782.255319148936 806 5777.755319148936 808.5Q5773.255319148936 811 5772.255319148936 814Q5764.255319148936 821 5745.755319148936 835.5Q5727.255319148936 850 5705.755319148936 866.5Q5684.255319148936 883 5665.755319148936 897.0Q5647.255319148936 911 5640.255319148936 917Q5620.255319148936 932 5596.255319148936 942.0Q5572.255319148936 952 5547.255319148936 952Q5521.255319148936 952 5506.255319148936 943.5Q5491.255319148936 935 5482.755319148936 920.5Q5474.255319148936 906 5471.255319148936 886.0Q5468.255319148936 866 5468.255319148936 843ZM6081.255319148936 832Q6109.255319148936 811 6122.755319148936 791.0Q6136.255319148936 771 6144.255319148936 751.0Q6152.255319148936 731 6157.255319148936 708.5Q6162.255319148936 686 6173.255319148936 659Q6169.255319148936 652 6168.755319148936 646.5Q6168.255319148936 641 6168.255319148936 633Q6168.255319148936 625 6170.755319148936 614.0Q6173.255319148936 603 6178.255319148936 593.5Q6183.255319148936 584 6190.255319148936 577.0Q6197.255319148936 570 6207.255319148936 570Q6206.255319148936 574 6218.755319148936 579.0Q6231.255319148936 584 6249.755319148936 590.0Q6268.255319148936 596 6289.255319148936 603.0Q6310.255319148936 610 6326.255319148936 618Q6344.255319148936 628 6351.755319148936 639.5Q6359.255319148936 651 6359.255319148936 672Q6359.255319148936 691 6354.755319148936 715.0Q6350.255319148936 739 6345.755319148936 763.5Q6341.255319148936 788 6336.755319148936 812.5Q6332.255319148936 837 6332.255319148936 857V883Q6331.255319148936 892 6336.755319148936 892.5Q6342.255319148936 893 6347.255319148936 893Q6359.255319148936 893 6369.255319148936 889.0Q6379.255319148936 885 6389.755319148936 880.0Q6400.255319148936 875 6410.255319148936 870.5Q6420.255319148936 866 6431.255319148936 864L6519.255319148936 810Q6523.255319148936 803 6529.755319148936 798.5Q6536.255319148936 794 6542.255319148936 790Q6552.255319148936 784 6566.255319148936 773Q6573.255319148936 767 6581.255319148936 761H6611.255319148936Q6614.255319148936 761 6615.255319148936 767.0Q6616.255319148936 773 6616.255319148936 776Q6616.255319148936 788 6599.255319148936 806.0Q6582.255319148936 824 6555.255319148936 843.0Q6528.255319148936 862 6495.255319148936 880.5Q6462.255319148936 899 6430.755319148936 914.0Q6399.255319148936 929 6372.755319148936 938.0Q6346.255319148936 947 6332.255319148936 947Q6314.255319148936 947 6303.255319148936 938.0Q6292.255319148936 929 6285.255319148936 916.0Q6278.255319148936 903 6275.755319148936 887.5Q6273.255319148936 872 6273.255319148936 857Q6273.255319148936 846 6280.255319148936 826.0Q6287.255319148936 806 6296.255319148936 785.0Q6305.255319148936 764 6312.255319148936 744.0Q6319.255319148936 724 6319.255319148936 712Q6319.255319148936 711 6304.755319148936 704.0Q6290.255319148936 697 6273.255319148936 688.5Q6256.255319148936 680 6241.755319148936 673.5Q6227.255319148936 667 6227.255319148936 666Q6205.255319148936 689 6196.755319148936 715.0Q6188.255319148936 741 6179.755319148936 769.0Q6171.255319148936 797 6154.755319148936 825.0Q6138.255319148936 853 6099.255319148936 880Q6098.255319148936 880 6094.755319148936 879.0Q6091.255319148936 878 6087.755319148936 873.5Q6084.255319148936 869 6082.255319148936 859.5Q6080.255319148936 850 6081.255319148936 832ZM6614.255319148936 810Q6606.255319148936 814 6597.255319148936 814.5Q6588.255319148936 815 6579.255319148936 815.0Q6570.255319148936 815 6561.255319148936 815.5Q6552.255319148936 816 6543.255319148936 820Q6526.255319148936 822 6521.255319148936 817.5Q6516.255319148936 813 6518.255319148936 805.0Q6520.255319148936 797 6529.255319148936 787.0Q6538.255319148936 777 6549.755319148936 770.0Q6561.255319148936 763 6574.755319148936 760.0Q6588.255319148936 757 6599.255319148936 761Q6594.255319148936 743 6600.255319148936 730.0Q6606.255319148936 717 6624.255319148936 717Q6633.255319148936 717 6640.755319148936 718.5Q6648.255319148936 720 6652.255319148936 727Q6667.255319148936 718 6692.255319148936 696.5Q6717.255319148936 675 6743.755319148936 652.5Q6770.255319148936 630 6792.255319148936 612.5Q6814.255319148936 595 6822.255319148936 595Q6825.255319148936 595 6830.255319148936 595.5Q6835.255319148936 596 6840.755319148936 598.0Q6846.255319148936 600 6849.755319148936 602.5Q6853.255319148936 605 6853.255319148936 610V653Q6846.255319148936 681 6839.755319148936 705.5Q6833.255319148936 730 6828.755319148936 753.5Q6824.255319148936 777 6822.255319148936 801.0Q6820.255319148936 825 6820.255319148936 852Q6836.255319148936 852 6858.755319148936 845.0Q6881.255319148936 838 6904.255319148936 828.0Q6927.255319148936 818 6947.255319148936 807.5Q6967.255319148936 797 6979.255319148936 790Q6981.255319148936 789 6988.255319148936 783.0Q6995.255319148936 777 7003.255319148936 770.5Q7011.255319148936 764 7018.755319148936 758.5Q7026.255319148936 753 7028.255319148936 751Q7030.255319148936 749 7038.255319148936 745.5Q7046.255319148936 742 7047.255319148936 741Q7051.255319148936 740 7054.755319148936 743.5Q7058.255319148936 747 7061.255319148936 751.5Q7064.255319148936 756 7065.755319148936 760.5Q7067.255319148936 765 7067.255319148936 766Q7067.255319148936 776 7059.255319148936 786.0Q7051.255319148936 796 7040.255319148936 804.5Q7029.255319148936 813 7017.755319148936 820.5Q7006.255319148936 828 7000.255319148936 834Q6992.255319148936 838 6972.755319148936 847.0Q6953.255319148936 856 6931.255319148936 866.0Q6909.255319148936 876 6889.755319148936 885.0Q6870.255319148936 894 6862.255319148936 898Q6860.255319148936 899 6853.255319148936 900.5Q6846.255319148936 902 6838.255319148936 905.0Q6830.255319148936 908 6822.755319148936 909.5Q6815.255319148936 911 6813.255319148936 912Q6804.255319148936 915 6799.755319148936 922.0Q6795.255319148936 929 6790.755319148936 936.0Q6786.255319148936 943 6779.755319148936 948.0Q6773.255319148936 953 6759.255319148936 951Q6758.255319148936 950 6750.755319148936 946.5Q6743.255319148936 943 6741.255319148936 941Q6717.255319148936 924 6700.255319148936 909.0Q6683.255319148936 894 6669.255319148936 879.5Q6655.255319148936 865 6642.755319148936 848.0Q6630.255319148936 831 6614.255319148936 810ZM6677.255319148936 770Q6684.255319148936 785 6690.755319148936 799.0Q6697.255319148936 813 6706.255319148936 825.5Q6715.255319148936 838 6726.755319148936 847.0Q6738.255319148936 856 6755.255319148936 858Q6757.255319148936 843 6760.255319148936 822.0Q6763.255319148936 801 6767.255319148936 778.0Q6771.255319148936 755 6776.755319148936 732.5Q6782.255319148936 710 6789.255319148936 693H6779.255319148936Q6763.255319148936 704 6749.255319148936 715Q6736.255319148936 725 6723.255319148936 734.5Q6710.255319148936 744 6702.255319148936 751Q6701.255319148936 752 6699.255319148936 754.0Q6697.255319148936 756 6696.255319148936 756Q6695.255319148936 758 6687.255319148936 763.0Q6679.255319148936 768 6677.255319148936 770ZM6789.255319148936 678Q6786.255319148936 678 6786.255319148936 682.5Q6786.255319148936 687 6789.255319148936 687Q6793.255319148936 687 6793.255319148936 682.5Q6793.255319148936 678 6789.255319148936 678ZM7044.255319148936 741Q7045.255319148936 736 7050.255319148936 723.0Q7055.255319148936 710 7060.755319148936 695.0Q7066.255319148936 680 7071.255319148936 667.0Q7076.255319148936 654 7078.255319148936 649Q7084.255319148936 633 7089.755319148936 628.0Q7095.255319148936 623 7110.255319148936 623Q7126.255319148936 623 7131.255319148936 634.0Q7136.255319148936 645 7136.255319148936 660Q7136.255319148936 686 7128.755319148936 707.5Q7121.255319148936 729 7112.255319148936 750.5Q7103.255319148936 772 7095.755319148936 796.5Q7088.255319148936 821 7088.255319148936 853Q7088.255319148936 857 7088.255319148936 864.5Q7088.255319148936 872 7089.255319148936 879.5Q7090.255319148936 887 7093.255319148936 892.5Q7096.255319148936 898 7101.255319148936 898Q7127.255319148936 898 7153.755319148936 887.5Q7180.255319148936 877 7205.755319148936 862.5Q7231.255319148936 848 7254.755319148936 830.5Q7278.255319148936 813 7297.255319148936 800Q7304.255319148936 795 7307.755319148936 790.0Q7311.255319148936 785 7314.255319148936 780.5Q7317.255319148936 776 7321.755319148936 772.5Q7326.255319148936 769 7336.255319148936 769Q7349.255319148936 769 7357.755319148936 774.5Q7366.255319148936 780 7366.255319148936 794Q7366.255319148936 800 7365.755319148936 805.0Q7365.255319148936 810 7360.255319148936 814Q7359.255319148936 817 7352.755319148936 822.0Q7346.255319148936 827 7339.255319148936 832.5Q7332.255319148936 838 7326.255319148936 842.5Q7320.255319148936 847 7317.255319148936 848Q7316.255319148936 848 7311.755319148936 850.5Q7307.255319148936 853 7306.255319148936 853Q7305.255319148936 854 7303.755319148936 855.5Q7302.255319148936 857 7302.255319148936 858Q7281.255319148936 874 7256.755319148936 890.5Q7232.255319148936 907 7205.255319148936 920.5Q7178.255319148936 934 7149.755319148936 943.0Q7121.255319148936 952 7093.255319148936 952Q7069.255319148936 952 7056.755319148936 939.5Q7044.255319148936 927 7038.255319148936 908.0Q7032.255319148936 889 7031.255319148936 868.0Q7030.255319148936 847 7030.255319148936 830ZM7092.255319148936 478Q7092.255319148936 460 7099.255319148936 454.0Q7106.255319148936 448 7124.255319148936 448Q7133.255319148936 448 7142.255319148936 451.5Q7151.255319148936 455 7151.255319148936 468Q7151.255319148936 481 7138.755319148936 492.0Q7126.255319148936 503 7114.255319148936 503Q7102.255319148936 503 7097.255319148936 495.5Q7092.255319148936 488 7092.255319148936 478ZM7400.255319148936 844 7430.255319148936 706Q7434.255319148936 673 7441.755319148936 640.5Q7449.255319148936 608 7459.755319148936 583.0Q7470.255319148936 558 7482.255319148936 542.0Q7494.255319148936 526 7507.255319148936 526Q7522.255319148936 526 7529.255319148936 538.5Q7536.255319148936 551 7536.255319148936 564V576L7468.255319148936 795Q7462.255319148936 816 7459.755319148936 832.0Q7457.255319148936 848 7457.255319148936 868Q7457.255319148936 871 7456.755319148936 876.0Q7456.255319148936 881 7457.255319148936 886.0Q7458.255319148936 891 7460.755319148936 894.5Q7463.255319148936 898 7467.255319148936 898Q7477.255319148936 898 7489.755319148936 893.0Q7502.255319148936 888 7515.255319148936 881.5Q7528.255319148936 875 7539.255319148936 868.5Q7550.255319148936 862 7556.255319148936 858Q7579.255319148936 844 7598.255319148936 829.0Q7617.255319148936 814 7634.255319148936 798.0Q7651.255319148936 782 7666.255319148936 763.5Q7681.255319148936 745 7697.255319148936 722Q7702.255319148936 713 7709.255319148936 695.5Q7716.255319148936 678 7724.255319148936 655.5Q7732.255319148936 633 7740.255319148936 610.0Q7748.255319148936 587 7756.255319148936 567.0Q7764.255319148936 547 7772.255319148936 534.5Q7780.255319148936 522 7788.255319148936 522Q7798.255319148936 522 7802.755319148936 525.5Q7807.255319148936 529 7809.755319148936 535.0Q7812.255319148936 541 7813.755319148936 548.0Q7815.255319148936 555 7818.255319148936 561Q7819.255319148936 562 7823.255319148936 563.5Q7827.255319148936 565 7829.255319148936 566Q7839.255319148936 569 7839.755319148936 571.0Q7840.255319148936 573 7839.255319148936 575.5Q7838.255319148936 578 7839.255319148936 578.5Q7840.255319148936 579 7850.255319148936 579H7853.255319148936Q7865.255319148936 578 7883.755319148936 575.5Q7902.255319148936 573 7919.255319148936 571.0Q7936.255319148936 569 7948.755319148936 567.0Q7961.255319148936 565 7961.255319148936 565L7981.255319148936 608Q7952.255319148936 616 7932.255319148936 620.5Q7912.255319148936 625 7893.755319148936 627.0Q7875.255319148936 629 7854.755319148936 628.0Q7834.255319148936 627 7805.255319148936 625L7799.255319148936 630Q7780.255319148936 677 7760.755319148936 716.5Q7741.255319148936 756 7715.255319148936 789.5Q7689.255319148936 823 7656.755319148936 852.5Q7624.255319148936 882 7580.255319148936 907Q7552.255319148936 923 7523.255319148936 937.5Q7494.255319148936 952 7463.255319148936 952Q7444.255319148936 952 7431.755319148936 945.0Q7419.255319148936 938 7412.255319148936 926.5Q7405.255319148936 915 7402.755319148936 899.5Q7400.255319148936 884 7400.255319148936 868ZM7936.255319148936 795Q7938.255319148936 789 7942.755319148936 773.5Q7947.255319148936 758 7951.755319148936 740.0Q7956.255319148936 722 7959.755319148936 705.5Q7963.255319148936 689 7965.255319148936 683Q7971.255319148936 659 7979.755319148936 631.0Q7988.255319148936 603 8003.255319148936 579.0Q8018.255319148936 555 8041.755319148936 539.5Q8065.255319148936 524 8100.255319148936 524Q8113.255319148936 524 8118.755319148936 533.5Q8124.255319148936 543 8128.255319148936 554Q8128.255319148936 558 8128.755319148936 568.5Q8129.255319148936 579 8129.255319148936 583Q8129.255319148936 626 8120.755319148936 659.0Q8112.255319148936 692 8094.755319148936 720.0Q8077.255319148936 748 8052.255319148936 772.5Q8027.255319148936 797 7995.255319148936 824Q7994.255319148936 827 7992.255319148936 834.0Q7990.255319148936 841 7990.255319148936 844V846Q7990.255319148936 864 7996.255319148936 875.0Q8002.255319148936 886 8012.755319148936 892.5Q8023.255319148936 899 8036.755319148936 900.5Q8050.255319148936 902 8066.255319148936 902Q8113.255319148936 902 8156.255319148935 889.0Q8199.255319148935 876 8235.255319148935 847Q8240.255319148935 842 8247.755319148935 832.5Q8255.255319148935 823 8263.255319148935 813.0Q8271.255319148935 803 8280.255319148935 795.5Q8289.255319148935 788 8299.255319148935 788Q8309.255319148935 788 8311.255319148935 796.0Q8313.255319148935 804 8313.255319148935 812Q8313.255319148935 834 8299.755319148935 853.5Q8286.255319148935 873 8264.755319148935 888.5Q8243.255319148935 904 8215.755319148935 916.0Q8188.255319148936 928 8161.255319148936 936.0Q8134.255319148936 944 8109.755319148936 948.0Q8085.255319148936 952 8068.255319148936 952Q8015.255319148936 952 7979.755319148936 934.5Q7944.255319148936 917 7931.255319148936 864ZM8079.255319148936 598Q8059.255319148936 616 8047.755319148936 630.5Q8036.255319148936 645 8029.755319148936 660.5Q8023.255319148936 676 8018.755319148936 694.0Q8014.255319148936 712 8009.255319148936 736Q8028.255319148936 721 8040.755319148936 706.0Q8053.255319148936 691 8061.255319148936 675.0Q8069.255319148936 659 8073.255319148936 640.5Q8077.255319148936 622 8079.255319148936 598Z" fill="currentColor" /></svg>