<svg viewBox="0 0 4989 1211" xmlns="http://www.w3.org/2000/svg"><path d="M413 1015Q233 1015 128.5 923.5Q24 832 24 665Q24 563 57.5 486.0Q91 409 152 363Q273 272 471 272Q599 272 727 307Q776 323 776 386Q776 472 722 472Q713 472 663.0 464.0Q613 456 593 456Q522 456 483.5 505.5Q445 555 445.0 623.5Q445 692 481.0 744.0Q517 796 579 798Q621 800 728 800Q780 800 785 849Q788 867 788.0 885.5Q788 904 785 923Q779 959 729.0 975.5Q679 992 585.0 1003.5Q491 1015 413 1015ZM889 948 887 621Q887 471 890 329Q891 296 902.5 280.0Q914 264 947 264H1139Q1172 264 1183.5 279.5Q1195 295 1197.5 335.5Q1200 376 1202 552Q1280 473 1389.5 473.0Q1499 473 1562.0 527.0Q1625 581 1626.5 676.0Q1628 771 1628.0 846.0Q1628 921 1627.0 947.0Q1626 973 1613.5 984.5Q1601 996 1565 996L1373 998Q1341 998 1328.5 986.5Q1316 975 1316 952L1317 708Q1317 678 1302.0 663.0Q1287 648 1264.5 648.0Q1242 648 1224.0 663.5Q1206 679 1205 707L1199 948Q1198 967 1181.0 980.0Q1164 993 1139.5 995.0Q1115 997 1085 997L945 995Q926 995 907.5 981.5Q889 968 889 948ZM2090 470Q2416 470 2419 682Q2421 772 2421.0 847.0Q2421 922 2420.0 948.0Q2419 974 2406.5 985.5Q2394 997 2358 997H2146Q2114 997 2102.0 985.5Q2090 974 2089 951Q2089 950 2088.5 947.5Q2088 945 2088 943Q2022 1011 1908 1011Q1829 1011 1773.5 971.5Q1718 932 1718.0 862.5Q1718 793 1757.5 751.5Q1797 710 1851.5 695.0Q1906 680 1968.5 680.0Q2031 680 2091 692V688Q2091 638 2071.5 616.0Q2052 594 2008.5 594.0Q1965 594 1936.0 601.5Q1907 609 1892 617Q1851 641 1835.0 641.0Q1819 641 1806.5 626.0Q1794 611 1794.0 579.5Q1794 548 1805.5 536.0Q1817 524 1842 512Q1929 470 2090 470ZM2043 879Q2087 879 2088 862Q2090 829 2090 775Q2090 754 2058.0 754.0Q2026 754 2006.0 769.5Q1986 785 1986.0 815.0Q1986 845 2002.5 862.0Q2019 879 2043 879ZM2975 952 2976 708Q2976 678 2961.0 663.0Q2946 648 2923.5 648.0Q2901 648 2882.5 663.5Q2864 679 2864 707V768Q2864 900 2858 948Q2855 965 2841.0 978.0Q2827 991 2791.5 993.5Q2756 996 2721.0 996.0Q2686 996 2602 992Q2578 991 2564.0 978.0Q2550 965 2548 948Q2541 883 2541.0 749.0Q2541 615 2545.0 565.5Q2549 516 2560.0 501.0Q2571 486 2605 486H2800Q2834 486 2845.5 501.0Q2857 516 2860 552V553Q2937 473 3047.5 473.0Q3158 473 3221.0 527.0Q3284 581 3285.5 676.0Q3287 771 3287.0 846.0Q3287 921 3286.0 947.0Q3285 973 3272.5 984.5Q3260 996 3224 996L3032 998Q3000 998 2987.5 986.5Q2975 975 2975 952ZM3725 639Q3666 639 3666.0 725.5Q3666 812 3723 812Q3748 812 3766.5 798.5Q3785 785 3785 760V691Q3785 667 3766.5 653.0Q3748 639 3725 639ZM4101 534 4103 841Q4103 941 4102.0 993.0Q4101 1045 4072.0 1087.0Q4043 1129 3993 1153Q3895 1198 3732.0 1198.0Q3569 1198 3465 1154Q3440 1143 3428.5 1130.5Q3417 1118 3417.0 1086.5Q3417 1055 3429.5 1040.0Q3442 1025 3459.0 1025.0Q3476 1025 3501 1037Q3578 1075 3655 1075Q3690 1075 3718.0 1067.5Q3746 1060 3767.5 1037.0Q3789 1014 3789 978L3788 925Q3788 915 3782 915Q3779 915 3776 918Q3696 995 3600.0 995.0Q3504 995 3439.5 934.0Q3375 873 3375.0 741.0Q3375 609 3451.0 541.5Q3527 474 3637.0 474.0Q3747 474 3800 543Q3801 517 3819.0 503.0Q3837 489 3859.0 487.0Q3881 485 3939 485L4045 487Q4064 487 4082.5 500.5Q4101 514 4101 534ZM4635 745Q4635 694 4623.0 666.5Q4611 639 4576.0 639.0Q4541 639 4529.0 666.5Q4517 694 4517 745Q4517 857 4576.0 857.0Q4635 857 4635 745ZM4203 745Q4203 616 4298.0 545.0Q4393 474 4576.0 474.0Q4759 474 4854.0 545.0Q4949 616 4949 745Q4949 1017 4576.0 1017.0Q4203 1017 4203 745Z" fill="currentColor" /></svg>