<svg viewBox="0 0 7960 1367" xmlns="http://www.w3.org/2000/svg"><path d="M436 915Q461 915 461.0 947.0Q461 979 460 995Q456 1031 428 1036Q339 1049 296 1049Q147 1049 91.0 965.0Q35 881 35 662Q35 502 59.5 417.5Q84 333 138.5 299.0Q193 265 301.5 265.0Q410 265 460 299Q470 306 470.0 316.0Q470 326 460.5 353.5Q451 381 442.5 392.5Q434 404 425.0 404.0Q416 404 411 403Q336 388 281.5 388.0Q227 388 210.5 448.0Q194 508 194.0 642.5Q194 777 201.0 830.0Q208 883 227.0 904.0Q246 925 287.5 925.0Q329 925 381.5 920.0Q434 915 436 915ZM800 521Q874 521 908.5 567.0Q943 613 943 729V1033Q943 1039 942 1041Q937 1049 903.5 1049.0Q870 1049 835.0 1044.0Q800 1039 800 1033L799 729Q799 617 783 617Q747 617 687 653V1033Q687 1039 686 1041Q681 1049 647.5 1049.0Q614 1049 578.5 1044.0Q543 1039 543 1033V281Q543 265 578.5 265.0Q614 265 640.0 269.5Q666 274 667 281L685 570Q761 521 800 521ZM1236 1002Q1184 1049 1143.5 1049.0Q1103 1049 1078.0 1043.5Q1053 1038 1033.0 1019.5Q1013 1001 1005.0 966.0Q997 931 997 873Q997 792 1076 762L1219 725Q1218 660 1206.0 641.0Q1194 622 1154.0 622.0Q1114 622 1085 635L1050 649H1049Q1040 654 1033 641Q1015 603 1015.0 581.5Q1015 560 1018.5 557.5Q1022 555 1022 554Q1072 521 1151.5 521.0Q1231 521 1274.0 542.0Q1317 563 1336.5 618.5Q1356 674 1356 783L1354 1033Q1354 1039 1352 1041Q1348 1049 1314 1049Q1252 1049 1252 1033ZM1108 875Q1108 947 1150 951Q1179 951 1192 941Q1220 922 1220 799Q1168 806 1138.0 827.5Q1108 849 1108 875ZM1582 1049Q1508 1049 1473.5 1003.0Q1439 957 1439 841V537Q1439 521 1475.5 521.0Q1512 521 1547.0 526.0Q1582 531 1582 537L1583 841Q1583 953 1599 953Q1635 953 1695 917V537Q1695 521 1731.5 521.0Q1768 521 1803.5 526.0Q1839 531 1839 537V1033Q1839 1039 1837 1041Q1833 1049 1785.5 1049.0Q1738 1049 1727 1033L1706 1002Q1636 1049 1582 1049ZM2195 1011V281Q2296 265 2373 265Q2509 265 2562.5 322.0Q2616 379 2616 501Q2616 645 2544 698Q2497 732 2452 740Q2394 749 2320 749V1010Q2320 1029 2318 1035Q2315 1049 2280 1049Q2195 1049 2195 1011ZM2454 587Q2472 557 2472.0 504.0Q2472 451 2456.0 417.5Q2440 384 2422 384Q2350 384 2335.0 387.0Q2320 390 2320 407V597Q2320 608 2323.5 609.5Q2327 611 2329.5 611.5Q2332 612 2352.5 612.0Q2373 612 2390.0 611.0Q2407 610 2426.5 604.5Q2446 599 2454 587ZM2929 521Q3003 521 3037.5 567.0Q3072 613 3072 729V1033Q3072 1039 3071 1041Q3066 1049 3032.5 1049.0Q2999 1049 2964.0 1044.0Q2929 1039 2929 1033L2928 729Q2928 617 2912 617Q2876 617 2816 653V1033Q2816 1039 2815 1041Q2810 1049 2776.5 1049.0Q2743 1049 2707.5 1044.0Q2672 1039 2672 1033V281Q2672 265 2707.5 265.0Q2743 265 2769.0 269.5Q2795 274 2796 281L2814 570Q2890 521 2929 521ZM3138 1033V537Q3138 521 3174.0 521.0Q3210 521 3242.0 526.0Q3274 531 3274 537V1033Q3274 1039 3273 1041Q3268 1049 3235.0 1049.0Q3202 1049 3170.0 1044.0Q3138 1039 3138 1033ZM3200.0 409.0Q3128 409 3128.0 337.0Q3128 265 3200.0 265.0Q3272 265 3272.0 337.0Q3272 409 3200.0 409.0ZM3498 1033Q3498 1039 3496 1041Q3492 1049 3459.0 1049.0Q3426 1049 3394.5 1044.0Q3363 1039 3363 1033V281Q3363 265 3398.0 265.0Q3433 265 3456.0 269.5Q3479 274 3480 281L3498 602ZM3577 783Q3577 674 3596.0 618.0Q3615 562 3656.0 541.5Q3697 521 3777.0 521.0Q3857 521 3898.0 541.5Q3939 562 3958.0 618.0Q3977 674 3977 783Q3977 933 3934.0 991.0Q3891 1049 3777.0 1049.0Q3663 1049 3620.0 991.0Q3577 933 3577 783ZM3713 783Q3713 951 3745 951Q3789 951 3810 937Q3821 929 3825 908Q3833 866 3833 783Q3833 617 3801 617Q3741 617 3727.0 644.5Q3713 672 3713 783ZM4571 1033V729Q4571 617 4555 617Q4520 617 4454 656Q4459 693 4459 729V1033Q4459 1039 4458 1041Q4453 1049 4419.5 1049.0Q4386 1049 4350.5 1044.0Q4315 1039 4315 1033V692Q4313 617 4299 617Q4263 617 4203 653V1033Q4203 1039 4202 1041Q4197 1049 4163.5 1049.0Q4130 1049 4094.5 1044.0Q4059 1039 4059 1033V537Q4059 521 4099 521Q4162 521 4171 537Q4171 539 4172 539L4191 577Q4275 521 4316 521Q4404 521 4435 585Q4527 521 4572 521Q4646 521 4680.5 567.0Q4715 613 4715 729V1033Q4715 1039 4714 1041Q4709 1049 4675.5 1049.0Q4642 1049 4606.5 1044.0Q4571 1039 4571 1033ZM4986 1049Q4879 1049 4837.5 991.0Q4796 933 4796 783Q4796 675 4815.0 618.5Q4834 562 4872.5 541.5Q4911 521 4986.0 521.0Q5061 521 5099.5 542.0Q5138 563 5156.0 620.0Q5174 677 5174 782Q5174 788 5174.0 794.0Q5174 800 5150.5 805.0Q5127 810 5094 810H4940Q4942 927 4957 943Q4966 951 4986 951Q5117 951 5165 938Q5167 937 5168 937Q5175 935 5179.5 945.0Q5184 955 5184.0 992.0Q5184 1029 5168 1033Q5127 1049 4986 1049ZM4940 652V730H5041Q5037 614 5018 614Q4984 614 4962.0 624.0Q4940 634 4940 652ZM5515 521Q5589 521 5623.5 567.0Q5658 613 5658 729V1033Q5658 1039 5657 1041Q5652 1049 5618.5 1049.0Q5585 1049 5550.0 1044.0Q5515 1039 5515 1033L5514 729Q5514 617 5498 617Q5462 617 5402 653V1033Q5402 1039 5401 1041Q5396 1049 5362.5 1049.0Q5329 1049 5293.5 1044.0Q5258 1039 5258 1033V537Q5258 521 5298 521Q5361 521 5370 537Q5370 539 5371 539L5390 577Q5474 521 5515 521ZM5928 1049Q5821 1049 5779.5 991.0Q5738 933 5738 783Q5738 675 5757.0 618.5Q5776 562 5814.5 541.5Q5853 521 5928.0 521.0Q6003 521 6041.5 542.0Q6080 563 6098.0 620.0Q6116 677 6116 782Q6116 788 6116.0 794.0Q6116 800 6092.5 805.0Q6069 810 6036 810H5882Q5884 927 5899 943Q5908 951 5928 951Q6059 951 6107 938Q6109 937 6110 937Q6117 935 6121.5 945.0Q6126 955 6126.0 992.0Q6126 1029 6110 1033Q6069 1049 5928 1049ZM5882 652V730H5983Q5979 614 5960 614Q5926 614 5904.0 624.0Q5882 634 5882 652ZM6458 662Q6458 503 6483.0 418.0Q6508 333 6562.5 299.0Q6617 265 6720.0 265.0Q6823 265 6877.5 299.0Q6932 333 6956.5 417.5Q6981 502 6981 662Q6981 881 6925.0 965.0Q6869 1049 6720.0 1049.0Q6571 1049 6514.5 965.0Q6458 881 6458 662ZM6666 937Q6754 937 6781 919Q6791 912 6800.5 896.0Q6810 880 6814.0 863.0Q6818 846 6821 813Q6825 770 6825.0 658.5Q6825 547 6819.5 482.5Q6814 418 6803.5 394.5Q6793 371 6776 371Q6736 371 6711.5 374.5Q6687 378 6668.0 391.5Q6649 405 6640.0 421.5Q6631 438 6625.0 475.5Q6619 513 6618.0 551.5Q6617 590 6617.0 682.0Q6617 774 6623.0 836.0Q6629 898 6639.0 917.5Q6649 937 6666 937ZM7320 521Q7394 521 7428.5 567.0Q7463 613 7463 729V1033Q7463 1039 7462 1041Q7457 1049 7423.5 1049.0Q7390 1049 7355.0 1044.0Q7320 1039 7320 1033L7319 729Q7319 617 7303 617Q7267 617 7207 653V1033Q7207 1039 7206 1041Q7201 1049 7167.5 1049.0Q7134 1049 7098.5 1044.0Q7063 1039 7063 1033V537Q7063 521 7103 521Q7166 521 7175 537Q7175 539 7176 539L7195 577Q7279 521 7320 521ZM7733 1049Q7626 1049 7584.5 991.0Q7543 933 7543 783Q7543 675 7562.0 618.5Q7581 562 7619.5 541.5Q7658 521 7733.0 521.0Q7808 521 7846.5 542.0Q7885 563 7903.0 620.0Q7921 677 7921 782Q7921 788 7921.0 794.0Q7921 800 7897.5 805.0Q7874 810 7841 810H7687Q7689 927 7704 943Q7713 951 7733 951Q7864 951 7912 938Q7914 937 7915 937Q7922 935 7926.5 945.0Q7931 955 7931.0 992.0Q7931 1029 7915 1033Q7874 1049 7733 1049ZM7687 652V730H7788Q7784 614 7765 614Q7731 614 7709.0 624.0Q7687 634 7687 652Z" fill="currentColor" /></svg>