<svg viewBox="0 0 6272 1326" xmlns="http://www.w3.org/2000/svg"><path d="M324 490H404Q404 569 451 569Q476 569 489.0 549.5Q502 530 502 500Q502 452 458.0 423.5Q414 395 355 395Q251 395 188.0 474.5Q125 554 125.0 675.0Q125 796 188.0 875.5Q251 955 354.5 955.0Q458 955 540 869L601 919Q512 1035 359.0 1035.0Q206 1035 120.5 935.5Q35 836 35.0 677.0Q35 518 121.0 416.5Q207 315 355 315Q446 315 514.0 366.5Q582 418 582 500Q582 560 550.0 602.0Q518 644 451.0 644.0Q384 644 354.0 599.5Q324 555 324 490ZM797 960H884V1025H635V960H712V340H635V275H797V574Q900 515 984.0 515.0Q1068 515 1100.5 566.0Q1133 617 1133 707V965H1215V1007Q1178 1030 1129.5 1030.0Q1081 1030 1064.5 1013.5Q1048 997 1048 960V707Q1048 649 1033.0 619.5Q1018 590 964.0 590.0Q910 590 797 650ZM1698 741V794H1345Q1350 867 1388.0 913.5Q1426 960 1490 960Q1532 960 1565.5 951.0Q1599 942 1612.0 934.5Q1625 927 1648 912L1685 968Q1609 1035 1495.0 1035.0Q1381 1035 1320.5 961.5Q1260 888 1260.0 775.0Q1260 662 1320.5 588.5Q1381 515 1485.5 515.0Q1590 515 1644.0 578.0Q1698 641 1698 741ZM1349 723H1613Q1607 662 1576.5 626.0Q1546 590 1489.5 590.0Q1433 590 1397.0 626.5Q1361 663 1349 723ZM1910 960H1997V1025H1748V960H1825V590H1748V525H1891L1903 578Q1937 559 1958.0 548.5Q1979 538 2018.5 526.5Q2058 515 2095 515L2151 530L2128 612L2083 600Q1999 600 1910 642ZM2331 960H2418V1025H2169V960H2246V590H2169V525H2312L2324 578Q2358 559 2379.0 548.5Q2400 538 2439.5 526.5Q2479 515 2516 515L2572 530L2549 612L2504 600Q2420 600 2331 642ZM2580 590V525H2769V590H2733L2845 929L2950 590H2904V525H3084V590H3037L2892 1025Q2854 1136 2808.0 1193.5Q2762 1251 2680 1251Q2633 1251 2580 1233L2604 1163Q2645 1175 2674 1175Q2760 1175 2806 1039L2642 590ZM3652 473H3732Q3732 542 3777 542Q3820 542 3820 473Q3820 431 3781.5 407.0Q3743 383 3681.5 383.0Q3620 383 3576.5 412.0Q3533 441 3533.0 489.0Q3533 537 3572.5 570.0Q3612 603 3669.5 631.5Q3727 660 3736.0 665.0Q3745 670 3775.0 685.5Q3805 701 3814.5 708.5Q3824 716 3845.5 732.0Q3867 748 3875.0 760.0Q3883 772 3894 789Q3913 820 3913 866Q3913 950 3843.5 991.5Q3774 1033 3651.0 1033.0Q3528 1033 3440 982V847H3510V928Q3577 958 3655.5 958.0Q3734 958 3780.5 930.0Q3827 902 3827 858Q3827 817 3780 783Q3743 758 3644.5 709.0Q3546 660 3497.5 615.0Q3449 570 3449 498Q3449 410 3515.0 359.0Q3581 308 3678.0 308.0Q3775 308 3837.5 353.5Q3900 399 3900.0 466.5Q3900 534 3870.5 575.5Q3841 617 3776.5 617.0Q3712 617 3682.0 575.0Q3652 533 3652 473ZM4681 525V590H4624L4508 1025H4420L4320 651L4220 1025H4132L4015 590H3959V525H4171V590H4101L4181 923L4276 525H4364L4459 923L4538 590H4469V525ZM4878 1035Q4809 1035 4770.0 995.5Q4731 956 4731.0 889.5Q4731 823 4783.0 778.0Q4835 733 4937 733H5046V682Q5046 590 4958 590Q4884 590 4822 608V675H4752V556Q4797 537 4858.5 526.0Q4920 515 4961 515Q5041 515 5086.0 560.5Q5131 606 5131 682V965H5213V1007Q5176 1030 5128.0 1030.0Q5080 1030 5063.0 1014.0Q5046 998 5046 960Q4971 1035 4878 1035ZM4887 960Q4973 960 5046 863V799H4936Q4875 799 4845.5 823.0Q4816 847 4816.0 883.5Q4816 920 4834.0 940.0Q4852 960 4887 960ZM5263 881H5333V944Q5371 959 5425.5 959.0Q5480 959 5508.5 941.5Q5537 924 5537.0 898.0Q5537 872 5515.5 855.5Q5494 839 5413.5 796.0Q5333 753 5301.0 723.5Q5269 694 5269 646Q5269 584 5317.5 549.5Q5366 515 5450.0 515.0Q5534 515 5609 556V675H5539V608Q5495 590 5445.5 590.0Q5396 590 5375.0 608.5Q5354 627 5354.0 649.0Q5354 671 5370 684Q5397 706 5467 741Q5556 790 5589.0 820.0Q5622 850 5622 897Q5622 959 5569.0 996.5Q5516 1034 5421.5 1034.0Q5327 1034 5263 996ZM5844 960H5931V1025H5682V960H5759V340H5682V275H5844V574Q5947 515 6031.0 515.0Q6115 515 6147.5 566.0Q6180 617 6180 707V965H6262V1007Q6225 1030 6176.5 1030.0Q6128 1030 6111.5 1013.5Q6095 997 6095 960V707Q6095 649 6080.0 619.5Q6065 590 6011.0 590.0Q5957 590 5844 650Z" fill="currentColor" /></svg>