<svg viewBox="0 0 2670 1190" xmlns="http://www.w3.org/2000/svg"><path d="M341 950Q282 950 230.5 933.0Q179 916 140.5 878.0Q102 840 80.0 778.5Q58 717 58 628V566Q58 479 80.0 417.5Q102 356 140.5 317.5Q179 279 229.5 261.5Q280 244 338 244H353Q407 244 455.5 259.0Q504 274 541.0 306.5Q578 339 599.5 391.5Q621 444 621 519H504Q504 448 483.5 409.5Q463 371 427.0 355.5Q391 340 345 340Q311 340 282.0 350.0Q253 360 232.0 383.0Q211 406 199.5 444.5Q188 483 188 540V654Q188 730 208.0 773.5Q228 817 263.5 835.5Q299 854 345 854Q394 854 430.5 838.5Q467 823 487.5 784.5Q508 746 508 676H621Q621 748 600.0 800.0Q579 852 542.5 885.0Q506 918 458.0 934.0Q410 950 356 950ZM746 940V220H862V496Q890 458 930.5 438.5Q971 419 1017 419Q1068 419 1107.5 439.0Q1147 459 1170.0 497.5Q1193 536 1193 592V940H1077V613Q1077 556 1050.0 531.5Q1023 507 976 507Q945 507 919.0 522.5Q893 538 877.5 564.0Q862 590 862 623V940ZM1349 940V429H1465V940ZM1346 314V220H1468V314ZM1748 940 1561 429H1685L1815 802H1820L1951 429H2064L1875 940ZM2366 950Q2298 950 2244.0 919.0Q2190 888 2159.5 830.0Q2129 772 2129 693V676Q2129 596 2159.5 538.5Q2190 481 2243.5 450.0Q2297 419 2365 419H2381Q2450 419 2503.5 450.0Q2557 481 2587.5 538.5Q2618 596 2618 676V693Q2618 772 2587.5 830.0Q2557 888 2503.5 919.0Q2450 950 2382 950ZM2373 871Q2408 871 2435.5 854.5Q2463 838 2479.5 805.0Q2496 772 2496 725V644Q2496 596 2479.5 563.5Q2463 531 2435.5 514.5Q2408 498 2373 498Q2339 498 2311.5 514.5Q2284 531 2267.5 563.5Q2251 596 2251 644V725Q2251 772 2267.5 805.0Q2284 838 2311.5 854.5Q2339 871 2373 871Z" fill="currentColor" /></svg>