<svg viewBox="0 0 11431 1448" xmlns="http://www.w3.org/2000/svg"><path d="M379 1173Q287 1173 214.5 1128.0Q142 1083 100.0 998.5Q58 914 58 794Q58 676 100.5 591.0Q143 506 216.5 460.0Q290 414 383 414Q448 414 500.5 440.0Q553 466 584 504L534 561Q505 530 467.5 512.5Q430 495 384 495Q316 495 264.0 531.0Q212 567 183.0 633.5Q154 700 154 791Q154 883 182.0 951.0Q210 1019 262.0 1055.5Q314 1092 385 1092Q437 1092 477.5 1072.0Q518 1052 553 1015L601 1068Q557 1118 503.5 1145.5Q450 1173 379 1173ZM730 1160V364H822V581L818 693Q857 656 900.0 630.0Q943 604 999 604Q1085 604 1125.0 658.0Q1165 712 1165 816V1160H1073V828Q1073 751 1048.5 717.0Q1024 683 970 683Q928 683 895.5 704.5Q863 726 822 767V1160ZM1549 1173Q1483 1173 1425.5 1139.5Q1368 1106 1333.0 1042.5Q1298 979 1298 890Q1298 798 1333.0 734.5Q1368 671 1425.5 637.5Q1483 604 1549 604Q1616 604 1673.0 637.5Q1730 671 1765.5 734.5Q1801 798 1801 890Q1801 979 1765.5 1042.5Q1730 1106 1673.0 1139.5Q1616 1173 1549 1173ZM1549 1097Q1620 1097 1663.0 1040.0Q1706 983 1706 890Q1706 795 1663.0 737.5Q1620 680 1549 680Q1503 680 1468.0 706.0Q1433 732 1413.0 779.5Q1393 827 1393 890Q1393 952 1413.0 998.5Q1433 1045 1468.0 1071.0Q1503 1097 1549 1097ZM2160 1173Q2088 1173 2030.0 1140.0Q1972 1107 1938.0 1043.5Q1904 980 1904 890Q1904 798 1940.5 734.5Q1977 671 2036.5 637.5Q2096 604 2165 604Q2219 604 2257.5 621.5Q2296 639 2324 667L2278 723Q2257 703 2230.5 691.5Q2204 680 2169 680Q2121 680 2082.5 706.0Q2044 732 2021.5 779.5Q1999 827 1999 890Q1999 952 2020.0 998.5Q2041 1045 2079.5 1071.0Q2118 1097 2168 1097Q2205 1097 2237.5 1082.5Q2270 1068 2294 1046L2334 1102Q2300 1134 2256.0 1153.5Q2212 1173 2160 1173ZM2643 1173Q2577 1173 2519.5 1139.5Q2462 1106 2427.0 1042.5Q2392 979 2392 890Q2392 798 2427.0 734.5Q2462 671 2519.5 637.5Q2577 604 2643 604Q2710 604 2767.0 637.5Q2824 671 2859.5 734.5Q2895 798 2895 890Q2895 979 2859.5 1042.5Q2824 1106 2767.0 1139.5Q2710 1173 2643 1173ZM2643 1097Q2714 1097 2757.0 1040.0Q2800 983 2800 890Q2800 795 2757.0 737.5Q2714 680 2643 680Q2597 680 2562.0 706.0Q2527 732 2507.0 779.5Q2487 827 2487 890Q2487 952 2507.0 998.5Q2527 1045 2562.0 1071.0Q2597 1097 2643 1097ZM3136 1170Q3084 1170 3061.5 1138.0Q3039 1106 3039 1048V364H3131V1055Q3131 1077 3139.0 1085.5Q3147 1094 3157 1094Q3162 1094 3165.5 1093.5Q3169 1093 3176 1092L3189 1161Q3170 1170 3136 1170ZM3450 1173Q3382 1173 3336.0 1133.0Q3290 1093 3290 1019Q3290 927 3370.5 880.5Q3451 834 3625 815Q3625 781 3615.0 750.5Q3605 720 3581.0 700.5Q3557 681 3512 681Q3466 681 3424.0 699.0Q3382 717 3350 737L3315 674Q3353 648 3408.0 626.0Q3463 604 3528 604Q3627 604 3672.0 665.0Q3717 726 3717 827V1160H3641L3633 1095H3630Q3590 1128 3545.5 1150.5Q3501 1173 3450 1173ZM3475 1097Q3515 1097 3550.5 1079.5Q3586 1062 3625 1027V881Q3534 891 3480.5 909.0Q3427 927 3404.0 952.5Q3381 978 3381 1014Q3381 1059 3408.5 1078.0Q3436 1097 3475 1097ZM4045 1170Q3958 1170 3923.5 1120.0Q3889 1070 3889 989V692H3809V623L3894 617L3905 443H3982V617H4129V692H3982V991Q3982 1040 4000.5 1067.5Q4019 1095 4066 1095Q4080 1095 4095.5 1092.0Q4111 1089 4127 1082L4146 1147Q4124 1157 4098.5 1163.5Q4073 1170 4045 1170ZM4457 1173Q4384 1173 4325.0 1139.0Q4266 1105 4231.0 1041.5Q4196 978 4196 888Q4196 800 4231.5 736.5Q4267 673 4323.5 638.5Q4380 604 4442 604Q4546 604 4601.5 673.0Q4657 742 4657 858Q4657 872 4656.0 885.5Q4655 899 4653 913H4290Q4297 1005 4348.5 1052.0Q4400 1099 4469 1099Q4507 1099 4541.5 1087.5Q4576 1076 4604 1057L4637 1118Q4601 1142 4557.0 1157.5Q4513 1173 4457 1173ZM4292 840H4575Q4575 761 4540.5 719.5Q4506 678 4443 678Q4410 678 4378.0 694.5Q4346 711 4322.5 746.5Q4299 782 4292 840ZM5301 1173Q5209 1173 5136.5 1128.0Q5064 1083 5022.0 998.5Q4980 914 4980 794Q4980 676 5022.5 591.0Q5065 506 5138.5 460.0Q5212 414 5305 414Q5370 414 5422.5 440.0Q5475 466 5506 504L5456 561Q5427 530 5389.5 512.5Q5352 495 5306 495Q5238 495 5186.0 531.0Q5134 567 5105.0 633.5Q5076 700 5076 791Q5076 883 5104.0 951.0Q5132 1019 5184.0 1055.5Q5236 1092 5307 1092Q5359 1092 5399.5 1072.0Q5440 1052 5475 1015L5523 1068Q5479 1118 5425.5 1145.5Q5372 1173 5301 1173ZM5749 1170Q5697 1170 5674.5 1138.0Q5652 1106 5652 1048V364H5744V1055Q5744 1077 5752.0 1085.5Q5760 1094 5770 1094Q5775 1094 5778.5 1093.5Q5782 1093 5789 1092L5802 1161Q5783 1170 5749 1170ZM6063 1173Q5995 1173 5949.0 1133.0Q5903 1093 5903 1019Q5903 927 5983.5 880.5Q6064 834 6238 815Q6238 781 6228.0 750.5Q6218 720 6194.0 700.5Q6170 681 6125 681Q6079 681 6037.0 699.0Q5995 717 5963 737L5928 674Q5966 648 6021.0 626.0Q6076 604 6141 604Q6240 604 6285.0 665.0Q6330 726 6330 827V1160H6254L6246 1095H6243Q6203 1128 6158.5 1150.5Q6114 1173 6063 1173ZM6088 1097Q6128 1097 6163.5 1079.5Q6199 1062 6238 1027V881Q6147 891 6093.5 909.0Q6040 927 6017.0 952.5Q5994 978 5994 1014Q5994 1059 6021.5 1078.0Q6049 1097 6088 1097ZM6642 1173Q6583 1173 6530.5 1152.5Q6478 1132 6440 1095L6482 1042Q6517 1071 6556.5 1086.5Q6596 1102 6646 1102Q6699 1102 6726.0 1077.0Q6753 1052 6753 1017Q6753 989 6735.0 970.5Q6717 952 6689.0 939.0Q6661 926 6630 915Q6589 900 6552.5 880.5Q6516 861 6493.0 831.5Q6470 802 6470 758Q6470 693 6519.5 648.5Q6569 604 6658 604Q6708 604 6751.5 621.0Q6795 638 6827 665L6784 718Q6756 698 6725.5 686.5Q6695 675 6658 675Q6607 675 6582.5 698.5Q6558 722 6558 753Q6558 790 6590.5 809.5Q6623 829 6674 846Q6716 861 6754.5 880.5Q6793 900 6817.0 931.0Q6841 962 6841 1011Q6841 1055 6818.0 1092.0Q6795 1129 6751.0 1151.0Q6707 1173 6642 1173ZM7110 1173Q7051 1173 6998.5 1152.5Q6946 1132 6908 1095L6950 1042Q6985 1071 7024.5 1086.5Q7064 1102 7114 1102Q7167 1102 7194.0 1077.0Q7221 1052 7221 1017Q7221 989 7203.0 970.5Q7185 952 7157.0 939.0Q7129 926 7098 915Q7057 900 7020.5 880.5Q6984 861 6961.0 831.5Q6938 802 6938 758Q6938 693 6987.5 648.5Q7037 604 7126 604Q7176 604 7219.5 621.0Q7263 638 7295 665L7252 718Q7224 698 7193.5 686.5Q7163 675 7126 675Q7075 675 7050.5 698.5Q7026 722 7026 753Q7026 790 7058.5 809.5Q7091 829 7142 846Q7184 861 7222.5 880.5Q7261 900 7285.0 931.0Q7309 962 7309 1011Q7309 1055 7286.0 1092.0Q7263 1129 7219.0 1151.0Q7175 1173 7110 1173ZM7437 1160V617H7528V1160ZM7482 505Q7456 505 7438.5 489.0Q7421 473 7421 445Q7421 418 7438.5 401.5Q7456 385 7482 385Q7509 385 7526.5 401.5Q7544 418 7544 445Q7544 473 7526.5 489.0Q7509 505 7482 505ZM7927 1173Q7855 1173 7797.0 1140.0Q7739 1107 7705.0 1043.5Q7671 980 7671 890Q7671 798 7707.5 734.5Q7744 671 7803.5 637.5Q7863 604 7932 604Q7986 604 8024.5 621.5Q8063 639 8091 667L8045 723Q8024 703 7997.5 691.5Q7971 680 7936 680Q7888 680 7849.5 706.0Q7811 732 7788.5 779.5Q7766 827 7766 890Q7766 952 7787.0 998.5Q7808 1045 7846.5 1071.0Q7885 1097 7935 1097Q7972 1097 8004.5 1082.5Q8037 1068 8061 1046L8101 1102Q8067 1134 8023.0 1153.5Q7979 1173 7927 1173ZM8336 1173Q8268 1173 8222.0 1133.0Q8176 1093 8176 1019Q8176 927 8256.5 880.5Q8337 834 8511 815Q8511 781 8501.0 750.5Q8491 720 8467.0 700.5Q8443 681 8398 681Q8352 681 8310.0 699.0Q8268 717 8236 737L8201 674Q8239 648 8294.0 626.0Q8349 604 8414 604Q8513 604 8558.0 665.0Q8603 726 8603 827V1160H8527L8519 1095H8516Q8476 1128 8431.5 1150.5Q8387 1173 8336 1173ZM8361 1097Q8401 1097 8436.5 1079.5Q8472 1062 8511 1027V881Q8420 891 8366.5 909.0Q8313 927 8290.0 952.5Q8267 978 8267 1014Q8267 1059 8294.5 1078.0Q8322 1097 8361 1097ZM8871 1170Q8819 1170 8796.5 1138.0Q8774 1106 8774 1048V364H8866V1055Q8866 1077 8874.0 1085.5Q8882 1094 8892 1094Q8897 1094 8900.5 1093.5Q8904 1093 8911 1092L8924 1161Q8905 1170 8871 1170ZM9495 1173Q9416 1173 9351.0 1144.0Q9286 1115 9238 1064L9291 1004Q9330 1044 9384.0 1068.0Q9438 1092 9496 1092Q9568 1092 9608.5 1059.0Q9649 1026 9649 972Q9649 934 9633.0 911.5Q9617 889 9589.5 873.5Q9562 858 9527 843L9422 797Q9387 782 9353.0 758.0Q9319 734 9296.5 697.5Q9274 661 9274 608Q9274 552 9303.5 508.0Q9333 464 9385.0 439.0Q9437 414 9504 414Q9571 414 9626.5 438.5Q9682 463 9721 502L9670 562Q9636 532 9594.5 513.5Q9553 495 9504 495Q9443 495 9405.5 524.0Q9368 553 9368 602Q9368 637 9386.0 660.0Q9404 683 9432.0 697.5Q9460 712 9489 724L9593 769Q9637 787 9671.0 812.0Q9705 837 9724.5 873.5Q9744 910 9744 964Q9744 1022 9714.0 1069.5Q9684 1117 9628.5 1145.0Q9573 1173 9495 1173ZM10005 1173Q9937 1173 9891.0 1133.0Q9845 1093 9845 1019Q9845 927 9925.5 880.5Q10006 834 10180 815Q10180 781 10170.0 750.5Q10160 720 10136.0 700.5Q10112 681 10067 681Q10021 681 9979.0 699.0Q9937 717 9905 737L9870 674Q9908 648 9963.0 626.0Q10018 604 10083 604Q10182 604 10227.0 665.0Q10272 726 10272 827V1160H10196L10188 1095H10185Q10145 1128 10100.5 1150.5Q10056 1173 10005 1173ZM10030 1097Q10070 1097 10105.5 1079.5Q10141 1062 10180 1027V881Q10089 891 10035.5 909.0Q9982 927 9959.0 952.5Q9936 978 9936 1014Q9936 1059 9963.5 1078.0Q9991 1097 10030 1097ZM10443 1160V617H10519L10527 695H10530Q10569 657 10612.5 630.5Q10656 604 10712 604Q10798 604 10838.0 658.0Q10878 712 10878 816V1160H10786V828Q10786 751 10761.5 717.0Q10737 683 10683 683Q10641 683 10608.5 704.5Q10576 726 10535 767V1160ZM11196 1173Q11137 1173 11084.5 1152.5Q11032 1132 10994 1095L11036 1042Q11071 1071 11110.5 1086.5Q11150 1102 11200 1102Q11253 1102 11280.0 1077.0Q11307 1052 11307 1017Q11307 989 11289.0 970.5Q11271 952 11243.0 939.0Q11215 926 11184 915Q11143 900 11106.5 880.5Q11070 861 11047.0 831.5Q11024 802 11024 758Q11024 693 11073.5 648.5Q11123 604 11212 604Q11262 604 11305.5 621.0Q11349 638 11381 665L11338 718Q11310 698 11279.5 686.5Q11249 675 11212 675Q11161 675 11136.5 698.5Q11112 722 11112 753Q11112 790 11144.5 809.5Q11177 829 11228 846Q11270 861 11308.5 880.5Q11347 900 11371.0 931.0Q11395 962 11395 1011Q11395 1055 11372.0 1092.0Q11349 1129 11305.0 1151.0Q11261 1173 11196 1173Z" fill="currentColor" /></svg>