<svg viewBox="0 0 10555 1348" xmlns="http://www.w3.org/2000/svg"><path d="M797 625Q797 797 704.5 893.5Q612 990 443 990Q329 990 237.5 942.0Q146 894 95.5 811.0Q45 728 45.0 625.5Q45 523 95.0 440.0Q145 357 233.0 309.5Q321 262 429 262Q497 262 567.5 280.5Q638 299 685 330L705 471H696Q675 387 599.0 339.5Q523 292 430 292Q297 292 208.5 386.5Q120 481 120.0 624.0Q120 767 211.5 863.5Q303 960 451.0 960.0Q599 960 692.5 864.0Q786 768 786 601H796Q797 613 797 625ZM894 966Q920 966 938.5 947.5Q957 929 958 903V348Q957 322 938.5 304.0Q920 286 894 286H881V276H1100V286H1087Q1061 286 1042.5 304.0Q1024 322 1023 348V903Q1023 929 1042.0 947.5Q1061 966 1087 966H1100V976H881V966ZM1937 286Q1912 286 1894.0 303.5Q1876 321 1875 346V862Q1875 920 1882 972L1884 990H1875L1330 408V906Q1330 931 1348.0 948.5Q1366 966 1391 966H1410V976H1204V966H1223Q1248 966 1266.0 948.5Q1284 931 1284 905V386Q1284 325 1277 277L1275 261H1285L1830 843V347Q1829 321 1811.0 303.5Q1793 286 1768 286H1749V276H1955V286ZM2084 365V383H2074V257Q2089 263 2127.0 269.0Q2165 275 2179.5 275.0Q2194 275 2195 275H2474Q2523 275 2549.0 269.5Q2575 264 2580 262V271L2152 946H2470Q2523 946 2557.5 912.0Q2592 878 2607 822H2617L2584 976H2060V967L2480 305H2143Q2118 306 2101.0 323.0Q2084 340 2084 365ZM2724 966Q2750 966 2768.5 947.5Q2787 929 2788 903V343Q2788 319 2769.0 302.5Q2750 286 2724 286H2712L2711 276H3004Q3035 276 3071.5 270.0Q3108 264 3123 258V384H3113V366Q3113 342 3096.5 325.0Q3080 308 3057 307H2853V616H3022Q3042 615 3056.0 601.0Q3070 587 3070 566V552H3080V710H3070V695Q3070 675 3056.5 661.0Q3043 647 3023 646H2853V945H2996Q3070 945 3109.0 912.0Q3148 879 3174 814H3184L3126 976H2711V966ZM3291 966Q3317 966 3335.5 947.5Q3354 929 3355 903V349Q3354 323 3335.5 304.5Q3317 286 3291 286H3278V276H3497V286H3484Q3448 286 3429 317Q3420 332 3420 349V945H3563Q3637 945 3676.0 912.0Q3715 879 3741 814H3751L3693 976H3278V966ZM3930 422Q3959 337 4027.0 305.0Q4095 273 4268 273Q4304 273 4450 276Q4556 279 4637.0 322.0Q4718 365 4763.5 443.5Q4809 522 4809 626Q4809 783 4709.5 879.5Q4610 976 4450 976H4111L4112 966H4124Q4149 966 4167.0 949.5Q4185 933 4188 909V306Q4063 309 4011 345Q3984 364 3970.0 381.5Q3956 399 3941 426ZM4253 306V946H4450Q4577 946 4655.5 858.0Q4734 770 4734 626Q4734 531 4698.5 458.5Q4663 386 4598.5 346.0Q4534 306 4450 306ZM4921 966Q4947 966 4965.5 947.5Q4984 929 4985 903V343Q4985 319 4966.0 302.5Q4947 286 4921 286H4909L4908 276H5201Q5232 276 5268.5 270.0Q5305 264 5320 258V384H5310V366Q5310 342 5293.5 325.0Q5277 308 5254 307H5050V616H5219Q5239 615 5253.0 601.0Q5267 587 5267 566V552H5277V710H5267V695Q5267 675 5253.5 661.0Q5240 647 5220 646H5050V945H5193Q5267 945 5306.0 912.0Q5345 879 5371 814H5381L5323 976H4908V966ZM5828 262Q5962 262 6065 330L6085 471H6076Q6054 385 5987.0 338.5Q5920 292 5828 292Q5697 292 5618.5 383.0Q5540 474 5540.0 624.0Q5540 774 5617.5 865.5Q5695 957 5822 960Q5934 960 6009 899Q6090 833 6107 684H6115L6103 841Q6012 990 5822 990Q5664 989 5564.5 889.0Q5465 789 5465.0 625.5Q5465 462 5564.5 362.0Q5664 262 5828 262ZM6312.0 362.5Q6419 262 6589.5 262.0Q6760 262 6867.0 362.5Q6974 463 6974.0 626.0Q6974 789 6867.0 889.5Q6760 990 6589.5 990.0Q6419 990 6312.0 889.5Q6205 789 6205.0 626.0Q6205 463 6312.0 362.5ZM6366.5 868.0Q6451 960 6589.0 960.0Q6727 960 6811.5 868.0Q6896 776 6896.0 626.0Q6896 476 6811.5 384.0Q6727 292 6589.0 292.0Q6451 292 6366.5 384.0Q6282 476 6282.0 626.0Q6282 776 6366.5 868.0ZM7259 307H7195V903Q7195 929 7213.5 947.5Q7232 966 7259 966H7271L7272 976H7053V966H7066Q7092 966 7110.5 948.0Q7129 930 7130 904V349Q7129 323 7110.5 304.5Q7092 286 7066 286H7053V276H7323Q7414 276 7466.0 326.5Q7518 377 7518.0 457.5Q7518 538 7468.5 596.5Q7419 655 7348 655Q7363 662 7383.5 682.5Q7404 703 7420 725Q7506 848 7532.0 876.5Q7558 905 7569.0 915.5Q7580 926 7593.0 936.0Q7606 946 7619 952Q7648 966 7681 966V976H7626Q7583 976 7546.0 960.5Q7509 945 7490.5 928.5Q7472 912 7458.5 896.5Q7445 881 7384.0 793.0Q7323 705 7313.0 692.5Q7303 680 7292 668Q7260 634 7228 634V624Q7236 625 7249.0 625.0Q7262 625 7281 624Q7405 621 7437 520Q7443 500 7443.0 482.5Q7443 465 7443 460Q7441 393 7408.0 352.0Q7375 311 7319 308Q7295 307 7259 307ZM8356 966H8364V976H8139V966H8148Q8169 966 8179.5 952.5Q8190 939 8190.0 927.0Q8190 915 8186 903L8122 733H7852L7785 904Q7781 916 7781.0 927.5Q7781 939 7791.5 952.5Q7802 966 7823 966H7832V976H7631V966H7640Q7665 966 7689.0 950.0Q7713 934 7728 903L7954 365Q7991 284 7991 262H8000L8268 903Q8282 934 8306.0 950.0Q8330 966 8356 966ZM7864 703H8110L7990 382ZM8871 365Q8871 341 8854.0 323.5Q8837 306 8814 305H8624V904Q8625 930 8643.5 948.0Q8662 966 8688 966H8701V976H8482V966H8495Q8521 966 8539.5 948.0Q8558 930 8559 905V305H8369Q8345 306 8328.5 323.5Q8312 341 8312 365V382L8302 383V257Q8317 263 8354.0 269.0Q8391 275 8422 275H8760Q8809 275 8841.5 267.5Q8874 260 8881 257V383L8871 382ZM8973 966Q8999 966 9017.5 947.5Q9036 929 9037 903V348Q9036 322 9017.5 304.0Q8999 286 8973 286H8960V276H9179V286H9166Q9140 286 9121.5 304.0Q9103 322 9102 348V903Q9102 929 9121.0 947.5Q9140 966 9166 966H9179V976H8960V966ZM9788 276H9989V286H9980Q9955 286 9931.0 301.5Q9907 317 9893 348L9652 887Q9615 968 9615 990H9606L9325 349Q9311 317 9286.5 301.5Q9262 286 9237 286H9229V276H9454V286H9445Q9424 286 9413.5 299.5Q9403 313 9403.0 324.5Q9403 336 9408 348L9617 872L9835 348Q9839 336 9839.0 324.5Q9839 313 9828.5 299.5Q9818 286 9797 286H9788ZM10051 966Q10077 966 10095.5 947.5Q10114 929 10115 903V343Q10115 319 10096.0 302.5Q10077 286 10051 286H10039L10038 276H10331Q10362 276 10398.5 270.0Q10435 264 10450 258V384H10440V366Q10440 342 10423.5 325.0Q10407 308 10384 307H10180V616H10349Q10369 615 10383.0 601.0Q10397 587 10397 566V552H10407V710H10397V695Q10397 675 10383.5 661.0Q10370 647 10350 646H10180V945H10323Q10397 945 10436.0 912.0Q10475 879 10501 814H10511L10453 976H10038V966Z" fill="currentColor" /></svg>