<svg viewBox="0 0 2838 902" xmlns="http://www.w3.org/2000/svg"><path d="M422 195Q422 174 404.5 159.0Q387 144 363 144Q315 144 284.0 198.5Q253 253 253 322Q253 375 273.0 417.5Q293 460 331.0 485.0Q369 510 419 510Q456 510 490.0 495.5Q524 481 545.0 463.5Q566 446 588.5 431.5Q611 417 628 417Q650 417 666.0 434.5Q682 452 682 471Q682 492 669.5 520.0Q657 548 630.0 579.5Q603 611 567.0 637.5Q531 664 477.5 681.5Q424 699 365 699Q287 699 220.5 675.5Q154 652 105.0 608.5Q56 565 28.0 499.0Q0 433 0 351Q0 189 97.0 95.0Q194 1 351 1Q431 1 499.0 28.0Q567 55 607.0 103.0Q647 151 647 208Q647 274 603.0 327.5Q559 381 489 381Q449 381 417.0 359.0Q385 337 385 296Q385 277 403.5 243.0Q422 209 422 195ZM1091 455Q1091 403 1078.0 363.5Q1065 324 1040 324Q1023 324 1010.0 344.0Q997 364 991.0 393.0Q985 422 985 455Q985 506 999.0 544.5Q1013 583 1039.0 583.0Q1065 583 1078.0 545.0Q1091 507 1091 455ZM1039 699Q961 699 898.5 671.0Q836 643 798.5 587.0Q761 531 761 456Q761 342 839.0 275.0Q917 208 1039.0 208.0Q1161 208 1238.0 275.0Q1315 342 1315 456Q1315 569 1236.5 634.0Q1158 699 1039 699ZM1396 76Q1396 43 1424.5 21.5Q1453 0 1505 0Q1614 0 1614 76Q1614 118 1586.5 135.0Q1559 152 1505 152Q1458 152 1427.0 134.0Q1396 116 1396 76ZM1613 585Q1613 645 1588.0 668.5Q1563 692 1500 692Q1441 692 1419.5 664.5Q1398 637 1398 574V328Q1398 277 1425.5 246.0Q1453 215 1499 215Q1553 215 1583.0 238.5Q1613 262 1613 325ZM2011 423Q2011 367 1967 367Q1946 367 1932.5 384.5Q1919 402 1917 431V585Q1917 646 1892.0 669.0Q1867 692 1804 692Q1745 692 1723.5 664.5Q1702 637 1702 574V328Q1702 277 1729.5 246.0Q1757 215 1803 215Q1841 215 1867.0 226.0Q1893 237 1906 264Q1984 213 2096 213Q2167 213 2198.5 269.0Q2230 325 2230 453Q2230 516 2227.0 555.5Q2224 595 2217.5 623.5Q2211 652 2197.0 666.0Q2183 680 2164.5 686.0Q2146 692 2117 692Q2061 692 2036.5 671.0Q2012 650 2012 609ZM2838 410Q2838 581 2828 649Q2820 710 2803.0 754.5Q2786 799 2755.0 833.5Q2724 868 2676.0 885.0Q2628 902 2562 902Q2509 902 2463.5 886.5Q2418 871 2391.5 848.5Q2365 826 2350.0 804.0Q2335 782 2335.0 766.0Q2335 750 2345.5 736.5Q2356 723 2374 723Q2387 723 2404.5 731.0Q2422 739 2438.0 749.0Q2454 759 2476.0 767.0Q2498 775 2519 775Q2573 775 2595.5 748.0Q2618 721 2618 671Q2601 678 2585.0 683.0Q2569 688 2554.0 691.0Q2539 694 2525.5 695.0Q2512 696 2499 696Q2440 696 2398.0 663.0Q2356 630 2337.5 581.5Q2319 533 2319 477Q2319 421 2320.5 382.0Q2322 343 2327.0 312.5Q2332 282 2338.5 264.0Q2345 246 2357.0 234.5Q2369 223 2384.0 219.0Q2399 215 2420 215Q2483 215 2508.5 236.5Q2534 258 2534 304L2535 465Q2535 481 2535.0 488.5Q2535 496 2536.5 507.0Q2538 518 2540.5 523.0Q2543 528 2547.5 533.5Q2552 539 2559.5 541.0Q2567 543 2578 543Q2608 543 2615.5 526.5Q2623 510 2623 466L2624 304Q2624 273 2634.5 254.0Q2645 235 2670.0 225.0Q2695 215 2738 215Q2764 215 2782.5 223.5Q2801 232 2812.0 245.5Q2823 259 2828.5 285.5Q2834 312 2836.0 339.0Q2838 366 2838 410Z" /></svg>