<svg viewBox="0 0 2422 765" xmlns="http://www.w3.org/2000/svg"><path d="M360 576Q346 618 329.0 652.5Q312 687 291.5 712.0Q271 737 248.5 751.0Q226 765 202 765Q160 765 123.0 724.0Q86 683 59.0 616.0Q32 549 16.0 463.5Q0 378 0 288Q0 215 16.0 171.0Q32 127 59.5 103.5Q87 80 124.0 72.5Q161 65 202 65Q241 65 275.5 71.5Q310 78 337.0 97.5Q364 117 381.0 153.0Q398 189 403 249L317 273Q316 218 306.5 184.5Q297 151 281.5 133.5Q266 116 245.5 110.5Q225 105 202 105Q179 105 158.0 111.0Q137 117 121.5 136.0Q106 155 97.0 191.0Q88 227 88 288Q88 371 96.5 449.5Q105 528 120.5 589.5Q136 651 157.0 688.0Q178 725 202 725Q230 725 252.5 679.5Q275 634 291 562ZM665 724Q684 724 701.0 696.0Q718 668 730.0 622.0Q742 576 749.0 517.0Q756 458 756 397Q756 354 749.0 327.5Q742 301 729.5 286.5Q717 272 700.5 267.5Q684 263 665 263Q646 263 629.5 267.5Q613 272 600.5 286.5Q588 301 581.0 327.5Q574 354 574 397Q574 458 581.0 517.0Q588 576 600.0 622.0Q612 668 628.5 696.0Q645 724 665 724ZM665 765Q629 765 597.5 733.0Q566 701 542.5 649.0Q519 597 506.0 531.0Q493 465 493 397Q493 340 506.5 306.0Q520 272 543.5 253.0Q567 234 598.5 228.0Q630 222 665 222Q700 222 731.5 228.0Q763 234 786.5 253.0Q810 272 823.5 306.0Q837 340 837 397Q837 465 824.0 531.0Q811 597 787.5 649.0Q764 701 732.5 733.0Q701 765 665 765ZM1359 261Q1339 261 1324.5 301.0Q1310 341 1299.0 408.5Q1288 476 1281.0 564.5Q1274 653 1271 750H1200Q1203 672 1203 598Q1203 527 1200.0 465.5Q1197 404 1190.0 358.5Q1183 313 1172.0 287.0Q1161 261 1146 261Q1126 261 1108.0 301.0Q1090 341 1075.5 408.5Q1061 476 1051.0 564.5Q1041 653 1038 750H957L967 234H1003L1022 521Q1029 455 1040.0 400.0Q1051 345 1066.5 304.5Q1082 264 1102.0 241.5Q1122 219 1148 219Q1171 219 1188.0 237.5Q1205 256 1216.5 289.0Q1228 322 1235.0 368.0Q1242 414 1245 469Q1252 414 1262.5 368.0Q1273 322 1287.0 289.0Q1301 256 1319.5 237.5Q1338 219 1361 219Q1395 219 1423.0 257.0Q1451 295 1471.5 359.5Q1492 424 1503.5 510.5Q1515 597 1515 694Q1515 708 1515.0 722.0Q1515 736 1514 750H1433Q1434 727 1434.0 705.5Q1434 684 1434 662Q1434 580 1428.5 507.0Q1423 434 1413.5 379.0Q1404 324 1390.0 292.5Q1376 261 1359 261ZM1644 0H1695L1701 340Q1718 287 1743.5 254.5Q1769 222 1806 222Q1842 222 1873.5 254.0Q1905 286 1928.5 338.0Q1952 390 1965.0 456.0Q1978 522 1978 590Q1978 647 1964.5 681.0Q1951 715 1927.5 734.0Q1904 753 1872.5 759.0Q1841 765 1806 765Q1771 765 1739.5 759.0Q1708 753 1684.5 734.0Q1661 715 1647.5 681.0Q1634 647 1634 590ZM1806 263Q1786 263 1769.0 291.0Q1752 319 1738.5 365.0Q1725 411 1717.5 470.0Q1710 529 1710 590Q1710 634 1718.0 660.0Q1726 686 1739.5 700.5Q1753 715 1770.0 719.5Q1787 724 1806 724Q1825 724 1841.5 719.5Q1858 715 1870.5 700.5Q1883 686 1890.0 660.0Q1897 634 1897 590Q1897 529 1890.0 470.0Q1883 411 1871.0 365.0Q1859 319 1842.0 291.0Q1825 263 1806 263ZM2250 724Q2269 724 2286.0 696.0Q2303 668 2315.0 622.0Q2327 576 2334.0 517.0Q2341 458 2341 397Q2341 354 2334.0 327.5Q2327 301 2314.5 286.5Q2302 272 2285.5 267.5Q2269 263 2250 263Q2231 263 2214.5 267.5Q2198 272 2185.5 286.5Q2173 301 2166.0 327.5Q2159 354 2159 397Q2159 458 2166.0 517.0Q2173 576 2185.0 622.0Q2197 668 2213.5 696.0Q2230 724 2250 724ZM2250 765Q2214 765 2182.5 733.0Q2151 701 2127.5 649.0Q2104 597 2091.0 531.0Q2078 465 2078 397Q2078 340 2091.5 306.0Q2105 272 2128.5 253.0Q2152 234 2183.5 228.0Q2215 222 2250 222Q2285 222 2316.5 228.0Q2348 234 2371.5 253.0Q2395 272 2408.5 306.0Q2422 340 2422 397Q2422 465 2409.0 531.0Q2396 597 2372.5 649.0Q2349 701 2317.5 733.0Q2286 765 2250 765Z" fill="currentColor" /></svg>