<svg viewBox="0 0 5760 1410" xmlns="http://www.w3.org/2000/svg"><path d="M1884 1434Q1874 1433 1864.0 1431.0Q1854 1429 1845 1429Q1845 1427 1842 1427Q1839 1428 1827.5 1422.0Q1816 1416 1805.5 1407.0Q1795 1398 1794 1393H1791V1388H1786V1386H1789Q1788 1385 1787.5 1383.5Q1787 1382 1786 1381H1782Q1780 1373 1775.5 1366.0Q1771 1359 1772 1351L1770 1350Q1771 1349 1771 1346Q1771 1341 1766.0 1337.0Q1761 1333 1765 1323Q1763 1318 1760.5 1317.0Q1758 1316 1757 1309H1762V1308Q1751 1298 1755.0 1291.5Q1759 1285 1755 1278Q1750 1272 1750 1263L1747 1250Q1749 1248 1750.5 1246.0Q1752 1244 1754 1243H1748L1749 1242Q1749 1239 1750.5 1235.0Q1752 1231 1750 1229V1228H1746V1225Q1746 1220 1745.0 1215.0Q1744 1210 1744 1206H1749V1203Q1747 1199 1747 1197Q1747 1195 1747.5 1193.0Q1748 1191 1749 1189L1743 1184V1181Q1743 1176 1745.0 1172.0Q1747 1168 1747 1164Q1747 1157 1745.0 1151.0Q1743 1145 1743 1138Q1748 1138 1749 1135Q1745 1130 1745.5 1124.0Q1746 1118 1746 1111H1747L1748 1114Q1750 1104 1750 1099Q1748 1099 1748 1096L1746 1099V1089Q1748 1087 1747.5 1083.5Q1747 1080 1748 1078L1754 1075Q1748 1074 1747 1068Q1750 1067 1750 1062Q1750 1057 1748.0 1050.5Q1746 1044 1749 1038L1754 1037Q1754 1032 1751 1029Q1753 1024 1754.5 1016.0Q1756 1008 1757 1004Q1755 1000 1755 994Q1755 983 1758.0 968.5Q1761 954 1760 946L1763 945Q1766 939 1766 936Q1766 931 1764.5 927.0Q1763 923 1764 919L1768 917L1769 898Q1764 896 1767 893L1770 889Q1771 884 1769.5 879.0Q1768 874 1771 870L1775 868Q1773 863 1773.5 857.5Q1774 852 1774 846L1778 844Q1776 840 1776 838Q1776 835 1780 829Q1780 825 1779.5 821.5Q1779 818 1779 815Q1782 815 1782.0 815.5Q1782 816 1783 813Q1782 812 1782 807Q1782 800 1783.5 790.0Q1785 780 1786 779L1789 782Q1790 777 1790.5 775.0Q1791 773 1793 769Q1790 769 1789 767Q1792 766 1791.5 763.0Q1791 760 1792 756Q1795 756 1797 751V750Q1797 748 1795.5 744.5Q1794 741 1794 740H1799V739Q1797 737 1797.5 736.0Q1798 735 1793 735Q1789 737 1775.0 737.5Q1761 738 1756 738L1755 733Q1754 738 1750.0 738.5Q1746 739 1741 739Q1737 742 1725 740Q1724 745 1722.5 749.5Q1721 754 1720 759Q1716 759 1716 759Q1717 760 1717 762Q1717 763 1715.5 765.5Q1714 768 1715 770H1711Q1711 774 1706.5 785.5Q1702 797 1696 799V801Q1696 807 1693.0 810.5Q1690 814 1686 818L1687 822Q1685 827 1677.0 840.0Q1669 853 1660.5 864.0Q1652 875 1647 877L1641 876L1638 879Q1636 880 1632 880Q1628 880 1623.0 879.0Q1618 878 1616 877Q1612 876 1611.0 874.5Q1610 873 1608 872Q1607 873 1605 873Q1601 873 1595.5 869.5Q1590 866 1588 864L1589 863Q1585 863 1583.5 859.0Q1582 855 1578 851L1580 848Q1578 848 1577 847L1580 845Q1570 837 1569.5 822.5Q1569 808 1570 795Q1568 795 1567.5 795.5Q1567 796 1565 795Q1564 794 1563.0 784.5Q1562 775 1561.0 764.0Q1560 753 1558 748H1560Q1560 749 1560.5 750.0Q1561 751 1561 749L1562 748Q1562 748 1559.5 742.0Q1557 736 1557 735L1558 736Q1559 737 1559 733Q1555 729 1555.0 717.0Q1555 705 1553 698Q1552 699 1551.0 699.5Q1550 700 1549 702Q1543 707 1543.0 716.0Q1543 725 1539 732Q1538 734 1537.0 734.5Q1536 735 1535 737Q1537 737 1537 741Q1537 746 1534.0 755.0Q1531 764 1530 767H1526V772Q1526 777 1525.5 782.5Q1525 788 1524 794Q1521 794 1520 795Q1523 795 1524 796Q1523 798 1523 801H1519Q1519 804 1519.5 806.5Q1520 809 1520 812Q1519 813 1517.0 816.0Q1515 819 1513 821Q1515 824 1515 830Q1515 834 1514.5 838.0Q1514 842 1513 847Q1510 847 1510.5 846.5Q1511 846 1509 848Q1512 848 1513 850H1509Q1509 852 1510 853Q1512 854 1509.5 856.0Q1507 858 1507 860Q1506 864 1508.5 867.0Q1511 870 1506 873L1504 875H1508Q1508 879 1508.0 883.0Q1508 887 1506 890Q1502 900 1484 900Q1477 900 1470.5 898.0Q1464 896 1460 895Q1461 893 1460 889Q1459 890 1457 890V888Q1457 886 1456.5 884.0Q1456 882 1456 880Q1458 880 1459 879Q1451 876 1450.5 867.5Q1450 859 1446 853Q1450 853 1451 851Q1451 847 1449 845Q1448 844 1445.0 840.5Q1442 837 1442 831Q1442 827 1445 823L1444 822H1443Q1442 822 1441.5 821.5Q1441 821 1440 821Q1444 819 1444.0 818.0Q1444 817 1444 813L1439 809Q1438 809 1440.0 805.0Q1442 801 1442 800Q1441 792 1439.0 790.5Q1437 789 1436.5 786.0Q1436 783 1437 771L1434 770L1433 746L1437 743V740Q1437 735 1434.0 730.0Q1431 725 1431 719H1436V717L1431 715Q1430 710 1429.5 704.0Q1429 698 1430 692L1432 688L1430 687L1431 666H1428V658Q1433 657 1433 651Q1429 649 1431.0 647.0Q1433 645 1428 641Q1427 648 1424.0 655.5Q1421 663 1420 671H1416Q1418 681 1412.5 693.0Q1407 705 1405 716Q1399 716 1398 723Q1406 725 1398 730Q1400 735 1399 741H1396Q1397 755 1392.5 768.5Q1388 782 1388 796Q1384 797 1383 799Q1387 801 1387.5 807.5Q1388 814 1386 818L1382 819Q1385 820 1385 826Q1385 832 1383.0 839.0Q1381 846 1380 848Q1383 852 1383 857H1379V859Q1383 862 1383 865Q1383 869 1381.0 872.5Q1379 876 1377 879H1382Q1381 881 1381.0 880.0Q1381 879 1380 880Q1382 882 1382.0 885.0Q1382 888 1380 889Q1379 891 1378.5 890.5Q1378 890 1377 893H1382Q1380 897 1380 899Q1380 903 1381.5 907.0Q1383 911 1383 916Q1381 916 1380 917Q1381 917 1381.5 917.5Q1382 918 1383 918H1381Q1384 928 1384 930Q1384 931 1383.5 933.0Q1383 935 1382 941H1386Q1386 955 1391.0 967.0Q1396 979 1397 993L1396 994Q1392 994 1389 991Q1387 993 1385 993Q1381 993 1376.0 989.5Q1371 986 1370 982Q1355 980 1351 965L1354 962Q1352 961 1350.0 960.5Q1348 960 1346 960Q1346 952 1342.0 945.0Q1338 938 1339 930Q1343 930 1344 928Q1335 927 1335 915Q1334 913 1334 909Q1334 906 1334.5 903.0Q1335 900 1335 897Q1335 894 1332.5 882.5Q1330 871 1331 865Q1332 863 1333.5 861.0Q1335 859 1335 856Q1335 852 1331 850Q1329 845 1331.0 843.5Q1333 842 1333 840Q1333 836 1331.5 833.0Q1330 830 1329 826Q1332 820 1332 817Q1332 815 1329 808V806Q1329 801 1330.0 795.5Q1331 790 1332 787Q1332 784 1331.0 782.0Q1330 780 1329 778Q1334 777 1334 773Q1334 771 1332.0 767.5Q1330 764 1329 760Q1332 760 1331.5 759.5Q1331 759 1332 756L1333 755Q1329 753 1329 748Q1331 746 1333 743L1329 742V733Q1329 724 1331 720H1333V717L1331 715Q1330 712 1330.5 709.0Q1331 706 1331 702Q1331 699 1332.0 697.0Q1333 695 1334 692Q1329 683 1331 673L1333 674Q1333 672 1333.5 669.5Q1334 667 1334 665Q1331 665 1331 661L1338 633L1335 630L1332 631V624Q1335 622 1335 617L1337 614Q1333 612 1332.5 609.5Q1332 607 1332 603Q1334 601 1334 595Q1334 589 1333 587Q1335 587 1337 586Q1333 584 1335.0 582.0Q1337 580 1337 576Q1336 568 1334.0 561.0Q1332 554 1332 547Q1332 539 1335 533Q1331 531 1330.5 528.0Q1330 525 1330 522L1321 519L1290 518Q1266 517 1242.5 520.0Q1219 523 1196 528H1194Q1191 528 1188.5 526.5Q1186 525 1183 525L1182 526V530L1152 533L1153 535Q1154 536 1150 536Q1149 535 1145 535V537Q1145 537 1147.0 537.0Q1149 537 1147 538H1145L1142 540Q1144 543 1143.5 543.5Q1143 544 1147 544Q1148 545 1152 545Q1155 545 1158.5 544.5Q1162 544 1164 544Q1165 549 1170 549Q1172 549 1174.5 548.5Q1177 548 1180 548Q1183 548 1187.5 549.0Q1192 550 1197 554Q1199 552 1202 552Q1202 552 1206 554Q1204 554 1203 555Q1205 555 1207.0 555.0Q1209 555 1210 557L1209 559H1211Q1213 558 1215.0 558.5Q1217 559 1218 559L1216 561H1218Q1220 559 1224.0 564.5Q1228 570 1230 572Q1232 573 1232.0 571.5Q1232 570 1234 572Q1236 573 1241.5 582.0Q1247 591 1247 593Q1247 594 1246.0 597.5Q1245 601 1245 603H1246L1249 601Q1249 607 1249.5 613.0Q1250 619 1250 625Q1246 626 1245 630Q1250 636 1244.5 653.0Q1239 670 1238 678Q1234 678 1233 679Q1236 680 1237 681Q1233 683 1233 683V685Q1233 694 1228 699Q1223 704 1223 706Q1223 711 1214.0 727.0Q1205 743 1197 751L1198 752Q1197 756 1195.0 756.5Q1193 757 1190 760Q1189 761 1189 763Q1189 770 1186.0 771.0Q1183 772 1180 774L1182 778Q1181 780 1179.0 782.0Q1177 784 1176 786Q1169 786 1170.5 790.0Q1172 794 1164 794Q1164 799 1164 799Q1161 804 1150.0 817.0Q1139 830 1133 829Q1133 831 1133.5 832.0Q1134 833 1131 834Q1131 833 1131 833L1128 834Q1130 837 1129 838Q1127 841 1124.0 842.0Q1121 843 1119 845L1121 847Q1115 847 1112 850Q1115 852 1112.5 852.5Q1110 853 1108 853L1107 854Q1107 855 1108.0 856.0Q1109 857 1108 858Q1105 861 1101.0 865.0Q1097 869 1092 866L1093 870Q1086 876 1068.0 888.0Q1050 900 1041 902Q1040 901 1039 901Q1026 911 1008.5 915.5Q991 920 976 925Q973 926 969.5 925.0Q966 924 962 926Q959 927 952 927Q944 927 935.5 925.5Q927 924 919 924Q919 921 914 921H909Q908 921 905.5 920.5Q903 920 901 919Q900 917 900.5 916.0Q901 915 897 914L894 916Q891 916 889.5 913.0Q888 910 886 909H877Q873 907 861.5 899.5Q850 892 849 888H845Q844 885 843.0 884.0Q842 883 842 879L835 878Q835 874 830 873V870Q826 868 823.5 864.5Q821 861 818 858Q819 856 823 852Q820 851 821.0 850.5Q822 850 819 850Q819 850 817 850Q817 853 816 854V852Q814 850 810 845Q804 849 801 850H794L793 855Q788 859 780.0 860.5Q772 862 766 866L762 872L758 870V873Q753 878 745 878V879Q747 880 743 880Q735 886 726 886V889Q720 891 717 891L718 892Q719 893 716 893L715 892Q715 895 706.0 898.5Q697 902 687.5 904.5Q678 907 674 908V909Q675 910 676.0 910.0Q677 910 677 911Q667 912 661.5 916.0Q656 920 648 922Q644 923 642.0 922.0Q640 921 637 922Q630 926 630.5 928.5Q631 931 613 932Q611 933 609.5 935.5Q608 938 605 938H604Q601 938 600.5 937.0Q600 936 595 940L598 941Q587 942 575.0 948.0Q563 954 553 953Q552 955 550 955Q549 956 536.0 959.5Q523 963 509.5 967.0Q496 971 492 973Q486 975 479 973Q475 976 465.5 978.5Q456 981 450 980Q450 982 445 982Q442 985 437 985Q433 985 430.0 983.5Q427 982 425 983L421 989Q418 990 406.0 990.5Q394 991 389 990L388 989L387 993Q383 995 372.5 995.5Q362 996 357 996H354Q350 996 347.5 994.0Q345 992 343 993L340 998Q337 999 328.5 998.0Q320 997 315 998Q315 995 314 993V998Q310 997 306 998Q306 995 306 995Q302 999 291 999Q279 999 265.0 995.5Q251 992 243 990V992L246 993H239Q235 990 232.5 990.5Q230 991 227 990L223 986Q217 988 216 988Q212 988 206 982Q197 983 186.5 978.0Q176 973 171 967Q168 966 162.0 964.5Q156 963 154 962L157 961Q148 960 135.5 949.5Q123 939 111.5 926.0Q100 913 95 906Q92 901 91.0 897.0Q90 893 87 889Q87 893 86 892V889Q82 884 81.5 877.5Q81 871 79 866H76Q75 862 74.0 859.5Q73 857 72 853V851Q72 848 72.5 845.5Q73 843 73 840H70L68 838Q69 836 69 833Q69 830 68.0 827.0Q67 824 66 821L70 815Q67 812 67 810Q67 808 68.5 806.0Q70 804 70 800Q70 795 67.0 792.0Q64 789 64 785Q68 777 67.0 775.0Q66 773 65.0 771.0Q64 769 67 762Q68 761 66.5 760.5Q65 760 64 761L68 757Q66 754 66 750Q66 745 71 738L67 737Q68 734 69.5 724.0Q71 714 72 711Q72 715 74 716Q74 711 75.0 708.0Q76 705 77 701L74 698Q78 698 79 697Q79 697 79 693Q76 692 76.5 690.0Q77 688 77 685Q81 680 81.5 670.5Q82 661 90 659L89 646Q97 643 98 635L96 633Q102 631 102 625Q102 621 100 615Q104 615 105.5 612.5Q107 610 110 609Q110 607 109.5 606.0Q109 605 109 604H108Q106 607 105 607V604L112 600Q111 599 109 596Q111 596 112.0 595.0Q113 594 115 596V594Q115 590 116.5 587.5Q118 585 119 581H118L117 580H119Q118 575 120.0 575.5Q122 576 123 574V567Q127 571 126 571L128 570Q125 565 125 564Q128 564 132 561Q131 559 131 557Q131 553 133.0 550.5Q135 548 136 545Q139 546 139 547Q142 545 144 542L142 541L141 540Q143 540 144.5 539.5Q146 539 147 539Q147 532 151 531Q155 526 155.0 521.5Q155 517 158 510Q160 511 164 510Q164 507 167 506Q167 505 167.5 500.0Q168 495 170 497Q170 500 171 502V500Q173 498 175.0 494.5Q177 491 177 489Q178 487 177.0 487.0Q176 487 177 485Q179 480 184.0 477.0Q189 474 193 470Q190 467 193 464H198Q198 461 198.5 458.5Q199 456 200 453Q206 453 207 451Q207 450 206.5 449.0Q206 448 206 447Q208 447 216.5 440.5Q225 434 227 432L226 424Q228 424 230.5 424.0Q233 424 234 423Q233 421 233 417Q236 415 237.0 413.5Q238 412 242 412Q243 407 246.0 405.0Q249 403 251 399Q252 404 254.0 400.0Q256 396 256 395Q258 396 260.0 396.0Q262 396 264 396V394Q264 389 268 383Q268 388 269 386H270V383L274 380H278Q282 378 284.5 373.5Q287 369 290 366Q292 367 294.5 367.0Q297 367 298 367Q298 365 300 361Q300 364 301 366V356Q306 355 311 356Q314 354 314 350L311 348Q313 348 315.0 346.5Q317 345 319 344Q320 343 321 343H323Q329 343 330 335H336Q337 329 345 329V324Q349 322 351.0 320.0Q353 318 357 317H363L364 312Q379 309 377.0 307.5Q375 306 379 302H384Q389 300 393.5 296.5Q398 293 402 291L404 295L405 294Q405 290 410 287H413Q416 285 418.0 283.5Q420 282 423 280L426 282Q430 277 439 273Q439 277 441 278Q443 273 445.5 273.0Q448 273 452 273V271Q452 265 460.5 265.5Q469 266 473 263Q475 259 479 259L482 261Q485 259 487.5 256.5Q490 254 493 253Q493 256 493.5 255.5Q494 255 495 256Q497 248 507.0 249.5Q517 251 521 248V246L528 242L530 246Q531 245 534 244L531 240H548Q553 238 554.5 236.0Q556 234 562 237V233Q568 233 573.5 232.0Q579 231 585 231Q588 231 591.0 231.5Q594 232 598 234Q599 229 605 229Q608 229 612.0 230.5Q616 232 619 231Q620 230 621.0 229.0Q622 228 623 227Q623 230 623.5 229.5Q624 229 625 230Q626 228 627.0 229.5Q628 231 629 231Q630 226 637 226Q641 228 645.0 227.5Q649 227 652 230V226Q668 226 682.5 230.0Q697 234 712 236Q716 230 720.0 225.0Q724 220 725 213L728 214L726 211H732Q733 206 734.0 205.5Q735 205 735 204Q735 200 733 195Q735 190 737.0 184.0Q739 178 742 174L748 171L746 167Q750 163 752.0 160.0Q754 157 752 152Q750 152 750 149Q750 146 752.0 141.5Q754 137 754 136Q758 136 758.5 133.0Q759 130 760 126H768L773 131L771 133Q777 134 778.5 141.0Q780 148 780 153Q779 154 778.0 155.0Q777 156 775 158Q778 158 780 163Q775 172 773.0 182.5Q771 193 765 201L760 204L761 207Q758 215 754 220L749 223V225Q749 231 746.0 231.0Q743 231 741 234L743 235V237Q741 238 739.0 239.5Q737 241 733 243L738 248Q734 248 733 250Q739 253 742 253Q744 266 734.0 281.0Q724 296 713 301L716 304Q712 304 709 307Q708 307 708.5 307.5Q709 308 710 308Q706 313 702.5 314.0Q699 315 697 318V321Q694 326 689.5 329.0Q685 332 680 335Q676 338 673.5 342.5Q671 347 667 350Q660 356 653.0 362.5Q646 369 638 374L632 376Q632 378 628.0 382.0Q624 386 622 388L618 386Q610 399 608.0 397.0Q606 395 598 402Q598 405 590.0 410.0Q582 415 573.5 419.0Q565 423 562 423V421Q566 419 565.5 414.0Q565 409 567 406H569V403L571 404Q578 393 579.0 395.0Q580 397 586 393Q586 389 587 386L595 380Q596 378 596.5 376.0Q597 374 599 373H602Q606 370 605.5 366.0Q605 362 607 359Q609 356 612.5 354.5Q616 353 618 350L619 343L626 338Q628 336 628.0 334.5Q628 333 629 331Q632 325 642.5 316.0Q653 307 654 302Q658 301 658.0 300.0Q658 299 661 297L658 293Q653 288 638.5 289.0Q624 290 616 289Q616 292 613 292Q600 292 585.0 295.5Q570 299 557 297V301Q545 302 533.5 306.5Q522 311 509 314Q509 311 509 311Q505 317 491.0 323.0Q477 329 469 331Q467 332 464.5 331.5Q462 331 460 331Q457 331 452.0 336.0Q447 341 444 343Q435 347 424.0 350.5Q413 354 405 361V362Q398 370 385 376L378 374V376Q374 380 368 382L369 383Q369 384 363.0 387.0Q357 390 355 391V395Q352 395 341.5 402.0Q331 409 321.0 417.5Q311 426 309 429L306 427Q305 430 297.0 437.5Q289 445 281.0 452.5Q273 460 270 463L262 464Q263 465 263 467Q263 471 258.5 473.5Q254 476 252 478Q244 485 237.5 493.5Q231 502 223 510Q222 512 220.5 511.5Q219 511 217 513H219L217 516L212 519L213 522Q211 522 200.0 535.5Q189 549 179.0 563.0Q169 577 167 580H162V583Q162 594 153 597L152 600H153L147 612Q145 610 142 612V613Q142 614 142.5 614.5Q143 615 143 616Q143 621 137.0 630.0Q131 639 129 642Q127 646 121.5 660.0Q116 674 110.0 691.5Q104 709 99.5 723.0Q95 737 96 742Q93 741 91 743Q93 744 93 753Q93 769 91 775Q90 778 89.5 781.0Q89 784 89 789Q89 808 96.0 832.5Q103 857 110 866H112Q114 868 114.0 870.5Q114 873 115 875Q119 881 123.5 880.0Q128 879 128 891Q130 891 132.0 890.5Q134 890 136 889L139 898Q141 896 141.5 895.0Q142 894 144 896Q146 897 147.5 897.5Q149 898 151 901Q152 901 152.0 900.5Q152 900 153 900L155 904Q157 901 158 901Q161 907 163.0 905.5Q165 904 168 907Q173 911 173.5 912.0Q174 913 183 912Q185 913 185.5 914.5Q186 916 187 918Q190 915 193 914Q191 917 193 919Q195 917 198.0 917.0Q201 917 203 917V921H204L206 918L207 921H210V919Q215 918 219 922Q221 924 221.0 921.5Q221 919 222 921L223 922Q225 921 228 921Q233 921 234.0 923.5Q235 926 239 927Q241 925 244.5 924.5Q248 924 251 924Q251 925 252.0 926.5Q253 928 253 930H255V924Q257 924 261.0 925.0Q265 926 268 925Q268 927 270 930Q279 928 286.5 926.5Q294 925 304 925V927L302 928V930Q313 930 312.0 928.0Q311 926 317 924Q322 924 320 927Q322 927 323.0 925.5Q324 924 326 924Q326 927 327 927Q327 926 330 924L353 921Q353 923 355 925Q356 923 355.5 922.5Q355 922 357 921Q357 922 359 921V925Q362 925 368 922Q368 923 369.0 924.5Q370 926 371 925Q374 923 373.5 921.5Q373 920 376 919Q378 921 380 921Q383 921 387.0 919.0Q391 917 394 917L395 922H396V919L395 917H398Q400 918 401.0 917.0Q402 916 404 915Q404 919 405 921V919Q412 913 421 915V912Q423 913 424.5 913.5Q426 914 427 914Q427 912 426.5 912.0Q426 912 430 911Q432 915 436.5 914.5Q441 914 445 914Q446 910 450 909Q451 910 451.5 910.5Q452 911 453 912V906Q459 908 461 908Q465 908 465.5 905.5Q466 903 470 902Q473 902 473 905L482 904Q481 901 488.0 899.5Q495 898 502 898Q511 898 515 900V893Q517 893 518.5 892.5Q520 892 521 892L524 895Q526 893 531.5 893.0Q537 893 541 891L544 886Q555 883 557 883Q561 883 561.5 884.5Q562 886 566 885V882Q568 881 570.5 881.0Q573 881 575 880V878Q576 880 578 880Q581 880 583.0 877.0Q585 874 588 873Q590 876 593 876Q595 870 605.0 868.0Q615 866 621 868Q626 866 628.5 862.5Q631 859 638 859Q639 863 644 863Q646 861 647.5 859.5Q649 858 650 857L648 855Q653 856 653.0 854.0Q653 852 657 851H658Q662 851 664.0 852.5Q666 854 668 853V847Q673 847 677 849L681 844V846Q681 846 684 847Q685 846 688 846V843Q690 842 692 839L704 838Q704 836 705 834Q708 834 711.5 832.5Q715 831 717 833V831L718 830L720 832L722 828Q724 831 725.5 830.5Q727 830 729 830L730 826Q732 829 738 827V823L739 821Q743 822 744.5 823.0Q746 824 748 821L749 818Q751 819 754 819Q757 819 759.0 817.0Q761 815 764 812Q766 813 767.5 814.5Q769 816 772 814Q776 809 782.0 804.5Q788 800 794 801Q793 798 793 792Q793 790 793.0 787.0Q793 784 794 782Q790 782 789.5 777.5Q789 773 789 771Q792 768 792 759Q792 747 788 741Q790 740 789.0 733.0Q788 726 789 722Q790 720 791.5 718.5Q793 717 794 715Q794 713 792.5 712.5Q791 712 792 710Q795 711 793.5 704.0Q792 697 793 696L798 683L801 681Q803 679 802.0 678.0Q801 677 799 677Q798 675 799.5 675.0Q801 675 801 675Q801 673 800.5 671.5Q800 670 800 668H798Q790 674 768.5 678.5Q747 683 736 685L734 681Q728 686 717 686Q706 686 694 679Q694 681 693.5 681.5Q693 682 693 680Q688 679 685.0 676.0Q682 673 677 671Q678 669 678.0 668.0Q678 667 679 666H674V660Q674 652 677 651Q680 646 688 646V650H689Q691 647 691.5 647.5Q692 648 695 649Q695 647 696 646Q697 647 698 647Q700 647 703.0 645.5Q706 644 707 643V640Q709 640 712.0 641.5Q715 643 718 642Q720 641 720.5 638.5Q721 636 730 639Q733 637 735.5 635.0Q738 633 742 632Q741 634 742 636Q745 635 748.5 634.0Q752 633 756 632V629Q759 629 761.0 628.5Q763 628 766 630V627Q769 626 780.5 624.0Q792 622 793 625Q794 624 794 623Q802 618 803.5 619.5Q805 621 810 620Q812 620 815.0 617.0Q818 614 820 613H821Q823 613 825.5 614.5Q828 616 829 615H830L829 611L832 610Q834 607 832.5 605.0Q831 603 832 600L836 599V596Q838 593 839.5 593.0Q841 593 842 591Q840 590 839 588Q841 587 841.0 586.5Q841 586 842 585H846Q848 580 850.0 578.5Q852 577 851 571H857V567L859 568L860 567Q862 564 862.5 560.0Q863 556 867 555Q869 557 873 555Q871 554 870 550Q873 548 877 548V547Q876 545 877 543Q878 542 878.5 540.5Q879 539 880 538L886 537L887 533H893Q895 531 893.5 529.5Q892 528 893 526Q895 524 899.0 522.5Q903 521 905 521V519Q903 517 903 518H904Q909 513 914.5 511.5Q920 510 923 504L931 506V504Q929 502 929 500Q933 499 936.0 497.0Q939 495 943 494Q943 496 944 497Q946 495 946.5 494.5Q947 494 948 493H952L955 494Q956 493 956.0 491.0Q956 489 957 488Q959 486 961.0 486.5Q963 487 964 486Q967 486 969.0 487.0Q971 488 973 487Q978 483 985.0 483.0Q992 483 998 483Q1000 484 1003.0 483.5Q1006 483 1009 485V487H1010Q1012 487 1014.5 486.0Q1017 485 1018 486Q1023 488 1029.5 488.5Q1036 489 1041 492V493Q1041 499 1046.0 498.0Q1051 497 1055 499L1065 505L1063 507H1065V509L1068 507V509Q1067 509 1067 511Q1080 513 1080 526Q1077 528 1071 528Q1069 526 1066 526L1067 525Q1069 524 1067.0 524.0Q1065 524 1065 524Q1064 525 1061.0 524.0Q1058 523 1056 523Q1056 520 1055 519Q1053 521 1051 521Q1047 521 1042.0 517.5Q1037 514 1035 514Q1029 516 1025 516Q1016 516 1013 511H1011L1008 516Q1005 517 1003.5 515.5Q1002 514 1000 514L998 517Q997 517 996.5 517.5Q996 518 994 518Q990 518 985.0 517.0Q980 516 978 521Q975 524 971.5 524.0Q968 524 964 526Q961 528 949.0 538.0Q937 548 926.5 557.5Q916 567 916 569Q916 572 911.0 577.0Q906 582 902.5 586.5Q899 591 905 592L904 591Q904 591 906 589Q908 587 912 587Q916 587 922 589Q921 587 923 584Q928 583 931.5 582.5Q935 582 940 584Q940 577 944.0 578.0Q948 579 952 578V575Q955 574 958.0 575.0Q961 576 964 575Q966 574 967.5 572.0Q969 570 971 569Q973 568 979.5 568.5Q986 569 988 569L994 562Q997 563 1000 563Q1004 563 1006.5 562.0Q1009 561 1013 561Q1013 558 1015 557Q1018 555 1029.0 552.0Q1040 549 1043 552Q1045 550 1046.5 548.0Q1048 546 1051 545V549Q1054 544 1056 544Q1058 544 1060.0 544.0Q1062 544 1065 543Q1071 539 1084.0 534.0Q1097 529 1110.0 525.5Q1123 522 1129 523Q1129 524 1131 526Q1132 523 1139 521V516Q1147 515 1156.0 513.0Q1165 511 1174 512Q1174 510 1175.0 508.5Q1176 507 1177 505Q1179 505 1182.0 505.0Q1185 505 1188 506L1190 504Q1191 505 1194 505Q1204 500 1216.5 497.5Q1229 495 1239 497L1242 493Q1245 492 1250 494Q1252 493 1253.5 492.5Q1255 492 1258 492Q1258 493 1260 495Q1264 491 1266.5 491.5Q1269 492 1273 493Q1275 492 1277.0 490.5Q1279 489 1281 489Q1283 490 1282.0 490.5Q1281 491 1283 492H1284Q1287 492 1288.5 490.0Q1290 488 1293 488L1294 491Q1302 493 1309 491L1312 494Q1313 487 1319.5 487.0Q1326 487 1331 487L1335 486Q1338 486 1341.0 487.0Q1344 488 1348 489Q1351 488 1356 488Q1357 488 1357.0 487.5Q1357 487 1358 487Q1362 486 1362.5 486.5Q1363 487 1364 489Q1366 489 1368.5 488.5Q1371 488 1373 488L1372 490H1373Q1376 492 1380.0 492.5Q1384 493 1387 495Q1387 497 1389.5 498.0Q1392 499 1393 500V504H1398Q1398 506 1401.0 510.0Q1404 514 1399 513Q1399 516 1400.0 516.0Q1401 516 1402 518H1399Q1398 521 1399.5 520.5Q1401 520 1402 522Q1402 524 1398 528L1399 535H1396Q1396 539 1396.5 540.0Q1397 541 1398 545Q1395 550 1393.0 564.5Q1391 579 1389.5 592.5Q1388 606 1385 608L1383 605V609Q1384 610 1384 613Q1384 617 1382.5 623.0Q1381 629 1382 634H1385L1381 637V639Q1384 641 1383.5 641.0Q1383 641 1381 644Q1385 651 1380 656Q1382 660 1381.5 675.5Q1381 691 1381 695L1377 696V698Q1380 699 1378.0 699.5Q1376 700 1377 702H1380V710H1377Q1377 711 1379.0 718.5Q1381 726 1382 727Q1382 721 1385.5 715.0Q1389 709 1388 702L1389 703Q1391 704 1391.0 702.5Q1391 701 1391 701Q1394 696 1393.5 693.5Q1393 691 1393 687Q1393 683 1395.0 681.5Q1397 680 1398 679Q1400 676 1399.0 673.5Q1398 671 1399 668Q1402 668 1401.5 667.5Q1401 667 1402 665Q1404 663 1404 658Q1407 658 1409 657L1404 652Q1406 650 1406.0 646.0Q1406 642 1408 640Q1410 638 1412.0 638.5Q1414 639 1412 637L1414 633Q1411 633 1410 632Q1417 625 1417 620L1416 618H1420L1421 614Q1421 612 1420.0 610.0Q1419 608 1419 607Q1419 603 1426 597Q1426 595 1425.5 593.5Q1425 592 1425 590Q1425 583 1431 573L1433 574Q1435 570 1435.0 566.5Q1435 563 1437 559Q1442 559 1443 556L1441 555L1440 553Q1445 551 1447.0 546.5Q1449 542 1452 538Q1454 539 1462.0 538.5Q1470 538 1472 538Q1472 542 1474.0 541.5Q1476 541 1478 544Q1476 544 1475 545H1477Q1484 545 1487.0 549.0Q1490 553 1494 559Q1497 559 1497 559Q1499 560 1499.0 561.0Q1499 562 1500 564H1496L1497 566Q1497 568 1497.5 570.5Q1498 573 1498 575L1497 576H1494V585H1496L1494 602Q1491 602 1490 603Q1493 604 1493.0 609.0Q1493 614 1491 616Q1490 620 1488.5 634.0Q1487 648 1487 653Q1483 654 1482 656Q1485 656 1487 657H1482Q1483 661 1483.5 667.0Q1484 673 1484 680Q1484 705 1479 723Q1480 729 1480.5 735.5Q1481 742 1481 749Q1479 749 1478 750H1481V765Q1481 770 1480.5 775.5Q1480 781 1478 783L1484 796Q1483 796 1482.5 796.5Q1482 797 1481 797H1484L1481 802Q1482 804 1484.0 805.0Q1486 806 1487 808L1485 816Q1489 816 1488 818H1485L1489 822H1487V824Q1489 824 1490 826Q1486 826 1484 829Q1487 828 1491 834H1492Q1493 827 1496.0 823.5Q1499 820 1500 815V812Q1500 810 1499.5 808.0Q1499 806 1498 803H1500L1502 806V805Q1501 802 1501 796L1503 797V796Q1501 794 1503 791L1507 795L1503 789Q1505 788 1507.5 779.0Q1510 770 1512.5 760.0Q1515 750 1515 748Q1517 747 1519.0 746.5Q1521 746 1522 745Q1520 743 1520 739Q1520 734 1523.0 729.5Q1526 725 1524 721Q1527 721 1529 720L1525 716Q1533 707 1534.5 697.0Q1536 687 1538 675H1539L1541 679Q1541 674 1542.0 669.0Q1543 664 1545 660L1544 661Q1543 663 1543 658Q1545 657 1545.5 653.0Q1546 649 1546 647H1551L1555 633H1560Q1560 631 1559.5 630.0Q1559 629 1560 627Q1563 627 1567.0 625.5Q1571 624 1574 623V628Q1578 628 1581.0 627.5Q1584 627 1586 627Q1589 627 1595 630Q1593 635 1594.5 634.5Q1596 634 1600 637Q1599 638 1600.5 639.5Q1602 641 1603 643Q1604 645 1602.0 645.0Q1600 645 1601 647Q1609 651 1609.0 665.0Q1609 679 1608 687Q1608 688 1611.0 693.5Q1614 699 1608 704L1611 706Q1612 710 1608.5 715.5Q1605 721 1612 723V761Q1614 763 1615 766Q1614 766 1612.5 766.5Q1611 767 1612 767Q1617 767 1617 779Q1617 785 1616.0 790.0Q1615 795 1615 797Q1617 797 1619 800Q1619 805 1621.0 809.5Q1623 814 1623 819Q1623 821 1621.5 821.5Q1620 822 1621 823Q1622 826 1623.5 827.5Q1625 829 1625 832L1622 834Q1625 834 1626 835Q1626 840 1625 842L1642 844Q1642 836 1645.0 835.5Q1648 835 1653 831Q1651 831 1650 830H1651Q1653 827 1657.0 826.5Q1661 826 1663 823Q1665 820 1663.5 817.5Q1662 815 1663 813Q1664 809 1671.5 800.0Q1679 791 1683 790V784H1686L1687 785V781Q1686 780 1686 777Q1689 775 1696.5 761.5Q1704 748 1705 743Q1701 743 1699.0 741.0Q1697 739 1697 732Q1699 728 1698.5 724.5Q1698 721 1698 717L1699 716H1703Q1702 702 1705.0 698.5Q1708 695 1713.0 692.5Q1718 690 1722 681Q1724 682 1727 682Q1730 682 1730.5 679.0Q1731 676 1734 675L1743 676L1749 673L1748 674L1750 675Q1753 670 1757.5 669.5Q1762 669 1766 667Q1766 667 1765.5 666.0Q1765 665 1765 664H1767Q1768 667 1772 669Q1776 664 1780.5 660.5Q1785 657 1791 657Q1792 659 1794 660Q1799 651 1808.5 650.5Q1818 650 1819 636H1822Q1822 634 1820 632Q1820 626 1824 625Q1826 621 1824.0 618.0Q1822 615 1824 611L1828 610Q1827 604 1828 598L1832 597L1833 593L1831 590H1834Q1834 572 1840 556L1839 553Q1840 548 1841.0 546.0Q1842 544 1842 539H1846Q1845 536 1848.0 532.0Q1851 528 1846 527L1848 526L1847 520H1850Q1849 515 1850.5 511.5Q1852 508 1850 504L1854 503Q1853 502 1852 499Q1854 497 1855.5 495.0Q1857 493 1858 491Q1858 489 1857.0 488.0Q1856 487 1855 485Q1860 483 1860.0 476.0Q1860 469 1861 464H1865V459Q1865 456 1865.5 452.0Q1866 448 1869 446Q1868 446 1867.0 445.0Q1866 444 1867 444H1869Q1869 443 1872 440L1868 439H1872Q1871 435 1871.5 431.0Q1872 427 1872 423H1876L1875 422Q1875 420 1874.5 418.5Q1874 417 1874 415Q1878 412 1878.5 409.0Q1879 406 1879 403Q1879 399 1879.5 395.5Q1880 392 1881 389L1885 384Q1888 381 1888 375Q1886 373 1886 370Q1886 365 1888.5 358.0Q1891 351 1891 348L1893 349V348Q1892 345 1896.5 332.5Q1901 320 1903 316Q1902 312 1906 308Q1904 306 1904 302Q1906 300 1908.5 298.0Q1911 296 1912 293Q1910 291 1910 286Q1910 282 1911.0 279.0Q1912 276 1913 272Q1914 271 1915.5 271.0Q1917 271 1918 270Q1920 272 1927.0 271.5Q1934 271 1938 274Q1942 278 1946.5 284.5Q1951 291 1955 295V298Q1969 312 1969 335Q1969 359 1959.0 386.5Q1949 414 1947 434Q1943 433 1943 437Q1944 437 1944 439Q1944 443 1942.0 448.0Q1940 453 1940 455L1938 454V455Q1939 456 1935.5 467.5Q1932 479 1928.0 491.0Q1924 503 1923 506L1920 504Q1919 506 1919.5 508.5Q1920 511 1920 513Q1917 517 1913.5 529.0Q1910 541 1909 547Q1906 547 1905 549Q1905 550 1905.5 550.5Q1906 551 1906 552Q1906 555 1904.5 558.5Q1903 562 1903 564Q1898 564 1896 563V564Q1898 568 1898 570Q1898 574 1895.5 579.5Q1893 585 1892 590H1889V594Q1889 608 1879 617L1882 621L1911 613L1912 609Q1914 610 1917 610Q1922 610 1923.0 606.5Q1924 603 1928 602Q1929 601 1931 601Q1935 601 1939.5 602.0Q1944 603 1947 599Q1943 597 1943 596Q1949 596 1953 597Q1959 591 1963.0 588.5Q1967 586 1977 588L1978 582Q1982 580 1993.0 576.5Q2004 573 2004 569L2023 567Q2022 563 2031.5 558.5Q2041 554 2052.0 550.5Q2063 547 2066 548V547L2068 546L2069 540L2076 542V540Q2075 540 2078.0 540.0Q2081 540 2083 539Q2089 530 2093 530Q2096 530 2096.5 531.5Q2097 533 2101 526H2102Q2107 526 2111.0 522.5Q2115 519 2119 521L2120 517L2123 518L2122 520L2124 521Q2124 517 2125 515H2126L2127 519Q2127 514 2129.0 513.0Q2131 512 2136 512Q2136 509 2137.0 509.5Q2138 510 2140 510V508Q2137 507 2137.5 506.5Q2138 506 2139 507L2144 503L2147 504V503L2149 501Q2152 504 2155 504Q2154 502 2154.5 500.5Q2155 499 2155 497Q2163 496 2169.0 491.0Q2175 486 2182 485L2183 482Q2186 481 2189 481Q2189 482 2190.5 481.5Q2192 481 2189 477Q2191 477 2193 475Q2195 470 2198.0 465.0Q2201 460 2204 454L2207 456Q2210 451 2211 445L2215 447Q2216 445 2218.5 443.0Q2221 441 2222 440Q2224 443 2225 443Q2227 443 2228.0 441.5Q2229 440 2232 440Q2236 440 2242 446Q2241 446 2240.0 446.5Q2239 447 2240 447H2242Q2244 448 2245.5 448.5Q2247 449 2248 450Q2250 455 2255.0 463.0Q2260 471 2260 479Q2260 483 2256.5 489.5Q2253 496 2252 503Q2250 502 2249 502Q2246 502 2246 506V511Q2246 513 2245.5 516.0Q2245 519 2243 522Q2243 520 2241 518V522Q2243 524 2243 525Q2243 527 2242.0 529.5Q2241 532 2240 534H2243L2242 530L2248 529Q2249 531 2251 532L2253 531V526Q2258 526 2259.5 526.0Q2261 526 2265 525V522Q2271 520 2277 522Q2279 521 2280.5 519.0Q2282 517 2284 517H2287Q2290 517 2293.5 518.5Q2297 520 2300 520Q2307 520 2311.0 517.0Q2315 514 2320 518L2322 522Q2328 520 2329 520Q2334 520 2338.5 523.5Q2343 527 2348 531L2345 534Q2357 534 2356.5 539.0Q2356 544 2361 549Q2363 551 2365.0 551.5Q2367 552 2368 555L2364 556L2367 561Q2369 561 2370.0 560.5Q2371 560 2372 560Q2374 570 2381.0 585.5Q2388 601 2388 614Q2388 620 2385 625Q2387 624 2388.0 623.5Q2389 623 2390 626H2388Q2392 633 2391.5 632.5Q2391 632 2389 638H2390Q2394 636 2398 637Q2400 629 2403.0 630.0Q2406 631 2410 628Q2407 627 2407 626L2408 625Q2410 625 2412.0 624.5Q2414 624 2416 624V619H2422L2432 605L2434 606V602H2439Q2441 599 2442.0 595.5Q2443 592 2445 590Q2447 588 2448.5 588.5Q2450 589 2451 588Q2454 586 2457.0 577.0Q2460 568 2459 565Q2455 564 2455.0 561.5Q2455 559 2452 558Q2450 556 2448.5 556.5Q2447 557 2445 556Q2444 554 2442.5 552.5Q2441 551 2440 549V541Q2438 539 2435 539Q2434 537 2434 533Q2434 529 2435.0 525.0Q2436 521 2435 518Q2433 512 2433 507Q2433 488 2442 474Q2446 469 2447.5 462.5Q2449 456 2456 455L2453 451Q2459 450 2460 443Q2458 442 2458 439Q2463 436 2464.5 433.0Q2466 430 2468 426H2471V421Q2475 420 2477.0 418.5Q2479 417 2482 416L2483 409Q2490 408 2495.5 407.5Q2501 407 2508 407Q2509 410 2509 415Q2509 419 2508.0 421.5Q2507 424 2508 427L2513 429Q2514 432 2511.0 448.0Q2508 464 2507 469H2504Q2503 473 2503.5 476.0Q2504 479 2504 483Q2500 484 2500.5 487.5Q2501 491 2501 493Q2496 500 2495.0 510.5Q2494 521 2489 529L2487 527Q2486 531 2486.5 534.0Q2487 537 2487 541Q2484 540 2483 542Q2485 546 2484 548Q2487 550 2489.0 550.5Q2491 551 2492 556Q2494 557 2494.5 557.5Q2495 558 2496 559L2515 558Q2519 559 2519.5 560.0Q2520 561 2524 561Q2524 558 2526 554L2524 553Q2532 553 2531.0 550.0Q2530 547 2537 547Q2539 545 2539.5 544.0Q2540 543 2541 541H2544L2548 536L2547 535Q2545 535 2543.5 536.0Q2542 537 2540 537V536Q2543 533 2543.5 530.5Q2544 528 2549 527V518Q2552 518 2552.0 518.0Q2552 518 2553 514L2552 512H2555L2554 506Q2562 506 2568.0 502.5Q2574 499 2582 499Q2584 499 2586.5 499.5Q2589 500 2592 501L2596 505H2598Q2601 505 2602.5 504.0Q2604 503 2606 503Q2609 503 2616 507Q2615 509 2614.5 510.0Q2614 511 2614 513Q2618 514 2619 518Q2615 523 2609.5 543.5Q2604 564 2599.5 584.5Q2595 605 2594 611L2592 610V611Q2593 612 2591.5 624.5Q2590 637 2588.5 649.0Q2587 661 2586 663Q2586 664 2585.0 664.0Q2584 664 2584 667Q2584 671 2584.5 678.0Q2585 685 2585 692Q2585 703 2583 709L2579 710L2581 723Q2580 731 2581.5 752.0Q2583 773 2586.5 793.0Q2590 813 2593 820Q2594 821 2597 821V825H2601V828Q2606 829 2607.5 831.5Q2609 834 2612 836Q2614 835 2616 835H2617Q2619 835 2626 828Q2628 827 2629.5 828.0Q2631 829 2633 828L2634 823Q2639 823 2645 820Q2650 803 2665 803V798Q2665 792 2668.0 790.5Q2671 789 2673 787L2672 784Q2675 786 2678 783H2679V773Q2686 773 2688 771L2683 767Q2690 763 2690.0 759.0Q2690 755 2694 751Q2696 749 2699.0 748.5Q2702 748 2703 745Q2704 743 2703.5 741.0Q2703 739 2703 738Q2706 737 2708.0 736.5Q2710 736 2712 734Q2711 732 2710.5 730.0Q2710 728 2710 725L2716 718L2717 721Q2717 722 2719 724L2718 717L2722 715Q2720 713 2718.5 711.5Q2717 710 2716 706Q2718 704 2717.5 692.5Q2717 681 2717 678L2721 676H2717L2721 667H2717L2718 658Q2722 658 2724 657L2722 654Q2717 654 2717.0 652.0Q2717 650 2717 646H2722Q2722 641 2720.5 636.0Q2719 631 2718 627Q2722 627 2724 626Q2720 622 2720.0 618.5Q2720 615 2720 611H2726V608Q2722 606 2721 602Q2722 601 2724 596Q2722 595 2721 593Q2722 590 2725.0 583.0Q2728 576 2728 572Q2728 567 2725.5 566.0Q2723 565 2724 560H2727V549Q2727 538 2728.5 538.5Q2730 539 2731 533Q2728 531 2728.0 529.5Q2728 528 2728 525Q2734 522 2735 518Q2732 515 2732 509Q2732 503 2735 497Q2731 492 2733 490L2738 484Q2734 482 2734.0 481.0Q2734 480 2734 476Q2736 474 2735.5 471.5Q2735 469 2735 467H2738Q2738 467 2740 463Q2738 459 2738 457Q2744 455 2742.0 452.0Q2740 449 2742 445Q2746 443 2746 440Q2742 438 2741 433Q2746 431 2744.5 429.0Q2743 427 2745 424Q2750 421 2749 419Q2747 416 2745 412L2747 411H2745Q2744 411 2743.0 411.5Q2742 412 2740 412Q2736 412 2729.5 411.0Q2723 410 2720 409L2721 408Q2722 408 2720.5 407.5Q2719 407 2718 407Q2717 408 2714 408Q2710 408 2705.0 405.0Q2700 402 2697 401Q2696 402 2693.0 403.0Q2690 404 2688 403V401H2684Q2678 401 2668.5 399.0Q2659 397 2655 396V393Q2652 394 2647 394Q2639 394 2627 389H2619L2613 384Q2611 383 2609.5 385.0Q2608 387 2605 387Q2596 385 2587.0 382.0Q2578 379 2568 378Q2568 373 2562.5 373.5Q2557 374 2554 373Q2552 373 2543.0 363.0Q2534 353 2533 351Q2532 348 2533.5 345.0Q2535 342 2533 340Q2532 338 2528.0 337.0Q2524 336 2526 332Q2525 330 2523.0 329.0Q2521 328 2520 325L2522 316Q2521 314 2518.5 313.0Q2516 312 2516 308Q2518 308 2518.5 305.0Q2519 302 2522 301Q2527 311 2542.5 314.0Q2558 317 2567 317Q2571 318 2572.5 320.5Q2574 323 2580 324L2581 327Q2582 324 2585 324Q2586 326 2587 327Q2588 327 2588.5 326.5Q2589 326 2589 326Q2595 326 2600 331Q2601 332 2603 332H2604Q2609 332 2618.5 334.5Q2628 337 2630 339L2627 341L2626 339V342L2630 345Q2633 341 2637 341Q2642 341 2646.5 342.5Q2651 344 2655 345V348Q2663 348 2669.5 349.5Q2676 351 2683 353L2682 355Q2681 355 2682.0 355.5Q2683 356 2683 356Q2686 356 2693.5 356.5Q2701 357 2703 359H2704L2700 363H2703Q2704 362 2708 362Q2713 362 2720.0 363.0Q2727 364 2730 365L2731 369Q2732 368 2735 368Q2743 368 2747 370Q2747 372 2752 374V373Q2753 371 2753 368Q2753 360 2756 358Q2759 356 2759.5 356.5Q2760 357 2761 353Q2758 351 2757.5 349.0Q2757 347 2756 345Q2760 345 2760.0 345.0Q2760 345 2761 341Q2758 339 2758.5 338.5Q2759 338 2759 335H2762V321Q2762 316 2762.5 312.0Q2763 308 2765 303Q2767 299 2769.5 296.0Q2772 293 2773 289Q2770 284 2771.5 280.0Q2773 276 2772 272L2776 270Q2778 268 2778.5 264.5Q2779 261 2782 260Q2779 255 2778.5 250.0Q2778 245 2779 241Q2785 239 2785.0 233.0Q2785 227 2786 223L2790 220L2789 214Q2792 214 2794 210Q2792 208 2792 206Q2792 203 2795.5 199.5Q2799 196 2800 194Q2801 195 2803.5 195.0Q2806 195 2807 193Q2811 189 2815 189Q2820 193 2827.5 194.0Q2835 195 2841 199Q2870 216 2883.0 250.5Q2896 285 2896 317Q2896 324 2895.5 330.0Q2895 336 2894 342V344Q2894 358 2891.5 372.5Q2889 387 2889 401Q2894 401 2896.0 402.0Q2898 403 2901 405L2911 404Q2911 407 2914 407V404H2915V407L2926 408V411Q2929 411 2929 408Q2931 407 2932.0 408.0Q2933 409 2932 411Q2936 409 2938.0 409.5Q2940 410 2944 409V411L2960 412L2962 416Q2963 417 2966 417Q2970 417 2972.5 414.5Q2975 412 2976 414Q2987 419 2989.5 418.5Q2992 418 3002 418L3008 425Q3013 420 3021 420L3031 421L3033 427H3035L3036 424Q3037 425 3040 425H3050Q3054 425 3058.0 426.0Q3062 427 3066 431Q3067 429 3068 428L3070 432Q3074 430 3079.5 428.0Q3085 426 3091 426Q3095 426 3101 428L3103 432Q3106 427 3108.0 429.5Q3110 432 3113 432Q3113 431 3114 431Q3118 431 3125.5 433.5Q3133 436 3135 435Q3138 435 3138.5 433.5Q3139 432 3143 432Q3144 434 3145.5 435.0Q3147 436 3148 438Q3153 434 3158.5 433.5Q3164 433 3170 433Q3170 437 3174 440Q3176 438 3178.5 437.0Q3181 436 3182 435L3184 438L3185 435Q3190 437 3195.0 437.0Q3200 437 3206 439V435Q3207 437 3209 439Q3212 435 3219 439L3222 435Q3218 433 3214 430Q3219 422 3219 413Q3223 413 3226 414Q3225 412 3227.5 410.5Q3230 409 3226 409Q3225 407 3226.0 404.5Q3227 402 3227 401Q3229 400 3229.5 399.0Q3230 398 3233 397Q3233 394 3232.5 391.5Q3232 389 3231 386L3233 385Q3235 377 3238.5 378.5Q3242 380 3243 377L3242 371H3247Q3250 366 3248 365Q3250 363 3252.5 362.5Q3255 362 3258 361L3255 359Q3258 359 3264 361L3266 354Q3273 353 3279.5 351.0Q3286 349 3293 348V344Q3298 344 3303.0 343.5Q3308 343 3313 344Q3314 347 3317.0 349.5Q3320 352 3321 355Q3322 357 3322.0 360.0Q3322 363 3322 365Q3322 380 3315.5 395.0Q3309 410 3307 424H3304V426Q3303 428 3303 430V432Q3303 433 3302.5 435.0Q3302 437 3299 440H3300Q3313 437 3325.5 436.0Q3338 435 3351 435Q3355 439 3356 443L3355 445Q3343 452 3338.5 453.0Q3334 454 3317 456Q3318 455 3318.0 453.5Q3318 452 3317 453Q3311 456 3305.5 457.0Q3300 458 3295 459L3286 475Q3285 478 3285.0 481.5Q3285 485 3283 487Q3283 487 3279 487Q3279 497 3276.0 506.5Q3273 516 3268 527Q3266 527 3266 534Q3264 536 3262 542Q3259 542 3259.5 541.5Q3260 541 3258 543Q3261 545 3259.0 547.0Q3257 549 3258 551Q3260 552 3263.5 556.0Q3267 560 3264 562Q3272 562 3279.5 561.5Q3287 561 3295 561Q3297 559 3296.0 559.0Q3295 559 3299 559Q3305 555 3314.5 553.0Q3324 551 3328 544L3325 541H3329L3330 543Q3331 541 3334.0 537.5Q3337 534 3334 532Q3337 532 3339.5 533.0Q3342 534 3346 535Q3346 538 3351 538Q3351 537 3353 537Q3355 537 3358.5 538.0Q3362 539 3363 539V543H3366Q3369 544 3374.5 545.0Q3380 546 3384 546L3383 549H3384Q3389 552 3391.0 551.5Q3393 551 3397.0 553.0Q3401 555 3410 565Q3410 583 3400 598V603Q3396 610 3389.5 625.0Q3383 640 3377 645V653Q3376 657 3372.5 657.5Q3369 658 3369 663Q3370 664 3371 667Q3371 667 3366 670Q3368 670 3369 673Q3367 672 3363 673Q3365 675 3365 678Q3365 684 3361.5 692.5Q3358 701 3356 704H3352Q3353 720 3346.5 733.5Q3340 747 3338 761L3337 760V762Q3337 766 3334.5 776.0Q3332 786 3331 789Q3329 789 3328 790Q3329 793 3329.0 796.0Q3329 799 3329 802Q3328 803 3326.0 803.0Q3324 803 3323 805Q3327 808 3327 812Q3327 816 3325.5 820.0Q3324 824 3323 827V828Q3323 829 3324.0 830.5Q3325 832 3325 834Q3325 839 3323.0 837.5Q3321 836 3321 840Q3321 844 3322.5 857.0Q3324 870 3325.0 883.0Q3326 896 3324 900L3329 899Q3330 914 3338.0 920.5Q3346 927 3349 940Q3347 940 3347 944H3351Q3351 943 3352.0 941.0Q3353 939 3353 941Q3357 945 3361.0 948.0Q3365 951 3366 956Q3374 954 3383.5 959.5Q3393 965 3400 968Q3401 968 3402.0 968.5Q3403 969 3404 969Q3406 969 3409.5 968.5Q3413 968 3417 971H3415L3414 972H3425Q3427 973 3430.0 974.5Q3433 976 3434 975Q3436 973 3438.5 972.5Q3441 972 3442 972L3446 976L3460 974Q3464 975 3471 975Q3476 975 3481.0 974.5Q3486 974 3491 974V975L3489 976V978H3494Q3494 974 3494.0 974.0Q3494 974 3497 974Q3501 976 3504 976Q3510 976 3517.5 974.0Q3525 972 3529 972Q3530 972 3530.0 973.0Q3530 974 3531 975L3536 972L3535 971Q3546 971 3556 968Q3557 969 3558.0 970.0Q3559 971 3560 972Q3561 970 3561.0 969.0Q3561 968 3562 967Q3565 967 3567.5 968.0Q3570 969 3573 968Q3570 967 3569 965Q3574 966 3583.5 961.0Q3593 956 3601 958L3600 957H3599Q3599 956 3600.5 956.0Q3602 956 3602 956Q3604 957 3605 958Q3605 956 3607.5 954.5Q3610 953 3613 952L3615 956V952Q3617 953 3619.0 953.0Q3621 953 3622 953Q3628 953 3630.0 950.0Q3632 947 3637 945L3636 948Q3640 948 3643 945Q3643 940 3649 940Q3651 940 3652.0 940.5Q3653 941 3655 940Q3663 938 3664.0 935.0Q3665 932 3677 933Q3677 931 3679 927Q3681 929 3684.0 927.5Q3687 926 3689 926V925L3693 924Q3695 922 3698.5 919.0Q3702 916 3704 916H3712Q3714 916 3715.0 913.5Q3716 911 3717 910L3736 899L3740 902V900L3736 898Q3747 896 3750.5 889.5Q3754 883 3767 885Q3767 881 3770.5 879.5Q3774 878 3778 879Q3781 882 3784 882Q3782 895 3767.5 905.5Q3753 916 3737.5 924.5Q3722 933 3716 940Q3711 940 3709 938Q3709 945 3703.5 948.0Q3698 951 3691 951Q3690 956 3684.0 958.0Q3678 960 3674 964Q3673 964 3671 962Q3669 965 3658.5 971.0Q3648 977 3637.5 981.5Q3627 986 3623 986Q3623 989 3610.0 994.5Q3597 1000 3579.5 1005.5Q3562 1011 3546.5 1014.0Q3531 1017 3526 1016V1019Q3522 1020 3517.5 1020.5Q3513 1021 3508 1020Q3508 1023 3501 1023Q3500 1020 3496 1020Q3491 1020 3483.5 1025.0Q3476 1030 3470 1027L3469 1023H3467Q3463 1023 3458.5 1025.5Q3454 1028 3449 1027Q3448 1025 3435.0 1025.0Q3422 1025 3418 1024Q3411 1022 3405.0 1020.0Q3399 1018 3391 1017V1013L3389 1014Q3389 1014 3387.5 1009.5Q3386 1005 3386 1009Q3385 1009 3384 1011L3385 1013H3383Q3381 1011 3379.0 1011.0Q3377 1011 3375 1010Q3373 1008 3373.0 1006.5Q3373 1005 3369 1003Q3369 1006 3369 1006Q3367 1002 3360.5 999.0Q3354 996 3351 993L3352 990Q3349 991 3346 990Q3345 985 3340.0 983.5Q3335 982 3333 978Q3334 976 3334 974Q3334 972 3331.5 971.0Q3329 970 3327 969Q3331 969 3329 967Q3328 967 3327.5 967.5Q3327 968 3325 967Q3323 965 3321.5 962.0Q3320 959 3318 956Q3320 955 3320 950H3317Q3318 953 3316 954Q3316 949 3314 943Q3313 941 3310.0 940.0Q3307 939 3306 936L3307 927L3303 926Q3299 922 3298.5 914.5Q3298 907 3299 902Q3292 900 3292 892Q3292 887 3295 884H3290Q3294 883 3294 876Q3294 871 3292.0 864.5Q3290 858 3289 856L3292 851Q3290 851 3286 853Q3286 848 3285.0 835.5Q3284 823 3286 822V820L3284 819L3283 818Q3285 817 3286 814L3284 813L3283 812H3286L3283 806L3286 805Q3284 804 3283 802L3285 801L3286 799L3283 798L3286 796Q3286 794 3284.0 792.0Q3282 790 3283 787H3286Q3286 781 3290 777Q3290 776 3289.0 767.0Q3288 758 3287 758Q3289 757 3290.0 756.5Q3291 756 3292 754Q3291 755 3289.5 754.5Q3288 754 3286 754Q3287 745 3289.5 744.5Q3292 744 3293 740Q3293 739 3293.5 738.5Q3294 738 3294 737Q3294 735 3292.5 732.5Q3291 730 3292 728L3289 729V726Q3295 725 3295 712Q3295 700 3293 692H3298V690Q3298 689 3298.5 688.5Q3299 688 3299 687Q3299 685 3298.0 682.5Q3297 680 3296 678Q3302 673 3302 667Q3302 664 3301.5 661.5Q3301 659 3300 656H3304L3307 650Q3305 647 3305 640Q3305 634 3307 626H3311Q3313 618 3311 610H3316L3317 607L3313 605L3314 603Q3322 601 3321.5 596.0Q3321 591 3321 587Q3321 584 3322.0 583.0Q3323 582 3323 577H3322Q3321 581 3320.0 579.5Q3319 578 3317 577Q3316 584 3310 580Q3310 581 3309.5 582.0Q3309 583 3309 583V581Q3308 579 3307.0 581.5Q3306 584 3304 583V584Q3301 585 3300.0 584.0Q3299 583 3297 583V586H3293Q3293 583 3292 583Q3291 585 3290 586Q3287 582 3283.5 583.5Q3280 585 3276 584V583Q3275 581 3275.0 582.5Q3275 584 3275 584Q3266 583 3262.0 580.0Q3258 577 3250 575V577L3248 584Q3247 585 3245.5 585.0Q3244 585 3243 586Q3244 589 3244 593Q3244 596 3242.5 596.5Q3241 597 3240 601V610L3235 614Q3235 615 3235.5 615.5Q3236 616 3231 619L3233 620L3234 622H3230V626Q3230 630 3229.0 634.5Q3228 639 3227 645L3224 643Q3225 645 3220.5 659.0Q3216 673 3213 676H3210L3211 677Q3211 684 3206 691L3203 690Q3197 706 3188.5 721.5Q3180 737 3172 753Q3171 753 3171.0 752.5Q3171 752 3169 753Q3169 754 3169.5 754.5Q3170 755 3170 756Q3170 760 3165 765L3162 764Q3162 771 3155.0 782.0Q3148 793 3140 795Q3139 800 3129.5 814.0Q3120 828 3116 833Q3114 836 3111.0 837.0Q3108 838 3106 840L3107 843Q3092 859 3071.0 878.0Q3050 897 3027 905L3023 903L3022 907L2995 916L2992 912Q2991 916 2990.0 916.0Q2989 916 2985 916Q2983 917 2979.5 917.5Q2976 918 2972 918Q2965 918 2956.0 917.0Q2947 916 2942 916Q2942 914 2942.5 913.0Q2943 912 2942 910L2934 912Q2933 909 2930.5 908.0Q2928 907 2926 905L2929 903H2927Q2921 903 2917.5 898.5Q2914 894 2910 889Q2912 889 2913.0 888.5Q2914 888 2911 888L2910 884L2907 885L2908 882Q2905 882 2905 881H2908V874L2902 871Q2901 867 2899.5 865.0Q2898 863 2896 860L2898 858Q2896 857 2896.0 856.0Q2896 855 2894 854Q2897 854 2898 853Q2894 853 2894 847L2892 845Q2897 845 2896.5 844.5Q2896 844 2898 841Q2894 838 2890.5 829.5Q2887 821 2891 815H2884Q2878 815 2871.5 814.5Q2865 814 2863 811Q2865 809 2865.5 807.0Q2866 805 2867 805Q2868 806 2870 806Q2872 806 2873.0 804.5Q2874 803 2877 802L2888 805L2891 798Q2888 798 2887 797Q2889 796 2890 794L2888 793L2887 791L2889 790Q2891 787 2890.5 783.5Q2890 780 2891 778L2889 777L2888 776Q2892 773 2892 766Q2892 760 2890 754Q2894 754 2897 752V750L2891 747Q2892 740 2892.0 731.0Q2892 722 2898 718Q2898 716 2897.5 715.5Q2897 715 2896 714Q2896 710 2897.0 706.0Q2898 702 2898 698H2903Q2904 695 2904.5 693.0Q2905 691 2905 687H2903L2902 690Q2902 688 2901.5 686.0Q2901 684 2901 683Q2904 680 2904.0 676.0Q2904 672 2904 668Q2904 657 2908.5 657.0Q2913 657 2914 649Q2913 647 2912.5 645.0Q2912 643 2910 642L2917 641Q2915 637 2915 635Q2915 629 2918.5 623.5Q2922 618 2923 614Q2921 610 2921 607L2925 599Q2924 598 2923 596H2928Q2928 590 2929.0 585.0Q2930 580 2931 574H2935Q2935 570 2938.5 564.0Q2942 558 2943 555L2939 552V550H2941L2945 551Q2941 549 2940 546Q2945 544 2947 536L2945 535Q2949 535 2952 531L2951 527Q2951 522 2953.0 517.0Q2955 512 2956 508H2957Q2957 509 2957.5 510.5Q2958 512 2959 511V508H2961Q2959 506 2959 503L2966 496Q2969 494 2968.5 495.5Q2968 497 2969 497Q2972 497 2973.0 495.5Q2974 494 2977 493V489L2985 488L2987 492Q2992 488 2997.5 489.0Q3003 490 3008 489V494H3011Q3013 489 3019 489Q3024 493 3029.5 494.0Q3035 495 3039 499Q3041 501 3041.5 504.0Q3042 507 3044 510Q3044 510 3046.5 509.5Q3049 509 3050 508Q3053 512 3055.5 516.5Q3058 521 3061 525L3060 528H3063V532Q3065 536 3069.5 538.5Q3074 541 3078 543V544Q3076 544 3075 545Q3076 545 3078.0 545.5Q3080 546 3081 546Q3078 548 3078.5 549.0Q3079 550 3080 552L3084 555Q3084 554 3085.0 552.0Q3086 550 3085 552Q3089 556 3089.5 560.5Q3090 565 3092 569Q3099 583 3099 598Q3099 609 3096.5 620.5Q3094 632 3092 643H3089Q3089 646 3088.5 648.0Q3088 650 3087 652Q3089 653 3089.5 652.5Q3090 652 3091 654Q3087 657 3087 663H3084Q3084 676 3070.5 695.0Q3057 714 3047 722L3049 726L3045 725Q3044 732 3034.5 741.0Q3025 750 3019 754V750H3013Q3015 753 3015 759Q3013 759 3003.0 766.5Q2993 774 2991 777L2988 774Q2986 782 2976.5 786.5Q2967 791 2958.5 793.0Q2950 795 2949 798Q2948 800 2948 810Q2948 819 2948.5 830.0Q2949 841 2950 843Q2952 844 2955.5 847.5Q2959 851 2957 853Q2962 857 2964.0 856.5Q2966 856 2967 864L2969 861Q2971 868 2977.5 869.0Q2984 870 2989 872Q2983 874 2988 874Q2988 874 2994 874V870Q2996 870 2999.0 871.5Q3002 873 3005 875Q3014 871 3021.5 866.5Q3029 862 3039 861Q3039 856 3044.0 857.0Q3049 858 3053 854L3054 849Q3056 846 3061 846Q3069 846 3068.5 841.0Q3068 836 3078 834V833L3076 832L3082 829Q3083 830 3085 830Q3086 823 3090.0 822.0Q3094 821 3098 818L3094 814Q3098 813 3097.5 812.5Q3097 812 3098 811H3105L3107 806L3105 805Q3110 805 3113 802Q3111 801 3110.5 799.0Q3110 797 3109 796H3112Q3112 800 3113 798V796L3118 795Q3117 790 3118 785L3119 784L3123 785L3126 783Q3124 780 3124 777L3129 774L3127 772Q3131 772 3133 768L3132 765Q3136 762 3138.5 758.0Q3141 754 3145 753V752Q3144 751 3144 747Q3148 742 3154 740V739L3150 738Q3153 737 3154 735Q3154 731 3157.5 727.5Q3161 724 3162 721L3161 719Q3165 719 3167 718L3163 715Q3169 712 3171 707L3169 704Q3174 702 3176 699V698H3174Q3178 694 3180.0 694.5Q3182 695 3178 688Q3187 685 3187 673Q3185 671 3185.5 671.5Q3186 672 3186 670Q3189 666 3191.0 661.0Q3193 656 3198 655V650Q3201 650 3203 648H3200L3198 646Q3200 644 3200.5 642.5Q3201 641 3203 639Q3203 635 3204.5 632.0Q3206 629 3206 625H3210Q3210 623 3209.5 622.5Q3209 622 3209 621H3212L3214 622Q3214 619 3215.0 616.5Q3216 614 3217 612Q3214 612 3212 610Q3214 609 3215.5 609.0Q3217 609 3218 607L3214 605Q3218 601 3218 596H3222Q3224 590 3224 590Q3224 588 3223.0 587.5Q3222 587 3222 586Q3225 586 3227 584L3231 580Q3229 578 3229 576Q3234 573 3235 567Q3229 563 3227.5 559.0Q3226 555 3224 549H3222Q3215 549 3218 541H3214Q3214 535 3216 534H3212Q3213 530 3214 530L3216 532V527Q3212 524 3212 518H3209V515Q3211 514 3211.5 512.5Q3212 511 3213 510Q3212 507 3210.0 498.0Q3208 489 3207 486L3212 485Q3212 488 3213 489V483Q3209 482 3209 475Q3209 471 3210.0 467.0Q3211 463 3212 461H3209V459Q3208 459 3207.5 459.5Q3207 460 3206 460L3205 457V460Q3201 460 3197.5 459.5Q3194 459 3190 459Q3184 459 3178.0 460.0Q3172 461 3166 460Q3162 459 3155.5 457.0Q3149 455 3147 459L3143 460Q3140 460 3137.5 459.0Q3135 458 3132 457H3130Q3127 457 3123.0 458.5Q3119 460 3116 459L3115 454Q3111 455 3103.0 456.0Q3095 457 3086 457Q3079 457 3072.0 456.0Q3065 455 3063 454L3060 451L3035 452V450L3024 451Q3020 449 3011.0 449.0Q3002 449 2997 449Q2992 449 2986.5 447.5Q2981 446 2976 445Q2963 442 2950.0 443.0Q2937 444 2924 440Q2914 437 2903.0 436.0Q2892 435 2881 435Q2881 441 2878.5 445.0Q2876 449 2873 454Q2875 454 2876 459Q2874 462 2870.5 472.5Q2867 483 2864.0 493.5Q2861 504 2860 509L2856 511Q2855 514 2856.0 515.5Q2857 517 2857 520Q2856 525 2853.5 529.0Q2851 533 2849 538Q2846 544 2845.5 550.5Q2845 557 2841 563Q2837 570 2833.5 577.5Q2830 585 2829 593H2825Q2825 594 2825.5 595.0Q2826 596 2826 598Q2826 603 2824.0 608.5Q2822 614 2817 616Q2817 622 2813.5 632.0Q2810 642 2807 647L2804 646Q2802 665 2790.5 684.0Q2779 703 2771 720V740H2769V744Q2773 748 2771 753Q2770 755 2770 768Q2770 778 2770.5 790.0Q2771 802 2771 807Q2775 807 2773 811Q2769 813 2771 815L2773 816Q2774 818 2775.0 822.0Q2776 826 2776 831Q2776 837 2773 840Q2775 847 2777.5 854.0Q2780 861 2778 869Q2781 869 2780.5 870.5Q2780 872 2780 875Q2783 880 2780 883Q2785 887 2786.5 896.0Q2788 905 2786 911Q2789 911 2788.5 911.0Q2788 911 2789 914Q2793 919 2797.0 937.5Q2801 956 2808.5 976.5Q2816 997 2828 1010L2825 1014Q2830 1015 2832.5 1018.0Q2835 1021 2839 1022L2838 1028Q2846 1028 2847.5 1031.0Q2849 1034 2852.5 1036.5Q2856 1039 2870 1039V1043Q2882 1038 2891 1038Q2892 1041 2894.5 1040.5Q2897 1040 2898 1039H2901V1035Q2904 1035 2907.0 1034.5Q2910 1034 2913 1035V1031Q2915 1026 2920 1024Q2922 1025 2924 1025H2927Q2932 1025 2932 1033H2931Q2928 1041 2921.0 1047.0Q2914 1053 2908 1059L2902 1057V1059H2904L2905 1061H2902Q2901 1062 2899.0 1061.5Q2897 1061 2895 1061L2894 1063Q2894 1062 2893.0 1061.5Q2892 1061 2891 1062V1063Q2889 1064 2888.0 1065.5Q2887 1067 2882 1067Q2881 1068 2878 1068Q2873 1068 2870 1064Q2868 1065 2866.5 1066.5Q2865 1068 2863 1068Q2862 1066 2862 1062Q2861 1062 2860.0 1062.5Q2859 1063 2858 1063Q2858 1066 2858.5 1065.5Q2859 1065 2857 1067Q2856 1064 2844.0 1061.0Q2832 1058 2828 1056L2825 1050Q2825 1049 2823.5 1049.5Q2822 1050 2821 1052Q2808 1044 2802 1032Q2796 1036 2790.0 1024.0Q2784 1012 2783 1006L2777 1007L2778 1002Q2776 1003 2776.5 1003.5Q2777 1004 2775 1001L2776 998H2775Q2771 998 2768.0 990.5Q2765 983 2762 980V973H2758Q2758 969 2756 966L2759 963L2755 964Q2755 962 2754.0 959.5Q2753 957 2752 955L2755 953Q2754 951 2754.0 947.5Q2754 944 2754 942H2747Q2747 940 2746.0 937.0Q2745 934 2744 932Q2747 930 2746.5 926.5Q2746 923 2747 921L2744 920V913Q2741 911 2738 911V901Q2738 900 2737.0 899.0Q2736 898 2735 897L2737 896Q2732 888 2731 880Q2735 879 2735 879Q2733 875 2733 873Q2731 874 2730 872H2731Q2730 869 2731.0 865.0Q2732 861 2730 856Q2729 854 2727.5 853.0Q2726 852 2726 848Q2730 847 2731 842Q2728 841 2728 839H2724V836Q2724 831 2725.0 825.5Q2726 820 2726 815Q2726 809 2723 803Q2722 800 2722.0 801.5Q2722 803 2720 800L2723 799H2720V795L2724 793Q2720 786 2720 777Q2720 775 2720.0 772.0Q2720 769 2721 766Q2720 763 2718.5 761.0Q2717 759 2717 756Q2715 761 2713 762Q2712 763 2711.0 762.5Q2710 762 2709 763Q2710 764 2710 766Q2710 770 2706.5 775.0Q2703 780 2701 782H2696L2698 788Q2691 798 2682.5 809.0Q2674 820 2663 825Q2665 827 2665 829Q2657 834 2651.0 842.5Q2645 851 2637 856Q2630 860 2621.5 865.5Q2613 871 2604 873L2598 872Q2594 873 2588.5 874.0Q2583 875 2578 875Q2564 875 2555 869Q2550 866 2541.5 857.5Q2533 849 2537 842L2531 838Q2528 832 2528 828Q2528 825 2530 819L2525 816H2527L2531 814H2527Q2527 806 2525.5 798.0Q2524 790 2525 783Q2524 782 2522 782L2524 778Q2522 778 2521 777L2524 776Q2524 773 2522.5 770.5Q2521 768 2521 766Q2520 763 2520.5 751.5Q2521 740 2521 736H2523Q2523 735 2523.5 734.5Q2524 734 2524 733Q2524 728 2521.5 724.0Q2519 720 2521 716L2523 714Q2524 711 2524.0 707.5Q2524 704 2524 701Q2524 696 2524.0 691.0Q2524 686 2523 682L2526 683V680Q2524 676 2524 674Q2524 671 2525.5 667.5Q2527 664 2526 660L2525 653Q2525 648 2527.0 643.5Q2529 639 2530 632V629Q2530 624 2528.0 620.5Q2526 617 2527 610Q2530 604 2530 597Q2530 589 2524 587Q2522 589 2520 589Q2517 589 2513.5 587.0Q2510 585 2508 584Q2505 585 2502 585Q2497 585 2497.0 582.0Q2497 579 2492 578Q2490 580 2487 580Q2486 578 2483.5 577.0Q2481 576 2479 575Q2477 579 2475.0 584.0Q2473 589 2470 592Q2469 594 2467.0 594.0Q2465 594 2463 596L2464 600L2457 608Q2452 606 2450 609Q2451 610 2451.0 611.0Q2451 612 2452 614H2450L2446 611V612Q2449 615 2448 616Q2444 620 2440.5 626.0Q2437 632 2429 631V633Q2429 637 2423.5 639.5Q2418 642 2415 644H2416Q2417 646 2414 646V645Q2413 646 2412.0 647.5Q2411 649 2409 650Q2409 648 2408.0 648.0Q2407 648 2407 649V650L2409 652Q2405 653 2398.5 657.5Q2392 662 2390 667Q2393 668 2394.0 675.5Q2395 683 2393 686H2391V687Q2391 688 2391.5 691.0Q2392 694 2392 697Q2392 701 2390 707Q2389 708 2391.5 712.5Q2394 717 2392 721Q2391 722 2390.0 722.5Q2389 723 2388 725Q2392 726 2392 731Q2392 736 2389.0 741.0Q2386 746 2390 745Q2389 761 2389.0 760.0Q2389 759 2383 767Q2386 771 2386 779Q2386 795 2381 802Q2380 804 2378.0 804.5Q2376 805 2375 807Q2374 810 2376.5 812.0Q2379 814 2377 816L2364 854Q2363 853 2360 854Q2362 855 2363 857Q2361 857 2361.5 856.5Q2362 856 2360 858L2361 860Q2360 863 2358.5 864.5Q2357 866 2355 868L2356 869Q2352 881 2343.5 890.5Q2335 900 2325 908Q2326 908 2327.0 908.5Q2328 909 2327 909H2325Q2317 921 2295.5 927.5Q2274 934 2254 934Q2235 934 2226 930Q2224 929 2222.5 927.5Q2221 926 2219 926Q2217 928 2210.5 924.0Q2204 920 2197.5 915.0Q2191 910 2188 909Q2188 903 2186 902Q2186 903 2185.5 904.0Q2185 905 2185 903Q2176 896 2174 882Q2167 881 2167.5 871.5Q2168 862 2166 860Q2165 858 2162.5 858.0Q2160 858 2159 857Q2159 855 2161 851Q2160 850 2158.5 849.5Q2157 849 2156 847Q2155 845 2155.5 843.0Q2156 841 2156 839Q2156 830 2153.0 822.0Q2150 814 2148 806Q2147 801 2148.0 799.5Q2149 798 2150 794Q2147 793 2146 791L2148 790L2146 788Q2146 786 2146.0 777.5Q2146 769 2146.0 760.5Q2146 752 2145 751Q2146 749 2147.0 746.0Q2148 743 2149 742L2145 736V734Q2145 729 2148.0 724.5Q2151 720 2149 716L2145 714Q2141 707 2147.0 698.0Q2153 689 2150 680Q2146 680 2141.5 678.5Q2137 677 2137 672Q2131 672 2130.0 669.0Q2129 666 2130 660Q2122 660 2122 650Q2125 647 2124.5 643.0Q2124 639 2124 636H2125Q2126 637 2127 638V637Q2125 635 2125 632Q2129 626 2130 622L2132 624Q2132 618 2135.5 614.0Q2139 610 2141 606H2145V601Q2153 597 2158.5 589.5Q2164 582 2168 575Q2167 571 2166.0 568.0Q2165 565 2167 561L2171 560Q2173 549 2174.5 538.0Q2176 527 2177 517Q2182 516 2181.5 513.5Q2181 511 2180 508Q2176 512 2169.5 514.0Q2163 516 2160 518V521Q2156 522 2146.5 527.0Q2137 532 2134 534V535Q2129 540 2115.0 548.5Q2101 557 2094 557L2097 559H2095Q2085 566 2071.0 573.0Q2057 580 2044 583V588Q2040 589 2036.0 590.0Q2032 591 2027 591V596Q2022 597 2016.5 600.0Q2011 603 2006 606Q2006 606 2002 604Q1999 610 1989.5 616.0Q1980 622 1973 621V625Q1965 630 1956 630Q1953 632 1949.5 635.0Q1946 638 1941 640L1934 639L1931 645Q1928 647 1920.0 651.0Q1912 655 1909 654L1907 657Q1897 659 1886.5 666.5Q1876 674 1865 671Q1866 673 1866 676Q1866 680 1864.0 684.0Q1862 688 1860 692Q1862 692 1863 695Q1859 698 1857.5 708.0Q1856 718 1855 723H1852L1853 725Q1853 725 1856 727Q1860 726 1863.0 725.5Q1866 725 1870 725V728Q1872 726 1876 730Q1877 727 1878 726V730Q1884 730 1888 728L1886 732H1890Q1891 729 1892 728L1900 731Q1902 732 1901.0 732.5Q1900 733 1903 734L1904 731Q1905 731 1906.5 731.5Q1908 732 1910 732L1914 741Q1919 737 1924 737Q1926 737 1928.5 737.5Q1931 738 1934 739V744Q1938 743 1941 743Q1946 743 1950 745Q1950 747 1953 748L1954 746L1955 751L1957 748L1959 751H1960V748L1961 749Q1965 750 1966.0 751.5Q1967 753 1968 755Q1969 754 1970.5 754.0Q1972 754 1973 753V756Q1975 756 1978.5 756.5Q1982 757 1984 759V763Q1986 765 1988.0 763.5Q1990 762 1991 763Q1994 763 1997.0 766.5Q2000 770 2002 772L2003 770V774L2005 773Q2007 775 2010 774Q2013 778 2014.5 780.5Q2016 783 2023 784V788Q2025 788 2026.5 789.5Q2028 791 2031 791L2032 789Q2033 791 2033.5 792.0Q2034 793 2034 795L2033 798Q2037 798 2039.5 798.5Q2042 799 2046 799L2044 803H2046Q2049 803 2051.0 805.0Q2053 807 2056 809L2055 813H2057Q2061 813 2061.0 815.0Q2061 817 2063 819L2066 818V824Q2074 824 2073.0 827.5Q2072 831 2075 834Q2080 832 2086.5 843.0Q2093 854 2095 858V856Q2098 855 2097.0 858.0Q2096 861 2096 862Q2098 862 2099.0 861.5Q2100 861 2101 863Q2105 867 2107.0 872.0Q2109 877 2112 882L2110 886Q2117 887 2121.0 896.5Q2125 906 2123 912Q2125 912 2125.5 911.0Q2126 910 2127 915L2126 917L2130 916Q2131 921 2132.0 926.5Q2133 932 2133 937L2137 938Q2142 945 2144.5 960.0Q2147 975 2146 983Q2148 987 2147.0 987.0Q2146 987 2147 992L2151 994V997Q2151 1002 2148 1004L2152 1005Q2154 1010 2154.5 1025.0Q2155 1040 2155 1045L2152 1046Q2155 1049 2155 1052Q2155 1056 2152.5 1059.0Q2150 1062 2151 1064L2155 1065L2151 1111L2146 1115Q2146 1121 2148 1121L2146 1136L2144 1137L2141 1139Q2144 1142 2144 1146Q2144 1158 2137 1165Q2139 1166 2139 1169Q2139 1171 2136.0 1174.0Q2133 1177 2132 1180Q2134 1186 2134 1186Q2134 1189 2133.0 1190.5Q2132 1192 2131 1196H2127L2129 1205H2126L2125 1201L2124 1208H2125Q2126 1207 2127 1206V1208H2126L2123 1212Q2126 1214 2121.5 1225.0Q2117 1236 2109.5 1250.5Q2102 1265 2094.5 1276.5Q2087 1288 2084 1291Q2087 1291 2087.0 1291.5Q2087 1292 2085 1292Q2084 1294 2082.0 1295.5Q2080 1297 2077 1299V1301Q2077 1307 2074 1310L2066 1315L2067 1319Q2066 1321 2064.0 1321.5Q2062 1322 2060 1324Q2064 1324 2063.5 1325.0Q2063 1326 2061 1326Q2060 1329 2056.5 1330.5Q2053 1332 2052 1336V1337Q2047 1342 2042.0 1347.5Q2037 1353 2030 1357H2027V1362Q2025 1364 2020 1366L2021 1369H2020Q1999 1388 1977.5 1400.5Q1956 1413 1931 1426Q1930 1425 1928 1425Q1925 1425 1921.5 1427.0Q1918 1429 1916 1430Q1914 1429 1901.5 1431.5Q1889 1434 1884 1434ZM2849 396Q2854 395 2857.5 394.5Q2861 394 2865 396Q2865 386 2868.0 377.0Q2871 368 2870 358L2872 357L2873 356L2875 359L2877 358Q2877 355 2877.0 353.5Q2877 352 2879 349Q2872 348 2874.0 345.0Q2876 342 2877 339Q2873 337 2872.5 337.5Q2872 338 2872 332Q2874 330 2874 326Q2874 322 2872.5 318.0Q2871 314 2872 310Q2873 309 2874.0 308.0Q2875 307 2875 305L2870 300Q2869 298 2869 294Q2869 291 2869.5 288.5Q2870 286 2870 284Q2870 278 2865 273V272Q2865 269 2866.5 268.0Q2868 267 2866 263L2860 260Q2859 257 2858.0 254.0Q2857 251 2856 248H2855Q2854 256 2851.0 263.0Q2848 270 2845 278Q2846 303 2834.0 331.0Q2822 359 2820 387L2821 389Q2829 389 2835.5 391.0Q2842 393 2849 393ZM2802 459Q2802 459 2799.0 476.5Q2796 494 2792.0 520.5Q2788 547 2784.0 575.5Q2780 604 2777.5 627.0Q2775 650 2775 660H2776V657Q2778 655 2778.5 652.5Q2779 650 2782 649L2784 650V644Q2784 642 2784.5 639.5Q2785 637 2786 636Q2788 633 2790.5 633.0Q2793 633 2794 627Q2790 625 2791.0 623.0Q2792 621 2793 618L2800 617L2803 600Q2807 601 2807.0 600.0Q2807 599 2807 595Q2806 593 2806 589H2809V588Q2808 586 2808.5 583.5Q2809 581 2810 578L2813 580V578Q2816 574 2816.5 568.0Q2817 562 2817 557H2821V554Q2823 552 2823.0 548.0Q2823 544 2825 542Q2826 540 2827.0 539.0Q2828 538 2829 537Q2827 537 2827 535Q2830 531 2829.5 525.5Q2829 520 2832 516H2834Q2836 514 2835.0 511.5Q2834 509 2835 506L2841 501L2839 498H2841Q2841 481 2846.0 476.5Q2851 472 2855 459Q2853 453 2853 451Q2853 444 2856.0 439.0Q2859 434 2857 433Q2856 430 2845.5 428.0Q2835 426 2824.5 424.5Q2814 423 2811 425Q2807 432 2807.5 441.5Q2808 451 2803 459L2802 456ZM2949 781 2947 783H2949Q2951 781 2954.5 779.5Q2958 778 2960 776Q2962 774 2962.0 771.0Q2962 768 2964 767H2969L2971 768V767L2969 764Q2971 763 2978.0 758.5Q2985 754 2991.0 748.0Q2997 742 2996 740L3007 735Q3007 728 3008.5 725.5Q3010 723 3018 723Q3019 719 3019.5 717.5Q3020 716 3021 712Q3020 712 3019.0 711.5Q3018 711 3020 711Q3022 707 3027 707L3026 701Q3028 698 3030.0 695.0Q3032 692 3036 691L3037 692V688Q3036 688 3034 687Q3038 684 3044.0 674.5Q3050 665 3051 661Q3049 660 3049 656L3053 652L3051 650Q3054 650 3057 648L3054 642Q3059 640 3060 635Q3059 635 3058.0 634.5Q3057 634 3056 634Q3058 632 3058.0 629.0Q3058 626 3058 624Q3060 624 3060 623Q3059 623 3058 622Q3060 618 3060 615H3064Q3065 613 3065 607Q3064 605 3065.0 602.5Q3066 600 3065 598Q3065 596 3062.5 594.0Q3060 592 3060 591Q3060 586 3057.5 577.5Q3055 569 3053 565Q3056 563 3057 562Q3052 560 3045.5 552.5Q3039 545 3040 538Q3038 538 3036.5 536.5Q3035 535 3033 536Q3019 547 3001.5 572.0Q2984 597 2981 617L2980 615V617Q2976 624 2975.5 632.0Q2975 640 2970 646L2969 643Q2969 647 2965.5 663.0Q2962 679 2960 683H2958Q2956 683 2956.5 687.5Q2957 692 2957 694Q2954 694 2953 698Q2955 702 2955 705Q2955 712 2952.0 718.5Q2949 725 2947 730Q2947 733 2948.5 733.5Q2950 734 2949 736H2947V743H2945V745Q2945 748 2947.0 750.0Q2949 752 2947 756L2943 757Q2943 759 2946 761L2945 781ZM898 893Q900 893 902.0 891.0Q904 889 906 890Q908 890 909.0 891.5Q910 893 913 893L914 890Q916 889 918 889Q922 889 925.0 890.0Q928 891 931 891Q941 891 947.5 886.0Q954 881 964 883L962 879H975Q977 876 980 874V873Q982 874 986 874Q986 871 988.0 869.0Q990 867 991 865Q994 865 994.5 864.5Q995 864 998 866Q1001 860 1006 857L1010 858Q1012 856 1013.0 853.5Q1014 851 1016 850H1023Q1025 848 1027.0 844.0Q1029 840 1032 839Q1033 838 1036.5 838.5Q1040 839 1041 839Q1046 824 1058 820Q1058 821 1060 823V820H1063Q1064 815 1064.5 816.0Q1065 817 1063 813Q1070 809 1074 809L1078 801L1082 803V801Q1082 797 1087.5 791.0Q1093 785 1095 784Q1099 785 1102 783Q1099 781 1099 778Q1102 776 1103.0 774.0Q1104 772 1108 771Q1108 773 1108.5 773.5Q1109 774 1109 772L1111 771V765H1115Q1115 760 1117 758V757H1121Q1122 754 1127.5 745.0Q1133 736 1139.5 727.5Q1146 719 1148 719V715Q1150 715 1151.0 714.5Q1152 714 1153 714L1152 711H1153L1150 709Q1152 709 1154 707H1153Q1154 704 1156.0 700.0Q1158 696 1159 695Q1160 693 1161.5 693.5Q1163 694 1164 693Q1166 691 1165.0 688.0Q1164 685 1166 683Q1168 681 1169.5 680.5Q1171 680 1172 679Q1172 675 1172.5 671.0Q1173 667 1173 663Q1182 660 1182 651Q1179 650 1178 648Q1181 646 1181.0 646.5Q1181 647 1182 643Q1181 641 1181.5 637.5Q1182 634 1182 632Q1184 632 1185 631Q1184 631 1183 628L1184 629Q1185 630 1185.0 628.5Q1185 627 1185 627Q1183 626 1183 623Q1183 621 1184.0 619.5Q1185 618 1186 616Q1185 613 1183.5 610.0Q1182 607 1182 604Q1181 602 1182.0 600.5Q1183 599 1182 597Q1181 593 1172.5 580.0Q1164 567 1161 566L1158 567Q1155 565 1152.5 563.0Q1150 561 1148 559Q1147 560 1144 560Q1140 560 1133.5 558.0Q1127 556 1123 556Q1121 556 1118.5 555.5Q1116 555 1114 555Q1104 556 1093.0 560.0Q1082 564 1072 561Q1068 562 1066.5 564.5Q1065 567 1061 563Q1052 572 1037 572Q1037 574 1032 574V573Q1031 576 1028 576Q1025 579 1019.5 580.5Q1014 582 1010 581Q1009 584 1008 584Q1005 586 1000 586Q985 586 987.5 587.0Q990 588 984 591V592Q984 596 977.5 595.0Q971 594 966 598Q966 598 968.0 598.0Q970 598 968 599H966L964 600Q964 598 962 597V598L960 597V598Q954 602 949.5 608.0Q945 614 935 610Q933 611 932.0 613.5Q931 616 929 617Q928 618 922.5 619.5Q917 621 916 620L914 623Q913 624 906.0 626.5Q899 629 897 628Q896 628 895.5 629.0Q895 630 896 631Q887 636 874 640Q874 638 872 637Q870 641 869.5 640.0Q869 639 867 642Q869 642 870 643Q869 645 868.0 648.0Q867 651 865 653L860 656Q859 659 860.5 658.5Q862 658 862 660Q862 667 857.5 674.5Q853 682 851 690H845Q847 695 846.0 700.0Q845 705 845 710Q844 710 843.5 710.5Q843 711 842 711Q842 711 843.5 711.0Q845 711 844 712Q840 715 842.0 720.0Q844 725 841 730L837 733Q839 735 839 740Q839 744 837.5 749.0Q836 754 835 759Q835 760 834.5 761.5Q834 763 834 764Q834 767 834.5 770.0Q835 773 835 776Q835 780 832 786Q833 787 833.5 787.0Q834 787 834 787L836 784Q840 781 840.0 781.5Q840 782 843 778Q846 781 854 779Q854 778 854.5 777.0Q855 776 855 775L854 772H856Q858 776 863 776L866 770L872 772L873 770Q871 766 871 764Q875 763 884 763Q883 760 884 757H894Q894 753 895 752L898 753Q898 750 900 750Q902 750 904 751Q904 750 904.5 748.5Q905 747 905 746Q906 748 908 750Q910 747 910 743H913Q915 744 917.0 743.0Q919 742 921 742Q921 739 922 738H924V734Q927 734 927 736Q933 737 933 730L934 729Q937 728 937.0 727.5Q937 727 940 726Q940 730 941 729V726L944 721Q947 723 950 723Q951 717 956.0 714.0Q961 711 967 711Q967 714 967.5 716.0Q968 718 967 720Q967 721 958.0 730.5Q949 740 939.0 749.0Q929 758 927 759V758Q926 758 925.0 760.5Q924 763 924 763Q922 764 919.0 764.0Q916 764 914 766Q910 772 906.5 776.5Q903 781 895 782Q895 784 896.0 784.0Q897 784 895 785V784Q894 784 893.0 786.5Q892 789 892 789Q889 790 885.0 791.5Q881 793 879 795L881 798Q870 802 862.0 810.5Q854 819 843 824Q843 827 842.5 829.5Q842 832 843 834H848Q848 839 847.5 839.5Q847 840 845 845H848Q849 843 849.0 843.5Q849 844 851 844Q850 847 850 850Q855 851 861.0 860.5Q867 870 872 873V874H869Q872 877 875.0 878.0Q878 879 881 881V882Q881 883 883.0 884.5Q885 886 886 889Q888 888 890 888Q892 888 893.0 890.0Q894 892 898 893ZM2256 686Q2259 678 2265.5 683.0Q2272 688 2276 681Q2280 679 2284 680Q2286 683 2289 683V680Q2292 680 2294.5 681.0Q2297 682 2300 682V677Q2302 677 2309.5 675.5Q2317 674 2318 676H2319L2322 673L2325 674L2326 670L2330 672V668L2335 669L2336 664Q2338 662 2342.0 663.0Q2346 664 2349 663Q2351 661 2351.5 660.0Q2352 659 2353 658Q2354 660 2358 660Q2361 657 2361 657V656Q2357 656 2357.5 656.0Q2358 656 2357 652Q2356 650 2356.0 647.5Q2356 645 2355 643H2357Q2356 643 2360 641L2358 637H2357V638Q2355 638 2355.5 637.5Q2356 637 2355 636Q2355 634 2351.5 625.5Q2348 617 2346 615L2348 605Q2342 599 2341 596L2338 598V594Q2340 593 2339.0 591.0Q2338 589 2338 588Q2333 588 2331 589Q2330 584 2319.5 576.5Q2309 569 2304 568Q2302 569 2299 569Q2295 569 2292.0 567.5Q2289 566 2287 567Q2285 571 2278.5 572.0Q2272 573 2269 572V575Q2266 575 2264 574Q2263 581 2253.0 584.5Q2243 588 2238 590Q2241 596 2233 597Q2232 597 2231.5 596.5Q2231 596 2230 596V598Q2230 601 2228.0 603.0Q2226 605 2224 608Q2223 607 2219 607Q2221 617 2218.0 627.5Q2215 638 2215 649Q2209 648 2210.5 648.0Q2212 648 2207 652H2213Q2213 654 2211.5 661.5Q2210 669 2211 670Q2213 679 2230.5 681.0Q2248 683 2256 686ZM2247 908Q2249 909 2251.0 905.5Q2253 902 2257 904Q2265 907 2268 907Q2272 907 2281 904L2286 905Q2288 902 2291 900L2299 902Q2300 900 2301.5 897.0Q2303 894 2304 893Q2307 893 2307 893V892Q2305 892 2304 891H2305V890L2309 893V891Q2309 890 2308.5 889.5Q2308 889 2308 889Q2310 887 2312.5 885.0Q2315 883 2318 882Q2317 880 2317 877Q2318 876 2318.5 875.5Q2319 875 2320 874Q2322 872 2324 875V873Q2323 873 2322.0 872.5Q2321 872 2322 872H2324Q2325 871 2326 871L2324 868Q2327 866 2325.5 865.5Q2324 865 2325 862Q2327 860 2329.0 858.0Q2331 856 2332 855V849Q2334 847 2335.5 846.0Q2337 845 2338 843Q2339 841 2338.0 838.5Q2337 836 2337 834Q2338 830 2341.0 826.5Q2344 823 2345 819Q2347 817 2345.5 817.0Q2344 817 2348 814Q2345 807 2346 802L2350 801L2349 790H2353Q2352 787 2352 784Q2352 782 2353.5 780.5Q2355 779 2357 776Q2356 774 2355.5 771.0Q2355 768 2354 766Q2356 766 2357 765L2356 764L2355 762Q2357 761 2357 756Q2356 756 2355 753Q2357 752 2357 748Q2359 746 2357.0 746.0Q2355 746 2356 743Q2358 744 2358.0 741.5Q2358 739 2358 739H2362Q2362 733 2360 731Q2360 734 2358 735V734Q2357 732 2357 729Q2359 725 2358.0 719.5Q2357 714 2358 710L2362 707Q2361 704 2361 702Q2361 700 2362.0 698.5Q2363 697 2364 693H2360Q2360 688 2360.0 684.0Q2360 680 2358 676Q2355 676 2355 676V677Q2356 678 2355.5 679.5Q2355 681 2356 683Q2352 684 2348.5 686.5Q2345 689 2341 691Q2337 692 2333.0 690.0Q2329 688 2327 692V695Q2316 696 2305.0 700.5Q2294 705 2283 707H2280Q2276 707 2273.0 705.0Q2270 703 2266 705Q2265 706 2263.5 707.5Q2262 709 2260 710Q2258 711 2251 711Q2242 711 2231.5 710.0Q2221 709 2216 709V704Q2215 703 2213 703H2210Q2209 704 2209 706Q2207 708 2207 713Q2207 716 2207.5 719.0Q2208 722 2206 725L2202 736H2205Q2205 741 2203 743L2205 745Q2206 749 2205.5 748.5Q2205 748 2203 749Q2204 750 2205.0 753.0Q2206 756 2205 758H2203Q2202 759 2205.5 770.0Q2209 781 2204 785Q2203 787 2205.5 789.0Q2208 791 2206 795L2202 798L2206 800Q2204 800 2203 801H2207Q2207 805 2206.5 814.5Q2206 824 2204 827Q2206 831 2207.0 830.5Q2208 830 2209 836H2212Q2213 839 2213.5 843.0Q2214 847 2212 850H2216Q2215 852 2213 856Q2216 857 2217 858Q2217 860 2216.5 861.5Q2216 863 2216 864Q2222 864 2221.5 868.0Q2221 872 2220 875Q2221 877 2222.0 878.5Q2223 880 2224 882L2228 880Q2230 886 2232.5 888.0Q2235 890 2239 894Q2236 896 2235 898L2238 902Q2238 901 2241 900V904Q2244 904 2244.5 905.5Q2245 907 2247 908ZM1910 1399Q1917 1399 1923 1401L1924 1398H1928L1929 1394Q1930 1393 1930.5 1393.0Q1931 1393 1931 1393Q1933 1393 1935.0 1394.0Q1937 1395 1942 1390Q1942 1393 1946 1394Q1946 1389 1947.5 1387.5Q1949 1386 1952 1384H1954L1955 1388Q1958 1384 1962 1384Q1964 1378 1964 1377L1962 1376L1963 1374L1968 1376Q1968 1372 1969 1371Q1974 1373 1976 1369L1975 1366Q1977 1366 1978.0 1364.5Q1979 1363 1981 1362Q1985 1366 1990 1361Q1988 1358 1988 1355Q1990 1354 1991.5 1352.5Q1993 1351 1994 1350L1997 1351Q1997 1349 1997.5 1346.5Q1998 1344 1998 1342H2002L2003 1337Q2006 1338 2010.5 1333.0Q2015 1328 2018 1330V1323Q2022 1317 2025.5 1311.0Q2029 1305 2032 1299L2039 1300V1299Q2038 1297 2038.5 1294.5Q2039 1292 2039 1289L2047 1285L2044 1281Q2052 1274 2054.0 1262.5Q2056 1251 2065 1245L2062 1242H2068Q2068 1233 2071.5 1222.5Q2075 1212 2076 1205H2078Q2082 1200 2081.5 1193.5Q2081 1187 2082 1182H2085L2087 1180Q2084 1172 2085 1167L2089 1166Q2087 1164 2087 1161Q2087 1156 2088.5 1150.0Q2090 1144 2091 1142L2095 1138Q2091 1137 2091.0 1135.5Q2091 1134 2091 1131Q2098 1127 2098 1116H2094Q2094 1111 2095.5 1107.0Q2097 1103 2097 1099L2099 1097L2096 1096Q2095 1088 2095.0 1082.5Q2095 1077 2095 1073Q2095 1061 2096.5 1059.0Q2098 1057 2099 1046Q2094 1045 2094.0 1042.5Q2094 1040 2094 1036Q2094 1035 2096 1035L2097 1038V1033L2092 1030Q2094 1029 2094 1023Q2094 1016 2092 1010Q2090 1010 2090 1004Q2093 1002 2092.0 1000.5Q2091 999 2089 997L2090 994Q2089 990 2085 986Q2085 985 2086.0 979.0Q2087 973 2084 974H2083V962L2077 957Q2078 954 2079.0 950.0Q2080 946 2078 944Q2071 939 2071.0 932.5Q2071 926 2069 918H2065L2062 914Q2064 910 2063.5 908.5Q2063 907 2062 903Q2059 904 2059 897Q2056 895 2058 890Q2049 889 2047 879L2049 877Q2043 876 2043.5 873.5Q2044 871 2042 867H2039Q2039 860 2038 856Q2038 857 2036.0 858.0Q2034 859 2033 859Q2032 845 2028.0 845.5Q2024 846 2023 843Q2019 840 2015.0 831.5Q2011 823 2006 825Q2000 821 1996.0 814.5Q1992 808 1987 803Q1983 799 1978.5 797.0Q1974 795 1969 791L1968 788Q1964 784 1957.5 782.5Q1951 781 1949 774Q1944 773 1942.5 770.5Q1941 768 1938 767Q1929 767 1917.0 760.5Q1905 754 1898 749V753Q1897 751 1886.0 748.0Q1875 745 1864.5 742.5Q1854 740 1852 741Q1850 744 1847.5 759.0Q1845 774 1842.0 793.5Q1839 813 1837.0 829.5Q1835 846 1834 852H1831Q1833 854 1833 860Q1833 865 1832.0 870.0Q1831 875 1829 879Q1830 881 1830 887Q1830 895 1828.0 905.0Q1826 915 1824 921Q1825 925 1825.0 928.0Q1825 931 1825 933Q1825 938 1823.5 938.5Q1822 939 1820 947Q1823 953 1823 959Q1823 964 1822.0 969.5Q1821 975 1819 980Q1820 983 1820.0 986.0Q1820 989 1820 991Q1820 1000 1814 1014Q1819 1017 1819 1022Q1819 1026 1817.0 1031.0Q1815 1036 1817 1039L1812 1042Q1816 1051 1816 1070Q1816 1081 1815.0 1093.0Q1814 1105 1814 1114L1811 1115Q1814 1116 1815.0 1136.5Q1816 1157 1816 1179Q1816 1194 1816.0 1205.5Q1816 1217 1814 1222Q1818 1228 1819.0 1233.5Q1820 1239 1820 1244Q1820 1250 1819.0 1253.5Q1818 1257 1818 1258L1822 1260Q1825 1267 1825 1274V1282Q1825 1285 1825.5 1288.0Q1826 1291 1827 1294Q1830 1304 1831.5 1304.5Q1833 1305 1833 1319Q1835 1325 1840.5 1333.5Q1846 1342 1847 1348Q1848 1349 1847.0 1351.0Q1846 1353 1847 1355Q1847 1354 1847.5 1352.5Q1848 1351 1848 1352V1355Q1852 1356 1859.0 1366.5Q1866 1377 1868 1381L1870 1380Q1872 1381 1873.5 1383.0Q1875 1385 1876 1387L1884 1390L1885 1394Q1888 1395 1890.0 1393.5Q1892 1392 1895 1394Q1899 1396 1898.5 1398.0Q1898 1400 1905 1400Q1906 1399 1910 1399ZM1131 833Q1131 833 1131 833ZM4168 1068Q4155 1064 4143.0 1047.5Q4131 1031 4126 1020L4133 1002L4126 1003V1000L4145 982Q4143 980 4143 979Q4143 976 4148.5 973.5Q4154 971 4157.0 969.0Q4160 967 4152 964L4164 952L4178 950L4180 946Q4179 944 4176.0 944.5Q4173 945 4174 944Q4180 941 4193.5 935.0Q4207 929 4219.0 921.0Q4231 913 4234 906H4248L4254 896L4274 894Q4282 883 4286.0 880.5Q4290 878 4303 876L4308 868L4338 856L4345 862Q4357 854 4370.5 845.5Q4384 837 4397 835L4405 840L4413 828L4469 810L4467 805L4487 800L4497 807L4503 793L4505 797Q4508 787 4517.0 783.5Q4526 780 4536.5 778.0Q4547 776 4554.5 771.0Q4562 766 4562 753Q4563 753 4563.0 753.5Q4563 754 4564 754Q4567 754 4568.0 750.0Q4569 746 4565 745L4569 725Q4566 723 4566 717L4567 707Q4567 700 4559 701L4557 689L4551 687L4529 653L4519 657Q4512 653 4497.5 643.5Q4483 634 4481 625L4459 619V613L4441 611L4439 605L4423 602Q4422 597 4417.5 595.5Q4413 594 4411 599L4391 585Q4391 587 4388 587Q4384 587 4375.5 582.0Q4367 577 4362 576L4355 579Q4338 576 4324 564Q4325 567 4320.0 566.0Q4315 565 4317 562L4305 564L4312 559L4303 557Q4291 554 4279 554Q4275 554 4272.0 554.0Q4269 554 4265 555Q4264 553 4266.0 551.5Q4268 550 4270 550H4267Q4261 550 4256.5 548.5Q4252 547 4248 547Q4245 547 4240 550L4228 541H4223Q4217 541 4210.0 540.5Q4203 540 4202 539L4198 531L4194 539L4176 534L4182 531L4168 534L4159 543Q4158 547 4157.5 553.5Q4157 560 4152 562L4156 579L4150 585L4154 587L4152 621H4147Q4152 623 4152 630Q4152 636 4148.0 642.5Q4144 649 4140 653L4148 673L4145 675L4154 826L4164 798L4168 802Q4167 809 4167.0 815.0Q4167 821 4167 828Q4167 840 4167.5 851.5Q4168 863 4168 875Q4168 882 4168.0 890.0Q4168 898 4166 906L4160 908L4168 928H4164Q4158 932 4145.5 927.5Q4133 923 4120.5 915.5Q4108 908 4102 904Q4103 893 4102.5 876.0Q4102 859 4095 850L4100 840H4095L4096 823H4100Q4095 803 4095.0 785.0Q4095 767 4095 748L4100 746L4098 725Q4101 728 4103 728Q4105 728 4105 724Q4105 719 4102.5 714.0Q4100 709 4096 713L4102 697L4098 683L4105 677V649L4110 645L4107 631L4112 627L4105 611Q4110 601 4111.5 588.5Q4113 576 4112 565H4115Q4119 565 4119.5 562.5Q4120 560 4116 557L4095 555L4086 559Q4082 552 4067.0 548.0Q4052 544 4044 543Q4045 541 4045 539Q4045 535 4038.5 536.5Q4032 538 4034 534L4039 519L4067 505L4070 512Q4079 501 4092.5 497.5Q4106 494 4119 491L4126 451L4128 458Q4129 451 4128.5 443.0Q4128 435 4128 427Q4128 417 4129.5 407.0Q4131 397 4138 390L4133 388L4136 366L4145 360V355Q4145 351 4144.5 347.0Q4144 343 4140 345L4148 333L4142 324L4130 330L4128 326Q4128 316 4135.0 303.0Q4142 290 4147 282Q4149 284 4149 284Q4152 284 4155.0 274.0Q4158 264 4159 262L4164 265V246L4178 243Q4180 241 4176.0 239.0Q4172 237 4172 237H4174L4184 225Q4195 226 4211.5 231.5Q4228 237 4230 251Q4230 254 4226.5 256.0Q4223 258 4224 260L4234 265L4218 288H4215Q4210 288 4210 290Q4210 291 4213.0 293.0Q4216 295 4218 296Q4206 306 4205.5 321.5Q4205 337 4196 348L4192 345Q4191 345 4191.0 345.5Q4191 346 4191 346Q4191 348 4193.0 351.5Q4195 355 4196 356Q4187 367 4181.0 393.0Q4175 419 4171.5 446.0Q4168 473 4166 488L4176 494H4184Q4190 494 4196.5 494.5Q4203 495 4208 496V489L4246 494Q4261 486 4277.5 480.0Q4294 474 4310 470L4314 474L4310 468H4327L4329 460Q4348 455 4365.5 446.5Q4383 438 4402 434V423L4423 410Q4424 411 4426 411Q4429 411 4432.0 407.0Q4435 403 4433 400Q4438 396 4446.5 388.0Q4455 380 4457 384Q4456 370 4458.5 355.5Q4461 341 4461 328L4456 326L4445 305L4399 281Q4399 281 4400.5 280.5Q4402 280 4399 279L4367 267V258H4350L4352 248Q4342 251 4327.0 246.0Q4312 241 4303 237V227H4301V229H4300L4301 232L4300 234Q4289 232 4278.0 227.0Q4267 222 4256 220Q4258 218 4255.5 215.0Q4253 212 4251 215Q4248 212 4243 212Q4241 212 4239.0 212.5Q4237 213 4235 213Q4228 213 4218 203L4176 199L4162 187Q4158 191 4144 191Q4137 191 4127.5 190.5Q4118 190 4108 189V183Q4104 184 4100.5 184.0Q4097 184 4094 184Q4082 184 4067 177Q4063 177 4063.0 181.0Q4063 185 4067 185Q4057 185 4047.5 184.5Q4038 184 4029 183V175Q4044 165 4065 159L4067 163Q4088 154 4106.5 149.5Q4125 145 4148 143L4152 147Q4174 137 4196 140L4198 145Q4203 142 4209 142Q4217 142 4226.0 146.0Q4235 150 4240 153L4254 151V154L4280 161L4289 171Q4291 166 4308.5 172.0Q4326 178 4346.0 186.0Q4366 194 4376 197Q4378 198 4373.0 199.5Q4368 201 4369 201H4371Q4379 201 4389.0 204.0Q4399 207 4404 213Q4407 217 4410.5 222.0Q4414 227 4419 229L4425 223L4469 251V262Q4471 264 4476.0 264.0Q4481 264 4481 260L4513 293L4511 300L4523 314L4527 342L4519 346Q4519 347 4521.0 349.0Q4523 351 4523 352L4517 354L4495 386L4485 382V394L4463 406L4453 414L4456 416L4441 418L4445 423Q4427 426 4416 442Q4417 434 4413.5 437.5Q4410 441 4413 444L4395 456Q4393 457 4390.5 457.5Q4388 458 4388 460L4336 484Q4340 486 4333.0 490.0Q4326 494 4317.0 497.0Q4308 500 4305 501Q4308 503 4314.0 506.0Q4320 509 4324 505L4336 515L4367 517L4385 531Q4388 530 4395 530Q4411 530 4426.0 537.5Q4441 545 4456 553V559L4465 557L4473 567Q4474 565 4472.0 563.0Q4470 561 4471 559Q4482 569 4498.5 579.0Q4515 589 4531 591L4527 597Q4527 598 4529.0 599.0Q4531 600 4531 599V595L4537 604L4541 602L4565 621Q4562 618 4566.0 619.5Q4570 621 4567 621L4579 627L4577 631H4579L4595 643Q4600 661 4605.0 667.0Q4610 673 4615.0 677.5Q4620 682 4624.0 695.5Q4628 709 4630 741Q4632 742 4634.5 741.5Q4637 741 4638 741L4636 739L4638 737V734Q4640 734 4642.5 734.5Q4645 735 4647 735Q4652 735 4652 729H4668L4670 720H4692L4694 713L4714 707L4713 713L4696 727Q4696 727 4696.0 726.0Q4696 725 4695 725Q4692 725 4692 734L4668 746Q4668 746 4669.5 746.5Q4671 747 4668 748L4649 758Q4639 764 4627.5 770.0Q4616 776 4611 788Q4612 805 4604.5 811.0Q4597 817 4593 831L4588 826Q4590 838 4575.5 852.0Q4561 866 4545.0 879.5Q4529 893 4523 904Q4522 901 4519 901Q4515 901 4512.0 904.5Q4509 908 4513 910Q4508 914 4500.5 921.5Q4493 929 4487 932L4483 930L4441 960L4437 958Q4436 969 4423.5 973.5Q4411 978 4402 978V986L4371 998L4367 1003L4340 1010V1017L4324 1020L4310 1031L4301 1028L4303 1034Q4293 1039 4271.5 1046.5Q4250 1054 4226.5 1060.0Q4203 1066 4185 1066Q4181 1066 4177.0 1065.5Q4173 1065 4170 1064L4172 1066ZM4182 982Q4181 989 4175.5 995.5Q4170 1002 4168 1010H4172Q4175 1008 4182 1008H4187Q4190 1008 4194.0 1007.5Q4198 1007 4202 1003Q4210 1000 4218 1000Q4221 996 4224 996Q4228 996 4232 998Q4232 994 4249.0 987.5Q4266 981 4285.5 974.0Q4305 967 4312 964V972Q4313 965 4317 962Q4325 964 4327 966Q4329 954 4340.5 950.5Q4352 947 4359 940L4366 942V941Q4366 938 4372.0 935.0Q4378 932 4379 932Q4383 938 4388 934Q4384 933 4383.5 933.5Q4383 934 4381 930Q4388 927 4391.5 921.0Q4395 915 4405 920Q4410 911 4411.5 908.5Q4413 906 4423 908Q4428 902 4427.5 900.5Q4427 899 4437 900V894H4443Q4445 886 4450.5 884.0Q4456 882 4461 878L4463 873Q4473 872 4478.5 867.0Q4484 862 4491 862Q4492 860 4491.0 858.0Q4490 856 4489 854Q4494 852 4496.0 849.0Q4498 846 4503 845Q4504 846 4505.5 847.5Q4507 849 4508 849L4511 845Q4507 845 4507 840Q4511 841 4510.5 840.0Q4510 839 4513 836L4515 840Q4516 831 4520.0 827.5Q4524 824 4533 823V816L4531 819Q4530 820 4529.5 817.5Q4529 815 4529 814L4533 810H4531L4525 814L4523 809Q4521 820 4507.5 819.5Q4494 819 4485 823L4487 828L4475 835L4473 828V835Q4466 836 4459.5 840.5Q4453 845 4445 847Q4442 847 4440.5 845.0Q4439 843 4435 845L4431 852Q4428 852 4424.5 852.5Q4421 853 4417 852Q4418 853 4418 855Q4418 859 4407.5 861.0Q4397 863 4391 866V859Q4387 861 4387.5 860.5Q4388 860 4383 859Q4380 869 4371 873Q4371 868 4367 866L4369 874Q4359 874 4344.5 883.5Q4330 893 4315.5 901.0Q4301 909 4289 906Q4292 911 4286 914V916L4282 914Q4283 915 4283 917Q4283 920 4277 920Q4272 920 4268 918Q4265 919 4263 924Q4268 924 4268 928Q4264 929 4259.5 931.0Q4255 933 4250 934V940Q4238 941 4229.5 950.5Q4221 960 4210 966Q4209 961 4207.5 960.5Q4206 960 4200 960L4208 970Q4203 972 4200 976L4192 972Q4191 975 4190.0 977.0Q4189 979 4188 982ZM4882 876H4860L4858 870Q4853 870 4847.0 870.5Q4841 871 4836 870Q4831 858 4822.5 850.5Q4814 843 4812 828L4816 830Q4811 817 4809.0 804.0Q4807 791 4806 778Q4803 775 4802.5 770.5Q4802 766 4802 762Q4802 761 4801.5 761.0Q4801 761 4801 760Q4801 756 4804.0 750.5Q4807 745 4804 738H4800Q4800 735 4799.5 728.5Q4799 722 4799 715Q4799 707 4800.0 698.5Q4801 690 4802 686L4808 682V681Q4808 677 4803.5 675.0Q4799 673 4802 666Q4804 662 4804.5 651.0Q4805 640 4805 630Q4805 624 4805.0 619.0Q4805 614 4804 612Q4792 615 4779.5 609.5Q4767 604 4756 602Q4755 609 4751.0 610.5Q4747 612 4742 616H4746L4744 628H4746L4748 634Q4744 637 4740.0 640.0Q4736 643 4742 648L4736 656L4738 660Q4735 665 4732.5 667.5Q4730 670 4730 674Q4730 679 4732 682Q4731 683 4728.5 681.5Q4726 680 4726 678Q4725 685 4724.0 691.0Q4723 697 4724 704L4718 706L4720 710L4708 718Q4711 727 4711 730Q4711 735 4708 744L4698 746L4702 754L4694 760L4696 766Q4693 773 4690 778H4686L4684 770H4682V774L4684 782Q4683 783 4680.0 783.5Q4677 784 4678 786L4684 788Q4678 789 4677.5 791.0Q4677 793 4672 794Q4672 789 4670.0 786.5Q4668 784 4666 780Q4668 778 4672.5 769.0Q4677 760 4680.5 749.5Q4684 739 4684 736L4692 732V718H4698L4694 715Q4699 713 4701.0 700.0Q4703 687 4710 680L4712 686Q4712 653 4730 628L4726 624Q4731 619 4733.0 609.0Q4735 599 4736 592Q4727 589 4728.0 585.0Q4729 581 4726 574L4724 576Q4717 566 4717 558Q4717 553 4719.0 547.5Q4721 542 4723 535Q4720 530 4720 524Q4720 518 4722 512H4726L4728 496Q4730 494 4731.0 494.5Q4732 495 4734 492V489Q4744 461 4751.0 459.0Q4758 457 4760 454Q4761 455 4764 455Q4766 455 4767.5 453.5Q4769 452 4773 451L4776 450Q4778 449 4776.5 452.5Q4775 456 4776 456L4780 450L4786 458Q4782 463 4782 470H4788L4784 495L4778 496Q4783 498 4783 502Q4783 506 4780.0 510.0Q4777 514 4774 516L4778 520L4768 522V524L4776 526H4772L4768 530L4764 550Q4761 549 4762.5 554.0Q4764 559 4756 572V576L4758 580Q4760 585 4767.5 584.0Q4775 583 4780 584Q4797 567 4808.0 556.0Q4819 545 4832.5 539.5Q4846 534 4872 534V535Q4872 537 4871.0 539.5Q4870 542 4870 544H4882V548L4876 550Q4877 552 4877.0 555.0Q4877 558 4878 560L4872 562Q4874 564 4874 568Q4874 571 4872.5 574.0Q4871 577 4872 580L4866 582Q4871 586 4870.5 589.0Q4870 592 4870 599L4864 600Q4866 603 4868 611L4860 612V618H4866V630L4860 632L4864 636L4858 638Q4859 639 4863.0 641.5Q4867 644 4862 644Q4859 647 4861.0 647.0Q4863 647 4864 652L4856 658Q4863 660 4862.5 664.0Q4862 668 4862 674L4854 676Q4861 680 4861 685Q4861 690 4858.0 695.5Q4855 701 4854 706Q4857 706 4857.5 710.5Q4858 715 4858 716Q4862 720 4862 728H4854Q4855 730 4858.5 731.5Q4862 733 4864 734Q4864 739 4864.5 745.0Q4865 751 4865 756Q4865 764 4863.0 772.0Q4861 780 4856 788H4870Q4870 795 4873.5 802.5Q4877 810 4880 816L4874 820Q4879 820 4880.5 821.0Q4882 822 4886 825L4880 830Q4885 830 4888.0 830.5Q4891 831 4896 830L4894 836H4900V830Q4902 830 4907.0 830.5Q4912 831 4912 828Q4908 828 4907.0 827.0Q4906 826 4910 826Q4921 809 4934.0 795.0Q4947 781 4952 760L4962 762Q4960 753 4963.5 740.0Q4967 727 4975.5 717.0Q4984 707 4994 706Q4994 706 4995.5 707.0Q4997 708 4997 711Q4997 714 4994 720Q4991 721 4990.0 722.0Q4989 723 4987 725Q4987 728 4987.0 731.0Q4987 734 4988 736L4982 738L4984 742Q4980 746 4979.5 745.0Q4979 744 4978 752Q4977 772 4963.0 790.0Q4949 808 4942 820V826Q4938 833 4930 836V844Q4927 845 4923.5 846.0Q4920 847 4924 850Q4916 850 4912.5 852.5Q4909 855 4904 860L4908 864Q4904 865 4899.5 865.5Q4895 866 4890 866ZM5157 929Q5151 929 5140.0 922.5Q5129 916 5120.5 905.0Q5112 894 5112 882Q5112 873 5117 867Q5116 861 5113.0 849.0Q5110 837 5114 832Q5116 832 5118.5 829.0Q5121 826 5119 823L5114 818L5116 791H5119Q5121 787 5121 783Q5121 778 5119.5 773.0Q5118 768 5116 764H5117V759Q5117 750 5117.5 742.0Q5118 734 5119 725Q5123 727 5121.0 723.0Q5119 719 5119 723Q5116 712 5121.0 698.0Q5126 684 5126 673Q5126 666 5123 662Q5123 667 5120.5 673.0Q5118 679 5116 684V679H5114Q5114 686 5111 689L5117 691Q5106 703 5106 723H5099L5102 732L5090 733L5102 735Q5098 740 5096.5 746.0Q5095 752 5094 757L5084 759Q5087 762 5087 768Q5087 779 5078.0 793.0Q5069 807 5063 812Q5067 814 5067 823L5065 825H5055Q5057 826 5058.5 830.5Q5060 835 5060 837Q5056 838 5054.0 841.0Q5052 844 5048 845Q5052 845 5055 851Q5051 857 5044.0 874.5Q5037 892 5029 895L5022 886Q5021 893 5013.0 894.0Q5005 895 4999 895Q4991 885 4981.5 881.0Q4972 877 4966.0 870.5Q4960 864 4960 847Q4962 845 4963.0 834.0Q4964 823 4964 810Q4964 795 4963.5 780.0Q4963 765 4963 759H4964Q4969 759 4969 751Q4969 746 4968.0 738.0Q4967 730 4967 723Q4967 715 4969.0 708.5Q4971 702 4977 698L4973 689L4978 671L4975 664L4985 615Q4981 612 4981 610Q4981 608 4982.0 606.0Q4983 604 4983 601L4989 598L4983 594Q4989 588 4989 568Q4989 553 4985.5 537.5Q4982 522 4975 518Q4964 512 4949.5 510.5Q4935 509 4921 508Q4921 504 4923.0 502.5Q4925 501 4921 501Q4927 495 4936 493Q4942 487 4953 487Q4961 487 4968.5 489.0Q4976 491 4980 493Q4982 481 4996.0 481.0Q5010 481 5019 481Q5021 487 5028.5 488.0Q5036 489 5041 488Q5042 498 5045.0 502.5Q5048 507 5048 512Q5048 517 5041 530L5045 533L5041 555L5036 557H5041Q5041 567 5037.5 576.5Q5034 586 5034 594L5038 601L5036 616Q5035 617 5032.0 614.0Q5029 611 5029 613V618L5034 625L5028 627L5034 630L5022 676L5028 678L5026 698L5014 696Q5013 699 5014.5 701.0Q5016 703 5017 703H5018Q5021 703 5021.5 707.5Q5022 712 5022 715Q5021 718 5020.5 721.0Q5020 724 5020 727Q5020 731 5020.5 736.0Q5021 741 5021 746Q5021 751 5019 757L5016 759L5017 767Q5009 773 5009 783Q5014 784 5014 790Q5014 794 5012.5 798.0Q5011 802 5009 805Q5014 814 5015.5 823.5Q5017 833 5019 844Q5021 844 5024.5 843.5Q5028 843 5029 840Q5031 836 5039.0 821.0Q5047 806 5055.5 792.0Q5064 778 5067 778L5063 772H5073L5063 766L5075 756Q5074 751 5074.0 748.0Q5074 745 5074 743Q5074 732 5078.0 728.0Q5082 724 5084 711H5090Q5095 705 5094.5 692.0Q5094 679 5096.0 664.5Q5098 650 5111 642L5109 627H5117L5111 622L5115 619Q5114 619 5115.5 616.5Q5117 614 5117 616L5121 611Q5119 610 5121.0 597.5Q5123 585 5127.0 568.5Q5131 552 5134.0 537.5Q5137 523 5138 518L5141 516Q5159 517 5164.0 520.5Q5169 524 5170.5 527.5Q5172 531 5179 532Q5183 536 5187.0 541.5Q5191 547 5194 554Q5189 558 5189 565Q5189 569 5189.5 572.5Q5190 576 5190 580Q5190 585 5189 588L5184 589Q5186 595 5186 598Q5186 602 5185.5 605.5Q5185 609 5184 613L5179 615H5177Q5177 616 5180.5 617.0Q5184 618 5184 618Q5182 622 5181.5 626.0Q5181 630 5181 634V644Q5181 648 5181.0 651.5Q5181 655 5179 659L5173 664Q5174 666 5174 677Q5174 690 5172.5 710.0Q5171 730 5169.0 750.5Q5167 771 5164.5 786.5Q5162 802 5160 805Q5167 815 5167 828Q5167 832 5166.5 837.0Q5166 842 5165 847Q5174 852 5175.5 856.5Q5177 861 5190 861V871Q5195 871 5195 867Q5195 865 5192.5 862.5Q5190 860 5189 857L5206 852Q5207 846 5210.5 838.0Q5214 830 5214 825L5221 823L5223 808L5229 812Q5228 806 5228 800Q5239 791 5244.0 776.0Q5249 761 5260 752L5258 744H5265L5275 733Q5273 732 5271.0 729.0Q5269 726 5270 725L5284 723V727Q5288 731 5280.0 742.0Q5272 753 5270 756Q5273 760 5273 764Q5273 768 5270.0 770.0Q5267 772 5262 776L5265 779Q5264 782 5258.0 794.0Q5252 806 5244.5 821.0Q5237 836 5231.5 847.0Q5226 858 5226 859H5218V874Q5218 883 5208.0 896.0Q5198 909 5184.0 919.0Q5170 929 5157 929ZM5326 883Q5321 885 5306.0 883.0Q5291 881 5272.5 876.5Q5254 872 5240.5 866.0Q5227 860 5225 854Q5233 849 5235.5 842.5Q5238 836 5252 836Q5264 836 5288.0 829.5Q5312 823 5334.0 814.0Q5356 805 5362 798Q5355 793 5354.5 790.0Q5354 787 5343 784V778Q5339 776 5334.5 774.0Q5330 772 5328 768L5331 764L5326 762L5331 760L5329 758Q5325 758 5321.0 759.5Q5317 761 5316 758L5314 750Q5313 756 5312.0 754.5Q5311 753 5311 750Q5299 741 5289 724L5295 722Q5285 720 5281.5 713.5Q5278 707 5279 698H5271V694Q5267 689 5266.0 682.0Q5265 675 5265 668Q5265 659 5266.0 649.5Q5267 640 5267 633Q5269 634 5269.5 634.5Q5270 635 5270 635Q5272 635 5271.5 631.0Q5271 627 5271 624L5277 621L5273 618L5297 583L5314 581V573Q5319 572 5323 566L5317 561Q5322 558 5327.0 554.0Q5332 550 5335 545L5343 547Q5344 539 5357.0 529.5Q5370 520 5385.5 512.5Q5401 505 5408 505L5410 499Q5415 498 5421.0 497.5Q5427 497 5432 497Q5440 507 5451.0 510.5Q5462 514 5468 525L5460 529L5464 539Q5457 543 5455.0 548.0Q5453 553 5447 553Q5446 553 5443.5 552.5Q5441 552 5438 551V559Q5443 563 5443.0 568.5Q5443 574 5442 579L5434 581L5440 583H5438L5432 587L5436 590L5426 592L5436 593H5434Q5427 598 5425.5 597.5Q5424 597 5424 609H5426V604L5432 605Q5428 610 5428 619Q5427 620 5424.0 621.0Q5421 622 5422 624Q5426 627 5426 634Q5426 638 5425.0 643.5Q5424 649 5424 652L5412 657Q5411 646 5408.5 635.5Q5406 625 5406 614H5408L5412 618Q5411 615 5410.5 612.0Q5410 609 5410 605Q5410 594 5413.5 582.5Q5417 571 5418 561Q5412 561 5404 563Q5404 567 5391.0 575.0Q5378 583 5374 585L5378 587Q5372 588 5372.0 590.5Q5372 593 5364 593L5362 599L5352 602L5350 595V604L5355 607Q5347 609 5343.5 615.5Q5340 622 5338 630Q5320 628 5315.0 642.5Q5310 657 5309 670H5305V664L5299 666Q5302 667 5302 670Q5302 671 5300.5 673.5Q5299 676 5297 678H5304Q5302 678 5299.5 679.5Q5297 681 5295 682L5303 684Q5298 691 5298 698Q5298 708 5305 714L5302 722L5309 724L5305 726Q5309 727 5312.0 728.5Q5315 730 5309 732Q5315 732 5321 736Q5320 737 5319.0 739.5Q5318 742 5317 744Q5325 745 5331.5 748.5Q5338 752 5345 756L5342 760Q5356 761 5363.0 769.5Q5370 778 5380 786Q5386 782 5392.0 783.0Q5398 784 5403 777Q5402 778 5400.0 776.5Q5398 775 5398 774Q5413 770 5419.5 763.5Q5426 757 5444 758V754Q5450 748 5459.0 746.5Q5468 745 5476 742V736Q5483 735 5488.5 731.5Q5494 728 5500 726L5508 728L5504 724Q5509 723 5512.5 722.0Q5516 721 5520 720L5522 732Q5515 732 5508.5 734.5Q5502 737 5494 740Q5495 742 5496.0 745.0Q5497 748 5496 750L5480 756L5484 760L5478 758Q5479 759 5479 760Q5479 761 5474.5 763.0Q5470 765 5466 768L5458 770Q5464 770 5463.0 771.0Q5462 772 5458 772Q5451 779 5440 782L5442 780Q5444 778 5441.5 778.0Q5439 778 5438 778Q5435 788 5427.5 789.0Q5420 790 5412 790V798Q5405 799 5400.5 803.5Q5396 808 5400 816Q5393 814 5388 810Q5387 814 5390 818L5400 824Q5394 825 5394 830Q5394 832 5398 838L5392 840Q5398 841 5396.5 842.0Q5395 843 5392 842Q5388 848 5384.0 853.5Q5380 859 5378 864L5355 869L5354 876Q5350 879 5343 879Q5335 879 5329 876ZM5580 960 5579 975 5559 968 5562 966 5554 959Q5553 959 5555.0 958.5Q5557 958 5556 957Q5552 954 5550 954Q5550 954 5550.0 954.0Q5550 954 5550 954Q5550 954 5550.0 954.0Q5550 954 5550 954Q5551 954 5551 951Q5551 949 5549.0 950.0Q5547 951 5547 950L5548 944H5544Q5543 935 5540.5 927.0Q5538 919 5535 912Q5536 910 5538.0 910.5Q5540 911 5540 910L5534 908V905L5533 895Q5537 893 5537 893Q5537 893 5533 893Q5529 893 5532.5 885.0Q5536 877 5532 880L5529 870Q5534 871 5533.0 865.0Q5532 859 5528 864V809Q5527 809 5527.0 806.0Q5527 803 5528 804Q5523 796 5525 784Q5527 783 5528.5 780.5Q5530 778 5527 776Q5526 775 5525.5 778.0Q5525 781 5525 780Q5525 772 5526.5 755.5Q5528 739 5528 726Q5528 720 5528.0 715.0Q5528 710 5526 708L5533 702Q5535 700 5531.5 699.5Q5528 699 5526 700L5527 684Q5529 685 5531 685Q5534 685 5529.5 679.5Q5525 674 5531 671L5527 653Q5532 654 5534.0 653.5Q5536 653 5528 652L5532 608L5535 606V578H5533L5534 565L5537 561L5540 550L5536 549L5543 536Q5539 536 5539 532Q5539 527 5541.5 520.0Q5544 513 5540 510L5544 494Q5547 494 5547 492Q5547 490 5545.5 487.5Q5544 485 5544 484L5550 483L5547 467Q5547 465 5547.5 468.0Q5548 471 5549 470V468Q5549 466 5548.5 462.5Q5548 459 5548 455Q5548 446 5555 447L5549 440Q5555 434 5556.5 421.5Q5558 409 5556 402H5561L5558 393Q5563 394 5562.5 390.0Q5562 386 5559 388Q5559 380 5561.0 372.5Q5563 365 5563 358H5566L5568 332L5574 330L5572 320Q5573 321 5572.0 318.5Q5571 316 5571 314Q5571 311 5574.5 304.5Q5578 298 5578 286Q5583 286 5582.5 274.5Q5582 263 5585 252Q5586 252 5591.0 247.5Q5596 243 5588 238L5592 228H5595Q5596 226 5598.0 219.5Q5600 213 5599 205L5603 204Q5603 203 5602.0 201.0Q5601 199 5602 197H5606L5609 191L5607 189L5610 181L5617 176V180L5618 178L5645 181V184L5643 186H5646V189Q5648 190 5650.5 189.0Q5653 188 5654 189V193L5665 197Q5665 198 5663.0 200.5Q5661 203 5662 204L5668 213L5676 211L5674 210L5685 211Q5686 211 5683.5 209.5Q5681 208 5681 208L5700 211L5699 215Q5703 217 5706.5 221.5Q5710 226 5713 224L5715 237L5721 239L5724 247Q5723 246 5721 246Q5720 246 5720 248Q5720 251 5722.5 256.0Q5725 261 5726 261Q5731 269 5732.0 280.5Q5733 292 5732 300L5727 301L5732 302L5728 304L5727 322L5729 324L5724 335L5725 346L5722 344Q5721 345 5722.5 347.5Q5724 350 5725 350Q5723 355 5717.5 367.0Q5712 379 5715 380L5711 397L5706 394Q5707 407 5701.0 418.5Q5695 430 5691 443Q5691 442 5691.0 444.5Q5691 447 5690 447L5684 442L5685 455Q5683 455 5679.5 463.5Q5676 472 5677 473L5676 475L5672 476Q5670 480 5669.0 481.5Q5668 483 5666 485L5669 487L5655 508L5658 510L5651 514L5639 541Q5638 539 5638.0 542.0Q5638 545 5637 546L5632 545L5631 557L5623 554V560L5628 561V563L5607 584L5608 588L5610 586V589Q5609 592 5602.5 600.0Q5596 608 5591.0 615.5Q5586 623 5586 626L5578 631L5574 643H5573Q5566 643 5566 648L5569 658Q5567 656 5567.0 659.0Q5567 662 5569 660L5558 679Q5558 681 5561.5 679.0Q5565 677 5566 679L5565 689H5561V697Q5563 699 5563.0 702.0Q5563 705 5559 704Q5562 707 5562 713Q5562 719 5559 724L5563 730L5557 746L5561 752L5559 794Q5556 793 5556.0 802.0Q5556 811 5559 804V826Q5555 822 5555.0 827.5Q5555 833 5559 830Q5559 841 5559.0 852.5Q5559 864 5563 875V884H5564Q5569 884 5569.0 872.5Q5569 861 5569 860L5571 861Q5575 856 5569 856L5573 845L5576 847L5578 834L5574 833H5578Q5579 831 5576.5 828.0Q5574 825 5577 824Q5585 818 5580.0 817.0Q5575 816 5579 812H5584L5581 810L5585 809L5580 808Q5581 798 5585.5 789.0Q5590 780 5594 772L5591 771L5593 754Q5594 754 5594.5 754.5Q5595 755 5595 755Q5597 755 5597 751Q5597 747 5596.5 742.5Q5596 738 5600 738L5602 720Q5606 720 5606 718Q5606 714 5603 710L5611 704Q5615 701 5611.0 701.0Q5607 701 5608 698L5615 677L5616 680Q5616 672 5618.5 665.0Q5621 658 5622 650Q5623 651 5625 651Q5626 651 5624.0 648.0Q5622 645 5626 641Q5630 637 5635 634L5631 625Q5634 625 5637.5 619.5Q5641 614 5643.5 610.5Q5646 607 5645 613V605L5651 598Q5655 600 5656 600Q5658 600 5659.0 596.5Q5660 593 5662 591H5673Q5672 592 5672.0 592.5Q5672 593 5672 593Q5672 593 5672.0 593.5Q5672 594 5673 594Q5676 594 5684.0 590.0Q5692 586 5692 586V587L5698 594Q5695 595 5695.5 600.0Q5696 605 5696 609Q5696 610 5699.5 612.5Q5703 615 5704 613L5705 635Q5702 631 5701.5 634.5Q5701 638 5702.5 641.0Q5704 644 5706 640V652H5704L5709 653L5710 665H5704Q5701 668 5705.0 668.5Q5709 669 5710 668L5711 680L5706 684Q5706 685 5709.0 684.5Q5712 684 5711 685Q5710 686 5708.0 686.0Q5706 686 5705 686Q5707 687 5708.5 699.5Q5710 712 5712.0 728.0Q5714 744 5715.0 757.0Q5716 770 5715 773Q5717 774 5718.5 782.5Q5720 791 5721 794Q5719 793 5718.0 792.5Q5717 792 5716 792Q5715 792 5715 793Q5715 795 5724.0 803.0Q5733 811 5733 812Q5733 813 5734.5 816.0Q5736 819 5736 820L5747 819H5749V825Q5751 826 5753.5 825.0Q5756 824 5754 820Q5764 816 5776.0 797.5Q5788 779 5791 769Q5791 771 5793 771Q5795 771 5797.5 767.0Q5800 763 5794 762L5807 745Q5808 746 5809.0 746.0Q5810 746 5810 746Q5812 746 5812 744Q5812 742 5810.5 738.5Q5809 735 5810 734Q5811 732 5812.0 735.5Q5813 739 5814 738Q5816 737 5814.5 733.5Q5813 730 5813 730L5820 727L5822 716L5835 710L5836 720Q5832 719 5833.0 725.5Q5834 732 5829 728Q5829 734 5828.0 740.5Q5827 747 5824 752L5820 753Q5819 753 5819.5 751.0Q5820 749 5818 750Q5818 751 5818.5 753.0Q5819 755 5819 757Q5819 766 5811 779H5808L5807 790L5803 786V797Q5797 794 5796.0 797.0Q5795 800 5794 802L5792 801Q5791 802 5795.5 803.0Q5800 804 5800 804L5783 830V835Q5783 836 5780.5 836.0Q5778 836 5777 838H5780L5779 839H5776L5767 853L5766 849L5764 852L5765 857L5759 865L5752 864Q5754 874 5742.0 877.0Q5730 880 5722 880Q5721 879 5717.0 878.0Q5713 877 5714 882Q5707 880 5700.5 873.5Q5694 867 5690 862L5694 856H5689L5687 845L5682 843Q5682 841 5682.5 839.5Q5683 838 5683 837Q5683 830 5680.5 823.5Q5678 817 5676 812L5672 810L5676 809Q5677 809 5675.0 806.5Q5673 804 5674 804Q5668 799 5668 789V776Q5668 767 5665 765L5669 754L5665 757L5663 753L5662 756L5661 745L5663 743L5661 742L5663 739L5661 738L5663 735H5659L5654 702L5658 701L5654 699H5661L5659 698L5653 692V682Q5653 679 5651.5 676.5Q5650 674 5643 672Q5641 673 5640.0 676.0Q5639 679 5641 679L5635 686L5636 691Q5632 702 5627.5 713.5Q5623 725 5620 736H5618V731L5615 734L5620 738L5613 751Q5616 751 5615 752L5610 753L5614 754H5615L5614 759Q5607 769 5606.0 780.0Q5605 791 5603 804H5599V824Q5598 824 5597.5 823.5Q5597 823 5597 823Q5594 823 5594.5 827.0Q5595 831 5595 833L5594 832V853H5588L5592 861Q5591 864 5587.5 867.0Q5584 870 5591 875Q5587 883 5586.5 890.0Q5586 897 5587 898L5584 912H5579Q5578 913 5581.5 912.5Q5585 912 5584 914L5580 924Q5582 924 5582 931Q5582 937 5581.0 944.5Q5580 952 5580 954L5574 958L5577 959Q5577 960 5575.0 960.0Q5573 960 5574 960ZM5576 602 5577 606V605Q5579 600 5585.0 593.5Q5591 587 5589 582L5595 581L5598 578L5594 574Q5594 573 5595 573Q5600 573 5603 576V574L5598 569L5603 560Q5605 559 5606.0 560.5Q5607 562 5607 563L5610 561Q5609 559 5609.0 554.5Q5609 550 5613 550Q5613 544 5614 542L5618 543L5617 535L5622 534L5618 531Q5623 530 5623.5 523.0Q5624 516 5628 515Q5632 515 5632 516L5628 522H5632L5636 516V515L5631 512V507L5638 508L5636 500Q5641 488 5646.5 481.5Q5652 475 5653 464L5655 461L5659 462L5658 455L5659 456V455Q5659 449 5663.5 444.0Q5668 439 5670 435Q5672 433 5671.5 428.0Q5671 423 5674 421H5676V419H5681Q5682 414 5679.0 415.5Q5676 417 5674 417Q5674 415 5678.0 409.0Q5682 403 5683 402H5685L5681 396Q5687 394 5688.0 385.5Q5689 377 5694 373L5690 372Q5693 367 5695.5 353.5Q5698 340 5698 335Q5700 336 5701.0 333.5Q5702 331 5702 330L5699 331Q5699 330 5699.0 327.5Q5699 325 5700 324L5704 323H5700V315L5705 313L5702 312V302L5704 300Q5701 295 5700.5 289.5Q5700 284 5700 278H5704L5705 272L5700 270Q5705 270 5702 265H5697Q5696 252 5690.0 246.5Q5684 241 5680 231H5677L5676 225H5668Q5667 232 5661 238L5663 239Q5659 246 5657.0 254.5Q5655 263 5646 269H5647L5652 276L5651 280L5647 279V284Q5647 291 5643 295L5641 293Q5641 297 5640.5 301.5Q5640 306 5641 311H5637V307Q5637 307 5639.5 307.5Q5642 308 5639 306L5633 308L5637 314H5638L5641 311V313L5631 326Q5633 329 5634.0 331.0Q5635 333 5633 338H5632L5631 334L5630 342L5623 343L5630 347L5628 357Q5627 358 5625.5 357.0Q5624 356 5623 356Q5622 356 5623.5 358.0Q5625 360 5626 361Q5624 369 5621.0 378.0Q5618 387 5618 396H5614Q5614 400 5613.5 407.0Q5613 414 5611 419L5607 417V419H5610L5609 431L5601 433Q5603 434 5605.0 434.5Q5607 435 5608 435L5606 441H5605L5603 438L5602 443L5606 445Q5602 451 5602.0 458.0Q5602 465 5599 471L5595 469L5594 476L5598 479L5595 489L5591 492Q5593 491 5594.5 492.0Q5596 493 5595 495Q5591 498 5592.0 502.0Q5593 506 5591 508L5581 512V515L5591 517L5587 531L5581 534L5583 537H5587V539Q5582 543 5581.5 556.5Q5581 570 5579 578L5577 581L5578 584Q5577 588 5577.0 591.5Q5577 595 5577 598L5573 603Q5574 603 5575.0 602.5Q5576 602 5576 602ZM5733 812Q5733 812 5733 812Z" fill="currentColor" /></svg>