<svg viewBox="0 0 1951 1109" xmlns="http://www.w3.org/2000/svg"><path d="M410 624Q417 614 430 589Q462 532 468.5 532.0Q475 532 475 540Q475 589 424 664Q332 799 179 799Q136 799 100.0 779.0Q64 759 43 728Q0 665 0 596Q0 422 90.5 315.5Q181 209 305 209Q352 209 382.0 236.5Q412 264 412.0 306.0Q412 348 391.0 384.0Q370 420 340.5 420.0Q311 420 311 404Q311 386 330.5 363.0Q350 340 350 317Q350 246 274.5 246.0Q199 246 138.0 347.0Q77 448 77 555Q77 629 119.0 686.5Q161 744 237 744Q327 744 410 624ZM725 572Q765 559 780.5 549.5Q796 540 804 535L816 528Q821 525 824 525Q832 525 832.0 534.0Q832 543 801.0 565.5Q770 588 724 606Q717 690 671.0 742.0Q625 794 540 794Q478 794 445.0 744.5Q412 695 412.0 628.5Q412 562 451.5 503.0Q491 444 553 444Q581 424 619.5 424.0Q658 424 691.0 465.0Q724 506 725 572ZM660 623 624 625Q578 625 546.0 597.5Q514 570 514.0 537.0Q514 504 525 480Q482 514 482 614Q482 662 502.0 705.5Q522 749 565.0 749.0Q608 749 632.0 712.5Q656 676 660 623ZM598 457Q582 457 573.0 471.5Q564 486 564 503Q564 540 589.5 563.0Q615 586 649 586H661Q659 537 644.5 497.0Q630 457 598 457ZM1089 572Q1129 559 1144.5 549.5Q1160 540 1168 535L1180 528Q1185 525 1188 525Q1196 525 1196.0 534.0Q1196 543 1165.0 565.5Q1134 588 1088 606Q1081 690 1035.0 742.0Q989 794 904 794Q842 794 809.0 744.5Q776 695 776.0 628.5Q776 562 815.5 503.0Q855 444 917 444Q945 424 983.5 424.0Q1022 424 1055.0 465.0Q1088 506 1089 572ZM1024 623 988 625Q942 625 910.0 597.5Q878 570 878.0 537.0Q878 504 889 480Q846 514 846 614Q846 662 866.0 705.5Q886 749 929.0 749.0Q972 749 996.0 712.5Q1020 676 1024 623ZM962 457Q946 457 937.0 471.5Q928 486 928 503Q928 540 953.5 563.0Q979 586 1013 586H1025Q1023 537 1008.5 497.0Q994 457 962 457ZM1462 824 1489 821Q1497 821 1497 829Q1497 843 1478.0 850.0Q1459 857 1435 857Q1390 857 1359.5 821.0Q1329 785 1275 688Q1262 667 1262 656Q1262 641 1304 621Q1372 586 1372 533Q1372 518 1361.5 507.5Q1351 497 1334 497Q1310 497 1277.0 553.5Q1244 610 1232.5 659.5Q1221 709 1221 766Q1221 794 1205 794Q1182 794 1161.0 787.5Q1140 781 1140.0 770.5Q1140 760 1148.0 675.5Q1156 591 1157 554Q1161 350 1181 242Q1184 233 1208.5 211.0Q1233 189 1248.0 189.0Q1263 189 1262.5 226.5Q1262 264 1246.0 387.0Q1230 510 1226 612Q1244 548 1283.5 491.0Q1323 434 1363 434Q1431 434 1431 500Q1431 544 1405.0 579.5Q1379 615 1335 637Q1326 641 1326.0 646.0Q1326 651 1329 656Q1392 767 1436 812Q1448 824 1462 824ZM1520 300Q1520 282 1539.0 269.0Q1558 256 1573 256Q1600 256 1600.0 287.0Q1600 318 1584.0 340.5Q1568 363 1539 363Q1520 363 1520 300ZM1549 794Q1510 794 1490 778Q1483 771 1483.0 728.0Q1483 685 1489.5 584.5Q1496 484 1501.0 476.0Q1506 468 1532.0 446.0Q1558 424 1572.5 424.0Q1587 424 1587 462Q1587 472 1581.5 501.0Q1576 530 1569 543Q1556 576 1556 716Q1556 743 1562 743Q1579 742 1609.0 700.5Q1639 659 1668.5 594.0Q1698 529 1704.5 529.0Q1711 529 1711 537Q1711 565 1682 626Q1603 794 1549 794ZM1780 794Q1724 794 1691.0 751.5Q1658 709 1658 655Q1658 546 1704.0 490.0Q1750 434 1823 434Q1857 434 1879.0 452.5Q1901 471 1901 503Q1901 563 1850.5 603.5Q1800 644 1727 646Q1731 685 1753.5 713.5Q1776 742 1806.0 742.0Q1836 742 1860.0 728.0Q1884 714 1904 688Q1946 633 1976 563Q1984 545 1988.5 537.0Q1993 529 1998.5 529.0Q2004 529 2004 537Q2004 587 1943 687Q1877 794 1780 794ZM1727 622Q1786 612 1813.5 584.0Q1841 556 1841.0 511.0Q1841 466 1812 466Q1777 466 1753.0 514.5Q1729 563 1727 622Z" fill="currentColor" /></svg>