<svg viewBox="0 0 6504 650.3333333333334" xmlns="http://www.w3.org/2000/svg"><path d="M541 35Q550 39 552.5 43.5Q555 48 556 59L567 171Q567 174 562.0 174.5Q557 175 556 172Q534 95 474.5 58.5Q415 22 327 22Q251 22 194.0 55.5Q137 89 106.0 150.0Q75 211 75 291Q75 384 113.5 463.0Q152 542 217.5 588.0Q283 634 359 634Q431 634 484.0 594.5Q537 555 565 473Q565 470 569 470Q572 470 574.5 471.0Q577 472 577 474L563 587Q561 599 558.5 602.5Q556 606 547 610Q457 648 357 648Q237 648 156.5 599.5Q76 551 38.0 476.0Q0 401 0 318Q0 226 51.0 153.0Q102 80 186.0 40.0Q270 0 366 0Q414 0 463.0 9.0Q512 18 541 35ZM656 405Q656 327 696.5 270.5Q737 214 799.5 185.0Q862 156 927 156Q997 156 1050.5 190.5Q1104 225 1132.5 280.0Q1161 335 1161 395Q1161 462 1125.0 520.5Q1089 579 1028.0 613.5Q967 648 895 648Q825 648 770.5 615.0Q716 582 686.0 526.0Q656 470 656 405ZM1092 420Q1092 353 1068.5 298.0Q1045 243 1000.0 210.0Q955 177 893 177Q813 177 769.0 230.5Q725 284 725 380Q725 449 748.5 505.0Q772 561 816.5 594.0Q861 627 921 627Q999 627 1045.5 572.0Q1092 517 1092 420ZM1443 636Q1415 636 1400 635L1337 634L1278 635Q1261 636 1232 636Q1230 636 1230.0 630.0Q1230 624 1232 624Q1265 624 1280.5 619.0Q1296 614 1302.0 599.5Q1308 585 1308 555V249Q1308 219 1302.5 205.0Q1297 191 1281.5 185.5Q1266 180 1233 180Q1231 180 1231.0 174.0Q1231 168 1233 168L1279 169Q1315 171 1337 171Q1355 171 1370.5 170.0Q1386 169 1397 168Q1429 165 1456 165Q1521 165 1555.0 190.0Q1589 215 1589 262Q1589 303 1565.0 338.0Q1541 373 1499.0 393.5Q1457 414 1407 414Q1375 414 1352 410L1351 390Q1376 397 1414 397Q1476 397 1500.5 369.5Q1525 342 1525 289Q1525 179 1430 179Q1392 179 1380.5 195.0Q1369 211 1369 251V555Q1369 586 1374.0 600.0Q1379 614 1394.0 619.0Q1409 624 1443 624Q1445 624 1445.0 630.0Q1445 636 1443 636ZM1740 636H1623Q1605 636 1558.0 574.0Q1511 512 1446 404L1499 383Q1557 478 1596.0 529.0Q1635 580 1668.5 602.0Q1702 624 1740 624Q1742 624 1742.0 630.0Q1742 636 1740 636ZM1844 190 1864 193 1853 527Q1852 580 1867.0 602.0Q1882 624 1918 624Q1921 624 1921.0 630.0Q1921 636 1918 636Q1897 636 1886 635L1842 634L1800 635Q1787 636 1764 636Q1762 636 1762.0 630.0Q1762 624 1764 624Q1801 624 1816.0 602.0Q1831 580 1833 527ZM2389 636Q2361 636 2345 635L2286 634L2218 635Q2201 636 2171 636Q2169 636 2169.0 630.0Q2169 624 2171 624Q2208 624 2226.0 619.0Q2244 614 2250.0 599.5Q2256 585 2255 555L2241 188L2258 180L2070 629Q2068 633 2063 633Q2057 633 2055 629L1864 251Q1829 180 1772 180Q1769 180 1769.0 174.0Q1769 168 1772 168L1827 169L1875 168Q1888 168 1896.0 177.0Q1904 186 1921 220L2090 556L2062 601L2233 193Q2237 182 2245.5 175.0Q2254 168 2263 168L2316 169L2383 168Q2385 168 2385.0 174.0Q2385 180 2383 180Q2338 180 2320.0 193.5Q2302 207 2304 247L2316 555Q2318 586 2323.0 600.0Q2328 614 2342.5 619.0Q2357 624 2389 624Q2391 624 2391.0 630.0Q2391 636 2389 636ZM2454 405Q2454 327 2494.5 270.5Q2535 214 2597.5 185.0Q2660 156 2725 156Q2795 156 2848.5 190.5Q2902 225 2930.5 280.0Q2959 335 2959 395Q2959 462 2923.0 520.5Q2887 579 2826.0 613.5Q2765 648 2693 648Q2623 648 2568.5 615.0Q2514 582 2484.0 526.0Q2454 470 2454 405ZM2890 420Q2890 353 2866.5 298.0Q2843 243 2798.0 210.0Q2753 177 2691 177Q2611 177 2567.0 230.5Q2523 284 2523 380Q2523 449 2546.5 505.0Q2570 561 2614.5 594.0Q2659 627 2719 627Q2797 627 2843.5 572.0Q2890 517 2890 420ZM3241 636Q3213 636 3198 635L3135 634L3076 635Q3059 636 3030 636Q3028 636 3028.0 630.0Q3028 624 3030 624Q3063 624 3078.5 619.0Q3094 614 3100.0 599.5Q3106 585 3106 555V249Q3106 219 3100.5 205.0Q3095 191 3079.5 185.5Q3064 180 3031 180Q3029 180 3029.0 174.0Q3029 168 3031 168L3077 169Q3113 171 3135 171Q3153 171 3168.5 170.0Q3184 169 3195 168Q3227 165 3254 165Q3319 165 3353.0 190.0Q3387 215 3387 262Q3387 303 3363.0 338.0Q3339 373 3297.0 393.5Q3255 414 3205 414Q3173 414 3150 410L3149 390Q3174 397 3212 397Q3274 397 3298.5 369.5Q3323 342 3323 289Q3323 179 3228 179Q3190 179 3178.5 195.0Q3167 211 3167 251V555Q3167 586 3172.0 600.0Q3177 614 3192.0 619.0Q3207 624 3241 624Q3243 624 3243.0 630.0Q3243 636 3241 636ZM3538 636H3421Q3403 636 3356.0 574.0Q3309 512 3244 404L3297 383Q3355 478 3394.0 529.0Q3433 580 3466.5 602.0Q3500 624 3538 624Q3540 624 3540.0 630.0Q3540 636 3538 636ZM3717 388H3899L3906 406H3701ZM4084 636Q4066 636 4026 634Q3986 632 3968 632Q3952 632 3926 634Q3900 636 3886 636Q3882 636 3882.0 630.0Q3882 624 3886 624Q3913 624 3925.5 617.5Q3938 611 3938 595Q3938 581 3925 552L3773 224L3799 202L3674 513Q3658 551 3658 576Q3658 602 3676.0 613.0Q3694 624 3731 624Q3736 624 3736.0 630.0Q3736 636 3731 636Q3716 636 3690 634Q3662 632 3638 632Q3613 632 3579 634Q3549 636 3531 636Q3526 636 3526.0 630.0Q3526 624 3531 624Q3562 624 3580.0 615.5Q3598 607 3613.5 582.0Q3629 557 3651 504L3795 153Q3797 149 3801.0 149.0Q3805 149 3806 153L3967 499Q3993 555 4008.5 580.0Q4024 605 4040.5 614.5Q4057 624 4084 624Q4088 624 4088.0 630.0Q4088 636 4084 636ZM4185 190 4205 193V527Q4205 580 4220.0 602.0Q4235 624 4272 624Q4274 624 4274.0 630.0Q4274 636 4272 636Q4250 636 4238 635L4196 634L4153 635Q4140 636 4117 636Q4115 636 4115.0 630.0Q4115 624 4117 624Q4154 624 4169.5 602.0Q4185 580 4185 527ZM4546 649 4218 250Q4186 212 4162.5 196.0Q4139 180 4117 180Q4115 180 4115.0 174.0Q4115 168 4117 168L4173 169L4226 168Q4233 168 4237.5 172.0Q4242 176 4251 189Q4259 202 4273 220L4548 559L4558 647Q4558 649 4553.0 650.0Q4548 651 4546 649ZM4558 647 4538 616V277Q4538 224 4523.5 202.0Q4509 180 4472 180Q4469 180 4469.0 174.0Q4469 168 4472 168L4506 169Q4532 171 4548 171Q4564 171 4592 169L4627 168Q4630 168 4630.0 174.0Q4630 180 4627 180Q4590 180 4574.0 202.0Q4558 224 4558 277ZM4693 298Q4693 300 4687.5 300.0Q4682 300 4682 298Q4685 275 4689.0 224.0Q4693 173 4693 146Q4693 141 4699.0 141.0Q4705 141 4705 146Q4705 159 4720.0 162.5Q4735 166 4757 166Q4845 168 4908 168L4995 167Q5013 166 5042 166Q5078 166 5095.0 161.5Q5112 157 5117 142Q5119 139 5124.0 139.0Q5129 139 5129 142Q5123 250 5123 298Q5123 300 5117.5 300.0Q5112 300 5112 298Q5111 253 5101.5 228.0Q5092 203 5070.0 192.0Q5048 181 5009 181Q4966 181 4951.5 194.5Q4937 208 4937 249V555Q4937 586 4943.0 600.0Q4949 614 4966.5 619.0Q4984 624 5023 624Q5026 624 5026.0 630.0Q5026 636 5023 636Q4992 636 4975 635L4905 634L4838 635Q4820 636 4788 636Q4786 636 4786.0 630.0Q4786 624 4788 624Q4826 624 4844.0 619.0Q4862 614 4868.5 599.5Q4875 585 4875 555V247Q4875 218 4870.5 204.5Q4866 191 4852.0 186.0Q4838 181 4807 181Q4769 181 4747.0 191.5Q4725 202 4712.5 227.0Q4700 252 4693 298ZM5673 294Q5725 325 5754.0 346.0Q5783 367 5803.5 399.5Q5824 432 5824 477Q5824 525 5800.0 564.0Q5776 603 5729.5 625.5Q5683 648 5618 648Q5541 648 5477 613Q5472 610 5470.5 606.0Q5469 602 5468 594L5455 458Q5454 454 5459.5 453.0Q5465 452 5466 456Q5481 527 5525.0 579.5Q5569 632 5641 632Q5691 632 5725.5 604.5Q5760 577 5760 517Q5760 472 5740.0 439.0Q5720 406 5691.5 384.5Q5663 363 5614 334Q5566 305 5538.5 284.0Q5511 263 5492.0 231.0Q5473 199 5473 156Q5473 106 5499.5 70.5Q5526 35 5568.5 17.5Q5611 0 5659 0Q5718 0 5776 24Q5791 29 5791 41L5798 155Q5798 160 5792.5 160.0Q5787 160 5786 156Q5779 104 5744.0 59.5Q5709 15 5643 15Q5587 15 5559.5 47.5Q5532 80 5532 128Q5532 167 5551.0 196.0Q5570 225 5597.0 244.5Q5624 264 5673 294ZM6468 35Q6477 39 6479.5 43.5Q6482 48 6483 59L6494 171Q6494 174 6489.0 174.5Q6484 175 6483 172Q6461 95 6401.5 58.5Q6342 22 6254 22Q6178 22 6121.0 55.5Q6064 89 6033.0 150.0Q6002 211 6002 291Q6002 384 6040.5 463.0Q6079 542 6144.5 588.0Q6210 634 6286 634Q6358 634 6411.0 594.5Q6464 555 6492 473Q6492 470 6496 470Q6499 470 6501.5 471.0Q6504 472 6504 474L6490 587Q6488 599 6485.5 602.5Q6483 606 6474 610Q6384 648 6284 648Q6164 648 6083.5 599.5Q6003 551 5965.0 476.0Q5927 401 5927 318Q5927 226 5978.0 153.0Q6029 80 6113.0 40.0Q6197 0 6293 0Q6341 0 6390.0 9.0Q6439 18 6468 35Z" fill="currentColor" /></svg>