<svg viewBox="0 0 9081 2876" xmlns="http://www.w3.org/2000/svg"><path d="M1243 1101H1160Q1151 1101 1137.0 1082.5Q1123 1064 1104.5 1035.0Q1086 1006 1062.0 970.5Q1038 935 1005.5 900.0Q973 865 936.5 836.0Q900 807 850.5 788.5Q801 770 748 770Q655 770 576.0 803.5Q497 837 442.0 893.5Q387 950 347.5 1025.5Q308 1101 289.5 1185.0Q271 1269 271 1357Q271 1441 293.5 1520.5Q316 1600 362.5 1671.0Q409 1742 474.5 1795.5Q540 1849 633.0 1880.5Q726 1912 835 1912Q1068 1912 1265 1765Q1304 1817 1304 1867Q1304 1939 1226.5 1999.5Q1149 2060 1036.0 2091.0Q923 2122 808 2122Q654 2122 524.5 2079.0Q395 2036 305.0 1963.0Q215 1890 151.5 1792.5Q88 1695 58.5 1586.0Q29 1477 29 1361Q29 1204 80.0 1062.0Q131 920 221.0 814.0Q311 708 444.0 645.5Q577 583 731 583Q829 583 929.5 626.5Q1030 670 1092 755Q1092 605 1131 605H1243Q1291 605 1291 709V976Q1291 1033 1285.5 1059.5Q1280 1086 1271.5 1092.5Q1263 1099 1243 1101ZM1932 1000Q2039 1000 2138.0 1036.0Q2237 1072 2316.5 1139.5Q2396 1207 2444.0 1316.0Q2492 1425 2492.0 1560.0Q2492 1695 2444.0 1804.5Q2396 1914 2316.5 1982.0Q2237 2050 2138.0 2086.0Q2039 2122 1932 2122Q1824 2122 1725.0 2086.0Q1626 2050 1546.0 1982.0Q1466 1914 1418.0 1804.5Q1370 1695 1370.0 1560.0Q1370 1425 1418.0 1316.0Q1466 1207 1546.0 1139.5Q1626 1072 1725.0 1036.0Q1824 1000 1932 1000ZM1930 1951Q1993 1951 2051.0 1926.0Q2109 1901 2155.5 1853.5Q2202 1806 2230.0 1730.0Q2258 1654 2258.0 1560.0Q2258 1466 2230.0 1390.0Q2202 1314 2155.5 1267.0Q2109 1220 2051.0 1195.0Q1993 1170 1930 1170Q1798 1170 1701.0 1273.0Q1604 1376 1604.0 1560.0Q1604 1744 1701.0 1847.5Q1798 1951 1930 1951ZM3646 1089V1822Q3646 1848 3647.0 1859.0Q3648 1870 3652.5 1883.5Q3657 1897 3667.5 1901.5Q3678 1906 3696.0 1909.5Q3714 1913 3744 1913Q3789 1913 3801.5 1924.0Q3814 1935 3814 1969Q3814 2019 3802.5 2057.5Q3791 2096 3781 2103Q3708 2095 3646 2095Q3605 2095 3560.5 2099.0Q3516 2103 3506 2103Q3466 2103 3457.5 2079.0Q3449 2055 3449 1951Q3379 2032 3280.5 2077.0Q3182 2122 3080 2122Q3006 2122 2941.5 2097.5Q2877 2073 2825.0 2025.0Q2773 1977 2743.0 1896.0Q2713 1815 2713 1711V1310Q2713 1215 2663 1211Q2655 1210 2640.5 1209.0Q2626 1208 2617.5 1207.0Q2609 1206 2597.0 1204.5Q2585 1203 2578.0 1201.5Q2571 1200 2561.5 1197.5Q2552 1195 2547.0 1192.0Q2542 1189 2537.0 1185.0Q2532 1181 2530.0 1175.5Q2528 1170 2528 1163Q2528 1047 2561 1017Q2655 1028 2734 1028Q2789 1028 2846.5 1022.5Q2904 1017 2906 1017Q2940 1017 2940 1089V1723Q2940 1833 2997.0 1888.0Q3054 1943 3143 1943Q3219 1943 3294.5 1903.0Q3370 1863 3419 1794V1310Q3419 1215 3369 1211Q3361 1210 3346.5 1209.0Q3332 1208 3323.5 1207.0Q3315 1206 3303.0 1204.5Q3291 1203 3284.0 1201.5Q3277 1200 3267.5 1197.5Q3258 1195 3253.0 1192.0Q3248 1189 3243.0 1185.0Q3238 1181 3236.0 1175.5Q3234 1170 3234 1163Q3234 1046 3267 1017Q3361 1028 3440 1028Q3506 1028 3574.5 1022.5Q3643 1017 3645 1017Q3646 1017 3646 1089ZM4791 1830Q4791 1931 4729.5 1997.5Q4668 2064 4567.0 2093.0Q4466 2122 4328 2122Q4116 2122 3996.5 2061.0Q3877 2000 3877 1874Q3877 1731 4052 1731Q4080 1731 4089.0 1742.0Q4098 1753 4098 1784V1920Q4135 1940 4207.5 1951.0Q4280 1962 4354 1962Q4442 1962 4499.5 1925.5Q4557 1889 4557 1825Q4557 1780 4528.0 1744.5Q4499 1709 4452.0 1687.0Q4405 1665 4344.5 1642.5Q4284 1620 4221.5 1601.0Q4159 1582 4098.5 1553.0Q4038 1524 3991.0 1490.0Q3944 1456 3915.0 1401.0Q3886 1346 3886 1277Q3886 1188 3952.0 1123.0Q4018 1058 4113.5 1029.0Q4209 1000 4318 1000Q4766 1000 4766 1260Q4766 1276 4760.5 1294.0Q4755 1312 4739.5 1336.0Q4724 1360 4687.5 1375.5Q4651 1391 4598 1391Q4588 1391 4581.5 1389.0Q4575 1387 4571.5 1384.5Q4568 1382 4565.5 1375.5Q4563 1369 4562.5 1366.0Q4562 1363 4560.5 1352.5Q4559 1342 4559 1338L4545 1198Q4531 1184 4458.5 1167.0Q4386 1150 4334 1150Q4232 1150 4182.5 1188.0Q4133 1226 4133 1284Q4133 1326 4169.5 1358.0Q4206 1390 4264.0 1412.5Q4322 1435 4392.0 1457.0Q4462 1479 4532.0 1509.5Q4602 1540 4660.0 1579.0Q4718 1618 4754.5 1682.5Q4791 1747 4791 1830ZM5563 1895Q5593 1952 5593 2002Q5593 2030 5568.5 2050.5Q5544 2071 5505.0 2082.0Q5466 2093 5427.0 2098.0Q5388 2103 5351 2103Q5295 2103 5247.0 2087.0Q5199 2071 5155.5 2034.5Q5112 1998 5087.0 1928.5Q5062 1859 5062 1763V1183H5019Q4901 1183 4890 1184Q4857 1172 4857 1107Q4857 1028 4907 1028H5062Q5066 996 5069.5 944.5Q5073 893 5076.0 863.0Q5079 833 5085.5 792.0Q5092 751 5103.5 727.5Q5115 704 5133.0 681.0Q5151 658 5179.5 647.5Q5208 637 5247 637Q5274 637 5289 646V1028H5422Q5541 1028 5547 1023Q5597 1023 5597 1109Q5597 1174 5564 1186Q5531 1183 5435 1183H5289V1757Q5289 1923 5397 1923Q5467 1923 5563 1895ZM6413 1959Q6340 2036 6228.5 2079.0Q6117 2122 6002 2122Q5859 2122 5766.0 2046.0Q5673 1970 5673 1826Q5673 1672 5822 1594Q5934 1534 6206 1490Q6257 1481 6372 1464Q6372 1294 6329.0 1230.0Q6286 1166 6164 1166Q6075 1166 5966.0 1206.0Q5857 1246 5792 1317Q5711 1249 5711 1184Q5711 1128 5788.0 1084.5Q5865 1041 5969.5 1020.5Q6074 1000 6179 1000Q6278 1000 6352.5 1024.5Q6427 1049 6484.0 1105.0Q6541 1161 6570.5 1259.0Q6600 1357 6600 1497V1817Q6600 1858 6606.5 1878.5Q6613 1899 6621.0 1903.5Q6629 1908 6647 1910Q6678 1913 6693.0 1915.5Q6708 1918 6728.0 1923.0Q6748 1928 6756.5 1936.0Q6765 1944 6765 1956Q6765 2074 6732 2103Q6684 2095 6607 2095Q6537 2095 6477 2102Q6470 2097 6459.5 2088.0Q6449 2079 6431.0 2042.0Q6413 2005 6413 1959ZM6048 1944Q6139 1944 6245.0 1893.5Q6351 1843 6373 1802V1625Q6100 1674 6004.5 1713.0Q5909 1752 5909 1823Q5909 1944 6048 1944ZM7201 1115V1180Q7246 1108 7335.0 1054.0Q7424 1000 7505 1000Q7558 1000 7606.0 1017.5Q7654 1035 7689.5 1080.0Q7725 1125 7725 1190Q7725 1368 7536 1368Q7532 1368 7528.0 1367.0Q7524 1366 7521.5 1364.0Q7519 1362 7517.0 1360.0Q7515 1358 7513.5 1354.0Q7512 1350 7511.0 1347.0Q7510 1344 7509.0 1337.5Q7508 1331 7507.5 1327.0Q7507 1323 7506.5 1315.5Q7506 1308 7505 1303L7493 1199Q7466 1186 7434 1186Q7376 1186 7317.5 1228.5Q7259 1271 7231 1327V1833Q7231 1848 7232.5 1856.5Q7234 1865 7239.5 1876.0Q7245 1887 7259.0 1892.5Q7273 1898 7295 1898Q7333 1898 7360.0 1910.0Q7387 1922 7387 1946Q7387 1994 7371.0 2041.0Q7355 2088 7324 2103Q7254 2095 7119.0 2095.0Q6984 2095 6912 2103Q6879 2088 6864.0 2041.5Q6849 1995 6849 1946Q6849 1922 6876.0 1910.0Q6903 1898 6941 1898Q6980 1898 6992.0 1881.5Q7004 1865 7004 1835V1309Q7004 1256 6973.5 1234.0Q6943 1212 6856 1208Q6843 1205 6839.5 1195.0Q6836 1185 6836 1152Q6836 1101 6847.0 1062.0Q6858 1023 6869 1017Q6940 1028 7008 1028Q7050 1028 7096.5 1022.5Q7143 1017 7146 1017Q7181 1017 7191.0 1034.5Q7201 1052 7201 1115ZM8657 1631V1370Q8604 1275 8517.0 1222.0Q8430 1169 8337 1169Q8209 1169 8121.5 1269.5Q8034 1370 8034 1562Q8034 1746 8128.0 1849.0Q8222 1952 8351 1952Q8407 1952 8461.0 1931.5Q8515 1911 8559.0 1872.0Q8603 1833 8630.0 1770.5Q8657 1708 8657 1631ZM8884 747V1844Q8884 1858 8886.0 1867.5Q8888 1877 8894.5 1887.5Q8901 1898 8916.0 1904.0Q8931 1910 8955 1911Q9049 1915 9049 1953Q9049 2073 9015 2103Q8960 2095 8896 2095Q8806 2095 8720 2103Q8657 2074 8657 1964V1955Q8603 2035 8504.0 2078.5Q8405 2122 8300 2122Q8204 2122 8116.0 2086.0Q8028 2050 7956.5 1982.5Q7885 1915 7842.0 1806.0Q7799 1697 7799.0 1562.0Q7799 1427 7844.0 1318.0Q7889 1209 7964.5 1141.5Q8040 1074 8133.0 1038.0Q8226 1002 8327 1001H8333Q8530 1001 8657 1148V886Q8657 833 8626.5 811.0Q8596 789 8509 785Q8496 782 8492.5 772.0Q8489 762 8489 729Q8489 678 8500.0 639.0Q8511 600 8522 594Q8605 605 8681 605Q8726 605 8776.0 599.5Q8826 594 8829 594Q8864 594 8874.5 611.5Q8885 629 8885 692Q8885 699 8884.5 717.5Q8884 736 8884 747Z" fill="currentColor" /></svg>