<svg viewBox="0 0 6154 1462" xmlns="http://www.w3.org/2000/svg"><path d="M731 445Q744 474 744 499Q744 507 743 515Q737 547 717.0 572.5Q697 598 666.0 616.5Q635 635 601 646Q579 644 564.0 637.5Q549 631 527 629Q522 621 515.0 616.0Q508 611 500.5 607.0Q493 603 485.5 598.5Q478 594 474 586Q472 571 470 553Q468 542 468 531Q468 525 469 519Q470 504 480 495Q488 488 503 488Q508 488 514 489Q525 503 527 517Q528 524 528 533Q528 543 527 555Q541 566 558 578Q574 589 591 589H594Q599 589 613.5 582.5Q628 576 644.5 566.5Q661 557 674.5 545.5Q688 534 691 525Q693 519 693 512Q693 503 689 494Q684 483 684 470V462Q673 457 663.5 447.0Q654 437 644.0 425.5Q634 414 624.0 404.0Q614 394 601 388Q593 385 581 385Q568 385 557 382Q544 377 532.5 370.0Q521 363 510 362Q500 360 490 360Q480 360 471 362Q451 365 432.0 369.5Q413 374 393.5 378.0Q374 382 353 382Q285 411 226.0 453.0Q167 495 129 562Q114 589 105.0 623.0Q96 657 93 692Q91 712 91 730Q91 746 92 761Q95 795 106 820Q125 866 163.0 908.5Q201 951 256 970Q281 979 318.0 984.5Q355 990 397 992Q417 993 438 993Q459 993 479 992Q520 990 554 983Q566 980 581.0 977.0Q596 974 611.0 969.5Q626 965 639.0 960.5Q652 956 661 950Q667 946 672.0 939.5Q677 933 683.0 927.0Q689 921 697 917Q701 915 707 915Q710 915 714 916Q730 921 733 938Q734 943 734 947Q734 960 728 973Q684 999 627.0 1017.0Q570 1035 506 1042Q463 1047 420 1047Q397 1047 373 1046Q305 1042 240 1023Q184 1002 140.5 963.5Q97 925 70.5 872.0Q44 819 38 752Q36 735 36 716Q36 666 49 609Q81 538 125.0 476.0Q169 414 240 375Q291 347 344.5 333.5Q398 320 467 308Q479 306 491 306Q502 306 513 308Q535 312 556.5 319.5Q578 327 599.5 335.5Q621 344 644 348Q654 363 666.5 374.0Q679 385 691.0 395.5Q703 406 713.5 418.0Q724 430 731 445ZM1295 590Q1278 599 1267 599Q1263 599 1261 597Q1250 593 1245.5 581.0Q1241 569 1238.0 553.5Q1235 538 1224 529Q1216 522 1209.5 520.5Q1203 519 1197.0 518.5Q1191 518 1183.5 517.5Q1176 517 1165 512Q1141 522 1115.0 529.5Q1089 537 1065.0 546.5Q1041 556 1020.5 568.5Q1000 581 988 600Q992 656 1000.5 709.0Q1009 762 1015.0 813.5Q1021 865 1023 918V933Q1023 979 1015 1027Q1005 1043 988.0 1052.5Q971 1062 952 1071Q916 1069 897.5 1051.0Q879 1033 870.0 1007.5Q861 982 857.0 954.0Q853 926 846 903Q854 867 856.0 828.0Q858 789 862.5 752.5Q867 716 879.5 685.0Q892 654 921 634Q925 624 925 613Q925 607 924 600Q920 582 912.5 563.5Q905 545 897.0 528.0Q889 511 887 495Q886 491 886 487Q886 476 890 468Q896 456 917 449Q928 456 934.5 466.0Q941 476 946.5 488.0Q952 500 956.5 512.5Q961 525 968 536Q1001 526 1035.5 509.5Q1070 493 1118 482Q1131 479 1143.0 473.0Q1155 467 1165 465Q1175 464 1184 464Q1205 464 1225 468Q1254 475 1273.5 491.0Q1293 507 1300 532Q1303 541 1303 551Q1303 569 1295 590ZM952 1014Q960 981 961 940V924Q961 891 958 857Q954 814 947.0 772.5Q940 731 932 697Q920 728 911.0 773.0Q902 818 902 864Q902 910 913.0 951.0Q924 992 952 1014ZM1965 977Q1962 989 1958.0 999.0Q1954 1009 1945 1013Q1940 1015 1933 1015Q1928 1015 1923 1014Q1909 1012 1894.0 1006.0Q1879 1000 1865.5 992.0Q1852 984 1845 977Q1831 964 1822.5 947.0Q1814 930 1807.0 912.5Q1800 895 1794.5 880.0Q1789 865 1781 856Q1770 861 1763.0 869.0Q1756 877 1749.5 887.0Q1743 897 1736.5 907.5Q1730 918 1721 926Q1700 947 1670.5 963.5Q1641 980 1607 989Q1578 997 1547 997Q1542 997 1537 996Q1501 995 1467 980Q1432 956 1403.5 919.0Q1375 882 1358.0 837.0Q1341 792 1339 741Q1338 735 1338 729Q1338 685 1354 639Q1360 623 1370.5 603.5Q1381 584 1394.0 566.0Q1407 548 1421.5 533.0Q1436 518 1450 509Q1486 487 1529 480Q1552 477 1575 477Q1594 477 1614 479Q1657 485 1697.5 501.5Q1738 518 1771 542Q1780 533 1793.5 522.5Q1807 512 1822 505Q1835 500 1848 500H1853Q1868 501 1882 515Q1890 546 1890 576V591Q1887 628 1877.0 662.5Q1867 697 1852.5 728.0Q1838 759 1825 786Q1840 833 1858.5 876.0Q1877 919 1908 950H1919Q1935 950 1943 954Q1954 961 1965 977ZM1832 565Q1812 594 1810 629V645Q1810 673 1815 706Q1821 694 1829.0 674.5Q1837 655 1842 634Q1845 617 1845 601V594Q1844 576 1832 565ZM1765 779Q1761 738 1757 693Q1754 667 1754 642Q1754 625 1755 609Q1742 589 1720.0 573.0Q1698 557 1672.0 547.0Q1646 537 1617 533Q1600 531 1585 531Q1573 531 1561 532Q1526 536 1500.0 548.5Q1474 561 1454 579Q1443 599 1430.0 623.0Q1417 647 1407.5 674.0Q1398 701 1394 730Q1393 741 1393 751Q1393 770 1397 789Q1401 805 1409.5 824.5Q1418 844 1429.5 863.0Q1441 882 1454.5 898.0Q1468 914 1481 923Q1501 937 1528 941Q1545 944 1564 944Q1574 944 1584 943Q1617 933 1642.0 915.0Q1667 897 1688.0 875.0Q1709 853 1727.5 828.0Q1746 803 1765 779ZM2490 455Q2485 463 2478.5 471.0Q2472 479 2464 484Q2456 489 2448 489Q2447 489 2446 488Q2437 488 2427 479Q2426 473 2426 468Q2426 458 2430 450Q2436 439 2444.0 429.0Q2452 419 2459.5 408.0Q2467 397 2467 382Q2466 357 2447.0 338.0Q2428 319 2400.5 308.5Q2373 298 2342 296H2334Q2308 296 2286 305Q2267 313 2251.0 327.0Q2235 341 2219 358Q2190 390 2169.0 437.5Q2148 485 2146 542Q2154 553 2166 556Q2174 558 2184 558H2190Q2203 557 2217.0 554.5Q2231 552 2246 552Q2255 560 2263 569Q2270 577 2270 592V596Q2259 604 2245 605Q2236 606 2226 606H2214Q2197 605 2180 603Q2168 602 2157 602H2146Q2142 634 2142 665Q2142 678 2143 690Q2145 733 2151.5 774.5Q2158 816 2168.0 856.5Q2178 897 2189 937Q2189 963 2194.5 985.5Q2200 1008 2206.5 1030.0Q2213 1052 2218 1073Q2220 1086 2220 1101Q2220 1110 2219 1120Q2206 1130 2192 1130Q2181 1130 2169 1124Q2141 1002 2116.0 877.5Q2091 753 2082 612Q2070 614 2050.5 618.0Q2031 622 2014 622Q2012 623 2011 623Q1995 623 1985 615Q1975 609 1975 592V586Q2000 574 2030.0 572.0Q2060 570 2086 562Q2090 505 2107.5 450.0Q2125 395 2155.5 350.5Q2186 306 2230.0 278.0Q2274 250 2333 248H2340Q2357 248 2376 251Q2398 256 2419.5 264.0Q2441 272 2459.5 284.0Q2478 296 2490 311Q2514 343 2515 380V383Q2515 418 2490 455ZM2778 488Q2792 508 2792 519V521Q2790 533 2777.5 538.0Q2765 543 2745.5 543.5Q2726 544 2705 544Q2683 544 2664.0 545.5Q2645 547 2634 554Q2621 606 2621 663Q2620 667 2620 671Q2620 724 2628 776Q2635 832 2648.5 882.0Q2662 932 2678 969Q2690 979 2699.5 997.5Q2709 1016 2728 1032Q2736 1039 2744.5 1044.0Q2753 1049 2760.0 1054.5Q2767 1060 2771 1067Q2774 1073 2774 1081V1086Q2773 1101 2761 1109Q2751 1116 2740 1116H2734Q2725 1114 2721.0 1105.5Q2717 1097 2704 1086Q2699 1081 2690.5 1078.5Q2682 1076 2678 1073Q2663 1060 2650.5 1040.5Q2638 1021 2627.5 1000.0Q2617 979 2608.5 957.0Q2600 935 2594 915Q2586 892 2579.0 864.0Q2572 836 2567 802Q2565 785 2565 768Q2565 757 2566 747Q2567 730 2567 712V695Q2566 667 2564 634Q2563 625 2563 615Q2563 592 2567 568Q2564 567 2560 567Q2549 567 2536 575Q2518 585 2498.5 597.5Q2479 610 2460 620Q2443 628 2429 628H2423Q2409 626 2403 615Q2397 606 2397 597Q2397 595 2398 592Q2399 581 2410 573Q2417 567 2430 567Q2435 567 2440 568Q2468 545 2503.5 532.0Q2539 519 2577 508Q2582 468 2592.5 421.0Q2603 374 2611 330Q2613 319 2613 308Q2613 298 2614.0 288.5Q2615 279 2618.5 272.0Q2622 265 2631 260Q2636 262 2643 262Q2649 262 2655.0 263.0Q2661 264 2666.0 267.0Q2671 270 2674 277Q2665 322 2655.5 378.5Q2646 435 2641 491Q2653 492 2665 492Q2686 492 2710 489Q2733 487 2754 487Q2766 487 2778 488ZM3456 944Q3472 964 3476 996Q3477 1007 3477 1016Q3477 1037 3472 1054Q3464 1080 3447 1090Q3441 1094 3435 1094Q3421 1094 3402 1077V1069Q3402 1062 3403 1057Q3405 1050 3408.0 1043.0Q3411 1036 3413.5 1029.5Q3416 1023 3416 1014Q3415 992 3408.5 979.0Q3402 966 3390.0 959.0Q3378 952 3360.0 949.0Q3342 946 3319 944Q3317 1002 3313.0 1063.0Q3309 1124 3298.5 1181.5Q3288 1239 3269.0 1290.0Q3250 1341 3218.5 1379.5Q3187 1418 3141.0 1440.0Q3095 1462 3031 1462Q2986 1453 2957.5 1428.5Q2929 1404 2907 1372Q2896 1323 2891 1276Q2890 1264 2890 1252Q2890 1215 2901 1174Q2903 1165 2909.0 1150.5Q2915 1136 2922.0 1121.0Q2929 1106 2937.0 1092.5Q2945 1079 2951 1071Q2958 1062 2968.5 1057.0Q2979 1052 2988 1044Q3001 1031 3010.5 1015.5Q3020 1000 3038 987Q3049 979 3065.0 972.0Q3081 965 3095 957Q3133 937 3168.5 924.5Q3204 912 3252 900Q3252 873 3251.5 843.5Q3251 814 3250.0 784.5Q3249 755 3247.0 726.5Q3245 698 3242 673Q3228 681 3220.0 693.0Q3212 705 3205.5 719.0Q3199 733 3193.0 747.0Q3187 761 3178 773Q3168 786 3151.5 795.5Q3135 805 3118 817Q3101 829 3084.0 841.5Q3067 854 3047.0 862.5Q3027 871 3003 873Q2998 874 2992 874Q2972 874 2948 867Q2918 846 2903.0 815.5Q2888 785 2885 749Q2883 736 2883 721Q2883 699 2887 675Q2892 637 2901.5 599.0Q2911 561 2923.0 525.5Q2935 490 2944 462Q2955 455 2968 455Q2973 455 2978 456Q2983 463 2988.0 469.0Q2993 475 2998 483Q2988 521 2972.5 565.0Q2957 609 2948 654Q2942 686 2942 717Q2942 729 2943 741Q2946 783 2974 817Q2985 819 2994 819Q3000 819 3006 818Q3020 816 3031.0 811.5Q3042 807 3051.5 800.5Q3061 794 3071 787Q3087 776 3103.5 768.5Q3120 761 3131 747Q3143 733 3152.0 715.5Q3161 698 3169.5 681.0Q3178 664 3187.5 648.5Q3197 633 3212 623Q3221 587 3232 551Q3242 519 3242 483V476Q3253 471 3264 466Q3270 463 3276 463Q3282 463 3288 466Q3296 477 3299.5 491.5Q3303 506 3304 523V531Q3304 544 3303 557Q3301 574 3299 589Q3302 623 3303.0 657.0Q3304 691 3305.0 727.0Q3306 763 3307.0 801.0Q3308 839 3312 880Q3325 883 3334.5 885.5Q3344 888 3353.0 890.5Q3362 893 3372.0 895.0Q3382 897 3396 898Q3403 904 3410.0 908.0Q3417 912 3424.5 916.0Q3432 920 3439.5 926.5Q3447 933 3456 944ZM3255 994Q3255 991 3256.0 985.0Q3257 979 3257 973Q3257 967 3254.5 962.5Q3252 958 3245 957Q3233 962 3221.5 966.0Q3210 970 3198.0 972.5Q3186 975 3173.5 977.5Q3161 980 3151 984Q3143 988 3132.5 996.0Q3122 1004 3111 1011Q3096 1020 3079.0 1031.0Q3062 1042 3046.5 1054.0Q3031 1066 3017.0 1079.0Q3003 1092 2994 1104Q2980 1124 2969.0 1153.0Q2958 1182 2952 1214Q2947 1242 2947 1270V1279Q2948 1312 2958.0 1339.0Q2968 1366 2988.0 1384.0Q3008 1402 3041 1405Q3050 1406 3058 1406Q3090 1406 3114 1393Q3143 1378 3164.0 1353.0Q3185 1328 3199.5 1297.5Q3214 1267 3228 1241Q3239 1184 3248 1122Q3255 1072 3255 1018ZM4623 659Q4615 690 4602.5 716.0Q4590 742 4575.5 766.5Q4561 791 4545.5 814.5Q4530 838 4516 863Q4519 895 4524.0 930.5Q4529 966 4532 1001Q4533 1018 4533 1033Q4533 1052 4531 1071Q4528 1105 4513 1134Q4484 1163 4457.5 1192.5Q4431 1222 4393 1241Q4377 1241 4361.5 1246.5Q4346 1252 4329.0 1256.5Q4312 1261 4293 1262H4288Q4271 1262 4249 1254Q4244 1252 4239.0 1245.5Q4234 1239 4226 1234Q4210 1226 4193.5 1218.5Q4177 1211 4169 1198Q4152 1170 4152 1143V1134Q4155 1103 4172 1071Q4181 1069 4190 1067H4209Q4218 1076 4220 1085V1092Q4220 1098 4219 1103Q4216 1113 4211.0 1122.5Q4206 1132 4202 1141Q4210 1171 4230.0 1185.5Q4250 1200 4276 1203Q4283 1204 4291 1204Q4310 1204 4330 1199Q4358 1192 4384.0 1178.5Q4410 1165 4430.0 1148.0Q4450 1131 4460 1114Q4471 1094 4474 1068Q4476 1052 4476 1036Q4476 1025 4475 1014Q4473 986 4468.5 958.5Q4464 931 4460 907Q4429 934 4380.5 956.0Q4332 978 4277 987Q4241 994 4204 994Q4184 994 4165 992Q4107 987 4058 960Q4052 957 4047.0 951.0Q4042 945 4035 940Q4020 930 4001.5 915.5Q3983 901 3965.5 885.0Q3948 869 3932.5 852.0Q3917 835 3908 820Q3897 802 3891.5 781.5Q3886 761 3871 746Q3861 708 3861 671Q3861 666 3862 660Q3863 618 3871.0 578.5Q3879 539 3892.0 503.0Q3905 467 3918 435Q3969 375 4035.0 328.5Q4101 282 4195 252Q4230 240 4263 240H4266Q4300 241 4334.0 248.5Q4368 256 4401.0 268.0Q4434 280 4466 292Q4475 306 4491.0 319.5Q4507 333 4520.5 348.0Q4534 363 4540 379Q4542 385 4542 390Q4542 402 4533 415H4526Q4515 415 4506 410Q4495 403 4486.0 392.5Q4477 382 4468.5 369.5Q4460 357 4450 349Q4438 340 4425.0 334.0Q4412 328 4398.5 323.5Q4385 319 4371.0 314.0Q4357 309 4343 302Q4303 300 4267 297Q4261 296 4254 296Q4225 296 4195 308Q4188 311 4182.5 316.5Q4177 322 4169 325Q4156 330 4143.0 332.0Q4130 334 4119 339Q4094 349 4068.5 365.5Q4043 382 4020.5 402.0Q3998 422 3980.5 444.0Q3963 466 3955 486Q3953 490 3953 495V501Q3953 506 3951 512Q3948 523 3939.5 534.0Q3931 545 3928 556Q3920 580 3917 608Q3914 626 3914 642Q3914 651 3915 659Q3917 704 3930.5 738.5Q3944 773 3965.0 801.0Q3986 829 4011.0 853.5Q4036 878 4062 903Q4109 931 4167 937Q4188 939 4209 939Q4245 939 4280 933Q4335 923 4383.0 898.5Q4431 874 4460 840Q4459 809 4453.5 770.0Q4448 731 4445 691Q4443 670 4443 649Q4443 632 4445 615Q4447 578 4463 552Q4468 543 4477.5 533.0Q4487 523 4499.0 515.0Q4511 507 4525 502Q4535 498 4545 498Q4549 498 4553 499Q4578 502 4591.0 519.5Q4604 537 4610.5 561.0Q4617 585 4619.0 611.5Q4621 638 4623 659ZM4570 589Q4560 582 4554.5 571.5Q4549 561 4533 559Q4513 574 4506.5 599.5Q4500 625 4500 654Q4500 684 4504.0 714.5Q4508 745 4510 770Q4523 752 4535.5 733.0Q4548 714 4556.5 692.5Q4565 671 4569 645Q4571 631 4571 615Q4571 602 4570 589ZM4767 353Q4787 341 4800 341H4805Q4818 344 4823 355Q4825 362 4825 371V380Q4822 395 4814 404Q4806 412 4795 412Q4793 412 4792 411Q4778 410 4761 390Q4760 386 4760 383Q4760 375 4764 370Q4767 365 4767 357ZM4847 1055Q4837 1059 4829 1059Q4823 1059 4819 1056Q4808 1051 4801.0 1038.5Q4794 1026 4790.0 1010.5Q4786 995 4781 982Q4764 939 4752.0 884.0Q4740 829 4735 770Q4731 721 4731 671V651Q4732 592 4741 541Q4754 529 4769 529H4773Q4790 531 4797 547Q4800 553 4800 560Q4800 567 4798 575Q4793 592 4791 611Q4789 633 4789 660V678Q4790 716 4791 741Q4791 762 4792.5 787.5Q4794 813 4798.0 839.0Q4802 865 4807.5 890.0Q4813 915 4821 935Q4827 952 4837.0 967.5Q4847 983 4853.5 997.0Q4860 1011 4860 1025Q4860 1040 4847 1055ZM5397 590Q5380 599 5369 599Q5365 599 5363 597Q5352 593 5347.5 581.0Q5343 569 5340.0 553.5Q5337 538 5326 529Q5318 522 5311.5 520.5Q5305 519 5299.0 518.5Q5293 518 5285.5 517.5Q5278 517 5267 512Q5243 522 5217.0 529.5Q5191 537 5167.0 546.5Q5143 556 5122.5 568.5Q5102 581 5090 600Q5094 656 5102.5 709.0Q5111 762 5117.0 813.5Q5123 865 5125 918V933Q5125 979 5117 1027Q5107 1043 5090.0 1052.5Q5073 1062 5054 1071Q5018 1069 4999.5 1051.0Q4981 1033 4972.0 1007.5Q4963 982 4959.0 954.0Q4955 926 4948 903Q4956 867 4958.0 828.0Q4960 789 4964.5 752.5Q4969 716 4981.5 685.0Q4994 654 5023 634Q5027 624 5027 613Q5027 607 5026 600Q5022 582 5014.5 563.5Q5007 545 4999.0 528.0Q4991 511 4989 495Q4988 491 4988 487Q4988 476 4992 468Q4998 456 5019 449Q5030 456 5036.5 466.0Q5043 476 5048.5 488.0Q5054 500 5058.5 512.5Q5063 525 5070 536Q5103 526 5137.5 509.5Q5172 493 5220 482Q5233 479 5245.0 473.0Q5257 467 5267 465Q5277 464 5286 464Q5307 464 5327 468Q5356 475 5375.5 491.0Q5395 507 5402 532Q5405 541 5405 551Q5405 569 5397 590ZM5054 1014Q5062 981 5063 940V924Q5063 891 5060 857Q5056 814 5049.0 772.5Q5042 731 5034 697Q5022 728 5013.0 773.0Q5004 818 5004 864Q5004 910 5015.0 951.0Q5026 992 5054 1014ZM5577 1052Q5574 1060 5566.5 1066.0Q5559 1072 5550 1074Q5545 1075 5539 1075Q5535 1075 5531 1074Q5521 1073 5514 1066Q5503 966 5491.0 867.5Q5479 769 5474 672Q5471 618 5471 565Q5471 522 5473 479Q5477 383 5497 287Q5507 284 5516 284Q5522 284 5528 285Q5541 290 5550 300Q5535 395 5531 491Q5528 539 5528 587Q5528 634 5531 682Q5535 777 5547.5 870.0Q5560 963 5577 1052ZM6138 597Q6131 613 6121 624Q6112 634 6092 634H6085Q6066 608 6049.5 581.0Q6033 554 6008 534Q5969 521 5928 516Q5917 515 5905 515Q5873 515 5838 524Q5820 529 5797.5 540.0Q5775 551 5767 561Q5761 569 5751.5 577.0Q5742 585 5733.5 594.0Q5725 603 5720 614Q5716 622 5716 632Q5716 636 5717 641Q5718 650 5723.5 659.0Q5729 668 5737.5 677.0Q5746 686 5755.5 693.0Q5765 700 5774 704Q5787 710 5801.0 712.5Q5815 715 5829.0 717.0Q5843 719 5856.5 722.0Q5870 725 5881 734Q5928 735 5976.0 752.5Q6024 770 6058 798Q6090 841 6090 884V891Q6087 937 6058.0 972.5Q6029 1008 5981 1028Q5944 1043 5903 1043Q5891 1043 5878 1042Q5849 1032 5823.0 1019.5Q5797 1007 5776.5 989.0Q5756 971 5742.0 946.5Q5728 922 5724 888H5727Q5733 888 5739 885Q5747 882 5755 879Q5762 877 5768 877H5771Q5778 878 5784 885Q5792 890 5796 900Q5797 905 5797 909Q5797 916 5794 922Q5815 952 5850 966Q5878 978 5907 978Q5913 978 5920 977Q5955 974 5986.0 955.5Q6017 937 6031 902Q6029 883 6021.0 866.0Q6013 849 6001 835Q5973 819 5939.5 809.0Q5906 799 5871.5 790.5Q5837 782 5803.5 773.0Q5770 764 5740.5 750.0Q5711 736 5688.5 715.0Q5666 694 5654 661V621Q5659 602 5668.0 587.5Q5677 573 5688.0 560.0Q5699 547 5711.0 535.5Q5723 524 5734 511Q5745 505 5756.5 500.0Q5768 495 5779.5 489.5Q5791 484 5801.0 477.0Q5811 470 5818 460Q5832 464 5848 464Q5850 464 5852 463Q5870 463 5888.5 460.5Q5907 458 5924 456H5938Q5947 456 5955 457Q6002 465 6036.0 488.5Q6070 512 6102 537Q6103 548 6108.0 555.5Q6113 563 6118.5 569.5Q6124 576 6129.5 582.5Q6135 589 6138 597Z" fill="currentColor" /></svg>