<svg viewBox="0 0 3917.9201388888887 795.5952380952381" xmlns="http://www.w3.org/2000/svg"><path d="M320.8888888888889 53.428571428571445Q349.8888888888889 55.428571428571445 372.8888888888889 83.42857142857144Q376.8888888888889 89.42857142857144 380.8888888888889 94.92857142857144Q384.8888888888889 100.42857142857144 386.8888888888889 107.42857142857144Q392.8888888888889 122.42857142857144 390.8888888888889 150.42857142857144Q388.8888888888889 178.42857142857144 393.8888888888889 195.92857142857144Q398.8888888888889 213.42857142857144 403.8888888888889 229.42857142857144Q412.8888888888889 257.42857142857144 392.8888888888889 304.42857142857144Q377.8888888888889 347.42857142857144 355.8888888888889 355.42857142857144L337.8888888888889 361.42857142857144Q311.8888888888889 370.42857142857144 293.3888888888889 367.92857142857144Q274.8888888888889 365.42857142857144 267.8888888888889 357.42857142857144Q247.88888888888889 331.42857142857144 257.8888888888889 297.42857142857144Q259.8888888888889 290.42857142857144 257.8888888888889 275.42857142857144Q255.88888888888889 260.42857142857144 240.88888888888889 256.42857142857144Q232.88888888888889 254.42857142857144 230.38888888888889 249.42857142857144Q227.88888888888889 244.42857142857144 226.38888888888889 240.92857142857144Q224.88888888888889 237.42857142857144 223.38888888888889 235.92857142857144Q221.88888888888889 234.42857142857144 213.88888888888889 240.42857142857144Q205.88888888888889 246.42857142857144 204.88888888888889 246.92857142857144Q203.88888888888889 247.42857142857144 198.38888888888889 245.42857142857144Q192.88888888888889 243.42857142857144 187.88888888888889 246.42857142857144Q182.88888888888889 249.42857142857144 177.88888888888889 257.42857142857144Q159.88888888888889 288.42857142857144 170.88888888888889 358.42857142857144Q174.88888888888889 379.42857142857144 178.88888888888889 397.42857142857144Q186.88888888888889 442.42857142857144 186.38888888888889 457.42857142857144Q185.88888888888889 472.42857142857144 180.38888888888889 488.92857142857144Q174.88888888888889 505.42857142857144 170.88888888888889 521.4285714285714Q158.88888888888889 562.4285714285714 173.88888888888889 591.4285714285714Q191.88888888888889 627.4285714285714 196.88888888888889 633.4285714285714Q205.88888888888889 642.4285714285714 218.88888888888889 640.9285714285714Q231.88888888888889 639.4285714285714 238.88888888888889 627.9285714285714Q245.88888888888889 616.4285714285714 251.8888888888889 602.9285714285714Q257.8888888888889 589.4285714285714 264.8888888888889 577.4285714285714Q271.8888888888889 565.4285714285714 281.3888888888889 563.4285714285714Q290.8888888888889 561.4285714285714 305.8888888888889 562.9285714285714Q320.8888888888889 564.4285714285714 326.3888888888889 564.4285714285714Q331.8888888888889 564.4285714285714 339.8888888888889 570.9285714285714Q347.8888888888889 577.4285714285714 348.3888888888889 599.9285714285714Q348.8888888888889 622.4285714285714 349.8888888888889 635.9285714285714Q350.8888888888889 649.4285714285714 342.8888888888889 659.9285714285714Q334.8888888888889 670.4285714285714 332.3888888888889 678.9285714285714Q329.8888888888889 687.4285714285714 328.8888888888889 695.4285714285714Q327.8888888888889 716.4285714285714 321.3888888888889 726.4285714285714Q314.8888888888889 736.4285714285714 309.3888888888889 742.9285714285714Q303.8888888888889 749.4285714285714 280.3888888888889 749.4285714285714Q256.8888888888889 749.4285714285714 237.8888888888889 771.4285714285714Q218.88888888888889 793.4285714285714 201.88888888888889 790.9285714285714Q184.88888888888889 788.4285714285714 177.88888888888889 770.4285714285714Q170.88888888888889 754.4285714285714 146.88888888888889 753.4285714285714Q139.88888888888889 752.4285714285714 133.88888888888889 749.9285714285714Q127.88888888888889 747.4285714285714 119.88888888888889 745.9285714285714Q111.88888888888889 744.4285714285714 103.88888888888889 739.4285714285714Q83.88888888888889 728.4285714285714 70.88888888888889 704.4285714285714Q62.888888888888886 689.4285714285714 55.388888888888886 679.4285714285714Q47.888888888888886 669.4285714285714 42.888888888888886 660.4285714285714Q29.88888888888889 640.4285714285714 32.888888888888886 622.4285714285714Q38.888888888888886 574.4285714285714 19.88888888888889 559.4285714285714Q8.88888888888889 552.4285714285714 8.88888888888889 548.4285714285714Q8.88888888888889 544.4285714285714 4.888888888888889 531.4285714285714Q-1.1111111111111107 513.4285714285714 5.388888888888889 489.42857142857144Q11.88888888888889 465.42857142857144 9.88888888888889 449.92857142857144Q7.888888888888889 434.42857142857144 4.888888888888889 417.42857142857144Q-1.1111111111111107 373.42857142857144 3.8888888888888893 359.42857142857144Q8.88888888888889 345.42857142857144 6.388888888888889 319.42857142857144Q3.8888888888888893 293.42857142857144 3.8888888888888893 276.92857142857144Q3.8888888888888893 260.42857142857144 1.3888888888888893 233.42857142857144Q-1.1111111111111107 206.42857142857144 0.8888888888888893 175.42857142857144Q7.888888888888889 97.42857142857144 53.888888888888886 68.42857142857144Q122.88888888888889 27.428571428571445 141.88888888888889 29.428571428571445Q147.88888888888889 29.428571428571445 156.38888888888889 30.928571428571445Q164.88888888888889 32.428571428571445 172.88888888888889 30.428571428571445Q180.88888888888889 28.428571428571445 186.88888888888889 24.428571428571445Q192.88888888888889 20.428571428571445 198.88888888888889 15.428571428571445Q222.88888888888889 -6.571428571428555 241.88888888888889 10.428571428571445Q259.8888888888889 31.428571428571445 269.8888888888889 38.428571428571445Q286.8888888888889 51.428571428571445 320.8888888888889 53.428571428571445ZM707.8888888888889 40.428571428571445 739.8888888888889 38.428571428571445Q773.8888888888889 38.428571428571445 788.3888888888889 49.428571428571445Q802.8888888888889 60.428571428571445 810.3888888888889 69.42857142857144Q817.8888888888889 78.42857142857144 823.8888888888889 87.92857142857144Q829.8888888888889 97.42857142857144 840.3888888888889 107.42857142857144Q850.8888888888889 117.42857142857144 850.8888888888889 130.92857142857144Q850.8888888888889 144.42857142857144 858.3888888888889 152.42857142857144Q865.8888888888889 160.42857142857144 865.8888888888889 178.42857142857144Q865.8888888888889 196.42857142857144 865.3888888888889 212.92857142857144Q864.8888888888889 229.42857142857144 861.8888888888889 239.92857142857144Q858.8888888888889 250.42857142857144 858.8888888888889 260.92857142857144Q858.8888888888889 271.42857142857144 863.3888888888889 279.92857142857144Q867.8888888888889 288.42857142857144 864.3888888888889 320.92857142857144Q860.8888888888889 353.42857142857144 853.3888888888889 386.42857142857144Q845.8888888888889 419.42857142857144 833.8888888888889 443.42857142857144Q809.8888888888889 488.42857142857144 755.8888888888889 514.4285714285714Q760.8888888888889 526.4285714285714 767.3888888888889 540.9285714285714Q773.8888888888889 555.4285714285714 779.8888888888889 570.4285714285714Q792.8888888888889 607.4285714285714 792.8888888888889 623.9285714285714Q792.8888888888889 640.4285714285714 794.3888888888889 647.9285714285714Q795.8888888888889 655.4285714285714 797.8888888888889 659.4285714285714Q799.8888888888889 663.4285714285714 803.3888888888889 665.4285714285714Q806.8888888888889 667.4285714285714 813.8888888888889 672.9285714285714Q820.8888888888889 678.4285714285714 824.8888888888889 691.4285714285714Q828.8888888888889 704.4285714285714 828.8888888888889 718.4285714285714Q828.8888888888889 750.4285714285714 821.3888888888889 757.9285714285714Q813.8888888888889 765.4285714285714 805.3888888888889 767.9285714285714Q796.8888888888889 770.4285714285714 787.8888888888889 771.4285714285714Q764.8888888888889 774.4285714285714 758.8888888888889 765.4285714285714Q750.8888888888889 757.4285714285714 750.3888888888889 748.9285714285714Q749.8888888888889 740.4285714285714 746.8888888888889 733.9285714285714Q743.8888888888889 727.4285714285714 737.8888888888889 725.9285714285714Q731.8888888888889 724.4285714285714 729.3888888888889 713.4285714285714Q726.8888888888889 702.4285714285714 722.3888888888889 698.9285714285714Q717.8888888888889 695.4285714285714 703.8888888888889 697.4285714285714Q678.8888888888889 702.4285714285714 666.8888888888889 667.4285714285714Q663.8888888888889 659.4285714285714 660.8888888888889 646.4285714285714Q657.8888888888889 633.4285714285714 653.8888888888889 621.4285714285714Q645.8888888888889 592.4285714285714 635.3888888888889 589.9285714285714Q624.8888888888889 587.4285714285714 619.8888888888889 592.4285714285714Q614.8888888888889 597.4285714285714 612.3888888888889 605.9285714285714Q609.8888888888889 614.4285714285714 609.8888888888889 624.9285714285714Q609.8888888888889 635.4285714285714 612.3888888888889 647.4285714285714Q614.8888888888889 659.4285714285714 612.8888888888889 667.4285714285714Q610.8888888888889 675.4285714285714 607.3888888888889 680.4285714285714Q603.8888888888889 685.4285714285714 599.8888888888889 689.4285714285714Q591.8888888888889 694.4285714285714 590.3888888888889 709.4285714285714Q588.8888888888889 724.4285714285714 585.8888888888889 735.4285714285714Q579.8888888888889 762.4285714285714 569.8888888888889 769.4285714285714Q559.8888888888889 776.4285714285714 549.8888888888889 777.9285714285714Q539.8888888888889 779.4285714285714 529.8888888888889 777.4285714285714Q504.8888888888889 772.4285714285714 498.8888888888889 759.9285714285714Q492.8888888888889 747.4285714285714 491.8888888888889 740.9285714285714Q490.8888888888889 734.4285714285714 491.3888888888889 728.4285714285714Q491.8888888888889 722.4285714285714 492.8888888888889 715.4285714285714Q493.8888888888889 708.4285714285714 493.3888888888889 698.9285714285714Q492.8888888888889 689.4285714285714 488.8888888888889 673.4285714285714Q484.8888888888889 657.4285714285714 483.8888888888889 635.4285714285714L482.8888888888889 609.4285714285714Q482.8888888888889 605.4285714285714 489.8888888888889 595.9285714285714Q496.8888888888889 586.4285714285714 494.3888888888889 573.9285714285714Q491.8888888888889 561.4285714285714 482.8888888888889 557.9285714285714Q473.8888888888889 554.4285714285714 473.8888888888889 549.4285714285714Q473.8888888888889 544.4285714285714 475.8888888888889 524.4285714285714Q477.8888888888889 504.42857142857144 474.3888888888889 474.42857142857144Q470.8888888888889 444.42857142857144 469.8888888888889 421.42857142857144Q465.8888888888889 371.42857142857144 452.3888888888889 364.92857142857144Q438.8888888888889 358.42857142857144 436.8888888888889 348.92857142857144Q434.8888888888889 339.42857142857144 436.8888888888889 327.42857142857144Q438.8888888888889 315.42857142857144 441.3888888888889 297.42857142857144Q443.8888888888889 279.42857142857144 446.8888888888889 260.92857142857144Q449.8888888888889 242.42857142857144 452.3888888888889 226.42857142857144Q454.8888888888889 210.42857142857144 455.8888888888889 204.42857142857144Q456.8888888888889 198.42857142857144 456.3888888888889 192.92857142857144Q455.8888888888889 187.42857142857144 455.8888888888889 182.42857142857144Q453.8888888888889 166.42857142857144 455.8888888888889 154.42857142857144Q459.8888888888889 131.42857142857144 457.8888888888889 121.92857142857144Q455.8888888888889 112.42857142857144 461.3888888888889 92.92857142857144Q466.8888888888889 73.42857142857144 470.8888888888889 65.42857142857144Q474.8888888888889 57.428571428571445 485.8888888888889 53.428571428571445Q496.8888888888889 49.428571428571445 507.3888888888889 41.928571428571445Q517.8888888888889 34.428571428571445 526.8888888888889 26.928571428571445Q535.8888888888889 19.428571428571445 542.8888888888889 12.928571428571445Q549.8888888888889 6.428571428571445 559.8888888888889 3.428571428571445Q588.8888888888889 -2.571428571428555 602.3888888888889 1.9285714285714448Q615.8888888888889 6.428571428571445 621.8888888888889 11.428571428571445Q627.8888888888889 16.428571428571445 636.3888888888889 21.428571428571445Q644.8888888888889 26.428571428571445 654.3888888888889 28.928571428571445Q663.8888888888889 31.428571428571445 671.8888888888889 31.428571428571445Q692.8888888888889 33.428571428571445 697.3888888888889 36.928571428571445Q701.8888888888889 40.428571428571445 707.8888888888889 40.428571428571445ZM624.8888888888889 319.42857142857144 630.8888888888889 410.42857142857144Q630.8888888888889 419.42857142857144 629.8888888888889 427.92857142857144Q628.8888888888889 436.42857142857144 627.8888888888889 443.42857142857144Q626.8888888888889 458.42857142857144 638.8888888888889 461.42857142857144Q648.8888888888889 463.42857142857144 654.8888888888889 455.92857142857144Q660.8888888888889 448.42857142857144 665.8888888888889 435.42857142857144Q677.8888888888889 410.42857142857144 673.8888888888889 403.42857142857144Q665.8888888888889 393.42857142857144 669.3888888888889 385.92857142857144Q672.8888888888889 378.42857142857144 684.3888888888889 356.42857142857144Q695.8888888888889 334.42857142857144 701.3888888888889 318.42857142857144Q706.8888888888889 302.42857142857144 703.8888888888889 283.92857142857144Q700.8888888888889 265.42857142857144 700.8888888888889 258.42857142857144V247.42857142857144Q700.8888888888889 239.42857142857144 693.3888888888889 232.92857142857144Q685.8888888888889 226.42857142857144 682.8888888888889 225.92857142857144Q679.8888888888889 225.42857142857144 677.8888888888889 225.42857142857144Q668.8888888888889 227.42857142857144 660.8888888888889 223.92857142857144Q652.8888888888889 220.42857142857144 645.8888888888889 220.92857142857144Q638.8888888888889 221.42857142857144 629.8888888888889 230.42857142857144Q620.8888888888889 239.42857142857144 619.8888888888889 248.92857142857144Q618.8888888888889 258.42857142857144 619.8888888888889 270.42857142857144Q624.8888888888889 306.42857142857144 624.8888888888889 319.42857142857144ZM935.8888888888889 571.4285714285714 934.8888888888889 520.4285714285714Q934.8888888888889 506.42857142857144 935.8888888888889 494.42857142857144Q936.8888888888889 481.42857142857144 933.8888888888889 462.42857142857144Q928.8888888888889 429.42857142857144 929.3888888888889 413.92857142857144Q929.8888888888889 398.42857142857144 929.3888888888889 388.92857142857144Q928.8888888888889 379.42857142857144 926.8888888888889 371.42857142857144Q923.8888888888889 359.42857142857144 912.3888888888889 333.42857142857144Q900.8888888888889 307.42857142857144 900.8888888888889 277.42857142857144Q900.8888888888889 247.42857142857144 913.8888888888889 229.42857142857144Q925.8888888888889 211.42857142857144 922.8888888888889 192.42857142857144Q919.8888888888889 173.42857142857144 918.3888888888889 151.92857142857144Q916.8888888888889 130.42857142857144 917.8888888888889 107.92857142857144Q918.8888888888889 85.42857142857144 927.8888888888889 64.42857142857144Q949.8888888888889 13.428571428571445 1015.8888888888889 15.428571428571445Q1056.888888888889 16.428571428571445 1086.888888888889 23.428571428571445Q1116.888888888889 30.428571428571445 1130.888888888889 29.428571428571445Q1144.888888888889 28.428571428571445 1173.888888888889 19.428571428571445Q1215.888888888889 3.428571428571445 1240.888888888889 21.428571428571445Q1247.888888888889 26.428571428571445 1254.388888888889 28.928571428571445Q1260.888888888889 31.428571428571445 1265.888888888889 36.428571428571445Q1282.888888888889 55.428571428571445 1275.888888888889 119.42857142857144Q1273.888888888889 138.42857142857144 1271.888888888889 157.42857142857144Q1266.888888888889 202.42857142857144 1271.888888888889 224.42857142857144Q1276.888888888889 246.42857142857144 1277.388888888889 262.92857142857144Q1277.888888888889 279.42857142857144 1275.888888888889 292.42857142857144Q1269.888888888889 321.42857142857144 1252.888888888889 321.42857142857144Q1237.888888888889 320.42857142857144 1231.388888888889 311.92857142857144Q1224.888888888889 303.42857142857144 1220.888888888889 292.92857142857144Q1216.888888888889 282.42857142857144 1212.388888888889 273.92857142857144Q1207.888888888889 265.42857142857144 1192.888888888889 265.42857142857144Q1148.888888888889 265.42857142857144 1134.388888888889 255.92857142857144Q1119.888888888889 246.42857142857144 1108.888888888889 244.92857142857144Q1097.888888888889 243.42857142857144 1087.888888888889 247.42857142857144Q1066.888888888889 256.42857142857144 1063.388888888889 280.42857142857144Q1059.888888888889 304.42857142857144 1058.888888888889 322.42857142857144Q1057.888888888889 340.42857142857144 1058.888888888889 355.42857142857144Q1060.888888888889 390.42857142857144 1072.388888888889 394.92857142857144Q1083.888888888889 399.42857142857144 1091.888888888889 395.92857142857144Q1099.888888888889 392.42857142857144 1107.888888888889 387.42857142857144Q1131.888888888889 371.42857142857144 1157.388888888889 371.92857142857144Q1182.888888888889 372.42857142857144 1195.388888888889 392.42857142857144Q1207.888888888889 412.42857142857144 1205.888888888889 430.92857142857144Q1203.888888888889 449.42857142857144 1202.388888888889 467.42857142857144Q1200.888888888889 485.42857142857144 1197.888888888889 501.42857142857144Q1183.888888888889 563.4285714285714 1139.888888888889 525.4285714285714Q1082.888888888889 521.4285714285714 1068.888888888889 539.4285714285714Q1065.888888888889 544.4285714285714 1062.888888888889 560.4285714285714Q1059.888888888889 576.4285714285714 1061.888888888889 594.4285714285714Q1066.888888888889 641.4285714285714 1106.888888888889 644.4285714285714Q1132.888888888889 646.4285714285714 1154.388888888889 637.4285714285714Q1175.888888888889 628.4285714285714 1182.888888888889 617.4285714285714Q1188.888888888889 605.4285714285714 1197.888888888889 603.9285714285714Q1206.888888888889 602.4285714285714 1213.888888888889 600.9285714285714Q1220.888888888889 599.4285714285714 1227.888888888889 599.4285714285714Q1234.888888888889 599.4285714285714 1241.888888888889 601.4285714285714Q1259.888888888889 607.4285714285714 1263.388888888889 629.4285714285714Q1266.888888888889 651.4285714285714 1258.888888888889 669.4285714285714Q1250.888888888889 687.4285714285714 1248.388888888889 701.9285714285714Q1245.888888888889 716.4285714285714 1243.888888888889 723.4285714285714Q1241.888888888889 730.4285714285714 1232.388888888889 740.9285714285714Q1222.888888888889 751.4285714285714 1217.388888888889 758.4285714285714Q1211.888888888889 765.4285714285714 1199.888888888889 755.4285714285714Q1177.888888888889 738.4285714285714 1146.888888888889 775.4285714285714Q1138.888888888889 786.4285714285714 1129.888888888889 791.4285714285714Q1120.888888888889 796.4285714285714 1101.888888888889 795.4285714285714Q1082.888888888889 794.4285714285714 1071.888888888889 785.4285714285714Q1060.888888888889 776.4285714285714 1051.888888888889 767.4285714285714Q1036.888888888889 748.4285714285714 999.8888888888889 753.4285714285714Q977.8888888888889 756.4285714285714 963.8888888888889 734.4285714285714Q960.8888888888889 731.4285714285714 959.3888888888889 723.4285714285714Q957.8888888888889 715.4285714285714 955.8888888888889 705.4285714285714Q948.8888888888889 679.4285714285714 943.3888888888889 671.9285714285714Q937.8888888888889 664.4285714285714 937.3888888888889 652.4285714285714Q936.8888888888889 640.4285714285714 934.8888888888889 626.9285714285714Q932.8888888888889 613.4285714285714 931.8888888888889 606.9285714285714Q930.8888888888889 600.4285714285714 933.3888888888889 591.4285714285714Q935.8888888888889 582.4285714285714 935.8888888888889 571.4285714285714ZM1348.888888888889 571.4285714285714 1347.888888888889 520.4285714285714Q1347.888888888889 506.42857142857144 1348.888888888889 494.42857142857144Q1349.888888888889 481.42857142857144 1346.888888888889 462.42857142857144Q1341.888888888889 429.42857142857144 1342.388888888889 413.92857142857144Q1342.888888888889 398.42857142857144 1342.388888888889 388.92857142857144Q1341.888888888889 379.42857142857144 1339.888888888889 371.42857142857144Q1336.888888888889 359.42857142857144 1325.388888888889 333.42857142857144Q1313.888888888889 307.42857142857144 1313.888888888889 277.42857142857144Q1313.888888888889 247.42857142857144 1326.888888888889 229.42857142857144Q1338.888888888889 211.42857142857144 1335.888888888889 192.42857142857144Q1332.888888888889 173.42857142857144 1331.388888888889 151.92857142857144Q1329.888888888889 130.42857142857144 1330.888888888889 107.92857142857144Q1331.888888888889 85.42857142857144 1340.888888888889 64.42857142857144Q1362.888888888889 13.428571428571445 1428.888888888889 15.428571428571445Q1469.888888888889 16.428571428571445 1499.888888888889 23.428571428571445Q1529.888888888889 30.428571428571445 1543.888888888889 29.428571428571445Q1557.888888888889 28.428571428571445 1586.888888888889 19.428571428571445Q1628.888888888889 3.428571428571445 1653.888888888889 21.428571428571445Q1660.888888888889 26.428571428571445 1667.388888888889 28.928571428571445Q1673.888888888889 31.428571428571445 1678.888888888889 36.428571428571445Q1695.888888888889 55.428571428571445 1688.888888888889 119.42857142857144Q1686.888888888889 138.42857142857144 1684.888888888889 157.42857142857144Q1679.888888888889 202.42857142857144 1684.888888888889 224.42857142857144Q1689.888888888889 246.42857142857144 1690.388888888889 262.92857142857144Q1690.888888888889 279.42857142857144 1688.888888888889 292.42857142857144Q1682.888888888889 321.42857142857144 1665.888888888889 321.42857142857144Q1650.888888888889 320.42857142857144 1644.388888888889 311.92857142857144Q1637.888888888889 303.42857142857144 1633.888888888889 292.92857142857144Q1629.888888888889 282.42857142857144 1625.388888888889 273.92857142857144Q1620.888888888889 265.42857142857144 1605.888888888889 265.42857142857144Q1561.888888888889 265.42857142857144 1547.388888888889 255.92857142857144Q1532.888888888889 246.42857142857144 1521.888888888889 244.92857142857144Q1510.888888888889 243.42857142857144 1500.888888888889 247.42857142857144Q1479.888888888889 256.42857142857144 1476.388888888889 280.42857142857144Q1472.888888888889 304.42857142857144 1471.888888888889 322.42857142857144Q1470.888888888889 340.42857142857144 1471.888888888889 355.42857142857144Q1473.888888888889 390.42857142857144 1485.388888888889 394.92857142857144Q1496.888888888889 399.42857142857144 1504.888888888889 395.92857142857144Q1512.888888888889 392.42857142857144 1520.888888888889 387.42857142857144Q1544.888888888889 371.42857142857144 1570.388888888889 371.92857142857144Q1595.888888888889 372.42857142857144 1608.388888888889 392.42857142857144Q1620.888888888889 412.42857142857144 1618.888888888889 430.92857142857144Q1616.888888888889 449.42857142857144 1615.388888888889 467.42857142857144Q1613.888888888889 485.42857142857144 1610.888888888889 501.42857142857144Q1596.888888888889 563.4285714285714 1552.888888888889 525.4285714285714Q1495.888888888889 521.4285714285714 1481.888888888889 539.4285714285714Q1478.888888888889 544.4285714285714 1475.888888888889 560.4285714285714Q1472.888888888889 576.4285714285714 1474.888888888889 594.4285714285714Q1479.888888888889 641.4285714285714 1519.888888888889 644.4285714285714Q1545.888888888889 646.4285714285714 1567.388888888889 637.4285714285714Q1588.888888888889 628.4285714285714 1595.888888888889 617.4285714285714Q1601.888888888889 605.4285714285714 1610.888888888889 603.9285714285714Q1619.888888888889 602.4285714285714 1626.888888888889 600.9285714285714Q1633.888888888889 599.4285714285714 1640.888888888889 599.4285714285714Q1647.888888888889 599.4285714285714 1654.888888888889 601.4285714285714Q1672.888888888889 607.4285714285714 1676.388888888889 629.4285714285714Q1679.888888888889 651.4285714285714 1671.888888888889 669.4285714285714Q1663.888888888889 687.4285714285714 1661.388888888889 701.9285714285714Q1658.888888888889 716.4285714285714 1656.888888888889 723.4285714285714Q1654.888888888889 730.4285714285714 1645.388888888889 740.9285714285714Q1635.888888888889 751.4285714285714 1630.388888888889 758.4285714285714Q1624.888888888889 765.4285714285714 1612.888888888889 755.4285714285714Q1590.888888888889 738.4285714285714 1559.888888888889 775.4285714285714Q1551.888888888889 786.4285714285714 1542.888888888889 791.4285714285714Q1533.888888888889 796.4285714285714 1514.888888888889 795.4285714285714Q1495.888888888889 794.4285714285714 1484.888888888889 785.4285714285714Q1473.888888888889 776.4285714285714 1464.888888888889 767.4285714285714Q1449.888888888889 748.4285714285714 1412.888888888889 753.4285714285714Q1390.888888888889 756.4285714285714 1376.888888888889 734.4285714285714Q1373.888888888889 731.4285714285714 1372.388888888889 723.4285714285714Q1370.888888888889 715.4285714285714 1368.888888888889 705.4285714285714Q1361.888888888889 679.4285714285714 1356.388888888889 671.9285714285714Q1350.888888888889 664.4285714285714 1350.388888888889 652.4285714285714Q1349.888888888889 640.4285714285714 1347.888888888889 626.9285714285714Q1345.888888888889 613.4285714285714 1344.888888888889 606.9285714285714Q1343.888888888889 600.4285714285714 1346.388888888889 591.4285714285714Q1348.888888888889 582.4285714285714 1348.888888888889 571.4285714285714ZM1845.888888888889 774.4285714285714Q1831.888888888889 773.4285714285714 1817.388888888889 744.4285714285714Q1802.888888888889 715.4285714285714 1797.388888888889 670.4285714285714Q1791.888888888889 625.4285714285714 1789.888888888889 609.4285714285714Q1787.888888888889 593.4285714285714 1785.888888888889 585.4285714285714Q1782.888888888889 570.4285714285714 1774.388888888889 558.9285714285714Q1765.888888888889 547.4285714285714 1763.888888888889 541.4285714285714Q1761.888888888889 532.4285714285714 1762.888888888889 496.42857142857144Q1764.888888888889 419.42857142857144 1755.888888888889 394.42857142857144Q1751.888888888889 383.42857142857144 1752.888888888889 376.42857142857144Q1753.888888888889 369.42857142857144 1753.388888888889 361.42857142857144Q1752.888888888889 353.42857142857144 1747.888888888889 344.42857142857144Q1742.888888888889 335.42857142857144 1737.888888888889 323.42857142857144Q1721.888888888889 291.42857142857144 1721.888888888889 279.42857142857144Q1721.888888888889 264.42857142857144 1731.888888888889 245.42857142857144Q1753.888888888889 208.42857142857144 1757.388888888889 193.92857142857144Q1760.888888888889 179.42857142857144 1760.388888888889 156.92857142857144Q1759.888888888889 134.42857142857144 1759.888888888889 111.42857142857144Q1757.888888888889 52.428571428571445 1769.888888888889 37.428571428571445Q1777.888888888889 29.428571428571445 1788.888888888889 26.428571428571445Q1799.888888888889 23.428571428571445 1816.888888888889 17.428571428571445Q1850.888888888889 5.428571428571445 1868.388888888889 5.428571428571445Q1885.888888888889 5.428571428571445 1896.388888888889 14.928571428571445Q1906.888888888889 24.428571428571445 1920.888888888889 25.928571428571445Q1934.888888888889 27.428571428571445 1940.388888888889 25.928571428571445Q1945.888888888889 24.428571428571445 1949.888888888889 23.428571428571445Q1961.888888888889 18.428571428571445 1969.888888888889 18.428571428571445Q1982.888888888889 18.428571428571445 1988.888888888889 28.428571428571445Q1994.888888888889 38.428571428571445 1999.888888888889 44.928571428571445Q2004.888888888889 51.428571428571445 2016.388888888889 48.428571428571445Q2027.888888888889 45.428571428571445 2033.888888888889 45.428571428571445Q2039.888888888889 45.428571428571445 2043.888888888889 45.428571428571445Q2058.8888888888887 47.428571428571445 2069.8888888888887 44.428571428571445Q2091.8888888888887 37.428571428571445 2103.8888888888887 51.428571428571445Q2106.8888888888887 58.428571428571445 2117.8888888888887 61.428571428571445Q2128.8888888888887 64.42857142857144 2136.8888888888887 69.42857142857144Q2155.8888888888887 79.42857142857144 2162.8888888888887 104.42857142857144Q2176.8888888888887 150.42857142857144 2166.8888888888887 199.42857142857144Q2162.8888888888887 216.42857142857144 2160.3888888888887 226.42857142857144Q2157.8888888888887 236.42857142857144 2156.3888888888887 243.92857142857144Q2154.8888888888887 251.42857142857144 2154.3888888888887 258.42857142857144Q2153.8888888888887 265.42857142857144 2153.3888888888887 275.42857142857144Q2152.8888888888887 285.42857142857144 2152.8888888888887 297.42857142857144V324.42857142857144Q2152.8888888888887 355.42857142857144 2154.8888888888887 373.42857142857144Q2160.8888888888887 423.42857142857144 2109.8888888888887 445.42857142857144Q2092.8888888888887 452.42857142857144 2085.8888888888887 458.42857142857144Q2078.8888888888887 464.42857142857144 2073.8888888888887 476.42857142857144Q2068.8888888888887 488.42857142857144 2055.3888888888887 506.42857142857144Q2041.888888888889 524.4285714285714 2014.388888888889 534.9285714285714Q1986.888888888889 545.4285714285714 1966.888888888889 552.4285714285714Q1946.888888888889 559.4285714285714 1941.888888888889 569.4285714285714Q1934.888888888889 582.4285714285714 1938.388888888889 630.9285714285714Q1941.888888888889 679.4285714285714 1940.888888888889 692.4285714285714Q1939.888888888889 705.4285714285714 1937.888888888889 713.9285714285714Q1935.888888888889 722.4285714285714 1927.888888888889 727.4285714285714Q1919.888888888889 732.4285714285714 1913.888888888889 732.4285714285714Q1907.888888888889 732.4285714285714 1901.388888888889 738.4285714285714Q1894.888888888889 744.4285714285714 1889.888888888889 750.4285714285714Q1884.888888888889 756.4285714285714 1878.888888888889 761.4285714285714Q1864.888888888889 774.4285714285714 1845.888888888889 774.4285714285714ZM1913.888888888889 214.42857142857144Q1907.888888888889 220.42857142857144 1901.888888888889 249.42857142857144Q1895.888888888889 278.42857142857144 1895.888888888889 295.42857142857144Q1895.888888888889 312.42857142857144 1902.888888888889 325.92857142857144Q1909.888888888889 339.42857142857144 1909.388888888889 347.92857142857144Q1908.888888888889 356.42857142857144 1907.388888888889 365.92857142857144Q1905.888888888889 375.42857142857144 1905.888888888889 385.42857142857144Q1903.888888888889 409.42857142857144 1909.888888888889 415.42857142857144Q1915.888888888889 421.42857142857144 1923.388888888889 419.92857142857144Q1930.888888888889 418.42857142857144 1938.888888888889 414.42857142857144Q1946.888888888889 410.42857142857144 1953.388888888889 405.92857142857144Q1959.888888888889 401.42857142857144 1966.388888888889 399.42857142857144Q1972.888888888889 397.42857142857144 1975.888888888889 390.42857142857144Q1978.888888888889 383.42857142857144 1984.888888888889 378.42857142857144Q1991.888888888889 373.42857142857144 1994.388888888889 364.92857142857144Q1996.888888888889 356.42857142857144 1999.388888888889 346.92857142857144Q2001.888888888889 337.42857142857144 1998.888888888889 328.92857142857144Q1995.888888888889 320.42857142857144 1987.888888888889 303.42857142857144Q1981.888888888889 286.42857142857144 1983.888888888889 276.42857142857144Q1991.888888888889 234.42857142857144 1973.888888888889 218.42857142857144Q1950.888888888889 204.42857142857144 1935.388888888889 206.42857142857144Q1919.888888888889 208.42857142857144 1913.888888888889 214.42857142857144ZM2551.8888888888887 303.42857142857144Q2550.8888888888887 325.42857142857144 2527.8888888888887 333.42857142857144Q2507.8888888888887 341.42857142857144 2496.8888888888887 332.42857142857144Q2485.8888888888887 323.42857142857144 2478.8888888888887 308.92857142857144Q2471.8888888888887 294.42857142857144 2468.3888888888887 283.92857142857144Q2464.8888888888887 273.42857142857144 2456.8888888888887 272.42857142857144Q2442.8888888888887 269.42857142857144 2435.3888888888887 275.42857142857144Q2427.8888888888887 281.42857142857144 2423.8888888888887 285.42857142857144Q2415.8888888888887 293.42857142857144 2407.3888888888887 296.42857142857144Q2398.8888888888887 299.42857142857144 2393.8888888888887 302.42857142857144Q2383.8888888888887 309.42857142857144 2385.8888888888887 325.42857142857144Q2389.8888888888887 356.42857142857144 2454.8888888888887 419.42857142857144Q2466.8888888888887 431.42857142857144 2483.3888888888887 445.42857142857144Q2499.8888888888887 459.42857142857144 2515.8888888888887 477.42857142857144Q2551.8888888888887 520.4285714285714 2555.8888888888887 574.4285714285714Q2559.8888888888887 629.4285714285714 2539.8888888888887 670.4285714285714Q2523.8888888888887 703.4285714285714 2501.8888888888887 713.4285714285714Q2484.8888888888887 722.4285714285714 2478.8888888888887 736.9285714285714Q2472.8888888888887 751.4285714285714 2469.8888888888887 757.9285714285714Q2466.8888888888887 764.4285714285714 2457.3888888888887 768.9285714285714Q2447.8888888888887 773.4285714285714 2435.8888888888887 772.4285714285714Q2423.8888888888887 771.4285714285714 2413.3888888888887 767.9285714285714Q2402.8888888888887 764.4285714285714 2394.3888888888887 759.9285714285714Q2385.8888888888887 755.4285714285714 2380.3888888888887 754.4285714285714Q2374.8888888888887 753.4285714285714 2369.8888888888887 757.9285714285714Q2364.8888888888887 762.4285714285714 2359.8888888888887 767.4285714285714Q2344.8888888888887 782.4285714285714 2332.8888888888887 778.9285714285714Q2320.8888888888887 775.4285714285714 2304.8888888888887 767.4285714285714Q2288.8888888888887 759.4285714285714 2273.8888888888887 747.4285714285714Q2219.8888888888887 705.4285714285714 2236.8888888888887 661.4285714285714Q2247.8888888888887 632.4285714285714 2261.3888888888887 620.4285714285714Q2274.8888888888887 608.4285714285714 2282.8888888888887 608.4285714285714Q2295.8888888888887 608.4285714285714 2300.3888888888887 617.9285714285714Q2304.8888888888887 627.4285714285714 2307.8888888888887 633.9285714285714Q2310.8888888888887 640.4285714285714 2314.8888888888887 644.4285714285714Q2318.8888888888887 648.4285714285714 2327.3888888888887 652.4285714285714Q2335.8888888888887 656.4285714285714 2345.8888888888887 657.4285714285714Q2370.8888888888887 659.4285714285714 2383.8888888888887 637.4285714285714Q2396.8888888888887 615.4285714285714 2393.8888888888887 589.4285714285714Q2386.8888888888887 542.4285714285714 2373.8888888888887 549.4285714285714Q2362.8888888888887 556.4285714285714 2346.8888888888887 549.9285714285714Q2330.8888888888887 543.4285714285714 2329.8888888888887 532.9285714285714Q2328.8888888888887 522.4285714285714 2325.8888888888887 512.4285714285714Q2322.8888888888887 502.42857142857144 2318.8888888888887 493.42857142857144Q2309.8888888888887 470.42857142857144 2302.8888888888887 468.42857142857144Q2294.8888888888887 466.42857142857144 2281.3888888888887 466.42857142857144Q2267.8888888888887 466.42857142857144 2251.8888888888887 448.92857142857144Q2235.8888888888887 431.42857142857144 2228.8888888888887 404.92857142857144Q2221.8888888888887 378.42857142857144 2216.8888888888887 358.92857142857144Q2211.8888888888887 339.42857142857144 2207.8888888888887 328.42857142857144Q2203.8888888888887 317.42857142857144 2200.8888888888887 305.42857142857144Q2190.8888888888887 267.42857142857144 2199.8888888888887 207.42857142857144Q2205.8888888888887 172.42857142857144 2221.8888888888887 145.92857142857144Q2237.8888888888887 119.42857142857144 2257.8888888888887 93.42857142857144Q2295.8888888888887 42.428571428571445 2327.8888888888887 22.428571428571445Q2359.8888888888887 2.428571428571445 2376.8888888888887 18.428571428571445Q2391.8888888888887 31.428571428571445 2409.3888888888887 28.928571428571445Q2426.8888888888887 26.428571428571445 2436.8888888888887 23.428571428571445L2454.8888888888887 19.428571428571445Q2471.8888888888887 15.428571428571445 2489.3888888888887 20.428571428571445Q2506.8888888888887 25.428571428571445 2520.8888888888887 54.428571428571445Q2527.8888888888887 69.42857142857144 2535.3888888888887 80.42857142857144Q2542.8888888888887 91.42857142857144 2549.8888888888887 101.42857142857144Q2564.8888888888887 125.42857142857144 2567.3888888888887 140.92857142857144Q2569.8888888888887 156.42857142857144 2574.3888888888887 163.42857142857144Q2578.8888888888887 170.42857142857144 2581.3888888888887 176.42857142857144Q2583.8888888888887 182.42857142857144 2582.8888888888887 189.42857142857144Q2581.8888888888887 196.42857142857144 2568.8888888888887 213.42857142857144Q2555.8888888888887 230.42857142857144 2553.3888888888887 249.92857142857144Q2550.8888888888887 269.42857142857144 2551.8888888888887 281.92857142857144Q2552.8888888888887 294.42857142857144 2551.8888888888887 303.42857142857144ZM2739.8888888888887 27.428571428571445Q2797.8888888888887 30.428571428571445 2821.8888888888887 19.428571428571445Q2870.8888888888887 -5.571428571428555 2900.8888888888887 13.428571428571445Q2914.8888888888887 21.428571428571445 2927.8888888888887 23.428571428571445Q2940.8888888888887 25.428571428571445 2964.8888888888887 11.428571428571445Q2990.8888888888887 0.4285714285714448 3007.8888888888887 6.428571428571445Q3024.8888888888887 12.428571428571445 3032.8888888888887 21.428571428571445Q3040.8888888888887 30.428571428571445 3043.3888888888887 52.928571428571445Q3045.8888888888887 75.42857142857144 3044.3888888888887 97.42857142857144Q3042.8888888888887 119.42857142857144 3039.8888888888887 138.42857142857144Q3033.8888888888887 189.42857142857144 3035.3888888888887 205.42857142857144Q3036.8888888888887 221.42857142857144 3039.3888888888887 238.42857142857144Q3041.8888888888887 255.42857142857144 3040.8888888888887 271.42857142857144Q3038.8888888888887 310.42857142857144 3008.8888888888887 315.42857142857144Q2986.8888888888887 318.42857142857144 2976.8888888888887 304.92857142857144Q2966.8888888888887 291.42857142857144 2960.3888888888887 274.92857142857144Q2953.8888888888887 258.42857142857144 2947.3888888888887 245.42857142857144Q2940.8888888888887 232.42857142857144 2928.8888888888887 235.92857142857144Q2916.8888888888887 239.42857142857144 2913.8888888888887 261.92857142857144Q2910.8888888888887 284.42857142857144 2911.8888888888887 314.92857142857144Q2912.8888888888887 345.42857142857144 2915.8888888888887 377.92857142857144Q2918.8888888888887 410.42857142857144 2919.8888888888887 432.92857142857144Q2920.8888888888887 455.42857142857144 2922.3888888888887 478.42857142857144Q2923.8888888888887 501.42857142857144 2923.8888888888887 521.4285714285714Q2923.8888888888887 564.4285714285714 2911.8888888888887 580.4285714285714Q2905.8888888888887 588.4285714285714 2905.8888888888887 599.4285714285714Q2905.8888888888887 610.4285714285714 2908.3888888888887 622.4285714285714Q2910.8888888888887 634.4285714285714 2913.8888888888887 646.4285714285714Q2916.8888888888887 658.4285714285714 2916.8888888888887 675.4285714285714Q2916.8888888888887 715.4285714285714 2880.8888888888887 731.4285714285714Q2867.8888888888887 737.4285714285714 2856.8888888888887 751.4285714285714Q2845.8888888888887 765.4285714285714 2840.3888888888887 769.9285714285714Q2834.8888888888887 774.4285714285714 2827.3888888888887 772.9285714285714Q2819.8888888888887 771.4285714285714 2816.3888888888887 765.9285714285714Q2812.8888888888887 760.4285714285714 2809.8888888888887 754.4285714285714Q2803.8888888888887 738.4285714285714 2792.8888888888887 733.4285714285714Q2779.8888888888887 730.4285714285714 2777.3888888888887 711.4285714285714Q2774.8888888888887 692.4285714285714 2774.3888888888887 677.9285714285714Q2773.8888888888887 663.4285714285714 2771.8888888888887 642.4285714285714Q2769.8888888888887 621.4285714285714 2758.8888888888887 608.4285714285714Q2747.8888888888887 595.4285714285714 2740.8888888888887 591.9285714285714Q2733.8888888888887 588.4285714285714 2731.8888888888887 574.9285714285714Q2729.8888888888887 561.4285714285714 2732.3888888888887 547.4285714285714Q2734.8888888888887 533.4285714285714 2738.8888888888887 516.4285714285714Q2750.8888888888887 467.42857142857144 2751.8888888888887 424.42857142857144Q2754.8888888888887 344.42857142857144 2751.8888888888887 318.42857142857144Q2747.8888888888887 266.42857142857144 2723.8888888888887 266.42857142857144Q2711.8888888888887 267.42857142857144 2706.8888888888887 276.92857142857144Q2701.8888888888887 286.42857142857144 2695.8888888888887 299.42857142857144Q2681.8888888888887 332.42857142857144 2644.8888888888887 317.42857142857144Q2631.8888888888887 311.42857142857144 2628.3888888888887 298.42857142857144Q2624.8888888888887 285.42857142857144 2624.3888888888887 267.92857142857144Q2623.8888888888887 250.42857142857144 2623.3888888888887 230.92857142857144Q2622.8888888888887 211.42857142857144 2616.3888888888887 193.92857142857144Q2609.8888888888887 176.42857142857144 2603.8888888888887 160.42857142857144Q2597.8888888888887 144.42857142857144 2598.8888888888887 128.42857142857144Q2599.8888888888887 112.42857142857144 2606.3888888888887 97.42857142857144Q2612.8888888888887 82.42857142857144 2610.3888888888887 67.42857142857144Q2607.8888888888887 52.428571428571445 2616.3888888888887 37.928571428571445Q2624.8888888888887 23.428571428571445 2647.3888888888887 25.428571428571445Q2669.8888888888887 27.428571428571445 2687.3888888888887 26.928571428571445Q2704.8888888888887 26.428571428571445 2739.8888888888887 27.428571428571445ZM3104.8888888888887 571.4285714285714 3103.8888888888887 520.4285714285714Q3103.8888888888887 506.42857142857144 3104.8888888888887 494.42857142857144Q3105.8888888888887 481.42857142857144 3102.8888888888887 462.42857142857144Q3097.8888888888887 429.42857142857144 3098.3888888888887 413.92857142857144Q3098.8888888888887 398.42857142857144 3098.3888888888887 388.92857142857144Q3097.8888888888887 379.42857142857144 3095.8888888888887 371.42857142857144Q3092.8888888888887 359.42857142857144 3081.3888888888887 333.42857142857144Q3069.8888888888887 307.42857142857144 3069.8888888888887 277.42857142857144Q3069.8888888888887 247.42857142857144 3082.8888888888887 229.42857142857144Q3094.8888888888887 211.42857142857144 3091.8888888888887 192.42857142857144Q3088.8888888888887 173.42857142857144 3087.3888888888887 151.92857142857144Q3085.8888888888887 130.42857142857144 3086.8888888888887 107.92857142857144Q3087.8888888888887 85.42857142857144 3096.8888888888887 64.42857142857144Q3118.8888888888887 13.428571428571445 3184.8888888888887 15.428571428571445Q3225.8888888888887 16.428571428571445 3255.8888888888887 23.428571428571445Q3285.8888888888887 30.428571428571445 3299.8888888888887 29.428571428571445Q3313.8888888888887 28.428571428571445 3342.8888888888887 19.428571428571445Q3384.8888888888887 3.428571428571445 3409.8888888888887 21.428571428571445Q3416.8888888888887 26.428571428571445 3423.3888888888887 28.928571428571445Q3429.8888888888887 31.428571428571445 3434.8888888888887 36.428571428571445Q3451.8888888888887 55.428571428571445 3444.8888888888887 119.42857142857144Q3442.8888888888887 138.42857142857144 3440.8888888888887 157.42857142857144Q3435.8888888888887 202.42857142857144 3440.8888888888887 224.42857142857144Q3445.8888888888887 246.42857142857144 3446.3888888888887 262.92857142857144Q3446.8888888888887 279.42857142857144 3444.8888888888887 292.42857142857144Q3438.8888888888887 321.42857142857144 3421.8888888888887 321.42857142857144Q3406.8888888888887 320.42857142857144 3400.3888888888887 311.92857142857144Q3393.8888888888887 303.42857142857144 3389.8888888888887 292.92857142857144Q3385.8888888888887 282.42857142857144 3381.3888888888887 273.92857142857144Q3376.8888888888887 265.42857142857144 3361.8888888888887 265.42857142857144Q3317.8888888888887 265.42857142857144 3303.3888888888887 255.92857142857144Q3288.8888888888887 246.42857142857144 3277.8888888888887 244.92857142857144Q3266.8888888888887 243.42857142857144 3256.8888888888887 247.42857142857144Q3235.8888888888887 256.42857142857144 3232.3888888888887 280.42857142857144Q3228.8888888888887 304.42857142857144 3227.8888888888887 322.42857142857144Q3226.8888888888887 340.42857142857144 3227.8888888888887 355.42857142857144Q3229.8888888888887 390.42857142857144 3241.3888888888887 394.92857142857144Q3252.8888888888887 399.42857142857144 3260.8888888888887 395.92857142857144Q3268.8888888888887 392.42857142857144 3276.8888888888887 387.42857142857144Q3300.8888888888887 371.42857142857144 3326.3888888888887 371.92857142857144Q3351.8888888888887 372.42857142857144 3364.3888888888887 392.42857142857144Q3376.8888888888887 412.42857142857144 3374.8888888888887 430.92857142857144Q3372.8888888888887 449.42857142857144 3371.3888888888887 467.42857142857144Q3369.8888888888887 485.42857142857144 3366.8888888888887 501.42857142857144Q3352.8888888888887 563.4285714285714 3308.8888888888887 525.4285714285714Q3251.8888888888887 521.4285714285714 3237.8888888888887 539.4285714285714Q3234.8888888888887 544.4285714285714 3231.8888888888887 560.4285714285714Q3228.8888888888887 576.4285714285714 3230.8888888888887 594.4285714285714Q3235.8888888888887 641.4285714285714 3275.8888888888887 644.4285714285714Q3301.8888888888887 646.4285714285714 3323.3888888888887 637.4285714285714Q3344.8888888888887 628.4285714285714 3351.8888888888887 617.4285714285714Q3357.8888888888887 605.4285714285714 3366.8888888888887 603.9285714285714Q3375.8888888888887 602.4285714285714 3382.8888888888887 600.9285714285714Q3389.8888888888887 599.4285714285714 3396.8888888888887 599.4285714285714Q3403.8888888888887 599.4285714285714 3410.8888888888887 601.4285714285714Q3428.8888888888887 607.4285714285714 3432.3888888888887 629.4285714285714Q3435.8888888888887 651.4285714285714 3427.8888888888887 669.4285714285714Q3419.8888888888887 687.4285714285714 3417.3888888888887 701.9285714285714Q3414.8888888888887 716.4285714285714 3412.8888888888887 723.4285714285714Q3410.8888888888887 730.4285714285714 3401.3888888888887 740.9285714285714Q3391.8888888888887 751.4285714285714 3386.3888888888887 758.4285714285714Q3380.8888888888887 765.4285714285714 3368.8888888888887 755.4285714285714Q3346.8888888888887 738.4285714285714 3315.8888888888887 775.4285714285714Q3307.8888888888887 786.4285714285714 3298.8888888888887 791.4285714285714Q3289.8888888888887 796.4285714285714 3270.8888888888887 795.4285714285714Q3251.8888888888887 794.4285714285714 3240.8888888888887 785.4285714285714Q3229.8888888888887 776.4285714285714 3220.8888888888887 767.4285714285714Q3205.8888888888887 748.4285714285714 3168.8888888888887 753.4285714285714Q3146.8888888888887 756.4285714285714 3132.8888888888887 734.4285714285714Q3129.8888888888887 731.4285714285714 3128.3888888888887 723.4285714285714Q3126.8888888888887 715.4285714285714 3124.8888888888887 705.4285714285714Q3117.8888888888887 679.4285714285714 3112.3888888888887 671.9285714285714Q3106.8888888888887 664.4285714285714 3106.3888888888887 652.4285714285714Q3105.8888888888887 640.4285714285714 3103.8888888888887 626.9285714285714Q3101.8888888888887 613.4285714285714 3100.8888888888887 606.9285714285714Q3099.8888888888887 600.4285714285714 3102.3888888888887 591.4285714285714Q3104.8888888888887 582.4285714285714 3104.8888888888887 571.4285714285714ZM3759.8888888888887 40.428571428571445 3791.8888888888887 38.428571428571445Q3825.8888888888887 38.428571428571445 3840.3888888888887 49.428571428571445Q3854.8888888888887 60.428571428571445 3862.3888888888887 69.42857142857144Q3869.8888888888887 78.42857142857144 3875.8888888888887 87.92857142857144Q3881.8888888888887 97.42857142857144 3892.3888888888887 107.42857142857144Q3902.8888888888887 117.42857142857144 3902.8888888888887 130.92857142857144Q3902.8888888888887 144.42857142857144 3910.3888888888887 152.42857142857144Q3917.8888888888887 160.42857142857144 3917.8888888888887 178.42857142857144Q3917.8888888888887 196.42857142857144 3917.3888888888887 212.92857142857144Q3916.8888888888887 229.42857142857144 3913.8888888888887 239.92857142857144Q3910.8888888888887 250.42857142857144 3910.8888888888887 260.92857142857144Q3910.8888888888887 271.42857142857144 3915.3888888888887 279.92857142857144Q3919.8888888888887 288.42857142857144 3916.3888888888887 320.92857142857144Q3912.8888888888887 353.42857142857144 3905.3888888888887 386.42857142857144Q3897.8888888888887 419.42857142857144 3885.8888888888887 443.42857142857144Q3861.8888888888887 488.42857142857144 3807.8888888888887 514.4285714285714Q3812.8888888888887 526.4285714285714 3819.3888888888887 540.9285714285714Q3825.8888888888887 555.4285714285714 3831.8888888888887 570.4285714285714Q3844.8888888888887 607.4285714285714 3844.8888888888887 623.9285714285714Q3844.8888888888887 640.4285714285714 3846.3888888888887 647.9285714285714Q3847.8888888888887 655.4285714285714 3849.8888888888887 659.4285714285714Q3851.8888888888887 663.4285714285714 3855.3888888888887 665.4285714285714Q3858.8888888888887 667.4285714285714 3865.8888888888887 672.9285714285714Q3872.8888888888887 678.4285714285714 3876.8888888888887 691.4285714285714Q3880.8888888888887 704.4285714285714 3880.8888888888887 718.4285714285714Q3880.8888888888887 750.4285714285714 3873.3888888888887 757.9285714285714Q3865.8888888888887 765.4285714285714 3857.3888888888887 767.9285714285714Q3848.8888888888887 770.4285714285714 3839.8888888888887 771.4285714285714Q3816.8888888888887 774.4285714285714 3810.8888888888887 765.4285714285714Q3802.8888888888887 757.4285714285714 3802.3888888888887 748.9285714285714Q3801.8888888888887 740.4285714285714 3798.8888888888887 733.9285714285714Q3795.8888888888887 727.4285714285714 3789.8888888888887 725.9285714285714Q3783.8888888888887 724.4285714285714 3781.3888888888887 713.4285714285714Q3778.8888888888887 702.4285714285714 3774.3888888888887 698.9285714285714Q3769.8888888888887 695.4285714285714 3755.8888888888887 697.4285714285714Q3730.8888888888887 702.4285714285714 3718.8888888888887 667.4285714285714Q3715.8888888888887 659.4285714285714 3712.8888888888887 646.4285714285714Q3709.8888888888887 633.4285714285714 3705.8888888888887 621.4285714285714Q3697.8888888888887 592.4285714285714 3687.3888888888887 589.9285714285714Q3676.8888888888887 587.4285714285714 3671.8888888888887 592.4285714285714Q3666.8888888888887 597.4285714285714 3664.3888888888887 605.9285714285714Q3661.8888888888887 614.4285714285714 3661.8888888888887 624.9285714285714Q3661.8888888888887 635.4285714285714 3664.3888888888887 647.4285714285714Q3666.8888888888887 659.4285714285714 3664.8888888888887 667.4285714285714Q3662.8888888888887 675.4285714285714 3659.3888888888887 680.4285714285714Q3655.8888888888887 685.4285714285714 3651.8888888888887 689.4285714285714Q3643.8888888888887 694.4285714285714 3642.3888888888887 709.4285714285714Q3640.8888888888887 724.4285714285714 3637.8888888888887 735.4285714285714Q3631.8888888888887 762.4285714285714 3621.8888888888887 769.4285714285714Q3611.8888888888887 776.4285714285714 3601.8888888888887 777.9285714285714Q3591.8888888888887 779.4285714285714 3581.8888888888887 777.4285714285714Q3556.8888888888887 772.4285714285714 3550.8888888888887 759.9285714285714Q3544.8888888888887 747.4285714285714 3543.8888888888887 740.9285714285714Q3542.8888888888887 734.4285714285714 3543.3888888888887 728.4285714285714Q3543.8888888888887 722.4285714285714 3544.8888888888887 715.4285714285714Q3545.8888888888887 708.4285714285714 3545.3888888888887 698.9285714285714Q3544.8888888888887 689.4285714285714 3540.8888888888887 673.4285714285714Q3536.8888888888887 657.4285714285714 3535.8888888888887 635.4285714285714L3534.8888888888887 609.4285714285714Q3534.8888888888887 605.4285714285714 3541.8888888888887 595.9285714285714Q3548.8888888888887 586.4285714285714 3546.3888888888887 573.9285714285714Q3543.8888888888887 561.4285714285714 3534.8888888888887 557.9285714285714Q3525.8888888888887 554.4285714285714 3525.8888888888887 549.4285714285714Q3525.8888888888887 544.4285714285714 3527.8888888888887 524.4285714285714Q3529.8888888888887 504.42857142857144 3526.3888888888887 474.42857142857144Q3522.8888888888887 444.42857142857144 3521.8888888888887 421.42857142857144Q3517.8888888888887 371.42857142857144 3504.3888888888887 364.92857142857144Q3490.8888888888887 358.42857142857144 3488.8888888888887 348.92857142857144Q3486.8888888888887 339.42857142857144 3488.8888888888887 327.42857142857144Q3490.8888888888887 315.42857142857144 3493.3888888888887 297.42857142857144Q3495.8888888888887 279.42857142857144 3498.8888888888887 260.92857142857144Q3501.8888888888887 242.42857142857144 3504.3888888888887 226.42857142857144Q3506.8888888888887 210.42857142857144 3507.8888888888887 204.42857142857144Q3508.8888888888887 198.42857142857144 3508.3888888888887 192.92857142857144Q3507.8888888888887 187.42857142857144 3507.8888888888887 182.42857142857144Q3505.8888888888887 166.42857142857144 3507.8888888888887 154.42857142857144Q3511.8888888888887 131.42857142857144 3509.8888888888887 121.92857142857144Q3507.8888888888887 112.42857142857144 3513.3888888888887 92.92857142857144Q3518.8888888888887 73.42857142857144 3522.8888888888887 65.42857142857144Q3526.8888888888887 57.428571428571445 3537.8888888888887 53.428571428571445Q3548.8888888888887 49.428571428571445 3559.3888888888887 41.928571428571445Q3569.8888888888887 34.428571428571445 3578.8888888888887 26.928571428571445Q3587.8888888888887 19.428571428571445 3594.8888888888887 12.928571428571445Q3601.8888888888887 6.428571428571445 3611.8888888888887 3.428571428571445Q3640.8888888888887 -2.571428571428555 3654.3888888888887 1.9285714285714448Q3667.8888888888887 6.428571428571445 3673.8888888888887 11.428571428571445Q3679.8888888888887 16.428571428571445 3688.3888888888887 21.428571428571445Q3696.8888888888887 26.428571428571445 3706.3888888888887 28.928571428571445Q3715.8888888888887 31.428571428571445 3723.8888888888887 31.428571428571445Q3744.8888888888887 33.428571428571445 3749.3888888888887 36.928571428571445Q3753.8888888888887 40.428571428571445 3759.8888888888887 40.428571428571445ZM3676.8888888888887 319.42857142857144 3682.8888888888887 410.42857142857144Q3682.8888888888887 419.42857142857144 3681.8888888888887 427.92857142857144Q3680.8888888888887 436.42857142857144 3679.8888888888887 443.42857142857144Q3678.8888888888887 458.42857142857144 3690.8888888888887 461.42857142857144Q3700.8888888888887 463.42857142857144 3706.8888888888887 455.92857142857144Q3712.8888888888887 448.42857142857144 3717.8888888888887 435.42857142857144Q3729.8888888888887 410.42857142857144 3725.8888888888887 403.42857142857144Q3717.8888888888887 393.42857142857144 3721.3888888888887 385.92857142857144Q3724.8888888888887 378.42857142857144 3736.3888888888887 356.42857142857144Q3747.8888888888887 334.42857142857144 3753.3888888888887 318.42857142857144Q3758.8888888888887 302.42857142857144 3755.8888888888887 283.92857142857144Q3752.8888888888887 265.42857142857144 3752.8888888888887 258.42857142857144V247.42857142857144Q3752.8888888888887 239.42857142857144 3745.3888888888887 232.92857142857144Q3737.8888888888887 226.42857142857144 3734.8888888888887 225.92857142857144Q3731.8888888888887 225.42857142857144 3729.8888888888887 225.42857142857144Q3720.8888888888887 227.42857142857144 3712.8888888888887 223.92857142857144Q3704.8888888888887 220.42857142857144 3697.8888888888887 220.92857142857144Q3690.8888888888887 221.42857142857144 3681.8888888888887 230.42857142857144Q3672.8888888888887 239.42857142857144 3671.8888888888887 248.92857142857144Q3670.8888888888887 258.42857142857144 3671.8888888888887 270.42857142857144Q3676.8888888888887 306.42857142857144 3676.8888888888887 319.42857142857144Z" /></svg>