<svg viewBox="0 0 5075 1138" xmlns="http://www.w3.org/2000/svg"><path d="M368 927Q281 927 209.5 893.5Q138 860 95.0 793.5Q52 727 52 629Q52 566 74.0 510.5Q96 455 138.5 412.5Q181 370 242.0 346.0Q303 322 381 322Q422 322 468.0 330.0Q514 338 550 353L557 490L512 494L482 399Q463 386 432.0 379.5Q401 373 372 373Q297 373 249.5 405.5Q202 438 179.5 492.0Q157 546 157 611Q157 696 186.5 755.0Q216 814 266.5 844.0Q317 874 378 874Q410 874 436.0 867.0Q462 860 486 846L530 752L576 757L548 883Q514 901 467.0 914.0Q420 927 368 927ZM637 918 634 882 696 867Q697 862 698.0 849.0Q699 836 699.5 814.0Q700 792 700 760L701 682Q701 649 698.5 617.0Q696 585 693 566L629 552V519L763 482L777 496L773 580L776 581Q806 523 837.0 502.5Q868 482 895 482Q918 482 933.5 493.5Q949 505 949 528Q949 552 932.5 564.5Q916 577 891 577Q873 577 856.5 569.0Q840 561 825 547L843 553Q824 565 807.0 586.5Q790 608 776 640L777 733Q778 758 779.0 785.0Q780 812 781.0 833.5Q782 855 783 867L870 880L868 918ZM995 918 993 881 1060 867Q1061 863 1061.5 853.0Q1062 843 1063.0 821.0Q1064 799 1064 760V694Q1064 653 1062.0 619.0Q1060 585 1057 566L990 552V519L1132 482L1147 496Q1144 527 1142.5 557.0Q1141 587 1141 627V753Q1141 799 1142.5 829.0Q1144 859 1146 867L1213 881L1211 918ZM1103 369Q1078 369 1059.5 352.0Q1041 335 1041 310Q1041 285 1059.5 268.0Q1078 251 1103 251Q1129 251 1146.0 268.0Q1163 285 1163 310Q1163 335 1146.0 352.0Q1129 369 1103 369ZM1268 918 1266 882 1328 867Q1329 860 1329.5 849.0Q1330 838 1331.0 817.0Q1332 796 1332 760L1333 682Q1334 661 1332.5 639.0Q1331 617 1329.0 597.5Q1327 578 1325 566L1261 552V519L1395 482L1412 498L1407 552L1410 553Q1441 514 1474.5 497.0Q1508 480 1543 480Q1578 480 1611.0 499.0Q1644 518 1665.5 557.0Q1687 596 1687 657L1688 763Q1688 799 1689.5 827.5Q1691 856 1694 867L1754 882L1751 918H1556L1553 882L1608 867Q1609 859 1610.0 847.0Q1611 835 1611.5 816.5Q1612 798 1612 770L1611 660Q1611 617 1597.5 591.0Q1584 565 1562.0 553.0Q1540 541 1515 541Q1484 541 1457.0 556.0Q1430 571 1409 603V753Q1409 799 1410.5 827.5Q1412 856 1414 867L1473 882L1470 918ZM1832 918 1829 882 1886 867Q1887 859 1887.5 847.0Q1888 835 1889.0 816.5Q1890 798 1890 770V661Q1890 617 1875.0 591.0Q1860 565 1837.5 553.0Q1815 541 1792 541Q1758 541 1729.0 558.0Q1700 575 1677 610L1658 573Q1693 525 1732.5 502.5Q1772 480 1816 480Q1858 480 1892.0 500.0Q1926 520 1946.0 558.0Q1966 596 1966 650V763Q1966 799 1967.5 827.5Q1969 856 1971 867L2033 882L2031 918ZM2255 926Q2218 926 2181.0 917.5Q2144 909 2118 895L2113 788H2162L2182 860Q2217 884 2262 884Q2296 884 2317.0 867.5Q2338 851 2338 823Q2338 797 2319.0 777.5Q2300 758 2245 735Q2174 704 2145.0 675.5Q2116 647 2116 602Q2116 566 2137.5 538.5Q2159 511 2197.0 495.5Q2235 480 2285 480Q2313 480 2342.0 485.0Q2371 490 2390 498L2401 602H2354L2330 534Q2320 528 2306.0 524.5Q2292 521 2276 521Q2241 521 2220.0 537.5Q2199 554 2199 580Q2199 610 2222.0 628.5Q2245 647 2303 674Q2369 704 2395.0 733.0Q2421 762 2421 803Q2421 857 2374.0 891.5Q2327 926 2255 926ZM2718 926Q2653 926 2604.5 898.0Q2556 870 2529.0 819.5Q2502 769 2502 704Q2502 636 2532.0 586.0Q2562 536 2612.0 508.0Q2662 480 2722 480Q2784 480 2830.5 507.5Q2877 535 2902.5 584.5Q2928 634 2928 700Q2928 763 2900.0 814.0Q2872 865 2824.5 895.5Q2777 926 2718 926ZM2728 879Q2762 879 2787.0 858.5Q2812 838 2826.0 801.5Q2840 765 2840 718Q2840 632 2804.5 578.5Q2769 525 2711 525Q2657 525 2624.5 570.0Q2592 615 2592 689Q2592 745 2609.5 788.0Q2627 831 2658.0 855.0Q2689 879 2728 879ZM3000 918 2998 882 3060 867Q3061 860 3061.5 848.0Q3062 836 3063.0 815.0Q3064 794 3064 760L3065 683Q3065 650 3062.5 617.5Q3060 585 3057 566L2993 552V519L3127 482L3144 498L3139 551L3142 552Q3177 514 3211.0 497.0Q3245 480 3285 480Q3322 480 3354.5 498.5Q3387 517 3407.5 555.0Q3428 593 3428 652V763Q3428 799 3429.5 828.0Q3431 857 3434 867L3496 882L3493 918H3292L3290 882L3348 867Q3349 859 3350.0 847.0Q3351 835 3351.5 816.5Q3352 798 3352 770V662Q3352 617 3336.5 590.5Q3321 564 3298.0 552.5Q3275 541 3251 541Q3218 541 3189.5 557.5Q3161 574 3141 603V753Q3141 799 3142.5 827.5Q3144 856 3146 867L3208 882L3205 918ZM3764 918 3761 880 3819 866Q3820 862 3821.0 848.5Q3822 835 3822.5 805.0Q3823 775 3823 724L3824 521Q3824 471 3823.0 442.5Q3822 414 3821.5 400.5Q3821 387 3820 384L3758 369L3761 331H3974Q4073 331 4128.0 374.5Q4183 418 4183 500Q4183 556 4154.5 597.0Q4126 638 4078.0 660.5Q4030 683 3971 683Q3949 683 3929.5 680.5Q3910 678 3893 675V621Q3916 628 3933.5 631.0Q3951 634 3968 634Q4027 634 4060.0 604.5Q4093 575 4093 513Q4093 442 4056.0 408.5Q4019 375 3963 375H3910Q3910 381 3909.5 403.0Q3909 425 3908.5 455.5Q3908 486 3908 521L3909 724Q3909 775 3910.0 804.5Q3911 834 3912.0 847.5Q3913 861 3913 865L3996 878L3993 918ZM4258 918 4255 882 4317 867Q4318 862 4319.0 849.0Q4320 836 4320.5 814.0Q4321 792 4321 760L4322 682Q4322 649 4319.5 617.0Q4317 585 4314 566L4250 552V519L4384 482L4398 496L4394 580L4397 581Q4427 523 4458.0 502.5Q4489 482 4516 482Q4539 482 4554.5 493.5Q4570 505 4570 528Q4570 552 4553.5 564.5Q4537 577 4512 577Q4494 577 4477.5 569.0Q4461 561 4446 547L4464 553Q4445 565 4428.0 586.5Q4411 608 4397 640L4398 733Q4399 758 4400.0 785.0Q4401 812 4402.0 833.5Q4403 855 4404 867L4491 880L4489 918ZM4824 926Q4759 926 4710.5 898.0Q4662 870 4635.0 819.5Q4608 769 4608 704Q4608 636 4638.0 586.0Q4668 536 4718.0 508.0Q4768 480 4828 480Q4890 480 4936.5 507.5Q4983 535 5008.5 584.5Q5034 634 5034 700Q5034 763 5006.0 814.0Q4978 865 4930.5 895.5Q4883 926 4824 926ZM4834 879Q4868 879 4893.0 858.5Q4918 838 4932.0 801.5Q4946 765 4946 718Q4946 632 4910.5 578.5Q4875 525 4817 525Q4763 525 4730.5 570.0Q4698 615 4698 689Q4698 745 4715.5 788.0Q4733 831 4764.0 855.0Q4795 879 4834 879Z" fill="currentColor" /></svg>