<svg viewBox="0 0 7064 3700" xmlns="http://www.w3.org/2000/svg"><path d="M286 1100H576Q765 1100 883 1191Q942 1237 975.0 1305.0Q1008 1373 1008 1464V2084Q1008 2162 991.0 2221.0Q974 2280 947 2324Q919 2367 884.0 2398.0Q849 2429 813 2448Q729 2494 618 2500H286Q214 2500 182.0 2470.0Q150 2440 142.0 2388.0Q134 2336 134 2270V1328Q134 1263 142.0 1211.5Q150 1160 182.0 1130.0Q214 1100 286 1100ZM568 1334H438V2262H568Q609 2261 645 2242Q679 2225 700.5 2190.5Q722 2156 722 2102V1512Q722 1453 700.5 1414.0Q679 1375 645 1356Q611 1337 568 1334ZM2006 1728V2274Q2006 2336 1997.0 2387.5Q1988 2439 1956.5 2469.5Q1925 2500 1856 2500Q1791 2500 1758.0 2474.5Q1725 2449 1713.5 2410.5Q1702 2372 1702 2332Q1682 2398 1630.0 2449.0Q1578 2500 1486 2500Q1431 2500 1376.0 2482.0Q1321 2464 1277 2422Q1233 2380 1205.5 2312.5Q1178 2245 1178 2146V1856Q1178 1756 1205.5 1688.5Q1233 1621 1277 1579Q1321 1538 1376.0 1520.0Q1431 1502 1486 1502Q1578 1502 1630.0 1552.0Q1682 1602 1702 1670Q1702 1578 1747.0 1539.0Q1792 1500 1856 1500Q1921 1500 1953.0 1531.0Q1985 1562 1995.5 1614.0Q2006 1666 2006 1728ZM1486 1878V2120Q1486 2178 1500.0 2222.0Q1514 2266 1574 2266Q1648 2266 1676 2194Q1690 2158 1695.5 2102.5Q1701 2047 1702 1970Q1702 1923 1691.0 1868.5Q1680 1814 1652.0 1775.0Q1624 1736 1574 1736Q1514 1736 1500.0 1779.0Q1486 1822 1486 1878ZM3080 1856V2272Q3080 2333 3068.5 2385.0Q3057 2437 3023.5 2468.5Q2990 2500 2924 2500Q2859 2500 2826.0 2469.0Q2793 2438 2782.5 2386.0Q2772 2334 2772 2272V1882Q2772 1822 2757.5 1778.0Q2743 1734 2684 1734Q2643 1734 2618.0 1761.0Q2593 1788 2579 1835Q2564 1882 2559.0 1945.5Q2554 2009 2554 2082V2272Q2554 2333 2542.5 2385.0Q2531 2437 2497.5 2468.5Q2464 2500 2398 2500Q2333 2500 2300.0 2469.0Q2267 2438 2256.5 2386.0Q2246 2334 2246 2272V1726Q2246 1663 2254.5 1612.0Q2263 1561 2295.5 1530.5Q2328 1500 2398 1500Q2463 1500 2496.5 1525.5Q2530 1551 2542.0 1589.5Q2554 1628 2554 1668Q2572 1602 2627.0 1551.0Q2682 1500 2772 1500Q2827 1500 2882.0 1518.0Q2937 1536 2981 1578Q3025 1620 3052.5 1688.0Q3080 1756 3080 1856ZM4118 1726V2530Q4118 2620 4094 2682Q4069 2744 4031.5 2785.0Q3994 2826 3947 2849Q3899 2872 3856 2884Q3811 2895 3774.0 2897.5Q3737 2900 3718 2900Q3647 2900 3576.5 2890.0Q3506 2880 3447 2853Q3389 2826 3350.0 2780.0Q3311 2734 3306 2662Q3306 2626 3336.5 2600.0Q3367 2574 3446 2574Q3534 2574 3562.0 2592.5Q3590 2611 3610 2664Q3625 2702 3706 2702Q3751 2702 3774.5 2678.0Q3798 2654 3806.0 2619.5Q3814 2585 3814 2556V2332Q3794 2399 3742.0 2449.5Q3690 2500 3598 2500Q3543 2500 3488.0 2482.0Q3433 2464 3389 2422Q3344 2381 3316.0 2313.0Q3288 2245 3288 2144V1854Q3288 1755 3316.0 1687.5Q3344 1620 3389 1578Q3433 1536 3488.0 1518.0Q3543 1500 3598 1500Q3690 1500 3742.0 1551.0Q3794 1602 3814 1668Q3814 1628 3825.5 1589.5Q3837 1551 3870.0 1525.5Q3903 1500 3968 1500Q4037 1500 4068.5 1530.5Q4100 1561 4109.0 1612.5Q4118 1664 4118 1726ZM3598 1880V2122Q3598 2179 3612.0 2222.5Q3626 2266 3686 2266Q3736 2266 3763.5 2227.0Q3791 2188 3802.5 2132.5Q3814 2077 3814 2030Q3813 1954 3807.5 1898.0Q3802 1842 3788 1805Q3760 1734 3686 1734Q3626 1734 3612.0 1777.5Q3598 1821 3598 1880ZM5008 1650Q5008 1800 4860 1800Q4838 1800 4808.5 1805.5Q4779 1811 4750 1828Q4728 1841 4710 1862Q4692 1884 4681.0 1917.0Q4670 1950 4670 1996V2282Q4670 2341 4659.0 2390.5Q4648 2440 4615.5 2470.0Q4583 2500 4518 2500Q4455 2500 4423.0 2470.0Q4391 2440 4380.5 2390.0Q4370 2340 4370 2282V1722Q4370 1661 4380.5 1611.5Q4391 1562 4423.0 1532.0Q4455 1502 4518 1502Q4584 1502 4612.5 1537.5Q4641 1573 4647.5 1628.5Q4654 1684 4654 1746H4670Q4696 1644 4754.0 1573.0Q4812 1502 4882 1502Q4959 1502 4983.5 1537.0Q5008 1572 5008 1650ZM5966 1868V1930Q5966 1979 5941.5 2017.5Q5917 2056 5824 2056H5426V2152Q5426 2207 5454.5 2253.5Q5483 2300 5550 2300Q5603 2300 5627.0 2282.5Q5651 2265 5668 2237Q5679 2220 5695 2207Q5712 2193 5741.0 2183.5Q5770 2174 5822 2174Q5876 2174 5914.0 2194.5Q5952 2215 5952 2274Q5952 2339 5911.0 2382.5Q5870 2426 5808 2452Q5746 2478 5673.5 2489.0Q5601 2500 5538 2500Q5455 2499 5380.0 2479.0Q5305 2459 5248 2415Q5190 2371 5156.0 2300.0Q5122 2229 5122 2126V1892Q5122 1798 5145 1731Q5168 1665 5203.5 1621.0Q5239 1577 5284 1552Q5329 1528 5375 1516Q5421 1504 5462.5 1501.0Q5504 1498 5534 1498Q5635 1498 5707 1516Q5778 1534 5826.0 1563.0Q5874 1592 5902 1630Q5931 1667 5944 1708Q5958 1748 5962.0 1790.0Q5966 1832 5966 1868ZM5426 1836V1906H5676Q5676 1841 5669.5 1797.5Q5663 1754 5635.5 1732.0Q5608 1710 5544 1710Q5471 1710 5448.5 1749.5Q5426 1789 5426 1836ZM6200 2276V1322Q6200 1261 6208.0 1210.5Q6216 1160 6246.5 1130.0Q6277 1100 6342 1100Q6408 1100 6438.0 1130.0Q6468 1160 6476.0 1210.0Q6484 1260 6484 1322V1716H6500L6706 1474Q6740 1434 6798 1434Q6851 1434 6894.5 1471.5Q6938 1509 6938 1568Q6938 1608 6910 1642L6730 1854L6926 2228Q6944 2264 6957.0 2300.5Q6970 2337 6970 2370Q6970 2432 6921.5 2467.0Q6873 2502 6816 2502Q6775 2502 6743.0 2477.0Q6711 2452 6689.0 2416.0Q6667 2380 6652 2346L6540 2108H6484V2276Q6484 2338 6476.0 2389.0Q6468 2440 6438.0 2470.0Q6408 2500 6342 2500Q6277 2500 6246.5 2470.0Q6216 2440 6208.0 2389.0Q6200 2338 6200 2276Z" fill="currentColor" /></svg>