<svg viewBox="0 0 10455 1822.0" xmlns="http://www.w3.org/2000/svg"><path d="M0 1372.0V127.0Q0 86.0 28.0 58.0Q56 30.0 95 30.0H654Q1088 30.0 1285.5 203.5Q1483 377.0 1483.0 747.5Q1483 1118.0 1285.5 1291.0Q1088 1464.0 654 1464.0H95Q56 1464.0 28.0 1437.5Q0 1411.0 0 1372.0ZM377 1181.0H643Q912 1181.0 1009.0 1083.0Q1106 985.0 1106.0 747.5Q1106 510.0 1009.0 411.5Q912 313.0 643 313.0H377ZM2080 784.0H2411Q2411 667.0 2362.0 621.0Q2313 575.0 2190.5 575.0Q2068 575.0 2018.5 635.5Q1969 696.0 1897 696.0H1748Q1721 696.0 1703.5 678.5Q1686 661.0 1686 635.0Q1686 348.0 2231 348.0Q2469 348.0 2613.0 454.5Q2757 561.0 2757 784.0V1403.0Q2757 1430.0 2740.0 1447.0Q2723 1464.0 2696 1464.0H2503Q2476 1464.0 2459.0 1446.5Q2442 1429.0 2442 1403.0V1372.0Q2284 1485.0 2077.5 1484.5Q1871 1484.0 1738.5 1392.0Q1606 1300.0 1606.0 1132.0Q1606 964.0 1738.5 874.0Q1871 784.0 2080 784.0ZM2114 1257.0Q2268 1257.0 2411 1167.0V1011.0H2104Q2034 1011.0 1993.5 1045.0Q1953 1079.0 1953.0 1133.0Q1953 1187.0 1995.0 1222.0Q2037 1257.0 2114 1257.0ZM3196 1568.0 3327 1585.0Q3468 1585.0 3524 1378.0Q3354 1378.0 3240.0 1275.5Q3126 1173.0 3044 911.0L2895 428.0Q2892 420.0 2892.0 409.5Q2892 399.0 2904.5 384.0Q2917 369.0 2942 368.0H3151Q3180 368.0 3206.5 387.5Q3233 407.0 3241 436.0L3372 860.0Q3421 1016.0 3471.5 1076.0Q3522 1136.0 3591 1136.0L3790 436.0Q3798 407.0 3821.5 387.5Q3845 368.0 3874 368.0H4085Q4110 368.0 4122.0 384.0Q4134 400.0 4134.0 410.5Q4134 421.0 4132 428.0L3870 1362.0Q3800 1610.0 3696.5 1716.0Q3593 1822.0 3430.0 1822.0Q3267 1822.0 3199.5 1810.0Q3132 1798.0 3115.0 1780.5Q3098 1763.0 3098 1740.0V1630.0Q3098 1603.0 3115.0 1585.5Q3132 1568.0 3159 1568.0ZM4215 671.0Q4215 348.0 4736 348.0Q5284 348.0 5284 635.0Q5284 661.0 5267.0 678.5Q5250 696.0 5223 696.0H5074Q5002 696.0 4953.0 635.5Q4904 575.0 4760 575.0Q4562 575.0 4562 671.0Q4562 716.0 4639.5 746.0Q4717 776.0 4828.5 798.5Q4940 821.0 5051.0 856.0Q5162 891.0 5239.5 967.5Q5317 1044.0 5317 1161.0Q5317 1484.0 4767.0 1484.0Q4217 1484.0 4217 1198.0Q4217 1171.0 4234.5 1153.5Q4252 1136.0 4279 1136.0H4428Q4500 1136.0 4549.0 1196.5Q4598 1257.0 4742 1257.0Q4971 1257.0 4971 1161.0Q4971 1116.0 4893.5 1086.0Q4816 1056.0 4704.0 1032.5Q4592 1009.0 4481.5 974.5Q4371 940.0 4293.0 863.0Q4215 786.0 4215 671.0ZM7562.5 1315.5Q7358 1495.0 6962.5 1495.0Q6567 1495.0 6362.0 1315.5Q6157 1136.0 6157.0 747.0Q6157 358.0 6362.0 179.0Q6567 0.0 6962.5 0.0Q7358 0.0 7562.5 179.0Q7767 358.0 7767.0 747.0Q7767 1136.0 7562.5 1315.5ZM7289.0 390.0Q7188 270.0 6962.5 270.0Q6737 270.0 6635.5 390.0Q6534 510.0 6534.0 747.5Q6534 985.0 6635.5 1104.5Q6737 1224.0 6962.5 1224.0Q7188 1224.0 7289.0 1104.5Q7390 985.0 7390.0 747.5Q7390 510.0 7289.0 390.0ZM7952 1403.0V430.0Q7952 403.0 7969.5 385.5Q7987 368.0 8013 368.0H8237Q8263 368.0 8280.5 385.5Q8298 403.0 8298 430.0V493.0Q8470 348.0 8664.5 348.0Q8859 348.0 8981.0 466.5Q9103 585.0 9103 829.0V1403.0Q9103 1429.0 9085.5 1446.5Q9068 1464.0 9041 1464.0H8818Q8792 1464.0 8774.5 1446.5Q8757 1429.0 8757 1403.0V829.0Q8757 590.0 8566 590.0Q8441 590.0 8298 733.0V1403.0Q8298 1429.0 8280.5 1446.5Q8263 1464.0 8237 1464.0H8013Q7987 1464.0 7969.5 1446.5Q7952 1429.0 7952 1403.0ZM10455 903.0V960.0Q10455 987.0 10437.5 1004.5Q10420 1022.0 10393 1022.0H9640Q9650 1145.0 9710.5 1201.0Q9771 1257.0 9904.0 1257.0Q10037 1257.0 10086.0 1197.0Q10135 1137.0 10207 1136.0H10356Q10383 1136.0 10400.5 1153.5Q10418 1171.0 10418 1198.0Q10418 1485.0 9871 1484.0Q9595 1484.0 9441.0 1338.0Q9287 1192.0 9287.0 917.5Q9287 643.0 9442.0 495.5Q9597 348.0 9872.0 348.0Q10147 348.0 10301.0 491.5Q10455 635.0 10455 903.0ZM9638 811.0H10103Q10093 575.0 9871.5 575.0Q9650 575.0 9638 811.0Z" /></svg>