<svg viewBox="0 0 2221 1429" xmlns="http://www.w3.org/2000/svg"><path d="M105 918Q93 918 85.0 906.5Q77 895 72.5 877.5Q68 860 66.5 840.5Q65 821 65 806L72 428Q72 403 78.5 387.5Q85 372 95.0 364.0Q105 356 116.5 353.0Q128 350 139 350H206Q248 350 297.5 371.0Q347 392 389.5 431.0Q432 470 460.5 525.5Q489 581 489 649Q489 717 460.0 767.0Q431 817 388.5 849.5Q346 882 296.5 897.5Q247 913 206 913Q193 913 170.0 912.0Q147 911 131 908Q122 912 114.5 915.0Q107 918 105 918ZM142 820Q144 822 151.5 822.5Q159 823 168 823H222Q252 823 287.0 814.0Q322 805 351.5 786.0Q381 767 400.5 736.5Q420 706 420 662Q420 614 401.5 572.5Q383 531 354.0 500.0Q325 469 288.5 451.0Q252 433 215 433Q209 433 199.0 433.0Q189 433 178.0 433.5Q167 434 156.5 435.0Q146 436 139 437Q135 458 133.5 482.0Q132 506 132 528V606Q132 632 132.5 661.0Q133 690 134.0 718.5Q135 747 137.0 773.5Q139 800 142 820ZM610 763Q618 789 637.0 804.0Q656 819 679.0 826.0Q702 833 725.0 834.5Q748 836 765 836Q782 836 799.0 831.0Q816 826 831.5 820.0Q847 814 860.5 809.0Q874 804 883 804Q917 804 917 848Q917 874 893.5 888.0Q870 902 838.5 909.0Q807 916 776.5 917.5Q746 919 732 919Q698 919 665.0 904.0Q632 889 606.5 862.0Q581 835 565.5 799.0Q550 763 550 721Q550 663 564.5 615.0Q579 567 606.0 532.0Q633 497 673.0 477.5Q713 458 764 458Q789 458 816.0 467.5Q843 477 864.5 495.5Q886 514 900.0 541.5Q914 569 914 605Q914 628 907.0 644.0Q900 660 888 664ZM606 694Q634 686 669.5 672.5Q705 659 741.0 644.5Q777 630 808.5 616.5Q840 603 860 595Q847 567 816.5 555.5Q786 544 751 544Q737 544 715.0 552.5Q693 561 670.5 579.0Q648 597 630.0 625.5Q612 654 606 694ZM1015 868Q1015 861 1015.5 849.5Q1016 838 1016 830Q1016 814 1017.0 802.0Q1018 790 1019.5 780.5Q1021 771 1022.0 763.0Q1023 755 1023 745L1036 278Q1037 258 1048.5 245.0Q1060 232 1071 232Q1079 232 1090.5 244.5Q1102 257 1102 280Q1102 331 1099.5 381.5Q1097 432 1093.5 482.5Q1090 533 1087.5 584.5Q1085 636 1085 691V698L1264 464Q1271 455 1279.5 447.5Q1288 440 1296 440Q1316 440 1323.0 450.0Q1330 460 1330 482V487Q1330 499 1319.0 514.5Q1308 530 1291.5 546.5Q1275 563 1256.0 580.0Q1237 597 1222 611Q1236 643 1247.0 675.5Q1258 708 1272 739Q1281 760 1286.0 769.0Q1291 778 1294.5 784.0Q1298 790 1302.5 798.0Q1307 806 1316 825Q1319 835 1323 844Q1325 852 1327.5 859.0Q1330 866 1330 871Q1330 894 1317.5 908.5Q1305 923 1289 923Q1267 923 1259 888Q1256 883 1246 857Q1237 835 1220.0 790.5Q1203 746 1174 666L1085 772Q1085 792 1086.0 817.0Q1087 842 1087 865Q1087 882 1077.0 899.5Q1067 917 1050 917Q1040 917 1033.5 911.5Q1027 906 1023.0 898.5Q1019 891 1017.0 882.5Q1015 874 1015 868ZM1425 868Q1425 861 1425.5 849.5Q1426 838 1426 830Q1426 814 1427.0 802.0Q1428 790 1429.5 780.5Q1431 771 1432.0 763.0Q1433 755 1433 745L1446 278Q1447 258 1458.5 245.0Q1470 232 1481 232Q1489 232 1500.5 244.5Q1512 257 1512 280Q1512 331 1509.5 381.5Q1507 432 1503.5 482.5Q1500 533 1497.5 584.5Q1495 636 1495 691V698L1674 464Q1681 455 1689.5 447.5Q1698 440 1706 440Q1726 440 1733.0 450.0Q1740 460 1740 482V487Q1740 499 1729.0 514.5Q1718 530 1701.5 546.5Q1685 563 1666.0 580.0Q1647 597 1632 611Q1646 643 1657.0 675.5Q1668 708 1682 739Q1691 760 1696.0 769.0Q1701 778 1704.5 784.0Q1708 790 1712.5 798.0Q1717 806 1726 825Q1729 835 1733 844Q1735 852 1737.5 859.0Q1740 866 1740 871Q1740 894 1727.5 908.5Q1715 923 1699 923Q1677 923 1669 888Q1666 883 1656 857Q1647 835 1630.0 790.5Q1613 746 1584 666L1495 772Q1495 792 1496.0 817.0Q1497 842 1497 865Q1497 882 1487.0 899.5Q1477 917 1460 917Q1450 917 1443.5 911.5Q1437 906 1433.0 898.5Q1429 891 1427.0 882.5Q1425 874 1425 868ZM1811 698Q1811 635 1828.0 591.0Q1845 547 1873.0 519.5Q1901 492 1936.0 479.5Q1971 467 2007 467Q2090 467 2136.0 529.5Q2182 592 2182 698Q2182 748 2166.0 788.5Q2150 829 2124.0 858.5Q2098 888 2064.5 904.0Q2031 920 1996 920Q1958 920 1924.5 899.5Q1891 879 1865.5 847.0Q1840 815 1825.5 775.5Q1811 736 1811 698ZM1991 835Q2016 835 2039.5 825.5Q2063 816 2081.5 798.0Q2100 780 2111.0 754.0Q2122 728 2122 694Q2122 663 2114.0 637.0Q2106 611 2092.0 592.5Q2078 574 2059.0 564.0Q2040 554 2018 554Q1992 554 1965.5 562.5Q1939 571 1918.0 587.5Q1897 604 1883.5 629.5Q1870 655 1870 688Q1870 715 1880.0 741.5Q1890 768 1907.0 789.0Q1924 810 1946.0 822.5Q1968 835 1991 835Z" fill="currentColor" /></svg>