<svg viewBox="0 0 4200 1302" xmlns="http://www.w3.org/2000/svg"><path d="M66 992V292H213Q385 292 467.5 386.0Q550 480 550 642Q550 804 467.5 898.0Q385 992 213 992ZM150 915H211Q303 915 358.5 881.0Q414 847 439.0 786.0Q464 725 464 642Q464 559 439.0 498.0Q414 437 358.5 403.0Q303 369 211 369H150ZM650 992V292H740L900 625L1060 292H1150V992H1068V454L932 737H868L732 455V992ZM1850 992V292H1940L2100 625L2260 292H2350V992H2268V454L2132 737H2068L1932 455V992ZM2700 1004Q2630 1004 2576.0 972.0Q2522 940 2491.0 881.5Q2460 823 2460 744Q2460 665 2491.0 606.5Q2522 548 2576.0 516.0Q2630 484 2700 484Q2770 484 2824.0 516.0Q2878 548 2909.0 606.5Q2940 665 2940 744Q2940 823 2909.0 881.5Q2878 940 2824.0 972.0Q2770 1004 2700 1004ZM2700 924Q2743 924 2778.0 905.0Q2813 886 2833.5 846.0Q2854 806 2854 744Q2854 682 2833.5 642.0Q2813 602 2778.0 583.0Q2743 564 2700 564Q2658 564 2623.0 583.0Q2588 602 2567.0 642.0Q2546 682 2546 744Q2546 837 2591.0 880.5Q2636 924 2700 924ZM3088 992V496H3158L3167 571H3172Q3192 535 3235.0 509.5Q3278 484 3334 484Q3425 484 3470.5 538.0Q3516 592 3516 694V992H3432V704Q3432 638 3403.0 600.5Q3374 563 3313 563Q3254 563 3213.0 603.5Q3172 644 3172 720V992ZM3900 1004Q3830 1004 3776.0 972.0Q3722 940 3691.0 881.5Q3660 823 3660 744Q3660 665 3691.0 606.5Q3722 548 3776.0 516.0Q3830 484 3900 484Q3970 484 4024.0 516.0Q4078 548 4109.0 606.5Q4140 665 4140 744Q4140 823 4109.0 881.5Q4078 940 4024.0 972.0Q3970 1004 3900 1004ZM3900 924Q3943 924 3978.0 905.0Q4013 886 4033.5 846.0Q4054 806 4054 744Q4054 682 4033.5 642.0Q4013 602 3978.0 583.0Q3943 564 3900 564Q3858 564 3823.0 583.0Q3788 602 3767.0 642.0Q3746 682 3746 744Q3746 837 3791.0 880.5Q3836 924 3900 924Z" fill="currentColor" /></svg>