<svg viewBox="0 0 4074 712" xmlns="http://www.w3.org/2000/svg"><path d="M0 700V0H147Q319 0 401.5 94.0Q484 188 484 350Q484 512 401.5 606.0Q319 700 147 700ZM84 623H145Q237 623 292.5 589.0Q348 555 373.0 494.0Q398 433 398 350Q398 267 373.0 206.0Q348 145 292.5 111.0Q237 77 145 77H84ZM584 700V0H674L834 333L994 0H1084V700H1002V162L866 445H802L666 163V700ZM1784 700V0H1874L2034 333L2194 0H2284V700H2202V162L2066 445H2002L1866 163V700ZM2634 712Q2564 712 2510.0 680.0Q2456 648 2425.0 589.5Q2394 531 2394 452Q2394 373 2425.0 314.5Q2456 256 2510.0 224.0Q2564 192 2634 192Q2704 192 2758.0 224.0Q2812 256 2843.0 314.5Q2874 373 2874 452Q2874 531 2843.0 589.5Q2812 648 2758.0 680.0Q2704 712 2634 712ZM2634 632Q2677 632 2712.0 613.0Q2747 594 2767.5 554.0Q2788 514 2788 452Q2788 390 2767.5 350.0Q2747 310 2712.0 291.0Q2677 272 2634 272Q2592 272 2557.0 291.0Q2522 310 2501.0 350.0Q2480 390 2480 452Q2480 545 2525.0 588.5Q2570 632 2634 632ZM3022 700V204H3092L3101 279H3106Q3126 243 3169.0 217.5Q3212 192 3268 192Q3359 192 3404.5 246.0Q3450 300 3450 402V700H3366V412Q3366 346 3337.0 308.5Q3308 271 3247 271Q3188 271 3147.0 311.5Q3106 352 3106 428V700ZM3834 712Q3764 712 3710.0 680.0Q3656 648 3625.0 589.5Q3594 531 3594 452Q3594 373 3625.0 314.5Q3656 256 3710.0 224.0Q3764 192 3834 192Q3904 192 3958.0 224.0Q4012 256 4043.0 314.5Q4074 373 4074 452Q4074 531 4043.0 589.5Q4012 648 3958.0 680.0Q3904 712 3834 712ZM3834 632Q3877 632 3912.0 613.0Q3947 594 3967.5 554.0Q3988 514 3988 452Q3988 390 3967.5 350.0Q3947 310 3912.0 291.0Q3877 272 3834 272Q3792 272 3757.0 291.0Q3722 310 3701.0 350.0Q3680 390 3680 452Q3680 545 3725.0 588.5Q3770 632 3834 632Z" /></svg>