<svg viewBox="0 0 3851.0444444444443 724" xmlns="http://www.w3.org/2000/svg"><path d="M0 712V12H180Q302 12 381.5 54.5Q461 97 499.5 175.5Q538 254 538 364Q538 472 499.5 550.0Q461 628 381.5 670.0Q302 712 180 712ZM84 642H178Q279 642 339.0 608.5Q399 575 425.0 512.5Q451 450 451 364Q451 276 425.0 213.0Q399 150 339.0 116.0Q279 82 178 82H84ZM664 712V12H762L1000 505L1236 12H1335V712H1251V163L1031 620H968L748 167V712ZM1982 724Q1905 724 1848.0 696.0Q1791 668 1760.0 618.0Q1729 568 1729 502H1817Q1817 543 1836.0 577.5Q1855 612 1891.5 632.5Q1928 653 1982 653Q2029 653 2062.5 637.5Q2096 622 2113.5 595.0Q2131 568 2131 534Q2131 496 2114.5 470.5Q2098 445 2069.0 428.5Q2040 412 2002.0 399.0Q1964 386 1920 372Q1832 344 1792.5 301.5Q1753 259 1753 192Q1753 135 1779.5 92.0Q1806 49 1855.5 24.5Q1905 0 1973 0Q2040 0 2089.5 25.0Q2139 50 2167.0 93.5Q2195 137 2195 194H2107Q2107 165 2092.0 137.0Q2077 109 2046.5 90.5Q2016 72 1970 72Q1932 71 1902.5 84.5Q1873 98 1856.5 123.0Q1840 148 1840 184Q1840 218 1854.5 239.0Q1869 260 1896.5 274.5Q1924 289 1961.0 301.0Q1998 313 2043 328Q2094 345 2133.5 369.5Q2173 394 2195.5 432.0Q2218 470 2218 529Q2218 579 2191.5 623.5Q2165 668 2113.0 696.0Q2061 724 1982 724ZM2502 724Q2442 724 2402.0 701.5Q2362 679 2342.0 641.5Q2322 604 2322 561Q2322 509 2348.5 472.5Q2375 436 2423.0 417.0Q2471 398 2535 398H2666Q2666 347 2654.0 313.0Q2642 279 2615.0 262.0Q2588 245 2543 245Q2498 245 2466.0 267.5Q2434 290 2426 334H2340Q2346 282 2375.0 246.5Q2404 211 2448.5 192.5Q2493 174 2543 174Q2614 174 2660.0 199.5Q2706 225 2728.0 270.5Q2750 316 2750 378V712H2675L2670 622Q2660 643 2644.5 661.5Q2629 680 2608.0 694.0Q2587 708 2560.5 716.0Q2534 724 2502 724ZM2514 653Q2547 653 2575.0 638.0Q2603 623 2623.5 597.5Q2644 572 2655.0 540.0Q2666 508 2666 473V463H2542Q2495 463 2465.5 475.0Q2436 487 2423.0 508.5Q2410 530 2410 557Q2410 586 2422.0 607.5Q2434 629 2457.5 641.0Q2481 653 2514 653ZM2889 712V186H2965L2969 269Q2992 224 3035.5 199.0Q3079 174 3136 174Q3194 174 3237.0 196.0Q3280 218 3304.0 263.0Q3328 308 3328 377V712H3244V386Q3244 316 3209.5 281.0Q3175 246 3117 246Q3078 246 3045.0 264.5Q3012 283 2992.5 319.0Q2973 355 2973 407V712ZM3657 724Q3586 724 3539.5 702.5Q3493 681 3469.0 642.5Q3445 604 3440 553H3526Q3530 580 3544.5 602.5Q3559 625 3587.0 639.0Q3615 653 3658 653Q3692 653 3716.0 642.5Q3740 632 3752.5 613.0Q3765 594 3765 569Q3765 536 3750.5 517.5Q3736 499 3708.5 489.5Q3681 480 3640 475Q3596 469 3562.0 458.0Q3528 447 3504.5 429.0Q3481 411 3469.0 384.0Q3457 357 3457 320Q3457 277 3480.0 244.0Q3503 211 3545.5 192.5Q3588 174 3646 174Q3731 174 3780.5 213.0Q3830 252 3839 324H3756Q3751 287 3722.0 266.0Q3693 245 3645 245Q3594 245 3568.0 264.0Q3542 283 3542 314Q3542 337 3553.5 355.5Q3565 374 3593.0 386.5Q3621 399 3668 405Q3727 412 3768.0 427.5Q3809 443 3830.5 475.0Q3852 507 3851 562Q3851 614 3826.5 650.0Q3802 686 3758.5 705.0Q3715 724 3657 724Z" fill="currentColor" /></svg>