<svg viewBox="0 0 7192 1371" xmlns="http://www.w3.org/2000/svg"><path d="M22 1036V1026L43 1018Q75 1005 75 967V445Q75 405 43 394L22 386V376H286Q392 376 468.5 415.5Q545 455 586.5 528.5Q628 602 628 705Q628 810 583.0 884.0Q538 958 457.5 997.0Q377 1036 268 1036ZM225 1016H268Q340 1016 384.0 987.5Q428 959 448.5 891.5Q469 824 469 706Q469 588 448.5 520.5Q428 453 385.0 424.5Q342 396 272 396H225ZM651 1036V1026L671 1019Q705 1008 705 962V450Q705 430 700.5 418.0Q696 406 677 398L651 386V376H844L1029 860L1203 376H1400V386L1384 392Q1365 399 1358.0 411.5Q1351 424 1351 444V967Q1351 987 1356.0 998.0Q1361 1009 1380 1017L1400 1026V1036H1151V1026L1172 1017Q1191 1009 1196.0 998.0Q1201 987 1201 967V742L1203 456L994 1036H944L726 463L729 712V964Q729 986 735.5 999.5Q742 1013 761 1019L783 1026V1036ZM1877 1054Q1822 1054 1765.0 1040.5Q1708 1027 1670 1005L1675 869H1685L1716 934Q1730 962 1746.0 983.5Q1762 1005 1790 1017Q1810 1027 1828.5 1030.5Q1847 1034 1870 1034Q1931 1034 1966.5 1001.0Q2002 968 2002 916Q2002 867 1978.0 839.5Q1954 812 1901 786L1860 768Q1774 730 1725.5 680.5Q1677 631 1677 549Q1677 490 1707.5 447.0Q1738 404 1792.5 381.0Q1847 358 1920 358Q1973 358 2020.5 372.0Q2068 386 2103 410L2097 530H2087L2046 455Q2029 420 2012.0 405.5Q1995 391 1973 385Q1960 381 1949.0 379.5Q1938 378 1921 378Q1870 378 1835.0 407.5Q1800 437 1800 487Q1800 538 1827.0 568.5Q1854 599 1906 623L1952 643Q2048 685 2090.0 732.5Q2132 780 2132 855Q2132 943 2065.5 998.5Q1999 1054 1877 1054ZM2432 540Q2497 540 2543.0 566.5Q2589 593 2613.5 638.5Q2638 684 2638 742Q2638 753 2637.0 764.5Q2636 776 2633 785H2335Q2336 893 2373.5 940.5Q2411 988 2485 988Q2535 988 2566.0 972.0Q2597 956 2624 925L2634 934Q2603 989 2551.5 1020.0Q2500 1051 2428 1051Q2357 1051 2302.0 1020.5Q2247 990 2216.0 933.0Q2185 876 2185 797Q2185 715 2221.0 657.5Q2257 600 2313.5 570.0Q2370 540 2432 540ZM2429 560Q2400 560 2379.5 577.5Q2359 595 2347.5 639.5Q2336 684 2335 765H2506Q2516 656 2498.0 608.0Q2480 560 2429 560ZM2688 1036V1026L2703 1022Q2723 1016 2730.5 1004.0Q2738 992 2738 973V660Q2738 638 2730.5 627.5Q2723 617 2703 613L2688 609V599L2860 541L2870 551L2879 637V645Q2893 617 2915.5 593.5Q2938 570 2965.5 555.0Q2993 540 3020 540Q3058 540 3078.0 561.0Q3098 582 3098 614Q3098 648 3078.5 666.5Q3059 685 3032 685Q2990 685 2958 643L2956 641Q2946 627 2933.0 625.5Q2920 624 2909 638Q2899 647 2892.5 659.5Q2886 672 2880 688V967Q2880 1007 2915 1017L2947 1026V1036ZM3249 488Q3215 488 3191.5 466.5Q3168 445 3168 412Q3168 378 3191.5 357.0Q3215 336 3249 336Q3283 336 3306.0 357.0Q3329 378 3329 412Q3329 445 3306.0 466.5Q3283 488 3249 488ZM3131 1036V1026L3145 1022Q3165 1016 3172.5 1004.0Q3180 992 3180 972V659Q3180 638 3172.5 627.5Q3165 617 3145 613L3131 610V600L3314 541L3324 551L3321 693V973Q3321 993 3328.5 1005.0Q3336 1017 3355 1023L3365 1026V1036ZM3411 1036V1026L3424 1023Q3443 1018 3454.0 1005.5Q3465 993 3465 973Q3465 936 3465.5 899.5Q3466 863 3466 826V575H3410V564L3432 560Q3452 558 3461.0 546.0Q3470 534 3474 513Q3484 474 3503.5 444.5Q3523 415 3548 390Q3586 354 3628.5 339.5Q3671 325 3712 325Q3752 325 3785.0 341.5Q3818 358 3818 396Q3818 423 3802.0 438.5Q3786 454 3757 454Q3733 454 3713.0 441.0Q3693 428 3674 395L3660 378Q3649 364 3638.0 364.5Q3627 365 3622 381Q3615 416 3611.5 463.0Q3608 510 3608 555H3720V575H3608V971Q3608 1009 3648 1020L3673 1026V1036ZM3972 1036V1026L3993 1018Q4025 1005 4025 967V445Q4025 405 3993 394L3972 386V376H4236Q4342 376 4418.5 415.5Q4495 455 4536.5 528.5Q4578 602 4578 705Q4578 810 4533.0 884.0Q4488 958 4407.5 997.0Q4327 1036 4218 1036ZM4175 1016H4218Q4290 1016 4334.0 987.5Q4378 959 4398.5 891.5Q4419 824 4419 706Q4419 588 4398.5 520.5Q4378 453 4335.0 424.5Q4292 396 4222 396H4175ZM4738 488Q4704 488 4680.5 466.5Q4657 445 4657 412Q4657 378 4680.5 357.0Q4704 336 4738 336Q4772 336 4795.0 357.0Q4818 378 4818 412Q4818 445 4795.0 466.5Q4772 488 4738 488ZM4620 1036V1026L4634 1022Q4654 1016 4661.5 1004.0Q4669 992 4669 972V659Q4669 638 4661.5 627.5Q4654 617 4634 613L4620 610V600L4803 541L4813 551L4810 693V973Q4810 993 4817.5 1005.0Q4825 1017 4844 1023L4854 1026V1036ZM5071 1051Q5022 1051 4983.0 1039.5Q4944 1028 4911 1011L4912 892H4922L4956 952Q4978 992 5004.5 1011.5Q5031 1031 5072 1031Q5120 1031 5149.5 1009.5Q5179 988 5179 952Q5179 919 5158.0 898.0Q5137 877 5080 860L5038 847Q4977 829 4942.0 791.0Q4907 753 4907 698Q4907 632 4959.0 586.0Q5011 540 5108 540Q5147 540 5181.5 548.5Q5216 557 5248 574L5242 682H5232L5197 620Q5178 587 5159.5 573.5Q5141 560 5104 560Q5070 560 5040.0 579.0Q5010 598 5010 633Q5010 667 5035.5 687.0Q5061 707 5111 724L5156 737Q5228 759 5259.0 797.5Q5290 836 5290 890Q5290 963 5232.5 1007.0Q5175 1051 5071 1051ZM5324 1266V1256L5336 1252Q5373 1242 5373 1204V660Q5373 638 5365.5 627.0Q5358 616 5338 612L5324 609V599L5494 541L5504 551L5513 582Q5546 562 5586.5 551.0Q5627 540 5670 540Q5756 540 5806.5 605.5Q5857 671 5857 793Q5857 913 5801.5 982.0Q5746 1051 5645 1051Q5566 1051 5512 1028V1201Q5512 1241 5548 1251L5567 1256V1266ZM5597 1022Q5647 1022 5676.5 970.0Q5706 918 5706 797Q5706 676 5678.0 627.5Q5650 579 5597 579Q5560 579 5515 603V1006Q5553 1022 5597 1022ZM5901 1036V1026L5913 1022Q5949 1010 5949 972V437Q5949 417 5941.0 406.5Q5933 396 5913 391L5900 388V378L6083 335L6095 344L6091 484V826Q6091 863 6091.5 899.5Q6092 936 6092 972Q6092 992 6100.0 1004.5Q6108 1017 6127 1023L6140 1026V1036ZM6320 1051Q6262 1051 6222.5 1018.0Q6183 985 6183 923Q6183 876 6231.0 836.5Q6279 797 6382 777Q6398 774 6418.0 770.5Q6438 767 6460 763V684Q6460 616 6443.5 588.5Q6427 561 6392 561Q6368 561 6354.0 576.5Q6340 592 6336 630L6334 641Q6332 684 6313.0 704.0Q6294 724 6266 724Q6240 724 6223.0 708.0Q6206 692 6206 665Q6206 624 6234.5 596.0Q6263 568 6310.0 554.0Q6357 540 6412 540Q6501 540 6549.5 583.5Q6598 627 6598 725V946Q6598 991 6640 991H6662L6671 999Q6652 1023 6629.5 1036.0Q6607 1049 6566 1049Q6522 1049 6496.5 1028.5Q6471 1008 6463 974Q6433 1006 6401.5 1028.5Q6370 1051 6320 1051ZM6381 990Q6401 990 6418.5 980.5Q6436 971 6460 951V783Q6450 785 6440.0 787.0Q6430 789 6417 791Q6371 803 6343.5 831.5Q6316 860 6316 908Q6316 949 6335.0 969.5Q6354 990 6381 990ZM6768 1276Q6728 1276 6704.5 1256.0Q6681 1236 6681 1205Q6681 1177 6701.0 1160.0Q6721 1143 6746 1143Q6771 1143 6788.0 1153.5Q6805 1164 6818 1184L6825 1192Q6847 1222 6869 1191Q6878 1176 6889.5 1151.5Q6901 1127 6916 1086L6722 622Q6715 603 6707.0 591.5Q6699 580 6681 572L6663 565V555H6912V564L6892 572Q6870 579 6869.5 594.5Q6869 610 6877 633L6981 903L7080 630Q7088 607 7086.0 591.5Q7084 576 7061 570L7040 565V555H7179V565L7157 572Q7134 579 7125.0 592.0Q7116 605 7108 628L6947 1067Q6908 1172 6869.0 1224.0Q6830 1276 6768 1276Z" fill="currentColor" /></svg>