<svg viewBox="0 0 3742 774" xmlns="http://www.w3.org/2000/svg"><path d="M184 704H339Q393 704 431.5 688.0Q470 672 495 638Q523 603 536.5 546.0Q550 489 550 410Q550 254 495 178Q469 140 428.0 122.0Q387 104 329 104H184ZM0 44H336Q485 44 568 128Q615 176 640.0 246.0Q665 316 665 396Q665 480 638.5 553.5Q612 627 565 677Q482 764 327 764H0V721L84 700V108L0 87ZM1254 489Q1254 554 1234.5 612.5Q1215 671 1180 709Q1150 742 1106.0 758.0Q1062 774 1006 774Q951 774 908.0 758.5Q865 743 835 711Q801 674 782.5 619.5Q764 565 764 501Q764 436 783.0 376.5Q802 317 838 279Q870 245 912.5 229.5Q955 214 1010 214Q1065 214 1109.0 229.5Q1153 245 1183 277Q1218 314 1236.0 369.5Q1254 425 1254 489ZM871 490Q871 551 880.5 595.5Q890 640 907 669Q924 694 947.5 708.0Q971 722 1009 722Q1078 722 1112 675Q1130 649 1138.5 603.0Q1147 557 1147 497Q1147 437 1137.5 392.0Q1128 347 1111 319Q1095 293 1070.5 279.5Q1046 266 1008 266Q938 266 907 312Q871 368 871 490ZM1413 704V284L1336 265V224H1480L1502 324H1506Q1535 274 1583.5 244.0Q1632 214 1687 214Q1728 214 1760.0 229.5Q1792 245 1807 268Q1823 293 1833 334Q1865 278 1916.0 246.0Q1967 214 2025 214Q2065 214 2097.0 229.5Q2129 245 2146 272Q2158 291 2165.0 321.0Q2172 351 2175.0 398.5Q2178 446 2178 519V704L2255 723V764H2014V723L2081 704V481Q2081 416 2077.5 384.0Q2074 352 2065 334Q2053 310 2031.5 297.5Q2010 285 1981 285Q1956 285 1932.0 295.0Q1908 305 1889 322Q1867 342 1856.5 369.0Q1846 396 1844 437V704L1911 723V764H1680V723L1747 704V481Q1747 416 1743.5 384.0Q1740 352 1731 334Q1719 310 1697.5 297.5Q1676 285 1647 285Q1622 285 1598.0 295.0Q1574 305 1555 322Q1533 342 1522.5 369.0Q1512 396 1510 437V704L1577 723V764H1336V723ZM2388 284 2311 265V224H2485V704L2562 723V764H2311V723L2388 704ZM2374 63Q2374 34 2391.0 17.0Q2408 0 2436 0Q2465 0 2482.0 17.0Q2499 34 2499 63Q2499 91 2482.0 108.0Q2465 125 2436 125Q2407 125 2390.5 108.5Q2374 92 2374 63ZM2700 704V284L2623 265V224H2767L2789 324H2793Q2823 273 2874.0 243.5Q2925 214 2983 214Q3066 214 3106 268Q3126 296 3134.5 346.5Q3143 397 3143 483V704L3220 723V764H2979V723L3046 704V481Q3046 416 3042.5 384.0Q3039 352 3030 334Q3018 310 2995.5 297.5Q2973 285 2942 285Q2884 285 2842 322Q2801 359 2797 437V704L2864 723V764H2623V723ZM3739 500H3390Q3390 573 3410 621Q3430 667 3467.0 687.0Q3504 707 3547 707Q3594 707 3633.0 687.5Q3672 668 3703 634L3735 658Q3700 706 3650.0 740.0Q3600 774 3521 774Q3452 774 3399.0 744.5Q3346 715 3318 658Q3303 627 3296.0 589.0Q3289 551 3289 508Q3289 368 3353.5 291.0Q3418 214 3529 214Q3631 214 3686.5 277.5Q3742 341 3742 453Q3742 463 3741.5 471.5Q3741 480 3739 500ZM3523 268Q3403 268 3391 451H3641V418Q3641 346 3610.5 307.0Q3580 268 3523 268Z" fill="currentColor" /></svg>