<svg viewBox="0 0 1909 575" xmlns="http://www.w3.org/2000/svg"><path d="M58 435Q37 435 18.5 421.0Q0 407 0 381V87Q0 64 15.5 49.5Q31 35 52 35H142Q202 35 247.5 59.5Q293 84 318.5 129.0Q344 174 344 237Q344 292 320.5 337.0Q297 382 255.5 408.5Q214 435 160 435ZM99 373H143Q208 373 242.0 338.5Q276 304 275 237Q274 169 240.0 133.0Q206 97 142 97H100Q70 97 70 127V343Q70 373 99 373ZM544 445Q500 445 464.5 425.0Q429 405 409.0 369.5Q389 334 389 290Q389 247 409.0 213.0Q429 179 464.5 159.5Q500 140 544 140Q588 140 623.0 159.5Q658 179 678.5 213.0Q699 247 699 290Q699 334 678.5 369.5Q658 405 623.0 425.0Q588 445 544 445ZM544 383Q583 383 607.0 357.5Q631 332 631 290Q631 250 607.0 226.0Q583 202 544 202Q504 202 480.5 226.0Q457 250 457 290Q457 332 480.5 357.5Q504 383 544 383ZM1010 445Q997 445 986.5 437.0Q976 429 976 414V288Q976 244 956.5 223.0Q937 202 905 202Q864 202 845.5 228.5Q827 255 827 287V414Q827 429 816.5 437.0Q806 445 793 445Q780 445 769.5 437.0Q759 429 759 414V179Q759 162 769.5 153.5Q780 145 793 145Q806 145 816.5 153.5Q827 162 827 179Q844 162 871.0 151.0Q898 140 922 140Q978 140 1011.0 176.0Q1044 212 1044 282V414Q1044 429 1033.0 437.0Q1022 445 1010 445ZM1242 575Q1221 575 1195.0 571.0Q1169 567 1144 554Q1125 544 1125 523Q1125 511 1133.5 501.0Q1142 491 1155 491Q1164 491 1173 496Q1192 506 1211.0 510.0Q1230 514 1248 514Q1284 514 1310.0 495.5Q1336 477 1336 437V409Q1319 426 1296.5 435.5Q1274 445 1246 445Q1205 445 1171.5 425.0Q1138 405 1118.5 370.0Q1099 335 1099 291Q1099 247 1118.0 212.0Q1137 177 1170.0 157.0Q1203 137 1245 140Q1274 142 1296.5 151.5Q1319 161 1336 177Q1336 163 1345.5 154.0Q1355 145 1370 145Q1385 145 1394.5 154.0Q1404 163 1404 177V439Q1404 485 1382.5 515.5Q1361 546 1324.0 560.5Q1287 575 1242 575ZM1254 383Q1292 383 1314.0 357.5Q1336 332 1336 290Q1336 250 1314.0 226.0Q1292 202 1254 202Q1215 202 1191.0 226.0Q1167 250 1167 291Q1167 331 1190.5 357.0Q1214 383 1254 383ZM1518 445Q1505 445 1494.5 437.0Q1484 429 1484 414V34Q1484 17 1494.5 8.5Q1505 0 1518 0Q1531 0 1541.5 8.5Q1552 17 1552 34V414Q1552 429 1541.5 437.0Q1531 445 1518 445ZM1773 445Q1698 445 1656.0 402.0Q1614 359 1614 286Q1614 222 1656.5 181.0Q1699 140 1766 140Q1831 140 1870.0 177.5Q1909 215 1909 270Q1909 292 1897.5 303.0Q1886 314 1868 314H1694Q1684 314 1687 325Q1695 353 1719.5 368.5Q1744 384 1775 384Q1798 384 1819.5 378.0Q1841 372 1857 360Q1862 356 1870 356Q1881 356 1890.0 365.5Q1899 375 1899 388Q1899 394 1897.0 400.0Q1895 406 1888 412Q1862 431 1832.5 438.0Q1803 445 1773 445ZM1831 262Q1837 262 1837 256Q1837 233 1816.5 216.0Q1796 199 1766 199Q1740 199 1716.5 213.0Q1693 227 1688 250Q1688 250 1688 251Q1687 255 1687.5 258.0Q1688 261 1696 261Z" /></svg>