<svg viewBox="0 0 5444 815" xmlns="http://www.w3.org/2000/svg"><path d="M0 0H321V61H382V123H444V690H382V752H321V815H0ZM310 741V680H372V134H310V72H74V741ZM563 690H500V370H563V309H625V247H821V309H882V370H944V690H882V752H821V815H625V752H563ZM635 680V741H810V680H872V381H810V319H635V381H574V680ZM1156 319H1031V247H1156V61H1228V247H1413V319H1228V741H1413V815H1217V752H1156ZM1563 690H1500V123H1563V61H1625V0H1821V61H1882V123H1944V258H1872V134H1810V72H1635V134H1574V680H1635V741H1810V680H1872V443H1686V370H1944V690H1882V752H1821V815H1625V752H1563ZM2063 690H2000V370H2063V309H2125V247H2321V309H2382V370H2444V690H2382V752H2321V815H2125V752H2063ZM2135 680V741H2310V680H2372V381H2310V319H2135V381H2074V680ZM2656 319H2531V247H2656V61H2728V247H2913V319H2728V741H2913V815H2717V752H2656ZM3000 61H3074V309H3125V247H3321V309H3382V370H3444V815H3372V381H3310V319H3135V381H3074V815H3000ZM3685 61H3758V196H3685ZM3685 247H3758V815H3685ZM4063 690H4000V370H4063V309H4125V247H4321V309H4382V370H4444V443H4372V381H4310V319H4135V381H4074V680H4135V741H4310V680H4372V618H4444V690H4382V752H4321V815H4125V752H4063ZM4747 72H4624V0H4820V815H4747ZM5063 690H5000V123H5063V61H5125V0H5321V61H5382V123H5444V258H5372V134H5310V72H5135V134H5074V370H5125V309H5321V370H5382V432H5444V690H5382V752H5321V815H5125V752H5063ZM5135 680V741H5310V680H5372V443H5310V381H5135V443H5074V680Z" fill="currentColor" /></svg>