<svg viewBox="0 0 6451 2485" xmlns="http://www.w3.org/2000/svg"><path d="M575 1858Q523 1858 479.0 1845.5Q435 1833 397.0 1812.5Q359 1792 326.0 1765.5Q293 1739 264 1712Q205 1786 141.5 1820.5Q78 1855 4 1855Q-23 1855 -50.5 1846.5Q-78 1838 -100.5 1820.5Q-123 1803 -137.0 1775.5Q-151 1748 -151 1710Q-151 1671 -134.5 1635.0Q-118 1599 -88.5 1571.5Q-59 1544 -18.5 1528.0Q22 1512 70 1512Q112 1512 149.5 1532.0Q187 1552 224 1583Q254 1523 287.0 1444.5Q320 1366 362 1267L492 957H373Q323 957 274.0 946.5Q225 936 187.0 913.5Q149 891 125.5 857.0Q102 823 102 775Q102 707 147.0 640.5Q192 574 274.5 522.0Q357 470 474.5 438.0Q592 406 737 406Q846 406 949.0 445.0Q1052 484 1132.5 559.0Q1213 634 1261.5 742.5Q1310 851 1310 990Q1310 1087 1284.0 1189.0Q1258 1291 1211.0 1387.0Q1164 1483 1097.0 1569.0Q1030 1655 948.5 1719.0Q867 1783 772.5 1820.5Q678 1858 575 1858ZM620 957 426 1420Q366 1563 305 1655Q334 1682 364.0 1707.5Q394 1733 427.0 1753.0Q460 1773 496.0 1785.0Q532 1797 572 1797Q658 1797 735.5 1760.5Q813 1724 879.5 1661.0Q946 1598 1000.0 1514.5Q1054 1431 1091.5 1337.5Q1129 1244 1149.5 1145.0Q1170 1046 1170 953Q1170 847 1143.5 754.0Q1117 661 1062.0 592.0Q1007 523 922.5 483.0Q838 443 721 443Q606 443 512.0 469.5Q418 496 351.5 538.0Q285 580 249.0 633.0Q213 686 213 740Q213 768 222.0 791.5Q231 815 253.5 831.5Q276 848 313.0 857.5Q350 867 407 867H529L676 517H804L657 867H979L942 957ZM-4 1805Q26 1805 51.5 1795.5Q77 1786 100.5 1766.0Q124 1746 146.5 1716.0Q169 1686 192 1644Q157 1612 123.5 1590.0Q90 1568 53 1568Q15 1568 -13.5 1581.0Q-42 1594 -62.0 1614.5Q-82 1635 -92.0 1659.5Q-102 1684 -102 1707Q-102 1752 -76.0 1778.5Q-50 1805 -4 1805ZM2131 1475Q2081 1537 2035.5 1588.0Q1990 1639 1945.5 1683.5Q1901 1728 1855.0 1768.5Q1809 1809 1760 1850L1558 2317L1407 2358Q1526 2093 1622 1879Q1663 1788 1702.5 1699.5Q1742 1611 1774.5 1539.5Q1807 1468 1828.0 1420.0Q1849 1372 1853 1363Q1855 1358 1855.5 1351.0Q1856 1344 1848 1344Q1839 1344 1829 1359Q1766 1455 1719.0 1542.5Q1672 1630 1629.0 1696.5Q1586 1763 1542.5 1802.0Q1499 1841 1444 1841Q1411 1841 1387.5 1816.5Q1364 1792 1364 1747Q1364 1729 1367.5 1710.0Q1371 1691 1376.0 1674.5Q1381 1658 1385.5 1645.0Q1390 1632 1393 1626L1543 1267Q1546 1260 1546 1256Q1546 1250 1542.5 1247.5Q1539 1245 1534 1245Q1524 1245 1516 1256L1318 1501L1293 1481L1518 1203Q1544 1171 1572.5 1146.5Q1601 1122 1632 1122Q1661 1122 1674.0 1137.5Q1687 1153 1687 1172Q1687 1191 1680.0 1215.0Q1673 1239 1662 1265L1512 1621Q1501 1645 1494.0 1670.5Q1487 1696 1487 1713Q1487 1736 1499.0 1741.5Q1511 1747 1525 1747Q1540 1747 1560.0 1725.5Q1580 1704 1603.5 1669.0Q1627 1634 1653.5 1588.0Q1680 1542 1707.0 1493.5Q1734 1445 1761.0 1396.5Q1788 1348 1814 1307Q1849 1251 1872.5 1214.5Q1896 1178 1916.0 1156.0Q1936 1134 1955.5 1125.5Q1975 1117 2003 1117Q2024 1117 2037.0 1128.0Q2050 1139 2050 1155Q2050 1168 2046.5 1182.0Q2043 1196 2038 1207L1790 1780Q1858 1723 1936.5 1644.5Q2015 1566 2106 1455ZM2333 1267Q2336 1260 2336 1256Q2336 1250 2332.5 1247.5Q2329 1245 2324 1245Q2314 1245 2306 1256L2108 1501L2083 1481L2308 1203Q2334 1171 2362.5 1146.5Q2391 1122 2422 1122Q2451 1122 2464.0 1137.5Q2477 1153 2477 1172Q2477 1191 2470.0 1215.0Q2463 1239 2452 1265L2313 1592Q2307 1606 2307 1614Q2307 1624 2315 1624Q2326 1624 2339 1604L2548 1293Q2580 1245 2605.5 1211.5Q2631 1178 2653.5 1157.0Q2676 1136 2696.5 1126.5Q2717 1117 2739 1117Q2777 1117 2797.0 1132.0Q2817 1147 2817 1176Q2817 1193 2812.0 1211.5Q2807 1230 2802 1244L2628 1670Q2624 1680 2621.0 1689.5Q2618 1699 2618 1706Q2618 1718 2623.5 1722.0Q2629 1726 2638 1726Q2652 1726 2672.0 1712.0Q2692 1698 2714 1671L2897 1445L2922 1465L2701 1738Q2677 1768 2656.0 1788.0Q2635 1808 2616.5 1819.5Q2598 1831 2579.5 1836.0Q2561 1841 2542 1841Q2512 1841 2492.0 1823.5Q2472 1806 2472 1779Q2472 1754 2484.0 1720.0Q2496 1686 2517 1637L2679 1254Q2682 1247 2682 1239Q2682 1219 2663 1219Q2655 1219 2645.5 1224.0Q2636 1229 2626 1244L2296 1734Q2257 1792 2227.5 1816.5Q2198 1841 2170 1841Q2124 1841 2124 1797Q2124 1774 2135.5 1740.0Q2147 1706 2167 1658L2333 1267ZM3331 1670Q3327 1679 3324.0 1689.0Q3321 1699 3321 1706Q3321 1718 3326.5 1722.0Q3332 1726 3341 1726Q3355 1726 3375.0 1712.0Q3395 1698 3417 1671L3600 1445L3625 1465L3404 1738Q3380 1768 3359.0 1788.0Q3338 1808 3319.5 1819.5Q3301 1831 3282.5 1836.0Q3264 1841 3245 1841Q3215 1841 3195.0 1823.5Q3175 1806 3175 1779Q3175 1749 3186.5 1717.0Q3198 1685 3220 1637Q3228 1620 3239.5 1592.5Q3251 1565 3264.0 1534.5Q3277 1504 3290.0 1473.0Q3303 1442 3313.0 1416.5Q3323 1391 3329.5 1374.0Q3336 1357 3336 1354Q3336 1344 3329 1344Q3320 1344 3310 1359Q3304 1367 3286.0 1393.0Q3268 1419 3242.0 1455.0Q3216 1491 3186.0 1533.0Q3156 1575 3126.0 1615.0Q3096 1655 3069.0 1688.0Q3042 1721 3023 1740Q2975 1788 2938.0 1815.5Q2901 1843 2865 1843Q2853 1843 2838.5 1838.0Q2824 1833 2811.5 1820.5Q2799 1808 2791.0 1785.5Q2783 1763 2783 1728Q2783 1676 2806.5 1613.0Q2830 1550 2871.0 1484.5Q2912 1419 2968.0 1356.0Q3024 1293 3089.5 1242.5Q3155 1192 3227.0 1158.0Q3299 1124 3373 1117V1135Q3312 1153 3256.0 1190.5Q3200 1228 3151.0 1277.0Q3102 1326 3062.0 1381.5Q3022 1437 2993.0 1491.0Q2964 1545 2948.5 1593.5Q2933 1642 2933 1675Q2933 1693 2938.5 1705.0Q2944 1717 2954 1717Q2965 1717 2986.5 1699.0Q3008 1681 3036.0 1650.5Q3064 1620 3097.0 1580.5Q3130 1541 3164.0 1498.0Q3198 1455 3231.5 1411.0Q3265 1367 3294 1328Q3338 1268 3367.0 1229.0Q3396 1190 3417.0 1166.5Q3438 1143 3455.0 1134.0Q3472 1125 3492 1125Q3513 1125 3521.0 1136.0Q3529 1147 3529 1163Q3529 1176 3525.5 1190.0Q3522 1204 3517 1215Q3513 1224 3499.5 1257.5Q3486 1291 3467.0 1337.5Q3448 1384 3426.5 1437.0Q3405 1490 3385.5 1537.5Q3366 1585 3351.0 1621.5Q3336 1658 3331 1670ZM3746 1670Q3742 1680 3739.0 1689.5Q3736 1699 3736 1706Q3736 1718 3741.5 1722.0Q3747 1726 3756 1726Q3770 1726 3790.0 1712.0Q3810 1698 3832 1671L4015 1445L4040 1465L3819 1738Q3795 1768 3775.5 1788.0Q3756 1808 3738.5 1819.5Q3721 1831 3703.5 1836.0Q3686 1841 3667 1841Q3637 1841 3617.0 1823.5Q3597 1806 3597 1779Q3597 1754 3609.5 1720.0Q3622 1686 3642 1637L3831 1186Q3815 1211 3794.0 1242.0Q3773 1273 3743.5 1312.0Q3714 1351 3676.5 1399.5Q3639 1448 3590 1508L3565 1488Q3634 1403 3685.0 1335.5Q3736 1268 3773.0 1214.0Q3810 1160 3836.0 1117.0Q3862 1074 3882.0 1036.0Q3902 998 3918.5 963.5Q3935 929 3954 892L4068 621H4188ZM4473 725Q4503 725 4520.0 746.5Q4537 768 4537 797Q4537 813 4531.5 829.5Q4526 846 4515.5 859.0Q4505 872 4490.5 880.5Q4476 889 4457 889Q4428 889 4410.0 866.5Q4392 844 4392 816Q4392 795 4399.5 778.5Q4407 762 4418.5 750.0Q4430 738 4444.5 731.5Q4459 725 4473 725ZM4236 1267Q4239 1260 4239 1256Q4239 1250 4235.5 1247.5Q4232 1245 4227 1245Q4217 1245 4209 1256L4011 1501L3986 1481L4211 1203Q4237 1171 4265.5 1146.5Q4294 1122 4325 1122Q4354 1122 4367.0 1137.5Q4380 1153 4380 1172Q4380 1191 4373.0 1215.0Q4366 1239 4355 1265L4187 1670Q4183 1680 4180.0 1689.5Q4177 1699 4177 1706Q4177 1718 4182.5 1722.0Q4188 1726 4197 1726Q4211 1726 4231.0 1712.0Q4251 1698 4273 1671L4456 1445L4481 1465L4260 1738Q4236 1768 4215.0 1788.0Q4194 1808 4175.5 1819.5Q4157 1831 4138.5 1836.0Q4120 1841 4101 1841Q4071 1841 4051.0 1823.5Q4031 1806 4031 1779Q4031 1754 4043.0 1720.0Q4055 1686 4076 1637ZM5174 1475Q5126 1535 5082.0 1585.0Q5038 1635 4994.5 1678.5Q4951 1722 4907.0 1761.0Q4863 1800 4815 1840L4719 2071Q4687 2148 4653.5 2210.0Q4620 2272 4582.0 2315.0Q4544 2358 4500.0 2381.0Q4456 2404 4403 2404Q4368 2404 4344.0 2392.5Q4320 2381 4305.0 2363.0Q4290 2345 4283.5 2323.0Q4277 2301 4277 2281Q4277 2215 4314.0 2159.5Q4351 2104 4410.5 2053.0Q4470 2002 4543.5 1951.5Q4617 1901 4691 1844L4887 1372Q4893 1357 4893 1354Q4893 1344 4886 1344Q4877 1344 4867 1359Q4861 1367 4843.0 1393.0Q4825 1419 4799.0 1455.0Q4773 1491 4743.0 1533.0Q4713 1575 4683.0 1615.0Q4653 1655 4626.0 1688.0Q4599 1721 4580 1740Q4532 1788 4495.0 1815.5Q4458 1843 4422 1843Q4410 1843 4395.5 1838.0Q4381 1833 4368.5 1820.5Q4356 1808 4348.0 1785.5Q4340 1763 4340 1728Q4340 1676 4363.5 1613.0Q4387 1550 4428.0 1484.5Q4469 1419 4525.0 1356.0Q4581 1293 4646.5 1242.5Q4712 1192 4784.0 1158.0Q4856 1124 4930 1117V1135Q4869 1153 4813.0 1190.5Q4757 1228 4708.0 1277.0Q4659 1326 4619.0 1381.5Q4579 1437 4550.0 1491.0Q4521 1545 4505.5 1593.5Q4490 1642 4490 1675Q4490 1693 4495.5 1705.0Q4501 1717 4511 1717Q4522 1717 4543.5 1699.0Q4565 1681 4593.0 1650.5Q4621 1620 4654.0 1580.5Q4687 1541 4721.0 1498.0Q4755 1455 4788.5 1411.0Q4822 1367 4851 1328Q4895 1268 4924.5 1229.0Q4954 1190 4975.5 1166.5Q4997 1143 5014.0 1134.0Q5031 1125 5051 1125Q5072 1125 5080.0 1136.0Q5088 1147 5088 1163Q5088 1176 5084.5 1190.0Q5081 1204 5076 1215L4844 1771Q4910 1714 4985.5 1637.5Q5061 1561 5149 1455ZM4666 1905Q4586 1963 4521.0 2009.5Q4456 2056 4410.5 2098.5Q4365 2141 4340.5 2185.0Q4316 2229 4316 2282Q4316 2296 4320.0 2311.0Q4324 2326 4332.5 2338.0Q4341 2350 4355.0 2357.5Q4369 2365 4389 2365Q4439 2365 4480.5 2309.0Q4522 2253 4561 2159ZM5334 1592Q5332 1597 5331 1601Q5328 1609 5328 1614Q5328 1624 5336 1624Q5347 1624 5360 1604L5569 1293Q5601 1245 5626.5 1211.5Q5652 1178 5674.5 1157.0Q5697 1136 5717.5 1126.5Q5738 1117 5760 1117Q5798 1117 5818.0 1132.0Q5838 1147 5838 1176Q5838 1193 5833.0 1211.5Q5828 1230 5823 1244L5649 1670Q5645 1680 5642.0 1689.5Q5639 1699 5639 1706Q5639 1718 5644.5 1722.0Q5650 1726 5659 1726Q5673 1726 5693.0 1712.0Q5713 1698 5735 1671L5918 1445L5943 1465L5722 1738Q5698 1768 5677.0 1788.0Q5656 1808 5637.5 1819.5Q5619 1831 5600.5 1836.0Q5582 1841 5563 1841Q5533 1841 5513.0 1823.5Q5493 1806 5493 1779Q5493 1754 5505.0 1720.0Q5517 1686 5538 1637L5700 1254Q5703 1247 5703 1239Q5703 1219 5684 1219Q5676 1219 5666.5 1224.0Q5657 1229 5647 1244L5317 1734Q5278 1792 5248.5 1816.5Q5219 1841 5191 1841Q5145 1841 5145 1797Q5145 1774 5156.5 1740.0Q5168 1706 5188 1658L5384 1189Q5368 1214 5347.0 1244.5Q5326 1275 5297.0 1314.0Q5268 1353 5230.5 1401.0Q5193 1449 5145 1508L5120 1488Q5188 1404 5238.0 1338.0Q5288 1272 5325.0 1218.5Q5362 1165 5387.5 1122.0Q5413 1079 5433.0 1041.5Q5453 1004 5470.0 970.0Q5487 936 5505 900L5622 621H5743L5334 1592ZM6390 897H6673L6654 938H6373L6064 1670Q6060 1680 6056.0 1692.5Q6052 1705 6052 1716Q6052 1728 6059.0 1735.5Q6066 1743 6079 1743Q6102 1743 6130.0 1720.5Q6158 1698 6180 1671L6363 1445L6388 1465L6177 1726Q6128 1786 6084.0 1813.5Q6040 1841 6001 1841Q5986 1841 5971.0 1836.5Q5956 1832 5944.0 1823.5Q5932 1815 5924.5 1801.5Q5917 1788 5917 1770Q5917 1745 5928.5 1715.5Q5940 1686 5960 1637L6149 1186Q6133 1211 6112.0 1242.0Q6091 1273 6062.0 1312.0Q6033 1351 5995.0 1399.5Q5957 1448 5908 1508L5883 1488Q5976 1374 6036.0 1291.5Q6096 1209 6135.5 1146.5Q6175 1084 6200.5 1035.0Q6226 986 6249 938H6006L6025 897H6270L6349 710H6469Z" fill="currentColor" /></svg>