<svg viewBox="0 0 4511 657" xmlns="http://www.w3.org/2000/svg"><path d="M230 275Q228 275 223.5 276.0Q219 277 215 277H213L210 276Q207 276 202.5 278.5Q198 281 195 281L184 287L174 285L159 289L148 287Q146 287 139.0 291.5Q132 296 129 296L120 297L104 341Q101 350 98.5 358.5Q96 367 96 370V382L100 387H104Q107 387 112.5 388.5Q118 390 121 390H145Q182 393 194 393H198Q200 393 209.0 394.0Q218 395 219 395Q220 395 224.0 394.5Q228 394 232.5 394.0Q237 394 240.5 393.5Q244 393 245 393L291 401Q294 401 300.5 402.0Q307 403 313.5 404.5Q320 406 325.5 408.0Q331 410 331 411Q331 422 320.0 429.0Q309 436 305 440H304Q282 445 264.5 445.5Q247 446 225 446H186Q180 444 173.5 444.0Q167 444 160 444Q151 444 124.5 446.5Q98 449 74 449L56 453Q49 452 41.0 450.0Q33 448 29 444L4 415L0 405V388L8 371Q8 370 10 362L13 356Q15 350 17.0 346.0Q19 342 22 336L24 339Q26 335 26 332V330L22 332L20 330Q20 324 22.5 316.5Q25 309 26 298Q27 299 29 299Q32 299 36.0 296.5Q40 294 42 292L36 291Q36 281 41.0 274.0Q46 267 46 257Q40 257 37.0 259.5Q34 262 32.0 265.0Q30 268 28.0 271.5Q26 275 21 278V272Q21 271 23.5 261.5Q26 252 30.5 239.5Q35 227 41.5 214.5Q48 202 56 194L58 197Q61 193 63.5 188.5Q66 184 66 179V176L62 185L58 183L62 171L64 173Q65 174 69 174Q70 174 72.5 163.5Q75 153 76 148Q74 153 70.5 158.5Q67 164 66 165H64Q64 162 67.0 154.0Q70 146 70 143L74 122V112L53 95L43 87Q41 86 40.0 80.5Q39 75 39 74Q39 66 48 66H106Q110 66 118 63L131 60L155 61Q171 60 186.5 60.0Q202 60 218 57H319Q325 57 336.0 64.5Q347 72 347 77Q347 82 343.5 83.5Q340 85 340 88L341 93Q341 95 330.5 96.5Q320 98 313 98H296Q284 98 276.0 101.5Q268 105 261.5 109.0Q255 113 249.0 116.5Q243 120 237 120Q237 124 231.5 126.0Q226 128 218.5 130.0Q211 132 203.5 134.5Q196 137 192 141Q184 149 177.0 158.5Q170 168 163 178Q155 189 148 201Q148 205 152 205Q149 215 143.5 218.0Q138 221 138 234Q162 234 184.0 232.5Q206 231 230 231H258Q261 231 266.5 232.5Q272 234 274 234L286 239V243L294 239L292 249L288 263Q286 263 284.0 265.0Q282 267 278.5 270.0Q275 273 270.0 275.0Q265 277 256 277Q250 277 242.5 276.0Q235 275 230 275ZM30 303Q28 305 28 308V312Q34 306 40 306V303ZM522 427Q540 432 540 434L539 443Q539 454 543 462Q545 466 547 467Q547 469 538.5 469.5Q530 470 518.5 471.0Q507 472 495.5 472.5Q484 473 477 473H470Q448 473 433.0 466.0Q418 459 409 442L405 440L403 427Q401 419 399.0 412.0Q397 405 397 397Q398 391 402.0 386.5Q406 382 409.5 378.5Q413 375 415.0 373.0Q417 371 414 371Q414 366 420.0 358.0Q426 350 435.0 342.0Q444 334 453.5 326.5Q463 319 469 315L477 317Q479 317 487.5 314.5Q496 312 501 310L515 300Q522 299 522 293L561 275Q562 273 564.5 270.5Q567 268 567 267L559 235Q559 233 556 233Q555 233 555.0 233.5Q555 234 554 234H552Q547 234 534.5 236.0Q522 238 509.0 241.0Q496 244 485.5 246.0Q475 248 475 248Q474 249 472 249Q466 249 459.5 243.0Q453 237 448 232L438 228L433 224Q433 222 432.0 220.5Q431 219 430 217L428 213Q428 208 444.5 204.0Q461 200 486.0 197.0Q511 194 539.5 192.5Q568 191 592 191H595Q609 191 618.0 195.5Q627 200 633.0 206.5Q639 213 643.0 220.5Q647 228 652 234V251Q652 262 652.5 268.5Q653 275 653 281Q653 287 652.0 293.5Q651 300 648 311Q648 316 650.0 319.5Q652 323 652 327V328L653 335L645 344L651 351L644 360Q644 362 642.5 365.0Q641 368 641 370L642 371L640 387L648 389L647 395L641 398L643 402L642 409Q637 418 635.0 435.0Q633 452 632 460Q631 462 624.5 462.5Q618 463 610.5 463.5Q603 464 596.5 464.0Q590 464 590 464Q581 464 574.5 459.0Q568 454 564.5 446.5Q561 439 559.5 430.5Q558 422 558 415Q558 398 563.5 387.5Q569 377 569 358Q567 350 568.5 341.5Q570 333 561 333Q559 335 556.5 337.5Q554 340 552 341Q551 340 547 340Q545 340 538.0 343.0Q531 346 523.0 350.0Q515 354 508.5 358.0Q502 362 501 364Q490 371 479.5 376.0Q469 381 462 388L460 403Q460 404 459.0 407.5Q458 411 458 414L459 415L463 412L466 417Q473 418 480.0 417.5Q487 417 490 419Q491 419 491.5 418.5Q492 418 493 418Q498 418 505.5 423.0Q513 428 519 428Q521 428 522 427ZM833 484Q830 484 824.5 483.5Q819 483 812.5 482.0Q806 481 800.5 479.5Q795 478 792 477L768 468Q766 468 760.0 465.5Q754 463 740 458L727 442Q727 433 737.0 425.0Q747 417 755 414Q756 414 760.5 415.0Q765 416 770.0 417.5Q775 419 779.5 420.0Q784 421 785 421Q794 421 809.0 420.0Q824 419 838.5 417.5Q853 416 863.5 413.5Q874 411 874 408L879 382Q879 371 872.0 364.0Q865 357 855 357Q852 357 850 359L823 354H813Q805 354 788.0 350.5Q771 347 754.5 340.0Q738 333 725.5 322.0Q713 311 713 296Q713 287 715.5 284.0Q718 281 722 271L719 269Q719 266 721.5 260.0Q724 254 727.5 247.5Q731 241 734.0 235.0Q737 229 738 226L773 187Q775 185 777.5 185.5Q780 186 780 184L803 169H808Q808 169 814 167L841 162H850L852 164Q857 166 862.5 166.0Q868 166 875 166H892Q894 166 897.5 171.5Q901 177 903 177Q912 183 919.0 187.0Q926 191 931.5 195.5Q937 200 940.0 206.5Q943 213 943 225Q943 228 938.0 230.0Q933 232 931 234H913Q912 234 908.5 235.0Q905 236 900.5 237.0Q896 238 892.0 239.0Q888 240 887 240H850Q848 245 838.5 246.5Q829 248 824 251Q810 259 807.0 268.5Q804 278 802 292Q817 302 837.5 306.0Q858 310 866 310L893 318Q920 326 930.5 340.5Q941 355 945 369L948 382V390Q948 394 947.0 397.0Q946 400 945 420L940 435L937 437Q926 452 918.5 460.5Q911 469 892 472Q891 472 889.5 474.0Q888 476 882.5 478.0Q877 480 865.5 482.0Q854 484 833 484ZM730 291Q730 300 737.5 304.0Q745 308 753 308L750 297V295Q750 288 751.0 287.0Q752 286 752 278Q748 278 748 274Q748 272 750.0 267.0Q752 262 754 261V267Q757 267 757.5 262.0Q758 257 758 254Q758 249 756 249L754 254V241H752Q751 244 748.0 248.5Q745 253 743 256Q741 263 740.5 270.0Q740 277 737 284Q735 289 732.5 288.0Q730 287 730 291ZM804 200Q787 200 775.5 213.5Q764 227 759 243V244Q767 244 769.5 234.0Q772 224 776 219Q777 218 781.0 216.0Q785 214 790.0 211.0Q795 208 799.5 205.5Q804 203 806 200ZM1301 217 1299 222 1300 217 1275 227Q1274 228 1272 228Q1270 228 1270 226L1265 227Q1257 228 1244.5 229.0Q1232 230 1220.0 231.0Q1208 232 1199.5 234.5Q1191 237 1191 241V242L1193 244Q1191 246 1190.0 246.0Q1189 246 1189 248Q1189 250 1191 253Q1191 258 1188.0 258.0Q1185 258 1185 266Q1185 270 1191 270Q1185 273 1185 283Q1185 291 1188 292L1191 302Q1184 309 1184 315Q1184 320 1185 322Q1185 330 1184.5 333.0Q1184 336 1184.0 336.5Q1184 337 1183.5 337.5Q1183 338 1183 341L1184 342Q1184 350 1180.5 361.5Q1177 373 1175 375H1173V379H1178Q1176 381 1174.0 382.0Q1172 383 1172 385Q1172 386 1173 387H1180L1173 419L1177 421Q1183 423 1194 423Q1203 422 1210.0 418.5Q1217 415 1225 414H1228Q1232 414 1237.5 413.5Q1243 413 1248 413H1295Q1296 413 1300.0 414.5Q1304 416 1308.5 418.0Q1313 420 1316.0 422.0Q1319 424 1319 424Q1319 429 1313.0 435.5Q1307 442 1302 446L1257 460L1199 466Q1191 466 1177.0 473.5Q1163 481 1149 481V477L1118 474Q1107 466 1102.0 464.0Q1097 462 1094.0 461.5Q1091 461 1089.0 460.0Q1087 459 1082 454Q1082 451 1082.0 441.5Q1082 432 1082.5 422.0Q1083 412 1084.0 403.5Q1085 395 1087 393L1090 436L1094 442Q1094 428 1094.5 400.0Q1095 372 1098 335L1097 337Q1096 338 1095.5 333.0Q1095 328 1095 322Q1095 311 1096 311H1097L1100 322L1108 266H1104V256V249Q1098 251 1090.0 251.0Q1082 251 1075 256L1054 257L1046 256L1041 258L1038 255Q1030 255 1019.0 241.0Q1008 227 1008 213Q1008 207 1020.5 203.5Q1033 200 1050.0 197.0Q1067 194 1084.5 191.5Q1102 189 1113 186Q1116 177 1117.5 162.0Q1119 147 1119.5 134.0Q1120 121 1120.5 113.0Q1121 105 1121 109Q1121 108 1123.0 101.5Q1125 95 1127.5 87.5Q1130 80 1132.0 73.5Q1134 67 1134 65Q1133 64 1133 62Q1133 59 1135.0 54.0Q1137 49 1137 46L1139 45Q1146 45 1159.5 49.0Q1173 53 1186.0 59.5Q1199 66 1209.0 75.5Q1219 85 1219 96Q1219 107 1209.0 122.0Q1199 137 1199 154L1193 177Q1220 177 1248.5 174.5Q1277 172 1291 172Q1299 172 1304.5 175.0Q1310 178 1310 189L1300 217ZM1087 384 1082 385Q1082 383 1082.5 371.0Q1083 359 1085 356ZM1126 416 1121 427V437L1131 416ZM1131 396Q1127 396 1127 401Q1127 406 1131 406Q1136 406 1136 401Q1136 396 1131 396ZM1589 411Q1599 408 1613 408Q1641 408 1665.0 412.0Q1689 416 1709 417L1717 412L1744 410Q1745 411 1747 411Q1751 411 1753.0 408.0Q1755 405 1758 405Q1767 405 1780.0 401.0Q1793 397 1797 391Q1804 368 1807.0 345.0Q1810 322 1810 305L1804 293Q1804 288 1796.5 285.5Q1789 283 1787 283L1776 279Q1767 279 1760.5 276.0Q1754 273 1746.5 270.0Q1739 267 1728.0 264.0Q1717 261 1700 261H1691Q1687 261 1687 257Q1679 249 1669.5 247.0Q1660 245 1653 236Q1651 235 1648.0 227.5Q1645 220 1642.0 210.5Q1639 201 1637.0 192.0Q1635 183 1635 180Q1640 180 1640 173Q1640 171 1639.5 169.0Q1639 167 1639 165Q1639 163 1642 160L1646 157Q1650 153 1648.5 149.5Q1647 146 1651 144V153L1653 152L1676 80L1707 47L1725 36L1744 43Q1751 43 1760.5 40.0Q1770 37 1778 37Q1792 37 1811.0 42.0Q1830 47 1848.0 54.5Q1866 62 1880.5 69.5Q1895 77 1900 81Q1899 88 1897.0 88.0Q1895 88 1895 90Q1895 93 1896.0 94.5Q1897 96 1897 99Q1897 102 1892.0 106.0Q1887 110 1883 110L1825 105H1822Q1817 105 1806.5 104.5Q1796 104 1791 104Q1776 104 1764.0 112.0Q1752 120 1743.5 133.5Q1735 147 1730.5 163.5Q1726 180 1726 198Q1726 201 1730.0 204.0Q1734 207 1739.0 208.5Q1744 210 1749.0 211.0Q1754 212 1757 212L1761 213Q1768 218 1770.0 220.0Q1772 222 1777 222H1781L1793 221L1810 227Q1812 228 1817 228H1828Q1844 234 1859.0 241.0Q1874 248 1885.5 260.5Q1897 273 1904.0 292.5Q1911 312 1911 342Q1911 351 1910.0 359.5Q1909 368 1906 378L1905 380Q1903 382 1898.0 389.0Q1893 396 1891 397L1887 408L1882 412L1843 463Q1830 465 1818.5 469.5Q1807 474 1795 474Q1793 474 1787 472Q1779 474 1772.0 474.0Q1765 474 1758 474Q1748 474 1723.0 472.0Q1698 470 1670.5 466.5Q1643 463 1617.5 459.5Q1592 456 1580 453Q1580 450 1582.5 449.5Q1585 449 1585 445Q1585 444 1584 444H1583Q1581 444 1580 441Q1582 441 1586.5 440.0Q1591 439 1591 437L1588 430L1590 427Q1591 425 1592.0 424.0Q1593 423 1593 422Q1593 417 1591.0 418.0Q1589 419 1589 411ZM1659 114Q1659 116 1656.5 126.5Q1654 137 1653 139Q1650 139 1650 136Q1650 135 1653.0 125.5Q1656 116 1659 114ZM1666 88Q1666 89 1667 89H1670L1661 104Q1659 104 1659 101Q1659 99 1661.5 94.5Q1664 90 1666 88ZM2068 347Q2074 347 2077.5 344.0Q2081 341 2083.0 338.0Q2085 335 2087.5 332.0Q2090 329 2094 329Q2107 329 2118.5 318.5Q2130 308 2130 269V250Q2130 245 2126.0 241.0Q2122 237 2120 237Q2119 238 2113.0 241.0Q2107 244 2100.0 248.5Q2093 253 2086.0 258.0Q2079 263 2075 268V278Q2073 294 2067.0 313.0Q2061 332 2061 349H2067ZM2211 318 2198 333 2192 337Q2181 342 2171.0 347.5Q2161 353 2151 356L2147 360H2142Q2136 360 2134.5 364.0Q2133 368 2127 369Q2116 371 2113.0 373.0Q2110 375 2110 376Q2111 378 2111 378Q2111 379 2107.5 380.0Q2104 381 2100.0 381.5Q2096 382 2093.0 382.5Q2090 383 2091 383H2086Q2083 386 2070.0 387.0Q2057 388 2049 393L2055 417Q2060 419 2068.5 421.0Q2077 423 2086.0 424.0Q2095 425 2103.0 425.5Q2111 426 2115 426Q2129 426 2142.5 424.5Q2156 423 2171 423Q2185 423 2198.0 425.5Q2211 428 2223 436V443Q2223 448 2222.5 454.5Q2222 461 2219 463L2215 465Q2214 466 2207.0 467.5Q2200 469 2191.0 471.0Q2182 473 2172.5 474.5Q2163 476 2158 476Q2138 476 2118.5 476.5Q2099 477 2079 477Q2064 477 2046.5 472.0Q2029 467 2013.5 458.0Q1998 449 1986.5 436.0Q1975 423 1972 407L1975 400Q1975 398 1976.0 392.0Q1977 386 1978 378V369H1985L1986 368Q1986 362 1987 361Q1987 360 1985.5 358.5Q1984 357 1984 355Q1984 354 1987 352L1988 339Q1988 335 1988.5 330.0Q1989 325 1993 317L1996 315Q1996 311 1992 307Q1995 306 1996.0 301.0Q1997 296 1999 296Q2000 296 2000.0 296.5Q2000 297 2001 297L2005 300Q2006 299 2006 299H2009Q2012 299 2012 297Q2012 292 2007.5 288.5Q2003 285 2003 280Q2003 278 2004 277Q2004 275 2003.0 274.0Q2002 273 2002 272L2005 271Q2011 256 2018.5 248.0Q2026 240 2035 232L2040 229Q2054 220 2067.5 209.0Q2081 198 2098 198Q2115 198 2134.5 201.5Q2154 205 2172 205Q2196 217 2199.5 219.5Q2203 222 2205 222L2204 232L2212 238L2215 244L2208 253L2214 261L2208 270Q2206 272 2206.0 275.0Q2206 278 2206 280L2207 281L2208 286L2206 297L2213 300V306L2209 309L2211 312ZM2213 277H2215Q2217 277 2217 280Q2217 284 2213 284Q2211 284 2211 280Q2211 277 2213 277ZM2217 291Q2217 295 2215 295Q2213 295 2213 291Q2213 289 2214 289Q2215 289 2217 291ZM2408 427Q2426 432 2426 434L2425 443Q2425 454 2429 462Q2431 466 2433 467Q2433 469 2424.5 469.5Q2416 470 2404.5 471.0Q2393 472 2381.5 472.5Q2370 473 2363 473H2356Q2334 473 2319.0 466.0Q2304 459 2295 442L2291 440L2289 427Q2287 419 2285.0 412.0Q2283 405 2283 397Q2284 391 2288.0 386.5Q2292 382 2295.5 378.5Q2299 375 2301.0 373.0Q2303 371 2300 371Q2300 366 2306.0 358.0Q2312 350 2321.0 342.0Q2330 334 2339.5 326.5Q2349 319 2355 315L2363 317Q2365 317 2373.5 314.5Q2382 312 2387 310L2401 300Q2408 299 2408 293L2447 275Q2448 273 2450.5 270.5Q2453 268 2453 267L2445 235Q2445 233 2442 233Q2441 233 2441.0 233.5Q2441 234 2440 234H2438Q2433 234 2420.5 236.0Q2408 238 2395.0 241.0Q2382 244 2371.5 246.0Q2361 248 2361 248Q2360 249 2358 249Q2352 249 2345.5 243.0Q2339 237 2334 232L2324 228L2319 224Q2319 222 2318.0 220.5Q2317 219 2316 217L2314 213Q2314 208 2330.5 204.0Q2347 200 2372.0 197.0Q2397 194 2425.5 192.5Q2454 191 2478 191H2481Q2495 191 2504.0 195.5Q2513 200 2519.0 206.5Q2525 213 2529.0 220.5Q2533 228 2538 234V251Q2538 262 2538.5 268.5Q2539 275 2539 281Q2539 287 2538.0 293.5Q2537 300 2534 311Q2534 316 2536.0 319.5Q2538 323 2538 327V328L2539 335L2531 344L2537 351L2530 360Q2530 362 2528.5 365.0Q2527 368 2527 370L2528 371L2526 387L2534 389L2533 395L2527 398L2529 402L2528 409Q2523 418 2521.0 435.0Q2519 452 2518 460Q2517 462 2510.5 462.5Q2504 463 2496.5 463.5Q2489 464 2482.5 464.0Q2476 464 2476 464Q2467 464 2460.5 459.0Q2454 454 2450.5 446.5Q2447 439 2445.5 430.5Q2444 422 2444 415Q2444 398 2449.5 387.5Q2455 377 2455 358Q2453 350 2454.5 341.5Q2456 333 2447 333Q2445 335 2442.5 337.5Q2440 340 2438 341Q2437 340 2433 340Q2431 340 2424.0 343.0Q2417 346 2409.0 350.0Q2401 354 2394.5 358.0Q2388 362 2387 364Q2376 371 2365.5 376.0Q2355 381 2348 388L2346 403Q2346 404 2345.0 407.5Q2344 411 2344 414L2345 415L2349 412L2352 417Q2359 418 2366.0 417.5Q2373 417 2376 419Q2377 419 2377.5 418.5Q2378 418 2379 418Q2384 418 2391.5 423.0Q2399 428 2405 428Q2407 428 2408 427ZM2814 289Q2814 288 2815.0 282.0Q2816 276 2817.5 269.0Q2819 262 2820.0 255.5Q2821 249 2821 247L2824 235Q2824 232 2828.0 227.0Q2832 222 2832 220L2837 223Q2837 222 2836.5 221.0Q2836 220 2836 218Q2836 214 2836.5 211.0Q2837 208 2837 206L2840 198Q2840 197 2839.5 195.5Q2839 194 2839 192Q2839 188 2839.5 184.5Q2840 181 2840 179Q2835 179 2834 180L2832 181Q2832 177 2833.5 165.5Q2835 154 2838.0 139.5Q2841 125 2845.5 108.0Q2850 91 2856 74Q2859 71 2861.0 63.5Q2863 56 2867.0 48.5Q2871 41 2878.0 35.5Q2885 30 2898 30Q2900 30 2910.0 33.0Q2920 36 2935 36Q2946 36 2952.5 38.5Q2959 41 2959 52Q2959 58 2958 61L2952 109Q2967 99 2976.0 93.0Q2985 87 3002 81L3027 70Q3029 71 3030.0 73.0Q3031 75 3036 76L3044 79Q3070 90 3090.5 109.5Q3111 129 3123 158Q3126 163 3125.5 168.0Q3125 173 3127 179L3128 181Q3132 185 3132.5 193.0Q3133 201 3139 211L3141 214Q3147 214 3147 219Q3147 224 3146 225L3151 223Q3151 226 3151.5 226.5Q3152 227 3152 231Q3152 233 3151.0 235.0Q3150 237 3150 238V241L3153 240Q3157 243 3158.5 253.5Q3160 264 3162 269Q3160 269 3160 272V275H3163Q3161 282 3154.5 289.5Q3148 297 3147 304V305Q3147 307 3145.5 306.5Q3144 306 3142 307Q3135 313 3127.5 321.0Q3120 329 3114.0 336.5Q3108 344 3103.5 350.5Q3099 357 3099 358Q3091 365 3081.5 377.5Q3072 390 3064.0 402.0Q3056 414 3051.0 422.5Q3046 431 3046 431L3043 430Q3041 432 3037.0 436.5Q3033 441 3028.5 446.0Q3024 451 3019.0 455.0Q3014 459 3011 460Q3009 461 3004.5 461.0Q3000 461 3000 464Q3000 466 3001 467H2992L2987 463Q2985 465 2984.5 464.0Q2984 463 2984 465Q2979 465 2973.5 462.5Q2968 460 2963 460Q2941 459 2923.5 457.5Q2906 456 2886 456H2874Q2874 460 2865 460L2862 459Q2860 459 2860 462V464H2849L2846 466Q2844 458 2841 456Q2839 459 2836 459H2827L2824 455Q2823 455 2823.0 455.5Q2823 456 2822 456H2820Q2809 452 2805.0 443.5Q2801 435 2801 437L2800 431V430Q2800 428 2801.0 425.0Q2802 422 2802 419Q2802 415 2801.0 414.5Q2800 414 2800 412Q2800 411 2800.5 409.5Q2801 408 2802.0 402.0Q2803 396 2804.0 384.0Q2805 372 2806 351L2807 341Q2809 331 2809 331Q2809 327 2807 327Q2813 319 2813.0 309.0Q2813 299 2814 289ZM2904 400Q2905 400 2905.0 402.0Q2905 404 2905 405Q2913 405 2920.0 406.5Q2927 408 2935 408Q2941 408 2949 405H2983Q2984 405 2990.5 397.5Q2997 390 3005.0 379.5Q3013 369 3021.5 357.5Q3030 346 3037 338L3057 314Q3063 307 3064.0 303.5Q3065 300 3073 286L3079 277L3070 264Q3068 261 3062.5 244.0Q3057 227 3049.5 206.5Q3042 186 3033.5 168.0Q3025 150 3016 144H3014Q3012 144 3010.0 137.5Q3008 131 3006 131Q3004 131 3003.0 132.0Q3002 133 3000 135Q2976 153 2961.5 158.0Q2947 163 2942 171Q2933 186 2930.0 203.0Q2927 220 2921 238Q2921 240 2920.0 241.0Q2919 242 2919 243L2921 246L2915 253Q2915 255 2917 257V258Q2917 262 2915.5 263.5Q2914 265 2914 267Q2914 272 2918.0 277.0Q2922 282 2922 287L2923 288L2919 290Q2921 292 2921 295V297L2918 299L2920 306Q2920 307 2918.5 309.0Q2917 311 2917 313L2915 311Q2913 313 2913 315Q2914 318 2916 318L2914 328L2912 330V334L2915 339Q2911 340 2911 345L2913 351Q2913 356 2908.5 361.5Q2904 367 2904 372H2906Q2904 374 2903.5 377.0Q2903 380 2903 383Q2903 393 2904 396ZM2859 195 2855 202Q2855 206 2852.5 212.5Q2850 219 2850 222V238H2855L2859 230Q2859 226 2861.0 220.5Q2863 215 2863 211V195ZM2825 267Q2824 268 2824 269V283L2829 279V260ZM2832 235Q2830 237 2829.5 241.5Q2829 246 2829 247V252L2833 247L2837 235ZM2851 165Q2851 163 2849 163Q2847 163 2847 165Q2847 170 2850 170Q2851 170 2851 167ZM3209 352Q3209 350 3210.0 348.5Q3211 347 3212 345L3215 342Q3215 328 3224.5 307.0Q3234 286 3246 278L3254 274Q3256 273 3256.0 269.5Q3256 266 3257 264L3261 259Q3269 248 3279.0 236.5Q3289 225 3298.5 216.0Q3308 207 3316.0 201.5Q3324 196 3330 196Q3332 196 3333.5 197.0Q3335 198 3342 200L3353 214Q3357 215 3360 222L3363 229V245L3366 249Q3368 251 3369.0 252.5Q3370 254 3372 255L3384 263Q3385 267 3390.0 273.0Q3395 279 3400 285L3414 301Q3416 304 3418.0 312.0Q3420 320 3421.5 329.0Q3423 338 3424.0 345.5Q3425 353 3425 356V364L3416 385L3415 393L3405 404L3390 416Q3385 419 3377.0 419.0Q3369 419 3363 424L3355 427Q3349 431 3345 431Q3344 431 3343.5 430.5Q3343 430 3342 430L3330 432Q3326 435 3313 435Q3306 435 3302 434L3279 428L3256 420Q3242 416 3234.5 413.0Q3227 410 3218 393Q3216 388 3214.0 383.0Q3212 378 3210 375L3206 359ZM3291 386 3296 387Q3304 385 3315.0 383.5Q3326 382 3331 379L3341 372L3349 363L3352 354L3340 308L3323 301L3320 303Q3318 304 3314.0 310.5Q3310 317 3305.5 326.0Q3301 335 3296.5 345.0Q3292 355 3290 362ZM3254 298Q3249 303 3242.0 316.0Q3235 329 3235 339Q3235 343 3236 345L3238 340L3254 311Q3258 305 3259 302ZM3478 427 3483 423H3478V418Q3478 417 3480 415L3483 419L3500 400Q3499 398 3499.0 397.0Q3499 396 3496 394Q3493 397 3492.0 397.5Q3491 398 3482 398Q3481 396 3481 393Q3481 385 3484.5 380.0Q3488 375 3488 370H3486Q3484 370 3481 366Q3479 366 3477.5 367.5Q3476 369 3475 369Q3476 365 3480.5 357.5Q3485 350 3485 347L3481 334Q3481 331 3481.5 327.0Q3482 323 3482 318Q3482 313 3481.5 308.0Q3481 303 3481 297L3483 293Q3483 279 3481.0 278.5Q3479 278 3479 273Q3479 272 3483 268Q3481 266 3481 265Q3481 263 3483.5 260.0Q3486 257 3486 253L3483 252Q3486 244 3487.0 232.0Q3488 220 3489.0 207.5Q3490 195 3490.5 184.5Q3491 174 3493 168Q3493 143 3498.5 127.5Q3504 112 3504 92Q3504 82 3505.0 68.0Q3506 54 3507.5 41.5Q3509 29 3510.0 20.0Q3511 11 3511 9H3518L3535 0H3546Q3551 0 3554.5 5.0Q3558 10 3564 15L3580 30L3586 36Q3586 38 3585.5 40.5Q3585 43 3585 45L3582 63Q3582 70 3584.5 87.5Q3587 105 3587 112Q3586 114 3586 114L3587 140Q3587 142 3585.0 144.0Q3583 146 3583 151Q3584 153 3584 155Q3584 159 3581.0 159.0Q3578 159 3578 161L3579 162H3583Q3583 164 3581.5 167.0Q3580 170 3580 172Q3584 174 3585.0 183.0Q3586 192 3586 202L3588 203Q3587 205 3586.0 205.5Q3585 206 3585 208Q3585 210 3587 212Q3587 217 3584.0 217.5Q3581 218 3581 226Q3581 229 3587 229Q3581 235 3581 234Q3581 236 3585 237L3588 247Q3582 255 3582 261V263Q3587 261 3591.5 256.0Q3596 251 3600 248L3620 237L3618 236Q3623 236 3629.5 232.5Q3636 229 3642.0 225.5Q3648 222 3652.5 218.5Q3657 215 3658 215Q3658 213 3657.5 212.0Q3657 211 3657 210L3660 207L3704 171L3713 162Q3715 161 3720.5 155.5Q3726 150 3728 148L3730 146H3726L3738 134Q3737 133 3737 132Q3737 128 3741.0 124.0Q3745 120 3748 120Q3749 120 3749.5 121.5Q3750 123 3752 123L3757 122Q3758 122 3760.5 124.5Q3763 127 3765 127Q3767 127 3768.0 126.5Q3769 126 3771 126Q3774 126 3778.0 130.0Q3782 134 3785.5 139.5Q3789 145 3791.5 151.0Q3794 157 3794 161L3791 169L3785 175Q3776 184 3766.0 191.0Q3756 198 3748 206L3710 247L3702 253Q3707 261 3712.5 275.0Q3718 289 3718 291L3726 320Q3730 335 3741.5 351.5Q3753 368 3763 387L3760 402L3771 410L3781 423L3778 434L3788 439L3785 451Q3785 453 3786.0 457.0Q3787 461 3789 462L3791 466Q3796 484 3805.5 508.0Q3815 532 3824.5 554.0Q3834 576 3840.5 590.5Q3847 605 3847 605V595Q3845 593 3845.0 584.0Q3845 575 3843 573L3848 571Q3851 584 3853.0 591.0Q3855 598 3856.0 602.5Q3857 607 3857.5 609.5Q3858 612 3858 615Q3858 619 3857 621L3852 631L3841 637L3831 647L3819 645L3812 648L3809 656Q3805 657 3801.0 656.5Q3797 656 3792 657L3790 653Q3788 647 3782.0 633.5Q3776 620 3769.0 605.0Q3762 590 3755.5 576.5Q3749 563 3746 557L3735 547L3730 533L3725 531L3718 515Q3710 501 3707.5 493.5Q3705 486 3705 482Q3705 479 3708 477L3702 465L3698 453Q3678 404 3664.5 383.0Q3651 362 3649 360V358H3654V355Q3654 353 3651.5 347.5Q3649 342 3649 341V339Q3649 337 3650.0 336.5Q3651 336 3651 334H3649L3643 325Q3641 324 3639.0 316.0Q3637 308 3635 306L3632 299Q3622 309 3610.5 313.5Q3599 318 3590 327L3572 334V418L3575 419Q3573 425 3573 429Q3573 433 3575 433L3573 438Q3572 440 3572 443Q3572 448 3574.0 452.0Q3576 456 3576 461V466L3574 468L3578 473Q3577 474 3576.5 475.0Q3576 476 3574 477V475Q3568 477 3567 478L3577 480Q3571 486 3566 486Q3562 483 3561.5 482.0Q3561 481 3556 481Q3545 481 3533.0 484.0Q3521 487 3514 489Q3494 486 3487.5 478.5Q3481 471 3481 463Q3481 459 3482 457V456Q3482 452 3485.0 451.5Q3488 451 3488 443Q3488 440 3477 440ZM3819 493 3816 499 3807 488Q3807 488 3804 480L3809 483ZM3496 388Q3501 388 3501.0 384.0Q3501 380 3504 367Q3502 367 3500.0 370.0Q3498 373 3498 375Q3498 376 3498.5 376.0Q3499 376 3499 377Q3499 379 3497.0 381.0Q3495 383 3495 386Q3495 387 3496 388ZM3840 542 3842 547 3839 552 3833 550 3836 544ZM3793 456Q3795 455 3795 455Q3799 455 3799 459Q3799 462 3796 462Q3792 462 3792 458Q3792 457 3793 456ZM3831 532H3833Q3835 532 3835 533Q3835 535 3833.0 536.0Q3831 537 3829 537Q3827 537 3827 536Q3827 534 3831 532ZM3801 468Q3802 470 3802 470V471V472Q3798 472 3798 467H3799Q3800 467 3801 468ZM3823 512 3825 515 3817 513ZM3485 360H3483L3482 361Q3482 362 3486 364ZM3488 384V379Q3487 379 3486 382ZM4083 458Q4069 464 4049.0 468.0Q4029 472 4013 472Q4004 472 3988.5 470.0Q3973 468 3957.5 463.0Q3942 458 3930.5 451.0Q3919 444 3919 433Q3919 429 3918.5 424.5Q3918 420 3918 416Q3920 388 3921.5 374.0Q3923 360 3925.5 352.0Q3928 344 3931.5 337.5Q3935 331 3941 317Q3941 316 3943.5 314.5Q3946 313 3948 311L3955 308H3960Q3960 312 3958.5 313.5Q3957 315 3957 318V320Q3961 318 3963.5 314.0Q3966 310 3969 306L4015 267H3999Q4003 263 4012.0 259.0Q4021 255 4031.5 250.5Q4042 246 4051.0 242.0Q4060 238 4063 235Q4077 224 4089.5 220.0Q4102 216 4115 204Q4118 186 4121.0 165.0Q4124 144 4128.0 122.5Q4132 101 4137.5 80.5Q4143 60 4149 42Q4151 39 4156.0 38.5Q4161 38 4164 38Q4166 38 4168.0 39.0Q4170 40 4172 40L4181 38H4183Q4190 38 4200.0 42.0Q4210 46 4219.0 51.5Q4228 57 4234.5 63.0Q4241 69 4241 73Q4241 77 4238 79L4241 81Q4240 81 4236.5 84.0Q4233 87 4229.0 91.5Q4225 96 4222.0 100.5Q4219 105 4219 108Q4219 115 4216.0 127.0Q4213 139 4209.5 151.5Q4206 164 4203.0 174.0Q4200 184 4200 187L4203 192Q4203 199 4199.5 207.5Q4196 216 4196 224Q4196 226 4194.5 229.0Q4193 232 4191.0 240.0Q4189 248 4185.5 262.5Q4182 277 4178 303Q4174 308 4174.5 321.5Q4175 335 4173 342L4171 349Q4171 351 4172.0 356.5Q4173 362 4173 367Q4170 367 4168.0 370.5Q4166 374 4166 378V384L4170 372Q4171 376 4172.0 381.0Q4173 386 4173 388L4171 395V403Q4171 405 4170.5 406.0Q4170 407 4170 408V410H4166V421H4171L4173 426L4171 438L4173 440Q4173 441 4174.0 445.5Q4175 450 4175 452L4173 454V462L4154 471L4110 478Q4101 478 4094.5 468.0Q4088 458 4085 458ZM3991 412Q3997 415 4008.0 416.5Q4019 418 4030.5 418.5Q4042 419 4052.5 420.0Q4063 421 4070 423Q4071 423 4075.5 425.5Q4080 428 4082 428Q4083 428 4083 423V414Q4083 411 4085.0 399.5Q4087 388 4087 370V362H4086Q4086 359 4087.0 357.0Q4088 355 4088 351V322L4091 318V292Q4088 292 4076.0 297.0Q4064 302 4050.5 308.5Q4037 315 4026.0 320.5Q4015 326 4014 327Q4001 344 3997.0 356.5Q3993 369 3991 378V383Q3991 385 3991.5 387.0Q3992 389 3992 390L3994 398Q3994 399 3992.5 404.5Q3991 410 3991 412ZM3987 277Q3987 279 3981.0 285.5Q3975 292 3973 294V291Q3973 285 3977.5 281.0Q3982 277 3987 277ZM3969 293Q3969 295 3967.0 300.0Q3965 305 3961 305V297L3968 288ZM3996 266Q3997 266 3997 268Q3997 271 3995.0 275.0Q3993 279 3990 279Q3989 279 3989 278Q3989 276 3991.5 271.0Q3994 266 3996 266ZM4295 352Q4295 350 4296.0 348.5Q4297 347 4298 345L4301 342Q4301 328 4310.5 307.0Q4320 286 4332 278L4340 274Q4342 273 4342.0 269.5Q4342 266 4343 264L4347 259Q4355 248 4365.0 236.5Q4375 225 4384.5 216.0Q4394 207 4402.0 201.5Q4410 196 4416 196Q4418 196 4419.5 197.0Q4421 198 4428 200L4439 214Q4443 215 4446 222L4449 229V245L4452 249Q4454 251 4455.0 252.5Q4456 254 4458 255L4470 263Q4471 267 4476.0 273.0Q4481 279 4486 285L4500 301Q4502 304 4504.0 312.0Q4506 320 4507.5 329.0Q4509 338 4510.0 345.5Q4511 353 4511 356V364L4502 385L4501 393L4491 404L4476 416Q4471 419 4463.0 419.0Q4455 419 4449 424L4441 427Q4435 431 4431 431Q4430 431 4429.5 430.5Q4429 430 4428 430L4416 432Q4412 435 4399 435Q4392 435 4388 434L4365 428L4342 420Q4328 416 4320.5 413.0Q4313 410 4304 393Q4302 388 4300.0 383.0Q4298 378 4296 375L4292 359ZM4377 386 4382 387Q4390 385 4401.0 383.5Q4412 382 4417 379L4427 372L4435 363L4438 354L4426 308L4409 301L4406 303Q4404 304 4400.0 310.5Q4396 317 4391.5 326.0Q4387 335 4382.5 345.0Q4378 355 4376 362ZM4340 298Q4335 303 4328.0 316.0Q4321 329 4321 339Q4321 343 4322 345L4324 340L4340 311Q4344 305 4345 302Z" /></svg>