<svg viewBox="0 0 3297 1149" xmlns="http://www.w3.org/2000/svg"><path d="M348 949H75V229H338V282H137L141 307V506L137 531H324V588H137L141 613V867L137 892H348ZM435 681V617Q435 544 438.5 525.0Q442 506 446.5 484.0Q451 462 457.5 453.5Q464 445 473.5 433.0Q483 421 497 417Q531 405 566 405L649 418Q649 462 613 462Q606 462 599 461L566 458Q515 458 504.0 500.5Q493 543 493.0 647.0Q493 751 494.0 782.0Q495 813 502.0 847.5Q509 882 524.0 892.5Q539 903 566 903L653 893V939L566 956Q512 956 494.0 943.0Q476 930 467.0 921.5Q458 913 451.5 891.0Q445 869 442.0 854.0Q439 839 437 805Q435 747 435 681ZM806 421Q829 405 868.5 405.0Q908 405 925.5 408.5Q943 412 957.0 416.0Q971 420 981.0 432.5Q991 445 998.0 453.5Q1005 462 1009.0 483.5Q1013 505 1015.5 518.5Q1018 532 1019.5 564.0Q1021 596 1021 616V678Q1021 678 1021 682Q1021 682 1021 743Q1021 811 1017.0 832.5Q1013 854 1009.0 876.0Q1005 898 998.0 906.5Q991 915 981.0 927.5Q971 940 957.0 944.5Q943 949 925.5 952.5Q908 956 883.5 956.0Q859 956 839.5 953.0Q820 950 805.5 940.0Q791 930 781.5 921.5Q772 913 765.5 891.0Q759 869 755.5 854.0Q752 839 750.5 804.5Q749 770 748.5 748.0Q748 726 748.0 678.0Q748 630 748.5 608.5Q749 587 750.5 552.5Q752 518 755.5 503.5Q759 489 765.5 467.5Q772 446 781.5 438.0Q791 430 806 421ZM962 701V667Q962 536 951 502Q935 459 885 458Q844 458 830 479Q822 493 817.0 505.0Q812 517 810 547Q807 591 807.0 632.0Q807 673 807.0 714.5Q807 756 808.0 786.0Q809 816 816.5 849.5Q824 883 840.0 893.0Q856 903 880.0 903.0Q904 903 917.0 898.5Q930 894 938.5 881.5Q947 869 951.5 856.5Q956 844 958 817Q962 778 962 701ZM1348 903V682Q1348 529 1339.0 493.5Q1330 458 1285 458L1187 493L1191 518V949Q1147 949 1139.5 943.0Q1132 937 1132 903V412Q1176 412 1183.5 415.5Q1191 419 1191 442L1281 405Q1371 405 1389.0 451.0Q1407 497 1407 683V949Q1363 949 1355.5 943.0Q1348 937 1348 903ZM1570 421Q1593 405 1632.5 405.0Q1672 405 1689.5 408.5Q1707 412 1721.0 416.0Q1735 420 1745.0 432.5Q1755 445 1762.0 453.5Q1769 462 1773.0 483.5Q1777 505 1779.5 518.5Q1782 532 1783.5 564.0Q1785 596 1785 616V678Q1785 678 1785 682Q1785 682 1785 743Q1785 811 1781.0 832.5Q1777 854 1773.0 876.0Q1769 898 1762.0 906.5Q1755 915 1745.0 927.5Q1735 940 1721.0 944.5Q1707 949 1689.5 952.5Q1672 956 1647.5 956.0Q1623 956 1603.5 953.0Q1584 950 1569.5 940.0Q1555 930 1545.5 921.5Q1536 913 1529.5 891.0Q1523 869 1519.5 854.0Q1516 839 1514.5 804.5Q1513 770 1512.5 748.0Q1512 726 1512.0 678.0Q1512 630 1512.5 608.5Q1513 587 1514.5 552.5Q1516 518 1519.5 503.5Q1523 489 1529.5 467.5Q1536 446 1545.5 438.0Q1555 430 1570 421ZM1726 701V667Q1726 536 1715 502Q1699 459 1649 458Q1608 458 1594 479Q1586 493 1581.0 505.0Q1576 517 1574 547Q1571 591 1571.0 632.0Q1571 673 1571.0 714.5Q1571 756 1572.0 786.0Q1573 816 1580.5 849.5Q1588 883 1604.0 893.0Q1620 903 1644.0 903.0Q1668 903 1681.0 898.5Q1694 894 1702.5 881.5Q1711 869 1715.5 856.5Q1720 844 1722 817Q1726 778 1726 701ZM2324 903V682Q2324 682 2324 674Q2324 526 2315.0 492.0Q2306 458 2258 458L2165 489L2169 514V949Q2126 949 2118.5 943.0Q2111 937 2111 903L2110 682Q2110 678 2110.0 654.5Q2110 631 2110.0 614.0Q2110 597 2109.5 581.5Q2109 566 2107.5 540.0Q2106 514 2102.0 503.0Q2098 492 2091 479Q2079 458 2045 458L1951 493L1955 518V949Q1911 949 1903.5 943.0Q1896 937 1896 903V412Q1940 412 1947.5 415.5Q1955 419 1955 442L2045 405Q2117 405 2151 447L2258 405Q2349 405 2366.5 447.5Q2384 490 2384 683V949Q2339 949 2331.5 943.0Q2324 937 2324 903ZM2573.5 306.5Q2560 320 2541.0 320.0Q2522 320 2508.5 306.5Q2495 293 2495.0 273.5Q2495 254 2508.5 241.5Q2522 229 2541.0 229.0Q2560 229 2573.5 242.0Q2587 255 2587.0 274.0Q2587 293 2573.5 306.5ZM2512 907V412Q2556 412 2563.5 417.5Q2571 423 2571 458V953Q2527 953 2519.5 947.0Q2512 941 2512 907ZM2692 681V617Q2692 544 2695.5 525.0Q2699 506 2703.5 484.0Q2708 462 2714.5 453.5Q2721 445 2730.5 433.0Q2740 421 2754 417Q2788 405 2823 405L2906 418Q2906 462 2870 462Q2863 462 2856 461L2823 458Q2772 458 2761.0 500.5Q2750 543 2750.0 647.0Q2750 751 2751.0 782.0Q2752 813 2759.0 847.5Q2766 882 2781.0 892.5Q2796 903 2823 903L2910 893V939L2823 956Q2769 956 2751.0 943.0Q2733 930 2724.0 921.5Q2715 913 2708.5 891.0Q2702 869 2699.0 854.0Q2696 839 2694 805Q2692 747 2692 681ZM3185 572V516Q3185 476 3175.5 465.5Q3166 455 3130 455L3080 465Q3070 467 3065 467Q3030 467 3030 422L3130 405Q3205 405 3221 425Q3229 435 3233.5 442.0Q3238 449 3239 467Q3242 496 3242 534V949Q3197 949 3189.0 942.5Q3181 936 3181 899Q3171 905 3153 921Q3115 956 3089 956Q3028 956 3016.5 917.5Q3005 879 3005 704Q3005 637 3063 615Q3111 597 3185 597H3189ZM3181 653Q3123 653 3093.5 661.5Q3064 670 3064 696Q3064 879 3072 896Q3076 903 3090.0 903.0Q3104 903 3120.5 895.0Q3137 887 3155.5 873.5Q3174 860 3185 855L3181 830V678L3185 653Z" fill="currentColor" /></svg>