<svg viewBox="0 0 16202 2444" xmlns="http://www.w3.org/2000/svg"><path d="M718 1206Q956 1232 1066 1265Q1066 1320 1043 1346Q879 1356 691 1398Q664 1608 646 1832Q646 1845 614.0 1871.5Q582 1898 559 1898H93Q227 1413 291 602Q291 589 324.0 563.0Q357 537 380 537H844Q768 867 718 1206ZM1148 1143Q1124 992 1057.0 842.0Q990 692 922 617Q927 569 951 537H1314Q1307 634 1284.0 797.5Q1261 961 1235 1076Q1231 1093 1201.0 1118.0Q1171 1143 1148 1143ZM1102 1487Q1113 1473 1152.0 1447.0Q1191 1421 1213 1421Q1179 1718 1149 1826Q1140 1846 1113.0 1872.0Q1086 1898 1069 1898H702Q948 1733 1102 1487ZM1899 1898H1479Q1587 1441 1626 973Q1626 961 1658.0 936.5Q1690 912 1725.5 906.0Q1761 900 1899.5 889.5Q2038 879 2115 879Q2028 1322 1986 1832Q1986 1845 1954.0 1871.5Q1922 1898 1899 1898ZM2168 1898Q2272 1297 2272.0 1157.5Q2272 1018 2207 1018Q2221 964 2251 927Q2353 879 2482.5 879.0Q2612 879 2673.5 942.0Q2735 1005 2735 1133Q2735 1200 2698.0 1449.5Q2661 1699 2652 1832Q2652 1845 2620.0 1871.5Q2588 1898 2564 1898ZM2919 1900Q2860 1841 2860.0 1770.0Q2860 1699 2898.0 1444.5Q2936 1190 2936.0 1130.0Q2936 1070 2901.0 1044.0Q2866 1018 2820 1018Q2829 960 2853 927Q2890 909 2974.5 894.0Q3059 879 3127 879Q3261 879 3327.5 940.0Q3394 1001 3394 1133Q3394 1208 3358.5 1388.0Q3323 1568 3323.0 1610.0Q3323 1652 3326.5 1673.0Q3330 1694 3332.5 1705.5Q3335 1717 3346.5 1733.0Q3358 1749 3360.5 1752.5Q3363 1756 3381.0 1773.0Q3399 1790 3401 1792Q3401 1805 3371.5 1837.5Q3342 1870 3318 1881Q3189 1900 2919 1900ZM4204 1830Q4204 1844 4172.0 1871.0Q4140 1898 4116 1898H3704Q3748 1710 3805.5 1270.0Q3863 830 3885 580Q3885 567 3917.0 540.5Q3949 514 3972 514H4393Q4340 734 4283.0 1148.5Q4226 1563 4204 1830ZM4298 1890Q4410 1819 4470.5 1655.0Q4531 1491 4531.0 1298.0Q4531 1105 4423 946Q4423 931 4454.0 905.0Q4485 879 4508 879Q4641 879 4750.0 933.0Q4859 987 4925.0 1091.5Q4991 1196 4991 1333Q4991 1586 4811.0 1738.0Q4631 1890 4298 1890ZM5716 1830Q5716 1844 5684.0 1871.0Q5652 1898 5628 1898H5216Q5260 1710 5317.5 1270.0Q5375 830 5397 580Q5397 567 5429.0 540.5Q5461 514 5484 514H5905Q5852 734 5795.0 1148.5Q5738 1563 5716 1830ZM6979 904Q7115 951 7185.5 1035.5Q7256 1120 7256 1216Q7256 1347 7143.0 1438.0Q7030 1529 6835 1529Q6774 1529 6701 1509Q6807 1443 6844 1337Q6876 1245 6876 1121Q6876 1097 6871 974Q6870 961 6911.5 933.0Q6953 905 6979 904ZM6817 888Q6693 972 6620.5 1109.0Q6548 1246 6548.0 1402.0Q6548 1558 6668.0 1656.0Q6788 1754 7018 1754Q7081 1754 7153 1743Q7106 1817 6972.0 1866.5Q6838 1916 6691.0 1916.0Q6544 1916 6440.0 1886.5Q6336 1857 6254.5 1799.0Q6173 1741 6126.0 1647.5Q6079 1554 6079.0 1441.5Q6079 1329 6114.0 1238.0Q6149 1147 6210.0 1082.0Q6271 1017 6352 970Q6513 879 6723 879Q6775 879 6817 888ZM7866 1898H7446Q7554 1441 7593 973Q7593 961 7625.0 936.5Q7657 912 7692.5 906.0Q7728 900 7866.5 889.5Q8005 879 8082 879Q7995 1322 7953 1832Q7953 1845 7921.0 1871.5Q7889 1898 7866 1898ZM8135 1898Q8239 1297 8239.0 1157.5Q8239 1018 8174 1018Q8188 964 8218 927Q8320 879 8449.5 879.0Q8579 879 8640.5 942.0Q8702 1005 8702 1133Q8702 1200 8665.0 1449.5Q8628 1699 8619 1832Q8619 1845 8587.0 1871.5Q8555 1898 8531 1898ZM8886 1900Q8827 1841 8827.0 1770.0Q8827 1699 8865.0 1444.5Q8903 1190 8903.0 1130.0Q8903 1070 8868.0 1044.0Q8833 1018 8787 1018Q8796 960 8820 927Q8857 909 8941.5 894.0Q9026 879 9094 879Q9228 879 9294.5 940.0Q9361 1001 9361 1133Q9361 1208 9325.5 1388.0Q9290 1568 9290.0 1610.0Q9290 1652 9293.5 1673.0Q9297 1694 9299.5 1705.5Q9302 1717 9313.5 1733.0Q9325 1749 9327.5 1752.5Q9330 1756 9348.0 1773.0Q9366 1790 9368 1792Q9368 1805 9338.5 1837.5Q9309 1870 9285 1881Q9156 1900 8886 1900ZM10847 1858Q10652 1900 10428 1900Q10377 1831 10377.0 1755.0Q10377 1679 10422.0 1369.5Q10467 1060 10468 958Q10468 945 10501.0 919.0Q10534 893 10556 893Q10770 893 10959 950Q10955 982 10906.0 1204.5Q10857 1427 10857.0 1561.5Q10857 1696 10929 1768Q10929 1782 10901.0 1814.5Q10873 1847 10847 1858ZM10384 879Q10265 967 10203.5 1118.0Q10142 1269 10142.0 1414.5Q10142 1560 10174.5 1675.5Q10207 1791 10262 1830Q10262 1845 10230.0 1871.5Q10198 1898 10175 1898Q9946 1898 9807.5 1783.0Q9669 1668 9669 1469Q9669 1222 9856 1054Q9946 973 10082.5 926.0Q10219 879 10384 879ZM12456 1918Q12602 1796 12673.5 1562.0Q12745 1328 12745.0 1069.5Q12745 811 12692 602Q12692 588 12724.5 561.5Q12757 535 12780 535Q12925 563 13027 656Q13221 833 13221 1147Q13221 1386 13101 1578Q12968 1793 12735 1874Q12607 1918 12456 1918ZM12655 511Q12508 634 12436.0 867.0Q12364 1100 12364.0 1360.0Q12364 1620 12419 1826Q12419 1840 12386.5 1867.0Q12354 1894 12330 1894Q12110 1850 11997 1674Q11889 1505 11889 1283Q11889 1044 12009 850Q12141 637 12375 556Q12503 511 12655 511ZM13817 1898H13397Q13501 1460 13541 973Q13541 961 13573.0 936.5Q13605 912 13640.5 906.0Q13676 900 13814.5 889.5Q13953 879 14029 879Q13948 1298 13904 1832Q13904 1845 13872.0 1871.5Q13840 1898 13817 1898ZM14178 1908Q14120 1852 14120.0 1764.0Q14120 1676 14164.5 1428.0Q14209 1180 14209.0 1122.5Q14209 1065 14181.5 1039.5Q14154 1014 14110 1014Q14119 954 14144 924Q14181 906 14260.5 891.0Q14340 876 14408 876Q14541 876 14607.5 937.0Q14674 998 14674 1130Q14674 1204 14642.0 1390.0Q14610 1576 14610.0 1618.0Q14610 1660 14613.5 1681.0Q14617 1702 14619.5 1714.0Q14622 1726 14633.0 1741.5Q14644 1757 14647.0 1760.5Q14650 1764 14667.0 1780.5Q14684 1797 14687 1800Q14687 1814 14658.0 1846.5Q14629 1879 14605 1889Q14477 1908 14178 1908ZM15850 904Q15986 951 16056.5 1035.5Q16127 1120 16127 1216Q16127 1347 16014.0 1438.0Q15901 1529 15706 1529Q15645 1529 15572 1509Q15678 1443 15715 1337Q15747 1245 15747 1121Q15747 1097 15742 974Q15741 961 15782.5 933.0Q15824 905 15850 904ZM15688 888Q15564 972 15491.5 1109.0Q15419 1246 15419.0 1402.0Q15419 1558 15539.0 1656.0Q15659 1754 15889 1754Q15952 1754 16024 1743Q15977 1817 15843.0 1866.5Q15709 1916 15562.0 1916.0Q15415 1916 15311.0 1886.5Q15207 1857 15125.5 1799.0Q15044 1741 14997.0 1647.5Q14950 1554 14950.0 1441.5Q14950 1329 14985.0 1238.0Q15020 1147 15081.0 1082.0Q15142 1017 15223 970Q15384 879 15594 879Q15646 879 15688 888Z" fill="currentColor" /></svg>