<svg viewBox="0 0 24223 2500" xmlns="http://www.w3.org/2000/svg"><path d="M314 1925H1026V2060H157V580H1016V715H314V1233H921V1368H314ZM1218 975H1349L1361 1096H1371Q1430 1030 1511.0 994.5Q1592 959 1685 959Q1835 959 1920.5 1044.5Q2006 1130 2006 1323V2060H1850V1331Q1850 1205 1797.5 1151.5Q1745 1098 1647 1098Q1572 1098 1497.0 1133.5Q1422 1169 1374 1245V2060H1218ZM2219 1518Q2219 1224 2343.0 1091.5Q2467 959 2713 959Q2824 959 2916 983V1116Q2821 1092 2732 1092Q2609 1092 2533.0 1132.0Q2457 1172 2419.5 1264.0Q2382 1356 2382 1514Q2382 1674 2417.0 1769.0Q2452 1864 2520.0 1905.0Q2588 1946 2695 1946Q2792 1946 2916 1905V2037Q2796 2079 2672 2079Q2447 2079 2333.0 1945.0Q2219 1811 2219 1518ZM3019 1519Q3019 1230 3132.0 1094.5Q3245 959 3453 959Q3660 959 3773.0 1095.0Q3886 1231 3886 1518Q3886 1805 3772.5 1942.0Q3659 2079 3453 2079Q3247 2079 3133.0 1942.5Q3019 1806 3019 1519ZM3727 1521Q3727 1358 3694.5 1262.0Q3662 1166 3602.0 1126.0Q3542 1086 3453 1086Q3364 1086 3304.0 1126.0Q3244 1166 3211.5 1260.5Q3179 1355 3179 1515Q3179 1678 3211.5 1774.5Q3244 1871 3304.0 1911.5Q3364 1952 3453 1952Q3541 1952 3601.5 1911.5Q3662 1871 3694.5 1776.0Q3727 1681 3727 1521ZM4060 1540Q4060 1247 4191.5 1102.5Q4323 958 4578 958Q4645 958 4729 969V444H4885V2060H4752L4741 1948H4731Q4686 2007 4616.0 2043.0Q4546 2079 4459 2079Q4280 2079 4170.0 1951.0Q4060 1823 4060 1540ZM4729 1813V1101Q4696 1095 4654.0 1090.5Q4612 1086 4575 1086Q4396 1086 4308.0 1190.0Q4220 1294 4220 1526Q4220 1686 4254.5 1778.0Q4289 1870 4348.5 1907.0Q4408 1944 4493 1944Q4563 1944 4627.0 1910.5Q4691 1877 4729 1813ZM5912 1570H5267Q5270 1712 5307.5 1795.0Q5345 1878 5418.5 1914.5Q5492 1951 5610 1951Q5719 1951 5860 1910V2039Q5723 2079 5592 2079Q5429 2079 5322.5 2022.5Q5216 1966 5162.0 1842.0Q5108 1718 5108 1517Q5108 1233 5217.0 1096.0Q5326 959 5521 959Q5711 959 5811.5 1095.0Q5912 1231 5912 1521ZM5267 1462H5761Q5759 1317 5729.5 1231.0Q5700 1145 5648.0 1109.0Q5596 1073 5520 1073Q5402 1073 5336.5 1162.0Q5271 1251 5267 1462ZM6527 2023V1886Q6611 1914 6698.0 1928.5Q6785 1943 6866 1943Q7201 1943 7201 1672Q7201 1596 7174.5 1545.0Q7148 1494 7089.5 1458.0Q7031 1422 6930 1391L6855 1369Q6679 1317 6592.0 1219.5Q6505 1122 6505 967Q6505 774 6633.0 668.0Q6761 562 7007 562Q7084 562 7161.5 572.5Q7239 583 7299 602V739Q7166 697 7011 697Q6665 697 6665 958Q6665 1031 6690.0 1080.5Q6715 1130 6770.0 1165.5Q6825 1201 6920 1230L6994 1252Q7182 1307 7272.0 1405.5Q7362 1504 7362 1662Q7362 1794 7303.5 1887.0Q7245 1980 7133.0 2029.0Q7021 2078 6863 2078Q6780 2078 6692.0 2064.0Q6604 2050 6527 2023ZM8276 1343V2060H8145L8133 1941H8123Q8074 2008 7999.0 2042.5Q7924 2077 7833 2077Q7738 2077 7667.0 2042.0Q7596 2007 7558.0 1941.0Q7520 1875 7520 1783Q7520 1638 7611.5 1558.5Q7703 1479 7897 1461L8122 1437V1335Q8122 1239 8093.5 1185.0Q8065 1131 8008.5 1109.0Q7952 1087 7860 1087Q7799 1087 7727.0 1098.5Q7655 1110 7587 1133V1004Q7650 983 7729.5 971.0Q7809 959 7881 959Q8016 959 8102.5 995.5Q8189 1032 8232.5 1116.0Q8276 1200 8276 1343ZM8122 1821V1544L7907 1566Q7789 1578 7734.0 1627.5Q7679 1677 7679 1767Q7679 1861 7728.5 1908.5Q7778 1956 7873 1956Q7943 1956 8008.0 1924.0Q8073 1892 8122 1821ZM8544 975H8675L8687 1096H8697Q8756 1030 8837.0 994.5Q8918 959 9011 959Q9161 959 9246.5 1044.5Q9332 1130 9332 1323V2060H9176V1331Q9176 1205 9123.5 1151.5Q9071 1098 8973 1098Q8898 1098 8823.0 1133.5Q8748 1169 8700 1245V2060H8544ZM9558 2037V1910Q9700 1954 9833 1954Q9957 1954 10020.0 1906.5Q10083 1859 10083 1770Q10083 1695 10045.5 1654.5Q10008 1614 9926 1593L9799 1564Q9659 1530 9597.5 1458.5Q9536 1387 9536 1270Q9536 1178 9582.0 1108.0Q9628 1038 9719.5 998.5Q9811 959 9943 959Q10067 959 10178 986V1113Q10068 1084 9947 1084Q9813 1084 9749.5 1134.0Q9686 1184 9686 1265Q9686 1334 9722.0 1375.0Q9758 1416 9838 1436L9965 1464Q10108 1499 10170.0 1570.5Q10232 1642 10232 1763Q10232 1861 10185.5 1932.0Q10139 2003 10049.5 2041.0Q9960 2079 9834 2079Q9684 2079 9558 2037ZM10836 2023V1886Q10920 1914 11007.0 1928.5Q11094 1943 11175 1943Q11510 1943 11510 1672Q11510 1596 11483.5 1545.0Q11457 1494 11398.5 1458.0Q11340 1422 11239 1391L11164 1369Q10988 1317 10901.0 1219.5Q10814 1122 10814 967Q10814 774 10942.0 668.0Q11070 562 11316 562Q11393 562 11470.5 572.5Q11548 583 11608 602V739Q11475 697 11320 697Q10974 697 10974 958Q10974 1031 10999.0 1080.5Q11024 1130 11079.0 1165.5Q11134 1201 11229 1230L11303 1252Q11491 1307 11581.0 1405.5Q11671 1504 11671 1662Q11671 1794 11612.5 1887.0Q11554 1980 11442.0 2029.0Q11330 2078 11172 2078Q11089 2078 11001.0 2064.0Q10913 2050 10836 2023ZM12646 1570H12001Q12004 1712 12041.5 1795.0Q12079 1878 12152.5 1914.5Q12226 1951 12344 1951Q12453 1951 12594 1910V2039Q12457 2079 12326 2079Q12163 2079 12056.5 2022.5Q11950 1966 11896.0 1842.0Q11842 1718 11842 1517Q11842 1233 11951.0 1096.0Q12060 959 12255 959Q12445 959 12545.5 1095.0Q12646 1231 12646 1521ZM12001 1462H12495Q12493 1317 12463.5 1231.0Q12434 1145 12382.0 1109.0Q12330 1073 12254 1073Q12136 1073 12070.5 1162.0Q12005 1251 12001 1462ZM14189 1326V2060H14034V1332Q14034 1098 13844 1098Q13778 1098 13711.0 1132.0Q13644 1166 13599 1240Q13603 1275 13603 1322V2060H13449V1332Q13449 1206 13400.5 1152.0Q13352 1098 13264 1098Q13196 1098 13126.5 1135.0Q13057 1172 13013 1249V2060H12857V975H12988L13000 1097H13010Q13068 1028 13144.0 993.5Q13220 959 13307 959Q13497 959 13566 1113Q13632 1032 13714.0 995.5Q13796 959 13882 959Q14023 959 14106.0 1045.5Q14189 1132 14189 1326ZM14457 2060V975H14613V2060ZM14425 639Q14425 592 14453.5 565.5Q14482 539 14535 539Q14587 539 14615.5 565.5Q14644 592 14644 639Q14644 686 14615.5 712.0Q14587 738 14535 738Q14482 738 14453.5 712.0Q14425 686 14425 639ZM15303 1322Q15303 926 15467.0 744.0Q15631 562 15947 562Q16098 562 16239 601V739Q16107 699 15952 699Q15790 699 15684.0 758.5Q15578 818 15523.5 954.0Q15469 1090 15469 1318Q15469 1551 15524.0 1688.0Q15579 1825 15682.5 1883.0Q15786 1941 15943 1941Q16018 1941 16088.5 1928.5Q16159 1916 16239 1889V2028Q16094 2078 15932 2078Q15625 2078 15464.0 1901.5Q15303 1725 15303 1322ZM16312 1519Q16312 1230 16425.0 1094.5Q16538 959 16746 959Q16953 959 17066.0 1095.0Q17179 1231 17179 1518Q17179 1805 17065.5 1942.0Q16952 2079 16746 2079Q16540 2079 16426.0 1942.5Q16312 1806 16312 1519ZM17020 1521Q17020 1358 16987.5 1262.0Q16955 1166 16895.0 1126.0Q16835 1086 16746 1086Q16657 1086 16597.0 1126.0Q16537 1166 16504.5 1260.5Q16472 1355 16472 1515Q16472 1678 16504.5 1774.5Q16537 1871 16597.0 1911.5Q16657 1952 16746 1952Q16834 1952 16894.5 1911.5Q16955 1871 16987.5 1776.0Q17020 1681 17020 1521ZM17402 975H17533L17545 1096H17555Q17614 1030 17695.0 994.5Q17776 959 17869 959Q18019 959 18104.5 1044.5Q18190 1130 18190 1323V2060H18034V1331Q18034 1205 17981.5 1151.5Q17929 1098 17831 1098Q17756 1098 17681.0 1133.5Q17606 1169 17558 1245V2060H17402ZM18403 1540Q18403 1247 18534.5 1102.5Q18666 958 18921 958Q18988 958 19072 969V444H19228V2060H19095L19084 1948H19074Q19029 2007 18959.0 2043.0Q18889 2079 18802 2079Q18623 2079 18513.0 1951.0Q18403 1823 18403 1540ZM19072 1813V1101Q19039 1095 18997.0 1090.5Q18955 1086 18918 1086Q18739 1086 18651.0 1190.0Q18563 1294 18563 1526Q18563 1686 18597.5 1778.0Q18632 1870 18691.5 1907.0Q18751 1944 18836 1944Q18906 1944 18970.0 1910.5Q19034 1877 19072 1813ZM20255 1570H19610Q19613 1712 19650.5 1795.0Q19688 1878 19761.5 1914.5Q19835 1951 19953 1951Q20062 1951 20203 1910V2039Q20066 2079 19935 2079Q19772 2079 19665.5 2022.5Q19559 1966 19505.0 1842.0Q19451 1718 19451 1517Q19451 1233 19560.0 1096.0Q19669 959 19864 959Q20054 959 20154.5 1095.0Q20255 1231 20255 1521ZM19610 1462H20104Q20102 1317 20072.5 1231.0Q20043 1145 19991.0 1109.0Q19939 1073 19863 1073Q19745 1073 19679.5 1162.0Q19614 1251 19610 1462ZM20466 975H20597L20609 1096H20619Q20678 1030 20759.0 994.5Q20840 959 20933 959Q21083 959 21168.5 1044.5Q21254 1130 21254 1323V2060H21098V1331Q21098 1205 21045.5 1151.5Q20993 1098 20895 1098Q20820 1098 20745.0 1133.5Q20670 1169 20622 1245V2060H20466ZM21480 2037V1910Q21622 1954 21755 1954Q21879 1954 21942.0 1906.5Q22005 1859 22005 1770Q22005 1695 21967.5 1654.5Q21930 1614 21848 1593L21721 1564Q21581 1530 21519.5 1458.5Q21458 1387 21458 1270Q21458 1178 21504.0 1108.0Q21550 1038 21641.5 998.5Q21733 959 21865 959Q21989 959 22100 986V1113Q21990 1084 21869 1084Q21735 1084 21671.5 1134.0Q21608 1184 21608 1265Q21608 1334 21644.0 1375.0Q21680 1416 21760 1436L21887 1464Q22030 1499 22092.0 1570.5Q22154 1642 22154 1763Q22154 1861 22107.5 1932.0Q22061 2003 21971.5 2041.0Q21882 2079 21756 2079Q21606 2079 21480 2037ZM23103 1570H22458Q22461 1712 22498.5 1795.0Q22536 1878 22609.5 1914.5Q22683 1951 22801 1951Q22910 1951 23051 1910V2039Q22914 2079 22783 2079Q22620 2079 22513.5 2022.5Q22407 1966 22353.0 1842.0Q22299 1718 22299 1517Q22299 1233 22408.0 1096.0Q22517 959 22712 959Q22902 959 23002.5 1095.0Q23103 1231 23103 1521ZM22458 1462H22952Q22950 1317 22920.5 1231.0Q22891 1145 22839.0 1109.0Q22787 1073 22711 1073Q22593 1073 22527.5 1162.0Q22462 1251 22458 1462ZM23259 1540Q23259 1247 23390.5 1102.5Q23522 958 23777 958Q23844 958 23928 969V444H24084V2060H23951L23940 1948H23930Q23885 2007 23815.0 2043.0Q23745 2079 23658 2079Q23479 2079 23369.0 1951.0Q23259 1823 23259 1540ZM23928 1813V1101Q23895 1095 23853.0 1090.5Q23811 1086 23774 1086Q23595 1086 23507.0 1190.0Q23419 1294 23419 1526Q23419 1686 23453.5 1778.0Q23488 1870 23547.5 1907.0Q23607 1944 23692 1944Q23762 1944 23826.0 1910.5Q23890 1877 23928 1813Z" fill="currentColor" /></svg>