<svg viewBox="0 0 9038 2500" xmlns="http://www.w3.org/2000/svg"><path d="M164 2060V580H902V646H232V1994H912V2060ZM224 1332V1266H812V1332ZM1090 2060V980H1150L1156 1104H1164Q1220 1038 1296.0 1001.0Q1372 964 1460 964Q1540 964 1604.0 993.0Q1668 1022 1705.0 1092.0Q1742 1162 1742 1284V2060H1674V1286Q1674 1140 1614.0 1085.0Q1554 1030 1456 1030Q1410 1030 1355.0 1046.5Q1300 1063 1247.5 1102.5Q1195 1142 1158 1210V2060ZM2344 2078Q2222 2078 2137.0 2024.5Q2052 1971 2008.0 1849.0Q1964 1727 1964 1520Q1964 1313 2012.5 1191.0Q2061 1069 2156.0 1016.5Q2251 964 2390 964Q2429 964 2474.0 969.0Q2519 974 2562 986V1054Q2513 1040 2468.0 1035.0Q2423 1030 2394 1030Q2273 1030 2193.5 1072.5Q2114 1115 2075.0 1221.0Q2036 1327 2036 1516Q2036 1707 2071.5 1815.0Q2107 1923 2177.5 1967.5Q2248 2012 2352 2012Q2396 2012 2447.5 2002.0Q2499 1992 2562 1970V2038Q2504 2059 2450.5 2068.5Q2397 2078 2344 2078ZM3024 2078Q2914 2078 2831.0 2023.5Q2748 1969 2702.0 1846.5Q2656 1724 2656 1520Q2656 1316 2701.5 1194.0Q2747 1072 2829.5 1018.0Q2912 964 3024 964Q3134 964 3217.0 1018.0Q3300 1072 3346.0 1194.0Q3392 1316 3392 1520Q3392 1724 3346.5 1846.5Q3301 1969 3218.5 2023.5Q3136 2078 3024 2078ZM3024 2012Q3114 2012 3180.5 1968.5Q3247 1925 3283.5 1818.5Q3320 1712 3320 1524Q3320 1332 3283.5 1224.5Q3247 1117 3180.5 1073.5Q3114 1030 3024 1030Q2934 1030 2867.5 1073.0Q2801 1116 2764.5 1222.0Q2728 1328 2728 1516Q2728 1708 2764.5 1816.0Q2801 1924 2867.5 1968.0Q2934 2012 3024 2012ZM3926 2078Q3830 2078 3748.5 2030.5Q3667 1983 3617.5 1866.5Q3568 1750 3568 1542Q3568 1339 3622.0 1211.5Q3676 1084 3779.0 1024.0Q3882 964 4028 964Q4064 964 4105.0 966.5Q4146 969 4182 974V444H4250V2060H4190L4184 1954H4176Q4140 2003 4076.0 2040.5Q4012 2078 3926 2078ZM3928 2012Q4002 2012 4072.5 1971.5Q4143 1931 4182 1852V1044Q4152 1038 4108.0 1034.0Q4064 1030 4026 1030Q3840 1030 3740.0 1144.5Q3640 1259 3640 1534Q3640 1729 3678.5 1832.0Q3717 1935 3782.5 1973.5Q3848 2012 3928 2012ZM4890 2078Q4758 2078 4667.0 2024.5Q4576 1971 4529.0 1849.0Q4482 1727 4482 1520Q4482 1313 4528.0 1191.0Q4574 1069 4653.0 1016.5Q4732 964 4832 964Q4933 964 5008.0 1016.0Q5083 1068 5124.5 1189.5Q5166 1311 5166 1520V1550H4526V1484H5110L5094 1508Q5094 1320 5060.5 1216.0Q5027 1112 4968.0 1071.0Q4909 1030 4832 1030Q4754 1030 4691.0 1071.0Q4628 1112 4591.0 1216.0Q4554 1320 4554 1508V1526Q4554 1711 4592.5 1817.0Q4631 1923 4706.5 1967.5Q4782 2012 4894 2012Q4941 2012 4994.5 2002.0Q5048 1992 5118 1970V2038Q5054 2060 4998.5 2069.0Q4943 2078 4890 2078ZM6020 2078Q5957 2078 5883.0 2065.5Q5809 2053 5738 2028V1960Q5790 1978 5839.0 1989.5Q5888 2001 5934.5 2006.5Q5981 2012 6026 2012Q6200 2012 6291.0 1931.0Q6382 1850 6382 1688Q6382 1550 6314.5 1476.0Q6247 1402 6092 1348L6040 1330Q5886 1276 5805.0 1183.5Q5724 1091 5724 940Q5724 763 5834.0 662.5Q5944 562 6154 562Q6213 562 6281.0 571.0Q6349 580 6400 598V666Q6336 645 6274.5 636.5Q6213 628 6150 628Q6031 628 5952.5 663.5Q5874 699 5835.0 768.0Q5796 837 5796 936Q5796 1068 5861.0 1140.5Q5926 1213 6076 1266L6128 1284Q6235 1321 6307.5 1375.0Q6380 1429 6417.0 1505.0Q6454 1581 6454 1684Q6454 1811 6403.5 1899.0Q6353 1987 6256.0 2032.5Q6159 2078 6020 2078ZM6898 2076Q6772 2076 6693.0 2004.0Q6614 1932 6614 1794Q6614 1656 6695.0 1579.0Q6776 1502 6942 1484L7218 1452L7228 1518L6940 1550Q6810 1563 6749.0 1622.0Q6688 1681 6688 1786Q6688 1901 6744.5 1955.5Q6801 2010 6904 2010Q6973 2010 7048.5 1973.5Q7124 1937 7182 1838V1304Q7182 1196 7151.5 1136.5Q7121 1077 7062.5 1053.5Q7004 1030 6920 1030Q6868 1030 6802.0 1041.0Q6736 1052 6668 1076V1008Q6722 987 6792.0 975.5Q6862 964 6922 964Q7027 964 7100.5 995.5Q7174 1027 7212.0 1102.0Q7250 1177 7250 1306V2060H7190L7184 1938H7176Q7127 2007 7055.5 2041.5Q6984 2076 6898 2076ZM7528 2060V980H7588L7594 1104H7602Q7658 1038 7734.0 1001.0Q7810 964 7898 964Q7978 964 8042.0 993.0Q8106 1022 8143.0 1092.0Q8180 1162 8180 1284V2060H8112V1286Q8112 1140 8052.0 1085.0Q7992 1030 7894 1030Q7848 1030 7793.0 1046.5Q7738 1063 7685.5 1102.5Q7633 1142 7596 1210V2060ZM8634 2078Q8574 2078 8517.5 2068.0Q8461 2058 8408 2040V1972Q8474 1993 8528.0 2002.5Q8582 2012 8634 2012Q8763 2012 8833.5 1953.5Q8904 1895 8904 1786Q8904 1687 8857.5 1637.0Q8811 1587 8722 1562L8630 1536Q8495 1497 8442.5 1427.0Q8390 1357 8390 1254Q8390 1129 8478.5 1046.5Q8567 964 8730 964Q8786 964 8832.5 969.5Q8879 975 8924 986V1054Q8870 1040 8825.5 1035.0Q8781 1030 8730 1030Q8638 1030 8578.0 1059.5Q8518 1089 8489.0 1139.0Q8460 1189 8460 1250Q8460 1337 8503.0 1387.5Q8546 1438 8636 1464L8728 1490Q8872 1530 8923.0 1603.5Q8974 1677 8974 1782Q8974 1921 8885.0 1999.5Q8796 2078 8634 2078Z" fill="currentColor" /></svg>