<svg viewBox="0 0 22824 2056" xmlns="http://www.w3.org/2000/svg"><path d="M170 1478H1042V1616H0V136H1032V274H170V788H930V925H170ZM1320 531H1460L1472 655H1483Q1562 587 1664.0 550.5Q1766 514 1877 514Q2068 514 2175.5 617.0Q2283 720 2283 939V1616H2115V944Q2115 794 2045.5 727.5Q1976 661 1842 661Q1747 661 1652.0 697.0Q1557 733 1488 807V1616H1320ZM2555 1074Q2555 795 2703.0 654.5Q2851 514 3135 514Q3281 514 3400 549V688Q3335 671 3275.0 662.5Q3215 654 3148 654Q2935 654 2831.5 754.5Q2728 855 2728 1071Q2728 1290 2825.0 1393.0Q2922 1496 3114 1496Q3178 1496 3246.0 1484.0Q3314 1472 3400 1445V1584Q3258 1635 3097 1635Q2834 1635 2694.5 1494.5Q2555 1354 2555 1074ZM3552 1073Q3552 888 3616.0 763.0Q3680 638 3797.0 576.0Q3914 514 4075 514Q4322 514 4459.5 653.5Q4597 793 4597 1073Q4597 1258 4532.5 1384.0Q4468 1510 4350.5 1572.5Q4233 1635 4075 1635Q3915 1635 3798.0 1574.0Q3681 1513 3616.5 1387.0Q3552 1261 3552 1073ZM4428 1075Q4428 853 4336.5 752.5Q4245 652 4075 652Q3905 652 3813.5 752.0Q3722 852 3722 1072Q3722 1498 4075 1498Q4428 1498 4428 1075ZM4829 1096Q4829 809 4983.0 661.0Q5137 513 5432 513Q5546 513 5667 535V0H5835V1616H5693L5682 1491H5671Q5608 1559 5517.0 1596.5Q5426 1634 5318 1634Q5173 1634 5063.5 1576.5Q4954 1519 4891.5 1399.0Q4829 1279 4829 1096ZM5667 1348V676Q5561 649 5437 649Q5215 649 5107.0 755.0Q4999 861 4999 1082Q4999 1493 5353 1493Q5445 1493 5526.0 1458.0Q5607 1423 5667 1348ZM7090 1127H6293Q6300 1325 6405.0 1414.5Q6510 1504 6722 1504Q6858 1504 7032 1456V1587Q6860 1635 6700 1635Q6415 1635 6269.0 1497.5Q6123 1360 6123 1074Q6123 893 6181.5 767.5Q6240 642 6350.5 578.0Q6461 514 6616 514Q6845 514 6967.5 659.0Q7090 804 7090 1079ZM6292 1017H6930Q6925 820 6846.0 726.0Q6767 632 6614 632Q6460 632 6378.5 726.5Q6297 821 6292 1017ZM7856 1569V1425Q7959 1459 8070.5 1476.5Q8182 1494 8281 1494Q8687 1494 8687 1219Q8687 1143 8654.0 1093.5Q8621 1044 8549.5 1011.5Q8478 979 8355 955L8265 938Q8040 894 7936.0 795.5Q7832 697 7832 533Q7832 403 7897.0 310.0Q7962 217 8091.5 167.0Q8221 117 8411 117Q8614 117 8790 169V313Q8610 258 8412 258Q8205 258 8104.5 327.0Q8004 396 8004 526Q8004 601 8033.0 651.0Q8062 701 8128.0 734.0Q8194 767 8307 790L8397 807Q8562 839 8663.5 893.0Q8765 947 8811.5 1025.0Q8858 1103 8858 1211Q8858 1345 8790.0 1440.5Q8722 1536 8591.5 1585.5Q8461 1635 8278 1635Q8171 1635 8063.0 1618.0Q7955 1601 7856 1569ZM9975 919V1616H9833L9821 1493H9810Q9749 1558 9652.5 1596.0Q9556 1634 9450 1634Q9334 1634 9251.5 1597.5Q9169 1561 9126.5 1494.0Q9084 1427 9084 1337Q9084 1196 9186.5 1118.5Q9289 1041 9515 1019L9809 987V911Q9809 808 9774.0 750.5Q9739 693 9670.5 670.0Q9602 647 9491 647Q9414 647 9327.0 660.0Q9240 673 9159 700V568Q9235 542 9329.0 528.0Q9423 514 9511 514Q9669 514 9770.5 552.0Q9872 590 9923.5 679.0Q9975 768 9975 919ZM9809 1377V1096L9525 1127Q9380 1144 9317.5 1191.0Q9255 1238 9255 1324Q9255 1413 9313.0 1461.5Q9371 1510 9488 1510Q9578 1510 9661.0 1476.5Q9744 1443 9809 1377ZM10311 531H10451L10463 655H10474Q10553 587 10655.0 550.5Q10757 514 10868 514Q11059 514 11166.5 617.0Q11274 720 11274 939V1616H11106V944Q11106 794 11036.5 727.5Q10967 661 10833 661Q10738 661 10643.0 697.0Q10548 733 10479 807V1616H10311ZM11566 1588V1460Q11657 1486 11743.0 1497.5Q11829 1509 11922 1509Q12084 1509 12156.0 1462.5Q12228 1416 12228 1326Q12228 1278 12211.0 1246.0Q12194 1214 12153.0 1192.5Q12112 1171 12040 1158L11856 1128Q11693 1101 11620.5 1028.0Q11548 955 11548 832Q11548 686 11667.0 600.0Q11786 514 12029 514Q12188 514 12330 554V682Q12186 641 12030 641Q11858 641 11785.0 690.0Q11712 739 11712 826Q11712 892 11752.5 934.0Q11793 976 11894 994L12078 1024Q12242 1051 12317.0 1119.5Q12392 1188 12392 1315Q12392 1466 12273.0 1550.5Q12154 1635 11920 1635Q11720 1635 11566 1588ZM13399 1478H14271V1616H13229V136H14261V274H13399V788H14159V925H13399ZM15001 1066 15455 1616H15257L14899 1182L14541 1616H14347L14799 1069L14357 531H14554L14903 954L15251 531H15442ZM15657 531H15799L15811 658H15821Q15884 590 15975.5 552.0Q16067 514 16175 514Q16318 514 16427.0 569.5Q16536 625 16599.5 745.5Q16663 866 16663 1052Q16663 1340 16510.0 1487.5Q16357 1635 16061 1635Q15957 1635 15825 1615V2056H15657ZM16493 1066Q16493 656 16139 656Q16047 656 15966.0 691.0Q15885 726 15825 801V1472Q15872 1485 15932.5 1492.0Q15993 1499 16055 1499Q16278 1499 16385.5 1393.0Q16493 1287 16493 1066ZM17781 919V1616H17639L17627 1493H17616Q17555 1558 17458.5 1596.0Q17362 1634 17256 1634Q17140 1634 17057.5 1597.5Q16975 1561 16932.5 1494.0Q16890 1427 16890 1337Q16890 1196 16992.5 1118.5Q17095 1041 17321 1019L17615 987V911Q17615 808 17580.0 750.5Q17545 693 17476.5 670.0Q17408 647 17297 647Q17220 647 17133.0 660.0Q17046 673 16965 700V568Q17041 542 17135.0 528.0Q17229 514 17317 514Q17475 514 17576.5 552.0Q17678 590 17729.5 679.0Q17781 768 17781 919ZM17615 1377V1096L17331 1127Q17186 1144 17123.5 1191.0Q17061 1238 17061 1324Q17061 1413 17119.0 1461.5Q17177 1510 17294 1510Q17384 1510 17467.0 1476.5Q17550 1443 17615 1377ZM18117 531H18257L18269 655H18280Q18359 587 18461.0 550.5Q18563 514 18674 514Q18865 514 18972.5 617.0Q19080 720 19080 939V1616H18912V944Q18912 794 18842.5 727.5Q18773 661 18639 661Q18544 661 18449.0 697.0Q18354 733 18285 807V1616H18117ZM19352 1096Q19352 809 19506.0 661.0Q19660 513 19955 513Q20069 513 20190 535V0H20358V1616H20216L20205 1491H20194Q20131 1559 20040.0 1596.5Q19949 1634 19841 1634Q19696 1634 19586.5 1576.5Q19477 1519 19414.5 1399.0Q19352 1279 19352 1096ZM20190 1348V676Q20084 649 19960 649Q19738 649 19630.0 755.0Q19522 861 19522 1082Q19522 1493 19876 1493Q19968 1493 20049.0 1458.0Q20130 1423 20190 1348ZM21613 1127H20816Q20823 1325 20928.0 1414.5Q21033 1504 21245 1504Q21381 1504 21555 1456V1587Q21383 1635 21223 1635Q20938 1635 20792.0 1497.5Q20646 1360 20646 1074Q20646 893 20704.5 767.5Q20763 642 20873.5 578.0Q20984 514 21139 514Q21368 514 21490.5 659.0Q21613 804 21613 1079ZM20815 1017H21453Q21448 820 21369.0 726.0Q21290 632 21137 632Q20983 632 20901.5 726.5Q20820 821 20815 1017ZM21818 1096Q21818 809 21972.0 661.0Q22126 513 22421 513Q22535 513 22656 535V0H22824V1616H22682L22671 1491H22660Q22597 1559 22506.0 1596.5Q22415 1634 22307 1634Q22162 1634 22052.5 1576.5Q21943 1519 21880.5 1399.0Q21818 1279 21818 1096ZM22656 1348V676Q22550 649 22426 649Q22204 649 22096.0 755.0Q21988 861 21988 1082Q21988 1493 22342 1493Q22434 1493 22515.0 1458.0Q22596 1423 22656 1348Z" fill="currentColor" /></svg>