<svg viewBox="0 0 23927 1635" xmlns="http://www.w3.org/2000/svg"><path d="M157 1481H869V1616H0V136H859V271H157V789H764V924H157ZM1061 531H1192L1204 652H1214Q1273 586 1354.0 550.5Q1435 515 1528 515Q1678 515 1763.5 600.5Q1849 686 1849 879V1616H1693V887Q1693 761 1640.5 707.5Q1588 654 1490 654Q1415 654 1340.0 689.5Q1265 725 1217 801V1616H1061ZM2062 1074Q2062 780 2186.0 647.5Q2310 515 2556 515Q2667 515 2759 539V672Q2664 648 2575 648Q2452 648 2376.0 688.0Q2300 728 2262.5 820.0Q2225 912 2225 1070Q2225 1230 2260.0 1325.0Q2295 1420 2363.0 1461.0Q2431 1502 2538 1502Q2635 1502 2759 1461V1593Q2639 1635 2515 1635Q2290 1635 2176.0 1501.0Q2062 1367 2062 1074ZM2862 1075Q2862 786 2975.0 650.5Q3088 515 3296 515Q3503 515 3616.0 651.0Q3729 787 3729 1074Q3729 1361 3615.5 1498.0Q3502 1635 3296 1635Q3090 1635 2976.0 1498.5Q2862 1362 2862 1075ZM3570 1077Q3570 914 3537.5 818.0Q3505 722 3445.0 682.0Q3385 642 3296 642Q3207 642 3147.0 682.0Q3087 722 3054.5 816.5Q3022 911 3022 1071Q3022 1234 3054.5 1330.5Q3087 1427 3147.0 1467.5Q3207 1508 3296 1508Q3384 1508 3444.5 1467.5Q3505 1427 3537.5 1332.0Q3570 1237 3570 1077ZM3903 1096Q3903 803 4034.5 658.5Q4166 514 4421 514Q4488 514 4572 525V0H4728V1616H4595L4584 1504H4574Q4529 1563 4459.0 1599.0Q4389 1635 4302 1635Q4123 1635 4013.0 1507.0Q3903 1379 3903 1096ZM4572 1369V657Q4539 651 4497.0 646.5Q4455 642 4418 642Q4239 642 4151.0 746.0Q4063 850 4063 1082Q4063 1242 4097.5 1334.0Q4132 1426 4191.5 1463.0Q4251 1500 4336 1500Q4406 1500 4470.0 1466.5Q4534 1433 4572 1369ZM5755 1126H5110Q5113 1268 5150.5 1351.0Q5188 1434 5261.5 1470.5Q5335 1507 5453 1507Q5562 1507 5703 1466V1595Q5566 1635 5435 1635Q5272 1635 5165.5 1578.5Q5059 1522 5005.0 1398.0Q4951 1274 4951 1073Q4951 789 5060.0 652.0Q5169 515 5364 515Q5554 515 5654.5 651.0Q5755 787 5755 1077ZM5110 1018H5604Q5602 873 5572.5 787.0Q5543 701 5491.0 665.0Q5439 629 5363 629Q5245 629 5179.5 718.0Q5114 807 5110 1018ZM6370 1579V1442Q6454 1470 6541.0 1484.5Q6628 1499 6709 1499Q7044 1499 7044 1228Q7044 1152 7017.5 1101.0Q6991 1050 6932.5 1014.0Q6874 978 6773 947L6698 925Q6522 873 6435.0 775.5Q6348 678 6348 523Q6348 330 6476.0 224.0Q6604 118 6850 118Q6927 118 7004.5 128.5Q7082 139 7142 158V295Q7009 253 6854 253Q6508 253 6508 514Q6508 587 6533.0 636.5Q6558 686 6613.0 721.5Q6668 757 6763 786L6837 808Q7025 863 7115.0 961.5Q7205 1060 7205 1218Q7205 1350 7146.5 1443.0Q7088 1536 6976.0 1585.0Q6864 1634 6706 1634Q6623 1634 6535.0 1620.0Q6447 1606 6370 1579ZM8119 899V1616H7988L7976 1497H7966Q7917 1564 7842.0 1598.5Q7767 1633 7676 1633Q7581 1633 7510.0 1598.0Q7439 1563 7401.0 1497.0Q7363 1431 7363 1339Q7363 1194 7454.5 1114.5Q7546 1035 7740 1017L7965 993V891Q7965 795 7936.5 741.0Q7908 687 7851.5 665.0Q7795 643 7703 643Q7642 643 7570.0 654.5Q7498 666 7430 689V560Q7493 539 7572.5 527.0Q7652 515 7724 515Q7859 515 7945.5 551.5Q8032 588 8075.5 672.0Q8119 756 8119 899ZM7965 1377V1100L7750 1122Q7632 1134 7577.0 1183.5Q7522 1233 7522 1323Q7522 1417 7571.5 1464.5Q7621 1512 7716 1512Q7786 1512 7851.0 1480.0Q7916 1448 7965 1377ZM8387 531H8518L8530 652H8540Q8599 586 8680.0 550.5Q8761 515 8854 515Q9004 515 9089.5 600.5Q9175 686 9175 879V1616H9019V887Q9019 761 8966.5 707.5Q8914 654 8816 654Q8741 654 8666.0 689.5Q8591 725 8543 801V1616H8387ZM9401 1593V1466Q9543 1510 9676 1510Q9800 1510 9863.0 1462.5Q9926 1415 9926 1326Q9926 1251 9888.5 1210.5Q9851 1170 9769 1149L9642 1120Q9502 1086 9440.5 1014.5Q9379 943 9379 826Q9379 734 9425.0 664.0Q9471 594 9562.5 554.5Q9654 515 9786 515Q9910 515 10021 542V669Q9911 640 9790 640Q9656 640 9592.5 690.0Q9529 740 9529 821Q9529 890 9565.0 931.0Q9601 972 9681 992L9808 1020Q9951 1055 10013.0 1126.5Q10075 1198 10075 1319Q10075 1417 10028.5 1488.0Q9982 1559 9892.5 1597.0Q9803 1635 9677 1635Q9527 1635 9401 1593ZM10679 1579V1442Q10763 1470 10850.0 1484.5Q10937 1499 11018 1499Q11353 1499 11353 1228Q11353 1152 11326.5 1101.0Q11300 1050 11241.5 1014.0Q11183 978 11082 947L11007 925Q10831 873 10744.0 775.5Q10657 678 10657 523Q10657 330 10785.0 224.0Q10913 118 11159 118Q11236 118 11313.5 128.5Q11391 139 11451 158V295Q11318 253 11163 253Q10817 253 10817 514Q10817 587 10842.0 636.5Q10867 686 10922.0 721.5Q10977 757 11072 786L11146 808Q11334 863 11424.0 961.5Q11514 1060 11514 1218Q11514 1350 11455.5 1443.0Q11397 1536 11285.0 1585.0Q11173 1634 11015 1634Q10932 1634 10844.0 1620.0Q10756 1606 10679 1579ZM12489 1126H11844Q11847 1268 11884.5 1351.0Q11922 1434 11995.5 1470.5Q12069 1507 12187 1507Q12296 1507 12437 1466V1595Q12300 1635 12169 1635Q12006 1635 11899.5 1578.5Q11793 1522 11739.0 1398.0Q11685 1274 11685 1073Q11685 789 11794.0 652.0Q11903 515 12098 515Q12288 515 12388.5 651.0Q12489 787 12489 1077ZM11844 1018H12338Q12336 873 12306.5 787.0Q12277 701 12225.0 665.0Q12173 629 12097 629Q11979 629 11913.5 718.0Q11848 807 11844 1018ZM14032 882V1616H13877V888Q13877 654 13687 654Q13621 654 13554.0 688.0Q13487 722 13442 796Q13446 831 13446 878V1616H13292V888Q13292 762 13243.5 708.0Q13195 654 13107 654Q13039 654 12969.5 691.0Q12900 728 12856 805V1616H12700V531H12831L12843 653H12853Q12911 584 12987.0 549.5Q13063 515 13150 515Q13340 515 13409 669Q13475 588 13557.0 551.5Q13639 515 13725 515Q13866 515 13949.0 601.5Q14032 688 14032 882ZM14300 1616V531H14456V1616ZM14268 195Q14268 148 14296.5 121.5Q14325 95 14378 95Q14430 95 14458.5 121.5Q14487 148 14487 195Q14487 242 14458.5 268.0Q14430 294 14378 294Q14325 294 14296.5 268.0Q14268 242 14268 195ZM15146 878Q15146 482 15310.0 300.0Q15474 118 15790 118Q15941 118 16082 157V295Q15950 255 15795 255Q15633 255 15527.0 314.5Q15421 374 15366.5 510.0Q15312 646 15312 874Q15312 1107 15367.0 1244.0Q15422 1381 15525.5 1439.0Q15629 1497 15786 1497Q15861 1497 15931.5 1484.5Q16002 1472 16082 1445V1584Q15937 1634 15775 1634Q15468 1634 15307.0 1457.5Q15146 1281 15146 878ZM16155 1075Q16155 786 16268.0 650.5Q16381 515 16589 515Q16796 515 16909.0 651.0Q17022 787 17022 1074Q17022 1361 16908.5 1498.0Q16795 1635 16589 1635Q16383 1635 16269.0 1498.5Q16155 1362 16155 1075ZM16863 1077Q16863 914 16830.5 818.0Q16798 722 16738.0 682.0Q16678 642 16589 642Q16500 642 16440.0 682.0Q16380 722 16347.5 816.5Q16315 911 16315 1071Q16315 1234 16347.5 1330.5Q16380 1427 16440.0 1467.5Q16500 1508 16589 1508Q16677 1508 16737.5 1467.5Q16798 1427 16830.5 1332.0Q16863 1237 16863 1077ZM17245 531H17376L17388 652H17398Q17457 586 17538.0 550.5Q17619 515 17712 515Q17862 515 17947.5 600.5Q18033 686 18033 879V1616H17877V887Q17877 761 17824.5 707.5Q17772 654 17674 654Q17599 654 17524.0 689.5Q17449 725 17401 801V1616H17245ZM18246 1096Q18246 803 18377.5 658.5Q18509 514 18764 514Q18831 514 18915 525V0H19071V1616H18938L18927 1504H18917Q18872 1563 18802.0 1599.0Q18732 1635 18645 1635Q18466 1635 18356.0 1507.0Q18246 1379 18246 1096ZM18915 1369V657Q18882 651 18840.0 646.5Q18798 642 18761 642Q18582 642 18494.0 746.0Q18406 850 18406 1082Q18406 1242 18440.5 1334.0Q18475 1426 18534.5 1463.0Q18594 1500 18679 1500Q18749 1500 18813.0 1466.5Q18877 1433 18915 1369ZM20098 1126H19453Q19456 1268 19493.5 1351.0Q19531 1434 19604.5 1470.5Q19678 1507 19796 1507Q19905 1507 20046 1466V1595Q19909 1635 19778 1635Q19615 1635 19508.5 1578.5Q19402 1522 19348.0 1398.0Q19294 1274 19294 1073Q19294 789 19403.0 652.0Q19512 515 19707 515Q19897 515 19997.5 651.0Q20098 787 20098 1077ZM19453 1018H19947Q19945 873 19915.5 787.0Q19886 701 19834.0 665.0Q19782 629 19706 629Q19588 629 19522.5 718.0Q19457 807 19453 1018ZM20309 531H20440L20452 652H20462Q20521 586 20602.0 550.5Q20683 515 20776 515Q20926 515 21011.5 600.5Q21097 686 21097 879V1616H20941V887Q20941 761 20888.5 707.5Q20836 654 20738 654Q20663 654 20588.0 689.5Q20513 725 20465 801V1616H20309ZM21323 1593V1466Q21465 1510 21598 1510Q21722 1510 21785.0 1462.5Q21848 1415 21848 1326Q21848 1251 21810.5 1210.5Q21773 1170 21691 1149L21564 1120Q21424 1086 21362.5 1014.5Q21301 943 21301 826Q21301 734 21347.0 664.0Q21393 594 21484.5 554.5Q21576 515 21708 515Q21832 515 21943 542V669Q21833 640 21712 640Q21578 640 21514.5 690.0Q21451 740 21451 821Q21451 890 21487.0 931.0Q21523 972 21603 992L21730 1020Q21873 1055 21935.0 1126.5Q21997 1198 21997 1319Q21997 1417 21950.5 1488.0Q21904 1559 21814.5 1597.0Q21725 1635 21599 1635Q21449 1635 21323 1593ZM22946 1126H22301Q22304 1268 22341.5 1351.0Q22379 1434 22452.5 1470.5Q22526 1507 22644 1507Q22753 1507 22894 1466V1595Q22757 1635 22626 1635Q22463 1635 22356.5 1578.5Q22250 1522 22196.0 1398.0Q22142 1274 22142 1073Q22142 789 22251.0 652.0Q22360 515 22555 515Q22745 515 22845.5 651.0Q22946 787 22946 1077ZM22301 1018H22795Q22793 873 22763.5 787.0Q22734 701 22682.0 665.0Q22630 629 22554 629Q22436 629 22370.5 718.0Q22305 807 22301 1018ZM23102 1096Q23102 803 23233.5 658.5Q23365 514 23620 514Q23687 514 23771 525V0H23927V1616H23794L23783 1504H23773Q23728 1563 23658.0 1599.0Q23588 1635 23501 1635Q23322 1635 23212.0 1507.0Q23102 1379 23102 1096ZM23771 1369V657Q23738 651 23696.0 646.5Q23654 642 23617 642Q23438 642 23350.0 746.0Q23262 850 23262 1082Q23262 1242 23296.5 1334.0Q23331 1426 23390.5 1463.0Q23450 1500 23535 1500Q23605 1500 23669.0 1466.5Q23733 1433 23771 1369Z" /></svg>