<svg viewBox="0 0 7564 2662" xmlns="http://www.w3.org/2000/svg"><path d="M836 641V778H287V1388H721V1536H281V1898H813V2056H111V641ZM1597 2068Q1589 1916 1581.5 1794.5Q1574 1673 1568 1587Q1561 1487 1554 1409Q1546 1288 1523.5 1226.5Q1501 1165 1466 1165Q1431 1165 1395.0 1209.0Q1359 1253 1324.0 1326.0Q1289 1399 1257.5 1492.5Q1226 1586 1199.5 1685.0Q1173 1784 1153.5 1881.0Q1134 1978 1124 2056L987 2060Q993 1894 993 1745Q993 1589 988.0 1459.5Q983 1330 977 1236Q970 1126 962 1038L1155 1046V1448Q1178 1382 1196.0 1337.0Q1214 1292 1226 1264Q1240 1231 1249 1212Q1275 1163 1306.0 1124.5Q1337 1086 1370.5 1059.5Q1404 1033 1438.5 1019.0Q1473 1005 1505 1005Q1537 1005 1565.0 1019.0Q1593 1033 1614.5 1063.0Q1636 1093 1651.5 1139.5Q1667 1186 1675 1251Q1691 1359 1703 1487Q1714 1597 1723.0 1744.0Q1732 1891 1734 2060ZM2584 1050Q2628 1095 2656.0 1150.5Q2684 1206 2700.0 1265.0Q2716 1324 2722.0 1383.0Q2728 1442 2728 1493Q2727 1600 2707.5 1685.5Q2688 1771 2656.0 1837.5Q2624 1904 2582.0 1952.0Q2540 2000 2493.5 2031.0Q2447 2062 2398.5 2076.5Q2350 2091 2306 2091Q2269 2091 2235.5 2085.0Q2202 2079 2173 2070Q2147 2089 2126.5 2111.0Q2106 2133 2091.0 2155.5Q2076 2178 2068.0 2200.0Q2060 2222 2060 2242Q2060 2276 2079.5 2294.0Q2099 2312 2117 2312Q2143 2312 2170.0 2297.5Q2197 2283 2226.5 2261.0Q2256 2239 2288.5 2213.5Q2321 2188 2356.5 2166.0Q2392 2144 2432.0 2129.5Q2472 2115 2517 2115Q2557 2115 2594.0 2126.0Q2631 2137 2662.5 2158.5Q2694 2180 2717.0 2212.0Q2740 2244 2752 2287Q2757 2304 2758.5 2320.0Q2760 2336 2760 2353Q2760 2437 2721.5 2502.0Q2683 2567 2618.0 2611.5Q2553 2656 2466.5 2678.5Q2380 2701 2283 2701Q2246 2701 2208.5 2696.5Q2171 2692 2134 2682L2152 2592Q2172 2597 2191.5 2599.0Q2211 2601 2230 2601Q2278 2601 2319.0 2592.5Q2360 2584 2390 2573Q2425 2561 2455 2545Q2536 2500 2570.5 2458.0Q2605 2416 2605 2375Q2605 2354 2597.5 2335.5Q2590 2317 2577.0 2302.5Q2564 2288 2546.0 2279.5Q2528 2271 2506 2271Q2471 2271 2425.0 2293.5Q2379 2316 2322 2367Q2274 2409 2222.0 2429.0Q2170 2449 2117 2449Q2082 2449 2046.5 2438.5Q2011 2428 1982.5 2408.0Q1954 2388 1935.5 2357.5Q1917 2327 1917 2287Q1917 2256 1927.0 2221.5Q1937 2187 1957.0 2152.5Q1977 2118 2006.5 2085.0Q2036 2052 2074 2023Q2014 1980 1974.0 1917.5Q1934 1855 1909.0 1783.0Q1884 1711 1873.5 1634.5Q1863 1558 1863 1486Q1863 1344 1895.5 1241.0Q1928 1138 1984.5 1071.0Q2041 1004 2117.5 972.0Q2194 940 2283 940Q2337 940 2383.0 948.5Q2429 957 2468 972L2566 723L2711 825ZM2584 1491Q2584 1460 2581.5 1421.0Q2579 1382 2570.5 1341.0Q2562 1300 2546.5 1259.5Q2531 1219 2506 1185L2416 1345L2338 1302L2414 1108Q2388 1097 2357.0 1090.0Q2326 1083 2289 1083Q2143 1089 2075.0 1192.0Q2007 1295 2007 1484Q2007 1614 2031.5 1703.0Q2056 1792 2095.0 1846.5Q2134 1901 2182.5 1925.0Q2231 1949 2279 1949Q2330 1949 2383.5 1923.5Q2437 1898 2481.5 1842.5Q2526 1787 2554.5 1700.5Q2583 1614 2584 1491ZM3055 653 3035 2058H2916L2896 641ZM3402 1476Q3400 1487 3401.0 1497.5Q3402 1508 3402 1519Q3402 1619 3422.0 1687.5Q3442 1756 3472.5 1801.0Q3503 1846 3539.5 1870.0Q3576 1894 3608.0 1905.5Q3640 1917 3663.0 1919.0Q3686 1921 3691 1921Q3690 1921 3705.0 1919.5Q3720 1918 3744.5 1911.5Q3769 1905 3800.0 1891.0Q3831 1877 3861.5 1851.5Q3892 1826 3919.0 1787.5Q3946 1749 3963 1693L4086 1728Q4071 1790 4046.0 1838.0Q4021 1886 3990.5 1922.0Q3960 1958 3925.5 1983.5Q3891 2009 3858 2025Q3780 2065 3691 2072Q3603 2072 3535.5 2045.5Q3468 2019 3419.0 1974.0Q3370 1929 3337.0 1871.0Q3304 1813 3284.5 1749.5Q3265 1686 3256.5 1622.5Q3248 1559 3248 1503Q3248 1451 3254.0 1389.0Q3260 1327 3277.0 1264.0Q3294 1201 3325.0 1142.0Q3356 1083 3406.0 1037.0Q3456 991 3527.5 963.5Q3599 936 3697 936Q3714 936 3752.5 939.5Q3791 943 3839.0 959.5Q3887 976 3938.0 1009.5Q3989 1043 4031.5 1103.0Q4074 1163 4101.5 1254.0Q4129 1345 4129 1476ZM3691 1089Q3622 1094 3564 1122Q3539 1134 3514.5 1152.5Q3490 1171 3469.0 1197.5Q3448 1224 3432.0 1260.0Q3416 1296 3410 1343H3959Q3953 1284 3927.0 1237.0Q3901 1190 3863.5 1157.0Q3826 1124 3780.5 1106.5Q3735 1089 3691 1089ZM5139 1462Q5139 1528 5130.0 1599.5Q5121 1671 5100.5 1740.5Q5080 1810 5047.0 1873.0Q5014 1936 4964.5 1983.5Q4915 2031 4849.0 2059.0Q4783 2087 4697 2087Q4632 2087 4573.5 2076.5Q4515 2066 4465.0 2039.5Q4415 2013 4375.5 1968.0Q4336 1923 4308.0 1854.0Q4280 1785 4265.0 1688.5Q4250 1592 4250 1464L4271 620H4432L4410 1124Q4434 1088 4460.0 1061.0Q4486 1034 4512.5 1014.5Q4539 995 4565.0 981.5Q4591 968 4614 959Q4669 939 4723 936Q4838 938 4917.5 976.0Q4997 1014 5046.0 1082.5Q5095 1151 5117.0 1247.5Q5139 1344 5139 1462ZM4987 1548Q4987 1510 4985.0 1462.0Q4983 1414 4974.5 1363.5Q4966 1313 4949.5 1265.5Q4933 1218 4903.5 1180.5Q4874 1143 4830.0 1120.0Q4786 1097 4723 1097Q4676 1098 4634.0 1118.0Q4592 1138 4556.0 1171.0Q4520 1204 4491.0 1246.5Q4462 1289 4442.0 1334.5Q4422 1380 4411.0 1425.5Q4400 1471 4400 1511Q4400 1613 4413.5 1693.0Q4427 1773 4460.5 1828.0Q4494 1883 4551.5 1912.0Q4609 1941 4697 1941Q4754 1941 4797.0 1922.0Q4840 1903 4872.0 1871.5Q4904 1840 4925.5 1799.0Q4947 1758 4960.5 1714.5Q4974 1671 4980.0 1627.5Q4986 1584 4987 1548ZM5401 1476Q5399 1487 5400.0 1497.5Q5401 1508 5401 1519Q5401 1619 5421.0 1687.5Q5441 1756 5471.5 1801.0Q5502 1846 5538.5 1870.0Q5575 1894 5607.0 1905.5Q5639 1917 5662.0 1919.0Q5685 1921 5690 1921Q5689 1921 5704.0 1919.5Q5719 1918 5743.5 1911.5Q5768 1905 5799.0 1891.0Q5830 1877 5860.5 1851.5Q5891 1826 5918.0 1787.5Q5945 1749 5962 1693L6085 1728Q6070 1790 6045.0 1838.0Q6020 1886 5989.5 1922.0Q5959 1958 5924.5 1983.5Q5890 2009 5857 2025Q5779 2065 5690 2072Q5602 2072 5534.5 2045.5Q5467 2019 5418.0 1974.0Q5369 1929 5336.0 1871.0Q5303 1813 5283.5 1749.5Q5264 1686 5255.5 1622.5Q5247 1559 5247 1503Q5247 1451 5253.0 1389.0Q5259 1327 5276.0 1264.0Q5293 1201 5324.0 1142.0Q5355 1083 5405.0 1037.0Q5455 991 5526.5 963.5Q5598 936 5696 936Q5713 936 5751.5 939.5Q5790 943 5838.0 959.5Q5886 976 5937.0 1009.5Q5988 1043 6030.5 1103.0Q6073 1163 6100.5 1254.0Q6128 1345 6128 1476ZM5690 1089Q5621 1094 5563 1122Q5538 1134 5513.5 1152.5Q5489 1171 5468.0 1197.5Q5447 1224 5431.0 1260.0Q5415 1296 5409 1343H5958Q5952 1284 5926.0 1237.0Q5900 1190 5862.5 1157.0Q5825 1124 5779.5 1106.5Q5734 1089 5690 1089ZM6777 987Q6835 987 6874.5 1011.0Q6914 1035 6938.5 1075.0Q6963 1115 6973.5 1167.5Q6984 1220 6984 1276Q6984 1331 6978.0 1408.5Q6972 1486 6952 1566L6829 1548Q6841 1477 6845.0 1417.5Q6849 1358 6849 1314Q6849 1207 6826.5 1163.5Q6804 1120 6757 1120Q6716 1120 6668.0 1158.0Q6620 1196 6574.0 1273.0Q6528 1350 6490.0 1467.0Q6452 1584 6431 1742V2095L6280 2087Q6279 1796 6274.5 1589.5Q6270 1383 6266 1252Q6260 1098 6253 999L6431 987V1314Q6451 1260 6482.5 1202.5Q6514 1145 6557.5 1097.0Q6601 1049 6655.5 1018.0Q6710 987 6777 987ZM7375 620 7371 952H7570V1079H7369L7355 2060H7232L7224 1079H6999V952H7224L7222 610Z" fill="currentColor" /></svg>