<svg viewBox="0 0 8110 2016" xmlns="http://www.w3.org/2000/svg"><path d="M94 238 171 141V807L129 748H695V898H129L171 839V1510L94 1413H806V1563H0V88H806V238ZM1100 2000V501H1270V2000ZM1619 1583Q1496 1583 1389.0 1522.5Q1282 1462 1215.5 1356.0Q1149 1250 1149 1114Q1149 1111 1149.0 1109.0Q1149 1107 1149 1104L1271 1101Q1271 1103 1271.0 1105.5Q1271 1108 1271 1110Q1271 1196 1316.5 1267.0Q1362 1338 1436.0 1380.0Q1510 1422 1595 1422Q1736 1422 1829.5 1325.5Q1923 1229 1923 1031Q1923 832 1830.0 736.5Q1737 641 1595 641Q1510 641 1436.0 682.5Q1362 724 1316.5 794.0Q1271 864 1271 951L1149 947Q1149 810 1215.5 706.0Q1282 602 1389.0 543.5Q1496 485 1619 485Q1748 485 1857.0 548.5Q1966 612 2032.0 734.0Q2098 856 2098 1031Q2098 1209 2033.0 1332.5Q1968 1456 1859.0 1519.5Q1750 1583 1619 1583ZM2373 1563V501H2541V1563ZM2458 257Q2411 257 2376.5 230.5Q2342 204 2342 158Q2342 113 2376.5 86.5Q2411 60 2458 60Q2505 60 2539.0 86.5Q2573 113 2573 158Q2573 204 2539.0 230.5Q2505 257 2458 257ZM3041 0V1563H2873V0ZM3855 1582Q3695 1582 3572.5 1510.5Q3450 1439 3380.5 1314.5Q3311 1190 3311 1031Q3311 872 3380.5 749.0Q3450 626 3572.5 556.0Q3695 486 3855 486Q4015 486 4137.5 556.0Q4260 626 4329.5 749.0Q4399 872 4399 1031Q4399 1190 4329.5 1314.5Q4260 1439 4137.5 1510.5Q4015 1582 3855 1582ZM3855 1426Q3965 1426 4049.0 1377.0Q4133 1328 4180.5 1239.0Q4228 1150 4228 1031Q4228 912 4180.5 824.5Q4133 737 4049.0 689.5Q3965 642 3855 642Q3746 642 3661.5 689.5Q3577 737 3529.5 824.5Q3482 912 3482 1031Q3482 1150 3529.5 1239.0Q3577 1328 3661.5 1377.0Q3746 1426 3855 1426ZM5342 1498Q5428 1505 5493.5 1529.5Q5559 1554 5596.0 1601.5Q5633 1649 5633 1726Q5633 1811 5575.0 1876.5Q5517 1942 5399.0 1979.0Q5281 2016 5102 2016Q4849 2016 4720.0 1942.5Q4591 1869 4591 1742Q4591 1702 4600.5 1671.5Q4610 1641 4622 1622L4784 1646Q4776 1657 4768.5 1679.5Q4761 1702 4761 1732Q4761 1812 4852.0 1844.5Q4943 1877 5110 1877Q5235 1877 5315.0 1860.0Q5395 1843 5434.0 1811.0Q5473 1779 5473 1736Q5473 1671 5418.5 1655.5Q5364 1640 5284 1634L4880 1604Q4779 1596 4715.5 1541.5Q4652 1487 4652 1409Q4652 1361 4675.5 1318.0Q4699 1275 4730.5 1245.5Q4762 1216 4787 1210L4921 1271Q4896 1275 4859.5 1305.5Q4823 1336 4823 1377Q4823 1414 4852.0 1437.5Q4881 1461 4967 1468ZM5489 501H5649L5583 919Q5565 1036 5508.0 1130.5Q5451 1225 5352.5 1280.5Q5254 1336 5109 1336Q4958 1336 4851.0 1281.0Q4744 1226 4687.0 1130.5Q4630 1035 4630 915Q4630 793 4689.5 695.5Q4749 598 4855.0 541.5Q4961 485 5098 485Q5221 485 5313.0 527.5Q5405 570 5458.5 634.0Q5512 698 5518 763L5454 767ZM5108 1184Q5205 1184 5274.5 1152.0Q5344 1120 5381.5 1059.0Q5419 998 5419 911Q5419 827 5381.5 765.5Q5344 704 5274.5 670.5Q5205 637 5109 637Q5017 637 4946.5 671.5Q4876 706 4836.5 768.0Q4797 830 4797 914Q4797 999 4834.5 1059.5Q4872 1120 4941.5 1152.0Q5011 1184 5108 1184ZM6274 1582Q6160 1582 6084.0 1542.5Q6008 1503 5963.5 1440.0Q5919 1377 5900.5 1303.5Q5882 1230 5882 1162Q5882 1124 5882.0 1083.5Q5882 1043 5882 1002V501H6053V980Q6053 1017 6053.0 1053.0Q6053 1089 6053 1121Q6053 1202 6075.5 1271.0Q6098 1340 6154.0 1382.5Q6210 1425 6308 1425Q6400 1425 6469.0 1369.5Q6538 1314 6577.0 1230.5Q6616 1147 6616 1064L6715 1105Q6715 1193 6684.0 1277.5Q6653 1362 6595.5 1431.0Q6538 1500 6456.5 1541.0Q6375 1582 6274 1582ZM6616 1563V501H6786V1563ZM7137 1100V948H7958L7928 998Q7928 992 7928.0 986.5Q7928 981 7928 976Q7928 884 7889.5 807.5Q7851 731 7775.0 685.0Q7699 639 7587 639Q7474 639 7388.0 687.0Q7302 735 7254.0 822.5Q7206 910 7206 1031Q7206 1154 7252.5 1243.0Q7299 1332 7385.0 1380.0Q7471 1428 7589 1428Q7673 1428 7735.0 1410.5Q7797 1393 7837.5 1363.5Q7878 1334 7899.0 1299.0Q7920 1264 7924 1229H8094Q8089 1293 8054.0 1356.0Q8019 1419 7955.0 1470.5Q7891 1522 7798.0 1553.0Q7705 1584 7584 1584Q7424 1584 7302.0 1514.0Q7180 1444 7110.5 1320.0Q7041 1196 7041 1035Q7041 872 7111.0 748.5Q7181 625 7304.0 555.0Q7427 485 7585 485Q7746 485 7864.0 555.0Q7982 625 8046.0 746.5Q8110 868 8110 1023Q8110 1039 8109.0 1065.0Q8108 1091 8106 1100Z" fill="currentColor" /></svg>