<svg viewBox="0 0 5156 1301" xmlns="http://www.w3.org/2000/svg"><path d="M82 318H462V378H145V605H412L402 665H145V925H461V985H82ZM607 545V1185H547V555ZM607 545 547 555V485H577ZM579 635 547 625Q547 625 556.0 610.0Q565 595 582.0 573.0Q599 551 622.5 529.0Q646 507 675.0 492.0Q704 477 737 477V532Q703 532 674.0 547.5Q645 563 623.5 583.5Q602 604 590.5 619.5Q579 635 579 635ZM579 835Q579 835 590.5 850.5Q602 866 623.5 886.0Q645 906 674.0 921.5Q703 937 737 937V993Q704 993 675.0 978.0Q646 963 622.5 941.0Q599 919 582.0 897.0Q565 875 556.0 860.0Q547 845 547 845ZM737 937Q779 937 806.5 920.5Q834 904 850.0 875.0Q866 846 873.0 810.0Q880 774 880 735Q880 696 873.0 659.5Q866 623 850.0 594.0Q834 565 806.5 548.5Q779 532 737 532V477Q792 477 831.0 499.0Q870 521 894.5 558.0Q919 595 930.5 641.0Q942 687 942 735Q942 783 930.5 829.0Q919 875 894.5 912.0Q870 949 831.0 971.0Q792 993 737 993ZM1053 735H1113Q1113 813 1125.5 857.5Q1138 902 1163.5 920.0Q1189 938 1229 938V993Q1145 993 1100.5 939.5Q1056 886 1054 787ZM1418 845 1358 925V485H1418ZM1113 735H1053V485H1113ZM1358 925 1418 845V985H1388ZM1386 835 1418 845Q1418 845 1409.0 860.0Q1400 875 1383.0 897.0Q1366 919 1342.5 941.0Q1319 963 1290.0 978.0Q1261 993 1228 993V938Q1263 938 1291.5 922.5Q1320 907 1341.5 886.5Q1363 866 1374.5 850.5Q1386 835 1386 835ZM1933 735H1873Q1873 656 1860.5 612.0Q1848 568 1822.5 550.0Q1797 532 1757 532V477Q1841 477 1885.5 530.5Q1930 584 1932 683ZM1568 625 1628 545V985H1568ZM1873 735H1933V985H1873ZM1628 545 1568 625V485H1598ZM1600 635 1568 625Q1568 625 1577.0 610.0Q1586 595 1603.0 573.0Q1620 551 1643.5 529.0Q1667 507 1696.0 492.0Q1725 477 1758 477V532Q1724 532 1695.0 547.5Q1666 563 1644.5 583.5Q1623 604 1611.5 619.5Q1600 635 1600 635ZM2379 925V285H2439V915ZM2379 925 2439 915V985H2409ZM2407 835 2439 845Q2439 845 2430.0 860.0Q2421 875 2404.0 897.0Q2387 919 2363.5 941.0Q2340 963 2311.0 978.0Q2282 993 2249 993V938Q2284 938 2312.5 922.5Q2341 907 2362.5 886.5Q2384 866 2395.5 850.5Q2407 835 2407 835ZM2407 635Q2407 635 2395.5 619.5Q2384 604 2362.5 584.0Q2341 564 2312.5 548.5Q2284 533 2249 533V477Q2282 477 2311.0 492.0Q2340 507 2363.5 529.0Q2387 551 2404.0 573.0Q2421 595 2430.0 610.0Q2439 625 2439 625ZM2249 533Q2207 533 2179.5 549.5Q2152 566 2136.0 595.0Q2120 624 2113.0 660.0Q2106 696 2106 735Q2106 774 2113.0 810.5Q2120 847 2136.0 876.0Q2152 905 2179.5 921.5Q2207 938 2249 938V993Q2194 993 2155.0 971.0Q2116 949 2091.5 912.0Q2067 875 2055.5 829.0Q2044 783 2044 735Q2044 687 2055.5 641.0Q2067 595 2091.5 558.0Q2116 521 2155.0 499.0Q2194 477 2249 477ZM2736 993Q2644 993 2597.5 947.0Q2551 901 2551 832Q2551 752 2620.5 716.0Q2690 680 2841 680H2866V735Q2728 735 2669.5 757.0Q2611 779 2611 832Q2611 878 2642.0 908.0Q2673 938 2736 938ZM2603 572 2576 524Q2576 524 2588.5 517.0Q2601 510 2623.0 500.5Q2645 491 2673.0 484.0Q2701 477 2731 477V533Q2700 533 2670.5 543.0Q2641 553 2622.0 562.5Q2603 572 2603 572ZM2926 735 2866 680Q2866 597 2836.5 565.0Q2807 533 2731 533V477Q2835 477 2880.5 525.0Q2926 573 2926 683ZM2894 825 2926 845Q2926 845 2918.0 860.0Q2910 875 2894.5 897.0Q2879 919 2856.0 941.0Q2833 963 2803.0 978.0Q2773 993 2736 993V938Q2768 938 2796.0 921.0Q2824 904 2846.5 881.5Q2869 859 2881.5 842.0Q2894 825 2894 825ZM2926 940 2866 925V680L2926 735ZM2866 925 2926 845V985H2896ZM3698 791Q3698 849 3673.0 895.5Q3648 942 3596.0 968.5Q3544 995 3464 995V935Q3541 935 3583.5 896.0Q3626 857 3626 791Q3626 751 3603.5 726.0Q3581 701 3544.5 686.5Q3508 672 3464 665Q3382 650 3338.0 605.0Q3294 560 3294 485Q3294 441 3310.5 408.0Q3327 375 3353.0 353.0Q3379 331 3408.5 320.0Q3438 309 3464 309V369Q3417 369 3387.0 402.5Q3357 436 3357 485Q3357 517 3369.5 541.0Q3382 565 3406.0 579.5Q3430 594 3464 600Q3586 621 3642.0 666.0Q3698 711 3698 791ZM3464 369V309Q3513 309 3556.0 322.0Q3599 335 3636 355L3607 407Q3573 392 3537.5 380.5Q3502 369 3464 369ZM3464 935V995Q3415 995 3372.5 981.5Q3330 968 3292 949L3321 897Q3356 912 3391.0 923.5Q3426 935 3464 935ZM3958 993Q3866 993 3819.5 947.0Q3773 901 3773 832Q3773 752 3842.5 716.0Q3912 680 4063 680H4088V735Q3950 735 3891.5 757.0Q3833 779 3833 832Q3833 878 3864.0 908.0Q3895 938 3958 938ZM3825 572 3798 524Q3798 524 3810.5 517.0Q3823 510 3845.0 500.5Q3867 491 3895.0 484.0Q3923 477 3953 477V533Q3922 533 3892.5 543.0Q3863 553 3844.0 562.5Q3825 572 3825 572ZM4148 735 4088 680Q4088 597 4058.5 565.0Q4029 533 3953 533V477Q4057 477 4102.5 525.0Q4148 573 4148 683ZM4116 825 4148 845Q4148 845 4140.0 860.0Q4132 875 4116.5 897.0Q4101 919 4078.0 941.0Q4055 963 4025.0 978.0Q3995 993 3958 993V938Q3990 938 4018.0 921.0Q4046 904 4068.5 881.5Q4091 859 4103.5 842.0Q4116 825 4116 825ZM4148 940 4088 925V680L4148 735ZM4088 925 4148 845V985H4118ZM4648 735H4588Q4588 656 4575.5 612.0Q4563 568 4537.5 550.0Q4512 532 4472 532V477Q4556 477 4600.5 530.5Q4645 584 4647 683ZM4283 625 4343 545V985H4283ZM4588 735H4648V985H4588ZM4343 545 4283 625V485H4313ZM4315 635 4283 625Q4283 625 4292.0 610.0Q4301 595 4318.0 573.0Q4335 551 4358.5 529.0Q4382 507 4411.0 492.0Q4440 477 4473 477V532Q4439 532 4410.0 547.5Q4381 563 4359.5 583.5Q4338 604 4326.5 619.5Q4315 635 4315 635ZM4926 993V938Q4989 938 5020.0 908.0Q5051 878 5051 832Q5051 796 5021.0 779.0Q4991 762 4926 753V695Q5023 706 5067.0 736.5Q5111 767 5111 832Q5111 901 5064.5 947.0Q5018 993 4926 993ZM4926 477V532Q4887 532 4859.0 552.0Q4831 572 4831 609Q4831 683 4926 695V753Q4854 742 4812.5 706.0Q4771 670 4771 609Q4771 568 4791.5 538.5Q4812 509 4847.5 493.0Q4883 477 4926 477ZM4760 930 4795 886Q4815 901 4847.0 919.5Q4879 938 4926 938V993Q4889 993 4857.5 982.0Q4826 971 4801.0 956.0Q4776 941 4760 930ZM5057 583Q5037 568 5005.0 550.0Q4973 532 4926 532V477Q4963 477 4995.0 488.0Q5027 499 5052.0 514.0Q5077 529 5092 541Z" fill="currentColor" /></svg>