<svg viewBox="0 0 5115 1492" xmlns="http://www.w3.org/2000/svg"><path d="M29 462H589V753H373V793H589V856H373V896H598V1153H29ZM953 1153H655V562H906L916 635Q918 632 921.0 627.0Q924 622 938.0 609.5Q952 597 970 587Q1020 562 1096 562V880L953 866ZM1281 361Q1431 361 1431 482Q1431 551 1394.0 581.0Q1357 611 1281.0 611.0Q1205 611 1169.0 581.0Q1133 551 1133.0 485.0Q1133 419 1169.5 390.0Q1206 361 1281 361ZM1133 1153V634H1431V1153ZM2025 1133Q1960 1163 1796.0 1163.0Q1632 1163 1560.5 1088.0Q1489 1013 1489.0 855.0Q1489 697 1569.0 624.5Q1649 552 1809 552Q1881 552 1935.0 562.0Q1989 572 2007 582L2025 592V856H1820V900Q1838 903 1881 903Q1953 903 2010 897L2025 896ZM2669 775 2664 898 2689 897V1124Q2671 1139 2627.0 1151.0Q2583 1163 2544.0 1163.0Q2505 1163 2482.0 1156.0Q2459 1149 2448.0 1140.5Q2437 1132 2431 1121Q2422 1105 2422 1094Q2367 1163 2247 1163Q2082 1163 2082 1023Q2082 939 2146.0 903.5Q2210 868 2370 861Q2370 826 2293 826Q2241 826 2193.5 839.0Q2146 852 2125 865L2103 878V615Q2112 608 2130.0 597.5Q2148 587 2215.0 569.5Q2282 552 2362 552Q2522 552 2595.5 606.0Q2669 660 2669 775ZM2386 934V894L2329 910V934Q2329 947 2337.5 955.0Q2346 963 2358.5 963.0Q2371 963 2378.5 955.0Q2386 947 2386 934ZM3356 452H3439Q3619 452 3701.0 537.0Q3783 622 3783.0 804.0Q3783 986 3700.5 1074.5Q3618 1163 3439 1163H3356Q3177 1163 3094.0 1074.5Q3011 986 3011.0 804.0Q3011 622 3093.5 537.0Q3176 452 3356 452ZM3369 781V897Q3369 910 3376.5 918.0Q3384 926 3396.5 926.0Q3409 926 3417.5 918.0Q3426 910 3426 897V781Q3426 769 3417.5 761.0Q3409 753 3396.5 753.0Q3384 753 3376.5 761.0Q3369 769 3369 781ZM4110 836V1153H3827V562H4078L4088 635Q4092 624 4106.0 608.0Q4120 592 4136 581Q4180 552 4253 552Q4351 552 4400.5 606.0Q4450 660 4450 763V1153H4167V836Q4167 824 4158.5 815.5Q4150 807 4138.0 807.0Q4126 807 4118.0 815.5Q4110 824 4110 836ZM5087 826 5082 903H4806V937Q4831 943 4879 943Q4981 943 5044 934L5065 931V1119Q5057 1124 5039.5 1131.5Q5022 1139 4956.0 1151.0Q4890 1163 4809 1163Q4649 1163 4578.5 1087.0Q4508 1011 4508.0 858.5Q4508 706 4577.5 629.0Q4647 552 4805.0 552.0Q4963 552 5025.0 616.0Q5087 680 5087 826ZM4791 814V853H4848V814Q4848 801 4839.5 793.0Q4831 785 4818.5 785.0Q4806 785 4798.5 793.0Q4791 801 4791 814Z" fill="currentColor" /></svg>