<svg viewBox="0 0 5058 802.0" xmlns="http://www.w3.org/2000/svg"><path d="M0 101H560V392H344V432H560V495H344V535H569V792H0ZM924 792H626V201H877L887 274Q889 271 892.0 266.0Q895 261 909.0 248.5Q923 236 941 226Q991 201 1067 201V519L924 505ZM1252 0Q1402 0 1402 121Q1402 190 1365.0 220.0Q1328 250 1252.0 250.0Q1176 250 1140.0 220.0Q1104 190 1104.0 124.0Q1104 58 1140.5 29.0Q1177 0 1252 0ZM1104 792V273H1402V792ZM1996 772Q1931 802 1767.0 802.0Q1603 802 1531.5 727.0Q1460 652 1460.0 494.0Q1460 336 1540.0 263.5Q1620 191 1780 191Q1852 191 1906.0 201.0Q1960 211 1978 221L1996 231V495H1791V539Q1809 542 1852 542Q1924 542 1981 536L1996 535ZM2640 414 2635 537 2660 536V763Q2642 778 2598.0 790.0Q2554 802 2515.0 802.0Q2476 802 2453.0 795.0Q2430 788 2419.0 779.5Q2408 771 2402 760Q2393 744 2393 733Q2338 802 2218 802Q2053 802 2053 662Q2053 578 2117.0 542.5Q2181 507 2341 500Q2341 465 2264 465Q2212 465 2164.5 478.0Q2117 491 2096 504L2074 517V254Q2083 247 2101.0 236.5Q2119 226 2186.0 208.5Q2253 191 2333 191Q2493 191 2566.5 245.0Q2640 299 2640 414ZM2357 573V533L2300 549V573Q2300 586 2308.5 594.0Q2317 602 2329.5 602.0Q2342 602 2349.5 594.0Q2357 586 2357 573ZM3327 91H3410Q3590 91 3672.0 176.0Q3754 261 3754.0 443.0Q3754 625 3671.5 713.5Q3589 802 3410 802H3327Q3148 802 3065.0 713.5Q2982 625 2982.0 443.0Q2982 261 3064.5 176.0Q3147 91 3327 91ZM3340 420V536Q3340 549 3347.5 557.0Q3355 565 3367.5 565.0Q3380 565 3388.5 557.0Q3397 549 3397 536V420Q3397 408 3388.5 400.0Q3380 392 3367.5 392.0Q3355 392 3347.5 400.0Q3340 408 3340 420ZM4081 475V792H3798V201H4049L4059 274Q4063 263 4077.0 247.0Q4091 231 4107 220Q4151 191 4224 191Q4322 191 4371.5 245.0Q4421 299 4421 402V792H4138V475Q4138 463 4129.5 454.5Q4121 446 4109.0 446.0Q4097 446 4089.0 454.5Q4081 463 4081 475ZM5058 465 5053 542H4777V576Q4802 582 4850 582Q4952 582 5015 573L5036 570V758Q5028 763 5010.5 770.5Q4993 778 4927.0 790.0Q4861 802 4780 802Q4620 802 4549.5 726.0Q4479 650 4479.0 497.5Q4479 345 4548.5 268.0Q4618 191 4776.0 191.0Q4934 191 4996.0 255.0Q5058 319 5058 465ZM4762 453V492H4819V453Q4819 440 4810.5 432.0Q4802 424 4789.5 424.0Q4777 424 4769.5 432.0Q4762 440 4762 453Z" fill="currentColor" /></svg>