<svg viewBox="0 0 3683 1243" xmlns="http://www.w3.org/2000/svg"><path d="M617 931Q617 966 635 977L617 1004Q591 1004 562.5 991.0Q534 978 518 963Q501 978 460.5 991.0Q420 1004 384 1004Q311 1004 265 965Q224 1004 171.5 1004.0Q119 1004 74.5 953.5Q30 903 23 849L51 831Q56 839 71 839Q111 839 111 765H101L51 705V632Q93 632 110 635V445H82L32 385V244H569L619 304V548H503L453 488V445H346V503H417L467 563V679H392L403 692V765Q387 766 377.0 767.5Q367 769 356.0 778.0Q345 787 345 804V808Q359 813 385.0 813.0Q411 813 434.0 797.0Q457 781 457 752Q457 747 451 723V691H567L617 751ZM165 665Q175 659 189 641H216Q229 659 239 665Q250 651 266 643V591H389V531H266V357H481V460H541V272H60V357H140V644Q153 651 165 665ZM484 756Q484 796 453.5 819.0Q423 842 379.0 842.0Q335 842 300.5 816.5Q266 791 266 739Q266 721 280.5 701.5Q295 682 327 682V658Q309 658 299.5 659.5Q290 661 275.0 671.5Q260 682 248 703Q224 698 202 669Q184 695 157 703Q144 682 129.0 671.5Q114 661 104.5 659.5Q95 658 77 658V682Q111 682 126.5 705.5Q142 729 142.0 771.0Q142 813 128.5 840.0Q115 867 72 867L58 865Q76 916 121.0 916.0Q166 916 209 871H218L222 875Q270 915 338.5 915.0Q407 915 468 868Q477 877 505.0 893.5Q533 910 549 913Q540 903 540 861V721H479Q484 738 484 756ZM989 445H938L978 640L1009 678V632H1038L1087 408H1157L1207 468L1250 656L1268 678V632H1302L1343 434L1302 385V244H1580L1630 304V445H1565L1515 670L1534 692V764Q1496 765 1474.0 799.0Q1452 833 1452 874Q1452 927 1491 933V1004Q1437 1004 1415.5 999.0Q1394 994 1378 974Q1368 980 1354 1007L1350 1016H1234L1184 956L1164 919L1110 1016H993Q973 981 962 974Q945 995 924.5 999.5Q904 1004 854 1004L804 944V873Q841 866 841 814Q841 790 834 769L808 764L758 704V632H781L739 445H711L661 385V244H939L989 304ZM1170 658Q1151 683 1123 702Q1096 684 1075 658H1036V678Q1043 683 1049.5 696.5Q1056 710 1056.0 728.5Q1056 747 1030.5 786.5Q1005 826 991 834Q978 825 953.0 786.0Q928 747 928.0 719.0Q928 691 948 678V658H908Q891 680 863 702Q836 655 784 655V680Q821 685 845.0 727.5Q869 770 869 813Q869 881 829 889V919Q876 919 897 900Q908 891 918 875Q942 902 963 931H1043L1110 816H1138L1199 931H1280L1322 875Q1342 907 1368 914Q1390 919 1414 919V889Q1373 881 1373 813Q1373 770 1397.5 727.5Q1422 685 1460 680V655Q1408 655 1378 702Q1354 684 1332 658H1294V678Q1315 692 1315.0 720.0Q1315 748 1290.0 787.0Q1265 826 1251 834Q1238 826 1213.0 786.5Q1188 747 1188.0 718.0Q1188 689 1207 678V658ZM866 664Q876 656 895 632H910L855 357H911V272H689V357H749L811 634Q846 639 866 664ZM1552 357V272H1330V357H1386L1330 632H1344Q1364 658 1376 664Q1396 638 1429 634L1492 357ZM1123 668Q1133 662 1159 632H1181L1136 435H1108L1065 632H1089Q1113 662 1123 668ZM2258 931Q2258 966 2276 977L2258 1004Q2232 1004 2203.5 991.0Q2175 978 2159 963Q2142 978 2101.5 991.0Q2061 1004 2025 1004Q1952 1004 1906 965Q1865 1004 1812.5 1004.0Q1760 1004 1715.5 953.5Q1671 903 1664 849L1692 831Q1697 839 1712 839Q1752 839 1752 765H1742L1692 705V632Q1734 632 1751 635V445H1723L1673 385V244H2210L2260 304V548H2144L2094 488V445H1987V503H2058L2108 563V679H2033L2044 692V765Q2028 766 2018.0 767.5Q2008 769 1997.0 778.0Q1986 787 1986 804V808Q2000 813 2026.0 813.0Q2052 813 2075.0 797.0Q2098 781 2098 752Q2098 747 2092 723V691H2208L2258 751ZM1806 665Q1816 659 1830 641H1857Q1870 659 1880 665Q1891 651 1907 643V591H2030V531H1907V357H2122V460H2182V272H1701V357H1781V644Q1794 651 1806 665ZM2125 756Q2125 796 2094.5 819.0Q2064 842 2020.0 842.0Q1976 842 1941.5 816.5Q1907 791 1907 739Q1907 721 1921.5 701.5Q1936 682 1968 682V658Q1950 658 1940.5 659.5Q1931 661 1916.0 671.5Q1901 682 1889 703Q1865 698 1843 669Q1825 695 1798 703Q1785 682 1770.0 671.5Q1755 661 1745.5 659.5Q1736 658 1718 658V682Q1752 682 1767.5 705.5Q1783 729 1783.0 771.0Q1783 813 1769.5 840.0Q1756 867 1713 867L1699 865Q1717 916 1762.0 916.0Q1807 916 1850 871H1859L1863 875Q1911 915 1979.5 915.0Q2048 915 2109 868Q2118 877 2146.0 893.5Q2174 910 2190 913Q2181 903 2181 861V721H2120Q2125 738 2125 756ZM2717 765H2705Q2666 765 2655.5 779.0Q2645 793 2645 824V839Q2651 836 2655 831L2733 909Q2727 956 2699.0 980.0Q2671 1004 2633.0 1004.0Q2595 1004 2555 977Q2515 1004 2477 1004Q2423 1004 2378.0 953.5Q2333 903 2326 849L2354 831Q2359 840 2376.0 840.0Q2393 840 2402.5 826.5Q2412 813 2413.5 800.0Q2415 787 2415 765H2404L2354 705V632Q2395 632 2412 635V445H2384L2334 385V244H2693Q2830 244 2908.0 323.0Q2986 402 2986.0 524.0Q2986 646 2910 705Q2943 756 2943 825V839Q2950 836 2954 831L2981 849L3031 909Q3026 959 2994.0 981.5Q2962 1004 2894.0 1004.0Q2826 1004 2771.5 945.5Q2717 887 2717 796ZM2771 665Q2783 658 2796 641Q2806 641 2810 642Q2906 598 2906 459Q2906 410 2889.5 374.5Q2873 339 2850.5 319.5Q2828 300 2785.5 286.0Q2743 272 2686 272H2362V357H2442V643Q2457 651 2468 665Q2478 659 2492 641H2518Q2531 659 2543 665Q2565 636 2606 633Q2621 632 2655.5 632.0Q2690 632 2706 633Q2749 636 2771 665ZM2630 656Q2612 656 2602.5 657.5Q2593 659 2578.0 670.0Q2563 681 2551 703Q2526 698 2505 668Q2484 695 2459 703Q2447 681 2432.0 670.0Q2417 659 2407.5 657.5Q2398 656 2381 656V681Q2445 681 2445 765Q2445 796 2441.5 815.5Q2438 835 2422.0 851.5Q2406 868 2376 868L2361 864Q2381 914 2424.0 914.0Q2467 914 2502 883H2508Q2543 914 2585.5 914.0Q2628 914 2650 864Q2645 868 2628.0 868.0Q2611 868 2596.5 859.5Q2582 851 2576 835Q2566 808 2566 765Q2566 681 2630 681H2682Q2747 681 2747 765V791Q2747 914 2851 914Q2904 914 2925 896Q2945 880 2948 864Q2942 868 2933 868Q2892 868 2879.0 840.0Q2866 812 2866 761Q2866 687 2807 668Q2788 695 2763 703Q2750 681 2735.0 670.0Q2720 659 2710.0 657.5Q2700 656 2682 656ZM2570 357H2633Q2776 357 2776 468Q2776 527 2741.5 565.0Q2707 603 2634 603H2570ZM2680 444H2648V574Q2748 566 2748 468L2747 453Q2728 444 2680 444ZM3478 445V632H3486L3536 692V765Q3497 765 3485.5 779.0Q3474 793 3474 824V839Q3481 839 3486 831L3514 849L3564 909Q3558 956 3530.0 980.0Q3502 1004 3462.5 1004.0Q3423 1004 3385 977Q3347 1004 3306.5 1004.0Q3266 1004 3214.0 956.0Q3162 908 3156 849L3184 831Q3188 840 3203 840Q3246 840 3246 765H3234L3184 705V632Q3225 632 3242 635V445H3213V548H3097L3047 488V244H3623L3673 304V548H3563L3513 488V445ZM3298 665Q3308 659 3322 641H3348Q3361 659 3372 665Q3382 651 3398 643V357H3538V460H3595V272H3075V460H3135V357H3272V643Q3286 650 3298 665ZM3338 883Q3374 914 3417.5 914.0Q3461 914 3481 864Q3474 868 3465 868Q3395 868 3395 765Q3395 681 3461 681V656Q3442 656 3432.0 657.5Q3422 659 3407.0 670.0Q3392 681 3380 703Q3356 698 3335 668Q3314 695 3290 703Q3277 681 3262.0 670.0Q3247 659 3237.0 657.5Q3227 656 3209 656V681Q3275 681 3275 765Q3275 841 3243 860Q3228 868 3205 868L3189 864Q3209 914 3252.5 914.0Q3296 914 3332 883Z" fill="currentColor" /></svg>