<svg viewBox="0 0 5047 894" xmlns="http://www.w3.org/2000/svg"><path d="M0 0H574V48H104V301H507V348H104V700H0ZM639 560Q639 483 700.0 442.5Q761 402 878 402H1024V366Q1024 305 987.0 273.0Q950 241 880 241Q814 241 774.0 271.5Q734 302 727 358H655Q665 282 725.0 241.0Q785 200 885 200Q997 200 1056.0 245.5Q1115 291 1115 377V539Q1115 625 1130 700H1044Q1033 655 1030 614Q970 710 837 710Q740 710 689.5 671.0Q639 632 639 560ZM1024 512V443H903Q815 443 772.5 471.5Q730 500 730 559Q730 614 763.0 642.5Q796 671 860 671Q906 671 943.5 649.5Q981 628 1002.5 592.0Q1024 556 1024 512ZM1262 17H1354V304Q1380 255 1431.5 227.5Q1483 200 1548 200Q1644 200 1697.5 247.5Q1751 295 1751 380V700H1659V371Q1659 309 1625.0 275.0Q1591 241 1528 241Q1449 241 1401.5 293.0Q1354 345 1354 430V700H1262ZM2269 700 2059 435 1971 512V700H1879V17H1971V446L2246 210H2317L2118 383L2369 700ZM2396 210H2493L2649 573L2791 200H2836L2994 582L3155 210H3211L2996 710H2953L2797 337L2655 710H2614ZM3279 560Q3279 483 3340.0 442.5Q3401 402 3518 402H3664V366Q3664 305 3627.0 273.0Q3590 241 3520 241Q3454 241 3414.0 271.5Q3374 302 3367 358H3295Q3305 282 3365.0 241.0Q3425 200 3525 200Q3637 200 3696.0 245.5Q3755 291 3755 377V539Q3755 625 3770 700H3684Q3673 655 3670 614Q3610 710 3477 710Q3380 710 3329.5 671.0Q3279 632 3279 560ZM3664 512V443H3543Q3455 443 3412.5 471.5Q3370 500 3370 559Q3370 614 3403.0 642.5Q3436 671 3500 671Q3546 671 3583.5 649.5Q3621 628 3642.5 592.0Q3664 556 3664 512ZM3903 210H3995V296Q4019 252 4069.5 226.0Q4120 200 4183 200Q4280 200 4336.0 250.5Q4392 301 4392 387V700H4300V377Q4300 312 4264.0 276.5Q4228 241 4162 241Q4086 241 4040.5 290.5Q3995 340 3995 421V700H3903ZM4971 207Q4924 207 4891 220Q4943 240 4971.0 277.0Q4999 314 4999 366Q4999 438 4941.5 486.5Q4884 535 4768 539Q4724 541 4694.0 551.5Q4664 562 4664 577Q4664 590 4683.5 596.5Q4703 603 4733 603H4776Q4900 603 4967.5 637.5Q5035 672 5035 736Q5035 784 5000.5 819.5Q4966 855 4902.5 874.5Q4839 894 4755 894Q4675 894 4615.5 877.5Q4556 861 4523.5 831.5Q4491 802 4491 763Q4491 721 4531.0 692.5Q4571 664 4655 653Q4609 647 4587.0 629.5Q4565 612 4565 588Q4565 564 4592.0 545.0Q4619 526 4663 521Q4596 503 4563.5 463.0Q4531 423 4531 365Q4531 290 4595.0 245.0Q4659 200 4765 200Q4811 200 4845 207Q4872 182 4907.0 169.0Q4942 156 4981 156Q5021 156 5047 165V222Q5014 207 4971 207ZM4908 369Q4908 307 4871.0 274.0Q4834 241 4765 241Q4697 241 4660.0 274.0Q4623 307 4623 369Q4623 432 4659.5 464.5Q4696 497 4765 497Q4834 497 4871.0 464.5Q4908 432 4908 369ZM4562 758Q4562 802 4615.0 829.5Q4668 857 4756 857Q4848 857 4903.5 825.0Q4959 793 4959 743Q4959 701 4911.5 680.0Q4864 659 4785 659Q4680 659 4621.0 685.5Q4562 712 4562 758Z" /></svg>