<svg viewBox="0 0 2176 1000" xmlns="http://www.w3.org/2000/svg"><path d="M434 57Q434 61 432 71Q427 88 419.5 92.5Q412 97 390 98L174 104L145 368L343 358Q361 357 367.5 361.0Q374 365 374 374Q374 377 372 389Q367 406 360.0 410.0Q353 414 330 416L139 425L111 681Q110 700 104.5 705.5Q99 711 85 715Q70 719 59 719Q50 719 47.5 714.5Q45 710 47 698L112 106L79 107Q61 107 54.5 104.0Q48 101 48 92L50 76Q55 58 61.5 53.5Q68 49 89 49L403 40Q420 39 427.0 43.0Q434 47 434 57ZM789 669Q789 677 774.5 688.5Q760 700 739.5 709.0Q719 718 700 718Q675 718 663.5 695.5Q652 673 652 644Q628 682 600.5 701.0Q573 720 536 720Q488 719 459.5 673.0Q431 627 431 546Q432 471 453.5 405.5Q475 340 515.5 300.5Q556 261 613 261Q652 261 691 293V290Q693 270 697.5 264.5Q702 259 715 256Q739 252 741 252Q751 252 754.0 257.0Q757 262 755 274Q706 599 706 671Q721 662 742 641Q755 628 760 628Q769 628 779.0 642.5Q789 657 789 669ZM684 348Q668 333 652.5 325.5Q637 318 617 318Q571 318 543.0 357.0Q515 396 503.5 448.0Q492 500 491 544Q491 661 550 661Q592 661 624.5 608.5Q657 556 668 471Q682 375 684 348ZM895 681Q892 701 887.5 706.5Q883 712 870 715Q850 719 846 719Q838 719 835.5 714.5Q833 710 835 698Q854 557 865.0 459.0Q876 361 876 295Q876 275 880.5 269.5Q885 264 900 261Q924 257 926 257Q935 257 938.0 261.5Q941 266 940 279L936 335Q988 259 1057 259Q1070 259 1075.0 262.5Q1080 266 1080 278Q1080 287 1079 293Q1077 311 1071.5 316.5Q1066 322 1050 324Q998 330 963.0 371.5Q928 413 917 503ZM1241 313Q1216 313 1199.5 325.5Q1183 338 1183 365Q1183 389 1198.5 408.5Q1214 428 1252 456Q1302 494 1325.0 523.0Q1348 552 1348 594Q1348 651 1309.0 685.0Q1270 719 1213 719Q1172 719 1137.0 697.0Q1102 675 1079 639Q1076 633 1076 628Q1076 617 1095 605Q1107 596 1114 596Q1121 596 1128 607Q1144 631 1166.5 646.0Q1189 661 1215 661Q1248 661 1268.5 642.0Q1289 623 1289 596Q1289 570 1271.5 550.5Q1254 531 1220 505L1200 489Q1162 459 1143.0 431.5Q1124 404 1124 364Q1124 315 1158.0 286.0Q1192 257 1243 257Q1322 257 1356 320Q1359 326 1359 330Q1359 336 1354.0 340.0Q1349 344 1336 351Q1324 356 1319 356Q1310 356 1302 344Q1279 313 1241 313ZM1772 669Q1772 677 1757.5 688.5Q1743 700 1722.5 709.0Q1702 718 1683 718Q1658 718 1646.5 695.5Q1635 673 1635 644Q1611 682 1583.5 701.0Q1556 720 1519 720Q1471 719 1442.5 673.0Q1414 627 1414 546Q1415 471 1436.5 405.5Q1458 340 1498.5 300.5Q1539 261 1596 261Q1635 261 1674 293V290Q1676 270 1680.5 264.5Q1685 259 1698 256Q1722 252 1724 252Q1734 252 1737.0 257.0Q1740 262 1738 274Q1689 599 1689 671Q1704 662 1725 641Q1738 628 1743 628Q1752 628 1762.0 642.5Q1772 657 1772 669ZM1667 348Q1651 333 1635.5 325.5Q1620 318 1600 318Q1554 318 1526.0 357.0Q1498 396 1486.5 448.0Q1475 500 1474 544Q1474 661 1533 661Q1575 661 1607.5 608.5Q1640 556 1651 471Q1665 375 1667 348ZM1859 295Q1859 275 1863.5 269.5Q1868 264 1883 261Q1907 257 1909 257Q1918 257 1921.0 261.5Q1924 266 1923 279L1919 335Q1971 260 2040 260Q2079 260 2105.5 287.0Q2132 314 2132 372Q2132 418 2127.5 463.0Q2123 508 2113 591L2102 681Q2100 700 2094.5 705.5Q2089 711 2076 715Q2056 719 2052 719Q2043 719 2040.0 714.0Q2037 709 2039 697L2042 673Q2071 457 2071 392Q2071 353 2060.5 335.5Q2050 318 2026 318Q2000 318 1973.0 344.5Q1946 371 1926.0 414.0Q1906 457 1900 503L1878 681Q1875 701 1870.5 706.5Q1866 712 1853 715Q1833 719 1829 719Q1821 719 1818.5 714.5Q1816 710 1818 698Q1837 557 1848.0 459.0Q1859 361 1859 295Z" fill="currentColor" /></svg>