<svg viewBox="0 0 17880 1827" xmlns="http://www.w3.org/2000/svg"><path d="M744 1636Q744 1659 738.5 1685.0Q733 1711 716.5 1733.5Q700 1756 670.0 1771.0Q640 1786 592 1786H152Q105 1786 75.5 1777.0Q46 1768 29.0 1751.0Q12 1734 6.0 1708.0Q0 1682 0 1647V524Q0 467 13.0 432.5Q26 398 50.0 379.5Q74 361 107.5 355.5Q141 350 182 350H1111Q1159 350 1159 400V492Q1159 512 1147.0 518.0Q1135 524 1118 524Q1108 524 1087.0 521.0Q1066 518 1038.0 513.5Q1010 509 977.5 502.5Q945 496 912 490Q835 475 744 455V709H1116Q1137 709 1137 730V830Q1137 852 1116 852H744ZM659 440 581 424V1702Q605 1702 620.0 1700.5Q635 1699 644.0 1692.5Q653 1686 656.0 1673.5Q659 1661 659 1638ZM1620 1786Q1566 1786 1511.5 1779.0Q1457 1772 1407.5 1756.5Q1358 1741 1315.0 1716.0Q1272 1691 1240.5 1654.0Q1209 1617 1191.0 1567.0Q1173 1517 1173 1452Q1173 1365 1206.0 1303.0Q1239 1241 1294.5 1200.0Q1350 1159 1422.0 1137.0Q1494 1115 1571 1109V1040Q1571 1001 1561.0 978.0Q1551 955 1535.5 943.5Q1520 932 1501.5 928.5Q1483 925 1466 925Q1446 925 1423.5 931.0Q1401 937 1380.0 945.5Q1359 954 1340.0 964.0Q1321 974 1308 982Q1302 986 1297.0 989.0Q1292 992 1287 992Q1278 992 1270 979L1236 925Q1231 918 1231 910Q1231 902 1237.5 896.0Q1244 890 1250 886Q1283 863 1334.0 839.0Q1385 815 1448.5 796.0Q1512 777 1586.0 765.0Q1660 753 1739 753Q1814 753 1885.5 758.0Q1957 763 2020.5 779.5Q2084 796 2136.5 826.5Q2189 857 2227.5 907.0Q2266 957 2287.0 1030.0Q2308 1103 2308 1205V1651Q2308 1684 2302.0 1709.5Q2296 1735 2279.0 1752.0Q2262 1769 2232.0 1777.5Q2202 1786 2154 1786ZM1571 1236Q1499 1236 1450.0 1254.0Q1401 1272 1371.0 1302.0Q1341 1332 1328.0 1371.5Q1315 1411 1315 1453Q1315 1495 1328.0 1532.5Q1341 1570 1371.0 1598.0Q1401 1626 1450.0 1642.0Q1499 1658 1571 1658ZM2145 1702Q2169 1702 2184.0 1700.5Q2199 1699 2208.0 1692.5Q2217 1686 2220.0 1673.5Q2223 1661 2223 1638V1183Q2223 1102 2206.0 1046.5Q2189 991 2163.5 955.5Q2138 920 2108.0 901.5Q2078 883 2052 874Q2064 887 2080.5 911.0Q2097 935 2111.0 972.0Q2125 1009 2135.0 1060.5Q2145 1112 2145 1179ZM3205 727Q3269 727 3333.0 734.5Q3397 742 3454.5 754.0Q3512 766 3559.5 780.5Q3607 795 3637 809Q3642 811 3647.5 815.0Q3653 819 3653 830Q3653 833 3652.0 838.0Q3651 843 3650 848L3638 907Q3636 919 3632.5 921.5Q3629 924 3626 924Q3621 924 3607.0 921.0Q3593 918 3577 918Q3520 918 3487.0 948.5Q3454 979 3445 1055L3389 1522Q3381 1584 3347.5 1638.0Q3314 1692 3251.0 1733.0Q3188 1774 3095.5 1797.5Q3003 1821 2879 1821Q2801 1821 2727.0 1811.5Q2653 1802 2590.5 1788.5Q2528 1775 2481.5 1761.5Q2435 1748 2412 1740Q2404 1738 2399.5 1734.5Q2395 1731 2395 1723Q2395 1719 2396.0 1714.0Q2397 1709 2399 1702L2411 1646Q2413 1638 2418.0 1633.0Q2423 1628 2436 1628Q2469 1628 2502.5 1624.5Q2536 1621 2564.5 1606.0Q2593 1591 2614.5 1560.0Q2636 1529 2644 1473L2714 991Q2725 915 2770.0 864.0Q2815 813 2881.5 782.5Q2948 752 3032.0 739.5Q3116 727 3205 727ZM3015 1728Q3153 1712 3224.5 1650.5Q3296 1589 3307 1497L3360 1055Q3369 979 3404.5 929.0Q3440 879 3502 868Q3446 868 3406.5 883.0Q3367 898 3340.0 923.5Q3313 949 3298.5 983.0Q3284 1017 3280 1055L3227 1497Q3222 1536 3206.5 1572.0Q3191 1608 3165.0 1638.5Q3139 1669 3101.5 1692.5Q3064 1716 3015 1728ZM4428 1280Q4428 1381 4449.5 1448.0Q4471 1515 4504.0 1554.5Q4537 1594 4575.0 1610.0Q4613 1626 4646 1626Q4671 1626 4692.0 1619.5Q4713 1613 4729.0 1604.5Q4745 1596 4756.0 1589.5Q4767 1583 4773 1583Q4782 1583 4785.5 1586.0Q4789 1589 4794 1597L4829 1651Q4834 1659 4834 1665Q4834 1672 4830.0 1676.0Q4826 1680 4822 1683Q4789 1706 4741.0 1731.5Q4693 1757 4629.5 1778.0Q4566 1799 4488.0 1813.0Q4410 1827 4318 1827Q4243 1827 4168.0 1815.0Q4093 1803 4024.5 1776.0Q3956 1749 3897.0 1706.5Q3838 1664 3794.5 1603.5Q3751 1543 3726.0 1462.5Q3701 1382 3701 1280Q3701 1178 3726.0 1097.5Q3751 1017 3794.5 956.5Q3838 896 3897.0 853.5Q3956 811 4024.5 784.0Q4093 757 4168.0 745.0Q4243 733 4318 733Q4400 733 4476.0 745.5Q4552 758 4616.5 778.5Q4681 799 4732.5 823.5Q4784 848 4816 872Q4820 875 4824.0 879.0Q4828 883 4828 890Q4828 897 4823 904L4788 958Q4783 966 4779.5 969.0Q4776 972 4767 972Q4761 972 4751.0 966.0Q4741 960 4726.0 952.5Q4711 945 4691.0 938.5Q4671 932 4646 932Q4613 932 4575.0 948.5Q4537 965 4504.0 1005.0Q4471 1045 4449.5 1112.0Q4428 1179 4428 1280ZM4561 1666Q4529 1659 4491.0 1636.0Q4453 1613 4420.0 1567.5Q4387 1522 4365.0 1451.5Q4343 1381 4343 1280Q4343 1179 4365.0 1108.0Q4387 1037 4420.0 991.5Q4453 946 4491.0 922.5Q4529 899 4561 892Q4507 893 4453.5 914.5Q4400 936 4357.0 982.0Q4314 1028 4287.5 1101.5Q4261 1175 4261 1280Q4261 1385 4287.5 1458.0Q4314 1531 4357.0 1577.0Q4400 1623 4453.5 1644.0Q4507 1665 4561 1666ZM4946 901Q4946 867 4952.0 840.5Q4958 814 4975.0 797.0Q4992 780 5022.0 771.0Q5052 762 5100 762H5538Q5584 762 5612.5 770.5Q5641 779 5657.0 796.0Q5673 813 5678.0 839.0Q5683 865 5683 901V1649Q5683 1683 5678.0 1708.5Q5673 1734 5657.0 1751.5Q5641 1769 5612.5 1777.5Q5584 1786 5538 1786H5100Q5052 1786 5022.0 1777.0Q4992 1768 4975.0 1751.0Q4958 1734 4952.0 1708.0Q4946 1682 4946 1647ZM4983 334Q4983 265 5009.5 204.0Q5036 143 5081.0 98.0Q5126 53 5187.0 26.5Q5248 0 5317 0Q5385 0 5445.5 26.5Q5506 53 5551.0 98.0Q5596 143 5622.5 204.0Q5649 265 5649 334Q5649 402 5622.5 462.5Q5596 523 5551.0 568.0Q5506 613 5445.5 639.5Q5385 666 5317 666Q5248 666 5187.0 639.5Q5126 613 5081.0 568.0Q5036 523 5009.5 462.5Q4983 402 4983 334ZM5598 910Q5598 888 5595.0 875.0Q5592 862 5583.0 855.5Q5574 849 5559.0 847.5Q5544 846 5520 846V1702Q5544 1702 5559.0 1700.5Q5574 1699 5583.0 1692.5Q5592 1686 5595.0 1673.5Q5598 1661 5598 1638ZM5482 334Q5482 404 5454.5 466.0Q5427 528 5380 574Q5420 564 5453.5 541.0Q5487 518 5511.5 486.5Q5536 455 5550.0 416.0Q5564 377 5564 334Q5564 291 5550.0 252.0Q5536 213 5511.5 181.5Q5487 150 5453.5 127.5Q5420 105 5380 94Q5427 140 5454.5 202.0Q5482 264 5482 334ZM5867 901Q5867 867 5873.0 840.5Q5879 814 5896.0 797.0Q5913 780 5943.0 771.0Q5973 762 6021 762H6430Q6475 762 6507.5 771.0Q6540 780 6554 802Q6567 793 6585.5 782.5Q6604 772 6626.0 763.0Q6648 754 6673.0 748.0Q6698 742 6725 742Q6821 742 6874.5 808.0Q6928 874 6928 1002V1739Q6928 1756 6923.5 1765.5Q6919 1775 6912.5 1779.5Q6906 1784 6897.0 1785.0Q6888 1786 6879 1786H6815Q6789 1786 6781.5 1771.0Q6774 1756 6774 1739V992Q6774 935 6753.5 905.0Q6733 875 6688 875Q6665 875 6641.5 887.5Q6618 900 6604 914V1646Q6604 1681 6598.0 1707.0Q6592 1733 6575.0 1750.5Q6558 1768 6528.0 1777.0Q6498 1786 6450 1786H6021Q5973 1786 5943.0 1777.0Q5913 1768 5896.0 1751.0Q5879 1734 5873.0 1708.0Q5867 1682 5867 1647ZM6519 910Q6519 875 6500.5 860.5Q6482 846 6441 846V1702Q6465 1702 6480.0 1700.5Q6495 1699 6504.0 1692.5Q6513 1686 6516.0 1673.5Q6519 1661 6519 1638ZM7530 1786Q7476 1786 7421.5 1779.0Q7367 1772 7317.5 1756.5Q7268 1741 7225.0 1716.0Q7182 1691 7150.5 1654.0Q7119 1617 7101.0 1567.0Q7083 1517 7083 1452Q7083 1365 7116.0 1303.0Q7149 1241 7204.5 1200.0Q7260 1159 7332.0 1137.0Q7404 1115 7481 1109V1040Q7481 1001 7471.0 978.0Q7461 955 7445.5 943.5Q7430 932 7411.5 928.5Q7393 925 7376 925Q7356 925 7333.5 931.0Q7311 937 7290.0 945.5Q7269 954 7250.0 964.0Q7231 974 7218 982Q7212 986 7207.0 989.0Q7202 992 7197 992Q7188 992 7180 979L7146 925Q7141 918 7141 910Q7141 902 7147.5 896.0Q7154 890 7160 886Q7193 863 7244.0 839.0Q7295 815 7358.5 796.0Q7422 777 7496.0 765.0Q7570 753 7649 753Q7724 753 7795.5 758.0Q7867 763 7930.5 779.5Q7994 796 8046.5 826.5Q8099 857 8137.5 907.0Q8176 957 8197.0 1030.0Q8218 1103 8218 1205V1651Q8218 1684 8212.0 1709.5Q8206 1735 8189.0 1752.0Q8172 1769 8142.0 1777.5Q8112 1786 8064 1786ZM7481 1236Q7409 1236 7360.0 1254.0Q7311 1272 7281.0 1302.0Q7251 1332 7238.0 1371.5Q7225 1411 7225 1453Q7225 1495 7238.0 1532.5Q7251 1570 7281.0 1598.0Q7311 1626 7360.0 1642.0Q7409 1658 7481 1658ZM8055 1702Q8079 1702 8094.0 1700.5Q8109 1699 8118.0 1692.5Q8127 1686 8130.0 1673.5Q8133 1661 8133 1638V1183Q8133 1102 8116.0 1046.5Q8099 991 8073.5 955.5Q8048 920 8018.0 901.5Q7988 883 7962 874Q7974 887 7990.5 911.0Q8007 935 8021.0 972.0Q8035 1009 8045.0 1060.5Q8055 1112 8055 1179ZM8331 1090Q8310 1090 8310 1068V988Q8310 967 8331 967H8435V740Q8435 725 8439.5 710.0Q8444 695 8464 687L9016 483Q9054 469 9079.0 462.0Q9104 455 9123 455Q9130 455 9138.5 457.5Q9147 460 9154.5 466.0Q9162 472 9167.0 482.5Q9172 493 9172 508V967H9352Q9373 967 9373 988V1068Q9373 1090 9352 1090H9172V1493Q9172 1564 9195.5 1593.0Q9219 1622 9268 1622Q9279 1622 9291.0 1619.5Q9303 1617 9313.5 1614.5Q9324 1612 9333.0 1609.5Q9342 1607 9348 1607Q9359 1607 9359 1620V1697Q9359 1717 9351.0 1724.0Q9343 1731 9337 1733Q9299 1749 9247.5 1765.0Q9196 1781 9136.5 1793.5Q9077 1806 9011.0 1813.5Q8945 1821 8879 1821Q8784 1821 8702.5 1811.5Q8621 1802 8561.5 1768.0Q8502 1734 8468.5 1667.0Q8435 1600 8435 1485V1090ZM9087 598Q9087 578 9082.5 565.5Q9078 553 9061 553Q9055 553 9045.5 555.0Q9036 557 9025 562L9009 569V1519Q9009 1564 9024.0 1592.0Q9039 1620 9061.0 1636.0Q9083 1652 9108.0 1657.5Q9133 1663 9153 1663Q9138 1651 9125.5 1638.5Q9113 1626 9104.5 1609.5Q9096 1593 9091.5 1572.5Q9087 1552 9087 1523ZM10432 1620Q10459 1620 10481.0 1612.5Q10503 1605 10520.5 1596.0Q10538 1587 10549.5 1579.5Q10561 1572 10567 1572Q10576 1572 10579.5 1575.0Q10583 1578 10588 1586L10623 1640Q10628 1648 10628 1654Q10628 1661 10624.0 1665.0Q10620 1669 10616 1672Q10583 1695 10535.0 1721.5Q10487 1748 10423.5 1770.0Q10360 1792 10280.0 1806.5Q10200 1821 10104 1821Q10029 1821 9954.0 1809.0Q9879 1797 9810.5 1771.0Q9742 1745 9683.0 1703.0Q9624 1661 9580.5 1600.0Q9537 1539 9512.0 1458.5Q9487 1378 9487 1274Q9487 1172 9512.0 1091.5Q9537 1011 9580.5 950.0Q9624 889 9683.0 846.5Q9742 804 9810.5 777.5Q9879 751 9954.0 739.0Q10029 727 10104 727Q10229 727 10336.5 755.0Q10444 783 10523.0 847.0Q10602 911 10647.0 1015.0Q10692 1119 10692 1270V1326Q10692 1344 10683.0 1354.0Q10674 1364 10653 1364H10239Q10247 1438 10267.5 1487.5Q10288 1537 10314.5 1566.5Q10341 1596 10372.0 1608.0Q10403 1620 10432 1620ZM10550 1241Q10550 1161 10537.5 1108.5Q10525 1056 10504.0 1024.5Q10483 993 10454.5 980.0Q10426 967 10395 967Q10372 967 10345.0 976.0Q10318 985 10294.5 1014.0Q10271 1043 10254.5 1097.0Q10238 1151 10235 1241ZM10366 1676Q10334 1669 10296.0 1647.5Q10258 1626 10225.0 1581.0Q10192 1536 10170.0 1463.0Q10148 1390 10148 1280Q10148 1179 10167.5 1109.0Q10187 1039 10218.0 994.0Q10249 949 10288.0 926.5Q10327 904 10366 898Q10306 900 10251.5 921.5Q10197 943 10155.5 989.0Q10114 1035 10090.0 1107.0Q10066 1179 10066 1280Q10066 1388 10094.0 1463.5Q10122 1539 10165.5 1586.5Q10209 1634 10262.0 1655.0Q10315 1676 10366 1676ZM11451 490Q11451 455 11457.0 429.0Q11463 403 11480.0 385.5Q11497 368 11527.0 359.0Q11557 350 11605 350H12051Q12109 350 12139.5 367.0Q12170 384 12182.5 409.5Q12195 435 12196.0 463.5Q12197 492 12197 516V1624Q12197 1647 12193.0 1675.0Q12189 1703 12173.0 1727.5Q12157 1752 12124.0 1769.0Q12091 1786 12033 1786H11605Q11557 1786 11527.0 1777.0Q11497 1768 11480.0 1751.0Q11463 1734 11457.0 1708.0Q11451 1682 11451 1647ZM12112 498Q12112 476 12109.0 463.0Q12106 450 12097.0 443.5Q12088 437 12073.0 435.5Q12058 434 12034 434V1702Q12058 1702 12073.0 1700.5Q12088 1699 12097.0 1692.5Q12106 1686 12109.0 1673.5Q12112 1661 12112 1638ZM12382 901Q12382 867 12388.0 840.5Q12394 814 12411.0 797.0Q12428 780 12458.0 771.0Q12488 762 12536 762H12945Q12990 762 13022.5 771.0Q13055 780 13069 802Q13082 793 13100.5 782.5Q13119 772 13141.0 763.0Q13163 754 13188.0 748.0Q13213 742 13240 742Q13336 742 13389.5 808.0Q13443 874 13443 1002V1739Q13443 1756 13438.5 1765.5Q13434 1775 13427.5 1779.5Q13421 1784 13412.0 1785.0Q13403 1786 13394 1786H13330Q13304 1786 13296.5 1771.0Q13289 1756 13289 1739V992Q13289 935 13268.5 905.0Q13248 875 13203 875Q13180 875 13156.5 887.5Q13133 900 13119 914V1646Q13119 1681 13113.0 1707.0Q13107 1733 13090.0 1750.5Q13073 1768 13043.0 1777.0Q13013 1786 12965 1786H12536Q12488 1786 12458.0 1777.0Q12428 1768 12411.0 1751.0Q12394 1734 12388.0 1708.0Q12382 1682 12382 1647ZM13034 910Q13034 875 13015.5 860.5Q12997 846 12956 846V1702Q12980 1702 12995.0 1700.5Q13010 1699 13019.0 1692.5Q13028 1686 13031.0 1673.5Q13034 1661 13034 1638ZM13627 287Q13627 253 13633.0 226.5Q13639 200 13656.0 183.0Q13673 166 13703.0 157.0Q13733 148 13781 148H14219Q14265 148 14293.0 156.5Q14321 165 14337.0 182.0Q14353 199 14358.5 225.0Q14364 251 14364 286V1649Q14364 1683 14358.0 1708.5Q14352 1734 14336.0 1751.5Q14320 1769 14291.5 1777.5Q14263 1786 14217 1786H13781Q13733 1786 13703.0 1777.0Q13673 1768 13656.0 1751.0Q13639 1734 13633.0 1708.0Q13627 1682 13627 1647ZM14279 296Q14279 274 14276.0 261.0Q14273 248 14264.0 241.5Q14255 235 14240.0 233.5Q14225 232 14201 232V1702Q14225 1702 14240.0 1700.5Q14255 1699 14264.0 1692.5Q14273 1686 14276.0 1673.5Q14279 1661 14279 1638ZM14548 901Q14548 867 14554.0 840.5Q14560 814 14577.0 797.0Q14594 780 14624.0 771.0Q14654 762 14702 762H15140Q15186 762 15214.5 770.5Q15243 779 15259.0 796.0Q15275 813 15280.0 839.0Q15285 865 15285 901V1649Q15285 1683 15280.0 1708.5Q15275 1734 15259.0 1751.5Q15243 1769 15214.5 1777.5Q15186 1786 15140 1786H14702Q14654 1786 14624.0 1777.0Q14594 1768 14577.0 1751.0Q14560 1734 14554.0 1708.0Q14548 1682 14548 1647ZM14585 334Q14585 265 14611.5 204.0Q14638 143 14683.0 98.0Q14728 53 14789.0 26.5Q14850 0 14919 0Q14987 0 15047.5 26.5Q15108 53 15153.0 98.0Q15198 143 15224.5 204.0Q15251 265 15251 334Q15251 402 15224.5 462.5Q15198 523 15153.0 568.0Q15108 613 15047.5 639.5Q14987 666 14919 666Q14850 666 14789.0 639.5Q14728 613 14683.0 568.0Q14638 523 14611.5 462.5Q14585 402 14585 334ZM15200 910Q15200 888 15197.0 875.0Q15194 862 15185.0 855.5Q15176 849 15161.0 847.5Q15146 846 15122 846V1702Q15146 1702 15161.0 1700.5Q15176 1699 15185.0 1692.5Q15194 1686 15197.0 1673.5Q15200 1661 15200 1638ZM15084 334Q15084 404 15056.5 466.0Q15029 528 14982 574Q15022 564 15055.5 541.0Q15089 518 15113.5 486.5Q15138 455 15152.0 416.0Q15166 377 15166 334Q15166 291 15152.0 252.0Q15138 213 15113.5 181.5Q15089 150 15055.5 127.5Q15022 105 14982 94Q15029 140 15056.5 202.0Q15084 264 15084 334ZM15469 901Q15469 867 15475.0 840.5Q15481 814 15498.0 797.0Q15515 780 15545.0 771.0Q15575 762 15623 762H16032Q16077 762 16109.5 771.0Q16142 780 16156 802Q16169 793 16187.5 782.5Q16206 772 16228.0 763.0Q16250 754 16275.0 748.0Q16300 742 16327 742Q16423 742 16476.5 808.0Q16530 874 16530 1002V1739Q16530 1756 16525.5 1765.5Q16521 1775 16514.5 1779.5Q16508 1784 16499.0 1785.0Q16490 1786 16481 1786H16417Q16391 1786 16383.5 1771.0Q16376 1756 16376 1739V992Q16376 935 16355.5 905.0Q16335 875 16290 875Q16267 875 16243.5 887.5Q16220 900 16206 914V1646Q16206 1681 16200.0 1707.0Q16194 1733 16177.0 1750.5Q16160 1768 16130.0 1777.0Q16100 1786 16052 1786H15623Q15575 1786 15545.0 1777.0Q15515 1768 15498.0 1751.0Q15481 1734 15475.0 1708.0Q15469 1682 15469 1647ZM16121 910Q16121 875 16102.5 860.5Q16084 846 16043 846V1702Q16067 1702 16082.0 1700.5Q16097 1699 16106.0 1692.5Q16115 1686 16118.0 1673.5Q16121 1661 16121 1638ZM17620 1620Q17647 1620 17669.0 1612.5Q17691 1605 17708.5 1596.0Q17726 1587 17737.5 1579.5Q17749 1572 17755 1572Q17764 1572 17767.5 1575.0Q17771 1578 17776 1586L17811 1640Q17816 1648 17816 1654Q17816 1661 17812.0 1665.0Q17808 1669 17804 1672Q17771 1695 17723.0 1721.5Q17675 1748 17611.5 1770.0Q17548 1792 17468.0 1806.5Q17388 1821 17292 1821Q17217 1821 17142.0 1809.0Q17067 1797 16998.5 1771.0Q16930 1745 16871.0 1703.0Q16812 1661 16768.5 1600.0Q16725 1539 16700.0 1458.5Q16675 1378 16675 1274Q16675 1172 16700.0 1091.5Q16725 1011 16768.5 950.0Q16812 889 16871.0 846.5Q16930 804 16998.5 777.5Q17067 751 17142.0 739.0Q17217 727 17292 727Q17417 727 17524.5 755.0Q17632 783 17711.0 847.0Q17790 911 17835.0 1015.0Q17880 1119 17880 1270V1326Q17880 1344 17871.0 1354.0Q17862 1364 17841 1364H17427Q17435 1438 17455.5 1487.5Q17476 1537 17502.5 1566.5Q17529 1596 17560.0 1608.0Q17591 1620 17620 1620ZM17738 1241Q17738 1161 17725.5 1108.5Q17713 1056 17692.0 1024.5Q17671 993 17642.5 980.0Q17614 967 17583 967Q17560 967 17533.0 976.0Q17506 985 17482.5 1014.0Q17459 1043 17442.5 1097.0Q17426 1151 17423 1241ZM17554 1676Q17522 1669 17484.0 1647.5Q17446 1626 17413.0 1581.0Q17380 1536 17358.0 1463.0Q17336 1390 17336 1280Q17336 1179 17355.5 1109.0Q17375 1039 17406.0 994.0Q17437 949 17476.0 926.5Q17515 904 17554 898Q17494 900 17439.5 921.5Q17385 943 17343.5 989.0Q17302 1035 17278.0 1107.0Q17254 1179 17254 1280Q17254 1388 17282.0 1463.5Q17310 1539 17353.5 1586.5Q17397 1634 17450.0 1655.0Q17503 1676 17554 1676Z" fill="currentColor" /></svg>