<svg viewBox="0 0 6522 1063" xmlns="http://www.w3.org/2000/svg"><path d="M204 898 314 273H704L651 433H475L461 517H623L596 666H434L394 898ZM275 318 -148 273H283ZM259 414 -165 369H266ZM242 510 -182 465H250ZM225 606 -199 561H233ZM208 702 -216 657H216ZM191 798 -233 753H199ZM174 895 -250 850H182ZM798 898 1020 369H1268L1307 898H1132L1128 817H1002L971 898ZM969 412 561 369H987ZM929 509 520 465H947ZM1055 674H1128V522H1114ZM888 605 479 561H907ZM848 701 438 657H866ZM807 797 397 753H826ZM766 894 356 850H785ZM1769 910Q1722 910 1673.5 905.0Q1625 900 1578 887L1627 739Q1705 761 1777 761Q1795 761 1811.5 760.5Q1828 760 1846 758L1851 726L1788 719Q1705 710 1672.0 680.0Q1639 650 1639 598Q1639 587 1640.5 574.0Q1642 561 1644 548Q1657 476 1683.5 435.0Q1710 394 1758.5 376.5Q1807 359 1886 359Q1981 359 2065 380L2017 526Q1982 518 1953.0 514.0Q1924 510 1890 510Q1871 510 1859.0 510.5Q1847 511 1830 513L1825 542L1875 548Q1963 558 1999.5 593.0Q2036 628 2036 681Q2036 690 2035.0 700.0Q2034 710 2032 720Q2020 789 1994.0 828.0Q1968 867 1932.0 884.5Q1896 902 1854.0 906.0Q1812 910 1769 910ZM1662 411 1272 369H1703Q1691 378 1680.5 388.0Q1670 398 1662 411ZM1621 510 1203 465H1634Q1630 475 1627.0 486.5Q1624 498 1621 510ZM1609 606 1185 561H1611Q1610 570 1609.5 579.5Q1609 589 1609 598ZM1647 702 1224 657H1618Q1627 683 1647 702ZM1576 797 1159 753H1590ZM1544 895 1126 850H1558ZM2359 898 2425 519H2314L2341 369H2736L2709 519H2601L2535 898ZM2301 414 1877 369H2308ZM2284 510 1860 465H2292ZM2380 606 1956 561H2388ZM2363 702 1939 657H2371ZM2346 798 1922 753H2354ZM2329 895 1905 850H2337ZM2909 898 3001 369H3353L3306 519H3143L3131 587H3281L3264 683H3115L3103 751H3288L3262 898ZM2961 414 2537 369H2968ZM2944 510 2520 465H2952ZM2927 606 2503 561H2935ZM2910 702 2486 657H2918ZM2893 798 2469 753H2901ZM2876 895 2452 850H2884ZM3565 898 3657 369H3911Q3967 369 3998.5 386.0Q4030 403 4043.5 433.0Q4057 463 4057 501Q4057 531 4048.5 574.0Q4040 617 4017.5 657.5Q3995 698 3952 722L4009 898H3822L3784 744H3760L3733 898ZM3617 414 3193 369H3624ZM3600 510 3176 465H3608ZM3784 607H3816Q3836 607 3850.5 601.5Q3865 596 3868 577L3874 542Q3874 540 3874.5 538.5Q3875 537 3875 536Q3875 522 3860.5 518.5Q3846 515 3822 515H3800ZM3583 606 3159 561H3591ZM3566 702 3142 657H3574ZM3549 798 3125 753H3557ZM3532 895 3108 850H3540ZM4724 913Q4594 913 4541.5 862.0Q4489 811 4489 711Q4489 683 4492.5 652.0Q4496 621 4502 586Q4521 477 4558.0 404.5Q4595 332 4662.0 295.0Q4729 258 4839 258Q4969 258 5021.5 308.5Q5074 359 5074 460Q5074 501 5067.5 554.0Q5061 607 5045.5 662.0Q5030 717 5004.0 766.0Q4978 815 4939 850Q4899 885 4846.0 899.0Q4793 913 4724 913ZM4592 306 4286 273H4637Q4625 280 4614.0 288.0Q4603 296 4592 306ZM4522 409 4148 369H4542Q4537 379 4532.0 388.5Q4527 398 4522 409ZM4678 742H4757Q4790 742 4811.5 734.0Q4833 726 4840 689L4886 429H4806Q4773 429 4752.0 437.0Q4731 445 4724 482ZM4489 506 4101 465H4501ZM4470 603 4077 561H4477L4474 581Q4473 587 4472.0 592.5Q4471 598 4470 603ZM4460 699 4066 657H4463Q4460 679 4460 699ZM4468 795 4079 753H4461Q4463 764 4464.5 774.5Q4466 785 4468 795ZM4521 887 4175 850H4491Q4504 873 4521 887ZM5301 898 5393 369H5529L5633 566H5639L5673 369H5840L5747 898H5611L5508 700H5504L5469 898ZM5353 414 4929 369H5360ZM5336 510 4912 465H5344ZM5319 606 4895 561H5327ZM5302 702 4878 657H5310ZM5285 798 4861 753H5293ZM5268 895 4844 850H5276ZM6070 898 6162 369H6514L6467 519H6304L6292 587H6442L6425 683H6276L6264 751H6449L6423 898ZM6122 414 5698 369H6129ZM6105 510 5681 465H6113ZM6088 606 5664 561H6096ZM6071 702 5647 657H6079ZM6054 798 5630 753H6062ZM6037 895 5613 850H6045Z" fill="currentColor" /></svg>