<svg viewBox="0 0 2229 1111" xmlns="http://www.w3.org/2000/svg"><path d="M438 470 304 468Q298 505 287.5 562.0Q277 619 275 632Q255 747 198.5 803.5Q142 860 60 860Q57 860 54 860L0 859L47 795Q83 804 116.0 804.0Q149 804 165.0 787.5Q181 771 191 722Q212 611 233.0 469.0Q254 327 267.5 256.5Q281 186 299 157H258Q158 157 117.5 211.5Q77 266 77 399L8 453Q8 339 49.0 258.0Q90 177 189 120Q224 100 338 100H495Q614 100 647 99L591 158L359 157Q352 176 349 191L315 406Q323 406 333 406L447 410Q499 410 544 400L549 404Q531 430 501.5 450.0Q472 470 438 470ZM824 377Q774 377 741.0 439.0Q708 501 693 597Q755 557 803.0 500.0Q851 443 851.0 410.0Q851 377 824 377ZM909 377Q909 474 688 621Q687 632 687 649Q687 762 755 812Q854 736 977 565L987 572Q915 677 842.0 758.5Q769 840 720 861Q670 849 645.0 794.5Q620 740 620.0 666.0Q620 592 658.5 513.0Q697 434 752.5 385.5Q808 337 858.5 337.0Q909 337 909 377ZM1244 0Q1273 0 1293 5L1252 59Q1224 53 1193.0 53.0Q1162 53 1141.0 68.0Q1120 83 1108.0 103.0Q1096 123 1086.5 157.0Q1077 191 1073.5 213.5Q1070 236 1065.5 273.5Q1061 311 1056.5 337.5Q1052 364 1039 475Q1011 714 977 797L980 799Q1076 730 1208 540L1218 546Q1143 658 1064.5 748.5Q986 839 933 861Q931 837 931.0 805.0Q931 773 944.5 674.0Q958 575 980.5 437.0Q1003 299 1011 245Q1023 160 1093.0 80.0Q1163 0 1244 0ZM1168 861Q1166 837 1166.0 804.0Q1166 771 1174.0 713.5Q1182 656 1200.0 558.5Q1218 461 1228 398L1158 449L1160 438Q1167 428 1179.5 412.5Q1192 397 1227.0 369.0Q1262 341 1293 336Q1287 375 1272 487Q1242 715 1213 796L1215 799Q1301 738 1425 565L1436 572Q1364 677 1291.0 758.5Q1218 840 1168 861ZM1315 116Q1316 124 1316 153Q1316 219 1250 253Q1260 226 1262 164ZM1462 995 1249 1111 1240 1100Q1312 1061 1331.0 1026.0Q1350 991 1364.0 907.0Q1378 823 1400.5 657.0Q1423 491 1440 399L1367 446L1369 435Q1376 425 1388.5 409.5Q1401 394 1436.0 366.0Q1471 338 1502 333Q1490 390 1480.0 459.0Q1470 528 1465 557L1468 558Q1553 402 1665 333Q1683 362 1689.5 396.0Q1696 430 1696.0 495.5Q1696 561 1670.0 644.0Q1644 727 1597.5 789.0Q1551 851 1501 851Q1467 851 1437 822Q1425 864 1414.0 913.5Q1403 963 1396.0 984.5Q1389 1006 1376 1023L1379 1028Q1381 1027 1456 980ZM1503 797Q1572 797 1598.0 738.0Q1624 679 1624 519Q1624 445 1615 422Q1583 435 1529.5 503.0Q1476 571 1459.5 644.5Q1443 718 1440 781Q1448 787 1470.0 792.0Q1492 797 1503 797ZM2000 351Q2072 351 2097 356L2091 385Q2082 431 2066 523Q2041 691 2006 797L2009 799Q2096 736 2219 565L2229 572Q2157 677 2084.0 758.5Q2011 840 1962 861Q1961 849 1961.0 813.5Q1961 778 1966.0 740.5Q1971 703 1982.5 650.0Q1994 597 2000 563L1997 561Q1935 666 1883.0 735.5Q1831 805 1762 866Q1749 821 1749.0 735.0Q1749 649 1775.5 553.0Q1802 457 1854.0 404.0Q1906 351 2000 351ZM1817 784Q1827 784 1849.0 750.5Q1871 717 1872 716Q1910 669 1967.5 560.5Q2025 452 2025 408Q2004 402 1963 402Q1883 402 1859.0 433.0Q1835 464 1823.0 562.0Q1811 660 1811.0 713.0Q1811 766 1817 784Z" /></svg>