<svg viewBox="0 0 3117 1200" xmlns="http://www.w3.org/2000/svg"><path d="M100 950V250H503V308H164V575H469V633H164V950ZM618 950V450H678V950ZM649 320Q633 320 621.0 308.0Q609 296 609 280Q609 263 621.0 251.5Q633 240 649 240Q666 240 677.5 251.5Q689 263 689 280Q689 296 677.5 308.0Q666 320 649 320ZM1025 1162Q980 1162 942.0 1152.0Q904 1142 878.0 1130.5Q852 1119 842 1114L864 1064Q876 1071 900.5 1081.5Q925 1092 957.5 1099.5Q990 1107 1025 1107Q1077 1107 1118.0 1086.0Q1159 1065 1182.5 1020.0Q1206 975 1206 904V849Q1178 896 1132.5 923.0Q1087 950 1030 950Q964 950 913.0 917.0Q862 884 833.0 825.5Q804 767 804 692Q804 617 833.0 560.0Q862 503 913.0 470.5Q964 438 1030 438Q1087 438 1132.5 464.0Q1178 490 1206 537V450H1266V904Q1266 991 1233.5 1048.5Q1201 1106 1146.0 1134.0Q1091 1162 1025 1162ZM1042 897Q1090 897 1127.0 870.5Q1164 844 1185.0 798.0Q1206 752 1206 692Q1206 633 1185.0 587.5Q1164 542 1127.0 516.0Q1090 490 1041 490Q989 490 949.0 516.0Q909 542 886.5 587.5Q864 633 864 692Q864 752 887.0 798.0Q910 844 950.0 870.5Q990 897 1042 897ZM1597 962Q1528 962 1489.0 925.5Q1450 889 1450 822V505H1361V450H1450V294H1510V450H1669V505H1510V822Q1510 862 1533.0 884.5Q1556 907 1597 907Q1609 907 1620.5 903.5Q1632 900 1654 885L1679 937Q1652 953 1634.0 957.5Q1616 962 1597 962ZM1784 950V450H1844V538Q1873 491 1921.0 469.5Q1969 448 2021 448V503Q1977 503 1936.5 518.5Q1896 534 1870.0 570.5Q1844 607 1844 670V950ZM2322 962Q2250 962 2194.5 928.5Q2139 895 2107.5 836.0Q2076 777 2076 700Q2076 623 2107.0 564.0Q2138 505 2192.5 471.5Q2247 438 2317 438Q2388 438 2437.5 472.5Q2487 507 2513.0 567.5Q2539 628 2539 707H2135Q2140 802 2190.5 854.5Q2241 907 2322 907Q2380 907 2420.5 878.5Q2461 850 2484 805L2534 836Q2515 873 2484.5 901.5Q2454 930 2413.0 946.0Q2372 962 2322 962ZM2141 652H2474Q2471 604 2451.0 568.5Q2431 533 2397.0 513.0Q2363 493 2317 493Q2272 493 2233.0 513.0Q2194 533 2169.5 569.0Q2145 605 2141 652ZM2865 962Q2793 962 2737.5 928.5Q2682 895 2650.5 836.0Q2619 777 2619 700Q2619 623 2650.0 564.0Q2681 505 2735.5 471.5Q2790 438 2860 438Q2931 438 2980.5 472.5Q3030 507 3056.0 567.5Q3082 628 3082 707H2678Q2683 802 2733.5 854.5Q2784 907 2865 907Q2923 907 2963.5 878.5Q3004 850 3027 805L3077 836Q3058 873 3027.5 901.5Q2997 930 2956.0 946.0Q2915 962 2865 962ZM2684 652H3017Q3014 604 2994.0 568.5Q2974 533 2940.0 513.0Q2906 493 2860 493Q2815 493 2776.0 513.0Q2737 533 2712.5 569.0Q2688 605 2684 652Z" fill="currentColor" /></svg>