<svg viewBox="0 0 6146 1197" xmlns="http://www.w3.org/2000/svg"><path d="M61 106Q84 106 106.5 102.5Q129 99 152 99Q177 99 201.5 101.5Q226 104 251 106Q222 101 193.0 99.5Q164 98 135 98Q117 98 99.5 98.5Q82 99 64 100Q72 87 87.0 82.0Q102 77 116 77H121L146 78L150 88Q158 86 165 86H181Q205 86 229.0 89.5Q253 93 279 93H291Q297 93 304 91L306 86Q345 88 385 88Q400 88 411.5 94.0Q423 100 437 100V123Q437 129 435.0 133.5Q433 138 428 138L422 137V146Q432 153 439.0 164.0Q446 175 446 187Q446 196 441.5 201.0Q437 206 430.0 209.0Q423 212 415.0 212.5Q407 213 400 213Q337 213 270.0 206.5Q203 200 137 189L118 194Q119 198 120.5 212.5Q122 227 124.0 247.5Q126 268 128.5 291.0Q131 314 133.0 333.5Q135 353 136.0 366.5Q137 380 137 381H177V391Q195 386 208 386Q224 386 239.0 389.0Q254 392 272 392Q280 392 287.5 391.0Q295 390 303 388V381Q288 382 273.0 382.5Q258 383 243 383Q233 383 223.5 382.5Q214 382 205 381Q247 381 287.5 378.0Q328 375 370 375Q387 375 401.0 384.0Q415 393 415 412Q415 417 413.0 421.0Q411 425 406 425L400 424V433Q410 441 416.0 452.5Q422 464 422 476Q422 486 412.5 492.0Q403 498 389.0 501.5Q375 505 357.5 506.0Q340 507 325 507Q281 507 243.5 499.5Q206 492 168 492Q162 492 152 494Q155 527 155 561Q155 607 152.0 653.5Q149 700 149 746Q149 753 150.0 764.0Q151 775 151 786Q151 800 147.5 811.0Q144 822 131 822V556Q128 586 127.5 615.5Q127 645 127 674V778Q127 799 125 822L110 819V837Q106 844 99.5 849.5Q93 855 85 855Q75 855 69.0 850.5Q63 846 59.5 839.0Q56 832 55.0 823.5Q54 815 54 808Q54 765 58.0 721.0Q62 677 62 633Q62 606 59.0 579.0Q56 552 52 525Q53 567 54.5 607.5Q56 648 56 689Q56 724 54.0 757.5Q52 791 46 825Q33 809 33 791Q33 768 34.5 744.0Q36 720 36 697H49Q43 664 42 631L40 564Q39 530 37.0 496.5Q35 463 27 430L21 433Q35 551 36 671Q33 575 22 481Q11 381 3 280Q1 275 0.5 268.5Q0 262 0 256Q0 237 1.5 219.5Q3 202 3 182L28 180Q39 180 40.5 191.5Q42 203 42 210H55Q57 197 64.5 181.5Q72 166 86 161L85 158L76 161Q66 156 61.5 146.5Q57 137 57 126Q57 121 59.0 116.0Q61 111 61 106ZM141 404Q158 404 174.5 405.5Q191 407 208 407H217L257 406Q228 402 199.0 403.0Q170 404 141 400ZM237 81Q204 77 171 75Q223 77 276 83Q289 84 301 85Q268 85 237 81ZM112 175Q118 173 133.5 172.0Q149 171 156 170H132Q116 170 109 171ZM180 473Q191 475 202 476Q210 477 218 479Q210 477 203 475Q194 473 183 473ZM306 85H301Q303 85 306 86ZM223 479Q221 479 218 479Q221 479 223 479ZM532 807Q536 779 539.5 741.5Q543 704 546.0 666.0Q549 628 552.0 591.5Q555 555 558 528Q553 555 549.0 590.0Q545 625 541.0 662.0Q537 699 533.0 735.5Q529 772 526 801Q511 791 511 774Q511 754 512.0 740.5Q513 727 515 709L526 699Q525 694 525 690V680Q525 657 530.0 627.5Q535 598 541.5 567.5Q548 537 553.0 508.5Q558 480 558 459L546 456Q544 480 540.0 510.5Q536 541 531.5 573.5Q527 606 523 638Q521 655 519 670Q521 642 524 610Q529 564 534.5 518.5Q540 473 545.0 429.0Q550 385 555 348Q555 333 562.5 315.5Q570 298 573 279Q579 281 583 281H590Q600 281 603.0 285.5Q606 290 606 298V303L615 306Q623 291 634.0 282.0Q645 273 656 273Q680 273 680 324Q680 351 674.5 381.5Q669 412 669 441V454Q669 486 662.0 523.5Q655 561 646.5 599.5Q638 638 631.0 674.0Q624 710 624 740Q624 747 625.0 755.0Q626 763 626 770Q626 785 620.5 788.5Q615 792 607 792Q607 779 606.0 760.0Q605 741 605 726Q603 737 603.0 756.0Q603 775 601 792H586V804Q577 820 562 820Q555 820 546.0 816.0Q537 812 532 807ZM738 39Q721 49 707.0 65.0Q693 81 678 96Q687 90 694.0 83.0Q701 76 708.5 69.0Q716 62 724.5 55.0Q733 48 744 42Q747 46 749.5 49.0Q752 52 752 55L729 78Q729 76 725.5 74.0Q722 72 720 72Q717 82 710.0 88.0Q703 94 696.0 99.0Q689 104 682.0 110.0Q675 116 672 126V128Q672 129 675 129L725 82L706 101Q692 115 676.5 129.5Q661 144 647.5 155.0Q634 166 631 166L630 165Q623 163 615.5 163.0Q608 163 600 162Q600 154 597.5 145.0Q595 136 595 131Q595 126 600 126Q600 123 596.5 116.5Q593 110 589.0 101.5Q585 93 581.5 83.5Q578 74 578 64Q578 54 586.5 44.5Q595 35 606.5 28.0Q618 21 629.0 16.0Q640 11 645 9Q649 9 648.0 4.5Q647 0 651 0L669 6Q667 11 656.5 22.5Q646 34 641 39Q648 34 657.5 24.0Q667 14 672 9Q677 11 681.0 13.0Q685 15 687 15L690 12Q697 12 705.5 15.0Q714 18 721.0 22.0Q728 26 733.0 31.0Q738 36 738 39ZM517 694Q518 683 519 672Q518 684 517 694ZM842 795Q842 790 845.0 783.0Q848 776 848 768Q851 744 852.0 733.5Q853 723 853 715Q853 673 850.5 624.5Q848 576 845 531Q845 517 844.5 498.0Q844 479 842 468Q845 433 847.0 399.0Q849 365 849 330V305Q849 292 848 279Q851 282 854 282Q858 282 862.5 279.0Q867 276 871 276Q878 276 882.5 291.0Q887 306 887 357H896Q901 301 911.5 268.0Q922 235 933 235Q938 235 949.0 256.5Q960 278 960 324L971 306Q982 293 995.5 279.0Q1009 265 1026.0 254.0Q1043 243 1064.0 235.5Q1085 228 1112 228Q1164 228 1202.5 251.5Q1241 275 1267.0 312.5Q1293 350 1309.5 397.5Q1326 445 1335.0 493.5Q1344 542 1347.0 587.0Q1350 632 1350 664Q1350 693 1346.5 698.5Q1343 704 1334 705Q1332 628 1324.0 548.0Q1316 468 1286 393Q1313 472 1320.5 548.5Q1328 625 1328 702Q1322 699 1317 699Q1313 699 1310 702Q1310 710 1311 719Q1312 727 1312.5 735.0Q1313 743 1313 750Q1307 773 1301.0 783.0Q1295 793 1290 793Q1284 793 1280.0 787.5Q1276 782 1272.5 774.0Q1269 766 1265.5 756.5Q1262 747 1256 738Q1258 721 1259.0 710.5Q1260 700 1260 693Q1260 666 1259.0 628.0Q1258 590 1253.5 548.5Q1249 507 1239.5 465.5Q1230 424 1213.5 391.5Q1197 359 1172.0 338.5Q1147 318 1112 318Q1088 318 1069.5 334.0Q1051 350 1037.5 375.0Q1024 400 1014.0 429.5Q1004 459 998 486Q1007 458 1016.5 429.0Q1026 400 1039.5 376.0Q1053 352 1071.0 336.5Q1089 321 1113 321Q1144 321 1166.5 338.0Q1189 355 1204.5 382.0Q1220 409 1229.5 443.5Q1239 478 1244.0 513.5Q1249 549 1250.5 582.5Q1252 616 1252 640Q1252 659 1251.5 678.0Q1251 697 1250 717Q1241 679 1236.5 637.5Q1232 596 1227.0 555.5Q1222 515 1214.5 477.5Q1207 440 1193 408L1200 398Q1190 375 1177.5 362.5Q1165 350 1153.0 344.0Q1141 338 1131.0 337.0Q1121 336 1118 336Q1093 336 1073.5 354.0Q1054 372 1039.5 402.5Q1025 433 1014.0 473.0Q1003 513 995.0 557.0Q987 601 981.0 645.5Q975 690 971 729H980Q985 695 990.5 654.0Q996 613 1002.5 570.5Q1009 528 1018.0 488.0Q1027 448 1039.5 416.0Q1052 384 1069 364Q1085 345 1108 342Q1086 347 1071 370Q1055 394 1043.0 429.0Q1031 464 1021.5 505.5Q1012 547 1004 585L984 731Q980 745 978 756L974 777Q972 787 970.0 798.5Q968 810 965 825L962 837H956L855 803Q850 802 847.5 800.0Q845 798 842 795ZM1016 282Q996 299 984.5 318.5Q973 338 963 358V359Q977 330 1002 300Q1026 272 1066 258Q1053 262 1041 266Q1027 271 1016 282ZM1136 249Q1131 248 1122 248Q1154 256 1182.0 265.5Q1210 275 1235 303Q1218 280 1190.5 267.0Q1163 254 1136 249ZM1163 363Q1155 357 1144.5 353.5Q1134 350 1119 344L1118 342Q1135 343 1148.0 349.5Q1161 356 1173 372ZM1237 305Q1251 322 1263.0 344.0Q1275 366 1284 383Q1274 360 1265.0 341.0Q1256 322 1237 305ZM1844 507V505L1818 497L1835 468L1952 504Q1952 537 1955.5 571.5Q1959 606 1963.5 642.0Q1968 678 1971.5 715.5Q1975 753 1975 791Q1975 842 1966.0 894.0Q1957 946 1936.5 993.0Q1916 1040 1882.5 1080.0Q1849 1120 1799 1146Q1772 1164 1729.5 1179.5Q1687 1195 1646 1197H1634Q1594 1197 1567.0 1188.5Q1540 1180 1524.0 1169.5Q1508 1159 1501.5 1149.5Q1495 1140 1495 1138Q1495 1134 1499 1134Q1530 1157 1566.0 1167.0Q1602 1177 1638 1177Q1699 1177 1751 1153Q1801 1129 1841 1093Q1801 1128 1750 1151Q1698 1174 1639 1174Q1604 1174 1570.5 1164.0Q1537 1154 1508 1131Q1511 1131 1515.0 1129.5Q1519 1128 1519 1124L1511 1117Q1504 1110 1494.5 1099.0Q1485 1088 1477.5 1073.0Q1470 1058 1470 1041Q1470 1024 1483 1024Q1493 1024 1506.0 1037.0Q1519 1050 1537.0 1065.5Q1555 1081 1580.5 1094.0Q1606 1107 1641 1107Q1691 1107 1731.0 1087.5Q1771 1068 1801 1034Q1772 1066 1733.5 1084.0Q1695 1102 1646 1102Q1616 1102 1589.5 1092.0Q1563 1082 1547 1065Q1564 1070 1589.5 1076.0Q1615 1082 1645 1082Q1699 1082 1740.5 1054.5Q1782 1027 1812 985L1826 987Q1849 947 1858.5 901.5Q1868 856 1868 806Q1868 772 1865.0 737.0Q1862 702 1857 666L1852 673Q1857 708 1859.5 741.5Q1862 775 1862 807Q1862 847 1854.0 886.5Q1846 926 1829 959Q1846 924 1853.0 884.5Q1860 845 1860 800Q1855 774 1855.0 748.0Q1855 722 1853 696L1851 676Q1844 686 1830.0 704.0Q1816 722 1797.0 739.5Q1778 757 1754.5 770.0Q1731 783 1705 783L1680 786Q1627 786 1585.0 759.0Q1543 732 1513.0 690.5Q1483 649 1467.0 599.5Q1451 550 1451 504Q1450 499 1450 496V487Q1450 426 1472.0 381.5Q1494 337 1532.5 309.0Q1571 281 1623.0 267.5Q1675 254 1735 254Q1805 254 1877 273Q1871 275 1871 280Q1871 284 1872.5 287.5Q1874 291 1874 295V297Q1871 302 1860 302Q1849 302 1828.0 299.0Q1807 296 1769 291V303Q1803 307 1827.0 315.5Q1851 324 1866.0 334.0Q1881 344 1887.5 353.0Q1894 362 1894 368Q1894 372 1889.5 373.5Q1885 375 1880 375Q1869 375 1840.5 371.0Q1812 367 1769 367Q1728 367 1692.0 372.0Q1656 377 1629.5 391.0Q1603 405 1588.0 430.0Q1573 455 1573 495Q1573 528 1583.5 558.0Q1594 588 1609.5 611.0Q1625 634 1644.0 647.5Q1663 661 1681 661Q1693 661 1710.5 644.0Q1728 627 1747.5 602.0Q1767 577 1785.0 549.0Q1803 521 1816 499ZM1808 708Q1798 718 1786.0 729.5Q1774 741 1759.5 750.5Q1745 760 1727.0 767.5Q1709 775 1688 777L1695 780Q1725 776 1750.0 762.5Q1775 749 1794.5 731.0Q1814 713 1829.0 694.0Q1844 675 1855 661L1853 649Q1844 662 1831.5 678.0Q1819 694 1808 708ZM1881 805Q1881 849 1872 891Q1863 931 1847 966Q1864 930 1874 887Q1885 843 1885 797Q1885 774 1883.5 750.0Q1882 726 1880 702L1875 643L1870 649Q1874 688 1877.5 727.0Q1881 766 1881 805ZM1955 799Q1955 746 1950.5 696.0Q1946 646 1940 597Q1944 643 1949.0 688.5Q1954 734 1954 782Q1954 815 1950.5 851.5Q1947 888 1938.0 924.0Q1929 960 1913 994Q1898 1026 1875 1054Q1915 1008 1932 950Q1950 890 1955 831ZM2439 877Q2401 890 2381.0 891.5Q2361 893 2346 894Q2290 894 2245.0 873.0Q2200 852 2168.0 816.0Q2136 780 2118.5 731.5Q2101 683 2101 628Q2101 596 2107.0 561.5Q2113 527 2125.0 493.5Q2137 460 2156 431Q2174 402 2199 379Q2173 400 2155 429Q2136 458 2123.0 491.5Q2110 525 2104.0 560.5Q2098 596 2098 629Q2098 671 2111.5 718.5Q2125 766 2155.0 806.5Q2185 847 2232.5 874.0Q2280 901 2348 901Q2380 901 2415 892Q2377 917 2330 917Q2292 917 2258.5 905.5Q2225 894 2196.5 873.5Q2168 853 2145.0 825.0Q2122 797 2106 765L2115 757Q2098 723 2090.5 689.0Q2083 655 2083 620Q2083 569 2097.5 522.0Q2112 475 2136 433L2160 400Q2166 389 2177.5 378.0Q2189 367 2203.0 356.5Q2217 346 2232.5 337.5Q2248 329 2262 322Q2298 304 2334.0 289.5Q2370 275 2418 268L2414 265Q2322 274 2258.0 309.5Q2194 345 2154.0 396.0Q2114 447 2096.0 507.5Q2078 568 2078 626Q2078 657 2083.5 688.5Q2089 720 2100 751Q2075 691 2075 624Q2075 558 2097.0 493.0Q2119 428 2166 373Q2226 318 2297.0 288.5Q2368 259 2434 259Q2455 259 2477.0 266.0Q2499 273 2517.0 287.5Q2535 302 2546.5 325.0Q2558 348 2558 381Q2558 408 2545.0 447.0Q2532 486 2506.5 522.5Q2481 559 2443.0 584.5Q2405 610 2355 610H2322Q2285 602 2254.5 591.5Q2224 581 2197 575Q2193 591 2192.5 605.5Q2192 620 2192 634Q2192 663 2198.5 690.5Q2205 718 2219.0 741.0Q2233 764 2254.5 779.5Q2276 795 2307 799Q2326 803 2340.0 803.5Q2354 804 2363.5 804.5Q2373 805 2377.5 807.5Q2382 810 2382 817Q2372 820 2361.5 821.0Q2351 822 2340 822Q2305 822 2277.0 810.5Q2249 799 2229 784Q2252 807 2284.0 816.5Q2316 826 2347 826Q2364 826 2382 823Q2380 829 2380 830Q2380 836 2385 838Q2389 837 2399.0 832.5Q2409 828 2419.5 823.5Q2430 819 2440.0 815.5Q2450 812 2454 812Q2459 812 2463.0 813.5Q2467 815 2467 825Q2467 835 2460.0 849.0Q2453 863 2439 877ZM2301 481 2323 485Q2334 487 2343 487Q2353 487 2366.5 480.5Q2380 474 2393.5 462.0Q2407 450 2417.5 432.0Q2428 414 2433 391L2435 385Q2421 385 2393.0 392.0Q2365 399 2335.0 410.5Q2305 422 2279.0 437.5Q2253 453 2243 471Q2258 474 2272.5 476.5Q2287 479 2301 481ZM2255 555Q2257 553 2257.5 549.0Q2258 545 2258 543L2211 526L2206 540ZM2227 782Q2220 774 2213 766Q2207 759 2203 752Q2212 769 2227 782ZM2821 870Q2811 872 2799 872H2770Q2744 872 2733.5 878.0Q2723 884 2721 884L2717 866V848L2712 754Q2710 727 2701.0 696.0Q2692 665 2687 633Q2684 612 2682 593L2678 554Q2676 534 2673.5 513.0Q2671 492 2666 468Q2666 462 2666.5 456.0Q2667 450 2667 444Q2667 413 2662.0 383.0Q2657 353 2648 324Q2655 321 2661.0 318.5Q2667 316 2672 316Q2677 316 2683.0 327.5Q2689 339 2696 375Q2698 375 2702.0 373.5Q2706 372 2708 372Q2707 355 2703.0 335.5Q2699 316 2695.0 298.0Q2691 280 2687.5 265.5Q2684 251 2684 242Q2684 240 2684.5 237.0Q2685 234 2689 234Q2694 234 2702.0 245.0Q2710 256 2719.0 273.0Q2728 290 2736.5 309.5Q2745 329 2752 346Q2779 295 2813.5 268.5Q2848 242 2904 242Q2945 242 2971.0 251.5Q2997 261 3011.5 272.5Q3026 284 3031 294L3037 304Q3037 310 3031 312Q3005 287 2972.0 274.0Q2939 261 2904 261Q2870 261 2853 270Q2837 278 2819 290Q2838 278 2854 271Q2871 264 2903 264Q2938 264 2970.0 277.5Q3002 291 3025 312Q3020 314 3016.5 316.5Q3013 319 3013 324Q3018 324 3024.0 330.5Q3030 337 3035.0 346.0Q3040 355 3043.5 364.5Q3047 374 3047 380Q3047 397 3034 397Q3024 397 3010 390Q3007 389 2997.5 379.0Q2988 369 2974.0 358.5Q2960 348 2942.0 339.0Q2924 330 2902 330Q2884 330 2870.5 337.5Q2857 345 2846.0 357.5Q2835 370 2826 386L2813 410Q2828 383 2846 361Q2866 335 2896 335Q2922 335 2944.0 346.5Q2966 358 2980 375Q2963 368 2940.0 361.0Q2917 354 2896 354Q2885 354 2877.0 359.0Q2869 364 2863.5 371.5Q2858 379 2853.5 388.0Q2849 397 2844 405L2831 407Q2814 436 2803.5 474.5Q2793 513 2793 555Q2793 580 2795.5 600.0Q2798 620 2803 641L2815 672L2813 643Q2811 609 2809.0 582.5Q2807 556 2807 524Q2809 495 2815 469Q2820 447 2830 428Q2818 452 2814 483Q2809 517 2809 555Q2809 585 2812.0 612.0Q2815 639 2819.5 666.0Q2824 693 2829.0 721.5Q2834 750 2837 784L2840 803L2846 860ZM2833 423 2830 428ZM3627 658V679Q3627 696 3627.5 712.5Q3628 729 3632 743Q3627 792 3624.5 841.0Q3622 890 3622 939L3600 940Q3595 940 3592.5 933.5Q3590 927 3588.5 917.5Q3587 908 3586.5 897.0Q3586 886 3586 877V857H3576Q3576 863 3573.0 883.0Q3570 903 3565.5 925.0Q3561 947 3554.0 964.5Q3547 982 3538 982Q3531 982 3526.0 968.5Q3521 955 3518.0 938.0Q3515 921 3513.0 905.5Q3511 890 3511 885Q3502 797 3502.0 708.5Q3502 620 3494 532Q3491 502 3485.0 473.5Q3479 445 3472.5 416.0Q3466 387 3461.5 358.0Q3457 329 3457 297Q3457 252 3480.0 226.5Q3503 201 3537.5 188.0Q3572 175 3612.0 172.0Q3652 169 3686 169Q3755 169 3821.5 179.0Q3888 189 3940.0 218.0Q3992 247 4023.5 299.5Q4055 352 4055 436Q4055 507 4033.5 560.0Q4012 613 3973.0 648.0Q3934 683 3878.5 700.5Q3823 718 3755 718Q3752 718 3742.0 717.5Q3732 717 3721.0 715.5Q3710 714 3701.5 710.5Q3693 707 3693 701L3696 694Q3713 695 3730.0 695.5Q3747 696 3764 696Q3794 696 3823.5 693.0Q3853 690 3881.0 681.0Q3909 672 3933 656Q3955 641 3974 618Q3954 641 3931 656Q3906 672 3877.5 680.0Q3849 688 3818.5 690.5Q3788 693 3757 693Q3743 693 3728.0 692.5Q3713 692 3699 691L3698 672Q3690 673 3684.0 673.5Q3678 674 3673 674Q3661 674 3651.0 670.5Q3641 667 3627 658ZM3718 283Q3684 283 3646.0 285.5Q3608 288 3576 299L3571 307Q3609 296 3641.0 294.0Q3673 292 3702 292H3706Q3749 292 3791.0 294.5Q3833 297 3866.0 311.5Q3899 326 3919.5 356.5Q3940 387 3940 443Q3940 460 3937.0 475.0Q3934 490 3929 505Q3933 491 3935.5 476.5Q3938 462 3938 447Q3938 409 3925.0 378.0Q3912 347 3883 322L3876 318Q3861 311 3838.5 307.0Q3816 303 3791.0 300.5Q3766 298 3740.5 297.5Q3715 297 3693 297H3665Q3647 297 3623.5 300.0Q3600 303 3583 308Q3583 333 3587.5 357.5Q3592 382 3597 406L3608 454Q3614 478 3616 502L3625 627Q3632 622 3640.5 618.5Q3649 615 3663 615H3668Q3690 622 3713.5 623.0Q3737 624 3760 624Q3808 624 3845.5 615.0Q3883 606 3909.0 584.5Q3935 563 3948.5 527.5Q3962 492 3962 440Q3962 417 3954.5 389.5Q3947 362 3932.0 338.0Q3917 314 3894 298Q3872 282 3843 281Q3871 284 3893 299Q3915 314 3930.0 337.0Q3945 360 3952.5 387.5Q3960 415 3960 441Q3960 532 3916.0 575.0Q3872 618 3781 618Q3759 618 3737 616L3693 612Q3726 604 3760.5 602.5Q3795 601 3826.5 595.0Q3858 589 3883.5 572.5Q3909 556 3925 517L3934 520Q3946 487 3946 451Q3946 396 3927.5 363.0Q3909 330 3878.0 312.0Q3847 294 3805.5 288.5Q3764 283 3718 283ZM4035 434Q4035 393 4024.0 358.5Q4013 324 3990 291Q4011 324 4021.5 361.5Q4032 399 4032 438Q4032 501 4007 559Q4020 531 4027 500Q4035 467 4035 434ZM3867 208Q3881 213 3894.5 216.5Q3908 220 3922 226Q3897 213 3867 208ZM3962 256Q3958 248 3944 239Q3931 231 3923 227Q3933 235 3942 240Q3952 246 3962 256ZM4476 597Q4449 597 4435.5 596.0Q4422 595 4411 595Q4381 595 4358.0 598.0Q4335 601 4319.0 610.0Q4303 619 4295.0 636.0Q4287 653 4287 681Q4287 722 4296.5 741.5Q4306 761 4323.5 769.5Q4341 778 4366.0 780.0Q4391 782 4422 789Q4440 791 4458.0 791.5Q4476 792 4494 792H4566Q4516 789 4466.5 788.5Q4417 788 4377.5 780.0Q4338 772 4313.5 752.0Q4289 732 4289 691Q4289 658 4297.5 640.5Q4306 623 4320.5 614.5Q4335 606 4355.0 604.5Q4375 603 4398 603Q4426 603 4455 606Q4432 613 4408.5 616.5Q4385 620 4365.0 623.5Q4345 627 4330.5 632.5Q4316 638 4311 648V693L4303 697Q4307 722 4310.5 734.5Q4314 747 4330.0 753.5Q4346 760 4381.5 764.0Q4417 768 4485 777H4557Q4576 777 4579.5 775.5Q4583 774 4584 774L4575 720Q4573 700 4570.0 684.0Q4567 668 4562 650Q4561 653 4556 653Q4561 670 4564.5 689.0Q4568 708 4570.5 725.0Q4573 742 4574.5 754.0Q4576 766 4578 768L4572 770Q4570 771 4566 771H4560Q4553 771 4544.0 769.5Q4535 768 4521 768H4488Q4449 768 4416 764Q4385 760 4362 754Q4385 759 4418 762Q4453 766 4483 766Q4496 766 4510.5 765.5Q4525 765 4542 765H4575Q4572 762 4568 762H4566Q4562 693 4548.0 630.0Q4534 567 4503.0 519.5Q4472 472 4422.0 443.5Q4372 415 4297 415Q4276 415 4255.0 418.0Q4234 421 4212 426Q4214 424 4214 422Q4214 417 4210.0 412.5Q4206 408 4206 403Q4206 397 4218.5 391.5Q4231 386 4272 381Q4270 379 4269.5 375.0Q4269 371 4269 369Q4215 369 4185.0 366.5Q4155 364 4155 352Q4155 347 4167.5 338.0Q4180 329 4203.0 320.5Q4226 312 4258.5 305.5Q4291 299 4331 299Q4408 299 4463.0 322.5Q4518 346 4555.5 384.5Q4593 423 4616.5 472.0Q4640 521 4654.5 570.5Q4669 620 4676.0 666.5Q4683 713 4689 747Q4689 753 4689.5 759.0Q4690 765 4690 773Q4690 802 4679.5 823.5Q4669 845 4650.5 859.5Q4632 874 4607.5 881.5Q4583 889 4555 889Q4533 889 4498.0 888.0Q4463 887 4431 882Q4410 877 4385.0 874.5Q4360 872 4334.0 866.0Q4308 860 4283.5 849.0Q4259 838 4239.5 815.5Q4220 793 4208.5 757.0Q4197 721 4197 666Q4197 614 4221.0 582.5Q4245 551 4278.5 533.5Q4312 516 4347.0 510.5Q4382 505 4404 505Q4432 505 4441.0 509.0Q4450 513 4450 517Q4450 520 4449 522Q4424 522 4385.0 524.0Q4346 526 4309.5 537.0Q4273 548 4247.0 570.5Q4221 593 4221 634Q4230 597 4251.5 575.5Q4273 554 4301.0 543.5Q4329 533 4358.5 530.5Q4388 528 4412 528H4446Q4442 532 4442 536Q4442 540 4446 543H4485Q4501 546 4508.0 553.5Q4515 561 4515 567Q4515 576 4506.0 583.0Q4497 590 4476 597ZM4308 839Q4336 850 4365.5 856.0Q4395 862 4424 864Q4453 867 4478 867Q4458 865 4438 860Q4417 855 4401 851Q4384 847 4367.5 845.5Q4351 844 4333.5 841.0Q4316 838 4298.0 831.5Q4280 825 4262 812Q4281 829 4308 839ZM4318 734Q4317 733 4324 740Q4330 746 4340 749Q4335 747 4325 744Q4314 740 4314 732ZM4343 749Q4342 749 4340 749Q4341 749 4343 749ZM4831 807Q4835 779 4838.5 741.5Q4842 704 4845.0 666.0Q4848 628 4851.0 591.5Q4854 555 4857 528Q4852 555 4848.0 590.0Q4844 625 4840.0 662.0Q4836 699 4832.0 735.5Q4828 772 4825 801Q4810 791 4810 774Q4810 754 4811.0 740.5Q4812 727 4814 709L4825 699Q4824 694 4824 690V680Q4824 657 4829.0 627.5Q4834 598 4840.5 567.5Q4847 537 4852.0 508.5Q4857 480 4857 459L4845 456Q4843 480 4839.0 510.5Q4835 541 4830.5 573.5Q4826 606 4822 638Q4820 655 4818 670Q4820 642 4823 610Q4828 564 4833.5 518.5Q4839 473 4844.0 429.0Q4849 385 4854 348Q4854 333 4861.5 315.5Q4869 298 4872 279Q4878 281 4882 281H4889Q4899 281 4902.0 285.5Q4905 290 4905 298V303L4914 306Q4922 291 4933.0 282.0Q4944 273 4955 273Q4979 273 4979 324Q4979 351 4973.5 381.5Q4968 412 4968 441V454Q4968 486 4961.0 523.5Q4954 561 4945.5 599.5Q4937 638 4930.0 674.0Q4923 710 4923 740Q4923 747 4924.0 755.0Q4925 763 4925 770Q4925 785 4919.5 788.5Q4914 792 4906 792Q4906 779 4905.0 760.0Q4904 741 4904 726Q4902 737 4902.0 756.0Q4902 775 4900 792H4885V804Q4876 820 4861 820Q4854 820 4845.0 816.0Q4836 812 4831 807ZM5037 39Q5020 49 5006.0 65.0Q4992 81 4977 96Q4986 90 4993.0 83.0Q5000 76 5007.5 69.0Q5015 62 5023.5 55.0Q5032 48 5043 42Q5046 46 5048.5 49.0Q5051 52 5051 55L5028 78Q5028 76 5024.5 74.0Q5021 72 5019 72Q5016 82 5009.0 88.0Q5002 94 4995.0 99.0Q4988 104 4981.0 110.0Q4974 116 4971 126V128Q4971 129 4974 129L5024 82L5005 101Q4991 115 4975.5 129.5Q4960 144 4946.5 155.0Q4933 166 4930 166L4929 165Q4922 163 4914.5 163.0Q4907 163 4899 162Q4899 154 4896.5 145.0Q4894 136 4894 131Q4894 126 4899 126Q4899 123 4895.5 116.5Q4892 110 4888.0 101.5Q4884 93 4880.5 83.5Q4877 74 4877 64Q4877 54 4885.5 44.5Q4894 35 4905.5 28.0Q4917 21 4928.0 16.0Q4939 11 4944 9Q4948 9 4947.0 4.5Q4946 0 4950 0L4968 6Q4966 11 4955.5 22.5Q4945 34 4940 39Q4947 34 4956.5 24.0Q4966 14 4971 9Q4976 11 4980.0 13.0Q4984 15 4986 15L4989 12Q4996 12 5004.5 15.0Q5013 18 5020.0 22.0Q5027 26 5032.0 31.0Q5037 36 5037 39ZM4816 694Q4817 683 4818 672Q4817 684 4816 694ZM5141 795Q5141 790 5144.0 783.0Q5147 776 5147 768Q5150 744 5151.0 733.5Q5152 723 5152 715Q5152 673 5149.5 624.5Q5147 576 5144 531Q5144 517 5143.5 498.0Q5143 479 5141 468Q5144 433 5146.0 399.0Q5148 365 5148 330V305Q5148 292 5147 279Q5150 282 5153 282Q5157 282 5161.5 279.0Q5166 276 5170 276Q5177 276 5181.5 291.0Q5186 306 5186 357H5195Q5200 301 5210.5 268.0Q5221 235 5232 235Q5237 235 5248.0 256.5Q5259 278 5259 324L5270 306Q5281 293 5294.5 279.0Q5308 265 5325.0 254.0Q5342 243 5363.0 235.5Q5384 228 5411 228Q5463 228 5501.5 251.5Q5540 275 5566.0 312.5Q5592 350 5608.5 397.5Q5625 445 5634.0 493.5Q5643 542 5646.0 587.0Q5649 632 5649 664Q5649 693 5645.5 698.5Q5642 704 5633 705Q5631 628 5623.0 548.0Q5615 468 5585 393Q5612 472 5619.5 548.5Q5627 625 5627 702Q5621 699 5616 699Q5612 699 5609 702Q5609 710 5610 719Q5611 727 5611.5 735.0Q5612 743 5612 750Q5606 773 5600.0 783.0Q5594 793 5589 793Q5583 793 5579.0 787.5Q5575 782 5571.5 774.0Q5568 766 5564.5 756.5Q5561 747 5555 738Q5557 721 5558.0 710.5Q5559 700 5559 693Q5559 666 5558.0 628.0Q5557 590 5552.5 548.5Q5548 507 5538.5 465.5Q5529 424 5512.5 391.5Q5496 359 5471.0 338.5Q5446 318 5411 318Q5387 318 5368.5 334.0Q5350 350 5336.5 375.0Q5323 400 5313.0 429.5Q5303 459 5297 486Q5306 458 5315.5 429.0Q5325 400 5338.5 376.0Q5352 352 5370.0 336.5Q5388 321 5412 321Q5443 321 5465.5 338.0Q5488 355 5503.5 382.0Q5519 409 5528.5 443.5Q5538 478 5543.0 513.5Q5548 549 5549.5 582.5Q5551 616 5551 640Q5551 659 5550.5 678.0Q5550 697 5549 717Q5540 679 5535.5 637.5Q5531 596 5526.0 555.5Q5521 515 5513.5 477.5Q5506 440 5492 408L5499 398Q5489 375 5476.5 362.5Q5464 350 5452.0 344.0Q5440 338 5430.0 337.0Q5420 336 5417 336Q5392 336 5372.5 354.0Q5353 372 5338.5 402.5Q5324 433 5313.0 473.0Q5302 513 5294.0 557.0Q5286 601 5280.0 645.5Q5274 690 5270 729H5279Q5284 695 5289.5 654.0Q5295 613 5301.5 570.5Q5308 528 5317.0 488.0Q5326 448 5338.5 416.0Q5351 384 5368 364Q5384 345 5407 342Q5385 347 5370 370Q5354 394 5342.0 429.0Q5330 464 5320.5 505.5Q5311 547 5303 585L5283 731Q5279 745 5277 756L5273 777Q5271 787 5269.0 798.5Q5267 810 5264 825L5261 837H5255L5154 803Q5149 802 5146.5 800.0Q5144 798 5141 795ZM5315 282Q5295 299 5283.5 318.5Q5272 338 5262 358V359Q5276 330 5301 300Q5325 272 5365 258Q5352 262 5340 266Q5326 271 5315 282ZM5435 249Q5430 248 5421 248Q5453 256 5481.0 265.5Q5509 275 5534 303Q5517 280 5489.5 267.0Q5462 254 5435 249ZM5462 363Q5454 357 5443.5 353.5Q5433 350 5418 344L5417 342Q5434 343 5447.0 349.5Q5460 356 5472 372ZM5536 305Q5550 322 5562.0 344.0Q5574 366 5583 383Q5573 360 5564.0 341.0Q5555 322 5536 305ZM6121 359Q6112 359 6096.5 362.0Q6081 365 6065.5 369.0Q6050 373 6037.5 377.0Q6025 381 6022 383Q6048 379 6070.0 373.5Q6092 368 6118 368Q6113 377 6105.0 382.0Q6097 387 6087.5 389.5Q6078 392 6067.0 393.5Q6056 395 6044 398L6037 389Q6018 396 6008.0 397.5Q5998 399 5987 399Q5975 399 5962.5 398.5Q5950 398 5935 398Q5935 403 5934 406Q5957 406 5973.0 405.5Q5989 405 6012 402Q5990 406 5973.5 408.0Q5957 410 5934 410Q5930 433 5927.0 455.0Q5924 477 5924 498Q5924 510 5925.0 526.0Q5926 542 5927.5 558.5Q5929 575 5930.0 589.5Q5931 604 5931 611V671Q5936 691 5960.0 701.0Q5984 711 6029 711H6061Q6078 711 6084.5 714.5Q6091 718 6091 724Q6091 729 6083.0 729.5Q6075 730 6067 730Q6038 730 6006 726Q5976 722 5947 717Q5976 724 6008 730Q6041 735 6072 735H6081Q6085 735 6090 734Q6090 739 6090.5 743.0Q6091 747 6093 752L6101 750Q6104 749 6108.0 748.5Q6112 748 6114 746Q6146 749 6146 768Q6146 779 6140.0 786.0Q6134 793 6125.0 797.0Q6116 801 6105.0 802.5Q6094 804 6084 804Q6049 804 6015.5 799.5Q5982 795 5950 790Q5978 800 6021.0 806.0Q6064 812 6108 812Q6097 819 6082.0 823.0Q6067 827 6051 827L5979 818Q5965 816 5957.5 814.0Q5950 812 5943.0 809.5Q5936 807 5927.5 804.0Q5919 801 5904 797V786Q5878 779 5862.0 762.0Q5846 745 5837.0 725.0Q5828 705 5825.0 684.5Q5822 664 5822 648Q5822 631 5822.5 616.5Q5823 602 5823 587Q5823 576 5822.5 559.0Q5822 542 5821.0 523.0Q5820 504 5819.5 484.0Q5819 464 5819 446Q5819 435 5819.5 425.0Q5820 415 5821 407H5811Q5810 414 5810 423V441Q5810 470 5811.0 498.5Q5812 527 5812.5 551.0Q5813 575 5814.0 592.5Q5815 610 5815 618V658V666Q5812 639 5809 589Q5806 531 5806 461V443Q5806 432 5806.5 422.0Q5807 412 5809 407L5775 405Q5764 398 5753.0 394.0Q5742 390 5733 390V370Q5733 364 5734.5 359.5Q5736 355 5744 355Q5746 355 5754 357V345Q5743 339 5736.0 328.5Q5729 318 5729 307Q5729 281 5766 281Q5780 281 5795.0 283.0Q5810 285 5826 286Q5830 264 5833.0 246.5Q5836 229 5839.0 212.5Q5842 196 5846.0 179.5Q5850 163 5856 145Q5865 125 5870.0 101.5Q5875 78 5877 55L5898 56Q5903 56 5906.5 59.0Q5910 62 5910 73Q5910 82 5907 97L5919 100Q5927 73 5938.5 56.0Q5950 39 5961 39Q5978 39 5982 82V100Q5982 126 5978.5 148.5Q5975 171 5970.0 193.0Q5965 215 5960.0 238.0Q5955 261 5951 288Q5973 291 5994 291Q6004 291 6014.0 290.5Q6024 290 6034 290Q6044 290 6055.0 282.0Q6066 274 6075 274Q6083 274 6087.0 279.0Q6091 284 6091 290Q6073 295 6055.5 300.5Q6038 306 6022 311Q6038 309 6056.0 303.5Q6074 298 6094 293Q6094 298 6094.5 302.0Q6095 306 6097 311Q6099 311 6102 310Q6108 308 6109 308Q6119 313 6122.0 320.5Q6125 328 6125 337Q6125 344 6123.0 349.5Q6121 355 6121 359ZM5856 728Q5842 701 5841.0 675.0Q5840 649 5838 626L5829 474L5826 492Q5826 559 5830.5 613.5Q5835 668 5844 698Q5844 707 5843.5 710.0Q5843 713 5843 715Q5843 717 5845.5 720.0Q5848 723 5856 728ZM5913 674Q5911 666 5911 657V608Q5910 618 5909.0 627.5Q5908 637 5908 647Q5908 673 5911 687Q5914 699 5923 707Q5918 701 5916 694Q5915 686 5913 674ZM5816 673 5815 666ZM5925 708Q5924 707 5923 707Q5924 707 5925 708Z" /></svg>