<svg viewBox="0 0 7381 2343" xmlns="http://www.w3.org/2000/svg"><path d="M0 191H653V403H259V906H568V1110H259V1899H0ZM920 331Q850 331 807.5 287.0Q765 243 765 163Q765 74 807.5 37.0Q850 0 921 0Q995 0 1036.5 40.0Q1078 80 1078 163Q1078 241 1036.0 286.0Q994 331 920 331ZM795 522H1048V1983Q1048 2133 1009.5 2210.5Q971 2288 909.0 2315.5Q847 2343 776 2343Q746 2343 715.0 2337.5Q684 2332 654 2319V2172Q662 2173 670.0 2173.5Q678 2174 686 2174Q730 2174 762.5 2139.5Q795 2105 795 2015ZM1549 1134Q1587 1115 1631.0 1095.0Q1675 1075 1712 1062V895Q1712 843 1707.5 798.0Q1703 753 1680.5 724.5Q1658 696 1604 696Q1550 696 1507.0 740.0Q1464 784 1464 903V958H1271Q1253 880 1253 822Q1253 668 1354.0 587.5Q1455 507 1612 507Q1749 507 1826.0 545.5Q1903 584 1934.0 661.5Q1965 739 1965 858V1899H1770L1752 1781Q1712 1839 1646.0 1877.0Q1580 1915 1493 1915Q1403 1915 1345.0 1869.0Q1287 1823 1258.5 1747.5Q1230 1672 1230 1583Q1230 1413 1311.0 1312.5Q1392 1212 1549 1134ZM1605 1722Q1637 1722 1664.0 1705.5Q1691 1689 1712 1665V1231Q1693 1239 1671.0 1250.0Q1649 1261 1620 1279Q1567 1312 1521.0 1377.5Q1475 1443 1475 1544Q1475 1623 1506.0 1672.5Q1537 1722 1605 1722ZM2220 80H2473V1899H2220ZM2731 80H2984V1899H2731ZM3485 1134Q3523 1115 3567.0 1095.0Q3611 1075 3648 1062V895Q3648 843 3643.5 798.0Q3639 753 3616.5 724.5Q3594 696 3540 696Q3486 696 3443.0 740.0Q3400 784 3400 903V958H3207Q3189 880 3189 822Q3189 668 3290.0 587.5Q3391 507 3548 507Q3685 507 3762.0 545.5Q3839 584 3870.0 661.5Q3901 739 3901 858V1899H3706L3688 1781Q3648 1839 3582.0 1877.0Q3516 1915 3429 1915Q3339 1915 3281.0 1869.0Q3223 1823 3194.5 1747.5Q3166 1672 3166 1583Q3166 1413 3247.0 1312.5Q3328 1212 3485 1134ZM3541 1722Q3573 1722 3600.0 1705.5Q3627 1689 3648 1665V1231Q3629 1239 3607.0 1250.0Q3585 1261 3556 1279Q3503 1312 3457.0 1377.5Q3411 1443 3411 1544Q3411 1623 3442.0 1672.5Q3473 1722 3541 1722ZM5008 1914Q4946 1914 4872.5 1896.0Q4799 1878 4733.0 1821.0Q4667 1764 4625.0 1649.5Q4583 1535 4583 1343V738Q4583 584 4611.5 481.5Q4640 379 4686.5 317.5Q4733 256 4789.5 225.5Q4846 195 4903.0 185.5Q4960 176 5008 176Q5054 176 5110.5 185.0Q5167 194 5223.0 223.5Q5279 253 5325.5 314.0Q5372 375 5400.5 478.0Q5429 581 5429 738V1343Q5429 1533 5385.0 1647.0Q5341 1761 5274.0 1818.5Q5207 1876 5135.5 1895.0Q5064 1914 5008 1914ZM5008 1711Q5085 1711 5122.0 1653.0Q5159 1595 5159 1436V666Q5159 502 5122.0 440.5Q5085 379 5008 379Q4929 379 4891.5 440.5Q4854 502 4854 666V1436Q4854 1595 4891.5 1653.0Q4929 1711 5008 1711ZM5666 522H5859L5884 669V670Q5943 575 6018.0 540.5Q6093 506 6169 506Q6289 506 6355.0 591.0Q6421 676 6421 844V1899H6168V874Q6168 783 6140.0 747.5Q6112 712 6058 712Q6020 712 5984.0 737.0Q5948 762 5919 806V1899H5666ZM6643 1335V1075Q6643 917 6670.0 813.0Q6697 709 6741.5 647.0Q6786 585 6839.5 555.0Q6893 525 6946.0 515.5Q6999 506 7043 506Q7134 506 7211.0 544.5Q7288 583 7334.5 676.5Q7381 770 7381 936Q7381 1019 7372.0 1105.5Q7363 1192 7348 1258H6897V1398Q6897 1578 6927.5 1652.0Q6958 1726 7044 1726Q7091 1726 7129.0 1685.5Q7167 1645 7167 1536V1476H7375V1539Q7375 1735 7281.5 1824.5Q7188 1914 7011 1914Q6833 1914 6738.0 1778.0Q6643 1642 6643 1335ZM7145 1088Q7147 1066 7148.0 1021.5Q7149 977 7149 950Q7149 813 7120.0 754.0Q7091 695 7028 694Q6961 694 6929.0 761.5Q6897 829 6897 1007V1088Z" /></svg>