<svg viewBox="0 0 3784 1031" xmlns="http://www.w3.org/2000/svg"><path d="M102 239H43Q33 239 26.5 232.5Q20 226 20.0 216.0Q20 206 26.5 199.0Q33 192 43 192H485Q511 192 511 216V298Q511 308 503.0 314.5Q495 321 484.0 321.0Q473 321 465.0 314.5Q457 308 457 298V239H156V471H409V434Q409 424 416.5 417.5Q424 411 435.0 411.0Q446 411 453.5 417.5Q461 424 461 434V556Q461 566 453.5 572.5Q446 579 435.0 579.0Q424 579 416.5 572.5Q409 566 409 556V518H156V787Q156 797 148.0 803.5Q140 810 129.0 810.0Q118 810 110.0 803.5Q102 797 102 787ZM691 753H730Q740 753 746.5 760.0Q753 767 753.0 777.0Q753 787 746.5 793.5Q740 800 730 800H691Q610 800 610 735V97H544Q534 97 527.5 90.5Q521 84 521.0 74.0Q521 64 527.5 57.0Q534 50 544 50H637Q648 50 656.0 57.0Q664 64 664 74V734Q664 753 691 753ZM1078 645Q1012 627 965.5 627.0Q919 627 889.5 645.0Q860 663 860.0 695.5Q860 728 879.0 746.0Q898 764 931 764Q1023 764 1078 664ZM1158 753H1197Q1207 753 1213.5 760.0Q1220 767 1220.0 777.0Q1220 787 1213.5 793.5Q1207 800 1197 800H1153Q1117 800 1097.5 784.0Q1078 768 1078 739Q1078 734 1079 728Q1026 810 925 810Q869 810 837.5 780.0Q806 750 806.0 696.5Q806 643 848.5 612.5Q891 582 954.5 582.0Q1018 582 1078 603V534Q1078 486 1043 472Q1016 462 968.5 462.0Q921 462 881 478V541Q881 551 873.0 557.5Q865 564 854.0 564.0Q843 564 835.0 557.5Q827 551 827 541V465Q827 452 840 445Q889 416 970.0 416.0Q1051 416 1091.0 442.5Q1131 469 1131 534V734Q1131 753 1158 753ZM1850 524V734Q1850 753 1877 753H1916Q1926 753 1932.5 760.0Q1939 767 1939.0 777.0Q1939 787 1932.5 793.5Q1926 800 1916 800H1877Q1796 800 1796 735V524Q1796 462 1738 462Q1660 462 1609 549V787Q1609 797 1601.0 803.5Q1593 810 1582.0 810.0Q1571 810 1563.0 803.5Q1555 797 1555 787V524Q1555 462 1497 462Q1452 462 1421.5 485.0Q1391 508 1363 557V787Q1363 797 1355.0 803.5Q1347 810 1336.0 810.0Q1325 810 1317.0 803.5Q1309 797 1309 787V492Q1309 473 1290 473H1243Q1233 473 1226.5 466.5Q1220 460 1220.0 450.0Q1220 440 1226.5 433.0Q1233 426 1243 426H1297Q1359 426 1359 494Q1390 454 1421.5 435.0Q1453 416 1498 416Q1584 416 1604 488Q1634 452 1665.0 434.0Q1696 416 1743.0 416.0Q1790 416 1820.0 443.5Q1850 471 1850 524ZM2038 580H2286Q2283 526 2254.5 494.0Q2226 462 2172.5 462.0Q2119 462 2083.0 494.5Q2047 527 2038 580ZM2288 704Q2295 692 2304.0 692.0Q2313 692 2322.0 696.5Q2331 701 2334.5 710.5Q2338 720 2333 728Q2282 810 2171 810Q2083 810 2032.5 753.5Q1982 697 1982.0 611.0Q1982 525 2034.0 470.5Q2086 416 2171.0 416.0Q2256 416 2297.5 467.0Q2339 518 2339 603Q2339 626 2313 626L2036 627Q2040 689 2076.5 726.5Q2113 764 2171 764Q2249 764 2288 704ZM2456 473H2409Q2399 473 2392.5 466.5Q2386 460 2386.0 450.0Q2386 440 2392.5 433.0Q2399 426 2409 426H2463Q2525 426 2525 494Q2585 416 2676 416Q2730 416 2764.5 443.5Q2799 471 2799 524V734Q2799 753 2826 753H2865Q2875 753 2881.5 760.0Q2888 767 2888.0 777.0Q2888 787 2881.5 793.5Q2875 800 2865 800H2826Q2745 800 2745 735V524Q2745 494 2726.5 478.0Q2708 462 2675 462Q2583 462 2529 558V787Q2529 797 2521.0 803.5Q2513 810 2502.0 810.0Q2491 810 2483.0 803.5Q2475 797 2475 787V492Q2475 473 2456 473ZM3235 704Q3243 692 3251.5 692.0Q3260 692 3269 696Q3283 702 3283.0 712.5Q3283 723 3280 728Q3229 810 3118 810Q3033 810 2982.0 752.5Q2931 695 2931.0 611.0Q2931 527 2984.5 471.5Q3038 416 3117.5 416.0Q3197 416 3256 453Q3268 461 3268 472V556Q3268 566 3260.0 572.5Q3252 579 3241.0 579.0Q3230 579 3222.0 572.5Q3214 566 3214 556V485Q3174 462 3118.0 462.0Q3062 462 3023.0 504.0Q2984 546 2984.0 612.5Q2984 679 3021.5 721.5Q3059 764 3118 764Q3196 764 3235 704ZM3552.0 764.0Q3613 764 3651.5 722.0Q3690 680 3690.0 613.5Q3690 547 3651.5 504.5Q3613 462 3552.0 462.0Q3491 462 3452.5 504.5Q3414 547 3414.0 613.5Q3414 680 3452.5 722.0Q3491 764 3552.0 764.0ZM3413.5 754.5Q3360 699 3360.0 613.0Q3360 527 3414.0 471.5Q3468 416 3552.0 416.0Q3636 416 3689.5 471.5Q3743 527 3743.0 613.5Q3743 700 3689.5 755.0Q3636 810 3551.5 810.0Q3467 810 3413.5 754.5Z" fill="currentColor" /></svg>