<svg viewBox="0 0 3141.581818181818 862.925" xmlns="http://www.w3.org/2000/svg"><path d="M542.4 61.799999999999955Q533.4 60.799999999999955 529.9 54.299999999999955Q526.4 47.799999999999955 523.4 40.799999999999955Q519.4 32.799999999999955 521.4 25.799999999999955Q529.4 20.799999999999955 537.9 18.299999999999955Q546.4 15.799999999999955 554.4 21.799999999999955Q556.4 23.799999999999955 559.4 27.299999999999955Q562.4 30.799999999999955 563.4 33.799999999999955Q563.4 34.799999999999955 562.4 39.299999999999955Q561.4 43.799999999999955 559.4 44.799999999999955Q556.4 55.799999999999955 545.4 57.799999999999955ZM137.4 24.799999999999955Q147.4 23.799999999999955 156.4 25.299999999999955Q165.4 26.799999999999955 173.4 28.799999999999955Q191.4 36.799999999999955 202.4 41.299999999999955Q213.4 45.799999999999955 228.4 50.799999999999955Q233.4 48.799999999999955 239.9 46.799999999999955Q246.4 44.799999999999955 250.4 40.799999999999955Q255.4 39.799999999999955 259.4 39.299999999999955Q263.4 38.799999999999955 266.4 40.799999999999955Q270.4 38.799999999999955 276.4 39.799999999999955Q282.4 40.799999999999955 287.4 39.799999999999955Q301.4 37.799999999999955 315.4 38.799999999999955Q329.4 39.799999999999955 340.4 42.799999999999955Q351.4 44.799999999999955 360.9 43.799999999999955Q370.4 42.799999999999955 380.4 42.799999999999955Q388.4 42.799999999999955 393.9 43.799999999999955Q399.4 44.799999999999955 405.4 44.799999999999955Q408.4 43.799999999999955 411.9 43.799999999999955Q415.4 43.799999999999955 418.4 42.799999999999955Q429.4 38.799999999999955 432.4 38.799999999999955Q435.4 38.799999999999955 436.4 36.799999999999955Q443.4 34.799999999999955 450.9 36.299999999999955Q458.4 37.799999999999955 466.4 39.799999999999955Q471.4 45.799999999999955 478.9 47.799999999999955Q486.4 49.799999999999955 491.4 54.799999999999955Q500.4 64.79999999999995 505.9 74.29999999999995Q511.4 83.79999999999995 513.4 98.79999999999995Q515.4 101.79999999999995 516.4 105.29999999999995Q517.4 108.79999999999995 520.4 110.79999999999995Q520.4 150.79999999999995 500.4 164.79999999999995Q500.4 168.79999999999995 497.9 170.29999999999995Q495.4 171.79999999999995 495.4 175.79999999999995Q491.4 173.79999999999995 490.4 177.79999999999995Q489.4 181.79999999999995 484.4 180.79999999999995Q478.4 186.79999999999995 468.9 188.29999999999995Q459.4 189.79999999999995 452.4 194.79999999999995Q446.4 195.79999999999995 436.4 196.29999999999995Q426.4 196.79999999999995 421.4 191.79999999999995Q417.4 184.79999999999995 412.9 181.29999999999995Q408.4 177.79999999999995 406.4 170.79999999999995Q401.4 167.79999999999995 397.9 162.79999999999995Q394.4 157.79999999999995 386.4 157.79999999999995Q384.4 155.79999999999995 380.9 155.79999999999995Q377.4 155.79999999999995 375.4 153.79999999999995Q365.4 151.79999999999995 357.4 151.29999999999995Q349.4 150.79999999999995 341.4 150.79999999999995Q333.4 150.79999999999995 325.9 149.79999999999995Q318.4 148.79999999999995 312.4 144.79999999999995Q308.4 146.79999999999995 303.9 145.79999999999995Q299.4 144.79999999999995 294.4 145.79999999999995Q288.4 146.79999999999995 282.9 149.29999999999995Q277.4 151.79999999999995 270.4 153.79999999999995Q265.4 155.79999999999995 263.9 157.79999999999995Q262.4 159.79999999999995 257.4 162.79999999999995Q248.4 165.79999999999995 246.9 167.29999999999995Q245.4 168.79999999999995 241.4 169.79999999999995Q237.4 171.79999999999995 233.9 175.29999999999995Q230.4 178.79999999999995 225.4 178.79999999999995Q218.4 182.79999999999995 212.9 187.29999999999995Q207.4 191.79999999999995 201.4 196.79999999999995Q197.4 200.79999999999995 194.9 202.79999999999995Q192.4 204.79999999999995 189.4 206.79999999999995Q187.4 212.79999999999995 185.4 217.29999999999995Q183.4 221.79999999999995 182.4 229.79999999999995Q179.4 238.79999999999995 180.4 239.79999999999995Q181.4 240.79999999999995 181.4 242.79999999999995Q180.4 247.79999999999995 179.4 251.29999999999995Q178.4 254.79999999999995 178.4 259.79999999999995Q181.4 270.79999999999995 180.4 271.29999999999995Q179.4 271.79999999999995 179.4 273.79999999999995Q179.4 283.79999999999995 180.9 294.79999999999995Q182.4 305.79999999999995 179.4 316.79999999999995Q180.4 322.79999999999995 181.9 328.29999999999995Q183.4 333.79999999999995 188.4 336.79999999999995Q205.4 339.79999999999995 219.9 338.29999999999995Q234.4 336.79999999999995 248.4 334.79999999999995Q256.4 337.79999999999995 266.4 335.29999999999995Q276.4 332.79999999999995 284.4 330.79999999999995Q293.4 327.79999999999995 295.4 326.29999999999995Q297.4 324.79999999999995 300.4 326.79999999999995Q306.4 323.79999999999995 313.4 321.29999999999995Q320.4 318.79999999999995 326.4 316.79999999999995Q330.4 314.79999999999995 333.4 313.79999999999995Q336.4 312.79999999999995 341.4 312.79999999999995Q351.4 316.79999999999995 352.9 316.29999999999995Q354.4 315.79999999999995 356.4 315.79999999999995Q368.4 324.79999999999995 373.4 325.79999999999995Q378.4 326.79999999999995 381.4 330.79999999999995Q386.4 337.79999999999995 386.4 344.79999999999995Q386.4 351.79999999999995 387.4 358.79999999999995Q388.4 365.79999999999995 390.4 371.29999999999995Q392.4 376.79999999999995 383.4 380.79999999999995Q374.4 396.79999999999995 366.4 401.29999999999995Q358.4 405.79999999999995 352.4 410.79999999999995Q349.4 412.79999999999995 347.4 415.29999999999995Q345.4 417.79999999999995 342.4 419.79999999999995Q341.4 425.79999999999995 334.4 428.79999999999995Q330.4 438.79999999999995 321.4 441.79999999999995Q314.4 451.79999999999995 301.9 452.29999999999995Q289.4 452.79999999999995 275.4 454.79999999999995Q271.4 453.79999999999995 262.9 454.79999999999995Q254.4 455.79999999999995 251.4 451.79999999999995Q243.4 450.79999999999995 235.4 448.79999999999995Q227.4 446.79999999999995 221.4 439.79999999999995Q211.4 436.79999999999995 200.9 435.79999999999995Q190.4 434.79999999999995 181.4 438.79999999999995Q168.4 445.79999999999995 167.4 452.79999999999995Q167.4 456.79999999999995 169.9 458.79999999999995Q172.4 460.79999999999995 174.4 464.79999999999995Q178.4 469.79999999999995 179.9 479.29999999999995Q181.4 488.79999999999995 180.4 493.79999999999995Q184.4 497.79999999999995 182.9 505.79999999999995Q181.4 513.8 182.4 520.8Q181.4 532.8 182.9 542.3Q184.4 551.8 186.4 559.8Q184.4 564.8 184.9 572.3Q185.4 579.8 183.4 584.8Q186.4 590.8 184.9 597.8Q183.4 604.8 182.4 610.8Q180.4 622.8 181.9 634.3Q183.4 645.8 186.4 657.8Q192.4 666.8 192.4 676.8Q192.4 686.8 189.4 697.3Q186.4 707.8 182.4 718.3Q178.4 728.8 177.4 738.8Q178.4 744.8 176.4 753.8Q174.4 762.8 171.4 767.8Q163.4 775.8 163.4 780.8Q155.4 788.8 147.4 788.8Q132.4 786.8 127.4 790.3Q122.4 793.8 117.4 792.8Q110.4 789.8 107.4 790.8Q104.4 791.8 102.4 791.8Q97.4 791.8 94.4 789.8Q91.4 787.8 86.4 785.8Q81.4 777.8 75.9 770.3Q70.4 762.8 68.4 752.8Q66.4 749.8 64.9 746.8Q63.4 743.8 61.4 741.8Q60.4 736.8 58.9 731.3Q57.4 725.8 57.4 720.8Q53.4 715.8 52.9 708.8Q52.4 701.8 47.4 696.8Q43.4 687.8 42.9 678.3Q42.4 668.8 44.4 660.8Q49.4 646.8 52.9 637.3Q56.4 627.8 59.4 616.8Q65.4 593.8 76.4 580.8Q77.4 575.8 80.4 569.8Q83.4 563.8 85.4 557.8Q85.4 551.8 85.9 548.3Q86.4 544.8 85.4 540.8Q88.4 534.8 88.4 526.8Q88.4 518.8 87.4 509.79999999999995Q86.4 500.79999999999995 86.4 492.29999999999995Q86.4 483.79999999999995 89.4 476.79999999999995Q89.4 465.79999999999995 88.4 453.29999999999995Q87.4 440.79999999999995 87.4 428.79999999999995Q84.4 425.79999999999995 84.9 421.29999999999995Q85.4 416.79999999999995 84.4 413.79999999999995Q76.4 416.79999999999995 66.9 412.29999999999995Q57.4 407.79999999999995 45.4 409.79999999999995Q41.4 407.79999999999995 39.4 404.29999999999995Q37.4 400.79999999999995 34.4 398.79999999999995Q34.4 394.79999999999995 32.9 392.79999999999995Q31.4 390.79999999999995 33.4 386.79999999999995Q30.4 384.79999999999995 30.9 382.29999999999995Q31.4 379.79999999999995 29.4 374.79999999999995Q27.4 368.79999999999995 26.4 366.29999999999995Q25.4 363.79999999999995 24.4 361.79999999999995Q22.4 352.79999999999995 28.4 349.79999999999995Q27.4 341.79999999999995 31.9 339.79999999999995Q36.4 337.79999999999995 41.4 334.79999999999995Q52.4 329.79999999999995 57.4 330.79999999999995Q62.4 331.79999999999995 64.4 326.79999999999995Q67.4 328.79999999999995 69.4 327.29999999999995Q71.4 325.79999999999995 75.4 325.79999999999995Q81.4 317.79999999999995 79.4 306.79999999999995Q77.4 295.79999999999995 79.4 287.79999999999995Q77.4 280.79999999999995 76.9 275.79999999999995Q76.4 270.79999999999995 78.4 266.79999999999995Q78.4 251.79999999999995 78.9 245.29999999999995Q79.4 238.79999999999995 81.4 230.79999999999995Q83.4 220.79999999999995 83.4 219.79999999999995Q82.4 214.79999999999995 82.9 210.79999999999995Q83.4 206.79999999999995 81.4 202.79999999999995Q80.4 196.79999999999995 81.4 190.79999999999995Q82.4 184.79999999999995 79.4 182.79999999999995Q81.4 174.79999999999995 77.4 169.79999999999995Q73.4 164.79999999999995 71.4 159.79999999999995Q69.4 156.79999999999995 66.4 153.79999999999995Q63.4 150.79999999999995 64.4 146.79999999999995Q59.4 140.79999999999995 53.9 132.79999999999995Q48.4 124.79999999999995 50.4 115.79999999999995Q46.4 101.79999999999995 44.4 92.29999999999995Q42.4 82.79999999999995 43.4 75.79999999999995Q44.4 68.79999999999995 49.4 63.799999999999955Q54.4 58.799999999999955 56.4 53.799999999999955Q65.4 45.799999999999955 67.9 40.799999999999955Q70.4 35.799999999999955 75.4 31.799999999999955Q85.4 30.799999999999955 86.4 30.799999999999955Q91.4 30.799999999999955 93.9 29.299999999999955Q96.4 27.799999999999955 98.4 26.799999999999955L113.4 24.799999999999955Q121.4 20.799999999999955 125.9 21.799999999999955Q130.4 22.799999999999955 136.4 21.799999999999955ZM16.4 205.79999999999995Q13.4 205.79999999999995 9.9 202.79999999999995Q6.4 199.79999999999995 7.4 197.79999999999995Q2.4000000000000004 194.79999999999995 0.9000000000000004 188.29999999999995Q-0.5999999999999996 181.79999999999995 0.40000000000000036 175.29999999999995Q1.4000000000000004 168.79999999999995 5.4 163.29999999999995Q9.4 157.79999999999995 14.4 155.79999999999995Q29.4 147.79999999999995 36.9 156.79999999999995Q44.4 165.79999999999995 44.4 175.79999999999995Q45.4 188.79999999999995 37.4 197.79999999999995Q29.4 206.79999999999995 16.4 205.79999999999995ZM244.4 215.79999999999995Q245.4 220.79999999999995 247.4 223.29999999999995Q249.4 225.79999999999995 250.4 228.79999999999995Q248.4 230.79999999999995 247.9 234.79999999999995Q247.4 238.79999999999995 245.4 242.79999999999995Q236.4 247.79999999999995 234.4 251.29999999999995Q232.4 254.79999999999995 229.9 256.79999999999995Q227.4 258.79999999999995 223.9 258.79999999999995Q220.4 258.79999999999995 216.4 253.79999999999995Q215.4 248.79999999999995 215.4 244.29999999999995Q215.4 239.79999999999995 215.4 234.79999999999995Q217.4 226.79999999999995 225.4 218.79999999999995Q233.4 210.79999999999995 244.4 215.79999999999995ZM216.4 305.79999999999995Q210.4 298.79999999999995 210.4 293.79999999999995Q210.4 288.79999999999995 214.4 289.79999999999995Q215.4 284.79999999999995 220.4 282.29999999999995Q225.4 279.79999999999995 230.4 280.79999999999995Q238.4 282.79999999999995 238.4 289.29999999999995Q238.4 295.79999999999995 232.4 300.79999999999995Q224.4 304.79999999999995 222.9 305.79999999999995Q221.4 306.79999999999995 216.4 305.79999999999995ZM405.4 468.79999999999995Q400.4 473.79999999999995 395.9 475.29999999999995Q391.4 476.79999999999995 386.4 479.79999999999995Q384.4 476.79999999999995 381.9 475.79999999999995Q379.4 474.79999999999995 376.4 470.79999999999995Q374.4 468.79999999999995 373.4 465.79999999999995Q372.4 462.79999999999995 370.4 460.79999999999995Q365.4 453.79999999999995 366.4 450.29999999999995Q367.4 446.79999999999995 368.4 444.79999999999995Q374.4 435.79999999999995 376.4 434.79999999999995Q382.4 428.79999999999995 382.9 427.29999999999995Q383.4 425.79999999999995 384.4 424.79999999999995Q399.4 416.79999999999995 409.4 417.29999999999995Q419.4 417.79999999999995 422.4 425.79999999999995Q424.4 440.79999999999995 417.4 449.79999999999995Q410.4 458.79999999999995 405.4 468.79999999999995ZM231.4 723.8Q231.4 731.8 228.9 739.3Q226.4 746.8 221.4 749.8Q217.4 751.8 214.9 754.3Q212.4 756.8 209.4 756.8Q201.4 755.8 198.9 745.8Q196.4 735.8 201.4 730.8Q200.4 724.8 203.4 723.3Q206.4 721.8 207.4 717.8Q222.4 712.8 225.9 715.8Q229.4 718.8 231.4 723.8ZM676.4 9.799999999999955Q687.4 2.7999999999999545 693.9 0.7999999999999545Q700.4 -1.2000000000000455 706.4 1.7999999999999545Q708.4 3.7999999999999545 714.9 9.799999999999955Q721.4 15.799999999999955 722.4 19.799999999999955Q724.4 26.799999999999955 720.9 31.299999999999955Q717.4 35.799999999999955 710.4 39.799999999999955Q707.4 41.799999999999955 704.4 42.799999999999955Q701.4 43.799999999999955 696.4 42.799999999999955Q688.4 34.799999999999955 685.4 31.799999999999955Q682.4 28.799999999999955 679.4 25.799999999999955Q676.4 22.799999999999955 675.4 19.299999999999955Q674.4 15.799999999999955 676.4 9.799999999999955ZM675.4 50.799999999999955Q679.4 63.799999999999955 682.4 81.29999999999995Q685.4 98.79999999999995 678.4 112.79999999999995Q678.4 117.79999999999995 677.9 122.29999999999995Q677.4 126.79999999999995 676.4 133.79999999999995Q668.4 143.79999999999995 660.4 154.29999999999995Q652.4 164.79999999999995 654.4 180.79999999999995Q649.4 191.79999999999995 651.9 204.79999999999995Q654.4 217.79999999999995 652.4 228.79999999999995Q651.4 263.79999999999995 656.9 288.79999999999995Q662.4 313.79999999999995 661.4 343.79999999999995Q662.4 353.79999999999995 663.4 360.29999999999995Q664.4 366.79999999999995 669.4 370.79999999999995Q668.4 375.79999999999995 669.4 381.79999999999995Q670.4 387.79999999999995 666.4 392.79999999999995Q668.4 396.79999999999995 668.9 402.29999999999995Q669.4 407.79999999999995 672.4 410.79999999999995Q670.4 423.79999999999995 667.4 433.79999999999995Q664.4 443.79999999999995 664.4 452.79999999999995Q664.4 455.79999999999995 665.4 459.29999999999995Q666.4 462.79999999999995 666.4 465.79999999999995Q665.4 476.79999999999995 666.4 478.29999999999995Q667.4 479.79999999999995 667.4 481.79999999999995Q668.4 490.79999999999995 667.4 491.29999999999995Q666.4 491.79999999999995 666.4 492.79999999999995Q666.4 497.79999999999995 668.9 502.79999999999995Q671.4 507.79999999999995 674.4 511.79999999999995Q672.4 514.8 673.4 517.8Q674.4 520.8 675.4 523.8Q676.4 528.8 675.4 533.3Q674.4 537.8 676.4 541.8Q678.4 546.8 680.4 549.8Q682.4 552.8 681.4 557.8Q685.4 562.8 684.4 570.8Q683.4 578.8 687.4 582.8Q685.4 587.8 685.9 596.8Q686.4 605.8 684.4 613.8Q683.4 616.8 682.9 619.3Q682.4 621.8 682.4 626.8Q682.4 631.8 680.9 637.3Q679.4 642.8 679.4 648.8Q679.4 652.8 680.4 656.3Q681.4 659.8 681.4 664.8Q679.4 679.8 682.4 691.3Q685.4 702.8 683.4 713.8Q685.4 719.8 686.4 725.3Q687.4 730.8 685.4 737.8Q688.4 745.8 689.4 754.3Q690.4 762.8 687.4 770.8Q678.4 782.8 670.9 786.8Q663.4 790.8 656.4 789.8Q639.4 796.8 628.9 802.3Q618.4 807.8 605.4 806.8Q593.4 803.8 589.4 804.8Q585.4 805.8 583.4 803.8Q578.4 806.8 574.4 805.8Q570.4 804.8 567.4 802.8Q564.4 800.8 560.9 797.8Q557.4 794.8 552.4 794.8Q550.4 791.8 548.4 790.3Q546.4 788.8 544.4 784.8Q533.4 776.8 533.9 770.3Q534.4 763.8 529.4 762.8Q526.4 737.8 531.9 709.8Q537.4 681.8 551.4 663.8Q558.4 632.8 561.9 611.3Q565.4 589.8 565.4 567.8Q565.4 561.8 564.4 555.3Q563.4 548.8 564.4 542.8Q565.4 539.8 566.4 536.8Q567.4 533.8 567.4 530.8Q568.4 526.8 567.4 522.8Q566.4 518.8 567.4 513.8Q569.4 507.79999999999995 568.9 505.29999999999995Q568.4 502.79999999999995 568.4 500.79999999999995Q569.4 493.79999999999995 570.9 486.79999999999995Q572.4 479.79999999999995 572.4 472.79999999999995Q572.4 465.79999999999995 573.9 462.79999999999995Q575.4 459.79999999999995 575.4 455.79999999999995Q573.4 443.79999999999995 573.9 440.79999999999995Q574.4 437.79999999999995 574.4 435.79999999999995Q573.4 426.79999999999995 573.9 415.79999999999995Q574.4 404.79999999999995 577.4 395.79999999999995Q579.4 385.79999999999995 582.9 375.79999999999995Q586.4 365.79999999999995 585.4 354.79999999999995Q583.4 347.79999999999995 585.4 342.79999999999995Q584.4 339.79999999999995 582.4 335.79999999999995Q580.4 331.79999999999995 582.4 329.79999999999995Q582.4 319.79999999999995 577.9 315.79999999999995Q573.4 311.79999999999995 571.4 303.79999999999995Q567.4 299.79999999999995 566.4 291.79999999999995Q565.4 283.79999999999995 564.4 277.79999999999995Q564.4 274.79999999999995 564.4 269.79999999999995Q564.4 264.79999999999995 565.4 262.79999999999995Q570.4 249.79999999999995 569.9 245.79999999999995Q569.4 241.79999999999995 571.4 238.79999999999995Q569.4 233.79999999999995 569.9 229.79999999999995Q570.4 225.79999999999995 566.4 221.79999999999995Q564.4 209.79999999999995 563.4 205.29999999999995Q562.4 200.79999999999995 560.4 195.79999999999995Q557.4 190.79999999999995 554.4 186.29999999999995Q551.4 181.79999999999995 552.4 173.79999999999995Q553.4 167.79999999999995 553.4 160.29999999999995Q553.4 152.79999999999995 555.4 147.79999999999995Q553.4 134.79999999999995 553.9 121.29999999999995Q554.4 107.79999999999995 552.4 93.79999999999995Q551.4 88.79999999999995 550.4 85.79999999999995Q549.4 82.79999999999995 551.4 78.79999999999995Q551.4 74.79999999999995 550.9 72.29999999999995Q550.4 69.79999999999995 550.4 67.79999999999995Q552.4 61.799999999999955 555.4 57.799999999999955Q558.4 53.799999999999955 561.4 48.799999999999955Q570.4 41.799999999999955 569.4 42.299999999999955Q568.4 42.799999999999955 569.4 40.799999999999955Q574.4 37.799999999999955 577.9 37.299999999999955Q581.4 36.799999999999955 585.4 32.799999999999955Q591.4 29.799999999999955 596.9 32.299999999999955Q602.4 34.799999999999955 608.4 34.799999999999955Q613.4 35.799999999999955 616.9 33.799999999999955Q620.4 31.799999999999955 625.4 31.799999999999955Q631.4 31.799999999999955 637.9 36.299999999999955Q644.4 40.799999999999955 651.4 40.799999999999955Q654.4 46.799999999999955 660.9 48.299999999999955Q667.4 49.799999999999955 675.4 50.799999999999955ZM528.4 367.79999999999995Q528.4 364.79999999999995 525.9 362.79999999999995Q523.4 360.79999999999995 525.4 356.79999999999995Q523.4 339.79999999999995 521.9 328.29999999999995Q520.4 316.79999999999995 528.4 308.79999999999995Q541.4 310.79999999999995 547.4 310.29999999999995Q553.4 309.79999999999995 554.4 317.79999999999995Q562.4 328.79999999999995 558.4 345.29999999999995Q554.4 361.79999999999995 544.4 367.79999999999995Q539.4 366.79999999999995 536.4 368.79999999999995Q533.4 370.79999999999995 528.4 367.79999999999995ZM656.4 820.8Q661.4 827.8 657.9 833.8Q654.4 839.8 654.4 846.8Q647.4 848.8 641.9 854.3Q636.4 859.8 628.4 859.8Q623.4 864.8 617.4 861.8Q611.4 858.8 606.4 855.8Q608.4 830.8 622.9 824.8Q637.4 818.8 656.4 820.8ZM496.4 753.8Q504.4 752.8 506.4 757.3Q508.4 761.8 513.4 763.8Q514.4 771.8 511.9 777.8Q509.4 783.8 506.4 789.8Q501.4 793.8 497.4 790.8Q493.4 787.8 488.4 786.8Q480.4 774.8 481.4 770.8Q482.4 766.8 483.4 762.8Q486.4 760.8 489.9 758.3Q493.4 755.8 496.4 753.8ZM1189.4 732.8Q1187.4 739.8 1180.9 741.3Q1174.4 742.8 1171.4 747.8Q1164.4 751.8 1157.4 751.8Q1150.4 751.8 1142.4 752.8Q1133.4 750.8 1131.4 747.8Q1122.4 748.8 1116.9 743.3Q1111.4 737.8 1104.4 734.8Q1102.4 731.8 1100.4 727.8Q1098.4 723.8 1093.4 724.8Q1094.4 719.8 1090.4 716.8Q1086.4 713.8 1084.4 709.8Q1079.4 708.8 1076.4 705.3Q1073.4 701.8 1068.4 701.8Q1062.4 701.8 1058.4 707.8Q1054.4 713.8 1048.4 715.8Q1046.4 717.8 1043.9 719.8Q1041.4 721.8 1040.4 724.8Q1035.4 724.8 1031.4 727.3Q1027.4 729.8 1023.4 732.8Q1006.4 729.8 993.9 736.3Q981.4 742.8 965.4 741.8Q953.4 743.8 948.9 744.8Q944.4 745.8 939.4 745.8Q928.4 746.8 921.4 742.8Q914.4 744.8 908.4 742.3Q902.4 739.8 895.4 741.8Q890.4 738.8 886.4 741.3Q882.4 743.8 876.4 742.8Q864.4 736.8 860.9 736.8Q857.4 736.8 853.4 734.8Q851.4 732.8 848.4 729.8Q845.4 726.8 839.4 726.8Q828.4 719.8 826.9 714.8Q825.4 709.8 823.4 705.8Q818.4 696.8 818.9 693.3Q819.4 689.8 818.4 685.8Q814.4 680.8 809.9 676.8Q805.4 672.8 802.4 667.8Q800.4 660.8 799.9 656.8Q799.4 652.8 798.4 647.8Q796.4 638.8 794.9 627.3Q793.4 615.8 793.4 606.8Q794.4 597.8 793.4 594.8Q792.4 591.8 794.4 589.8Q794.4 567.8 801.4 550.8Q802.4 543.8 802.9 536.8Q803.4 529.8 808.4 526.8Q811.4 513.8 815.4 508.29999999999995Q819.4 502.79999999999995 822.4 494.79999999999995Q829.4 487.79999999999995 829.9 487.29999999999995Q830.4 486.79999999999995 830.4 485.79999999999995Q835.4 482.79999999999995 836.9 480.29999999999995Q838.4 477.79999999999995 841.4 478.79999999999995Q849.4 467.79999999999995 858.9 461.29999999999995Q868.4 454.79999999999995 879.4 448.79999999999995Q901.4 439.79999999999995 920.4 436.29999999999995Q939.4 432.79999999999995 954.4 434.79999999999995Q958.4 430.79999999999995 969.4 430.29999999999995Q980.4 429.79999999999995 986.4 433.79999999999995Q990.4 437.79999999999995 992.9 437.29999999999995Q995.4 436.79999999999995 997.4 437.79999999999995Q1000.4 438.79999999999995 1003.9 441.29999999999995Q1007.4 443.79999999999995 1012.4 444.79999999999995Q1024.4 446.79999999999995 1025.4 447.79999999999995Q1026.4 448.79999999999995 1028.4 449.79999999999995Q1038.4 452.79999999999995 1049.4 451.79999999999995Q1060.4 450.79999999999995 1065.4 442.79999999999995Q1067.4 440.79999999999995 1069.4 434.79999999999995Q1071.4 428.79999999999995 1072.4 425.79999999999995Q1073.4 422.79999999999995 1072.4 418.29999999999995Q1071.4 413.79999999999995 1070.4 410.79999999999995Q1068.4 396.79999999999995 1068.4 378.29999999999995Q1068.4 359.79999999999995 1067.4 346.79999999999995Q1065.4 324.79999999999995 1060.4 301.79999999999995Q1058.4 294.79999999999995 1056.4 288.79999999999995Q1054.4 282.79999999999995 1049.4 278.79999999999995Q1044.4 261.79999999999995 1036.4 249.79999999999995Q1028.4 237.79999999999995 1017.4 228.79999999999995Q1009.4 228.79999999999995 1005.9 225.29999999999995Q1002.4 221.79999999999995 996.4 220.79999999999995Q982.4 216.79999999999995 972.9 219.29999999999995Q963.4 221.79999999999995 955.4 220.79999999999995Q950.4 219.79999999999995 946.9 220.79999999999995Q943.4 221.79999999999995 938.4 222.79999999999995Q929.4 220.79999999999995 923.9 223.29999999999995Q918.4 225.79999999999995 913.4 227.79999999999995Q905.4 231.79999999999995 901.4 234.79999999999995Q894.4 237.79999999999995 888.4 240.29999999999995Q882.4 242.79999999999995 877.4 247.79999999999995Q874.4 250.79999999999995 869.9 253.79999999999995Q865.4 256.79999999999995 861.4 261.79999999999995Q858.4 264.79999999999995 854.9 269.79999999999995Q851.4 274.79999999999995 848.4 279.79999999999995Q840.4 293.79999999999995 840.4 296.79999999999995Q840.4 299.79999999999995 842.4 307.79999999999995Q844.4 309.79999999999995 845.9 312.29999999999995Q847.4 314.79999999999995 848.4 317.79999999999995Q854.4 329.79999999999995 856.4 330.29999999999995Q858.4 330.79999999999995 859.4 332.79999999999995Q863.4 330.79999999999995 865.9 332.29999999999995Q868.4 333.79999999999995 872.4 333.79999999999995Q877.4 332.79999999999995 882.9 330.29999999999995Q888.4 327.79999999999995 894.4 327.79999999999995Q895.4 319.79999999999995 894.4 312.29999999999995Q893.4 304.79999999999995 895.4 298.79999999999995Q902.4 284.79999999999995 910.4 278.79999999999995Q919.4 268.79999999999995 933.4 265.79999999999995Q937.4 263.79999999999995 940.9 261.29999999999995Q944.4 258.79999999999995 949.4 258.79999999999995Q959.4 264.79999999999995 962.9 264.29999999999995Q966.4 263.79999999999995 969.4 265.79999999999995Q981.4 266.79999999999995 988.9 270.29999999999995Q996.4 273.79999999999995 1001.4 283.79999999999995Q1003.4 288.79999999999995 1003.9 294.29999999999995Q1004.4 299.79999999999995 1009.4 303.79999999999995Q1011.4 307.79999999999995 1010.4 311.29999999999995Q1009.4 314.79999999999995 1011.4 319.79999999999995Q1011.4 324.79999999999995 1013.4 329.29999999999995Q1015.4 333.79999999999995 1013.4 338.79999999999995Q1010.4 343.79999999999995 1006.9 350.29999999999995Q1003.4 356.79999999999995 1000.4 358.79999999999995Q999.4 364.79999999999995 995.4 368.79999999999995Q991.4 372.79999999999995 987.4 376.79999999999995Q985.4 379.79999999999995 983.4 382.79999999999995Q981.4 385.79999999999995 976.4 387.79999999999995Q962.4 393.79999999999995 958.4 394.79999999999995Q954.4 395.79999999999995 951.4 397.79999999999995Q940.4 404.79999999999995 935.9 404.79999999999995Q931.4 404.79999999999995 926.4 406.79999999999995Q914.4 410.79999999999995 911.4 409.79999999999995Q908.4 408.79999999999995 906.4 409.79999999999995Q901.4 409.79999999999995 895.4 411.79999999999995Q889.4 413.79999999999995 883.4 412.79999999999995Q873.4 410.79999999999995 872.4 411.29999999999995Q871.4 411.79999999999995 870.4 411.79999999999995Q860.4 409.79999999999995 855.4 402.29999999999995Q850.4 394.79999999999995 837.4 394.79999999999995Q826.4 387.79999999999995 819.4 385.29999999999995Q812.4 382.79999999999995 809.4 375.79999999999995Q796.4 366.79999999999995 792.9 362.79999999999995Q789.4 358.79999999999995 785.4 355.79999999999995Q781.4 345.79999999999995 776.4 336.79999999999995Q771.4 327.79999999999995 770.4 316.79999999999995Q769.4 309.79999999999995 769.4 300.29999999999995Q769.4 290.79999999999995 770.4 282.79999999999995Q772.4 269.79999999999995 775.9 264.79999999999995Q779.4 259.79999999999995 781.4 252.79999999999995Q783.4 249.79999999999995 783.4 246.29999999999995Q783.4 242.79999999999995 785.4 239.79999999999995Q790.4 230.79999999999995 795.4 227.79999999999995Q804.4 210.79999999999995 811.4 205.79999999999995Q818.4 200.79999999999995 826.4 196.79999999999995Q842.4 189.79999999999995 851.9 185.29999999999995Q861.4 180.79999999999995 873.4 179.79999999999995Q883.4 178.79999999999995 892.4 177.29999999999995Q901.4 175.79999999999995 909.4 170.79999999999995Q924.4 168.79999999999995 936.9 168.79999999999995Q949.4 168.79999999999995 961.4 166.79999999999995Q965.4 167.79999999999995 969.4 166.29999999999995Q973.4 164.79999999999995 977.4 164.79999999999995Q988.4 166.79999999999995 995.9 166.29999999999995Q1003.4 165.79999999999995 1012.4 166.79999999999995Q1015.4 167.79999999999995 1018.9 168.79999999999995Q1022.4 169.79999999999995 1025.4 170.79999999999995Q1034.4 172.79999999999995 1043.9 175.29999999999995Q1053.4 177.79999999999995 1060.4 182.79999999999995Q1091.4 188.79999999999995 1103.4 213.79999999999995Q1105.4 222.79999999999995 1107.4 226.29999999999995Q1109.4 229.79999999999995 1110.4 234.79999999999995Q1113.4 239.79999999999995 1116.9 244.29999999999995Q1120.4 248.79999999999995 1124.4 253.79999999999995Q1130.4 264.79999999999995 1133.4 273.79999999999995Q1136.4 282.79999999999995 1141.4 291.79999999999995Q1143.4 295.79999999999995 1144.9 299.29999999999995Q1146.4 302.79999999999995 1148.4 307.79999999999995Q1152.4 316.79999999999995 1151.9 317.79999999999995Q1151.4 318.79999999999995 1151.4 319.79999999999995Q1152.4 324.79999999999995 1154.9 329.29999999999995Q1157.4 333.79999999999995 1158.4 338.79999999999995Q1156.4 345.79999999999995 1158.9 352.79999999999995Q1161.4 359.79999999999995 1159.4 364.79999999999995Q1163.4 372.79999999999995 1163.4 382.29999999999995Q1163.4 391.79999999999995 1164.4 402.79999999999995Q1166.4 405.79999999999995 1165.4 408.79999999999995Q1164.4 411.79999999999995 1164.4 414.79999999999995Q1164.4 419.79999999999995 1165.9 424.79999999999995Q1167.4 429.79999999999995 1166.4 434.79999999999995Q1165.4 441.79999999999995 1166.4 444.29999999999995Q1167.4 446.79999999999995 1167.4 449.79999999999995Q1166.4 453.79999999999995 1166.9 458.29999999999995Q1167.4 462.79999999999995 1166.4 467.79999999999995Q1165.4 473.79999999999995 1164.4 479.29999999999995Q1163.4 484.79999999999995 1162.4 489.79999999999995Q1161.4 493.79999999999995 1160.4 496.79999999999995Q1159.4 499.79999999999995 1160.4 503.79999999999995Q1162.4 516.8 1158.4 525.8Q1156.4 538.8 1154.9 552.3Q1153.4 565.8 1151.4 578.8Q1153.4 587.8 1152.9 595.3Q1152.4 602.8 1151.4 613.8Q1152.4 625.8 1153.9 635.8Q1155.4 645.8 1160.4 652.8Q1176.4 655.8 1182.4 657.8Q1188.4 659.8 1190.4 664.8Q1194.4 672.8 1198.4 678.3Q1202.4 683.8 1204.4 690.8Q1206.4 695.8 1205.4 697.8Q1204.4 699.8 1203.4 704.8Q1201.4 708.8 1202.4 711.3Q1203.4 713.8 1201.4 718.8Q1197.4 721.8 1196.9 725.3Q1196.4 728.8 1194.4 730.8ZM896.4 543.8Q891.4 559.8 889.4 563.8Q890.4 575.8 889.4 581.8Q888.4 587.8 887.4 592.8Q883.4 605.8 886.4 614.8Q887.4 619.8 889.4 626.8Q891.4 633.8 893.4 635.8Q895.4 649.8 904.4 655.3Q913.4 660.8 921.4 665.8Q941.4 668.8 950.9 663.3Q960.4 657.8 971.4 658.8Q978.4 651.8 989.4 651.8Q1000.4 643.8 1001.4 643.3Q1002.4 642.8 1004.4 641.8Q1012.4 637.8 1015.9 636.3Q1019.4 634.8 1024.4 632.8Q1029.4 630.8 1035.9 625.8Q1042.4 620.8 1044.4 616.8Q1051.4 605.8 1051.4 589.8Q1051.4 584.8 1052.9 581.8Q1054.4 578.8 1054.4 573.8Q1050.4 565.8 1050.4 561.8Q1051.4 553.8 1050.4 551.8Q1049.4 549.8 1048.4 547.8Q1045.4 538.8 1043.4 534.8Q1041.4 530.8 1041.4 524.8Q1033.4 512.8 1028.9 511.29999999999995Q1024.4 509.79999999999995 1019.4 507.79999999999995Q1010.4 510.79999999999995 1001.9 506.79999999999995Q993.4 502.79999999999995 986.4 506.79999999999995Q966.4 506.79999999999995 950.4 515.3Q934.4 523.8 917.4 528.8Q912.4 529.8 908.9 530.8Q905.4 531.8 901.4 533.8Q901.4 537.8 899.4 539.8Q897.4 541.8 896.4 543.8ZM1182.4 202.79999999999995Q1192.4 205.79999999999995 1196.9 209.29999999999995Q1201.4 212.79999999999995 1205.4 219.79999999999995Q1209.4 226.79999999999995 1209.9 234.79999999999995Q1210.4 242.79999999999995 1205.4 247.79999999999995Q1200.4 249.79999999999995 1199.4 251.29999999999995Q1198.4 252.79999999999995 1196.4 254.79999999999995Q1188.4 262.79999999999995 1179.4 258.29999999999995Q1170.4 253.79999999999995 1161.4 250.79999999999995Q1156.4 244.79999999999995 1153.4 236.79999999999995Q1150.4 228.79999999999995 1150.4 219.79999999999995Q1154.4 214.79999999999995 1157.9 210.29999999999995Q1161.4 205.79999999999995 1169.4 206.79999999999995Q1172.4 204.79999999999995 1182.4 202.79999999999995ZM808.4 418.79999999999995Q809.4 425.79999999999995 812.9 430.79999999999995Q816.4 435.79999999999995 814.4 443.79999999999995Q803.4 455.79999999999995 794.4 455.79999999999995Q779.4 448.79999999999995 773.9 440.29999999999995Q768.4 431.79999999999995 773.4 419.79999999999995Q776.4 416.79999999999995 782.4 412.79999999999995Q790.4 409.79999999999995 796.9 413.29999999999995Q803.4 416.79999999999995 808.4 418.79999999999995ZM1197.4 543.8Q1201.4 542.8 1202.9 541.3Q1204.4 539.8 1208.4 541.8Q1213.4 543.8 1214.9 550.8Q1216.4 557.8 1214.4 563.8Q1211.4 565.8 1208.9 566.8Q1206.4 567.8 1203.4 567.8Q1196.4 565.8 1195.4 557.8Q1194.4 549.8 1197.4 543.8ZM1190.4 635.8Q1182.4 628.8 1183.9 620.8Q1185.4 612.8 1185.4 604.8Q1189.4 597.8 1192.9 597.3Q1196.4 596.8 1199.4 594.8Q1208.4 594.8 1215.4 596.3Q1222.4 597.8 1223.4 604.8Q1228.4 612.8 1225.9 617.3Q1223.4 621.8 1222.4 626.8Q1217.4 631.8 1207.9 635.8Q1198.4 639.8 1192.4 639.8ZM783.4 723.8Q793.4 721.8 800.9 725.8Q808.4 729.8 806.4 739.8Q806.4 747.8 801.9 749.8Q797.4 751.8 792.4 755.8Q781.4 753.8 778.4 742.3Q775.4 730.8 783.4 723.8ZM1439.4 224.79999999999995Q1452.4 229.79999999999995 1454.4 246.29999999999995Q1456.4 262.79999999999995 1453.4 276.79999999999995Q1448.4 283.79999999999995 1440.4 286.29999999999995Q1432.4 288.79999999999995 1423.4 287.79999999999995Q1420.4 285.79999999999995 1419.4 281.79999999999995Q1418.4 277.79999999999995 1416.4 273.79999999999995Q1414.4 258.79999999999995 1415.9 255.79999999999995Q1417.4 252.79999999999995 1415.4 249.79999999999995Q1420.4 242.79999999999995 1425.9 235.29999999999995Q1431.4 227.79999999999995 1439.4 224.79999999999995ZM1446.4 306.79999999999995Q1450.4 305.79999999999995 1453.9 308.79999999999995Q1457.4 311.79999999999995 1459.4 315.79999999999995Q1460.4 324.79999999999995 1455.4 329.29999999999995Q1450.4 333.79999999999995 1442.4 333.79999999999995Q1434.4 328.79999999999995 1435.4 318.29999999999995Q1436.4 307.79999999999995 1446.4 306.79999999999995ZM1625.4 608.8Q1617.4 609.8 1615.4 603.8Q1613.4 597.8 1609.4 592.8Q1611.4 586.8 1615.9 582.3Q1620.4 577.8 1627.4 578.8Q1638.4 581.8 1634.9 592.8Q1631.4 603.8 1625.4 608.8ZM1590.4 623.8Q1603.4 629.8 1601.4 646.8Q1599.4 663.8 1592.4 673.8Q1584.4 677.8 1577.9 683.3Q1571.4 688.8 1562.4 687.8Q1557.4 681.8 1556.4 668.3Q1555.4 654.8 1563.4 650.8Q1571.4 640.8 1576.4 633.3Q1581.4 625.8 1590.4 623.8ZM1344.4 635.8Q1357.4 642.8 1357.4 654.8Q1355.4 665.8 1352.4 671.8Q1349.4 677.8 1344.4 679.8Q1334.4 675.8 1330.4 673.8Q1326.4 671.8 1328.4 666.8Q1326.4 661.8 1324.9 659.8Q1323.4 657.8 1323.4 655.8Q1327.4 654.8 1327.4 648.8Q1327.4 642.8 1332.4 642.8Q1336.4 638.8 1339.4 638.3Q1342.4 637.8 1344.4 635.8ZM1325.4 159.79999999999995Q1329.4 162.79999999999995 1334.4 162.79999999999995Q1339.4 162.79999999999995 1345.4 163.79999999999995Q1350.4 165.79999999999995 1355.4 168.29999999999995Q1360.4 170.79999999999995 1365.4 172.79999999999995Q1367.4 173.79999999999995 1370.4 174.29999999999995Q1373.4 174.79999999999995 1376.4 177.79999999999995Q1379.4 182.79999999999995 1383.9 189.79999999999995Q1388.4 196.79999999999995 1387.4 204.79999999999995Q1389.4 208.79999999999995 1390.4 214.79999999999995Q1391.4 220.79999999999995 1396.4 222.79999999999995Q1391.4 229.79999999999995 1390.4 239.79999999999995Q1389.4 249.79999999999995 1387.4 257.79999999999995Q1389.4 268.79999999999995 1390.4 277.29999999999995Q1391.4 285.79999999999995 1394.4 293.79999999999995Q1397.4 302.79999999999995 1402.9 309.79999999999995Q1408.4 316.79999999999995 1410.4 324.79999999999995Q1412.4 328.79999999999995 1412.9 332.79999999999995Q1413.4 336.79999999999995 1415.4 340.79999999999995Q1416.4 345.79999999999995 1414.4 351.29999999999995Q1412.4 356.79999999999995 1413.4 361.79999999999995Q1414.4 366.79999999999995 1417.4 370.79999999999995Q1420.4 374.79999999999995 1419.4 380.79999999999995Q1422.4 387.79999999999995 1426.4 393.79999999999995Q1430.4 399.79999999999995 1431.4 408.79999999999995Q1437.4 416.79999999999995 1435.4 429.79999999999995Q1433.4 442.79999999999995 1438.4 452.79999999999995Q1438.4 459.79999999999995 1438.9 465.79999999999995Q1439.4 471.79999999999995 1440.4 478.79999999999995Q1441.4 486.79999999999995 1443.9 493.79999999999995Q1446.4 500.79999999999995 1445.4 508.79999999999995Q1444.4 512.8 1444.9 519.3Q1445.4 525.8 1447.4 528.8Q1446.4 537.8 1448.4 539.8Q1446.4 547.8 1449.4 557.8Q1452.4 567.8 1451.4 575.8Q1448.4 585.8 1449.4 590.3Q1450.4 594.8 1450.4 599.8Q1451.4 608.8 1450.9 615.3Q1450.4 621.8 1455.4 625.8Q1463.4 613.8 1465.9 609.8Q1468.4 605.8 1470.4 600.8Q1472.4 595.8 1472.9 590.8Q1473.4 585.8 1477.4 581.8Q1476.4 576.8 1478.9 573.3Q1481.4 569.8 1483.4 567.8Q1486.4 550.8 1490.4 543.8Q1494.4 536.8 1497.4 529.8Q1497.4 521.8 1499.9 516.3Q1502.4 510.79999999999995 1504.4 503.79999999999995Q1506.4 501.79999999999995 1506.9 498.79999999999995Q1507.4 495.79999999999995 1511.4 493.79999999999995Q1516.4 470.79999999999995 1520.9 460.79999999999995Q1525.4 450.79999999999995 1527.4 436.79999999999995Q1531.4 428.79999999999995 1530.9 425.29999999999995Q1530.4 421.79999999999995 1529.4 417.79999999999995Q1528.4 413.79999999999995 1527.4 408.79999999999995Q1526.4 403.79999999999995 1526.4 399.79999999999995Q1526.4 386.79999999999995 1533.4 377.79999999999995Q1540.4 368.79999999999995 1544.4 357.79999999999995Q1553.4 343.79999999999995 1557.4 328.29999999999995Q1561.4 312.79999999999995 1563.4 300.79999999999995Q1554.4 286.79999999999995 1558.9 270.29999999999995Q1563.4 253.79999999999995 1568.4 236.79999999999995Q1566.4 233.79999999999995 1566.9 228.79999999999995Q1567.4 223.79999999999995 1566.4 220.79999999999995Q1568.4 213.79999999999995 1569.9 207.29999999999995Q1571.4 200.79999999999995 1573.4 194.79999999999995Q1577.4 187.79999999999995 1577.9 180.29999999999995Q1578.4 172.79999999999995 1585.4 168.79999999999995Q1591.4 163.79999999999995 1598.4 162.29999999999995Q1605.4 160.79999999999995 1610.4 156.79999999999995Q1616.4 153.79999999999995 1618.4 153.79999999999995Q1620.4 153.79999999999995 1622.4 151.79999999999995Q1628.4 147.79999999999995 1634.9 149.29999999999995Q1641.4 150.79999999999995 1646.4 150.79999999999995Q1655.4 148.79999999999995 1658.9 149.79999999999995Q1662.4 150.79999999999995 1666.4 149.79999999999995Q1670.4 152.79999999999995 1677.9 154.79999999999995Q1685.4 156.79999999999995 1685.4 162.79999999999995Q1691.4 163.79999999999995 1692.4 170.29999999999995Q1693.4 176.79999999999995 1691.9 184.29999999999995Q1690.4 191.79999999999995 1687.9 199.29999999999995Q1685.4 206.79999999999995 1683.4 209.79999999999995Q1683.4 220.79999999999995 1681.9 232.79999999999995Q1680.4 244.79999999999995 1674.4 252.79999999999995Q1672.4 260.79999999999995 1671.4 268.29999999999995Q1670.4 275.79999999999995 1668.4 283.79999999999995Q1666.4 287.79999999999995 1664.9 291.29999999999995Q1663.4 294.79999999999995 1661.4 297.79999999999995Q1660.4 300.79999999999995 1660.4 304.29999999999995Q1660.4 307.79999999999995 1658.4 309.79999999999995Q1656.4 315.79999999999995 1652.9 321.79999999999995Q1649.4 327.79999999999995 1649.4 335.79999999999995Q1645.4 339.79999999999995 1643.4 352.79999999999995Q1640.4 355.79999999999995 1639.9 360.29999999999995Q1639.4 364.79999999999995 1638.4 370.79999999999995Q1629.4 392.79999999999995 1629.4 407.79999999999995Q1629.4 422.79999999999995 1624.4 436.79999999999995Q1616.4 457.79999999999995 1614.9 472.29999999999995Q1613.4 486.79999999999995 1604.4 496.79999999999995Q1604.4 502.79999999999995 1600.4 508.79999999999995Q1599.4 518.8 1593.9 525.3Q1588.4 531.8 1584.4 538.8Q1583.4 546.8 1580.4 551.3Q1577.4 555.8 1576.4 563.8Q1570.4 569.8 1568.9 580.8Q1567.4 591.8 1560.4 596.8Q1558.4 598.8 1557.4 601.8Q1556.4 604.8 1553.4 606.8Q1548.4 615.8 1545.4 625.3Q1542.4 634.8 1537.4 642.8Q1534.4 655.8 1531.9 667.3Q1529.4 678.8 1524.4 688.8Q1518.4 694.8 1517.4 698.8Q1509.4 706.8 1499.4 712.8Q1489.4 718.8 1477.4 718.8Q1473.4 722.8 1467.9 721.3Q1462.4 719.8 1457.4 719.8Q1450.4 720.8 1449.4 719.8Q1448.4 718.8 1446.4 717.8Q1438.4 715.8 1434.9 712.8Q1431.4 709.8 1426.4 708.8Q1421.4 700.8 1419.9 690.3Q1418.4 679.8 1411.4 674.8Q1408.4 665.8 1403.4 658.8Q1395.4 656.8 1391.4 650.8Q1387.4 644.8 1382.4 638.8Q1384.4 621.8 1380.4 614.8Q1376.4 607.8 1374.4 596.8Q1367.4 590.8 1366.4 580.3Q1365.4 569.8 1361.4 560.8Q1359.4 555.8 1357.4 553.8Q1355.4 551.8 1355.4 547.8Q1350.4 532.8 1347.4 525.8Q1344.4 518.8 1341.4 511.79999999999995Q1338.4 504.79999999999995 1335.9 498.29999999999995Q1333.4 491.79999999999995 1334.4 484.79999999999995Q1329.4 477.79999999999995 1331.4 467.29999999999995Q1333.4 456.79999999999995 1331.4 448.79999999999995Q1330.4 442.79999999999995 1327.4 439.79999999999995Q1324.4 436.79999999999995 1323.4 431.79999999999995Q1320.4 429.79999999999995 1318.9 426.79999999999995Q1317.4 423.79999999999995 1315.4 423.79999999999995Q1309.4 413.79999999999995 1304.4 406.79999999999995Q1299.4 399.79999999999995 1294.4 391.79999999999995Q1289.4 380.79999999999995 1287.9 373.29999999999995Q1286.4 365.79999999999995 1281.4 360.79999999999995Q1283.4 353.79999999999995 1281.4 342.79999999999995Q1274.4 328.79999999999995 1274.4 320.79999999999995Q1274.4 313.79999999999995 1273.4 312.29999999999995Q1272.4 310.79999999999995 1273.4 308.79999999999995Q1273.4 296.79999999999995 1267.9 288.29999999999995Q1262.4 279.79999999999995 1257.4 271.79999999999995Q1252.4 268.79999999999995 1247.9 265.29999999999995Q1243.4 261.79999999999995 1240.4 255.79999999999995Q1238.4 251.79999999999995 1233.4 245.79999999999995Q1228.4 239.79999999999995 1227.4 236.79999999999995Q1226.4 230.79999999999995 1228.4 227.29999999999995Q1230.4 223.79999999999995 1231.4 218.79999999999995Q1232.4 213.79999999999995 1232.4 210.79999999999995Q1232.4 207.79999999999995 1232.4 204.79999999999995Q1236.4 192.79999999999995 1237.9 191.79999999999995Q1239.4 190.79999999999995 1240.4 189.79999999999995Q1243.4 180.79999999999995 1251.9 176.79999999999995Q1260.4 172.79999999999995 1265.4 167.79999999999995Q1269.4 166.79999999999995 1271.9 165.29999999999995Q1274.4 163.79999999999995 1276.4 165.79999999999995Q1286.4 159.79999999999995 1299.4 160.79999999999995Q1312.4 161.79999999999995 1325.4 159.79999999999995ZM1750.4 186.79999999999995Q1748.4 178.79999999999995 1750.4 169.79999999999995Q1752.4 160.79999999999995 1758.4 156.79999999999995Q1767.4 143.79999999999995 1771.9 143.29999999999995Q1776.4 142.79999999999995 1781.4 138.79999999999995Q1790.4 140.79999999999995 1796.4 148.29999999999995Q1802.4 155.79999999999995 1801.4 166.79999999999995Q1799.4 173.79999999999995 1796.4 177.79999999999995Q1793.4 181.79999999999995 1789.4 183.79999999999995Q1782.4 188.79999999999995 1776.9 193.79999999999995Q1771.4 198.79999999999995 1759.4 196.79999999999995Q1757.4 194.79999999999995 1755.4 191.79999999999995Q1753.4 188.79999999999995 1750.4 186.79999999999995ZM2019.4 140.79999999999995Q2027.4 141.79999999999995 2031.4 143.79999999999995Q2035.4 145.79999999999995 2038.4 147.79999999999995Q2041.4 147.79999999999995 2046.4 149.29999999999995Q2051.4 150.79999999999995 2054.4 152.79999999999995Q2058.4 154.79999999999995 2060.9 158.79999999999995Q2063.4 162.79999999999995 2068.4 166.79999999999995Q2072.4 170.79999999999995 2076.9 172.79999999999995Q2081.4 174.79999999999995 2084.4 179.79999999999995Q2086.4 181.79999999999995 2087.9 185.29999999999995Q2089.4 188.79999999999995 2091.4 190.79999999999995Q2097.4 194.79999999999995 2103.9 198.29999999999995Q2110.4 201.79999999999995 2115.4 206.79999999999995Q2124.4 208.79999999999995 2126.4 211.79999999999995Q2134.4 216.79999999999995 2134.9 217.29999999999995Q2135.4 217.79999999999995 2135.4 219.79999999999995Q2143.4 221.79999999999995 2148.9 226.79999999999995Q2154.4 231.79999999999995 2161.4 235.79999999999995Q2166.4 242.79999999999995 2177.4 247.79999999999995Q2184.4 259.79999999999995 2194.4 268.79999999999995Q2204.4 277.79999999999995 2209.4 290.79999999999995Q2213.4 296.79999999999995 2214.9 298.79999999999995Q2216.4 300.79999999999995 2216.4 304.79999999999995Q2222.4 311.79999999999995 2225.9 320.79999999999995Q2229.4 329.79999999999995 2236.4 336.79999999999995Q2241.4 347.79999999999995 2241.4 353.79999999999995Q2244.4 359.79999999999995 2246.9 366.29999999999995Q2249.4 372.79999999999995 2247.4 378.79999999999995Q2251.4 386.79999999999995 2250.9 396.79999999999995Q2250.4 406.79999999999995 2254.4 412.79999999999995Q2252.4 422.79999999999995 2251.9 426.29999999999995Q2251.4 429.79999999999995 2249.4 431.79999999999995Q2249.4 439.79999999999995 2249.4 443.79999999999995Q2249.4 447.79999999999995 2249.4 451.79999999999995Q2246.4 456.79999999999995 2243.9 463.29999999999995Q2241.4 469.79999999999995 2239.4 477.79999999999995Q2239.4 483.79999999999995 2237.9 491.29999999999995Q2236.4 498.79999999999995 2231.4 503.79999999999995Q2231.4 507.79999999999995 2230.9 509.79999999999995Q2230.4 511.79999999999995 2230.4 514.8Q2224.4 525.8 2221.4 535.3Q2218.4 544.8 2213.4 555.8L2208.4 567.8Q2206.4 571.8 2202.9 575.3Q2199.4 578.8 2197.4 582.8Q2190.4 591.8 2189.9 594.8Q2189.4 597.8 2187.4 599.8Q2184.4 604.8 2181.4 607.3Q2178.4 609.8 2176.4 613.8Q2162.4 629.8 2147.4 637.8Q2132.4 645.8 2120.4 656.8Q2115.4 658.8 2113.9 661.3Q2112.4 663.8 2110.4 665.8Q2098.4 673.8 2086.9 678.8Q2075.4 683.8 2064.4 689.8Q2058.4 689.8 2051.4 693.3Q2044.4 696.8 2036.4 695.8Q2031.4 698.8 2020.4 698.3Q2009.4 697.8 2001.4 698.8Q1989.4 696.8 1983.4 696.3Q1977.4 695.8 1975.4 692.8Q1971.4 693.8 1967.9 692.3Q1964.4 690.8 1962.4 688.8Q1952.4 684.8 1946.4 686.3Q1940.4 687.8 1936.4 684.8Q1931.4 688.8 1926.4 686.8Q1921.4 684.8 1915.4 684.8Q1912.4 681.8 1907.4 680.8Q1902.4 679.8 1900.4 675.8Q1884.4 673.8 1879.4 666.8Q1873.4 664.8 1869.4 664.3Q1865.4 663.8 1864.4 659.8Q1855.4 657.8 1849.4 651.8Q1843.4 645.8 1834.4 642.8Q1832.4 639.8 1829.9 638.3Q1827.4 636.8 1826.4 632.8Q1821.4 630.8 1818.9 626.3Q1816.4 621.8 1813.4 616.8Q1808.4 613.8 1804.4 609.8Q1800.4 605.8 1795.4 602.8Q1790.4 595.8 1786.9 591.8Q1783.4 587.8 1783.4 582.8Q1781.4 582.8 1777.9 579.3Q1774.4 575.8 1776.4 573.8Q1770.4 569.8 1766.4 561.3Q1762.4 552.8 1761.4 544.8Q1759.4 541.8 1758.9 537.8Q1758.4 533.8 1755.4 531.8Q1751.4 517.8 1747.4 507.29999999999995Q1743.4 496.79999999999995 1739.4 484.79999999999995Q1734.4 477.79999999999995 1729.4 465.79999999999995Q1724.4 453.79999999999995 1731.4 442.79999999999995Q1729.4 438.79999999999995 1730.4 433.79999999999995Q1731.4 428.79999999999995 1729.4 425.79999999999995Q1731.4 419.79999999999995 1730.4 412.29999999999995Q1729.4 404.79999999999995 1729.4 396.79999999999995Q1729.4 379.79999999999995 1737.4 366.79999999999995Q1739.4 355.79999999999995 1742.9 343.79999999999995Q1746.4 331.79999999999995 1753.4 323.79999999999995Q1754.4 321.79999999999995 1756.9 318.79999999999995Q1759.4 315.79999999999995 1761.4 314.79999999999995Q1760.4 309.79999999999995 1763.4 306.79999999999995Q1766.4 303.79999999999995 1768.4 299.79999999999995Q1769.4 288.79999999999995 1775.4 280.79999999999995Q1781.4 272.79999999999995 1787.4 264.79999999999995Q1788.4 253.79999999999995 1793.4 247.29999999999995Q1798.4 240.79999999999995 1799.4 229.79999999999995Q1803.4 227.79999999999995 1807.4 223.79999999999995Q1811.4 219.79999999999995 1810.4 214.79999999999995Q1820.4 208.79999999999995 1825.4 196.79999999999995Q1833.4 192.79999999999995 1840.4 187.79999999999995Q1847.4 182.79999999999995 1855.4 177.79999999999995Q1864.4 169.79999999999995 1866.9 166.29999999999995Q1869.4 162.79999999999995 1874.4 162.79999999999995Q1876.4 158.79999999999995 1880.9 158.79999999999995Q1885.4 158.79999999999995 1886.4 153.79999999999995Q1897.4 153.79999999999995 1899.4 152.29999999999995Q1901.4 150.79999999999995 1903.4 149.79999999999995Q1907.4 150.79999999999995 1908.9 150.29999999999995Q1910.4 149.79999999999995 1914.4 148.79999999999995Q1930.4 146.79999999999995 1943.4 144.29999999999995Q1956.4 141.79999999999995 1968.4 146.79999999999995Q1973.4 146.79999999999995 1976.9 144.79999999999995Q1980.4 142.79999999999995 1987.4 144.79999999999995Q1990.4 142.79999999999995 1992.4 140.79999999999995Q1994.4 138.79999999999995 1998.4 138.79999999999995Q2007.4 143.79999999999995 2012.4 143.29999999999995Q2017.4 142.79999999999995 2019.4 140.79999999999995ZM2152.4 427.79999999999995Q2153.4 417.79999999999995 2147.4 407.79999999999995Q2141.4 397.79999999999995 2142.4 386.79999999999995Q2138.4 381.79999999999995 2134.9 374.79999999999995Q2131.4 367.79999999999995 2131.4 359.79999999999995Q2127.4 352.79999999999995 2123.9 348.79999999999995Q2120.4 344.79999999999995 2122.4 336.79999999999995Q2118.4 329.79999999999995 2118.4 319.79999999999995Q2119.4 311.79999999999995 2118.9 311.29999999999995Q2118.4 310.79999999999995 2117.4 308.79999999999995Q2115.4 303.79999999999995 2113.4 299.79999999999995Q2111.4 295.79999999999995 2106.4 293.79999999999995Q2094.4 294.79999999999995 2092.9 294.29999999999995Q2091.4 293.79999999999995 2088.4 292.79999999999995Q2081.4 290.79999999999995 2076.9 289.79999999999995Q2072.4 288.79999999999995 2070.4 283.79999999999995Q2061.4 273.79999999999995 2054.4 270.79999999999995Q2047.4 267.79999999999995 2044.4 259.79999999999995Q2038.4 255.79999999999995 2032.4 252.79999999999995Q2026.4 249.79999999999995 2023.4 242.79999999999995Q2015.4 239.79999999999995 2012.4 234.79999999999995Q2002.4 230.79999999999995 1994.4 232.79999999999995Q1975.4 240.79999999999995 1963.9 242.79999999999995Q1952.4 244.79999999999995 1947.4 254.79999999999995Q1935.4 260.79999999999995 1923.4 264.29999999999995Q1911.4 267.79999999999995 1903.4 276.79999999999995Q1893.4 282.79999999999995 1886.4 285.79999999999995Q1879.4 288.79999999999995 1871.4 291.79999999999995Q1856.4 302.79999999999995 1841.4 308.79999999999995Q1832.4 316.79999999999995 1825.4 326.79999999999995Q1818.4 336.79999999999995 1810.4 346.79999999999995Q1808.4 352.79999999999995 1807.4 359.29999999999995Q1806.4 365.79999999999995 1804.4 370.79999999999995Q1806.4 373.79999999999995 1805.9 377.79999999999995Q1805.4 381.79999999999995 1805.4 384.79999999999995Q1806.4 388.79999999999995 1808.4 391.29999999999995Q1810.4 393.79999999999995 1808.4 395.79999999999995Q1816.4 423.79999999999995 1826.4 446.79999999999995Q1832.4 450.79999999999995 1833.4 455.79999999999995Q1842.4 459.79999999999995 1845.4 474.79999999999995Q1853.4 479.79999999999995 1860.4 485.79999999999995Q1867.4 491.79999999999995 1870.4 501.79999999999995Q1878.4 506.79999999999995 1883.4 522.8Q1886.4 524.8 1887.9 528.3Q1889.4 531.8 1891.4 534.8Q1903.4 541.8 1911.4 549.8Q1919.4 557.8 1927.4 568.8Q1945.4 579.8 1965.9 580.8Q1986.4 581.8 2006.4 583.8Q2015.4 584.8 2024.9 582.8Q2034.4 580.8 2042.4 580.8Q2050.4 577.8 2054.4 573.3Q2058.4 568.8 2066.4 566.8Q2071.4 558.8 2077.9 554.3Q2084.4 549.8 2090.4 546.8Q2095.4 544.8 2098.4 542.3Q2101.4 539.8 2106.4 537.8Q2113.4 526.8 2124.4 520.8Q2135.4 514.8 2140.4 504.79999999999995Q2149.4 488.79999999999995 2151.9 474.29999999999995Q2154.4 459.79999999999995 2156.4 445.79999999999995Q2153.4 443.79999999999995 2153.4 439.29999999999995Q2153.4 434.79999999999995 2154.4 429.79999999999995ZM1873.4 353.79999999999995Q1877.4 363.79999999999995 1868.4 375.79999999999995Q1867.4 377.79999999999995 1862.4 382.79999999999995Q1857.4 387.79999999999995 1854.4 387.79999999999995Q1849.4 389.79999999999995 1843.9 387.79999999999995Q1838.4 385.79999999999995 1835.4 383.79999999999995Q1833.4 378.79999999999995 1832.4 373.79999999999995Q1831.4 368.79999999999995 1834.4 363.79999999999995Q1837.4 356.79999999999995 1850.4 350.79999999999995Q1863.4 344.79999999999995 1870.4 350.79999999999995ZM2093.4 456.79999999999995Q2098.4 463.79999999999995 2094.9 467.79999999999995Q2091.4 471.79999999999995 2089.4 477.79999999999995Q2082.4 488.79999999999995 2078.4 489.79999999999995Q2074.4 490.79999999999995 2070.4 491.79999999999995Q2065.4 488.79999999999995 2060.9 486.29999999999995Q2056.4 483.79999999999995 2054.4 477.79999999999995Q2052.4 469.79999999999995 2056.9 464.79999999999995Q2061.4 459.79999999999995 2066.4 455.79999999999995Q2073.4 454.79999999999995 2080.9 453.29999999999995Q2088.4 451.79999999999995 2093.4 456.79999999999995ZM1996.4 498.79999999999995Q2009.4 499.79999999999995 2019.9 503.79999999999995Q2030.4 507.79999999999995 2033.4 517.8Q2036.4 534.8 2023.4 541.3Q2010.4 547.8 1996.4 548.8Q1973.4 548.8 1965.4 537.8Q1963.4 530.8 1966.9 527.3Q1970.4 523.8 1972.4 518.8Q1980.4 512.8 1986.4 509.29999999999995Q1992.4 505.79999999999995 1998.4 501.79999999999995ZM2212.4 649.8Q2209.4 654.8 2205.4 659.3Q2201.4 663.8 2194.4 663.8Q2189.4 663.8 2186.4 661.3Q2183.4 658.8 2180.4 655.8Q2177.4 653.8 2174.4 652.8Q2171.4 651.8 2173.4 646.8Q2174.4 642.8 2177.4 641.3Q2180.4 639.8 2185.4 636.8Q2189.4 635.8 2199.4 632.8Q2209.4 629.8 2212.4 636.8Q2214.4 639.8 2212.4 642.3Q2210.4 644.8 2212.4 649.8ZM2531.4 156.79999999999995Q2536.4 154.79999999999995 2538.4 156.79999999999995Q2540.4 158.79999999999995 2544.4 159.79999999999995Q2551.4 170.79999999999995 2549.4 176.79999999999995Q2547.4 182.79999999999995 2543.4 187.79999999999995Q2538.4 189.79999999999995 2535.9 192.79999999999995Q2533.4 195.79999999999995 2530.4 198.79999999999995Q2519.4 205.79999999999995 2506.4 200.79999999999995Q2494.4 190.79999999999995 2502.4 177.79999999999995Q2517.4 159.79999999999995 2531.4 156.79999999999995ZM2660.4 196.79999999999995Q2658.4 193.79999999999995 2657.9 186.29999999999995Q2657.4 178.79999999999995 2660.4 173.79999999999995Q2674.4 169.79999999999995 2677.9 173.29999999999995Q2681.4 176.79999999999995 2686.4 179.79999999999995Q2686.4 190.79999999999995 2677.9 194.79999999999995Q2669.4 198.79999999999995 2660.4 196.79999999999995ZM2709.4 191.79999999999995Q2721.4 198.79999999999995 2723.4 202.29999999999995Q2725.4 205.79999999999995 2726.4 210.79999999999995Q2729.4 224.79999999999995 2725.4 231.79999999999995Q2720.4 233.79999999999995 2714.4 237.79999999999995Q2708.4 241.79999999999995 2701.4 240.79999999999995Q2692.4 242.79999999999995 2689.4 237.79999999999995Q2686.4 232.79999999999995 2685.4 227.79999999999995Q2684.4 214.79999999999995 2688.9 212.79999999999995Q2693.4 210.79999999999995 2691.4 205.79999999999995Q2695.4 201.79999999999995 2698.4 197.29999999999995Q2701.4 192.79999999999995 2709.4 191.79999999999995ZM2448.4 548.8Q2447.4 537.8 2449.4 534.3Q2451.4 530.8 2450.4 525.8Q2464.4 518.8 2470.4 520.8Q2476.4 522.8 2480.4 527.8Q2484.4 532.8 2484.9 539.3Q2485.4 545.8 2481.4 551.8Q2479.4 554.8 2476.9 556.3Q2474.4 557.8 2472.4 561.8Q2457.4 564.8 2454.9 559.8Q2452.4 554.8 2451.4 549.8ZM2554.4 577.8Q2555.4 592.8 2537.4 592.8Q2530.4 584.8 2530.9 583.3Q2531.4 581.8 2531.4 578.8Q2540.4 572.8 2545.4 574.3Q2550.4 575.8 2554.4 577.8ZM2454.4 272.79999999999995Q2470.4 267.79999999999995 2474.9 262.29999999999995Q2479.4 256.79999999999995 2486.4 256.79999999999995Q2495.4 250.79999999999995 2495.9 251.79999999999995Q2496.4 252.79999999999995 2497.4 251.79999999999995Q2506.4 245.79999999999995 2510.9 245.29999999999995Q2515.4 244.79999999999995 2519.4 242.79999999999995Q2530.4 238.79999999999995 2531.9 239.29999999999995Q2533.4 239.79999999999995 2535.4 238.79999999999995Q2549.4 231.79999999999995 2559.9 233.29999999999995Q2570.4 234.79999999999995 2580.4 231.79999999999995Q2587.4 233.79999999999995 2595.9 233.79999999999995Q2604.4 233.79999999999995 2612.9 234.29999999999995Q2621.4 234.79999999999995 2629.9 236.29999999999995Q2638.4 237.79999999999995 2644.4 242.79999999999995Q2653.4 242.79999999999995 2658.4 249.79999999999995Q2668.4 255.79999999999995 2668.4 256.79999999999995Q2679.4 264.79999999999995 2685.9 276.79999999999995Q2692.4 288.79999999999995 2700.4 298.79999999999995Q2707.4 309.79999999999995 2709.4 318.79999999999995Q2711.4 327.79999999999995 2716.4 333.79999999999995Q2714.4 352.79999999999995 2710.9 369.79999999999995Q2707.4 386.79999999999995 2707.4 405.79999999999995Q2707.4 413.79999999999995 2708.4 423.29999999999995Q2709.4 432.79999999999995 2708.4 441.79999999999995Q2707.4 444.79999999999995 2706.4 447.29999999999995Q2705.4 449.79999999999995 2704.4 452.79999999999995Q2700.4 463.79999999999995 2696.4 475.29999999999995Q2692.4 486.79999999999995 2687.4 497.79999999999995Q2677.4 505.79999999999995 2673.9 510.29999999999995Q2670.4 514.8 2665.4 517.8Q2659.4 528.8 2647.9 535.3Q2636.4 541.8 2622.4 543.8Q2617.4 547.8 2612.9 546.8Q2608.4 545.8 2604.4 550.8Q2597.4 549.8 2591.9 552.8Q2586.4 555.8 2580.4 550.8Q2572.4 549.8 2565.9 546.3Q2559.4 542.8 2554.4 543.8Q2551.4 541.8 2548.9 540.3Q2546.4 538.8 2541.4 538.8Q2532.4 532.8 2526.9 527.3Q2521.4 521.8 2516.4 514.8Q2509.4 497.79999999999995 2504.4 490.79999999999995Q2499.4 483.79999999999995 2498.4 475.79999999999995Q2498.4 469.79999999999995 2497.9 464.79999999999995Q2497.4 459.79999999999995 2498.4 454.79999999999995Q2496.4 447.79999999999995 2497.4 440.29999999999995Q2498.4 432.79999999999995 2501.4 425.29999999999995Q2504.4 417.79999999999995 2508.4 410.79999999999995Q2512.4 403.79999999999995 2514.4 397.79999999999995Q2513.4 388.79999999999995 2520.4 384.29999999999995Q2527.4 379.79999999999995 2534.4 375.79999999999995Q2539.4 373.79999999999995 2547.9 370.79999999999995Q2556.4 367.79999999999995 2563.4 372.79999999999995Q2569.4 375.79999999999995 2574.4 377.79999999999995Q2580.4 386.79999999999995 2578.9 398.79999999999995Q2577.4 410.79999999999995 2575.4 418.79999999999995Q2577.4 429.79999999999995 2577.4 441.79999999999995Q2577.4 453.79999999999995 2587.4 457.79999999999995Q2590.4 458.79999999999995 2593.4 458.29999999999995Q2596.4 457.79999999999995 2598.4 460.79999999999995Q2603.4 457.79999999999995 2607.4 456.79999999999995Q2611.4 455.79999999999995 2614.4 453.79999999999995Q2620.4 448.79999999999995 2621.4 441.79999999999995Q2622.4 434.79999999999995 2627.4 427.79999999999995Q2630.4 415.79999999999995 2634.9 407.79999999999995Q2639.4 399.79999999999995 2639.4 389.79999999999995Q2639.4 384.79999999999995 2637.9 380.29999999999995Q2636.4 375.79999999999995 2636.4 370.79999999999995Q2631.4 363.79999999999995 2629.4 356.79999999999995Q2627.4 349.79999999999995 2625.4 342.79999999999995Q2616.4 335.79999999999995 2602.4 330.79999999999995Q2588.4 325.79999999999995 2577.4 317.79999999999995Q2566.4 318.79999999999995 2552.9 321.29999999999995Q2539.4 323.79999999999995 2528.4 328.79999999999995Q2523.4 333.79999999999995 2516.4 336.79999999999995Q2509.4 339.79999999999995 2501.4 342.79999999999995Q2496.4 347.79999999999995 2492.9 352.29999999999995Q2489.4 356.79999999999995 2483.4 358.79999999999995Q2472.4 370.79999999999995 2466.4 376.79999999999995Q2460.4 382.79999999999995 2455.4 390.79999999999995Q2453.4 396.79999999999995 2451.9 402.29999999999995Q2450.4 407.79999999999995 2448.4 412.79999999999995Q2447.4 419.79999999999995 2447.4 425.79999999999995Q2447.4 431.79999999999995 2445.4 439.79999999999995Q2450.4 448.79999999999995 2445.4 457.79999999999995Q2441.4 476.79999999999995 2437.9 486.79999999999995Q2434.4 496.79999999999995 2432.4 506.79999999999995Q2430.4 518.8 2429.4 520.8Q2428.4 522.8 2428.4 524.8Q2427.4 532.8 2429.4 540.8Q2431.4 548.8 2432.4 556.8V572.8Q2438.4 582.8 2440.4 596.3Q2442.4 609.8 2447.4 621.8Q2447.4 634.8 2450.4 640.3Q2453.4 645.8 2452.4 656.8Q2454.4 663.8 2454.9 672.3Q2455.4 680.8 2457.4 689.8Q2464.4 707.8 2455.9 717.8Q2447.4 727.8 2440.4 738.8Q2435.4 740.8 2430.9 742.3Q2426.4 743.8 2422.4 747.8Q2414.4 746.8 2410.4 750.8Q2403.4 749.8 2399.9 750.8Q2396.4 751.8 2391.4 752.8Q2388.4 751.8 2385.4 750.3Q2382.4 748.8 2378.4 748.8Q2368.4 748.8 2363.9 745.8Q2359.4 742.8 2356.4 740.8Q2348.4 740.8 2343.4 735.8Q2336.4 729.8 2329.9 725.3Q2323.4 720.8 2320.4 713.8Q2319.4 706.8 2317.9 701.8Q2316.4 696.8 2315.4 691.8Q2316.4 679.8 2317.9 668.8Q2319.4 657.8 2322.4 652.8Q2327.4 646.8 2327.9 644.3Q2328.4 641.8 2330.4 640.8Q2334.4 629.8 2338.4 617.3Q2342.4 604.8 2345.4 593.8Q2346.4 589.8 2347.9 586.8Q2349.4 583.8 2349.4 580.8Q2349.4 577.8 2348.4 574.8Q2347.4 571.8 2348.4 569.8Q2349.4 564.8 2350.9 560.3Q2352.4 555.8 2352.4 550.8Q2352.4 541.8 2353.4 537.8Q2353.4 533.8 2352.4 530.3Q2351.4 526.8 2350.4 521.8Q2348.4 514.8 2347.9 509.79999999999995Q2347.4 504.79999999999995 2345.4 498.79999999999995Q2345.4 485.79999999999995 2342.9 476.29999999999995Q2340.4 466.79999999999995 2342.4 460.79999999999995Q2336.4 444.79999999999995 2336.9 433.29999999999995Q2337.4 421.79999999999995 2332.4 415.79999999999995Q2330.4 404.79999999999995 2329.9 395.79999999999995Q2329.4 386.79999999999995 2331.4 377.79999999999995Q2329.4 371.79999999999995 2329.9 364.79999999999995Q2330.4 357.79999999999995 2328.4 350.79999999999995Q2326.4 333.79999999999995 2326.4 319.79999999999995Q2326.4 305.79999999999995 2319.4 296.79999999999995Q2314.4 282.79999999999995 2308.4 275.79999999999995Q2302.4 268.79999999999995 2297.4 265.79999999999995Q2296.4 260.79999999999995 2290.9 255.29999999999995Q2285.4 249.79999999999995 2284.4 244.79999999999995Q2283.4 234.79999999999995 2292.4 225.79999999999995Q2297.4 209.79999999999995 2301.9 199.29999999999995Q2306.4 188.79999999999995 2311.4 177.79999999999995Q2322.4 174.79999999999995 2336.4 172.79999999999995Q2350.4 170.79999999999995 2364.4 172.79999999999995Q2378.4 169.79999999999995 2391.9 166.29999999999995Q2405.4 162.79999999999995 2416.4 163.79999999999995Q2424.4 163.79999999999995 2429.9 170.29999999999995Q2435.4 176.79999999999995 2443.4 179.79999999999995Q2448.4 187.79999999999995 2450.9 194.79999999999995Q2453.4 201.79999999999995 2451.4 208.79999999999995Q2456.4 222.79999999999995 2455.4 239.79999999999995Q2454.4 256.79999999999995 2454.4 272.79999999999995ZM2834.4 71.79999999999995Q2839.4 75.79999999999995 2843.4 78.79999999999995Q2847.4 81.79999999999995 2846.4 86.79999999999995Q2846.4 94.79999999999995 2838.4 100.79999999999995Q2826.4 107.79999999999995 2822.9 110.79999999999995Q2819.4 113.79999999999995 2816.4 114.79999999999995Q2801.4 117.79999999999995 2795.4 101.79999999999995Q2798.4 91.79999999999995 2800.4 87.29999999999995Q2802.4 82.79999999999995 2807.4 80.79999999999995Q2817.4 70.79999999999995 2823.9 72.29999999999995Q2830.4 73.79999999999995 2834.4 71.79999999999995ZM3113.4 339.79999999999995Q3113.4 334.79999999999995 3112.4 330.79999999999995Q3111.4 326.79999999999995 3113.4 322.79999999999995Q3121.4 317.79999999999995 3131.4 318.79999999999995Q3141.4 319.79999999999995 3141.4 329.79999999999995Q3142.4 335.79999999999995 3137.9 339.29999999999995Q3133.4 342.79999999999995 3128.4 344.79999999999995Q3117.4 342.79999999999995 3116.9 341.29999999999995Q3116.4 339.79999999999995 3113.4 339.79999999999995ZM3078.4 385.79999999999995Q3086.4 381.79999999999995 3092.9 377.79999999999995Q3099.4 373.79999999999995 3109.4 372.79999999999995Q3118.4 378.79999999999995 3117.4 387.79999999999995Q3116.4 396.79999999999995 3109.9 403.29999999999995Q3103.4 409.79999999999995 3093.9 412.29999999999995Q3084.4 414.79999999999995 3076.4 407.79999999999995Q3074.4 400.79999999999995 3075.4 395.79999999999995Q3076.4 390.79999999999995 3078.4 385.79999999999995ZM2969.4 583.8Q2976.4 584.8 2981.9 592.3Q2987.4 599.8 2984.4 608.8Q2983.4 610.8 2974.9 617.8Q2966.4 624.8 2960.4 626.8Q2953.4 627.8 2948.9 625.8Q2944.4 623.8 2939.4 622.8Q2934.4 610.8 2940.4 604.3Q2946.4 597.8 2949.4 595.8Q2957.4 591.8 2961.9 588.8Q2966.4 585.8 2969.4 583.8ZM2781.4 752.8Q2778.4 747.8 2771.4 747.8Q2769.4 745.8 2767.9 743.3Q2766.4 740.8 2762.4 739.8Q2760.4 727.8 2760.4 723.3Q2760.4 718.8 2761.4 716.8Q2766.4 711.8 2773.4 708.8Q2780.4 705.8 2789.4 709.8Q2791.4 713.8 2796.4 716.8Q2801.4 719.8 2806.4 720.8Q2810.4 725.8 2813.9 731.3Q2817.4 736.8 2812.4 743.8Q2806.4 746.8 2799.4 749.8Q2792.4 752.8 2781.4 752.8ZM2996.4 117.79999999999995Q3012.4 118.79999999999995 3022.9 123.79999999999995Q3033.4 128.79999999999995 3044.4 133.79999999999995Q3055.4 141.79999999999995 3061.4 144.79999999999995Q3067.4 147.79999999999995 3072.4 151.79999999999995Q3073.4 155.79999999999995 3074.9 158.29999999999995Q3076.4 160.79999999999995 3077.4 165.79999999999995Q3090.4 184.79999999999995 3097.4 201.79999999999995Q3104.4 218.79999999999995 3101.4 242.79999999999995V255.79999999999995Q3101.4 263.79999999999995 3098.9 268.79999999999995Q3096.4 273.79999999999995 3094.4 281.79999999999995Q3093.4 285.79999999999995 3092.4 289.79999999999995Q3091.4 293.79999999999995 3091.4 297.79999999999995Q3090.4 299.79999999999995 3091.4 303.79999999999995Q3092.4 307.79999999999995 3091.4 310.79999999999995Q3086.4 317.79999999999995 3085.9 320.29999999999995Q3085.4 322.79999999999995 3082.4 324.79999999999995Q3083.4 327.79999999999995 3080.9 331.29999999999995Q3078.4 334.79999999999995 3076.4 336.79999999999995Q3073.4 346.79999999999995 3071.9 349.79999999999995Q3070.4 352.79999999999995 3066.4 354.79999999999995Q3064.4 356.79999999999995 3061.4 357.79999999999995Q3058.4 358.79999999999995 3055.4 360.79999999999995Q3047.4 365.79999999999995 3041.4 372.29999999999995Q3035.4 378.79999999999995 3027.4 376.79999999999995Q3014.4 382.79999999999995 3003.4 379.79999999999995Q2994.4 373.79999999999995 2988.4 372.79999999999995Q2982.4 371.79999999999995 2977.4 368.79999999999995Q2972.4 365.79999999999995 2967.4 360.79999999999995Q2962.4 355.79999999999995 2961.4 350.79999999999995Q2960.4 346.79999999999995 2957.9 341.79999999999995Q2955.4 336.79999999999995 2953.4 330.79999999999995Q2951.4 324.79999999999995 2950.9 319.29999999999995Q2950.4 313.79999999999995 2953.4 307.79999999999995Q2961.4 294.79999999999995 2966.4 287.29999999999995Q2971.4 279.79999999999995 2979.4 276.79999999999995Q2982.4 271.79999999999995 2987.9 269.79999999999995Q2993.4 267.79999999999995 2996.4 262.79999999999995Q2995.4 251.79999999999995 2997.4 246.29999999999995Q2999.4 240.79999999999995 2999.4 235.79999999999995Q2999.4 230.79999999999995 2995.9 227.29999999999995Q2992.4 223.79999999999995 2993.4 218.79999999999995Q2989.4 213.79999999999995 2988.9 208.79999999999995Q2988.4 203.79999999999995 2983.4 200.79999999999995Q2980.4 198.79999999999995 2976.4 198.29999999999995Q2972.4 197.79999999999995 2969.4 195.79999999999995Q2960.4 194.79999999999995 2954.9 195.79999999999995Q2949.4 196.79999999999995 2941.4 197.79999999999995Q2933.4 197.79999999999995 2930.4 199.29999999999995Q2927.4 200.79999999999995 2923.4 200.79999999999995Q2912.4 204.79999999999995 2902.4 209.29999999999995Q2892.4 213.79999999999995 2885.4 221.79999999999995Q2877.4 226.79999999999995 2876.4 228.29999999999995Q2875.4 229.79999999999995 2872.4 231.79999999999995Q2870.4 236.79999999999995 2868.4 241.79999999999995Q2866.4 246.79999999999995 2864.4 251.79999999999995Q2863.4 255.79999999999995 2863.9 259.79999999999995Q2864.4 263.79999999999995 2861.4 266.79999999999995Q2861.4 275.79999999999995 2860.9 287.29999999999995Q2860.4 298.79999999999995 2861.4 309.79999999999995Q2862.4 320.79999999999995 2864.9 331.29999999999995Q2867.4 341.79999999999995 2874.4 348.79999999999995Q2877.4 351.79999999999995 2880.9 354.79999999999995Q2884.4 357.79999999999995 2889.4 359.79999999999995Q2891.4 364.79999999999995 2895.9 366.29999999999995Q2900.4 367.79999999999995 2901.4 372.79999999999995Q2912.4 377.79999999999995 2921.9 386.29999999999995Q2931.4 394.79999999999995 2945.4 397.79999999999995Q2951.4 399.79999999999995 2954.4 402.29999999999995Q2957.4 404.79999999999995 2960.4 406.79999999999995Q2964.4 408.79999999999995 2968.9 408.29999999999995Q2973.4 407.79999999999995 2976.4 410.79999999999995Q2984.4 411.79999999999995 2996.4 411.79999999999995Q3008.4 411.79999999999995 3016.4 416.79999999999995Q3023.4 416.79999999999995 3027.9 418.79999999999995Q3032.4 420.79999999999995 3037.4 425.79999999999995Q3045.4 435.79999999999995 3050.4 438.29999999999995Q3055.4 440.79999999999995 3058.4 443.79999999999995Q3066.4 453.79999999999995 3069.9 458.29999999999995Q3073.4 462.79999999999995 3073.4 467.79999999999995Q3074.4 482.79999999999995 3078.9 491.79999999999995Q3083.4 500.79999999999995 3083.4 510.79999999999995Q3087.4 526.8 3087.9 535.3Q3088.4 543.8 3088.4 553.8Q3089.4 566.8 3086.9 581.8Q3084.4 596.8 3079.4 608.8Q3076.4 618.8 3076.9 620.3Q3077.4 621.8 3076.4 623.8Q3069.4 631.8 3069.4 633.8Q3069.4 635.8 3068.4 637.8Q3067.4 640.8 3065.4 642.8Q3063.4 644.8 3061.4 648.8Q3059.4 651.8 3058.9 654.8Q3058.4 657.8 3056.4 659.8Q3054.4 664.8 3049.9 667.3Q3045.4 669.8 3044.4 674.8Q3036.4 681.8 3027.9 688.3Q3019.4 694.8 3008.4 699.8Q2995.4 703.8 2989.9 708.8Q2984.4 713.8 2977.4 714.8Q2964.4 723.8 2957.4 725.8Q2950.4 727.8 2945.4 731.8Q2942.4 729.8 2936.4 733.3Q2930.4 736.8 2925.4 737.8Q2921.4 738.8 2918.9 738.3Q2916.4 737.8 2913.4 739.8Q2906.4 741.8 2899.4 738.8Q2894.4 742.8 2884.4 740.8Q2880.4 738.8 2877.4 737.8Q2874.4 736.8 2870.4 735.8Q2861.4 735.8 2858.4 734.8Q2850.4 732.8 2842.4 725.3Q2834.4 717.8 2826.4 712.8Q2821.4 709.8 2817.4 706.3Q2813.4 702.8 2808.4 699.8Q2800.4 694.8 2793.4 691.3Q2786.4 687.8 2781.4 679.8Q2775.4 672.8 2771.4 667.3Q2767.4 661.8 2765.4 654.8Q2763.4 649.8 2762.9 643.3Q2762.4 636.8 2758.4 632.8Q2760.4 619.8 2759.4 608.3Q2758.4 596.8 2759.4 582.8Q2760.4 579.8 2761.4 576.8Q2762.4 573.8 2763.4 570.8Q2765.4 565.8 2764.9 561.3Q2764.4 556.8 2769.4 554.8Q2770.4 543.8 2776.4 534.8Q2782.4 525.8 2787.4 514.8Q2795.4 512.8 2802.4 511.29999999999995Q2809.4 509.79999999999995 2816.4 511.79999999999995Q2830.4 506.79999999999995 2846.9 511.79999999999995Q2863.4 516.8 2877.4 521.8Q2881.4 523.8 2884.9 525.8Q2888.4 527.8 2890.4 530.8Q2894.4 544.8 2887.4 557.3Q2880.4 569.8 2868.4 574.8Q2865.4 576.8 2865.4 579.8Q2865.4 582.8 2865.4 587.8Q2866.4 592.8 2864.9 596.3Q2863.4 599.8 2865.4 604.8Q2867.4 608.8 2870.9 610.3Q2874.4 611.8 2879.4 613.8Q2893.4 616.8 2894.4 622.3Q2895.4 627.8 2897.4 631.8Q2899.4 635.8 2904.4 636.8Q2909.4 637.8 2912.4 636.8Q2926.4 644.8 2943.4 646.3Q2960.4 647.8 2974.4 641.8Q2992.4 630.8 3001.4 618.3Q3010.4 605.8 3010.4 587.8Q3005.4 573.8 3000.4 558.8Q2995.4 543.8 2984.4 538.8Q2981.4 528.8 2970.4 526.8Q2962.4 520.8 2953.4 515.3Q2944.4 509.79999999999995 2933.4 507.79999999999995Q2923.4 504.79999999999995 2916.9 500.29999999999995Q2910.4 495.79999999999995 2904.4 495.79999999999995Q2897.4 495.79999999999995 2894.4 495.29999999999995Q2891.4 494.79999999999995 2888.4 494.79999999999995Q2880.4 492.79999999999995 2871.9 488.79999999999995Q2863.4 484.79999999999995 2855.4 480.79999999999995Q2849.4 480.79999999999995 2844.9 476.79999999999995Q2840.4 472.79999999999995 2835.4 475.79999999999995Q2826.4 464.79999999999995 2819.4 459.29999999999995Q2812.4 453.79999999999995 2808.4 445.79999999999995Q2802.4 445.79999999999995 2800.4 443.79999999999995Q2798.4 441.79999999999995 2795.4 437.79999999999995Q2791.4 430.79999999999995 2787.9 423.29999999999995Q2784.4 415.79999999999995 2783.4 406.79999999999995Q2778.4 403.79999999999995 2778.9 398.29999999999995Q2779.4 392.79999999999995 2777.4 386.79999999999995Q2775.4 381.79999999999995 2771.9 377.29999999999995Q2768.4 372.79999999999995 2767.4 366.79999999999995Q2760.4 359.79999999999995 2763.4 349.29999999999995Q2766.4 338.79999999999995 2764.4 329.79999999999995Q2764.4 324.79999999999995 2765.4 320.79999999999995Q2766.4 316.79999999999995 2763.4 314.79999999999995Q2765.4 307.79999999999995 2766.9 300.29999999999995Q2768.4 292.79999999999995 2769.4 285.79999999999995Q2770.4 281.79999999999995 2769.4 278.29999999999995Q2768.4 274.79999999999995 2769.4 270.79999999999995Q2771.4 258.79999999999995 2774.9 248.79999999999995Q2778.4 238.79999999999995 2780.4 228.79999999999995Q2785.4 225.79999999999995 2784.9 220.79999999999995Q2784.4 215.79999999999995 2785.4 210.79999999999995Q2786.4 206.79999999999995 2789.9 203.79999999999995Q2793.4 200.79999999999995 2798.4 196.79999999999995Q2804.4 187.79999999999995 2805.9 187.29999999999995Q2807.4 186.79999999999995 2808.4 184.79999999999995Q2816.4 174.79999999999995 2821.4 171.79999999999995Q2826.4 168.79999999999995 2828.4 163.79999999999995Q2842.4 153.79999999999995 2853.4 145.29999999999995Q2864.4 136.79999999999995 2877.4 131.79999999999995Q2891.4 122.79999999999995 2908.9 119.79999999999995Q2926.4 116.79999999999995 2940.4 111.79999999999995Q2944.4 114.79999999999995 2948.9 113.29999999999995Q2953.4 111.79999999999995 2958.4 113.79999999999995Q2966.4 109.79999999999995 2977.4 112.29999999999995Q2988.4 114.79999999999995 2995.4 119.79999999999995Z" /></svg>