<svg viewBox="0 0 10534.0 1727" xmlns="http://www.w3.org/2000/svg"><path d="M0 404Q163 268 194 268H1067Q1053 270 1024.5 295.0Q996 320 976.0 337.5Q956 355 937 369Q892 404 872 404H382V948H867Q854 950 825.0 975.5Q796 1001 776.0 1018.0Q756 1035 737 1050Q693 1085 672 1085H382V1319Q382 1499 310 1571H631Q617 1573 588.5 1598.0Q560 1623 540.0 1640.5Q520 1658 501 1673Q456 1707 436 1707H97Q187 1567 187 1468V1085H47Q117 1029 187 975V404ZM1627 1633Q1491 1724 1352 1724Q1189 1724 1075 1597Q964 1475 964 1311Q964 1171 1049 1030Q1176 816 1395 741Q1465 716 1543.0 716.0Q1621 716 1691.5 750.5Q1762 785 1813.0 843.0Q1864 901 1892.5 975.5Q1921 1050 1921.0 1125.0Q1921 1200 1899.0 1271.5Q1877 1343 1837.5 1409.0Q1798 1475 1744.5 1532.5Q1691 1590 1627 1633ZM1340 850Q1240 850 1194 947Q1158 1023 1158.0 1119.0Q1158 1215 1183.5 1297.5Q1209 1380 1259 1445Q1370 1591 1545 1591Q1647 1591 1693 1489Q1726 1413 1726 1314Q1726 1121 1618.5 985.5Q1511 850 1340 850ZM2183 1639 2184 996Q2184 929 2166 906Q2135 866 2080.0 866.0Q2025 866 1982 882Q2008 872 2050 835Q2127 764 2159 752Q2219 728 2264.5 728.0Q2310 728 2332.5 743.0Q2355 758 2365 783Q2378 814 2378 901Q2565 736 2728 736Q2817 736 2883 792Q2952 852 2952 938V1432Q2952 1506 2968 1534Q2998 1587 3068 1587Q3108 1587 3144 1572Q3055 1649 3021 1671Q2943 1722 2884.5 1722.0Q2826 1722 2801.5 1701.0Q2777 1680 2767 1648Q2756 1613 2756 1505V1131Q2756 952 2639 895Q2597 875 2538 875Q2393 875 2381 1090Q2378 1144 2378 1187V1496Q2378 1560 2417 1583Q2431 1592 2452.0 1592.0Q2473 1592 2496 1582Q2475 1600 2446.0 1625.0Q2417 1650 2385 1673Q2306 1727 2259 1727Q2183 1727 2183 1639ZM3913 722V394Q3913 287 3874 252Q3856 236 3830 236Q3799 236 3739 251Q3990 60 4107 0V1430Q4107 1511 4124 1537Q4154 1587 4228 1587Q4258 1587 4287 1581Q4258 1604 4229.5 1629.0Q4201 1654 4170 1675Q4099 1723 4045.0 1723.0Q3991 1723 3967.5 1713.0Q3944 1703 3931 1684Q3911 1655 3911 1575Q3706 1727 3582 1727Q3399 1727 3302 1605Q3212 1493 3212 1305Q3212 1151 3308 1011Q3397 878 3543 797Q3613 758 3690.0 736.5Q3767 715 3820.0 715.0Q3873 715 3913 722ZM3913 995Q3868 923 3796.0 886.0Q3724 849 3646.0 849.0Q3568 849 3522.0 875.5Q3476 902 3450 946Q3405 1022 3405.0 1136.5Q3405 1251 3425.0 1328.5Q3445 1406 3488 1465Q3582 1592 3763 1592Q3802 1592 3840 1569Q3913 1527 3913 1490ZM5063 1411 5061 1481Q5061 1559 5105 1580Q5122 1588 5144 1588Q5179 1588 5216 1572Q5178 1588 5150.0 1614.0Q5122 1640 5093 1665Q5021 1725 4948 1725Q4875 1725 4870 1641Q4868 1619 4868 1597Q4688 1722 4538 1722Q4411 1722 4362 1645Q4344 1617 4344.0 1568.0Q4344 1519 4374.0 1469.5Q4404 1420 4450 1379Q4532 1303 4648 1254Q4734 1217 4869 1212V1168Q4869 1009 4840.0 953.0Q4811 897 4765.0 870.5Q4719 844 4657 844Q4552 844 4472 885Q4582 794 4633 765Q4738 706 4823.5 706.0Q4909 706 4952.0 731.0Q4995 756 5020 797Q5063 869 5063 1004ZM4869 1558V1348H4707Q4620 1348 4555 1360Q4542 1403 4542.0 1442.0Q4542 1481 4555.5 1509.0Q4569 1537 4593.0 1554.5Q4617 1572 4649.0 1580.0Q4681 1588 4744.0 1588.0Q4807 1588 4869 1558ZM6123 906Q6345 736 6461 736Q6539 736 6584 801Q6623 856 6623 938V1416Q6623 1507 6634 1534Q6658 1587 6736 1587Q6776 1587 6812 1572Q6723 1649 6689 1671Q6611 1722 6552.5 1722.0Q6494 1722 6469.5 1701.5Q6445 1681 6435 1649Q6424 1614 6424 1505V1128Q6424 1018 6403.5 970.5Q6383 923 6353.0 899.0Q6323 875 6282.5 875.0Q6242 875 6220.0 887.0Q6198 899 6182 918Q6122 989 6122 1148V1432Q6122 1506 6138 1534Q6168 1587 6238 1587Q6278 1587 6314 1572Q6225 1649 6191 1671Q6113 1722 6054.5 1722.0Q5996 1722 5971.5 1701.5Q5947 1681 5937 1649Q5926 1614 5926 1505V1128Q5926 1018 5905.5 970.5Q5885 923 5855.0 899.0Q5825 875 5783.0 875.0Q5741 875 5718.0 891.0Q5695 907 5678.5 933.5Q5662 960 5652.0 993.5Q5642 1027 5636 1062Q5627 1122 5627 1187V1496Q5627 1560 5666 1583Q5680 1592 5701.0 1592.0Q5722 1592 5745 1582Q5630 1681 5583.0 1704.0Q5536 1727 5508 1727Q5432 1727 5432 1639V1063Q5432 1028 5433.0 993.0Q5434 958 5426 929Q5407 866 5317 866Q5274 866 5231 882Q5257 873 5298 835Q5378 763 5409 751Q5473 728 5516.5 728.0Q5560 728 5582.5 744.0Q5605 760 5615 785Q5627 816 5627 905Q5757 802 5879 754Q5925 736 5962.0 736.0Q5999 736 6027.5 750.0Q6056 764 6076 788Q6117 837 6123 906ZM7639 1522Q7502 1675 7299 1713Q7252 1721 7183.0 1721.0Q7114 1721 7053.0 1682.5Q6992 1644 6953 1583Q6879 1465 6879 1295Q6879 1183 6965 1047Q7049 913 7170 823Q7300 727 7416 727Q7476 727 7517 771Q7555 814 7555.0 869.0Q7555 924 7531.0 970.5Q7507 1017 7468.5 1061.0Q7430 1105 7380.5 1145.5Q7331 1186 7279 1221Q7206 1271 7095 1334Q7127 1455 7208.0 1520.5Q7289 1586 7417 1586Q7525 1586 7639 1522ZM7337 1121Q7364 1078 7364.0 1037.0Q7364 996 7355.0 967.5Q7346 939 7329 917Q7290 867 7228 867Q7076 867 7076 1177Q7076 1232 7085 1286Q7261 1237 7337 1121ZM7869 1639 7870 996Q7870 929 7852 906Q7821 866 7766.0 866.0Q7711 866 7668 882Q7694 872 7736 835Q7813 764 7845 752Q7905 728 7950.5 728.0Q7996 728 8018.5 743.0Q8041 758 8051 783Q8064 814 8064 901Q8251 736 8414 736Q8503 736 8569 792Q8638 852 8638 938V1432Q8638 1506 8654 1534Q8684 1587 8754 1587Q8794 1587 8830 1572Q8741 1649 8707 1671Q8629 1722 8570.5 1722.0Q8512 1722 8487.5 1701.0Q8463 1680 8453 1648Q8442 1613 8442 1505V1131Q8442 952 8325 895Q8283 875 8224 875Q8079 875 8067 1090Q8064 1144 8064 1187V1496Q8064 1560 8103 1583Q8117 1592 8138.0 1592.0Q8159 1592 8182 1582Q8161 1600 8132.0 1625.0Q8103 1650 8071 1673Q7992 1727 7945 1727Q7869 1727 7869 1639ZM8869 840 8999 738V596Q9053 558 9076.0 538.0Q9099 518 9115.0 509.0Q9131 500 9148 490Q9191 465 9194 460V704H9514Q9501 705 9448 752Q9347 840 9320 840H9194V1376Q9194 1560 9300 1589Q9332 1597 9360 1597Q9406 1597 9438.0 1583.5Q9470 1570 9491 1559Q9430 1652 9320 1701Q9263 1726 9197.5 1726.0Q9132 1726 9096.0 1703.0Q9060 1680 9038 1643Q8999 1575 8999 1463V840ZM10240 1633Q10104 1724 9965 1724Q9802 1724 9688 1597Q9577 1475 9577 1311Q9577 1171 9662 1030Q9789 816 10008 741Q10078 716 10156.0 716.0Q10234 716 10304.5 750.5Q10375 785 10426.0 843.0Q10477 901 10505.5 975.5Q10534 1050 10534.0 1125.0Q10534 1200 10512.0 1271.5Q10490 1343 10450.5 1409.0Q10411 1475 10357.5 1532.5Q10304 1590 10240 1633ZM9953 850Q9853 850 9807 947Q9771 1023 9771.0 1119.0Q9771 1215 9796.5 1297.5Q9822 1380 9872 1445Q9983 1591 10158 1591Q10260 1591 10306 1489Q10339 1413 10339 1314Q10339 1121 10231.5 985.5Q10124 850 9953 850Z" /></svg>