<svg viewBox="0 0 9842 1557" xmlns="http://www.w3.org/2000/svg"><path d="M718 312 714 721 595 406 335 430 329 689 415 683 518 500 509 968 408 794 327 788 323 1010 544 1104 -50 1102Q3 1079 56.0 1055.0Q109 1031 164 1010L148 455Q90 438 33.0 417.0Q-24 396 -82 376Q119 360 318.0 343.0Q517 326 718 312ZM1410 805Q1410 874 1375.5 921.5Q1341 969 1287.5 998.5Q1234 1028 1171.0 1041.5Q1108 1055 1051 1055Q995 1055 934.5 1041.0Q874 1027 823.5 997.0Q773 967 740.5 919.5Q708 872 708 805Q708 732 743.0 684.0Q778 636 831.5 608.0Q885 580 949.5 569.0Q1014 558 1074 558Q1129 558 1188.5 572.0Q1248 586 1297.5 615.5Q1347 645 1378.5 692.0Q1410 739 1410 805ZM1245 803Q1245 767 1231.5 737.0Q1218 707 1194.5 685.0Q1171 663 1140.0 651.0Q1109 639 1074 639Q1038 639 1002.0 649.5Q966 660 937.0 680.0Q908 700 890.0 730.5Q872 761 872 800Q872 839 884.5 871.0Q897 903 920.5 926.0Q944 949 976.0 961.5Q1008 974 1047 974Q1089 974 1125.0 964.5Q1161 955 1188.0 934.0Q1215 913 1230.0 880.5Q1245 848 1245 803ZM2120 981 1686 984 1873 912V732Q1873 679 1846.5 647.5Q1820 616 1766 616Q1739 616 1708.5 625.0Q1678 634 1663 659L1641 853Q1651 861 1672.5 873.0Q1694 885 1717 897Q1743 911 1773 926L1362 928L1530 859L1500 618Q1471 610 1433.0 599.5Q1395 589 1360 578Q1320 566 1277 553L1674 487L1669 548Q1704 534 1744.0 520.0Q1784 506 1822 506Q1913 506 1963.0 555.0Q2013 604 2013 696Q2013 719 2010.5 747.5Q2008 776 2004.0 805.0Q2000 834 1995.5 862.5Q1991 891 1987 915ZM2497 401 2488 495Q2439 491 2391.0 487.5Q2343 484 2294 479Q2286 574 2277.0 668.0Q2268 762 2259 857Q2259 862 2258.0 867.0Q2257 872 2257 877Q2257 891 2260.0 905.5Q2263 920 2270.0 931.5Q2277 943 2288.5 950.5Q2300 958 2317 958Q2350 958 2375.0 942.5Q2400 927 2417.0 903.0Q2434 879 2444.0 849.5Q2454 820 2457 791Q2469 838 2469 884Q2469 928 2455.0 963.5Q2441 999 2416.0 1024.5Q2391 1050 2356.0 1064.0Q2321 1078 2279 1078Q2235 1078 2202.0 1063.0Q2169 1048 2147.5 1021.5Q2126 995 2115.5 959.0Q2105 923 2105 882Q2105 874 2105.0 867.0Q2105 860 2106 852Q2114 755 2121.5 660.5Q2129 566 2135 469Q2108 467 2081.5 464.5Q2055 462 2028 459L2032 380Q2053 379 2076.0 373.0Q2099 367 2120.5 357.0Q2142 347 2160.5 333.0Q2179 319 2191 301Q2202 283 2211.5 262.0Q2221 241 2228.5 218.0Q2236 195 2241.0 172.5Q2246 150 2248 129L2330 131L2304 381ZM3264 1168 2918 1216 2923 1129Q2894 1136 2864.0 1139.0Q2834 1142 2804 1142Q2745 1142 2685.5 1128.5Q2626 1115 2578.5 1085.0Q2531 1055 2501.0 1007.0Q2471 959 2471 890Q2471 834 2495.0 789.5Q2519 745 2558.0 713.5Q2597 682 2646.5 665.0Q2696 648 2748 648Q2799 648 2850.5 658.5Q2902 669 2947 690L2965 345L2744 240L3156 269L3048 1117ZM2941 783Q2912 763 2869.0 754.0Q2826 745 2791 745Q2755 745 2724.5 757.0Q2694 769 2672.5 791.0Q2651 813 2639.0 843.5Q2627 874 2627 910Q2627 949 2646.0 977.5Q2665 1006 2695.0 1024.5Q2725 1043 2761.0 1051.5Q2797 1060 2830 1060Q2880 1060 2929 1040ZM3490 340Q3490 362 3481.5 381.5Q3473 401 3458.5 415.5Q3444 430 3424.5 438.5Q3405 447 3383 447Q3361 447 3342.0 438.5Q3323 430 3308.5 415.5Q3294 401 3285.5 381.5Q3277 362 3277 340Q3277 318 3285.5 299.0Q3294 280 3308.5 265.5Q3323 251 3342.0 242.5Q3361 234 3383 234Q3405 234 3424.5 242.5Q3444 251 3458.5 265.5Q3473 280 3481.5 299.0Q3490 318 3490 340ZM3607 1049 3159 1041 3325 938 3311 606 3120 516H3487L3454 945ZM4295 981 3861 984 4048 912V732Q4048 679 4021.5 647.5Q3995 616 3941 616Q3914 616 3883.5 625.0Q3853 634 3838 659L3816 853Q3826 861 3847.5 873.0Q3869 885 3892 897Q3918 911 3948 926L3537 928L3705 859L3675 618Q3646 610 3608.0 599.5Q3570 589 3535 578Q3495 566 3452 553L3849 487L3844 548Q3879 534 3919.0 520.0Q3959 506 3997 506Q4088 506 4138.0 555.0Q4188 604 4188 696Q4188 719 4185.5 747.5Q4183 776 4179.0 805.0Q4175 834 4170.5 862.5Q4166 891 4162 915ZM4811 865Q4811 872 4810.5 879.0Q4810 886 4810 893L4403 901Q4416 960 4462.0 988.0Q4508 1016 4566 1016Q4594 1016 4623.0 1012.0Q4652 1008 4680.0 999.0Q4708 990 4733.0 975.5Q4758 961 4778 941Q4767 983 4741.0 1015.0Q4715 1047 4679.5 1068.0Q4644 1089 4602.5 1099.5Q4561 1110 4520 1110Q4464 1110 4413.5 1090.0Q4363 1070 4325.5 1035.0Q4288 1000 4266.0 951.0Q4244 902 4244 844Q4244 783 4269.0 733.0Q4294 683 4335.0 647.5Q4376 612 4430.0 593.0Q4484 574 4543 574Q4605 574 4654.5 597.0Q4704 620 4739.0 660.0Q4774 700 4792.5 752.5Q4811 805 4811 865ZM4658 814Q4656 787 4647.0 762.0Q4638 737 4622.0 718.0Q4606 699 4583.5 687.5Q4561 676 4531 676Q4501 676 4479.0 687.0Q4457 698 4442.0 716.5Q4427 735 4417.5 759.5Q4408 784 4403 810ZM5390 559Q5390 600 5365.0 626.5Q5340 653 5298 653Q5267 653 5250.0 641.5Q5233 630 5221.5 615.5Q5210 601 5198.5 589.5Q5187 578 5166 578Q5129 578 5107.0 601.5Q5085 625 5074 657Q5073 659 5072.5 676.0Q5072 693 5071.0 719.0Q5070 745 5069.0 776.0Q5068 807 5067.0 835.0Q5066 863 5065.0 884.5Q5064 906 5064 913L5307 1001L4729 1060Q4781 1027 4833.0 994.5Q4885 962 4937 930L4900 581L4677 521L5080 433L5078 525Q5120 496 5164.5 475.5Q5209 455 5263 455Q5281 455 5300.0 459.0Q5319 463 5336.0 471.0Q5353 479 5366.0 492.5Q5379 506 5385 525Q5390 543 5390 559ZM6354 864Q6354 923 6323.0 963.5Q6292 1004 6245.0 1029.0Q6198 1054 6143.0 1065.5Q6088 1077 6040 1077Q5980 1077 5919.5 1058.5Q5859 1040 5810 1005L5731 1166L5767 793Q5780 838 5805.5 874.5Q5831 911 5865.0 937.0Q5899 963 5940.5 977.0Q5982 991 6029 991Q6046 991 6069.5 987.5Q6093 984 6114.5 975.0Q6136 966 6151.0 951.0Q6166 936 6166 914Q6166 886 6143.5 865.0Q6121 844 6090.0 829.5Q6059 815 6026.0 806.0Q5993 797 5973 793Q5932 785 5884.0 771.0Q5836 757 5794.5 733.5Q5753 710 5725.0 674.5Q5697 639 5697 587Q5697 527 5725.0 486.5Q5753 446 5796.5 422.0Q5840 398 5892.5 388.0Q5945 378 5995 378Q6067 378 6124.0 395.0Q6181 412 6244 447L6344 325L6307 654Q6282 614 6248.5 579.0Q6215 544 6175.0 517.5Q6135 491 6089.5 475.5Q6044 460 5996 460Q5979 460 5956.5 464.5Q5934 469 5913.0 478.5Q5892 488 5877.5 503.0Q5863 518 5863 540Q5863 561 5880.5 575.5Q5898 590 5922.5 599.5Q5947 609 5972.0 615.0Q5997 621 6012 624Q6057 634 6116.0 651.0Q6175 668 6228.0 696.0Q6281 724 6317.5 765.0Q6354 806 6354 864ZM7343 509 7148 578 6924 1067 6782 779 6653 1064 6419 580 6231 502 6756 478 6587 549 6691 782 6815 495 6947 789 7049 568 6904 490ZM7846 1057 7529 1070 7536 1014Q7504 1018 7472.0 1018.5Q7440 1019 7408 1019Q7379 1019 7344.0 1012.0Q7309 1005 7279.0 989.5Q7249 974 7229.0 949.0Q7209 924 7209 888Q7209 848 7228.0 820.0Q7247 792 7276.5 775.0Q7306 758 7342.0 750.0Q7378 742 7412 742Q7454 742 7494.0 746.0Q7534 750 7575 753Q7577 740 7578.0 726.5Q7579 713 7579 699Q7579 672 7574.5 646.0Q7570 620 7558.5 599.5Q7547 579 7526.5 567.0Q7506 555 7474 555Q7444 555 7419.5 564.5Q7395 574 7376 597Q7390 608 7395.0 621.5Q7400 635 7400 652V658Q7385 728 7312 728Q7279 728 7258.0 704.5Q7237 681 7237 649Q7237 605 7262.0 573.0Q7287 541 7323.5 520.0Q7360 499 7402.5 489.0Q7445 479 7481 479Q7596 479 7660.5 532.0Q7725 585 7725 705Q7725 718 7724.5 731.0Q7724 744 7723 757L7699 987Q7737 1004 7773.0 1022.0Q7809 1040 7846 1057ZM7564 820Q7538 817 7512.0 813.5Q7486 810 7460 810Q7443 810 7426.5 813.5Q7410 817 7396.5 825.0Q7383 833 7375.0 846.5Q7367 860 7367 880Q7367 895 7374.0 906.5Q7381 918 7392.5 926.0Q7404 934 7417.5 938.0Q7431 942 7444 942Q7470 942 7496.5 939.0Q7523 936 7548 933ZM8516 981 8082 984 8269 912V732Q8269 679 8242.5 647.5Q8216 616 8162 616Q8135 616 8104.5 625.0Q8074 634 8059 659L8037 853Q8047 861 8068.5 873.0Q8090 885 8113 897Q8139 911 8169 926L7758 928L7926 859L7896 618Q7867 610 7829.0 599.5Q7791 589 7756 578Q7716 566 7673 553L8070 487L8065 548Q8100 534 8140.0 520.0Q8180 506 8218 506Q8309 506 8359.0 555.0Q8409 604 8409 696Q8409 719 8406.5 747.5Q8404 776 8400.0 805.0Q8396 834 8391.5 862.5Q8387 891 8383 915ZM9304 1049 8821 1152 8981 1032 8778 721 8699 774 8695 957 8895 1037 8362 1058 8559 958 8517 309 8281 254 8715 221 8703 666 8915 486 8757 392H9271L9041 500L8875 626L9100 997ZM9811 575 9786 1171Q9783 1246 9762.0 1308.0Q9741 1370 9701.5 1414.5Q9662 1459 9602.5 1483.0Q9543 1507 9464 1507Q9420 1507 9375.0 1494.0Q9330 1481 9293.5 1455.5Q9257 1430 9234.0 1393.0Q9211 1356 9211 1307Q9211 1269 9235.0 1244.5Q9259 1220 9297 1220Q9329 1220 9351.0 1244.0Q9373 1268 9373 1299Q9373 1319 9360.5 1336.0Q9348 1353 9331 1361Q9353 1390 9388.0 1405.0Q9423 1420 9458 1420Q9510 1420 9541.5 1394.0Q9573 1368 9590.0 1329.0Q9607 1290 9613.5 1244.5Q9620 1199 9623 1159Q9625 1118 9625.5 1078.5Q9626 1039 9628 999Q9581 1011 9540.5 1019.5Q9500 1028 9452 1028Q9403 1028 9358.5 1017.0Q9314 1006 9280.5 982.0Q9247 958 9227.0 920.0Q9207 882 9207 828Q9207 813 9212.5 787.5Q9218 762 9225.5 735.0Q9233 708 9241.0 683.0Q9249 658 9253 645L9110 487L9453 605Q9447 622 9436.5 654.0Q9426 686 9415.0 720.5Q9404 755 9396.0 786.5Q9388 818 9388 833Q9388 858 9400.0 876.0Q9412 894 9430.5 906.0Q9449 918 9471.5 923.5Q9494 929 9516 929Q9542 929 9574.5 924.0Q9607 919 9632 908L9634 659L9444 536Z" fill="currentColor" /></svg>