<svg viewBox="0 0 2554 1104" xmlns="http://www.w3.org/2000/svg"><path d="M184 846H189V856H46V846H51Q59 846 65.0 840.5Q71 835 75.5 827.0Q80 819 82.0 810.0Q84 801 84 793V258Q84 251 82.0 242.0Q80 233 76.0 225.0Q72 217 65.5 211.5Q59 206 51 206H46V196H430V289H420Q420 266 404.5 248.5Q389 231 356 231H151V484H317Q340 484 355.5 470.0Q371 456 371 437H381V562H371Q371 544 356.0 531.0Q341 518 317 518H151V793Q151 801 153.0 810.0Q155 819 159.5 827.0Q164 835 170.0 840.5Q176 846 184 846ZM652 863Q602 863 562.0 846.5Q522 830 493.5 801.5Q465 773 449.5 734.0Q434 695 434 649Q434 600 451.0 559.5Q468 519 498.0 490.0Q528 461 569.0 445.0Q610 429 658 429Q706 429 746.0 444.5Q786 460 815.0 488.0Q844 516 860.0 554.5Q876 593 876 639Q876 682 861.5 722.5Q847 763 818.5 794.0Q790 825 748.5 844.0Q707 863 652 863ZM646 462Q610 464 582.5 479.5Q555 495 536.5 519.5Q518 544 508.5 575.0Q499 606 499 638Q499 675 510.5 709.5Q522 744 543.5 771.0Q565 798 595.0 814.0Q625 830 662 830Q699 830 727.5 814.0Q756 798 775.0 772.5Q794 747 803.5 715.0Q813 683 813 651Q813 618 803.0 584.5Q793 551 772.0 523.5Q751 496 719.5 479.0Q688 462 646 462ZM1209 509Q1197 489 1184.0 484.0Q1171 479 1154 479Q1143 479 1130.5 484.0Q1118 489 1106.0 497.0Q1094 505 1082.5 514.5Q1071 524 1063 532V792Q1063 800 1065.0 809.0Q1067 818 1071.5 826.5Q1076 835 1081.5 840.5Q1087 846 1095 846V856H965V846Q972 846 978.0 840.5Q984 835 988.5 826.5Q993 818 995.0 809.0Q997 800 997 792V513Q997 499 988.0 485.0Q979 471 962 467V459L1063 429V489Q1072 478 1082.0 467.5Q1092 457 1104.5 448.5Q1117 440 1132.0 434.5Q1147 429 1167 429Q1181 429 1203.0 435.0Q1225 441 1239 448ZM1698 791Q1698 798 1700.0 807.5Q1702 817 1705.5 825.5Q1709 834 1715.0 840.0Q1721 846 1729 846V856H1632V801Q1617 823 1588.0 844.0Q1559 865 1513 865Q1455 865 1421.0 845.0Q1387 825 1369.0 794.0Q1351 763 1346.0 726.5Q1341 690 1341 658V515Q1341 506 1340.5 497.5Q1340 489 1336.5 482.0Q1333 475 1326.0 470.5Q1319 466 1306 466V457L1407 425V680Q1407 756 1440.0 792.0Q1473 828 1521 828Q1547 828 1567.5 816.5Q1588 805 1602.5 789.0Q1617 773 1624.5 756.0Q1632 739 1632 728V515Q1632 506 1631.5 497.5Q1631 489 1627.5 482.0Q1624 475 1617.0 470.5Q1610 466 1597 466V457L1698 425ZM2466 791Q2466 799 2468.0 808.5Q2470 818 2474.0 826.0Q2478 834 2483.5 840.0Q2489 846 2497 846V856H2367V846Q2375 846 2381.0 840.0Q2387 834 2391.5 826.0Q2396 818 2398.0 808.5Q2400 799 2400 791V575Q2400 552 2393.5 531.0Q2387 510 2374.0 494.5Q2361 479 2342.0 469.5Q2323 460 2299 460Q2272 460 2252.5 472.5Q2233 485 2220.5 503.0Q2208 521 2202.0 539.5Q2196 558 2196 570V791Q2196 799 2198.0 808.5Q2200 818 2204.5 826.0Q2209 834 2214.5 840.0Q2220 846 2228 846V856H2099V846Q2106 846 2112.0 840.0Q2118 834 2122.5 826.0Q2127 818 2129.0 808.5Q2131 799 2131 791V569Q2131 545 2122.5 524.5Q2114 504 2099.5 490.0Q2085 476 2066.5 468.0Q2048 460 2029 460Q2003 460 1983.5 470.0Q1964 480 1951.5 495.0Q1939 510 1932.5 527.5Q1926 545 1926 561V791Q1926 799 1928.0 808.5Q1930 818 1934.5 826.0Q1939 834 1944.5 840.0Q1950 846 1958 846V856H1829V846Q1836 846 1842.0 840.0Q1848 834 1852.5 826.0Q1857 818 1859.0 808.5Q1861 799 1861 791V524Q1861 516 1860.0 506.0Q1859 496 1856.0 487.0Q1853 478 1846.0 472.0Q1839 466 1827 466V457L1926 424V475Q1941 458 1967.5 442.0Q1994 426 2037 426Q2065 426 2087.0 434.0Q2109 442 2125.5 454.5Q2142 467 2154.0 483.0Q2166 499 2174 514Q2182 499 2193.0 483.5Q2204 468 2219.5 455.0Q2235 442 2256.5 434.0Q2278 426 2307 426Q2363 426 2395.0 446.0Q2427 466 2442.5 494.0Q2458 522 2462.0 552.5Q2466 583 2466 604Z" fill="currentColor" /></svg>