<svg viewBox="0 0 9599 2466" xmlns="http://www.w3.org/2000/svg"><path d="M899 556Q945 556 977.0 548.0Q1009 540 1035.5 532.5Q1062 525 1088 525Q1136 525 1160.0 548.5Q1184 572 1200 628L1288 932Q1297 963 1278.5 984.5Q1260 1006 1227 1011Q1201 1015 1175.0 1005.5Q1149 996 1132 962Q1078 854 1027.0 797.5Q976 741 922.0 720.0Q868 699 802 699H694V1734Q694 1759 705.5 1776.5Q717 1794 745 1800L805 1813Q837 1820 851.0 1837.5Q865 1855 865 1888Q865 1919 844.0 1937.5Q823 1956 779 1956H175Q131 1956 110.0 1937.5Q89 1919 89 1888Q89 1834 141 1814L179 1800Q205 1790 217.5 1774.5Q230 1759 230 1734V778Q230 753 217.5 737.5Q205 722 179 712L141 698Q89 678 89 624Q89 592 110.0 574.0Q131 556 175 556ZM527 1217H797Q860 1217 887.0 1192.0Q914 1167 939 1092Q949 1062 967.0 1050.0Q985 1038 1009 1038Q1067 1038 1080 1093L1158 1411Q1167 1447 1156.0 1467.0Q1145 1487 1119 1497Q1091 1507 1066.5 1498.5Q1042 1490 1020 1461Q991 1420 965.5 1397.5Q940 1375 907.0 1366.0Q874 1357 821 1357H527ZM1839 1410Q1839 1257 1879.0 1157.5Q1919 1058 1985.5 1010.0Q2052 962 2131 962Q2237 962 2293.5 1025.5Q2350 1089 2350 1217Q2350 1348 2297.5 1410.0Q2245 1472 2161 1472Q2076 1472 2033.5 1428.5Q1991 1385 1991 1308V1266Q1990 1240 1979.5 1226.5Q1969 1213 1947 1213Q1927 1213 1911.5 1230.5Q1896 1248 1887.0 1287.5Q1878 1327 1878 1394ZM1850 1052 1878 1261V1746Q1878 1781 1888.0 1795.5Q1898 1810 1934 1817L2010 1832Q2040 1838 2054.0 1853.0Q2068 1868 2068 1895Q2068 1924 2048.5 1940.0Q2029 1956 1991 1956H1438Q1398 1956 1380.0 1940.0Q1362 1924 1362 1896Q1362 1876 1372.0 1861.0Q1382 1846 1405 1836L1427 1826Q1442 1819 1448.0 1802.5Q1454 1786 1454 1746V1280Q1454 1248 1445.5 1234.5Q1437 1221 1420 1216L1398 1209Q1377 1202 1367.5 1189.0Q1358 1176 1358 1156Q1358 1132 1371.5 1117.5Q1385 1103 1420 1090L1635 1006Q1706 978 1737.0 970.0Q1768 962 1785 962Q1813 962 1828.0 982.5Q1843 1003 1850 1052ZM3040 1819V1796L3008 1795V1149Q3008 1111 2987.5 1088.0Q2967 1065 2932 1065Q2906 1065 2886.5 1077.5Q2867 1090 2867 1111V1220Q2867 1304 2809.5 1350.0Q2752 1396 2645 1396Q2554 1396 2509.5 1357.5Q2465 1319 2465 1250Q2465 1184 2525.0 1118.0Q2585 1052 2705.5 1008.0Q2826 964 3009 964Q3221 964 3324.0 1041.5Q3427 1119 3427 1253V1731Q3427 1750 3436.5 1762.5Q3446 1775 3466 1775Q3483 1775 3493.5 1766.0Q3504 1757 3513 1748Q3520 1741 3527.5 1736.0Q3535 1731 3545 1731Q3562 1731 3569.5 1743.5Q3577 1756 3577 1775Q3577 1819 3545.0 1867.5Q3513 1916 3449.5 1950.0Q3386 1984 3292 1984Q3181 1984 3110.5 1937.0Q3040 1890 3040 1819ZM2429 1743Q2429 1606 2553.0 1526.5Q2677 1447 2901 1447Q2960 1447 3004.0 1455.0Q3048 1463 3076 1478L3042 1565Q3021 1553 3002.5 1548.0Q2984 1543 2962 1543Q2913 1543 2884.5 1575.5Q2856 1608 2856 1669Q2856 1733 2884.0 1766.5Q2912 1800 2958 1800Q2987 1800 3012.5 1786.5Q3038 1773 3051 1755L3075 1835Q3027 1906 2935.5 1945.0Q2844 1984 2740 1984Q2600 1984 2514.5 1915.0Q2429 1846 2429 1743ZM4368 1751V1738H4353V1276Q4353 1244 4344.5 1230.5Q4336 1217 4319 1212L4297 1205Q4276 1198 4266.5 1185.0Q4257 1172 4257 1152Q4257 1128 4270.0 1114.0Q4283 1100 4319 1086L4541 1000Q4592 980 4623.5 971.0Q4655 962 4685 962Q4730 962 4753.5 987.5Q4777 1013 4777 1052V1746Q4777 1786 4783.0 1802.5Q4789 1819 4804 1826L4826 1836Q4849 1846 4859.0 1861.0Q4869 1876 4869 1896Q4869 1924 4851.0 1940.0Q4833 1956 4793 1956H4548Q4477 1956 4422.5 1895.0Q4368 1834 4368 1751ZM3707 1664V1276Q3707 1244 3698.5 1230.5Q3690 1217 3673 1212L3651 1205Q3630 1198 3620.5 1185.0Q3611 1172 3611 1152Q3611 1128 3624.0 1114.0Q3637 1100 3673 1086L3895 1000Q3949 979 3980.0 970.5Q4011 962 4035 962Q4083 962 4107.0 987.5Q4131 1013 4131 1052V1604Q4131 1668 4160.5 1700.0Q4190 1732 4243 1732Q4276 1732 4312.0 1719.0Q4348 1706 4376 1681L4411 1650L4471 1714L4441 1742Q4300 1877 4196.0 1930.5Q4092 1984 4005 1984Q3872 1984 3789.5 1895.0Q3707 1806 3707 1664ZM5501 1052V1746Q5501 1786 5507.0 1802.0Q5513 1818 5528 1826L5548 1837Q5581 1856 5581 1892Q5581 1956 5504 1956H5061Q5021 1956 5003.0 1940.0Q4985 1924 4985 1896Q4985 1876 4995.0 1861.0Q5005 1846 5028 1836L5050 1826Q5065 1819 5071.0 1802.5Q5077 1786 5077 1746V1276Q5077 1244 5068.5 1230.5Q5060 1217 5043 1212L5021 1205Q5000 1198 4990.5 1185.0Q4981 1172 4981 1152Q4981 1128 4994.0 1114.0Q5007 1100 5043 1086L5265 1000Q5316 980 5347.5 971.0Q5379 962 5409 962Q5454 962 5477.5 987.5Q5501 1013 5501 1052ZM5465 1296 5405 1232 5435 1204Q5576 1069 5680.0 1015.5Q5784 962 5871 962Q6005 962 6087.0 1050.5Q6169 1139 6169 1282V1746Q6169 1786 6175.0 1802.5Q6181 1819 6196 1826L6218 1836Q6241 1846 6251.0 1861.0Q6261 1876 6261 1896Q6261 1924 6243.0 1940.0Q6225 1956 6185 1956H5742Q5665 1956 5665 1892Q5665 1856 5698 1837L5718 1826Q5733 1818 5739.0 1802.0Q5745 1786 5745 1746V1342Q5745 1278 5715.5 1246.0Q5686 1214 5633 1214Q5600 1214 5564.0 1227.0Q5528 1240 5500 1265ZM7352 1271Q7352 1347 7294.5 1400.0Q7237 1453 7141 1453Q7048 1453 7001.5 1403.5Q6955 1354 6955 1277V1245Q6955 1180 6928.0 1142.5Q6901 1105 6857 1105Q6822 1105 6791.5 1131.0Q6761 1157 6742.0 1210.5Q6723 1264 6723 1346Q6723 1462 6762.5 1540.0Q6802 1618 6871.0 1657.5Q6940 1697 7028 1697Q7092 1697 7143.5 1681.5Q7195 1666 7246 1621Q7275 1595 7290.0 1586.0Q7305 1577 7319 1577Q7339 1577 7348.5 1597.0Q7358 1617 7358 1646Q7358 1735 7298.5 1812.5Q7239 1890 7133.0 1937.0Q7027 1984 6887 1984Q6734 1984 6612.5 1923.5Q6491 1863 6420.0 1754.5Q6349 1646 6349 1501Q6349 1346 6417.5 1224.0Q6486 1102 6611.5 1032.0Q6737 962 6908 962Q7045 962 7144.5 1003.5Q7244 1045 7298.0 1115.0Q7352 1185 7352 1271ZM8485 1348Q8485 1418 8447.0 1456.5Q8409 1495 8338 1495H7745V1391H8012Q8067 1391 8067 1339Q8067 1213 8038.0 1159.0Q8009 1105 7961 1105Q7926 1105 7898.0 1131.0Q7870 1157 7853.5 1210.5Q7837 1264 7837 1346Q7837 1528 7919.0 1612.5Q8001 1697 8143 1697Q8209 1697 8263.0 1682.0Q8317 1667 8369 1621Q8398 1595 8413.0 1586.0Q8428 1577 8442 1577Q8462 1577 8471.5 1597.0Q8481 1617 8481 1646Q8481 1735 8420.5 1812.5Q8360 1890 8252.5 1937.0Q8145 1984 8002 1984Q7849 1984 7727.0 1923.5Q7605 1863 7534.0 1754.5Q7463 1646 7463 1501Q7463 1338 7528.0 1217.0Q7593 1096 7717.5 1029.0Q7842 962 8018 962Q8173 962 8277.0 1012.0Q8381 1062 8433.0 1149.0Q8485 1236 8485 1348ZM9067 1089Q9008 1089 8979.5 1114.0Q8951 1139 8951 1174Q8951 1195 8959.0 1213.5Q8967 1232 8996.0 1247.0Q9025 1262 9088 1273Q9274 1304 9371.0 1355.5Q9468 1407 9503.5 1477.0Q9539 1547 9539 1636Q9539 1799 9425.5 1891.5Q9312 1984 9090 1984Q9014 1984 8968.5 1972.0Q8923 1960 8895.5 1948.0Q8868 1936 8846 1936Q8822 1936 8806.0 1948.0Q8790 1960 8774.0 1972.0Q8758 1984 8733 1984Q8708 1984 8695.5 1969.5Q8683 1955 8672 1918L8620 1741Q8604 1688 8611.0 1657.5Q8618 1627 8649 1615Q8681 1603 8705.0 1614.0Q8729 1625 8751 1658Q8797 1725 8846.5 1769.0Q8896 1813 8950.5 1835.0Q9005 1857 9063 1857Q9130 1857 9163.5 1832.0Q9197 1807 9197 1765Q9197 1739 9183.5 1720.0Q9170 1701 9128.5 1685.5Q9087 1670 9003 1655Q8858 1629 8772.5 1580.5Q8687 1532 8650.0 1460.5Q8613 1389 8613 1294Q8613 1193 8667.5 1118.5Q8722 1044 8816.5 1003.0Q8911 962 9032 962Q9111 962 9156.5 974.5Q9202 987 9230.5 999.5Q9259 1012 9287 1012Q9314 1012 9332.5 999.5Q9351 987 9369.0 974.5Q9387 962 9411 962Q9433 962 9448.0 978.0Q9463 994 9470 1033L9501 1204Q9510 1255 9502.5 1280.5Q9495 1306 9466 1318Q9435 1331 9411.0 1317.5Q9387 1304 9362 1269Q9292 1168 9215.5 1128.5Q9139 1089 9067 1089Z" fill="currentColor" /></svg>