<svg viewBox="0 0 11274 1490" xmlns="http://www.w3.org/2000/svg"><path d="M1141 264Q1132 292 1097.5 309.0Q1063 326 1015.5 335.5Q968 345 913.5 348.5Q859 352 810.0 353.0Q761 354 723.5 353.5Q686 353 672 354Q653 356 636.0 361.5Q619 367 601.0 372.0Q583 377 562.5 381.0Q542 385 516 385H502Q514 446 520.5 510.5Q527 575 532 645Q557 635 579.5 631.5Q602 628 624.5 627.5Q647 627 671.0 627.0Q695 627 723 624Q754 621 785.5 611.5Q817 602 846 602Q869 602 887.5 615.5Q906 629 919.0 650.0Q932 671 939.0 696.0Q946 721 946 743Q946 760 932.5 779.5Q919 799 896.5 815.5Q874 832 845.5 843.0Q817 854 786 854Q774 854 764.0 849.0Q754 844 744.5 837.5Q735 831 725.5 826.0Q716 821 705 821Q699 821 687.5 824.0Q676 827 665.0 830.0Q654 833 646.0 836.0Q638 839 637 839Q620 839 604.0 835.0Q588 831 575 831Q563 831 558.0 842.0Q553 853 553 870Q553 902 559.0 922.5Q565 943 573.5 959.5Q582 976 591.5 992.0Q601 1008 608 1030Q614 1051 620.0 1080.5Q626 1110 630.5 1142.0Q635 1174 638.0 1206.0Q641 1238 641 1265Q641 1277 639.0 1300.5Q637 1324 632.5 1349.0Q628 1374 620.5 1396.5Q613 1419 602 1429Q597 1434 584.0 1438.0Q571 1442 555.5 1446.0Q540 1450 525.0 1453.5Q510 1457 502 1460Q480 1466 453.0 1478.0Q426 1490 406 1490Q390 1490 366.0 1479.5Q342 1469 317 1466Q269 1462 242.0 1452.5Q215 1443 200.5 1425.5Q186 1408 179.5 1379.5Q173 1351 166 1308Q164 1296 159.0 1289.0Q154 1282 154 1275Q154 1264 157.5 1251.0Q161 1238 165.5 1223.5Q170 1209 174.0 1193.5Q178 1178 178 1161Q178 1144 175.0 1127.0Q172 1110 172 1093Q174 1075 180.0 1056.5Q186 1038 186 1019Q186 976 179.0 939.5Q172 903 172 884Q175 866 182.5 852.0Q190 838 197.5 822.0Q205 806 211.0 785.5Q217 765 217 735Q217 700 214.0 659.5Q211 619 211 581Q211 559 213.0 533.5Q215 508 215 485Q215 452 202.5 439.0Q190 426 173.0 422.0Q156 418 138.5 419.0Q121 420 111 415Q99 411 85.0 400.5Q71 390 59.0 376.5Q47 363 39.0 348.0Q31 333 31 319Q31 310 32.0 298.5Q33 287 33 278Q33 262 28.0 245.5Q23 229 16.5 210.0Q10 191 5.0 168.5Q0 146 0 118Q0 83 21.5 67.0Q43 51 75.5 43.5Q108 36 144.5 31.0Q181 26 211 12Q238 0 270 0Q307 0 345.5 12.5Q384 25 420.0 40.5Q456 56 488.5 70.5Q521 85 547 88Q553 90 560.0 90.0Q567 90 575 90Q601 90 631.0 85.5Q661 81 691.0 75.5Q721 70 748.5 65.5Q776 61 797 61Q809 61 824.5 62.0Q840 63 854 63Q882 63 909.0 58.5Q936 54 961.0 48.5Q986 43 1008.0 38.5Q1030 34 1049 34Q1078 34 1096 49Q1102 55 1110.0 78.0Q1118 101 1125.5 130.5Q1133 160 1138.0 191.0Q1143 222 1143 243Q1143 249 1143.0 255.0Q1143 261 1141 264ZM2079 727Q2078 737 2073.5 743.5Q2069 750 2063.5 758.5Q2058 767 2054.0 779.0Q2050 791 2050 811Q2050 819 2051.0 825.0Q2052 831 2052 839Q2052 869 2038.5 885.5Q2025 902 2002.5 912.0Q1980 922 1950.0 927.5Q1920 933 1888 942Q1865 948 1839.0 956.0Q1813 964 1788 964Q1746 964 1728.5 940.0Q1711 916 1706.0 879.5Q1701 843 1703.0 801.0Q1705 759 1702.5 722.5Q1700 686 1687.5 662.0Q1675 638 1641 638Q1627 638 1612.0 643.0Q1597 648 1583.5 654.5Q1570 661 1558.5 667.5Q1547 674 1540 677Q1525 684 1505.5 691.5Q1486 699 1468.0 707.5Q1450 716 1437.5 726.5Q1425 737 1425 751Q1425 774 1435.5 809.5Q1446 845 1458.0 880.5Q1470 916 1480.5 943.5Q1491 971 1491 978Q1491 985 1488.0 991.5Q1485 998 1485 1007Q1485 1021 1488.5 1037.0Q1492 1053 1496.5 1070.5Q1501 1088 1505.0 1106.5Q1509 1125 1509 1144Q1509 1150 1508.0 1169.5Q1507 1189 1505.0 1211.5Q1503 1234 1499.5 1254.5Q1496 1275 1491 1284Q1486 1292 1479.0 1296.0Q1472 1300 1464.0 1302.5Q1456 1305 1447.0 1307.5Q1438 1310 1428 1316Q1406 1330 1396.0 1341.5Q1386 1353 1376.5 1361.5Q1367 1370 1352.5 1375.0Q1338 1380 1307 1380Q1264 1380 1235.0 1369.5Q1206 1359 1188.0 1336.5Q1170 1314 1162.5 1279.0Q1155 1244 1155 1196Q1155 1163 1160.5 1130.5Q1166 1098 1173.5 1065.0Q1181 1032 1188.5 998.5Q1196 965 1200 929Q1205 881 1208.5 825.5Q1212 770 1212 722Q1212 682 1206 632Q1204 620 1199.0 608.0Q1194 596 1194 585Q1194 570 1197.5 553.0Q1201 536 1205.5 519.0Q1210 502 1214.0 484.5Q1218 467 1219 450Q1219 433 1214.5 422.5Q1210 412 1210 401Q1210 373 1221.0 357.5Q1232 342 1244.0 335.5Q1256 329 1265.0 328.0Q1274 327 1270 327Q1308 327 1329.5 342.5Q1351 358 1361.5 381.0Q1372 404 1375.0 430.5Q1378 457 1380.0 480.0Q1382 503 1385.5 518.5Q1389 534 1401 534Q1409 534 1421.5 527.0Q1434 520 1445.0 512.0Q1456 504 1462.0 498.5Q1468 493 1464 497L1462 499Q1463 499 1464 498Q1467 495 1471 493Q1467 495 1467 495H1466Q1479 485 1492 475Q1503 467 1516.0 457.5Q1529 448 1540 442Q1557 431 1578.0 426.5Q1599 422 1616 411Q1631 400 1646.0 387.0Q1661 374 1673 366Q1685 361 1702.5 356.0Q1720 351 1740.0 347.5Q1760 344 1779.0 341.5Q1798 339 1813 339Q1827 339 1837.0 343.5Q1847 348 1856.0 355.0Q1865 362 1875.5 369.0Q1886 376 1901 380Q1920 386 1945.0 388.5Q1970 391 1991.5 400.0Q2013 409 2028.0 429.5Q2043 450 2042 493Q2042 512 2046.0 527.0Q2050 542 2054.5 554.0Q2059 566 2063.0 577.0Q2067 588 2067 600Q2067 611 2065.5 623.5Q2064 636 2064 649Q2064 669 2071.5 691.5Q2079 714 2079 727ZM3037 1146Q3039 1166 3041.5 1183.0Q3044 1200 3044 1214Q3044 1230 3042.0 1238.0Q3040 1246 3035.5 1252.0Q3031 1258 3023.5 1265.0Q3016 1272 3005 1286Q2993 1305 2981.5 1326.0Q2970 1347 2954.5 1364.0Q2939 1381 2918.5 1392.5Q2898 1404 2869 1404Q2851 1404 2830.5 1401.5Q2810 1399 2789.5 1396.0Q2769 1393 2749.5 1390.5Q2730 1388 2714 1388Q2645 1388 2574.5 1385.5Q2504 1383 2441 1368Q2420 1362 2397.0 1357.5Q2374 1353 2351.0 1347.0Q2328 1341 2307.0 1332.5Q2286 1324 2271 1312Q2228 1269 2202.5 1218.0Q2177 1167 2162.5 1103.0Q2148 1039 2142.0 961.0Q2136 883 2132 786Q2130 752 2125.0 721.0Q2120 690 2120 673Q2120 665 2127.5 648.0Q2135 631 2138 616Q2143 594 2142.5 572.5Q2142 551 2144 546Q2147 539 2156.5 529.5Q2166 520 2177.5 509.0Q2189 498 2200.5 486.5Q2212 475 2220 464Q2227 454 2254.5 439.5Q2282 425 2323.0 408.0Q2364 391 2415.0 374.5Q2466 358 2519.5 344.5Q2573 331 2626.5 322.5Q2680 314 2726 313Q2745 313 2768.5 320.0Q2792 327 2815.5 338.5Q2839 350 2861.0 365.0Q2883 380 2898 395Q2906 403 2913.0 421.5Q2920 440 2929 452Q2951 480 2959.5 494.0Q2968 508 2970.5 519.0Q2973 530 2972.0 543.0Q2971 556 2974 583Q2976 604 2977.0 618.0Q2978 632 2978.0 644.0Q2978 656 2978.0 667.0Q2978 678 2978 692Q2978 721 2963.0 739.0Q2948 757 2922.0 772.0Q2896 787 2859.5 801.0Q2823 815 2781 835Q2746 852 2706.0 859.0Q2666 866 2632 866Q2627 866 2624.0 866.0Q2621 866 2616 864Q2609 863 2592.0 868.0Q2575 873 2553.0 879.5Q2531 886 2505.5 891.5Q2480 897 2456 897Q2440 897 2425.5 901.5Q2411 906 2400.0 913.0Q2389 920 2382.5 927.0Q2376 934 2376 940Q2376 975 2388.5 996.0Q2401 1017 2416 1028Q2434 1041 2456 1046Q2481 1057 2504.0 1060.5Q2527 1064 2550 1064Q2588 1064 2629.5 1058.0Q2671 1052 2724 1052Q2749 1052 2766.5 1058.0Q2784 1064 2804 1064Q2825 1064 2846.0 1060.0Q2867 1056 2886.0 1051.0Q2905 1046 2922.5 1042.0Q2940 1038 2955 1038Q2994 1038 3011.5 1064.5Q3029 1091 3037 1146ZM2650 686Q2652 681 2653.0 675.0Q2654 669 2654 663Q2654 633 2648.5 609.5Q2643 586 2635.5 569.5Q2628 553 2619.0 544.5Q2610 536 2603 536Q2584 536 2546.0 543.5Q2508 551 2469.0 562.0Q2430 573 2398.5 586.0Q2367 599 2360 610Q2355 618 2353.0 633.5Q2351 649 2351 669Q2351 711 2356.5 734.0Q2362 757 2376 757Q2385 757 2396.0 754.0Q2407 751 2417.5 747.5Q2428 744 2436.5 741.0Q2445 738 2450 737Q2472 733 2504.0 731.0Q2536 729 2566.5 724.5Q2597 720 2620.5 711.5Q2644 703 2650 686ZM4080 673Q4078 699 4062.0 719.5Q4046 740 4026.5 755.5Q4007 771 3989.0 780.5Q3971 790 3967 792Q3949 803 3927.0 814.5Q3905 826 3881.0 836.0Q3857 846 3832.0 852.0Q3807 858 3783 858Q3739 858 3714.0 842.5Q3689 827 3675.5 802.0Q3662 777 3656.5 747.0Q3651 717 3645.5 688.0Q3640 659 3632.5 635.0Q3625 611 3607 598Q3596 590 3572.5 586.5Q3549 583 3523 583Q3505 583 3488.5 584.0Q3472 585 3459.0 586.5Q3446 588 3437.5 589.0Q3429 590 3428 591Q3415 598 3408.0 619.0Q3401 640 3396.5 665.0Q3392 690 3390.0 715.0Q3388 740 3385 755Q3379 797 3368.0 839.0Q3357 881 3357 919Q3357 930 3363.5 952.5Q3370 975 3380.5 999.0Q3391 1023 3403.5 1043.5Q3416 1064 3428 1071Q3437 1076 3453.0 1077.5Q3469 1079 3487.0 1079.0Q3505 1079 3523.0 1079.5Q3541 1080 3555 1083Q3582 1089 3609.0 1098.5Q3636 1108 3662.5 1117.5Q3689 1127 3715.0 1133.5Q3741 1140 3766 1140Q3813 1140 3844.5 1124.0Q3876 1108 3910 1077Q3919 1068 3926.5 1058.5Q3934 1049 3942.5 1040.5Q3951 1032 3962.0 1026.5Q3973 1021 3988 1021Q4014 1021 4023.5 1044.0Q4033 1067 4033 1101Q4033 1177 4006.0 1239.0Q3979 1301 3904 1343Q3891 1351 3875.5 1350.0Q3860 1349 3846 1355Q3828 1364 3815.0 1377.0Q3802 1390 3787.5 1402.0Q3773 1414 3754.0 1422.5Q3735 1431 3707 1431Q3681 1431 3651.5 1420.5Q3622 1410 3588 1400Q3573 1396 3558.0 1395.0Q3543 1394 3529.0 1394.0Q3515 1394 3502.5 1393.0Q3490 1392 3480 1388Q3460 1381 3432.5 1364.0Q3405 1347 3375.0 1325.0Q3345 1303 3313.0 1279.5Q3281 1256 3252 1236Q3228 1220 3213.0 1210.0Q3198 1200 3187.5 1189.0Q3177 1178 3167.5 1161.5Q3158 1145 3144 1116Q3130 1087 3120.5 1064.5Q3111 1042 3111 1024Q3111 995 3115.0 957.5Q3119 920 3119 882Q3119 851 3116.0 820.5Q3113 790 3113 759Q3113 703 3125 653Q3128 644 3137.0 635.5Q3146 627 3152 616Q3159 601 3165.0 583.5Q3171 566 3177.5 549.0Q3184 532 3191.0 516.5Q3198 501 3207 489Q3218 475 3237.5 453.0Q3257 431 3280.0 410.0Q3303 389 3325.5 373.5Q3348 358 3365 358Q3396 358 3432.5 365.0Q3469 372 3500 372Q3521 372 3531.5 368.0Q3542 364 3548.0 358.0Q3554 352 3557.5 345.5Q3561 339 3569.0 333.0Q3577 327 3591.5 323.0Q3606 319 3633 319Q3649 319 3668.0 320.0Q3687 321 3707 323Q3752 327 3786.0 327.0Q3820 327 3846.5 330.5Q3873 334 3895.0 344.0Q3917 354 3939.0 377.5Q3961 401 3986.0 441.5Q4011 482 4043 546Q4049 559 4055.5 577.0Q4062 595 4067.5 613.0Q4073 631 4076.5 647.0Q4080 663 4080 673ZM5083 677Q5073 696 5053.5 707.5Q5034 719 5010.5 726.0Q4987 733 4962.5 737.0Q4938 741 4918.0 744.5Q4898 748 4885.0 752.0Q4872 756 4872 763Q4872 792 4883.5 822.0Q4895 852 4912.5 881.5Q4930 911 4950.0 937.5Q4970 964 4987.5 985.5Q5005 1007 5016.5 1022.5Q5028 1038 5028 1044Q5028 1051 5026.0 1057.0Q5024 1063 5021.0 1070.5Q5018 1078 5016.0 1088.0Q5014 1098 5014 1112Q5014 1131 5019.5 1147.5Q5025 1164 5031.0 1178.5Q5037 1193 5042.5 1206.0Q5048 1219 5048 1232Q5048 1246 5043.0 1253.0Q5038 1260 5028.5 1264.5Q5019 1269 5006.0 1273.0Q4993 1277 4977 1284Q4962 1291 4941.0 1300.0Q4920 1309 4896.0 1317.5Q4872 1326 4846.5 1331.5Q4821 1337 4796 1337Q4753 1337 4724.0 1306.5Q4695 1276 4673.0 1229.0Q4651 1182 4633.5 1126.0Q4616 1070 4596 1019Q4589 1002 4581.0 975.5Q4573 949 4565.5 923.0Q4558 897 4551.5 877.0Q4545 857 4540 854Q4542 855 4529.5 856.5Q4517 858 4501.5 859.5Q4486 861 4472.0 863.0Q4458 865 4456 866Q4453 869 4451.5 875.5Q4450 882 4450 890Q4450 902 4452.0 915.5Q4454 929 4456.5 941.5Q4459 954 4461.0 964.5Q4463 975 4463 980Q4465 1013 4466.0 1046.5Q4467 1080 4468.5 1112.0Q4470 1144 4473.0 1173.0Q4476 1202 4483 1226Q4488 1245 4498.0 1265.0Q4508 1285 4508 1302Q4506 1325 4489.0 1342.0Q4472 1359 4449.0 1370.5Q4426 1382 4401.5 1388.0Q4377 1394 4360 1394Q4298 1394 4258.0 1390.0Q4218 1386 4194.0 1366.5Q4170 1347 4160.5 1305.0Q4151 1263 4151 1187Q4151 1154 4152.5 1120.5Q4154 1087 4156.0 1056.5Q4158 1026 4161.0 1000.0Q4164 974 4166 956Q4168 940 4174.0 932.0Q4180 924 4180 909Q4180 878 4175.0 845.5Q4170 813 4170 784Q4170 763 4177.5 747.0Q4185 731 4193.5 713.5Q4202 696 4209.5 674.0Q4217 652 4217 620V565Q4217 534 4220.5 500.0Q4224 466 4228.5 433.5Q4233 401 4237.0 370.5Q4241 340 4241 315Q4241 306 4239.0 288.0Q4237 270 4235.0 247.5Q4233 225 4231.0 200.0Q4229 175 4229 153Q4229 116 4238.0 99.0Q4247 82 4260.0 76.0Q4273 70 4288.5 70.5Q4304 71 4317 69Q4322 69 4337.0 70.0Q4352 71 4368.5 73.0Q4385 75 4400.0 79.5Q4415 84 4420 90Q4423 94 4426.0 115.0Q4429 136 4432.0 160.5Q4435 185 4436.5 207.0Q4438 229 4438 235Q4437 244 4432.0 252.5Q4427 261 4421.0 270.5Q4415 280 4410.0 291.5Q4405 303 4405 319Q4405 342 4408.0 372.0Q4411 402 4413 430Q4413 442 4410.0 454.0Q4407 466 4407 477Q4407 495 4413.5 508.0Q4420 521 4420 538Q4420 561 4418.0 578.0Q4416 595 4416 612Q4416 625 4416.5 639.5Q4417 654 4419.5 666.0Q4422 678 4426.0 686.0Q4430 694 4438 694Q4450 694 4465.0 688.5Q4480 683 4495.5 675.0Q4511 667 4526.0 658.5Q4541 650 4553 645Q4594 626 4630.0 612.0Q4666 598 4701.0 584.5Q4736 571 4773.5 557.5Q4811 544 4856 526Q4873 518 4889.0 509.5Q4905 501 4913 499Q4924 499 4939.0 505.5Q4954 512 4968 512Q4982 512 4997.5 508.5Q5013 505 5024 505Q5040 505 5053.0 516.5Q5066 528 5075.5 545.0Q5085 562 5090.0 583.0Q5095 604 5095 622Q5095 656 5083 677ZM5690 1171Q5692 1179 5692.0 1185.0Q5692 1191 5692 1196Q5692 1219 5683.0 1236.0Q5674 1253 5665 1271Q5660 1280 5655.0 1295.0Q5650 1310 5642.0 1323.5Q5634 1337 5622.5 1347.0Q5611 1357 5595 1357Q5577 1357 5553.0 1355.0Q5529 1353 5509 1353Q5485 1353 5451.0 1356.0Q5417 1359 5380 1359H5360Q5322 1359 5285.0 1365.5Q5248 1372 5221 1372Q5208 1372 5192.5 1365.0Q5177 1358 5164.0 1345.5Q5151 1333 5142.0 1314.0Q5133 1295 5133 1271Q5133 1250 5149.0 1239.5Q5165 1229 5184.5 1220.0Q5204 1211 5220.5 1199.5Q5237 1188 5237 1167Q5237 1147 5233.0 1122.0Q5229 1097 5224.5 1070.5Q5220 1044 5216.0 1017.5Q5212 991 5212 968Q5212 931 5213.0 894.0Q5214 857 5214 819Q5214 716 5208.5 629.5Q5203 543 5197.0 464.5Q5191 386 5185.5 309.5Q5180 233 5180 149Q5180 115 5186.0 88.0Q5192 61 5208.5 42.0Q5225 23 5255.5 12.5Q5286 2 5335 2Q5385 2 5418.5 12.0Q5452 22 5472.5 42.5Q5493 63 5502.0 94.5Q5511 126 5511 169Q5511 208 5506.0 243.5Q5501 279 5501 321V376Q5501 401 5498.0 426.0Q5495 451 5491.0 477.5Q5487 504 5484.0 531.5Q5481 559 5481 589Q5481 670 5487.0 755.0Q5493 840 5493 929Q5493 1017 5494.5 1062.0Q5496 1107 5516 1107Q5531 1107 5551.0 1101.0Q5571 1095 5589 1095Q5624 1097 5653.0 1115.0Q5682 1133 5690 1171ZM6629 1146Q6631 1166 6633.5 1183.0Q6636 1200 6636 1214Q6636 1230 6634.0 1238.0Q6632 1246 6627.5 1252.0Q6623 1258 6615.5 1265.0Q6608 1272 6597 1286Q6585 1305 6573.5 1326.0Q6562 1347 6546.5 1364.0Q6531 1381 6510.5 1392.5Q6490 1404 6461 1404Q6443 1404 6422.5 1401.5Q6402 1399 6381.5 1396.0Q6361 1393 6341.5 1390.5Q6322 1388 6306 1388Q6237 1388 6166.5 1385.5Q6096 1383 6033 1368Q6012 1362 5989.0 1357.5Q5966 1353 5943.0 1347.0Q5920 1341 5899.0 1332.5Q5878 1324 5863 1312Q5820 1269 5794.5 1218.0Q5769 1167 5754.5 1103.0Q5740 1039 5734.0 961.0Q5728 883 5724 786Q5722 752 5717.0 721.0Q5712 690 5712 673Q5712 665 5719.5 648.0Q5727 631 5730 616Q5735 594 5734.5 572.5Q5734 551 5736 546Q5739 539 5748.5 529.5Q5758 520 5769.5 509.0Q5781 498 5792.5 486.5Q5804 475 5812 464Q5819 454 5846.5 439.5Q5874 425 5915.0 408.0Q5956 391 6007.0 374.5Q6058 358 6111.5 344.5Q6165 331 6218.5 322.5Q6272 314 6318 313Q6337 313 6360.5 320.0Q6384 327 6407.5 338.5Q6431 350 6453.0 365.0Q6475 380 6490 395Q6498 403 6505.0 421.5Q6512 440 6521 452Q6543 480 6551.5 494.0Q6560 508 6562.5 519.0Q6565 530 6564.0 543.0Q6563 556 6566 583Q6568 604 6569.0 618.0Q6570 632 6570.0 644.0Q6570 656 6570.0 667.0Q6570 678 6570 692Q6570 721 6555.0 739.0Q6540 757 6514.0 772.0Q6488 787 6451.5 801.0Q6415 815 6373 835Q6338 852 6298.0 859.0Q6258 866 6224 866Q6219 866 6216.0 866.0Q6213 866 6208 864Q6201 863 6184.0 868.0Q6167 873 6145.0 879.5Q6123 886 6097.5 891.5Q6072 897 6048 897Q6032 897 6017.5 901.5Q6003 906 5992.0 913.0Q5981 920 5974.5 927.0Q5968 934 5968 940Q5968 975 5980.5 996.0Q5993 1017 6008 1028Q6026 1041 6048 1046Q6073 1057 6096.0 1060.5Q6119 1064 6142 1064Q6180 1064 6221.5 1058.0Q6263 1052 6316 1052Q6341 1052 6358.5 1058.0Q6376 1064 6396 1064Q6417 1064 6438.0 1060.0Q6459 1056 6478.0 1051.0Q6497 1046 6514.5 1042.0Q6532 1038 6547 1038Q6586 1038 6603.5 1064.5Q6621 1091 6629 1146ZM6242 686Q6244 681 6245.0 675.0Q6246 669 6246 663Q6246 633 6240.5 609.5Q6235 586 6227.5 569.5Q6220 553 6211.0 544.5Q6202 536 6195 536Q6176 536 6138.0 543.5Q6100 551 6061.0 562.0Q6022 573 5990.5 586.0Q5959 599 5952 610Q5947 618 5945.0 633.5Q5943 649 5943 669Q5943 711 5948.5 734.0Q5954 757 5968 757Q5977 757 5988.0 754.0Q5999 751 6009.5 747.5Q6020 744 6028.5 741.0Q6037 738 6042 737Q6064 733 6096.0 731.0Q6128 729 6158.5 724.5Q6189 720 6212.5 711.5Q6236 703 6242 686ZM8270 264Q8261 292 8226.5 309.0Q8192 326 8144.5 335.5Q8097 345 8042.5 348.5Q7988 352 7939.0 353.0Q7890 354 7852.5 353.5Q7815 353 7801 354Q7782 356 7765.0 361.5Q7748 367 7730.0 372.0Q7712 377 7691.5 381.0Q7671 385 7645 385H7631Q7643 446 7649.5 510.5Q7656 575 7661 645Q7686 635 7708.5 631.5Q7731 628 7753.5 627.5Q7776 627 7800.0 627.0Q7824 627 7852 624Q7883 621 7914.5 611.5Q7946 602 7975 602Q7998 602 8016.5 615.5Q8035 629 8048.0 650.0Q8061 671 8068.0 696.0Q8075 721 8075 743Q8075 760 8061.5 779.5Q8048 799 8025.5 815.5Q8003 832 7974.5 843.0Q7946 854 7915 854Q7903 854 7893.0 849.0Q7883 844 7873.5 837.5Q7864 831 7854.5 826.0Q7845 821 7834 821Q7828 821 7816.5 824.0Q7805 827 7794.0 830.0Q7783 833 7775.0 836.0Q7767 839 7766 839Q7749 839 7733.0 835.0Q7717 831 7704 831Q7692 831 7687.0 842.0Q7682 853 7682 870Q7682 902 7688.0 922.5Q7694 943 7702.5 959.5Q7711 976 7720.5 992.0Q7730 1008 7737 1030Q7743 1051 7749.0 1080.5Q7755 1110 7759.5 1142.0Q7764 1174 7767.0 1206.0Q7770 1238 7770 1265Q7770 1277 7768.0 1300.5Q7766 1324 7761.5 1349.0Q7757 1374 7749.5 1396.5Q7742 1419 7731 1429Q7726 1434 7713.0 1438.0Q7700 1442 7684.5 1446.0Q7669 1450 7654.0 1453.5Q7639 1457 7631 1460Q7609 1466 7582.0 1478.0Q7555 1490 7535 1490Q7519 1490 7495.0 1479.5Q7471 1469 7446 1466Q7398 1462 7371.0 1452.5Q7344 1443 7329.5 1425.5Q7315 1408 7308.5 1379.5Q7302 1351 7295 1308Q7293 1296 7288.0 1289.0Q7283 1282 7283 1275Q7283 1264 7286.5 1251.0Q7290 1238 7294.5 1223.5Q7299 1209 7303.0 1193.5Q7307 1178 7307 1161Q7307 1144 7304.0 1127.0Q7301 1110 7301 1093Q7303 1075 7309.0 1056.5Q7315 1038 7315 1019Q7315 976 7308.0 939.5Q7301 903 7301 884Q7304 866 7311.5 852.0Q7319 838 7326.5 822.0Q7334 806 7340.0 785.5Q7346 765 7346 735Q7346 700 7343.0 659.5Q7340 619 7340 581Q7340 559 7342.0 533.5Q7344 508 7344 485Q7344 452 7331.5 439.0Q7319 426 7302.0 422.0Q7285 418 7267.5 419.0Q7250 420 7240 415Q7228 411 7214.0 400.5Q7200 390 7188.0 376.5Q7176 363 7168.0 348.0Q7160 333 7160 319Q7160 310 7161.0 298.5Q7162 287 7162 278Q7162 262 7157.0 245.5Q7152 229 7145.5 210.0Q7139 191 7134.0 168.5Q7129 146 7129 118Q7129 83 7150.5 67.0Q7172 51 7204.5 43.5Q7237 36 7273.5 31.0Q7310 26 7340 12Q7367 0 7399 0Q7436 0 7474.5 12.5Q7513 25 7549.0 40.5Q7585 56 7617.5 70.5Q7650 85 7676 88Q7682 90 7689.0 90.0Q7696 90 7704 90Q7730 90 7760.0 85.5Q7790 81 7820.0 75.5Q7850 70 7877.5 65.5Q7905 61 7926 61Q7938 61 7953.5 62.0Q7969 63 7983 63Q8011 63 8038.0 58.5Q8065 54 8090.0 48.5Q8115 43 8137.0 38.5Q8159 34 8178 34Q8207 34 8225 49Q8231 55 8239.0 78.0Q8247 101 8254.5 130.5Q8262 160 8267.0 191.0Q8272 222 8272 243Q8272 249 8272.0 255.0Q8272 261 8270 264ZM9232 761Q9234 784 9235.0 807.5Q9236 831 9236 856Q9236 927 9229.0 999.5Q9222 1072 9213 1140Q9210 1162 9205.5 1184.5Q9201 1207 9201 1224Q9201 1261 9208.0 1295.5Q9215 1330 9215 1359Q9215 1365 9207.0 1386.0Q9199 1407 9181.5 1429.0Q9164 1451 9136.5 1468.5Q9109 1486 9070 1486Q9025 1486 9009.5 1460.0Q8994 1434 8994 1394Q8994 1366 8999.0 1333.5Q9004 1301 9010 1267Q8987 1272 8964.5 1286.0Q8942 1300 8922 1312Q8878 1338 8834.5 1367.0Q8791 1396 8740.0 1420.0Q8689 1444 8628.5 1460.0Q8568 1476 8490 1476Q8488 1476 8474.5 1476.5Q8461 1477 8443.0 1476.0Q8425 1475 8405.5 1471.0Q8386 1467 8371 1458Q8349 1436 8328.5 1403.5Q8308 1371 8292.5 1339.5Q8277 1308 8268.0 1284.0Q8259 1260 8259 1255Q8257 1250 8257.0 1245.5Q8257 1241 8257 1236Q8257 1215 8260.0 1192.5Q8263 1170 8267.0 1149.5Q8271 1129 8274.0 1114.5Q8277 1100 8277 1095Q8277 1070 8273.0 1046.5Q8269 1023 8269 995Q8269 982 8270.5 967.5Q8272 953 8277 937Q8277 936 8282.0 924.0Q8287 912 8293.5 898.0Q8300 884 8306.5 871.0Q8313 858 8316 856Q8323 850 8335.0 846.0Q8347 842 8362.0 838.0Q8377 834 8392.5 830.0Q8408 826 8423 819Q8446 808 8464.5 791.0Q8483 774 8498 768Q8508 763 8525.5 760.0Q8543 757 8562 749Q8575 745 8594.0 737.5Q8613 730 8634.5 723.5Q8656 717 8678.0 711.5Q8700 706 8720 704Q8729 704 8742.5 707.0Q8756 710 8775 710Q8789 710 8809.0 704.0Q8829 698 8857 698Q8885 698 8911.0 702.0Q8937 706 8951 706Q8962 706 8964.5 699.5Q8967 693 8967 684Q8967 669 8961.0 649.0Q8955 629 8947.0 610.0Q8939 591 8932.0 577.0Q8925 563 8922 559Q8907 540 8888.5 530.0Q8870 520 8855 520Q8839 520 8823.5 524.0Q8808 528 8789 528Q8775 528 8760.5 526.0Q8746 524 8732 524Q8698 524 8653.5 541.0Q8609 558 8564.5 580.0Q8520 602 8480.5 621.5Q8441 641 8417 647Q8404 650 8390.0 652.5Q8376 655 8363 655Q8355 655 8340.5 646.5Q8326 638 8312.0 625.0Q8298 612 8287.5 595.5Q8277 579 8277 563Q8277 539 8290.0 523.5Q8303 508 8322.0 497.0Q8341 486 8363.5 477.5Q8386 469 8404 458Q8427 444 8458.0 425.0Q8489 406 8511 389Q8534 370 8544.0 354.5Q8554 339 8568 331Q8582 323 8612.0 316.0Q8642 309 8668 301Q8676 298 8690.5 292.0Q8705 286 8720.5 281.0Q8736 276 8750.5 272.0Q8765 268 8773 268H8777Q8796 275 8820.0 278.5Q8844 282 8870.5 285.0Q8897 288 8923.5 291.5Q8950 295 8974 301Q8982 303 8989.0 309.5Q8996 316 9004 319Q9041 330 9066.0 341.5Q9091 353 9110.0 377.5Q9129 402 9145.5 447.5Q9162 493 9182 571Q9186 589 9197.0 604.0Q9208 619 9213 634Q9221 659 9225.5 694.5Q9230 730 9232 761ZM8992 1028Q8997 1023 8998.5 1005.5Q9000 988 9000 966Q9000 940 8999.0 923.5Q8998 907 8995.0 898.0Q8992 889 8987.0 885.5Q8982 882 8974 882Q8968 882 8963.5 883.0Q8959 884 8955 885Q8951 887 8947 888Q8931 886 8917.5 886.0Q8904 886 8890 886Q8862 886 8838.5 889.0Q8815 892 8792.5 897.0Q8770 902 8748.0 908.0Q8726 914 8701 919Q8665 928 8635.0 931.0Q8605 934 8583.0 943.0Q8561 952 8549.0 971.5Q8537 991 8537 1032Q8537 1074 8559.0 1088.5Q8581 1103 8623 1103Q8636 1103 8653.0 1098.5Q8670 1094 8689.5 1088.0Q8709 1082 8729.5 1075.5Q8750 1069 8771 1064Q8786 1061 8803.5 1057.5Q8821 1054 8838.5 1051.0Q8856 1048 8871.5 1045.0Q8887 1042 8898 1040Q8905 1039 8920.0 1037.5Q8935 1036 8950.0 1034.5Q8965 1033 8977.5 1031.5Q8990 1030 8992 1028ZM10297 673Q10295 699 10279.0 719.5Q10263 740 10243.5 755.5Q10224 771 10206.0 780.5Q10188 790 10184 792Q10166 803 10144.0 814.5Q10122 826 10098.0 836.0Q10074 846 10049.0 852.0Q10024 858 10000 858Q9956 858 9931.0 842.5Q9906 827 9892.5 802.0Q9879 777 9873.5 747.0Q9868 717 9862.5 688.0Q9857 659 9849.5 635.0Q9842 611 9824 598Q9813 590 9789.5 586.5Q9766 583 9740 583Q9722 583 9705.5 584.0Q9689 585 9676.0 586.5Q9663 588 9654.5 589.0Q9646 590 9645 591Q9632 598 9625.0 619.0Q9618 640 9613.5 665.0Q9609 690 9607.0 715.0Q9605 740 9602 755Q9596 797 9585.0 839.0Q9574 881 9574 919Q9574 930 9580.5 952.5Q9587 975 9597.5 999.0Q9608 1023 9620.5 1043.5Q9633 1064 9645 1071Q9654 1076 9670.0 1077.5Q9686 1079 9704.0 1079.0Q9722 1079 9740.0 1079.5Q9758 1080 9772 1083Q9799 1089 9826.0 1098.5Q9853 1108 9879.5 1117.5Q9906 1127 9932.0 1133.5Q9958 1140 9983 1140Q10030 1140 10061.5 1124.0Q10093 1108 10127 1077Q10136 1068 10143.5 1058.5Q10151 1049 10159.5 1040.5Q10168 1032 10179.0 1026.5Q10190 1021 10205 1021Q10231 1021 10240.5 1044.0Q10250 1067 10250 1101Q10250 1177 10223.0 1239.0Q10196 1301 10121 1343Q10108 1351 10092.5 1350.0Q10077 1349 10063 1355Q10045 1364 10032.0 1377.0Q10019 1390 10004.5 1402.0Q9990 1414 9971.0 1422.5Q9952 1431 9924 1431Q9898 1431 9868.5 1420.5Q9839 1410 9805 1400Q9790 1396 9775.0 1395.0Q9760 1394 9746.0 1394.0Q9732 1394 9719.5 1393.0Q9707 1392 9697 1388Q9677 1381 9649.5 1364.0Q9622 1347 9592.0 1325.0Q9562 1303 9530.0 1279.5Q9498 1256 9469 1236Q9445 1220 9430.0 1210.0Q9415 1200 9404.5 1189.0Q9394 1178 9384.5 1161.5Q9375 1145 9361 1116Q9347 1087 9337.5 1064.5Q9328 1042 9328 1024Q9328 995 9332.0 957.5Q9336 920 9336 882Q9336 851 9333.0 820.5Q9330 790 9330 759Q9330 703 9342 653Q9345 644 9354.0 635.5Q9363 627 9369 616Q9376 601 9382.0 583.5Q9388 566 9394.5 549.0Q9401 532 9408.0 516.5Q9415 501 9424 489Q9435 475 9454.5 453.0Q9474 431 9497.0 410.0Q9520 389 9542.5 373.5Q9565 358 9582 358Q9613 358 9649.5 365.0Q9686 372 9717 372Q9738 372 9748.5 368.0Q9759 364 9765.0 358.0Q9771 352 9774.5 345.5Q9778 339 9786.0 333.0Q9794 327 9808.5 323.0Q9823 319 9850 319Q9866 319 9885.0 320.0Q9904 321 9924 323Q9969 327 10003.0 327.0Q10037 327 10063.5 330.5Q10090 334 10112.0 344.0Q10134 354 10156.0 377.5Q10178 401 10203.0 441.5Q10228 482 10260 546Q10266 559 10272.5 577.0Q10279 595 10284.5 613.0Q10290 631 10293.5 647.0Q10297 663 10297 673ZM11267 1146Q11269 1166 11271.5 1183.0Q11274 1200 11274 1214Q11274 1230 11272.0 1238.0Q11270 1246 11265.5 1252.0Q11261 1258 11253.5 1265.0Q11246 1272 11235 1286Q11223 1305 11211.5 1326.0Q11200 1347 11184.5 1364.0Q11169 1381 11148.5 1392.5Q11128 1404 11099 1404Q11081 1404 11060.5 1401.5Q11040 1399 11019.5 1396.0Q10999 1393 10979.5 1390.5Q10960 1388 10944 1388Q10875 1388 10804.5 1385.5Q10734 1383 10671 1368Q10650 1362 10627.0 1357.5Q10604 1353 10581.0 1347.0Q10558 1341 10537.0 1332.5Q10516 1324 10501 1312Q10458 1269 10432.5 1218.0Q10407 1167 10392.5 1103.0Q10378 1039 10372.0 961.0Q10366 883 10362 786Q10360 752 10355.0 721.0Q10350 690 10350 673Q10350 665 10357.5 648.0Q10365 631 10368 616Q10373 594 10372.5 572.5Q10372 551 10374 546Q10377 539 10386.5 529.5Q10396 520 10407.5 509.0Q10419 498 10430.5 486.5Q10442 475 10450 464Q10457 454 10484.5 439.5Q10512 425 10553.0 408.0Q10594 391 10645.0 374.5Q10696 358 10749.5 344.5Q10803 331 10856.5 322.5Q10910 314 10956 313Q10975 313 10998.5 320.0Q11022 327 11045.5 338.5Q11069 350 11091.0 365.0Q11113 380 11128 395Q11136 403 11143.0 421.5Q11150 440 11159 452Q11181 480 11189.5 494.0Q11198 508 11200.5 519.0Q11203 530 11202.0 543.0Q11201 556 11204 583Q11206 604 11207.0 618.0Q11208 632 11208.0 644.0Q11208 656 11208.0 667.0Q11208 678 11208 692Q11208 721 11193.0 739.0Q11178 757 11152.0 772.0Q11126 787 11089.5 801.0Q11053 815 11011 835Q10976 852 10936.0 859.0Q10896 866 10862 866Q10857 866 10854.0 866.0Q10851 866 10846 864Q10839 863 10822.0 868.0Q10805 873 10783.0 879.5Q10761 886 10735.5 891.5Q10710 897 10686 897Q10670 897 10655.5 901.5Q10641 906 10630.0 913.0Q10619 920 10612.5 927.0Q10606 934 10606 940Q10606 975 10618.5 996.0Q10631 1017 10646 1028Q10664 1041 10686 1046Q10711 1057 10734.0 1060.5Q10757 1064 10780 1064Q10818 1064 10859.5 1058.0Q10901 1052 10954 1052Q10979 1052 10996.5 1058.0Q11014 1064 11034 1064Q11055 1064 11076.0 1060.0Q11097 1056 11116.0 1051.0Q11135 1046 11152.5 1042.0Q11170 1038 11185 1038Q11224 1038 11241.5 1064.5Q11259 1091 11267 1146ZM10880 686Q10882 681 10883.0 675.0Q10884 669 10884 663Q10884 633 10878.5 609.5Q10873 586 10865.5 569.5Q10858 553 10849.0 544.5Q10840 536 10833 536Q10814 536 10776.0 543.5Q10738 551 10699.0 562.0Q10660 573 10628.5 586.0Q10597 599 10590 610Q10585 618 10583.0 633.5Q10581 649 10581 669Q10581 711 10586.5 734.0Q10592 757 10606 757Q10615 757 10626.0 754.0Q10637 751 10647.5 747.5Q10658 744 10666.5 741.0Q10675 738 10680 737Q10702 733 10734.0 731.0Q10766 729 10796.5 724.5Q10827 720 10850.5 711.5Q10874 703 10880 686Z" /></svg>