<svg viewBox="0 0 7337 2560" xmlns="http://www.w3.org/2000/svg"><path d="M453 839 532 1192Q623 1178 688.5 1166.5Q754 1155 812.5 1142.5Q871 1130 942 1116Q964 1149 973.5 1191.0Q983 1233 983 1274Q983 1338 966.0 1393.5Q949 1449 932 1468Q914 1471 895.5 1472.0Q877 1473 858 1473Q779 1473 700.0 1450.5Q621 1428 550 1388L545 1393Q582 1497 608.5 1603.5Q635 1710 624 1826Q619 1890 564.5 1938.5Q510 1987 437.5 2013.5Q365 2040 305 2040Q242 2040 187.5 2007.5Q133 1975 92.5 1929.5Q52 1884 32 1846L97 1709H330Q251 1465 197.0 1300.5Q143 1136 109.5 1034.0Q76 932 58.0 877.0Q40 822 32.5 798.0Q25 774 23.5 765.0Q22 756 21 745Q21 683 50.5 605.0Q80 527 127 479L576 573L930 471Q978 496 1001.0 557.5Q1024 619 1024 690Q1024 766 998.0 838.0Q972 910 921 945Q807 928 688.0 900.0Q569 872 453 839ZM1399 2040Q1351 2040 1305.0 2031.0Q1259 2022 1227 1992Q1212 1978 1183.5 1939.5Q1155 1901 1137.5 1853.0Q1120 1805 1137 1763L1217 1565L1038 957Q1078 899 1148.0 869.5Q1218 840 1293 840Q1375 840 1438 871L1431 1473L1442 1475Q1452 1429 1465.0 1348.5Q1478 1268 1494.0 1175.0Q1510 1082 1530.5 996.0Q1551 910 1577 854Q1609 846 1640.5 843.0Q1672 840 1701 840Q1803 839 1881.0 867.5Q1959 896 2000 924Q2014 1023 2006.5 1132.0Q1999 1241 1982.0 1339.0Q1965 1437 1948 1503Q1877 1543 1810.5 1544.5Q1744 1546 1678 1530Q1679 1499 1679.0 1445.0Q1679 1391 1679.0 1332.5Q1679 1274 1678 1232L1629 1224Q1609 1283 1584.0 1371.5Q1559 1460 1533.5 1558.0Q1508 1656 1484 1746L1667 1722L1724 1856Q1663 1952 1578.5 1996.0Q1494 2040 1399 2040ZM2380 2040Q2352 2040 2326.0 2025.5Q2300 2011 2270 1989Q2246 1971 2213.0 1951.0Q2180 1931 2155.5 1907.5Q2131 1884 2131 1858L2215 1447L2060 1016Q2088 947 2147.5 906.0Q2207 865 2277.5 847.0Q2348 829 2409 829Q2477 829 2513 846Q2518 901 2520.5 962.5Q2523 1024 2523 1089Q2523 1236 2512.0 1372.0Q2501 1508 2472 1645L2502 1659Q2530 1632 2563.5 1577.0Q2597 1522 2629.0 1458.5Q2661 1395 2684.5 1339.5Q2708 1284 2715 1256Q2703 1113 2697.0 1034.0Q2691 955 2688.5 918.5Q2686 882 2686 866Q2702 855 2749.0 846.5Q2796 838 2854 838Q3029 838 3131 959V970Q3131 1005 3117.5 1092.5Q3104 1180 3080.0 1292.5Q3056 1405 3025.0 1516.5Q2994 1628 2959 1712L3132 1620L3217 1741Q3183 1820 3138.5 1888.5Q3094 1957 3042.0 1998.5Q2990 2040 2932 2040Q2885 2040 2831.5 2012.5Q2778 1985 2737 1940Q2721 1922 2703.0 1899.5Q2685 1877 2685 1827Q2685 1820 2685.5 1813.0Q2686 1806 2687 1799Q2695 1723 2703.0 1660.0Q2711 1597 2721 1530L2706 1523Q2681 1588 2642.0 1675.5Q2603 1763 2558.0 1846.5Q2513 1930 2467.0 1985.0Q2421 2040 2380 2040ZM3515 2040Q3494 2037 3452.5 2018.5Q3411 2000 3369.5 1972.5Q3328 1945 3305 1915Q3310 1769 3333.5 1621.0Q3357 1473 3391 1358Q3348 1218 3318.0 1095.0Q3288 972 3264.5 842.5Q3241 713 3215 554Q3264 493 3355.5 450.5Q3447 408 3539 407Q3583 406 3623.5 417.0Q3664 428 3697 454Q3703 586 3696.5 756.5Q3690 927 3676.0 1109.5Q3662 1292 3644.0 1460.0Q3626 1628 3608 1755L3619 1760Q3689 1644 3750.5 1514.0Q3812 1384 3864 1260Q3818 1222 3780.0 1172.0Q3742 1122 3713 1055Q3745 989 3806.5 936.0Q3868 883 3941.0 850.5Q4014 818 4078 816Q4123 859 4162.0 926.5Q4201 994 4225.0 1069.5Q4249 1145 4248 1213Q4220 1261 4153.0 1358.5Q4086 1456 3995 1560Q4010 1582 4041.0 1616.5Q4072 1651 4096 1675Q4155 1645 4214 1582L4332 1673Q4332 1752 4324.0 1801.0Q4316 1850 4291 1903Q4258 1975 4204.0 2008.0Q4150 2041 4084 2040Q4037 2040 3983 2023Q3913 2001 3869.5 1927.5Q3826 1854 3802 1770Q3731 1846 3661.5 1917.0Q3592 1988 3515 2040ZM4782 2040Q4736 2040 4679.5 2017.0Q4623 1994 4571.0 1956.0Q4519 1918 4485.0 1872.0Q4451 1826 4449 1780Q4449 1767 4453.5 1742.5Q4458 1718 4472.0 1666.5Q4486 1615 4514 1524L4464 1166L4368 1160Q4353 1119 4349.5 1065.0Q4346 1011 4348 983L4460 944L4521 581Q4545 568 4598.5 563.5Q4652 559 4714.5 567.5Q4777 576 4825 602L4814 883L5036 838Q5077 907 5078.0 971.0Q5079 1035 5063.5 1085.5Q5048 1136 5037 1165Q4991 1169 4926.5 1173.0Q4862 1177 4804 1179L4806 1708L5022 1530L5149 1671Q5135 1708 5095.0 1769.0Q5055 1830 5000.5 1892.5Q4946 1955 4888.5 1997.5Q4831 2040 4782 2040ZM5473 2040Q5445 2040 5419.0 2025.5Q5393 2011 5363 1989Q5339 1971 5306.0 1951.0Q5273 1931 5248.5 1907.5Q5224 1884 5224 1858L5308 1447L5153 1016Q5181 947 5240.5 906.0Q5300 865 5370.5 847.0Q5441 829 5502 829Q5570 829 5606 846Q5611 901 5613.5 962.5Q5616 1024 5616 1089Q5616 1236 5605.0 1372.0Q5594 1508 5565 1645L5595 1659Q5623 1632 5656.5 1577.0Q5690 1522 5722.0 1458.5Q5754 1395 5777.5 1339.5Q5801 1284 5808 1256Q5796 1113 5790.0 1034.0Q5784 955 5781.5 918.5Q5779 882 5779 866Q5795 855 5842.0 846.5Q5889 838 5947 838Q6122 838 6224 959V970Q6224 1005 6210.5 1092.5Q6197 1180 6173.0 1292.5Q6149 1405 6118.0 1516.5Q6087 1628 6052 1712L6225 1620L6310 1741Q6276 1820 6231.5 1888.5Q6187 1957 6135.0 1998.5Q6083 2040 6025 2040Q5978 2040 5924.5 2012.5Q5871 1985 5830 1940Q5814 1922 5796.0 1899.5Q5778 1877 5778 1827Q5778 1820 5778.5 1813.0Q5779 1806 5780 1799Q5788 1723 5796.0 1660.0Q5804 1597 5814 1530L5799 1523Q5774 1588 5735.0 1675.5Q5696 1763 5651.0 1846.5Q5606 1930 5560.0 1985.0Q5514 2040 5473 2040ZM6679 2040Q6631 2040 6585.0 2031.0Q6539 2022 6507 1992Q6492 1978 6463.5 1939.5Q6435 1901 6417.5 1853.0Q6400 1805 6417 1763L6497 1565L6318 957Q6358 899 6428.0 869.5Q6498 840 6573 840Q6655 840 6718 871L6711 1473L6722 1475Q6732 1429 6745.0 1348.5Q6758 1268 6774.0 1175.0Q6790 1082 6810.5 996.0Q6831 910 6857 854Q6889 846 6920.5 843.0Q6952 840 6981 840Q7083 839 7161.0 867.5Q7239 896 7280 924Q7294 1023 7286.5 1132.0Q7279 1241 7262.0 1339.0Q7245 1437 7228 1503Q7157 1543 7090.5 1544.5Q7024 1546 6958 1530Q6959 1499 6959.0 1445.0Q6959 1391 6959.0 1332.5Q6959 1274 6958 1232L6909 1224Q6889 1283 6864.0 1371.5Q6839 1460 6813.5 1558.0Q6788 1656 6764 1746L6947 1722L7004 1856Q6943 1952 6858.5 1996.0Q6774 2040 6679 2040Z" fill="currentColor" /></svg>