<svg viewBox="0 0 7018 1044" xmlns="http://www.w3.org/2000/svg"><path d="M88 760Q69 760 63 730Q56 724 50.0 696.0Q44 668 40.5 627.0Q37 586 37 542Q37 527 37.5 512.5Q38 498 39 484Q0 469 0 447Q0 428 7.5 419.5Q15 411 26.0 406.0Q37 401 48 394Q50 382 54.5 353.5Q59 325 64.5 290.5Q70 256 76.0 225.5Q82 195 88 179Q92 160 111.0 141.0Q130 122 172.0 108.5Q214 95 287 95H331Q365 95 396.5 98.0Q428 101 449.0 110.5Q470 120 470 142Q470 153 463.5 161.0Q457 169 449 169H299Q296 169 279.5 170.5Q263 172 241.5 175.0Q220 178 200.5 183.0Q181 188 171 196Q158 206 148.5 239.5Q139 273 134.5 316.5Q130 360 130 401Q139 400 161.5 399.0Q184 398 211.0 397.0Q238 396 262.5 395.5Q287 395 301 395H341Q364 395 372.5 405.0Q381 415 381 432Q381 466 343 469L165 480Q137 481 127.5 487.5Q118 494 115 503Q115 539 121.0 589.0Q127 639 134 706Q127 731 114.0 745.5Q101 760 88 760ZM698 772Q647 772 618.0 743.5Q589 715 576.5 669.5Q564 624 564 573Q564 538 565.0 516.5Q566 495 569.5 472.0Q573 449 580 409Q584 389 588.0 368.5Q592 348 599 329Q607 306 616.5 296.5Q626 287 633 287Q652 287 661.5 297.5Q671 308 671 324Q671 346 665.0 365.0Q659 384 655 401Q648 446 643.0 472.5Q638 499 635.5 520.5Q633 542 633 573Q633 588 635.5 609.0Q638 630 645.0 650.0Q652 670 666.0 683.5Q680 697 703 697Q727 697 748.5 679.5Q770 662 779 651Q847 565 900.0 483.0Q953 401 1005 304Q1012 293 1016.5 290.0Q1021 287 1028 287Q1051 287 1060.0 295.0Q1069 303 1069 322Q1069 334 1066 351Q1051 426 1051 500Q1051 550 1060.0 593.0Q1069 636 1089 664Q1104 683 1104 697Q1104 714 1094.5 724.0Q1085 734 1071 734Q1033 734 1011 674Q1004 653 995.5 620.5Q987 588 980.0 555.0Q973 522 971 500Q958 521 947.5 541.5Q937 562 921 585Q910 601 895.0 621.5Q880 642 863 664Q828 707 786.0 739.5Q744 772 698 772ZM1283 787Q1268 787 1249.0 785.0Q1230 783 1216.0 775.0Q1202 767 1199 749Q1199 731 1200.0 718.0Q1201 705 1217 686Q1244 652 1281.0 611.5Q1318 571 1357.5 530.5Q1397 490 1434.5 454.0Q1472 418 1500 393Q1514 379 1514 368Q1514 350 1478 350H1421Q1393 350 1374.5 350.5Q1356 351 1339.5 352.0Q1323 353 1301 356Q1297 357 1293.0 357.0Q1289 357 1285 357Q1276 357 1270.0 352.5Q1264 348 1264 334Q1264 311 1284.0 305.5Q1304 300 1322 297Q1339 295 1364.5 294.0Q1390 293 1420 293Q1449 293 1480.0 294.5Q1511 296 1538 301Q1573 308 1591.5 322.0Q1610 336 1610 362Q1610 383 1592.0 403.0Q1574 423 1549.0 443.5Q1524 464 1502 486Q1478 509 1443.0 544.0Q1408 579 1374.0 614.5Q1340 650 1320 677Q1313 687 1309.0 693.5Q1305 700 1305 705Q1305 712 1320 712Q1382 712 1437.5 705.5Q1493 699 1538 695Q1543 694 1548.0 694.0Q1553 694 1557 694Q1579 694 1594.5 701.0Q1610 708 1610 728Q1610 749 1592.5 758.5Q1575 768 1551.5 771.0Q1528 774 1510 776Q1501 776 1472.5 778.0Q1444 780 1407.5 782.0Q1371 784 1337.0 785.5Q1303 787 1283 787ZM1785 787Q1770 787 1751.0 785.0Q1732 783 1718.0 775.0Q1704 767 1701 749Q1701 731 1702.0 718.0Q1703 705 1719 686Q1746 652 1783.0 611.5Q1820 571 1859.5 530.5Q1899 490 1936.5 454.0Q1974 418 2002 393Q2016 379 2016 368Q2016 350 1980 350H1923Q1895 350 1876.5 350.5Q1858 351 1841.5 352.0Q1825 353 1803 356Q1799 357 1795.0 357.0Q1791 357 1787 357Q1778 357 1772.0 352.5Q1766 348 1766 334Q1766 311 1786.0 305.5Q1806 300 1824 297Q1841 295 1866.5 294.0Q1892 293 1922 293Q1951 293 1982.0 294.5Q2013 296 2040 301Q2075 308 2093.5 322.0Q2112 336 2112 362Q2112 383 2094.0 403.0Q2076 423 2051.0 443.5Q2026 464 2004 486Q1980 509 1945.0 544.0Q1910 579 1876.0 614.5Q1842 650 1822 677Q1815 687 1811.0 693.5Q1807 700 1807 705Q1807 712 1822 712Q1884 712 1939.5 705.5Q1995 699 2040 695Q2045 694 2050.0 694.0Q2055 694 2059 694Q2081 694 2096.5 701.0Q2112 708 2112 728Q2112 749 2094.5 758.5Q2077 768 2053.5 771.0Q2030 774 2012 776Q2003 776 1974.5 778.0Q1946 780 1909.5 782.0Q1873 784 1839.0 785.5Q1805 787 1785 787ZM2357 1044Q2354 1044 2348.0 1036.0Q2342 1028 2342 1012Q2342 998 2345.5 984.0Q2349 970 2355 956Q2362 941 2369.0 926.0Q2376 911 2383 896Q2389 881 2397.5 858.0Q2406 835 2414.0 811.5Q2422 788 2427.5 771.0Q2433 754 2433 752V726Q2371 726 2330.0 703.0Q2289 680 2265.0 642.0Q2241 604 2230.0 557.5Q2219 511 2215.5 462.5Q2212 414 2212 372Q2212 352 2213.0 333.0Q2214 314 2218 295Q2223 272 2230.5 264.5Q2238 257 2245 257Q2268 257 2277.5 274.5Q2287 292 2287 325Q2287 348 2284.0 368.5Q2281 389 2281 413V423Q2281 432 2284.5 457.5Q2288 483 2292.0 509.0Q2296 535 2298 548Q2303 570 2313.0 594.5Q2323 619 2341.5 636.0Q2360 653 2389 653Q2428 653 2458.5 624.5Q2489 596 2514.5 550.5Q2540 505 2561 455Q2569 438 2576.0 421.0Q2583 404 2590 388Q2598 372 2605.0 358.0Q2612 344 2620 331Q2636 305 2649.5 294.0Q2663 283 2676 283Q2689 283 2695.5 290.0Q2702 297 2702 314Q2702 345 2691.5 375.0Q2681 405 2665 435Q2648 466 2629.0 496.0Q2610 526 2596 556Q2588 574 2574.5 604.5Q2561 635 2546.5 667.5Q2532 700 2521.5 725.0Q2511 750 2509 756Q2508 761 2501.0 778.5Q2494 796 2485.5 820.0Q2477 844 2468.0 868.5Q2459 893 2452.5 910.5Q2446 928 2444 933Q2438 951 2427.0 977.0Q2416 1003 2399.5 1023.5Q2383 1044 2357 1044ZM3411 787Q3349 787 3312.5 770.0Q3276 753 3276 721Q3255 718 3247.0 704.5Q3239 691 3237.5 672.0Q3236 653 3236 635V615Q3243 560 3249.5 512.5Q3256 465 3256 410Q3256 366 3255.5 334.0Q3255 302 3251 259Q3254 239 3228 229Q3224 227 3218.0 225.5Q3212 224 3205 221Q3195 217 3188.5 210.5Q3182 204 3182 189Q3182 165 3206.0 146.0Q3230 127 3267.0 113.5Q3304 100 3345.5 91.0Q3387 82 3423.0 78.0Q3459 74 3479 74Q3529 74 3571.0 92.5Q3613 111 3639.0 146.0Q3665 181 3665 231Q3665 276 3648.0 310.5Q3631 345 3591 362Q3649 370 3690.0 389.5Q3731 409 3753.5 448.5Q3776 488 3776 556Q3776 635 3727.5 686.0Q3679 737 3596.0 762.0Q3513 787 3411 787ZM3400 709Q3439 709 3482.0 705.5Q3525 702 3566.5 687.5Q3608 673 3643 640Q3668 617 3685.0 595.5Q3702 574 3702 536Q3702 505 3684.0 484.0Q3666 463 3639.5 450.0Q3613 437 3585 430Q3575 427 3563.5 426.0Q3552 425 3541 425Q3511 425 3482.5 430.0Q3454 435 3435 435Q3423 435 3416 430Q3410 424 3410 417Q3410 400 3414.0 388.5Q3418 377 3431 367Q3443 359 3456 352Q3464 347 3472.0 343.5Q3480 340 3488 336Q3515 324 3538.5 309.0Q3562 294 3576.5 273.0Q3591 252 3591 221Q3591 194 3571.5 177.5Q3552 161 3526.0 154.0Q3500 147 3479 147Q3455 147 3425.5 151.0Q3396 155 3369.0 167.5Q3342 180 3325 204V252Q3325 304 3327.5 355.0Q3330 406 3330 456V504Q3330 512 3329.0 531.5Q3328 551 3326.5 571.0Q3325 591 3325 599Q3325 606 3322.5 615.0Q3320 624 3317 635Q3314 648 3311.5 661.5Q3309 675 3309 691Q3322 704 3347.0 706.5Q3372 709 3400 709ZM4018 772Q3967 772 3938.0 743.5Q3909 715 3896.5 669.5Q3884 624 3884 573Q3884 538 3885.0 516.5Q3886 495 3889.5 472.0Q3893 449 3900 409Q3904 389 3908.0 368.5Q3912 348 3919 329Q3927 306 3936.5 296.5Q3946 287 3953 287Q3972 287 3981.5 297.5Q3991 308 3991 324Q3991 346 3985.0 365.0Q3979 384 3975 401Q3968 446 3963.0 472.5Q3958 499 3955.5 520.5Q3953 542 3953 573Q3953 588 3955.5 609.0Q3958 630 3965.0 650.0Q3972 670 3986.0 683.5Q4000 697 4023 697Q4047 697 4068.5 679.5Q4090 662 4099 651Q4167 565 4220.0 483.0Q4273 401 4325 304Q4332 293 4336.5 290.0Q4341 287 4348 287Q4371 287 4380.0 295.0Q4389 303 4389 322Q4389 334 4386 351Q4371 426 4371 500Q4371 550 4380.0 593.0Q4389 636 4409 664Q4424 683 4424 697Q4424 714 4414.5 724.0Q4405 734 4391 734Q4353 734 4331 674Q4324 653 4315.5 620.5Q4307 588 4300.0 555.0Q4293 522 4291 500Q4278 521 4267.5 541.5Q4257 562 4241 585Q4230 601 4215.0 621.5Q4200 642 4183 664Q4148 707 4106.0 739.5Q4064 772 4018 772ZM4745 772Q4709 772 4677.0 761.5Q4645 751 4623 740Q4608 758 4592.5 762.5Q4577 767 4564 767Q4537 767 4537 725Q4537 703 4538.5 687.5Q4540 672 4547 646Q4564 529 4573.5 404.5Q4583 280 4583 158Q4583 95 4580 34Q4580 24 4587.0 22.0Q4594 20 4601 20Q4624 20 4635.5 25.5Q4647 31 4649 52V107Q4649 174 4646.5 240.5Q4644 307 4644 385Q4644 395 4645.5 404.0Q4647 413 4652 413Q4656 413 4663.0 407.0Q4670 401 4681 385Q4725 334 4780.0 299.5Q4835 265 4915 265Q4941 265 4969.5 271.5Q4998 278 5023.0 296.5Q5048 315 5063.5 351.5Q5079 388 5079 448Q5079 518 5053.0 577.5Q5027 637 4981.0 680.5Q4935 724 4874.5 748.0Q4814 772 4745 772ZM4745 705Q4792 705 4839.0 683.0Q4886 661 4925.5 624.0Q4965 587 4989.0 541.5Q5013 496 5013 448Q5013 420 4999.5 394.0Q4986 368 4961.5 350.5Q4937 333 4905 333Q4873 333 4836.0 353.0Q4799 373 4763.0 405.0Q4727 437 4697.5 475.5Q4668 514 4650.5 552.0Q4633 590 4633 621Q4633 644 4645.5 660.0Q4658 676 4677.0 686.0Q4696 696 4714.5 700.5Q4733 705 4745 705ZM5379 772Q5343 772 5311.0 761.5Q5279 751 5257 740Q5242 758 5226.5 762.5Q5211 767 5198 767Q5171 767 5171 725Q5171 703 5172.5 687.5Q5174 672 5181 646Q5198 529 5207.5 404.5Q5217 280 5217 158Q5217 95 5214 34Q5214 24 5221.0 22.0Q5228 20 5235 20Q5258 20 5269.5 25.5Q5281 31 5283 52V107Q5283 174 5280.5 240.5Q5278 307 5278 385Q5278 395 5279.5 404.0Q5281 413 5286 413Q5290 413 5297.0 407.0Q5304 401 5315 385Q5359 334 5414.0 299.5Q5469 265 5549 265Q5575 265 5603.5 271.5Q5632 278 5657.0 296.5Q5682 315 5697.5 351.5Q5713 388 5713 448Q5713 518 5687.0 577.5Q5661 637 5615.0 680.5Q5569 724 5508.5 748.0Q5448 772 5379 772ZM5379 705Q5426 705 5473.0 683.0Q5520 661 5559.5 624.0Q5599 587 5623.0 541.5Q5647 496 5647 448Q5647 420 5633.5 394.0Q5620 368 5595.5 350.5Q5571 333 5539 333Q5507 333 5470.0 353.0Q5433 373 5397.0 405.0Q5361 437 5331.5 475.5Q5302 514 5284.5 552.0Q5267 590 5267 621Q5267 644 5279.5 660.0Q5292 676 5311.0 686.0Q5330 696 5348.5 700.5Q5367 705 5379 705ZM5887 787Q5868 787 5858.0 772.0Q5848 757 5844.0 735.0Q5840 713 5839.5 691.0Q5839 669 5839 656Q5839 648 5838.5 638.0Q5838 628 5838 618Q5838 568 5841.0 496.5Q5844 425 5849.5 345.5Q5855 266 5862.5 190.0Q5870 114 5879 55Q5887 26 5900.5 13.0Q5914 0 5927 0Q5939 0 5948.5 11.0Q5958 22 5958 42Q5958 46 5958.0 49.0Q5958 52 5957 56Q5932 177 5925.0 309.0Q5918 441 5918 563Q5918 613 5919.5 651.5Q5921 690 5921 731Q5921 753 5911.5 770.0Q5902 787 5887 787ZM6328 797Q6252 797 6190.5 774.5Q6129 752 6093.0 703.5Q6057 655 6057 578Q6057 517 6077.5 459.0Q6098 401 6136.0 354.0Q6174 307 6227.0 279.5Q6280 252 6345 252Q6390 252 6426.5 269.0Q6463 286 6485.0 317.0Q6507 348 6507 391Q6507 437 6487.5 478.5Q6468 520 6435.0 552.0Q6402 584 6360.5 602.5Q6319 621 6274 621Q6235 621 6201.0 614.5Q6167 608 6138 594Q6138 632 6156.0 658.5Q6174 685 6202.0 701.5Q6230 718 6260.5 725.5Q6291 733 6317 733Q6338 733 6359.0 730.5Q6380 728 6405 728Q6442 728 6442 760Q6442 785 6407 792Q6388 796 6368.0 796.5Q6348 797 6328 797ZM6274 541Q6309 541 6347.0 527.0Q6385 513 6411.5 483.0Q6438 453 6438 407Q6438 366 6412.5 340.5Q6387 315 6345 315Q6307 315 6270.5 332.5Q6234 350 6204.0 379.5Q6174 409 6156.0 446.0Q6138 483 6138 522Q6161 534 6196.0 537.5Q6231 541 6274 541ZM6810 797Q6783 797 6747.0 794.0Q6711 791 6676.5 781.0Q6642 771 6619.5 749.0Q6597 727 6597 690Q6597 642 6635 642Q6648 642 6655 651L6664 663Q6667 667 6669.5 671.5Q6672 676 6676 681Q6690 702 6716.0 720.0Q6742 738 6794 738Q6824 738 6860.0 728.5Q6896 719 6921.5 698.0Q6947 677 6947 642Q6947 613 6929.0 596.0Q6911 579 6889 569Q6879 564 6866.5 559.0Q6854 554 6840 550Q6827 546 6814.0 542.0Q6801 538 6787 534Q6751 522 6721.5 506.5Q6692 491 6674.5 467.0Q6657 443 6657 406Q6657 360 6687.5 329.0Q6718 298 6764.5 282.5Q6811 267 6859 267Q6877 267 6901.0 270.0Q6925 273 6948.0 281.0Q6971 289 6986.5 303.5Q7002 318 7002 342Q7002 354 6997.5 362.5Q6993 371 6984 371Q6978 371 6974 369Q6930 349 6900.5 340.0Q6871 331 6849 331Q6836 331 6815.5 334.5Q6795 338 6775.0 345.5Q6755 353 6741.5 366.5Q6728 380 6728 401Q6728 439 6786 464Q6807 472 6833.0 480.0Q6859 488 6887 499Q6923 512 6953.0 530.0Q6983 548 7000.5 573.5Q7018 599 7018 637Q7018 694 6989.0 729.5Q6960 765 6913.0 781.0Q6866 797 6810 797Z" fill="currentColor" /></svg>