<svg viewBox="0 0 3746 1050" xmlns="http://www.w3.org/2000/svg"><path d="M381 201Q462 201 548 231L516 336L383 270Q256 270 206.0 324.0Q156 378 156.0 505.0Q156 632 206.0 700.5Q256 769 341 769Q411 769 473 732L469 617L453 556L565 550L552 787Q469 832 365 834Q358 835 338 835Q205 835 130.0 753.5Q55 672 55.0 526.0Q55 380 144.0 290.5Q233 201 381 201ZM925 559Q925 483 908.0 454.0Q891 425 847 425Q823 425 809 427L725 501L680 426Q757 365 852 365Q1009 365 1009 523V708L1027 821L934 835L930 785Q868 835 803.5 835.0Q739 835 704.5 800.5Q670 766 670.0 706.0Q670 646 719.0 617.0Q768 588 925 559ZM755 702Q755 735 775.5 754.0Q796 773 839.5 773.0Q883 773 925 742V616Q829 630 762 659Q755 686 755 702ZM1150 820 1164 622V253L1149 150L1257 140L1246 336V623L1257 820ZM1661 785Q1597 835 1527.5 835.0Q1458 835 1417.0 779.0Q1376 723 1376 627Q1376 509 1438.5 437.5Q1501 366 1604 366Q1633 366 1658 370V255L1643 150L1751 140L1740 338V708L1758 821L1665 835ZM1557 766Q1603 766 1656 742V438Q1623 427 1586.0 427.0Q1549 427 1506 437Q1468 488 1468 595Q1468 766 1557 766ZM2237 522Q2237 549 2232 587L1962 596Q1962 681 1991.5 727.5Q2021 774 2075 774Q2146 774 2206 723L2233 797Q2165 835 2074.5 835.0Q1984 835 1927.0 775.0Q1870 715 1870.0 609.5Q1870 504 1928.0 435.0Q1986 366 2069.5 366.0Q2153 366 2195.0 407.0Q2237 448 2237 522ZM1964 544 2146 536Q2145 475 2126.0 451.0Q2107 427 2064.0 427.0Q2021 427 1997 436Q1972 463 1964 544ZM2582 559Q2582 483 2565.0 454.0Q2548 425 2504 425Q2480 425 2466 427L2382 501L2337 426Q2414 365 2509 365Q2666 365 2666 523V708L2684 821L2591 835L2587 785Q2525 835 2460.5 835.0Q2396 835 2361.5 800.5Q2327 766 2327.0 706.0Q2327 646 2376.0 617.0Q2425 588 2582 559ZM2412 702Q2412 735 2432.5 754.0Q2453 773 2496.5 773.0Q2540 773 2582 742V616Q2486 630 2419 659Q2412 686 2412 702ZM2807 820 2821 622V481L2806 378L2903 368V419Q2984 366 3066 366Q3117 366 3144.0 401.5Q3171 437 3171 504V820L3073 825L3087 610V503Q3087 466 3075.0 450.5Q3063 435 3035 435Q2974 435 2903 472V820ZM3492.5 835.0Q3399 835 3347.5 776.0Q3296 717 3296.0 607.5Q3296 498 3351.0 432.0Q3406 366 3499.5 366.0Q3593 366 3644.5 424.5Q3696 483 3696.0 592.5Q3696 702 3641.0 768.5Q3586 835 3492.5 835.0ZM3507 774Q3537 774 3571 764Q3604 717 3604.0 615.5Q3604 514 3574.5 470.5Q3545 427 3483 427Q3460 427 3421 437Q3388 483 3388.0 585.0Q3388 687 3416.5 730.5Q3445 774 3507 774Z" fill="currentColor" /></svg>