<svg viewBox="0 0 3641.0 695" xmlns="http://www.w3.org/2000/svg"><path d="M326.0 61Q407.0 61 493.0 91L461.0 196L328.0 130Q201.0 130 151.0 184.0Q101.0 238 101.0 365.0Q101.0 492 151.0 560.5Q201.0 629 286.0 629Q356.0 629 418.0 592L414.0 477L398.0 416L510.0 410L497.0 647Q414.0 692 310.0 694Q303.0 695 283.0 695Q150.0 695 75.0 613.5Q0.0 532 0.0 386.0Q0.0 240 89.0 150.5Q178.0 61 326.0 61ZM870.0 419Q870.0 343 853.0 314.0Q836.0 285 792.0 285Q768.0 285 754.0 287L670.0 361L625.0 286Q702.0 225 797.0 225Q954.0 225 954.0 383V568L972.0 681L879.0 695L875.0 645Q813.0 695 748.5 695.0Q684.0 695 649.5 660.5Q615.0 626 615.0 566.0Q615.0 506 664.0 477.0Q713.0 448 870.0 419ZM700.0 562Q700.0 595 720.5 614.0Q741.0 633 784.5 633.0Q828.0 633 870.0 602V476Q774.0 490 707.0 519Q700.0 546 700.0 562ZM1095.0 680 1109.0 482V113L1094.0 10L1202.0 0L1191.0 196V483L1202.0 680ZM1606.0 645Q1542.0 695 1472.5 695.0Q1403.0 695 1362.0 639.0Q1321.0 583 1321.0 487Q1321.0 369 1383.5 297.5Q1446.0 226 1549.0 226Q1578.0 226 1603.0 230V115L1588.0 10L1696.0 0L1685.0 198V568L1703.0 681L1610.0 695ZM1502.0 626Q1548.0 626 1601.0 602V298Q1568.0 287 1531.0 287.0Q1494.0 287 1451.0 297Q1413.0 348 1413.0 455Q1413.0 626 1502.0 626ZM2182.0 382Q2182.0 409 2177.0 447L1907.0 456Q1907.0 541 1936.5 587.5Q1966.0 634 2020.0 634Q2091.0 634 2151.0 583L2178.0 657Q2110.0 695 2019.5 695.0Q1929.0 695 1872.0 635.0Q1815.0 575 1815.0 469.5Q1815.0 364 1873.0 295.0Q1931.0 226 2014.5 226.0Q2098.0 226 2140.0 267.0Q2182.0 308 2182.0 382ZM1909.0 404 2091.0 396Q2090.0 335 2071.0 311.0Q2052.0 287 2009.0 287.0Q1966.0 287 1942.0 296Q1917.0 323 1909.0 404ZM2527.0 419Q2527.0 343 2510.0 314.0Q2493.0 285 2449.0 285Q2425.0 285 2411.0 287L2327.0 361L2282.0 286Q2359.0 225 2454.0 225Q2611.0 225 2611.0 383V568L2629.0 681L2536.0 695L2532.0 645Q2470.0 695 2405.5 695.0Q2341.0 695 2306.5 660.5Q2272.0 626 2272.0 566.0Q2272.0 506 2321.0 477.0Q2370.0 448 2527.0 419ZM2357.0 562Q2357.0 595 2377.5 614.0Q2398.0 633 2441.5 633.0Q2485.0 633 2527.0 602V476Q2431.0 490 2364.0 519Q2357.0 546 2357.0 562ZM2752.0 680 2766.0 482V341L2751.0 238L2848.0 228V279Q2929.0 226 3011.0 226Q3062.0 226 3089.0 261.5Q3116.0 297 3116.0 364V680L3018.0 685L3032.0 470V363Q3032.0 326 3020.0 310.5Q3008.0 295 2980.0 295Q2919.0 295 2848.0 332V680ZM3437.5 695.0Q3344.0 695 3292.5 636.0Q3241.0 577 3241.0 467.5Q3241.0 358 3296.0 292.0Q3351.0 226 3444.5 226.0Q3538.0 226 3589.5 284.5Q3641.0 343 3641.0 452.5Q3641.0 562 3586.0 628.5Q3531.0 695 3437.5 695.0ZM3452.0 634Q3482.0 634 3516.0 624Q3549.0 577 3549.0 475.5Q3549.0 374 3519.5 330.5Q3490.0 287 3428.0 287Q3405.0 287 3366.0 297Q3333.0 343 3333.0 445.0Q3333.0 547 3361.5 590.5Q3390.0 634 3452.0 634Z" /></svg>