<svg viewBox="0 0 6000 1300" xmlns="http://www.w3.org/2000/svg"><path d="M298 1021Q223 1021 164.5 979.5Q106 938 72.0 855.5Q38 773 38 651Q38 536 69.5 453.0Q101 370 160.0 324.5Q219 279 302 279Q367 279 417.5 308.0Q468 337 502.0 388.5Q536 440 551 507L461 513Q444 447 404.5 405.0Q365 363 302 363Q247 363 208.0 396.5Q169 430 148.5 494.5Q128 559 128 651Q128 742 149.0 806.0Q170 870 209.5 903.5Q249 937 306 937Q357 937 393.5 910.5Q430 884 451.0 836.5Q472 789 474 728H304V646H554V1005H474L470 837L494 845Q480 896 455.5 936.0Q431 976 392.5 998.5Q354 1021 298 1021ZM909 1017Q834 1017 779.5 983.0Q725 949 695.5 886.5Q666 824 666 740Q666 656 695.5 594.0Q725 532 778.5 497.5Q832 463 905 463Q974 463 1027.0 495.5Q1080 528 1110.0 590.0Q1140 652 1140 741V766H754Q759 851 799.5 894.0Q840 937 909 937Q961 937 994.5 912.5Q1028 888 1041 848L1131 855Q1110 926 1051.5 971.5Q993 1017 909 1017ZM754 692H1048Q1042 615 1003.0 579.0Q964 543 905 543Q844 543 804.5 580.5Q765 618 754 692ZM1493 1005V475H1577V1005ZM1280 1005V931H1760V1005ZM1290 549V475H1577V549ZM1485 392V294H1573V392ZM2110 1017Q2041 1017 1991.0 993.0Q1941 969 1912.5 928.5Q1884 888 1880 838L1968 832Q1976 881 2011.5 909.0Q2047 937 2110 937Q2169 937 2201.5 920.0Q2234 903 2234 867Q2234 844 2223.0 829.0Q2212 814 2182.0 803.5Q2152 793 2094 783Q2017 769 1973.5 748.5Q1930 728 1912.0 697.0Q1894 666 1894 623Q1894 577 1917.0 541.0Q1940 505 1985.0 484.0Q2030 463 2095 463Q2161 463 2205.5 486.5Q2250 510 2276.0 548.5Q2302 587 2310 633L2222 639Q2216 611 2199.5 589.5Q2183 568 2156.5 555.5Q2130 543 2094 543Q2036 543 2008.0 566.0Q1980 589 1980 623Q1980 650 1993.0 666.0Q2006 682 2035.0 691.5Q2064 701 2112 709Q2194 722 2239.0 742.5Q2284 763 2302.0 793.0Q2320 823 2320 867Q2320 914 2292.5 947.5Q2265 981 2217.5 999.0Q2170 1017 2110 1017ZM2778 1005Q2701 1005 2663.0 969.0Q2625 933 2625 859V351H2709V859Q2709 896 2726.0 913.5Q2743 931 2778 931H2920V1005ZM2450 549V475H2920V549ZM3862 925 3728 375H3736V1005H3650V295H3780L3920 879H3880L4020 295H4150V1005H4064V375H4072L3938 925ZM4500 1017Q4427 1017 4372.5 983.0Q4318 949 4288.0 886.5Q4258 824 4258 740Q4258 655 4288.0 593.0Q4318 531 4372.5 497.0Q4427 463 4500 463Q4573 463 4627.5 497.0Q4682 531 4712.0 593.0Q4742 655 4742 740Q4742 824 4712.0 886.5Q4682 949 4627.5 983.0Q4573 1017 4500 1017ZM4500 937Q4573 937 4613.5 884.5Q4654 832 4654 740Q4654 648 4613.5 595.5Q4573 543 4500 543Q4427 543 4386.5 595.5Q4346 648 4346 740Q4346 832 4386.5 884.5Q4427 937 4500 937ZM4884 1005V475H4961L4964 610L4954 601Q4964 554 4990.5 523.5Q5017 493 5054.0 478.0Q5091 463 5132 463Q5193 463 5233.5 490.0Q5274 517 5295.0 562.5Q5316 608 5316 664V1005H5232V688Q5232 614 5203.0 575.5Q5174 537 5114 537Q5073 537 5040.0 554.5Q5007 572 4987.5 605.5Q4968 639 4968 688V1005ZM5700 1017Q5627 1017 5572.5 983.0Q5518 949 5488.0 886.5Q5458 824 5458 740Q5458 655 5488.0 593.0Q5518 531 5572.5 497.0Q5627 463 5700 463Q5773 463 5827.5 497.0Q5882 531 5912.0 593.0Q5942 655 5942 740Q5942 824 5912.0 886.5Q5882 949 5827.5 983.0Q5773 1017 5700 1017ZM5700 937Q5773 937 5813.5 884.5Q5854 832 5854 740Q5854 648 5813.5 595.5Q5773 543 5700 543Q5627 543 5586.5 595.5Q5546 648 5546 740Q5546 832 5586.5 884.5Q5627 937 5700 937Z" fill="currentColor" /></svg>