<svg viewBox="0 0 4586 680" xmlns="http://www.w3.org/2000/svg"><path d="M295 680H100Q48 680 24.0 661.0Q0 642 0 590V125Q0 72 24.0 53.5Q48 35 100 35H385V77H56Q49 77 49 84V631Q49 638 56 638H339Q346 638 346 631V387L355 395H211V355H395V590Q395 642 371.5 661.0Q348 680 295 680ZM804 680H603Q551 680 527.0 661.0Q503 642 503 590V270Q503 217 524.0 198.5Q545 180 597 180H714Q767 180 790.5 198.5Q814 217 814 270V477H542V441H768V224Q768 217 761 217H556Q549 217 549 224V636Q549 643 556 643H804ZM1027 180H1109Q1162 180 1185.5 198.5Q1209 217 1209 270V675H1164V224Q1164 217 1157 217H961Q954 217 954 224V675H909V185H946L954 217L942 260Q942 215 962.0 197.5Q982 180 1027 180ZM1282 180H1364Q1417 180 1440.5 198.5Q1464 217 1464 270V675H1419V224Q1419 217 1412 217H1216Q1209 217 1209 224V270L1197 260Q1197 215 1217.0 197.5Q1237 180 1282 180ZM1764 680H1671Q1619 680 1595.0 661.0Q1571 642 1571 590V185H1616V636Q1616 643 1623 643H1837V185H1882V675H1845L1837 643L1844 600Q1844 645 1826.5 662.5Q1809 680 1764 680ZM2120 180H2212Q2265 180 2288.5 198.5Q2312 217 2312 270V675H2267V224Q2267 217 2260 217H2054Q2047 217 2047 224V675H2002V185H2039L2047 217L2035 260Q2035 215 2055.0 197.5Q2075 180 2120 180ZM2612 680H2519Q2467 680 2443.0 661.0Q2419 642 2419 590V185H2464V636Q2464 643 2471 643H2685V185H2730V675H2693L2685 643L2692 600Q2692 645 2674.5 662.5Q2657 680 2612 680ZM3361 635V675H3065V40H3111V648L3098 635ZM3481 675H3436V185H3481ZM3481 68H3436V13H3481ZM3821 678 3611 675V0H3656V217L3649 260Q3649 215 3666.5 197.5Q3684 180 3729 180H3821Q3874 180 3897.5 198.5Q3921 217 3921 270V588Q3921 640 3897.5 659.5Q3874 679 3821 678ZM3656 224V646L3649 639L3868 642Q3875 642 3875 635V224Q3875 217 3868 217H3663Q3656 217 3656 224ZM4149 180H4220V217H4083Q4076 217 4076 224V675H4031V185H4068L4076 217L4064 260Q4064 215 4084.0 197.5Q4104 180 4149 180ZM4576 680H4375Q4323 680 4299.0 661.0Q4275 642 4275 590V270Q4275 217 4296.0 198.5Q4317 180 4369 180H4486Q4539 180 4562.5 198.5Q4586 217 4586 270V477H4314V441H4540V224Q4540 217 4533 217H4328Q4321 217 4321 224V636Q4321 643 4328 643H4576Z" /></svg>