<svg viewBox="0 0 11052 1580" xmlns="http://www.w3.org/2000/svg"><path d="M1075 983Q1018 996 994.0 1019.0Q970 1042 970 1065V1396Q970 1396 947.5 1407.0Q925 1418 895.0 1431.0Q865 1444 842.5 1451.5Q820 1459 820 1452V1065Q820 1043 778.0 1022.5Q736 1002 614 983V940H1075ZM972 362Q982 369 964.5 391.0Q947 413 920.5 438.0Q894 463 876 479L843 473Q777 410 701.5 390.0Q626 370 528 370Q491 370 429.0 397.0Q367 424 304.0 485.5Q241 547 198.0 652.0Q155 757 155 913Q155 1098 217.5 1219.5Q280 1341 377.0 1400.5Q474 1460 575 1460Q676 1460 755.0 1432.0Q834 1404 886 1355Q899 1362 931.5 1375.0Q964 1388 970 1396Q871 1477 799.0 1516.0Q727 1555 668.0 1567.5Q609 1580 548 1580Q448 1580 350.5 1542.5Q253 1505 173.5 1428.5Q94 1352 47.0 1237.0Q0 1122 0 968Q0 746 90.5 587.5Q181 429 332.5 344.5Q484 260 667 260Q733 260 820.5 286.5Q908 313 972 362ZM1990 993Q1972 1013 1942.0 1030.0Q1912 1047 1880 1060H1306L1308 970H1788Q1811 970 1818.5 962.5Q1826 955 1826 934Q1826 907 1818.0 867.0Q1810 827 1788.5 787.5Q1767 748 1726.0 721.5Q1685 695 1620 695Q1540 695 1480.0 742.0Q1420 789 1387.0 869.5Q1354 950 1354 1053Q1354 1158 1389.5 1248.5Q1425 1339 1491.5 1394.5Q1558 1450 1650 1450Q1692 1450 1731.5 1441.5Q1771 1433 1822.0 1404.0Q1873 1375 1947 1314Q1960 1321 1970.0 1334.0Q1980 1347 1984 1355Q1895 1452 1832.0 1500.5Q1769 1549 1713.5 1564.5Q1658 1580 1589 1580Q1487 1580 1399.0 1522.5Q1311 1465 1257.5 1361.0Q1204 1257 1204 1116Q1204 981 1262.5 860.5Q1321 740 1425 669Q1469 638 1532.0 614.0Q1595 590 1648 590Q1746 590 1812.0 628.5Q1878 667 1917.0 728.0Q1956 789 1973.0 859.0Q1990 929 1990 993ZM2740 1550V1507Q2880 1471 2880 1446V917Q2880 795 2851.5 757.5Q2823 720 2752 720Q2691 720 2601.5 783.0Q2512 846 2415 1001V1446Q2415 1461 2453.0 1477.0Q2491 1493 2555 1507V1550H2125V1507Q2191 1490 2228.0 1476.0Q2265 1462 2265 1446V839Q2265 787 2258.0 762.0Q2251 737 2222.0 727.0Q2193 717 2125 710V670Q2193 659 2251.5 638.5Q2310 618 2365 590L2400 625L2411 874Q2470 785 2542.5 721.5Q2615 658 2686.0 624.0Q2757 590 2809 590Q2895 590 2962.5 643.0Q3030 696 3030 809V1446Q3030 1459 3060.5 1473.0Q3091 1487 3170 1507V1550ZM3876 1433Q3778 1506 3687.5 1543.0Q3597 1580 3544 1580Q3475 1580 3422.5 1524.0Q3370 1468 3370 1329V715H3241L3220 687L3298 620H3370V374L3489 270L3520 295V620H3847L3876 649Q3857 677 3826.0 709.0Q3795 741 3775 750Q3751 738 3702.0 726.5Q3653 715 3572 715H3520V1243Q3520 1363 3544.0 1406.5Q3568 1450 3628 1450Q3663 1450 3716.0 1436.0Q3769 1422 3847 1382ZM4295 289Q4295 345 4262.0 385.5Q4229 426 4179 426Q4095 426 4095 330Q4095 273 4129.0 233.5Q4163 194 4210 194Q4295 194 4295 289ZM3975 1550V1507Q4115 1479 4115 1446V880Q4115 811 4109.0 777.0Q4103 743 4074.0 729.5Q4045 716 3975 710V670Q4038 658 4109.0 636.5Q4180 615 4231 590H4265V1446Q4265 1458 4298.5 1475.5Q4332 1493 4405 1507V1550ZM5529 1468Q5456 1516 5395.5 1548.0Q5335 1580 5310 1580Q5275 1580 5253.0 1533.5Q5231 1487 5225 1384Q5142 1467 5077.5 1509.0Q5013 1551 4962.0 1565.5Q4911 1580 4868 1580Q4806 1580 4751.5 1555.0Q4697 1530 4663.5 1463.0Q4630 1396 4630 1271V839Q4630 775 4623.5 747.5Q4617 720 4590.0 711.0Q4563 702 4501 696V656Q4573 647 4629.5 631.5Q4686 616 4752 590L4780 629V1216Q4780 1356 4820.5 1408.0Q4861 1460 4933 1460Q4998 1460 5067.5 1421.0Q5137 1382 5225 1288V839Q5225 779 5215.5 749.5Q5206 720 5176.5 709.5Q5147 699 5085 696V656Q5157 647 5223.5 628.0Q5290 609 5345 590L5375 629V1296Q5375 1357 5380.0 1396.5Q5385 1436 5398 1446Q5409 1454 5438.5 1449.5Q5468 1445 5519 1423ZM6731 1550V1507Q6870 1471 6870 1446V917Q6870 794 6843.5 752.0Q6817 710 6757 710Q6691 710 6611.0 781.0Q6531 852 6455 977V1446Q6455 1459 6486.0 1473.0Q6517 1487 6596 1507V1550H6166V1507Q6305 1471 6305 1446V917Q6305 794 6279.5 752.0Q6254 710 6192 710Q6125 710 6050.0 780.5Q5975 851 5890 977V1446Q5890 1461 5928.0 1477.0Q5966 1493 6030 1507V1550H5600V1507Q5666 1490 5703.0 1476.0Q5740 1462 5740 1446V839Q5740 786 5732.0 761.5Q5724 737 5694.5 727.0Q5665 717 5600 710V670Q5676 658 5731.0 637.0Q5786 616 5840 590L5875 625L5886 854Q5975 721 6068.0 655.5Q6161 590 6233 590Q6328 590 6391.5 640.5Q6455 691 6455 825V846Q6539 721 6632.0 655.5Q6725 590 6798 590Q6893 590 6956.5 643.0Q7020 696 7020 809V1446Q7020 1459 7051.0 1473.0Q7082 1487 7161 1507V1550ZM8623 614Q8623 718 8582.0 793.5Q8541 869 8477.0 918.0Q8413 967 8343.0 991.0Q8273 1015 8214 1015Q8121 1015 8053 985L8030 910Q8071 929 8110.0 934.5Q8149 940 8184 940Q8246 940 8311.5 908.0Q8377 876 8422.5 812.5Q8468 749 8468 655Q8468 545 8417.5 476.5Q8367 408 8282.0 376.0Q8197 344 8094 344Q7989 344 7888.5 354.5Q7788 365 7691 382L7682 320Q7779 294 7904.5 277.0Q8030 260 8151 260Q8366 260 8494.5 351.0Q8623 442 8623 614ZM7691 1550V1507Q7759 1493 7797.5 1476.0Q7836 1459 7836 1446V340H7996V1446Q7996 1458 8031.5 1474.0Q8067 1490 8171 1507V1550ZM8772 1550V1507Q8858 1492 8890.0 1477.0Q8922 1462 8922 1446V254Q8922 195 8910.5 169.5Q8899 144 8868.5 135.0Q8838 126 8782 120V80Q8854 66 8914.5 49.0Q8975 32 9036 0L9072 34V1446Q9072 1461 9106.0 1477.0Q9140 1493 9222 1507V1550ZM10336 1468Q10263 1516 10202.5 1548.0Q10142 1580 10117 1580Q10082 1580 10060.0 1533.5Q10038 1487 10032 1384Q9949 1467 9884.5 1509.0Q9820 1551 9769.0 1565.5Q9718 1580 9675 1580Q9613 1580 9558.5 1555.0Q9504 1530 9470.5 1463.0Q9437 1396 9437 1271V839Q9437 775 9430.5 747.5Q9424 720 9397.0 711.0Q9370 702 9308 696V656Q9380 647 9436.5 631.5Q9493 616 9559 590L9587 629V1216Q9587 1356 9627.5 1408.0Q9668 1460 9740 1460Q9805 1460 9874.5 1421.0Q9944 1382 10032 1288V839Q10032 779 10022.5 749.5Q10013 720 9983.5 709.5Q9954 699 9892 696V656Q9964 647 10030.5 628.0Q10097 609 10152 590L10182 629V1296Q10182 1357 10187.0 1396.5Q10192 1436 10205 1446Q10216 1454 10245.5 1449.5Q10275 1445 10326 1423ZM11052 1267Q11052 1373 11010.5 1436.0Q10969 1499 10909.5 1530.0Q10850 1561 10793.5 1570.5Q10737 1580 10708 1580Q10661 1580 10593.0 1562.0Q10525 1544 10458 1507Q10452 1503 10449.5 1474.5Q10447 1446 10448.0 1406.0Q10449 1366 10453.5 1327.5Q10458 1289 10465 1267L10508 1278Q10513 1362 10584.0 1421.0Q10655 1480 10758 1480Q10830 1480 10876.0 1436.5Q10922 1393 10922 1323Q10922 1277 10897.0 1245.0Q10872 1213 10817.5 1180.0Q10763 1147 10674 1101Q10619 1072 10569.0 1038.0Q10519 1004 10487.5 958.5Q10456 913 10456 850Q10456 767 10499.0 709.0Q10542 651 10610.0 620.5Q10678 590 10753 590Q10795 590 10846.0 599.5Q10897 609 10943.5 626.0Q10990 643 11016 667Q11024 674 11014.5 706.5Q11005 739 10990.0 772.5Q10975 806 10966 817L10927 809Q10880 738 10828.0 709.0Q10776 680 10727 680Q10661 680 10623.5 719.5Q10586 759 10586 800Q10586 855 10640.0 893.5Q10694 932 10807 991Q10865 1021 10921.5 1056.5Q10978 1092 11015.0 1142.0Q11052 1192 11052 1267Z" /></svg>