<svg viewBox="0 0 16036 1580" xmlns="http://www.w3.org/2000/svg"><path d="M1095 988Q1038 1001 1015.5 1024.0Q993 1047 993 1070V1391Q993 1391 965.5 1402.5Q938 1414 902.5 1428.0Q867 1442 840.0 1450.5Q813 1459 813 1452V1070Q813 1048 776.5 1027.5Q740 1007 622 988V935H1095ZM995 362Q1004 369 985.0 398.5Q966 428 938.5 460.5Q911 493 894 509L851 500Q785 426 711.5 400.5Q638 375 543 375Q506 375 446.5 401.0Q387 427 327.5 488.0Q268 549 228.0 653.0Q188 757 188 913Q188 1096 247.0 1214.5Q306 1333 398.5 1390.0Q491 1447 590 1447Q692 1447 765.5 1418.0Q839 1389 891 1340Q900 1344 923.0 1354.5Q946 1365 967.5 1375.5Q989 1386 993 1391Q894 1472 818.5 1512.5Q743 1553 681.0 1566.5Q619 1580 558 1580Q455 1580 355.5 1542.5Q256 1505 175.5 1429.0Q95 1353 47.5 1237.5Q0 1122 0 968Q0 746 91.0 587.5Q182 429 335.5 344.5Q489 260 677 260Q721 260 779.0 272.0Q837 284 894.0 306.5Q951 329 995 362ZM2028 995Q2010 1016 1975.0 1035.5Q1940 1055 1908 1067H1324L1326 970H1801Q1824 970 1831.5 962.5Q1839 955 1839 934Q1839 897 1823.5 841.5Q1808 786 1766.0 743.0Q1724 700 1643 700Q1527 700 1463.5 800.0Q1400 900 1400 1055Q1400 1159 1433.0 1246.0Q1466 1333 1529.0 1385.0Q1592 1437 1681 1437Q1723 1437 1762.5 1429.0Q1802 1421 1853.0 1393.0Q1904 1365 1980 1306Q1993 1313 2005.5 1330.0Q2018 1347 2022 1355Q1932 1451 1867.0 1499.5Q1802 1548 1743.0 1564.0Q1684 1580 1612 1580Q1506 1580 1416.0 1522.0Q1326 1464 1271.5 1359.0Q1217 1254 1217 1113Q1217 978 1273.5 862.0Q1330 746 1433 674Q1480 641 1546.5 615.5Q1613 590 1674 590Q1772 590 1839.5 626.5Q1907 663 1949.0 723.0Q1991 783 2009.5 854.5Q2028 926 2028 995ZM2771 1550V1497Q2908 1461 2908 1436V932Q2908 814 2881.0 775.5Q2854 737 2788 737Q2731 737 2650.5 788.5Q2570 840 2473 971V1436Q2473 1451 2509.5 1467.0Q2546 1483 2611 1497V1550H2156V1497Q2222 1480 2257.5 1466.0Q2293 1452 2293 1436V846Q2293 794 2286.5 769.5Q2280 745 2251.0 735.0Q2222 725 2156 717V667Q2232 657 2295.5 637.5Q2359 618 2421 590L2458 627L2469 841Q2566 719 2677.5 654.5Q2789 590 2867 590Q2953 590 3020.5 645.0Q3088 700 3088 821V1436Q3088 1449 3117.5 1463.0Q3147 1477 3226 1497V1550ZM3949 1420Q3840 1501 3748.5 1540.5Q3657 1580 3604 1580Q3530 1580 3474.0 1520.5Q3418 1461 3418 1321V725H3292L3268 694L3346 620H3418V386L3565 267L3598 295V620H3918L3949 651Q3930 681 3899.0 715.0Q3868 749 3848 760Q3824 748 3775.5 736.5Q3727 725 3655 725H3598V1233Q3598 1347 3622.0 1389.5Q3646 1432 3698 1432Q3734 1432 3784.5 1418.0Q3835 1404 3915 1362ZM4394 289Q4394 349 4355.5 390.0Q4317 431 4260 431Q4159 431 4159 330Q4159 269 4197.5 229.0Q4236 189 4291 189Q4338 189 4366.0 214.0Q4394 239 4394 289ZM4044 1550V1497Q4181 1469 4181 1436V887Q4181 819 4175.0 785.0Q4169 751 4140.5 737.5Q4112 724 4044 717V667Q4114 655 4187.0 635.0Q4260 615 4317 590H4361V1436Q4361 1448 4393.5 1465.5Q4426 1483 4499 1497V1550ZM5645 1458Q5572 1506 5500.0 1543.0Q5428 1580 5404 1580Q5368 1580 5343.5 1538.5Q5319 1497 5311 1394Q5228 1473 5164.5 1513.0Q5101 1553 5051.5 1566.5Q5002 1580 4959 1580Q4897 1580 4841.5 1555.0Q4786 1530 4751.0 1463.0Q4716 1396 4716 1271V846Q4716 783 4709.5 755.0Q4703 727 4676.5 718.0Q4650 709 4590 703V653Q4671 644 4732.5 630.0Q4794 616 4866 590L4896 631V1213Q4896 1348 4933.0 1395.0Q4970 1442 5037 1442Q5094 1442 5159.5 1408.0Q5225 1374 5311 1288V846Q5311 786 5302.0 757.0Q5293 728 5264.0 717.0Q5235 706 5174 703V653Q5255 644 5326.5 626.5Q5398 609 5459 590L5491 631V1286Q5491 1408 5514 1426Q5525 1434 5552.0 1429.5Q5579 1425 5630 1403ZM6853 1550V1497Q6925 1478 6954.5 1463.5Q6984 1449 6984 1436V927Q6984 804 6958.0 765.5Q6932 727 6874 727Q6815 727 6742.0 785.0Q6669 843 6597 947V1436Q6597 1449 6625.5 1463.0Q6654 1477 6733 1497V1550H6285V1497Q6357 1478 6387.0 1463.5Q6417 1449 6417 1436V927Q6417 804 6392.5 765.5Q6368 727 6309 727Q6249 727 6179.5 784.5Q6110 842 6029 947V1436Q6029 1469 6164 1497V1550H5712V1497Q5778 1480 5813.5 1466.0Q5849 1452 5849 1436V846Q5849 793 5841.5 768.5Q5834 744 5805.0 734.5Q5776 725 5712 717V667Q5797 655 5857.0 635.5Q5917 616 5977 590L6014 627L6025 821Q6122 700 6211.0 645.0Q6300 590 6372 590Q6467 590 6527.0 638.5Q6587 687 6591 797L6592 816Q6685 700 6774.5 645.0Q6864 590 6937 590Q7032 590 7098.0 645.0Q7164 700 7164 821V1436Q7164 1449 7195.0 1463.0Q7226 1477 7305 1497V1550ZM8837 1194Q8837 1364 8706.0 1464.0Q8575 1564 8360 1564Q8299 1564 8218.0 1561.5Q8137 1559 8054.5 1556.0Q7972 1553 7906 1550L8153 1444Q8184 1461 8236.0 1466.5Q8288 1472 8333 1472Q8477 1472 8558.5 1403.5Q8640 1335 8640 1223Q8640 1149 8608.0 1075.5Q8576 1002 8505.0 953.0Q8434 904 8318 904Q8252 904 8202.5 911.0Q8153 918 8109 927L8099 820H8192Q8337 820 8411.5 783.5Q8486 747 8512.0 691.5Q8538 636 8538 579Q8538 479 8469.0 415.0Q8400 351 8214 351Q8161 351 8093.0 356.5Q8025 362 7956.0 370.5Q7887 379 7831 389L7820 320Q7875 305 7952.0 291.5Q8029 278 8113.0 269.0Q8197 260 8272 260Q8482 260 8604.0 332.0Q8726 404 8726 530Q8726 637 8672.0 715.0Q8618 793 8523 827Q8613 843 8684.0 895.0Q8755 947 8796.0 1024.0Q8837 1101 8837 1194ZM7831 1550V1497Q7898 1483 7935.5 1466.0Q7973 1449 7973 1436V340L8163 319V1438Q8163 1450 8195.5 1468.0Q8228 1486 8301 1499V1550ZM9914 1065Q9914 1165 9877.0 1257.0Q9840 1349 9775.0 1422.0Q9710 1495 9625.5 1537.5Q9541 1580 9448 1580Q9318 1580 9221.5 1518.0Q9125 1456 9072.0 1349.0Q9019 1242 9019 1106Q9019 1007 9054.5 914.5Q9090 822 9154.0 748.5Q9218 675 9303.0 632.5Q9388 590 9487 590Q9616 590 9712.0 652.0Q9808 714 9861.0 821.0Q9914 928 9914 1065ZM9727 1100Q9727 994 9688.0 904.5Q9649 815 9587.5 760.0Q9526 705 9458 705Q9362 705 9307.5 754.0Q9253 803 9230.0 887.5Q9207 972 9207 1077Q9207 1182 9248.5 1270.5Q9290 1359 9352.0 1412.0Q9414 1465 9476 1465Q9610 1465 9668.5 1367.0Q9727 1269 9727 1100ZM10959 1065Q10959 1165 10922.0 1257.0Q10885 1349 10820.0 1422.0Q10755 1495 10670.5 1537.5Q10586 1580 10493 1580Q10363 1580 10266.5 1518.0Q10170 1456 10117.0 1349.0Q10064 1242 10064 1106Q10064 1007 10099.5 914.5Q10135 822 10199.0 748.5Q10263 675 10348.0 632.5Q10433 590 10532 590Q10661 590 10757.0 652.0Q10853 714 10906.0 821.0Q10959 928 10959 1065ZM10772 1100Q10772 994 10733.0 904.5Q10694 815 10632.5 760.0Q10571 705 10503 705Q10407 705 10352.5 754.0Q10298 803 10275.0 887.5Q10252 972 10252 1077Q10252 1182 10293.5 1270.5Q10335 1359 10397.0 1412.0Q10459 1465 10521 1465Q10655 1465 10713.5 1367.0Q10772 1269 10772 1100ZM12042 673Q11998 677 11958.5 690.5Q11919 704 11877 737L11474 1054L11379 1024L11678 761Q11722 722 11723.5 703.5Q11725 685 11700.0 679.0Q11675 673 11640 673V620H12042ZM11068 1550V1497Q11134 1480 11169.5 1467.0Q11205 1454 11205 1436V264Q11205 205 11194.5 179.0Q11184 153 11154.5 144.5Q11125 136 11068 130V80Q11146 66 11218.0 48.0Q11290 30 11346 0L11385 36V1436Q11385 1451 11403.0 1462.5Q11421 1474 11495 1497V1550ZM12077 1527Q12018 1540 11957.0 1550.0Q11896 1560 11875 1560Q11799 1560 11758 1507L11381 1024L11508 948L11919 1426Q11947 1459 11979.5 1468.5Q12012 1478 12071 1474ZM13542 614Q13542 718 13501.0 794.5Q13460 871 13396.0 921.0Q13332 971 13260.5 995.5Q13189 1020 13128 1020Q13032 1020 12965 990L12939 905Q12980 924 13016.5 929.5Q13053 935 13088 935Q13148 935 13209.5 904.0Q13271 873 13313.0 811.0Q13355 749 13355 655Q13355 550 13307.5 483.0Q13260 416 13179.5 383.5Q13099 351 12998 351Q12893 351 12781.0 363.0Q12669 375 12573 392L12562 320Q12663 294 12796.5 277.0Q12930 260 13055 260Q13276 260 13409.0 351.0Q13542 442 13542 614ZM12573 1550V1497Q12640 1483 12677.5 1466.0Q12715 1449 12715 1436V347H12905V1436Q12905 1448 12939.0 1464.0Q12973 1480 13078 1497V1550ZM13684 1550V1497Q13770 1482 13800.5 1467.0Q13831 1452 13831 1436V264Q13831 205 13820.0 179.5Q13809 154 13779.5 145.0Q13750 136 13694 130V80Q13775 66 13840.0 49.0Q13905 32 13973 0L14011 36V1436Q14011 1451 14044.0 1467.0Q14077 1483 14159 1497V1550ZM15295 1458Q15222 1506 15150.0 1543.0Q15078 1580 15054 1580Q15018 1580 14993.5 1538.5Q14969 1497 14961 1394Q14878 1473 14814.5 1513.0Q14751 1553 14701.5 1566.5Q14652 1580 14609 1580Q14547 1580 14491.5 1555.0Q14436 1530 14401.0 1463.0Q14366 1396 14366 1271V846Q14366 783 14359.5 755.0Q14353 727 14326.5 718.0Q14300 709 14240 703V653Q14321 644 14382.5 630.0Q14444 616 14516 590L14546 631V1213Q14546 1348 14583.0 1395.0Q14620 1442 14687 1442Q14744 1442 14809.5 1408.0Q14875 1374 14961 1288V846Q14961 786 14952.0 757.0Q14943 728 14914.0 717.0Q14885 706 14824 703V653Q14905 644 14976.5 626.5Q15048 609 15109 590L15141 631V1286Q15141 1408 15164 1426Q15175 1434 15202.0 1429.5Q15229 1425 15280 1403ZM16036 1267Q16036 1373 15993.5 1436.0Q15951 1499 15889.5 1530.0Q15828 1561 15768.5 1570.5Q15709 1580 15675 1580Q15622 1580 15549.5 1562.5Q15477 1545 15410 1507Q15403 1503 15400.5 1473.5Q15398 1444 15399.0 1402.0Q15400 1360 15404.5 1318.5Q15409 1277 15417 1249L15472 1260Q15482 1352 15552.0 1412.0Q15622 1472 15720 1472Q15791 1472 15833.5 1434.0Q15876 1396 15876 1330Q15876 1259 15814.5 1214.5Q15753 1170 15631 1106Q15575 1077 15524.0 1042.5Q15473 1008 15440.5 962.0Q15408 916 15408 852Q15408 769 15453.5 710.5Q15499 652 15571.5 621.0Q15644 590 15725 590Q15795 590 15876.5 611.0Q15958 632 16000 667Q16008 674 15999.0 710.5Q15990 747 15974.5 786.0Q15959 825 15948 839L15899 831Q15859 755 15808.5 720.0Q15758 685 15704 685Q15640 685 15604.0 720.5Q15568 756 15568 797Q15568 854 15622.5 893.0Q15677 932 15791 991Q15849 1021 15905.5 1056.5Q15962 1092 15999.0 1142.0Q16036 1192 16036 1267Z" fill="currentColor" /></svg>