<svg viewBox="0 0 2822 1250" xmlns="http://www.w3.org/2000/svg"><path d="M416 1031Q337 1031 269.5 1002.5Q202 974 153.0 923.5Q104 873 76.5 806.5Q49 740 49 663Q49 586 78.5 520.0Q108 454 160.0 403.5Q212 353 281.5 325.0Q351 297 430 297Q488 297 545.0 312.0Q602 327 653 362V475Q615 437 560.5 413.0Q506 389 437 389Q379 389 327.5 410.5Q276 432 237.0 470.5Q198 509 175.5 558.0Q153 607 153 663Q153 741 188.5 803.5Q224 866 285.0 902.0Q346 938 422 938Q492 938 549.0 909.0Q606 880 639.5 827.5Q673 775 673 703H474V614H770V643Q770 727 747.5 798.0Q725 869 680.0 921.5Q635 974 569.0 1002.5Q503 1031 416 1031ZM1109 1027Q1036 1027 978.0 994.0Q920 961 886.5 903.0Q853 845 853 771Q853 697 883.0 638.5Q913 580 967.5 545.5Q1022 511 1093 511Q1147 511 1189.0 530.0Q1231 549 1261.0 582.5Q1291 616 1309.0 660.0Q1327 704 1332 753L960 844Q977 889 1015.0 917.5Q1053 946 1113 946Q1146 946 1176.5 937.5Q1207 929 1235.0 912.5Q1263 896 1286 873V971Q1253 996 1207.0 1011.5Q1161 1027 1109 1027ZM953 770 1231 698Q1219 653 1183.0 623.0Q1147 593 1093 593Q1046 593 1014.0 618.0Q982 643 966.0 681.5Q950 720 950 763ZM1662 1026Q1586 1026 1526.5 992.0Q1467 958 1433.0 899.5Q1399 841 1399 770Q1399 716 1418.5 669.0Q1438 622 1473.5 586.5Q1509 551 1557.5 531.0Q1606 511 1663 511Q1740 511 1800.0 545.5Q1860 580 1894.5 638.0Q1929 696 1929 768Q1929 823 1908.5 870.0Q1888 917 1851.0 952.0Q1814 987 1766.0 1006.5Q1718 1026 1662 1026ZM1663 941Q1711 941 1748.5 917.0Q1786 893 1807.5 854.0Q1829 815 1829 769Q1829 722 1808.0 682.5Q1787 643 1749.5 619.0Q1712 595 1662 595Q1613 595 1576.0 618.5Q1539 642 1519.0 681.0Q1499 720 1499 768Q1499 817 1520.5 856.0Q1542 895 1579.5 918.0Q1617 941 1663 941ZM2027 1015V524L2125 584Q2152 547 2192.5 529.5Q2233 512 2278 512Q2327 512 2366.5 532.5Q2406 553 2426 601Q2452 558 2495.5 535.0Q2539 512 2594 512Q2652 512 2689.5 537.0Q2727 562 2745.5 605.0Q2764 648 2764 702V1015H2664V733Q2664 663 2636.5 631.5Q2609 600 2561 600Q2523 600 2497.0 618.5Q2471 637 2458.0 667.0Q2445 697 2445 733V1015H2345V733Q2345 676 2322.0 638.0Q2299 600 2243 600Q2206 600 2180.0 618.0Q2154 636 2140.5 666.0Q2127 696 2127 733V1015Z" fill="currentColor" /></svg>