<svg viewBox="0 0 5340 1161" xmlns="http://www.w3.org/2000/svg"><path d="M163 514V620Q163 702 171.0 720.5Q179 739 198.5 759.5Q218 780 233.0 780.0Q248 780 271.0 759.0Q294 738 303 721Q309 704 310 671H241V560H440V911H343L331 843Q262 923 229.0 923.0Q196 923 124.5 857.5Q53 792 36 751Q25 725 25 620V514Q25 389 45.0 354.0Q65 319 130.5 259.0Q196 199 228 199Q283 199 354.0 263.0Q425 327 444 403L333 480Q317 426 282.0 380.0Q247 334 233 334Q208 334 176 383Q163 402 163 514ZM884 640V676H642Q642 736 657 771Q662 783 675.0 795.5Q688 808 702.0 808.0Q716 808 737.0 784.0Q758 760 770 726L873 799Q846 849 790.5 886.0Q735 923 701.0 923.0Q667 923 602.5 870.0Q538 817 524.0 787.5Q510 758 510.0 641.5Q510 525 524.0 495.5Q538 466 602.5 413.0Q667 360 697.0 360.0Q727 360 791.5 413.0Q856 466 870.0 495.5Q884 525 884 640ZM642 581H756Q753 528 745.5 514.5Q738 501 722.5 488.0Q707 475 693.5 475.0Q680 475 663.0 501.5Q646 528 642 581ZM1121 911H989V566Q989 515 976.5 486.5Q964 458 939 437L1049 360Q1085 390 1104 430Q1178 360 1208 360Q1228 360 1269.0 397.0Q1310 434 1317 478L1210 555Q1209 531 1198.5 508.0Q1188 485 1180 485Q1163 485 1121 527ZM1725 911H1593V539Q1593 522 1575.0 503.5Q1557 485 1544.5 485.0Q1532 485 1504 509V911H1372V566Q1372 515 1360.0 487.0Q1348 459 1322 438L1432 361Q1465 389 1481 418Q1546 360 1571 360Q1586 360 1620.0 382.0Q1654 404 1682 435Q1761 360 1791.5 360.0Q1822 360 1883.5 415.5Q1945 471 1945 525V718Q1945 769 1957.0 797.0Q1969 825 1995 846L1885 923Q1813 866 1813 761V539Q1813 522 1795.0 503.5Q1777 485 1765.5 485.0Q1754 485 1723 510Q1725 520 1725 525ZM2420 372V782Q2426 817 2467 844L2377 921Q2364 912 2345.0 889.0Q2326 866 2313 842Q2230 923 2197 923Q2173 923 2119.5 870.0Q2066 817 2053.0 784.0Q2040 751 2040.0 641.5Q2040 532 2053.0 499.0Q2066 466 2119.5 413.0Q2173 360 2197 360Q2232 360 2310 432L2322 372ZM2180 522Q2167 540 2167.0 641.5Q2167 743 2180 761Q2184 771 2196.5 784.5Q2209 798 2220.0 798.0Q2231 798 2252.5 784.5Q2274 771 2280.5 760.0Q2287 749 2288 643Q2288 537 2281.0 524.5Q2274 512 2252.5 498.5Q2231 485 2220.0 485.0Q2209 485 2196.5 498.0Q2184 511 2180 522ZM2679 911H2547V566Q2547 515 2535.0 487.0Q2523 459 2497 438L2607 361Q2644 391 2662 430Q2736 360 2766.5 360.0Q2797 360 2858.5 415.5Q2920 471 2920 525V718Q2920 769 2932.0 797.0Q2944 825 2970 846L2860 923Q2788 866 2788 761V539Q2788 522 2770.0 503.5Q2752 485 2736.5 485.0Q2721 485 2679 527ZM3025 372H3157V718Q3157 769 3169.0 797.0Q3181 825 3207 846L3097 923Q3025 866 3025 761ZM3093.5 163.0Q3104 163 3142.0 195.5Q3180 228 3180.0 239.5Q3180 251 3141.5 284.0Q3103 317 3092.5 317.0Q3082 317 3044.0 284.5Q3006 252 3006.0 240.5Q3006 229 3044.5 196.0Q3083 163 3093.5 163.0ZM3617 372V782Q3623 817 3664 844L3574 921Q3561 912 3542.0 889.0Q3523 866 3510 842Q3427 923 3394 923Q3370 923 3316.5 870.0Q3263 817 3250.0 784.0Q3237 751 3237.0 641.5Q3237 532 3250.0 499.0Q3263 466 3316.5 413.0Q3370 360 3394 360Q3429 360 3507 432L3519 372ZM3377 522Q3364 540 3364.0 641.5Q3364 743 3377 761Q3381 771 3393.5 784.5Q3406 798 3417.0 798.0Q3428 798 3449.5 784.5Q3471 771 3477.5 760.0Q3484 749 3485 643Q3485 537 3478.0 524.5Q3471 512 3449.5 498.5Q3428 485 3417.0 485.0Q3406 485 3393.5 498.0Q3381 511 3377 522ZM3965 751Q3954 725 3954 620V502Q3954 397 3965 371Q3982 330 4053.5 264.5Q4125 199 4161.0 199.0Q4197 199 4268.5 264.5Q4340 330 4357 371Q4368 397 4368 502V620Q4368 725 4357 751Q4340 792 4268.5 857.5Q4197 923 4161.0 923.0Q4125 923 4053.5 857.5Q3982 792 3965 751ZM4230 620V502Q4230 420 4222.0 401.5Q4214 383 4194.5 362.5Q4175 342 4161.0 342.0Q4147 342 4127.5 362.5Q4108 383 4100.0 401.5Q4092 420 4092 502V620Q4092 702 4100.0 720.5Q4108 739 4127.5 759.5Q4147 780 4161.0 780.0Q4175 780 4194.5 759.5Q4214 739 4222.0 720.5Q4230 702 4230 620ZM4590 911H4458V566Q4458 515 4446.0 487.0Q4434 459 4408 438L4518 361Q4555 391 4573 430Q4647 360 4677.5 360.0Q4708 360 4769.5 415.5Q4831 471 4831 525V718Q4831 769 4843.0 797.0Q4855 825 4881 846L4771 923Q4699 866 4699 761V539Q4699 522 4681.0 503.5Q4663 485 4647.5 485.0Q4632 485 4590 527ZM5300 640V676H5058Q5058 736 5073 771Q5078 783 5091.0 795.5Q5104 808 5118.0 808.0Q5132 808 5153.0 784.0Q5174 760 5186 726L5289 799Q5262 849 5206.5 886.0Q5151 923 5117.0 923.0Q5083 923 5018.5 870.0Q4954 817 4940.0 787.5Q4926 758 4926.0 641.5Q4926 525 4940.0 495.5Q4954 466 5018.5 413.0Q5083 360 5113.0 360.0Q5143 360 5207.5 413.0Q5272 466 5286.0 495.5Q5300 525 5300 640ZM5058 581H5172Q5169 528 5161.5 514.5Q5154 501 5138.5 488.0Q5123 475 5109.5 475.0Q5096 475 5079.0 501.5Q5062 528 5058 581Z" fill="currentColor" /></svg>