<svg viewBox="0 0 2307 2084" xmlns="http://www.w3.org/2000/svg"><path d="M393 1294H339L319 1250Q278 1303 212 1303Q110 1303 67.5 1242.5Q25 1182 25 1061Q25 941 68.0 883.0Q111 825 221 825Q305 825 340.0 858.5Q375 892 382 959L292 973Q288 922 272.5 897.0Q257 872 216 872Q174 872 156 914Q138 957 138 1059Q138 1161 155 1209Q172 1256 213 1256Q255 1256 275.5 1226.5Q296 1197 297 1123V1109H228V1055H393ZM547 901Q519 901 499.5 881.5Q480 862 480 834Q480 807 499.0 787.5Q518 768 546 768Q574 768 593.0 787.0Q612 806 612 835Q612 863 593.0 882.0Q574 901 547 901ZM490 1294V934H602V1294ZM1016 1294H940L916 1260Q873 1303 820 1303Q685 1303 685 1122Q685 925 836 925Q873 925 904 941V823L1016 809ZM852 1248Q883 1248 904 1223V996Q886 988 870 988Q796 988 796 1118Q796 1248 852 1248ZM1436 1294H1365L1336 1258Q1296 1303 1232 1303Q1114 1303 1114 1189V934H1226V1174Q1226 1210 1237.0 1226.5Q1248 1243 1264.0 1245.0Q1280 1247 1296.5 1239.0Q1313 1231 1325 1219V934H1436ZM1817 977Q1831 996 1837.0 1026.5Q1843 1057 1836.5 1090.0Q1830 1123 1805 1151Q1771 1190 1686 1190Q1647 1190 1618 1181L1598 1200Q1583 1212 1583 1223Q1583 1238 1604 1238H1740Q1796 1238 1828.0 1266.5Q1860 1295 1860 1340Q1860 1447 1678 1447Q1512 1447 1512 1355Q1512 1335 1527.5 1316.0Q1543 1297 1564 1291Q1519 1280 1519 1233Q1519 1198 1549 1170L1569 1151Q1548 1127 1540.5 1093.0Q1533 1059 1541.0 1024.0Q1549 989 1571 963Q1604 925 1686 925Q1723 925 1754 934H1866V977ZM1643 1057Q1643 1099 1652.0 1117.5Q1661 1136 1687 1136Q1713 1136 1723.0 1118.0Q1733 1100 1733 1057Q1733 1015 1723.0 997.0Q1713 979 1687 979Q1661 979 1652.0 997.0Q1643 1015 1643 1057ZM1635 1294Q1608 1319 1608 1350Q1608 1391 1678 1391Q1764 1391 1764 1344Q1764 1321 1748.5 1307.5Q1733 1294 1705 1294ZM2254 1294H2183L2154 1258Q2114 1303 2050 1303Q1932 1303 1932 1189V934H2044V1174Q2044 1210 2055.0 1226.5Q2066 1243 2082.0 1245.0Q2098 1247 2114.5 1239.0Q2131 1231 2143 1219V934H2254Z" fill="currentColor" /></svg>