<svg viewBox="0 0 3442 1194" xmlns="http://www.w3.org/2000/svg"><path d="M253 224Q214 224 185.5 255.0Q157 286 157 330V818Q157 862 176.5 888.0Q196 914 230 914Q265 914 285.5 887.5Q306 861 306 818V621Q306 568 235 568V531H443V568Q413 568 413 603V944H390L362 907Q317 954 229 954Q45 954 45 740V398Q45 294 96.0 239.0Q147 184 244 184Q282 184 298.0 178.0Q314 172 322 156H356L400 337L366 346Q347 296 331.0 270.0Q315 244 297.5 234.0Q280 224 253 224ZM483 907Q515 907 529.0 897.0Q543 887 543 864V484Q543 461 529.0 451.0Q515 441 483 441V404H713V441Q681 441 667.0 451.0Q653 461 653 484V864Q653 887 667.0 897.0Q681 907 713 907V944H483ZM761 907Q793 907 807.0 897.0Q821 887 821 864V484Q821 461 807.0 451.0Q793 441 761 441V404H997Q1089 404 1132.0 446.0Q1175 488 1175 577Q1175 620 1153.0 651.5Q1131 683 1083 707Q1167 742 1167 832Q1167 863 1179.5 885.0Q1192 907 1210 907H1216V944H1207Q1134 944 1099.5 917.0Q1065 890 1065 832Q1065 789 1043.0 757.5Q1021 726 992 726H971V689H997Q1030 689 1050.0 662.0Q1070 635 1070 591V540Q1070 496 1050.0 469.5Q1030 443 997 443H931V864Q931 887 945.0 897.0Q959 907 991 907V944H761ZM1320 863Q1313 883 1329.5 895.0Q1346 907 1380 907V944H1213V907Q1240 907 1254.0 897.0Q1268 887 1275 863L1425 400H1473L1629 865Q1638 891 1649.0 899.0Q1660 907 1691 907V944H1461V907Q1535 907 1522 866L1501 799H1341ZM1354 761H1489L1423 551ZM1888 394Q1918 394 1934.5 397.5Q1951 401 1959.5 400.0Q1968 399 1973 386H2007L2048 547L2014 556Q1989 487 1963.5 461.0Q1938 435 1897 435Q1866 435 1843.5 456.5Q1821 478 1821 509Q1821 537 1835.0 555.5Q1849 574 1885 594L1993 653Q2036 676 2059.5 715.5Q2083 755 2083 805Q2083 846 2059.5 880.0Q2036 914 1996.5 934.0Q1957 954 1908 954Q1871 954 1848.0 947.0Q1825 940 1811.5 933.0Q1798 926 1788 926Q1765 926 1758 944H1723V746H1757Q1771 825 1806.5 868.0Q1842 911 1893 911Q1916 911 1936.5 898.0Q1957 885 1970.0 865.0Q1983 845 1983 823Q1983 770 1913 731L1825 682Q1726 628 1726 542Q1726 503 1749.0 469.0Q1772 435 1809.0 414.5Q1846 394 1888 394ZM2320 394Q2350 394 2366.5 397.5Q2383 401 2391.5 400.0Q2400 399 2405 386H2439L2480 547L2446 556Q2421 487 2395.5 461.0Q2370 435 2329 435Q2298 435 2275.5 456.5Q2253 478 2253 509Q2253 537 2267.0 555.5Q2281 574 2317 594L2425 653Q2468 676 2491.5 715.5Q2515 755 2515 805Q2515 846 2491.5 880.0Q2468 914 2428.5 934.0Q2389 954 2340 954Q2303 954 2280.0 947.0Q2257 940 2243.5 933.0Q2230 926 2220 926Q2197 926 2190 944H2155V746H2189Q2203 825 2238.5 868.0Q2274 911 2325 911Q2348 911 2368.5 898.0Q2389 885 2402.0 865.0Q2415 845 2415 823Q2415 770 2345 731L2257 682Q2158 628 2158 542Q2158 503 2181.0 469.0Q2204 435 2241.0 414.5Q2278 394 2320 394ZM2781 389Q2873 389 2923.0 445.0Q2973 501 2973 603V745Q2973 959 2781 959Q2687 959 2637.0 904.0Q2587 849 2587 745V603Q2587 497 2636.5 443.0Q2686 389 2781 389ZM2781 920Q2817 920 2840.0 893.5Q2863 867 2863 825V524Q2863 482 2840.0 455.0Q2817 428 2781 428Q2746 428 2722.5 455.5Q2699 483 2699 524V825Q2699 868 2721.5 894.0Q2744 920 2781 920ZM3037 907Q3069 907 3083.0 897.0Q3097 887 3097 864V484Q3097 461 3083.0 451.0Q3069 441 3037 441V404H3267V441Q3235 441 3221.0 451.0Q3207 461 3207 484V905H3270Q3315 905 3339.0 894.5Q3363 884 3375.0 855.0Q3387 826 3393 771H3426V965H3392Q3388 953 3373.0 948.5Q3358 944 3323 944H3037Z" fill="currentColor" /></svg>