<svg viewBox="0 0 3256.0 991" xmlns="http://www.w3.org/2000/svg"><path d="M334 435H448V538Q443 704 267 704Q221 704 188.0 695.5Q155 687 133.5 666.5Q112 646 99.5 623.0Q87 600 81.0 558.5Q75 517 73.5 481.5Q72 446 72 385Q72 319 75.5 275.5Q79 232 91.0 188.5Q103 145 125.0 120.5Q147 96 185.0 81.0Q223 66 277 66Q370 66 408.5 111.5Q447 157 453 236H507V20H453V97Q403 6 277 6Q206 6 155.5 23.5Q105 41 75.0 70.5Q45 100 28.0 150.0Q11 200 5.5 253.5Q0 307 0 385Q0 443 1.5 480.5Q3 518 9.0 562.0Q15 606 26.0 633.5Q37 661 56.5 688.5Q76 716 104.5 730.5Q133 745 173.5 754.5Q214 764 267 764Q405 764 460 666L471 750H512V385H334ZM672 50H732V700H672V750H862V700H802V0H672ZM1231 764Q1295 764 1338.5 749.0Q1382 734 1404.5 705.5Q1427 677 1437.0 646.5Q1447 616 1451 573L1393 570Q1387 636 1353.0 670.5Q1319 705 1229 705Q1130 705 1096.5 653.5Q1063 602 1062 480H1460V464Q1460 411 1456.0 372.5Q1452 334 1438.0 292.0Q1424 250 1399.5 224.0Q1375 198 1331.5 181.0Q1288 164 1227.0 164.0Q1166 164 1122.0 181.0Q1078 198 1053.0 224.0Q1028 250 1014.0 292.0Q1000 334 996.0 372.5Q992 411 992 464Q992 621 1041.5 692.5Q1091 764 1231 764ZM1226 223Q1277 223 1310.5 238.0Q1344 253 1360.0 283.5Q1376 314 1382.0 346.0Q1388 378 1389 425H1062Q1063 380 1069.5 348.0Q1076 316 1092.5 285.5Q1109 255 1142.5 239.0Q1176 223 1226 223ZM1814 566Q1868 566 1907.0 554.5Q1946 543 1967.5 525.5Q1989 508 2001.5 480.0Q2014 452 2017.5 426.5Q2021 401 2021 365Q2021 271 1989 227L2056 160L2014 118L1943 189Q1893 164 1814 164Q1760 164 1721.5 175.5Q1683 187 1661.0 204.5Q1639 222 1627.0 250.0Q1615 278 1611.5 303.5Q1608 329 1608 365Q1608 481 1660 525L1617 566Q1573 610 1573 659Q1573 719 1628 742Q1570 789 1570 854Q1570 899 1586.5 927.0Q1603 955 1637.5 968.5Q1672 982 1709.0 986.5Q1746 991 1804 991Q1852 991 1881.0 989.5Q1910 988 1948.5 979.0Q1987 970 2008.0 954.0Q2029 938 2044.5 906.5Q2060 875 2060 830Q2060 765 2021.5 731.0Q1983 697 1912 697H1683Q1630 697 1630 654Q1630 621 1656 596L1704 550Q1749 566 1814 566ZM1814 513Q1729 513 1702.5 477.0Q1676 441 1676.0 365.0Q1676 289 1702.5 253.0Q1729 217 1814 217Q1900 217 1926.5 253.0Q1953 289 1953.0 365.0Q1953 441 1926.5 477.0Q1900 513 1814 513ZM1804 938Q1762 938 1735.5 935.5Q1709 933 1682.5 924.5Q1656 916 1643.5 897.5Q1631 879 1631 850Q1631 788 1677 750H1892Q1995 750 1995 831Q1995 901 1952.5 919.5Q1910 938 1804 938ZM2404 705Q2356 705 2322.5 690.5Q2289 676 2271.5 655.5Q2254 635 2244.0 599.5Q2234 564 2232.0 535.5Q2230 507 2230.0 464.0Q2230 421 2232.0 392.5Q2234 364 2244.0 328.5Q2254 293 2271.5 272.5Q2289 252 2322.5 237.5Q2356 223 2404.0 223.0Q2452 223 2485.5 237.5Q2519 252 2536.5 272.5Q2554 293 2564.0 328.5Q2574 364 2576.0 392.5Q2578 421 2578.0 464.0Q2578 507 2576.0 535.5Q2574 564 2564.0 599.5Q2554 635 2536.5 655.5Q2519 676 2485.5 690.5Q2452 705 2404 705ZM2404 764Q2450 764 2486.5 755.0Q2523 746 2548.5 731.5Q2574 717 2592.5 694.0Q2611 671 2621.5 647.0Q2632 623 2638.0 590.5Q2644 558 2646.0 529.5Q2648 501 2648.0 464.0Q2648 427 2646.0 398.5Q2644 370 2638.0 337.5Q2632 305 2621.5 281.0Q2611 257 2592.5 234.0Q2574 211 2548.5 196.5Q2523 182 2486.5 173.0Q2450 164 2404.0 164.0Q2358 164 2321.5 173.0Q2285 182 2259.5 196.5Q2234 211 2215.5 234.0Q2197 257 2186.5 281.0Q2176 305 2170.0 337.5Q2164 370 2162.0 398.5Q2160 427 2160.0 464.0Q2160 501 2162.0 529.5Q2164 558 2170.0 590.5Q2176 623 2186.5 647.0Q2197 671 2215.5 694.0Q2234 717 2259.5 731.5Q2285 746 2321.5 755.0Q2358 764 2404 764ZM3012 705Q2964 705 2930.5 690.5Q2897 676 2879.5 655.5Q2862 635 2852.0 599.5Q2842 564 2840.0 535.5Q2838 507 2838.0 464.0Q2838 421 2840.0 392.5Q2842 364 2852.0 328.5Q2862 293 2879.5 272.5Q2897 252 2930.5 237.5Q2964 223 3012.0 223.0Q3060 223 3093.5 237.5Q3127 252 3144.5 272.5Q3162 293 3172.0 328.5Q3182 364 3184.0 392.5Q3186 421 3186.0 464.0Q3186 507 3184.0 535.5Q3182 564 3172.0 599.5Q3162 635 3144.5 655.5Q3127 676 3093.5 690.5Q3060 705 3012 705ZM3012 764Q3058 764 3094.5 755.0Q3131 746 3156.5 731.5Q3182 717 3200.5 694.0Q3219 671 3229.5 647.0Q3240 623 3246.0 590.5Q3252 558 3254.0 529.5Q3256 501 3256.0 464.0Q3256 427 3254.0 398.5Q3252 370 3246.0 337.5Q3240 305 3229.5 281.0Q3219 257 3200.5 234.0Q3182 211 3156.5 196.5Q3131 182 3094.5 173.0Q3058 164 3012.0 164.0Q2966 164 2929.5 173.0Q2893 182 2867.5 196.5Q2842 211 2823.5 234.0Q2805 257 2794.5 281.0Q2784 305 2778.0 337.5Q2772 370 2770.0 398.5Q2768 427 2768.0 464.0Q2768 501 2770.0 529.5Q2772 558 2778.0 590.5Q2784 623 2794.5 647.0Q2805 671 2823.5 694.0Q2842 717 2867.5 731.5Q2893 746 2929.5 755.0Q2966 764 3012 764Z" fill="currentColor" /></svg>