<svg viewBox="0 0 3371 1200" xmlns="http://www.w3.org/2000/svg"><path d="M471 989Q338 989 240.5 941.0Q143 893 90.0 805.0Q37 717 37 598Q37 482 90.0 395.0Q143 308 238.5 259.5Q334 211 462 211Q501 211 526.5 213.5Q552 216 572.0 219.0Q592 222 616.5 224.5Q641 227 678 227L708 427H698Q680 332 617.5 278.0Q555 224 462 224Q405 224 358.0 251.0Q311 278 278 326Q245 375 226.5 444.0Q208 513 208 597Q208 682 225.5 751.5Q243 821 274 870Q306 919 350.5 946.0Q395 973 450 973Q491 973 528.5 959.0Q566 945 586 924V669Q586 633 564.0 611.0Q542 589 506 589H503V579H825V589H821Q785 589 763.0 611.0Q741 633 741 669V924Q721 944 677.5 958.5Q634 973 579.5 981.0Q525 989 471 989ZM801 975V965Q837 965 859.5 943.5Q882 922 882 885V315Q882 279 859.5 257.0Q837 235 801 235V225H903Q954 225 981 214Q1006 203 1016 187H1026V885Q1026 922 1048.5 943.5Q1071 965 1107 965V975ZM1382 989Q1300 989 1238.5 956.0Q1177 923 1143.0 863.0Q1109 803 1109 721Q1109 639 1143.0 579.0Q1177 519 1238.5 486.0Q1300 453 1382 453Q1464 453 1525.0 486.0Q1586 519 1620.0 579.0Q1654 639 1654 721Q1654 803 1620.0 863.0Q1586 923 1525.0 956.0Q1464 989 1382 989ZM1381 976Q1416 976 1441.0 941.0Q1466 906 1480.0 847.5Q1494 789 1494 720Q1494 645 1479.5 587.5Q1465 530 1439.5 497.5Q1414 465 1382 465Q1348 465 1322.5 500.0Q1297 535 1283.0 593.0Q1269 651 1269 720Q1269 796 1284.0 854.0Q1299 912 1324.5 944.0Q1350 976 1381 976ZM1979 989Q1897 989 1835.5 956.0Q1774 923 1740.0 863.0Q1706 803 1706 721Q1706 639 1740.0 579.0Q1774 519 1835.5 486.0Q1897 453 1979 453Q2061 453 2122.0 486.0Q2183 519 2217.0 579.0Q2251 639 2251 721Q2251 803 2217.0 863.0Q2183 923 2122.0 956.0Q2061 989 1979 989ZM1978 976Q2013 976 2038.0 941.0Q2063 906 2077.0 847.5Q2091 789 2091 720Q2091 645 2076.5 587.5Q2062 530 2036.5 497.5Q2011 465 1979 465Q1945 465 1919.5 500.0Q1894 535 1880.0 593.0Q1866 651 1866 720Q1866 796 1881.0 854.0Q1896 912 1921.5 944.0Q1947 976 1978 976ZM2535 989Q2467 989 2414.0 955.5Q2361 922 2331.5 862.0Q2302 802 2302 725Q2302 645 2335.0 583.5Q2368 522 2425.5 487.5Q2483 453 2555 453Q2639 453 2694.5 498.5Q2750 544 2761 622L2641 689Q2641 587 2615 527Q2589 468 2542 468Q2510 468 2486.5 494.0Q2463 520 2450.5 564.0Q2438 608 2438 662Q2438 731 2459.0 783.5Q2480 836 2518.0 865.5Q2556 895 2608 895Q2656 895 2699.5 871.0Q2743 847 2771 806L2781 809Q2764 863 2727.0 903.5Q2690 944 2640.5 966.5Q2591 989 2535 989ZM2770 975V965H2771Q2807 965 2829.0 943.0Q2851 921 2851 885V315Q2851 279 2828.5 257.0Q2806 235 2770 235V225H2872Q2923 225 2950 214Q2975 203 2985 187H2995V713L3165 570Q3206 536 3214 509Q3220 484 3201 480L3188 477V467H3337V477L3327 479Q3303 483 3277.5 499.0Q3252 515 3204 555L3135 613L3334 919Q3353 944 3367.0 954.5Q3381 965 3398 965V975H3134V965Q3159 965 3167 961Q3176 958 3176 948Q3176 939 3169 925Q3165 917 3159.5 906.5Q3154 896 3146 883L3032 700L2995 732V885Q2995 921 3017.0 943.0Q3039 965 3075 965H3076V975Z" fill="currentColor" /></svg>