<svg viewBox="0 0 7752 2030" xmlns="http://www.w3.org/2000/svg"><path d="M-2 1084Q-2 1034 12.5 982.0Q27 930 52.5 881.0Q78 832 113.5 788.0Q149 744 192.5 711.5Q236 679 285.5 660.5Q335 642 388 642Q411 642 447.5 647.0Q484 652 518.5 664.0Q553 676 577.5 695.5Q602 715 602 742Q602 744 601.5 745.5Q601 747 601 749Q600 751 600 753Q598 756 590.0 764.5Q582 773 579 775Q577 776 574 776Q571 777 568 777Q564 777 562 776Q560 776 558 775Q553 772 534.0 762.5Q515 753 493.0 742.0Q471 731 452.0 721.5Q433 712 428 710Q424 710 420 709Q417 709 414.0 708.5Q411 708 409 708Q362 708 319.0 725.0Q276 742 240.0 772.0Q204 802 175.0 841.0Q146 880 125.5 923.5Q105 967 94.5 1012.5Q84 1058 84 1101Q84 1157 102.0 1201.0Q120 1245 152.0 1274.5Q184 1304 228.5 1319.0Q273 1334 325 1334Q355 1334 399.0 1326.0Q443 1318 483.5 1300.0Q524 1282 552.0 1253.5Q580 1225 580 1183Q580 1166 575.0 1156.5Q570 1147 561.0 1142.5Q552 1138 539.0 1137.5Q526 1137 512 1137Q490 1137 474.0 1144.0Q458 1151 442.5 1160.0Q427 1169 411.5 1176.0Q396 1183 375 1183Q349 1183 334.0 1175.0Q319 1167 319 1138Q319 1110 339.5 1092.5Q360 1075 388.5 1066.0Q417 1057 448.0 1054.0Q479 1051 499 1051Q535 1051 566.0 1056.5Q597 1062 619.5 1076.5Q642 1091 654.0 1116.5Q666 1142 666 1182Q666 1244 632.0 1289.5Q598 1335 546.5 1364.0Q495 1393 435.5 1407.5Q376 1422 325 1422Q253 1422 192.5 1397.0Q132 1372 89.0 1326.5Q46 1281 22.0 1218.5Q-2 1156 -2 1084ZM750 873Q750 844 746.0 816.5Q742 789 744.0 767.5Q746 746 759.5 733.0Q773 720 809 720Q820 743 830.5 790.0Q841 837 851.0 898.0Q861 959 870.0 1030.5Q879 1102 886.5 1174.0Q894 1246 899.5 1315.5Q905 1385 908 1442Q875 1464 855.0 1445.0Q835 1426 822.0 1380.5Q809 1335 802.0 1269.5Q795 1204 788.5 1133.5Q782 1063 773.0 994.5Q764 926 750 873ZM960 1236Q960 1174 989.0 1120.5Q1018 1067 1065.5 1028.5Q1113 990 1172.5 968.0Q1232 946 1293 946Q1327 946 1353.5 968.0Q1380 990 1398.0 1021.5Q1416 1053 1425.5 1088.0Q1435 1123 1435 1149Q1435 1205 1408.0 1257.5Q1381 1310 1338.0 1350.5Q1295 1391 1241.0 1416.0Q1187 1441 1133 1441Q1085 1441 1052.0 1424.5Q1019 1408 999.0 1380.5Q979 1353 969.5 1315.5Q960 1278 960 1236ZM1045 1246Q1045 1272 1049.5 1291.5Q1054 1311 1065.5 1325.0Q1077 1339 1096.0 1346.5Q1115 1354 1143 1354Q1180 1354 1217.0 1333.5Q1254 1313 1283.5 1281.5Q1313 1250 1331.0 1212.0Q1349 1174 1349 1138Q1349 1122 1346.0 1103.0Q1343 1084 1336.0 1068.0Q1329 1052 1316.0 1041.0Q1303 1030 1283 1030Q1265 1030 1240.5 1042.0Q1216 1054 1189.5 1073.0Q1163 1092 1137.5 1116.0Q1112 1140 1091.0 1164.0Q1070 1188 1057.5 1210.0Q1045 1232 1045 1246ZM1474 1019Q1474 1010 1475.0 1000.5Q1476 991 1479.0 983.5Q1482 976 1488.5 971.0Q1495 966 1507 966Q1517 966 1529.5 981.5Q1542 997 1555.0 1020.5Q1568 1044 1580.5 1072.0Q1593 1100 1602.5 1123.5Q1612 1147 1618.0 1164.0Q1624 1181 1625 1182Q1638 1147 1654.0 1106.0Q1670 1065 1693.5 1029.5Q1717 994 1749.5 970.0Q1782 946 1829 946Q1853 946 1874.5 953.5Q1896 961 1912.5 975.5Q1929 990 1939.0 1010.0Q1949 1030 1949 1056Q1949 1078 1931.5 1087.0Q1914 1096 1892 1096H1882L1839 1053Q1837 1053 1836 1052Q1834 1052 1832.5 1051.5Q1831 1051 1829 1051Q1794 1051 1774.5 1070.5Q1755 1090 1745.0 1118.5Q1735 1147 1732.5 1178.5Q1730 1210 1730 1236Q1730 1256 1734.0 1276.5Q1738 1297 1743.0 1316.5Q1748 1336 1752.0 1356.5Q1756 1377 1756 1399Q1756 1441 1711 1441Q1686 1441 1659.0 1414.5Q1632 1388 1605.5 1347.0Q1579 1306 1555.0 1256.5Q1531 1207 1513.0 1160.0Q1495 1113 1484.5 1075.0Q1474 1037 1474 1019ZM2027 1064Q2027 1058 2027.5 1044.5Q2028 1031 2028.5 1016.0Q2029 1001 2029.5 987.0Q2030 973 2030 967Q2041 951 2058.5 941.0Q2076 931 2094 925Q2097 979 2111.0 1040.0Q2125 1101 2141.0 1162.5Q2157 1224 2169.5 1284.0Q2182 1344 2182 1396Q2182 1441 2136 1441Q2108 1441 2089.0 1418.0Q2070 1395 2058.5 1359.5Q2047 1324 2040.0 1280.5Q2033 1237 2030.5 1195.0Q2028 1153 2027.5 1118.0Q2027 1083 2027 1064ZM2041 689Q2060 697 2073.0 715.0Q2086 733 2084.5 747.5Q2083 762 2062.0 767.5Q2041 773 1992 756Q1992 729 2002.5 709.0Q2013 689 2041 689ZM2651 1310Q2613 1336 2585.5 1356.5Q2558 1377 2532.0 1391.0Q2506 1405 2476.5 1412.0Q2447 1419 2404 1419Q2311 1419 2266.0 1369.5Q2221 1320 2221 1222Q2221 1184 2231.0 1143.0Q2241 1102 2260.5 1061.5Q2280 1021 2307.0 984.5Q2334 948 2368.0 920.0Q2402 892 2440.5 875.5Q2479 859 2522 859Q2594 866 2635.0 894.5Q2676 923 2697.0 967.5Q2718 1012 2726.0 1066.5Q2734 1121 2738.5 1179.0Q2743 1237 2750.0 1295.0Q2757 1353 2779 1402Q2766 1435 2754.5 1448.5Q2743 1462 2729.0 1453.0Q2715 1444 2696.5 1409.0Q2678 1374 2651 1310ZM2306 1224Q2306 1281 2327.5 1307.5Q2349 1334 2404 1334Q2445 1334 2482.5 1319.5Q2520 1305 2548.0 1279.5Q2576 1254 2593.0 1218.0Q2610 1182 2610 1138Q2610 1120 2611.0 1087.5Q2612 1055 2607.0 1023.0Q2602 991 2588.0 967.5Q2574 944 2546 944Q2494 944 2450.0 970.5Q2406 997 2374.0 1038.0Q2342 1079 2324.0 1128.5Q2306 1178 2306 1224ZM3281 818Q3281 813 3281.5 800.5Q3282 788 3282.0 774.5Q3282 761 3282.5 749.0Q3283 737 3283 733Q3308 706 3324.5 701.0Q3341 696 3351.0 706.5Q3361 717 3365.5 740.0Q3370 763 3372.0 792.0Q3374 821 3374.0 853.0Q3374 885 3375.0 912.5Q3376 940 3379.0 961.0Q3382 982 3390 989H3733Q3754 989 3763.0 976.0Q3772 963 3773.5 942.0Q3775 921 3772.0 894.0Q3769 867 3766.5 838.5Q3764 810 3764.5 782.5Q3765 755 3773.5 734.0Q3782 713 3800.0 700.0Q3818 687 3853 687Q3866 706 3869.0 728.5Q3872 751 3870.5 775.0Q3869 799 3865.5 822.5Q3862 846 3862 868Q3862 927 3869.5 986.0Q3877 1045 3885.5 1104.0Q3894 1163 3901.5 1221.5Q3909 1280 3909 1337Q3911 1399 3901.0 1425.5Q3891 1452 3876.0 1449.5Q3861 1447 3842.5 1419.0Q3824 1391 3808.5 1344.0Q3793 1297 3783.5 1233.5Q3774 1170 3776 1096H3415Q3422 1165 3433.5 1226.0Q3445 1287 3451.5 1333.5Q3458 1380 3456.5 1407.5Q3455 1435 3436 1436Q3407 1436 3387.0 1416.5Q3367 1397 3352.5 1363.0Q3338 1329 3329.0 1283.5Q3320 1238 3314.0 1187.5Q3308 1137 3304.5 1084.0Q3301 1031 3298.0 982.0Q3295 933 3291.0 890.5Q3287 848 3281 818ZM4397 1310Q4359 1336 4331.5 1356.5Q4304 1377 4278.0 1391.0Q4252 1405 4222.5 1412.0Q4193 1419 4150 1419Q4057 1419 4012.0 1369.5Q3967 1320 3967 1222Q3967 1184 3977.0 1143.0Q3987 1102 4006.5 1061.5Q4026 1021 4053.0 984.5Q4080 948 4114.0 920.0Q4148 892 4186.5 875.5Q4225 859 4268 859Q4340 866 4381.0 894.5Q4422 923 4443.0 967.5Q4464 1012 4472.0 1066.5Q4480 1121 4484.5 1179.0Q4489 1237 4496.0 1295.0Q4503 1353 4525 1402Q4512 1435 4500.5 1448.5Q4489 1462 4475.0 1453.0Q4461 1444 4442.5 1409.0Q4424 1374 4397 1310ZM4052 1224Q4052 1281 4073.5 1307.5Q4095 1334 4150 1334Q4191 1334 4228.5 1319.5Q4266 1305 4294.0 1279.5Q4322 1254 4339.0 1218.0Q4356 1182 4356 1138Q4356 1120 4357.0 1087.5Q4358 1055 4353.0 1023.0Q4348 991 4334.0 967.5Q4320 944 4292 944Q4240 944 4196.0 970.5Q4152 997 4120.0 1038.0Q4088 1079 4070.0 1128.5Q4052 1178 4052 1224ZM4612 873Q4612 844 4608.0 816.5Q4604 789 4606.0 767.5Q4608 746 4621.5 733.0Q4635 720 4671 720Q4682 743 4692.5 790.0Q4703 837 4713.0 898.0Q4723 959 4732.0 1030.5Q4741 1102 4748.5 1174.0Q4756 1246 4761.5 1315.5Q4767 1385 4770 1442Q4737 1464 4717.0 1445.0Q4697 1426 4684.0 1380.5Q4671 1335 4664.0 1269.5Q4657 1204 4650.5 1133.5Q4644 1063 4635.0 994.5Q4626 926 4612 873ZM4846 873Q4846 844 4842.0 816.5Q4838 789 4840.0 767.5Q4842 746 4855.5 733.0Q4869 720 4905 720Q4916 743 4926.5 790.0Q4937 837 4947.0 898.0Q4957 959 4966.0 1030.5Q4975 1102 4982.5 1174.0Q4990 1246 4995.5 1315.5Q5001 1385 5004 1442Q4971 1464 4951.0 1445.0Q4931 1426 4918.0 1380.5Q4905 1335 4898.0 1269.5Q4891 1204 4884.5 1133.5Q4878 1063 4869.0 994.5Q4860 926 4846 873ZM5056 1161Q5056 1107 5069.0 1053.0Q5082 999 5110.5 956.0Q5139 913 5184.5 886.0Q5230 859 5295 859Q5332 859 5360.0 872.5Q5388 886 5407.0 908.0Q5426 930 5435.5 959.5Q5445 989 5445 1021Q5445 1072 5421.5 1120.0Q5398 1168 5358.5 1204.5Q5319 1241 5268.0 1259.5Q5217 1278 5164 1268Q5165 1297 5183.5 1314.5Q5202 1332 5228.0 1341.0Q5254 1350 5282.0 1352.5Q5310 1355 5332 1355Q5355 1355 5375.0 1351.0Q5395 1347 5415.0 1342.0Q5435 1337 5455.5 1333.0Q5476 1329 5499 1329Q5508 1329 5517.0 1330.0Q5526 1331 5534.0 1334.5Q5542 1338 5547.0 1345.5Q5552 1353 5552 1364Q5552 1383 5538.0 1395.5Q5524 1408 5502.5 1417.0Q5481 1426 5455.0 1430.5Q5429 1435 5404.5 1437.5Q5380 1440 5359.5 1440.5Q5339 1441 5329 1441Q5265 1441 5214.0 1420.5Q5163 1400 5128.0 1363.5Q5093 1327 5074.5 1275.5Q5056 1224 5056 1161ZM5162 1096Q5162 1131 5171.5 1147.0Q5181 1163 5218 1163Q5244 1163 5269.0 1153.5Q5294 1144 5314.5 1127.0Q5335 1110 5347.0 1087.0Q5359 1064 5359 1037Q5359 1022 5356.5 1006.0Q5354 990 5346.0 976.5Q5338 963 5325.5 954.5Q5313 946 5293 946Q5263 946 5238.5 959.5Q5214 973 5197.0 994.5Q5180 1016 5171.0 1042.5Q5162 1069 5162 1096ZM5638 873Q5638 844 5634.0 816.5Q5630 789 5632.0 767.5Q5634 746 5647.5 733.0Q5661 720 5697 720Q5708 743 5718.5 790.0Q5729 837 5739.0 898.0Q5749 959 5758.0 1030.5Q5767 1102 5774.5 1174.0Q5782 1246 5787.5 1315.5Q5793 1385 5796 1442Q5763 1464 5743.0 1445.0Q5723 1426 5710.0 1380.5Q5697 1335 5690.0 1269.5Q5683 1204 5676.5 1133.5Q5670 1063 5661.0 994.5Q5652 926 5638 873ZM5848 1031Q5848 1025 5848.5 1009.5Q5849 994 5849.0 977.0Q5849 960 5849.5 945.5Q5850 931 5850 925Q5857 913 5866.5 901.5Q5876 890 5886.5 885.5Q5897 881 5909.5 884.0Q5922 887 5935 904V912V925Q5934 930 5931.0 948.5Q5928 967 5924.0 989.0Q5920 1011 5916.5 1029.5Q5913 1048 5913 1053Q5913 1072 5917.0 1100.5Q5921 1129 5928.5 1160.0Q5936 1191 5947.5 1222.0Q5959 1253 5975.0 1277.5Q5991 1302 6010.5 1318.0Q6030 1334 6056 1334Q6088 1334 6112.5 1317.0Q6137 1300 6155.0 1273.0Q6173 1246 6184.5 1212.0Q6196 1178 6203.0 1143.5Q6210 1109 6213.0 1077.0Q6216 1045 6216 1021Q6216 997 6212.5 975.5Q6209 954 6204.0 933.0Q6199 912 6195.5 891.5Q6192 871 6192 850Q6192 831 6205.5 823.0Q6219 815 6236 815Q6257 815 6270.0 827.5Q6283 840 6290.5 859.0Q6298 878 6300.5 902.5Q6303 927 6303.0 951.0Q6303 975 6302.0 996.5Q6301 1018 6301 1031Q6301 1065 6296.0 1108.0Q6291 1151 6278.5 1196.5Q6266 1242 6247.5 1286.0Q6229 1330 6202.5 1364.5Q6176 1399 6141.5 1420.0Q6107 1441 6064 1441Q6019 1441 5985.0 1419.5Q5951 1398 5927.5 1362.5Q5904 1327 5888.0 1282.0Q5872 1237 5863.5 1192.0Q5855 1147 5851.5 1104.5Q5848 1062 5848 1031ZM6125 1754Q6154 1754 6178.0 1769.0Q6202 1784 6228.5 1801.5Q6255 1819 6286.0 1834.0Q6317 1849 6358 1849Q6399 1849 6438.0 1838.5Q6477 1828 6508.0 1806.5Q6539 1785 6558.0 1750.5Q6577 1716 6577 1669Q6577 1591 6564.5 1507.0Q6552 1423 6532.5 1339.5Q6513 1256 6490.5 1177.0Q6468 1098 6449 1031Q6449 1030 6448.0 1026.0Q6447 1022 6447 1021Q6447 1001 6461.0 993.5Q6475 986 6491 986Q6495 986 6503.0 987.0Q6511 988 6513 988Q6544 1066 6571.5 1147.5Q6599 1229 6620.0 1313.0Q6641 1397 6653.0 1481.5Q6665 1566 6665 1649Q6665 1714 6642.5 1767.0Q6620 1820 6580.0 1857.0Q6540 1894 6484.5 1914.0Q6429 1934 6364 1934Q6321 1934 6278.5 1924.5Q6236 1915 6201.5 1894.0Q6167 1873 6146.0 1838.5Q6125 1804 6125 1754ZM6360 742Q6360 739 6360.0 730.0Q6360 721 6362.0 711.5Q6364 702 6369.0 695.0Q6374 688 6384 688Q6401 688 6410.0 692.5Q6419 697 6423.0 703.5Q6427 710 6428.0 719.5Q6429 729 6429 741Q6429 749 6428.0 759.0Q6427 769 6424.0 778.0Q6421 787 6414.0 792.5Q6407 798 6395 798Q6383 798 6376.0 792.5Q6369 787 6365.5 779.0Q6362 771 6361.0 761.0Q6360 751 6360 742ZM7093 1310Q7055 1336 7027.5 1356.5Q7000 1377 6974.0 1391.0Q6948 1405 6918.5 1412.0Q6889 1419 6846 1419Q6753 1419 6708.0 1369.5Q6663 1320 6663 1222Q6663 1184 6673.0 1143.0Q6683 1102 6702.5 1061.5Q6722 1021 6749.0 984.5Q6776 948 6810.0 920.0Q6844 892 6882.5 875.5Q6921 859 6964 859Q7036 866 7077.0 894.5Q7118 923 7139.0 967.5Q7160 1012 7168.0 1066.5Q7176 1121 7180.5 1179.0Q7185 1237 7192.0 1295.0Q7199 1353 7221 1402Q7208 1435 7196.5 1448.5Q7185 1462 7171.0 1453.0Q7157 1444 7138.5 1409.0Q7120 1374 7093 1310ZM6748 1224Q6748 1281 6769.5 1307.5Q6791 1334 6846 1334Q6887 1334 6924.5 1319.5Q6962 1305 6990.0 1279.5Q7018 1254 7035.0 1218.0Q7052 1182 7052 1138Q7052 1120 7053.0 1087.5Q7054 1055 7049.0 1023.0Q7044 991 7030.0 967.5Q7016 944 6988 944Q6936 944 6892.0 970.5Q6848 997 6816.0 1038.0Q6784 1079 6766.0 1128.5Q6748 1178 6748 1224ZM7313 789Q7313 778 7315.5 761.5Q7318 745 7324.5 730.0Q7331 715 7341.0 704.5Q7351 694 7367 694Q7368 694 7372.0 695.0Q7376 696 7377 696Q7394 758 7397.0 819.0Q7400 880 7395.0 937.5Q7390 995 7380.0 1048.5Q7370 1102 7363.5 1147.0Q7357 1192 7355.5 1228.0Q7354 1264 7366 1289Q7364 1273 7363.5 1250.5Q7363 1228 7367.5 1204.0Q7372 1180 7382.5 1156.0Q7393 1132 7413.0 1113.0Q7433 1094 7464.5 1083.0Q7496 1072 7543 1072Q7592 1072 7627.5 1089.0Q7663 1106 7686.0 1135.5Q7709 1165 7720.5 1204.5Q7732 1244 7732 1289Q7732 1310 7731.5 1336.5Q7731 1363 7724.5 1385.5Q7718 1408 7701.5 1423.5Q7685 1439 7653 1439Q7653 1423 7655.0 1395.5Q7657 1368 7657.5 1337.0Q7658 1306 7655.5 1274.0Q7653 1242 7642.0 1216.5Q7631 1191 7611.5 1174.5Q7592 1158 7558 1158Q7546 1158 7528.5 1159.5Q7511 1161 7493.0 1169.0Q7475 1177 7458.0 1193.5Q7441 1210 7431.0 1238.5Q7421 1267 7419.5 1310.5Q7418 1354 7430 1417Q7423 1435 7412.5 1438.0Q7402 1441 7386 1441Q7354 1441 7333.5 1418.5Q7313 1396 7302.0 1358.0Q7291 1320 7287.5 1270.0Q7284 1220 7285.0 1165.5Q7286 1111 7290.5 1054.5Q7295 998 7299.5 947.5Q7304 897 7308.5 855.5Q7313 814 7313 789Z" fill="currentColor" /></svg>