<svg viewBox="0 0 16483 2560" xmlns="http://www.w3.org/2000/svg"><path d="M90 1231Q90 1101 127.0 992.0Q164 883 230.0 796.0Q296 709 387.5 644.0Q479 579 588.5 535.0Q698 491 821.0 469.5Q944 448 1074 448Q1152 448 1230.5 458.0Q1309 468 1383.0 486.0Q1457 504 1524.5 529.0Q1592 554 1649 584L1725 486H1949V974H1695Q1653 899 1593.5 841.0Q1534 783 1462.5 743.0Q1391 703 1310.5 682.5Q1230 662 1145 662Q1052 662 968.0 694.0Q884 726 821.0 792.0Q758 858 721.0 959.5Q684 1061 684 1200Q684 1333 724.5 1434.5Q765 1536 833.0 1604.5Q901 1673 991.5 1708.0Q1082 1743 1182 1743Q1270 1743 1334.0 1730.5Q1398 1718 1450 1686V1436L1159 1156H1962V1920H1725L1670 1820Q1611 1858 1544.0 1884.5Q1477 1911 1404.0 1927.5Q1331 1944 1254.0 1951.5Q1177 1959 1098 1959Q963 1959 835.5 1943.0Q708 1927 596.0 1891.5Q484 1856 391.0 1799.5Q298 1743 231.0 1662.5Q164 1582 127.0 1475.0Q90 1368 90 1231ZM2254 1367Q2254 1216 2315.5 1104.5Q2377 993 2487.0 919.5Q2597 846 2748.0 810.0Q2899 774 3078 774Q3257 774 3408.0 810.0Q3559 846 3669.0 919.5Q3779 993 3840.5 1104.5Q3902 1216 3902 1367Q3902 1524 3840.5 1636.0Q3779 1748 3669.0 1820.0Q3559 1892 3408.0 1925.5Q3257 1959 3078 1959Q2899 1959 2748.0 1925.5Q2597 1892 2487.0 1820.0Q2377 1748 2315.5 1636.0Q2254 1524 2254 1367ZM2780 1367Q2780 1459 2803.5 1534.0Q2827 1609 2867.5 1661.5Q2908 1714 2962.5 1742.5Q3017 1771 3078 1771Q3139 1771 3193.5 1742.5Q3248 1714 3288.5 1661.5Q3329 1609 3352.5 1534.0Q3376 1459 3376 1367Q3376 1274 3352.5 1198.0Q3329 1122 3288.5 1068.0Q3248 1014 3193.5 984.0Q3139 954 3078 954Q3017 954 2962.5 984.0Q2908 1014 2867.5 1068.0Q2827 1122 2803.5 1198.0Q2780 1274 2780 1367ZM4313 1676V590L4051 366L4790 336V998Q4861 884 4976.5 829.0Q5092 774 5238 774Q5393 774 5511.5 821.5Q5630 869 5710.0 951.5Q5790 1034 5831.0 1144.0Q5872 1254 5872 1380Q5872 1492 5836.0 1596.5Q5800 1701 5724.0 1781.5Q5648 1862 5529.5 1910.5Q5411 1959 5245 1959Q5093 1959 4977.0 1906.5Q4861 1854 4790 1743V1920H4042ZM4790 1367Q4790 1457 4814.5 1520.0Q4839 1583 4878.5 1622.5Q4918 1662 4967.5 1680.0Q5017 1698 5068 1698Q5129 1698 5180.0 1677.0Q5231 1656 5268.0 1614.5Q5305 1573 5325.5 1511.0Q5346 1449 5346 1367Q5346 1285 5325.5 1221.5Q5305 1158 5268.0 1114.5Q5231 1071 5180.0 1049.0Q5129 1027 5068 1027Q5014 1027 4964.0 1045.5Q4914 1064 4875.5 1104.5Q4837 1145 4813.5 1209.5Q4790 1274 4790 1367ZM6283 1676V590L6021 366L6750 336V1676L7021 1920H6012ZM7563 685Q7509 685 7461.5 664.5Q7414 644 7379.0 609.0Q7344 574 7323.5 526.5Q7303 479 7303 425Q7303 371 7323.5 323.5Q7344 276 7379.0 240.5Q7414 205 7461.5 184.5Q7509 164 7563 164Q7617 164 7664.5 184.5Q7712 205 7747.5 240.5Q7783 276 7803.5 323.5Q7824 371 7824 425Q7824 479 7803.5 526.5Q7783 574 7747.5 609.0Q7712 644 7664.5 664.5Q7617 685 7563 685ZM7352 1676V1067L7090 843L7819 813V1676L8090 1920H7081ZM8407 1676V1067L8145 843L8884 813V1030Q8956 907 9073.5 840.5Q9191 774 9343 774Q9459 774 9549.5 809.5Q9640 845 9701.5 915.5Q9763 986 9795.0 1091.5Q9827 1197 9827 1336V1676L10098 1920H9166L9350 1676V1357Q9350 1293 9338.0 1236.0Q9326 1179 9300.5 1136.0Q9275 1093 9235.0 1068.0Q9195 1043 9139 1043Q9083 1043 9036.0 1067.5Q8989 1092 8955.0 1138.5Q8921 1185 8902.5 1252.5Q8884 1320 8884 1407V1676L9068 1920H8136ZM10801 1203Q10801 1065 10841.5 955.0Q10882 845 10951.0 761.0Q11020 677 11113.0 617.5Q11206 558 11310.5 520.5Q11415 483 11526.0 465.5Q11637 448 11743 448Q11859 448 11974.5 465.5Q12090 483 12194.5 520.5Q12299 558 12389.0 617.5Q12479 677 12545.5 761.0Q12612 845 12649.5 955.0Q12687 1065 12687 1203Q12687 1339 12648.0 1448.0Q12609 1557 12541.0 1641.0Q12473 1725 12381.5 1785.0Q12290 1845 12185.5 1884.0Q12081 1923 11967.5 1941.0Q11854 1959 11743 1959Q11632 1959 11519.0 1942.0Q11406 1925 11301.5 1888.0Q11197 1851 11105.5 1792.0Q11014 1733 10946.5 1649.0Q10879 1565 10840.0 1454.5Q10801 1344 10801 1203ZM11389 1203Q11389 1321 11415.0 1421.5Q11441 1522 11488.0 1596.0Q11535 1670 11600.0 1712.0Q11665 1754 11743 1754Q11821 1754 11886.0 1711.0Q11951 1668 11998.5 1594.0Q12046 1520 12072.5 1419.5Q12099 1319 12099 1203Q12099 1086 12074.0 983.5Q12049 881 12002.5 805.5Q11956 730 11890.0 686.5Q11824 643 11743 643Q11665 643 11600.0 686.5Q11535 730 11488.0 805.5Q11441 881 11415.0 983.5Q11389 1086 11389 1203ZM13088 1676V1067L12826 843L13565 813V1030Q13637 907 13754.5 840.5Q13872 774 14024 774Q14140 774 14230.5 809.5Q14321 845 14382.5 915.5Q14444 986 14476.0 1091.5Q14508 1197 14508 1336V1676L14779 1920H13847L14031 1676V1357Q14031 1293 14019.0 1236.0Q14007 1179 13981.5 1136.0Q13956 1093 13916.0 1068.0Q13876 1043 13820 1043Q13764 1043 13717.0 1067.5Q13670 1092 13636.0 1138.5Q13602 1185 13583.5 1252.5Q13565 1320 13565 1407V1676L13749 1920H12817ZM14874 1383Q14874 1261 14909.5 1168.0Q14945 1075 15005.5 1007.5Q15066 940 15146.5 895.0Q15227 850 15318.0 823.0Q15409 796 15505.5 785.0Q15602 774 15693 774Q15838 774 15963.5 806.0Q16089 838 16181.0 909.0Q16273 980 16325.5 1095.5Q16378 1211 16378 1377H15401Q15405 1481 15436.5 1548.5Q15468 1616 15518.0 1655.5Q15568 1695 15632.0 1711.0Q15696 1727 15764 1727Q15825 1727 15896.0 1720.0Q15967 1713 16038.0 1693.5Q16109 1674 16174.0 1640.0Q16239 1606 16287 1551L16389 1631Q16364 1692 16319.0 1740.0Q16274 1788 16216.0 1824.5Q16158 1861 16090.5 1886.5Q16023 1912 15952.0 1928.0Q15881 1944 15810.0 1951.5Q15739 1959 15674 1959Q15491 1959 15343.5 1921.0Q15196 1883 15091.5 1809.5Q14987 1736 14930.5 1628.5Q14874 1521 14874 1383ZM15894 1221Q15894 1147 15880.5 1096.5Q15867 1046 15840.0 1015.0Q15813 984 15772.5 970.5Q15732 957 15678 957Q15564 957 15497.0 1026.0Q15430 1095 15409 1221Z" fill="currentColor" /></svg>