<svg viewBox="0 0 4441 634" xmlns="http://www.w3.org/2000/svg"><path d="M183 634Q112 634 72.0 614.0Q32 594 16.0 554.0Q0 514 0 455V232Q0 136 43.0 90.5Q86 45 183 45H484Q553 45 589.5 52.5Q626 60 626 68L606 151Q589 148 505.5 144.5Q422 141 263 141H212Q132 141 132 212V467Q132 501 149.5 519.5Q167 538 212 538H253Q349 538 415.0 536.5Q481 535 524 534V398L464 399L333 409V311H655V592L665 613Q665 621 623.0 627.5Q581 634 481 634ZM907 634Q840 634 807.5 607.0Q775 580 775 519V314Q775 299 777.5 277.5Q780 256 791.5 235.0Q803 214 830.5 200.0Q858 186 907 186H1183Q1233 186 1260.0 200.0Q1287 214 1298.5 235.0Q1310 256 1312.5 277.5Q1315 299 1315 314V506Q1315 524 1312.5 546.0Q1310 568 1298.0 588.0Q1286 608 1259.0 621.0Q1232 634 1183 634ZM945 548H1145Q1194 548 1194 508V312Q1194 272 1145 272H945Q897 272 897 312V508Q897 548 945 548ZM1435 634V80L1425 0H1557V634ZM1799 634Q1749 634 1722.0 621.0Q1695 608 1683.5 588.0Q1672 568 1669.5 546.0Q1667 524 1667 506V314Q1667 299 1669.5 277.5Q1672 256 1683.5 235.0Q1695 214 1722.5 200.0Q1750 186 1799 186H1850Q1942 186 1998.5 189.5Q2055 193 2085 197V0H2207V634H2125L2086 614Q2044 621 1985.0 627.5Q1926 634 1849 634ZM1837 548H2054Q2075 548 2080.0 543.0Q2085 538 2085 518V279Q2051 277 1999.0 274.5Q1947 272 1888 272H1837Q1789 272 1789 312V508Q1789 548 1837 548ZM2337 634V186H2419L2444 198Q2473 193 2515.0 189.5Q2557 186 2615 186H2665Q2694 186 2721.0 193.5Q2748 201 2761 215Q2787 202 2833.0 194.0Q2879 186 2953 186H3003Q3053 186 3080.0 200.0Q3107 214 3118.5 235.0Q3130 256 3132.5 277.5Q3135 299 3135 314V634H3013V312Q3013 272 2965 272H2825Q2809 272 2803.0 276.0Q2797 280 2797 294V634H2675V312Q2675 272 2627 272H2489Q2470 272 2464.5 275.5Q2459 279 2459 294V634ZM3379 634Q3303 634 3269.0 598.5Q3235 563 3235 501Q3235 436 3270.5 401.0Q3306 366 3379 366H3430Q3505 366 3565.0 370.0Q3625 374 3664 378V312Q3664 303 3662.0 293.5Q3660 284 3650.0 278.0Q3640 272 3616 272H3566Q3457 272 3384.0 275.5Q3311 279 3285 282L3274 206Q3274 192 3350.0 189.0Q3426 186 3604 186H3654Q3704 186 3731.0 200.0Q3758 214 3769.5 235.0Q3781 256 3783.5 277.5Q3786 299 3786 314V634H3704L3665 614Q3623 621 3564.0 627.5Q3505 634 3429 634ZM3405 548H3634Q3656 548 3660.0 544.0Q3664 540 3664 519V442H3405Q3378 442 3367.5 455.0Q3357 468 3357 496Q3357 524 3369.0 536.0Q3381 548 3405 548ZM3901 634V186H3983L4023 206Q4065 198 4124.0 192.0Q4183 186 4259 186H4309Q4359 186 4386.0 200.0Q4413 214 4424.5 235.0Q4436 256 4438.5 277.5Q4441 299 4441 314V634H4319V312Q4319 272 4271 272H4053Q4034 272 4028.5 275.5Q4023 279 4023 294V634Z" fill="currentColor" /></svg>