<svg viewBox="0 0 5055 1200" xmlns="http://www.w3.org/2000/svg"><path d="M365 990Q283 990 213.5 953.0Q144 916 102.0 837.5Q60 759 60 635V615Q60 525 84.0 460.0Q108 395 150.5 353.0Q193 311 248.0 290.5Q303 270 365 270Q416 270 460.0 284.5Q504 299 539.0 326.0Q574 353 598.5 392.0Q623 431 635 480H535Q521 436 494.5 408.0Q468 380 434.5 367.0Q401 354 365 354Q311 354 264.0 379.0Q217 404 188.5 461.5Q160 519 160 615V635Q160 711 178.0 763.0Q196 815 225.5 846.5Q255 878 291.5 892.0Q328 906 365 906Q421 906 462.5 885.5Q504 865 529.5 820.5Q555 776 560 705H385V625H650V655Q650 736 630.5 798.5Q611 861 573.5 903.5Q536 946 483.5 968.0Q431 990 365 990ZM1005 990Q938 990 879.5 960.5Q821 931 785.5 871.0Q750 811 750 720V700Q750 614 785.5 556.0Q821 498 879.5 469.0Q938 440 1005 440Q1073 440 1131.0 469.0Q1189 498 1224.5 556.0Q1260 614 1260 700V720Q1260 811 1224.5 871.0Q1189 931 1131.0 960.5Q1073 990 1005 990ZM1005 910Q1046 910 1083.5 891.5Q1121 873 1145.5 831.0Q1170 789 1170 720V700Q1170 636 1145.5 596.5Q1121 557 1083.5 538.5Q1046 520 1005 520Q965 520 927.0 538.5Q889 557 864.5 596.5Q840 636 840 700V720Q840 789 864.5 831.0Q889 873 927.0 891.5Q965 910 1005 910ZM1545 985Q1490 985 1455.5 967.5Q1421 950 1405.5 912.5Q1390 875 1390 815V280H1478V815Q1478 867 1495.0 886.0Q1512 905 1555 905Q1566 905 1574.0 904.5Q1582 904 1590 903V981Q1585 982 1576.5 983.0Q1568 984 1559.5 984.5Q1551 985 1545 985ZM1915 990Q1848 990 1789.5 960.5Q1731 931 1695.5 871.0Q1660 811 1660 720V700Q1660 614 1695.5 556.0Q1731 498 1789.5 469.0Q1848 440 1915 440Q1983 440 2041.0 469.0Q2099 498 2134.5 556.0Q2170 614 2170 700V720Q2170 811 2134.5 871.0Q2099 931 2041.0 960.5Q1983 990 1915 990ZM1915 910Q1956 910 1993.5 891.5Q2031 873 2055.5 831.0Q2080 789 2080 720V700Q2080 636 2055.5 596.5Q2031 557 1993.5 538.5Q1956 520 1915 520Q1875 520 1837.0 538.5Q1799 557 1774.5 596.5Q1750 636 1750 700V720Q1750 789 1774.5 831.0Q1799 873 1837.0 891.5Q1875 910 1915 910ZM2480 990Q2427 990 2388.0 977.5Q2349 965 2323.0 944.0Q2297 923 2281.5 894.5Q2266 866 2260 835H2348Q2355 867 2385.5 890.5Q2416 914 2480 914Q2554 914 2583.0 890.5Q2612 867 2612 835Q2612 813 2599.5 796.5Q2587 780 2555.5 768.0Q2524 756 2466 748Q2422 742 2387.0 730.5Q2352 719 2327.0 700.0Q2302 681 2288.5 654.0Q2275 627 2275 590Q2275 550 2298.0 516.0Q2321 482 2367.0 461.0Q2413 440 2480 440Q2543 440 2584.5 461.5Q2626 483 2649.0 518.0Q2672 553 2680 595H2592Q2584 560 2558.0 538.0Q2532 516 2480 516Q2415 516 2389.0 537.5Q2363 559 2363 590Q2363 626 2391.5 644.0Q2420 662 2496 672Q2545 678 2583.0 689.5Q2621 701 2647.0 720.5Q2673 740 2686.5 768.0Q2700 796 2700 835Q2700 877 2676.0 912.0Q2652 947 2603.5 968.5Q2555 990 2480 990ZM3258 980V362H3015V280H3595V362H3352V980ZM3825 990Q3758 990 3699.5 961.0Q3641 932 3605.5 872.0Q3570 812 3570 720V700Q3570 612 3604.0 554.5Q3638 497 3694.0 468.5Q3750 440 3815 440Q3932 440 3996.0 504.0Q4060 568 4060 685V741H3658Q3658 803 3683.5 840.0Q3709 877 3747.5 893.5Q3786 910 3825 910Q3885 910 3917.5 890.0Q3950 870 3964 835H4050Q4034 911 3971.5 950.5Q3909 990 3825 990ZM3820 520Q3779 520 3742.0 535.5Q3705 551 3681.5 584.0Q3658 617 3658 669H3977Q3976 614 3954.5 581.5Q3933 549 3898.0 534.5Q3863 520 3820 520ZM4110 980 4309 711 4120 450H4222L4362 643L4502 450H4600L4411 706L4610 980H4506L4358 773L4210 980ZM4930 985Q4874 985 4838.5 968.0Q4803 951 4786.5 916.5Q4770 882 4770 830V528H4690V450H4770V330H4858V450H5000V528H4858V820Q4858 865 4877.0 885.0Q4896 905 4950 905Q4980 905 5010 902V980Q4991 982 4972.0 983.5Q4953 985 4930 985Z" fill="currentColor" /></svg>