<svg viewBox="0 0 8880 968" xmlns="http://www.w3.org/2000/svg"><path d="M359 765Q214 765 107.0 651.5Q0 538 0 378Q0 224 100.5 120.5Q201 17 344 17Q386 17 426.0 27.0Q466 37 489.5 49.0Q513 61 531.5 72.5Q550 84 552 84H556Q567 84 582.5 64.5Q598 45 601 44Q606 41 614 41Q628 41 628 55V83Q628 112 629.0 142.0Q630 172 632.0 194.0Q634 216 635.5 233.5Q637 251 638.0 261.0Q639 271 639 272Q639 288 610 288Q596 288 593.0 278.5Q590 269 582.5 241.5Q575 214 554 185Q515 132 456.0 99.0Q397 66 332 66Q291 66 252.5 82.0Q214 98 179.5 131.0Q145 164 124.0 224.5Q103 285 103 364Q103 460 129.0 531.0Q155 602 197.5 639.0Q240 676 283.0 693.0Q326 710 370 710Q428 710 479.0 686.0Q530 662 539 644Q542 638 542 626V511Q542 491 529.0 485.0Q516 479 475 476Q457 475 446 474Q417 472 417 450Q417 427 440 427Q443 427 456.5 428.0Q470 429 493.5 430.0Q517 431 545 431H547Q576 431 601.0 430.0Q626 429 640.0 428.0Q654 427 657 427Q670 427 676.5 433.5Q683 440 683 448Q683 465 657.5 474.0Q632 483 629 495Q628 498 628 506V679Q628 699 614 699Q608 699 597.5 688.5Q587 678 583 678Q577 678 569 686Q479 765 359 765ZM713 531Q713 428 778.5 363.0Q844 298 934 298Q1026 298 1087.0 363.5Q1148 429 1148 531Q1148 636 1084.5 697.5Q1021 759 930 759Q834 759 773.5 693.0Q713 627 713 531ZM1078 535Q1078 455 1032.5 400.5Q987 346 927 346Q877 346 834.5 390.0Q792 434 792 526Q792 606 831.0 657.5Q870 709 933.0 709.0Q996 709 1037.0 657.5Q1078 606 1078 535ZM1537 706Q1536 706 1528.5 711.5Q1521 717 1508.5 724.5Q1496 732 1480.0 739.5Q1464 747 1441.0 752.5Q1418 758 1394 758Q1331 758 1289.0 719.0Q1247 680 1238 610Q1235 580 1235 547Q1235 528 1235.5 458.5Q1236 389 1236 383Q1236 364 1208 354Q1203 352 1192.5 349.0Q1182 346 1179.0 343.0Q1176 340 1176 332V329Q1176 316 1187 315Q1289 309 1294 309Q1304 309 1304 321V531Q1304 598 1323 637Q1337 664 1365.5 684.5Q1394 705 1431 705Q1481 705 1518 668Q1520 665 1523.5 661.5Q1527 658 1528.0 656.5Q1529 655 1531.0 653.0Q1533 651 1533.5 649.5Q1534 648 1535.0 646.0Q1536 644 1536.0 642.5Q1536 641 1536 638V386Q1536 364 1516 358Q1511 356 1468 349Q1453 346 1453 332Q1453 317 1467 315Q1500 314 1526.5 313.0Q1553 312 1563.5 311.5Q1574 311 1581.5 311.0Q1589 311 1593 311Q1608 311 1608 331V652Q1608 655 1608.5 656.5Q1609 658 1610.5 659.5Q1612 661 1614.0 662.0Q1616 663 1620.0 665.0Q1624 667 1629.0 669.0Q1634 671 1642.0 675.0Q1650 679 1659.0 683.0Q1668 687 1668 695Q1668 706 1663.5 710.0Q1659 714 1650.0 715.5Q1641 717 1617.0 725.5Q1593 734 1565 750Q1559 754 1554 754Q1540 754 1540 734V710Q1540 706 1537 706ZM1930 348Q1854 348 1813.0 394.0Q1772 440 1772 519Q1772 606 1830.0 657.0Q1888 708 1950 708Q1981 708 2010.5 695.5Q2040 683 2046 664Q2050 648 2050 641V411Q2050 398 2039 387Q1997 348 1930 348ZM1932 307Q1962 307 1988.0 310.5Q2014 314 2028 318L2042 322Q2050 322 2050 313V141Q2050 138 2049.5 135.5Q2049 133 2048.5 131.0Q2048 129 2046.5 127.0Q2045 125 2044.0 124.0Q2043 123 2039.5 121.0Q2036 119 2033.5 117.5Q2031 116 2025.5 114.0Q2020 112 2015.5 110.0Q2011 108 2003.0 105.0Q1995 102 1988 99Q1969 94 1969 83Q1969 77 1978 71Q2106 9 2110 9Q2122 9 2122 23Q2122 33 2121.0 75.5Q2120 118 2119.5 192.5Q2119 267 2119 355Q2119 629 2122 656Q2122 659 2122.5 660.5Q2123 662 2124.0 663.5Q2125 665 2126.5 666.0Q2128 667 2130.5 667.5Q2133 668 2135.0 668.5Q2137 669 2141.5 669.0Q2146 669 2149.5 669.0Q2153 669 2159.0 669.5Q2165 670 2170 670Q2190 670 2190 685Q2190 692 2184.5 696.0Q2179 700 2161.5 707.5Q2144 715 2129 724Q2109 735 2093.0 746.5Q2077 758 2070.0 763.5Q2063 769 2059 769Q2051 769 2051 758V725Q2051 722 2048 722L2042 726Q2037 730 2027.0 736.0Q2017 742 2003.5 748.0Q1990 754 1969.5 758.0Q1949 762 1927 762Q1828 762 1765.5 694.5Q1703 627 1703 528Q1703 439 1760.5 373.0Q1818 307 1931 307ZM2285 968Q2268 968 2256.5 957.0Q2245 946 2245 931Q2245 913 2258.0 899.5Q2271 886 2296.5 870.0Q2322 854 2335 842Q2357 822 2380.5 783.5Q2404 745 2404 725Q2404 699 2290 471Q2243 379 2234 366Q2228 357 2217.5 355.5Q2207 354 2201.0 350.5Q2195 347 2195 332Q2195 315 2209 315Q2211 315 2221.0 315.5Q2231 316 2249.5 317.0Q2268 318 2289.0 318.0Q2310 318 2328.5 317.0Q2347 316 2357.5 315.5Q2368 315 2370 315Q2384 315 2384 331Q2384 335 2383.5 337.5Q2383 340 2383.0 342.0Q2383 344 2381.5 345.5Q2380 347 2379.5 348.5Q2379 350 2376.5 350.5Q2374 351 2373.0 351.5Q2372 352 2368.0 352.5Q2364 353 2362.0 353.5Q2360 354 2354.5 354.5Q2349 355 2346 355Q2330 357 2330 369Q2330 374 2342.5 407.5Q2355 441 2382.5 501.0Q2410 561 2442 621Q2442 627 2449 627Q2452 627 2454.0 625.0Q2456 623 2457.0 620.5Q2458 618 2459 617Q2543 416 2543 376Q2543 370 2541.5 366.0Q2540 362 2538.0 359.5Q2536 357 2531.0 356.0Q2526 355 2522.0 354.5Q2518 354 2509.0 354.0Q2500 354 2494 353Q2475 351 2475.0 333.0Q2475 315 2494 315Q2496 315 2506.0 315.5Q2516 316 2534.5 317.0Q2553 318 2574 318H2575Q2596 318 2613.5 317.0Q2631 316 2641.0 315.5Q2651 315 2653 315Q2665 315 2665 336Q2665 347 2659.0 349.5Q2653 352 2625 355Q2615 356 2611.5 362.0Q2608 368 2596 400Q2572 468 2544 536Q2445 778 2361 905Q2320 968 2285 968ZM3018 38Q3049 38 3107.5 33.0Q3166 28 3196 28Q3307 28 3366 69Q3429 115 3429 187Q3429 234 3402.0 276.0Q3375 318 3332 345L3329 348Q3329 349 3333 351Q3393 362 3434.0 412.0Q3475 462 3475 529Q3475 597 3436.0 648.5Q3397 700 3345 723Q3294 746 3222 746Q3198 746 3152.0 743.0Q3106 740 3082 740Q3065 740 3027.0 741.0Q2989 742 2965 742H2963Q2957 742 2953.5 741.0Q2950 740 2946.5 734.0Q2943 728 2943 717Q2943 705 2950.5 702.0Q2958 699 2987 696Q2996 695 3001 694Q3008 693 3011.5 691.5Q3015 690 3018.5 685.5Q3022 681 3022 673V113Q3022 94 3011.5 88.5Q3001 83 2974 81Q2971 81 2969 81Q2951 81 2951 55Q2951 37 2969 37Q2970 37 2976.0 37.5Q2982 38 2993.5 38.0Q3005 38 3018 38ZM3338 209Q3338 188 3331.0 166.5Q3324 145 3308.0 123.0Q3292 101 3260.5 87.0Q3229 73 3187 73Q3130 73 3115 85Q3110 89 3110 98V100V319Q3110 332 3121 332H3167H3180Q3288 332 3323 267Q3338 237 3338 209ZM3189 698Q3270 698 3327.0 654.5Q3384 611 3384 534Q3384 483 3354.5 439.5Q3325 396 3263 383Q3230 376 3177 376H3125Q3110 376 3110 392V656Q3110 667 3111.5 673.0Q3113 679 3120.0 685.5Q3127 692 3141 694Q3171 698 3189 698ZM3525 531Q3525 428 3590.5 363.0Q3656 298 3746 298Q3838 298 3899.0 363.5Q3960 429 3960 531Q3960 636 3896.5 697.5Q3833 759 3742 759Q3646 759 3585.5 693.0Q3525 627 3525 531ZM3890 535Q3890 455 3844.5 400.5Q3799 346 3739 346Q3689 346 3646.5 390.0Q3604 434 3604 526Q3604 606 3643.0 657.5Q3682 709 3745.0 709.0Q3808 709 3849.0 657.5Q3890 606 3890 535ZM4003 531Q4003 428 4068.5 363.0Q4134 298 4224 298Q4316 298 4377.0 363.5Q4438 429 4438 531Q4438 636 4374.5 697.5Q4311 759 4220 759Q4124 759 4063.5 693.0Q4003 627 4003 531ZM4368 535Q4368 455 4322.5 400.5Q4277 346 4217 346Q4167 346 4124.5 390.0Q4082 434 4082 526Q4082 606 4121.0 657.5Q4160 709 4223.0 709.0Q4286 709 4327.0 657.5Q4368 606 4368 535ZM4688 728Q4688 715 4695.5 709.5Q4703 704 4712.5 704.5Q4722 705 4729.5 701.0Q4737 697 4737.0 687.0Q4737 677 4710.0 639.0Q4683 601 4658.5 570.0Q4634 539 4631 536Q4631 534 4627.0 534.0Q4623 534 4611.0 547.0Q4599 560 4598 564Q4597 567 4597 575V681Q4597 695 4604.0 698.0Q4611 701 4644 705Q4666 710 4666.0 727.0Q4666 744 4652 744Q4650 744 4640.0 743.0Q4630 742 4612.0 741.0Q4594 740 4573.0 740.0Q4552 740 4534.0 741.0Q4516 742 4505.5 743.0Q4495 744 4493 744Q4475 744 4475 726Q4475 714 4483.0 709.5Q4491 705 4500.5 705.0Q4510 705 4518.5 700.0Q4527 695 4528 683V131Q4528 115 4515 106Q4470 75 4468 73L4464 65Q4464 55 4485 48Q4582 5 4586 5Q4597 5 4597 22V506Q4597 510 4600 510Q4604 510 4606 506Q4621 491 4636.5 475.5Q4652 460 4660.5 451.5Q4669 443 4678.0 434.0Q4687 425 4691.5 420.0Q4696 415 4700.0 410.0Q4704 405 4705.0 401.5Q4706 398 4707.0 394.0Q4708 390 4708 385Q4708 368 4694.5 357.5Q4681 347 4681 342V331Q4681 318 4703 318H4762Q4792 318 4817.5 317.0Q4843 316 4857.5 315.5Q4872 315 4875 315Q4890 315 4890 334Q4890 346 4885.0 350.0Q4880 354 4861.5 356.0Q4843 358 4831 361Q4809 367 4784.0 385.0Q4759 403 4743.0 419.0Q4727 435 4682 481Q4675 488 4675 490Q4675 494 4794 636Q4812 657 4823.0 668.5Q4834 680 4854.5 692.0Q4875 704 4898 707Q4915 709 4915 725Q4915 746 4898 746Q4897 746 4891.5 745.5Q4886 745 4877.0 744.0Q4868 743 4856.5 742.0Q4845 741 4830.0 740.5Q4815 740 4800.0 740.0Q4785 740 4770.0 740.5Q4755 741 4743.5 742.0Q4732 743 4723.0 744.0Q4714 745 4708.5 745.5Q4703 746 4702 746Q4688 746 4688 729ZM5156 726Q5156 746 5144 746Q5143 746 5137.5 745.5Q5132 745 5123.0 744.0Q5114 743 5103.0 742.0Q5092 741 5077.0 740.5Q5062 740 5048.0 740.0Q5034 740 5020.0 740.5Q5006 741 4995.0 741.5Q4984 742 4975.5 743.0Q4967 744 4962.0 744.5Q4957 745 4956 745Q4941 745 4941 727V724Q4941 711 4947.5 707.5Q4954 704 4983 701Q5001 699 5006.5 689.5Q5012 680 5012 662V141Q5012 138 5011.5 135.5Q5011 133 5010.0 131.0Q5009 129 5008.5 127.5Q5008 126 5005.5 124.5Q5003 123 5001.5 122.0Q5000 121 4995.5 118.5Q4991 116 4989 115Q4979 109 4967.5 102.5Q4956 96 4951.5 93.0Q4947 90 4942.0 86.5Q4937 83 4935.5 80.5Q4934 78 4934 75V74Q4934 69 4972 49Q5019 26 5060 4Q5066 0 5073 0Q5087 0 5087 19V667Q5087 673 5087.5 677.0Q5088 681 5089.0 684.5Q5090 688 5091.0 690.0Q5092 692 5095.5 694.0Q5099 696 5100.5 697.0Q5102 698 5107.5 699.5Q5113 701 5115.5 701.5Q5118 702 5126.5 703.0Q5135 704 5139 705Q5156 708 5156 726ZM5190 529Q5190 425 5245.0 362.0Q5300 299 5379 299Q5430 299 5477.0 327.0Q5524 355 5555 397Q5563 407 5563 419V421Q5563 430 5558.0 437.0Q5553 444 5542.0 449.5Q5531 455 5523.0 458.0Q5515 461 5499.5 466.0Q5484 471 5480 472Q5271 544 5266 547Q5262 549 5262 553Q5262 559 5265.0 573.0Q5268 587 5278.5 610.0Q5289 633 5304.5 652.5Q5320 672 5349.0 686.5Q5378 701 5414 701Q5484 701 5536 651Q5550 637 5559 637Q5576 637 5576 652Q5576 658 5568 668Q5536 710 5488.0 734.5Q5440 759 5387 759Q5353 759 5320.5 747.0Q5288 735 5257.5 710.0Q5227 685 5208.5 638.0Q5190 591 5190 529ZM5464 423Q5464 410 5429.0 382.5Q5394 355 5356 355Q5311 355 5284.5 394.0Q5258 433 5258 501Q5258 509 5263 509Q5265 509 5358.5 472.5Q5452 436 5455 435Q5464 430 5464 423ZM5626 366Q5605 366 5605 353Q5605 347 5619.5 334.5Q5634 322 5661.0 292.5Q5688 263 5712 223Q5723 204 5732 204Q5746 204 5746 221Q5746 228 5745.5 257.0Q5745 286 5745 293Q5745 313 5765 313H5857Q5859 313 5862.0 313.5Q5865 314 5866 314Q5892 314 5892.0 333.0Q5892 352 5883 363Q5878 368 5865 368H5745Q5735 368 5735 378Q5735 461 5734.5 516.0Q5734 571 5733.5 590.0Q5733 609 5733 617Q5733 693 5786 693Q5807 693 5830.0 677.5Q5853 662 5870.5 646.5Q5888 631 5897 631Q5905 631 5910.5 637.0Q5916 643 5916 650Q5916 656 5909 667Q5828 759 5766 759Q5729 759 5698.5 729.5Q5668 700 5663 635Q5662 624 5662 602Q5662 577 5664.0 480.5Q5666 384 5666.0 375.0Q5666 366 5659 366ZM5966 366Q5945 366 5945 353Q5945 347 5959.5 334.5Q5974 322 6001.0 292.5Q6028 263 6052 223Q6063 204 6072 204Q6086 204 6086 221Q6086 228 6085.5 257.0Q6085 286 6085 293Q6085 313 6105 313H6197Q6199 313 6202.0 313.5Q6205 314 6206 314Q6232 314 6232.0 333.0Q6232 352 6223 363Q6218 368 6205 368H6085Q6075 368 6075 378Q6075 461 6074.5 516.0Q6074 571 6073.5 590.0Q6073 609 6073 617Q6073 693 6126 693Q6147 693 6170.0 677.5Q6193 662 6210.5 646.5Q6228 631 6237 631Q6245 631 6250.5 637.0Q6256 643 6256 650Q6256 656 6249 667Q6168 759 6106 759Q6069 759 6038.5 729.5Q6008 700 6003 635Q6002 624 6002 602Q6002 577 6004.0 480.5Q6006 384 6006.0 375.0Q6006 366 5999 366ZM6288 529Q6288 425 6343.0 362.0Q6398 299 6477 299Q6528 299 6575.0 327.0Q6622 355 6653 397Q6661 407 6661 419V421Q6661 430 6656.0 437.0Q6651 444 6640.0 449.5Q6629 455 6621.0 458.0Q6613 461 6597.5 466.0Q6582 471 6578 472Q6369 544 6364 547Q6360 549 6360 553Q6360 559 6363.0 573.0Q6366 587 6376.5 610.0Q6387 633 6402.5 652.5Q6418 672 6447.0 686.5Q6476 701 6512 701Q6582 701 6634 651Q6648 637 6657 637Q6674 637 6674 652Q6674 658 6666 668Q6634 710 6586.0 734.5Q6538 759 6485 759Q6451 759 6418.5 747.0Q6386 735 6355.5 710.0Q6325 685 6306.5 638.0Q6288 591 6288 529ZM6562 423Q6562 410 6527.0 382.5Q6492 355 6454 355Q6409 355 6382.5 394.0Q6356 433 6356 501Q6356 509 6361 509Q6363 509 6456.5 472.5Q6550 436 6553 435Q6562 430 6562 423ZM6831 354Q6832 354 6853.0 339.5Q6874 325 6900.0 308.0Q6926 291 6938.0 287.0Q6950 283 6968 283Q6996 283 7022.0 295.5Q7048 308 7048 328V329Q7048 335 7044.0 341.0Q7040 347 7037.0 350.0Q7034 353 7027 359L7020 365Q7019 365 7009.5 372.5Q7000 380 6993.0 383.0Q6986 386 6978 386Q6966 386 6950.5 373.0Q6935 360 6917 360Q6895 360 6870.0 376.0Q6845 392 6838 402Q6834 408 6834 421V666V670Q6834 699 6859 701Q6869 702 6886 703Q6917 705 6925.5 708.5Q6934 712 6934 726Q6934 746 6920 746Q6919 746 6913.5 745.5Q6908 745 6898.0 744.0Q6888 743 6876.0 742.0Q6864 741 6847.5 740.5Q6831 740 6816 740Q6800 740 6784.0 740.5Q6768 741 6755.5 742.0Q6743 743 6733.5 744.0Q6724 745 6718.5 745.5Q6713 746 6712 746Q6695 746 6695 729Q6695 720 6699.0 715.5Q6703 711 6707.0 709.5Q6711 708 6722.5 706.5Q6734 705 6741 703Q6760 699 6760 679V407Q6760 401 6759.0 397.5Q6758 394 6753.5 389.5Q6749 385 6744.5 382.0Q6740 379 6727.0 370.0Q6714 361 6703 353Q6700 350 6699 346Q6699 342 6740 323Q6777 305 6807 290Q6808 290 6810 289Q6814 287 6816 287Q6828 287 6828 308V349Q6828 354 6831 354ZM7598 306Q7612 306 7612 328Q7612 346 7564 348Q7546 349 7535 350Q7521 351 7521 366V678Q7521 698 7539 699Q7550 700 7561.5 700.5Q7573 701 7580.5 701.5Q7588 702 7596.0 702.5Q7604 703 7608.0 704.0Q7612 705 7617.0 706.0Q7622 707 7624.0 709.0Q7626 711 7628.0 713.5Q7630 716 7630.5 719.5Q7631 723 7631 728Q7631 746 7613 746Q7612 746 7605.0 745.5Q7598 745 7586.0 744.0Q7574 743 7559.0 742.0Q7544 741 7524.5 740.5Q7505 740 7486.0 740.0Q7467 740 7448.0 740.5Q7429 741 7414.0 742.0Q7399 743 7387.5 744.0Q7376 745 7369.0 745.5Q7362 746 7361 746Q7347 746 7347 725Q7347 707 7365 705Q7380 704 7402 702Q7431 701 7437.0 698.0Q7443 695 7443 681V366Q7443 352 7428 350Q7349 346 7347 346Q7332 342 7332 322Q7332 306 7347 306Q7350 306 7366.0 307.0Q7382 308 7411.0 308.5Q7440 309 7473.0 309.0Q7506 309 7534.5 308.5Q7563 308 7579.0 307.0Q7595 306 7598 306ZM7777 484Q7777 566 7826.5 635.5Q7876 705 7960 705Q8006 705 8028.5 686.0Q8051 667 8062 632Q8073 594 8073 560Q8073 473 8019.0 410.5Q7965 348 7895 348Q7849 348 7813.0 382.0Q7777 416 7777 484ZM7951 745Q7848 745 7775.0 674.0Q7702 603 7702 508Q7702 421 7764.0 361.5Q7826 302 7913 302Q8011 302 8081.5 377.5Q8152 453 8152 561Q8152 681 8062.0 793.0Q7972 905 7828 949Q7802 956 7796 956Q7786 956 7781.5 947.0Q7777 938 7777 931Q7777 919 7794 914Q7839 900 7880.5 876.5Q7922 853 7949.5 830.0Q7977 807 7997.5 785.0Q8018 763 8027.5 750.0Q8037 737 8037 735Q8037 732 8034 732L8029 734Q8024 735 8016.5 736.5Q8009 738 7999.0 740.0Q7989 742 7976.0 743.5Q7963 745 7951 745ZM8483 306Q8497 306 8497 328Q8497 346 8449 348Q8431 349 8420 350Q8406 351 8406 366V678Q8406 698 8424 699Q8435 700 8446.5 700.5Q8458 701 8465.5 701.5Q8473 702 8481.0 702.5Q8489 703 8493.0 704.0Q8497 705 8502.0 706.0Q8507 707 8509.0 709.0Q8511 711 8513.0 713.5Q8515 716 8515.5 719.5Q8516 723 8516 728Q8516 746 8498 746Q8497 746 8490.0 745.5Q8483 745 8471.0 744.0Q8459 743 8444.0 742.0Q8429 741 8409.5 740.5Q8390 740 8371.0 740.0Q8352 740 8333.0 740.5Q8314 741 8299.0 742.0Q8284 743 8272.5 744.0Q8261 745 8254.0 745.5Q8247 746 8246 746Q8232 746 8232 725Q8232 707 8250 705Q8265 704 8287 702Q8316 701 8322.0 698.0Q8328 695 8328 681V366Q8328 352 8313 350Q8234 346 8232 346Q8217 342 8217 322Q8217 306 8232 306Q8235 306 8251.0 307.0Q8267 308 8296.0 308.5Q8325 309 8358.0 309.0Q8391 309 8419.5 308.5Q8448 308 8464.0 307.0Q8480 306 8483 306ZM8847 306Q8861 306 8861 328Q8861 346 8813 348Q8795 349 8784 350Q8770 351 8770 366V678Q8770 698 8788 699Q8799 700 8810.5 700.5Q8822 701 8829.5 701.5Q8837 702 8845.0 702.5Q8853 703 8857.0 704.0Q8861 705 8866.0 706.0Q8871 707 8873.0 709.0Q8875 711 8877.0 713.5Q8879 716 8879.5 719.5Q8880 723 8880 728Q8880 746 8862 746Q8861 746 8854.0 745.5Q8847 745 8835.0 744.0Q8823 743 8808.0 742.0Q8793 741 8773.5 740.5Q8754 740 8735.0 740.0Q8716 740 8697.0 740.5Q8678 741 8663.0 742.0Q8648 743 8636.5 744.0Q8625 745 8618.0 745.5Q8611 746 8610 746Q8596 746 8596 725Q8596 707 8614 705Q8629 704 8651 702Q8680 701 8686.0 698.0Q8692 695 8692 681V366Q8692 352 8677 350Q8598 346 8596 346Q8581 342 8581 322Q8581 306 8596 306Q8599 306 8615.0 307.0Q8631 308 8660.0 308.5Q8689 309 8722.0 309.0Q8755 309 8783.5 308.5Q8812 308 8828.0 307.0Q8844 306 8847 306Z" /></svg>