<svg viewBox="0 0 5200 792" xmlns="http://www.w3.org/2000/svg"><path d="M122 109Q116 145 110.5 178.5Q105 212 102.0 250.5Q99 289 99 341Q99 416 107.5 460.0Q116 504 129.0 527.0Q142 550 157.0 559.0Q172 568 184 572Q206 579 246.5 581.5Q287 584 320 583Q322 575 323.0 557.5Q324 540 325.0 518.5Q326 497 326.0 477.5Q326 458 326 448L252 428L265 339Q293 340 325.0 344.5Q357 349 381.5 355.5Q406 362 412 371Q413 387 414.0 412.5Q415 438 415.0 467.0Q415 496 414.0 522.5Q413 549 411.5 568.5Q410 588 408 593Q401 599 384.5 608.0Q368 617 347.5 626.5Q327 636 306.0 644.0Q285 652 268.0 657.0Q251 662 243 662Q227 662 201.5 658.0Q176 654 147.5 645.5Q119 637 94.0 623.5Q69 610 55 592Q38 569 25.5 539.0Q13 509 6.5 469.0Q0 429 0 376Q0 307 8.5 250.0Q17 193 30 159Q41 143 59.0 124.5Q77 106 96 90ZM164 577V130Q164 119 172.5 95.0Q181 71 191 44H216V520Q216 526 211.0 540.0Q206 554 195 577ZM389 224H335L323 122Q311 119 288.0 116.0Q265 113 243.5 111.0Q222 109 211 109Q201 109 193.5 109.5Q186 110 181 111L191 44Q196 42 199.0 41.5Q202 41 206 41Q214 41 236.5 42.0Q259 43 288.5 44.5Q318 46 348.5 47.5Q379 49 401 51ZM579 662Q576 662 568.0 655.0Q560 648 552.5 640.0Q545 632 545 629V261L510 249V212Q510 212 521.5 209.5Q533 207 549.0 204.0Q565 201 578.5 198.5Q592 196 595 196Q598 196 608.0 204.0Q618 212 626.5 221.0Q635 230 635 233L633 272Q647 258 659.5 244.5Q672 231 683.0 220.0Q694 209 701.5 202.5Q709 196 711 196Q722 196 744.0 202.0Q766 208 778 212Q780 218 782.0 228.0Q784 238 784 243Q784 246 780.5 254.0Q777 262 772.5 271.0Q768 280 763.5 287.0Q759 294 757 295Q750 292 741.0 289.0Q732 286 722.5 284.0Q713 282 704 282Q701 282 694.0 284.5Q687 287 678.0 291.5Q669 296 658.5 301.5Q648 307 636 314V590L687 605V646Q687 646 677.0 647.5Q667 649 652.0 651.5Q637 654 621.0 656.5Q605 659 593.5 660.5Q582 662 579 662ZM910 434Q910 499 927.5 533.0Q945 567 967.0 579.0Q989 591 1003 591Q1007 591 1022.0 590.5Q1037 590 1057.0 589.0Q1077 588 1097.0 587.0Q1117 586 1132 586V627Q1114 633 1091.0 639.0Q1068 645 1045.0 650.0Q1022 655 1004.5 658.5Q987 662 980 662Q939 662 901.0 639.5Q863 617 838.5 570.5Q814 524 814 452Q814 402 821.0 360.0Q828 318 838 299Q846 287 866.5 269.5Q887 252 911.5 235.5Q936 219 957.0 207.5Q978 196 988 196Q1043 196 1077.5 214.0Q1112 232 1129.0 281.5Q1146 331 1146 427L866 456V418L1049 388Q1049 327 1036.0 291.5Q1023 256 980 256Q972 256 962.5 257.0Q953 258 942 263Q928 270 919.0 316.5Q910 363 910 434ZM1284 662Q1281 662 1273.0 655.0Q1265 648 1257.5 640.0Q1250 632 1250 629V264L1215 249V212Q1215 212 1227.5 209.5Q1240 207 1257.0 204.5Q1274 202 1288.5 199.5Q1303 197 1306 197Q1309 197 1317.0 203.5Q1325 210 1331.5 218.0Q1338 226 1338 229V267Q1351 257 1367.5 245.0Q1384 233 1400.0 222.0Q1416 211 1427.5 203.5Q1439 196 1441 196Q1486 196 1518.0 211.0Q1550 226 1567.5 263.0Q1585 300 1585 365V594L1620 609V646Q1620 646 1607.5 648.5Q1595 651 1577.5 654.0Q1560 657 1546.0 659.5Q1532 662 1529 662Q1526 662 1517.5 655.0Q1509 648 1501.5 640.0Q1494 632 1494 629V365Q1494 317 1482.5 297.5Q1471 278 1457.0 274.5Q1443 271 1436 271Q1430 271 1414.5 277.0Q1399 283 1379.5 291.5Q1360 300 1341 309V594L1375 609V646Q1375 646 1362.5 648.5Q1350 651 1333.0 654.0Q1316 657 1301.5 659.5Q1287 662 1284 662ZM1716 653Q1711 646 1703.0 629.0Q1695 612 1693 607Q1744 524 1786.5 447.0Q1829 370 1882 279L1880 267L1770 261L1761 327H1709L1701 205H1976Q1980 211 1988.0 225.5Q1996 240 1999 250Q1953 332 1907.0 412.5Q1861 493 1814 573V587L1948 593L1960 509H2011L2014 653ZM2182 434Q2182 499 2199.5 533.0Q2217 567 2239.0 579.0Q2261 591 2275 591Q2279 591 2294.0 590.5Q2309 590 2329.0 589.0Q2349 588 2369.0 587.0Q2389 586 2404 586V627Q2386 633 2363.0 639.0Q2340 645 2317.0 650.0Q2294 655 2276.5 658.5Q2259 662 2252 662Q2211 662 2173.0 639.5Q2135 617 2110.5 570.5Q2086 524 2086 452Q2086 402 2093.0 360.0Q2100 318 2110 299Q2118 287 2138.5 269.5Q2159 252 2183.5 235.5Q2208 219 2229.0 207.5Q2250 196 2260 196Q2315 196 2349.5 214.0Q2384 232 2401.0 281.5Q2418 331 2418 427L2138 456V418L2321 388Q2321 327 2308.0 291.5Q2295 256 2252 256Q2244 256 2234.5 257.0Q2225 258 2214 263Q2200 270 2191.0 316.5Q2182 363 2182 434ZM2774 109Q2768 145 2762.5 178.5Q2757 212 2754.0 250.5Q2751 289 2751 341Q2751 416 2759.5 460.0Q2768 504 2781.0 527.0Q2794 550 2809.0 559.0Q2824 568 2836 572Q2858 579 2898.5 581.5Q2939 584 2972 583Q2974 575 2975.0 557.5Q2976 540 2977.0 518.5Q2978 497 2978.0 477.5Q2978 458 2978 448L2904 428L2917 339Q2945 340 2977.0 344.5Q3009 349 3033.5 355.5Q3058 362 3064 371Q3065 387 3066.0 412.5Q3067 438 3067.0 467.0Q3067 496 3066.0 522.5Q3065 549 3063.5 568.5Q3062 588 3060 593Q3053 599 3036.5 608.0Q3020 617 2999.5 626.5Q2979 636 2958.0 644.0Q2937 652 2920.0 657.0Q2903 662 2895 662Q2879 662 2853.5 658.0Q2828 654 2799.5 645.5Q2771 637 2746.0 623.5Q2721 610 2707 592Q2690 569 2677.5 539.0Q2665 509 2658.5 469.0Q2652 429 2652 376Q2652 307 2660.5 250.0Q2669 193 2682 159Q2693 143 2711.0 124.5Q2729 106 2748 90ZM2816 577V130Q2816 119 2824.5 95.0Q2833 71 2843 44H2868V520Q2868 526 2863.0 540.0Q2858 554 2847 577ZM3041 224H2987L2975 122Q2963 119 2940.0 116.0Q2917 113 2895.5 111.0Q2874 109 2863 109Q2853 109 2845.5 109.5Q2838 110 2833 111L2843 44Q2848 42 2851.0 41.5Q2854 41 2858 41Q2866 41 2888.5 42.0Q2911 43 2940.5 44.5Q2970 46 3000.5 47.5Q3031 49 3053 51ZM3374 662Q3271 662 3218.5 610.0Q3166 558 3166 446Q3166 401 3173.0 359.5Q3180 318 3190 299Q3198 287 3218.5 269.5Q3239 252 3263.5 235.5Q3288 219 3309.0 207.5Q3330 196 3339 196Q3440 196 3491.5 250.5Q3543 305 3543 406Q3543 455 3536.0 497.0Q3529 539 3521 563Q3513 573 3493.0 589.5Q3473 606 3448.5 623.0Q3424 640 3403.5 651.0Q3383 662 3374 662ZM3379 605Q3383 604 3395.0 598.0Q3407 592 3418.5 586.0Q3430 580 3430 580Q3435 557 3441.0 519.0Q3447 481 3447 419Q3447 369 3434.5 332.5Q3422 296 3397.0 275.5Q3372 255 3334 255Q3324 255 3314.0 256.5Q3304 258 3294 263Q3281 270 3271.5 314.0Q3262 358 3262 432Q3262 503 3280.0 540.5Q3298 578 3325.0 591.5Q3352 605 3379 605ZM3724 662Q3715 662 3702.5 653.5Q3690 645 3678.0 632.0Q3666 619 3658.0 606.0Q3650 593 3650 584V258H3586V228L3650 196L3706 128Q3711 128 3720.5 132.0Q3730 136 3741 142V205H3838V263H3741V540Q3741 571 3746.0 582.0Q3751 593 3765 593L3847 595V643Q3833 646 3814.0 649.5Q3795 653 3776.5 655.5Q3758 658 3743.5 660.0Q3729 662 3724 662ZM3970 662Q3967 662 3957.0 654.0Q3947 646 3938.5 637.0Q3930 628 3930 625V260L3895 249V212Q3895 212 3906.5 209.5Q3918 207 3934.0 204.0Q3950 201 3963.5 198.5Q3977 196 3980 196Q3984 196 3993.5 203.5Q4003 211 4011.5 220.0Q4020 229 4020 234V599L4055 609V646Q4055 646 4043.5 648.5Q4032 651 4016.0 654.0Q4000 657 3986.5 659.5Q3973 662 3970 662ZM3920 42Q3920 40 3928.5 33.5Q3937 27 3948.0 19.0Q3959 11 3968.0 5.5Q3977 0 3979 0Q3983 0 3992.0 7.0Q4001 14 4010.5 24.0Q4020 34 4027.0 43.0Q4034 52 4033 57L4029 77Q4028 80 4020.0 86.5Q4012 93 4001.5 100.5Q3991 108 3982.0 113.5Q3973 119 3970 119Q3966 119 3957.0 111.5Q3948 104 3939.0 94.0Q3930 84 3923.5 75.0Q3917 66 3917 63ZM4309 662Q4299 662 4277.0 661.0Q4255 660 4227.0 658.0Q4199 656 4173.0 653.5Q4147 651 4129 649L4131 505L4181 504L4202 580Q4218 585 4238.0 590.0Q4258 595 4276.0 598.0Q4294 601 4303 601Q4309 601 4316.0 592.0Q4323 583 4328.5 569.5Q4334 556 4334 545Q4334 526 4325.0 513.5Q4316 501 4295.0 488.0Q4274 475 4238 456Q4199 434 4175.5 416.5Q4152 399 4141.5 379.0Q4131 359 4131 333Q4131 320 4132.0 306.5Q4133 293 4136 284Q4144 272 4158.5 256.5Q4173 241 4189.5 227.5Q4206 214 4220.5 205.0Q4235 196 4243 196Q4255 196 4276.5 197.0Q4298 198 4323.0 199.0Q4348 200 4371.0 201.5Q4394 203 4409 205L4406 327H4350L4343 274Q4339 272 4324.0 269.5Q4309 267 4290.5 264.5Q4272 262 4256.5 260.0Q4241 258 4236 258Q4230 258 4225.0 262.0Q4220 266 4217.0 275.0Q4214 284 4214 300Q4214 319 4225.0 332.5Q4236 346 4252.5 356.0Q4269 366 4286 377Q4304 388 4328.5 402.0Q4353 416 4376.5 432.0Q4400 448 4415.0 467.5Q4430 487 4430 510Q4430 520 4429.0 533.0Q4428 546 4423 561Q4416 574 4402.0 591.0Q4388 608 4371.0 624.5Q4354 641 4337.5 651.5Q4321 662 4309 662ZM4633 662Q4599 662 4566.0 639.5Q4533 617 4511.5 570.0Q4490 523 4490 450Q4490 400 4497.0 357.0Q4504 314 4514 295Q4522 283 4542.0 266.5Q4562 250 4585.5 233.5Q4609 217 4629.5 206.5Q4650 196 4659 196Q4682 196 4712.0 201.5Q4742 207 4769 215L4766 343H4705L4691 274Q4681 269 4662.5 263.5Q4644 258 4629 258Q4625 258 4621.5 259.0Q4618 260 4615 262Q4606 269 4599.5 294.0Q4593 319 4589.5 356.0Q4586 393 4586 437Q4586 493 4598.0 526.5Q4610 560 4626.5 574.5Q4643 589 4656 589H4769V631Q4751 637 4730.0 642.5Q4709 648 4689.0 652.5Q4669 657 4654.0 659.5Q4639 662 4633 662ZM4830 60V23Q4830 23 4838.5 21.5Q4847 20 4859.5 17.5Q4872 15 4885.0 12.5Q4898 10 4908.0 8.5Q4918 7 4921 7Q4924 7 4932.5 14.0Q4941 21 4948.5 28.5Q4956 36 4956 40L4951 266L4956 267Q4969 257 4985.5 245.0Q5002 233 5017.5 222.0Q5033 211 5044.0 203.5Q5055 196 5056 196Q5102 196 5134.0 211.0Q5166 226 5183.0 263.0Q5200 300 5200 365V625Q5200 655 5189.0 688.5Q5178 722 5157.5 750.0Q5137 778 5107 792L5078 768Q5092 745 5098.5 721.5Q5105 698 5107.0 674.5Q5109 651 5109 629V365Q5109 317 5097.5 297.5Q5086 278 5072.5 274.5Q5059 271 5051 271Q5047 271 5027.0 279.0Q5007 287 4986.0 296.0Q4965 305 4956 309V594L4990 609V646Q4990 646 4977.5 648.5Q4965 651 4947.5 654.0Q4930 657 4915.5 659.5Q4901 662 4898 662Q4895 662 4887.0 655.0Q4879 648 4872.0 640.0Q4865 632 4865 629V74Z" fill="currentColor" /></svg>