<svg viewBox="0 0 4013 771" xmlns="http://www.w3.org/2000/svg"><path d="M239 0Q132 0 65 104Q0 208 0 374Q0 544 60 654Q124 769 232 769Q289 769 330 734Q363 706 383 656V725Q383 738 392 746Q401 753 414 752Q426 752 435 745Q445 737 445 725V405Q445 384 439 377Q432 370 412 370H266Q250 370 242 378Q234 386 234 397Q235 408 243 416Q251 425 266 425H383Q383 571 340 646Q301 714 232 714Q158 714 109 617Q62 521 62 379Q62 224 116 134Q163 55 230 55Q284 55 318 92Q354 132 366 214Q368 229 379 236Q389 243 402 241Q415 239 423 229Q433 218 432 202Q425 116 378 61Q325 0 239 0ZM923 730V230Q923 213 913 204Q904 195 892 195Q879 195 870 204Q861 213 861 230V609Q820 663 789 685Q750 714 702 714Q652 714 623 682Q596 653 596 612V230Q596 213 586 204Q577 195 565 195Q552 195 543 204Q534 213 534 230V612Q534 675 576 719Q623 769 702 769Q757 769 798 744Q826 726 861 686V730Q861 744 870 753Q879 761 892 761Q904 761 913 753Q923 744 923 730ZM1209 29V739Q1209 753 1218 762Q1227 770 1240 770Q1252 770 1261 762Q1271 754 1271 740V30Q1271 15 1261 7Q1252 0 1240 0Q1227 0 1218 7Q1209 15 1209 29ZM1721 228V737Q1721 752 1730 762Q1739 770 1752 770Q1764 770 1773 761Q1783 752 1783 737V228Q1783 214 1773 206Q1764 199 1752 199Q1739 199 1730 207Q1721 214 1721 228ZM1751 0Q1727 0 1714 16Q1702 31 1702 53Q1702 74 1714 88Q1727 104 1751 104Q1775 104 1789 88Q1802 73 1802 53Q1802 31 1789 16Q1775 0 1751 0ZM2053 242V741Q2053 755 2062 763Q2070 770 2082 770Q2094 769 2102 761Q2112 752 2112 738V323Q2121 293 2142 274Q2163 255 2186 255Q2206 255 2221 276Q2237 297 2237 325V741Q2237 755 2246 763Q2254 770 2266 770Q2278 770 2286 763Q2296 755 2296 743V326Q2307 296 2326 276Q2346 255 2367 255Q2393 255 2406 273Q2420 291 2420 330V737Q2420 753 2429 762Q2437 771 2449 770Q2461 770 2469 761Q2479 751 2479 735V325Q2479 261 2454 230Q2429 200 2382 200Q2346 200 2320 214Q2297 227 2277 256Q2269 233 2247 217Q2222 200 2194 200Q2166 200 2141 218Q2124 231 2112 251V240Q2112 224 2102 215Q2094 206 2082 206Q2070 206 2062 215Q2053 225 2053 242ZM2796 0Q2691 0 2626 98Q2558 201 2558 377Q2558 576 2627 679Q2687 769 2784 769Q2879 769 2931 719Q2991 662 2999 534Q2999 516 2989 505Q2981 496 2968 495Q2955 495 2945 503Q2935 512 2935 528Q2933 617 2894 666Q2857 714 2792 714Q2712 714 2665 618Q2620 525 2620 376Q2620 217 2676 130Q2726 55 2803 55Q2849 55 2884 92Q2922 133 2930 202Q2932 229 2965 224Q2997 219 2995 194Q2985 107 2942 58Q2890 0 2796 0ZM3083 32V737Q3083 753 3092 762Q3101 771 3114 771Q3126 770 3135 762Q3145 752 3145 736V361Q3182 309 3224 283Q3269 255 3321 255Q3372 255 3403 287Q3431 315 3431 358V737Q3431 752 3440 762Q3449 770 3462 770Q3474 770 3483 762Q3493 752 3493 737V358Q3493 293 3449 249Q3401 200 3321 200Q3263 200 3216 225Q3177 245 3145 283V32Q3145 17 3135 8Q3126 0 3114 0Q3101 0 3092 8Q3083 17 3083 32ZM3938 601Q3915 653 3886 679Q3850 714 3799 714Q3732 714 3690 645Q3654 585 3650 501H4013V486Q4013 370 3957 288Q3896 200 3799 200Q3701 200 3641 288Q3587 369 3587 486Q3587 601 3641 681Q3701 769 3799 769Q3866 769 3918 731Q3970 693 4000 624Q4006 609 4000 596Q3994 585 3982 581Q3970 576 3958 580Q3944 586 3938 601ZM3653 446Q3658 374 3692 320Q3733 255 3799 255Q3864 255 3906 321Q3941 376 3946 446Z" /></svg>