<svg viewBox="0 0 5120 1448" xmlns="http://www.w3.org/2000/svg"><path d="M346 877V1018Q346 1048 320 1070Q293 1093 253 1093Q183 1093 148 1024Q109 947 109 784Q109 652 150 572Q190 495 253 495Q312 495 337 539Q354 571 365 661Q367 677 383 684Q398 689 418 684Q437 679 448 667Q460 654 456 639Q439 589 436 555Q432 501 456 453Q461 439 450 428Q440 418 421 413Q402 408 387 409Q370 411 368 419L361 440Q359 452 357 453Q354 456 347 449Q327 428 304 418Q282 409 253 409Q143 409 79 507Q13 607 13 784Q13 1006 83 1101Q140 1179 253 1179Q276 1179 299 1168Q327 1154 347 1128Q356 1150 372 1163Q386 1175 402 1175Q417 1175 427 1164Q438 1152 438 1130V877Q438 865 448 863Q454 861 472 862L487 864Q498 865 505 851Q511 839 511 820Q511 801 505 789Q498 776 487 779Q400 785 347 785Q294 785 262 779Q246 776 237 789Q229 802 229 821Q229 840 237 852Q246 866 262 864L273 863Q310 860 324 861Q346 864 346 877ZM585 735V1014Q585 1085 628 1132Q671 1178 737 1178Q773 1178 800 1169Q826 1160 845 1142Q854 1132 859 1138Q862 1142 867 1162Q902 1159 930 1159Q959 1159 989 1162Q1003 1165 1012 1151Q1020 1138 1020 1118Q1020 1098 1012 1086Q1003 1072 989 1076L978 1077Q958 1080 954 1077Q949 1072 949 1047V625Q914 628 878 628Q842 628 809 625Q795 623 787 637Q779 649 779 667Q779 685 787 697Q795 710 809 709Q840 704 849 708Q857 712 857 729V1031Q834 1064 804 1078Q776 1092 736 1092Q710 1092 695 1077Q677 1058 677 1017V625Q649 627 605 627Q559 627 545 625Q532 623 524 636Q518 648 518 667Q518 685 524 697Q532 710 545 709Q561 704 572 710Q585 716 585 735ZM1085 746V1062Q1085 1074 1081 1076Q1077 1078 1061 1075H1056Q1045 1071 1039 1085Q1034 1097 1034 1116Q1034 1136 1039 1148Q1045 1163 1056 1161Q1099 1158 1135 1158Q1171 1158 1201 1161Q1215 1164 1224 1149Q1231 1137 1231 1117Q1231 1097 1224 1085Q1215 1071 1201 1075Q1184 1080 1180 1078Q1177 1076 1177 1062V758Q1204 726 1227 712Q1259 694 1300 694Q1331 694 1348 711Q1367 731 1367 774V1062Q1367 1074 1364 1076Q1362 1077 1353 1076L1348 1075Q1330 1070 1320 1085Q1311 1097 1312 1118Q1312 1138 1321 1150Q1331 1165 1348 1161Q1405 1158 1433 1158Q1461 1158 1498 1161Q1513 1164 1522 1150Q1530 1137 1530 1117Q1530 1097 1522 1084Q1513 1070 1498 1075Q1479 1081 1469 1078Q1459 1075 1459 1062V751Q1459 680 1413 641Q1374 608 1316 608Q1274 608 1245 620Q1228 627 1206 644L1199 650L1197 651Q1186 658 1182 656Q1175 653 1178 629Q1140 632 1104 632Q1071 632 1056 629Q1045 625 1039 638Q1034 650 1034 670Q1034 689 1039 702Q1045 716 1056 715Q1075 712 1080 717Q1085 722 1085 746ZM1967 1100V733Q1967 719 1978 715Q1985 712 2004 712L2008 713Q2024 716 2034 703Q2043 691 2043 672Q2043 653 2034 640Q2024 625 2008 627Q1980 630 1949 630Q1918 630 1874 627Q1874 643 1870 644Q1867 646 1854 637Q1834 625 1817 618Q1789 608 1756 608Q1654 608 1596 689Q1545 761 1545 869Q1545 977 1596 1050Q1654 1133 1756 1133Q1794 1133 1822 1121Q1852 1109 1876 1083V1099Q1876 1153 1842 1185Q1807 1219 1743 1219Q1726 1219 1693 1209Q1662 1201 1639 1191Q1620 1182 1605 1190Q1590 1197 1584 1214Q1577 1230 1582 1247Q1588 1266 1607 1276Q1636 1292 1673 1299Q1704 1305 1743 1305Q1837 1305 1900 1251Q1967 1194 1967 1100ZM1759 694Q1816 694 1848 747Q1877 795 1877 869Q1877 942 1848 991Q1816 1047 1759 1047Q1701 1047 1669 991Q1641 942 1641 869Q1641 795 1669 747Q1701 694 1759 694ZM2286 608Q2189 608 2139 660Q2098 704 2098 771Q2098 863 2177 905Q2232 934 2313 934Q2369 934 2397 955Q2425 975 2425 1013Q2425 1051 2396 1071Q2366 1092 2306 1092Q2243 1092 2211 1065Q2176 1037 2179 978Q2181 965 2164 958Q2150 952 2129 954Q2107 956 2095 965Q2081 975 2087 991Q2094 1024 2095 1067Q2095 1111 2088 1140Q2083 1156 2096 1166Q2108 1175 2128 1177Q2148 1178 2162 1173Q2179 1167 2179 1157Q2178 1145 2185 1145Q2190 1146 2208 1153Q2233 1164 2250 1169Q2281 1178 2313 1178Q2421 1178 2474 1131Q2521 1089 2521 1013Q2521 926 2468 884Q2421 848 2338 848Q2265 848 2228 825Q2194 805 2194 770Q2194 733 2221 712Q2246 694 2288 694Q2348 694 2376 718Q2402 742 2404 793Q2402 807 2419 815Q2434 821 2456 819Q2477 817 2490 808Q2504 797 2499 783Q2490 753 2489 715Q2488 671 2499 640Q2504 629 2490 620Q2478 613 2458 610Q2437 606 2422 609Q2406 612 2406 622Q2407 634 2401 635Q2396 635 2380 629Q2357 619 2341 615Q2314 608 2286 608ZM2633 735V1014Q2633 1085 2676 1132Q2719 1178 2785 1178Q2821 1178 2848 1169Q2874 1160 2893 1142Q2902 1132 2907 1138Q2910 1142 2915 1162Q2950 1159 2978 1159Q3007 1159 3037 1162Q3051 1165 3060 1151Q3068 1138 3068 1118Q3068 1098 3060 1086Q3051 1072 3037 1076L3026 1077Q3006 1080 3002 1077Q2997 1072 2997 1047V625Q2962 628 2926 628Q2890 628 2857 625Q2843 623 2835 637Q2827 649 2827 667Q2827 685 2835 697Q2843 710 2857 709Q2888 704 2897 708Q2905 712 2905 729V1031Q2882 1064 2852 1078Q2824 1092 2784 1092Q2758 1092 2743 1077Q2725 1058 2725 1017V625Q2697 627 2653 627Q2607 627 2593 625Q2580 623 2572 636Q2566 648 2566 667Q2566 685 2572 697Q2580 710 2593 709Q2609 704 2620 710Q2633 716 2633 735ZM3145 540V1052Q3145 1072 3139 1076Q3136 1078 3124 1075L3118 1074Q3103 1070 3095 1084Q3088 1096 3088 1115Q3088 1134 3095 1147Q3103 1162 3118 1160Q3147 1157 3192 1157Q3232 1157 3263 1160Q3277 1162 3286 1148Q3294 1136 3294 1117Q3294 1097 3286 1085Q3277 1071 3263 1074L3257 1075Q3247 1078 3243 1075Q3237 1071 3237 1052V760Q3255 726 3284 710Q3313 694 3353 694Q3380 694 3397 711Q3418 733 3418 780V1052Q3418 1070 3412 1075Q3408 1077 3395 1076L3383 1075Q3367 1073 3358 1087Q3351 1100 3351 1118Q3351 1137 3359 1149Q3368 1163 3383 1161Q3424 1157 3469 1157Q3511 1157 3544 1161Q3560 1163 3570 1149Q3579 1136 3579 1117Q3579 1097 3570 1085Q3560 1071 3544 1075L3532 1076Q3518 1079 3515 1076Q3510 1071 3510 1052V767Q3510 684 3468 644Q3429 608 3353 608Q3323 608 3290 621Q3253 635 3237 658V424Q3196 430 3162 430Q3131 429 3118 424Q3103 422 3095 436Q3088 448 3088 467Q3088 485 3095 497Q3103 511 3118 510Q3131 505 3137 511Q3145 519 3145 540ZM3989 988Q3976 1048 3937 1073Q3906 1092 3849 1092Q3771 1092 3730 1001Q3694 920 3694 786Q3694 652 3736 574Q3778 494 3853 494Q3896 494 3923 519Q3955 547 3965 608L3979 697Q3981 715 3997 723Q4012 730 4030 726Q4049 722 4059 710Q4071 698 4067 683Q4048 616 4046 555Q4043 496 4056 440Q4059 426 4046 417Q4034 410 4013 409Q3994 407 3979 413Q3962 418 3962 429L3961 451Q3933 427 3914 419Q3887 408 3846 408Q3731 408 3665 505Q3599 605 3599 786Q3599 968 3661 1070Q3726 1178 3849 1178Q3927 1178 3980 1147Q4048 1107 4075 1017Q4081 993 4071 975Q4062 959 4044 953Q4025 947 4010 956Q3993 965 3989 988ZM4169 540V1052Q4169 1072 4163 1076Q4160 1078 4148 1075L4142 1074Q4127 1070 4119 1084Q4112 1096 4112 1115Q4112 1134 4119 1147Q4127 1162 4142 1160Q4171 1157 4216 1157Q4256 1157 4287 1160Q4301 1162 4310 1148Q4318 1136 4318 1117Q4318 1097 4310 1085Q4301 1071 4287 1074L4281 1075Q4271 1078 4267 1075Q4261 1071 4261 1052V760Q4279 726 4308 710Q4337 694 4377 694Q4404 694 4421 711Q4442 733 4442 780V1052Q4442 1070 4436 1075Q4432 1077 4419 1076L4407 1075Q4391 1073 4382 1087Q4375 1100 4375 1118Q4375 1137 4383 1149Q4392 1163 4407 1161Q4448 1157 4493 1157Q4535 1157 4568 1161Q4584 1163 4594 1149Q4603 1136 4603 1117Q4603 1097 4594 1085Q4584 1071 4568 1075L4556 1076Q4542 1079 4539 1076Q4534 1071 4534 1052V767Q4534 684 4492 644Q4453 608 4377 608Q4347 608 4314 621Q4277 635 4261 658V424Q4220 430 4186 430Q4155 429 4142 424Q4127 422 4119 436Q4112 448 4112 467Q4112 485 4119 497Q4127 511 4142 510Q4155 505 4161 511Q4169 519 4169 540ZM4864 608Q4757 608 4692 696Q4632 778 4632 894Q4632 1010 4694 1090Q4763 1178 4882 1178Q4937 1178 4981 1161Q5035 1141 5082 1094Q5098 1077 5097 1058Q5096 1042 5082 1029Q5069 1017 5052 1016Q5033 1015 5019 1030Q4983 1065 4954 1078Q4924 1092 4882 1092Q4815 1092 4772 1041Q4732 994 4729 926Q4767 922 4875 923Q4938 923 5073 925L5094 926L5096 894Q5096 778 5035 696Q4969 608 4864 608ZM4864 694Q4919 694 4956 739Q4989 779 4994 837Q4934 840 4865 840Q4802 840 4734 837Q4738 778 4771 738Q4807 694 4864 694Z" fill="currentColor" /></svg>