<svg viewBox="0 0 2777 2104" xmlns="http://www.w3.org/2000/svg"><path d="M383 928Q314 888 252.0 888.0Q190 888 158.5 927.5Q127 967 127 1058Q127 1173 181 1204Q209 1220 246.5 1220.0Q284 1220 318 1210L320 1169L318 1094L412 1088L410 1153L412 1271Q322 1301 246 1301Q134 1301 77.5 1239.5Q21 1178 21.0 1058.0Q21 938 86.5 871.5Q152 805 272 805Q351 806 414 835L393 926ZM798 1226Q807 1226 819 1223L826 1229L817 1281Q793 1296 762 1300Q715 1296 703 1244H695Q652 1285 607 1298Q551 1298 521.0 1272.5Q491 1247 491 1198L493 1110L490 952L586 944L583 1165Q583 1218 628 1218Q660 1218 693 1189V952L788 944L782 1204Q782 1226 798 1226ZM1093 947V1038L1083 1042Q1070 1037 1055 1037Q1012 1037 976 1092V1141L982 1294H882L887 1150L883 952L978 944L977 1013H983Q1019 946 1074 945Q1081 946 1093 947ZM1402 1037Q1402 1050 1397 1122Q1397 1122 1394 1204Q1394 1217 1397.0 1221.5Q1400 1226 1409.0 1226.0Q1418 1226 1430 1223L1438 1229L1428 1281Q1404 1296 1374 1300Q1326 1296 1316 1245H1311Q1273 1285 1234 1301Q1180 1300 1149.0 1272.0Q1118 1244 1118 1197Q1118 1124 1195 1109L1310 1088V1057Q1310 1008 1264.0 1008.0Q1218 1008 1156 1051L1148 1047L1137 981Q1203 939 1269.5 939.0Q1336 939 1369.0 965.0Q1402 991 1402 1037ZM1230 1155Q1207 1160 1207 1183Q1207 1228 1246 1228Q1275 1228 1308 1193L1310 1137ZM1559 881Q1535 881 1521.0 867.5Q1507 854 1507 830Q1507 806 1522.0 790.5Q1537 775 1561.0 775.0Q1585 775 1598.5 788.5Q1612 802 1612.0 826.5Q1612 851 1597.5 866.0Q1583 881 1559 881ZM1614 1141 1618 1274Q1618 1334 1589.5 1372.5Q1561 1411 1496 1440L1461 1396V1387Q1495 1368 1509.5 1342.0Q1524 1316 1524 1276L1525 1150L1521 1008H1462L1456 1003L1460 949H1524L1617 943L1619 945ZM1973 1037Q1973 1050 1968 1122Q1968 1122 1965 1204Q1965 1217 1968.0 1221.5Q1971 1226 1980.0 1226.0Q1989 1226 2001 1223L2009 1229L1999 1281Q1975 1296 1945 1300Q1897 1296 1887 1245H1882Q1844 1285 1805 1301Q1751 1300 1720.0 1272.0Q1689 1244 1689 1197Q1689 1124 1766 1109L1881 1088V1057Q1881 1008 1835.0 1008.0Q1789 1008 1727 1051L1719 1047L1708 981Q1774 939 1840.5 939.0Q1907 939 1940.0 965.0Q1973 991 1973 1037ZM1801 1155Q1778 1160 1778 1183Q1778 1228 1817 1228Q1846 1228 1879 1193L1881 1137ZM2363 1204Q2364 1217 2367.0 1221.5Q2370 1226 2379.0 1226.0Q2388 1226 2400 1223L2407 1229L2398 1281Q2374 1296 2343 1300Q2295 1296 2282 1248H2276Q2240 1282 2201 1299Q2127 1299 2087.0 1252.5Q2047 1206 2047.0 1120.0Q2047 1034 2093.5 987.0Q2140 940 2222 940Q2244 940 2270 944L2269 776L2368 768L2361 1141ZM2140 1104Q2140 1221 2211 1221Q2243 1221 2272 1190L2273 1149L2271 1020Q2242 1007 2216 1007Q2140 1007 2140 1104ZM2724 1037Q2724 1050 2719 1122Q2719 1122 2716 1204Q2716 1217 2719.0 1221.5Q2722 1226 2731.0 1226.0Q2740 1226 2752 1223L2760 1229L2750 1281Q2726 1296 2696 1300Q2648 1296 2638 1245H2633Q2595 1285 2556 1301Q2502 1300 2471.0 1272.0Q2440 1244 2440 1197Q2440 1124 2517 1109L2632 1088V1057Q2632 1008 2586.0 1008.0Q2540 1008 2478 1051L2470 1047L2459 981Q2525 939 2591.5 939.0Q2658 939 2691.0 965.0Q2724 991 2724 1037ZM2552 1155Q2529 1160 2529 1183Q2529 1228 2568 1228Q2597 1228 2630 1193L2632 1137Z" fill="currentColor" /></svg>