<svg viewBox="0 0 17763 2560" xmlns="http://www.w3.org/2000/svg"><path d="M442 1850Q346 1844 214 1844H182V509Q244 514 270 514H311Q390 514 442 506V1039H912V509Q995 514 1073.5 514.0Q1152 514 1172 506V1850Q1124 1844 982 1844H912V1279H442ZM2201 1782Q2059 1859 1944.0 1859.0Q1829 1859 1747.0 1837.5Q1665 1816 1608 1774Q1492 1689 1492 1528Q1492 1384 1634 1288Q1788 1184 2052 1184L2092 1185Q2104 1186 2119.0 1186.5Q2134 1187 2146 1189Q2138 1029 2008 1002Q1965 993 1916.5 993.0Q1868 993 1821.5 1001.5Q1775 1010 1731 1024Q1634 1055 1592 1095L1589 1093L1559 872Q1736 779 1946 779Q2272 779 2363 1014Q2392 1089 2392 1183V1545Q2392 1661 2474 1703L2293 1869Q2236 1839 2201 1782ZM2147 1369Q2120 1364 2091 1364H2051Q1830 1364 1770 1462Q1752 1491 1752.0 1523.0Q1752 1555 1763.5 1579.5Q1775 1604 1802 1620Q1854 1650 1956.5 1650.0Q2059 1650 2148 1601Q2147 1590 2147 1578ZM2974 1555Q2974 1780 2982 1844H2721V799H2974V889Q3111 779 3255 779Q3425 779 3502 926Q3579 847 3630 822Q3715 779 3800.5 779.0Q3886 779 3946.0 808.0Q4006 837 4045 890Q4124 997 4124 1184V1582Q4124 1751 4129.0 1785.0Q4134 1819 4142.5 1829.0Q4151 1839 4157 1847L4155 1851Q4075 1844 4037 1844H3962Q3925 1844 3871 1847V1306Q3871 1072 3799 1028Q3775 1014 3742.5 1014.0Q3710 1014 3685.0 1021.5Q3660 1029 3638 1046Q3601 1073 3554 1152Q3555 1160 3555.0 1168.0Q3555 1176 3555.0 1432.0Q3555 1688 3567 1844Q3482 1844 3422.5 1844.0Q3363 1844 3309 1847V1305Q3309 1142 3289.5 1093.0Q3270 1044 3248.0 1029.0Q3226 1014 3194 1014Q3062 1014 2974 1141ZM4684 1555Q4684 1780 4692 1844H4431V799H4684V889Q4821 779 4965 779Q5135 779 5212 926Q5289 847 5340 822Q5425 779 5510.5 779.0Q5596 779 5656.0 808.0Q5716 837 5755 890Q5834 997 5834 1184V1582Q5834 1751 5839.0 1785.0Q5844 1819 5852.5 1829.0Q5861 1839 5867 1847L5865 1851Q5785 1844 5747 1844H5672Q5635 1844 5581 1847V1306Q5581 1072 5509 1028Q5485 1014 5452.5 1014.0Q5420 1014 5395.0 1021.5Q5370 1029 5348 1046Q5311 1073 5264 1152Q5265 1160 5265.0 1168.0Q5265 1176 5265.0 1432.0Q5265 1688 5277 1844Q5192 1844 5132.5 1844.0Q5073 1844 5019 1847V1305Q5019 1142 4999.5 1093.0Q4980 1044 4958.0 1029.0Q4936 1014 4904 1014Q4772 1014 4684 1141ZM6074 1330Q6074 1213 6114.0 1113.0Q6154 1013 6227 938Q6383 779 6635 779Q6848 779 6977 920Q7104 1056 7104 1262Q7104 1341 7092 1370Q6992 1398 6685 1398H6333Q6359 1505 6454.0 1564.5Q6549 1624 6701 1624Q6860 1624 6974 1567Q7004 1552 7019 1539Q7017 1581 7014 1625L7003 1781Q6927 1833 6757 1853Q6707 1859 6661 1859Q6407 1859 6241 1711Q6074 1562 6074 1330ZM6838 1204Q6797 989 6604 989Q6452 989 6373 1120Q6349 1160 6336 1208Q6360 1209 6395 1210H6469Q6506 1211 6540 1211H6597Q6648 1211 6697 1210L6779 1207Q6812 1206 6838 1204ZM7557 1732Q7557 1818 7561 1844H7312V799H7557V876Q7642 779 7735.5 779.0Q7829 779 7883 802L7865 1071L7861 1074Q7826 1012 7716 1012Q7674 1012 7630.5 1040.5Q7587 1069 7557 1116ZM8357 1859Q8075 1859 7932 1756Q7934 1726 7938 1688L7947 1616Q7955 1545 7957.0 1527.5Q7959 1510 7960.0 1508.5Q7961 1507 7976.0 1524.5Q7991 1542 8033.0 1567.0Q8075 1592 8130 1611Q8249 1652 8378 1652Q8551 1652 8551 1537Q8551 1500 8518 1482Q8459 1452 8344.5 1436.5Q8230 1421 8157.0 1391.0Q8084 1361 8038 1319Q7953 1240 7953 1112Q7953 956 8073 867Q8192 779 8402 779Q8610 779 8757 897Q8750 923 8742 947Q8719 1013 8708 1042L8685 1101Q8683 1109 8682 1109Q8680 1109 8666 1088Q8603 1015 8470 992Q8429 984 8386 984Q8204 984 8204 1094Q8204 1132 8242 1152Q8313 1190 8436.5 1208.0Q8560 1226 8624.0 1256.5Q8688 1287 8727 1330Q8799 1408 8799 1537Q8799 1678 8686 1766Q8568 1859 8357 1859ZM9301 1555Q9301 1780 9309 1844H9048V799H9301V889Q9438 779 9582 779Q9752 779 9829 926Q9906 847 9957 822Q10042 779 10127.5 779.0Q10213 779 10273.0 808.0Q10333 837 10372 890Q10451 997 10451 1184V1582Q10451 1751 10456.0 1785.0Q10461 1819 10469.5 1829.0Q10478 1839 10484 1847L10482 1851Q10402 1844 10364 1844H10289Q10252 1844 10198 1847V1306Q10198 1072 10126 1028Q10102 1014 10069.5 1014.0Q10037 1014 10012.0 1021.5Q9987 1029 9965 1046Q9928 1073 9881 1152Q9882 1160 9882.0 1168.0Q9882 1176 9882.0 1432.0Q9882 1688 9894 1844Q9809 1844 9749.5 1844.0Q9690 1844 9636 1847V1305Q9636 1142 9616.5 1093.0Q9597 1044 9575.0 1029.0Q9553 1014 9521 1014Q9389 1014 9301 1141ZM10709 501Q10789 376 10876 281L11091 450Q11048 503 11011 554Q11011 554 10934 663ZM10972 1732Q10972 1818 10976 1844H10722V799H10972ZM11718 1624Q11847 1624 11895 1557H11903L11906 1789Q11857 1838 11724 1854Q11688 1859 11634.5 1859.0Q11581 1859 11518.5 1839.0Q11456 1819 11412 1774Q11321 1681 11321 1483V1029H11170Q11169 1000 11169 970V816Q11169 799 11170 799H11321V514H11566V799H11841V1029H11566V1437Q11566 1594 11653 1616Q11681 1624 11718 1624ZM12380 1732Q12380 1818 12384 1844H12135V414H12380V877Q12509 779 12646 779Q12814 779 12916 890Q13016 1001 13016 1184V1582Q13016 1751 13021.0 1785.0Q13026 1819 13034.5 1829.0Q13043 1839 13049 1847L13047 1851Q12966 1844 12929 1844H12858Q12825 1844 12771 1847V1268Q12771 1130 12710 1064Q12664 1014 12585 1014Q12468 1014 12380 1149ZM14617 489Q14893 489 15082 663Q15284 849 15284 1165Q15284 1471 15076 1674Q14948 1799 14771 1846Q14684 1869 14567.5 1869.0Q14451 1869 14328.5 1821.0Q14206 1773 14115.0 1686.0Q14024 1599 13971.5 1477.0Q13919 1355 13919.0 1209.5Q13919 1064 13968.0 934.0Q14017 804 14108.0 705.0Q14199 606 14328.0 547.5Q14457 489 14617 489ZM14197 1196Q14197 1289 14228.0 1367.0Q14259 1445 14314 1501Q14431 1619 14615 1619Q14790 1619 14896 1506Q15004 1389 15004 1187Q15004 997 14901 870Q14790 734 14597 734Q14410 734 14300 872Q14197 1001 14197 1196ZM15779 1716Q15779 1804 15787 1844H15536V799H15779V888Q15911 779 16061 779Q16225 779 16323.0 890.5Q16421 1002 16421 1184V1582Q16421 1751 16426.0 1785.0Q16431 1819 16439.5 1829.0Q16448 1839 16454 1847L16452 1851Q16371 1844 16334 1844H16264Q16232 1844 16178 1847V1302Q16178 1009 16000 1009Q15868 1009 15779 1145ZM16663 1330Q16663 1213 16703.0 1113.0Q16743 1013 16816 938Q16972 779 17224 779Q17437 779 17566 920Q17693 1056 17693 1262Q17693 1341 17681 1370Q17581 1398 17274 1398H16922Q16948 1505 17043.0 1564.5Q17138 1624 17290 1624Q17449 1624 17563 1567Q17593 1552 17608 1539Q17606 1581 17603 1625L17592 1781Q17516 1833 17346 1853Q17296 1859 17250 1859Q16996 1859 16830 1711Q16663 1562 16663 1330ZM17427 1204Q17386 989 17193 989Q17041 989 16962 1120Q16938 1160 16925 1208Q16949 1209 16984 1210H17058Q17095 1211 17129 1211H17186Q17237 1211 17286 1210L17368 1207Q17401 1206 17427 1204Z" fill="currentColor" /></svg>