<svg viewBox="0 0 7475 1113" xmlns="http://www.w3.org/2000/svg"><path d="M0 1095Q8 1050 9.5 965.0Q11 880 11 769V327Q11 216 9.5 130.5Q8 45 0 0H153V469H693V0H847Q839 45 837.5 130.5Q836 216 836 327V769Q836 880 837.5 965.0Q839 1050 847 1095H693V589H153V1095ZM1301 1113Q1195 1113 1126.0 1050.0Q1057 987 1057 904Q1057 847 1083.5 790.0Q1110 733 1175.5 691.0Q1241 649 1357 638Q1383 635 1425.0 631.0Q1467 627 1505.5 623.5Q1544 620 1559 619V563Q1559 495 1511.5 465.0Q1464 435 1379 435Q1320 435 1260.5 459.0Q1201 483 1136 529Q1136 504 1138.0 455.5Q1140 407 1143 383Q1201 358 1264.5 336.5Q1328 315 1413 315Q1543 315 1620.5 375.5Q1698 436 1698 525V818Q1698 899 1713.5 965.5Q1729 1032 1754 1095H1619Q1612 1077 1601.0 1046.0Q1590 1015 1582 979Q1515 1050 1443.0 1081.5Q1371 1113 1301 1113ZM1323 990Q1381 990 1436.5 966.0Q1492 942 1559 852V724Q1541 725 1503.5 728.5Q1466 732 1427.0 736.0Q1388 740 1364 743Q1269 754 1230.5 793.5Q1192 833 1192 885Q1192 935 1227.0 962.5Q1262 990 1323 990ZM1942 1095V634Q1942 524 1929.5 446.5Q1917 369 1904 330H2039Q2048 354 2056.5 402.0Q2065 450 2069 477Q2124 398 2193.0 356.5Q2262 315 2313 315Q2376 315 2414.0 350.5Q2452 386 2469.0 443.5Q2486 501 2486 567L2366 593Q2366 537 2345.0 493.5Q2324 450 2279 450Q2248 450 2208.0 481.5Q2168 513 2133.0 561.0Q2098 609 2081 660V1095ZM2624 1095V634Q2624 524 2611.0 446.5Q2598 369 2586 330H2721Q2730 354 2735.5 387.0Q2741 420 2745 447Q2814 367 2874.5 341.0Q2935 315 2999 315Q3073 315 3119.0 353.0Q3165 391 3183 441Q3254 365 3316.5 340.0Q3379 315 3438 315Q3552 315 3596.0 388.0Q3640 461 3640 600V1095H3501V683Q3501 586 3491.5 535.0Q3482 484 3458.5 465.5Q3435 447 3393 447Q3338 447 3286.0 488.5Q3234 530 3201 600V1095H3063V668Q3063 575 3053.5 527.5Q3044 480 3020.0 463.5Q2996 447 2954 447Q2899 447 2845.5 489.5Q2792 532 2763 600V1095ZM4071 1113Q3965 1113 3896.0 1050.0Q3827 987 3827 904Q3827 847 3853.5 790.0Q3880 733 3945.5 691.0Q4011 649 4127 638Q4153 635 4195.0 631.0Q4237 627 4275.5 623.5Q4314 620 4329 619V563Q4329 495 4281.5 465.0Q4234 435 4149 435Q4090 435 4030.5 459.0Q3971 483 3906 529Q3906 504 3908.0 455.5Q3910 407 3913 383Q3971 358 4034.5 336.5Q4098 315 4183 315Q4313 315 4390.5 375.5Q4468 436 4468 525V818Q4468 899 4483.5 965.5Q4499 1032 4524 1095H4389Q4382 1077 4371.0 1046.0Q4360 1015 4352 979Q4285 1050 4213.0 1081.5Q4141 1113 4071 1113ZM4093 990Q4151 990 4206.5 966.0Q4262 942 4329 852V724Q4311 725 4273.5 728.5Q4236 732 4197.0 736.0Q4158 740 4134 743Q4039 754 4000.5 793.5Q3962 833 3962 885Q3962 935 3997.0 962.5Q4032 990 4093 990ZM4980 1113Q4892 1113 4830.0 1068.0Q4768 1023 4768 893V105H4907V803Q4907 918 4929.5 954.0Q4952 990 5003 990Q5066 990 5166 934V1054Q5114 1087 5066.5 1100.0Q5019 1113 4980 1113ZM4618 458V349H5151V458ZM5606 1113Q5518 1113 5456.0 1068.0Q5394 1023 5394 893V105H5533V803Q5533 918 5555.5 954.0Q5578 990 5629 990Q5692 990 5792 934V1054Q5740 1087 5692.5 1100.0Q5645 1113 5606 1113ZM5244 458V349H5777V458ZM6163 1113Q6057 1113 5988.0 1050.0Q5919 987 5919 904Q5919 847 5945.5 790.0Q5972 733 6037.5 691.0Q6103 649 6219 638Q6245 635 6287.0 631.0Q6329 627 6367.5 623.5Q6406 620 6421 619V563Q6421 495 6373.5 465.0Q6326 435 6241 435Q6182 435 6122.5 459.0Q6063 483 5998 529Q5998 504 6000.0 455.5Q6002 407 6005 383Q6063 358 6126.5 336.5Q6190 315 6275 315Q6405 315 6482.5 375.5Q6560 436 6560 525V818Q6560 899 6575.5 965.5Q6591 1032 6616 1095H6481Q6474 1077 6463.0 1046.0Q6452 1015 6444 979Q6377 1050 6305.0 1081.5Q6233 1113 6163 1113ZM6185 990Q6243 990 6298.5 966.0Q6354 942 6421 852V724Q6403 725 6365.5 728.5Q6328 732 6289.0 736.0Q6250 740 6226 743Q6131 754 6092.5 793.5Q6054 833 6054 885Q6054 935 6089.0 962.5Q6124 990 6185 990ZM6804 1095Q6804 1095 6804.0 1045.0Q6804 995 6804.0 919.5Q6804 844 6804.0 766.5Q6804 689 6804 634Q6804 524 6791.5 446.5Q6779 369 6766 330H6901Q6910 354 6918.5 402.0Q6927 450 6931 477Q7003 391 7076.0 353.0Q7149 315 7228 315Q7347 315 7411.0 393.5Q7475 472 7475 627Q7475 664 7475.0 722.5Q7475 781 7475.0 845.0Q7475 909 7475.0 966.0Q7475 1023 7475.0 1059.0Q7475 1095 7475 1095H7336Q7336 1095 7336.0 1046.5Q7336 998 7336.0 927.5Q7336 857 7336.0 789.5Q7336 722 7336 683Q7336 542 7299.5 494.5Q7263 447 7186 447Q7132 447 7082.5 479.0Q7033 511 6996.5 560.0Q6960 609 6943 660V1095Z" fill="currentColor" /></svg>