<svg viewBox="0 0 11876 3629" xmlns="http://www.w3.org/2000/svg"><path d="M88 530Q106 530 135.5 540.0Q165 550 205.5 564.5Q246 579 296.5 594.5Q347 610 406 622Q464 634 528.5 641.5Q593 649 650.0 653.5Q707 658 750.5 661.0Q794 664 809 665Q823 667 831.5 670.5Q840 674 840 684Q840 695 831.0 698.5Q822 702 811 702Q789 702 746.5 699.0Q704 696 657 696Q622 696 595.5 702.5Q569 709 551.5 724.0Q534 739 524.0 763.5Q514 788 512 825Q510 846 509.5 879.5Q509 913 508.5 954.0Q508 995 508.0 1041.5Q508 1088 508 1136Q508 1194 508.0 1249.0Q508 1304 508.0 1350.0Q508 1396 508.5 1428.0Q509 1460 510 1472Q511 1498 516.0 1514.0Q521 1530 530.0 1539.0Q539 1548 551.0 1551.0Q563 1554 578 1554Q606 1554 646.0 1551.5Q686 1549 731.5 1545.0Q777 1541 823.0 1535.5Q869 1530 908.5 1525.5Q948 1521 978.0 1517.0Q1008 1513 1020 1511Q1054 1505 1074.0 1488.0Q1094 1471 1103.5 1447.0Q1113 1423 1115.5 1392.5Q1118 1362 1118 1329Q1118 1284 1114.5 1236.5Q1111 1189 1106.0 1146.0Q1101 1103 1095.5 1068.0Q1090 1033 1087 1015Q1081 976 1069.0 954.5Q1057 933 1042.5 922.5Q1028 912 1012.5 909.5Q997 907 985 907Q951 907 915.5 909.0Q880 911 860 911Q840 911 829.5 903.0Q819 895 819 882Q819 871 827.5 861.0Q836 851 868 849Q898 848 935.5 845.5Q973 843 1014.5 838.5Q1056 834 1099.0 828.0Q1142 822 1184 813Q1222 804 1265.5 791.5Q1309 779 1350.5 767.5Q1392 756 1428.0 747.5Q1464 739 1487 739Q1510 739 1516.0 746.0Q1522 753 1522 761Q1522 775 1510.5 780.5Q1499 786 1485 786Q1478 786 1466.0 787.0Q1454 788 1441.0 790.5Q1428 793 1415.0 797.0Q1402 801 1393 808Q1377 821 1363.5 843.5Q1350 866 1343 911Q1338 947 1335.5 1001.5Q1333 1056 1331.0 1116.0Q1329 1176 1327.5 1236.0Q1326 1296 1325 1343Q1324 1367 1322.5 1413.5Q1321 1460 1320.0 1520.5Q1319 1581 1317.5 1652.5Q1316 1724 1315.0 1797.5Q1314 1871 1313.5 1944.5Q1313 2018 1313 2082Q1313 2136 1313.0 2181.0Q1313 2226 1315 2258Q1316 2290 1323.5 2310.5Q1331 2331 1341.0 2343.5Q1351 2356 1362.5 2362.5Q1374 2369 1384 2373Q1406 2381 1431.0 2385.0Q1456 2389 1485 2396Q1499 2399 1503.0 2403.5Q1507 2408 1507 2414Q1507 2416 1506.0 2419.5Q1505 2423 1501.5 2426.0Q1498 2429 1490.0 2431.0Q1482 2433 1468 2433Q1456 2433 1425.5 2430.5Q1395 2428 1357.0 2424.5Q1319 2421 1279.0 2418.5Q1239 2416 1208 2416Q1167 2416 1127.0 2419.5Q1087 2423 1051.0 2427.5Q1015 2432 983.0 2435.5Q951 2439 926 2439Q884 2439 872.0 2428.5Q860 2418 860 2406Q860 2390 872.5 2385.5Q885 2381 903 2381Q960 2379 998.5 2375.5Q1037 2372 1071 2357Q1096 2345 1111.5 2328.5Q1127 2312 1134.5 2292.5Q1142 2273 1144.5 2252.5Q1147 2232 1147 2213Q1147 2198 1145.0 2159.0Q1143 2120 1139.5 2067.5Q1136 2015 1131.5 1955.5Q1127 1896 1122.0 1839.5Q1117 1783 1112.5 1736.0Q1108 1689 1104 1662Q1099 1632 1091.5 1614.5Q1084 1597 1073.5 1588.0Q1063 1579 1049.0 1576.5Q1035 1574 1018 1574Q1000 1574 963.5 1577.0Q927 1580 881.5 1584.5Q836 1589 786.5 1595.0Q737 1601 693.5 1607.0Q650 1613 616.0 1619.0Q582 1625 569 1630Q550 1636 539.0 1646.0Q528 1656 523.0 1667.5Q518 1679 516.5 1691.5Q515 1704 514 1716Q514 1745 514.5 1795.0Q515 1845 515.5 1905.5Q516 1966 517.0 2032.5Q518 2099 518.5 2161.0Q519 2223 519.5 2275.5Q520 2328 520 2361Q520 2408 526.0 2437.0Q532 2466 542.0 2483.5Q552 2501 566.0 2511.5Q580 2522 596 2531Q613 2540 628.0 2547.5Q643 2555 643 2568Q643 2576 636.5 2579.0Q630 2582 621 2582Q600 2582 577.5 2576.0Q555 2570 525.0 2563.5Q495 2557 453.5 2551.0Q412 2545 354 2545Q294 2545 243.5 2552.0Q193 2559 153.0 2567.5Q113 2576 84.0 2583.0Q55 2590 37 2590Q0 2590 0 2564Q0 2548 8.5 2541.0Q17 2534 31 2529Q37 2527 51.0 2524.0Q65 2521 84.5 2517.5Q104 2514 127.0 2509.0Q150 2504 174 2498Q206 2490 224.0 2476.0Q242 2462 250.5 2444.5Q259 2427 261.0 2407.0Q263 2387 264 2367Q264 2361 265.0 2326.5Q266 2292 268.0 2239.5Q270 2187 272.0 2119.5Q274 2052 276.0 1979.5Q278 1907 279.0 1834.5Q280 1762 281 1697Q281 1682 281.5 1647.5Q282 1613 282.0 1565.0Q282 1517 282.5 1458.0Q283 1399 283 1335Q283 1250 282.5 1162.0Q282 1074 280.5 997.5Q279 921 276.5 863.0Q274 805 270 780Q266 751 259.0 728.5Q252 706 240.0 688.0Q228 670 211.5 655.0Q195 640 172 626Q150 613 130.0 603.0Q110 593 94.5 585.0Q79 577 70.0 568.5Q61 560 61 550Q61 541 67.0 535.5Q73 530 88 530ZM2341 1794Q2355 1817 2366.5 1856.0Q2378 1895 2378 1935Q2378 2008 2354.0 2065.5Q2330 2123 2285.0 2162.5Q2240 2202 2176.5 2223.0Q2113 2244 2034 2244Q1920 2244 1830.5 2205.5Q1741 2167 1680.0 2098.0Q1619 2029 1587.0 1933.5Q1555 1838 1555 1724Q1555 1621 1577.0 1537.0Q1599 1453 1637.0 1387.0Q1675 1321 1725.0 1272.0Q1775 1223 1831.0 1191.0Q1887 1159 1945.0 1143.5Q2003 1128 2057 1128Q2110 1128 2167.0 1142.0Q2224 1156 2271.5 1190.0Q2319 1224 2349.5 1279.5Q2380 1335 2380 1419Q2380 1492 2358.5 1547.0Q2337 1602 2302.0 1642.0Q2267 1682 2222.5 1708.0Q2178 1734 2131.5 1749.5Q2085 1765 2040.5 1771.0Q1996 1777 1962 1777Q1913 1777 1866.5 1770.0Q1820 1763 1794 1755Q1798 1833 1818.5 1905.5Q1839 1978 1877.0 2033.0Q1915 2088 1971.5 2121.0Q2028 2154 2104 2154Q2157 2154 2195.5 2136.0Q2234 2118 2259.0 2087.5Q2284 2057 2296.0 2017.0Q2308 1977 2308 1933Q2308 1907 2304.5 1879.0Q2301 1851 2292 1826Q2286 1811 2282.0 1798.0Q2278 1785 2278 1777Q2278 1757 2296 1757Q2305 1757 2317.5 1766.0Q2330 1775 2341 1794ZM1790 1689Q1816 1697 1849.0 1702.5Q1882 1708 1932 1708Q1990 1708 2039.0 1686.0Q2088 1664 2123.0 1624.5Q2158 1585 2178.0 1529.0Q2198 1473 2198 1404Q2198 1343 2184.5 1301.5Q2171 1260 2149.0 1235.0Q2127 1210 2098.5 1199.5Q2070 1189 2040 1189Q2002 1189 1958.0 1212.0Q1914 1235 1876.5 1292.0Q1839 1349 1814.5 1445.5Q1790 1542 1790 1689ZM3877 1458Q3875 1482 3874.5 1499.5Q3874 1517 3872.5 1535.0Q3871 1553 3869.5 1575.0Q3868 1597 3865 1628Q3890 1569 3926.0 1527.0Q3962 1485 4001.5 1458.0Q4041 1431 4082.0 1418.5Q4123 1406 4158 1406Q4229 1406 4282.0 1434.5Q4335 1463 4370.0 1513.5Q4405 1564 4422.0 1634.0Q4439 1704 4439 1787Q4439 1836 4431.0 1893.5Q4423 1951 4413.0 2004.5Q4403 2058 4395.0 2102.0Q4387 2146 4387 2168Q4387 2184 4392.0 2196.0Q4397 2208 4410 2218Q4432 2235 4451.5 2242.5Q4471 2250 4482 2256Q4490 2260 4490 2271Q4490 2277 4485.5 2282.0Q4481 2287 4471 2287Q4444 2287 4408.0 2277.5Q4372 2268 4327.5 2256.5Q4283 2245 4230.0 2235.5Q4177 2226 4117 2226Q4080 2226 4048.5 2227.0Q4017 2228 4000 2228Q3988 2228 3980.0 2222.0Q3972 2216 3972 2205Q3972 2191 3980.5 2186.0Q3989 2181 4000 2181Q4020 2181 4032.5 2183.0Q4045 2185 4068 2185Q4110 2185 4133.0 2159.5Q4156 2134 4170 2097Q4179 2075 4187.5 2035.5Q4196 1996 4203.0 1949.0Q4210 1902 4214.5 1851.5Q4219 1801 4219 1757Q4219 1723 4214.0 1681.0Q4209 1639 4193.0 1602.5Q4177 1566 4147.5 1541.5Q4118 1517 4070 1517Q4017 1517 3979.5 1553.0Q3942 1589 3918.0 1645.5Q3894 1702 3882.5 1769.5Q3871 1837 3871 1900Q3871 1948 3877.5 1988.0Q3884 2028 3894 2048Q3900 2060 3910.0 2067.5Q3920 2075 3932.0 2079.5Q3944 2084 3956.5 2085.5Q3969 2087 3980 2088Q3997 2090 4005.0 2095.0Q4013 2100 4013 2111Q4013 2126 4000.0 2131.0Q3987 2136 3967 2136Q3918 2136 3873.0 2140.0Q3828 2144 3777 2152Q3743 2157 3717.0 2164.0Q3691 2171 3669.0 2177.0Q3647 2183 3629.0 2187.0Q3611 2191 3593 2191Q3564 2191 3557.0 2180.5Q3550 2170 3550 2164Q3550 2153 3555.5 2148.0Q3561 2143 3570 2140Q3592 2133 3609.5 2125.5Q3627 2118 3639.5 2104.5Q3652 2091 3660.0 2069.5Q3668 2048 3671 2013Q3672 2000 3673.0 1968.0Q3674 1936 3675.5 1894.5Q3677 1853 3678.5 1804.5Q3680 1756 3681.5 1709.5Q3683 1663 3684.0 1621.5Q3685 1580 3685 1552Q3685 1524 3683.0 1500.0Q3681 1476 3674.5 1458.0Q3668 1440 3655.5 1429.5Q3643 1419 3621 1419Q3594 1419 3578.0 1414.5Q3562 1410 3562 1396Q3562 1380 3591 1374Q3665 1361 3712.5 1341.5Q3760 1322 3789.0 1304.0Q3818 1286 3833.5 1273.5Q3849 1261 3859 1261Q3874 1261 3877.5 1287.5Q3881 1314 3881 1357Q3881 1363 3880.5 1375.5Q3880 1388 3879.5 1403.0Q3879 1418 3878.5 1432.5Q3878 1447 3877 1458ZM2755 1036Q2763 1036 2771.0 1061.5Q2779 1087 2787.0 1128.0Q2795 1169 2803.0 1222.5Q2811 1276 2819 1331L2855 1583Q2860 1550 2872.5 1507.0Q2885 1464 2906.0 1418.0Q2927 1372 2957.0 1328.0Q2987 1284 3026.5 1249.0Q3066 1214 3115.5 1192.5Q3165 1171 3226 1171Q3301 1171 3356.0 1199.5Q3411 1228 3447.0 1278.5Q3483 1329 3500.0 1399.0Q3517 1469 3517 1552Q3517 1627 3508.5 1702.5Q3500 1778 3490.5 1851.0Q3481 1924 3472.5 1992.0Q3464 2060 3464 2119Q3464 2154 3470.0 2180.0Q3476 2206 3488 2228Q3502 2249 3522.5 2264.5Q3543 2280 3561.5 2293.5Q3580 2307 3593.5 2320.5Q3607 2334 3607 2349Q3607 2358 3602.0 2364.5Q3597 2371 3585 2371Q3567 2371 3545.5 2357.5Q3524 2344 3492.5 2323.5Q3461 2303 3417.0 2279.5Q3373 2256 3310 2236Q3262 2220 3214.5 2211.0Q3167 2202 3105 2199Q3070 2196 3070 2179Q3070 2160 3093 2160Q3107 2160 3132.0 2160.0Q3157 2160 3183 2158Q3223 2155 3249.0 2133.5Q3275 2112 3288 2054Q3292 2031 3296.0 1995.5Q3300 1960 3303.0 1919.5Q3306 1879 3308.0 1837.0Q3310 1795 3310 1757Q3310 1723 3309.0 1678.5Q3308 1634 3302.5 1586.0Q3297 1538 3285.5 1492.0Q3274 1446 3252.0 1410.0Q3230 1374 3196.0 1351.5Q3162 1329 3113 1329Q3059 1329 3021.0 1357.5Q2983 1386 2957.5 1432.0Q2932 1478 2917.0 1536.0Q2902 1594 2894.0 1654.0Q2886 1714 2884.0 1770.0Q2882 1826 2882 1867Q2882 1922 2886.0 1972.5Q2890 2023 2897.0 2065.5Q2904 2108 2914.0 2141.0Q2924 2174 2937 2193Q2956 2219 2978.0 2232.0Q3000 2245 3015 2250Q3035 2256 3043.5 2260.5Q3052 2265 3052 2273Q3052 2289 3011 2289Q2990 2289 2965.0 2285.5Q2940 2282 2913.0 2278.0Q2886 2274 2857.0 2270.5Q2828 2267 2800 2267Q2772 2267 2743.0 2269.0Q2714 2271 2687.5 2273.0Q2661 2275 2639.0 2277.0Q2617 2279 2604 2279Q2565 2279 2565 2254Q2565 2245 2571.5 2238.5Q2578 2232 2595 2230Q2609 2229 2620.0 2228.0Q2631 2227 2642.5 2226.5Q2654 2226 2666.5 2225.0Q2679 2224 2696 2222Q2728 2217 2739.5 2198.5Q2751 2180 2751 2148Q2751 2093 2741.5 2014.0Q2732 1935 2716.0 1840.0Q2700 1745 2677.5 1638.5Q2655 1532 2630 1421Q2618 1364 2602.5 1336.0Q2587 1308 2558 1308Q2543 1308 2527.0 1313.5Q2511 1319 2495.5 1325.5Q2480 1332 2466.0 1337.5Q2452 1343 2440 1343Q2421 1343 2421 1327Q2421 1314 2431.5 1308.5Q2442 1303 2454 1298Q2482 1287 2516.5 1268.0Q2551 1249 2589 1220Q2627 1191 2655.0 1158.5Q2683 1126 2703.0 1099.0Q2723 1072 2735.5 1054.0Q2748 1036 2755 1036ZM5047 1226Q5055 1226 5061.0 1230.0Q5067 1234 5067 1245Q5067 1259 5053 1269Q5041 1279 5015.0 1294.0Q4989 1309 4947 1341Q4921 1360 4906.5 1383.0Q4892 1406 4885.0 1433.0Q4878 1460 4876.5 1492.5Q4875 1525 4875 1562Q4876 1637 4885.0 1709.0Q4894 1781 4908.0 1843.5Q4922 1906 4939.0 1956.5Q4956 2007 4973 2041Q5008 2113 5060.0 2156.0Q5112 2199 5186 2199Q5238 2199 5276.5 2174.0Q5315 2149 5342.0 2108.5Q5369 2068 5386.0 2016.5Q5403 1965 5413.0 1912.0Q5423 1859 5426.5 1809.0Q5430 1759 5430 1722Q5430 1623 5414.0 1571.0Q5398 1519 5366 1499Q5353 1490 5336.0 1484.0Q5319 1478 5302.0 1473.5Q5285 1469 5270.0 1465.5Q5255 1462 5246 1460Q5224 1455 5215.5 1447.0Q5207 1439 5207 1425Q5207 1411 5216.5 1402.5Q5226 1394 5241 1394Q5270 1394 5319.0 1399.0Q5368 1404 5434 1404Q5470 1404 5513.5 1399.5Q5557 1395 5598.0 1388.5Q5639 1382 5673.0 1374.5Q5707 1367 5725 1361Q5739 1356 5748.0 1354.5Q5757 1353 5762 1353Q5774 1353 5782.0 1359.0Q5790 1365 5790 1376Q5790 1387 5785.5 1393.5Q5781 1400 5772 1406Q5749 1422 5727.0 1435.5Q5705 1449 5694 1474Q5685 1495 5680.0 1525.0Q5675 1555 5671.5 1598.5Q5668 1642 5664.5 1702.0Q5661 1762 5655 1845Q5648 1936 5636.0 2040.0Q5624 2144 5604.5 2256.5Q5585 2369 5556.0 2489.0Q5527 2609 5487 2732Q5446 2856 5392.0 2954.5Q5338 3053 5271.0 3122.0Q5204 3191 5126.0 3227.5Q5048 3264 4961 3264Q4899 3264 4848.0 3245.0Q4797 3226 4760.5 3191.5Q4724 3157 4704.0 3109.0Q4684 3061 4684 3002Q4684 2939 4702.5 2886.5Q4721 2834 4753.5 2795.5Q4786 2757 4830.5 2736.0Q4875 2715 4928 2715Q4971 2715 5003.5 2729.0Q5036 2743 5058.0 2766.0Q5080 2789 5091.0 2818.5Q5102 2848 5102 2879Q5102 2906 5093.5 2929.5Q5085 2953 5069.0 2970.5Q5053 2988 5029.5 2998.0Q5006 3008 4977 3008Q4943 3008 4921.5 2997.0Q4900 2986 4886.0 2970.0Q4872 2954 4863.0 2934.5Q4854 2915 4846.0 2899.0Q4838 2883 4829.0 2872.0Q4820 2861 4805 2861Q4789 2861 4776.0 2873.0Q4763 2885 4753.5 2904.5Q4744 2924 4739.0 2948.5Q4734 2973 4734 2998Q4734 3046 4751.0 3086.0Q4768 3126 4798.5 3154.0Q4829 3182 4871.0 3197.5Q4913 3213 4963 3213Q5047 3213 5110.5 3175.0Q5174 3137 5221.0 3079.0Q5268 3021 5300.5 2951.5Q5333 2882 5353.0 2819.0Q5373 2756 5382.5 2708.5Q5392 2661 5395 2646Q5423 2469 5431.5 2340.0Q5440 2211 5440 2136Q5440 2111 5439.5 2092.5Q5439 2074 5438 2061Q5437 2046 5436 2035Q5429 2056 5419 2079Q5411 2099 5400.0 2123.5Q5389 2148 5375 2172Q5357 2203 5329.5 2232.5Q5302 2262 5265.5 2285.5Q5229 2309 5184.5 2323.5Q5140 2338 5088 2338Q4999 2338 4934.0 2301.0Q4869 2264 4822.0 2202.0Q4775 2140 4743.5 2059.5Q4712 1979 4690.5 1892.0Q4669 1805 4653.5 1718.0Q4638 1631 4623 1556Q4617 1525 4605.0 1515.0Q4593 1505 4576 1505Q4557 1505 4537.0 1509.0Q4517 1513 4506 1513Q4497 1513 4491.5 1508.0Q4486 1503 4486 1495Q4486 1478 4506 1472Q4551 1460 4586.5 1449.0Q4622 1438 4651.5 1427.0Q4681 1416 4707.0 1404.5Q4733 1393 4760 1380Q4822 1350 4868.0 1322.0Q4914 1294 4948.0 1273.0Q4982 1252 5005.5 1239.0Q5029 1226 5047 1226ZM7253 792Q7315 792 7382.5 806.5Q7450 821 7506.0 860.5Q7562 900 7598.0 970.0Q7634 1040 7634 1150Q7634 1252 7610.5 1328.5Q7587 1405 7548.0 1460.5Q7509 1516 7458.5 1552.0Q7408 1588 7354.0 1609.5Q7300 1631 7246.0 1639.5Q7192 1648 7146 1648Q7080 1648 7033.0 1641.5Q6986 1635 6954 1626Q6955 1677 6955.5 1731.5Q6956 1786 6956.5 1834.5Q6957 1883 6957.5 1920.5Q6958 1958 6958 1974Q6959 2009 6962.0 2061.5Q6965 2114 6971.5 2170.0Q6978 2226 6988.5 2279.5Q6999 2333 7015 2369Q7032 2407 7059.0 2434.0Q7086 2461 7117.5 2479.0Q7149 2497 7183.0 2508.0Q7217 2519 7249 2525Q7265 2528 7281.5 2530.5Q7298 2533 7311.0 2536.5Q7324 2540 7332.5 2545.5Q7341 2551 7341 2560Q7341 2572 7331.0 2579.0Q7321 2586 7290 2586Q7258 2586 7209.0 2576.5Q7160 2567 7099.5 2555.5Q7039 2544 6971.0 2534.5Q6903 2525 6835 2525Q6761 2525 6695.5 2533.0Q6630 2541 6578.5 2550.5Q6527 2560 6491.0 2568.0Q6455 2576 6440 2576Q6436 2576 6430.5 2575.5Q6425 2575 6419.5 2573.0Q6414 2571 6410.5 2567.0Q6407 2563 6407 2555Q6407 2544 6420.5 2537.0Q6434 2530 6456.5 2523.0Q6479 2516 6507.5 2506.5Q6536 2497 6565 2482Q6622 2451 6651.0 2401.0Q6680 2351 6694 2285Q6700 2255 6706.5 2198.0Q6713 2141 6719.0 2067.5Q6725 1994 6730.5 1909.5Q6736 1825 6740.0 1740.5Q6744 1656 6746.5 1577.5Q6749 1499 6749 1437Q6749 1315 6742.0 1222.0Q6735 1129 6712 1077Q6694 1036 6663.5 1011.5Q6633 987 6596.5 974.0Q6560 961 6520.0 956.5Q6480 952 6442 950Q6392 949 6375.0 942.5Q6358 936 6358 917Q6358 888 6409 888Q6431 888 6479.0 891.0Q6527 894 6594 894Q6643 894 6701.0 891.0Q6759 888 6821 880Q6873 874 6913.5 864.5Q6954 855 6988.5 845.5Q7023 836 7053.0 826.5Q7083 817 7114.0 809.0Q7145 801 7178.5 796.5Q7212 792 7253 792ZM6966 1097Q6962 1139 6960.0 1193.5Q6958 1248 6956.5 1310.0Q6955 1372 6954.5 1439.0Q6954 1506 6954 1572Q6986 1582 7026.0 1586.5Q7066 1591 7122 1591Q7197 1591 7249.5 1555.0Q7302 1519 7334.5 1459.5Q7367 1400 7381.5 1324.5Q7396 1249 7396 1171Q7396 1107 7384.5 1047.0Q7373 987 7347.0 941.5Q7321 896 7277.0 868.5Q7233 841 7169 841Q7119 841 7083.0 859.0Q7047 877 7023.0 910.5Q6999 944 6985.5 991.5Q6972 1039 6966 1097ZM8412 1794Q8426 1817 8437.5 1856.0Q8449 1895 8449 1935Q8449 2008 8425.0 2065.5Q8401 2123 8356.0 2162.5Q8311 2202 8247.5 2223.0Q8184 2244 8105 2244Q7991 2244 7901.5 2205.5Q7812 2167 7751.0 2098.0Q7690 2029 7658.0 1933.5Q7626 1838 7626 1724Q7626 1621 7648.0 1537.0Q7670 1453 7708.0 1387.0Q7746 1321 7796.0 1272.0Q7846 1223 7902.0 1191.0Q7958 1159 8016.0 1143.5Q8074 1128 8128 1128Q8181 1128 8238.0 1142.0Q8295 1156 8342.5 1190.0Q8390 1224 8420.5 1279.5Q8451 1335 8451 1419Q8451 1492 8429.5 1547.0Q8408 1602 8373.0 1642.0Q8338 1682 8293.5 1708.0Q8249 1734 8202.5 1749.5Q8156 1765 8111.5 1771.0Q8067 1777 8033 1777Q7984 1777 7937.5 1770.0Q7891 1763 7865 1755Q7869 1833 7889.5 1905.5Q7910 1978 7948.0 2033.0Q7986 2088 8042.5 2121.0Q8099 2154 8175 2154Q8228 2154 8266.5 2136.0Q8305 2118 8330.0 2087.5Q8355 2057 8367.0 2017.0Q8379 1977 8379 1933Q8379 1907 8375.5 1879.0Q8372 1851 8363 1826Q8357 1811 8353.0 1798.0Q8349 1785 8349 1777Q8349 1757 8367 1757Q8376 1757 8388.5 1766.0Q8401 1775 8412 1794ZM7861 1689Q7887 1697 7920.0 1702.5Q7953 1708 8003 1708Q8061 1708 8110.0 1686.0Q8159 1664 8194.0 1624.5Q8229 1585 8249.0 1529.0Q8269 1473 8269 1404Q8269 1343 8255.5 1301.5Q8242 1260 8220.0 1235.0Q8198 1210 8169.5 1199.5Q8141 1189 8111 1189Q8073 1189 8029.0 1212.0Q7985 1235 7947.5 1292.0Q7910 1349 7885.5 1445.5Q7861 1542 7861 1689ZM9948 1458Q9946 1482 9945.5 1499.5Q9945 1517 9943.5 1535.0Q9942 1553 9940.5 1575.0Q9939 1597 9936 1628Q9961 1569 9997.0 1527.0Q10033 1485 10072.5 1458.0Q10112 1431 10153.0 1418.5Q10194 1406 10229 1406Q10300 1406 10353.0 1434.5Q10406 1463 10441.0 1513.5Q10476 1564 10493.0 1634.0Q10510 1704 10510 1787Q10510 1836 10502.0 1893.5Q10494 1951 10484.0 2004.5Q10474 2058 10466.0 2102.0Q10458 2146 10458 2168Q10458 2184 10463.0 2196.0Q10468 2208 10481 2218Q10503 2235 10522.5 2242.5Q10542 2250 10553 2256Q10561 2260 10561 2271Q10561 2277 10556.5 2282.0Q10552 2287 10542 2287Q10515 2287 10479.0 2277.5Q10443 2268 10398.5 2256.5Q10354 2245 10301.0 2235.5Q10248 2226 10188 2226Q10151 2226 10119.5 2227.0Q10088 2228 10071 2228Q10059 2228 10051.0 2222.0Q10043 2216 10043 2205Q10043 2191 10051.5 2186.0Q10060 2181 10071 2181Q10091 2181 10103.5 2183.0Q10116 2185 10139 2185Q10181 2185 10204.0 2159.5Q10227 2134 10241 2097Q10250 2075 10258.5 2035.5Q10267 1996 10274.0 1949.0Q10281 1902 10285.5 1851.5Q10290 1801 10290 1757Q10290 1723 10285.0 1681.0Q10280 1639 10264.0 1602.5Q10248 1566 10218.5 1541.5Q10189 1517 10141 1517Q10088 1517 10050.5 1553.0Q10013 1589 9989.0 1645.5Q9965 1702 9953.5 1769.5Q9942 1837 9942 1900Q9942 1948 9948.5 1988.0Q9955 2028 9965 2048Q9971 2060 9981.0 2067.5Q9991 2075 10003.0 2079.5Q10015 2084 10027.5 2085.5Q10040 2087 10051 2088Q10068 2090 10076.0 2095.0Q10084 2100 10084 2111Q10084 2126 10071.0 2131.0Q10058 2136 10038 2136Q9989 2136 9944.0 2140.0Q9899 2144 9848 2152Q9814 2157 9788.0 2164.0Q9762 2171 9740.0 2177.0Q9718 2183 9700.0 2187.0Q9682 2191 9664 2191Q9635 2191 9628.0 2180.5Q9621 2170 9621 2164Q9621 2153 9626.5 2148.0Q9632 2143 9641 2140Q9663 2133 9680.5 2125.5Q9698 2118 9710.5 2104.5Q9723 2091 9731.0 2069.5Q9739 2048 9742 2013Q9743 2000 9744.0 1968.0Q9745 1936 9746.5 1894.5Q9748 1853 9749.5 1804.5Q9751 1756 9752.5 1709.5Q9754 1663 9755.0 1621.5Q9756 1580 9756 1552Q9756 1524 9754.0 1500.0Q9752 1476 9745.5 1458.0Q9739 1440 9726.5 1429.5Q9714 1419 9692 1419Q9665 1419 9649.0 1414.5Q9633 1410 9633 1396Q9633 1380 9662 1374Q9736 1361 9783.5 1341.5Q9831 1322 9860.0 1304.0Q9889 1286 9904.5 1273.5Q9920 1261 9930 1261Q9945 1261 9948.5 1287.5Q9952 1314 9952 1357Q9952 1363 9951.5 1375.5Q9951 1388 9950.5 1403.0Q9950 1418 9949.5 1432.5Q9949 1447 9948 1458ZM8826 1036Q8834 1036 8842.0 1061.5Q8850 1087 8858.0 1128.0Q8866 1169 8874.0 1222.5Q8882 1276 8890 1331L8926 1583Q8931 1550 8943.5 1507.0Q8956 1464 8977.0 1418.0Q8998 1372 9028.0 1328.0Q9058 1284 9097.5 1249.0Q9137 1214 9186.5 1192.5Q9236 1171 9297 1171Q9372 1171 9427.0 1199.5Q9482 1228 9518.0 1278.5Q9554 1329 9571.0 1399.0Q9588 1469 9588 1552Q9588 1627 9579.5 1702.5Q9571 1778 9561.5 1851.0Q9552 1924 9543.5 1992.0Q9535 2060 9535 2119Q9535 2154 9541.0 2180.0Q9547 2206 9559 2228Q9573 2249 9593.5 2264.5Q9614 2280 9632.5 2293.5Q9651 2307 9664.5 2320.5Q9678 2334 9678 2349Q9678 2358 9673.0 2364.5Q9668 2371 9656 2371Q9638 2371 9616.5 2357.5Q9595 2344 9563.5 2323.5Q9532 2303 9488.0 2279.5Q9444 2256 9381 2236Q9333 2220 9285.5 2211.0Q9238 2202 9176 2199Q9141 2196 9141 2179Q9141 2160 9164 2160Q9178 2160 9203.0 2160.0Q9228 2160 9254 2158Q9294 2155 9320.0 2133.5Q9346 2112 9359 2054Q9363 2031 9367.0 1995.5Q9371 1960 9374.0 1919.5Q9377 1879 9379.0 1837.0Q9381 1795 9381 1757Q9381 1723 9380.0 1678.5Q9379 1634 9373.5 1586.0Q9368 1538 9356.5 1492.0Q9345 1446 9323.0 1410.0Q9301 1374 9267.0 1351.5Q9233 1329 9184 1329Q9130 1329 9092.0 1357.5Q9054 1386 9028.5 1432.0Q9003 1478 8988.0 1536.0Q8973 1594 8965.0 1654.0Q8957 1714 8955.0 1770.0Q8953 1826 8953 1867Q8953 1922 8957.0 1972.5Q8961 2023 8968.0 2065.5Q8975 2108 8985.0 2141.0Q8995 2174 9008 2193Q9027 2219 9049.0 2232.0Q9071 2245 9086 2250Q9106 2256 9114.5 2260.5Q9123 2265 9123 2273Q9123 2289 9082 2289Q9061 2289 9036.0 2285.5Q9011 2282 8984.0 2278.0Q8957 2274 8928.0 2270.5Q8899 2267 8871 2267Q8843 2267 8814.0 2269.0Q8785 2271 8758.5 2273.0Q8732 2275 8710.0 2277.0Q8688 2279 8675 2279Q8636 2279 8636 2254Q8636 2245 8642.5 2238.5Q8649 2232 8666 2230Q8680 2229 8691.0 2228.0Q8702 2227 8713.5 2226.5Q8725 2226 8737.5 2225.0Q8750 2224 8767 2222Q8799 2217 8810.5 2198.5Q8822 2180 8822 2148Q8822 2093 8812.5 2014.0Q8803 1935 8787.0 1840.0Q8771 1745 8748.5 1638.5Q8726 1532 8701 1421Q8689 1364 8673.5 1336.0Q8658 1308 8629 1308Q8614 1308 8598.0 1313.5Q8582 1319 8566.5 1325.5Q8551 1332 8537.0 1337.5Q8523 1343 8511 1343Q8492 1343 8492 1327Q8492 1314 8502.5 1308.5Q8513 1303 8525 1298Q8553 1287 8587.5 1268.0Q8622 1249 8660 1220Q8698 1191 8726.0 1158.5Q8754 1126 8774.0 1099.0Q8794 1072 8806.5 1054.0Q8819 1036 8826 1036ZM11118 1226Q11126 1226 11132.0 1230.0Q11138 1234 11138 1245Q11138 1259 11124 1269Q11112 1279 11086.0 1294.0Q11060 1309 11018 1341Q10992 1360 10977.5 1383.0Q10963 1406 10956.0 1433.0Q10949 1460 10947.5 1492.5Q10946 1525 10946 1562Q10947 1637 10956.0 1709.0Q10965 1781 10979.0 1843.5Q10993 1906 11010.0 1956.5Q11027 2007 11044 2041Q11079 2113 11131.0 2156.0Q11183 2199 11257 2199Q11309 2199 11347.5 2174.0Q11386 2149 11413.0 2108.5Q11440 2068 11457.0 2016.5Q11474 1965 11484.0 1912.0Q11494 1859 11497.5 1809.0Q11501 1759 11501 1722Q11501 1623 11485.0 1571.0Q11469 1519 11437 1499Q11424 1490 11407.0 1484.0Q11390 1478 11373.0 1473.5Q11356 1469 11341.0 1465.5Q11326 1462 11317 1460Q11295 1455 11286.5 1447.0Q11278 1439 11278 1425Q11278 1411 11287.5 1402.5Q11297 1394 11312 1394Q11341 1394 11390.0 1399.0Q11439 1404 11505 1404Q11541 1404 11584.5 1399.5Q11628 1395 11669.0 1388.5Q11710 1382 11744.0 1374.5Q11778 1367 11796 1361Q11810 1356 11819.0 1354.5Q11828 1353 11833 1353Q11845 1353 11853.0 1359.0Q11861 1365 11861 1376Q11861 1387 11856.5 1393.5Q11852 1400 11843 1406Q11820 1422 11798.0 1435.5Q11776 1449 11765 1474Q11756 1495 11751.0 1525.0Q11746 1555 11742.5 1598.5Q11739 1642 11735.5 1702.0Q11732 1762 11726 1845Q11719 1936 11707.0 2040.0Q11695 2144 11675.5 2256.5Q11656 2369 11627.0 2489.0Q11598 2609 11558 2732Q11517 2856 11463.0 2954.5Q11409 3053 11342.0 3122.0Q11275 3191 11197.0 3227.5Q11119 3264 11032 3264Q10970 3264 10919.0 3245.0Q10868 3226 10831.5 3191.5Q10795 3157 10775.0 3109.0Q10755 3061 10755 3002Q10755 2939 10773.5 2886.5Q10792 2834 10824.5 2795.5Q10857 2757 10901.5 2736.0Q10946 2715 10999 2715Q11042 2715 11074.5 2729.0Q11107 2743 11129.0 2766.0Q11151 2789 11162.0 2818.5Q11173 2848 11173 2879Q11173 2906 11164.5 2929.5Q11156 2953 11140.0 2970.5Q11124 2988 11100.5 2998.0Q11077 3008 11048 3008Q11014 3008 10992.5 2997.0Q10971 2986 10957.0 2970.0Q10943 2954 10934.0 2934.5Q10925 2915 10917.0 2899.0Q10909 2883 10900.0 2872.0Q10891 2861 10876 2861Q10860 2861 10847.0 2873.0Q10834 2885 10824.5 2904.5Q10815 2924 10810.0 2948.5Q10805 2973 10805 2998Q10805 3046 10822.0 3086.0Q10839 3126 10869.5 3154.0Q10900 3182 10942.0 3197.5Q10984 3213 11034 3213Q11118 3213 11181.5 3175.0Q11245 3137 11292.0 3079.0Q11339 3021 11371.5 2951.5Q11404 2882 11424.0 2819.0Q11444 2756 11453.5 2708.5Q11463 2661 11466 2646Q11494 2469 11502.5 2340.0Q11511 2211 11511 2136Q11511 2111 11510.5 2092.5Q11510 2074 11509 2061Q11508 2046 11507 2035Q11500 2056 11490 2079Q11482 2099 11471.0 2123.5Q11460 2148 11446 2172Q11428 2203 11400.5 2232.5Q11373 2262 11336.5 2285.5Q11300 2309 11255.5 2323.5Q11211 2338 11159 2338Q11070 2338 11005.0 2301.0Q10940 2264 10893.0 2202.0Q10846 2140 10814.5 2059.5Q10783 1979 10761.5 1892.0Q10740 1805 10724.5 1718.0Q10709 1631 10694 1556Q10688 1525 10676.0 1515.0Q10664 1505 10647 1505Q10628 1505 10608.0 1509.0Q10588 1513 10577 1513Q10568 1513 10562.5 1508.0Q10557 1503 10557 1495Q10557 1478 10577 1472Q10622 1460 10657.5 1449.0Q10693 1438 10722.5 1427.0Q10752 1416 10778.0 1404.5Q10804 1393 10831 1380Q10893 1350 10939.0 1322.0Q10985 1294 11019.0 1273.0Q11053 1252 11076.5 1239.0Q11100 1226 11118 1226Z" fill="currentColor" /></svg>