<svg viewBox="0 0 4989 1448" xmlns="http://www.w3.org/2000/svg"><path d="M20 1145Q20 1139 26.5 1135.0Q33 1131 43 1132Q67 1134 78 1134Q108 1134 126.0 1124.5Q144 1115 150 1092Q159 1056 159 819Q159 582 150 546Q144 523 126.0 513.5Q108 504 78 504Q67 504 43 506H39Q30 506 25.0 502.0Q20 498 20 492Q20 487 25.5 483.0Q31 479 41 479H347Q357 479 362.5 483.0Q368 487 368 493Q368 499 361.5 503.0Q355 507 345 506Q321 504 310 504Q280 504 262.0 513.5Q244 523 238 546Q229 583 229 779Q229 805 254 805H544Q569 805 569 779Q569 583 560 546Q554 523 536.0 513.5Q518 504 488 504Q477 504 453 506H449Q440 506 435.0 502.0Q430 498 430 492Q430 487 435.5 483.0Q441 479 451 479H757Q767 479 772.5 483.0Q778 487 778 493Q778 499 771.5 503.0Q765 507 755 506Q731 504 720 504Q690 504 672.0 513.5Q654 523 648 546Q639 582 639 819Q639 1056 648 1092Q654 1115 672.0 1124.5Q690 1134 720 1134Q731 1134 755 1132H759Q768 1132 773.0 1136.0Q778 1140 778 1146Q778 1151 772.5 1155.0Q767 1159 757 1159H451Q441 1159 435.5 1155.0Q430 1151 430 1145Q430 1139 436.5 1135.0Q443 1131 453 1132Q477 1134 488 1134Q518 1134 536.0 1124.5Q554 1115 560 1092Q569 1056 569 863Q569 837 544 837H254Q229 837 229 863Q229 1056 238 1092Q244 1115 262.0 1124.5Q280 1134 310 1134Q321 1134 345 1132H349Q358 1132 363.0 1136.0Q368 1140 368 1146Q368 1151 362.5 1155.0Q357 1159 347 1159H41Q31 1159 25.5 1155.0Q20 1151 20 1145ZM836 658Q836 634 852.5 617.5Q869 601 892 601Q915 601 931.5 617.5Q948 634 948 658Q948 681 931.5 697.5Q915 714 892 714Q869 714 852.5 697.5Q836 681 836 658ZM798 1145Q798 1138 804.0 1134.0Q810 1130 821 1132Q851 1138 861 1100Q867 1078 867 1032Q867 999 866 981L865 914Q865 887 856.5 870.5Q848 854 829 854Q819 854 813.5 851.0Q808 848 808 843Q808 839 813.5 834.5Q819 830 829 828Q860 820 893 795Q897 793 907.0 786.5Q917 780 923 780Q937 780 937 792L935 832L931 901Q929 938 929 999Q929 1070 934 1100Q937 1117 945.0 1125.0Q953 1133 968 1133Q975 1133 980 1132L986 1131Q994 1131 998.5 1135.0Q1003 1139 1003 1145Q1003 1151 997.5 1155.0Q992 1159 982 1159H899H819Q809 1159 803.5 1155.0Q798 1151 798 1145ZM1054 828Q1085 820 1118 795Q1122 793 1132.0 786.5Q1142 780 1148 780Q1162 780 1162 792Q1162 804 1161 814V816Q1161 821 1164.5 822.5Q1168 824 1173 820Q1221 780 1270 780Q1303 780 1334.5 800.0Q1366 820 1386.5 861.5Q1407 903 1407 964L1406 1054Q1406 1094 1413.0 1113.5Q1420 1133 1441 1133Q1449 1133 1453 1132L1459 1131Q1467 1131 1471.5 1135.0Q1476 1139 1476 1145Q1476 1151 1470.5 1155.0Q1465 1159 1455 1159H1289Q1279 1159 1273.5 1155.0Q1268 1151 1268 1145Q1268 1138 1274.0 1134.0Q1280 1130 1291 1132Q1320 1137 1328.5 1109.5Q1337 1082 1337 1024V970Q1337 928 1323.5 895.0Q1310 862 1288.5 844.0Q1267 826 1245 826Q1222 826 1201.5 843.5Q1181 861 1168.0 886.0Q1155 911 1155 933Q1154 957 1154 1000Q1154 1060 1159 1100Q1162 1117 1170.0 1125.0Q1178 1133 1193 1133Q1200 1133 1205 1132L1211 1131Q1219 1131 1223.5 1135.0Q1228 1139 1228 1145Q1228 1151 1222.5 1155.0Q1217 1159 1207 1159H1044Q1034 1159 1028.5 1155.0Q1023 1151 1023 1145Q1023 1138 1029.0 1134.0Q1035 1130 1046 1132Q1076 1138 1086 1100Q1093 1075 1093 1034L1092 982Q1090 940 1090 914Q1090 887 1081.5 870.5Q1073 854 1054 854Q1044 854 1038.5 851.0Q1033 848 1033 843Q1033 839 1038.5 834.5Q1044 830 1054 828ZM1506 1071Q1509 1013 1576.5 985.5Q1644 958 1720 953Q1734 951 1734 937V886Q1734 849 1715.0 828.0Q1696 807 1666 807Q1633 807 1614.0 826.5Q1595 846 1595 876Q1595 897 1585.0 907.0Q1575 917 1560 917Q1547 917 1536.5 907.0Q1526 897 1526 878Q1526 853 1546.5 830.5Q1567 808 1600.5 794.0Q1634 780 1670 780Q1728 780 1766.0 808.5Q1804 837 1804 891V1072Q1804 1134 1829 1134Q1832 1134 1843.0 1128.5Q1854 1123 1856 1123Q1861 1123 1864.0 1126.0Q1867 1129 1867 1134Q1867 1146 1847.5 1153.0Q1828 1160 1807 1160Q1763 1160 1746 1130Q1742 1123 1735 1123Q1729 1123 1724 1127Q1675 1161 1629 1161Q1568 1161 1536.0 1141.0Q1504 1121 1506 1071ZM1735 1031 1734 995Q1734 980 1719 980Q1574 985 1574 1068Q1574 1097 1595.0 1113.0Q1616 1129 1647 1129Q1673 1129 1696.0 1116.5Q1719 1104 1728 1082Q1735 1067 1735 1031ZM2218 1159Q2208 1159 2202.5 1155.0Q2197 1151 2197 1145Q2197 1139 2203.5 1135.0Q2210 1131 2220 1132Q2244 1134 2255 1134Q2285 1134 2303.0 1124.5Q2321 1115 2327 1092Q2335 1061 2347.5 881.5Q2360 702 2360 603Q2360 559 2357 546Q2351 523 2333.0 513.5Q2315 504 2285 504Q2274 504 2250 506H2246Q2237 506 2232.0 502.0Q2227 498 2227 492Q2227 487 2232.5 483.0Q2238 479 2248 479H2386Q2409 479 2416 491Q2418 495 2422 507L2621 979Q2625 989 2631 989Q2638 989 2641 980L2845 506Q2848 498 2853 490Q2859 479 2885 479H3038Q3048 479 3053.5 483.0Q3059 487 3059 493Q3059 499 3052.5 503.0Q3046 507 3036 506Q3012 504 3001 504Q2971 504 2953.0 513.5Q2935 523 2929 546Q2926 559 2926 603Q2926 702 2938.5 881.0Q2951 1060 2959 1092Q2965 1115 2983.0 1124.5Q3001 1134 3031 1134Q3042 1134 3066 1132H3070Q3079 1132 3084.0 1136.0Q3089 1140 3089 1146Q3089 1151 3083.5 1155.0Q3078 1159 3068 1159H2762Q2752 1159 2746.5 1155.0Q2741 1151 2741 1145Q2741 1139 2747.5 1135.0Q2754 1131 2764 1132Q2788 1134 2799 1134Q2829 1134 2847.0 1124.5Q2865 1115 2871 1092Q2874 1078 2874 1041Q2874 969 2858 711L2852 623Q2851 611 2844 611Q2839 611 2834 620L2639 1075Q2633 1089 2625.5 1097.0Q2618 1105 2611 1105Q2597 1105 2586 1080L2420 674Q2416 665 2410 665Q2404 665 2402 677Q2394 772 2388.0 875.5Q2382 979 2382 1039Q2382 1078 2385 1092Q2391 1115 2409.0 1124.5Q2427 1134 2457 1134Q2468 1134 2492 1132H2496Q2505 1132 2510.0 1136.0Q2515 1140 2515 1146Q2515 1151 2509.5 1155.0Q2504 1159 2494 1159ZM3157 658Q3157 634 3173.5 617.5Q3190 601 3213 601Q3236 601 3252.5 617.5Q3269 634 3269 658Q3269 681 3252.5 697.5Q3236 714 3213 714Q3190 714 3173.5 697.5Q3157 681 3157 658ZM3119 1145Q3119 1138 3125.0 1134.0Q3131 1130 3142 1132Q3172 1138 3182 1100Q3188 1078 3188 1032Q3188 999 3187 981L3186 914Q3186 887 3177.5 870.5Q3169 854 3150 854Q3140 854 3134.5 851.0Q3129 848 3129 843Q3129 839 3134.5 834.5Q3140 830 3150 828Q3181 820 3214 795Q3218 793 3228.0 786.5Q3238 780 3244 780Q3258 780 3258 792L3256 832L3252 901Q3250 938 3250 999Q3250 1070 3255 1100Q3258 1117 3266.0 1125.0Q3274 1133 3289 1133Q3296 1133 3301 1132L3307 1131Q3315 1131 3319.5 1135.0Q3324 1139 3324 1145Q3324 1151 3318.5 1155.0Q3313 1159 3303 1159H3220H3140Q3130 1159 3124.5 1155.0Q3119 1151 3119 1145ZM3375 828Q3406 820 3439 795Q3443 793 3453.0 786.5Q3463 780 3469 780Q3483 780 3483 792Q3483 804 3482 814V816Q3482 821 3485.5 822.5Q3489 824 3494 820Q3542 780 3591 780Q3624 780 3655.5 800.0Q3687 820 3707.5 861.5Q3728 903 3728 964L3727 1054Q3727 1094 3734.0 1113.5Q3741 1133 3762 1133Q3770 1133 3774 1132L3780 1131Q3788 1131 3792.5 1135.0Q3797 1139 3797 1145Q3797 1151 3791.5 1155.0Q3786 1159 3776 1159H3610Q3600 1159 3594.5 1155.0Q3589 1151 3589 1145Q3589 1138 3595.0 1134.0Q3601 1130 3612 1132Q3641 1137 3649.5 1109.5Q3658 1082 3658 1024V970Q3658 928 3644.5 895.0Q3631 862 3609.5 844.0Q3588 826 3566 826Q3543 826 3522.5 843.5Q3502 861 3489.0 886.0Q3476 911 3476 933Q3475 957 3475 1000Q3475 1060 3480 1100Q3483 1117 3491.0 1125.0Q3499 1133 3514 1133Q3521 1133 3526 1132L3532 1131Q3540 1131 3544.5 1135.0Q3549 1139 3549 1145Q3549 1151 3543.5 1155.0Q3538 1159 3528 1159H3365Q3355 1159 3349.5 1155.0Q3344 1151 3344 1145Q3344 1138 3350.0 1134.0Q3356 1130 3367 1132Q3397 1138 3407 1100Q3414 1075 3414 1034L3413 982Q3411 940 3411 914Q3411 887 3402.5 870.5Q3394 854 3375 854Q3365 854 3359.5 851.0Q3354 848 3354 843Q3354 839 3359.5 834.5Q3365 830 3375 828ZM3797 971Q3797 910 3824.0 866.5Q3851 823 3893.0 801.5Q3935 780 3978 780Q4038 780 4075.5 803.0Q4113 826 4125 854Q4133 871 4133 888Q4133 906 4123.5 916.5Q4114 927 4102 927Q4091 927 4083.5 918.5Q4076 910 4075 894Q4073 854 4048.5 830.0Q4024 806 3978 806Q3951 806 3927.5 827.0Q3904 848 3889.5 885.5Q3875 923 3875 970Q3875 1017 3891.5 1052.0Q3908 1087 3934.0 1105.5Q3960 1124 3988 1124Q4027 1124 4056.0 1105.5Q4085 1087 4108 1049Q4113 1040 4121 1040Q4126 1040 4129.0 1043.0Q4132 1046 4132 1051Q4132 1057 4130 1060Q4109 1105 4067.5 1132.5Q4026 1160 3978 1160Q3935 1160 3893.0 1138.5Q3851 1117 3824.0 1074.5Q3797 1032 3797 971ZM4133 1145Q4133 1138 4139.0 1134.0Q4145 1130 4156 1132Q4193 1138 4202 1071Q4208 1017 4208 925Q4208 756 4203 629Q4202 609 4202 585Q4202 558 4193.5 541.5Q4185 525 4166 525Q4156 525 4150.5 522.0Q4145 519 4145 514Q4145 510 4150.5 505.5Q4156 501 4166 499Q4195 493 4233 466Q4236 464 4246.5 457.5Q4257 451 4264 451Q4278 451 4278 463L4276 522Q4270 732 4269 816Q4269 822 4271.5 825.5Q4274 829 4278 829Q4282 829 4287 824Q4333 780 4380 780Q4413 780 4444.5 800.0Q4476 820 4496.5 861.5Q4517 903 4517 964L4516 1054Q4516 1094 4523.0 1113.5Q4530 1133 4551 1133Q4559 1133 4563 1132L4569 1131Q4577 1131 4581.5 1135.0Q4586 1139 4586 1145Q4586 1151 4580.5 1155.0Q4575 1159 4565 1159H4482H4399Q4389 1159 4383.5 1155.0Q4378 1151 4378 1145Q4378 1138 4384.0 1134.0Q4390 1130 4401 1132Q4430 1137 4438.5 1109.5Q4447 1082 4447 1024V970Q4447 928 4433.5 895.0Q4420 862 4398.5 844.0Q4377 826 4355 826Q4334 826 4314.0 841.5Q4294 857 4281.5 888.0Q4269 919 4269 964L4268 1054Q4268 1094 4275.0 1113.5Q4282 1133 4303 1133Q4311 1133 4315 1132L4321 1131Q4329 1131 4333.5 1135.0Q4338 1139 4338 1145Q4338 1151 4332.5 1155.0Q4327 1159 4317 1159H4234H4154Q4144 1159 4138.5 1155.0Q4133 1151 4133 1145ZM4586 971Q4586 909 4614.0 866.0Q4642 823 4685.5 801.5Q4729 780 4777 780Q4825 780 4869.0 801.5Q4913 823 4941.0 866.0Q4969 909 4969 971Q4969 1032 4941.0 1075.0Q4913 1118 4869.0 1139.0Q4825 1160 4777 1160Q4729 1160 4685.0 1139.0Q4641 1118 4613.5 1075.0Q4586 1032 4586 971ZM4891 970Q4891 897 4859.5 851.5Q4828 806 4777 806Q4726 806 4694.5 851.5Q4663 897 4663 970Q4663 1043 4694.5 1088.5Q4726 1134 4777 1134Q4829 1134 4860.0 1089.0Q4891 1044 4891 970Z" fill="currentColor" /></svg>