<svg viewBox="0 0 4240 2440" xmlns="http://www.w3.org/2000/svg"><path d="M-40 1242H40Q40 1242 40.0 1276.5Q40 1311 40.0 1365.5Q40 1420 40.0 1481.0Q40 1542 40.0 1596.5Q40 1651 40.0 1685.5Q40 1720 40 1720Q40 1720 40.0 1720.0Q40 1720 40.0 1720.0Q40 1720 40.0 1720.0Q40 1720 40.0 1720.0Q40 1720 40.0 1720.0Q40 1720 40 1720Q40 1720 40.0 1720.0Q40 1720 40.0 1720.0Q40 1720 40 1720Q40 1720 40.0 1720.0Q40 1720 40.0 1720.0Q40 1720 40.0 1720.0Q40 1720 40 1720Q40 1720 76.5 1720.0Q113 1720 170.5 1720.0Q228 1720 292.0 1720.0Q356 1720 413.5 1720.0Q471 1720 507.5 1720.0Q544 1720 544 1720Q544 1739 544.0 1759.5Q544 1780 544 1800Q544 1800 544.0 1800.0Q544 1800 544.0 1800.0Q544 1800 544 1800Q544 1800 544.0 1800.0Q544 1800 544 1800Q544 1800 502.0 1800.0Q460 1800 393.5 1800.0Q327 1800 252.0 1800.0Q177 1800 110.5 1800.0Q44 1800 2.0 1800.0Q-40 1800 -40 1800Q-40 1800 -40.0 1800.0Q-40 1800 -40.0 1800.0Q-40 1800 -40.0 1800.0Q-40 1800 -40 1800Q-40 1800 -40.0 1759.5Q-40 1719 -40.0 1655.5Q-40 1592 -40.0 1521.0Q-40 1450 -40.0 1386.5Q-40 1323 -40.0 1282.5Q-40 1242 -40 1242ZM-40 1424V1004H40Q40 1004 40.0 1035.5Q40 1067 40.0 1109.0Q40 1151 40.0 1182.5Q40 1214 40 1214Q40 1214 40.0 1214.0Q40 1214 40 1214Q40 1214 40.0 1214.0Q40 1214 40 1214Q40 1214 40.0 1245.5Q40 1277 40.0 1319.0Q40 1361 40.0 1392.5Q40 1424 40 1424ZM1100 1242Q1100 1242 1100.0 1282.5Q1100 1323 1100.0 1386.5Q1100 1450 1100.0 1521.0Q1100 1592 1100.0 1655.5Q1100 1719 1100.0 1759.5Q1100 1800 1100 1800Q1100 1800 1100.0 1800.0Q1100 1800 1100.0 1800.0Q1100 1800 1100.0 1800.0Q1100 1800 1100 1800Q1100 1800 1058.0 1800.0Q1016 1800 949.5 1800.0Q883 1800 808.0 1800.0Q733 1800 666.5 1800.0Q600 1800 558.0 1800.0Q516 1800 516 1800Q516 1800 516.0 1800.0Q516 1800 516 1800Q516 1800 516.0 1800.0Q516 1800 516.0 1800.0Q516 1800 516 1800Q516 1780 516.0 1759.5Q516 1739 516 1720Q516 1720 552.5 1720.0Q589 1720 646.5 1720.0Q704 1720 768.0 1720.0Q832 1720 889.5 1720.0Q947 1720 983.5 1720.0Q1020 1720 1020 1720Q1020 1720 1020.0 1720.0Q1020 1720 1020.0 1720.0Q1020 1720 1020.0 1720.0Q1020 1720 1020 1720Q1020 1720 1020.0 1720.0Q1020 1720 1020.0 1720.0Q1020 1720 1020 1720Q1020 1720 1020.0 1720.0Q1020 1720 1020.0 1720.0Q1020 1720 1020.0 1720.0Q1020 1720 1020.0 1720.0Q1020 1720 1020.0 1720.0Q1020 1720 1020 1720Q1020 1720 1020.0 1685.5Q1020 1651 1020.0 1596.5Q1020 1542 1020.0 1481.0Q1020 1420 1020.0 1365.5Q1020 1311 1020.0 1276.5Q1020 1242 1020 1242ZM-40 1186Q-40 1186 -40.0 1145.5Q-40 1105 -40.0 1041.5Q-40 978 -40.0 907.0Q-40 836 -40.0 772.5Q-40 709 -40.0 668.5Q-40 628 -40 628Q-40 628 -40.0 628.0Q-40 628 -40.0 628.0Q-40 628 -40.0 628.0Q-40 628 -40 628Q-40 628 2.0 628.0Q44 628 110.5 628.0Q177 628 252.0 628.0Q327 628 393.5 628.0Q460 628 502.0 628.0Q544 628 544 628Q544 628 544.0 628.0Q544 628 544 628Q544 628 544.0 628.0Q544 628 544.0 628.0Q544 628 544 628Q544 647 544.0 667.5Q544 688 544 708Q544 708 507.5 708.0Q471 708 413.5 708.0Q356 708 292.0 708.0Q228 708 170.5 708.0Q113 708 76.5 708.0Q40 708 40 708Q40 708 40.0 708.0Q40 708 40.0 708.0Q40 708 40.0 708.0Q40 708 40 708Q40 708 40.0 708.0Q40 708 40.0 708.0Q40 708 40 708Q40 708 40.0 708.0Q40 708 40.0 708.0Q40 708 40.0 708.0Q40 708 40.0 708.0Q40 708 40.0 708.0Q40 708 40 708Q40 708 40.0 742.5Q40 777 40.0 831.5Q40 886 40.0 947.0Q40 1008 40.0 1062.5Q40 1117 40.0 1151.5Q40 1186 40 1186ZM1100 1424H1020Q1020 1424 1020.0 1392.5Q1020 1361 1020.0 1319.0Q1020 1277 1020.0 1245.5Q1020 1214 1020 1214Q1020 1214 1020.0 1214.0Q1020 1214 1020 1214Q1020 1214 1020.0 1214.0Q1020 1214 1020 1214Q1020 1214 1020.0 1182.5Q1020 1151 1020.0 1109.0Q1020 1067 1020.0 1035.5Q1020 1004 1020 1004H1100ZM1100 1186H1020Q1020 1186 1020.0 1151.5Q1020 1117 1020.0 1062.5Q1020 1008 1020.0 947.0Q1020 886 1020.0 831.5Q1020 777 1020.0 742.5Q1020 708 1020 708Q1020 708 1020.0 708.0Q1020 708 1020.0 708.0Q1020 708 1020.0 708.0Q1020 708 1020.0 708.0Q1020 708 1020.0 708.0Q1020 708 1020 708Q1020 708 1020.0 708.0Q1020 708 1020.0 708.0Q1020 708 1020 708Q1020 708 1020.0 708.0Q1020 708 1020.0 708.0Q1020 708 1020.0 708.0Q1020 708 1020 708Q1020 708 983.5 708.0Q947 708 889.5 708.0Q832 708 768.0 708.0Q704 708 646.5 708.0Q589 708 552.5 708.0Q516 708 516 708Q516 688 516.0 667.5Q516 647 516 628Q516 628 516.0 628.0Q516 628 516.0 628.0Q516 628 516 628Q516 628 516.0 628.0Q516 628 516 628Q516 628 558.0 628.0Q600 628 666.5 628.0Q733 628 808.0 628.0Q883 628 949.5 628.0Q1016 628 1058.0 628.0Q1100 628 1100 628Q1100 628 1100.0 628.0Q1100 628 1100.0 628.0Q1100 628 1100.0 628.0Q1100 628 1100 628Q1100 628 1100.0 668.5Q1100 709 1100.0 772.5Q1100 836 1100.0 907.0Q1100 978 1100.0 1041.5Q1100 1105 1100.0 1145.5Q1100 1186 1100 1186ZM498 1302Q498 1302 514.0 1302.0Q530 1302 546.0 1302.0Q562 1302 562 1302Q566 1302 567.5 1302.5Q569 1303 569.5 1304.5Q570 1306 570 1310Q570 1310 570.0 1351.0Q570 1392 570.0 1453.0Q570 1514 570.0 1575.0Q570 1636 570.0 1677.0Q570 1718 570 1718Q570 1718 570.0 1718.0Q570 1718 570.0 1718.0Q570 1718 570.0 1718.0Q570 1718 570.0 1718.0Q570 1718 570 1718Q570 1724 569.0 1725.0Q568 1726 562 1726Q562 1726 552.5 1726.0Q543 1726 530.0 1726.0Q517 1726 507.5 1726.0Q498 1726 498 1726Q494 1726 492.5 1725.5Q491 1725 490.5 1723.5Q490 1722 490 1718Q490 1718 490.0 1718.0Q490 1718 490.0 1718.0Q490 1718 490.0 1718.0Q490 1718 490.0 1718.0Q490 1718 490 1718Q490 1718 490.0 1677.0Q490 1636 490.0 1575.0Q490 1514 490.0 1453.0Q490 1392 490.0 1351.0Q490 1310 490 1310Q490 1306 490.5 1304.5Q491 1303 492.5 1302.5Q494 1302 498 1302ZM564 1126Q564 1126 548.0 1126.0Q532 1126 516.0 1126.0Q500 1126 500 1126Q496 1126 494.5 1125.5Q493 1125 492.5 1123.5Q492 1122 492 1118Q492 1118 492.0 1077.0Q492 1036 492.0 975.0Q492 914 492.0 853.0Q492 792 492.0 751.0Q492 710 492 710Q492 710 492.0 710.0Q492 710 492.0 710.0Q492 710 492.0 710.0Q492 710 492.0 710.0Q492 710 492 710Q492 704 493.0 703.0Q494 702 500 702Q500 702 509.5 702.0Q519 702 532.0 702.0Q545 702 554.5 702.0Q564 702 564 702Q568 702 569.5 702.5Q571 703 571.5 704.5Q572 706 572 710Q572 710 572.0 710.0Q572 710 572.0 710.0Q572 710 572.0 710.0Q572 710 572.0 710.0Q572 710 572 710Q572 710 572.0 751.0Q572 792 572.0 853.0Q572 914 572.0 975.0Q572 1036 572.0 1077.0Q572 1118 572 1118Q572 1122 571.5 1123.5Q571 1125 569.5 1125.5Q568 1126 564 1126ZM2160 1544H2080Q2080 1489 2080.0 1456.0Q2080 1423 2080.0 1392.5Q2080 1362 2080 1314Q2080 1314 2080.0 1314.0Q2080 1314 2080 1314Q2080 1314 2080.0 1314.0Q2080 1314 2080 1314Q2080 1264 2080.0 1238.0Q2080 1212 2080.0 1194.5Q2080 1177 2080.0 1153.5Q2080 1130 2080 1084H2160ZM2160 1242Q2160 1242 2160.0 1282.5Q2160 1323 2160.0 1386.5Q2160 1450 2160.0 1521.0Q2160 1592 2160.0 1655.5Q2160 1719 2160.0 1759.5Q2160 1800 2160 1800Q2160 1800 2160.0 1800.0Q2160 1800 2160.0 1800.0Q2160 1800 2160.0 1800.0Q2160 1800 2160 1800Q2160 1800 2119.5 1800.0Q2079 1800 2015.0 1800.0Q1951 1800 1878.5 1800.0Q1806 1800 1739.5 1800.0Q1673 1800 1628.0 1800.0Q1583 1800 1576 1800Q1576 1800 1576.0 1800.0Q1576 1800 1576 1800Q1576 1800 1576.0 1800.0Q1576 1800 1576.0 1800.0Q1576 1800 1576 1800Q1576 1780 1576.0 1759.5Q1576 1739 1576 1720Q1576 1720 1610.5 1720.0Q1645 1720 1696.0 1720.0Q1747 1720 1798.0 1720.0Q1849 1720 1883.5 1720.0Q1918 1720 1918 1720Q1918 1720 1918.0 1720.0Q1918 1720 1918.0 1720.0Q1918 1720 1918 1720Q1921 1720 1938.0 1705.0Q1955 1690 1979.0 1667.0Q2003 1644 2026.0 1620.5Q2049 1597 2064.5 1580.0Q2080 1563 2080 1560V1242ZM2160 1390H2080V1072Q2080 1069 2064.5 1052.0Q2049 1035 2026.0 1011.5Q2003 988 1979.0 965.0Q1955 942 1938.0 927.0Q1921 912 1918 912Q1918 912 1918.0 912.0Q1918 912 1918.0 912.0Q1918 912 1918 912Q1918 912 1883.5 912.0Q1849 912 1798.0 912.0Q1747 912 1696.0 912.0Q1645 912 1610.5 912.0Q1576 912 1576 912Q1576 892 1576.0 871.5Q1576 851 1576 832Q1576 832 1576.0 832.0Q1576 832 1576.0 832.0Q1576 832 1576 832Q1576 832 1576.0 832.0Q1576 832 1576 832Q1583 832 1628.0 832.0Q1673 832 1739.5 832.0Q1806 832 1878.5 832.0Q1951 832 2015.0 832.0Q2079 832 2119.5 832.0Q2160 832 2160 832Q2160 832 2160.0 832.0Q2160 832 2160.0 832.0Q2160 832 2160.0 832.0Q2160 832 2160 832Q2160 832 2160.0 872.5Q2160 913 2160.0 976.5Q2160 1040 2160.0 1111.0Q2160 1182 2160.0 1245.5Q2160 1309 2160.0 1349.5Q2160 1390 2160 1390ZM1550 1438Q1550 1438 1550.0 1400.5Q1550 1363 1550.0 1314.0Q1550 1265 1550.0 1227.5Q1550 1190 1550 1190Q1550 1190 1550.0 1190.0Q1550 1190 1550 1190Q1550 1184 1551.0 1183.0Q1552 1182 1558 1182Q1569 1182 1579.5 1182.0Q1590 1182 1600.5 1182.0Q1611 1182 1622 1182Q1628 1182 1629.0 1183.0Q1630 1184 1630 1190Q1630 1190 1630.0 1190.0Q1630 1190 1630 1190Q1630 1190 1630.0 1227.5Q1630 1265 1630.0 1314.0Q1630 1363 1630.0 1400.5Q1630 1438 1630 1438Q1630 1438 1630.0 1438.0Q1630 1438 1630.0 1438.0Q1630 1438 1630.0 1438.0Q1630 1438 1630.0 1438.0Q1630 1438 1630 1438Q1630 1438 1630.0 1438.0Q1630 1438 1630 1438Q1630 1444 1629.0 1445.0Q1628 1446 1622 1446Q1606 1446 1590.5 1446.0Q1575 1446 1558 1446Q1552 1446 1551.0 1445.0Q1550 1444 1550 1438Q1550 1438 1550.0 1438.0Q1550 1438 1550 1438Q1550 1438 1550.0 1438.0Q1550 1438 1550.0 1438.0Q1550 1438 1550.0 1438.0Q1550 1438 1550.0 1438.0Q1550 1438 1550 1438ZM1020 1544V1084H1100Q1100 1130 1100.0 1153.5Q1100 1177 1100.0 1194.5Q1100 1212 1100.0 1238.0Q1100 1264 1100 1314Q1100 1314 1100.0 1314.0Q1100 1314 1100 1314Q1100 1314 1100.0 1314.0Q1100 1314 1100 1314Q1100 1362 1100.0 1392.5Q1100 1423 1100.0 1456.0Q1100 1489 1100 1544ZM1020 1242H1100V1560Q1100 1563 1115.5 1580.0Q1131 1597 1154.0 1620.5Q1177 1644 1201.0 1667.0Q1225 1690 1242.0 1705.0Q1259 1720 1262 1720Q1262 1720 1262.0 1720.0Q1262 1720 1262.0 1720.0Q1262 1720 1262 1720Q1262 1720 1296.5 1720.0Q1331 1720 1382.0 1720.0Q1433 1720 1484.0 1720.0Q1535 1720 1569.5 1720.0Q1604 1720 1604 1720Q1604 1739 1604.0 1759.5Q1604 1780 1604 1800Q1604 1800 1604.0 1800.0Q1604 1800 1604.0 1800.0Q1604 1800 1604 1800Q1604 1800 1604.0 1800.0Q1604 1800 1604 1800Q1597 1800 1552.0 1800.0Q1507 1800 1440.5 1800.0Q1374 1800 1301.5 1800.0Q1229 1800 1165.0 1800.0Q1101 1800 1060.5 1800.0Q1020 1800 1020 1800Q1020 1800 1020.0 1800.0Q1020 1800 1020.0 1800.0Q1020 1800 1020.0 1800.0Q1020 1800 1020 1800Q1020 1800 1020.0 1759.5Q1020 1719 1020.0 1655.5Q1020 1592 1020.0 1521.0Q1020 1450 1020.0 1386.5Q1020 1323 1020.0 1282.5Q1020 1242 1020 1242ZM1020 1390Q1020 1390 1020.0 1349.5Q1020 1309 1020.0 1245.5Q1020 1182 1020.0 1111.0Q1020 1040 1020.0 976.5Q1020 913 1020.0 872.5Q1020 832 1020 832Q1020 832 1020.0 832.0Q1020 832 1020.0 832.0Q1020 832 1020.0 832.0Q1020 832 1020 832Q1020 832 1060.5 832.0Q1101 832 1165.0 832.0Q1229 832 1301.5 832.0Q1374 832 1440.5 832.0Q1507 832 1552.0 832.0Q1597 832 1604 832Q1604 832 1604.0 832.0Q1604 832 1604 832Q1604 832 1604.0 832.0Q1604 832 1604.0 832.0Q1604 832 1604 832Q1604 851 1604.0 871.5Q1604 892 1604 912Q1604 912 1569.5 912.0Q1535 912 1484.0 912.0Q1433 912 1382.0 912.0Q1331 912 1296.5 912.0Q1262 912 1262 912Q1262 912 1262.0 912.0Q1262 912 1262.0 912.0Q1262 912 1262 912Q1259 912 1242.0 927.0Q1225 942 1201.0 965.0Q1177 988 1154.0 1011.5Q1131 1035 1115.5 1052.0Q1100 1069 1100 1072V1390ZM3220 1544H3140Q3140 1489 3140.0 1456.0Q3140 1423 3140.0 1392.5Q3140 1362 3140 1314Q3140 1314 3140.0 1314.0Q3140 1314 3140 1314Q3140 1314 3140.0 1314.0Q3140 1314 3140 1314Q3140 1264 3140.0 1238.0Q3140 1212 3140.0 1194.5Q3140 1177 3140.0 1153.5Q3140 1130 3140 1084H3220ZM2080 1544V1084H2160Q2160 1130 2160.0 1153.5Q2160 1177 2160.0 1194.5Q2160 1212 2160.0 1238.0Q2160 1264 2160 1314Q2160 1314 2160.0 1314.0Q2160 1314 2160 1314Q2160 1314 2160.0 1314.0Q2160 1314 2160 1314Q2160 1362 2160.0 1392.5Q2160 1423 2160.0 1456.0Q2160 1489 2160 1544ZM3220 1390H3140V1072Q3140 1069 3124.5 1052.0Q3109 1035 3086.0 1011.5Q3063 988 3039.0 965.0Q3015 942 2998.0 927.0Q2981 912 2978 912Q2978 912 2978.0 912.0Q2978 912 2978.0 912.0Q2978 912 2978 912Q2978 912 2943.5 912.0Q2909 912 2858.0 912.0Q2807 912 2756.0 912.0Q2705 912 2670.5 912.0Q2636 912 2636 912Q2636 892 2636.0 871.5Q2636 851 2636 832Q2636 832 2636.0 832.0Q2636 832 2636.0 832.0Q2636 832 2636 832Q2636 832 2636.0 832.0Q2636 832 2636 832Q2643 832 2688.0 832.0Q2733 832 2799.5 832.0Q2866 832 2938.5 832.0Q3011 832 3075.0 832.0Q3139 832 3179.5 832.0Q3220 832 3220 832Q3220 832 3220.0 832.0Q3220 832 3220.0 832.0Q3220 832 3220.0 832.0Q3220 832 3220 832Q3220 832 3220.0 872.5Q3220 913 3220.0 976.5Q3220 1040 3220.0 1111.0Q3220 1182 3220.0 1245.5Q3220 1309 3220.0 1349.5Q3220 1390 3220 1390ZM3220 1242Q3220 1242 3220.0 1282.5Q3220 1323 3220.0 1386.5Q3220 1450 3220.0 1521.0Q3220 1592 3220.0 1655.5Q3220 1719 3220.0 1759.5Q3220 1800 3220 1800Q3220 1800 3220.0 1800.0Q3220 1800 3220.0 1800.0Q3220 1800 3220.0 1800.0Q3220 1800 3220 1800Q3220 1800 3178.0 1800.0Q3136 1800 3069.5 1800.0Q3003 1800 2928.0 1800.0Q2853 1800 2786.5 1800.0Q2720 1800 2678.0 1800.0Q2636 1800 2636 1800Q2636 1800 2636.0 1800.0Q2636 1800 2636 1800Q2636 1800 2636.0 1800.0Q2636 1800 2636.0 1800.0Q2636 1800 2636 1800Q2636 1780 2636.0 1759.5Q2636 1739 2636 1720Q2636 1720 2672.5 1720.0Q2709 1720 2766.5 1720.0Q2824 1720 2888.0 1720.0Q2952 1720 3009.5 1720.0Q3067 1720 3103.5 1720.0Q3140 1720 3140 1720Q3140 1720 3140.0 1720.0Q3140 1720 3140.0 1720.0Q3140 1720 3140.0 1720.0Q3140 1720 3140 1720Q3140 1720 3140.0 1720.0Q3140 1720 3140.0 1720.0Q3140 1720 3140 1720Q3140 1720 3140.0 1720.0Q3140 1720 3140.0 1720.0Q3140 1720 3140.0 1720.0Q3140 1720 3140.0 1720.0Q3140 1720 3140.0 1720.0Q3140 1720 3140 1720Q3140 1720 3140.0 1685.5Q3140 1651 3140.0 1596.5Q3140 1542 3140.0 1481.0Q3140 1420 3140.0 1365.5Q3140 1311 3140.0 1276.5Q3140 1242 3140 1242ZM2080 1242H2160Q2160 1242 2160.0 1276.5Q2160 1311 2160.0 1365.5Q2160 1420 2160.0 1481.0Q2160 1542 2160.0 1596.5Q2160 1651 2160.0 1685.5Q2160 1720 2160 1720Q2160 1720 2160.0 1720.0Q2160 1720 2160.0 1720.0Q2160 1720 2160.0 1720.0Q2160 1720 2160.0 1720.0Q2160 1720 2160.0 1720.0Q2160 1720 2160 1720Q2160 1720 2160.0 1720.0Q2160 1720 2160.0 1720.0Q2160 1720 2160 1720Q2160 1720 2160.0 1720.0Q2160 1720 2160.0 1720.0Q2160 1720 2160.0 1720.0Q2160 1720 2160 1720Q2160 1720 2196.5 1720.0Q2233 1720 2290.5 1720.0Q2348 1720 2412.0 1720.0Q2476 1720 2533.5 1720.0Q2591 1720 2627.5 1720.0Q2664 1720 2664 1720Q2664 1739 2664.0 1759.5Q2664 1780 2664 1800Q2664 1800 2664.0 1800.0Q2664 1800 2664.0 1800.0Q2664 1800 2664 1800Q2664 1800 2664.0 1800.0Q2664 1800 2664 1800Q2664 1800 2622.0 1800.0Q2580 1800 2513.5 1800.0Q2447 1800 2372.0 1800.0Q2297 1800 2230.5 1800.0Q2164 1800 2122.0 1800.0Q2080 1800 2080 1800Q2080 1800 2080.0 1800.0Q2080 1800 2080.0 1800.0Q2080 1800 2080.0 1800.0Q2080 1800 2080 1800Q2080 1800 2080.0 1759.5Q2080 1719 2080.0 1655.5Q2080 1592 2080.0 1521.0Q2080 1450 2080.0 1386.5Q2080 1323 2080.0 1282.5Q2080 1242 2080 1242ZM2080 1390Q2080 1390 2080.0 1349.5Q2080 1309 2080.0 1245.5Q2080 1182 2080.0 1111.0Q2080 1040 2080.0 976.5Q2080 913 2080.0 872.5Q2080 832 2080 832Q2080 832 2080.0 832.0Q2080 832 2080.0 832.0Q2080 832 2080.0 832.0Q2080 832 2080 832Q2080 832 2122.0 832.0Q2164 832 2230.5 832.0Q2297 832 2372.0 832.0Q2447 832 2513.5 832.0Q2580 832 2622.0 832.0Q2664 832 2664 832Q2664 832 2664.0 832.0Q2664 832 2664 832Q2664 832 2664.0 832.0Q2664 832 2664.0 832.0Q2664 832 2664 832Q2664 851 2664.0 871.5Q2664 892 2664 912Q2664 912 2627.5 912.0Q2591 912 2533.5 912.0Q2476 912 2412.0 912.0Q2348 912 2290.5 912.0Q2233 912 2196.5 912.0Q2160 912 2160 912Q2160 912 2160.0 912.0Q2160 912 2160.0 912.0Q2160 912 2160.0 912.0Q2160 912 2160 912Q2160 912 2160.0 912.0Q2160 912 2160.0 912.0Q2160 912 2160 912Q2160 912 2160.0 912.0Q2160 912 2160.0 912.0Q2160 912 2160.0 912.0Q2160 912 2160.0 912.0Q2160 912 2160.0 912.0Q2160 912 2160 912Q2160 912 2160.0 946.5Q2160 981 2160.0 1035.5Q2160 1090 2160.0 1151.0Q2160 1212 2160.0 1266.5Q2160 1321 2160.0 1355.5Q2160 1390 2160 1390ZM2618 1734Q2615 1734 2613.5 1734.0Q2612 1734 2611.0 1733.0Q2610 1732 2610.0 1730.5Q2610 1729 2610 1726Q2610 1726 2610.0 1726.0Q2610 1726 2610.0 1726.0Q2610 1726 2610.0 1726.0Q2610 1726 2610.0 1726.0Q2610 1726 2610 1726Q2610 1726 2610.0 1695.0Q2610 1664 2610.0 1615.5Q2610 1567 2610.0 1512.0Q2610 1457 2610.0 1408.5Q2610 1360 2610.0 1329.0Q2610 1298 2610 1298Q2610 1294 2610.5 1292.5Q2611 1291 2612.5 1290.5Q2614 1290 2618 1290Q2618 1290 2634.0 1290.0Q2650 1290 2666.0 1290.0Q2682 1290 2682 1290Q2686 1290 2687.5 1290.5Q2689 1291 2689.5 1292.5Q2690 1294 2690 1298Q2690 1298 2690.0 1329.0Q2690 1360 2690.0 1408.5Q2690 1457 2690.0 1512.0Q2690 1567 2690.0 1615.5Q2690 1664 2690.0 1695.0Q2690 1726 2690 1726Q2690 1726 2690.0 1726.0Q2690 1726 2690.0 1726.0Q2690 1726 2690.0 1726.0Q2690 1726 2690.0 1726.0Q2690 1726 2690 1726Q2690 1729 2690.0 1730.5Q2690 1732 2689.0 1733.0Q2688 1734 2686.5 1734.0Q2685 1734 2682 1734Q2682 1734 2666.0 1734.0Q2650 1734 2634.0 1734.0Q2618 1734 2618 1734ZM3670 1374Q3670 1374 3676.0 1374.0Q3682 1374 3691.0 1374.0Q3700 1374 3710 1374Q3721 1374 3730.5 1374.0Q3740 1374 3746.0 1374.0Q3752 1374 3752 1374Q3752 1390 3752.0 1429.5Q3752 1469 3752.0 1518.0Q3752 1567 3752.0 1613.5Q3752 1660 3752.0 1690.0Q3752 1720 3752 1720Q3752 1720 3752.0 1720.0Q3752 1720 3752.0 1720.0Q3752 1720 3752 1720Q3752 1720 3784.5 1720.0Q3817 1720 3868.0 1720.0Q3919 1720 3976.0 1720.0Q4033 1720 4084.0 1720.0Q4135 1720 4167.5 1720.0Q4200 1720 4200 1720Q4200 1720 4200.0 1720.0Q4200 1720 4200.0 1720.0Q4200 1720 4200 1720Q4200 1720 4200.0 1688.5Q4200 1657 4200.0 1620.5Q4200 1584 4200 1570Q4200 1559 4200.0 1548.5Q4200 1538 4200.0 1522.5Q4200 1507 4200.0 1483.0Q4200 1459 4200 1422Q4200 1422 4200.0 1422.0Q4200 1422 4200.0 1422.0Q4200 1422 4200 1422Q4200 1422 4200.0 1401.0Q4200 1380 4200.0 1352.0Q4200 1324 4200.0 1303.0Q4200 1282 4200 1282H4280Q4280 1331 4280.0 1390.5Q4280 1450 4280.0 1516.5Q4280 1583 4280.0 1654.5Q4280 1726 4280 1800Q4280 1800 4280.0 1800.0Q4280 1800 4280.0 1800.0Q4280 1800 4280 1800Q4280 1800 4280.0 1800.0Q4280 1800 4280.0 1800.0Q4280 1800 4280.0 1800.0Q4280 1800 4280.0 1800.0Q4280 1800 4280 1800Q4280 1800 4237.0 1800.0Q4194 1800 4126.0 1800.0Q4058 1800 3981.0 1800.0Q3904 1800 3834.5 1800.0Q3765 1800 3719.5 1800.0Q3674 1800 3670 1800Q3670 1800 3670.0 1800.0Q3670 1800 3670 1800Q3670 1800 3670.0 1800.0Q3670 1800 3670.0 1800.0Q3670 1800 3670.0 1800.0Q3670 1800 3670.0 1800.0Q3670 1800 3670 1800Q3670 1800 3670.0 1788.0Q3670 1776 3670.0 1760.0Q3670 1744 3670.0 1732.0Q3670 1720 3670 1720Q3670 1720 3670.0 1720.0Q3670 1720 3670.0 1720.0Q3670 1720 3670 1720Q3670 1680 3670.0 1640.5Q3670 1601 3670.0 1563.5Q3670 1526 3670.0 1492.0Q3670 1458 3670.0 1428.0Q3670 1398 3670 1374ZM3140 1242H3220Q3220 1242 3220.0 1276.5Q3220 1311 3220.0 1365.5Q3220 1420 3220.0 1481.0Q3220 1542 3220.0 1596.5Q3220 1651 3220.0 1685.5Q3220 1720 3220 1720Q3220 1720 3220.0 1720.0Q3220 1720 3220.0 1720.0Q3220 1720 3220.0 1720.0Q3220 1720 3220.0 1720.0Q3220 1720 3220.0 1720.0Q3220 1720 3220 1720Q3220 1720 3220.0 1720.0Q3220 1720 3220.0 1720.0Q3220 1720 3220 1720Q3220 1720 3220.0 1720.0Q3220 1720 3220.0 1720.0Q3220 1720 3220.0 1720.0Q3220 1720 3220 1720Q3220 1720 3256.5 1720.0Q3293 1720 3350.5 1720.0Q3408 1720 3472.0 1720.0Q3536 1720 3593.5 1720.0Q3651 1720 3687.5 1720.0Q3724 1720 3724 1720Q3724 1739 3724.0 1759.5Q3724 1780 3724 1800Q3724 1800 3724.0 1800.0Q3724 1800 3724.0 1800.0Q3724 1800 3724 1800Q3724 1800 3724.0 1800.0Q3724 1800 3724 1800Q3724 1800 3682.0 1800.0Q3640 1800 3573.5 1800.0Q3507 1800 3432.0 1800.0Q3357 1800 3290.5 1800.0Q3224 1800 3182.0 1800.0Q3140 1800 3140 1800Q3140 1800 3140.0 1800.0Q3140 1800 3140.0 1800.0Q3140 1800 3140.0 1800.0Q3140 1800 3140 1800Q3140 1800 3140.0 1759.5Q3140 1719 3140.0 1655.5Q3140 1592 3140.0 1521.0Q3140 1450 3140.0 1386.5Q3140 1323 3140.0 1282.5Q3140 1242 3140 1242ZM3140 1224V628Q3140 628 3171.0 628.0Q3202 628 3248.5 628.0Q3295 628 3342.0 628.0Q3389 628 3422.0 628.0Q3455 628 3458 628Q3458 628 3458.0 628.0Q3458 628 3458 628Q3458 628 3458.0 628.0Q3458 628 3458.0 628.0Q3458 628 3458 628Q3458 628 3458.0 628.0Q3458 628 3458.0 628.0Q3458 628 3458 628Q3458 628 3458.0 628.0Q3458 628 3458 628Q3461 628 3491.0 628.0Q3521 628 3564.5 628.0Q3608 628 3650.5 628.0Q3693 628 3721.5 628.0Q3750 628 3750 628V832Q3792 832 3834.0 832.0Q3876 832 3918.0 832.0Q3960 832 4002 832Q4002 832 4030.0 832.0Q4058 832 4099.5 832.0Q4141 832 4182.5 832.0Q4224 832 4252.0 832.0Q4280 832 4280 832Q4280 832 4280.0 832.0Q4280 832 4280.0 832.0Q4280 832 4280.0 832.0Q4280 832 4280 832V1226H4200V912Q4200 912 4200.0 912.0Q4200 912 4200 912Q4200 912 4200.0 912.0Q4200 912 4200.0 912.0Q4200 912 4200 912Q4200 912 4200.0 912.0Q4200 912 4200 912Q4200 912 4167.5 912.0Q4135 912 4084.0 912.0Q4033 912 3975.5 912.0Q3918 912 3866.5 912.0Q3815 912 3782.5 912.0Q3750 912 3750 912Q3750 912 3750.0 912.0Q3750 912 3750.0 912.0Q3750 912 3750 912Q3750 912 3750.0 937.5Q3750 963 3750.0 1001.0Q3750 1039 3750.0 1077.0Q3750 1115 3750.0 1140.5Q3750 1166 3750 1166Q3750 1166 3730.0 1166.0Q3710 1166 3710 1166Q3710 1166 3690.0 1166.0Q3670 1166 3670 1166Q3670 1166 3670.0 1119.5Q3670 1073 3670.0 1005.0Q3670 937 3670.0 869.0Q3670 801 3670.0 754.5Q3670 708 3670 708Q3670 708 3670.0 708.0Q3670 708 3670 708Q3670 708 3638.0 708.0Q3606 708 3564.0 708.0Q3522 708 3490.0 708.0Q3458 708 3458 708Q3458 708 3422.0 708.0Q3386 708 3339.0 708.0Q3292 708 3256.0 708.0Q3220 708 3220 708Q3220 708 3220.0 708.0Q3220 708 3220 708V1224ZM4060 1296Q4060 1296 4060.0 1296.0Q4060 1296 4060 1296Q4060 1296 4081.0 1279.0Q4102 1262 4130.0 1239.0Q4158 1216 4179.0 1199.0Q4200 1182 4200 1182V1082H4238H4280Q4280 1082 4280.0 1125.0Q4280 1168 4280.0 1232.0Q4280 1296 4280.0 1360.0Q4280 1424 4280.0 1467.0Q4280 1510 4280 1510H4238H4200V1410Q4200 1410 4179.0 1393.0Q4158 1376 4130.0 1353.0Q4102 1330 4081.0 1313.0Q4060 1296 4060 1296Q4060 1296 4060.0 1296.0Q4060 1296 4060 1296ZM3140 1084H3220Q3220 1139 3220.0 1172.0Q3220 1205 3220.0 1235.5Q3220 1266 3220 1314Q3220 1314 3220.0 1314.0Q3220 1314 3220 1314Q3220 1314 3220.0 1314.0Q3220 1314 3220 1314Q3220 1364 3220.0 1390.0Q3220 1416 3220.0 1433.5Q3220 1451 3220.0 1474.5Q3220 1498 3220 1544H3140Z" fill="currentColor" /></svg>