<svg viewBox="0 0 5901 1330" xmlns="http://www.w3.org/2000/svg"><path d="M527 1015V315H597V1015ZM78 1015V315H148V1015ZM132 688V630H547V688ZM962 1027Q890 1027 833.0 995.0Q776 963 743.5 904.5Q711 846 711 767Q711 687 744.0 629.0Q777 571 834.5 539.0Q892 507 964 507Q1037 507 1093.5 539.0Q1150 571 1182.5 629.0Q1215 687 1215 767Q1215 846 1182.0 904.5Q1149 963 1092.0 995.0Q1035 1027 962 1027ZM962 967Q1011 967 1052.0 944.5Q1093 922 1118.0 877.5Q1143 833 1143 767Q1143 700 1118.5 656.0Q1094 612 1053.0 589.5Q1012 567 964 567Q916 567 874.5 589.5Q833 612 808.0 656.0Q783 700 783 767Q783 833 808.0 877.5Q833 922 873.5 944.5Q914 967 962 967ZM1496 1027Q1409 1027 1349.0 986.5Q1289 946 1278 861H1351Q1359 910 1397.5 938.0Q1436 966 1498 966Q1554 966 1585.0 941.0Q1616 916 1616 877Q1616 848 1598.0 833.5Q1580 819 1530 809Q1509 804 1488.5 800.5Q1468 797 1447 793Q1416 787 1383.0 772.0Q1350 757 1327.5 728.5Q1305 700 1305 654Q1305 591 1353.5 549.0Q1402 507 1482 507Q1558 507 1610.5 542.0Q1663 577 1671 658H1600Q1596 609 1563.0 588.5Q1530 568 1480 568Q1435 568 1404.5 589.5Q1374 611 1374 646Q1374 710 1462 727Q1475 729 1487.5 731.5Q1500 734 1512.5 736.5Q1525 739 1537 741Q1558 744 1583.0 751.0Q1608 758 1631.5 772.0Q1655 786 1670.0 809.5Q1685 833 1685 871Q1685 916 1661.5 951.0Q1638 986 1595.5 1006.5Q1553 1027 1496 1027ZM1937 1015Q1899 1015 1872.5 1005.0Q1846 995 1832.5 968.5Q1819 942 1819 893V579H1733V519H1819V404H1889V519H2037V579H1889V880Q1889 916 1894.5 932.0Q1900 948 1916.5 951.5Q1933 955 1967 955H2028V1015ZM2763 1027Q2657 1027 2579.5 981.5Q2502 936 2460.0 855.5Q2418 775 2418 672Q2418 562 2459.5 479.0Q2501 396 2576.5 349.5Q2652 303 2755 303Q2871 303 2949.0 359.0Q3027 415 3049 515H2967Q2953 447 2897.5 407.0Q2842 367 2755 367Q2675 367 2615.5 403.5Q2556 440 2523.0 508.5Q2490 577 2490 673Q2490 762 2524.0 827.5Q2558 893 2619.5 928.5Q2681 964 2761 964Q2872 964 2936.0 896.5Q3000 829 3004 706H2779V644H3072V669Q3072 783 3033.5 863.0Q2995 943 2925.5 985.0Q2856 1027 2763 1027ZM3183 1015V519H3253V598Q3269 559 3298.0 537.5Q3327 516 3370 516H3450V583H3363Q3333 583 3308.0 600.5Q3283 618 3268.0 658.5Q3253 699 3253 768V1015ZM3732 1027Q3660 1027 3603.0 995.0Q3546 963 3513.5 904.5Q3481 846 3481 767Q3481 687 3514.0 629.0Q3547 571 3604.5 539.0Q3662 507 3734 507Q3807 507 3863.5 539.0Q3920 571 3952.5 629.0Q3985 687 3985 767Q3985 846 3952.0 904.5Q3919 963 3862.0 995.0Q3805 1027 3732 1027ZM3732 967Q3781 967 3822.0 944.5Q3863 922 3888.0 877.5Q3913 833 3913 767Q3913 700 3888.5 656.0Q3864 612 3823.0 589.5Q3782 567 3734 567Q3686 567 3644.5 589.5Q3603 612 3578.0 656.0Q3553 700 3553 767Q3553 833 3578.0 877.5Q3603 922 3643.5 944.5Q3684 967 3732 967ZM4232 1015Q4194 1015 4167.5 1005.0Q4141 995 4127.5 968.5Q4114 942 4114 893V579H4028V519H4114V404H4184V519H4332V579H4184V880Q4184 916 4189.5 932.0Q4195 948 4211.5 951.5Q4228 955 4262 955H4323V1015ZM4625 1027Q4555 1027 4501.0 994.5Q4447 962 4416.0 903.5Q4385 845 4385 766Q4385 687 4415.5 629.0Q4446 571 4501.0 539.0Q4556 507 4627 507Q4699 507 4750.0 539.5Q4801 572 4828.0 624.0Q4855 676 4855 736Q4855 746 4855.0 757.0Q4855 768 4854 782H4439V722H4787Q4784 649 4738.0 608.0Q4692 567 4624 567Q4579 567 4540.0 587.0Q4501 607 4477.0 645.5Q4453 684 4453 741V768Q4453 835 4478.0 879.5Q4503 924 4542.5 945.5Q4582 967 4625 967Q4681 967 4719.0 941.0Q4757 915 4773 869H4841Q4829 914 4800.0 950.0Q4771 986 4727.0 1006.5Q4683 1027 4625 1027ZM5131 1027Q5044 1027 4984.0 986.5Q4924 946 4913 861H4986Q4994 910 5032.5 938.0Q5071 966 5133 966Q5189 966 5220.0 941.0Q5251 916 5251 877Q5251 848 5233.0 833.5Q5215 819 5165 809Q5144 804 5123.5 800.5Q5103 797 5082 793Q5051 787 5018.0 772.0Q4985 757 4962.5 728.5Q4940 700 4940 654Q4940 591 4988.5 549.0Q5037 507 5117 507Q5193 507 5245.5 542.0Q5298 577 5306 658H5235Q5231 609 5198.0 588.5Q5165 568 5115 568Q5070 568 5039.5 589.5Q5009 611 5009 646Q5009 710 5097 727Q5110 729 5122.5 731.5Q5135 734 5147.5 736.5Q5160 739 5172 741Q5193 744 5218.0 751.0Q5243 758 5266.5 772.0Q5290 786 5305.0 809.5Q5320 833 5320 871Q5320 916 5296.5 951.0Q5273 986 5230.5 1006.5Q5188 1027 5131 1027ZM5494 836 5484 762 5748 519H5837ZM5436 1015V295H5506V1015ZM5771 1015 5559 742 5605 693 5862 1015Z" fill="currentColor" /></svg>