<svg viewBox="0 0 3497 1410" xmlns="http://www.w3.org/2000/svg"><path d="M72 1090V361H103V1090ZM342 1090V361H373V1090ZM96 726V698H349V726ZM787 575V1090H760L757 1009H753Q737 1049 705.5 1072.5Q674 1096 630 1096Q588 1096 559.0 1076.0Q530 1056 515.5 1019.5Q501 983 501 935V575H532V950Q532 989 544.0 1015.5Q556 1042 578.0 1055.5Q600 1069 631 1069Q681 1069 711.0 1036.0Q741 1003 756 950V575ZM1054 1096Q1014 1096 985.0 1073.5Q956 1051 942 1010H938L934 1090H907V361H938V655H942Q956 614 985.0 591.5Q1014 569 1054 569Q1085 569 1108.0 581.0Q1131 593 1146.5 615.0Q1162 637 1169.5 667.0Q1177 697 1177 732V933Q1177 980 1163.5 1017.0Q1150 1054 1122.5 1075.0Q1095 1096 1054 1096ZM1052 1069Q1079 1069 1100.5 1056.0Q1122 1043 1134.0 1016.5Q1146 990 1146 950V715Q1146 674 1134.0 648.0Q1122 622 1100.5 609.0Q1079 596 1052 596Q1008 596 981.0 625.5Q954 655 938 717V948Q954 1009 981.0 1039.0Q1008 1069 1052 1069ZM1417 1096Q1383 1096 1356.5 1084.0Q1330 1072 1313.0 1049.5Q1296 1027 1287.0 995.0Q1278 963 1278 923V742Q1278 688 1293.5 649.5Q1309 611 1340.0 590.0Q1371 569 1417 569Q1452 569 1478.0 581.0Q1504 593 1521.0 615.5Q1538 638 1547.0 670.0Q1556 702 1556 742V923Q1556 976 1540.5 1015.0Q1525 1054 1494.0 1075.0Q1463 1096 1417 1096ZM1417 1069Q1452 1069 1476.0 1054.0Q1500 1039 1512.5 1012.0Q1525 985 1525 950V715Q1525 679 1512.5 652.5Q1500 626 1476.0 611.0Q1452 596 1417 596Q1383 596 1358.5 611.0Q1334 626 1321.5 652.5Q1309 679 1309 715V950Q1309 985 1321.5 1012.0Q1334 1039 1358.5 1054.0Q1383 1069 1417 1069ZM1737 1090Q1721 1090 1712.0 1081.0Q1703 1072 1703 1056V421H1734V1061H1820V1090ZM1627 602V575H1820V602ZM2177 1096Q2118 1096 2084.0 1071.5Q2050 1047 2035.0 995.5Q2020 944 2019 865H2049Q2050 939 2061.5 984.5Q2073 1030 2101.0 1050.0Q2129 1070 2177 1070Q2211 1070 2233.0 1057.0Q2255 1044 2267.5 1022.5Q2280 1001 2285.5 976.0Q2291 951 2291 926Q2291 876 2276.5 842.5Q2262 809 2238.0 787.0Q2214 765 2187 748L2141 719Q2113 701 2087.0 677.5Q2061 654 2045.0 617.5Q2029 581 2029 525Q2029 482 2039.0 450.0Q2049 418 2067.5 397.0Q2086 376 2112.0 365.5Q2138 355 2169 355Q2228 355 2261.5 381.0Q2295 407 2309.5 459.0Q2324 511 2325 588H2294Q2294 513 2281.5 468.0Q2269 423 2242.0 403.0Q2215 383 2169 383Q2125 383 2101.0 405.0Q2077 427 2068.0 460.0Q2059 493 2059 527Q2059 573 2073.5 604.5Q2088 636 2111.0 657.5Q2134 679 2161 696L2207 725Q2240 745 2266.0 771.0Q2292 797 2307.0 834.0Q2322 871 2322 926Q2322 970 2311.0 1002.0Q2300 1034 2280.5 1055.0Q2261 1076 2234.5 1086.0Q2208 1096 2177 1096ZM2553 1096Q2522 1096 2499.0 1084.0Q2476 1072 2460.5 1050.0Q2445 1028 2437.5 998.0Q2430 968 2430 933V732Q2430 685 2443.5 648.0Q2457 611 2484.5 590.0Q2512 569 2553 569Q2594 569 2623.0 591.5Q2652 614 2665 655H2669L2673 575H2700V1090H2673L2669 1010H2665Q2652 1051 2623.0 1073.5Q2594 1096 2553 1096ZM2555 1069Q2599 1069 2626.0 1039.0Q2653 1009 2669 948V717Q2653 655 2626.0 625.5Q2599 596 2555 596Q2528 596 2507.0 609.0Q2486 622 2473.5 648.0Q2461 674 2461 715V950Q2461 990 2473.5 1016.5Q2486 1043 2507.0 1056.0Q2528 1069 2555 1069ZM2820 1090V575H2847L2850 656H2854Q2871 616 2902.5 592.5Q2934 569 2977 569Q3020 569 3048.5 589.0Q3077 609 3091.5 645.0Q3106 681 3106 730V1090H3075V715Q3075 675 3063.0 649.0Q3051 623 3029.0 609.5Q3007 596 2976 596Q2926 596 2896.0 629.0Q2866 662 2851 715V1090ZM3331 1096Q3287 1096 3258.0 1076.5Q3229 1057 3215.0 1021.5Q3201 986 3201 940H3231Q3231 986 3243.0 1014.5Q3255 1043 3277.5 1056.0Q3300 1069 3331 1069Q3381 1069 3403.5 1041.0Q3426 1013 3426 970Q3426 920 3403.0 894.0Q3380 868 3345 850L3322 838Q3296 824 3271.0 807.0Q3246 790 3229.5 763.0Q3213 736 3213 694Q3213 656 3227.5 628.0Q3242 600 3268.5 584.5Q3295 569 3330 569Q3375 569 3402.0 588.0Q3429 607 3441.5 639.0Q3454 671 3454 711H3424Q3423 673 3413.5 647.5Q3404 622 3384.0 609.0Q3364 596 3330 596Q3303 596 3284.0 607.5Q3265 619 3255.0 640.5Q3245 662 3245 692Q3245 738 3266.5 762.0Q3288 786 3321 803L3344 815Q3371 829 3397.0 847.0Q3423 865 3440.0 894.0Q3457 923 3457 970Q3457 1011 3440.5 1039.0Q3424 1067 3396.0 1081.5Q3368 1096 3331 1096Z" fill="currentColor" /></svg>