<svg viewBox="0 0 2906 645" xmlns="http://www.w3.org/2000/svg"><path d="M37 645Q18 645 9.0 633.5Q0 622 0 603Q0 574 14.5 535.0Q29 496 49.0 458.0Q69 420 83 395L70 396Q63 397 50.0 394.0Q37 391 37 381Q37 368 52.5 358.5Q68 349 87.0 343.5Q106 338 115 337Q123 324 141.5 294.5Q160 265 184.5 227.0Q209 189 236.0 149.5Q263 110 288.5 76.0Q314 42 335.0 21.0Q356 0 367 0Q378 0 388.5 11.0Q399 22 400 33Q340 106 279.0 182.0Q218 258 171 340Q227 338 284.0 336.0Q341 334 397 334Q455 334 510 337Q514 326 530.5 298.0Q547 270 571.5 231.5Q596 193 623.5 153.0Q651 113 678.0 78.5Q705 44 727.0 22.5Q749 1 761 1Q774 1 784.5 14.0Q795 27 795 39Q795 46 788 53Q722 114 664.5 190.0Q607 266 558 342Q565 343 579.5 347.5Q594 352 594 362Q594 366 579.5 372.0Q565 378 548.0 386.5Q531 395 523 409Q516 422 503.0 449.0Q490 476 476.5 507.5Q463 539 454.0 566.5Q445 594 445 608Q445 612 446.5 616.5Q448 621 453 621Q471 621 471 628Q471 636 459 636Q436 636 427.0 624.5Q418 613 418 591Q418 555 432.0 515.5Q446 476 464.5 437.5Q483 399 496 367Q492 365 487.5 365.0Q483 365 478 365Q418 365 356.5 369.0Q295 373 235 379Q202 383 181.5 385.5Q161 388 147.5 394.0Q134 400 122.5 415.0Q111 430 94 459Q87 471 76.0 491.5Q65 512 53.5 536.0Q42 560 34.5 581.0Q27 602 27 616Q27 620 28.5 624.0Q30 628 35 628Q45 628 56.0 618.5Q67 609 70 609Q72 609 72 611Q72 623 61.0 634.0Q50 645 37 645ZM858 616Q838 616 816.0 599.0Q794 582 794 560Q794 540 804.0 513.0Q814 486 827 464Q796 497 764.5 530.0Q733 563 703 597Q693 609 679 609Q660 609 643.5 589.0Q627 569 627 551Q627 546 628 543Q635 524 644.5 505.5Q654 487 664 470Q675 451 687.5 433.5Q700 416 713 398Q718 392 722.5 385.5Q727 379 731 372Q734 367 734.0 360.0Q734 353 733 348Q743 335 760.0 322.5Q777 310 793 310Q797 310 806.5 312.5Q816 315 824.5 318.5Q833 322 833 326Q833 330 829 334Q824 339 818.0 344.0Q812 349 807 355Q784 378 763.0 403.5Q742 429 723 455Q717 464 704.5 481.5Q692 499 682.0 517.0Q672 535 672 546Q672 556 681 556Q691 556 710.5 542.5Q730 529 753.0 507.5Q776 486 798.5 463.0Q821 440 838.5 421.0Q856 402 863 393Q884 368 904 337Q912 325 923.5 315.5Q935 306 949 306Q957 306 969.5 307.5Q982 309 982 320Q982 324 979.5 328.0Q977 332 974 335Q941 369 911.5 406.5Q882 444 862 488Q855 503 848.0 527.5Q841 552 841 569Q841 586 854 586Q863 586 872 580Q883 574 902.0 555.5Q921 537 942.5 513.5Q964 490 983.0 468.5Q1002 447 1012 435Q1014 433 1016.0 431.5Q1018 430 1020 430Q1027 430 1027 438Q1027 442 1025.0 444.0Q1023 446 1021 449Q990 485 959.5 522.0Q929 559 898 595Q891 604 881.0 610.0Q871 616 858 616ZM1097 621Q1081 621 1063.5 604.5Q1046 588 1046 572Q1046 552 1060.0 526.5Q1074 501 1093.0 477.0Q1112 453 1126.0 435.5Q1140 418 1140 412V410Q1131 402 1123.0 394.5Q1115 387 1101 387Q1091 387 1075.5 399.0Q1060 411 1044.0 427.0Q1028 443 1015.0 457.0Q1002 471 996 476Q992 480 988.5 481.0Q985 482 983 482Q979 482 979 478Q979 474 983 470Q999 449 1020.0 427.0Q1041 405 1058.0 386.5Q1075 368 1078 360Q1086 337 1094.5 319.0Q1103 301 1122 285Q1130 277 1141.0 272.0Q1152 267 1163 267Q1173 267 1179.5 272.5Q1186 278 1186 289Q1186 301 1175.5 313.0Q1165 325 1151.0 335.5Q1137 346 1126.5 354.0Q1116 362 1117 367Q1123 371 1140.5 377.0Q1158 383 1165 383Q1173 383 1180.0 380.0Q1187 377 1194 377Q1204 377 1214.0 383.0Q1224 389 1224 401Q1224 411 1216.5 419.5Q1209 428 1201 434Q1189 443 1169.0 461.0Q1149 479 1128.5 501.0Q1108 523 1093.5 544.5Q1079 566 1079 582Q1079 586 1081 590Q1082 591 1085 591Q1105 591 1130.0 573.0Q1155 555 1180.5 529.0Q1206 503 1228.5 477.5Q1251 452 1267 438Q1269 436 1272.0 434.0Q1275 432 1278 432Q1283 432 1283 439Q1283 443 1269.5 459.0Q1256 475 1235.0 497.0Q1214 519 1191.5 542.0Q1169 565 1150.0 582.5Q1131 600 1123 607Q1112 616 1107.0 618.5Q1102 621 1097 621ZM1353 621Q1337 621 1319.5 604.5Q1302 588 1302 572Q1302 552 1316.0 526.5Q1330 501 1349.0 477.0Q1368 453 1382.0 435.5Q1396 418 1396 412V410Q1387 402 1379.0 394.5Q1371 387 1357 387Q1347 387 1331.5 399.0Q1316 411 1300.0 427.0Q1284 443 1271.0 457.0Q1258 471 1252 476Q1248 480 1244.5 481.0Q1241 482 1239 482Q1235 482 1235 478Q1235 474 1239 470Q1255 449 1276.0 427.0Q1297 405 1314.0 386.5Q1331 368 1334 360Q1342 337 1350.5 319.0Q1359 301 1378 285Q1386 277 1397.0 272.0Q1408 267 1419 267Q1429 267 1435.5 272.5Q1442 278 1442 289Q1442 301 1431.5 313.0Q1421 325 1407.0 335.5Q1393 346 1382.5 354.0Q1372 362 1373 367Q1379 371 1396.5 377.0Q1414 383 1421 383Q1429 383 1436.0 380.0Q1443 377 1450 377Q1460 377 1470.0 383.0Q1480 389 1480 401Q1480 411 1472.5 419.5Q1465 428 1457 434Q1445 443 1425.0 461.0Q1405 479 1384.5 501.0Q1364 523 1349.5 544.5Q1335 566 1335 582Q1335 586 1337 590Q1338 591 1341 591Q1361 591 1386.0 573.0Q1411 555 1436.5 529.0Q1462 503 1484.5 477.5Q1507 452 1523 438Q1525 436 1528.0 434.0Q1531 432 1534 432Q1539 432 1539 439Q1539 443 1525.5 459.0Q1512 475 1491.0 497.0Q1470 519 1447.5 542.0Q1425 565 1406.0 582.5Q1387 600 1379 607Q1368 616 1363.0 618.5Q1358 621 1353 621ZM1718 232Q1695 232 1695 215Q1695 203 1708.0 189.0Q1721 175 1746 169Q1761 165 1770.5 164.5Q1780 164 1789 161Q1785 180 1772.5 202.0Q1760 224 1740 229Q1730 232 1718 232ZM1558 630Q1542 630 1528.5 617.0Q1515 604 1512 589Q1515 570 1525.5 542.5Q1536 515 1550.0 485.0Q1564 455 1578.0 428.5Q1592 402 1602 386Q1583 403 1561.5 424.0Q1540 445 1521 463Q1520 464 1516.5 467.0Q1513 470 1510 470Q1503 470 1503 464Q1503 459 1507 455Q1534 425 1563.5 395.0Q1593 365 1621 333Q1630 322 1636.5 315.5Q1643 309 1657 309Q1663 309 1675.5 311.5Q1688 314 1696.5 320.0Q1705 326 1699 335Q1692 346 1675.0 371.0Q1658 396 1636.5 428.0Q1615 460 1594.5 492.5Q1574 525 1561.0 551.0Q1548 577 1548 590Q1548 596 1552 596Q1558 596 1572.5 585.0Q1587 574 1601.5 561.5Q1616 549 1621 545Q1650 520 1678.0 493.5Q1706 467 1731 438Q1733 436 1736.5 432.0Q1740 428 1744 428Q1749 428 1749 434Q1749 441 1744 448Q1731 464 1715.0 479.5Q1699 495 1685 510Q1659 536 1634.5 561.5Q1610 587 1586 614Q1581 620 1573.5 625.0Q1566 630 1558 630ZM1756 623Q1723 623 1703.5 601.0Q1684 579 1684 545Q1684 513 1704.5 475.0Q1725 437 1757.5 401.0Q1790 365 1825.0 338.0Q1860 311 1888 301Q1901 296 1912 296Q1925 296 1929.0 302.0Q1933 308 1935.5 315.0Q1938 322 1944 326Q1955 332 1955 347Q1955 358 1949.5 373.5Q1944 389 1934.0 400.5Q1924 412 1910 412Q1897 412 1897 401Q1897 394 1904.0 386.0Q1911 378 1918.0 368.5Q1925 359 1925 350Q1925 341 1916 341Q1899 341 1874.0 358.5Q1849 376 1823.0 404.0Q1797 432 1774.0 463.5Q1751 495 1737.0 523.0Q1723 551 1723 569Q1723 582 1729.5 590.5Q1736 599 1749 599Q1770 599 1796.0 587.0Q1822 575 1845.5 558.0Q1869 541 1884 528Q1912 503 1938.5 477.5Q1965 452 1991 426Q1994 423 1998 423Q2007 423 2007 431Q2007 435 1991.0 452.5Q1975 470 1953.0 492.0Q1931 514 1912.0 532.0Q1893 550 1887 555Q1871 569 1848.5 585.0Q1826 601 1802.0 612.0Q1778 623 1756 623ZM2136 618Q2127 618 2115.5 610.0Q2104 602 2096.0 591.5Q2088 581 2088 572Q2088 557 2099.0 531.5Q2110 506 2124.5 481.0Q2139 456 2147 444Q2133 456 2111.5 482.5Q2090 509 2065.5 538.5Q2041 568 2018.5 589.0Q1996 610 1980 610Q1958 610 1944.5 594.5Q1931 579 1931 557Q1931 527 1948.0 492.5Q1965 458 1992.5 425.5Q2020 393 2052.5 366.0Q2085 339 2116.5 323.0Q2148 307 2173 307Q2200 307 2217.0 319.5Q2234 332 2234 357Q2234 361 2232.5 372.0Q2231 383 2225 383Q2222 383 2215.5 374.0Q2209 365 2198.0 356.0Q2187 347 2170 347Q2142 347 2111.5 367.5Q2081 388 2053.0 419.5Q2025 451 2004.0 484.0Q1983 517 1972 541Q1969 548 1966.5 556.0Q1964 564 1964 572Q1964 581 1969 581Q1974 581 1990.5 570.0Q2007 559 2014 554Q2049 529 2080.5 497.0Q2112 465 2137 431Q2145 420 2152.0 409.0Q2159 398 2166 388Q2171 381 2176 381Q2187 381 2197.5 396.0Q2208 411 2208 422Q2208 427 2206.5 428.0Q2205 429 2200 434Q2185 449 2170.5 476.0Q2156 503 2145.5 530.5Q2135 558 2130 577Q2129 580 2128.5 584.5Q2128 589 2133 588Q2143 585 2165.5 565.5Q2188 546 2214.5 520.5Q2241 495 2262.5 473.0Q2284 451 2291 442Q2293 440 2295.5 437.5Q2298 435 2301 435Q2308 435 2308 442Q2308 446 2292.0 465.5Q2276 485 2252.0 510.5Q2228 536 2203.0 560.5Q2178 585 2159.5 601.5Q2141 618 2136 618ZM2470 620Q2455 620 2436.5 611.5Q2418 603 2418 585Q2418 564 2434.0 535.0Q2450 506 2472.0 474.5Q2494 443 2514.5 414.0Q2535 385 2544 365Q2538 368 2524.5 376.5Q2511 385 2498.0 393.5Q2485 402 2479 407Q2436 439 2404.5 473.0Q2373 507 2341 551Q2333 563 2324.5 576.0Q2316 589 2307 601Q2303 606 2293.5 611.0Q2284 616 2276 616Q2263 616 2263 602Q2263 590 2275.5 565.0Q2288 540 2307.0 508.0Q2326 476 2347.0 444.5Q2368 413 2385.0 387.5Q2402 362 2409 351Q2407 354 2398.0 361.5Q2389 369 2380.5 376.5Q2372 384 2368 387Q2349 405 2331.0 424.0Q2313 443 2295 462Q2293 464 2287.5 468.0Q2282 472 2278 472Q2273 472 2273 467Q2273 462 2287.0 446.0Q2301 430 2322.0 408.0Q2343 386 2365.5 363.0Q2388 340 2405.0 322.0Q2422 304 2428 297Q2438 284 2449.5 276.0Q2461 268 2477 268Q2486 268 2499.0 276.5Q2512 285 2512 296Q2512 300 2510 301Q2480 326 2451.5 360.0Q2423 394 2398.0 430.0Q2373 466 2352 497Q2376 470 2406.0 443.5Q2436 417 2464 394L2535 336Q2542 330 2549.5 323.0Q2557 316 2564 311Q2572 306 2581.5 306.5Q2591 307 2601 307Q2612 307 2622.5 313.0Q2633 319 2633 332Q2633 345 2626.5 351.5Q2620 358 2612 366Q2595 382 2570.5 408.0Q2546 434 2522.0 464.0Q2498 494 2482.0 524.5Q2466 555 2466 581Q2466 584 2466.0 587.0Q2466 590 2467 593Q2488 585 2513.5 566.5Q2539 548 2565.0 525.0Q2591 502 2613.5 479.0Q2636 456 2651 438Q2653 436 2655.5 433.0Q2658 430 2662 430Q2667 430 2667 437Q2667 441 2664 446Q2645 471 2613.0 505.0Q2581 539 2547.0 569.5Q2513 600 2486 616Q2479 620 2470 620ZM2675 600Q2615 600 2615 541Q2615 518 2627.5 487.5Q2640 457 2661.0 426.0Q2682 395 2708.0 368.5Q2734 342 2761.5 325.5Q2789 309 2813 309Q2821 309 2824.5 312.5Q2828 316 2830 324Q2832 328 2833.0 333.0Q2834 338 2836 343Q2840 350 2843.0 357.0Q2846 364 2846 372Q2846 382 2841.0 389.5Q2836 397 2829 403Q2819 412 2799.0 425.5Q2779 439 2755.5 452.5Q2732 466 2710.5 476.0Q2689 486 2676 488Q2667 502 2657.5 522.5Q2648 543 2648 560Q2648 569 2652.5 576.0Q2657 583 2667 583Q2683 583 2709.5 567.5Q2736 552 2765.0 529.5Q2794 507 2818.5 485.5Q2843 464 2855 452L2887 418Q2893 412 2900 412Q2906 412 2906 417Q2906 423 2889.0 441.5Q2872 460 2848.5 482.5Q2825 505 2805.0 523.5Q2785 542 2779 547Q2758 565 2731.0 582.5Q2704 600 2675 600ZM2693 462Q2703 456 2723.5 443.0Q2744 430 2766.0 414.0Q2788 398 2803.5 382.0Q2819 366 2819 354Q2819 351 2818 349Q2817 348 2814 348Q2801 348 2783.0 362.0Q2765 376 2747.0 395.5Q2729 415 2714.5 433.5Q2700 452 2693 462Z" /></svg>