<svg viewBox="0 0 6429 1300" xmlns="http://www.w3.org/2000/svg"><path d="M340 1025H60V955H158V397H60V327H340V397H242V955H340ZM493 1025V327H780Q866 327 916.0 376.0Q966 425 966 507Q966 559 947.5 590.0Q929 621 902.5 636.0Q876 651 853 655V661Q872 662 895.5 671.5Q919 681 940.5 700.0Q962 719 976.0 749.0Q990 779 990 823Q990 880 966.5 926.0Q943 972 902.5 998.5Q862 1025 810 1025ZM577 701V951H784Q820 951 846.0 938.5Q872 926 886.0 902.0Q900 878 900 843V809Q900 774 886.0 750.0Q872 726 846.0 713.5Q820 701 784 701ZM577 401V629H770Q803 629 826.5 617.5Q850 606 863.0 584.5Q876 563 876 532V498Q876 467 863.0 445.5Q850 424 826.5 412.5Q803 401 770 401ZM1146 1025V327H1258L1390 574L1458 703H1463L1532 574L1664 327H1772V1025H1690V554V437H1685L1626 554L1459 858L1292 554L1233 437H1228V554V1025ZM2278 1025H2194V327H2472Q2535 327 2578.5 351.5Q2622 376 2644.5 420.5Q2667 465 2667 527Q2667 588 2644.5 633.0Q2622 678 2578.5 702.5Q2535 727 2472 727H2278ZM2278 401V653H2472Q2505 653 2528.5 641.5Q2552 630 2564.5 607.5Q2577 585 2577 553V501Q2577 469 2564.5 446.5Q2552 424 2528.5 412.5Q2505 401 2472 401ZM2948 1025H2877Q2836 1025 2814.0 1001.5Q2792 978 2792 942V285H2872V955H2948ZM3258 1037Q3188 1037 3136.0 1003.5Q3084 970 3055.0 909.5Q3026 849 3026 767Q3026 685 3055.0 624.5Q3084 564 3136.0 530.5Q3188 497 3258 497Q3327 497 3377.0 529.5Q3427 562 3454.0 619.0Q3481 676 3481 749V787H3110V811Q3110 878 3150.5 922.5Q3191 967 3263 967Q3312 967 3348.5 944.0Q3385 921 3405 878L3462 919Q3437 971 3384.0 1004.0Q3331 1037 3258 1037ZM3258 564Q3215 564 3181.5 584.0Q3148 604 3129.0 639.5Q3110 675 3110 720V727H3395V716Q3395 670 3378.0 636.0Q3361 602 3330.0 583.0Q3299 564 3258 564ZM3537 1025 3728 765 3545 509H3639L3770 701H3773L3909 509H3998L3816 759L4002 1025H3908L3774 823H3771L3626 1025ZM4548 1037Q4464 1037 4403.5 1004.5Q4343 972 4301 915L4363 863Q4400 912 4445.0 937.5Q4490 963 4551 963Q4626 963 4665.5 927.0Q4705 891 4705 831Q4705 798 4692.0 775.0Q4679 752 4650.5 736.5Q4622 721 4576 711L4519 698Q4456 683 4412.0 659.0Q4368 635 4345.0 597.0Q4322 559 4322 506Q4322 444 4351.0 401.5Q4380 359 4432.5 337.0Q4485 315 4553 315Q4632 315 4688.5 344.0Q4745 373 4784 429L4721 475Q4693 435 4651.5 412.0Q4610 389 4549 389Q4482 389 4443.5 418.0Q4405 447 4405 503Q4405 536 4419.5 558.0Q4434 580 4463.0 594.5Q4492 609 4536 619L4593 632Q4661 647 4704.0 673.0Q4747 699 4767.5 737.0Q4788 775 4788 827Q4788 891 4759.0 938.0Q4730 985 4676.5 1011.0Q4623 1037 4548 1037ZM5345 1025H5300Q5268 1025 5248.0 1011.5Q5228 998 5219.0 974.0Q5210 950 5210 919V912L5241 941H5206Q5190 988 5150.5 1012.5Q5111 1037 5057 1037Q4975 1037 4929.5 995.0Q4884 953 4884 881Q4884 832 4908.0 798.5Q4932 765 4980.5 747.5Q5029 730 5104 730H5206V679Q5206 624 5176.0 595.0Q5146 566 5084 566Q5038 566 5006.0 587.0Q4974 608 4953 643L4905 598Q4926 557 4972.0 527.0Q5018 497 5088 497Q5181 497 5233.5 543.0Q5286 589 5286 671V955H5345ZM5206 790H5100Q5032 790 5000.0 810.0Q4968 830 4968 868V889Q4968 927 4996.0 948.0Q5024 969 5070 969Q5110 969 5140.5 956.5Q5171 944 5188.5 922.5Q5206 901 5206 875ZM5539 1025H5459V509H5539V593H5543Q5562 549 5596.5 523.0Q5631 497 5689 497Q5769 497 5815.5 548.5Q5862 600 5862 694V1025H5782V708Q5782 639 5752.5 604.0Q5723 569 5665 569Q5633 569 5604.0 579.5Q5575 590 5557.0 612.0Q5539 634 5539 667ZM6182 1037Q6111 1037 6062.0 1009.5Q6013 982 5978 936L6035 890Q6065 927 6102.0 948.0Q6139 969 6188 969Q6239 969 6267.5 947.0Q6296 925 6296 885Q6296 855 6276.5 833.0Q6257 811 6206 804L6165 798Q6118 791 6080.0 774.5Q6042 758 6020.5 727.5Q5999 697 5999 649Q5999 572 6051.5 534.5Q6104 497 6183 497Q6225 497 6257.5 507.0Q6290 517 6316.0 535.5Q6342 554 6363 580L6310 628Q6293 604 6260.0 584.5Q6227 565 6177 565Q6128 565 6102.0 586.5Q6076 608 6076 645Q6076 682 6101.5 699.5Q6127 717 6175 725L6215 731Q6301 744 6337.0 780.5Q6373 817 6373 876Q6373 926 6350.0 962.0Q6327 998 6284.0 1017.5Q6241 1037 6182 1037Z" fill="currentColor" /></svg>