<svg viewBox="0 0 11672 1530" xmlns="http://www.w3.org/2000/svg"><path d="M60 1070V1000H158V442H60V372H340V442H242V1000H340V1070ZM493 372H780Q867 372 916.5 421.0Q966 470 966 552Q966 591 955.0 618.0Q944 645 927.0 662.5Q910 680 890.0 688.5Q870 697 853 700V706Q872 707 895.5 716.0Q919 725 940.0 744.5Q961 764 975.5 794.5Q990 825 990 868Q990 911 976.5 948.0Q963 985 939.0 1012.0Q915 1039 882.0 1054.5Q849 1070 810 1070H493ZM577 996H784Q838 996 869.0 968.5Q900 941 900 888V854Q900 801 869.0 773.5Q838 746 784 746H577ZM577 674H770Q820 674 848.0 649.0Q876 624 876 577V543Q876 496 848.0 471.0Q820 446 770 446H577ZM1690 482H1685L1626 599L1459 903L1292 599L1233 482H1228V1070H1146V372H1258L1458 748H1463L1664 372H1772V1070H1690ZM2194 1070V372H2472Q2566 372 2616.5 425.5Q2667 479 2667 572Q2667 665 2616.5 718.5Q2566 772 2472 772H2278V1070ZM2278 698H2472Q2522 698 2549.5 672.0Q2577 646 2577 598V546Q2577 498 2549.5 472.0Q2522 446 2472 446H2278ZM2877 1070Q2835 1070 2813.5 1046.5Q2792 1023 2792 987V330H2872V1000H2948V1070ZM3258 1082Q3205 1082 3162.5 1063.0Q3120 1044 3089.5 1008.5Q3059 973 3042.5 923.5Q3026 874 3026 812Q3026 751 3042.5 701.0Q3059 651 3089.5 615.5Q3120 580 3162.5 561.0Q3205 542 3258 542Q3310 542 3351.0 561.0Q3392 580 3421.0 613.5Q3450 647 3465.5 693.0Q3481 739 3481 794V832H3110V856Q3110 889 3120.5 917.5Q3131 946 3150.5 967.0Q3170 988 3198.5 1000.0Q3227 1012 3263 1012Q3312 1012 3348.5 989.0Q3385 966 3405 923L3462 964Q3437 1017 3384.0 1049.5Q3331 1082 3258 1082ZM3258 609Q3225 609 3198.0 620.5Q3171 632 3151.5 653.0Q3132 674 3121.0 702.5Q3110 731 3110 765V772H3395V761Q3395 692 3357.5 650.5Q3320 609 3258 609ZM3537 1070 3728 810 3545 554H3639L3770 746H3773L3909 554H3998L3816 804L4002 1070H3908L3774 868H3771L3626 1070ZM4548 1082Q4463 1082 4403.0 1049.5Q4343 1017 4301 960L4363 908Q4400 957 4445.0 982.5Q4490 1008 4551 1008Q4626 1008 4665.5 972.0Q4705 936 4705 876Q4705 826 4675.0 799.0Q4645 772 4576 756L4519 743Q4423 721 4372.5 676.5Q4322 632 4322 551Q4322 505 4339.0 469.0Q4356 433 4386.5 409.0Q4417 385 4459.5 372.5Q4502 360 4553 360Q4632 360 4688.5 389.0Q4745 418 4784 474L4721 520Q4692 480 4651.0 457.0Q4610 434 4549 434Q4482 434 4443.5 462.5Q4405 491 4405 548Q4405 598 4437.5 623.5Q4470 649 4536 664L4593 677Q4696 700 4742.0 747.0Q4788 794 4788 872Q4788 920 4771.5 959.0Q4755 998 4724.0 1025.0Q4693 1052 4648.5 1067.0Q4604 1082 4548 1082ZM5300 1070Q5255 1070 5235.5 1046.0Q5216 1022 5211 986H5206Q5189 1034 5150.0 1058.0Q5111 1082 5057 1082Q4975 1082 4929.5 1040.0Q4884 998 4884 926Q4884 853 4937.5 814.0Q4991 775 5104 775H5206V724Q5206 669 5176.0 640.0Q5146 611 5084 611Q5037 611 5005.5 632.0Q4974 653 4953 688L4905 643Q4926 601 4972.0 571.5Q5018 542 5088 542Q5182 542 5234.0 588.0Q5286 634 5286 716V1000H5345V1070ZM5070 1014Q5100 1014 5125.0 1007.0Q5150 1000 5168.0 987.0Q5186 974 5196.0 957.0Q5206 940 5206 920V835H5100Q5031 835 4999.5 855.0Q4968 875 4968 913V934Q4968 972 4995.5 993.0Q5023 1014 5070 1014ZM5459 1070V554H5539V638H5543Q5562 594 5596.5 568.0Q5631 542 5689 542Q5769 542 5815.5 593.5Q5862 645 5862 739V1070H5782V753Q5782 614 5665 614Q5641 614 5618.5 620.0Q5596 626 5578.0 638.0Q5560 650 5549.5 668.5Q5539 687 5539 712V1070ZM6182 1082Q6110 1082 6061.5 1054.5Q6013 1027 5978 981L6035 935Q6065 973 6102.0 993.5Q6139 1014 6188 1014Q6239 1014 6267.5 992.0Q6296 970 6296 930Q6296 900 6276.5 878.5Q6257 857 6206 849L6165 843Q6129 838 6099.0 827.5Q6069 817 6046.5 799.5Q6024 782 6011.5 756.0Q5999 730 5999 694Q5999 656 6013.0 627.5Q6027 599 6051.5 580.0Q6076 561 6110.0 551.5Q6144 542 6183 542Q6246 542 6288.5 564.0Q6331 586 6363 625L6310 673Q6293 649 6260.0 629.5Q6227 610 6177 610Q6127 610 6101.5 631.5Q6076 653 6076 690Q6076 728 6101.5 745.0Q6127 762 6175 770L6215 776Q6301 789 6337.0 825.5Q6373 862 6373 921Q6373 996 6322.0 1039.0Q6271 1082 6182 1082ZM6758 372H6992Q7057 372 7110.0 394.0Q7163 416 7200.5 459.5Q7238 503 7258.0 568.5Q7278 634 7278 721Q7278 808 7258.0 873.5Q7238 939 7200.5 982.5Q7163 1026 7110.0 1048.0Q7057 1070 6992 1070H6758ZM6992 996Q7035 996 7071.0 981.5Q7107 967 7133.0 939.0Q7159 911 7173.5 870.5Q7188 830 7188 778V664Q7188 612 7173.5 571.5Q7159 531 7133.0 503.0Q7107 475 7071.0 460.5Q7035 446 6992 446H6842V996ZM7615 1082Q7562 1082 7519.5 1063.0Q7477 1044 7446.5 1008.5Q7416 973 7399.5 923.5Q7383 874 7383 812Q7383 751 7399.5 701.0Q7416 651 7446.5 615.5Q7477 580 7519.5 561.0Q7562 542 7615 542Q7667 542 7708.0 561.0Q7749 580 7778.0 613.5Q7807 647 7822.5 693.0Q7838 739 7838 794V832H7467V856Q7467 889 7477.5 917.5Q7488 946 7507.5 967.0Q7527 988 7555.5 1000.0Q7584 1012 7620 1012Q7669 1012 7705.5 989.0Q7742 966 7762 923L7819 964Q7794 1017 7741.0 1049.5Q7688 1082 7615 1082ZM7615 609Q7582 609 7555.0 620.5Q7528 632 7508.5 653.0Q7489 674 7478.0 702.5Q7467 731 7467 765V772H7752V761Q7752 692 7714.5 650.5Q7677 609 7615 609ZM8076 1070 7895 554H7975L8065 810L8121 986H8126L8182 810L8274 554H8351L8169 1070ZM8820 1070Q8775 1070 8755.5 1046.0Q8736 1022 8731 986H8726Q8709 1034 8670.0 1058.0Q8631 1082 8577 1082Q8495 1082 8449.5 1040.0Q8404 998 8404 926Q8404 853 8457.5 814.0Q8511 775 8624 775H8726V724Q8726 669 8696.0 640.0Q8666 611 8604 611Q8557 611 8525.5 632.0Q8494 653 8473 688L8425 643Q8446 601 8492.0 571.5Q8538 542 8608 542Q8702 542 8754.0 588.0Q8806 634 8806 716V1000H8865V1070ZM8590 1014Q8620 1014 8645.0 1007.0Q8670 1000 8688.0 987.0Q8706 974 8716.0 957.0Q8726 940 8726 920V835H8620Q8551 835 8519.5 855.0Q8488 875 8488 913V934Q8488 972 8515.5 993.0Q8543 1014 8590 1014ZM8979 1070V554H9059V638H9063Q9082 594 9116.5 568.0Q9151 542 9209 542Q9289 542 9335.5 593.5Q9382 645 9382 739V1070H9302V753Q9302 614 9185 614Q9161 614 9138.5 620.0Q9116 626 9098.0 638.0Q9080 650 9069.5 668.5Q9059 687 9059 712V1070ZM9922 1070Q9877 1070 9857.5 1046.0Q9838 1022 9833 986H9828Q9811 1034 9772.0 1058.0Q9733 1082 9679 1082Q9597 1082 9551.5 1040.0Q9506 998 9506 926Q9506 853 9559.5 814.0Q9613 775 9726 775H9828V724Q9828 669 9798.0 640.0Q9768 611 9706 611Q9659 611 9627.5 632.0Q9596 653 9575 688L9527 643Q9548 601 9594.0 571.5Q9640 542 9710 542Q9804 542 9856.0 588.0Q9908 634 9908 716V1000H9967V1070ZM9692 1014Q9722 1014 9747.0 1007.0Q9772 1000 9790.0 987.0Q9808 974 9818.0 957.0Q9828 940 9828 920V835H9722Q9653 835 9621.5 855.0Q9590 875 9590 913V934Q9590 972 9617.5 993.0Q9645 1014 9692 1014ZM10516 1127Q10516 1207 10453.5 1244.5Q10391 1282 10266 1282Q10145 1282 10092.0 1249.0Q10039 1216 10039 1155Q10039 1113 10061.0 1089.5Q10083 1066 10121 1055V1044Q10075 1022 10075 972Q10075 933 10100.0 912.5Q10125 892 10164 882V878Q10118 856 10092.5 815.0Q10067 774 10067 720Q10067 681 10081.0 648.0Q10095 615 10120.5 591.5Q10146 568 10181.5 555.0Q10217 542 10261 542Q10316 542 10359 562V553Q10359 523 10373.0 503.5Q10387 484 10419 484H10496V554H10398V587Q10426 611 10441.5 644.5Q10457 678 10457 720Q10457 759 10443.0 792.0Q10429 825 10403.5 848.5Q10378 872 10342.0 885.0Q10306 898 10262 898Q10237 898 10212 893Q10186 900 10165.0 913.5Q10144 927 10144 951Q10144 974 10166.0 982.0Q10188 990 10223 990H10333Q10429 990 10472.5 1026.5Q10516 1063 10516 1127ZM10441 1133Q10441 1102 10417.5 1083.5Q10394 1065 10334 1065H10162Q10114 1087 10114 1135Q10114 1169 10139.5 1193.0Q10165 1217 10226 1217H10300Q10367 1217 10404.0 1196.0Q10441 1175 10441 1133ZM10262 834Q10313 834 10343.0 809.5Q10373 785 10373 734V706Q10373 655 10343.0 630.5Q10313 606 10262 606Q10211 606 10181.0 630.5Q10151 655 10151 706V734Q10151 785 10181.0 809.5Q10211 834 10262 834ZM10981 1070Q10936 1070 10916.5 1046.0Q10897 1022 10892 986H10887Q10870 1034 10831.0 1058.0Q10792 1082 10738 1082Q10656 1082 10610.5 1040.0Q10565 998 10565 926Q10565 853 10618.5 814.0Q10672 775 10785 775H10887V724Q10887 669 10857.0 640.0Q10827 611 10765 611Q10718 611 10686.5 632.0Q10655 653 10634 688L10586 643Q10607 601 10653.0 571.5Q10699 542 10769 542Q10863 542 10915.0 588.0Q10967 634 10967 716V1000H11026V1070ZM10751 1014Q10781 1014 10806.0 1007.0Q10831 1000 10849.0 987.0Q10867 974 10877.0 957.0Q10887 940 10887 920V835H10781Q10712 835 10680.5 855.0Q10649 875 10649 913V934Q10649 972 10676.5 993.0Q10704 1014 10751 1014ZM11140 1070V554H11220V649H11225Q11239 612 11275.0 583.0Q11311 554 11374 554H11405V634H11358Q11293 634 11256.5 658.5Q11220 683 11220 720V1070ZM11547 433Q11521 433 11509.5 420.5Q11498 408 11498 388V375Q11498 355 11509.5 342.5Q11521 330 11547 330Q11573 330 11584.5 342.5Q11596 355 11596 375V388Q11596 408 11584.5 420.5Q11573 433 11547 433ZM11507 554H11587V1070H11507Z" fill="currentColor" /></svg>