<svg viewBox="0 0 9448 752" xmlns="http://www.w3.org/2000/svg"><path d="M0 740V670H98V112H0V42H280V112H182V670H280V740ZM433 42H720Q807 42 856.5 91.0Q906 140 906 222Q906 261 895.0 288.0Q884 315 867.0 332.5Q850 350 830.0 358.5Q810 367 793 370V376Q812 377 835.5 386.0Q859 395 880.0 414.5Q901 434 915.5 464.5Q930 495 930 538Q930 581 916.5 618.0Q903 655 879.0 682.0Q855 709 822.0 724.5Q789 740 750 740H433ZM517 666H724Q778 666 809.0 638.5Q840 611 840 558V524Q840 471 809.0 443.5Q778 416 724 416H517ZM517 344H710Q760 344 788.0 319.0Q816 294 816 247V213Q816 166 788.0 141.0Q760 116 710 116H517ZM1630 152H1625L1566 269L1399 573L1232 269L1173 152H1168V740H1086V42H1198L1398 418H1403L1604 42H1712V740H1630ZM2134 740V42H2412Q2506 42 2556.5 95.5Q2607 149 2607 242Q2607 335 2556.5 388.5Q2506 442 2412 442H2218V740ZM2218 368H2412Q2462 368 2489.5 342.0Q2517 316 2517 268V216Q2517 168 2489.5 142.0Q2462 116 2412 116H2218ZM2817 740Q2775 740 2753.5 716.5Q2732 693 2732 657V0H2812V670H2888V740ZM3198 752Q3145 752 3102.5 733.0Q3060 714 3029.5 678.5Q2999 643 2982.5 593.5Q2966 544 2966 482Q2966 421 2982.5 371.0Q2999 321 3029.5 285.5Q3060 250 3102.5 231.0Q3145 212 3198 212Q3250 212 3291.0 231.0Q3332 250 3361.0 283.5Q3390 317 3405.5 363.0Q3421 409 3421 464V502H3050V526Q3050 559 3060.5 587.5Q3071 616 3090.5 637.0Q3110 658 3138.5 670.0Q3167 682 3203 682Q3252 682 3288.5 659.0Q3325 636 3345 593L3402 634Q3377 687 3324.0 719.5Q3271 752 3198 752ZM3198 279Q3165 279 3138.0 290.5Q3111 302 3091.5 323.0Q3072 344 3061.0 372.5Q3050 401 3050 435V442H3335V431Q3335 362 3297.5 320.5Q3260 279 3198 279ZM3477 740 3668 480 3485 224H3579L3710 416H3713L3849 224H3938L3756 474L3942 740H3848L3714 538H3711L3566 740ZM4488 752Q4403 752 4343.0 719.5Q4283 687 4241 630L4303 578Q4340 627 4385.0 652.5Q4430 678 4491 678Q4566 678 4605.5 642.0Q4645 606 4645 546Q4645 496 4615.0 469.0Q4585 442 4516 426L4459 413Q4363 391 4312.5 346.5Q4262 302 4262 221Q4262 175 4279.0 139.0Q4296 103 4326.5 79.0Q4357 55 4399.5 42.5Q4442 30 4493 30Q4572 30 4628.5 59.0Q4685 88 4724 144L4661 190Q4632 150 4591.0 127.0Q4550 104 4489 104Q4422 104 4383.5 132.5Q4345 161 4345 218Q4345 268 4377.5 293.5Q4410 319 4476 334L4533 347Q4636 370 4682.0 417.0Q4728 464 4728 542Q4728 590 4711.5 629.0Q4695 668 4664.0 695.0Q4633 722 4588.5 737.0Q4544 752 4488 752ZM5240 740Q5195 740 5175.5 716.0Q5156 692 5151 656H5146Q5129 704 5090.0 728.0Q5051 752 4997 752Q4915 752 4869.5 710.0Q4824 668 4824 596Q4824 523 4877.5 484.0Q4931 445 5044 445H5146V394Q5146 339 5116.0 310.0Q5086 281 5024 281Q4977 281 4945.5 302.0Q4914 323 4893 358L4845 313Q4866 271 4912.0 241.5Q4958 212 5028 212Q5122 212 5174.0 258.0Q5226 304 5226 386V670H5285V740ZM5010 684Q5040 684 5065.0 677.0Q5090 670 5108.0 657.0Q5126 644 5136.0 627.0Q5146 610 5146 590V505H5040Q4971 505 4939.5 525.0Q4908 545 4908 583V604Q4908 642 4935.5 663.0Q4963 684 5010 684ZM5399 740V224H5479V308H5483Q5502 264 5536.5 238.0Q5571 212 5629 212Q5709 212 5755.5 263.5Q5802 315 5802 409V740H5722V423Q5722 284 5605 284Q5581 284 5558.5 290.0Q5536 296 5518.0 308.0Q5500 320 5489.5 338.5Q5479 357 5479 382V740ZM6122 752Q6050 752 6001.5 724.5Q5953 697 5918 651L5975 605Q6005 643 6042.0 663.5Q6079 684 6128 684Q6179 684 6207.5 662.0Q6236 640 6236 600Q6236 570 6216.5 548.5Q6197 527 6146 519L6105 513Q6069 508 6039.0 497.5Q6009 487 5986.5 469.5Q5964 452 5951.5 426.0Q5939 400 5939 364Q5939 326 5953.0 297.5Q5967 269 5991.5 250.0Q6016 231 6050.0 221.5Q6084 212 6123 212Q6186 212 6228.5 234.0Q6271 256 6303 295L6250 343Q6233 319 6200.0 299.5Q6167 280 6117 280Q6067 280 6041.5 301.5Q6016 323 6016 360Q6016 398 6041.5 415.0Q6067 432 6115 440L6155 446Q6241 459 6277.0 495.5Q6313 532 6313 591Q6313 666 6262.0 709.0Q6211 752 6122 752ZM7135 740 7065 534H6783L6713 740H6628L6872 42H6979L7223 740ZM6926 120H6921L6803 460H7044ZM7331 740V224H7411V319H7416Q7430 282 7466.0 253.0Q7502 224 7565 224H7596V304H7549Q7484 304 7447.5 328.5Q7411 353 7411 390V740ZM8069 740Q8024 740 8004.5 716.0Q7985 692 7980 656H7975Q7958 704 7919.0 728.0Q7880 752 7826 752Q7744 752 7698.5 710.0Q7653 668 7653 596Q7653 523 7706.5 484.0Q7760 445 7873 445H7975V394Q7975 339 7945.0 310.0Q7915 281 7853 281Q7806 281 7774.5 302.0Q7743 323 7722 358L7674 313Q7695 271 7741.0 241.5Q7787 212 7857 212Q7951 212 8003.0 258.0Q8055 304 8055 386V670H8114V740ZM7839 684Q7869 684 7894.0 677.0Q7919 670 7937.0 657.0Q7955 644 7965.0 627.0Q7975 610 7975 590V505H7869Q7800 505 7768.5 525.0Q7737 545 7737 583V604Q7737 642 7764.5 663.0Q7792 684 7839 684ZM8228 0H8308V308H8312Q8332 259 8370.5 235.5Q8409 212 8463 212Q8511 212 8550.0 231.0Q8589 250 8616.5 285.0Q8644 320 8658.5 370.0Q8673 420 8673 482Q8673 544 8658.5 594.0Q8644 644 8616.5 679.0Q8589 714 8550.0 733.0Q8511 752 8463 752Q8358 752 8312 656H8308V740H8228ZM8441 680Q8509 680 8548.0 637.5Q8587 595 8587 526V438Q8587 369 8548.0 326.5Q8509 284 8441 284Q8414 284 8389.5 291.5Q8365 299 8347.0 312.0Q8329 325 8318.5 343.5Q8308 362 8308 383V575Q8308 600 8318.5 619.5Q8329 639 8347.0 652.5Q8365 666 8389.5 673.0Q8414 680 8441 680ZM8848 103Q8822 103 8810.5 90.5Q8799 78 8799 58V45Q8799 25 8810.5 12.5Q8822 0 8848 0Q8874 0 8885.5 12.5Q8897 25 8897 45V58Q8897 78 8885.5 90.5Q8874 103 8848 103ZM8808 224H8888V740H8808ZM9250 752Q9196 752 9153.0 733.0Q9110 714 9080.5 679.0Q9051 644 9035.5 594.0Q9020 544 9020 482Q9020 420 9035.5 370.0Q9051 320 9080.5 285.0Q9110 250 9153.0 231.0Q9196 212 9250 212Q9327 212 9373.5 245.5Q9420 279 9443 333L9376 367Q9362 327 9330.0 305.0Q9298 283 9250 283Q9214 283 9187.0 294.5Q9160 306 9142.0 326.5Q9124 347 9115.0 375.5Q9106 404 9106 438V526Q9106 594 9142.5 637.5Q9179 681 9250 681Q9347 681 9390 591L9448 630Q9423 686 9373.5 719.0Q9324 752 9250 752Z" fill="currentColor" /></svg>