<svg viewBox="0 0 10584 1300" xmlns="http://www.w3.org/2000/svg"><path d="M53 1025V959H141V393H53V327H309V393H221V959H309V1025ZM445 327H709Q788 327 830.5 371.5Q873 416 873 507Q873 549 863.0 576.5Q853 604 837.5 620.5Q822 637 803.0 645.0Q784 653 766 654V664Q784 664 806.5 671.5Q829 679 848.5 697.5Q868 716 881.5 746.5Q895 777 895 823Q895 919 851.0 972.0Q807 1025 736 1025H445ZM525 955H712Q760 955 784.5 929.5Q809 904 809 850V804Q809 750 784.5 724.5Q760 699 712 699H525ZM525 629H699Q742 629 765.0 606.5Q788 584 788 536V490Q788 442 765.0 419.5Q742 397 699 397H525ZM1521 546 1528 426H1518L1466 546L1316 854L1166 546L1114 428H1104L1111 546V1025H1033V327H1139L1265 598L1312 727H1320L1367 598L1493 327H1599V1025H1521ZM1976 1025V327H2233Q2406 327 2406 526Q2406 725 2233 725H2056V1025ZM2056 655H2231Q2320 655 2320 559V493Q2320 397 2231 397H2056ZM2595 1025Q2554 1025 2535.5 1006.5Q2517 988 2517 947V285H2593V958H2658V1025ZM2940 1037Q2895 1037 2856.0 1022.0Q2817 1007 2789.0 974.0Q2761 941 2745.0 890.0Q2729 839 2729 767Q2729 695 2745.0 644.0Q2761 593 2789.0 560.0Q2817 527 2856.0 512.0Q2895 497 2940 497Q2985 497 3022.5 512.0Q3060 527 3086.0 560.0Q3112 593 3126.5 644.0Q3141 695 3141 767V786H2810V819Q2810 895 2844.5 932.5Q2879 970 2940 970Q2992 970 3025.0 947.5Q3058 925 3077 880L3129 918Q3105 971 3058.5 1004.0Q3012 1037 2940 1037ZM2940 561Q2878 561 2844.0 600.0Q2810 639 2810 715V728H3060V715Q3060 561 2940 561ZM3192 1025 3362 762 3199 509H3285L3400 697H3410L3527 509H3610L3448 759L3615 1025H3529L3410 823H3400L3275 1025ZM4105 1037Q4030 1037 3974.0 1005.5Q3918 974 3881 918L3939 870Q3971 917 4011.0 942.5Q4051 968 4105 968Q4247 968 4247 835Q4247 781 4221.0 753.0Q4195 725 4131 709L4079 696Q3987 673 3943.5 628.5Q3900 584 3900 503Q3900 410 3958.0 362.5Q4016 315 4112 315Q4185 315 4234.5 342.0Q4284 369 4321 427L4262 469Q4235 427 4200.5 405.5Q4166 384 4109 384Q4045 384 4011.5 412.0Q3978 440 3978 503Q3978 554 4005.5 580.0Q4033 606 4094 621L4146 634Q4195 646 4229.0 662.5Q4263 679 4284.5 703.0Q4306 727 4315.5 759.5Q4325 792 4325 835Q4325 934 4266.5 985.5Q4208 1037 4105 1037ZM4771 1025Q4697 1025 4697 951V941H4687Q4674 988 4639.5 1012.5Q4605 1037 4557 1037Q4482 1037 4445.0 999.0Q4408 961 4408 887Q4408 815 4455.5 773.0Q4503 731 4604 731H4697V674Q4697 617 4671.5 590.0Q4646 563 4591 563Q4546 563 4518.5 582.5Q4491 602 4471 639L4426 597Q4446 555 4490.0 526.5Q4534 498 4594 498Q4682 498 4727.5 540.5Q4773 583 4773 666V958H4825V1025ZM4576 971Q4602 971 4624.5 962.0Q4647 953 4663.0 938.5Q4679 924 4688.0 905.5Q4697 887 4697 867V789H4602Q4542 789 4514.5 809.0Q4487 829 4487 867V895Q4487 934 4511.0 952.5Q4535 971 4576 971ZM4928 1025V509H5004V593H5014Q5029 545 5060.5 521.0Q5092 497 5146 497Q5215 497 5254.5 544.0Q5294 591 5294 689V1025H5218V694Q5218 632 5192.5 599.0Q5167 566 5114 566Q5068 566 5036.0 594.0Q5004 622 5004 673V1025ZM5584 1037Q5520 1037 5474.5 1011.0Q5429 985 5397 939L5450 895Q5477 933 5508.5 953.0Q5540 973 5584 973Q5629 973 5655.5 950.5Q5682 928 5682 886Q5682 852 5665.0 831.0Q5648 810 5602 802L5563 795Q5488 781 5451.5 748.0Q5415 715 5415 648Q5415 609 5427.0 580.5Q5439 552 5461.0 533.5Q5483 515 5513.5 506.5Q5544 498 5580 498Q5638 498 5677.5 518.5Q5717 539 5746 578L5697 623Q5680 599 5652.0 580.5Q5624 562 5580 562Q5489 562 5489 645Q5489 683 5508.5 700.5Q5528 718 5572 726L5611 733Q5690 747 5723.0 782.0Q5756 817 5756 877Q5756 952 5712.5 994.5Q5669 1037 5584 1037ZM6321 1037Q6262 1037 6215.0 1015.5Q6168 994 6135.5 950.0Q6103 906 6085.5 837.5Q6068 769 6068 676Q6068 583 6085.5 514.5Q6103 446 6135.5 402.0Q6168 358 6215.0 336.5Q6262 315 6321 315Q6407 315 6459.0 351.5Q6511 388 6541 463L6477 502Q6458 445 6422.5 415.5Q6387 386 6321 386Q6241 386 6197.5 443.5Q6154 501 6154 598V754Q6154 851 6197.5 908.5Q6241 966 6321 966Q6389 966 6426.0 934.5Q6463 903 6482 843L6546 883Q6516 958 6461.5 997.5Q6407 1037 6321 1037ZM6829 1037Q6784 1037 6745.0 1022.0Q6706 1007 6678.0 974.0Q6650 941 6634.0 890.0Q6618 839 6618 767Q6618 695 6634.0 644.0Q6650 593 6678.0 560.0Q6706 527 6745.0 512.0Q6784 497 6829 497Q6874 497 6913.0 512.0Q6952 527 6980.0 560.0Q7008 593 7024.0 644.0Q7040 695 7040 767Q7040 839 7024.0 890.0Q7008 941 6980.0 974.0Q6952 1007 6913.0 1022.0Q6874 1037 6829 1037ZM6829 969Q6891 969 6924.5 932.0Q6958 895 6958 819V715Q6958 639 6924.5 602.0Q6891 565 6829 565Q6767 565 6733.5 602.0Q6700 639 6700 715V819Q6700 895 6733.5 932.0Q6767 969 6829 969ZM7157 1025V509H7233V593H7243Q7258 545 7289.5 521.0Q7321 497 7375 497Q7444 497 7483.5 544.0Q7523 591 7523 689V1025H7447V694Q7447 632 7421.5 599.0Q7396 566 7343 566Q7297 566 7265.0 594.0Q7233 622 7233 673V1025ZM7966 941H7956Q7941 992 7907.5 1014.5Q7874 1037 7826 1037Q7780 1037 7745.0 1018.0Q7710 999 7686.0 964.0Q7662 929 7650.0 879.0Q7638 829 7638 767Q7638 705 7650.0 655.0Q7662 605 7686.0 570.0Q7710 535 7745.0 516.0Q7780 497 7826 497Q7874 497 7907.5 519.5Q7941 542 7956 593H7966V285H8042V1025H7966ZM7849 969Q7873 969 7894.5 962.0Q7916 955 7931.5 942.0Q7947 929 7956.5 911.0Q7966 893 7966 871V663Q7966 641 7956.5 623.0Q7947 605 7931.5 592.0Q7916 579 7894.5 572.0Q7873 565 7849 565Q7786 565 7753.0 604.5Q7720 644 7720 715V819Q7720 890 7753.0 929.5Q7786 969 7849 969ZM8370 1037Q8325 1037 8286.0 1022.0Q8247 1007 8219.0 974.0Q8191 941 8175.0 890.0Q8159 839 8159 767Q8159 695 8175.0 644.0Q8191 593 8219.0 560.0Q8247 527 8286.0 512.0Q8325 497 8370 497Q8415 497 8452.5 512.0Q8490 527 8516.0 560.0Q8542 593 8556.5 644.0Q8571 695 8571 767V786H8240V819Q8240 895 8274.5 932.5Q8309 970 8370 970Q8422 970 8455.0 947.5Q8488 925 8507 880L8559 918Q8535 971 8488.5 1004.0Q8442 1037 8370 1037ZM8370 561Q8308 561 8274.0 600.0Q8240 639 8240 715V728H8490V715Q8490 561 8370 561ZM8689 1025V509H8765V593H8775Q8790 545 8821.5 521.0Q8853 497 8907 497Q8976 497 9015.5 544.0Q9055 591 9055 689V1025H8979V694Q8979 632 8953.5 599.0Q8928 566 8875 566Q8829 566 8797.0 594.0Q8765 622 8765 673V1025ZM9345 1037Q9281 1037 9235.5 1011.0Q9190 985 9158 939L9211 895Q9238 933 9269.5 953.0Q9301 973 9345 973Q9390 973 9416.5 950.5Q9443 928 9443 886Q9443 852 9426.0 831.0Q9409 810 9363 802L9324 795Q9249 781 9212.5 748.0Q9176 715 9176 648Q9176 609 9188.0 580.5Q9200 552 9222.0 533.5Q9244 515 9274.5 506.5Q9305 498 9341 498Q9399 498 9438.5 518.5Q9478 539 9507 578L9458 623Q9441 599 9413.0 580.5Q9385 562 9341 562Q9250 562 9250 645Q9250 683 9269.5 700.5Q9289 718 9333 726L9372 733Q9451 747 9484.0 782.0Q9517 817 9517 877Q9517 952 9473.5 994.5Q9430 1037 9345 1037ZM9817 1037Q9772 1037 9733.0 1022.0Q9694 1007 9666.0 974.0Q9638 941 9622.0 890.0Q9606 839 9606 767Q9606 695 9622.0 644.0Q9638 593 9666.0 560.0Q9694 527 9733.0 512.0Q9772 497 9817 497Q9862 497 9899.5 512.0Q9937 527 9963.0 560.0Q9989 593 10003.5 644.0Q10018 695 10018 767V786H9687V819Q9687 895 9721.5 932.5Q9756 970 9817 970Q9869 970 9902.0 947.5Q9935 925 9954 880L10006 918Q9982 971 9935.5 1004.0Q9889 1037 9817 1037ZM9817 561Q9755 561 9721.0 600.0Q9687 639 9687 715V728H9937V715Q9937 561 9817 561ZM10432 941H10422Q10407 992 10373.5 1014.5Q10340 1037 10292 1037Q10246 1037 10211.0 1018.0Q10176 999 10152.0 964.0Q10128 929 10116.0 879.0Q10104 829 10104 767Q10104 705 10116.0 655.0Q10128 605 10152.0 570.0Q10176 535 10211.0 516.0Q10246 497 10292 497Q10340 497 10373.5 519.5Q10407 542 10422 593H10432V285H10508V1025H10432ZM10315 969Q10339 969 10360.5 962.0Q10382 955 10397.5 942.0Q10413 929 10422.5 911.0Q10432 893 10432 871V663Q10432 641 10422.5 623.0Q10413 605 10397.5 592.0Q10382 579 10360.5 572.0Q10339 565 10315 565Q10252 565 10219.0 604.5Q10186 644 10186 715V819Q10186 890 10219.0 929.5Q10252 969 10315 969Z" fill="currentColor" /></svg>