<svg viewBox="0 0 23951 2504" xmlns="http://www.w3.org/2000/svg"><path d="M399 1942Q391 1942 376.5 1942.0Q362 1942 347.0 1942.5Q332 1943 319.5 1943.5Q307 1944 304 1945Q297 1946 290 1947Q284 1948 278.0 1949.0Q272 1950 268 1951Q266 1951 261.5 1952.0Q257 1953 252.0 1954.5Q247 1956 243.0 1957.0Q239 1958 238 1958H178Q166 1958 156.5 1959.5Q147 1961 138 1961Q113 1961 91.5 1953.5Q70 1946 53 1921Q60 1903 72.5 1897.0Q85 1891 102 1883Q103 1882 109.5 1878.5Q116 1875 123.5 1871.0Q131 1867 137.5 1864.0Q144 1861 145 1861H167Q170 1861 176.5 1857.5Q183 1854 185 1854Q189 1852 200.5 1849.5Q212 1847 225.5 1844.0Q239 1841 251.0 1839.0Q263 1837 268 1836Q293 1818 300.0 1797.0Q307 1776 315 1745V1563Q315 1560 316.0 1554.5Q317 1549 318.5 1542.5Q320 1536 321.0 1530.5Q322 1525 323 1522V1252Q325 1188 326.5 1147.5Q328 1107 329.5 1082.5Q331 1058 331.5 1045.0Q332 1032 332 1023Q332 1003 331.0 982.5Q330 962 330 958Q333 910 339.5 868.5Q346 827 346 779Q346 758 345.5 740.5Q345 723 343.0 707.5Q341 692 336.5 676.0Q332 660 323 641Q320 637 311.5 632.5Q303 628 293.5 623.5Q284 619 275.5 615.5Q267 612 263 612Q260 611 251.0 609.5Q242 608 231.5 607.0Q221 606 211.5 605.0Q202 604 200 603Q199 603 189.5 600.5Q180 598 178 596H142Q127 596 122.0 595.0Q117 594 105 589Q91 584 80.0 574.5Q69 565 69 556V544Q80 523 96.0 518.0Q112 513 129 513Q137 513 143.0 514.0Q149 515 155 515Q162 515 171.0 511.0Q180 507 185 504H195H206Q211 506 228.0 508.0Q245 510 264.5 512.5Q284 515 301.0 516.5Q318 518 323 518Q334 520 363.5 522.5Q393 525 425.5 527.5Q458 530 487.0 532.0Q516 534 527 534Q575 522 620.5 520.0Q666 518 711 518H797Q808 526 810.5 538.5Q813 551 813 561Q813 577 805.5 585.0Q798 593 786.5 596.5Q775 600 762.0 601.0Q749 602 737 603Q730 603 712.5 606.0Q695 609 688 612Q687 612 683.0 614.0Q679 616 674.0 618.5Q669 621 664.5 623.5Q660 626 659 627Q658 627 653.5 628.0Q649 629 644.0 630.0Q639 631 634.0 633.0Q629 635 628 636Q626 636 622.5 637.0Q619 638 615 639L605 641Q602 644 597.0 648.5Q592 653 587.5 658.0Q583 663 579.0 667.0Q575 671 574 672Q574 674 573.0 680.0Q572 686 570.5 693.5Q569 701 568.0 707.5Q567 714 567 717Q566 729 565.5 759.0Q565 789 564.5 822.0Q564 855 564.0 884.0Q564 913 564 925L562 949V1101Q560 1175 558.5 1217.5Q557 1260 555.5 1283.0Q554 1306 553.0 1315.5Q552 1325 552 1331Q549 1356 548.0 1381.0Q547 1406 545 1432Q544 1433 543.0 1438.5Q542 1444 541.0 1450.5Q540 1457 539.0 1462.5Q538 1468 538 1470Q538 1475 539.0 1492.5Q540 1510 541.5 1530.5Q543 1551 544.0 1569.0Q545 1587 545 1591Q545 1596 544.0 1612.0Q543 1628 541.5 1646.0Q540 1664 539.0 1680.0Q538 1696 538 1700V1745Q538 1760 538.5 1777.0Q539 1794 543.5 1809.5Q548 1825 557.0 1837.0Q566 1849 583 1854Q586 1855 595.5 1856.0Q605 1857 616.5 1857.5Q628 1858 638.5 1859.0Q649 1860 652 1861Q657 1861 670.0 1865.0Q683 1869 697.5 1873.5Q712 1878 725.0 1882.5Q738 1887 744 1890Q750 1893 751.0 1898.5Q752 1904 752 1909Q752 1923 745.0 1933.5Q738 1944 728.0 1951.5Q718 1959 705.5 1965.0Q693 1971 683 1975H674Q667 1974 637.5 1969.5Q608 1965 574.0 1959.5Q540 1954 511.0 1949.5Q482 1945 475 1945Q475 1944 465.5 1943.5Q456 1943 443.5 1942.5Q431 1942 418.5 1942.0Q406 1942 399 1942ZM2232 1902Q2232 1878 2245.0 1864.5Q2258 1851 2278.5 1845.5Q2299 1840 2324.5 1839.0Q2350 1838 2375.5 1838.0Q2401 1838 2423.5 1836.5Q2446 1835 2460 1828Q2460 1822 2461.5 1805.5Q2463 1789 2465.0 1771.0Q2467 1753 2468.5 1736.5Q2470 1720 2471 1714Q2471 1713 2472.0 1708.5Q2473 1704 2474.5 1699.0Q2476 1694 2477.0 1689.0Q2478 1684 2478 1683V1681V1676Q2478 1673 2474.5 1658.5Q2471 1644 2471 1610V1530Q2476 1521 2478.0 1510.5Q2480 1500 2480 1489Q2480 1461 2475.5 1435.0Q2471 1409 2471 1381V1369Q2472 1366 2474 1363Q2478 1357 2478 1356Q2479 1355 2480.0 1346.0Q2481 1337 2481.5 1326.0Q2482 1315 2483.0 1304.0Q2484 1293 2485 1286V1283Q2485 1269 2482.5 1249.5Q2480 1230 2471 1217V1042Q2473 1041 2475.5 1036.0Q2478 1031 2478 1027Q2478 1024 2474.5 1015.0Q2471 1006 2471 1004V991V973Q2471 970 2474 965L2478 959Q2478 958 2477 957Q2476 956 2474 952Q2472 949 2471 946V876Q2470 873 2468.0 864.5Q2466 856 2463.0 846.0Q2460 836 2458.0 827.5Q2456 819 2455 816Q2455 813 2451.5 810.0Q2448 807 2447 805H2441H2440Q2437 808 2432.0 813.0Q2427 818 2422.5 823.0Q2418 828 2414.0 832.0Q2410 836 2409 837Q2409 837 2408.0 841.5Q2407 846 2405.5 851.0Q2404 856 2403.0 860.5Q2402 865 2402 866Q2386 913 2363.0 957.5Q2340 1002 2315 1042Q2297 1077 2279.0 1115.0Q2261 1153 2241 1188Q2218 1230 2193.5 1270.5Q2169 1311 2151 1356Q2149 1357 2145.5 1367.0Q2142 1377 2142 1380Q2141 1381 2137.5 1387.5Q2134 1394 2130.0 1401.5Q2126 1409 2122.5 1415.5Q2119 1422 2118 1423Q2113 1439 2109.0 1458.0Q2105 1477 2095 1494Q2086 1510 2069.5 1533.0Q2053 1556 2042 1577Q2042 1579 2039.5 1588.5Q2037 1598 2037 1599Q2035 1602 2028.5 1611.0Q2022 1620 2014.0 1631.0Q2006 1642 1998.5 1653.0Q1991 1664 1986 1670L1981 1676Q1981 1678 1980.0 1683.5Q1979 1689 1978.0 1695.5Q1977 1702 1975.5 1707.5Q1974 1713 1973 1714Q1973 1715 1967.0 1723.5Q1961 1732 1959 1736Q1943 1759 1939.5 1781.0Q1936 1803 1928 1828Q1928 1830 1925.0 1836.0Q1922 1842 1922 1843Q1920 1845 1916.5 1855.5Q1913 1866 1909.0 1878.0Q1905 1890 1901.5 1900.0Q1898 1910 1897 1913Q1895 1922 1888.0 1925.0Q1881 1928 1872 1928Q1865 1928 1856.0 1918.5Q1847 1909 1838.0 1896.5Q1829 1884 1822.5 1872.0Q1816 1860 1813 1854Q1803 1820 1796.0 1786.0Q1789 1752 1777 1722Q1774 1719 1768.5 1707.5Q1763 1696 1757.0 1683.0Q1751 1670 1745.5 1658.5Q1740 1647 1739 1644Q1737 1642 1733.5 1632.5Q1730 1623 1726.0 1611.5Q1722 1600 1718.5 1590.0Q1715 1580 1713 1577Q1709 1565 1705.0 1557.5Q1701 1550 1696.5 1543.0Q1692 1536 1687.5 1528.0Q1683 1520 1679 1508Q1667 1490 1661.0 1470.0Q1655 1450 1647 1433Q1647 1433 1644.0 1429.0Q1641 1425 1637.0 1419.5Q1633 1414 1629.5 1409.0Q1626 1404 1623 1401L1616 1394Q1615 1392 1611.5 1381.5Q1608 1371 1604.0 1359.0Q1600 1347 1597.0 1336.5Q1594 1326 1594 1324Q1586 1309 1573.5 1293.5Q1561 1278 1554 1264Q1554 1261 1550.5 1249.0Q1547 1237 1547 1234Q1545 1232 1539.0 1223.5Q1533 1215 1533 1210Q1521 1196 1513.0 1178.0Q1505 1160 1498.0 1141.0Q1491 1122 1484.5 1102.5Q1478 1083 1469 1065Q1469 1063 1465.5 1057.5Q1462 1052 1462 1049Q1447 1020 1436.5 985.5Q1426 951 1409 920L1402 914Q1389 896 1380.5 879.0Q1372 862 1364.5 844.5Q1357 827 1350.0 809.5Q1343 792 1333 774H1327H1324Q1322 774 1317.0 778.5Q1312 783 1310 785Q1294 808 1281.0 841.5Q1268 875 1263 904V1060Q1263 1061 1262.0 1067.5Q1261 1074 1259.5 1081.5Q1258 1089 1257.0 1095.5Q1256 1102 1256 1103V1106V1110Q1256 1113 1257.0 1124.5Q1258 1136 1259.5 1149.0Q1261 1162 1262.0 1173.5Q1263 1185 1263 1188Q1263 1199 1265.0 1222.0Q1267 1245 1267 1272Q1267 1300 1265.0 1323.0Q1263 1346 1263 1356Q1266 1358 1268.5 1366.5Q1271 1375 1274 1380V1385Q1274 1403 1265.0 1418.5Q1256 1434 1256 1454Q1256 1458 1257.0 1470.0Q1258 1482 1259.5 1494.5Q1261 1507 1262.0 1517.5Q1263 1528 1263 1530Q1263 1537 1265.0 1548.0Q1267 1559 1267 1567Q1267 1596 1264.5 1621.0Q1262 1646 1262 1676Q1262 1710 1264.0 1742.0Q1266 1774 1274 1804Q1275 1813 1281.0 1819.5Q1287 1826 1294.5 1830.5Q1302 1835 1310.0 1838.0Q1318 1841 1324 1843Q1327 1843 1339.5 1844.0Q1352 1845 1366.5 1846.5Q1381 1848 1393.5 1850.0Q1406 1852 1409 1854Q1421 1855 1435.5 1857.0Q1450 1859 1462.5 1864.0Q1475 1869 1484.0 1879.0Q1493 1889 1493 1906Q1493 1916 1484.5 1922.5Q1476 1929 1464.5 1933.5Q1453 1938 1441.5 1940.0Q1430 1942 1424 1942H1082Q1066 1947 1058.0 1949.0Q1050 1951 1037 1951Q1020 1951 1001.0 1949.0Q982 1947 967 1942Q961 1940 953.0 1935.0Q945 1930 945 1928Q933 1915 933 1902Q933 1896 935.5 1888.5Q938 1881 945 1875Q945 1869 969.0 1865.5Q993 1862 1023.5 1856.0Q1054 1850 1082.0 1840.0Q1110 1830 1118 1812Q1120 1809 1121.0 1804.0Q1122 1799 1123.5 1793.0Q1125 1787 1127.5 1781.0Q1130 1775 1134 1772Q1136 1770 1138.5 1760.5Q1141 1751 1143.5 1740.5Q1146 1730 1147.5 1720.5Q1149 1711 1149 1708Q1150 1700 1151.5 1679.0Q1153 1658 1155.0 1635.0Q1157 1612 1158.5 1591.0Q1160 1570 1160 1561Q1160 1557 1162.5 1549.0Q1165 1541 1165 1539V1535V1530Q1163 1527 1162 1523Q1160 1515 1160 1515V1513V1508Q1170 1476 1170.5 1444.0Q1171 1412 1173 1380Q1173 1377 1174.0 1371.5Q1175 1366 1176.5 1359.5Q1178 1353 1179.0 1347.5Q1180 1342 1180 1340Q1181 1331 1182.0 1307.0Q1183 1283 1184.0 1256.0Q1185 1229 1186.0 1205.5Q1187 1182 1187 1174L1194 1155Q1197 1085 1206.5 1019.0Q1216 953 1218 882L1225 876V847Q1225 825 1221.5 805.5Q1218 786 1218 764V762Q1218 758 1221.5 752.5Q1225 747 1225 745V709Q1225 683 1218.0 667.5Q1211 652 1198.0 643.0Q1185 634 1167.0 628.5Q1149 623 1128 617Q1123 614 1111.5 610.5Q1100 607 1087.0 603.0Q1074 599 1062.0 594.5Q1050 590 1044 587Q1039 585 1034.5 575.5Q1030 566 1030 561Q1030 555 1034.0 550.0Q1038 545 1043.5 540.5Q1049 536 1054.5 533.5Q1060 531 1064 530H1165Q1222 530 1277.5 535.5Q1333 541 1390 541Q1400 541 1410.0 540.0Q1420 539 1431 539Q1451 539 1466.0 553.0Q1481 567 1491.5 586.5Q1502 606 1510.0 627.0Q1518 648 1525 662Q1525 663 1528.0 669.5Q1531 676 1535.0 683.5Q1539 691 1542.5 698.0Q1546 705 1547 707Q1547 708 1548.0 712.5Q1549 717 1550.5 722.0Q1552 727 1553.0 731.0Q1554 735 1554 736Q1554 738 1557.5 744.0Q1561 750 1565.0 756.5Q1569 763 1572.5 768.5Q1576 774 1576 774Q1577 777 1580.5 789.0Q1584 801 1588.0 813.5Q1592 826 1595.0 837.0Q1598 848 1599 850Q1602 855 1608.0 868.5Q1614 882 1621.5 897.0Q1629 912 1636.0 925.5Q1643 939 1647 946Q1647 947 1653.0 952.5Q1659 958 1661 959Q1662 962 1664 965Q1668 971 1668 973Q1677 998 1686.0 1023.5Q1695 1049 1708 1074Q1708 1075 1714.0 1081.0Q1720 1087 1722 1089Q1724 1091 1728.0 1098.5Q1732 1106 1736.5 1116.0Q1741 1126 1745.5 1135.5Q1750 1145 1753 1150Q1753 1151 1756.5 1160.0Q1760 1169 1760 1174Q1764 1190 1768.5 1201.0Q1773 1212 1779.0 1221.0Q1785 1230 1792.0 1240.0Q1799 1250 1807 1264Q1807 1265 1809.5 1269.5Q1812 1274 1814.5 1278.5Q1817 1283 1819.0 1287.5Q1821 1292 1822 1293Q1836 1328 1854.5 1365.0Q1873 1402 1884 1439Q1884 1440 1885.0 1445.5Q1886 1451 1887.0 1457.5Q1888 1464 1889.5 1470.0Q1891 1476 1891 1477Q1891 1478 1894.5 1483.0Q1898 1488 1903.0 1494.0Q1908 1500 1913.0 1506.0Q1918 1512 1922 1515Q1930 1526 1938.5 1532.5Q1947 1539 1961 1539Q1965 1539 1971.5 1532.0Q1978 1525 1984.5 1516.0Q1991 1507 1997.0 1498.0Q2003 1489 2005 1484Q2019 1461 2026.0 1436.5Q2033 1412 2042 1385L2050 1380Q2050 1377 2051.0 1372.0Q2052 1367 2053.5 1362.0Q2055 1357 2056.0 1353.0Q2057 1349 2057 1349Q2057 1346 2059.0 1340.0Q2061 1334 2064.0 1328.0Q2067 1322 2069.5 1317.0Q2072 1312 2073 1311Q2074 1310 2077.5 1305.5Q2081 1301 2084.5 1295.0Q2088 1289 2091.5 1284.5Q2095 1280 2095 1279Q2096 1279 2097.5 1274.0Q2099 1269 2100.0 1263.5Q2101 1258 2101.5 1253.5Q2102 1249 2102 1248Q2104 1245 2108.5 1237.0Q2113 1229 2118.0 1219.5Q2123 1210 2127.5 1201.5Q2132 1193 2134 1188Q2163 1136 2189.0 1080.5Q2215 1025 2241 973Q2242 972 2245.5 966.5Q2249 961 2253.0 954.5Q2257 948 2260.5 942.5Q2264 937 2265 935Q2266 933 2269.0 926.5Q2272 920 2276.0 912.5Q2280 905 2283.0 898.5Q2286 892 2286 890Q2302 860 2314.0 828.5Q2326 797 2339 767Q2339 765 2342.5 756.0Q2346 747 2346 745Q2348 743 2358.5 734.0Q2369 725 2371 721Q2371 720 2372.0 716.0Q2373 712 2374.0 707.5Q2375 703 2376.0 698.5Q2377 694 2377 693Q2380 686 2385.5 677.0Q2391 668 2397.0 659.5Q2403 651 2408.0 643.5Q2413 636 2416 631Q2423 619 2428.0 606.0Q2433 593 2439.0 580.5Q2445 568 2452.0 557.0Q2459 546 2471 539Q2476 535 2488.0 530.0Q2500 525 2502 525H2691Q2695 523 2706.5 519.5Q2718 516 2722 516H2729Q2740 516 2752.0 520.5Q2764 525 2775 525Q2784 525 2793.5 520.5Q2803 516 2812 516H2820Q2824 516 2834.0 517.0Q2844 518 2855.0 519.5Q2866 521 2876.0 522.5Q2886 524 2890 525Q2896 527 2897.0 532.0Q2898 537 2898 541Q2898 552 2896.0 559.0Q2894 566 2890 577Q2887 578 2880.5 580.5Q2874 583 2867.0 585.0Q2860 587 2853.5 589.0Q2847 591 2845 591Q2837 592 2818.5 593.5Q2800 595 2779.5 596.5Q2759 598 2740.5 599.0Q2722 600 2715 600Q2701 613 2688.0 630.5Q2675 648 2675 670V774V882Q2677 911 2684.0 938.0Q2691 965 2691 994V1016Q2691 1023 2690.5 1029.5Q2690 1036 2685 1042V1255Q2690 1267 2690.5 1274.5Q2691 1282 2691 1293V1311Q2686 1349 2676.0 1386.0Q2666 1423 2666 1466Q2666 1477 2669.0 1486.0Q2672 1495 2675.5 1504.0Q2679 1513 2682.0 1523.0Q2685 1533 2685 1546V1790Q2686 1792 2690.5 1797.5Q2695 1803 2699.5 1809.0Q2704 1815 2708.5 1820.5Q2713 1826 2715 1828Q2725 1840 2744.0 1844.0Q2763 1848 2785.0 1849.0Q2807 1850 2830.0 1850.5Q2853 1851 2871.5 1857.0Q2890 1863 2902.0 1876.5Q2914 1890 2914 1916Q2914 1939 2895.5 1948.5Q2877 1958 2857 1958H2836Q2834 1958 2828.5 1957.0Q2823 1956 2816.5 1954.5Q2810 1953 2805.0 1951.5Q2800 1950 2800 1949Q2795 1949 2779.5 1948.5Q2764 1948 2745.5 1947.0Q2727 1946 2710.0 1944.5Q2693 1943 2685 1942Q2671 1942 2662.0 1941.0Q2653 1940 2635 1935H2585Q2530 1935 2476.0 1938.5Q2422 1942 2367 1942H2286Q2278 1942 2268.5 1939.5Q2259 1937 2251.0 1932.0Q2243 1927 2237.5 1919.5Q2232 1912 2232 1902ZM3515 1911Q3515 1895 3523.5 1885.0Q3532 1875 3545.5 1870.0Q3559 1865 3577.0 1863.0Q3595 1861 3614 1861Q3628 1861 3641.5 1861.5Q3655 1862 3669 1862Q3690 1862 3707.0 1857.5Q3724 1853 3735 1836V1785Q3735 1776 3736.0 1754.0Q3737 1732 3738.5 1707.5Q3740 1683 3741.5 1661.5Q3743 1640 3743 1631Q3745 1628 3747.5 1621.0Q3750 1614 3750 1612Q3750 1610 3749.0 1602.0Q3748 1594 3747 1593L3743 1480Q3745 1473 3746.0 1461.5Q3747 1450 3747 1444Q3747 1436 3746.5 1432.0Q3746 1428 3745.0 1424.5Q3744 1421 3743.5 1416.5Q3743 1412 3743 1402V1337Q3743 1333 3741.5 1315.0Q3740 1297 3738.5 1276.5Q3737 1256 3736.0 1237.5Q3735 1219 3735 1214V1079Q3735 1078 3733.5 1071.0Q3732 1064 3730.5 1056.0Q3729 1048 3727.5 1041.5Q3726 1035 3726 1034V1018V1004Q3726 1001 3727.5 993.5Q3729 986 3730.5 977.0Q3732 968 3733.5 960.5Q3735 953 3735 951V830V709Q3733 671 3721.5 650.0Q3710 629 3676 619Q3676 617 3672.5 617.0Q3669 617 3667 617Q3656 617 3647.0 621.0Q3638 625 3627 625H3615Q3608 625 3595.0 624.0Q3582 623 3568.5 622.0Q3555 621 3544.5 620.0Q3534 619 3532 619Q3521 614 3513.5 604.0Q3506 594 3506 580Q3506 575 3507.5 567.5Q3509 560 3511 555Q3514 550 3520.5 539.5Q3527 529 3532 527Q3534 527 3541.0 526.5Q3548 526 3555.5 526.0Q3563 526 3570.0 525.5Q3577 525 3579 525Q3602 525 3623.5 526.0Q3645 527 3667 534H3809Q3934 534 4060.0 530.5Q4186 527 4314 527H4461Q4465 527 4483.5 528.0Q4502 529 4523.0 530.5Q4544 532 4562.0 533.0Q4580 534 4584 534H4658Q4661 534 4668.5 535.0Q4676 536 4685.0 537.5Q4694 539 4701.5 540.5Q4709 542 4712 544Q4718 545 4721.5 550.5Q4725 556 4726.5 563.0Q4728 570 4728.5 577.5Q4729 585 4729 589Q4729 594 4727.5 605.5Q4726 617 4726 619Q4726 625 4724.0 651.0Q4722 677 4719.5 706.0Q4717 735 4715.0 760.5Q4713 786 4712 792V866Q4712 877 4704.5 884.5Q4697 892 4688 892Q4676 892 4668.5 883.0Q4661 874 4655.0 862.0Q4649 850 4644.0 837.0Q4639 824 4634 816Q4634 814 4631.5 812.0Q4629 810 4627 808Q4623 805 4620 802Q4619 799 4616.0 793.0Q4613 787 4609.5 781.0Q4606 775 4603.0 770.0Q4600 765 4598 764Q4587 738 4571.0 708.0Q4555 678 4532 662Q4531 662 4526.0 661.0Q4521 660 4515.5 659.5Q4510 659 4505.0 658.0Q4500 657 4499 657Q4499 656 4493.5 652.5Q4488 649 4481.0 645.0Q4474 641 4468.0 637.5Q4462 634 4461 632Q4461 631 4455.0 629.0Q4449 627 4447 625Q4441 625 4422.5 622.5Q4404 620 4383.0 617.5Q4362 615 4343.5 612.5Q4325 610 4318 608Q4315 608 4304.5 605.5Q4294 603 4290 601Q4258 600 4226.0 599.0Q4194 598 4162 598Q4130 598 4099.5 599.0Q4069 600 4037 601Q4030 603 4023 607Q4017 610 4011.0 613.5Q4005 617 4001 619Q3986 625 3975.5 639.5Q3965 654 3958.5 671.0Q3952 688 3949.5 706.5Q3947 725 3947 740V744Q3947 747 3949 747Q3949 748 3950.0 754.5Q3951 761 3952.5 769.0Q3954 777 3955.0 784.0Q3956 791 3956 792Q3957 802 3957.5 826.5Q3958 851 3958.5 879.0Q3959 907 3959.5 931.5Q3960 956 3960 966L3961 989V1162L3970 1184Q3971 1184 3978.0 1185.0Q3985 1186 3994.5 1187.5Q4004 1189 4013.5 1190.0Q4023 1191 4029 1191H4046Q4098 1191 4152.0 1184.0Q4206 1177 4257 1170Q4291 1164 4320.0 1155.0Q4349 1146 4376 1131Q4385 1118 4391.5 1094.0Q4398 1070 4403.0 1042.0Q4408 1014 4412.5 985.0Q4417 956 4422.0 932.5Q4427 909 4433.0 893.0Q4439 877 4447 875H4468Q4484 875 4493.0 881.5Q4502 888 4507.0 899.0Q4512 910 4513.5 923.5Q4515 937 4515 951Q4515 953 4514.0 959.5Q4513 966 4511.5 974.0Q4510 982 4509.0 988.5Q4508 995 4508 997V1125Q4508 1127 4507.0 1136.0Q4506 1145 4504.5 1155.0Q4503 1165 4501.5 1173.5Q4500 1182 4499 1184V1276V1368Q4500 1371 4501.0 1379.5Q4502 1388 4503.0 1398.0Q4504 1408 4505.0 1417.0Q4506 1426 4508 1430Q4509 1432 4511 1435Q4512 1440 4515 1442V1445V1449Q4514 1451 4513.0 1456.5Q4512 1462 4511.0 1468.5Q4510 1475 4509.0 1480.5Q4508 1486 4508 1489Q4506 1499 4506.0 1510.5Q4506 1522 4503.0 1532.0Q4500 1542 4492.5 1549.0Q4485 1556 4470 1556Q4449 1556 4439.5 1541.5Q4430 1527 4427.0 1507.5Q4424 1488 4424.5 1468.0Q4425 1448 4423 1437Q4423 1437 4421 1433Q4420 1432 4420 1430Q4412 1413 4409.0 1392.5Q4406 1372 4395 1359Q4393 1355 4387.0 1349.0Q4381 1343 4374.5 1337.0Q4368 1331 4363.0 1326.5Q4358 1322 4357 1321Q4354 1319 4343.0 1316.0Q4332 1313 4319.5 1309.0Q4307 1305 4294.5 1302.0Q4282 1299 4276 1297Q4270 1297 4249.5 1295.5Q4229 1294 4204.5 1291.5Q4180 1289 4156.0 1287.0Q4132 1285 4120 1285H4069Q4066 1285 4057.0 1281.5Q4048 1278 4046 1276H4041H4037Q4036 1278 4030.5 1281.5Q4025 1285 4024 1285Q4020 1286 4010.0 1289.0Q4000 1292 3989.5 1295.5Q3979 1299 3969.5 1302.0Q3960 1305 3956 1307V1345V1383Q3956 1385 3960.5 1394.0Q3965 1403 3965 1406V1489Q3965 1490 3967.5 1502.5Q3970 1515 3970 1516Q3970 1518 3967.5 1525.0Q3965 1532 3965 1534Q3962 1538 3959.0 1546.0Q3956 1554 3956 1556V1823Q3956 1828 3961.5 1839.0Q3967 1850 3970 1852Q3971 1853 3977.0 1854.0Q3983 1855 3990.5 1856.5Q3998 1858 4005.5 1859.0Q4013 1860 4017 1861H4089Q4099 1861 4112.5 1864.5Q4126 1868 4138.0 1874.0Q4150 1880 4158.5 1888.5Q4167 1897 4167 1909Q4167 1927 4149.5 1938.0Q4132 1949 4114 1949H3875Q3872 1949 3866.0 1948.0Q3860 1947 3852.5 1946.0Q3845 1945 3837.5 1944.0Q3830 1943 3826 1942L3820 1938Q3818 1936 3815.5 1934.5Q3813 1933 3812 1933H3809H3806Q3751 1947 3699.0 1951.5Q3647 1956 3593 1956H3548Q3531 1954 3523.0 1939.5Q3515 1925 3515 1911ZM4792 1942Q4792 1938 4786.5 1930.5Q4781 1923 4780 1918V1914V1913Q4782 1909 4789.0 1901.0Q4796 1893 4804.5 1884.5Q4813 1876 4820.5 1869.0Q4828 1862 4831 1859Q4833 1857 4844.5 1854.5Q4856 1852 4861 1852H4932Q4935 1852 4940.5 1850.5Q4946 1849 4951.5 1847.5Q4957 1846 4961.5 1844.0Q4966 1842 4966 1842Q4980 1835 4982.5 1819.5Q4985 1804 4985 1790V1774Q4985 1739 4983.5 1707.5Q4982 1676 4982 1641V1634Q4982 1631 4983.0 1623.0Q4984 1615 4985.5 1605.5Q4987 1596 4989.0 1588.0Q4991 1580 4992 1577V1141Q4992 1121 4985.0 1109.0Q4978 1097 4967.0 1090.5Q4956 1084 4941.5 1082.0Q4927 1080 4911 1080H4870Q4842 1080 4823.0 1073.0Q4804 1066 4804 1039Q4804 1030 4804.5 1023.0Q4805 1016 4809 1004Q4857 1006 4903.0 1001.0Q4949 996 4996 996H5022Q5026 997 5038.5 998.0Q5051 999 5064.5 1000.0Q5078 1001 5090.0 1002.0Q5102 1003 5107 1004H5577Q5607 1004 5620.0 1019.5Q5633 1035 5639 1058V1115V1174Q5639 1180 5637.0 1195.5Q5635 1211 5632.5 1228.5Q5630 1246 5627.5 1262.5Q5625 1279 5624 1286Q5622 1289 5617.0 1294.5Q5612 1300 5610 1300Q5610 1302 5608 1302H5607H5604Q5601 1302 5601 1300Q5584 1288 5575.0 1272.5Q5566 1257 5560.0 1240.0Q5554 1223 5549.0 1206.0Q5544 1189 5534 1174Q5532 1170 5521.5 1160.5Q5511 1151 5510 1150Q5508 1148 5501.5 1139.0Q5495 1130 5487.5 1119.5Q5480 1109 5473.5 1100.0Q5467 1091 5465 1089Q5461 1080 5456 1080Q5455 1080 5449.5 1079.0Q5444 1078 5437.5 1076.5Q5431 1075 5425.5 1074.0Q5420 1073 5420 1072Q5417 1072 5409.0 1070.0Q5401 1068 5391.5 1066.0Q5382 1064 5374.0 1061.5Q5366 1059 5364 1058H5359Q5355 1058 5348.0 1060.5Q5341 1063 5338 1063H5335Q5332 1062 5318.5 1061.0Q5305 1060 5289.0 1059.5Q5273 1059 5259.5 1058.5Q5246 1058 5243 1058H5240Q5222 1058 5210.0 1065.0Q5198 1072 5190.5 1083.0Q5183 1094 5177.5 1107.5Q5172 1121 5167 1134Q5166 1145 5163.5 1170.0Q5161 1195 5158.5 1223.0Q5156 1251 5154.0 1276.0Q5152 1301 5152 1311V1319V1324Q5152 1329 5153.0 1341.0Q5154 1353 5155.0 1366.5Q5156 1380 5157.5 1392.5Q5159 1405 5160 1409Q5167 1418 5176.5 1427.0Q5186 1436 5197 1439H5252Q5286 1439 5311.5 1438.0Q5337 1437 5373 1432Q5374 1430 5376.0 1425.0Q5378 1420 5381.0 1415.0Q5384 1410 5386.0 1406.0Q5388 1402 5389 1401Q5393 1394 5399.0 1380.5Q5405 1367 5411.0 1353.5Q5417 1340 5421.5 1330.0Q5426 1320 5427 1319Q5429 1315 5431.0 1301.5Q5433 1288 5435 1286Q5443 1277 5456.0 1274.0Q5469 1271 5482 1271Q5496 1271 5499.5 1281.5Q5503 1292 5503 1305V1330V1342Q5503 1351 5501.0 1359.5Q5499 1368 5494 1376Q5493 1385 5492.0 1406.0Q5491 1427 5490.0 1450.0Q5489 1473 5488.0 1493.5Q5487 1514 5487 1522V1548V1608Q5486 1610 5485.0 1617.0Q5484 1624 5483.5 1632.5Q5483 1641 5482.0 1649.0Q5481 1657 5480 1660Q5469 1668 5460.5 1672.0Q5452 1676 5440 1676Q5432 1676 5425.0 1669.5Q5418 1663 5412.0 1653.0Q5406 1643 5402.0 1632.5Q5398 1622 5397 1613Q5396 1610 5394.5 1599.5Q5393 1589 5392.0 1576.5Q5391 1564 5390.0 1553.0Q5389 1542 5389 1537Q5386 1533 5378.5 1529.5Q5371 1526 5364 1522Q5358 1520 5345.0 1517.0Q5332 1514 5317.5 1511.5Q5303 1509 5290.5 1507.5Q5278 1506 5274 1506Q5271 1506 5263.5 1505.5Q5256 1505 5246.5 1505.0Q5237 1505 5228.0 1504.5Q5219 1504 5214 1504Q5211 1504 5204.5 1504.5Q5198 1505 5191.5 1505.0Q5185 1505 5180.0 1505.5Q5175 1506 5174 1506L5160 1522V1556Q5160 1615 5156.0 1669.5Q5152 1724 5152 1783Q5152 1813 5157.0 1827.0Q5162 1841 5173.0 1847.0Q5184 1853 5201.0 1856.0Q5218 1859 5243 1866Q5245 1866 5250.0 1869.0Q5255 1872 5257 1875H5335H5409Q5411 1875 5418.0 1873.5Q5425 1872 5433.0 1870.5Q5441 1869 5447.5 1867.5Q5454 1866 5456 1866H5504H5523Q5525 1866 5530.0 1862.5Q5535 1859 5540.5 1854.5Q5546 1850 5550.0 1846.0Q5554 1842 5555 1842Q5562 1839 5566.5 1838.5Q5571 1838 5574.0 1837.5Q5577 1837 5580.0 1834.5Q5583 1832 5586 1826Q5597 1810 5602.0 1793.0Q5607 1776 5615 1759Q5619 1756 5625.0 1746.5Q5631 1737 5632 1734Q5633 1734 5638.0 1730.5Q5643 1727 5648.0 1722.5Q5653 1718 5657.0 1713.5Q5661 1709 5662 1707Q5663 1704 5666.5 1698.5Q5670 1693 5674.0 1686.5Q5678 1680 5681.5 1674.5Q5685 1669 5686 1667Q5686 1666 5689 1663Q5691 1662 5693 1660Q5693 1658 5694 1658H5696Q5711 1658 5714.0 1669.5Q5717 1681 5717 1693V1714Q5717 1719 5718.0 1738.0Q5719 1757 5719.5 1778.5Q5720 1800 5721.0 1819.0Q5722 1838 5722 1842V1845Q5722 1858 5717.0 1874.5Q5712 1891 5703.0 1906.0Q5694 1921 5681.5 1931.0Q5669 1941 5655 1942Q5648 1941 5629.5 1940.0Q5611 1939 5590.0 1938.0Q5569 1937 5550.0 1936.0Q5531 1935 5523 1933H5504H5487Q5482 1935 5464.0 1936.5Q5446 1938 5425.5 1939.0Q5405 1940 5386.5 1941.0Q5368 1942 5364 1942H4985Q4982 1943 4975.5 1944.0Q4969 1945 4961.5 1945.5Q4954 1946 4947.0 1946.5Q4940 1947 4937 1947Q4937 1949 4930 1949Q4923 1949 4917.0 1948.0Q4911 1947 4909 1947Q4905 1950 4893.0 1954.0Q4881 1958 4876 1958Q4871 1958 4859.5 1956.0Q4848 1954 4835.0 1951.5Q4822 1949 4810.0 1946.5Q4798 1944 4792 1942ZM5957 1942Q5955 1942 5945.5 1944.5Q5936 1947 5935 1947H5931Q5918 1947 5905.5 1946.0Q5893 1945 5883.5 1941.0Q5874 1937 5868.0 1929.0Q5862 1921 5862 1907V1892Q5863 1882 5886.5 1877.5Q5910 1873 5939.0 1871.5Q5968 1870 5994.0 1868.5Q6020 1867 6025 1861Q6026 1856 6027 1852Q6028 1848 6029.0 1845.0Q6030 1842 6030 1840Q6030 1836 6031.5 1827.5Q6033 1819 6034.5 1809.5Q6036 1800 6037.0 1792.0Q6038 1784 6038 1781Q6038 1773 6039.0 1747.5Q6040 1722 6041.0 1692.0Q6042 1662 6043.0 1634.0Q6044 1606 6044 1594Q6044 1589 6044.5 1575.5Q6045 1562 6045 1546Q6045 1530 6044.5 1517.0Q6044 1504 6044 1497L6049 1484Q6049 1483 6050.0 1463.5Q6051 1444 6052.5 1417.0Q6054 1390 6055.5 1362.0Q6057 1334 6057 1316V1248V1177Q6057 1173 6055.5 1165.0Q6054 1157 6053.0 1148.5Q6052 1140 6050.5 1133.5Q6049 1127 6049 1125Q6044 1110 6029.5 1103.5Q6015 1097 5995.5 1094.0Q5976 1091 5954.5 1090.5Q5933 1090 5915.0 1087.0Q5897 1084 5885.5 1076.5Q5874 1069 5874 1053Q5874 1044 5880.0 1036.5Q5886 1029 5894.0 1023.0Q5902 1017 5911.5 1013.5Q5921 1010 5928 1010Q5942 1010 5962.0 1014.0Q5982 1018 5993 1016Q5996 1016 6005.0 1015.0Q6014 1014 6024.5 1013.0Q6035 1012 6044.5 1011.0Q6054 1010 6057 1010Q6062 1010 6080.0 1011.0Q6098 1012 6118.5 1013.0Q6139 1014 6157.0 1015.5Q6175 1017 6180 1018H6192H6201Q6203 1017 6210.0 1015.5Q6217 1014 6224.5 1013.0Q6232 1012 6238.5 1011.0Q6245 1010 6246 1010H6296Q6297 1010 6303.0 1009.0Q6309 1008 6315.5 1007.0Q6322 1006 6327.5 1005.0Q6333 1004 6334 1004H6338Q6340 1004 6341.5 1003.5Q6343 1003 6345 1003Q6357 1003 6369.0 1004.0Q6381 1005 6391.0 1008.5Q6401 1012 6407.5 1020.0Q6414 1028 6414 1042Q6414 1045 6412.0 1050.5Q6410 1056 6410 1058Q6402 1063 6385.0 1072.5Q6368 1082 6357 1084Q6353 1084 6339.5 1085.5Q6326 1087 6311.0 1088.5Q6296 1090 6283.0 1091.5Q6270 1093 6267 1093Q6259 1094 6253.5 1099.5Q6248 1105 6246 1113Q6237 1158 6234.5 1202.0Q6232 1246 6232 1292V1388V1420Q6232 1421 6230.5 1431.5Q6229 1442 6227.5 1454.5Q6226 1467 6224.5 1478.0Q6223 1489 6223 1492V1644V1702Q6223 1705 6222.0 1715.0Q6221 1725 6220.0 1736.0Q6219 1747 6218.0 1756.0Q6217 1765 6217 1767V1772V1781Q6217 1783 6220.0 1791.5Q6223 1800 6223 1802Q6223 1804 6220.0 1808.5Q6217 1813 6217 1816Q6216 1819 6216 1822Q6215 1824 6215.0 1826.5Q6215 1829 6215 1831Q6215 1850 6226.5 1866.5Q6238 1883 6256 1883H6262Q6291 1878 6322.5 1873.5Q6354 1869 6383 1869H6552Q6556 1869 6565.5 1868.0Q6575 1867 6584.0 1866.0Q6593 1865 6600.0 1863.5Q6607 1862 6608 1861Q6610 1860 6616.0 1854.5Q6622 1849 6629.5 1841.5Q6637 1834 6643.5 1827.0Q6650 1820 6653 1816Q6653 1815 6655.0 1810.5Q6657 1806 6659.0 1801.5Q6661 1797 6663.0 1793.0Q6665 1789 6666 1788Q6666 1787 6669.5 1784.5Q6673 1782 6677.0 1779.0Q6681 1776 6684.5 1774.0Q6688 1772 6689 1772L6694 1767Q6696 1766 6702.0 1755.5Q6708 1745 6708 1743Q6712 1739 6718.5 1730.5Q6725 1722 6732.5 1712.5Q6740 1703 6746.0 1694.5Q6752 1686 6755 1683Q6759 1678 6760.5 1677.0Q6762 1676 6770 1676Q6786 1676 6795.0 1688.5Q6804 1701 6808.0 1718.0Q6812 1735 6812.5 1752.5Q6813 1770 6813 1781Q6813 1786 6813.0 1793.0Q6813 1800 6813.0 1807.0Q6813 1814 6812.5 1819.0Q6812 1824 6812 1824Q6812 1826 6809.0 1834.5Q6806 1843 6806 1845Q6804 1868 6804.0 1884.5Q6804 1901 6799.5 1913.0Q6795 1925 6783.5 1933.0Q6772 1941 6746 1947Q6737 1948 6713.0 1948.5Q6689 1949 6661.5 1949.0Q6634 1949 6609.5 1949.0Q6585 1949 6575 1949Q6557 1949 6529.0 1949.0Q6501 1949 6474.5 1949.0Q6448 1949 6428.0 1948.5Q6408 1948 6407 1947Q6402 1947 6387.5 1946.5Q6373 1946 6355.5 1945.5Q6338 1945 6321.5 1944.0Q6305 1943 6296 1942Q6295 1942 6290.0 1941.0Q6285 1940 6279.0 1939.0Q6273 1938 6268.0 1937.0Q6263 1936 6262 1935H6256H6246Q6241 1936 6226.0 1937.0Q6211 1938 6194.0 1939.0Q6177 1940 6161.5 1941.0Q6146 1942 6142 1942H6075Q6073 1942 6061.5 1944.5Q6050 1947 6049 1947Q6042 1951 6032.5 1951.5Q6023 1952 6018 1952Q6015 1952 6006.0 1950.5Q5997 1949 5986.5 1947.0Q5976 1945 5967.0 1943.5Q5958 1942 5957 1942ZM7007 1942Q7005 1942 6995.5 1944.5Q6986 1947 6985 1947H6981Q6968 1947 6955.5 1946.0Q6943 1945 6933.5 1941.0Q6924 1937 6918.0 1929.0Q6912 1921 6912 1907V1892Q6913 1882 6936.5 1877.5Q6960 1873 6989.0 1871.5Q7018 1870 7044.0 1868.5Q7070 1867 7075 1861Q7076 1856 7077 1852Q7078 1848 7079.0 1845.0Q7080 1842 7080 1840Q7080 1836 7081.5 1827.5Q7083 1819 7084.5 1809.5Q7086 1800 7087.0 1792.0Q7088 1784 7088 1781Q7088 1773 7089.0 1747.5Q7090 1722 7091.0 1692.0Q7092 1662 7093.0 1634.0Q7094 1606 7094 1594Q7094 1589 7094.5 1575.5Q7095 1562 7095 1546Q7095 1530 7094.5 1517.0Q7094 1504 7094 1497L7099 1484Q7099 1483 7100.0 1463.5Q7101 1444 7102.5 1417.0Q7104 1390 7105.5 1362.0Q7107 1334 7107 1316V1248V1177Q7107 1173 7105.5 1165.0Q7104 1157 7103.0 1148.5Q7102 1140 7100.5 1133.5Q7099 1127 7099 1125Q7094 1110 7079.5 1103.5Q7065 1097 7045.5 1094.0Q7026 1091 7004.5 1090.5Q6983 1090 6965.0 1087.0Q6947 1084 6935.5 1076.5Q6924 1069 6924 1053Q6924 1044 6930.0 1036.5Q6936 1029 6944.0 1023.0Q6952 1017 6961.5 1013.5Q6971 1010 6978 1010Q6992 1010 7012.0 1014.0Q7032 1018 7043 1016Q7046 1016 7055.0 1015.0Q7064 1014 7074.5 1013.0Q7085 1012 7094.5 1011.0Q7104 1010 7107 1010Q7112 1010 7130.0 1011.0Q7148 1012 7168.5 1013.0Q7189 1014 7207.0 1015.5Q7225 1017 7230 1018H7242H7251Q7253 1017 7260.0 1015.5Q7267 1014 7274.5 1013.0Q7282 1012 7288.5 1011.0Q7295 1010 7296 1010H7346Q7347 1010 7353.0 1009.0Q7359 1008 7365.5 1007.0Q7372 1006 7377.5 1005.0Q7383 1004 7384 1004H7388Q7390 1004 7391.5 1003.5Q7393 1003 7395 1003Q7407 1003 7419.0 1004.0Q7431 1005 7441.0 1008.5Q7451 1012 7457.5 1020.0Q7464 1028 7464 1042Q7464 1045 7462.0 1050.5Q7460 1056 7460 1058Q7452 1063 7435.0 1072.5Q7418 1082 7407 1084Q7403 1084 7389.5 1085.5Q7376 1087 7361.0 1088.5Q7346 1090 7333.0 1091.5Q7320 1093 7317 1093Q7309 1094 7303.5 1099.5Q7298 1105 7296 1113Q7287 1158 7284.5 1202.0Q7282 1246 7282 1292V1388V1420Q7282 1421 7280.5 1431.5Q7279 1442 7277.5 1454.5Q7276 1467 7274.5 1478.0Q7273 1489 7273 1492V1644V1702Q7273 1705 7272.0 1715.0Q7271 1725 7270.0 1736.0Q7269 1747 7268.0 1756.0Q7267 1765 7267 1767V1772V1781Q7267 1783 7270.0 1791.5Q7273 1800 7273 1802Q7273 1804 7270.0 1808.5Q7267 1813 7267 1816Q7266 1819 7266 1822Q7265 1824 7265.0 1826.5Q7265 1829 7265 1831Q7265 1850 7276.5 1866.5Q7288 1883 7306 1883H7312Q7341 1878 7372.5 1873.5Q7404 1869 7433 1869H7602Q7606 1869 7615.5 1868.0Q7625 1867 7634.0 1866.0Q7643 1865 7650.0 1863.5Q7657 1862 7658 1861Q7660 1860 7666.0 1854.5Q7672 1849 7679.5 1841.5Q7687 1834 7693.5 1827.0Q7700 1820 7703 1816Q7703 1815 7705.0 1810.5Q7707 1806 7709.0 1801.5Q7711 1797 7713.0 1793.0Q7715 1789 7716 1788Q7716 1787 7719.5 1784.5Q7723 1782 7727.0 1779.0Q7731 1776 7734.5 1774.0Q7738 1772 7739 1772L7744 1767Q7746 1766 7752.0 1755.5Q7758 1745 7758 1743Q7762 1739 7768.5 1730.5Q7775 1722 7782.5 1712.5Q7790 1703 7796.0 1694.5Q7802 1686 7805 1683Q7809 1678 7810.5 1677.0Q7812 1676 7820 1676Q7836 1676 7845.0 1688.5Q7854 1701 7858.0 1718.0Q7862 1735 7862.5 1752.5Q7863 1770 7863 1781Q7863 1786 7863.0 1793.0Q7863 1800 7863.0 1807.0Q7863 1814 7862.5 1819.0Q7862 1824 7862 1824Q7862 1826 7859.0 1834.5Q7856 1843 7856 1845Q7854 1868 7854.0 1884.5Q7854 1901 7849.5 1913.0Q7845 1925 7833.5 1933.0Q7822 1941 7796 1947Q7787 1948 7763.0 1948.5Q7739 1949 7711.5 1949.0Q7684 1949 7659.5 1949.0Q7635 1949 7625 1949Q7607 1949 7579.0 1949.0Q7551 1949 7524.5 1949.0Q7498 1949 7478.0 1948.5Q7458 1948 7457 1947Q7452 1947 7437.5 1946.5Q7423 1946 7405.5 1945.5Q7388 1945 7371.5 1944.0Q7355 1943 7346 1942Q7345 1942 7340.0 1941.0Q7335 1940 7329.0 1939.0Q7323 1938 7318.0 1937.0Q7313 1936 7312 1935H7306H7296Q7291 1936 7276.0 1937.0Q7261 1938 7244.0 1939.0Q7227 1940 7211.5 1941.0Q7196 1942 7192 1942H7125Q7123 1942 7111.5 1944.5Q7100 1947 7099 1947Q7092 1951 7082.5 1951.5Q7073 1952 7068 1952Q7065 1952 7056.0 1950.5Q7047 1949 7036.5 1947.0Q7026 1945 7017.0 1943.5Q7008 1942 7007 1942ZM8439 1181Q8440 1173 8442.0 1153.5Q8444 1134 8445 1112Q8448 1092 8450.5 1075.0Q8453 1058 8456 1042Q8458 1041 8458.5 1039.0Q8459 1037 8461 1035Q8462 1033 8465.0 1023.5Q8468 1014 8471.5 1002.5Q8475 991 8478.5 981.5Q8482 972 8484 970Q8493 947 8503.0 930.0Q8513 913 8522 897Q8527 889 8532.0 881.0Q8537 873 8544 862Q8551 854 8556 837Q8561 823 8569.0 809.5Q8577 796 8591 785Q8607 776 8614.0 766.0Q8621 756 8629 745Q8633 740 8640.5 732.0Q8648 724 8669 702Q8675 695 8681.5 687.5Q8688 680 8695 676Q8703 670 8707 668Q8711 666 8714 664Q8718 661 8722 657Q8726 653 8732.0 647.0Q8738 641 8747 631Q8751 626 8764.0 620.0Q8777 614 8809 598Q8807 596 8818.0 589.5Q8829 583 8840 575Q8852 569 8862.5 564.5Q8873 560 8885 558Q8886 558 8891.0 556.5Q8896 555 8902.0 552.5Q8908 550 8914.0 547.0Q8920 544 8923 541Q8925 541 8926.5 540.5Q8928 540 8939 537H8961L8994 532Q9037 525 9076.5 520.0Q9116 515 9158 515H9169Q9191 515 9218.0 516.0Q9245 517 9266 523Q9266 523 9270.0 524.0Q9274 525 9278.5 526.5Q9283 528 9287.5 529.5Q9292 531 9293 532Q9295 533 9304.0 534.5Q9313 536 9324.0 537.5Q9335 539 9344.5 541.0Q9354 543 9357 544Q9359 546 9365.5 548.0Q9372 550 9383 555Q9391 559 9398.0 562.0Q9405 565 9407 567Q9410 568 9412.5 568.0Q9415 568 9419 570Q9424 572 9427.0 573.0Q9430 574 9432 574Q9438 578 9453.5 585.5Q9469 593 9486.0 602.0Q9503 611 9519.5 619.0Q9536 627 9544 631Q9546 632 9549.5 633.0Q9553 634 9558 634Q9566 634 9570.0 628.5Q9574 623 9577 617Q9582 603 9588.0 592.0Q9594 581 9601 570Q9608 562 9611.5 560.0Q9615 558 9629 558Q9645 558 9654.5 570.0Q9664 582 9669.0 598.5Q9674 615 9675.5 633.0Q9677 651 9677 662Q9677 687 9676.0 712.5Q9675 738 9672 764Q9669 808 9669 857V882Q9667 886 9664.5 891.5Q9662 897 9653 904Q9646 911 9641.0 915.5Q9636 920 9625 920Q9615 920 9601.0 914.5Q9587 909 9582 897Q9565 861 9549.0 829.5Q9533 798 9514.5 769.0Q9496 740 9473.5 712.5Q9451 685 9421 657Q9391 632 9355.0 618.5Q9319 605 9281 594Q9276 592 9271 589Q9248 584 9229.5 583.0Q9211 582 9188 582Q9137 582 9088.0 603.5Q9039 625 8992 650Q8987 656 8976.5 661.5Q8966 667 8954 672Q8943 679 8936.0 683.0Q8929 687 8926 689L8895 719Q8889 728 8882.0 734.5Q8875 741 8873 743Q8870 743 8868.5 745.0Q8867 747 8862 748Q8856 752 8855.0 752.5Q8854 753 8852 753Q8841 765 8829.0 782.5Q8817 800 8809 816Q8808 817 8798 835Q8792 844 8785.0 856.0Q8778 868 8771.0 879.5Q8764 891 8757.5 901.5Q8751 912 8748 918Q8727 957 8714.0 1006.0Q8701 1055 8693.5 1106.0Q8686 1157 8683.5 1207.0Q8681 1257 8681 1298Q8681 1353 8686.5 1406.0Q8692 1459 8710 1513Q8711 1514 8714.0 1519.0Q8717 1524 8719.5 1530.5Q8722 1537 8724.5 1542.5Q8727 1548 8727 1549Q8732 1563 8737.0 1575.5Q8742 1588 8745 1599Q8750 1615 8756.5 1630.5Q8763 1646 8771 1660Q8788 1693 8818.0 1725.5Q8848 1758 8884.0 1786.0Q8920 1814 8958.5 1835.0Q8997 1856 9032 1864Q9036 1864 9047.0 1865.0Q9058 1866 9070 1866H9105Q9114 1866 9132.5 1865.0Q9151 1864 9165 1864H9181Q9183 1864 9194.0 1860.5Q9205 1857 9219.0 1852.0Q9233 1847 9247.5 1841.5Q9262 1836 9271 1833Q9286 1827 9298.5 1816.0Q9311 1805 9321.0 1791.5Q9331 1778 9337.0 1762.0Q9343 1746 9343 1731V1553Q9343 1552 9344.0 1543.5Q9345 1535 9346.5 1523.0Q9348 1511 9349.5 1498.0Q9351 1485 9352 1473Q9354 1450 9355.5 1431.0Q9357 1412 9357 1407V1352Q9357 1343 9355.5 1333.5Q9354 1324 9352 1319Q9348 1317 9331.5 1308.5Q9315 1300 9302 1295Q9299 1293 9296.5 1292.5Q9294 1292 9291 1290Q9283 1288 9272.5 1287.0Q9262 1286 9248 1285Q9233 1284 9217.5 1282.0Q9202 1280 9189.0 1276.5Q9176 1273 9168.0 1266.5Q9160 1260 9160 1248Q9160 1246 9161.0 1244.0Q9162 1242 9162 1240L9167 1226Q9169 1222 9176.0 1215.5Q9183 1209 9186 1207H9331Q9332 1207 9339.0 1206.0Q9346 1205 9353.5 1203.5Q9361 1202 9367.5 1201.0Q9374 1200 9376 1200H9385Q9387 1200 9397.5 1203.5Q9408 1207 9414 1207H9475L9504 1210Q9520 1212 9533.5 1213.5Q9547 1215 9551 1215Q9560 1217 9584.0 1217.0Q9608 1217 9634 1217Q9661 1217 9684.5 1217.0Q9708 1217 9717 1215Q9725 1216 9735.0 1220.5Q9745 1225 9753.5 1231.5Q9762 1238 9768.0 1247.0Q9774 1256 9774 1266L9764 1278Q9760 1279 9751.5 1283.5Q9743 1288 9741 1290Q9735 1292 9720.0 1292.5Q9705 1293 9689 1295Q9676 1297 9664.5 1297.5Q9653 1298 9648 1298Q9622 1301 9606.5 1307.0Q9591 1313 9586 1340Q9576 1388 9574.5 1437.0Q9573 1486 9573 1534Q9573 1552 9573.0 1572.0Q9573 1592 9572 1612Q9570 1616 9568.5 1631.5Q9567 1647 9566.0 1665.0Q9565 1683 9564.0 1699.0Q9563 1715 9563 1719Q9563 1724 9563.5 1732.5Q9564 1741 9566.5 1749.5Q9569 1758 9574.0 1764.5Q9579 1771 9587 1771Q9595 1771 9602.5 1768.5Q9610 1766 9618 1764Q9628 1762 9636.5 1759.5Q9645 1757 9656 1757Q9672 1757 9674.5 1765.0Q9677 1773 9677 1785Q9677 1797 9669.5 1808.0Q9662 1819 9651.0 1829.0Q9640 1839 9627.5 1846.0Q9615 1853 9605 1857Q9603 1857 9600 1858Q9597 1859 9589 1861Q9582 1862 9576.0 1864.0Q9570 1866 9568 1866Q9559 1870 9548.5 1873.5Q9538 1877 9527 1881Q9518 1884 9509.0 1888.5Q9500 1893 9492 1895Q9488 1895 9477.0 1897.5Q9466 1900 9464 1902Q9378 1919 9288.5 1933.0Q9199 1947 9105 1947Q9102 1946 9099 1944Q9097 1942 9094.5 1941.5Q9092 1941 9091 1939Q9087 1939 9078.5 1938.0Q9070 1937 9061 1937Q9051 1935 9041.5 1934.0Q9032 1933 9030 1933Q9019 1932 8999.5 1928.5Q8980 1925 8959 1920Q8937 1917 8919.0 1914.0Q8901 1911 8899 1909Q8879 1905 8857.5 1893.0Q8836 1881 8816 1869Q8807 1864 8797.0 1859.0Q8787 1854 8779 1847Q8753 1838 8733.0 1827.0Q8713 1816 8688 1793Q8682 1789 8671.0 1778.0Q8660 1767 8647.0 1754.0Q8634 1741 8621.0 1727.5Q8608 1714 8598 1703L8582 1689Q8585 1689 8576.0 1680.0Q8567 1671 8563 1662Q8561 1657 8560.5 1653.5Q8560 1650 8558 1648Q8558 1646 8553.0 1635.0Q8548 1624 8546 1622Q8544 1620 8539.0 1615.5Q8534 1611 8529 1605Q8522 1597 8518.5 1591.0Q8515 1585 8513 1582Q8474 1503 8456.5 1421.0Q8439 1339 8439 1250ZM10223 1281Q10223 1291 10223.0 1308.0Q10223 1325 10223.5 1341.5Q10224 1358 10224.5 1371.5Q10225 1385 10227 1387Q10227 1387 10227.5 1393.5Q10228 1400 10228.5 1408.5Q10229 1417 10230.0 1425.5Q10231 1434 10232 1439Q10233 1452 10236.0 1468.0Q10239 1484 10256 1492Q10259 1493 10265.0 1493.5Q10271 1494 10277.5 1494.0Q10284 1494 10290.0 1494.0Q10296 1494 10299 1494Q10351 1494 10398.5 1466.0Q10446 1438 10484 1399Q10506 1367 10510.5 1325.0Q10515 1283 10515 1245V1186Q10507 1157 10489.0 1126.5Q10471 1096 10446 1079Q10444 1079 10435.5 1076.5Q10427 1074 10425 1072Q10419 1069 10408.0 1064.5Q10397 1060 10393 1058Q10379 1056 10365.5 1054.5Q10352 1053 10339 1053Q10326 1053 10312.5 1054.5Q10299 1056 10285 1058Q10278 1059 10270.5 1064.0Q10263 1069 10257.0 1075.5Q10251 1082 10247.0 1089.5Q10243 1097 10242 1103Q10241 1110 10238.5 1123.0Q10236 1136 10233.5 1149.5Q10231 1163 10229.0 1173.5Q10227 1184 10227 1186Q10225 1187 10224.5 1198.0Q10224 1209 10223.5 1224.0Q10223 1239 10223.0 1255.0Q10223 1271 10223 1281ZM9891 1923Q9891 1907 9913.5 1900.5Q9936 1894 9964.0 1889.5Q9992 1885 10017.5 1879.0Q10043 1873 10048 1859Q10049 1850 10051.0 1828.0Q10053 1806 10056.0 1781.5Q10059 1757 10061.5 1736.0Q10064 1715 10066 1707V1696Q10066 1661 10062.5 1625.0Q10059 1589 10059 1553V1539Q10059 1536 10060.0 1523.0Q10061 1510 10062.5 1495.5Q10064 1481 10065.0 1469.0Q10066 1457 10066 1454Q10066 1453 10066.0 1436.5Q10066 1420 10066.5 1398.0Q10067 1376 10067.0 1353.0Q10067 1330 10067 1316Q10067 1308 10067.0 1289.0Q10067 1270 10066.5 1248.5Q10066 1227 10066.0 1207.5Q10066 1188 10066 1179Q10066 1154 10056.0 1135.5Q10046 1117 10034 1096Q10027 1084 10005.5 1078.5Q9984 1073 9961.5 1069.5Q9939 1066 9921.0 1060.5Q9903 1055 9903 1041Q9903 1036 9908.5 1026.5Q9914 1017 9920 1013H9981Q9985 1012 10000.0 1010.5Q10015 1009 10031.5 1007.5Q10048 1006 10062.5 1005.0Q10077 1004 10081 1004H10150Q10151 1004 10156.5 1003.0Q10162 1002 10168.5 1000.5Q10175 999 10180.5 997.5Q10186 996 10188 996H10199H10211Q10213 996 10219.5 996.5Q10226 997 10233.5 997.5Q10241 998 10247.5 998.5Q10254 999 10256 999Q10259 999 10270.0 998.5Q10281 998 10294.0 997.5Q10307 997 10319.0 996.5Q10331 996 10334 996H10370H10408Q10409 996 10415.0 997.5Q10421 999 10427.5 1000.0Q10434 1001 10439.5 1002.0Q10445 1003 10446 1003Q10448 1003 10457.0 1003.0Q10466 1003 10476.5 1003.5Q10487 1004 10496.5 1004.0Q10506 1004 10509 1004Q10518 1006 10534.5 1015.0Q10551 1024 10560 1029Q10562 1029 10569.5 1030.5Q10577 1032 10585.0 1034.0Q10593 1036 10600.0 1038.0Q10607 1040 10609 1041Q10647 1070 10666.5 1110.5Q10686 1151 10697 1196Q10699 1196 10699.0 1200.0Q10699 1204 10699 1208Q10699 1232 10696.5 1258.0Q10694 1284 10688.0 1309.5Q10682 1335 10671.5 1358.0Q10661 1381 10645 1399Q10629 1419 10607.0 1440.0Q10585 1461 10560 1468Q10555 1471 10545.5 1473.0Q10536 1475 10525.5 1479.0Q10515 1483 10507.5 1489.5Q10500 1496 10500 1506Q10500 1518 10514.0 1542.5Q10528 1567 10546.0 1593.5Q10564 1620 10582.0 1643.0Q10600 1666 10609 1676Q10610 1679 10619.0 1691.0Q10628 1703 10640.0 1717.5Q10652 1732 10664.0 1746.0Q10676 1760 10683 1767Q10688 1772 10690 1776Q10700 1783 10715.0 1795.5Q10730 1808 10744.5 1820.0Q10759 1832 10770.5 1841.0Q10782 1850 10784 1850Q10784 1851 10788.5 1854.0Q10793 1857 10799.0 1861.0Q10805 1865 10811.0 1868.5Q10817 1872 10822 1873Q10827 1876 10837.5 1881.0Q10848 1886 10858.0 1892.5Q10868 1899 10875.0 1906.5Q10882 1914 10880 1921Q10880 1926 10874.5 1930.0Q10869 1934 10861.5 1936.5Q10854 1939 10846.5 1940.5Q10839 1942 10835 1942H10538Q10529 1942 10517.5 1941.5Q10506 1941 10495.5 1938.0Q10485 1935 10477.5 1928.0Q10470 1921 10470 1907Q10470 1900 10478.0 1892.5Q10486 1885 10496.5 1878.0Q10507 1871 10517.5 1864.0Q10528 1857 10533 1850V1849V1842Q10530 1838 10526.0 1831.0Q10522 1824 10518.5 1816.5Q10515 1809 10512.0 1803.5Q10509 1798 10509 1797Q10506 1794 10496.0 1780.5Q10486 1767 10474.0 1752.0Q10462 1737 10452.0 1724.0Q10442 1711 10439 1707Q10421 1682 10404.0 1662.0Q10387 1642 10369.0 1624.0Q10351 1606 10330.5 1589.5Q10310 1573 10285 1553Q10277 1546 10270.5 1538.0Q10264 1530 10252 1530H10247Q10245 1532 10244 1534Q10242 1538 10242 1539Q10241 1550 10238.5 1578.0Q10236 1606 10233.5 1637.5Q10231 1669 10229.0 1697.5Q10227 1726 10227 1736Q10224 1736 10223.5 1743.0Q10223 1750 10223 1752Q10223 1756 10223.5 1761.5Q10224 1767 10227 1767Q10227 1772 10229.0 1784.0Q10231 1796 10233.5 1809.5Q10236 1823 10238.5 1834.5Q10241 1846 10242 1850Q10242 1853 10244.5 1859.0Q10247 1865 10250.5 1871.0Q10254 1877 10257.5 1882.0Q10261 1887 10263 1887H10334Q10334 1889 10335 1891Q10338 1896 10339 1897Q10346 1906 10347.0 1909.0Q10348 1912 10348 1921Q10348 1932 10337.5 1936.0Q10327 1940 10316 1942H10273Q10208 1942 10145.0 1945.5Q10082 1949 10015 1949H9927Q9913 1949 9902.0 1944.0Q9891 1939 9891 1923ZM10953 1942Q10953 1938 10947.5 1930.5Q10942 1923 10941 1918V1914V1913Q10943 1909 10950.0 1901.0Q10957 1893 10965.5 1884.5Q10974 1876 10981.5 1869.0Q10989 1862 10992 1859Q10994 1857 11005.5 1854.5Q11017 1852 11022 1852H11093Q11096 1852 11101.5 1850.5Q11107 1849 11112.5 1847.5Q11118 1846 11122.5 1844.0Q11127 1842 11127 1842Q11141 1835 11143.5 1819.5Q11146 1804 11146 1790V1774Q11146 1739 11144.5 1707.5Q11143 1676 11143 1641V1634Q11143 1631 11144.0 1623.0Q11145 1615 11146.5 1605.5Q11148 1596 11150.0 1588.0Q11152 1580 11153 1577V1141Q11153 1121 11146.0 1109.0Q11139 1097 11128.0 1090.5Q11117 1084 11102.5 1082.0Q11088 1080 11072 1080H11031Q11003 1080 10984.0 1073.0Q10965 1066 10965 1039Q10965 1030 10965.5 1023.0Q10966 1016 10970 1004Q11018 1006 11064.0 1001.0Q11110 996 11157 996H11183Q11187 997 11199.5 998.0Q11212 999 11225.5 1000.0Q11239 1001 11251.0 1002.0Q11263 1003 11268 1004H11738Q11768 1004 11781.0 1019.5Q11794 1035 11800 1058V1115V1174Q11800 1180 11798.0 1195.5Q11796 1211 11793.5 1228.5Q11791 1246 11788.5 1262.5Q11786 1279 11785 1286Q11783 1289 11778.0 1294.5Q11773 1300 11771 1300Q11771 1302 11769 1302H11768H11765Q11762 1302 11762 1300Q11745 1288 11736.0 1272.5Q11727 1257 11721.0 1240.0Q11715 1223 11710.0 1206.0Q11705 1189 11695 1174Q11693 1170 11682.5 1160.5Q11672 1151 11671 1150Q11669 1148 11662.5 1139.0Q11656 1130 11648.5 1119.5Q11641 1109 11634.5 1100.0Q11628 1091 11626 1089Q11622 1080 11617 1080Q11616 1080 11610.5 1079.0Q11605 1078 11598.5 1076.5Q11592 1075 11586.5 1074.0Q11581 1073 11581 1072Q11578 1072 11570.0 1070.0Q11562 1068 11552.5 1066.0Q11543 1064 11535.0 1061.5Q11527 1059 11525 1058H11520Q11516 1058 11509.0 1060.5Q11502 1063 11499 1063H11496Q11493 1062 11479.5 1061.0Q11466 1060 11450.0 1059.5Q11434 1059 11420.5 1058.5Q11407 1058 11404 1058H11401Q11383 1058 11371.0 1065.0Q11359 1072 11351.5 1083.0Q11344 1094 11338.5 1107.5Q11333 1121 11328 1134Q11327 1145 11324.5 1170.0Q11322 1195 11319.5 1223.0Q11317 1251 11315.0 1276.0Q11313 1301 11313 1311V1319V1324Q11313 1329 11314.0 1341.0Q11315 1353 11316.0 1366.5Q11317 1380 11318.5 1392.5Q11320 1405 11321 1409Q11328 1418 11337.5 1427.0Q11347 1436 11358 1439H11413Q11447 1439 11472.5 1438.0Q11498 1437 11534 1432Q11535 1430 11537.0 1425.0Q11539 1420 11542.0 1415.0Q11545 1410 11547.0 1406.0Q11549 1402 11550 1401Q11554 1394 11560.0 1380.5Q11566 1367 11572.0 1353.5Q11578 1340 11582.5 1330.0Q11587 1320 11588 1319Q11590 1315 11592.0 1301.5Q11594 1288 11596 1286Q11604 1277 11617.0 1274.0Q11630 1271 11643 1271Q11657 1271 11660.5 1281.5Q11664 1292 11664 1305V1330V1342Q11664 1351 11662.0 1359.5Q11660 1368 11655 1376Q11654 1385 11653.0 1406.0Q11652 1427 11651.0 1450.0Q11650 1473 11649.0 1493.5Q11648 1514 11648 1522V1548V1608Q11647 1610 11646.0 1617.0Q11645 1624 11644.5 1632.5Q11644 1641 11643.0 1649.0Q11642 1657 11641 1660Q11630 1668 11621.5 1672.0Q11613 1676 11601 1676Q11593 1676 11586.0 1669.5Q11579 1663 11573.0 1653.0Q11567 1643 11563.0 1632.5Q11559 1622 11558 1613Q11557 1610 11555.5 1599.5Q11554 1589 11553.0 1576.5Q11552 1564 11551.0 1553.0Q11550 1542 11550 1537Q11547 1533 11539.5 1529.5Q11532 1526 11525 1522Q11519 1520 11506.0 1517.0Q11493 1514 11478.5 1511.5Q11464 1509 11451.5 1507.5Q11439 1506 11435 1506Q11432 1506 11424.5 1505.5Q11417 1505 11407.5 1505.0Q11398 1505 11389.0 1504.5Q11380 1504 11375 1504Q11372 1504 11365.5 1504.5Q11359 1505 11352.5 1505.0Q11346 1505 11341.0 1505.5Q11336 1506 11335 1506L11321 1522V1556Q11321 1615 11317.0 1669.5Q11313 1724 11313 1783Q11313 1813 11318.0 1827.0Q11323 1841 11334.0 1847.0Q11345 1853 11362.0 1856.0Q11379 1859 11404 1866Q11406 1866 11411.0 1869.0Q11416 1872 11418 1875H11496H11570Q11572 1875 11579.0 1873.5Q11586 1872 11594.0 1870.5Q11602 1869 11608.5 1867.5Q11615 1866 11617 1866H11665H11684Q11686 1866 11691.0 1862.5Q11696 1859 11701.5 1854.5Q11707 1850 11711.0 1846.0Q11715 1842 11716 1842Q11723 1839 11727.5 1838.5Q11732 1838 11735.0 1837.5Q11738 1837 11741.0 1834.5Q11744 1832 11747 1826Q11758 1810 11763.0 1793.0Q11768 1776 11776 1759Q11780 1756 11786.0 1746.5Q11792 1737 11793 1734Q11794 1734 11799.0 1730.5Q11804 1727 11809.0 1722.5Q11814 1718 11818.0 1713.5Q11822 1709 11823 1707Q11824 1704 11827.5 1698.5Q11831 1693 11835.0 1686.5Q11839 1680 11842.5 1674.5Q11846 1669 11847 1667Q11847 1666 11850 1663Q11852 1662 11854 1660Q11854 1658 11855 1658H11857Q11872 1658 11875.0 1669.5Q11878 1681 11878 1693V1714Q11878 1719 11879.0 1738.0Q11880 1757 11880.5 1778.5Q11881 1800 11882.0 1819.0Q11883 1838 11883 1842V1845Q11883 1858 11878.0 1874.5Q11873 1891 11864.0 1906.0Q11855 1921 11842.5 1931.0Q11830 1941 11816 1942Q11809 1941 11790.5 1940.0Q11772 1939 11751.0 1938.0Q11730 1937 11711.0 1936.0Q11692 1935 11684 1933H11665H11648Q11643 1935 11625.0 1936.5Q11607 1938 11586.5 1939.0Q11566 1940 11547.5 1941.0Q11529 1942 11525 1942H11146Q11143 1943 11136.5 1944.0Q11130 1945 11122.5 1945.5Q11115 1946 11108.0 1946.5Q11101 1947 11098 1947Q11098 1949 11091 1949Q11084 1949 11078.0 1948.0Q11072 1947 11070 1947Q11066 1950 11054.0 1954.0Q11042 1958 11037 1958Q11032 1958 11020.5 1956.0Q11009 1954 10996.0 1951.5Q10983 1949 10971.0 1946.5Q10959 1944 10953 1942ZM12275 1546Q12275 1560 12288.0 1566.0Q12301 1572 12312 1572H12365Q12376 1572 12387.0 1573.0Q12398 1574 12409 1574Q12435 1574 12454.0 1565.5Q12473 1557 12473 1527V1510Q12464 1464 12446.0 1418.5Q12428 1373 12412 1330Q12410 1323 12406.5 1314.5Q12403 1306 12398.0 1298.5Q12393 1291 12387.0 1286.0Q12381 1281 12374 1281Q12361 1281 12353.5 1292.0Q12346 1303 12341.5 1318.0Q12337 1333 12334.0 1348.5Q12331 1364 12327 1373Q12324 1382 12316.5 1405.0Q12309 1428 12301.0 1453.5Q12293 1479 12285.5 1502.0Q12278 1525 12275 1534ZM12042 1937H12037Q12035 1937 12027.0 1938.5Q12019 1940 12009.0 1941.5Q11999 1943 11990.5 1944.0Q11982 1945 11980 1945H11974Q11968 1945 11964.0 1940.0Q11960 1935 11958.0 1928.5Q11956 1922 11955.5 1915.5Q11955 1909 11955 1907V1904Q11955 1886 11967.5 1880.0Q11980 1874 11992 1869Q11994 1869 12002.0 1865.5Q12010 1862 12019.5 1858.0Q12029 1854 12037.0 1850.5Q12045 1847 12047 1845Q12048 1844 12053.0 1839.5Q12058 1835 12064.0 1829.0Q12070 1823 12075.5 1817.0Q12081 1811 12085 1807Q12086 1805 12088 1802Q12092 1796 12092 1793Q12092 1791 12094.5 1781.0Q12097 1771 12099 1769Q12126 1715 12153.0 1659.5Q12180 1604 12204 1548Q12207 1545 12212.5 1530.5Q12218 1516 12220 1510Q12221 1508 12225.0 1497.5Q12229 1487 12233.0 1475.5Q12237 1464 12240.5 1454.0Q12244 1444 12244 1442Q12245 1439 12250.5 1428.0Q12256 1417 12262.5 1404.0Q12269 1391 12274.5 1379.0Q12280 1367 12282 1364Q12290 1346 12297.5 1331.5Q12305 1317 12312 1297Q12316 1289 12322.5 1279.0Q12329 1269 12335.0 1257.5Q12341 1246 12345.5 1235.0Q12350 1224 12350 1214V1200Q12350 1196 12347.5 1186.5Q12345 1177 12345 1176Q12345 1169 12353.0 1158.0Q12361 1147 12365 1144Q12367 1143 12374.5 1140.0Q12382 1137 12390.0 1133.0Q12398 1129 12404.5 1126.0Q12411 1123 12412 1122Q12414 1120 12420.0 1114.0Q12426 1108 12433.5 1100.5Q12441 1093 12447.5 1085.5Q12454 1078 12457 1075Q12458 1074 12461.0 1068.5Q12464 1063 12468.0 1057.5Q12472 1052 12477.0 1047.5Q12482 1043 12488 1044Q12498 1047 12505.5 1062.0Q12513 1077 12518.5 1094.5Q12524 1112 12528.0 1128.5Q12532 1145 12535 1151Q12536 1156 12538.5 1165.0Q12541 1174 12543.5 1183.0Q12546 1192 12548.0 1199.0Q12550 1206 12550 1207Q12551 1210 12553.0 1221.0Q12555 1232 12557.5 1245.0Q12560 1258 12562.0 1268.5Q12564 1279 12564 1281Q12565 1284 12569.5 1300.0Q12574 1316 12580.0 1337.0Q12586 1358 12592.0 1378.5Q12598 1399 12602 1411Q12610 1438 12622.0 1464.5Q12634 1491 12640 1518Q12645 1541 12646.5 1554.5Q12648 1568 12656 1587Q12657 1589 12660.5 1595.5Q12664 1602 12668.0 1609.5Q12672 1617 12675.0 1624.0Q12678 1631 12679 1634Q12679 1636 12680.0 1641.0Q12681 1646 12682.5 1652.5Q12684 1659 12685.0 1664.5Q12686 1670 12687 1672Q12687 1673 12689.0 1678.5Q12691 1684 12694.0 1690.5Q12697 1697 12699.5 1702.5Q12702 1708 12703 1708Q12708 1734 12716.0 1764.0Q12724 1794 12741 1817Q12749 1829 12770.5 1837.0Q12792 1845 12814.5 1853.0Q12837 1861 12854.0 1871.0Q12871 1881 12871 1897Q12871 1914 12862.5 1923.5Q12854 1933 12841.0 1938.0Q12828 1943 12812.0 1944.0Q12796 1945 12782 1945H12762H12741Q12725 1945 12685.0 1944.0Q12645 1943 12599.5 1941.5Q12554 1940 12513.5 1938.5Q12473 1937 12457 1937Q12446 1933 12444.0 1927.5Q12442 1922 12442 1911V1904Q12442 1902 12443 1900Q12452 1881 12468.0 1874.5Q12484 1868 12501.5 1864.0Q12519 1860 12536.0 1854.5Q12553 1849 12564 1831L12566 1824L12564 1817Q12563 1808 12559.5 1792.0Q12556 1776 12552.5 1760.0Q12549 1744 12546.0 1731.5Q12543 1719 12542 1717Q12540 1715 12536.0 1707.0Q12532 1699 12527.5 1689.0Q12523 1679 12518.5 1669.5Q12514 1660 12511 1655Q12500 1638 12480.5 1634.5Q12461 1631 12442 1631H12422Q12386 1631 12354.5 1636.0Q12323 1641 12288 1641Q12281 1641 12274.0 1640.0Q12267 1639 12260 1639Q12253 1646 12253 1650Q12251 1651 12248.5 1657.5Q12246 1664 12243.5 1671.5Q12241 1679 12238.5 1685.5Q12236 1692 12236 1693Q12236 1695 12229.5 1705.0Q12223 1715 12220 1717Q12208 1742 12206.0 1768.5Q12204 1795 12204 1823Q12204 1839 12214.0 1846.5Q12224 1854 12239.0 1858.0Q12254 1862 12271.0 1864.5Q12288 1867 12303.0 1871.5Q12318 1876 12328.0 1885.0Q12338 1894 12338 1911Q12338 1944 12307 1952Q12303 1952 12292.5 1951.0Q12282 1950 12271.0 1949.0Q12260 1948 12250.0 1947.0Q12240 1946 12236 1945H12165H12137Q12134 1945 12121.0 1944.0Q12108 1943 12092.0 1941.5Q12076 1940 12063.0 1938.5Q12050 1937 12047 1937ZM13194 1935Q13194 1922 13200.0 1914.5Q13206 1907 13215 1902Q13225 1897 13244.0 1893.5Q13263 1890 13282.5 1885.5Q13302 1881 13317.0 1873.5Q13332 1866 13335 1852V1831V1821Q13335 1814 13335.5 1789.5Q13336 1765 13336.5 1732.5Q13337 1700 13338.0 1663.0Q13339 1626 13339.5 1593.0Q13340 1560 13340.5 1535.5Q13341 1511 13341 1503V1330V1158Q13336 1140 13317.5 1126.5Q13299 1113 13279 1113H13151Q13144 1113 13131.0 1119.0Q13118 1125 13113 1127Q13075 1150 13052.0 1176.5Q13029 1203 13006 1234Q13004 1236 13000.5 1241.0Q12997 1246 12993.5 1252.5Q12990 1259 12986.5 1264.5Q12983 1270 12982 1272Q12980 1277 12975.0 1285.0Q12970 1293 12964.0 1301.0Q12958 1309 12951.5 1315.0Q12945 1321 12940 1321Q12930 1321 12923.5 1316.0Q12917 1311 12913.5 1303.0Q12910 1295 12908.5 1285.5Q12907 1276 12907 1267Q12907 1245 12911.0 1225.0Q12915 1205 12919 1183Q12922 1170 12925.5 1142.5Q12929 1115 12935.0 1087.5Q12941 1060 12952.0 1039.0Q12963 1018 12982 1018Q12983 1018 12986.0 1018.5Q12989 1019 12991 1019Q12994 1020 12997 1020Q13000 1022 13009.0 1026.5Q13018 1031 13028.5 1036.0Q13039 1041 13048.0 1045.0Q13057 1049 13059 1049Q13060 1050 13065.5 1050.5Q13071 1051 13077.5 1051.0Q13084 1051 13090.0 1051.0Q13096 1051 13098 1051Q13098 1051 13103.5 1052.5Q13109 1054 13115.5 1056.0Q13122 1058 13127.5 1059.5Q13133 1061 13134 1061Q13184 1061 13233.5 1051.5Q13283 1042 13333 1042Q13421 1042 13507.5 1051.5Q13594 1061 13681 1061H13732Q13734 1060 13742.0 1057.5Q13750 1055 13759.0 1052.5Q13768 1050 13777.0 1047.0Q13786 1044 13790 1042Q13799 1039 13805.0 1034.5Q13811 1030 13816.5 1025.0Q13822 1020 13829.0 1016.5Q13836 1013 13847 1013Q13866 1013 13877.5 1030.5Q13889 1048 13895.5 1072.0Q13902 1096 13905.5 1120.5Q13909 1145 13914 1158Q13918 1179 13926.5 1201.0Q13935 1223 13935 1247Q13935 1254 13933.5 1263.0Q13932 1272 13928.0 1279.5Q13924 1287 13917.0 1292.0Q13910 1297 13900 1297Q13890 1297 13876.0 1281.5Q13862 1266 13846.5 1246.5Q13831 1227 13816.5 1208.0Q13802 1189 13790 1183Q13788 1182 13781.5 1178.0Q13775 1174 13767.5 1170.0Q13760 1166 13753.5 1162.5Q13747 1159 13745 1158Q13726 1147 13708.5 1134.0Q13691 1121 13670 1113Q13667 1113 13659.5 1113.0Q13652 1113 13644.0 1112.5Q13636 1112 13629.5 1112.0Q13623 1112 13620 1112H13601Q13580 1112 13558.0 1115.0Q13536 1118 13525 1134Q13525 1142 13526.0 1159.0Q13527 1176 13527 1196Q13527 1216 13526.0 1233.0Q13525 1250 13525 1257Q13525 1259 13523.5 1263.5Q13522 1268 13520.0 1273.0Q13518 1278 13516.5 1282.5Q13515 1287 13514 1288V1593Q13505 1611 13503.0 1621.0Q13501 1631 13501 1648V1663Q13501 1665 13502.5 1671.5Q13504 1678 13505.5 1685.5Q13507 1693 13508.0 1699.5Q13509 1706 13509 1708V1821Q13512 1842 13519.0 1858.0Q13526 1874 13549 1876Q13553 1877 13565.5 1878.0Q13578 1879 13592.5 1880.0Q13607 1881 13620.5 1882.0Q13634 1883 13639 1883Q13646 1888 13650.5 1896.5Q13655 1905 13655 1914Q13655 1922 13651.5 1926.0Q13648 1930 13639 1937Q13590 1936 13535.5 1937.5Q13481 1939 13425.5 1940.5Q13370 1942 13316.0 1943.5Q13262 1945 13215 1945Q13207 1945 13200.5 1944.0Q13194 1943 13194 1935ZM14929 1155Q14940 1171 14961.5 1175.0Q14983 1179 14998 1179H15005Q15007 1178 15014.0 1175.5Q15021 1173 15029.0 1171.0Q15037 1169 15043.5 1167.0Q15050 1165 15052 1165Q15073 1159 15102.0 1155.5Q15131 1152 15151 1141Q15153 1139 15162.0 1133.0Q15171 1127 15182.5 1119.5Q15194 1112 15204.5 1104.5Q15215 1097 15220 1094Q15222 1093 15228.0 1086.5Q15234 1080 15235 1079Q15244 1065 15253.5 1048.0Q15263 1031 15273 1018Q15275 1014 15279 1010Q15284 1004 15289 1001Q15290 1001 15291.5 996.0Q15293 991 15294.0 984.0Q15295 977 15295.5 971.0Q15296 965 15296 963Q15305 924 15311.5 885.5Q15318 847 15318 805V750Q15310 744 15304.5 735.5Q15299 727 15294.5 718.0Q15290 709 15285.0 699.5Q15280 690 15273 681Q15269 677 15259.5 666.0Q15250 655 15239.0 643.0Q15228 631 15217.5 620.5Q15207 610 15202 605Q15188 602 15166.5 599.0Q15145 596 15128 591Q15107 584 15089.0 576.0Q15071 568 15048 568Q15031 568 15009.0 570.0Q14987 572 14976 582Q14953 600 14942.0 617.5Q14931 635 14926.5 653.5Q14922 672 14921.5 694.0Q14921 716 14920 743Q14920 747 14919.0 761.5Q14918 776 14917.0 792.5Q14916 809 14915.0 824.0Q14914 839 14914 843Q14914 855 14913.5 878.0Q14913 901 14913.0 927.0Q14913 953 14912.5 978.0Q14912 1003 14912 1018Q14912 1052 14915.0 1084.0Q14918 1116 14929 1155ZM14775 1942Q14716 1942 14658.0 1945.5Q14600 1949 14543 1949Q14509 1949 14509 1918Q14509 1907 14511.5 1896.5Q14514 1886 14526 1880Q14561 1877 14602.0 1871.5Q14643 1866 14678 1849Q14685 1845 14690.5 1833.5Q14696 1822 14699.5 1808.0Q14703 1794 14705.0 1780.5Q14707 1767 14708 1759V1726V1712Q14708 1708 14709.0 1699.5Q14710 1691 14711.5 1681.0Q14713 1671 14714.0 1662.5Q14715 1654 14715 1651Q14715 1636 14715.0 1604.5Q14715 1573 14715.5 1534.0Q14716 1495 14716.5 1451.5Q14717 1408 14717.5 1368.5Q14718 1329 14718.0 1298.0Q14718 1267 14718 1252Q14718 1225 14718.0 1186.0Q14718 1147 14717.5 1103.5Q14717 1060 14716.5 1016.5Q14716 973 14715.5 937.5Q14715 902 14715.0 878.0Q14715 854 14715 850Q14715 837 14714.5 805.5Q14714 774 14713.5 739.0Q14713 704 14711.5 673.5Q14710 643 14708 631Q14703 621 14688.0 615.0Q14673 609 14655.0 605.5Q14637 602 14619.5 600.5Q14602 599 14593 598Q14587 598 14572.0 597.0Q14557 596 14540.0 595.0Q14523 594 14508.0 593.0Q14493 592 14488 591Q14484 589 14475.5 579.5Q14467 570 14465 568V558Q14465 542 14472.0 536.5Q14479 531 14495 529Q14508 528 14540.5 526.0Q14573 524 14609.5 521.5Q14646 519 14679.0 517.0Q14712 515 14725 515Q14729 515 14737.0 514.5Q14745 514 14754.0 514.0Q14763 514 14772.0 513.5Q14781 513 14787 513Q14799 511 14807.0 509.5Q14815 508 14822 508Q14837 508 14881.0 508.0Q14925 508 14984.5 509.0Q15044 510 15111.0 511.0Q15178 512 15239 515Q15242 515 15249.0 517.0Q15256 519 15264.0 521.5Q15272 524 15279.0 526.0Q15286 528 15289 529Q15290 529 15295.5 530.5Q15301 532 15307.0 533.0Q15313 534 15318.5 535.5Q15324 537 15325 537Q15328 538 15336.5 544.5Q15345 551 15354.0 558.5Q15363 566 15370.5 573.0Q15378 580 15381 582Q15381 585 15386.5 587.0Q15392 589 15394 591Q15428 605 15449.0 620.0Q15470 635 15483.0 654.5Q15496 674 15503.0 699.5Q15510 725 15517 759Q15520 776 15526.5 798.5Q15533 821 15533 838Q15533 842 15532.0 845.5Q15531 849 15531 850Q15527 895 15517.0 939.0Q15507 983 15497 1025Q15494 1028 15491.0 1033.5Q15488 1039 15486 1041Q15485 1043 15478.5 1051.0Q15472 1059 15464.0 1068.0Q15456 1077 15449.0 1085.0Q15442 1093 15441 1094Q15441 1096 15437 1102L15433 1108Q15418 1135 15395.0 1147.0Q15372 1159 15343 1170Q15341 1173 15327.0 1175.0Q15313 1177 15311 1179Q15310 1179 15305.5 1182.0Q15301 1185 15296.0 1189.0Q15291 1193 15286.0 1196.0Q15281 1199 15280 1200Q15269 1207 15253.0 1212.5Q15237 1218 15220.0 1222.0Q15203 1226 15186.0 1228.0Q15169 1230 15157 1231H14952Q14936 1237 14928.5 1247.0Q14921 1257 14918.0 1269.5Q14915 1282 14914.5 1295.5Q14914 1309 14914 1323Q14914 1326 14913.0 1336.0Q14912 1346 14911.0 1357.5Q14910 1369 14909.0 1379.0Q14908 1389 14908 1392V1409Q14908 1420 14908.5 1426.5Q14909 1433 14914 1444Q14914 1448 14914.0 1456.5Q14914 1465 14914.5 1474.5Q14915 1484 14915.0 1492.0Q14915 1500 14915 1503Q14915 1534 14911.5 1564.0Q14908 1594 14908 1624V1627Q14908 1629 14909.0 1636.5Q14910 1644 14910 1646Q14913 1703 14917.0 1749.0Q14921 1795 14938 1842Q14939 1847 14949.0 1853.5Q14959 1860 14971.5 1866.0Q14984 1872 14996.0 1876.0Q15008 1880 15014 1880H15054Q15080 1880 15105.0 1877.5Q15130 1875 15156 1875Q15163 1875 15172.0 1880.0Q15181 1885 15188.5 1893.0Q15196 1901 15201.0 1910.0Q15206 1919 15206 1926Q15206 1936 15204.0 1943.5Q15202 1951 15189 1956H15151H15112Q15106 1956 15091.5 1955.0Q15077 1954 15061.0 1952.5Q15045 1951 15031.5 1949.5Q15018 1948 15014 1947Q15012 1947 15007.5 1946.0Q15003 1945 14998.0 1944.5Q14993 1944 14988.5 1943.0Q14984 1942 14983 1942H14976Q14953 1944 14930.0 1945.0Q14907 1946 14882 1949Q14879 1949 14870.5 1948.0Q14862 1947 14852.5 1945.5Q14843 1944 14834.5 1943.0Q14826 1942 14822 1942ZM15976 1281Q15976 1291 15976.0 1308.0Q15976 1325 15976.5 1341.5Q15977 1358 15977.5 1371.5Q15978 1385 15980 1387Q15980 1387 15980.5 1393.5Q15981 1400 15981.5 1408.5Q15982 1417 15983.0 1425.5Q15984 1434 15985 1439Q15986 1452 15989.0 1468.0Q15992 1484 16009 1492Q16012 1493 16018.0 1493.5Q16024 1494 16030.5 1494.0Q16037 1494 16043.0 1494.0Q16049 1494 16052 1494Q16104 1494 16151.5 1466.0Q16199 1438 16237 1399Q16259 1367 16263.5 1325.0Q16268 1283 16268 1245V1186Q16260 1157 16242.0 1126.5Q16224 1096 16199 1079Q16197 1079 16188.5 1076.5Q16180 1074 16178 1072Q16172 1069 16161.0 1064.5Q16150 1060 16146 1058Q16132 1056 16118.5 1054.5Q16105 1053 16092 1053Q16079 1053 16065.5 1054.5Q16052 1056 16038 1058Q16031 1059 16023.5 1064.0Q16016 1069 16010.0 1075.5Q16004 1082 16000.0 1089.5Q15996 1097 15995 1103Q15994 1110 15991.5 1123.0Q15989 1136 15986.5 1149.5Q15984 1163 15982.0 1173.5Q15980 1184 15980 1186Q15978 1187 15977.5 1198.0Q15977 1209 15976.5 1224.0Q15976 1239 15976.0 1255.0Q15976 1271 15976 1281ZM15644 1923Q15644 1907 15666.5 1900.5Q15689 1894 15717.0 1889.5Q15745 1885 15770.5 1879.0Q15796 1873 15801 1859Q15802 1850 15804.0 1828.0Q15806 1806 15809.0 1781.5Q15812 1757 15814.5 1736.0Q15817 1715 15819 1707V1696Q15819 1661 15815.5 1625.0Q15812 1589 15812 1553V1539Q15812 1536 15813.0 1523.0Q15814 1510 15815.5 1495.5Q15817 1481 15818.0 1469.0Q15819 1457 15819 1454Q15819 1453 15819.0 1436.5Q15819 1420 15819.5 1398.0Q15820 1376 15820.0 1353.0Q15820 1330 15820 1316Q15820 1308 15820.0 1289.0Q15820 1270 15819.5 1248.5Q15819 1227 15819.0 1207.5Q15819 1188 15819 1179Q15819 1154 15809.0 1135.5Q15799 1117 15787 1096Q15780 1084 15758.5 1078.5Q15737 1073 15714.5 1069.5Q15692 1066 15674.0 1060.5Q15656 1055 15656 1041Q15656 1036 15661.5 1026.5Q15667 1017 15673 1013H15734Q15738 1012 15753.0 1010.5Q15768 1009 15784.5 1007.5Q15801 1006 15815.5 1005.0Q15830 1004 15834 1004H15903Q15904 1004 15909.5 1003.0Q15915 1002 15921.5 1000.5Q15928 999 15933.5 997.5Q15939 996 15941 996H15952H15964Q15966 996 15972.5 996.5Q15979 997 15986.5 997.5Q15994 998 16000.5 998.5Q16007 999 16009 999Q16012 999 16023.0 998.5Q16034 998 16047.0 997.5Q16060 997 16072.0 996.5Q16084 996 16087 996H16123H16161Q16162 996 16168.0 997.5Q16174 999 16180.5 1000.0Q16187 1001 16192.5 1002.0Q16198 1003 16199 1003Q16201 1003 16210.0 1003.0Q16219 1003 16229.5 1003.5Q16240 1004 16249.5 1004.0Q16259 1004 16262 1004Q16271 1006 16287.5 1015.0Q16304 1024 16313 1029Q16315 1029 16322.5 1030.5Q16330 1032 16338.0 1034.0Q16346 1036 16353.0 1038.0Q16360 1040 16362 1041Q16400 1070 16419.5 1110.5Q16439 1151 16450 1196Q16452 1196 16452.0 1200.0Q16452 1204 16452 1208Q16452 1232 16449.5 1258.0Q16447 1284 16441.0 1309.5Q16435 1335 16424.5 1358.0Q16414 1381 16398 1399Q16382 1419 16360.0 1440.0Q16338 1461 16313 1468Q16308 1471 16298.5 1473.0Q16289 1475 16278.5 1479.0Q16268 1483 16260.5 1489.5Q16253 1496 16253 1506Q16253 1518 16267.0 1542.5Q16281 1567 16299.0 1593.5Q16317 1620 16335.0 1643.0Q16353 1666 16362 1676Q16363 1679 16372.0 1691.0Q16381 1703 16393.0 1717.5Q16405 1732 16417.0 1746.0Q16429 1760 16436 1767Q16441 1772 16443 1776Q16453 1783 16468.0 1795.5Q16483 1808 16497.5 1820.0Q16512 1832 16523.5 1841.0Q16535 1850 16537 1850Q16537 1851 16541.5 1854.0Q16546 1857 16552.0 1861.0Q16558 1865 16564.0 1868.5Q16570 1872 16575 1873Q16580 1876 16590.5 1881.0Q16601 1886 16611.0 1892.5Q16621 1899 16628.0 1906.5Q16635 1914 16633 1921Q16633 1926 16627.5 1930.0Q16622 1934 16614.5 1936.5Q16607 1939 16599.5 1940.5Q16592 1942 16588 1942H16291Q16282 1942 16270.5 1941.5Q16259 1941 16248.5 1938.0Q16238 1935 16230.5 1928.0Q16223 1921 16223 1907Q16223 1900 16231.0 1892.5Q16239 1885 16249.5 1878.0Q16260 1871 16270.5 1864.0Q16281 1857 16286 1850V1849V1842Q16283 1838 16279.0 1831.0Q16275 1824 16271.5 1816.5Q16268 1809 16265.0 1803.5Q16262 1798 16262 1797Q16259 1794 16249.0 1780.5Q16239 1767 16227.0 1752.0Q16215 1737 16205.0 1724.0Q16195 1711 16192 1707Q16174 1682 16157.0 1662.0Q16140 1642 16122.0 1624.0Q16104 1606 16083.5 1589.5Q16063 1573 16038 1553Q16030 1546 16023.5 1538.0Q16017 1530 16005 1530H16000Q15998 1532 15997 1534Q15995 1538 15995 1539Q15994 1550 15991.5 1578.0Q15989 1606 15986.5 1637.5Q15984 1669 15982.0 1697.5Q15980 1726 15980 1736Q15977 1736 15976.5 1743.0Q15976 1750 15976 1752Q15976 1756 15976.5 1761.5Q15977 1767 15980 1767Q15980 1772 15982.0 1784.0Q15984 1796 15986.5 1809.5Q15989 1823 15991.5 1834.5Q15994 1846 15995 1850Q15995 1853 15997.5 1859.0Q16000 1865 16003.5 1871.0Q16007 1877 16010.5 1882.0Q16014 1887 16016 1887H16087Q16087 1889 16088 1891Q16091 1896 16092 1897Q16099 1906 16100.0 1909.0Q16101 1912 16101 1921Q16101 1932 16090.5 1936.0Q16080 1940 16069 1942H16026Q15961 1942 15898.0 1945.5Q15835 1949 15768 1949H15680Q15666 1949 15655.0 1944.0Q15644 1939 15644 1923ZM16714 1916Q16714 1899 16728.0 1889.5Q16742 1880 16759 1880Q16763 1880 16769.0 1880.5Q16775 1881 16778 1881H16799Q16800 1881 16808.5 1880.5Q16817 1880 16821 1878Q16823 1876 16829.5 1874.5Q16836 1873 16838 1873H16842H16845L16871 1876Q16883 1876 16885.0 1874.0Q16887 1872 16894 1864Q16898 1859 16900.5 1853.5Q16903 1848 16908 1843V1797Q16908 1768 16905.0 1741.5Q16902 1715 16902 1686Q16902 1663 16904.0 1651.5Q16906 1640 16906 1622V1615Q16906 1611 16906.0 1602.0Q16906 1593 16905.0 1576.5Q16904 1560 16902.0 1534.0Q16900 1508 16897 1470Q16900 1456 16901.0 1445.5Q16902 1435 16902 1421V1395Q16902 1394 16901.0 1389.0Q16900 1384 16899.5 1378.0Q16899 1372 16898.0 1367.5Q16897 1363 16897 1362V1298Q16897 1291 16896.0 1267.5Q16895 1244 16893.5 1217.0Q16892 1190 16891.0 1166.5Q16890 1143 16890 1134Q16888 1123 16878.0 1112.0Q16868 1101 16859 1094Q16849 1087 16844 1087Q16841 1087 16838.0 1088.0Q16835 1089 16830 1089H16821Q16819 1087 16810.0 1083.5Q16801 1080 16799 1080Q16796 1079 16783.5 1076.5Q16771 1074 16757.0 1072.0Q16743 1070 16730.5 1068.0Q16718 1066 16715 1065Q16706 1063 16699.5 1056.5Q16693 1050 16693 1039Q16693 1031 16696.0 1019.0Q16699 1007 16707 1004Q16715 999 16731.5 996.5Q16748 994 16768.0 992.5Q16788 991 16810.0 991.0Q16832 991 16852 991Q16854 989 16859.5 989.0Q16865 989 16871 989Q16885 989 16901.0 990.0Q16917 991 16921 991Q16924 991 16936.0 990.5Q16948 990 16962.5 990.0Q16977 990 16990.0 989.5Q17003 989 17006 989Q17007 989 17018.5 987.5Q17030 986 17046.0 984.5Q17062 983 17080.0 981.5Q17098 980 17112 980H17241Q17250 984 17263.5 987.0Q17277 990 17289.5 994.0Q17302 998 17310.5 1004.5Q17319 1011 17319 1023Q17319 1037 17305.0 1047.5Q17291 1058 17272.0 1064.5Q17253 1071 17234.0 1075.0Q17215 1079 17205 1080H17136Q17134 1080 17125.0 1086.5Q17116 1093 17112 1094Q17098 1101 17089.5 1106.0Q17081 1111 17081 1119V1138Q17081 1148 17082.0 1159.5Q17083 1171 17091 1179V1224Q17091 1284 17083.0 1343.5Q17075 1403 17075 1463Q17074 1466 17073.5 1487.0Q17073 1508 17072.5 1535.5Q17072 1563 17072.0 1592.0Q17072 1621 17072 1639Q17072 1648 17072.0 1672.5Q17072 1697 17072.5 1725.0Q17073 1753 17073.5 1777.5Q17074 1802 17075 1812Q17072 1832 17082.5 1843.5Q17093 1855 17109.5 1862.0Q17126 1869 17146.5 1873.0Q17167 1877 17184.5 1881.5Q17202 1886 17214.0 1893.0Q17226 1900 17226 1913Q17226 1926 17211.5 1934.5Q17197 1943 17188 1947Q17185 1949 17177.0 1949.5Q17169 1950 17160.5 1950.5Q17152 1951 17145.0 1951.0Q17138 1951 17136 1951Q17130 1951 17121.0 1951.0Q17112 1951 17103.5 1950.5Q17095 1950 17088.5 1949.5Q17082 1949 17081 1947Q17080 1947 17076.0 1946.0Q17072 1945 17067.0 1944.5Q17062 1944 17057.0 1943.0Q17052 1942 17051 1942H17042Q17027 1942 17012.5 1950.0Q16998 1958 16984 1958Q16981 1958 16969.0 1957.0Q16957 1956 16944.5 1954.0Q16932 1952 16921.0 1950.5Q16910 1949 16908 1947H16882Q16861 1947 16842.5 1952.5Q16824 1958 16802 1958Q16793 1958 16778.0 1957.0Q16763 1956 16749.0 1952.0Q16735 1948 16724.5 1939.5Q16714 1931 16714 1916ZM17402 1935 17388 1928Q17384 1923 17381.0 1916.0Q17378 1909 17378 1902Q17378 1891 17388 1880Q17392 1879 17396 1878Q17400 1877 17404.0 1876.5Q17408 1876 17412 1875Q17423 1872 17436.0 1870.5Q17449 1869 17461.5 1866.5Q17474 1864 17486.0 1860.5Q17498 1857 17507 1850Q17528 1837 17539.0 1818.0Q17550 1799 17555.0 1778.0Q17560 1757 17561.0 1734.5Q17562 1712 17563 1691Q17564 1684 17565.5 1664.5Q17567 1645 17568.0 1623.0Q17569 1601 17570.0 1581.5Q17571 1562 17571 1554Q17587 1528 17591.5 1501.0Q17596 1474 17602 1445Q17602 1444 17605.0 1439.0Q17608 1434 17608 1432Q17608 1430 17605.0 1421.0Q17602 1412 17602 1409V1402Q17602 1400 17605.0 1390.5Q17608 1381 17608 1376Q17608 1372 17609.5 1353.0Q17611 1334 17612.0 1312.0Q17613 1290 17614.5 1271.5Q17616 1253 17616 1248Q17616 1246 17618.5 1238.5Q17621 1231 17624.0 1222.0Q17627 1213 17629.5 1205.5Q17632 1198 17632 1196Q17634 1171 17625.0 1152.5Q17616 1134 17600.5 1119.5Q17585 1105 17566.5 1093.0Q17548 1081 17532.0 1070.5Q17516 1060 17505.0 1048.5Q17494 1037 17494 1023V1011Q17495 1010 17500.5 1006.5Q17506 1003 17507 1004Q17511 1004 17518.5 1003.5Q17526 1003 17534.0 1003.0Q17542 1003 17549.0 1003.0Q17556 1003 17559 1003Q17563 1003 17571.0 1003.0Q17579 1003 17587.0 1003.0Q17595 1003 17601.0 1003.5Q17607 1004 17608 1004Q17609 1004 17619.5 1007.5Q17630 1011 17632 1011H17717Q17741 1015 17761.0 1039.5Q17781 1064 17796.0 1095.5Q17811 1127 17821.0 1159.0Q17831 1191 17836 1210Q17837 1212 17839.0 1218.0Q17841 1224 17842.5 1230.5Q17844 1237 17845.0 1242.5Q17846 1248 17846 1248Q17848 1251 17856.5 1256.5Q17865 1262 17867 1264Q17885 1304 17898.5 1344.0Q17912 1384 17928 1425Q17933 1436 17939.5 1442.5Q17946 1449 17950 1463Q17954 1465 17956.5 1473.0Q17959 1481 17961 1485Q17965 1499 17965.0 1507.0Q17965 1515 17976 1522Q17976 1523 17982.0 1526.5Q17988 1530 17992 1532Q17992 1534 17995.5 1543.5Q17999 1553 17999 1554Q18002 1561 18010.0 1578.5Q18018 1596 18027.5 1615.5Q18037 1635 18045.5 1652.0Q18054 1669 18057 1676Q18062 1682 18065.5 1683.0Q18069 1684 18073 1684Q18082 1684 18092.0 1680.0Q18102 1676 18106 1667Q18117 1645 18131.0 1620.0Q18145 1595 18156 1570Q18157 1569 18160.0 1563.5Q18163 1558 18165.5 1551.5Q18168 1545 18170.5 1539.5Q18173 1534 18173 1532Q18177 1521 18180.5 1515.0Q18184 1509 18188.0 1503.5Q18192 1498 18195.5 1492.5Q18199 1487 18203 1477Q18203 1476 18204.0 1471.5Q18205 1467 18206.5 1461.0Q18208 1455 18209.5 1450.5Q18211 1446 18211 1445Q18212 1443 18218.0 1432.0Q18224 1421 18230.5 1408.0Q18237 1395 18243.0 1384.0Q18249 1373 18251 1371Q18256 1357 18260.5 1340.5Q18265 1324 18272 1312Q18289 1278 18305.5 1244.5Q18322 1211 18339 1181Q18342 1176 18348.5 1163.0Q18355 1150 18362.5 1135.0Q18370 1120 18376.5 1106.5Q18383 1093 18386 1087Q18390 1080 18393.5 1070.0Q18397 1060 18401.0 1050.5Q18405 1041 18410.5 1033.5Q18416 1026 18426 1022Q18436 1015 18449.0 1011.0Q18462 1007 18476.5 1005.0Q18491 1003 18505.5 1001.0Q18520 999 18532 997Q18535 996 18543.5 995.0Q18552 994 18561.5 993.5Q18571 993 18580.0 992.5Q18589 992 18592 992Q18594 990 18598.0 989.5Q18602 989 18604 989Q18607 989 18611.5 989.5Q18616 990 18616 992Q18618 992 18624.0 992.5Q18630 993 18637.5 993.5Q18645 994 18651.5 995.0Q18658 996 18661 997V1003V1004Q18659 1007 18653.0 1013.5Q18647 1020 18647 1022Q18642 1024 18632.0 1029.5Q18622 1035 18611.0 1041.0Q18600 1047 18590.0 1052.0Q18580 1057 18576 1058L18571 1074V1157Q18571 1159 18567.0 1168.5Q18563 1178 18561 1181L18564 1414V1440Q18572 1503 18576.0 1570.0Q18580 1637 18580 1703Q18580 1740 18579.0 1775.5Q18578 1811 18576 1845Q18581 1849 18587.5 1853.0Q18594 1857 18599 1859Q18602 1860 18613.5 1862.5Q18625 1865 18637.5 1867.5Q18650 1870 18661.0 1872.0Q18672 1874 18675 1875Q18678 1875 18687.5 1879.0Q18697 1883 18707.5 1888.0Q18718 1893 18728.0 1898.0Q18738 1903 18744 1906Q18752 1908 18753.5 1911.5Q18755 1915 18755 1920Q18755 1929 18750.5 1931.0Q18746 1933 18737 1935Q18734 1937 18727.0 1938.0Q18720 1939 18712.5 1940.0Q18705 1941 18699.0 1941.5Q18693 1942 18691 1942H18286Q18272 1939 18272 1923Q18272 1915 18275.5 1907.0Q18279 1899 18286 1897Q18299 1892 18310 1888Q18320 1884 18329.5 1880.5Q18339 1877 18346 1875Q18358 1871 18370.5 1867.0Q18383 1863 18393.0 1856.5Q18403 1850 18409.5 1840.0Q18416 1830 18416 1814V1485Q18414 1481 18411.5 1473.0Q18409 1465 18409 1463Q18409 1460 18408.0 1449.0Q18407 1438 18406.0 1425.0Q18405 1412 18403.5 1401.0Q18402 1390 18402 1387Q18402 1384 18398.5 1374.0Q18395 1364 18395 1362Q18394 1359 18392.5 1350.5Q18391 1342 18389.5 1332.5Q18388 1323 18387.0 1314.0Q18386 1305 18386 1300Q18384 1295 18380.0 1294.0Q18376 1293 18371 1293Q18361 1293 18355.5 1301.0Q18350 1309 18347.0 1319.5Q18344 1330 18342.5 1340.5Q18341 1351 18339 1356L18336 1359Q18334 1361 18334 1361L18333 1362Q18328 1369 18317.0 1383.5Q18306 1398 18301 1402Q18301 1403 18299.0 1406.5Q18297 1410 18294.5 1414.0Q18292 1418 18289.5 1421.5Q18287 1425 18286 1425Q18278 1436 18273.5 1444.5Q18269 1453 18266.0 1461.0Q18263 1469 18259.5 1478.5Q18256 1488 18251 1501Q18231 1541 18212.0 1584.5Q18193 1628 18173 1667Q18170 1673 18164.5 1681.5Q18159 1690 18153.0 1699.0Q18147 1708 18142.0 1716.0Q18137 1724 18135 1729Q18129 1747 18124.5 1767.5Q18120 1788 18111 1805Q18111 1806 18107.5 1810.5Q18104 1815 18100.5 1820.5Q18097 1826 18093.5 1831.0Q18090 1836 18090 1836Q18090 1836 18088.5 1840.5Q18087 1845 18085.5 1850.5Q18084 1856 18082.5 1861.5Q18081 1867 18080 1868Q18072 1891 18057.0 1906.5Q18042 1922 18019 1935H18016H18013Q18010 1933 18004.5 1931.5Q17999 1930 17999 1928Q17996 1922 17992 1916Q17989 1911 17986.0 1906.0Q17983 1901 17981 1897Q17955 1840 17928.0 1783.0Q17901 1726 17874 1667Q17853 1620 17833.5 1572.0Q17814 1524 17791 1477L17788 1474Q17784 1470 17782 1470Q17772 1453 17763.0 1427.0Q17754 1401 17742.5 1374.5Q17731 1348 17715.5 1326.0Q17700 1304 17679 1295Q17677 1297 17675.0 1303.0Q17673 1309 17670.5 1316.0Q17668 1323 17666.0 1330.0Q17664 1337 17663 1340Q17654 1391 17649.0 1436.0Q17644 1481 17644 1529Q17644 1548 17644.0 1568.5Q17644 1589 17646 1610Q17646 1612 17643.0 1622.5Q17640 1633 17637 1638Q17637 1640 17636.0 1642.0Q17635 1644 17634 1646Q17633 1649 17632 1651V1700Q17632 1701 17631.0 1706.0Q17630 1711 17629.0 1717.5Q17628 1724 17626.0 1729.5Q17624 1735 17623 1736V1752Q17624 1757 17625.5 1769.0Q17627 1781 17628.0 1794.5Q17629 1808 17630.0 1820.0Q17631 1832 17632 1836Q17639 1860 17662.5 1868.5Q17686 1877 17708 1880Q17710 1881 17720.0 1882.5Q17730 1884 17742.0 1885.0Q17754 1886 17764.5 1887.5Q17775 1889 17777 1890Q17779 1890 17790.5 1901.5Q17802 1913 17808 1920V1923Q17808 1932 17796.5 1940.5Q17785 1949 17777 1949Q17772 1949 17761.0 1948.0Q17750 1947 17738.0 1946.0Q17726 1945 17715.5 1944.0Q17705 1943 17701 1942H17601H17563Q17560 1942 17551.0 1941.0Q17542 1940 17531.5 1938.5Q17521 1937 17512.5 1936.0Q17504 1935 17502 1935ZM18869 1942Q18869 1938 18863.5 1930.5Q18858 1923 18857 1918V1914V1913Q18859 1909 18866.0 1901.0Q18873 1893 18881.5 1884.5Q18890 1876 18897.5 1869.0Q18905 1862 18908 1859Q18910 1857 18921.5 1854.5Q18933 1852 18938 1852H19009Q19012 1852 19017.5 1850.5Q19023 1849 19028.5 1847.5Q19034 1846 19038.5 1844.0Q19043 1842 19043 1842Q19057 1835 19059.5 1819.5Q19062 1804 19062 1790V1774Q19062 1739 19060.5 1707.5Q19059 1676 19059 1641V1634Q19059 1631 19060.0 1623.0Q19061 1615 19062.5 1605.5Q19064 1596 19066.0 1588.0Q19068 1580 19069 1577V1141Q19069 1121 19062.0 1109.0Q19055 1097 19044.0 1090.5Q19033 1084 19018.5 1082.0Q19004 1080 18988 1080H18947Q18919 1080 18900.0 1073.0Q18881 1066 18881 1039Q18881 1030 18881.5 1023.0Q18882 1016 18886 1004Q18934 1006 18980.0 1001.0Q19026 996 19073 996H19099Q19103 997 19115.5 998.0Q19128 999 19141.5 1000.0Q19155 1001 19167.0 1002.0Q19179 1003 19184 1004H19654Q19684 1004 19697.0 1019.5Q19710 1035 19716 1058V1115V1174Q19716 1180 19714.0 1195.5Q19712 1211 19709.5 1228.5Q19707 1246 19704.5 1262.5Q19702 1279 19701 1286Q19699 1289 19694.0 1294.5Q19689 1300 19687 1300Q19687 1302 19685 1302H19684H19681Q19678 1302 19678 1300Q19661 1288 19652.0 1272.5Q19643 1257 19637.0 1240.0Q19631 1223 19626.0 1206.0Q19621 1189 19611 1174Q19609 1170 19598.5 1160.5Q19588 1151 19587 1150Q19585 1148 19578.5 1139.0Q19572 1130 19564.5 1119.5Q19557 1109 19550.5 1100.0Q19544 1091 19542 1089Q19538 1080 19533 1080Q19532 1080 19526.5 1079.0Q19521 1078 19514.5 1076.5Q19508 1075 19502.5 1074.0Q19497 1073 19497 1072Q19494 1072 19486.0 1070.0Q19478 1068 19468.5 1066.0Q19459 1064 19451.0 1061.5Q19443 1059 19441 1058H19436Q19432 1058 19425.0 1060.5Q19418 1063 19415 1063H19412Q19409 1062 19395.5 1061.0Q19382 1060 19366.0 1059.5Q19350 1059 19336.5 1058.5Q19323 1058 19320 1058H19317Q19299 1058 19287.0 1065.0Q19275 1072 19267.5 1083.0Q19260 1094 19254.5 1107.5Q19249 1121 19244 1134Q19243 1145 19240.5 1170.0Q19238 1195 19235.5 1223.0Q19233 1251 19231.0 1276.0Q19229 1301 19229 1311V1319V1324Q19229 1329 19230.0 1341.0Q19231 1353 19232.0 1366.5Q19233 1380 19234.5 1392.5Q19236 1405 19237 1409Q19244 1418 19253.5 1427.0Q19263 1436 19274 1439H19329Q19363 1439 19388.5 1438.0Q19414 1437 19450 1432Q19451 1430 19453.0 1425.0Q19455 1420 19458.0 1415.0Q19461 1410 19463.0 1406.0Q19465 1402 19466 1401Q19470 1394 19476.0 1380.5Q19482 1367 19488.0 1353.5Q19494 1340 19498.5 1330.0Q19503 1320 19504 1319Q19506 1315 19508.0 1301.5Q19510 1288 19512 1286Q19520 1277 19533.0 1274.0Q19546 1271 19559 1271Q19573 1271 19576.5 1281.5Q19580 1292 19580 1305V1330V1342Q19580 1351 19578.0 1359.5Q19576 1368 19571 1376Q19570 1385 19569.0 1406.0Q19568 1427 19567.0 1450.0Q19566 1473 19565.0 1493.5Q19564 1514 19564 1522V1548V1608Q19563 1610 19562.0 1617.0Q19561 1624 19560.5 1632.5Q19560 1641 19559.0 1649.0Q19558 1657 19557 1660Q19546 1668 19537.5 1672.0Q19529 1676 19517 1676Q19509 1676 19502.0 1669.5Q19495 1663 19489.0 1653.0Q19483 1643 19479.0 1632.5Q19475 1622 19474 1613Q19473 1610 19471.5 1599.5Q19470 1589 19469.0 1576.5Q19468 1564 19467.0 1553.0Q19466 1542 19466 1537Q19463 1533 19455.5 1529.5Q19448 1526 19441 1522Q19435 1520 19422.0 1517.0Q19409 1514 19394.5 1511.5Q19380 1509 19367.5 1507.5Q19355 1506 19351 1506Q19348 1506 19340.5 1505.5Q19333 1505 19323.5 1505.0Q19314 1505 19305.0 1504.5Q19296 1504 19291 1504Q19288 1504 19281.5 1504.5Q19275 1505 19268.5 1505.0Q19262 1505 19257.0 1505.5Q19252 1506 19251 1506L19237 1522V1556Q19237 1615 19233.0 1669.5Q19229 1724 19229 1783Q19229 1813 19234.0 1827.0Q19239 1841 19250.0 1847.0Q19261 1853 19278.0 1856.0Q19295 1859 19320 1866Q19322 1866 19327.0 1869.0Q19332 1872 19334 1875H19412H19486Q19488 1875 19495.0 1873.5Q19502 1872 19510.0 1870.5Q19518 1869 19524.5 1867.5Q19531 1866 19533 1866H19581H19600Q19602 1866 19607.0 1862.5Q19612 1859 19617.5 1854.5Q19623 1850 19627.0 1846.0Q19631 1842 19632 1842Q19639 1839 19643.5 1838.5Q19648 1838 19651.0 1837.5Q19654 1837 19657.0 1834.5Q19660 1832 19663 1826Q19674 1810 19679.0 1793.0Q19684 1776 19692 1759Q19696 1756 19702.0 1746.5Q19708 1737 19709 1734Q19710 1734 19715.0 1730.5Q19720 1727 19725.0 1722.5Q19730 1718 19734.0 1713.5Q19738 1709 19739 1707Q19740 1704 19743.5 1698.5Q19747 1693 19751.0 1686.5Q19755 1680 19758.5 1674.5Q19762 1669 19763 1667Q19763 1666 19766 1663Q19768 1662 19770 1660Q19770 1658 19771 1658H19773Q19788 1658 19791.0 1669.5Q19794 1681 19794 1693V1714Q19794 1719 19795.0 1738.0Q19796 1757 19796.5 1778.5Q19797 1800 19798.0 1819.0Q19799 1838 19799 1842V1845Q19799 1858 19794.0 1874.5Q19789 1891 19780.0 1906.0Q19771 1921 19758.5 1931.0Q19746 1941 19732 1942Q19725 1941 19706.5 1940.0Q19688 1939 19667.0 1938.0Q19646 1937 19627.0 1936.0Q19608 1935 19600 1933H19581H19564Q19559 1935 19541.0 1936.5Q19523 1938 19502.5 1939.0Q19482 1940 19463.5 1941.0Q19445 1942 19441 1942H19062Q19059 1943 19052.5 1944.0Q19046 1945 19038.5 1945.5Q19031 1946 19024.0 1946.5Q19017 1947 19014 1947Q19014 1949 19007 1949Q19000 1949 18994.0 1948.0Q18988 1947 18986 1947Q18982 1950 18970.0 1954.0Q18958 1958 18953 1958Q18948 1958 18936.5 1956.0Q18925 1954 18912.0 1951.5Q18899 1949 18887.0 1946.5Q18875 1944 18869 1942ZM20270 1281Q20270 1291 20270.0 1308.0Q20270 1325 20270.5 1341.5Q20271 1358 20271.5 1371.5Q20272 1385 20274 1387Q20274 1387 20274.5 1393.5Q20275 1400 20275.5 1408.5Q20276 1417 20277.0 1425.5Q20278 1434 20279 1439Q20280 1452 20283.0 1468.0Q20286 1484 20303 1492Q20306 1493 20312.0 1493.5Q20318 1494 20324.5 1494.0Q20331 1494 20337.0 1494.0Q20343 1494 20346 1494Q20398 1494 20445.5 1466.0Q20493 1438 20531 1399Q20553 1367 20557.5 1325.0Q20562 1283 20562 1245V1186Q20554 1157 20536.0 1126.5Q20518 1096 20493 1079Q20491 1079 20482.5 1076.5Q20474 1074 20472 1072Q20466 1069 20455.0 1064.5Q20444 1060 20440 1058Q20426 1056 20412.5 1054.5Q20399 1053 20386 1053Q20373 1053 20359.5 1054.5Q20346 1056 20332 1058Q20325 1059 20317.5 1064.0Q20310 1069 20304.0 1075.5Q20298 1082 20294.0 1089.5Q20290 1097 20289 1103Q20288 1110 20285.5 1123.0Q20283 1136 20280.5 1149.5Q20278 1163 20276.0 1173.5Q20274 1184 20274 1186Q20272 1187 20271.5 1198.0Q20271 1209 20270.5 1224.0Q20270 1239 20270.0 1255.0Q20270 1271 20270 1281ZM19938 1923Q19938 1907 19960.5 1900.5Q19983 1894 20011.0 1889.5Q20039 1885 20064.5 1879.0Q20090 1873 20095 1859Q20096 1850 20098.0 1828.0Q20100 1806 20103.0 1781.5Q20106 1757 20108.5 1736.0Q20111 1715 20113 1707V1696Q20113 1661 20109.5 1625.0Q20106 1589 20106 1553V1539Q20106 1536 20107.0 1523.0Q20108 1510 20109.5 1495.5Q20111 1481 20112.0 1469.0Q20113 1457 20113 1454Q20113 1453 20113.0 1436.5Q20113 1420 20113.5 1398.0Q20114 1376 20114.0 1353.0Q20114 1330 20114 1316Q20114 1308 20114.0 1289.0Q20114 1270 20113.5 1248.5Q20113 1227 20113.0 1207.5Q20113 1188 20113 1179Q20113 1154 20103.0 1135.5Q20093 1117 20081 1096Q20074 1084 20052.5 1078.5Q20031 1073 20008.5 1069.5Q19986 1066 19968.0 1060.5Q19950 1055 19950 1041Q19950 1036 19955.5 1026.5Q19961 1017 19967 1013H20028Q20032 1012 20047.0 1010.5Q20062 1009 20078.5 1007.5Q20095 1006 20109.5 1005.0Q20124 1004 20128 1004H20197Q20198 1004 20203.5 1003.0Q20209 1002 20215.5 1000.5Q20222 999 20227.5 997.5Q20233 996 20235 996H20246H20258Q20260 996 20266.5 996.5Q20273 997 20280.5 997.5Q20288 998 20294.5 998.5Q20301 999 20303 999Q20306 999 20317.0 998.5Q20328 998 20341.0 997.5Q20354 997 20366.0 996.5Q20378 996 20381 996H20417H20455Q20456 996 20462.0 997.5Q20468 999 20474.5 1000.0Q20481 1001 20486.5 1002.0Q20492 1003 20493 1003Q20495 1003 20504.0 1003.0Q20513 1003 20523.5 1003.5Q20534 1004 20543.5 1004.0Q20553 1004 20556 1004Q20565 1006 20581.5 1015.0Q20598 1024 20607 1029Q20609 1029 20616.5 1030.5Q20624 1032 20632.0 1034.0Q20640 1036 20647.0 1038.0Q20654 1040 20656 1041Q20694 1070 20713.5 1110.5Q20733 1151 20744 1196Q20746 1196 20746.0 1200.0Q20746 1204 20746 1208Q20746 1232 20743.5 1258.0Q20741 1284 20735.0 1309.5Q20729 1335 20718.5 1358.0Q20708 1381 20692 1399Q20676 1419 20654.0 1440.0Q20632 1461 20607 1468Q20602 1471 20592.5 1473.0Q20583 1475 20572.5 1479.0Q20562 1483 20554.5 1489.5Q20547 1496 20547 1506Q20547 1518 20561.0 1542.5Q20575 1567 20593.0 1593.5Q20611 1620 20629.0 1643.0Q20647 1666 20656 1676Q20657 1679 20666.0 1691.0Q20675 1703 20687.0 1717.5Q20699 1732 20711.0 1746.0Q20723 1760 20730 1767Q20735 1772 20737 1776Q20747 1783 20762.0 1795.5Q20777 1808 20791.5 1820.0Q20806 1832 20817.5 1841.0Q20829 1850 20831 1850Q20831 1851 20835.5 1854.0Q20840 1857 20846.0 1861.0Q20852 1865 20858.0 1868.5Q20864 1872 20869 1873Q20874 1876 20884.5 1881.0Q20895 1886 20905.0 1892.5Q20915 1899 20922.0 1906.5Q20929 1914 20927 1921Q20927 1926 20921.5 1930.0Q20916 1934 20908.5 1936.5Q20901 1939 20893.5 1940.5Q20886 1942 20882 1942H20585Q20576 1942 20564.5 1941.5Q20553 1941 20542.5 1938.0Q20532 1935 20524.5 1928.0Q20517 1921 20517 1907Q20517 1900 20525.0 1892.5Q20533 1885 20543.5 1878.0Q20554 1871 20564.5 1864.0Q20575 1857 20580 1850V1849V1842Q20577 1838 20573.0 1831.0Q20569 1824 20565.5 1816.5Q20562 1809 20559.0 1803.5Q20556 1798 20556 1797Q20553 1794 20543.0 1780.5Q20533 1767 20521.0 1752.0Q20509 1737 20499.0 1724.0Q20489 1711 20486 1707Q20468 1682 20451.0 1662.0Q20434 1642 20416.0 1624.0Q20398 1606 20377.5 1589.5Q20357 1573 20332 1553Q20324 1546 20317.5 1538.0Q20311 1530 20299 1530H20294Q20292 1532 20291 1534Q20289 1538 20289 1539Q20288 1550 20285.5 1578.0Q20283 1606 20280.5 1637.5Q20278 1669 20276.0 1697.5Q20274 1726 20274 1736Q20271 1736 20270.5 1743.0Q20270 1750 20270 1752Q20270 1756 20270.5 1761.5Q20271 1767 20274 1767Q20274 1772 20276.0 1784.0Q20278 1796 20280.5 1809.5Q20283 1823 20285.5 1834.5Q20288 1846 20289 1850Q20289 1853 20291.5 1859.0Q20294 1865 20297.5 1871.0Q20301 1877 20304.5 1882.0Q20308 1887 20310 1887H20381Q20381 1889 20382 1891Q20385 1896 20386 1897Q20393 1906 20394.0 1909.0Q20395 1912 20395 1921Q20395 1932 20384.5 1936.0Q20374 1940 20363 1942H20320Q20255 1942 20192.0 1945.5Q20129 1949 20062 1949H19974Q19960 1949 19949.0 1944.0Q19938 1939 19938 1923ZM21508 1869V1847Q21508 1846 21510.0 1839.0Q21512 1832 21515.0 1824.5Q21518 1817 21520.0 1810.5Q21522 1804 21522 1802Q21523 1798 21524.5 1782.5Q21526 1767 21528.0 1749.0Q21530 1731 21531.5 1713.5Q21533 1696 21533 1688V1504Q21533 1498 21534.5 1488.0Q21536 1478 21539.5 1468.5Q21543 1459 21548.5 1451.5Q21554 1444 21562 1444Q21580 1444 21589.5 1453.0Q21599 1462 21604.5 1474.5Q21610 1487 21612.0 1502.0Q21614 1517 21616 1529Q21631 1604 21670.5 1670.0Q21710 1736 21770 1790Q21775 1794 21783.5 1801.0Q21792 1808 21800 1815Q21810 1824 21820 1833Q21825 1836 21838.0 1840.5Q21851 1845 21866.0 1850.0Q21881 1855 21894.0 1859.0Q21907 1863 21913 1864Q21916 1864 21928.5 1864.5Q21941 1865 21955.0 1865.5Q21969 1866 21981.0 1866.5Q21993 1867 21996 1868Q21998 1868 22008.5 1869.5Q22019 1871 22020 1871H22033Q22046 1871 22057.5 1865.5Q22069 1860 22083 1857Q22097 1853 22110.0 1851.5Q22123 1850 22135 1842Q22152 1830 22168.5 1819.5Q22185 1809 22199.0 1797.0Q22213 1785 22224.5 1769.5Q22236 1754 22244 1733Q22244 1732 22245.0 1725.0Q22246 1718 22246.5 1710.5Q22247 1703 22248.0 1696.5Q22249 1690 22249 1688Q22250 1686 22253.5 1679.0Q22257 1672 22261.5 1664.5Q22266 1657 22269.5 1650.5Q22273 1644 22273 1643Q22273 1641 22274.0 1627.0Q22275 1613 22275 1605Q22275 1570 22264.0 1538.0Q22253 1506 22234.5 1478.5Q22216 1451 22190.5 1428.5Q22165 1406 22135 1390Q22133 1388 22120.0 1386.5Q22107 1385 22105 1383Q22102 1382 22090.5 1376.5Q22079 1371 22066.0 1364.5Q22053 1358 22041.5 1352.5Q22030 1347 22027 1345Q22027 1344 22020.5 1342.0Q22014 1340 22006.0 1337.5Q21998 1335 21990.5 1332.5Q21983 1330 21982 1330Q21981 1329 21974.5 1325.5Q21968 1322 21960.5 1319.0Q21953 1316 21946.5 1313.5Q21940 1311 21937 1311Q21929 1309 21918.5 1308.0Q21908 1307 21906 1307Q21850 1294 21787.5 1269.5Q21725 1245 21678 1215Q21676 1214 21671.5 1209.0Q21667 1204 21662.0 1198.5Q21657 1193 21652.5 1188.0Q21648 1183 21647 1183Q21645 1183 21638.0 1180.0Q21631 1177 21631 1176Q21629 1176 21627.0 1172.5Q21625 1169 21623 1169Q21622 1167 21617.5 1159.0Q21613 1151 21608.0 1142.0Q21603 1133 21598.5 1125.0Q21594 1117 21593 1115Q21577 1089 21559.0 1063.0Q21541 1037 21533 1008Q21525 976 21520.0 941.0Q21515 906 21515 875Q21515 852 21516.0 826.0Q21517 800 21522 779Q21524 777 21532.0 767.5Q21540 758 21540 755Q21542 752 21545.0 746.5Q21548 741 21551.5 735.0Q21555 729 21558.0 724.5Q21561 720 21562 719Q21601 650 21658.0 599.0Q21715 548 21792 525Q21794 525 21803.0 522.5Q21812 520 21815 520Q21819 518 21830.5 514.5Q21842 511 21844 511Q21845 511 21854.0 510.5Q21863 510 21874.5 509.5Q21886 509 21898.0 508.5Q21910 508 21917 508Q21921 508 21930.0 509.0Q21939 510 21949.5 510.5Q21960 511 21969.5 512.0Q21979 513 21984 513Q21991 515 22000.5 517.5Q22010 520 22012 520Q22029 521 22041.5 521.5Q22054 522 22067.0 524.5Q22080 527 22095.5 532.5Q22111 538 22135 549Q22160 561 22181.5 572.0Q22203 583 22211 587Q22213 589 22223.0 595.5Q22233 602 22233 605H22247Q22258 605 22266.0 600.0Q22274 595 22280.5 588.0Q22287 581 22293.0 572.5Q22299 564 22306 558Q22308 555 22314.5 547.0Q22321 539 22329.5 530.0Q22338 521 22345.5 513.5Q22353 506 22356 503H22365Q22376 503 22381.0 513.0Q22386 523 22387 534Q22387 535 22388.0 544.5Q22389 554 22390.0 566.0Q22391 578 22392.0 590.5Q22393 603 22394 610V617V619Q22391 640 22388.0 678.0Q22385 716 22381.5 754.0Q22378 792 22375.5 821.5Q22373 851 22372 856Q22369 882 22357.5 903.5Q22346 925 22316 925Q22310 925 22297.5 924.0Q22285 923 22280 916Q22268 901 22260.5 884.0Q22253 867 22246.0 850.5Q22239 834 22231.0 817.0Q22223 800 22211 785Q22197 768 22182.5 749.0Q22168 730 22152.0 711.5Q22136 693 22119.0 676.0Q22102 659 22083 646Q22081 646 22076.5 644.5Q22072 643 22067.0 641.0Q22062 639 22057.5 637.0Q22053 635 22052 634Q22050 633 22045.0 628.5Q22040 624 22033.5 618.5Q22027 613 22021.0 609.0Q22015 605 22012 605Q22012 604 22007.0 602.5Q22002 601 21995.0 600.0Q21988 599 21980.5 598.0Q21973 597 21969 596Q21964 595 21953.5 594.0Q21943 593 21932.0 591.5Q21921 590 21911.5 589.0Q21902 588 21898 587H21887Q21828 587 21788.5 610.5Q21749 634 21718 679Q21705 697 21695.0 708.5Q21685 720 21678.5 730.5Q21672 741 21669.0 754.5Q21666 768 21666 790Q21666 795 21666.0 800.5Q21666 806 21667 811Q21668 817 21669 823Q21670 828 21676.0 841.0Q21682 854 21690.0 868.5Q21698 883 21705.5 896.5Q21713 910 21718 916Q21718 918 21723.5 924.0Q21729 930 21736.0 937.5Q21743 945 21749.5 951.5Q21756 958 21759 961Q21799 997 21846.5 1019.5Q21894 1042 21943.5 1057.5Q21993 1073 22043.5 1085.5Q22094 1098 22142 1115Q22150 1128 22164.0 1129.5Q22178 1131 22192 1138Q22200 1144 22213.0 1151.0Q22226 1158 22239.5 1166.0Q22253 1174 22266.5 1182.5Q22280 1191 22289 1200Q22292 1202 22297.0 1207.0Q22302 1212 22308.0 1217.5Q22314 1223 22319.0 1228.0Q22324 1233 22327 1236Q22327 1239 22334.0 1248.0Q22341 1257 22342 1259Q22365 1285 22389.5 1309.5Q22414 1334 22427 1368Q22429 1376 22432.5 1387.0Q22436 1398 22440 1409Q22444 1421 22450 1435Q22454 1456 22455.0 1475.5Q22456 1495 22456 1515Q22456 1541 22454.0 1566.5Q22452 1592 22450 1618Q22441 1640 22433.0 1659.0Q22425 1678 22417.0 1696.0Q22409 1714 22400.0 1732.5Q22391 1751 22380 1771Q22378 1772 22372.5 1775.5Q22367 1779 22365 1781Q22349 1795 22337.0 1807.0Q22325 1819 22313.5 1831.0Q22302 1843 22288.5 1855.0Q22275 1867 22256 1880Q22224 1902 22185.0 1916.5Q22146 1931 22105 1942Q22085 1946 22073.5 1946.0Q22062 1946 22045 1954Q22040 1954 22028.5 1954.5Q22017 1955 22005.0 1955.0Q21993 1955 21983.0 1955.5Q21973 1956 21969 1956Q21921 1956 21874.5 1954.5Q21828 1953 21783 1942Q21764 1935 21742.5 1929.5Q21721 1924 21699 1916Q21696 1915 21693 1913Q21687 1911 21685 1909Q21684 1909 21679.0 1908.0Q21674 1907 21668.0 1906.5Q21662 1906 21656.0 1905.0Q21650 1904 21647 1904H21643H21636Q21632 1906 21620.0 1912.0Q21608 1918 21593.5 1925.5Q21579 1933 21565.5 1939.0Q21552 1945 21546 1947Q21542 1950 21533.0 1952.0Q21524 1954 21522 1954Q21518 1954 21515.5 1943.0Q21513 1932 21511.5 1917.5Q21510 1903 21509.0 1889.0Q21508 1875 21508 1869ZM22659 1144Q22661 1142 22664.0 1125.5Q22667 1109 22671 1074Q22672 1054 22675.0 1035.5Q22678 1017 22683 1001Q22684 1000 22687.0 992.0Q22690 984 22693.5 974.5Q22697 965 22700.0 957.0Q22703 949 22704 947Q22705 943 22708.5 930.5Q22712 918 22716.0 904.0Q22720 890 22723.5 877.5Q22727 865 22728 862Q22734 839 22750.0 818.5Q22766 798 22780 778L22795 759Q22837 701 22890.5 654.0Q22944 607 23006.0 575.0Q23068 543 23137.0 525.5Q23206 508 23278 508Q23332 508 23380.0 513.0Q23428 518 23473.5 527.5Q23519 537 23564.0 551.0Q23609 565 23659 584H23671Q23686 584 23696.0 572.5Q23706 561 23712 548Q23720 534 23731.5 521.0Q23743 508 23766 508Q23779 508 23788.0 515.0Q23797 522 23802.5 533.0Q23808 544 23811.0 556.5Q23814 569 23814 580Q23813 582 23813 584Q23812 586 23812.0 588.5Q23812 591 23811 593Q23809 596 23807 601Q23807 604 23805.5 611.5Q23804 619 23804 627Q23802 641 23800.5 655.0Q23799 669 23797 677V698Q23806 755 23810.0 814.0Q23814 873 23814 930V973Q23809 980 23800.0 986.0Q23791 992 23783 992Q23771 992 23761.0 982.5Q23751 973 23743.5 959.0Q23736 945 23730.5 929.0Q23725 913 23721 899Q23717 888 23714.5 880.5Q23712 873 23710 868Q23709 866 23704.5 859.0Q23700 852 23694.5 844.0Q23689 836 23685.0 829.5Q23681 823 23681 821Q23678 818 23670.0 805.0Q23662 792 23653.0 777.5Q23644 763 23636.0 750.0Q23628 737 23627 733Q23621 729 23620.0 728.0Q23619 727 23619 722Q23602 715 23591 703Q23548 672 23505.5 644.0Q23463 616 23411 605H23380Q23378 605 23374.5 604.0Q23371 603 23366 601Q23364 601 23362.5 600.5Q23361 600 23357.5 599.5Q23354 599 23348.0 598.5Q23342 598 23330 596Q23293 596 23260.0 602.5Q23227 609 23193 620Q23190 621 23186 622Q23183 623 23180.5 624.0Q23178 625 23176 625Q23169 627 23167.5 627.0Q23166 627 23162 627Q23158 629 23155.5 630.0Q23153 631 23140 636Q23135 638 23125.0 647.5Q23115 657 23093 677Q23088 682 23081.5 687.5Q23075 693 23072 695Q23067 700 23061.0 705.0Q23055 710 23053 712Q23051 714 23043.5 722.0Q23036 730 23036 731Q23034 734 23030.0 743.0Q23026 752 23021.0 762.0Q23016 772 23011.5 780.0Q23007 788 23005 790Q23003 792 23000.5 797.0Q22998 802 22994 807Q22989 815 22982.0 824.5Q22975 834 22968.5 843.0Q22962 852 22957.5 858.5Q22953 865 22953 866Q22952 867 22951.0 871.5Q22950 876 22949.0 881.5Q22948 887 22947.0 892.5Q22946 898 22946 899Q22944 901 22939.5 911.0Q22935 921 22929.5 933.0Q22924 945 22919.5 955.0Q22915 965 22915 968Q22912 973 22911 979L22909 987Q22907 996 22903.5 1014.5Q22900 1033 22897.0 1052.5Q22894 1072 22892.0 1088.0Q22890 1104 22890 1108V1259Q22892 1261 22895.5 1275.5Q22899 1290 22899 1304Q22899 1300 22890 1349Q22897 1364 22898.5 1382.5Q22900 1401 22903 1420Q22905 1435 22907.5 1453.5Q22910 1472 22915 1492Q22919 1508 22932.0 1530.0Q22945 1552 22958 1572Q22962 1578 22968.5 1587.0Q22975 1596 22986 1618Q22996 1638 23006.5 1657.5Q23017 1677 23034 1686Q23038 1688 23039.0 1688.5Q23040 1689 23044 1691Q23049 1694 23059.5 1702.0Q23070 1710 23093 1733Q23106 1747 23119.5 1759.5Q23133 1772 23140 1776Q23141 1776 23142.0 1778.0Q23143 1780 23150 1783Q23150 1784 23155 1786Q23160 1788 23167.0 1790.5Q23174 1793 23183 1798Q23195 1803 23207.5 1808.5Q23220 1814 23232.0 1819.0Q23244 1824 23253.5 1827.5Q23263 1831 23268 1831H23330Q23334 1833 23336.0 1833.5Q23338 1834 23349 1838H23375Q23412 1838 23449.5 1823.0Q23487 1808 23522.0 1784.5Q23557 1761 23587.5 1732.5Q23618 1704 23640 1677Q23654 1660 23660.5 1648.0Q23667 1636 23674 1622L23688 1593Q23692 1582 23696.5 1571.5Q23701 1561 23705 1549Q23714 1523 23725.0 1497.0Q23736 1471 23750 1445Q23754 1439 23774 1439Q23791 1439 23797.0 1446.0Q23803 1453 23813 1470V1513Q23813 1560 23807 1606Q23805 1630 23803.5 1652.0Q23802 1674 23802 1703Q23802 1708 23803.0 1727.5Q23804 1747 23806.0 1768.5Q23808 1790 23809.5 1808.5Q23811 1827 23813 1831V1843Q23813 1850 23809.5 1860.0Q23806 1870 23800.5 1879.5Q23795 1889 23788.0 1895.5Q23781 1902 23774 1902Q23760 1902 23754.5 1893.0Q23749 1884 23747 1873Q23745 1871 23745.0 1869.0Q23745 1867 23743 1864Q23743 1861 23738.5 1852.0Q23734 1843 23728.5 1832.5Q23723 1822 23718.0 1813.5Q23713 1805 23712 1802Q23706 1798 23698 1798Q23678 1798 23661.5 1810.5Q23645 1823 23631 1836Q23622 1846 23613.5 1854.5Q23605 1863 23598 1866Q23595 1866 23591 1868Q23587 1869 23582.5 1870.0Q23578 1871 23576 1871Q23569 1879 23559.5 1882.5Q23550 1886 23539 1890Q23528 1894 23514.0 1897.5Q23500 1901 23484 1906Q23459 1912 23435.0 1920.5Q23411 1929 23390 1942Q23363 1944 23335.0 1945.5Q23307 1947 23278 1947Q23255 1947 23230.5 1945.5Q23206 1944 23181 1942Q23179 1941 23173.0 1939.0Q23167 1937 23160.0 1934.5Q23153 1932 23147.0 1930.5Q23141 1929 23138 1928Q23140 1928 23131.5 1926.5Q23123 1925 23114 1925Q23104 1922 23098.0 1921.0Q23092 1920 23089 1918Q23080 1913 23078.5 1912.0Q23077 1911 23076 1911Q23066 1905 23051 1902Q23026 1893 23001.5 1882.5Q22977 1872 22954 1859Q22919 1837 22889.0 1807.5Q22859 1778 22833 1747Q22830 1743 22819.0 1729.0Q22808 1715 22795.0 1699.5Q22782 1684 22771.0 1670.0Q22760 1656 22757 1653Q22756 1650 22751.0 1640.5Q22746 1631 22739.5 1619.0Q22733 1607 22727.5 1595.5Q22722 1584 22719 1579Q22717 1575 22714.0 1567.5Q22711 1560 22709 1551Q22705 1540 22701.5 1530.5Q22698 1521 22697 1516Q22693 1502 22686.5 1477.0Q22680 1452 22674.0 1428.0Q22668 1404 22664.0 1385.5Q22660 1367 22660 1366Q22658 1339 22655.5 1309.5Q22653 1280 22653 1248Q22653 1200 22659 1144Z" fill="currentColor" /></svg>