<svg viewBox="0 0 23121 2398" xmlns="http://www.w3.org/2000/svg"><path d="M283 1723V596Q283 554 268.0 532.5Q253 511 230.5 501.5Q208 492 182.0 491.0Q156 490 133.5 488.5Q111 487 96.0 481.0Q81 475 81 456Q81 443 93.5 439.5Q106 436 117 436H173Q198 436 218.5 437.5Q239 439 257.5 441.0Q276 443 295.5 444.5Q315 446 339 446Q388 446 425.0 443.5Q462 441 496.0 438.0Q530 435 564.0 432.5Q598 430 640 430H707Q721 430 730.0 435.5Q739 441 744 442Q748 453 749.0 454.0Q750 455 750 463Q750 474 732.5 481.0Q715 488 692.5 492.5Q670 497 647.0 499.5Q624 502 614 505Q598 508 580.0 510.5Q562 513 547.0 518.5Q532 524 522.0 534.5Q512 545 512 564V1752Q512 1773 527.5 1784.5Q543 1796 566.0 1801.5Q589 1807 616.5 1809.0Q644 1811 667.0 1814.0Q690 1817 705.5 1823.5Q721 1830 721 1844Q721 1855 715.0 1858.0Q709 1861 704 1863Q690 1867 670.0 1870.0Q650 1873 635 1873Q599 1873 569.0 1871.0Q539 1869 511.0 1867.0Q483 1865 455.0 1863.0Q427 1861 394 1861Q378 1861 349.5 1862.0Q321 1863 288.5 1864.5Q256 1866 224.0 1867.0Q192 1868 169 1868H90Q85 1868 76.0 1863.0Q67 1858 67 1847Q67 1827 84 1823Q106 1817 123.5 1813.5Q141 1810 160.0 1806.5Q179 1803 202.0 1799.0Q225 1795 259 1788Q276 1783 279.5 1766.0Q283 1749 283 1723ZM1104 1859Q1050 1859 1001.0 1863.5Q952 1868 893 1868H853Q844 1868 840.0 1856.5Q836 1845 836 1839Q836 1829 838.5 1821.5Q841 1814 848 1813Q859 1810 874.0 1808.0Q889 1806 905.0 1804.5Q921 1803 935.5 1802.5Q950 1802 961 1802Q985 1802 1007.5 1791.0Q1030 1780 1044 1764Q1054 1751 1061.0 1738.5Q1068 1726 1073.5 1704.0Q1079 1682 1082.5 1647.0Q1086 1612 1090 1555L1137 697Q1137 666 1130.0 634.5Q1123 603 1107.5 575.5Q1092 548 1067.0 528.0Q1042 508 1006 500Q1003 499 990.0 497.5Q977 496 962.0 494.0Q947 492 934.0 490.5Q921 489 917 489Q897 485 885.5 481.0Q874 477 874 456Q874 447 875.0 438.5Q876 430 883 430H924Q950 430 972.5 432.0Q995 434 1018.0 437.0Q1041 440 1066.5 442.0Q1092 444 1123 444H1218Q1235 444 1249.5 441.5Q1264 439 1288 439Q1306 439 1326.0 443.5Q1346 448 1355 462Q1372 482 1384.0 506.5Q1396 531 1405 558L1741 1442Q1745 1452 1749.0 1458.5Q1753 1465 1758 1465Q1765 1465 1769.0 1457.0Q1773 1449 1775 1442L2153 451Q2159 440 2170.5 437.0Q2182 434 2196 434Q2246 434 2292.5 432.0Q2339 430 2385.5 427.0Q2432 424 2479.5 422.0Q2527 420 2580 420Q2583 420 2588.5 420.0Q2594 420 2599.5 421.5Q2605 423 2609.0 426.0Q2613 429 2613 434Q2613 448 2601.0 462.5Q2589 477 2571 477Q2521 477 2488.0 489.0Q2455 501 2421 538Q2406 553 2397.0 572.0Q2388 591 2382.5 612.5Q2377 634 2375.5 656.5Q2374 679 2374 700L2390 1768Q2397 1789 2424.0 1797.0Q2451 1805 2484.0 1807.5Q2517 1810 2548.5 1811.5Q2580 1813 2597 1821Q2609 1826 2611.0 1833.5Q2613 1841 2613 1847Q2613 1863 2596.5 1866.5Q2580 1870 2552 1870Q2520 1870 2492.0 1869.0Q2464 1868 2436.5 1867.5Q2409 1867 2379.0 1866.0Q2349 1865 2312 1865H2159Q2130 1865 2103.0 1865.5Q2076 1866 2049 1868Q2017 1871 1985 1871Q1977 1871 1968.5 1870.5Q1960 1870 1952.5 1867.0Q1945 1864 1940.5 1857.5Q1936 1851 1936 1840Q1936 1820 1961.0 1813.5Q1986 1807 2021 1807H2063Q2084 1807 2102.5 1806.0Q2121 1805 2135.0 1800.0Q2149 1795 2157.5 1785.5Q2166 1776 2166 1759L2153 697Q2153 692 2151.0 683.0Q2149 674 2144 674Q2137 674 2133.5 676.5Q2130 679 2128 681L1680 1847Q1676 1863 1668 1863Q1660 1863 1654 1847L1208 671Q1205 659 1196 659Q1192 659 1189.5 661.0Q1187 663 1187 671L1161 1626Q1161 1638 1162.5 1657.5Q1164 1677 1167.5 1698.0Q1171 1719 1176.5 1739.0Q1182 1759 1191 1773Q1204 1794 1230.5 1803.5Q1257 1813 1287.5 1816.5Q1318 1820 1348.5 1821.0Q1379 1822 1400 1825Q1412 1826 1416.5 1834.0Q1421 1842 1421 1851Q1421 1857 1414.5 1861.0Q1408 1865 1398.5 1867.5Q1389 1870 1377.0 1870.5Q1365 1871 1355 1871Q1318 1871 1286.0 1869.0Q1254 1867 1224.0 1865.0Q1194 1863 1165.0 1861.0Q1136 1859 1104 1859ZM3396 1785V520Q3396 509 3381.5 501.0Q3367 493 3344.0 487.5Q3321 482 3293.5 478.5Q3266 475 3240.0 472.5Q3214 470 3192.0 468.0Q3170 466 3160 463Q3147 462 3147 448Q3147 441 3156.5 438.5Q3166 436 3173 436H3470Q3498 436 3541.0 433.0Q3584 430 3633.0 427.0Q3682 424 3733.0 421.0Q3784 418 3828 418H4088Q4089 417 4100 417H4121Q4136 417 4140.5 431.5Q4145 446 4145 458Q4149 510 4154.0 564.5Q4159 619 4159 671Q4159 682 4152.5 689.5Q4146 697 4134 697Q4126 697 4118.0 693.5Q4110 690 4103 674Q4095 657 4085.0 636.0Q4075 615 4063.0 595.0Q4051 575 4038.0 558.5Q4025 542 4013 534Q3980 511 3945.0 498.0Q3910 485 3872.5 479.0Q3835 473 3796.0 471.5Q3757 470 3716 470H3647Q3622 470 3605.5 477.5Q3589 485 3589 515V1077Q3589 1088 3598.0 1093.0Q3607 1098 3612 1100Q3633 1097 3657.0 1096.0Q3681 1095 3704 1095Q3740 1095 3776.5 1094.0Q3813 1093 3845.0 1088.5Q3877 1084 3902.5 1075.0Q3928 1066 3941 1050Q3945 1044 3949.5 1031.0Q3954 1018 3958.0 1003.0Q3962 988 3965.5 975.0Q3969 962 3972 956Q3977 941 3978.0 923.5Q3979 906 3981.0 891.0Q3983 876 3990.0 866.0Q3997 856 4015 856Q4037 856 4041.5 873.0Q4046 890 4046 908V1292Q4046 1297 4046.0 1302.5Q4046 1308 4048 1314Q4050 1330 4050.5 1342.5Q4051 1355 4051 1359Q4051 1370 4045.5 1379.0Q4040 1388 4029 1391Q4016 1391 4008 1371Q3998 1345 3995.0 1315.5Q3992 1286 3985.0 1258.5Q3978 1231 3963.5 1207.5Q3949 1184 3916 1169Q3904 1163 3886.0 1159.0Q3868 1155 3848.5 1152.5Q3829 1150 3810.0 1148.5Q3791 1147 3778 1147Q3773 1147 3748.5 1146.0Q3724 1145 3697 1145Q3668 1145 3644.0 1146.5Q3620 1148 3615 1152Q3606 1160 3603.0 1166.0Q3600 1172 3600 1188V1782Q3601 1796 3618.5 1802.5Q3636 1809 3661.5 1812.0Q3687 1815 3716.0 1816.0Q3745 1817 3770.0 1819.5Q3795 1822 3811.5 1829.0Q3828 1836 3828 1851Q3828 1859 3822.5 1863.0Q3817 1867 3809.0 1868.5Q3801 1870 3792.5 1870.5Q3784 1871 3778 1871Q3725 1871 3683.0 1870.0Q3641 1869 3603.0 1867.5Q3565 1866 3529.0 1864.5Q3493 1863 3453 1863Q3430 1863 3407.0 1864.5Q3384 1866 3359 1868Q3312 1871 3264 1871H3214Q3209 1871 3203.0 1869.5Q3197 1868 3197 1859Q3197 1849 3203.0 1845.0Q3209 1841 3226 1837Q3254 1831 3284.0 1828.5Q3314 1826 3339.0 1822.5Q3364 1819 3380.0 1811.0Q3396 1803 3396 1785ZM4628 1368 4799 1361Q4839 1358 4860.0 1341.5Q4881 1325 4891.5 1301.5Q4902 1278 4907.5 1250.0Q4913 1222 4924 1195Q4927 1183 4934 1183Q4948 1183 4948 1190V1230Q4948 1270 4944.5 1316.5Q4941 1363 4941 1396Q4941 1428 4946.5 1464.0Q4952 1500 4952 1538Q4952 1543 4951.0 1554.0Q4950 1565 4948.0 1577.0Q4946 1589 4942.5 1598.0Q4939 1607 4933 1607Q4922 1607 4919.5 1596.5Q4917 1586 4915 1577Q4913 1565 4908.0 1548.0Q4903 1531 4897.0 1513.5Q4891 1496 4886.0 1482.0Q4881 1468 4879 1463Q4870 1445 4844.0 1434.5Q4818 1424 4785.5 1418.5Q4753 1413 4718.5 1411.5Q4684 1410 4658 1410H4628Q4612 1410 4608.0 1416.5Q4604 1423 4604 1437V1788Q4604 1818 4623 1826H4927Q4947 1826 4968.5 1825.5Q4990 1825 4997 1821Q5012 1817 5022.5 1803.5Q5033 1790 5040 1778Q5043 1773 5051.5 1757.0Q5060 1741 5069.5 1722.5Q5079 1704 5087.5 1688.0Q5096 1672 5100 1667Q5106 1655 5120 1655Q5129 1655 5133 1662V1811Q5133 1820 5131.5 1827.5Q5130 1835 5128 1846Q5124 1860 5118.0 1864.5Q5112 1869 5095 1873Q4994 1873 4903.5 1872.0Q4813 1871 4720.0 1870.5Q4627 1870 4524.0 1869.0Q4421 1868 4294 1868Q4277 1868 4277 1851Q4277 1840 4288.0 1834.0Q4299 1828 4308 1826Q4314 1826 4327.5 1825.0Q4341 1824 4357.0 1823.5Q4373 1823 4388.0 1822.0Q4403 1821 4414 1821Q4438 1821 4438 1783V1045Q4438 1028 4434.5 1003.0Q4431 978 4421 961Q4414 956 4414 956L4274 942Q4255 942 4255 923Q4255 918 4257.0 910.5Q4259 903 4270 903H4434Q4530 903 4623.0 902.0Q4716 901 4794 901H4936Q4952 901 4969.5 901.5Q4987 902 5003.0 902.5Q5019 903 5032.0 903.5Q5045 904 5052 904Q5059 905 5063.0 911.0Q5067 917 5068.5 925.5Q5070 934 5070.5 942.5Q5071 951 5071 956V1119Q5071 1128 5064 1128Q5053 1128 5047.5 1113.5Q5042 1099 5031 1079Q5022 1057 5009.0 1035.0Q4996 1013 4990 1001Q4981 984 4962.5 974.5Q4944 965 4921.0 959.5Q4898 954 4874.0 951.0Q4850 948 4832 944Q4826 944 4801.0 943.0Q4776 942 4744.5 941.5Q4713 941 4682.5 940.0Q4652 939 4635 939Q4614 939 4609.0 951.0Q4604 963 4604 987V1344Q4604 1353 4610.5 1360.5Q4617 1368 4628 1368ZM5275 1849Q5275 1826 5295 1823H5333Q5351 1823 5366.0 1822.5Q5381 1822 5392.0 1819.0Q5403 1816 5409.5 1809.0Q5416 1802 5416 1790V984Q5416 973 5407.0 965.5Q5398 958 5387 958H5316H5297Q5292 958 5285.0 957.0Q5278 956 5269 955Q5264 953 5260.5 947.0Q5257 941 5257 936Q5257 917 5281 917H5527Q5530 917 5542.5 916.0Q5555 915 5569.0 914.0Q5583 913 5594.0 912.0Q5605 911 5607 911Q5621 910 5638.5 909.0Q5656 908 5667 908Q5670 908 5678.0 908.5Q5686 909 5695.0 909.5Q5704 910 5712.5 910.5Q5721 911 5724 911Q5738 914 5738 927Q5738 938 5731 949Q5725 956 5712 956H5602Q5595 956 5591.0 963.5Q5587 971 5584.5 981.5Q5582 992 5581.5 1003.0Q5581 1014 5581 1022Q5581 1074 5586.0 1125.5Q5591 1177 5591 1243V1795Q5591 1802 5594.5 1811.5Q5598 1821 5607 1821H5927Q5954 1821 5978.0 1797.0Q6002 1773 6022.5 1741.0Q6043 1709 6058.5 1677.5Q6074 1646 6084 1631Q6090 1624 6096 1624Q6101 1624 6105 1633Q6109 1647 6109.5 1657.5Q6110 1668 6110 1688Q6110 1696 6107.5 1711.5Q6105 1727 6101.5 1744.0Q6098 1761 6095.5 1776.5Q6093 1792 6093 1801Q6093 1806 6093.0 1814.5Q6093 1823 6092.5 1832.0Q6092 1841 6091.0 1848.5Q6090 1856 6088 1859Q6074 1868 6063 1868Q5938 1868 5796.0 1865.5Q5654 1863 5513 1863Q5488 1863 5461.0 1864.0Q5434 1865 5409.0 1866.5Q5384 1868 5361.5 1869.0Q5339 1870 5323 1870Q5302 1870 5288.5 1867.5Q5275 1865 5275 1849ZM6212 1849Q6212 1826 6232 1823H6270Q6288 1823 6303.0 1822.5Q6318 1822 6329.0 1819.0Q6340 1816 6346.5 1809.0Q6353 1802 6353 1790V984Q6353 973 6344.0 965.5Q6335 958 6324 958H6253H6234Q6229 958 6222.0 957.0Q6215 956 6206 955Q6201 953 6197.5 947.0Q6194 941 6194 936Q6194 917 6218 917H6464Q6467 917 6479.5 916.0Q6492 915 6506.0 914.0Q6520 913 6531.0 912.0Q6542 911 6544 911Q6558 910 6575.5 909.0Q6593 908 6604 908Q6607 908 6615.0 908.5Q6623 909 6632.0 909.5Q6641 910 6649.5 910.5Q6658 911 6661 911Q6675 914 6675 927Q6675 938 6668 949Q6662 956 6649 956H6539Q6532 956 6528.0 963.5Q6524 971 6521.5 981.5Q6519 992 6518.5 1003.0Q6518 1014 6518 1022Q6518 1074 6523.0 1125.5Q6528 1177 6528 1243V1795Q6528 1802 6531.5 1811.5Q6535 1821 6544 1821H6864Q6891 1821 6915.0 1797.0Q6939 1773 6959.5 1741.0Q6980 1709 6995.5 1677.5Q7011 1646 7021 1631Q7027 1624 7033 1624Q7038 1624 7042 1633Q7046 1647 7046.5 1657.5Q7047 1668 7047 1688Q7047 1696 7044.5 1711.5Q7042 1727 7038.5 1744.0Q7035 1761 7032.5 1776.5Q7030 1792 7030 1801Q7030 1806 7030.0 1814.5Q7030 1823 7029.5 1832.0Q7029 1841 7028.0 1848.5Q7027 1856 7025 1859Q7011 1868 7000 1868Q6875 1868 6733.0 1865.5Q6591 1863 6450 1863Q6425 1863 6398.0 1864.0Q6371 1865 6346.0 1866.5Q6321 1868 6298.5 1869.0Q6276 1870 6260 1870Q6239 1870 6225.5 1867.5Q6212 1865 6212 1849ZM7799 1785V520Q7799 509 7784.5 501.0Q7770 493 7747.0 487.5Q7724 482 7696.5 478.5Q7669 475 7643.0 472.5Q7617 470 7595.0 468.0Q7573 466 7563 463Q7550 462 7550 448Q7550 441 7559.5 438.5Q7569 436 7576 436H7873Q7901 436 7944.0 433.0Q7987 430 8036.0 427.0Q8085 424 8136.0 421.0Q8187 418 8231 418H8491Q8492 417 8503 417H8524Q8539 417 8543.5 431.5Q8548 446 8548 458Q8552 510 8557.0 564.5Q8562 619 8562 671Q8562 682 8555.5 689.5Q8549 697 8537 697Q8529 697 8521.0 693.5Q8513 690 8506 674Q8498 657 8488.0 636.0Q8478 615 8466.0 595.0Q8454 575 8441.0 558.5Q8428 542 8416 534Q8383 511 8348.0 498.0Q8313 485 8275.5 479.0Q8238 473 8199.0 471.5Q8160 470 8119 470H8050Q8025 470 8008.5 477.5Q7992 485 7992 515V1077Q7992 1088 8001.0 1093.0Q8010 1098 8015 1100Q8036 1097 8060.0 1096.0Q8084 1095 8107 1095Q8143 1095 8179.5 1094.0Q8216 1093 8248.0 1088.5Q8280 1084 8305.5 1075.0Q8331 1066 8344 1050Q8348 1044 8352.5 1031.0Q8357 1018 8361.0 1003.0Q8365 988 8368.5 975.0Q8372 962 8375 956Q8380 941 8381.0 923.5Q8382 906 8384.0 891.0Q8386 876 8393.0 866.0Q8400 856 8418 856Q8440 856 8444.5 873.0Q8449 890 8449 908V1292Q8449 1297 8449.0 1302.5Q8449 1308 8451 1314Q8453 1330 8453.5 1342.5Q8454 1355 8454 1359Q8454 1370 8448.5 1379.0Q8443 1388 8432 1391Q8419 1391 8411 1371Q8401 1345 8398.0 1315.5Q8395 1286 8388.0 1258.5Q8381 1231 8366.5 1207.5Q8352 1184 8319 1169Q8307 1163 8289.0 1159.0Q8271 1155 8251.5 1152.5Q8232 1150 8213.0 1148.5Q8194 1147 8181 1147Q8176 1147 8151.5 1146.0Q8127 1145 8100 1145Q8071 1145 8047.0 1146.5Q8023 1148 8018 1152Q8009 1160 8006.0 1166.0Q8003 1172 8003 1188V1782Q8004 1796 8021.5 1802.5Q8039 1809 8064.5 1812.0Q8090 1815 8119.0 1816.0Q8148 1817 8173.0 1819.5Q8198 1822 8214.5 1829.0Q8231 1836 8231 1851Q8231 1859 8225.5 1863.0Q8220 1867 8212.0 1868.5Q8204 1870 8195.5 1870.5Q8187 1871 8181 1871Q8128 1871 8086.0 1870.0Q8044 1869 8006.0 1867.5Q7968 1866 7932.0 1864.5Q7896 1863 7856 1863Q7833 1863 7810.0 1864.5Q7787 1866 7762 1868Q7715 1871 7667 1871H7617Q7612 1871 7606.0 1869.5Q7600 1868 7600 1859Q7600 1849 7606.0 1845.0Q7612 1841 7629 1837Q7657 1831 7687.0 1828.5Q7717 1826 7742.0 1822.5Q7767 1819 7783.0 1811.0Q7799 1803 7799 1785ZM8977 968Q8977 972 8978.0 988.0Q8979 1004 8980.5 1022.0Q8982 1040 8983.0 1056.0Q8984 1072 8984 1076V1339Q8984 1357 8996 1363Q8998 1363 9007.0 1364.0Q9016 1365 9026.5 1365.5Q9037 1366 9047.5 1367.0Q9058 1368 9064 1368Q9098 1368 9128 1358Q9178 1346 9215.0 1330.5Q9252 1315 9276.5 1289.0Q9301 1263 9313.0 1223.0Q9325 1183 9325 1121Q9325 1039 9270 984Q9228 941 9172.0 926.0Q9116 911 9041 911Q9014 911 8995.5 925.0Q8977 939 8977 968ZM9278 1846Q9278 1830 9297 1825H9372Q9381 1823 9390.0 1822.5Q9399 1822 9403 1818Q9408 1815 9408 1811Q9408 1807 9403 1799Q9334 1706 9264.5 1613.0Q9195 1520 9123 1425Q9119 1421 9113.5 1416.0Q9108 1411 9104 1411L9003 1399H9000Q8984 1399 8984 1418V1724Q8984 1763 8993.5 1783.5Q9003 1804 9017.0 1812.5Q9031 1821 9048.5 1822.0Q9066 1823 9081 1823Q9098 1823 9110.5 1826.0Q9123 1829 9123 1849Q9123 1861 9112.0 1864.5Q9101 1868 9090 1868H8690Q8681 1868 8673.5 1863.0Q8666 1858 8666 1849Q8666 1838 8680 1830Q8690 1827 8713.5 1825.5Q8737 1824 8761.0 1822.0Q8785 1820 8803.5 1815.5Q8822 1811 8822 1801V1766Q8822 1719 8821.0 1680.0Q8820 1641 8819.5 1600.5Q8819 1560 8818.0 1514.0Q8817 1468 8817 1408V1090V963Q8815 959 8814.5 950.5Q8814 942 8810 937Q8808 935 8805.5 934.0Q8803 933 8801 932Q8798 931 8797 930H8704Q8693 930 8681.5 925.0Q8670 920 8666 911Q8665 910 8665 908Q8664 907 8664 904Q8664 898 8667.5 890.0Q8671 882 8680 882H9185Q9254 882 9314.5 896.5Q9375 911 9420.0 943.0Q9465 975 9491.0 1026.5Q9517 1078 9517 1152Q9517 1201 9510.0 1232.5Q9503 1264 9488.0 1286.0Q9473 1308 9450.0 1325.0Q9427 1342 9396 1363Q9390 1368 9378.5 1373.0Q9367 1378 9356.0 1382.5Q9345 1387 9337.0 1392.0Q9329 1397 9329 1403Q9329 1408 9343.5 1429.5Q9358 1451 9379.5 1481.0Q9401 1511 9427.5 1544.5Q9454 1578 9477.5 1608.0Q9501 1638 9518.5 1659.5Q9536 1681 9541 1686Q9568 1713 9595.5 1736.5Q9623 1760 9653.5 1779.0Q9684 1798 9718.0 1811.5Q9752 1825 9791 1830Q9799 1844 9799 1854Q9799 1863 9795.5 1865.5Q9792 1868 9778 1868H9396H9337Q9334 1868 9324.5 1867.5Q9315 1867 9304.5 1865.0Q9294 1863 9286.0 1858.5Q9278 1854 9278 1846ZM10170 1368 10341 1361Q10381 1358 10402.0 1341.5Q10423 1325 10433.5 1301.5Q10444 1278 10449.5 1250.0Q10455 1222 10466 1195Q10469 1183 10476 1183Q10490 1183 10490 1190V1230Q10490 1270 10486.5 1316.5Q10483 1363 10483 1396Q10483 1428 10488.5 1464.0Q10494 1500 10494 1538Q10494 1543 10493.0 1554.0Q10492 1565 10490.0 1577.0Q10488 1589 10484.5 1598.0Q10481 1607 10475 1607Q10464 1607 10461.5 1596.5Q10459 1586 10457 1577Q10455 1565 10450.0 1548.0Q10445 1531 10439.0 1513.5Q10433 1496 10428.0 1482.0Q10423 1468 10421 1463Q10412 1445 10386.0 1434.5Q10360 1424 10327.5 1418.5Q10295 1413 10260.5 1411.5Q10226 1410 10200 1410H10170Q10154 1410 10150.0 1416.5Q10146 1423 10146 1437V1788Q10146 1818 10165 1826H10469Q10489 1826 10510.5 1825.5Q10532 1825 10539 1821Q10554 1817 10564.5 1803.5Q10575 1790 10582 1778Q10585 1773 10593.5 1757.0Q10602 1741 10611.5 1722.5Q10621 1704 10629.5 1688.0Q10638 1672 10642 1667Q10648 1655 10662 1655Q10671 1655 10675 1662V1811Q10675 1820 10673.5 1827.5Q10672 1835 10670 1846Q10666 1860 10660.0 1864.5Q10654 1869 10637 1873Q10536 1873 10445.5 1872.0Q10355 1871 10262.0 1870.5Q10169 1870 10066.0 1869.0Q9963 1868 9836 1868Q9819 1868 9819 1851Q9819 1840 9830.0 1834.0Q9841 1828 9850 1826Q9856 1826 9869.5 1825.0Q9883 1824 9899.0 1823.5Q9915 1823 9930.0 1822.0Q9945 1821 9956 1821Q9980 1821 9980 1783V1045Q9980 1028 9976.5 1003.0Q9973 978 9963 961Q9956 956 9956 956L9816 942Q9797 942 9797 923Q9797 918 9799.0 910.5Q9801 903 9812 903H9976Q10072 903 10165.0 902.0Q10258 901 10336 901H10478Q10494 901 10511.5 901.5Q10529 902 10545.0 902.5Q10561 903 10574.0 903.5Q10587 904 10594 904Q10601 905 10605.0 911.0Q10609 917 10610.5 925.5Q10612 934 10612.5 942.5Q10613 951 10613 956V1119Q10613 1128 10606 1128Q10595 1128 10589.5 1113.5Q10584 1099 10573 1079Q10564 1057 10551.0 1035.0Q10538 1013 10532 1001Q10523 984 10504.5 974.5Q10486 965 10463.0 959.5Q10440 954 10416.0 951.0Q10392 948 10374 944Q10368 944 10343.0 943.0Q10318 942 10286.5 941.5Q10255 941 10224.5 940.0Q10194 939 10177 939Q10156 939 10151.0 951.0Q10146 963 10146 987V1344Q10146 1353 10152.5 1360.5Q10159 1368 10170 1368ZM10894 1868Q10884 1868 10872.0 1867.0Q10860 1866 10849.5 1862.5Q10839 1859 10832.0 1852.0Q10825 1845 10825 1833Q10825 1824 10826.5 1817.0Q10828 1810 10837 1806Q10869 1801 10890.5 1799.0Q10912 1797 10927.0 1790.0Q10942 1783 10951.5 1765.5Q10961 1748 10968 1712Q10968 1627 10969.5 1537.0Q10971 1447 10975 1363Q10977 1302 10985.5 1244.5Q10994 1187 10994 1126Q10994 1115 10993.0 1110.0Q10992 1105 10987 1091Q10984 1086 10975.0 1072.5Q10966 1059 10955.0 1044.5Q10944 1030 10933.5 1016.5Q10923 1003 10918 998Q10908 986 10889.0 978.5Q10870 971 10851.5 963.5Q10833 956 10819.5 946.5Q10806 937 10806 920Q10806 911 10812.5 905.5Q10819 900 10828.5 897.0Q10838 894 10847.5 893.0Q10857 892 10863 892Q10865 892 10871.0 893.0Q10877 894 10884.0 895.5Q10891 897 10897.0 898.0Q10903 899 10906 899H11012Q11017 901 11028.0 907.5Q11039 914 11043 918Q11119 1001 11192.0 1081.0Q11265 1161 11336.5 1239.0Q11408 1317 11479.5 1394.0Q11551 1471 11624 1550Q11629 1555 11633 1559Q11637 1562 11641.0 1564.5Q11645 1567 11648 1567Q11657 1567 11662.0 1558.5Q11667 1550 11667 1548V1306V1221Q11667 1186 11665.5 1150.0Q11664 1114 11661.0 1082.5Q11658 1051 11653.0 1026.0Q11648 1001 11641 989Q11627 966 11598.0 957.0Q11569 948 11540.0 943.5Q11511 939 11489.5 934.0Q11468 929 11468 915Q11468 887 11501 887H11880Q11899 887 11899 910Q11899 920 11877.0 926.5Q11855 933 11827.0 943.0Q11799 953 11772.5 969.0Q11746 985 11737 1013Q11726 1038 11722.0 1067.0Q11718 1096 11718 1147V1847Q11718 1856 11711.0 1862.0Q11704 1868 11700 1868Q11687 1868 11671 1849Q11667 1844 11645.5 1820.0Q11624 1796 11590.0 1759.0Q11556 1722 11512.0 1675.0Q11468 1628 11420.0 1576.0Q11372 1524 11322.0 1470.0Q11272 1416 11226.0 1366.0Q11180 1316 11139.5 1272.5Q11099 1229 11071 1198Q11061 1190 11053 1190Q11037 1190 11033.0 1210.0Q11029 1230 11029 1252Q11029 1262 11029.5 1281.5Q11030 1301 11031.0 1326.5Q11032 1352 11033.5 1380.5Q11035 1409 11036.0 1435.5Q11037 1462 11037.5 1484.0Q11038 1506 11038 1519V1567Q11038 1590 11038.5 1619.0Q11039 1648 11041.5 1676.0Q11044 1704 11048.5 1727.0Q11053 1750 11062 1762Q11072 1778 11088.0 1785.0Q11104 1792 11122.0 1794.5Q11140 1797 11158.5 1797.5Q11177 1798 11191.5 1801.0Q11206 1804 11215.0 1812.5Q11224 1821 11224 1839Q11224 1848 11222.5 1853.5Q11221 1859 11211 1868ZM12737 930V1150Q12737 1162 12730.5 1171.5Q12724 1181 12713 1181Q12698 1181 12686.5 1167.0Q12675 1153 12666.0 1134.5Q12657 1116 12649.5 1097.0Q12642 1078 12635 1067Q12624 1052 12614.5 1040.5Q12605 1029 12594.0 1019.5Q12583 1010 12570.0 1002.0Q12557 994 12541 986Q12517 974 12486.5 967.0Q12456 960 12415 960Q12375 960 12334.0 979.5Q12293 999 12268 1034Q12249 1060 12233.5 1094.0Q12218 1128 12206.5 1167.5Q12195 1207 12189.0 1249.5Q12183 1292 12183 1333Q12183 1345 12185.0 1375.5Q12187 1406 12192.5 1444.0Q12198 1482 12208.5 1522.0Q12219 1562 12237 1593Q12275 1668 12338.5 1716.0Q12402 1764 12486 1766Q12511 1766 12534.5 1760.0Q12558 1754 12578 1745Q12582 1743 12591.0 1737.0Q12600 1731 12610.0 1723.5Q12620 1716 12629.5 1708.0Q12639 1700 12644 1695Q12657 1680 12668.0 1662.0Q12679 1644 12686.5 1626.5Q12694 1609 12699.0 1594.5Q12704 1580 12706 1572Q12709 1560 12725 1560Q12730 1560 12733.0 1565.0Q12736 1570 12737.5 1576.5Q12739 1583 12739.5 1589.0Q12740 1595 12740 1598Q12740 1659 12713.5 1708.0Q12687 1757 12642 1792Q12599 1827 12549.0 1847.5Q12499 1868 12443 1868Q12374 1868 12316.5 1851.5Q12259 1835 12212.5 1806.5Q12166 1778 12130.5 1738.5Q12095 1699 12069 1653Q12037 1597 12018.5 1525.0Q12000 1453 12000 1385Q12000 1276 12049.0 1181.5Q12098 1087 12192 1003Q12248 956 12305.5 930.0Q12363 904 12436 904Q12465 904 12490.5 906.5Q12516 909 12542.5 915.5Q12569 922 12598.0 933.0Q12627 944 12663 960Q12664 961 12669 961Q12681 961 12687.0 954.0Q12693 947 12697.5 938.0Q12702 929 12707.0 922.0Q12712 915 12723 915Q12727 915 12732.0 920.0Q12737 925 12737 930ZM12895 1846Q12895 1826 12909.5 1820.0Q12924 1814 12944 1813Q12950 1813 12961.5 1813.5Q12973 1814 12986.0 1814.5Q12999 1815 13012.0 1815.5Q13025 1816 13034 1816Q13051 1816 13051 1790V981Q13051 974 13041.5 965.0Q13032 956 13023 956H12932Q12925 956 12913.0 947.0Q12901 938 12901 929Q12901 917 12911.0 911.5Q12921 906 12930 906Q12972 906 13022.5 906.5Q13073 907 13128.0 908.0Q13183 909 13238.5 909.5Q13294 910 13347 910Q13358 910 13363.5 917.5Q13369 925 13369 930Q13369 940 13359.0 944.5Q13349 949 13333.0 951.0Q13317 953 13298.5 953.5Q13280 954 13263.0 955.5Q13246 957 13233.0 961.5Q13220 966 13215 975V1346Q13215 1359 13234 1359H13631Q13640 1359 13651.0 1351.5Q13662 1344 13662 1333V982Q13662 964 13646 961Q13620 957 13594.0 956.5Q13568 956 13542 949Q13531 944 13522.0 936.5Q13513 929 13513 925Q13513 914 13524.0 910.0Q13535 906 13539 906Q13544 906 13554.0 907.0Q13564 908 13575.5 909.5Q13587 911 13597.0 912.0Q13607 913 13613 913H13738Q13756 913 13779.5 912.0Q13803 911 13827.5 909.5Q13852 908 13876.5 907.0Q13901 906 13920 906Q13935 906 13938.5 915.5Q13942 925 13942 941Q13942 946 13937.5 953.5Q13933 961 13928 961H13849Q13826 961 13826 975V1785Q13826 1796 13836.0 1803.5Q13846 1811 13857 1811H13945Q13950 1811 13954.0 1817.0Q13958 1823 13958 1828Q13956 1844 13947.5 1854.5Q13939 1865 13925 1865Q13900 1865 13871.0 1864.0Q13842 1863 13812 1863Q13785 1863 13760.0 1862.0Q13735 1861 13721 1861Q13693 1861 13670.5 1862.0Q13648 1863 13627.0 1864.5Q13606 1866 13584.5 1867.0Q13563 1868 13537 1868Q13526 1868 13516.0 1863.0Q13506 1858 13506 1844Q13506 1839 13513.0 1829.5Q13520 1820 13525 1820H13620Q13634 1820 13648.0 1809.0Q13662 1798 13662 1778V1470Q13662 1448 13655.0 1432.0Q13648 1416 13638 1415H13240Q13215 1415 13215 1439V1792Q13222 1808 13229.0 1812.5Q13236 1817 13252 1821Q13261 1823 13271.5 1824.0Q13282 1825 13295 1825H13319H13338Q13362 1825 13362 1849Q13362 1868 13337 1868Q13327 1868 13303.5 1867.0Q13280 1866 13248 1866Q13218 1866 13185.5 1865.5Q13153 1865 13125 1865Q13078 1865 13047.5 1865.5Q13017 1866 12987 1868Q12971 1868 12958.5 1869.5Q12946 1871 12930 1871Q12913 1871 12904.0 1868.0Q12895 1865 12895 1846ZM14563 1166V1152Q14563 1093 14574.5 1027.5Q14586 962 14607.0 897.0Q14628 832 14658.0 771.0Q14688 710 14726 659Q14768 604 14820.5 560.5Q14873 517 14933.5 486.0Q14994 455 15062.0 438.5Q15130 422 15203 422Q15264 422 15329.0 433.5Q15394 445 15449 468Q15494 489 15530.5 518.5Q15567 548 15608 577Q15612 582 15616.5 583.0Q15621 584 15625 584Q15634 584 15641 571Q15652 552 15661.0 522.5Q15670 493 15681 472Q15685 463 15690.0 461.5Q15695 460 15701 460Q15708 460 15711.5 465.0Q15715 470 15715 472Q15723 507 15724.5 542.0Q15726 577 15726 615V673Q15726 686 15726.0 699.0Q15726 712 15727 726Q15731 764 15737.0 792.0Q15743 820 15743 846Q15743 861 15738.5 877.5Q15734 894 15720 894Q15714 894 15703.5 879.0Q15693 864 15682.0 845.5Q15671 827 15660.5 809.0Q15650 791 15646 785Q15618 745 15592.5 709.0Q15567 673 15540.5 641.5Q15514 610 15484.5 583.5Q15455 557 15419 536Q15388 517 15360.0 506.5Q15332 496 15305.5 491.0Q15279 486 15253.0 485.0Q15227 484 15200 484Q15158 484 15122.5 495.5Q15087 507 15056.0 527.0Q15025 547 14998.5 573.0Q14972 599 14947 628Q14875 713 14838.5 854.5Q14802 996 14802 1193Q14802 1291 14819.5 1370.5Q14837 1450 14863.0 1511.5Q14889 1573 14920.5 1617.5Q14952 1662 14980 1690Q15010 1722 15037.5 1745.5Q15065 1769 15095.0 1784.0Q15125 1799 15160.0 1806.5Q15195 1814 15239 1814Q15306 1814 15370.0 1785.0Q15434 1756 15495 1709Q15508 1699 15522.0 1685.0Q15536 1671 15549.5 1657.0Q15563 1643 15574.5 1629.5Q15586 1616 15594 1605Q15626 1555 15650.0 1508.0Q15674 1461 15694 1411Q15704 1396 15729 1396Q15740 1396 15744.0 1404.0Q15748 1412 15748 1423Q15732 1478 15720.0 1522.5Q15708 1567 15694 1617Q15685 1653 15681.0 1687.5Q15677 1722 15673.0 1748.5Q15669 1775 15664.0 1791.0Q15659 1807 15648 1807Q15640 1807 15635.0 1801.0Q15630 1795 15625 1782Q15623 1772 15618.5 1764.5Q15614 1757 15603 1757Q15592 1757 15582.5 1761.0Q15573 1765 15559.0 1773.5Q15545 1782 15524.0 1793.5Q15503 1805 15468 1820Q15404 1846 15331.0 1861.5Q15258 1877 15186 1877Q15081 1877 14994.0 1849.5Q14907 1822 14829 1756Q14767 1703 14718.0 1634.5Q14669 1566 14634.5 1489.0Q14600 1412 14581.5 1329.5Q14563 1247 14563 1166ZM15833 1840Q15833 1836 15838.5 1828.0Q15844 1820 15855 1820Q15871 1820 15889.5 1815.0Q15908 1810 15925.5 1799.5Q15943 1789 15958.5 1772.5Q15974 1756 15985 1733L16250 1105Q16251 1103 16254.5 1095.5Q16258 1088 16258 1083Q16258 1072 16253.0 1061.0Q16248 1050 16241.5 1040.5Q16235 1031 16230.0 1023.5Q16225 1016 16225 1010Q16225 1000 16232.0 994.0Q16239 988 16248.5 984.5Q16258 981 16269.0 980.0Q16280 979 16288 977Q16297 973 16308.0 963.5Q16319 954 16326 948Q16329 943 16331.0 935.0Q16333 927 16335.5 920.0Q16338 913 16342.5 908.0Q16347 903 16355 903Q16375 903 16379 920L16665 1776Q16671 1795 16678.5 1805.5Q16686 1816 16697.0 1821.0Q16708 1826 16721.5 1827.0Q16735 1828 16753 1828H16789Q16798 1828 16803 1830Q16808 1830 16814.5 1837.0Q16821 1844 16821 1849Q16821 1865 16803 1866Q16801 1868 16789 1868H16732Q16703 1868 16665.0 1864.5Q16627 1861 16589 1861Q16527 1861 16469.0 1864.5Q16411 1868 16366 1868Q16361 1868 16355.5 1866.0Q16350 1864 16350 1858Q16350 1852 16355.0 1846.0Q16360 1840 16367.0 1834.5Q16374 1829 16382.5 1826.0Q16391 1823 16398 1823Q16408 1823 16418.0 1824.0Q16428 1825 16440 1825Q16472 1825 16492 1818Q16509 1812 16509 1794Q16509 1792 16508.0 1789.0Q16507 1786 16506 1780Q16502 1771 16493.0 1746.5Q16484 1722 16474.0 1693.0Q16464 1664 16454.5 1637.0Q16445 1610 16440 1595Q16436 1586 16431.5 1577.5Q16427 1569 16416 1569H16135Q16110 1569 16103 1593L16063 1738Q16061 1745 16060.0 1750.0Q16059 1755 16059 1764Q16059 1780 16061.5 1789.5Q16064 1799 16069.5 1805.0Q16075 1811 16084.5 1813.5Q16094 1816 16109 1818Q16114 1818 16125.5 1819.5Q16137 1821 16150.0 1823.0Q16163 1825 16174.5 1826.5Q16186 1828 16191 1828Q16196 1830 16205.5 1837.5Q16215 1845 16215 1854Q16215 1859 16211.0 1863.5Q16207 1868 16196 1868H16165Q16149 1868 16121.5 1867.0Q16094 1866 16066 1866Q16039 1866 16001.0 1867.0Q15963 1868 15923 1868Q15918 1868 15903.0 1866.5Q15888 1865 15872.5 1861.5Q15857 1858 15845.0 1852.5Q15833 1847 15833 1840ZM16142 1480Q16141 1482 16141 1491V1496Q16141 1507 16147.5 1514.5Q16154 1522 16165 1522Q16226 1522 16280.5 1526.5Q16335 1531 16386 1531Q16397 1531 16403.0 1524.5Q16409 1518 16409 1512V1501Q16409 1499 16408 1497Q16406 1494 16405 1487L16298 1183Q16290 1162 16279 1162Q16274 1162 16268.0 1166.0Q16262 1170 16260 1174ZM16959 1868Q16949 1868 16937.0 1867.0Q16925 1866 16914.5 1862.5Q16904 1859 16897.0 1852.0Q16890 1845 16890 1833Q16890 1824 16891.5 1817.0Q16893 1810 16902 1806Q16934 1801 16955.5 1799.0Q16977 1797 16992.0 1790.0Q17007 1783 17016.5 1765.5Q17026 1748 17033 1712Q17033 1627 17034.5 1537.0Q17036 1447 17040 1363Q17042 1302 17050.5 1244.5Q17059 1187 17059 1126Q17059 1115 17058.0 1110.0Q17057 1105 17052 1091Q17049 1086 17040.0 1072.5Q17031 1059 17020.0 1044.5Q17009 1030 16998.5 1016.5Q16988 1003 16983 998Q16973 986 16954.0 978.5Q16935 971 16916.5 963.5Q16898 956 16884.5 946.5Q16871 937 16871 920Q16871 911 16877.5 905.5Q16884 900 16893.5 897.0Q16903 894 16912.5 893.0Q16922 892 16928 892Q16930 892 16936.0 893.0Q16942 894 16949.0 895.5Q16956 897 16962.0 898.0Q16968 899 16971 899H17077Q17082 901 17093.0 907.5Q17104 914 17108 918Q17184 1001 17257.0 1081.0Q17330 1161 17401.5 1239.0Q17473 1317 17544.5 1394.0Q17616 1471 17689 1550Q17694 1555 17698 1559Q17702 1562 17706.0 1564.5Q17710 1567 17713 1567Q17722 1567 17727.0 1558.5Q17732 1550 17732 1548V1306V1221Q17732 1186 17730.5 1150.0Q17729 1114 17726.0 1082.5Q17723 1051 17718.0 1026.0Q17713 1001 17706 989Q17692 966 17663.0 957.0Q17634 948 17605.0 943.5Q17576 939 17554.5 934.0Q17533 929 17533 915Q17533 887 17566 887H17945Q17964 887 17964 910Q17964 920 17942.0 926.5Q17920 933 17892.0 943.0Q17864 953 17837.5 969.0Q17811 985 17802 1013Q17791 1038 17787.0 1067.0Q17783 1096 17783 1147V1847Q17783 1856 17776.0 1862.0Q17769 1868 17765 1868Q17752 1868 17736 1849Q17732 1844 17710.5 1820.0Q17689 1796 17655.0 1759.0Q17621 1722 17577.0 1675.0Q17533 1628 17485.0 1576.0Q17437 1524 17387.0 1470.0Q17337 1416 17291.0 1366.0Q17245 1316 17204.5 1272.5Q17164 1229 17136 1198Q17126 1190 17118 1190Q17102 1190 17098.0 1210.0Q17094 1230 17094 1252Q17094 1262 17094.5 1281.5Q17095 1301 17096.0 1326.5Q17097 1352 17098.5 1380.5Q17100 1409 17101.0 1435.5Q17102 1462 17102.5 1484.0Q17103 1506 17103 1519V1567Q17103 1590 17103.5 1619.0Q17104 1648 17106.5 1676.0Q17109 1704 17113.5 1727.0Q17118 1750 17127 1762Q17137 1778 17153.0 1785.0Q17169 1792 17187.0 1794.5Q17205 1797 17223.5 1797.5Q17242 1798 17256.5 1801.0Q17271 1804 17280.0 1812.5Q17289 1821 17289 1839Q17289 1848 17287.5 1853.5Q17286 1859 17276 1868ZM18065 1397Q18065 1338 18076.0 1289.5Q18087 1241 18109.0 1199.0Q18131 1157 18163.5 1119.5Q18196 1082 18238 1046Q18271 1018 18309.0 1000.0Q18347 982 18387.5 971.5Q18428 961 18471.0 957.0Q18514 953 18556 953Q18592 953 18632.5 964.0Q18673 975 18711.0 992.5Q18749 1010 18781.0 1030.5Q18813 1051 18834 1070Q18907 1139 18947.0 1219.5Q18987 1300 18987 1396Q18987 1448 18979.5 1491.5Q18972 1535 18957.5 1573.0Q18943 1611 18921.5 1645.0Q18900 1679 18872 1712Q18846 1741 18810.5 1769.0Q18775 1797 18732.0 1819.0Q18689 1841 18639.5 1854.5Q18590 1868 18537 1868Q18446 1868 18369.5 1843.5Q18293 1819 18227 1757Q18065 1616 18065 1397ZM18528 996Q18483 996 18451.5 1005.5Q18420 1015 18395.5 1032.5Q18371 1050 18351.0 1075.0Q18331 1100 18310 1131Q18272 1190 18260.0 1256.5Q18248 1323 18248 1391Q18248 1469 18263.5 1546.5Q18279 1624 18324 1697Q18336 1718 18358.0 1740.5Q18380 1763 18406.0 1781.5Q18432 1800 18459.5 1812.5Q18487 1825 18511 1825Q18558 1825 18593.5 1809.0Q18629 1793 18657.0 1766.5Q18685 1740 18706.5 1705.5Q18728 1671 18748 1634Q18773 1585 18784.5 1528.5Q18796 1472 18796 1406Q18796 1359 18789.5 1318.0Q18783 1277 18769.5 1239.0Q18756 1201 18736.0 1164.5Q18716 1128 18689 1090Q18662 1049 18620.5 1022.5Q18579 996 18528 996ZM19196 1868Q19186 1868 19174.0 1867.0Q19162 1866 19151.5 1862.5Q19141 1859 19134.0 1852.0Q19127 1845 19127 1833Q19127 1824 19128.5 1817.0Q19130 1810 19139 1806Q19171 1801 19192.5 1799.0Q19214 1797 19229.0 1790.0Q19244 1783 19253.5 1765.5Q19263 1748 19270 1712Q19270 1627 19271.5 1537.0Q19273 1447 19277 1363Q19279 1302 19287.5 1244.5Q19296 1187 19296 1126Q19296 1115 19295.0 1110.0Q19294 1105 19289 1091Q19286 1086 19277.0 1072.5Q19268 1059 19257.0 1044.5Q19246 1030 19235.5 1016.5Q19225 1003 19220 998Q19210 986 19191.0 978.5Q19172 971 19153.5 963.5Q19135 956 19121.5 946.5Q19108 937 19108 920Q19108 911 19114.5 905.5Q19121 900 19130.5 897.0Q19140 894 19149.5 893.0Q19159 892 19165 892Q19167 892 19173.0 893.0Q19179 894 19186.0 895.5Q19193 897 19199.0 898.0Q19205 899 19208 899H19314Q19319 901 19330.0 907.5Q19341 914 19345 918Q19421 1001 19494.0 1081.0Q19567 1161 19638.5 1239.0Q19710 1317 19781.5 1394.0Q19853 1471 19926 1550Q19931 1555 19935 1559Q19939 1562 19943.0 1564.5Q19947 1567 19950 1567Q19959 1567 19964.0 1558.5Q19969 1550 19969 1548V1306V1221Q19969 1186 19967.5 1150.0Q19966 1114 19963.0 1082.5Q19960 1051 19955.0 1026.0Q19950 1001 19943 989Q19929 966 19900.0 957.0Q19871 948 19842.0 943.5Q19813 939 19791.5 934.0Q19770 929 19770 915Q19770 887 19803 887H20182Q20201 887 20201 910Q20201 920 20179.0 926.5Q20157 933 20129.0 943.0Q20101 953 20074.5 969.0Q20048 985 20039 1013Q20028 1038 20024.0 1067.0Q20020 1096 20020 1147V1847Q20020 1856 20013.0 1862.0Q20006 1868 20002 1868Q19989 1868 19973 1849Q19969 1844 19947.5 1820.0Q19926 1796 19892.0 1759.0Q19858 1722 19814.0 1675.0Q19770 1628 19722.0 1576.0Q19674 1524 19624.0 1470.0Q19574 1416 19528.0 1366.0Q19482 1316 19441.5 1272.5Q19401 1229 19373 1198Q19363 1190 19355 1190Q19339 1190 19335.0 1210.0Q19331 1230 19331 1252Q19331 1262 19331.5 1281.5Q19332 1301 19333.0 1326.5Q19334 1352 19335.5 1380.5Q19337 1409 19338.0 1435.5Q19339 1462 19339.5 1484.0Q19340 1506 19340 1519V1567Q19340 1590 19340.5 1619.0Q19341 1648 19343.5 1676.0Q19346 1704 19350.5 1727.0Q19355 1750 19364 1762Q19374 1778 19390.0 1785.0Q19406 1792 19424.0 1794.5Q19442 1797 19460.5 1797.5Q19479 1798 19493.5 1801.0Q19508 1804 19517.0 1812.5Q19526 1821 19526 1839Q19526 1848 19524.5 1853.5Q19523 1859 19513 1868ZM20800 797Q20800 747 20816.5 696.0Q20833 645 20861.0 599.5Q20889 554 20926.5 516.5Q20964 479 21006 456Q21046 433 21087.5 428.0Q21129 423 21177 423Q21231 423 21283.0 435.5Q21335 448 21384 474Q21388 477 21399.0 484.0Q21410 491 21423.5 501.0Q21437 511 21451.0 521.5Q21465 532 21476 541Q21480 545 21483 545Q21484 545 21488 541Q21491 537 21495.5 528.5Q21500 520 21505.0 510.5Q21510 501 21514.5 492.5Q21519 484 21521 481Q21523 476 21526.5 472.0Q21530 468 21531 468Q21531 467 21535 467Q21541 467 21544.0 471.5Q21547 476 21548.5 482.0Q21550 488 21550.0 494.5Q21550 501 21550 505V512Q21550 514 21549.5 520.0Q21549 526 21548.0 533.5Q21547 541 21546.5 547.0Q21546 553 21545 555V802Q21545 810 21538.0 813.0Q21531 816 21526 816Q21515 816 21513.0 811.5Q21511 807 21507 795Q21496 769 21492.5 741.5Q21489 714 21478 685Q21467 652 21441.0 613.5Q21415 575 21381.0 542.0Q21347 509 21310.0 487.0Q21273 465 21239 465Q21176 465 21142 474Q21091 489 21056.5 522.5Q21022 556 20993 598Q20985 610 20978.0 628.5Q20971 647 20966.5 667.5Q20962 688 20959.5 707.0Q20957 726 20957 738Q20957 786 20977.5 825.0Q20998 864 21031.0 894.5Q21064 925 21105.5 948.5Q21147 972 21189 989Q21225 1004 21263.5 1018.0Q21302 1032 21339.5 1047.0Q21377 1062 21411.5 1080.0Q21446 1098 21473 1121Q21507 1148 21540.0 1187.5Q21573 1227 21599.5 1273.5Q21626 1320 21642.0 1370.0Q21658 1420 21658 1468Q21658 1561 21625.5 1636.0Q21593 1711 21535.5 1763.5Q21478 1816 21400.0 1844.5Q21322 1873 21232 1873Q21179 1873 21129.5 1867.5Q21080 1862 21035.0 1848.0Q20990 1834 20950.0 1809.0Q20910 1784 20874 1745Q20870 1740 20863.5 1739.0Q20857 1738 20853 1738Q20836 1738 20829.0 1747.0Q20822 1756 20817.5 1767.5Q20813 1779 20807.0 1788.0Q20801 1797 20786 1797L20812 1522Q20814 1509 20815.0 1491.0Q20816 1473 20820 1467Q20823 1453 20831 1453Q20843 1453 20848 1468Q20854 1485 20858.0 1501.5Q20862 1518 20865.0 1534.0Q20868 1550 20871.5 1564.0Q20875 1578 20881 1589Q20904 1630 20925.5 1662.0Q20947 1694 20973.5 1721.0Q21000 1748 21035.0 1770.0Q21070 1792 21120 1811Q21151 1822 21179.0 1823.5Q21207 1825 21230 1825Q21258 1825 21286.0 1814.5Q21314 1804 21353 1782Q21410 1748 21444.0 1700.5Q21478 1653 21478 1581Q21478 1530 21459.5 1486.0Q21441 1442 21409 1404Q21363 1353 21321.0 1324.5Q21279 1296 21238.5 1279.0Q21198 1262 21158.0 1250.0Q21118 1238 21076.5 1220.0Q21035 1202 20992.0 1172.0Q20949 1142 20902 1088Q20800 968 20800 797ZM21832 1166V1152Q21832 1093 21843.5 1027.5Q21855 962 21876.0 897.0Q21897 832 21927.0 771.0Q21957 710 21995 659Q22037 604 22089.5 560.5Q22142 517 22202.5 486.0Q22263 455 22331.0 438.5Q22399 422 22472 422Q22533 422 22598.0 433.5Q22663 445 22718 468Q22763 489 22799.5 518.5Q22836 548 22877 577Q22881 582 22885.5 583.0Q22890 584 22894 584Q22903 584 22910 571Q22921 552 22930.0 522.5Q22939 493 22950 472Q22954 463 22959.0 461.5Q22964 460 22970 460Q22977 460 22980.5 465.0Q22984 470 22984 472Q22992 507 22993.5 542.0Q22995 577 22995 615V673Q22995 686 22995.0 699.0Q22995 712 22996 726Q23000 764 23006.0 792.0Q23012 820 23012 846Q23012 861 23007.5 877.5Q23003 894 22989 894Q22983 894 22972.5 879.0Q22962 864 22951.0 845.5Q22940 827 22929.5 809.0Q22919 791 22915 785Q22887 745 22861.5 709.0Q22836 673 22809.5 641.5Q22783 610 22753.5 583.5Q22724 557 22688 536Q22657 517 22629.0 506.5Q22601 496 22574.5 491.0Q22548 486 22522.0 485.0Q22496 484 22469 484Q22427 484 22391.5 495.5Q22356 507 22325.0 527.0Q22294 547 22267.5 573.0Q22241 599 22216 628Q22144 713 22107.5 854.5Q22071 996 22071 1193Q22071 1291 22088.5 1370.5Q22106 1450 22132.0 1511.5Q22158 1573 22189.5 1617.5Q22221 1662 22249 1690Q22279 1722 22306.5 1745.5Q22334 1769 22364.0 1784.0Q22394 1799 22429.0 1806.5Q22464 1814 22508 1814Q22575 1814 22639.0 1785.0Q22703 1756 22764 1709Q22777 1699 22791.0 1685.0Q22805 1671 22818.5 1657.0Q22832 1643 22843.5 1629.5Q22855 1616 22863 1605Q22895 1555 22919.0 1508.0Q22943 1461 22963 1411Q22973 1396 22998 1396Q23009 1396 23013.0 1404.0Q23017 1412 23017 1423Q23001 1478 22989.0 1522.5Q22977 1567 22963 1617Q22954 1653 22950.0 1687.5Q22946 1722 22942.0 1748.5Q22938 1775 22933.0 1791.0Q22928 1807 22917 1807Q22909 1807 22904.0 1801.0Q22899 1795 22894 1782Q22892 1772 22887.5 1764.5Q22883 1757 22872 1757Q22861 1757 22851.5 1761.0Q22842 1765 22828.0 1773.5Q22814 1782 22793.0 1793.5Q22772 1805 22737 1820Q22673 1846 22600.0 1861.5Q22527 1877 22455 1877Q22350 1877 22263.0 1849.5Q22176 1822 22098 1756Q22036 1703 21987.0 1634.5Q21938 1566 21903.5 1489.0Q21869 1412 21850.5 1329.5Q21832 1247 21832 1166Z" fill="currentColor" /></svg>