<svg viewBox="0 0 14166 2560" xmlns="http://www.w3.org/2000/svg"><path d="M391 1861Q338 1861 286.5 1865.5Q235 1870 183 1870H176Q164 1868 146.0 1865.5Q128 1863 111.5 1856.5Q95 1850 83.5 1839.0Q72 1828 72 1809Q72 1805 73.0 1798.0Q74 1791 79 1787Q81 1784 89.0 1782.0Q97 1780 100 1780Q128 1777 156.0 1776.0Q184 1775 211.0 1770.0Q238 1765 262.5 1753.0Q287 1741 307 1717Q306 1673 310.0 1630.5Q314 1588 314 1546Q314 1529 310.5 1515.0Q307 1501 307 1486V1468Q307 1465 308.0 1458.0Q309 1451 310.5 1442.5Q312 1434 313.0 1427.0Q314 1420 314 1418V1268Q314 1266 315.0 1260.5Q316 1255 317.5 1249.0Q319 1243 320.0 1238.5Q321 1234 321 1233Q321 1231 321.5 1222.5Q322 1214 322.0 1203.0Q322 1192 322.5 1181.0Q323 1170 323 1164Q323 1160 322.5 1149.5Q322 1139 322.0 1128.0Q322 1117 321.5 1107.5Q321 1098 321 1095Q321 1091 318.5 1080.0Q316 1069 314 1065V1057Q314 1041 322.0 1027.0Q330 1013 330 994V982Q330 973 328.0 964.5Q326 956 321 948V878Q321 842 325.5 808.0Q330 774 330 740V726Q329 725 327.5 720.5Q326 716 324.5 711.5Q323 707 322.0 703.0Q321 699 321 699Q321 694 324.5 683.5Q328 673 330 671V664Q330 646 316.0 629.0Q302 612 287 607Q278 606 255.0 602.0Q232 598 207.0 593.5Q182 589 159.5 585.0Q137 581 128 579Q104 574 91.5 560.0Q79 546 79 520Q79 499 96.5 487.5Q114 476 137.0 470.5Q160 465 184.0 464.0Q208 463 221 463H231Q235 463 250.5 465.0Q266 467 283.5 469.0Q301 471 316.0 473.0Q331 475 335 475Q340 477 354.0 477.0Q368 477 384 477Q399 477 413.0 477.0Q427 477 434 475Q445 482 458.5 483.0Q472 484 479 484Q520 484 558.0 476.0Q596 468 641 468H697Q709 476 722.0 481.5Q735 487 746.5 493.5Q758 500 765.5 510.0Q773 520 773 538Q773 546 770.0 555.5Q767 565 761.5 574.0Q756 583 748.0 589.0Q740 595 731 595Q709 599 687.0 601.0Q665 603 641 603Q616 603 592.0 601.0Q568 599 543 595Q541 595 539.5 599.5Q538 604 538 607Q538 609 539.0 614.5Q540 620 540.5 625.5Q541 631 542.0 636.0Q543 641 543 641V657Q543 668 539.5 677.0Q536 686 532.5 695.0Q529 704 525.5 712.5Q522 721 522 731V745Q524 748 526.5 757.0Q529 766 531 768V808V823Q532 828 534 832Q538 842 538 844Q540 871 541.5 895.0Q543 919 543 948Q543 980 532.5 1011.5Q522 1043 522 1077V1079Q523 1081 525.5 1086.5Q528 1092 531.0 1099.0Q534 1106 536.0 1112.5Q538 1119 538 1121V1157Q538 1195 530.0 1231.5Q522 1268 522 1306Q522 1355 526.5 1402.5Q531 1450 531 1498V1584Q529 1589 526.5 1602.5Q524 1616 522 1619Q522 1620 521.0 1624.5Q520 1629 518.5 1633.5Q517 1638 516.0 1642.5Q515 1647 515 1648Q515 1650 516.0 1658.5Q517 1667 518.0 1677.5Q519 1688 520.0 1697.5Q521 1707 522 1711Q525 1725 532.0 1733.0Q539 1741 548.0 1745.5Q557 1750 568.0 1752.0Q579 1754 591 1757Q592 1759 598.5 1761.0Q605 1763 612.0 1765.5Q619 1768 625.5 1770.0Q632 1772 634 1773Q639 1774 652.5 1775.0Q666 1776 681.5 1777.0Q697 1778 711.0 1779.0Q725 1780 731 1780Q740 1786 742.5 1792.0Q745 1798 745 1807V1816Q745 1839 736.5 1850.0Q728 1861 711 1877Q708 1877 703.0 1880.5Q698 1884 697 1884H693H688Q613 1879 539.5 1870.0Q466 1861 391 1861ZM1120 1861H931Q927 1861 922.5 1854.5Q918 1848 914.0 1839.5Q910 1831 907.0 1824.0Q904 1817 904 1816Q904 1796 918.5 1780.0Q933 1764 950 1764Q955 1764 970.0 1763.0Q985 1762 1001 1762Q1016 1762 1030.0 1763.0Q1044 1764 1049 1764Q1052 1762 1056.5 1759.5Q1061 1757 1063 1756Q1066 1755 1071.5 1749.0Q1077 1743 1083.5 1736.0Q1090 1729 1096.0 1723.0Q1102 1717 1104 1714Q1104 1709 1105.0 1695.5Q1106 1682 1107.5 1666.5Q1109 1651 1110.0 1637.0Q1111 1623 1111 1617Q1113 1615 1115.5 1601.0Q1118 1587 1120 1583V1538V1520Q1120 1518 1122.0 1511.0Q1124 1504 1126.0 1496.0Q1128 1488 1130.0 1481.0Q1132 1474 1132 1472Q1139 1438 1147.0 1399.0Q1155 1360 1155 1325Q1155 1323 1150.5 1312.0Q1146 1301 1146 1297V1233Q1146 1188 1149.0 1143.0Q1152 1098 1162 1055Q1162 1054 1164.0 1048.0Q1166 1042 1168.0 1035.0Q1170 1028 1172.0 1021.5Q1174 1015 1174 1013Q1174 1008 1176.5 988.0Q1179 968 1181.5 944.5Q1184 921 1186.5 900.0Q1189 879 1189 873Q1189 872 1190.0 865.0Q1191 858 1192.5 850.0Q1194 842 1195.0 835.0Q1196 828 1196 827Q1196 825 1194.0 819.5Q1192 814 1189.0 808.5Q1186 803 1183.5 798.0Q1181 793 1181 792Q1181 789 1184.5 780.0Q1188 771 1189 769Q1190 766 1191.0 759.5Q1192 753 1193.0 746.5Q1194 740 1195.0 734.5Q1196 729 1196 728Q1196 724 1195.0 714.5Q1194 705 1193.0 694.0Q1192 683 1191.0 673.5Q1190 664 1189 659Q1175 642 1152.5 641.0Q1130 640 1111 638Q1109 638 1103.0 636.0Q1097 634 1090.5 631.0Q1084 628 1078.0 626.0Q1072 624 1070 624Q1048 618 1031.0 615.0Q1014 612 1000.5 607.0Q987 602 977.0 590.5Q967 579 959 555Q959 552 965.0 547.5Q971 543 973 541H994Q997 541 1006.0 539.0Q1015 537 1026.0 534.0Q1037 531 1046.0 529.0Q1055 527 1058 527H1111H1174Q1176 527 1181.5 528.0Q1187 529 1192.5 530.5Q1198 532 1203.0 533.0Q1208 534 1208 534H1355Q1389 548 1410.5 571.5Q1432 595 1452 624Q1453 626 1456.5 630.0Q1460 634 1464.0 638.5Q1468 643 1470.5 647.5Q1473 652 1473 654Q1475 655 1477.0 666.0Q1479 677 1482 681Q1490 702 1503.5 720.5Q1517 739 1521 763Q1521 765 1522.0 774.5Q1523 784 1524.5 794.5Q1526 805 1527.0 814.5Q1528 824 1528 827Q1533 841 1542.5 859.0Q1552 877 1556 889Q1556 891 1559.5 903.0Q1563 915 1563 917Q1564 919 1568.0 924.0Q1572 929 1577.0 934.5Q1582 940 1586.0 945.0Q1590 950 1591 951Q1592 953 1593.5 960.0Q1595 967 1596.0 975.0Q1597 983 1597.5 990.5Q1598 998 1598 1000Q1608 1034 1624.5 1058.5Q1641 1083 1655 1117Q1655 1119 1656.0 1126.0Q1657 1133 1658.0 1141.0Q1659 1149 1659.5 1156.5Q1660 1164 1660 1166Q1660 1168 1663.5 1179.5Q1667 1191 1667 1193Q1671 1205 1680.0 1210.5Q1689 1216 1699.0 1221.5Q1709 1227 1716.5 1234.0Q1724 1241 1724 1254V1271Q1724 1273 1720.5 1284.0Q1717 1295 1717 1297Q1717 1298 1718.5 1303.5Q1720 1309 1722.0 1315.5Q1724 1322 1726.0 1329.0Q1728 1336 1729 1340Q1732 1347 1737.0 1356.5Q1742 1366 1748.5 1375.0Q1755 1384 1763.0 1390.5Q1771 1397 1779 1397Q1785 1397 1789.0 1393.0Q1793 1389 1795.5 1383.0Q1798 1377 1800.5 1370.5Q1803 1364 1807 1359Q1818 1346 1835.5 1331.5Q1853 1317 1862 1297Q1863 1292 1864 1287Q1865 1282 1866.0 1278.0Q1867 1274 1867 1271Q1872 1252 1878.0 1238.5Q1884 1225 1891.0 1212.5Q1898 1200 1906.5 1187.5Q1915 1175 1924 1159Q1936 1140 1942.0 1120.5Q1948 1101 1959 1083Q1960 1082 1964.0 1076.5Q1968 1071 1973.0 1065.0Q1978 1059 1982.0 1054.0Q1986 1049 1987 1048Q1990 1044 1992.0 1036.0Q1994 1028 1995.5 1020.0Q1997 1012 1998.0 1004.5Q1999 997 2001 993Q2016 950 2038.0 912.5Q2060 875 2078 832Q2086 815 2088.5 794.5Q2091 774 2097 757Q2100 753 2107.5 736.5Q2115 720 2123.0 701.0Q2131 682 2138.5 666.0Q2146 650 2148 645Q2149 642 2151.0 634.5Q2153 627 2153 624V621V619Q2153 616 2150.5 610.5Q2148 605 2148 603V602V596Q2155 582 2163.0 568.0Q2171 554 2181.0 542.5Q2191 531 2205.0 523.0Q2219 515 2238 512Q2242 512 2262.5 512.5Q2283 513 2302 513Q2322 513 2326 512Q2328 512 2334.5 510.5Q2341 509 2348.5 506.5Q2356 504 2362.0 502.0Q2368 500 2369 500Q2401 492 2430.0 488.0Q2459 484 2495 484Q2501 484 2511.0 484.5Q2521 485 2530.5 485.0Q2540 485 2547.5 485.5Q2555 486 2556 486Q2567 486 2580.5 491.0Q2594 496 2606.0 505.0Q2618 514 2626.0 525.5Q2634 537 2634 550Q2634 558 2627.5 567.0Q2621 576 2612.0 584.0Q2603 592 2594.0 597.5Q2585 603 2580 603Q2563 603 2548.0 599.5Q2533 596 2516 596Q2499 596 2482.0 598.5Q2465 601 2445 610Q2433 616 2426.0 628.0Q2419 640 2415.5 654.5Q2412 669 2411.5 685.0Q2411 701 2411 714V731Q2411 743 2412.0 750.5Q2413 758 2415.0 765.0Q2417 772 2419.5 779.0Q2422 786 2424 797Q2424 802 2424.5 814.0Q2425 826 2425.0 838.5Q2425 851 2425.5 862.5Q2426 874 2426 878Q2426 970 2421.0 1060.5Q2416 1151 2418 1243Q2418 1245 2414.5 1253.0Q2411 1261 2411 1263V1268V1271Q2416 1297 2421.0 1326.0Q2426 1355 2426 1382Q2426 1408 2418.5 1430.5Q2411 1453 2411 1479V1491Q2411 1499 2412.0 1505.5Q2413 1512 2418 1520Q2418 1523 2418.0 1531.5Q2418 1540 2418.5 1549.5Q2419 1559 2419.0 1567.5Q2419 1576 2419 1579Q2419 1585 2419.0 1595.0Q2419 1605 2418.5 1614.5Q2418 1624 2418.0 1631.5Q2418 1639 2418 1640Q2418 1641 2414.5 1652.0Q2411 1663 2411 1667V1683V1693Q2411 1696 2416.5 1707.0Q2422 1718 2424 1721Q2425 1723 2429.5 1728.5Q2434 1734 2438.5 1740.0Q2443 1746 2447.0 1750.5Q2451 1755 2452 1756Q2454 1757 2456.5 1763.0Q2459 1769 2459 1771Q2461 1773 2463.0 1775.5Q2465 1778 2468 1778H2495Q2496 1778 2502.5 1780.0Q2509 1782 2516.0 1784.0Q2523 1786 2529.0 1788.0Q2535 1790 2537 1790Q2538 1791 2544.0 1792.0Q2550 1793 2556.5 1794.5Q2563 1796 2569.0 1797.0Q2575 1798 2577 1799Q2580 1800 2586.0 1802.5Q2592 1805 2599.0 1808.0Q2606 1811 2611.5 1814.0Q2617 1817 2618 1818Q2618 1820 2619.0 1826.0Q2620 1832 2620 1833Q2620 1847 2607.0 1857.5Q2594 1868 2577 1868H2245Q2240 1868 2229.5 1871.5Q2219 1875 2217 1875H2210H2203Q2202 1875 2196.5 1877.0Q2191 1879 2185.0 1881.0Q2179 1883 2174.0 1885.0Q2169 1887 2168 1887H2113H2097Q2084 1887 2070.0 1874.0Q2056 1861 2056 1847V1840Q2063 1840 2081.0 1836.5Q2099 1833 2106 1833Q2108 1833 2115.5 1829.5Q2123 1826 2125 1826Q2127 1826 2132.5 1825.0Q2138 1824 2144.0 1823.0Q2150 1822 2154.5 1820.5Q2159 1819 2160 1818Q2172 1814 2178.5 1801.5Q2185 1789 2188.5 1774.5Q2192 1760 2193.0 1745.5Q2194 1731 2194 1721Q2205 1657 2209.5 1593.0Q2214 1529 2222 1463Q2222 1453 2222.5 1426.5Q2223 1400 2224.0 1370.5Q2225 1341 2225.5 1315.0Q2226 1289 2226 1278Q2226 1259 2225.5 1228.5Q2225 1198 2224.0 1168.0Q2223 1138 2222.5 1115.0Q2222 1092 2222 1090Q2222 1083 2221.5 1063.5Q2221 1044 2220.0 1022.0Q2219 1000 2218.5 980.0Q2218 960 2217 951Q2217 948 2215.0 939.0Q2213 930 2209.5 920.5Q2206 911 2201.5 903.5Q2197 896 2193 896Q2184 896 2178.5 900.5Q2173 905 2169.0 911.0Q2165 917 2161.5 924.0Q2158 931 2153 936Q2152 938 2147.5 943.0Q2143 948 2137.0 954.0Q2131 960 2125.5 964.5Q2120 969 2118 970Q2118 973 2115.5 978.0Q2113 983 2113 986Q2101 1013 2084.5 1037.5Q2068 1062 2056 1090Q2047 1116 2041.5 1144.5Q2036 1173 2028 1200Q2027 1212 2019.5 1218.0Q2012 1224 2009 1235Q2008 1236 2006.5 1241.5Q2005 1247 2004.0 1253.0Q2003 1259 2002.0 1264.5Q2001 1270 2001 1271Q1999 1273 1993.0 1279.0Q1987 1285 1980.0 1291.5Q1973 1298 1966.5 1304.5Q1960 1311 1959 1313Q1952 1319 1950.0 1333.5Q1948 1348 1945 1354Q1944 1357 1942.0 1365.0Q1940 1373 1940 1375Q1938 1377 1932.0 1384.5Q1926 1392 1924 1394Q1914 1420 1910.0 1447.5Q1906 1475 1897 1501Q1894 1506 1889.5 1516.5Q1885 1527 1880.5 1538.5Q1876 1550 1872.0 1559.0Q1868 1568 1867 1570Q1867 1572 1862.0 1582.0Q1857 1592 1851.5 1604.0Q1846 1616 1840.5 1626.5Q1835 1637 1833 1640Q1833 1641 1832.5 1648.0Q1832 1655 1831.0 1663.0Q1830 1671 1829.0 1678.0Q1828 1685 1828 1686Q1828 1691 1824.5 1701.5Q1821 1712 1821 1714Q1818 1719 1812.5 1731.5Q1807 1744 1800.0 1757.5Q1793 1771 1787.5 1783.0Q1782 1795 1779 1799Q1768 1805 1757.0 1813.0Q1746 1821 1732 1821Q1719 1821 1706.0 1808.5Q1693 1796 1682.5 1779.0Q1672 1762 1664.5 1744.0Q1657 1726 1655 1714Q1650 1696 1646.5 1681.0Q1643 1666 1640.0 1651.5Q1637 1637 1632.5 1622.0Q1628 1607 1620 1589Q1619 1587 1613.5 1577.5Q1608 1568 1602.0 1557.5Q1596 1547 1591.0 1538.0Q1586 1529 1585 1527Q1567 1495 1558.0 1462.5Q1549 1430 1535 1394Q1517 1344 1493.0 1295.0Q1469 1246 1452 1193Q1451 1192 1450.0 1186.0Q1449 1180 1448.5 1173.0Q1448 1166 1447.5 1160.0Q1447 1154 1447 1152Q1445 1150 1439.0 1141.5Q1433 1133 1431 1131Q1431 1129 1428.0 1121.5Q1425 1114 1425 1112Q1424 1110 1422.0 1104.5Q1420 1099 1417.5 1093.0Q1415 1087 1412.5 1082.5Q1410 1078 1409 1077Q1409 1074 1408.5 1066.5Q1408 1059 1407.0 1051.0Q1406 1043 1405.0 1036.0Q1404 1029 1404 1027Q1402 1024 1399.5 1018.5Q1397 1013 1394.0 1006.5Q1391 1000 1388.0 994.5Q1385 989 1383 986L1362 965Q1353 953 1347.0 936.5Q1341 920 1333.5 904.0Q1326 888 1314.5 877.0Q1303 866 1283 866H1277Q1272 884 1270.5 899.0Q1269 914 1268.0 928.5Q1267 943 1266.5 958.5Q1266 974 1265 993Q1265 993 1264.0 997.5Q1263 1002 1261.5 1006.5Q1260 1011 1259.0 1015.5Q1258 1020 1258 1020V1031Q1258 1042 1261.5 1053.0Q1265 1064 1265 1077V1083Q1260 1107 1255.0 1131.0Q1250 1155 1250 1181Q1250 1215 1257.5 1247.0Q1265 1279 1265 1313Q1265 1313 1264.0 1317.0Q1263 1321 1261.5 1325.5Q1260 1330 1259.0 1334.5Q1258 1339 1258 1340V1444Q1258 1446 1256.0 1453.0Q1254 1460 1251.5 1468.0Q1249 1476 1246.5 1483.5Q1244 1491 1243 1493V1503Q1243 1512 1245.0 1518.5Q1247 1525 1252 1536V1686Q1257 1695 1260.0 1706.0Q1263 1717 1266.0 1728.0Q1269 1739 1273.5 1748.5Q1278 1758 1286 1764Q1307 1766 1337.5 1770.0Q1368 1774 1390 1783Q1392 1786 1399.5 1791.5Q1407 1797 1409 1799Q1417 1803 1425.0 1805.0Q1433 1807 1439.0 1810.0Q1445 1813 1448.5 1819.0Q1452 1825 1452 1835Q1452 1849 1446.0 1857.0Q1440 1865 1431.0 1869.0Q1422 1873 1411.0 1874.0Q1400 1875 1390 1875Q1348 1875 1306.0 1871.5Q1264 1868 1222 1868H1196Q1195 1868 1190.5 1869.0Q1186 1870 1181.5 1871.5Q1177 1873 1172.5 1874.0Q1168 1875 1167 1875Q1165 1875 1158.5 1873.5Q1152 1872 1144.5 1869.5Q1137 1867 1130.0 1865.0Q1123 1863 1120 1861ZM3251 1795Q3251 1784 3256.0 1773.5Q3261 1763 3269.5 1754.5Q3278 1746 3289.0 1740.5Q3300 1735 3312 1735Q3328 1735 3342.0 1739.0Q3356 1743 3374 1743Q3380 1743 3389.0 1742.0Q3398 1741 3407.0 1739.0Q3416 1737 3423.5 1732.5Q3431 1728 3435 1721Q3435 1718 3437.0 1711.5Q3439 1705 3441.5 1698.0Q3444 1691 3445.5 1685.5Q3447 1680 3447 1678V1659V1636Q3447 1635 3446.0 1628.0Q3445 1621 3444.5 1613.0Q3444 1605 3443.0 1598.0Q3442 1591 3442 1589Q3442 1584 3443.5 1570.5Q3445 1557 3447 1553V1088Q3443 1068 3442.5 1056.5Q3442 1045 3442 1027V1012Q3442 1007 3442.5 1001.5Q3443 996 3447 991V823Q3458 796 3460.0 764.0Q3462 732 3462 702V679Q3462 671 3457.0 654.0Q3452 637 3444.0 619.5Q3436 602 3426.5 588.0Q3417 574 3407 572Q3400 574 3387.0 575.0Q3374 576 3360 576Q3346 576 3333.0 575.0Q3320 574 3315 572Q3297 572 3281.0 558.0Q3265 544 3265 526Q3265 518 3267.5 515.0Q3270 512 3274 503Q3285 483 3299.0 471.0Q3313 459 3338 456Q3341 456 3355.0 454.5Q3369 453 3386.5 452.0Q3404 451 3421.0 449.5Q3438 448 3447 448H3516Q3585 448 3652.0 455.5Q3719 463 3788 463Q3817 463 3841.0 462.0Q3865 461 3900 456Q3902 455 3910.0 452.0Q3918 449 3921 448H4163Q4177 454 4199.0 457.5Q4221 461 4232 463Q4236 463 4254.0 462.5Q4272 462 4287 462Q4295 462 4301.5 462.0Q4308 462 4310 463Q4311 463 4316.5 466.0Q4322 469 4328.5 473.5Q4335 478 4342.0 483.0Q4349 488 4352 491Q4353 493 4355 496Q4356 498 4357.0 500.0Q4358 502 4358 503Q4359 508 4361.5 517.0Q4364 526 4366.0 535.0Q4368 544 4370.0 551.0Q4372 558 4372 560V605V622Q4372 625 4373.0 634.0Q4374 643 4375.5 653.5Q4377 664 4378.0 673.5Q4379 683 4379 685V697V705Q4378 715 4376.0 730.0Q4374 745 4371.5 759.5Q4369 774 4367.0 784.5Q4365 795 4364 795L4329 830H4317Q4308 823 4298 817Q4290 812 4281.0 806.0Q4272 800 4267 795Q4262 790 4256.0 781.5Q4250 773 4248 768Q4246 766 4241.5 759.0Q4237 752 4232.5 743.5Q4228 735 4224.5 728.0Q4221 721 4220 719Q4203 692 4185.5 663.0Q4168 634 4142 614Q4141 614 4137.0 612.5Q4133 611 4128.5 608.5Q4124 606 4120.5 604.0Q4117 602 4116 602Q4111 597 4100.0 586.5Q4089 576 4087 572Q4083 572 4073.0 571.0Q4063 570 4051.5 569.0Q4040 568 4030.5 567.5Q4021 567 4018 567H3831Q3828 567 3816.5 566.0Q3805 565 3792.0 563.5Q3779 562 3767.5 561.0Q3756 560 3753 560H3746Q3721 560 3706.5 572.5Q3692 585 3684.5 604.0Q3677 623 3674.5 645.0Q3672 667 3670 685Q3665 744 3659.5 804.5Q3654 865 3654 923Q3654 961 3655.0 989.0Q3656 1017 3663 1053Q3667 1074 3685.5 1081.0Q3704 1088 3722 1088Q3748 1088 3770.5 1080.0Q3793 1072 3819 1072Q3837 1072 3854.0 1076.5Q3871 1081 3888 1081Q3900 1081 3916.0 1075.5Q3932 1070 3947.0 1060.0Q3962 1050 3972.5 1038.0Q3983 1026 3983 1012Q3983 1011 3981.5 1005.5Q3980 1000 3978.5 994.0Q3977 988 3975.5 983.0Q3974 978 3974 977Q3974 932 3991.5 893.5Q4009 855 4038 823Q4045 816 4050.0 813.5Q4055 811 4066 811Q4079 811 4088.0 823.0Q4097 835 4103.0 851.5Q4109 868 4112.0 884.0Q4115 900 4116 908Q4116 912 4115.0 934.5Q4114 957 4114 977Q4114 988 4114.0 995.0Q4114 1002 4116 1005Q4116 1006 4118.0 1011.0Q4120 1016 4122.0 1022.0Q4124 1028 4126.0 1033.0Q4128 1038 4128 1039V1053V1065Q4128 1069 4124.5 1080.5Q4121 1092 4121 1095V1212Q4121 1215 4119.0 1226.5Q4117 1238 4115.0 1251.0Q4113 1264 4110.5 1275.0Q4108 1286 4108 1288V1309V1316Q4105 1339 4102.5 1350.5Q4100 1362 4094 1380Q4092 1385 4089.0 1394.5Q4086 1404 4082.5 1413.0Q4079 1422 4076.5 1428.5Q4074 1435 4073 1436Q4069 1446 4056.5 1447.5Q4044 1449 4035 1449Q4018 1449 4008.0 1441.5Q3998 1434 3992.0 1422.5Q3986 1411 3982.0 1397.5Q3978 1384 3974 1373Q3974 1371 3972.5 1365.5Q3971 1360 3969.0 1354.5Q3967 1349 3965.0 1344.0Q3963 1339 3962 1339Q3955 1320 3952.5 1302.0Q3950 1284 3945.5 1268.5Q3941 1253 3931.0 1240.5Q3921 1228 3900 1219H3876Q3852 1219 3832.0 1216.5Q3812 1214 3792.5 1211.5Q3773 1209 3753.0 1206.5Q3733 1204 3710 1204Q3707 1204 3700.0 1204.5Q3693 1205 3685.5 1205.5Q3678 1206 3672.0 1206.5Q3666 1207 3663 1207Q3658 1215 3653.0 1227.5Q3648 1240 3644.0 1254.0Q3640 1268 3637.5 1282.0Q3635 1296 3635 1306Q3635 1331 3636.5 1353.5Q3638 1376 3642 1401Q3642 1403 3645.5 1414.5Q3649 1426 3649 1429Q3649 1432 3648.0 1444.0Q3647 1456 3645.5 1470.0Q3644 1484 3643.0 1496.5Q3642 1509 3642 1512V1550V1589Q3642 1595 3643.0 1610.0Q3644 1625 3645.5 1641.5Q3647 1658 3648.0 1672.5Q3649 1687 3649 1693Q3653 1707 3668.5 1719.0Q3684 1731 3698 1735H3713H3753Q3755 1735 3763.0 1736.5Q3771 1738 3774 1740Q3775 1742 3781.5 1744.5Q3788 1747 3789 1747Q3793 1748 3804.0 1749.5Q3815 1751 3827.0 1752.5Q3839 1754 3849.5 1755.0Q3860 1756 3865 1756Q3879 1761 3882.5 1778.5Q3886 1796 3886 1813V1823Q3886 1830 3885.0 1838.0Q3884 1846 3877 1852Q3876 1855 3865.5 1860.0Q3855 1865 3850 1866Q3849 1867 3844.0 1868.0Q3839 1869 3833.0 1870.0Q3827 1871 3821.5 1872.0Q3816 1873 3815 1873Q3795 1880 3775.5 1887.0Q3756 1894 3736 1894Q3710 1894 3682.0 1884.5Q3654 1875 3628 1873Q3620 1873 3597.0 1872.0Q3574 1871 3546.0 1870.0Q3518 1869 3492.0 1868.0Q3466 1867 3454 1866H3350Q3333 1866 3315.5 1862.0Q3298 1858 3283.5 1849.5Q3269 1841 3260.0 1828.0Q3251 1815 3251 1795ZM4655 1152Q4655 1176 4666.0 1186.5Q4677 1197 4693.5 1200.0Q4710 1203 4729.5 1202.5Q4749 1202 4765 1204Q4767 1204 4773.0 1207.5Q4779 1211 4781 1211Q4801 1217 4811.0 1218.0Q4821 1219 4841 1219Q4860 1219 4880.0 1217.5Q4900 1216 4916.5 1210.0Q4933 1204 4943.5 1191.0Q4954 1178 4954 1155Q4954 1126 4944.5 1094.5Q4935 1063 4912 1045Q4907 1045 4896.5 1044.0Q4886 1043 4874.0 1042.0Q4862 1041 4850.5 1039.5Q4839 1038 4834 1038Q4832 1037 4829 1035Q4823 1031 4822 1031H4805Q4784 1031 4757.5 1041.5Q4731 1052 4708.5 1069.0Q4686 1086 4670.5 1107.5Q4655 1129 4655 1152ZM4426 1399Q4426 1340 4439.5 1279.5Q4453 1219 4488 1169Q4495 1159 4508.0 1142.5Q4521 1126 4533.5 1109.5Q4546 1093 4555.0 1080.0Q4564 1067 4565 1065Q4578 1049 4599.0 1035.0Q4620 1021 4643.0 1008.0Q4666 995 4689.0 982.5Q4712 970 4729 958Q4749 954 4769.0 951.5Q4789 949 4809 949Q4842 949 4869 956Q4890 970 4914.0 973.5Q4938 977 4961 984Q4980 989 4998.5 999.5Q5017 1010 5032.5 1024.5Q5048 1039 5061.5 1055.5Q5075 1072 5085 1088Q5086 1089 5088.0 1093.0Q5090 1097 5092.5 1101.5Q5095 1106 5097.0 1110.0Q5099 1114 5099 1115Q5104 1122 5112.5 1130.5Q5121 1139 5129.0 1148.5Q5137 1158 5142.5 1168.5Q5148 1179 5148 1190Q5148 1198 5147.0 1209.5Q5146 1221 5143.0 1232.5Q5140 1244 5134.5 1254.0Q5129 1264 5120 1268Q5118 1268 5112.5 1270.0Q5107 1272 5100.0 1274.5Q5093 1277 5086.5 1279.0Q5080 1281 5078 1282Q5077 1282 5071.5 1284.5Q5066 1287 5065 1288Q5052 1288 5025.5 1288.5Q4999 1289 4965.5 1289.5Q4932 1290 4895.0 1291.0Q4858 1292 4824.5 1293.0Q4791 1294 4764.0 1294.5Q4737 1295 4724 1295Q4720 1295 4709.0 1295.5Q4698 1296 4686.0 1297.0Q4674 1298 4663.5 1299.5Q4653 1301 4649 1302Q4623 1323 4614.5 1352.5Q4606 1382 4606 1415Q4606 1451 4613.0 1477.5Q4620 1504 4634 1538Q4636 1540 4638.5 1545.5Q4641 1551 4641 1553Q4642 1554 4646.5 1557.5Q4651 1561 4655.5 1565.5Q4660 1570 4664.0 1574.5Q4668 1579 4668 1581Q4669 1582 4674.5 1587.5Q4680 1593 4686.0 1600.0Q4692 1607 4697.0 1613.5Q4702 1620 4703 1622Q4705 1622 4707.5 1625.0Q4710 1628 4712 1628Q4721 1636 4734.5 1647.0Q4748 1658 4761 1668Q4776 1680 4793 1692Q4836 1704 4876 1704Q4916 1704 4961 1692Q4987 1676 5014.5 1667.5Q5042 1659 5070 1650Q5072 1648 5078.0 1645.5Q5084 1643 5085 1641H5091H5092Q5099 1644 5109.5 1649.0Q5120 1654 5120 1657Q5122 1659 5124.5 1672.0Q5127 1685 5127 1692Q5127 1709 5117.5 1732.0Q5108 1755 5099 1766Q5099 1768 5087.5 1776.0Q5076 1784 5070 1788Q5038 1809 5007.0 1832.5Q4976 1856 4940 1870Q4938 1871 4930.5 1872.5Q4923 1874 4915.0 1875.0Q4907 1876 4900.0 1877.0Q4893 1878 4892 1878Q4873 1883 4859.5 1887.5Q4846 1892 4828 1892Q4811 1892 4797.0 1887.5Q4783 1883 4765 1878Q4756 1876 4739.5 1871.5Q4723 1867 4705.0 1861.0Q4687 1855 4671.5 1848.0Q4656 1841 4649 1835Q4646 1834 4638.0 1826.0Q4630 1818 4620.5 1809.0Q4611 1800 4603.0 1792.0Q4595 1784 4592 1782Q4591 1780 4582.0 1774.0Q4573 1768 4572 1766Q4567 1764 4560.0 1756.5Q4553 1749 4551 1747Q4548 1743 4538.5 1728.5Q4529 1714 4518.0 1697.0Q4507 1680 4496.5 1664.0Q4486 1648 4482 1641Q4468 1621 4463.5 1601.0Q4459 1581 4454 1558Q4454 1557 4450.5 1548.5Q4447 1540 4447 1538Q4434 1508 4430.0 1470.5Q4426 1433 4426 1399ZM5449 1859H5442Q5407 1866 5371.0 1870.5Q5335 1875 5298 1875Q5269 1875 5252.5 1863.0Q5236 1851 5221 1825Q5216 1818 5215.0 1815.0Q5214 1812 5214 1804Q5214 1796 5220.0 1789.0Q5226 1782 5234.5 1776.0Q5243 1770 5252.5 1766.5Q5262 1763 5269 1762H5352Q5356 1762 5364.0 1756.5Q5372 1751 5381.0 1744.5Q5390 1738 5397.5 1731.0Q5405 1724 5407 1721Q5409 1720 5411.5 1714.0Q5414 1708 5416.0 1701.0Q5418 1694 5419.5 1688.0Q5421 1682 5421 1679Q5420 1664 5419.0 1648.0Q5418 1632 5418 1615Q5418 1557 5423.0 1498.0Q5428 1439 5428 1382V1363V1313Q5429 1310 5430.0 1300.0Q5431 1290 5432.0 1278.0Q5433 1266 5434.0 1256.0Q5435 1246 5437 1243V1228Q5437 1208 5432.5 1188.5Q5428 1169 5428 1148Q5428 1134 5429.5 1126.0Q5431 1118 5442 1105Q5440 1098 5440.0 1080.5Q5440 1063 5440 1043Q5440 1023 5440.0 1005.0Q5440 987 5442 979Q5442 977 5445.5 966.0Q5449 955 5449 951V941Q5449 933 5448.0 926.5Q5447 920 5442 910V771Q5441 769 5439.0 763.5Q5437 758 5435.0 751.5Q5433 745 5431.0 739.0Q5429 733 5428 731V719Q5428 699 5432.5 679.5Q5437 660 5437 640Q5437 615 5432.5 600.5Q5428 586 5421 564Q5415 540 5407.0 529.0Q5399 518 5373 515Q5368 515 5356.5 514.0Q5345 513 5331.5 511.5Q5318 510 5306.0 509.0Q5294 508 5290 508Q5286 506 5275.5 495.5Q5265 485 5260 481V467V451Q5263 449 5271.5 442.5Q5280 436 5289.0 428.5Q5298 421 5306.0 414.0Q5314 407 5317 404Q5319 403 5325.0 400.5Q5331 398 5333 398Q5335 397 5345.0 396.5Q5355 396 5367.0 395.0Q5379 394 5389.0 393.0Q5399 392 5402 391Q5403 390 5410.0 385.0Q5417 380 5425.5 373.5Q5434 367 5440.5 361.5Q5447 356 5449 354Q5451 354 5457.0 353.5Q5463 353 5469.5 352.0Q5476 351 5482.0 350.0Q5488 349 5490 347Q5493 347 5501.0 342.5Q5509 338 5518.5 333.5Q5528 329 5536.0 324.5Q5544 320 5546 320H5554Q5573 320 5581.0 329.0Q5589 338 5603 347Q5609 352 5617.0 355.5Q5625 359 5632.5 364.0Q5640 369 5645.0 376.0Q5650 383 5650 394V398Q5643 431 5636.0 466.0Q5629 501 5629 536Q5629 549 5633.5 562.0Q5638 575 5638 588V593Q5636 595 5633.5 602.5Q5631 610 5629 612V806Q5629 808 5628.0 813.0Q5627 818 5625.5 823.5Q5624 829 5623.0 834.0Q5622 839 5622 840Q5622 845 5621.5 865.0Q5621 885 5620.0 907.5Q5619 930 5617.5 949.5Q5616 969 5615 974Q5615 975 5612.5 986.0Q5610 997 5610 1001V1133Q5610 1135 5609.0 1143.0Q5608 1151 5606.5 1160.0Q5605 1169 5604.0 1177.0Q5603 1185 5603 1186Q5603 1189 5602.0 1195.0Q5601 1201 5601 1204Q5601 1240 5605.5 1275.5Q5610 1311 5610 1347V1375Q5610 1377 5608.0 1382.0Q5606 1387 5603.0 1393.0Q5600 1399 5597.5 1404.0Q5595 1409 5594 1410Q5594 1414 5593.0 1429.0Q5592 1444 5591.0 1461.5Q5590 1479 5589.0 1494.0Q5588 1509 5587 1513Q5587 1515 5586.0 1520.5Q5585 1526 5583.5 1531.5Q5582 1537 5581.0 1542.0Q5580 1547 5580 1548V1558Q5580 1583 5585.0 1606.0Q5590 1629 5594 1652Q5595 1654 5596.0 1661.5Q5597 1669 5598.5 1677.0Q5600 1685 5601.0 1692.5Q5602 1700 5603 1702Q5605 1707 5612.5 1716.5Q5620 1726 5622 1726H5748Q5750 1726 5763.0 1732.0Q5776 1738 5783 1743Q5785 1743 5786.5 1745.0Q5788 1747 5788 1749Q5790 1752 5793.5 1757.5Q5797 1763 5800.5 1769.5Q5804 1776 5807.0 1781.5Q5810 1787 5811 1790V1795Q5811 1800 5810.5 1808.5Q5810 1817 5808.0 1825.5Q5806 1834 5801.5 1841.5Q5797 1849 5788 1852Q5749 1857 5707.5 1862.5Q5666 1868 5624 1868Q5614 1868 5606.5 1865.5Q5599 1863 5592.5 1860.0Q5586 1857 5579.0 1854.5Q5572 1852 5563 1852Q5555 1852 5549.0 1856.5Q5543 1861 5537.0 1867.0Q5531 1873 5524.5 1877.5Q5518 1882 5510 1882Q5502 1882 5495.0 1878.5Q5488 1875 5480.5 1870.5Q5473 1866 5465.5 1862.5Q5458 1859 5449 1859ZM6064 1859H6057Q6022 1866 5986.0 1870.5Q5950 1875 5913 1875Q5884 1875 5867.5 1863.0Q5851 1851 5836 1825Q5831 1818 5830.0 1815.0Q5829 1812 5829 1804Q5829 1796 5835.0 1789.0Q5841 1782 5849.5 1776.0Q5858 1770 5867.5 1766.5Q5877 1763 5884 1762H5967Q5971 1762 5979.0 1756.5Q5987 1751 5996.0 1744.5Q6005 1738 6012.5 1731.0Q6020 1724 6022 1721Q6024 1720 6026.5 1714.0Q6029 1708 6031.0 1701.0Q6033 1694 6034.5 1688.0Q6036 1682 6036 1679Q6035 1664 6034.0 1648.0Q6033 1632 6033 1615Q6033 1557 6038.0 1498.0Q6043 1439 6043 1382V1363V1313Q6044 1310 6045.0 1300.0Q6046 1290 6047.0 1278.0Q6048 1266 6049.0 1256.0Q6050 1246 6052 1243V1228Q6052 1208 6047.5 1188.5Q6043 1169 6043 1148Q6043 1134 6044.5 1126.0Q6046 1118 6057 1105Q6055 1098 6055.0 1080.5Q6055 1063 6055 1043Q6055 1023 6055.0 1005.0Q6055 987 6057 979Q6057 977 6060.5 966.0Q6064 955 6064 951V941Q6064 933 6063.0 926.5Q6062 920 6057 910V771Q6056 769 6054.0 763.5Q6052 758 6050.0 751.5Q6048 745 6046.0 739.0Q6044 733 6043 731V719Q6043 699 6047.5 679.5Q6052 660 6052 640Q6052 615 6047.5 600.5Q6043 586 6036 564Q6030 540 6022.0 529.0Q6014 518 5988 515Q5983 515 5971.5 514.0Q5960 513 5946.5 511.5Q5933 510 5921.0 509.0Q5909 508 5905 508Q5901 506 5890.5 495.5Q5880 485 5875 481V467V451Q5878 449 5886.5 442.5Q5895 436 5904.0 428.5Q5913 421 5921.0 414.0Q5929 407 5932 404Q5934 403 5940.0 400.5Q5946 398 5948 398Q5950 397 5960.0 396.5Q5970 396 5982.0 395.0Q5994 394 6004.0 393.0Q6014 392 6017 391Q6018 390 6025.0 385.0Q6032 380 6040.5 373.5Q6049 367 6055.5 361.5Q6062 356 6064 354Q6066 354 6072.0 353.5Q6078 353 6084.5 352.0Q6091 351 6097.0 350.0Q6103 349 6105 347Q6108 347 6116.0 342.5Q6124 338 6133.5 333.5Q6143 329 6151.0 324.5Q6159 320 6161 320H6169Q6188 320 6196.0 329.0Q6204 338 6218 347Q6224 352 6232.0 355.5Q6240 359 6247.5 364.0Q6255 369 6260.0 376.0Q6265 383 6265 394V398Q6258 431 6251.0 466.0Q6244 501 6244 536Q6244 549 6248.5 562.0Q6253 575 6253 588V593Q6251 595 6248.5 602.5Q6246 610 6244 612V806Q6244 808 6243.0 813.0Q6242 818 6240.5 823.5Q6239 829 6238.0 834.0Q6237 839 6237 840Q6237 845 6236.5 865.0Q6236 885 6235.0 907.5Q6234 930 6232.5 949.5Q6231 969 6230 974Q6230 975 6227.5 986.0Q6225 997 6225 1001V1133Q6225 1135 6224.0 1143.0Q6223 1151 6221.5 1160.0Q6220 1169 6219.0 1177.0Q6218 1185 6218 1186Q6218 1189 6217.0 1195.0Q6216 1201 6216 1204Q6216 1240 6220.5 1275.5Q6225 1311 6225 1347V1375Q6225 1377 6223.0 1382.0Q6221 1387 6218.0 1393.0Q6215 1399 6212.5 1404.0Q6210 1409 6209 1410Q6209 1414 6208.0 1429.0Q6207 1444 6206.0 1461.5Q6205 1479 6204.0 1494.0Q6203 1509 6202 1513Q6202 1515 6201.0 1520.5Q6200 1526 6198.5 1531.5Q6197 1537 6196.0 1542.0Q6195 1547 6195 1548V1558Q6195 1583 6200.0 1606.0Q6205 1629 6209 1652Q6210 1654 6211.0 1661.5Q6212 1669 6213.5 1677.0Q6215 1685 6216.0 1692.5Q6217 1700 6218 1702Q6220 1707 6227.5 1716.5Q6235 1726 6237 1726H6363Q6365 1726 6378.0 1732.0Q6391 1738 6398 1743Q6400 1743 6401.5 1745.0Q6403 1747 6403 1749Q6405 1752 6408.5 1757.5Q6412 1763 6415.5 1769.5Q6419 1776 6422.0 1781.5Q6425 1787 6426 1790V1795Q6426 1800 6425.5 1808.5Q6425 1817 6423.0 1825.5Q6421 1834 6416.5 1841.5Q6412 1849 6403 1852Q6364 1857 6322.5 1862.5Q6281 1868 6239 1868Q6229 1868 6221.5 1865.5Q6214 1863 6207.5 1860.0Q6201 1857 6194.0 1854.5Q6187 1852 6178 1852Q6170 1852 6164.0 1856.5Q6158 1861 6152.0 1867.0Q6146 1873 6139.5 1877.5Q6133 1882 6125 1882Q6117 1882 6110.0 1878.5Q6103 1875 6095.5 1870.5Q6088 1866 6080.5 1862.5Q6073 1859 6064 1859ZM7381 1506Q7382 1513 7383.0 1530.0Q7384 1547 7385.0 1565.5Q7386 1584 7387.0 1601.0Q7388 1618 7389 1624Q7391 1645 7394.0 1665.0Q7397 1685 7403.0 1703.5Q7409 1722 7420.5 1737.5Q7432 1753 7450 1764H7493H7534Q7536 1763 7542.5 1761.0Q7549 1759 7555.5 1757.0Q7562 1755 7568.0 1752.5Q7574 1750 7576 1749Q7579 1749 7587.0 1748.0Q7595 1747 7604.0 1746.0Q7613 1745 7621.0 1744.0Q7629 1743 7631 1743Q7663 1737 7688.0 1725.5Q7713 1714 7735.5 1698.5Q7758 1683 7779.5 1664.0Q7801 1645 7827 1624Q7837 1616 7846.0 1610.0Q7855 1604 7863.0 1598.5Q7871 1593 7879.5 1586.5Q7888 1580 7896 1570Q7898 1568 7900.5 1562.5Q7903 1557 7903 1555Q7905 1552 7915.0 1542.0Q7925 1532 7937.0 1520.5Q7949 1509 7959.0 1499.0Q7969 1489 7972 1486Q7973 1484 7977.0 1479.0Q7981 1474 7985.5 1469.0Q7990 1464 7994.0 1459.0Q7998 1454 8000 1451Q8011 1434 8012.5 1416.0Q8014 1398 8021 1382Q8022 1380 8025.5 1375.0Q8029 1370 8032.5 1364.0Q8036 1358 8039.0 1353.5Q8042 1349 8043 1347Q8050 1331 8055.5 1309.0Q8061 1287 8064.5 1263.5Q8068 1240 8069.5 1217.5Q8071 1195 8071 1178Q8071 1174 8070.5 1166.0Q8070 1158 8070.0 1150.5Q8070 1143 8069.5 1137.5Q8069 1132 8069 1131Q8069 1129 8065.5 1121.5Q8062 1114 8062 1112V1100Q8062 1086 8066.5 1073.0Q8071 1060 8071 1046Q8071 1021 8060.0 998.5Q8049 976 8034.5 954.5Q8020 933 8006.0 911.5Q7992 890 7986 866Q7985 866 7984.0 861.0Q7983 856 7982.5 850.5Q7982 845 7981.5 839.5Q7981 834 7981 832Q7978 828 7972.5 819.0Q7967 810 7960.0 800.0Q7953 790 7947.0 781.0Q7941 772 7938 769Q7903 760 7879.0 739.0Q7855 718 7827 700Q7824 699 7818.0 696.0Q7812 693 7806.5 689.5Q7801 686 7797.0 683.5Q7793 681 7792 681Q7778 670 7762.5 654.0Q7747 638 7730 631Q7727 630 7718.0 627.0Q7709 624 7698.0 620.5Q7687 617 7678.0 614.0Q7669 611 7666 610Q7664 610 7657.5 607.0Q7651 604 7642.5 600.0Q7634 596 7627.0 593.0Q7620 590 7619 590H7595H7534Q7533 590 7521.0 587.0Q7509 584 7507 584Q7505 584 7503 583Q7499 581 7496 581Q7481 581 7464.5 583.5Q7448 586 7434.0 592.5Q7420 599 7409.5 610.0Q7399 621 7396 638Q7395 641 7394.0 650.0Q7393 659 7392.0 669.5Q7391 680 7390.0 690.5Q7389 701 7389 707Q7389 709 7388.0 711.5Q7387 714 7387 716Q7387 719 7388 720Q7388 722 7389 723Q7389 724 7391.5 732.0Q7394 740 7396 742L7393 930V965L7389 1140Q7394 1146 7395.0 1152.0Q7396 1158 7396 1166Q7396 1188 7389.5 1210.5Q7383 1233 7381 1256V1278V1325Q7381 1343 7379.5 1361.5Q7378 1380 7375 1394Q7375 1396 7373.0 1402.5Q7371 1409 7368.0 1416.5Q7365 1424 7363.0 1430.0Q7361 1436 7361 1437V1446Q7361 1463 7367.5 1478.0Q7374 1493 7381 1506ZM7180 1859Q7166 1859 7156.0 1860.0Q7146 1861 7133 1868H6991Q6990 1868 6985.5 1866.5Q6981 1865 6975.5 1862.5Q6970 1860 6965.0 1857.0Q6960 1854 6957 1852Q6948 1844 6946.5 1833.5Q6945 1823 6945 1813V1804Q6945 1799 6945.5 1793.0Q6946 1787 6951 1783Q6953 1782 6965.0 1777.5Q6977 1773 6979 1771Q6980 1770 6984.0 1766.0Q6988 1762 6992.5 1757.0Q6997 1752 7001.0 1748.0Q7005 1744 7007 1743H7021Q7032 1743 7041.0 1746.0Q7050 1749 7060 1749Q7079 1749 7096.0 1747.5Q7113 1746 7133 1743Q7160 1738 7171.5 1720.0Q7183 1702 7187 1674Q7187 1672 7188.5 1659.5Q7190 1647 7191.0 1630.5Q7192 1614 7193.5 1597.5Q7195 1581 7195 1570V1562Q7195 1555 7194.0 1551.5Q7193 1548 7187 1541V1489V1437Q7187 1433 7189.5 1415.5Q7192 1398 7195.0 1378.0Q7198 1358 7200.0 1341.0Q7202 1324 7202 1320V1186Q7202 1186 7203.0 1181.5Q7204 1177 7205.0 1172.5Q7206 1168 7207.0 1163.5Q7208 1159 7208 1159V1157V1152Q7201 1113 7194.0 1078.5Q7187 1044 7187 1003V951Q7187 950 7188.0 945.5Q7189 941 7190.5 936.5Q7192 932 7193.5 928.0Q7195 924 7195 923V852V827Q7195 824 7196.0 814.5Q7197 805 7198.5 794.5Q7200 784 7201.0 774.5Q7202 765 7202 763V699V645Q7201 642 7198.5 633.0Q7196 624 7192.5 614.5Q7189 605 7186.0 596.0Q7183 587 7180 584Q7174 582 7159.0 580.0Q7144 578 7127.5 575.5Q7111 573 7096.5 571.5Q7082 570 7076 569Q7057 567 7037.5 567.0Q7018 567 7001.5 562.5Q6985 558 6974.5 545.5Q6964 533 6964 506V500Q6964 495 6965.0 490.5Q6966 486 6972 486Q6977 485 6990.0 481.5Q7003 478 7017.5 474.5Q7032 471 7045.0 468.5Q7058 466 7064 465H7092Q7096 465 7101.0 464.0Q7106 463 7112 463Q7120 463 7127.0 465.0Q7134 467 7138 472Q7149 473 7176.0 475.0Q7203 477 7233.0 479.0Q7263 481 7289.5 483.0Q7316 485 7327 486H7334Q7368 486 7399.5 481.0Q7431 476 7465 472H7467H7472Q7482 473 7509.0 475.0Q7536 477 7566.0 479.0Q7596 481 7623.0 483.0Q7650 485 7661 486Q7662 486 7670.0 488.5Q7678 491 7680 493H7688H7695Q7697 493 7708.0 489.5Q7719 486 7723 486L7725 484Q7726 484 7726.5 484.5Q7727 485 7728 485Q7729 486 7730 486Q7732 486 7740.5 489.5Q7749 493 7751 493Q7755 493 7771.0 496.0Q7787 499 7806.0 502.0Q7825 505 7841.0 508.0Q7857 511 7861 512Q7863 514 7871.5 516.5Q7880 519 7882 520Q7883 520 7887.0 522.0Q7891 524 7895.5 527.0Q7900 530 7903.5 532.0Q7907 534 7908 534Q7912 536 7923.5 538.5Q7935 541 7938 541Q7939 543 7947.5 547.5Q7956 552 7958 555Q7960 556 7966.5 561.0Q7973 566 7979.5 572.0Q7986 578 7992.0 583.5Q7998 589 8000 590Q8013 600 8027.5 603.0Q8042 606 8055 619Q8061 624 8072.5 635.0Q8084 646 8096.0 658.0Q8108 670 8118.0 680.0Q8128 690 8131 693Q8134 696 8143.0 708.5Q8152 721 8162.5 735.0Q8173 749 8182.5 761.0Q8192 773 8194 776Q8196 778 8201.5 783.5Q8207 789 8209 792Q8221 807 8227.0 823.0Q8233 839 8236.5 855.5Q8240 872 8243.0 889.0Q8246 906 8251 923Q8251 924 8253.0 928.0Q8255 932 8257.0 936.5Q8259 941 8261.0 945.5Q8263 950 8263 951Q8265 953 8267.5 960.5Q8270 968 8271 970Q8279 991 8286.5 1004.0Q8294 1017 8300.0 1029.0Q8306 1041 8309.5 1055.5Q8313 1070 8313 1095Q8313 1109 8308.5 1121.0Q8304 1133 8299.0 1145.0Q8294 1157 8289.5 1169.5Q8285 1182 8285 1195Q8285 1218 8288.5 1240.0Q8292 1262 8292 1285V1313Q8292 1313 8290.0 1317.0Q8288 1321 8285.0 1325.5Q8282 1330 8280.0 1334.5Q8278 1339 8278 1340V1352V1382Q8277 1384 8271.0 1392.5Q8265 1401 8263 1403Q8252 1423 8247.0 1448.0Q8242 1473 8235 1493Q8228 1519 8208.0 1539.5Q8188 1560 8175 1583Q8152 1621 8121.0 1658.0Q8090 1695 8055 1721Q8054 1723 8048.0 1726.0Q8042 1729 8035.0 1732.5Q8028 1736 8022.0 1739.0Q8016 1742 8015 1743Q7998 1753 7984.0 1765.0Q7970 1777 7951 1783Q7917 1799 7882.0 1810.5Q7847 1822 7820 1847Q7811 1848 7789.0 1849.5Q7767 1851 7743.0 1853.5Q7719 1856 7697.0 1858.0Q7675 1860 7666 1861Q7664 1861 7653.0 1864.5Q7642 1868 7638 1868Q7631 1869 7611.0 1870.0Q7591 1871 7567.5 1872.0Q7544 1873 7523.0 1874.0Q7502 1875 7493 1875H7403H7318Q7284 1873 7250.0 1866.0Q7216 1859 7180 1859ZM8527 666Q8524 663 8515.0 654.0Q8506 645 8496.5 634.5Q8487 624 8478.0 615.0Q8469 606 8466 603Q8458 597 8447.5 595.0Q8437 593 8425.5 591.0Q8414 589 8402.5 583.0Q8391 577 8381 562V558Q8381 549 8387.0 542.5Q8393 536 8402 534Q8448 526 8492.5 522.0Q8537 518 8582 512Q8584 512 8593.0 509.0Q8602 506 8605 506H8610H8617Q8619 506 8625.5 507.0Q8632 508 8639.0 509.0Q8646 510 8651.5 511.0Q8657 512 8658 512Q8665 513 8680.0 514.0Q8695 515 8714 515Q8732 515 8748.0 514.0Q8764 513 8771 512Q8791 518 8802.5 537.5Q8814 557 8814 577Q8814 579 8813.5 582.0Q8813 585 8813 588Q8812 592 8812 596Q8811 598 8805.5 603.5Q8800 609 8794.0 614.5Q8788 620 8783.0 625.0Q8778 630 8778 631Q8773 639 8772.0 648.5Q8771 658 8771 667V681V707Q8771 709 8773.0 713.0Q8775 717 8777.0 721.5Q8779 726 8781.0 730.0Q8783 734 8783 735Q8784 737 8785.5 742.5Q8787 748 8788.0 753.5Q8789 759 8789.5 764.0Q8790 769 8790 769Q8800 802 8812.5 832.5Q8825 863 8833 896Q8838 916 8840.5 941.0Q8843 966 8852 986Q8853 986 8856.5 990.0Q8860 994 8863.5 998.5Q8867 1003 8870.5 1007.5Q8874 1012 8874 1013Q8875 1016 8878.5 1021.5Q8882 1027 8885.5 1034.0Q8889 1041 8891.5 1046.5Q8894 1052 8895 1055Q8895 1057 8897.0 1064.0Q8899 1071 8901.5 1079.0Q8904 1087 8906.0 1094.0Q8908 1101 8909 1103Q8910 1105 8913.0 1110.0Q8916 1115 8919.5 1121.0Q8923 1127 8926.0 1132.5Q8929 1138 8930 1140Q8936 1153 8937.5 1166.5Q8939 1180 8944 1193Q8949 1212 8960.5 1226.0Q8972 1240 8978 1256Q8980 1258 8982.5 1267.0Q8985 1276 8985 1278Q8986 1281 8990.5 1290.0Q8995 1299 8999.5 1309.0Q9004 1319 9008.0 1328.0Q9012 1337 9013 1340Q9014 1342 9015.0 1349.5Q9016 1357 9017.0 1365.0Q9018 1373 9019.0 1380.0Q9020 1387 9020 1389Q9021 1392 9025.5 1400.0Q9030 1408 9035.5 1416.5Q9041 1425 9047.0 1433.0Q9053 1441 9056 1444Q9075 1458 9101 1458Q9113 1458 9122.5 1447.0Q9132 1436 9139.5 1421.0Q9147 1406 9152.0 1390.5Q9157 1375 9160 1366Q9163 1360 9169.0 1343.0Q9175 1326 9182.5 1306.5Q9190 1287 9197.0 1269.0Q9204 1251 9207 1243Q9212 1230 9221.5 1218.5Q9231 1207 9236 1193Q9238 1191 9239.5 1179.5Q9241 1168 9241 1166Q9242 1164 9243.5 1155.5Q9245 1147 9246.0 1138.0Q9247 1129 9247.5 1121.0Q9248 1113 9248 1112Q9249 1110 9251.0 1104.5Q9253 1099 9256.0 1093.0Q9259 1087 9261.0 1082.5Q9263 1078 9264 1077Q9273 1051 9276.0 1029.5Q9279 1008 9279 979V958Q9279 942 9277.5 928.5Q9276 915 9271 901Q9269 900 9265.5 894.0Q9262 888 9258.5 881.0Q9255 874 9252.0 868.5Q9249 863 9248 861Q9248 858 9247.5 849.0Q9247 840 9246.0 829.0Q9245 818 9243.5 809.0Q9242 800 9241 797Q9241 796 9238.5 788.0Q9236 780 9233.0 770.5Q9230 761 9227.0 751.0Q9224 741 9222 735Q9220 733 9217.5 728.5Q9215 724 9214 723Q9211 718 9204.0 706.5Q9197 695 9189.5 682.5Q9182 670 9175.5 659.5Q9169 649 9167 645Q9160 635 9144.0 629.0Q9128 623 9108.0 619.0Q9088 615 9066.0 611.5Q9044 608 9026.0 604.0Q9008 600 8996.5 593.5Q8985 587 8985 576Q8986 573 8988 570Q8990 568 8991.0 565.5Q8992 563 8994 562Q9011 540 9033.0 528.5Q9055 517 9079.5 512.0Q9104 507 9129.5 505.0Q9155 503 9179 500Q9181 500 9186.5 499.0Q9192 498 9198.0 496.5Q9204 495 9208.5 494.0Q9213 493 9214 493H9233H9243Q9250 493 9256.5 494.0Q9263 495 9271 500H9335Q9387 500 9438.0 501.0Q9489 502 9540 506Q9552 511 9554.0 526.5Q9556 542 9556 553V562Q9550 575 9540.0 580.0Q9530 585 9518.5 586.5Q9507 588 9494.5 588.0Q9482 588 9471 590Q9470 590 9465.0 592.5Q9460 595 9457 596Q9454 599 9448.5 604.0Q9443 609 9438.0 615.0Q9433 621 9428.5 625.5Q9424 630 9423 631Q9416 639 9415.0 649.5Q9414 660 9414 671Q9414 673 9414.5 679.5Q9415 686 9418 688Q9419 695 9424.5 713.0Q9430 731 9436.5 750.5Q9443 770 9449.0 788.0Q9455 806 9457 813Q9458 815 9461.5 821.0Q9465 827 9469.0 833.5Q9473 840 9475.5 846.0Q9478 852 9478 854Q9489 879 9489.5 902.0Q9490 925 9492 951Q9494 964 9500.5 974.0Q9507 984 9515.0 993.0Q9523 1002 9530.0 1012.0Q9537 1022 9540 1034Q9541 1036 9542.0 1046.0Q9543 1056 9544.5 1068.0Q9546 1080 9547.0 1090.0Q9548 1100 9549 1103Q9549 1106 9551.5 1116.5Q9554 1127 9556 1131Q9557 1135 9560.5 1145.5Q9564 1156 9568.5 1168.0Q9573 1180 9577.0 1191.5Q9581 1203 9584 1209Q9584 1211 9586.0 1215.0Q9588 1219 9591 1221Q9596 1231 9605.5 1253.0Q9615 1275 9626.5 1297.5Q9638 1320 9650.0 1337.0Q9662 1354 9672 1354Q9680 1354 9682.5 1353.0Q9685 1352 9694 1347Q9698 1345 9704.5 1341.0Q9711 1337 9716 1333Q9722 1329 9729 1325Q9731 1323 9732.5 1312.0Q9734 1301 9734 1297Q9751 1252 9764.5 1205.5Q9778 1159 9791 1112Q9798 1087 9810.0 1062.5Q9822 1038 9826 1013Q9827 1010 9828.0 998.5Q9829 987 9830.0 974.5Q9831 962 9832.0 950.5Q9833 939 9833 936Q9833 933 9835.5 919.5Q9838 906 9838 901Q9841 891 9847.5 882.0Q9854 873 9861.0 864.5Q9868 856 9873.5 847.0Q9879 838 9881 827V792V776Q9881 776 9883.0 771.0Q9885 766 9888.0 760.0Q9891 754 9893.0 748.5Q9895 743 9895 742Q9900 725 9902.0 713.5Q9904 702 9904 685Q9904 649 9888.0 634.0Q9872 619 9849.0 611.5Q9826 604 9801.0 598.0Q9776 592 9757 576Q9754 574 9749.0 569.0Q9744 564 9738.5 558.5Q9733 553 9728.0 548.0Q9723 543 9722 541V534Q9722 516 9733.0 506.5Q9744 497 9759.5 492.5Q9775 488 9791.5 487.0Q9808 486 9819 486Q9827 485 9847.5 484.0Q9868 483 9891.5 482.0Q9915 481 9935.5 480.0Q9956 479 9964 477Q9967 477 9975.0 475.5Q9983 474 9985 472Q9987 472 9992.0 470.0Q9997 468 10003.0 465.0Q10009 462 10013.5 460.0Q10018 458 10020 458Q10022 458 10028.0 460.0Q10034 462 10041.0 465.0Q10048 468 10054.0 470.0Q10060 472 10061 472Q10080 477 10098.0 477.5Q10116 478 10134.5 478.0Q10153 478 10171.0 479.5Q10189 481 10208 486Q10210 486 10221.0 490.5Q10232 495 10236 500Q10243 505 10257.5 512.0Q10272 519 10277 527V551Q10277 578 10268.0 590.0Q10259 602 10245.0 606.5Q10231 611 10212.0 612.0Q10193 613 10174 619Q10172 619 10166.0 621.5Q10160 624 10152.5 627.5Q10145 631 10138.5 634.0Q10132 637 10130 638Q10129 640 10121.0 642.5Q10113 645 10111 645Q10097 653 10088.5 666.5Q10080 680 10073.0 696.0Q10066 712 10060.5 728.0Q10055 744 10049 757Q10047 759 10041.0 767.0Q10035 775 10034 776Q10023 796 10016.5 818.0Q10010 840 10003.0 862.0Q9996 884 9987.0 905.0Q9978 926 9964 944Q9960 994 9954.0 1035.5Q9948 1077 9930 1124Q9924 1140 9916.0 1153.0Q9908 1166 9900.5 1179.0Q9893 1192 9886.5 1205.5Q9880 1219 9876 1235Q9874 1237 9874 1250Q9874 1261 9875.0 1272.0Q9876 1283 9876 1285Q9871 1299 9862.5 1315.0Q9854 1331 9844.5 1347.5Q9835 1364 9826.0 1380.0Q9817 1396 9812 1410Q9810 1414 9808.0 1421.5Q9806 1429 9803 1429Q9803 1432 9802.5 1441.0Q9802 1450 9801.0 1461.0Q9800 1472 9799.5 1481.0Q9799 1490 9798 1493Q9798 1494 9794.5 1499.5Q9791 1505 9791 1506Q9790 1509 9787.0 1517.0Q9784 1525 9784 1527Q9784 1529 9782.0 1537.5Q9780 1546 9777.5 1555.5Q9775 1565 9772.5 1573.5Q9770 1582 9769 1583Q9769 1583 9767.5 1587.5Q9766 1592 9763.5 1596.5Q9761 1601 9759.0 1605.5Q9757 1610 9757 1610Q9754 1615 9750.5 1623.5Q9747 1632 9743 1640Q9739 1650 9734 1659Q9734 1662 9733.0 1671.0Q9732 1680 9731.5 1690.0Q9731 1700 9730.0 1709.0Q9729 1718 9729 1721Q9726 1738 9721.0 1763.0Q9716 1788 9706.5 1811.5Q9697 1835 9683.0 1851.5Q9669 1868 9648 1868H9636Q9629 1868 9622.5 1867.0Q9616 1866 9610 1861Q9603 1854 9590.0 1841.5Q9577 1829 9575 1825Q9574 1824 9570.0 1814.0Q9566 1804 9560.5 1791.0Q9555 1778 9549.0 1764.5Q9543 1751 9540 1743Q9527 1709 9525.5 1677.0Q9524 1645 9515 1610Q9504 1580 9494.5 1555.5Q9485 1531 9471 1501Q9459 1469 9450.0 1435.5Q9441 1402 9431.5 1369.0Q9422 1336 9410.0 1304.0Q9398 1272 9380 1243Q9375 1233 9372.0 1230.5Q9369 1228 9361 1228Q9353 1228 9348.5 1230.5Q9344 1233 9340 1243Q9338 1245 9334.5 1252.0Q9331 1259 9326.5 1268.0Q9322 1277 9317.5 1285.0Q9313 1293 9310 1297Q9309 1302 9306.0 1310.0Q9303 1318 9299.5 1325.5Q9296 1333 9293.5 1339.0Q9291 1345 9291 1347Q9291 1349 9289.5 1355.0Q9288 1361 9287.0 1368.0Q9286 1375 9285.0 1381.0Q9284 1387 9284 1389Q9283 1390 9278.0 1396.0Q9273 1402 9267.0 1408.5Q9261 1415 9255.5 1421.5Q9250 1428 9248 1429Q9237 1449 9233.0 1467.5Q9229 1486 9222 1506Q9213 1531 9205.5 1559.0Q9198 1587 9188 1610Q9187 1612 9184.0 1619.0Q9181 1626 9177.5 1634.0Q9174 1642 9171.0 1649.5Q9168 1657 9167 1659Q9154 1691 9146.5 1723.0Q9139 1755 9129.5 1786.0Q9120 1817 9105.0 1845.0Q9090 1873 9063 1896Q9061 1896 9050.0 1902.0Q9039 1908 9034 1910H9030H9028Q9024 1910 9019.5 1906.5Q9015 1903 9013 1903Q9010 1900 9003.0 1893.5Q8996 1887 8989.5 1880.0Q8983 1873 8977.5 1868.0Q8972 1863 8971 1861Q8971 1859 8968.0 1850.5Q8965 1842 8961.0 1832.5Q8957 1823 8954.0 1815.0Q8951 1807 8951 1806Q8934 1765 8916.0 1726.0Q8898 1687 8881 1645Q8870 1618 8863.0 1590.0Q8856 1562 8847 1536Q8822 1470 8801.0 1406.0Q8780 1342 8755 1278Q8755 1276 8752.5 1269.5Q8750 1263 8746.5 1255.5Q8743 1248 8740.0 1242.0Q8737 1236 8736 1235Q8734 1231 8728.0 1215.5Q8722 1200 8720 1193Q8720 1192 8718.5 1184.0Q8717 1176 8715.0 1166.5Q8713 1157 8711.0 1149.0Q8709 1141 8708 1140Q8707 1137 8701.5 1128.5Q8696 1120 8690.0 1110.5Q8684 1101 8679.0 1093.0Q8674 1085 8674 1083Q8671 1080 8669.0 1075.0Q8667 1070 8667 1069Q8666 1067 8665.0 1060.0Q8664 1053 8662.5 1044.5Q8661 1036 8660.0 1029.0Q8659 1022 8658 1020Q8647 978 8629.0 937.0Q8611 896 8598 854Q8597 852 8596.0 845.5Q8595 839 8593.5 832.0Q8592 825 8591.0 819.0Q8590 813 8589 813Q8589 811 8586.5 806.0Q8584 801 8582 797Q8564 763 8549.5 733.5Q8535 704 8527 666ZM11234 1209Q11259 1211 11285.5 1216.0Q11312 1221 11337 1221H11347Q11350 1218 11356.5 1211.0Q11363 1204 11371.0 1196.5Q11379 1189 11385.5 1182.5Q11392 1176 11395 1173Q11397 1173 11410.0 1164.5Q11423 1156 11430 1152Q11439 1148 11455.0 1140.0Q11471 1132 11480 1124Q11486 1118 11499.0 1104.5Q11512 1091 11525.0 1077.0Q11538 1063 11548.5 1050.5Q11559 1038 11561 1034Q11577 1013 11587.5 986.5Q11598 960 11603.0 931.5Q11608 903 11610.0 875.0Q11612 847 11612 823Q11612 806 11602.0 793.0Q11592 780 11584 763Q11582 762 11579.5 755.5Q11577 749 11573.5 742.0Q11570 735 11566.5 729.0Q11563 723 11561 723Q11561 719 11552.5 710.5Q11544 702 11542 700Q11542 699 11539.0 693.0Q11536 687 11532.5 679.5Q11529 672 11525.5 666.0Q11522 660 11520 659Q11520 658 11515.0 654.5Q11510 651 11503.5 646.5Q11497 642 11490.5 638.0Q11484 634 11480 631Q11478 629 11472.0 626.5Q11466 624 11465 624Q11464 623 11461.0 618.5Q11458 614 11455.0 609.5Q11452 605 11449.0 601.0Q11446 597 11446 596Q11444 596 11441 593Q11440 592 11439 590Q11436 589 11429.0 587.0Q11422 585 11414.0 582.5Q11406 580 11398.5 578.0Q11391 576 11388 576Q11387 576 11381.0 575.0Q11375 574 11368.0 572.5Q11361 571 11355.0 570.0Q11349 569 11347 569Q11345 568 11338.0 566.0Q11331 564 11323.0 561.0Q11315 558 11307.5 556.0Q11300 554 11298 553H11290H11278Q11276 556 11270.0 564.5Q11264 573 11257.0 582.0Q11250 591 11243.5 599.0Q11237 607 11234 610Q11232 614 11229.0 619.5Q11226 625 11223 631Q11219 638 11215 645V769Q11205 788 11201.5 810.0Q11198 832 11198 854Q11198 863 11198.0 872.0Q11198 881 11200 889Q11198 891 11193.5 898.5Q11189 906 11188 908V915V923Q11188 934 11189.5 952.5Q11191 971 11192.0 988.5Q11193 1006 11194.0 1019.5Q11195 1033 11195 1034Q11195 1036 11197.0 1041.5Q11199 1047 11201.5 1054.0Q11204 1061 11206.0 1067.0Q11208 1073 11209 1074V1103V1131Q11209 1133 11205.5 1137.5Q11202 1142 11200 1147Q11200 1148 11194.0 1156.0Q11188 1164 11188 1166V1169V1173Q11188 1174 11191 1177L11195 1181Q11196 1181 11205.0 1177.0Q11214 1173 11215 1173Q11229 1173 11229 1185Q11229 1189 11228.5 1191.5Q11228 1194 11228 1198Q11228 1207 11234 1209ZM10805 1790Q10804 1786 10811.5 1777.0Q10819 1768 10830.0 1759.5Q10841 1751 10852.0 1744.0Q10863 1737 10868 1737Q10871 1736 10881.0 1735.0Q10891 1734 10902.5 1733.0Q10914 1732 10924.0 1731.0Q10934 1730 10937 1730Q10939 1728 10949.5 1720.5Q10960 1713 10965 1709Q10966 1706 10972.0 1701.0Q10978 1696 10980 1693Q10980 1689 10980.5 1678.5Q10981 1668 10982.0 1655.5Q10983 1643 10984.5 1632.0Q10986 1621 10987 1617Q10987 1616 10989.0 1608.0Q10991 1600 10993.0 1590.5Q10995 1581 10997.0 1572.5Q10999 1564 10999 1562V1558Q10999 1543 10993.0 1528.0Q10987 1513 10987 1496Q10987 1475 10993.0 1454.0Q10999 1433 10999 1410V1401Q10999 1397 10998.0 1375.5Q10997 1354 10995.5 1329.5Q10994 1305 10993.0 1283.5Q10992 1262 10992 1256V1243Q10992 1234 10996.5 1225.0Q11001 1216 11007.0 1207.5Q11013 1199 11017.5 1189.5Q11022 1180 11022 1169Q11022 1160 11017.5 1150.0Q11013 1140 11013 1131Q11013 1118 11020.0 1107.0Q11027 1096 11027 1083Q11027 1062 11021.0 1032.0Q11015 1002 11015 977Q11013 968 11013.0 946.0Q11013 924 11013 899Q11013 874 11013.0 851.5Q11013 829 11015 820Q11007 808 11003.0 793.5Q10999 779 10999 766V763Q11000 762 11002.0 756.5Q11004 751 11007.0 745.0Q11010 739 11012.0 734.0Q11014 729 11015 728V692Q11015 667 11008.0 642.0Q11001 617 10980 603Q10975 603 10963.5 601.0Q10952 599 10940.0 597.0Q10928 595 10917.0 593.0Q10906 591 10902 590Q10901 588 10893.0 584.5Q10885 581 10883 581Q10881 581 10871.0 582.0Q10861 583 10852 583Q10842 583 10840 581Q10832 580 10824.5 574.0Q10817 568 10811.0 560.0Q10805 552 10801.5 543.0Q10798 534 10798 527Q10798 515 10804.0 504.0Q10810 493 10819.0 484.5Q10828 476 10839.0 471.0Q10850 466 10861 465Q10864 464 10877.5 463.0Q10891 462 10908.0 460.5Q10925 459 10941.0 458.0Q10957 457 10965 456H10982H10999Q11002 457 11013.5 458.5Q11025 460 11038.0 461.5Q11051 463 11062.5 464.0Q11074 465 11077 465H11307Q11309 465 11319.0 468.5Q11329 472 11333 472H11337Q11355 472 11369.0 467.5Q11383 463 11406 463Q11414 463 11428.5 464.0Q11443 465 11446 465Q11447 465 11458.0 468.5Q11469 472 11473 472Q11491 474 11514.5 475.5Q11538 477 11555 484Q11593 498 11624.5 517.0Q11656 536 11688 562Q11708 577 11731.0 607.5Q11754 638 11774.5 674.0Q11795 710 11810.0 746.5Q11825 783 11828 811V842V854Q11828 856 11831.5 867.0Q11835 878 11835 880V884V889Q11828 926 11819.5 962.0Q11811 998 11798.5 1032.5Q11786 1067 11767.5 1099.0Q11749 1131 11722 1159Q11722 1159 11719.5 1161.5Q11717 1164 11713.5 1166.5Q11710 1169 11706.5 1171.0Q11703 1173 11702 1173Q11700 1174 11693.0 1183.0Q11686 1192 11677.0 1203.0Q11668 1214 11659.0 1225.5Q11650 1237 11646 1243Q11644 1245 11638.0 1253.0Q11632 1261 11632 1263Q11610 1264 11597.0 1265.5Q11584 1267 11570 1278Q11558 1284 11541.0 1290.5Q11524 1297 11505.5 1302.0Q11487 1307 11469.0 1310.0Q11451 1313 11437 1313Q11411 1313 11388.0 1303.5Q11365 1294 11342 1290H11312Q11292 1288 11277.0 1278.5Q11262 1269 11241 1269H11233Q11225 1269 11216.0 1271.0Q11207 1273 11200 1278Q11200 1281 11198.5 1288.0Q11197 1295 11194.5 1302.5Q11192 1310 11190.0 1316.5Q11188 1323 11188 1325Q11187 1327 11185.0 1332.5Q11183 1338 11180.5 1343.5Q11178 1349 11176.0 1354.0Q11174 1359 11174 1359Q11172 1359 11172 1363V1366Q11172 1368 11172.0 1370.5Q11172 1373 11174 1375Q11174 1377 11181.0 1388.0Q11188 1399 11188 1401Q11188 1403 11189.5 1409.5Q11191 1416 11192.0 1423.5Q11193 1431 11194.0 1437.0Q11195 1443 11195 1444L11200 1458L11203 1463Q11203 1476 11196.5 1492.5Q11190 1509 11188 1520Q11187 1522 11185.0 1528.0Q11183 1534 11180.5 1541.0Q11178 1548 11176.0 1554.0Q11174 1560 11174 1562Q11174 1565 11176.0 1575.0Q11178 1585 11180.5 1597.0Q11183 1609 11185.0 1619.5Q11187 1630 11188 1633Q11191 1647 11192.0 1662.0Q11193 1677 11196.5 1692.0Q11200 1707 11207.5 1720.0Q11215 1733 11229 1743Q11233 1746 11244.0 1751.0Q11255 1756 11257 1756H11347Q11352 1756 11363.0 1763.5Q11374 1771 11384.5 1780.5Q11395 1790 11403.0 1798.0Q11411 1806 11411 1807V1813Q11403 1827 11396.5 1836.0Q11390 1845 11382.5 1851.5Q11375 1858 11365.5 1861.5Q11356 1865 11342 1868Q11333 1868 11311.5 1867.0Q11290 1866 11267 1866Q11244 1866 11223.5 1867.0Q11203 1868 11195 1868Q11190 1868 11176.5 1870.5Q11163 1873 11160 1875H10923Q10910 1866 10899 1866Q10894 1866 10889.0 1867.0Q10884 1868 10876 1868H10868Q10838 1863 10823.0 1841.5Q10808 1820 10805 1790ZM12041 657Q12041 618 12062.5 581.5Q12084 545 12119 527Q12123 527 12135.0 526.0Q12147 525 12160.0 524.0Q12173 523 12185.0 522.5Q12197 522 12202 522Q12202 519 12205 519Q12221 519 12232.5 525.5Q12244 532 12253.0 542.0Q12262 552 12269.5 564.5Q12277 577 12283 588Q12286 593 12289.5 599.5Q12293 606 12296.5 613.0Q12300 620 12302.5 625.0Q12305 630 12305 631Q12305 634 12306.0 649.5Q12307 665 12307 673Q12307 703 12298.0 730.5Q12289 758 12271.5 779.5Q12254 801 12229.5 814.0Q12205 827 12174 827Q12171 827 12163.5 826.0Q12156 825 12151 825Q12132 806 12112.5 788.0Q12093 770 12077.0 750.5Q12061 731 12051.0 708.5Q12041 686 12041 657ZM11959 1807Q11959 1789 11970.0 1776.5Q11981 1764 11996.0 1753.0Q12011 1742 12026.0 1730.5Q12041 1719 12049 1702Q12054 1690 12056.0 1677.0Q12058 1664 12058 1650Q12058 1637 12057.0 1625.0Q12056 1613 12056 1602V1591Q12056 1589 12059.5 1577.0Q12063 1565 12063 1564V1487Q12063 1486 12064.0 1480.0Q12065 1474 12066.5 1467.5Q12068 1461 12069.0 1455.0Q12070 1449 12070 1448Q12070 1445 12066.5 1433.0Q12063 1421 12063 1418V1415V1413Q12063 1411 12065.0 1405.0Q12067 1399 12069.0 1392.0Q12071 1385 12073.0 1379.0Q12075 1373 12075 1371Q12075 1370 12077.0 1355.5Q12079 1341 12079 1332Q12079 1304 12076.0 1280.0Q12073 1256 12056 1233Q12053 1230 12044.5 1219.5Q12036 1209 12027.0 1197.5Q12018 1186 12010.0 1176.5Q12002 1167 12001 1164Q12001 1162 11995.0 1149.0Q11989 1136 11987 1129V1124Q11987 1116 11993.0 1108.0Q11999 1100 12006 1095Q12026 1081 12048.0 1068.0Q12070 1055 12091 1045Q12093 1045 12104.5 1042.5Q12116 1040 12119 1038Q12121 1037 12131.0 1032.0Q12141 1027 12152.0 1021.0Q12163 1015 12173.0 1009.5Q12183 1004 12186 1003Q12190 1003 12202.0 1002.0Q12214 1001 12219 1001Q12224 1001 12232.5 1002.0Q12241 1003 12243 1003L12255 1025Q12256 1025 12257.0 1034.0Q12258 1043 12259.5 1055.0Q12261 1067 12262.0 1080.0Q12263 1093 12264 1102V1112Q12264 1121 12263.0 1126.5Q12262 1132 12255 1141Q12255 1148 12256.0 1164.0Q12257 1180 12257 1200Q12257 1220 12256.0 1237.0Q12255 1254 12255 1261Q12255 1263 12253.0 1271.0Q12251 1279 12249.0 1288.0Q12247 1297 12245.0 1305.0Q12243 1313 12243 1314V1332Q12243 1343 12246.5 1350.5Q12250 1358 12253.5 1364.5Q12257 1371 12260.5 1377.0Q12264 1383 12264 1391Q12264 1408 12262.0 1427.0Q12260 1446 12248 1460Q12250 1471 12250.0 1481.5Q12250 1492 12250 1503Q12250 1530 12248.0 1557.5Q12246 1585 12243 1614Q12243 1615 12239.5 1626.5Q12236 1638 12236 1640V1657V1667Q12236 1675 12237.0 1682.5Q12238 1690 12243 1695L12333 1785Q12333 1787 12335.5 1795.0Q12338 1803 12340 1806V1813Q12340 1823 12335.5 1834.0Q12331 1845 12323.0 1854.0Q12315 1863 12305.0 1869.0Q12295 1875 12283 1875H12229H12174Q12164 1875 12142.5 1874.0Q12121 1873 12098.0 1871.5Q12075 1870 12055.0 1869.0Q12035 1868 12029 1868Q11999 1866 11979.0 1852.5Q11959 1839 11959 1807ZM12480 1434V1380Q12481 1378 12486.5 1370.0Q12492 1362 12492 1358Q12494 1354 12499.5 1338.5Q12505 1323 12510.5 1305.5Q12516 1288 12521.0 1273.0Q12526 1258 12526 1254Q12542 1215 12562.0 1182.5Q12582 1150 12611 1122Q12618 1116 12629.5 1105.5Q12641 1095 12653.0 1083.5Q12665 1072 12674.5 1063.5Q12684 1055 12687 1053Q12699 1045 12712.5 1042.5Q12726 1040 12738 1031Q12738 1030 12743.0 1026.5Q12748 1023 12753.5 1018.5Q12759 1014 12764.5 1009.5Q12770 1005 12772 1003Q12774 1002 12777 1001Q12782 999 12784 996Q12790 994 12798.5 991.0Q12807 988 12814.5 985.0Q12822 982 12828.0 979.5Q12834 977 12834 977Q12903 978 12941.0 978.5Q12979 979 12997.0 980.0Q13015 981 13019.0 981.5Q13023 982 13025 982Q13034 985 13043.0 986.0Q13052 987 13063 991Q13064 991 13068.0 993.0Q13072 995 13076.5 997.0Q13081 999 13084.5 1001.0Q13088 1003 13089 1003Q13098 1007 13111.0 1009.5Q13124 1012 13132 1019Q13151 1036 13170.0 1053.0Q13189 1070 13203.5 1089.5Q13218 1109 13227.0 1132.0Q13236 1155 13236 1183Q13236 1199 13225.5 1215.5Q13215 1232 13199.0 1245.5Q13183 1259 13164.5 1267.5Q13146 1276 13130 1276H13118Q13116 1275 13108.0 1270.5Q13100 1266 13090.0 1261.0Q13080 1256 13070.0 1250.5Q13060 1245 13054 1242Q13049 1238 13046.0 1230.0Q13043 1222 13041.0 1214.0Q13039 1206 13038.0 1198.0Q13037 1190 13035 1185Q13029 1165 13020.0 1144.5Q13011 1124 12998.0 1108.0Q12985 1092 12966.5 1082.0Q12948 1072 12923 1072Q12895 1072 12867.0 1084.5Q12839 1097 12819 1115Q12816 1118 12805.0 1127.5Q12794 1137 12781.0 1147.5Q12768 1158 12757.0 1167.0Q12746 1176 12743 1178Q12729 1189 12725.5 1206.5Q12722 1224 12715 1242Q12715 1242 12713.0 1245.5Q12711 1249 12709.0 1253.5Q12707 1258 12705.0 1262.5Q12703 1267 12703 1268Q12687 1304 12683.5 1342.5Q12680 1381 12680 1420V1442V1484Q12687 1495 12691.0 1508.0Q12695 1521 12698.5 1535.0Q12702 1549 12705.5 1562.5Q12709 1576 12715 1588Q12727 1611 12740.5 1626.5Q12754 1642 12768.5 1655.0Q12783 1668 12799.0 1679.5Q12815 1691 12834 1705L12836 1709Q12837 1712 12841 1712Q12843 1715 12848 1716Q12851 1718 12853 1719H13028Q13033 1718 13037 1716Q13041 1715 13044.0 1714.0Q13047 1713 13049 1712Q13069 1704 13087.5 1701.0Q13106 1698 13123 1692Q13132 1689 13143.0 1683.5Q13154 1678 13165.0 1672.0Q13176 1666 13187.0 1661.5Q13198 1657 13208 1657Q13210 1657 13212.5 1658.5Q13215 1660 13215 1662Q13215 1665 13212.5 1672.5Q13210 1680 13208 1685Q13195 1720 13171.5 1750.0Q13148 1780 13117.5 1803.5Q13087 1827 13052.0 1843.0Q13017 1859 12980 1865Q12978 1865 12970.0 1866.0Q12962 1867 12952.5 1868.0Q12943 1869 12934.5 1870.5Q12926 1872 12923 1873Q12921 1873 12913.0 1879.0Q12905 1885 12904 1885H12876Q12845 1885 12810.5 1877.0Q12776 1869 12742.5 1855.0Q12709 1841 12678.5 1822.5Q12648 1804 12625 1782Q12624 1781 12618.0 1773.5Q12612 1766 12604.5 1756.5Q12597 1747 12589.5 1736.5Q12582 1726 12577 1719Q12526 1653 12503.0 1585.0Q12480 1517 12480 1434ZM13557 1614Q13557 1635 13571.5 1646.5Q13586 1658 13606.0 1664.0Q13626 1670 13648.0 1672.5Q13670 1675 13684 1679H13685Q13705 1679 13727.0 1666.5Q13749 1654 13758 1640Q13761 1635 13766.0 1626.0Q13771 1617 13775.5 1608.0Q13780 1599 13783.5 1592.0Q13787 1585 13787 1583V1451L13781 1437Q13779 1437 13772.5 1436.5Q13766 1436 13763 1436Q13736 1436 13713.0 1449.5Q13690 1463 13668 1479Q13663 1482 13654.0 1488.5Q13645 1495 13636.5 1502.0Q13628 1509 13621.5 1514.5Q13615 1520 13614 1520Q13613 1521 13609.0 1526.0Q13605 1531 13600.5 1537.5Q13596 1544 13592.0 1551.0Q13588 1558 13585 1562Q13583 1564 13581.5 1569.0Q13580 1574 13580 1576Q13578 1577 13574.5 1581.0Q13571 1585 13567.5 1589.5Q13564 1594 13561.0 1598.5Q13558 1603 13557 1605ZM13770 1762Q13761 1762 13753.0 1767.0Q13745 1772 13737.5 1779.0Q13730 1786 13723.5 1793.5Q13717 1801 13711 1806Q13710 1806 13705.0 1808.0Q13700 1810 13696 1813Q13678 1820 13661.0 1829.5Q13644 1839 13627.0 1847.5Q13610 1856 13591.5 1862.0Q13573 1868 13554 1868H13523Q13521 1866 13512.5 1863.5Q13504 1861 13502 1859Q13501 1859 13496.0 1858.5Q13491 1858 13485.0 1857.0Q13479 1856 13473.5 1855.0Q13468 1854 13467 1852Q13462 1851 13451.0 1849.0Q13440 1847 13438 1847Q13426 1839 13412.0 1820.0Q13398 1801 13386.0 1778.0Q13374 1755 13365.5 1732.0Q13357 1709 13357 1693Q13357 1670 13365.0 1648.0Q13373 1626 13377 1605Q13407 1560 13436.0 1527.0Q13465 1494 13511 1467Q13511 1466 13516.0 1463.5Q13521 1461 13526.5 1458.5Q13532 1456 13537.5 1454.0Q13543 1452 13545 1451Q13555 1446 13566.0 1437.5Q13577 1429 13588.0 1420.5Q13599 1412 13609.0 1405.5Q13619 1399 13627 1397Q13629 1396 13637.5 1395.0Q13646 1394 13655.5 1393.0Q13665 1392 13673.0 1391.0Q13681 1390 13684 1389Q13685 1389 13693.0 1382.0Q13701 1375 13703 1375Q13706 1374 13718.5 1368.0Q13731 1362 13745.0 1355.0Q13759 1348 13771.5 1341.5Q13784 1335 13787 1333Q13797 1327 13803.0 1316.0Q13809 1305 13811.5 1293.0Q13814 1281 13814.5 1269.0Q13815 1257 13815 1247Q13815 1199 13802.5 1160.0Q13790 1121 13758 1083Q13756 1078 13747.5 1071.0Q13739 1064 13737 1064H13677Q13665 1075 13649.0 1083.5Q13633 1092 13627 1105Q13615 1127 13602.5 1152.0Q13590 1177 13585 1202Q13582 1205 13573.0 1211.5Q13564 1218 13554.5 1224.0Q13545 1230 13536.0 1235.5Q13527 1241 13523 1243Q13522 1243 13517.0 1243.5Q13512 1244 13505.5 1244.0Q13499 1244 13492.0 1244.5Q13485 1245 13481 1245Q13479 1245 13473.0 1244.5Q13467 1244 13460.0 1244.0Q13453 1244 13447.0 1243.5Q13441 1243 13438 1243Q13428 1237 13417.0 1228.5Q13406 1220 13397.0 1210.5Q13388 1201 13382.0 1189.5Q13376 1178 13376 1164Q13376 1149 13379.5 1138.0Q13383 1127 13388.5 1117.0Q13394 1107 13402.0 1097.5Q13410 1088 13419 1077Q13427 1066 13431.5 1058.5Q13436 1051 13447 1043Q13453 1038 13458.0 1036.5Q13463 1035 13468.5 1034.5Q13474 1034 13480.0 1033.0Q13486 1032 13495 1029Q13499 1028 13513.0 1020.5Q13527 1013 13543.5 1004.5Q13560 996 13574.0 988.5Q13588 981 13592 979Q13594 978 13600.0 977.5Q13606 977 13612.5 976.0Q13619 975 13625.0 974.5Q13631 974 13633 974Q13661 967 13686.5 955.5Q13712 944 13741 944H13753Q13795 951 13842.0 962.5Q13889 974 13926 1001Q13929 1004 13935.5 1009.5Q13942 1015 13948.5 1022.0Q13955 1029 13960.0 1034.5Q13965 1040 13966 1043Q13967 1044 13968.5 1050.0Q13970 1056 13971.0 1062.5Q13972 1069 13972.5 1075.5Q13973 1082 13973 1083Q13973 1086 13976.5 1095.0Q13980 1104 13984.0 1115.0Q13988 1126 13991.5 1135.0Q13995 1144 13995 1147Q13995 1147 13995.5 1164.0Q13996 1181 13996.5 1204.0Q13997 1227 13998.0 1251.0Q13999 1275 14000 1290V1295V1299Q13998 1302 13997 1305Q13995 1311 13995 1313Q13993 1315 13990.5 1323.5Q13988 1332 13988 1333Q13987 1336 13986.0 1351.5Q13985 1367 13984.0 1384.5Q13983 1402 13982.0 1417.5Q13981 1433 13981 1437Q13981 1440 13977.5 1448.0Q13974 1456 13973 1458Q13970 1476 13969.0 1489.5Q13968 1503 13967.0 1516.0Q13966 1529 13966.0 1542.0Q13966 1555 13966 1572V1624Q13968 1629 13973.5 1642.0Q13979 1655 13981 1659Q13988 1676 14003.5 1683.5Q14019 1691 14038.5 1694.5Q14058 1698 14078.0 1700.0Q14098 1702 14115.0 1706.5Q14132 1711 14143.0 1722.0Q14154 1733 14154 1754Q14154 1770 14138.5 1792.0Q14123 1814 14101.0 1834.0Q14079 1854 14055.0 1868.0Q14031 1882 14014 1882H13995Q13993 1882 13983.5 1878.5Q13974 1875 13973 1875Q13970 1874 13960.0 1873.0Q13950 1872 13938.0 1871.5Q13926 1871 13916.0 1870.0Q13906 1869 13903 1868Q13887 1862 13869.0 1844.5Q13851 1827 13833.5 1809.0Q13816 1791 13799.5 1776.5Q13783 1762 13770 1762Z" fill="currentColor" /></svg>