<svg viewBox="0 0 17819 1462" xmlns="http://www.w3.org/2000/svg"><path d="M319 1413Q266 1413 214.5 1417.5Q163 1422 111 1422H104Q92 1420 74.0 1417.5Q56 1415 39.5 1408.5Q23 1402 11.5 1391.0Q0 1380 0 1361Q0 1357 1.0 1350.0Q2 1343 7 1339Q9 1336 17.0 1334.0Q25 1332 28 1332Q56 1329 84.0 1328.0Q112 1327 139.0 1322.0Q166 1317 190.5 1305.0Q215 1293 235 1269Q234 1225 238.0 1182.5Q242 1140 242 1098Q242 1081 238.5 1067.0Q235 1053 235 1038V1020Q235 1017 236.0 1010.0Q237 1003 238.5 994.5Q240 986 241.0 979.0Q242 972 242 970V820Q242 818 243.0 812.5Q244 807 245.5 801.0Q247 795 248.0 790.5Q249 786 249 785Q249 783 249.5 774.5Q250 766 250.0 755.0Q250 744 250.5 733.0Q251 722 251 716Q251 712 250.5 701.5Q250 691 250.0 680.0Q250 669 249.5 659.5Q249 650 249 647Q249 643 246.5 632.0Q244 621 242 617V609Q242 593 250.0 579.0Q258 565 258 546V534Q258 525 256.0 516.5Q254 508 249 500V430Q249 394 253.5 360.0Q258 326 258 292V278Q257 277 255.5 272.5Q254 268 252.5 263.5Q251 259 250.0 255.0Q249 251 249 251Q249 246 252.5 235.5Q256 225 258 223V216Q258 198 244.0 181.0Q230 164 215 159Q206 158 183.0 154.0Q160 150 135.0 145.5Q110 141 87.5 137.0Q65 133 56 131Q32 126 19.5 112.0Q7 98 7 72Q7 51 24.5 39.5Q42 28 65.0 22.5Q88 17 112.0 16.0Q136 15 149 15H159Q163 15 178.5 17.0Q194 19 211.5 21.0Q229 23 244.0 25.0Q259 27 263 27Q268 29 282.0 29.0Q296 29 312 29Q327 29 341.0 29.0Q355 29 362 27Q373 34 386.5 35.0Q400 36 407 36Q448 36 486.0 28.0Q524 20 569 20H625Q637 28 650.0 33.5Q663 39 674.5 45.5Q686 52 693.5 62.0Q701 72 701 90Q701 98 698.0 107.5Q695 117 689.5 126.0Q684 135 676.0 141.0Q668 147 659 147Q637 151 615.0 153.0Q593 155 569 155Q544 155 520.0 153.0Q496 151 471 147Q469 147 467.5 151.5Q466 156 466 159Q466 161 467.0 166.5Q468 172 468.5 177.5Q469 183 470.0 188.0Q471 193 471 193V209Q471 220 467.5 229.0Q464 238 460.5 247.0Q457 256 453.5 264.5Q450 273 450 283V297Q452 300 454.5 309.0Q457 318 459 320V360V375Q460 380 462 384Q466 394 466 396Q468 423 469.5 447.0Q471 471 471 500Q471 532 460.5 563.5Q450 595 450 629V631Q451 633 453.5 638.5Q456 644 459.0 651.0Q462 658 464.0 664.5Q466 671 466 673V709Q466 747 458.0 783.5Q450 820 450 858Q450 907 454.5 954.5Q459 1002 459 1050V1136Q457 1141 454.5 1154.5Q452 1168 450 1171Q450 1172 449.0 1176.5Q448 1181 446.5 1185.5Q445 1190 444.0 1194.5Q443 1199 443 1200Q443 1202 444.0 1210.5Q445 1219 446.0 1229.5Q447 1240 448.0 1249.5Q449 1259 450 1263Q453 1277 460.0 1285.0Q467 1293 476.0 1297.5Q485 1302 496.0 1304.0Q507 1306 519 1309Q520 1311 526.5 1313.0Q533 1315 540.0 1317.5Q547 1320 553.5 1322.0Q560 1324 562 1325Q567 1326 580.5 1327.0Q594 1328 609.5 1329.0Q625 1330 639.0 1331.0Q653 1332 659 1332Q668 1338 670.5 1344.0Q673 1350 673 1359V1368Q673 1391 664.5 1402.0Q656 1413 639 1429Q636 1429 631.0 1432.5Q626 1436 625 1436H621H616Q541 1431 467.5 1422.0Q394 1413 319 1413ZM1048 1413H859Q855 1413 850.5 1406.5Q846 1400 842.0 1391.5Q838 1383 835.0 1376.0Q832 1369 832 1368Q832 1348 846.5 1332.0Q861 1316 878 1316Q883 1316 898.0 1315.0Q913 1314 929 1314Q944 1314 958.0 1315.0Q972 1316 977 1316Q980 1314 984.5 1311.5Q989 1309 991 1308Q994 1307 999.5 1301.0Q1005 1295 1011.5 1288.0Q1018 1281 1024.0 1275.0Q1030 1269 1032 1266Q1032 1261 1033.0 1247.5Q1034 1234 1035.5 1218.5Q1037 1203 1038.0 1189.0Q1039 1175 1039 1169Q1041 1167 1043.5 1153.0Q1046 1139 1048 1135V1090V1072Q1048 1070 1050.0 1063.0Q1052 1056 1054.0 1048.0Q1056 1040 1058.0 1033.0Q1060 1026 1060 1024Q1067 990 1075.0 951.0Q1083 912 1083 877Q1083 875 1078.5 864.0Q1074 853 1074 849V785Q1074 740 1077.0 695.0Q1080 650 1090 607Q1090 606 1092.0 600.0Q1094 594 1096.0 587.0Q1098 580 1100.0 573.5Q1102 567 1102 565Q1102 560 1104.5 540.0Q1107 520 1109.5 496.5Q1112 473 1114.5 452.0Q1117 431 1117 425Q1117 424 1118.0 417.0Q1119 410 1120.5 402.0Q1122 394 1123.0 387.0Q1124 380 1124 379Q1124 377 1122.0 371.5Q1120 366 1117.0 360.5Q1114 355 1111.5 350.0Q1109 345 1109 344Q1109 341 1112.5 332.0Q1116 323 1117 321Q1118 318 1119.0 311.5Q1120 305 1121.0 298.5Q1122 292 1123.0 286.5Q1124 281 1124 280Q1124 276 1123.0 266.5Q1122 257 1121.0 246.0Q1120 235 1119.0 225.5Q1118 216 1117 211Q1103 194 1080.5 193.0Q1058 192 1039 190Q1037 190 1031.0 188.0Q1025 186 1018.5 183.0Q1012 180 1006.0 178.0Q1000 176 998 176Q976 170 959.0 167.0Q942 164 928.5 159.0Q915 154 905.0 142.5Q895 131 887 107Q887 104 893.0 99.5Q899 95 901 93H922Q925 93 934.0 91.0Q943 89 954.0 86.0Q965 83 974.0 81.0Q983 79 986 79H1039H1102Q1104 79 1109.5 80.0Q1115 81 1120.5 82.5Q1126 84 1131.0 85.0Q1136 86 1136 86H1283Q1317 100 1338.5 123.5Q1360 147 1380 176Q1381 178 1384.5 182.0Q1388 186 1392.0 190.5Q1396 195 1398.5 199.5Q1401 204 1401 206Q1403 207 1405.0 218.0Q1407 229 1410 233Q1418 254 1431.5 272.5Q1445 291 1449 315Q1449 317 1450.0 326.5Q1451 336 1452.5 346.5Q1454 357 1455.0 366.5Q1456 376 1456 379Q1461 393 1470.5 411.0Q1480 429 1484 441Q1484 443 1487.5 455.0Q1491 467 1491 469Q1492 471 1496.0 476.0Q1500 481 1505.0 486.5Q1510 492 1514.0 497.0Q1518 502 1519 503Q1520 505 1521.5 512.0Q1523 519 1524.0 527.0Q1525 535 1525.5 542.5Q1526 550 1526 552Q1536 586 1552.5 610.5Q1569 635 1583 669Q1583 671 1584.0 678.0Q1585 685 1586.0 693.0Q1587 701 1587.5 708.5Q1588 716 1588 718Q1588 720 1591.5 731.5Q1595 743 1595 745Q1599 757 1608.0 762.5Q1617 768 1627.0 773.5Q1637 779 1644.5 786.0Q1652 793 1652 806V823Q1652 825 1648.5 836.0Q1645 847 1645 849Q1645 850 1646.5 855.5Q1648 861 1650.0 867.5Q1652 874 1654.0 881.0Q1656 888 1657 892Q1660 899 1665.0 908.5Q1670 918 1676.5 927.0Q1683 936 1691.0 942.5Q1699 949 1707 949Q1713 949 1717.0 945.0Q1721 941 1723.5 935.0Q1726 929 1728.5 922.5Q1731 916 1735 911Q1746 898 1763.5 883.5Q1781 869 1790 849Q1791 844 1792 839Q1793 834 1794.0 830.0Q1795 826 1795 823Q1800 804 1806.0 790.5Q1812 777 1819.0 764.5Q1826 752 1834.5 739.5Q1843 727 1852 711Q1864 692 1870.0 672.5Q1876 653 1887 635Q1888 634 1892.0 628.5Q1896 623 1901.0 617.0Q1906 611 1910.0 606.0Q1914 601 1915 600Q1918 596 1920.0 588.0Q1922 580 1923.5 572.0Q1925 564 1926.0 556.5Q1927 549 1929 545Q1944 502 1966.0 464.5Q1988 427 2006 384Q2014 367 2016.5 346.5Q2019 326 2025 309Q2028 305 2035.5 288.5Q2043 272 2051.0 253.0Q2059 234 2066.5 218.0Q2074 202 2076 197Q2077 194 2079.0 186.5Q2081 179 2081 176V173V171Q2081 168 2078.5 162.5Q2076 157 2076 155V154V148Q2083 134 2091.0 120.0Q2099 106 2109.0 94.5Q2119 83 2133.0 75.0Q2147 67 2166 64Q2170 64 2190.5 64.5Q2211 65 2230 65Q2250 65 2254 64Q2256 64 2262.5 62.5Q2269 61 2276.5 58.5Q2284 56 2290.0 54.0Q2296 52 2297 52Q2329 44 2358.0 40.0Q2387 36 2423 36Q2429 36 2439.0 36.5Q2449 37 2458.5 37.0Q2468 37 2475.5 37.5Q2483 38 2484 38Q2495 38 2508.5 43.0Q2522 48 2534.0 57.0Q2546 66 2554.0 77.5Q2562 89 2562 102Q2562 110 2555.5 119.0Q2549 128 2540.0 136.0Q2531 144 2522.0 149.5Q2513 155 2508 155Q2491 155 2476.0 151.5Q2461 148 2444 148Q2427 148 2410.0 150.5Q2393 153 2373 162Q2361 168 2354.0 180.0Q2347 192 2343.5 206.5Q2340 221 2339.5 237.0Q2339 253 2339 266V283Q2339 295 2340.0 302.5Q2341 310 2343.0 317.0Q2345 324 2347.5 331.0Q2350 338 2352 349Q2352 354 2352.5 366.0Q2353 378 2353.0 390.5Q2353 403 2353.5 414.5Q2354 426 2354 430Q2354 522 2349.0 612.5Q2344 703 2346 795Q2346 797 2342.5 805.0Q2339 813 2339 815V820V823Q2344 849 2349.0 878.0Q2354 907 2354 934Q2354 960 2346.5 982.5Q2339 1005 2339 1031V1043Q2339 1051 2340.0 1057.5Q2341 1064 2346 1072Q2346 1075 2346.0 1083.5Q2346 1092 2346.5 1101.5Q2347 1111 2347.0 1119.5Q2347 1128 2347 1131Q2347 1137 2347.0 1147.0Q2347 1157 2346.5 1166.5Q2346 1176 2346.0 1183.5Q2346 1191 2346 1192Q2346 1193 2342.5 1204.0Q2339 1215 2339 1219V1235V1245Q2339 1248 2344.5 1259.0Q2350 1270 2352 1273Q2353 1275 2357.5 1280.5Q2362 1286 2366.5 1292.0Q2371 1298 2375.0 1302.5Q2379 1307 2380 1308Q2382 1309 2384.5 1315.0Q2387 1321 2387 1323Q2389 1325 2391.0 1327.5Q2393 1330 2396 1330H2423Q2424 1330 2430.5 1332.0Q2437 1334 2444.0 1336.0Q2451 1338 2457.0 1340.0Q2463 1342 2465 1342Q2466 1343 2472.0 1344.0Q2478 1345 2484.5 1346.5Q2491 1348 2497.0 1349.0Q2503 1350 2505 1351Q2508 1352 2514.0 1354.5Q2520 1357 2527.0 1360.0Q2534 1363 2539.5 1366.0Q2545 1369 2546 1370Q2546 1372 2547.0 1378.0Q2548 1384 2548 1385Q2548 1399 2535.0 1409.5Q2522 1420 2505 1420H2173Q2168 1420 2157.5 1423.5Q2147 1427 2145 1427H2138H2131Q2130 1427 2124.5 1429.0Q2119 1431 2113.0 1433.0Q2107 1435 2102.0 1437.0Q2097 1439 2096 1439H2041H2025Q2012 1439 1998.0 1426.0Q1984 1413 1984 1399V1392Q1991 1392 2009.0 1388.5Q2027 1385 2034 1385Q2036 1385 2043.5 1381.5Q2051 1378 2053 1378Q2055 1378 2060.5 1377.0Q2066 1376 2072.0 1375.0Q2078 1374 2082.5 1372.5Q2087 1371 2088 1370Q2100 1366 2106.5 1353.5Q2113 1341 2116.5 1326.5Q2120 1312 2121.0 1297.5Q2122 1283 2122 1273Q2133 1209 2137.5 1145.0Q2142 1081 2150 1015Q2150 1005 2150.5 978.5Q2151 952 2152.0 922.5Q2153 893 2153.5 867.0Q2154 841 2154 830Q2154 811 2153.5 780.5Q2153 750 2152.0 720.0Q2151 690 2150.5 667.0Q2150 644 2150 642Q2150 635 2149.5 615.5Q2149 596 2148.0 574.0Q2147 552 2146.5 532.0Q2146 512 2145 503Q2145 500 2143.0 491.0Q2141 482 2137.5 472.5Q2134 463 2129.5 455.5Q2125 448 2121 448Q2112 448 2106.5 452.5Q2101 457 2097.0 463.0Q2093 469 2089.5 476.0Q2086 483 2081 488Q2080 490 2075.5 495.0Q2071 500 2065.0 506.0Q2059 512 2053.5 516.5Q2048 521 2046 522Q2046 525 2043.5 530.0Q2041 535 2041 538Q2029 565 2012.5 589.5Q1996 614 1984 642Q1975 668 1969.5 696.5Q1964 725 1956 752Q1955 764 1947.5 770.0Q1940 776 1937 787Q1936 788 1934.5 793.5Q1933 799 1932.0 805.0Q1931 811 1930.0 816.5Q1929 822 1929 823Q1927 825 1921.0 831.0Q1915 837 1908.0 843.5Q1901 850 1894.5 856.5Q1888 863 1887 865Q1880 871 1878.0 885.5Q1876 900 1873 906Q1872 909 1870.0 917.0Q1868 925 1868 927Q1866 929 1860.0 936.5Q1854 944 1852 946Q1842 972 1838.0 999.5Q1834 1027 1825 1053Q1822 1058 1817.5 1068.5Q1813 1079 1808.5 1090.5Q1804 1102 1800.0 1111.0Q1796 1120 1795 1122Q1795 1124 1790.0 1134.0Q1785 1144 1779.5 1156.0Q1774 1168 1768.5 1178.5Q1763 1189 1761 1192Q1761 1193 1760.5 1200.0Q1760 1207 1759.0 1215.0Q1758 1223 1757.0 1230.0Q1756 1237 1756 1238Q1756 1243 1752.5 1253.5Q1749 1264 1749 1266Q1746 1271 1740.5 1283.5Q1735 1296 1728.0 1309.5Q1721 1323 1715.5 1335.0Q1710 1347 1707 1351Q1696 1357 1685.0 1365.0Q1674 1373 1660 1373Q1647 1373 1634.0 1360.5Q1621 1348 1610.5 1331.0Q1600 1314 1592.5 1296.0Q1585 1278 1583 1266Q1578 1248 1574.5 1233.0Q1571 1218 1568.0 1203.5Q1565 1189 1560.5 1174.0Q1556 1159 1548 1141Q1547 1139 1541.5 1129.5Q1536 1120 1530.0 1109.5Q1524 1099 1519.0 1090.0Q1514 1081 1513 1079Q1495 1047 1486.0 1014.5Q1477 982 1463 946Q1445 896 1421.0 847.0Q1397 798 1380 745Q1379 744 1378.0 738.0Q1377 732 1376.5 725.0Q1376 718 1375.5 712.0Q1375 706 1375 704Q1373 702 1367.0 693.5Q1361 685 1359 683Q1359 681 1356.0 673.5Q1353 666 1353 664Q1352 662 1350.0 656.5Q1348 651 1345.5 645.0Q1343 639 1340.5 634.5Q1338 630 1337 629Q1337 626 1336.5 618.5Q1336 611 1335.0 603.0Q1334 595 1333.0 588.0Q1332 581 1332 579Q1330 576 1327.5 570.5Q1325 565 1322.0 558.5Q1319 552 1316.0 546.5Q1313 541 1311 538L1290 517Q1281 505 1275.0 488.5Q1269 472 1261.5 456.0Q1254 440 1242.5 429.0Q1231 418 1211 418H1205Q1200 436 1198.5 451.0Q1197 466 1196.0 480.5Q1195 495 1194.5 510.5Q1194 526 1193 545Q1193 545 1192.0 549.5Q1191 554 1189.5 558.5Q1188 563 1187.0 567.5Q1186 572 1186 572V583Q1186 594 1189.5 605.0Q1193 616 1193 629V635Q1188 659 1183.0 683.0Q1178 707 1178 733Q1178 767 1185.5 799.0Q1193 831 1193 865Q1193 865 1192.0 869.0Q1191 873 1189.5 877.5Q1188 882 1187.0 886.5Q1186 891 1186 892V996Q1186 998 1184.0 1005.0Q1182 1012 1179.5 1020.0Q1177 1028 1174.5 1035.5Q1172 1043 1171 1045V1055Q1171 1064 1173.0 1070.5Q1175 1077 1180 1088V1238Q1185 1247 1188.0 1258.0Q1191 1269 1194.0 1280.0Q1197 1291 1201.5 1300.5Q1206 1310 1214 1316Q1235 1318 1265.5 1322.0Q1296 1326 1318 1335Q1320 1338 1327.5 1343.5Q1335 1349 1337 1351Q1345 1355 1353.0 1357.0Q1361 1359 1367.0 1362.0Q1373 1365 1376.5 1371.0Q1380 1377 1380 1387Q1380 1401 1374.0 1409.0Q1368 1417 1359.0 1421.0Q1350 1425 1339.0 1426.0Q1328 1427 1318 1427Q1276 1427 1234.0 1423.5Q1192 1420 1150 1420H1124Q1123 1420 1118.5 1421.0Q1114 1422 1109.5 1423.5Q1105 1425 1100.5 1426.0Q1096 1427 1095 1427Q1093 1427 1086.5 1425.5Q1080 1424 1072.5 1421.5Q1065 1419 1058.0 1417.0Q1051 1415 1048 1413ZM3179 1347Q3179 1336 3184.0 1325.5Q3189 1315 3197.5 1306.5Q3206 1298 3217.0 1292.5Q3228 1287 3240 1287Q3256 1287 3270.0 1291.0Q3284 1295 3302 1295Q3308 1295 3317.0 1294.0Q3326 1293 3335.0 1291.0Q3344 1289 3351.5 1284.5Q3359 1280 3363 1273Q3363 1270 3365.0 1263.5Q3367 1257 3369.5 1250.0Q3372 1243 3373.5 1237.5Q3375 1232 3375 1230V1211V1188Q3375 1187 3374.0 1180.0Q3373 1173 3372.5 1165.0Q3372 1157 3371.0 1150.0Q3370 1143 3370 1141Q3370 1136 3371.5 1122.5Q3373 1109 3375 1105V640Q3371 620 3370.5 608.5Q3370 597 3370 579V564Q3370 559 3370.5 553.5Q3371 548 3375 543V375Q3386 348 3388.0 316.0Q3390 284 3390 254V231Q3390 223 3385.0 206.0Q3380 189 3372.0 171.5Q3364 154 3354.5 140.0Q3345 126 3335 124Q3328 126 3315.0 127.0Q3302 128 3288 128Q3274 128 3261.0 127.0Q3248 126 3243 124Q3225 124 3209.0 110.0Q3193 96 3193 78Q3193 70 3195.5 67.0Q3198 64 3202 55Q3213 35 3227.0 23.0Q3241 11 3266 8Q3269 8 3283.0 6.5Q3297 5 3314.5 4.0Q3332 3 3349.0 1.5Q3366 0 3375 0H3444Q3513 0 3580.0 7.5Q3647 15 3716 15Q3745 15 3769.0 14.0Q3793 13 3828 8Q3830 7 3838.0 4.0Q3846 1 3849 0H4091Q4105 6 4127.0 9.5Q4149 13 4160 15Q4164 15 4182.0 14.5Q4200 14 4215 14Q4223 14 4229.5 14.0Q4236 14 4238 15Q4239 15 4244.5 18.0Q4250 21 4256.5 25.5Q4263 30 4270.0 35.0Q4277 40 4280 43Q4281 45 4283 48Q4284 50 4285.0 52.0Q4286 54 4286 55Q4287 60 4289.5 69.0Q4292 78 4294.0 87.0Q4296 96 4298.0 103.0Q4300 110 4300 112V157V174Q4300 177 4301.0 186.0Q4302 195 4303.5 205.5Q4305 216 4306.0 225.5Q4307 235 4307 237V249V257Q4306 267 4304.0 282.0Q4302 297 4299.5 311.5Q4297 326 4295.0 336.5Q4293 347 4292 347L4257 382H4245Q4236 375 4226 369Q4218 364 4209.0 358.0Q4200 352 4195 347Q4190 342 4184.0 333.5Q4178 325 4176 320Q4174 318 4169.5 311.0Q4165 304 4160.5 295.5Q4156 287 4152.5 280.0Q4149 273 4148 271Q4131 244 4113.5 215.0Q4096 186 4070 166Q4069 166 4065.0 164.5Q4061 163 4056.5 160.5Q4052 158 4048.5 156.0Q4045 154 4044 154Q4039 149 4028.0 138.5Q4017 128 4015 124Q4011 124 4001.0 123.0Q3991 122 3979.5 121.0Q3968 120 3958.5 119.5Q3949 119 3946 119H3759Q3756 119 3744.5 118.0Q3733 117 3720.0 115.5Q3707 114 3695.5 113.0Q3684 112 3681 112H3674Q3649 112 3634.5 124.5Q3620 137 3612.5 156.0Q3605 175 3602.5 197.0Q3600 219 3598 237Q3593 296 3587.5 356.5Q3582 417 3582 475Q3582 513 3583.0 541.0Q3584 569 3591 605Q3595 626 3613.5 633.0Q3632 640 3650 640Q3676 640 3698.5 632.0Q3721 624 3747 624Q3765 624 3782.0 628.5Q3799 633 3816 633Q3828 633 3844.0 627.5Q3860 622 3875.0 612.0Q3890 602 3900.5 590.0Q3911 578 3911 564Q3911 563 3909.5 557.5Q3908 552 3906.5 546.0Q3905 540 3903.5 535.0Q3902 530 3902 529Q3902 484 3919.5 445.5Q3937 407 3966 375Q3973 368 3978.0 365.5Q3983 363 3994 363Q4007 363 4016.0 375.0Q4025 387 4031.0 403.5Q4037 420 4040.0 436.0Q4043 452 4044 460Q4044 464 4043.0 486.5Q4042 509 4042 529Q4042 540 4042.0 547.0Q4042 554 4044 557Q4044 558 4046.0 563.0Q4048 568 4050.0 574.0Q4052 580 4054.0 585.0Q4056 590 4056 591V605V617Q4056 621 4052.5 632.5Q4049 644 4049 647V764Q4049 767 4047.0 778.5Q4045 790 4043.0 803.0Q4041 816 4038.5 827.0Q4036 838 4036 840V861V868Q4033 891 4030.5 902.5Q4028 914 4022 932Q4020 937 4017.0 946.5Q4014 956 4010.5 965.0Q4007 974 4004.5 980.5Q4002 987 4001 988Q3997 998 3984.5 999.5Q3972 1001 3963 1001Q3946 1001 3936.0 993.5Q3926 986 3920.0 974.5Q3914 963 3910.0 949.5Q3906 936 3902 925Q3902 923 3900.5 917.5Q3899 912 3897.0 906.5Q3895 901 3893.0 896.0Q3891 891 3890 891Q3883 872 3880.5 854.0Q3878 836 3873.5 820.5Q3869 805 3859.0 792.5Q3849 780 3828 771H3804Q3780 771 3760.0 768.5Q3740 766 3720.5 763.5Q3701 761 3681.0 758.5Q3661 756 3638 756Q3635 756 3628.0 756.5Q3621 757 3613.5 757.5Q3606 758 3600.0 758.5Q3594 759 3591 759Q3586 767 3581.0 779.5Q3576 792 3572.0 806.0Q3568 820 3565.5 834.0Q3563 848 3563 858Q3563 883 3564.5 905.5Q3566 928 3570 953Q3570 955 3573.5 966.5Q3577 978 3577 981Q3577 984 3576.0 996.0Q3575 1008 3573.5 1022.0Q3572 1036 3571.0 1048.5Q3570 1061 3570 1064V1102V1141Q3570 1147 3571.0 1162.0Q3572 1177 3573.5 1193.5Q3575 1210 3576.0 1224.5Q3577 1239 3577 1245Q3581 1259 3596.5 1271.0Q3612 1283 3626 1287H3641H3681Q3683 1287 3691.0 1288.5Q3699 1290 3702 1292Q3703 1294 3709.5 1296.5Q3716 1299 3717 1299Q3721 1300 3732.0 1301.5Q3743 1303 3755.0 1304.5Q3767 1306 3777.5 1307.0Q3788 1308 3793 1308Q3807 1313 3810.5 1330.5Q3814 1348 3814 1365V1375Q3814 1382 3813.0 1390.0Q3812 1398 3805 1404Q3804 1407 3793.5 1412.0Q3783 1417 3778 1418Q3777 1419 3772.0 1420.0Q3767 1421 3761.0 1422.0Q3755 1423 3749.5 1424.0Q3744 1425 3743 1425Q3723 1432 3703.5 1439.0Q3684 1446 3664 1446Q3638 1446 3610.0 1436.5Q3582 1427 3556 1425Q3548 1425 3525.0 1424.0Q3502 1423 3474.0 1422.0Q3446 1421 3420.0 1420.0Q3394 1419 3382 1418H3278Q3261 1418 3243.5 1414.0Q3226 1410 3211.5 1401.5Q3197 1393 3188.0 1380.0Q3179 1367 3179 1347ZM4366 1392Q4366 1383 4376.0 1369.5Q4386 1356 4394 1351Q4398 1350 4408.5 1348.0Q4419 1346 4431.0 1343.0Q4443 1340 4454.0 1338.0Q4465 1336 4470 1335Q4490 1333 4499.5 1327.0Q4509 1321 4513 1301Q4516 1278 4517.5 1250.5Q4519 1223 4519 1199V1185Q4519 1182 4516.0 1173.0Q4513 1164 4513 1162Q4512 1158 4511.0 1144.0Q4510 1130 4509.0 1113.5Q4508 1097 4507.0 1082.5Q4506 1068 4505 1065Q4505 1064 4501.5 1054.5Q4498 1045 4498 1043V1041V1038Q4513 924 4513 813Q4513 784 4509.0 756.0Q4505 728 4505 699V683Q4502 681 4494.0 676.0Q4486 671 4484 669Q4482 667 4477.0 661.5Q4472 656 4470 654Q4455 647 4435.5 644.5Q4416 642 4398.5 637.5Q4381 633 4369.5 623.0Q4358 613 4358 591V579Q4358 575 4359 572Q4361 568 4371.5 562.5Q4382 557 4387 557H4595Q4599 561 4609.5 566.0Q4620 571 4622 572H4629Q4663 572 4695.0 561.0Q4727 550 4761 550H4790Q4813 552 4840.0 558.5Q4867 565 4891 565Q4902 565 4913.0 561.0Q4924 557 4937 557H4942Q4951 560 4966.5 563.5Q4982 567 4998.0 572.0Q5014 577 5027.5 584.0Q5041 591 5046 600Q5055 616 5065.0 634.0Q5075 652 5083.5 671.0Q5092 690 5097.5 710.0Q5103 730 5103 749Q5103 760 5097.5 771.0Q5092 782 5081 787Q5078 789 5067.5 789.0Q5057 789 5053 789Q5035 789 5026.0 787.0Q5017 785 5011.0 779.5Q5005 774 4999.5 765.5Q4994 757 4984 745Q4983 743 4977.0 737.0Q4971 731 4964.0 724.5Q4957 718 4950.5 712.0Q4944 706 4942 704Q4941 702 4939.0 693.5Q4937 685 4937 683Q4931 668 4919.5 662.0Q4908 656 4894.0 653.0Q4880 650 4865.5 647.0Q4851 644 4839 635H4733Q4720 635 4710.5 644.0Q4701 653 4692 662Q4671 688 4667.5 721.5Q4664 755 4664 787Q4664 822 4665.0 852.0Q4666 882 4673 918Q4674 932 4681.5 935.5Q4689 939 4699 939H4714Q4716 939 4723.5 936.5Q4731 934 4733 934Q4736 933 4746.5 931.5Q4757 930 4768.5 929.0Q4780 928 4790.5 927.5Q4801 927 4804 927Q4818 924 4826.5 918.0Q4835 912 4840.0 903.5Q4845 895 4849.0 885.0Q4853 875 4859 865Q4864 855 4870.0 842.5Q4876 830 4883.5 819.0Q4891 808 4901.0 800.0Q4911 792 4925 792Q4938 792 4943.0 800.5Q4948 809 4949 823Q4954 858 4955.0 884.0Q4956 910 4956 944V981Q4956 987 4955.0 1001.5Q4954 1016 4953.0 1031.0Q4952 1046 4951.0 1059.5Q4950 1073 4949 1077Q4949 1082 4945.5 1093.0Q4942 1104 4942 1107V1116V1140Q4942 1148 4941.5 1156.0Q4941 1164 4937 1169Q4933 1172 4922.5 1180.0Q4912 1188 4908 1190H4891Q4886 1190 4882.5 1191.0Q4879 1192 4877 1192Q4871 1192 4868 1185Q4864 1181 4859.0 1170.5Q4854 1160 4853 1155V1072Q4852 1059 4845.0 1050.5Q4838 1042 4827.0 1038.0Q4816 1034 4802.5 1032.5Q4789 1031 4776 1031H4738H4719Q4709 1031 4699.5 1032.0Q4690 1033 4682.0 1036.5Q4674 1040 4669.0 1047.5Q4664 1055 4664 1067V1077Q4665 1080 4666.0 1093.0Q4667 1106 4668.5 1120.0Q4670 1134 4671.0 1146.5Q4672 1159 4673 1162V1228V1254Q4673 1255 4674.5 1259.5Q4676 1264 4678.0 1270.5Q4680 1277 4682.0 1283.5Q4684 1290 4686 1294Q4691 1306 4698.5 1311.5Q4706 1317 4715.0 1319.0Q4724 1321 4734.5 1321.0Q4745 1321 4756 1323Q4773 1325 4790.0 1330.0Q4807 1335 4827 1335H4858Q4889 1335 4921.5 1333.0Q4954 1331 4984 1323Q4986 1323 4992.0 1319.5Q4998 1316 5000 1316Q5002 1313 5009.0 1307.5Q5016 1302 5023.5 1295.5Q5031 1289 5037.5 1282.5Q5044 1276 5046 1273Q5049 1271 5057.0 1263.0Q5065 1255 5074.5 1245.5Q5084 1236 5092.0 1228.5Q5100 1221 5103 1219Q5108 1214 5113.5 1212.5Q5119 1211 5126 1211H5140Q5151 1211 5164.0 1212.0Q5177 1213 5185 1219Q5205 1233 5220.0 1248.5Q5235 1264 5235 1289V1301Q5234 1305 5231.5 1313.5Q5229 1322 5225.5 1331.0Q5222 1340 5218.5 1347.5Q5215 1355 5214 1358Q5209 1366 5195.0 1376.5Q5181 1387 5173 1392Q5167 1395 5157.5 1400.0Q5148 1405 5139.0 1409.5Q5130 1414 5123.0 1417.0Q5116 1420 5115 1420H4532Q4518 1425 4503.0 1426.0Q4488 1427 4472 1427H4448H4401Q4397 1427 4388.5 1424.5Q4380 1422 4380 1420Q4378 1416 4372.0 1405.5Q4366 1395 4366 1392ZM5434 1425Q5432 1425 5420.0 1428.5Q5408 1432 5406 1434H5390Q5370 1434 5353.5 1425.5Q5337 1417 5337 1394V1385Q5339 1383 5347.5 1377.5Q5356 1372 5358 1372Q5359 1371 5363.0 1366.5Q5367 1362 5371.5 1357.5Q5376 1353 5379.5 1349.0Q5383 1345 5384 1344Q5386 1343 5392.5 1342.0Q5399 1341 5406.0 1340.0Q5413 1339 5419.0 1338.0Q5425 1337 5427 1337Q5461 1327 5482 1302V1135Q5483 1134 5484.5 1128.5Q5486 1123 5487.5 1117.0Q5489 1111 5490.0 1106.0Q5491 1101 5491 1100V1057Q5491 1032 5486.5 1008.5Q5482 985 5482 962Q5482 911 5496 863V690Q5496 688 5494.5 683.0Q5493 678 5491 676Q5488 673 5483.5 669.0Q5479 665 5474.5 660.5Q5470 656 5466.0 652.0Q5462 648 5461 647Q5460 646 5454.0 644.5Q5448 643 5441.0 641.0Q5434 639 5428.0 637.0Q5422 635 5422 635Q5406 630 5396.5 621.0Q5387 612 5378 600V595Q5378 590 5383.0 587.0Q5388 584 5394.0 582.5Q5400 581 5405.5 580.0Q5411 579 5413 577Q5417 576 5430.0 571.5Q5443 567 5448 565H5629Q5630 565 5636.5 564.0Q5643 563 5649.5 561.5Q5656 560 5662.0 559.0Q5668 558 5669 558Q5670 558 5676.5 557.5Q5683 557 5691.5 557.0Q5700 557 5708.0 557.0Q5716 557 5721 557Q5727 557 5735.5 557.0Q5744 557 5752.0 557.0Q5760 557 5766.0 557.5Q5772 558 5773 558Q5782 558 5794.5 558.5Q5807 559 5818.0 562.5Q5829 566 5837.0 573.5Q5845 581 5845 595Q5845 610 5837.0 616.0Q5829 622 5818.0 624.0Q5807 626 5794.5 625.5Q5782 625 5773 628Q5772 628 5768.5 630.0Q5765 632 5760.5 635.0Q5756 638 5752.0 640.0Q5748 642 5747 642Q5731 648 5714.5 654.5Q5698 661 5698 681Q5698 695 5701.0 706.5Q5704 718 5704 731V738Q5704 740 5701.0 752.0Q5698 764 5698 766V823Q5698 825 5695.5 829.5Q5693 834 5691 835Q5685 904 5684.0 972.0Q5683 1040 5676 1109Q5676 1115 5671.0 1131.0Q5666 1147 5664 1155V1287Q5666 1289 5669 1291Q5673 1294 5676 1294Q5698 1303 5723.5 1307.0Q5749 1311 5775.0 1312.5Q5801 1314 5825.5 1314.0Q5850 1314 5871 1316Q5872 1316 5877.5 1317.0Q5883 1318 5889.0 1318.5Q5895 1319 5900.5 1320.0Q5906 1321 5908 1321H5915H5920Q5945 1315 5965.0 1309.5Q5985 1304 6005 1287Q6023 1272 6039.5 1255.5Q6056 1239 6073.5 1223.0Q6091 1207 6109.5 1193.0Q6128 1179 6150 1169H6153H6157Q6186 1178 6195.5 1196.5Q6205 1215 6205 1244V1259Q6204 1263 6198.5 1274.0Q6193 1285 6191 1287Q6188 1299 6186.0 1314.5Q6184 1330 6180.0 1345.5Q6176 1361 6169.0 1375.0Q6162 1389 6150 1399Q6146 1402 6139.5 1406.0Q6133 1410 6126.0 1414.5Q6119 1419 6114.0 1422.0Q6109 1425 6108 1425Q6107 1427 6095 1427Q6084 1427 6072.5 1426.0Q6061 1425 6058 1425Q6057 1428 6046.0 1434.5Q6035 1441 6031 1441Q6012 1442 5988.5 1435.5Q5965 1429 5949 1420H5698Q5694 1422 5681.0 1423.5Q5668 1425 5664 1425Q5662 1427 5645 1427Q5631 1427 5614.0 1426.0Q5597 1425 5595 1425Q5593 1427 5586.5 1430.5Q5580 1434 5573.0 1438.0Q5566 1442 5560.0 1445.0Q5554 1448 5553 1448Q5551 1448 5542.0 1444.5Q5533 1441 5531 1441Q5529 1440 5518.5 1439.0Q5508 1438 5496.0 1437.0Q5484 1436 5474.0 1435.0Q5464 1434 5461 1434Q5461 1433 5456.5 1431.5Q5452 1430 5447.5 1428.5Q5443 1427 5438.5 1426.0Q5434 1425 5434 1425ZM6396 1425Q6394 1425 6382.0 1428.5Q6370 1432 6368 1434H6352Q6332 1434 6315.5 1425.5Q6299 1417 6299 1394V1385Q6301 1383 6309.5 1377.5Q6318 1372 6320 1372Q6321 1371 6325.0 1366.5Q6329 1362 6333.5 1357.5Q6338 1353 6341.5 1349.0Q6345 1345 6346 1344Q6348 1343 6354.5 1342.0Q6361 1341 6368.0 1340.0Q6375 1339 6381.0 1338.0Q6387 1337 6389 1337Q6423 1327 6444 1302V1135Q6445 1134 6446.5 1128.5Q6448 1123 6449.5 1117.0Q6451 1111 6452.0 1106.0Q6453 1101 6453 1100V1057Q6453 1032 6448.5 1008.5Q6444 985 6444 962Q6444 911 6458 863V690Q6458 688 6456.5 683.0Q6455 678 6453 676Q6450 673 6445.5 669.0Q6441 665 6436.5 660.5Q6432 656 6428.0 652.0Q6424 648 6423 647Q6422 646 6416.0 644.5Q6410 643 6403.0 641.0Q6396 639 6390.0 637.0Q6384 635 6384 635Q6368 630 6358.5 621.0Q6349 612 6340 600V595Q6340 590 6345.0 587.0Q6350 584 6356.0 582.5Q6362 581 6367.5 580.0Q6373 579 6375 577Q6379 576 6392.0 571.5Q6405 567 6410 565H6591Q6592 565 6598.5 564.0Q6605 563 6611.5 561.5Q6618 560 6624.0 559.0Q6630 558 6631 558Q6632 558 6638.5 557.5Q6645 557 6653.5 557.0Q6662 557 6670.0 557.0Q6678 557 6683 557Q6689 557 6697.5 557.0Q6706 557 6714.0 557.0Q6722 557 6728.0 557.5Q6734 558 6735 558Q6744 558 6756.5 558.5Q6769 559 6780.0 562.5Q6791 566 6799.0 573.5Q6807 581 6807 595Q6807 610 6799.0 616.0Q6791 622 6780.0 624.0Q6769 626 6756.5 625.5Q6744 625 6735 628Q6734 628 6730.5 630.0Q6727 632 6722.5 635.0Q6718 638 6714.0 640.0Q6710 642 6709 642Q6693 648 6676.5 654.5Q6660 661 6660 681Q6660 695 6663.0 706.5Q6666 718 6666 731V738Q6666 740 6663.0 752.0Q6660 764 6660 766V823Q6660 825 6657.5 829.5Q6655 834 6653 835Q6647 904 6646.0 972.0Q6645 1040 6638 1109Q6638 1115 6633.0 1131.0Q6628 1147 6626 1155V1287Q6628 1289 6631 1291Q6635 1294 6638 1294Q6660 1303 6685.5 1307.0Q6711 1311 6737.0 1312.5Q6763 1314 6787.5 1314.0Q6812 1314 6833 1316Q6834 1316 6839.5 1317.0Q6845 1318 6851.0 1318.5Q6857 1319 6862.5 1320.0Q6868 1321 6870 1321H6877H6882Q6907 1315 6927.0 1309.5Q6947 1304 6967 1287Q6985 1272 7001.5 1255.5Q7018 1239 7035.5 1223.0Q7053 1207 7071.5 1193.0Q7090 1179 7112 1169H7115H7119Q7148 1178 7157.5 1196.5Q7167 1215 7167 1244V1259Q7166 1263 7160.5 1274.0Q7155 1285 7153 1287Q7150 1299 7148.0 1314.5Q7146 1330 7142.0 1345.5Q7138 1361 7131.0 1375.0Q7124 1389 7112 1399Q7108 1402 7101.5 1406.0Q7095 1410 7088.0 1414.5Q7081 1419 7076.0 1422.0Q7071 1425 7070 1425Q7069 1427 7057 1427Q7046 1427 7034.5 1426.0Q7023 1425 7020 1425Q7019 1428 7008.0 1434.5Q6997 1441 6993 1441Q6974 1442 6950.5 1435.5Q6927 1429 6911 1420H6660Q6656 1422 6643.0 1423.5Q6630 1425 6626 1425Q6624 1427 6607 1427Q6593 1427 6576.0 1426.0Q6559 1425 6557 1425Q6555 1427 6548.5 1430.5Q6542 1434 6535.0 1438.0Q6528 1442 6522.0 1445.0Q6516 1448 6515 1448Q6513 1448 6504.0 1444.5Q6495 1441 6493 1441Q6491 1440 6480.5 1439.0Q6470 1438 6458.0 1437.0Q6446 1436 6436.0 1435.0Q6426 1434 6423 1434Q6423 1433 6418.5 1431.5Q6414 1430 6409.5 1428.5Q6405 1427 6400.5 1426.0Q6396 1425 6396 1425ZM8144 1058Q8145 1065 8146.0 1082.0Q8147 1099 8148.0 1117.5Q8149 1136 8150.0 1153.0Q8151 1170 8152 1176Q8154 1197 8157.0 1217.0Q8160 1237 8166.0 1255.5Q8172 1274 8183.5 1289.5Q8195 1305 8213 1316H8256H8297Q8299 1315 8305.5 1313.0Q8312 1311 8318.5 1309.0Q8325 1307 8331.0 1304.5Q8337 1302 8339 1301Q8342 1301 8350.0 1300.0Q8358 1299 8367.0 1298.0Q8376 1297 8384.0 1296.0Q8392 1295 8394 1295Q8426 1289 8451.0 1277.5Q8476 1266 8498.5 1250.5Q8521 1235 8542.5 1216.0Q8564 1197 8590 1176Q8600 1168 8609.0 1162.0Q8618 1156 8626.0 1150.5Q8634 1145 8642.5 1138.5Q8651 1132 8659 1122Q8661 1120 8663.5 1114.5Q8666 1109 8666 1107Q8668 1104 8678.0 1094.0Q8688 1084 8700.0 1072.5Q8712 1061 8722.0 1051.0Q8732 1041 8735 1038Q8736 1036 8740.0 1031.0Q8744 1026 8748.5 1021.0Q8753 1016 8757.0 1011.0Q8761 1006 8763 1003Q8774 986 8775.5 968.0Q8777 950 8784 934Q8785 932 8788.5 927.0Q8792 922 8795.5 916.0Q8799 910 8802.0 905.5Q8805 901 8806 899Q8813 883 8818.5 861.0Q8824 839 8827.5 815.5Q8831 792 8832.5 769.5Q8834 747 8834 730Q8834 726 8833.5 718.0Q8833 710 8833.0 702.5Q8833 695 8832.5 689.5Q8832 684 8832 683Q8832 681 8828.5 673.5Q8825 666 8825 664V652Q8825 638 8829.5 625.0Q8834 612 8834 598Q8834 573 8823.0 550.5Q8812 528 8797.5 506.5Q8783 485 8769.0 463.5Q8755 442 8749 418Q8748 418 8747.0 413.0Q8746 408 8745.5 402.5Q8745 397 8744.5 391.5Q8744 386 8744 384Q8741 380 8735.5 371.0Q8730 362 8723.0 352.0Q8716 342 8710.0 333.0Q8704 324 8701 321Q8666 312 8642.0 291.0Q8618 270 8590 252Q8587 251 8581.0 248.0Q8575 245 8569.5 241.5Q8564 238 8560.0 235.5Q8556 233 8555 233Q8541 222 8525.5 206.0Q8510 190 8493 183Q8490 182 8481.0 179.0Q8472 176 8461.0 172.5Q8450 169 8441.0 166.0Q8432 163 8429 162Q8427 162 8420.5 159.0Q8414 156 8405.5 152.0Q8397 148 8390.0 145.0Q8383 142 8382 142H8358H8297Q8296 142 8284.0 139.0Q8272 136 8270 136Q8268 136 8266 135Q8262 133 8259 133Q8244 133 8227.5 135.5Q8211 138 8197.0 144.5Q8183 151 8172.5 162.0Q8162 173 8159 190Q8158 193 8157.0 202.0Q8156 211 8155.0 221.5Q8154 232 8153.0 242.5Q8152 253 8152 259Q8152 261 8151.0 263.5Q8150 266 8150 268Q8150 271 8151 272Q8151 274 8152 275Q8152 276 8154.5 284.0Q8157 292 8159 294L8156 482V517L8152 692Q8157 698 8158.0 704.0Q8159 710 8159 718Q8159 740 8152.5 762.5Q8146 785 8144 808V830V877Q8144 895 8142.5 913.5Q8141 932 8138 946Q8138 948 8136.0 954.5Q8134 961 8131.0 968.5Q8128 976 8126.0 982.0Q8124 988 8124 989V998Q8124 1015 8130.5 1030.0Q8137 1045 8144 1058ZM7943 1411Q7929 1411 7919.0 1412.0Q7909 1413 7896 1420H7754Q7753 1420 7748.5 1418.5Q7744 1417 7738.5 1414.5Q7733 1412 7728.0 1409.0Q7723 1406 7720 1404Q7711 1396 7709.5 1385.5Q7708 1375 7708 1365V1356Q7708 1351 7708.5 1345.0Q7709 1339 7714 1335Q7716 1334 7728.0 1329.5Q7740 1325 7742 1323Q7743 1322 7747.0 1318.0Q7751 1314 7755.5 1309.0Q7760 1304 7764.0 1300.0Q7768 1296 7770 1295H7784Q7795 1295 7804.0 1298.0Q7813 1301 7823 1301Q7842 1301 7859.0 1299.5Q7876 1298 7896 1295Q7923 1290 7934.5 1272.0Q7946 1254 7950 1226Q7950 1224 7951.5 1211.5Q7953 1199 7954.0 1182.5Q7955 1166 7956.5 1149.5Q7958 1133 7958 1122V1114Q7958 1107 7957.0 1103.5Q7956 1100 7950 1093V1041V989Q7950 985 7952.5 967.5Q7955 950 7958.0 930.0Q7961 910 7963.0 893.0Q7965 876 7965 872V738Q7965 738 7966.0 733.5Q7967 729 7968.0 724.5Q7969 720 7970.0 715.5Q7971 711 7971 711V709V704Q7964 665 7957.0 630.5Q7950 596 7950 555V503Q7950 502 7951.0 497.5Q7952 493 7953.5 488.5Q7955 484 7956.5 480.0Q7958 476 7958 475V404V379Q7958 376 7959.0 366.5Q7960 357 7961.5 346.5Q7963 336 7964.0 326.5Q7965 317 7965 315V251V197Q7964 194 7961.5 185.0Q7959 176 7955.5 166.5Q7952 157 7949.0 148.0Q7946 139 7943 136Q7937 134 7922.0 132.0Q7907 130 7890.5 127.5Q7874 125 7859.5 123.5Q7845 122 7839 121Q7820 119 7800.5 119.0Q7781 119 7764.5 114.5Q7748 110 7737.5 97.5Q7727 85 7727 58V52Q7727 47 7728.0 42.5Q7729 38 7735 38Q7740 37 7753.0 33.5Q7766 30 7780.5 26.5Q7795 23 7808.0 20.5Q7821 18 7827 17H7855Q7859 17 7864.0 16.0Q7869 15 7875 15Q7883 15 7890.0 17.0Q7897 19 7901 24Q7912 25 7939.0 27.0Q7966 29 7996.0 31.0Q8026 33 8052.5 35.0Q8079 37 8090 38H8097Q8131 38 8162.5 33.0Q8194 28 8228 24H8230H8235Q8245 25 8272.0 27.0Q8299 29 8329.0 31.0Q8359 33 8386.0 35.0Q8413 37 8424 38Q8425 38 8433.0 40.5Q8441 43 8443 45H8451H8458Q8460 45 8471.0 41.5Q8482 38 8486 38L8488 36Q8489 36 8489.5 36.5Q8490 37 8491 37Q8492 38 8493 38Q8495 38 8503.5 41.5Q8512 45 8514 45Q8518 45 8534.0 48.0Q8550 51 8569.0 54.0Q8588 57 8604.0 60.0Q8620 63 8624 64Q8626 66 8634.5 68.5Q8643 71 8645 72Q8646 72 8650.0 74.0Q8654 76 8658.5 79.0Q8663 82 8666.5 84.0Q8670 86 8671 86Q8675 88 8686.5 90.5Q8698 93 8701 93Q8702 95 8710.5 99.5Q8719 104 8721 107Q8723 108 8729.5 113.0Q8736 118 8742.5 124.0Q8749 130 8755.0 135.5Q8761 141 8763 142Q8776 152 8790.5 155.0Q8805 158 8818 171Q8824 176 8835.5 187.0Q8847 198 8859.0 210.0Q8871 222 8881.0 232.0Q8891 242 8894 245Q8897 248 8906.0 260.5Q8915 273 8925.5 287.0Q8936 301 8945.5 313.0Q8955 325 8957 328Q8959 330 8964.5 335.5Q8970 341 8972 344Q8984 359 8990.0 375.0Q8996 391 8999.5 407.5Q9003 424 9006.0 441.0Q9009 458 9014 475Q9014 476 9016.0 480.0Q9018 484 9020.0 488.5Q9022 493 9024.0 497.5Q9026 502 9026 503Q9028 505 9030.5 512.5Q9033 520 9034 522Q9042 543 9049.5 556.0Q9057 569 9063.0 581.0Q9069 593 9072.5 607.5Q9076 622 9076 647Q9076 661 9071.5 673.0Q9067 685 9062.0 697.0Q9057 709 9052.5 721.5Q9048 734 9048 747Q9048 770 9051.5 792.0Q9055 814 9055 837V865Q9055 865 9053.0 869.0Q9051 873 9048.0 877.5Q9045 882 9043.0 886.5Q9041 891 9041 892V904V934Q9040 936 9034.0 944.5Q9028 953 9026 955Q9015 975 9010.0 1000.0Q9005 1025 8998 1045Q8991 1071 8971.0 1091.5Q8951 1112 8938 1135Q8915 1173 8884.0 1210.0Q8853 1247 8818 1273Q8817 1275 8811.0 1278.0Q8805 1281 8798.0 1284.5Q8791 1288 8785.0 1291.0Q8779 1294 8778 1295Q8761 1305 8747.0 1317.0Q8733 1329 8714 1335Q8680 1351 8645.0 1362.5Q8610 1374 8583 1399Q8574 1400 8552.0 1401.5Q8530 1403 8506.0 1405.5Q8482 1408 8460.0 1410.0Q8438 1412 8429 1413Q8427 1413 8416.0 1416.5Q8405 1420 8401 1420Q8394 1421 8374.0 1422.0Q8354 1423 8330.5 1424.0Q8307 1425 8286.0 1426.0Q8265 1427 8256 1427H8166H8081Q8047 1425 8013.0 1418.0Q7979 1411 7943 1411ZM9290 218Q9287 215 9278.0 206.0Q9269 197 9259.5 186.5Q9250 176 9241.0 167.0Q9232 158 9229 155Q9221 149 9210.5 147.0Q9200 145 9188.5 143.0Q9177 141 9165.5 135.0Q9154 129 9144 114V110Q9144 101 9150.0 94.5Q9156 88 9165 86Q9211 78 9255.5 74.0Q9300 70 9345 64Q9347 64 9356.0 61.0Q9365 58 9368 58H9373H9380Q9382 58 9388.5 59.0Q9395 60 9402.0 61.0Q9409 62 9414.5 63.0Q9420 64 9421 64Q9428 65 9443.0 66.0Q9458 67 9477 67Q9495 67 9511.0 66.0Q9527 65 9534 64Q9554 70 9565.5 89.5Q9577 109 9577 129Q9577 131 9576.5 134.0Q9576 137 9576 140Q9575 144 9575 148Q9574 150 9568.5 155.5Q9563 161 9557.0 166.5Q9551 172 9546.0 177.0Q9541 182 9541 183Q9536 191 9535.0 200.5Q9534 210 9534 219V233V259Q9534 261 9536.0 265.0Q9538 269 9540.0 273.5Q9542 278 9544.0 282.0Q9546 286 9546 287Q9547 289 9548.5 294.5Q9550 300 9551.0 305.5Q9552 311 9552.5 316.0Q9553 321 9553 321Q9563 354 9575.5 384.5Q9588 415 9596 448Q9601 468 9603.5 493.0Q9606 518 9615 538Q9616 538 9619.5 542.0Q9623 546 9626.5 550.5Q9630 555 9633.5 559.5Q9637 564 9637 565Q9638 568 9641.5 573.5Q9645 579 9648.5 586.0Q9652 593 9654.5 598.5Q9657 604 9658 607Q9658 609 9660.0 616.0Q9662 623 9664.5 631.0Q9667 639 9669.0 646.0Q9671 653 9672 655Q9673 657 9676.0 662.0Q9679 667 9682.5 673.0Q9686 679 9689.0 684.5Q9692 690 9693 692Q9699 705 9700.5 718.5Q9702 732 9707 745Q9712 764 9723.5 778.0Q9735 792 9741 808Q9743 810 9745.5 819.0Q9748 828 9748 830Q9749 833 9753.5 842.0Q9758 851 9762.5 861.0Q9767 871 9771.0 880.0Q9775 889 9776 892Q9777 894 9778.0 901.5Q9779 909 9780.0 917.0Q9781 925 9782.0 932.0Q9783 939 9783 941Q9784 944 9788.5 952.0Q9793 960 9798.5 968.5Q9804 977 9810.0 985.0Q9816 993 9819 996Q9838 1010 9864 1010Q9876 1010 9885.5 999.0Q9895 988 9902.5 973.0Q9910 958 9915.0 942.5Q9920 927 9923 918Q9926 912 9932.0 895.0Q9938 878 9945.5 858.5Q9953 839 9960.0 821.0Q9967 803 9970 795Q9975 782 9984.5 770.5Q9994 759 9999 745Q10001 743 10002.5 731.5Q10004 720 10004 718Q10005 716 10006.5 707.5Q10008 699 10009.0 690.0Q10010 681 10010.5 673.0Q10011 665 10011 664Q10012 662 10014.0 656.5Q10016 651 10019.0 645.0Q10022 639 10024.0 634.5Q10026 630 10027 629Q10036 603 10039.0 581.5Q10042 560 10042 531V510Q10042 494 10040.5 480.5Q10039 467 10034 453Q10032 452 10028.5 446.0Q10025 440 10021.5 433.0Q10018 426 10015.0 420.5Q10012 415 10011 413Q10011 410 10010.5 401.0Q10010 392 10009.0 381.0Q10008 370 10006.5 361.0Q10005 352 10004 349Q10004 348 10001.5 340.0Q9999 332 9996.0 322.5Q9993 313 9990.0 303.0Q9987 293 9985 287Q9983 285 9980.5 280.5Q9978 276 9977 275Q9974 270 9967.0 258.5Q9960 247 9952.5 234.5Q9945 222 9938.5 211.5Q9932 201 9930 197Q9923 187 9907.0 181.0Q9891 175 9871.0 171.0Q9851 167 9829.0 163.5Q9807 160 9789.0 156.0Q9771 152 9759.5 145.5Q9748 139 9748 128Q9749 125 9751 122Q9753 120 9754.0 117.5Q9755 115 9757 114Q9774 92 9796.0 80.5Q9818 69 9842.5 64.0Q9867 59 9892.5 57.0Q9918 55 9942 52Q9944 52 9949.5 51.0Q9955 50 9961.0 48.5Q9967 47 9971.5 46.0Q9976 45 9977 45H9996H10006Q10013 45 10019.5 46.0Q10026 47 10034 52H10098Q10150 52 10201.0 53.0Q10252 54 10303 58Q10315 63 10317.0 78.5Q10319 94 10319 105V114Q10313 127 10303.0 132.0Q10293 137 10281.5 138.5Q10270 140 10257.5 140.0Q10245 140 10234 142Q10233 142 10228.0 144.5Q10223 147 10220 148Q10217 151 10211.5 156.0Q10206 161 10201.0 167.0Q10196 173 10191.5 177.5Q10187 182 10186 183Q10179 191 10178.0 201.5Q10177 212 10177 223Q10177 225 10177.5 231.5Q10178 238 10181 240Q10182 247 10187.5 265.0Q10193 283 10199.5 302.5Q10206 322 10212.0 340.0Q10218 358 10220 365Q10221 367 10224.5 373.0Q10228 379 10232.0 385.5Q10236 392 10238.5 398.0Q10241 404 10241 406Q10252 431 10252.5 454.0Q10253 477 10255 503Q10257 516 10263.5 526.0Q10270 536 10278.0 545.0Q10286 554 10293.0 564.0Q10300 574 10303 586Q10304 588 10305.0 598.0Q10306 608 10307.5 620.0Q10309 632 10310.0 642.0Q10311 652 10312 655Q10312 658 10314.5 668.5Q10317 679 10319 683Q10320 687 10323.5 697.5Q10327 708 10331.5 720.0Q10336 732 10340.0 743.5Q10344 755 10347 761Q10347 763 10349.0 767.0Q10351 771 10354 773Q10359 783 10368.5 805.0Q10378 827 10389.5 849.5Q10401 872 10413.0 889.0Q10425 906 10435 906Q10443 906 10445.5 905.0Q10448 904 10457 899Q10461 897 10467.5 893.0Q10474 889 10479 885Q10485 881 10492 877Q10494 875 10495.5 864.0Q10497 853 10497 849Q10514 804 10527.5 757.5Q10541 711 10554 664Q10561 639 10573.0 614.5Q10585 590 10589 565Q10590 562 10591.0 550.5Q10592 539 10593.0 526.5Q10594 514 10595.0 502.5Q10596 491 10596 488Q10596 485 10598.5 471.5Q10601 458 10601 453Q10604 443 10610.5 434.0Q10617 425 10624.0 416.5Q10631 408 10636.5 399.0Q10642 390 10644 379V344V328Q10644 328 10646.0 323.0Q10648 318 10651.0 312.0Q10654 306 10656.0 300.5Q10658 295 10658 294Q10663 277 10665.0 265.5Q10667 254 10667 237Q10667 201 10651.0 186.0Q10635 171 10612.0 163.5Q10589 156 10564.0 150.0Q10539 144 10520 128Q10517 126 10512.0 121.0Q10507 116 10501.5 110.5Q10496 105 10491.0 100.0Q10486 95 10485 93V86Q10485 68 10496.0 58.5Q10507 49 10522.5 44.5Q10538 40 10554.5 39.0Q10571 38 10582 38Q10590 37 10610.5 36.0Q10631 35 10654.5 34.0Q10678 33 10698.5 32.0Q10719 31 10727 29Q10730 29 10738.0 27.5Q10746 26 10748 24Q10750 24 10755.0 22.0Q10760 20 10766.0 17.0Q10772 14 10776.5 12.0Q10781 10 10783 10Q10785 10 10791.0 12.0Q10797 14 10804.0 17.0Q10811 20 10817.0 22.0Q10823 24 10824 24Q10843 29 10861.0 29.5Q10879 30 10897.5 30.0Q10916 30 10934.0 31.5Q10952 33 10971 38Q10973 38 10984.0 42.5Q10995 47 10999 52Q11006 57 11020.5 64.0Q11035 71 11040 79V103Q11040 130 11031.0 142.0Q11022 154 11008.0 158.5Q10994 163 10975.0 164.0Q10956 165 10937 171Q10935 171 10929.0 173.5Q10923 176 10915.5 179.5Q10908 183 10901.5 186.0Q10895 189 10893 190Q10892 192 10884.0 194.5Q10876 197 10874 197Q10860 205 10851.5 218.5Q10843 232 10836.0 248.0Q10829 264 10823.5 280.0Q10818 296 10812 309Q10810 311 10804.0 319.0Q10798 327 10797 328Q10786 348 10779.5 370.0Q10773 392 10766.0 414.0Q10759 436 10750.0 457.0Q10741 478 10727 496Q10723 546 10717.0 587.5Q10711 629 10693 676Q10687 692 10679.0 705.0Q10671 718 10663.5 731.0Q10656 744 10649.5 757.5Q10643 771 10639 787Q10637 789 10637 802Q10637 813 10638.0 824.0Q10639 835 10639 837Q10634 851 10625.5 867.0Q10617 883 10607.5 899.5Q10598 916 10589.0 932.0Q10580 948 10575 962Q10573 966 10571.0 973.5Q10569 981 10566 981Q10566 984 10565.5 993.0Q10565 1002 10564.0 1013.0Q10563 1024 10562.5 1033.0Q10562 1042 10561 1045Q10561 1046 10557.5 1051.5Q10554 1057 10554 1058Q10553 1061 10550.0 1069.0Q10547 1077 10547 1079Q10547 1081 10545.0 1089.5Q10543 1098 10540.5 1107.5Q10538 1117 10535.5 1125.5Q10533 1134 10532 1135Q10532 1135 10530.5 1139.5Q10529 1144 10526.5 1148.5Q10524 1153 10522.0 1157.5Q10520 1162 10520 1162Q10517 1167 10513.5 1175.5Q10510 1184 10506 1192Q10502 1202 10497 1211Q10497 1214 10496.0 1223.0Q10495 1232 10494.5 1242.0Q10494 1252 10493.0 1261.0Q10492 1270 10492 1273Q10489 1290 10484.0 1315.0Q10479 1340 10469.5 1363.5Q10460 1387 10446.0 1403.5Q10432 1420 10411 1420H10399Q10392 1420 10385.5 1419.0Q10379 1418 10373 1413Q10366 1406 10353.0 1393.5Q10340 1381 10338 1377Q10337 1376 10333.0 1366.0Q10329 1356 10323.5 1343.0Q10318 1330 10312.0 1316.5Q10306 1303 10303 1295Q10290 1261 10288.5 1229.0Q10287 1197 10278 1162Q10267 1132 10257.5 1107.5Q10248 1083 10234 1053Q10222 1021 10213.0 987.5Q10204 954 10194.5 921.0Q10185 888 10173.0 856.0Q10161 824 10143 795Q10138 785 10135.0 782.5Q10132 780 10124 780Q10116 780 10111.5 782.5Q10107 785 10103 795Q10101 797 10097.5 804.0Q10094 811 10089.5 820.0Q10085 829 10080.5 837.0Q10076 845 10073 849Q10072 854 10069.0 862.0Q10066 870 10062.5 877.5Q10059 885 10056.5 891.0Q10054 897 10054 899Q10054 901 10052.5 907.0Q10051 913 10050.0 920.0Q10049 927 10048.0 933.0Q10047 939 10047 941Q10046 942 10041.0 948.0Q10036 954 10030.0 960.5Q10024 967 10018.5 973.5Q10013 980 10011 981Q10000 1001 9996.0 1019.5Q9992 1038 9985 1058Q9976 1083 9968.5 1111.0Q9961 1139 9951 1162Q9950 1164 9947.0 1171.0Q9944 1178 9940.5 1186.0Q9937 1194 9934.0 1201.5Q9931 1209 9930 1211Q9917 1243 9909.5 1275.0Q9902 1307 9892.5 1338.0Q9883 1369 9868.0 1397.0Q9853 1425 9826 1448Q9824 1448 9813.0 1454.0Q9802 1460 9797 1462H9793H9791Q9787 1462 9782.5 1458.5Q9778 1455 9776 1455Q9773 1452 9766.0 1445.5Q9759 1439 9752.5 1432.0Q9746 1425 9740.5 1420.0Q9735 1415 9734 1413Q9734 1411 9731.0 1402.5Q9728 1394 9724.0 1384.5Q9720 1375 9717.0 1367.0Q9714 1359 9714 1358Q9697 1317 9679.0 1278.0Q9661 1239 9644 1197Q9633 1170 9626.0 1142.0Q9619 1114 9610 1088Q9585 1022 9564.0 958.0Q9543 894 9518 830Q9518 828 9515.5 821.5Q9513 815 9509.5 807.5Q9506 800 9503.0 794.0Q9500 788 9499 787Q9497 783 9491.0 767.5Q9485 752 9483 745Q9483 744 9481.5 736.0Q9480 728 9478.0 718.5Q9476 709 9474.0 701.0Q9472 693 9471 692Q9470 689 9464.5 680.5Q9459 672 9453.0 662.5Q9447 653 9442.0 645.0Q9437 637 9437 635Q9434 632 9432.0 627.0Q9430 622 9430 621Q9429 619 9428.0 612.0Q9427 605 9425.5 596.5Q9424 588 9423.0 581.0Q9422 574 9421 572Q9410 530 9392.0 489.0Q9374 448 9361 406Q9360 404 9359.0 397.5Q9358 391 9356.5 384.0Q9355 377 9354.0 371.0Q9353 365 9352 365Q9352 363 9349.5 358.0Q9347 353 9345 349Q9327 315 9312.5 285.5Q9298 256 9290 218ZM11997 761Q12022 763 12048.5 768.0Q12075 773 12100 773H12110Q12113 770 12119.5 763.0Q12126 756 12134.0 748.5Q12142 741 12148.5 734.5Q12155 728 12158 725Q12160 725 12173.0 716.5Q12186 708 12193 704Q12202 700 12218.0 692.0Q12234 684 12243 676Q12249 670 12262.0 656.5Q12275 643 12288.0 629.0Q12301 615 12311.5 602.5Q12322 590 12324 586Q12340 565 12350.5 538.5Q12361 512 12366.0 483.5Q12371 455 12373.0 427.0Q12375 399 12375 375Q12375 358 12365.0 345.0Q12355 332 12347 315Q12345 314 12342.5 307.5Q12340 301 12336.5 294.0Q12333 287 12329.5 281.0Q12326 275 12324 275Q12324 271 12315.5 262.5Q12307 254 12305 252Q12305 251 12302.0 245.0Q12299 239 12295.5 231.5Q12292 224 12288.5 218.0Q12285 212 12283 211Q12283 210 12278.0 206.5Q12273 203 12266.5 198.5Q12260 194 12253.5 190.0Q12247 186 12243 183Q12241 181 12235.0 178.5Q12229 176 12228 176Q12227 175 12224.0 170.5Q12221 166 12218.0 161.5Q12215 157 12212.0 153.0Q12209 149 12209 148Q12207 148 12204 145Q12203 144 12202 142Q12199 141 12192.0 139.0Q12185 137 12177.0 134.5Q12169 132 12161.5 130.0Q12154 128 12151 128Q12150 128 12144.0 127.0Q12138 126 12131.0 124.5Q12124 123 12118.0 122.0Q12112 121 12110 121Q12108 120 12101.0 118.0Q12094 116 12086.0 113.0Q12078 110 12070.5 108.0Q12063 106 12061 105H12053H12041Q12039 108 12033.0 116.5Q12027 125 12020.0 134.0Q12013 143 12006.5 151.0Q12000 159 11997 162Q11995 166 11992.0 171.5Q11989 177 11986 183Q11982 190 11978 197V321Q11968 340 11964.5 362.0Q11961 384 11961 406Q11961 415 11961.0 424.0Q11961 433 11963 441Q11961 443 11956.5 450.5Q11952 458 11951 460V467V475Q11951 486 11952.5 504.5Q11954 523 11955.0 540.5Q11956 558 11957.0 571.5Q11958 585 11958 586Q11958 588 11960.0 593.5Q11962 599 11964.5 606.0Q11967 613 11969.0 619.0Q11971 625 11972 626V655V683Q11972 685 11968.5 689.5Q11965 694 11963 699Q11963 700 11957.0 708.0Q11951 716 11951 718V721V725Q11951 726 11954 729L11958 733Q11959 733 11968.0 729.0Q11977 725 11978 725Q11992 725 11992 737Q11992 741 11991.5 743.5Q11991 746 11991 750Q11991 759 11997 761ZM11568 1342Q11567 1338 11574.5 1329.0Q11582 1320 11593.0 1311.5Q11604 1303 11615.0 1296.0Q11626 1289 11631 1289Q11634 1288 11644.0 1287.0Q11654 1286 11665.5 1285.0Q11677 1284 11687.0 1283.0Q11697 1282 11700 1282Q11702 1280 11712.5 1272.5Q11723 1265 11728 1261Q11729 1258 11735.0 1253.0Q11741 1248 11743 1245Q11743 1241 11743.5 1230.5Q11744 1220 11745.0 1207.5Q11746 1195 11747.5 1184.0Q11749 1173 11750 1169Q11750 1168 11752.0 1160.0Q11754 1152 11756.0 1142.5Q11758 1133 11760.0 1124.5Q11762 1116 11762 1114V1110Q11762 1095 11756.0 1080.0Q11750 1065 11750 1048Q11750 1027 11756.0 1006.0Q11762 985 11762 962V953Q11762 949 11761.0 927.5Q11760 906 11758.5 881.5Q11757 857 11756.0 835.5Q11755 814 11755 808V795Q11755 786 11759.5 777.0Q11764 768 11770.0 759.5Q11776 751 11780.5 741.5Q11785 732 11785 721Q11785 712 11780.5 702.0Q11776 692 11776 683Q11776 670 11783.0 659.0Q11790 648 11790 635Q11790 614 11784.0 584.0Q11778 554 11778 529Q11776 520 11776.0 498.0Q11776 476 11776 451Q11776 426 11776.0 403.5Q11776 381 11778 372Q11770 360 11766.0 345.5Q11762 331 11762 318V315Q11763 314 11765.0 308.5Q11767 303 11770.0 297.0Q11773 291 11775.0 286.0Q11777 281 11778 280V244Q11778 219 11771.0 194.0Q11764 169 11743 155Q11738 155 11726.5 153.0Q11715 151 11703.0 149.0Q11691 147 11680.0 145.0Q11669 143 11665 142Q11664 140 11656.0 136.5Q11648 133 11646 133Q11644 133 11634.0 134.0Q11624 135 11615 135Q11605 135 11603 133Q11595 132 11587.5 126.0Q11580 120 11574.0 112.0Q11568 104 11564.5 95.0Q11561 86 11561 79Q11561 67 11567.0 56.0Q11573 45 11582.0 36.5Q11591 28 11602.0 23.0Q11613 18 11624 17Q11627 16 11640.5 15.0Q11654 14 11671.0 12.5Q11688 11 11704.0 10.0Q11720 9 11728 8H11745H11762Q11765 9 11776.5 10.5Q11788 12 11801.0 13.5Q11814 15 11825.5 16.0Q11837 17 11840 17H12070Q12072 17 12082.0 20.5Q12092 24 12096 24H12100Q12118 24 12132.0 19.5Q12146 15 12169 15Q12177 15 12191.5 16.0Q12206 17 12209 17Q12210 17 12221.0 20.5Q12232 24 12236 24Q12254 26 12277.5 27.5Q12301 29 12318 36Q12356 50 12387.5 69.0Q12419 88 12451 114Q12471 129 12494.0 159.5Q12517 190 12537.5 226.0Q12558 262 12573.0 298.5Q12588 335 12591 363V394V406Q12591 408 12594.5 419.0Q12598 430 12598 432V436V441Q12591 478 12582.5 514.0Q12574 550 12561.5 584.5Q12549 619 12530.5 651.0Q12512 683 12485 711Q12485 711 12482.5 713.5Q12480 716 12476.5 718.5Q12473 721 12469.5 723.0Q12466 725 12465 725Q12463 726 12456.0 735.0Q12449 744 12440.0 755.0Q12431 766 12422.0 777.5Q12413 789 12409 795Q12407 797 12401.0 805.0Q12395 813 12395 815Q12373 816 12360.0 817.5Q12347 819 12333 830Q12321 836 12304.0 842.5Q12287 849 12268.5 854.0Q12250 859 12232.0 862.0Q12214 865 12200 865Q12174 865 12151.0 855.5Q12128 846 12105 842H12075Q12055 840 12040.0 830.5Q12025 821 12004 821H11996Q11988 821 11979.0 823.0Q11970 825 11963 830Q11963 833 11961.5 840.0Q11960 847 11957.5 854.5Q11955 862 11953.0 868.5Q11951 875 11951 877Q11950 879 11948.0 884.5Q11946 890 11943.5 895.5Q11941 901 11939.0 906.0Q11937 911 11937 911Q11935 911 11935 915V918Q11935 920 11935.0 922.5Q11935 925 11937 927Q11937 929 11944.0 940.0Q11951 951 11951 953Q11951 955 11952.5 961.5Q11954 968 11955.0 975.5Q11956 983 11957.0 989.0Q11958 995 11958 996L11963 1010L11966 1015Q11966 1028 11959.5 1044.5Q11953 1061 11951 1072Q11950 1074 11948.0 1080.0Q11946 1086 11943.5 1093.0Q11941 1100 11939.0 1106.0Q11937 1112 11937 1114Q11937 1117 11939.0 1127.0Q11941 1137 11943.5 1149.0Q11946 1161 11948.0 1171.5Q11950 1182 11951 1185Q11954 1199 11955.0 1214.0Q11956 1229 11959.5 1244.0Q11963 1259 11970.5 1272.0Q11978 1285 11992 1295Q11996 1298 12007.0 1303.0Q12018 1308 12020 1308H12110Q12115 1308 12126.0 1315.5Q12137 1323 12147.5 1332.5Q12158 1342 12166.0 1350.0Q12174 1358 12174 1359V1365Q12166 1379 12159.5 1388.0Q12153 1397 12145.5 1403.5Q12138 1410 12128.5 1413.5Q12119 1417 12105 1420Q12096 1420 12074.5 1419.0Q12053 1418 12030 1418Q12007 1418 11986.5 1419.0Q11966 1420 11958 1420Q11953 1420 11939.5 1422.5Q11926 1425 11923 1427H11686Q11673 1418 11662 1418Q11657 1418 11652.0 1419.0Q11647 1420 11639 1420H11631Q11601 1415 11586.0 1393.5Q11571 1372 11568 1342ZM13024 1444Q13020 1442 13007.0 1437.0Q12994 1432 12989 1430H12979H12963Q12956 1431 12942.5 1432.0Q12929 1433 12915.5 1434.0Q12902 1435 12891.5 1436.5Q12881 1438 12878 1439Q12877 1439 12868.0 1441.5Q12859 1444 12858 1444H12854H12851Q12849 1444 12841.5 1441.5Q12834 1439 12832 1439Q12811 1436 12789.5 1435.5Q12768 1435 12751.0 1431.0Q12734 1427 12723.0 1414.5Q12712 1402 12712 1375Q12712 1346 12730.5 1335.5Q12749 1325 12774.5 1319.5Q12800 1314 12826.0 1307.0Q12852 1300 12866 1278V1271Q12866 1254 12862.0 1237.0Q12858 1220 12858 1200Q12858 1135 12863.5 1072.0Q12869 1009 12872 946V861Q12874 835 12879.5 808.5Q12885 782 12885 752Q12885 720 12878.0 692.5Q12871 665 12851 638Q12849 637 12846.5 634.0Q12844 631 12842 628Q12839 624 12837 621H12759Q12757 621 12747.0 609.5Q12737 598 12733 591Q12732 589 12732 586Q12731 583 12731 577Q12731 566 12737.0 558.5Q12743 551 12753.0 545.5Q12763 540 12774.5 537.5Q12786 535 12797 534H12878Q12888 525 12898.0 522.5Q12908 520 12920 520Q12929 520 12939.0 521.0Q12949 522 12960 522H12970Q12972 522 12983.0 518.5Q12994 515 12998 515Q13000 515 13007.5 517.5Q13015 520 13017 522H13143Q13145 520 13153.0 517.5Q13161 515 13164 515Q13166 516 13169 517Q13171 518 13173.5 519.5Q13176 521 13178 522Q13182 524 13189.5 529.0Q13197 534 13199 534Q13203 539 13208.5 547.0Q13214 555 13219.5 562.5Q13225 570 13229.0 576.0Q13233 582 13233 584V603Q13230 604 13224.0 606.0Q13218 608 13211.5 611.0Q13205 614 13199.0 616.0Q13193 618 13190 619Q13188 619 13180.5 625.0Q13173 631 13171 631Q13157 640 13143.5 648.0Q13130 656 13118.5 665.5Q13107 675 13100.0 687.5Q13093 700 13093 718Q13093 733 13097.5 747.0Q13102 761 13102 775V785Q13102 787 13101.0 793.0Q13100 799 13098.5 805.5Q13097 812 13096.0 818.5Q13095 825 13095 827V854V923Q13093 943 13083.5 961.5Q13074 980 13074 1000Q13074 1009 13076.5 1019.0Q13079 1029 13079 1038V1050Q13075 1085 13071.0 1122.0Q13067 1159 13067 1197V1209Q13070 1228 13072.0 1247.5Q13074 1267 13080.0 1283.0Q13086 1299 13099.0 1309.5Q13112 1320 13136 1320Q13150 1320 13159.0 1312.0Q13168 1304 13181 1304H13185Q13190 1304 13190 1306Q13193 1308 13200.5 1313.5Q13208 1319 13216.0 1325.5Q13224 1332 13230.5 1338.0Q13237 1344 13240 1347Q13247 1352 13257.5 1363.0Q13268 1374 13268 1387V1389Q13263 1402 13251.5 1416.0Q13240 1430 13233 1439Q13232 1439 13229 1442Q13227 1443 13226 1444Q13225 1444 13218.5 1445.0Q13212 1446 13204.5 1447.5Q13197 1449 13189.5 1450.0Q13182 1451 13178 1451H13169H13155Q13148 1451 13129.5 1450.0Q13111 1449 13090.0 1447.5Q13069 1446 13050.5 1445.0Q13032 1444 13024 1444ZM13391 1013Q13391 984 13401.5 956.0Q13412 928 13419 901Q13419 899 13420.0 892.5Q13421 886 13422.5 878.5Q13424 871 13425.0 865.0Q13426 859 13426 858Q13430 840 13434.5 828.5Q13439 817 13439 804Q13439 800 13439.0 797.0Q13439 794 13438 789Q13441 786 13449.0 776.0Q13457 766 13466.0 755.0Q13475 744 13483.5 733.5Q13492 723 13495 719Q13511 697 13525.0 677.0Q13539 657 13564 643Q13578 635 13596.5 625.5Q13615 616 13634.5 608.0Q13654 600 13673.5 594.0Q13693 588 13709 586Q13712 586 13723.5 587.0Q13735 588 13746 588Q13756 588 13758 586Q13760 586 13765.0 584.0Q13770 582 13775.5 580.0Q13781 578 13786.0 576.0Q13791 574 13792 574H13818H13836Q13846 574 13855.5 575.0Q13865 576 13875 581Q13889 586 13901.0 593.5Q13913 601 13925.0 608.0Q13937 615 13950.0 619.5Q13963 624 13979 624Q13992 624 14004.0 620.0Q14016 616 14029 616Q14043 616 14056.0 620.5Q14069 625 14076 636Q14077 639 14078.0 647.5Q14079 656 14080.5 664.5Q14082 673 14083.0 680.5Q14084 688 14085 690Q14085 694 14088.5 705.5Q14092 717 14092 719V723V725Q14088 746 14085.0 771.0Q14082 796 14074.5 817.0Q14067 838 14052.0 852.0Q14037 866 14007 866Q14005 866 14000.5 862.5Q13996 859 13995 858Q13990 855 13982.5 847.5Q13975 840 13967.5 832.5Q13960 825 13953.5 818.5Q13947 812 13945 809Q13945 809 13943.0 804.5Q13941 800 13939.0 795.5Q13937 791 13934.5 786.5Q13932 782 13931 782Q13928 775 13920.0 762.0Q13912 749 13910 747Q13908 745 13900.5 737.0Q13893 729 13891 725Q13873 711 13858.5 702.0Q13844 693 13829.0 687.5Q13814 682 13796.5 680.0Q13779 678 13756 678Q13736 678 13717.5 683.0Q13699 688 13683 699Q13681 699 13678.5 701.5Q13676 704 13675 706Q13673 708 13668.5 714.0Q13664 720 13660.0 727.0Q13656 734 13652.5 739.5Q13649 745 13649 747Q13647 748 13643.5 754.0Q13640 760 13636.5 767.0Q13633 774 13630.0 780.5Q13627 787 13626 789Q13618 803 13611.0 812.0Q13604 821 13599 837Q13599 839 13598.0 846.0Q13597 853 13595.5 861.0Q13594 869 13593.0 876.0Q13592 883 13592 885Q13587 906 13581.5 926.5Q13576 947 13576 970Q13576 1004 13587.5 1032.5Q13599 1061 13605 1093Q13609 1112 13612.0 1134.0Q13615 1156 13619.0 1178.0Q13623 1200 13630.0 1221.0Q13637 1242 13649 1259Q13655 1269 13663.5 1274.5Q13672 1280 13681.0 1285.5Q13690 1291 13699.5 1297.5Q13709 1304 13718 1316H13753Q13772 1316 13788.0 1314.5Q13804 1313 13822 1302Q13852 1270 13888.0 1234.0Q13924 1198 13960 1171Q13960 1146 13970.5 1125.5Q13981 1105 14007 1105Q14012 1105 14022.5 1106.0Q14033 1107 14035 1114L14057 1178V1231V1309Q14056 1340 14047.5 1357.0Q14039 1374 14026.0 1382.5Q14013 1391 13996.5 1393.5Q13980 1396 13962.5 1398.0Q13945 1400 13928.0 1404.0Q13911 1408 13896 1420H13737Q13725 1414 13713.0 1411.5Q13701 1409 13688.5 1407.5Q13676 1406 13664.0 1404.5Q13652 1403 13640 1398Q13602 1383 13568.0 1360.0Q13534 1337 13505.5 1308.0Q13477 1279 13454.5 1244.0Q13432 1209 13419 1171Q13418 1168 13417.0 1161.0Q13416 1154 13415.0 1145.5Q13414 1137 13413.0 1130.0Q13412 1123 13412 1121Q13411 1120 13409.0 1116.0Q13407 1112 13405.0 1107.5Q13403 1103 13401.0 1098.5Q13399 1094 13398 1093Q13394 1076 13392.5 1054.5Q13391 1033 13391 1013ZM14543 981Q14543 999 14550.5 1010.0Q14558 1021 14569.0 1027.5Q14580 1034 14594.0 1036.0Q14608 1038 14622 1038H14655Q14666 1033 14668.5 1027.0Q14671 1021 14671 1013Q14670 1012 14670 1011V1008Q14669 1006 14669 1003Q14668 1001 14663.5 994.0Q14659 987 14654.5 979.0Q14650 971 14645.5 964.0Q14641 957 14640 955Q14636 945 14634.0 934.0Q14632 923 14629.0 912.5Q14626 902 14621.0 893.0Q14616 884 14605 877H14596Q14584 877 14578.5 882.5Q14573 888 14570.5 896.5Q14568 905 14567.5 915.0Q14567 925 14565 934Q14562 942 14558.5 947.5Q14555 953 14551.5 957.5Q14548 962 14545.5 967.5Q14543 973 14543 981ZM14169 1368Q14169 1343 14182.0 1331.5Q14195 1320 14214.0 1314.5Q14233 1309 14253.5 1305.5Q14274 1302 14288 1294L14294 1288Q14300 1282 14300 1282Q14316 1269 14326.5 1258.5Q14337 1248 14344.5 1236.5Q14352 1225 14357.5 1211.0Q14363 1197 14370 1176Q14370 1174 14373.0 1167.0Q14376 1160 14380.0 1152.0Q14384 1144 14387.5 1137.0Q14391 1130 14392 1128Q14392 1125 14392.5 1116.0Q14393 1107 14394.0 1096.5Q14395 1086 14396.0 1077.0Q14397 1068 14397 1065Q14397 1065 14399.0 1061.0Q14401 1057 14404.0 1052.5Q14407 1048 14409.0 1043.5Q14411 1039 14411 1038Q14412 1035 14414.0 1024.0Q14416 1013 14418.5 1000.0Q14421 987 14423.0 975.5Q14425 964 14427 962Q14436 921 14454.0 880.0Q14472 839 14489 801Q14489 799 14491.5 790.5Q14494 782 14496 780Q14497 775 14500.0 763.5Q14503 752 14506.5 740.0Q14510 728 14513.0 717.5Q14516 707 14517 704Q14517 703 14518.0 698.0Q14519 693 14520.0 687.0Q14521 681 14522.0 676.0Q14523 671 14524 669Q14524 667 14527.5 658.5Q14531 650 14531 648Q14536 641 14541 634Q14546 629 14550.5 623.0Q14555 617 14558 614Q14561 611 14572.5 604.5Q14584 598 14598.0 590.5Q14612 583 14624.5 577.5Q14637 572 14640 572Q14654 572 14667.5 585.0Q14681 598 14692.5 618.0Q14704 638 14713.5 662.5Q14723 687 14731.0 710.5Q14739 734 14744.0 752.5Q14749 771 14752 780Q14752 782 14755.5 790.5Q14759 799 14759 801Q14779 846 14792.0 896.0Q14805 946 14821 996V1024Q14824 1037 14835.0 1045.5Q14846 1054 14851 1065Q14851 1068 14854.5 1078.0Q14858 1088 14862.5 1100.0Q14867 1112 14871.5 1122.0Q14876 1132 14878 1135Q14879 1137 14883.5 1147.0Q14888 1157 14894.0 1169.0Q14900 1181 14905.5 1191.0Q14911 1201 14913 1204Q14913 1205 14914.5 1210.5Q14916 1216 14918.0 1222.0Q14920 1228 14922.0 1233.0Q14924 1238 14925 1238Q14931 1252 14946.5 1268.0Q14962 1284 14977.5 1300.5Q14993 1317 15005.0 1332.0Q15017 1347 15017 1358Q15017 1373 15011.0 1388.5Q15005 1404 14989 1413Q14957 1415 14922.5 1421.0Q14888 1427 14856 1427H14844Q14835 1426 14813.5 1423.5Q14792 1421 14768.5 1419.0Q14745 1417 14724.5 1415.5Q14704 1414 14697 1413Q14669 1394 14669 1363Q14669 1339 14681.0 1329.0Q14693 1319 14708.0 1311.0Q14723 1303 14735.0 1290.0Q14747 1277 14747 1247Q14747 1217 14740.0 1200.0Q14733 1183 14719.5 1174.5Q14706 1166 14687.0 1164.0Q14668 1162 14645 1162H14617H14565Q14552 1165 14537.5 1171.5Q14523 1178 14510.5 1188.0Q14498 1198 14490.0 1210.5Q14482 1223 14482 1238Q14482 1257 14491.5 1271.0Q14501 1285 14513.0 1298.0Q14525 1311 14534.5 1324.0Q14544 1337 14544 1354Q14544 1381 14535.5 1394.5Q14527 1408 14513.0 1413.5Q14499 1419 14479.5 1419.0Q14460 1419 14439 1420Q14435 1420 14416.5 1421.0Q14398 1422 14377.0 1423.5Q14356 1425 14337.0 1426.0Q14318 1427 14314 1427H14307H14300Q14293 1426 14280.0 1424.5Q14267 1423 14253.5 1422.0Q14240 1421 14229.5 1420.5Q14219 1420 14216 1420Q14199 1416 14184.0 1402.0Q14169 1388 14169 1368ZM15612 1271Q15607 1258 15606.0 1249.0Q15605 1240 15605 1226Q15605 1205 15609.0 1185.0Q15613 1165 15618.5 1146.0Q15624 1127 15629.5 1108.5Q15635 1090 15639 1071Q15644 1047 15648.5 1023.5Q15653 1000 15674 986Q15677 985 15685.0 984.0Q15693 983 15702.0 982.0Q15711 981 15718.5 980.0Q15726 979 15729 979Q15733 979 15740.5 984.0Q15748 989 15750 993Q15766 1022 15775.0 1046.0Q15784 1070 15798 1105L15805 1117V1159Q15808 1171 15813.5 1179.5Q15819 1188 15826.0 1194.5Q15833 1201 15840.5 1207.0Q15848 1213 15856 1221Q15863 1231 15868.5 1241.5Q15874 1252 15881.0 1261.0Q15888 1270 15898.0 1276.5Q15908 1283 15925 1283Q15932 1285 15953.5 1287.0Q15975 1289 15999.5 1291.5Q16024 1294 16045.5 1296.0Q16067 1298 16075 1299H16084Q16106 1299 16126.5 1288.5Q16147 1278 16167 1271Q16169 1269 16181.0 1266.5Q16193 1264 16195 1264Q16196 1263 16204.5 1255.5Q16213 1248 16217 1244Q16219 1241 16223.5 1235.0Q16228 1229 16232.5 1223.5Q16237 1218 16240.5 1214.0Q16244 1210 16245 1209Q16245 1208 16245.5 1202.5Q16246 1197 16247.0 1191.0Q16248 1185 16249.0 1180.0Q16250 1175 16252 1174Q16252 1173 16254.0 1168.5Q16256 1164 16258.0 1159.5Q16260 1155 16262.0 1150.5Q16264 1146 16264 1145Q16265 1143 16266.0 1137.0Q16267 1131 16268.0 1124.5Q16269 1118 16270.0 1112.5Q16271 1107 16271 1105Q16271 1101 16267.5 1089.5Q16264 1078 16264 1076Q16263 1072 16262.0 1059.0Q16261 1046 16260.0 1031.0Q16259 1016 16258.0 1003.5Q16257 991 16257 986Q16256 981 16250.0 972.5Q16244 964 16236.5 954.5Q16229 945 16221.0 936.5Q16213 928 16208 923Q16197 908 16181.0 895.0Q16165 882 16148 875Q16145 873 16136.0 870.5Q16127 868 16125 868Q16124 867 16119.0 862.5Q16114 858 16108.5 853.5Q16103 849 16098.0 845.0Q16093 841 16091 840Q16089 839 16084.0 836.5Q16079 834 16075 834Q16074 833 16067.0 830.0Q16060 827 16052.0 823.5Q16044 820 16037.0 817.0Q16030 814 16029 813Q16023 811 16020 809Q16017 808 16015 806Q16013 805 16009.0 801.0Q16005 797 16000.5 792.0Q15996 787 15992.0 783.0Q15988 779 15987 778Q15986 777 15981.5 774.5Q15977 772 15971.5 768.5Q15966 765 15960.5 761.5Q15955 758 15952 756Q15922 740 15894.5 719.0Q15867 698 15840.0 676.5Q15813 655 15785.5 634.5Q15758 614 15729 597Q15725 592 15716.0 578.0Q15707 564 15697.5 548.0Q15688 532 15679.0 518.5Q15670 505 15667 500Q15665 498 15662.0 492.0Q15659 486 15655.5 479.5Q15652 473 15649.5 467.0Q15647 461 15646 458V406Q15646 368 15648.5 330.0Q15651 292 15660 257Q15668 229 15688.5 196.5Q15709 164 15736.0 133.5Q15763 103 15792.0 79.5Q15821 56 15847 46Q15848 46 15854.0 45.5Q15860 45 15867.5 44.5Q15875 44 15881.5 43.0Q15888 42 15890 41Q15893 41 15902.0 39.0Q15911 37 15921.0 34.0Q15931 31 15940.0 29.0Q15949 27 15952 27Q15953 27 15961.5 27.0Q15970 27 15981.5 26.5Q15993 26 16005.0 26.0Q16017 26 16023 26Q16027 26 16038.0 26.0Q16049 26 16061.0 26.5Q16073 27 16083.5 27.0Q16094 27 16098 27Q16107 31 16117.0 32.5Q16127 34 16136.5 35.5Q16146 37 16155.5 39.0Q16165 41 16174 46Q16176 49 16181.0 54.5Q16186 60 16188 62Q16208 87 16232.0 103.0Q16256 119 16290 119Q16314 119 16326.0 112.5Q16338 106 16346.0 97.5Q16354 89 16362.0 82.5Q16370 76 16387 76Q16396 76 16400.0 77.5Q16404 79 16411 90Q16413 93 16417.0 101.0Q16421 109 16425.5 118.0Q16430 127 16433.5 134.5Q16437 142 16439 145V150V159Q16438 160 16436.5 165.0Q16435 170 16433.5 176.0Q16432 182 16431.0 187.0Q16430 192 16430 193V276Q16417 295 16413.5 311.0Q16410 327 16402 347Q16402 349 16397.0 360.5Q16392 372 16390 373Q16385 386 16381.5 395.5Q16378 405 16372.5 411.5Q16367 418 16357.5 421.0Q16348 424 16331 424Q16308 424 16293.0 415.0Q16278 406 16269.0 392.0Q16260 378 16254.5 360.0Q16249 342 16244.0 323.5Q16239 305 16233.0 287.5Q16227 270 16217 257Q16215 255 16208.5 247.0Q16202 239 16194.0 230.0Q16186 221 16178.5 212.5Q16171 204 16167 200Q16162 194 16151.0 184.0Q16140 174 16128.0 163.5Q16116 153 16104.0 145.5Q16092 138 16084 138H15994Q15987 133 15981.5 132.0Q15976 131 15970 131H15959Q15928 151 15900.0 176.0Q15872 201 15847 228V242Q15847 260 15843.5 272.0Q15840 284 15840 302V313Q15840 315 15843.5 326.0Q15847 337 15847 339Q15848 356 15848.0 369.0Q15848 382 15849.5 394.0Q15851 406 15855.0 418.0Q15859 430 15868 444Q15871 446 15874 449L15883 458Q15886 461 15897.0 471.0Q15908 481 15920.5 492.5Q15933 504 15944.5 514.0Q15956 524 15959 527Q15960 528 15964.0 532.0Q15968 536 15972.5 541.0Q15977 546 15981.5 550.0Q15986 554 15987 555Q15989 556 15997.5 560.0Q16006 564 16017.0 569.5Q16028 575 16039.0 581.0Q16050 587 16056 590Q16082 601 16109.5 616.0Q16137 631 16167 631Q16215 663 16269.0 698.0Q16323 733 16368 771Q16372 773 16376.5 778.0Q16381 783 16383 785Q16384 787 16386.5 792.5Q16389 798 16392.5 805.0Q16396 812 16398.5 818.0Q16401 824 16402 825Q16419 851 16437.0 872.5Q16455 894 16464 923Q16465 925 16466.5 932.0Q16468 939 16469.0 947.5Q16470 956 16471.0 963.5Q16472 971 16473 972Q16473 974 16476.5 982.0Q16480 990 16480 993V1007Q16480 1024 16473.5 1034.5Q16467 1045 16464 1064Q16464 1068 16465.0 1084.5Q16466 1101 16466 1117Q16466 1136 16464 1140Q16464 1141 16461.5 1146.0Q16459 1151 16455.5 1156.5Q16452 1162 16449.0 1167.0Q16446 1172 16445 1174Q16443 1177 16436.0 1191.5Q16429 1206 16420.5 1222.5Q16412 1239 16405.0 1253.5Q16398 1268 16395 1271Q16395 1273 16388.5 1280.0Q16382 1287 16373.0 1296.0Q16364 1305 16355.5 1313.5Q16347 1322 16342 1327Q16310 1356 16276.0 1377.5Q16242 1399 16202 1410Q16197 1411 16179.0 1415.0Q16161 1419 16140.0 1423.5Q16119 1428 16099.5 1432.0Q16080 1436 16070 1437H16063Q16009 1437 15951.5 1434.0Q15894 1431 15840 1417Q15830 1414 15822.0 1408.5Q15814 1403 15805.5 1397.0Q15797 1391 15789.0 1385.0Q15781 1379 15771 1375Q15764 1372 15748.0 1366.5Q15732 1361 15715.5 1355.0Q15699 1349 15685.0 1343.5Q15671 1338 15667 1334Q15664 1330 15656.0 1321.0Q15648 1312 15639.0 1302.0Q15630 1292 15622.5 1283.0Q15615 1274 15612 1271ZM16707 858 16691 830Q16691 829 16689.5 815.0Q16688 801 16686.0 782.5Q16684 764 16682.0 744.0Q16680 724 16679 711V699V683Q16680 670 16683.0 642.0Q16686 614 16689.0 585.5Q16692 557 16695.0 533.0Q16698 509 16700 503Q16706 458 16728.5 419.0Q16751 380 16776 344Q16780 338 16791.0 322.0Q16802 306 16814.0 288.0Q16826 270 16837.0 254.5Q16848 239 16852 233Q16875 220 16895.0 203.5Q16915 187 16934.0 169.5Q16953 152 16972.0 134.5Q16991 117 17011 102Q17015 98 17023.5 93.0Q17032 88 17034 86Q17034 86 17038.0 85.0Q17042 84 17046.5 82.5Q17051 81 17055.5 80.0Q17060 79 17061 79Q17064 79 17076.0 74.5Q17088 70 17102.0 65.5Q17116 61 17128.5 56.5Q17141 52 17144 52Q17178 42 17216.5 40.0Q17255 38 17293 38H17373H17457Q17461 39 17472.0 42.0Q17483 45 17495.0 48.0Q17507 51 17518.0 54.0Q17529 57 17534 58Q17568 72 17595.5 84.0Q17623 96 17658 107H17660Q17675 107 17689.0 102.5Q17703 98 17716.5 92.5Q17730 87 17743.5 82.5Q17757 78 17771 78Q17781 78 17784.5 90.0Q17788 102 17788 116Q17788 126 17787.0 135.0Q17786 144 17786 150Q17786 154 17788.0 164.0Q17790 174 17790 176V231V252Q17791 267 17795.0 280.5Q17799 294 17803.0 307.5Q17807 321 17810.5 334.5Q17814 348 17814 363Q17814 383 17813.0 401.0Q17812 419 17807.0 434.5Q17802 450 17791.5 462.0Q17781 474 17762 482Q17757 485 17746.5 488.0Q17736 491 17734 491L17677 462L17675 456Q17673 450 17672 448Q17669 439 17662.0 418.5Q17655 398 17647.5 374.5Q17640 351 17633.0 330.5Q17626 310 17624 302Q17621 299 17615.0 291.0Q17609 283 17602.5 274.0Q17596 265 17589.5 256.5Q17583 248 17580 245Q17577 242 17570.0 235.5Q17563 229 17555.5 222.5Q17548 216 17541.5 211.0Q17535 206 17534 206Q17532 205 17523.5 203.5Q17515 202 17505.5 201.0Q17496 200 17487.5 199.5Q17479 199 17476 199Q17475 199 17467.0 195.5Q17459 192 17457 190H17432H17423Q17419 190 17414.0 181.5Q17409 173 17407 171Q17407 167 17409.5 158.0Q17412 149 17412 147Q17408 147 17397.0 144.5Q17386 142 17381 142H17380Q17378 142 17373.0 148.5Q17368 155 17366 155Q17362 158 17351.0 164.5Q17340 171 17338 171H17283Q17280 171 17272.0 173.5Q17264 176 17262 176H17252Q17242 176 17232.5 173.5Q17223 171 17214 171Q17202 171 17184.5 177.0Q17167 183 17158 190Q17155 193 17145.0 203.5Q17135 214 17123.0 226.0Q17111 238 17100.5 248.0Q17090 258 17087 261Q17085 263 17082 264Q17080 266 17078.0 266.5Q17076 267 17075 268Q17073 269 17068.0 273.0Q17063 277 17057.5 281.5Q17052 286 17047.0 290.5Q17042 295 17041 296Q17036 302 17026.0 316.0Q17016 330 17004.5 346.5Q16993 363 16983.5 378.0Q16974 393 16971 399Q16970 399 16967.5 405.5Q16965 412 16961.5 421.0Q16958 430 16955.0 439.0Q16952 448 16949 453Q16949 455 16947.5 461.5Q16946 468 16943.5 475.5Q16941 483 16939.0 489.0Q16937 495 16937 496Q16935 498 16931.5 505.0Q16928 512 16924.5 520.0Q16921 528 16918.0 535.5Q16915 543 16914 545V600V622Q16914 625 16912.5 632.0Q16911 639 16909.0 646.5Q16907 654 16905.0 660.5Q16903 667 16902 669V823Q16910 835 16909.5 846.5Q16909 858 16914 872Q16914 874 16917 875L16921 877Q16935 907 16938.5 942.5Q16942 978 16949 1010Q16949 1012 16952.5 1017.0Q16956 1022 16956 1024Q16968 1051 16979.5 1077.5Q16991 1104 17004.0 1128.5Q17017 1153 17034.0 1176.0Q17051 1199 17075 1219Q17086 1227 17101.0 1238.0Q17116 1249 17130 1254Q17133 1255 17142.5 1256.5Q17152 1258 17162.5 1260.0Q17173 1262 17182.0 1263.5Q17191 1265 17193 1266Q17196 1268 17201.0 1273.0Q17206 1278 17211.5 1283.5Q17217 1289 17221.5 1294.0Q17226 1299 17227 1301Q17230 1302 17240.0 1303.5Q17250 1305 17261.0 1306.0Q17272 1307 17282.5 1307.5Q17293 1308 17297 1308Q17299 1308 17305.0 1309.5Q17311 1311 17318.0 1312.5Q17325 1314 17331.0 1315.0Q17337 1316 17338 1316Q17368 1314 17399.5 1298.5Q17431 1283 17449 1261Q17451 1258 17453.5 1252.5Q17456 1247 17457 1247Q17462 1240 17469.5 1238.5Q17477 1237 17485 1237Q17492 1237 17497.5 1237.5Q17503 1238 17508 1238H17511Q17513 1238 17519.0 1236.0Q17525 1234 17527 1231Q17528 1229 17533.0 1223.5Q17538 1218 17543.5 1211.5Q17549 1205 17554.0 1199.5Q17559 1194 17561 1192Q17562 1190 17566.0 1182.0Q17570 1174 17574.5 1165.5Q17579 1157 17583.0 1150.0Q17587 1143 17589 1141Q17602 1122 17614.5 1106.5Q17627 1091 17637 1065Q17645 1045 17652.5 1017.0Q17660 989 17665 968Q17665 968 17666.0 963.0Q17667 958 17668.5 952.0Q17670 946 17671.0 940.5Q17672 935 17672 934Q17679 902 17698.5 883.5Q17718 865 17750 865Q17770 865 17783.0 873.0Q17796 881 17804.0 893.5Q17812 906 17815.5 922.5Q17819 939 17819 955Q17819 966 17818.0 975.5Q17817 985 17810 996V1150Q17815 1155 17817.0 1159.0Q17819 1163 17819 1169V1176Q17818 1179 17815.0 1187.5Q17812 1196 17808.5 1206.0Q17805 1216 17802.0 1225.0Q17799 1234 17797 1238Q17795 1243 17792.5 1247.5Q17790 1252 17790 1254Q17772 1267 17753.0 1272.0Q17734 1277 17715.5 1280.0Q17697 1283 17678.5 1287.0Q17660 1291 17643 1301Q17641 1303 17635.0 1308.5Q17629 1314 17622.5 1319.5Q17616 1325 17610.0 1330.0Q17604 1335 17603 1335Q17580 1352 17555.0 1365.5Q17530 1379 17504 1385Q17454 1399 17405.0 1413.0Q17356 1427 17302 1427Q17270 1427 17235.5 1424.0Q17201 1421 17166.0 1415.5Q17131 1410 17097.5 1402.0Q17064 1394 17034 1385Q17023 1382 17017.0 1376.0Q17011 1370 17006.5 1363.0Q17002 1356 16997.0 1348.5Q16992 1341 16983 1335Q16981 1334 16972.0 1329.0Q16963 1324 16952.0 1317.5Q16941 1311 16930.5 1304.5Q16920 1298 16914 1295Q16908 1292 16905.0 1290.5Q16902 1289 16899.5 1287.5Q16897 1286 16894.0 1282.5Q16891 1279 16887 1273Q16886 1272 16882.0 1266.5Q16878 1261 16873.5 1253.5Q16869 1246 16864.5 1239.5Q16860 1233 16859 1231Q16857 1230 16852.0 1225.0Q16847 1220 16841.5 1214.5Q16836 1209 16830.5 1204.0Q16825 1199 16824 1197Q16823 1196 16819.5 1190.5Q16816 1185 16811.5 1179.0Q16807 1173 16803.0 1166.5Q16799 1160 16798 1157Q16774 1117 16757.0 1082.0Q16740 1047 16729.0 1012.5Q16718 978 16712.5 940.5Q16707 903 16707 858Z" /></svg>