<svg viewBox="0 0 17615 2598" xmlns="http://www.w3.org/2000/svg"><path d="M427 1828Q413 1828 398.5 1831.5Q384 1835 369.0 1839.5Q354 1844 338.5 1847.5Q323 1851 306 1851L261 1845Q246 1845 233.5 1848.0Q221 1851 208 1851H135Q126 1851 119.0 1850.0Q112 1849 106 1847Q68 1839 68 1799Q68 1787 70.5 1779.0Q73 1771 90 1762Q107 1755 132.5 1752.0Q158 1749 185.0 1746.5Q212 1744 236.5 1740.5Q261 1737 275 1728Q281 1725 289.5 1712.0Q298 1699 305.5 1683.5Q313 1668 318.5 1654.0Q324 1640 324 1634L312 1553L334 1505L312 1463L334 1233L327 1129Q322 1124 322 1107Q322 1091 324.5 1080.0Q327 1069 330.5 1061.5Q334 1054 336.5 1047.0Q339 1040 339 1031Q339 1005 330.5 981.5Q322 958 322 930L334 859Q334 849 333.5 835.0Q333 821 331.0 806.0Q329 791 324.5 777.5Q320 764 312 755Q312 751 314.5 743.0Q317 735 317 719Q317 706 314.5 695.5Q312 685 312 681Q312 676 310.0 669.0Q308 662 306 662L242 603Q230 603 201.5 597.0Q173 591 143.5 581.0Q114 571 91.0 557.5Q68 544 68 529Q68 501 86.0 491.5Q104 482 125 482Q133 482 140.5 483.0Q148 484 154 486Q196 488 237.0 493.0Q278 498 320 498Q352 498 384.0 493.0Q416 488 448 486Q462 481 487.0 478.0Q512 475 539.5 473.5Q567 472 593.0 471.0Q619 470 635 468Q667 463 699.0 455.5Q731 448 763 448Q784 448 803.0 457.0Q822 466 822 496Q822 502 815.5 507.0Q809 512 800.5 516.5Q792 521 785.0 524.5Q778 528 777 532Q774 535 765.5 542.5Q757 550 747.5 558.0Q738 566 729.0 573.0Q720 580 715 582Q700 582 671.5 587.0Q643 592 615.0 602.5Q587 613 566.0 628.0Q545 643 545 662V809Q545 810 546.5 816.0Q548 822 550.0 830.0Q552 838 553.5 846.5Q555 855 556 859Q566 866 566 878Q550 907 542.5 937.5Q535 968 535 998L545 1072L540 1133Q540 1147 543.5 1161.0Q547 1175 551.0 1189.5Q555 1204 558.5 1218.5Q562 1233 562 1249Q562 1263 558.5 1276.5Q555 1290 551.0 1302.5Q547 1315 543.5 1328.0Q540 1341 540 1354Q540 1368 542.0 1378.0Q544 1388 550 1404V1527Q546 1538 545.5 1543.5Q545 1549 545 1558Q545 1596 553.0 1626.0Q561 1656 576 1690Q576 1693 586.0 1700.5Q596 1708 608.5 1715.5Q621 1723 632.0 1729.0Q643 1735 645 1735Q666 1735 679.0 1730.5Q692 1726 706 1726Q718 1726 740.0 1729.0Q762 1732 780 1742Q790 1750 798.0 1759.5Q806 1769 806 1780Q806 1795 802.0 1810.0Q798 1825 789 1830Q777 1842 758 1842Q749 1842 738.0 1843.0Q727 1844 718 1845L678 1854Q657 1854 632.5 1853.5Q608 1853 583.5 1852.0Q559 1851 535.5 1849.0Q512 1847 493 1845Q490 1845 482.0 1842.5Q474 1840 464.0 1837.0Q454 1834 445.5 1832.0Q437 1830 433 1830Q432 1830 431 1829Q430 1829 429.0 1828.5Q428 1828 427 1828ZM964 1823Q964 1807 967.0 1802.0Q970 1797 979 1790Q995 1779 1019.0 1767.0Q1043 1755 1068.0 1743.0Q1093 1731 1116.0 1720.0Q1139 1709 1154 1700Q1176 1661 1185.0 1617.0Q1194 1573 1194 1527V1498Q1194 1490 1194.0 1482.0Q1194 1474 1195 1466Q1196 1464 1197.0 1459.0Q1198 1454 1199.0 1448.0Q1200 1442 1200.5 1436.5Q1201 1431 1201 1428L1213 1408L1214 1371Q1214 1366 1212.5 1359.5Q1211 1353 1201 1340L1218 1285Q1218 1277 1216.5 1272.0Q1215 1267 1213 1262Q1211 1260 1209.0 1254.0Q1207 1248 1207 1242V1223L1218 1145L1207 1077Q1207 1054 1217.5 1031.0Q1228 1008 1228 986L1223 947Q1223 931 1226.5 913.0Q1230 895 1234.5 876.5Q1239 858 1243.0 838.5Q1247 819 1247 800Q1243 794 1235.0 784.0Q1227 774 1223 766Q1223 753 1220.5 733.0Q1218 713 1210.5 694.5Q1203 676 1190.5 663.0Q1178 650 1159 650L1076 657H1055Q1034 654 1015.5 651.0Q997 648 982.5 641.5Q968 635 959.5 623.0Q951 611 951 589Q951 571 953.0 562.0Q955 553 961.0 549.0Q967 545 977.5 543.5Q988 542 1005 539L1029 529H1062Q1130 529 1192.0 537.5Q1254 546 1320 546Q1336 546 1347.5 542.5Q1359 539 1372 539Q1426 560 1453.5 594.0Q1481 628 1495 683L1496 695Q1499 715 1502.0 727.0Q1505 739 1511.5 748.0Q1518 757 1530.0 765.5Q1542 774 1564 785L1562 806Q1562 821 1565.5 835.5Q1569 850 1574.5 864.5Q1580 879 1585.0 894.0Q1590 909 1593 927Q1593 930 1594.0 937.5Q1595 945 1596.5 953.0Q1598 961 1599.0 968.0Q1600 975 1600 977Q1606 992 1617.5 1010.5Q1629 1029 1641.0 1048.0Q1653 1067 1665.0 1086.0Q1677 1105 1685 1120Q1711 1175 1735.0 1231.0Q1759 1287 1782 1344L1811 1392Q1817 1403 1820.0 1415.5Q1823 1428 1827.5 1438.0Q1832 1448 1839.0 1454.5Q1846 1461 1860 1461Q1875 1461 1881.0 1458.0Q1887 1455 1889.0 1448.0Q1891 1441 1892.0 1431.5Q1893 1422 1898 1408Q1898 1406 1907.5 1400.0Q1917 1394 1919 1392Q1938 1367 1951.0 1338.5Q1964 1310 1974.5 1279.5Q1985 1249 1994.0 1218.0Q2003 1187 2014 1157Q2014 1156 2018.5 1146.0Q2023 1136 2028.5 1123.5Q2034 1111 2039.5 1099.0Q2045 1087 2047 1082Q2062 1044 2071.5 1012.0Q2081 980 2097 946L2104 927Q2124 889 2146.5 847.5Q2169 806 2195 780Q2195 764 2192.5 757.0Q2190 750 2190 745Q2190 740 2192.0 729.5Q2194 719 2197.0 707.5Q2200 696 2202.0 686.5Q2204 677 2204 674Q2206 670 2208.5 658.0Q2211 646 2211 641L2232 619Q2232 616 2233.0 608.5Q2234 601 2234.5 593.5Q2235 586 2236.0 580.0Q2237 574 2237 572Q2243 559 2257.5 548.5Q2272 538 2289.5 531.5Q2307 525 2324.0 521.5Q2341 518 2353 518Q2373 518 2393 529Q2414 536 2436 536L2526 518Q2562 518 2589.5 519.5Q2617 521 2655 529Q2685 534 2685 562Q2685 588 2667.0 602.5Q2649 617 2622.0 626.5Q2595 636 2564.0 642.5Q2533 649 2506.0 657.5Q2479 666 2461.0 679.5Q2443 693 2443 716Q2443 737 2450.0 756.5Q2457 776 2465.5 796.0Q2474 816 2481.0 836.5Q2488 857 2488 878L2472 972V1172Q2477 1180 2477 1193L2481 1300L2503 1338V1402Q2503 1404 2503.5 1411.5Q2504 1419 2505.0 1428.0Q2506 1437 2507.0 1445.0Q2508 1453 2508 1456Q2510 1472 2513.0 1502.5Q2516 1533 2520.5 1567.0Q2525 1601 2531.5 1632.0Q2538 1663 2548 1679Q2559 1698 2578.0 1707.5Q2597 1717 2619.5 1723.0Q2642 1729 2665.0 1733.0Q2688 1737 2706.5 1744.5Q2725 1752 2737.0 1765.0Q2749 1778 2749 1802Q2749 1822 2739.0 1833.0Q2729 1844 2714.0 1850.0Q2699 1856 2682.0 1857.5Q2665 1859 2652 1859H2600Q2579 1859 2555.5 1858.0Q2532 1857 2511.0 1855.0Q2490 1853 2474.0 1850.5Q2458 1848 2451 1844Q2448 1842 2431 1842H2412L2304 1859L2211 1849Q2207 1849 2199.5 1853.0Q2192 1857 2190 1859Q2172 1859 2154.0 1856.0Q2136 1853 2121.5 1846.0Q2107 1839 2097.5 1827.5Q2088 1816 2088 1799Q2088 1777 2117 1769Q2129 1768 2140.0 1767.0Q2151 1766 2164 1766Q2201 1766 2234.5 1759.5Q2268 1753 2290 1724Q2291 1719 2293 1715Q2294 1712 2295.0 1709.0Q2296 1706 2296 1705Q2296 1703 2297.5 1700.0Q2299 1697 2301 1693L2308 1669Q2314 1646 2316.0 1623.0Q2318 1600 2318 1577Q2318 1548 2315.5 1520.5Q2313 1493 2308 1463L2306 1454Q2304 1448 2304.0 1438.5Q2304 1429 2304 1418Q2304 1403 2304.0 1385.5Q2304 1368 2302.5 1352.5Q2301 1337 2298.0 1324.5Q2295 1312 2290 1306Q2292 1301 2292.0 1298.5Q2292 1296 2292 1292V1276L2270 1112L2275 991Q2275 982 2274.0 967.5Q2273 953 2272.5 938.5Q2272 924 2271.0 913.5Q2270 903 2270 903Q2270 894 2269.5 877.0Q2269 860 2266.0 843.0Q2263 826 2256.0 813.0Q2249 800 2237 800Q2233 800 2229.5 802.0Q2226 804 2226 806L2211 875Q2197 881 2194.5 895.0Q2192 909 2192 925Q2192 933 2192.0 940.5Q2192 948 2190 954Q2174 983 2153.5 1006.5Q2133 1030 2117 1056Q2112 1061 2108.0 1073.5Q2104 1086 2100.0 1100.5Q2096 1115 2093.0 1127.5Q2090 1140 2088 1146Q2075 1181 2058.0 1216.0Q2041 1251 2021 1285L2014 1300Q2012 1302 2011.0 1315.5Q2010 1329 2008 1333Q2005 1335 1999.5 1340.0Q1994 1345 1988.0 1351.0Q1982 1357 1977.0 1362.5Q1972 1368 1969 1370L1955 1442Q1952 1456 1945.0 1468.0Q1938 1480 1930.5 1491.5Q1923 1503 1916.0 1514.5Q1909 1526 1905 1539Q1905 1541 1904.0 1549.0Q1903 1557 1901.5 1567.0Q1900 1577 1899.0 1586.0Q1898 1595 1898 1598Q1898 1601 1894.5 1617.5Q1891 1634 1886.0 1653.0Q1881 1672 1876.5 1687.5Q1872 1703 1870 1705L1846 1733Q1844 1736 1844 1752Q1844 1760 1843.0 1770.5Q1842 1781 1838.0 1790.0Q1834 1799 1827.5 1805.0Q1821 1811 1811 1811Q1802 1811 1792.5 1804.0Q1783 1797 1773.5 1786.0Q1764 1775 1755.5 1763.0Q1747 1751 1740 1740Q1740 1738 1736.0 1732.5Q1732 1727 1732 1724Q1713 1692 1707.0 1656.0Q1701 1620 1690 1582Q1688 1573 1677.5 1553.0Q1667 1533 1654.0 1510.5Q1641 1488 1629.0 1467.0Q1617 1446 1611 1434Q1588 1389 1564.0 1344.0Q1540 1299 1517 1254L1495 1184Q1466 1119 1434.0 1062.5Q1402 1006 1370 946Q1368 942 1363.0 935.0Q1358 928 1356 927L1334 903Q1331 897 1330.5 890.0Q1330 883 1329.0 877.0Q1328 871 1324.0 867.0Q1320 863 1310 863Q1305 863 1303.5 864.0Q1302 865 1299 870L1287 986V1034Q1287 1068 1287.0 1100.5Q1287 1133 1289 1167Q1292 1232 1292 1300Q1293 1303 1295 1309Q1297 1314 1299.0 1322.5Q1301 1331 1304 1344L1296 1364Q1296 1381 1291.5 1393.5Q1287 1406 1287 1432V1449L1306 1486Q1308 1490 1308.0 1495.0Q1308 1500 1308 1506V1539Q1308 1565 1310.0 1590.0Q1312 1615 1325 1631L1403 1719Q1403 1739 1413.0 1749.0Q1423 1759 1438.0 1765.0Q1453 1771 1470.5 1774.0Q1488 1777 1503.0 1782.5Q1518 1788 1528.0 1798.0Q1538 1808 1538 1826Q1538 1829 1537.5 1834.5Q1537 1840 1535.5 1845.5Q1534 1851 1531.0 1855.0Q1528 1859 1524 1859H1429L1403 1849H1379Q1357 1849 1337.5 1846.5Q1318 1844 1298.5 1841.0Q1279 1838 1258.5 1835.5Q1238 1833 1214 1833Q1204 1833 1194.0 1841.5Q1184 1850 1173 1854Q1147 1856 1120.0 1861.0Q1093 1866 1066 1866Q1058 1866 1047.0 1868.5Q1036 1871 1021 1871Q1014 1871 1005.5 1870.0Q997 1869 989 1863Q964 1853 964 1823ZM4372 646 4323 595Q4298 573 4276.5 559.0Q4255 545 4234.0 536.5Q4213 528 4191.5 525.0Q4170 522 4144 522Q4135 522 4133 524Q4106 524 4090.5 524.0Q4075 524 4067.0 524.0Q4059 524 4056.5 524.5Q4054 525 4054 525H3977Q3960 530 3942.0 531.0Q3924 532 3907 532Q3869 532 3849.5 533.0Q3830 534 3818 541Q3807 545 3805.0 551.5Q3803 558 3803 563Q3803 584 3797.5 593.5Q3792 603 3775 614Q3772 616 3770.5 624.0Q3769 632 3767.5 642.0Q3766 652 3765.5 662.0Q3765 672 3765 678Q3765 701 3772.0 722.0Q3779 743 3779 769L3770 832Q3770 855 3780.5 878.0Q3791 901 3791 928L3775 1077Q3775 1086 3783.0 1097.5Q3791 1109 3796 1115Q3827 1119 3859.0 1126.5Q3891 1134 3922 1134Q3929 1134 3934.5 1132.5Q3940 1131 3945 1120Q3956 1119 3971.5 1118.0Q3987 1117 4007 1117Q4034 1117 4065.0 1116.5Q4096 1116 4126.0 1113.5Q4156 1111 4181.0 1105.5Q4206 1100 4220 1089Q4234 1080 4241.5 1063.0Q4249 1046 4253.0 1026.5Q4257 1007 4260.0 987.0Q4263 967 4268.5 950.5Q4274 934 4284.5 923.5Q4295 913 4315 913Q4321 913 4326.5 915.0Q4332 917 4337 928V970Q4337 1018 4327 1062Q4322 1097 4317.5 1125.5Q4313 1154 4313 1183Q4313 1208 4320.5 1231.5Q4328 1255 4336.5 1277.5Q4345 1300 4352.5 1323.0Q4360 1346 4360 1370Q4360 1385 4359.5 1392.5Q4359 1400 4355 1402Q4350 1410 4348.0 1414.0Q4346 1418 4337 1418Q4322 1418 4314.5 1407.0Q4307 1396 4296 1385L4282 1354Q4271 1330 4261.0 1308.0Q4251 1286 4237.5 1266.5Q4224 1247 4206.5 1229.5Q4189 1212 4164 1198H4119Q4084 1198 4047.0 1196.5Q4010 1195 3983 1190L3922 1179Q3896 1179 3865.5 1188.0Q3835 1197 3808 1198Q3799 1209 3787.0 1225.5Q3775 1242 3775 1261Q3791 1335 3802.0 1406.5Q3813 1478 3813 1550Q3813 1584 3811.5 1595.5Q3810 1607 3808 1614Q3816 1638 3830.5 1656.5Q3845 1675 3864.0 1689.5Q3883 1704 3904.0 1716.0Q3925 1728 3945 1738Q3946 1738 3951.5 1744.0Q3957 1750 3957 1752Q3961 1754 3975.0 1755.5Q3989 1757 3993 1757Q4001 1757 4006.5 1757.0Q4012 1757 4019 1755Q4027 1754 4032.5 1754.0Q4038 1754 4045 1754Q4052 1754 4060.0 1754.0Q4068 1754 4074 1755Q4081 1757 4087.5 1757.0Q4094 1757 4100 1757Q4105 1762 4112.5 1767.0Q4120 1772 4126.5 1779.0Q4133 1786 4137.5 1794.0Q4142 1802 4142 1812Q4142 1823 4137.0 1834.5Q4132 1846 4123.5 1856.5Q4115 1867 4105.0 1873.5Q4095 1880 4085 1880H4083Q4072 1882 4058.5 1882.5Q4045 1883 4035 1883Q4021 1883 4008.5 1882.5Q3996 1882 3976 1880L3957 1875Q3940 1866 3919.0 1859.0Q3898 1852 3875.5 1847.0Q3853 1842 3830.5 1839.5Q3808 1837 3789 1837Q3768 1837 3753.0 1838.5Q3738 1840 3713 1847Q3690 1851 3665.5 1852.5Q3641 1854 3618 1854Q3592 1854 3569.5 1852.5Q3547 1851 3521 1847Q3509 1851 3498.5 1860.0Q3488 1869 3471 1873Q3464 1871 3458.5 1869.5Q3453 1868 3446 1868Q3441 1870 3431 1870H3393Q3370 1862 3355.5 1854.0Q3341 1846 3334 1823Q3334 1791 3367 1769Q3391 1767 3429.5 1756.0Q3468 1745 3504.0 1727.0Q3540 1709 3566.5 1684.0Q3593 1659 3593 1629Q3593 1576 3590.5 1537.5Q3588 1499 3584.5 1463.0Q3581 1427 3578.5 1387.5Q3576 1348 3576 1292Q3576 1275 3579.5 1258.5Q3583 1242 3586.5 1225.5Q3590 1209 3593.5 1192.5Q3597 1176 3597 1159Q3597 1156 3596.5 1151.0Q3596 1146 3596.0 1140.5Q3596 1135 3595.5 1130.5Q3595 1126 3595 1126L3583 1082V1005Q3583 988 3579.0 971.0Q3575 954 3570.5 937.0Q3566 920 3562.5 903.5Q3559 887 3559 871Q3559 867 3560.5 857.5Q3562 848 3564 844Q3568 824 3570.5 803.5Q3573 783 3573 762Q3573 742 3571.0 722.5Q3569 703 3564 683Q3564 665 3555.5 647.5Q3547 630 3533.5 614.0Q3520 598 3504.0 585.5Q3488 573 3474 567Q3456 560 3425.0 558.0Q3394 556 3363.0 550.5Q3332 545 3309.5 531.5Q3287 518 3287 487V472Q3303 463 3326.5 453.5Q3350 444 3367 444H3391Q3405 444 3418.5 447.0Q3432 450 3441 461Q3458 464 3475.0 466.0Q3492 468 3509 468Q3524 468 3542.0 466.0Q3560 464 3578 461Q3583 453 3585.5 452.0Q3588 451 3595 451Q3616 451 3636.0 459.0Q3656 467 3682 467H3704Q3715 467 3727.0 466.5Q3739 466 3753 461Q3789 467 3832 467Q3872 467 3913 461Q3950 448 3991.5 448.0Q4033 448 4078 444Q4101 442 4121.5 440.5Q4142 439 4163 439Q4178 439 4194.0 440.5Q4210 442 4227 444Q4231 446 4237.5 450.5Q4244 455 4250.5 460.0Q4257 465 4263.0 468.5Q4269 472 4272 472Q4281 472 4287.5 469.0Q4294 466 4304 461Q4320 457 4337.0 455.5Q4354 454 4372 454Q4403 454 4434 461Q4436 461 4443.5 467.5Q4451 474 4459.5 481.5Q4468 489 4475.0 495.5Q4482 502 4483 503V646Q4503 695 4503 745Q4503 757 4502.5 769.5Q4502 782 4498.5 793.0Q4495 804 4487.0 811.0Q4479 818 4465 818Q4459 811 4451.0 801.0Q4443 791 4434.5 780.5Q4426 770 4418.5 760.0Q4411 750 4406 742Q4406 740 4402.0 730.5Q4398 721 4393.0 710.5Q4388 700 4383.5 690.5Q4379 681 4377 678Q4375 676 4373.5 662.0Q4372 648 4372 646ZM4608 1811Q4608 1790 4618.0 1777.5Q4628 1765 4642.5 1757.0Q4657 1749 4674.0 1741.5Q4691 1734 4705.5 1723.0Q4720 1712 4730.0 1694.0Q4740 1676 4740 1646Q4740 1638 4740.0 1630.5Q4740 1623 4738 1615Q4735 1597 4735 1577Q4735 1561 4738 1544Q4740 1536 4740.0 1529.5Q4740 1523 4740 1515Q4740 1504 4739.0 1495.0Q4738 1486 4736 1475Q4735 1464 4734.0 1452.0Q4733 1440 4733 1428Q4733 1417 4734.0 1406.5Q4735 1396 4736 1385Q4738 1374 4740.0 1363.5Q4742 1353 4742 1342Q4742 1324 4738.5 1305.5Q4735 1287 4731 1269Q4727 1254 4724.5 1237.5Q4722 1221 4722 1205Q4722 1199 4723.0 1193.5Q4724 1188 4726 1183Q4729 1173 4729 1162Q4729 1161 4728.5 1160.5Q4728 1160 4728 1158V1155Q4727 1152 4724.5 1146.5Q4722 1141 4719.0 1135.5Q4716 1130 4713.5 1125.0Q4711 1120 4710 1119Q4706 1115 4696.0 1104.5Q4686 1094 4675.0 1082.5Q4664 1071 4653.5 1061.0Q4643 1051 4639 1048Q4638 1046 4635.5 1042.0Q4633 1038 4633 1036Q4633 1016 4648.0 999.0Q4663 982 4679 977Q4686 974 4697.5 970.0Q4709 966 4720.5 962.5Q4732 959 4741.0 956.0Q4750 953 4752 953Q4754 953 4762.0 952.0Q4770 951 4774 951Q4788 951 4800.5 954.0Q4813 957 4826 960Q4834 961 4843.0 963.0Q4852 965 4861 965Q4870 965 4877.0 964.0Q4884 963 4892 961Q4899 960 4906.0 959.0Q4913 958 4921 958Q4940 958 4956.0 964.0Q4972 970 4989 970Q4990 970 4996.0 970.5Q5002 971 5009.5 971.0Q5017 971 5024.5 971.5Q5032 972 5037 972Q5085 972 5132.5 966.0Q5180 960 5228 958Q5233 954 5236.5 953.5Q5240 953 5247 953Q5273 964 5286.0 982.0Q5299 1000 5305 1024Q5305 1026 5305.5 1032.0Q5306 1038 5307.0 1045.0Q5308 1052 5309.0 1058.0Q5310 1064 5311 1065Q5311 1066 5312.0 1068.5Q5313 1071 5314.0 1079.5Q5315 1088 5316.0 1103.0Q5317 1118 5318 1143Q5318 1156 5304.5 1164.0Q5291 1172 5280 1172Q5269 1172 5262.0 1170.0Q5255 1168 5249.0 1164.0Q5243 1160 5237.0 1154.5Q5231 1149 5222 1143Q5221 1143 5216.5 1140.5Q5212 1138 5210 1136Q5209 1136 5201.0 1134.5Q5193 1133 5191 1131Q5171 1123 5159.5 1108.5Q5148 1094 5132 1077Q5127 1077 5116.5 1076.5Q5106 1076 5093.5 1075.0Q5081 1074 5070.0 1073.0Q5059 1072 5055 1070Q5053 1070 5043.0 1065.0Q5033 1060 5030 1060Q5029 1058 5018.5 1058.0Q5008 1058 5003 1058Q4983 1058 4969.0 1065.0Q4955 1072 4945.0 1084.0Q4935 1096 4928.5 1111.5Q4922 1127 4918 1143Q4918 1145 4915.5 1155.0Q4913 1165 4911 1169Q4911 1171 4912.5 1174.5Q4914 1178 4918 1197Q4918 1228 4909.5 1258.5Q4901 1289 4901 1321Q4901 1330 4907.0 1335.0Q4913 1340 4921.5 1342.0Q4930 1344 4939.5 1344.5Q4949 1345 4956 1345H4979Q4984 1345 4992.5 1344.0Q5001 1343 5009.0 1342.0Q5017 1341 5023.5 1340.0Q5030 1339 5030 1338Q5031 1338 5036.0 1334.5Q5041 1331 5046.5 1326.5Q5052 1322 5058.0 1317.0Q5064 1312 5067 1309Q5070 1306 5074.5 1302.0Q5079 1298 5083.5 1293.5Q5088 1289 5091.5 1285.0Q5095 1281 5096 1280Q5105 1268 5105.5 1254.0Q5106 1240 5107.5 1228.5Q5109 1217 5116.0 1209.5Q5123 1202 5145 1202Q5174 1202 5186.0 1220.0Q5198 1238 5198 1266Q5198 1283 5194.0 1293.0Q5190 1303 5185.5 1311.0Q5181 1319 5177.5 1328.0Q5174 1337 5174 1351Q5174 1364 5179.0 1372.5Q5184 1381 5186 1392L5191 1458Q5192 1459 5193.5 1464.0Q5195 1469 5197.0 1475.5Q5199 1482 5201.0 1488.5Q5203 1495 5203 1499Q5202 1504 5201.5 1511.0Q5201 1518 5200 1525Q5199 1533 5198 1541Q5197 1544 5193.0 1548.5Q5189 1553 5183.5 1557.5Q5178 1562 5172.0 1566.0Q5166 1570 5162 1570Q5158 1570 5152.0 1569.5Q5146 1569 5145 1565Q5143 1563 5141.0 1553.0Q5139 1543 5139 1541Q5134 1532 5126.0 1519.0Q5118 1506 5108.0 1491.5Q5098 1477 5086.0 1463.0Q5074 1449 5062 1439Q5051 1431 5038.5 1429.5Q5026 1428 5018 1428L4979 1441Q4977 1441 4969.5 1438.0Q4962 1435 4959 1435H4955Q4953 1435 4952.0 1434.5Q4951 1434 4949 1434Q4944 1434 4936.0 1440.0Q4928 1446 4920.5 1454.5Q4913 1463 4907.0 1472.0Q4901 1481 4901 1487Q4901 1489 4900.0 1499.5Q4899 1510 4899 1517Q4899 1519 4899.0 1523.0Q4899 1527 4900 1531Q4900 1535 4901 1541Q4901 1549 4904.0 1569.5Q4907 1590 4911.0 1612.5Q4915 1635 4918.5 1655.5Q4922 1676 4923 1684Q4937 1699 4943.0 1711.5Q4949 1724 4954.5 1734.0Q4960 1744 4970.5 1749.5Q4981 1755 5004 1755Q5029 1755 5053.5 1750.0Q5078 1745 5103 1743H5127Q5129 1743 5138.5 1738.0Q5148 1733 5150 1731L5174 1726Q5178 1724 5184.5 1722.5Q5191 1721 5191 1719Q5194 1717 5206.0 1707.5Q5218 1698 5222 1697Q5232 1689 5243.0 1687.5Q5254 1686 5262 1678Q5274 1668 5285.5 1655.5Q5297 1643 5309.0 1632.0Q5321 1621 5335.5 1614.0Q5350 1607 5368 1607H5389Q5397 1612 5399.0 1621.0Q5401 1630 5401 1639Q5401 1685 5376 1726Q5376 1727 5372.5 1732.0Q5369 1737 5364.5 1743.0Q5360 1749 5356.5 1754.5Q5353 1760 5352 1762Q5351 1763 5350.0 1768.0Q5349 1773 5348.5 1779.0Q5348 1785 5347.0 1790.5Q5346 1796 5345 1797Q5345 1799 5343.5 1803.0Q5342 1807 5340 1809Q5338 1812 5332.5 1818.0Q5327 1824 5320.0 1830.5Q5313 1837 5307.0 1843.0Q5301 1849 5299 1851H5290Q5272 1851 5254 1854Q5233 1857 5212 1857Q5191 1857 5174.0 1850.5Q5157 1844 5132 1844Q5127 1844 5116.0 1844.5Q5105 1845 5103 1845L5056 1852Q5034 1856 5011.0 1856.5Q4988 1857 4965 1857H4892Q4876 1857 4864.0 1854.0Q4852 1851 4838 1851Q4828 1851 4818.5 1857.0Q4809 1863 4800 1863L4745 1851Q4744 1851 4737.0 1852.5Q4730 1854 4721.0 1856.0Q4712 1858 4702.0 1860.0Q4692 1862 4686 1863Q4674 1863 4660.5 1860.0Q4647 1857 4635.5 1850.5Q4624 1844 4616.0 1834.5Q4608 1825 4608 1811ZM5538 1802Q5538 1784 5547.0 1776.5Q5556 1769 5569.0 1765.5Q5582 1762 5596.0 1760.0Q5610 1758 5621 1752Q5632 1746 5638.5 1737.0Q5645 1728 5649.0 1717.5Q5653 1707 5656.0 1696.0Q5659 1685 5664 1674Q5666 1647 5667.5 1620.5Q5669 1594 5669 1567Q5669 1547 5668.0 1528.0Q5667 1509 5666 1489Q5672 1480 5679.0 1466.5Q5686 1453 5686 1437Q5686 1434 5684.5 1425.0Q5683 1416 5681.0 1406.0Q5679 1396 5677.0 1387.5Q5675 1379 5674 1377Q5674 1375 5673.5 1365.5Q5673 1356 5673 1347Q5673 1343 5673.5 1340.0Q5674 1337 5674 1335Q5674 1333 5671.5 1324.5Q5669 1316 5669 1306Q5669 1303 5673.0 1293.0Q5677 1283 5681 1276Q5679 1274 5677.5 1264.0Q5676 1254 5674 1252V1193Q5674 1191 5671.5 1185.5Q5669 1180 5666.0 1174.0Q5663 1168 5660.5 1163.0Q5658 1158 5657 1157Q5652 1145 5650.0 1132.5Q5648 1120 5645.5 1108.0Q5643 1096 5639.5 1084.0Q5636 1072 5628 1062Q5625 1057 5613.5 1046.0Q5602 1035 5598 1032Q5596 1031 5596.0 1027.5Q5596 1024 5596 1022Q5596 1011 5604.5 1003.5Q5613 996 5624 996H5633Q5685 1001 5734.0 1004.5Q5783 1008 5837 1008Q5848 1008 5859.0 1003.0Q5870 998 5884 996L5922 994L5960 996Q5964 996 5972.5 1002.0Q5981 1008 5984 1013L5991 1020Q5991 1022 5988.5 1028.5Q5986 1035 5984 1037Q5980 1042 5972.0 1051.0Q5964 1060 5960 1062Q5958 1062 5952.0 1063.0Q5946 1064 5939.0 1065.0Q5932 1066 5926.0 1066.5Q5920 1067 5918 1067Q5904 1070 5891.0 1081.5Q5878 1093 5868.0 1108.0Q5858 1123 5851.5 1139.5Q5845 1156 5842 1169Q5838 1187 5836.5 1206.0Q5835 1225 5835 1243L5847 1335Q5847 1351 5843.5 1365.5Q5840 1380 5835 1394Q5835 1400 5836.0 1416.5Q5837 1433 5837 1451Q5837 1469 5836.0 1485.0Q5835 1501 5835 1508Q5835 1509 5834.0 1515.0Q5833 1521 5832.5 1528.0Q5832 1535 5831.0 1541.5Q5830 1548 5830 1550V1567Q5831 1569 5834.5 1575.5Q5838 1582 5841.5 1590.0Q5845 1598 5848.5 1605.0Q5852 1612 5852 1615Q5852 1619 5853.0 1627.0Q5854 1635 5854 1643Q5854 1652 5853.0 1658.5Q5852 1665 5852 1667Q5857 1670 5866.0 1679.5Q5875 1689 5877 1691V1700Q5877 1705 5876.0 1709.0Q5875 1713 5873 1717Q5871 1722 5871.0 1726.0Q5871 1730 5871 1735Q5871 1743 5880.5 1748.0Q5890 1753 5903.0 1757.0Q5916 1761 5928.5 1762.5Q5941 1764 5946 1764H5960Q5967 1763 5987.0 1761.0Q6007 1759 6028.5 1757.5Q6050 1756 6069.5 1754.5Q6089 1753 6096 1752Q6139 1727 6177.0 1694.5Q6215 1662 6247 1626Q6250 1623 6252.5 1617.5Q6255 1612 6257.5 1607.5Q6260 1603 6264.0 1599.5Q6268 1596 6275 1596Q6281 1596 6288.0 1601.5Q6295 1607 6300.5 1615.0Q6306 1623 6309.5 1631.5Q6313 1640 6313 1646Q6313 1663 6309.5 1676.0Q6306 1689 6306 1705V1716Q6303 1719 6295.5 1728.0Q6288 1737 6280.5 1747.5Q6273 1758 6266.5 1767.5Q6260 1777 6257 1781L6247 1816Q6245 1818 6236.0 1828.0Q6227 1838 6223 1840Q6218 1845 6211.5 1846.0Q6205 1847 6198 1847H6169Q6168 1846 6163.0 1844.0Q6158 1842 6152.0 1840.0Q6146 1838 6140.5 1836.5Q6135 1835 6133 1835H6074Q6071 1835 6061.0 1831.5Q6051 1828 6050 1828Q6048 1828 6041.5 1830.5Q6035 1833 6032 1835Q6028 1837 6019.5 1841.0Q6011 1845 6008 1847H5913Q5900 1838 5885.0 1836.5Q5870 1835 5856 1835H5835Q5824 1835 5813.0 1837.0Q5802 1839 5788 1847Q5764 1849 5739.5 1849.0Q5715 1849 5690 1849Q5665 1849 5640.5 1849.0Q5616 1849 5591 1847L5562 1835Q5550 1830 5544.0 1823.0Q5538 1816 5538 1802ZM6426 1802Q6426 1784 6435.0 1776.5Q6444 1769 6457.0 1765.5Q6470 1762 6484.0 1760.0Q6498 1758 6509 1752Q6520 1746 6526.5 1737.0Q6533 1728 6537.0 1717.5Q6541 1707 6544.0 1696.0Q6547 1685 6552 1674Q6554 1647 6555.5 1620.5Q6557 1594 6557 1567Q6557 1547 6556.0 1528.0Q6555 1509 6554 1489Q6560 1480 6567.0 1466.5Q6574 1453 6574 1437Q6574 1434 6572.5 1425.0Q6571 1416 6569.0 1406.0Q6567 1396 6565.0 1387.5Q6563 1379 6562 1377Q6562 1375 6561.5 1365.5Q6561 1356 6561 1347Q6561 1343 6561.5 1340.0Q6562 1337 6562 1335Q6562 1333 6559.5 1324.5Q6557 1316 6557 1306Q6557 1303 6561.0 1293.0Q6565 1283 6569 1276Q6567 1274 6565.5 1264.0Q6564 1254 6562 1252V1193Q6562 1191 6559.5 1185.5Q6557 1180 6554.0 1174.0Q6551 1168 6548.5 1163.0Q6546 1158 6545 1157Q6540 1145 6538.0 1132.5Q6536 1120 6533.5 1108.0Q6531 1096 6527.5 1084.0Q6524 1072 6516 1062Q6513 1057 6501.5 1046.0Q6490 1035 6486 1032Q6484 1031 6484.0 1027.5Q6484 1024 6484 1022Q6484 1011 6492.5 1003.5Q6501 996 6512 996H6521Q6573 1001 6622.0 1004.5Q6671 1008 6725 1008Q6736 1008 6747.0 1003.0Q6758 998 6772 996L6810 994L6848 996Q6852 996 6860.5 1002.0Q6869 1008 6872 1013L6879 1020Q6879 1022 6876.5 1028.5Q6874 1035 6872 1037Q6868 1042 6860.0 1051.0Q6852 1060 6848 1062Q6846 1062 6840.0 1063.0Q6834 1064 6827.0 1065.0Q6820 1066 6814.0 1066.5Q6808 1067 6806 1067Q6792 1070 6779.0 1081.5Q6766 1093 6756.0 1108.0Q6746 1123 6739.5 1139.5Q6733 1156 6730 1169Q6726 1187 6724.5 1206.0Q6723 1225 6723 1243L6735 1335Q6735 1351 6731.5 1365.5Q6728 1380 6723 1394Q6723 1400 6724.0 1416.5Q6725 1433 6725 1451Q6725 1469 6724.0 1485.0Q6723 1501 6723 1508Q6723 1509 6722.0 1515.0Q6721 1521 6720.5 1528.0Q6720 1535 6719.0 1541.5Q6718 1548 6718 1550V1567Q6719 1569 6722.5 1575.5Q6726 1582 6729.5 1590.0Q6733 1598 6736.5 1605.0Q6740 1612 6740 1615Q6740 1619 6741.0 1627.0Q6742 1635 6742 1643Q6742 1652 6741.0 1658.5Q6740 1665 6740 1667Q6745 1670 6754.0 1679.5Q6763 1689 6765 1691V1700Q6765 1705 6764.0 1709.0Q6763 1713 6761 1717Q6759 1722 6759.0 1726.0Q6759 1730 6759 1735Q6759 1743 6768.5 1748.0Q6778 1753 6791.0 1757.0Q6804 1761 6816.5 1762.5Q6829 1764 6834 1764H6848Q6855 1763 6875.0 1761.0Q6895 1759 6916.5 1757.5Q6938 1756 6957.5 1754.5Q6977 1753 6984 1752Q7027 1727 7065.0 1694.5Q7103 1662 7135 1626Q7138 1623 7140.5 1617.5Q7143 1612 7145.5 1607.5Q7148 1603 7152.0 1599.5Q7156 1596 7163 1596Q7169 1596 7176.0 1601.5Q7183 1607 7188.5 1615.0Q7194 1623 7197.5 1631.5Q7201 1640 7201 1646Q7201 1663 7197.5 1676.0Q7194 1689 7194 1705V1716Q7191 1719 7183.5 1728.0Q7176 1737 7168.5 1747.5Q7161 1758 7154.5 1767.5Q7148 1777 7145 1781L7135 1816Q7133 1818 7124.0 1828.0Q7115 1838 7111 1840Q7106 1845 7099.5 1846.0Q7093 1847 7086 1847H7057Q7056 1846 7051.0 1844.0Q7046 1842 7040.0 1840.0Q7034 1838 7028.5 1836.5Q7023 1835 7021 1835H6962Q6959 1835 6949.0 1831.5Q6939 1828 6938 1828Q6936 1828 6929.5 1830.5Q6923 1833 6920 1835Q6916 1837 6907.5 1841.0Q6899 1845 6896 1847H6801Q6788 1838 6773.0 1836.5Q6758 1835 6744 1835H6723Q6712 1835 6701.0 1837.0Q6690 1839 6676 1847Q6652 1849 6627.5 1849.0Q6603 1849 6578 1849Q6553 1849 6528.5 1849.0Q6504 1849 6479 1847L6450 1835Q6438 1830 6432.0 1823.0Q6426 1816 6426 1802ZM7725 1795Q7725 1776 7739.5 1764.0Q7754 1752 7774.5 1744.5Q7795 1737 7816.0 1734.0Q7837 1731 7851 1731H7932Q7941 1729 7955.0 1720.0Q7969 1711 7982.5 1698.5Q7996 1686 8006.5 1670.5Q8017 1655 8019 1641Q8022 1620 8022 1596Q8022 1577 8019 1556L8033 1534Q8019 1483 8014.0 1432.0Q8009 1381 8009 1332Q8009 1322 8010.5 1307.0Q8012 1292 8014.5 1276.5Q8017 1261 8020.0 1246.5Q8023 1232 8026 1221Q8027 1218 8029 1214Q8033 1206 8033 1204Q8036 1197 8040 1191Q8042 1186 8044.5 1180.5Q8047 1175 8047 1172Q8047 1164 8039.0 1158.0Q8031 1152 8026 1152Q8028 1119 8029.5 1085.5Q8031 1052 8031 1020Q8031 986 8029.5 953.5Q8028 921 8026 887Q8021 873 8020.0 866.5Q8019 860 8019 849L8026 790L8019 683Q8019 671 8008.5 656.0Q7998 641 7984.0 627.5Q7970 614 7955.5 604.5Q7941 595 7932 593H7860L7852 589Q7849 587 7846.0 585.5Q7843 584 7841 584Q7827 580 7809.5 577.5Q7792 575 7777.0 569.0Q7762 563 7752.0 551.5Q7742 540 7742 518Q7742 500 7747.0 490.5Q7752 481 7761.5 476.5Q7771 472 7784.5 471.0Q7798 470 7815 470Q7842 470 7867.0 472.0Q7892 474 7910 487Q7915 486 7920.0 485.0Q7925 484 7929 484H7948Q7996 484 8047.5 491.5Q8099 499 8142 503L8199 513Q8212 513 8225.5 508.5Q8239 504 8253.5 498.5Q8268 493 8282.0 488.5Q8296 484 8310 484Q8320 484 8327.0 489.0Q8334 494 8349 494Q8354 494 8358.5 489.0Q8363 484 8374 484Q8384 484 8389.5 485.0Q8395 486 8400 494H8439Q8460 494 8483.0 486.5Q8506 479 8529 479Q8543 479 8551.0 481.0Q8559 483 8574 494L8754 503Q8767 504 8778 506Q8788 508 8799.0 509.5Q8810 511 8818 513Q8823 513 8830.0 514.0Q8837 515 8843.0 518.0Q8849 521 8853.5 526.0Q8858 531 8858 539Q8861 548 8864.0 568.5Q8867 589 8869.5 612.0Q8872 635 8873.5 655.0Q8875 675 8875 683Q8880 717 8883.0 752.0Q8886 787 8886 821H8870Q8848 821 8834 787Q8825 775 8821.0 770.5Q8817 766 8815 761Q8801 742 8786.5 719.5Q8772 697 8760.0 677.0Q8748 657 8739.0 640.5Q8730 624 8727 617Q8715 612 8702.0 609.5Q8689 607 8677.0 604.5Q8665 602 8655.0 597.5Q8645 593 8638 582Q8630 567 8607 567Q8598 567 8597 569Q8592 570 8584.5 571.0Q8577 572 8569 572Q8552 572 8535.0 570.5Q8518 569 8507 569Q8500 569 8498.0 567.0Q8496 565 8491 565Q8489 565 8487.5 564.0Q8486 563 8484 562Q8462 559 8440.0 558.0Q8418 557 8396 557Q8374 557 8353.0 558.0Q8332 559 8310 562Q8303 564 8294.0 570.0Q8285 576 8276.5 584.5Q8268 593 8261.0 602.0Q8254 611 8252 619Q8244 653 8242.0 695.5Q8240 738 8240 783V887Q8231 898 8229.0 909.5Q8227 921 8227 937V972Q8227 996 8228.5 1019.0Q8230 1042 8236.0 1064.0Q8242 1086 8253.5 1106.5Q8265 1127 8285 1146L8446 1152Q8465 1152 8483 1145Q8488 1143 8495.0 1141.5Q8502 1140 8509 1140L8548 1141Q8565 1141 8579 1131Q8587 1129 8597.5 1123.5Q8608 1118 8618.5 1110.5Q8629 1103 8638.0 1095.5Q8647 1088 8652 1082Q8658 1070 8665.5 1043.0Q8673 1016 8682.5 989.0Q8692 962 8703.5 941.0Q8715 920 8730 920Q8743 920 8754 939V1031Q8754 1044 8751.5 1054.0Q8749 1064 8742 1082L8730 1098L8735 1131Q8735 1135 8737.0 1154.5Q8739 1174 8741.0 1199.5Q8743 1225 8745.0 1251.5Q8747 1278 8747 1295L8742 1332Q8742 1349 8748.0 1361.0Q8754 1373 8754 1383Q8754 1409 8744.5 1428.0Q8735 1447 8709 1447Q8696 1447 8689.0 1442.5Q8682 1438 8678.5 1431.5Q8675 1425 8674.0 1416.5Q8673 1408 8673 1399Q8673 1392 8673.0 1386.5Q8673 1381 8671 1375L8643 1326V1295Q8642 1282 8620.0 1270.0Q8598 1258 8565.0 1248.0Q8532 1238 8492.5 1230.0Q8453 1222 8415.5 1216.0Q8378 1210 8347.5 1207.0Q8317 1204 8303 1204Q8285 1204 8271.5 1215.5Q8258 1227 8248.5 1243.5Q8239 1260 8234.0 1278.5Q8229 1297 8227 1311V1390L8240 1544V1631Q8242 1654 8258.5 1677.0Q8275 1700 8298.0 1719.0Q8321 1738 8347.0 1750.0Q8373 1762 8394 1764L8465 1769L8484 1776H8548Q8572 1776 8592.0 1776.0Q8612 1776 8632.0 1775.0Q8652 1774 8673.0 1773.0Q8694 1772 8721 1769L8801 1738Q8817 1727 8840.0 1706.0Q8863 1685 8885.5 1661.5Q8908 1638 8927.0 1615.0Q8946 1592 8955 1577Q8960 1574 8965.0 1561.5Q8970 1549 8976.5 1534.5Q8983 1520 8991.5 1509.0Q9000 1498 9012 1498Q9023 1498 9028.0 1507.0Q9033 1516 9033 1525L9015 1588Q9000 1640 8986.0 1693.5Q8972 1747 8967 1802Q8946 1834 8914.0 1840.5Q8882 1847 8848 1847Q8837 1847 8826.0 1847.0Q8815 1847 8806 1849L8785 1854Q8775 1854 8769.0 1852.0Q8763 1850 8758.0 1848.0Q8753 1846 8748.0 1844.0Q8743 1842 8735 1842L8671 1849L8638 1842L8484 1854Q8411 1854 8338.0 1848.0Q8265 1842 8187 1842L8059 1854L7969 1849Q7951 1849 7934.0 1853.0Q7917 1857 7901.0 1862.0Q7885 1867 7870.0 1871.0Q7855 1875 7841 1875Q7824 1875 7804.0 1870.0Q7784 1865 7766.5 1855.0Q7749 1845 7737.0 1830.0Q7725 1815 7725 1795ZM9259 1852Q9241 1852 9228.0 1851.0Q9215 1850 9195 1845Q9184 1843 9182.5 1840.0Q9181 1837 9181 1828Q9181 1802 9201.0 1791.0Q9221 1780 9244 1778H9292Q9294 1778 9303.0 1768.5Q9312 1759 9316 1754Q9319 1752 9323.5 1745.0Q9328 1738 9328 1736Q9329 1732 9330.0 1721.5Q9331 1711 9332.0 1699.5Q9333 1688 9334.0 1678.0Q9335 1668 9335 1664L9328 1586V1572Q9328 1567 9329.0 1562.0Q9330 1557 9335 1553V1510L9328 1385V1328Q9331 1324 9335.5 1311.0Q9340 1298 9340 1287Q9340 1252 9331.0 1223.5Q9322 1195 9311 1164Q9311 1162 9308.5 1154.0Q9306 1146 9304 1145Q9300 1136 9297.5 1131.5Q9295 1127 9287 1120Q9284 1118 9276.5 1112.5Q9269 1107 9260.5 1100.0Q9252 1093 9243.5 1086.5Q9235 1080 9231 1077Q9219 1068 9203.5 1061.5Q9188 1055 9173.5 1047.0Q9159 1039 9148.0 1028.0Q9137 1017 9135 998Q9135 996 9136.5 989.5Q9138 983 9140 980Q9141 978 9145.5 974.0Q9150 970 9152 968H9176Q9187 967 9195.5 961.5Q9204 956 9216 956Q9237 956 9257.5 961.0Q9278 966 9299 968Q9301 969 9310.0 970.0Q9319 971 9329.0 971.5Q9339 972 9348.0 972.5Q9357 973 9359 973Q9361 975 9373.0 981.5Q9385 988 9389 992L9420 1029Q9441 1045 9460.5 1062.0Q9480 1079 9500 1096Q9500 1098 9505.0 1099.5Q9510 1101 9512 1101Q9513 1103 9515.0 1105.0Q9517 1107 9517 1108L9531 1133L9572 1176Q9574 1178 9578.5 1188.0Q9583 1198 9584 1200Q9595 1218 9608.0 1229.0Q9621 1240 9634.5 1249.0Q9648 1258 9661.5 1267.5Q9675 1277 9688 1292Q9711 1317 9726.0 1341.0Q9741 1365 9761 1394Q9761 1396 9763.5 1397.5Q9766 1399 9768 1401L9785 1413Q9788 1415 9795.5 1423.0Q9803 1431 9812.0 1440.0Q9821 1449 9829.0 1457.0Q9837 1465 9840 1466Q9842 1469 9849.0 1474.0Q9856 1479 9858 1480Q9864 1485 9871.0 1494.5Q9878 1504 9885.0 1513.0Q9892 1522 9899.0 1529.0Q9906 1536 9913 1536Q9924 1536 9932.5 1529.5Q9941 1523 9949 1517Q9960 1509 9961.5 1505.5Q9963 1502 9963 1492L9949 1402L9956 1316Q9956 1315 9954.0 1311.0Q9952 1307 9949.5 1303.0Q9947 1299 9945.5 1295.5Q9944 1292 9944 1292V1268Q9944 1265 9941.5 1258.0Q9939 1251 9937 1249V1157Q9937 1154 9936.5 1146.0Q9936 1138 9935.0 1129.0Q9934 1120 9933.5 1112.0Q9933 1104 9932 1101Q9930 1092 9922.5 1084.5Q9915 1077 9904 1077Q9893 1077 9881.0 1080.5Q9869 1084 9856 1084Q9849 1084 9832.5 1083.0Q9816 1082 9799.0 1078.5Q9782 1075 9769.0 1068.0Q9756 1061 9756 1048V1017Q9756 1005 9756.5 993.5Q9757 982 9761.0 974.0Q9765 966 9773.5 961.0Q9782 956 9797 956Q9824 956 9851.5 962.0Q9879 968 9904 968Q9918 968 9936.0 965.5Q9954 963 9968 956H10089Q10097 961 10107.0 962.0Q10117 963 10128 963H10152Q10165 970 10167.0 983.5Q10169 997 10169 1011V1017Q10169 1044 10145 1060L10089 1096Q10089 1097 10085.0 1098.0Q10081 1099 10076.0 1099.5Q10071 1100 10066.0 1100.5Q10061 1101 10060 1101Q10056 1103 10051.0 1112.0Q10046 1121 10041.0 1132.5Q10036 1144 10032.5 1153.5Q10029 1163 10029 1165L10036 1197Q10036 1198 10036.0 1201.5Q10036 1205 10034 1205Q10034 1207 10031.5 1212.0Q10029 1217 10029 1219Q10026 1230 10026.0 1244.0Q10026 1258 10025.5 1272.5Q10025 1287 10023.5 1300.0Q10022 1313 10017 1321L10012 1477Q10013 1504 10022.5 1527.5Q10032 1551 10034 1577L10041 1688Q10043 1697 10047 1707Q10052 1726 10060 1748V1840Q10060 1851 10049.0 1857.5Q10038 1864 10029 1864Q10018 1864 10006.0 1858.0Q9994 1852 9982.0 1843.5Q9970 1835 9960.0 1825.5Q9950 1816 9944 1809Q9941 1806 9935.5 1799.5Q9930 1793 9924.0 1786.0Q9918 1779 9913.0 1773.5Q9908 1768 9906 1766Q9906 1764 9901.5 1753.5Q9897 1743 9896 1742Q9894 1741 9887.5 1734.5Q9881 1728 9873.5 1720.5Q9866 1713 9859.5 1706.5Q9853 1700 9852 1698Q9821 1667 9797 1633Q9786 1616 9773.0 1607.0Q9760 1598 9749 1584Q9749 1582 9744.0 1575.0Q9739 1568 9737 1565Q9736 1564 9733.5 1559.5Q9731 1555 9728.0 1550.0Q9725 1545 9722.5 1540.5Q9720 1536 9719 1536Q9705 1517 9683.0 1505.5Q9661 1494 9645 1480L9628 1461Q9626 1460 9620.5 1452.5Q9615 1445 9615 1442L9579 1413L9500 1328Q9496 1324 9487.5 1315.5Q9479 1307 9470.0 1298.0Q9461 1289 9453.5 1282.0Q9446 1275 9444 1273Q9439 1269 9434.5 1267.5Q9430 1266 9422 1266Q9410 1266 9405.5 1273.5Q9401 1281 9401 1292Q9401 1294 9401.0 1301.5Q9401 1309 9403 1309L9408 1357V1442L9413 1536Q9414 1536 9415.0 1541.0Q9416 1546 9417.0 1552.0Q9418 1558 9419.0 1563.5Q9420 1569 9420 1570V1633Q9420 1634 9422.5 1644.5Q9425 1655 9427 1657Q9429 1680 9434.0 1703.5Q9439 1727 9439 1750Q9439 1755 9439.0 1761.5Q9439 1768 9437 1773L9444 1778Q9450 1779 9464.0 1780.5Q9478 1782 9493.5 1784.0Q9509 1786 9522.5 1788.5Q9536 1791 9541 1792Q9559 1793 9563.0 1799.0Q9567 1805 9567 1821Q9567 1848 9547.0 1856.0Q9527 1864 9505 1864Q9494 1864 9486.5 1863.0Q9479 1862 9473.0 1860.0Q9467 1858 9460.5 1855.5Q9454 1853 9444 1851Q9439 1851 9427.5 1848.0Q9416 1845 9413 1845H9363ZM10672 1871 10654 1864 10592 1852Q10570 1848 10550.0 1839.0Q10530 1830 10507 1823Q10494 1818 10479.5 1815.0Q10465 1812 10454 1804Q10453 1803 10452.0 1802.5Q10451 1802 10450 1801Q10448 1800 10447 1799L10404 1743Q10403 1741 10400.0 1736.0Q10397 1731 10393.0 1725.0Q10389 1719 10385.0 1713.5Q10381 1708 10379 1705Q10377 1703 10376 1701Q10374 1697 10374 1695Q10365 1672 10353.5 1651.5Q10342 1631 10331 1608Q10329 1606 10327.5 1599.5Q10326 1593 10326 1591Q10321 1553 10316.5 1512.0Q10312 1471 10312 1432Q10312 1394 10319.0 1358.5Q10326 1323 10338 1287Q10338 1284 10339.5 1273.5Q10341 1263 10343 1261Q10344 1260 10347.5 1254.5Q10351 1249 10355.5 1243.0Q10360 1237 10364.0 1232.0Q10368 1227 10369 1226Q10369 1224 10371.0 1219.0Q10373 1214 10374 1212Q10388 1173 10407.5 1143.0Q10427 1113 10459 1084L10483 1067L10514 1036L10526 1018Q10536 1007 10549.0 1005.5Q10562 1004 10575 999Q10577 999 10581.0 996.5Q10585 994 10587 994L10606 980Q10608 980 10617.0 979.5Q10626 979 10636.5 978.5Q10647 978 10656.0 977.0Q10665 976 10667 975Q10668 975 10683.5 968.0Q10699 961 10710 956Q10712 956 10715.5 954.5Q10719 953 10720 951Q10724 953 10734.5 953.0Q10745 953 10757 953Q10768 953 10779.0 953.0Q10790 953 10795 951Q10796 951 10800.5 949.0Q10805 947 10810.0 945.0Q10815 943 10819.0 941.0Q10823 939 10824 939L10898 927H10911L10952 939Q10955 939 10965.0 945.0Q10975 951 10976 951H11037Q11039 951 11043.5 952.5Q11048 954 11051 956Q11070 968 11086.5 979.5Q11103 991 11115.0 1005.5Q11127 1020 11134.0 1038.0Q11141 1056 11141 1082V1098L11135 1115Q11135 1117 11134.0 1125.0Q11133 1133 11132.5 1142.5Q11132 1152 11131.0 1160.5Q11130 1169 11129 1171Q11129 1171 11125.0 1175.5Q11121 1180 11115.0 1186.0Q11109 1192 11102.5 1198.0Q11096 1204 11092 1207Q11087 1211 11083.5 1212.5Q11080 1214 11075 1214Q11067 1214 11061.0 1210.0Q11055 1206 11051 1202Q11031 1178 11014.5 1154.0Q10998 1130 10979.0 1108.5Q10960 1087 10938.0 1070.0Q10916 1053 10886 1043Q10883 1042 10876.5 1040.5Q10870 1039 10862.5 1037.0Q10855 1035 10848.0 1033.0Q10841 1031 10838 1031H10824Q10818 1031 10801.5 1033.5Q10785 1036 10767.0 1038.5Q10749 1041 10732.5 1044.0Q10716 1047 10710 1048Q10707 1049 10699.5 1052.5Q10692 1056 10684.0 1059.5Q10676 1063 10669.5 1067.0Q10663 1071 10660 1074Q10658 1075 10650.5 1082.0Q10643 1089 10635.0 1097.5Q10627 1106 10620.0 1113.0Q10613 1120 10611 1122Q10609 1123 10606 1124Q10604 1125 10602.0 1126.0Q10600 1127 10599 1127Q10567 1147 10541.0 1178.0Q10515 1209 10497.0 1246.5Q10479 1284 10469.0 1325.5Q10459 1367 10459 1408Q10459 1425 10459.5 1444.5Q10460 1464 10463.5 1483.0Q10467 1502 10474.0 1519.0Q10481 1536 10495 1548L10520 1639Q10522 1648 10528.5 1654.5Q10535 1661 10543.0 1665.5Q10551 1670 10559.5 1673.5Q10568 1677 10575 1681Q10578 1683 10584.5 1693.0Q10591 1703 10598.5 1715.5Q10606 1728 10613.0 1739.5Q10620 1751 10623 1755Q10632 1767 10645.0 1767.5Q10658 1768 10672 1774Q10673 1774 10676.5 1776.5Q10680 1779 10684.0 1782.0Q10688 1785 10691.5 1788.0Q10695 1791 10696 1792Q10718 1806 10739.0 1811.0Q10760 1816 10786 1816H10807Q10808 1816 10812.5 1814.0Q10817 1812 10822.0 1810.0Q10827 1808 10831.5 1806.0Q10836 1804 10838 1804Q10840 1802 10850.0 1800.5Q10860 1799 10862 1799Q10884 1792 10893.0 1782.0Q10902 1772 10905.5 1760.0Q10909 1748 10912.5 1733.0Q10916 1718 10928 1700L10935 1560Q10935 1551 10925.0 1545.5Q10915 1540 10900.0 1536.0Q10885 1532 10867.5 1528.0Q10850 1524 10835.0 1517.0Q10820 1510 10810.0 1499.5Q10800 1489 10800 1473Q10800 1467 10802.5 1464.0Q10805 1461 10814 1456Q10814 1455 10819.5 1452.5Q10825 1450 10832.0 1447.5Q10839 1445 10845.5 1442.5Q10852 1440 10855 1439H10857Q10874 1439 10889.5 1445.0Q10905 1451 10921 1451Q10923 1451 10925 1450Q10926 1450 10928 1449Q10979 1445 11031.0 1441.0Q11083 1437 11135 1437L11165 1439Q11167 1439 11170.5 1446.0Q11174 1453 11179 1479Q11179 1489 11167.5 1498.5Q11156 1508 11141.5 1519.0Q11127 1530 11115.5 1544.5Q11104 1559 11104 1579Q11104 1591 11110.0 1599.5Q11116 1608 11116 1617Q11116 1630 11110.0 1638.0Q11104 1646 11104 1662L11123 1742Q11123 1753 11121.0 1760.5Q11119 1768 11115.5 1774.5Q11112 1781 11106.0 1787.5Q11100 1794 11092 1804Q11090 1806 11088.5 1807.5Q11087 1809 11085 1809Q11085 1810 11080.5 1811.0Q11076 1812 11071.0 1813.0Q11066 1814 11061.5 1815.0Q11057 1816 11056 1816Q11039 1821 11026.0 1832.5Q11013 1844 10988 1852Q10987 1853 10980.0 1854.0Q10973 1855 10964.5 1855.5Q10956 1856 10949.0 1857.0Q10942 1858 10940 1859Q10930 1861 10919.5 1866.0Q10909 1871 10898.5 1876.5Q10888 1882 10878.0 1886.0Q10868 1890 10859 1890H10849Q10845 1890 10843 1889L10819 1876H10783Q10780 1876 10773.0 1874.5Q10766 1873 10763 1871ZM11327 1802Q11327 1784 11336.0 1776.5Q11345 1769 11358.0 1765.5Q11371 1762 11385.0 1760.0Q11399 1758 11410 1752Q11421 1746 11427.5 1737.0Q11434 1728 11438.0 1717.5Q11442 1707 11445.0 1696.0Q11448 1685 11453 1674Q11455 1647 11456.5 1620.5Q11458 1594 11458 1567Q11458 1547 11457.0 1528.0Q11456 1509 11455 1489Q11461 1480 11468.0 1466.5Q11475 1453 11475 1437Q11475 1434 11473.5 1425.0Q11472 1416 11470.0 1406.0Q11468 1396 11466.0 1387.5Q11464 1379 11463 1377Q11463 1375 11462.5 1365.5Q11462 1356 11462 1347Q11462 1343 11462.5 1340.0Q11463 1337 11463 1335Q11463 1333 11460.5 1324.5Q11458 1316 11458 1306Q11458 1303 11462.0 1293.0Q11466 1283 11470 1276Q11468 1274 11466.5 1264.0Q11465 1254 11463 1252V1193Q11463 1191 11460.5 1185.5Q11458 1180 11455.0 1174.0Q11452 1168 11449.5 1163.0Q11447 1158 11446 1157Q11441 1145 11439.0 1132.5Q11437 1120 11434.5 1108.0Q11432 1096 11428.5 1084.0Q11425 1072 11417 1062Q11414 1057 11402.5 1046.0Q11391 1035 11387 1032Q11385 1031 11385.0 1027.5Q11385 1024 11385 1022Q11385 1011 11393.5 1003.5Q11402 996 11413 996H11422Q11474 1001 11523.0 1004.5Q11572 1008 11626 1008Q11637 1008 11648.0 1003.0Q11659 998 11673 996L11711 994L11749 996Q11753 996 11761.5 1002.0Q11770 1008 11773 1013L11780 1020Q11780 1022 11777.5 1028.5Q11775 1035 11773 1037Q11769 1042 11761.0 1051.0Q11753 1060 11749 1062Q11747 1062 11741.0 1063.0Q11735 1064 11728.0 1065.0Q11721 1066 11715.0 1066.5Q11709 1067 11707 1067Q11693 1070 11680.0 1081.5Q11667 1093 11657.0 1108.0Q11647 1123 11640.5 1139.5Q11634 1156 11631 1169Q11627 1187 11625.5 1206.0Q11624 1225 11624 1243L11636 1335Q11636 1351 11632.5 1365.5Q11629 1380 11624 1394Q11624 1400 11625.0 1416.5Q11626 1433 11626 1451Q11626 1469 11625.0 1485.0Q11624 1501 11624 1508Q11624 1509 11623.0 1515.0Q11622 1521 11621.5 1528.0Q11621 1535 11620.0 1541.5Q11619 1548 11619 1550V1567Q11620 1569 11623.5 1575.5Q11627 1582 11630.5 1590.0Q11634 1598 11637.5 1605.0Q11641 1612 11641 1615Q11641 1619 11642.0 1627.0Q11643 1635 11643 1643Q11643 1652 11642.0 1658.5Q11641 1665 11641 1667Q11646 1670 11655.0 1679.5Q11664 1689 11666 1691V1700Q11666 1705 11665.0 1709.0Q11664 1713 11662 1717Q11660 1722 11660.0 1726.0Q11660 1730 11660 1735Q11660 1743 11669.5 1748.0Q11679 1753 11692.0 1757.0Q11705 1761 11717.5 1762.5Q11730 1764 11735 1764H11749Q11756 1763 11776.0 1761.0Q11796 1759 11817.5 1757.5Q11839 1756 11858.5 1754.5Q11878 1753 11885 1752Q11928 1727 11966.0 1694.5Q12004 1662 12036 1626Q12039 1623 12041.5 1617.5Q12044 1612 12046.5 1607.5Q12049 1603 12053.0 1599.5Q12057 1596 12064 1596Q12070 1596 12077.0 1601.5Q12084 1607 12089.5 1615.0Q12095 1623 12098.5 1631.5Q12102 1640 12102 1646Q12102 1663 12098.5 1676.0Q12095 1689 12095 1705V1716Q12092 1719 12084.5 1728.0Q12077 1737 12069.5 1747.5Q12062 1758 12055.5 1767.5Q12049 1777 12046 1781L12036 1816Q12034 1818 12025.0 1828.0Q12016 1838 12012 1840Q12007 1845 12000.5 1846.0Q11994 1847 11987 1847H11958Q11957 1846 11952.0 1844.0Q11947 1842 11941.0 1840.0Q11935 1838 11929.5 1836.5Q11924 1835 11922 1835H11863Q11860 1835 11850.0 1831.5Q11840 1828 11839 1828Q11837 1828 11830.5 1830.5Q11824 1833 11821 1835Q11817 1837 11808.5 1841.0Q11800 1845 11797 1847H11702Q11689 1838 11674.0 1836.5Q11659 1835 11645 1835H11624Q11613 1835 11602.0 1837.0Q11591 1839 11577 1847Q11553 1849 11528.5 1849.0Q11504 1849 11479 1849Q11454 1849 11429.5 1849.0Q11405 1849 11380 1847L11351 1835Q11339 1830 11333.0 1823.0Q11327 1816 11327 1802ZM12204 1825Q12204 1805 12217.0 1797.5Q12230 1790 12249.0 1787.0Q12268 1784 12288.0 1782.0Q12308 1780 12322 1771Q12323 1770 12324 1768Q12327 1765 12327 1764Q12330 1760 12335.5 1751.0Q12341 1742 12346.5 1732.5Q12352 1723 12357.0 1714.5Q12362 1706 12363 1703Q12368 1695 12369.0 1686.5Q12370 1678 12370 1660Q12370 1649 12368.0 1642.0Q12366 1635 12364.0 1629.0Q12362 1623 12360.0 1616.5Q12358 1610 12358 1601L12377 1501Q12377 1497 12375.5 1487.5Q12374 1478 12370 1454V1406Q12368 1403 12363.0 1389.5Q12358 1376 12358 1368Q12366 1343 12368.0 1318.5Q12370 1294 12370 1268V1235L12363 1204Q12361 1192 12361.0 1179.5Q12361 1167 12361 1155Q12361 1144 12361.0 1132.0Q12361 1120 12363 1107Q12361 1096 12350.0 1085.5Q12339 1075 12334 1070Q12314 1056 12291.5 1055.0Q12269 1054 12249.5 1052.0Q12230 1050 12217.0 1039.5Q12204 1029 12204 996Q12204 976 12221.0 969.5Q12238 963 12254 961H12311Q12357 961 12401.5 960.0Q12446 959 12491 954Q12498 949 12508.0 948.0Q12518 947 12529 947H12595Q12597 947 12602.5 948.0Q12608 949 12614.0 950.5Q12620 952 12625.0 953.0Q12630 954 12631 954Q12645 954 12660.0 956.5Q12675 959 12675 967Q12676 972 12677.0 976.5Q12678 981 12678 986Q12678 992 12677.0 998.5Q12676 1005 12675 1010Q12673 1015 12665.5 1019.5Q12658 1024 12649.0 1028.0Q12640 1032 12631.0 1034.5Q12622 1037 12619 1039L12583 1070Q12575 1075 12563.0 1077.0Q12551 1079 12546 1089Q12545 1091 12540.5 1100.0Q12536 1109 12534 1114Q12533 1116 12531 1124Q12530 1128 12529 1131V1223Q12529 1225 12531.0 1233.5Q12533 1242 12534 1254Q12534 1256 12532.0 1263.0Q12530 1270 12527.5 1278.0Q12525 1286 12523.5 1293.0Q12522 1300 12522 1302V1387L12515 1501L12534 1589V1619Q12534 1621 12531.5 1632.0Q12529 1643 12529 1648Q12529 1651 12532.5 1658.5Q12536 1666 12540.5 1674.0Q12545 1682 12549.0 1689.0Q12553 1696 12553 1698Q12556 1707 12557.5 1719.5Q12559 1732 12562.5 1743.5Q12566 1755 12573.5 1763.0Q12581 1771 12595 1771Q12606 1771 12614.0 1767.5Q12622 1764 12631 1764Q12638 1764 12649.5 1766.0Q12661 1768 12672.0 1772.5Q12683 1777 12691.0 1784.5Q12699 1792 12699 1802Q12699 1818 12691.5 1828.5Q12684 1839 12672.5 1845.5Q12661 1852 12647.0 1854.5Q12633 1857 12621 1857L12512 1851H12484Q12482 1851 12472.0 1854.0Q12462 1857 12460 1857H12358L12315 1863H12284Q12273 1863 12259.5 1862.5Q12246 1862 12233.5 1858.5Q12221 1855 12212.5 1847.0Q12204 1839 12204 1825ZM12833 1712Q12833 1703 12834.0 1693.5Q12835 1684 12838.0 1675.5Q12841 1667 12846.5 1662.0Q12852 1657 12861 1657H12869Q12886 1663 12898.5 1675.5Q12911 1688 12918 1705L12923 1729Q12925 1731 12929.5 1735.5Q12934 1740 12937 1742L12947 1748Q12949 1750 12954.0 1760.5Q12959 1771 12961 1773Q12963 1774 12967.0 1778.5Q12971 1783 12973 1785Q12978 1783 12983.5 1783.0Q12989 1783 12994 1783Q13005 1783 13017.5 1786.0Q13030 1789 13039 1797Q13050 1799 13061.0 1800.5Q13072 1802 13084 1802Q13095 1802 13107.0 1800.5Q13119 1799 13131 1797Q13141 1795 13155.5 1779.0Q13170 1763 13183.0 1742.5Q13196 1722 13205.5 1702.5Q13215 1683 13215 1674V1662Q13215 1658 13214.0 1649.5Q13213 1641 13212.5 1632.0Q13212 1623 13211.0 1616.5Q13210 1610 13210 1608Q13208 1607 13203.0 1599.5Q13198 1592 13198 1589Q13194 1583 13192.0 1575.0Q13190 1567 13187.0 1559.5Q13184 1552 13179.5 1546.0Q13175 1540 13167 1536Q13165 1534 13157.5 1532.0Q13150 1530 13150 1529Q13148 1529 13140.0 1521.0Q13132 1513 13131 1511Q13129 1509 13124.0 1505.5Q13119 1502 13113.0 1498.5Q13107 1495 13102.0 1492.0Q13097 1489 13094 1487Q13093 1486 13087.5 1483.0Q13082 1480 13076.0 1477.0Q13070 1474 13064.5 1471.5Q13059 1469 13058 1468Q13055 1466 13045.0 1458.5Q13035 1451 13034 1449Q13013 1435 12997.5 1427.5Q12982 1420 12969.0 1412.5Q12956 1405 12944.0 1393.5Q12932 1382 12918 1359Q12915 1353 12909.0 1343.5Q12903 1334 12897.0 1324.5Q12891 1315 12886.5 1307.0Q12882 1299 12881 1297Q12880 1295 12877.5 1286.0Q12875 1277 12875 1273V1152Q12875 1151 12877.0 1142.5Q12879 1134 12882.0 1122.0Q12885 1110 12888.5 1098.0Q12892 1086 12894 1079Q12897 1065 12901.5 1058.5Q12906 1052 12912.0 1048.0Q12918 1044 12925.5 1041.0Q12933 1038 12942 1031Q12945 1028 12954.0 1019.0Q12963 1010 12973.0 999.5Q12983 989 12992.0 980.0Q13001 971 13003 968Q13009 963 13022.0 960.5Q13035 958 13039 956Q13069 947 13097.0 943.0Q13125 939 13157 939H13186Q13192 939 13206.5 939.5Q13221 940 13237.0 941.0Q13253 942 13267.5 942.5Q13282 943 13288 944Q13297 947 13309.5 956.5Q13322 966 13334.0 978.0Q13346 990 13354.0 1004.0Q13362 1018 13362 1031Q13361 1032 13359.0 1042.0Q13357 1052 13357 1055V1103Q13356 1105 13354.5 1111.5Q13353 1118 13351.0 1126.0Q13349 1134 13346.5 1141.5Q13344 1149 13343 1152Q13342 1157 13337.5 1158.0Q13333 1159 13328 1159H13307Q13302 1157 13298.5 1151.5Q13295 1146 13292.0 1140.0Q13289 1134 13287.0 1128.5Q13285 1123 13283 1120Q13281 1119 13277.0 1115.0Q13273 1111 13268.5 1106.0Q13264 1101 13259.5 1096.5Q13255 1092 13253 1089Q13252 1089 13246.5 1087.5Q13241 1086 13240 1084Q13234 1081 13231.0 1075.5Q13228 1070 13225.5 1064.0Q13223 1058 13219.5 1052.0Q13216 1046 13210 1041Q13206 1040 13196.0 1036.0Q13186 1032 13174.0 1028.5Q13162 1025 13151.0 1021.5Q13140 1018 13136 1017H13106Q13103 1020 13096.0 1026.5Q13089 1033 13081.0 1041.0Q13073 1049 13066.5 1055.5Q13060 1062 13058 1065Q13045 1082 13042.0 1107.0Q13039 1132 13039 1152Q13039 1169 13043.5 1183.0Q13048 1197 13055.5 1210.0Q13063 1223 13073.0 1235.0Q13083 1247 13094 1261Q13103 1273 13113.5 1277.5Q13124 1282 13135.5 1284.0Q13147 1286 13158.0 1288.0Q13169 1290 13179 1297Q13180 1298 13185.5 1303.0Q13191 1308 13197.0 1313.0Q13203 1318 13208.5 1322.5Q13214 1327 13215 1328Q13217 1330 13222.5 1333.5Q13228 1337 13234.0 1340.5Q13240 1344 13245.5 1347.5Q13251 1351 13253 1352Q13255 1354 13265.0 1358.5Q13275 1363 13278 1364Q13278 1366 13281.0 1371.0Q13284 1376 13295 1396L13343 1444L13362 1456Q13376 1467 13378.5 1487.0Q13381 1507 13381 1525V1589Q13376 1598 13375.5 1607.5Q13375 1617 13375 1626V1657Q13375 1661 13372.0 1670.0Q13369 1679 13368 1681Q13368 1682 13365.5 1685.5Q13363 1689 13360.0 1693.0Q13357 1697 13354.0 1700.5Q13351 1704 13350 1705Q13349 1708 13347.0 1718.0Q13345 1728 13343 1729L13338 1748Q13335 1752 13326.5 1762.0Q13318 1772 13308.0 1782.5Q13298 1793 13289.5 1802.0Q13281 1811 13278 1814Q13275 1817 13268.0 1821.5Q13261 1826 13259 1828Q13257 1828 13251.0 1828.5Q13245 1829 13237.5 1830.0Q13230 1831 13223.5 1832.0Q13217 1833 13215 1833Q13203 1836 13191.0 1841.5Q13179 1847 13167.0 1853.0Q13155 1859 13143.0 1864.0Q13131 1869 13118 1870Q13117 1870 13100.0 1870.5Q13083 1871 13072 1871L13027 1870Q13023 1868 13011.5 1863.5Q13000 1859 12997 1857Q12985 1853 12972.5 1851.0Q12960 1849 12947.5 1847.5Q12935 1846 12923.0 1843.0Q12911 1840 12899 1833Q12887 1827 12875.0 1815.5Q12863 1804 12853.5 1790.0Q12844 1776 12838.5 1760.5Q12833 1745 12833 1731ZM13799 1873Q13776 1873 13757.0 1866.0Q13738 1859 13717 1859L13660 1873Q13640 1873 13620.5 1871.5Q13601 1870 13582 1866Q13569 1864 13567.0 1852.0Q13565 1840 13565 1826Q13565 1811 13578.0 1803.5Q13591 1796 13608.0 1791.0Q13625 1786 13641.0 1780.0Q13657 1774 13662 1762L13674 1721Q13675 1718 13678.5 1711.0Q13682 1704 13686.5 1695.5Q13691 1687 13694.5 1680.0Q13698 1673 13698 1671Q13703 1659 13704.0 1648.0Q13705 1637 13705 1626V1567Q13704 1553 13698.5 1538.5Q13693 1524 13693 1508Q13693 1499 13696.0 1494.5Q13699 1490 13702.5 1486.5Q13706 1483 13709.0 1479.5Q13712 1476 13712 1470Q13712 1462 13709.0 1455.5Q13706 1449 13702.5 1442.0Q13699 1435 13696.0 1428.0Q13693 1421 13693 1413L13698 1385L13693 1351L13705 1313L13698 1219Q13698 1208 13701.5 1198.5Q13705 1189 13705 1178Q13705 1162 13700.0 1148.0Q13695 1134 13693 1117Q13691 1117 13686.5 1116.0Q13682 1115 13677.0 1114.0Q13672 1113 13667.5 1112.0Q13663 1111 13662 1110Q13661 1110 13656.5 1108.5Q13652 1107 13646.5 1105.0Q13641 1103 13636.5 1101.0Q13632 1099 13631 1098Q13618 1094 13602.0 1090.5Q13586 1087 13572.5 1081.0Q13559 1075 13550.0 1064.5Q13541 1054 13541 1036Q13541 1027 13541.5 1017.5Q13542 1008 13545.0 999.0Q13548 990 13554.0 984.0Q13560 978 13570 977Q13572 977 13581.5 976.0Q13591 975 13603.0 974.0Q13615 973 13626.5 972.0Q13638 971 13645 970H13657Q13668 970 13676.5 973.5Q13685 977 13698 977Q13707 977 13713.0 977.0Q13719 977 13725.0 976.0Q13731 975 13737.5 974.0Q13744 973 13754 970L13771 965L13804 972Q13815 972 13822.0 968.5Q13829 965 13838 965Q13852 965 13865.0 973.0Q13878 981 13894 984Q13912 985 13931.0 985.0Q13950 985 13966.0 989.5Q13982 994 13992.5 1006.0Q14003 1018 14003 1043Q14003 1051 13996.0 1058.5Q13989 1066 13980.0 1072.0Q13971 1078 13961.5 1083.5Q13952 1089 13947 1093Q13946 1095 13936.0 1105.0Q13926 1115 13923 1117H13920Q13911 1117 13904.5 1113.5Q13898 1110 13890 1110H13887Q13878 1115 13876.5 1129.0Q13875 1143 13875 1148V1221Q13875 1222 13874.0 1228.0Q13873 1234 13872.0 1241.5Q13871 1249 13870.0 1255.0Q13869 1261 13868 1262V1300Q13868 1311 13868.5 1323.5Q13869 1336 13872.0 1347.0Q13875 1358 13881.0 1365.5Q13887 1373 13899 1373L13986 1366Q14000 1366 14009.5 1369.5Q14019 1373 14039 1373H14055Q14064 1373 14071.0 1372.0Q14078 1371 14089 1366Q14091 1366 14099.0 1361.0Q14107 1356 14115 1354Q14125 1354 14132.5 1357.0Q14140 1360 14147.5 1363.5Q14155 1367 14163.0 1370.0Q14171 1373 14183 1373H14210Q14211 1373 14216.0 1372.0Q14221 1371 14226.0 1369.5Q14231 1368 14235.0 1367.0Q14239 1366 14240 1366Q14250 1365 14260.5 1365.0Q14271 1365 14280.0 1362.0Q14289 1359 14295.0 1351.5Q14301 1344 14302 1330V1226Q14302 1224 14298.5 1209.5Q14295 1195 14295 1186Q14295 1173 14302.0 1160.0Q14309 1147 14309 1127Q14309 1123 14308.0 1121.0Q14307 1119 14302 1117L14240 1086Q14238 1086 14225.0 1084.0Q14212 1082 14210 1081Q14210 1081 14205.5 1077.5Q14201 1074 14195.0 1068.5Q14189 1063 14183.0 1058.0Q14177 1053 14174 1050Q14167 1045 14161.0 1038.5Q14155 1032 14155 1024V1020Q14158 1010 14165.5 1000.0Q14173 990 14182.5 982.0Q14192 974 14203.0 968.5Q14214 963 14224 963Q14226 963 14228.0 963.5Q14230 964 14233 964Q14236 965 14240 965Q14242 965 14249.5 967.5Q14257 970 14259 970H14326Q14329 971 14340.5 972.0Q14352 973 14365.5 974.0Q14379 975 14391.0 976.0Q14403 977 14406 977H14501Q14513 978 14526.0 979.0Q14539 980 14550.0 984.0Q14561 988 14568.0 996.5Q14575 1005 14575 1020Q14575 1036 14569.5 1043.0Q14564 1050 14553 1056L14544 1062Q14543 1063 14536.0 1068.5Q14529 1074 14520.5 1080.5Q14512 1087 14505.0 1092.0Q14498 1097 14496 1098Q14490 1103 14482.5 1105.0Q14475 1107 14468.5 1110.0Q14462 1113 14458.0 1118.5Q14454 1124 14454 1134Q14454 1143 14457.0 1151.0Q14460 1159 14460 1172Q14459 1175 14458.0 1180.5Q14457 1186 14456.0 1191.5Q14455 1197 14454.5 1201.5Q14454 1206 14454 1207Q14454 1209 14450.5 1214.0Q14447 1219 14447 1221V1281Q14447 1283 14444.5 1292.0Q14442 1301 14440 1309Q14438 1325 14436.5 1335.0Q14435 1345 14435 1361V1380Q14435 1382 14437.5 1392.0Q14440 1402 14440 1404V1518Q14442 1521 14444.5 1531.0Q14447 1541 14447 1543Q14449 1557 14449.0 1569.0Q14449 1581 14449 1595Q14449 1612 14447.5 1630.5Q14446 1649 14435 1683Q14436 1685 14438 1689L14440 1695Q14443 1699 14445.0 1705.5Q14447 1712 14447 1714L14454 1745Q14456 1746 14463.0 1749.0Q14470 1752 14477.5 1756.0Q14485 1760 14492.5 1763.5Q14500 1767 14503 1769Q14511 1772 14522.5 1776.5Q14534 1781 14544.5 1787.5Q14555 1794 14562.5 1803.0Q14570 1812 14570 1825Q14570 1827 14569.0 1830.0Q14568 1833 14563 1835H14551Q14537 1835 14526.0 1837.5Q14515 1840 14505.5 1843.0Q14496 1846 14485.0 1849.0Q14474 1852 14460 1854H14435L14416 1859H14228Q14220 1859 14209.5 1856.0Q14199 1853 14189.5 1847.5Q14180 1842 14173.5 1834.5Q14167 1827 14167 1818Q14167 1804 14178.0 1788.5Q14189 1773 14203 1769Q14204 1769 14210.0 1768.0Q14216 1767 14222.5 1766.0Q14229 1765 14234.0 1764.0Q14239 1763 14240 1762Q14241 1762 14245.0 1758.0Q14249 1754 14254.0 1749.5Q14259 1745 14263.5 1739.5Q14268 1734 14271 1731Q14280 1722 14280 1707L14278 1683L14283 1614Q14283 1603 14280.5 1594.5Q14278 1586 14278 1577Q14278 1567 14281.5 1556.5Q14285 1546 14289.5 1535.0Q14294 1524 14298.0 1513.5Q14302 1503 14302 1494Q14302 1483 14290.0 1474.5Q14278 1466 14269 1461L14223 1458L14112 1465Q14105 1465 14099.0 1464.0Q14093 1463 14089 1458H14010L13906 1470Q13903 1471 13898.0 1473.5Q13893 1476 13887.0 1479.0Q13881 1482 13876.0 1485.0Q13871 1488 13868 1489Q13864 1491 13863.5 1493.5Q13863 1496 13863 1501Q13863 1515 13866.5 1525.5Q13870 1536 13870 1556L13863 1629V1653Q13863 1655 13865.0 1661.0Q13867 1667 13869.5 1674.0Q13872 1681 13873.5 1687.5Q13875 1694 13875 1695V1726Q13876 1727 13878.0 1732.0Q13880 1737 13883.0 1742.5Q13886 1748 13889.0 1753.5Q13892 1759 13894 1762Q13896 1765 13900.0 1769.5Q13904 1774 13906 1774L13972 1787Q13976 1787 13982.5 1794.0Q13989 1801 13991 1806V1811Q13991 1813 13991.5 1815.5Q13992 1818 13992 1819Q13992 1833 13984.5 1844.0Q13977 1855 13965.0 1863.0Q13953 1871 13938.5 1875.5Q13924 1880 13911 1880L13870 1866ZM15449 1844Q15423 1835 15394.0 1830.5Q15365 1826 15335.5 1821.5Q15306 1817 15279.0 1810.0Q15252 1803 15231.0 1788.5Q15210 1774 15197.5 1749.0Q15185 1724 15185 1684V1659L15204 1468Q15208 1460 15211.0 1455.5Q15214 1451 15224 1451Q15246 1451 15256 1470Q15294 1524 15322.5 1575.0Q15351 1626 15384 1683Q15388 1693 15405.5 1702.5Q15423 1712 15447.0 1721.5Q15471 1731 15499.0 1739.0Q15527 1747 15552.5 1753.0Q15578 1759 15598.5 1762.5Q15619 1766 15629 1766H15648Q15664 1766 15666 1764Q15669 1762 15676.5 1757.0Q15684 1752 15692.5 1746.0Q15701 1740 15708.5 1735.0Q15716 1730 15719 1728Q15723 1724 15733.0 1720.0Q15743 1716 15747 1716L15788 1705Q15792 1705 15806.0 1683.5Q15820 1662 15835 1636Q15853 1606 15873 1567Q15873 1565 15874.0 1556.0Q15875 1547 15875.5 1536.5Q15876 1526 15877.0 1516.5Q15878 1507 15878 1503V1487Q15878 1476 15877.5 1467.5Q15877 1459 15875.5 1450.5Q15874 1442 15871.5 1432.0Q15869 1422 15865 1408L15863 1402Q15855 1391 15842.5 1382.0Q15830 1373 15820 1361Q15808 1344 15803.0 1335.0Q15798 1326 15793.0 1320.0Q15788 1314 15779.0 1309.0Q15770 1304 15750 1295Q15749 1295 15739.0 1292.0Q15729 1289 15724 1285Q15710 1277 15697.0 1273.5Q15684 1270 15670.5 1268.5Q15657 1267 15643.0 1265.5Q15629 1264 15614 1259Q15600 1248 15591.0 1236.5Q15582 1225 15565 1217Q15562 1217 15554.5 1215.5Q15547 1214 15538.5 1212.0Q15530 1210 15522.5 1208.5Q15515 1207 15513 1207L15461 1153Q15447 1143 15435.5 1138.5Q15424 1134 15414.0 1130.0Q15404 1126 15394.5 1121.0Q15385 1116 15373 1105Q15364 1097 15359.5 1089.0Q15355 1081 15352.0 1073.0Q15349 1065 15346.5 1057.0Q15344 1049 15339 1041Q15337 1033 15330.5 1022.0Q15324 1011 15320 1005Q15297 978 15283.0 958.5Q15269 939 15261.5 920.0Q15254 901 15251.5 878.5Q15249 856 15249 821Q15249 779 15259.0 733.5Q15269 688 15288.0 645.0Q15307 602 15334.5 564.0Q15362 526 15397 499Q15407 489 15419.5 484.5Q15432 480 15445.5 478.0Q15459 476 15473.0 475.5Q15487 475 15500 472Q15513 469 15524.5 463.0Q15536 457 15547.5 450.5Q15559 444 15571.5 439.0Q15584 434 15598 434Q15641 434 15679.5 439.0Q15718 444 15756 453Q15782 459 15803.5 469.0Q15825 479 15852 479Q15871 479 15886.5 468.0Q15902 457 15917.0 443.5Q15932 430 15948.5 419.0Q15965 408 15986 408Q16005 408 16011.0 426.0Q16017 444 16017 460L15998 525L16006 643V669Q16006 696 16004.5 714.5Q16003 733 15996 761Q15994 766 15989.5 770.0Q15985 774 15982 774Q15982 776 15975 776Q15970 776 15959.5 763.0Q15949 750 15934.5 730.0Q15920 710 15904.0 686.0Q15888 662 15872.0 639.5Q15856 617 15841.5 599.0Q15827 581 15816 574Q15796 561 15772.0 552.5Q15748 544 15722.0 539.5Q15696 535 15670.0 533.0Q15644 531 15622 531Q15589 531 15565.0 537.0Q15541 543 15523.0 556.0Q15505 569 15491.0 589.5Q15477 610 15465 638Q15455 660 15448.5 673.0Q15442 686 15437.5 697.0Q15433 708 15431.0 720.5Q15429 733 15429 754Q15429 807 15447.0 846.0Q15465 885 15495.0 913.5Q15525 942 15565.0 960.5Q15605 979 15650 992L15660 999Q15684 1014 15702.5 1024.5Q15721 1035 15738.0 1043.5Q15755 1052 15773.5 1060.0Q15792 1068 15816 1079L15932 1153Q15934 1154 15936.5 1156.5Q15939 1159 15942 1161Q15946 1164 15949 1167L15967 1217Q15971 1224 15974.5 1232.5Q15978 1241 15982 1245Q15985 1247 15992.0 1255.0Q15999 1263 16006.5 1272.5Q16014 1282 16019.5 1290.5Q16025 1299 16025 1302Q16028 1308 16032.5 1319.5Q16037 1331 16041.5 1343.0Q16046 1355 16049.5 1366.0Q16053 1377 16053 1382V1529Q16053 1530 16048.5 1542.0Q16044 1554 16039 1562Q16036 1563 16034 1567Q16033 1569 16032 1572Q16031 1575 16027.5 1585.0Q16024 1595 16020.0 1607.0Q16016 1619 16012.0 1629.0Q16008 1639 16006 1641Q16003 1650 15995.5 1660.0Q15988 1670 15979.0 1679.0Q15970 1688 15961.5 1695.0Q15953 1702 15949 1705Q15940 1717 15939.0 1731.0Q15938 1745 15927 1752Q15888 1766 15863.0 1783.5Q15838 1801 15815.5 1816.5Q15793 1832 15768.0 1843.0Q15743 1854 15705 1854H15693Q15666 1852 15657.5 1851.5Q15649 1851 15645 1851ZM16258 1325Q16258 1322 16256.5 1316.0Q16255 1310 16253.5 1303.5Q16252 1297 16250.5 1291.5Q16249 1286 16249 1283Q16247 1276 16247.0 1272.0Q16247 1268 16247 1264Q16247 1256 16249.0 1251.0Q16251 1246 16256 1236L16244 1036L16249 980Q16251 977 16253 973Q16255 970 16256.0 967.5Q16257 965 16258 963Q16267 942 16272.0 923.0Q16277 904 16284 883Q16289 863 16289 845Q16289 823 16297 809Q16310 779 16326.5 751.5Q16343 724 16367 687Q16369 684 16371.0 680.5Q16373 677 16375 674Q16384 661 16394.5 645.0Q16405 629 16406 627Q16418 609 16429.5 600.0Q16441 591 16457 576Q16491 550 16517.0 528.0Q16543 506 16579 484L16604 473Q16613 470 16624.0 464.5Q16635 459 16647.0 453.0Q16659 447 16670.0 442.0Q16681 437 16690 434L16792 420Q16796 420 16805.0 417.0Q16814 414 16818 409Q16861 408 16887.0 407.0Q16913 406 16936 406Q16967 406 16997.0 407.0Q17027 408 17057 409Q17076 414 17088.0 416.5Q17100 419 17107.0 420.5Q17114 422 17117.0 422.0Q17120 422 17123 422Q17135 421 17142.5 420.5Q17150 420 17156.5 420.0Q17163 420 17171.0 420.0Q17179 420 17192 420Q17203 426 17216.0 437.0Q17229 448 17240 448Q17244 448 17248.0 445.0Q17252 442 17254 442H17313Q17326 440 17337.5 433.5Q17349 427 17360.5 419.5Q17372 412 17383.0 406.5Q17394 401 17408 401Q17425 401 17437.5 411.5Q17450 422 17450 442V608Q17451 613 17453.0 624.0Q17455 635 17455 640Q17464 688 17476.0 738.5Q17488 789 17488 837Q17487 843 17483.0 850.0Q17479 857 17473.5 863.0Q17468 869 17463.0 873.5Q17458 878 17455 878Q17455 880 17448 880Q17428 880 17413.5 871.0Q17399 862 17389.0 848.0Q17379 834 17374.0 818.0Q17369 802 17367 788V755Q17365 741 17361.5 732.5Q17358 724 17353.0 717.5Q17348 711 17341.5 704.0Q17335 697 17327 686Q17316 675 17314.0 661.5Q17312 648 17303 634Q17301 630 17294.0 626.0Q17287 622 17285 622L17221 576Q17221 575 17216.5 570.5Q17212 566 17207.0 560.5Q17202 555 17197.5 550.0Q17193 545 17192 543Q17181 537 17180 537Q17178 539 17166 539Q17159 539 17159 537Q17138 533 17118.5 524.0Q17099 515 17083 506L16962 501Q16955 493 16948.0 491.0Q16941 489 16931 489Q16897 489 16873.0 495.0Q16849 501 16829 512Q16828 514 16827 515Q16825 517 16823 517Q16809 528 16792.5 534.0Q16776 540 16759.0 545.5Q16742 551 16725.5 557.5Q16709 564 16695 576L16657 608Q16656 610 16647.0 616.5Q16638 623 16637 627Q16632 638 16620.0 647.5Q16608 657 16604 659Q16596 670 16592.5 682.5Q16589 695 16585 697L16562 730L16534 794L16521 852Q16520 854 16516.5 859.0Q16513 864 16508.5 869.5Q16504 875 16499.5 879.0Q16495 883 16493 883Q16493 884 16492.0 891.0Q16491 898 16490.5 907.5Q16490 917 16489.0 926.5Q16488 936 16488 941V968L16493 1070L16505 1119L16493 1174Q16493 1222 16506.0 1270.0Q16519 1318 16534 1363Q16536 1364 16552 1387L16562 1415Q16565 1423 16571.0 1430.5Q16577 1438 16584.5 1445.0Q16592 1452 16599.0 1458.0Q16606 1464 16611 1470Q16616 1488 16618.0 1495.0Q16620 1502 16622.0 1504.5Q16624 1507 16627.0 1508.5Q16630 1510 16637 1517Q16644 1520 16648.5 1526.5Q16653 1533 16657.0 1541.0Q16661 1549 16665.0 1557.0Q16669 1565 16676 1570Q16695 1573 16708.5 1573.5Q16722 1574 16733 1586Q16757 1606 16778.0 1620.5Q16799 1635 16820.5 1645.5Q16842 1656 16866.0 1663.5Q16890 1671 16920 1676L16972 1691Q16998 1691 17014.5 1683.5Q17031 1676 17047 1676Q17062 1676 17075.0 1686.5Q17088 1697 17104 1697Q17117 1697 17125.5 1688.5Q17134 1680 17147 1676Q17149 1676 17159.5 1674.0Q17170 1672 17173 1671Q17177 1671 17186.0 1666.0Q17195 1661 17199 1657Q17233 1652 17242.5 1648.5Q17252 1645 17254 1645Q17255 1644 17259.0 1640.5Q17263 1637 17267.5 1632.5Q17272 1628 17276.0 1623.5Q17280 1619 17282 1617Q17286 1617 17295.0 1612.0Q17304 1607 17314.5 1600.0Q17325 1593 17335.5 1586.0Q17346 1579 17353 1575Q17358 1572 17360.0 1567.5Q17362 1563 17367 1558Q17382 1537 17397.0 1527.0Q17412 1517 17429 1496Q17433 1492 17440.5 1483.5Q17448 1475 17450 1470Q17451 1468 17454.5 1457.5Q17458 1447 17462 1446Q17475 1435 17487.0 1431.0Q17499 1427 17512 1427Q17519 1427 17524.5 1433.0Q17530 1439 17533.5 1447.0Q17537 1455 17539.0 1464.5Q17541 1474 17541 1480Q17541 1500 17532.0 1515.5Q17523 1531 17512.0 1545.0Q17501 1559 17490.5 1573.5Q17480 1588 17476 1607Q17472 1610 17463.0 1617.5Q17454 1625 17445.0 1634.0Q17436 1643 17428.0 1651.5Q17420 1660 17418 1664Q17396 1693 17378.0 1704.5Q17360 1716 17344 1728Q17337 1737 17333.5 1746.5Q17330 1756 17318 1761Q17304 1769 17286.5 1775.5Q17269 1782 17249 1787Q17217 1807 17192.0 1814.0Q17167 1821 17140 1830L17100 1852Q17047 1855 17027.0 1860.5Q17007 1866 17003 1866Q16971 1865 16959.5 1860.5Q16948 1856 16944 1856L16882 1876Q16871 1875 16858.5 1874.0Q16846 1873 16834.0 1871.5Q16822 1870 16812.0 1867.5Q16802 1865 16797 1861Q16770 1854 16741.0 1851.0Q16712 1848 16685 1835L16611 1806Q16609 1804 16599.0 1801.5Q16589 1799 16585 1799Q16556 1761 16552 1761H16528Q16520 1756 16509.5 1741.5Q16499 1727 16488 1709Q16488 1697 16474.5 1694.0Q16461 1691 16451 1691Q16445 1688 16443.0 1682.5Q16441 1677 16439.5 1670.5Q16438 1664 16436.0 1657.0Q16434 1650 16429 1645Q16427 1640 16419.0 1630.5Q16411 1621 16406 1617Q16399 1613 16395.0 1611.0Q16391 1609 16388.0 1607.5Q16385 1606 16382.0 1602.5Q16379 1599 16374 1591L16349 1553L16327 1529Q16327 1494 16322.0 1480.0Q16317 1466 16315 1465Q16315 1461 16312.5 1447.5Q16310 1434 16308 1432Q16288 1423 16283 1419Q16279 1416 16277 1415Z" fill="currentColor" /></svg>