<svg viewBox="0 0 4779 2560" xmlns="http://www.w3.org/2000/svg"><path d="M156 648H356V2040H156ZM1132 1164Q983 1164 867 1265V2040H667V1008H852L866 1120Q1029 992 1203 992Q1387 992 1473 1102Q1563 1218 1563 1476V2040H1363V1476Q1363 1228 1229 1180Q1186 1164 1132 1164ZM2528 996V552H2727V2040H2548L2540 1921Q2479 2002 2355 2041Q2307 2056 2257.5 2056.0Q2208 2056 2160.0 2046.0Q2112 2036 2064.5 2012.5Q2017 1989 1974.0 1950.5Q1931 1912 1897 1856Q1825 1733 1825.0 1565.0Q1825 1397 1878.5 1292.5Q1932 1188 2018.5 1121.0Q2105 1054 2213.5 1023.0Q2322 992 2403.0 992.0Q2484 992 2528 996ZM2124 1832Q2193 1902 2290 1902Q2415 1902 2497 1810Q2518 1787 2527 1769V1154L2507 1152Q2461 1146 2397.5 1146.0Q2334 1146 2262.0 1168.5Q2190 1191 2139.0 1239.5Q2088 1288 2060.5 1363.5Q2033 1439 2033.0 1546.5Q2033 1654 2059.0 1723.5Q2085 1793 2124 1832ZM3538 2056Q2972 2056 2972 1503Q2972 1265 3129 1122Q3270 992 3451 992Q3648 992 3759 1124Q3862 1247 3862 1453V1531H3180Q3180 1814 3411 1877Q3466 1892 3580.5 1892.0Q3695 1892 3805 1861V2030Q3695 2056 3538 2056ZM3662 1384Q3662 1288 3609 1222Q3547 1146 3438 1146Q3323 1146 3251 1219Q3185 1287 3185 1384ZM4737 1191Q4682 1175 4605.5 1175.0Q4529 1175 4480.0 1190.5Q4431 1206 4394 1228Q4326 1268 4295 1318V2040H4095V1008H4287L4295 1151Q4370 1057 4514 1010Q4566 992 4633.0 992.0Q4700 992 4737 1002Z" fill="currentColor" /></svg>