<svg viewBox="0 0 4868 738" xmlns="http://www.w3.org/2000/svg"><path d="M79 692Q75 663 70.5 621.0Q66 579 64 559Q62 539 55.5 481.5Q49 424 42 382Q40 368 29 332Q0 229 0 183Q7 173 14 173Q40 173 68.0 277.0Q96 381 115.5 511.5Q135 642 135 690Q135 692 135.0 702.5Q135 713 130.5 720.0Q126 727 116 729Q103 734 91.5 723.0Q80 712 79 692ZM304 737Q296 737 287 729Q254 680 239.5 558.0Q225 436 225 348Q225 334 245 334Q275 334 275 367Q275 376 274 382Q283 361 308.0 339.0Q333 317 366.0 302.0Q399 287 433 287Q540 287 589.0 381.5Q638 476 638 616Q638 664 628.0 692.5Q618 721 601 721Q583 721 583 710Q590 657 590 606Q590 477 545.0 410.5Q500 344 426 344Q390 344 356.5 362.0Q323 380 302.5 412.0Q282 444 282 485Q282 531 287.0 565.0Q292 599 303 647Q315 694 320 733Q306 737 304 737ZM738 507Q738 411 778.5 345.0Q819 279 902 279Q952 279 989.5 296.5Q1027 314 1088 355L1114 373Q1109 340 1099.0 297.0Q1089 254 1086 238Q1069 160 1061.5 121.5Q1054 83 1054 53Q1054 0 1084 0Q1095 24 1110.0 102.5Q1125 181 1148 317Q1172 461 1190.0 552.0Q1208 643 1220 666Q1220 689 1186 689Q1160 689 1150.5 659.0Q1141 629 1139 554H1131Q1089 630 1022.0 679.0Q955 728 889 728Q842 728 807.5 696.0Q773 664 755.5 613.0Q738 562 738 507ZM1104 471V441Q1001 333 914 333Q853 333 820.0 377.5Q787 422 787 494L788 515Q794 591 822.0 635.0Q850 679 902 679Q943 679 990.5 644.5Q1038 610 1071.0 560.5Q1104 511 1104 471ZM1281 391Q1280 374 1280 347Q1280 313 1285.5 300.0Q1291 287 1304 287Q1315 287 1321.5 291.5Q1328 296 1333 306L1332 346Q1332 410 1338.5 467.0Q1345 524 1359 620Q1367 662 1370 689Q1372 703 1365.0 716.5Q1358 730 1347 730Q1324 730 1310.0 662.5Q1296 595 1292.0 546.0Q1288 497 1281 391ZM1279 121Q1279 110 1280 105Q1279 89 1298 89Q1312 89 1326.5 95.5Q1341 102 1335 105Q1345 131 1345 146Q1345 159 1339.0 166.5Q1333 174 1322 180Q1300 180 1289.5 163.0Q1279 146 1279 121ZM1460 527Q1460 460 1485.0 401.5Q1510 343 1558.5 307.5Q1607 272 1672 272Q1740 272 1775.0 315.5Q1810 359 1808 425Q1808 484 1761.5 515.0Q1715 546 1643 546Q1632 546 1610 544Q1574 540 1559.0 533.0Q1544 526 1544 505Q1544 498 1548.0 494.5Q1552 491 1564 491Q1577 491 1610 497Q1642 503 1667 503Q1759 503 1759 423Q1759 375 1741.5 347.0Q1724 319 1680 319Q1632 319 1594.0 344.5Q1556 370 1535.5 411.0Q1515 452 1515 498Q1515 577 1559.0 627.5Q1603 678 1695 678Q1706 678 1732 676Q1743 675 1759.0 670.0Q1775 665 1782 663Q1825 648 1845 648Q1860 648 1868 656Q1843 694 1793.5 711.5Q1744 729 1696 729Q1632 729 1578.0 704.0Q1524 679 1492.0 633.0Q1460 587 1460 527ZM2320 710Q2313 678 2310.0 653.5Q2307 629 2306 608Q2305 578 2301.5 548.5Q2298 519 2287 470Q2231 479 2212 479Q2192 479 2182.0 471.5Q2172 464 2172 447Q2172 437 2183 437L2213 434Q2220 433 2277 426Q2275 397 2269 307Q2266 235 2260 192L2135 203Q2121 212 2113 212Q2101 203 2098 189Q2122 163 2213.5 146.0Q2305 129 2412 129Q2546 129 2642.0 157.5Q2738 186 2746 245Q2715 245 2686.0 238.0Q2657 231 2613 217Q2557 198 2510.5 188.0Q2464 178 2406 178Q2369 178 2325 184Q2325 277 2330 419L2365 416Q2525 403 2552 403Q2565 403 2570.0 404.5Q2575 406 2578 409Q2579 439 2521.0 451.5Q2463 464 2337 469Q2342 518 2356 597Q2369 671 2372 717Q2356 715 2342.5 714.5Q2329 714 2324.5 713.5Q2320 713 2320 710ZM2816 174Q2816 104 2819 50Q2819 37 2839 37Q2855 37 2859.5 45.0Q2864 53 2864 70Q2864 232 2870.0 346.5Q2876 461 2886 593Q2892 678 2894 708Q2895 724 2877 724Q2871 724 2861 722Q2839 613 2827.5 463.5Q2816 314 2816 174ZM2974 521Q2974 421 3047.5 372.0Q3121 323 3228 323Q3277 323 3319.5 347.0Q3362 371 3388.0 416.0Q3414 461 3414 520Q3414 584 3381.0 631.5Q3348 679 3294.5 704.5Q3241 730 3181 730Q3122 730 3074.5 703.5Q3027 677 3000.5 629.5Q2974 582 2974 521ZM3359 508Q3359 453 3321.5 413.0Q3284 373 3217 373Q3172 373 3126.0 390.0Q3080 407 3050.0 441.0Q3020 475 3020 523Q3020 563 3040.0 597.5Q3060 632 3094.5 652.5Q3129 673 3170 673Q3263 673 3311.0 631.0Q3359 589 3359 508ZM3799 635Q3769 687 3730.0 712.5Q3691 738 3646 738Q3568 738 3526.0 682.0Q3484 626 3484 501Q3484 442 3496.5 401.0Q3509 360 3539 326Q3553 331 3556.5 339.5Q3560 348 3560 364Q3560 380 3556.5 396.0Q3553 412 3552 415Q3545 445 3541.5 467.5Q3538 490 3538 523Q3538 595 3565.5 640.5Q3593 686 3645 686Q3704 686 3737.5 647.5Q3771 609 3771 551L3764 449Q3764 443 3772.5 437.0Q3781 431 3792 431Q3806 431 3811.0 450.0Q3816 469 3820 510Q3826 561 3833.5 593.5Q3841 626 3863.0 650.5Q3885 675 3927 675Q3978 675 4001.0 646.5Q4024 618 4024 572Q4024 531 4008.5 485.5Q3993 440 3971 411Q3970 402 3980.5 396.0Q3991 390 4002 393Q4020 397 4035.5 425.0Q4051 453 4060.5 495.0Q4070 537 4070 579Q4070 642 4038.5 683.0Q4007 724 3938 724Q3882 724 3847.5 702.5Q3813 681 3799 635ZM4150 527Q4150 460 4175.0 401.5Q4200 343 4248.5 307.5Q4297 272 4362 272Q4430 272 4465.0 315.5Q4500 359 4498 425Q4498 484 4451.5 515.0Q4405 546 4333 546Q4322 546 4300 544Q4264 540 4249.0 533.0Q4234 526 4234 505Q4234 498 4238.0 494.5Q4242 491 4254 491Q4267 491 4300 497Q4332 503 4357 503Q4449 503 4449 423Q4449 375 4431.5 347.0Q4414 319 4370 319Q4322 319 4284.0 344.5Q4246 370 4225.5 411.0Q4205 452 4205 498Q4205 577 4249.0 627.5Q4293 678 4385 678Q4396 678 4422 676Q4433 675 4449.0 670.0Q4465 665 4472 663Q4515 648 4535 648Q4550 648 4558 656Q4533 694 4483.5 711.5Q4434 729 4386 729Q4322 729 4268.0 704.0Q4214 679 4182.0 633.0Q4150 587 4150 527ZM4598 354Q4598 323 4612 314Q4620 309 4624 309Q4631 309 4634.5 320.0Q4638 331 4642 360L4647 396Q4658 342 4689.5 310.5Q4721 279 4767 279Q4818 279 4843.0 298.5Q4868 318 4868 363Q4818 339 4777 339Q4738 339 4710.0 360.0Q4682 381 4671 422Q4662 450 4662 475Q4662 502 4669.5 525.5Q4677 549 4693 583Q4708 618 4716.5 643.0Q4725 668 4726 697Q4726 714 4714.0 721.5Q4702 729 4686 729Q4645 649 4621.5 541.0Q4598 433 4598 354Z" fill="currentColor" /></svg>