<svg viewBox="0 0 4375 2478" xmlns="http://www.w3.org/2000/svg"><path d="M370 494V1984H180V494ZM888 1314V1984H708V866H881L882 1137H857Q908 982 1002.5 917.0Q1097 852 1224 852Q1337 852 1422.0 898.5Q1507 945 1554.5 1038.5Q1602 1132 1602 1274V1984H1422V1289Q1422 1160 1354.5 1087.0Q1287 1014 1170 1014Q1090 1014 1026.0 1049.0Q962 1084 925.0 1151.0Q888 1218 888 1314ZM2358 866V1020H1780V866ZM1948 600H2128V1694Q2128 1769 2158.5 1803.5Q2189 1838 2260 1838Q2277 1838 2303.5 1834.0Q2330 1830 2352 1826L2389 1978Q2361 1988 2325.5 1993.0Q2290 1998 2255 1998Q2110 1998 2029.0 1921.5Q1948 1845 1948 1708ZM3038 2008Q2876 2008 2758.5 1936.0Q2641 1864 2577.5 1735.0Q2514 1606 2514 1434Q2514 1262 2576.0 1131.0Q2638 1000 2751.5 926.0Q2865 852 3017 852Q3106 852 3192.5 881.5Q3279 911 3349.5 976.5Q3420 1042 3462.0 1149.0Q3504 1256 3504 1411V1486H2636V1334H3407L3323 1390Q3323 1280 3288.5 1194.5Q3254 1109 3186.0 1060.5Q3118 1012 3017 1012Q2916 1012 2844.0 1061.5Q2772 1111 2734.0 1190.5Q2696 1270 2696 1361V1462Q2696 1586 2739.0 1672.5Q2782 1759 2859.5 1803.5Q2937 1848 3039 1848Q3105 1848 3159.0 1829.0Q3213 1810 3252.0 1771.5Q3291 1733 3312 1676L3486 1724Q3460 1808 3398.0 1872.0Q3336 1936 3244.5 1972.0Q3153 2008 3038 2008ZM3762 1984V866H3936V1038H3948Q3979 953 4058.5 901.5Q4138 850 4238 850Q4258 850 4285.5 851.0Q4313 852 4329 853V1034Q4321 1032 4289.0 1028.0Q4257 1024 4221 1024Q4141 1024 4077.5 1057.5Q4014 1091 3978.0 1149.5Q3942 1208 3942 1284V1984Z" fill="currentColor" /></svg>