<svg viewBox="0 0 10960 1365" xmlns="http://www.w3.org/2000/svg"><path d="M160 325H400V405H160ZM560 325H720V485H640V405H560ZM400 405H560V485H400ZM80 405H160V645H80ZM560 485H640V565H560ZM240 565H320V645H240ZM480 565H560V645H480ZM640 565H720V645H640ZM160 645H240V725H160ZM640 965H560V645H640ZM640 965H720V1205H640ZM80 965H240V1045H160V1125H80ZM320 1205H240V1045H320ZM320 1285V1205H640V1285ZM960 565H1120V645H960ZM1200 565H1280V645H1200ZM880 645H960V965H880ZM1040 885H1120V645H1200V965H1040ZM800 965H880V1045H800ZM960 965H1040V1045H960ZM1200 965H1280V1045H1200ZM1520 565H1680V645H1520ZM1680 645H1760V725H1680ZM1520 965H1440V645H1520ZM1680 885H1760V965H1680ZM1360 965H1440V1045H1360ZM1520 965H1680V1045H1520ZM2000 565H2160V645H2000ZM2240 565H2320V645H2240ZM2000 965H1920V645H2000ZM2000 965H2160V645H2240V1205H2160V1045H2000ZM1840 965H1920V1045H1840ZM2240 1205H2320V1285H2240ZM2480 565H2560V645H2480ZM2720 885H2800V565H2880V645H2960V725H2880V965H2720ZM2960 565H3040V645H2960ZM2400 645H2480V725H2400ZM2560 645H2640V965H2560ZM2960 885H3040V965H2960ZM2640 965H2720V1045H2640ZM2480 965H2560V1045H2480ZM2880 965H2960V1045H2880ZM3280 565H3440V645H3280ZM3520 565H3600V645H3520ZM3200 645H3280V965H3200ZM3360 885H3440V645H3520V965H3360ZM3120 965H3200V1045H3120ZM3280 965H3360V1045H3280ZM3520 965H3600V1045H3520ZM3760 565H3840V645H3760ZM3920 565H4080V645H3920ZM3840 645H3920V965H3840ZM3680 645H3760V725H3680ZM4080 645H4160V725H4080ZM4000 885H4080V965H4000ZM3760 965H3840V1045H3760ZM3920 965H4000V1045H3920ZM4320 325H4400V405H4320ZM4400 405H4480V485H4400ZM4480 485H4560V565H4480ZM4400 565H4480V645H4400ZM4560 565H4640V965H4560ZM4400 965H4320V645H4400ZM4240 965H4320V1045H4240ZM4400 965H4560V1045H4400ZM4880 565H5040V645H4880ZM5120 565H5200V645H5120ZM4800 645H4880V965H4800ZM4960 885H5040V645H5120V965H4960ZM4720 965H4800V1045H4720ZM4880 965H4960V1045H4880ZM5120 965H5200V1045H5120ZM6160 485H6240V405H6320V325H6480V405H6400V485H6320V565H6160ZM5920 405H5760V325H5920ZM6000 325H6240V405H6000ZM5680 405H5760V565H5680ZM5760 805H5920V405H6000V565H6160V645H6000V965H5920V885H5760ZM5680 645H5760V565H5840V725H5680ZM6320 565H6400V645H6320ZM6400 645H6480V885H6400ZM5760 965H5840V1045H5680V885H5760ZM6320 885H6400V965H6320ZM6000 1045V965H6320V1045ZM6720 565H6880V645H6720ZM6960 565H7040V645H6960ZM6640 645H6720V965H6640ZM6800 885H6880V645H6960V965H6800ZM6560 965H6640V1045H6560ZM6720 965H6800V1045H6720ZM6960 965H7040V1045H6960ZM7280 565H7440V645H7280ZM7520 565H7600V645H7520ZM7440 645H7520V725H7440ZM7200 645H7280V805H7200ZM7360 725H7440V805H7360ZM7280 805H7360V885H7280ZM7440 805H7520V965H7440ZM7200 885H7280V965H7200ZM7120 965H7200V1045H7120ZM7280 965H7440V1045H7280ZM7840 405H7920V485H7840ZM7680 565H7760V485H7840V565H8000V645H7840V965H7760V645H7680ZM7920 885H8000V965H7920ZM7840 965H7920V1045H7840ZM8240 565H8400V645H8240ZM8480 565H8560V645H8480ZM8160 645H8240V965H8160ZM8320 885H8400V645H8480V965H8320ZM8080 965H8160V1045H8080ZM8240 965H8320V1045H8240ZM8480 965H8560V1045H8480ZM8720 565H8800V645H8720ZM8880 565H9040V645H8880ZM8800 645H8880V965H8800ZM8640 645H8720V725H8640ZM9040 645H9120V725H9040ZM8960 885H9040V965H8960ZM8720 965H8800V1045H8720ZM8880 965H8960V1045H8880ZM9280 325H9360V405H9280ZM9360 405H9440V485H9360ZM9440 485H9520V565H9440ZM9360 565H9440V645H9360ZM9520 565H9600V965H9520ZM9360 965H9280V645H9360ZM9200 965H9280V1045H9200ZM9360 965H9520V1045H9360ZM9840 565H10000V645H9840ZM10080 565H10160V645H10080ZM9760 645H9840V965H9760ZM9920 885H10000V645H10080V965H9920ZM9680 965H9760V1045H9680ZM9840 965H9920V1045H9840ZM10080 965H10160V1045H10080ZM10880 485H10720V405H10880ZM10880 805H10720V725H10880V485H10960V965H10880ZM10720 725H10640V485H10720ZM10720 965H10640V885H10720ZM10880 1045H10720V965H10880Z" fill="currentColor" /></svg>