<svg viewBox="0 0 5370 1290" xmlns="http://www.w3.org/2000/svg"><path d="M90 1110H120V1080H360V750H240V690H360V630H240V570H360V450H420V1080H390V1110H360V1140H450V1110H480V420H510V390H540V360H570V330H600V300H630V270H660V330H630V360H600V1050H570V1080H540V1110H510V1140H480V1170H450V1200H240V1170H210V1140H120V1170H90V1200H60V1140H90ZM30 330H60V300H90V270H360V300H390V330H450V300H480V270H510V330H480V360H450V390H300V360H270V330H90V360H60V390H30ZM900 900H1020V570H900ZM720 900H780V630H810V600H840V570H870V540H900V510H1080V540H1110V570H1200V630H1140V900H1200V960H1170V990H1140V1020H1050V960H990V990H960V1020H840V990H810V960H720ZM1260 900H1320V630H1350V600H1380V570H1410V540H1440V510H1590V540H1620V630H1530V600H1500V570H1470V600H1440V900H1560V930H1530V960H1500V990H1470V1020H1380V990H1350V960H1260ZM1740 900V630H1770V600H1800V570H1830V540H1860V510H2040V540H2070V570H2160V630H2100V900H2160V960H2100V1200H2070V1170H2040V1140H2010V1110H1980V960H1920V1020H1860V990H1830V960H1680V900ZM1980 900V630H1950V600H1920V570H1860V900ZM2400 1020H2310V960H2220V900H2280V630H2220V600H2250V570H2280V540H2310V510H2370V540H2400V900H2520V630H2460V570H2520V540H2550V510H2610V540H2640V570H2700V630H2640V900H2700V930H2670V960H2640V990H2610V1020H2520V960H2430V990H2400ZM2940 900H3060V570H2940ZM2760 900H2820V630H2850V600H2880V570H2910V540H2940V510H3120V540H3150V570H3240V630H3180V900H3240V960H3210V990H3180V1020H3090V960H3030V990H3000V1020H2880V990H2850V960H2760ZM3300 900H3360V630H3300V570H3330V540H3360V510H3420V570H3450V540H3480V510H3630V540H3660V630H3570V600H3540V570H3510V600H3480V900H3510V960H3480V990H3450V1020H3360V960H3300ZM3690 900H3750V600H3780V570H3810V540H3840V510H3870V900H3990V600H3960V570H3930V540H3900V510H3870V480H3840V450H3810V420H3780V390H3750V330H3780V300H3810V270H3870V300H3900V330H3930V360H3960V390H3990V420H4020V450H4050V480H4080V510H4110V870H4080V900H4050V930H4020V960H3990V990H3960V1020H3810V990H3780V960H3690ZM4500 960H4530V930H4560V900H4590V870H4620V840H4650V810H4680V780H4710V750H4740V660H4710V630H4680V600H4620V630H4590V660H4560V690H4500V630H4530V600H4560V570H4590V540H4620V510H4770V540H4800V570H4830V750H4800V780H4770V810H4740V840H4710V870H4680V900H4860V930H4830V960H4800V990H4770V1020H4500ZM5040 780V810H5010V840H5160V690H5130V720H5100V750H5070V780ZM4920 810H4950V780H4980V750H5010V720H5040V690H5070V660H5100V630H5130V600H5160V570H5190V540H5220V510H5280V840H5340V870H5310V900H5280V1110H5250V1140H5220V1170H5190V1200H5160V930H4920Z" fill="currentColor" /></svg>