<svg viewBox="0 0 10880 960" xmlns="http://www.w3.org/2000/svg"><path d="M80 0H320V80H80ZM480 0H640V160H560V80H480ZM320 80H480V160H320ZM0 80H80V320H0ZM480 160H560V240H480ZM160 240H240V320H160ZM400 240H480V320H400ZM560 240H640V320H560ZM80 320H160V400H80ZM560 640H480V320H560ZM560 640H640V880H560ZM0 640H160V720H80V800H0ZM240 880H160V720H240ZM240 960V880H560V960ZM880 240H1040V320H880ZM1120 240H1200V320H1120ZM800 320H880V640H800ZM960 560H1040V320H1120V640H960ZM720 640H800V720H720ZM880 640H960V720H880ZM1120 640H1200V720H1120ZM1440 240H1600V320H1440ZM1600 320H1680V400H1600ZM1440 640H1360V320H1440ZM1600 560H1680V640H1600ZM1280 640H1360V720H1280ZM1440 640H1600V720H1440ZM1920 240H2080V320H1920ZM2160 240H2240V320H2160ZM1920 640H1840V320H1920ZM1920 640H2080V320H2160V880H2080V720H1920ZM1760 640H1840V720H1760ZM2160 880H2240V960H2160ZM2400 240H2480V320H2400ZM2640 560H2720V240H2800V320H2880V400H2800V640H2640ZM2880 240H2960V320H2880ZM2320 320H2400V400H2320ZM2480 320H2560V640H2480ZM2880 560H2960V640H2880ZM2560 640H2640V720H2560ZM2400 640H2480V720H2400ZM2800 640H2880V720H2800ZM3200 240H3360V320H3200ZM3440 240H3520V320H3440ZM3120 320H3200V640H3120ZM3280 560H3360V320H3440V640H3280ZM3040 640H3120V720H3040ZM3200 640H3280V720H3200ZM3440 640H3520V720H3440ZM3680 240H3760V320H3680ZM3840 240H4000V320H3840ZM3760 320H3840V640H3760ZM3600 320H3680V400H3600ZM4000 320H4080V400H4000ZM3920 560H4000V640H3920ZM3680 640H3760V720H3680ZM3840 640H3920V720H3840ZM4240 0H4320V80H4240ZM4320 80H4400V160H4320ZM4400 160H4480V240H4400ZM4320 240H4400V320H4320ZM4480 240H4560V640H4480ZM4320 640H4240V320H4320ZM4160 640H4240V720H4160ZM4320 640H4480V720H4320ZM4800 240H4960V320H4800ZM5040 240H5120V320H5040ZM4720 320H4800V640H4720ZM4880 560H4960V320H5040V640H4880ZM4640 640H4720V720H4640ZM4800 640H4880V720H4800ZM5040 640H5120V720H5040ZM6080 160H6160V80H6240V0H6400V80H6320V160H6240V240H6080ZM5840 80H5680V0H5840ZM5920 0H6160V80H5920ZM5600 80H5680V240H5600ZM5680 480H5840V80H5920V240H6080V320H5920V640H5840V560H5680ZM5600 320H5680V240H5760V400H5600ZM6240 240H6320V320H6240ZM6320 320H6400V560H6320ZM5680 640H5760V720H5600V560H5680ZM6240 560H6320V640H6240ZM5920 720V640H6240V720ZM6640 240H6800V320H6640ZM6880 240H6960V320H6880ZM6560 320H6640V640H6560ZM6720 560H6800V320H6880V640H6720ZM6480 640H6560V720H6480ZM6640 640H6720V720H6640ZM6880 640H6960V720H6880ZM7200 240H7360V320H7200ZM7440 240H7520V320H7440ZM7360 320H7440V400H7360ZM7120 320H7200V480H7120ZM7280 400H7360V480H7280ZM7200 480H7280V560H7200ZM7360 480H7440V640H7360ZM7120 560H7200V640H7120ZM7040 640H7120V720H7040ZM7200 640H7360V720H7200ZM7760 80H7840V160H7760ZM7600 240H7680V160H7760V240H7920V320H7760V640H7680V320H7600ZM7840 560H7920V640H7840ZM7760 640H7840V720H7760ZM8160 240H8320V320H8160ZM8400 240H8480V320H8400ZM8080 320H8160V640H8080ZM8240 560H8320V320H8400V640H8240ZM8000 640H8080V720H8000ZM8160 640H8240V720H8160ZM8400 640H8480V720H8400ZM8640 240H8720V320H8640ZM8800 240H8960V320H8800ZM8720 320H8800V640H8720ZM8560 320H8640V400H8560ZM8960 320H9040V400H8960ZM8880 560H8960V640H8880ZM8640 640H8720V720H8640ZM8800 640H8880V720H8800ZM9200 0H9280V80H9200ZM9280 80H9360V160H9280ZM9360 160H9440V240H9360ZM9280 240H9360V320H9280ZM9440 240H9520V640H9440ZM9280 640H9200V320H9280ZM9120 640H9200V720H9120ZM9280 640H9440V720H9280ZM9760 240H9920V320H9760ZM10000 240H10080V320H10000ZM9680 320H9760V640H9680ZM9840 560H9920V320H10000V640H9840ZM9600 640H9680V720H9600ZM9760 640H9840V720H9760ZM10000 640H10080V720H10000ZM10800 160H10640V80H10800ZM10800 480H10640V400H10800V160H10880V640H10800ZM10640 400H10560V160H10640ZM10640 640H10560V560H10640ZM10800 720H10640V640H10800Z" fill="currentColor" /></svg>