<svg viewBox="0 0 3877 1314" xmlns="http://www.w3.org/2000/svg"><path d="M222 1038Q181 1038 144.0 1024.5Q107 1011 78.5 990.0Q50 969 33.5 946.0Q17 923 17 904Q17 872 19.0 844.0Q21 816 27 782L126 800Q122 828 120.0 856.0Q118 884 118 919Q118 938 125.5 946.0Q133 954 151 954Q192 954 212.5 933.0Q233 912 233 847Q233 822 232.0 792.0Q231 762 231 712V659Q231 611 234.5 565.0Q238 519 246 492H179L128 426L135 409H294L350 487Q332 551 332 664V706Q332 768 333.0 813.0Q334 858 334 896Q334 1038 222 1038ZM778 1043Q754 1035 734.0 1026.5Q714 1018 696 1008Q682 1022 662.5 1030.5Q643 1039 618 1039Q601 1039 568.5 1028.0Q536 1017 502.0 999.5Q468 982 444.5 960.5Q421 939 421 918Q421 892 421.5 871.5Q422 851 422 847Q422 788 452.5 763.5Q483 739 538 739Q566 739 598.0 743.0Q630 747 650 752Q651 724 651.5 698.5Q652 673 652 660Q652 649 646.0 644.0Q640 639 624 639Q585 639 558.0 645.0Q531 651 507 665H488L423 570L431 554H598Q618 554 643.5 569.5Q669 585 694.0 608.0Q719 631 735.0 655.0Q751 679 751 697Q751 730 749.0 775.0Q747 820 745.0 866.5Q743 913 743 951Q743 981 753.0 992.5Q763 1004 791 1015ZM520 918Q520 943 529.0 949.5Q538 956 551 956Q592 956 619.5 934.5Q647 913 647 867Q647 858 647.5 845.0Q648 832 648 816Q637 813 621.0 812.0Q605 811 592 811Q556 811 538.0 827.0Q520 843 520 883ZM909 487 843 416V406Q870 370 916 343L982 412L981 424Q961 438 943.5 455.0Q926 472 909 487ZM998 1050Q934 1026 899.5 1006.5Q865 987 865 971Q865 957 868.5 927.5Q872 898 872 870V727Q872 701 874.5 678.5Q877 656 883 639H850L797 571L804 554H932L990 632Q978 648 974.5 672.0Q971 696 971 733V881Q971 917 968.0 944.5Q965 972 965 986Q965 996 972.5 1001.5Q980 1007 1010 1023ZM1227 1048Q1163 1024 1128.5 1004.5Q1094 985 1094 969Q1094 955 1097.5 925.5Q1101 896 1101 868V740Q1101 720 1102.5 690.0Q1104 660 1109 639H1072L1020 570L1027 554H1121Q1125 554 1138.5 567.5Q1152 581 1166 598Q1185 572 1213.5 559.5Q1242 547 1269 547H1290Q1310 547 1334.5 563.0Q1359 579 1382.5 602.0Q1406 625 1421.0 647.5Q1436 670 1436 684Q1436 709 1434.0 746.0Q1432 783 1432 806V879Q1432 915 1429.0 942.5Q1426 970 1426 984Q1426 994 1433.5 999.5Q1441 1005 1471 1021L1459 1048Q1395 1024 1360.5 1004.5Q1326 985 1326 969Q1326 955 1329.5 925.5Q1333 896 1333 868V816Q1333 784 1335.0 743.0Q1337 702 1337 671Q1337 651 1332.0 644.0Q1327 637 1310 637Q1254 637 1227.0 665.5Q1200 694 1200 744V879Q1200 915 1197.0 942.5Q1194 970 1194 984Q1194 994 1201.5 999.5Q1209 1005 1239 1021ZM1598 487 1532 416V406Q1559 370 1605 343L1671 412L1670 424Q1650 438 1632.5 455.0Q1615 472 1598 487ZM1687 1050Q1623 1026 1588.5 1006.5Q1554 987 1554 971Q1554 957 1557.5 927.5Q1561 898 1561 870V727Q1561 701 1563.5 678.5Q1566 656 1572 639H1539L1486 571L1493 554H1621L1679 632Q1667 648 1663.5 672.0Q1660 696 1660 733V881Q1660 917 1657.0 944.5Q1654 972 1654 986Q1654 996 1661.5 1001.5Q1669 1007 1699 1023ZM2050 1059Q1984 1037 1950.0 1018.0Q1916 999 1916 987Q1916 976 1918.0 964.0Q1920 952 1922.0 929.0Q1924 906 1924 863V663Q1924 597 1929.5 555.5Q1935 514 1941 491H1907L1857 424L1865 408H1955Q1994 408 2027.0 406.5Q2060 405 2076 405Q2099 405 2130.0 421.5Q2161 438 2190.5 463.0Q2220 488 2240.0 514.5Q2260 541 2260 562V668Q2260 746 2232.0 784.5Q2204 823 2140 823Q2113 823 2083.0 818.0Q2053 813 2025 804V885Q2025 928 2022.5 953.5Q2020 979 2020 993Q2020 1010 2063 1030ZM2110 491Q2095 491 2078.5 492.0Q2062 493 2044 496Q2036 523 2030.5 563.0Q2025 603 2025 656V738Q2044 742 2069 742Q2121 742 2140.0 715.0Q2159 688 2159 630V541Q2159 514 2149.0 502.5Q2139 491 2110 491ZM2719 1045Q2696 1036 2677.0 1026.0Q2658 1016 2641 1004Q2620 1021 2591.0 1032.0Q2562 1043 2537 1043Q2519 1043 2488.0 1031.0Q2457 1019 2425.0 999.0Q2393 979 2371.0 955.5Q2349 932 2349 910Q2349 895 2351.5 861.5Q2354 828 2354 785V727Q2354 701 2356.5 678.5Q2359 656 2365 639H2332L2279 571L2286 554H2414L2472 632Q2460 648 2456.5 672.0Q2453 696 2453 733V792Q2453 858 2451.5 888.0Q2450 918 2450 930Q2450 958 2484 958Q2509 958 2532.5 948.5Q2556 939 2571.5 920.5Q2587 902 2587 876V727Q2587 701 2589.5 678.5Q2592 656 2598 639H2565L2512 571L2519 554H2647L2705 632Q2693 648 2689.5 672.0Q2686 696 2686 733V840Q2686 895 2684.0 923.0Q2682 951 2682 964Q2682 980 2693.5 992.5Q2705 1005 2732 1019ZM2966 1057Q2880 1029 2842.0 1008.5Q2804 988 2804 979Q2804 968 2807.5 941.0Q2811 914 2811 857V733Q2811 713 2813.0 685.5Q2815 658 2819 639H2782L2730 570L2737 554H2831Q2836 554 2850.5 569.0Q2865 584 2879 603Q2898 574 2928.5 562.5Q2959 551 2984 553L3034 619L3028 634Q2975 634 2942.5 667.5Q2910 701 2910 782V871Q2910 921 2907.5 948.5Q2905 976 2905 985Q2905 991 2909.0 995.5Q2913 1000 2928.5 1006.0Q2944 1012 2978 1026ZM3297 1050Q3286 1050 3265.5 1035.5Q3245 1021 3223.0 1000.0Q3201 979 3184.5 960.5Q3168 942 3166 933Q3144 844 3130.0 790.5Q3116 737 3109.5 707.5Q3103 678 3103 662Q3103 650 3106 639H3083L3034 570L3042 554H3169L3215 621V634Q3193 638 3185.0 651.0Q3177 664 3177 684Q3177 695 3182.0 719.5Q3187 744 3201.0 796.5Q3215 849 3242 943Q3256 907 3270.0 869.5Q3284 832 3303.0 777.5Q3322 723 3351 639H3307L3261 570L3268 554H3393L3454 638Q3412 763 3384.0 843.5Q3356 924 3339.0 969.0Q3322 1014 3312.5 1032.0Q3303 1050 3297 1050ZM3857 1043Q3833 1035 3813.0 1026.5Q3793 1018 3775 1008Q3761 1022 3741.5 1030.5Q3722 1039 3697 1039Q3680 1039 3647.5 1028.0Q3615 1017 3581.0 999.5Q3547 982 3523.5 960.5Q3500 939 3500 918Q3500 892 3500.5 871.5Q3501 851 3501 847Q3501 788 3531.5 763.5Q3562 739 3617 739Q3645 739 3677.0 743.0Q3709 747 3729 752Q3730 724 3730.5 698.5Q3731 673 3731 660Q3731 649 3725.0 644.0Q3719 639 3703 639Q3664 639 3637.0 645.0Q3610 651 3586 665H3567L3502 570L3510 554H3677Q3697 554 3722.5 569.5Q3748 585 3773.0 608.0Q3798 631 3814.0 655.0Q3830 679 3830 697Q3830 730 3828.0 775.0Q3826 820 3824.0 866.5Q3822 913 3822 951Q3822 981 3832.0 992.5Q3842 1004 3870 1015ZM3599 918Q3599 943 3608.0 949.5Q3617 956 3630 956Q3671 956 3698.5 934.5Q3726 913 3726 867Q3726 858 3726.5 845.0Q3727 832 3727 816Q3716 813 3700.0 812.0Q3684 811 3671 811Q3635 811 3617.0 827.0Q3599 843 3599 883Z" fill="currentColor" /></svg>