<svg viewBox="0 0 1726 1314" xmlns="http://www.w3.org/2000/svg"><path d="M222 1038Q181 1038 144.0 1024.5Q107 1011 78.5 990.0Q50 969 33.5 946.0Q17 923 17 904Q17 872 19.0 844.0Q21 816 27 782L126 800Q122 828 120.0 856.0Q118 884 118 919Q118 938 125.5 946.0Q133 954 151 954Q192 954 212.5 933.0Q233 912 233 847Q233 822 232.0 792.0Q231 762 231 712V659Q231 611 234.5 565.0Q238 519 246 492H179L128 426L135 409H294L350 487Q332 551 332 664V706Q332 768 333.0 813.0Q334 858 334 896Q334 1038 222 1038ZM778 1043Q754 1035 734.0 1026.5Q714 1018 696 1008Q682 1022 662.5 1030.5Q643 1039 618 1039Q601 1039 568.5 1028.0Q536 1017 502.0 999.5Q468 982 444.5 960.5Q421 939 421 918Q421 892 421.5 871.5Q422 851 422 847Q422 788 452.5 763.5Q483 739 538 739Q566 739 598.0 743.0Q630 747 650 752Q651 724 651.5 698.5Q652 673 652 660Q652 649 646.0 644.0Q640 639 624 639Q585 639 558.0 645.0Q531 651 507 665H488L423 570L431 554H598Q618 554 643.5 569.5Q669 585 694.0 608.0Q719 631 735.0 655.0Q751 679 751 697Q751 730 749.0 775.0Q747 820 745.0 866.5Q743 913 743 951Q743 981 753.0 992.5Q763 1004 791 1015ZM520 918Q520 943 529.0 949.5Q538 956 551 956Q592 956 619.5 934.5Q647 913 647 867Q647 858 647.5 845.0Q648 832 648 816Q637 813 621.0 812.0Q605 811 592 811Q556 811 538.0 827.0Q520 843 520 883ZM909 487 843 416V406Q870 370 916 343L982 412L981 424Q961 438 943.5 455.0Q926 472 909 487ZM998 1050Q934 1026 899.5 1006.5Q865 987 865 971Q865 957 868.5 927.5Q872 898 872 870V727Q872 701 874.5 678.5Q877 656 883 639H850L797 571L804 554H932L990 632Q978 648 974.5 672.0Q971 696 971 733V881Q971 917 968.0 944.5Q965 972 965 986Q965 996 972.5 1001.5Q980 1007 1010 1023ZM1227 1048Q1163 1024 1128.5 1004.5Q1094 985 1094 969Q1094 955 1097.5 925.5Q1101 896 1101 868V740Q1101 720 1102.5 690.0Q1104 660 1109 639H1072L1020 570L1027 554H1121Q1125 554 1138.5 567.5Q1152 581 1166 598Q1185 572 1213.5 559.5Q1242 547 1269 547H1290Q1310 547 1334.5 563.0Q1359 579 1382.5 602.0Q1406 625 1421.0 647.5Q1436 670 1436 684Q1436 709 1434.0 746.0Q1432 783 1432 806V879Q1432 915 1429.0 942.5Q1426 970 1426 984Q1426 994 1433.5 999.5Q1441 1005 1471 1021L1459 1048Q1395 1024 1360.5 1004.5Q1326 985 1326 969Q1326 955 1329.5 925.5Q1333 896 1333 868V816Q1333 784 1335.0 743.0Q1337 702 1337 671Q1337 651 1332.0 644.0Q1327 637 1310 637Q1254 637 1227.0 665.5Q1200 694 1200 744V879Q1200 915 1197.0 942.5Q1194 970 1194 984Q1194 994 1201.5 999.5Q1209 1005 1239 1021ZM1598 487 1532 416V406Q1559 370 1605 343L1671 412L1670 424Q1650 438 1632.5 455.0Q1615 472 1598 487ZM1687 1050Q1623 1026 1588.5 1006.5Q1554 987 1554 971Q1554 957 1557.5 927.5Q1561 898 1561 870V727Q1561 701 1563.5 678.5Q1566 656 1572 639H1539L1486 571L1493 554H1621L1679 632Q1667 648 1663.5 672.0Q1660 696 1660 733V881Q1660 917 1657.0 944.5Q1654 972 1654 986Q1654 996 1661.5 1001.5Q1669 1007 1699 1023Z" fill="currentColor" /></svg>