<svg viewBox="0 0 4350 900" xmlns="http://www.w3.org/2000/svg"><path d="M150 600H225V525H300V0H450V675H375V750H75V675H0V525H150ZM525 225H600V150H975V225H1050V525H675V600H1050V675H975V750H600V675H525ZM675 375H900V300H675ZM1425 300H1350V375H1275V750H1125V150H1275V225H1350V150H1500V225H1575V300H1500V375H1425ZM1725 675H1650V600H1950V525H1725V450H1650V225H1725V150H2025V225H2100V300H1800V375H2025V450H2100V675H2025V750H1725ZM2175 225H2250V150H2625V225H2700V525H2325V600H2700V675H2625V750H2250V675H2175ZM2325 375H2550V300H2325ZM2775 750H2850V675H2925V600H2850V525H2775V150H2925V450H3000V525H3075V150H3225V600H3150V675H3075V750H3000V825H2925V900H2775ZM3600 0H3825V750H3675V150H3600ZM3900 75H3975V0H4275V75H4350V675H4275V750H3975V675H3900ZM4200 150H4050V600H4200Z" fill="currentColor" /></svg>