<svg viewBox="0 0 3480 1245" xmlns="http://www.w3.org/2000/svg"><path d="M-20 785Q-20 777 -14.5 761.0Q-9 745 -1.5 729.0Q6 713 13.5 702.0Q21 691 25 694Q28 696 38.0 711.0Q48 726 61.5 746.5Q75 767 91.0 790.5Q107 814 121.5 833.0Q136 852 147.0 863.5Q158 875 163 872Q170 868 176.5 831.0Q183 794 188.0 740.0Q193 686 197.0 623.5Q201 561 204.0 505.5Q207 450 208.5 409.5Q210 369 211 359Q211 350 221.5 327.5Q232 305 246.0 283.0Q260 261 273.5 246.0Q287 231 294 236Q297 239 298.5 270.5Q300 302 301.0 352.0Q302 402 301.0 465.5Q300 529 298.5 595.0Q297 661 294.0 725.5Q291 790 287.5 841.5Q284 893 279.0 927.5Q274 962 268 969Q264 974 244.0 981.0Q224 988 200.5 993.5Q177 999 155.0 1002.0Q133 1005 124 1002Q104 996 79.5 964.5Q55 933 32.5 896.0Q10 859 -5.0 826.5Q-20 794 -20 785ZM586 441Q593 447 599.5 464.0Q606 481 611.0 505.0Q616 529 620.0 557.0Q624 585 627.0 612.0Q630 639 631.5 662.5Q633 686 634 701Q635 719 635.5 738.5Q636 758 635.5 775.5Q635 793 633.5 807.0Q632 821 629 828Q623 843 608.5 848.5Q594 854 576 856Q567 857 545.5 856.5Q524 856 499.5 854.5Q475 853 453.0 851.0Q431 849 420 847Q398 842 388.5 834.0Q379 826 370 811Q367 805 365.0 780.5Q363 756 362.5 721.5Q362 687 363.0 647.0Q364 607 366.5 571.0Q369 535 372.5 508.0Q376 481 382 472Q392 458 416.5 446.0Q441 434 461 427Q471 424 487.5 422.5Q504 421 522.5 422.5Q541 424 558.0 428.5Q575 433 586 441ZM530 751Q532 747 534.5 726.5Q537 706 538.5 677.0Q540 648 540.5 615.0Q541 582 541.0 554.0Q541 526 539.0 506.5Q537 487 534 484Q529 480 519.5 480.5Q510 481 500.0 483.5Q490 486 482.0 489.5Q474 493 471 496Q458 507 457 532Q457 539 455.5 571.5Q454 604 454.0 641.5Q454 679 455.5 711.0Q457 743 462 750Q467 757 476.5 760.5Q486 764 496.5 764.0Q507 764 516.5 760.5Q526 757 530 751ZM772 982Q765 984 756.0 977.0Q747 970 738.5 959.5Q730 949 724.0 937.0Q718 925 716 917Q709 829 704.5 759.5Q700 690 697.0 636.0Q694 582 692.5 542.5Q691 503 691 475Q690 410 693 385Q696 367 709.5 349.0Q723 331 738.5 318.0Q754 305 767.5 298.0Q781 291 785 294Q789 297 791.0 327.5Q793 358 794.0 407.0Q795 456 794.5 517.0Q794 578 792.5 642.0Q791 706 789.0 767.0Q787 828 784.0 875.5Q781 923 778.0 952.0Q775 981 772 982ZM952 982Q945 984 936.0 977.0Q927 970 918.5 959.5Q910 949 904.0 937.0Q898 925 896 917Q889 829 884.5 759.5Q880 690 877.0 636.0Q874 582 872.5 542.5Q871 503 871 475Q870 410 873 385Q876 367 889.5 349.0Q903 331 918.5 318.0Q934 305 947.5 298.0Q961 291 965 294Q969 297 971.0 327.5Q973 358 974.0 407.0Q975 456 974.5 517.0Q974 578 972.5 642.0Q971 706 969.0 767.0Q967 828 964.0 875.5Q961 923 958.0 952.0Q955 981 952 982ZM1278 428Q1281 430 1283.0 454.0Q1285 478 1286.5 516.5Q1288 555 1288.0 604.0Q1288 653 1288.0 705.0Q1288 757 1287.5 807.5Q1287 858 1285.5 899.5Q1284 941 1282.5 970.0Q1281 999 1279 1007Q1277 1013 1267.5 1025.5Q1258 1038 1245.0 1051.0Q1232 1064 1218.5 1074.5Q1205 1085 1196 1088Q1178 1094 1156.0 1086.0Q1134 1078 1114.5 1065.0Q1095 1052 1080.5 1037.5Q1066 1023 1063 1017Q1060 1011 1057.5 999.5Q1055 988 1054.0 976.5Q1053 965 1054.5 956.5Q1056 948 1061 948Q1065 948 1082.5 957.0Q1100 966 1120.0 975.5Q1140 985 1157.0 991.0Q1174 997 1178 990Q1182 982 1186.0 946.5Q1190 911 1194 860Q1159 872 1130.5 875.5Q1102 879 1083 866Q1074 860 1064.5 845.0Q1055 830 1047.5 810.5Q1040 791 1035.0 768.5Q1030 746 1030 726Q1030 712 1033.5 686.0Q1037 660 1043.0 629.0Q1049 598 1055.5 565.0Q1062 532 1068.5 505.0Q1075 478 1079.5 459.5Q1084 441 1085 439Q1087 436 1095.0 435.5Q1103 435 1112.0 436.5Q1121 438 1129.0 442.0Q1137 446 1139 451Q1140 455 1139.5 476.0Q1139 497 1136.5 526.0Q1134 555 1131.5 588.5Q1129 622 1126.5 651.5Q1124 681 1122.0 702.0Q1120 723 1120 727Q1120 743 1123.5 757.5Q1127 772 1132.5 782.5Q1138 793 1144.0 799.0Q1150 805 1155 803Q1172 800 1186 795Q1193 792 1199 789Q1202 740 1205.0 688.5Q1208 637 1210.0 594.0Q1212 551 1213.5 521.0Q1215 491 1215 483Q1215 474 1223.0 462.5Q1231 451 1241.0 442.0Q1251 433 1261.5 428.5Q1272 424 1278 428ZM1562 1019Q1560 1014 1560.0 983.0Q1560 952 1560.5 905.0Q1561 858 1562.5 799.5Q1564 741 1565.5 680.5Q1567 620 1569.0 562.5Q1571 505 1572.5 460.0Q1574 415 1575.0 386.5Q1576 358 1577 356Q1578 352 1586.0 336.0Q1594 320 1604.5 302.5Q1615 285 1626.0 271.5Q1637 258 1645 259Q1648 260 1650.5 298.5Q1653 337 1655.5 397.0Q1658 457 1659.5 529.5Q1661 602 1662.5 670.5Q1664 739 1665.0 794.5Q1666 850 1667 876Q1699 879 1731.5 881.0Q1764 883 1790.0 885.5Q1816 888 1832.5 890.0Q1849 892 1850 893Q1853 897 1858.5 911.5Q1864 926 1869.0 942.5Q1874 959 1876.5 973.0Q1879 987 1875 990Q1760 1011 1697.0 1018.0Q1634 1025 1604 1025Q1569 1025 1562 1019ZM2091 441Q2098 447 2104.5 464.0Q2111 481 2116.0 505.0Q2121 529 2125.0 557.0Q2129 585 2132.0 612.0Q2135 639 2136.5 662.5Q2138 686 2139 701Q2140 719 2140.5 738.5Q2141 758 2140.5 775.5Q2140 793 2138.5 807.0Q2137 821 2134 828Q2128 843 2113.5 848.5Q2099 854 2081 856Q2072 857 2050.5 856.5Q2029 856 2004.5 854.5Q1980 853 1958.0 851.0Q1936 849 1925 847Q1903 842 1893.5 834.0Q1884 826 1875 811Q1872 805 1870.0 780.5Q1868 756 1867.5 721.5Q1867 687 1868.0 647.0Q1869 607 1871.5 571.0Q1874 535 1877.5 508.0Q1881 481 1887 472Q1897 458 1921.5 446.0Q1946 434 1966 427Q1976 424 1992.5 422.5Q2009 421 2027.5 422.5Q2046 424 2063.0 428.5Q2080 433 2091 441ZM2035 751Q2037 747 2039.5 726.5Q2042 706 2043.5 677.0Q2045 648 2045.5 615.0Q2046 582 2046.0 554.0Q2046 526 2044.0 506.5Q2042 487 2039 484Q2034 480 2024.5 480.5Q2015 481 2005.0 483.5Q1995 486 1987.0 489.5Q1979 493 1976 496Q1963 507 1962 532Q1962 539 1960.5 571.5Q1959 604 1959.0 641.5Q1959 679 1960.5 711.0Q1962 743 1967 750Q1972 757 1981.5 760.5Q1991 764 2001.5 764.0Q2012 764 2021.5 760.5Q2031 757 2035 751ZM2473 326Q2476 350 2475 422Q2475 453 2473.5 497.0Q2472 541 2469.0 602.5Q2466 664 2461.5 744.5Q2457 825 2450 927Q2448 937 2441.5 949.0Q2435 961 2427.0 971.0Q2419 981 2410.0 987.5Q2401 994 2394 992Q2392 991 2389.5 976.0Q2387 961 2385 934Q2340 954 2300.0 961.0Q2260 968 2235 952Q2225 946 2215.5 930.5Q2206 915 2198.0 894.0Q2190 873 2185.0 849.5Q2180 826 2180 805Q2180 790 2182.0 765.0Q2184 740 2187.0 710.5Q2190 681 2194.0 650.5Q2198 620 2202.0 594.0Q2206 568 2209.0 550.0Q2212 532 2214 528Q2216 516 2221.5 508.0Q2227 500 2231 496Q2241 488 2260.5 484.0Q2280 480 2301.5 479.0Q2323 478 2342.0 479.5Q2361 481 2370 484H2372Q2370 360 2372.0 293.0Q2374 226 2380 221Q2384 218 2398.0 226.0Q2412 234 2427.5 249.0Q2443 264 2456.5 284.5Q2470 305 2473 326ZM2321 886Q2335 883 2346.5 878.5Q2358 874 2366 870Q2375 866 2381 860Q2380 834 2379.0 801.5Q2378 769 2377.0 734.0Q2376 699 2375.0 662.5Q2374 626 2373 592Q2373 581 2369.5 573.0Q2366 565 2361 560Q2358 558 2349.0 554.5Q2340 551 2328.5 548.5Q2317 546 2306.5 546.0Q2296 546 2292 550Q2290 551 2288.5 569.5Q2287 588 2285.5 615.5Q2284 643 2282.5 675.0Q2281 707 2280.0 735.0Q2279 763 2278.0 783.0Q2277 803 2277 805Q2277 822 2281.5 837.0Q2286 852 2293.0 863.5Q2300 875 2308.0 881.5Q2316 888 2321 886ZM2782 1020Q2780 1026 2770.0 1039.0Q2760 1052 2746.0 1066.0Q2732 1080 2718.0 1091.0Q2704 1102 2695 1105Q2675 1111 2652.5 1102.5Q2630 1094 2609.5 1080.0Q2589 1066 2574.0 1051.5Q2559 1037 2555 1030Q2552 1023 2549.5 1011.0Q2547 999 2546.0 987.0Q2545 975 2546.5 966.5Q2548 958 2553 958Q2558 958 2576.5 967.5Q2595 977 2615.5 987.0Q2636 997 2654.0 1003.0Q2672 1009 2676 1001Q2680 994 2683.5 961.5Q2687 929 2692 882Q2690 882 2688.5 882.5Q2687 883 2685 883Q2676 886 2660.0 886.0Q2644 886 2626.5 884.0Q2609 882 2592.5 876.5Q2576 871 2566 862Q2562 858 2557.5 849.5Q2553 841 2551 827Q2548 821 2541.0 792.5Q2534 764 2527.0 727.5Q2520 691 2514.5 654.0Q2509 617 2511 595Q2512 573 2519.0 549.5Q2526 526 2535.5 505.0Q2545 484 2556.0 468.5Q2567 453 2578 447Q2602 435 2638.0 442.0Q2674 449 2715 469Q2716 459 2724.0 447.0Q2732 435 2742.5 425.5Q2753 416 2764.0 411.5Q2775 407 2781 411Q2784 413 2786.0 438.5Q2788 464 2789.5 504.5Q2791 545 2791.5 596.5Q2792 648 2791.5 702.5Q2791 757 2790.5 810.0Q2790 863 2788.5 907.0Q2787 951 2785.5 981.0Q2784 1011 2782 1020ZM2712 545Q2706 541 2698 537Q2691 533 2682.0 529.0Q2673 525 2662 522Q2657 520 2648.5 526.0Q2640 532 2631.5 543.0Q2623 554 2617.0 569.5Q2611 585 2611 602Q2611 604 2612.0 621.0Q2613 638 2615.0 662.0Q2617 686 2619.0 714.0Q2621 742 2623.5 766.0Q2626 790 2628.0 806.5Q2630 823 2631 824Q2635 828 2642.5 828.0Q2650 828 2657.5 826.0Q2665 824 2671.0 821.0Q2677 818 2680 816Q2693 807 2696 781Q2698 779 2698 770Q2701 704 2704.0 650.5Q2707 597 2712 545ZM2927 699Q2943 693 2963.5 685.5Q2984 678 3003.0 671.5Q3022 665 3037.0 660.0Q3052 655 3059 652Q3058 641 3056.5 626.5Q3055 612 3053.0 598.5Q3051 585 3048.0 575.0Q3045 565 3042 563Q3034 560 3015.5 557.5Q2997 555 2977.5 559.0Q2958 563 2942.0 574.0Q2926 585 2924 609Q2922 625 2923.0 649.0Q2924 673 2927 699ZM3144 715Q3143 717 3120.0 723.0Q3097 729 3065.0 735.5Q3033 742 2997.0 748.5Q2961 755 2935 759Q2940 799 2947.0 830.5Q2954 862 2959 870Q2964 877 2972 883Q2979 888 2989.5 892.5Q3000 897 3015 899Q3026 902 3036 891Q3044 881 3050.5 856.0Q3057 831 3057 777Q3088 772 3105.5 771.0Q3123 770 3131 771Q3141 772 3143 774Q3144 777 3143.0 789.0Q3142 801 3138.5 818.5Q3135 836 3130.5 856.5Q3126 877 3120.0 895.5Q3114 914 3107.0 928.5Q3100 943 3092 949Q3068 967 3032.0 966.5Q2996 966 2961.0 956.5Q2926 947 2898.0 933.5Q2870 920 2863 911Q2858 905 2854.0 880.5Q2850 856 2847.5 821.0Q2845 786 2844.0 744.0Q2843 702 2845.5 662.0Q2848 622 2853.5 588.0Q2859 554 2869 533Q2884 503 2918.0 484.0Q2952 465 2990.0 458.0Q3028 451 3062.5 456.0Q3097 461 3114 478Q3124 488 3132.0 517.5Q3140 547 3142 589Q3142 593 3143.0 612.0Q3144 631 3144.5 652.5Q3145 674 3145.0 693.0Q3145 712 3144 715ZM3426 443Q3434 448 3441.5 462.5Q3449 477 3455.5 495.5Q3462 514 3466.5 535.0Q3471 556 3474.5 574.0Q3478 592 3479.0 604.5Q3480 617 3479 620Q3477 624 3467 628Q3458 632 3440.0 637.0Q3422 642 3390 648Q3388 593 3382.0 564.5Q3376 536 3369 524Q3361 510 3352 510Q3343 514 3336.0 519.5Q3329 525 3324 531Q3318 538 3313 546Q3311 549 3309.0 560.0Q3307 571 3305 593Q3305 600 3304.5 622.0Q3304 644 3303.5 673.0Q3303 702 3302.5 734.0Q3302 766 3301.5 793.5Q3301 821 3300.5 840.0Q3300 859 3299 862Q3297 867 3289.0 876.0Q3281 885 3271.0 892.5Q3261 900 3252.0 904.5Q3243 909 3240 904Q3237 901 3234.0 878.0Q3231 855 3227.5 821.5Q3224 788 3220.0 748.0Q3216 708 3213.0 671.0Q3210 634 3208.0 604.5Q3206 575 3205 562Q3204 543 3203.0 520.0Q3202 497 3201.5 476.5Q3201 456 3201.5 440.5Q3202 425 3205 422Q3207 419 3218.5 420.5Q3230 422 3243.5 426.5Q3257 431 3269.0 438.0Q3281 445 3285 451Q3288 456 3291 466Q3310 456 3327.5 447.5Q3345 439 3361.5 435.0Q3378 431 3394.0 432.5Q3410 434 3426 443Z" fill="currentColor" /></svg>