<svg viewBox="0 0 4774 899" xmlns="http://www.w3.org/2000/svg"><path d="M190 664Q190 739 164.5 791.0Q139 843 95.5 870.0Q52 897 0 899V881Q73 877 122.0 819.5Q171 762 171 661V55H190ZM363 567Q363 513 389.5 468.0Q416 423 460.5 396.5Q505 370 560 370Q615 370 660.0 396.5Q705 423 731.5 468.0Q758 513 758 567Q758 622 731.5 666.5Q705 711 660.0 737.0Q615 763 560 763Q505 763 460.5 737.5Q416 712 389.5 668.0Q363 624 363 567ZM383 567Q383 617 406.5 657.5Q430 698 470.5 722.0Q511 746 560 746Q609 746 649.0 722.0Q689 698 713.0 657.5Q737 617 737 567Q737 518 713.0 477.5Q689 437 649.0 412.5Q609 388 560 388Q509 388 469.0 414.0Q429 440 406.0 481.0Q383 522 383 567ZM983 765Q955 765 921.5 754.5Q888 744 866 717L878 705Q893 724 921.0 736.0Q949 748 983 748Q1007 748 1029.5 740.0Q1052 732 1067.0 712.5Q1082 693 1082 660Q1082 630 1066.0 612.5Q1050 595 1025.5 585.5Q1001 576 974 567Q937 554 909.0 534.0Q881 514 881 470Q881 438 895.5 417.0Q910 396 934.0 385.0Q958 374 984 374Q1007 374 1036.0 384.0Q1065 394 1087 418L1076 431Q1059 410 1032.0 401.0Q1005 392 985 392Q967 392 947.5 399.5Q928 407 914.0 424.0Q900 441 900 468Q900 492 912.0 507.5Q924 523 943.5 532.5Q963 542 985 550Q1012 560 1039.0 571.0Q1066 582 1083.5 601.5Q1101 621 1101 655Q1101 688 1087.5 712.5Q1074 737 1048.0 751.0Q1022 765 983 765ZM1407 763Q1352 763 1307.5 737.0Q1263 711 1236.5 666.5Q1210 622 1210 567Q1210 513 1236.5 468.0Q1263 423 1307.5 396.5Q1352 370 1407 370Q1470 370 1513.5 406.5Q1557 443 1579 498L1236 637L1230 620L1562 486L1557 496Q1536 452 1497.5 420.0Q1459 388 1406 388Q1357 388 1317.0 412.0Q1277 436 1253.5 477.0Q1230 518 1230 567Q1230 613 1252.0 654.0Q1274 695 1313.5 720.5Q1353 746 1407 746Q1442 746 1473.5 733.0Q1505 720 1529 698L1542 712Q1515 735 1480.5 749.0Q1446 763 1407 763ZM1738 757V400H1673V382H1738V172Q1738 75 1765.5 37.5Q1793 0 1848 0Q1858 0 1868.0 2.0Q1878 4 1888 8L1879 22Q1874 19 1866.5 17.0Q1859 15 1849 15Q1802 15 1780.0 48.5Q1758 82 1758 168V382H1887V400H1758V757ZM2004 379H2023V757H2004ZM1992 260Q1992 251 1998.5 244.5Q2005 238 2014 238Q2023 238 2030.0 244.5Q2037 251 2037 260Q2037 269 2030.0 275.5Q2023 282 2014 282Q2005 282 1998.5 275.5Q1992 269 1992 260ZM2226 379 2230 501 2227 487Q2243 433 2289.5 402.5Q2336 372 2393 372Q2446 372 2477.5 403.5Q2509 435 2510 484V757H2490V486Q2489 446 2463.5 418.5Q2438 391 2391 389Q2349 389 2312.5 407.5Q2276 426 2253.5 459.5Q2231 493 2231 538V757H2211V379ZM3352 105Q3324 93 3279.0 80.5Q3234 68 3187 68Q3110 68 3063.5 107.5Q3017 147 3017 205Q3017 249 3042.5 277.5Q3068 306 3108.5 325.5Q3149 345 3196 363Q3232 376 3267.0 392.0Q3302 408 3331.0 430.5Q3360 453 3377.0 486.5Q3394 520 3394 568Q3394 629 3366.0 673.0Q3338 717 3290.0 741.0Q3242 765 3182 765Q3125 765 3081.0 750.5Q3037 736 3008.0 719.0Q2979 702 2966 694L2976 676Q2997 691 3029.0 707.5Q3061 724 3099.5 735.5Q3138 747 3178 747Q3227 747 3272.0 727.5Q3317 708 3345.5 668.5Q3374 629 3374 569Q3374 510 3346.0 474.5Q3318 439 3274.5 417.5Q3231 396 3183 378Q3148 366 3115.0 351.5Q3082 337 3055.5 318.0Q3029 299 3013.0 272.0Q2997 245 2997 208Q2997 161 3022.0 126.0Q3047 91 3089.5 71.0Q3132 51 3185 51Q3223 51 3273.5 62.0Q3324 73 3360 90ZM3705 763Q3651 763 3607.0 737.0Q3563 711 3536.5 667.0Q3510 623 3510 568Q3510 505 3537.0 461.0Q3564 417 3608.5 394.0Q3653 371 3708 371Q3767 371 3815.5 404.5Q3864 438 3886 491L3884 504L3889 379H3904V757H3885V628L3888 642Q3878 668 3860.0 690.0Q3842 712 3818.0 728.5Q3794 745 3765.5 754.0Q3737 763 3705 763ZM3707 746Q3756 746 3796.0 724.0Q3836 702 3860.0 663.5Q3884 625 3885 576V535Q3877 494 3851.5 461.0Q3826 428 3788.5 408.0Q3751 388 3707 388Q3658 388 3617.5 410.0Q3577 432 3553.5 472.5Q3530 513 3530 567Q3530 617 3554.0 657.5Q3578 698 3618.0 722.0Q3658 746 3707 746ZM4107 379 4111 501 4108 487Q4124 433 4170.5 402.5Q4217 372 4274 372Q4327 372 4358.5 403.5Q4390 435 4391 484V757H4371V486Q4370 446 4344.5 418.5Q4319 391 4272 389Q4230 389 4193.5 407.5Q4157 426 4134.5 459.5Q4112 493 4112 538V757H4092V379ZM4656 765Q4628 765 4594.5 754.5Q4561 744 4539 717L4551 705Q4566 724 4594.0 736.0Q4622 748 4656 748Q4680 748 4702.5 740.0Q4725 732 4740.0 712.5Q4755 693 4755 660Q4755 630 4739.0 612.5Q4723 595 4698.5 585.5Q4674 576 4647 567Q4610 554 4582.0 534.0Q4554 514 4554 470Q4554 438 4568.5 417.0Q4583 396 4607.0 385.0Q4631 374 4657 374Q4680 374 4709.0 384.0Q4738 394 4760 418L4749 431Q4732 410 4705.0 401.0Q4678 392 4658 392Q4640 392 4620.5 399.5Q4601 407 4587.0 424.0Q4573 441 4573 468Q4573 492 4585.0 507.5Q4597 523 4616.5 532.5Q4636 542 4658 550Q4685 560 4712.0 571.0Q4739 582 4756.5 601.5Q4774 621 4774 655Q4774 688 4760.5 712.5Q4747 737 4721.0 751.0Q4695 765 4656 765Z" /></svg>