<svg viewBox="0 0 3780 774" xmlns="http://www.w3.org/2000/svg"><path d="M127 774Q96 774 63.5 765.0Q31 756 0 740L18 686Q37 692 54.0 696.0Q71 700 87 700Q128 700 143.5 673.0Q159 646 159 610Q159 608 158.5 601.0Q158 594 156.0 570.0Q154 546 149.5 492.0Q145 438 137.0 343.5Q129 249 116 100L354 85L298 609Q291 674 266.5 710.0Q242 746 205.5 760.0Q169 774 127 774ZM695 774Q624 774 574.5 757.5Q525 741 494 716Q486 676 482.5 638.5Q479 601 479 566Q479 496 499.5 436.0Q520 376 550.5 329.5Q581 283 613.0 252.5Q645 222 667 211Q712 234 756.0 267.0Q800 300 836.5 344.0Q873 388 895.0 443.0Q917 498 917 566Q917 635 898.0 681.0Q879 727 831.0 750.5Q783 774 695 774ZM641 687Q679 687 717.5 681.5Q756 676 785 666Q793 634 797.0 602.0Q801 570 801 539Q801 444 761 365Q705 394 662.0 445.5Q619 497 594.5 558.5Q570 620 570 681Q602 687 641 687ZM1118 765 1075 361 983 374 977 271 1065 267 1050 127 1299 94 1279 256 1378 251 1375 318 1269 333 1217 756ZM1565 186Q1527 186 1499.5 158.5Q1472 131 1472 93Q1472 55 1499.5 27.5Q1527 0 1565 0Q1603 0 1630.5 27.5Q1658 55 1658 93Q1658 131 1630.5 158.5Q1603 186 1565 186ZM1519 765 1468 270 1682 237 1618 756ZM2352 774Q2273 774 2218.0 755.5Q2163 737 2129 709Q2120 665 2116.0 623.5Q2112 582 2112 543Q2112 454 2130.0 377.0Q2148 300 2178.5 237.5Q2209 175 2246.0 130.0Q2283 85 2320 60Q2395 91 2456.5 160.0Q2518 229 2554.5 326.5Q2591 424 2591 543Q2591 619 2572.0 670.5Q2553 722 2501.5 748.0Q2450 774 2352 774ZM2294 677Q2336 677 2378.0 671.0Q2420 665 2452 654Q2463 608 2466.5 573.0Q2470 538 2470 498Q2470 419 2457.0 353.0Q2444 287 2419 234Q2354 294 2308.0 366.5Q2262 439 2237.5 517.0Q2213 595 2213 670Q2231 674 2251.5 675.5Q2272 677 2294 677ZM2757 765 2706 269 2920 236 2898 412H2907Q2946 327 2997.0 277.0Q3048 227 3104 227Q3123 227 3141 233Q3164 261 3180.0 309.5Q3196 358 3206.0 417.0Q3216 476 3221.0 537.5Q3226 599 3228.0 654.5Q3230 710 3230 750L3050 765Q3050 668 3048.0 597.0Q3046 526 3042.5 466.5Q3039 407 3033 346Q3014 353 2989.5 372.0Q2965 391 2940.0 434.0Q2915 477 2893.0 554.5Q2871 632 2856 756ZM3605 774Q3527 774 3467.0 760.0Q3407 746 3367 715Q3358 675 3354.5 642.5Q3351 610 3351 581Q3351 492 3378.5 418.0Q3406 344 3449.0 290.5Q3492 237 3538 211Q3579 227 3621.5 249.5Q3664 272 3700.0 302.0Q3736 332 3758.0 369.5Q3780 407 3780 452Q3780 499 3763.5 530.5Q3747 562 3704.0 578.0Q3661 594 3580 594Q3546 594 3514.5 591.0Q3483 588 3460 583Q3441 630 3441 681Q3464 684 3491.0 685.5Q3518 687 3543 687Q3590 687 3639.5 679.5Q3689 672 3739 654L3769 751Q3729 764 3687.0 769.0Q3645 774 3605 774ZM3522 537Q3560 537 3598.5 533.0Q3637 529 3666 523Q3669 503 3669 485Q3669 449 3659.5 420.5Q3650 392 3636 370Q3580 407 3543.5 448.0Q3507 489 3480 536Q3490 537 3501.0 537.0Q3512 537 3522 537Z" /></svg>