<svg viewBox="0 0 10344 3732" xmlns="http://www.w3.org/2000/svg"><path d="M223 1631V732H250H277V1604V2477H395H512V2504V2531H368H223ZM1519 735Q1524 732 1528 732Q1542 732 1548 749Q1548 752 1270 2234Q991 3717 989 3720Q988 3725 983 3728Q978 3732 966 3732Q953 3732 953 3731L844 3103Q735 2476 735.0 2473.0Q735 2470 716 2509Q711 2519 704 2533L673 2596Q672 2598 655 2581L639 2564L720 2399L801 2234L903 2817Q1003 3400 1005 3409L1007 3419L1258 2084Q1507 753 1511 743Q1513 737 1519 735ZM2250 773 2342 774Q2489 789 2612 855Q2723 914 2805 1007Q2902 1114 2948 1257Q3013 1455 2957 1656Q2953 1671 2948 1686Q2914 1794 2846 1886Q2730 2046 2544 2122Q2445 2160 2341 2170Q2292 2174 2231 2170Q2228 2170 2225 2170Q2078 2155 1954 2089Q1843 2030 1761 1937Q1664 1829 1618 1686Q1553 1489 1609 1287Q1613 1272 1618 1257Q1664 1114 1761 1007Q1812 950 1863 913Q1983 821 2132 789Q2188 776 2250 773ZM2229 1150V883H2224Q2221 883 2209 885Q2053 906 1929 998Q1773 1116 1717 1304Q1711 1324 1706 1344Q1695 1392 1695 1415V1418H1962H2229ZM2370 886Q2348 884 2345 883H2337V1150V1418H2604H2871V1415Q2871 1401 2865 1369Q2851 1288 2812 1208Q2727 1038 2559 948Q2470 901 2370 886ZM2229 1794V1526H1962H1695V1529Q1695 1543 1701 1575Q1715 1657 1754 1735Q1839 1906 2007 1996Q2096 2043 2196 2058Q2219 2060 2221 2061H2229ZM2871 1529V1526H2604H2337V1794V2061H2345Q2415 2054 2487 2027Q2672 1959 2779 1794Q2837 1705 2860 1600Q2871 1552 2871 1529ZM3095 799V772H3348H3601V799V826H3596Q3574 826 3544 829Q3494 837 3467 859Q3449 874 3440 902L3438 910L3437 1514V2118H3677H3918V1516Q3918 920 3916 906Q3908 874 3885 857Q3873 847 3849 838Q3822 829 3774 826H3754V799V772H4007H4260V799V826H4255Q4233 826 4203 829Q4153 837 4126 859Q4108 874 4099 902L4097 910V1471Q4097 2031 4098 2038Q4106 2070 4129 2087Q4141 2097 4165 2106Q4192 2115 4240 2118H4260V2145V2172H3678H3095V2145V2118H3105Q3160 2118 3198 2103Q3242 2085 3256 2042L3259 2033V1472V910L3256 902Q3242 859 3198 841Q3160 826 3105 826H3095ZM5030 754Q5047 746 5055 761L5059 765V1661V2558L5055 2562Q5050 2571 5031 2572Q5020 2572 5020 2571Q4548 1146 4548 1145L4505 1234Q4461 1322 4461 1323L4444 1307L4428 1290L4510 1121L4592 951L4806 1597L5019 2243V1504L5020 765L5023 761Q5025 758 5030 754ZM5595 1631V732H5712H5829V759V786H5739H5649V1631V2477H5739H5829V2504V2531H5712H5595ZM6089 84 6342 0 6849 167 6835 215Q6833 215 6589 150L6343 84L6096 150Q5852 215 5850 215L5836 167ZM6858 759V732H7003H7147V1631V2531H7120H7093V1658V786H6976H6858ZM7527 52Q7553 48 7586 54Q7612 60 7658 77Q7731 104 7764 104Q7768 104 7773 104Q7799 103 7822 95Q7857 82 7887 57Q7896 50 7897 51Q7897 52 7910.0 67.0Q7923 82 7924 84Q7926 86 7908 102Q7905 104 7899 109Q7860 142 7846 151Q7790 188 7730 182Q7699 178 7640 156Q7566 129 7532 129Q7529 129 7524 129Q7498 130 7476 138Q7440 151 7410 176Q7401 183 7400 182Q7400 181 7387.0 166.0Q7374 151 7373 149Q7371 147 7389 131Q7392 129 7398 124Q7437 91 7451 82Q7488 57 7527 52ZM8251 786 8260 772 8270 786Q8347 899 8477 947L8482 949V973Q8482 997 8480 997L8474 994Q8373 959 8293 882L8282 872V1122V1372H8261H8239V1122V872L8228 882Q8149 958 8048 994Q8042 996 8041 997Q8039 997 8039 973V949L8044 947Q8056 943 8084 931Q8187 880 8251 786ZM8630 734H8667H8668Q8676 742 8683 751Q9047 1193 9141 1912Q9173 2159 9177 2470Q9177 2537 9171 2541H9048H9047Q9041 2539 9041 2522Q9041 2515 9041 2496Q9041 2351 9035 2228Q9010 1574 8835 1136Q8825 1113 8815 1089Q8743 922 8645 775Q8626 746 8626 745Q8622 738 8630 734ZM10269 734Q10270 733 10288 733H10306L10309 736Q10314 741 10306 754Q10302 759 10293 773Q10225 875 10171 983Q9953 1418 9910 2076Q9896 2270 9896 2496Q9896 2538 9890 2541Q9881 2545 9773 2541Q9767 2541 9766 2541Q9761 2538 9760 2518Q9760 2507 9760 2470Q9763 2231 9784 2016Q9864 1224 10254 751Q10261 742 10269 734Z" fill="currentColor" /></svg>