<svg viewBox="0 0 1575.4518518518519 724.1538461538462" xmlns="http://www.w3.org/2000/svg"><path d="M567.6 28Q577.6 41 577.6 54Q578.6 60 578.1 69.0Q577.6 78 576.6 83Q573.6 93 562.6 103Q559.6 106 555.6 108.5Q551.6 111 545.6 113Q539.6 115 533.6 115.5Q527.6 116 520.6 117Q513.6 118 507.6 118.5Q501.6 119 494.6 119H437.6V136Q436.6 226 441.1 316.0Q445.6 406 439.6 496Q436.6 526 430.6 557.5Q424.6 589 411.1 616.5Q397.6 644 375.6 667.0Q353.6 690 319.6 703Q287.6 715 249.60000000000002 720.0Q211.6 725 173.1 721.0Q134.6 717 99.6 704.0Q64.6 691 40.6 668Q27.6 656 16.6 638.5Q5.6 621 1.5999999999999996 601.5Q-2.4000000000000004 582 3.5999999999999996 563.5Q9.6 545 31.6 533Q50.6 522 66.1 528.0Q81.6 534 96.1 547.0Q110.6 560 126.1 574.0Q141.6 588 160.6 592Q201.6 602 227.6 592.5Q253.6 583 268.6 562.0Q283.6 541 290.1 511.0Q296.6 481 298.1 450.0Q299.6 419 298.6 390.0Q297.6 361 298.6 341Q299.6 288 298.6 237.0Q297.6 186 297.6 133V129Q298.6 127 298.6 123H295.6Q289.6 122 270.6 121.5Q251.6 121 229.6 121.0Q207.6 121 188.1 120.5Q168.6 120 162.6 120H148.6V119Q140.6 118 132.6 116.0Q124.6 114 116.6 112Q97.6 106 87.6 93Q82.6 88 80.1 77.0Q77.6 66 77.6 58Q77.6 53 77.6 47.0Q77.6 41 79.6 36Q81.6 25 93.6 16Q101.6 10 112.6 7Q119.6 5 126.6 4.0Q133.6 3 141.6 2Q148.6 1 155.6 1.0Q162.6 1 170.6 1H266.6Q272.6 1 280.6 1.0Q288.6 1 298.6 0Q337.6 0 375.6 0.0Q413.6 0 449.6 1H455.6Q466.6 1 477.1 1.5Q487.6 2 498.6 2Q521.6 3 541.6 11Q557.6 15 567.6 28ZM999.6 473Q997.6 506 995.6 539.5Q993.6 573 985.1 604.0Q976.6 635 959.1 660.0Q941.6 685 909.6 700Q881.6 714 849.6 719.5Q817.6 725 785.6 724.0Q753.6 723 723.6 714.5Q693.6 706 669.6 691Q645.6 676 630.6 652.0Q615.6 628 607.1 600.0Q598.6 572 595.6 542.0Q592.6 512 591.6 486Q587.6 417 591.6 350Q591.6 337 591.6 320.5Q591.6 304 594.1 288.0Q596.6 272 602.6 258.5Q608.6 245 622.6 238Q652.6 222 678.1 236.0Q703.6 250 708.6 294Q711.6 317 711.1 345.0Q710.6 373 712.6 396Q713.6 430 714.6 469.5Q715.6 509 726.1 540.0Q736.6 571 761.1 586.5Q785.6 602 834.6 588Q857.6 581 865.1 553.0Q872.6 525 872.6 470Q872.6 446 871.6 417.0Q870.6 388 870.6 359.5Q870.6 331 872.1 306.5Q873.6 282 877.6 269Q882.6 251 898.6 242.0Q914.6 233 932.6 232.5Q950.6 232 966.6 240.0Q982.6 248 988.6 266Q994.6 282 997.1 306.5Q999.6 331 1000.6 359.5Q1001.6 388 1001.1 417.5Q1000.6 447 999.6 473ZM1198.6 290Q1228.6 275 1261.6 268.5Q1294.6 262 1327.1 265.5Q1359.6 269 1389.6 282.5Q1419.6 296 1445.6 321Q1471.6 347 1485.6 378.0Q1499.6 409 1505.6 447Q1509.6 473 1518.6 495.0Q1527.6 517 1538.1 539.0Q1548.6 561 1558.1 583.0Q1567.6 605 1573.6 629Q1578.6 652 1570.1 673.5Q1561.6 695 1535.6 700Q1520.6 703 1507.1 697.5Q1493.6 692 1482.6 681.5Q1471.6 671 1463.1 658.5Q1454.6 646 1447.6 635Q1424.6 665 1397.6 681.5Q1370.6 698 1332.6 703Q1300.6 707 1271.6 705.0Q1242.6 703 1209.6 694Q1166.6 683 1139.1 655.5Q1111.6 628 1097.1 591.5Q1082.6 555 1081.6 513.0Q1080.6 471 1091.6 430Q1105.6 376 1133.6 342.0Q1161.6 308 1198.6 290ZM1223.6 407Q1209.6 421 1201.6 440.0Q1193.6 459 1192.1 480.0Q1190.6 501 1195.6 522.0Q1200.6 543 1211.6 559Q1221.6 573 1245.6 582.5Q1269.6 592 1295.6 594Q1325.6 596 1348.1 578.0Q1370.6 560 1382.1 532.5Q1393.6 505 1392.6 473.5Q1391.6 442 1375.6 416Q1363.6 397 1344.1 388.0Q1324.6 379 1302.6 378.5Q1280.6 378 1259.1 385.5Q1237.6 393 1223.6 407Z" fill="currentColor" /></svg>