<svg viewBox="0 0 5500 2489" xmlns="http://www.w3.org/2000/svg"><path d="M553 566V1512Q553 1588 537.0 1656.5Q521 1725 499.0 1769.5Q477 1814 450.0 1851.0Q423 1888 405.5 1904.5Q388 1921 377 1928Q349 1942 281 1942Q150 1942 31 1876Q68 1808 156 1747L170 1758Q236 1866 326 1866Q344 1866 357.0 1856.5Q370 1847 379.5 1820.5Q389 1794 394.5 1756.5Q400 1719 404.0 1654.5Q408 1590 409.0 1512.5Q410 1435 410 1321V750Q410 618 381.0 568.5Q352 519 262 519H233L229 500Q394 451 532 451Q553 504 553 566ZM1745 1622Q1745 1689 1751.5 1733.5Q1758 1778 1774.5 1805.0Q1791 1832 1820.0 1843.5Q1849 1855 1881.0 1855.0Q1913 1855 1921 1854L1926 1872Q1761 1921 1622 1921Q1602 1867 1602 1807V1760Q1549 1807 1503.5 1841.0Q1458 1875 1414.0 1897.5Q1370 1920 1324.0 1931.0Q1278 1942 1225 1942Q1165 1942 1105.5 1928.0Q1046 1914 998.0 1878.0Q950 1842 920.5 1780.0Q891 1718 891 1622V1004Q891 964 857.5 943.0Q824 922 758 904L766 879Q824 891 916 891Q973 891 1049 875L1055 885Q1035 916 1035 992V1586Q1035 1669 1054.0 1722.5Q1073 1776 1105.0 1807.0Q1137 1838 1180.0 1849.5Q1223 1861 1271 1861Q1316 1861 1354.5 1851.5Q1393 1842 1432.0 1821.5Q1471 1801 1512.0 1768.5Q1553 1736 1602 1690V1029Q1602 998 1596.5 978.5Q1591 959 1575.5 945.5Q1560 932 1531.0 922.0Q1502 912 1455 900L1463 875Q1520 883 1561.0 887.0Q1602 891 1627 891Q1684 891 1760 875L1766 885Q1745 915 1745 992ZM2249 1160Q2249 1093 2242.5 1048.0Q2236 1003 2219.5 976.0Q2203 949 2174.0 938.0Q2145 927 2112.5 927.0Q2080 927 2073 928L2069 910Q2232 861 2372 861Q2393 914 2393 975V1004Q2451 965 2500.0 936.0Q2549 907 2596.5 887.0Q2644 867 2694.0 857.0Q2744 847 2804 847Q2858 847 2911.5 861.0Q2965 875 3007.5 911.0Q3050 947 3076.5 1009.0Q3103 1071 3103 1166V1788Q3103 1812 3114.5 1828.0Q3126 1844 3144.5 1855.0Q3163 1866 3187.0 1873.5Q3211 1881 3237 1889L3228 1913Q3172 1901 3079 1901Q3022 1901 2946 1917L2940 1907Q2960 1878 2960 1801V1203Q2960 1119 2944.0 1065.5Q2928 1012 2900.5 981.5Q2873 951 2836.5 939.0Q2800 927 2759 927Q2709 927 2665.5 936.0Q2622 945 2578.5 963.5Q2535 982 2490.0 1009.5Q2445 1037 2393 1074V1764Q2393 1796 2398.0 1815.5Q2403 1835 2419.0 1848.0Q2435 1861 2464.0 1871.0Q2493 1881 2540 1893L2532 1917Q2474 1909 2433.5 1905.0Q2393 1901 2368 1901Q2311 1901 2235 1917L2229 1907Q2249 1878 2249 1801ZM4347 2155Q4347 2255 4272.5 2332.5Q4198 2410 4080.0 2449.5Q3962 2489 3825 2489Q3720 2489 3636.0 2461.0Q3552 2433 3497.0 2368.0Q3442 2303 3442 2210Q3442 2113 3527.0 2030.0Q3612 1947 3751 1889Q3625 1861 3570.0 1827.5Q3515 1794 3515 1723Q3515 1660 3554.0 1621.5Q3593 1583 3687 1559Q3577 1525 3515.5 1442.0Q3454 1359 3454 1227Q3454 1131 3510.5 1046.0Q3567 961 3659.5 911.0Q3752 861 3853 861Q3969 861 4058 897L4386 861L4394 895L4322 969L4144 953Q4247 1045 4247 1219Q4247 1307 4194.0 1390.0Q4141 1473 4048.0 1526.0Q3955 1579 3849 1579Q3705 1604 3664.5 1623.0Q3624 1642 3624 1684Q3624 1709 3679.0 1732.5Q3734 1756 3896 1797Q3970 1815 4021.0 1829.5Q4072 1844 4123.0 1862.5Q4174 1881 4206.5 1900.0Q4239 1919 4268.5 1944.5Q4298 1970 4313.5 2000.5Q4329 2031 4338.0 2069.0Q4347 2107 4347 2155ZM3886 1915 3845 1905Q3719 1952 3646.0 2032.0Q3573 2112 3573 2194Q3573 2252 3604.5 2296.5Q3636 2341 3689.0 2366.0Q3742 2391 3802.0 2403.0Q3862 2415 3927 2415Q4220 2415 4220 2186Q4220 2075 4136.5 2013.0Q4053 1951 3886 1915ZM3812 932Q3686 932 3637.5 996.5Q3589 1061 3589 1211Q3589 1281 3611.5 1335.5Q3634 1390 3668.0 1421.5Q3702 1453 3747.5 1473.5Q3793 1494 3832.5 1501.0Q3872 1508 3911 1508Q4013 1508 4062.0 1435.0Q4111 1362 4111 1235Q4111 1162 4088.5 1105.5Q4066 1049 4033.5 1017.5Q4001 986 3958.0 965.5Q3915 945 3880.0 938.5Q3845 932 3812 932ZM4547 1414Q4547 1308 4582.0 1208.5Q4617 1109 4682.0 1031.5Q4747 954 4839.5 907.5Q4932 861 5047 861Q5119 861 5183.0 885.5Q5247 910 5294.5 961.5Q5342 1013 5369.5 1093.5Q5397 1174 5397 1285L5358 1321H4705Q4703 1338 4703.0 1354.0Q4703 1370 4703 1386Q4703 1495 4728.5 1584.0Q4754 1673 4797.5 1736.5Q4841 1800 4900.0 1835.0Q4959 1870 5025 1870Q5067 1870 5110.5 1863.5Q5154 1857 5195.5 1843.0Q5237 1829 5276.0 1807.0Q5315 1785 5348 1754L5389 1797Q5310 1875 5217.0 1908.5Q5124 1942 5002 1942Q4906 1942 4822.5 1905.0Q4739 1868 4678.0 1799.0Q4617 1730 4582.0 1632.5Q4547 1535 4547 1414ZM5025 930Q4870 930 4798.0 1010.5Q4726 1091 4711 1242H5268Q5260 1078 5194.5 1004.0Q5129 930 5025 930Z" fill="currentColor" /></svg>