<svg viewBox="0 0 6532 1597" xmlns="http://www.w3.org/2000/svg"><path d="M0 1454 174 1413V307L0 266V154L584 143V266L389 307V758H578L932 154L1270 143V266L1067 307L756 825L1178 1413L1352 1454V1577H768V1454L942 1413L590 922H389V1413L584 1454V1577H0ZM1874 471Q2060 471 2156.5 545.0Q2253 619 2253 789V1413L2417 1454V1567L2099 1577L2056 1434Q1990 1500 1903.5 1548.5Q1817 1597 1720 1597Q1575 1597 1494.0 1516.5Q1413 1436 1413 1290Q1413 1120 1535.0 1046.5Q1657 973 1884 973H2048V809Q2048 719 1998.0 672.0Q1948 625 1853 625Q1798 625 1752.0 632.0Q1706 639 1679.5 646.0Q1653 653 1647 655L1618 809H1485L1475 553Q1491 547 1555.5 527.5Q1620 508 1708.0 489.5Q1796 471 1874 471ZM1622 1280Q1622 1350 1662.0 1392.0Q1702 1434 1772 1434Q1840 1434 1901.0 1397.0Q1962 1360 2005.0 1317.0Q2048 1274 2048 1270V1106H1905Q1753 1106 1687.5 1147.0Q1622 1188 1622 1280ZM3686 1567 3338 1577 3322 1460Q3185 1597 3000 1597Q2785 1597 2677.5 1455.0Q2570 1313 2570 1065Q2570 793 2707.5 632.0Q2845 471 3113 471Q3213 471 3307 504V164L3133 123V10L3512 0V1413L3686 1454ZM3092 635Q2785 635 2785 1045Q2785 1225 2847.5 1329.5Q2910 1434 3041 1434Q3119 1434 3178.5 1400.0Q3238 1366 3272.5 1326.0Q3307 1286 3307 1280V676Q3301 672 3276.5 662.5Q3252 653 3204.0 644.0Q3156 635 3092 635ZM4229 1393 4497 502 4691 471 4945 1393 5109 645 4966 614V502L5427 492V614L5308 635L5058 1577H4822L4628 942L4579 746L4536 942L4341 1577H4106L3850 645L3747 614V502L4208 492V614L4054 635ZM5989 471Q6175 471 6271.5 545.0Q6368 619 6368 789V1413L6532 1454V1567L6214 1577L6171 1434Q6105 1500 6018.5 1548.5Q5932 1597 5835 1597Q5690 1597 5609.0 1516.5Q5528 1436 5528 1290Q5528 1120 5650.0 1046.5Q5772 973 5999 973H6163V809Q6163 719 6113.0 672.0Q6063 625 5968 625Q5913 625 5867.0 632.0Q5821 639 5794.5 646.0Q5768 653 5762 655L5733 809H5600L5590 553Q5606 547 5670.5 527.5Q5735 508 5823.0 489.5Q5911 471 5989 471ZM5737 1280Q5737 1350 5777.0 1392.0Q5817 1434 5887 1434Q5955 1434 6016.0 1397.0Q6077 1360 6120.0 1317.0Q6163 1274 6163 1270V1106H6020Q5868 1106 5802.5 1147.0Q5737 1188 5737 1280Z" /></svg>