<svg viewBox="0 0 5285 961" xmlns="http://www.w3.org/2000/svg"><path d="M695 751Q695 755 693.0 760.0Q691 765 686 765Q655 765 623.5 765.5Q592 766 560 766Q544 766 529.5 764.5Q515 763 503 752Q499 749 496.0 745.0Q493 741 490 737Q366 564 230 396L195 425V714Q195 731 211.0 736.0Q227 741 247.0 740.5Q267 740 277 740Q290 740 290 753Q290 766 279 766Q245 766 212.0 764.0Q179 762 145 762Q112 762 78.5 763.0Q45 764 12 766Q4 761 4 752Q4 745 5.5 743.0Q7 741 14 740Q20 739 26.0 739.5Q32 740 38 740Q47 740 60.5 739.0Q74 738 84.5 732.5Q95 727 95 714V86Q95 76 81.5 68.0Q68 60 60 60H38Q31 60 25.0 60.5Q19 61 12 61Q2 61 1.0 55.0Q0 49 0 42Q0 34 7 34Q42 34 76.5 36.0Q111 38 145 38Q177 38 208.5 36.0Q240 34 271 34Q283 34 283 48Q283 52 280.5 56.5Q278 61 273 61Q262 61 251.0 60.5Q240 60 229 60Q218 60 206.5 67.0Q195 74 195 86V238Q195 277 195.0 316.0Q195 355 194 394Q294 300 390 201Q426 163 460.0 125.5Q494 88 525 47Q532 37 541 37Q556 37 571.0 37.5Q586 38 601 38Q614 38 626.5 37.5Q639 37 652 37Q657 37 658.5 41.5Q660 46 660 50Q660 54 657.5 58.5Q655 63 650 63Q622 63 597.0 71.0Q572 79 551 99L303 335Q378 431 455.5 526.5Q533 622 615 713Q630 729 648.5 733.0Q667 737 681.0 739.0Q695 741 695 751ZM1057 650Q1053 605 1052.5 559.5Q1052 514 1051 468H1037Q1006 468 968.5 477.5Q931 487 897.0 506.0Q863 525 841.5 553.5Q820 582 820 619Q820 667 847.0 691.5Q874 716 920 716Q942 716 968.0 705.5Q994 695 1018.0 680.0Q1042 665 1057 650ZM1232 714Q1232 718 1231 720Q1221 742 1197.5 753.5Q1174 765 1151 765Q1109 765 1090.5 740.5Q1072 716 1061 680Q1023 715 977.0 738.5Q931 762 878 762Q841 762 808.5 747.5Q776 733 756.0 705.0Q736 677 736 637Q736 595 757.5 564.5Q779 534 812.5 512.5Q846 491 884.5 477.5Q923 464 957 457Q980 452 1004.0 448.0Q1028 444 1051 440Q1051 412 1048.5 375.0Q1046 338 1033 314Q1020 291 998.0 273.0Q976 255 949 255Q903 255 877.0 279.0Q851 303 840 347Q839 352 838.5 357.5Q838 363 837 368Q836 374 829.5 378.5Q823 383 816 383Q797 383 781.5 374.0Q766 365 766 344Q766 332 770 323Q783 292 812.0 271.5Q841 251 876.5 240.0Q912 229 943 229Q997 229 1041.0 249.0Q1085 269 1111.5 307.5Q1138 346 1138 404Q1138 469 1137.5 535.0Q1137 601 1141 667Q1142 689 1150.0 705.5Q1158 722 1183 722Q1196 722 1210.5 715.5Q1225 709 1229 709Q1232 709 1232 714ZM1556 752Q1556 757 1553.0 761.5Q1550 766 1545 766Q1517 766 1489.5 764.5Q1462 763 1433 763H1406Q1376 763 1346.5 764.5Q1317 766 1288 766Q1284 766 1282.5 761.0Q1281 756 1281 753Q1281 748 1282.0 745.5Q1283 743 1288 742Q1293 740 1299.5 740.5Q1306 741 1312 741Q1319 741 1325.0 741.5Q1331 742 1338 742Q1352 742 1363.5 735.5Q1375 729 1375 713V313Q1375 296 1369.0 286.5Q1363 277 1344 277Q1330 277 1315.5 278.5Q1301 280 1287 282Q1279 282 1279 273Q1279 263 1287 260Q1299 256 1312.5 254.5Q1326 253 1338 251Q1366 246 1394.0 240.0Q1422 234 1449 227Q1452 226 1457 226Q1468 226 1468 238Q1468 356 1467.5 475.0Q1467 594 1467 713Q1467 729 1481.5 735.5Q1496 742 1509 742Q1519 742 1529.5 741.0Q1540 740 1550 740Q1554 740 1555.0 745.0Q1556 750 1556 752ZM1475 60Q1475 85 1457.0 102.5Q1439 120 1414 120Q1389 120 1371.0 102.5Q1353 85 1353 60Q1353 35 1371.0 17.5Q1389 0 1414 0Q1439 0 1457.0 17.5Q1475 35 1475 60ZM1997 624Q1997 669 1977.0 697.5Q1957 726 1925.0 741.0Q1893 756 1855.0 762.0Q1817 768 1781 768Q1748 768 1715.5 761.0Q1683 754 1650 751Q1643 724 1636.5 697.0Q1630 670 1622 644Q1621 641 1617.5 630.0Q1614 619 1614 618Q1614 610 1619.0 606.5Q1624 603 1631 603Q1638 603 1641 608Q1647 615 1651.5 627.0Q1656 639 1660 648Q1668 664 1674.0 672.5Q1680 681 1693 694Q1732 735 1790 735Q1822 735 1848.5 728.0Q1875 721 1891.0 701.5Q1907 682 1907 645Q1907 613 1887.0 591.5Q1867 570 1835.5 553.0Q1804 536 1769.0 520.0Q1734 504 1702.5 484.5Q1671 465 1651.0 437.0Q1631 409 1631 369Q1631 320 1656.5 289.0Q1682 258 1722.0 242.5Q1762 227 1805 227Q1833 227 1855.5 234.0Q1878 241 1903 250Q1911 253 1919.0 254.0Q1927 255 1935 255Q1940 255 1944.0 255.0Q1948 255 1952 254Q1955 272 1957.5 290.5Q1960 309 1962 328Q1963 335 1964.5 344.5Q1966 354 1966 362Q1966 369 1963.0 376.5Q1960 384 1951 384Q1944 384 1939.5 382.5Q1935 381 1932 374Q1927 364 1923.5 352.5Q1920 341 1916 331Q1903 296 1871.0 274.5Q1839 253 1802 253Q1755 253 1731.0 280.5Q1707 308 1707 354Q1707 370 1715.5 385.0Q1724 400 1735 411Q1756 431 1784.5 442.0Q1813 453 1839 464Q1873 479 1909.5 500.0Q1946 521 1971.5 551.0Q1997 581 1997 624ZM2437 416Q2436 375 2430.0 337.5Q2424 300 2401.0 275.5Q2378 251 2326 251Q2279 251 2249.5 276.5Q2220 302 2204.0 340.5Q2188 379 2180 419Q2205 420 2229.0 420.5Q2253 421 2277 421Q2317 421 2357.0 419.5Q2397 418 2437 416ZM2552 645Q2552 650 2550 651Q2547 661 2535.5 675.0Q2524 689 2510.0 701.5Q2496 714 2487 720Q2454 743 2412.5 757.0Q2371 771 2330 771Q2296 771 2254.5 760.0Q2213 749 2184 730Q2128 693 2102.0 633.0Q2076 573 2076 508Q2076 434 2105.0 371.0Q2134 308 2198 269Q2227 252 2263.0 240.5Q2299 229 2332 229Q2391 229 2436.0 253.0Q2481 277 2506.5 320.5Q2532 364 2532 424Q2532 441 2524.5 446.0Q2517 451 2502 451Q2482 451 2462.0 450.0Q2442 449 2422 448Q2394 446 2366.5 446.0Q2339 446 2311 446Q2277 446 2243.0 446.0Q2209 446 2175 448Q2174 464 2173.0 479.0Q2172 494 2172 510Q2172 547 2181.0 586.5Q2190 626 2210.0 659.5Q2230 693 2261.0 713.5Q2292 734 2336 734Q2381 734 2422.0 720.0Q2463 706 2497 675Q2506 666 2513.5 655.5Q2521 645 2530 637Q2535 632 2541 632Q2546 632 2549.0 636.0Q2552 640 2552 645ZM2891 752Q2891 757 2888.0 761.5Q2885 766 2880 766Q2852 766 2824.5 764.5Q2797 763 2768 763H2741Q2711 763 2681.5 764.5Q2652 766 2623 766Q2619 766 2617.5 761.0Q2616 756 2616 753Q2616 748 2617.0 745.5Q2618 743 2623 742Q2628 740 2634.5 740.5Q2641 741 2647 741Q2654 741 2660.0 741.5Q2666 742 2673 742Q2687 742 2698.5 735.5Q2710 729 2710 713V313Q2710 296 2704.0 286.5Q2698 277 2679 277Q2665 277 2650.5 278.5Q2636 280 2622 282Q2614 282 2614 273Q2614 263 2622 260Q2634 256 2647.5 254.5Q2661 253 2673 251Q2701 246 2729.0 240.0Q2757 234 2784 227Q2787 226 2792 226Q2803 226 2803 238Q2803 356 2802.5 475.0Q2802 594 2802 713Q2802 729 2816.5 735.5Q2831 742 2844 742Q2854 742 2864.5 741.0Q2875 740 2885 740Q2889 740 2890.0 745.0Q2891 750 2891 752ZM2810 60Q2810 85 2792.0 102.5Q2774 120 2749 120Q2724 120 2706.0 102.5Q2688 85 2688 60Q2688 35 2706.0 17.5Q2724 0 2749 0Q2774 0 2792.0 17.5Q2810 35 2810 60ZM3823 399Q3823 341 3810.5 281.0Q3798 221 3770.0 170.0Q3742 119 3695.0 87.5Q3648 56 3579 56Q3512 56 3465.0 89.0Q3418 122 3389.0 174.5Q3360 227 3346.5 287.5Q3333 348 3333 404Q3333 463 3345.0 522.5Q3357 582 3385.0 631.5Q3413 681 3460.5 711.0Q3508 741 3579 741Q3650 741 3697.0 710.0Q3744 679 3771.5 628.5Q3799 578 3811.0 518.0Q3823 458 3823 399ZM3932 396Q3932 507 3891.5 591.5Q3851 676 3772.5 723.0Q3694 770 3579 770Q3467 770 3387.5 724.5Q3308 679 3266.0 596.5Q3224 514 3224 404Q3224 327 3249.0 259.0Q3274 191 3321.0 139.0Q3368 87 3433.5 57.5Q3499 28 3579 28Q3691 28 3769.5 74.5Q3848 121 3890.0 203.5Q3932 286 3932 396ZM4455 481Q4455 447 4451.0 409.5Q4447 372 4434.0 339.0Q4421 306 4395.0 285.5Q4369 265 4324 265Q4297 265 4266.5 278.5Q4236 292 4213.5 315.0Q4191 338 4188 368Q4186 399 4186.0 431.0Q4186 463 4186 495Q4186 523 4186.5 551.5Q4187 580 4188 609Q4191 660 4221.0 695.5Q4251 731 4306 731Q4358 731 4388.0 707.5Q4418 684 4432.5 646.0Q4447 608 4451.0 564.5Q4455 521 4455 481ZM4558 482Q4558 560 4530.0 623.0Q4502 686 4446.5 722.5Q4391 759 4308 759Q4276 759 4242.5 742.5Q4209 726 4186 704V917Q4186 931 4197.5 933.0Q4209 935 4219 935Q4228 935 4237.0 934.0Q4246 933 4255 933Q4268 933 4268 946Q4268 961 4253 961Q4222 961 4191.0 959.0Q4160 957 4129 957Q4103 957 4077.5 959.0Q4052 961 4026 961Q4019 961 4017.5 956.0Q4016 951 4016 947Q4016 933 4030 933Q4038 933 4046.0 933.5Q4054 934 4062 934Q4069 934 4082.5 932.0Q4096 930 4096 920Q4096 816 4096.5 711.0Q4097 606 4097 502Q4097 455 4096.5 409.0Q4096 363 4095 317Q4094 295 4087.0 286.5Q4080 278 4057 278Q4047 278 4037.0 280.5Q4027 283 4017 283Q4006 283 4006 273Q4006 264 4015 261Q4017 260 4033.0 257.0Q4049 254 4071.5 249.5Q4094 245 4116.0 241.0Q4138 237 4153.0 234.0Q4168 231 4169 231Q4177 231 4180 241Q4182 247 4182.5 262.5Q4183 278 4183.0 293.5Q4183 309 4183 317Q4211 280 4254.5 255.5Q4298 231 4345 231Q4414 231 4461.5 267.5Q4509 304 4533.5 361.5Q4558 419 4558 482ZM4960 721Q4960 730 4946.5 739.0Q4933 748 4914.0 755.0Q4895 762 4877.5 766.0Q4860 770 4852 770Q4800 770 4771.5 757.0Q4743 744 4731.5 714.0Q4720 684 4720 633Q4720 550 4720.5 466.5Q4721 383 4722 300H4650Q4643 300 4638.5 303.5Q4634 307 4629 307Q4624 307 4624 300Q4624 296 4629.5 284.0Q4635 272 4637 268Q4640 269 4646 269H4724L4725 142Q4748 127 4767.0 108.5Q4786 90 4805 71Q4807 69 4809.0 67.5Q4811 66 4813 66Q4822 66 4822 73L4816 268Q4848 268 4879.5 267.0Q4911 266 4942 266Q4955 266 4955 281Q4955 300 4938 300H4816Q4816 376 4815.5 452.5Q4815 529 4815 606V683Q4815 708 4836.0 717.5Q4857 727 4877 727Q4905 727 4932 718Q4935 716 4941.0 714.0Q4947 712 4950 712Q4960 712 4960 721ZM5285 752Q5285 757 5282.0 761.5Q5279 766 5274 766Q5246 766 5218.5 764.5Q5191 763 5162 763H5135Q5105 763 5075.5 764.5Q5046 766 5017 766Q5013 766 5011.5 761.0Q5010 756 5010 753Q5010 748 5011.0 745.5Q5012 743 5017 742Q5022 740 5028.5 740.5Q5035 741 5041 741Q5048 741 5054.0 741.5Q5060 742 5067 742Q5081 742 5092.5 735.5Q5104 729 5104 713V313Q5104 296 5098.0 286.5Q5092 277 5073 277Q5059 277 5044.5 278.5Q5030 280 5016 282Q5008 282 5008 273Q5008 263 5016 260Q5028 256 5041.5 254.5Q5055 253 5067 251Q5095 246 5123.0 240.0Q5151 234 5178 227Q5181 226 5186 226Q5197 226 5197 238Q5197 356 5196.5 475.0Q5196 594 5196 713Q5196 729 5210.5 735.5Q5225 742 5238 742Q5248 742 5258.5 741.0Q5269 740 5279 740Q5283 740 5284.0 745.0Q5285 750 5285 752ZM5204 60Q5204 85 5186.0 102.5Q5168 120 5143 120Q5118 120 5100.0 102.5Q5082 85 5082 60Q5082 35 5100.0 17.5Q5118 0 5143 0Q5168 0 5186.0 17.5Q5204 35 5204 60Z" /></svg>