<svg viewBox="0 0 8866 772" xmlns="http://www.w3.org/2000/svg"><path d="M695 751Q695 755 693.0 760.0Q691 765 686 765Q655 765 623.5 765.5Q592 766 560 766Q544 766 529.5 764.5Q515 763 503 752Q499 749 496.0 745.0Q493 741 490 737Q366 564 230 396L195 425V714Q195 731 211.0 736.0Q227 741 247.0 740.5Q267 740 277 740Q290 740 290 753Q290 766 279 766Q245 766 212.0 764.0Q179 762 145 762Q112 762 78.5 763.0Q45 764 12 766Q4 761 4 752Q4 745 5.5 743.0Q7 741 14 740Q20 739 26.0 739.5Q32 740 38 740Q47 740 60.5 739.0Q74 738 84.5 732.5Q95 727 95 714V86Q95 76 81.5 68.0Q68 60 60 60H38Q31 60 25.0 60.5Q19 61 12 61Q2 61 1.0 55.0Q0 49 0 42Q0 34 7 34Q42 34 76.5 36.0Q111 38 145 38Q177 38 208.5 36.0Q240 34 271 34Q283 34 283 48Q283 52 280.5 56.5Q278 61 273 61Q262 61 251.0 60.5Q240 60 229 60Q218 60 206.5 67.0Q195 74 195 86V238Q195 277 195.0 316.0Q195 355 194 394Q294 300 390 201Q426 163 460.0 125.5Q494 88 525 47Q532 37 541 37Q556 37 571.0 37.5Q586 38 601 38Q614 38 626.5 37.5Q639 37 652 37Q657 37 658.5 41.5Q660 46 660 50Q660 54 657.5 58.5Q655 63 650 63Q622 63 597.0 71.0Q572 79 551 99L303 335Q378 431 455.5 526.5Q533 622 615 713Q630 729 648.5 733.0Q667 737 681.0 739.0Q695 741 695 751ZM1057 650Q1053 605 1052.5 559.5Q1052 514 1051 468H1037Q1006 468 968.5 477.5Q931 487 897.0 506.0Q863 525 841.5 553.5Q820 582 820 619Q820 667 847.0 691.5Q874 716 920 716Q942 716 968.0 705.5Q994 695 1018.0 680.0Q1042 665 1057 650ZM1232 714Q1232 718 1231 720Q1221 742 1197.5 753.5Q1174 765 1151 765Q1109 765 1090.5 740.5Q1072 716 1061 680Q1023 715 977.0 738.5Q931 762 878 762Q841 762 808.5 747.5Q776 733 756.0 705.0Q736 677 736 637Q736 595 757.5 564.5Q779 534 812.5 512.5Q846 491 884.5 477.5Q923 464 957 457Q980 452 1004.0 448.0Q1028 444 1051 440Q1051 412 1048.5 375.0Q1046 338 1033 314Q1020 291 998.0 273.0Q976 255 949 255Q903 255 877.0 279.0Q851 303 840 347Q839 352 838.5 357.5Q838 363 837 368Q836 374 829.5 378.5Q823 383 816 383Q797 383 781.5 374.0Q766 365 766 344Q766 332 770 323Q783 292 812.0 271.5Q841 251 876.5 240.0Q912 229 943 229Q997 229 1041.0 249.0Q1085 269 1111.5 307.5Q1138 346 1138 404Q1138 469 1137.5 535.0Q1137 601 1141 667Q1142 689 1150.0 705.5Q1158 722 1183 722Q1196 722 1210.5 715.5Q1225 709 1229 709Q1232 709 1232 714ZM1556 752Q1556 757 1553.0 761.5Q1550 766 1545 766Q1517 766 1489.5 764.5Q1462 763 1433 763H1406Q1376 763 1346.5 764.5Q1317 766 1288 766Q1284 766 1282.5 761.0Q1281 756 1281 753Q1281 748 1282.0 745.5Q1283 743 1288 742Q1293 740 1299.5 740.5Q1306 741 1312 741Q1319 741 1325.0 741.5Q1331 742 1338 742Q1352 742 1363.5 735.5Q1375 729 1375 713V313Q1375 296 1369.0 286.5Q1363 277 1344 277Q1330 277 1315.5 278.5Q1301 280 1287 282Q1279 282 1279 273Q1279 263 1287 260Q1299 256 1312.5 254.5Q1326 253 1338 251Q1366 246 1394.0 240.0Q1422 234 1449 227Q1452 226 1457 226Q1468 226 1468 238Q1468 356 1467.5 475.0Q1467 594 1467 713Q1467 729 1481.5 735.5Q1496 742 1509 742Q1519 742 1529.5 741.0Q1540 740 1550 740Q1554 740 1555.0 745.0Q1556 750 1556 752ZM1475 60Q1475 85 1457.0 102.5Q1439 120 1414 120Q1389 120 1371.0 102.5Q1353 85 1353 60Q1353 35 1371.0 17.5Q1389 0 1414 0Q1439 0 1457.0 17.5Q1475 35 1475 60ZM1997 624Q1997 669 1977.0 697.5Q1957 726 1925.0 741.0Q1893 756 1855.0 762.0Q1817 768 1781 768Q1748 768 1715.5 761.0Q1683 754 1650 751Q1643 724 1636.5 697.0Q1630 670 1622 644Q1621 641 1617.5 630.0Q1614 619 1614 618Q1614 610 1619.0 606.5Q1624 603 1631 603Q1638 603 1641 608Q1647 615 1651.5 627.0Q1656 639 1660 648Q1668 664 1674.0 672.5Q1680 681 1693 694Q1732 735 1790 735Q1822 735 1848.5 728.0Q1875 721 1891.0 701.5Q1907 682 1907 645Q1907 613 1887.0 591.5Q1867 570 1835.5 553.0Q1804 536 1769.0 520.0Q1734 504 1702.5 484.5Q1671 465 1651.0 437.0Q1631 409 1631 369Q1631 320 1656.5 289.0Q1682 258 1722.0 242.5Q1762 227 1805 227Q1833 227 1855.5 234.0Q1878 241 1903 250Q1911 253 1919.0 254.0Q1927 255 1935 255Q1940 255 1944.0 255.0Q1948 255 1952 254Q1955 272 1957.5 290.5Q1960 309 1962 328Q1963 335 1964.5 344.5Q1966 354 1966 362Q1966 369 1963.0 376.5Q1960 384 1951 384Q1944 384 1939.5 382.5Q1935 381 1932 374Q1927 364 1923.5 352.5Q1920 341 1916 331Q1903 296 1871.0 274.5Q1839 253 1802 253Q1755 253 1731.0 280.5Q1707 308 1707 354Q1707 370 1715.5 385.0Q1724 400 1735 411Q1756 431 1784.5 442.0Q1813 453 1839 464Q1873 479 1909.5 500.0Q1946 521 1971.5 551.0Q1997 581 1997 624ZM2437 416Q2436 375 2430.0 337.5Q2424 300 2401.0 275.5Q2378 251 2326 251Q2279 251 2249.5 276.5Q2220 302 2204.0 340.5Q2188 379 2180 419Q2205 420 2229.0 420.5Q2253 421 2277 421Q2317 421 2357.0 419.5Q2397 418 2437 416ZM2552 645Q2552 650 2550 651Q2547 661 2535.5 675.0Q2524 689 2510.0 701.5Q2496 714 2487 720Q2454 743 2412.5 757.0Q2371 771 2330 771Q2296 771 2254.5 760.0Q2213 749 2184 730Q2128 693 2102.0 633.0Q2076 573 2076 508Q2076 434 2105.0 371.0Q2134 308 2198 269Q2227 252 2263.0 240.5Q2299 229 2332 229Q2391 229 2436.0 253.0Q2481 277 2506.5 320.5Q2532 364 2532 424Q2532 441 2524.5 446.0Q2517 451 2502 451Q2482 451 2462.0 450.0Q2442 449 2422 448Q2394 446 2366.5 446.0Q2339 446 2311 446Q2277 446 2243.0 446.0Q2209 446 2175 448Q2174 464 2173.0 479.0Q2172 494 2172 510Q2172 547 2181.0 586.5Q2190 626 2210.0 659.5Q2230 693 2261.0 713.5Q2292 734 2336 734Q2381 734 2422.0 720.0Q2463 706 2497 675Q2506 666 2513.5 655.5Q2521 645 2530 637Q2535 632 2541 632Q2546 632 2549.0 636.0Q2552 640 2552 645ZM2891 752Q2891 757 2888.0 761.5Q2885 766 2880 766Q2852 766 2824.5 764.5Q2797 763 2768 763H2741Q2711 763 2681.5 764.5Q2652 766 2623 766Q2619 766 2617.5 761.0Q2616 756 2616 753Q2616 748 2617.0 745.5Q2618 743 2623 742Q2628 740 2634.5 740.5Q2641 741 2647 741Q2654 741 2660.0 741.5Q2666 742 2673 742Q2687 742 2698.5 735.5Q2710 729 2710 713V313Q2710 296 2704.0 286.5Q2698 277 2679 277Q2665 277 2650.5 278.5Q2636 280 2622 282Q2614 282 2614 273Q2614 263 2622 260Q2634 256 2647.5 254.5Q2661 253 2673 251Q2701 246 2729.0 240.0Q2757 234 2784 227Q2787 226 2792 226Q2803 226 2803 238Q2803 356 2802.5 475.0Q2802 594 2802 713Q2802 729 2816.5 735.5Q2831 742 2844 742Q2854 742 2864.5 741.0Q2875 740 2885 740Q2889 740 2890.0 745.0Q2891 750 2891 752ZM2810 60Q2810 85 2792.0 102.5Q2774 120 2749 120Q2724 120 2706.0 102.5Q2688 85 2688 60Q2688 35 2706.0 17.5Q2724 0 2749 0Q2774 0 2792.0 17.5Q2810 35 2810 60ZM3985 46Q3985 53 3982.5 56.5Q3980 60 3972 60Q3962 60 3952.0 59.5Q3942 59 3932 59Q3921 59 3907.0 65.0Q3893 71 3893 85V716Q3893 730 3907.0 736.0Q3921 742 3932 742Q3943 742 3953.5 741.0Q3964 740 3974 740Q3983 740 3983 750Q3983 753 3983.0 755.5Q3983 758 3983 761Q3983 768 3976 768Q3941 768 3905.5 766.0Q3870 764 3834 764Q3814 764 3793.5 765.0Q3773 766 3753 767Q3740 768 3727.5 769.0Q3715 770 3702 770Q3696 770 3696 760Q3696 756 3697.0 748.5Q3698 741 3703 741Q3714 741 3726.0 741.5Q3738 742 3749 742Q3760 742 3775.0 736.0Q3790 730 3790 716V399H3387V716Q3387 730 3401.0 736.0Q3415 742 3426 742Q3437 742 3447.5 741.0Q3458 740 3469 740Q3476 740 3477 745Q3478 746 3478.0 750.5Q3478 755 3478 757Q3478 760 3476 766Q3472 768 3470 768Q3435 768 3400.5 766.0Q3366 764 3331 764Q3310 764 3289.5 765.0Q3269 766 3249 767Q3236 768 3224.0 769.0Q3212 770 3199 770Q3192 770 3194 765Q3192 759 3192 758Q3192 754 3193.0 747.5Q3194 741 3200 741Q3211 741 3222.5 741.5Q3234 742 3245 742Q3257 742 3271.5 736.0Q3286 730 3286 716Q3286 630 3286.5 544.0Q3287 458 3287 373Q3287 302 3286.5 230.0Q3286 158 3286 87Q3286 73 3271.5 67.0Q3257 61 3245 61Q3234 61 3222.5 61.5Q3211 62 3200 62Q3193 62 3192.0 54.0Q3191 46 3191 42Q3191 33 3199 33Q3212 33 3224.0 34.0Q3236 35 3249 36Q3269 37 3289.5 38.0Q3310 39 3331 39Q3366 39 3401.5 37.0Q3437 35 3472 35Q3479 35 3479.0 41.0Q3479 47 3479 52Q3479 63 3469 63Q3458 63 3447.5 62.0Q3437 61 3426 61Q3415 61 3401.0 67.0Q3387 73 3387 87V366H3790V95Q3790 75 3779.0 68.0Q3768 61 3749 61Q3738 61 3726.0 61.5Q3714 62 3703 62Q3697 62 3696.5 55.5Q3696 49 3696 45Q3696 33 3704 33Q3728 33 3753.5 35.0Q3779 37 3804 37H3834Q3870 37 3905.5 35.0Q3941 33 3976 33Q3981 33 3983.0 37.0Q3985 41 3985 46ZM4367 650Q4363 605 4362.5 559.5Q4362 514 4361 468H4347Q4316 468 4278.5 477.5Q4241 487 4207.0 506.0Q4173 525 4151.5 553.5Q4130 582 4130 619Q4130 667 4157.0 691.5Q4184 716 4230 716Q4252 716 4278.0 705.5Q4304 695 4328.0 680.0Q4352 665 4367 650ZM4542 714Q4542 718 4541 720Q4531 742 4507.5 753.5Q4484 765 4461 765Q4419 765 4400.5 740.5Q4382 716 4371 680Q4333 715 4287.0 738.5Q4241 762 4188 762Q4151 762 4118.5 747.5Q4086 733 4066.0 705.0Q4046 677 4046 637Q4046 595 4067.5 564.5Q4089 534 4122.5 512.5Q4156 491 4194.5 477.5Q4233 464 4267 457Q4290 452 4314.0 448.0Q4338 444 4361 440Q4361 412 4358.5 375.0Q4356 338 4343 314Q4330 291 4308.0 273.0Q4286 255 4259 255Q4213 255 4187.0 279.0Q4161 303 4150 347Q4149 352 4148.5 357.5Q4148 363 4147 368Q4146 374 4139.5 378.5Q4133 383 4126 383Q4107 383 4091.5 374.0Q4076 365 4076 344Q4076 332 4080 323Q4093 292 4122.0 271.5Q4151 251 4186.5 240.0Q4222 229 4253 229Q4307 229 4351.0 249.0Q4395 269 4421.5 307.5Q4448 346 4448 404Q4448 469 4447.5 535.0Q4447 601 4451 667Q4452 689 4460.0 705.5Q4468 722 4493 722Q4506 722 4520.5 715.5Q4535 709 4539 709Q4542 709 4542 714ZM4984 322Q4984 332 4976.5 340.5Q4969 349 4958 349Q4943 349 4936.5 339.0Q4930 329 4925.5 316.0Q4921 303 4912.0 293.0Q4903 283 4882 283Q4878 283 4874.5 283.0Q4871 283 4867 284Q4850 287 4830.0 305.0Q4810 323 4791.5 347.5Q4773 372 4761.0 396.0Q4749 420 4748 436Q4747 452 4747.0 467.5Q4747 483 4747 498Q4747 552 4747.5 606.0Q4748 660 4748 713Q4748 728 4760.5 734.5Q4773 741 4786 741Q4796 741 4806.0 740.0Q4816 739 4826 739Q4831 739 4833.0 743.5Q4835 748 4835 752Q4835 768 4819 768Q4789 768 4759.0 766.5Q4729 765 4699 765Q4668 765 4636.5 767.0Q4605 769 4573 769Q4569 769 4567.5 763.0Q4566 757 4566 753Q4566 743 4574 742Q4585 740 4597.0 741.0Q4609 742 4619 742Q4634 742 4643.5 735.5Q4653 729 4654 713Q4656 681 4656.5 648.0Q4657 615 4657 582V485Q4656 442 4656.5 399.5Q4657 357 4653 315Q4652 295 4642.0 286.5Q4632 278 4612 278Q4604 278 4595.5 279.5Q4587 281 4578 281Q4570 281 4570 269Q4570 262 4577 259Q4587 256 4598.0 254.5Q4609 253 4619 252Q4646 247 4673.0 242.0Q4700 237 4727 230Q4736 233 4740 241Q4742 245 4743.0 263.0Q4744 281 4744.0 304.5Q4744 328 4744.0 348.5Q4744 369 4744 377Q4766 342 4794.0 307.0Q4822 272 4858.0 249.0Q4894 226 4939 226Q4963 226 4970.0 241.0Q4977 256 4979 276Q4981 287 4982.5 299.0Q4984 311 4984 322ZM5611 740Q5611 752 5593.5 758.0Q5576 764 5555.0 766.0Q5534 768 5525 768Q5491 768 5471.0 741.0Q5451 714 5441 685Q5407 728 5356.0 749.0Q5305 770 5250 770Q5160 770 5125.5 723.5Q5091 677 5091 592Q5091 517 5091.5 441.5Q5092 366 5093 291Q5093 261 5064 261Q5056 261 5048.0 262.0Q5040 263 5032 263Q5029 263 5027.5 259.5Q5026 256 5026 254Q5026 243 5036 242Q5071 238 5106.5 236.5Q5142 235 5177 231Q5185 239 5185 251Q5185 276 5184.0 302.0Q5183 328 5183 354Q5182 415 5181.5 476.5Q5181 538 5181 600Q5181 619 5182.0 640.5Q5183 662 5190 680Q5201 708 5231.5 719.5Q5262 731 5290 731Q5321 731 5352.5 719.5Q5384 708 5406.5 685.5Q5429 663 5432 629Q5434 612 5434.5 594.5Q5435 577 5435 560L5434 288Q5434 275 5425.5 269.0Q5417 263 5406 263Q5396 263 5386.5 264.0Q5377 265 5367 265Q5358 265 5358 255Q5358 245 5367 244Q5379 242 5392.0 241.5Q5405 241 5418 240L5487 233Q5494 232 5501.5 231.0Q5509 230 5516 230Q5521 230 5523.0 235.5Q5525 241 5525 244Q5522 461 5522 677Q5522 702 5533.5 718.0Q5545 734 5572 734Q5580 734 5586.5 732.0Q5593 730 5600 730Q5611 730 5611 740ZM6238 752Q6238 765 6223 765Q6201 765 6178.0 763.5Q6155 762 6132 762Q6098 762 6062.5 763.5Q6027 765 5992 765Q5988 765 5987.0 758.5Q5986 752 5986 748Q5986 740 5996.0 740.0Q6006 740 6012 740Q6017 740 6022.5 740.5Q6028 741 6033 741Q6062 741 6065 712Q6068 653 6067.5 593.0Q6067 533 6067 474Q6067 463 6067.0 451.5Q6067 440 6067 429Q6066 406 6064.0 372.5Q6062 339 6055 318Q6039 266 5985 266Q5936 266 5895.0 291.0Q5854 316 5824 354Q5823 427 5823.0 499.0Q5823 571 5823 643V712Q5823 727 5836.0 734.0Q5849 741 5862 741Q5870 741 5877.5 739.5Q5885 738 5892 738Q5896 738 5897.0 743.0Q5898 748 5898 751Q5898 755 5895.5 760.0Q5893 765 5887 765Q5865 765 5843.5 763.5Q5822 762 5800 762Q5766 762 5732.0 763.5Q5698 765 5663 765Q5658 765 5657.5 758.5Q5657 752 5657 748Q5657 740 5666.0 740.0Q5675 740 5680 740Q5685 740 5690.0 740.5Q5695 741 5700 741Q5729 741 5732 712Q5733 698 5733.0 684.0Q5733 670 5733 656Q5733 570 5733.0 483.5Q5733 397 5732 311Q5732 297 5726.0 283.0Q5720 269 5703 269Q5690 269 5678.0 273.0Q5666 277 5653 277Q5646 277 5646 267Q5646 265 5646.5 262.5Q5647 260 5648 259Q5649 258 5651.0 257.5Q5653 257 5654 256Q5672 251 5691.5 249.0Q5711 247 5729 243Q5746 240 5762.0 234.5Q5778 229 5794 229Q5801 229 5805 236Q5810 245 5813.0 261.5Q5816 278 5817.5 295.0Q5819 312 5819 323Q5841 301 5871.5 279.5Q5902 258 5935.5 243.5Q5969 229 6001 229Q6093 229 6125.5 269.5Q6158 310 6158 397Q6158 475 6157.5 553.0Q6157 631 6157 709Q6157 728 6168.5 734.5Q6180 741 6196 741Q6204 741 6212.0 739.5Q6220 738 6227 738Q6233 738 6235.5 742.5Q6238 747 6238 752ZM6724 503Q6724 460 6717.5 416.5Q6711 373 6693.5 336.0Q6676 299 6643.0 276.5Q6610 254 6557 254Q6507 254 6475.5 278.0Q6444 302 6426.5 340.0Q6409 378 6402.5 422.0Q6396 466 6396 505Q6396 548 6402.5 591.0Q6409 634 6427.0 668.5Q6445 703 6478.5 724.0Q6512 745 6565 745Q6617 745 6648.5 723.0Q6680 701 6696.5 665.0Q6713 629 6718.5 586.5Q6724 544 6724 503ZM6827 506Q6827 581 6791.5 641.0Q6756 701 6695.5 736.0Q6635 771 6560 771Q6487 771 6428.0 735.5Q6369 700 6334.0 640.5Q6299 581 6299 508Q6299 433 6333.0 369.5Q6367 306 6426.5 267.0Q6486 228 6564 228Q6648 228 6707.0 263.5Q6766 299 6796.5 361.5Q6827 424 6827 506ZM7616 50Q7616 60 7611.0 62.0Q7606 64 7598 64Q7591 64 7584.0 63.5Q7577 63 7570 63Q7556 63 7542.5 67.5Q7529 72 7527 89Q7526 106 7526.0 124.0Q7526 142 7526 160Q7526 242 7527.5 324.5Q7529 407 7529 490Q7529 575 7504.0 638.5Q7479 702 7423.5 737.0Q7368 772 7276 772Q7143 772 7066.5 707.5Q6990 643 6990 505V107Q6990 102 6990.5 96.5Q6991 91 6990 87Q6989 68 6970.5 64.0Q6952 60 6937 60Q6930 60 6922.5 60.5Q6915 61 6907 61Q6904 61 6900 57Q6899 53 6899 46Q6899 35 6912 35Q6923 35 6933.0 35.5Q6943 36 6953 37Q6976 38 6998.0 38.5Q7020 39 7042 39Q7077 39 7111.5 37.0Q7146 35 7181 35Q7194 35 7194 47Q7194 51 7192.0 56.5Q7190 62 7184 62Q7171 62 7159.0 61.5Q7147 61 7134 61Q7123 61 7109.0 67.0Q7095 73 7093 86Q7090 102 7091.0 120.5Q7092 139 7092 156Q7092 247 7091.0 338.0Q7090 429 7090 520Q7090 592 7105.0 640.0Q7120 688 7161.0 712.5Q7202 737 7281 737Q7358 737 7403.5 705.0Q7449 673 7469.0 618.0Q7489 563 7489 493Q7489 392 7488.5 291.0Q7488 190 7488 89Q7488 75 7473.0 69.0Q7458 63 7446 63Q7434 63 7422.0 64.0Q7410 65 7397 65Q7391 65 7391 56Q7391 48 7391.5 42.0Q7392 36 7402 36Q7416 36 7431.0 37.5Q7446 39 7460 39Q7510 39 7559 36Q7572 36 7584.5 35.0Q7597 34 7609 34Q7615 34 7615.5 40.0Q7616 46 7616 50ZM8540 754Q8540 768 8529 768Q8501 768 8472.0 766.0Q8443 764 8414 764Q8385 764 8355.5 766.0Q8326 768 8297 768Q8293 768 8291.5 763.0Q8290 758 8290 755Q8290 746 8299.5 744.0Q8309 742 8320.5 743.0Q8332 744 8338 744Q8352 744 8361.0 737.0Q8370 730 8370 716Q8370 649 8371.5 583.0Q8373 517 8373 451Q8373 440 8373.0 429.0Q8373 418 8372 407Q8371 383 8369.5 357.5Q8368 332 8361.0 309.5Q8354 287 8337.0 273.0Q8320 259 8288 259Q8265 259 8237.5 272.5Q8210 286 8185.0 304.0Q8160 322 8143 338Q8145 352 8145.0 366.5Q8145 381 8145 395Q8145 424 8145.5 453.5Q8146 483 8146 512Q8146 563 8145.5 614.0Q8145 665 8145 716Q8145 731 8158.0 737.0Q8171 743 8184 743Q8192 743 8200.5 742.0Q8209 741 8216 741Q8221 741 8222.5 746.0Q8224 751 8224 754Q8224 759 8221.0 763.5Q8218 768 8212 768Q8184 768 8155.5 766.0Q8127 764 8098 764Q8070 764 8041.0 766.0Q8012 768 7983 768Q7979 768 7977.0 763.0Q7975 758 7975 755Q7975 747 7983 744Q7991 742 8002.5 743.0Q8014 744 8022 744Q8036 744 8045.5 737.5Q8055 731 8055 716V461Q8055 440 8054.5 409.0Q8054 378 8050.5 347.5Q8047 317 8039 299Q8032 281 8015.5 271.0Q7999 261 7979 261Q7953 261 7926.0 274.0Q7899 287 7875.0 306.0Q7851 325 7834 344V715Q7834 730 7845.0 736.5Q7856 743 7869 743Q7877 743 7885.0 741.5Q7893 740 7900 740Q7904 740 7905.0 745.5Q7906 751 7906 753Q7906 758 7903.5 762.5Q7901 767 7895 767Q7876 767 7857.0 765.5Q7838 764 7819 764Q7781 764 7743.0 765.5Q7705 767 7667 767Q7663 767 7661.0 762.0Q7659 757 7659 754Q7659 742 7669 742Q7680 742 7690.0 742.5Q7700 743 7710 743Q7724 743 7734.0 736.5Q7744 730 7744 715Q7744 614 7743.5 512.5Q7743 411 7743 310Q7743 299 7741.0 288.0Q7739 277 7728 273Q7721 270 7713 270Q7700 270 7687.0 273.5Q7674 277 7660 277Q7651 277 7651 265Q7651 257 7657 255Q7662 253 7668.5 252.5Q7675 252 7681 251Q7704 248 7727.5 243.5Q7751 239 7773 234Q7781 232 7790.0 230.0Q7799 228 7808 228Q7820 228 7824.5 245.5Q7829 263 7829.5 283.0Q7830 303 7830 312Q7851 294 7877.0 274.5Q7903 255 7932.0 241.0Q7961 227 7990 227Q8041 227 8076.0 244.0Q8111 261 8136 308Q8158 289 8186.0 269.5Q8214 250 8244.5 236.5Q8275 223 8305 223Q8371 223 8405.5 242.0Q8440 261 8452.5 300.5Q8465 340 8465 402Q8465 480 8464.0 558.5Q8463 637 8463 716Q8463 731 8476.5 737.0Q8490 743 8503 743Q8511 743 8518.5 742.0Q8526 741 8533 741Q8537 741 8538.5 746.0Q8540 751 8540 754ZM8866 752Q8866 757 8863.0 761.5Q8860 766 8855 766Q8827 766 8799.5 764.5Q8772 763 8743 763H8716Q8686 763 8656.5 764.5Q8627 766 8598 766Q8594 766 8592.5 761.0Q8591 756 8591 753Q8591 748 8592.0 745.5Q8593 743 8598 742Q8603 740 8609.5 740.5Q8616 741 8622 741Q8629 741 8635.0 741.5Q8641 742 8648 742Q8662 742 8673.5 735.5Q8685 729 8685 713V313Q8685 296 8679.0 286.5Q8673 277 8654 277Q8640 277 8625.5 278.5Q8611 280 8597 282Q8589 282 8589 273Q8589 263 8597 260Q8609 256 8622.5 254.5Q8636 253 8648 251Q8676 246 8704.0 240.0Q8732 234 8759 227Q8762 226 8767 226Q8778 226 8778 238Q8778 356 8777.5 475.0Q8777 594 8777 713Q8777 729 8791.5 735.5Q8806 742 8819 742Q8829 742 8839.5 741.0Q8850 740 8860 740Q8864 740 8865.0 745.0Q8866 750 8866 752ZM8785 60Q8785 85 8767.0 102.5Q8749 120 8724 120Q8699 120 8681.0 102.5Q8663 85 8663 60Q8663 35 8681.0 17.5Q8699 0 8724 0Q8749 0 8767.0 17.5Q8785 35 8785 60Z" fill="currentColor" /></svg>