<svg viewBox="0 0 6920 1180" xmlns="http://www.w3.org/2000/svg"><path d="M596 260 322 552 311 563 144 742 143 645 502 260ZM179 260V920H107V260ZM330 505 600 920H513L271 547ZM958 595Q958 538 928.0 505.5Q898 473 843 473Q793 473 758.0 496.5Q723 520 706 571L647 535Q667 478 718.5 444.0Q770 410 845 410Q898 410 939.5 428.5Q981 447 1005.5 485.0Q1030 523 1030 581V825Q1030 866 1068 866Q1076 866 1086.0 864.5Q1096 863 1103 860L1099 917Q1091 921 1078.5 924.0Q1066 927 1050 927Q1024 927 1002.5 916.5Q981 906 968.5 883.5Q956 861 956 827V813L974 815Q963 854 935.5 879.5Q908 905 872.5 917.5Q837 930 801 930Q736 930 690.0 896.5Q644 863 644 796Q644 742 678.5 705.5Q713 669 780 655L971 615V675L814 709Q765 719 741.0 738.0Q717 757 717 792Q717 826 741.5 846.5Q766 867 812 867Q839 867 865.0 859.5Q891 852 912.0 836.0Q933 820 945.5 795.5Q958 771 958 737ZM1200 920V420H1263L1269 535L1258 525Q1279 465 1327.0 437.5Q1375 410 1433 410Q1484 410 1525.5 431.0Q1567 452 1592.0 493.5Q1617 535 1617 599V920H1545V624Q1545 541 1510.0 507.0Q1475 473 1423 473Q1387 473 1352.0 491.0Q1317 509 1294.5 548.0Q1272 587 1272 650V920ZM1891 279V783Q1891 823 1911.0 843.0Q1931 863 1964 863Q1992 863 2011.5 853.0Q2031 843 2047 826L2071 886Q2049 907 2020.0 918.5Q1991 930 1954 930Q1898 930 1858.5 899.0Q1819 868 1819 796V299ZM2063 420V482H1725V420ZM2348 930Q2301 930 2261.0 911.5Q2221 893 2196.5 853.0Q2172 813 2172 749V420H2244V730Q2244 799 2273.0 833.0Q2302 867 2366 867Q2395 867 2421.5 856.0Q2448 845 2468.5 823.5Q2489 802 2501.0 770.0Q2513 738 2513 696V420H2585V920H2522L2518 837Q2502 868 2477.5 889.0Q2453 910 2420.5 920.0Q2388 930 2348 930ZM2769 920V420H2832L2837 505Q2862 457 2906.0 433.5Q2950 410 2999 410Q3053 410 3099.0 435.5Q3145 461 3167 514Q3182 479 3210.5 456.0Q3239 433 3274.0 421.5Q3309 410 3342 410Q3390 410 3432.0 430.0Q3474 450 3500.5 492.0Q3527 534 3527 599V920H3455V606Q3455 536 3420.0 504.5Q3385 473 3334 473Q3294 473 3260.0 493.0Q3226 513 3205.0 551.0Q3184 589 3184 642V920H3112V606Q3112 536 3077.0 504.5Q3042 473 2991 473Q2957 473 2922.0 491.5Q2887 510 2864.0 549.0Q2841 588 2841 649V920ZM3706 920V420H3766L3775 508Q3793 461 3831.0 435.5Q3869 410 3922 410Q3936 410 3950.0 412.5Q3964 415 3974 422L3962 487Q3952 482 3939.5 479.5Q3927 477 3905 477Q3875 477 3845.5 496.5Q3816 516 3797.0 554.0Q3778 592 3778 647V920ZM4258 930Q4211 930 4171.0 911.5Q4131 893 4106.5 853.0Q4082 813 4082 749V420H4154V730Q4154 799 4183.0 833.0Q4212 867 4276 867Q4305 867 4331.5 856.0Q4358 845 4378.5 823.5Q4399 802 4411.0 770.0Q4423 738 4423 696V420H4495V920H4432L4428 837Q4412 868 4387.5 889.0Q4363 910 4330.5 920.0Q4298 930 4258 930ZM5067 420 4842 1006Q4826 1048 4806.5 1077.0Q4787 1106 4759.5 1120.5Q4732 1135 4692 1135Q4661 1135 4634.0 1125.5Q4607 1116 4587 1100L4608 1038Q4626 1056 4647.5 1064.0Q4669 1072 4689 1072Q4716 1072 4738.0 1055.0Q4760 1038 4779 988L4805 919L4756 799L4605 420H4686L4812 760L4839 843L4872 751L4990 420ZM5718 260Q5814 260 5872.5 313.5Q5931 367 5931 459Q5931 551 5872.5 604.5Q5814 658 5718 658H5569V920H5497V260ZM5707 590Q5783 590 5819.0 556.5Q5855 523 5855 459Q5855 395 5819.0 361.0Q5783 327 5707 327H5569V590ZM6068 920V420H6128L6137 508Q6155 461 6193.0 435.5Q6231 410 6284 410Q6298 410 6312.0 412.5Q6326 415 6336 422L6324 487Q6314 482 6301.5 479.5Q6289 477 6267 477Q6237 477 6207.5 496.5Q6178 516 6159.0 554.0Q6140 592 6140 647V920ZM6631 410Q6699 410 6751.0 441.0Q6803 472 6833.0 530.5Q6863 589 6863 670Q6863 751 6833.0 809.5Q6803 868 6751.0 899.0Q6699 930 6631 930Q6564 930 6511.5 899.0Q6459 868 6429.0 809.5Q6399 751 6399 670Q6399 589 6429.0 530.5Q6459 472 6511.5 441.0Q6564 410 6631 410ZM6631 472Q6582 472 6546.0 496.0Q6510 520 6490.5 564.0Q6471 608 6471 670Q6471 731 6490.5 775.5Q6510 820 6546.0 844.0Q6582 868 6631 868Q6681 868 6716.5 844.0Q6752 820 6771.5 775.5Q6791 731 6791 670Q6791 608 6771.5 564.0Q6752 520 6716.5 496.0Q6681 472 6631 472Z" fill="currentColor" /></svg>