<svg viewBox="0 0 2414 1012" xmlns="http://www.w3.org/2000/svg"><path d="M25 859V252H10L20 159H120V354L207 159H312L186 441L322 859H217L120 561V859ZM443 859Q397 859 369.5 832.5Q342 806 342 766V452Q342 411 369.5 385.0Q397 359 443 359H447Q474 359 495 372V359H590V766H604L614 859H495V820L470 859ZM442 452Q437 452 437 457V761Q437 766 442 766H495V452ZM753 359V403L780 359H847V456H753V859H658V452H634L644 359ZM973 859Q927 859 899.5 832.5Q872 806 872 766V452Q872 411 899.5 385.0Q927 359 973 359H977Q1004 359 1025 372V359H1120V766H1134L1144 859H1025V820L1000 859ZM972 452Q967 452 967 457V761Q967 766 972 766H1025V452ZM1183 859V452H1159L1169 359H1278V398L1303 359H1330Q1376 359 1403.5 385.0Q1431 411 1431 452V766H1456L1446 859H1336V457Q1336 452 1331 452H1278V859ZM1650 766V859H1592Q1550 859 1524.0 833.5Q1498 808 1498 766V452H1456L1464 359H1498V252H1473L1481 159H1593V359H1650L1642 452H1593V766ZM1770 226 1780 319H1685V226ZM1780 359V859H1685V452H1670L1680 359ZM1834 859V452H1810L1820 359H1929V398L1954 359H1981Q2027 359 2054.5 385.0Q2082 411 2082 452V766H2107L2097 859H1987V457Q1987 452 1982 452H1929V859ZM2233 859Q2187 859 2159.5 832.5Q2132 806 2132 766V452Q2132 411 2159.5 385.0Q2187 359 2233 359H2237Q2264 359 2285 372V359H2380V766H2394L2404 859H2285V820L2260 859ZM2232 452Q2227 452 2227 457V761Q2227 766 2232 766H2285V452Z" fill="currentColor" /></svg>