<svg viewBox="0 0 4327 1388" xmlns="http://www.w3.org/2000/svg"><path d="M722 108H938L136 934V714ZM362 638 972 1364H768L250 740ZM0 108H158V1364H0ZM1807 1364 1787 1154V744Q1787 615 1732.0 558.5Q1677 502 1567 502Q1505 502 1454.5 520.0Q1404 538 1374.5 575.5Q1345 613 1345 672H1171Q1171 568 1222.0 504.5Q1273 441 1362.5 412.5Q1452 384 1567 384Q1677 384 1762.0 421.0Q1847 458 1895.0 538.5Q1943 619 1943 748V1364ZM1481 1388Q1363 1388 1286.0 1346.0Q1209 1304 1171.0 1237.0Q1133 1170 1133 1096Q1133 999 1181.5 938.0Q1230 877 1314.0 848.5Q1398 820 1503 820Q1578 820 1653.5 835.0Q1729 850 1801 876V974Q1741 950 1665.5 936.0Q1590 922 1527 922Q1431 922 1365.0 961.5Q1299 1001 1299 1096Q1299 1166 1349.5 1216.0Q1400 1266 1511 1266Q1589 1266 1651.5 1229.5Q1714 1193 1750.5 1138.0Q1787 1083 1787 1028H1825Q1825 1124 1783.5 1206.0Q1742 1288 1665.0 1338.0Q1588 1388 1481 1388ZM2316 1364V406H2472V1364ZM2424 932Q2424 750 2459.0 629.5Q2494 509 2561.5 449.5Q2629 390 2726 390Q2758 390 2784.5 394.5Q2811 399 2838 408L2828 562Q2800 553 2767.0 546.5Q2734 540 2708 540Q2623 540 2571.0 588.5Q2519 637 2495.5 725.0Q2472 813 2472 932ZM3039 1364V0H3195V1364ZM4191 1364 4171 1154V744Q4171 615 4116.0 558.5Q4061 502 3951 502Q3889 502 3838.5 520.0Q3788 538 3758.5 575.5Q3729 613 3729 672H3555Q3555 568 3606.0 504.5Q3657 441 3746.5 412.5Q3836 384 3951 384Q4061 384 4146.0 421.0Q4231 458 4279.0 538.5Q4327 619 4327 748V1364ZM3865 1388Q3747 1388 3670.0 1346.0Q3593 1304 3555.0 1237.0Q3517 1170 3517 1096Q3517 999 3565.5 938.0Q3614 877 3698.0 848.5Q3782 820 3887 820Q3962 820 4037.5 835.0Q4113 850 4185 876V974Q4125 950 4049.5 936.0Q3974 922 3911 922Q3815 922 3749.0 961.5Q3683 1001 3683 1096Q3683 1166 3733.5 1216.0Q3784 1266 3895 1266Q3973 1266 4035.5 1229.5Q4098 1193 4134.5 1138.0Q4171 1083 4171 1028H4209Q4209 1124 4167.5 1206.0Q4126 1288 4049.0 1338.0Q3972 1388 3865 1388Z" /></svg>