<svg viewBox="0 0 5623.0 833.3333333333334" xmlns="http://www.w3.org/2000/svg"><path d="M323 496Q335 507 347.0 516.5Q359 526 368 535Q374 540 384.0 548.5Q394 557 402 560Q407 565 413.5 569.0Q420 573 424 577Q429 582 434.0 586.5Q439 591 442 597Q441 599 440 602Q438 607 435 610Q427 618 422.0 625.5Q417 633 412 638L404 646Q402 648 402 649Q397 649 393.0 645.0Q389 641 384 637Q371 629 366.5 624.5Q362 620 349 616Q346 614 338.5 610.0Q331 606 328 604Q315 600 303.0 591.0Q291 582 277 574L199 523Q189 518 180.5 512.0Q172 506 162 501Q155 497 150.5 493.5Q146 490 140 485Q132 480 123.0 475.0Q114 470 106 467L98 463V469Q98 477 96.5 484.0Q95 491 95 496Q94 522 92.0 547.5Q90 573 90 599Q90 607 89.5 615.0Q89 623 84 631H79Q67 631 59.0 630.5Q51 630 40 631Q32 632 26.0 631.5Q20 631 12 631Q11 628 9.0 626.0Q7 624 7 621Q9 603 6.5 565.0Q4 527 4 479Q4 466 4.5 454.0Q5 442 4 429Q2 413 2.0 397.0Q2 381 3 364V336Q3 321 2.0 305.5Q1 290 1 274Q1 266 1.5 258.0Q2 250 3 242Q3 234 1.5 225.0Q0 216 2 208Q2 205 2.5 190.0Q3 175 3.0 157.0Q3 139 2.5 121.5Q2 104 2 95L0 44Q5 39 6.5 38.5Q8 38 13 38Q15 38 16.0 38.5Q17 39 18 39Q19 39 29.0 39.5Q39 40 51.0 40.5Q63 41 73.5 41.5Q84 42 85 43Q86 51 86.0 56.0Q86 61 85.5 66.0Q85 71 84.5 77.5Q84 84 84 94V113Q80 141 79.5 169.5Q79 198 79 225Q78 255 76.5 268.5Q75 282 75 300V321Q75 326 74.5 329.0Q74 332 79 332L84 327Q89 322 94.0 315.5Q99 309 103 305Q104 303 109.0 297.5Q114 292 116 290Q127 272 135.5 264.0Q144 256 152 242Q158 233 163.5 224.0Q169 215 177 207Q177 207 179 205Q184 194 191.0 184.5Q198 175 205 164Q213 153 220.5 141.0Q228 129 236 118L295 31L307 13Q309 10 313.5 6.0Q318 2 321 0Q325 3 333.0 8.0Q341 13 352 21Q360 26 367.5 31.5Q375 37 380 49Q380 52 373.0 63.0Q366 74 358.0 86.5Q350 99 343.0 109.5Q336 120 335 122Q329 132 324.5 142.5Q320 153 315 158Q307 168 300.5 179.5Q294 191 287 202Q276 219 263.5 234.0Q251 249 239 264Q228 279 217.0 293.0Q206 307 203 309Q196 317 189.0 323.5Q182 330 175 337Q168 344 163.0 351.5Q158 359 153 365Q157 368 158.5 371.0Q160 374 165 377Q177 385 190.0 397.0Q203 409 215 417Q232 426 246.0 437.5Q260 449 277 463Q281 468 289.5 472.0Q298 476 306 485Q310 489 314.5 491.5Q319 494 323 496ZM594 514Q596 534 595.0 550.0Q594 566 592 580Q592 586 589 589Q579 591 566.0 592.5Q553 594 542 593Q533 592 524.0 593.5Q515 595 511 595Q511 589 510.0 584.0Q509 579 510 570Q511 562 510.5 553.0Q510 544 510 536V487Q509 464 509.0 440.0Q509 416 508 408Q507 399 508.5 390.0Q510 381 510 372Q509 358 509.5 343.5Q510 329 510 315Q510 303 509.0 283.5Q508 264 510 252Q518 250 530.0 250.0Q542 250 556 249Q567 248 578.0 248.0Q589 248 594 248Q596 248 595.5 253.5Q595 259 595 261Q594 286 595.0 304.5Q596 323 594 343Q595 363 594.5 377.5Q594 392 592 412Q592 415 592.0 428.0Q592 441 593.0 457.5Q594 474 594.0 489.5Q594 505 594 514ZM509 184Q508 179 508.5 169.0Q509 159 509 148Q509 143 508.5 139.0Q508 135 508 131Q508 129 508.5 128.0Q509 127 509 125H581Q586 125 587.0 125.5Q588 126 588 131V196Q582 197 569.5 197.0Q557 197 544.0 197.0Q531 197 520.5 196.5Q510 196 510 194Q509 191 509 184ZM683 473Q683 466 683.5 452.0Q684 438 683 425Q684 416 684.0 407.0Q684 398 684 388L681 307V262Q692 262 704.0 261.5Q716 261 731 263Q735 264 739 264H753Q760 266 760.0 265.5Q760 265 763 267Q763 272 762.0 274.5Q761 277 761 282V314Q765 309 766.5 305.5Q768 302 773 297L779 295Q792 282 811.0 278.0Q830 274 849 276Q853 276 862.0 279.5Q871 283 880 288Q887 289 892 292L895 295Q905 304 914.0 310.5Q923 317 927 327Q937 341 943.0 357.0Q949 373 954 392Q954 397 953.0 401.0Q952 405 947 405Q932 410 919.5 409.5Q907 409 886 411H875Q873 410 872.5 408.0Q872 406 872 405Q871 399 869.5 394.5Q868 390 868 387Q868 385 867.0 382.0Q866 379 865 377Q863 374 862 372Q843 353 825 353Q823 353 819.5 353.0Q816 353 813 355Q808 357 798.5 361.5Q789 366 786 369Q781 374 775.5 379.5Q770 385 767 392Q766 396 765.5 405.5Q765 415 765 417Q763 426 761.0 441.0Q759 456 759 467Q759 474 757.5 485.0Q756 496 756 505Q756 512 755.5 518.0Q755 524 755 530V568Q755 574 754.5 581.0Q754 588 754 595V617Q704 628 685 617Q683 610 682.0 599.5Q681 589 682 587Q684 569 683.0 551.0Q682 533 682 514Q681 504 682.0 493.0Q683 482 683 473ZM1373 625 1366 626Q1361 627 1359.5 626.5Q1358 626 1350 626Q1349 626 1344.0 627.0Q1339 628 1333.0 629.0Q1327 630 1320.0 629.5Q1313 629 1309 627Q1304 627 1302.0 626.0Q1300 625 1295 625Q1290 621 1289.5 613.0Q1289 605 1289 600V575L1281 586L1263 603Q1253 610 1246.5 614.5Q1240 619 1231 624Q1216 633 1198.5 636.0Q1181 639 1166 639Q1151 639 1134.5 633.0Q1118 627 1105 622Q1101 621 1097.5 618.5Q1094 616 1091 614Q1085 609 1077.5 604.0Q1070 599 1065 594Q1062 592 1059.5 589.5Q1057 587 1053 585Q1048 582 1044 575Q1039 564 1031.5 553.5Q1024 543 1019 529Q1016 518 1011.0 508.0Q1006 498 1006 489Q1006 484 1005.0 472.0Q1004 460 1004 455Q1004 446 1004.5 441.0Q1005 436 1005 426Q1005 421 1006.5 415.5Q1008 410 1010 401Q1012 390 1013.0 377.5Q1014 365 1016 357Q1023 344 1025.5 341.0Q1028 338 1030 330Q1032 324 1035.5 314.5Q1039 305 1046 300Q1049 298 1055.0 293.0Q1061 288 1067.5 282.0Q1074 276 1079.0 271.5Q1084 267 1086 267L1104 259Q1112 256 1122.0 254.5Q1132 253 1141 253L1172 252Q1177 252 1183.5 252.0Q1190 252 1192 253Q1197 253 1202.0 256.0Q1207 259 1212 259Q1217 259 1224.5 262.5Q1232 266 1237 271Q1247 275 1252.5 280.5Q1258 286 1263 291Q1268 296 1272.5 300.5Q1277 305 1282 310Q1282 313 1286 315Q1288 316 1289 317Q1291 315 1291.5 309.0Q1292 303 1295 298Q1296 284 1296.5 272.5Q1297 261 1298 257Q1297 253 1299.0 245.5Q1301 238 1306 240Q1308 239 1315.0 240.0Q1322 241 1331.0 242.5Q1340 244 1349.5 245.0Q1359 246 1366 246Q1367 246 1367.0 251.0Q1367 256 1366 259L1372 355V463Q1372 466 1371.5 469.0Q1371 472 1371 475Q1372 484 1372.0 493.5Q1372 503 1372 513Q1373 520 1372.5 527.5Q1372 535 1372 543Q1372 549 1372.5 559.5Q1373 570 1373.0 581.0Q1373 592 1373.0 602.5Q1373 613 1373 620ZM1244 474V471Q1244 465 1246.0 444.5Q1248 424 1237 394Q1234 386 1228.0 377.0Q1222 368 1209 363Q1202 361 1196.0 358.5Q1190 356 1183 357Q1176 359 1165.5 366.0Q1155 373 1148 383Q1143 388 1142.0 394.0Q1141 400 1140 408Q1137 421 1135.5 428.0Q1134 435 1134 446Q1134 466 1145.5 481.0Q1157 496 1160 501Q1163 504 1165.5 504.5Q1168 505 1173 510Q1183 515 1192.0 511.5Q1201 508 1212 503H1218Q1227 498 1233.0 493.0Q1239 488 1244 478ZM1471 260Q1471 257 1470.0 254.0Q1469 251 1470 248Q1471 248 1473.5 247.5Q1476 247 1478 247H1484Q1489 246 1494.0 246.5Q1499 247 1504 246H1534Q1536 246 1538.0 248.0Q1540 250 1541 251L1543 260Q1543 263 1544 267Q1546 275 1546 284Q1547 287 1547 290Q1547 296 1548 296Q1552 292 1554.0 287.5Q1556 283 1559 281Q1562 278 1563.5 277.0Q1565 276 1566.5 275.0Q1568 274 1571.0 272.5Q1574 271 1580 267Q1589 262 1596.5 259.0Q1604 256 1620 248Q1623 247 1630.5 245.0Q1638 243 1647.0 241.5Q1656 240 1665.5 239.5Q1675 239 1682 239Q1693 240 1700.0 241.5Q1707 243 1719 245Q1724 246 1735.5 247.0Q1747 248 1751 250Q1776 264 1791.0 274.0Q1806 284 1817 301Q1819 303 1823.0 305.5Q1827 308 1832 313Q1837 318 1841.5 326.5Q1846 335 1846 337Q1850 354 1855.0 364.5Q1860 375 1861 392Q1862 400 1866.0 409.5Q1870 419 1870 429Q1870 439 1871.0 451.5Q1872 464 1870 487Q1870 494 1870.5 500.0Q1871 506 1871 512V558Q1871 565 1871.0 571.0Q1871 577 1870 583Q1870 591 1870.5 597.0Q1871 603 1871 611Q1871 613 1871.0 615.5Q1871 618 1869 619Q1867 620 1863.5 620.0Q1860 620 1858 620Q1849 620 1841.0 620.5Q1833 621 1824 620L1794 617Q1790 616 1783.0 617.0Q1776 618 1774 614Q1773 591 1773.5 581.5Q1774 572 1774 564Q1774 559 1773.0 551.5Q1772 544 1771 531L1774 478Q1774 468 1773.5 462.5Q1773 457 1772.5 453.5Q1772 450 1771.5 445.0Q1771 440 1771 429Q1771 411 1764.5 393.0Q1758 375 1749 357Q1744 347 1736.0 339.0Q1728 331 1715 325Q1713 324 1710.0 323.0Q1707 322 1705 322L1682 320Q1665 319 1647.0 326.0Q1629 333 1625 340Q1618 352 1614.0 358.0Q1610 364 1606 370Q1605 373 1603.0 380.5Q1601 388 1598.5 398.5Q1596 409 1594.0 420.5Q1592 432 1592 441Q1592 448 1592.0 454.5Q1592 461 1591 467L1589 495L1583 533Q1583 543 1583.0 554.5Q1583 566 1582 576V599Q1576 603 1572 603Q1561 605 1556.5 607.0Q1552 609 1540 608Q1529 607 1511.0 608.5Q1493 610 1482 608Q1471 606 1471.0 605.5Q1471 605 1471 600Q1471 596 1471.5 587.5Q1472 579 1472.0 569.5Q1472 560 1472.5 551.0Q1473 542 1473 537Q1473 519 1472.0 507.0Q1471 495 1471 477Q1471 462 1470.5 452.5Q1470 443 1469 428Q1469 420 1470.0 407.5Q1471 395 1471 381Q1471 364 1470.5 348.0Q1470 332 1470 324Q1469 307 1469.0 291.5Q1469 276 1471 260ZM1959 330Q1959 328 1962.5 317.0Q1966 306 1967 305Q1969 300 1970.0 296.5Q1971 293 1976 286Q1980 281 1986.5 274.0Q1993 267 1995 264Q1999 258 2004 253Q2008 248 2016.0 243.0Q2024 238 2029 233Q2043 229 2053.5 225.0Q2064 221 2074 221Q2094 221 2112.5 222.0Q2131 223 2145 228Q2160 228 2170.0 231.5Q2180 235 2190 240Q2195 250 2203.0 255.5Q2211 261 2216 266L2222 272Q2229 267 2228.5 261.0Q2228 255 2230 250Q2232 244 2232.0 239.5Q2232 235 2234 233Q2237 232 2241.0 232.5Q2245 233 2249 233Q2258 233 2272.0 232.0Q2286 231 2293 233Q2295 234 2297.0 236.5Q2299 239 2299 240V247Q2299 253 2299.5 262.5Q2300 272 2300.0 281.5Q2300 291 2299.5 300.0Q2299 309 2299 315Q2299 320 2298.5 332.0Q2298 344 2298.0 357.5Q2298 371 2298.0 382.0Q2298 393 2299 394Q2299 404 2298.0 416.0Q2297 428 2298 433L2299 465Q2300 472 2298.5 487.0Q2297 502 2299 521Q2300 528 2299.5 541.5Q2299 555 2298.5 569.5Q2298 584 2297.5 596.5Q2297 609 2297 614Q2297 633 2290.5 652.5Q2284 672 2279 691Q2274 701 2269.0 710.0Q2264 719 2254 730Q2250 735 2245.0 742.5Q2240 750 2235 755Q2230 762 2217.5 770.5Q2205 779 2200 787Q2195 793 2183.0 797.0Q2171 801 2166 802L2131 814Q2122 819 2112.5 822.5Q2103 826 2089 827Q2087 827 2085.0 826.5Q2083 826 2081 827Q2071 827 2064.5 829.5Q2058 832 2048 832H2042Q2028 832 2023.5 831.5Q2019 831 2002 832Q2001 832 1996.0 833.0Q1991 834 1991 832Q1991 813 1989.5 797.0Q1988 781 1988 766L1995 760H2029Q2043 755 2054.5 754.0Q2066 753 2081 748Q2095 739 2106.5 730.0Q2118 721 2132 716Q2142 707 2151.0 697.5Q2160 688 2165 678Q2174 669 2176.5 659.0Q2179 649 2184 639Q2184 630 2187.0 620.5Q2190 611 2190 601V575Q2190 570 2187 573Q2185 574 2184 575Q2170 584 2151.0 585.5Q2132 587 2113 587H2106Q2092 586 2079 581Q2066 578 2057.0 575.0Q2048 572 2037 566Q2034 564 2028.0 561.5Q2022 559 2008 551L1996 537L1974 513Q1971 508 1968.5 500.0Q1966 492 1962 481Q1960 475 1957.0 468.0Q1954 461 1952 453V369Q1952 364 1954.5 355.5Q1957 347 1957 343Q1957 341 1958 339Q1958 337 1958.5 335.0Q1959 333 1959 330ZM2113 440Q2118 440 2122.5 439.0Q2127 438 2132 433Q2134 429 2133.5 424.5Q2133 420 2135 418Q2140 410 2139.0 408.0Q2138 406 2138 401Q2138 396 2134.5 388.5Q2131 381 2126 376Q2121 371 2119.0 371.0Q2117 371 2106 376Q2099 383 2099 405Q2099 407 2098.5 414.0Q2098 421 2100 427Q2100 429 2105.0 434.5Q2110 440 2113 440ZM2815 346Q2815 347 2822.0 346.5Q2829 346 2838 346H2950Q2958 346 2964.5 343.0Q2971 340 2979 340V334Q2981 325 2982.0 307.0Q2983 289 2983 280Q2983 272 2982.0 263.5Q2981 255 2981 247Q2982 239 2981.0 231.5Q2980 224 2980 216V170Q2980 167 2980.5 156.5Q2981 146 2980 135Q2980 119 2981.0 108.5Q2982 98 2980 80Q2981 76 2980.0 72.5Q2979 69 2979 64Q2979 62 2978.5 60.5Q2978 59 2978 57Q2978 53 2978.0 49.0Q2978 45 2979 40H3086Q3091 45 3091.5 48.5Q3092 52 3092 57Q3092 71 3091.5 83.5Q3091 96 3091 107Q3091 125 3088.5 145.5Q3086 166 3086 188Q3086 196 3087.0 208.0Q3088 220 3086 230Q3083 255 3082.5 278.0Q3082 301 3082 324Q3082 344 3084.0 364.5Q3086 385 3086 402Q3084 409 3084.0 426.5Q3084 444 3084.5 464.0Q3085 484 3085.5 502.0Q3086 520 3086 527V629Q3064 629 3046.5 631.5Q3029 634 3011 634Q3003 634 2997.5 634.5Q2992 635 2984 640L2979 634Q2980 627 2980.0 615.0Q2980 603 2979.5 589.5Q2979 576 2979.0 564.0Q2979 552 2979 545Q2980 522 2980.5 498.5Q2981 475 2981 452Q2981 453 2980.5 447.0Q2980 441 2980.0 433.5Q2980 426 2979.5 419.0Q2979 412 2979 410Q2979 406 2976.5 407.0Q2974 408 2970 407Q2959 405 2952.0 406.5Q2945 408 2935 408Q2929 408 2920.0 408.5Q2911 409 2901.5 409.5Q2892 410 2883.0 411.0Q2874 412 2868 412L2824 413Q2819 413 2815.5 412.5Q2812 412 2808 413Q2805 413 2805 417Q2805 419 2806 420Q2806 432 2807.0 444.5Q2808 457 2808 471V498Q2808 524 2807.5 549.0Q2807 574 2803 600V629Q2798 633 2793.5 633.5Q2789 634 2781 634Q2773 634 2761.0 634.5Q2749 635 2741 640H2712Q2707 640 2703.0 638.5Q2699 637 2690 634V566Q2690 541 2689.5 534.0Q2689 527 2689 523Q2687 518 2688.0 511.0Q2689 504 2689 501Q2691 480 2689.5 457.5Q2688 435 2687 420Q2686 411 2686.0 402.5Q2686 394 2686 385Q2686 368 2687.5 351.5Q2689 335 2687 318Q2685 296 2688 282Q2689 278 2687.0 267.5Q2685 257 2685 245Q2685 229 2686.0 216.0Q2687 203 2687.5 191.0Q2688 179 2688.5 166.0Q2689 153 2688 137Q2688 133 2688.0 123.5Q2688 114 2688.5 103.0Q2689 92 2689.5 82.5Q2690 73 2690 69Q2690 60 2688.0 55.5Q2686 51 2686 47V40H2808Q2812 44 2814 48Q2815 50 2815 51Q2816 71 2815.0 90.0Q2814 109 2813 129Q2813 156 2814.5 182.0Q2816 208 2817 234Q2817 248 2816.5 263.0Q2816 278 2816 292Q2816 306 2815.0 323.0Q2814 340 2815 346ZM3531 625 3524 626Q3519 627 3517.5 626.5Q3516 626 3508 626Q3507 626 3502.0 627.0Q3497 628 3491.0 629.0Q3485 630 3478.0 629.5Q3471 629 3467 627Q3462 627 3460.0 626.0Q3458 625 3453 625Q3448 621 3447.5 613.0Q3447 605 3447 600V575L3439 586L3421 603Q3411 610 3404.5 614.5Q3398 619 3389 624Q3374 633 3356.5 636.0Q3339 639 3324 639Q3309 639 3292.5 633.0Q3276 627 3263 622Q3259 621 3255.5 618.5Q3252 616 3249 614Q3243 609 3235.5 604.0Q3228 599 3223 594Q3220 592 3217.5 589.5Q3215 587 3211 585Q3206 582 3202 575Q3197 564 3189.5 553.5Q3182 543 3177 529Q3174 518 3169.0 508.0Q3164 498 3164 489Q3164 484 3163.0 472.0Q3162 460 3162 455Q3162 446 3162.5 441.0Q3163 436 3163 426Q3163 421 3164.5 415.5Q3166 410 3168 401Q3170 390 3171.0 377.5Q3172 365 3174 357Q3181 344 3183.5 341.0Q3186 338 3188 330Q3190 324 3193.5 314.5Q3197 305 3204 300Q3207 298 3213.0 293.0Q3219 288 3225.5 282.0Q3232 276 3237.0 271.5Q3242 267 3244 267L3262 259Q3270 256 3280.0 254.5Q3290 253 3299 253L3330 252Q3335 252 3341.5 252.0Q3348 252 3350 253Q3355 253 3360.0 256.0Q3365 259 3370 259Q3375 259 3382.5 262.5Q3390 266 3395 271Q3405 275 3410.5 280.5Q3416 286 3421 291Q3426 296 3430.5 300.5Q3435 305 3440 310Q3440 313 3444 315Q3446 316 3447 317Q3449 315 3449.5 309.0Q3450 303 3453 298Q3454 284 3454.5 272.5Q3455 261 3456 257Q3455 253 3457.0 245.5Q3459 238 3464 240Q3466 239 3473.0 240.0Q3480 241 3489.0 242.5Q3498 244 3507.5 245.0Q3517 246 3524 246Q3525 246 3525.0 251.0Q3525 256 3524 259L3530 355V463Q3530 466 3529.5 469.0Q3529 472 3529 475Q3530 484 3530.0 493.5Q3530 503 3530 513Q3531 520 3530.5 527.5Q3530 535 3530 543Q3530 549 3530.5 559.5Q3531 570 3531.0 581.0Q3531 592 3531.0 602.5Q3531 613 3531 620ZM3402 474V471Q3402 465 3404.0 444.5Q3406 424 3395 394Q3392 386 3386.0 377.0Q3380 368 3367 363Q3360 361 3354.0 358.5Q3348 356 3341 357Q3334 359 3323.5 366.0Q3313 373 3306 383Q3301 388 3300.0 394.0Q3299 400 3298 408Q3295 421 3293.5 428.0Q3292 435 3292 446Q3292 466 3303.5 481.0Q3315 496 3318 501Q3321 504 3323.5 504.5Q3326 505 3331 510Q3341 515 3350.0 511.5Q3359 508 3370 503H3376Q3385 498 3391.0 493.0Q3397 488 3402 478ZM3915 409Q3915 414 3910 419Q3907 422 3901.0 423.0Q3895 424 3890 424Q3883 426 3873.0 426.0Q3863 426 3856 426Q3842 426 3835.0 426.5Q3828 427 3812 429L3752 434V446Q3752 457 3755.0 467.5Q3758 478 3766 489Q3771 497 3778.0 504.0Q3785 511 3792 513Q3798 515 3803 517Q3808 519 3812.5 520.5Q3817 522 3821 521Q3848 521 3860.5 515.0Q3873 509 3891 500Q3895 500 3899.5 496.0Q3904 492 3906 491Q3911 489 3920.5 481.0Q3930 473 3935 471Q3938 473 3937.0 484.5Q3936 496 3938 506V517V537Q3933 543 3930.5 545.5Q3928 548 3926.5 550.0Q3925 552 3922.0 555.0Q3919 558 3913 564Q3895 582 3875 588Q3864 594 3851.0 596.5Q3838 599 3830 602Q3825 603 3821.0 603.5Q3817 604 3813 604H3805Q3786 604 3768.0 603.5Q3750 603 3730 593Q3723 594 3710.5 589.0Q3698 584 3694 579Q3683 573 3674.5 564.0Q3666 555 3656 548Q3642 538 3636.0 527.0Q3630 516 3625 504Q3620 495 3616.0 484.0Q3612 473 3608 462Q3608 451 3607.5 441.0Q3607 431 3607 421V384Q3607 366 3614.5 341.0Q3622 316 3633 298Q3636 294 3640 290Q3643 286 3647.5 282.0Q3652 278 3657 273Q3660 272 3663.5 270.0Q3667 268 3674 264Q3677 262 3681.5 257.0Q3686 252 3694 250Q3705 246 3715.0 241.5Q3725 237 3730 237Q3737 237 3755.5 238.0Q3774 239 3791 240Q3800 241 3806.0 243.0Q3812 245 3815 245Q3823 246 3828.5 247.0Q3834 248 3840 250Q3858 256 3866.5 262.5Q3875 269 3881 276Q3885 281 3888.5 287.5Q3892 294 3896 299Q3901 305 3905.5 315.5Q3910 326 3912 336Q3914 344 3915.0 357.0Q3916 370 3916 380Q3916 390 3915.5 395.0Q3915 400 3915 409ZM3829 351Q3829 349 3829.0 343.5Q3829 338 3827 336Q3819 323 3804.5 320.5Q3790 318 3779 320Q3772 322 3770.0 325.0Q3768 328 3764 334Q3762 336 3761.0 338.0Q3760 340 3758 342Q3756 344 3755.5 347.5Q3755 351 3754 354Q3752 359 3752.0 361.0Q3752 363 3754 371Q3758 373 3769.5 374.5Q3781 376 3793.5 376.0Q3806 376 3817.5 374.5Q3829 373 3833 371Q3834 370 3831.5 365.5Q3829 361 3829 351ZM4006 473Q4006 466 4006.5 452.0Q4007 438 4006 425Q4007 416 4007.0 407.0Q4007 398 4007 388L4004 307V262Q4015 262 4027.0 261.5Q4039 261 4054 263Q4058 264 4062 264H4076Q4083 266 4083.0 265.5Q4083 265 4086 267Q4086 272 4085.0 274.5Q4084 277 4084 282V314Q4088 309 4089.5 305.5Q4091 302 4096 297L4102 295Q4115 282 4134.0 278.0Q4153 274 4172 276Q4176 276 4185.0 279.5Q4194 283 4203 288Q4210 289 4215 292L4218 295Q4228 304 4237.0 310.5Q4246 317 4250 327Q4260 341 4266.0 357.0Q4272 373 4277 392Q4277 397 4276.0 401.0Q4275 405 4270 405Q4255 410 4242.5 409.5Q4230 409 4209 411H4198Q4196 410 4195.5 408.0Q4195 406 4195 405Q4194 399 4192.5 394.5Q4191 390 4191 387Q4191 385 4190.0 382.0Q4189 379 4188 377Q4186 374 4185 372Q4166 353 4148 353Q4146 353 4142.5 353.0Q4139 353 4136 355Q4131 357 4121.5 361.5Q4112 366 4109 369Q4104 374 4098.5 379.5Q4093 385 4090 392Q4089 396 4088.5 405.5Q4088 415 4088 417Q4086 426 4084.0 441.0Q4082 456 4082 467Q4082 474 4080.5 485.0Q4079 496 4079 505Q4079 512 4078.5 518.0Q4078 524 4078 530V568Q4078 574 4077.5 581.0Q4077 588 4077 595V617Q4027 628 4008 617Q4006 610 4005.0 599.5Q4004 589 4005 587Q4007 569 4006.0 551.0Q4005 533 4005 514Q4004 504 4005.0 493.0Q4006 482 4006 473ZM4696 625 4689 626Q4684 627 4682.5 626.5Q4681 626 4673 626Q4672 626 4667.0 627.0Q4662 628 4656.0 629.0Q4650 630 4643.0 629.5Q4636 629 4632 627Q4627 627 4625.0 626.0Q4623 625 4618 625Q4613 621 4612.5 613.0Q4612 605 4612 600V575L4604 586L4586 603Q4576 610 4569.5 614.5Q4563 619 4554 624Q4539 633 4521.5 636.0Q4504 639 4489 639Q4474 639 4457.5 633.0Q4441 627 4428 622Q4424 621 4420.5 618.5Q4417 616 4414 614Q4408 609 4400.5 604.0Q4393 599 4388 594Q4385 592 4382.5 589.5Q4380 587 4376 585Q4371 582 4367 575Q4362 564 4354.5 553.5Q4347 543 4342 529Q4339 518 4334.0 508.0Q4329 498 4329 489Q4329 484 4328.0 472.0Q4327 460 4327 455Q4327 446 4327.5 441.0Q4328 436 4328 426Q4328 421 4329.5 415.5Q4331 410 4333 401Q4335 390 4336.0 377.5Q4337 365 4339 357Q4346 344 4348.5 341.0Q4351 338 4353 330Q4355 324 4358.5 314.5Q4362 305 4369 300Q4372 298 4378.0 293.0Q4384 288 4390.5 282.0Q4397 276 4402.0 271.5Q4407 267 4409 267L4427 259Q4435 256 4445.0 254.5Q4455 253 4464 253L4495 252Q4500 252 4506.5 252.0Q4513 252 4515 253Q4520 253 4525.0 256.0Q4530 259 4535 259Q4540 259 4547.5 262.5Q4555 266 4560 271Q4570 275 4575.5 280.5Q4581 286 4586 291Q4591 296 4595.5 300.5Q4600 305 4605 310Q4605 313 4609 315Q4611 316 4612 317Q4614 315 4614.5 309.0Q4615 303 4618 298Q4619 284 4619.5 272.5Q4620 261 4621 257Q4620 253 4622.0 245.5Q4624 238 4629 240Q4631 239 4638.0 240.0Q4645 241 4654.0 242.5Q4663 244 4672.5 245.0Q4682 246 4689 246Q4690 246 4690.0 251.0Q4690 256 4689 259L4695 355V463Q4695 466 4694.5 469.0Q4694 472 4694 475Q4695 484 4695.0 493.5Q4695 503 4695 513Q4696 520 4695.5 527.5Q4695 535 4695 543Q4695 549 4695.5 559.5Q4696 570 4696.0 581.0Q4696 592 4696.0 602.5Q4696 613 4696 620ZM4567 474V471Q4567 465 4569.0 444.5Q4571 424 4560 394Q4557 386 4551.0 377.0Q4545 368 4532 363Q4525 361 4519.0 358.5Q4513 356 4506 357Q4499 359 4488.5 366.0Q4478 373 4471 383Q4466 388 4465.0 394.0Q4464 400 4463 408Q4460 421 4458.5 428.0Q4457 435 4457 446Q4457 466 4468.5 481.0Q4480 496 4483 501Q4486 504 4488.5 504.5Q4491 505 4496 510Q4506 515 4515.0 511.5Q4524 508 4535 503H4541Q4550 498 4556.0 493.0Q4562 488 4567 478ZM4794 260Q4794 257 4793.0 254.0Q4792 251 4793 248Q4794 248 4796.5 247.5Q4799 247 4801 247H4807Q4812 246 4817.0 246.5Q4822 247 4827 246H4857Q4859 246 4861.0 248.0Q4863 250 4864 251L4866 260Q4866 263 4867 267Q4869 275 4869 284Q4870 287 4870 290Q4870 296 4871 296Q4875 292 4877.0 287.5Q4879 283 4882 281Q4885 278 4886.5 277.0Q4888 276 4889.5 275.0Q4891 274 4894.0 272.5Q4897 271 4903 267Q4912 262 4919.5 259.0Q4927 256 4943 248Q4946 247 4953.5 245.0Q4961 243 4970.0 241.5Q4979 240 4988.5 239.5Q4998 239 5005 239Q5016 240 5023.0 241.5Q5030 243 5042 245Q5047 246 5058.5 247.0Q5070 248 5074 250Q5099 264 5114.0 274.0Q5129 284 5140 301Q5142 303 5146.0 305.5Q5150 308 5155 313Q5160 318 5164.5 326.5Q5169 335 5169 337Q5173 354 5178.0 364.5Q5183 375 5184 392Q5185 400 5189.0 409.5Q5193 419 5193 429Q5193 439 5194.0 451.5Q5195 464 5193 487Q5193 494 5193.5 500.0Q5194 506 5194 512V558Q5194 565 5194.0 571.0Q5194 577 5193 583Q5193 591 5193.5 597.0Q5194 603 5194 611Q5194 613 5194.0 615.5Q5194 618 5192 619Q5190 620 5186.5 620.0Q5183 620 5181 620Q5172 620 5164.0 620.5Q5156 621 5147 620L5117 617Q5113 616 5106.0 617.0Q5099 618 5097 614Q5096 591 5096.5 581.5Q5097 572 5097 564Q5097 559 5096.0 551.5Q5095 544 5094 531L5097 478Q5097 468 5096.5 462.5Q5096 457 5095.5 453.5Q5095 450 5094.5 445.0Q5094 440 5094 429Q5094 411 5087.5 393.0Q5081 375 5072 357Q5067 347 5059.0 339.0Q5051 331 5038 325Q5036 324 5033.0 323.0Q5030 322 5028 322L5005 320Q4988 319 4970.0 326.0Q4952 333 4948 340Q4941 352 4937.0 358.0Q4933 364 4929 370Q4928 373 4926.0 380.5Q4924 388 4921.5 398.5Q4919 409 4917.0 420.5Q4915 432 4915 441Q4915 448 4915.0 454.5Q4915 461 4914 467L4912 495L4906 533Q4906 543 4906.0 554.5Q4906 566 4905 576V599Q4899 603 4895 603Q4884 605 4879.5 607.0Q4875 609 4863 608Q4852 607 4834.0 608.5Q4816 610 4805 608Q4794 606 4794.0 605.5Q4794 605 4794 600Q4794 596 4794.5 587.5Q4795 579 4795.0 569.5Q4795 560 4795.5 551.0Q4796 542 4796 537Q4796 519 4795.0 507.0Q4794 495 4794 477Q4794 462 4793.5 452.5Q4793 443 4792 428Q4792 420 4793.0 407.5Q4794 395 4794 381Q4794 364 4793.5 348.0Q4793 332 4793 324Q4792 307 4792.0 291.5Q4792 276 4794 260ZM5282 330Q5282 328 5285.5 317.0Q5289 306 5290 305Q5292 300 5293.0 296.5Q5294 293 5299 286Q5303 281 5309.5 274.0Q5316 267 5318 264Q5322 258 5327 253Q5331 248 5339.0 243.0Q5347 238 5352 233Q5366 229 5376.5 225.0Q5387 221 5397 221Q5417 221 5435.5 222.0Q5454 223 5468 228Q5483 228 5493.0 231.5Q5503 235 5513 240Q5518 250 5526.0 255.5Q5534 261 5539 266L5545 272Q5552 267 5551.5 261.0Q5551 255 5553 250Q5555 244 5555.0 239.5Q5555 235 5557 233Q5560 232 5564.0 232.5Q5568 233 5572 233Q5581 233 5595.0 232.0Q5609 231 5616 233Q5618 234 5620.0 236.5Q5622 239 5622 240V247Q5622 253 5622.5 262.5Q5623 272 5623.0 281.5Q5623 291 5622.5 300.0Q5622 309 5622 315Q5622 320 5621.5 332.0Q5621 344 5621.0 357.5Q5621 371 5621.0 382.0Q5621 393 5622 394Q5622 404 5621.0 416.0Q5620 428 5621 433L5622 465Q5623 472 5621.5 487.0Q5620 502 5622 521Q5623 528 5622.5 541.5Q5622 555 5621.5 569.5Q5621 584 5620.5 596.5Q5620 609 5620 614Q5620 633 5613.5 652.5Q5607 672 5602 691Q5597 701 5592.0 710.0Q5587 719 5577 730Q5573 735 5568.0 742.5Q5563 750 5558 755Q5553 762 5540.5 770.5Q5528 779 5523 787Q5518 793 5506.0 797.0Q5494 801 5489 802L5454 814Q5445 819 5435.5 822.5Q5426 826 5412 827Q5410 827 5408.0 826.5Q5406 826 5404 827Q5394 827 5387.5 829.5Q5381 832 5371 832H5365Q5351 832 5346.5 831.5Q5342 831 5325 832Q5324 832 5319.0 833.0Q5314 834 5314 832Q5314 813 5312.5 797.0Q5311 781 5311 766L5318 760H5352Q5366 755 5377.5 754.0Q5389 753 5404 748Q5418 739 5429.5 730.0Q5441 721 5455 716Q5465 707 5474.0 697.5Q5483 688 5488 678Q5497 669 5499.5 659.0Q5502 649 5507 639Q5507 630 5510.0 620.5Q5513 611 5513 601V575Q5513 570 5510 573Q5508 574 5507 575Q5493 584 5474.0 585.5Q5455 587 5436 587H5429Q5415 586 5402 581Q5389 578 5380.0 575.0Q5371 572 5360 566Q5357 564 5351.0 561.5Q5345 559 5331 551L5319 537L5297 513Q5294 508 5291.5 500.0Q5289 492 5285 481Q5283 475 5280.0 468.0Q5277 461 5275 453V369Q5275 364 5277.5 355.5Q5280 347 5280 343Q5280 341 5281 339Q5281 337 5281.5 335.0Q5282 333 5282 330ZM5436 440Q5441 440 5445.5 439.0Q5450 438 5455 433Q5457 429 5456.5 424.5Q5456 420 5458 418Q5463 410 5462.0 408.0Q5461 406 5461 401Q5461 396 5457.5 388.5Q5454 381 5449 376Q5444 371 5442.0 371.0Q5440 371 5429 376Q5422 383 5422 405Q5422 407 5421.5 414.0Q5421 421 5423 427Q5423 429 5428.0 434.5Q5433 440 5436 440Z" fill="currentColor" /></svg>