<svg viewBox="0 0 3949 1554" xmlns="http://www.w3.org/2000/svg"><path d="M180 459Q199 413 234 426Q244 404 251.5 398.0Q259 392 267.0 388.5Q275 385 284.0 381.0Q293 377 312.0 374.0Q331 371 354.0 370.5Q377 370 400.5 373.0Q424 376 440 386Q479 409 457 460Q459 459 456 462L447 479L440 488Q435 493 409 549Q388 589 366 628Q330 695 322 714Q357 695 403 659Q490 592 514.0 579.0Q538 566 547.5 563.0Q557 560 566.0 561.5Q575 563 585 567L610 577Q634 585 636 635Q637 684 616 709Q525 827 411 867Q376 880 339 889Q392 895 440 959Q479 1011 496.5 1066.0Q514 1121 524.0 1147.5Q534 1174 532.5 1188.5Q531 1203 515.5 1210.5Q500 1218 463 1225Q446 1228 393 1185Q370 1166 344.0 1143.5Q318 1121 292 1101Q232 1054 208 1052Q206 1052 200 1050L182 1095Q168 1128 153.5 1164.5Q139 1201 119 1230Q88 1251 47 1247Q0 1242 -15 1209Q-25 1178 18 1027Q47 921 68.0 841.0Q89 761 104.0 708.5Q119 656 126.0 626.5Q133 597 140 569Q157 504 180 459ZM746 736Q813 709 836 735Q848 749 848 774V779Q885 736 977 707Q1074 677 1137 690Q1219 707 1229 797Q1237 873 1194 990Q1180 1020 1172.5 1038.5Q1165 1057 1159 1072Q1146 1100 1118 1139Q1102 1169 1068.5 1185.0Q1035 1201 1002.5 1203.5Q970 1206 949.0 1193.5Q928 1181 937 1154Q960 1092 975.0 1041.0Q990 990 1006 954Q1021 903 1010 890Q1001 880 979 893Q960 905 952 921Q934 934 884 1025Q870 1050 856.5 1074.5Q843 1099 831.5 1120.0Q820 1141 811.5 1155.0Q803 1169 796.5 1173.5Q790 1178 785.5 1179.5Q781 1181 778.0 1183.0Q775 1185 773 1196Q769 1219 725 1230Q654 1248 597 1224Q578 1216 567 1202Q544 1156 646 889Q682 795 693 777Q718 739 725.5 734.0Q733 729 746 736ZM1580 1021Q1561 1030 1543.0 1035.0Q1525 1040 1501 1045Q1438 1058 1410 1060Q1413 1070 1440 1084Q1458 1087 1479.5 1078.5Q1501 1070 1524.5 1062.5Q1548 1055 1570.5 1054.0Q1593 1053 1613 1071Q1621 1089 1626.0 1092.0Q1631 1095 1635.0 1095.0Q1639 1095 1644.0 1098.0Q1649 1101 1658.5 1121.0Q1668 1141 1653.5 1159.0Q1639 1177 1609.0 1190.0Q1579 1203 1539.0 1211.0Q1499 1219 1459 1222Q1369 1229 1322 1208Q1254 1185 1234 1117Q1208 1027 1263 907Q1288 851 1342 787Q1389 731 1447 706Q1514 677 1587 679Q1665 681 1695 747Q1710 782 1701 845Q1685 927 1659 961Q1633 994 1580 1021ZM1522 863Q1469 852 1439 923Q1430 942 1425 963Q1459 967 1497 925Q1511 908 1518.0 890.5Q1525 873 1522 863ZM2188 804Q2181 862 2177.0 880.5Q2173 899 2171 914Q2170 922 2175.5 917.0Q2181 912 2190.5 898.5Q2200 885 2212.0 866.0Q2224 847 2235 827Q2260 779 2264 754Q2263 750 2263.5 746.5Q2264 743 2261.5 731.5Q2259 720 2263.0 703.0Q2267 686 2278 674Q2302 648 2349 654Q2391 656 2406 664Q2433 679 2456 718Q2467 742 2443 827Q2414 934 2349 1071Q2331 1107 2315.0 1132.0Q2299 1157 2269.0 1174.0Q2239 1191 2205 1198Q2130 1213 2078 1184Q2070 1177 2062.0 1172.0Q2054 1167 2043 1153Q2008 1106 2003 1022Q1988 1073 1967 1103Q1935 1145 1889 1187Q1840 1216 1777 1211Q1756 1210 1740 1202Q1726 1190 1720.0 1181.5Q1714 1173 1714 1147Q1714 1101 1738 1017Q1744 995 1752.5 964.0Q1761 933 1769 900Q1791 803 1793.5 778.5Q1796 754 1798 745Q1807 728 1826.0 719.0Q1845 710 1865.5 710.0Q1886 710 1903.0 720.0Q1920 730 1926 751H1927V752Q1957 808 1957 866Q1984 830 2004.5 812.5Q2025 795 2045 787Q2075 776 2090.5 774.0Q2106 772 2124.0 768.5Q2142 765 2159 765Q2198 767 2188 804ZM2880 740 2884 741Q2886 741 2886 742Q2912 732 2929 757Q2940 774 2946 809Q2948 857 2936 942Q2913 1114 2911 1147Q2913 1182 2868 1195Q2829 1207 2790 1194Q2749 1180 2756 1151Q2748 1166 2740.0 1172.5Q2732 1179 2708.5 1190.5Q2685 1202 2642.0 1209.5Q2599 1217 2556.0 1213.5Q2513 1210 2477.5 1192.5Q2442 1175 2430 1138Q2407 1066 2436 955Q2456 882 2508 826Q2568 762 2644 720Q2701 689 2754 683Q2772 681 2785.5 684.0Q2799 687 2814.5 690.0Q2830 693 2844 699Q2880 714 2880 740ZM2695 1005Q2702 991 2706.5 970.0Q2711 949 2719 924Q2638 957 2595 1005Q2548 1058 2601 1078Q2647 1090 2668 1063Q2677 1051 2684.0 1033.0Q2691 1015 2701 996Q2698 1001 2695 1005ZM3179 725Q3184 785 3188.0 845.5Q3192 906 3200 966Q3218 929 3233.5 888.0Q3249 847 3267 807Q3310 713 3362 669Q3394 634 3458 634Q3496 634 3506 658Q3511 670 3503 690Q3552 725 3524 771Q3516 783 3508 793Q3465 865 3429 926Q3370 1027 3323 1099Q3307 1123 3278.5 1152.5Q3250 1182 3216 1203Q3136 1255 3089 1222Q3058 1218 3031.0 1202.0Q3004 1186 2990 1160Q2969 1105 3000 908Q3007 864 3009.0 842.0Q3011 820 3014.0 802.0Q3017 784 3019.0 768.0Q3021 752 3023.0 735.5Q3025 719 3032 705Q3049 673 3094 670H3106Q3124 674 3140 679Q3167 689 3176 717Q3177 720 3179 725ZM3816 1021Q3797 1030 3779.0 1035.0Q3761 1040 3737 1045Q3674 1058 3646 1060Q3649 1070 3676 1084Q3694 1087 3715.5 1078.5Q3737 1070 3760.5 1062.5Q3784 1055 3806.5 1054.0Q3829 1053 3849 1071Q3857 1089 3862.0 1092.0Q3867 1095 3871.0 1095.0Q3875 1095 3880.0 1098.0Q3885 1101 3894.5 1121.0Q3904 1141 3889.5 1159.0Q3875 1177 3845.0 1190.0Q3815 1203 3775.0 1211.0Q3735 1219 3695 1222Q3605 1229 3558 1208Q3490 1185 3470 1117Q3444 1027 3499 907Q3524 851 3578 787Q3625 731 3683 706Q3750 677 3823 679Q3901 681 3931 747Q3946 782 3937 845Q3921 927 3895 961Q3869 994 3816 1021ZM3758 863Q3705 852 3675 923Q3666 942 3661 963Q3695 967 3733 925Q3747 908 3754.0 890.5Q3761 873 3758 863Z" fill="currentColor" /></svg>