<svg viewBox="0 0 5400 1280" xmlns="http://www.w3.org/2000/svg"><path d="M451 280 109 635V280H29V980H109V739L231 611L485 980H571L282 558L556 280ZM760 449H1043L1123 569V897L1043 980H761L680 860V532ZM759 850 799 908H1011L1041 876V578L1003 521H790L759 554ZM1642 231H1723V980H1642V932L1562 980H1363L1280 859V533L1361 448H1561L1642 496ZM1361 849 1399 907H1613L1642 877V578L1604 521H1392L1361 553ZM1958 449 1878 532V860L1959 980H2239L2309 908L2265 853L2209 908H1997L1958 850V738H2156L2321 568L2238 449ZM1958 553 1990 521H2201L2227 560L2126 666H1958ZM3079 280V980H3159V436L3255 578V580H3342V489L3441 385V980H3522V280H3441L3264 463L3159 308V280ZM3760 449H4043L4123 569V897L4043 980H3761L3680 860V532ZM3759 850 3799 908H4011L4041 876V578L4003 521H3790L3759 554ZM4279 449V980H4359V553L4390 521H4603L4641 577V980H4722V567L4641 449H4440L4359 497V449ZM4960 449H5243L5323 569V897L5243 980H4961L4880 860V532ZM4959 850 4999 908H5211L5241 876V578L5203 521H4990L4959 554Z" fill="currentColor" /></svg>