<svg viewBox="0 0 5419 3700" xmlns="http://www.w3.org/2000/svg"><path d="M321 2500H89Q81 2500 81 2490L85 1085Q85 1075 93 1075H323Q331 1075 331 1085V1570L652 1083Q660 1075 667 1075H902Q911 1075 906 1083L552 1648L949 2492Q954 2500 939 2500H689Q679 2500 677 2492L400 1890L329 2002V2490Q329 2500 321 2500ZM1379 2520Q1270 2520 1178 2464Q1087 2408 1031.5 2314.5Q976 2221 976 2109L978 1460Q978 1346 1033 1255Q1087 1163 1179.0 1107.5Q1271 1052 1379 1052Q1491 1052 1580 1107Q1670 1162 1724.5 1254.5Q1779 1347 1779 1460L1781 2109Q1781 2221 1727 2314Q1672 2408 1581.0 2464.0Q1490 2520 1379 2520ZM1379 2273Q1441 2273 1487.0 2222.5Q1533 2172 1533 2109L1531 1460Q1531 1392 1488.0 1345.0Q1445 1298 1379 1298Q1316 1298 1271.0 1344.0Q1226 1390 1226 1460V2109Q1226 2176 1271.0 2224.5Q1316 2273 1379 2273ZM2312 2520Q2204 2520 2112 2464Q2020 2408 1965.5 2313.5Q1911 2219 1911 2107L1915 1083Q1915 1075 1923 1075H2153Q2161 1075 2161 1083V2107Q2161 2176 2205.0 2224.5Q2249 2273 2312 2273Q2378 2273 2422.0 2224.5Q2466 2176 2466 2107V1083Q2466 1075 2474 1075H2704Q2712 1075 2712 1083L2716 2107Q2716 2220 2662 2315Q2607 2409 2516.0 2464.5Q2425 2520 2312 2520ZM3547 2500H2885Q2877 2500 2877 2490L2879 1085Q2879 1075 2889 1075H3117Q3127 1075 3127 1085L3125 2248H3547Q3557 2248 3557 2258V2490Q3557 2500 3547 2500ZM4360 2500H3698Q3690 2500 3690 2490L3692 1083Q3692 1075 3700 1075H4358Q4366 1075 4366 1085V1314Q4366 1322 4358 1322H3938V1642H4358Q4366 1642 4366 1650L4368 1882Q4368 1890 4360 1890H3938V2248H4360Q4368 2248 4368 2258V2492Q4368 2500 4360 2500ZM4773 2500H4568Q4552 2500 4552 2486L4550 1091Q4550 1075 4566 1075H4751L5097 1882L5087 1091Q5087 1075 5105 1075H5308Q5320 1075 5320 1091L5322 2488Q5322 2500 5312 2500H5132L4777 1746L4792 2484Q4792 2500 4773 2500Z" fill="currentColor" /></svg>