<svg viewBox="0 0 3405.3508771929824 963" xmlns="http://www.w3.org/2000/svg"><path d="M39.66666666666667 0Q41.66666666666667 8 45.16666666666667 6.0Q48.66666666666667 4 52.66666666666667 4Q56.66666666666667 6 59.66666666666667 8.0Q62.66666666666667 10 67.66666666666667 11Q77.66666666666667 14 87.66666666666667 12.5Q97.66666666666667 11 108.66666666666667 10Q110.66666666666667 9 114.16666666666667 9.5Q117.66666666666667 10 119.66666666666667 10Q128.66666666666666 5 132.16666666666666 6.5Q135.66666666666666 8 139.66666666666666 8Q190.66666666666666 10 242.66666666666666 8Q247.66666666666666 7 252.66666666666669 8.5Q257.6666666666667 10 262.6666666666667 6Q264.6666666666667 8 268.1666666666667 8.0Q271.6666666666667 8 273.6666666666667 10Q279.6666666666667 5 287.6666666666667 7.5Q295.6666666666667 10 301.6666666666667 11Q304.6666666666667 24 305.1666666666667 29.0Q305.6666666666667 34 304.1666666666667 36.0Q302.6666666666667 38 299.6666666666667 40.0Q296.6666666666667 42 294.6666666666667 49Q283.6666666666667 50 273.6666666666667 43Q265.6666666666667 43 256.1666666666667 44.5Q246.66666666666666 46 238.66666666666666 45Q227.66666666666666 43 218.16666666666666 43.0Q208.66666666666666 43 205.66666666666666 47Q201.66666666666666 49 204.16666666666666 53.0Q206.66666666666666 57 206.66666666666666 60Q207.66666666666666 63 206.16666666666666 66.0Q204.66666666666666 69 205.66666666666666 73Q205.66666666666666 76 207.16666666666666 78.5Q208.66666666666666 81 208.66666666666666 84Q207.66666666666666 95 208.66666666666666 98.5Q209.66666666666666 102 210.66666666666666 106Q213.66666666666666 120 216.66666666666666 135.0Q219.66666666666666 150 219.66666666666666 164Q220.66666666666666 170 223.66666666666666 176.0Q226.66666666666666 182 227.66666666666666 188Q225.66666666666666 200 226.66666666666666 201.5Q227.66666666666666 203 227.66666666666666 205Q227.66666666666666 212 227.16666666666666 218.0Q226.66666666666666 224 227.66666666666666 231Q227.66666666666666 235 228.66666666666666 238.5Q229.66666666666666 242 229.66666666666666 246Q228.66666666666666 250 227.16666666666666 252.5Q225.66666666666666 255 225.66666666666666 259Q224.66666666666666 279 227.66666666666666 304Q227.66666666666666 307 229.16666666666666 310.0Q230.66666666666666 313 231.66666666666666 317Q229.66666666666666 324 231.66666666666666 328.0Q233.66666666666666 332 234.66666666666666 337Q236.66666666666666 347 235.16666666666666 357.5Q233.66666666666666 368 234.66666666666666 378Q237.66666666666666 380 242.66666666666666 376.0Q247.66666666666666 372 253.16666666666669 366.0Q258.6666666666667 360 262.6666666666667 354.0Q266.6666666666667 348 266.6666666666667 345Q271.6666666666667 345 273.1666666666667 340.5Q274.6666666666667 336 277.6666666666667 334Q290.6666666666667 327 292.6666666666667 323.0Q294.6666666666667 319 298.6666666666667 315Q307.6666666666667 307 307.6666666666667 305.5Q307.6666666666667 304 309.6666666666667 302Q314.6666666666667 295 321.6666666666667 290.0Q328.6666666666667 285 333.6666666666667 278Q337.6666666666667 266 341.6666666666667 263.5Q345.6666666666667 261 346.6666666666667 255Q357.6666666666667 250 364.1666666666667 241.0Q370.6666666666667 232 381.6666666666667 227Q383.6666666666667 222 387.1666666666667 219.0Q390.6666666666667 216 393.6666666666667 211Q398.6666666666667 206 402.6666666666667 200.5Q406.6666666666667 195 411.6666666666667 190Q413.6666666666667 188 416.6666666666667 186.5Q419.6666666666667 185 421.6666666666667 183Q426.6666666666667 175 431.6666666666667 170.5Q436.6666666666667 166 443.6666666666667 160Q448.6666666666667 156 451.1666666666667 151.0Q453.6666666666667 146 460.6666666666667 144Q461.6666666666667 140 463.1666666666667 137.0Q464.6666666666667 134 465.6666666666667 131Q471.6666666666667 127 476.6666666666667 122.5Q481.6666666666667 118 486.6666666666667 114Q488.6666666666667 112 492.6666666666667 111.0Q496.6666666666667 110 495.6666666666667 105Q494.6666666666667 104 490.6666666666667 103.0Q486.6666666666667 102 481.6666666666667 100.5Q476.6666666666667 99 471.6666666666667 98.0Q466.6666666666667 97 465.6666666666667 97Q462.6666666666667 96 459.6666666666667 97.0Q456.6666666666667 98 452.6666666666667 97Q443.6666666666667 93 437.6666666666667 93.5Q431.6666666666667 94 430.6666666666667 95Q416.6666666666667 99 413.6666666666667 102.0Q410.6666666666667 105 404.6666666666667 103Q393.6666666666667 99 392.1666666666667 88.0Q390.6666666666667 77 396.6666666666667 69Q403.6666666666667 69 409.1666666666667 66.0Q414.6666666666667 63 421.6666666666667 62Q426.6666666666667 61 429.1666666666667 61.5Q431.6666666666667 62 434.1666666666667 62.5Q436.6666666666667 63 440.1666666666667 62.5Q443.6666666666667 62 450.6666666666667 60Q460.6666666666667 62 463.1666666666667 63.5Q465.6666666666667 65 467.6666666666667 65Q479.6666666666667 66 482.6666666666667 67.5Q485.6666666666667 69 488.6666666666667 69Q494.6666666666667 70 500.6666666666667 68.5Q506.6666666666667 67 512.6666666666666 69Q515.6666666666666 70 518.1666666666666 71.0Q520.6666666666666 72 523.6666666666666 73Q524.6666666666666 73 530.1666666666666 73.0Q535.6666666666666 73 542.6666666666666 72.5Q549.6666666666666 72 555.1666666666666 71.5Q560.6666666666666 71 562.6666666666666 71Q567.6666666666666 70 572.1666666666666 69.0Q576.6666666666666 68 581.6666666666666 67Q582.6666666666666 68 588.6666666666666 66.5Q594.6666666666666 65 596.6666666666666 65Q600.6666666666666 66 604.6666666666666 67.5Q608.6666666666666 69 612.6666666666666 69Q616.6666666666666 69 620.1666666666666 68.0Q623.6666666666666 67 627.6666666666666 67Q635.6666666666666 67 641.6666666666666 68.0Q647.6666666666666 69 653.6666666666666 64Q670.6666666666666 72 689.6666666666666 67Q692.6666666666666 70 691.1666666666666 77.0Q689.6666666666666 84 694.6666666666666 86Q691.6666666666666 95 682.1666666666666 97.5Q672.6666666666666 100 665.6666666666666 105Q661.6666666666666 104 658.6666666666666 102.5Q655.6666666666666 101 652.6666666666666 101Q637.6666666666666 100 634.1666666666666 102.0Q630.6666666666666 104 625.6666666666666 99Q607.6666666666666 101 589.6666666666666 102.0Q571.6666666666666 103 553.6666666666666 106Q549.6666666666666 107 549.6666666666666 110.5Q549.6666666666666 114 547.6666666666666 116Q540.6666666666666 117 531.6666666666666 124.5Q522.6666666666666 132 519.6666666666666 138Q514.6666666666666 140 504.66666666666663 146.0Q494.6666666666667 152 491.6666666666667 157Q481.6666666666667 172 474.1666666666667 178.0Q466.6666666666667 184 458.6666666666667 190Q456.6666666666667 195 454.1666666666667 197.5Q451.6666666666667 200 450.6666666666667 205Q447.6666666666667 206 442.6666666666667 210.0Q437.6666666666667 214 432.1666666666667 219.0Q426.6666666666667 224 422.1666666666667 229.0Q417.6666666666667 234 415.6666666666667 237Q413.6666666666667 240 412.1666666666667 243.5Q410.6666666666667 247 408.6666666666667 250Q403.6666666666667 255 396.6666666666667 258.5Q389.6666666666667 262 383.6666666666667 267Q380.6666666666667 269 379.6666666666667 275.0Q378.6666666666667 281 370.6666666666667 281Q371.6666666666667 287 376.6666666666667 289.0Q381.6666666666667 291 381.6666666666667 296Q385.6666666666667 300 387.1666666666667 304.5Q388.6666666666667 309 394.6666666666667 309Q396.6666666666667 314 397.6666666666667 318.0Q398.6666666666667 322 400.6666666666667 326Q407.6666666666667 334 407.1666666666667 335.5Q406.6666666666667 337 408.6666666666667 339L415.6666666666667 348Q418.6666666666667 355 422.6666666666667 362Q426.6666666666667 375 428.6666666666667 378.0Q430.6666666666667 381 430.6666666666667 386Q435.6666666666667 390 438.6666666666667 394.0Q441.6666666666667 398 441.6666666666667 404Q446.6666666666667 409 451.1666666666667 413.5Q455.6666666666667 418 460.6666666666667 423Q462.6666666666667 425 464.1666666666667 431.0Q465.6666666666667 437 467.6666666666667 440Q470.6666666666667 445 474.6666666666667 449.0Q478.6666666666667 453 478.6666666666667 458Q484.6666666666667 463 490.6666666666667 470.5Q496.6666666666667 478 501.6666666666667 484Q509.6666666666667 493 512.1666666666666 500.0Q514.6666666666666 507 523.6666666666666 509Q526.6666666666666 525 538.6666666666666 533Q545.6666666666666 549 550.1666666666666 555.0Q554.6666666666666 561 558.6666666666666 568Q563.6666666666666 576 567.1666666666666 587.0Q570.6666666666666 598 579.6666666666666 602Q579.6666666666666 608 584.1666666666666 616.0Q588.6666666666666 624 593.6666666666666 633.0Q598.6666666666666 642 604.1666666666666 650.0Q609.6666666666666 658 612.6666666666666 663Q620.6666666666666 673 625.1666666666666 685.0Q629.6666666666666 697 633.6666666666666 702Q642.6666666666666 712 642.6666666666666 715.0Q642.6666666666666 718 646.6666666666666 717Q645.6666666666666 725 649.1666666666666 728.0Q652.6666666666666 731 657.6666666666666 734Q659.6666666666666 739 661.6666666666666 743.5Q663.6666666666666 748 668.6666666666666 749Q667.6666666666666 757 671.6666666666666 759.5Q675.6666666666666 762 676.6666666666666 768Q685.6666666666666 768 694.1666666666666 763.5Q702.6666666666666 759 711.6666666666666 764Q722.6666666666666 757 728.1666666666666 757.5Q733.6666666666666 758 737.6666666666666 756Q747.6666666666666 752 750.1666666666666 753.0Q752.6666666666666 754 754.6666666666666 755Q762.6666666666666 755 770.6666666666666 754.0Q778.6666666666666 753 786.6666666666666 758Q787.6666666666666 761 788.1666666666666 764.5Q788.6666666666666 768 791.6666666666666 769Q786.6666666666666 777 782.1666666666666 783.0Q777.6666666666666 789 771.6666666666666 796Q767.6666666666666 792 760.1666666666666 795.0Q752.6666666666666 798 747.6666666666666 796Q738.6666666666666 792 723.1666666666666 795.5Q707.6666666666666 799 700.6666666666666 805Q687.6666666666666 803 675.1666666666666 806.0Q662.6666666666666 809 650.6666666666666 809Q635.6666666666666 808 620.1666666666666 810.0Q604.6666666666666 812 590.6666666666666 816Q583.6666666666666 818 580.6666666666666 817.5Q577.6666666666666 817 575.6666666666666 822Q570.6666666666666 820 562.6666666666666 822.5Q554.6666666666666 825 545.6666666666666 827.0Q536.6666666666666 829 528.6666666666666 829.0Q520.6666666666666 829 516.6666666666666 822Q512.6666666666666 816 512.6666666666666 810Q512.6666666666666 802 518.6666666666666 801.0Q524.6666666666666 800 527.6666666666666 792Q541.6666666666666 794 554.6666666666666 791.0Q567.6666666666666 788 581.6666666666666 784Q583.6666666666666 783 586.6666666666666 783.5Q589.6666666666666 784 592.6666666666666 782Q607.6666666666666 777 615.1666666666666 777.5Q622.6666666666666 778 629.6666666666666 773Q631.6666666666666 767 627.1666666666666 766.0Q622.6666666666666 765 622.6666666666666 760Q618.6666666666666 747 616.1666666666666 745.5Q613.6666666666666 744 611.6666666666666 741Q609.6666666666666 739 608.1666666666666 735.5Q606.6666666666666 732 601.6666666666666 732Q602.6666666666666 728 601.1666666666666 726.0Q599.6666666666666 724 599.6666666666666 721Q596.6666666666666 719 595.1666666666666 715.5Q593.6666666666666 712 590.6666666666666 710Q591.6666666666666 705 589.6666666666666 703.0Q587.6666666666666 701 588.6666666666666 697Q585.6666666666666 692 582.1666666666666 688.5Q578.6666666666666 685 575.6666666666666 680Q570.6666666666666 671 569.1666666666666 671.0Q567.6666666666666 671 566.6666666666666 669Q564.6666666666666 666 564.1666666666666 661.5Q563.6666666666666 657 558.6666666666666 656Q559.6666666666666 652 557.6666666666666 650.0Q555.6666666666666 648 557.6666666666666 643Q555.6666666666666 640 552.6666666666666 638.0Q549.6666666666666 636 547.6666666666666 633Q544.6666666666666 628 543.6666666666666 620.5Q542.6666666666666 613 534.6666666666666 611Q531.6666666666666 585 508.6666666666667 566Q509.6666666666667 564 507.1666666666667 558.5Q504.6666666666667 553 500.1666666666667 546.5Q495.6666666666667 540 490.6666666666667 534.5Q485.6666666666667 529 482.6666666666667 527Q477.6666666666667 514 467.6666666666667 512Q463.6666666666667 501 462.1666666666667 497.0Q460.6666666666667 493 458.6666666666667 490Q452.6666666666667 482 447.1666666666667 474.5Q441.6666666666667 467 437.6666666666667 458Q435.6666666666667 455 435.1666666666667 451.5Q434.6666666666667 448 432.6666666666667 445Q426.6666666666667 438 425.6666666666667 438.0Q424.6666666666667 438 422.6666666666667 436Q418.6666666666667 426 415.1666666666667 422.5Q411.6666666666667 419 408.6666666666667 416L400.6666666666667 404Q399.6666666666667 402 400.1666666666667 399.0Q400.6666666666667 396 398.6666666666667 393Q386.6666666666667 371 381.6666666666667 356.5Q376.6666666666667 342 363.6666666666667 334Q362.6666666666667 322 350.6666666666667 317Q344.6666666666667 317 339.6666666666667 322.5Q334.6666666666667 328 329.6666666666667 332Q321.6666666666667 336 319.6666666666667 340.5Q317.6666666666667 345 314.6666666666667 348Q311.6666666666667 353 307.6666666666667 357.5Q303.6666666666667 362 298.6666666666667 365Q296.6666666666667 367 293.6666666666667 368.0Q290.6666666666667 369 288.6666666666667 371Q286.6666666666667 373 285.1666666666667 376.5Q283.6666666666667 380 281.6666666666667 382Q276.6666666666667 388 271.1666666666667 392.5Q265.6666666666667 397 260.6666666666667 404Q258.6666666666667 411 255.66666666666666 414Q249.66666666666666 420 245.66666666666666 422.0Q241.66666666666666 424 242.66666666666666 429Q236.66666666666666 448 237.66666666666666 466.5Q238.66666666666666 485 240.66666666666666 496Q241.66666666666666 497 241.66666666666666 501.5Q241.66666666666666 506 241.66666666666666 511.5Q241.66666666666666 517 242.66666666666666 522.5Q243.66666666666666 528 247.66666666666666 531Q245.66666666666666 551 247.66666666666666 572.0Q249.66666666666666 593 247.66666666666666 613Q253.66666666666666 630 255.66666666666669 636.0Q257.6666666666667 642 259.6666666666667 650Q260.6666666666667 658 260.1666666666667 667.5Q259.6666666666667 677 266.6666666666667 682Q284.6666666666667 685 302.6666666666667 685.0Q320.6666666666667 685 339.6666666666667 687Q342.6666666666667 686 344.6666666666667 683.5Q346.6666666666667 681 350.6666666666667 680Q348.6666666666667 685 353.1666666666667 685.5Q357.6666666666667 686 359.6666666666667 689Q361.6666666666667 693 360.6666666666667 698.0Q359.6666666666667 703 361.6666666666667 708Q357.6666666666667 715 350.1666666666667 717.5Q342.6666666666667 720 337.6666666666667 725Q326.6666666666667 720 315.1666666666667 722.0Q303.6666666666667 724 292.6666666666667 723Q289.6666666666667 722 287.1666666666667 721.0Q284.6666666666667 720 281.6666666666667 719Q272.6666666666667 717 263.6666666666667 719.0Q254.66666666666666 721 245.66666666666666 721Q236.66666666666666 721 227.66666666666666 718.0Q218.66666666666666 715 208.66666666666666 715Q205.66666666666666 715 203.16666666666666 716.0Q200.66666666666666 717 197.66666666666666 717Q189.66666666666666 718 182.66666666666666 717.0Q175.66666666666666 716 167.66666666666666 719Q156.66666666666666 715 151.16666666666666 718.5Q145.66666666666666 722 141.66666666666666 715Q126.66666666666667 719 113.16666666666667 720.0Q99.66666666666667 721 83.66666666666667 721Q80.66666666666667 721 75.16666666666667 721.5Q69.66666666666667 722 63.66666666666667 723.0Q57.66666666666667 724 52.16666666666667 725.0Q46.66666666666667 726 44.66666666666667 727Q31.666666666666668 732 23.666666666666668 728.5Q15.666666666666668 725 7.666666666666668 727Q9.666666666666668 721 5.666666666666668 719.5Q1.6666666666666679 718 0.6666666666666679 714Q-1.3333333333333321 708 2.666666666666668 704.0Q6.666666666666668 700 9.666666666666668 695Q24.666666666666668 693 42.66666666666667 693.5Q60.66666666666667 694 74.66666666666667 689Q78.66666666666667 688 80.16666666666667 685.0Q81.66666666666667 682 83.66666666666667 680Q80.66666666666667 675 83.16666666666667 670.5Q85.66666666666667 666 85.66666666666667 661Q86.66666666666667 653 84.66666666666667 646.5Q82.66666666666667 640 89.66666666666667 632Q85.66666666666667 619 87.66666666666667 604.0Q89.66666666666667 589 87.66666666666667 576Q87.66666666666667 572 86.66666666666667 569.0Q85.66666666666667 566 85.66666666666667 563Q86.66666666666667 552 90.16666666666667 538.5Q93.66666666666667 525 85.66666666666667 514Q90.66666666666667 505 90.16666666666667 496.0Q89.66666666666667 487 89.66666666666667 477Q91.66666666666667 467 90.66666666666667 464.0Q89.66666666666667 461 89.66666666666667 458Q96.66666666666667 431 93.66666666666667 412Q99.66666666666667 379 102.66666666666667 354.5Q105.66666666666667 330 104.66666666666667 304Q104.66666666666667 301 105.66666666666667 298.0Q106.66666666666667 295 106.66666666666667 293Q106.66666666666667 290 105.66666666666667 287.0Q104.66666666666667 284 104.66666666666667 281Q104.66666666666667 279 105.66666666666667 276.0Q106.66666666666667 273 106.66666666666667 270Q106.66666666666667 266 105.16666666666667 262.5Q103.66666666666667 259 102.66666666666667 255Q101.66666666666667 245 103.16666666666667 235.5Q104.66666666666667 226 104.66666666666667 216Q104.66666666666667 213 103.66666666666667 210.0Q102.66666666666667 207 102.66666666666667 203Q102.66666666666667 200 103.66666666666667 197.5Q104.66666666666667 195 104.66666666666667 192Q102.66666666666667 180 104.16666666666667 178.0Q105.66666666666667 176 106.66666666666667 173Q107.66666666666667 168 107.66666666666667 163.0Q107.66666666666667 158 108.66666666666667 153Q108.66666666666667 145 107.66666666666667 137.0Q106.66666666666667 129 108.66666666666667 121Q109.66666666666667 116 110.16666666666667 110.5Q110.66666666666667 105 115.66666666666667 103Q117.66666666666667 94 117.66666666666667 85.0Q117.66666666666667 76 119.66666666666667 67Q120.66666666666667 62 123.66666666666667 55.0Q126.66666666666667 48 123.66666666666667 43Q103.66666666666667 41 82.16666666666667 43.5Q60.66666666666667 46 42.66666666666667 36Q38.66666666666667 37 35.66666666666667 36.5Q32.66666666666667 36 28.666666666666668 36Q25.666666666666668 30 22.666666666666668 26.0Q19.666666666666668 22 18.666666666666668 15Q21.666666666666668 9 28.16666666666667 7.0Q34.66666666666667 5 39.66666666666667 0ZM216.66666666666666 624Q216.66666666666666 620 214.66666666666666 615.0Q212.66666666666666 610 212.66666666666666 606Q214.66666666666666 598 212.66666666666666 591.0Q210.66666666666666 584 210.66666666666666 578Q210.66666666666666 573 212.16666666666666 567.5Q213.66666666666666 562 212.66666666666666 557Q211.66666666666666 549 209.16666666666666 540.5Q206.66666666666666 532 210.66666666666666 524Q206.66666666666666 517 205.66666666666666 508.5Q204.66666666666666 500 204.16666666666666 491.0Q203.66666666666666 482 203.16666666666666 473.5Q202.66666666666666 465 199.66666666666666 457Q203.66666666666666 455 201.66666666666666 447.5Q199.66666666666666 440 203.66666666666666 438Q199.66666666666666 432 199.16666666666666 425.5Q198.66666666666666 419 195.66666666666666 414Q200.66666666666666 406 199.16666666666666 390.5Q197.66666666666666 375 197.66666666666666 365Q197.66666666666666 358 198.66666666666666 356.5Q199.66666666666666 355 197.66666666666666 347L195.66666666666666 333Q195.66666666666666 327 194.16666666666666 325.5Q192.66666666666666 324 191.66666666666666 322Q190.66666666666666 314 191.16666666666666 310.5Q191.66666666666666 307 191.66666666666666 304Q192.66666666666666 300 191.66666666666666 296.5Q190.66666666666666 293 190.66666666666666 289Q190.66666666666666 265 191.66666666666666 241.5Q192.66666666666666 218 190.66666666666666 194Q188.66666666666666 183 186.66666666666666 172.5Q184.66666666666666 162 182.66666666666666 151Q182.66666666666666 148 183.16666666666666 145.5Q183.66666666666666 143 182.66666666666666 140Q181.66666666666666 135 180.16666666666666 131.5Q178.66666666666666 128 178.66666666666666 123Q176.66666666666666 114 177.16666666666666 110.0Q177.66666666666666 106 177.66666666666666 101Q174.66666666666666 98 175.16666666666666 92.0Q175.66666666666666 86 175.66666666666666 82Q170.66666666666666 70 171.16666666666666 61.5Q171.66666666666666 53 171.66666666666666 45Q163.66666666666666 43 161.16666666666666 45.0Q158.66666666666666 47 156.66666666666666 49Q157.66666666666666 54 159.16666666666666 57.5Q160.66666666666666 61 162.66666666666666 65Q158.66666666666666 76 154.66666666666666 87.5Q150.66666666666666 99 149.66666666666666 110Q148.66666666666666 123 147.66666666666666 127Q147.66666666666666 139 146.66666666666666 139.0Q145.66666666666666 139 147.66666666666666 144Q148.66666666666666 147 146.66666666666666 149.5Q144.66666666666666 152 147.66666666666666 155Q144.66666666666666 158 142.66666666666666 169.5Q140.66666666666666 181 140.16666666666666 194.5Q139.66666666666666 208 140.16666666666666 220.5Q140.66666666666666 233 141.66666666666666 237Q142.66666666666666 239 141.16666666666666 243.5Q139.66666666666666 248 139.66666666666666 252Q140.66666666666666 258 142.16666666666666 257.5Q143.66666666666666 257 141.66666666666666 265Q139.66666666666666 271 142.66666666666666 274.0Q145.66666666666666 277 147.66666666666666 281Q139.66666666666666 291 142.16666666666666 302.0Q144.66666666666666 313 143.66666666666666 324Q142.66666666666666 329 141.16666666666666 334.5Q139.66666666666666 340 137.66666666666666 345Q136.66666666666666 351 136.66666666666666 357.5Q136.66666666666666 364 136.66666666666666 371Q137.66666666666666 385 136.66666666666666 389.5Q135.66666666666666 394 134.66666666666666 399Q132.66666666666666 416 130.66666666666666 433.5Q128.66666666666666 451 130.66666666666666 468Q126.66666666666667 473 124.16666666666667 486.5Q121.66666666666667 500 124.66666666666667 507Q126.66666666666667 512 125.66666666666667 520.0Q124.66666666666667 528 123.16666666666667 538.0Q121.66666666666667 548 121.66666666666667 558.5Q121.66666666666667 569 124.66666666666667 578Q122.66666666666667 580 123.66666666666667 585.0Q124.66666666666667 590 121.66666666666667 592Q129.66666666666666 613 125.16666666666666 636.5Q120.66666666666667 660 119.66666666666667 682Q132.66666666666666 680 144.66666666666666 681.0Q156.66666666666666 682 169.66666666666666 680Q172.66666666666666 682 174.66666666666666 684.0Q176.66666666666666 686 180.66666666666666 686Q188.66666666666666 681 201.66666666666666 682.5Q214.66666666666666 684 223.66666666666666 682Q221.66666666666666 677 223.16666666666666 671.0Q224.66666666666666 665 223.66666666666666 660Q222.66666666666666 656 221.16666666666666 653.0Q219.66666666666666 650 218.66666666666666 647Q217.66666666666666 635 216.16666666666666 633.5Q214.66666666666666 632 214.66666666666666 630ZM901.6666666666666 427Q911.6666666666666 426 916.6666666666666 414L927.6666666666666 408Q930.6666666666666 405 932.6666666666666 400.0Q934.6666666666666 395 938.6666666666666 393Q946.6666666666666 389 948.1666666666666 386.5Q949.6666666666666 384 951.6666666666666 382Q953.6666666666666 380 957.1666666666666 378.5Q960.6666666666666 377 959.6666666666666 373Q968.6666666666666 373 970.6666666666666 363Q981.6666666666666 356 985.6666666666666 354.0Q989.6666666666666 352 990.6666666666666 347Q993.6666666666666 347 1000.6666666666666 344.5Q1007.6666666666666 342 1015.1666666666666 338.0Q1022.6666666666666 334 1030.1666666666665 330.5Q1037.6666666666665 327 1042.6666666666665 326Q1047.6666666666665 325 1052.6666666666665 326.0Q1057.6666666666665 327 1061.6666666666665 322Q1066.6666666666665 325 1073.1666666666665 326.0Q1079.6666666666665 327 1081.6666666666665 332Q1086.6666666666665 331 1089.6666666666665 332.0Q1092.6666666666665 333 1095.1666666666665 334.5Q1097.6666666666665 336 1100.6666666666665 337.0Q1103.6666666666665 338 1108.6666666666665 337Q1111.6666666666665 342 1114.1666666666665 345.0Q1116.6666666666665 348 1122.6666666666665 347Q1122.6666666666665 352 1127.1666666666665 353.0Q1131.6666666666665 354 1130.6666666666665 360Q1133.6666666666665 362 1135.6666666666665 364.0Q1137.6666666666665 366 1141.6666666666665 367Q1140.6666666666665 378 1145.6666666666665 388.5Q1150.6666666666665 399 1150.6666666666665 410Q1151.6666666666665 417 1149.6666666666665 425.5Q1147.6666666666665 434 1156.6666666666665 438Q1151.6666666666665 449 1149.6666666666665 464Q1140.6666666666665 468 1127.1666666666665 467.0Q1113.6666666666665 466 1108.6666666666665 456Q1113.6666666666665 439 1114.1666666666665 431.0Q1114.6666666666665 423 1113.6666666666665 415Q1113.6666666666665 413 1112.1666666666665 410.0Q1110.6666666666665 407 1109.6666666666665 404Q1107.6666666666665 396 1107.1666666666665 391.5Q1106.6666666666665 387 1105.1666666666665 384.0Q1103.6666666666665 381 1099.6666666666665 378.0Q1095.6666666666665 375 1087.6666666666665 371Q1082.6666666666665 369 1079.6666666666665 367.0Q1076.6666666666665 365 1070.6666666666665 367Q1061.6666666666665 358 1052.6666666666665 361.5Q1043.6666666666665 365 1033.6666666666665 369Q1028.6666666666665 371 1022.6666666666665 373.0Q1016.6666666666666 375 1013.6666666666666 380Q1002.6666666666666 382 997.1666666666666 387.5Q991.6666666666666 393 985.6666666666666 395Q980.6666666666666 403 977.1666666666666 405.5Q973.6666666666666 408 972.6666666666666 410Q968.6666666666666 417 967.6666666666666 417.0Q966.6666666666666 417 964.6666666666666 419Q960.6666666666666 429 958.6666666666666 431.0Q956.6666666666666 433 955.6666666666666 436Q953.6666666666666 438 950.1666666666666 438.0Q946.6666666666666 438 944.6666666666666 440Q939.6666666666666 442 937.1666666666666 446.0Q934.6666666666666 450 929.6666666666666 451Q924.6666666666666 456 924.1666666666666 459.0Q923.6666666666666 462 921.6666666666666 464Q911.6666666666666 474 911.6666666666666 479.0Q911.6666666666666 484 906.6666666666666 488Q907.6666666666666 493 903.6666666666666 493.5Q899.6666666666666 494 897.6666666666666 496Q900.6666666666666 519 897.1666666666666 540.0Q893.6666666666666 561 895.6666666666666 583Q896.6666666666666 586 897.6666666666666 588.5Q898.6666666666666 591 899.6666666666666 594Q900.6666666666666 598 900.1666666666666 601.5Q899.6666666666666 605 899.6666666666666 609Q899.6666666666666 614 901.1666666666666 617.5Q902.6666666666666 621 903.6666666666666 626Q903.6666666666666 629 902.6666666666666 631.5Q901.6666666666666 634 901.6666666666666 637Q901.6666666666666 651 906.6666666666666 664.5Q911.6666666666666 678 906.6666666666666 691Q907.6666666666666 692 912.6666666666666 692.0Q917.6666666666666 692 922.6666666666666 691.5Q927.6666666666666 691 932.6666666666666 689.5Q937.6666666666666 688 938.6666666666666 687Q946.6666666666666 682 948.6666666666666 686.5Q950.6666666666666 691 955.6666666666666 687L962.6666666666666 697Q965.6666666666666 703 965.6666666666666 707.5Q965.6666666666666 712 963.1666666666666 715.0Q960.6666666666666 718 957.6666666666666 721.0Q954.6666666666666 724 953.6666666666666 728Q951.6666666666666 728 947.1666666666666 728.0Q942.6666666666666 728 942.6666666666666 732Q927.6666666666666 728 925.1666666666666 730.0Q922.6666666666666 732 918.6666666666666 732Q913.6666666666666 730 907.6666666666666 728.0Q901.6666666666666 726 895.6666666666666 727Q882.6666666666666 728 880.1666666666666 725.5Q877.6666666666666 723 873.6666666666666 723Q860.6666666666666 721 847.6666666666666 723.0Q834.6666666666666 725 821.6666666666666 727Q816.6666666666666 727 812.1666666666666 726.5Q807.6666666666666 726 802.6666666666666 727Q797.6666666666666 727 793.1666666666666 728.5Q788.6666666666666 730 783.6666666666666 730Q780.6666666666666 730 772.6666666666666 728Q764.6666666666666 728 757.6666666666666 729.5Q750.6666666666666 731 743.6666666666666 727Q721.6666666666666 733 700.6666666666666 727Q698.6666666666666 722 695.6666666666666 717.5Q692.6666666666666 713 694.6666666666666 708Q698.6666666666666 699 706.6666666666666 697.0Q714.6666666666666 695 723.1666666666666 695.0Q731.6666666666666 695 739.6666666666666 695.5Q747.6666666666666 696 752.6666666666666 693Q754.6666666666666 691 754.6666666666666 686.5Q754.6666666666666 682 754.6666666666666 680Q759.6666666666666 678 761.6666666666666 672.0Q763.6666666666666 666 765.6666666666666 661Q770.6666666666666 647 772.6666666666666 631.5Q774.6666666666666 616 776.6666666666666 602Q777.6666666666666 599 779.1666666666666 596.0Q780.6666666666666 593 780.6666666666666 591Q778.6666666666666 577 781.1666666666666 570.0Q783.6666666666666 563 783.6666666666666 555Q784.6666666666666 547 784.1666666666666 540.0Q783.6666666666666 533 785.6666666666666 525Q787.6666666666666 522 789.1666666666666 519.5Q790.6666666666666 517 791.6666666666666 514Q793.6666666666666 502 793.1666666666666 489.5Q792.6666666666666 477 795.6666666666666 466Q799.6666666666666 456 798.1666666666666 453.5Q796.6666666666666 451 797.6666666666666 449Q801.6666666666666 441 802.6666666666666 431.0Q803.6666666666666 421 802.6666666666666 419Q802.6666666666666 418 804.1666666666666 411.5Q805.6666666666666 405 807.1666666666666 396.5Q808.6666666666666 388 810.1666666666666 380.5Q811.6666666666666 373 811.6666666666666 369Q806.6666666666666 370 789.6666666666666 373.0Q772.6666666666666 376 754.1666666666666 379.5Q735.6666666666666 383 721.1666666666666 387.5Q706.6666666666666 392 705.6666666666666 395Q701.6666666666666 392 697.6666666666666 392.5Q693.6666666666666 393 689.6666666666666 393.0Q685.6666666666666 393 681.1666666666666 391.5Q676.6666666666666 390 672.6666666666666 384Q670.6666666666666 370 674.6666666666666 367.5Q678.6666666666666 365 679.6666666666666 360Q702.6666666666666 358 723.1666666666666 351.5Q743.6666666666666 345 765.6666666666666 343Q783.6666666666666 340 793.1666666666666 336.5Q802.6666666666666 333 811.6666666666666 330Q816.6666666666666 328 821.6666666666666 328.5Q826.6666666666666 329 828.6666666666666 324Q844.6666666666666 327 847.6666666666666 320Q861.6666666666666 324 875.1666666666666 317.5Q888.6666666666666 311 903.6666666666666 315Q904.6666666666666 318 905.6666666666666 321.0Q906.6666666666666 324 910.6666666666666 324Q905.6666666666666 331 908.1666666666666 340.5Q910.6666666666666 350 903.6666666666666 356Q905.6666666666666 358 903.6666666666666 366.5Q901.6666666666666 375 903.6666666666666 378Q903.6666666666666 386 900.6666666666666 392.0Q897.6666666666666 398 897.6666666666666 406Q897.6666666666666 411 899.6666666666666 416.5Q901.6666666666666 422 901.6666666666666 427ZM854.6666666666666 360Q853.6666666666666 363 852.1666666666666 366.0Q850.6666666666666 369 849.6666666666666 373Q845.6666666666666 379 847.6666666666666 385.0Q849.6666666666666 391 847.6666666666666 395Q839.6666666666666 402 839.6666666666666 413.5Q839.6666666666666 425 837.6666666666666 434Q836.6666666666666 439 835.1666666666666 442.5Q833.6666666666666 446 832.6666666666666 451Q830.6666666666666 458 830.6666666666666 470.5Q830.6666666666666 483 832.6666666666666 490Q825.6666666666666 502 824.6666666666666 520.0Q823.6666666666666 538 826.6666666666666 551Q823.6666666666666 555 819.6666666666666 563Q819.6666666666666 567 819.1666666666666 577.5Q818.6666666666666 588 817.6666666666666 592Q813.6666666666666 604 814.6666666666666 606.5Q815.6666666666666 609 815.6666666666666 611Q814.6666666666666 619 811.6666666666666 625.0Q808.6666666666666 631 813.6666666666666 639Q810.6666666666666 642 806.6666666666666 650Q808.6666666666666 656 806.1666666666666 660.5Q803.6666666666666 665 802.6666666666666 671Q801.6666666666666 679 798.6666666666666 682.5Q795.6666666666666 686 798.6666666666666 689Q801.6666666666666 692 805.6666666666666 691.5Q809.6666666666666 691 813.1666666666666 689.5Q816.6666666666666 688 819.1666666666666 687.5Q821.6666666666666 687 821.6666666666666 689Q825.6666666666666 687 832.1666666666666 687.0Q838.6666666666666 687 845.6666666666666 687.0Q852.6666666666666 687 859.1666666666666 687.0Q865.6666666666666 687 867.6666666666666 687Q866.6666666666666 679 867.6666666666666 671.5Q868.6666666666666 664 867.6666666666666 656Q867.6666666666666 651 866.1666666666666 647.5Q864.6666666666666 644 864.6666666666666 639Q865.6666666666666 615 861.1666666666666 597.5Q856.6666666666666 580 858.6666666666666 563Q858.6666666666666 558 860.1666666666666 555.0Q861.6666666666666 552 862.6666666666666 548Q863.6666666666666 538 862.1666666666666 528.5Q860.6666666666666 519 860.6666666666666 509Q859.6666666666666 492 860.6666666666666 476.0Q861.6666666666666 460 862.6666666666666 443Q863.6666666666666 422 865.6666666666666 401.5Q867.6666666666666 381 865.6666666666666 360ZM1600.6666666666667 686Q1607.6666666666667 688 1613.1666666666667 690.0Q1618.6666666666667 692 1626.6666666666667 691Q1637.6666666666667 690 1640.1666666666667 691.0Q1642.6666666666667 692 1644.6666666666667 693Q1652.6666666666667 695 1668.6666666666667 694.0Q1684.6666666666667 693 1691.6666666666667 699Q1694.6666666666667 701 1692.1666666666667 705.0Q1689.6666666666667 709 1695.6666666666667 710Q1693.6666666666667 715 1691.1666666666667 715.0Q1688.6666666666667 715 1683.6666666666667 715Q1671.6666666666667 723 1669.6666666666667 725.5Q1667.6666666666667 728 1665.6666666666667 730Q1655.6666666666667 732 1644.1666666666667 733.0Q1632.6666666666667 734 1622.6666666666667 732Q1618.6666666666667 731 1615.6666666666667 730.0Q1612.6666666666667 729 1609.6666666666667 728Q1604.6666666666667 728 1594.1666666666667 729.5Q1583.6666666666667 731 1572.1666666666667 732.5Q1560.6666666666667 734 1551.1666666666667 735.0Q1541.6666666666667 736 1540.6666666666667 736Q1534.6666666666667 734 1533.1666666666667 735.5Q1531.6666666666667 737 1529.6666666666667 738Q1524.6666666666667 739 1521.1666666666667 738.0Q1517.6666666666667 737 1512.6666666666667 738Q1505.6666666666667 739 1499.1666666666667 743.0Q1492.6666666666667 747 1484.6666666666667 745Q1476.6666666666667 743 1473.1666666666667 736.5Q1469.6666666666667 730 1465.6666666666667 725Q1462.6666666666667 696 1465.6666666666667 674Q1460.6666666666667 673 1459.1666666666667 675.0Q1457.6666666666667 677 1454.6666666666667 680Q1447.6666666666667 682 1445.1666666666667 684.5Q1442.6666666666667 687 1439.6666666666667 689Q1437.6666666666667 691 1433.1666666666667 693.0Q1428.6666666666667 695 1426.6666666666667 697Q1422.6666666666667 702 1419.6666666666667 701.5Q1416.6666666666667 701 1417.6666666666667 708Q1411.6666666666667 707 1406.1666666666667 710.0Q1400.6666666666667 713 1395.6666666666667 715Q1389.6666666666667 717 1383.1666666666667 718.0Q1376.6666666666667 719 1370.6666666666667 721Q1367.6666666666667 722 1364.6666666666667 723.5Q1361.6666666666667 725 1357.6666666666667 727Q1353.6666666666667 728 1349.6666666666667 727.5Q1345.6666666666667 727 1341.6666666666667 728Q1337.6666666666667 729 1334.6666666666667 730.0Q1331.6666666666667 731 1328.6666666666667 732Q1320.6666666666667 734 1312.1666666666667 737.0Q1303.6666666666667 740 1294.6666666666667 738Q1287.6666666666667 736 1285.6666666666667 734.0Q1283.6666666666667 732 1279.6666666666667 734Q1269.6666666666667 723 1251.6666666666667 721Q1243.6666666666667 712 1232.1666666666667 706.0Q1220.6666666666667 700 1212.6666666666667 691Q1208.6666666666667 680 1204.1666666666667 667.5Q1199.6666666666667 655 1197.6666666666667 643Q1196.6666666666667 635 1194.6666666666667 633.0Q1192.6666666666667 631 1192.6666666666667 628Q1191.6666666666667 626 1192.6666666666667 622.5Q1193.6666666666667 619 1194.6666666666667 617Q1194.6666666666667 609 1194.6666666666667 603.0Q1194.6666666666667 597 1199.6666666666667 591Q1197.6666666666667 581 1201.1666666666667 572.0Q1204.6666666666667 563 1205.6666666666667 553Q1214.6666666666667 544 1216.6666666666667 529Q1221.6666666666667 528 1224.1666666666667 524.0Q1226.6666666666667 520 1229.6666666666667 516Q1232.6666666666667 513 1236.6666666666667 510.5Q1240.6666666666667 508 1240.6666666666667 503Q1250.6666666666667 500 1251.1666666666667 498.0Q1251.6666666666667 496 1253.6666666666667 494Q1262.6666666666667 489 1263.6666666666667 487.0Q1264.6666666666667 485 1268.6666666666667 486Q1271.6666666666667 479 1278.6666666666667 476.0Q1285.6666666666667 473 1288.6666666666667 466Q1292.6666666666667 466 1294.1666666666667 467.5Q1295.6666666666667 469 1300.6666666666667 468Q1311.6666666666667 463 1313.1666666666667 461.5Q1314.6666666666667 460 1316.6666666666667 458Q1326.6666666666667 452 1340.6666666666667 448.0Q1354.6666666666667 444 1365.6666666666667 442Q1370.6666666666667 440 1375.6666666666667 438.5Q1380.6666666666667 437 1385.6666666666667 436Q1394.6666666666667 434 1404.1666666666667 434.5Q1413.6666666666667 435 1421.6666666666667 430Q1428.6666666666667 431 1433.6666666666667 434.0Q1438.6666666666667 437 1445.6666666666667 434Q1450.6666666666667 442 1462.1666666666667 443.0Q1473.6666666666667 444 1480.6666666666667 449Q1484.6666666666667 436 1480.1666666666667 423.0Q1475.6666666666667 410 1475.6666666666667 397Q1475.6666666666667 394 1476.1666666666667 390.5Q1476.6666666666667 387 1475.6666666666667 384Q1475.6666666666667 374 1474.1666666666667 373.5Q1472.6666666666667 373 1471.6666666666667 371Q1469.6666666666667 366 1470.6666666666667 358.0Q1471.6666666666667 350 1469.6666666666667 345Q1468.6666666666667 341 1467.1666666666667 338.0Q1465.6666666666667 335 1465.6666666666667 332Q1461.6666666666667 331 1456.1666666666667 328.0Q1450.6666666666667 325 1445.6666666666667 326Q1428.6666666666667 328 1417.6666666666667 325.0Q1406.6666666666667 322 1395.6666666666667 328Q1387.6666666666667 324 1378.6666666666667 328Q1375.6666666666667 330 1372.1666666666667 328.5Q1368.6666666666667 327 1365.6666666666667 328Q1362.6666666666667 329 1360.1666666666667 330.5Q1357.6666666666667 332 1354.6666666666667 334Q1345.6666666666667 336 1339.6666666666667 335.5Q1333.6666666666667 335 1326.6666666666667 345Q1313.6666666666667 347 1306.1666666666667 353.0Q1298.6666666666667 359 1287.6666666666667 363Q1278.6666666666667 371 1273.1666666666667 382.0Q1267.6666666666667 393 1259.6666666666667 402Q1261.6666666666667 412 1257.6666666666667 417.0Q1253.6666666666667 422 1253.6666666666667 430Q1245.6666666666667 429 1233.6666666666667 426.0Q1221.6666666666667 423 1220.6666666666667 412Q1219.6666666666667 408 1222.6666666666667 403.0Q1225.6666666666667 398 1227.6666666666667 395Q1235.6666666666667 379 1242.6666666666667 363.0Q1249.6666666666667 347 1262.6666666666667 335Q1270.6666666666667 335 1278.1666666666667 330.5Q1285.6666666666667 326 1288.6666666666667 320Q1298.6666666666667 323 1303.6666666666667 313Q1312.6666666666667 313 1320.1666666666667 307.5Q1327.6666666666667 302 1335.6666666666667 304Q1340.6666666666667 298 1344.1666666666667 296.5Q1347.6666666666667 295 1350.6666666666667 295.0Q1353.6666666666667 295 1355.6666666666667 296.0Q1357.6666666666667 297 1359.6666666666667 296Q1363.6666666666667 294 1370.1666666666667 293.0Q1376.6666666666667 292 1378.6666666666667 289Q1387.6666666666667 293 1395.6666666666667 290.5Q1403.6666666666667 288 1410.6666666666667 293Q1414.6666666666667 289 1421.6666666666667 289Q1434.6666666666667 289 1455.1666666666667 293.5Q1475.6666666666667 298 1492.6666666666667 300Q1500.6666666666667 308 1508.1666666666667 312.0Q1515.6666666666667 316 1527.6666666666667 315Q1538.6666666666667 326 1549.6666666666667 337.5Q1560.6666666666667 349 1572.6666666666667 360Q1572.6666666666667 371 1577.1666666666667 378.5Q1581.6666666666667 386 1583.6666666666667 386Q1583.6666666666667 399 1592.6666666666667 404Q1594.6666666666667 418 1600.6666666666667 429.0Q1606.6666666666667 440 1605.6666666666667 456Q1605.6666666666667 462 1608.6666666666667 462.5Q1611.6666666666667 463 1611.6666666666667 468Q1610.6666666666667 481 1609.6666666666667 493.5Q1608.6666666666667 506 1609.6666666666667 520Q1609.6666666666667 524 1610.6666666666667 528.0Q1611.6666666666667 532 1611.6666666666667 537Q1605.6666666666667 557 1607.6666666666667 569.0Q1609.6666666666667 581 1607.6666666666667 592Q1608.6666666666667 606 1606.6666666666667 609.0Q1604.6666666666667 612 1603.6666666666667 617Q1603.6666666666667 622 1604.6666666666667 627.0Q1605.6666666666667 632 1605.6666666666667 637Q1605.6666666666667 643 1602.1666666666667 648.5Q1598.6666666666667 654 1603.6666666666667 659Q1599.6666666666667 664 1598.6666666666667 672.0Q1597.6666666666667 680 1600.6666666666667 686ZM1514.6666666666667 399Q1515.6666666666667 413 1515.1666666666667 419.5Q1514.6666666666667 426 1514.6666666666667 434Q1516.6666666666667 437 1517.1666666666667 440.5Q1517.6666666666667 444 1519.6666666666667 447Q1518.6666666666667 467 1517.6666666666667 477.0Q1516.6666666666667 487 1516.6666666666667 497Q1515.6666666666667 507 1516.1666666666667 516.5Q1516.6666666666667 526 1516.6666666666667 537Q1516.6666666666667 541 1516.1666666666667 548.5Q1515.6666666666667 556 1512.6666666666667 559L1516.6666666666667 572L1512.6666666666667 587Q1510.6666666666667 601 1507.1666666666667 615.5Q1503.6666666666667 630 1503.6666666666667 645Q1502.6666666666667 649 1504.1666666666667 652.0Q1505.6666666666667 655 1505.6666666666667 659Q1505.6666666666667 667 1503.6666666666667 674.0Q1501.6666666666667 681 1503.6666666666667 689Q1505.6666666666667 693 1509.1666666666667 695.0Q1512.6666666666667 697 1512.6666666666667 702Q1527.6666666666667 704 1540.6666666666667 699Q1545.6666666666667 697 1549.1666666666667 698.0Q1552.6666666666667 699 1557.6666666666667 697Q1556.6666666666667 696 1556.6666666666667 689.0Q1556.6666666666667 682 1557.6666666666667 680Q1559.6666666666667 669 1560.1666666666667 668.5Q1560.6666666666667 668 1560.6666666666667 667Q1566.6666666666667 647 1566.6666666666667 625.0Q1566.6666666666667 603 1568.6666666666667 583Q1569.6666666666667 573 1570.1666666666667 563.5Q1570.6666666666667 554 1570.6666666666667 544Q1572.6666666666667 536 1571.1666666666667 533.0Q1569.6666666666667 530 1570.6666666666667 527Q1570.6666666666667 524 1572.1666666666667 521.5Q1573.6666666666667 519 1573.6666666666667 516Q1574.6666666666667 511 1572.1666666666667 507.5Q1569.6666666666667 504 1570.6666666666667 499Q1578.6666666666667 491 1574.1666666666667 482.5Q1569.6666666666667 474 1570.6666666666667 466Q1567.6666666666667 455 1568.1666666666667 450.5Q1568.6666666666667 446 1566.6666666666667 442Q1564.6666666666667 438 1562.6666666666667 436.5Q1560.6666666666667 435 1559.6666666666667 432Q1560.6666666666667 427 1559.6666666666667 421Q1552.6666666666667 412 1547.6666666666667 401.5Q1542.6666666666667 391 1537.6666666666667 380.5Q1532.6666666666667 370 1525.1666666666667 361.5Q1517.6666666666667 353 1506.6666666666667 348Q1504.6666666666667 362 1507.6666666666667 374.0Q1510.6666666666667 386 1514.6666666666667 399ZM1480.6666666666667 507Q1472.6666666666667 503 1464.6666666666667 492Q1462.6666666666667 482 1459.6666666666667 482.0Q1456.6666666666667 482 1454.6666666666667 481Q1445.6666666666667 472 1443.6666666666667 473.0Q1441.6666666666667 474 1439.6666666666667 473Q1431.6666666666667 469 1428.1666666666667 470.0Q1424.6666666666667 471 1421.6666666666667 471Q1400.6666666666667 469 1388.6666666666667 474.0Q1376.6666666666667 479 1365.6666666666667 477Q1359.6666666666667 484 1348.6666666666667 484.0Q1337.6666666666667 484 1331.6666666666667 492Q1325.6666666666667 492 1321.1666666666667 494.0Q1316.6666666666667 496 1312.6666666666667 499.0Q1308.6666666666667 502 1305.1666666666667 504.0Q1301.6666666666667 506 1298.6666666666667 505Q1295.6666666666667 511 1289.6666666666667 515.0Q1283.6666666666667 519 1277.6666666666667 522.5Q1271.6666666666667 526 1266.6666666666667 530.5Q1261.6666666666667 535 1259.6666666666667 542Q1249.6666666666667 551 1245.1666666666667 556.0Q1240.6666666666667 561 1238.6666666666667 566Q1235.6666666666667 573 1235.6666666666667 580.0Q1235.6666666666667 587 1229.6666666666667 592Q1233.6666666666667 597 1231.1666666666667 601.5Q1228.6666666666667 606 1227.6666666666667 611Q1226.6666666666667 615 1227.6666666666667 619.0Q1228.6666666666667 623 1225.6666666666667 626Q1231.6666666666667 638 1235.6666666666667 651.0Q1239.6666666666667 664 1246.6666666666667 676Q1251.6666666666667 678 1255.1666666666667 681.0Q1258.6666666666667 684 1264.6666666666667 684Q1275.6666666666667 695 1292.6666666666667 699.0Q1309.6666666666667 703 1324.6666666666667 699Q1340.6666666666667 690 1351.6666666666667 689.5Q1362.6666666666667 689 1367.6666666666667 684Q1372.6666666666667 689 1377.6666666666667 683.5Q1382.6666666666667 678 1385.6666666666667 676Q1393.6666666666667 677 1396.6666666666667 672.5Q1399.6666666666667 668 1406.6666666666667 669Q1412.6666666666667 660 1415.1666666666667 660.0Q1417.6666666666667 660 1420.6666666666667 658Q1428.6666666666667 653 1434.1666666666667 647.0Q1439.6666666666667 641 1447.6666666666667 637Q1450.6666666666667 622 1462.6666666666667 615Q1464.6666666666667 615 1468.1666666666667 615.0Q1471.6666666666667 615 1473.6666666666667 613Q1474.6666666666667 607 1475.6666666666667 601.5Q1476.6666666666667 596 1477.6666666666667 591Q1477.6666666666667 586 1476.6666666666667 575.5Q1475.6666666666667 565 1477.6666666666667 561Q1482.6666666666667 547 1480.1666666666667 531.0Q1477.6666666666667 515 1480.6666666666667 507ZM1907.6666666666667 350Q1906.6666666666667 354 1904.1666666666667 356.5Q1901.6666666666667 359 1900.6666666666667 363Q1901.6666666666667 365 1900.6666666666667 370.5Q1899.6666666666667 376 1902.6666666666667 376Q1897.6666666666667 385 1898.6666666666667 401.5Q1899.6666666666667 418 1898.6666666666667 429Q1903.6666666666667 431 1903.6666666666667 427.0Q1903.6666666666667 423 1906.6666666666667 421Q1909.6666666666667 419 1912.6666666666667 417.0Q1915.6666666666667 415 1919.6666666666667 414Q1931.6666666666667 404 1936.6666666666667 397.5Q1941.6666666666667 391 1950.6666666666667 389Q1952.6666666666667 384 1956.6666666666667 381.5Q1960.6666666666667 379 1962.6666666666667 374Q1965.6666666666667 374 1972.6666666666667 371.0Q1979.6666666666667 368 1987.1666666666667 364.0Q1994.6666666666667 360 2001.1666666666667 356.0Q2007.6666666666667 352 2010.6666666666667 350Q2013.6666666666667 348 2021.1666666666667 347.0Q2028.6666666666667 346 2032.6666666666667 345Q2040.6666666666667 345 2050.166666666667 342.5Q2059.666666666667 340 2066.666666666667 339Q2068.666666666667 339 2071.166666666667 338.5Q2073.666666666667 338 2077.166666666667 337.0Q2080.666666666667 336 2084.166666666667 335.0Q2087.666666666667 334 2088.666666666667 334Q2107.666666666667 331 2118.666666666667 335.0Q2129.666666666667 339 2146.666666666667 341Q2151.666666666667 344 2154.666666666667 347.5Q2157.666666666667 351 2165.666666666667 350Q2167.666666666667 355 2172.666666666667 357.0Q2177.666666666667 359 2179.666666666667 363Q2183.666666666667 371 2186.666666666667 372.5Q2189.666666666667 374 2191.666666666667 376Q2196.666666666667 383 2197.666666666667 382.5Q2198.666666666667 382 2200.666666666667 384Q2202.666666666667 386 2203.166666666667 391.0Q2203.666666666667 396 2209.666666666667 395Q2210.666666666667 406 2216.666666666667 410.0Q2222.666666666667 414 2228.666666666667 421Q2229.666666666667 430 2229.166666666667 439.0Q2228.666666666667 448 2233.666666666667 456Q2232.666666666667 462 2232.166666666667 471.5Q2231.666666666667 481 2233.666666666667 486Q2233.666666666667 491 2229.666666666667 500.5Q2225.666666666667 510 2230.666666666667 514Q2230.666666666667 518 2229.666666666667 527.5Q2228.666666666667 537 2224.666666666667 538Q2226.666666666667 544 2224.666666666667 556.5Q2222.666666666667 569 2219.666666666667 574Q2217.666666666667 578 2220.166666666667 579.5Q2222.666666666667 581 2220.666666666667 585Q2216.666666666667 590 2215.666666666667 596.5Q2214.666666666667 603 2209.666666666667 607Q2211.666666666667 612 2210.666666666667 615.5Q2209.666666666667 619 2209.666666666667 624Q2209.666666666667 629 2211.666666666667 633.5Q2213.666666666667 638 2209.666666666667 643Q2206.666666666667 648 2205.166666666667 658.5Q2203.666666666667 669 2204.666666666667 674Q2208.666666666667 678 2215.666666666667 679.5Q2222.666666666667 681 2229.166666666667 681.5Q2235.666666666667 682 2240.666666666667 683.5Q2245.666666666667 685 2245.666666666667 689Q2253.666666666667 690 2261.666666666667 697Q2262.666666666667 699 2261.166666666667 703.5Q2259.666666666667 708 2256.666666666667 712.5Q2253.666666666667 717 2250.666666666667 720.5Q2247.666666666667 724 2245.666666666667 725Q2234.666666666667 729 2229.166666666667 723.0Q2223.666666666667 717 2213.666666666667 715Q2210.666666666667 715 2208.166666666667 716.0Q2205.666666666667 717 2202.666666666667 717Q2197.666666666667 717 2194.666666666667 714.5Q2191.666666666667 712 2185.666666666667 713Q2177.666666666667 713 2170.166666666667 713.5Q2162.666666666667 714 2154.666666666667 715.0Q2146.666666666667 716 2140.166666666667 715.5Q2133.666666666667 715 2129.666666666667 710Q2123.666666666667 711 2115.166666666667 711.5Q2106.666666666667 712 2098.166666666667 711.0Q2089.666666666667 710 2082.166666666667 706.5Q2074.666666666667 703 2071.666666666667 697Q2072.666666666667 691 2075.166666666667 687.0Q2077.666666666667 683 2081.666666666667 678Q2094.666666666667 680 2107.666666666667 678Q2113.666666666667 676 2116.166666666667 678.0Q2118.666666666667 680 2120.666666666667 680Q2137.666666666667 678 2143.666666666667 678.5Q2149.666666666667 679 2157.666666666667 676Q2160.666666666667 673 2159.666666666667 669.0Q2158.666666666667 665 2157.666666666667 661Q2163.666666666667 658 2165.666666666667 653.0Q2167.666666666667 648 2159.666666666667 645Q2165.666666666667 638 2167.666666666667 628.5Q2169.666666666667 619 2174.666666666667 611Q2169.666666666667 592 2181.666666666667 578Q2179.666666666667 567 2183.666666666667 556.5Q2187.666666666667 546 2189.666666666667 535Q2191.666666666667 524 2192.666666666667 513.5Q2193.666666666667 503 2192.666666666667 492Q2192.666666666667 488 2191.666666666667 485.0Q2190.666666666667 482 2191.666666666667 479Q2191.666666666667 471 2193.166666666667 465.5Q2194.666666666667 460 2192.666666666667 451Q2189.666666666667 437 2183.166666666667 423.0Q2176.666666666667 409 2165.666666666667 399Q2160.666666666667 395 2156.166666666667 392.0Q2151.666666666667 389 2146.666666666667 386Q2144.666666666667 384 2142.666666666667 382.0Q2140.666666666667 380 2138.666666666667 378Q2135.666666666667 376 2130.166666666667 376.0Q2124.666666666667 376 2120.666666666667 374Q2116.666666666667 373 2114.166666666667 371.5Q2111.666666666667 370 2107.666666666667 369Q2097.666666666667 367 2093.666666666667 369.0Q2089.666666666667 371 2081.666666666667 373Q2070.666666666667 375 2054.666666666667 375.5Q2038.6666666666667 376 2030.6666666666667 386Q2023.6666666666667 380 2016.1666666666667 386.0Q2008.6666666666667 392 2001.6666666666667 393Q1983.6666666666667 403 1975.6666666666667 409.5Q1967.6666666666667 416 1960.6666666666667 425Q1950.6666666666667 430 1947.6666666666667 440Q1942.6666666666667 441 1939.6666666666667 443.5Q1936.6666666666667 446 1932.6666666666667 447Q1925.6666666666667 458 1918.1666666666667 469.0Q1910.6666666666667 480 1902.6666666666667 490Q1902.6666666666667 496 1905.1666666666667 501.5Q1907.6666666666667 507 1907.6666666666667 512Q1908.6666666666667 517 1906.1666666666667 522.5Q1903.6666666666667 528 1904.6666666666667 533Q1904.6666666666667 536 1906.1666666666667 538.5Q1907.6666666666667 541 1907.6666666666667 544Q1908.6666666666667 547 1907.1666666666667 549.5Q1905.6666666666667 552 1906.6666666666667 555Q1906.6666666666667 560 1908.1666666666667 563.5Q1909.6666666666667 567 1909.6666666666667 572Q1910.6666666666667 577 1909.1666666666667 581.0Q1907.6666666666667 585 1909.6666666666667 591Q1913.6666666666667 595 1911.6666666666667 596.5Q1909.6666666666667 598 1909.6666666666667 604Q1910.6666666666667 610 1911.6666666666667 616.5Q1912.6666666666667 623 1913.6666666666667 630Q1914.6666666666667 642 1916.6666666666667 654.5Q1918.6666666666667 667 1924.6666666666667 678Q1921.6666666666667 686 1924.1666666666667 694.0Q1926.6666666666667 702 1924.6666666666667 710Q1927.6666666666667 713 1934.6666666666667 713.5Q1941.6666666666667 714 1949.6666666666667 713.5Q1957.6666666666667 713 1964.6666666666667 712.5Q1971.6666666666667 712 1976.6666666666667 712Q1978.6666666666667 716 1982.1666666666667 718.5Q1985.6666666666667 721 1988.6666666666667 725Q1985.6666666666667 734 1977.6666666666667 738.0Q1969.6666666666667 742 1963.6666666666667 749Q1955.6666666666667 751 1948.1666666666667 750.0Q1940.6666666666667 749 1932.6666666666667 751Q1928.6666666666667 751 1925.1666666666667 753.0Q1921.6666666666667 755 1917.6666666666667 754Q1913.6666666666667 754 1910.6666666666667 752.5Q1907.6666666666667 751 1904.6666666666667 751Q1901.6666666666667 750 1898.6666666666667 751.0Q1895.6666666666667 752 1893.6666666666667 753Q1885.6666666666667 753 1879.1666666666667 749.5Q1872.6666666666667 746 1865.6666666666667 747Q1861.6666666666667 747 1857.1666666666667 748.5Q1852.6666666666667 750 1850.6666666666667 745Q1843.6666666666667 746 1837.6666666666667 748.5Q1831.6666666666667 751 1824.6666666666667 751Q1814.6666666666667 749 1814.1666666666667 750.0Q1813.6666666666667 751 1811.6666666666667 751Q1807.6666666666667 751 1804.1666666666667 750.0Q1800.6666666666667 749 1796.6666666666667 749Q1789.6666666666667 749 1783.1666666666667 751.0Q1776.6666666666667 753 1770.6666666666667 754Q1762.6666666666667 756 1754.6666666666667 756.0Q1746.6666666666667 756 1738.6666666666667 756Q1723.6666666666667 761 1715.6666666666667 751.5Q1707.6666666666667 742 1710.6666666666667 730Q1715.6666666666667 726 1722.1666666666667 725.0Q1728.6666666666667 724 1735.6666666666667 724.0Q1742.6666666666667 724 1749.1666666666667 723.0Q1755.6666666666667 722 1760.6666666666667 717Q1760.6666666666667 707 1761.1666666666667 698.5Q1761.6666666666667 690 1760.6666666666667 680Q1764.6666666666667 668 1766.6666666666667 657.0Q1768.6666666666667 646 1770.6666666666667 641Q1774.6666666666667 628 1772.6666666666667 622.0Q1770.6666666666667 616 1770.6666666666667 611Q1775.6666666666667 584 1777.6666666666667 566.5Q1779.6666666666667 549 1781.6666666666667 531Q1781.6666666666667 526 1783.6666666666667 520.5Q1785.6666666666667 515 1785.6666666666667 510Q1784.6666666666667 500 1788.1666666666667 490.5Q1791.6666666666667 481 1786.6666666666667 477Q1788.6666666666667 467 1787.1666666666667 464.5Q1785.6666666666667 462 1790.6666666666667 456Q1789.6666666666667 433 1793.1666666666667 418.5Q1796.6666666666667 404 1796.6666666666667 388Q1783.6666666666667 387 1772.6666666666667 390.5Q1761.6666666666667 394 1749.6666666666667 395Q1743.6666666666667 400 1734.6666666666667 401.0Q1725.6666666666667 402 1718.6666666666667 401Q1714.6666666666667 398 1713.6666666666667 394.0Q1712.6666666666667 390 1710.6666666666667 386Q1704.6666666666667 384 1706.1666666666667 379.5Q1707.6666666666667 375 1704.6666666666667 373Q1709.6666666666667 366 1715.1666666666667 366.5Q1720.6666666666667 367 1725.6666666666667 365Q1737.6666666666667 363 1739.6666666666667 361.5Q1741.6666666666667 360 1744.6666666666667 360Q1754.6666666666667 358 1764.6666666666667 358.0Q1774.6666666666667 358 1785.6666666666667 356Q1789.6666666666667 355 1793.1666666666667 353.5Q1796.6666666666667 352 1799.6666666666667 350Q1808.6666666666667 346 1821.1666666666667 345.5Q1833.6666666666667 345 1839.6666666666667 337Q1843.6666666666667 338 1845.6666666666667 338.5Q1847.6666666666667 339 1852.6666666666667 337Q1858.6666666666667 334 1867.6666666666667 332.0Q1876.6666666666667 330 1885.1666666666667 330.5Q1893.6666666666667 331 1900.1666666666667 335.5Q1906.6666666666667 340 1907.6666666666667 350ZM1839.6666666666667 374Q1831.6666666666667 385 1831.6666666666667 401.5Q1831.6666666666667 418 1829.6666666666667 430Q1829.6666666666667 433 1828.1666666666667 436.0Q1826.6666666666667 439 1826.6666666666667 442Q1823.6666666666667 457 1829.6666666666667 469Q1821.6666666666667 474 1825.1666666666667 480.5Q1828.6666666666667 487 1826.6666666666667 492Q1821.6666666666667 504 1821.1666666666667 515.0Q1820.6666666666667 526 1818.6666666666667 538Q1817.6666666666667 544 1816.6666666666667 549.5Q1815.6666666666667 555 1814.6666666666667 561Q1814.6666666666667 566 1815.6666666666667 570.5Q1816.6666666666667 575 1814.6666666666667 579Q1812.6666666666667 584 1813.6666666666667 586.0Q1814.6666666666667 588 1814.6666666666667 592Q1815.6666666666667 600 1813.1666666666667 610.0Q1810.6666666666667 620 1811.6666666666667 626Q1813.6666666666667 632 1810.6666666666667 634.5Q1807.6666666666667 637 1809.6666666666667 641Q1806.6666666666667 646 1808.6666666666667 647.5Q1810.6666666666667 649 1811.6666666666667 654Q1808.6666666666667 656 1806.1666666666667 659.5Q1803.6666666666667 663 1801.6666666666667 667Q1802.6666666666667 674 1801.6666666666667 679.5Q1800.6666666666667 685 1799.6666666666667 690.5Q1798.6666666666667 696 1798.1666666666667 702.0Q1797.6666666666667 708 1799.6666666666667 715Q1805.6666666666667 715 1808.6666666666667 715.5Q1811.6666666666667 716 1816.6666666666667 713Q1828.6666666666667 716 1836.6666666666667 713.0Q1844.6666666666667 710 1853.6666666666667 710Q1861.6666666666667 710 1868.1666666666667 712.5Q1874.6666666666667 715 1881.6666666666667 712Q1883.6666666666667 700 1882.1666666666667 689.0Q1880.6666666666667 678 1878.6666666666667 667Q1877.6666666666667 664 1878.1666666666667 660.5Q1878.6666666666667 657 1878.6666666666667 654Q1874.6666666666667 643 1876.6666666666667 641Q1871.6666666666667 634 1871.6666666666667 629.0Q1871.6666666666667 624 1872.1666666666667 618.5Q1872.6666666666667 613 1873.1666666666667 608.5Q1873.6666666666667 604 1874.6666666666667 602Q1870.6666666666667 595 1869.6666666666667 586.5Q1868.6666666666667 578 1868.6666666666667 570Q1869.6666666666667 563 1867.6666666666667 557.0Q1865.6666666666667 551 1865.6666666666667 544Q1864.6666666666667 540 1866.1666666666667 536.5Q1867.6666666666667 533 1867.6666666666667 529Q1866.6666666666667 526 1865.1666666666667 523.5Q1863.6666666666667 521 1863.6666666666667 518Q1865.6666666666667 500 1863.1666666666667 492.5Q1860.6666666666667 485 1859.6666666666667 477Q1859.6666666666667 474 1860.6666666666667 471.5Q1861.6666666666667 469 1861.6666666666667 466Q1861.6666666666667 462 1861.1666666666667 459.0Q1860.6666666666667 456 1861.6666666666667 453Q1862.6666666666667 448 1863.6666666666667 444.5Q1864.6666666666667 441 1865.6666666666667 436Q1865.6666666666667 429 1863.6666666666667 423.0Q1861.6666666666667 417 1861.6666666666667 410Q1861.6666666666667 402 1863.1666666666667 393.5Q1864.6666666666667 385 1865.6666666666667 376Q1857.6666666666667 371 1852.6666666666667 374.5Q1847.6666666666667 378 1839.6666666666667 374ZM2491.6666666666665 529Q2499.6666666666665 525 2504.1666666666665 517.5Q2508.6666666666665 510 2513.6666666666665 503Q2521.6666666666665 495 2527.1666666666665 488.5Q2532.6666666666665 482 2537.6666666666665 481Q2538.6666666666665 474 2544.6666666666665 472.5Q2550.6666666666665 471 2551.6666666666665 464Q2556.6666666666665 464 2558.1666666666665 461.0Q2559.6666666666665 458 2564.6666666666665 458Q2565.6666666666665 454 2567.6666666666665 451.5Q2569.6666666666665 449 2571.6666666666665 445Q2582.6666666666665 440 2587.6666666666665 429.5Q2592.6666666666665 419 2603.6666666666665 414Q2605.6666666666665 404 2613.6666666666665 397.5Q2621.6666666666665 391 2627.6666666666665 384Q2633.6666666666665 377 2641.1666666666665 369.5Q2648.6666666666665 362 2647.6666666666665 358Q2646.6666666666665 353 2643.1666666666665 355.5Q2639.6666666666665 358 2636.6666666666665 358Q2630.6666666666665 356 2628.1666666666665 357.5Q2625.6666666666665 359 2623.6666666666665 360Q2620.6666666666665 360 2618.1666666666665 359.5Q2615.6666666666665 359 2612.6666666666665 360Q2605.6666666666665 360 2601.6666666666665 360.5Q2597.6666666666665 361 2592.6666666666665 362.5Q2587.6666666666665 364 2582.6666666666665 365.5Q2577.6666666666665 367 2575.6666666666665 367Q2568.6666666666665 364 2565.1666666666665 351.5Q2561.6666666666665 339 2569.6666666666665 334Q2583.6666666666665 326 2591.1666666666665 327.0Q2598.6666666666665 328 2605.6666666666665 328Q2617.6666666666665 326 2622.6666666666665 326.5Q2627.6666666666665 327 2632.6666666666665 326Q2640.6666666666665 325 2647.1666666666665 322.5Q2653.6666666666665 320 2660.6666666666665 320Q2667.6666666666665 321 2674.1666666666665 323.5Q2680.6666666666665 326 2686.6666666666665 326Q2691.6666666666665 326 2695.6666666666665 325.0Q2699.6666666666665 324 2703.6666666666665 324Q2716.6666666666665 324 2729.1666666666665 326.0Q2741.6666666666665 328 2754.6666666666665 326Q2763.6666666666665 325 2772.6666666666665 321.5Q2781.6666666666665 318 2791.6666666666665 320Q2793.6666666666665 323 2797.1666666666665 325.0Q2800.6666666666665 327 2802.6666666666665 330L2809.6666666666665 341Q2809.6666666666665 346 2804.6666666666665 350.0Q2799.6666666666665 354 2798.6666666666665 358H2783.6666666666665Q2778.6666666666665 358 2778.1666666666665 361.0Q2777.6666666666665 364 2772.6666666666665 363Q2770.6666666666665 362 2763.1666666666665 361.0Q2755.6666666666665 360 2747.6666666666665 360.0Q2739.6666666666665 360 2732.1666666666665 361.0Q2724.6666666666665 362 2722.6666666666665 363Q2719.6666666666665 361 2715.6666666666665 360.5Q2711.6666666666665 360 2707.6666666666665 358Q2697.6666666666665 360 2699.1666666666665 362.5Q2700.6666666666665 365 2696.6666666666665 367Q2692.6666666666665 369 2689.1666666666665 371.0Q2685.6666666666665 373 2681.6666666666665 374Q2679.6666666666665 377 2675.1666666666665 383.5Q2670.6666666666665 390 2672.6666666666665 393Q2669.6666666666665 395 2666.6666666666665 396.0Q2663.6666666666665 397 2660.6666666666665 399Q2652.6666666666665 408 2650.6666666666665 410.5Q2648.6666666666665 413 2644.6666666666665 415Q2637.6666666666665 427 2634.6666666666665 429.5Q2631.6666666666665 432 2632.6666666666665 438Q2623.6666666666665 441 2618.1666666666665 448.0Q2612.6666666666665 455 2608.6666666666665 464Q2601.6666666666665 467 2595.6666666666665 473Q2594.6666666666665 480 2598.6666666666665 481.0Q2602.6666666666665 482 2605.6666666666665 486Q2606.6666666666665 491 2612.6666666666665 499Q2617.6666666666665 504 2619.6666666666665 505.5Q2621.6666666666665 507 2619.6666666666665 510Q2624.6666666666665 512 2625.6666666666665 515.5Q2626.6666666666665 519 2632.6666666666665 518Q2634.6666666666665 528 2641.6666666666665 534.0Q2648.6666666666665 540 2649.6666666666665 551Q2655.6666666666665 560 2662.6666666666665 564Q2664.6666666666665 569 2667.6666666666665 577.5Q2670.6666666666665 586 2673.6666666666665 591Q2681.6666666666665 596 2680.6666666666665 598.0Q2679.6666666666665 600 2681.6666666666665 602Q2686.6666666666665 610 2693.6666666666665 615.0Q2700.6666666666665 620 2703.6666666666665 630Q2706.6666666666665 632 2708.6666666666665 634.0Q2710.6666666666665 636 2714.6666666666665 635Q2721.6666666666665 645 2726.1666666666665 651.0Q2730.6666666666665 657 2737.6666666666665 659Q2739.6666666666665 663 2741.6666666666665 667.5Q2743.6666666666665 672 2748.6666666666665 672Q2750.6666666666665 682 2751.6666666666665 684.0Q2752.6666666666665 686 2755.6666666666665 686Q2754.6666666666665 694 2758.6666666666665 696.0Q2762.6666666666665 698 2763.6666666666665 704Q2774.6666666666665 705 2777.6666666666665 704.5Q2780.6666666666665 704 2783.6666666666665 702Q2798.6666666666665 703 2815.6666666666665 700Q2820.6666666666665 698 2827.6666666666665 698.0Q2834.6666666666665 698 2834.6666666666665 700Q2838.6666666666665 700 2841.6666666666665 697.0Q2844.6666666666665 694 2849.6666666666665 693Q2850.6666666666665 693 2854.1666666666665 695.0Q2857.6666666666665 697 2860.6666666666665 699.5Q2863.6666666666665 702 2865.1666666666665 704.5Q2866.6666666666665 707 2863.6666666666665 708Q2863.6666666666665 714 2864.6666666666665 718.5Q2865.6666666666665 723 2863.6666666666665 725Q2855.6666666666665 727 2852.6666666666665 730.5Q2849.6666666666665 734 2841.6666666666665 736Q2831.6666666666665 738 2820.6666666666665 737.5Q2809.6666666666665 737 2798.6666666666665 738Q2791.6666666666665 738 2784.1666666666665 739.0Q2776.6666666666665 740 2768.6666666666665 741Q2765.6666666666665 742 2763.1666666666665 745.5Q2760.6666666666665 749 2757.6666666666665 751Q2752.6666666666665 751 2752.1666666666665 747.5Q2751.6666666666665 744 2744.6666666666665 745Q2738.6666666666665 747 2732.1666666666665 747.5Q2725.6666666666665 748 2718.6666666666665 749Q2709.6666666666665 749 2707.1666666666665 750.5Q2704.6666666666665 752 2701.6666666666665 753Q2694.6666666666665 754 2683.1666666666665 754.5Q2671.6666666666665 755 2664.6666666666665 753Q2660.6666666666665 751 2657.6666666666665 747.5Q2654.6666666666665 744 2649.6666666666665 745Q2650.6666666666665 740 2648.6666666666665 737.5Q2646.6666666666665 735 2645.6666666666665 730Q2646.6666666666665 730 2652.1666666666665 725.0Q2657.6666666666665 720 2660.6666666666665 719Q2665.6666666666665 717 2672.6666666666665 719.5Q2679.6666666666665 722 2683.6666666666665 717Q2692.6666666666665 722 2703.1666666666665 719.0Q2713.6666666666665 716 2722.6666666666665 712Q2717.6666666666665 702 2711.6666666666665 695.5Q2705.6666666666665 689 2703.6666666666665 678Q2698.6666666666665 675 2695.6666666666665 671.5Q2692.6666666666665 668 2686.6666666666665 667Q2682.6666666666665 656 2673.6666666666665 656Q2676.6666666666665 651 2673.6666666666665 649.0Q2670.6666666666665 647 2668.6666666666665 645Q2663.6666666666665 637 2660.1666666666665 630.5Q2656.6666666666665 624 2647.6666666666665 620Q2647.6666666666665 610 2641.6666666666665 598.0Q2635.6666666666665 586 2625.6666666666665 581Q2625.6666666666665 578 2622.6666666666665 573.0Q2619.6666666666665 568 2615.6666666666665 563.0Q2611.6666666666665 558 2607.6666666666665 553.5Q2603.6666666666665 549 2601.6666666666665 548Q2597.6666666666665 532 2588.1666666666665 523.0Q2578.6666666666665 514 2567.6666666666665 503Q2554.6666666666665 506 2549.6666666666665 522Q2542.6666666666665 523 2536.6666666666665 531Q2527.6666666666665 546 2520.6666666666665 551.5Q2513.6666666666665 557 2510.6666666666665 566Q2497.6666666666665 569 2497.6666666666665 573.0Q2497.6666666666665 577 2493.6666666666665 576Q2496.6666666666665 581 2494.6666666666665 587.0Q2492.6666666666665 593 2493.6666666666665 598Q2493.6666666666665 601 2495.1666666666665 603.5Q2496.6666666666665 606 2496.6666666666665 609Q2497.6666666666665 615 2495.6666666666665 618.0Q2493.6666666666665 621 2496.6666666666665 628Q2497.6666666666665 631 2495.6666666666665 635.0Q2493.6666666666665 639 2498.6666666666665 641Q2495.6666666666665 649 2498.6666666666665 659.0Q2501.6666666666665 669 2502.6666666666665 678Q2502.6666666666665 682 2501.6666666666665 685.5Q2500.6666666666665 689 2502.6666666666665 693Q2513.6666666666665 701 2520.6666666666665 700.5Q2527.6666666666665 700 2532.6666666666665 697Q2542.6666666666665 703 2552.6666666666665 702Q2554.6666666666665 707 2559.6666666666665 709.0Q2564.6666666666665 711 2567.6666666666665 713Q2560.6666666666665 717 2555.1666666666665 723.0Q2549.6666666666665 729 2543.6666666666665 734Q2541.6666666666665 734 2533.1666666666665 734.5Q2524.6666666666665 735 2513.6666666666665 736.5Q2502.6666666666665 738 2493.1666666666665 739.5Q2483.6666666666665 741 2480.6666666666665 741Q2456.6666666666665 740 2443.1666666666665 742.0Q2429.6666666666665 744 2415.6666666666665 745Q2403.6666666666665 743 2402.1666666666665 745.0Q2400.6666666666665 747 2398.6666666666665 747Q2386.6666666666665 746 2383.1666666666665 747.5Q2379.6666666666665 749 2375.6666666666665 751Q2369.6666666666665 753 2362.1666666666665 753.5Q2354.6666666666665 754 2347.6666666666665 756Q2342.6666666666665 758 2338.6666666666665 761.0Q2334.6666666666665 764 2329.6666666666665 764Q2325.6666666666665 764 2322.1666666666665 762.5Q2318.6666666666665 761 2314.6666666666665 760Q2311.6666666666665 758 2311.1666666666665 754.0Q2310.6666666666665 750 2307.6666666666665 749Q2305.6666666666665 742 2308.6666666666665 739.0Q2311.6666666666665 736 2310.6666666666665 730Q2315.6666666666665 731 2318.1666666666665 729.0Q2320.6666666666665 727 2323.6666666666665 725Q2331.6666666666665 727 2337.6666666666665 724.5Q2343.6666666666665 722 2349.6666666666665 717Q2348.6666666666665 707 2350.1666666666665 696.5Q2351.6666666666665 686 2349.6666666666665 676Q2357.6666666666665 660 2357.6666666666665 645Q2357.6666666666665 642 2356.1666666666665 639.0Q2354.6666666666665 636 2355.6666666666665 633Q2359.6666666666665 623 2358.6666666666665 620.0Q2357.6666666666665 617 2357.6666666666665 615Q2356.6666666666665 599 2359.6666666666665 583.5Q2362.6666666666665 568 2361.6666666666665 551Q2359.6666666666665 540 2361.1666666666665 539.0Q2362.6666666666665 538 2362.6666666666665 533Q2363.6666666666665 529 2362.6666666666665 525.5Q2361.6666666666665 522 2361.6666666666665 518Q2360.6666666666665 514 2361.6666666666665 511.0Q2362.6666666666665 508 2362.6666666666665 505Q2363.6666666666665 491 2365.1666666666665 477.0Q2366.6666666666665 463 2368.6666666666665 449Q2369.6666666666665 439 2372.1666666666665 429.0Q2374.6666666666665 419 2368.6666666666665 410Q2373.6666666666665 402 2373.1666666666665 388.5Q2372.6666666666665 375 2372.6666666666665 367Q2374.6666666666665 361 2372.6666666666665 358.0Q2370.6666666666665 355 2370.6666666666665 352Q2369.6666666666665 346 2371.6666666666665 339.0Q2373.6666666666665 332 2366.6666666666665 328Q2368.6666666666665 317 2367.6666666666665 306.5Q2366.6666666666665 296 2366.6666666666665 285Q2366.6666666666665 277 2368.6666666666665 269.0Q2370.6666666666665 261 2370.6666666666665 253Q2369.6666666666665 246 2371.1666666666665 243.0Q2372.6666666666665 240 2374.6666666666665 235Q2375.6666666666665 229 2375.6666666666665 223.5Q2375.6666666666665 218 2377.6666666666665 212Q2381.6666666666665 200 2380.6666666666665 197.0Q2379.6666666666665 194 2379.6666666666665 190Q2380.6666666666665 182 2382.6666666666665 174.0Q2384.6666666666665 166 2383.6666666666665 158Q2381.6666666666665 147 2383.1666666666665 144.5Q2384.6666666666665 142 2385.6666666666665 140Q2388.6666666666665 124 2388.6666666666665 106.5Q2388.6666666666665 89 2388.6666666666665 73Q2378.6666666666665 69 2370.1666666666665 72.5Q2361.6666666666665 76 2351.6666666666665 78Q2342.6666666666665 79 2342.6666666666665 80.0Q2342.6666666666665 81 2340.6666666666665 82Q2334.6666666666665 84 2319.6666666666665 85.0Q2304.6666666666665 86 2297.6666666666665 84Q2292.6666666666665 85 2284.6666666666665 91Q2278.6666666666665 89 2275.6666666666665 84.0Q2272.6666666666665 79 2267.6666666666665 76Q2268.6666666666665 71 2268.1666666666665 66.0Q2267.6666666666665 61 2269.6666666666665 56Q2271.6666666666665 54 2275.1666666666665 52.5Q2278.6666666666665 51 2280.6666666666665 50Q2290.6666666666665 52 2290.6666666666665 50.5Q2290.6666666666665 49 2292.6666666666665 49Q2295.6666666666665 48 2301.1666666666665 49.5Q2306.6666666666665 51 2310.6666666666665 50Q2329.6666666666665 50 2344.6666666666665 41Q2352.6666666666665 41 2360.1666666666665 40.5Q2367.6666666666665 40 2375.6666666666665 37Q2378.6666666666665 36 2380.6666666666665 34.5Q2382.6666666666665 33 2385.6666666666665 32Q2390.6666666666665 30 2396.6666666666665 29.0Q2402.6666666666665 28 2407.6666666666665 26Q2414.6666666666665 27 2416.6666666666665 24.0Q2418.6666666666665 21 2420.6666666666665 21Q2433.6666666666665 24 2442.6666666666665 22Q2456.6666666666665 21 2461.6666666666665 23.5Q2466.6666666666665 26 2472.6666666666665 26Q2480.6666666666665 39 2479.1666666666665 42.5Q2477.6666666666665 46 2485.6666666666665 54Q2482.6666666666665 60 2484.1666666666665 61.5Q2485.6666666666665 63 2485.6666666666665 65Q2486.6666666666665 72 2485.6666666666665 79.0Q2484.6666666666665 86 2483.6666666666665 93Q2483.6666666666665 97 2484.6666666666665 100.5Q2485.6666666666665 104 2485.6666666666665 108Q2486.6666666666665 118 2486.1666666666665 129.5Q2485.6666666666665 141 2491.6666666666665 149Q2485.6666666666665 165 2487.1666666666665 171.5Q2488.6666666666665 178 2487.6666666666665 185Q2486.6666666666665 194 2485.1666666666665 203.0Q2483.6666666666665 212 2483.6666666666665 222Q2485.6666666666665 236 2484.1666666666665 244.5Q2482.6666666666665 253 2483.6666666666665 259Q2485.6666666666665 265 2484.6666666666665 268.0Q2483.6666666666665 271 2483.6666666666665 274Q2484.6666666666665 280 2486.1666666666665 284.0Q2487.6666666666665 288 2487.6666666666665 296Q2484.6666666666665 296 2487.1666666666665 300.5Q2489.6666666666665 305 2489.6666666666665 307Q2490.6666666666665 312 2489.1666666666665 316.5Q2487.6666666666665 321 2487.6666666666665 326Q2487.6666666666665 334 2489.6666666666665 341.0Q2491.6666666666665 348 2491.6666666666665 356Q2489.6666666666665 370 2490.1666666666665 384.5Q2490.6666666666665 399 2489.6666666666665 406Q2487.6666666666665 420 2489.6666666666665 423.5Q2491.6666666666665 427 2491.6666666666665 432Q2491.6666666666665 440 2488.6666666666665 445.5Q2485.6666666666665 451 2487.6666666666665 460Q2491.6666666666665 468 2490.6666666666665 471.0Q2489.6666666666665 474 2489.6666666666665 477Q2488.6666666666665 485 2490.1666666666665 492.0Q2491.6666666666665 499 2491.6666666666665 507Q2491.6666666666665 512 2490.6666666666665 518.0Q2489.6666666666665 524 2491.6666666666665 529ZM2426.6666666666665 62Q2427.6666666666665 67 2425.6666666666665 72.0Q2423.6666666666665 77 2424.6666666666665 82Q2426.6666666666665 85 2426.1666666666665 88.0Q2425.6666666666665 91 2424.6666666666665 94.5Q2423.6666666666665 98 2423.1666666666665 101.5Q2422.6666666666665 105 2424.6666666666665 108Q2422.6666666666665 120 2423.6666666666665 123.0Q2424.6666666666665 126 2424.6666666666665 130Q2423.6666666666665 135 2421.6666666666665 138.5Q2419.6666666666665 142 2418.6666666666665 147Q2420.6666666666665 158 2420.1666666666665 168.5Q2419.6666666666665 179 2418.1666666666665 191.0Q2416.6666666666665 203 2415.6666666666665 213.5Q2414.6666666666665 224 2413.6666666666665 227Q2411.6666666666665 234 2408.1666666666665 240.0Q2404.6666666666665 246 2409.6666666666665 253Q2404.6666666666665 255 2407.1666666666665 259.5Q2409.6666666666665 264 2405.6666666666665 265Q2403.6666666666665 269 2402.6666666666665 279.0Q2401.6666666666665 289 2405.6666666666665 293Q2399.6666666666665 300 2402.6666666666665 311.0Q2405.6666666666665 322 2403.6666666666665 324Q2403.6666666666665 329 2404.6666666666665 332.5Q2405.6666666666665 336 2405.6666666666665 341Q2409.6666666666665 350 2410.1666666666665 351.5Q2410.6666666666665 353 2411.6666666666665 354Q2410.6666666666665 358 2409.6666666666665 361.5Q2408.6666666666665 365 2407.6666666666665 369Q2407.6666666666665 372 2408.6666666666665 375.0Q2409.6666666666665 378 2409.6666666666665 382Q2409.6666666666665 385 2408.6666666666665 388.5Q2407.6666666666665 392 2407.6666666666665 395Q2407.6666666666665 400 2408.6666666666665 403.5Q2409.6666666666665 407 2409.6666666666665 412Q2409.6666666666665 422 2407.1666666666665 433.0Q2404.6666666666665 444 2409.6666666666665 453Q2407.6666666666665 456 2405.6666666666665 457.5Q2403.6666666666665 459 2403.6666666666665 464Q2403.6666666666665 475 2401.1666666666665 486.5Q2398.6666666666665 498 2398.6666666666665 509Q2398.6666666666665 512 2399.6666666666665 515.0Q2400.6666666666665 518 2400.6666666666665 522Q2399.6666666666665 525 2398.1666666666665 528.0Q2396.6666666666665 531 2396.6666666666665 535Q2395.6666666666665 538 2397.1666666666665 542.0Q2398.6666666666665 546 2394.6666666666665 548Q2399.6666666666665 555 2397.1666666666665 562.0Q2394.6666666666665 569 2398.6666666666665 574Q2394.6666666666665 585 2395.6666666666665 585.0Q2396.6666666666665 585 2396.6666666666665 587Q2398.6666666666665 593 2397.6666666666665 602.5Q2396.6666666666665 612 2398.6666666666665 622Q2395.6666666666665 627 2392.1666666666665 642.5Q2388.6666666666665 658 2388.6666666666665 663Q2391.6666666666665 669 2389.6666666666665 677.0Q2387.6666666666665 685 2387.6666666666665 687Q2385.6666666666665 693 2386.6666666666665 699.5Q2387.6666666666665 706 2385.6666666666665 712Q2402.6666666666665 715 2423.6666666666665 711.0Q2444.6666666666665 707 2461.6666666666665 706Q2465.6666666666665 698 2466.6666666666665 695.0Q2467.6666666666665 692 2467.1666666666665 690.5Q2466.6666666666665 689 2465.1666666666665 686.5Q2463.6666666666665 684 2463.6666666666665 676Q2464.6666666666665 669 2463.6666666666665 663.0Q2462.6666666666665 657 2461.6666666666665 650.5Q2460.6666666666665 644 2460.1666666666665 637.5Q2459.6666666666665 631 2459.6666666666665 628Q2459.6666666666665 624 2461.1666666666665 620.5Q2462.6666666666665 617 2461.6666666666665 613Q2461.6666666666665 610 2460.1666666666665 607.5Q2458.6666666666665 605 2457.6666666666665 602Q2455.6666666666665 591 2456.1666666666665 581.5Q2456.6666666666665 572 2454.6666666666665 561Q2453.6666666666665 556 2456.6666666666665 555.5Q2459.6666666666665 555 2457.6666666666665 550Q2459.6666666666665 545 2456.6666666666665 543.0Q2453.6666666666665 541 2454.6666666666665 537Q2452.6666666666665 525 2453.1666666666665 517.5Q2453.6666666666665 510 2450.6666666666665 505Q2455.6666666666665 496 2454.1666666666665 485.0Q2452.6666666666665 474 2452.6666666666665 464Q2452.6666666666665 453 2454.6666666666665 441.5Q2456.6666666666665 430 2456.6666666666665 419Q2455.6666666666665 408 2455.1666666666665 398.5Q2454.6666666666665 389 2454.6666666666665 378Q2452.6666666666665 366 2454.6666666666665 358Q2454.6666666666665 350 2455.1666666666665 342.0Q2455.6666666666665 334 2454.6666666666665 326Q2453.6666666666665 323 2452.1666666666665 319.5Q2450.6666666666665 316 2450.6666666666665 313Q2452.6666666666665 305 2451.6666666666665 304.5Q2450.6666666666665 304 2450.6666666666665 302Q2448.6666666666665 285 2450.6666666666665 267.5Q2452.6666666666665 250 2448.6666666666665 233Q2446.6666666666665 226 2448.1666666666665 220.5Q2449.6666666666665 215 2450.6666666666665 209Q2451.6666666666665 202 2451.1666666666665 195.5Q2450.6666666666665 189 2450.6666666666665 183Q2454.6666666666665 165 2453.6666666666665 152.0Q2452.6666666666665 139 2452.6666666666665 127Q2452.6666666666665 122 2453.6666666666665 116.5Q2454.6666666666665 111 2454.6666666666665 106Q2454.6666666666665 102 2454.6666666666665 94.5Q2454.6666666666665 87 2453.1666666666665 79.5Q2451.6666666666665 72 2449.1666666666665 65.5Q2446.6666666666665 59 2442.6666666666665 58Q2440.6666666666665 57 2435.1666666666665 59.0Q2429.6666666666665 61 2426.6666666666665 62ZM3103.6666666666665 309Q3104.6666666666665 316 3105.1666666666665 321.5Q3105.6666666666665 327 3101.6666666666665 334Q3094.6666666666665 336 3089.1666666666665 337.0Q3083.6666666666665 338 3075.6666666666665 343Q3072.6666666666665 345 3067.6666666666665 343.5Q3062.6666666666665 342 3059.6666666666665 347Q3055.6666666666665 348 3052.6666666666665 346.0Q3049.6666666666665 344 3046.6666666666665 345Q3026.6666666666665 350 3017.1666666666665 349.0Q3007.6666666666665 348 2997.6666666666665 350Q2997.6666666666665 352 2998.1666666666665 359.0Q2998.6666666666665 366 3000.1666666666665 374.0Q3001.6666666666665 382 3003.1666666666665 389.0Q3004.6666666666665 396 3005.6666666666665 399Q3006.6666666666665 404 3008.6666666666665 407.5Q3010.6666666666665 411 3012.6666666666665 415Q3014.6666666666665 421 3017.1666666666665 429.0Q3019.6666666666665 437 3023.6666666666665 442Q3031.6666666666665 451 3034.6666666666665 453.5Q3037.6666666666665 456 3040.6666666666665 458Q3043.6666666666665 468 3047.1666666666665 478.0Q3050.6666666666665 488 3057.6666666666665 496Q3056.6666666666665 498 3059.1666666666665 504.5Q3061.6666666666665 511 3064.6666666666665 519.5Q3067.6666666666665 528 3070.6666666666665 535.0Q3073.6666666666665 542 3075.6666666666665 544Q3076.6666666666665 547 3076.1666666666665 552.0Q3075.6666666666665 557 3077.6666666666665 559Q3079.6666666666665 564 3083.1666666666665 568.0Q3086.6666666666665 572 3090.6666666666665 576Q3090.6666666666665 581 3092.6666666666665 584.5Q3094.6666666666665 588 3096.6666666666665 592Q3102.6666666666665 598 3102.1666666666665 601.0Q3101.6666666666665 604 3103.6666666666665 607Q3109.6666666666665 615 3114.6666666666665 621.0Q3119.6666666666665 627 3124.6666666666665 635Q3126.6666666666665 632 3129.1666666666665 629.5Q3131.6666666666665 627 3133.6666666666665 624Q3135.6666666666665 621 3136.1666666666665 616.0Q3136.6666666666665 611 3141.6666666666665 611Q3140.6666666666665 606 3142.6666666666665 603.5Q3144.6666666666665 601 3142.6666666666665 596Q3147.6666666666665 595 3148.6666666666665 590.0Q3149.6666666666665 585 3154.6666666666665 583Q3154.6666666666665 575 3158.6666666666665 569.0Q3162.6666666666665 563 3165.6666666666665 555Q3168.6666666666665 548 3169.1666666666665 540.5Q3169.6666666666665 533 3172.6666666666665 525Q3174.6666666666665 521 3177.6666666666665 518.0Q3180.6666666666665 515 3182.6666666666665 510Q3184.6666666666665 507 3185.1666666666665 502.5Q3185.6666666666665 498 3189.6666666666665 496Q3191.6666666666665 485 3196.1666666666665 476.0Q3200.6666666666665 467 3204.6666666666665 456Q3212.6666666666665 435 3222.6666666666665 412.0Q3232.6666666666665 389 3234.6666666666665 374Q3220.6666666666665 369 3204.6666666666665 374.0Q3188.6666666666665 379 3174.6666666666665 378Q3169.6666666666665 374 3167.6666666666665 368.5Q3165.6666666666665 363 3161.6666666666665 358Q3163.6666666666665 356 3165.1666666666665 353.0Q3166.6666666666665 350 3169.6666666666665 348L3180.6666666666665 343Q3182.6666666666665 342 3187.1666666666665 343.0Q3191.6666666666665 344 3195.6666666666665 343Q3206.6666666666665 339 3208.1666666666665 340.0Q3209.6666666666665 341 3211.6666666666665 341Q3218.6666666666665 341 3224.1666666666665 338.5Q3229.6666666666665 336 3236.6666666666665 335Q3239.6666666666665 335 3242.6666666666665 336.0Q3245.6666666666665 337 3249.6666666666665 337Q3261.6666666666665 335 3266.6666666666665 337.0Q3271.6666666666665 339 3275.6666666666665 334Q3279.6666666666665 338 3291.6666666666665 338.0Q3303.6666666666665 338 3308.6666666666665 337Q3312.6666666666665 337 3316.1666666666665 338.5Q3319.6666666666665 340 3323.6666666666665 339Q3333.6666666666665 335 3338.6666666666665 334.5Q3343.6666666666665 334 3349.1666666666665 333.5Q3354.6666666666665 333 3359.6666666666665 332.5Q3364.6666666666665 332 3364.6666666666665 332Q3374.6666666666665 336 3376.1666666666665 334.5Q3377.6666666666665 333 3379.6666666666665 334Q3383.6666666666665 334 3385.6666666666665 336.5Q3387.6666666666665 339 3394.6666666666665 337Q3396.6666666666665 344 3402.1666666666665 349.5Q3407.6666666666665 355 3403.6666666666665 363Q3398.6666666666665 368 3392.1666666666665 367.0Q3385.6666666666665 366 3379.6666666666665 371Q3372.6666666666665 373 3366.6666666666665 371.0Q3360.6666666666665 369 3353.6666666666665 369Q3350.6666666666665 369 3348.1666666666665 370.5Q3345.6666666666665 372 3342.6666666666665 373Q3340.6666666666665 373 3337.1666666666665 371.5Q3333.6666666666665 370 3331.6666666666665 371Q3321.6666666666665 371 3315.1666666666665 373.5Q3308.6666666666665 376 3297.6666666666665 374Q3293.6666666666665 374 3290.1666666666665 372.5Q3286.6666666666665 371 3282.6666666666665 373Q3269.6666666666665 376 3269.6666666666665 385.0Q3269.6666666666665 394 3265.6666666666665 402Q3263.6666666666665 407 3260.1666666666665 411.5Q3256.6666666666665 416 3254.6666666666665 421Q3251.6666666666665 428 3250.6666666666665 437.5Q3249.6666666666665 447 3241.6666666666665 451V464Q3236.6666666666665 470 3232.6666666666665 478.5Q3228.6666666666665 487 3230.6666666666665 496Q3224.6666666666665 497 3225.6666666666665 501.0Q3226.6666666666665 505 3224.6666666666665 509Q3218.6666666666665 516 3218.6666666666665 518.0Q3218.6666666666665 520 3217.6666666666665 522Q3211.6666666666665 529 3209.6666666666665 534.0Q3207.6666666666665 539 3205.6666666666665 545.0Q3203.6666666666665 551 3201.6666666666665 556.5Q3199.6666666666665 562 3198.6666666666665 564Q3196.6666666666665 569 3197.1666666666665 573.0Q3197.6666666666665 577 3195.6666666666665 581Q3188.6666666666665 589 3186.6666666666665 596.0Q3184.6666666666665 603 3182.6666666666665 609Q3180.6666666666665 612 3178.6666666666665 614.5Q3176.6666666666665 617 3174.6666666666665 620Q3173.6666666666665 622 3172.1666666666665 632.5Q3170.6666666666665 643 3170.6666666666665 645Q3165.6666666666665 648 3164.6666666666665 654.0Q3163.6666666666665 660 3161.6666666666665 665Q3160.6666666666665 669 3158.1666666666665 671.5Q3155.6666666666665 674 3154.6666666666665 678Q3152.6666666666665 682 3153.1666666666665 685.5Q3153.6666666666665 689 3152.6666666666665 693Q3149.6666666666665 704 3145.1666666666665 715.0Q3140.6666666666665 726 3142.6666666666665 738L3135.6666666666665 747Q3131.6666666666665 759 3132.6666666666665 761.5Q3133.6666666666665 764 3128.6666666666665 766Q3127.6666666666665 777 3123.6666666666665 785.0Q3119.6666666666665 793 3113.6666666666665 801Q3113.6666666666665 812 3109.6666666666665 818.0Q3105.6666666666665 824 3100.6666666666665 833Q3099.6666666666665 846 3093.1666666666665 856.0Q3086.6666666666665 866 3085.6666666666665 879Q3084.6666666666665 884 3082.1666666666665 884.0Q3079.6666666666665 884 3077.6666666666665 887Q3077.6666666666665 896 3074.1666666666665 902.5Q3070.6666666666665 909 3072.6666666666665 920Q3079.6666666666665 924 3080.6666666666665 925.5Q3081.6666666666665 927 3083.6666666666665 928Q3094.6666666666665 924 3094.6666666666665 925.0Q3094.6666666666665 926 3096.6666666666665 926Q3102.6666666666665 926 3109.6666666666665 925.5Q3116.6666666666665 925 3122.6666666666665 924Q3127.6666666666665 923 3133.6666666666665 920.5Q3139.6666666666665 918 3144.6666666666665 918Q3156.6666666666665 920 3163.6666666666665 931Q3160.6666666666665 934 3159.6666666666665 938.0Q3158.6666666666665 942 3152.6666666666665 941Q3152.6666666666665 946 3145.6666666666665 949.5Q3138.6666666666665 953 3135.6666666666665 957L3122.6666666666665 961Q3113.6666666666665 963 3105.1666666666665 962.0Q3096.6666666666665 961 3087.6666666666665 961Q3077.6666666666665 961 3067.6666666666665 962.0Q3057.6666666666665 963 3047.6666666666665 963Q3043.6666666666665 963 3039.6666666666665 962.0Q3035.6666666666665 961 3031.6666666666665 961Q3019.6666666666665 963 3016.6666666666665 962.0Q3013.6666666666665 961 3010.6666666666665 961Q2993.6666666666665 961 2975.6666666666665 962.0Q2957.6666666666665 963 2939.6666666666665 961Q2938.6666666666665 959 2936.6666666666665 956.5Q2934.6666666666665 954 2932.6666666666665 952Q2926.6666666666665 942 2931.6666666666665 935.0Q2936.6666666666665 928 2945.6666666666665 924Q2952.6666666666665 928 2960.1666666666665 926.5Q2967.6666666666665 925 2975.6666666666665 926Q2978.6666666666665 926 2981.6666666666665 927.5Q2984.6666666666665 929 2988.6666666666665 930Q3002.6666666666665 928 3006.1666666666665 928.5Q3009.6666666666665 929 3014.6666666666665 928Q3025.6666666666665 925 3030.1666666666665 915.5Q3034.6666666666665 906 3036.6666666666665 896Q3037.6666666666665 893 3039.1666666666665 890.0Q3040.6666666666665 887 3036.6666666666665 885Q3038.6666666666665 880 3042.1666666666665 877.0Q3045.6666666666665 874 3047.6666666666665 870Q3049.6666666666665 860 3053.1666666666665 850.5Q3056.6666666666665 841 3061.6666666666665 833Q3062.6666666666665 830 3064.1666666666665 828.0Q3065.6666666666665 826 3066.6666666666665 823Q3068.6666666666665 818 3069.1666666666665 813.0Q3069.6666666666665 808 3072.6666666666665 803Q3074.6666666666665 799 3077.1666666666665 791.0Q3079.6666666666665 783 3081.6666666666665 781Q3085.6666666666665 771 3087.6666666666665 771Q3089.6666666666665 765 3089.6666666666665 757.5Q3089.6666666666665 750 3094.6666666666665 745Q3089.6666666666665 740 3083.6666666666665 735.5Q3077.6666666666665 731 3072.6666666666665 727Q3070.6666666666665 725 3070.6666666666665 720.5Q3070.6666666666665 716 3070.6666666666665 713Q3066.6666666666665 704 3060.6666666666665 694.5Q3054.6666666666665 685 3049.6666666666665 676Q3046.6666666666665 669 3039.6666666666665 663.0Q3032.6666666666665 657 3027.6666666666665 650Q3025.6666666666665 648 3023.1666666666665 645.5Q3020.6666666666665 643 3018.6666666666665 641Q3013.6666666666665 630 3012.1666666666665 630.5Q3010.6666666666665 631 3008.6666666666665 630Q3007.6666666666665 628 3006.6666666666665 623.5Q3005.6666666666665 619 3003.6666666666665 617Q3001.6666666666665 615 2999.6666666666665 613.0Q2997.6666666666665 611 2995.6666666666665 609Q2988.6666666666665 600 2988.6666666666665 597.0Q2988.6666666666665 594 2986.6666666666665 592Q2977.6666666666665 585 2978.1666666666665 584.0Q2978.6666666666665 583 2977.6666666666665 581Q2971.6666666666665 577 2971.6666666666665 574.5Q2971.6666666666665 572 2969.6666666666665 570Q2967.6666666666665 566 2963.1666666666665 563.5Q2958.6666666666665 561 2956.6666666666665 557Q2953.6666666666665 546 2952.1666666666665 545.0Q2950.6666666666665 544 2949.6666666666665 542Q2944.6666666666665 533 2944.6666666666665 531.0Q2944.6666666666665 529 2943.6666666666665 527Q2940.6666666666665 521 2935.1666666666665 514.5Q2929.6666666666665 508 2923.6666666666665 505Q2921.6666666666665 499 2918.1666666666665 493.5Q2914.6666666666665 488 2908.6666666666665 486Q2904.6666666666665 474 2899.1666666666665 462.5Q2893.6666666666665 451 2884.6666666666665 442Q2884.6666666666665 439 2880.1666666666665 426.5Q2875.6666666666665 414 2869.6666666666665 400.0Q2863.6666666666665 386 2858.1666666666665 374.5Q2852.6666666666665 363 2850.6666666666665 361Q2840.6666666666665 362 2830.6666666666665 365.0Q2820.6666666666665 368 2811.6666666666665 373Q2807.6666666666665 372 2805.1666666666665 369.5Q2802.6666666666665 367 2800.6666666666665 365Q2792.6666666666665 357 2792.6666666666665 352.0Q2792.6666666666665 347 2802.6666666666665 341Q2807.6666666666665 335 2812.1666666666665 336.0Q2816.6666666666665 337 2818.6666666666665 335Q2821.6666666666665 334 2824.1666666666665 332.5Q2826.6666666666665 331 2828.6666666666665 330Q2836.6666666666665 328 2845.1666666666665 328.0Q2853.6666666666665 328 2861.6666666666665 326Q2874.6666666666665 320 2881.1666666666665 321.0Q2887.6666666666665 322 2893.6666666666665 320Q2915.6666666666665 313 2928.6666666666665 315.5Q2941.6666666666665 318 2954.6666666666665 319Q2968.6666666666665 319 2981.1666666666665 316.0Q2993.6666666666665 313 3006.6666666666665 315Q3013.6666666666665 316 3014.6666666666665 312.0Q3015.6666666666665 308 3020.6666666666665 309Q3030.6666666666665 311 3041.6666666666665 310.0Q3052.6666666666665 309 3063.1666666666665 307.5Q3073.6666666666665 306 3084.1666666666665 305.5Q3094.6666666666665 305 3103.6666666666665 309ZM2889.6666666666665 354Q2891.6666666666665 357 2891.6666666666665 362.0Q2891.6666666666665 367 2893.6666666666665 369Q2898.6666666666665 375 2898.1666666666665 379.0Q2897.6666666666665 383 2898.6666666666665 386Q2904.6666666666665 392 2905.6666666666665 396.0Q2906.6666666666665 400 2908.6666666666665 404Q2911.6666666666665 412 2916.1666666666665 418.5Q2920.6666666666665 425 2925.6666666666665 432Q2928.6666666666665 440 2930.1666666666665 440.0Q2931.6666666666665 440 2932.6666666666665 442Q2931.6666666666665 447 2934.6666666666665 449.5Q2937.6666666666665 452 2936.6666666666665 458Q2942.6666666666665 457 2943.1666666666665 460.5Q2943.6666666666665 464 2943.6666666666665 469Q2948.6666666666665 470 2949.1666666666665 472.5Q2949.6666666666665 475 2951.6666666666665 479Q2957.6666666666665 485 2958.6666666666665 489.0Q2959.6666666666665 493 2962.6666666666665 497Q2964.6666666666665 500 2967.1666666666665 502.0Q2969.6666666666665 504 2971.6666666666665 507Q2976.6666666666665 513 2980.6666666666665 518.0Q2984.6666666666665 523 2982.6666666666665 529Q2984.6666666666665 531 2989.6666666666665 537.5Q2994.6666666666665 544 2999.6666666666665 551.5Q3004.6666666666665 559 3008.1666666666665 565.5Q3011.6666666666665 572 3010.6666666666665 574Q3018.6666666666665 576 3023.6666666666665 585.5Q3028.6666666666665 595 3033.6666666666665 600Q3037.6666666666665 602 3045.1666666666665 612.5Q3052.6666666666665 623 3053.6666666666665 628Q3061.6666666666665 634 3069.1666666666665 643.5Q3076.6666666666665 653 3083.6666666666665 661Q3085.6666666666665 664 3086.1666666666665 667.0Q3086.6666666666665 670 3088.6666666666665 672Q3096.6666666666665 674 3095.6666666666665 677.5Q3094.6666666666665 681 3098.6666666666665 680Q3099.6666666666665 673 3096.6666666666665 670.5Q3093.6666666666665 668 3090.6666666666665 663Q3085.6666666666665 654 3086.6666666666665 650.0Q3087.6666666666665 646 3085.6666666666665 643Q3082.6666666666665 638 3077.6666666666665 635.0Q3072.6666666666665 632 3074.6666666666665 624Q3065.6666666666665 619 3062.6666666666665 609.5Q3059.6666666666665 600 3051.6666666666665 594Q3051.6666666666665 588 3049.1666666666665 582.0Q3046.6666666666665 576 3044.6666666666665 570Q3042.6666666666665 565 3042.1666666666665 559.0Q3041.6666666666665 553 3036.6666666666665 550V538Q3032.6666666666665 536 3031.6666666666665 531.0Q3030.6666666666665 526 3029.6666666666665 522Q3021.6666666666665 517 3019.1666666666665 507.0Q3016.6666666666665 497 3010.6666666666665 490Q3008.6666666666665 486 3005.1666666666665 482.5Q3001.6666666666665 479 2999.6666666666665 475L2993.6666666666665 464Q2992.6666666666665 463 2991.1666666666665 457.5Q2989.6666666666665 452 2987.6666666666665 446.0Q2985.6666666666665 440 2984.1666666666665 435.0Q2982.6666666666665 430 2982.6666666666665 429Q2979.6666666666665 425 2978.1666666666665 421.0Q2976.6666666666665 417 2973.6666666666665 414Q2972.6666666666665 402 2968.6666666666665 392.0Q2964.6666666666665 382 2962.6666666666665 371Q2963.6666666666665 361 2960.6666666666665 358.5Q2957.6666666666665 356 2958.6666666666665 352Q2944.6666666666665 354 2932.6666666666665 350.0Q2920.6666666666665 346 2906.6666666666665 350Q2901.6666666666665 352 2897.6666666666665 351.5Q2893.6666666666665 351 2889.6666666666665 354Z" fill="currentColor" /></svg>