<svg viewBox="0 0 2230 1300" xmlns="http://www.w3.org/2000/svg"><path d="M585 1004Q565 1015 542 1015Q524 1015 513.5 1008.5Q503 1002 492 985L340 739Q317 702 291.5 689.5Q266 677 211 677H172V1007H100V307H172V615H231Q249 615 258 616L494 307H577L322 636Q364 659 402 718ZM988 496Q988 512 977 525Q953 512 911 512Q844 512 803.5 565.0Q763 618 763 704V1007H695V457H763V556Q786 510 828.0 480.0Q870 450 916 450Q951 450 969.5 461.5Q988 473 988 496ZM1542 1000Q1521 1012 1499 1012Q1478 1012 1468.5 994.5Q1459 977 1458 931Q1430 970 1379.0 993.5Q1328 1017 1269 1017Q1100 1017 1100 832V457H1168V825Q1168 898 1195.0 930.5Q1222 963 1281 963Q1334 963 1380.5 936.0Q1427 909 1458 860V457H1527V894Q1527 952 1542 1000ZM2190 723Q2190 861 2127.0 939.0Q2064 1017 1953 1017Q1847 1017 1787 954Q1778 1007 1752 1007Q1722 1007 1702 995Q1721 953 1721 875V216H1791V498Q1864 447 1958 447Q2069 447 2129.5 519.0Q2190 591 2190 723ZM2120 723Q2120 617 2078.0 560.0Q2036 503 1958 503Q1866 503 1791 560V885Q1850 959 1953 959Q2033 959 2076.5 897.5Q2120 836 2120 723Z" fill="currentColor" /></svg>