<svg viewBox="0 0 2956 772" xmlns="http://www.w3.org/2000/svg"><path d="M172 480H54V396H168Q219 396 245.5 372.0Q272 348 288 312L416 40H516V48L376 340Q358 379 331.0 411.0Q304 443 265.5 461.5Q227 480 172 480ZM0 760V40H96V760ZM304 416 518 752V760H410L228 464ZM866 772Q814 772 768.5 761.5Q723 751 689.5 724.5Q656 698 637.0 652.0Q618 606 618 536V388Q618 368 617.5 336.0Q617 304 615.5 273.0Q614 242 610 224L612 216H710V528Q710 594 729.5 629.5Q749 665 786.5 678.5Q824 692 877 692Q909 692 942.5 686.5Q976 681 1001 674L984 698Q980 684 979.0 663.0Q978 642 978 620V388Q978 368 977.5 336.0Q977 304 975.5 273.0Q974 242 970 224L972 216H1070V564Q1070 584 1070.5 616.0Q1071 648 1072.5 679.0Q1074 710 1078 728L1076 736Q1050 746 1010.5 754.0Q971 762 931.5 767.0Q892 772 866 772ZM1266 760V216Q1266 144 1287.5 96.0Q1309 48 1352.5 24.0Q1396 0 1462 0Q1486 0 1504.5 3.0Q1523 6 1538 12V92H1530Q1515 86 1500.5 83.0Q1486 80 1462 80Q1401 80 1379.5 112.5Q1358 145 1358 216V760ZM1182 296V216H1510V296ZM1788 772Q1671 772 1612.5 729.5Q1554 687 1554 600Q1554 542 1582.5 504.0Q1611 466 1663.5 447.0Q1716 428 1788 428Q1844 428 1881.5 437.5Q1919 447 1946 456V528Q1919 519 1879.0 511.5Q1839 504 1804 504Q1723 504 1683.5 525.0Q1644 546 1644 600Q1644 651 1682.0 673.5Q1720 696 1792 696Q1832 696 1869.0 689.5Q1906 683 1938 672L1920 699Q1918 691 1916.5 681.0Q1915 671 1914.0 660.0Q1913 649 1912.5 637.0Q1912 625 1912 612V432Q1912 368 1894.5 336.5Q1877 305 1842.5 294.5Q1808 284 1756 284Q1717 284 1676.5 294.0Q1636 304 1612 316H1604V234Q1640 219 1684.5 211.5Q1729 204 1768 204Q1818 204 1860.5 213.0Q1903 222 1935.5 245.5Q1968 269 1986.0 313.0Q2004 357 2004 428V560Q2004 580 2004.5 612.0Q2005 644 2006.5 675.0Q2008 706 2012 724L2010 732Q1977 744 1937.0 753.0Q1897 762 1857.5 767.0Q1818 772 1788 772ZM2188 760V416Q2188 396 2187.5 364.0Q2187 332 2185.5 301.0Q2184 270 2180 252L2182 244Q2208 234 2247.0 225.0Q2286 216 2327.0 210.0Q2368 204 2400 204Q2444 204 2484.0 214.5Q2524 225 2555.5 251.5Q2587 278 2605.5 323.5Q2624 369 2624 440V760H2532V448Q2532 382 2513.5 346.5Q2495 311 2462.5 297.5Q2430 284 2388 284Q2356 284 2319.5 291.0Q2283 298 2256 308L2272 280Q2276 295 2278.0 317.5Q2280 340 2280 364V760ZM2864 760V448Q2864 382 2847.0 346.5Q2830 311 2796.0 297.5Q2762 284 2712 284Q2683 284 2652.5 291.0Q2622 298 2588 312L2532 248Q2582 228 2631.5 216.0Q2681 204 2724 204Q2774 204 2816.0 214.5Q2858 225 2889.5 251.5Q2921 278 2938.5 323.5Q2956 369 2956 440V760Z" /></svg>