<svg viewBox="0 0 3834 819.090909090909" xmlns="http://www.w3.org/2000/svg"><path d="M380 819Q370 818 365 807Q364 806 364 802Q363 794 361.5 786.0Q360 778 361 770V765Q360 756 360.0 747.0Q360 738 359 730Q357 713 347 704L338 695Q333 689 325 691Q319 692 313.5 692.0Q308 692 302 691Q298 691 293.5 691.5Q289 692 284 692Q280 692 275.5 691.5Q271 691 267 692Q263 693 259.5 693.0Q256 693 253 693H219Q208 693 196 696L172 702Q160 706 148 708Q144 709 140.0 710.0Q136 711 132 713Q117 720 103 721Q94 723 90 729L85 735Q83 736 81.0 737.5Q79 739 77 741Q70 745 62 741Q53 736 51 730Q51 729 50.5 728.5Q50 728 50 727Q43 710 27 697Q23 694 20 690Q19 687 17.0 684.5Q15 682 13 680L7 671Q3 664 4 655Q5 650 5.5 644.5Q6 639 7 634V628Q7 617 7.0 605.5Q7 594 8 584V574Q10 570 9.5 566.5Q9 563 9 559Q10 546 9.5 533.5Q9 521 10 508L13 463Q14 452 14.5 442.0Q15 432 15 422V419Q17 407 17.0 395.0Q17 383 17 370V301Q16 290 15.5 279.0Q15 268 15 257Q15 245 14.0 232.5Q13 220 11 207Q10 199 8.5 190.0Q7 181 7 172Q7 170 6.5 168.0Q6 166 6 164Q0 137 0 109V67Q0 60 0.5 53.5Q1 47 2 40Q4 28 10 22L15 16Q21 8 29.0 4.5Q37 1 46 0H53Q68 0 77 11Q79 12 80.0 13.0Q81 14 82 15Q87 19 88 24Q93 34 93.5 37.0Q94 40 94 51V58Q94 65 94.0 71.5Q94 78 95 85Q96 87 96 91Q96 98 96.5 105.0Q97 112 98 119Q99 129 100.0 138.5Q101 148 101 159Q101 161 101.5 163.5Q102 166 102 168Q102 169 102.5 170.5Q103 172 103 174L106 225Q107 230 107.0 235.5Q107 241 107 247Q108 248 108 252Q107 257 107.0 262.5Q107 268 108 273V339Q107 345 108 351V357Q107 365 107.0 373.5Q107 382 106 391Q106 398 106.0 405.5Q106 413 105 421Q104 425 104.0 430.0Q104 435 104 440Q104 444 103.5 449.5Q103 455 102 460V463Q101 473 100.5 483.0Q100 493 99 504Q98 509 98.0 515.0Q98 521 97 527Q96 531 96 537Q96 542 96.0 547.0Q96 552 95 557Q94 568 94.0 578.5Q94 589 94 600V601Q96 606 99 606L119 609Q143 612 166 612Q172 612 176 611Q181 610 187.0 610.0Q193 610 198 609H226Q233 609 240.0 607.5Q247 606 254 605H259Q270 605 281.0 603.5Q292 602 303 602H336Q350 602 360 596Q368 593 375.5 592.0Q383 591 391 590Q403 590 412 596Q432 608 438 629Q440 636 440.5 644.0Q441 652 440 660Q439 669 436.0 676.5Q433 684 428 692L419 705Q413 716 410 727Q409 736 407.0 744.5Q405 753 405 762Q405 766 404.5 770.0Q404 774 404 778Q403 782 403.0 785.0Q403 788 403 792Q403 800 398 810Q392 820 380 819ZM941 774Q932 774 925 767Q923 764 921.0 761.0Q919 758 917 755Q908 734 908 711L905 687Q902 673 900.0 659.0Q898 645 893 632L887 615Q887 613 886.5 611.0Q886 609 885 607L870 554Q869 552 868.5 549.0Q868 546 866 544Q863 538 861.5 531.5Q860 525 858 518Q857 513 856.0 508.5Q855 504 853 499Q851 493 849.0 491.5Q847 490 840 492Q835 493 829.5 493.5Q824 494 819 496Q815 497 809.5 497.5Q804 498 799 499L785 502Q780 503 774.5 504.5Q769 506 764 506L746 509Q738 511 729.0 513.0Q720 515 712 517Q688 523 664 526Q656 528 655 533Q654 533 654.0 533.5Q654 534 654 534Q648 550 640.5 565.5Q633 581 625 597Q623 601 621.5 604.5Q620 608 618 612Q617 614 616.0 616.5Q615 619 614 621Q608 628 608 638Q607 644 604.0 649.5Q601 655 598 660Q597 663 594 663Q590 664 586.0 666.0Q582 668 577 670Q574 671 571 670Q569 669 566.5 667.5Q564 666 562 666Q551 665 546 653Q538 637 535 621Q534 617 535.5 614.0Q537 611 538 608Q544 604 545 599V598Q545 585 550.5 573.5Q556 562 560 551Q562 545 565.0 539.0Q568 533 571 527Q575 520 577.5 513.5Q580 507 582 500Q585 492 582 485Q580 479 580.0 473.5Q580 468 581 462Q581 451 589 443Q593 438 597.5 434.5Q602 431 606 427Q615 418 620 403Q624 390 626.5 376.5Q629 363 632 350Q634 337 636.5 324.5Q639 312 642 300Q643 295 644.5 290.5Q646 286 647 282Q650 274 653.0 266.5Q656 259 657 251Q659 247 657 244Q656 239 657.5 235.0Q659 231 660 227Q663 220 664.5 213.0Q666 206 669 199Q674 186 677.5 177.5Q681 169 684 158Q686 152 688.5 146.5Q691 141 692 135Q695 126 697.0 116.5Q699 107 699 98Q701 90 703 87Q708 77 715.5 70.0Q723 63 730 56Q735 53 740.0 51.5Q745 50 750 53Q754 55 755 55Q764 54 770.0 59.0Q776 64 780 71Q782 73 783.0 76.0Q784 79 785 81Q790 89 790 97Q790 101 791.0 105.5Q792 110 793 115Q796 121 802 121Q803 120 804.0 121.0Q805 122 805 123Q810 129 808 136Q806 144 807.5 151.5Q809 159 811 167Q815 177 819.0 187.0Q823 197 827 207Q832 218 837.0 229.0Q842 240 846 251Q851 265 856.5 279.0Q862 293 869 307L872 318Q873 322 874.5 326.0Q876 330 877 334Q879 337 880.5 340.0Q882 343 884 345Q889 352 890 360Q893 370 899 378Q901 381 905 381Q920 379 935.0 377.5Q950 376 965 372Q976 369 986 369Q1005 369 1021 382Q1040 397 1041 420Q1041 425 1042 428Q1042 435 1038 439Q1037 442 1034.5 445.0Q1032 448 1030 451Q1028 455 1026 457L1020 462Q1019 464 1017.0 466.5Q1015 469 1012 470Q1008 471 1004.0 472.5Q1000 474 995 474Q977 476 963 473H947Q945 473 941 475Q937 477 937 480V484Q940 493 941.5 502.5Q943 512 947 520Q947 524 949 528Q954 537 957.0 546.5Q960 556 962 566Q962 568 964 574Q967 581 969.0 588.5Q971 596 972 604Q972 610 975 615Q979 624 981.0 633.0Q983 642 984 652Q985 653 985.0 655.5Q985 658 986 660Q991 671 993.0 683.5Q995 696 998 708Q1000 714 1000.5 720.5Q1001 727 1001 734Q1001 739 998 745Q995 748 995 748Q989 749 988 755L985 761Q983 765 979 766Q975 766 972 769Q968 773 961 773Q957 773 951.5 773.0Q946 773 941 774ZM700 411Q706 410 712.5 409.0Q719 408 727 407Q732 406 740.0 405.0Q748 404 755 403Q762 401 769.0 400.5Q776 400 783 399Q789 397 795.0 396.5Q801 396 807 395Q816 393 814 385Q813 377 810.5 368.5Q808 360 801 354Q799 352 799 348V345Q797 337 794.5 329.5Q792 322 789 315Q787 307 784.5 300.5Q782 294 779 287L767 251Q764 244 761.5 237.0Q759 230 757 223L754 219H751L749 222Q744 237 737.5 252.0Q731 267 726 284Q726 286 725.0 289.0Q724 292 723 295Q719 305 715.5 317.0Q712 329 710 341Q709 348 708.0 354.5Q707 361 705 368L696 407Q695 408 697.0 409.5Q699 411 700 411ZM1303 706Q1299 706 1296.0 706.0Q1293 706 1289 705Q1287 705 1284.5 704.5Q1282 704 1280 704Q1264 703 1250.0 698.0Q1236 693 1222 686Q1221 686 1220.5 685.5Q1220 685 1219 685Q1209 680 1201.5 673.0Q1194 666 1187 659Q1179 649 1176 640Q1172 632 1166 623Q1156 612 1151 595Q1148 587 1145.0 579.0Q1142 571 1140 562Q1139 559 1138.0 555.5Q1137 552 1135 548Q1133 543 1131.5 537.0Q1130 531 1128 525Q1127 521 1125.5 511.5Q1124 502 1124 500V457Q1125 451 1126.0 445.5Q1127 440 1128 434L1129 433Q1129 434 1129.5 434.0Q1130 434 1130 435Q1131 435 1131.0 435.5Q1131 436 1131 436Q1132 437 1132 435Q1132 429 1131 425Q1131 423 1130.5 421.0Q1130 419 1134 418Q1135 418 1135 415L1144 371Q1145 366 1146.0 361.5Q1147 357 1148 353L1150 342Q1149 344 1151.5 335.0Q1154 326 1155 323Q1157 318 1160.5 313.0Q1164 308 1165 306Q1173 297 1180 281L1199 251Q1203 247 1203 241Q1202 236 1206 230Q1209 224 1212.5 218.0Q1216 212 1220 206Q1225 198 1231.5 189.5Q1238 181 1244 174Q1246 171 1248.5 168.0Q1251 165 1255 164Q1257 164 1258.0 163.0Q1259 162 1260 161Q1280 140 1305 122Q1307 120 1309.0 118.0Q1311 116 1313 115Q1318 112 1324 112Q1329 112 1332 111Q1335 111 1341 109Q1348 107 1352 111Q1358 117 1372 115Q1381 114 1387 125Q1389 128 1390.5 131.0Q1392 134 1395 136Q1398 142 1403.5 147.0Q1409 152 1413 157L1426 175Q1428 178 1430.5 181.5Q1433 185 1435 188Q1440 193 1441 198Q1443 203 1444.5 204.5Q1446 206 1447 214Q1448 218 1447.5 218.5Q1447 219 1451 219Q1455 219 1455 224Q1455 235 1451 243Q1449 246 1447.5 246.0Q1446 246 1444 248Q1441 253 1437.5 258.0Q1434 263 1430 269Q1427 274 1422.5 278.0Q1418 282 1413 286Q1405 294 1394 292Q1385 292 1381 291Q1378 290 1375.5 288.5Q1373 287 1370 286Q1368 286 1366 284Q1365 282 1364.0 280.5Q1363 279 1361 278Q1356 275 1353.0 270.5Q1350 266 1348 262Q1347 259 1347.0 256.0Q1347 253 1347 251Q1346 245 1345.5 239.0Q1345 233 1343 227Q1343 225 1338 225Q1332 229 1326.0 233.0Q1320 237 1315 243L1284 280Q1281 283 1278.5 286.5Q1276 290 1274 293Q1270 298 1266.5 303.5Q1263 309 1258 314Q1256 316 1255 318Q1252 325 1248.5 331.0Q1245 337 1242 345Q1237 355 1233.5 366.5Q1230 378 1228 390Q1227 405 1222 420Q1221 425 1220.0 431.0Q1219 437 1218 443Q1217 452 1215.0 461.0Q1213 470 1214 480Q1216 500 1220 518Q1223 528 1225.5 537.5Q1228 547 1231 557Q1232 560 1233.0 563.0Q1234 566 1235 569Q1241 583 1257 591Q1263 594 1270 594Q1276 594 1282.0 594.5Q1288 595 1294 594Q1322 591 1346 585Q1357 583 1367.0 579.0Q1377 575 1387 571Q1395 568 1402 562Q1410 556 1418.5 549.5Q1427 543 1435 536Q1443 529 1451.0 522.0Q1459 515 1466 507Q1469 504 1475 500Q1478 498 1481.0 496.0Q1484 494 1486 492Q1491 489 1495.5 486.0Q1500 483 1506 483Q1509 481 1512.5 480.5Q1516 480 1519 479Q1528 476 1535 479Q1538 480 1541.0 481.0Q1544 482 1547 484Q1555 489 1562 500Q1567 512 1567 521V527Q1567 540 1557 550Q1546 564 1534 572Q1527 576 1520 583Q1510 591 1499.5 600.0Q1489 609 1478 617L1474 621Q1471 623 1468.0 626.0Q1465 629 1461 631Q1454 638 1445.0 643.5Q1436 649 1427 654Q1418 658 1410 666Q1407 669 1404.0 672.0Q1401 675 1397 677Q1384 684 1367 691Q1366 692 1364.0 693.0Q1362 694 1360 695Q1354 698 1347.5 699.5Q1341 701 1335 702Q1327 703 1319.0 703.5Q1311 704 1303 706ZM2156 781Q2138 783 2128 770Q2125 763 2119 763Q2116 762 2115 759Q2114 755 2111 751Q2105 741 2098.5 732.0Q2092 723 2084 714Q2080 710 2077.0 706.0Q2074 702 2071 698Q2069 696 2067.0 693.0Q2065 690 2063 688Q2056 680 2053.5 679.0Q2051 678 2040 683Q2019 692 1998.0 699.0Q1977 706 1954 710Q1943 713 1930 711L1910 709Q1906 708 1901.0 708.0Q1896 708 1891 707L1870 704H1865Q1856 700 1847.0 697.5Q1838 695 1830 691Q1818 686 1806.5 680.0Q1795 674 1784 669Q1774 664 1763 655Q1761 654 1759 652Q1749 645 1740.0 636.0Q1731 627 1723 619Q1720 616 1716 610Q1712 605 1709.0 600.0Q1706 595 1702 591Q1701 591 1701 590Q1692 577 1684 562Q1672 541 1666 517Q1664 509 1663.0 501.5Q1662 494 1661 487Q1661 482 1660.5 478.0Q1660 474 1659 470Q1659 467 1658.5 463.5Q1658 460 1658 457Q1659 443 1654.5 442.5Q1650 442 1650 431Q1652 420 1654.0 409.0Q1656 398 1661 388Q1663 384 1663 382Q1669 354 1683 325Q1688 316 1692.0 307.0Q1696 298 1700 290Q1708 273 1718.5 257.0Q1729 241 1739 226Q1742 222 1744.5 218.5Q1747 215 1750 212Q1758 200 1767.0 190.0Q1776 180 1786 170Q1805 152 1830 142Q1835 140 1840.5 138.0Q1846 136 1851 134Q1856 134 1857 131Q1859 128 1862.0 126.0Q1865 124 1868 123Q1875 120 1882.0 117.0Q1889 114 1895 109Q1899 107 1901 107Q1906 108 1910.5 108.0Q1915 108 1919 109Q1929 111 1939.0 114.0Q1949 117 1959 122Q1963 124 1964 124Q1974 126 1981.5 132.0Q1989 138 1996 144Q2001 147 2005.0 150.5Q2009 154 2013 158Q2015 159 2017.0 161.0Q2019 163 2020 165Q2023 169 2027.0 173.0Q2031 177 2035 182Q2040 187 2045.0 193.0Q2050 199 2056 204Q2058 206 2060.0 208.5Q2062 211 2063 214Q2069 224 2075.5 234.5Q2082 245 2086 257Q2088 258 2089.0 260.0Q2090 262 2091 264Q2096 275 2102.0 286.5Q2108 298 2112 310Q2114 315 2116.0 319.5Q2118 324 2120 329Q2126 342 2131.0 356.5Q2136 371 2141 385Q2146 397 2150.0 409.5Q2154 422 2158 435L2164 458Q2166 465 2168.0 473.0Q2170 481 2171 489V493Q2173 506 2173.0 518.5Q2173 531 2170 544Q2167 561 2160.0 577.0Q2153 593 2141 607L2135 615Q2134 618 2135 621Q2136 622 2138 626Q2149 639 2159.0 651.5Q2169 664 2179 678L2188 688Q2198 700 2203 717Q2204 720 2205.0 723.0Q2206 726 2207 729Q2207 735 2208 738Q2208 742 2205 744Q2201 747 2199.5 750.5Q2198 754 2196 759Q2195 760 2195.0 761.5Q2195 763 2193 764L2178 776Q2177 776 2176.5 776.5Q2176 777 2174 777Q2170 778 2165.5 779.0Q2161 780 2156 781ZM1925 615H1936Q1950 613 1962.5 610.5Q1975 608 1987 603L1993 600Q1998 598 1995 595L1992 588Q1987 580 1981.5 571.5Q1976 563 1971 555Q1960 535 1947.5 515.5Q1935 496 1923 477Q1914 462 1904.5 446.5Q1895 431 1884 416L1847 365Q1844 360 1841.0 356.0Q1838 352 1835 348L1826 335Q1818 325 1818 314Q1818 285 1844 268Q1852 263 1860.0 260.5Q1868 258 1878 263Q1887 264 1893.5 269.0Q1900 274 1905 281L1909 287Q1914 293 1919.5 299.5Q1925 306 1929 312Q1940 325 1949.5 339.0Q1959 353 1968 368L1994 409Q1999 416 2004.0 423.5Q2009 431 2013 439Q2022 453 2030.5 467.0Q2039 481 2048 495Q2054 505 2060.0 514.0Q2066 523 2072 532H2075Q2075 532 2075.0 532.0Q2075 532 2076 531Q2080 517 2077 500L2072 480Q2071 473 2068.5 466.5Q2066 460 2064 454Q2063 452 2063.0 449.5Q2063 447 2062 445Q2057 432 2052.0 418.5Q2047 405 2042 392Q2039 383 2035.5 374.5Q2032 366 2029 357Q2024 343 2018.0 328.5Q2012 314 2006 301Q1995 274 1982 251Q1966 227 1939 209Q1936 206 1933 206Q1927 202 1925 209Q1923 216 1914 223Q1914 223 1914.0 223.5Q1914 224 1913 224Q1907 232 1893 235L1878 238Q1864 239 1852 250Q1848 254 1844.5 258.5Q1841 263 1836 267L1827 279Q1811 298 1795 322Q1792 327 1788.5 332.5Q1785 338 1782 344Q1768 368 1760.0 394.0Q1752 420 1752 448Q1752 456 1752.5 464.0Q1753 472 1754 480Q1759 502 1769 521Q1777 534 1786.5 545.5Q1796 557 1808 567L1829 583Q1833 586 1836.5 588.5Q1840 591 1844 593Q1863 603 1883.5 608.0Q1904 613 1925 615ZM2461 711Q2460 710 2458 710Q2448 704 2438.5 698.5Q2429 693 2421 686Q2417 684 2416 682Q2407 677 2400.0 669.5Q2393 662 2387 653Q2385 651 2383.0 648.0Q2381 645 2378 642Q2368 632 2362 618Q2361 615 2359.0 612.0Q2357 609 2355 606Q2349 598 2346 591Q2344 583 2340.0 575.5Q2336 568 2332 561Q2331 557 2329.0 553.0Q2327 549 2326 545Q2326 540 2323 534Q2319 523 2315.5 511.5Q2312 500 2309 488Q2307 484 2307 482Q2301 469 2298.0 455.0Q2295 441 2292 428L2286 383Q2285 381 2285.0 378.0Q2285 375 2285 373Q2285 367 2285.0 361.5Q2285 356 2283 350Q2281 337 2284 326Q2284 322 2284.5 318.5Q2285 315 2285 311Q2285 306 2285.5 300.5Q2286 295 2287 291Q2288 288 2288 283Q2290 274 2290.5 265.5Q2291 257 2292 249Q2295 235 2295 222Q2295 218 2295.5 214.5Q2296 211 2297 207Q2297 198 2296 194Q2293 190 2295 183Q2297 179 2297 177Q2298 175 2298.0 172.5Q2298 170 2301 169H2308Q2312 169 2313 166Q2314 162 2320 160Q2325 158 2329.0 156.5Q2333 155 2337 152Q2340 150 2344.0 150.0Q2348 150 2352 151L2370 157Q2371 158 2371.5 158.0Q2372 158 2373 159Q2381 167 2386.5 177.0Q2392 187 2393 199Q2393 203 2393.0 206.5Q2393 210 2391 214Q2390 220 2389.0 226.0Q2388 232 2387 239Q2385 249 2384.5 258.5Q2384 268 2384 278Q2383 282 2383.0 285.5Q2383 289 2382 293Q2381 305 2381.0 317.0Q2381 329 2383 340Q2383 341 2383.5 343.0Q2384 345 2383 347Q2383 357 2385.0 368.0Q2387 379 2388 390Q2389 400 2390.0 409.0Q2391 418 2393 427Q2395 431 2395.5 435.0Q2396 439 2397 443Q2401 462 2406.0 480.0Q2411 498 2419 516Q2424 527 2429 535Q2437 549 2443 563Q2447 570 2451.0 576.5Q2455 583 2459 590Q2463 595 2467.0 599.0Q2471 603 2475 608Q2480 613 2488 611Q2493 609 2495 607Q2500 604 2504.5 601.0Q2509 598 2513 594Q2524 583 2533.5 572.0Q2543 561 2550 548Q2556 537 2562.0 525.0Q2568 513 2573 501Q2579 487 2584.5 473.0Q2590 459 2595 444Q2599 434 2601.5 423.5Q2604 413 2605 403Q2607 392 2608.5 380.5Q2610 369 2609 358Q2609 355 2609.5 352.0Q2610 349 2610 346Q2612 339 2611.5 333.0Q2611 327 2610 321Q2609 304 2607.5 288.5Q2606 273 2605 257Q2605 249 2604 246Q2603 237 2602.5 228.0Q2602 219 2600 210V202Q2600 192 2599.5 182.5Q2599 173 2599 163Q2599 155 2598.5 148.5Q2598 142 2598 135Q2598 126 2601 120Q2604 115 2603 112Q2600 106 2606 103Q2611 98 2616.5 95.0Q2622 92 2629 91Q2631 90 2632.5 90.0Q2634 90 2635 89Q2641 84 2651 86Q2653 87 2657 87Q2666 89 2670 94Q2673 97 2679 101Q2687 105 2690.0 111.0Q2693 117 2694 124Q2696 134 2697.5 143.0Q2699 152 2698 162V171Q2698 181 2698.5 190.5Q2699 200 2700 210Q2701 213 2701.0 216.5Q2701 220 2701 223Q2701 229 2701.5 234.5Q2702 240 2703 246Q2704 248 2704 252Q2703 262 2704.5 271.5Q2706 281 2707 291Q2708 301 2708.5 312.0Q2709 323 2709 334Q2710 335 2709.5 337.0Q2709 339 2709 341Q2706 350 2708 362Q2710 375 2707 387Q2706 396 2705.0 405.0Q2704 414 2702 424Q2700 440 2695.0 456.0Q2690 472 2685 488Q2685 490 2682 495Q2678 502 2675.0 509.5Q2672 517 2670 525L2667 532Q2662 542 2658.5 551.5Q2655 561 2650 571Q2647 577 2644.0 583.0Q2641 589 2637 594Q2636 596 2634 598Q2632 605 2628.0 611.0Q2624 617 2620 623Q2609 640 2594.5 655.0Q2580 670 2563 683L2551 690Q2537 697 2521.5 702.0Q2506 707 2490 709Q2485 710 2479 709Q2476 709 2473.0 709.0Q2470 709 2467 711ZM2928 708Q2922 708 2920 707Q2915 705 2910.5 705.5Q2906 706 2901 706Q2900 706 2899.0 706.5Q2898 707 2897 707Q2890 708 2883.5 708.0Q2877 708 2871 706Q2870 705 2869 705Q2862 706 2857.0 701.0Q2852 696 2847 692Q2842 687 2842 681L2839 673Q2836 666 2837 660Q2838 658 2837.5 656.0Q2837 654 2837 652Q2836 650 2836.0 647.5Q2836 645 2835 643Q2833 634 2832.5 624.5Q2832 615 2833 606Q2834 600 2840.0 585.5Q2846 571 2847 568Q2850 563 2850 560Q2849 549 2849.5 537.5Q2850 526 2850 515Q2850 508 2853 504Q2857 497 2854 489L2851 478Q2845 467 2852 459Q2852 458 2852.5 457.5Q2853 457 2853 456Q2855 454 2854.0 450.5Q2853 447 2853 445Q2853 441 2854.5 436.5Q2856 432 2855 428Q2855 428 2853 426Q2852 424 2852.5 418.0Q2853 412 2853 411V383Q2854 378 2854.0 373.5Q2854 369 2855 364Q2856 358 2855.5 351.5Q2855 345 2855 338Q2854 333 2853.5 327.0Q2853 321 2853 315Q2852 313 2852.0 310.0Q2852 307 2852 305Q2851 300 2850.5 295.0Q2850 290 2850 285Q2850 283 2846.0 271.5Q2842 260 2843 252Q2844 250 2844 247Q2844 244 2842 242Q2840 241 2840 238V235Q2843 223 2837 211Q2833 205 2834 199Q2834 191 2827 187Q2822 182 2818.0 175.0Q2814 168 2813 161Q2812 156 2812.0 151.0Q2812 146 2812 142Q2812 138 2813 137Q2817 133 2817.0 127.5Q2817 122 2818 119Q2819 118 2820.0 118.0Q2821 118 2822 117Q2826 116 2826 110Q2824 106 2824 103Q2823 99 2827 96Q2829 92 2832 94Q2839 97 2848 92Q2852 90 2853 90Q2856 90 2856 90Q2857 89 2862 89Q2868 90 2873 85Q2880 78 2890 78H2952Q2975 79 2998.0 78.0Q3021 77 3043 77Q3048 77 3051.5 76.5Q3055 76 3059 75Q3065 72 3073 72H3096Q3104 72 3110.5 71.5Q3117 71 3124 70Q3128 69 3131.5 69.0Q3135 69 3139 69Q3143 69 3147.0 69.0Q3151 69 3155 68Q3163 67 3172.0 66.5Q3181 66 3189 66Q3193 66 3196.5 65.5Q3200 65 3204 64Q3212 62 3219.5 61.5Q3227 61 3234 60Q3242 59 3249.5 58.0Q3257 57 3264 56Q3273 56 3277 58Q3283 62 3288.5 65.0Q3294 68 3299 73Q3303 77 3304 80Q3305 84 3306.0 88.0Q3307 92 3308 97V104Q3307 109 3306.5 114.5Q3306 120 3305 126Q3303 130 3300 133L3282 151Q3272 154 3262.5 155.0Q3253 156 3243 155H3236Q3231 156 3226.0 156.0Q3221 156 3216 155Q3210 154 3204.0 154.5Q3198 155 3192 155Q3188 155 3184.5 155.5Q3181 156 3177 155Q3172 154 3167.5 154.5Q3163 155 3158 156Q3154 156 3149.5 156.5Q3145 157 3140 157Q3127 159 3112.5 159.0Q3098 159 3084 161Q3075 160 3067.0 161.5Q3059 163 3050 164Q3042 165 3033.0 165.0Q3024 165 3016 167Q3006 167 2996.5 169.5Q2987 172 2977 173L2970 174Q2963 174 2957.0 175.5Q2951 177 2944 179Q2940 180 2936.0 180.5Q2932 181 2927 182Q2924 182 2920 184Q2917 185 2917 190L2920 199Q2921 201 2919.5 209.0Q2918 217 2917 221Q2917 224 2918.0 227.0Q2919 230 2920 233Q2923 241 2923.0 250.5Q2923 260 2925 268Q2926 272 2926.0 276.5Q2926 281 2927 286Q2927 288 2927.5 290.5Q2928 293 2928 296Q2928 299 2927 300Q2924 304 2924.0 309.0Q2924 314 2924 319Q2929 329 2929.0 339.0Q2929 349 2929 359Q2929 362 2934 361H2935Q2937 357 2939 355Q2942 355 2946 353Q2949 351 2954 351Q2962 352 2969.0 350.5Q2976 349 2983 347Q3030 335 3071 316Q3082 311 3094.0 307.5Q3106 304 3118 303H3121Q3130 302 3139.0 301.0Q3148 300 3157 300Q3169 299 3180.5 297.0Q3192 295 3204 294Q3211 292 3217.0 290.5Q3223 289 3230 286Q3243 281 3254 281Q3262 282 3269.0 284.5Q3276 287 3283 291Q3298 301 3298 321Q3298 329 3296.5 337.0Q3295 345 3295 353Q3295 355 3293 357L3290 362Q3289 366 3288.0 370.0Q3287 374 3283 376Q3277 381 3270.5 386.5Q3264 392 3256 394Q3252 395 3248.5 396.0Q3245 397 3241 397Q3225 397 3208.5 399.0Q3192 401 3175 403Q3162 404 3149.5 406.0Q3137 408 3124 408Q3112 408 3097 413Q3087 415 3076.0 417.0Q3065 419 3054 420Q3046 421 3037.5 422.5Q3029 424 3021 425L3004 428Q3002 429 2998 429Q2991 431 2984.0 432.0Q2977 433 2970 435Q2963 436 2956.5 438.0Q2950 440 2943 442Q2938 443 2935.0 445.5Q2932 448 2930 452Q2929 455 2930 458Q2931 462 2929 466Q2930 476 2930.5 486.0Q2931 496 2930 506Q2932 514 2931.5 522.0Q2931 530 2930 538Q2928 550 2931 558Q2934 571 2929 585Q2927 591 2929 593Q2931 596 2929 600V606Q2928 614 2936 614H2938Q2945 614 2952 619Q2957 624 2964 622L2992 619Q2998 618 3004.0 617.5Q3010 617 3016 617Q3018 616 3022 618Q3027 621 3031 619Q3033 617 3036.5 616.0Q3040 615 3042 613Q3048 607 3057 609Q3065 611 3070 608Q3079 605 3087 606Q3092 607 3097.0 605.0Q3102 603 3107 603Q3109 603 3110.0 603.5Q3111 604 3112 603Q3114 603 3116.0 602.0Q3118 601 3119 601Q3126 598 3132 599Q3137 599 3137 599Q3141 598 3144.5 599.0Q3148 600 3151 602Q3156 603 3159.5 605.0Q3163 607 3167 608Q3169 608 3170 609Q3175 613 3182.5 616.0Q3190 619 3191 623Q3193 629 3193.0 634.5Q3193 640 3194 646Q3194 649 3193.5 652.0Q3193 655 3192 658Q3190 662 3187.5 667.0Q3185 672 3181 676Q3179 678 3177.5 680.0Q3176 682 3174 684Q3170 688 3165.0 691.0Q3160 694 3154 694Q3150 694 3148 695Q3144 697 3140.0 697.0Q3136 697 3131 697Q3124 698 3117.5 698.5Q3111 699 3104 698Q3100 697 3097 698Q3087 701 3077 699Q3067 699 3057.5 699.5Q3048 700 3039 700H3026Q3023 700 3021 701Q3017 703 3011.5 703.0Q3006 703 3001 702H2991Q2990 702 2988.0 702.5Q2986 703 2984 702Q2981 701 2978.5 701.5Q2976 702 2973 703Q2971 703 2969.5 703.5Q2968 704 2966 704Q2956 703 2947.0 704.5Q2938 706 2928 708ZM3482 721Q3463 723 3451 709Q3445 703 3440.0 696.0Q3435 689 3432 681Q3427 667 3423.0 652.5Q3419 638 3416 624Q3413 613 3413 603Q3412 592 3410.5 581.5Q3409 571 3409 560Q3409 554 3409.0 547.5Q3409 541 3408 535Q3407 531 3407.0 528.0Q3407 525 3407 521Q3407 507 3407.0 492.5Q3407 478 3406 464Q3406 456 3405.0 449.5Q3404 443 3401 436Q3397 425 3400 412Q3400 409 3401 408Q3403 401 3403.5 394.0Q3404 387 3403 380Q3402 375 3402.0 370.0Q3402 365 3402 361Q3401 350 3401.5 338.5Q3402 327 3403 316Q3404 313 3404.0 310.0Q3404 307 3404 304Q3403 293 3404.5 283.0Q3406 273 3407 263Q3409 251 3411.0 239.5Q3413 228 3416 216Q3418 211 3418.0 205.0Q3418 199 3418 193Q3418 188 3417.5 183.0Q3417 178 3417 174Q3417 171 3417.0 168.0Q3417 165 3418 162Q3419 159 3419.0 156.0Q3419 153 3420 152Q3423 148 3425.0 144.5Q3427 141 3431 138Q3436 135 3440.5 132.0Q3445 129 3449 127Q3454 125 3457 122Q3461 117 3465.5 112.5Q3470 108 3473 102Q3478 97 3483.5 90.5Q3489 84 3496 80Q3498 79 3502 75Q3514 64 3530 61Q3533 60 3535.5 59.5Q3538 59 3541 59L3548 56Q3556 53 3562 59Q3564 62 3567.5 64.5Q3571 67 3574 69Q3582 76 3589.5 84.0Q3597 92 3603 102Q3613 118 3620.5 134.0Q3628 150 3635 167L3653 210Q3654 216 3658 221Q3666 236 3670.0 251.5Q3674 267 3678 283Q3679 285 3679.5 287.0Q3680 289 3680 291Q3682 299 3683.5 307.5Q3685 316 3684 324Q3685 333 3683.5 341.5Q3682 350 3680 358Q3677 368 3673.0 376.5Q3669 385 3664 394Q3662 400 3657.0 405.0Q3652 410 3647 414Q3639 418 3631 426Q3629 428 3626.5 429.0Q3624 430 3622 432Q3615 435 3607.0 438.5Q3599 442 3591 445Q3590 445 3590.0 446.5Q3590 448 3591 449L3618 468Q3623 471 3627.0 473.5Q3631 476 3635 479L3641 482Q3653 489 3665.0 497.0Q3677 505 3688 513Q3709 526 3730.0 539.5Q3751 553 3770 569Q3787 582 3800 599Q3803 602 3806.0 605.5Q3809 609 3813 611L3816 614Q3832 628 3834 652Q3834 655 3833.5 658.0Q3833 661 3833 664Q3833 670 3829 674Q3825 676 3825 679Q3822 686 3816.5 688.5Q3811 691 3806 695Q3804 696 3799 696Q3793 695 3786.5 694.0Q3780 693 3774 693Q3766 693 3757 686Q3751 681 3746.0 676.5Q3741 672 3736 665Q3723 647 3702 632Q3692 624 3683.0 617.0Q3674 610 3663 604Q3656 600 3649.5 595.5Q3643 591 3635 587Q3610 570 3584.0 553.5Q3558 537 3532 520Q3528 517 3523.0 514.0Q3518 511 3513 508Q3511 506 3507 504Q3503 504 3503 507Q3503 508 3502.5 508.5Q3502 509 3502 510Q3502 513 3502.0 516.0Q3502 519 3503 522Q3504 530 3504.0 537.5Q3504 545 3504 553Q3504 559 3504.5 564.5Q3505 570 3506 576Q3506 579 3506.5 582.5Q3507 586 3507 589Q3506 598 3508.0 607.0Q3510 616 3511 625L3517 651Q3518 655 3519.0 659.5Q3520 664 3521 669Q3522 673 3521.5 676.5Q3521 680 3520 684Q3520 685 3518 687Q3513 688 3511 694Q3508 701 3502.5 706.5Q3497 712 3491 717Q3490 718 3487.0 719.0Q3484 720 3482 721ZM3521 371H3523Q3534 369 3545.5 366.5Q3557 364 3568 360Q3579 357 3587 349Q3594 342 3594 333Q3595 326 3594.5 319.5Q3594 313 3592 306Q3588 288 3583.0 270.5Q3578 253 3571 237L3562 213Q3559 203 3555.0 193.5Q3551 184 3546 175Q3545 173 3544.0 170.5Q3543 168 3542 166L3538 162Q3535 158 3531 162Q3530 162 3528 164Q3521 173 3515.5 183.0Q3510 193 3509 205Q3508 209 3507.5 213.0Q3507 217 3507 222V265Q3506 279 3506.5 294.0Q3507 309 3505 323Q3504 326 3504.5 329.0Q3505 332 3505 335Q3506 341 3506.0 346.5Q3506 352 3506 358Q3506 368 3508.5 370.0Q3511 372 3521 371Z" fill="currentColor" /></svg>