<svg viewBox="0 0 5543 1703" xmlns="http://www.w3.org/2000/svg"><path d="M20 213Q49 218 71.5 220.0Q94 222 109 223Q127 224 140 224Q153 224 177 222Q197 220 229.5 217.0Q262 214 310 207Q296 211 284.5 229.5Q273 248 264 269Q253 294 245 324Q238 351 227.5 398.0Q217 445 207.5 500.0Q198 555 193.0 611.5Q188 668 191.5 715.0Q195 762 210.0 792.5Q225 823 256 825Q303 829 334.5 825.5Q366 822 386.0 815.0Q406 808 417.0 798.5Q428 789 434 780Q450 757 467.0 721.0Q484 685 497.5 652.0Q511 619 520.0 596.0Q529 573 529 574Q529 576 528.5 596.5Q528 617 527.5 645.5Q527 674 526.5 705.0Q526 736 525 758Q524 776 523 798Q522 817 521.5 843.0Q521 869 519 900Q477 897 439.0 896.0Q401 895 372 895Q338 895 309 896Q278 897 237 899Q202 901 150.0 903.5Q98 906 30 910Q38 896 43.5 884.0Q49 872 52 864Q56 854 57 847Q63 815 67.0 765.5Q71 716 73.5 660.0Q76 604 76.5 545.5Q77 487 76.0 437.0Q75 387 72.5 350.0Q70 313 66 299Q61 283 54 267Q48 253 39.5 238.5Q31 224 20 213ZM660 533Q665 527 666.5 510.5Q668 494 674.5 473.0Q681 452 697.0 429.0Q713 406 749 386Q784 366 817.0 362.0Q850 358 880.0 365.0Q910 372 936.5 387.0Q963 402 985 420Q1000 432 1009.0 454.5Q1018 477 1023.0 505.0Q1028 533 1030.5 563.5Q1033 594 1034.0 622.5Q1035 651 1035.5 674.5Q1036 698 1039 713Q1043 735 1053.0 750.5Q1063 766 1075.0 776.5Q1087 787 1099.0 793.0Q1111 799 1120 802Q1126 805 1131 806Q1141 810 1145 806Q1139 820 1134.0 830.0Q1129 840 1126 847Q1122 855 1119 860Q1116 866 1112 871Q1109 876 1104.0 882.0Q1099 888 1094 895Q1081 890 1069.5 883.0Q1058 876 1049 870Q1038 863 1029 856Q1020 849 1012 840Q1005 832 997.5 823.0Q990 814 985 803Q979 816 956.5 840.0Q934 864 898.0 883.5Q862 903 814.5 911.0Q767 919 710 900Q685 892 663.0 876.5Q641 861 625.5 839.0Q610 817 603.5 788.5Q597 760 604 725Q611 690 629.0 666.0Q647 642 672.0 627.0Q697 612 728.0 604.0Q759 596 792 593Q818 592 844 596Q866 600 890.0 610.5Q914 621 931 642Q930 589 927.5 557.5Q925 526 923 509Q919 489 916 481Q911 474 905.5 465.0Q900 456 892.0 448.5Q884 441 872.0 436.0Q860 431 844 432Q827 433 817.0 441.0Q807 449 801.5 459.5Q796 470 795.0 482.0Q794 494 796 503Q798 509 802 516Q806 522 813.0 529.0Q820 536 832 541Q809 544 791.0 545.5Q773 547 760 549Q745 551 734 552Q723 553 708 556Q695 558 676.0 561.0Q657 564 632 569Q638 562 643.0 555.5Q648 549 652 544Q656 538 660 533ZM810 652Q792 653 774.0 660.5Q756 668 742.0 681.5Q728 695 718.5 712.5Q709 730 709 751Q709 772 719.5 787.5Q730 803 747.5 813.0Q765 823 785.5 825.0Q806 827 826 821Q845 814 862.0 798.5Q879 783 891.0 764.5Q903 746 908.0 727.5Q913 709 909 697Q901 671 873.0 660.5Q845 650 810 652ZM1125 217Q1136 222 1151.5 224.0Q1167 226 1181 226Q1198 226 1216 225Q1234 224 1260 221Q1281 219 1312.0 216.0Q1343 213 1381 208Q1367 215 1357.0 223.0Q1347 231 1340 239Q1332 248 1327 257Q1320 269 1308.5 298.5Q1297 328 1285.5 364.0Q1274 400 1265.5 437.0Q1257 474 1256 500Q1255 522 1254 550Q1253 574 1252.0 609.0Q1251 644 1250 689Q1322 637 1361.0 605.5Q1400 574 1418 557Q1439 538 1443 530Q1442 524 1438 517Q1433 511 1424.0 503.0Q1415 495 1397 485Q1423 488 1442.5 489.0Q1462 490 1476 491Q1492 492 1504 491Q1517 491 1536 490Q1569 489 1638 487Q1571 522 1532 547Q1510 561 1493 573Q1476 586 1458 600Q1442 612 1421.5 628.0Q1401 644 1381 662Q1416 719 1442.5 756.0Q1469 793 1487 816Q1508 843 1524 859Q1540 874 1566 893Q1588 910 1623.5 932.5Q1659 955 1710 984Q1684 979 1660.0 977.5Q1636 976 1619 977Q1598 978 1581 981Q1563 985 1541 991Q1522 996 1496.5 1004.5Q1471 1013 1441 1027Q1460 1013 1469.5 1000.5Q1479 988 1483 980Q1487 970 1486 963Q1481 953 1463 922Q1446 896 1413.0 846.0Q1380 796 1319 710Q1316 711 1309 716Q1303 721 1291.0 729.5Q1279 738 1259 754L1286 929Q1277 933 1266.5 936.0Q1256 939 1247 941Q1236 944 1225 945Q1214 946 1199 949Q1186 951 1168.0 954.5Q1150 958 1127 963Q1140 954 1148.0 942.5Q1156 931 1161 921Q1166 910 1170 898Q1172 888 1174.5 846.0Q1177 804 1179.0 745.5Q1181 687 1182.5 620.0Q1184 553 1184.0 493.5Q1184 434 1183.0 389.5Q1182 345 1179 332Q1174 316 1167 298Q1161 282 1150.5 261.5Q1140 241 1125 217ZM1592 217Q1603 222 1618.5 224.0Q1634 226 1648 226Q1665 226 1683 225Q1701 224 1727 221Q1748 219 1779.0 216.0Q1810 213 1848 208Q1834 215 1824.0 223.0Q1814 231 1807 239Q1799 248 1794 257Q1787 269 1775.5 298.5Q1764 328 1752.5 364.0Q1741 400 1732.5 437.0Q1724 474 1723 500Q1722 522 1721 550Q1720 574 1719.0 609.0Q1718 644 1717 689Q1789 637 1828.0 605.5Q1867 574 1885 557Q1906 538 1910 530Q1909 524 1905 517Q1900 511 1891.0 503.0Q1882 495 1864 485Q1890 488 1909.5 489.0Q1929 490 1943 491Q1959 492 1971 491Q1984 491 2003 490Q2036 489 2105 487Q2038 522 1999 547Q1977 561 1960 573Q1943 586 1925 600Q1909 612 1888.5 628.0Q1868 644 1848 662Q1883 719 1909.5 756.0Q1936 793 1954 816Q1975 843 1991 859Q2007 874 2033 893Q2055 910 2090.5 932.5Q2126 955 2177 984Q2151 979 2127.0 977.5Q2103 976 2086 977Q2065 978 2048 981Q2030 985 2008 991Q1989 996 1963.5 1004.5Q1938 1013 1908 1027Q1927 1013 1936.5 1000.5Q1946 988 1950 980Q1954 970 1953 963Q1948 953 1930 922Q1913 896 1880.0 846.0Q1847 796 1786 710Q1783 711 1776 716Q1770 721 1758.0 729.5Q1746 738 1726 754L1753 929Q1744 933 1733.5 936.0Q1723 939 1714 941Q1703 944 1692 945Q1681 946 1666 949Q1653 951 1635.0 954.5Q1617 958 1594 963Q1607 954 1615.0 942.5Q1623 931 1628 921Q1633 910 1637 898Q1639 888 1641.5 846.0Q1644 804 1646.0 745.5Q1648 687 1649.5 620.0Q1651 553 1651.0 493.5Q1651 434 1650.0 389.5Q1649 345 1646 332Q1641 316 1634 298Q1628 282 1617.5 261.5Q1607 241 1592 217ZM2069 491 2253 493Q2237 554 2229.5 597.0Q2222 640 2220 669Q2216 702 2218 725Q2221 746 2228 770Q2234 790 2246.0 816.0Q2258 842 2278 868Q2266 864 2252.0 862.0Q2238 860 2226 859Q2212 858 2198 859Q2184 860 2167 862Q2153 864 2133.0 867.0Q2113 870 2091 875Q2106 830 2114.5 797.0Q2123 764 2127 742Q2131 716 2132 700Q2132 680 2132.0 654.5Q2132 629 2132.0 605.0Q2132 581 2131.0 562.5Q2130 544 2127 539L2117 529Q2111 524 2099.5 514.5Q2088 505 2069 491ZM2140 337Q2161 326 2182.5 331.0Q2204 336 2216.0 350.0Q2228 364 2224.5 383.0Q2221 402 2192 420Q2163 437 2141.0 432.0Q2119 427 2110.0 411.0Q2101 395 2107.0 373.5Q2113 352 2140 337ZM2511 208Q2543 213 2569.0 216.5Q2595 220 2614 222Q2636 225 2653 227Q2674 230 2716.0 219.5Q2758 209 2808.5 199.5Q2859 190 2912.0 188.5Q2965 187 3009 208Q3053 229 3081.0 250.0Q3109 271 3125.5 294.5Q3142 318 3149.0 344.0Q3156 370 3157 401Q3156 447 3135 490Q3126 508 3111.5 527.5Q3097 547 3076.0 565.0Q3055 583 3026.5 599.0Q2998 615 2960 627Q2997 638 3021.5 653.0Q3046 668 3061 681Q3079 697 3088 712Q3099 733 3103.0 748.0Q3107 763 3108.5 776.5Q3110 790 3113.0 804.0Q3116 818 3126 836Q3134 850 3145 865Q3155 878 3168.5 893.0Q3182 908 3202 922Q3174 923 3150.5 923.0Q3127 923 3110 923Q3090 923 3072 922Q3054 921 3027 921Q3004 921 2968.5 921.0Q2933 921 2883 922Q2905 905 2919.0 888.0Q2933 871 2941 857Q2950 841 2954 826Q2959 799 2955 770Q2952 745 2939.0 714.5Q2926 684 2897 653Q2868 658 2848.5 660.5Q2829 663 2815 665Q2799 667 2789 668Q2780 669 2769 670Q2760 671 2749.5 672.5Q2739 674 2730 676Q2728 719 2730.0 750.5Q2732 782 2735 803Q2739 828 2744 846Q2749 864 2758 881Q2765 895 2776.0 910.5Q2787 926 2801 936Q2775 936 2751.5 936.0Q2728 936 2709 935Q2687 935 2667 934Q2647 933 2622 933Q2601 933 2572.5 933.0Q2544 933 2511 934Q2537 907 2552.0 888.0Q2567 869 2575 856Q2584 842 2586 832Q2588 816 2589.5 774.5Q2591 733 2592.0 679.0Q2593 625 2593.0 566.0Q2593 507 2592.0 455.5Q2591 404 2590.0 367.0Q2589 330 2588 320Q2585 302 2575 284Q2567 268 2552.0 248.0Q2537 228 2511 208ZM2889 560Q2899 554 2906.0 548.0Q2913 542 2918.0 528.5Q2923 515 2926.5 490.0Q2930 465 2935 422Q2939 379 2929.5 351.0Q2920 323 2904.5 306.5Q2889 290 2870.5 283.5Q2852 277 2838 277Q2810 277 2783.0 294.0Q2756 311 2742 340Q2737 353 2733 383Q2730 409 2729.0 455.0Q2728 501 2732 576Q2770 582 2799.0 580.5Q2828 579 2848 574Q2872 569 2889 560ZM3457 777Q3485 777 3509 771Q3529 766 3547.5 754.5Q3566 743 3572 720Q3592 724 3606.0 726.5Q3620 729 3630 731Q3641 734 3649 735Q3657 737 3668 739Q3678 741 3692.5 743.5Q3707 746 3727 750Q3712 748 3696.5 753.0Q3681 758 3667 764Q3651 771 3637 781Q3628 787 3616.5 799.0Q3605 811 3584.0 822.0Q3563 833 3528.5 840.5Q3494 848 3440 846Q3375 844 3331.0 822.5Q3287 801 3260.0 769.5Q3233 738 3221.0 701.0Q3209 664 3208 632Q3207 600 3227.0 565.0Q3247 530 3283.5 501.0Q3320 472 3372.0 453.5Q3424 435 3486 435Q3522 435 3552.5 443.5Q3583 452 3608.5 466.0Q3634 480 3653.0 497.5Q3672 515 3685 533Q3698 552 3707 573Q3715 591 3720.0 614.0Q3725 637 3723 661Q3647 663 3600.5 664.0Q3554 665 3528 665H3483H3449Q3431 665 3402.0 666.0Q3373 667 3331 669Q3336 709 3356.5 730.5Q3377 752 3400 763Q3426 775 3457 777ZM3367 597Q3399 599 3420.5 600.0Q3442 601 3456 602Q3471 603 3480 603H3505Q3530 603 3598 600Q3595 556 3579.5 533.0Q3564 510 3547 499Q3527 487 3503 485Q3438 486 3406.5 512.0Q3375 538 3367 597ZM4254 172Q4273 173 4295 173Q4314 173 4338.5 173.5Q4363 174 4390 172Q4366 183 4348.0 204.0Q4330 225 4319 246Q4305 271 4296 298Q4291 314 4288.0 354.5Q4285 395 4283.5 449.0Q4282 503 4282.0 563.0Q4282 623 4283.0 677.5Q4284 732 4286.0 774.0Q4288 816 4291 833Q4295 853 4301 871Q4306 887 4314.0 903.5Q4322 920 4334 930L4232 976Q4224 965 4219.0 953.5Q4214 942 4211 933Q4207 922 4206 913Q4204 901 4202.0 886.5Q4200 872 4197.5 858.5Q4195 845 4194.0 836.0Q4193 827 4194 825Q4195 823 4182.0 842.5Q4169 862 4143.5 887.5Q4118 913 4081.0 936.5Q4044 960 3998 966Q3951 972 3911.5 948.0Q3872 924 3844.0 880.5Q3816 837 3801.5 779.5Q3787 722 3790 662Q3792 622 3808.0 590.5Q3824 559 3848.5 535.5Q3873 512 3902.5 495.5Q3932 479 3960.5 468.0Q3989 457 4014.0 452.0Q4039 447 4054 445Q4072 444 4095 451Q4115 457 4141.5 471.0Q4168 485 4201 513Q4195 413 4190.0 352.5Q4185 292 4180 260Q4175 222 4171 208Q4166 198 4158 188Q4151 180 4140.5 171.5Q4130 163 4116 158Q4142 163 4166.0 165.0Q4190 167 4210 169Q4233 171 4254 172ZM4003 545Q3984 552 3972.5 569.0Q3961 586 3954.0 609.5Q3947 633 3944.5 659.5Q3942 686 3941.5 710.5Q3941 735 3941.0 755.0Q3941 775 3941 785Q3941 791 3943.5 806.5Q3946 822 3955.0 838.5Q3964 855 3980.5 868.0Q3997 881 4025 881Q4048 879 4074 865Q4097 853 4126.5 826.5Q4156 800 4190 750Q4188 718 4187.5 697.0Q4187 676 4186 663Q4185 648 4185 639V624Q4185 618 4185.0 611.0Q4185 604 4186 598Q4158 578 4136.5 563.5Q4115 549 4094.5 541.5Q4074 534 4052.5 534.5Q4031 535 4003 545ZM4860 172Q4879 173 4901 173Q4920 173 4944.5 173.5Q4969 174 4996 172Q4972 183 4954.0 204.0Q4936 225 4925 246Q4911 271 4902 298Q4897 314 4894.0 354.5Q4891 395 4889.5 449.0Q4888 503 4888.0 563.0Q4888 623 4889.0 677.5Q4890 732 4892.0 774.0Q4894 816 4897 833Q4901 853 4907 871Q4912 887 4920.0 903.5Q4928 920 4940 930L4838 976Q4830 965 4825.0 953.5Q4820 942 4817 933Q4813 922 4812 913Q4810 901 4808.0 886.5Q4806 872 4803.5 858.5Q4801 845 4800.0 836.0Q4799 827 4800 825Q4801 823 4788.0 842.5Q4775 862 4749.5 887.5Q4724 913 4687.0 936.5Q4650 960 4604 966Q4557 972 4517.5 948.0Q4478 924 4450.0 880.5Q4422 837 4407.5 779.5Q4393 722 4396 662Q4398 622 4414.0 590.5Q4430 559 4454.5 535.5Q4479 512 4508.5 495.5Q4538 479 4566.5 468.0Q4595 457 4620.0 452.0Q4645 447 4660 445Q4678 444 4701 451Q4721 457 4747.5 471.0Q4774 485 4807 513Q4801 413 4796.0 352.5Q4791 292 4786 260Q4781 222 4777 208Q4772 198 4764 188Q4757 180 4746.5 171.5Q4736 163 4722 158Q4748 163 4772.0 165.0Q4796 167 4816 169Q4839 171 4860 172ZM4609 545Q4590 552 4578.5 569.0Q4567 586 4560.0 609.5Q4553 633 4550.5 659.5Q4548 686 4547.5 710.5Q4547 735 4547.0 755.0Q4547 775 4547 785Q4547 791 4549.5 806.5Q4552 822 4561.0 838.5Q4570 855 4586.5 868.0Q4603 881 4631 881Q4654 879 4680 865Q4703 853 4732.5 826.5Q4762 800 4796 750Q4794 718 4793.5 697.0Q4793 676 4792 663Q4791 648 4791 639V624Q4791 618 4791.0 611.0Q4791 604 4792 598Q4764 578 4742.5 563.5Q4721 549 4700.5 541.5Q4680 534 4658.5 534.5Q4637 535 4609 545ZM4924 427Q4944 430 4959.5 431.5Q4975 433 4987 434Q5000 435 5012 435Q5023 435 5040 434Q5054 433 5076.5 431.5Q5099 430 5130 427Q5128 431 5122.0 451.5Q5116 472 5110.0 501.5Q5104 531 5099.5 566.5Q5095 602 5095.5 636.5Q5096 671 5104.0 701.5Q5112 732 5130 751Q5168 790 5197.5 798.0Q5227 806 5249.0 796.0Q5271 786 5285.0 766.0Q5299 746 5305 729Q5320 683 5323 632Q5325 588 5316.0 534.0Q5307 480 5273 424Q5299 426 5318.0 427.0Q5337 428 5351 429Q5367 430 5379 431Q5390 432 5405 431Q5418 431 5436.5 429.5Q5455 428 5478 426Q5482 524 5485.0 600.5Q5488 677 5489.5 735.5Q5491 794 5491.0 836.5Q5491 879 5491 908Q5490 977 5485 999Q5477 1030 5456.5 1061.0Q5436 1092 5405.0 1116.5Q5374 1141 5333.5 1154.5Q5293 1168 5245 1164Q5198 1160 5170.5 1151.5Q5143 1143 5127.5 1132.0Q5112 1121 5105.5 1109.0Q5099 1097 5096.0 1084.5Q5093 1072 5090.0 1061.0Q5087 1050 5078 1042Q5067 1033 5055 1024Q5044 1016 5031.5 1008.0Q5019 1000 5007 995L5220 983Q5211 995 5207.0 1005.0Q5203 1015 5202 1022Q5201 1031 5203 1037Q5207 1049 5217.5 1063.5Q5228 1078 5245.0 1086.5Q5262 1095 5285.5 1092.0Q5309 1089 5339 1067Q5364 1048 5381 1006Q5395 970 5403.0 905.0Q5411 840 5400 734Q5382 796 5351.0 829.0Q5320 862 5289 877Q5253 895 5214 896Q5162 894 5125.0 882.5Q5088 871 5064.0 851.0Q5040 831 5026.5 803.5Q5013 776 5007 742Q5001 708 5001.0 673.5Q5001 639 5001.5 609.0Q5002 579 5002.0 554.5Q5002 530 4997 515Q4991 500 4981 485Q4973 472 4958.5 456.5Q4944 441 4924 427Z" fill="currentColor" /></svg>