<svg viewBox="0 0 3854 2400" xmlns="http://www.w3.org/2000/svg"><path d="M996 1811V1974H183V541H376V1811ZM1717 1518Q1594 1522 1507.5 1537.5Q1421 1553 1366.5 1578.0Q1312 1603 1287.5 1637.0Q1263 1671 1263 1713Q1263 1753 1276.0 1782.0Q1289 1811 1311.5 1829.5Q1334 1848 1364.5 1856.5Q1395 1865 1430 1865Q1477 1865 1516.0 1855.5Q1555 1846 1589.5 1828.0Q1624 1810 1655.5 1785.0Q1687 1760 1717 1728ZM1142 1104Q1226 1023 1323.0 983.0Q1420 943 1538 943Q1623 943 1689.0 971.0Q1755 999 1800.0 1049.0Q1845 1099 1868.0 1170.0Q1891 1241 1891 1326V1974H1812Q1786 1974 1772.0 1965.5Q1758 1957 1750 1932L1730 1836Q1690 1873 1652.0 1901.5Q1614 1930 1572.0 1949.5Q1530 1969 1482.5 1979.5Q1435 1990 1377 1990Q1318 1990 1266.0 1973.5Q1214 1957 1175.5 1924.0Q1137 1891 1114.5 1840.5Q1092 1790 1092 1721Q1092 1661 1125.0 1605.5Q1158 1550 1232.0 1507.0Q1306 1464 1425.0 1436.5Q1544 1409 1717 1405V1326Q1717 1208 1666.0 1147.5Q1615 1087 1517 1087Q1451 1087 1406.5 1103.5Q1362 1120 1329.5 1140.5Q1297 1161 1273.5 1177.5Q1250 1194 1227 1194Q1209 1194 1196.0 1184.5Q1183 1175 1174 1161ZM2460 1990Q2340 1990 2275.5 1923.0Q2211 1856 2211 1730V1110H2089Q2073 1110 2062.0 1100.5Q2051 1091 2051 1071V1000L2217 979L2258 666Q2261 651 2271.5 641.5Q2282 632 2299 632H2389V981H2682V1110H2389V1718Q2389 1782 2420.0 1813.0Q2451 1844 2500 1844Q2528 1844 2548.5 1836.5Q2569 1829 2584.0 1820.0Q2599 1811 2609.5 1803.5Q2620 1796 2628 1796Q2642 1796 2653 1813L2705 1898Q2659 1941 2594.0 1965.5Q2529 1990 2460 1990ZM3288 945Q3399 945 3488.0 982.0Q3577 1019 3640.0 1087.0Q3703 1155 3736.5 1251.5Q3770 1348 3770 1467Q3770 1587 3736.5 1683.0Q3703 1779 3640.0 1847.0Q3577 1915 3488.0 1951.5Q3399 1988 3288 1988Q3176 1988 3086.5 1951.5Q2997 1915 2934.0 1847.0Q2871 1779 2837.5 1683.0Q2804 1587 2804 1467Q2804 1348 2837.5 1251.5Q2871 1155 2934.0 1087.0Q2997 1019 3086.5 982.0Q3176 945 3288 945ZM3288 1849Q3438 1849 3512.0 1748.5Q3586 1648 3586 1468Q3586 1287 3512.0 1186.0Q3438 1085 3288 1085Q3212 1085 3155.5 1111.0Q3099 1137 3061.5 1186.0Q3024 1235 3005.5 1306.5Q2987 1378 2987 1468Q2987 1648 3061.5 1748.5Q3136 1849 3288 1849Z" fill="currentColor" /></svg>