<svg viewBox="0 0 5253 1600" xmlns="http://www.w3.org/2000/svg"><path d="M553 1234Q550 1234 549 1227Q549 1223 550.5 1213.5Q552 1204 554 1190Q559 1152 568.0 1112.5Q577 1073 588 1031Q574 1020 561.5 1011.0Q549 1002 538 995Q450 1140 328 1140Q308 1140 287.5 1136.5Q267 1133 244 1126Q227 1120 227 1114Q227 1111 233 1111Q236 1111 244 1113Q283 1125 319 1125Q434 1125 509 974Q414 909 340 873Q280 844 216 844Q80 844 45 944Q38 964 38 985Q38 1043 86 1096Q130 1144 174 1153Q185 1155 185 1160Q185 1167 172 1167Q170 1167 166.5 1167.0Q163 1167 159 1166Q109 1157 67 1115Q21 1066 21 1002Q21 970 33 936Q57 871 116 836Q172 801 244 801Q301 801 356 824Q433 855 530 928Q535 918 541.0 902.5Q547 887 556 866L570 834Q507 821 452 784Q359 721 359 628Q359 586 380.5 558.0Q402 530 438 530Q463 530 483.0 545.0Q503 560 503 584V587Q503 602 489 602Q469 602 468 582Q460 568 439 568Q435 568 432.0 568.5Q429 569 425 570Q374 580 374 629Q374 714 457 773Q508 810 576 818Q697 527 802 444Q861 397 917 397Q967 397 999.0 434.5Q1031 472 1031 528Q1031 609 970 680Q849 824 669 839L648 893Q653 895 663.5 899.0Q674 903 675 908Q676 911 629 949L628 948Q624 959 620.5 971.0Q617 983 613 994Q685 1052 742.0 1090.5Q799 1129 841 1150Q876 1166 918 1166Q946 1166 970.0 1159.5Q994 1153 1015 1139Q1057 1112 1057 1069Q1057 1064 1055.0 1054.5Q1053 1045 1053 1040Q1053 1032 1058 1032Q1070 1032 1070 1075Q1070 1126 1024 1159Q978 1192 909 1192Q845 1192 786 1161Q760 1148 713.5 1117.5Q667 1087 599 1039Q583 1092 573.0 1138.5Q563 1185 558 1226Q556 1234 553 1234ZM620 820Q631 819 642.0 818.0Q653 817 663 816Q683 770 705.5 721.0Q728 672 753 622Q835 465 865 463Q872 463 872 470Q872 474 868 477Q834 504 786.5 588.0Q739 672 680 813Q845 780 947 652Q1004 581 1004 512Q1004 468 981.5 440.0Q959 412 921 412Q872 412 815.0 461.5Q758 511 705 618Q695 639 673.5 689.5Q652 740 620 820ZM602 985 617 939Q611 933 609.0 927.0Q607 921 606 917Q606 909 615.5 892.5Q625 876 638 876H639Q643 868 646.5 858.5Q650 849 654 839Q632 840 612 839Q598 873 585.0 901.5Q572 930 561 953Q569 958 579.0 966.0Q589 974 602 985ZM988 1106Q947 1106 947 1066Q947 1028 1002 960Q1052 897 1089.0 873.0Q1126 849 1158 849Q1196 849 1196 871Q1196 876 1186.0 885.5Q1176 895 1175 897Q1156 928 1156 1023Q1156 1078 1180 1078Q1202 1078 1231.0 1052.0Q1260 1026 1285 994Q1288 991 1290 991Q1294 991 1294 996Q1294 998 1292.5 1003.0Q1291 1008 1289 1011Q1248 1066 1218.5 1085.0Q1189 1104 1161 1104Q1116 1104 1117 1008Q1098 1042 1062 1072Q1020 1106 988 1106ZM1015 1079Q1032 1079 1051 1065Q1110 1018 1128 889Q1125 889 1124 888Q1104 888 1071 912Q1043 931 1026 953Q986 1005 986 1043Q986 1079 1015 1079ZM1350 1102Q1306 1102 1306 1033Q1306 1000 1318 970Q1318 970 1310.5 982.0Q1303 994 1289 1011Q1288 1014 1282 1014Q1280 1014 1279.0 1011.0Q1278 1008 1278 1006Q1278 1003 1285 994Q1307 965 1323.0 943.0Q1339 921 1358 902Q1367 893 1378 893Q1391 893 1391 904Q1391 902 1384.0 916.0Q1377 930 1362 960Q1334 1022 1334 1054Q1334 1080 1356 1080Q1377 1080 1399.0 1060.5Q1421 1041 1438.5 1012.0Q1456 983 1464 955Q1464 951 1462.5 943.0Q1461 935 1459 923Q1456 905 1456 892Q1456 849 1492 836Q1500 833 1504 833Q1519 833 1519 859Q1519 902 1493 952Q1493 993 1512.5 1020.5Q1532 1048 1560 1048Q1580 1048 1601.5 1035.0Q1623 1022 1644 994Q1646 992 1650 992Q1653 992 1653 998Q1653 1004 1648 1011Q1635 1029 1609.5 1046.5Q1584 1064 1555 1064Q1527 1064 1503.5 1041.5Q1480 1019 1472 982Q1468 997 1456.0 1018.0Q1444 1039 1424 1060Q1402 1083 1383.0 1092.5Q1364 1102 1350 1102ZM1736 796Q1724 796 1714.0 785.0Q1704 774 1704 762Q1704 734 1735 734Q1765 734 1765 763Q1765 796 1736 796ZM1723 1108Q1689 1108 1666.5 1084.5Q1644 1061 1644 1016Q1644 961 1674 904Q1685 883 1712 883Q1728 883 1728 893Q1728 896 1725 902Q1690 969 1690 1017Q1690 1052 1702.5 1068.0Q1715 1084 1737 1084Q1772 1084 1807.0 1057.5Q1842 1031 1875 993Q1878 988 1884 988Q1888 988 1888 992Q1888 995 1884.5 1000.5Q1881 1006 1878 1011Q1865 1028 1847.0 1046.0Q1829 1064 1805 1080Q1786 1093 1764.5 1100.5Q1743 1108 1723 1108ZM1969 1103Q1959 1103 1948 1100Q1918 1093 1881 1060Q1841 1023 1841 997Q1841 975 1858 975Q1871 975 1883 991Q1918 963 1949.0 927.0Q1980 891 2006 846L2028 808Q2029 804 2034 804Q2044 804 2054.5 816.5Q2065 829 2065 839Q2065 846 2053 864Q2040 880 2040 898Q2040 905 2041.0 919.5Q2042 934 2042 942Q2042 1034 2012 1078Q2018 1079 2025.5 1079.5Q2033 1080 2040 1080Q2080 1080 2105.5 1072.5Q2131 1065 2152.0 1046.0Q2173 1027 2198 994Q2201 990 2205 990Q2209 990 2209 996Q2209 999 2206.5 1004.0Q2204 1009 2202 1011Q2166 1060 2128.5 1080.0Q2091 1100 2030 1100Q2011 1100 1993 1097Q1983 1103 1969 1103ZM1970 1066Q2002 1060 2002 982Q2002 962 2000.5 941.5Q1999 921 1995 899Q1959 952 1894 1006Q1924 1047 1970 1066ZM2217 1121Q2205 1121 2192.5 1111.5Q2180 1102 2180 1090Q2180 1058 2205 976Q2243 851 2301 743Q2387 579 2464 579Q2511 579 2511 657Q2511 714 2427 800L2298 920Q2291 927 2282.5 936.5Q2274 946 2263 959Q2256 970 2242 1006Q2230 1042 2230 1056Q2230 1067 2235 1075Q2237 1073 2246.5 1065.5Q2256 1058 2272 1044Q2368 963 2413 963Q2422 963 2428.5 978.0Q2435 993 2442 1022Q2459 1085 2495 1085Q2527 1085 2580 1035Q2589 1025 2598.5 1014.5Q2608 1004 2616 994Q2621 986 2626 986Q2632 986 2629 994Q2628 998 2625.0 1003.5Q2622 1009 2620 1011Q2600 1038 2580 1060Q2555 1084 2530.0 1098.0Q2505 1112 2482 1112Q2461 1112 2442.5 1099.5Q2424 1087 2410 1060Q2382 1006 2368 1006Q2349 1006 2320.0 1026.5Q2291 1047 2254 1090L2230 1118Q2223 1121 2217 1121ZM2272 918Q2305 895 2339.5 863.5Q2374 832 2409 794Q2496 696 2496 642Q2496 610 2471 610Q2403 610 2293 864Q2272 910 2272 918ZM2717 1112Q2616 1112 2616 963Q2616 817 2712 646Q2806 476 2890 476Q2920 476 2930 517V530Q2930 602 2819 773Q2772 847 2730.5 902.0Q2689 957 2653 995Q2665 1085 2736 1085Q2779 1085 2809.0 1060.5Q2839 1036 2873 994Q2879 988 2881 988Q2884 988 2884 993Q2884 1000 2877 1011Q2834 1066 2796.0 1089.0Q2758 1112 2717 1112ZM2654 970Q2708 917 2795 760Q2887 593 2887 530Q2887 502 2871 502Q2809 502 2730 680Q2693 768 2673.5 840.0Q2654 912 2654 970ZM2657 1555Q2592 1555 2556 1522Q2516 1488 2516 1426Q2516 1226 3050 1091Q3055 1042 3057.5 1000.5Q3060 959 3061 926Q3054 947 3045.0 966.0Q3036 985 3026 1002Q3012 1030 2978 1060Q2938 1092 2913 1092Q2894 1092 2880 1071Q2869 1052 2869 1031Q2869 997 2886 954Q2904 900 2932 900Q2942 900 2943 913Q2904 976 2904 1029Q2904 1059 2928 1059Q2971 1059 3019 977Q3063 904 3063 854Q3063 839 3087 839Q3106 839 3106 858Q3106 894 3102.5 950.5Q3099 1007 3092 1084Q3103 1081 3122.5 1078.0Q3142 1075 3156 1075Q3194 1075 3194 1086Q3194 1091 3187 1091Q3184 1091 3174.0 1090.5Q3164 1090 3153 1090Q3143 1090 3122.5 1094.0Q3102 1098 3088 1102Q3050 1390 2837 1506Q2792 1530 2747.5 1542.5Q2703 1555 2657 1555ZM2688 1526Q2777 1526 2832 1494Q3014 1391 3047 1109Q2543 1242 2543 1416Q2543 1526 2688 1526ZM3658 1241Q3570 1241 3487 1190Q3415 1144 3375 1080Q3331 1007 3331 980Q3331 960 3348 960Q3355 960 3359 967Q3391 1042 3441 1086Q3509 1149 3593 1149Q3622 1149 3643 1137Q3648 1133 3650 1138Q3651 1142 3646 1146Q3620 1160 3581 1160Q3564 1160 3541 1157Q3454 1144 3403 1073Q3511 1225 3644 1225Q3771 1225 3902 1079Q3960 1014 4075 770Q4189 528 4241 468Q4292 408 4346 408Q4376 408 4394 433Q4398 438 4398 444Q4398 461 4385 461Q4380 461 4377 454Q4363 426 4342 426Q4303 426 4263 491Q4257 501 4220.5 574.0Q4184 647 4117 786Q4005 1016 3929 1101Q3804 1241 3658 1241ZM3919 995Q3916 974 3899 960L3871 946Q3866 940 3862.0 928.0Q3858 916 3858 908Q3859 906 3860.0 904.0Q3861 902 3862 901Q3885 912 3915 936L3919 966Q3921 954 3922.0 940.5Q3923 927 3923 914Q3923 817 3870 723Q3819 634 3737 575Q3646 597 3615 672Q3617 680 3620.0 689.5Q3623 699 3625 710Q3626 754 3599 864Q3591 869 3587 869Q3569 869 3560 832L3584 768Q3600 724 3600 682Q3600 656 3594 632H3595Q3600 632 3609 655Q3641 589 3702 553Q3661 529 3622.0 521.0Q3583 513 3545 513H3541Q3527 513 3527 504Q3527 492 3545 491Q3550 490 3555.0 490.0Q3560 490 3564 490Q3641 490 3722 542Q3744 532 3761 531Q3766 530 3770.5 530.0Q3775 530 3779 530Q3846 530 3898 579Q3990 667 3998 905Q3998 910 3984.0 917.0Q3970 924 3962 924Q3959 924 3959 922Q3956 732 3880 636Q3852 601 3822.5 586.0Q3793 571 3763 571H3761Q3799 602 3830.0 641.0Q3861 680 3884 724Q3933 816 3933 907Q3933 951 3919 995ZM4134 1118Q4097 1118 4097 1064Q4097 1050 4100.0 1033.0Q4103 1016 4108 997Q4118 962 4138 918Q4168 856 4188 856Q4207 856 4219 877Q4227 874 4232 874Q4260 874 4260 916Q4260 934 4253.0 958.0Q4246 982 4229 1018Q4254 1041 4278 1041Q4297 1041 4314.0 1031.5Q4331 1022 4352 994Q4354 992 4358 992Q4361 992 4361 998Q4361 1004 4356 1011Q4343 1028 4323.5 1041.5Q4304 1055 4275 1055Q4246 1055 4223 1035Q4185 1118 4134 1118ZM4217 1005Q4225 987 4229.0 968.0Q4233 949 4233 927Q4233 893 4213 893Q4194 893 4194 930Q4194 946 4201.5 969.0Q4209 992 4217 1005ZM4152 1090Q4166 1090 4187 1063Q4196 1052 4202.0 1040.5Q4208 1029 4210 1025Q4195 1008 4184.0 989.0Q4173 970 4171 950Q4159 960 4146 1002Q4133 1044 4133 1063Q4133 1090 4152 1090ZM4555 1104Q4527 1104 4516.0 1083.0Q4505 1062 4505 1023Q4505 1018 4505.0 1012.5Q4505 1007 4506 1002Q4491 1031 4457 1059Q4420 1092 4392 1092Q4374 1092 4360 1071Q4349 1051 4349 1031Q4349 997 4366 954Q4384 900 4412 900Q4422 900 4423 913Q4384 980 4384 1020Q4384 1059 4408 1059Q4459 1059 4519 949Q4521 943 4525.5 934.5Q4530 926 4536 916Q4539 907 4563 907Q4571 907 4571 913L4560 944Q4552 966 4549.0 986.0Q4546 1006 4546 1023Q4546 1078 4572 1078Q4592 1078 4621.5 1053.0Q4651 1028 4676 994Q4679 991 4681 991Q4685 991 4685 998Q4685 1005 4680 1011Q4640 1064 4609.5 1084.0Q4579 1104 4555 1104ZM4836 1105Q4800 1105 4800 1060Q4800 1036 4818 1000Q4835 960 4835 942Q4835 929 4825.5 922.0Q4816 915 4802 909Q4792 904 4781.0 897.0Q4770 890 4763 883Q4756 898 4732.0 935.0Q4708 972 4680 1011Q4676 1016 4672 1016Q4668 1016 4668 1009Q4668 1002 4676 994Q4684 984 4699.0 961.5Q4714 939 4729.0 912.5Q4744 886 4752 866Q4747 849 4744.0 837.0Q4741 825 4741 813Q4741 792 4753.0 775.0Q4765 758 4784 758Q4811 758 4811 790Q4811 825 4784 863Q4788 869 4794.0 873.0Q4800 877 4813 882Q4820 885 4826.5 886.0Q4833 887 4838 887Q4846 887 4851.5 886.0Q4857 885 4861 885Q4867 885 4875.5 891.5Q4884 898 4884 911Q4884 918 4883 920Q4882 922 4877.5 936.5Q4873 951 4862 977Q4842 1029 4842 1050Q4842 1078 4861 1078Q4882 1078 4911.5 1053.0Q4941 1028 4966 994Q4969 991 4971 991Q4975 991 4975 998Q4975 1005 4970 1011Q4930 1064 4898.0 1084.5Q4866 1105 4836 1105ZM5060 1103Q5050 1103 5039 1100Q5009 1093 4972 1060Q4932 1023 4932 997Q4932 975 4949 975Q4962 975 4974 991Q5009 963 5040.0 927.0Q5071 891 5097 846L5119 808Q5120 804 5125 804Q5135 804 5145.5 816.5Q5156 829 5156 839Q5156 846 5144 864Q5131 880 5131 898Q5131 905 5132.0 919.5Q5133 934 5133 942Q5133 1034 5103 1078Q5109 1079 5116.5 1079.5Q5124 1080 5131 1080Q5171 1080 5196.5 1072.5Q5222 1065 5243.0 1046.0Q5264 1027 5289 994Q5292 990 5296 990Q5300 990 5300 996Q5300 999 5297.5 1004.0Q5295 1009 5293 1011Q5257 1060 5219.5 1080.0Q5182 1100 5121 1100Q5102 1100 5084 1097Q5074 1103 5060 1103ZM5061 1066Q5093 1060 5093 982Q5093 962 5091.5 941.5Q5090 921 5086 899Q5050 952 4985 1006Q5015 1047 5061 1066Z" fill="currentColor" /></svg>