<svg viewBox="0 0 12112 1782" xmlns="http://www.w3.org/2000/svg"><path d="M0 24H63V1280H616V1344H0ZM864 928Q864 1025 900.0 1111.5Q936 1198 1010.0 1252.0Q1084 1306 1197 1306Q1288 1306 1346.5 1275.0Q1405 1244 1438.5 1202.5Q1472 1161 1485 1130L1544 1170Q1504 1235 1455.0 1279.5Q1406 1324 1342.5 1346.0Q1279 1368 1194 1368Q1065 1368 976.0 1307.5Q887 1247 841.5 1145.5Q796 1044 796 923Q796 803 842.5 707.0Q889 611 977.5 555.0Q1066 499 1191 499Q1302 499 1384.5 550.5Q1467 602 1513.0 691.0Q1559 780 1559 894Q1559 903 1558.0 911.5Q1557 920 1557 928ZM1488 864Q1486 799 1458.5 729.0Q1431 659 1367.0 610.5Q1303 562 1191 562Q1073 562 1004.5 609.0Q936 656 905.5 726.0Q875 796 869 864ZM2459 1344V1162Q2453 1190 2412.5 1239.5Q2372 1289 2300.0 1328.5Q2228 1368 2129 1368Q2020 1368 1925.5 1318.0Q1831 1268 1773.0 1171.0Q1715 1074 1715 934Q1715 794 1773.0 697.0Q1831 600 1925.5 549.5Q2020 499 2129 499Q2228 499 2300.5 537.5Q2373 576 2414.5 625.0Q2456 674 2459 706V523H2521V1344ZM1779 934Q1779 1050 1829.0 1133.0Q1879 1216 1958.0 1260.0Q2037 1304 2123 1304Q2218 1304 2293.0 1259.0Q2368 1214 2411.5 1131.0Q2455 1048 2455 934Q2455 820 2411.5 737.0Q2368 654 2293.0 608.5Q2218 563 2123 563Q2037 563 1958.0 607.5Q1879 652 1829.0 735.0Q1779 818 1779 934ZM3147 1782Q3041 1782 2967.5 1758.0Q2894 1734 2848.0 1697.5Q2802 1661 2779 1624L2839 1579Q2855 1604 2886.5 1636.5Q2918 1669 2979.5 1693.0Q3041 1717 3147 1717Q3253 1717 3324.0 1667.5Q3395 1618 3431.0 1537.0Q3467 1456 3467 1362V1330H3529V1368Q3529 1502 3477.5 1594.5Q3426 1687 3339.5 1734.5Q3253 1782 3147 1782ZM3467 1344V1162Q3461 1190 3420.5 1239.5Q3380 1289 3308.0 1328.5Q3236 1368 3137 1368Q3028 1368 2933.5 1318.0Q2839 1268 2781.0 1171.0Q2723 1074 2723 934Q2723 794 2781.0 697.0Q2839 600 2933.5 549.5Q3028 499 3137 499Q3236 499 3308.5 537.5Q3381 576 3422.5 625.0Q3464 674 3467 706V523H3529V1344ZM2787 934Q2787 1050 2837.0 1133.0Q2887 1216 2966.0 1260.0Q3045 1304 3131 1304Q3226 1304 3301.0 1259.0Q3376 1214 3419.5 1131.0Q3463 1048 3463 934Q3463 820 3419.5 737.0Q3376 654 3301.0 608.5Q3226 563 3131 563Q3045 563 2966.0 607.5Q2887 652 2837.0 735.0Q2787 818 2787 934ZM3864 965Q3864 1121 3934.5 1212.5Q4005 1304 4144 1304Q4283 1304 4353.5 1212.5Q4424 1121 4424 965V523H4488V982Q4488 1092 4448.0 1179.5Q4408 1267 4331.5 1317.5Q4255 1368 4144 1368Q4034 1368 3957.0 1317.5Q3880 1267 3840.0 1179.5Q3800 1092 3800 982V523H3864ZM4771 928Q4771 1025 4807.0 1111.5Q4843 1198 4917.0 1252.0Q4991 1306 5104 1306Q5195 1306 5253.5 1275.0Q5312 1244 5345.5 1202.5Q5379 1161 5392 1130L5451 1170Q5411 1235 5362.0 1279.5Q5313 1324 5249.5 1346.0Q5186 1368 5101 1368Q4972 1368 4883.0 1307.5Q4794 1247 4748.5 1145.5Q4703 1044 4703 923Q4703 803 4749.5 707.0Q4796 611 4884.5 555.0Q4973 499 5098 499Q5209 499 5291.5 550.5Q5374 602 5420.0 691.0Q5466 780 5466 894Q5466 903 5465.0 911.5Q5464 920 5464 928ZM5395 864Q5393 799 5365.5 729.0Q5338 659 5274.0 610.5Q5210 562 5098 562Q4980 562 4911.5 609.0Q4843 656 4812.5 726.0Q4782 796 4776 864ZM6521 0Q6628 0 6701.5 25.5Q6775 51 6816.0 79.0Q6857 107 6863 115L6823 171Q6808 157 6771.0 131.5Q6734 106 6673.0 85.0Q6612 64 6524 64Q6382 64 6301.0 125.0Q6220 186 6220 293Q6220 365 6262.5 418.5Q6305 472 6376.5 514.5Q6448 557 6534 598Q6599 629 6667.0 666.0Q6735 703 6793.5 752.5Q6852 802 6888.0 868.0Q6924 934 6924 1022Q6924 1095 6894.5 1158.0Q6865 1221 6809.5 1268.5Q6754 1316 6676.5 1342.0Q6599 1368 6503 1368Q6395 1368 6306.0 1339.0Q6217 1310 6162.5 1279.5Q6108 1249 6103 1245L6148 1186Q6161 1196 6190.5 1215.5Q6220 1235 6265.0 1255.5Q6310 1276 6371.0 1290.0Q6432 1304 6508 1304Q6678 1304 6766.5 1222.5Q6855 1141 6855 1018Q6855 922 6798.0 854.5Q6741 787 6655.5 737.0Q6570 687 6482 645Q6389 599 6314.0 550.5Q6239 502 6195.0 439.5Q6151 377 6151 291Q6151 208 6199.0 142.0Q6247 76 6331.0 38.0Q6415 0 6521 0ZM7234 1760H7169V523H7237V706Q7241 672 7284.0 623.0Q7327 574 7402.5 536.5Q7478 499 7578 499Q7688 499 7778.5 549.5Q7869 600 7923.5 697.0Q7978 794 7978 934Q7978 1074 7923.5 1171.0Q7869 1268 7778.5 1318.0Q7688 1368 7578 1368Q7478 1368 7401.5 1329.0Q7325 1290 7281.5 1241.0Q7238 1192 7234 1162ZM7913 934Q7913 818 7866.5 735.0Q7820 652 7745.5 607.5Q7671 563 7585 563Q7490 563 7410.5 608.5Q7331 654 7284.0 737.0Q7237 820 7237 934Q7237 1048 7284.0 1131.0Q7331 1214 7410.5 1259.0Q7490 1304 7585 1304Q7671 1304 7745.5 1260.0Q7820 1216 7866.5 1133.0Q7913 1050 7913 934ZM8862 1344V1162Q8856 1190 8815.5 1239.5Q8775 1289 8703.0 1328.5Q8631 1368 8532 1368Q8423 1368 8328.5 1318.0Q8234 1268 8176.0 1171.0Q8118 1074 8118 934Q8118 794 8176.0 697.0Q8234 600 8328.5 549.5Q8423 499 8532 499Q8631 499 8703.5 537.5Q8776 576 8817.5 625.0Q8859 674 8862 706V523H8924V1344ZM8182 934Q8182 1050 8232.0 1133.0Q8282 1216 8361.0 1260.0Q8440 1304 8526 1304Q8621 1304 8696.0 1259.0Q8771 1214 8814.5 1131.0Q8858 1048 8858 934Q8858 820 8814.5 737.0Q8771 654 8696.0 608.5Q8621 563 8526 563Q8440 563 8361.0 607.5Q8282 652 8232.0 735.0Q8182 818 8182 934ZM9271 1344H9209V523H9271V677H9266Q9269 650 9301.5 608.0Q9334 566 9390.5 532.5Q9447 499 9521 499Q9579 499 9619.0 513.0Q9659 527 9673 541L9642 598Q9628 587 9593.0 575.0Q9558 563 9508 563Q9438 563 9384.5 613.0Q9331 663 9301.0 732.0Q9271 801 9271 858ZM9744 523H9923V186H9987V523H10221V587H9987V1142Q9987 1233 10021.0 1268.5Q10055 1304 10101 1304Q10148 1304 10171.0 1288.0Q10194 1272 10198 1267L10237 1320Q10232 1325 10215.0 1337.0Q10198 1349 10169.5 1358.5Q10141 1368 10099 1368Q10026 1368 9974.5 1318.5Q9923 1269 9923 1158V587H9744ZM11101 1344V1162Q11095 1190 11054.5 1239.5Q11014 1289 10942.0 1328.5Q10870 1368 10771 1368Q10662 1368 10567.5 1318.0Q10473 1268 10415.0 1171.0Q10357 1074 10357 934Q10357 794 10415.0 697.0Q10473 600 10567.5 549.5Q10662 499 10771 499Q10870 499 10942.5 537.5Q11015 576 11056.5 625.0Q11098 674 11101 706V523H11163V1344ZM10421 934Q10421 1050 10471.0 1133.0Q10521 1216 10600.0 1260.0Q10679 1304 10765 1304Q10860 1304 10935.0 1259.0Q11010 1214 11053.5 1131.0Q11097 1048 11097 934Q11097 820 11053.5 737.0Q11010 654 10935.0 608.5Q10860 563 10765 563Q10679 563 10600.0 607.5Q10521 652 10471.0 735.0Q10421 818 10421 934ZM11800 499Q11875 499 11947.0 532.0Q12019 565 12065.5 636.5Q12112 708 12112 822V1344H12046V843Q12046 692 11976.0 627.5Q11906 563 11798 563Q11726 563 11659.0 605.0Q11592 647 11548.5 719.0Q11505 791 11505 880V1344H11441V523H11505V691Q11511 655 11552.0 610.0Q11593 565 11658.0 532.0Q11723 499 11800 499Z" /></svg>