<svg viewBox="0 0 3810 1306" xmlns="http://www.w3.org/2000/svg"><path d="M182 1045Q115 1045 87.5 1006.5Q60 968 60 890Q60 840 76.5 739.5Q93 639 123 473L70 366Q117 336 170.0 314.5Q223 293 276 293Q323 293 338.0 321.0Q353 349 353 387Q353 403 347.5 438.5Q342 474 333.0 521.5Q324 569 314.5 621.0Q305 673 296.0 723.5Q287 774 281.5 815.5Q276 857 276 883H384Q460 872 537 844Q541 855 542.0 867.0Q543 879 543 893Q543 928 529.0 963.0Q515 998 486.0 1021.0Q457 1044 413 1044Q370 1044 338.0 1036.5Q306 1029 271 1022Q249 1034 227.0 1039.5Q205 1045 182 1045ZM880 1044Q787 1044 723.0 1011.0Q659 978 626.5 918.5Q594 859 594 781Q594 700 623.5 633.5Q653 567 706.0 519.0Q759 471 829.5 445.0Q900 419 982 419Q1079 419 1125.0 462.0Q1171 505 1171 570Q1171 626 1134.5 675.5Q1098 725 1017.0 755.5Q936 786 801 787Q804 851 830.5 887.5Q857 924 897 924Q917 924 939.0 914.5Q961 905 976.0 880.5Q991 856 991 813Q1059 813 1098.0 828.0Q1137 843 1137 882Q1137 918 1106.0 955.5Q1075 993 1017.5 1018.5Q960 1044 880 1044ZM810 707Q883 701 927.0 680.0Q971 659 991.0 632.0Q1011 605 1011 582Q1011 562 999.0 549.0Q987 536 965 536Q929 536 898.0 561.0Q867 586 844.5 625.5Q822 665 810 707ZM1378 1044Q1315 1044 1288.0 1012.0Q1261 980 1261 920Q1261 899 1267.0 855.5Q1273 812 1282.5 758.5Q1292 705 1303.0 651.0Q1314 597 1324 555L1272 475Q1313 452 1360.5 435.5Q1408 419 1457 419Q1499 419 1519.0 439.5Q1539 460 1539 495Q1539 521 1532.0 549.0Q1525 577 1516 597L1526 602Q1585 501 1650.0 460.0Q1715 419 1788 419Q1841 419 1875.0 445.5Q1909 472 1909 531Q1909 561 1899 597L1909 602Q1968 501 2033.0 460.0Q2098 419 2171 419Q2232 419 2262.0 448.5Q2292 478 2292 540Q2292 594 2277.5 654.5Q2263 715 2248.0 778.5Q2233 842 2233 904Q2233 966 2254 995Q2201 1044 2144 1044Q2081 1044 2054.0 1012.0Q2027 980 2027 920Q2027 887 2036.0 846.5Q2045 806 2057.0 764.0Q2069 722 2078.0 685.0Q2087 648 2087 621Q2087 600 2079.5 588.0Q2072 576 2053 576Q2026 576 1991.5 600.0Q1957 624 1924.5 667.5Q1892 711 1871.0 771.0Q1850 831 1850 904Q1850 966 1871 995Q1818 1044 1761 1044Q1698 1044 1671.0 1012.0Q1644 980 1644 920Q1644 887 1653.0 846.5Q1662 806 1674.0 764.0Q1686 722 1695.0 685.0Q1704 648 1704 621Q1704 600 1696.5 588.0Q1689 576 1670 576Q1643 576 1608.5 600.0Q1574 624 1541.5 667.5Q1509 711 1488.0 771.0Q1467 831 1467 904Q1467 966 1488 995Q1435 1044 1378 1044ZM2665 1044Q2577 1044 2513.5 1010.5Q2450 977 2416.0 918.0Q2382 859 2382 781Q2382 673 2429.5 591.5Q2477 510 2560.0 464.5Q2643 419 2749 419Q2766 419 2783.5 420.5Q2801 422 2821 427Q2826 441 2829.0 460.5Q2832 480 2833 502Q2842 499 2852.5 497.0Q2863 495 2875 495Q2910 495 2941.0 513.5Q2972 532 2992.0 571.0Q3012 610 3012 670Q3012 759 2982.5 828.5Q2953 898 2903.0 946.0Q2853 994 2791.5 1019.0Q2730 1044 2665 1044ZM2696 921Q2719 921 2744.0 910.0Q2769 899 2793.0 870.0Q2817 841 2833 788Q2790 761 2771.0 721.5Q2752 682 2752 634Q2752 620 2757.0 598.0Q2762 576 2774.5 553.0Q2787 530 2809 515Q2740 529 2696.0 557.0Q2652 585 2627.5 621.5Q2603 658 2593.5 696.5Q2584 735 2584 770Q2584 810 2597.0 844.5Q2610 879 2635.0 900.0Q2660 921 2696 921ZM3224 1044Q3161 1044 3134.0 1012.0Q3107 980 3107 920Q3107 899 3113.0 855.5Q3119 812 3128.5 758.5Q3138 705 3149.0 651.0Q3160 597 3170 555L3118 475Q3159 452 3206.5 435.5Q3254 419 3303 419Q3345 419 3365.0 439.5Q3385 460 3385 495Q3385 521 3378.0 549.0Q3371 577 3362 597L3372 602Q3431 501 3501.0 460.0Q3571 419 3644 419Q3705 419 3735.0 448.5Q3765 478 3765 540Q3765 594 3750.5 654.5Q3736 715 3721.0 778.5Q3706 842 3706 904Q3706 966 3727 995Q3674 1044 3617 1044Q3554 1044 3527.0 1012.0Q3500 980 3500 920Q3500 887 3509.0 846.5Q3518 806 3530.0 764.0Q3542 722 3551.0 685.0Q3560 648 3560 621Q3560 600 3552.5 588.0Q3545 576 3526 576Q3499 576 3463.0 600.0Q3427 624 3392.5 667.5Q3358 711 3335.5 771.0Q3313 831 3313 904Q3313 966 3334 995Q3281 1044 3224 1044Z" fill="currentColor" /></svg>