<svg viewBox="0 0 8728 1250" xmlns="http://www.w3.org/2000/svg"><path d="M158 1000V300H266V896H695V1000ZM1240 1010Q1143 1010 1067.0 975.5Q991 941 948.5 880.5Q906 820 906 743Q906 678 931.0 626.5Q956 575 1001.0 539.0Q1046 503 1105.5 483.0Q1165 463 1231 463Q1293 463 1347.0 482.0Q1401 501 1442.0 535.0Q1483 569 1505.5 615.5Q1528 662 1527 718L1526 769H996L973 687H1437L1422 697V673Q1417 639 1389.0 613.0Q1361 587 1319.5 572.5Q1278 558 1231 558Q1167 558 1116.5 576.0Q1066 594 1037.0 633.0Q1008 672 1008 736Q1008 790 1039.5 830.5Q1071 871 1127.5 893.0Q1184 915 1257 915Q1327 915 1374.5 896.0Q1422 877 1456 854L1503 930Q1475 952 1432.5 970.0Q1390 988 1340.5 999.0Q1291 1010 1240 1010ZM2254 1000 2039 770 2020 750 1766 475H1914L2105 697L2123 716L2398 1000ZM1752 1000 2002 723 2071 788 1891 1000ZM2129 750 2068 678 2248 475H2388ZM2913 1010Q2816 1010 2740.0 975.5Q2664 941 2621.5 880.5Q2579 820 2579 743Q2579 678 2604.0 626.5Q2629 575 2674.0 539.0Q2719 503 2778.5 483.0Q2838 463 2904 463Q2966 463 3020.0 482.0Q3074 501 3115.0 535.0Q3156 569 3178.5 615.5Q3201 662 3200 718L3199 769H2669L2646 687H3110L3095 697V673Q3090 639 3062.0 613.0Q3034 587 2992.5 572.5Q2951 558 2904 558Q2840 558 2789.5 576.0Q2739 594 2710.0 633.0Q2681 672 2681 736Q2681 790 2712.5 830.5Q2744 871 2800.5 893.0Q2857 915 2930 915Q3000 915 3047.5 896.0Q3095 877 3129 854L3176 930Q3148 952 3105.5 970.0Q3063 988 3013.5 999.0Q2964 1010 2913 1010ZM3494 1000V475H3597V612L3564 617Q3584 579 3618.0 544.5Q3652 510 3699.5 487.0Q3747 464 3805 464Q3881 464 3932.0 492.5Q3983 521 4009.0 571.5Q4035 622 4035 687V1000H3932V701Q3932 657 3911.5 625.0Q3891 593 3856.5 576.0Q3822 559 3778 559Q3738 559 3705.0 573.0Q3672 587 3647.5 609.5Q3623 632 3610.0 658.5Q3597 685 3597 711V1000H3546Q3523 1000 3510.0 1000.0Q3497 1000 3494 1000ZM4605 1010Q4516 1010 4449.5 975.0Q4383 940 4346.5 878.0Q4310 816 4310 737Q4310 657 4348.0 595.5Q4386 534 4453.5 499.0Q4521 464 4608 464Q4661 464 4707.0 477.0Q4753 490 4788.0 512.0Q4823 534 4842.0 559.0Q4861 584 4861 609L4831 611V260H4934V1000H4831V861L4851 866Q4851 890 4831.0 915.0Q4811 940 4776.5 961.5Q4742 983 4697.5 996.5Q4653 1010 4605 1010ZM4625 917Q4687 917 4734.5 893.0Q4782 869 4808.5 828.5Q4835 788 4835 737Q4835 686 4808.5 645.5Q4782 605 4734.5 581.5Q4687 558 4625 558Q4563 558 4516.0 581.5Q4469 605 4442.0 645.5Q4415 686 4415 737Q4415 788 4442.0 828.5Q4469 869 4516.0 893.0Q4563 917 4625 917ZM5670 1000V300H6045Q6105 300 6155.5 328.5Q6206 357 6236.0 406.0Q6266 455 6266 515Q6266 577 6233.5 628.0Q6201 679 6148.0 709.0Q6095 739 6030 739H5778V1000ZM5778 635H6023Q6058 635 6087.5 618.5Q6117 602 6134.5 574.5Q6152 547 6152 515Q6152 484 6134.5 459.0Q6117 434 6087.5 419.0Q6058 404 6023 404H5778ZM6798 1010Q6701 1010 6625.0 975.5Q6549 941 6506.5 880.5Q6464 820 6464 743Q6464 678 6489.0 626.5Q6514 575 6559.0 539.0Q6604 503 6663.5 483.0Q6723 463 6789 463Q6851 463 6905.0 482.0Q6959 501 7000.0 535.0Q7041 569 7063.5 615.5Q7086 662 7085 718L7084 769H6554L6531 687H6995L6980 697V673Q6975 639 6947.0 613.0Q6919 587 6877.5 572.5Q6836 558 6789 558Q6725 558 6674.5 576.0Q6624 594 6595.0 633.0Q6566 672 6566 736Q6566 790 6597.5 830.5Q6629 871 6685.5 893.0Q6742 915 6815 915Q6885 915 6932.5 896.0Q6980 877 7014 854L7061 930Q7033 952 6990.5 970.0Q6948 988 6898.5 999.0Q6849 1010 6798 1010ZM7450 1000V319H7553V1000ZM7298 575V475H7733V575ZM8230 1010Q8143 1010 8077.5 974.5Q8012 939 7975.5 877.0Q7939 815 7939 737Q7939 657 7977.5 595.5Q8016 534 8083.0 499.0Q8150 464 8237 464Q8290 464 8335.5 477.0Q8381 490 8414.5 512.0Q8448 534 8467.5 560.0Q8487 586 8488 612L8460 611V475H8564V1000H8460V861L8481 864Q8480 889 8459.0 914.5Q8438 940 8403.0 961.5Q8368 983 8323.5 996.5Q8279 1010 8230 1010ZM8254 915Q8316 915 8363.5 891.5Q8411 868 8437.5 827.5Q8464 787 8464 737Q8464 686 8437.5 646.0Q8411 606 8363.5 583.0Q8316 560 8254 560Q8193 560 8145.5 583.0Q8098 606 8071.0 646.0Q8044 686 8044 737Q8044 787 8071.0 827.5Q8098 868 8145.5 891.5Q8193 915 8254 915Z" fill="currentColor" /></svg>