<svg viewBox="0 0 9477.0 721" xmlns="http://www.w3.org/2000/svg"><path d="M134.0 705Q134.0 705 111.5 705.5Q89.0 706 59.0 706.0Q29.0 706 4.0 707Q0.0 702 0.0 688.0Q0.0 674 4.0 670Q39.0 668 58.0 663.0Q77.0 658 84.0 640.0Q91.0 622 91.0 583V214Q91.0 174 84.0 156.5Q77.0 139 58.0 133.5Q39.0 128 4.0 127Q0.0 122 0.0 108.0Q0.0 94 4.0 90Q35.0 91 67.0 91.5Q99.0 92 139.0 92Q178.0 92 209.5 91.5Q241.0 91 271.0 90Q276.0 94 276.0 108.0Q276.0 122 271.0 127Q236.0 128 217.0 133.5Q198.0 139 191.0 156.5Q184.0 174 184.0 214V609Q184.0 631 196.5 643.0Q209.0 655 231.0 655H351.0Q398.0 655 423.5 639.0Q449.0 623 463.5 584.0Q478.0 545 492.0 476Q510.0 473 527.0 480Q526.0 500 523.0 530.5Q520.0 561 516.5 595.0Q513.0 629 509.0 659.0Q505.0 689 501.0 707Q501.0 707 486.5 706.5Q472.0 706 451.5 706.0Q431.0 706 411.5 705.5Q392.0 705 382.0 705ZM851.0 55Q851.0 34 870.0 17.0Q889.0 0 909.0 0Q932.0 0 947.5 19.5Q963.0 39 963.0 60Q963.0 78 945.5 96.5Q928.0 115 905.0 115Q885.0 115 868.0 96.0Q851.0 77 851.0 55ZM957.0 571Q957.0 607 960.5 623.5Q964.0 640 975.0 648Q979.0 651 997.5 654.5Q1016.0 658 1042.0 661.5Q1068.0 665 1094.5 667.0Q1121.0 669 1141.0 670Q1146.0 674 1146.0 688.0Q1146.0 702 1141.0 707Q1125.0 707 1094.0 706.5Q1063.0 706 1027.5 705.5Q992.0 705 961.5 705.0Q931.0 705 915.0 705Q898.0 705 865.0 705.0Q832.0 705 794.5 705.5Q757.0 706 724.5 706.5Q692.0 707 676.0 707Q672.0 702 672.0 688.0Q672.0 674 676.0 670Q694.0 669 722.0 667.0Q750.0 665 778.5 661.5Q807.0 658 827.5 654.5Q848.0 651 852.0 648Q863.0 640 866.5 623.0Q870.0 606 870.0 571V341Q870.0 321 868.0 310.0Q866.0 299 859.0 290Q852.0 282 821.5 279.0Q791.0 276 719.0 275Q716.0 269 715.5 258.5Q715.0 248 717.0 242Q739.0 241 771.0 238.0Q803.0 235 835.5 231.0Q868.0 227 891.0 223Q911.0 220 930.0 216.0Q949.0 212 957.0 212Q962.0 212 966.5 216.0Q971.0 220 971.0 225Q971.0 237 967.5 249.0Q964.0 261 960.5 280.0Q957.0 299 957.0 333ZM1423.0 265Q1453.0 242 1487.5 228.5Q1522.0 215 1570.0 215Q1610.0 215 1650.0 230.0Q1690.0 245 1723.0 273.5Q1756.0 302 1776.0 342.5Q1796.0 383 1796.0 434Q1796.0 500 1775.0 552.5Q1754.0 605 1718.0 641.0Q1682.0 677 1637.5 696.0Q1593.0 715 1546.0 715Q1525.0 715 1497.0 712.0Q1469.0 709 1443.5 702.5Q1418.0 696 1402.0 687Q1383.0 676 1374.5 676.5Q1366.0 677 1352.0 693Q1342.0 703 1333.5 709.5Q1325.0 716 1318.0 721Q1311.0 721 1306.0 716.0Q1301.0 711 1297.0 705Q1309.0 690 1314.5 668.0Q1320.0 646 1320.0 604V146Q1320.0 107 1314.0 90.5Q1308.0 74 1290.0 69.5Q1272.0 65 1236.0 64Q1232.0 59 1230.5 49.5Q1229.0 40 1230.0 34Q1245.0 33 1269.0 30.0Q1293.0 27 1319.5 23.0Q1346.0 19 1367.5 15.0Q1389.0 11 1398.0 7Q1411.0 7 1411.0 17Q1411.0 17 1409.0 45.5Q1407.0 74 1407.0 122V249Q1407.0 264 1412.5 266.5Q1418.0 269 1423.0 265ZM1441.0 299Q1429.0 307 1418.0 318.0Q1407.0 329 1407.0 346V634Q1417.0 646 1441.0 655.5Q1465.0 665 1492.0 670.0Q1519.0 675 1538.0 675Q1597.0 675 1632.5 646.0Q1668.0 617 1684.0 567.0Q1700.0 517 1700.0 454Q1700.0 400 1677.0 356.0Q1654.0 312 1619.0 286.5Q1584.0 261 1546.0 261Q1510.0 261 1487.0 272.0Q1464.0 283 1441.0 299ZM2408.0 596Q2419.0 597 2424.0 603.5Q2429.0 610 2431.0 618Q2394.0 661 2334.5 688.0Q2275.0 715 2204.0 715Q2138.0 715 2083.5 696.5Q2029.0 678 1997.0 644Q1966.0 612 1950.5 568.5Q1935.0 525 1935.0 479Q1935.0 394 1973.5 335.5Q2012.0 277 2073.5 246.0Q2135.0 215 2204.0 215Q2268.0 215 2311.5 233.5Q2355.0 252 2381.0 282.5Q2407.0 313 2418.5 349.5Q2430.0 386 2430.0 421Q2430.0 430 2423.5 440.0Q2417.0 450 2406.0 450H2031.0Q2031.0 499 2040.0 527.5Q2049.0 556 2068.0 585Q2099.0 628 2142.5 646.5Q2186.0 665 2234.0 665Q2290.0 665 2331.5 646.5Q2373.0 628 2408.0 596ZM2036.0 409 2310.0 405Q2321.0 405 2325.5 395.5Q2330.0 386 2330.0 379Q2330.0 331 2308.0 304.0Q2286.0 277 2256.0 266.0Q2226.0 255 2202.0 255Q2170.0 255 2136.0 268.5Q2102.0 282 2075.0 315.5Q2048.0 349 2036.0 409ZM2798.0 299Q2798.0 324 2800.0 331.0Q2802.0 338 2808.0 331Q2842.0 296 2873.0 270.0Q2904.0 244 2945.0 229.5Q2986.0 215 3046.0 215Q3080.0 215 3091.5 233.0Q3103.0 251 3103.0 266Q3103.0 286 3089.5 303.5Q3076.0 321 3056.0 321Q3041.0 321 3029.5 312.0Q3018.0 303 3010.0 294Q3005.0 288 2991.0 280.5Q2977.0 273 2966.0 273Q2937.0 273 2900.5 301.5Q2864.0 330 2822.0 377Q2811.0 389 2804.5 405.0Q2798.0 421 2798.0 441V579Q2798.0 616 2802.5 632.0Q2807.0 648 2820.0 656Q2825.0 658 2844.0 660.5Q2863.0 663 2888.0 665.0Q2913.0 667 2936.5 668.5Q2960.0 670 2973.0 670Q2978.0 674 2978.0 688.0Q2978.0 702 2973.0 707Q2957.0 707 2929.0 706.5Q2901.0 706 2869.5 705.5Q2838.0 705 2810.0 705.0Q2782.0 705 2767.0 705Q2752.0 705 2724.0 705.0Q2696.0 705 2664.0 705.5Q2632.0 706 2604.0 706.5Q2576.0 707 2560.0 707Q2556.0 702 2556.0 688.0Q2556.0 674 2560.0 670Q2581.0 669 2610.0 667.0Q2639.0 665 2663.0 662.0Q2687.0 659 2692.0 656Q2703.0 648 2707.0 631.5Q2711.0 615 2711.0 579V337Q2711.0 312 2708.0 300.5Q2705.0 289 2695.0 283Q2690.0 280 2669.0 276.5Q2648.0 273 2624.5 271.0Q2601.0 269 2589.0 269Q2588.0 264 2587.0 254.5Q2586.0 245 2587.0 241Q2639.0 234 2692.0 226.0Q2745.0 218 2778.0 212Q2787.0 212 2790.0 220Q2794.0 227 2796.0 242.5Q2798.0 258 2798.0 299ZM3226.0 265H3325.0Q3325.0 182 3323.5 145.0Q3322.0 108 3322.0 99Q3322.0 91 3336.5 88.0Q3351.0 85 3364.0 80Q3376.0 75 3389.5 68.5Q3403.0 62 3408.0 62Q3416.0 62 3416.0 71Q3416.0 71 3414.0 99.0Q3412.0 127 3412.0 176V265H3632.0Q3640.0 265 3640.0 271V296Q3640.0 303 3632.0 306.0Q3624.0 309 3616.0 309H3412.0V518Q3412.0 577 3427.0 606.5Q3442.0 636 3465.5 646.0Q3489.0 656 3514.0 656Q3547.0 656 3587.0 642.0Q3627.0 628 3668.0 611Q3676.0 612 3680.5 621.5Q3685.0 631 3686.0 639Q3625.0 673 3574.0 694.0Q3523.0 715 3479.0 715Q3435.0 715 3400.0 701.0Q3365.0 687 3345.0 654.5Q3325.0 622 3325.0 566V309H3213.0Q3208.0 309 3208.0 303V285Q3208.0 279 3212.0 272.0Q3216.0 265 3226.0 265ZM4051.0 55Q4051.0 34 4070.0 17.0Q4089.0 0 4109.0 0Q4132.0 0 4147.5 19.5Q4163.0 39 4163.0 60Q4163.0 78 4145.5 96.5Q4128.0 115 4105.0 115Q4085.0 115 4068.0 96.0Q4051.0 77 4051.0 55ZM4157.0 571Q4157.0 607 4160.5 623.5Q4164.0 640 4175.0 648Q4179.0 651 4197.5 654.5Q4216.0 658 4242.0 661.5Q4268.0 665 4294.5 667.0Q4321.0 669 4341.0 670Q4346.0 674 4346.0 688.0Q4346.0 702 4341.0 707Q4325.0 707 4294.0 706.5Q4263.0 706 4227.5 705.5Q4192.0 705 4161.5 705.0Q4131.0 705 4115.0 705Q4098.0 705 4065.0 705.0Q4032.0 705 3994.5 705.5Q3957.0 706 3924.5 706.5Q3892.0 707 3876.0 707Q3872.0 702 3872.0 688.0Q3872.0 674 3876.0 670Q3894.0 669 3922.0 667.0Q3950.0 665 3978.5 661.5Q4007.0 658 4027.5 654.5Q4048.0 651 4052.0 648Q4063.0 640 4066.5 623.0Q4070.0 606 4070.0 571V341Q4070.0 321 4068.0 310.0Q4066.0 299 4059.0 290Q4052.0 282 4021.5 279.0Q3991.0 276 3919.0 275Q3916.0 269 3915.5 258.5Q3915.0 248 3917.0 242Q3939.0 241 3971.0 238.0Q4003.0 235 4035.5 231.0Q4068.0 227 4091.0 223Q4111.0 220 4130.0 216.0Q4149.0 212 4157.0 212Q4162.0 212 4166.5 216.0Q4171.0 220 4171.0 225Q4171.0 237 4167.5 249.0Q4164.0 261 4160.5 280.0Q4157.0 299 4157.0 333ZM4629.0 316Q4675.0 265 4724.5 240.0Q4774.0 215 4834.0 215Q4860.0 215 4881.5 224.0Q4903.0 233 4917.0 249Q4937.0 271 4942.0 306.5Q4947.0 342 4947.0 383V579Q4947.0 620 4952.5 638.5Q4958.0 657 4974.5 662.5Q4991.0 668 5024.0 670Q5028.0 674 5028.0 688.0Q5028.0 702 5024.0 707Q4992.0 706 4963.0 705.5Q4934.0 705 4903.0 705Q4873.0 705 4851.5 705.5Q4830.0 706 4798.0 707Q4794.0 702 4794.0 688.0Q4794.0 674 4798.0 670Q4824.0 667 4837.5 662.0Q4851.0 657 4855.5 638.5Q4860.0 620 4860.0 579V380Q4860.0 357 4857.0 337.0Q4854.0 317 4845.0 303Q4835.0 287 4821.0 277.0Q4807.0 267 4792.0 267Q4746.0 267 4706.0 292.5Q4666.0 318 4637.0 346Q4631.0 353 4625.5 362.5Q4620.0 372 4620.0 388V579Q4620.0 620 4624.5 638.5Q4629.0 657 4642.0 662.0Q4655.0 667 4680.0 670Q4685.0 674 4685.0 688.0Q4685.0 702 4680.0 707Q4649.0 706 4627.0 705.5Q4605.0 705 4576.0 705Q4544.0 705 4514.0 705.5Q4484.0 706 4453.0 707Q4449.0 702 4449.0 688.0Q4449.0 674 4453.0 670Q4488.0 667 4505.0 661.5Q4522.0 656 4527.5 638.0Q4533.0 620 4533.0 579V337Q4533.0 308 4528.0 294.5Q4523.0 281 4509.0 276.0Q4495.0 271 4468.0 269Q4467.0 264 4466.0 254.5Q4465.0 245 4466.0 241Q4518.0 234 4548.5 227.0Q4579.0 220 4600.0 212Q4606.0 212 4608.0 214.5Q4610.0 217 4612.0 220Q4616.0 228 4618.0 249.0Q4620.0 270 4620.0 316Q4620.0 326 4623.5 322.5Q4627.0 319 4629.0 316ZM5304.0 715Q5254.0 715 5224.5 695.5Q5195.0 676 5182.0 644.5Q5169.0 613 5169.0 579V340Q5169.0 289 5153.0 274Q5146.0 267 5129.5 264.0Q5113.0 261 5097.0 260Q5092.0 255 5092.0 241.0Q5092.0 227 5097.0 223Q5124.0 224 5157.5 224.5Q5191.0 225 5215.0 225Q5226.0 225 5237.0 224.5Q5248.0 224 5252.0 223Q5260.0 223 5260.0 229Q5260.0 229 5259.0 249.5Q5258.0 270 5257.0 295.5Q5256.0 321 5256.0 336V565Q5256.0 609 5269.5 631.5Q5283.0 654 5302.0 661.0Q5321.0 668 5336.0 668Q5354.0 668 5395.0 653.0Q5436.0 638 5480.0 606Q5491.0 598 5493.5 589.5Q5496.0 581 5496.0 567V341Q5496.0 288 5480.0 273Q5473.0 267 5459.0 264.0Q5445.0 261 5429.0 260Q5424.0 255 5424.0 241.0Q5424.0 227 5429.0 223Q5456.0 224 5484.0 224.5Q5512.0 225 5536.0 225Q5547.0 225 5561.0 224.5Q5575.0 224 5579.0 223Q5587.0 223 5587.0 229Q5587.0 229 5586.0 249.5Q5585.0 270 5584.0 295.5Q5583.0 321 5583.0 336V575Q5583.0 612 5597.0 628.0Q5611.0 644 5659.0 648Q5663.0 652 5663.0 661.0Q5663.0 670 5659.0 675Q5613.0 680 5578.0 690.5Q5543.0 701 5527.0 715Q5521.0 716 5517.5 716.5Q5514.0 717 5508.0 715Q5508.0 715 5502.5 697.0Q5497.0 679 5497.0 646Q5497.0 641 5492.5 641.5Q5488.0 642 5485.0 645Q5434.0 683 5383.5 699.0Q5333.0 715 5304.0 715ZM5785.0 561Q5792.0 554 5805.0 550.5Q5818.0 547 5828.0 549Q5833.0 570 5849.5 601.5Q5866.0 633 5888.0 652Q5902.0 663 5934.0 670.5Q5966.0 678 6009.0 678Q6084.0 678 6126.0 652.0Q6168.0 626 6168.0 585Q6168.0 561 6151.5 544.5Q6135.0 528 6094.5 516.0Q6054.0 504 5983.0 492Q5883.0 475 5842.5 442.5Q5802.0 410 5802.0 344Q5802.0 304 5833.5 275.0Q5865.0 246 5915.0 230.5Q5965.0 215 6019.0 215Q6072.0 215 6119.5 226.0Q6167.0 237 6193.0 246Q6199.0 270 6204.0 299.0Q6209.0 328 6213.0 363Q6208.0 368 6198.5 372.0Q6189.0 376 6177.0 375Q6156.0 339 6134.5 311.5Q6113.0 284 6085.5 268.0Q6058.0 252 6019.0 252Q5950.0 252 5913.5 274.0Q5877.0 296 5877.0 328Q5877.0 370 5925.0 388.5Q5973.0 407 6055.0 420Q6134.0 433 6176.0 451.0Q6218.0 469 6234.0 495.5Q6250.0 522 6250.0 560Q6250.0 617 6218.0 651.0Q6186.0 685 6132.0 700.0Q6078.0 715 6011.0 715Q5969.0 715 5933.5 711.0Q5898.0 707 5884.0 703Q5878.0 701 5869.0 700.5Q5860.0 700 5854.0 700Q5850.0 700 5839.5 701.0Q5829.0 702 5820.0 704Q5807.0 673 5797.5 637.5Q5788.0 602 5785.0 561ZM7462.0 589 7456.0 188H7451.0L7285.0 596Q7281.0 606 7273.0 606Q7265.0 606 7261.0 596L7123.0 198H7116.0L7100.0 582Q7099.0 622 7101.5 640.0Q7104.0 658 7119.5 663.0Q7135.0 668 7171.0 670Q7176.0 674 7176.0 688.0Q7176.0 702 7171.0 707Q7149.0 706 7119.5 705.5Q7090.0 705 7072.0 705Q7054.0 705 7031.5 705.5Q7009.0 706 6986.0 707Q6982.0 702 6982.0 688.0Q6982.0 674 6986.0 670Q7020.0 668 7035.5 663.5Q7051.0 659 7055.5 641.0Q7060.0 623 7061.0 584L7077.0 199Q7078.0 167 7075.5 152.5Q7073.0 138 7058.5 133.5Q7044.0 129 7009.0 127Q7005.0 122 7005.0 108.0Q7005.0 94 7009.0 90L7176.0 92L7292.0 413Q7299.0 430 7303.0 430.5Q7307.0 431 7314.0 412L7449.0 92L7586.0 90Q7591.0 94 7591.0 108.0Q7591.0 122 7586.0 127Q7560.0 128 7549.0 132.5Q7538.0 137 7535.5 150.0Q7533.0 163 7534.0 192L7542.0 584Q7543.0 623 7546.5 641.0Q7550.0 659 7564.0 663.5Q7578.0 668 7609.0 670Q7614.0 674 7614.0 688.0Q7614.0 702 7609.0 707Q7584.0 706 7553.5 705.5Q7523.0 705 7500.0 705Q7478.0 705 7448.5 705.5Q7419.0 706 7388.0 707Q7384.0 702 7384.0 688.0Q7384.0 674 7388.0 670Q7423.0 667 7439.0 662.0Q7455.0 657 7459.0 641.0Q7463.0 625 7462.0 589ZM7677.0 475Q7677.0 422 7695.0 375.5Q7713.0 329 7746.0 293Q7780.0 257 7828.5 236.0Q7877.0 215 7938.0 215Q8009.0 215 8058.0 237.5Q8107.0 260 8138.0 296.5Q8169.0 333 8183.0 377.0Q8197.0 421 8197.0 465Q8197.0 516 8178.0 566.0Q8159.0 616 8117.0 653Q8086.0 681 8040.5 698.0Q7995.0 715 7936.0 715Q7870.0 715 7821.5 694.0Q7773.0 673 7741.0 638.0Q7709.0 603 7693.0 560.5Q7677.0 518 7677.0 475ZM7918.0 256Q7860.0 256 7828.5 284.0Q7797.0 312 7785.0 356.0Q7773.0 400 7773.0 450Q7773.0 483 7782.0 521.5Q7791.0 560 7812.0 595.0Q7833.0 630 7868.0 652.0Q7903.0 674 7954.0 674Q7978.0 674 8003.5 667.0Q8029.0 660 8051.0 641.5Q8073.0 623 8087.0 589.5Q8101.0 556 8101.0 502Q8101.0 379 8052.5 317.5Q8004.0 256 7918.0 256ZM8469.0 316Q8515.0 265 8564.5 240.0Q8614.0 215 8674.0 215Q8700.0 215 8721.5 224.0Q8743.0 233 8757.0 249Q8777.0 271 8782.0 306.5Q8787.0 342 8787.0 383V579Q8787.0 620 8792.5 638.5Q8798.0 657 8814.5 662.5Q8831.0 668 8864.0 670Q8868.0 674 8868.0 688.0Q8868.0 702 8864.0 707Q8832.0 706 8803.0 705.5Q8774.0 705 8743.0 705Q8713.0 705 8691.5 705.5Q8670.0 706 8638.0 707Q8634.0 702 8634.0 688.0Q8634.0 674 8638.0 670Q8664.0 667 8677.5 662.0Q8691.0 657 8695.5 638.5Q8700.0 620 8700.0 579V380Q8700.0 357 8697.0 337.0Q8694.0 317 8685.0 303Q8675.0 287 8661.0 277.0Q8647.0 267 8632.0 267Q8586.0 267 8546.0 292.5Q8506.0 318 8477.0 346Q8471.0 353 8465.5 362.5Q8460.0 372 8460.0 388V579Q8460.0 620 8464.5 638.5Q8469.0 657 8482.0 662.0Q8495.0 667 8520.0 670Q8525.0 674 8525.0 688.0Q8525.0 702 8520.0 707Q8489.0 706 8467.0 705.5Q8445.0 705 8416.0 705Q8384.0 705 8354.0 705.5Q8324.0 706 8293.0 707Q8289.0 702 8289.0 688.0Q8289.0 674 8293.0 670Q8328.0 667 8345.0 661.5Q8362.0 656 8367.5 638.0Q8373.0 620 8373.0 579V337Q8373.0 308 8368.0 294.5Q8363.0 281 8349.0 276.0Q8335.0 271 8308.0 269Q8307.0 264 8306.0 254.5Q8305.0 245 8306.0 241Q8358.0 234 8388.5 227.0Q8419.0 220 8440.0 212Q8446.0 212 8448.0 214.5Q8450.0 217 8452.0 220Q8456.0 228 8458.0 249.0Q8460.0 270 8460.0 316Q8460.0 326 8463.5 322.5Q8467.0 319 8469.0 316ZM8957.0 475Q8957.0 422 8975.0 375.5Q8993.0 329 9026.0 293Q9060.0 257 9108.5 236.0Q9157.0 215 9218.0 215Q9289.0 215 9338.0 237.5Q9387.0 260 9418.0 296.5Q9449.0 333 9463.0 377.0Q9477.0 421 9477.0 465Q9477.0 516 9458.0 566.0Q9439.0 616 9397.0 653Q9366.0 681 9320.5 698.0Q9275.0 715 9216.0 715Q9150.0 715 9101.5 694.0Q9053.0 673 9021.0 638.0Q8989.0 603 8973.0 560.5Q8957.0 518 8957.0 475ZM9198.0 256Q9140.0 256 9108.5 284.0Q9077.0 312 9065.0 356.0Q9053.0 400 9053.0 450Q9053.0 483 9062.0 521.5Q9071.0 560 9092.0 595.0Q9113.0 630 9148.0 652.0Q9183.0 674 9234.0 674Q9258.0 674 9283.5 667.0Q9309.0 660 9331.0 641.5Q9353.0 623 9367.0 589.5Q9381.0 556 9381.0 502Q9381.0 379 9332.5 317.5Q9284.0 256 9198.0 256Z" fill="currentColor" /></svg>