<svg viewBox="0 0 3335 960" xmlns="http://www.w3.org/2000/svg"><path d="M11 840V9H36V840ZM59 840V9H84V840ZM39 866 17 873 15 866 42 852H50V957H39ZM85 840V9H96V840ZM121 840V9H132V840ZM126 958Q116 958 109 955Q102 951 98 945Q94 938 94 930Q94 921 100 913Q106 905 115 901Q108 897 103 891Q99 884 99 877Q99 865 106 858Q114 851 127 851Q141 851 148 858Q155 865 155 876Q155 883 150 890Q145 897 138 901Q147 905 153 913Q158 921 158 930Q158 938 154 944Q150 951 143 955Q136 958 126 958ZM129 897Q135 893 139 887Q143 882 143 876Q143 869 139 865Q134 861 127 861Q119 861 114 865Q110 869 110 875Q110 882 115 887Q119 891 129 897ZM126 948Q136 948 141 943Q146 938 146 930Q146 922 140 915Q134 909 124 906Q116 909 111 915Q106 922 106 929Q106 937 112 942Q117 948 126 948ZM168 840V9H193V840ZM216 840V9H241V840ZM208 866 186 873 184 866 211 852H219V957H208ZM278 957Q293 909 310 863H265V852H325V859Q304 911 291 957ZM336 840V9H348V840ZM360 840V9H396V840ZM389 931H344V922L392 852H402V921H415V931H402V957H389ZM389 921V873L358 921ZM553 840V9H576V840ZM601 840V9H612V840ZM567 866 545 873 543 866 570 852H578V957H567ZM612 840V9H648V840ZM672 840V9H684V840ZM654 851Q669 851 678 866Q686 880 686 905Q686 931 678 945Q670 959 654 959Q638 959 630 945Q622 931 622 905Q622 880 630 866Q639 851 654 851ZM654 862Q644 862 639 873Q634 885 634 905Q634 916 635 924L671 878Q668 870 664 866Q660 862 654 862ZM654 948Q664 948 669 937Q674 926 674 905Q674 895 673 888L638 933Q643 948 654 948ZM722 957Q737 909 754 863H709V852H769V859Q748 911 735 957ZM779 840V9H804V840ZM815 840V9H840V840ZM792 947 806 933Q819 920 826 912Q833 904 837 897Q841 889 841 881Q841 871 836 866Q831 862 823 862Q811 862 802 872Q800 875 800 877Q800 878 800 878V879L798 878L790 872Q795 862 804 857Q812 851 823 851Q837 851 845 859Q853 867 853 881Q853 890 849 899Q845 907 838 915Q831 923 819 935L807 946H846Q849 946 850 946Q852 946 853 945H854V957H792ZM916 931H871V922L919 852H929V921H942V931H929V957H916ZM916 921V873L885 921ZM947 840V9H959V840ZM1007 840V9H1019V840ZM987 959Q979 959 971 955Q964 952 959 947L966 937L967 936L968 937Q969 939 969 940Q970 941 971 943Q975 945 978 947Q982 948 987 948Q997 948 1002 943Q1007 937 1007 927Q1007 917 1000 912Q994 907 983 907Q981 907 977 907V898Q992 898 998 892Q1003 886 1003 877Q1003 870 999 866Q995 861 988 861Q977 861 969 869L962 862Q972 851 988 851Q1001 851 1008 858Q1015 866 1015 877Q1015 886 1011 892Q1007 899 999 901Q1008 904 1013 911Q1019 918 1019 928Q1019 936 1015 943Q1011 950 1004 954Q997 959 987 959ZM1031 840V9H1043V840ZM1055 840V9H1091V840ZM1084 931H1039V922L1087 852H1097V921H1110V931H1097V957H1084ZM1084 921V873L1053 921ZM1235 840V9H1247V840ZM1283 840V9H1307V840ZM1276 931H1231V922L1279 852H1289V921H1302V931H1289V957H1276ZM1276 921V873L1245 921ZM1343 840V9H1367V840ZM1379 840V9H1391V840ZM1349 851Q1364 851 1373 866Q1381 880 1381 905Q1381 931 1373 945Q1365 959 1349 959Q1333 959 1325 945Q1317 931 1317 905Q1317 880 1325 866Q1334 851 1349 851ZM1349 862Q1339 862 1334 873Q1329 885 1329 905Q1329 916 1330 924L1366 878Q1363 870 1359 866Q1355 862 1349 862ZM1349 948Q1359 948 1364 937Q1369 926 1369 905Q1369 895 1368 888L1333 933Q1338 948 1349 948ZM1403 840V9H1415V840ZM1463 840V9H1475V840ZM1431 959Q1423 959 1415 955Q1408 952 1403 947L1410 937L1411 936L1412 937Q1413 939 1413 940Q1414 941 1415 943Q1419 945 1422 947Q1426 948 1431 948Q1441 948 1446 943Q1451 937 1451 927Q1451 917 1444 912Q1438 907 1427 907Q1425 907 1421 907V898Q1436 898 1442 892Q1447 886 1447 877Q1447 870 1443 866Q1439 861 1432 861Q1421 861 1413 869L1406 862Q1416 851 1432 851Q1445 851 1452 858Q1459 866 1459 877Q1459 886 1455 892Q1451 899 1443 901Q1452 904 1457 911Q1463 918 1463 928Q1463 936 1459 943Q1455 950 1448 954Q1441 959 1431 959ZM1705 303 1579 340 1563 301 1726 216H1775V840H1705ZM2215 851Q2165 851 2121 833Q2076 815 2044 780L2090 725L2097 717L2102 722Q2103 732 2106 739Q2109 747 2120 757Q2139 773 2161 782Q2182 791 2212 791Q2270 791 2300 757Q2330 723 2330 666Q2330 604 2293 573Q2255 542 2187 542Q2177 542 2155 544V488Q2244 488 2277 455Q2309 422 2309 365Q2309 323 2285 298Q2260 273 2220 273Q2155 273 2106 319L2064 277Q2125 213 2219 213Q2294 213 2338 255Q2381 298 2381 368Q2381 419 2356 457Q2331 495 2283 510Q2338 528 2370 568Q2402 608 2402 669Q2402 719 2380 760Q2358 802 2316 826Q2274 851 2215 851ZM2607 840V9H2619V840ZM2631 840V9H2667V840ZM2624 851Q2634 851 2642 857Q2649 863 2653 873Q2657 883 2657 896Q2657 927 2648 942Q2638 958 2621 958Q2606 958 2596 949L2605 939L2606 940Q2606 942 2606 943Q2607 944 2609 945Q2614 948 2620 948Q2632 948 2638 937Q2644 926 2645 909Q2641 913 2636 915Q2631 917 2625 917Q2616 917 2609 913Q2602 909 2598 902Q2594 895 2594 885Q2594 876 2598 868Q2602 860 2609 856Q2616 851 2624 851ZM2625 907Q2632 907 2637 905Q2642 903 2645 898Q2645 880 2640 871Q2635 862 2625 862Q2616 862 2611 868Q2606 874 2606 885Q2606 895 2611 901Q2617 907 2625 907ZM2667 840V9H2679V840ZM2691 840V9H2727V840ZM2720 931H2675V922L2723 852H2733V921H2746V931H2733V957H2720ZM2720 921V873L2689 921ZM2959 608 2801 383H2880L2999 552L3113 383H3187L3039 605L3207 840H3125L2999 662L2880 840H2798ZM3292 851Q3302 851 3310 857Q3317 863 3321 873Q3325 883 3325 896Q3325 927 3316 942Q3306 958 3289 958Q3274 958 3264 949L3273 939L3274 940Q3274 942 3274 943Q3275 944 3277 945Q3282 948 3288 948Q3300 948 3306 937Q3312 926 3313 909Q3309 913 3304 915Q3299 917 3293 917Q3284 917 3277 913Q3270 909 3266 902Q3262 895 3262 885Q3262 876 3266 868Q3270 860 3277 856Q3284 851 3292 851ZM3293 907Q3300 907 3305 905Q3310 903 3313 898Q3313 880 3308 871Q3303 862 3293 862Q3284 862 3279 868Q3274 874 3274 885Q3274 895 3279 901Q3285 907 3293 907Z" fill="currentColor" /></svg>