<svg viewBox="0 0 7815 967" xmlns="http://www.w3.org/2000/svg"><path d="M82 705 0 713V721H490L515 503L503 501L435 672Q426 694 415.0 701.5Q404 709 380 709H159V47L246 39V31H0V39L82 47ZM656 95Q677 95 690.5 108.5Q704 122 704 143Q704 164 690.5 177.5Q677 191 656 191Q635 191 621.5 177.5Q608 164 608 143Q608 122 621.5 108.5Q635 95 656 95ZM694 287H686L570 326V333L629 355V705L568 713V721H755V713L694 705ZM1199 493Q1199 432 1178.0 385.5Q1157 339 1119.0 313.0Q1081 287 1032 287Q962 287 909 344V0H901L785 39V46L844 68V721H852L882 694H886Q935 731 998 731Q1055 731 1101.0 700.0Q1147 669 1173.0 615.0Q1199 561 1199 493ZM909 620V359Q924 339 947.5 328.0Q971 317 998 317Q1057 317 1090.5 370.0Q1124 423 1124 514Q1124 608 1089.5 664.5Q1055 721 997 721Q957 721 933.0 693.5Q909 666 909 620ZM1540 333Q1540 349 1529.0 360.0Q1518 371 1502 371Q1492 371 1485.5 366.5Q1479 362 1472 353Q1465 345 1459.5 341.0Q1454 337 1446 337Q1430 337 1413.5 356.0Q1397 375 1390 400V705L1470 713V721H1264V713L1325 705V355L1266 333V326L1379 287H1387V375Q1443 287 1492 287Q1512 287 1526.0 300.5Q1540 314 1540 333ZM1921 607 1925 609 1921 620Q1901 673 1861.5 702.0Q1822 731 1767 731Q1713 731 1671.0 703.0Q1629 675 1605.5 625.0Q1582 575 1582 510Q1582 445 1607.0 394.0Q1632 343 1678.0 315.0Q1724 287 1783 287Q1853 287 1890.5 328.5Q1928 370 1929 449L1923 454H1653Q1651 480 1651 495Q1651 586 1688.0 633.5Q1725 681 1791 681Q1825 681 1856.5 665.5Q1888 650 1912 619ZM1654 443 1848 436Q1851 424 1851 396Q1851 342 1830.5 320.0Q1810 298 1772 298Q1725 298 1694.0 337.0Q1663 376 1654 443ZM2572 723Q2467 723 2410.0 632.5Q2353 542 2353 376Q2353 209 2410.0 118.0Q2467 27 2573 27Q2631 27 2679.0 53.5Q2727 80 2757 129Q2787 179 2801 256L2815 252L2805 27H2792L2768 75Q2710 44 2662.5 29.5Q2615 15 2570 15Q2484 15 2412.0 63.0Q2340 111 2298.5 194.0Q2257 277 2257 376Q2257 476 2298.5 558.5Q2340 641 2412.5 689.0Q2485 737 2572 737Q2621 737 2673.5 718.0Q2726 699 2771 666L2805 721H2818V491L2805 489Q2780 598 2731 653Q2702 685 2659.5 704.0Q2617 723 2572 723ZM2915 633Q2915 583 2960.5 553.0Q3006 523 3115 501V410Q3115 352 3102.0 329.5Q3089 307 3057 307Q3026 307 3007.0 323.5Q2988 340 2988 368L2989 395Q2989 420 2979.5 434.5Q2970 449 2953 449Q2938 449 2928.5 439.0Q2919 429 2919 413Q2919 389 2942.5 360.5Q2966 332 3003 313Q3048 288 3096 288Q3124 288 3143.5 299.0Q3163 310 3172 330Q3177 343 3178.5 362.0Q3180 381 3180 435V626Q3180 662 3187.0 675.5Q3194 689 3212 689Q3239 689 3252 670L3256 672Q3244 697 3224.0 710.5Q3204 724 3181 724Q3155 724 3138.0 708.5Q3121 693 3119 667L3116 666Q3093 695 3063.0 711.5Q3033 728 3002 728Q2964 728 2939.5 701.5Q2915 675 2915 633ZM3115 653V512Q3063 525 3034.5 538.0Q3006 551 2994.0 569.0Q2982 587 2982 614Q2982 649 2999.0 669.5Q3016 690 3045 690Q3066 690 3084.5 680.5Q3103 671 3115 653ZM3311 405Q3311 440 3325.0 463.0Q3339 486 3359.5 499.5Q3380 513 3414 530Q3460 552 3483.0 573.0Q3506 594 3506 635Q3506 673 3484.0 696.5Q3462 720 3425 720Q3384 720 3358.5 686.5Q3333 653 3323 583H3311L3316 713Q3337 721 3367.0 726.0Q3397 731 3421 731Q3487 731 3526.0 695.5Q3565 660 3565 599Q3565 562 3550.5 538.0Q3536 514 3515.5 500.5Q3495 487 3460 471Q3415 450 3393.0 430.5Q3371 411 3371 373Q3371 339 3391.0 318.5Q3411 298 3444 298Q3480 298 3501.5 325.0Q3523 352 3537 412H3548V301Q3532 295 3507.0 291.0Q3482 287 3458 287Q3388 287 3349.5 318.0Q3311 349 3311 405ZM3751 0H3743L3627 39V46L3686 68V705L3625 713V721H3812V713L3751 705ZM4266 509Q4266 574 4241.0 624.5Q4216 675 4171.0 703.0Q4126 731 4068 731Q4010 731 3965.0 703.0Q3920 675 3895.0 624.5Q3870 574 3870 509Q3870 444 3895.0 393.5Q3920 343 3965.0 315.0Q4010 287 4068 287Q4126 287 4171.0 315.0Q4216 343 4241.0 393.5Q4266 444 4266 509ZM4068 721Q4126 721 4159.0 665.0Q4192 609 4192 509Q4192 409 4159.0 353.0Q4126 297 4068 297Q4010 297 3977.0 353.0Q3944 409 3944 509Q3944 609 3977.0 665.0Q4010 721 4068 721ZM4752 713V721H4566V713L4627 705V450Q4627 411 4625.0 392.0Q4623 373 4617 360Q4609 343 4590.5 333.5Q4572 324 4548 324Q4497 324 4457 367V705L4518 713V721H4331V713L4392 705V360L4333 338V331L4446 292H4454V355Q4518 287 4588 287Q4619 287 4644.5 300.5Q4670 314 4681 336Q4688 349 4690.0 371.5Q4692 394 4692 450V705ZM5656 372Q5656 467 5622.0 545.0Q5588 623 5527 667Q5488 695 5437.5 708.0Q5387 721 5314 721H5048V713L5130 705V47L5048 39V31H5314Q5450 31 5527 84Q5588 127 5622.0 202.0Q5656 277 5656 372ZM5560 367Q5560 278 5542.5 210.0Q5525 142 5491 102Q5463 69 5422.0 56.0Q5381 43 5305 43H5207V709H5305Q5385 709 5425.0 696.0Q5465 683 5491 650Q5523 609 5541.5 533.5Q5560 458 5560 367ZM5825 95Q5846 95 5859.5 108.5Q5873 122 5873 143Q5873 164 5859.5 177.5Q5846 191 5825 191Q5804 191 5790.5 177.5Q5777 164 5777 143Q5777 122 5790.5 108.5Q5804 95 5825 95ZM5863 287H5855L5739 326V333L5798 355V705L5737 713V721H5924V713L5863 705ZM5989 405Q5989 440 6003.0 463.0Q6017 486 6037.5 499.5Q6058 513 6092 530Q6138 552 6161.0 573.0Q6184 594 6184 635Q6184 673 6162.0 696.5Q6140 720 6103 720Q6062 720 6036.5 686.5Q6011 653 6001 583H5989L5994 713Q6015 721 6045.0 726.0Q6075 731 6099 731Q6165 731 6204.0 695.5Q6243 660 6243 599Q6243 562 6228.5 538.0Q6214 514 6193.5 500.5Q6173 487 6138 471Q6093 450 6071.0 430.5Q6049 411 6049 373Q6049 339 6069.0 318.5Q6089 298 6122 298Q6158 298 6179.5 325.0Q6201 352 6215 412H6226V301Q6210 295 6185.0 291.0Q6160 287 6136 287Q6066 287 6027.5 318.0Q5989 349 5989 405ZM6511 731Q6570 731 6617.0 701.0Q6664 671 6690.0 618.0Q6716 565 6716 497Q6716 437 6696.0 389.0Q6676 341 6640.0 314.0Q6604 287 6560 287Q6521 287 6486.5 306.0Q6452 325 6430 358H6426V287H6418L6305 326V333L6364 355V939L6303 947V955H6519V948L6429 937V713Q6470 731 6511 731ZM6429 650V377Q6441 349 6466.0 333.0Q6491 317 6522 317Q6577 317 6610.0 370.0Q6643 423 6643 511Q6643 571 6627.0 619.0Q6611 667 6582.5 694.0Q6554 721 6518 721Q6482 721 6455.5 700.0Q6429 679 6429 650ZM6901 0H6893L6777 39V46L6836 68V705L6775 713V721H6962V713L6901 705ZM7023 633Q7023 583 7068.5 553.0Q7114 523 7223 501V410Q7223 352 7210.0 329.5Q7197 307 7165 307Q7134 307 7115.0 323.5Q7096 340 7096 368L7097 395Q7097 420 7087.5 434.5Q7078 449 7061 449Q7046 449 7036.5 439.0Q7027 429 7027 413Q7027 389 7050.5 360.5Q7074 332 7111 313Q7156 288 7204 288Q7232 288 7251.5 299.0Q7271 310 7280 330Q7285 343 7286.5 362.0Q7288 381 7288 435V626Q7288 662 7295.0 675.5Q7302 689 7320 689Q7347 689 7360 670L7364 672Q7352 697 7332.0 710.5Q7312 724 7289 724Q7263 724 7246.0 708.5Q7229 693 7227 667L7224 666Q7201 695 7171.0 711.5Q7141 728 7110 728Q7072 728 7047.5 701.5Q7023 675 7023 633ZM7223 653V512Q7171 525 7142.5 538.0Q7114 551 7102.0 569.0Q7090 587 7090 614Q7090 649 7107.0 669.5Q7124 690 7153 690Q7174 690 7192.5 680.5Q7211 671 7223 653ZM7499 348Q7492 328 7492 322Q7492 314 7502.5 310.5Q7513 307 7549 305V297H7356V305Q7390 307 7402.5 313.5Q7415 320 7423 339L7577 739L7538 858Q7525 897 7514.0 913.5Q7503 930 7490 930Q7481 930 7476.5 923.5Q7472 917 7468 903Q7463 885 7455.0 875.0Q7447 865 7428 865Q7408 865 7396.5 877.0Q7385 889 7385 909Q7385 934 7404.0 950.5Q7423 967 7451 967Q7485 967 7511 938Q7532 918 7549 865L7716 374Q7727 340 7747.0 326.0Q7767 312 7815 305V297H7636V305Q7676 311 7691.0 318.5Q7706 326 7706 342Q7706 353 7700 373L7609 648H7605Z" fill="currentColor" /></svg>