<svg viewBox="0 0 20160 1000" xmlns="http://www.w3.org/2000/svg"><path d="M0 600V10H30V600ZM60 600V10H150V600ZM180 600V10H210V600ZM240 600V10H270V600ZM360 600V10H450V600ZM480 600V10H510V600ZM600 600V10H630V600ZM660 600V10H690V600ZM780 600V10H810V600ZM900 600V10H930V600ZM960 600V10H990V600ZM1020 600V10H1110V600ZM1140 600V10H1170V600ZM1260 600V10H1350V600ZM1380 600V10H1410V600ZM1440 600V10H1470V600ZM1560 600V10H1590V600ZM1620 600V10H1650V600ZM1740 600V10H1770V600ZM1860 600V10H1890V600ZM1920 600V10H1950V600ZM1980 600V10H2070V600ZM2100 600V10H2130V600ZM2220 600V10H2250V600ZM2280 600V10H2370V600ZM2400 600V10H2430V600ZM2520 600V10H2550V600ZM2580 600V10H2610V600ZM2700 600V10H2730V600ZM2820 600V10H2850V600ZM2880 600V10H2970V600ZM3000 600V10H3030V600ZM3060 600V10H3090V600ZM3120 600V10H3210V600ZM3300 600V10H3330V600ZM3360 600V10H3390V600ZM3480 600V10H3510V600ZM3540 600V10H3570V600ZM3660 600V10H3690V600ZM3780 600V10H3810V600ZM3840 600V10H3930V600ZM3960 600V10H3990V600ZM4020 600V10H4110V600ZM4200 600V10H4230V600ZM4260 600V10H4290V600ZM4320 600V10H4350V600ZM4440 600V10H4530V600ZM4560 600V10H4590V600ZM4620 600V10H4710V600ZM4740 600V10H4770V600ZM4800 600V10H4830V600ZM4860 600V10H4950V600ZM4980 600V10H5010V600ZM5100 600V10H5130V600ZM5160 600V10H5250V600ZM5280 600V10H5310V600ZM5400 600V10H5430V600ZM5460 600V10H5490V600ZM5580 600V10H5610V600ZM5700 600V10H5730V600ZM5760 600V10H5850V600ZM5880 600V10H5910V600ZM5940 600V10H5970V600ZM6060 600V10H6090V600ZM6120 600V10H6210V600ZM6240 600V10H6270V600ZM6360 600V10H6390V600ZM6420 600V10H6450V600ZM6540 600V10H6570V600ZM6660 600V10H6690V600ZM6720 600V10H6810V600ZM6840 600V10H6870V600ZM6900 600V10H6930V600ZM6960 600V10H7050V600ZM7140 600V10H7170V600ZM7200 600V10H7230V600ZM7320 600V10H7350V600ZM7380 600V10H7410V600ZM7500 600V10H7530V600ZM7620 600V10H7650V600ZM7680 600V10H7770V600ZM7800 600V10H7890V600ZM7920 600V10H7950V600ZM8040 600V10H8070V600ZM8100 600V10H8130V600ZM8160 600V10H8190V600ZM8280 600V10H8310V600ZM8340 600V10H8370V600ZM8460 600V10H8490V600ZM8580 600V10H8610V600ZM8640 600V10H8730V600ZM8760 600V10H8790V600ZM8820 600V10H8910V600ZM8940 600V10H8970V600ZM9060 600V10H9090V600ZM9120 600V10H9150V600ZM9240 600V10H9270V600ZM9300 600V10H9330V600ZM9420 600V10H9450V600ZM9540 600V10H9570V600ZM9600 600V10H9630V600ZM9660 600V10H9690V600ZM9720 600V10H9810V600ZM9900 600V10H9930V600ZM9960 600V10H10050V600ZM10080 600V10H10110V600ZM10200 600V10H10230V600ZM10260 600V10H10290V600ZM10380 600V10H10410V600ZM10500 600V10H10530V600ZM10560 600V10H10650V600ZM10680 600V10H10710V600ZM10740 600V10H10830V600ZM10920 600V10H10950V600ZM10980 600V10H11010V600ZM11040 600V10H11070V600ZM11160 600V10H11250V600ZM11280 600V10H11310V600ZM11340 600V10H11430V600ZM11460 600V10H11490V600ZM11520 600V10H11610V600ZM11640 600V10H11730V600ZM11820 600V10H11850V600ZM11880 600V10H11910V600ZM11940 600V10H11970V600ZM12000 600V10H12030V600ZM12060 600V10H12150V600ZM12240 600V10H12270V600ZM12300 600V10H12390V600ZM12420 600V10H12450V600ZM12480 600V10H12510V600ZM12600 600V10H12690V600ZM12720 600V10H12750V600ZM12780 600V10H12870V600ZM12900 600V10H12930V600ZM12960 600V10H13050V600ZM13080 600V10H13110V600ZM13140 600V10H13230V600ZM13320 600V10H13350V600ZM13380 600V10H13410V600ZM13440 600V10H13470V600ZM13560 600V10H13590V600ZM13620 600V10H13650V600ZM13740 600V10H13770V600ZM13860 600V10H13890V600ZM13920 600V10H13950V600ZM14040 600V10H14070V600ZM14100 600V10H14190V600ZM14220 600V10H14250V600ZM14280 600V10H14370V600ZM14400 600V10H14430V600ZM14520 600V10H14550V600ZM14580 600V10H14610V600ZM14700 600V10H14730V600ZM14820 600V10H14850V600ZM14880 600V10H14910V600ZM14940 600V10H14970V600ZM15000 600V10H15090V600ZM15120 600V10H15210V600ZM15300 600V10H15330V600ZM15360 600V10H15390V600ZM15480 600V10H15510V600ZM15540 600V10H15570V600ZM15660 600V10H15690V600ZM15780 600V10H15810V600ZM15840 600V10H15930V600ZM15960 600V10H15990V600ZM16020 600V10H16110V600ZM16200 600V10H16230V600ZM16260 600V10H16290V600ZM16320 600V10H16350V600ZM16440 600V10H16470V600ZM16500 600V10H16530V600ZM16620 600V10H16650V600ZM16740 600V10H16770V600ZM16800 600V10H16830V600ZM16860 600V10H16890V600ZM16920 600V10H17010V600ZM17040 600V10H17070V600ZM17160 600V10H17250V600ZM17280 600V10H17310V600ZM17400 600V10H17430V600ZM17460 600V10H17490V600ZM17580 600V10H17610V600ZM17700 600V10H17730V600ZM17760 600V10H17790V600ZM17820 600V10H17850V600ZM17880 600V10H17970V600ZM18060 600V10H18090V600ZM18120 600V10H18210V600ZM18240 600V10H18270V600ZM18360 600V10H18390V600ZM18420 600V10H18450V600ZM18540 600V10H18570V600ZM18660 600V10H18690V600ZM18720 600V10H18810V600ZM18840 600V10H18870V600ZM18900 600V10H18990V600ZM19080 600V10H19110V600ZM19140 600V10H19170V600ZM19200 600V10H19230V600ZM19320 600V10H19350V600ZM19380 600V10H19410V600ZM19500 600V10H19530V600ZM19620 600V10H19650V600ZM19680 600V10H19710V600ZM19740 600V10H19770V600ZM19800 600V10H19890V600ZM19980 600V10H20010V600ZM20040 600V10H20130V600Z" fill="currentColor" /></svg>