<svg viewBox="0 0 10542 2493" xmlns="http://www.w3.org/2000/svg"><path d="M1034 1773Q1087 1773 1087 1818Q1087 1836 1065.5 1850.0Q1044 1864 989 1864H177V449H687V1798H874Q937 1798 982.5 1785.5Q1028 1773 1034 1773ZM1265 454Q1265 391 1329 346Q1397 298 1473.0 298.0Q1549 298 1590.5 313.0Q1632 328 1661 352Q1719 401 1719 466Q1719 531 1653 576Q1587 621 1484.0 621.0Q1381 621 1323.0 575.0Q1265 529 1265 454ZM1274 796H1704V1864H1274ZM3189 1072Q3191 1096 3191 1120V1864H2762V894Q2751 889 2736 889H2704Q2626 889 2522 996Q2490 1029 2461 1069V1864H2031V796H2461V957Q2630 778 2839 778Q3109 778 3172 978Q3258 879 3361.5 828.5Q3465 778 3570 778Q3749 778 3835.0 863.0Q3921 948 3921 1120V1864H3492V893Q3483 889 3447.0 889.0Q3411 889 3380.5 902.5Q3350 916 3318 940Q3248 991 3189 1072ZM5176 1621Q5215 1621 5215 1657Q5215 1684 5180 1721Q5022 1883 4747 1883Q4500 1883 4331 1734Q4156 1579 4156 1342Q4156 1100 4314 944Q4481 778 4758 778Q4980 778 5131 913Q5294 1058 5294 1294Q5294 1328 5292 1366H4632V1795Q4700 1809 4785 1809Q4965 1809 5092 1690Q5118 1664 5129 1649Q5152 1621 5176 1621ZM4909 870Q4844 851 4762.0 851.0Q4680 851 4632 862V1293H4909ZM5548 449H5978V1864H5548ZM6296 454Q6296 391 6360 346Q6428 298 6504.0 298.0Q6580 298 6621.5 313.0Q6663 328 6692 352Q6750 401 6750 466Q6750 531 6684 576Q6618 621 6515.0 621.0Q6412 621 6354.0 575.0Q6296 529 6296 454ZM6305 796H6735V1864H6305ZM7280 1538Q7191 1565 7191 1597Q7191 1628 7243 1640Q7344 1664 7521.0 1668.5Q7698 1673 7787.5 1695.5Q7877 1718 7930 1752Q8026 1815 8026 1919Q8026 2049 7897 2130Q7754 2219 7494 2219Q7225 2219 7050 2139Q6987 2108 6987 2069Q6987 2052 6999.5 2042.0Q7012 2032 7026 2032Q7043 2032 7065 2045Q7116 2074 7159.5 2093.5Q7203 2113 7296.0 2131.0Q7389 2149 7475.5 2149.0Q7562 2149 7616.5 2141.5Q7671 2134 7707 2124Q7778 2103 7778 2077Q7778 2053 7764.0 2042.0Q7750 2031 7727.5 2022.5Q7705 2014 7665 2007Q7583 1993 7442.0 1986.0Q7301 1979 7219.0 1958.5Q7137 1938 7085 1906Q6984 1845 6984 1741Q6984 1591 7187 1498Q7094 1447 7039.0 1363.5Q6984 1280 6984.0 1182.5Q6984 1085 7020.5 1013.5Q7057 942 7123 890Q7262 778 7482 778Q7580 778 7679 808Q7821 671 7942 671Q7993 671 8017.5 688.0Q8042 705 8042 731Q8042 757 8025.0 768.5Q8008 780 7993 780Q7966 780 7947 774Q7919 764 7890 764Q7836 764 7754 839Q7917 919 7967 1069Q7983 1119 7983.0 1191.5Q7983 1264 7941.0 1336.0Q7899 1408 7829 1460Q7683 1568 7486 1568Q7382 1570 7280 1538ZM7490 1495Q7652 1493 7769 1416Q7904 1328 7904.0 1178.0Q7904 1028 7771 936Q7649 852 7490 849ZM9073 778Q9425 778 9425 1120V1864H8995V891Q8977 879 8947.5 879.0Q8918 879 8886.0 893.0Q8854 907 8819 932Q8744 987 8686 1070V1864H8256V449H8686V965Q8857 778 9073 778ZM10163 1883Q9771 1883 9771 1525L9770 869L9655 874Q9601 874 9601.0 833.0Q9601 792 9659 792L9755 796H9770V641L10199 449V796H10333L10428 792Q10487 792 10487 834Q10487 853 10470.5 863.5Q10454 874 10433 874L10309 869H10199V1809Q10316 1807 10394 1742Q10431 1714 10446.5 1670.0Q10462 1626 10474.5 1613.5Q10487 1601 10504 1601Q10521 1601 10533.0 1614.5Q10545 1628 10545.0 1646.5Q10545 1665 10535.0 1687.5Q10525 1710 10505 1735Q10460 1791 10401 1824Q10294 1883 10163 1883Z" fill="currentColor" /></svg>