<svg viewBox="0 0 9613 700" xmlns="http://www.w3.org/2000/svg"><path d="M0 700V0H600V700H0ZM50 650H550V50H50V650ZM800 700V0H1400V700H800ZM850 650H1350V50H850V650ZM1600 700V0H2200V700H1600ZM1650 650H2150V50H1650V650ZM2400 700V0H3000V700H2400ZM2450 650H2950V50H2450V650ZM3200 700V0H3800V700H3200ZM3250 650H3750V50H3250V650ZM4213 700V0H4813V700H4213ZM4263 650H4763V50H4263V650ZM5013 700V0H5613V700H5013ZM5063 650H5563V50H5063V650ZM5813 700V0H6413V700H5813ZM5863 650H6363V50H5863V650ZM6613 700V0H7213V700H6613ZM6663 650H7163V50H6663V650ZM7413 700V0H8013V700H7413ZM7463 650H7963V50H7463V650ZM8213 700V0H8813V700H8213ZM8263 650H8763V50H8263V650ZM9013 700V0H9613V700H9013ZM9063 650H9563V50H9063V650Z" /></svg>