<svg viewBox="0 0 6107 753" xmlns="http://www.w3.org/2000/svg"><path d="M432 666Q434 692 434 706Q434 721 430.5 727.5Q427 734 413.5 736.5Q400 739 369 739L292 740Q271 741 227 741Q189 741 115 739L5 738L0 732Q0 670 4 544Q8 420 8 357Q8 302 6 194Q3 113 3 30L6 24Q29 14 71 14Q103 14 135.5 18.5Q168 23 173 32Q170 64 170 129Q170 203 172 349Q174 495 174 568Q226 568 291 573Q369 577 407 577Q414 577 428 575Q429 577 431.0 580.0Q433 583 433 588Q433 595 431.0 608.0Q429 621 429 627Q429 631 431 639V641ZM423 590V586Q416 587 403 587Q358 587 296 582Q222 578 189 578Q176 578 170 579L164 573Q164 500 162 352Q160 206 160 132Q160 67 163 35Q129 25 89 25Q53 25 13 33Q13 115 16 196Q18 304 18 359Q18 422 14 544Q10 668 10 728L418 727Q425 713 425 694Q425 685 423 667Q421 649 421 642Q419 630 419 620Q419 601 423 590ZM669 213Q710 213 741.0 220.0Q772 227 804 247Q841 270 851.0 319.0Q861 368 861 441Q861 517 857.5 566.5Q854 616 842 665Q830 710 788.0 729.0Q746 748 692 748Q676 748 664.5 747.0Q653 746 646 745L619 743Q583 741 566.0 738.0Q549 735 531.0 723.0Q513 711 487 684Q450 645 450 536V442Q450 366 454 329Q455 318 463 298L470 275Q481 242 524.0 228.0Q567 214 604 214ZM459 475V506Q459 588 476.5 645.0Q494 702 554 723Q569 728 585.5 730.0Q602 732 618 733Q624 733 633.0 733.5Q642 734 654 736Q671 739 693 739Q753 739 784.0 720.5Q815 702 826.5 672.5Q838 643 842 596L844 575Q851 491 851 446Q851 322 818 271Q780 241 750.5 232.0Q721 223 677 223L605 224Q574 224 531.5 235.0Q489 246 480 278L473 300Q465 320 464 331Q459 378 459 475ZM736 490Q736 550 718.5 578.0Q701 606 661 606Q629 606 604.5 591.5Q580 577 580 551L581 520L580 465Q580 407 597 390Q607 377 624.0 370.0Q641 363 659 363Q699 363 717.5 394.0Q736 425 736 490ZM591 525Q591 531 590.0 537.5Q589 544 589 551Q589 572 610.5 584.0Q632 596 660 596Q697 596 711.0 570.5Q725 545 725 488Q725 426 709.0 400.0Q693 374 658 374Q643 374 628.5 380.0Q614 386 604 397Q590 411 590 471ZM1299 536Q1296 609 1296 682Q1296 706 1299 730Q1295 739 1247 739Q1242 739 1228.5 740.5Q1215 742 1205 742Q1162 742 1162 715L1163 579Q1163 534 1159 498Q1157 482 1157 475Q1155 450 1152.0 436.5Q1149 423 1139 410Q1131 410 1108 401Q1070 401 1057.0 425.5Q1044 450 1044 486Q1044 528 1047 570Q1049 626 1049 654Q1049 668 1047 692Q1045 716 1045 729Q1042 735 1024.0 739.0Q1006 743 992 742L912 739Q912 630 909 524Q908 488 907.0 422.0Q906 356 906 306Q906 233 915 229Q923 229 932.0 230.5Q941 232 950 232Q963 232 973 229Q995 225 1022 225Q1045 225 1049 229Q1049 246 1051 278Q1078 258 1111.0 245.0Q1144 232 1174 232Q1230 232 1257.5 251.5Q1285 271 1293.0 304.0Q1301 337 1301 392Q1301 440 1299 536ZM1286 689Q1286 639 1288 539Q1291 462 1291 387Q1291 336 1284.0 306.0Q1277 276 1252.0 259.0Q1227 242 1175 242Q1143 242 1115.0 254.5Q1087 267 1050 290L1042 287Q1041 278 1041 261Q1041 243 1040 235Q1027 235 999 239Q977 244 958 244Q948 244 936.5 242.5Q925 241 920 240Q917 319 917 400Q917 466 919 598Q921 686 921 729Q937 727 949 727Q965 727 975 730Q979 730 998.5 730.0Q1018 730 1035 725L1036 677Q1038 643 1038 627Q1038 598 1035 567Q1034 557 1033.0 541.0Q1032 525 1032 503Q1032 449 1047.0 420.5Q1062 392 1103 392Q1132 392 1139 400Q1161 405 1166.5 449.5Q1172 494 1172 560V622Q1172 642 1171 653L1170 689Q1170 711 1173 729L1224 730Q1260 730 1288 726Q1286 702 1286 689ZM1696 17Q1751 17 1756 28Q1756 119 1760 301Q1764 485 1764 575Q1764 679 1762 731Q1753 740 1662 740Q1639 740 1629.5 737.5Q1620 735 1616 728V716Q1614 712 1614 705L1615 691L1614 689Q1591 735 1536 735Q1419 735 1381.5 651.5Q1344 568 1344 444Q1344 286 1415 245Q1450 225 1521 225Q1553 225 1576.5 228.0Q1600 231 1616 243Q1616 226 1615 213Q1613 171 1613 143Q1613 103 1617 71Q1620 53 1620 30L1625 24Q1653 17 1696 17ZM1630 33Q1629 59 1627.5 100.5Q1626 142 1626 173Q1626 229 1627 257Q1621 259 1618 259Q1604 235 1530 235Q1479 235 1443.5 245.0Q1408 255 1387 287Q1370 314 1361.0 359.0Q1352 404 1352 456Q1352 596 1398.0 660.5Q1444 725 1539 725Q1562 725 1577 716Q1583 713 1595 695Q1597 693 1603.0 685.0Q1609 677 1613 677H1614Q1623 687 1624.5 694.5Q1626 702 1626 719Q1626 729 1656 729L1703 728Q1735 726 1752 726Q1754 675 1754 572Q1754 482 1750 302Q1746 122 1746 32Q1708 28 1686 28Q1652 28 1630 33ZM1633 427Q1633 488 1628.5 525.5Q1624 563 1607.0 587.0Q1590 611 1555 611Q1510 611 1483.0 569.0Q1456 527 1456 473Q1456 441 1465 416Q1471 379 1498.0 360.0Q1525 341 1565 341Q1606 341 1619.5 363.5Q1633 386 1633 427ZM1466 475Q1466 528 1492.0 564.5Q1518 601 1558 601Q1587 601 1601.0 579.5Q1615 558 1618.5 525.0Q1622 492 1622 437Q1622 404 1619.0 387.0Q1616 370 1603.5 359.5Q1591 349 1563 349Q1531 349 1505.0 367.5Q1479 386 1475 417V419Q1466 443 1466 475ZM1822 523Q1819 416 1819 306Q1819 233 1828 229Q1836 229 1845.0 230.5Q1854 232 1863 232Q1870 232 1886 230Q1908 226 1943 226Q1954 226 1960.0 227.0Q1966 228 1968 232V259Q1999 245 2039.0 235.5Q2079 226 2114 226Q2130 226 2140.5 227.5Q2151 229 2154 235L2153 293Q2151 333 2151 353Q2151 382 2154 411L2147 416Q2115 404 2087.5 400.0Q2060 396 2028 396Q1963 396 1963 464Q1963 530 1966 596Q1968 686 1968 729Q1964 739 1928 739Q1907 739 1896 738L1863 737L1824 734Q1824 663 1822 523ZM1959 263Q1957 257 1957 252L1958 236H1933Q1924 240 1906.0 242.0Q1888 244 1871 244Q1861 244 1849.5 242.5Q1838 241 1833 240Q1830 319 1830 400Q1830 466 1832 598Q1834 686 1834 729Q1842 728 1857 728Q1877 728 1887 729L1916 730Q1941 730 1958 725Q1958 684 1956 598Q1954 514 1954 472Q1954 431 1969.5 408.5Q1985 386 2031 386Q2088 386 2143 404Q2140 380 2140 354Q2140 336 2142 296Q2144 258 2144 239Q2089 239 2047.0 245.5Q2005 252 1967 271L1959 266ZM2335 48Q2339 60 2339 94L2338 142Q2338 151 2319.0 155.0Q2300 159 2281 159Q2203 159 2193 148Q2193 127 2191 85Q2188 53 2188 21Q2188 10 2194 6L2330 9L2335 14ZM2325 19 2199 16 2198 34Q2198 62 2201 89Q2203 125 2203 144L2233 146Q2281 149 2285 149Q2318 149 2328 140Q2328 111 2327 96L2326 53Q2324 48 2324 37Q2324 25 2325 19ZM2337 400Q2334 485 2334 571Q2334 657 2338 726Q2338 733 2323.5 736.5Q2309 740 2292 740Q2278 740 2250 738Q2222 736 2212 736Q2198 736 2193 737L2187 731Q2190 697 2190 629L2189 496Q2187 406 2187 361Q2187 339 2188.5 281.5Q2190 224 2193 224V227L2198 221L2265 222Q2311 224 2334 224L2339 229Q2339 286 2337 400ZM2327 402Q2329 290 2329 234Q2307 234 2265 232L2203 231Q2198 290 2198 371Q2198 412 2200 490L2201 610Q2201 667 2198 726Q2212 726 2242 728Q2266 731 2289 731Q2311 731 2328 724Q2324 656 2324 571Q2324 486 2327 402ZM2787 536Q2784 609 2784 682Q2784 706 2787 730Q2783 739 2735 739Q2730 739 2716.5 740.5Q2703 742 2693 742Q2650 742 2650 715L2651 579Q2651 534 2647 498Q2645 482 2645 475Q2643 450 2640.0 436.5Q2637 423 2627 410Q2619 410 2596 401Q2558 401 2545.0 425.5Q2532 450 2532 486Q2532 528 2535 570Q2537 626 2537 654Q2537 668 2535 692Q2533 716 2533 729Q2530 735 2512.0 739.0Q2494 743 2480 742L2400 739Q2400 630 2397 524Q2396 488 2395.0 422.0Q2394 356 2394 306Q2394 233 2403 229Q2411 229 2420.0 230.5Q2429 232 2438 232Q2451 232 2461 229Q2483 225 2510 225Q2533 225 2537 229Q2537 246 2539 278Q2566 258 2599.0 245.0Q2632 232 2662 232Q2718 232 2745.5 251.5Q2773 271 2781.0 304.0Q2789 337 2789 392Q2789 440 2787 536ZM2774 689Q2774 639 2776 539Q2779 462 2779 387Q2779 336 2772.0 306.0Q2765 276 2740.0 259.0Q2715 242 2663 242Q2631 242 2603.0 254.5Q2575 267 2538 290L2530 287Q2529 278 2529 261Q2529 243 2528 235Q2515 235 2487 239Q2465 244 2446 244Q2436 244 2424.5 242.5Q2413 241 2408 240Q2405 319 2405 400Q2405 466 2407 598Q2409 686 2409 729Q2425 727 2437 727Q2453 727 2463 730Q2467 730 2486.5 730.0Q2506 730 2523 725L2524 677Q2526 643 2526 627Q2526 598 2523 567Q2522 557 2521.0 541.0Q2520 525 2520 503Q2520 449 2535.0 420.5Q2550 392 2591 392Q2620 392 2627 400Q2649 405 2654.5 449.5Q2660 494 2660 560V622Q2660 642 2659 653L2658 689Q2658 711 2661 729L2712 730Q2748 730 2776 726Q2774 702 2774 689ZM3263 545 3264 672Q3264 704 3257.0 722.5Q3250 741 3233 741Q3222 741 3213 737H3135Q3127 739 3124 739Q3105 739 3105 711Q3105 703 3107 689Q3080 712 3049.0 725.0Q3018 738 2986 738Q2954 738 2930 726Q2902 712 2878.5 671.0Q2855 630 2841.5 575.5Q2828 521 2828 468Q2828 402 2851.5 348.0Q2875 294 2917.0 262.5Q2959 231 3013 231Q3048 231 3067.0 237.5Q3086 244 3100 263Q3101 256 3102.5 247.0Q3104 238 3104 231L3107 225Q3115 222 3140 222Q3162 222 3208 226Q3235 229 3255 229L3260 234V238Q3263 247 3263 263Q3263 272 3262.0 278.5Q3261 285 3261 290V418Q3261 461 3263 545ZM3251 631Q3254 584 3254 538L3253 390Q3251 290 3251 242Q3250 241 3250 239Q3216 239 3181 236Q3137 234 3114 234Q3114 243 3111 254Q3110 258 3109.0 262.5Q3108 267 3108 274L3109 280Q3109 281 3109.5 281.0Q3110 281 3110 281Q3104 283 3101 283H3100L3099 281Q3085 257 3065.5 249.0Q3046 241 3013 241Q2961 241 2921.5 270.5Q2882 300 2860.5 352.0Q2839 404 2839 467Q2839 530 2855.5 590.5Q2872 651 2905.5 690.0Q2939 729 2986 729Q3019 729 3052.5 713.0Q3086 697 3111 672Q3113 674 3119 676Q3119 681 3117.0 692.5Q3115 704 3115 710Q3115 717 3116.5 721.0Q3118 725 3123 728H3130Q3142 724 3174 724Q3206 724 3218 728H3243L3249 722Q3249 693 3251 631ZM3115 503Q3115 549 3100.0 574.5Q3085 600 3049 600Q3002 600 2976.5 564.5Q2951 529 2951 481Q2951 453 2960 431L2959 432Q2965 399 2993.0 381.5Q3021 364 3057 364Q3085 364 3096.5 372.5Q3108 381 3111.5 408.5Q3115 436 3115 503ZM3104 472 3105 433Q3105 405 3098.5 389.5Q3092 374 3068 374Q3030 374 3002.5 388.0Q2975 402 2969 435Q2961 452 2961 480Q2961 525 2983.5 557.5Q3006 590 3047 590Q3105 590 3105 516ZM3951 286 3950 333 3951 422Q3951 613 3905 677Q3880 712 3823.5 732.5Q3767 753 3706 753Q3622 753 3582.0 720.5Q3542 688 3532.0 643.0Q3522 598 3521 526Q3521 499 3520 487Q3515 403 3515 286Q3515 227 3523.0 181.0Q3531 135 3555 99Q3579 63 3624.5 44.5Q3670 26 3725 26Q3773 26 3820.5 40.5Q3868 55 3897 80Q3915 96 3934 138Q3944 162 3948.0 187.5Q3952 213 3952 245Q3952 272 3951 286ZM3563 104Q3541 137 3533.0 181.0Q3525 225 3525 280Q3525 400 3530 486Q3531 500 3531 529Q3531 575 3534.5 605.5Q3538 636 3551 663Q3568 705 3606.5 723.5Q3645 742 3705 742Q3765 742 3819.0 723.0Q3873 704 3897 671Q3923 635 3932.0 572.0Q3941 509 3941 429L3940 343L3941 296Q3943 264 3943 246Q3943 184 3925 142Q3901 88 3854.0 62.0Q3807 36 3734 36Q3679 36 3632.0 53.5Q3585 71 3563 104ZM3826 371 3825 449Q3823 503 3823 529Q3823 567 3793.0 589.0Q3763 611 3728 611Q3685 611 3663.5 586.0Q3642 561 3635.0 526.0Q3628 491 3625 435L3624 414Q3622 378 3622 357Q3622 282 3649.0 224.0Q3676 166 3738 166Q3769 166 3786.0 181.5Q3803 197 3809.0 219.5Q3815 242 3820 279Q3821 293 3825 314V316ZM3735 175Q3682 175 3657.0 228.5Q3632 282 3632 353Q3632 374 3634.0 399.5Q3636 425 3637 435L3640 464Q3641 471 3641 484Q3643 514 3646.5 533.5Q3650 553 3659 571Q3673 585 3693.0 593.0Q3713 601 3733 601Q3764 601 3788.5 582.0Q3813 563 3813 528Q3813 500 3815 448L3816 371L3815 317Q3812 297 3812 279Q3811 255 3808.0 240.0Q3805 225 3796 210Q3773 175 3735 175ZM4251 687Q4227 710 4192.5 721.0Q4158 732 4130 732Q4058 732 4023 696Q4013 685 4009.0 667.5Q4005 650 4004.0 634.5Q4003 619 4003 614Q4000 569 4000 525Q4000 483 4002 401Q4005 339 4005 276L4004 235Q4014 225 4053 225H4134Q4141 240 4141 265Q4141 314 4140 339L4139 418Q4139 509 4159 549L4164 554Q4167 556 4176.5 559.0Q4186 562 4194 564Q4232 564 4245.5 539.5Q4259 515 4259 477Q4259 448 4258.0 426.5Q4257 405 4256 390Q4253 346 4253 304Q4253 286 4256 270Q4258 248 4258 236L4261 230Q4289 222 4311 222Q4320 222 4338 224Q4354 226 4364 226Q4371 226 4387 224Q4387 224 4392 229Q4392 288 4394 404L4395 580Q4395 680 4393 730Q4390 733 4387.0 734.0Q4384 735 4381 735L4282 739Q4265 739 4260.0 737.5Q4255 736 4253 731V732Q4250 721 4250 708Q4250 694 4251 687ZM4262 703Q4263 712 4263 729Q4276 729 4286.5 728.0Q4297 727 4305 726Q4335 722 4354 722Q4361 722 4368.0 723.5Q4375 725 4383 725Q4385 676 4385 578L4384 406Q4382 292 4382 235Q4364 237 4351 237Q4344 237 4328 235L4307 234Q4284 234 4268 239Q4268 250 4266 272Q4263 288 4263 305Q4263 342 4266 384Q4266 398 4267.5 427.0Q4269 456 4269 479Q4269 518 4254.5 546.0Q4240 574 4202 574Q4177 574 4161 564L4160 563Q4129 549 4129 439L4130 369Q4132 323 4132 298Q4132 266 4129 235H4078Q4035 235 4014 238Q4015 251 4015 277Q4015 327 4014.0 365.0Q4013 403 4012 428Q4009 501 4009 574Q4009 624 4017.0 655.0Q4025 686 4050.0 704.0Q4075 722 4126 722Q4154 722 4175.0 714.0Q4196 706 4224 689Q4230 686 4237.5 681.5Q4245 677 4254 673L4261 678ZM4733 229Q4754 227 4792 225Q4806 240 4806 270Q4806 286 4803 303Q4801 325 4801 335Q4801 345 4802 350L4804 362L4648 360V457Q4648 522 4649 555Q4662 576 4698.0 584.5Q4734 593 4774 593Q4791 593 4798 592Q4810 616 4810 688Q4810 713 4803 734Q4796 738 4773 738Q4680 738 4614.5 721.0Q4549 704 4520 646Q4511 629 4508.0 594.5Q4505 560 4504.5 533.0Q4504 506 4504 500Q4502 446 4502 420Q4502 382 4503 363Q4494 364 4481.5 364.0Q4469 364 4464 364Q4438 364 4431 357V347V304Q4431 235 4440 231Q4451 232 4472 232H4505Q4505 211 4503 163Q4500 125 4500 88Q4500 65 4505.0 52.0Q4510 39 4527 39Q4540 39 4550.5 40.0Q4561 41 4568 42Q4596 46 4611 46Q4627 46 4635 44L4646 42V233Q4675 233 4733 229ZM4614 57Q4600 57 4572 53Q4542 49 4529 49Q4519 49 4516.0 52.5Q4513 56 4513 63L4514 150Q4515 179 4515 237Q4508 244 4486 244Q4474 244 4464.0 243.0Q4454 242 4444 242L4441 353Q4472 353 4514 349Q4512 375 4512 430Q4512 516 4520 584Q4521 591 4522.5 608.5Q4524 626 4528.0 640.0Q4532 654 4540 664Q4591 728 4751 728Q4781 728 4794 727Q4800 707 4800 687Q4800 665 4797.0 638.5Q4794 612 4793 602Q4787 603 4771 603Q4726 603 4681.5 589.5Q4637 576 4637 547L4638 528L4639 439Q4639 389 4638.0 370.0Q4637 351 4638 350H4791Q4789 340 4789 334Q4789 319 4792 303Q4792 298 4793.5 287.0Q4795 276 4795 268Q4795 247 4789 235L4744 238Q4730 239 4695.5 241.0Q4661 243 4635 243V55Q4621 57 4614 57ZM4990 312Q4989 350 4987.0 447.0Q4985 544 4985 622Q4985 675 4991 726Q4991 733 4976.0 736.5Q4961 740 4944 740Q4930 740 4894 738Q4858 736 4838 736L4840 704Q4841 684 4843.0 632.5Q4845 581 4845 542Q4845 484 4841 366Q4837 250 4837 191Q4837 72 4845 1Q4846 0 4848.0 0.5Q4850 1 4851 0L4987 3L4995 4Q4995 140 4990 312ZM4855 10Q4846 85 4846 184Q4846 243 4850 361Q4855 461 4855 540Q4855 623 4850 726L4865 725Q4884 725 4903 728Q4910 729 4919.5 730.0Q4929 731 4942 731Q4965 731 4980 724Q4975 684 4975 627L4976 565Q4977 545 4977 504Q4977 423 4979 259Q4982 136 4982 13ZM5194 48Q5198 60 5198 94L5197 142Q5197 151 5178.0 155.0Q5159 159 5140 159Q5062 159 5052 148Q5052 127 5050 85Q5047 53 5047 21Q5047 10 5053 6L5189 9L5194 14ZM5184 19 5058 16 5057 34Q5057 62 5060 89Q5062 125 5062 144L5092 146Q5140 149 5144 149Q5177 149 5187 140Q5187 111 5186 96L5185 53Q5183 48 5183 37Q5183 25 5184 19ZM5196 400Q5193 485 5193 571Q5193 657 5197 726Q5197 733 5182.5 736.5Q5168 740 5151 740Q5137 740 5109 738Q5081 736 5071 736Q5057 736 5052 737L5046 731Q5049 697 5049 629L5048 496Q5046 406 5046 361Q5046 339 5047.5 281.5Q5049 224 5052 224V227L5057 221L5124 222Q5170 224 5193 224L5198 229Q5198 286 5196 400ZM5186 402Q5188 290 5188 234Q5166 234 5124 232L5062 231Q5057 290 5057 371Q5057 412 5059 490L5060 610Q5060 667 5057 726Q5071 726 5101 728Q5125 731 5148 731Q5170 731 5187 724Q5183 656 5183 571Q5183 486 5186 402ZM5646 536Q5643 609 5643 682Q5643 706 5646 730Q5642 739 5594 739Q5589 739 5575.5 740.5Q5562 742 5552 742Q5509 742 5509 715L5510 579Q5510 534 5506 498Q5504 482 5504 475Q5502 450 5499.0 436.5Q5496 423 5486 410Q5478 410 5455 401Q5417 401 5404.0 425.5Q5391 450 5391 486Q5391 528 5394 570Q5396 626 5396 654Q5396 668 5394 692Q5392 716 5392 729Q5389 735 5371.0 739.0Q5353 743 5339 742L5259 739Q5259 630 5256 524Q5255 488 5254.0 422.0Q5253 356 5253 306Q5253 233 5262 229Q5270 229 5279.0 230.5Q5288 232 5297 232Q5310 232 5320 229Q5342 225 5369 225Q5392 225 5396 229Q5396 246 5398 278Q5425 258 5458.0 245.0Q5491 232 5521 232Q5577 232 5604.5 251.5Q5632 271 5640.0 304.0Q5648 337 5648 392Q5648 440 5646 536ZM5633 689Q5633 639 5635 539Q5638 462 5638 387Q5638 336 5631.0 306.0Q5624 276 5599.0 259.0Q5574 242 5522 242Q5490 242 5462.0 254.5Q5434 267 5397 290L5389 287Q5388 278 5388 261Q5388 243 5387 235Q5374 235 5346 239Q5324 244 5305 244Q5295 244 5283.5 242.5Q5272 241 5267 240Q5264 319 5264 400Q5264 466 5266 598Q5268 686 5268 729Q5284 727 5296 727Q5312 727 5322 730Q5326 730 5345.5 730.0Q5365 730 5382 725L5383 677Q5385 643 5385 627Q5385 598 5382 567Q5381 557 5380.0 541.0Q5379 525 5379 503Q5379 449 5394.0 420.5Q5409 392 5450 392Q5479 392 5486 400Q5508 405 5513.5 449.5Q5519 494 5519 560V622Q5519 642 5518 653L5517 689Q5517 711 5520 729L5571 730Q5607 730 5635 726Q5633 702 5633 689ZM5966 541 5972 535Q5977 536 5989 536Q6000 536 6026 534Q6052 532 6064 532Q6080 532 6089.0 534.0Q6098 536 6102 544Q6098 563 6096 602Q6092 653 6083.0 682.0Q6074 711 6041.5 730.5Q6009 750 5943 750H5905Q5855 750 5819.0 741.5Q5783 733 5759 706Q5689 625 5689 480Q5689 418 5701 348Q5712 281 5769.0 247.0Q5826 213 5899 213Q5934 213 5972.0 221.0Q6010 229 6036 248Q6073 276 6090.0 323.5Q6107 371 6107 426Q6107 450 6104 473Q6087 490 5926 490Q5910 490 5901 491L5868 492Q5848 492 5836 488V499Q5836 550 5852.0 586.0Q5868 622 5908 622Q5966 622 5966 541ZM5834 477Q5843 482 5868 482Q5884 482 5895.0 481.0Q5906 480 5912 480Q6065 480 6094 469Q6096 441 6096 427Q6096 318 6036 261Q6014 239 5976.0 230.5Q5938 222 5896 222Q5842 222 5796.0 242.5Q5750 263 5725 305Q5710 332 5705.0 370.0Q5700 408 5700 454Q5700 534 5713.0 594.0Q5726 654 5766 699Q5788 724 5822.5 732.0Q5857 740 5905 740H5949Q6009 740 6038.5 719.5Q6068 699 6076.0 669.0Q6084 639 6087 591Q6089 559 6091 546Q6080 542 6062 542Q6042 542 6021 545Q5995 547 5986 547L5976 546Q5976 582 5957.0 608.5Q5938 635 5910 635Q5863 635 5844.5 593.5Q5826 552 5826 500V482Q5833 477 5834 477ZM5975 412Q5960 412 5950 408H5895Q5868 411 5859 411Q5827 411 5827 392Q5827 353 5850.0 332.5Q5873 312 5910 312Q5935 312 5955 322Q5996 343 5996 403Q5996 408 5989.5 410.0Q5983 412 5975 412ZM5837 396Q5849 402 5866 402Q5877 402 5885.5 401.0Q5894 400 5900 399Q5917 396 5933 396Q5944 396 5962 398Q5978 400 5986 400Q5986 348 5950 331Q5926 320 5907 320Q5877 320 5857.0 341.0Q5837 362 5837 396Z" fill="currentColor" /></svg>