<svg viewBox="0 0 3709 1000" xmlns="http://www.w3.org/2000/svg"><path d="M75 488Q75 475 75.0 468.5Q75 462 76.0 450.5Q77 439 79.0 432.5Q81 426 85.0 419.0Q89 412 95.5 410.0Q102 408 110 409Q123 411 129.0 422.0Q135 433 135.0 450.5Q135 468 133.5 483.5Q132 499 129.0 515.5Q126 532 126 536L118 702Q119 736 125.5 742.5Q132 749 165 749Q194 749 248.0 752.0Q302 755 336 755Q358 755 368.5 762.0Q379 769 379 789Q380 800 375.0 805.0Q370 810 361.0 810.5Q352 811 343.5 809.5Q335 808 324.0 806.0Q313 804 308 804Q169 800 100 813Q78 817 68.0 797.5Q58 778 66 755Q75 726 77.5 681.0Q80 636 77.5 569.0Q75 502 75 488ZM431 739Q431 681 499.0 595.5Q567 510 620 480Q648 465 658.0 462.5Q668 460 699 465Q761 473 759 548Q757 588 739.0 623.5Q721 659 690.0 685.0Q659 711 624.5 730.5Q590 750 549 765Q549 765 542.5 767.5Q536 770 526.5 774.5Q517 779 506 785Q473 807 452.0 795.5Q431 784 431 739ZM715 551Q713 533 708.5 524.5Q704 516 691 516Q677 516 659.5 526.0Q642 536 617.0 554.0Q592 572 588 575Q559 594 524.0 644.5Q489 695 478 733Q520 736 577.5 708.0Q635 680 677.0 635.0Q719 590 715 551ZM857 504Q857 511 857.5 523.5Q858 536 858.0 541.5Q858 547 859.0 556.5Q860 566 861.5 574.0Q863 582 865 591Q867 590 892.0 562.0Q917 534 935.0 521.0Q953 508 969 508Q980 508 987.5 513.5Q995 519 998.0 524.0Q1001 529 1008 544Q1015 558 1024.5 626.5Q1034 695 1039 708Q1043 735 1142 749Q1137 773 1109.0 788.0Q1081 803 1048.0 799.5Q1015 796 1000 773Q982 745 977 706Q965 594 960 583Q851 659 849 812Q828 810 816.5 796.0Q805 782 803.0 759.5Q801 737 802.0 715.5Q803 694 806.5 665.5Q810 637 810 623Q810 600 803.5 552.0Q797 504 801.0 477.5Q805 451 826 433Q830 439 837.5 450.5Q845 462 848.0 467.0Q851 472 854.0 482.0Q857 492 857 504ZM1233 797Q1204 798 1192.0 781.0Q1180 764 1185 733Q1190 700 1206.5 674.0Q1223 648 1242.5 631.5Q1262 615 1295.0 600.5Q1328 586 1353.5 578.0Q1379 570 1422 560Q1431 560 1445.0 539.0Q1459 518 1469 520Q1480 522 1488.0 531.5Q1496 541 1500.5 551.5Q1505 562 1507.0 581.0Q1509 600 1509.0 611.0Q1509 622 1509 643Q1509 646 1509 647Q1509 682 1504.5 766.5Q1500 851 1504 894Q1505 918 1500.5 937.0Q1496 956 1487.5 969.5Q1479 983 1463.0 992.0Q1447 1001 1431.0 1006.0Q1415 1011 1391.5 1014.0Q1368 1017 1349.5 1017.5Q1331 1018 1304 1018Q1249 1018 1214.5 1005.5Q1180 993 1172 958Q1173 941 1195.0 926.0Q1217 911 1243.5 902.5Q1270 894 1296 890L1240 946Q1284 965 1334.5 962.5Q1385 960 1422 938Q1447 923 1455.0 875.0Q1463 827 1459.0 782.0Q1455 737 1445 694Q1434 700 1386.0 733.5Q1338 767 1305.0 781.0Q1272 795 1233 797ZM1445 615Q1376 599 1306.5 640.5Q1237 682 1224 741Q1270 748 1319.0 731.5Q1368 715 1403.0 682.5Q1438 650 1445 615ZM2471 662Q2454 691 2429.0 703.5Q2404 716 2352 731Q2347 732 2344 733Q2323 739 2260.0 760.0Q2197 781 2162 789Q2120 798 2096.0 777.0Q2072 756 2068.5 719.5Q2065 683 2073.5 643.0Q2082 603 2099 575Q2124 534 2168.5 488.5Q2213 443 2249 425Q2255 423 2270.0 414.5Q2285 406 2295.5 401.5Q2306 397 2315 397Q2329 397 2335.0 410.0Q2341 423 2333 434Q2329 441 2325.5 445.0Q2322 449 2315.0 453.5Q2308 458 2304.5 460.0Q2301 462 2287.5 468.0Q2274 474 2267 478Q2236 492 2213.5 511.5Q2191 531 2166 560Q2157 570 2150.5 579.5Q2144 589 2140.0 595.5Q2136 602 2132.0 612.5Q2128 623 2126.0 627.5Q2124 632 2119.5 646.5Q2115 661 2113 668Q2109 680 2107.5 692.5Q2106 705 2107.5 716.5Q2109 728 2117.0 734.5Q2125 741 2139 741Q2177 741 2222.5 725.5Q2268 710 2302.5 693.0Q2337 676 2383.0 665.5Q2429 655 2471 662ZM2758 496Q2679 523 2624 580Q2606 597 2591.5 586.5Q2577 576 2577 554Q2577 537 2595.5 520.5Q2614 504 2635.0 493.5Q2656 483 2686.0 469.5Q2716 456 2726 451Q2750 437 2762.5 432.0Q2775 427 2790.5 426.5Q2806 426 2823 434Q2835 439 2844 456Q2900 556 2900 647Q2900 657 2919.5 704.5Q2939 752 2939 765Q2939 780 2930.5 796.0Q2922 812 2910 812Q2895 811 2885.0 802.5Q2875 794 2870.5 784.5Q2866 775 2860 757Q2846 762 2813.0 776.0Q2780 790 2761.5 796.5Q2743 803 2715.5 812.5Q2688 822 2664.5 826.0Q2641 830 2618 830Q2541 830 2512 773Q2507 757 2506.5 744.5Q2506 732 2515.5 718.5Q2525 705 2535.0 695.5Q2545 686 2560.5 676.0Q2576 666 2588.5 659.0Q2601 652 2615 647Q2685 615 2815 602Q2829 600 2836 599Q2837 568 2830.0 542.0Q2823 516 2804.0 501.5Q2785 487 2758 496ZM2852 702Q2830 669 2783.5 659.5Q2737 650 2691.5 661.5Q2646 673 2609.0 699.0Q2572 725 2567 757Q2608 768 2646.0 768.5Q2684 769 2723.5 758.0Q2763 747 2794.0 733.5Q2825 720 2852 702ZM3057 504Q3057 511 3057.5 523.5Q3058 536 3058.0 541.5Q3058 547 3059.0 556.5Q3060 566 3061.5 574.0Q3063 582 3065 591Q3067 590 3092.0 562.0Q3117 534 3135.0 521.0Q3153 508 3169 508Q3180 508 3187.5 513.5Q3195 519 3198.0 524.0Q3201 529 3208 544Q3215 558 3224.5 626.5Q3234 695 3239 708Q3243 735 3342 749Q3337 773 3309.0 788.0Q3281 803 3248.0 799.5Q3215 796 3200 773Q3182 745 3177 706Q3165 594 3160 583Q3051 659 3049 812Q3028 810 3016.5 796.0Q3005 782 3003.0 759.5Q3001 737 3002.0 715.5Q3003 694 3006.5 665.5Q3010 637 3010 623Q3010 600 3003.5 552.0Q2997 504 3001.0 477.5Q3005 451 3026 433Q3030 439 3037.5 450.5Q3045 462 3048.0 467.0Q3051 472 3054.0 482.0Q3057 492 3057 504ZM3433 797Q3404 798 3392.0 781.0Q3380 764 3385 733Q3390 700 3406.5 674.0Q3423 648 3442.5 631.5Q3462 615 3495.0 600.5Q3528 586 3553.5 578.0Q3579 570 3622 560Q3631 560 3645.0 539.0Q3659 518 3669 520Q3680 522 3688.0 531.5Q3696 541 3700.5 551.5Q3705 562 3707.0 581.0Q3709 600 3709.0 611.0Q3709 622 3709 643Q3709 646 3709 647Q3709 682 3704.5 766.5Q3700 851 3704 894Q3705 918 3700.5 937.0Q3696 956 3687.5 969.5Q3679 983 3663.0 992.0Q3647 1001 3631.0 1006.0Q3615 1011 3591.5 1014.0Q3568 1017 3549.5 1017.5Q3531 1018 3504 1018Q3449 1018 3414.5 1005.5Q3380 993 3372 958Q3373 941 3395.0 926.0Q3417 911 3443.5 902.5Q3470 894 3496 890L3440 946Q3484 965 3534.5 962.5Q3585 960 3622 938Q3647 923 3655.0 875.0Q3663 827 3659.0 782.0Q3655 737 3645 694Q3634 700 3586.0 733.5Q3538 767 3505.0 781.0Q3472 795 3433 797ZM3645 615Q3576 599 3506.5 640.5Q3437 682 3424 741Q3470 748 3519.0 731.5Q3568 715 3603.0 682.5Q3638 650 3645 615Z" fill="currentColor" /></svg>