<svg viewBox="0 0 11584 2649" xmlns="http://www.w3.org/2000/svg"><path d="M174 0 229 43 186 236 194 646V852Q194 1178 139 1586V1598L166 1627H415L553 1586L581 1627Q581 1751 67 1751Q12 1751 12 1696H0Q110 1409 110 852L104 56Q118 0 174 0ZM979 652Q1108 652 1159 1022L1145 1039V1121Q1110 1758 924 1758L909 1770H895Q688 1723 688 1244Q688 652 979 652ZM772 1176Q803 1659 895 1659H909Q1026 1659 1061 1162V967Q1061 781 938 762Q772 811 772 1176ZM1698 666Q1724 672 1753 736Q1710 820 1503 1633Q1450 1743 1393 1760Q1311 1760 1311 1373L1255 791Q1274 709 1337 709L1378 764L1366 875Q1372 1522 1434 1522Q1614 973 1614 820L1600 709Q1651 666 1698 666ZM2059 576Q2280 641 2280 797V838Q2280 1147 2003 1266H1909V1295Q1909 1543 2032 1641H2075Q2153 1641 2296 1420L2308 1432H2323Q2224 1751 2046 1751Q1884 1751 1782 1184Q1760 1184 1755 1115Q1811 1072 1854 756Q1960 576 2059 576ZM1893 1088Q1905 1156 1936 1156H2020Q2186 1078 2186 838V824Q2165 687 2059 687Q1893 687 1893 1088ZM2898 205Q2976 205 2994 273L2966 371Q3000 1774 3029 1741L2984 1774Q2927 1749 2923 1749L2910 1172L2898 1158H2884Q2800 1739 2634 1739H2607Q2441 1739 2441 1407Q2441 1166 2677 936Q2871 891 2871 785V592L2843 273Q2869 211 2898 205ZM2552 1352V1489Q2552 1596 2622 1629H2634Q2716 1629 2828 1020L2816 1006H2761Q2552 1133 2552 1352ZM4197 76 4266 119 4252 242 4307 932H4322Q4442 766 4528 766H4571Q4737 908 4737 1059Q4643 1518 4406 1749L4389 1762Q4334 1749 4334 1694H4307Q4205 1694 4197 1651V1639L4223 1528Q4223 584 4129 146Q4129 109 4197 76ZM4350 1639 4363 1651Q4492 1575 4598 1225L4627 1115Q4627 877 4500 877Q4369 877 4350 1639ZM5288 709H5331L5387 764Q5360 820 5360 916V1014L5344 1373L5360 1387V1401L5344 1538Q5344 2548 5249 2548H5194L5139 2479Q5221 2415 5221 2216Q5262 1837 5262 1151H5249Q5229 1158 5055 1608Q4995 1663 4930 1678Q4807 1678 4807 1262Q4807 932 4930 861L4973 875V930Q4901 1016 4901 1192V1276Q4901 1524 4957 1524H4973Q5233 1082 5233 793ZM6667 82 6698 80 6704 179V193Q6704 510 6745 510L6880 465Q6894 494 6907 525Q6882 547 6896 553L6730 635L6759 1354V1409Q6755 1612 6730 1735L6665 1731L6661 1516V1174V1022Q6661 664 6620 664L6493 674L6448 656L6452 623L6476 617H6503Q6634 598 6634 525L6605 111L6620 99ZM6984 84H7025L7066 125V140L7039 250V347L7066 1039L7080 1080H7107Q7199 734 7384 734Q7517 734 7537 1495L7564 1647L7523 1717Q7451 1717 7439 1577V1481Q7439 859 7328 859Q7158 924 7121 1522Q7130 1717 7150 1717Q7121 1778 7095 1784H7052Q6984 1745 6984 1674L7011 1606Q6953 181 6900 181Q6923 119 6984 84ZM7933 576Q8154 641 8154 797V838Q8154 1147 7877 1266H7783V1295Q7783 1543 7906 1641H7949Q8027 1641 8170 1420L8182 1432H8197Q8098 1751 7920 1751Q7758 1751 7656 1184Q7634 1184 7629 1115Q7685 1072 7728 756Q7834 576 7933 576ZM7767 1088Q7779 1156 7810 1156H7894Q8060 1078 8060 838V824Q8039 687 7933 687Q7767 687 7767 1088ZM9491 45Q9536 60 9547 101L9518 308V1026H9559Q9891 445 9891 226Q9950 170 10001 170L10057 240Q9960 373 9614 1125V1166Q9733 1678 9934 1678V1733L9864 1745Q9698 1745 9532 1262H9518L9448 1856L9436 1870H9381Q9346 1870 9338 1815Q9387 1815 9436 848L9422 86ZM10167 441Q10220 441 10265 496Q10265 537 10167 592Q10130 592 10099 525Q10126 449 10167 441ZM10167 801 10210 857Q10155 912 10155 1160Q10161 1422 10236 1670V1698L10196 1741H10155Q10089 1741 10056 1090Q10056 801 10140 801ZM10657 517H10669Q10833 517 10863 1137V1387L10878 1538L10863 1594L10878 1719L10835 1745Q10767 1727 10767 1649V1192Q10767 709 10669 668H10657Q10509 744 10476 1276V1663L10491 1719Q10462 1801 10435 1801Q10366 1801 10351 1745L10366 1373L10325 750V668L10380 613Q10435 633 10435 654L10421 861L10435 875H10462Q10462 672 10657 517ZM11515 617H11541L11584 658V727Q11486 912 11486 1184L11503 1999Q11503 2622 11308 2622Q11308 2649 11238 2649Q11072 2614 11072 2497V2483H11099Q11191 2552 11253 2552Q11404 2552 11404 2096V1420L11392 1321H11363Q11259 1708 11060 1708H11044Q10997 1702 10950 1502Q10950 1086 11210 768L11419 687Q11419 617 11515 617ZM11060 1336V1557Q11060 1598 11115 1598Q11228 1598 11392 934V811Q11156 811 11072 1225Z" /></svg>