<svg viewBox="0 0 3483 1127" xmlns="http://www.w3.org/2000/svg"><path d="M521 780Q423 780 259 665Q208 743 132 743Q118 743 102 740Q50 731 22.0 701.0Q-6 671 -6 637Q-6 608 15.0 588.0Q36 568 74 568Q85 568 101 570Q139 578 210 613Q223 586 233 555Q167 558 129.5 533.0Q92 508 92 463Q92 437 105 411Q70 358 70 294Q70 188 147 150Q165 141 183 141Q227 141 255 184Q288 234 288 323Q288 392 266 480Q283 480 301 475Q317 394 334.5 335.5Q352 277 372 241Q427 141 480 141Q510 141 528.5 173.5Q547 206 547 254Q547 314 520.0 369.5Q493 425 441 470Q383 520 309 543Q299 576 289.0 601.5Q279 627 269 646Q293 660 316.0 672.0Q339 684 362 695Q424 723 472.5 738.5Q521 754 558 754Q612 754 626 713Q629 705 634 705Q638 705 635 714Q620 753 576 770Q552 780 521 780ZM253 480Q272 394 272 325Q272 236 244 190Q220 149 182 149Q144 149 116 186Q86 227 86 284Q86 339 114 395Q130 369 157 350Q161 348 164 348Q168 348 165 351Q133 377 122 411Q166 477 253 480ZM315 523Q406 498 466 412Q526 327 526 230Q526 179 505 168Q501 165 495 165Q476 165 449 202Q407 259 363 379Q358 393 351.0 413.5Q344 434 335 462Q392 434 427 363Q427 360 430 360Q438 360 434 366Q396 443 332 473L323 500Q321 507 319.0 512.5Q317 518 315 523ZM238 536Q242 525 245.0 513.0Q248 501 251 488Q169 487 119 429Q115 477 153 508Q188 536 238 536ZM251 536Q270 535 290 530L299 484Q284 488 264 488Q261 501 258.0 513.0Q255 525 251 536ZM253 636Q258 627 266 604Q274 582 285 547L265 551Q255 553 245 554Q238 574 232.0 589.5Q226 605 219 618ZM114 730H123Q204 730 243 655L231 648Q226 647 220.5 644.0Q215 641 208 637Q163 711 105 708Q101 708 100 704L104 700Q159 703 199 633Q174 622 155.0 614.5Q136 607 123 605Q109 603 97 603Q63 603 44.5 619.5Q26 636 26 659Q26 683 46 703Q67 725 105 729ZM518 738Q493 738 477.0 715.0Q461 692 461 656Q461 627 471 597Q508 485 562 480Q568 473 579 473Q599 473 618.5 491.0Q638 509 640 529Q653 545 678 545Q686 545 702 543Q718 541 726 541Q730 541 728 546Q727 550 718 555Q700 564 673 566H661Q644 566 636 562Q641 600 600 671Q563 738 518 738ZM524 718Q550 718 580 671Q588 658 595.5 642.0Q603 626 608 606Q618 572 616 557Q579 551 573 514Q546 522 521 583Q498 640 498 675Q498 718 524 718ZM721 728Q687 728 687 695Q687 669 706 612Q722 558 721 548Q716 528 707 525Q698 522 719 492Q722 487 736 487Q769 487 769 498Q769 515 750 590Q731 663 731 687Q731 705 743 705Q771 705 822 644Q879 575 883 535Q861 512 861 483Q861 456 878 456Q901 456 901 500Q901 520 899 530Q913 538 925 538Q939 538 948 529Q954 531 954 535Q954 546 941 550Q932 553 923 553Q908 553 896 544Q896 558 879 592Q869 611 857.5 627.0Q846 643 833 657Q768 728 721 728ZM992 738Q962 738 942.0 719.5Q922 701 922 656Q922 644 924 630Q933 579 966 533Q1007 477 1051 477Q1074 477 1094.0 489.5Q1114 502 1114 526Q1114 553 1092 582H1112Q1117 582 1118 583Q1118 589 1081 596Q1059 621 1048 621Q1046 621 1046 619Q1046 620 1061 599Q1048 599 1026.5 600.5Q1005 602 975 606Q964 636 964 662Q964 695 982 710Q993 720 1009 720Q1012 720 1015.0 720.0Q1018 720 1021 719Q1085 708 1145 645Q1150 638 1153 643Q1154 644 1154 646Q1154 650 1148 656Q1127 683 1082 709Q1032 738 992 738ZM985 585Q999 584 1021 584L1071 583Q1082 561 1085 548Q1088 535 1088 527Q1088 506 1072 506Q1052 506 1028 530Q1014 544 1003.0 557.5Q992 571 985 585ZM1154 728Q1144 728 1145 718Q1148 705 1152.0 678.5Q1156 652 1161 610Q1163 591 1165.0 575.5Q1167 560 1168 547L1171 510Q1172 499 1184.5 491.0Q1197 483 1210 483Q1228 483 1223 498L1209 550Q1204 564 1200.0 579.0Q1196 594 1191 610Q1216 567 1251 529Q1290 489 1309 489Q1333 489 1343 516Q1354 542 1344 542Q1342 542 1337 534Q1328 516 1312 516Q1272 516 1213 605Q1180 655 1163 720Q1161 728 1154 728ZM1312 753Q1274 753 1274 737Q1274 718 1306 716Q1348 714 1410 706Q1418 693 1418 683Q1418 667 1395 647Q1340 599 1340 555Q1340 540 1347 527Q1381 469 1431 469Q1452 469 1467.0 480.0Q1482 491 1482 504Q1482 508 1480.5 511.5Q1479 515 1477 515Q1475 515 1472 509Q1470 492 1453 492Q1428 492 1401 519Q1375 547 1375 572Q1375 594 1404 629Q1433 663 1433 680Q1433 688 1428 700Q1441 694 1460.5 683.0Q1480 672 1507 656Q1510 658 1484 681L1420 719Q1412 733 1378 743Q1347 753 1312 753ZM2022 782Q1976 782 1930 753Q1902 758 1878 758Q1796 758 1755 718Q1718 682 1718 618Q1718 576 1734 529Q1716 495 1716 458Q1716 366 1818 295Q1849 225 1911 186Q1966 149 2024 149Q2111 149 2135 221Q2142 240 2141 261Q2235 313 2235 420Q2235 524 2162 613Q2163 618 2163.0 622.5Q2163 627 2163 632Q2163 673 2145 708Q2120 756 2066 775Q2046 782 2022 782ZM1838 282Q1923 233 2030 233Q2085 233 2133 257Q2133 239 2127 222Q2104 157 2024 157Q1971 157 1924 188Q1869 223 1838 282ZM1910 720Q1974 708 2036.5 669.5Q2099 631 2142 574Q2128 538 2095.0 511.5Q2062 485 2026 485Q1981 485 1955 532Q1955 534 1953 534Q1944 534 1948 528Q1976 476 2026 476Q2062 476 2097.0 502.5Q2132 529 2149 564Q2201 491 2201 407Q2201 324 2138 279Q2130 313 2105.0 337.0Q2080 361 2046 362Q2042 362 2042 358Q2042 354 2046 354Q2077 353 2100.5 330.0Q2124 307 2131 274Q2088 246 2030 246Q1903 246 1821 322Q1814 342 1810.0 362.5Q1806 383 1804 406Q1903 292 2012 292Q2025 292 2025 298Q2025 305 2011 305Q1962 305 1904 345Q1875 365 1850.0 390.0Q1825 415 1802 446L1804 481Q1816 632 1910 720ZM1743 504Q1758 465 1788 426Q1789 383 1800 344Q1778 370 1764 399Q1742 442 1742 490Q1742 499 1743 504ZM1874 724H1883Q1887 724 1892 723Q1797 628 1788 467Q1738 546 1738 610Q1738 664 1773.0 696.0Q1808 728 1874 724ZM2027 774Q2047 774 2064 767Q2110 751 2133 710Q2154 673 2152 625Q2069 721 1949 750Q1988 774 2027 774ZM2205 1035Q2181 1035 2159 1029Q2088 1009 1984 917Q1867 812 1821 789Q1800 779 1779 779Q1760 779 1744 789Q1715 809 1715 847Q1715 907 1779 923Q1791 926 1791 931Q1791 935 1783 935L1773 933Q1696 907 1696 848Q1696 816 1722.0 792.5Q1748 769 1788 769Q1808 769 1834 777Q1860 785 1889.5 803.0Q1919 821 1951 847L2065 941Q2135 992 2205 1010Q2223 1015 2237 1015Q2282 1015 2303 985Q2308 980 2311 979Q2314 978 2314 981Q2314 983 2311 987Q2276 1035 2205 1035ZM2273 730Q2235 725 2235 677Q2235 603 2308 494Q2313 486 2333 486Q2364 486 2364 496L2363 498Q2351 510 2337.5 529.0Q2324 548 2310 574Q2286 617 2273 655Q2266 673 2266 688Q2266 708 2279 708Q2294 708 2316 686Q2324 678 2396 575Q2411 555 2420 555Q2427 555 2427 572Q2427 581 2426.5 589.5Q2426 598 2426 606Q2426 709 2467 709Q2494 709 2528 674L2546 655Q2549 653 2552 659Q2548 670 2517 696Q2478 729 2446 729Q2437 729 2428 726Q2401 717 2391 663Q2384 623 2385 613Q2379 624 2346 671Q2299 734 2273 730ZM2548 730Q2516 725 2516 685Q2516 624 2572 550Q2630 472 2692 472Q2713 472 2730.5 481.5Q2748 491 2748 511Q2748 534 2729 537Q2735 527 2735 517Q2735 495 2710 495Q2686 495 2658 519Q2589 578 2557 656Q2547 680 2547 696Q2547 709 2556 709Q2566 709 2591 686Q2608 670 2665 589Q2680 568 2689 568Q2697 568 2697 610V666Q2706 710 2728 710Q2740 710 2757.5 701.5Q2775 693 2792 674L2810 655Q2813 654 2817 659Q2813 670 2782 696Q2743 729 2710 729Q2701 729 2692 726Q2666 717 2658 670Q2656 657 2654.5 648.0Q2653 639 2653 633Q2653 630 2653 628Q2647 640 2618 678Q2575 734 2548 730ZM2786 728Q2776 728 2777 718Q2780 705 2784.0 678.5Q2788 652 2793 610Q2795 591 2797.0 575.5Q2799 560 2800 547L2803 510Q2804 499 2816.5 491.0Q2829 483 2842 483Q2860 483 2855 498L2841 550Q2836 564 2832.0 579.0Q2828 594 2823 610Q2848 567 2883 529Q2922 489 2941 489Q2965 489 2975 516Q2986 542 2976 542Q2974 542 2969 534Q2960 516 2944 516Q2904 516 2845 605Q2812 655 2795 720Q2793 728 2786 728ZM2951 728Q2941 728 2942 718Q2945 705 2949.0 678.5Q2953 652 2958 610Q2960 591 2962.0 575.5Q2964 560 2965 547L2968 510Q2969 499 2981.5 491.0Q2994 483 3007 483Q3025 483 3020 498L3006 550Q3001 564 2997.0 579.0Q2993 594 2988 610Q3013 567 3048 529Q3087 489 3106 489Q3130 489 3140 516Q3151 542 3141 542Q3139 542 3134 534Q3125 516 3109 516Q3069 516 3010 605Q2977 655 2960 720Q2958 728 2951 728ZM3179 738Q3149 738 3129.0 719.5Q3109 701 3109 656Q3109 644 3111 630Q3120 579 3153 533Q3194 477 3238 477Q3261 477 3281.0 489.5Q3301 502 3301 526Q3301 553 3279 582H3299Q3304 582 3305 583Q3305 589 3268 596Q3246 621 3235 621Q3233 621 3233 619Q3233 620 3248 599Q3235 599 3213.5 600.5Q3192 602 3162 606Q3151 636 3151 662Q3151 695 3169 710Q3180 720 3196 720Q3199 720 3202.0 720.0Q3205 720 3208 719Q3272 708 3332 645Q3337 638 3340 643Q3341 644 3341 646Q3341 650 3335 656Q3314 683 3269 709Q3219 738 3179 738ZM3172 585Q3186 584 3208 584L3258 583Q3269 561 3272 548Q3275 535 3275 527Q3275 506 3259 506Q3239 506 3215 530Q3201 544 3190.0 557.5Q3179 571 3172 585ZM3395 731Q3345 731 3345 661Q3345 632 3354 588H3351Q3344 588 3344 583Q3344 575 3362 555Q3421 306 3520 223Q3542 205 3566 205Q3599 205 3599 239Q3599 313 3528 407Q3488 457 3400 545Q3377 623 3377 669Q3377 713 3407 713Q3430 713 3462 695Q3494 677 3512 654Q3519 645 3523 645Q3525 645 3525 649Q3525 660 3519 667Q3501 688 3464 708Q3421 731 3395 731ZM3403 523Q3457 473 3512 397Q3582 300 3584 247V244Q3584 220 3570 220Q3553 220 3531 248Q3517 265 3499.0 296.5Q3481 328 3459 376Q3439 420 3425.0 456.5Q3411 493 3403 523Z" fill="currentColor" /></svg>