<svg viewBox="0 0 11362 2540" xmlns="http://www.w3.org/2000/svg"><path d="M1185 1660Q1139 1708 1073.5 1756.5Q1008 1805 935.0 1837.5Q862 1870 793 1870H0Q73 1814 109.5 1755.0Q146 1696 164 1606L400 435H192Q207 425 241.5 400.5Q276 376 317.0 349.0Q358 322 392.0 303.0Q426 284 439 284H942Q905 295 859.0 332.0Q813 369 769.5 402.0Q726 435 695 435H614L450 1254Q436 1323 422.5 1393.0Q409 1463 393 1532Q380 1586 344.5 1638.0Q309 1690 262 1721H970Q1025 1721 1082.0 1706.0Q1139 1691 1185 1660ZM2584 1719Q2530 1737 2495.0 1765.5Q2460 1794 2427.5 1822.0Q2395 1850 2351.0 1869.0Q2307 1888 2234 1888Q2141 1888 2141 1791Q2141 1771 2144.0 1750.5Q2147 1730 2151 1710Q2050 1775 1929.5 1834.0Q1809 1893 1685 1893Q1614 1893 1573.5 1859.0Q1533 1825 1516.5 1770.5Q1500 1716 1500 1655Q1500 1618 1504.5 1582.0Q1509 1546 1516 1511L1595 1114Q1599 1097 1601.0 1079.0Q1603 1061 1603 1044Q1603 941 1504 941Q1461 941 1423 959Q1470 923 1524.5 883.5Q1579 844 1638.5 816.5Q1698 789 1760 789Q1812 789 1833.0 819.0Q1854 849 1854 897Q1854 944 1843.0 989.5Q1832 1035 1823 1080Q1805 1167 1785.5 1254.0Q1766 1341 1749 1428Q1744 1457 1740.0 1486.5Q1736 1516 1736 1545Q1736 1654 1795.5 1697.5Q1855 1741 1958 1741Q2015 1741 2065.5 1711.5Q2116 1682 2162 1653L2279 1071Q2284 1042 2284 1020Q2284 990 2271.5 968.5Q2259 947 2224 947Q2211 947 2197.5 950.5Q2184 954 2172 959Q2206 933 2258.0 894.5Q2310 856 2365.5 827.0Q2421 798 2464 798Q2498 798 2513.0 818.5Q2528 839 2528 870Q2528 886 2524 904L2384 1604Q2379 1629 2379 1649Q2379 1700 2410.0 1717.5Q2441 1735 2487 1735Q2512 1735 2536.0 1730.5Q2560 1726 2584 1719ZM4010 776Q3998 808 3953.0 839.5Q3908 871 3856.5 894.5Q3805 918 3773 927Q3790 972 3790 1028Q3790 1137 3744.5 1220.0Q3699 1303 3627.0 1366.5Q3555 1430 3474.0 1479.5Q3393 1529 3321.0 1569.5Q3249 1610 3203.5 1646.0Q3158 1682 3158 1721Q3158 1759 3198.5 1790.0Q3239 1821 3302.5 1849.5Q3366 1878 3437.5 1907.0Q3509 1936 3572.5 1970.0Q3636 2004 3676.5 2047.0Q3717 2090 3717 2147Q3717 2206 3671.5 2258.5Q3626 2311 3551.0 2354.5Q3476 2398 3386.0 2432.5Q3296 2467 3205.5 2491.0Q3115 2515 3038.0 2527.5Q2961 2540 2914 2540Q2876 2540 2815.0 2534.0Q2754 2528 2693.0 2510.5Q2632 2493 2590.5 2460.0Q2549 2427 2549 2374Q2549 2307 2602.5 2248.5Q2656 2190 2734.5 2141.5Q2813 2093 2891.5 2054.5Q2970 2016 3020 1990Q2987 1975 2951.0 1947.0Q2915 1919 2915 1878Q2915 1843 2946.0 1807.5Q2977 1772 3022.5 1738.5Q3068 1705 3112.0 1678.0Q3156 1651 3183 1635Q3160 1642 3136.0 1646.5Q3112 1651 3088 1651Q2973 1651 2912.5 1572.5Q2852 1494 2852 1387Q2852 1288 2899.0 1198.5Q2946 1109 3025.0 1034.5Q3104 960 3200.5 906.0Q3297 852 3398.0 822.0Q3499 792 3588 792Q3668 792 3748.0 795.0Q3828 798 3908 798Q3934 798 3960.0 792.0Q3986 786 4010 776ZM3324 943Q3233 943 3182.0 982.0Q3131 1021 3110.0 1087.0Q3089 1153 3089 1234Q3089 1352 3148.5 1427.0Q3208 1502 3334 1502Q3390 1502 3430.0 1467.5Q3470 1433 3495.5 1380.0Q3521 1327 3533.5 1270.0Q3546 1213 3546 1167Q3546 1061 3489.0 1002.0Q3432 943 3324 943ZM3063 2008Q3034 2020 2990.0 2041.5Q2946 2063 2901.5 2092.0Q2857 2121 2827.5 2155.0Q2798 2189 2798 2226Q2798 2257 2832.5 2282.0Q2867 2307 2920.0 2327.0Q2973 2347 3031.5 2361.0Q3090 2375 3138.5 2382.0Q3187 2389 3211 2389Q3243 2389 3288.0 2385.0Q3333 2381 3376.5 2368.0Q3420 2355 3449.5 2329.0Q3479 2303 3479 2259Q3479 2209 3429.5 2168.0Q3380 2127 3309.5 2096.0Q3239 2065 3170.5 2043.0Q3102 2021 3063 2008ZM5259 798Q5213 856 5145.0 900.5Q5077 945 4999.5 970.0Q4922 995 4849 995Q4805 995 4767.0 977.5Q4729 960 4690.5 942.5Q4652 925 4609 925Q4566 925 4533.0 973.0Q4500 1021 4475.0 1095.0Q4450 1169 4432.0 1250.5Q4414 1332 4402.0 1401.0Q4390 1470 4383 1505Q4375 1544 4364.5 1583.5Q4354 1623 4354 1664Q4354 1696 4367.5 1720.0Q4381 1744 4418 1744Q4442 1744 4471 1732Q4422 1767 4386.0 1804.5Q4350 1842 4308.0 1867.5Q4266 1893 4197 1893Q4163 1893 4136.0 1871.5Q4109 1850 4109 1814Q4109 1805 4111 1796Q4145 1625 4181.5 1454.0Q4218 1283 4251 1112Q4255 1092 4258.5 1071.5Q4262 1051 4262 1031Q4262 979 4233.5 961.0Q4205 943 4157 943Q4113 943 4066 958Q4062 960 4059 961Q4059 961 4066 958Q4118 940 4152.0 912.5Q4186 885 4218.5 857.0Q4251 829 4294.5 810.5Q4338 792 4408 792Q4503 792 4503 883Q4503 901 4501.5 918.0Q4500 935 4497 952Q4553 919 4625.5 877.0Q4698 835 4773.5 804.5Q4849 774 4914 774Q4960 774 4998.0 791.5Q5036 809 5069.5 826.5Q5103 844 5135 844Q5165 844 5199.5 828.5Q5234 813 5259 798ZM6111 1640Q6111 1693 6139.0 1715.0Q6167 1737 6219 1737Q6253 1737 6285 1730Q6242 1763 6191.5 1800.0Q6141 1837 6086.5 1862.5Q6032 1888 5974 1888Q5926 1888 5895.5 1871.0Q5865 1854 5865 1800Q5865 1781 5867.5 1762.5Q5870 1744 5874 1726Q5820 1761 5761.0 1800.0Q5702 1839 5639.0 1866.0Q5576 1893 5508 1893Q5357 1893 5278.5 1809.5Q5200 1726 5200 1577Q5200 1425 5265.0 1282.5Q5330 1140 5441.5 1026.0Q5553 912 5694.5 845.0Q5836 778 5988 778Q6061 778 6129.5 800.0Q6198 822 6267 841L6120 1565Q6116 1583 6113.5 1602.0Q6111 1621 6111 1640ZM6004 1085Q5939 925 5767 925Q5679 925 5616.5 982.5Q5554 1040 5514.5 1127.5Q5475 1215 5456.5 1307.5Q5438 1400 5438 1469Q5438 1603 5503.5 1673.5Q5569 1744 5705 1744Q5732 1744 5774.5 1727.5Q5817 1711 5853.0 1685.5Q5889 1660 5895 1631ZM7016 1015Q7022 1010 7028 1006Q7043 991 7043 977Q7043 956 7012.0 946.0Q6981 936 6944.5 932.5Q6908 929 6893 929Q6830 929 6793.5 958.0Q6757 987 6757 1054Q6757 1109 6790.0 1141.5Q6823 1174 6875.0 1194.0Q6927 1214 6985.5 1231.0Q7044 1248 7096.0 1270.5Q7148 1293 7181.5 1330.0Q7215 1367 7215 1429Q7215 1506 7168.5 1576.0Q7122 1646 7047.5 1704.5Q6973 1763 6884.5 1806.5Q6796 1850 6710.0 1873.5Q6624 1897 6558 1897Q6531 1897 6481.0 1888.5Q6431 1880 6390.0 1859.5Q6349 1839 6349 1803Q6349 1771 6382.0 1742.0Q6415 1713 6461.5 1688.0Q6508 1663 6552.5 1641.0Q6597 1619 6619 1599Q6608 1610 6599.5 1625.5Q6591 1641 6591 1657Q6591 1685 6618.5 1702.5Q6646 1720 6686.0 1729.0Q6726 1738 6764.0 1741.0Q6802 1744 6822 1744Q6891 1744 6930.5 1705.0Q6970 1666 6970 1597Q6970 1540 6937.0 1503.0Q6904 1466 6852.5 1442.0Q6801 1418 6743.0 1398.5Q6685 1379 6633.5 1356.0Q6582 1333 6549.0 1300.0Q6516 1267 6516 1214Q6516 1153 6562.0 1091.0Q6608 1029 6680.5 973.0Q6753 917 6836.5 873.5Q6920 830 6998.0 805.0Q7076 780 7130 780Q7150 780 7184.5 783.0Q7219 786 7249.5 797.0Q7280 808 7286 832Q7278 858 7255.0 872.0Q7232 886 7210 898Q7163 923 7117.0 948.5Q7071 974 7028 1006Q7022 1012 7016 1015ZM8177 0Q8172 30 8165.5 75.0Q8159 120 8149.5 165.0Q8140 210 8126 239Q8123 245 8090.5 266.0Q8058 287 8014.5 313.0Q7971 339 7933.5 360.5Q7896 382 7884 390L7931 151ZM7858 1647Q7858 1706 7895.5 1723.5Q7933 1741 7984 1741Q8021 1741 8055 1735Q8010 1767 7959.5 1803.0Q7909 1839 7854.0 1864.5Q7799 1890 7742 1890Q7685 1890 7650.5 1868.0Q7616 1846 7616 1784Q7616 1767 7618.0 1750.5Q7620 1734 7624 1717L7730 1193Q7734 1172 7737.5 1151.0Q7741 1130 7741 1109Q7741 1072 7724.5 1048.0Q7708 1024 7667 1024Q7642 1024 7617.5 1028.5Q7593 1033 7569 1038Q7683 966 7797.0 892.5Q7911 819 8033 762L7864 1597Q7858 1625 7858 1647ZM10105 1721Q10058 1754 10004.0 1792.5Q9950 1831 9892.0 1858.5Q9834 1886 9774 1886Q9669 1886 9669 1781Q9669 1747 9675.5 1713.5Q9682 1680 9689 1647Q9709 1543 9731.0 1439.5Q9753 1336 9773 1232Q9778 1207 9781.5 1182.0Q9785 1157 9785 1132Q9785 1035 9730.5 994.5Q9676 954 9584 954Q9499 954 9437.5 997.5Q9376 1041 9338.0 1109.5Q9300 1178 9285 1254L9222 1568Q9219 1586 9216.5 1603.5Q9214 1621 9214 1639Q9214 1737 9315 1737Q9337 1737 9359.5 1732.5Q9382 1728 9404 1721Q9357 1754 9303.0 1792.5Q9249 1831 9191.0 1858.5Q9133 1886 9073 1886Q8971 1886 8971 1781Q8971 1747 8977.5 1713.5Q8984 1680 8991 1647Q9011 1543 9033.0 1439.5Q9055 1336 9075 1232Q9080 1207 9083.5 1182.0Q9087 1157 9087 1131Q9087 1038 9037.0 996.0Q8987 954 8896 954Q8807 954 8747.0 1008.5Q8687 1063 8651.0 1142.5Q8615 1222 8600 1297L8532 1638Q8529 1654 8529 1668Q8529 1699 8543.5 1721.5Q8558 1744 8592 1744Q8606 1744 8619.0 1740.5Q8632 1737 8645 1732Q8611 1757 8557.5 1795.0Q8504 1833 8448.0 1863.0Q8392 1893 8350 1893Q8318 1893 8301.0 1873.5Q8284 1854 8284 1823Q8284 1810 8287 1796L8432 1087Q8435 1073 8437.0 1059.5Q8439 1046 8439 1032Q8439 979 8409.0 961.0Q8379 943 8331 943Q8307 943 8282.5 948.0Q8258 953 8235 961Q8289 941 8325.5 913.0Q8362 885 8395.5 857.0Q8429 829 8472.5 810.5Q8516 792 8584 792Q8680 792 8680 885Q8680 911 8674.5 936.0Q8669 961 8663 986Q8725 950 8814.0 906.5Q8903 863 8995.0 832.0Q9087 801 9159 801Q9230 801 9286.5 841.5Q9343 882 9343 959Q9343 974 9340 988Q9389 962 9455.0 930.0Q9521 898 9593.0 868.5Q9665 839 9734.0 820.0Q9803 801 9858 801Q9939 801 9989.0 847.5Q10039 894 10039 977Q10039 1000 10034 1024L9922 1586Q9918 1603 9915.5 1620.0Q9913 1637 9913 1654Q9913 1703 9940.5 1720.0Q9968 1737 10014 1737Q10037 1737 10060.0 1732.0Q10083 1727 10105 1721ZM10596 1888Q10493 1888 10415.5 1839.0Q10338 1790 10295.0 1707.5Q10252 1625 10252 1525Q10252 1420 10298.5 1314.0Q10345 1208 10425.0 1112.0Q10505 1016 10605.0 940.5Q10705 865 10813.5 821.5Q10922 778 11024 778Q11128 778 11203.5 826.5Q11279 875 11320.5 957.0Q11362 1039 11362 1139Q11362 1243 11316.0 1349.5Q11270 1456 11191.5 1552.5Q11113 1649 11014.0 1724.5Q10915 1800 10807.5 1844.0Q10700 1888 10596 1888ZM10775 927Q10701 927 10649.0 970.5Q10597 1014 10564.0 1081.5Q10531 1149 10516.0 1222.5Q10501 1296 10501 1355Q10501 1460 10538.0 1547.5Q10575 1635 10650.0 1688.0Q10725 1741 10838 1741Q10911 1741 10963.5 1696.5Q11016 1652 11049.0 1584.0Q11082 1516 11097.5 1442.0Q11113 1368 11113 1309Q11113 1204 11075.5 1117.5Q11038 1031 10963.0 979.0Q10888 927 10775 927Z" fill="currentColor" /></svg>