<svg viewBox="0 0 9352 1180" xmlns="http://www.w3.org/2000/svg"><path d="M505 975V927H162V222H66V975ZM983 222 844 508 705 222H609L795 607L613 982H708L843 705L977 982H1073L891 606L1078 222ZM1181 628Q1181 734 1213.5 812.5Q1246 891 1306.0 933.5Q1366 976 1447 976Q1556 976 1613.0 896.5Q1670 817 1664 674H1384V722H1569Q1565 819 1532.5 873.5Q1500 928 1447 928Q1398 928 1359.5 890.0Q1321 852 1299.0 784.0Q1277 716 1277 628Q1277 544 1301.0 463.0Q1325 382 1362.0 331.5Q1399 281 1436 281Q1464 281 1494.0 307.5Q1524 334 1546.0 376.0Q1568 418 1572 461L1668 457Q1662 400 1627.5 348.0Q1593 296 1541.5 264.5Q1490 233 1436 233Q1363 233 1305.0 286.0Q1247 339 1214.0 430.0Q1181 521 1181 628ZM2210 711 2118 265 2024 264 1925 704 1845 215 1751 223 1871 955 1964 957 2069 491 2169 978 2263 977 2383 223 2289 215ZM3025 681 2829 222H2733V982H2829V447L3025 906L3221 447V982H3317V222H3221ZM3771 722Q3769 775 3750.0 822.0Q3731 869 3694.5 898.5Q3658 928 3608 928Q3585 928 3565.0 902.0Q3545 876 3532.5 830.5Q3520 785 3520.0 731.0Q3520 677 3535.5 630.0Q3551 583 3575.5 554.5Q3600 526 3627 526Q3683 526 3719.0 564.5Q3755 603 3766 663Q3767 685 3771 722ZM3818 989 3910 975Q3879 855 3867 720Q3867 692 3863 669Q3862 666 3862 659H3861Q3843 580 3783.0 529.0Q3723 478 3627 478Q3568 478 3521.5 511.0Q3475 544 3449.5 601.5Q3424 659 3424 731Q3424 843 3473.0 909.5Q3522 976 3608 976Q3667 976 3715.0 955.5Q3763 935 3797 899Q3806 945 3818 989ZM4410 527Q4375 505 4333.0 492.5Q4291 480 4252 480Q4172 480 4114 526V472H4018V982H4114V748Q4114 686 4132.0 636.0Q4150 586 4182.0 557.0Q4214 528 4252 528Q4276 528 4300.0 537.0Q4324 546 4360 567ZM4903 472 4617 702V222H4521V982H4617V787L4646 764L4899 982H5004L4701 720L5008 472ZM5446 689H5173Q5182 617 5218.5 571.5Q5255 526 5306 526Q5365 526 5403.0 569.5Q5441 613 5446 689ZM5541 737Q5546 660 5518.0 601.5Q5490 543 5435.0 510.5Q5380 478 5306 478Q5239 478 5186.5 510.0Q5134 542 5104.5 598.5Q5075 655 5075 728Q5075 846 5139.5 911.0Q5204 976 5320 976Q5389 976 5442.0 947.5Q5495 919 5520 868L5434 848Q5412 892 5387.0 910.0Q5362 928 5320 928Q5249 928 5210.5 879.5Q5172 831 5171 737ZM6046 527Q6011 505 5969.0 492.5Q5927 480 5888 480Q5808 480 5750 526V472H5654V982H5750V748Q5750 686 5768.0 636.0Q5786 586 5818.0 557.0Q5850 528 5888 528Q5912 528 5936.0 537.0Q5960 546 5996 567ZM6349 628Q6349 734 6381.5 812.5Q6414 891 6474.0 933.5Q6534 976 6615 976Q6724 976 6781.0 896.5Q6838 817 6832 674H6552V722H6737Q6733 819 6700.5 873.5Q6668 928 6615 928Q6566 928 6527.5 890.0Q6489 852 6467.0 784.0Q6445 716 6445 628Q6445 544 6469.0 463.0Q6493 382 6530.0 331.5Q6567 281 6604 281Q6632 281 6662.0 307.5Q6692 334 6714.0 376.0Q6736 418 6740 461L6836 457Q6830 400 6795.5 348.0Q6761 296 6709.5 264.5Q6658 233 6604 233Q6531 233 6473.0 286.0Q6415 339 6382.0 430.0Q6349 521 6349 628ZM7150 526Q7190 526 7221.5 557.0Q7253 588 7270.0 635.5Q7287 683 7287.0 732.0Q7287 781 7272.5 826.0Q7258 871 7230.0 899.5Q7202 928 7163 928Q7095 928 7059.5 876.5Q7024 825 7024 727Q7024 672 7041.0 625.5Q7058 579 7087.0 552.5Q7116 526 7150 526ZM6928 727Q6928 846 6989.5 911.0Q7051 976 7163 976Q7232 976 7281.5 942.0Q7331 908 7357.0 852.0Q7383 796 7383.0 732.0Q7383 668 7354.5 609.5Q7326 551 7272.5 514.5Q7219 478 7150 478Q7086 478 7035.5 510.0Q6985 542 6956.5 599.0Q6928 656 6928 727ZM7694 478V222H7598V478H7459V526H7598V982H7694V526H7833V478ZM8380 982Q8380 746 8365.5 646.0Q8351 546 8306.0 512.0Q8261 478 8155 478Q8087 478 8036 501V222H7940V982H8036V634Q8036 581 8066.0 553.5Q8096 526 8155 526Q8217 526 8242.0 553.0Q8267 580 8275.5 670.0Q8284 760 8284 982ZM8655 982V472H8559V982ZM8655 389V262H8559V389ZM8808 728Q8808 846 8872.5 911.0Q8937 976 9053 976Q9147 976 9206.5 926.5Q9266 877 9280 785L9186 777Q9174 854 9141.5 891.0Q9109 928 9053 928Q8980 928 8942.0 877.0Q8904 826 8904 728Q8904 670 8921.5 624.0Q8939 578 8970.0 552.0Q9001 526 9039 526Q9094 526 9131.5 561.5Q9169 597 9180 660L9274 652Q9265 602 9232.0 562.5Q9199 523 9148.5 500.5Q9098 478 9039 478Q8972 478 8919.5 510.0Q8867 542 8837.5 598.5Q8808 655 8808 728Z" fill="currentColor" /></svg>