<svg viewBox="0 0 9214 774" xmlns="http://www.w3.org/2000/svg"><path d="M439 760V712H96V7H0V760ZM917 7 778 293 639 7H543L729 392L547 767H642L777 490L911 767H1007L825 391L1012 7ZM1115 413Q1115 519 1147.5 597.5Q1180 676 1240.0 718.5Q1300 761 1381 761Q1490 761 1547.0 681.5Q1604 602 1598 459H1318V507H1503Q1499 604 1466.5 658.5Q1434 713 1381 713Q1332 713 1293.5 675.0Q1255 637 1233.0 569.0Q1211 501 1211 413Q1211 329 1235.0 248.0Q1259 167 1296.0 116.5Q1333 66 1370 66Q1398 66 1428.0 92.5Q1458 119 1480.0 161.0Q1502 203 1506 246L1602 242Q1596 185 1561.5 133.0Q1527 81 1475.5 49.5Q1424 18 1370 18Q1297 18 1239.0 71.0Q1181 124 1148.0 215.0Q1115 306 1115 413ZM2144 496 2052 50 1958 49 1859 489 1779 0 1685 8 1805 740 1898 742 2003 276 2103 763 2197 762 2317 8 2223 0ZM2959 466 2763 7H2667V767H2763V232L2959 691L3155 232V767H3251V7H3155ZM3705 507Q3703 560 3684.0 607.0Q3665 654 3628.5 683.5Q3592 713 3542 713Q3519 713 3499.0 687.0Q3479 661 3466.5 615.5Q3454 570 3454.0 516.0Q3454 462 3469.5 415.0Q3485 368 3509.5 339.5Q3534 311 3561 311Q3617 311 3653.0 349.5Q3689 388 3700 448Q3701 470 3705 507ZM3752 774 3844 760Q3813 640 3801 505Q3801 477 3797 454Q3796 451 3796 444H3795Q3777 365 3717.0 314.0Q3657 263 3561 263Q3502 263 3455.5 296.0Q3409 329 3383.5 386.5Q3358 444 3358 516Q3358 628 3407.0 694.5Q3456 761 3542 761Q3601 761 3649.0 740.5Q3697 720 3731 684Q3740 730 3752 774ZM4344 312Q4309 290 4267.0 277.5Q4225 265 4186 265Q4106 265 4048 311V257H3952V767H4048V533Q4048 471 4066.0 421.0Q4084 371 4116.0 342.0Q4148 313 4186 313Q4210 313 4234.0 322.0Q4258 331 4294 352ZM4837 257 4551 487V7H4455V767H4551V572L4580 549L4833 767H4938L4635 505L4942 257ZM5380 474H5107Q5116 402 5152.5 356.5Q5189 311 5240 311Q5299 311 5337.0 354.5Q5375 398 5380 474ZM5475 522Q5480 445 5452.0 386.5Q5424 328 5369.0 295.5Q5314 263 5240 263Q5173 263 5120.5 295.0Q5068 327 5038.5 383.5Q5009 440 5009 513Q5009 631 5073.5 696.0Q5138 761 5254 761Q5323 761 5376.0 732.5Q5429 704 5454 653L5368 633Q5346 677 5321.0 695.0Q5296 713 5254 713Q5183 713 5144.5 664.5Q5106 616 5105 522ZM5980 312Q5945 290 5903.0 277.5Q5861 265 5822 265Q5742 265 5684 311V257H5588V767H5684V533Q5684 471 5702.0 421.0Q5720 371 5752.0 342.0Q5784 313 5822 313Q5846 313 5870.0 322.0Q5894 331 5930 352ZM6283 413Q6283 519 6315.5 597.5Q6348 676 6408.0 718.5Q6468 761 6549 761Q6658 761 6715.0 681.5Q6772 602 6766 459H6486V507H6671Q6667 604 6634.5 658.5Q6602 713 6549 713Q6500 713 6461.5 675.0Q6423 637 6401.0 569.0Q6379 501 6379 413Q6379 329 6403.0 248.0Q6427 167 6464.0 116.5Q6501 66 6538 66Q6566 66 6596.0 92.5Q6626 119 6648.0 161.0Q6670 203 6674 246L6770 242Q6764 185 6729.5 133.0Q6695 81 6643.5 49.5Q6592 18 6538 18Q6465 18 6407.0 71.0Q6349 124 6316.0 215.0Q6283 306 6283 413ZM7084 311Q7124 311 7155.5 342.0Q7187 373 7204.0 420.5Q7221 468 7221.0 517.0Q7221 566 7206.5 611.0Q7192 656 7164.0 684.5Q7136 713 7097 713Q7029 713 6993.5 661.5Q6958 610 6958 512Q6958 457 6975.0 410.5Q6992 364 7021.0 337.5Q7050 311 7084 311ZM6862 512Q6862 631 6923.5 696.0Q6985 761 7097 761Q7166 761 7215.5 727.0Q7265 693 7291.0 637.0Q7317 581 7317.0 517.0Q7317 453 7288.5 394.5Q7260 336 7206.5 299.5Q7153 263 7084 263Q7020 263 6969.5 295.0Q6919 327 6890.5 384.0Q6862 441 6862 512ZM7628 263V7H7532V263H7393V311H7532V767H7628V311H7767V263ZM8314 767Q8314 531 8299.5 431.0Q8285 331 8240.0 297.0Q8195 263 8089 263Q8021 263 7970 286V7H7874V767H7970V419Q7970 366 8000.0 338.5Q8030 311 8089 311Q8151 311 8176.0 338.0Q8201 365 8209.5 455.0Q8218 545 8218 767ZM8589 767V257H8493V767ZM8589 174V47H8493V174ZM8742 513Q8742 631 8806.5 696.0Q8871 761 8987 761Q9081 761 9140.5 711.5Q9200 662 9214 570L9120 562Q9108 639 9075.5 676.0Q9043 713 8987 713Q8914 713 8876.0 662.0Q8838 611 8838 513Q8838 455 8855.5 409.0Q8873 363 8904.0 337.0Q8935 311 8973 311Q9028 311 9065.5 346.5Q9103 382 9114 445L9208 437Q9199 387 9166.0 347.5Q9133 308 9082.5 285.5Q9032 263 8973 263Q8906 263 8853.5 295.0Q8801 327 8771.5 383.5Q8742 440 8742 513Z" fill="currentColor" /></svg>