<svg viewBox="0 0 9135 1180" xmlns="http://www.w3.org/2000/svg"><path d="M763 274 751 275Q762 585 774 720Q777 753 802.0 785.0Q827 817 827.0 839.5Q827 862 813.5 878.0Q800 894 777.5 894.0Q755 894 739.5 866.5Q724 839 721 807Q697 474 661 302Q570 348 483 461Q562 586 562.0 673.5Q562 761 503.0 824.5Q444 888 393.0 888.0Q342 888 314.5 855.0Q287 822 287.0 773.5Q287 725 319.5 650.5Q352 576 405 495Q359 426 299.0 373.0Q239 320 182 300Q182 303 174 356Q139 575 126 932Q121 1093 118.5 1119.0Q116 1145 102.0 1159.5Q88 1174 69.5 1174.0Q51 1174 35.5 1159.5Q20 1145 20.0 1112.5Q20 1080 47 920Q103 588 107 287Q66 278 66 236Q66 217 84.0 204.5Q102 192 128 192Q205 192 294.5 257.5Q384 323 456 422Q532 321 613.0 256.5Q694 192 763 192Q810 192 810 230Q810 248 794.5 261.0Q779 274 763 274ZM483 709Q483 633 430 537Q349 667 349 733Q349 769 367.5 796.0Q386 823 414.0 823.0Q442 823 462.5 787.5Q483 752 483 709ZM1304 894Q1263 894 1231 809L1223 787Q1172 894 1070 894Q1019 894 985.5 861.5Q952 829 952 780Q952 704 1004.0 649.0Q1056 594 1140 590Q1120 555 1095.5 537.5Q1071 520 1051.0 517.0Q1031 514 1013.5 513.5Q996 513 986.0 506.0Q976 499 976.0 478.5Q976 458 992.5 445.0Q1009 432 1032 432Q1097 432 1160.0 497.0Q1223 562 1270 701L1289 754Q1296 772 1318.5 802.5Q1341 833 1341.0 852.0Q1341 871 1331.0 882.5Q1321 894 1304 894ZM1197 732Q1197 707 1188.0 685.5Q1179 664 1177 659Q1151 643 1115.0 643.0Q1079 643 1050.5 667.0Q1022 691 1022.0 729.0Q1022 767 1047.5 792.5Q1073 818 1109.0 818.0Q1145 818 1171.0 792.5Q1197 767 1197 732ZM1606 510Q1540 510 1498.5 555.5Q1457 601 1457.0 664.0Q1457 727 1500.5 771.0Q1544 815 1607 815Q1663 815 1708 774Q1724 760 1732.0 760.0Q1740 760 1746.0 766.0Q1752 772 1752 779Q1752 808 1695.5 851.0Q1639 894 1567.5 894.0Q1496 894 1443.5 836.0Q1391 778 1391 692Q1391 582 1474.0 507.0Q1557 432 1657 432Q1699 432 1725.5 446.5Q1752 461 1752.0 483.5Q1752 506 1738.5 520.0Q1725 534 1712.0 534.0Q1699 534 1667.5 522.0Q1636 510 1606 510ZM1897.5 555.0Q1853 599 1853.0 663.0Q1853 727 1897.5 771.5Q1942 816 2005.5 816.0Q2069 816 2112.0 771.5Q2155 727 2155.0 663.0Q2155 599 2112.0 555.0Q2069 511 2005.5 511.0Q1942 511 1897.5 555.0ZM1937.0 894.0Q1873 894 1830.0 844.0Q1787 794 1787.0 718.5Q1787 643 1834.0 572.5Q1881 502 1944.0 467.0Q2007 432 2071.0 432.0Q2135 432 2178.0 482.0Q2221 532 2221.0 607.5Q2221 683 2174.0 753.5Q2127 824 2064.0 859.0Q2001 894 1937.0 894.0ZM2389 602 2395 846Q2395 867 2383.0 880.5Q2371 894 2352.0 894.0Q2333 894 2319.5 880.5Q2306 867 2306 846L2313 648Q2313 648 2306 481Q2306 460 2319.5 446.0Q2333 432 2352.0 432.0Q2371 432 2383.0 445.5Q2395 459 2395.0 479.0Q2395 499 2394 509Q2450 432 2523 432Q2628 432 2658 573L2696 745Q2702 768 2720.5 794.5Q2739 821 2739 842Q2739 894 2689.0 894.0Q2639 894 2624 815L2586 606Q2567 506 2483 506Q2440 506 2416.0 535.0Q2392 564 2389 602ZM3165 469Q3164 394 3158.0 304.5Q3152 215 3152.0 192.0Q3152 169 3164.0 153.5Q3176 138 3195.0 138.0Q3214 138 3227.5 154.5Q3241 171 3241.0 198.5Q3241 226 3232.5 326.5Q3224 427 3224.0 515.0Q3224 603 3231.0 667.5Q3238 732 3246 755Q3269 816 3269 837Q3269 894 3225 894Q3172 894 3163 781Q3123 834 3067.0 864.0Q3011 894 2948.0 894.0Q2885 894 2842.0 844.0Q2799 794 2799.0 728.5Q2799 663 2825.0 606.0Q2851 549 2891.0 512.0Q2931 475 2977.5 453.5Q3024 432 3073.5 432.0Q3123 432 3165 469ZM2909.5 555.0Q2865 599 2865.0 663.0Q2865 727 2909.5 771.5Q2954 816 3017.5 816.0Q3081 816 3124.0 771.5Q3167 727 3167.0 659.0Q3167 591 3128.0 551.0Q3089 511 3021.5 511.0Q2954 511 2909.5 555.0ZM3454.5 555.0Q3410 599 3410.0 663.0Q3410 727 3454.5 771.5Q3499 816 3562.5 816.0Q3626 816 3669.0 771.5Q3712 727 3712.0 663.0Q3712 599 3669.0 555.0Q3626 511 3562.5 511.0Q3499 511 3454.5 555.0ZM3494.0 894.0Q3430 894 3387.0 844.0Q3344 794 3344.0 718.5Q3344 643 3391.0 572.5Q3438 502 3501.0 467.0Q3564 432 3628.0 432.0Q3692 432 3735.0 482.0Q3778 532 3778.0 607.5Q3778 683 3731.0 753.5Q3684 824 3621.0 859.0Q3558 894 3494.0 894.0ZM4498 321Q4441 252 4381 252Q4334 252 4302.0 284.0Q4270 316 4270.0 360.0Q4270 404 4295.5 433.0Q4321 462 4359.0 481.0Q4397 500 4441.0 525.5Q4485 551 4523.0 578.5Q4561 606 4586.5 653.5Q4612 701 4612.0 770.0Q4612 839 4585.0 907.0Q4558 975 4514.0 1024.0Q4470 1073 4413 1108Q4299 1178 4176 1178Q4093 1178 4031.5 1137.0Q3970 1096 3970.0 1044.0Q3970 992 4019 992Q4038 992 4096 1045Q4118 1065 4156.5 1081.5Q4195 1098 4242.5 1098.0Q4290 1098 4342.0 1080.0Q4394 1062 4439.5 1028.5Q4485 995 4513.0 939.5Q4541 884 4541.0 815.5Q4541 747 4505.0 699.0Q4469 651 4418.0 624.0Q4367 597 4316.0 571.5Q4265 546 4229.0 506.0Q4193 466 4193.0 408.5Q4193 351 4218.5 306.0Q4244 261 4283 238Q4357 192 4430.0 192.0Q4503 192 4549.0 226.0Q4595 260 4595 304Q4595 330 4582.0 343.5Q4569 357 4552.0 357.0Q4535 357 4523.5 347.5Q4512 338 4498 321ZM4825 894Q4807 894 4793.5 878.5Q4780 863 4773 841Q4711 639 4664 539Q4645 496 4645.0 476.0Q4645 456 4656.0 444.0Q4667 432 4684 432Q4710 432 4726.5 471.0Q4743 510 4787.5 630.5Q4832 751 4841.0 779.5Q4850 808 4853 816L4856 826Q4884 807 4919.5 747.0Q4955 687 4968 628Q4949 577 4931.0 536.5Q4913 496 4913.0 476.0Q4913 456 4924.0 444.0Q4935 432 4952 432Q4978 432 4994.5 471.0Q5011 510 5055.5 630.5Q5100 751 5109.0 779.5Q5118 808 5121 816L5124 826Q5160 802 5201.5 721.5Q5243 641 5243 576Q5243 554 5231.0 523.5Q5219 493 5219.0 476.0Q5219 459 5232.5 445.5Q5246 432 5269.0 432.0Q5292 432 5306.5 454.0Q5321 476 5321.0 528.0Q5321 580 5286.5 669.0Q5252 758 5197.0 826.0Q5142 894 5093 894Q5059 894 5041 841Q5037 830 5023 786L4998 713Q4961 790 4914.0 842.0Q4867 894 4825 894ZM5738 894Q5697 894 5665 809L5657 787Q5606 894 5504 894Q5453 894 5419.5 861.5Q5386 829 5386 780Q5386 704 5438.0 649.0Q5490 594 5574 590Q5554 555 5529.5 537.5Q5505 520 5485.0 517.0Q5465 514 5447.5 513.5Q5430 513 5420.0 506.0Q5410 499 5410.0 478.5Q5410 458 5426.5 445.0Q5443 432 5466 432Q5531 432 5594.0 497.0Q5657 562 5704 701L5723 754Q5730 772 5752.5 802.5Q5775 833 5775.0 852.0Q5775 871 5765.0 882.5Q5755 894 5738 894ZM5631 732Q5631 707 5622.0 685.5Q5613 664 5611 659Q5585 643 5549.0 643.0Q5513 643 5484.5 667.0Q5456 691 5456.0 729.0Q5456 767 5481.5 792.5Q5507 818 5543.0 818.0Q5579 818 5605.0 792.5Q5631 767 5631 732ZM5857 585Q5857 531 5926.0 481.5Q5995 432 6078 432Q6118 432 6139.5 446.5Q6161 461 6161.0 484.0Q6161 507 6147.5 520.5Q6134 534 6120.5 534.0Q6107 534 6076.0 522.0Q6045 510 6011.5 510.0Q5978 510 5953.5 524.0Q5929 538 5929.0 558.0Q5929 578 5967.5 593.0Q6006 608 6052.0 617.0Q6098 626 6136.5 652.5Q6175 679 6175 721Q6175 786 6099.0 840.0Q6023 894 5935 894Q5898 894 5875.0 879.0Q5852 864 5852.0 841.5Q5852 819 5865.5 805.5Q5879 792 5892.5 792.0Q5906 792 5937.0 804.0Q5968 816 6001.5 816.0Q6035 816 6069.0 798.5Q6103 781 6103.0 755.5Q6103 730 6077.5 716.0Q6052 702 6016.0 693.5Q5980 685 5944.0 674.0Q5908 663 5882.5 640.5Q5857 618 5857 585ZM6621 866Q6610 845 6604 815L6560 606Q6550 560 6528.5 533.0Q6507 506 6462.5 506.0Q6418 506 6393.5 536.5Q6369 567 6368 603Q6376 840 6376.0 853.5Q6376 867 6364.0 880.5Q6352 894 6333.0 894.0Q6314 894 6300.5 880.5Q6287 867 6287.0 836.0Q6287 805 6292.0 688.5Q6297 572 6297.0 508.0Q6297 444 6292.0 336.0Q6287 228 6287.0 197.0Q6287 166 6300.5 152.0Q6314 138 6333.0 138.0Q6352 138 6364.0 151.5Q6376 165 6376.0 195.5Q6376 226 6371.5 337.5Q6367 449 6367 520Q6426 432 6503 432Q6608 432 6638 573L6676 745Q6682 774 6702.5 796.5Q6723 819 6723.0 842.0Q6723 865 6707.0 879.5Q6691 894 6672.0 894.0Q6653 894 6641.0 887.0Q6629 880 6621 866ZM7545 450 7587 459Q7619 459 7619.0 412.5Q7619 366 7559.5 313.0Q7500 260 7409 260Q7295 260 7230.0 331.5Q7165 403 7165.0 525.5Q7165 648 7237.0 737.0Q7309 826 7421.0 826.0Q7533 826 7621 720Q7640 696 7650.0 696.0Q7660 696 7665.5 702.5Q7671 709 7671.0 722.0Q7671 735 7650.5 763.5Q7630 792 7595.5 821.5Q7561 851 7505.5 872.5Q7450 894 7390 894Q7258 894 7170.5 800.0Q7083 706 7083.0 557.5Q7083 409 7183.5 300.5Q7284 192 7434 192Q7539 192 7606.5 246.5Q7674 301 7674 384Q7674 450 7633.5 493.5Q7593 537 7548 537Q7524 537 7512.5 524.0Q7501 511 7501.0 494.0Q7501 477 7514.5 463.5Q7528 450 7545 450ZM8111 894Q8070 894 8038 809L8030 787Q7979 894 7877 894Q7826 894 7792.5 861.5Q7759 829 7759 780Q7759 704 7811.0 649.0Q7863 594 7947 590Q7927 555 7902.5 537.5Q7878 520 7858.0 517.0Q7838 514 7820.5 513.5Q7803 513 7793.0 506.0Q7783 499 7783.0 478.5Q7783 458 7799.5 445.0Q7816 432 7839 432Q7904 432 7967.0 497.0Q8030 562 8077 701L8096 754Q8103 772 8125.5 802.5Q8148 833 8148.0 852.0Q8148 871 8138.0 882.5Q8128 894 8111 894ZM8004 732Q8004 707 7995.0 685.5Q7986 664 7984 659Q7958 643 7922.0 643.0Q7886 643 7857.5 667.0Q7829 691 7829.0 729.0Q7829 767 7854.5 792.5Q7880 818 7916.0 818.0Q7952 818 7978.0 792.5Q8004 767 8004 732ZM8291 1178Q8272 1178 8257.5 1163.5Q8243 1149 8243 1122Q8243 1117 8252.5 1056.0Q8262 995 8262.0 852.0Q8262 709 8257 590Q8256 567 8239.5 537.0Q8223 507 8223.0 484.0Q8223 461 8238.0 446.5Q8253 432 8272 432Q8322 432 8322 511V558Q8364 500 8423.5 466.0Q8483 432 8534 432Q8601 432 8642.0 481.5Q8683 531 8683.0 597.0Q8683 663 8657.0 720.0Q8631 777 8591.0 814.0Q8551 851 8506.0 872.5Q8461 894 8420 894Q8372 894 8372 847Q8372 826 8387.0 816.0Q8402 806 8417.0 806.0Q8432 806 8448.5 811.0Q8465 816 8479 816Q8539 816 8580.0 771.5Q8621 727 8621.0 663.0Q8621 599 8580.0 555.0Q8539 511 8479 511Q8401 511 8364.5 574.0Q8328 637 8328 746Q8328 804 8336.0 929.0Q8344 1054 8344 1099Q8344 1178 8291 1178ZM8765 585Q8765 531 8834.0 481.5Q8903 432 8986 432Q9026 432 9047.5 446.5Q9069 461 9069.0 484.0Q9069 507 9055.5 520.5Q9042 534 9028.5 534.0Q9015 534 8984.0 522.0Q8953 510 8919.5 510.0Q8886 510 8861.5 524.0Q8837 538 8837.0 558.0Q8837 578 8875.5 593.0Q8914 608 8960.0 617.0Q9006 626 9044.5 652.5Q9083 679 9083 721Q9083 786 9007.0 840.0Q8931 894 8843 894Q8806 894 8783.0 879.0Q8760 864 8760.0 841.5Q8760 819 8773.5 805.5Q8787 792 8800.5 792.0Q8814 792 8845.0 804.0Q8876 816 8909.5 816.0Q8943 816 8977.0 798.5Q9011 781 9011.0 755.5Q9011 730 8985.5 716.0Q8960 702 8924.0 693.5Q8888 685 8852.0 674.0Q8816 663 8790.5 640.5Q8765 618 8765 585Z" fill="currentColor" /></svg>