<svg viewBox="0 0 2450 900" xmlns="http://www.w3.org/2000/svg"><path d="M579 0 616 700H522L498 206L505 86H499L364 660L249 670L94 86H87L99 204L82 700H0L27 0H167L287 470L308 580H313L331 473L439 0ZM983 334Q983 243 900 243Q847 243 757 271L725 208Q811 163 911 163Q1032 163 1059 235Q1073 272 1073 333V546Q1073 618 1114 660L1061 712Q1043 701 1024.5 679.5Q1006 658 999 637H996Q941 712 844 712Q701 712 701 563Q701 431 887 404L983 390ZM797 574Q797 632 868.5 632.0Q940 632 983 582V460Q857 477 828 500Q797 525 797 574ZM1397 163Q1413 163 1424.5 164.0Q1436 165 1483 167Q1622 173 1635 173L1624 231L1555 238Q1580 280 1580 338Q1580 424 1528.0 474.0Q1476 524 1380 524Q1365 524 1341 522Q1321 538 1315.0 545.0Q1309 552 1309 561Q1309 590 1372 596L1447 603Q1527 608 1572.5 635.5Q1618 663 1618.0 726.5Q1618 790 1581 828Q1512 900 1376 900Q1171 900 1171 776Q1171 727 1233 674Q1240 668 1243.5 665.5Q1247 663 1253.0 658.5Q1259 654 1260 654Q1221 631 1221 588Q1221 562 1235.0 545.0Q1249 528 1282 505Q1197 464 1197 352Q1197 264 1249.0 213.5Q1301 163 1397 163ZM1532 754Q1532 723 1513 711Q1503 704 1494.5 699.5Q1486 695 1466 692Q1430 687 1390.5 684.0Q1351 681 1318 674Q1278 705 1268.5 721.5Q1259 738 1259 755Q1259 793 1295.5 811.0Q1332 829 1390.5 829.0Q1449 829 1490.5 811.0Q1532 793 1532 754ZM1383 234Q1332 234 1310.5 261.0Q1289 288 1289 344Q1289 455 1394 455Q1446 455 1467.0 427.0Q1488 399 1488 342Q1488 234 1383 234ZM1936 163Q1962 163 1975.5 167.5Q1989 172 1998.0 174.5Q2007 177 2009 178L1993 268Q1963 258 1921.5 258.0Q1880 258 1846.5 293.5Q1813 329 1813 379V700H1723V319L1715 180L1788 170L1799 271H1803Q1820 222 1854.5 192.5Q1889 163 1936 163ZM2319 334Q2319 243 2236 243Q2183 243 2093 271L2061 208Q2147 163 2247 163Q2368 163 2395 235Q2409 272 2409 333V546Q2409 618 2450 660L2397 712Q2379 701 2360.5 679.5Q2342 658 2335 637H2332Q2277 712 2180 712Q2037 712 2037 563Q2037 431 2223 404L2319 390ZM2133 574Q2133 632 2204.5 632.0Q2276 632 2319 582V460Q2193 477 2164 500Q2133 525 2133 574Z" /></svg>