<svg viewBox="0 0 10029 1862" xmlns="http://www.w3.org/2000/svg"><path d="M1332 34 1326 226 1196 220 1176 1278H1278L1282 1468H874L878 1278H1000L1004 328L752 1360L556 1366L360 330L346 1262H464L468 1448L4 1438V1258L166 1262L176 250L0 240L4 60H492L658 1054L898 40ZM2108 1286 2104 1446 1898 1466 1888 1350Q1867 1373 1839.5 1393.5Q1812 1414 1780.5 1430.5Q1749 1447 1715.5 1456.5Q1682 1466 1650 1466Q1588 1466 1545.5 1441.5Q1503 1417 1477.5 1376.5Q1452 1336 1441.0 1284.0Q1430 1232 1430 1178Q1430 1110 1452.5 1054.0Q1475 998 1515.5 958.5Q1556 919 1613.0 897.5Q1670 876 1738 876Q1765 876 1791.5 879.5Q1818 883 1844 892Q1846 875 1846.0 860.0Q1846 845 1846 828Q1846 819 1845.0 798.5Q1844 778 1841.5 752.5Q1839 727 1834.0 699.5Q1829 672 1820.5 649.5Q1812 627 1800.5 612.5Q1789 598 1772 598Q1753 598 1735.0 611.0Q1717 624 1701.0 644.5Q1685 665 1671.5 690.5Q1658 716 1647.0 741.0Q1636 766 1628.0 787.5Q1620 809 1616 822L1446 814L1440 442L1606 438V584Q1616 558 1633.0 530.0Q1650 502 1672.5 479.5Q1695 457 1722.5 442.5Q1750 428 1782 428Q1858 428 1904.5 451.0Q1951 474 1975.5 515.5Q2000 557 2008.0 615.5Q2016 674 2016 744Q2016 880 2014.0 1015.0Q2012 1150 2000 1286ZM1850 1218V1072Q1836 1052 1808.5 1046.0Q1781 1040 1758 1040Q1686 1040 1641.0 1075.5Q1596 1111 1596 1188Q1596 1235 1621.0 1267.5Q1646 1300 1696 1300Q1712 1300 1738.5 1295.5Q1765 1291 1789.5 1281.0Q1814 1271 1832.0 1255.5Q1850 1240 1850 1218ZM2483 198Q2483 224 2473.0 247.0Q2463 270 2446.0 287.0Q2429 304 2406.0 314.0Q2383 324 2357 324Q2331 324 2308.0 314.0Q2285 304 2268.0 287.0Q2251 270 2241.0 247.0Q2231 224 2231 198Q2231 172 2241.0 149.0Q2251 126 2268.0 109.0Q2285 92 2308.0 82.0Q2331 72 2357 72Q2383 72 2406.0 82.0Q2429 92 2446.0 109.0Q2463 126 2473.0 149.0Q2483 172 2483 198ZM2567 1316 2561 1482 2195 1466V1292L2279 1286V612H2157L2161 438H2483L2459 1306ZM3412 1458 3144 1466 3130 1350Q3097 1404 3042.0 1435.0Q2987 1466 2924 1466Q2862 1466 2817.5 1440.0Q2773 1414 2741.5 1371.0Q2710 1328 2690.5 1273.0Q2671 1218 2660.5 1160.0Q2650 1102 2646.0 1046.0Q2642 990 2642 944Q2642 898 2648.0 840.5Q2654 783 2668.5 724.0Q2683 665 2706.5 609.0Q2730 553 2764.5 509.0Q2799 465 2846.0 438.5Q2893 412 2954 412Q3001 412 3043.5 436.5Q3086 461 3110 500V174H2930V2L3296 8L3280 1296L3412 1292ZM3104 720Q3098 702 3087.0 680.0Q3076 658 3060.5 638.5Q3045 619 3025.5 605.5Q3006 592 2984 592Q2951 592 2926.5 611.0Q2902 630 2885.0 660.0Q2868 690 2856.5 727.5Q2845 765 2839.0 802.5Q2833 840 2830.5 873.5Q2828 907 2828 930Q2828 951 2828.0 985.0Q2828 1019 2831.0 1058.5Q2834 1098 2841.5 1138.5Q2849 1179 2863.0 1212.0Q2877 1245 2899.0 1265.5Q2921 1286 2954 1286Q2979 1286 3002.0 1271.5Q3025 1257 3044.0 1235.5Q3063 1214 3077.5 1190.0Q3092 1166 3100 1146ZM4089 850Q4089 932 4083 1010L3653 1018Q3653 1039 3655.0 1068.5Q3657 1098 3661.5 1130.5Q3666 1163 3674.5 1194.5Q3683 1226 3697.0 1251.5Q3711 1277 3731.5 1292.5Q3752 1308 3781 1308Q3812 1308 3834.5 1291.5Q3857 1275 3871.5 1250.5Q3886 1226 3894.0 1197.0Q3902 1168 3905 1142H4079Q4070 1199 4049.0 1257.0Q4028 1315 3993.0 1362.0Q3958 1409 3908.0 1438.5Q3858 1468 3791 1468Q3721 1468 3670.5 1441.5Q3620 1415 3585.0 1371.0Q3550 1327 3528.0 1269.5Q3506 1212 3494.5 1150.5Q3483 1089 3479.0 1027.0Q3475 965 3475 912Q3475 864 3480.5 808.0Q3486 752 3499.0 697.0Q3512 642 3534.5 591.0Q3557 540 3591.0 501.5Q3625 463 3672.0 439.5Q3719 416 3781 416Q3887 416 3948.0 449.5Q4009 483 4040.5 541.5Q4072 600 4080.5 679.5Q4089 759 4089 850ZM3915 792Q3915 762 3911.5 724.0Q3908 686 3895.5 652.0Q3883 618 3859.0 595.0Q3835 572 3795 572Q3760 572 3736.0 587.5Q3712 603 3696.0 628.0Q3680 653 3671.0 685.5Q3662 718 3658.0 751.5Q3654 785 3652.5 817.0Q3651 849 3651 874H3909Q3915 832 3915 792ZM5001 1314 4981 1474 4645 1460 4641 1298 4729 1288Q4732 1152 4734.5 1017.0Q4737 882 4737 746Q4737 722 4732.5 696.0Q4728 670 4717.0 648.0Q4706 626 4686.5 612.0Q4667 598 4637 598Q4593 598 4562.5 622.5Q4532 647 4513.0 683.0Q4494 719 4485.0 761.0Q4476 803 4475 838Q4470 951 4468.5 1063.0Q4467 1175 4465 1288H4553L4563 1450L4217 1454V1270L4315 1264L4309 614L4163 604L4167 434L4455 424L4461 566Q4481 536 4508.5 508.5Q4536 481 4569.0 460.0Q4602 439 4638.5 426.5Q4675 414 4713 414Q4758 414 4790.0 429.0Q4822 444 4844.0 470.0Q4866 496 4878.5 529.5Q4891 563 4898.0 600.5Q4905 638 4907.0 676.5Q4909 715 4909 750Q4909 889 4905.5 1027.0Q4902 1165 4899 1304ZM6324 678Q6324 759 6319.0 851.0Q6314 943 6297.5 1033.0Q6281 1123 6249.5 1206.5Q6218 1290 6165.5 1353.0Q6113 1416 6036.0 1454.0Q5959 1492 5852 1492Q5768 1492 5706.0 1461.5Q5644 1431 5599.5 1380.0Q5555 1329 5526.0 1262.0Q5497 1195 5480.0 1122.5Q5463 1050 5456.5 976.0Q5450 902 5450 838Q5450 757 5456.0 663.0Q5462 569 5480.0 476.0Q5498 383 5530.5 297.0Q5563 211 5616.5 145.0Q5670 79 5747.0 39.5Q5824 0 5930 0Q6014 0 6076.5 32.5Q6139 65 6182.5 119.5Q6226 174 6253.5 244.0Q6281 314 6297.0 389.5Q6313 465 6318.5 539.5Q6324 614 6324 678ZM6128 690Q6128 656 6126.0 605.5Q6124 555 6117.0 499.5Q6110 444 6096.0 388.0Q6082 332 6057.5 287.5Q6033 243 5996.5 215.5Q5960 188 5908 188Q5842 188 5796.5 223.5Q5751 259 5721.0 317.0Q5691 375 5674.0 447.5Q5657 520 5649.0 594.0Q5641 668 5639.5 736.5Q5638 805 5638 854Q5638 891 5640.0 938.5Q5642 986 5649.5 1035.5Q5657 1085 5672.0 1132.5Q5687 1180 5711.5 1217.0Q5736 1254 5773.0 1277.0Q5810 1300 5862 1300Q5927 1300 5972.0 1267.0Q6017 1234 6046.5 1180.5Q6076 1127 6092.5 1060.0Q6109 993 6117.0 925.5Q6125 858 6126.5 796.0Q6128 734 6128 690ZM6959 656Q6921 664 6885.0 683.0Q6849 702 6821.0 729.5Q6793 757 6776.0 792.5Q6759 828 6759 870Q6759 970 6758.0 1068.0Q6757 1166 6755 1266L6901 1272V1452L6413 1462L6427 1272L6559 1266L6573 622L6467 626L6461 442L6729 416V554Q6750 537 6778.0 517.0Q6806 497 6837.0 479.0Q6868 461 6899.5 446.5Q6931 432 6959 426ZM7729 1286 7725 1446 7519 1466 7509 1350Q7488 1373 7460.5 1393.5Q7433 1414 7401.5 1430.5Q7370 1447 7336.5 1456.5Q7303 1466 7271 1466Q7209 1466 7166.5 1441.5Q7124 1417 7098.5 1376.5Q7073 1336 7062.0 1284.0Q7051 1232 7051 1178Q7051 1110 7073.5 1054.0Q7096 998 7136.5 958.5Q7177 919 7234.0 897.5Q7291 876 7359 876Q7386 876 7412.5 879.5Q7439 883 7465 892Q7467 875 7467.0 860.0Q7467 845 7467 828Q7467 819 7466.0 798.5Q7465 778 7462.5 752.5Q7460 727 7455.0 699.5Q7450 672 7441.5 649.5Q7433 627 7421.5 612.5Q7410 598 7393 598Q7374 598 7356.0 611.0Q7338 624 7322.0 644.5Q7306 665 7292.5 690.5Q7279 716 7268.0 741.0Q7257 766 7249.0 787.5Q7241 809 7237 822L7067 814L7061 442L7227 438V584Q7237 558 7254.0 530.0Q7271 502 7293.5 479.5Q7316 457 7343.5 442.5Q7371 428 7403 428Q7479 428 7525.5 451.0Q7572 474 7596.5 515.5Q7621 557 7629.0 615.5Q7637 674 7637 744Q7637 880 7635.0 1015.0Q7633 1150 7621 1286ZM7471 1218V1072Q7457 1052 7429.5 1046.0Q7402 1040 7379 1040Q7307 1040 7262.0 1075.5Q7217 1111 7217 1188Q7217 1235 7242.0 1267.5Q7267 1300 7317 1300Q7333 1300 7359.5 1295.5Q7386 1291 7410.5 1281.0Q7435 1271 7453.0 1255.5Q7471 1240 7471 1218ZM8616 1314 8596 1474 8260 1460 8256 1298 8344 1288Q8347 1152 8349.5 1017.0Q8352 882 8352 746Q8352 722 8347.5 696.0Q8343 670 8332.0 648.0Q8321 626 8301.5 612.0Q8282 598 8252 598Q8208 598 8177.5 622.5Q8147 647 8128.0 683.0Q8109 719 8100.0 761.0Q8091 803 8090 838Q8085 951 8083.5 1063.0Q8082 1175 8080 1288H8168L8178 1450L7832 1454V1270L7930 1264L7924 614L7778 604L7782 434L8070 424L8076 566Q8096 536 8123.5 508.5Q8151 481 8184.0 460.0Q8217 439 8253.5 426.5Q8290 414 8328 414Q8373 414 8405.0 429.0Q8437 444 8459.0 470.0Q8481 496 8493.5 529.5Q8506 563 8513.0 600.5Q8520 638 8522.0 676.5Q8524 715 8524 750Q8524 889 8520.5 1027.0Q8517 1165 8514 1304ZM9401 398 9245 536Q9265 589 9272.0 652.5Q9279 716 9279 772Q9279 846 9261.5 908.5Q9244 971 9207.5 1018.5Q9171 1066 9114.5 1096.0Q9058 1126 8981 1134Q8973 1139 8963.5 1146.0Q8954 1153 8946.0 1161.5Q8938 1170 8932.5 1180.0Q8927 1190 8927 1200Q8927 1209 8933.0 1221.5Q8939 1234 8947.0 1246.0Q8955 1258 8963.5 1269.0Q8972 1280 8977 1286Q9044 1286 9109.5 1299.0Q9175 1312 9226.5 1343.5Q9278 1375 9309.5 1427.0Q9341 1479 9341 1558Q9341 1625 9309.5 1680.5Q9278 1736 9227.5 1776.5Q9177 1817 9114.0 1839.5Q9051 1862 8989 1862Q8924 1862 8868.5 1842.5Q8813 1823 8772.5 1786.5Q8732 1750 8709.5 1697.5Q8687 1645 8687 1578Q8687 1504 8717.5 1439.5Q8748 1375 8811 1334Q8793 1305 8779.0 1273.0Q8765 1241 8765 1208Q8765 1173 8783.0 1140.0Q8801 1107 8831 1090Q8797 1065 8772.5 1026.0Q8748 987 8731.5 942.5Q8715 898 8707.0 851.5Q8699 805 8699 764Q8699 684 8717.0 617.5Q8735 551 8773.0 503.0Q8811 455 8870.5 428.5Q8930 402 9013 402Q9035 402 9052.5 404.0Q9070 406 9086.0 410.5Q9102 415 9118.0 421.5Q9134 428 9153 438L9279 278ZM9113 760Q9113 732 9106.5 698.5Q9100 665 9085.0 636.5Q9070 608 9046.0 589.0Q9022 570 8987 570Q8946 570 8922.0 586.5Q8898 603 8885.5 629.5Q8873 656 8869.0 689.0Q8865 722 8865 754Q8865 781 8870.5 818.0Q8876 855 8889.5 889.0Q8903 923 8926.5 946.5Q8950 970 8987 970Q9022 970 9046.0 947.5Q9070 925 9085.0 892.5Q9100 860 9106.5 824.0Q9113 788 9113 760ZM9181 1554Q9181 1519 9162.0 1495.0Q9143 1471 9114.5 1456.0Q9086 1441 9052.5 1434.5Q9019 1428 8991 1428Q8925 1428 8892.0 1469.5Q8859 1511 8859 1574Q8859 1606 8875.0 1628.0Q8891 1650 8915.0 1663.5Q8939 1677 8968.5 1683.5Q8998 1690 9025 1690Q9053 1690 9081.0 1680.5Q9109 1671 9131.5 1653.0Q9154 1635 9167.5 1610.0Q9181 1585 9181 1554ZM10029 850Q10029 932 10023 1010L9593 1018Q9593 1039 9595.0 1068.5Q9597 1098 9601.5 1130.5Q9606 1163 9614.5 1194.5Q9623 1226 9637.0 1251.5Q9651 1277 9671.5 1292.5Q9692 1308 9721 1308Q9752 1308 9774.5 1291.5Q9797 1275 9811.5 1250.5Q9826 1226 9834.0 1197.0Q9842 1168 9845 1142H10019Q10010 1199 9989.0 1257.0Q9968 1315 9933.0 1362.0Q9898 1409 9848.0 1438.5Q9798 1468 9731 1468Q9661 1468 9610.5 1441.5Q9560 1415 9525.0 1371.0Q9490 1327 9468.0 1269.5Q9446 1212 9434.5 1150.5Q9423 1089 9419.0 1027.0Q9415 965 9415 912Q9415 864 9420.5 808.0Q9426 752 9439.0 697.0Q9452 642 9474.5 591.0Q9497 540 9531.0 501.5Q9565 463 9612.0 439.5Q9659 416 9721 416Q9827 416 9888.0 449.5Q9949 483 9980.5 541.5Q10012 600 10020.5 679.5Q10029 759 10029 850ZM9855 792Q9855 762 9851.5 724.0Q9848 686 9835.5 652.0Q9823 618 9799.0 595.0Q9775 572 9735 572Q9700 572 9676.0 587.5Q9652 603 9636.0 628.0Q9620 653 9611.0 685.5Q9602 718 9598.0 751.5Q9594 785 9592.5 817.0Q9591 849 9591 874H9849Q9855 832 9855 792Z" /></svg>