<svg viewBox="0 0 3052 554.0" xmlns="http://www.w3.org/2000/svg"><path d="M301 458.0 482 58.0Q498 24.0 506 15.0Q523 0.0 540.5 0.0Q558 0.0 567.5 4.0Q577 8.0 584 15.0Q601 32.0 601 60.0V516.0Q601 531.0 591.5 538.5Q582 546.0 570.0 546.0Q558 546.0 549.0 538.5Q540 531.0 540 516.0V68.0L342 504.0Q330 534.0 300 534.0Q274 534.0 259 504.0L62 70.0V516.0Q62 531.0 52.5 538.5Q43 546.0 31.0 546.0Q19 546.0 9.5 538.5Q0 531.0 0 516.0V60.0Q0 16.0 32 4.0Q43 2.0 54.5 1.0Q66 0.0 75.5 3.0Q85 6.0 92 12.0Q104 22.0 122 58.0L300 458.0ZM914 315.0Q935 315.0 956 316.0V284.0Q956 206.0 869 206.0Q830 206.0 812 213.0Q780 225.0 766.0 233.5Q752 242.0 744.0 242.0Q736 242.0 729.0 236.0Q722 230.0 722 220.0Q722 212.0 731 204.0Q778 159.0 870 159.0Q976 159.0 1006 230.0Q1016 255.0 1016 288.0L1014 519.0Q1014 532.0 1005.0 539.0Q996 546.0 985.0 546.0Q974 546.0 965.0 540.0Q956 534.0 956 520.0V484.0Q932 536.0 870 549.0Q851 554.0 827.0 554.0Q803 554.0 779.5 547.0Q756 540.0 738 525.0Q701 494.0 701 441.0Q701 315.0 914 315.0ZM956 360.0Q940 362.0 919.0 362.0Q898 362.0 876.0 362.5Q854 363.0 834.0 367.5Q814 372.0 798 381.0Q764 399.0 762 440.0Q762 472.0 788 490.0Q808 506.0 845 507.0Q890 507.0 923 478.0Q953 450.0 956 394.0ZM1131 32.0Q1131 16.0 1141.0 9.0Q1151 2.0 1159.0 2.0Q1167 2.0 1172.0 3.0Q1177 4.0 1182 9.0Q1193 16.0 1193 32.0V516.0Q1193 531.0 1183.0 538.5Q1173 546.0 1161 546.0Q1149 546.0 1140.0 538.5Q1131 531.0 1131 516.0ZM1311 32.0Q1311 16.0 1321.0 9.0Q1331 2.0 1339.0 2.0Q1347 2.0 1352.0 3.0Q1357 4.0 1362 9.0Q1373 16.0 1373 32.0V516.0Q1373 531.0 1363.0 538.5Q1353 546.0 1341 546.0Q1329 546.0 1320.0 538.5Q1311 531.0 1311 516.0ZM1671 315.0Q1692 315.0 1713 316.0V284.0Q1713 206.0 1626 206.0Q1587 206.0 1569 213.0Q1537 225.0 1523.0 233.5Q1509 242.0 1501.0 242.0Q1493 242.0 1486.0 236.0Q1479 230.0 1479 220.0Q1479 212.0 1488 204.0Q1535 159.0 1627 159.0Q1733 159.0 1763 230.0Q1773 255.0 1773 288.0L1771 519.0Q1771 532.0 1762.0 539.0Q1753 546.0 1742.0 546.0Q1731 546.0 1722.0 540.0Q1713 534.0 1713 520.0V484.0Q1689 536.0 1627 549.0Q1608 554.0 1584.0 554.0Q1560 554.0 1536.5 547.0Q1513 540.0 1495 525.0Q1458 494.0 1458 441.0Q1458 315.0 1671 315.0ZM1713 360.0Q1697 362.0 1676.0 362.0Q1655 362.0 1633.0 362.5Q1611 363.0 1591.0 367.5Q1571 372.0 1555 381.0Q1521 399.0 1519 440.0Q1519 472.0 1545 490.0Q1565 506.0 1602 507.0Q1647 507.0 1680 478.0Q1710 450.0 1713 394.0ZM1888 195.0Q1888 182.0 1898.0 174.0Q1908 166.0 1918 166.0Q1939 166.0 1945.0 182.0Q1951 198.0 1948 230.0Q1960 200.0 2000 178.0Q2035 159.0 2069.5 159.0Q2104 159.0 2128.0 167.5Q2152 176.0 2172 194.0Q2212 232.0 2212 306.0V518.0Q2212 532.0 2201.5 539.0Q2191 546.0 2180 546.0Q2168 546.0 2159.0 538.5Q2150 531.0 2150 518.0V302.0Q2150 255.0 2124 230.0Q2100 206.0 2064 206.0Q2016 206.0 1982 234.0Q1948 264.0 1948 326.0V518.0Q1948 532.0 1938.0 539.0Q1928 546.0 1916 546.0Q1904 546.0 1896.0 538.5Q1888 531.0 1888 518.0ZM2329 195.0Q2329 182.0 2339.0 174.0Q2349 166.0 2359 166.0Q2380 166.0 2386.0 182.0Q2392 198.0 2389 230.0Q2401 200.0 2441 178.0Q2476 159.0 2510.5 159.0Q2545 159.0 2569.0 167.5Q2593 176.0 2613 194.0Q2653 232.0 2653 306.0V518.0Q2653 532.0 2642.5 539.0Q2632 546.0 2621 546.0Q2609 546.0 2600.0 538.5Q2591 531.0 2591 518.0V302.0Q2591 255.0 2565 230.0Q2541 206.0 2505 206.0Q2457 206.0 2423 234.0Q2389 264.0 2389 326.0V518.0Q2389 532.0 2379.0 539.0Q2369 546.0 2357 546.0Q2345 546.0 2337.0 538.5Q2329 531.0 2329 518.0ZM2950 315.0Q2971 315.0 2992 316.0V284.0Q2992 206.0 2905 206.0Q2866 206.0 2848 213.0Q2816 225.0 2802.0 233.5Q2788 242.0 2780.0 242.0Q2772 242.0 2765.0 236.0Q2758 230.0 2758 220.0Q2758 212.0 2767 204.0Q2814 159.0 2906 159.0Q3012 159.0 3042 230.0Q3052 255.0 3052 288.0L3050 519.0Q3050 532.0 3041.0 539.0Q3032 546.0 3021.0 546.0Q3010 546.0 3001.0 540.0Q2992 534.0 2992 520.0V484.0Q2968 536.0 2906 549.0Q2887 554.0 2863.0 554.0Q2839 554.0 2815.5 547.0Q2792 540.0 2774 525.0Q2737 494.0 2737 441.0Q2737 315.0 2950 315.0ZM2992 360.0Q2976 362.0 2955.0 362.0Q2934 362.0 2912.0 362.5Q2890 363.0 2870.0 367.5Q2850 372.0 2834 381.0Q2800 399.0 2798 440.0Q2798 472.0 2824 490.0Q2844 506.0 2881 507.0Q2926 507.0 2959 478.0Q2989 450.0 2992 394.0Z" fill="currentColor" /></svg>