<svg viewBox="0 0 3793 738" xmlns="http://www.w3.org/2000/svg"><path d="M338 737 151 216 136 674 225 694V727H0V694L81 674L98 168L18 149V116H203L377 605L542 116H733V149L643 169L662 674L754 694V727H492V694L581 674L565 219L388 727ZM944 738Q909 738 885.0 720.0Q861 702 849.0 673.5Q837 645 837 615Q837 591 845.5 562.5Q854 534 881.5 510.0Q909 486 964 476L1115 449V365Q1115 327 1098.0 304.0Q1081 281 1028 281Q1006 281 979.0 284.5Q952 288 929 295L905 381H875L858 264Q900 248 947.5 237.5Q995 227 1046 227Q1092 227 1126.0 237.0Q1160 247 1179.0 270.5Q1198 294 1198 336V669L1283 687V715Q1255 724 1229.0 727.5Q1203 731 1183 731Q1159 731 1140.5 717.5Q1122 704 1117 676Q1079 704 1036.0 721.0Q993 738 944 738ZM997 676Q1026 676 1058.5 664.0Q1091 652 1115 639V493L1011 510Q961 518 942.5 544.0Q924 570 924 600Q924 643 945.0 659.5Q966 676 997 676ZM1333 727V699L1422 674V297L1333 287V264L1478 227H1505V267Q1525 258 1554.0 249.0Q1583 240 1617.0 233.5Q1651 227 1684 227Q1720 227 1750.0 237.0Q1780 247 1798.5 271.0Q1817 295 1817 336V674L1907 699V727H1652V699L1734 674V353Q1734 313 1713.5 300.0Q1693 287 1634 287Q1603 287 1567.5 291.0Q1532 295 1505 303V674L1587 699V727ZM2143 737Q2100 737 2075.0 720.0Q2050 703 2039.5 675.5Q2029 648 2029 618V297L1940 287V264L2087 227H2113V607Q2113 640 2127.5 657.5Q2142 675 2194 675Q2221 675 2260.5 665.0Q2300 655 2330 644V297L2240 287V264L2387 227H2414V669L2505 687V715Q2474 724 2446.5 727.5Q2419 731 2399 731Q2380 731 2359.5 718.0Q2339 705 2335 681Q2307 692 2276.0 705.5Q2245 719 2211.5 728.0Q2178 737 2143 737ZM2695 738Q2660 738 2636.0 720.0Q2612 702 2600.0 673.5Q2588 645 2588 615Q2588 591 2596.5 562.5Q2605 534 2632.5 510.0Q2660 486 2715 476L2866 449V365Q2866 327 2849.0 304.0Q2832 281 2779 281Q2757 281 2730.0 284.5Q2703 288 2680 295L2656 381H2626L2609 264Q2651 248 2698.5 237.5Q2746 227 2797 227Q2843 227 2877.0 237.0Q2911 247 2930.0 270.5Q2949 294 2949 336V669L3034 687V715Q3006 724 2980.0 727.5Q2954 731 2934 731Q2910 731 2891.5 717.5Q2873 704 2868 676Q2830 704 2787.0 721.0Q2744 738 2695 738ZM2748 676Q2777 676 2809.5 664.0Q2842 652 2866 639V493L2762 510Q2712 518 2693.5 544.0Q2675 570 2675 600Q2675 643 2696.0 659.5Q2717 676 2748 676ZM3070 727V694L3160 674V71L3070 61V38L3216 0H3243V674L3333 694V727ZM3616 738Q3560 738 3518.0 722.0Q3476 706 3447.5 674.0Q3419 642 3405.0 594.5Q3391 547 3391 484Q3391 421 3405.0 373.0Q3419 325 3446.0 292.5Q3473 260 3513.0 243.5Q3553 227 3605 227Q3701 227 3747.0 272.5Q3793 318 3793 415Q3793 423 3792.5 431.0Q3792 439 3792.0 447.0Q3792 455 3791 465H3483V497Q3483 555 3500.5 597.5Q3518 640 3551.0 662.5Q3584 685 3630 685Q3662 685 3702.5 679.0Q3743 673 3780 663L3786 694Q3743 718 3705.0 728.0Q3667 738 3616 738ZM3485 430 3703 420V397Q3703 356 3693.5 329.0Q3684 302 3663.5 289.0Q3643 276 3611 276Q3568 276 3541.0 291.5Q3514 307 3501.0 340.5Q3488 374 3485 430Z" fill="currentColor" /></svg>