<svg viewBox="0 0 12587 1491" xmlns="http://www.w3.org/2000/svg"><path d="M0 1456Q11 1440 25.0 1408.5Q39 1377 47 1329Q58 1259 71.5 1171.5Q85 1084 99.5 988.0Q114 892 128.5 791.5Q143 691 156.5 593.5Q170 496 182.5 405.5Q195 315 205.0 240.0Q215 165 221.5 109.5Q228 54 231 26H358L987 1202L1611 26H1706L1870 1214Q1877 1270 1885.0 1310.0Q1893 1350 1901.0 1378.5Q1909 1407 1916.5 1425.5Q1924 1444 1931 1456V1460H1679V1456Q1684 1445 1688.5 1420.0Q1693 1395 1693 1360Q1693 1347 1692.0 1333.5Q1691 1320 1689 1304L1562 346L972 1456L903 1448L309 336Q274 573 248 774Q237 860 226.0 945.5Q215 1031 206.5 1105.0Q198 1179 193.0 1235.5Q188 1292 188 1319Q188 1353 190.0 1379.0Q192 1405 194 1423Q197 1444 200 1460H0ZM2797 1122Q2770 1122 2729.5 1122.0Q2689 1122 2641.0 1122.0Q2593 1122 2542.0 1122.0Q2491 1122 2445.0 1122.5Q2399 1123 2361.0 1123.5Q2323 1124 2302 1124L2265 1202Q2241 1250 2224.0 1285.5Q2207 1321 2196.0 1348.0Q2185 1375 2180.0 1394.5Q2175 1414 2175 1431Q2175 1442 2176.0 1447.5Q2177 1453 2179 1456V1460H2003V1456Q2010 1449 2025.0 1425.5Q2040 1402 2059.5 1368.0Q2079 1334 2101.5 1291.0Q2124 1248 2146 1202L2554 360H2629L3029 1202Q3052 1250 3075.5 1294.0Q3099 1338 3119.0 1372.5Q3139 1407 3154.0 1429.5Q3169 1452 3174 1456V1460H2918Q2920 1452 2920.0 1445.5Q2920 1439 2920 1431Q2920 1409 2910.5 1378.0Q2901 1347 2887.5 1314.5Q2874 1282 2859.5 1252.0Q2845 1222 2836 1202ZM2341 1044H2402Q2444 1044 2491.5 1043.5Q2539 1043 2587.0 1043.0Q2635 1043 2680.0 1042.5Q2725 1042 2761 1042L2554 600ZM3498 938Q3518 941 3538.5 942.5Q3559 944 3578 944Q3703 944 3767.5 877.0Q3832 810 3832 676Q3832 566 3780.5 502.0Q3729 438 3629 438Q3597 438 3572.5 440.5Q3548 443 3531 446Q3512 450 3498 454ZM3651 1003Q3631 1006 3611.5 1006.5Q3592 1007 3572 1007Q3556 1007 3537.0 1006.0Q3518 1005 3498 1003V1052Q3498 1141 3500.0 1207.5Q3502 1274 3505.5 1322.0Q3509 1370 3514.0 1402.5Q3519 1435 3526 1456V1460H3295V1456Q3302 1435 3307.5 1402.0Q3313 1369 3316.5 1320.5Q3320 1272 3322.0 1205.0Q3324 1138 3324 1048V796Q3324 706 3322.0 639.5Q3320 573 3316.5 524.5Q3313 476 3307.5 443.0Q3302 410 3295 389V385Q3311 386 3329 387Q3344 388 3362.5 388.5Q3381 389 3400 389Q3432 389 3495.0 383.0Q3558 377 3643 377Q3729 377 3799.5 398.0Q3870 419 3920.5 458.0Q3971 497 3998.5 553.0Q4026 609 4026 678Q4026 732 4011.0 776.5Q3996 821 3969.0 856.5Q3942 892 3905.0 919.0Q3868 946 3823 966L4032 1261Q4059 1297 4086.5 1330.0Q4114 1363 4139.0 1389.0Q4164 1415 4186.0 1432.5Q4208 1450 4223 1456V1460H3961Q3961 1451 3948.5 1428.5Q3936 1406 3919.5 1381.5Q3903 1357 3886.5 1334.0Q3870 1311 3862 1300ZM5220 1237 5142 1423Q5113 1436 5076.5 1446.5Q5040 1457 5001.0 1464.0Q4962 1471 4921.5 1474.5Q4881 1478 4845 1478Q4719 1478 4611.5 1441.0Q4504 1404 4426.0 1332.5Q4348 1261 4304.0 1157.0Q4260 1053 4260 919Q4260 801 4306.0 700.0Q4352 599 4433.0 524.5Q4514 450 4624.5 408.0Q4735 366 4864 366Q4893 366 4925.5 368.5Q4958 371 4990.0 376.0Q5022 381 5052.0 387.5Q5082 394 5108 401L5183 581L5171 588Q5144 555 5106.5 527.0Q5069 499 5024.5 479.5Q4980 460 4931.0 449.0Q4882 438 4831 438Q4748 438 4679.5 467.0Q4611 496 4562.5 551.5Q4514 607 4487.0 687.0Q4460 767 4460 868Q4460 982 4486.0 1080.5Q4512 1179 4564.0 1251.5Q4616 1324 4694.0 1365.5Q4772 1407 4876 1407Q4926 1407 4974.5 1394.5Q5023 1382 5066.5 1359.0Q5110 1336 5146.0 1303.5Q5182 1271 5208 1231ZM5382 385Q5480 385 5583.0 384.5Q5686 384 5774.0 382.5Q5862 381 5925.5 379.0Q5989 377 6009 373L5970 481Q5943 474 5909 468Q5879 463 5836.5 458.5Q5794 454 5738 454Q5718 454 5692.0 455.5Q5666 457 5642 459Q5614 461 5585 463V858Q5666 857 5731.0 854.0Q5796 851 5842 846Q5896 842 5937 835L5913 954Q5858 947 5802 942Q5754 937 5696.0 933.5Q5638 930 5585 930V1384Q5678 1384 5756.0 1376.5Q5834 1369 5892 1360Q5960 1349 6015 1335L5992 1466Q5977 1465 5943.5 1463.5Q5910 1462 5873.5 1461.5Q5837 1461 5805.0 1460.5Q5773 1460 5761 1460H5382V1456Q5389 1435 5394.5 1402.0Q5400 1369 5403.5 1320.5Q5407 1272 5409.0 1205.0Q5411 1138 5411 1048V796Q5411 706 5409.0 639.5Q5407 573 5403.5 524.5Q5400 476 5394.5 443.0Q5389 410 5382 389V385ZM6441 1382Q6534 1382 6612.5 1374.5Q6691 1367 6750 1358Q6819 1347 6875 1333L6852 1466Q6838 1465 6804.5 1463.5Q6771 1462 6734.0 1461.5Q6697 1461 6665.0 1460.5Q6633 1460 6621 1460H6238V1456Q6245 1435 6250.5 1402.0Q6256 1369 6259.5 1320.5Q6263 1272 6265.0 1205.0Q6267 1138 6267 1048V796Q6267 706 6265.0 639.5Q6263 573 6259.5 524.5Q6256 476 6250.5 443.0Q6245 410 6238 389V385H6469V389Q6462 410 6457.0 443.0Q6452 476 6448.5 524.5Q6445 573 6443.0 639.5Q6441 706 6441 796ZM7250 1382Q7343 1382 7421.5 1374.5Q7500 1367 7559 1358Q7628 1347 7684 1333L7661 1466Q7647 1465 7613.5 1463.5Q7580 1462 7543.0 1461.5Q7506 1461 7474.0 1460.5Q7442 1460 7430 1460H7047V1456Q7054 1435 7059.5 1402.0Q7065 1369 7068.5 1320.5Q7072 1272 7074.0 1205.0Q7076 1138 7076 1048V796Q7076 706 7074.0 639.5Q7072 573 7068.5 524.5Q7065 476 7059.5 443.0Q7054 410 7047 389V385H7278V389Q7271 410 7266.0 443.0Q7261 476 7257.5 524.5Q7254 573 7252.0 639.5Q7250 706 7250 796ZM8679 792Q8679 703 8678.0 637.0Q8677 571 8674.0 523.0Q8671 475 8667.0 442.5Q8663 410 8657 389V385H8804V389Q8798 410 8794.0 443.0Q8790 476 8787.0 524.5Q8784 573 8783.0 639.5Q8782 706 8782 796V1083Q8782 1191 8748.5 1267.0Q8715 1343 8656.0 1391.5Q8597 1440 8515.5 1462.5Q8434 1485 8337 1485Q8239 1485 8155.0 1463.5Q8071 1442 8009.5 1395.0Q7948 1348 7912.5 1273.0Q7877 1198 7877 1091V796Q7877 706 7875.0 639.5Q7873 573 7869.0 524.5Q7865 476 7860.0 443.0Q7855 410 7848 389V385H8079V389Q8072 410 8067.0 442.5Q8062 475 8058.5 523.0Q8055 571 8053.0 637.0Q8051 703 8051 792V1091Q8051 1180 8078.0 1237.5Q8105 1295 8149.0 1329.0Q8193 1363 8249.0 1376.5Q8305 1390 8364 1390Q8424 1390 8480.5 1376.5Q8537 1363 8581.5 1329.0Q8626 1295 8652.5 1237.5Q8679 1180 8679 1091ZM9551 594H9531Q9525 577 9511.5 551.0Q9498 525 9475.5 500.0Q9453 475 9420.0 457.5Q9387 440 9341 440Q9306 440 9278.5 451.5Q9251 463 9232.0 483.0Q9213 503 9203.0 530.5Q9193 558 9193 590Q9193 642 9224.5 689.0Q9256 736 9303.0 782.5Q9350 829 9405.0 876.0Q9460 923 9507.0 974.0Q9554 1025 9585.5 1082.0Q9617 1139 9617 1204Q9617 1252 9599.5 1303.0Q9582 1354 9543.0 1395.0Q9504 1436 9443.0 1462.5Q9382 1489 9295 1489Q9247 1489 9203.5 1481.0Q9160 1473 9123.5 1461.5Q9087 1450 9058.5 1436.5Q9030 1423 9011 1411L9029 1222H9050Q9060 1257 9079.5 1292.0Q9099 1327 9127.5 1355.5Q9156 1384 9194.5 1401.5Q9233 1419 9283 1419Q9318 1419 9349.0 1407.5Q9380 1396 9402.5 1375.0Q9425 1354 9438.0 1323.5Q9451 1293 9451 1255Q9451 1210 9433.0 1171.5Q9415 1133 9385.0 1097.5Q9355 1062 9317.5 1029.0Q9280 996 9240.0 962.0Q9200 928 9162.5 892.5Q9125 857 9095.0 816.0Q9065 775 9047.0 728.5Q9029 682 9029 626Q9029 567 9054.0 520.0Q9079 473 9120.0 440.5Q9161 408 9214.0 390.5Q9267 373 9324 373Q9366 373 9402.5 379.0Q9439 385 9468.5 393.5Q9498 402 9520.0 410.5Q9542 419 9556 424ZM11050 254H11028Q11020 231 11002.5 202.0Q10985 173 10956.5 147.5Q10928 122 10887.5 105.0Q10847 88 10792 88Q10743 88 10705.0 103.0Q10667 118 10641.5 145.0Q10616 172 10603.0 209.0Q10590 246 10590 291Q10590 363 10630.5 428.5Q10671 494 10732.0 558.0Q10793 622 10864.0 686.0Q10935 750 10996.0 819.0Q11057 888 11097.5 963.5Q11138 1039 11138 1126Q11138 1191 11115.5 1256.5Q11093 1322 11046.0 1374.0Q10999 1426 10925.0 1458.5Q10851 1491 10749 1491Q10692 1491 10640.5 1480.5Q10589 1470 10545.5 1454.5Q10502 1439 10467.5 1421.0Q10433 1403 10411 1388L10434 1167H10459Q10470 1214 10495.0 1256.5Q10520 1299 10556.5 1331.5Q10593 1364 10640.0 1383.5Q10687 1403 10743 1403Q10794 1403 10834.5 1387.5Q10875 1372 10904.0 1344.5Q10933 1317 10948.5 1279.0Q10964 1241 10964 1196Q10964 1133 10941.0 1079.5Q10918 1026 10880.5 978.0Q10843 930 10795.5 885.0Q10748 840 10698.0 794.5Q10648 749 10600.5 701.0Q10553 653 10515.5 598.5Q10478 544 10455.0 481.5Q10432 419 10432 344Q10432 265 10462.5 201.5Q10493 138 10543.5 93.0Q10594 48 10658.0 24.0Q10722 0 10790 0Q10840 0 10882.0 8.0Q10924 16 10957.5 27.0Q10991 38 11016.0 49.0Q11041 60 11057 67ZM12544 246 12535 250Q12457 178 12347.5 135.0Q12238 92 12107 92Q11981 92 11876.0 131.5Q11771 171 11695.5 246.0Q11620 321 11578.0 430.0Q11536 539 11536 678Q11536 831 11576.0 963.5Q11616 1096 11695.0 1193.0Q11774 1290 11892.5 1345.5Q12011 1401 12169 1401Q12226 1401 12283.0 1389.0Q12340 1377 12392.5 1353.5Q12445 1330 12491.5 1296.5Q12538 1263 12576 1220L12587 1227L12507 1431Q12432 1460 12341.5 1475.5Q12251 1491 12159 1491Q11974 1491 11820.5 1437.5Q11667 1384 11556.5 1286.0Q11446 1188 11384.5 1050.5Q11323 913 11323 745Q11323 650 11347.5 558.0Q11372 466 11419.0 383.0Q11466 300 11535.0 230.5Q11604 161 11692.5 110.0Q11781 59 11887.5 30.5Q11994 2 12118 2Q12311 2 12476 61Z" fill="currentColor" /></svg>