<svg viewBox="0 0 3300 1687" xmlns="http://www.w3.org/2000/svg"><path d="M124 1072 172 424 76 416V367H296L477 910L499 982L521 909L693 367H896V416L803 424L859 1072L947 1085V1125H690V1085L776 1072L734 602L729 433L707 518L501 1132H470L278 586Q261 538 225 430L220 605L195 1072L292 1085V1125H38V1085ZM1434 748 1433 1085H1495V1116Q1478 1125 1454.0 1130.5Q1430 1136 1405 1136Q1372 1136 1361.5 1122.0Q1351 1108 1351 1070Q1295 1137 1184 1137Q1139 1137 1102.0 1117.5Q1065 1098 1044.0 1063.5Q1023 1029 1023 986Q1023 919 1075.0 877.5Q1127 836 1201.0 818.0Q1275 800 1346 800V758Q1346 684 1311.0 656.5Q1276 629 1209 629Q1177 629 1135.0 640.5Q1093 652 1062 669L1045 627Q1078 600 1137.5 584.5Q1197 569 1241 569Q1330 569 1382.0 609.0Q1434 649 1434 748ZM1111 971Q1111 1079 1231 1079Q1264 1079 1296.0 1064.5Q1328 1050 1345 1034L1346 847Q1258 847 1184.5 876.0Q1111 905 1111 971ZM1661 1076V669L1590 635V606L1716 570L1738 580V653Q1758 624 1811.5 596.5Q1865 569 1909 569Q1945 569 1957 572V665Q1935 657 1918.5 653.5Q1902 650 1874 650Q1805 650 1749 687V1075L1891 1086V1125H1580V1086ZM2192 579H2362V636H2192V897Q2192 975 2196.0 1010.0Q2200 1045 2212.0 1059.0Q2224 1073 2252 1073Q2278 1073 2309.5 1064.5Q2341 1056 2355 1047L2369 1087Q2349 1109 2302.5 1123.0Q2256 1137 2218 1137Q2162 1137 2134.0 1103.5Q2106 1070 2106 997V636H2031V602L2053 597Q2085 590 2097.0 584.5Q2109 579 2118 561Q2124 546 2134.5 505.5Q2145 465 2147 448H2192ZM2909 778Q2909 813 2903 855H2536Q2536 957 2585.5 1016.0Q2635 1075 2727 1075Q2767 1075 2811.0 1065.5Q2855 1056 2877 1043L2894 1082Q2866 1107 2808.5 1122.0Q2751 1137 2693 1137Q2577 1137 2512.5 1060.5Q2448 984 2448 854Q2448 771 2482.5 705.5Q2517 640 2578.5 602.0Q2640 564 2718 562Q2807 560 2858.0 618.0Q2909 676 2909 778ZM2537 801H2816Q2817 791 2817 771Q2817 662 2761 628Q2735 611 2695 611Q2632 611 2588.5 658.5Q2545 706 2537 801ZM3098 1076V407L3020 392V351L3167 332L3186 343V1076L3272 1086V1125H3016V1086Z" fill="currentColor" /></svg>