<svg viewBox="0 0 2238 710" xmlns="http://www.w3.org/2000/svg"><path d="M233 435 365 0H452V700H398V118H385L268 494H181L65 118H53V700H0V0H87L217 435ZM824 457Q824 456 815.0 450.5Q806 445 790.5 438.5Q775 432 754.0 426.5Q733 421 710 421Q693 421 677.5 428.0Q662 435 651.0 447.0Q640 459 633.5 474.5Q627 490 627 508V571Q627 589 633.5 604.5Q640 620 651.0 631.5Q662 643 677.0 650.0Q692 657 709 657Q724 657 743.5 651.5Q763 646 781 639Q802 631 824 621ZM875 651 894 669 858 705 831 678Q799 696 764.5 703.0Q730 710 710 710Q682 710 657.5 698.5Q633 687 615.0 667.5Q597 648 587.0 622.0Q577 596 577 567V511Q577 482 587.0 456.5Q597 431 615.0 412.0Q633 393 657.5 382.0Q682 371 710 371Q717 371 731.5 372.0Q746 373 762.5 376.0Q779 379 796.0 384.5Q813 390 825 399V365Q825 342 816.5 319.5Q808 297 794.0 279.0Q780 261 761.0 250.0Q742 239 720 239Q712 239 691.5 244.0Q671 249 649 254Q623 260 593 268L579 221Q612 213 640 206Q664 200 687.0 195.0Q710 190 720 190Q752 190 780.0 205.0Q808 220 829.0 244.5Q850 269 862.0 300.5Q874 332 874 365ZM1256 230 1228 272Q1211 262 1200.0 256.5Q1189 251 1179.5 248.0Q1170 245 1161.5 244.5Q1153 244 1143 244Q1128 244 1102.0 252.5Q1076 261 1050 285V699H1000V257L974 231L1009 195L1044 229Q1073 203 1099.5 196.5Q1126 190 1145 190Q1165 190 1189.0 198.0Q1213 206 1256 230ZM1552 200H1603L1490 700H1405L1286 200H1336L1411 500Q1415 515 1419.5 537.5Q1424 560 1428.0 581.0Q1432 602 1435.0 617.0Q1438 632 1438 632H1458Q1464 605 1469 580Q1474 559 1478.0 536.5Q1482 514 1486 499ZM1851 459H1853Q1871 459 1886.0 451.5Q1901 444 1912.0 431.5Q1923 419 1929.5 403.0Q1936 387 1936 369V327Q1936 303 1927.0 286.5Q1918 270 1903.5 260.0Q1889 250 1869.5 245.5Q1850 241 1829 241Q1810 241 1792.5 247.0Q1775 253 1762.0 264.0Q1749 275 1741.0 291.0Q1733 307 1733 327V458ZM1681 332Q1681 302 1691.5 276.0Q1702 250 1720.5 231.0Q1739 212 1763.5 201.0Q1788 190 1817 190H1851Q1879 190 1904.0 201.0Q1929 212 1948.0 231.0Q1967 250 1977.5 276.0Q1988 302 1988 332V365Q1988 407 1973.0 435.5Q1958 464 1932.0 482.0Q1906 500 1871.5 507.5Q1837 515 1798 515Q1782 515 1766.0 514.0Q1750 513 1733 511V571Q1740 611 1770.5 634.5Q1801 658 1840 658Q1844 658 1865.5 653.5Q1887 649 1911 644Q1939 638 1973 630L1985 683Q1948 691 1918 696Q1892 701 1868.5 705.0Q1845 709 1840 709Q1808 709 1779.0 697.5Q1750 686 1728.0 665.0Q1706 644 1693.5 615.5Q1681 587 1681 553ZM2103 0H2155V573Q2155 614 2175.5 629.5Q2196 645 2225 645H2238V699H2220Q2195 699 2173.5 691.5Q2152 684 2136.5 668.5Q2121 653 2112.0 628.0Q2103 603 2103 568Z" fill="currentColor" /></svg>