<svg viewBox="0 0 3621 1560" xmlns="http://www.w3.org/2000/svg"><path d="M52 1200 88 359H144L428 1146H433L718 359H774L810 1200H767L734 433H730L463 1200H398L132 433H127L95 1200ZM1276 1200V893Q1276 887 1276.0 870.0Q1276 853 1276.0 833.5Q1276 814 1276.0 799.5Q1276 785 1276 785Q1276 720 1262.0 682.0Q1248 644 1224.0 626.0Q1200 608 1170.5 603.0Q1141 598 1110 598Q1060 598 1013.0 606.0Q966 614 922 632V589Q972 571 1013.5 564.0Q1055 557 1110 556Q1181 554 1223.0 575.5Q1265 597 1285.5 633.0Q1306 669 1312.5 712.0Q1319 755 1319 796V1200ZM1095 1211Q1021 1212 976.0 1195.0Q931 1178 910.0 1142.0Q889 1106 886 1054Q883 986 902.0 939.0Q921 892 970.5 864.5Q1020 837 1108 829L1296 811V853L1108 871Q1003 881 963.0 925.5Q923 970 927 1043Q930 1093 949.0 1121.5Q968 1150 1005.0 1161.0Q1042 1172 1097 1170Q1139 1169 1172.0 1157.0Q1205 1145 1228.0 1118.5Q1251 1092 1263.5 1048.0Q1276 1004 1276 940L1294 1087H1272Q1257 1136 1233.0 1162.5Q1209 1189 1175.0 1199.0Q1141 1209 1095 1211ZM1672 1200Q1601 1200 1566.0 1179.5Q1531 1159 1520.5 1117.5Q1510 1076 1510 1014V793H1553V992Q1553 1026 1554.5 1056.0Q1556 1086 1565.5 1109.0Q1575 1132 1597.0 1145.0Q1619 1158 1661 1158H1710V1200ZM1374 602V564H1710V602ZM1510 932V323L1553 311V932ZM2129 1200V893Q2129 887 2129.0 870.0Q2129 853 2129.0 833.5Q2129 814 2129.0 799.5Q2129 785 2129 785Q2129 720 2115.0 682.0Q2101 644 2077.0 626.0Q2053 608 2023.5 603.0Q1994 598 1963 598Q1913 598 1866.0 606.0Q1819 614 1775 632V589Q1825 571 1866.5 564.0Q1908 557 1963 556Q2034 554 2076.0 575.5Q2118 597 2138.5 633.0Q2159 669 2165.5 712.0Q2172 755 2172 796V1200ZM1948 1211Q1874 1212 1829.0 1195.0Q1784 1178 1763.0 1142.0Q1742 1106 1739 1054Q1736 986 1755.0 939.0Q1774 892 1823.5 864.5Q1873 837 1961 829L2149 811V853L1961 871Q1856 881 1816.0 925.5Q1776 970 1780 1043Q1783 1093 1802.0 1121.5Q1821 1150 1858.0 1161.0Q1895 1172 1950 1170Q1992 1169 2025.0 1157.0Q2058 1145 2081.0 1118.5Q2104 1092 2116.5 1048.0Q2129 1004 2129 940L2147 1087H2125Q2110 1136 2086.0 1162.5Q2062 1189 2028.0 1199.0Q1994 1209 1948 1211ZM2343 866V758Q2343 685 2365.0 640.0Q2387 595 2430.5 574.5Q2474 554 2538 554Q2607 554 2655.0 576.0Q2703 598 2729.5 651.5Q2756 705 2758 800L2715 853Q2714 798 2709.0 751.5Q2704 705 2687.0 670.5Q2670 636 2634.0 617.0Q2598 598 2535 598Q2473 598 2435.0 619.5Q2397 641 2377.0 678.0Q2357 715 2350.0 763.5Q2343 812 2343 866ZM2299 1200V566H2343V758V1200ZM2345 764 2310 739V700H2356ZM2715 1200V853L2758 794V1200ZM3115 1499Q3062 1499 3012.0 1492.5Q2962 1486 2922.5 1469.0Q2883 1452 2860.0 1420.0Q2837 1388 2838 1338Q2838 1304 2847.5 1278.5Q2857 1253 2874.0 1235.0Q2891 1217 2914.5 1207.5Q2938 1198 2966 1196V1192Q2941 1189 2922.5 1171.0Q2904 1153 2904 1124Q2904 1114 2908.0 1101.5Q2912 1089 2926.0 1078.5Q2940 1068 2969 1064V1061Q2921 1036 2891.0 980.5Q2861 925 2861 824V823Q2861 742 2881.0 690.0Q2901 638 2936.0 608.5Q2971 579 3018.0 567.5Q3065 556 3120 556L3438 550V595H3284V600Q3325 617 3346.5 654.0Q3368 691 3375.5 738.5Q3383 786 3383 833V834Q3385 915 3363.5 966.0Q3342 1017 3304.0 1044.0Q3266 1071 3218.0 1081.0Q3170 1091 3120 1091Q3089 1091 3059.0 1087.0Q3029 1083 3001 1075Q2980 1079 2963.5 1089.0Q2947 1099 2947 1120Q2947 1141 2965.0 1153.0Q2983 1165 3012.0 1171.0Q3041 1177 3074.5 1179.5Q3108 1182 3139 1183Q3227 1185 3283.5 1192.0Q3340 1199 3371.5 1215.0Q3403 1231 3415.5 1261.0Q3428 1291 3428 1339Q3428 1385 3409.0 1416.0Q3390 1447 3351.5 1464.5Q3313 1482 3254.0 1490.0Q3195 1498 3115 1499ZM3113 1456Q3158 1456 3205.5 1453.0Q3253 1450 3293.5 1439.0Q3334 1428 3359.0 1404.0Q3384 1380 3384 1337Q3384 1295 3371.5 1274.5Q3359 1254 3335.0 1245.0Q3311 1236 3276 1232L3002 1216Q2993 1220 2973.5 1226.0Q2954 1232 2933.0 1244.0Q2912 1256 2897.0 1278.5Q2882 1301 2882 1337Q2882 1375 2900.0 1398.0Q2918 1421 2946.0 1433.5Q2974 1446 3006.0 1450.5Q3038 1455 3066.5 1455.5Q3095 1456 3113 1456ZM3120 1049Q3193 1049 3236.5 1030.5Q3280 1012 3301.5 980.5Q3323 949 3330.5 909.0Q3338 869 3338 826Q3338 782 3330.5 742.0Q3323 702 3301.5 670.0Q3280 638 3236.5 619.5Q3193 601 3120 601Q3048 601 3005.0 619.5Q2962 638 2940.5 670.0Q2919 702 2912.0 742.0Q2905 782 2905 826Q2905 869 2912.0 909.0Q2919 949 2940.5 980.5Q2962 1012 3005.0 1030.5Q3048 1049 3120 1049ZM3515 1200V566H3559V1200ZM3537 413Q3529 413 3522.5 411.0Q3516 409 3512.5 403.0Q3509 397 3509 385Q3509 367 3517.0 362.5Q3525 358 3537 358Q3549 358 3557.0 362.5Q3565 367 3565 385Q3565 397 3561.5 403.0Q3558 409 3551.5 411.0Q3545 413 3537 413Z" fill="currentColor" /></svg>