<svg viewBox="0 0 3513 1188" xmlns="http://www.w3.org/2000/svg"><path d="M0 889 36 48H92L376 835H381L666 48H722L758 889H715L682 122H678L411 889H346L80 122H75L43 889ZM1224 889V582Q1224 576 1224.0 559.0Q1224 542 1224.0 522.5Q1224 503 1224.0 488.5Q1224 474 1224 474Q1224 409 1210.0 371.0Q1196 333 1172.0 315.0Q1148 297 1118.5 292.0Q1089 287 1058 287Q1008 287 961.0 295.0Q914 303 870 321V278Q920 260 961.5 253.0Q1003 246 1058 245Q1129 243 1171.0 264.5Q1213 286 1233.5 322.0Q1254 358 1260.5 401.0Q1267 444 1267 485V889ZM1043 900Q969 901 924.0 884.0Q879 867 858.0 831.0Q837 795 834 743Q831 675 850.0 628.0Q869 581 918.5 553.5Q968 526 1056 518L1244 500V542L1056 560Q951 570 911.0 614.5Q871 659 875 732Q878 782 897.0 810.5Q916 839 953.0 850.0Q990 861 1045 859Q1087 858 1120.0 846.0Q1153 834 1176.0 807.5Q1199 781 1211.5 737.0Q1224 693 1224 629L1242 776H1220Q1205 825 1181.0 851.5Q1157 878 1123.0 888.0Q1089 898 1043 900ZM1620 889Q1549 889 1514.0 868.5Q1479 848 1468.5 806.5Q1458 765 1458 703V482H1501V681Q1501 715 1502.5 745.0Q1504 775 1513.5 798.0Q1523 821 1545.0 834.0Q1567 847 1609 847H1658V889ZM1322 291V253H1658V291ZM1458 621V12L1501 0V621ZM2077 889V582Q2077 576 2077.0 559.0Q2077 542 2077.0 522.5Q2077 503 2077.0 488.5Q2077 474 2077 474Q2077 409 2063.0 371.0Q2049 333 2025.0 315.0Q2001 297 1971.5 292.0Q1942 287 1911 287Q1861 287 1814.0 295.0Q1767 303 1723 321V278Q1773 260 1814.5 253.0Q1856 246 1911 245Q1982 243 2024.0 264.5Q2066 286 2086.5 322.0Q2107 358 2113.5 401.0Q2120 444 2120 485V889ZM1896 900Q1822 901 1777.0 884.0Q1732 867 1711.0 831.0Q1690 795 1687 743Q1684 675 1703.0 628.0Q1722 581 1771.5 553.5Q1821 526 1909 518L2097 500V542L1909 560Q1804 570 1764.0 614.5Q1724 659 1728 732Q1731 782 1750.0 810.5Q1769 839 1806.0 850.0Q1843 861 1898 859Q1940 858 1973.0 846.0Q2006 834 2029.0 807.5Q2052 781 2064.5 737.0Q2077 693 2077 629L2095 776H2073Q2058 825 2034.0 851.5Q2010 878 1976.0 888.0Q1942 898 1896 900ZM2291 555V447Q2291 374 2313.0 329.0Q2335 284 2378.5 263.5Q2422 243 2486 243Q2555 243 2603.0 265.0Q2651 287 2677.5 340.5Q2704 394 2706 489L2663 542Q2662 487 2657.0 440.5Q2652 394 2635.0 359.5Q2618 325 2582.0 306.0Q2546 287 2483 287Q2421 287 2383.0 308.5Q2345 330 2325.0 367.0Q2305 404 2298.0 452.5Q2291 501 2291 555ZM2247 889V255H2291V447V889ZM2293 453 2258 428V389H2304ZM2663 889V542L2706 483V889ZM3063 1188Q3010 1188 2960.0 1181.5Q2910 1175 2870.5 1158.0Q2831 1141 2808.0 1109.0Q2785 1077 2786 1027Q2786 993 2795.5 967.5Q2805 942 2822.0 924.0Q2839 906 2862.5 896.5Q2886 887 2914 885V881Q2889 878 2870.5 860.0Q2852 842 2852 813Q2852 803 2856.0 790.5Q2860 778 2874.0 767.5Q2888 757 2917 753V750Q2869 725 2839.0 669.5Q2809 614 2809 513V512Q2809 431 2829.0 379.0Q2849 327 2884.0 297.5Q2919 268 2966.0 256.5Q3013 245 3068 245L3386 239V284H3232V289Q3273 306 3294.5 343.0Q3316 380 3323.5 427.5Q3331 475 3331 522V523Q3333 604 3311.5 655.0Q3290 706 3252.0 733.0Q3214 760 3166.0 770.0Q3118 780 3068 780Q3037 780 3007.0 776.0Q2977 772 2949 764Q2928 768 2911.5 778.0Q2895 788 2895 809Q2895 830 2913.0 842.0Q2931 854 2960.0 860.0Q2989 866 3022.5 868.5Q3056 871 3087 872Q3175 874 3231.5 881.0Q3288 888 3319.5 904.0Q3351 920 3363.5 950.0Q3376 980 3376 1028Q3376 1074 3357.0 1105.0Q3338 1136 3299.5 1153.5Q3261 1171 3202.0 1179.0Q3143 1187 3063 1188ZM3061 1145Q3106 1145 3153.5 1142.0Q3201 1139 3241.5 1128.0Q3282 1117 3307.0 1093.0Q3332 1069 3332 1026Q3332 984 3319.5 963.5Q3307 943 3283.0 934.0Q3259 925 3224 921L2950 905Q2941 909 2921.5 915.0Q2902 921 2881.0 933.0Q2860 945 2845.0 967.5Q2830 990 2830 1026Q2830 1064 2848.0 1087.0Q2866 1110 2894.0 1122.5Q2922 1135 2954.0 1139.5Q2986 1144 3014.5 1144.5Q3043 1145 3061 1145ZM3068 738Q3141 738 3184.5 719.5Q3228 701 3249.5 669.5Q3271 638 3278.5 598.0Q3286 558 3286 515Q3286 471 3278.5 431.0Q3271 391 3249.5 359.0Q3228 327 3184.5 308.5Q3141 290 3068 290Q2996 290 2953.0 308.5Q2910 327 2888.5 359.0Q2867 391 2860.0 431.0Q2853 471 2853 515Q2853 558 2860.0 598.0Q2867 638 2888.5 669.5Q2910 701 2953.0 719.5Q2996 738 3068 738ZM3463 889V255H3507V889ZM3485 102Q3477 102 3470.5 100.0Q3464 98 3460.5 92.0Q3457 86 3457 74Q3457 56 3465.0 51.5Q3473 47 3485 47Q3497 47 3505.0 51.5Q3513 56 3513 74Q3513 86 3509.5 92.0Q3506 98 3499.5 100.0Q3493 102 3485 102Z" fill="currentColor" /></svg>