<svg viewBox="0 0 9115.0 1554" xmlns="http://www.w3.org/2000/svg"><path d="M1752 1493 1545 1534 1344 279 1014 1366 766 1395 392 340 211 1487 0 1458 277 0H484L887 1153L1246 12L1481 6ZM3001 700 2835 801 2833 795Q2807 744 2770.0 703.5Q2733 663 2687.0 634.5Q2641 606 2588.5 591.0Q2536 576 2479 576Q2397 576 2325.5 607.0Q2254 638 2200.5 692.0Q2147 746 2116.0 818.5Q2085 891 2085 973Q2085 1054 2116.0 1126.0Q2147 1198 2200.5 1252.0Q2254 1306 2325.5 1337.0Q2397 1368 2479 1368Q2532 1368 2582.0 1354.0Q2632 1340 2676.5 1314.5Q2721 1289 2758.0 1252.5Q2795 1216 2821 1171L2825 1165L2999 1264L2997 1270Q2958 1335 2902.0 1387.0Q2846 1439 2778.5 1476.5Q2711 1514 2634.5 1534.0Q2558 1554 2479 1554Q2366 1554 2260.5 1510.0Q2155 1466 2072.5 1388.0Q1990 1310 1940.5 1204.0Q1891 1098 1891 973Q1891 898 1911.5 825.5Q1932 753 1969.5 688.0Q2007 623 2060.5 568.0Q2114 513 2179.0 473.5Q2244 434 2320.0 411.5Q2396 389 2479 389Q2566 389 2644.5 410.0Q2723 431 2790.0 470.5Q2857 510 2910.0 567.0Q2963 624 2999 696ZM4338 1473 3248 1548 3242 27 3449 16 3443 1329 4328 1260ZM5305 1513 5319 1372Q5197 1450 5079.5 1485.0Q4962 1520 4860 1520Q4788 1520 4720.5 1501.5Q4653 1483 4601.5 1444.5Q4550 1406 4518.5 1346.5Q4487 1287 4487 1206Q4487 1125 4511.0 1061.0Q4535 997 4577.0 948.0Q4619 899 4676.0 864.0Q4733 829 4798.5 807.0Q4864 785 4936.0 774.5Q5008 764 5079 764Q5145 764 5202.0 769.0Q5259 774 5303 782Q5290 732 5271.0 683.5Q5252 635 5222.5 596.5Q5193 558 5150.0 534.0Q5107 510 5047 510Q5008 510 4958.0 521.5Q4908 533 4848.0 563.0Q4788 593 4717.0 645.5Q4646 698 4565 780L4444 633Q4540 543 4628.0 486.0Q4716 429 4793.5 396.5Q4871 364 4937.5 352.0Q5004 340 5057 340Q5149 340 5221.0 371.5Q5293 403 5347.5 457.5Q5402 512 5439.5 585.5Q5477 659 5501.0 743.5Q5525 828 5535.5 919.0Q5546 1010 5546 1100Q5546 1196 5535.0 1306.0Q5524 1416 5501 1546ZM5333 1149Q5335 1099 5336.0 1050.0Q5337 1001 5331 948Q5282 933 5228.0 924.0Q5174 915 5120 915Q5030 915 4945.5 936.0Q4861 957 4800.0 997.0Q4739 1037 4708.5 1095.0Q4678 1153 4696 1227Q4710 1287 4750.5 1311.0Q4791 1335 4848 1335Q4906 1335 4973.5 1315.5Q5041 1296 5107.5 1267.5Q5174 1239 5233.0 1207.0Q5292 1175 5333 1149ZM6558 887Q6557 838 6549.5 802.0Q6542 766 6530.5 740.0Q6519 714 6504.5 697.0Q6490 680 6475 669Q6440 644 6396 645Q6368 649 6336.5 668.5Q6305 688 6272.0 718.5Q6239 749 6205.5 787.5Q6172 826 6141.0 866.5Q6110 907 6082.0 947.0Q6054 987 6032 1020Q6033 1095 6035.0 1167.5Q6037 1240 6038.5 1302.5Q6040 1365 6042.5 1415.5Q6045 1466 6048 1497L5833 1524Q5827 1352 5822.0 1212.5Q5817 1073 5813.0 963.0Q5809 853 5806.5 769.0Q5804 685 5802 624Q5798 481 5796 412L6024 408Q6025 469 6025.5 532.5Q6026 596 6027 649Q6028 711 6028 770Q6057 724 6098.5 669.0Q6140 614 6192.5 565.0Q6245 516 6307.5 479.5Q6370 443 6441 434Q6521 430 6587 468Q6615 484 6642.5 510.5Q6670 537 6693.5 578.5Q6717 620 6733.0 677.5Q6749 735 6755 813ZM7400 1358Q7453 1358 7505.0 1341.5Q7557 1325 7601.0 1293.5Q7645 1262 7677.5 1215.0Q7710 1168 7725 1106L7918 1145Q7890 1236 7839.0 1310.0Q7788 1384 7720.0 1437.0Q7652 1490 7570.5 1519.0Q7489 1548 7400 1548Q7268 1548 7166.0 1508.0Q7064 1468 6994.0 1395.0Q6924 1322 6887.5 1219.0Q6851 1116 6851 989Q6851 864 6893.5 755.5Q6936 647 7010.0 567.0Q7084 487 7184.0 441.0Q7284 395 7400 395Q7504 395 7596.0 435.5Q7688 476 7759.0 547.5Q7830 619 7876.0 716.0Q7922 813 7934 926L7068 1055Q7075 1126 7103.0 1182.5Q7131 1239 7174.5 1278.0Q7218 1317 7275.5 1337.5Q7333 1358 7400 1358ZM7676 797 7670 778Q7632 679 7565.5 623.0Q7499 567 7400 567Q7358 567 7308.0 581.5Q7258 596 7211.0 631.0Q7164 666 7126.5 724.5Q7089 783 7074 870ZM8163 1524Q8157 1352 8152.0 1212.5Q8147 1073 8143.0 963.0Q8139 853 8136.5 769.0Q8134 685 8132 624Q8128 481 8126 412L8354 408L8358 696Q8391 639 8433.0 588.5Q8475 538 8524.0 499.0Q8573 460 8628.5 436.0Q8684 412 8745 408Q8821 403 8877.5 421.0Q8934 439 8974.0 471.0Q9014 503 9040.0 546.5Q9066 590 9081.0 636.5Q9096 683 9102.5 729.0Q9109 775 9111 813Q9117 985 9114.0 1159.0Q9111 1333 9107 1520L8902 1513Q8910 1352 8916.5 1191.0Q8923 1030 8915 866Q8915 848 8912.5 819.5Q8910 791 8901.5 759.0Q8893 727 8878.0 695.5Q8863 664 8839.0 640.5Q8815 617 8780.5 605.0Q8746 593 8700 600Q8621 612 8539.5 715.5Q8458 819 8364 1018Q8368 1179 8370.5 1274.5Q8373 1370 8375 1419Q8377 1477 8378 1497Z" /></svg>