<svg viewBox="0 0 10878.0 1501" xmlns="http://www.w3.org/2000/svg"><path d="M680 1277Q758 1061 907.0 644.0Q1056 227 1130 23H1363V1477H1196V430L1197 304Q1117 535 963.0 959.0Q809 1383 776 1477H586Q555 1391 400.5 963.0Q246 535 165 304L167 430V1477H0V23H232ZM2448 1221Q2392 1351 2287.5 1426.0Q2183 1501 2028 1501Q1942 1501 1870.0 1476.0Q1798 1451 1745.5 1405.5Q1693 1360 1656.0 1302.5Q1619 1245 1596 1175Q1562 1073 1562 949Q1562 759 1632.5 623.5Q1703 488 1832 427Q1915 388 2014 388Q2100 388 2171.0 415.0Q2242 442 2292.0 490.5Q2342 539 2376.5 599.0Q2411 659 2434 732Q2467 844 2467 987H1740Q1742 1147 1814.5 1243.5Q1887 1340 2031 1340Q2208 1340 2282 1172ZM2275 830Q2242 625 2108 568Q2065 550 2017 550Q1934 550 1875.5 595.5Q1817 641 1784 713Q1759 765 1751 830ZM3543 1221Q3487 1351 3382.5 1426.0Q3278 1501 3123 1501Q3037 1501 2965.0 1476.0Q2893 1451 2840.5 1405.5Q2788 1360 2751.0 1302.5Q2714 1245 2691 1175Q2657 1073 2657 949Q2657 759 2727.5 623.5Q2798 488 2927 427Q3010 388 3109 388Q3195 388 3266.0 415.0Q3337 442 3387.0 490.5Q3437 539 3471.5 599.0Q3506 659 3529 732Q3562 844 3562 987H2835Q2837 1147 2909.5 1243.5Q2982 1340 3126 1340Q3303 1340 3377 1172ZM3370 830Q3337 625 3203 568Q3160 550 3112 550Q3029 550 2970.5 595.5Q2912 641 2879 713Q2854 765 2846 830ZM4268 623Q4209 575 4139 575Q4033 575 3980.5 654.5Q3928 734 3928 858V1475H3755V417H3918L3925 517Q3952 482 3987.5 455.0Q4023 428 4070.5 411.0Q4118 394 4169 394Q4271 394 4363 461ZM4940 542Q4774 542 4735 710L4562 663Q4605 536 4703.0 461.0Q4801 386 4952 386Q5048 386 5125.5 417.5Q5203 449 5254.0 502.5Q5305 556 5335 630Q5369 712 5369 824V1477H5199L5191 1370Q5072 1498 4891 1498Q4765 1498 4674.5 1445.5Q4584 1393 4542 1302Q4514 1240 4514 1165Q4514 1096 4536.0 1038.5Q4558 981 4597.0 939.5Q4636 898 4684.5 869.5Q4733 841 4790 824Q4870 800 4954 800Q5082 800 5184 852V822Q5184 688 5124.0 615.0Q5064 542 4940 542ZM4959 956Q4842 956 4771.5 1006.5Q4701 1057 4701 1160Q4701 1338 4928 1338Q5016 1338 5077.5 1296.5Q5139 1255 5166 1186Q5184 1139 5184 1085V1013Q5105 956 4959 956ZM6167 16H6353V1477H6167ZM6729 511Q6828 387 7006 387Q7146 387 7241.0 451.5Q7336 516 7383 628Q7419 713 7419 834V1476H7245V844Q7245 714 7178.0 636.0Q7111 558 6990 558Q6902 558 6842.0 601.0Q6782 644 6754 717Q6732 771 6732 844V1476H6559V410H6722ZM7597 150Q7597 105 7618.0 68.5Q7639 32 7672 14Q7695 0 7724 0Q7782 0 7816.5 44.0Q7851 88 7851.0 150.0Q7851 212 7816.5 256.0Q7782 300 7724.0 300.0Q7666 300 7631.5 256.0Q7597 212 7597 150ZM7812 1477H7639V420H7812ZM8211 513Q8238 478 8271.0 452.0Q8304 426 8350.5 408.0Q8397 390 8448 390Q8547 390 8621.5 437.0Q8696 484 8742 561Q8789 483 8864.5 436.5Q8940 390 9040 390Q9105 390 9160.0 410.0Q9215 430 9256.0 465.5Q9297 501 9326.0 545.0Q9355 589 9375 642Q9406 726 9406 837V1471H9233V844Q9233 718 9181.0 639.5Q9129 561 9021 561Q8916 561 8863.0 638.0Q8810 715 8810 837V1471H8637V844Q8637 718 8585.0 639.5Q8533 561 8425 561Q8319 561 8266.5 640.5Q8214 720 8214 844V1471H8041V413H8204ZM10016 542Q9850 542 9811 710L9638 663Q9681 536 9779.0 461.0Q9877 386 10028 386Q10124 386 10201.5 417.5Q10279 449 10330.0 502.5Q10381 556 10411 630Q10445 712 10445 824V1477H10275L10267 1370Q10148 1498 9967 1498Q9841 1498 9750.5 1445.5Q9660 1393 9618 1302Q9590 1240 9590 1165Q9590 1096 9612.0 1038.5Q9634 981 9673.0 939.5Q9712 898 9760.5 869.5Q9809 841 9866 824Q9946 800 10030 800Q10158 800 10260 852V822Q10260 688 10200.0 615.0Q10140 542 10016 542ZM10035 956Q9918 956 9847.5 1006.5Q9777 1057 9777 1160Q9777 1338 10004 1338Q10092 1338 10153.5 1296.5Q10215 1255 10242 1186Q10260 1139 10260 1085V1013Q10181 956 10035 956ZM10624 150Q10624 105 10645.0 68.5Q10666 32 10699 14Q10722 0 10751 0Q10809 0 10843.5 44.0Q10878 88 10878.0 150.0Q10878 212 10843.5 256.0Q10809 300 10751.0 300.0Q10693 300 10658.5 256.0Q10624 212 10624 150ZM10839 1477H10666V420H10839Z" /></svg>