<svg viewBox="0 0 10662 2594" xmlns="http://www.w3.org/2000/svg"><path d="M342 1512Q356 1512 370.0 1515.5Q384 1519 394.5 1527.5Q405 1536 411.5 1551.0Q418 1566 418 1588Q418 1620 402.5 1640.0Q387 1660 369.0 1674.0Q351 1688 335.5 1699.5Q320 1711 320 1726Q320 1737 329.0 1744.5Q338 1752 351.0 1756.5Q364 1761 379.0 1762.5Q394 1764 406 1764Q454 1764 494.5 1758.5Q535 1753 573.5 1742.0Q612 1731 651.5 1714.5Q691 1698 738 1676Q767 1663 806.0 1638.5Q845 1614 889.0 1583.0Q933 1552 979.5 1517.0Q1026 1482 1068.5 1447.0Q1111 1412 1148.0 1379.5Q1185 1347 1210 1322L1630 910Q1837 706 2063.5 554.0Q2290 402 2536 302Q2541 300 2551.0 298.0Q2561 296 2572 296Q2581 296 2587.5 298.5Q2594 301 2594 310Q2594 326 2588.5 337.0Q2583 348 2575.0 355.5Q2567 363 2558.5 368.0Q2550 373 2544 376Q2505 395 2454.0 435.0Q2403 475 2345.0 529.5Q2287 584 2224.5 649.5Q2162 715 2101.0 783.0Q2040 851 1983.0 919.0Q1926 987 1878 1046Q1835 1099 1786.0 1154.0Q1737 1209 1687.0 1264.0Q1637 1319 1588.5 1372.0Q1540 1425 1498 1474Q1481 1495 1469.0 1510.0Q1457 1525 1446.0 1537.5Q1435 1550 1422.5 1562.0Q1410 1574 1392 1590Q1436 1560 1482.5 1524.5Q1529 1489 1572.5 1453.5Q1616 1418 1653.0 1385.0Q1690 1352 1716 1326L2136 914Q2343 710 2569.5 558.0Q2796 406 3042 306Q3047 304 3057.0 302.0Q3067 300 3078 300Q3087 300 3093.5 302.5Q3100 305 3100 314Q3100 330 3094.5 341.0Q3089 352 3081.0 359.5Q3073 367 3064.5 372.0Q3056 377 3050 380Q3011 398 2960.0 438.5Q2909 479 2851.0 533.5Q2793 588 2730.5 653.5Q2668 719 2607.0 787.0Q2546 855 2489.0 923.0Q2432 991 2384 1050Q2334 1111 2276.5 1175.0Q2219 1239 2161.0 1302.5Q2103 1366 2049.0 1425.5Q1995 1485 1953.5 1537.0Q1912 1589 1887.0 1631.0Q1862 1673 1862 1700Q1862 1741 1876.0 1753.5Q1890 1766 1928 1766Q1970 1766 2024.0 1752.5Q2078 1739 2134.5 1719.0Q2191 1699 2245.5 1675.0Q2300 1651 2344 1630L2354 1654Q2202 1728 2079.0 1771.0Q1956 1814 1870 1814Q1846 1814 1820.0 1810.0Q1794 1806 1772.0 1793.0Q1750 1780 1736.0 1756.0Q1722 1732 1722 1692Q1722 1655 1760.0 1595.0Q1798 1535 1862.5 1455.5Q1927 1376 2012.0 1280.5Q2097 1185 2192 1078Q2243 1020 2285.5 972.0Q2328 924 2366.0 882.0Q2404 840 2441.0 799.5Q2478 759 2519.0 716.0Q2560 673 2608.5 623.5Q2657 574 2718 512Q2657 547 2583.0 598.5Q2509 650 2434.0 709.0Q2359 768 2289.5 829.0Q2220 890 2168 942Q2099 1013 2027.0 1087.5Q1955 1162 1880.0 1237.0Q1805 1312 1726.0 1384.5Q1647 1457 1564 1522L1554 1530Q1503 1569 1446 1608Q1405 1637 1359.5 1665.5Q1314 1694 1266 1718Q1207 1748 1166.0 1766.0Q1125 1784 1096.5 1794.0Q1068 1804 1049.5 1807.0Q1031 1810 1018 1810Q1013 1810 1005.5 1809.0Q998 1808 991.0 1805.0Q984 1802 979.0 1797.0Q974 1792 974 1784Q974 1766 1006.5 1746.0Q1039 1726 1092 1700Q1152 1671 1203.5 1625.5Q1255 1580 1312 1506Q1345 1463 1386.5 1414.0Q1428 1365 1476.0 1310.5Q1524 1256 1577.0 1196.5Q1630 1137 1686 1074Q1737 1016 1779.5 968.0Q1822 920 1860.0 878.0Q1898 836 1935.0 795.5Q1972 755 2013.0 712.0Q2054 669 2102.5 619.5Q2151 570 2212 508Q2151 543 2077.0 594.5Q2003 646 1928.0 705.0Q1853 764 1783.5 825.0Q1714 886 1662 938Q1564 1039 1459.5 1147.0Q1355 1255 1243.0 1358.0Q1131 1461 1010.0 1553.0Q889 1645 758 1712Q702 1740 654.0 1758.5Q606 1777 562.5 1788.5Q519 1800 478.5 1805.0Q438 1810 398 1810Q347 1810 311.5 1795.5Q276 1781 254.0 1758.5Q232 1736 222.0 1709.0Q212 1682 212 1656Q212 1625 223.0 1598.5Q234 1572 252.0 1552.5Q270 1533 293.5 1522.5Q317 1512 342 1512ZM3008 1654Q2880 1713 2794.0 1746.0Q2708 1779 2647.5 1795.5Q2587 1812 2543.0 1816.0Q2499 1820 2454 1820Q2419 1820 2387.5 1811.0Q2356 1802 2332.0 1783.0Q2308 1764 2294.0 1734.0Q2280 1704 2280 1662Q2280 1614 2300.5 1562.5Q2321 1511 2357.0 1461.5Q2393 1412 2441.5 1368.0Q2490 1324 2547.0 1290.5Q2604 1257 2666.5 1237.5Q2729 1218 2792 1218Q2814 1218 2844.0 1222.0Q2874 1226 2901.0 1237.5Q2928 1249 2947.0 1269.0Q2966 1289 2966 1320Q2966 1348 2940.0 1378.0Q2914 1408 2870.5 1438.5Q2827 1469 2770.0 1499.0Q2713 1529 2652.5 1556.5Q2592 1584 2531.0 1608.0Q2470 1632 2418 1650Q2416 1658 2416.0 1666.0Q2416 1674 2416 1682Q2416 1720 2441.0 1745.0Q2466 1770 2510 1770Q2549 1770 2587.0 1767.0Q2625 1764 2678.0 1750.5Q2731 1737 2807.0 1708.5Q2883 1680 2998 1630ZM2778 1280Q2752 1280 2720.0 1294.5Q2688 1309 2653.0 1333.5Q2618 1358 2583.5 1391.0Q2549 1424 2518.5 1461.5Q2488 1499 2464.0 1538.5Q2440 1578 2428 1616Q2472 1600 2519.5 1581.0Q2567 1562 2612.5 1541.0Q2658 1520 2699.0 1496.5Q2740 1473 2771.0 1447.0Q2802 1421 2820.0 1393.5Q2838 1366 2838 1336Q2838 1312 2825.5 1296.0Q2813 1280 2778 1280ZM3724 958Q3724 975 3715.0 990.0Q3706 1005 3691.5 1016.0Q3677 1027 3658.0 1033.5Q3639 1040 3620 1040Q3606 1040 3592.5 1037.0Q3579 1034 3567.5 1026.0Q3556 1018 3549.0 1004.5Q3542 991 3542 970Q3542 952 3552.0 939.0Q3562 926 3577.0 918.0Q3592 910 3611.0 906.0Q3630 902 3648 902Q3678 902 3698.5 915.5Q3719 929 3724 958ZM3132 1654Q3117 1672 3108.5 1690.5Q3100 1709 3100 1720Q3100 1746 3116.5 1753.0Q3133 1760 3162 1760Q3189 1760 3228.5 1755.5Q3268 1751 3320.5 1737.0Q3373 1723 3439.5 1697.5Q3506 1672 3588 1630L3598 1654Q3521 1700 3445.5 1731.0Q3370 1762 3300.5 1781.0Q3231 1800 3170.0 1808.0Q3109 1816 3062 1816Q3008 1816 2983.0 1789.5Q2958 1763 2958 1718Q2958 1694 2974.0 1663.5Q2990 1633 3026 1586Q3064 1538 3106.0 1492.0Q3148 1446 3190 1396Q3218 1363 3248.0 1330.5Q3278 1298 3305.0 1272.0Q3332 1246 3354.0 1230.0Q3376 1214 3388 1214Q3396 1214 3410.0 1217.0Q3424 1220 3437.5 1225.5Q3451 1231 3460.5 1239.5Q3470 1248 3470 1258Q3470 1269 3455.5 1286.0Q3441 1303 3420 1326L3254 1514Q3247 1521 3233.5 1535.5Q3220 1550 3203.5 1569.5Q3187 1589 3168.0 1611.0Q3149 1633 3132 1654ZM4234 1654Q4106 1713 4020.0 1746.0Q3934 1779 3873.5 1795.5Q3813 1812 3769.0 1816.0Q3725 1820 3680 1820Q3645 1820 3613.5 1811.0Q3582 1802 3558.0 1783.0Q3534 1764 3520.0 1734.0Q3506 1704 3506 1662Q3506 1614 3526.5 1562.5Q3547 1511 3583.0 1461.5Q3619 1412 3667.5 1368.0Q3716 1324 3773.0 1290.5Q3830 1257 3892.5 1237.5Q3955 1218 4018 1218Q4040 1218 4070.0 1222.0Q4100 1226 4127.0 1237.5Q4154 1249 4173.0 1269.0Q4192 1289 4192 1320Q4192 1348 4166.0 1378.0Q4140 1408 4096.5 1438.5Q4053 1469 3996.0 1499.0Q3939 1529 3878.5 1556.5Q3818 1584 3757.0 1608.0Q3696 1632 3644 1650Q3642 1658 3642.0 1666.0Q3642 1674 3642 1682Q3642 1720 3667.0 1745.0Q3692 1770 3736 1770Q3775 1770 3813.0 1767.0Q3851 1764 3904.0 1750.5Q3957 1737 4033.0 1708.5Q4109 1680 4224 1630ZM4004 1280Q3978 1280 3946.0 1294.5Q3914 1309 3879.0 1333.5Q3844 1358 3809.5 1391.0Q3775 1424 3744.5 1461.5Q3714 1499 3690.0 1538.5Q3666 1578 3654 1616Q3698 1600 3745.5 1581.0Q3793 1562 3838.5 1541.0Q3884 1520 3925.0 1496.5Q3966 1473 3997.0 1447.0Q4028 1421 4046.0 1393.5Q4064 1366 4064 1336Q4064 1312 4051.5 1296.0Q4039 1280 4004 1280ZM6564 998Q6625 931 6670.5 882.0Q6716 833 6748.0 797.5Q6780 762 6800.5 739.0Q6821 716 6834 702Q6922 605 7006.0 532.0Q7090 459 7171.5 409.5Q7253 360 7334.0 335.0Q7415 310 7498 310Q7518 310 7540.5 312.0Q7563 314 7582.0 322.0Q7601 330 7613.5 346.0Q7626 362 7626 390Q7626 465 7583.5 538.0Q7541 611 7472.0 677.0Q7403 743 7315.0 801.5Q7227 860 7137.5 905.0Q7048 950 6964.0 981.0Q6880 1012 6818 1024Q6765 1036 6700 1042Q6653 1095 6603.0 1152.5Q6553 1210 6502.0 1267.0Q6451 1324 6401.5 1378.0Q6352 1432 6308 1478Q6238 1551 6165.0 1612.0Q6092 1673 6013.0 1717.5Q5934 1762 5849.0 1787.0Q5764 1812 5670 1812Q5561 1812 5501.5 1770.0Q5442 1728 5442 1660Q5442 1635 5450.0 1608.5Q5458 1582 5474.5 1560.5Q5491 1539 5515.5 1525.5Q5540 1512 5572 1512Q5608 1512 5628.0 1531.0Q5648 1550 5648 1586Q5648 1619 5632.5 1639.5Q5617 1660 5599.0 1674.0Q5581 1688 5565.5 1699.5Q5550 1711 5550 1726Q5550 1747 5574.0 1757.5Q5598 1768 5640 1768Q5720 1768 5789.0 1744.0Q5858 1720 5921.0 1677.0Q5984 1634 6044.5 1574.0Q6105 1514 6168 1442Q6246 1353 6336.5 1253.0Q6427 1153 6522 1046Q6474 1042 6414.5 1031.0Q6355 1020 6303.0 999.0Q6251 978 6215.5 946.5Q6180 915 6180 868Q6180 830 6200.5 800.5Q6221 771 6254.0 749.0Q6287 727 6329.0 711.5Q6371 696 6414.0 686.0Q6457 676 6497.5 670.5Q6538 665 6568 662L6574 674Q6542 676 6496.0 691.0Q6450 706 6406.5 731.5Q6363 757 6332.5 791.5Q6302 826 6302 866Q6302 904 6328.0 928.5Q6354 953 6393.0 968.0Q6432 983 6478.0 989.5Q6524 996 6564 998ZM7114 582Q7017 679 6927.5 780.5Q6838 882 6746 988Q6772 985 6798.5 979.5Q6825 974 6852 966Q6888 957 6937.0 937.5Q6986 918 7041.5 891.0Q7097 864 7155.5 830.5Q7214 797 7269.5 759.0Q7325 721 7374.5 680.0Q7424 639 7461.5 596.5Q7499 554 7520.5 511.5Q7542 469 7542 428Q7542 415 7535.0 407.0Q7528 399 7517.0 394.5Q7506 390 7493.0 389.0Q7480 388 7468 388Q7423 388 7377.5 403.5Q7332 419 7287.0 446.0Q7242 473 7198.5 508.0Q7155 543 7114 582ZM7018 1658Q7018 1686 7029.0 1705.5Q7040 1725 7060.0 1737.0Q7080 1749 7108.0 1754.5Q7136 1760 7170 1760Q7255 1760 7357.5 1726.5Q7460 1693 7598 1624L7608 1648Q7558 1680 7493.0 1710.5Q7428 1741 7357.5 1764.5Q7287 1788 7215.0 1802.0Q7143 1816 7080 1816Q7034 1816 6995.0 1807.5Q6956 1799 6927.5 1780.0Q6899 1761 6882.5 1731.0Q6866 1701 6866 1658Q6866 1612 6888.0 1560.5Q6910 1509 6947.5 1459.0Q6985 1409 7034.5 1363.5Q7084 1318 7139.0 1283.5Q7194 1249 7250.0 1228.5Q7306 1208 7358 1208Q7391 1208 7420.0 1214.0Q7449 1220 7470.0 1232.5Q7491 1245 7503.5 1265.5Q7516 1286 7516 1314Q7516 1337 7505.5 1359.0Q7495 1381 7477.0 1398.0Q7459 1415 7436.0 1425.5Q7413 1436 7388 1436Q7356 1436 7342.0 1421.0Q7328 1406 7328 1392Q7328 1367 7343.5 1353.0Q7359 1339 7378.0 1329.5Q7397 1320 7412.5 1312.5Q7428 1305 7428 1294Q7428 1282 7420.0 1277.0Q7412 1272 7400 1272Q7357 1272 7312.0 1292.5Q7267 1313 7224.5 1346.5Q7182 1380 7144.5 1421.5Q7107 1463 7079.0 1506.0Q7051 1549 7034.5 1589.0Q7018 1629 7018 1658ZM7896 1080Q7917 1080 7936.5 1089.0Q7956 1098 7968 1116Q7983 1134 7987.5 1162.5Q7992 1191 7992 1224L7990 1274Q8004 1279 8025.5 1282.5Q8047 1286 8070 1286Q8114 1286 8173.0 1271.0Q8232 1256 8312 1212Q8314 1214 8316.0 1218.0Q8318 1222 8321 1227Q8324 1232 8328 1238Q8310 1247 8298.0 1256.0Q8286 1265 8274 1276Q8261 1287 8240.5 1308.5Q8220 1330 8198.0 1354.0Q8176 1378 8155.5 1402.5Q8135 1427 8122 1444Q8090 1485 8060.5 1527.0Q8031 1569 8008.5 1606.0Q7986 1643 7973.0 1672.5Q7960 1702 7960 1718Q7960 1744 7976.5 1751.0Q7993 1758 8022 1758Q8049 1758 8088.5 1753.5Q8128 1749 8180.5 1735.0Q8233 1721 8299.5 1695.5Q8366 1670 8448 1628L8458 1652Q8381 1698 8305.5 1729.0Q8230 1760 8160.5 1779.0Q8091 1798 8030.0 1806.0Q7969 1814 7922 1814Q7868 1814 7843.0 1787.5Q7818 1761 7818 1716Q7818 1698 7828.0 1675.0Q7838 1652 7859.0 1620.5Q7880 1589 7913.5 1548.0Q7947 1507 7994 1452Q7997 1449 8007.0 1437.5Q8017 1426 8030.5 1411.5Q8044 1397 8059.5 1380.5Q8075 1364 8088.0 1350.0Q8101 1336 8110.5 1326.0Q8120 1316 8122 1314Q8108 1317 8091.0 1319.5Q8074 1322 8056 1322Q8039 1322 8019.0 1321.5Q7999 1321 7982 1318Q7976 1348 7965.5 1376.0Q7955 1404 7937.0 1431.0Q7919 1458 7891.5 1484.0Q7864 1510 7824 1536L7798 1520Q7839 1497 7865.0 1469.0Q7891 1441 7906.0 1412.5Q7921 1384 7926.5 1355.5Q7932 1327 7934 1302Q7908 1294 7884.5 1281.0Q7861 1268 7843.5 1251.0Q7826 1234 7816.0 1212.0Q7806 1190 7806 1164Q7806 1128 7831.5 1104.0Q7857 1080 7896 1080ZM9170 958Q9170 975 9161.0 990.0Q9152 1005 9137.5 1016.0Q9123 1027 9104.0 1033.5Q9085 1040 9066 1040Q9052 1040 9038.5 1037.0Q9025 1034 9013.5 1026.0Q9002 1018 8995.0 1004.5Q8988 991 8988 970Q8988 952 8998.0 939.0Q9008 926 9023.0 918.0Q9038 910 9057.0 906.0Q9076 902 9094 902Q9124 902 9144.5 915.5Q9165 929 9170 958ZM8578 1654Q8563 1672 8554.5 1690.5Q8546 1709 8546 1720Q8546 1746 8562.5 1753.0Q8579 1760 8608 1760Q8635 1760 8674.5 1755.5Q8714 1751 8766.5 1737.0Q8819 1723 8885.5 1697.5Q8952 1672 9034 1630L9044 1654Q8967 1700 8891.5 1731.0Q8816 1762 8746.5 1781.0Q8677 1800 8616.0 1808.0Q8555 1816 8508 1816Q8454 1816 8429.0 1789.5Q8404 1763 8404 1718Q8404 1694 8420.0 1663.5Q8436 1633 8472 1586Q8510 1538 8552.0 1492.0Q8594 1446 8636 1396Q8664 1363 8694.0 1330.5Q8724 1298 8751.0 1272.0Q8778 1246 8800.0 1230.0Q8822 1214 8834 1214Q8842 1214 8856.0 1217.0Q8870 1220 8883.5 1225.5Q8897 1231 8906.5 1239.5Q8916 1248 8916 1258Q8916 1269 8901.5 1286.0Q8887 1303 8866 1326L8700 1514Q8693 1521 8679.5 1535.5Q8666 1550 8649.5 1569.5Q8633 1589 8614.0 1611.0Q8595 1633 8578 1654ZM9484 1374Q9404 1431 9332.5 1495.0Q9261 1559 9192 1628Q9183 1638 9147.0 1678.5Q9111 1719 9057.5 1779.0Q9004 1839 8938.5 1913.0Q8873 1987 8804.5 2063.0Q8736 2139 8670.5 2212.5Q8605 2286 8552.0 2344.5Q8499 2403 8463.5 2441.0Q8428 2479 8420 2486Q8408 2498 8398.0 2505.0Q8388 2512 8374 2512Q8369 2512 8363.5 2511.5Q8358 2511 8350 2508Q8332 2502 8319.0 2491.5Q8306 2481 8306 2466Q8306 2455 8311.5 2446.0Q8317 2437 8332 2420L9326 1292Q9334 1284 9341.0 1275.5Q9348 1267 9356 1258Q9384 1225 9414.0 1192.5Q9444 1160 9471.0 1134.0Q9498 1108 9520.0 1092.0Q9542 1076 9554 1076Q9562 1076 9576.0 1079.0Q9590 1082 9603.5 1087.5Q9617 1093 9626.5 1101.5Q9636 1110 9636 1120Q9636 1131 9621.5 1148.0Q9607 1165 9586 1188L9476 1312Q9541 1265 9616.0 1240.5Q9691 1216 9768 1216Q9832 1216 9855.0 1234.5Q9878 1253 9878 1286Q9878 1324 9856.0 1364.5Q9834 1405 9801.5 1445.0Q9769 1485 9731.5 1523.5Q9694 1562 9661.5 1597.0Q9629 1632 9607.5 1662.5Q9586 1693 9586 1716Q9586 1730 9591.0 1738.5Q9596 1747 9603.5 1751.5Q9611 1756 9620.5 1757.0Q9630 1758 9640 1758Q9697 1758 9753.0 1747.0Q9809 1736 9863.5 1718.0Q9918 1700 9971.0 1676.5Q10024 1653 10074 1628L10084 1652Q10051 1674 9993.0 1702.0Q9935 1730 9863.0 1755.0Q9791 1780 9709.5 1797.0Q9628 1814 9548 1814Q9501 1814 9472.5 1791.0Q9444 1768 9444 1718Q9444 1694 9460.0 1662.0Q9476 1630 9501.5 1595.5Q9527 1561 9558.5 1525.0Q9590 1489 9620.5 1456.0Q9651 1423 9678.0 1394.5Q9705 1366 9722 1346Q9728 1337 9739.0 1322.5Q9750 1308 9750 1296Q9750 1288 9743.5 1283.0Q9737 1278 9722 1278Q9691 1278 9662.5 1284.5Q9634 1291 9605.5 1303.0Q9577 1315 9547.0 1333.0Q9517 1351 9484 1374ZM10668 950Q10697 915 10726.5 880.0Q10756 845 10786 810Q10805 788 10830.0 758.0Q10855 728 10883.5 695.5Q10912 663 10941.5 632.0Q10971 601 10997.5 576.0Q11024 551 11045.0 535.5Q11066 520 11078 520Q11086 520 11100.0 523.0Q11114 526 11127.5 531.5Q11141 537 11150.5 545.5Q11160 554 11160 564Q11160 575 11145.5 592.0Q11131 609 11110 632L10944 820Q10937 827 10924.0 841.5Q10911 856 10894.5 875.5Q10878 895 10859.0 916.5Q10840 938 10822 958L11056 972L11012 1038H10752Q10700 1097 10647.5 1157.5Q10595 1218 10546.0 1275.0Q10497 1332 10453.0 1383.0Q10409 1434 10374.5 1475.0Q10340 1516 10315.5 1544.5Q10291 1573 10282 1584Q10246 1626 10223.0 1662.5Q10200 1699 10200 1720Q10200 1746 10216.5 1753.0Q10233 1760 10262 1760Q10289 1760 10328.5 1755.5Q10368 1751 10420.5 1737.0Q10473 1723 10539.5 1697.5Q10606 1672 10688 1630L10698 1654Q10621 1700 10545.5 1731.0Q10470 1762 10400.5 1781.0Q10331 1800 10270.0 1808.0Q10209 1816 10162 1816Q10108 1816 10083.0 1789.5Q10058 1763 10058 1718Q10058 1689 10081.5 1649.0Q10105 1609 10158 1544Q10164 1537 10184.5 1512.5Q10205 1488 10237.0 1451.0Q10269 1414 10310.0 1366.0Q10351 1318 10397.5 1264.5Q10444 1211 10494.0 1153.5Q10544 1096 10594 1038H10402L10476 938Z" fill="currentColor" /></svg>