<svg viewBox="0 0 5024 1177" xmlns="http://www.w3.org/2000/svg"><path d="M101 873 107 280Q107 231 156 231H189Q244 231 267 294Q295 373 354.5 550.0Q414 727 449 824Q481 734 541.5 559.0Q602 384 634 294Q656 231 711 231H747Q770 231 784.0 244.5Q798 258 798 280V335L802 873Q802 910 763 910H754Q715 910 715 873L718 294Q547 761 507 867Q490 910 450 910H443Q401 910 386 867Q359 793 292.5 594.5Q226 396 185 294L188 873Q188 910 149 910H140Q101 910 101 873ZM1023 689Q1023 762 1073.0 806.5Q1123 851 1195 851Q1307 851 1335 782Q1352 782 1364.0 791.5Q1376 801 1376 819Q1376 854 1324.5 886.0Q1273 918 1194 918Q1088 918 1016.5 854.0Q945 790 945.0 665.0Q945 540 1015.0 474.0Q1085 408 1176.0 408.0Q1267 408 1320.0 454.5Q1373 501 1373.0 570.0Q1373 639 1318.5 677.5Q1264 716 1178.0 716.0Q1092 716 1023 689ZM1024 627Q1096 651 1167 651Q1297 651 1297 567Q1297 528 1263.5 501.0Q1230 474 1171.5 474.0Q1113 474 1069.0 521.0Q1025 568 1024 627ZM1529 417H1535Q1573 417 1573 454V508Q1590 470 1627.5 440.0Q1665 410 1708.0 410.0Q1751 410 1773.5 427.0Q1796 444 1796.0 468.5Q1796 493 1775 507Q1744 481 1709 481Q1647 481 1611.0 531.5Q1575 582 1575 658V872Q1575 892 1566.0 901.0Q1557 910 1537 910H1529Q1509 910 1500.0 901.0Q1491 892 1491 872V454Q1491 417 1529 417ZM2075 767 2030 765Q2006 765 1989.0 777.5Q1972 790 1972 805Q1972 843 2036 843H2110Q2323 843 2323 974Q2323 1043 2256.5 1086.0Q2190 1129 2086 1133H2062Q1977 1133 1917.0 1099.0Q1857 1065 1857 1019Q1857 997 1867.5 984.0Q1878 971 1895 969Q1914 1008 1962.0 1034.0Q2010 1060 2075 1060H2082Q2157 1060 2199.5 1037.0Q2242 1014 2242.0 979.5Q2242 945 2204.5 929.5Q2167 914 2075.5 914.0Q1984 914 1938.0 896.0Q1892 878 1892.0 826.0Q1892 774 1965 744Q1878 695 1878 588Q1878 503 1936.0 456.0Q1994 409 2079 409Q2122 409 2158.5 427.0Q2195 445 2214 466Q2252 441 2252 375Q2279 375 2300.0 391.5Q2321 408 2321 433Q2321 483 2247 505Q2269 535 2269 593Q2269 678 2213.5 722.5Q2158 767 2075 767ZM2159.5 501.5Q2126 473 2075.0 473.0Q2024 473 1990.0 501.5Q1956 530 1956.0 589.0Q1956 648 1990.0 676.5Q2024 705 2075.0 705.0Q2126 705 2159.5 676.5Q2193 648 2193.0 589.0Q2193 530 2159.5 501.5ZM2472 689Q2472 762 2522.0 806.5Q2572 851 2644 851Q2756 851 2784 782Q2801 782 2813.0 791.5Q2825 801 2825 819Q2825 854 2773.5 886.0Q2722 918 2643 918Q2537 918 2465.5 854.0Q2394 790 2394.0 665.0Q2394 540 2464.0 474.0Q2534 408 2625.0 408.0Q2716 408 2769.0 454.5Q2822 501 2822.0 570.0Q2822 639 2767.5 677.5Q2713 716 2627.0 716.0Q2541 716 2472 689ZM2473 627Q2545 651 2616 651Q2746 651 2746 567Q2746 528 2712.5 501.0Q2679 474 2620.5 474.0Q2562 474 2518.0 521.0Q2474 568 2473 627ZM3450.5 243.5Q3507 223 3569.0 223.0Q3631 223 3687.0 243.5Q3743 264 3790.5 304.0Q3838 344 3866.5 413.5Q3895 483 3895.0 571.5Q3895 660 3866.5 728.5Q3838 797 3790.5 837.0Q3743 877 3687.0 897.5Q3631 918 3569.0 918.0Q3507 918 3450.5 897.5Q3394 877 3346.5 837.0Q3299 797 3271.0 728.5Q3243 660 3243.0 571.5Q3243 483 3271.0 413.5Q3299 344 3346.5 304.0Q3394 264 3450.5 243.5ZM3737.5 370.0Q3667 300 3569.0 300.0Q3471 300 3400.5 370.0Q3330 440 3330.0 570.5Q3330 701 3400.5 771.0Q3471 841 3569.0 841.0Q3667 841 3737.5 771.0Q3808 701 3808.0 570.5Q3808 440 3737.5 370.0ZM4063 417H4070Q4108 417 4108 455V504Q4127 466 4168.0 437.0Q4209 408 4262 408Q4343 408 4394.5 456.5Q4446 505 4446 610V872Q4446 892 4437.0 901.0Q4428 910 4408 910H4400Q4363 910 4363 872V613Q4363 540 4332.0 509.0Q4301 478 4242.0 478.0Q4183 478 4146.0 526.0Q4109 574 4109 653V872Q4109 910 4070 910H4063Q4043 910 4034.0 901.0Q4025 892 4025 872V455Q4025 417 4063 417ZM4629 689Q4629 762 4679.0 806.5Q4729 851 4801 851Q4913 851 4941 782Q4958 782 4970.0 791.5Q4982 801 4982 819Q4982 854 4930.5 886.0Q4879 918 4800 918Q4694 918 4622.5 854.0Q4551 790 4551.0 665.0Q4551 540 4621.0 474.0Q4691 408 4782.0 408.0Q4873 408 4926.0 454.5Q4979 501 4979.0 570.0Q4979 639 4924.5 677.5Q4870 716 4784.0 716.0Q4698 716 4629 689ZM4630 627Q4702 651 4773 651Q4903 651 4903 567Q4903 528 4869.5 501.0Q4836 474 4777.5 474.0Q4719 474 4675.0 521.0Q4631 568 4630 627Z" fill="currentColor" /></svg>