<svg viewBox="0 0 4672 1444" xmlns="http://www.w3.org/2000/svg"><path d="M417 928Q401 928 389.0 922.5Q377 917 375 911Q345 833 311.0 745.5Q277 658 241.0 575.0Q205 492 167.5 426.0Q130 360 91 325Q99 317 109.5 311.0Q120 305 131.0 302.0Q142 299 150 299Q178 299 199.5 308.5Q221 318 242.0 347.5Q263 377 289.5 436.0Q316 495 354.0 593.0Q392 691 448 838Q475 798 509.5 748.0Q544 698 580.0 641.5Q616 585 648.5 526.5Q681 468 705.0 410.0Q729 352 738 300Q757 323 765.0 344.5Q773 366 772.0 388.0Q771 410 762.5 435.5Q754 461 739 492Q705 564 660.5 634.5Q616 705 569.0 774.0Q522 843 478 914Q465 921 446.5 924.5Q428 928 417 928ZM179 1107Q150 1107 130.0 1102.0Q110 1097 98.0 1088.0Q86 1079 80.5 1068.0Q75 1057 75 1044Q75 1031 80.5 992.0Q86 953 95.0 895.5Q104 838 113.5 772.0Q123 706 132.0 638.5Q141 571 146.5 510.5Q152 450 152 407Q152 369 148.5 345.0Q145 321 138 306Q177 319 196.0 339.5Q215 360 221.5 386.5Q228 413 228 445Q228 526 215.0 617.0Q202 708 188.5 809.5Q175 911 175 1024Q175 1045 176.5 1066.0Q178 1087 179 1107ZM790 1133Q745 1118 719.5 1096.5Q694 1075 683.5 1044.5Q673 1014 673 973Q673 945 677.5 903.0Q682 861 689.5 808.0Q697 755 705.5 693.5Q714 632 721.5 566.5Q729 501 733.5 433.5Q738 366 738 300Q767 303 787.0 312.0Q807 321 819.0 336.0Q831 351 836.5 371.5Q842 392 842 418Q842 450 835.5 506.0Q829 562 819.0 631.0Q809 700 799.0 772.0Q789 844 782.5 909.5Q776 975 776 1024Q776 1100 790 1133ZM1175 1117Q1122 1117 1080.5 1086.0Q1039 1055 1015.5 999.5Q992 944 992 873Q992 799 1013.5 735.5Q1035 672 1074.0 625.0Q1113 578 1165.5 551.5Q1218 525 1279 525Q1353 525 1391.0 562.0Q1429 599 1429 670Q1429 723 1400.0 765.5Q1371 808 1320.5 832.0Q1270 856 1205 856Q1173 856 1145.0 852.5Q1117 849 1091 843L1094 808H1131Q1189 808 1232.0 788.5Q1275 769 1299.0 733.0Q1323 697 1323 650Q1323 615 1306.5 596.0Q1290 577 1260 577Q1222 577 1192.0 605.5Q1162 634 1141.0 679.5Q1120 725 1109.0 777.0Q1098 829 1098 876Q1098 964 1124.5 1008.5Q1151 1053 1203 1053Q1301 1053 1364 955Q1401 961 1401 982Q1358 1052 1303.5 1084.5Q1249 1117 1175 1117ZM1690 732Q1716 655 1745.5 609.5Q1775 564 1805.0 544.0Q1835 524 1859 524Q1888 524 1906.5 540.0Q1925 556 1934.5 581.5Q1944 607 1944 636Q1944 668 1933.5 697.0Q1923 726 1900.5 744.0Q1878 762 1842 762Q1836 762 1830.0 761.5Q1824 761 1817 760Q1829 743 1840.0 713.5Q1851 684 1851 660Q1851 644 1844.5 634.0Q1838 624 1822 624Q1800 624 1773.5 650.5Q1747 677 1722.5 727.5Q1698 778 1682.5 851.0Q1667 924 1667 1017Q1667 1037 1669.0 1058.0Q1671 1079 1672 1102Q1662 1103 1655.0 1103.5Q1648 1104 1642 1104Q1599 1104 1576.5 1084.0Q1554 1064 1554 1018Q1554 996 1560.5 955.5Q1567 915 1575.0 864.0Q1583 813 1589.5 758.5Q1596 704 1596 654Q1596 615 1592.0 577.0Q1588 539 1579 504Q1641 529 1663.0 573.0Q1685 617 1685 675Q1685 685 1684.5 699.5Q1684 714 1682 730ZM2124 1014Q2124 1050 2127.0 1076.5Q2130 1103 2136 1117Q2097 1103 2074.5 1079.5Q2052 1056 2043.0 1021.5Q2034 987 2034 938Q2034 894 2042.0 840.0Q2050 786 2058.0 730.0Q2066 674 2066 623Q2066 597 2065.5 571.5Q2065 546 2060 521Q2067 520 2075.0 519.5Q2083 519 2089 519Q2134 519 2154.0 539.0Q2174 559 2174 605Q2174 634 2162.0 695.0Q2150 756 2137.5 838.0Q2125 920 2124 1014ZM2169 436Q2157 440 2143.0 443.0Q2129 446 2115 446Q2101 446 2087.0 441.5Q2073 437 2063.5 425.5Q2054 414 2054 395Q2054 378 2060.0 362.0Q2066 346 2072 329Q2084 324 2098.5 321.5Q2113 319 2126 319Q2140 319 2154.0 323.5Q2168 328 2177.5 339.0Q2187 350 2187 370Q2187 386 2181.0 402.5Q2175 419 2169 436ZM2501 1117Q2448 1117 2406.5 1086.0Q2365 1055 2341.5 999.5Q2318 944 2318 873Q2318 799 2339.5 735.5Q2361 672 2400.0 625.0Q2439 578 2491.5 551.5Q2544 525 2605 525Q2679 525 2717.0 562.0Q2755 599 2755 670Q2755 723 2726.0 765.5Q2697 808 2646.5 832.0Q2596 856 2531 856Q2499 856 2471.0 852.5Q2443 849 2417 843L2420 808H2457Q2515 808 2558.0 788.5Q2601 769 2625.0 733.0Q2649 697 2649 650Q2649 615 2632.5 596.0Q2616 577 2586 577Q2548 577 2518.0 605.5Q2488 634 2467.0 679.5Q2446 725 2435.0 777.0Q2424 829 2424 876Q2424 964 2450.5 1008.5Q2477 1053 2529 1053Q2627 1053 2690 955Q2727 961 2727 982Q2684 1052 2629.5 1084.5Q2575 1117 2501 1117ZM3011 756Q3037 688 3075.5 636.0Q3114 584 3156.0 554.5Q3198 525 3234 525Q3293 525 3315.5 563.5Q3338 602 3338 667Q3338 715 3328.5 772.0Q3319 829 3309.0 889.0Q3299 949 3299 1007Q3299 1054 3313.0 1076.5Q3327 1099 3356 1116Q3346 1117 3337.0 1117.0Q3328 1117 3319 1117Q3252 1117 3223.0 1092.0Q3194 1067 3194 1000Q3194 970 3200.0 931.5Q3206 893 3214.0 850.5Q3222 808 3228.0 765.5Q3234 723 3234 685Q3234 619 3194 619Q3166 619 3131.5 646.5Q3097 674 3065.5 725.0Q3034 776 3013.5 847.0Q2993 918 2993 1004Q2993 1027 2994.0 1051.5Q2995 1076 2999 1102Q2989 1103 2981.5 1103.5Q2974 1104 2968 1104Q2925 1104 2902.5 1084.0Q2880 1064 2880 1018Q2880 996 2886.5 955.5Q2893 915 2901.0 864.0Q2909 813 2915.5 758.5Q2922 704 2922 654Q2922 615 2918.0 577.0Q2914 539 2905 504Q2967 529 2989.0 573.0Q3011 617 3011 675Q3011 694 3009.5 714.0Q3008 734 3005 755ZM3832 939Q3811 994 3776.5 1033.0Q3742 1072 3700.5 1092.5Q3659 1113 3616 1113Q3577 1113 3544.5 1092.0Q3512 1071 3492.0 1026.5Q3472 982 3472 914Q3472 832 3495.0 763.5Q3518 695 3558.5 645.5Q3599 596 3653.0 568.5Q3707 541 3770 541Q3789 541 3808.5 544.0Q3828 547 3847 552Q3775 564 3724.0 602.0Q3673 640 3641.5 691.5Q3610 743 3595.0 798.0Q3580 853 3580 900Q3580 934 3589.0 963.5Q3598 993 3617.5 1011.0Q3637 1029 3670 1029Q3712 1029 3745.0 998.0Q3778 967 3802.0 913.5Q3826 860 3843.0 793.0Q3860 726 3871.0 653.0Q3882 580 3888.0 510.0Q3894 440 3896.5 380.0Q3899 320 3899 280Q3899 241 3897.5 206.5Q3896 172 3891 145Q3927 156 3949.5 185.0Q3972 214 3983.0 256.0Q3994 298 3994 352Q3994 412 3984.0 484.5Q3974 557 3960.5 638.0Q3947 719 3937.0 805.5Q3927 892 3927 980Q3927 1051 3936 1120Q3897 1106 3875.5 1079.5Q3854 1053 3846.0 1017.0Q3838 981 3837 940ZM4454 932Q4435 984 4399.5 1025.5Q4364 1067 4320.5 1090.5Q4277 1114 4232 1114Q4165 1114 4127.5 1062.0Q4090 1010 4090 916Q4090 841 4111.5 774.5Q4133 708 4170.5 658.0Q4208 608 4258.0 579.5Q4308 551 4365 551Q4382 551 4401.0 554.5Q4420 558 4444 565Q4390 578 4344.5 610.0Q4299 642 4266.5 687.0Q4234 732 4216.0 787.0Q4198 842 4198 903Q4198 964 4219.0 996.5Q4240 1029 4279 1029Q4320 1029 4357.0 996.5Q4394 964 4424.0 908.5Q4454 853 4471.0 782.5Q4488 712 4488 636Q4488 610 4486.0 582.5Q4484 555 4480 534Q4490 533 4498.0 532.5Q4506 532 4513 532Q4554 532 4575.5 553.0Q4597 574 4597 614Q4597 640 4590.0 681.0Q4583 722 4573.5 773.0Q4564 824 4556.5 880.0Q4549 936 4549 991Q4549 1034 4556.0 1065.0Q4563 1096 4580 1135Q4516 1122 4488.0 1079.0Q4460 1036 4460 953Q4460 945 4460.0 941.5Q4460 938 4461 934Z" fill="currentColor" /></svg>