<svg viewBox="0 0 8790.735294117647 2161.1428571428573" xmlns="http://www.w3.org/2000/svg"><path d="M429.7352941176471 1624.142857142857Q424.7352941176471 1641.142857142857 408.2352941176471 1663.642857142857Q391.7352941176471 1686.142857142857 363.7352941176471 1700.142857142857Q353.7352941176471 1705.142857142857 327.7352941176471 1709.642857142857Q301.7352941176471 1714.142857142857 267.2352941176471 1718.142857142857Q232.73529411764707 1722.142857142857 193.73529411764707 1725.642857142857Q154.73529411764707 1729.142857142857 120.23529411764707 1731.142857142857Q85.73529411764707 1733.142857142857 59.73529411764707 1734.642857142857Q33.73529411764707 1736.142857142857 24.735294117647072 1737.142857142857Q-4.264705882352928 1740.142857142857 0.7352941176470722 1722.642857142857Q5.735294117647072 1705.142857142857 40.73529411764707 1677.142857142857Q44.73529411764707 1673.142857142857 53.73529411764707 1667.642857142857Q62.73529411764707 1662.142857142857 82.23529411764707 1655.642857142857Q101.73529411764707 1649.142857142857 136.23529411764707 1641.642857142857Q170.73529411764707 1634.142857142857 226.73529411764707 1626.142857142857Q318.7352941176471 1443.142857142857 399.7352941176471 1285.142857142857Q480.7352941176471 1127.142857142857 542.7352941176471 1009.1428571428571Q614.7352941176471 871.1428571428571 675.7352941176471 756.1428571428571Q753.7352941176471 605.1428571428571 809.2352941176471 501.6428571428571Q864.7352941176471 398.1428571428571 901.7352941176471 332.6428571428571Q938.7352941176471 267.1428571428571 959.7352941176471 233.1428571428571Q980.7352941176471 199.1428571428571 988.7352941176471 186.1428571428571Q997.7352941176471 174.1428571428571 1005.2352941176471 171.1428571428571Q1012.7352941176471 168.1428571428571 1020.2352941176471 170.1428571428571Q1027.735294117647 172.1428571428571 1034.735294117647 178.6428571428571Q1041.735294117647 185.1428571428571 1048.735294117647 191.1428571428571Q1062.735294117647 203.1428571428571 1064.735294117647 225.6428571428571Q1066.735294117647 248.1428571428571 1058.735294117647 291.1428571428571Q1051.735294117647 321.1428571428571 1030.735294117647 428.1428571428571Q1021.7352941176471 474.1428571428571 1008.2352941176471 541.6428571428571Q994.7352941176471 609.1428571428571 976.2352941176471 704.1428571428571Q957.7352941176471 799.1428571428571 933.7352941176471 924.6428571428571Q909.7352941176471 1050.142857142857 878.7352941176471 1212.142857142857Q912.7352941176471 1147.142857142857 956.2352941176471 1063.142857142857Q999.7352941176471 979.1428571428571 1048.235294117647 885.1428571428571Q1096.735294117647 791.1428571428571 1147.735294117647 693.1428571428571Q1198.735294117647 595.1428571428571 1247.235294117647 501.6428571428571Q1295.735294117647 408.1428571428571 1339.235294117647 325.1428571428571Q1382.735294117647 242.1428571428571 1416.235294117647 178.1428571428571Q1449.735294117647 114.14285714285711 1470.735294117647 75.14285714285711Q1491.735294117647 36.14285714285711 1494.735294117647 31.14285714285711Q1502.735294117647 17.14285714285711 1509.735294117647 10.14285714285711Q1516.735294117647 3.1428571428571104 1523.235294117647 1.1428571428571104Q1529.735294117647 -0.8571428571428896 1535.735294117647 0.6428571428571104Q1541.735294117647 2.1428571428571104 1549.735294117647 6.14285714285711Q1557.735294117647 10.14285714285711 1569.235294117647 16.64285714285711Q1580.735294117647 23.14285714285711 1590.735294117647 32.64285714285711Q1600.735294117647 42.14285714285711 1606.235294117647 55.14285714285711Q1611.735294117647 68.14285714285711 1607.735294117647 84.14285714285711Q1595.735294117647 131.1428571428571 1550.735294117647 317.1428571428571Q1531.735294117647 397.1428571428571 1503.235294117647 514.6428571428571Q1474.735294117647 632.1428571428571 1435.235294117647 798.1428571428571Q1395.735294117647 964.1428571428571 1343.235294117647 1184.642857142857Q1290.735294117647 1405.142857142857 1222.735294117647 1690.142857142857Q1254.735294117647 1687.142857142857 1282.235294117647 1685.142857142857Q1309.735294117647 1683.142857142857 1326.735294117647 1683.142857142857Q1356.735294117647 1683.142857142857 1371.735294117647 1686.642857142857Q1386.735294117647 1690.142857142857 1390.735294117647 1696.642857142857Q1394.735294117647 1703.142857142857 1390.735294117647 1712.142857142857Q1386.735294117647 1721.142857142857 1377.735294117647 1731.142857142857Q1369.735294117647 1741.142857142857 1365.235294117647 1749.142857142857Q1360.735294117647 1757.142857142857 1352.735294117647 1763.642857142857Q1344.735294117647 1770.142857142857 1329.735294117647 1775.142857142857Q1314.735294117647 1780.142857142857 1285.735294117647 1784.142857142857Q1266.735294117647 1787.142857142857 1230.735294117647 1789.642857142857Q1194.735294117647 1792.142857142857 1150.735294117647 1795.142857142857Q1106.735294117647 1798.142857142857 1059.235294117647 1801.142857142857Q1011.7352941176471 1804.142857142857 969.7352941176471 1807.142857142857Q927.7352941176471 1810.142857142857 895.2352941176471 1812.142857142857Q862.7352941176471 1814.142857142857 849.7352941176471 1815.142857142857Q809.7352941176471 1818.142857142857 805.2352941176471 1806.142857142857Q800.7352941176471 1794.142857142857 826.7352941176471 1765.142857142857Q837.7352941176471 1750.142857142857 861.2352941176471 1742.142857142857Q884.7352941176471 1734.142857142857 923.7352941176471 1729.142857142857Q931.7352941176471 1727.142857142857 949.7352941176471 1724.142857142857Q967.7352941176471 1721.142857142857 990.7352941176471 1718.142857142857L1291.735294117647 559.1428571428571Q1186.735294117647 764.1428571428571 1105.235294117647 922.1428571428571Q1023.7352941176471 1080.142857142857 963.2352941176471 1198.642857142857Q902.7352941176471 1317.142857142857 859.7352941176471 1400.642857142857Q816.7352941176471 1484.142857142857 788.7352941176471 1539.142857142857Q721.7352941176471 1669.142857142857 705.7352941176471 1698.142857142857Q696.7352941176471 1716.142857142857 687.7352941176471 1732.142857142857Q678.7352941176471 1748.142857142857 668.7352941176471 1760.642857142857Q658.7352941176471 1773.142857142857 646.7352941176471 1780.642857142857Q634.7352941176471 1788.142857142857 619.7352941176471 1788.142857142857Q589.7352941176471 1788.142857142857 578.7352941176471 1773.142857142857Q567.7352941176471 1758.142857142857 572.7352941176471 1731.142857142857Q579.7352941176471 1703.142857142857 606.7352941176471 1576.142857142857Q618.7352941176471 1522.142857142857 635.7352941176471 1441.642857142857Q652.7352941176471 1361.142857142857 677.2352941176471 1245.642857142857Q701.7352941176471 1130.142857142857 734.2352941176471 976.6428571428571Q766.7352941176471 823.1428571428571 808.7352941176471 623.1428571428571L312.7352941176471 1616.142857142857Q377.7352941176471 1608.142857142857 406.2352941176471 1608.642857142857Q434.7352941176471 1609.142857142857 429.7352941176471 1624.142857142857ZM2144.735294117647 1245.142857142857Q2108.735294117647 1319.142857142857 2060.735294117647 1385.142857142857Q2012.735294117647 1451.142857142857 1957.235294117647 1500.642857142857Q1901.735294117647 1550.142857142857 1840.235294117647 1579.142857142857Q1778.735294117647 1608.142857142857 1716.735294117647 1608.142857142857Q1671.735294117647 1608.142857142857 1636.735294117647 1589.642857142857Q1601.735294117647 1571.142857142857 1577.735294117647 1539.142857142857Q1553.735294117647 1507.142857142857 1541.735294117647 1464.142857142857Q1529.735294117647 1421.142857142857 1529.735294117647 1372.142857142857Q1529.735294117647 1291.142857142857 1551.735294117647 1216.142857142857Q1573.735294117647 1141.142857142857 1609.735294117647 1076.142857142857Q1645.735294117647 1011.1428571428571 1691.735294117647 957.1428571428571Q1737.735294117647 903.1428571428571 1784.735294117647 864.6428571428571Q1831.735294117647 826.1428571428571 1876.235294117647 805.1428571428571Q1920.735294117647 784.1428571428571 1953.735294117647 784.1428571428571Q1978.735294117647 784.1428571428571 1998.235294117647 794.1428571428571Q2017.735294117647 804.1428571428571 2030.735294117647 820.6428571428571Q2043.735294117647 837.1428571428571 2050.235294117647 857.1428571428571Q2056.735294117647 877.1428571428571 2056.735294117647 897.1428571428571Q2056.735294117647 958.1428571428571 2024.7352941176468 1023.6428571428571Q1992.735294117647 1089.142857142857 1940.735294117647 1147.642857142857Q1888.735294117647 1206.142857142857 1823.735294117647 1252.642857142857Q1758.735294117647 1299.142857142857 1691.735294117647 1321.142857142857Q1691.735294117647 1358.142857142857 1699.235294117647 1390.642857142857Q1706.735294117647 1423.142857142857 1722.235294117647 1447.642857142857Q1737.735294117647 1472.142857142857 1761.735294117647 1486.642857142857Q1785.735294117647 1501.142857142857 1818.735294117647 1501.142857142857Q1851.735294117647 1501.142857142857 1885.735294117647 1487.642857142857Q1919.735294117647 1474.142857142857 1956.235294117647 1442.642857142857Q1992.735294117647 1411.142857142857 2031.7352941176468 1359.142857142857Q2070.735294117647 1307.142857142857 2113.735294117647 1231.142857142857Q2123.735294117647 1215.142857142857 2131.735294117647 1215.142857142857Q2138.735294117647 1215.142857142857 2143.735294117647 1219.142857142857Q2148.735294117647 1223.142857142857 2148.735294117647 1231.142857142857Q2148.735294117647 1237.142857142857 2144.735294117647 1245.142857142857ZM1921.735294117647 899.1428571428571Q1892.735294117647 899.1428571428571 1857.235294117647 933.1428571428571Q1821.735294117647 967.1428571428571 1788.735294117647 1020.6428571428571Q1755.735294117647 1074.142857142857 1729.235294117647 1139.642857142857Q1702.735294117647 1205.142857142857 1693.735294117647 1268.142857142857Q1742.735294117647 1245.142857142857 1791.235294117647 1210.642857142857Q1839.735294117647 1176.142857142857 1878.235294117647 1134.142857142857Q1916.735294117647 1092.142857142857 1940.735294117647 1044.642857142857Q1964.735294117647 997.1428571428571 1964.735294117647 948.1428571428571Q1964.735294117647 928.1428571428571 1953.735294117647 913.6428571428571Q1942.735294117647 899.1428571428571 1921.735294117647 899.1428571428571ZM2680.735294117647 1245.142857142857Q2666.735294117647 1272.142857142857 2644.735294117647 1307.642857142857Q2622.735294117647 1343.142857142857 2594.735294117647 1380.642857142857Q2566.735294117647 1418.142857142857 2534.235294117647 1455.142857142857Q2501.735294117647 1492.142857142857 2467.235294117647 1520.642857142857Q2432.735294117647 1549.142857142857 2397.235294117647 1567.142857142857Q2361.735294117647 1585.142857142857 2328.735294117647 1585.142857142857Q2307.735294117647 1585.142857142857 2287.235294117647 1579.142857142857Q2266.735294117647 1573.142857142857 2250.235294117647 1560.642857142857Q2233.735294117647 1548.142857142857 2223.735294117647 1529.142857142857Q2213.735294117647 1510.142857142857 2213.735294117647 1483.142857142857Q2213.735294117647 1446.142857142857 2228.235294117647 1404.642857142857Q2242.735294117647 1363.142857142857 2265.235294117647 1320.642857142857Q2287.735294117647 1278.142857142857 2313.235294117647 1237.142857142857Q2338.735294117647 1196.142857142857 2361.235294117647 1158.642857142857Q2383.735294117647 1121.142857142857 2398.235294117647 1090.142857142857Q2412.735294117647 1059.142857142857 2412.735294117647 1036.142857142857Q2412.735294117647 1027.142857142857 2402.235294117647 1021.6428571428571Q2391.735294117647 1016.1428571428571 2373.735294117647 1016.1428571428571Q2364.735294117647 1016.1428571428571 2350.235294117647 1019.1428571428571Q2335.735294117647 1022.1428571428571 2317.735294117647 1026.142857142857Q2299.735294117647 1030.142857142857 2279.235294117647 1034.642857142857Q2258.735294117647 1039.142857142857 2238.735294117647 1042.142857142857Q2207.735294117647 1117.142857142857 2176.735294117647 1182.142857142857Q2145.735294117647 1247.142857142857 2123.735294117647 1284.142857142857Q2115.735294117647 1298.142857142857 2110.235294117647 1303.642857142857Q2104.735294117647 1309.142857142857 2096.735294117647 1309.142857142857Q2082.735294117647 1309.142857142857 2082.735294117647 1296.142857142857Q2082.735294117647 1291.142857142857 2084.235294117647 1284.642857142857Q2085.735294117647 1278.142857142857 2088.735294117647 1272.142857142857Q2117.735294117647 1218.142857142857 2144.235294117647 1161.642857142857Q2170.735294117647 1105.142857142857 2195.735294117647 1047.142857142857Q2172.735294117647 1047.142857142857 2162.735294117647 1037.642857142857Q2152.735294117647 1028.142857142857 2152.735294117647 1008.1428571428571Q2152.735294117647 987.1428571428571 2163.235294117647 955.6428571428571Q2173.735294117647 924.1428571428571 2189.735294117647 889.6428571428571Q2205.735294117647 855.1428571428571 2225.735294117647 820.6428571428571Q2245.735294117647 786.1428571428571 2265.735294117647 758.6428571428571Q2285.735294117647 731.1428571428571 2302.235294117647 713.6428571428571Q2318.735294117647 696.1428571428571 2328.735294117647 696.1428571428571Q2336.735294117647 696.1428571428571 2344.735294117647 702.1428571428571Q2352.735294117647 708.1428571428571 2352.735294117647 719.1428571428571Q2352.735294117647 734.1428571428571 2343.735294117647 766.1428571428571Q2334.735294117647 798.1428571428571 2320.735294117647 840.1428571428571Q2362.735294117647 834.1428571428571 2394.235294117647 830.6428571428571Q2425.735294117647 827.1428571428571 2442.735294117647 827.1428571428571Q2483.735294117647 827.1428571428571 2510.735294117647 842.6428571428571Q2537.735294117647 858.1428571428571 2537.735294117647 883.1428571428571Q2537.735294117647 898.1428571428571 2526.735294117647 928.6428571428571Q2515.735294117647 959.1428571428571 2499.735294117647 999.1428571428571Q2483.735294117647 1039.142857142857 2464.735294117647 1085.642857142857Q2445.735294117647 1132.142857142857 2429.735294117647 1179.642857142857Q2413.735294117647 1227.142857142857 2402.735294117647 1272.142857142857Q2391.735294117647 1317.142857142857 2391.735294117647 1354.142857142857Q2391.735294117647 1383.142857142857 2403.235294117647 1403.142857142857Q2414.735294117647 1423.142857142857 2438.735294117647 1423.142857142857Q2456.735294117647 1423.142857142857 2479.235294117647 1414.642857142857Q2501.735294117647 1406.142857142857 2528.735294117647 1384.642857142857Q2555.735294117647 1363.142857142857 2586.235294117647 1325.642857142857Q2616.735294117647 1288.142857142857 2649.735294117647 1231.142857142857Q2657.735294117647 1215.142857142857 2668.735294117647 1215.142857142857Q2674.735294117647 1215.142857142857 2679.735294117647 1219.142857142857Q2684.735294117647 1223.142857142857 2684.735294117647 1231.142857142857Q2684.735294117647 1237.142857142857 2680.735294117647 1245.142857142857ZM3186.735294117647 942.1428571428571Q3186.735294117647 954.1428571428571 3182.235294117647 990.6428571428571Q3177.735294117647 1027.142857142857 3167.235294117647 1076.642857142857Q3156.735294117647 1126.142857142857 3137.735294117647 1184.142857142857Q3118.735294117647 1242.142857142857 3090.735294117647 1298.142857142857Q3046.735294117647 1385.142857142857 3003.735294117647 1444.642857142857Q2960.735294117647 1504.142857142857 2921.735294117647 1541.142857142857Q2882.735294117647 1578.142857142857 2848.735294117647 1594.142857142857Q2814.735294117647 1610.142857142857 2789.735294117647 1610.142857142857Q2752.735294117647 1610.142857142857 2725.735294117647 1591.642857142857Q2698.735294117647 1573.142857142857 2680.735294117647 1538.642857142857Q2662.735294117647 1504.142857142857 2653.735294117647 1455.142857142857Q2644.735294117647 1406.142857142857 2644.735294117647 1346.142857142857Q2644.735294117647 1293.142857142857 2651.735294117647 1235.142857142857Q2658.735294117647 1177.142857142857 2672.735294117647 1114.142857142857Q2686.735294117647 1055.142857142857 2708.235294117647 1000.6428571428571Q2729.735294117647 946.1428571428571 2751.235294117647 902.6428571428571Q2772.735294117647 859.1428571428571 2790.735294117647 829.6428571428571Q2808.735294117647 800.1428571428571 2814.735294117647 791.1428571428571Q2823.735294117647 777.1428571428571 2831.735294117647 766.6428571428571Q2839.735294117647 756.1428571428571 2850.735294117647 756.1428571428571Q2859.735294117647 756.1428571428571 2875.235294117647 775.6428571428571Q2890.735294117647 795.1428571428571 2906.735294117647 819.6428571428571Q2922.735294117647 844.1428571428571 2934.235294117647 868.1428571428571Q2945.735294117647 892.1428571428571 2945.735294117647 901.1428571428571Q2945.735294117647 918.1428571428571 2928.235294117647 953.1428571428571Q2910.735294117647 988.1428571428571 2891.735294117647 1034.142857142857Q2873.735294117647 1079.142857142857 2853.735294117647 1133.642857142857Q2833.735294117647 1188.142857142857 2816.235294117647 1241.642857142857Q2798.735294117647 1295.142857142857 2787.235294117647 1344.142857142857Q2775.735294117647 1393.142857142857 2775.735294117647 1427.142857142857Q2775.735294117647 1468.142857142857 2789.235294117647 1488.642857142857Q2802.735294117647 1509.142857142857 2822.735294117647 1509.142857142857Q2837.735294117647 1509.142857142857 2859.735294117647 1490.642857142857Q2881.735294117647 1472.142857142857 2905.735294117647 1437.142857142857Q2929.735294117647 1402.142857142857 2953.735294117647 1351.142857142857Q2977.735294117647 1300.142857142857 2996.735294117647 1235.142857142857Q3015.735294117647 1168.142857142857 3025.235294117647 1120.142857142857Q3034.735294117647 1072.142857142857 3039.235294117647 1039.142857142857Q3043.735294117647 1006.1428571428571 3046.735294117647 986.1428571428571Q3049.735294117647 966.1428571428571 3056.235294117647 953.6428571428571Q3062.735294117647 941.1428571428571 3076.235294117647 934.1428571428571Q3089.735294117647 927.1428571428571 3115.735294117647 920.1428571428571Q3135.735294117647 913.1428571428571 3153.735294117647 913.1428571428571Q3186.735294117647 913.1428571428571 3186.735294117647 942.1428571428571ZM3950.735294117647 1245.142857142857Q3929.735294117647 1301.142857142857 3898.235294117647 1362.142857142857Q3866.735294117647 1423.142857142857 3828.735294117647 1473.642857142857Q3790.735294117647 1524.142857142857 3747.735294117647 1556.642857142857Q3704.735294117647 1589.142857142857 3661.735294117647 1589.142857142857Q3632.735294117647 1589.142857142857 3613.735294117647 1574.642857142857Q3594.735294117647 1560.142857142857 3583.235294117647 1538.642857142857Q3571.735294117647 1517.142857142857 3566.735294117647 1492.142857142857Q3561.735294117647 1467.142857142857 3561.735294117647 1446.142857142857Q3561.735294117647 1414.142857142857 3569.235294117647 1372.142857142857Q3576.735294117647 1330.142857142857 3598.735294117647 1276.142857142857Q3564.735294117647 1322.142857142857 3527.235294117647 1369.642857142857Q3489.735294117647 1417.142857142857 3451.235294117647 1455.142857142857Q3412.735294117647 1493.142857142857 3374.235294117647 1517.642857142857Q3335.735294117647 1542.142857142857 3301.735294117647 1542.142857142857Q3285.735294117647 1542.142857142857 3267.735294117647 1533.642857142857Q3249.735294117647 1525.142857142857 3234.235294117647 1508.642857142857Q3218.735294117647 1492.142857142857 3208.735294117647 1467.642857142857Q3198.735294117647 1443.142857142857 3198.735294117647 1411.142857142857Q3198.735294117647 1357.142857142857 3223.735294117647 1291.642857142857Q3248.735294117647 1226.142857142857 3287.235294117647 1160.142857142857Q3325.735294117647 1094.142857142857 3372.735294117647 1032.142857142857Q3419.735294117647 970.1428571428571 3463.735294117647 924.1428571428571Q3503.735294117647 881.1428571428571 3539.235294117647 851.1428571428571Q3574.735294117647 821.1428571428571 3606.235294117647 802.6428571428571Q3637.735294117647 784.1428571428571 3665.735294117647 775.6428571428571Q3693.735294117647 767.1428571428571 3719.735294117647 766.1428571428571Q3743.735294117647 766.1428571428571 3759.735294117647 771.6428571428571Q3775.735294117647 777.1428571428571 3784.735294117647 786.1428571428571Q3793.735294117647 795.1428571428571 3797.235294117647 807.1428571428571Q3800.735294117647 819.1428571428571 3800.735294117647 832.1428571428571Q3800.735294117647 846.1428571428571 3792.735294117647 868.1428571428571Q3784.735294117647 890.1428571428571 3770.735294117647 912.1428571428571Q3756.735294117647 934.1428571428571 3738.235294117647 949.6428571428571Q3719.735294117647 965.1428571428571 3698.735294117647 965.1428571428571Q3690.735294117647 965.1428571428571 3688.735294117647 959.1428571428571Q3686.735294117647 953.1428571428571 3686.735294117647 944.1428571428571Q3686.735294117647 927.1428571428571 3690.735294117647 904.1428571428571Q3694.735294117647 881.1428571428571 3694.735294117647 864.1428571428571Q3694.735294117647 849.1428571428571 3691.235294117647 842.6428571428571Q3687.735294117647 836.1428571428571 3676.735294117647 836.1428571428571Q3650.735294117647 847.1428571428571 3621.235294117647 878.6428571428571Q3591.735294117647 910.1428571428571 3562.735294117647 952.6428571428571Q3533.735294117647 995.1428571428571 3507.235294117647 1044.642857142857Q3480.735294117647 1094.142857142857 3460.235294117647 1142.642857142857Q3439.735294117647 1191.142857142857 3427.735294117647 1234.642857142857Q3415.735294117647 1278.142857142857 3415.735294117647 1307.142857142857Q3415.735294117647 1328.142857142857 3421.735294117647 1340.142857142857Q3427.735294117647 1352.142857142857 3436.735294117647 1352.142857142857Q3443.735294117647 1352.142857142857 3458.735294117647 1339.142857142857Q3473.735294117647 1326.142857142857 3493.235294117647 1305.142857142857Q3512.735294117647 1284.142857142857 3533.735294117647 1257.642857142857Q3554.735294117647 1231.142857142857 3575.235294117647 1205.142857142857Q3595.735294117647 1179.142857142857 3612.735294117647 1156.142857142857Q3629.735294117647 1133.142857142857 3639.735294117647 1118.142857142857Q3665.735294117647 1080.142857142857 3676.235294117647 1059.142857142857Q3686.735294117647 1038.142857142857 3698.735294117647 1038.142857142857Q3703.735294117647 1038.142857142857 3713.235294117647 1046.142857142857Q3722.735294117647 1054.142857142857 3732.235294117647 1064.642857142857Q3741.735294117647 1075.142857142857 3748.735294117647 1086.142857142857Q3755.735294117647 1097.142857142857 3755.735294117647 1102.142857142857Q3755.735294117647 1116.142857142857 3742.735294117647 1141.642857142857Q3729.735294117647 1167.142857142857 3706.735294117647 1223.142857142857Q3680.735294117647 1283.142857142857 3668.235294117647 1335.142857142857Q3655.735294117647 1387.142857142857 3655.735294117647 1427.142857142857Q3655.735294117647 1441.142857142857 3657.735294117647 1455.142857142857Q3659.735294117647 1469.142857142857 3664.735294117647 1480.642857142857Q3669.735294117647 1492.142857142857 3678.735294117647 1499.642857142857Q3687.735294117647 1507.142857142857 3702.735294117647 1507.142857142857Q3726.735294117647 1507.142857142857 3752.235294117647 1487.642857142857Q3777.735294117647 1468.142857142857 3801.235294117647 1438.142857142857Q3824.735294117647 1408.142857142857 3845.735294117647 1373.642857142857Q3866.735294117647 1339.142857142857 3882.735294117647 1308.142857142857Q3898.735294117647 1277.142857142857 3908.235294117647 1255.642857142857Q3917.735294117647 1234.142857142857 3919.735294117647 1231.142857142857Q3927.735294117647 1215.142857142857 3938.735294117647 1215.142857142857Q3944.735294117647 1215.142857142857 3949.735294117647 1219.142857142857Q3954.735294117647 1223.142857142857 3954.735294117647 1231.142857142857Q3954.735294117647 1237.142857142857 3950.735294117647 1245.142857142857ZM4604.735294117647 191.1428571428571Q4604.735294117647 236.1428571428571 4585.235294117647 301.1428571428571Q4565.735294117647 366.1428571428571 4530.235294117647 445.6428571428571Q4494.735294117647 525.1428571428571 4444.735294117647 617.1428571428571Q4394.735294117647 709.1428571428571 4334.235294117647 807.6428571428571Q4273.735294117647 906.1428571428571 4203.735294117647 1007.6428571428571Q4133.735294117647 1109.142857142857 4057.735294117647 1208.142857142857Q4054.735294117647 1237.142857142857 4054.235294117647 1264.642857142857Q4053.735294117647 1292.142857142857 4053.735294117647 1317.142857142857Q4053.735294117647 1355.142857142857 4056.735294117647 1385.642857142857Q4059.735294117647 1416.142857142857 4068.235294117647 1438.642857142857Q4076.735294117647 1461.142857142857 4091.735294117647 1473.142857142857Q4106.735294117647 1485.142857142857 4129.735294117647 1485.142857142857Q4148.735294117647 1485.142857142857 4169.235294117647 1471.642857142857Q4189.735294117647 1458.142857142857 4209.735294117647 1436.142857142857Q4229.735294117647 1414.142857142857 4248.235294117647 1386.142857142857Q4266.735294117647 1358.142857142857 4282.735294117647 1330.142857142857Q4298.735294117647 1302.142857142857 4311.735294117647 1276.142857142857Q4324.735294117647 1250.142857142857 4331.735294117647 1231.142857142857Q4336.735294117647 1220.142857142857 4343.235294117647 1217.642857142857Q4349.735294117647 1215.142857142857 4352.735294117647 1215.142857142857Q4358.735294117647 1215.142857142857 4362.735294117647 1220.142857142857Q4366.735294117647 1225.142857142857 4366.735294117647 1233.142857142857Q4366.735294117647 1237.142857142857 4362.735294117647 1245.142857142857Q4328.735294117647 1326.142857142857 4289.735294117647 1395.142857142857Q4250.735294117647 1464.142857142857 4209.735294117647 1514.142857142857Q4168.735294117647 1564.142857142857 4128.235294117647 1592.142857142857Q4087.735294117647 1620.142857142857 4051.735294117647 1620.142857142857Q4023.735294117647 1620.142857142857 3997.735294117647 1608.142857142857Q3971.735294117647 1596.142857142857 3951.235294117647 1568.142857142857Q3930.735294117647 1540.142857142857 3918.235294117647 1493.642857142857Q3905.735294117647 1447.142857142857 3905.735294117647 1378.142857142857Q3905.735294117647 1283.142857142857 3925.235294117647 1181.642857142857Q3944.735294117647 1080.142857142857 3976.735294117647 979.6428571428571Q4008.735294117647 879.1428571428571 4049.235294117647 783.1428571428571Q4089.735294117647 687.1428571428571 4131.735294117647 602.1428571428571Q4173.735294117647 517.1428571428571 4213.735294117647 447.1428571428571Q4253.735294117647 377.1428571428571 4284.735294117647 328.1428571428571Q4319.735294117647 272.1428571428571 4353.235294117647 226.1428571428571Q4386.735294117647 180.1428571428571 4417.235294117647 147.6428571428571Q4447.735294117647 115.14285714285711 4475.735294117647 97.64285714285711Q4503.735294117647 80.14285714285711 4528.735294117647 80.14285714285711Q4565.735294117647 80.14285714285711 4585.235294117647 110.64285714285711Q4604.735294117647 141.1428571428571 4604.735294117647 191.1428571428571ZM4104.735294117647 963.1428571428571Q4092.735294117647 1008.1428571428571 4083.235294117647 1049.142857142857Q4073.735294117647 1090.142857142857 4067.735294117647 1128.142857142857Q4162.735294117647 989.1428571428571 4234.735294117647 862.1428571428571Q4306.735294117647 735.1428571428571 4354.735294117647 631.6428571428571Q4402.735294117647 528.1428571428571 4426.735294117647 453.6428571428571Q4450.735294117647 379.1428571428571 4450.735294117647 344.1428571428571Q4450.735294117647 324.1428571428571 4445.735294117647 316.6428571428571Q4440.735294117647 309.1428571428571 4428.735294117647 309.1428571428571Q4413.735294117647 309.1428571428571 4388.735294117647 340.6428571428571Q4363.735294117647 372.1428571428571 4333.735294117647 424.1428571428571Q4303.735294117647 476.1428571428571 4270.735294117647 543.6428571428571Q4237.735294117647 611.1428571428571 4206.735294117647 684.1428571428571Q4175.735294117647 757.1428571428571 4148.735294117647 829.6428571428571Q4121.735294117647 902.1428571428571 4104.735294117647 963.1428571428571ZM4895.735294117647 1245.142857142857Q4859.735294117647 1319.142857142857 4811.735294117647 1385.142857142857Q4763.735294117647 1451.142857142857 4708.235294117647 1500.642857142857Q4652.735294117647 1550.142857142857 4591.235294117647 1579.142857142857Q4529.735294117647 1608.142857142857 4467.735294117647 1608.142857142857Q4422.735294117647 1608.142857142857 4387.735294117647 1589.642857142857Q4352.735294117647 1571.142857142857 4328.735294117647 1539.142857142857Q4304.735294117647 1507.142857142857 4292.735294117647 1464.142857142857Q4280.735294117647 1421.142857142857 4280.735294117647 1372.142857142857Q4280.735294117647 1291.142857142857 4302.735294117647 1216.142857142857Q4324.735294117647 1141.142857142857 4360.735294117647 1076.142857142857Q4396.735294117647 1011.1428571428571 4442.735294117647 957.1428571428571Q4488.735294117647 903.1428571428571 4535.735294117647 864.6428571428571Q4582.735294117647 826.1428571428571 4627.235294117647 805.1428571428571Q4671.735294117647 784.1428571428571 4704.735294117647 784.1428571428571Q4729.735294117647 784.1428571428571 4749.235294117647 794.1428571428571Q4768.735294117647 804.1428571428571 4781.735294117647 820.6428571428571Q4794.735294117647 837.1428571428571 4801.235294117647 857.1428571428571Q4807.735294117647 877.1428571428571 4807.735294117647 897.1428571428571Q4807.735294117647 958.1428571428571 4775.735294117647 1023.6428571428571Q4743.735294117647 1089.142857142857 4691.735294117647 1147.642857142857Q4639.735294117647 1206.142857142857 4574.735294117647 1252.642857142857Q4509.735294117647 1299.142857142857 4442.735294117647 1321.142857142857Q4442.735294117647 1358.142857142857 4450.235294117647 1390.642857142857Q4457.735294117647 1423.142857142857 4473.235294117647 1447.642857142857Q4488.735294117647 1472.142857142857 4512.735294117647 1486.642857142857Q4536.735294117647 1501.142857142857 4569.735294117647 1501.142857142857Q4602.735294117647 1501.142857142857 4636.735294117647 1487.642857142857Q4670.735294117647 1474.142857142857 4707.235294117647 1442.642857142857Q4743.735294117647 1411.142857142857 4782.735294117647 1359.142857142857Q4821.735294117647 1307.142857142857 4864.735294117647 1231.142857142857Q4874.735294117647 1215.142857142857 4882.735294117647 1215.142857142857Q4889.735294117647 1215.142857142857 4894.735294117647 1219.142857142857Q4899.735294117647 1223.142857142857 4899.735294117647 1231.142857142857Q4899.735294117647 1237.142857142857 4895.735294117647 1245.142857142857ZM4672.735294117647 899.1428571428571Q4643.735294117647 899.1428571428571 4608.235294117647 933.1428571428571Q4572.735294117647 967.1428571428571 4539.735294117647 1020.6428571428571Q4506.735294117647 1074.142857142857 4480.235294117647 1139.642857142857Q4453.735294117647 1205.142857142857 4444.735294117647 1268.142857142857Q4493.735294117647 1245.142857142857 4542.235294117647 1210.642857142857Q4590.735294117647 1176.142857142857 4629.235294117647 1134.142857142857Q4667.735294117647 1092.142857142857 4691.735294117647 1044.642857142857Q4715.735294117647 997.1428571428571 4715.735294117647 948.1428571428571Q4715.735294117647 928.1428571428571 4704.735294117647 913.6428571428571Q4693.735294117647 899.1428571428571 4672.735294117647 899.1428571428571ZM5925.735294117647 84.14285714285711Q5890.735294117647 84.14285714285711 5850.735294117647 98.64285714285711Q5810.735294117647 113.14285714285711 5770.735294117647 139.1428571428571Q5730.735294117647 165.1428571428571 5693.235294117647 201.6428571428571Q5655.735294117647 238.1428571428571 5627.235294117647 281.1428571428571Q5598.735294117647 324.1428571428571 5581.735294117647 373.1428571428571Q5564.735294117647 422.1428571428571 5564.735294117647 473.1428571428571Q5564.735294117647 542.1428571428571 5584.735294117647 600.1428571428571Q5604.735294117647 658.1428571428571 5634.235294117647 711.1428571428571Q5663.735294117647 764.1428571428571 5698.235294117647 814.6428571428571Q5732.735294117647 865.1428571428571 5762.235294117647 919.1428571428571Q5791.735294117647 973.1428571428571 5811.735294117647 1034.142857142857Q5831.735294117647 1095.142857142857 5831.735294117647 1167.142857142857Q5831.735294117647 1252.142857142857 5813.735294117647 1331.142857142857Q5795.735294117647 1410.142857142857 5762.235294117647 1479.642857142857Q5728.735294117647 1549.142857142857 5682.235294117647 1606.642857142857Q5635.735294117647 1664.142857142857 5578.235294117647 1705.142857142857Q5520.735294117647 1746.142857142857 5454.235294117647 1769.142857142857Q5387.735294117647 1792.142857142857 5315.735294117647 1792.142857142857Q5232.735294117647 1792.142857142857 5174.735294117647 1766.142857142857Q5116.735294117647 1740.142857142857 5079.235294117647 1700.642857142857Q5041.735294117647 1661.142857142857 5024.735294117647 1615.142857142857Q5007.735294117647 1569.142857142857 5007.735294117647 1528.142857142857Q5007.735294117647 1458.142857142857 5031.235294117647 1407.642857142857Q5054.735294117647 1357.142857142857 5090.235294117647 1325.142857142857Q5125.735294117647 1293.142857142857 5166.235294117647 1277.642857142857Q5206.735294117647 1262.142857142857 5241.735294117647 1262.142857142857Q5255.735294117647 1262.142857142857 5262.735294117647 1271.642857142857Q5269.735294117647 1281.142857142857 5269.735294117647 1292.142857142857Q5269.735294117647 1309.142857142857 5255.735294117647 1322.642857142857Q5241.735294117647 1336.142857142857 5224.735294117647 1357.142857142857Q5207.735294117647 1378.142857142857 5193.735294117647 1412.642857142857Q5179.735294117647 1447.142857142857 5179.735294117647 1505.142857142857Q5179.735294117647 1542.142857142857 5191.235294117647 1578.142857142857Q5202.735294117647 1614.142857142857 5226.235294117647 1642.142857142857Q5249.735294117647 1670.142857142857 5285.235294117647 1687.142857142857Q5320.735294117647 1704.142857142857 5368.735294117647 1704.142857142857Q5420.735294117647 1704.142857142857 5471.235294117647 1681.642857142857Q5521.735294117647 1659.142857142857 5561.735294117647 1617.142857142857Q5601.735294117647 1575.142857142857 5626.235294117647 1514.642857142857Q5650.735294117647 1454.142857142857 5650.735294117647 1378.142857142857Q5650.735294117647 1316.142857142857 5631.235294117647 1255.642857142857Q5611.735294117647 1195.142857142857 5582.735294117647 1135.642857142857Q5553.735294117647 1076.142857142857 5519.735294117647 1017.6428571428571Q5485.735294117647 959.1428571428571 5456.735294117647 900.1428571428571Q5427.735294117647 841.1428571428571 5408.235294117647 782.1428571428571Q5388.735294117647 723.1428571428571 5388.735294117647 662.1428571428571Q5388.735294117647 591.1428571428571 5412.235294117647 514.6428571428571Q5435.735294117647 438.1428571428571 5476.735294117647 365.1428571428571Q5517.735294117647 292.1428571428571 5574.735294117647 226.1428571428571Q5631.735294117647 160.1428571428571 5698.735294117647 110.14285714285711Q5765.735294117647 60.14285714285711 5840.735294117647 31.14285714285711Q5915.735294117647 2.1428571428571104 5992.735294117647 2.1428571428571104Q6042.735294117647 2.1428571428571104 6075.735294117647 16.64285714285711Q6108.735294117647 31.14285714285711 6128.235294117647 54.14285714285711Q6147.735294117647 77.14285714285711 6155.235294117647 106.64285714285711Q6162.735294117647 136.1428571428571 6162.735294117647 166.1428571428571Q6162.735294117647 219.1428571428571 6148.235294117647 264.6428571428571Q6133.735294117647 310.1428571428571 6110.735294117647 346.6428571428571Q6087.735294117647 383.1428571428571 6059.735294117647 411.1428571428571Q6031.735294117647 439.1428571428571 6004.735294117647 458.1428571428571Q5977.735294117647 477.1428571428571 5954.235294117647 486.6428571428571Q5930.735294117647 496.1428571428571 5917.735294117647 496.1428571428571Q5903.735294117647 496.1428571428571 5898.235294117647 493.1428571428571Q5892.735294117647 490.1428571428571 5892.735294117647 473.1428571428571Q5896.735294117647 443.1428571428571 5914.735294117647 408.1428571428571Q5932.735294117647 373.1428571428571 5952.735294117647 335.6428571428571Q5972.735294117647 298.1428571428571 5988.235294117647 258.1428571428571Q6003.735294117647 218.1428571428571 6003.735294117647 178.1428571428571Q6003.735294117647 164.1428571428571 6000.235294117647 147.6428571428571Q5996.735294117647 131.1428571428571 5988.235294117647 117.14285714285711Q5979.735294117647 103.14285714285711 5964.735294117647 93.64285714285711Q5949.735294117647 84.14285714285711 5925.735294117647 84.14285714285711ZM6142.735294117647 1321.142857142857Q6142.735294117647 1356.142857142857 6150.735294117647 1389.142857142857Q6158.735294117647 1422.142857142857 6174.235294117647 1447.642857142857Q6189.735294117647 1473.142857142857 6214.235294117647 1489.142857142857Q6238.735294117647 1505.142857142857 6271.735294117647 1505.142857142857Q6317.735294117647 1505.142857142857 6361.235294117647 1481.642857142857Q6404.735294117647 1458.142857142857 6443.235294117647 1420.142857142857Q6481.735294117647 1382.142857142857 6513.235294117647 1332.642857142857Q6544.735294117647 1283.142857142857 6566.735294117647 1231.142857142857Q6569.735294117647 1223.142857142857 6574.735294117647 1219.142857142857Q6579.735294117647 1215.142857142857 6584.735294117647 1215.142857142857Q6591.735294117647 1215.142857142857 6596.735294117647 1218.642857142857Q6601.735294117647 1222.142857142857 6601.735294117647 1231.142857142857Q6601.735294117647 1234.142857142857 6600.735294117647 1237.142857142857Q6599.735294117647 1240.142857142857 6597.735294117647 1245.142857142857Q6576.735294117647 1297.142857142857 6537.735294117647 1360.142857142857Q6498.735294117647 1423.142857142857 6444.235294117647 1477.642857142857Q6389.735294117647 1532.142857142857 6321.735294117647 1569.142857142857Q6253.735294117647 1606.142857142857 6175.735294117647 1606.142857142857Q6130.735294117647 1606.142857142857 6092.235294117647 1588.642857142857Q6053.735294117647 1571.142857142857 6024.735294117647 1539.142857142857Q5995.735294117647 1507.142857142857 5979.235294117647 1460.642857142857Q5962.735294117647 1414.142857142857 5962.735294117647 1356.142857142857Q5962.735294117647 1298.142857142857 5980.735294117647 1232.642857142857Q5998.735294117647 1167.142857142857 6030.235294117647 1103.142857142857Q6061.735294117647 1039.142857142857 6104.735294117647 980.1428571428571Q6147.735294117647 921.1428571428571 6197.735294117647 876.1428571428571Q6247.735294117647 831.1428571428571 6302.735294117647 804.6428571428571Q6357.735294117647 778.1428571428571 6412.735294117647 778.1428571428571Q6459.735294117647 778.1428571428571 6482.235294117647 809.1428571428571Q6504.735294117647 840.1428571428571 6504.735294117647 893.1428571428571Q6504.735294117647 935.1428571428571 6486.235294117647 972.1428571428571Q6467.735294117647 1009.1428571428571 6442.235294117647 1036.142857142857Q6416.735294117647 1063.142857142857 6391.235294117647 1078.642857142857Q6365.735294117647 1094.142857142857 6351.735294117647 1094.142857142857Q6339.735294117647 1094.142857142857 6339.735294117647 1083.142857142857Q6339.735294117647 1079.142857142857 6345.735294117647 1067.142857142857Q6354.735294117647 1049.142857142857 6364.235294117647 1027.642857142857Q6373.735294117647 1006.1428571428571 6381.235294117647 985.1428571428571Q6388.735294117647 964.1428571428571 6393.735294117647 944.1428571428571Q6398.735294117647 924.1428571428571 6398.735294117647 909.1428571428571Q6398.735294117647 877.1428571428571 6369.735294117647 877.1428571428571Q6348.735294117647 877.1428571428571 6324.235294117647 895.1428571428571Q6299.735294117647 913.1428571428571 6274.235294117647 944.1428571428571Q6248.735294117647 975.1428571428571 6225.235294117647 1017.6428571428571Q6201.735294117647 1060.142857142857 6183.235294117647 1109.642857142857Q6164.735294117647 1159.142857142857 6153.735294117647 1213.142857142857Q6142.735294117647 1267.142857142857 6142.735294117647 1321.142857142857ZM7135.735294117647 1245.142857142857Q7121.735294117647 1272.142857142857 7099.735294117647 1307.642857142857Q7077.735294117647 1343.142857142857 7049.735294117647 1380.642857142857Q7021.735294117647 1418.142857142857 6989.235294117647 1455.142857142857Q6956.735294117647 1492.142857142857 6922.235294117647 1520.642857142857Q6887.735294117647 1549.142857142857 6852.235294117647 1567.142857142857Q6816.735294117647 1585.142857142857 6783.735294117647 1585.142857142857Q6762.735294117647 1585.142857142857 6742.235294117647 1579.142857142857Q6721.735294117647 1573.142857142857 6705.235294117647 1560.642857142857Q6688.735294117647 1548.142857142857 6678.735294117647 1529.142857142857Q6668.735294117647 1510.142857142857 6668.735294117647 1483.142857142857Q6668.735294117647 1446.142857142857 6683.235294117647 1404.642857142857Q6697.735294117647 1363.142857142857 6720.235294117647 1320.642857142857Q6742.735294117647 1278.142857142857 6768.235294117647 1237.142857142857Q6793.735294117647 1196.142857142857 6816.235294117647 1158.642857142857Q6838.735294117647 1121.142857142857 6853.235294117647 1090.142857142857Q6867.735294117647 1059.142857142857 6867.735294117647 1036.142857142857Q6867.735294117647 1027.142857142857 6857.235294117647 1021.6428571428571Q6846.735294117647 1016.1428571428571 6828.735294117647 1016.1428571428571Q6819.735294117647 1016.1428571428571 6805.235294117647 1019.1428571428571Q6790.735294117647 1022.1428571428571 6772.735294117647 1026.142857142857Q6754.735294117647 1030.142857142857 6734.235294117647 1034.642857142857Q6713.735294117647 1039.142857142857 6693.735294117647 1042.142857142857Q6662.735294117647 1117.142857142857 6631.735294117647 1182.142857142857Q6600.735294117647 1247.142857142857 6578.735294117647 1284.142857142857Q6570.735294117647 1298.142857142857 6565.235294117647 1303.642857142857Q6559.735294117647 1309.142857142857 6551.735294117647 1309.142857142857Q6537.735294117647 1309.142857142857 6537.735294117647 1296.142857142857Q6537.735294117647 1291.142857142857 6539.235294117647 1284.642857142857Q6540.735294117647 1278.142857142857 6543.735294117647 1272.142857142857Q6572.735294117647 1218.142857142857 6599.235294117647 1161.642857142857Q6625.735294117647 1105.142857142857 6650.735294117647 1047.142857142857Q6627.735294117647 1047.142857142857 6617.735294117647 1037.642857142857Q6607.735294117647 1028.142857142857 6607.735294117647 1008.1428571428571Q6607.735294117647 987.1428571428571 6618.235294117647 955.6428571428571Q6628.735294117647 924.1428571428571 6644.735294117647 889.6428571428571Q6660.735294117647 855.1428571428571 6680.735294117647 820.6428571428571Q6700.735294117647 786.1428571428571 6720.735294117647 758.6428571428571Q6740.735294117647 731.1428571428571 6757.235294117647 713.6428571428571Q6773.735294117647 696.1428571428571 6783.735294117647 696.1428571428571Q6791.735294117647 696.1428571428571 6799.735294117647 702.1428571428571Q6807.735294117647 708.1428571428571 6807.735294117647 719.1428571428571Q6807.735294117647 734.1428571428571 6798.735294117647 766.1428571428571Q6789.735294117647 798.1428571428571 6775.735294117647 840.1428571428571Q6817.735294117647 834.1428571428571 6849.235294117647 830.6428571428571Q6880.735294117647 827.1428571428571 6897.735294117647 827.1428571428571Q6938.735294117647 827.1428571428571 6965.735294117647 842.6428571428571Q6992.735294117647 858.1428571428571 6992.735294117647 883.1428571428571Q6992.735294117647 898.1428571428571 6981.735294117647 928.6428571428571Q6970.735294117647 959.1428571428571 6954.735294117647 999.1428571428571Q6938.735294117647 1039.142857142857 6919.735294117647 1085.642857142857Q6900.735294117647 1132.142857142857 6884.735294117647 1179.642857142857Q6868.735294117647 1227.142857142857 6857.735294117647 1272.142857142857Q6846.735294117647 1317.142857142857 6846.735294117647 1354.142857142857Q6846.735294117647 1383.142857142857 6858.235294117647 1403.142857142857Q6869.735294117647 1423.142857142857 6893.735294117647 1423.142857142857Q6911.735294117647 1423.142857142857 6934.235294117647 1414.642857142857Q6956.735294117647 1406.142857142857 6983.735294117647 1384.642857142857Q7010.735294117647 1363.142857142857 7041.235294117647 1325.642857142857Q7071.735294117647 1288.142857142857 7104.735294117647 1231.142857142857Q7112.735294117647 1215.142857142857 7123.735294117647 1215.142857142857Q7129.735294117647 1215.142857142857 7134.735294117647 1219.142857142857Q7139.735294117647 1223.142857142857 7139.735294117647 1231.142857142857Q7139.735294117647 1237.142857142857 7135.735294117647 1245.142857142857ZM7664.735294117647 553.1428571428571Q7664.735294117647 575.1428571428571 7651.735294117647 605.6428571428571Q7638.735294117647 636.1428571428571 7618.235294117647 663.6428571428571Q7597.735294117647 691.1428571428571 7573.235294117647 710.1428571428571Q7548.735294117647 729.1428571428571 7525.735294117647 729.1428571428571Q7494.735294117647 729.1428571428571 7473.235294117647 710.1428571428571Q7451.735294117647 691.1428571428571 7451.735294117647 670.1428571428571Q7451.735294117647 661.1428571428571 7458.235294117647 643.1428571428571Q7464.735294117647 625.1428571428571 7475.235294117647 603.6428571428571Q7485.735294117647 582.1428571428571 7500.235294117647 559.6428571428571Q7514.735294117647 537.1428571428571 7531.235294117647 518.6428571428571Q7547.735294117647 500.1428571428571 7564.235294117647 488.6428571428571Q7580.735294117647 477.1428571428571 7596.735294117647 477.1428571428571Q7636.735294117647 477.1428571428571 7650.735294117647 496.1428571428571Q7664.735294117647 515.1428571428571 7664.735294117647 553.1428571428571ZM7535.735294117647 1245.142857142857Q7500.735294117647 1324.142857142857 7459.235294117647 1389.642857142857Q7417.735294117647 1455.142857142857 7373.735294117647 1501.642857142857Q7329.735294117647 1548.142857142857 7283.235294117647 1574.142857142857Q7236.735294117647 1600.142857142857 7191.735294117647 1600.142857142857Q7157.735294117647 1600.142857142857 7133.735294117647 1585.642857142857Q7109.735294117647 1571.142857142857 7094.235294117647 1546.142857142857Q7078.735294117647 1521.142857142857 7071.735294117647 1487.642857142857Q7064.735294117647 1454.142857142857 7064.735294117647 1415.142857142857Q7064.735294117647 1342.142857142857 7084.735294117647 1270.642857142857Q7104.735294117647 1199.142857142857 7136.235294117647 1130.642857142857Q7167.735294117647 1062.142857142857 7207.735294117647 996.1428571428571Q7247.735294117647 930.1428571428571 7287.735294117647 868.1428571428571Q7296.735294117647 853.1428571428571 7309.735294117647 841.1428571428571Q7322.735294117647 829.1428571428571 7334.735294117647 829.1428571428571Q7351.735294117647 829.1428571428571 7368.735294117647 835.1428571428571Q7385.735294117647 841.1428571428571 7399.735294117647 850.6428571428571Q7413.735294117647 860.1428571428571 7422.235294117647 871.6428571428571Q7430.735294117647 883.1428571428571 7430.735294117647 895.1428571428571Q7430.735294117647 909.1428571428571 7413.735294117647 941.1428571428571Q7396.735294117647 973.1428571428571 7370.735294117647 1017.6428571428571Q7344.735294117647 1062.142857142857 7315.235294117647 1116.142857142857Q7285.735294117647 1170.142857142857 7259.735294117647 1228.142857142857Q7233.735294117647 1286.142857142857 7216.735294117647 1344.642857142857Q7199.735294117647 1403.142857142857 7199.735294117647 1456.142857142857Q7199.735294117647 1469.142857142857 7201.235294117647 1481.642857142857Q7202.735294117647 1494.142857142857 7208.235294117647 1503.642857142857Q7213.735294117647 1513.142857142857 7225.235294117647 1518.642857142857Q7236.735294117647 1524.142857142857 7256.735294117647 1524.142857142857Q7277.735294117647 1524.142857142857 7309.235294117647 1499.142857142857Q7340.735294117647 1474.142857142857 7375.235294117647 1432.642857142857Q7409.735294117647 1391.142857142857 7444.235294117647 1338.642857142857Q7478.735294117647 1286.142857142857 7504.735294117647 1231.142857142857Q7512.735294117647 1215.142857142857 7522.735294117647 1215.142857142857Q7529.735294117647 1215.142857142857 7534.735294117647 1219.142857142857Q7539.735294117647 1223.142857142857 7539.735294117647 1231.142857142857Q7539.735294117647 1237.142857142857 7535.735294117647 1245.142857142857ZM8261.735294117647 1245.142857142857Q8213.735294117647 1363.142857142857 8148.235294117647 1436.142857142857Q8082.735294117647 1509.142857142857 8010.735294117647 1549.642857142857Q7938.735294117647 1590.142857142857 7865.235294117647 1604.142857142857Q7791.735294117647 1618.142857142857 7727.735294117647 1618.142857142857Q7676.735294117647 1618.142857142857 7637.735294117647 1607.142857142857Q7598.735294117647 1596.142857142857 7571.735294117647 1580.642857142857Q7544.735294117647 1565.142857142857 7530.735294117647 1548.142857142857Q7516.735294117647 1531.142857142857 7516.735294117647 1518.142857142857Q7516.735294117647 1500.142857142857 7522.735294117647 1485.142857142857Q7528.735294117647 1470.142857142857 7538.235294117647 1458.642857142857Q7547.735294117647 1447.142857142857 7559.235294117647 1440.642857142857Q7570.735294117647 1434.142857142857 7581.735294117647 1434.142857142857Q7594.735294117647 1434.142857142857 7602.235294117647 1444.142857142857Q7609.735294117647 1454.142857142857 7617.735294117647 1469.142857142857Q7625.735294117647 1484.142857142857 7636.735294117647 1502.142857142857Q7647.735294117647 1520.142857142857 7667.735294117647 1536.142857142857Q7687.735294117647 1526.142857142857 7717.735294117647 1491.642857142857Q7747.735294117647 1457.142857142857 7781.735294117647 1407.642857142857Q7815.735294117647 1358.142857142857 7850.235294117647 1297.642857142857Q7884.735294117647 1237.142857142857 7913.735294117647 1174.142857142857Q7951.735294117647 1090.142857142857 7969.735294117647 1029.642857142857Q7987.735294117647 969.1428571428571 7989.735294117647 940.1428571428571Q7989.735294117647 928.1428571428571 7986.735294117647 920.6428571428571Q7983.735294117647 913.1428571428571 7977.735294117647 913.1428571428571Q7967.735294117647 913.1428571428571 7938.735294117647 934.6428571428571Q7909.735294117647 956.1428571428571 7870.235294117647 992.6428571428571Q7830.735294117647 1029.142857142857 7783.235294117647 1078.642857142857Q7735.735294117647 1128.142857142857 7687.735294117647 1183.642857142857Q7639.735294117647 1239.142857142857 7594.735294117647 1298.142857142857Q7549.735294117647 1357.142857142857 7514.735294117647 1413.142857142857Q7502.735294117647 1447.142857142857 7483.235294117647 1505.642857142857Q7463.735294117647 1564.142857142857 7440.235294117647 1633.142857142857Q7416.735294117647 1702.142857142857 7392.735294117647 1775.142857142857Q7368.735294117647 1848.142857142857 7347.735294117647 1910.642857142857Q7326.735294117647 1973.142857142857 7310.735294117647 2018.6428571428569Q7294.735294117647 2064.142857142857 7289.735294117647 2077.142857142857Q7272.735294117647 2117.142857142857 7253.735294117647 2139.142857142857Q7234.735294117647 2161.142857142857 7217.735294117647 2161.142857142857Q7208.735294117647 2161.142857142857 7200.235294117647 2148.642857142857Q7191.735294117647 2136.142857142857 7184.735294117647 2115.642857142857Q7177.735294117647 2095.142857142857 7173.235294117647 2069.142857142857Q7168.735294117647 2043.142857142857 7168.735294117647 2017.142857142857Q7168.735294117647 1999.142857142857 7177.235294117647 1961.142857142857Q7185.735294117647 1923.142857142857 7202.735294117647 1873.142857142857Q7219.735294117647 1823.142857142857 7243.735294117647 1765.142857142857Q7267.735294117647 1707.142857142857 7299.735294117647 1647.142857142857Q7353.735294117647 1542.142857142857 7404.735294117647 1437.642857142857Q7455.735294117647 1333.142857142857 7502.235294117647 1227.642857142857Q7548.735294117647 1122.142857142857 7588.735294117647 1015.1428571428571Q7628.735294117647 908.1428571428571 7659.735294117647 799.1428571428571L7702.735294117647 647.1428571428571Q7704.735294117647 638.1428571428571 7710.735294117647 627.1428571428571Q7716.735294117647 616.1428571428571 7725.235294117647 606.6428571428571Q7733.735294117647 597.1428571428571 7742.735294117647 590.6428571428571Q7751.735294117647 584.1428571428571 7760.735294117647 584.1428571428571Q7770.735294117647 584.1428571428571 7785.735294117647 599.1428571428571Q7800.735294117647 614.1428571428571 7814.735294117647 634.6428571428571Q7828.735294117647 655.1428571428571 7838.735294117647 675.1428571428571Q7848.735294117647 695.1428571428571 7848.735294117647 705.1428571428571Q7848.735294117647 732.1428571428571 7830.235294117647 787.6428571428571Q7811.735294117647 843.1428571428571 7776.735294117647 915.1428571428571Q7760.735294117647 946.1428571428571 7736.235294117647 992.6428571428571Q7711.735294117647 1039.142857142857 7682.735294117647 1090.142857142857Q7708.735294117647 1060.142857142857 7729.735294117647 1037.142857142857Q7750.735294117647 1014.1428571428571 7764.735294117647 998.1428571428571Q7781.735294117647 980.1428571428571 7794.735294117647 965.1428571428571Q7836.735294117647 917.1428571428571 7873.735294117647 886.6428571428571Q7910.735294117647 856.1428571428571 7941.235294117647 839.6428571428571Q7971.735294117647 823.1428571428571 7997.235294117647 817.1428571428571Q8022.735294117647 811.1428571428571 8042.735294117647 811.1428571428571Q8055.735294117647 811.1428571428571 8069.735294117647 817.6428571428571Q8083.735294117647 824.1428571428571 8095.735294117647 841.1428571428571Q8107.735294117647 858.1428571428571 8115.235294117647 887.1428571428571Q8122.735294117647 916.1428571428571 8122.735294117647 961.1428571428571Q8122.735294117647 1008.1428571428571 8109.735294117647 1065.142857142857Q8096.735294117647 1122.142857142857 8072.735294117647 1182.142857142857Q8048.735294117647 1242.142857142857 8015.235294117647 1302.142857142857Q7981.735294117647 1362.142857142857 7941.235294117647 1414.142857142857Q7900.735294117647 1466.142857142857 7853.735294117647 1507.142857142857Q7806.735294117647 1548.142857142857 7755.735294117647 1571.142857142857H7772.735294117647Q7838.735294117647 1571.142857142857 7901.235294117647 1555.142857142857Q7963.735294117647 1539.142857142857 8021.735294117647 1500.142857142857Q8079.735294117647 1461.142857142857 8132.735294117647 1395.642857142857Q8185.735294117647 1330.142857142857 8231.735294117647 1231.142857142857Q8234.735294117647 1223.142857142857 8239.735294117647 1219.142857142857Q8244.735294117647 1215.142857142857 8249.735294117647 1215.142857142857Q8255.735294117647 1215.142857142857 8260.735294117647 1219.142857142857Q8265.735294117647 1223.142857142857 8265.735294117647 1231.142857142857Q8265.735294117647 1237.142857142857 8261.735294117647 1245.142857142857ZM8779.735294117647 401.1428571428571Q8772.735294117647 414.1428571428571 8756.235294117647 445.6428571428571Q8739.735294117647 477.1428571428571 8716.735294117647 522.1428571428571Q8693.735294117647 567.1428571428571 8665.735294117647 622.6428571428571Q8637.735294117647 678.1428571428571 8607.735294117647 739.1428571428571Q8652.735294117647 736.1428571428571 8689.235294117647 732.6428571428571Q8725.735294117647 729.1428571428571 8741.735294117647 729.1428571428571Q8746.735294117647 729.1428571428571 8749.235294117647 732.6428571428571Q8751.735294117647 736.1428571428571 8751.735294117647 741.1428571428571Q8751.735294117647 749.1428571428571 8747.235294117647 758.1428571428571Q8742.735294117647 767.1428571428571 8739.735294117647 772.1428571428571Q8727.735294117647 790.1428571428571 8714.235294117647 809.6428571428571Q8700.735294117647 829.1428571428571 8685.735294117647 846.1428571428571Q8670.735294117647 863.1428571428571 8654.735294117647 875.1428571428571Q8638.735294117647 887.1428571428571 8620.735294117647 889.1428571428571Q8588.735294117647 895.1428571428571 8534.735294117647 889.1428571428571Q8509.735294117647 940.1428571428571 8486.235294117647 990.6428571428571Q8462.735294117647 1041.142857142857 8442.235294117647 1087.142857142857Q8421.735294117647 1133.142857142857 8405.235294117647 1173.642857142857Q8388.735294117647 1214.142857142857 8376.735294117647 1245.142857142857Q8348.735294117647 1323.142857142857 8328.735294117647 1377.642857142857Q8308.735294117647 1432.142857142857 8308.735294117647 1473.142857142857Q8308.735294117647 1499.142857142857 8323.235294117647 1515.642857142857Q8337.735294117647 1532.142857142857 8372.735294117647 1532.142857142857Q8395.735294117647 1532.142857142857 8429.235294117647 1505.642857142857Q8462.735294117647 1479.142857142857 8498.735294117647 1436.142857142857Q8534.735294117647 1393.142857142857 8569.735294117647 1339.142857142857Q8604.735294117647 1285.142857142857 8630.735294117647 1231.142857142857Q8638.735294117647 1215.142857142857 8648.735294117647 1215.142857142857Q8655.735294117647 1215.142857142857 8660.735294117647 1219.142857142857Q8665.735294117647 1223.142857142857 8665.735294117647 1231.142857142857Q8665.735294117647 1237.142857142857 8661.735294117647 1245.142857142857Q8625.735294117647 1324.142857142857 8582.735294117647 1393.642857142857Q8539.735294117647 1463.142857142857 8493.735294117647 1514.642857142857Q8447.735294117647 1566.142857142857 8400.235294117647 1596.142857142857Q8352.735294117647 1626.142857142857 8306.735294117647 1626.142857142857Q8241.735294117647 1626.142857142857 8213.235294117647 1590.142857142857Q8184.735294117647 1554.142857142857 8184.735294117647 1485.142857142857Q8184.735294117647 1435.142857142857 8195.235294117647 1377.142857142857Q8205.735294117647 1319.142857142857 8228.735294117647 1246.142857142857Q8251.735294117647 1173.142857142857 8289.735294117647 1081.142857142857Q8327.735294117647 989.1428571428571 8382.735294117647 870.1428571428571Q8359.735294117647 865.1428571428571 8338.735294117647 861.1428571428571Q8317.735294117647 857.1428571428571 8300.735294117647 852.1428571428571Q8288.735294117647 849.1428571428571 8281.735294117647 848.1428571428571Q8274.735294117647 847.1428571428571 8274.735294117647 842.1428571428571Q8274.735294117647 831.1428571428571 8281.235294117647 822.1428571428571Q8287.735294117647 813.1428571428571 8298.735294117647 801.1428571428571Q8303.735294117647 793.1428571428571 8311.235294117647 782.1428571428571Q8318.735294117647 771.1428571428571 8329.735294117647 768.1428571428571Q8337.735294117647 766.1428571428571 8367.235294117647 762.1428571428571Q8396.735294117647 758.1428571428571 8440.735294117647 752.1428571428571Q8482.735294117647 665.1428571428571 8531.735294117647 566.6428571428571Q8580.735294117647 468.1428571428571 8640.735294117647 352.1428571428571Q8651.735294117647 331.1428571428571 8663.735294117647 311.6428571428571Q8675.735294117647 292.1428571428571 8687.735294117647 277.1428571428571Q8699.735294117647 262.1428571428571 8711.235294117647 253.1428571428571Q8722.735294117647 244.1428571428571 8732.735294117647 244.1428571428571Q8744.735294117647 244.1428571428571 8755.735294117647 255.6428571428571Q8766.735294117647 267.1428571428571 8774.235294117647 284.1428571428571Q8781.735294117647 301.1428571428571 8786.235294117647 319.6428571428571Q8790.735294117647 338.1428571428571 8790.735294117647 352.1428571428571Q8790.735294117647 371.1428571428571 8787.735294117647 381.6428571428571Q8784.735294117647 392.1428571428571 8779.735294117647 401.1428571428571Z" fill="currentColor" /></svg>