<svg viewBox="0 0 3717 1070" xmlns="http://www.w3.org/2000/svg"><path d="M791 709Q791 733 802.0 747.0Q813 761 828.5 767.5Q844 774 861.0 776.0Q878 778 890 778V820Q880 820 859.5 818.5Q839 817 817.0 815.0Q795 813 774.5 811.5Q754 810 744 810Q734 810 714.0 811.5Q694 813 672.5 815.0Q651 817 631.0 818.5Q611 820 601 820V778Q614 778 631.5 776.0Q649 774 664.0 767.5Q679 761 689.5 747.0Q700 733 700 709V187L448 820H402L153 186V709Q153 733 164.0 747.0Q175 761 190.5 767.5Q206 774 223.0 776.0Q240 778 252 778V820Q242 820 225.0 818.5Q208 817 189.0 815.0Q170 813 153.0 811.5Q136 810 126 810Q116 810 99.0 811.5Q82 813 63.0 815.0Q44 817 27.0 818.5Q10 820 0 820V778Q13 778 30.5 776.0Q48 774 63.0 767.5Q78 761 88.5 747.0Q99 733 99 709V106Q99 75 75.5 58.5Q52 42 10 42Q10 25 22.0 12.5Q34 0 67 0Q90 0 110.5 9.0Q131 18 144 31Q157 18 177.5 9.0Q198 0 221 0Q254 0 266.0 12.5Q278 25 278 42Q223 42 199 72Q209 82 219.0 97.5Q229 113 238.0 130.0Q247 147 254.0 164.5Q261 182 266 195L451 677L642 173Q654 141 666.5 116.5Q679 92 692 73Q670 42 612 42Q612 25 624.0 12.5Q636 0 669 0Q692 0 712.5 9.0Q733 18 746 31Q759 18 779.5 9.0Q800 0 823 0Q856 0 868.0 12.5Q880 25 880 42Q839 42 815.0 58.5Q791 75 791 106ZM1008 204Q1008 174 1029.0 153.5Q1050 133 1079 133Q1108 133 1128.5 153.5Q1149 174 1149 204Q1149 234 1128.5 254.5Q1108 275 1079 275Q1050 275 1029.0 254.5Q1008 234 1008 204ZM1121 721Q1121 741 1127.5 754.0Q1134 767 1143.5 775.0Q1153 783 1165.5 786.5Q1178 790 1190 790V820Q1178 820 1163.5 818.5Q1149 817 1133.0 815.0Q1117 813 1102.5 811.5Q1088 810 1076 810Q1064 810 1049.5 811.5Q1035 813 1019.0 815.0Q1003 817 988.5 818.5Q974 820 962 820V790Q989 790 1010.0 775.0Q1031 760 1031 721V549Q1031 512 1029.5 487.5Q1028 463 1021.0 449.5Q1014 436 1001.0 430.5Q988 425 965 425V395Q990 395 1007.5 392.0Q1025 389 1039.0 383.0Q1053 377 1065.0 369.0Q1077 361 1091 352H1121ZM1398 721Q1398 741 1404.5 754.0Q1411 767 1420.5 775.0Q1430 783 1442.5 786.5Q1455 790 1467 790V820Q1455 820 1440.5 818.5Q1426 817 1410.0 815.0Q1394 813 1379.5 811.5Q1365 810 1353 810Q1341 810 1326.5 811.5Q1312 813 1296.0 815.0Q1280 817 1265.5 818.5Q1251 820 1239 820V790Q1266 790 1287.0 775.0Q1308 760 1308 721V203Q1308 166 1306.5 141.5Q1305 117 1298.0 103.5Q1291 90 1278.0 84.5Q1265 79 1242 79V54Q1267 54 1285.5 51.0Q1304 48 1319.0 42.0Q1334 36 1346.5 28.0Q1359 20 1373 11H1398ZM1769 834Q1719 834 1676.5 816.5Q1634 799 1602.0 767.0Q1570 735 1552.0 690.0Q1534 645 1534 589Q1534 532 1552.0 488.0Q1570 444 1602.0 413.5Q1634 383 1676.5 367.5Q1719 352 1769 352Q1818 352 1861.0 367.5Q1904 383 1936.0 413.5Q1968 444 1986.0 488.0Q2004 532 2004 589Q2004 646 1986.0 691.0Q1968 736 1936.0 768.0Q1904 800 1861.0 817.0Q1818 834 1769 834ZM1770 788Q1807 788 1833.0 772.0Q1859 756 1876.0 728.5Q1893 701 1901.0 665.0Q1909 629 1909 589Q1909 550 1901.0 515.0Q1893 480 1876.0 454.5Q1859 429 1832.5 414.0Q1806 399 1769 399Q1732 399 1705.5 413.5Q1679 428 1662.0 453.5Q1645 479 1637.0 514.0Q1629 549 1629 589Q1629 629 1637.0 665.0Q1645 701 1662.5 728.5Q1680 756 1706.5 772.0Q1733 788 1770 788ZM2471 633Q2471 566 2464.5 521.0Q2458 476 2445.0 449.0Q2432 422 2412.0 410.5Q2392 399 2366 399Q2340 399 2316.5 409.0Q2293 419 2275.0 440.5Q2257 462 2246.5 496.5Q2236 531 2236 579V721Q2236 741 2242.5 754.0Q2249 767 2258.5 775.0Q2268 783 2280.5 786.5Q2293 790 2305 790V820Q2293 820 2278.5 818.5Q2264 817 2248.0 815.0Q2232 813 2217.5 811.5Q2203 810 2191 810Q2179 810 2164.5 811.5Q2150 813 2134.0 815.0Q2118 817 2103.5 818.5Q2089 820 2077 820V790Q2104 790 2125.0 775.0Q2146 760 2146 721V554Q2146 517 2144.5 492.5Q2143 468 2136.0 454.5Q2129 441 2116.0 435.5Q2103 430 2080 430V405Q2105 405 2123.5 402.0Q2142 399 2157.0 393.0Q2172 387 2184.5 379.0Q2197 371 2211 362H2236V432Q2255 397 2288.5 374.5Q2322 352 2368 352Q2467 352 2514.0 412.0Q2561 472 2561 611V716Q2561 736 2567.5 749.0Q2574 762 2583.5 770.0Q2593 778 2605.5 781.5Q2618 785 2630 785V820Q2617 820 2607.0 818.5Q2597 817 2586.5 815.5Q2576 814 2562.5 812.5Q2549 811 2530 811Q2517 811 2500.5 812.5Q2484 814 2461 820L2452 803Q2459 796 2463.0 777.5Q2467 759 2468.5 735.0Q2470 711 2470.5 684.0Q2471 657 2471 633ZM2907 834Q2853 834 2812.0 816.0Q2771 798 2743.0 765.5Q2715 733 2701.0 688.0Q2687 643 2687 589Q2687 526 2706.5 481.5Q2726 437 2757.5 408.0Q2789 379 2829.5 365.5Q2870 352 2912 352Q2957 352 2992.0 365.5Q3027 379 3057 420Q3063 398 3076.0 386.5Q3089 375 3106.0 369.5Q3123 364 3142.0 363.0Q3161 362 3179 362V392Q3166 392 3157.5 397.5Q3149 403 3144.5 426.5Q3140 450 3138.5 496.5Q3137 543 3137 625V853Q3137 967 3080.5 1018.5Q3024 1070 2903 1070Q2829 1070 2793.5 1054.0Q2758 1038 2758 1014Q2732 1014 2721.0 996.5Q2710 979 2710 961Q2710 944 2718.0 931.5Q2726 919 2738.0 911.0Q2750 903 2763.5 899.0Q2777 895 2788 895Q2788 922 2794.5 945.5Q2801 969 2816.0 986.5Q2831 1004 2854.5 1014.5Q2878 1025 2912 1025Q2942 1025 2967.0 1016.0Q2992 1007 3009.5 986.0Q3027 965 3037.0 931.0Q3047 897 3047 847V782Q3013 815 2977.0 824.5Q2941 834 2907 834ZM2922 788Q2956 788 2982.0 772.5Q3008 757 3024.5 730.0Q3041 703 3049.5 667.5Q3058 632 3058 591Q3058 552 3050.0 517.5Q3042 483 3025.0 456.5Q3008 430 2982.5 415.0Q2957 400 2921 400Q2882 400 2855.0 414.5Q2828 429 2812.0 454.5Q2796 480 2789.0 514.5Q2782 549 2782 589Q2782 628 2788.5 664.0Q2795 700 2811.5 727.5Q2828 755 2854.5 771.5Q2881 788 2922 788ZM3648 721Q3648 741 3654.5 754.0Q3661 767 3670.5 775.0Q3680 783 3692.5 786.5Q3705 790 3717 790V820Q3694 820 3677.5 816.0Q3661 812 3638 812Q3615 812 3598.0 813.0Q3581 814 3558 820V767Q3535 793 3503.0 813.5Q3471 834 3425 834Q3388 834 3357.5 824.0Q3327 814 3305.5 795.0Q3284 776 3272.0 749.5Q3260 723 3260 690Q3260 658 3272.5 632.5Q3285 607 3308.0 589.5Q3331 572 3362.0 562.5Q3393 553 3431 553Q3474 553 3504.5 561.5Q3535 570 3558 581V544Q3558 518 3554.5 492.0Q3551 466 3541.0 445.0Q3531 424 3512.0 411.0Q3493 398 3463 398Q3450 398 3434.5 401.0Q3419 404 3406.0 411.5Q3393 419 3384.0 431.5Q3375 444 3375 463Q3375 473 3378 486Q3363 494 3345 494Q3317 494 3304.0 478.5Q3291 463 3291 443Q3291 423 3304.5 407.5Q3318 392 3343 392Q3343 381 3353.0 373.0Q3363 365 3379.5 360.5Q3396 356 3416.0 354.0Q3436 352 3457 352Q3502 352 3537.5 362.5Q3573 373 3597.5 398.5Q3622 424 3635.0 466.5Q3648 509 3648 574ZM3453 788Q3488 788 3514.0 767.5Q3540 747 3558 718V618Q3535 607 3507.0 599.5Q3479 592 3451 592Q3411 592 3382.5 616.0Q3354 640 3354 684Q3354 730 3381.0 759.0Q3408 788 3453 788Z" fill="currentColor" /></svg>