<svg viewBox="0 0 9991 1448" xmlns="http://www.w3.org/2000/svg"><path d="M47 1233Q44 1134 44 1043Q44 879 54.0 746.0Q64 613 83 520Q92 477 108.5 437.0Q125 397 155.5 371.5Q186 346 236 346Q285 346 319.0 371.5Q353 397 374.5 433.0Q396 469 406 502Q432 580 450.0 658.0Q468 736 482 807Q492 755 505.0 697.5Q518 640 531.0 588.5Q544 537 555 503Q606 346 712 346Q771 346 812.0 388.5Q853 431 872 511Q881 547 890.5 616.0Q900 685 908.5 779.5Q917 874 923.5 988.0Q930 1102 934 1230L758 1226Q758 1173 755.5 1103.0Q753 1033 748.5 957.5Q744 882 738.5 810.0Q733 738 727.5 680.0Q722 622 717.0 587.5Q712 553 708 553Q707 553 697.5 588.5Q688 624 674.5 683.0Q661 742 645.0 813.0Q629 884 613.5 955.5Q598 1027 586.0 1087.5Q574 1148 567 1186L410 1190Q398 1134 381.5 1066.5Q365 999 347.5 928.5Q330 858 313.0 792.5Q296 727 281.5 675.0Q267 623 258.0 592.5Q249 562 247 562Q243 562 238.5 605.5Q234 649 230.0 723.0Q226 797 223.5 890.0Q221 983 221 1082Q221 1129 221.5 1168.0Q222 1207 223 1232ZM1326 1242Q1246 1242 1186.5 1216.0Q1127 1190 1088.0 1144.5Q1049 1099 1030.0 1040.0Q1011 981 1011 916Q1011 850 1034.5 793.5Q1058 737 1099.5 695.0Q1141 653 1197.0 629.5Q1253 606 1319 606Q1388 606 1447.0 630.0Q1506 654 1550.0 697.0Q1594 740 1618.5 798.0Q1643 856 1643 924Q1643 1075 1560.0 1158.5Q1477 1242 1326 1242ZM1325 1080Q1398 1080 1436.5 1039.0Q1475 998 1475 921Q1475 852 1433.0 810.0Q1391 768 1323 768Q1282 768 1248.0 789.5Q1214 811 1193.5 846.5Q1173 882 1173 925Q1173 963 1188.5 999.0Q1204 1035 1238.0 1057.5Q1272 1080 1325 1080ZM2015 1241Q1931 1241 1860.0 1206.0Q1789 1171 1746.0 1105.5Q1703 1040 1703 949Q1703 847 1743.0 770.0Q1783 693 1855.0 650.5Q1927 608 2023 608Q2115 608 2179.0 645.5Q2243 683 2293 764L2154 860Q2126 815 2097.0 791.5Q2068 768 2018 768Q1950 768 1908.0 815.5Q1866 863 1866 942Q1866 988 1888.5 1017.0Q1911 1046 1944.0 1060.0Q1977 1074 2006 1074Q2036 1074 2064.0 1066.5Q2092 1059 2117.0 1033.0Q2142 1007 2162 954L2312 1034Q2282 1089 2245.0 1136.0Q2208 1183 2153.5 1212.0Q2099 1241 2015 1241ZM2380 1229Q2380 1168 2380.5 1072.5Q2381 977 2382.5 860.0Q2384 743 2387.5 614.0Q2391 485 2396 356L2566 355Q2562 412 2558.0 494.0Q2554 576 2551 670Q2620 606 2709 606Q2770 606 2810.5 628.0Q2851 650 2876.0 685.5Q2901 721 2914.0 763.0Q2927 805 2932.0 845.5Q2937 886 2937 917Q2937 983 2936.0 1048.0Q2935 1113 2934.5 1162.0Q2934 1211 2934 1231L2759 1232Q2763 1193 2764.5 1142.0Q2766 1091 2766.5 1036.5Q2767 982 2767 933Q2767 771 2691 771Q2668 771 2640.0 783.0Q2612 795 2586.5 821.0Q2561 847 2546 890Q2545 956 2545 1018Q2545 1075 2546.5 1124.5Q2548 1174 2549 1224ZM3032 514Q3032 505 3031.5 495.5Q3031 486 3031 474Q3031 442 3033.0 406.0Q3035 370 3037 345L3215 348Q3212 382 3208.5 425.0Q3205 468 3204 514ZM3028 1230Q3025 1168 3024.0 1097.5Q3023 1027 3023 956Q3023 863 3025.0 775.0Q3027 687 3030 615L3202 614Q3198 660 3197.0 727.5Q3196 795 3196 869Q3196 942 3197.0 1013.0Q3198 1084 3199.5 1141.5Q3201 1199 3202 1230ZM3459 1431 3309 1351Q3365 1289 3418.0 1223.5Q3471 1158 3519 1089Q3472 1026 3425.0 953.5Q3378 881 3338.0 811.0Q3298 741 3273 686L3433 616Q3451 664 3479.5 720.0Q3508 776 3542.5 834.0Q3577 892 3614 945Q3722 770 3792 600L3958 666Q3913 752 3856.5 850.5Q3800 949 3735.5 1050.5Q3671 1152 3601.0 1249.5Q3531 1347 3459 1431ZM4337 1227Q4336 1195 4336.0 1162.5Q4336 1130 4336 1098Q4336 951 4342.0 812.5Q4348 674 4356 548Q4316 558 4289 567L4250 407Q4299 392 4353.5 380.5Q4408 369 4460.5 361.5Q4513 354 4557.5 350.5Q4602 347 4631 347Q4662 347 4707.5 352.0Q4753 357 4801.5 372.5Q4850 388 4892.0 419.0Q4934 450 4960.5 502.5Q4987 555 4987 634Q4987 716 4951.0 770.5Q4915 825 4856.0 857.5Q4797 890 4726.0 904.0Q4655 918 4586 918Q4542 918 4502 914Q4501 962 4501 1009Q4501 1073 4502.0 1127.5Q4503 1182 4506 1223ZM4626 511Q4600 511 4572.5 513.0Q4545 515 4518 518Q4513 571 4510.0 633.0Q4507 695 4505 760Q4542 763 4582 763Q4822 763 4822 621Q4822 565 4774.0 538.0Q4726 511 4626 511ZM5375 1242Q5295 1242 5235.5 1216.0Q5176 1190 5137.0 1144.5Q5098 1099 5079.0 1040.0Q5060 981 5060 916Q5060 850 5083.5 793.5Q5107 737 5148.5 695.0Q5190 653 5246.0 629.5Q5302 606 5368 606Q5437 606 5496.0 630.0Q5555 654 5599.0 697.0Q5643 740 5667.5 798.0Q5692 856 5692 924Q5692 1075 5609.0 1158.5Q5526 1242 5375 1242ZM5374 1080Q5447 1080 5485.5 1039.0Q5524 998 5524 921Q5524 852 5482.0 810.0Q5440 768 5372 768Q5331 768 5297.0 789.5Q5263 811 5242.5 846.5Q5222 882 5222 925Q5222 963 5237.5 999.0Q5253 1035 5287.0 1057.5Q5321 1080 5374 1080ZM5778 1444Q5771 1364 5768.0 1283.0Q5765 1202 5765 1096Q5765 967 5769.0 839.0Q5773 711 5781 605L5953 610Q5950 633 5948 659Q5984 635 6025.5 624.0Q6067 613 6110 613Q6165 613 6217.0 630.5Q6269 648 6311.0 685.5Q6353 723 6377.5 782.0Q6402 841 6402 924Q6402 1006 6377.0 1067.0Q6352 1128 6310.0 1167.5Q6268 1207 6216.0 1226.5Q6164 1246 6109 1246Q6008 1246 5931 1186Q5933 1250 5937.0 1309.5Q5941 1369 5947 1431ZM6083 779Q5984 779 5934 876Q5931 936 5930 998Q5954 1030 5992.0 1053.5Q6030 1077 6089 1077Q6230 1077 6230 916Q6230 873 6214.0 846.0Q6198 819 6174.0 804.5Q6150 790 6125.0 784.5Q6100 779 6083 779ZM6785 1227Q6784 1195 6784.0 1162.5Q6784 1130 6784 1098Q6784 951 6790.0 812.5Q6796 674 6804 548Q6764 558 6737 567L6698 407Q6747 392 6801.5 380.5Q6856 369 6908.5 361.5Q6961 354 7005.5 350.5Q7050 347 7079 347Q7110 347 7155.5 352.0Q7201 357 7249.5 372.5Q7298 388 7340.0 419.0Q7382 450 7408.5 502.5Q7435 555 7435 634Q7435 716 7399.0 770.5Q7363 825 7304.0 857.5Q7245 890 7174.0 904.0Q7103 918 7034 918Q6990 918 6950 914Q6949 962 6949 1009Q6949 1073 6950.0 1127.5Q6951 1182 6954 1223ZM7074 511Q7048 511 7020.5 513.0Q6993 515 6966 518Q6961 571 6958.0 633.0Q6955 695 6953 760Q6990 763 7030 763Q7270 763 7270 621Q7270 565 7222.0 538.0Q7174 511 7074 511ZM8177 1227Q8083 1227 8006.0 1192.5Q7929 1158 7873.0 1097.0Q7817 1036 7787.0 958.0Q7757 880 7757 793Q7757 713 7781.0 635.5Q7805 558 7854.0 494.5Q7903 431 7978.5 393.0Q8054 355 8157 355Q8264 355 8343.0 391.5Q8422 428 8473.0 489.0Q8524 550 8549.0 627.0Q8574 704 8574 785Q8574 882 8545.0 963.0Q8516 1044 8463.0 1103.5Q8410 1163 8337.0 1195.0Q8264 1227 8177 1227ZM8177 1060Q8237 1060 8288.0 1030.5Q8339 1001 8370.0 938.0Q8401 875 8401 774Q8401 687 8367.0 631.0Q8333 575 8279.0 548.0Q8225 521 8166 521Q8099 521 8053.0 545.0Q8007 569 7979.0 609.5Q7951 650 7939.0 700.0Q7927 750 7927 803Q7927 855 7947.0 901.5Q7967 948 8001.5 983.5Q8036 1019 8081.0 1039.5Q8126 1060 8177 1060ZM8680 1232Q8677 1144 8675.5 1069.0Q8674 994 8674 921Q8674 848 8675.5 774.5Q8677 701 8681 617H8850Q8846 662 8843 708Q8877 665 8924.0 636.5Q8971 608 9035 608Q9098 608 9138.5 629.0Q9179 650 9202.5 687.0Q9226 724 9236.5 771.5Q9247 819 9250.0 873.5Q9253 928 9253 983Q9253 1043 9251.0 1098.0Q9249 1153 9247.0 1190.0Q9245 1227 9244 1234H9076Q9078 1193 9080.0 1146.5Q9082 1100 9084.0 1054.5Q9086 1009 9086 972Q9086 759 9017 759Q8960 759 8913.5 808.5Q8867 858 8836 933Q8836 943 8836 953Q8836 1001 8836.5 1052.5Q8837 1104 8838.5 1150.5Q8840 1197 8841 1231ZM9653 1240Q9557 1240 9484.5 1202.5Q9412 1165 9371.5 1098.0Q9331 1031 9331 943Q9331 890 9349.0 831.5Q9367 773 9407.0 722.0Q9447 671 9512.5 639.0Q9578 607 9672 607Q9740 607 9786.5 622.0Q9833 637 9862.5 661.0Q9892 685 9907.5 712.0Q9923 739 9928.5 763.5Q9934 788 9934 804Q9934 901 9852.5 953.5Q9771 1006 9622 1006Q9588 1006 9557.5 1003.0Q9527 1000 9501 996Q9520 1046 9564.0 1069.5Q9608 1093 9655 1093Q9723 1093 9775.0 1068.5Q9827 1044 9873 993L9962 1121Q9930 1147 9890.5 1175.0Q9851 1203 9794.0 1221.5Q9737 1240 9653 1240ZM9675 757Q9616 757 9571.0 787.0Q9526 817 9505 866Q9530 870 9554.5 872.5Q9579 875 9603 875Q9625 875 9653.5 871.0Q9682 867 9709.5 859.0Q9737 851 9755.0 838.5Q9773 826 9773 809Q9773 801 9765.0 789.0Q9757 777 9736.0 767.0Q9715 757 9675 757Z" fill="currentColor" /></svg>