<svg viewBox="0 0 15972 1984" xmlns="http://www.w3.org/2000/svg"><path d="M0 1551Q134 1523 188 1412L190 1403L400 0L939 1214L1455 0L1664 1403L1666 1412Q1720 1523 1854 1551H1276Q1467 1480 1467 1416Q1467 1414 1467 1411L1466 1403L1335 540L880 1591L420 531L302 1403L301 1415Q303 1475 492 1551ZM2162 1009Q2162 1232 2212 1341Q2276 1480 2397 1480Q2505 1480 2568 1323Q2620 1193 2622 1017V1013Q2622 805 2542 677Q2476 571 2387 571Q2386 571 2384 571Q2289 571 2226 679Q2162 788 2162 1009ZM1944 1025Q1944 860 2004 730Q2065 598 2165 524Q2266 449 2388 449Q2509 449 2611 524Q2712 598 2772.0 730.0Q2832 862 2832 1013Q2832 1165 2772.0 1295.0Q2712 1425 2611 1501Q2511 1576 2388 1576Q2271 1576 2165 1501Q2063 1429 2003 1300Q1944 1173 1944 1025ZM3270 1008Q3270 1233 3320 1340Q3385 1479 3513 1479Q3610 1479 3688 1402L3698 1387Q3712 1369 3712 1320V721Q3710 689 3683 649Q3630 570 3525 570H3522Q3399 571 3334 678Q3270 787 3270 1008ZM3052 1024Q3052 859 3112 729Q3173 597 3273 523Q3374 448 3496 448Q3613 448 3712 518V237Q3712 215 3699 202Q3687 190 3633 179Q3578 167 3522 155Q3585 127 3828 41Q3859 30 3910 15V1320Q3911 1344 3923 1355Q3939 1369 3984 1380Q4066 1400 4100 1402Q4039 1430 3794 1516Q3626 1575 3504 1575Q3500 1575 3496 1575Q3379 1575 3273 1500Q3171 1428 3111 1299Q3052 1172 3052 1024ZM4250 1012Q4250 862 4310 730Q4369 600 4471 524Q4572 449 4694 449Q4810 449 4913 517Q4988 558 5047 656Q5089 726 5094 808Q5093 985 4935 1098Q4801 1194 4618 1194Q4616 1194 4475 1186Q4500 1289 4542 1353Q4613 1461 4728 1461H4730Q4853 1461 4939 1355Q4974 1312 5002 1237L5118 1271Q5114 1287 5111 1293Q5027 1447 4950 1499Q4825 1575 4712 1575H4709Q4572 1575 4471.0 1501.0Q4370 1427 4310.0 1295.0Q4250 1163 4250 1012ZM4906 807Q4906 694 4846 629Q4794 572 4702 564H4700Q4590 564 4524 671Q4474 753 4462 875Q4455 946 4455 1029Q4455 1057 4459 1094Q4550 1096 4641 1096Q4688 1096 4708 1091Q4809 1066 4848 1007Q4906 910 4906 807ZM5268 1551Q5392 1527 5456 1411L5458 1403V704Q5458 680 5445 669Q5427 653 5384 644Q5294 624 5268 622Q5337 591 5574 508Q5742 449 5864 449Q5868 449 5872 449Q6034 449 6154 561Q6254 677 6254 794Q6254 797 6254 799Q6254 854 6216 895Q6179 935 6124.0 935.0Q6069 935 6032 897Q5994 858 5994 806Q5994 804 5994 803Q5994 746 6032 709Q6069 673 6118 671Q6111 630 6020 577Q5975 551 5903 551Q5891 551 5879 552Q5770 561 5699 611Q5694 614 5670 637Q5656 650 5656 704V1403L5658 1412Q5712 1523 5846 1551ZM6294 1551Q6418 1527 6482 1411L6484 1403V671Q6484 646 6471 636Q6451 620 6410 611Q6319 591 6294 589Q6328 574 6600 475Q6642 460 6682 449V526L6685 524Q6785 449 6908 449Q7029 449 7131 524Q7232 598 7292.0 730.0Q7352 862 7352 1013V1019V1354Q7352 1379 7365 1389Q7385 1405 7426 1414Q7517 1434 7542 1436Q7486 1461 7236 1550Q7194 1565 7154 1576V1017V1013Q7154 785 7067 675Q6985 571 6870 571Q6868 571 6866 571Q6739 571 6682 663V1403L6684 1412Q6738 1523 6872 1551ZM8072 1551Q8195 1527 8259 1411L8262 1403L8797 0L9342 1403L9343 1406L9346 1415Q9410 1527 9532 1551H8954Q9145 1495 9145 1427Q9145 1420 9143 1412L9140 1403L8987 1011H8526L8379 1403L8376 1413Q8374 1419 8374 1426Q8374 1487 8565 1551ZM8564 909H8948L8754 381ZM9502 1551Q9626 1527 9690 1411L9692 1403V671Q9692 646 9679 636Q9659 620 9618 611Q9527 591 9502 589Q9536 574 9808 475Q9850 460 9890 449V526L9893 524Q9993 449 10116 449Q10237 449 10339 524Q10440 598 10500.0 730.0Q10560 862 10560 1013V1019V1354Q10560 1379 10573 1389Q10593 1405 10634 1414Q10725 1434 10750 1436Q10694 1461 10444 1550Q10402 1565 10362 1576V1017V1013Q10362 785 10275 675Q10193 571 10078 571Q10076 571 10074 571Q9947 571 9890 663V1403L9892 1412Q9946 1523 10080 1551ZM10700 703 10879 409Q10873 434 10873 460Q10873 525 10944 525Q10946 525 10949 525H10953H11110V237Q11110 214 11097 202Q11082 188 11032 178Q10976 167 10920 155Q11011 115 11226 41Q11264 28 11308 15V525H11523H11531Q11657 518 11720 449L11541 743Q11547 718 11547 692Q11547 627 11476 627Q11474 627 11471 627H11467H11308V1403L11310 1412Q11364 1523 11498 1551H10920Q11044 1527 11108 1411L11110 1403V627H10897H10889Q10763 634 10700 703ZM11710 589Q11782 557 12016 475Q12053 462 12098 449V1403L12100 1412Q12154 1523 12288 1551H11710Q11834 1527 11898 1411L11900 1403V671Q11900 646 11887 636Q11866 619 11820 610Q11722 589 11710 589ZM11907.0 240.5Q11869 202 11869.0 147.0Q11869 92 11907.0 53.5Q11945 15 11999.0 15.0Q12053 15 12091.0 53.5Q12129 92 12129.0 147.0Q12129 202 12091.0 240.5Q12053 279 11999.0 279.0Q11945 279 11907.0 240.5ZM12656 1016Q12656 1237 12720 1346Q12786 1454 12916 1454Q13016 1454 13069 1375Q13096 1335 13098 1303V1294V704Q13098 653 13084 637L13074 622Q12996 545 12902 545Q12893 545 12884 545Q12769 549 12706 684Q12656 791 12656 1016ZM12438 1000Q12438 852 12497 725Q12556 597 12659 524Q12765 449 12897 449Q13012 449 13180 508Q13421 593 13486 622Q13464 623 13370 644Q13330 653 13309 669Q13296 679 13296 704V1836L13298 1844Q13362 1960 13486 1984H12908Q13042 1956 13096 1845L13098 1836V1506Q12999 1576 12882 1576Q12760 1576 12659 1501Q12559 1427 12498 1295Q12438 1165 12438 1000ZM14774 474Q14650 498 14586 614L14584 622V1354Q14584 1379 14597 1389Q14617 1405 14658 1414Q14749 1434 14774 1436Q14718 1461 14468 1550Q14426 1565 14386 1576V1499L14383 1501Q14283 1576 14160 1576Q14039 1576 13937 1501Q13836 1427 13776.0 1295.0Q13716 1163 13716 1012V1006V671Q13716 646 13703 636Q13682 620 13642 611Q13554 591 13526 589Q13582 564 13832 475Q13874 460 13914 449V1008V1012Q13914 1240 14001 1350Q14083 1454 14198 1454Q14200 1454 14202 1454Q14329 1454 14386 1362V622L14384 613Q14330 502 14196 474ZM15141 1009Q15141 1234 15191 1341Q15256 1480 15369 1480Q15384 1480 15399 1480Q15482 1480 15559 1403L15569 1388Q15584 1372 15584 1321V704Q15584 653 15570 637L15560 622Q15483 545 15400 545Q15385 545 15370 545Q15257 545 15192 684Q15141 793 15141 1009ZM14924 1000Q14924 852 14983 725Q15042 597 15145 524Q15251 449 15383 449Q15498 449 15666 508Q15907 593 15972 622Q15950 623 15856 644Q15816 653 15795 669Q15782 679 15782 704V1321Q15782 1347 15794 1356Q15815 1372 15855 1381Q15949 1402 15971 1403Q15906 1432 15665 1517Q15497 1576 15382 1576Q15250 1576 15144 1501Q15041 1428 14982 1300Q14924 1175 14924 1000Z" /></svg>