<svg viewBox="0 0 6018 2553" xmlns="http://www.w3.org/2000/svg"><path d="M1152 473Q1078 399 958 399Q788 399 658 494Q520 593 520 734Q520 844 623 942Q585 994 504 1030Q482 1040 459.0 1040.0Q436 1040 406.5 1026.0Q377 1012 354 986Q302 927 302.0 845.0Q302 763 331.0 693.0Q360 623 410.0 562.5Q460 502 526.5 453.0Q593 404 668 368Q825 295 974.5 295.0Q1124 295 1224 349Q1456 474 1456 913Q1456 1046 1435 1209Q1605 1016 2094 614Q2161 560 2219 510Q2273 373 2308 330Q2365 259 2406.0 259.0Q2447 259 2462.0 279.5Q2477 300 2477.0 318.5Q2477 337 2466.5 357.0Q2456 377 2440 400Q2407 446 2368 489Q2269 1026 2269 1572Q2269 1767 2108 1838Q2035 1870 1950 1870Q1822 1870 1730 1809Q1694 1785 1674 1754Q1783 1663 1993 1140Q2077 930 2148 712L1951 909Q1576 1284 1408 1513Q1393 1631 1324 1762Q1281 1841 1253.5 1867.0Q1226 1893 1212 1893Q1118 1893 1013.0 1837.0Q908 1781 908 1732Q908 1666 1032 1523Q1066 1483 1101 1448Q1255 1111 1255 808Q1255 772 1249.5 701.0Q1244 630 1207 552Q1067 1012 806 1404Q622 1679 429 1793Q329 1852 229.0 1852.0Q129 1852 66 1821Q-65 1756 -65 1602Q-65 1502 -14 1419Q14 1374 49 1353Q184 1449 321 1449Q523 1449 722 1228Q897 1033 1068 661Q1114 561 1152 473ZM2784 1857 2764 1858Q2606 1858 2523 1780Q2445 1707 2445 1582Q2445 1410 2582 1253Q2715 1101 2905 1040Q2899 995 2938 966Q2966 945 3030.5 945.0Q3095 945 3155.0 957.0Q3215 969 3276 1010Q3408 1097 3408 1244Q3408 1403 3329 1546Q3501 1509 3630 1316Q3675 1313 3675 1353Q3675 1369 3665 1392Q3529 1715 3121 1820Q2975 1858 2789 1858ZM2767 1419Q2767 1535 2864 1535Q2946 1535 3029 1436Q3116 1333 3116 1227Q3116 1119 3012 1084Q2833 1134 2783 1308Q2767 1361 2767 1419ZM4301 462Q4412 462 4412 649Q4412 896 4112 1171Q3998 1276 3872 1352Q3885 1506 3985 1528Q4017 1535 4060.5 1535.0Q4104 1535 4154.5 1523.5Q4205 1512 4255 1486Q4366 1429 4440 1316Q4485 1313 4485 1353Q4485 1369 4463.5 1420.0Q4442 1471 4384.0 1552.5Q4326 1634 4245 1700Q4059 1852 3832 1852Q3570 1852 3515 1628Q3497 1558 3497.0 1471.5Q3497 1385 3523.0 1297.0Q3549 1209 3593.0 1122.5Q3637 1036 3695.5 953.0Q3754 870 3819.5 797.0Q3885 724 3953.0 662.5Q4021 601 4085 556Q4222 462 4301 462ZM3872 1231Q4040 1126 4155 979Q4272 830 4272 716Q4272 659 4248 634Q4240 625 4220.0 625.0Q4200 625 4164.0 650.5Q4128 676 4090.0 720.0Q4052 764 4015.5 823.5Q3979 883 3949 950Q3883 1101 3872 1231ZM5111 462Q5222 462 5222 649Q5222 896 4922 1171Q4808 1276 4682 1352Q4695 1506 4795 1528Q4827 1535 4870.5 1535.0Q4914 1535 4964.5 1523.5Q5015 1512 5065 1486Q5176 1429 5250 1316Q5295 1313 5295 1353Q5295 1369 5273.5 1420.0Q5252 1471 5194.0 1552.5Q5136 1634 5055 1700Q4869 1852 4642 1852Q4380 1852 4325 1628Q4307 1558 4307.0 1471.5Q4307 1385 4333.0 1297.0Q4359 1209 4403.0 1122.5Q4447 1036 4505.5 953.0Q4564 870 4629.5 797.0Q4695 724 4763.0 662.5Q4831 601 4895 556Q5032 462 5111 462ZM4682 1231Q4850 1126 4965 979Q5082 830 5082 716Q5082 659 5058 634Q5050 625 5030.0 625.0Q5010 625 4974.0 650.5Q4938 676 4900.0 720.0Q4862 764 4825.5 823.5Q4789 883 4759 950Q4693 1101 4682 1231ZM5502 1459Q5560 1563 5765 1563Q5893 1563 6006.5 1500.5Q6120 1438 6201 1316Q6246 1313 6246 1353Q6246 1398 6192.5 1482.5Q6139 1567 6092.5 1619.0Q6046 1671 5988.5 1715.5Q5931 1760 5865 1792Q5722 1862 5564 1862Q5246 1862 5151 1686Q5117 1622 5117.0 1539.5Q5117 1457 5145.5 1388.0Q5174 1319 5224.0 1256.5Q5274 1194 5343.0 1141.0Q5412 1088 5493 1050Q5665 967 5844 967Q5973 967 6021 1048Q6038 1076 6038.0 1122.5Q6038 1169 6014.5 1214.0Q5991 1259 5951.0 1295.5Q5911 1332 5858.0 1359.5Q5805 1387 5745 1407Q5639 1443 5502 1459ZM5488 1366Q5616 1351 5708 1295Q5805 1235 5805.0 1154.5Q5805 1074 5731 1074Q5635 1074 5564 1166Q5496 1254 5488 1366Z" fill="currentColor" /></svg>