<svg viewBox="0 0 9145.82683982684 1270.3333333333333" xmlns="http://www.w3.org/2000/svg"><path d="M949.969696969697 927.0Q887.969696969697 927.0 855.469696969697 905.0Q822.969696969697 883.0 812.969696969697 845.0Q802.969696969697 807.0 809.469696969697 759.0Q815.969696969697 711.0 830.969696969697 659.0Q859.969696969697 564.0 889.969696969697 484.5Q919.969696969697 405.0 941.469696969697 345.5Q962.969696969697 286.0 964.969696969697 249.0Q966.969696969697 212.0 939.969696969697 202.0Q907.969696969697 190.0 868.969696969697 212.0Q829.969696969697 234.0 787.969696969697 281.0Q745.969696969697 328.0 703.469696969697 394.0Q660.969696969697 460.0 622.469696969697 537.0Q583.969696969697 614.0 552.469696969697 695.5Q520.969696969697 777.0 499.969696969697 855.0Q493.969696969697 879.0 475.969696969697 887.0Q457.969696969697 895.0 438.469696969697 890.0Q418.969696969697 885.0 407.469696969697 869.0Q395.969696969697 853.0 401.969696969697 829.0Q457.969696969697 618.0 490.469696969697 473.0Q522.969696969697 328.0 524.469696969697 248.0Q525.969696969697 168.0 488.969696969697 152.0Q477.969696969697 147.0 458.969696969697 152.0Q439.969696969697 157.0 413.469696969697 178.0Q386.969696969697 199.0 353.969696969697 242.5Q320.969696969697 286.0 280.969696969697 359.0Q226.96969696969697 458.0 179.46969696969697 593.0Q131.96969696969697 728.0 100.96969696969697 887.0Q95.96969696969697 912.0 78.46969696969697 921.0Q60.96969696969697 930.0 41.46969696969697 926.0Q21.96969696969697 922.0 9.469696969696969 906.5Q-3.030303030303031 891.0 0.9696969696969688 867.0Q32.96969696969697 700.0 82.96969696969697 559.0Q132.96969696969697 418.0 190.96969696969697 311.0Q224.96969696969697 249.0 263.969696969697 195.0Q302.969696969697 141.0 345.969696969697 103.0Q388.969696969697 65.0 434.969696969697 52.0Q480.969696969697 39.0 528.969696969697 60.0Q596.969696969697 89.0 616.469696969697 159.5Q635.969696969697 230.0 624.969696969697 328.0Q675.969696969697 250.0 733.469696969697 192.5Q790.969696969697 135.0 851.969696969697 110.0Q912.969696969697 85.0 973.969696969697 108.0Q1027.969696969697 128.0 1049.469696969697 167.5Q1070.969696969697 207.0 1068.969696969697 259.0Q1066.969696969697 311.0 1049.969696969697 369.5Q1032.969696969697 428.0 1008.969696969697 486.5Q984.969696969697 545.0 962.969696969697 597.0Q940.969696969697 649.0 928.969696969697 689.0Q912.969696969697 743.0 912.969696969697 771.5Q912.969696969697 800.0 921.469696969697 812.0Q929.969696969697 824.0 938.969696969697 825.5Q947.969696969697 827.0 949.969696969697 827.0Q966.969696969697 827.0 994.969696969697 816.5Q1022.969696969697 806.0 1053.969696969697 778.0Q1085.969696969697 750.0 1118.469696969697 708.0Q1150.969696969697 666.0 1180.969696969697 599.0Q1190.969696969697 578.0 1208.469696969697 573.5Q1225.969696969697 569.0 1242.969696969697 577.0Q1259.969696969697 585.0 1267.969696969697 601.5Q1275.969696969697 618.0 1266.969696969697 639.0Q1232.969696969697 712.0 1194.469696969697 763.5Q1155.969696969697 815.0 1115.969696969697 850.0Q1077.969696969697 883.0 1036.469696969697 905.0Q994.969696969697 927.0 949.969696969697 927.0ZM1411.969696969697 924.0Q1348.969696969697 924.0 1295.469696969697 892.5Q1241.969696969697 861.0 1209.469696969697 803.0Q1176.969696969697 745.0 1176.969696969697 666.0Q1176.969696969697 595.0 1201.969696969697 534.5Q1226.969696969697 474.0 1270.469696969697 427.0Q1313.969696969697 380.0 1369.969696969697 350.0Q1425.969696969697 320.0 1486.969696969697 311.0Q1524.969696969697 305.0 1559.469696969697 307.5Q1593.969696969697 310.0 1621.969696969697 318.0Q1644.969696969697 325.0 1651.469696969697 341.5Q1657.969696969697 358.0 1651.969696969697 376.0Q1645.969696969697 394.0 1630.469696969697 404.0Q1614.969696969697 414.0 1593.969696969697 408.0Q1576.969696969697 403.0 1551.969696969697 401.0Q1526.969696969697 399.0 1500.969696969697 403.0Q1458.969696969697 410.0 1418.469696969697 433.0Q1377.969696969697 456.0 1344.969696969697 491.5Q1311.969696969697 527.0 1292.469696969697 571.5Q1272.969696969697 616.0 1272.969696969697 666.0Q1272.969696969697 711.0 1289.969696969697 748.5Q1306.969696969697 786.0 1337.969696969697 808.0Q1368.969696969697 830.0 1411.969696969697 830.0Q1464.969696969697 830.0 1511.969696969697 794.0Q1558.969696969697 758.0 1583.969696969697 693.0Q1510.969696969697 684.0 1467.969696969697 648.0Q1424.969696969697 612.0 1424.969696969697 545.0Q1424.969696969697 516.0 1439.969696969697 490.0Q1454.969696969697 464.0 1482.469696969697 447.5Q1509.969696969697 431.0 1547.969696969697 431.0Q1614.969696969697 431.0 1652.469696969697 475.0Q1689.969696969697 519.0 1693.969696969697 585.0Q1733.969696969697 572.0 1776.969696969697 548.0Q1819.969696969697 524.0 1858.969696969697 489.0Q1897.969696969697 454.0 1925.969696969697 408.0Q1937.969696969697 387.0 1955.969696969697 385.0Q1973.969696969697 383.0 1989.469696969697 393.0Q2004.969696969697 403.0 2010.969696969697 420.0Q2016.969696969697 437.0 2005.969696969697 456.0Q1965.969696969697 524.0 1912.469696969697 571.5Q1858.969696969697 619.0 1799.969696969697 648.0Q1740.969696969697 677.0 1683.969696969697 688.0L1681.969696969697 694.0Q1662.969696969697 761.0 1623.969696969697 813.0Q1584.969696969697 865.0 1530.469696969697 894.5Q1475.969696969697 924.0 1411.969696969697 924.0ZM1599.969696969697 600.0Q1597.969696969697 563.0 1581.469696969697 544.0Q1564.969696969697 525.0 1547.969696969697 525.0Q1540.969696969697 525.0 1530.969696969697 527.5Q1520.969696969697 530.0 1520.969696969697 545.0Q1520.969696969697 555.0 1538.469696969697 574.5Q1555.969696969697 594.0 1594.969696969697 599.0ZM2668.969696969697 915.0Q2612.969696969697 915.0 2574.469696969697 877.5Q2535.969696969697 840.0 2535.969696969697 778.0Q2535.969696969697 738.0 2547.469696969697 696.0Q2558.969696969697 654.0 2572.969696969697 619.5Q2586.969696969697 585.0 2591.969696969697 570.0Q2609.969696969697 519.0 2602.969696969697 496.5Q2595.969696969697 474.0 2576.969696969697 474.0Q2566.969696969697 474.0 2553.969696969697 479.5Q2540.969696969697 485.0 2521.469696969697 504.5Q2501.969696969697 524.0 2470.969696969697 566.0Q2445.969696969697 601.0 2410.469696969697 656.5Q2374.969696969697 712.0 2337.469696969697 775.5Q2299.969696969697 839.0 2266.969696969697 900.0Q2256.969696969697 918.0 2240.969696969697 922.0Q2224.969696969697 926.0 2208.969696969697 920.0Q2192.969696969697 914.0 2183.969696969697 899.0Q2174.969696969697 884.0 2179.969696969697 865.0L2269.969696969697 517.0Q2285.969696969697 456.0 2277.969696969697 432.0Q2269.969696969697 408.0 2249.969696969697 408.0Q2236.969696969697 408.0 2224.469696969697 413.5Q2211.969696969697 419.0 2195.969696969697 437.5Q2179.969696969697 456.0 2154.969696969697 496.0Q2133.969696969697 531.0 2107.469696969697 578.5Q2080.969696969697 626.0 2052.469696969697 680.0Q2023.969696969697 734.0 1996.469696969697 789.0Q1968.969696969697 844.0 1945.969696969697 894.0Q1937.969696969697 912.0 1922.469696969697 917.5Q1906.969696969697 923.0 1891.469696969697 918.5Q1875.969696969697 914.0 1865.469696969697 901.5Q1854.969696969697 889.0 1855.969696969697 871.0Q1863.969696969697 761.0 1879.469696969697 647.5Q1894.969696969697 534.0 1925.969696969697 423.0Q1931.969696969697 400.0 1948.969696969697 392.5Q1965.969696969697 385.0 1983.969696969697 391.0Q2001.969696969697 397.0 2012.969696969697 412.0Q2023.969696969697 427.0 2017.969696969697 449.0Q2006.969696969697 489.0 1997.969696969697 530.0Q1988.969696969697 571.0 1980.969696969697 612.0Q2006.969696969697 564.0 2030.969696969697 521.5Q2054.969696969697 479.0 2074.969696969697 446.0Q2111.969696969697 386.0 2153.469696969697 350.0Q2194.969696969697 314.0 2249.969696969697 314.0Q2331.969696969697 314.0 2361.469696969697 371.5Q2390.969696969697 429.0 2361.969696969697 541.0L2355.969696969697 568.0L2394.969696969697 510.0Q2441.969696969697 446.0 2483.469696969697 413.0Q2524.969696969697 380.0 2576.969696969697 380.0Q2636.969696969697 380.0 2666.469696969697 411.5Q2695.969696969697 443.0 2699.469696969697 493.5Q2702.969696969697 544.0 2681.969696969697 602.0Q2677.969696969697 615.0 2669.469696969697 637.5Q2660.969696969697 660.0 2652.469696969697 686.5Q2643.969696969697 713.0 2637.969696969697 737.0Q2631.969696969697 761.0 2631.969696969697 778.0Q2631.969696969697 794.0 2637.969696969697 807.5Q2643.969696969697 821.0 2668.969696969697 821.0Q2686.969696969697 821.0 2711.469696969697 809.5Q2735.969696969697 798.0 2760.969696969697 775.0Q2783.969696969697 754.0 2811.969696969697 706.5Q2839.969696969697 659.0 2858.969696969697 604.0Q2866.969696969697 583.0 2883.969696969697 577.0Q2900.969696969697 571.0 2917.969696969697 577.5Q2934.969696969697 584.0 2944.969696969697 599.5Q2954.969696969697 615.0 2946.969696969697 636.0Q2924.969696969697 700.0 2893.469696969697 755.0Q2861.969696969697 810.0 2824.969696969697 845.0Q2791.969696969697 875.0 2752.969696969697 895.0Q2713.969696969697 915.0 2668.969696969697 915.0ZM3087.969696969697 924.0Q3025.969696969697 924.0 2972.469696969697 891.5Q2918.969696969697 859.0 2886.469696969697 800.5Q2853.969696969697 742.0 2853.969696969697 664.0Q2853.969696969697 597.0 2878.969696969697 538.5Q2903.969696969697 480.0 2947.469696969697 433.5Q2990.969696969697 387.0 3048.469696969697 357.5Q3105.969696969697 328.0 3171.969696969697 319.0Q3237.969696969697 311.0 3297.969696969697 328.0Q3320.969696969697 334.0 3327.469696969697 351.0Q3333.969696969697 368.0 3328.469696969697 385.5Q3322.969696969697 403.0 3307.969696969697 413.5Q3292.969696969697 424.0 3271.969696969697 418.0Q3230.969696969697 407.0 3183.969696969697 413.0Q3113.969696969697 422.0 3060.969696969697 457.5Q3007.969696969697 493.0 2978.969696969697 547.0Q2949.969696969697 601.0 2949.969696969697 664.0Q2949.969696969697 707.0 2966.469696969697 745.0Q2982.969696969697 783.0 3013.969696969697 806.5Q3044.969696969697 830.0 3087.969696969697 830.0Q3150.969696969697 830.0 3198.969696969697 791.5Q3246.969696969697 753.0 3261.969696969697 692.0Q3280.969696969697 617.0 3257.469696969697 578.0Q3233.969696969697 539.0 3166.969696969697 532.0Q3143.969696969697 529.0 3133.969696969697 513.5Q3123.969696969697 498.0 3125.969696969697 479.5Q3127.969696969697 461.0 3141.469696969697 448.0Q3154.969696969697 435.0 3176.969696969697 438.0Q3250.969696969697 446.0 3295.969696969697 486.0Q3340.969696969697 526.0 3355.969696969697 585.5Q3370.969696969697 645.0 3353.969696969697 714.0Q3338.969696969697 775.0 3299.969696969697 822.5Q3260.969696969697 870.0 3205.969696969697 897.0Q3150.969696969697 924.0 3087.969696969697 924.0ZM3865.969696969697 1095.0Q3814.969696969697 1095.0 3770.969696969697 1079.0Q3726.969696969697 1063.0 3699.969696969697 1029.5Q3672.969696969697 996.0 3672.969696969697 945.0Q3672.969696969697 889.0 3702.969696969697 851.5Q3732.969696969697 814.0 3785.469696969697 790.5Q3837.969696969697 767.0 3906.469696969697 754.0Q3974.969696969697 741.0 4051.969696969697 736.0Q4074.969696969697 734.0 4096.969696969697 731.5Q4118.969696969697 729.0 4138.969696969697 725.0Q4130.969696969697 676.0 4087.469696969697 641.0Q4043.969696969697 606.0 3982.969696969697 567.0Q3929.969696969697 533.0 3885.969696969697 496.0Q3841.969696969697 459.0 3816.469696969697 413.0Q3790.969696969697 367.0 3790.969696969697 305.0Q3790.969696969697 224.0 3826.969696969697 159.5Q3862.969696969697 95.0 3930.969696969697 57.5Q3998.969696969697 20.0 4092.969696969697 20.0Q4185.969696969697 20.0 4245.469696969697 45.5Q4304.969696969697 71.0 4330.969696969697 115.5Q4356.969696969697 160.0 4350.969696969697 217.5Q4344.969696969697 275.0 4306.969696969697 339.0Q4293.969696969697 360.0 4274.969696969697 363.0Q4255.969696969697 366.0 4238.969696969697 355.0Q4221.969696969697 344.0 4215.469696969697 326.0Q4208.969696969697 308.0 4220.969696969697 287.0Q4275.969696969697 195.0 4238.469696969697 157.5Q4200.969696969697 120.0 4092.969696969697 120.0Q4035.969696969697 120.0 3990.469696969697 141.0Q3944.969696969697 162.0 3918.969696969697 203.0Q3892.969696969697 244.0 3892.969696969697 305.0Q3892.969696969697 340.0 3905.969696969697 366.5Q3918.969696969697 393.0 3950.469696969697 419.5Q3981.969696969697 446.0 4036.969696969697 481.0Q4063.969696969697 498.0 4094.969696969697 517.0Q4125.969696969697 536.0 4154.969696969697 560.5Q4183.969696969697 585.0 4205.969696969697 618.0Q4227.969696969697 651.0 4236.969696969697 695.0Q4315.969696969697 660.0 4376.469696969697 591.0Q4436.969696969697 522.0 4491.969696969697 410.0Q4502.969696969697 388.0 4521.469696969697 384.0Q4539.969696969697 380.0 4557.969696969697 388.5Q4575.969696969697 397.0 4584.469696969697 414.5Q4592.969696969697 432.0 4581.969696969697 454.0Q4518.969696969697 583.0 4432.969696969697 670.0Q4346.969696969697 757.0 4235.969696969697 799.0Q4224.969696969697 853.0 4193.969696969697 905.5Q4162.969696969697 958.0 4114.469696969697 1001.0Q4065.969696969697 1044.0 4003.469696969697 1069.5Q3940.969696969697 1095.0 3865.969696969697 1095.0ZM3865.969696969697 995.0Q3920.969696969697 995.0 3970.969696969697 972.5Q4020.969696969697 950.0 4059.969696969697 912.0Q4098.969696969697 874.0 4119.969696969697 829.0Q4105.969696969697 831.0 4090.469696969697 832.5Q4074.969696969697 834.0 4057.969696969697 836.0Q3967.969696969697 842.0 3911.469696969697 854.0Q3854.969696969697 866.0 3824.969696969697 881.5Q3794.969696969697 897.0 3783.969696969697 913.5Q3772.969696969697 930.0 3772.969696969697 945.0Q3772.969696969697 957.0 3779.469696969697 968.5Q3785.969696969697 980.0 3805.969696969697 987.5Q3825.969696969697 995.0 3865.969696969697 995.0ZM4592.969696969697 321.0Q4564.969696969697 321.0 4543.469696969697 300.5Q4521.969696969697 280.0 4521.969696969697 252.0V249.0Q4522.969696969697 209.0 4539.469696969697 187.5Q4555.969696969697 166.0 4579.969696969697 159.5Q4603.969696969697 153.0 4627.469696969697 159.0Q4650.969696969697 165.0 4666.969696969697 182.0Q4682.969696969697 199.0 4682.969696969697 224.0Q4682.969696969697 262.0 4658.469696969697 291.5Q4633.969696969697 321.0 4592.969696969697 321.0ZM4570.969696969697 915.0Q4514.969696969697 915.0 4473.969696969697 877.5Q4432.969696969697 840.0 4432.969696969697 772.0Q4432.969696969697 722.0 4451.469696969697 629.0Q4469.969696969697 536.0 4498.969696969697 418.0Q4504.969696969697 394.0 4521.469696969697 386.5Q4537.969696969697 379.0 4555.969696969697 384.0Q4573.969696969697 389.0 4584.969696969697 404.0Q4595.969696969697 419.0 4590.969696969697 440.0Q4571.969696969697 518.0 4557.969696969697 585.5Q4543.969696969697 653.0 4536.469696969697 701.5Q4528.969696969697 750.0 4528.969696969697 772.0Q4528.969696969697 791.0 4536.969696969697 806.0Q4544.969696969697 821.0 4570.969696969697 821.0Q4589.969696969697 821.0 4614.969696969697 809.5Q4639.969696969697 798.0 4662.969696969697 776.0Q4691.969696969697 748.0 4718.969696969697 700.5Q4745.969696969697 653.0 4758.969696969697 603.0Q4764.969696969697 580.0 4781.469696969697 572.5Q4797.969696969697 565.0 4815.969696969697 570.0Q4833.969696969697 575.0 4844.469696969697 590.0Q4854.969696969697 605.0 4848.969696969697 627.0Q4832.969696969697 690.0 4801.969696969697 746.5Q4770.969696969697 803.0 4726.969696969697 844.0Q4693.969696969697 875.0 4654.469696969697 895.0Q4614.969696969697 915.0 4570.969696969697 915.0ZM4914.969696969697 1267.0Q4860.969696969697 1257.0 4834.969696969697 1219.5Q4808.969696969697 1182.0 4816.469696969697 1129.5Q4823.969696969697 1077.0 4867.969696969697 1024.0Q4894.969696969697 991.0 4938.969696969697 953.5Q4982.969696969697 916.0 5029.969696969697 879.0Q5076.969696969697 842.0 5113.969696969697 814.0L5127.969696969697 765.0L5109.969696969697 781.0Q5059.969696969697 824.0 5009.469696969697 847.0Q4958.969696969697 870.0 4908.969696969697 870.0Q4863.969696969697 870.0 4826.469696969697 849.5Q4788.969696969697 829.0 4766.469696969697 789.5Q4743.969696969697 750.0 4743.969696969697 693.0Q4743.969696969697 631.0 4772.969696969697 568.0Q4801.969696969697 505.0 4852.469696969697 451.5Q4902.969696969697 398.0 4969.969696969697 365.5Q5036.969696969697 333.0 5112.969696969697 333.0Q5159.969696969697 333.0 5206.969696969697 345.0Q5253.969696969697 357.0 5288.969696969697 380.0Q5308.969696969697 393.0 5310.969696969697 411.0Q5312.969696969697 429.0 5302.469696969697 444.5Q5291.969696969697 460.0 5274.969696969697 466.0Q5257.969696969697 472.0 5238.969696969697 460.0Q5219.969696969697 448.0 5182.469696969697 437.5Q5144.969696969697 427.0 5112.969696969697 427.0Q5057.969696969697 427.0 5008.469696969697 452.0Q4958.969696969697 477.0 4920.969696969697 516.5Q4882.969696969697 556.0 4861.469696969697 602.5Q4839.969696969697 649.0 4839.969696969697 693.0Q4839.969696969697 724.0 4853.969696969697 750.0Q4867.969696969697 776.0 4908.969696969697 776.0Q4934.969696969697 776.0 4970.969696969697 760.5Q5006.969696969697 745.0 5049.969696969697 709.0Q5090.969696969697 674.0 5131.469696969697 621.5Q5171.969696969697 569.0 5201.969696969697 508.0Q5210.969696969697 488.0 5227.469696969697 483.5Q5243.969696969697 479.0 5260.469696969697 485.5Q5276.969696969697 492.0 5285.969696969697 506.5Q5294.969696969697 521.0 5288.969696969697 541.0L5241.969696969697 708.0Q5307.969696969697 649.0 5374.469696969697 575.5Q5440.969696969697 502.0 5505.969696969697 406.0Q5518.969696969697 387.0 5536.969696969697 386.0Q5554.969696969697 385.0 5570.469696969697 395.5Q5585.969696969697 406.0 5590.969696969697 424.0Q5595.969696969697 442.0 5583.969696969697 460.0Q5487.969696969697 600.0 5388.469696969697 698.5Q5288.969696969697 797.0 5197.969696969697 868.0Q5181.969696969697 927.0 5165.469696969697 984.5Q5148.969696969697 1042.0 5131.969696969697 1101.0Q5116.969696969697 1154.0 5086.469696969697 1195.5Q5055.969696969697 1237.0 5012.969696969697 1257.0Q4969.969696969697 1277.0 4914.969696969697 1267.0ZM4932.969696969697 1175.0Q4946.969696969697 1177.0 4967.469696969697 1168.5Q4987.969696969697 1160.0 5008.469696969697 1137.0Q5028.969696969697 1114.0 5039.969696969697 1075.0L5070.969696969697 967.0Q5029.969696969697 1000.0 4994.469696969697 1030.5Q4958.969696969697 1061.0 4939.969696969697 1084.0Q4915.969696969697 1113.0 4911.469696969697 1132.5Q4906.969696969697 1152.0 4914.469696969697 1162.5Q4921.969696969697 1173.0 4932.969696969697 1175.0ZM5950.969696969697 915.0Q5892.969696969697 915.0 5854.969696969697 877.0Q5816.969696969697 839.0 5816.969696969697 778.0Q5816.969696969697 736.0 5834.469696969697 667.5Q5851.969696969697 599.0 5879.969696969697 505.0Q5892.969696969697 462.0 5890.969696969697 441.5Q5888.969696969697 421.0 5876.969696969697 414.5Q5864.969696969697 408.0 5846.969696969697 408.0Q5824.969696969697 408.0 5797.969696969697 426.0Q5770.969696969697 444.0 5738.969696969697 494.0Q5727.969696969697 510.0 5708.469696969697 545.5Q5688.969696969697 581.0 5664.469696969697 626.5Q5639.969696969697 672.0 5614.469696969697 721.5Q5588.969696969697 771.0 5565.969696969697 816.5Q5542.969696969697 862.0 5525.969696969697 896.0Q5516.969696969697 914.0 5501.969696969697 919.5Q5486.969696969697 925.0 5470.969696969697 920.5Q5454.969696969697 916.0 5444.469696969697 903.5Q5433.969696969697 891.0 5434.969696969697 872.0Q5442.969696969697 760.0 5459.969696969697 647.5Q5476.969696969697 535.0 5500.969696969697 423.0Q5505.969696969697 399.0 5522.469696969697 391.5Q5538.969696969697 384.0 5556.969696969697 388.5Q5574.969696969697 393.0 5586.469696969697 407.5Q5597.969696969697 422.0 5592.969696969697 443.0Q5582.969696969697 488.0 5574.969696969697 532.5Q5566.969696969697 577.0 5559.969696969697 622.0Q5590.969696969697 564.0 5617.969696969697 515.0Q5644.969696969697 466.0 5658.969696969697 444.0Q5695.969696969697 386.0 5742.469696969697 350.0Q5788.969696969697 314.0 5846.969696969697 314.0Q5907.969696969697 314.0 5940.469696969697 346.5Q5972.969696969697 379.0 5979.969696969697 429.0Q5986.969696969697 479.0 5969.969696969697 533.0Q5941.969696969697 624.0 5927.469696969697 690.5Q5912.969696969697 757.0 5912.969696969697 778.0Q5912.969696969697 794.0 5919.469696969697 807.5Q5925.969696969697 821.0 5950.969696969697 821.0Q5969.969696969697 821.0 5993.469696969697 809.5Q6016.969696969697 798.0 6041.969696969697 775.0Q6071.969696969697 747.0 6097.969696969697 700.5Q6123.969696969697 654.0 6138.969696969697 600.0Q6144.969696969697 578.0 6161.469696969697 571.5Q6177.969696969697 565.0 6195.969696969697 570.0Q6213.969696969697 575.0 6224.469696969697 590.0Q6234.969696969697 605.0 6228.969696969697 626.0Q6210.969696969697 690.0 6180.469696969697 747.0Q6149.969696969697 804.0 6105.969696969697 845.0Q6071.969696969697 876.0 6033.469696969697 895.5Q5994.969696969697 915.0 5950.969696969697 915.0ZM6628.969696969697 931.0Q6581.969696969697 931.0 6553.469696969697 912.5Q6524.969696969697 894.0 6511.969696969697 863.5Q6498.969696969697 833.0 6497.969696969697 798.0Q6454.969696969697 850.0 6402.469696969697 879.5Q6349.969696969697 909.0 6292.969696969697 909.0Q6247.969696969697 909.0 6207.969696969697 887.5Q6167.969696969697 866.0 6143.469696969697 822.5Q6118.969696969697 779.0 6118.969696969697 712.0Q6118.969696969697 642.0 6148.469696969697 574.5Q6177.969696969697 507.0 6229.469696969697 452.5Q6280.969696969697 398.0 6347.469696969697 365.5Q6413.969696969697 333.0 6486.969696969697 333.0Q6534.969696969697 333.0 6581.969696969697 345.0Q6628.969696969697 357.0 6663.969696969697 380.0Q6683.969696969697 393.0 6685.969696969697 411.0Q6687.969696969697 429.0 6677.469696969697 444.5Q6666.969696969697 460.0 6649.969696969697 466.0Q6632.969696969697 472.0 6613.969696969697 460.0Q6594.969696969697 448.0 6557.469696969697 437.5Q6519.969696969697 427.0 6486.969696969697 427.0Q6429.969696969697 427.0 6380.969696969697 453.0Q6331.969696969697 479.0 6294.469696969697 521.0Q6256.969696969697 563.0 6235.969696969697 613.0Q6214.969696969697 663.0 6214.969696969697 712.0Q6214.969696969697 737.0 6221.469696969697 760.5Q6227.969696969697 784.0 6244.969696969697 799.5Q6261.969696969697 815.0 6292.969696969697 815.0Q6322.969696969697 815.0 6360.469696969697 794.5Q6397.969696969697 774.0 6431.969696969697 729.0Q6452.969696969697 701.0 6475.969696969697 661.5Q6498.969696969697 622.0 6518.469696969697 582.5Q6537.969696969697 543.0 6549.969696969697 515.0Q6557.969696969697 495.0 6574.469696969697 489.0Q6590.969696969697 483.0 6607.969696969697 488.5Q6624.969696969697 494.0 6634.969696969697 508.0Q6644.969696969697 522.0 6640.969696969697 543.0L6596.969696969697 757.0Q6589.969696969697 792.0 6596.969696969697 809.0Q6603.969696969697 826.0 6614.969696969697 831.5Q6625.969696969697 837.0 6628.969696969697 837.0Q6644.969696969697 837.0 6669.969696969697 821.5Q6694.969696969697 806.0 6731.969696969697 763.0Q6762.969696969697 728.0 6796.469696969697 680.5Q6829.969696969697 633.0 6861.469696969697 582.5Q6892.969696969697 532.0 6918.469696969697 486.5Q6943.969696969697 441.0 6958.969696969697 411.0Q6968.969696969697 390.0 6986.969696969697 386.0Q7004.969696969697 382.0 7021.469696969697 390.5Q7037.969696969697 399.0 7045.469696969697 415.5Q7052.969696969697 432.0 7042.969696969697 453.0Q7026.969696969697 486.0 7000.469696969697 533.0Q6973.969696969697 580.0 6941.469696969697 632.5Q6908.969696969697 685.0 6873.469696969697 735.0Q6837.969696969697 785.0 6803.969696969697 825.0Q6763.969696969697 871.0 6722.469696969697 901.0Q6680.969696969697 931.0 6628.969696969697 931.0ZM7035.969696969697 922.0Q6981.969696969697 922.0 6948.969696969697 900.0Q6915.969696969697 878.0 6900.469696969697 841.5Q6884.969696969697 805.0 6883.969696969697 760.5Q6882.969696969697 716.0 6893.969696969697 670.0L6990.969696969697 266.0L6905.969696969697 270.0Q6883.969696969697 271.0 6871.969696969697 257.5Q6859.969696969697 244.0 6858.969696969697 225.5Q6857.969696969697 207.0 6868.969696969697 192.0Q6879.969696969697 177.0 6901.969696969697 176.0L7013.969696969697 170.0L7045.969696969697 36.0Q7051.969696969697 12.0 7068.469696969697 4.5Q7084.969696969697 -3.0 7103.469696969697 2.0Q7121.969696969697 7.0 7133.469696969697 21.5Q7144.969696969697 36.0 7139.969696969697 58.0L7113.969696969697 165.0L7231.969696969697 159.0Q7254.969696969697 158.0 7266.469696969697 171.5Q7277.969696969697 185.0 7278.969696969697 203.5Q7279.969696969697 222.0 7269.469696969697 237.0Q7258.969696969697 252.0 7235.969696969697 253.0L7090.969696969697 260.0L6987.969696969697 692.0Q6974.969696969697 746.0 6981.469696969697 775.5Q6987.969696969697 805.0 7004.469696969697 816.5Q7020.969696969697 828.0 7035.969696969697 828.0Q7064.969696969697 828.0 7101.469696969697 804.5Q7137.969696969697 781.0 7186.969696969697 723.0Q7212.969696969697 693.0 7242.969696969697 653.5Q7272.969696969697 614.0 7302.469696969697 570.0Q7331.969696969697 526.0 7357.969696969697 485.0Q7383.969696969697 444.0 7399.969696969697 411.0Q7410.969696969697 390.0 7428.469696969697 386.0Q7445.969696969697 382.0 7462.969696969697 390.5Q7479.969696969697 399.0 7487.469696969697 415.5Q7494.969696969697 432.0 7483.969696969697 453.0Q7464.969696969697 490.0 7437.969696969697 534.0Q7410.969696969697 578.0 7380.469696969697 623.0Q7349.969696969697 668.0 7318.469696969697 710.0Q7286.969696969697 752.0 7258.969696969697 785.0Q7206.969696969697 846.0 7153.969696969697 884.0Q7100.969696969697 922.0 7035.969696969697 922.0ZM7807.969696969697 915.0Q7773.969696969697 915.0 7743.969696969697 899.5Q7713.969696969697 884.0 7694.469696969697 852.0Q7674.969696969697 820.0 7674.969696969697 772.0Q7674.969696969697 761.0 7675.969696969697 746.5Q7676.969696969697 732.0 7678.969696969697 713.0L7654.969696969697 752.0Q7611.969696969697 820.0 7560.969696969697 860.0Q7509.969696969697 900.0 7447.969696969697 900.0Q7392.969696969697 900.0 7359.969696969697 871.5Q7326.969696969697 843.0 7318.469696969697 794.0Q7309.969696969697 745.0 7326.969696969697 683.0L7399.969696969697 420.0Q7405.969696969697 397.0 7423.469696969697 389.5Q7440.969696969697 382.0 7458.969696969697 387.5Q7476.969696969697 393.0 7487.469696969697 408.0Q7497.969696969697 423.0 7491.969696969697 446.0L7418.969696969697 709.0Q7405.969696969697 755.0 7416.469696969697 780.5Q7426.969696969697 806.0 7447.969696969697 806.0Q7469.969696969697 806.0 7503.969696969697 784.0Q7537.969696969697 762.0 7574.969696969697 702.0Q7589.969696969697 679.0 7614.969696969697 636.0Q7639.969696969697 593.0 7668.469696969697 542.5Q7696.969696969697 492.0 7720.969696969697 444.5Q7744.969696969697 397.0 7756.969696969697 364.0Q7764.969696969697 342.0 7781.969696969697 336.0Q7798.969696969697 330.0 7816.469696969697 336.5Q7833.969696969697 343.0 7843.469696969697 359.0Q7852.969696969697 375.0 7844.969696969697 396.0Q7826.969696969697 445.0 7813.469696969697 501.5Q7799.969696969697 558.0 7790.469696969697 612.5Q7780.969696969697 667.0 7775.969696969697 709.5Q7770.969696969697 752.0 7770.969696969697 772.0Q7770.969696969697 794.0 7779.969696969697 807.5Q7788.969696969697 821.0 7807.969696969697 821.0Q7823.969696969697 821.0 7856.969696969697 801.5Q7889.969696969697 782.0 7937.969696969697 727.0Q7974.969696969697 684.0 8014.469696969697 627.5Q8053.969696969697 571.0 8088.969696969697 513.5Q8123.969696969697 456.0 8145.969696969697 411.0Q8156.969696969697 390.0 8174.469696969697 386.0Q8191.969696969697 382.0 8208.469696969696 390.5Q8224.969696969696 399.0 8232.469696969696 416.0Q8239.969696969696 433.0 8229.969696969696 453.0Q8205.969696969696 502.0 8169.469696969696 562.5Q8132.969696969697 623.0 8091.469696969697 682.0Q8049.969696969697 741.0 8007.969696969697 789.0Q7956.969696969697 847.0 7910.469696969697 881.0Q7863.969696969697 915.0 7807.969696969697 915.0ZM8414.969696969696 923.0Q8360.969696969696 923.0 8326.469696969696 894.5Q8291.969696969696 866.0 8279.469696969696 822.0Q8266.969696969696 778.0 8277.969696969696 731.0Q8286.969696969696 693.0 8310.469696969696 634.0Q8333.969696969696 575.0 8372.969696969696 499.0L8140.969696969697 498.0Q8081.969696969697 498.0 8043.969696969697 465.5Q8005.969696969697 433.0 8005.969696969697 376.0Q8005.969696969697 341.0 8022.969696969697 311.5Q8039.969696969697 282.0 8068.969696969697 264.0Q8097.969696969697 246.0 8134.969696969697 246.0Q8181.969696969697 246.0 8208.969696969696 268.5Q8235.969696969696 291.0 8245.469696969696 327.0Q8254.969696969696 363.0 8245.969696969696 402.0L8452.969696969696 403.0Q8471.969696969696 403.0 8484.469696969696 414.5Q8496.969696969696 426.0 8500.469696969696 442.5Q8503.969696969696 459.0 8494.969696969696 475.0Q8459.969696969696 537.0 8434.469696969696 592.5Q8408.969696969696 648.0 8392.969696969696 689.5Q8376.969696969696 731.0 8371.969696969696 753.0Q8362.969696969696 791.0 8379.969696969696 809.0Q8396.969696969696 827.0 8414.969696969696 827.0Q8435.969696969696 827.0 8474.469696969696 813.0Q8512.969696969696 799.0 8561.969696969696 772.0Q8610.969696969696 745.0 8661.969696969696 707.0Q8680.969696969696 693.0 8699.469696969696 697.5Q8717.969696969696 702.0 8728.969696969696 717.0Q8739.969696969696 732.0 8739.469696969696 750.5Q8738.969696969696 769.0 8719.969696969696 783.0Q8634.969696969696 847.0 8556.969696969696 885.0Q8478.969696969696 923.0 8414.969696969696 923.0ZM8101.969696969697 376.0Q8101.969696969697 386.0 8106.469696969697 394.0Q8110.969696969697 402.0 8140.969696969697 402.0H8145.969696969697Q8161.969696969697 375.0 8159.969696969697 362.5Q8157.969696969697 350.0 8149.469696969697 346.0Q8140.969696969697 342.0 8134.969696969697 342.0Q8119.969696969697 342.0 8110.969696969697 352.0Q8101.969696969697 362.0 8101.969696969697 376.0ZM8870.969696969696 927.0Q8798.969696969696 927.0 8746.969696969696 893.5Q8694.969696969696 860.0 8666.969696969696 802.5Q8638.969696969696 745.0 8638.969696969696 673.0Q8638.969696969696 602.0 8665.969696969696 539.5Q8692.969696969696 477.0 8736.469696969696 429.5Q8779.969696969696 382.0 8829.469696969696 355.5Q8878.969696969696 329.0 8923.969696969696 329.0Q8959.969696969696 329.0 8989.969696969696 343.0Q9019.969696969696 357.0 9038.469696969696 383.0Q9056.969696969696 409.0 9056.969696969696 446.0Q9056.969696969696 501.0 9024.469696969696 541.5Q8991.969696969696 582.0 8935.969696969696 631.0Q8893.969696969696 668.0 8847.969696969696 701.0Q8801.969696969696 734.0 8751.969696969696 766.0Q8783.969696969696 833.0 8870.969696969696 833.0Q8894.969696969696 833.0 8921.969696969696 825.5Q8948.969696969696 818.0 8982.969696969696 794.0Q9016.969696969696 770.0 9062.969696969696 719.0Q9077.969696969696 702.0 9096.469696969696 703.0Q9114.969696969696 704.0 9128.969696969696 716.5Q9142.969696969696 729.0 9145.469696969696 747.5Q9147.969696969696 766.0 9132.969696969696 783.0Q9058.969696969696 865.0 8993.469696969696 896.0Q8927.969696969696 927.0 8870.969696969696 927.0ZM8734.969696969696 665.0Q8772.969696969696 640.0 8807.969696969696 614.5Q8842.969696969696 589.0 8873.969696969696 561.0Q8925.969696969696 515.0 8944.469696969696 484.5Q8962.969696969696 454.0 8962.969696969696 446.0Q8962.969696969696 442.0 8956.969696969696 432.5Q8950.969696969696 423.0 8923.969696969696 423.0Q8898.969696969696 423.0 8867.469696969696 441.5Q8835.969696969696 460.0 8806.469696969696 493.0Q8776.969696969696 526.0 8756.969696969696 570.0Q8736.969696969696 614.0 8734.969696969696 665.0Z" fill="currentColor" /></svg>