<svg viewBox="0 0 5057 747" xmlns="http://www.w3.org/2000/svg"><path d="M0 737V8H70L238 433L342 695H349L453 433L622 8H691V737H653V317L654 39H647L551 286L370 737H322L140 286L44 39H37L38 317V737ZM1081 745Q1026 745 981.5 726.0Q937 707 904.5 671.5Q872 636 854.5 587.5Q837 539 837 480Q837 401 867.5 340.5Q898 280 953.0 246.0Q1008 212 1081 212Q1135 212 1179.5 231.0Q1224 250 1255.5 285.5Q1287 321 1304.5 370.0Q1322 419 1322 479Q1322 557 1292.0 617.0Q1262 677 1207.5 711.0Q1153 745 1081 745ZM1080 709Q1141 709 1187.0 681.0Q1233 653 1258.5 601.0Q1284 549 1284 479Q1284 427 1270.0 384.5Q1256 342 1229.5 311.0Q1203 280 1165.5 263.5Q1128 247 1081 247Q1020 247 973.5 275.5Q927 304 901.0 356.0Q875 408 875 480Q875 531 889.0 573.5Q903 616 930.0 646.0Q957 676 995.0 692.5Q1033 709 1080 709ZM1459 737V220H1493L1495 337H1499Q1525 275 1577.5 243.5Q1630 212 1692 212Q1733 212 1767.5 224.5Q1802 237 1827.0 264.0Q1852 291 1866.0 333.5Q1880 376 1880 437V737H1843V443Q1843 375 1826.0 331.5Q1809 288 1774.5 267.0Q1740 246 1687 246Q1630 246 1586.5 274.0Q1543 302 1519.0 350.5Q1495 399 1495 463V737ZM2234 745Q2186 745 2146.0 726.5Q2106 708 2077.0 673.5Q2048 639 2032.5 589.5Q2017 540 2017 478Q2017 395 2044.5 335.0Q2072 275 2121.0 243.0Q2170 211 2234 211Q2283 211 2322.5 227.0Q2362 243 2389.5 271.5Q2417 300 2430 339H2433L2435 220H2469V737H2435L2433 616H2430Q2410 674 2359.0 709.5Q2308 745 2234 745ZM2242 711Q2302 711 2344.5 682.5Q2387 654 2409.5 609.0Q2432 564 2432 513V442Q2432 391 2409.5 345.5Q2387 300 2344.5 272.0Q2302 244 2242 244Q2186 244 2144.0 271.5Q2102 299 2078.5 351.0Q2055 403 2055 478Q2055 551 2078.5 603.5Q2102 656 2144.0 683.5Q2186 711 2242 711ZM3114 745Q3021 745 2961.5 715.0Q2902 685 2873.5 632.0Q2845 579 2843 512H2884Q2886 573 2911.0 618.0Q2936 663 2985.5 687.0Q3035 711 3112 711Q3180 711 3230.5 694.0Q3281 677 3309.0 642.0Q3337 607 3337 554Q3337 512 3324.5 483.0Q3312 454 3284.5 434.5Q3257 415 3214.5 401.5Q3172 388 3112 377Q3050 365 3003.0 351.0Q2956 337 2924.5 316.5Q2893 296 2877.0 264.5Q2861 233 2861 187Q2861 131 2890.0 89.0Q2919 47 2973.5 23.5Q3028 0 3105 0Q3186 0 3240.0 26.0Q3294 52 3322.5 98.5Q3351 145 3352 208H3312Q3310 152 3284.5 113.0Q3259 74 3213.0 54.0Q3167 34 3101 34Q3037 34 2992.5 52.5Q2948 71 2924.5 104.0Q2901 137 2901 182Q2901 233 2923.5 262.0Q2946 291 2995.5 308.0Q3045 325 3126 340Q3178 349 3223.5 362.0Q3269 375 3303.5 397.5Q3338 420 3357.5 457.0Q3377 494 3377 552Q3377 610 3346.5 653.5Q3316 697 3257.0 721.0Q3198 745 3114 745ZM3714 745Q3666 745 3626.0 726.5Q3586 708 3557.0 673.5Q3528 639 3512.5 589.5Q3497 540 3497 478Q3497 395 3524.5 335.0Q3552 275 3601.0 243.0Q3650 211 3714 211Q3763 211 3802.5 227.0Q3842 243 3869.5 271.5Q3897 300 3910 339H3913L3915 220H3949V737H3915L3913 616H3910Q3890 674 3839.0 709.5Q3788 745 3714 745ZM3722 711Q3782 711 3824.5 682.5Q3867 654 3889.5 609.0Q3912 564 3912 513V442Q3912 391 3889.5 345.5Q3867 300 3824.5 272.0Q3782 244 3722 244Q3666 244 3624.0 271.5Q3582 299 3558.5 351.0Q3535 403 3535 478Q3535 551 3558.5 603.5Q3582 656 3624.0 683.5Q3666 711 3722 711ZM4119 737V220H4153L4155 337H4159Q4185 275 4237.5 243.5Q4290 212 4352 212Q4393 212 4427.5 224.5Q4462 237 4487.0 264.0Q4512 291 4526.0 333.5Q4540 376 4540 437V737H4503V443Q4503 375 4486.0 331.5Q4469 288 4434.5 267.0Q4400 246 4347 246Q4290 246 4246.5 274.0Q4203 302 4179.0 350.5Q4155 399 4155 463V737ZM4864 747Q4818 747 4781.5 735.5Q4745 724 4719.0 703.5Q4693 683 4679.0 653.5Q4665 624 4663 588H4700Q4703 631 4724.0 659.0Q4745 687 4781.5 700.5Q4818 714 4865 714Q4939 714 4979.0 685.5Q5019 657 5019 605Q5019 567 5003.0 545.0Q4987 523 4953.5 511.0Q4920 499 4866 491Q4805 482 4763.0 467.0Q4721 452 4699.5 425.0Q4678 398 4678 352Q4678 309 4701.0 277.5Q4724 246 4765.0 228.0Q4806 210 4861 210Q4919 210 4960.0 228.5Q5001 247 5023.5 281.5Q5046 316 5047 364H5011Q5009 320 4989.5 293.5Q4970 267 4937.5 255.0Q4905 243 4862 243Q4792 243 4753.5 272.0Q4715 301 4715 348Q4715 382 4732.0 403.5Q4749 425 4784.0 436.5Q4819 448 4872 456Q4926 464 4968.0 478.0Q5010 492 5033.5 521.0Q5057 550 5057 602Q5057 648 5033.0 680.5Q5009 713 4965.5 730.0Q4922 747 4864 747Z" /></svg>