<svg viewBox="0 0 6240 1527" xmlns="http://www.w3.org/2000/svg"><path d="M0 1505V59H185L705 905H649L1164 59H1342V1505H1152V339L1175 346L747 1047H598L170 350L192 343V1505ZM2147 1527Q1988 1527 1891.5 1483.5Q1795 1440 1751.5 1364.0Q1708 1288 1708 1190V763Q1708 665 1751.5 588.5Q1795 512 1891.5 468.5Q1988 425 2147 425Q2305 425 2401.5 468.5Q2498 512 2542.0 588.5Q2586 665 2586 763V1190Q2586 1288 2542.0 1364.0Q2498 1440 2401.5 1483.5Q2305 1527 2147 1527ZM2147 1383Q2257 1383 2327.5 1343.5Q2398 1304 2398 1206V747Q2398 649 2327.5 609.0Q2257 569 2147 569Q2035 569 1965.5 609.0Q1896 649 1896 747V1206Q1896 1304 1965.5 1343.5Q2035 1383 2147 1383ZM2920 445H3108V548Q3155 494 3231.0 459.5Q3307 425 3422 425Q3553 425 3632.5 467.5Q3712 510 3748.0 580.5Q3784 651 3784 735V1505H3596V724Q3596 671 3568.0 637.0Q3540 603 3490.0 586.0Q3440 569 3374 569Q3282 569 3223.0 593.0Q3164 617 3136.0 658.0Q3108 699 3108 750V1505H2920ZM4108 1170V770Q4108 610 4214.0 517.5Q4320 425 4551 425Q4601 425 4669.0 436.0Q4737 447 4786 465V0H4974V1505H4846L4815 1435Q4769 1471 4689.5 1499.0Q4610 1527 4528 1527Q4376 1527 4283.5 1480.0Q4191 1433 4149.5 1352.5Q4108 1272 4108 1170ZM4786 1316V613Q4744 593 4681.5 581.0Q4619 569 4553 569Q4442 569 4369.0 610.0Q4296 651 4296 749V1184Q4296 1283 4366.5 1331.0Q4437 1379 4540 1379Q4620 1379 4687.0 1357.0Q4754 1335 4786 1316ZM5625 1527Q5508 1527 5434.5 1486.5Q5361 1446 5326.5 1379.5Q5292 1313 5292 1237Q5292 1157 5323.5 1102.5Q5355 1048 5442.5 1003.5Q5530 959 5699 910Q5787 884 5840.0 864.0Q5893 844 5917.0 813.0Q5941 782 5941 724Q5941 681 5927.5 646.0Q5914 611 5872.5 590.0Q5831 569 5746 569Q5640 569 5591.0 591.0Q5542 613 5528.5 648.5Q5515 684 5515 727V774H5334V726Q5334 569 5439.0 497.0Q5544 425 5752 425Q5892 425 5974.5 469.5Q6057 514 6093.0 595.0Q6129 676 6129 785V1237Q6129 1321 6150.5 1345.0Q6172 1369 6240 1369L6218 1513H6180Q6074 1513 6027.0 1471.5Q5980 1430 5956 1355Q5933 1391 5892.5 1431.0Q5852 1471 5787.5 1499.0Q5723 1527 5625 1527ZM5648 1387Q5705 1387 5767.0 1362.5Q5829 1338 5877.5 1297.5Q5926 1257 5941 1208V929Q5919 951 5864.5 986.5Q5810 1022 5709 1051Q5586 1086 5528.5 1123.0Q5471 1160 5471 1231Q5471 1311 5512.5 1349.0Q5554 1387 5648 1387Z" fill="currentColor" /></svg>