<svg viewBox="0 0 5352 773" xmlns="http://www.w3.org/2000/svg"><path d="M0 753V724Q28 724 56.0 708.0Q84 692 86 658L119 231Q119 225 119.5 216.0Q120 207 120 204Q120 188 116.0 175.5Q112 163 104 148Q97 132 89.5 121.0Q82 110 69 101Q51 89 27 89Q20 89 17.0 84.0Q14 79 14 74Q14 69 17.0 64.5Q20 60 27 60H175Q197 60 205.0 63.5Q213 67 220 83L446 583L646 83Q649 75 655.0 67.5Q661 60 675 60H804V89H753L811 724H861V753H616V724H671L627 212H625Q623 223 620.0 231.0Q617 239 614 247L410 755Q407 765 395 765Q385 765 380 755L165 280Q163 275 160.0 265.5Q157 256 155 247H152L121 656Q121 658 120.5 663.0Q120 668 120 670Q120 699 146.5 711.5Q173 724 204 724V753ZM920 522Q920 449 952.5 394.0Q985 339 1041.5 308.0Q1098 277 1171 277Q1244 277 1300.5 308.0Q1357 339 1389.5 394.0Q1422 449 1422 522Q1422 594 1389.5 649.5Q1357 705 1300.5 736.0Q1244 767 1171 767Q1098 767 1041.5 736.0Q985 705 952.5 649.5Q920 594 920 522ZM1045 485Q1045 558 1061.0 615.0Q1077 672 1107.0 704.0Q1137 736 1180 736Q1237 736 1267.0 686.0Q1297 636 1297 559Q1297 485 1281.0 428.5Q1265 372 1235.0 340.0Q1205 308 1162 308Q1105 308 1075.0 358.0Q1045 408 1045 485ZM1488 745Q1488 730 1502 730L1544 727Q1554 726 1561.5 721.5Q1569 717 1569 703V370Q1569 354 1565.0 346.5Q1561 339 1552 335Q1543 330 1529.5 328.0Q1516 326 1505 325Q1497 324 1492.5 322.5Q1488 321 1488 311Q1488 302 1491.0 298.5Q1494 295 1504 295Q1515 295 1540.0 293.5Q1565 292 1584 291Q1608 289 1628.0 287.0Q1648 285 1660 285Q1676 285 1679.0 293.5Q1682 302 1682 313V352L1685 355Q1728 329 1775.5 304.5Q1823 280 1866 280Q1937 280 1962.5 315.5Q1988 351 1988 413V703Q1988 717 1996.0 721.5Q2004 726 2014 727L2056 730Q2069 730 2069 745Q2069 759 2059 759Q2049 759 2031.5 757.5Q2014 756 1999 755Q1982 753 1964.0 752.0Q1946 751 1932 751Q1918 751 1900.0 752.0Q1882 753 1865 755Q1850 756 1832.5 757.5Q1815 759 1805 759Q1795 759 1795 745Q1795 730 1809 730L1851 727Q1861 726 1868.5 721.5Q1876 717 1876 703V400Q1876 386 1871.0 371.0Q1866 356 1852.0 345.5Q1838 335 1812 335Q1778 335 1744.0 353.5Q1710 372 1682 391V703Q1682 717 1689.5 721.5Q1697 726 1707 727L1749 730Q1763 730 1763 745Q1763 759 1752 759Q1742 759 1724.5 757.5Q1707 756 1692 755Q1675 753 1657.0 752.0Q1639 751 1625 751Q1611 751 1593.5 752.0Q1576 753 1559 755Q1544 756 1526.5 757.5Q1509 759 1499 759Q1488 759 1488 745ZM2125 522Q2125 449 2157.5 394.0Q2190 339 2246.5 308.0Q2303 277 2376 277Q2449 277 2505.5 308.0Q2562 339 2594.5 394.0Q2627 449 2627 522Q2627 594 2594.5 649.5Q2562 705 2505.5 736.0Q2449 767 2376 767Q2303 767 2246.5 736.0Q2190 705 2157.5 649.5Q2125 594 2125 522ZM2250 485Q2250 558 2266.0 615.0Q2282 672 2312.0 704.0Q2342 736 2385 736Q2442 736 2472.0 686.0Q2502 636 2502 559Q2502 485 2486.0 428.5Q2470 372 2440.0 340.0Q2410 308 2367 308Q2310 308 2280.0 358.0Q2250 408 2250 485ZM2693 745Q2693 730 2707 730L2749 727Q2759 726 2766.5 721.5Q2774 717 2774 703V370Q2774 354 2770.0 346.5Q2766 339 2757 335Q2748 330 2734.5 328.0Q2721 326 2710 325Q2702 324 2697.5 322.5Q2693 321 2693 311Q2693 302 2696.0 298.5Q2699 295 2709 295Q2720 295 2745.0 293.5Q2770 292 2789 291Q2813 289 2833.0 287.0Q2853 285 2865 285Q2881 285 2884.0 293.5Q2887 302 2887 313V356L2890 359Q2933 332 2980.5 306.0Q3028 280 3071 280Q3125 280 3149.5 301.5Q3174 323 3181 361L3184 362Q3213 342 3246.0 323.0Q3279 304 3311.0 292.0Q3343 280 3369 280Q3417 280 3441.5 296.0Q3466 312 3475.0 342.0Q3484 372 3484 413V703Q3484 717 3492.0 721.5Q3500 726 3510 727L3552 730Q3565 730 3565 745Q3565 759 3555 759Q3545 759 3527.5 757.5Q3510 756 3495 755Q3478 753 3460.0 752.0Q3442 751 3428 751Q3414 751 3396.0 752.0Q3378 753 3361 755Q3346 756 3331.5 757.5Q3317 759 3309 759Q3299 759 3299 745Q3299 730 3313 730L3347 727Q3357 726 3364.5 721.5Q3372 717 3372 703V400Q3372 386 3369.0 371.0Q3366 356 3354.0 345.5Q3342 335 3316 335Q3285 335 3250.0 355.0Q3215 375 3185 396V703Q3185 717 3193.0 721.5Q3201 726 3211 727L3245 730Q3258 730 3258 745Q3258 759 3248 759Q3241 759 3226.0 757.5Q3211 756 3196 755Q3179 753 3161.0 752.0Q3143 751 3129 751Q3115 751 3097.0 752.0Q3079 753 3062 755Q3047 756 3033.0 757.5Q3019 759 3011 759Q3000 759 3000 745Q3000 730 3014 730L3048 727Q3058 726 3065.5 721.5Q3073 717 3073 703V400Q3073 386 3070.0 371.0Q3067 356 3055.0 345.5Q3043 335 3017 335Q2983 335 2948.5 355.0Q2914 375 2887 395V703Q2887 717 2894.5 721.5Q2902 726 2912 727L2946 730Q2959 730 2959 745Q2959 759 2949 759Q2942 759 2927.0 757.5Q2912 756 2897 755Q2880 753 2862.0 752.0Q2844 751 2830 751Q2816 751 2798.5 752.0Q2781 753 2764 755Q2749 756 2731.5 757.5Q2714 759 2704 759Q2693 759 2693 745ZM3629 674Q3629 642 3642.5 618.5Q3656 595 3675.5 578.0Q3695 561 3713 551Q3756 527 3800.0 515.0Q3844 503 3896 492V425Q3896 396 3880.0 378.5Q3864 361 3841.5 353.0Q3819 345 3799 345Q3783 345 3759.0 357.5Q3735 370 3712 388Q3702 395 3686.5 407.0Q3671 419 3660 419Q3643 419 3643 400Q3643 388 3663.5 367.5Q3684 347 3715.0 327.0Q3746 307 3778.5 293.0Q3811 279 3836 279Q3882 279 3921.0 293.5Q3960 308 3984.0 336.0Q4008 364 4008 405V646Q4008 674 4021.5 691.5Q4035 709 4053 709Q4062 709 4070.5 703.5Q4079 698 4087 689Q4093 682 4099.5 677.0Q4106 672 4111 672Q4116 672 4120.5 677.0Q4125 682 4125 690Q4125 696 4114.0 709.0Q4103 722 4084.5 736.5Q4066 751 4045.5 761.0Q4025 771 4005 771Q3976 771 3949.0 750.0Q3922 729 3911 698H3908Q3886 716 3854.0 733.0Q3822 750 3790.0 761.5Q3758 773 3735 773Q3713 773 3688.5 763.5Q3664 754 3646.5 732.0Q3629 710 3629 674ZM3738 645Q3738 678 3758.5 693.5Q3779 709 3804 709Q3830 709 3855.0 700.0Q3880 691 3903 671Q3900 657 3898.0 639.5Q3896 622 3896 598V519Q3866 525 3837.5 533.5Q3809 542 3783 558Q3758 574 3748.0 598.5Q3738 623 3738 645ZM4151 745Q4151 730 4165 730L4207 727Q4217 726 4225.0 721.5Q4233 717 4233 703V85Q4233 69 4228.5 61.5Q4224 54 4215 50Q4206 45 4192.5 43.0Q4179 41 4168 40Q4160 39 4155.5 37.5Q4151 36 4151 26Q4151 10 4168 10Q4179 10 4204.0 8.0Q4229 6 4248 5Q4272 3 4291.5 1.5Q4311 0 4323 0Q4339 0 4342.0 8.5Q4345 17 4345 28V494L4471 396Q4482 388 4499.0 372.0Q4516 356 4516 340Q4516 317 4479 314Q4465 314 4465 298Q4465 284 4476 284Q4481 284 4493.5 285.0Q4506 286 4521 288Q4538 290 4549.5 291.0Q4561 292 4571 292Q4581 292 4593.0 291.0Q4605 290 4622 288Q4637 286 4649.5 285.0Q4662 284 4667 284Q4678 284 4678 298Q4678 310 4664 313Q4643 317 4621.0 327.5Q4599 338 4583 350L4463 441L4615 656Q4635 684 4653.5 697.5Q4672 711 4700 718Q4708 720 4716.0 723.0Q4724 726 4724 732Q4724 745 4700.0 757.0Q4676 769 4653 769Q4611 769 4577.0 751.5Q4543 734 4506 682L4381 505L4345 533V703Q4345 717 4352.5 721.5Q4360 726 4370 727L4412 730Q4426 730 4426 745Q4426 759 4416 759Q4406 759 4388.5 757.5Q4371 756 4356 755Q4339 753 4321.0 752.0Q4303 751 4289 751Q4275 751 4257.0 752.0Q4239 753 4222 755Q4207 756 4189.5 757.5Q4172 759 4162 759Q4151 759 4151 745ZM4770 745Q4770 730 4784 730L4826 727Q4836 726 4844.0 721.5Q4852 717 4852 703V85Q4852 69 4847.5 61.5Q4843 54 4834 50Q4825 45 4811.5 43.0Q4798 41 4787 40Q4779 39 4774.5 37.5Q4770 36 4770 26Q4770 10 4787 10Q4798 10 4823.0 8.0Q4848 6 4867 5Q4891 3 4910.5 1.5Q4930 0 4942 0Q4958 0 4961.0 8.5Q4964 17 4964 28V352L4967 355Q5010 329 5057.5 304.5Q5105 280 5148 280Q5219 280 5244.5 315.5Q5270 351 5270 413V703Q5270 717 5278.0 721.5Q5286 726 5296 727L5338 730Q5352 730 5352 745Q5352 759 5341 759Q5331 759 5313.5 757.5Q5296 756 5281 755Q5264 753 5246.0 752.0Q5228 751 5214 751Q5200 751 5182.0 752.0Q5164 753 5147 755Q5132 756 5114.5 757.5Q5097 759 5087 759Q5077 759 5077 745Q5077 730 5091 730L5133 727Q5143 726 5150.5 721.5Q5158 717 5158 703V400Q5158 386 5153.0 371.0Q5148 356 5134.5 345.5Q5121 335 5095 335Q5061 335 5026.5 353.5Q4992 372 4964 391V703Q4964 717 4971.5 721.5Q4979 726 4989 727L5031 730Q5045 730 5045 745Q5045 759 5035 759Q5025 759 5007.5 757.5Q4990 756 4975 755Q4958 753 4940.0 752.0Q4922 751 4908 751Q4894 751 4876.0 752.0Q4858 753 4841 755Q4826 756 4808.5 757.5Q4791 759 4781 759Q4770 759 4770 745Z" fill="currentColor" /></svg>