<svg viewBox="0 0 7250 1282" xmlns="http://www.w3.org/2000/svg"><path d="M388 982 204 550V300H287L500 802H471L671 300H680V525L498 982ZM24 982V894H104V386H25V300H204V894H292V982ZM592 982V894H680V300H945V386H866V894H946V982ZM1278 994Q1191 994 1126.0 961.5Q1061 929 1024.5 868.5Q988 808 988 723Q988 638 1024.5 577.5Q1061 517 1126.0 484.5Q1191 452 1278 452Q1365 452 1430.0 484.5Q1495 517 1531.5 577.5Q1568 638 1568 723Q1568 808 1531.5 869.0Q1495 930 1430.0 962.0Q1365 994 1278 994ZM1278 914Q1307 914 1326.5 891.5Q1346 869 1356.0 824.5Q1366 780 1366 716Q1366 657 1356.0 616.0Q1346 575 1326.5 553.5Q1307 532 1278 532Q1249 532 1229.5 554.5Q1210 577 1200.0 619.5Q1190 662 1190 723Q1190 785 1200.0 827.5Q1210 870 1229.5 892.0Q1249 914 1278 914ZM1949 982V896H1993V629Q1993 599 1978.0 584.0Q1963 569 1937 569Q1919 569 1903.5 575.5Q1888 582 1878.5 598.5Q1869 615 1869 645L1843 646Q1843 588 1857.0 545.0Q1871 502 1906.5 478.5Q1942 455 2008 455Q2079 455 2126.0 495.5Q2173 536 2173 624V896H2228V982ZM1610 982V896H1687V550H1617V464H1847V623L1869 619V896H1913V982ZM2500 993Q2408 993 2364.5 935.0Q2321 877 2328 781L2344 554H2219V472H2247Q2307 472 2341.0 457.0Q2375 442 2389.0 411.0Q2403 380 2403 331V318H2505V813Q2505 835 2514.5 848.5Q2524 862 2544 862Q2565 862 2574.0 849.0Q2583 836 2583 813V655H2677V819Q2677 898 2633.0 945.5Q2589 993 2500 993ZM2505 554V464H2691V554ZM2887 670Q2850 670 2821.0 649.5Q2792 629 2792 587Q2792 542 2824.5 512.0Q2857 482 2910.0 467.0Q2963 452 3023 452Q3124 452 3177.5 494.0Q3231 536 3230 621L3062 602Q3062 560 3039.0 542.0Q3016 524 2980 524Q2954 524 2932.5 531.0Q2911 538 2895.5 551.0Q2880 564 2871 582L2872 532Q2919 532 2946.0 547.5Q2973 563 2973 599Q2973 632 2950.5 651.0Q2928 670 2887 670ZM3228 995Q3151 995 3116.0 953.0Q3081 911 3081 835V820H3060V695H3056L3062 650V602L3230 621V842Q3230 858 3238.0 867.5Q3246 877 3259 877Q3274 877 3282.0 867.5Q3290 858 3290 842V646H3380V833Q3380 907 3344.0 951.0Q3308 995 3228 995ZM2913 994Q2835 994 2790.5 955.5Q2746 917 2746 857Q2746 812 2766.0 782.0Q2786 752 2821.0 732.5Q2856 713 2901 701L2988 677Q3013 670 3029.0 660.5Q3045 651 3053.5 636.5Q3062 622 3062 601L3065 695H3060Q3055 709 3042.5 720.0Q3030 731 3010 739L2991 747Q2972 755 2959.0 764.5Q2946 774 2939.0 786.5Q2932 799 2932 816Q2932 842 2947.0 857.0Q2962 872 2987 872Q3007 872 3023.5 863.0Q3040 854 3050.0 835.0Q3060 816 3060 785L3090 796Q3090 864 3069.0 908.0Q3048 952 3008.5 973.0Q2969 994 2913 994ZM3627 1173Q3550 1173 3504.5 1150.0Q3459 1127 3459 1076Q3459 1045 3479.0 1025.5Q3499 1006 3533.0 996.5Q3567 987 3608 987L3615 994Q3607 1000 3600.5 1007.5Q3594 1015 3591.0 1023.0Q3588 1031 3588 1041Q3588 1069 3606.5 1082.0Q3625 1095 3661 1095H3777Q3801 1095 3817.0 1088.5Q3833 1082 3841.0 1070.5Q3849 1059 3849 1044Q3849 1023 3833.0 1013.5Q3817 1004 3791 1004H3589Q3513 1004 3466.5 968.0Q3420 932 3420 874Q3420 832 3441.0 802.5Q3462 773 3500.5 757.0Q3539 741 3589 742L3598 773Q3574 773 3561.0 783.0Q3548 793 3548 814Q3548 834 3561.0 844.0Q3574 854 3598 854H3835Q3918 854 3962.5 890.5Q4007 927 4007 988Q4007 1045 3981.0 1086.5Q3955 1128 3903.5 1150.5Q3852 1173 3776 1173ZM3709 797Q3633 797 3577.0 777.0Q3521 757 3490.5 719.0Q3460 681 3460 628Q3460 548 3527.5 503.5Q3595 459 3709 459L3868 547Q3897 556 3920.5 581.0Q3944 606 3944 647Q3944 715 3882.0 756.0Q3820 797 3709 797ZM3709 725Q3739 725 3755.5 698.5Q3772 672 3772 628Q3772 585 3755.5 558.0Q3739 531 3709 531Q3679 531 3662.5 558.0Q3646 585 3646 628Q3646 672 3662.5 698.5Q3679 725 3709 725ZM3868 547 3709 459H4002V547ZM4269 991Q4220 991 4182.0 972.5Q4144 954 4122.0 915.5Q4100 877 4100 817V550H4045V464H4280V817Q4280 847 4296.0 862.0Q4312 877 4338 877Q4357 877 4373.0 870.5Q4389 864 4398.5 847.0Q4408 830 4408 801L4436 800Q4436 858 4422.0 901.0Q4408 944 4371.5 967.5Q4335 991 4269 991ZM4431 982V823L4408 827V550H4338V464H4590V896H4657V982ZM5284 997Q5210 997 5146.5 971.0Q5083 945 5041.0 888.0Q4999 831 4989 737H5028Q5048 789 5083.0 827.0Q5118 865 5164.0 885.0Q5210 905 5262 905Q5309 905 5334.5 884.0Q5360 863 5360 824Q5360 798 5346.0 781.5Q5332 765 5309.0 755.0Q5286 745 5258 741L5195 731Q5118 719 5056.5 691.0Q4995 663 4959.5 615.0Q4924 567 4924 495Q4924 423 4954.5 377.0Q4985 331 5039.0 308.5Q5093 286 5161 286Q5229 286 5287.5 311.0Q5346 336 5387.0 390.5Q5428 445 5441 536H5402Q5375 461 5316.0 418.5Q5257 376 5188 376Q5142 376 5115.5 396.0Q5089 416 5089 453Q5089 478 5101.5 495.0Q5114 512 5136.0 522.5Q5158 533 5185 538L5248 548Q5329 561 5392.0 586.5Q5455 612 5491.5 657.5Q5528 703 5528 777Q5528 849 5498.0 898.0Q5468 947 5413.0 972.0Q5358 997 5284 997ZM4938 982V737H4989L5032 806V982ZM5441 536 5398 475V300H5492V536ZM5578 982V896H5651V386H5581V300H5833V896H5900V982ZM6083 670Q6046 670 6017.0 649.5Q5988 629 5988 587Q5988 542 6020.5 512.0Q6053 482 6106.0 467.0Q6159 452 6219 452Q6320 452 6373.5 494.0Q6427 536 6426 621L6258 602Q6258 560 6235.0 542.0Q6212 524 6176 524Q6150 524 6128.5 531.0Q6107 538 6091.5 551.0Q6076 564 6067 582L6068 532Q6115 532 6142.0 547.5Q6169 563 6169 599Q6169 632 6146.5 651.0Q6124 670 6083 670ZM6424 995Q6347 995 6312.0 953.0Q6277 911 6277 835V820H6256V695H6252L6258 650V602L6426 621V842Q6426 858 6434.0 867.5Q6442 877 6455 877Q6470 877 6478.0 867.5Q6486 858 6486 842V646H6576V833Q6576 907 6540.0 951.0Q6504 995 6424 995ZM6109 994Q6031 994 5986.5 955.5Q5942 917 5942 857Q5942 812 5962.0 782.0Q5982 752 6017.0 732.5Q6052 713 6097 701L6184 677Q6209 670 6225.0 660.5Q6241 651 6249.5 636.5Q6258 622 6258 601L6261 695H6256Q6251 709 6238.5 720.0Q6226 731 6206 739L6187 747Q6168 755 6155.0 764.5Q6142 774 6135.0 786.5Q6128 799 6128 816Q6128 842 6143.0 857.0Q6158 872 6183 872Q6203 872 6219.5 863.0Q6236 854 6246.0 835.0Q6256 816 6256 785L6286 796Q6286 864 6265.0 908.0Q6244 952 6204.5 973.0Q6165 994 6109 994ZM6990 992Q6917 992 6873.0 957.0Q6829 922 6810.0 861.0Q6791 800 6791 724L6801 722Q6801 643 6818.0 582.5Q6835 522 6876.5 488.0Q6918 454 6991 454Q7057 454 7107.0 484.5Q7157 515 7184.5 574.5Q7212 634 7212 723Q7212 811 7184.0 871.0Q7156 931 7106.5 961.5Q7057 992 6990 992ZM6921 892Q6952 892 6973.0 873.0Q6994 854 7005.0 816.0Q7016 778 7016 723Q7016 667 7005.0 629.5Q6994 592 6973.0 573.0Q6952 554 6921 554Q6891 554 6869.5 573.0Q6848 592 6837.0 629.5Q6826 667 6826 723Q6826 778 6837.0 816.0Q6848 854 6869.5 873.0Q6891 892 6921 892ZM6654 982V385H6588V300H6836V601L6808 718L6822 863V982Z" fill="currentColor" /></svg>