<svg viewBox="0 0 11269 747" xmlns="http://www.w3.org/2000/svg"><path d="M1003 305V742H930V307Q930 205 878.5 153.5Q827 102 738 102Q644 102 591.0 156.5Q538 211 538 323V742H465V307Q465 205 415.0 153.5Q365 102 276 102Q181 102 127.5 156.5Q74 211 74 323V742H0V42H71V159Q100 99 157.0 67.5Q214 36 292 36Q374 36 432.5 70.5Q491 105 517 167Q547 103 607.5 69.5Q668 36 749 36Q869 36 936.0 105.0Q1003 174 1003 305ZM1158 479Q1158 402 1193.0 341.0Q1228 280 1289.0 246.0Q1350 212 1426 212Q1502 212 1563.0 246.0Q1624 280 1658.5 341.0Q1693 402 1693 479Q1693 556 1658.5 617.0Q1624 678 1563.0 712.5Q1502 747 1426 747Q1350 747 1289.0 712.5Q1228 678 1193.0 617.0Q1158 556 1158 479ZM1621 479Q1621 419 1596.0 372.0Q1571 325 1526.5 299.5Q1482 274 1426 274Q1370 274 1325.5 299.5Q1281 325 1255.5 372.0Q1230 419 1230 479Q1230 539 1255.5 586.0Q1281 633 1325.5 658.5Q1370 684 1426 684Q1482 684 1526.5 658.5Q1571 633 1596.0 586.0Q1621 539 1621 479ZM2322 437V742H2251V444Q2251 362 2210.0 319.0Q2169 276 2093 276Q2008 276 1958.5 326.5Q1909 377 1909 466V742H1838V216H1906V313Q1935 265 1986.5 238.5Q2038 212 2106 212Q2205 212 2263.5 269.5Q2322 327 2322 437ZM2774 710Q2754 728 2725.0 737.5Q2696 747 2664 747Q2590 747 2550.0 707.0Q2510 667 2510 594V101H2581V216H2740V276H2581V590Q2581 637 2604.0 661.5Q2627 686 2671 686Q2719 686 2749 659ZM2830 682 2862 626Q2895 652 2945.0 668.5Q2995 685 3049 685Q3121 685 3155.5 662.5Q3190 640 3190 599Q3190 570 3171.0 553.5Q3152 537 3123.0 528.5Q3094 520 3046 512Q2982 500 2943.0 487.5Q2904 475 2876.5 445.0Q2849 415 2849 362Q2849 296 2904.0 254.0Q2959 212 3057 212Q3108 212 3159.0 225.5Q3210 239 3243 261L3212 318Q3147 273 3057 273Q2989 273 2954.5 297.0Q2920 321 2920 360Q2920 390 2939.5 408.0Q2959 426 2988.0 434.5Q3017 443 3068 452Q3131 464 3169.0 476.0Q3207 488 3234.0 517.0Q3261 546 3261 597Q3261 666 3203.5 706.5Q3146 747 3044 747Q2980 747 2921.5 728.5Q2863 710 2830 682ZM3778 615 3818 661Q3783 703 3731.0 725.0Q3679 747 3616 747Q3535 747 3472.0 712.5Q3409 678 3374.0 617.0Q3339 556 3339 479Q3339 402 3372.5 341.0Q3406 280 3465.0 246.0Q3524 212 3599 212Q3669 212 3725.5 244.0Q3782 276 3815.5 333.0Q3849 390 3851 463L3419 547Q3439 611 3491.5 647.5Q3544 684 3617 684Q3666 684 3707.5 666.5Q3749 649 3778 615ZM3408 474Q3408 489 3409 496L3780 424Q3768 358 3719.0 315.5Q3670 273 3599 273Q3544 273 3500.5 298.5Q3457 324 3432.5 369.5Q3408 415 3408 474ZM4261 212V281L4244 280Q4161 280 4114.0 331.0Q4067 382 4067 474V742H3996V216H4064V319Q4089 266 4138.5 239.0Q4188 212 4261 212ZM4654 212V281L4637 280Q4554 280 4507.0 331.0Q4460 382 4460 474V742H4389V216H4457V319Q4482 266 4531.5 239.0Q4581 212 4654 212ZM5257 216V742H5189V638Q5157 691 5104.5 719.0Q5052 747 4986 747Q4912 747 4852.0 713.0Q4792 679 4758.0 618.0Q4724 557 4724 479Q4724 401 4758.0 340.0Q4792 279 4852.0 245.5Q4912 212 4986 212Q5050 212 5101.5 238.5Q5153 265 5186 316V216ZM5187 479Q5187 419 5161.5 372.0Q5136 325 5091.5 299.5Q5047 274 4992 274Q4936 274 4891.5 299.5Q4847 325 4821.5 372.0Q4796 419 4796 479Q4796 539 4821.5 586.0Q4847 633 4891.5 658.5Q4936 684 4992 684Q5047 684 5091.5 658.5Q5136 633 5161.5 586.0Q5187 539 5187 479ZM5714 710Q5694 728 5665.0 737.5Q5636 747 5604 747Q5530 747 5490.0 707.0Q5450 667 5450 594V101H5521V216H5680V276H5521V590Q5521 637 5544.0 661.5Q5567 686 5611 686Q5659 686 5689 659ZM6699 345V742H6626V536H6186V742H6114V345Q6114 195 6192.5 115.5Q6271 36 6406 36Q6542 36 6620.5 115.5Q6699 195 6699 345ZM6626 472V338Q6626 221 6568.0 161.5Q6510 102 6406 102Q6302 102 6244.0 161.5Q6186 221 6186 338V472ZM6906 596V0H6977V590Q6977 637 6999.0 661.5Q7021 686 7065 686Q7093 686 7113 677L7118 736Q7087 747 7054 747Q6983 747 6944.5 707.0Q6906 667 6906 596ZM7474 710Q7454 728 7425.0 737.5Q7396 747 7364 747Q7290 747 7250.0 707.0Q7210 667 7210 594V101H7281V216H7440V276H7281V590Q7281 637 7304.0 661.5Q7327 686 7371 686Q7419 686 7449 659ZM7970 615 8010 661Q7975 703 7923.0 725.0Q7871 747 7808 747Q7727 747 7664.0 712.5Q7601 678 7566.0 617.0Q7531 556 7531 479Q7531 402 7564.5 341.0Q7598 280 7657.0 246.0Q7716 212 7791 212Q7861 212 7917.5 244.0Q7974 276 8007.5 333.0Q8041 390 8043 463L7611 547Q7631 611 7683.5 647.5Q7736 684 7809 684Q7858 684 7899.5 666.5Q7941 649 7970 615ZM7600 474Q7600 489 7601 496L7972 424Q7960 358 7911.0 315.5Q7862 273 7791 273Q7736 273 7692.5 298.5Q7649 324 7624.5 369.5Q7600 415 7600 474ZM8453 212V281L8436 280Q8353 280 8306.0 331.0Q8259 382 8259 474V742H8188V216H8256V319Q8281 266 8330.5 239.0Q8380 212 8453 212ZM9065 437V742H8994V444Q8994 362 8953.0 319.0Q8912 276 8836 276Q8751 276 8701.5 326.5Q8652 377 8652 466V742H8581V216H8649V313Q8678 265 8729.5 238.5Q8781 212 8849 212Q8948 212 9006.5 269.5Q9065 327 9065 437ZM9740 216V742H9672V638Q9640 691 9587.5 719.0Q9535 747 9469 747Q9395 747 9335.0 713.0Q9275 679 9241.0 618.0Q9207 557 9207 479Q9207 401 9241.0 340.0Q9275 279 9335.0 245.5Q9395 212 9469 212Q9533 212 9584.5 238.5Q9636 265 9669 316V216ZM9670 479Q9670 419 9644.5 372.0Q9619 325 9574.5 299.5Q9530 274 9475 274Q9419 274 9374.5 299.5Q9330 325 9304.5 372.0Q9279 419 9279 479Q9279 539 9304.5 586.0Q9330 633 9374.5 658.5Q9419 684 9475 684Q9530 684 9574.5 658.5Q9619 633 9644.5 586.0Q9670 539 9670 479ZM10197 710Q10177 728 10148.0 737.5Q10119 747 10087 747Q10013 747 9973.0 707.0Q9933 667 9933 594V101H10004V216H10163V276H10004V590Q10004 637 10027.0 661.5Q10050 686 10094 686Q10142 686 10172 659ZM10693 615 10733 661Q10698 703 10646.0 725.0Q10594 747 10531 747Q10450 747 10387.0 712.5Q10324 678 10289.0 617.0Q10254 556 10254 479Q10254 402 10287.5 341.0Q10321 280 10380.0 246.0Q10439 212 10514 212Q10584 212 10640.5 244.0Q10697 276 10730.5 333.0Q10764 390 10766 463L10334 547Q10354 611 10406.5 647.5Q10459 684 10532 684Q10581 684 10622.5 666.5Q10664 649 10693 615ZM10323 474Q10323 489 10324 496L10695 424Q10683 358 10634.0 315.5Q10585 273 10514 273Q10459 273 10415.5 298.5Q10372 324 10347.5 369.5Q10323 415 10323 474ZM10838 682 10870 626Q10903 652 10953.0 668.5Q11003 685 11057 685Q11129 685 11163.5 662.5Q11198 640 11198 599Q11198 570 11179.0 553.5Q11160 537 11131.0 528.5Q11102 520 11054 512Q10990 500 10951.0 487.5Q10912 475 10884.5 445.0Q10857 415 10857 362Q10857 296 10912.0 254.0Q10967 212 11065 212Q11116 212 11167.0 225.5Q11218 239 11251 261L11220 318Q11155 273 11065 273Q10997 273 10962.5 297.0Q10928 321 10928 360Q10928 390 10947.5 408.0Q10967 426 10996.0 434.5Q11025 443 11076 452Q11139 464 11177.0 476.0Q11215 488 11242.0 517.0Q11269 546 11269 597Q11269 666 11211.5 706.5Q11154 747 11052 747Q10988 747 10929.5 728.5Q10871 710 10838 682Z" fill="currentColor" /></svg>