<svg viewBox="0 0 4124 1700" xmlns="http://www.w3.org/2000/svg"><path d="M40 1328Q29 1328 9.0 1325.5Q-11 1323 -27.0 1313.0Q-43 1303 -43 1283Q-43 1272 -37 1263Q-32 1258 -28.5 1257.5Q-25 1257 -26 1262Q-30 1277 -16.5 1290.5Q-3 1304 11 1308Q27 1312 45 1312Q86 1312 120.0 1291.5Q154 1271 181.5 1239.5Q209 1208 231 1176Q282 1101 323.0 1021.5Q364 942 406.0 863.0Q448 784 500 711Q517 687 542.0 656.5Q567 626 597.0 598.0Q627 570 659 554Q646 554 637.0 553.0Q628 552 607 551Q568 548 517 548Q489 548 462.5 548.5Q436 549 413 551Q331 556 249.5 582.0Q168 608 110 661Q76 692 54.0 731.0Q32 770 32 808Q32 851 55.5 869.5Q79 888 111 888Q136 888 161 879Q210 862 241.5 818.5Q273 775 269 721Q268 712 265.0 703.0Q262 694 257 691Q253 688 253.5 685.0Q254 682 259 682Q281 684 289.5 706.5Q298 729 298 749Q298 780 282.0 808.5Q266 837 240.5 858.5Q215 880 186 891Q155 903 120 903Q74 903 39.5 877.0Q5 851 5 792Q5 748 26.5 709.0Q48 670 79 639Q146 573 234.5 549.0Q323 525 415 525Q487 525 559.0 532.5Q631 540 702 540H728Q733 541 737.5 543.5Q742 546 740 551Q740 557 733 557Q719 557 711 561Q690 568 675.0 586.5Q660 605 646 631Q627 665 623.5 710.5Q620 756 619 794Q618 847 615.5 904.0Q613 961 598 1016Q587 1059 565.5 1097.0Q544 1135 510 1166Q536 1156 562.0 1128.0Q588 1100 611.5 1067.0Q635 1034 650 1011Q693 945 740.5 866.0Q788 787 840.0 709.5Q892 632 948 572Q997 519 1044.5 495.0Q1092 471 1131 471Q1165 471 1190.0 487.5Q1215 504 1225 534Q1225 535 1225.5 535.5Q1226 536 1226 537Q1226 544 1219.0 545.0Q1212 546 1210 543Q1201 502 1158 502Q1130 502 1089.0 524.0Q1048 546 996 596Q942 648 889.0 719.0Q836 790 785.5 865.0Q735 940 685 1006Q667 1030 639.5 1064.0Q612 1098 579.0 1131.5Q546 1165 512.0 1186.5Q478 1208 447 1206Q441 1206 440.5 1202.0Q440 1198 445 1195Q479 1171 500.0 1131.0Q521 1091 534 1044Q551 979 556.5 912.0Q562 845 571 778Q576 747 583.5 712.5Q591 678 607 650Q620 627 643.0 600.0Q666 573 694 561Q677 557 655.5 573.0Q634 589 613.0 614.5Q592 640 575.5 664.0Q559 688 552 699Q504 775 464.5 858.0Q425 941 384.0 1022.0Q343 1103 289 1175Q260 1214 223.0 1249.5Q186 1285 144 1305Q119 1318 92.5 1323.0Q66 1328 40 1328ZM851 1251Q813 1251 790.5 1227.0Q768 1203 768 1156Q769 1109 784.5 1059.0Q800 1009 824.5 959.5Q849 910 875 865Q934 764 993.5 686.0Q1053 608 1090 555Q1093 550 1101.0 550.5Q1109 551 1105 556Q1065 608 1024.5 683.5Q984 759 941 846Q934 861 919.5 894.5Q905 928 888.5 971.0Q872 1014 857.0 1056.5Q842 1099 834 1132Q831 1145 829.0 1156.5Q827 1168 827 1179Q827 1203 837.5 1217.5Q848 1232 870 1232Q893 1232 919.0 1210.5Q945 1189 970 1158Q992 1132 1010.5 1103.0Q1029 1074 1041 1051Q1046 1045 1048 1045Q1051 1045 1051 1050Q1051 1056 1047 1064Q1035 1087 1015.0 1117.5Q995 1148 970 1176Q942 1207 911.0 1229.0Q880 1251 851 1251ZM1125 1220Q1087 1220 1059.5 1195.5Q1032 1171 1032 1120Q1032 1088 1043.5 1053.5Q1055 1019 1069 992Q1095 943 1134.5 906.5Q1174 870 1229 870Q1282 870 1303.0 899.0Q1324 928 1324 970Q1324 987 1321 1005Q1313 1054 1288 1100Q1295 1110 1306.5 1116.5Q1318 1123 1332 1123Q1356 1123 1373.0 1110.0Q1390 1097 1402.5 1077.5Q1415 1058 1424 1041Q1430 1030 1435 1030Q1438 1030 1438 1034Q1438 1038 1432 1052Q1415 1086 1392.0 1111.0Q1369 1136 1332 1136Q1298 1136 1280 1112Q1252 1158 1212.0 1189.0Q1172 1220 1125 1220ZM1127 1208Q1176 1208 1224 1160Q1238 1146 1249.5 1130.5Q1261 1115 1270 1099Q1257 1084 1251.5 1066.5Q1246 1049 1246 1033Q1246 1008 1255.0 988.5Q1264 969 1280 969Q1288 969 1295.5 977.0Q1303 985 1305 1002Q1308 988 1308 972Q1308 934 1294.0 911.5Q1280 889 1247 889Q1227 889 1206.0 904.5Q1185 920 1166.5 942.0Q1148 964 1134.0 987.0Q1120 1010 1113 1025Q1096 1062 1088.5 1091.0Q1081 1120 1081 1142Q1081 1174 1094.5 1191.0Q1108 1208 1127 1208ZM1606 1206Q1577 1206 1560.5 1188.0Q1544 1170 1544 1143Q1544 1130 1549 1113Q1563 1069 1593.5 1025.5Q1624 982 1644 939Q1651 925 1651 914Q1651 903 1644.5 897.5Q1638 892 1629 892Q1616 892 1596.5 902.5Q1577 913 1552 942Q1537 960 1518.0 986.0Q1499 1012 1487 1033Q1467 1067 1451.0 1101.5Q1435 1136 1423 1165Q1413 1188 1399.0 1194.5Q1385 1201 1372.0 1200.0Q1359 1199 1352 1200Q1380 1145 1407.0 1084.0Q1434 1023 1453 962Q1462 934 1468.0 907.5Q1474 881 1473 873V871Q1473 863 1481 867Q1494 874 1499.0 887.5Q1504 901 1504 918Q1504 937 1499.0 958.5Q1494 980 1487 997Q1500 979 1515.0 960.5Q1530 942 1548 925Q1569 904 1593.0 888.5Q1617 873 1645 873Q1672 873 1684.5 885.0Q1697 897 1697 917Q1697 938 1685 965Q1672 996 1653.5 1027.0Q1635 1058 1620 1087Q1617 1093 1610.5 1105.5Q1604 1118 1599 1133Q1597 1140 1595.0 1147.5Q1593 1155 1593 1163Q1593 1173 1597.5 1181.5Q1602 1190 1615 1190Q1632 1190 1647.5 1178.5Q1663 1167 1674 1154Q1697 1129 1716.5 1098.5Q1736 1068 1755 1034Q1758 1030 1759 1030Q1763 1030 1763 1039Q1763 1045 1761 1048Q1743 1081 1723.0 1112.5Q1703 1144 1674 1173Q1661 1186 1644.0 1196.0Q1627 1206 1606 1206ZM1788 1207Q1763 1207 1743.5 1192.5Q1724 1178 1724 1145Q1724 1110 1741.0 1068.0Q1758 1026 1773 993Q1781 977 1794.5 949.5Q1808 922 1824 895H1777Q1774 895 1774 890Q1774 886 1777.0 881.5Q1780 877 1784 877Q1812 877 1826.0 872.0Q1840 867 1850 858Q1866 844 1881.5 822.0Q1897 800 1912 784Q1923 770 1939.5 763.0Q1956 756 1961 758Q1956 765 1945.0 782.0Q1934 799 1922.0 819.0Q1910 839 1900.0 856.0Q1890 873 1887 879H1953Q1956 879 1956 881Q1956 885 1951.5 890.0Q1947 895 1943 895H1878Q1860 926 1835.5 975.5Q1811 1025 1792 1071Q1788 1080 1778.5 1107.0Q1769 1134 1769 1157Q1769 1172 1775.5 1182.0Q1782 1192 1798 1192Q1815 1192 1835.0 1179.5Q1855 1167 1866 1154Q1889 1129 1908.0 1099.0Q1927 1069 1946 1035Q1949 1031 1952 1031Q1956 1031 1956 1037Q1956 1042 1954 1045Q1936 1078 1915.5 1111.0Q1895 1144 1866 1173Q1853 1186 1831.0 1196.5Q1809 1207 1788 1207ZM2036 1208Q1978 1208 1954 1178Q1942 1165 1937.0 1147.0Q1932 1129 1932 1110Q1932 1086 1938.0 1061.5Q1944 1037 1953 1016Q1967 983 1990.0 949.5Q2013 916 2045.5 893.0Q2078 870 2117 870Q2143 870 2158.0 883.0Q2173 896 2173 923Q2173 954 2154.0 985.5Q2135 1017 2106.0 1038.0Q2077 1059 2046 1059Q2018 1059 1997 1039Q1991 1055 1987.0 1074.5Q1983 1094 1983 1114Q1983 1145 1995.5 1168.0Q2008 1191 2041 1191Q2065 1191 2087.5 1178.5Q2110 1166 2128 1148Q2148 1127 2166.0 1103.0Q2184 1079 2201 1047Q2203 1044 2204 1044Q2208 1044 2208 1053Q2208 1059 2204 1066Q2189 1093 2169.0 1120.5Q2149 1148 2128 1168Q2109 1186 2087.0 1197.0Q2065 1208 2036 1208ZM2002 1024Q2009 1034 2018.5 1038.5Q2028 1043 2038 1043Q2062 1043 2088.0 1024.5Q2114 1006 2130 981Q2137 970 2142.5 952.0Q2148 934 2148 918Q2148 904 2142.5 893.5Q2137 883 2121 883Q2103 883 2078.5 905.0Q2054 927 2032 962Q2025 974 2016.5 990.0Q2008 1006 2002 1024ZM2479 1102Q2478 1105 2474 1105Q2465 1105 2468 1097Q2491 1054 2538.0 1008.0Q2585 962 2652.0 927.5Q2719 893 2801 886Q2808 885 2814.0 885.0Q2820 885 2827 885Q2892 885 2921.0 913.5Q2950 942 2946 985Q2941 1045 2903.5 1095.0Q2866 1145 2807.5 1181.0Q2749 1217 2680.0 1236.5Q2611 1256 2543 1256Q2471 1256 2409.5 1231.5Q2348 1207 2310.5 1154.5Q2273 1102 2273 1017Q2273 1009 2273.0 1001.0Q2273 993 2274 985Q2280 921 2310.5 853.0Q2341 785 2393.5 723.0Q2446 661 2517.5 612.0Q2589 563 2676.0 534.0Q2763 505 2863 505Q2929 505 2960.5 529.0Q2992 553 2992 585Q2992 610 2973.0 636.5Q2954 663 2918 683Q2878 705 2830.5 717.5Q2783 730 2739.0 735.5Q2695 741 2666 744H2665Q2662 744 2662 741Q2662 736 2669 735Q2735 728 2798.0 708.5Q2861 689 2906 662Q2931 647 2946.0 625.0Q2961 603 2961 581Q2961 556 2936.5 537.5Q2912 519 2855 519Q2768 519 2692.5 547.5Q2617 576 2555.5 624.5Q2494 673 2448.5 734.5Q2403 796 2376.5 862.5Q2350 929 2344 992Q2343 1002 2342.5 1011.0Q2342 1020 2342 1029Q2342 1106 2371.0 1154.0Q2400 1202 2448.0 1223.5Q2496 1245 2553 1245Q2612 1245 2672.0 1225.0Q2732 1205 2784.0 1169.5Q2836 1134 2869.5 1086.0Q2903 1038 2907 983Q2911 942 2885.5 917.5Q2860 893 2801 898Q2722 905 2657.0 938.5Q2592 972 2546.5 1016.0Q2501 1060 2479 1102ZM3183 1207Q3151 1207 3139.0 1186.5Q3127 1166 3127 1141Q3127 1136 3128.5 1123.5Q3130 1111 3132 1100Q3118 1119 3098.5 1142.0Q3079 1165 3059 1181Q3027 1207 3001 1207Q2976 1207 2962.5 1186.0Q2949 1165 2949 1133Q2949 1092 2967.0 1050.0Q2985 1008 3014.5 970.5Q3044 933 3080 906Q3101 891 3131.5 881.5Q3162 872 3193 872Q3228 872 3254.5 882.5Q3281 893 3291 912Q3270 939 3248.0 978.5Q3226 1018 3210 1050Q3199 1072 3186.0 1104.5Q3173 1137 3173 1160Q3173 1170 3178.0 1180.0Q3183 1190 3197 1190Q3213 1190 3228.0 1178.0Q3243 1166 3253 1154Q3276 1129 3295.0 1099.0Q3314 1069 3333 1035Q3336 1031 3339 1031Q3343 1031 3343 1037Q3343 1042 3341 1045Q3324 1078 3303.0 1111.0Q3282 1144 3253 1173Q3239 1187 3220.0 1197.0Q3201 1207 3183 1207ZM3023 1176Q3042 1176 3064.5 1155.5Q3087 1135 3108.5 1105.5Q3130 1076 3147.5 1048.5Q3165 1021 3175 1006Q3196 973 3214.0 951.0Q3232 929 3270 917Q3272 917 3273.5 916.5Q3275 916 3277 916Q3268 902 3247.0 895.0Q3226 888 3206 888Q3175 888 3146.0 905.0Q3117 922 3093 948Q3070 975 3048.0 1007.0Q3026 1039 3012.5 1072.0Q2999 1105 2999 1135Q2999 1151 3004.5 1163.5Q3010 1176 3023 1176ZM3472 1207Q3436 1207 3419.5 1189.5Q3403 1172 3403 1147Q3403 1127 3412 1106Q3424 1075 3442.5 1049.0Q3461 1023 3481.0 996.5Q3501 970 3516 939Q3522 927 3522 917Q3522 904 3513.5 897.5Q3505 891 3496 891Q3484 891 3469.0 897.0Q3454 903 3439 911Q3425 919 3412.0 928.0Q3399 937 3390 938Q3387 949 3377.0 972.5Q3367 996 3353.0 1023.5Q3339 1051 3324 1075Q3320 1081 3317 1081Q3314 1081 3314 1075Q3314 1068 3317 1064Q3337 1028 3352.0 995.0Q3367 962 3375 937Q3362 936 3357.5 929.0Q3353 922 3353 912Q3353 901 3357.5 888.5Q3362 876 3365 869Q3381 877 3400.5 880.0Q3420 883 3439 883Q3462 883 3484.0 881.0Q3506 879 3524 879Q3545 879 3552.5 889.0Q3560 899 3560 914Q3560 930 3553.5 948.5Q3547 967 3541 979Q3530 1001 3512.5 1026.5Q3495 1052 3480.0 1079.0Q3465 1106 3459 1131Q3456 1144 3456 1154Q3456 1173 3464.5 1181.0Q3473 1189 3485 1189Q3502 1189 3521.0 1178.5Q3540 1168 3551 1155Q3574 1130 3593.0 1099.0Q3612 1068 3631 1034Q3633 1031 3635 1031Q3639 1031 3639 1039Q3639 1045 3636 1050Q3618 1083 3599.0 1114.5Q3580 1146 3551 1175Q3537 1189 3517.0 1198.0Q3497 1207 3472 1207ZM3676 1206Q3640 1206 3626.0 1185.0Q3612 1164 3612 1132Q3612 1099 3622.5 1060.0Q3633 1021 3647.5 984.0Q3662 947 3675.5 919.0Q3689 891 3694 880Q3712 842 3738.5 794.0Q3765 746 3798.5 696.0Q3832 646 3869.5 601.0Q3907 556 3947.5 523.0Q3988 490 4028 478Q4039 475 4048 475Q4065 475 4076.5 484.5Q4088 494 4088 517Q4088 533 4080 557Q4067 592 4036.0 634.5Q4005 677 3963.0 722.5Q3921 768 3874.5 812.0Q3828 856 3784.0 894.0Q3740 932 3706 959Q3697 978 3689.5 996.0Q3682 1014 3676 1031Q3673 1040 3667.0 1058.0Q3661 1076 3656.0 1098.0Q3651 1120 3651 1140Q3651 1160 3659.0 1174.5Q3667 1189 3688 1189Q3705 1189 3719.5 1178.0Q3734 1167 3746 1154Q3788 1106 3821 1043Q3825 1036 3827 1036Q3829 1036 3829 1042Q3829 1051 3825 1061Q3806 1096 3790.5 1120.0Q3775 1144 3746 1173Q3733 1186 3715.5 1196.0Q3698 1206 3676 1206ZM3717 936Q3748 909 3789.0 871.5Q3830 834 3873.0 791.0Q3916 748 3954.5 705.0Q3993 662 4021.5 624.0Q4050 586 4060 558Q4069 532 4069 518Q4069 492 4046 492Q4033 492 4015.0 501.5Q3997 511 3982 526Q3957 550 3923.5 594.5Q3890 639 3853.0 696.0Q3816 753 3780.5 815.0Q3745 877 3717 936ZM3901 1220Q3863 1220 3835.5 1195.5Q3808 1171 3808 1120Q3808 1088 3819.5 1053.5Q3831 1019 3845 992Q3871 943 3910.5 906.5Q3950 870 4005 870Q4058 870 4079.0 899.0Q4100 928 4100 970Q4100 987 4097 1005Q4089 1054 4064 1100Q4071 1110 4082.5 1116.5Q4094 1123 4108 1123Q4132 1123 4149.0 1110.0Q4166 1097 4178.5 1077.5Q4191 1058 4200 1041Q4206 1030 4211 1030Q4214 1030 4214 1034Q4214 1038 4208 1052Q4191 1086 4168.0 1111.0Q4145 1136 4108 1136Q4074 1136 4056 1112Q4028 1158 3988.0 1189.0Q3948 1220 3901 1220ZM3903 1208Q3952 1208 4000 1160Q4014 1146 4025.5 1130.5Q4037 1115 4046 1099Q4033 1084 4027.5 1066.5Q4022 1049 4022 1033Q4022 1008 4031.0 988.5Q4040 969 4056 969Q4064 969 4071.5 977.0Q4079 985 4081 1002Q4084 988 4084 972Q4084 934 4070.0 911.5Q4056 889 4023 889Q4003 889 3982.0 904.5Q3961 920 3942.5 942.0Q3924 964 3910.0 987.0Q3896 1010 3889 1025Q3872 1062 3864.5 1091.0Q3857 1120 3857 1142Q3857 1174 3870.5 1191.0Q3884 1208 3903 1208Z" fill="currentColor" /></svg>