<svg viewBox="0 0 10440 1219" xmlns="http://www.w3.org/2000/svg"><path d="M133 968V268H150L483 850H474L806 268H823V968H803V297H811L484 869H472L144 297H153V968ZM-2 971V952H153V971ZM803 971V952H958V971ZM1261 971Q1189 971 1132.5 937.5Q1076 904 1043.0 844.5Q1010 785 1010 709Q1010 632 1043.0 573.5Q1076 515 1132.5 481.5Q1189 448 1261 448Q1333 448 1390.0 481.5Q1447 515 1479.5 573.5Q1512 632 1512 709Q1512 785 1479.5 844.5Q1447 904 1390.0 937.5Q1333 971 1261 971ZM954 971V952H1568V971ZM1261 952Q1327 952 1379.5 921.0Q1432 890 1462.0 835.0Q1492 780 1492 709Q1492 637 1462.0 582.5Q1432 528 1379.5 497.5Q1327 467 1261 467Q1195 467 1143.0 497.5Q1091 528 1060.5 582.5Q1030 637 1030 709Q1030 780 1060.5 835.0Q1091 890 1143.0 921.0Q1195 952 1261 952ZM1918 448Q1982 448 2028.0 472.5Q2074 497 2099.5 545.0Q2125 593 2125 663V968H2105V663Q2105 567 2056.0 517.0Q2007 467 1919 467Q1851 467 1802.0 494.5Q1753 522 1727.0 571.5Q1701 621 1701 687V968H1681V451H1701V598L1699 595Q1722 527 1778.0 487.5Q1834 448 1918 448ZM2105 952H2236V971H2105ZM1564 952H1701V971H1564ZM2483 971Q2422 971 2390.0 936.0Q2358 901 2358 844V338H2378V839Q2378 894 2405.0 923.0Q2432 952 2484 952Q2536 952 2570 920L2584 934Q2566 953 2538.5 962.0Q2511 971 2483 971ZM2232 971V952H2615V971ZM2258 470V451H2553V470ZM2847 971Q2784 971 2729.0 951.0Q2674 931 2645 900L2657 884Q2685 911 2735.0 931.5Q2785 952 2847 952Q2939 952 2979.0 920.0Q3019 888 3019 837Q3019 800 3000.0 778.5Q2981 757 2949.5 745.5Q2918 734 2880.0 727.0Q2842 720 2804.0 712.0Q2766 704 2734.5 689.5Q2703 675 2684.0 649.5Q2665 624 2665 581Q2665 546 2684.0 516.0Q2703 486 2743.5 467.0Q2784 448 2848 448Q2896 448 2943.0 462.5Q2990 477 3019 501L3007 517Q2976 492 2934.0 479.5Q2892 467 2848 467Q2763 467 2724.5 500.0Q2686 533 2686 581Q2686 619 2705.0 641.5Q2724 664 2755.5 676.0Q2787 688 2825.0 695.0Q2863 702 2900.5 710.0Q2938 718 2969.5 732.0Q3001 746 3020.0 770.5Q3039 795 3039 837Q3039 876 3018.0 906.5Q2997 937 2954.5 954.0Q2912 971 2847 971ZM2611 952H3078V971H2611ZM3388 971Q3313 971 3255.0 937.5Q3197 904 3163.5 844.5Q3130 785 3130 709Q3130 632 3161.0 573.5Q3192 515 3246.5 481.5Q3301 448 3369 448Q3437 448 3491.5 480.5Q3546 513 3577.5 571.0Q3609 629 3609 704Q3609 705 3609.0 706.0Q3609 707 3609 709H3141V690H3598L3590 705Q3590 637 3561.0 583.0Q3532 529 3482.5 498.0Q3433 467 3369 467Q3306 467 3256.0 498.0Q3206 529 3177.5 583.0Q3149 637 3149 705V709Q3149 780 3180.0 835.0Q3211 890 3265.0 921.0Q3319 952 3388 952Q3440 952 3486.5 932.0Q3533 912 3564 872L3578 886Q3544 928 3494.0 949.5Q3444 971 3388 971ZM3074 952H3665V971H3074ZM3778 968V451H3798V594L3796 591Q3817 523 3869.5 485.5Q3922 448 4001 448V468Q4000 468 3998.5 468.0Q3997 468 3995 468Q3902 468 3850.0 527.5Q3798 587 3798 690V968ZM3661 952H4048V971H3661ZM4151 968V451H4171V594L4169 591Q4190 523 4242.5 485.5Q4295 448 4374 448V468Q4373 468 4371.5 468.0Q4370 468 4368 468Q4275 468 4223.0 527.5Q4171 587 4171 690V968ZM4034 952H4421V971H4034ZM4829 968V845V828V630Q4829 549 4787.0 508.0Q4745 467 4665 467Q4607 467 4559.0 487.0Q4511 507 4477 539L4463 525Q4500 490 4553.0 469.0Q4606 448 4664 448Q4754 448 4801.5 494.0Q4849 540 4849 629V968ZM4632 971Q4574 971 4533.0 953.0Q4492 935 4470.5 902.0Q4449 869 4449 826Q4449 789 4466.5 757.5Q4484 726 4524.0 706.5Q4564 687 4633 687H4840V706H4632Q4544 706 4506.5 739.5Q4469 773 4469 825Q4469 883 4512.0 917.5Q4555 952 4632 952Q4707 952 4755.5 917.5Q4804 883 4829 820L4839 833Q4818 895 4765.5 933.0Q4713 971 4632 971ZM4382 952H4632V971H4382ZM4829 952H4960V971H4829ZM5207 971Q5146 971 5114.0 936.0Q5082 901 5082 844V338H5102V839Q5102 894 5129.0 923.0Q5156 952 5208 952Q5260 952 5294 920L5308 934Q5290 953 5262.5 962.0Q5235 971 5207 971ZM4956 971V952H5339V971ZM4982 470V451H5277V470ZM5335 952H5594V971H5335ZM5989 971Q5864 971 5791.5 897.0Q5719 823 5719 675V268H5739V674Q5739 814 5804.5 883.0Q5870 952 5989 952Q6108 952 6173.5 883.0Q6239 814 6239 674V268H6259V675Q6259 823 6186.5 897.0Q6114 971 5989 971ZM5590 971V952H6388V971ZM6738 448Q6802 448 6848.0 472.5Q6894 497 6919.5 545.0Q6945 593 6945 663V968H6925V663Q6925 567 6876.0 517.0Q6827 467 6739 467Q6671 467 6622.0 494.5Q6573 522 6547.0 571.5Q6521 621 6521 687V968H6501V451H6521V598L6519 595Q6542 527 6598.0 487.5Q6654 448 6738 448ZM6925 952H7056V971H6925ZM6384 952H6521V971H6384ZM7052 971V952H7357V971ZM7590 971V952H7727V971ZM7590 968V773L7596 709L7590 635V226H7610V968ZM7357 971Q7285 971 7227.5 937.5Q7170 904 7137.0 844.5Q7104 785 7104 709Q7104 632 7137.0 573.5Q7170 515 7227.5 481.5Q7285 448 7357 448Q7429 448 7485.5 481.5Q7542 515 7574.5 573.5Q7607 632 7607 709Q7607 785 7574.5 844.5Q7542 904 7485.5 937.5Q7429 971 7357 971ZM7357 952Q7425 952 7477.5 921.0Q7530 890 7560.0 835.0Q7590 780 7590 709Q7590 637 7560.0 582.5Q7530 528 7477.5 497.5Q7425 467 7357 467Q7290 467 7237.0 497.5Q7184 528 7154.0 582.5Q7124 637 7124 709Q7124 780 7154.0 835.0Q7184 890 7237.0 921.0Q7290 952 7357 952ZM8037 971Q7962 971 7904.0 937.5Q7846 904 7812.5 844.5Q7779 785 7779 709Q7779 632 7810.0 573.5Q7841 515 7895.5 481.5Q7950 448 8018 448Q8086 448 8140.5 480.5Q8195 513 8226.5 571.0Q8258 629 8258 704Q8258 705 8258.0 706.0Q8258 707 8258 709H7790V690H8247L8239 705Q8239 637 8210.0 583.0Q8181 529 8131.5 498.0Q8082 467 8018 467Q7955 467 7905.0 498.0Q7855 529 7826.5 583.0Q7798 637 7798 705V709Q7798 780 7829.0 835.0Q7860 890 7914.0 921.0Q7968 952 8037 952Q8089 952 8135.5 932.0Q8182 912 8213 872L8227 886Q8193 928 8143.0 949.5Q8093 971 8037 971ZM7723 952H8314V971H7723ZM8427 968V451H8447V594L8445 591Q8466 523 8518.5 485.5Q8571 448 8650 448V468Q8649 468 8647.5 468.0Q8646 468 8644 468Q8551 468 8499.0 527.5Q8447 587 8447 690V968ZM8310 952H8697V971H8310ZM8800 968V226H8820V968ZM8683 971V952H8937V971ZM9050 968V451H9070V968ZM8933 952H9187V971H8933ZM9060 308Q9050 308 9042.0 300.0Q9034 292 9034 282Q9034 271 9042.0 263.5Q9050 256 9060 256Q9071 256 9078.5 263.5Q9086 271 9086 282Q9086 292 9078.5 300.0Q9071 308 9060 308ZM9537 448Q9601 448 9647.0 472.5Q9693 497 9718.5 545.0Q9744 593 9744 663V968H9724V663Q9724 567 9675.0 517.0Q9626 467 9538 467Q9470 467 9421.0 494.5Q9372 522 9346.0 571.5Q9320 621 9320 687V968H9300V451H9320V598L9318 595Q9341 527 9397.0 487.5Q9453 448 9537 448ZM9724 952H9855V971H9724ZM9183 952H9320V971H9183ZM10165 971Q10090 971 10032.0 937.5Q9974 904 9940.5 844.5Q9907 785 9907 709Q9907 632 9938.0 573.5Q9969 515 10023.5 481.5Q10078 448 10146 448Q10214 448 10268.5 480.5Q10323 513 10354.5 571.0Q10386 629 10386 704Q10386 705 10386.0 706.0Q10386 707 10386 709H9918V690H10375L10367 705Q10367 637 10338.0 583.0Q10309 529 10259.5 498.0Q10210 467 10146 467Q10083 467 10033.0 498.0Q9983 529 9954.5 583.0Q9926 637 9926 705V709Q9926 780 9957.0 835.0Q9988 890 10042.0 921.0Q10096 952 10165 952Q10217 952 10263.5 932.0Q10310 912 10341 872L10355 886Q10321 928 10271.0 949.5Q10221 971 10165 971ZM9851 952H10442V971H9851Z" fill="currentColor" /></svg>