<svg viewBox="0 0 10444 745" xmlns="http://www.w3.org/2000/svg"><path d="M135 742V42H152L485 624H476L808 42H825V742H805V71H813L486 643H474L146 71H155V742ZM0 745V726H155V745ZM805 745V726H960V745ZM1263 745Q1191 745 1134.5 711.5Q1078 678 1045.0 618.5Q1012 559 1012 483Q1012 406 1045.0 347.5Q1078 289 1134.5 255.5Q1191 222 1263 222Q1335 222 1392.0 255.5Q1449 289 1481.5 347.5Q1514 406 1514 483Q1514 559 1481.5 618.5Q1449 678 1392.0 711.5Q1335 745 1263 745ZM956 745V726H1570V745ZM1263 726Q1329 726 1381.5 695.0Q1434 664 1464.0 609.0Q1494 554 1494 483Q1494 411 1464.0 356.5Q1434 302 1381.5 271.5Q1329 241 1263 241Q1197 241 1145.0 271.5Q1093 302 1062.5 356.5Q1032 411 1032 483Q1032 554 1062.5 609.0Q1093 664 1145.0 695.0Q1197 726 1263 726ZM1920 222Q1984 222 2030.0 246.5Q2076 271 2101.5 319.0Q2127 367 2127 437V742H2107V437Q2107 341 2058.0 291.0Q2009 241 1921 241Q1853 241 1804.0 268.5Q1755 296 1729.0 345.5Q1703 395 1703 461V742H1683V225H1703V372L1701 369Q1724 301 1780.0 261.5Q1836 222 1920 222ZM2107 726H2238V745H2107ZM1566 726H1703V745H1566ZM2485 745Q2424 745 2392.0 710.0Q2360 675 2360 618V112H2380V613Q2380 668 2407.0 697.0Q2434 726 2486 726Q2538 726 2572 694L2586 708Q2568 727 2540.5 736.0Q2513 745 2485 745ZM2234 745V726H2617V745ZM2260 244V225H2555V244ZM2849 745Q2786 745 2731.0 725.0Q2676 705 2647 674L2659 658Q2687 685 2737.0 705.5Q2787 726 2849 726Q2941 726 2981.0 694.0Q3021 662 3021 611Q3021 574 3002.0 552.5Q2983 531 2951.5 519.5Q2920 508 2882.0 501.0Q2844 494 2806.0 486.0Q2768 478 2736.5 463.5Q2705 449 2686.0 423.5Q2667 398 2667 355Q2667 320 2686.0 290.0Q2705 260 2745.5 241.0Q2786 222 2850 222Q2898 222 2945.0 236.5Q2992 251 3021 275L3009 291Q2978 266 2936.0 253.5Q2894 241 2850 241Q2765 241 2726.5 274.0Q2688 307 2688 355Q2688 393 2707.0 415.5Q2726 438 2757.5 450.0Q2789 462 2827.0 469.0Q2865 476 2902.5 484.0Q2940 492 2971.5 506.0Q3003 520 3022.0 544.5Q3041 569 3041 611Q3041 650 3020.0 680.5Q2999 711 2956.5 728.0Q2914 745 2849 745ZM2613 726H3080V745H2613ZM3390 745Q3315 745 3257.0 711.5Q3199 678 3165.5 618.5Q3132 559 3132 483Q3132 406 3163.0 347.5Q3194 289 3248.5 255.5Q3303 222 3371 222Q3439 222 3493.5 254.5Q3548 287 3579.5 345.0Q3611 403 3611 478Q3611 479 3611.0 480.0Q3611 481 3611 483H3143V464H3600L3592 479Q3592 411 3563.0 357.0Q3534 303 3484.5 272.0Q3435 241 3371 241Q3308 241 3258.0 272.0Q3208 303 3179.5 357.0Q3151 411 3151 479V483Q3151 554 3182.0 609.0Q3213 664 3267.0 695.0Q3321 726 3390 726Q3442 726 3488.5 706.0Q3535 686 3566 646L3580 660Q3546 702 3496.0 723.5Q3446 745 3390 745ZM3076 726H3667V745H3076ZM3780 742V225H3800V368L3798 365Q3819 297 3871.5 259.5Q3924 222 4003 222V242Q4002 242 4000.5 242.0Q3999 242 3997 242Q3904 242 3852.0 301.5Q3800 361 3800 464V742ZM3663 726H4050V745H3663ZM4153 742V225H4173V368L4171 365Q4192 297 4244.5 259.5Q4297 222 4376 222V242Q4375 242 4373.5 242.0Q4372 242 4370 242Q4277 242 4225.0 301.5Q4173 361 4173 464V742ZM4036 726H4423V745H4036ZM4831 742V619V602V404Q4831 323 4789.0 282.0Q4747 241 4667 241Q4609 241 4561.0 261.0Q4513 281 4479 313L4465 299Q4502 264 4555.0 243.0Q4608 222 4666 222Q4756 222 4803.5 268.0Q4851 314 4851 403V742ZM4634 745Q4576 745 4535.0 727.0Q4494 709 4472.5 676.0Q4451 643 4451 600Q4451 563 4468.5 531.5Q4486 500 4526.0 480.5Q4566 461 4635 461H4842V480H4634Q4546 480 4508.5 513.5Q4471 547 4471 599Q4471 657 4514.0 691.5Q4557 726 4634 726Q4709 726 4757.5 691.5Q4806 657 4831 594L4841 607Q4820 669 4767.5 707.0Q4715 745 4634 745ZM4384 726H4634V745H4384ZM4831 726H4962V745H4831ZM5209 745Q5148 745 5116.0 710.0Q5084 675 5084 618V112H5104V613Q5104 668 5131.0 697.0Q5158 726 5210 726Q5262 726 5296 694L5310 708Q5292 727 5264.5 736.0Q5237 745 5209 745ZM4958 745V726H5341V745ZM4984 244V225H5279V244ZM5337 726H5596V745H5337ZM5991 745Q5866 745 5793.5 671.0Q5721 597 5721 449V42H5741V448Q5741 588 5806.5 657.0Q5872 726 5991 726Q6110 726 6175.5 657.0Q6241 588 6241 448V42H6261V449Q6261 597 6188.5 671.0Q6116 745 5991 745ZM5592 745V726H6390V745ZM6740 222Q6804 222 6850.0 246.5Q6896 271 6921.5 319.0Q6947 367 6947 437V742H6927V437Q6927 341 6878.0 291.0Q6829 241 6741 241Q6673 241 6624.0 268.5Q6575 296 6549.0 345.5Q6523 395 6523 461V742H6503V225H6523V372L6521 369Q6544 301 6600.0 261.5Q6656 222 6740 222ZM6927 726H7058V745H6927ZM6386 726H6523V745H6386ZM7054 745V726H7359V745ZM7592 745V726H7729V745ZM7592 742V547L7598 483L7592 409V0H7612V742ZM7359 745Q7287 745 7229.5 711.5Q7172 678 7139.0 618.5Q7106 559 7106 483Q7106 406 7139.0 347.5Q7172 289 7229.5 255.5Q7287 222 7359 222Q7431 222 7487.5 255.5Q7544 289 7576.5 347.5Q7609 406 7609 483Q7609 559 7576.5 618.5Q7544 678 7487.5 711.5Q7431 745 7359 745ZM7359 726Q7427 726 7479.5 695.0Q7532 664 7562.0 609.0Q7592 554 7592 483Q7592 411 7562.0 356.5Q7532 302 7479.5 271.5Q7427 241 7359 241Q7292 241 7239.0 271.5Q7186 302 7156.0 356.5Q7126 411 7126 483Q7126 554 7156.0 609.0Q7186 664 7239.0 695.0Q7292 726 7359 726ZM8039 745Q7964 745 7906.0 711.5Q7848 678 7814.5 618.5Q7781 559 7781 483Q7781 406 7812.0 347.5Q7843 289 7897.5 255.5Q7952 222 8020 222Q8088 222 8142.5 254.5Q8197 287 8228.5 345.0Q8260 403 8260 478Q8260 479 8260.0 480.0Q8260 481 8260 483H7792V464H8249L8241 479Q8241 411 8212.0 357.0Q8183 303 8133.5 272.0Q8084 241 8020 241Q7957 241 7907.0 272.0Q7857 303 7828.5 357.0Q7800 411 7800 479V483Q7800 554 7831.0 609.0Q7862 664 7916.0 695.0Q7970 726 8039 726Q8091 726 8137.5 706.0Q8184 686 8215 646L8229 660Q8195 702 8145.0 723.5Q8095 745 8039 745ZM7725 726H8316V745H7725ZM8429 742V225H8449V368L8447 365Q8468 297 8520.5 259.5Q8573 222 8652 222V242Q8651 242 8649.5 242.0Q8648 242 8646 242Q8553 242 8501.0 301.5Q8449 361 8449 464V742ZM8312 726H8699V745H8312ZM8802 742V0H8822V742ZM8685 745V726H8939V745ZM9052 742V225H9072V742ZM8935 726H9189V745H8935ZM9062 82Q9052 82 9044.0 74.0Q9036 66 9036 56Q9036 45 9044.0 37.5Q9052 30 9062 30Q9073 30 9080.5 37.5Q9088 45 9088 56Q9088 66 9080.5 74.0Q9073 82 9062 82ZM9539 222Q9603 222 9649.0 246.5Q9695 271 9720.5 319.0Q9746 367 9746 437V742H9726V437Q9726 341 9677.0 291.0Q9628 241 9540 241Q9472 241 9423.0 268.5Q9374 296 9348.0 345.5Q9322 395 9322 461V742H9302V225H9322V372L9320 369Q9343 301 9399.0 261.5Q9455 222 9539 222ZM9726 726H9857V745H9726ZM9185 726H9322V745H9185ZM10167 745Q10092 745 10034.0 711.5Q9976 678 9942.5 618.5Q9909 559 9909 483Q9909 406 9940.0 347.5Q9971 289 10025.5 255.5Q10080 222 10148 222Q10216 222 10270.5 254.5Q10325 287 10356.5 345.0Q10388 403 10388 478Q10388 479 10388.0 480.0Q10388 481 10388 483H9920V464H10377L10369 479Q10369 411 10340.0 357.0Q10311 303 10261.5 272.0Q10212 241 10148 241Q10085 241 10035.0 272.0Q9985 303 9956.5 357.0Q9928 411 9928 479V483Q9928 554 9959.0 609.0Q9990 664 10044.0 695.0Q10098 726 10167 726Q10219 726 10265.5 706.0Q10312 686 10343 646L10357 660Q10323 702 10273.0 723.5Q10223 745 10167 745ZM9853 726H10444V745H9853Z" fill="currentColor" /></svg>