<svg viewBox="0 0 3832 948" xmlns="http://www.w3.org/2000/svg"><path d="M450 690Q449 690 445.0 690.0Q441 690 414 710L184 108L136 632Q134 648 151.0 659.0Q168 670 198 670H240V700H0V670H32Q90 670 94 626L144 74Q146 55 130.5 42.5Q115 30 82 30H50V0H238L452 564L668 0H848V28H808Q760 28 760 65Q760 68 760 72L806 626Q808 649 817.5 659.5Q827 670 852 670H892V700H636V670H670Q698 670 708.0 661.0Q718 652 718.0 641.5Q718 631 718 626L674 102ZM1144 714Q1056 714 997.0 648.0Q938 582 938 494Q938 382 1022.5 301.0Q1107 220 1201.0 220.0Q1295 220 1352.5 286.5Q1410 353 1410 440Q1410 549 1329.5 631.5Q1249 714 1144 714ZM1342 494Q1342 409 1289.5 345.5Q1237 282 1162.0 282.0Q1087 282 1047.5 332.5Q1008 383 1008 440Q1008 533 1064.5 594.5Q1121 656 1191.5 656.0Q1262 656 1302.0 603.0Q1342 550 1342 494ZM1988 700H1816V672H1820Q1831 672 1838.5 661.0Q1846 650 1846 634V380Q1846 335 1824.5 311.5Q1803 288 1764 288Q1708 288 1665.0 348.0Q1622 408 1622 438V628Q1622 644 1623.5 651.0Q1625 658 1635.0 665.0Q1645 672 1666 672H1684V700H1482V672H1498Q1525 672 1532.5 663.0Q1540 654 1540 634V334Q1540 315 1527.5 306.5Q1515 298 1482 298V270Q1502 270 1542.5 255.5Q1583 241 1604 228L1622 224V352Q1645 289 1693.0 254.5Q1741 220 1810 220Q1846 220 1871.0 236.0Q1896 252 1907 277Q1926 320 1926 362V632Q1926 646 1928 653Q1933 672 1970 672H1988ZM2345 638 2353 662Q2278 714 2189 714Q2157 714 2134.0 691.0Q2111 668 2111 630V276H2053V234H2075Q2108 234 2136.5 194.0Q2165 154 2165 120H2191V234H2327V276H2229Q2191 276 2191 312V598Q2191 664 2239 664Q2293 664 2345 638ZM2838 700H2694V620Q2644 674 2611.0 694.0Q2578 714 2521.5 714.0Q2465 714 2433.5 687.5Q2402 661 2402.0 613.0Q2402 565 2443.5 519.5Q2485 474 2540.5 450.5Q2596 427 2638.0 414.5Q2680 402 2694 402V380Q2694 286 2616 286Q2562 286 2515.5 309.0Q2469 332 2446 368L2426 350Q2493 220 2658 220Q2700 220 2727.5 242.5Q2755 265 2764.5 295.0Q2774 325 2774 362V632Q2774 645 2776.0 652.0Q2778 659 2788.5 665.5Q2799 672 2820 672H2838ZM2694 564V442Q2616 457 2549.0 502.0Q2482 547 2482 600Q2482 621 2502.5 636.5Q2523 652 2553.5 652.0Q2584 652 2626.0 624.5Q2668 597 2694 564ZM3053 648 3153 644Q3267 644 3311.0 668.5Q3355 693 3355.0 747.0Q3355 801 3324.0 841.0Q3293 881 3243 904Q3144 948 3031 948Q2965 948 2924.0 916.5Q2883 885 2883 838Q2883 728 2977 696Q2954 696 2939.5 686.0Q2925 676 2925.0 663.5Q2925 651 2929.0 639.0Q2933 627 2942.0 614.5Q2951 602 2957.5 594.5Q2964 587 2979 572L2999 552Q2945 504 2945.0 421.5Q2945 339 3007.0 278.5Q3069 218 3143 218Q3189 218 3225 244Q3267 196 3365 196L3355 282Q3349 273 3334.0 264.5Q3319 256 3311 256Q3284 256 3255 274Q3293 318 3293 380Q3293 458 3233.0 519.0Q3173 580 3097 580Q3058 580 3033 566Q2991 616 2991 628Q2991 648 3053 648ZM3103 698H3033Q3002 717 2992.0 727.0Q2982 737 2975.0 746.0Q2968 755 2963 764Q2953 785 2953.0 811.0Q2953 837 2977 856Q3018 886 3091.5 886.0Q3165 886 3228.0 861.0Q3291 836 3291.0 792.0Q3291 748 3240.0 723.0Q3189 698 3103 698ZM3009.0 386.5Q3009 440 3046.5 481.0Q3084 522 3131.0 522.0Q3178 522 3203.5 492.5Q3229 463 3229.0 413.5Q3229 364 3192.5 320.0Q3156 276 3107.0 276.0Q3058 276 3033.5 304.5Q3009 333 3009.0 386.5ZM3832 700H3688V620Q3638 674 3605.0 694.0Q3572 714 3515.5 714.0Q3459 714 3427.5 687.5Q3396 661 3396.0 613.0Q3396 565 3437.5 519.5Q3479 474 3534.5 450.5Q3590 427 3632.0 414.5Q3674 402 3688 402V380Q3688 286 3610 286Q3556 286 3509.5 309.0Q3463 332 3440 368L3420 350Q3487 220 3652 220Q3694 220 3721.5 242.5Q3749 265 3758.5 295.0Q3768 325 3768 362V632Q3768 645 3770.0 652.0Q3772 659 3782.5 665.5Q3793 672 3814 672H3832ZM3688 564V442Q3610 457 3543.0 502.0Q3476 547 3476 600Q3476 621 3496.5 636.5Q3517 652 3547.5 652.0Q3578 652 3620.0 624.5Q3662 597 3688 564Z" fill="currentColor" /></svg>