<svg viewBox="0 0 5335 741.45" xmlns="http://www.w3.org/2000/svg"><path d="M25 734.45Q1 734.45 0 712.45V709.45Q0 704.45 1.5 698.45Q3 692.45 4 685.45Q11 659.45 14.0 623.95Q17 588.45 18 542.45Q19 488.45000000000005 22.0 452.45000000000005Q25 416.45000000000005 27 397.45000000000005Q30 372.45000000000005 33.0 340.45000000000005Q36 308.45000000000005 38 270.45000000000005Q42 208.45000000000005 44.5 175.95000000000005Q47 143.45000000000005 47 142.45000000000005Q49 124.45000000000005 50.0 113.45000000000005Q51 102.45000000000005 52 98.45000000000005Q54 85.45000000000005 66.0 79.95000000000005Q78 74.45000000000005 93 74.45000000000005Q108 74.45000000000005 131.5 75.45000000000005Q155 76.45000000000005 177.5 76.95000000000005Q200 77.45000000000005 210 77.45000000000005Q220 76.45000000000005 236.5 71.95000000000005Q253 67.45000000000005 269.5 62.950000000000045Q286 58.450000000000045 296 57.450000000000045H300Q316 57.450000000000045 317 69.45000000000005Q322 119.45000000000005 343.0 189.45000000000005Q364 259.45000000000005 404 348.45000000000005Q415 302.45000000000005 426.5 244.95000000000005Q438 187.45000000000005 451 117.45000000000005Q451 108.45000000000005 447.5 92.95000000000005Q444 77.45000000000005 444 73.45000000000005Q444 50.450000000000045 477 49.450000000000045Q479 49.450000000000045 490.0 50.450000000000045Q501 51.450000000000045 520 53.450000000000045Q558 58.450000000000045 582 56.450000000000045Q594 55.450000000000045 613.0 52.450000000000045Q632 49.450000000000045 651.5 45.950000000000045Q671 42.450000000000045 681 41.450000000000045Q699 38.450000000000045 705 76.45000000000005L709 128.45000000000005Q711 142.45000000000005 725.0 205.95000000000005Q739 269.45000000000005 765 380.45000000000005Q791 492.45000000000005 805.5 551.95Q820 611.45 823 618.45Q826 625.45 829.0 634.95Q832 644.45 836 657.45Q837 682.45 793 685.45L710 689.45Q682 690.45 660.5 692.45Q639 694.45 625 694.45Q608 694.45 603 667.45Q599 644.45 594.0 604.45Q589 564.45 584 508.45000000000005Q580 457.45000000000005 574.5 417.45000000000005Q569 377.45000000000005 564 349.45000000000005Q557 369.45000000000005 533 504.45000000000005Q522 568.45 515.5 606.45Q509 644.45 509 653.45Q509 657.45 509.5 660.45Q510 663.45 510 667.45Q510 711.45 471 713.45Q462 713.45 438.5 713.95Q415 714.45 392.0 714.45Q369 714.45 358 715.45Q350 716.45 336.5 691.45Q323 666.45 308.5 628.45Q294 590.45 280.5 548.95Q267 507.45000000000005 257.5 473.95000000000005Q248 440.45000000000005 245 425.45000000000005Q244 442.45000000000005 244.0 465.95000000000005Q244 489.45000000000005 244 518.45V571.45Q246 594.45 245 595.45Q242 602.45 239.5 606.45Q237 610.45 228 610.45Q199 610.45 199 553.45Q199 530.45 207 503.45000000000005Q219 459.45000000000005 219 393.45000000000005Q219 379.45000000000005 218.0 364.95000000000005Q217 350.45000000000005 217 334.45000000000005Q217 324.45000000000005 224.0 312.95000000000005Q231 301.45000000000005 240 300.45000000000005Q247 304.45000000000005 248 314.45000000000005Q249 320.45000000000005 248.0 333.95000000000005Q247 347.45000000000005 248 350.45000000000005Q249 358.45000000000005 263.5 396.45000000000005Q278 434.45000000000005 307 502.45000000000005Q319 490.45000000000005 338 488.45000000000005Q344 488.45000000000005 355.0 489.95000000000005Q366 491.45000000000005 372 491.45000000000005Q382 490.45000000000005 395.5 481.45000000000005Q409 472.45000000000005 419 471.45000000000005Q474 466.45000000000005 474 516.45Q474 542.45 437 547.45Q421 549.45 414 567.45Q409 580.45 404.0 588.95Q399 597.45 397 600.45Q390 609.45 376.5 611.95Q363 614.45 345 613.45Q362 667.45 432 663.45Q464 660.45 474 615.45L506 487.45000000000005Q515 450.45000000000005 521.0 417.95000000000005Q527 385.45000000000005 531 357.45000000000005Q505 349.45000000000005 487.0 327.45000000000005Q469 305.45000000000005 469 277.45000000000005Q469 254.45000000000005 480.5 239.45000000000005Q492 224.45000000000005 509.0 213.95000000000005Q526 203.45000000000005 542 192.45000000000005Q550 184.45000000000005 557.0 169.95000000000005Q564 155.45000000000005 571 136.45000000000005Q578 116.45000000000005 584.0 103.45000000000005Q590 90.45000000000005 597 83.45000000000005Q575 86.45000000000005 557.0 87.45000000000005Q539 88.45000000000005 525 88.45000000000005Q515 88.45000000000005 507.0 87.95000000000005Q499 87.45000000000005 492 86.45000000000005Q479 135.45000000000005 461.5 207.95000000000005Q444 280.45000000000005 421 378.45000000000005Q424 382.45000000000005 427.0 389.95000000000005Q430 397.45000000000005 434 407.45000000000005Q435 418.45000000000005 424.0 428.45000000000005Q413 438.45000000000005 402 438.45000000000005Q374 438.45000000000005 361 374.45000000000005Q340 355.45000000000005 331.0 334.45000000000005Q322 313.45000000000005 314 290.45000000000005Q302 257.45000000000005 264 242.45000000000005Q227 227.45000000000005 208 181.45000000000005Q195 149.45000000000005 172 151.45000000000005H168Q155 151.45000000000005 129 168.45000000000005Q103 185.45000000000005 81 185.45000000000005Q77 185.45000000000005 73.0 184.95000000000005Q69 184.45000000000005 65 183.45000000000005Q64 199.45000000000005 63.5 213.95000000000005Q63 228.45000000000005 64 240.45000000000005Q93 245.45000000000005 102 258.45000000000005Q114 278.45000000000005 119 281.45000000000005Q135 286.45000000000005 150.5 292.45000000000005Q166 298.45000000000005 166 326.45000000000005Q166 342.45000000000005 155.5 354.45000000000005Q145 366.45000000000005 128 368.45000000000005Q120 369.45000000000005 109.0 362.45000000000005Q98 355.45000000000005 87.0 347.45000000000005Q76 339.45000000000005 66 339.45000000000005Q67 349.45000000000005 67.5 361.95000000000005Q68 374.45000000000005 68 388.45000000000005Q68 402.45000000000005 67.5 417.95000000000005Q67 433.45000000000005 66 450.45000000000005Q87 438.45000000000005 107 438.45000000000005Q132 438.45000000000005 152.5 455.45000000000005Q173 472.45000000000005 176 497.45000000000005Q178 511.45000000000005 169.0 533.95Q160 556.45 160 570.45Q160 583.45 170.5 608.45Q181 633.45 180 657.45Q189 656.45 196.0 656.45Q203 656.45 208 656.45Q251 656.45 251 686.45Q251 721.45 164 729.45Q154 730.45 134.5 730.95Q115 731.45 92.5 732.45Q70 733.45 51.5 733.95Q33 734.45 25 734.45ZM794 627.45Q798 617.45 797 601.45Q795 575.45 789.5 543.45Q784 511.45000000000005 775 474.45000000000005L742 348.45000000000005L730 350.45000000000005Q719 351.45000000000005 705.0 347.95000000000005Q691 344.45000000000005 674 337.45000000000005Q641 323.45000000000005 623 323.45000000000005Q615 323.45000000000005 603.5 328.95000000000005Q592 334.45000000000005 578 348.45000000000005Q583 367.45000000000005 587.5 392.45000000000005Q592 417.45000000000005 595 448.45000000000005Q597 473.45000000000005 600.0 498.45000000000005Q603 523.45 605 549.45Q614 490.45000000000005 617 484.45000000000005Q625 468.45000000000005 639.0 459.45000000000005Q653 450.45000000000005 675 450.45000000000005Q696 450.45000000000005 710.5 465.45000000000005Q725 480.45000000000005 727 501.45000000000005Q727 510.45000000000005 726.0 528.95Q725 547.45 725 556.45Q728 594.45 742.0 607.95Q756 621.45 794 627.45ZM1099 733.45Q1018 733.45 938 678.45Q837 610.45 837 453.45000000000005Q837 398.45000000000005 856.5 347.45000000000005Q876 296.45000000000005 911.0 255.95000000000005Q946 215.45000000000005 994.5 191.95000000000005Q1043 168.45000000000005 1100 168.45000000000005Q1181 168.45000000000005 1234.0 202.95000000000005Q1287 237.45000000000005 1323 306.45000000000005Q1339 336.45000000000005 1347.5 370.95000000000005Q1356 405.45000000000005 1356 445.45000000000005Q1356 521.45 1326.0 587.45Q1296 653.45 1238.5 693.45Q1181 733.45 1099 733.45ZM1099 702.45Q1086 680.45 1086 646.45Q1086 600.45 1115 574.45Q1110 573.45 1106.0 573.45Q1102 573.45 1099 573.45Q1071 573.45 1048.5 555.45Q1026 537.45 1013.0 507.95000000000005Q1000 478.45000000000005 1000 444.45000000000005Q1000 440.45000000000005 991.0 435.95000000000005Q982 431.45000000000005 972.0 425.95000000000005Q962 420.45000000000005 959 414.45000000000005Q956 406.45000000000005 956 395.45000000000005Q956 360.45000000000005 976 328.45000000000005Q987 311.45000000000005 1029 311.45000000000005Q1039 311.45000000000005 1053.5 312.45000000000005Q1068 313.45000000000005 1081.5 314.45000000000005Q1095 315.45000000000005 1099 315.45000000000005Q1142 315.45000000000005 1170 355.45000000000005Q1168 326.45000000000005 1166.5 296.95000000000005Q1165 267.45000000000005 1163 238.45000000000005Q1156 199.45000000000005 1100 199.45000000000005Q1067 199.45000000000005 1042.0 221.45000000000005Q1017 243.45000000000005 992 266.45000000000005Q962 294.45000000000005 941.5 312.95000000000005Q921 331.45000000000005 913 342.45000000000005Q873 393.45000000000005 873 445.45000000000005Q873 459.45000000000005 880.0 479.45000000000005Q887 499.45000000000005 898.0 518.45Q909 537.45 921 548.45Q927 553.45 935.5 558.95Q944 564.45 955 568.45Q991 581.45 991 616.45Q991 621.45 989.5 630.95Q988 640.45 988 644.45Q988 659.45 1001.0 670.45Q1014 681.45 1032.5 688.45Q1051 695.45 1069.5 698.95Q1088 702.45 1099 702.45ZM1099 542.45Q1125 542.45 1145.5 514.95Q1166 487.45000000000005 1166 444.45000000000005Q1166 424.45000000000005 1159.0 401.95000000000005Q1152 379.45000000000005 1137.5 363.45000000000005Q1123 347.45000000000005 1099 347.45000000000005Q1076 347.45000000000005 1061.0 363.45000000000005Q1046 379.45000000000005 1039.0 401.95000000000005Q1032 424.45000000000005 1032 444.45000000000005Q1032 487.45000000000005 1052.5 514.95Q1073 542.45 1099 542.45ZM1246 638.45Q1247 638.45 1249 636.45Q1325 560.45 1325 445.45000000000005Q1325 443.45000000000005 1323 443.45000000000005Q1323 443.45000000000005 1294 461.45000000000005Q1264 480.45000000000005 1244 480.45000000000005Q1216 480.45000000000005 1197 449.45000000000005Q1198 466.45000000000005 1199.5 483.95000000000005Q1201 501.45000000000005 1201 518.45Q1201 546.45 1195 560.45Q1216 571.45 1229 604.45Q1242 638.45 1246 638.45ZM1636 733.45Q1555 733.45 1475 678.45Q1374 610.45 1374 453.45000000000005Q1374 398.45000000000005 1393.5 347.45000000000005Q1413 296.45000000000005 1448.0 255.95000000000005Q1483 215.45000000000005 1531.5 191.95000000000005Q1580 168.45000000000005 1637 168.45000000000005Q1718 168.45000000000005 1771.0 202.95000000000005Q1824 237.45000000000005 1860 306.45000000000005Q1876 336.45000000000005 1884.5 370.95000000000005Q1893 405.45000000000005 1893 445.45000000000005Q1893 521.45 1863.0 587.45Q1833 653.45 1775.5 693.45Q1718 733.45 1636 733.45ZM1636 702.45Q1623 680.45 1623 646.45Q1623 600.45 1652 574.45Q1647 573.45 1643.0 573.45Q1639 573.45 1636 573.45Q1608 573.45 1585.5 555.45Q1563 537.45 1550.0 507.95000000000005Q1537 478.45000000000005 1537 444.45000000000005Q1537 440.45000000000005 1528.0 435.95000000000005Q1519 431.45000000000005 1509.0 425.95000000000005Q1499 420.45000000000005 1496 414.45000000000005Q1493 406.45000000000005 1493 395.45000000000005Q1493 360.45000000000005 1513 328.45000000000005Q1524 311.45000000000005 1566 311.45000000000005Q1576 311.45000000000005 1590.5 312.45000000000005Q1605 313.45000000000005 1618.5 314.45000000000005Q1632 315.45000000000005 1636 315.45000000000005Q1679 315.45000000000005 1707 355.45000000000005Q1705 326.45000000000005 1703.5 296.95000000000005Q1702 267.45000000000005 1700 238.45000000000005Q1693 199.45000000000005 1637 199.45000000000005Q1604 199.45000000000005 1579.0 221.45000000000005Q1554 243.45000000000005 1529 266.45000000000005Q1499 294.45000000000005 1478.5 312.95000000000005Q1458 331.45000000000005 1450 342.45000000000005Q1410 393.45000000000005 1410 445.45000000000005Q1410 459.45000000000005 1417.0 479.45000000000005Q1424 499.45000000000005 1435.0 518.45Q1446 537.45 1458 548.45Q1464 553.45 1472.5 558.95Q1481 564.45 1492 568.45Q1528 581.45 1528 616.45Q1528 621.45 1526.5 630.95Q1525 640.45 1525 644.45Q1525 659.45 1538.0 670.45Q1551 681.45 1569.5 688.45Q1588 695.45 1606.5 698.95Q1625 702.45 1636 702.45ZM1636 542.45Q1662 542.45 1682.5 514.95Q1703 487.45000000000005 1703 444.45000000000005Q1703 424.45000000000005 1696.0 401.95000000000005Q1689 379.45000000000005 1674.5 363.45000000000005Q1660 347.45000000000005 1636 347.45000000000005Q1613 347.45000000000005 1598.0 363.45000000000005Q1583 379.45000000000005 1576.0 401.95000000000005Q1569 424.45000000000005 1569 444.45000000000005Q1569 487.45000000000005 1589.5 514.95Q1610 542.45 1636 542.45ZM1783 638.45Q1784 638.45 1786 636.45Q1862 560.45 1862 445.45000000000005Q1862 443.45000000000005 1860 443.45000000000005Q1860 443.45000000000005 1831 461.45000000000005Q1801 480.45000000000005 1781 480.45000000000005Q1753 480.45000000000005 1734 449.45000000000005Q1735 466.45000000000005 1736.5 483.95000000000005Q1738 501.45000000000005 1738 518.45Q1738 546.45 1732 560.45Q1753 571.45 1766 604.45Q1779 638.45 1783 638.45ZM2594 726.45Q2582 726.45 2529 717.45Q2501 712.45 2467.0 708.95Q2433 705.45 2392 704.45Q2357 702.45 2322.5 701.95Q2288 701.45 2253 700.45Q2246 724.45 2225 724.45Q2186 724.45 2186 692.45Q2186 681.45 2190.5 660.95Q2195 640.45 2199 630.45Q2208 601.45 2210.0 567.95Q2212 534.45 2212 495.45000000000005Q2212 249.45000000000005 2209 185.45000000000005Q2209 176.45000000000005 2206.0 159.95000000000005Q2203 143.45000000000005 2200.5 126.45000000000005Q2198 109.45000000000005 2198 99.45000000000005Q2198 69.45000000000005 2230 69.45000000000005Q2239 69.45000000000005 2256.5 71.95000000000005Q2274 74.45000000000005 2280 74.45000000000005Q2305 74.45000000000005 2354 62.450000000000045Q2379 56.450000000000045 2397.0 53.950000000000045Q2415 51.450000000000045 2427 51.450000000000045Q2469 51.450000000000045 2469 96.45000000000005Q2469 123.45000000000005 2444 123.45000000000005Q2434 123.45000000000005 2417.0 117.95000000000005Q2400 112.45000000000005 2393 111.45000000000005Q2387 126.45000000000005 2384.0 135.45000000000005Q2381 144.45000000000005 2380 146.45000000000005Q2379 148.45000000000005 2379.0 157.95000000000005Q2379 167.45000000000005 2379 183.45000000000005Q2379 201.45000000000005 2368.5 219.45000000000005Q2358 237.45000000000005 2341.5 249.45000000000005Q2325 261.45000000000005 2305 261.45000000000005Q2275 261.45000000000005 2258.5 238.45000000000005Q2242 215.45000000000005 2244 185.45000000000005Q2243 188.45000000000005 2243 217.45000000000005Q2243 222.45000000000005 2243.0 234.45000000000005Q2243 246.45000000000005 2242 265.45000000000005Q2241 284.45000000000005 2240.5 299.95000000000005Q2240 315.45000000000005 2240 326.45000000000005Q2240 466.45000000000005 2300 490.45000000000005Q2325 500.45000000000005 2341 524.45Q2346 535.45 2350.0 547.45Q2354 559.45 2358 570.45Q2367 596.45 2396 596.45Q2404 596.45 2421.0 589.45Q2438 582.45 2456.5 575.95Q2475 569.45 2485 569.45Q2529 569.45 2556.5 599.95Q2584 630.45 2585 675.45Q2601 674.45 2604 653.45Q2609 615.45 2612.5 585.95Q2616 556.45 2616 534.45Q2616 511.45000000000005 2534 511.45000000000005Q2524 511.45000000000005 2507.0 514.95Q2490 518.45 2473.5 522.45Q2457 526.45 2447 526.45Q2400 526.45 2400 478.45000000000005Q2400 461.45000000000005 2413 428.45000000000005Q2402 423.45000000000005 2382.0 407.95000000000005Q2362 392.45000000000005 2345.5 373.45000000000005Q2329 354.45000000000005 2329 342.45000000000005Q2329 318.45000000000005 2351 314.45000000000005Q2352 313.45000000000005 2390 313.45000000000005Q2395 313.45000000000005 2409.0 311.45000000000005Q2423 309.45000000000005 2430 310.45000000000005Q2432 294.45000000000005 2432.5 285.45000000000005Q2433 276.45000000000005 2434 274.45000000000005Q2438 262.45000000000005 2441.5 255.45000000000005Q2445 248.45000000000005 2451 247.45000000000005Q2456 250.45000000000005 2456 344.45000000000005Q2456 353.45000000000005 2458.0 375.95000000000005Q2460 398.45000000000005 2462.5 420.45000000000005Q2465 442.45000000000005 2465 452.45000000000005Q2465 459.45000000000005 2464.5 466.45000000000005Q2464 473.45000000000005 2463 479.45000000000005Q2489 477.45000000000005 2505.0 476.45000000000005Q2521 475.45000000000005 2528 475.45000000000005Q2536 475.45000000000005 2553.5 476.95000000000005Q2571 478.45000000000005 2580 478.45000000000005Q2590 478.45000000000005 2604.5 476.95000000000005Q2619 475.45000000000005 2624 475.45000000000005Q2650 475.45000000000005 2650 524.45Q2650 532.45 2648.0 547.95Q2646 563.45 2644.0 577.95Q2642 592.45 2642 601.45Q2642 615.45 2644.5 641.45Q2647 667.45 2647 680.45Q2647 726.45 2594 726.45ZM2441 231.45000000000005Q2439 230.45000000000005 2436.0 212.95000000000005Q2433 195.45000000000005 2431.5 176.95000000000005Q2430 158.45000000000005 2430 153.45000000000005Q2430 140.45000000000005 2449 140.45000000000005Q2463 140.45000000000005 2463 172.45000000000005Q2463 231.45000000000005 2441 231.45000000000005ZM2838 741.45Q2786 741.45 2750.5 716.95Q2715 692.45 2696.0 650.95Q2677 609.45 2677 560.45Q2677 501.45000000000005 2711 457.45000000000005Q2749 407.45000000000005 2824 385.45000000000005Q2841 381.45000000000005 2865.5 375.45000000000005Q2890 369.45000000000005 2922 361.45000000000005H2924Q2925 356.45000000000005 2925.5 351.45000000000005Q2926 346.45000000000005 2926 339.45000000000005Q2926 334.45000000000005 2926.0 329.45000000000005Q2926 324.45000000000005 2925 319.45000000000005Q2922 289.45000000000005 2918 282.45000000000005Q2910 275.45000000000005 2901 275.45000000000005Q2875 275.45000000000005 2880 322.45000000000005V325.45000000000005Q2880 338.45000000000005 2865 338.45000000000005Q2840 335.45000000000005 2815 335.45000000000005Q2790 335.45000000000005 2765.5 338.45000000000005Q2741 341.45000000000005 2715 346.45000000000005H2713Q2701 346.45000000000005 2699 331.45000000000005Q2690 168.45000000000005 2911 154.45000000000005Q2918 153.45000000000005 2924.0 153.45000000000005Q2930 153.45000000000005 2937 153.45000000000005Q3016 153.45000000000005 3058 186.45000000000005Q3078 202.45000000000005 3092.0 227.95000000000005Q3106 253.45000000000005 3111 288.45000000000005Q3113 302.45000000000005 3116.0 338.45000000000005Q3119 374.45000000000005 3122 430.45000000000005Q3123 457.45000000000005 3125.5 492.95000000000005Q3128 528.45 3133.5 566.45Q3139 604.45 3148.0 637.95Q3157 671.45 3172 693.45Q3176 698.45 3170 704.45Q3165 709.45 3157 709.45L3000 701.45Q2993 701.45 2993 687.45Q2993 667.45 3014 669.45L3134 679.45Q3097 644.45 3092 565.45Q3091 532.45 3091.0 499.45000000000005Q3091 466.45000000000005 3091 432.45000000000005Q3091 421.45000000000005 3082 421.45000000000005Q3080 421.45000000000005 3074.5 422.45000000000005Q3069 423.45000000000005 3059 427.45000000000005Q3048 431.45000000000005 3039 431.45000000000005Q3033 431.45000000000005 3031 430.45000000000005Q2977 404.45000000000005 2977 348.45000000000005Q2977 317.45000000000005 2996 289.45000000000005Q3002 280.45000000000005 3002 269.45000000000005Q3002 242.45000000000005 2962 211.45000000000005Q2927 183.45000000000005 2913 185.45000000000005Q2835 190.45000000000005 2788 216.45000000000005Q2761 231.45000000000005 2761 247.45000000000005Q2761 264.45000000000005 2792 280.45000000000005Q2808 304.45000000000005 2849 308.45000000000005Q2852 245.45000000000005 2902 245.45000000000005Q2929 245.45000000000005 2941.0 259.45000000000005Q2953 273.45000000000005 2955.5 294.45000000000005Q2958 315.45000000000005 2958 337.45000000000005Q2958 380.45000000000005 2942 387.45000000000005Q2934 391.45000000000005 2920.5 395.45000000000005Q2907 399.45000000000005 2888 403.45000000000005Q2845 412.45000000000005 2833 415.45000000000005Q2824 418.45000000000005 2802.0 427.45000000000005Q2780 436.45000000000005 2761.5 448.95000000000005Q2743 461.45000000000005 2743 474.45000000000005Q2743 483.45000000000005 2765 493.45000000000005Q2791 506.45000000000005 2808.5 526.95Q2826 547.45 2826 579.45Q2826 592.45 2823.0 607.95Q2820 623.45 2812 641.45Q2808 651.45 2790 654.45Q2772 657.45 2774 665.45Q2778 678.45 2804 695.45Q2830 712.45 2847 710.45Q2924 705.45 2948 650.45Q2953 639.45 2965 639.45Q2984 639.45 2978 656.45Q2976 663.45 2968.5 673.95Q2961 684.45 2949 700.45Q2905 741.45 2838 741.45ZM2903 631.45Q2872 631.45 2853.0 607.95Q2834 584.45 2834 554.45Q2835 524.45 2851.5 501.45000000000005Q2868 478.45000000000005 2892.5 462.45000000000005Q2917 446.45000000000005 2943 438.45000000000005Q2945 437.45000000000005 2951 437.45000000000005Q2956 437.45000000000005 2963.5 438.45000000000005Q2971 439.45000000000005 2981 441.45000000000005Q3010 447.45000000000005 3010 454.45000000000005Q3010 458.45000000000005 3015.5 465.95000000000005Q3021 473.45000000000005 3031 485.45000000000005Q3051 510.45000000000005 3051 530.45Q3051 557.45 3033.5 569.45Q3016 581.45 2991 581.45H2973Q2966 581.45 2964 583.45Q2951 631.45 2903 631.45ZM2898 599.45Q2936 599.45 2936 559.45Q2936 548.45 2935.0 527.45Q2934 506.45000000000005 2933 475.45000000000005Q2867 505.45000000000005 2866 554.45V559.45Q2866 575.45 2875 587.45Q2884 599.45 2898 599.45ZM3574 726.45Q3537 719.45 3508.0 716.45Q3479 713.45 3457 713.45Q3446 713.45 3435.5 713.45Q3425 713.45 3414 715.45H3413Q3407 715.45 3403.0 710.45Q3399 705.45 3400 698.45Q3409 621.45 3412.5 570.95Q3416 520.45 3417 498.45000000000005L3421 328.45000000000005Q3422 291.45000000000005 3411 291.45000000000005Q3399 291.45000000000005 3396 313.45000000000005Q3389 368.45000000000005 3383.5 405.95000000000005Q3378 443.45000000000005 3376 465.45000000000005Q3375 483.45000000000005 3361 483.45000000000005Q3350 483.45000000000005 3335.0 473.45000000000005Q3320 463.45000000000005 3308.5 448.45000000000005Q3297 433.45000000000005 3294 418.45000000000005Q3293 410.45000000000005 3292.0 402.95000000000005Q3291 395.45000000000005 3290 388.45000000000005Q3264 404.45000000000005 3249.5 437.45000000000005Q3235 470.45000000000005 3229.0 507.45000000000005Q3223 544.45 3221 572.45Q3219 614.45 3238.0 644.95Q3257 675.45 3291 680.45L3344 688.45Q3340 682.45 3334.5 673.45Q3329 664.45 3322 652.45Q3315 634.45 3315 620.45Q3315 615.45 3318.5 597.95Q3322 580.45 3329 552.45Q3338 518.45 3356 518.45Q3371 518.45 3373 559.45Q3374 584.45 3374.0 606.45Q3374 628.45 3374 647.45V706.45Q3374 723.45 3357 720.45Q3267 704.45 3175 699.45Q3160 699.45 3160 692.45Q3160 689.45 3167.0 678.45Q3174 667.45 3181.0 653.45Q3188 639.45 3188 629.45L3215 359.45000000000005Q3218 321.45000000000005 3222.5 246.45000000000005Q3227 171.45000000000005 3234 60.450000000000045Q3235 53.450000000000045 3225.5 38.450000000000045Q3216 23.450000000000045 3216 14.450000000000045Q3218 -2.5499999999999545 3233 0.4500000000000455Q3276 7.4500000000000455 3299.5 10.450000000000045Q3323 13.450000000000045 3328 14.450000000000045Q3333 14.450000000000045 3354.5 13.450000000000045Q3376 12.450000000000045 3413 10.450000000000045Q3419 10.450000000000045 3423.5 15.950000000000045Q3428 21.450000000000045 3428 27.450000000000045L3411 178.45000000000005Q3450 157.45000000000005 3481 157.45000000000005Q3511 157.45000000000005 3546.0 175.45000000000005Q3581 193.45000000000005 3597 218.45000000000005Q3614 243.45000000000005 3614 290.45000000000005Q3614 301.45000000000005 3612.5 318.45000000000005Q3611 335.45000000000005 3609 358.45000000000005Q3606 385.45000000000005 3603.0 419.45000000000005Q3600 453.45000000000005 3594 494.45000000000005Q3592 505.45000000000005 3586 505.45000000000005Q3581 505.45000000000005 3575.5 499.95000000000005Q3570 494.45000000000005 3570 489.45000000000005L3573 422.45000000000005Q3487 420.45000000000005 3487 347.45000000000005Q3487 317.45000000000005 3510 222.45000000000005Q3513 209.45000000000005 3506.0 200.95000000000005Q3499 192.45000000000005 3490 192.45000000000005Q3466 192.45000000000005 3412 249.45000000000005H3415Q3444 249.45000000000005 3449 284.45000000000005Q3449 312.45000000000005 3451.5 339.45000000000005Q3454 366.45000000000005 3470 401.45000000000005Q3486 435.45000000000005 3488 444.45000000000005Q3489 449.45000000000005 3489.5 454.45000000000005Q3490 459.45000000000005 3490 464.45000000000005Q3490 483.45000000000005 3484.5 503.95000000000005Q3479 524.45 3471 544.45Q3450 597.45 3453 641.45Q3454 650.45 3465.0 662.45Q3476 674.45 3492.5 683.45Q3509 692.45 3524 692.45Q3560 692.45 3565 636.45Q3564 631.45 3558.5 624.45Q3553 617.45 3540 610.45Q3515 595.45 3515 578.45Q3515 564.45 3526 544.45Q3543 527.45 3565 527.45Q3594 527.45 3592 542.45Q3593 560.45 3592.0 602.95Q3591 645.45 3591 712.45Q3591 729.45 3574 726.45ZM3300 305.45000000000005Q3315 271.45000000000005 3350 257.45000000000005Q3351 249.45000000000005 3354.0 239.45000000000005Q3357 229.45000000000005 3364 219.45000000000005Q3378 198.45000000000005 3385.0 153.45000000000005Q3392 108.45000000000005 3395 40.450000000000045Q3336 42.450000000000045 3300 34.450000000000045Q3303 53.450000000000045 3303 66.45000000000005Q3303 89.45000000000005 3289 89.45000000000005H3284Q3281 88.45000000000005 3279 88.45000000000005Q3267 88.45000000000005 3265 108.45000000000005Q3262 132.45000000000005 3259.0 164.45000000000005Q3256 196.45000000000005 3252 236.45000000000005Q3252 249.45000000000005 3268.0 268.45000000000005Q3284 287.45000000000005 3300 305.45000000000005ZM4315 726.45Q4303 726.45 4250 717.45Q4222 712.45 4188.0 708.95Q4154 705.45 4113 704.45Q4078 702.45 4043.5 701.95Q4009 701.45 3974 700.45Q3967 724.45 3946 724.45Q3907 724.45 3907 692.45Q3907 681.45 3911.5 660.95Q3916 640.45 3920 630.45Q3929 601.45 3931.0 567.95Q3933 534.45 3933 495.45000000000005Q3933 249.45000000000005 3930 185.45000000000005Q3930 176.45000000000005 3927.0 159.95000000000005Q3924 143.45000000000005 3921.5 126.45000000000005Q3919 109.45000000000005 3919 99.45000000000005Q3919 69.45000000000005 3951 69.45000000000005Q3960 69.45000000000005 3977.5 71.95000000000005Q3995 74.45000000000005 4001 74.45000000000005Q4026 74.45000000000005 4075 62.450000000000045Q4100 56.450000000000045 4118.0 53.950000000000045Q4136 51.450000000000045 4148 51.450000000000045Q4190 51.450000000000045 4190 96.45000000000005Q4190 123.45000000000005 4165 123.45000000000005Q4155 123.45000000000005 4138.0 117.95000000000005Q4121 112.45000000000005 4114 111.45000000000005Q4108 126.45000000000005 4105.0 135.45000000000005Q4102 144.45000000000005 4101 146.45000000000005Q4100 148.45000000000005 4100.0 157.95000000000005Q4100 167.45000000000005 4100 183.45000000000005Q4100 201.45000000000005 4089.5 219.45000000000005Q4079 237.45000000000005 4062.5 249.45000000000005Q4046 261.45000000000005 4026 261.45000000000005Q3996 261.45000000000005 3979.5 238.45000000000005Q3963 215.45000000000005 3965 185.45000000000005Q3964 188.45000000000005 3964 217.45000000000005Q3964 222.45000000000005 3964.0 234.45000000000005Q3964 246.45000000000005 3963 265.45000000000005Q3962 284.45000000000005 3961.5 299.95000000000005Q3961 315.45000000000005 3961 326.45000000000005Q3961 466.45000000000005 4021 490.45000000000005Q4046 500.45000000000005 4062 524.45Q4067 535.45 4071.0 547.45Q4075 559.45 4079 570.45Q4088 596.45 4117 596.45Q4125 596.45 4142.0 589.45Q4159 582.45 4177.5 575.95Q4196 569.45 4206 569.45Q4250 569.45 4277.5 599.95Q4305 630.45 4306 675.45Q4322 674.45 4325 653.45Q4330 615.45 4333.5 585.95Q4337 556.45 4337 534.45Q4337 511.45000000000005 4255 511.45000000000005Q4245 511.45000000000005 4228.0 514.95Q4211 518.45 4194.5 522.45Q4178 526.45 4168 526.45Q4121 526.45 4121 478.45000000000005Q4121 461.45000000000005 4134 428.45000000000005Q4123 423.45000000000005 4103.0 407.95000000000005Q4083 392.45000000000005 4066.5 373.45000000000005Q4050 354.45000000000005 4050 342.45000000000005Q4050 318.45000000000005 4072 314.45000000000005Q4073 313.45000000000005 4111 313.45000000000005Q4116 313.45000000000005 4130.0 311.45000000000005Q4144 309.45000000000005 4151 310.45000000000005Q4153 294.45000000000005 4153.5 285.45000000000005Q4154 276.45000000000005 4155 274.45000000000005Q4159 262.45000000000005 4162.5 255.45000000000005Q4166 248.45000000000005 4172 247.45000000000005Q4177 250.45000000000005 4177 344.45000000000005Q4177 353.45000000000005 4179.0 375.95000000000005Q4181 398.45000000000005 4183.5 420.45000000000005Q4186 442.45000000000005 4186 452.45000000000005Q4186 459.45000000000005 4185.5 466.45000000000005Q4185 473.45000000000005 4184 479.45000000000005Q4210 477.45000000000005 4226.0 476.45000000000005Q4242 475.45000000000005 4249 475.45000000000005Q4257 475.45000000000005 4274.5 476.95000000000005Q4292 478.45000000000005 4301 478.45000000000005Q4311 478.45000000000005 4325.5 476.95000000000005Q4340 475.45000000000005 4345 475.45000000000005Q4371 475.45000000000005 4371 524.45Q4371 532.45 4369.0 547.95Q4367 563.45 4365.0 577.95Q4363 592.45 4363 601.45Q4363 615.45 4365.5 641.45Q4368 667.45 4368 680.45Q4368 726.45 4315 726.45ZM4162 231.45000000000005Q4160 230.45000000000005 4157.0 212.95000000000005Q4154 195.45000000000005 4152.5 176.95000000000005Q4151 158.45000000000005 4151 153.45000000000005Q4151 140.45000000000005 4170 140.45000000000005Q4184 140.45000000000005 4184 172.45000000000005Q4184 231.45000000000005 4162 231.45000000000005ZM4559 741.45Q4507 741.45 4471.5 716.95Q4436 692.45 4417.0 650.95Q4398 609.45 4398 560.45Q4398 501.45000000000005 4432 457.45000000000005Q4470 407.45000000000005 4545 385.45000000000005Q4562 381.45000000000005 4586.5 375.45000000000005Q4611 369.45000000000005 4643 361.45000000000005H4645Q4646 356.45000000000005 4646.5 351.45000000000005Q4647 346.45000000000005 4647 339.45000000000005Q4647 334.45000000000005 4647.0 329.45000000000005Q4647 324.45000000000005 4646 319.45000000000005Q4643 289.45000000000005 4639 282.45000000000005Q4631 275.45000000000005 4622 275.45000000000005Q4596 275.45000000000005 4601 322.45000000000005V325.45000000000005Q4601 338.45000000000005 4586 338.45000000000005Q4561 335.45000000000005 4536 335.45000000000005Q4511 335.45000000000005 4486.5 338.45000000000005Q4462 341.45000000000005 4436 346.45000000000005H4434Q4422 346.45000000000005 4420 331.45000000000005Q4411 168.45000000000005 4632 154.45000000000005Q4639 153.45000000000005 4645.0 153.45000000000005Q4651 153.45000000000005 4658 153.45000000000005Q4737 153.45000000000005 4779 186.45000000000005Q4799 202.45000000000005 4813.0 227.95000000000005Q4827 253.45000000000005 4832 288.45000000000005Q4834 302.45000000000005 4837.0 338.45000000000005Q4840 374.45000000000005 4843 430.45000000000005Q4844 457.45000000000005 4846.5 492.95000000000005Q4849 528.45 4854.5 566.45Q4860 604.45 4869.0 637.95Q4878 671.45 4893 693.45Q4897 698.45 4891 704.45Q4886 709.45 4878 709.45L4721 701.45Q4714 701.45 4714 687.45Q4714 667.45 4735 669.45L4855 679.45Q4818 644.45 4813 565.45Q4812 532.45 4812.0 499.45000000000005Q4812 466.45000000000005 4812 432.45000000000005Q4812 421.45000000000005 4803 421.45000000000005Q4801 421.45000000000005 4795.5 422.45000000000005Q4790 423.45000000000005 4780 427.45000000000005Q4769 431.45000000000005 4760 431.45000000000005Q4754 431.45000000000005 4752 430.45000000000005Q4698 404.45000000000005 4698 348.45000000000005Q4698 317.45000000000005 4717 289.45000000000005Q4723 280.45000000000005 4723 269.45000000000005Q4723 242.45000000000005 4683 211.45000000000005Q4648 183.45000000000005 4634 185.45000000000005Q4556 190.45000000000005 4509 216.45000000000005Q4482 231.45000000000005 4482 247.45000000000005Q4482 264.45000000000005 4513 280.45000000000005Q4529 304.45000000000005 4570 308.45000000000005Q4573 245.45000000000005 4623 245.45000000000005Q4650 245.45000000000005 4662.0 259.45000000000005Q4674 273.45000000000005 4676.5 294.45000000000005Q4679 315.45000000000005 4679 337.45000000000005Q4679 380.45000000000005 4663 387.45000000000005Q4655 391.45000000000005 4641.5 395.45000000000005Q4628 399.45000000000005 4609 403.45000000000005Q4566 412.45000000000005 4554 415.45000000000005Q4545 418.45000000000005 4523.0 427.45000000000005Q4501 436.45000000000005 4482.5 448.95000000000005Q4464 461.45000000000005 4464 474.45000000000005Q4464 483.45000000000005 4486 493.45000000000005Q4512 506.45000000000005 4529.5 526.95Q4547 547.45 4547 579.45Q4547 592.45 4544.0 607.95Q4541 623.45 4533 641.45Q4529 651.45 4511 654.45Q4493 657.45 4495 665.45Q4499 678.45 4525 695.45Q4551 712.45 4568 710.45Q4645 705.45 4669 650.45Q4674 639.45 4686 639.45Q4705 639.45 4699 656.45Q4697 663.45 4689.5 673.95Q4682 684.45 4670 700.45Q4626 741.45 4559 741.45ZM4624 631.45Q4593 631.45 4574.0 607.95Q4555 584.45 4555 554.45Q4556 524.45 4572.5 501.45000000000005Q4589 478.45000000000005 4613.5 462.45000000000005Q4638 446.45000000000005 4664 438.45000000000005Q4666 437.45000000000005 4672 437.45000000000005Q4677 437.45000000000005 4684.5 438.45000000000005Q4692 439.45000000000005 4702 441.45000000000005Q4731 447.45000000000005 4731 454.45000000000005Q4731 458.45000000000005 4736.5 465.95000000000005Q4742 473.45000000000005 4752 485.45000000000005Q4772 510.45000000000005 4772 530.45Q4772 557.45 4754.5 569.45Q4737 581.45 4712 581.45H4694Q4687 581.45 4685 583.45Q4672 631.45 4624 631.45ZM4619 599.45Q4657 599.45 4657 559.45Q4657 548.45 4656.0 527.45Q4655 506.45000000000005 4654 475.45000000000005Q4588 505.45000000000005 4587 554.45V559.45Q4587 575.45 4596 587.45Q4605 599.45 4619 599.45ZM5295 726.45Q5258 719.45 5229.0 716.45Q5200 713.45 5178 713.45Q5167 713.45 5156.5 713.45Q5146 713.45 5135 715.45H5134Q5128 715.45 5124.0 710.45Q5120 705.45 5121 698.45Q5130 621.45 5133.5 570.95Q5137 520.45 5138 498.45000000000005L5142 328.45000000000005Q5143 291.45000000000005 5132 291.45000000000005Q5120 291.45000000000005 5117 313.45000000000005Q5110 368.45000000000005 5104.5 405.95000000000005Q5099 443.45000000000005 5097 465.45000000000005Q5096 483.45000000000005 5082 483.45000000000005Q5071 483.45000000000005 5056.0 473.45000000000005Q5041 463.45000000000005 5029.5 448.45000000000005Q5018 433.45000000000005 5015 418.45000000000005Q5014 410.45000000000005 5013.0 402.95000000000005Q5012 395.45000000000005 5011 388.45000000000005Q4985 404.45000000000005 4970.5 437.45000000000005Q4956 470.45000000000005 4950.0 507.45000000000005Q4944 544.45 4942 572.45Q4940 614.45 4959.0 644.95Q4978 675.45 5012 680.45L5065 688.45Q5061 682.45 5055.5 673.45Q5050 664.45 5043 652.45Q5036 634.45 5036 620.45Q5036 615.45 5039.5 597.95Q5043 580.45 5050 552.45Q5059 518.45 5077 518.45Q5092 518.45 5094 559.45Q5095 584.45 5095.0 606.45Q5095 628.45 5095 647.45V706.45Q5095 723.45 5078 720.45Q4988 704.45 4896 699.45Q4881 699.45 4881 692.45Q4881 689.45 4888.0 678.45Q4895 667.45 4902.0 653.45Q4909 639.45 4909 629.45L4936 359.45000000000005Q4939 321.45000000000005 4943.5 246.45000000000005Q4948 171.45000000000005 4955 60.450000000000045Q4956 53.450000000000045 4946.5 38.450000000000045Q4937 23.450000000000045 4937 14.450000000000045Q4939 -2.5499999999999545 4954 0.4500000000000455Q4997 7.4500000000000455 5020.5 10.450000000000045Q5044 13.450000000000045 5049 14.450000000000045Q5054 14.450000000000045 5075.5 13.450000000000045Q5097 12.450000000000045 5134 10.450000000000045Q5140 10.450000000000045 5144.5 15.950000000000045Q5149 21.450000000000045 5149 27.450000000000045L5132 178.45000000000005Q5171 157.45000000000005 5202 157.45000000000005Q5232 157.45000000000005 5267.0 175.45000000000005Q5302 193.45000000000005 5318 218.45000000000005Q5335 243.45000000000005 5335 290.45000000000005Q5335 301.45000000000005 5333.5 318.45000000000005Q5332 335.45000000000005 5330 358.45000000000005Q5327 385.45000000000005 5324.0 419.45000000000005Q5321 453.45000000000005 5315 494.45000000000005Q5313 505.45000000000005 5307 505.45000000000005Q5302 505.45000000000005 5296.5 499.95000000000005Q5291 494.45000000000005 5291 489.45000000000005L5294 422.45000000000005Q5208 420.45000000000005 5208 347.45000000000005Q5208 317.45000000000005 5231 222.45000000000005Q5234 209.45000000000005 5227.0 200.95000000000005Q5220 192.45000000000005 5211 192.45000000000005Q5187 192.45000000000005 5133 249.45000000000005H5136Q5165 249.45000000000005 5170 284.45000000000005Q5170 312.45000000000005 5172.5 339.45000000000005Q5175 366.45000000000005 5191 401.45000000000005Q5207 435.45000000000005 5209 444.45000000000005Q5210 449.45000000000005 5210.5 454.45000000000005Q5211 459.45000000000005 5211 464.45000000000005Q5211 483.45000000000005 5205.5 503.95000000000005Q5200 524.45 5192 544.45Q5171 597.45 5174 641.45Q5175 650.45 5186.0 662.45Q5197 674.45 5213.5 683.45Q5230 692.45 5245 692.45Q5281 692.45 5286 636.45Q5285 631.45 5279.5 624.45Q5274 617.45 5261 610.45Q5236 595.45 5236 578.45Q5236 564.45 5247 544.45Q5264 527.45 5286 527.45Q5315 527.45 5313 542.45Q5314 560.45 5313.0 602.95Q5312 645.45 5312 712.45Q5312 729.45 5295 726.45ZM5021 305.45000000000005Q5036 271.45000000000005 5071 257.45000000000005Q5072 249.45000000000005 5075.0 239.45000000000005Q5078 229.45000000000005 5085 219.45000000000005Q5099 198.45000000000005 5106.0 153.45000000000005Q5113 108.45000000000005 5116 40.450000000000045Q5057 42.450000000000045 5021 34.450000000000045Q5024 53.450000000000045 5024 66.45000000000005Q5024 89.45000000000005 5010 89.45000000000005H5005Q5002 88.45000000000005 5000 88.45000000000005Q4988 88.45000000000005 4986 108.45000000000005Q4983 132.45000000000005 4980.0 164.45000000000005Q4977 196.45000000000005 4973 236.45000000000005Q4973 249.45000000000005 4989.0 268.45000000000005Q5005 287.45000000000005 5021 305.45000000000005Z" /></svg>