<svg viewBox="0 0 6253 3700" xmlns="http://www.w3.org/2000/svg"><path d="M735 2148V2500H63V2148H256V1261H63V909H921L1230 1675L1536 909H2336V1261H2144V2148H2336V2500H1503V2148H1632V1554L1280 2500H991L575 1531V2148ZM3052 2518Q2870 2518 2735 2451Q2598 2385 2522.0 2257.0Q2446 2129 2446 1953Q2446 1778 2522 1656Q2598 1533 2735.0 1470.5Q2872 1408 3052 1408Q3237 1408 3373.5 1472.0Q3510 1536 3585.0 1657.5Q3660 1779 3660 1953Q3660 2129 3585 2257Q3509 2385 3371.5 2451.5Q3234 2518 3052 2518ZM3052 2226Q3118 2226 3150 2161Q3181 2098 3181 1953Q3181 1820 3150.5 1760.5Q3120 1701 3052 1701Q2987 1701 2956.0 1760.5Q2925 1820 2925 1953Q2925 2095 2957 2161Q2989 2226 3052 2226ZM4251 2518Q3929 2518 3929 2115V1738H3800V1468L4408 1408V2115Q4408 2154 4437.0 2186.5Q4466 2219 4505 2219Q4550 2219 4575.5 2188.5Q4601 2158 4601 2113V1738H4505V1468L5080 1408V2199H5209V2500H4601V2344Q4548 2426 4459.5 2472.0Q4371 2518 4251 2518ZM6176 2199V2500H5367V2199H5543V1277H5367V1005L6022 939V2199Z" fill="currentColor" /></svg>