<svg viewBox="0 0 3896.0 1064.0" xmlns="http://www.w3.org/2000/svg"><path d="M1124.0 28.0 1138.0 32.0Q1145.0 32.0 1155.0 21.5Q1165.0 11.0 1172.5 11.0Q1180.0 11.0 1194.0 19.5Q1208.0 28.0 1208.0 35.0Q1208.0 51.0 1135.0 139.5Q1062.0 228.0 975.0 329.0Q888.0 430.0 815.0 532.5Q742.0 635.0 742.0 675.0Q742.0 743.0 752.0 779.0L755.0 789.0Q755.0 796.0 738.0 796.0Q721.0 796.0 711.5 793.5Q702.0 791.0 689.0 783.0Q665.0 767.0 655.0 698.0Q655.0 665.0 661.0 636.5Q667.0 608.0 689.5 568.0Q712.0 528.0 733.5 496.0Q755.0 464.0 809.0 399.0Q880.0 314.0 968.0 215.5Q1056.0 117.0 1064.5 107.5Q1073.0 98.0 1073.0 96.0Q1073.0 94.0 1016.5 144.5Q960.0 195.0 821.5 325.0Q683.0 455.0 650.0 494.0Q519.0 644.0 489.0 689.0Q484.0 702.0 471.5 702.0Q459.0 702.0 449.0 685.0Q432.0 656.0 432.0 612.0Q452.0 539.0 510.0 427.5Q568.0 316.0 639.0 208.0L686.0 147.0Q693.0 136.0 693.0 133.0L692.0 132.0Q691.0 132.0 615.0 214.0Q539.0 296.0 525.0 312.0L311.0 546.0Q184.0 685.0 128.0 714.0Q31.0 746.0 11.0 750.0Q0.0 750.0 0.0 746.0Q0.0 742.0 10.0 733.0Q156.0 584.0 193.0 548.0Q201.0 543.0 324.0 422.5Q447.0 302.0 587.5 173.0Q728.0 44.0 787.0 12.0Q826.0 0.0 845.5 0.0Q865.0 0.0 865.0 11.0Q865.0 18.0 856.0 27.0Q705.0 243.0 679.0 300.0L618.0 415.0Q615.0 422.0 615.0 425.0Q615.0 431.0 617.0 429.0Q696.0 365.0 824.5 249.0Q953.0 133.0 1021.0 80.5Q1089.0 28.0 1124.0 28.0ZM919.0 490.0Q974.0 452.0 1034.0 408.0Q1002.0 386.0 993.0 365.0Q990.0 358.0 990.0 355.0Q990.0 335.0 1003.0 328.5Q1016.0 322.0 1045.0 322.0Q1056.0 322.0 1110.0 349.0Q1164.0 376.0 1178.5 376.0Q1193.0 376.0 1219.0 367.5Q1245.0 359.0 1260.5 359.0Q1276.0 359.0 1283.0 366.0Q1308.0 399.0 1308.0 406.0Q1308.0 413.0 1301.5 417.5Q1295.0 422.0 1260.5 446.0Q1226.0 470.0 1193.0 495.0Q1160.0 520.0 1131.0 551.0Q1102.0 582.0 1102.0 601.0Q1102.0 604.0 1107.0 604.0Q1161.0 604.0 1471.0 385.0Q1478.0 385.0 1478.0 397.5Q1478.0 410.0 1399.0 483.5Q1320.0 557.0 1220.5 627.5Q1121.0 698.0 1076.0 698.0Q1006.0 698.0 1006.0 628.0Q1006.0 590.0 1031.5 554.5Q1057.0 519.0 1139.0 459.0Q1122.0 459.0 1093.0 450.5Q1064.0 442.0 1056.0 430.0Q1030.0 453.0 966.0 507.0Q951.0 518.0 927.0 518.0Q903.0 518.0 903.0 510.5Q903.0 503.0 919.0 490.0ZM2442.0 243.0Q2442.0 303.0 2393.5 388.0Q2345.0 473.0 2269.0 552.0Q2193.0 631.0 2085.0 687.0Q1977.0 743.0 1873.0 744.0Q1867.0 744.0 1853.5 738.5Q1840.0 733.0 1831.0 725.0Q1809.0 704.0 1809.0 663.0Q1816.0 626.0 1840.0 603.0Q1848.0 595.0 1848.0 593.0H1847.0Q1845.0 593.0 1837.0 598.0L1656.0 733.0Q1638.0 753.0 1621.0 753.0Q1616.0 753.0 1610.0 750.0L1586.0 727.0Q1583.0 725.0 1583.0 716.5Q1583.0 708.0 1593.0 689.0Q1603.0 670.0 1634.0 624.5Q1665.0 579.0 1723.5 503.0Q1782.0 427.0 1875.5 334.5Q1969.0 242.0 2074.0 164.0Q2095.0 144.0 2114.0 144.0Q2119.0 144.0 2131.0 151.0Q2147.0 159.0 2147.0 167.0Q2147.0 175.0 2142.0 179.0L2072.0 247.0Q1826.0 501.0 1760.0 592.0Q1752.0 601.0 1752.0 604.5Q1752.0 608.0 1754.5 608.0Q1757.0 608.0 1760.0 605.0Q1839.0 552.0 1934.0 508.0Q1941.0 504.0 1946.5 504.0Q1952.0 504.0 1955.0 508.0L1974.0 531.0Q1978.0 537.0 1978.0 542.5Q1978.0 548.0 1974.0 551.0L1963.0 563.0Q1904.0 621.0 1902.0 637.0Q1903.0 642.0 1907.0 642.0Q1966.0 642.0 2081.0 571.0Q2196.0 500.0 2291.0 402.5Q2386.0 305.0 2386.0 241.0Q2386.0 219.0 2363.5 196.0Q2341.0 173.0 2316.0 159.0Q2254.0 126.0 2162.0 126.0Q2070.0 126.0 1986.0 146.5Q1902.0 167.0 1837.5 197.0Q1773.0 227.0 1720.5 260.5Q1668.0 294.0 1640.0 321.5Q1612.0 349.0 1612.0 362.0Q1612.0 365.0 1615.0 365.0Q1646.0 365.0 1732.5 322.0Q1819.0 279.0 1847.0 252.0Q1872.0 234.0 1879.0 234.0Q1883.0 234.0 1883.0 241.5Q1883.0 249.0 1870.0 268.0Q1857.0 287.0 1832.0 313.5Q1807.0 340.0 1777.0 365.5Q1747.0 391.0 1708.0 409.0Q1669.0 427.0 1639.0 427.0Q1609.0 427.0 1576.0 400.5Q1543.0 374.0 1543.0 334.0Q1543.0 255.0 1644.0 183.0Q1745.0 111.0 1878.5 72.0Q2012.0 33.0 2106.0 33.0Q2200.0 33.0 2260.0 51.0Q2320.0 69.0 2352.5 94.0Q2385.0 119.0 2407.0 151.0Q2439.0 199.0 2442.0 243.0ZM2501.0 635.0 2509.0 571.0Q2509.0 568.0 2507.5 568.0Q2506.0 568.0 2502.0 572.0Q2489.0 586.0 2469.0 606.5Q2449.0 627.0 2400.5 661.5Q2352.0 696.0 2322.0 696.0Q2317.0 695.0 2309.5 692.5Q2302.0 690.0 2290.0 676.0Q2278.0 662.0 2278.0 636.0Q2278.0 610.0 2317.5 556.5Q2357.0 503.0 2412.0 451.5Q2467.0 400.0 2534.5 362.0Q2602.0 324.0 2652.0 324.0Q2671.0 325.0 2682.0 351.0Q2692.0 341.0 2700.0 341.0Q2708.0 341.0 2719.0 353.0Q2725.0 354.0 2731.0 359.5Q2737.0 365.0 2737.0 375.0Q2737.0 385.0 2723.0 397.0Q2702.0 423.0 2674.0 456.0Q2646.0 489.0 2634.0 503.5Q2622.0 518.0 2609.0 536.0Q2587.0 567.0 2585.0 586.0Q2687.0 537.0 2906.0 375.0Q2915.0 382.0 2915.0 392.0Q2915.0 402.0 2907.0 409.0Q2899.0 416.0 2887.5 426.0Q2876.0 436.0 2842.0 465.0Q2808.0 494.0 2776.5 520.5Q2745.0 547.0 2704.5 579.5Q2664.0 612.0 2632.0 635.0Q2555.0 690.0 2536.0 690.0Q2517.0 690.0 2509.0 678.0Q2501.0 666.0 2501.0 635.0ZM2399.0 593.0Q2411.0 593.0 2472.5 544.0Q2534.0 495.0 2589.0 446.0L2645.0 397.0Q2649.0 393.0 2649.0 391.5Q2649.0 390.0 2646.0 390.0Q2608.0 390.0 2547.0 433.5Q2486.0 477.0 2441.5 525.5Q2397.0 574.0 2397.0 591.0Q2397.0 593.0 2399.0 593.0ZM2757.0 686.0Q2757.0 688.0 2762.0 696.0Q2776.0 718.0 2776.0 764.0Q2776.0 810.0 2728.5 883.5Q2681.0 957.0 2618.5 1010.5Q2556.0 1064.0 2516.0 1064.0Q2466.0 1064.0 2453.0 974.0Q2453.0 850.0 2634.0 646.0L3179.0 29.0Q3185.0 9.0 3209.0 9.0Q3246.0 9.0 3258.0 18.0Q3270.0 27.0 3270.0 39.5Q3270.0 52.0 3249.0 76.0L2761.0 609.0Q2762.0 610.0 2767.5 610.0Q2773.0 610.0 2779.0 607.0Q2964.0 508.0 3143.0 375.0Q3152.0 382.0 3152.0 392.0Q3152.0 402.0 3142.5 411.0Q3133.0 420.0 3116.0 436.5Q3099.0 453.0 3050.0 496.5Q3001.0 540.0 2955.5 575.5Q2910.0 611.0 2854.0 644.0Q2798.0 677.0 2757.0 686.0ZM2522.0 976.0Q2548.0 976.0 2600.0 925.0Q2652.0 874.0 2694.0 810.0Q2736.0 746.0 2736.0 712.5Q2736.0 679.0 2715.0 679.0Q2706.0 679.0 2694.0 689.0Q2646.0 735.0 2602.0 803.0Q2558.0 871.0 2537.0 916.0Q2516.0 961.0 2516.0 968.5Q2516.0 976.0 2522.0 976.0ZM3039.0 633.0Q3071.0 633.0 3118.0 591.0Q3165.0 549.0 3167.0 533.0Q3155.0 523.0 3141.5 496.5Q3128.0 470.0 3127.0 470.0Q3096.0 499.0 3072.0 537.0Q3034.0 601.0 3034.0 625.0Q3034.0 633.0 3039.0 633.0ZM3255.0 388.0Q3245.0 388.0 3213.5 419.0Q3182.0 450.0 3182.0 462.0Q3182.0 465.0 3188.0 474.0Q3194.0 483.0 3197.0 483.0Q3214.0 483.0 3235.5 442.0Q3257.0 401.0 3257.0 394.5Q3257.0 388.0 3255.0 388.0ZM3257.0 517.0Q3285.0 517.0 3344.5 483.0Q3404.0 449.0 3449.0 415.0L3494.0 380.0Q3503.0 387.0 3503.0 397.0Q3503.0 407.0 3494.0 415.0Q3329.0 568.0 3244.0 568.0Q3238.0 568.0 3226.0 566.0Q3113.0 697.0 3032.0 697.0Q2978.0 689.0 2964.0 659.0Q2956.0 644.0 2956.0 621.0Q2956.0 555.0 3032.0 463.5Q3108.0 372.0 3223.0 329.0Q3233.0 329.0 3238.0 333.5Q3243.0 338.0 3247.0 338.5Q3251.0 339.0 3257.5 334.5Q3264.0 330.0 3275.0 329.5Q3286.0 329.0 3298.0 342.0Q3314.0 355.0 3314.0 374.0Q3314.0 430.0 3257.0 517.0ZM3620.0 375.0Q3594.0 375.0 3532.0 428.5Q3470.0 482.0 3470.0 494.0Q3470.0 496.0 3473.0 496.0Q3495.0 496.0 3560.5 447.0Q3626.0 398.0 3626.0 380.0Q3626.0 375.0 3620.0 375.0ZM3407.0 695.0Q3330.0 695.0 3330.0 601.0Q3330.0 542.0 3381.5 475.5Q3433.0 409.0 3503.0 366.5Q3573.0 324.0 3627.0 324.0Q3651.0 324.0 3671.5 343.0Q3692.0 362.0 3692.0 380.0Q3692.0 413.0 3645.0 454.5Q3598.0 496.0 3546.5 521.5Q3495.0 547.0 3478.5 547.0Q3462.0 547.0 3454.0 532.0Q3450.0 529.0 3443.0 529.0Q3436.0 529.0 3420.0 555.5Q3404.0 582.0 3404.0 598.5Q3404.0 615.0 3416.0 619.0Q3492.0 619.0 3581.0 574.5Q3670.0 530.0 3827.0 418.0Q3838.0 410.0 3860.5 394.0Q3883.0 378.0 3887.0 375.0Q3896.0 382.0 3896.0 392.0Q3896.0 402.0 3887.0 410.0Q3837.0 460.0 3757.5 522.0Q3678.0 584.0 3575.0 639.5Q3472.0 695.0 3407.0 695.0Z" /></svg>