<svg viewBox="0 0 6261 1525" xmlns="http://www.w3.org/2000/svg"><path d="M54 922Q34 922 34 902Q34 848 155.5 697.0Q277 546 409 437Q457 336 457 280Q457 213 390 213Q327 213 241.5 276.0Q156 339 97.0 416.5Q38 494 38 538Q38 570 75 570Q128 570 190.5 516.0Q253 462 284 411Q295 393 302.0 393.0Q309 393 309.0 400.0Q309 407 305 412Q271 463 197.0 529.0Q123 595 62.0 595.0Q1 595 1 550Q1 511 43.0 449.0Q85 387 145.5 329.5Q206 272 281.5 230.5Q357 189 416 189Q493 189 493 265Q493 315 457 400Q556 327 616 327Q652 327 652.0 365.0Q652 403 585.0 512.5Q518 622 451 710L384 799Q384 801 385 801Q423 775 518.5 687.0Q614 599 694.5 535.0Q775 471 814 471Q837 471 837.0 494.0Q837 517 777.0 597.0Q717 677 657.0 761.0Q597 845 597.0 877.0Q597 909 624 909Q655 909 705.0 877.5Q755 846 775.0 827.0Q795 808 800.0 808.0Q805 808 805 812Q805 824 771.5 853.0Q738 882 687.5 908.0Q637 934 601 934Q553 934 553.0 894.5Q553 855 586.5 798.0Q620 741 660 692Q774 556 787 512Q787 501 777 501Q753 501 629.0 609.0Q505 717 447.0 773.0Q389 829 369.0 849.0Q349 869 338.0 881.0Q327 893 316 903Q295 922 288 922Q287 922 286 921Q277 917 277 907Q277 882 341 802Q454 662 533.5 536.0Q613 410 613 368Q613 352 593 352Q544 352 439 440Q363 596 231.0 759.0Q99 922 54 922ZM76 896Q102 896 207.0 759.5Q312 623 384 488Q270 593 167.5 720.5Q65 848 65 885Q65 896 76 896ZM1106 740Q1113 735 1119.0 735.0Q1125 735 1125 742V744Q1050 804 977.0 856.5Q904 909 870 909Q845 909 845.0 882.0Q845 855 869.0 828.0Q893 801 916.5 781.0Q940 761 940.0 754.5Q940 748 932.5 739.5Q925 731 920 728Q903 745 846 790L842 775Q905 725 915 708V699Q915 674 920.0 665.0Q925 656 944.0 640.0Q963 624 970.0 624.0Q977 624 982.5 629.0Q988 634 988.0 639.0Q988 644 984.5 650.5Q981 657 977.5 661.5Q974 666 968.0 672.5Q962 679 960.5 681.5Q959 684 957.5 690.0Q956 696 951.0 700.0Q946 704 946.0 710.0Q946 716 954.0 736.5Q962 757 962.0 766.5Q962 776 925.0 811.5Q888 847 888 869Q888 881 899 881Q913 881 951 856L963 848Q1028 803 1085 757ZM1304 740Q1312 735 1317.5 735.0Q1323 735 1323 742V744Q1246 809 1160.5 866.0Q1075 923 1052.0 923.0Q1029 923 1013.5 914.5Q998 906 998.0 895.0Q998 884 1004.0 876.5Q1010 869 1015.0 869.0Q1020 869 1031.5 884.5Q1043 900 1054 900Q1077 900 1090.0 851.0Q1103 802 1103.0 783.5Q1103 765 1100.5 765.0Q1098 765 1096 767L1067 790L1063 775Q1126 725 1136 708Q1142 692 1153 692Q1160 692 1160.0 697.0Q1160 702 1153.0 718.5Q1146 735 1134.5 793.0Q1123 851 1123.0 860.0Q1123 869 1128 869Q1198 826 1276 762ZM1718 807Q1694 775 1656 718Q1393 692 1393 608Q1393 589 1412.5 577.0Q1432 565 1472 565Q1572 565 1671 692Q1771 702 1898 702H1909Q2037 625 2147 547Q2192 465 2225.0 411.5Q2258 358 2305 300Q2398 182 2501 182Q2528 182 2528 206Q2528 264 2432.0 358.0Q2336 452 2177 560Q2129 652 2105 694Q2245 683 2307 660H2310Q2314 660 2314.0 665.5Q2314 671 2307 681Q2232 704 2091 717Q2037 810 1986.5 861.5Q1936 913 1885 913Q1803 913 1730 822Q1587 894 1477 932Q1462 937 1442.5 937.0Q1423 937 1423 922Q1423 914 1431.0 907.5Q1439 901 1452 901Q1532 901 1718 807ZM1909 727Q1833 770 1759 808Q1826 891 1881 891Q1922 891 1962.5 847.0Q2003 803 2052 720Q1991 725 1909 727ZM2473 206Q2404 206 2334 298Q2276 376 2207 504Q2333 411 2409.0 334.5Q2485 258 2485 216Q2485 206 2473 206ZM1441 604Q1441 661 1634 687Q1556 583 1477 583Q1441 583 1441 604ZM1747 793Q1809 760 1866 727H1862Q1775 727 1694 721Q1732 774 1747 793ZM2120 598Q2066 634 1952 702Q2029 700 2065 697Q2084 664 2120 598ZM2399 786Q2393 786 2393.0 781.5Q2393 777 2400 771Q2433 744 2433 722Q2433 708 2408 706Q2363 707 2300.5 771.0Q2238 835 2238 867Q2238 878 2250.5 878.0Q2263 878 2284 861Q2303 849 2355 801Q2367 789 2378 789Q2392 789 2392 802Q2392 807 2389.0 810.0Q2386 813 2378.0 822.5Q2370 832 2364 840Q2346 866 2346 874Q2346 894 2362 894Q2383 894 2441.0 855.5Q2499 817 2547 778L2595 740Q2602 735 2608.0 735.0Q2614 735 2614 742V744Q2537 809 2451.5 866.0Q2366 923 2339 923Q2307 923 2307 889Q2307 881 2310.0 874.0Q2313 867 2313.0 864.0Q2313 861 2311 860Q2308 860 2272.5 887.0Q2237 914 2210.5 914.0Q2184 914 2184.0 886.0Q2184 858 2221.5 810.5Q2259 763 2322.0 724.0Q2385 685 2445 685Q2459 685 2468.5 692.0Q2478 699 2478.0 713.5Q2478 728 2449.0 757.0Q2420 786 2399 786ZM2703.5 604.0Q2713 604 2718.5 610.0Q2724 616 2724.0 627.0Q2724 638 2709.0 655.0Q2694 672 2683.0 672.0Q2672 672 2667.0 665.5Q2662 659 2662.0 650.5Q2662 642 2678.0 623.0Q2694 604 2703.5 604.0ZM2786 739Q2794 734 2798.5 734.0Q2803 734 2803 740V743Q2807 743 2749.5 787.0Q2692 831 2626.5 875.0Q2561 919 2544 919Q2515 919 2515 895Q2515 866 2565.0 785.5Q2615 705 2638 705Q2655 705 2655.0 718.0Q2655 731 2609.0 789.0Q2563 847 2563 872Q2563 886 2573.5 886.0Q2584 886 2626 858Q2701 808 2764 757ZM3190 743Q2979 919 2929 919Q2900 919 2900.0 895.0Q2900 871 2921.5 838.0Q2943 805 2964.5 779.5Q2986 754 2986.0 749.0Q2986 744 2983 744Q2890 806 2872.5 820.0Q2855 834 2815.5 866.0Q2776 898 2764.0 906.0Q2752 914 2738 914Q2724 914 2724 902Q2724 888 2780 814Q2834 740 2834 731Q2834 729 2830.5 729.0Q2827 729 2744 790L2740 775Q2811 718 2836.0 702.0Q2861 686 2876.5 686.0Q2892 686 2892 701Q2892 711 2835.5 782.5Q2779 854 2779.0 859.5Q2779 865 2782.5 865.0Q2786 865 2896.5 784.5Q3007 704 3031 704Q3038 704 3044.5 709.5Q3051 715 3051 720Q3051 732 2998.0 799.5Q2945 867 2945.0 876.0Q2945 885 2957.5 885.0Q2970 885 3011 858Q3086 809 3149 757L3171 739Q3178 734 3184.0 734.0Q3190 734 3190 740ZM3709 482 3566 475Q3478 475 3391 482L3396 502Q3396 513 3331.0 585.5Q3266 658 3201.0 743.5Q3136 829 3136 870Q3136 886 3147.5 886.0Q3159 886 3200 858Q3276 808 3339 757L3361 739Q3368 734 3373.0 734.0Q3378 734 3378 740V743Q3382 743 3324.5 787.0Q3267 831 3201.5 875.0Q3136 919 3119 919Q3090 919 3090 893Q3090 855 3132.5 788.0Q3175 721 3225.5 661.5Q3276 602 3321.5 549.0Q3367 496 3371 484Q3261 494 3202 508L3182 512Q3174 513 3174 527Q3174 533 3160.0 533.0Q3146 533 3125.5 526.5Q3105 520 3105.0 508.0Q3105 496 3125 492Q3273 466 3335.0 460.5Q3397 455 3417.5 453.5Q3438 452 3481.5 451.0Q3525 450 3540 450Q3585 448 3645.5 448.0Q3706 448 3719.0 453.0Q3732 458 3732 472Q3732 482 3709 482ZM3965 890Q3992 890 4042.0 843.0Q4092 796 4151 719Q4121 724 4095 724Q4030 724 3999.0 693.5Q3968 663 3968.0 607.5Q3968 552 4004.5 476.0Q4041 400 4095.5 334.0Q4150 268 4221.0 222.5Q4292 177 4354 177Q4422 177 4422.0 249.0Q4422 321 4365.0 439.0Q4308 557 4223 673Q4284 649 4351.0 606.0Q4418 563 4439.5 552.0Q4461 541 4472.0 541.0Q4483 541 4489.5 546.5Q4496 552 4496 559Q4496 573 4463.5 579.0Q4431 585 4341.0 637.0Q4251 689 4198 706Q4126 801 4059.5 860.0Q3993 919 3951 919Q3893 919 3893 836Q3893 813 3898.0 769.5Q3903 726 3903 713Q3903 635 3856 635Q3839 635 3820 641Q3762 727 3727.0 775.0Q3692 823 3644 880Q3552 989 3477 989Q3447 989 3447 967Q3447 921 3557.0 812.5Q3667 704 3772 644Q3835 548 3871.0 494.5Q3907 441 3963.0 367.0Q4019 293 4064 247Q4131 180 4178 180Q4197 180 4197 191Q4197 198 4191 201Q4177 209 4169 213Q4089 266 3997 387Q3938 466 3838 614Q3857 608 3875.5 608.0Q3894 608 3908.5 616.0Q3923 624 3929 639Q3939 664 3939 698L3926 834Q3926 890 3965 890ZM4145 691Q4159 691 4174 688Q4261 570 4323.5 447.0Q4386 324 4386.0 261.5Q4386 199 4334 199Q4271 199 4195.5 264.0Q4120 329 4069.0 419.5Q4018 510 4018 581Q4018 691 4145 691ZM3508 961Q3544 961 3601.0 889.5Q3658 818 3754 672Q3666 724 3578.0 816.5Q3490 909 3490 946Q3490 961 3508 961ZM4603 740Q4610 735 4616.0 735.0Q4622 735 4622 742V744Q4518 830 4449.0 873.0Q4380 916 4324 916Q4279 916 4279 872Q4279 807 4345.0 738.5Q4411 670 4456 670Q4481 670 4481 698Q4476 753 4323 846V856Q4323 889 4357.5 889.0Q4392 889 4432 866Q4510 820 4578 761ZM4430 701Q4408 701 4373.5 738.0Q4339 775 4327 822Q4375 793 4408.0 760.5Q4441 728 4441.0 714.5Q4441 701 4430 701ZM4845 740Q4852 735 4858.0 735.0Q4864 735 4864 742V744Q4760 830 4706 864Q4636 917 4588 917Q4546 917 4546 867Q4546 800 4632.5 668.5Q4719 537 4827.0 432.0Q4935 327 4990 327Q5015 327 5015 349Q5015 404 4883.5 530.5Q4752 657 4625 746Q4588 817 4588.0 854.0Q4588 891 4614.0 891.0Q4640 891 4682 861Q4753 819 4820 761ZM4965 359Q4923 359 4816.0 480.0Q4709 601 4639 722Q4754 640 4864.0 521.5Q4974 403 4974 368Q4974 359 4965 359ZM4949 786Q4943 786 4943.0 781.5Q4943 777 4950 771Q4983 744 4983 722Q4983 708 4958 706Q4913 707 4850.5 771.0Q4788 835 4788 867Q4788 878 4800.5 878.0Q4813 878 4834 861Q4853 849 4905 801Q4917 789 4928 789Q4942 789 4942 802Q4942 807 4939.0 810.0Q4936 813 4928.0 822.5Q4920 832 4914 840Q4896 866 4896 874Q4896 894 4912 894Q4933 894 4991.0 855.5Q5049 817 5097 778L5145 740Q5152 735 5158.0 735.0Q5164 735 5164 742V744Q5087 809 5001.5 866.0Q4916 923 4889 923Q4857 923 4857 889Q4857 881 4860.0 874.0Q4863 867 4863.0 864.0Q4863 861 4861 860Q4858 860 4822.5 887.0Q4787 914 4760.5 914.0Q4734 914 4734.0 886.0Q4734 858 4771.5 810.5Q4809 763 4872.0 724.0Q4935 685 4995 685Q5009 685 5018.5 692.0Q5028 699 5028.0 713.5Q5028 728 4999.0 757.0Q4970 786 4949 786ZM5106 906 5127 878Q5098 826 5034 826Q5012 826 4997.0 833.5Q4982 841 4982.0 856.5Q4982 872 5009.5 890.5Q5037 909 5062.5 909.0Q5088 909 5106 906ZM5142 943Q5142 935 5140 921Q4893 1272 4893 1306Q4893 1315 4905 1315Q4950 1315 5006.5 1252.5Q5063 1190 5102.5 1101.5Q5142 1013 5142 943ZM5427 744Q5273 872 5176 908Q5179 922 5179 937Q5179 995 5147.5 1068.5Q5116 1142 5070.0 1204.0Q5024 1266 4969.5 1308.5Q4915 1351 4872 1351Q4843 1351 4843 1328Q4843 1283 5089 931Q5074 932 5068 932Q5017 932 4987.0 911.0Q4957 890 4957.0 864.5Q4957 839 4981.5 824.0Q5006 809 5042 809Q5107 809 5146 851L5373 540Q5373 538 5370 538Q5283 630 5217.5 693.0Q5152 756 5130 773L5108 790L5103 775Q5179 713 5244.0 647.0Q5309 581 5336 546L5363 511Q5432 424 5448 406Q5473 379 5487.0 379.0Q5501 379 5501 396Q5501 411 5442.0 496.0Q5383 581 5350 628Q5247 773 5222 806L5168 882L5171 890Q5246 863 5335 797L5408 740Q5416 735 5421.5 735.0Q5427 735 5427 742ZM5516.5 604.0Q5526 604 5531.5 610.0Q5537 616 5537.0 627.0Q5537 638 5522.0 655.0Q5507 672 5496.0 672.0Q5485 672 5480.0 665.5Q5475 659 5475.0 650.5Q5475 642 5491.0 623.0Q5507 604 5516.5 604.0ZM5599 739Q5607 734 5611.5 734.0Q5616 734 5616 740V743Q5620 743 5562.5 787.0Q5505 831 5439.5 875.0Q5374 919 5357 919Q5328 919 5328 895Q5328 866 5378.0 785.5Q5428 705 5451 705Q5468 705 5468.0 718.0Q5468 731 5422.0 789.0Q5376 847 5376 872Q5376 886 5386.5 886.0Q5397 886 5439 858Q5514 808 5577 757ZM5854 740Q5861 735 5867.0 735.0Q5873 735 5873 742V744Q5769 830 5700.0 873.0Q5631 916 5575 916Q5530 916 5530 872Q5530 807 5596.0 738.5Q5662 670 5707 670Q5732 670 5732 698Q5727 753 5574 846V856Q5574 889 5608.5 889.0Q5643 889 5683 866Q5761 820 5829 761ZM5681 701Q5659 701 5624.5 738.0Q5590 775 5578 822Q5626 793 5659.0 760.5Q5692 728 5692.0 714.5Q5692 701 5681 701ZM6096 740Q6103 735 6109.0 735.0Q6115 735 6115 742V744Q6011 830 5957 864Q5887 917 5839 917Q5797 917 5797 867Q5797 800 5883.5 668.5Q5970 537 6078.0 432.0Q6186 327 6241 327Q6266 327 6266 349Q6266 404 6134.5 530.5Q6003 657 5876 746Q5839 817 5839.0 854.0Q5839 891 5865.0 891.0Q5891 891 5933 861Q6004 819 6071 761ZM6216 359Q6174 359 6067.0 480.0Q5960 601 5890 722Q6005 640 6115.0 521.5Q6225 403 6225 368Q6225 359 6216 359ZM6169 763 6201 714Q6198 713 6195 713Q6153 713 6085.0 777.0Q6017 841 6017 867Q6017 874 6025 874Q6050 874 6101.0 831.5Q6152 789 6169 763ZM6392 744Q6184 912 6140 912Q6123 912 6123.0 892.0Q6123 872 6138 825Q6138 824 6136 824Q6021 919 5983 919Q5957 919 5957 900Q5957 858 6047.5 777.0Q6138 696 6192 696Q6199 696 6207 706Q6230 672 6465 337Q6490 306 6505.5 306.0Q6521 306 6521 316Q6521 341 6349 552Q6285 632 6231.5 718.5Q6178 805 6178 850Q6178 869 6189 869Q6202 869 6235 846Q6303 797 6354 756L6373 740Q6380 735 6386.0 735.0Q6392 735 6392 742Z" fill="currentColor" /></svg>