<svg viewBox="0 0 6662 1000" xmlns="http://www.w3.org/2000/svg"><path d="M438 205Q439 215 437.0 231.0Q435 247 433 261Q431 271 434.0 284.5Q437 298 438 307Q432 326 426.0 353.5Q420 381 415.0 411.5Q410 442 405.5 472.0Q401 502 400 526Q406 545 411.5 558.0Q417 571 421.0 582.5Q425 594 427.0 607.0Q429 620 429 639Q422 646 420.5 647.5Q419 649 412 654Q406 659 400.5 656.0Q395 653 389 653Q380 653 380.0 651.0Q380 649 375 644Q359 628 348.5 611.5Q338 595 329.0 578.5Q320 562 312.5 545.0Q305 528 295 511Q283 489 265.5 459.5Q248 430 227.0 402.0Q206 374 181.5 352.0Q157 330 132 324Q109 402 105.5 475.5Q102 549 115 613Q116 622 115.0 625.0Q114 628 112 635Q110 643 107.5 654.5Q105 666 102 671Q103 685 103.0 697.0Q103 709 98 715Q66 664 54.5 602.5Q43 541 44.5 477.0Q46 413 57.0 351.5Q68 290 81 239Q81 235 83.5 233.0Q86 231 88 229Q90 227 91.5 225.5Q93 224 96 223Q101 222 105.0 220.5Q109 219 114 219Q120 219 122.0 226.0Q124 233 126 237Q129 242 131.0 257.5Q133 273 132 278Q176 284 209.5 309.5Q243 335 268.5 368.0Q294 401 313.0 435.5Q332 470 346 495Q347 473 351.5 441.0Q356 409 361.5 376.0Q367 343 372.5 313.5Q378 284 381 267Q384 253 390.0 244.0Q396 235 403 228Q407 224 411.5 217.0Q416 210 423 208Q428 206 430.5 206.0Q433 206 438 205ZM764 335Q777 367 788.5 404.0Q800 441 804.5 477.5Q809 514 804.5 548.0Q800 582 781 607Q773 617 762 615Q758 614 755.0 610.0Q752 606 747 603Q743 600 738.5 598.0Q734 596 730 590Q715 595 700.5 604.5Q686 614 671.0 624.0Q656 634 640.0 643.5Q624 653 607 657Q589 662 580.5 655.5Q572 649 562 641Q555 635 553.0 633.5Q551 632 549 621Q546 599 548.5 573.5Q551 548 560 522Q585 446 662 420Q671 417 680.5 418.5Q690 420 699.0 424.0Q708 428 716.5 434.0Q725 440 732 446L748 459Q753 442 747.5 422.5Q742 403 731.0 385.5Q720 368 706.0 354.0Q692 340 679 335Q628 335 587.5 358.5Q547 382 509 420Q507 422 504.5 423.0Q502 424 500 425Q497 427 493 426Q490 425 492 420Q498 388 516.0 362.5Q534 337 558.0 318.0Q582 299 609.0 286.0Q636 273 662 267Q666 265 669.5 264.5Q673 264 678 264Q685 264 691.0 268.0Q697 272 705 277Q715 282 725.0 288.5Q735 295 743 304Q750 312 755.0 320.0Q760 328 764 335ZM730 513Q724 500 711.5 489.0Q699 478 683.0 472.5Q667 467 648.5 470.0Q630 473 611 488Q605 501 599.0 516.5Q593 532 590.0 547.5Q587 563 587.5 578.5Q588 594 594 607Q632 594 668.0 577.0Q704 560 730 547Q736 541 737.0 537.0Q738 533 736.5 530.0Q735 527 732.5 523.0Q730 519 730 513ZM946 494Q963 477 980.5 457.5Q998 438 1017.0 420.0Q1036 402 1056.0 387.5Q1076 373 1098 364Q1103 362 1107.5 363.0Q1112 364 1117 362Q1125 362 1131.0 362.0Q1137 362 1142 366Q1156 375 1164.5 391.5Q1173 408 1179 428Q1183 439 1183.5 449.0Q1184 459 1189 472Q1195 491 1202.5 510.5Q1210 530 1208 548Q1207 553 1205.0 556.5Q1203 560 1200 565Q1198 569 1193.0 575.0Q1188 581 1183 584Q1178 588 1176.5 590.5Q1175 593 1167 596Q1154 577 1147.0 555.0Q1140 533 1135.0 509.0Q1130 485 1126.0 460.0Q1122 435 1116 409Q1114 402 1103.5 401.0Q1093 400 1079.5 407.5Q1066 415 1051.0 431.0Q1036 447 1024 472Q1016 490 1009.0 509.5Q1002 529 993.5 548.5Q985 568 973.5 586.5Q962 605 946 620Q941 625 939.0 621.0Q937 617 929 614Q923 612 922.5 610.0Q922 608 919 598Q913 577 906.5 550.0Q900 523 892.5 493.0Q885 463 877.0 432.5Q869 402 861 375L855 357Q857 353 862.5 350.0Q868 347 874 345Q880 343 887.0 346.0Q894 349 898 349Q909 349 917.5 363.0Q926 377 932.0 398.5Q938 420 941.5 445.5Q945 471 946 494ZM1534 361Q1534 431 1535.5 491.0Q1537 551 1547 609Q1548 615 1544.0 622.0Q1540 629 1536 634Q1530 641 1525.0 647.5Q1520 654 1515 656Q1505 661 1503.0 658.0Q1501 655 1500 650Q1496 631 1489.5 598.5Q1483 566 1481 533Q1469 553 1454.5 573.5Q1440 594 1423.5 611.0Q1407 628 1390.0 641.5Q1373 655 1357 661Q1350 664 1347.5 662.0Q1345 660 1339 658Q1330 654 1321.5 650.5Q1313 647 1308 640Q1297 621 1290 603Q1279 574 1276.5 542.0Q1274 510 1276.0 478.0Q1278 446 1283.0 416.0Q1288 386 1293 361Q1294 356 1298.0 354.5Q1302 353 1303 348Q1305 340 1310.5 337.0Q1316 334 1322 332Q1330 330 1334.5 328.5Q1339 327 1347 327Q1338 356 1333.0 393.0Q1328 430 1328.5 468.5Q1329 507 1335.5 543.0Q1342 579 1355 606Q1374 593 1392.5 574.0Q1411 555 1427.0 534.5Q1443 514 1455.5 495.0Q1468 476 1474 463Q1480 443 1481.5 417.5Q1483 392 1483 372Q1482 363 1484.5 358.0Q1487 353 1490 347Q1492 344 1492.5 341.0Q1493 338 1496 336Q1498 334 1500.5 330.5Q1503 327 1506 327Q1512 327 1514.0 333.0Q1516 339 1520 342Q1525 347 1529.5 349.5Q1534 352 1534 361ZM1646 324Q1652 350 1651.0 378.0Q1650 406 1648.5 434.5Q1647 463 1648.5 491.5Q1650 520 1663 545Q1686 488 1726.0 441.5Q1766 395 1811 358Q1817 353 1823.5 351.5Q1830 350 1836 348Q1841 346 1845.5 344.5Q1850 343 1858 347Q1878 358 1881.0 389.0Q1884 420 1884 477Q1899 462 1914.5 443.5Q1930 425 1946.0 408.0Q1962 391 1979.0 378.0Q1996 365 2015 359Q2021 357 2027.5 358.5Q2034 360 2040 360Q2044 360 2047.0 358.5Q2050 357 2054 358Q2060 359 2064.5 364.0Q2069 369 2071 375Q2075 390 2082.0 416.5Q2089 443 2094.5 470.5Q2100 498 2103.0 522.0Q2106 546 2103 556Q2101 565 2098.5 568.0Q2096 571 2088 579Q2086 579 2083.5 582.0Q2081 585 2078 588Q2074 592 2071 596Q2058 577 2051.0 555.0Q2044 533 2039.0 509.0Q2034 485 2030.0 460.0Q2026 435 2020 409Q1991 424 1974.5 443.5Q1958 463 1948.0 484.5Q1938 506 1930.0 528.0Q1922 550 1910 570Q1899 587 1888.0 597.0Q1877 607 1870 606Q1864 605 1861.0 595.0Q1858 585 1853 565Q1843 524 1834.5 477.0Q1826 430 1816 392Q1797 398 1778.5 413.5Q1760 429 1744.0 449.5Q1728 470 1715.5 495.0Q1703 520 1697 545Q1710 571 1698 588Q1693 596 1684.0 601.5Q1675 607 1663 613Q1656 620 1648 618Q1640 616 1635.0 608.5Q1630 601 1629 596Q1623 564 1617.0 529.5Q1611 495 1609.5 460.0Q1608 425 1612.0 390.5Q1616 356 1629 324Q1631 318 1633 318Q1635 318 1637.0 319.5Q1639 321 1641 322Q1643 323 1643.5 323.0Q1644 323 1646 324ZM2733 236Q2735 250 2731.5 256.0Q2728 262 2726 275Q2721 307 2709.0 334.5Q2697 362 2679 389Q2699 389 2723.5 390.0Q2748 391 2771 397Q2778 399 2783.5 404.0Q2789 409 2794 413Q2802 418 2808.0 422.0Q2814 426 2818 433Q2828 452 2826.5 470.5Q2825 489 2815 508Q2789 559 2742.5 612.0Q2696 665 2645 712Q2636 718 2629.0 718.5Q2622 719 2616 721Q2607 725 2598.5 727.0Q2590 729 2587 727Q2583 724 2587.0 720.5Q2591 717 2594 712Q2613 680 2641.5 649.5Q2670 619 2700.0 588.0Q2730 557 2758.5 526.5Q2787 496 2806 464Q2787 454 2754.5 450.0Q2722 446 2687.0 446.0Q2652 446 2621.0 451.0Q2590 456 2575 464Q2575 471 2575.0 482.5Q2575 494 2574.0 507.0Q2573 520 2572.5 533.5Q2572 547 2571 559Q2568 573 2571.0 584.0Q2574 595 2576 606Q2578 619 2578.0 629.0Q2578 639 2578 650Q2578 656 2579.0 663.5Q2580 671 2577 678Q2551 648 2536.0 607.0Q2521 566 2513.0 520.0Q2505 474 2503.0 426.0Q2501 378 2502.0 333.5Q2503 289 2505.5 252.0Q2508 215 2510 190Q2499 189 2483.0 191.5Q2467 194 2453 197Q2450 197 2445.0 197.0Q2440 197 2434.5 196.5Q2429 196 2425.0 195.0Q2421 194 2420 193Q2417 190 2414.5 192.5Q2412 195 2410 191Q2406 183 2409.0 176.5Q2412 170 2407 162Q2416 146 2439.5 141.0Q2463 136 2492 134Q2516 129 2542.5 128.0Q2569 127 2595.5 130.5Q2622 134 2646.0 143.0Q2670 152 2690 167Q2702 176 2713 190Q2718 197 2723.5 212.5Q2729 228 2733 236ZM2686 236Q2680 223 2666.5 213.5Q2653 204 2637.5 198.0Q2622 192 2605.5 189.0Q2589 186 2576 186Q2574 198 2571.5 224.5Q2569 251 2567.5 281.5Q2566 312 2565.0 341.5Q2564 371 2566 390Q2585 382 2604.0 369.0Q2623 356 2639.0 337.0Q2655 318 2667.5 293.0Q2680 268 2686 236ZM3216 307Q3216 316 3219.0 329.5Q3222 343 3217 351Q3215 353 3215.0 358.5Q3215 364 3212 366L3199 358Q3183 350 3163.5 351.0Q3144 352 3124 360Q3110 366 3096.5 376.5Q3083 387 3071.0 400.0Q3059 413 3049.0 427.0Q3039 441 3032 454Q3016 483 3016.5 524.0Q3017 565 3046 630Q3046 637 3036 647Q3034 649 3031.0 653.0Q3028 657 3026 659Q3018 666 3016.5 671.0Q3015 676 3010 678Q3002 681 2995 664Q2978 634 2962.5 590.5Q2947 547 2933.5 501.0Q2920 455 2909.5 412.5Q2899 370 2893 341Q2890 333 2892.0 325.5Q2894 318 2898 313Q2901 309 2905.5 311.0Q2910 313 2913 313Q2926 313 2929.0 318.0Q2932 323 2939 331Q2953 347 2961.0 374.0Q2969 401 2981 438Q2997 411 3022.5 386.0Q3048 361 3078.0 340.5Q3108 320 3140.0 307.0Q3172 294 3202 291Q3208 290 3212.5 294.5Q3217 299 3216 307ZM3524 361Q3524 431 3525.5 491.0Q3527 551 3537 609Q3538 615 3534.0 622.0Q3530 629 3526 634Q3520 641 3515.0 647.5Q3510 654 3505 656Q3495 661 3493.0 658.0Q3491 655 3490 650Q3486 631 3479.5 598.5Q3473 566 3471 533Q3459 553 3444.5 573.5Q3430 594 3413.5 611.0Q3397 628 3380.0 641.5Q3363 655 3347 661Q3340 664 3337.5 662.0Q3335 660 3329 658Q3320 654 3311.5 650.5Q3303 647 3298 640Q3287 621 3280 603Q3269 574 3266.5 542.0Q3264 510 3266.0 478.0Q3268 446 3273.0 416.0Q3278 386 3283 361Q3284 356 3288.0 354.5Q3292 353 3293 348Q3295 340 3300.5 337.0Q3306 334 3312 332Q3320 330 3324.5 328.5Q3329 327 3337 327Q3328 356 3323.0 393.0Q3318 430 3318.5 468.5Q3319 507 3325.5 543.0Q3332 579 3345 606Q3364 593 3382.5 574.0Q3401 555 3417.0 534.5Q3433 514 3445.5 495.0Q3458 476 3464 463Q3470 443 3471.5 417.5Q3473 392 3473 372Q3472 363 3474.5 358.0Q3477 353 3480 347Q3482 344 3482.5 341.0Q3483 338 3486 336Q3488 334 3490.5 330.5Q3493 327 3496 327Q3502 327 3504.0 333.0Q3506 339 3510 342Q3515 347 3519.5 349.5Q3524 352 3524 361ZM3851 359Q3846 374 3843.0 382.0Q3840 390 3834 384Q3820 370 3800.0 354.0Q3780 338 3751 334Q3732 332 3710.5 338.5Q3689 345 3678 366Q3668 384 3675 409Q3681 435 3701.5 446.5Q3722 458 3747.5 464.5Q3773 471 3799.5 476.0Q3826 481 3845 494Q3851 497 3854.5 503.5Q3858 510 3862 515Q3867 521 3871.5 525.0Q3876 529 3880 537Q3883 543 3887.0 551.5Q3891 560 3889 570Q3886 583 3864 598Q3816 629 3763.0 647.5Q3710 666 3651 654Q3644 652 3635.0 640.5Q3626 629 3620 625Q3604 616 3598 602Q3590 576 3590 545Q3590 535 3593.5 535.5Q3597 536 3600 536Q3606 536 3613.5 544.0Q3621 552 3629.5 562.5Q3638 573 3645.5 581.5Q3653 590 3658 590Q3675 598 3699.0 599.0Q3723 600 3747.5 594.5Q3772 589 3793.5 576.5Q3815 564 3828 545Q3828 540 3816.5 533.0Q3805 526 3787.0 517.5Q3769 509 3747.5 500.0Q3726 491 3706.5 481.0Q3687 471 3672.5 460.0Q3658 449 3653 438Q3650 430 3646.0 421.5Q3642 413 3641 409Q3636 387 3639.0 366.5Q3642 346 3651.0 330.0Q3660 314 3675.0 303.5Q3690 293 3709 290Q3739 286 3773.5 289.5Q3808 293 3835 313Q3843 320 3846.5 326.0Q3850 332 3852 340Q3853 345 3854.0 349.5Q3855 354 3851 359ZM4030 437Q4053 403 4085.0 382.5Q4117 362 4159 365Q4165 366 4172.0 369.5Q4179 373 4185 376Q4200 384 4213.0 399.5Q4226 415 4236.5 434.5Q4247 454 4254.0 475.0Q4261 496 4264 514Q4266 525 4267.0 542.0Q4268 559 4268 573Q4266 573 4266.0 574.0Q4266 575 4264 574Q4256 570 4251 563Q4249 561 4245.0 558.5Q4241 556 4240 552Q4238 542 4235.5 525.5Q4233 509 4227.0 490.0Q4221 471 4212.0 452.5Q4203 434 4190 420Q4185 415 4181.5 412.5Q4178 410 4173 407Q4168 403 4158.0 401.5Q4148 400 4141 402Q4124 407 4105.0 421.0Q4086 435 4072.0 455.5Q4058 476 4052.0 503.0Q4046 530 4057 561Q4060 570 4061.0 575.5Q4062 581 4061.5 586.0Q4061 591 4058.0 597.0Q4055 603 4050 613Q4042 625 4031.5 630.0Q4021 635 4013 641Q3984 558 3968.5 475.0Q3953 392 3949.5 318.0Q3946 244 3954.0 182.5Q3962 121 3979 80Q3982 68 3992 70Q3997 71 4000.0 74.0Q4003 77 4008 82Q4012 87 4015.0 90.5Q4018 94 4019 100Q4020 105 4024.0 105.0Q4028 105 4027 110Q4018 165 4015.0 212.0Q4012 259 4013.5 299.0Q4015 339 4020.0 373.0Q4025 407 4030 437ZM4938 237Q4936 241 4938.0 243.0Q4940 245 4938 247Q4935 249 4927.5 249.5Q4920 250 4915 251Q4908 253 4901.0 252.5Q4894 252 4886 247Q4874 241 4856.5 235.5Q4839 230 4819 230Q4793 230 4764.0 235.5Q4735 241 4708.5 250.5Q4682 260 4661.5 274.0Q4641 288 4632 305Q4626 318 4627.0 332.5Q4628 347 4634.0 360.0Q4640 373 4648.5 383.5Q4657 394 4665 398Q4690 411 4720.5 415.0Q4751 419 4783.5 420.0Q4816 421 4848.0 423.0Q4880 425 4907 433Q4921 438 4933.5 441.0Q4946 444 4956.0 449.5Q4966 455 4974.5 464.5Q4983 474 4989 492Q4998 530 4985 566Q4972 603 4942.0 631.5Q4912 660 4874 677Q4844 690 4812.5 694.5Q4781 699 4751.5 693.0Q4722 687 4697.5 670.0Q4673 653 4658 623Q4649 604 4649 577Q4648 574 4649 571Q4651 564 4662 564Q4666 562 4672.5 566.5Q4679 571 4682 572Q4690 573 4697.5 582.5Q4705 592 4712 598Q4737 624 4768.5 629.5Q4800 635 4829.5 629.5Q4859 624 4884.0 612.0Q4909 600 4921 590Q4928 584 4936.5 575.5Q4945 567 4953.0 556.5Q4961 546 4966.5 534.0Q4972 522 4972 509Q4969 497 4956.0 490.5Q4943 484 4923 480Q4888 474 4854.0 473.5Q4820 473 4787.0 474.0Q4754 475 4722.0 475.0Q4690 475 4660 468Q4651 466 4642.5 461.5Q4634 457 4626 452Q4618 447 4614.0 439.0Q4610 431 4605 422Q4600 413 4595.5 403.5Q4591 394 4589 383Q4584 351 4589.5 317.0Q4595 283 4615 254Q4631 230 4658.5 212.5Q4686 195 4720.5 185.5Q4755 176 4794.0 176.5Q4833 177 4874 189Q4879 191 4886.0 194.5Q4893 198 4898 200Q4912 207 4923.0 217.0Q4934 227 4938 237ZM5278 386Q5281 391 5280.5 395.5Q5280 400 5279 403Q5271 412 5266.0 415.0Q5261 418 5249 424Q5246 426 5243.5 428.0Q5241 430 5238 430Q5233 430 5222.5 422.0Q5212 414 5200.0 406.0Q5188 398 5174.5 394.0Q5161 390 5150 397Q5139 412 5129.0 435.5Q5119 459 5113.5 485.0Q5108 511 5110.0 538.0Q5112 565 5126 588Q5184 594 5229.0 568.5Q5274 543 5312 505Q5312 512 5308.5 517.5Q5305 523 5302 529Q5298 538 5293.5 546.5Q5289 555 5281 563Q5267 578 5249.5 592.0Q5232 606 5212.5 616.5Q5193 627 5172.5 632.5Q5152 638 5132 636Q5121 635 5116.5 630.5Q5112 626 5101 621Q5095 617 5085.5 614.0Q5076 611 5071 606Q5061 594 5056 577Q5049 555 5049.0 529.0Q5049 503 5052.5 478.5Q5056 454 5062.5 434.0Q5069 414 5074 403Q5080 390 5092.0 380.5Q5104 371 5118.5 363.0Q5133 355 5148.0 348.0Q5163 341 5176 335Q5227 335 5278 386ZM5676 307Q5676 316 5679.0 329.5Q5682 343 5677 351Q5675 353 5675.0 358.5Q5675 364 5672 366L5659 358Q5643 350 5623.5 351.0Q5604 352 5584 360Q5570 366 5556.5 376.5Q5543 387 5531.0 400.0Q5519 413 5509.0 427.0Q5499 441 5492 454Q5476 483 5476.5 524.0Q5477 565 5506 630Q5506 637 5496 647Q5494 649 5491.0 653.0Q5488 657 5486 659Q5478 666 5476.5 671.0Q5475 676 5470 678Q5462 681 5455 664Q5438 634 5422.5 590.5Q5407 547 5393.5 501.0Q5380 455 5369.5 412.5Q5359 370 5353 341Q5350 333 5352.0 325.5Q5354 318 5358 313Q5361 309 5365.5 311.0Q5370 313 5373 313Q5386 313 5389.0 318.0Q5392 323 5399 331Q5413 347 5421.0 374.0Q5429 401 5441 438Q5457 411 5482.5 386.0Q5508 361 5538.0 340.5Q5568 320 5600.0 307.0Q5632 294 5662 291Q5668 290 5672.5 294.5Q5677 299 5676 307ZM5850 301Q5858 309 5856.5 314.0Q5855 319 5850 318Q5837 318 5821.5 320.5Q5806 323 5788.5 324.5Q5771 326 5752.0 325.0Q5733 324 5714 318Q5706 310 5714.5 303.5Q5723 297 5728 284Q5731 275 5736.5 271.5Q5742 268 5748 267Q5759 267 5775.5 271.5Q5792 276 5803 277Q5820 279 5831.0 282.5Q5842 286 5850 301ZM5829 437Q5835 460 5838.5 479.0Q5842 498 5843.5 515.5Q5845 533 5845.5 551.0Q5846 569 5846 590Q5846 594 5841.5 598.5Q5837 603 5835 608Q5831 617 5828.5 619.0Q5826 621 5820 624Q5806 630 5795 641Q5782 622 5777.5 597.0Q5773 572 5771.5 545.0Q5770 518 5768.5 490.5Q5767 463 5761 437Q5758 423 5763.0 418.0Q5768 413 5774 411Q5781 409 5789.5 414.0Q5798 419 5806 424Q5813 428 5819.5 428.5Q5826 429 5829 437ZM6214 358Q6225 384 6225.5 408.0Q6226 432 6214 460Q6202 481 6181.0 497.5Q6160 514 6136.5 526.0Q6113 538 6091.0 546.0Q6069 554 6056 559Q6060 589 6064.0 624.5Q6068 660 6070.5 696.5Q6073 733 6075.0 768.5Q6077 804 6078 834Q6078 840 6075.0 841.0Q6072 842 6068 847Q6065 850 6062.5 855.0Q6060 860 6056 862Q6053 864 6050.0 866.0Q6047 868 6044 868Q6029 817 6017.0 755.5Q6005 694 5996.5 628.5Q5988 563 5983.0 497.5Q5978 432 5976 375Q5962 377 5948.0 383.5Q5934 390 5923 396Q5921 398 5919.0 397.0Q5917 396 5915 398Q5912 400 5909.0 401.5Q5906 403 5903 401Q5897 398 5891 392Q5902 359 5926.0 340.0Q5950 321 5979 313Q5996 309 6031.0 306.5Q6066 304 6103.5 307.5Q6141 311 6173.0 322.5Q6205 334 6214 358ZM6177 394Q6174 375 6157.0 365.0Q6140 355 6117.0 352.0Q6094 349 6069.5 351.5Q6045 354 6026 360Q6029 373 6032.0 392.0Q6035 411 6038.0 431.0Q6041 451 6043.5 471.0Q6046 491 6047 505Q6066 500 6089.0 490.5Q6112 481 6131.5 467.0Q6151 453 6164.0 434.5Q6177 416 6177 394ZM6641 409Q6643 411 6644.0 411.0Q6645 411 6645 413Q6644 415 6640.5 417.5Q6637 420 6628 421Q6625 422 6620.0 424.5Q6615 427 6612 428Q6585 434 6548.5 439.0Q6512 444 6473 448Q6471 483 6471.5 513.0Q6472 543 6474 565Q6476 582 6490.0 581.5Q6504 581 6519 576Q6523 575 6540.5 566.5Q6558 558 6581.5 546.5Q6605 535 6631.0 521.5Q6657 508 6678 497Q6678 511 6663 524Q6655 531 6645.5 537.0Q6636 543 6626 550Q6615 557 6611.0 565.0Q6607 573 6593 582Q6567 599 6537.0 613.0Q6507 627 6483 633Q6475 635 6466.5 635.0Q6458 635 6450 638Q6438 643 6431.5 636.0Q6425 629 6423 616Q6419 579 6417.5 537.0Q6416 495 6417 452Q6387 454 6361.5 453.5Q6336 453 6320 450Q6305 448 6292.5 443.5Q6280 439 6270 429Q6261 429 6264.5 420.5Q6268 412 6270 406Q6291 405 6331.5 403.5Q6372 402 6419 400Q6423 317 6433.0 246.0Q6443 175 6457 140Q6457 131 6464.5 127.5Q6472 124 6480 119Q6484 117 6488.5 113.5Q6493 110 6501 110Q6510 115 6514.0 118.5Q6518 122 6518.0 127.0Q6518 132 6515.0 139.0Q6512 146 6508 157Q6506 160 6502.0 182.0Q6498 204 6493.5 237.5Q6489 271 6484.0 313.5Q6479 356 6476 399Q6509 399 6539.0 399.5Q6569 400 6592 402Z" fill="currentColor" /></svg>