<svg viewBox="0 0 6649.066666666667 840" xmlns="http://www.w3.org/2000/svg"><path d="M73 782Q73 796 59 796H14Q0 796 0 782V82Q0 61 3.5 57.5Q7 54 28 54H74Q87 54 91.5 56.5Q96 59 101 68L478 715V68Q478 54 492 54H536Q550 54 550 68V768Q550 789 546.5 792.5Q543 796 522 796H461Q453 796 449.5 794.0Q446 792 441 784L73 148ZM1037 514H1018Q962 512 918.5 518.5Q875 525 846 536Q804 551 783.0 580.5Q762 610 762 651Q762 676 770.0 697.5Q778 719 795 731Q825 755 875 755Q910 755 939.5 741.0Q969 727 991.0 701.0Q1013 675 1025.0 636.5Q1037 598 1037 548ZM752 339Q747 342 742.5 340.5Q738 339 738 334V296Q738 282 752 275Q787 256 826.5 248.5Q866 241 913 241Q1013 241 1059.0 288.5Q1105 336 1105 432V683Q1105 713 1106.0 736.5Q1107 760 1109 782Q1109 796 1095 796H1059Q1045 796 1045 782V705Q1024 756 974.5 784.0Q925 812 867 812Q766 812 719 753Q703 733 695.0 706.5Q687 680 687 654Q687 593 715.5 549.0Q744 505 803 483Q875 457 1024 457H1037V427Q1037 364 1008.5 331.0Q980 298 913 298Q868 298 828.0 307.5Q788 317 752 339ZM1702 782Q1702 796 1688 796H1648Q1634 796 1634 782V467Q1634 375 1601.0 336.5Q1568 298 1508 298Q1427 298 1384.5 343.0Q1342 388 1342 469V782Q1342 796 1328 796H1288Q1274 796 1274 782V382Q1274 339 1273.5 315.0Q1273 291 1271 269Q1270 262 1274.5 258.5Q1279 255 1285 255H1321Q1335 255 1335 269V324Q1363 281 1402.5 261.0Q1442 241 1511 241Q1606 241 1654.0 296.0Q1702 351 1702 451ZM2310 782Q2310 796 2296 796H2260Q2246 796 2246 782V699Q2220 759 2176.5 785.5Q2133 812 2067 812Q1880 812 1880 603V269Q1880 255 1894 255H1934Q1948 255 1948 269V585Q1948 755 2078 755Q2116 755 2146.5 738.5Q2177 722 2198.0 693.5Q2219 665 2230.0 627.0Q2241 589 2240 547V269Q2240 255 2254 255H2294Q2308 255 2308 269V671Q2308 704 2308.5 730.0Q2309 756 2310 782ZM2487 382Q2487 340 2486.0 315.5Q2485 291 2483 269Q2483 255 2497 255H2534Q2548 255 2548 269V323Q2571 286 2610.0 264.5Q2649 243 2706 243Q2766 243 2811.0 272.5Q2856 302 2866 359Q2887 302 2933.5 272.5Q2980 243 3041 243Q3080 243 3111.5 257.0Q3143 271 3165.5 295.5Q3188 320 3200.0 353.0Q3212 386 3212 423V782Q3212 796 3198 796H3160Q3146 796 3146 783V437Q3146 300 3031 300Q2996 300 2968.5 315.5Q2941 331 2921.5 358.0Q2902 385 2892.5 421.0Q2883 457 2884 497V782Q2884 796 2870 796H2830Q2816 796 2816 782V437Q2816 300 2700 300Q2632 300 2593.0 344.0Q2554 388 2554 460V782Q2554 796 2540 796H2501Q2487 796 2487 782ZM4245 396Q4266 396 4269.5 399.5Q4273 403 4273 424V741Q4273 752 4266.5 760.0Q4260 768 4252 772Q4204 790 4151.5 799.5Q4099 809 4042 809Q3959 809 3888.5 783.5Q3818 758 3767.0 709.5Q3716 661 3687.5 589.5Q3659 518 3659 426Q3659 342 3685.5 272.0Q3712 202 3761.5 151.0Q3811 100 3882.0 71.5Q3953 43 4042 43Q4098 43 4139.5 48.0Q4181 53 4228 68Q4243 72 4240 88L4235 125Q4234 138 4220 134Q4175 117 4134.0 111.5Q4093 106 4042 106Q3971 106 3913.5 129.5Q3856 153 3815.5 195.0Q3775 237 3753.5 296.0Q3732 355 3732 426Q3732 503 3755.0 563.0Q3778 623 3819.5 663.5Q3861 704 3917.5 725.0Q3974 746 4042 746Q4153 746 4200 719V459H3999Q3985 459 3985 445V410Q3985 396 3999 396ZM4867 526Q4867 479 4854.5 438.0Q4842 397 4820 365Q4768 301 4685 301Q4643 301 4609.5 317.5Q4576 334 4550 365Q4527 397 4514.5 438.0Q4502 479 4502 526Q4502 574 4514.5 615.0Q4527 656 4550 687Q4603 752 4685 752Q4727 752 4760.5 735.0Q4794 718 4820 687Q4842 656 4854.5 615.0Q4867 574 4867 526ZM4941 526Q4941 585 4924.0 635.5Q4907 686 4879 724Q4844 766 4795.5 789.0Q4747 812 4685 812Q4623 812 4574.0 789.0Q4525 766 4490 724Q4462 686 4445.5 635.5Q4429 585 4429 526Q4429 405 4490 328Q4560 241 4685 241Q4748 241 4796.0 262.5Q4844 284 4879 328Q4941 407 4941 526ZM5329 797Q5287 812 5246 812Q5165 812 5139 759Q5122 723 5122 632V313H5028Q5014 313 5014 299V269Q5014 255 5028 255H5122V120Q5122 105 5135 105H5177Q5190 105 5190 120V255H5301Q5315 255 5315 269V299Q5315 313 5301 313H5190V666Q5190 755 5262 755Q5290 755 5325 743Q5330 741 5334.5 743.0Q5339 745 5339 751L5341 777Q5343 791 5329 797ZM5868 782Q5868 796 5854 796H5814Q5800 796 5800 782V474Q5800 426 5791.5 392.5Q5783 359 5767.0 338.5Q5751 318 5728.0 309.0Q5705 300 5677 300Q5595 300 5551.5 339.0Q5508 378 5508 447V782Q5508 796 5494 796H5454Q5440 796 5440 782V14Q5440 0 5454 0H5494Q5508 0 5508 14V304Q5536 272 5577.5 257.5Q5619 243 5681 243Q5778 243 5823.0 300.0Q5868 357 5868 473ZM6117 826Q6117 840 6103 840H6059Q6045 840 6045 826V313Q6045 299 6059 299H6103Q6117 299 6117 313ZM6032 110Q6032 90 6046.0 75.5Q6060 61 6080 61Q6100 61 6114.5 75.5Q6129 90 6129 110Q6129 130 6114.5 144.0Q6100 158 6080 158Q6060 158 6046.0 144.0Q6032 130 6032 110ZM6635 800Q6605 805 6577.0 807.0Q6549 809 6510 809Q6448 809 6399.5 787.0Q6351 765 6317.5 727.0Q6284 689 6266.0 637.0Q6248 585 6248 525Q6248 464 6267.0 412.5Q6286 361 6321.5 323.5Q6357 286 6406.5 264.5Q6456 243 6518 243Q6551 243 6578.0 245.5Q6605 248 6636 255Q6650 259 6649 274L6646 306Q6644 318 6631 315Q6605 307 6581.0 303.5Q6557 300 6528 300Q6477 300 6438.5 316.5Q6400 333 6374.0 363.0Q6348 393 6335.0 434.5Q6322 476 6322 525Q6322 570 6335.5 611.0Q6349 652 6374.5 683.5Q6400 715 6436.5 733.5Q6473 752 6520 752Q6555 752 6578.0 749.0Q6601 746 6630 738Q6645 734 6646 745L6649 782Q6650 797 6635 800Z" fill="currentColor" /></svg>