<svg viewBox="0 0 6633.673076923077 798.2857142857142" xmlns="http://www.w3.org/2000/svg"><path d="M393.6730769230769 135.28571428571422Q394.6730769230769 145.28571428571422 392.6730769230769 161.28571428571422Q390.6730769230769 177.28571428571422 388.6730769230769 191.28571428571422Q386.6730769230769 201.28571428571422 389.6730769230769 214.78571428571422Q392.6730769230769 228.28571428571422 393.6730769230769 237.28571428571422Q387.6730769230769 256.2857142857142 381.6730769230769 283.7857142857142Q375.6730769230769 311.2857142857142 370.6730769230769 341.7857142857142Q365.6730769230769 372.2857142857142 361.1730769230769 402.2857142857142Q356.6730769230769 432.2857142857142 355.6730769230769 456.2857142857142Q361.6730769230769 475.2857142857142 367.1730769230769 488.2857142857142Q372.6730769230769 501.2857142857142 376.6730769230769 512.7857142857142Q380.6730769230769 524.2857142857142 382.6730769230769 537.2857142857142Q384.6730769230769 550.2857142857142 384.6730769230769 569.2857142857142Q377.6730769230769 576.2857142857142 376.1730769230769 577.7857142857142Q374.6730769230769 579.2857142857142 367.6730769230769 584.2857142857142Q361.6730769230769 589.2857142857142 356.1730769230769 586.2857142857142Q350.6730769230769 583.2857142857142 344.6730769230769 583.2857142857142Q335.6730769230769 583.2857142857142 335.6730769230769 581.2857142857142Q335.6730769230769 579.2857142857142 330.6730769230769 574.2857142857142Q314.6730769230769 558.2857142857142 304.1730769230769 541.7857142857142Q293.6730769230769 525.2857142857142 284.6730769230769 508.7857142857142Q275.6730769230769 492.2857142857142 268.1730769230769 475.2857142857142Q260.6730769230769 458.2857142857142 250.6730769230769 441.2857142857142Q238.6730769230769 419.2857142857142 221.1730769230769 389.7857142857142Q203.6730769230769 360.2857142857142 182.6730769230769 332.2857142857142Q161.6730769230769 304.2857142857142 137.1730769230769 282.2857142857142Q112.67307692307692 260.2857142857142 87.67307692307692 254.28571428571422Q64.67307692307692 332.2857142857142 61.17307692307692 405.7857142857142Q57.67307692307692 479.2857142857142 70.67307692307692 543.2857142857142Q71.67307692307692 552.2857142857142 70.67307692307692 555.2857142857142Q69.67307692307692 558.2857142857142 67.67307692307692 565.2857142857142Q65.67307692307692 573.2857142857142 63.17307692307692 584.7857142857142Q60.67307692307692 596.2857142857142 57.67307692307692 601.2857142857142Q58.67307692307692 615.2857142857142 58.67307692307692 627.2857142857142Q58.67307692307692 639.2857142857142 53.67307692307692 645.2857142857142Q21.67307692307692 594.2857142857142 10.17307692307692 532.7857142857142Q-1.3269230769230802 471.2857142857142 0.1730769230769198 407.2857142857142Q1.6730769230769198 343.2857142857142 12.67307692307692 281.7857142857142Q23.67307692307692 220.28571428571422 36.67307692307692 169.28571428571422Q36.67307692307692 165.28571428571422 39.17307692307692 163.28571428571422Q41.67307692307692 161.28571428571422 43.67307692307692 159.28571428571422Q45.67307692307692 157.28571428571422 47.17307692307692 155.78571428571422Q48.67307692307692 154.28571428571422 51.67307692307692 153.28571428571422Q56.67307692307692 152.28571428571422 60.67307692307692 150.78571428571422Q64.67307692307692 149.28571428571422 69.67307692307692 149.28571428571422Q75.67307692307692 149.28571428571422 77.67307692307692 156.28571428571422Q79.67307692307692 163.28571428571422 81.67307692307692 167.28571428571422Q84.67307692307692 172.28571428571422 86.67307692307692 187.78571428571422Q88.67307692307692 203.28571428571422 87.67307692307692 208.28571428571422Q131.6730769230769 214.28571428571422 165.1730769230769 239.78571428571422Q198.6730769230769 265.2857142857142 224.1730769230769 298.2857142857142Q249.6730769230769 331.2857142857142 268.6730769230769 365.7857142857142Q287.6730769230769 400.2857142857142 301.6730769230769 425.2857142857142Q302.6730769230769 403.2857142857142 307.1730769230769 371.2857142857142Q311.6730769230769 339.2857142857142 317.1730769230769 306.2857142857142Q322.6730769230769 273.2857142857142 328.1730769230769 243.78571428571422Q333.6730769230769 214.28571428571422 336.6730769230769 197.28571428571422Q339.6730769230769 183.28571428571422 345.6730769230769 174.28571428571422Q351.6730769230769 165.28571428571422 358.6730769230769 158.28571428571422Q362.6730769230769 154.28571428571422 367.1730769230769 147.28571428571422Q371.6730769230769 140.28571428571422 378.6730769230769 138.28571428571422Q383.6730769230769 136.28571428571422 386.1730769230769 136.28571428571422Q388.6730769230769 136.28571428571422 393.6730769230769 135.28571428571422ZM719.6730769230769 265.2857142857142Q732.6730769230769 297.2857142857142 744.1730769230769 334.2857142857142Q755.6730769230769 371.2857142857142 760.1730769230769 407.7857142857142Q764.6730769230769 444.2857142857142 760.1730769230769 478.2857142857142Q755.6730769230769 512.2857142857142 736.6730769230769 537.2857142857142Q728.6730769230769 547.2857142857142 717.6730769230769 545.2857142857142Q713.6730769230769 544.2857142857142 710.6730769230769 540.2857142857142Q707.6730769230769 536.2857142857142 702.6730769230769 533.2857142857142Q698.6730769230769 530.2857142857142 694.1730769230769 528.2857142857142Q689.6730769230769 526.2857142857142 685.6730769230769 520.2857142857142Q670.6730769230769 525.2857142857142 656.1730769230769 534.7857142857142Q641.6730769230769 544.2857142857142 626.6730769230769 554.2857142857142Q611.6730769230769 564.2857142857142 595.6730769230769 573.7857142857142Q579.6730769230769 583.2857142857142 562.6730769230769 587.2857142857142Q544.6730769230769 592.2857142857142 536.1730769230769 585.7857142857142Q527.6730769230769 579.2857142857142 517.6730769230769 571.2857142857142Q510.6730769230769 565.2857142857142 508.6730769230769 563.7857142857142Q506.6730769230769 562.2857142857142 504.6730769230769 551.2857142857142Q501.6730769230769 529.2857142857142 504.1730769230769 503.7857142857142Q506.6730769230769 478.2857142857142 515.6730769230769 452.2857142857142Q540.6730769230769 376.2857142857142 617.6730769230769 350.2857142857142Q626.6730769230769 347.2857142857142 636.1730769230769 348.7857142857142Q645.6730769230769 350.2857142857142 654.6730769230769 354.2857142857142Q663.6730769230769 358.2857142857142 672.1730769230769 364.2857142857142Q680.6730769230769 370.2857142857142 687.6730769230769 376.2857142857142L703.6730769230769 389.2857142857142Q708.6730769230769 372.2857142857142 703.1730769230769 352.7857142857142Q697.6730769230769 333.2857142857142 686.6730769230769 315.7857142857142Q675.6730769230769 298.2857142857142 661.6730769230769 284.2857142857142Q647.6730769230769 270.2857142857142 634.6730769230769 265.2857142857142Q583.6730769230769 265.2857142857142 543.1730769230769 288.7857142857142Q502.6730769230769 312.2857142857142 464.6730769230769 350.2857142857142Q462.6730769230769 352.2857142857142 460.1730769230769 353.2857142857142Q457.6730769230769 354.2857142857142 455.6730769230769 355.2857142857142Q452.6730769230769 357.2857142857142 448.6730769230769 356.2857142857142Q445.6730769230769 355.2857142857142 447.6730769230769 350.2857142857142Q453.6730769230769 318.2857142857142 471.6730769230769 292.7857142857142Q489.6730769230769 267.2857142857142 513.6730769230769 248.28571428571422Q537.6730769230769 229.28571428571422 564.6730769230769 216.28571428571422Q591.6730769230769 203.28571428571422 617.6730769230769 197.28571428571422Q621.6730769230769 195.28571428571422 625.1730769230769 194.78571428571422Q628.6730769230769 194.28571428571422 633.6730769230769 194.28571428571422Q640.6730769230769 194.28571428571422 646.6730769230769 198.28571428571422Q652.6730769230769 202.28571428571422 660.6730769230769 207.28571428571422Q670.6730769230769 212.28571428571422 680.6730769230769 218.78571428571422Q690.6730769230769 225.28571428571422 698.6730769230769 234.28571428571422Q705.6730769230769 242.28571428571422 710.6730769230769 250.28571428571422Q715.6730769230769 258.2857142857142 719.6730769230769 265.2857142857142ZM685.6730769230769 443.2857142857142Q679.6730769230769 430.2857142857142 667.1730769230769 419.2857142857142Q654.6730769230769 408.2857142857142 638.6730769230769 402.7857142857142Q622.6730769230769 397.2857142857142 604.1730769230769 400.2857142857142Q585.6730769230769 403.2857142857142 566.6730769230769 418.2857142857142Q560.6730769230769 431.2857142857142 554.6730769230769 446.7857142857142Q548.6730769230769 462.2857142857142 545.6730769230769 477.7857142857142Q542.6730769230769 493.2857142857142 543.1730769230769 508.7857142857142Q543.6730769230769 524.2857142857142 549.6730769230769 537.2857142857142Q587.6730769230769 524.2857142857142 623.6730769230769 507.2857142857142Q659.6730769230769 490.2857142857142 685.6730769230769 477.2857142857142Q691.6730769230769 471.2857142857142 692.6730769230769 467.2857142857142Q693.6730769230769 463.2857142857142 692.1730769230769 460.2857142857142Q690.6730769230769 457.2857142857142 688.1730769230769 453.2857142857142Q685.6730769230769 449.2857142857142 685.6730769230769 443.2857142857142ZM901.6730769230769 424.2857142857142Q918.6730769230769 407.2857142857142 936.1730769230769 387.7857142857142Q953.6730769230769 368.2857142857142 972.6730769230769 350.2857142857142Q991.6730769230769 332.2857142857142 1011.6730769230769 317.7857142857142Q1031.673076923077 303.2857142857142 1053.673076923077 294.2857142857142Q1058.673076923077 292.2857142857142 1063.173076923077 293.2857142857142Q1067.673076923077 294.2857142857142 1072.673076923077 292.2857142857142Q1080.673076923077 292.2857142857142 1086.673076923077 292.2857142857142Q1092.673076923077 292.2857142857142 1097.673076923077 296.2857142857142Q1111.673076923077 305.2857142857142 1120.173076923077 321.7857142857142Q1128.673076923077 338.2857142857142 1134.673076923077 358.2857142857142Q1138.673076923077 369.2857142857142 1139.173076923077 379.2857142857142Q1139.673076923077 389.2857142857142 1144.673076923077 402.2857142857142Q1150.673076923077 421.2857142857142 1158.173076923077 440.7857142857142Q1165.673076923077 460.2857142857142 1163.673076923077 478.2857142857142Q1162.673076923077 483.2857142857142 1160.673076923077 486.7857142857142Q1158.673076923077 490.2857142857142 1155.673076923077 495.2857142857142Q1153.673076923077 499.2857142857142 1148.673076923077 505.2857142857142Q1143.673076923077 511.2857142857142 1138.673076923077 514.2857142857142Q1133.673076923077 518.2857142857142 1132.173076923077 520.7857142857142Q1130.673076923077 523.2857142857142 1122.673076923077 526.2857142857142Q1109.673076923077 507.2857142857142 1102.673076923077 485.2857142857142Q1095.673076923077 463.2857142857142 1090.673076923077 439.2857142857142Q1085.673076923077 415.2857142857142 1081.673076923077 390.2857142857142Q1077.673076923077 365.2857142857142 1071.673076923077 339.2857142857142Q1069.673076923077 332.2857142857142 1059.173076923077 331.2857142857142Q1048.673076923077 330.2857142857142 1035.173076923077 337.7857142857142Q1021.6730769230769 345.2857142857142 1006.6730769230769 361.2857142857142Q991.6730769230769 377.2857142857142 979.6730769230769 402.2857142857142Q971.6730769230769 420.2857142857142 964.6730769230769 439.7857142857142Q957.6730769230769 459.2857142857142 949.1730769230769 478.7857142857142Q940.6730769230769 498.2857142857142 929.1730769230769 516.7857142857142Q917.6730769230769 535.2857142857142 901.6730769230769 550.2857142857142Q896.6730769230769 555.2857142857142 894.6730769230769 551.2857142857142Q892.6730769230769 547.2857142857142 884.6730769230769 544.2857142857142Q878.6730769230769 542.2857142857142 878.1730769230769 540.2857142857142Q877.6730769230769 538.2857142857142 874.6730769230769 528.2857142857142Q868.6730769230769 507.2857142857142 862.1730769230769 480.2857142857142Q855.6730769230769 453.2857142857142 848.1730769230769 423.2857142857142Q840.6730769230769 393.2857142857142 832.6730769230769 362.7857142857142Q824.6730769230769 332.2857142857142 816.6730769230769 305.2857142857142L810.6730769230769 287.2857142857142Q812.6730769230769 283.2857142857142 818.1730769230769 280.2857142857142Q823.6730769230769 277.2857142857142 829.6730769230769 275.2857142857142Q835.6730769230769 273.2857142857142 842.6730769230769 276.2857142857142Q849.6730769230769 279.2857142857142 853.6730769230769 279.2857142857142Q864.6730769230769 279.2857142857142 873.1730769230769 293.2857142857142Q881.6730769230769 307.2857142857142 887.6730769230769 328.7857142857142Q893.6730769230769 350.2857142857142 897.1730769230769 375.7857142857142Q900.6730769230769 401.2857142857142 901.6730769230769 424.2857142857142ZM1489.673076923077 291.2857142857142Q1489.673076923077 361.2857142857142 1491.173076923077 421.2857142857142Q1492.673076923077 481.2857142857142 1502.673076923077 539.2857142857142Q1503.673076923077 545.2857142857142 1499.673076923077 552.2857142857142Q1495.673076923077 559.2857142857142 1491.673076923077 564.2857142857142Q1485.673076923077 571.2857142857142 1480.673076923077 577.7857142857142Q1475.673076923077 584.2857142857142 1470.673076923077 586.2857142857142Q1460.673076923077 591.2857142857142 1458.673076923077 588.2857142857142Q1456.673076923077 585.2857142857142 1455.673076923077 580.2857142857142Q1451.673076923077 561.2857142857142 1445.173076923077 528.7857142857142Q1438.673076923077 496.2857142857142 1436.673076923077 463.2857142857142Q1424.673076923077 483.2857142857142 1410.173076923077 503.7857142857142Q1395.673076923077 524.2857142857142 1379.173076923077 541.2857142857142Q1362.673076923077 558.2857142857142 1345.673076923077 571.7857142857142Q1328.673076923077 585.2857142857142 1312.673076923077 591.2857142857142Q1305.673076923077 594.2857142857142 1303.173076923077 592.2857142857142Q1300.673076923077 590.2857142857142 1294.673076923077 588.2857142857142Q1285.673076923077 584.2857142857142 1277.173076923077 580.7857142857142Q1268.673076923077 577.2857142857142 1263.673076923077 570.2857142857142Q1252.673076923077 551.2857142857142 1245.673076923077 533.2857142857142Q1234.673076923077 504.2857142857142 1232.173076923077 472.2857142857142Q1229.673076923077 440.2857142857142 1231.673076923077 408.2857142857142Q1233.673076923077 376.2857142857142 1238.673076923077 346.2857142857142Q1243.673076923077 316.2857142857142 1248.673076923077 291.2857142857142Q1249.673076923077 286.2857142857142 1253.673076923077 284.7857142857142Q1257.673076923077 283.2857142857142 1258.673076923077 278.2857142857142Q1260.673076923077 270.2857142857142 1266.173076923077 267.2857142857142Q1271.673076923077 264.2857142857142 1277.673076923077 262.2857142857142Q1285.673076923077 260.2857142857142 1290.173076923077 258.7857142857142Q1294.673076923077 257.2857142857142 1302.673076923077 257.2857142857142Q1293.673076923077 286.2857142857142 1288.673076923077 323.2857142857142Q1283.673076923077 360.2857142857142 1284.173076923077 398.7857142857142Q1284.673076923077 437.2857142857142 1291.173076923077 473.2857142857142Q1297.673076923077 509.2857142857142 1310.673076923077 536.2857142857142Q1329.673076923077 523.2857142857142 1348.173076923077 504.2857142857142Q1366.673076923077 485.2857142857142 1382.673076923077 464.7857142857142Q1398.673076923077 444.2857142857142 1411.173076923077 425.2857142857142Q1423.673076923077 406.2857142857142 1429.673076923077 393.2857142857142Q1435.673076923077 373.2857142857142 1437.173076923077 347.7857142857142Q1438.673076923077 322.2857142857142 1438.673076923077 302.2857142857142Q1437.673076923077 293.2857142857142 1440.173076923077 288.2857142857142Q1442.673076923077 283.2857142857142 1445.673076923077 277.2857142857142Q1447.673076923077 274.2857142857142 1448.173076923077 271.2857142857142Q1448.673076923077 268.2857142857142 1451.673076923077 266.2857142857142Q1453.673076923077 264.2857142857142 1456.173076923077 260.7857142857142Q1458.673076923077 257.2857142857142 1461.673076923077 257.2857142857142Q1467.673076923077 257.2857142857142 1469.673076923077 263.2857142857142Q1471.673076923077 269.2857142857142 1475.673076923077 272.2857142857142Q1480.673076923077 277.2857142857142 1485.173076923077 279.7857142857142Q1489.673076923077 282.2857142857142 1489.673076923077 291.2857142857142ZM1601.673076923077 254.28571428571422Q1607.673076923077 280.2857142857142 1606.673076923077 308.2857142857142Q1605.673076923077 336.2857142857142 1604.173076923077 364.7857142857142Q1602.673076923077 393.2857142857142 1604.173076923077 421.7857142857142Q1605.673076923077 450.2857142857142 1618.673076923077 475.2857142857142Q1641.673076923077 418.2857142857142 1681.673076923077 371.7857142857142Q1721.673076923077 325.2857142857142 1766.673076923077 288.2857142857142Q1772.673076923077 283.2857142857142 1779.173076923077 281.7857142857142Q1785.673076923077 280.2857142857142 1791.673076923077 278.2857142857142Q1796.673076923077 276.2857142857142 1801.173076923077 274.7857142857142Q1805.673076923077 273.2857142857142 1813.673076923077 277.2857142857142Q1833.673076923077 288.2857142857142 1836.673076923077 319.2857142857142Q1839.673076923077 350.2857142857142 1839.673076923077 407.2857142857142Q1854.673076923077 392.2857142857142 1870.173076923077 373.7857142857142Q1885.673076923077 355.2857142857142 1901.673076923077 338.2857142857142Q1917.673076923077 321.2857142857142 1934.673076923077 308.2857142857142Q1951.673076923077 295.2857142857142 1970.673076923077 289.2857142857142Q1976.673076923077 287.2857142857142 1983.173076923077 288.7857142857142Q1989.673076923077 290.2857142857142 1995.673076923077 290.2857142857142Q1999.673076923077 290.2857142857142 2002.673076923077 288.7857142857142Q2005.673076923077 287.2857142857142 2009.673076923077 288.2857142857142Q2015.673076923077 289.2857142857142 2020.173076923077 294.2857142857142Q2024.673076923077 299.2857142857142 2026.673076923077 305.2857142857142Q2030.673076923077 320.2857142857142 2037.673076923077 346.7857142857142Q2044.673076923077 373.2857142857142 2050.173076923077 400.7857142857142Q2055.673076923077 428.2857142857142 2058.673076923077 452.2857142857142Q2061.673076923077 476.2857142857142 2058.673076923077 486.2857142857142Q2056.673076923077 495.2857142857142 2054.173076923077 498.2857142857142Q2051.673076923077 501.2857142857142 2043.673076923077 509.2857142857142Q2041.673076923077 509.2857142857142 2039.173076923077 512.2857142857142Q2036.673076923077 515.2857142857142 2033.673076923077 518.2857142857142Q2029.673076923077 522.2857142857142 2026.673076923077 526.2857142857142Q2013.673076923077 507.2857142857142 2006.673076923077 485.2857142857142Q1999.673076923077 463.2857142857142 1994.673076923077 439.2857142857142Q1989.673076923077 415.2857142857142 1985.673076923077 390.2857142857142Q1981.673076923077 365.2857142857142 1975.673076923077 339.2857142857142Q1946.673076923077 354.2857142857142 1930.173076923077 373.7857142857142Q1913.673076923077 393.2857142857142 1903.673076923077 414.7857142857142Q1893.673076923077 436.2857142857142 1885.673076923077 458.2857142857142Q1877.673076923077 480.2857142857142 1865.673076923077 500.2857142857142Q1854.673076923077 517.2857142857142 1843.673076923077 527.2857142857142Q1832.673076923077 537.2857142857142 1825.673076923077 536.2857142857142Q1819.673076923077 535.2857142857142 1816.673076923077 525.2857142857142Q1813.673076923077 515.2857142857142 1808.673076923077 495.2857142857142Q1798.673076923077 454.2857142857142 1790.173076923077 407.2857142857142Q1781.673076923077 360.2857142857142 1771.673076923077 322.2857142857142Q1752.673076923077 328.2857142857142 1734.173076923077 343.7857142857142Q1715.673076923077 359.2857142857142 1699.673076923077 379.7857142857142Q1683.673076923077 400.2857142857142 1671.173076923077 425.2857142857142Q1658.673076923077 450.2857142857142 1652.673076923077 475.2857142857142Q1665.673076923077 501.2857142857142 1653.673076923077 518.2857142857142Q1648.673076923077 526.2857142857142 1639.673076923077 531.7857142857142Q1630.673076923077 537.2857142857142 1618.673076923077 543.2857142857142Q1611.673076923077 550.2857142857142 1603.673076923077 548.2857142857142Q1595.673076923077 546.2857142857142 1590.673076923077 538.7857142857142Q1585.673076923077 531.2857142857142 1584.673076923077 526.2857142857142Q1578.673076923077 494.2857142857142 1572.673076923077 459.7857142857142Q1566.673076923077 425.2857142857142 1565.173076923077 390.2857142857142Q1563.673076923077 355.2857142857142 1567.673076923077 320.7857142857142Q1571.673076923077 286.2857142857142 1584.673076923077 254.28571428571422Q1586.673076923077 248.28571428571422 1588.673076923077 248.28571428571422Q1590.673076923077 248.28571428571422 1592.673076923077 249.78571428571422Q1594.673076923077 251.28571428571422 1596.673076923077 252.28571428571422Q1598.673076923077 253.28571428571422 1599.173076923077 253.28571428571422Q1599.673076923077 253.28571428571422 1601.673076923077 254.28571428571422ZM2688.673076923077 166.28571428571422Q2690.673076923077 180.28571428571422 2687.173076923077 186.28571428571422Q2683.673076923077 192.28571428571422 2681.673076923077 205.28571428571422Q2676.673076923077 237.28571428571422 2664.673076923077 264.7857142857142Q2652.673076923077 292.2857142857142 2634.673076923077 319.2857142857142Q2654.673076923077 319.2857142857142 2679.173076923077 320.2857142857142Q2703.673076923077 321.2857142857142 2726.673076923077 327.2857142857142Q2733.673076923077 329.2857142857142 2739.173076923077 334.2857142857142Q2744.673076923077 339.2857142857142 2749.673076923077 343.2857142857142Q2757.673076923077 348.2857142857142 2763.673076923077 352.2857142857142Q2769.673076923077 356.2857142857142 2773.673076923077 363.2857142857142Q2783.673076923077 382.2857142857142 2782.173076923077 400.7857142857142Q2780.673076923077 419.2857142857142 2770.673076923077 438.2857142857142Q2744.673076923077 489.2857142857142 2698.173076923077 542.2857142857142Q2651.673076923077 595.2857142857142 2600.673076923077 642.2857142857142Q2591.673076923077 648.2857142857142 2584.673076923077 648.7857142857142Q2577.673076923077 649.2857142857142 2571.673076923077 651.2857142857142Q2562.673076923077 655.2857142857142 2554.173076923077 657.2857142857142Q2545.673076923077 659.2857142857142 2542.673076923077 657.2857142857142Q2538.673076923077 654.2857142857142 2542.673076923077 650.7857142857142Q2546.673076923077 647.2857142857142 2549.673076923077 642.2857142857142Q2568.673076923077 610.2857142857142 2597.173076923077 579.7857142857142Q2625.673076923077 549.2857142857142 2655.673076923077 518.2857142857142Q2685.673076923077 487.2857142857142 2714.173076923077 456.7857142857142Q2742.673076923077 426.2857142857142 2761.673076923077 394.2857142857142Q2742.673076923077 384.2857142857142 2710.173076923077 380.2857142857142Q2677.673076923077 376.2857142857142 2642.673076923077 376.2857142857142Q2607.673076923077 376.2857142857142 2576.673076923077 381.2857142857142Q2545.673076923077 386.2857142857142 2530.673076923077 394.2857142857142Q2530.673076923077 401.2857142857142 2530.673076923077 412.7857142857142Q2530.673076923077 424.2857142857142 2529.673076923077 437.2857142857142Q2528.673076923077 450.2857142857142 2528.173076923077 463.7857142857142Q2527.673076923077 477.2857142857142 2526.673076923077 489.2857142857142Q2523.673076923077 503.2857142857142 2526.673076923077 514.2857142857142Q2529.673076923077 525.2857142857142 2531.673076923077 536.2857142857142Q2533.673076923077 549.2857142857142 2533.673076923077 559.2857142857142Q2533.673076923077 569.2857142857142 2533.673076923077 580.2857142857142Q2533.673076923077 586.2857142857142 2534.673076923077 593.7857142857142Q2535.673076923077 601.2857142857142 2532.673076923077 608.2857142857142Q2506.673076923077 578.2857142857142 2491.673076923077 537.2857142857142Q2476.673076923077 496.2857142857142 2468.673076923077 450.2857142857142Q2460.673076923077 404.2857142857142 2458.673076923077 356.2857142857142Q2456.673076923077 308.2857142857142 2457.673076923077 263.7857142857142Q2458.673076923077 219.28571428571422 2461.173076923077 182.28571428571422Q2463.673076923077 145.28571428571422 2465.673076923077 120.28571428571422Q2454.673076923077 119.28571428571422 2438.673076923077 121.78571428571422Q2422.673076923077 124.28571428571422 2408.673076923077 127.28571428571422Q2405.673076923077 127.28571428571422 2400.673076923077 127.28571428571422Q2395.673076923077 127.28571428571422 2390.173076923077 126.78571428571422Q2384.673076923077 126.28571428571422 2380.673076923077 125.28571428571422Q2376.673076923077 124.28571428571422 2375.673076923077 123.28571428571422Q2372.673076923077 120.28571428571422 2370.173076923077 122.78571428571422Q2367.673076923077 125.28571428571422 2365.673076923077 121.28571428571422Q2361.673076923077 113.28571428571422 2364.673076923077 106.78571428571422Q2367.673076923077 100.28571428571422 2362.673076923077 92.28571428571422Q2371.673076923077 76.28571428571422 2395.173076923077 71.28571428571422Q2418.673076923077 66.28571428571422 2447.673076923077 64.28571428571422Q2471.673076923077 59.28571428571422 2498.173076923077 58.28571428571422Q2524.673076923077 57.28571428571422 2551.173076923077 60.78571428571422Q2577.673076923077 64.28571428571422 2601.673076923077 73.28571428571422Q2625.673076923077 82.28571428571422 2645.673076923077 97.28571428571422Q2657.673076923077 106.28571428571422 2668.673076923077 120.28571428571422Q2673.673076923077 127.28571428571422 2679.173076923077 142.78571428571422Q2684.673076923077 158.28571428571422 2688.673076923077 166.28571428571422ZM2641.673076923077 166.28571428571422Q2635.673076923077 153.28571428571422 2622.173076923077 143.78571428571422Q2608.673076923077 134.28571428571422 2593.173076923077 128.28571428571422Q2577.673076923077 122.28571428571422 2561.173076923077 119.28571428571422Q2544.673076923077 116.28571428571422 2531.673076923077 116.28571428571422Q2529.673076923077 128.28571428571422 2527.173076923077 154.78571428571422Q2524.673076923077 181.28571428571422 2523.173076923077 211.78571428571422Q2521.673076923077 242.28571428571422 2520.673076923077 271.7857142857142Q2519.673076923077 301.2857142857142 2521.673076923077 320.2857142857142Q2540.673076923077 312.2857142857142 2559.673076923077 299.2857142857142Q2578.673076923077 286.2857142857142 2594.673076923077 267.2857142857142Q2610.673076923077 248.28571428571422 2623.173076923077 223.28571428571422Q2635.673076923077 198.28571428571422 2641.673076923077 166.28571428571422ZM3171.673076923077 237.28571428571422Q3171.673076923077 246.28571428571422 3174.673076923077 259.7857142857142Q3177.673076923077 273.2857142857142 3172.673076923077 281.2857142857142Q3170.673076923077 283.2857142857142 3170.673076923077 288.7857142857142Q3170.673076923077 294.2857142857142 3167.673076923077 296.2857142857142L3154.673076923077 288.2857142857142Q3138.673076923077 280.2857142857142 3119.173076923077 281.2857142857142Q3099.673076923077 282.2857142857142 3079.673076923077 290.2857142857142Q3065.673076923077 296.2857142857142 3052.173076923077 306.7857142857142Q3038.673076923077 317.2857142857142 3026.673076923077 330.2857142857142Q3014.673076923077 343.2857142857142 3004.673076923077 357.2857142857142Q2994.673076923077 371.2857142857142 2987.673076923077 384.2857142857142Q2971.673076923077 413.2857142857142 2972.173076923077 454.2857142857142Q2972.673076923077 495.2857142857142 3001.673076923077 560.2857142857142Q3001.673076923077 567.2857142857142 2991.673076923077 577.2857142857142Q2989.673076923077 579.2857142857142 2986.673076923077 583.2857142857142Q2983.673076923077 587.2857142857142 2981.673076923077 589.2857142857142Q2973.673076923077 596.2857142857142 2972.173076923077 601.2857142857142Q2970.673076923077 606.2857142857142 2965.673076923077 608.2857142857142Q2957.673076923077 611.2857142857142 2950.673076923077 594.2857142857142Q2933.673076923077 564.2857142857142 2918.173076923077 520.7857142857142Q2902.673076923077 477.2857142857142 2889.173076923077 431.2857142857142Q2875.673076923077 385.2857142857142 2865.173076923077 342.7857142857142Q2854.673076923077 300.2857142857142 2848.673076923077 271.2857142857142Q2845.673076923077 263.2857142857142 2847.673076923077 255.78571428571422Q2849.673076923077 248.28571428571422 2853.673076923077 243.28571428571422Q2856.673076923077 239.28571428571422 2861.173076923077 241.28571428571422Q2865.673076923077 243.28571428571422 2868.673076923077 243.28571428571422Q2881.673076923077 243.28571428571422 2884.673076923077 248.28571428571422Q2887.673076923077 253.28571428571422 2894.673076923077 261.2857142857142Q2908.673076923077 277.2857142857142 2916.673076923077 304.2857142857142Q2924.673076923077 331.2857142857142 2936.673076923077 368.2857142857142Q2952.673076923077 341.2857142857142 2978.173076923077 316.2857142857142Q3003.673076923077 291.2857142857142 3033.673076923077 270.7857142857142Q3063.673076923077 250.28571428571422 3095.673076923077 237.28571428571422Q3127.673076923077 224.28571428571422 3157.673076923077 221.28571428571422Q3163.673076923077 220.28571428571422 3168.173076923077 224.78571428571422Q3172.673076923077 229.28571428571422 3171.673076923077 237.28571428571422ZM3479.673076923077 291.2857142857142Q3479.673076923077 361.2857142857142 3481.173076923077 421.2857142857142Q3482.673076923077 481.2857142857142 3492.673076923077 539.2857142857142Q3493.673076923077 545.2857142857142 3489.673076923077 552.2857142857142Q3485.673076923077 559.2857142857142 3481.673076923077 564.2857142857142Q3475.673076923077 571.2857142857142 3470.673076923077 577.7857142857142Q3465.673076923077 584.2857142857142 3460.673076923077 586.2857142857142Q3450.673076923077 591.2857142857142 3448.673076923077 588.2857142857142Q3446.673076923077 585.2857142857142 3445.673076923077 580.2857142857142Q3441.673076923077 561.2857142857142 3435.173076923077 528.7857142857142Q3428.673076923077 496.2857142857142 3426.673076923077 463.2857142857142Q3414.673076923077 483.2857142857142 3400.173076923077 503.7857142857142Q3385.673076923077 524.2857142857142 3369.173076923077 541.2857142857142Q3352.673076923077 558.2857142857142 3335.673076923077 571.7857142857142Q3318.673076923077 585.2857142857142 3302.673076923077 591.2857142857142Q3295.673076923077 594.2857142857142 3293.173076923077 592.2857142857142Q3290.673076923077 590.2857142857142 3284.673076923077 588.2857142857142Q3275.673076923077 584.2857142857142 3267.173076923077 580.7857142857142Q3258.673076923077 577.2857142857142 3253.673076923077 570.2857142857142Q3242.673076923077 551.2857142857142 3235.673076923077 533.2857142857142Q3224.673076923077 504.2857142857142 3222.173076923077 472.2857142857142Q3219.673076923077 440.2857142857142 3221.673076923077 408.2857142857142Q3223.673076923077 376.2857142857142 3228.673076923077 346.2857142857142Q3233.673076923077 316.2857142857142 3238.673076923077 291.2857142857142Q3239.673076923077 286.2857142857142 3243.673076923077 284.7857142857142Q3247.673076923077 283.2857142857142 3248.673076923077 278.2857142857142Q3250.673076923077 270.2857142857142 3256.173076923077 267.2857142857142Q3261.673076923077 264.2857142857142 3267.673076923077 262.2857142857142Q3275.673076923077 260.2857142857142 3280.173076923077 258.7857142857142Q3284.673076923077 257.2857142857142 3292.673076923077 257.2857142857142Q3283.673076923077 286.2857142857142 3278.673076923077 323.2857142857142Q3273.673076923077 360.2857142857142 3274.173076923077 398.7857142857142Q3274.673076923077 437.2857142857142 3281.173076923077 473.2857142857142Q3287.673076923077 509.2857142857142 3300.673076923077 536.2857142857142Q3319.673076923077 523.2857142857142 3338.173076923077 504.2857142857142Q3356.673076923077 485.2857142857142 3372.673076923077 464.7857142857142Q3388.673076923077 444.2857142857142 3401.173076923077 425.2857142857142Q3413.673076923077 406.2857142857142 3419.673076923077 393.2857142857142Q3425.673076923077 373.2857142857142 3427.173076923077 347.7857142857142Q3428.673076923077 322.2857142857142 3428.673076923077 302.2857142857142Q3427.673076923077 293.2857142857142 3430.173076923077 288.2857142857142Q3432.673076923077 283.2857142857142 3435.673076923077 277.2857142857142Q3437.673076923077 274.2857142857142 3438.173076923077 271.2857142857142Q3438.673076923077 268.2857142857142 3441.673076923077 266.2857142857142Q3443.673076923077 264.2857142857142 3446.173076923077 260.7857142857142Q3448.673076923077 257.2857142857142 3451.673076923077 257.2857142857142Q3457.673076923077 257.2857142857142 3459.673076923077 263.2857142857142Q3461.673076923077 269.2857142857142 3465.673076923077 272.2857142857142Q3470.673076923077 277.2857142857142 3475.173076923077 279.7857142857142Q3479.673076923077 282.2857142857142 3479.673076923077 291.2857142857142ZM3806.673076923077 289.2857142857142Q3801.673076923077 304.2857142857142 3798.673076923077 312.2857142857142Q3795.673076923077 320.2857142857142 3789.673076923077 314.2857142857142Q3775.673076923077 300.2857142857142 3755.673076923077 284.2857142857142Q3735.673076923077 268.2857142857142 3706.673076923077 264.2857142857142Q3687.673076923077 262.2857142857142 3666.173076923077 268.7857142857142Q3644.673076923077 275.2857142857142 3633.673076923077 296.2857142857142Q3623.673076923077 314.2857142857142 3630.673076923077 339.2857142857142Q3636.673076923077 365.2857142857142 3657.173076923077 376.7857142857142Q3677.673076923077 388.2857142857142 3703.173076923077 394.7857142857142Q3728.673076923077 401.2857142857142 3755.173076923077 406.2857142857142Q3781.673076923077 411.2857142857142 3800.673076923077 424.2857142857142Q3806.673076923077 427.2857142857142 3810.173076923077 433.7857142857142Q3813.673076923077 440.2857142857142 3817.673076923077 445.2857142857142Q3822.673076923077 451.2857142857142 3827.173076923077 455.2857142857142Q3831.673076923077 459.2857142857142 3835.673076923077 467.2857142857142Q3838.673076923077 473.2857142857142 3842.673076923077 481.7857142857142Q3846.673076923077 490.2857142857142 3844.673076923077 500.2857142857142Q3841.673076923077 513.2857142857142 3819.673076923077 528.2857142857142Q3771.673076923077 559.2857142857142 3718.673076923077 577.7857142857142Q3665.673076923077 596.2857142857142 3606.673076923077 584.2857142857142Q3599.673076923077 582.2857142857142 3590.673076923077 570.7857142857142Q3581.673076923077 559.2857142857142 3575.673076923077 555.2857142857142Q3559.673076923077 546.2857142857142 3553.673076923077 532.2857142857142Q3545.673076923077 506.2857142857142 3545.673076923077 475.2857142857142Q3545.673076923077 465.2857142857142 3549.173076923077 465.7857142857142Q3552.673076923077 466.2857142857142 3555.673076923077 466.2857142857142Q3561.673076923077 466.2857142857142 3569.173076923077 474.2857142857142Q3576.673076923077 482.2857142857142 3585.173076923077 492.7857142857142Q3593.673076923077 503.2857142857142 3601.173076923077 511.7857142857142Q3608.673076923077 520.2857142857142 3613.673076923077 520.2857142857142Q3630.673076923077 528.2857142857142 3654.673076923077 529.2857142857142Q3678.673076923077 530.2857142857142 3703.173076923077 524.7857142857142Q3727.673076923077 519.2857142857142 3749.173076923077 506.7857142857142Q3770.673076923077 494.2857142857142 3783.673076923077 475.2857142857142Q3783.673076923077 470.2857142857142 3772.173076923077 463.2857142857142Q3760.673076923077 456.2857142857142 3742.673076923077 447.7857142857142Q3724.673076923077 439.2857142857142 3703.173076923077 430.2857142857142Q3681.673076923077 421.2857142857142 3662.173076923077 411.2857142857142Q3642.673076923077 401.2857142857142 3628.173076923077 390.2857142857142Q3613.673076923077 379.2857142857142 3608.673076923077 368.2857142857142Q3605.673076923077 360.2857142857142 3601.673076923077 351.7857142857142Q3597.673076923077 343.2857142857142 3596.673076923077 339.2857142857142Q3591.673076923077 317.2857142857142 3594.673076923077 296.7857142857142Q3597.673076923077 276.2857142857142 3606.673076923077 260.2857142857142Q3615.673076923077 244.28571428571422 3630.673076923077 233.78571428571422Q3645.673076923077 223.28571428571422 3664.673076923077 220.28571428571422Q3694.673076923077 216.28571428571422 3729.173076923077 219.78571428571422Q3763.673076923077 223.28571428571422 3790.673076923077 243.28571428571422Q3798.673076923077 250.28571428571422 3802.173076923077 256.2857142857142Q3805.673076923077 262.2857142857142 3807.673076923077 270.2857142857142Q3808.673076923077 275.2857142857142 3809.673076923077 279.7857142857142Q3810.673076923077 284.2857142857142 3806.673076923077 289.2857142857142ZM3985.673076923077 367.2857142857142Q4008.673076923077 333.2857142857142 4040.673076923077 312.7857142857142Q4072.673076923077 292.2857142857142 4114.673076923077 295.2857142857142Q4120.673076923077 296.2857142857142 4127.673076923077 299.7857142857142Q4134.673076923077 303.2857142857142 4140.673076923077 306.2857142857142Q4155.673076923077 314.2857142857142 4168.673076923077 329.7857142857142Q4181.673076923077 345.2857142857142 4192.173076923077 364.7857142857142Q4202.673076923077 384.2857142857142 4209.673076923077 405.2857142857142Q4216.673076923077 426.2857142857142 4219.673076923077 444.2857142857142Q4221.673076923077 455.2857142857142 4222.673076923077 472.2857142857142Q4223.673076923077 489.2857142857142 4223.673076923077 503.2857142857142Q4221.673076923077 503.2857142857142 4221.673076923077 504.2857142857142Q4221.673076923077 505.2857142857142 4219.673076923077 504.2857142857142Q4211.673076923077 500.2857142857142 4206.673076923077 493.2857142857142Q4204.673076923077 491.2857142857142 4200.673076923077 488.7857142857142Q4196.673076923077 486.2857142857142 4195.673076923077 482.2857142857142Q4193.673076923077 472.2857142857142 4191.173076923077 455.7857142857142Q4188.673076923077 439.2857142857142 4182.673076923077 420.2857142857142Q4176.673076923077 401.2857142857142 4167.673076923077 382.7857142857142Q4158.673076923077 364.2857142857142 4145.673076923077 350.2857142857142Q4140.673076923077 345.2857142857142 4137.173076923077 342.7857142857142Q4133.673076923077 340.2857142857142 4128.673076923077 337.2857142857142Q4123.673076923077 333.2857142857142 4113.673076923077 331.7857142857142Q4103.673076923077 330.2857142857142 4096.673076923077 332.2857142857142Q4079.673076923077 337.2857142857142 4060.673076923077 351.2857142857142Q4041.673076923077 365.2857142857142 4027.673076923077 385.7857142857142Q4013.673076923077 406.2857142857142 4007.673076923077 433.2857142857142Q4001.673076923077 460.2857142857142 4012.673076923077 491.2857142857142Q4015.673076923077 500.2857142857142 4016.673076923077 505.7857142857142Q4017.673076923077 511.2857142857142 4017.173076923077 516.2857142857142Q4016.673076923077 521.2857142857142 4013.673076923077 527.2857142857142Q4010.673076923077 533.2857142857142 4005.673076923077 543.2857142857142Q3997.673076923077 555.2857142857142 3987.173076923077 560.2857142857142Q3976.673076923077 565.2857142857142 3968.673076923077 571.2857142857142Q3939.673076923077 488.2857142857142 3924.173076923077 405.2857142857142Q3908.673076923077 322.2857142857142 3905.173076923077 248.28571428571422Q3901.673076923077 174.28571428571422 3909.673076923077 112.78571428571422Q3917.673076923077 51.28571428571422 3934.673076923077 10.28571428571422Q3937.673076923077 -1.7142857142857792 3947.673076923077 0.28571428571422075Q3952.673076923077 1.2857142857142208 3955.673076923077 4.285714285714221Q3958.673076923077 7.285714285714221 3963.673076923077 12.28571428571422Q3967.673076923077 17.28571428571422 3970.673076923077 20.78571428571422Q3973.673076923077 24.28571428571422 3974.673076923077 30.28571428571422Q3975.673076923077 35.28571428571422 3979.673076923077 35.28571428571422Q3983.673076923077 35.28571428571422 3982.673076923077 40.28571428571422Q3973.673076923077 95.28571428571422 3970.673076923077 142.28571428571422Q3967.673076923077 189.28571428571422 3969.173076923077 229.28571428571422Q3970.673076923077 269.2857142857142 3975.673076923077 303.2857142857142Q3980.673076923077 337.2857142857142 3985.673076923077 367.2857142857142ZM4893.673076923077 167.28571428571422Q4891.673076923077 171.28571428571422 4893.673076923077 173.28571428571422Q4895.673076923077 175.28571428571422 4893.673076923077 177.28571428571422Q4890.673076923077 179.28571428571422 4883.173076923077 179.78571428571422Q4875.673076923077 180.28571428571422 4870.673076923077 181.28571428571422Q4863.673076923077 183.28571428571422 4856.673076923077 182.78571428571422Q4849.673076923077 182.28571428571422 4841.673076923077 177.28571428571422Q4829.673076923077 171.28571428571422 4812.173076923077 165.78571428571422Q4794.673076923077 160.28571428571422 4774.673076923077 160.28571428571422Q4748.673076923077 160.28571428571422 4719.673076923077 165.78571428571422Q4690.673076923077 171.28571428571422 4664.173076923077 180.78571428571422Q4637.673076923077 190.28571428571422 4617.173076923077 204.28571428571422Q4596.673076923077 218.28571428571422 4587.673076923077 235.28571428571422Q4581.673076923077 248.28571428571422 4582.673076923077 262.7857142857142Q4583.673076923077 277.2857142857142 4589.673076923077 290.2857142857142Q4595.673076923077 303.2857142857142 4604.173076923077 313.7857142857142Q4612.673076923077 324.2857142857142 4620.673076923077 328.2857142857142Q4645.673076923077 341.2857142857142 4676.173076923077 345.2857142857142Q4706.673076923077 349.2857142857142 4739.173076923077 350.2857142857142Q4771.673076923077 351.2857142857142 4803.673076923077 353.2857142857142Q4835.673076923077 355.2857142857142 4862.673076923077 363.2857142857142Q4876.673076923077 368.2857142857142 4889.173076923077 371.2857142857142Q4901.673076923077 374.2857142857142 4911.673076923077 379.7857142857142Q4921.673076923077 385.2857142857142 4930.173076923077 394.7857142857142Q4938.673076923077 404.2857142857142 4944.673076923077 422.2857142857142Q4953.673076923077 460.2857142857142 4940.673076923077 496.2857142857142Q4927.673076923077 533.2857142857142 4897.673076923077 561.7857142857142Q4867.673076923077 590.2857142857142 4829.673076923077 607.2857142857142Q4799.673076923077 620.2857142857142 4768.173076923077 624.7857142857142Q4736.673076923077 629.2857142857142 4707.173076923077 623.2857142857142Q4677.673076923077 617.2857142857142 4653.173076923077 600.2857142857142Q4628.673076923077 583.2857142857142 4613.673076923077 553.2857142857142Q4604.673076923077 534.2857142857142 4604.673076923077 507.2857142857142Q4603.673076923077 504.2857142857142 4604.673076923077 501.2857142857142Q4606.673076923077 494.2857142857142 4617.673076923077 494.2857142857142Q4621.673076923077 492.2857142857142 4628.173076923077 496.7857142857142Q4634.673076923077 501.2857142857142 4637.673076923077 502.2857142857142Q4645.673076923077 503.2857142857142 4653.173076923077 512.7857142857142Q4660.673076923077 522.2857142857142 4667.673076923077 528.2857142857142Q4692.673076923077 554.2857142857142 4724.173076923077 559.7857142857142Q4755.673076923077 565.2857142857142 4785.173076923077 559.7857142857142Q4814.673076923077 554.2857142857142 4839.673076923077 542.2857142857142Q4864.673076923077 530.2857142857142 4876.673076923077 520.2857142857142Q4883.673076923077 514.2857142857142 4892.173076923077 505.7857142857142Q4900.673076923077 497.2857142857142 4908.673076923077 486.7857142857142Q4916.673076923077 476.2857142857142 4922.173076923077 464.2857142857142Q4927.673076923077 452.2857142857142 4927.673076923077 439.2857142857142Q4924.673076923077 427.2857142857142 4911.673076923077 420.7857142857142Q4898.673076923077 414.2857142857142 4878.673076923077 410.2857142857142Q4843.673076923077 404.2857142857142 4809.673076923077 403.7857142857142Q4775.673076923077 403.2857142857142 4742.673076923077 404.2857142857142Q4709.673076923077 405.2857142857142 4677.673076923077 405.2857142857142Q4645.673076923077 405.2857142857142 4615.673076923077 398.2857142857142Q4606.673076923077 396.2857142857142 4598.173076923077 391.7857142857142Q4589.673076923077 387.2857142857142 4581.673076923077 382.2857142857142Q4573.673076923077 377.2857142857142 4569.673076923077 369.2857142857142Q4565.673076923077 361.2857142857142 4560.673076923077 352.2857142857142Q4555.673076923077 343.2857142857142 4551.173076923077 333.7857142857142Q4546.673076923077 324.2857142857142 4544.673076923077 313.2857142857142Q4539.673076923077 281.2857142857142 4545.173076923077 247.28571428571422Q4550.673076923077 213.28571428571422 4570.673076923077 184.28571428571422Q4586.673076923077 160.28571428571422 4614.173076923077 142.78571428571422Q4641.673076923077 125.28571428571422 4676.173076923077 115.78571428571422Q4710.673076923077 106.28571428571422 4749.673076923077 106.78571428571422Q4788.673076923077 107.28571428571422 4829.673076923077 119.28571428571422Q4834.673076923077 121.28571428571422 4841.673076923077 124.78571428571422Q4848.673076923077 128.28571428571422 4853.673076923077 130.28571428571422Q4867.673076923077 137.28571428571422 4878.673076923077 147.28571428571422Q4889.673076923077 157.28571428571422 4893.673076923077 167.28571428571422ZM5233.673076923077 316.2857142857142Q5236.673076923077 321.2857142857142 5236.173076923077 325.7857142857142Q5235.673076923077 330.2857142857142 5234.673076923077 333.2857142857142Q5226.673076923077 342.2857142857142 5221.673076923077 345.2857142857142Q5216.673076923077 348.2857142857142 5204.673076923077 354.2857142857142Q5201.673076923077 356.2857142857142 5199.173076923077 358.2857142857142Q5196.673076923077 360.2857142857142 5193.673076923077 360.2857142857142Q5188.673076923077 360.2857142857142 5178.173076923077 352.2857142857142Q5167.673076923077 344.2857142857142 5155.673076923077 336.2857142857142Q5143.673076923077 328.2857142857142 5130.173076923077 324.2857142857142Q5116.673076923077 320.2857142857142 5105.673076923077 327.2857142857142Q5094.673076923077 342.2857142857142 5084.673076923077 365.7857142857142Q5074.673076923077 389.2857142857142 5069.173076923077 415.2857142857142Q5063.673076923077 441.2857142857142 5065.673076923077 468.2857142857142Q5067.673076923077 495.2857142857142 5081.673076923077 518.2857142857142Q5139.673076923077 524.2857142857142 5184.673076923077 498.7857142857142Q5229.673076923077 473.2857142857142 5267.673076923077 435.2857142857142Q5267.673076923077 442.2857142857142 5264.173076923077 447.7857142857142Q5260.673076923077 453.2857142857142 5257.673076923077 459.2857142857142Q5253.673076923077 468.2857142857142 5249.173076923077 476.7857142857142Q5244.673076923077 485.2857142857142 5236.673076923077 493.2857142857142Q5222.673076923077 508.2857142857142 5205.173076923077 522.2857142857142Q5187.673076923077 536.2857142857142 5168.173076923077 546.7857142857142Q5148.673076923077 557.2857142857142 5128.173076923077 562.7857142857142Q5107.673076923077 568.2857142857142 5087.673076923077 566.2857142857142Q5076.673076923077 565.2857142857142 5072.173076923077 560.7857142857142Q5067.673076923077 556.2857142857142 5056.673076923077 551.2857142857142Q5050.673076923077 547.2857142857142 5041.173076923077 544.2857142857142Q5031.673076923077 541.2857142857142 5026.673076923077 536.2857142857142Q5016.673076923077 524.2857142857142 5011.673076923077 507.2857142857142Q5004.673076923077 485.2857142857142 5004.673076923077 459.2857142857142Q5004.673076923077 433.2857142857142 5008.173076923077 408.7857142857142Q5011.673076923077 384.2857142857142 5018.173076923077 364.2857142857142Q5024.673076923077 344.2857142857142 5029.673076923077 333.2857142857142Q5035.673076923077 320.2857142857142 5047.673076923077 310.7857142857142Q5059.673076923077 301.2857142857142 5074.173076923077 293.2857142857142Q5088.673076923077 285.2857142857142 5103.673076923077 278.2857142857142Q5118.673076923077 271.2857142857142 5131.673076923077 265.2857142857142Q5182.673076923077 265.2857142857142 5233.673076923077 316.2857142857142ZM5631.673076923077 237.28571428571422Q5631.673076923077 246.28571428571422 5634.673076923077 259.7857142857142Q5637.673076923077 273.2857142857142 5632.673076923077 281.2857142857142Q5630.673076923077 283.2857142857142 5630.673076923077 288.7857142857142Q5630.673076923077 294.2857142857142 5627.673076923077 296.2857142857142L5614.673076923077 288.2857142857142Q5598.673076923077 280.2857142857142 5579.173076923077 281.2857142857142Q5559.673076923077 282.2857142857142 5539.673076923077 290.2857142857142Q5525.673076923077 296.2857142857142 5512.173076923077 306.7857142857142Q5498.673076923077 317.2857142857142 5486.673076923077 330.2857142857142Q5474.673076923077 343.2857142857142 5464.673076923077 357.2857142857142Q5454.673076923077 371.2857142857142 5447.673076923077 384.2857142857142Q5431.673076923077 413.2857142857142 5432.173076923077 454.2857142857142Q5432.673076923077 495.2857142857142 5461.673076923077 560.2857142857142Q5461.673076923077 567.2857142857142 5451.673076923077 577.2857142857142Q5449.673076923077 579.2857142857142 5446.673076923077 583.2857142857142Q5443.673076923077 587.2857142857142 5441.673076923077 589.2857142857142Q5433.673076923077 596.2857142857142 5432.173076923077 601.2857142857142Q5430.673076923077 606.2857142857142 5425.673076923077 608.2857142857142Q5417.673076923077 611.2857142857142 5410.673076923077 594.2857142857142Q5393.673076923077 564.2857142857142 5378.173076923077 520.7857142857142Q5362.673076923077 477.2857142857142 5349.173076923077 431.2857142857142Q5335.673076923077 385.2857142857142 5325.173076923077 342.7857142857142Q5314.673076923077 300.2857142857142 5308.673076923077 271.2857142857142Q5305.673076923077 263.2857142857142 5307.673076923077 255.78571428571422Q5309.673076923077 248.28571428571422 5313.673076923077 243.28571428571422Q5316.673076923077 239.28571428571422 5321.173076923077 241.28571428571422Q5325.673076923077 243.28571428571422 5328.673076923077 243.28571428571422Q5341.673076923077 243.28571428571422 5344.673076923077 248.28571428571422Q5347.673076923077 253.28571428571422 5354.673076923077 261.2857142857142Q5368.673076923077 277.2857142857142 5376.673076923077 304.2857142857142Q5384.673076923077 331.2857142857142 5396.673076923077 368.2857142857142Q5412.673076923077 341.2857142857142 5438.173076923077 316.2857142857142Q5463.673076923077 291.2857142857142 5493.673076923077 270.7857142857142Q5523.673076923077 250.28571428571422 5555.673076923077 237.28571428571422Q5587.673076923077 224.28571428571422 5617.673076923077 221.28571428571422Q5623.673076923077 220.28571428571422 5628.173076923077 224.78571428571422Q5632.673076923077 229.28571428571422 5631.673076923077 237.28571428571422ZM5805.673076923077 231.28571428571422Q5813.673076923077 239.28571428571422 5812.173076923077 244.28571428571422Q5810.673076923077 249.28571428571422 5805.673076923077 248.28571428571422Q5792.673076923077 248.28571428571422 5777.173076923077 250.78571428571422Q5761.673076923077 253.28571428571422 5744.173076923077 254.78571428571422Q5726.673076923077 256.2857142857142 5707.673076923077 255.28571428571422Q5688.673076923077 254.28571428571422 5669.673076923077 248.28571428571422Q5661.673076923077 240.28571428571422 5670.173076923077 233.78571428571422Q5678.673076923077 227.28571428571422 5683.673076923077 214.28571428571422Q5686.673076923077 205.28571428571422 5692.173076923077 201.78571428571422Q5697.673076923077 198.28571428571422 5703.673076923077 197.28571428571422Q5714.673076923077 197.28571428571422 5731.173076923077 201.78571428571422Q5747.673076923077 206.28571428571422 5758.673076923077 207.28571428571422Q5775.673076923077 209.28571428571422 5786.673076923077 212.78571428571422Q5797.673076923077 216.28571428571422 5805.673076923077 231.28571428571422ZM5784.673076923077 367.2857142857142Q5790.673076923077 390.2857142857142 5794.173076923077 409.2857142857142Q5797.673076923077 428.2857142857142 5799.173076923077 445.7857142857142Q5800.673076923077 463.2857142857142 5801.173076923077 481.2857142857142Q5801.673076923077 499.2857142857142 5801.673076923077 520.2857142857142Q5801.673076923077 524.2857142857142 5797.173076923077 528.7857142857142Q5792.673076923077 533.2857142857142 5790.673076923077 538.2857142857142Q5786.673076923077 547.2857142857142 5784.173076923077 549.2857142857142Q5781.673076923077 551.2857142857142 5775.673076923077 554.2857142857142Q5761.673076923077 560.2857142857142 5750.673076923077 571.2857142857142Q5737.673076923077 552.2857142857142 5733.173076923077 527.2857142857142Q5728.673076923077 502.2857142857142 5727.173076923077 475.2857142857142Q5725.673076923077 448.2857142857142 5724.173076923077 420.7857142857142Q5722.673076923077 393.2857142857142 5716.673076923077 367.2857142857142Q5713.673076923077 353.2857142857142 5718.673076923077 348.2857142857142Q5723.673076923077 343.2857142857142 5729.673076923077 341.2857142857142Q5736.673076923077 339.2857142857142 5745.173076923077 344.2857142857142Q5753.673076923077 349.2857142857142 5761.673076923077 354.2857142857142Q5768.673076923077 358.2857142857142 5775.173076923077 358.7857142857142Q5781.673076923077 359.2857142857142 5784.673076923077 367.2857142857142ZM6169.673076923077 288.2857142857142Q6180.673076923077 314.2857142857142 6181.173076923077 338.2857142857142Q6181.673076923077 362.2857142857142 6169.673076923077 390.2857142857142Q6157.673076923077 411.2857142857142 6136.673076923077 427.7857142857142Q6115.673076923077 444.2857142857142 6092.173076923077 456.2857142857142Q6068.673076923077 468.2857142857142 6046.673076923077 476.2857142857142Q6024.673076923077 484.2857142857142 6011.673076923077 489.2857142857142Q6015.673076923077 519.2857142857142 6019.673076923077 554.7857142857142Q6023.673076923077 590.2857142857142 6026.173076923077 626.7857142857142Q6028.673076923077 663.2857142857142 6030.673076923077 698.7857142857142Q6032.673076923077 734.2857142857142 6033.673076923077 764.2857142857142Q6033.673076923077 770.2857142857142 6030.673076923077 771.2857142857142Q6027.673076923077 772.2857142857142 6023.673076923077 777.2857142857142Q6020.673076923077 780.2857142857142 6018.173076923077 785.2857142857142Q6015.673076923077 790.2857142857142 6011.673076923077 792.2857142857142Q6008.673076923077 794.2857142857142 6005.673076923077 796.2857142857142Q6002.673076923077 798.2857142857142 5999.673076923077 798.2857142857142Q5984.673076923077 747.2857142857142 5972.673076923077 685.7857142857142Q5960.673076923077 624.2857142857142 5952.173076923077 558.7857142857142Q5943.673076923077 493.2857142857142 5938.673076923077 427.7857142857142Q5933.673076923077 362.2857142857142 5931.673076923077 305.2857142857142Q5917.673076923077 307.2857142857142 5903.673076923077 313.7857142857142Q5889.673076923077 320.2857142857142 5878.673076923077 326.2857142857142Q5876.673076923077 328.2857142857142 5874.673076923077 327.2857142857142Q5872.673076923077 326.2857142857142 5870.673076923077 328.2857142857142Q5867.673076923077 330.2857142857142 5864.673076923077 331.7857142857142Q5861.673076923077 333.2857142857142 5858.673076923077 331.2857142857142Q5852.673076923077 328.2857142857142 5846.673076923077 322.2857142857142Q5857.673076923077 289.2857142857142 5881.673076923077 270.2857142857142Q5905.673076923077 251.28571428571422 5934.673076923077 243.28571428571422Q5951.673076923077 239.28571428571422 5986.673076923077 236.78571428571422Q6021.673076923077 234.28571428571422 6059.173076923077 237.78571428571422Q6096.673076923077 241.28571428571422 6128.673076923077 252.78571428571422Q6160.673076923077 264.2857142857142 6169.673076923077 288.2857142857142ZM6132.673076923077 324.2857142857142Q6129.673076923077 305.2857142857142 6112.673076923077 295.2857142857142Q6095.673076923077 285.2857142857142 6072.673076923077 282.2857142857142Q6049.673076923077 279.2857142857142 6025.173076923077 281.7857142857142Q6000.673076923077 284.2857142857142 5981.673076923077 290.2857142857142Q5984.673076923077 303.2857142857142 5987.673076923077 322.2857142857142Q5990.673076923077 341.2857142857142 5993.673076923077 361.2857142857142Q5996.673076923077 381.2857142857142 5999.173076923077 401.2857142857142Q6001.673076923077 421.2857142857142 6002.673076923077 435.2857142857142Q6021.673076923077 430.2857142857142 6044.673076923077 420.7857142857142Q6067.673076923077 411.2857142857142 6087.173076923077 397.2857142857142Q6106.673076923077 383.2857142857142 6119.673076923077 364.7857142857142Q6132.673076923077 346.2857142857142 6132.673076923077 324.2857142857142ZM6596.673076923077 339.2857142857142Q6598.673076923077 341.2857142857142 6599.673076923077 341.2857142857142Q6600.673076923077 341.2857142857142 6600.673076923077 343.2857142857142Q6599.673076923077 345.2857142857142 6596.173076923077 347.7857142857142Q6592.673076923077 350.2857142857142 6583.673076923077 351.2857142857142Q6580.673076923077 352.2857142857142 6575.673076923077 354.7857142857142Q6570.673076923077 357.2857142857142 6567.673076923077 358.2857142857142Q6540.673076923077 364.2857142857142 6504.173076923077 369.2857142857142Q6467.673076923077 374.2857142857142 6428.673076923077 378.2857142857142Q6426.673076923077 413.2857142857142 6427.173076923077 443.2857142857142Q6427.673076923077 473.2857142857142 6429.673076923077 495.2857142857142Q6431.673076923077 512.2857142857142 6445.673076923077 511.7857142857142Q6459.673076923077 511.2857142857142 6474.673076923077 506.2857142857142Q6478.673076923077 505.2857142857142 6496.173076923077 496.7857142857142Q6513.673076923077 488.2857142857142 6537.173076923077 476.7857142857142Q6560.673076923077 465.2857142857142 6586.673076923077 451.7857142857142Q6612.673076923077 438.2857142857142 6633.673076923077 427.2857142857142Q6633.673076923077 441.2857142857142 6618.673076923077 454.2857142857142Q6610.673076923077 461.2857142857142 6601.173076923077 467.2857142857142Q6591.673076923077 473.2857142857142 6581.673076923077 480.2857142857142Q6570.673076923077 487.2857142857142 6566.673076923077 495.2857142857142Q6562.673076923077 503.2857142857142 6548.673076923077 512.2857142857142Q6522.673076923077 529.2857142857142 6492.673076923077 543.2857142857142Q6462.673076923077 557.2857142857142 6438.673076923077 563.2857142857142Q6430.673076923077 565.2857142857142 6422.173076923077 565.2857142857142Q6413.673076923077 565.2857142857142 6405.673076923077 568.2857142857142Q6393.673076923077 573.2857142857142 6387.173076923077 566.2857142857142Q6380.673076923077 559.2857142857142 6378.673076923077 546.2857142857142Q6374.673076923077 509.2857142857142 6373.173076923077 467.2857142857142Q6371.673076923077 425.2857142857142 6372.673076923077 382.2857142857142Q6342.673076923077 384.2857142857142 6317.173076923077 383.7857142857142Q6291.673076923077 383.2857142857142 6275.673076923077 380.2857142857142Q6260.673076923077 378.2857142857142 6248.173076923077 373.7857142857142Q6235.673076923077 369.2857142857142 6225.673076923077 359.2857142857142Q6216.673076923077 359.2857142857142 6220.173076923077 350.7857142857142Q6223.673076923077 342.2857142857142 6225.673076923077 336.2857142857142Q6246.673076923077 335.2857142857142 6287.173076923077 333.7857142857142Q6327.673076923077 332.2857142857142 6374.673076923077 330.2857142857142Q6378.673076923077 247.28571428571422 6388.673076923077 176.28571428571422Q6398.673076923077 105.28571428571422 6412.673076923077 70.28571428571422Q6412.673076923077 61.28571428571422 6420.173076923077 57.78571428571422Q6427.673076923077 54.28571428571422 6435.673076923077 49.28571428571422Q6439.673076923077 47.28571428571422 6444.173076923077 43.78571428571422Q6448.673076923077 40.28571428571422 6456.673076923077 40.28571428571422Q6465.673076923077 45.28571428571422 6469.673076923077 48.78571428571422Q6473.673076923077 52.28571428571422 6473.673076923077 57.28571428571422Q6473.673076923077 62.28571428571422 6470.673076923077 69.28571428571422Q6467.673076923077 76.28571428571422 6463.673076923077 87.28571428571422Q6461.673076923077 90.28571428571422 6457.673076923077 112.28571428571422Q6453.673076923077 134.28571428571422 6449.173076923077 167.78571428571422Q6444.673076923077 201.28571428571422 6439.673076923077 243.78571428571422Q6434.673076923077 286.2857142857142 6431.673076923077 329.2857142857142Q6464.673076923077 329.2857142857142 6494.673076923077 329.7857142857142Q6524.673076923077 330.2857142857142 6547.673076923077 332.2857142857142Z" /></svg>