<svg viewBox="0 0 8204 1024" xmlns="http://www.w3.org/2000/svg"><path d="M744 822H721L185 167V678Q185 715 189.5 736.5Q194 758 206 769Q218 780 237.0 783.0Q256 786 285 786V811Q259 811 226.5 810.5Q194 810 161 810Q127 810 95.0 810.0Q63 810 38 811V786Q69 786 91.0 782.5Q113 779 126 768Q140 757 146.0 736.0Q152 715 152 679V192Q152 133 120.0 111.5Q88 90 20 90V65Q32 67 53.0 67.0Q74 67 97 67Q120 67 140.5 66.5Q161 66 172 65L711 709V191Q711 160 706.5 140.5Q702 121 691 110Q680 99 660.0 95.0Q640 91 609 90V64Q628 65 661.0 65.5Q694 66 728 66Q763 66 795.0 65.5Q827 65 845 64V90Q812 90 792.5 93.5Q773 97 762 108Q751 119 747.5 138.5Q744 158 744 191ZM1192 567Q1082 600 1027.5 628.5Q973 657 973 701Q973 747 996.5 763.5Q1020 780 1062 780Q1099 780 1133.0 760.0Q1167 740 1192 713ZM1343 773Q1321 794 1296.5 811.0Q1272 828 1247 828Q1223 828 1208.5 806.0Q1194 784 1192 742Q1155 781 1110.0 804.5Q1065 828 1016 828Q971 828 940.0 798.5Q909 769 911 724Q912 687 933.5 660.5Q955 634 993 614Q1030 594 1081.0 577.0Q1132 560 1192 541V472Q1192 428 1171.5 399.5Q1151 371 1092 371Q1050 371 1017.5 395.5Q985 420 984 455Q984 479 974.5 490.0Q965 501 951 501Q939 501 932.5 491.0Q926 481 926 465Q926 438 951.5 413.0Q977 388 1034 358Q1067 340 1088.5 332.0Q1110 324 1134 324Q1182 324 1217.5 353.0Q1253 382 1253 437V710Q1253 766 1277.5 774.0Q1302 782 1340 756ZM1547 324Q1544 351 1543.5 377.0Q1543 403 1543 416Q1588 383 1640.0 353.0Q1692 323 1740 323Q1800 323 1826.0 366.5Q1852 410 1852 472V709Q1852 751 1866.0 768.5Q1880 786 1925 786V811Q1911 811 1898.5 811.0Q1886 811 1874 810Q1862 810 1849.5 809.5Q1837 809 1823 809Q1808 809 1795.5 809.5Q1783 810 1771 810Q1759 810 1746.5 810.5Q1734 811 1720 811V786Q1763 786 1777.0 768.5Q1791 751 1791 709V471Q1791 421 1768.0 399.0Q1745 377 1692 377Q1677 378 1657.0 384.5Q1637 391 1617 400Q1596 410 1576.5 422.0Q1557 434 1543 446V709Q1543 751 1557.0 768.5Q1571 786 1616 786V811Q1601 811 1589.0 811.0Q1577 811 1565 810Q1553 810 1540.5 809.5Q1528 809 1514 809Q1499 809 1486.5 809.5Q1474 810 1462 810Q1449 810 1436.5 810.5Q1424 811 1410 811V786Q1454 786 1467.5 768.5Q1481 751 1481 709V474Q1481 447 1479.5 431.0Q1478 415 1472 406Q1466 397 1454.0 394.0Q1442 391 1421 391V370Q1453 365 1479.5 355.0Q1506 345 1528 324ZM2365 731Q2317 770 2265.0 799.0Q2213 828 2163 828Q2144 828 2125.0 821.5Q2106 815 2090 799Q2075 784 2065.5 760.0Q2056 736 2056 701V425Q2056 391 2043.0 379.5Q2030 368 1992 366V347Q2006 347 2020.0 346.0Q2034 345 2050 344Q2066 343 2083.0 341.5Q2100 340 2121 338Q2119 358 2118.5 384.0Q2118 410 2118 425V647Q2118 725 2138.5 750.0Q2159 775 2204 775Q2242 775 2286.5 755.0Q2331 735 2366 702V425Q2366 391 2347.0 379.5Q2328 368 2291 366V347Q2305 347 2321.0 346.0Q2337 345 2354 344Q2371 343 2390.0 341.5Q2409 340 2430 338Q2428 358 2427.5 384.0Q2427 410 2427 425V736Q2427 768 2442.5 774.5Q2458 781 2497 778V797Q2487 799 2472.5 802.5Q2458 806 2442 811Q2425 815 2408.5 819.5Q2392 824 2377 828Q2371 830 2368.0 828.0Q2365 826 2365 820ZM2697 324Q2694 351 2693.5 378.0Q2693 405 2693 417Q2714 402 2737.5 385.0Q2761 368 2785 355Q2810 341 2835.0 332.0Q2860 323 2885 323Q2921 323 2949.5 343.5Q2978 364 2992 415Q3034 382 3083.0 352.5Q3132 323 3182 323Q3212 323 3233.5 335.5Q3255 348 3269 369Q3283 390 3290.0 417.5Q3297 445 3297 474V712Q3297 754 3310.5 770.0Q3324 786 3366 786V811Q3325 810 3267.5 809.5Q3210 809 3166 811V786Q3209 786 3222.5 770.0Q3236 754 3236 712V511Q3236 484 3233.0 459.5Q3230 435 3220 417Q3210 399 3190.5 388.0Q3171 377 3137 377Q3118 377 3097.5 384.5Q3077 392 3057 403Q3038 413 3021.5 425.0Q3005 437 2995 445V712Q2995 754 3009.5 770.0Q3024 786 3068 786V811Q3046 811 3019.5 810.5Q2993 810 2966 810Q2938 810 2911.5 810.0Q2885 810 2864 811V786Q2906 786 2919.5 770.0Q2933 754 2933 712V511Q2933 484 2930.5 459.5Q2928 435 2918 417Q2908 399 2889.0 388.0Q2870 377 2836 377Q2821 377 2802.5 383.5Q2784 390 2764 400Q2744 411 2725.5 423.5Q2707 436 2693 449V712Q2693 754 2706.5 770.0Q2720 786 2763 786V811Q2720 810 2661.5 809.5Q2603 809 2558 811V786Q2603 786 2617.0 770.0Q2631 754 2631 712V474Q2631 447 2629.5 431.0Q2628 415 2622 406Q2616 397 2604.0 394.0Q2592 391 2571 391V370Q2603 365 2629.5 355.0Q2656 345 2678 324ZM4198 718 4498 65Q4510 67 4531.5 67.5Q4553 68 4576 68Q4600 68 4621.0 67.0Q4642 66 4654 64V90Q4600 90 4579.5 112.0Q4559 134 4559 181L4570 676Q4571 709 4576.0 730.5Q4581 752 4594 764Q4606 776 4629.0 781.0Q4652 786 4690 786V811Q4666 811 4625.0 811.0Q4584 811 4540 811Q4496 811 4456.0 811.0Q4416 811 4394 811V786Q4427 786 4448.5 781.5Q4470 777 4482 765Q4494 753 4499.0 731.5Q4504 710 4504 676L4497 152L4191 818H4176L3875 171L3865 679Q3865 737 3881.0 760.5Q3897 784 3948 786V811Q3924 811 3892.0 810.5Q3860 810 3826 810Q3792 810 3760.0 810.0Q3728 810 3703 811V786Q3736 785 3759.5 781.0Q3783 777 3798 766Q3813 754 3820.5 733.0Q3828 712 3830 676L3843 182Q3843 132 3819.0 111.0Q3795 90 3748 90V64Q3764 66 3784.5 66.5Q3805 67 3825 67Q3845 67 3863.0 66.5Q3881 66 3892 64ZM4954 779Q4942 750 4921.0 698.0Q4900 646 4878 591Q4855 536 4835.5 487.0Q4816 438 4808 414Q4799 389 4783.0 376.5Q4767 364 4737 364V338Q4752 340 4780.5 340.0Q4809 340 4839 340Q4869 340 4895.5 339.5Q4922 339 4934 338V366Q4895 368 4882.0 380.5Q4869 393 4878 421L4986 700L5100 427Q5112 396 5101.0 380.5Q5090 365 5057 365V338Q5069 340 5091.0 340.5Q5113 341 5137 341Q5161 341 5182.0 340.5Q5203 340 5214 338V365Q5179 365 5163.0 381.0Q5147 397 5132 435L4889 1003Q4876 1033 4853.5 1043.0Q4831 1053 4807 1053Q4790 1053 4774.5 1043.0Q4759 1033 4759 1011Q4759 989 4775.0 981.0Q4791 973 4806 975Q4810 975 4815.0 977.5Q4820 980 4825 983Q4830 985 4835.0 987.5Q4840 990 4844 991Q4853 991 4860.0 987.5Q4867 984 4872 974ZM5335 515Q5332 530 5332.0 547.0Q5332 564 5334 591Q5339 667 5381.0 718.5Q5423 770 5496 770Q5546 770 5582.5 750.5Q5619 731 5643 702L5657 711Q5629 761 5581.5 794.5Q5534 828 5475 828Q5432 828 5395.5 810.0Q5359 792 5332 760Q5305 728 5289.5 685.0Q5274 642 5274 591Q5274 528 5290.0 478.0Q5306 428 5333 394Q5361 359 5398.5 341.0Q5436 323 5479 323Q5509 323 5539.0 333.0Q5569 343 5593 363Q5617 384 5632.0 415.5Q5647 447 5648 490Q5648 502 5645.0 507.5Q5642 513 5630 515ZM5549 483Q5567 483 5575.0 477.5Q5583 472 5583 457Q5583 441 5575.5 423.0Q5568 405 5555 390Q5541 375 5521.0 365.0Q5501 355 5475 355Q5418 355 5383.5 390.5Q5349 426 5338 483ZM6217 573Q6217 626 6198.0 672.5Q6179 719 6147 753Q6115 788 6072.5 808.0Q6030 828 5982 828Q5932 828 5887.0 811.0Q5842 794 5808 761Q5774 729 5754.0 682.5Q5734 636 5734 578Q5734 526 5751.5 479.5Q5769 433 5800 398Q5832 364 5875.0 343.5Q5918 323 5969 323Q6021 323 6066.5 340.5Q6112 358 6145 391Q6178 423 6197.5 469.5Q6217 516 6217 573ZM6143 584Q6143 547 6134.0 505.5Q6125 464 6105 430Q6084 395 6051.5 372.5Q6019 350 5972 350Q5927 350 5895.5 370.0Q5864 390 5845 421Q5826 453 5817.5 491.5Q5809 530 5809 567Q5809 602 5818.0 642.5Q5827 683 5847 718Q5867 753 5899.5 776.5Q5932 800 5980 800Q6025 800 6056.0 780.0Q6087 760 6106 728Q6126 697 6134.5 658.5Q6143 620 6143 584ZM6430 324Q6427 351 6426.5 377.0Q6426 403 6426 416Q6471 383 6523.0 353.0Q6575 323 6623 323Q6683 323 6709.0 366.5Q6735 410 6735 472V709Q6735 751 6749.0 768.5Q6763 786 6808 786V811Q6794 811 6781.5 811.0Q6769 811 6757 810Q6745 810 6732.5 809.5Q6720 809 6706 809Q6691 809 6678.5 809.5Q6666 810 6654 810Q6642 810 6629.5 810.5Q6617 811 6603 811V786Q6646 786 6660.0 768.5Q6674 751 6674 709V471Q6674 421 6651.0 399.0Q6628 377 6575 377Q6560 378 6540.0 384.5Q6520 391 6500 400Q6479 410 6459.5 422.0Q6440 434 6426 446V709Q6426 751 6440.0 768.5Q6454 786 6499 786V811Q6484 811 6472.0 811.0Q6460 811 6448 810Q6436 810 6423.5 809.5Q6411 809 6397 809Q6382 809 6369.5 809.5Q6357 810 6345 810Q6332 810 6319.5 810.5Q6307 811 6293 811V786Q6337 786 6350.5 768.5Q6364 751 6364 709V474Q6364 447 6362.5 431.0Q6361 415 6355 406Q6349 397 6337.0 394.0Q6325 391 6304 391V370Q6336 365 6362.5 355.0Q6389 345 6411 324ZM7325 398 7220 394Q7230 406 7238.5 433.0Q7247 460 7247 479Q7247 558 7195.5 600.5Q7144 643 7060 643Q7048 643 7033.5 642.5Q7019 642 7004 638Q6992 647 6983.5 653.5Q6975 660 6970 666Q6964 672 6962.0 679.0Q6960 686 6960 695Q6960 701 6961.0 710.5Q6962 720 6970 729Q6978 738 6995.0 744.5Q7012 751 7044 751Q7063 751 7081.5 751.5Q7100 752 7117 752Q7135 752 7151.0 752.0Q7167 752 7184 752Q7247 752 7287.0 780.0Q7327 808 7327 869Q7327 906 7306.0 939.5Q7285 973 7248 999Q7212 1025 7162.0 1040.5Q7112 1056 7055 1056Q7007 1056 6971.0 1044.0Q6935 1032 6911 1014Q6887 996 6875.5 974.0Q6864 952 6864 929Q6864 877 6900.5 845.0Q6937 813 6981 800Q6927 788 6909.5 753.0Q6892 718 6903 680Q6924 668 6946.0 652.5Q6968 637 6977 628Q6940 609 6913.5 575.5Q6887 542 6887 487Q6887 417 6935.5 370.0Q6984 323 7077 323Q7098 323 7123.0 327.5Q7148 332 7168 337Q7189 345 7214.0 350.5Q7239 356 7275 356Q7282 356 7287.0 356.5Q7292 357 7297 356Q7302 356 7308.0 355.5Q7314 355 7325 353ZM6918 914Q6918 968 6964.0 995.5Q7010 1023 7071 1023Q7112 1023 7148.5 1014.0Q7185 1005 7213 989Q7240 973 7256.0 951.0Q7272 929 7272 901Q7272 876 7258.5 858.5Q7245 841 7223 831Q7200 820 7170.5 815.5Q7141 811 7108 811Q7015 811 6966.5 839.5Q6918 868 6918 914ZM6956 476Q6956 533 6984.0 575.0Q7012 617 7068 617Q7132 617 7158.5 579.0Q7185 541 7185 490Q7185 466 7178.0 440.5Q7171 415 7157 395Q7143 375 7120.0 362.0Q7097 349 7065 349Q7036 349 7015.0 361.0Q6994 373 6981 391Q6968 410 6962.0 432.5Q6956 455 6956 476ZM7461 474Q7461 447 7459.0 431.0Q7457 415 7451 406Q7445 397 7433.0 394.0Q7421 391 7400 391V370Q7432 365 7458.5 355.0Q7485 345 7508 324H7526Q7523 351 7522.5 381.5Q7522 412 7522 436V843Q7522 893 7510.0 928.5Q7498 964 7478 987Q7458 1012 7431.5 1026.5Q7405 1041 7376 1050L7369 1032Q7423 1005 7442.0 965.0Q7461 925 7461 854ZM7442 105Q7442 85 7456.5 70.0Q7471 55 7491 55Q7511 55 7526.0 70.0Q7541 85 7541 105Q7541 125 7526.0 139.5Q7511 154 7491 154Q7471 154 7456.5 139.5Q7442 125 7442 105ZM8158 573Q8158 626 8139.0 672.5Q8120 719 8088 753Q8056 788 8013.5 808.0Q7971 828 7923 828Q7873 828 7828.0 811.0Q7783 794 7749 761Q7715 729 7695.0 682.5Q7675 636 7675 578Q7675 526 7692.5 479.5Q7710 433 7741 398Q7773 364 7816.0 343.5Q7859 323 7910 323Q7962 323 8007.5 340.5Q8053 358 8086 391Q8119 423 8138.5 469.5Q8158 516 8158 573ZM8084 584Q8084 547 8075.0 505.5Q8066 464 8046 430Q8025 395 7992.5 372.5Q7960 350 7913 350Q7868 350 7836.5 370.0Q7805 390 7786 421Q7767 453 7758.5 491.5Q7750 530 7750 567Q7750 602 7759.0 642.5Q7768 683 7788 718Q7808 753 7840.5 776.5Q7873 800 7921 800Q7966 800 7997.0 780.0Q8028 760 8047 728Q8067 697 8075.5 658.5Q8084 620 8084 584Z" fill="currentColor" /></svg>