<svg viewBox="0 0 3391 1551" xmlns="http://www.w3.org/2000/svg"><path d="M84 1314V681H179L397 1064L464 1197H468Q464 1149 460.0 1095.0Q456 1041 456 990V681H543V1314H449L231 930L163 798H160Q163 847 167.0 899.0Q171 951 171 1002V1314ZM815 1325Q754 1325 715.0 1289.5Q676 1254 676 1191Q676 1114 744.5 1072.5Q813 1031 961 1015Q961 986 952.5 961.0Q944 936 924.0 920.5Q904 905 868 905Q829 905 794.0 920.0Q759 935 730 954L696 893Q731 870 779.0 850.5Q827 831 884 831Q971 831 1011.5 884.0Q1052 937 1052 1029V1314H977L970 1260H967Q934 1288 896.0 1306.5Q858 1325 815 1325ZM842 1254Q874 1254 902.0 1238.5Q930 1223 961 1195V1073Q851 1086 807.5 1114.0Q764 1142 764 1184Q764 1221 786.5 1237.5Q809 1254 842 1254ZM1195 1314V843H1269L1277 928H1280Q1305 883 1339.5 857.0Q1374 831 1414 831Q1444 831 1465 841L1449 920Q1436 916 1426.0 914.0Q1416 912 1402 912Q1373 912 1340.5 935.5Q1308 959 1285 1017V1314ZM1539 1314V843H1613L1621 909H1624Q1657 877 1694.5 854.0Q1732 831 1781 831Q1856 831 1890.5 879.0Q1925 927 1925 1017V1314H1834V1028Q1834 965 1814.5 937.5Q1795 910 1751 910Q1717 910 1690.0 927.0Q1663 944 1629 977V1314ZM2258 1325Q2200 1325 2149.5 1296.0Q2099 1267 2068.0 1212.0Q2037 1157 2037 1079Q2037 1000 2068.0 945.0Q2099 890 2149.5 860.5Q2200 831 2258 831Q2316 831 2366.0 860.5Q2416 890 2447.0 945.0Q2478 1000 2478 1079Q2478 1157 2447.0 1212.0Q2416 1267 2366.0 1296.0Q2316 1325 2258 1325ZM2258 1251Q2316 1251 2350.5 1204.0Q2385 1157 2385 1079Q2385 1002 2350.5 954.0Q2316 906 2258 906Q2200 906 2165.5 954.0Q2131 1002 2131 1079Q2131 1157 2165.5 1204.0Q2200 1251 2258 1251ZM2784 1325Q2726 1325 2675.5 1296.0Q2625 1267 2594.0 1212.0Q2563 1157 2563 1079Q2563 1000 2594.0 945.0Q2625 890 2675.5 860.5Q2726 831 2784 831Q2842 831 2892.0 860.5Q2942 890 2973.0 945.0Q3004 1000 3004 1079Q3004 1157 2973.0 1212.0Q2942 1267 2892.0 1296.0Q2842 1325 2784 1325ZM2784 1251Q2842 1251 2876.5 1204.0Q2911 1157 2911 1079Q2911 1002 2876.5 954.0Q2842 906 2784 906Q2726 906 2691.5 954.0Q2657 1002 2657 1079Q2657 1157 2691.5 1204.0Q2726 1251 2784 1251ZM3123 1314V843H3197L3205 928H3208Q3233 883 3267.5 857.0Q3302 831 3342 831Q3372 831 3393 841L3377 920Q3364 916 3354.0 914.0Q3344 912 3330 912Q3301 912 3268.5 935.5Q3236 959 3213 1017V1314Z" fill="currentColor" /></svg>