<svg viewBox="0 0 4626 703" xmlns="http://www.w3.org/2000/svg"><path d="M552 32 551 692H476L77 152L76 692H0V32H75L475 573V32ZM869 703Q801 703 761.0 681.5Q721 660 703.5 626.0Q686 592 686 555V542Q686 515 697.0 485.0Q708 455 738.5 431.5Q769 408 827 402L952 387Q1000 382 1019.0 374.5Q1038 367 1038 347Q1038 299 1003.0 275.5Q968 252 902 252Q868 252 840.5 259.0Q813 266 793.5 281.0Q774 296 764 320L692 296Q704 265 726.5 242.5Q749 220 779.5 206.5Q810 193 844.0 187.0Q878 181 912 181Q988 183 1033.5 205.5Q1079 228 1098.5 273.5Q1118 319 1118 390V692H1042V616Q1031 638 1006.0 658.0Q981 678 945.5 690.5Q910 703 869 703ZM868 632Q927 632 965.5 611.0Q1004 590 1022.5 560.5Q1041 531 1042 504Q1042 486 1042.0 463.0Q1042 440 1042 428Q1034 437 1013.5 442.0Q993 447 956 451L842 465Q801 470 781.5 490.0Q762 510 762 541V549Q762 570 771.5 589.0Q781 608 804.0 620.0Q827 632 868 632ZM1530 694Q1522 696 1513.0 697.0Q1504 698 1495.0 699.0Q1486 700 1478 701Q1379 705 1331.0 652.5Q1283 600 1283 487V262H1208V192H1286L1300 0H1359V192H1493L1494 262H1359V485Q1359 570 1390.5 602.5Q1422 635 1490 628Q1496 628 1503.0 627.0Q1510 626 1516 625ZM1759 703Q1691 703 1651.0 681.5Q1611 660 1593.5 626.0Q1576 592 1576 555V542Q1576 515 1587.0 485.0Q1598 455 1628.5 431.5Q1659 408 1717 402L1842 387Q1890 382 1909.0 374.5Q1928 367 1928 347Q1928 299 1893.0 275.5Q1858 252 1792 252Q1758 252 1730.5 259.0Q1703 266 1683.5 281.0Q1664 296 1654 320L1582 296Q1594 265 1616.5 242.5Q1639 220 1669.5 206.5Q1700 193 1734.0 187.0Q1768 181 1802 181Q1878 183 1923.5 205.5Q1969 228 1988.5 273.5Q2008 319 2008 390V692H1932V616Q1921 638 1896.0 658.0Q1871 678 1835.5 690.5Q1800 703 1759 703ZM1758 632Q1817 632 1855.5 611.0Q1894 590 1912.5 560.5Q1931 531 1932 504Q1932 486 1932.0 463.0Q1932 440 1932 428Q1924 437 1903.5 442.0Q1883 447 1846 451L1732 465Q1691 470 1671.5 490.0Q1652 510 1652 541V549Q1652 570 1661.5 589.0Q1671 608 1694.0 620.0Q1717 632 1758 632ZM2867 164Q2858 146 2837.0 129.5Q2816 113 2779.5 102.0Q2743 91 2686 91Q2623 91 2581.0 105.0Q2539 119 2518.0 143.0Q2497 167 2497 196Q2497 226 2512.5 247.0Q2528 268 2557.5 281.0Q2587 294 2627 301L2748 324Q2819 337 2864.5 362.0Q2910 387 2932.0 422.5Q2954 458 2954 504Q2954 543 2937.5 578.5Q2921 614 2888.0 642.0Q2855 670 2804.0 686.0Q2753 702 2684 702Q2601 702 2546.5 683.0Q2492 664 2461.0 633.0Q2430 602 2417 566L2489 544Q2497 566 2518.5 586.0Q2540 606 2580.0 618.5Q2620 631 2685 631Q2750 631 2792.5 614.0Q2835 597 2856.0 568.0Q2877 539 2877 504Q2877 476 2862.0 454.0Q2847 432 2816.5 417.0Q2786 402 2739 393L2622 371Q2555 358 2509.5 336.0Q2464 314 2442.0 279.5Q2420 245 2420 195Q2420 159 2437.0 127.5Q2454 96 2487.5 72.0Q2521 48 2571.0 34.0Q2621 20 2688 20Q2762 20 2813.0 37.5Q2864 55 2895.0 82.5Q2926 110 2940 141ZM3230 703Q3162 703 3122.0 681.5Q3082 660 3064.5 626.0Q3047 592 3047 555V542Q3047 515 3058.0 485.0Q3069 455 3099.5 431.5Q3130 408 3188 402L3313 387Q3361 382 3380.0 374.5Q3399 367 3399 347Q3399 299 3364.0 275.5Q3329 252 3263 252Q3229 252 3201.5 259.0Q3174 266 3154.5 281.0Q3135 296 3125 320L3053 296Q3065 265 3087.5 242.5Q3110 220 3140.5 206.5Q3171 193 3205.0 187.0Q3239 181 3273 181Q3349 183 3394.5 205.5Q3440 228 3459.5 273.5Q3479 319 3479 390V692H3403V616Q3392 638 3367.0 658.0Q3342 678 3306.5 690.5Q3271 703 3230 703ZM3229 632Q3288 632 3326.5 611.0Q3365 590 3383.5 560.5Q3402 531 3403 504Q3403 486 3403.0 463.0Q3403 440 3403 428Q3395 437 3374.5 442.0Q3354 447 3317 451L3203 465Q3162 470 3142.5 490.0Q3123 510 3123 541V549Q3123 570 3132.5 589.0Q3142 608 3165.0 620.0Q3188 632 3229 632ZM4025 696V434Q4025 347 3995.0 299.0Q3965 251 3888 251Q3833 251 3789.5 280.0Q3746 309 3721.0 357.5Q3696 406 3696 464V696H3620V196H3696V301Q3712 272 3738.5 244.0Q3765 216 3803.5 198.0Q3842 180 3894 180Q3972 180 4017.0 211.5Q4062 243 4081.5 299.5Q4101 356 4101 432V696ZM4560 303Q4537 283 4505.0 267.5Q4473 252 4421 252Q4379 252 4351.0 262.0Q4323 272 4309.0 288.5Q4295 305 4295 324Q4295 348 4319.5 362.5Q4344 377 4389 384L4472 398Q4536 408 4569.5 430.5Q4603 453 4614.5 483.5Q4626 514 4626 547Q4626 571 4616.0 598.0Q4606 625 4582.5 649.0Q4559 673 4520.0 688.0Q4481 703 4424 703Q4361 703 4318.5 690.5Q4276 678 4248.0 657.0Q4220 636 4200 610L4253 558Q4264 572 4284.0 589.0Q4304 606 4337.0 618.5Q4370 631 4420 631Q4467 631 4496.0 618.5Q4525 606 4538.0 587.0Q4551 568 4551 548Q4551 520 4532.5 498.5Q4514 477 4460 468L4382 455Q4317 444 4281.5 425.5Q4246 407 4232.5 381.0Q4219 355 4219 323Q4219 290 4238.5 257.5Q4258 225 4304.0 203.5Q4350 182 4428 182Q4464 182 4497.0 190.0Q4530 198 4560.0 214.0Q4590 230 4618 255Z" /></svg>