<svg viewBox="0 0 5856 1330" xmlns="http://www.w3.org/2000/svg"><path d="M121 1040Q104 1040 92.0 1028.0Q80 1016 80 999V362Q80 343 92.0 331.5Q104 320 121 320Q141 320 151.5 328.5Q162 337 170 351L515 908L500 949L495 361Q495 343 506.5 331.5Q518 320 536 320Q554 320 565.5 331.5Q577 343 577 361V999Q577 1016 565.0 1028.0Q553 1040 536 1040Q517 1040 506.5 1032.0Q496 1024 488 1011L117 413L159 425L163 999Q163 1016 151.5 1028.0Q140 1040 121 1040ZM877 1045Q821 1045 780.5 1024.5Q740 1004 718.5 969.0Q697 934 697 891Q697 829 743.5 784.5Q790 740 893 728Q936 723 967.0 717.0Q998 711 1015.5 697.0Q1033 683 1033 656Q1033 635 1022.5 616.5Q1012 598 988.5 586.0Q965 574 926 574Q874 574 848.0 594.5Q822 615 812 635Q805 648 795.0 655.0Q785 662 771 662Q754 662 745.0 651.5Q736 641 736 625Q736 606 749.0 584.5Q762 563 787.5 543.5Q813 524 849.5 512.0Q886 500 933 500Q1001 500 1040.5 525.5Q1080 551 1097.0 594.5Q1114 638 1114 691V940Q1114 950 1116.5 955.0Q1119 960 1126 961Q1140 962 1150.0 972.5Q1160 983 1160 999Q1160 1016 1146.5 1028.0Q1133 1040 1109 1040Q1079 1040 1062.5 1022.5Q1046 1005 1046 979V962H1043Q1018 999 977.5 1022.0Q937 1045 877 1045ZM878 971Q923 971 958.5 952.0Q994 933 1014.5 901.0Q1035 869 1035 830V762Q1035 760 1033.5 759.5Q1032 759 1029 763Q1014 775 988.5 781.5Q963 788 937.0 792.0Q911 796 894 799Q842 807 809.5 827.0Q777 847 777 887Q777 917 800.0 944.0Q823 971 878 971ZM1397 1040Q1363 1040 1338.5 1024.5Q1314 1009 1301.0 980.5Q1288 952 1288 915V445Q1288 428 1299.5 416.5Q1311 405 1328 405Q1345 405 1356.5 416.5Q1368 428 1368 445V914Q1368 933 1374.0 946.5Q1380 960 1399 960Q1412 960 1418.5 954.0Q1425 948 1432.0 942.5Q1439 937 1452 937Q1470 937 1481.0 948.5Q1492 960 1492 977Q1492 995 1478.5 1009.5Q1465 1024 1443.5 1032.0Q1422 1040 1397 1040ZM1256 588Q1240 588 1228.5 577.5Q1217 567 1217 551Q1217 536 1228.5 525.5Q1240 515 1256 515H1467Q1483 515 1494.5 525.5Q1506 536 1506 551Q1506 567 1494.5 577.5Q1483 588 1467 588ZM1657 1040Q1639 1040 1627.5 1028.5Q1616 1017 1616 1000V545Q1616 528 1627.5 516.5Q1639 505 1657 505Q1674 505 1685.5 516.5Q1697 528 1697 545V1000Q1697 1017 1685.5 1028.5Q1674 1040 1657 1040ZM1656 444Q1634 444 1620.0 429.5Q1606 415 1606 387Q1606 361 1620.0 346.0Q1634 331 1656 331Q1679 331 1693.0 346.0Q1707 361 1707 387Q1707 415 1693.0 429.5Q1679 444 1656 444ZM2041 1045Q1971 1045 1918.5 1010.5Q1866 976 1836.5 914.0Q1807 852 1807 771Q1807 690 1836.5 629.0Q1866 568 1918.5 534.0Q1971 500 2041 500Q2112 500 2165.5 534.0Q2219 568 2249.0 629.0Q2279 690 2279 771Q2279 852 2249.0 914.0Q2219 976 2165.5 1010.5Q2112 1045 2041 1045ZM2041 970Q2115 970 2156.0 917.0Q2197 864 2197 771Q2197 680 2156.0 627.0Q2115 574 2041 574Q1968 574 1928.0 627.0Q1888 680 1888 771Q1888 864 1928.0 917.0Q1968 970 2041 970ZM2429 1040Q2412 1040 2400.5 1028.0Q2389 1016 2389 998V546Q2389 528 2400.5 516.5Q2412 505 2429 505Q2447 505 2458.5 516.5Q2470 528 2470 546V613L2453 595Q2485 546 2529.5 523.0Q2574 500 2625 500Q2679 500 2722.0 522.5Q2765 545 2789.5 587.5Q2814 630 2814 692V998Q2814 1016 2803.0 1028.0Q2792 1040 2774 1040Q2755 1040 2744.0 1028.0Q2733 1016 2733 998V695Q2733 638 2699.5 606.0Q2666 574 2611 574Q2574 574 2542.0 589.0Q2510 604 2490.0 631.5Q2470 659 2470 697V998Q2470 1016 2458.5 1028.0Q2447 1040 2429 1040ZM3099 1045Q3043 1045 3002.5 1024.5Q2962 1004 2940.5 969.0Q2919 934 2919 891Q2919 829 2965.5 784.5Q3012 740 3115 728Q3158 723 3189.0 717.0Q3220 711 3237.5 697.0Q3255 683 3255 656Q3255 635 3244.5 616.5Q3234 598 3210.5 586.0Q3187 574 3148 574Q3096 574 3070.0 594.5Q3044 615 3034 635Q3027 648 3017.0 655.0Q3007 662 2993 662Q2976 662 2967.0 651.5Q2958 641 2958 625Q2958 606 2971.0 584.5Q2984 563 3009.5 543.5Q3035 524 3071.5 512.0Q3108 500 3155 500Q3223 500 3262.5 525.5Q3302 551 3319.0 594.5Q3336 638 3336 691V940Q3336 950 3338.5 955.0Q3341 960 3348 961Q3362 962 3372.0 972.5Q3382 983 3382 999Q3382 1016 3368.5 1028.0Q3355 1040 3331 1040Q3301 1040 3284.5 1022.5Q3268 1005 3268 979V962H3265Q3240 999 3199.5 1022.0Q3159 1045 3099 1045ZM3100 971Q3145 971 3180.5 952.0Q3216 933 3236.5 901.0Q3257 869 3257 830V762Q3257 760 3255.5 759.5Q3254 759 3251 763Q3236 775 3210.5 781.5Q3185 788 3159.0 792.0Q3133 796 3116 799Q3064 807 3031.5 827.0Q2999 847 2999 887Q2999 917 3022.0 944.0Q3045 971 3100 971ZM3519 1040Q3502 1040 3490.5 1027.5Q3479 1015 3479 998V341Q3479 324 3490.5 312.0Q3502 300 3519 300Q3536 300 3548.0 312.0Q3560 324 3560 341V998Q3560 1015 3548.0 1027.5Q3536 1040 3519 1040ZM4026 1040Q4009 1040 3997.0 1028.0Q3985 1016 3985 999V371Q3985 354 3997.0 342.0Q4009 330 4026 330H4067V999Q4067 1016 4055.5 1028.0Q4044 1040 4026 1040ZM4033 742V666H4255Q4294 666 4322.5 649.5Q4351 633 4366.5 603.5Q4382 574 4382 536Q4382 498 4366.5 469.0Q4351 440 4322.5 423.5Q4294 407 4256 407H4033V330H4258Q4317 330 4364.0 357.0Q4411 384 4438.0 430.0Q4465 476 4465 535Q4465 595 4438.5 641.5Q4412 688 4367.5 715.0Q4323 742 4268 742ZM4685 1045Q4629 1045 4588.5 1024.5Q4548 1004 4526.5 969.0Q4505 934 4505 891Q4505 829 4551.5 784.5Q4598 740 4701 728Q4744 723 4775.0 717.0Q4806 711 4823.5 697.0Q4841 683 4841 656Q4841 635 4830.5 616.5Q4820 598 4796.5 586.0Q4773 574 4734 574Q4682 574 4656.0 594.5Q4630 615 4620 635Q4613 648 4603.0 655.0Q4593 662 4579 662Q4562 662 4553.0 651.5Q4544 641 4544 625Q4544 606 4557.0 584.5Q4570 563 4595.5 543.5Q4621 524 4657.5 512.0Q4694 500 4741 500Q4809 500 4848.5 525.5Q4888 551 4905.0 594.5Q4922 638 4922 691V940Q4922 950 4924.5 955.0Q4927 960 4934 961Q4948 962 4958.0 972.5Q4968 983 4968 999Q4968 1016 4954.5 1028.0Q4941 1040 4917 1040Q4887 1040 4870.5 1022.5Q4854 1005 4854 979V962H4851Q4826 999 4785.5 1022.0Q4745 1045 4685 1045ZM4686 971Q4731 971 4766.5 952.0Q4802 933 4822.5 901.0Q4843 869 4843 830V762Q4843 760 4841.5 759.5Q4840 759 4837 763Q4822 775 4796.5 781.5Q4771 788 4745.0 792.0Q4719 796 4702 799Q4650 807 4617.5 827.0Q4585 847 4585 887Q4585 917 4608.0 944.0Q4631 971 4686 971ZM5105 1040Q5088 1040 5076.5 1027.5Q5065 1015 5065 998V546Q5065 529 5076.5 517.0Q5088 505 5105 505Q5122 505 5134.0 517.0Q5146 529 5146 546V614L5136 594Q5146 573 5166.5 551.0Q5187 529 5216.5 514.5Q5246 500 5285 500Q5306 500 5318.5 511.0Q5331 522 5331 539Q5331 556 5319.0 568.0Q5307 580 5289 580Q5247 580 5215.0 597.5Q5183 615 5164.5 642.5Q5146 670 5146 700V998Q5146 1015 5134.0 1027.5Q5122 1040 5105 1040ZM5461 1040Q5444 1040 5432.5 1028.0Q5421 1016 5421 998V341Q5421 323 5432.5 311.5Q5444 300 5461 300Q5479 300 5490.5 311.5Q5502 323 5502 341V998Q5502 1016 5490.5 1028.0Q5479 1040 5461 1040ZM5474 733 5733 522Q5744 513 5759 513Q5776 513 5787.0 524.0Q5798 535 5798 552Q5798 572 5784 583L5474 834ZM5786 1040Q5776 1040 5767.0 1035.0Q5758 1030 5753 1021L5551 730L5614 681L5818 976Q5826 987 5826 999Q5826 1016 5814.0 1028.0Q5802 1040 5786 1040Z" fill="currentColor" /></svg>