<svg viewBox="0 0 1968 2050" xmlns="http://www.w3.org/2000/svg"><path d="M435 805H517V1294H428L151 937V1294H68V805H151L435 1170ZM722 1183 673 1294H585L801 805H889L1104 1294H1016L967 1183ZM934 1106 845 905 756 1106ZM1357 880V1294H1274V880H1126V805H1505V880ZM1661 928Q1661 959 1684 973Q1707 990 1782 1008Q1861 1027 1897.5 1060.0Q1934 1093 1934 1155Q1934 1220 1885.5 1260.0Q1837 1300 1759 1300Q1646 1300 1555 1220L1607 1158Q1683 1223 1761 1223Q1800 1223 1824.0 1205.5Q1848 1188 1848.0 1160.0Q1848 1132 1826.5 1116.0Q1805 1100 1750 1087Q1655 1065 1618 1035Q1575 1002 1575 934Q1575 868 1623.0 830.5Q1671 793 1746 793Q1847 793 1919 852L1875 914Q1853 894 1816.0 881.5Q1779 869 1743 869Q1706 869 1683.5 884.5Q1661 900 1661 928Z" fill="currentColor" /></svg>