<svg viewBox="0 0 4100 1211" xmlns="http://www.w3.org/2000/svg"><path d="M162 894Q126 894 107.5 885.5Q89 877 81.5 865.5Q74 854 73.5 845.5Q73 837 73 837Q73 837 70.0 807.0Q67 777 62.0 729.5Q57 682 51.5 627.5Q46 573 40.5 522.5Q35 472 32.0 436.5Q29 401 28 392Q27 366 39.5 346.5Q52 327 101 324Q134 322 154.0 334.0Q174 346 183.0 358.5Q192 371 192 371L286 599L323 668L300 478Q300 478 300.5 445.0Q301 412 304 366Q306 343 319.0 331.0Q332 319 348.5 314.0Q365 309 377.5 308.5Q390 308 390 308Q390 308 401.5 309.0Q413 310 428.0 317.5Q443 325 454.5 343.5Q466 362 465 397Q464 440 468.0 494.5Q472 549 478.5 606.0Q485 663 491.5 712.5Q498 762 503.5 795.0Q509 828 510 836Q512 848 511.0 865.0Q510 882 495.5 895.0Q481 908 442 909Q403 909 384.0 900.0Q365 891 358.5 881.5Q352 872 352 872L202 603Q202 603 206.0 623.0Q210 643 215.5 675.0Q221 707 226.5 744.0Q232 781 235 815Q238 849 227.5 865.5Q217 882 201.5 888.0Q186 894 174.0 894.0Q162 894 162 894ZM963 592Q960 642 935.0 672.5Q910 703 874.5 718.5Q839 734 804.0 739.5Q769 745 745.5 745.0Q722 745 722 745Q728 780 739.0 795.0Q750 810 763.5 812.0Q777 814 789.0 809.5Q801 805 808.5 799.0Q816 793 816 793Q816 793 827.0 784.0Q838 775 861.5 766.5Q885 758 921 758Q962 758 976.5 768.5Q991 779 990.5 792.5Q990 806 984.5 816.5Q979 827 979 827Q979 827 970.5 836.5Q962 846 940.0 859.0Q918 872 879.0 882.5Q840 893 779 894Q720 895 680.0 878.0Q640 861 614.0 833.5Q588 806 574.5 775.5Q561 745 555.5 718.5Q550 692 550 677Q550 662 552.5 638.0Q555 614 565.5 587.5Q576 561 598.0 537.0Q620 513 658.5 498.0Q697 483 757 482Q832 481 874.0 495.0Q916 509 935.0 529.0Q954 549 958.5 567.0Q963 585 963 592ZM708 676Q769 671 799.0 650.0Q829 629 834.0 603.0Q839 577 824.5 558.5Q810 540 781 542Q752 543 737.0 563.5Q722 584 716.0 610.5Q710 637 709.0 656.5Q708 676 708 676ZM1084 826Q1084 815 1081.0 788.0Q1078 761 1073.5 726.5Q1069 692 1064.0 657.5Q1059 623 1053.5 595.5Q1048 568 1044 556Q1034 526 1055.5 513.5Q1077 501 1116 497Q1155 493 1172.5 502.5Q1190 512 1190 512Q1205 497 1239.5 491.0Q1274 485 1312 486Q1361 487 1383.0 501.0Q1405 515 1405 531Q1405 543 1402.0 549.0Q1399 555 1378.5 560.5Q1358 566 1305 579Q1274 586 1259.0 612.5Q1244 639 1240.5 673.5Q1237 708 1240.0 741.5Q1243 775 1247.0 797.5Q1251 820 1251 822Q1251 824 1252.5 835.5Q1254 847 1249.5 860.5Q1245 874 1228.0 884.0Q1211 894 1174 894Q1137 894 1118.0 883.5Q1099 873 1092.0 860.0Q1085 847 1084.5 836.5Q1084 826 1084 826ZM1499 841Q1499 841 1497.0 821.5Q1495 802 1491.0 770.5Q1487 739 1481.5 703.0Q1476 667 1469.0 633.5Q1462 600 1454 576Q1444 546 1451.0 530.5Q1458 515 1472.5 509.0Q1487 503 1499.5 502.5Q1512 502 1512 502Q1512 502 1526.0 501.5Q1540 501 1559.0 505.0Q1578 509 1594.0 521.0Q1610 533 1614 559Q1620 593 1622.0 602.0Q1624 611 1624.5 608.5Q1625 606 1625 606L1738 503Q1738 503 1749.5 494.5Q1761 486 1786.5 481.5Q1812 477 1853 489Q1882 497 1886.5 510.0Q1891 523 1883.5 534.0Q1876 545 1871 550Q1868 553 1853.0 567.5Q1838 582 1817.5 601.5Q1797 621 1777.0 640.0Q1757 659 1744.0 672.0Q1731 685 1731 685L1892 797Q1892 797 1901.5 804.5Q1911 812 1919.0 824.0Q1927 836 1924.5 849.5Q1922 863 1897 875Q1872 887 1848.5 884.5Q1825 882 1806.5 873.0Q1788 864 1777.0 856.0Q1766 848 1766 848L1652 769L1659 851Q1659 851 1657.0 861.5Q1655 872 1639.5 883.0Q1624 894 1585 894Q1546 894 1528.0 880.5Q1510 867 1504.5 854.0Q1499 841 1499 841ZM2182 488Q2219 485 2239.0 496.0Q2259 507 2263 509Q2273 514 2281.5 520.0Q2290 526 2290 526Q2290 526 2305.0 531.0Q2320 536 2340.0 554.5Q2360 573 2377.0 612.0Q2394 651 2397 718Q2399 763 2383.0 793.5Q2367 824 2340.5 843.5Q2314 863 2283.5 873.5Q2253 884 2225.5 888.0Q2198 892 2180.5 893.0Q2163 894 2163 894Q2163 894 2143.5 894.0Q2124 894 2095.0 887.5Q2066 881 2037.5 861.5Q2009 842 1990.5 804.0Q1972 766 1974 703Q1976 640 1997.5 599.5Q2019 559 2049.5 536.0Q2080 513 2110.5 503.0Q2141 493 2161.5 490.5Q2182 488 2182 488ZM2186 586Q2186 586 2173.5 602.0Q2161 618 2148.5 647.0Q2136 676 2136 715Q2136 753 2145.0 775.0Q2154 797 2164.5 806.5Q2175 816 2181 816Q2187 816 2200.5 810.5Q2214 805 2225.0 785.0Q2236 765 2235 722Q2234 686 2227.5 664.0Q2221 642 2210.5 624.5Q2200 607 2186 586ZM2697 603Q2697 523 2725.0 456.5Q2753 390 2801.0 350.5Q2849 311 2907 311Q2950 311 2989.0 333.5Q3028 356 3058.0 396.5Q3088 437 3105.0 490.0Q3122 543 3122 603Q3122 663 3105.0 716.0Q3088 769 3058.0 809.5Q3028 850 2989.0 872.5Q2950 895 2907 895Q2849 895 2801.0 855.5Q2753 816 2725.0 750.0Q2697 684 2697 603ZM2850 599Q2850 657 2858.0 705.5Q2866 754 2880.0 782.5Q2894 811 2911 811Q2928 811 2942.0 782.5Q2956 754 2964.0 705.5Q2972 657 2972 599Q2972 540 2964.0 492.0Q2956 444 2942.0 415.0Q2928 386 2911 386Q2894 386 2880.0 415.0Q2866 444 2858.0 492.0Q2850 540 2850 599ZM3283 894Q3283 894 3270.0 894.0Q3257 894 3240.5 890.0Q3224 886 3211.0 874.0Q3198 862 3196 839Q3195 820 3192.0 785.0Q3189 750 3185.5 708.5Q3182 667 3179.0 629.5Q3176 592 3174.0 568.0Q3172 544 3172 544Q3172 544 3173.0 535.5Q3174 527 3180.5 516.0Q3187 505 3203.5 496.0Q3220 487 3250 486Q3280 485 3297.0 492.0Q3314 499 3321.5 508.5Q3329 518 3330.5 525.5Q3332 533 3332 533Q3332 533 3350.5 523.5Q3369 514 3398.5 504.0Q3428 494 3461 492Q3466 492 3480.5 492.0Q3495 492 3512.5 498.5Q3530 505 3547.5 523.0Q3565 541 3577.0 575.5Q3589 610 3591 666Q3594 736 3595.5 781.0Q3597 826 3592.5 850.5Q3588 875 3572.5 884.5Q3557 894 3524 894Q3492 894 3477.0 885.0Q3462 876 3458.0 863.5Q3454 851 3454 841Q3454 835 3456.0 808.5Q3458 782 3459.0 747.5Q3460 713 3458.5 679.5Q3457 646 3450.5 624.5Q3444 603 3430 604Q3413 605 3398.5 616.5Q3384 628 3373.0 642.5Q3362 657 3356.0 667.5Q3350 678 3350 678L3360 829Q3360 829 3360.0 839.0Q3360 849 3354.0 861.5Q3348 874 3331.5 884.0Q3315 894 3283 894ZM4044 592Q4041 642 4016.0 672.5Q3991 703 3955.5 718.5Q3920 734 3885.0 739.5Q3850 745 3826.5 745.0Q3803 745 3803 745Q3809 780 3820.0 795.0Q3831 810 3844.5 812.0Q3858 814 3870.0 809.5Q3882 805 3889.5 799.0Q3897 793 3897 793Q3897 793 3908.0 784.0Q3919 775 3942.5 766.5Q3966 758 4002 758Q4043 758 4057.5 768.5Q4072 779 4071.5 792.5Q4071 806 4065.5 816.5Q4060 827 4060 827Q4060 827 4051.5 836.5Q4043 846 4021.0 859.0Q3999 872 3960.0 882.5Q3921 893 3860 894Q3801 895 3761.0 878.0Q3721 861 3695.0 833.5Q3669 806 3655.5 775.5Q3642 745 3636.5 718.5Q3631 692 3631 677Q3631 662 3633.5 638.0Q3636 614 3646.5 587.5Q3657 561 3679.0 537.0Q3701 513 3739.5 498.0Q3778 483 3838 482Q3913 481 3955.0 495.0Q3997 509 4016.0 529.0Q4035 549 4039.5 567.0Q4044 585 4044 592ZM3789 676Q3850 671 3880.0 650.0Q3910 629 3915.0 603.0Q3920 577 3905.5 558.5Q3891 540 3862 542Q3833 543 3818.0 563.5Q3803 584 3797.0 610.5Q3791 637 3790.0 656.5Q3789 676 3789 676Z" fill="currentColor" /></svg>