<svg viewBox="0 0 5452 1200" xmlns="http://www.w3.org/2000/svg"><path d="M29 925V276H139L300 644V276H413V925H301L140 557V925ZM475 925V276H791V381H587V532H731V638H587V819H791V925ZM978 925Q915 843 885.5 761.0Q856 679 847.5 594.0Q839 509 839 418V276H951V316L950 355V390L949 424Q949 518 959.5 604.5Q970 691 1013 779Q1056 696 1067.0 606.5Q1078 517 1078 426V389L1077 353V314L1076 276H1188V313L1187 350V384L1186 418Q1186 512 1198.0 604.5Q1210 697 1252 780Q1293 698 1304.5 608.0Q1316 518 1316 426V389L1315 353V314L1314 276H1426V415Q1426 506 1417.5 592.0Q1409 678 1379.5 760.5Q1350 843 1288 925H1214Q1190 892 1169.0 856.5Q1148 821 1132 785Q1117 820 1096.5 855.5Q1076 891 1050 925ZM1729 925V786Q1729 693 1737.5 607.5Q1746 522 1775.5 440.0Q1805 358 1867 276H1939Q2002 357 2032.0 440.5Q2062 524 2070.5 610.0Q2079 696 2079 786V925H1967V797H1840V925ZM1840 692H1966Q1962 622 1947.0 552.0Q1932 482 1903 421Q1873 484 1858.0 553.0Q1843 622 1840 692ZM2122 925V272H2233L2365 585L2499 272H2610V925H2498V562L2405 778H2326L2234 562V925ZM2840 925Q2779 925 2743.5 911.5Q2708 898 2691.0 872.5Q2674 847 2669.5 809.0Q2665 771 2665 723H2776V742L2775 760V776Q2775 801 2784.0 810.0Q2793 819 2832 819H2849Q2874 817 2885.5 814.5Q2897 812 2900.0 802.5Q2903 793 2903 771V760L2904 747V733L2905 707Q2905 700 2904.5 686.0Q2904 672 2900 652Q2896 643 2877.5 640.5Q2859 638 2844 638H2840Q2779 638 2743.5 625.0Q2708 612 2691.0 587.0Q2674 562 2669.5 525.5Q2665 489 2665 441Q2665 352 2704.0 314.5Q2743 277 2840 277Q2938 277 2976.5 316.5Q3015 356 3015 446H2903Q2903 414 2900.0 400.5Q2897 387 2883.5 384.5Q2870 382 2840 382Q2810 382 2796.5 385.0Q2783 388 2779.5 400.5Q2776 413 2776 441V457L2775 480Q2775 485 2775.5 496.5Q2776 508 2781 522Q2782 525 2797.5 528.5Q2813 532 2840 532Q2906 532 2942.0 547.5Q2978 563 2993.5 590.5Q3009 618 3012.0 655.5Q3015 693 3015 738V760Q3015 850 2976.5 887.5Q2938 925 2840 925ZM3133 925V381H3029V276H3348V381H3244V925ZM3368 925V276H3684V381H3480V532H3624V638H3480V819H3684V925ZM3744 925V276H3920Q3993 276 4033.0 297.5Q4073 319 4086 366Q4092 386 4094.0 415.0Q4096 444 4096.0 470.0Q4096 496 4096 508Q4096 548 4092.0 585.0Q4088 622 4069.0 649.5Q4050 677 4005 690L4097 925H3977L3889 701H3856V925ZM3856 596Q3902 596 3928.5 594.0Q3955 592 3967.0 583.5Q3979 575 3982.0 556.5Q3985 538 3985 504Q3985 495 3985.0 474.0Q3985 453 3982.0 430.5Q3979 408 3969 397Q3953 381 3920 381H3856ZM4151 925V276H4326Q4424 276 4462.5 316.0Q4501 356 4501 444V743Q4501 806 4481.5 842.5Q4462 879 4427.0 896.5Q4392 914 4346.5 919.5Q4301 925 4250 925ZM4263 819Q4309 819 4337.0 815.0Q4365 811 4377.5 794.0Q4390 777 4390 739V454Q4390 417 4378.5 402.0Q4367 387 4344.0 384.0Q4321 381 4284 381H4263ZM4541 925V786Q4541 693 4549.5 607.5Q4558 522 4587.5 440.0Q4617 358 4679 276H4751Q4814 357 4844.0 440.5Q4874 524 4882.5 610.0Q4891 696 4891 786V925H4779V797H4652V925ZM4652 692H4778Q4774 622 4759.0 552.0Q4744 482 4715 421Q4685 484 4670.0 553.0Q4655 622 4652 692ZM4934 925V272H5045L5177 585L5311 272H5422V925H5310V562L5217 778H5138L5046 562V925Z" fill="currentColor" /></svg>