<svg viewBox="0 0 6057 1652" xmlns="http://www.w3.org/2000/svg"><path d="M1041 1614 194 210V1614H0V35H262L1096 1429V35H1290V1614ZM2077 1519Q2149 1519 2202.5 1498.5Q2256 1478 2294.5 1442.5Q2333 1407 2358.0 1360.0Q2383 1313 2398.0 1260.5Q2413 1208 2419.0 1153.0Q2425 1098 2425 1047Q2425 996 2419.0 941.5Q2413 887 2398.0 834.5Q2383 782 2358.0 735.0Q2333 688 2294.5 652.5Q2256 617 2202.0 596.5Q2148 576 2077 576Q2006 576 1952.5 597.0Q1899 618 1860.5 653.5Q1822 689 1796.5 736.0Q1771 783 1756.0 835.0Q1741 887 1735.0 942.0Q1729 997 1729 1047Q1729 1098 1735.0 1152.5Q1741 1207 1756.0 1259.5Q1771 1312 1796.5 1359.0Q1822 1406 1860.5 1441.5Q1899 1477 1952.5 1498.0Q2006 1519 2077 1519ZM2606 1044Q2606 1114 2596.0 1186.5Q2586 1259 2562.0 1327.0Q2538 1395 2498.5 1454.0Q2459 1513 2400.5 1557.0Q2342 1601 2261.5 1626.5Q2181 1652 2076 1652Q1971 1652 1890.5 1626.5Q1810 1601 1751.5 1557.0Q1693 1513 1653.5 1454.0Q1614 1395 1590.0 1327.0Q1566 1259 1556.0 1187.0Q1546 1115 1546 1044Q1546 973 1556.0 900.5Q1566 828 1590.0 760.5Q1614 693 1653.5 634.0Q1693 575 1751.5 531.0Q1810 487 1890.5 462.0Q1971 437 2076 437Q2181 437 2261.5 462.0Q2342 487 2400.5 531.0Q2459 575 2498.5 634.0Q2538 693 2562.0 760.5Q2586 828 2596.0 900.5Q2606 973 2606 1044ZM3397 1497Q3538 1497 3611.5 1376.0Q3685 1255 3685 1001Q3685 886 3665.5 803.0Q3646 720 3608.5 666.0Q3571 612 3517.5 586.5Q3464 561 3397 561Q3309 561 3220.5 599.0Q3132 637 3042 712V1341Q3210 1497 3397 1497ZM3386 1634Q3336 1634 3286.5 1620.0Q3237 1606 3190.0 1580.0Q3143 1554 3100.0 1517.5Q3057 1481 3020 1436L2992 1614H2852V35L3042 0V584Q3081 544 3126.0 514.0Q3171 484 3215.5 464.0Q3260 444 3300.5 434.0Q3341 424 3371 424Q3609 424 3735.0 566.0Q3861 708 3861 1001Q3861 1188 3822.0 1310.0Q3783 1432 3717.5 1504.0Q3652 1576 3566.0 1605.0Q3480 1634 3386 1634ZM4136 1614V445H4318V1614ZM4119 152Q4119 128 4127.5 107.5Q4136 87 4151.0 71.0Q4166 55 4186.0 46.0Q4206 37 4229 37Q4253 37 4273.0 46.5Q4293 56 4308.0 72.0Q4323 88 4331.0 109.0Q4339 130 4339 152Q4339 176 4330.5 196.5Q4322 217 4307.0 233.0Q4292 249 4272.0 258.0Q4252 267 4229 267Q4205 267 4185.0 257.5Q4165 248 4150.0 232.0Q4135 216 4127.0 195.5Q4119 175 4119 152ZM4838 1614H4648V35L4838 0ZM6003 1513Q5963 1542 5912.0 1564.5Q5861 1587 5808.5 1602.5Q5756 1618 5707.0 1626.0Q5658 1634 5623 1634Q5491 1634 5392.5 1590.0Q5294 1546 5229.0 1466.5Q5164 1387 5131.5 1277.5Q5099 1168 5099 1036Q5099 917 5130.5 806.5Q5162 696 5224.0 611.0Q5286 526 5378.0 475.0Q5470 424 5592 424Q5706 424 5792.5 458.5Q5879 493 5938.0 558.0Q5997 623 6027.0 717.0Q6057 811 6057 930Q6057 962 6055.0 991.5Q6053 1021 6049 1047H5289Q5289 1172 5313.0 1258.0Q5337 1344 5382.0 1397.0Q5427 1450 5492.0 1473.5Q5557 1497 5639 1497Q5687 1497 5727.0 1489.5Q5767 1482 5802.5 1467.5Q5838 1453 5871.5 1431.0Q5905 1409 5941 1380ZM5889 897Q5889 817 5869.0 754.5Q5849 692 5813.0 649.0Q5777 606 5727.5 583.5Q5678 561 5619 561Q5540 561 5481.0 590.0Q5422 619 5381.5 669.0Q5341 719 5318.5 786.5Q5296 854 5289 932H5889Z" /></svg>