<svg viewBox="0 0 7057 2707" xmlns="http://www.w3.org/2000/svg"><path d="M198 1907V445H411L1191 1655H1199Q1185 1338 1185 1270V445H1357V1907H1142L360 693H352Q368 977 368 1090V1907ZM2176 1927Q1668 1927 1668 1358Q1668 789 2176 789Q2684 789 2684 1358Q2684 1927 2176 1927ZM2176 1778Q2497 1778 2497 1359Q2497 940 2176 940Q1854 940 1854 1359Q1854 1778 2176 1778ZM2969 1907V351H3147V1342L3628 809H3839L3395 1278L3870 1907H3653L3272 1395L3147 1504V1907ZM4486 1927Q3978 1927 3978 1358Q3978 789 4486 789Q4994 789 4994 1358Q4994 1927 4486 1927ZM4486 1778Q4807 1778 4807 1359Q4807 940 4486 940Q4164 940 4164 1359Q4164 1778 4486 1778ZM5441 1200 5351 1162Q5547 789 5791 789Q5873 789 5920 801L5897 967Q5845 953 5779 953Q5581 953 5441 1200ZM5279 1907V809H5424L5459 989V1907ZM6124 885Q6332 791 6499 791Q6892 791 6892 1159V1907H6761L6716 1701V1370L6552 1378Q6189 1399 6189 1604Q6189 1782 6390 1782Q6616 1782 6737 1506L6807 1544Q6637 1927 6349 1927Q6003 1927 6003 1602Q6003 1285 6529 1254L6716 1245V1159Q6716 936 6488 936Q6362 936 6179 1020Z" fill="currentColor" /></svg>