<svg viewBox="0 0 12246.0 2217.0" xmlns="http://www.w3.org/2000/svg"><path d="M425 1720.0 449 1449.0Q449 1417.0 413 1396.0Q354 1363.0 269 1363.0Q155 1363.0 112 1408.0Q93 1428.0 93.0 1466.5Q93 1505.0 116.0 1601.0Q139 1697.0 139.0 1736.5Q139 1776.0 124.5 1799.5Q110 1823.0 82.0 1823.0Q54 1823.0 39.0 1799.5Q24 1776.0 24.0 1736.0Q24 1696.0 48.5 1598.0Q73 1500.0 73 1450.0L72 224.0Q72 106.0 0 27.0L21 6.0Q102 78.0 218 78.0H517Q581 78.0 625.5 62.5Q670 47.0 697 1.0L730 17.0Q704 79.0 704 134.0Q704 179.0 862 360.0Q1068 596.0 1127.0 677.0Q1186 758.0 1204 808.0H1264Q1215 736.0 1215 605.0Q1215 544.0 1230.0 422.5Q1245 301.0 1245 240.0Q1245 76.0 1141 27.0L1162 6.0Q1243 78.0 1359 78.0H1564Q1680 78.0 1761 6.0L1781 27.0Q1710 107.0 1710 224.0L1708 1445.0Q1708 1488.0 1728.0 1573.5Q1748 1659.0 1748 1702.0Q1748 1766.0 1699.0 1766.0Q1650 1766.0 1650 1702.0Q1650 1660.0 1669.0 1578.5Q1688 1497.0 1688.0 1466.5Q1688 1436.0 1668.0 1423.0Q1648 1410.0 1629 1410.0H1234Q1150 1410.0 1150 1563.0Q1150 1626.0 1173.5 1745.5Q1197 1865.0 1197 1926.0Q1197 2013.0 1132.0 2013.0Q1067 2013.0 1067 1925.0Q1067 1869.0 1092.5 1762.0Q1118 1655.0 1119 1601.0L1121 1468.0Q1124 1375.0 1102 1347.0L623 740.0Q604 715.0 581 636.0L520 638.0Q572 692.0 572 758.0V1329.0L591 1835.0Q591 1851.0 581.5 1862.5Q572 1874.0 555.5 1874.0Q539 1874.0 528.0 1860.5Q517 1847.0 517 1830.0L529 1446.0Q529 1434.0 520.0 1424.0Q511 1414.0 499 1414.0Q473 1414.0 473.0 1454.0Q473 1494.0 486.5 1585.0Q500 1676.0 500 1710.0Q500 1786.0 462.5 1786.0Q425 1786.0 425 1720.0ZM2908 1572.0 2915 1476.0Q2915 1451.0 2891.0 1437.5Q2867 1424.0 2839.0 1424.0Q2811 1424.0 2789.0 1439.0Q2767 1454.0 2767 1482.0V1712.0Q2767 1762.0 2788.0 1859.0Q2809 1956.0 2809.0 1997.5Q2809 2039.0 2791.0 2066.0Q2773 2093.0 2741.5 2093.0Q2710 2093.0 2694.0 2065.0Q2678 2037.0 2678.0 1992.0Q2678 1947.0 2701.0 1836.0Q2724 1725.0 2724 1664.0Q2724 1417.0 2632 1417.0Q2508 1417.0 2508 1407.0V1409.0Q2508 1478.0 2538.5 1611.5Q2569 1745.0 2569.0 1803.0Q2569 1861.0 2548.0 1898.5Q2527 1936.0 2483.5 1936.0Q2440 1936.0 2415.5 1900.0Q2391 1864.0 2391.0 1806.5Q2391 1749.0 2420.0 1609.5Q2449 1470.0 2449 1398.0Q2212 1323.0 2092.5 1153.0Q1973 983.0 1973 733.0Q1973 215.0 2495 79.0Q2664 35.0 2844.5 35.0Q3025 35.0 3151.5 55.0Q3278 75.0 3396.5 125.5Q3515 176.0 3598.5 253.5Q3682 331.0 3732.0 453.5Q3782 576.0 3782 733.0Q3782 1053.0 3602.0 1228.5Q3422 1404.0 3096 1444.0Q3092 1451.0 3092 1466.0L3097 1521.0Q3097 1572.0 3069.0 1572.0Q3041 1572.0 3041 1523.0L3044 1467.0Q3044 1437.0 3001 1437.0Q2997 1446.0 2997 1471.0L3002 1568.0Q3002 1598.0 2991.0 1626.0Q2980 1654.0 2954 1654.0Q2908 1654.0 2908 1572.0ZM2530 734.0Q2530 1100.0 2878.0 1100.0Q3226 1100.0 3226 734.0Q3226 566.0 3136.0 477.0Q3046 388.0 2878.0 388.0Q2710 388.0 2620.0 477.0Q2530 566.0 2530 734.0ZM4645 1702.0 4655 1601.0V1414.0Q4386 1400.0 4253.0 1340.5Q4120 1281.0 4057 1191.0Q4019 1138.0 3998.5 1072.5Q3978 1007.0 3931 974.0L3946 953.0Q3991 983.0 4043.5 983.0Q4096 983.0 4178.0 979.0Q4260 975.0 4363.0 969.5Q4466 964.0 4510.0 962.0Q4554 960.0 4575.0 949.5Q4596 939.0 4605 911.0L4650 926.0Q4647 934.0 4647 947.0Q4647 980.0 4702.0 1022.0Q4757 1064.0 4901 1064.0Q4998 1064.0 5039 1031.0Q5057 1016.0 5057 995.0Q5057 946.0 5003.0 930.0Q4949 914.0 4872.5 902.5Q4796 891.0 4719.5 884.0Q4643 877.0 4554.0 864.0Q4465 851.0 4386.0 835.5Q4307 820.0 4232.5 790.0Q4158 760.0 4105.0 719.5Q4052 679.0 4019.5 615.5Q3987 552.0 3987.0 471.0Q3987 390.0 4012.5 323.0Q4038 256.0 4082.0 208.0Q4126 160.0 4188.5 123.0Q4251 86.0 4319.5 63.0Q4388 40.0 4469 26.0Q4610 0.0 4735.0 0.0Q4860 0.0 4925.5 3.5Q4991 7.0 5079.5 16.5Q5168 26.0 5239.5 47.5Q5311 69.0 5381 102.0Q5527 170.0 5586 313.0Q5610 364.0 5652 408.0L5639 431.0Q5597 402.0 5542 402.0H5529Q5449 405.0 5300.5 413.5Q5152 422.0 5109.5 424.0Q5067 426.0 5048.5 436.0Q5030 446.0 5022 474.0L4978 462.0Q4981 453.0 4981 443.0Q4981 401.0 4913.0 370.5Q4845 340.0 4759 340.0Q4591 340.0 4591 406.0Q4591 465.0 4843 492.0Q4902 499.0 4977 506.0Q5238 533.0 5377 577.0Q5669 669.0 5669 928.0Q5669 1034.0 5625.0 1118.5Q5581 1203.0 5510.5 1256.0Q5440 1309.0 5344 1344.0Q5171 1407.0 4949 1407.0Q4889 1407.0 4878 1406.0Q4824 1406.0 4824 1489.0V1513.0Q4824 1540.0 4837.5 1592.5Q4851 1645.0 4851 1671.0Q4851 1724.0 4814 1724.0Q4795 1724.0 4784.5 1708.0Q4774 1692.0 4774.0 1668.0Q4774 1644.0 4786.5 1586.5Q4799 1529.0 4799.0 1503.0Q4799 1477.0 4798.5 1466.5Q4798 1456.0 4795.5 1440.5Q4793 1425.0 4787 1418.0Q4773 1400.0 4739 1400.0Q4677 1400.0 4677 1508.0L4683 1672.0Q4683 1738.0 4664.0 1738.0Q4645 1738.0 4645 1702.0ZM6408 1949.0 6419 1683.0Q6419 1554.0 6409.5 1520.0Q6400 1486.0 6390.0 1460.0Q6380 1434.0 6364.0 1418.0Q6348 1402.0 6326 1388.0Q6284 1360.0 6194.0 1360.0Q6104 1360.0 6042.5 1433.0Q5981 1506.0 5981 1608.0Q5981 1646.0 5996.0 1721.5Q6011 1797.0 6011 1835.0Q6011 1907.0 5960.0 1907.0Q5909 1907.0 5909 1837.0Q5909 1798.0 5924.5 1720.0Q5940 1642.0 5940 1602.0L5947 1334.0V159.0Q5947 97.0 5908 59.0L5928 38.0Q5970 78.0 6028 78.0H6390Q6450 78.0 6490 38.0L6510 59.0Q6471 98.0 6471 159.0V1329.0Q6471 1381.0 6460.0 1508.5Q6449 1636.0 6453 1705.0H6452Q6489 1871.0 6489.0 1958.0Q6489 2045.0 6456 2045.0Q6408 2045.0 6408 1949.0ZM7351 997.0 7343 1201.0Q7343 1256.0 7369.5 1363.5Q7396 1471.0 7396.0 1522.5Q7396 1574.0 7413.0 1667.0Q7430 1760.0 7430.0 1816.5Q7430 1873.0 7381.5 1873.0Q7333 1873.0 7333.0 1817.5Q7333 1762.0 7350.5 1669.5Q7368 1577.0 7368.0 1531.0Q7368 1485.0 7336.0 1447.5Q7304 1410.0 7260 1410.0Q7160 1410.0 7160 1653.0Q7160 1710.0 7175.0 1824.0Q7190 1938.0 7190 1980.0Q7190 2062.0 7141 2062.0Q7116 2062.0 7102.5 2040.5Q7089 2019.0 7089.0 1979.0Q7089 1939.0 7106.5 1833.0Q7124 1727.0 7124.0 1679.0Q7124 1631.0 7118.5 1588.5Q7113 1546.0 7098.5 1497.5Q7084 1449.0 7052.5 1419.0Q7021 1389.0 6971.5 1389.0Q6922 1389.0 6882.5 1432.0Q6843 1475.0 6843.0 1513.5Q6843 1552.0 6857.0 1594.0Q6871 1636.0 6871 1659.0Q6871 1703.0 6838.5 1703.0Q6806 1703.0 6806 1659.0L6830 1499.0L6829 226.0Q6829 108.0 6757 29.0L6777 9.0Q6857 80.0 6974 80.0H8128Q8245 80.0 8325 9.0L8345 29.0Q8274 109.0 8274.0 209.0Q8274 309.0 8287.0 364.0Q8300 419.0 8345 470.0L8325 490.0Q8272 419.0 8193 419.0H7434Q7378 419.0 7338 381.0L7319 400.0Q7357 440.0 7357.0 497.0Q7357 554.0 7319 594.0L7338 613.0Q7371 581.0 7417.5 572.0Q7464 563.0 7528 563.0L7908 584.0Q8001 584.0 8072.5 568.0Q8144 552.0 8195 503.0L8215 523.0Q8140 605.0 8140.0 750.0Q8140 895.0 8209 967.0L8188 987.0Q8097 906.0 7894 906.0L7520 927.0Q7383 927.0 7333 877.0L7314 897.0Q7351 935.0 7351 997.0ZM9138 1244.0 9122 1120.0V1109.0Q9143 1072.0 9179 1072.0L9995 1073.0Q10056 1073.0 10094 1034.0L10114 1054.0Q10070 1098.0 10070 1222.0Q10070 1222.0 10070 1280.0Q10070 1381.0 10114 1427.0L10094 1447.0Q10055 1408.0 9995 1408.0H8812Q8723 1408.0 8681 1442.0Q8633 1482.0 8633 1668.0Q8633 1743.0 8656.0 1889.5Q8679 2036.0 8679 2110.0Q8679 2217.0 8603 2217.0Q8521 2217.0 8521 2107.0Q8521 2032.0 8554.0 1885.0Q8587 1738.0 8587 1662.0L8582 1327.0V161.0Q8582 99.0 8544 62.0L8564 41.0Q8605 80.0 8664 80.0H9948Q10009 80.0 10048 41.0L10068 62.0Q10024 106.0 10024 228.0V284.0Q10024 391.0 10068 434.0L10048 453.0Q9998 402.0 9813 402.0L9316 425.0Q9132 425.0 9082 374.0L9061 394.0Q9100 432.0 9100.0 494.5Q9100 557.0 9061 595.0L9082 614.0Q9130 564.0 9284 564.0L9703 587.0Q9858 587.0 9908 537.0L9929 557.0Q9885 601.0 9885 726.0V782.0Q9885 885.0 9929 931.0L9908 952.0Q9860 902.0 9705 902.0L9286 924.0Q9132 924.0 9082 874.0L9062 894.0Q9092 924.0 9097.0 965.5Q9102 1007.0 9103.0 1024.5Q9104 1042.0 9103.0 1078.5Q9102 1115.0 9102 1122.0L9085 1242.0Q9085 1278.0 9111.5 1278.0Q9138 1278.0 9138 1244.0ZM11974 1738.0 11996 1531.0Q11996 1405.0 11893.5 1338.5Q11791 1272.0 11678.0 1279.5Q11565 1287.0 11520 1356.0Q11497 1389.0 11497 1434.0L11492 1702.0Q11492 1757.0 11509.0 1865.5Q11526 1974.0 11526 2029.0Q11526 2126.0 11471.0 2126.0Q11416 2126.0 11416 2032.0Q11416 1970.0 11434.0 1854.0Q11452 1738.0 11454.5 1678.0Q11457 1618.0 11457 1422.0Q11457 1370.0 11425.0 1302.0Q11393 1234.0 11324.0 1115.0Q11255 996.0 11211 905.0L11181 888.0Q11157 932.0 11096 932.0L11012 935.0Q10926 935.0 10883 893.0L10862 913.0Q10865 950.0 10865 1071.0L10864 1316.0Q10864 1426.0 10868 1478.0L10887 1625.0Q10887 1666.0 10859.0 1666.0Q10831 1666.0 10831 1628.0L10847 1504.0Q10847 1459.0 10820.5 1432.5Q10794 1406.0 10751.5 1406.0Q10709 1406.0 10676.5 1443.5Q10644 1481.0 10644.0 1541.0Q10644 1601.0 10666.0 1703.5Q10688 1806.0 10688 1851.0Q10688 1945.0 10621.0 1945.0Q10554 1945.0 10554 1853.0Q10554 1810.0 10573.5 1703.0Q10593 1596.0 10593.0 1533.0Q10593 1470.0 10564.0 1429.5Q10535 1389.0 10498.0 1389.0Q10461 1389.0 10435.0 1414.5Q10409 1440.0 10409 1478.0L10436 1715.0Q10436 1776.0 10391.0 1776.0Q10346 1776.0 10346 1714.0Q10346 1678.0 10365.0 1588.5Q10384 1499.0 10383.0 1449.0Q10382 1399.0 10382 155.0Q10382 93.0 10344 56.0L10364 36.0Q10403 74.0 10463 74.0H11359Q11569 74.0 11641.5 86.5Q11714 99.0 11768.5 113.0Q11823 127.0 11860.5 147.5Q11898 168.0 11936.5 198.5Q11975 229.0 11998 268.0Q12051 357.0 12051.0 457.0Q12051 557.0 12035.5 620.5Q12020 684.0 11984 740.0Q11906 861.0 11710 861.0L11702 884.0Q11765 909.0 11786 953.0Q11874 1145.0 11916.0 1196.5Q11958 1248.0 11994.0 1279.0Q12030 1310.0 12097.0 1342.0Q12164 1374.0 12178.0 1383.5Q12192 1393.0 12192 1399.0Q12192 1499.0 12219.0 1656.0Q12246 1813.0 12246.0 1858.0Q12246 1903.0 12242.5 1923.0Q12239 1943.0 12227.0 1962.5Q12215 1982.0 12192.0 1982.0Q12169 1982.0 12157.5 1949.0Q12146 1916.0 12146.0 1868.0Q12146 1820.0 12159.0 1696.5Q12172 1573.0 12172 1510.0Q12172 1385.0 12091 1385.0Q12051 1385.0 12031.5 1399.0Q12012 1413.0 12012.0 1456.5Q12012 1500.0 12030.0 1595.0Q12048 1690.0 12048.0 1738.5Q12048 1787.0 12011.0 1787.0Q11974 1787.0 11974 1738.0ZM11308 406.0 11072 413.0Q10927 413.0 10883 370.0L10862 389.0Q10902 428.0 10902 489.0V556.0Q10902 616.0 10862 656.0L10883 676.0Q10926 632.0 11061 632.0L11314 641.0Q11415 641.0 11470.5 614.5Q11526 588.0 11526 517.0Q11526 472.0 11495.0 446.5Q11464 421.0 11420.0 413.5Q11376 406.0 11308 406.0Z" /></svg>