<svg viewBox="0 0 5651 1300" xmlns="http://www.w3.org/2000/svg"><path d="M28 443H322L614 793V443H674V1143H439L89 677V1143H28ZM723 792Q723 680 786.0 600.0Q849 520 956.5 478.5Q1064 437 1198 437Q1331 437 1438.5 478.5Q1546 520 1608.5 600.0Q1671 680 1671 792Q1671 905 1608.5 985.5Q1546 1066 1438.5 1107.0Q1331 1148 1198 1148Q1064 1148 956.0 1107.0Q848 1066 785.5 985.5Q723 905 723 792ZM1260 1051Q1277 1022 1283 948Q1286 909 1286 792Q1286 674 1281 625Q1278 565 1259 534Q1239 496 1198 496Q1156 496 1135 534Q1118 564 1113 625Q1109 677 1109 792Q1109 922 1112 948Q1116 1017 1134 1051Q1155 1089 1198 1089Q1240 1089 1260 1051ZM1834 502H1571V443H2448V502H2184V1143H1834ZM2545 443H2837L3147 1143H2769L2664 911H2444L2354 1143H2281ZM2636 850 2545 647 2466 850ZM3194 443H3861Q3912 443 3954.5 467.5Q3997 492 4022.0 534.5Q4047 577 4047 628Q4047 677 4023.0 721.0Q3999 765 3959 792Q3999 820 4023.0 864.5Q4047 909 4047 958Q4047 1008 4022.0 1050.5Q3997 1093 3954.5 1118.0Q3912 1143 3861 1143H3194ZM3692 633Q3692 597 3674.5 566.5Q3657 536 3626.5 518.0Q3596 500 3560 500H3545V763Q3550 764 3560 764Q3596 764 3626.5 746.5Q3657 729 3674.5 698.5Q3692 668 3692 633ZM3692 953Q3692 918 3674.5 887.5Q3657 857 3626.5 839.5Q3596 822 3560 822H3545V1084Q3550 1085 3560 1085Q3596 1085 3626.5 1067.5Q3657 1050 3674.5 1019.5Q3692 989 3692 953ZM4107 443H4458V1083H4838V1143H4107ZM4895 443H5622V502H5247V761H5431V821H5247V1083H5622V1143H4895Z" fill="currentColor" /></svg>