<svg viewBox="0 0 8579 734" xmlns="http://www.w3.org/2000/svg"><path d="M566 724H461L79 131H75Q77 166 80.0 218.0Q83 270 83 325V724H0V10H104L485 601H489Q488 585 486.5 553.0Q485 521 483.5 483.0Q482 445 482 413V10H566ZM1214 455Q1214 588 1146.5 661.0Q1079 734 964 734Q893 734 837.5 701.5Q782 669 750.0 606.5Q718 544 718 455Q718 322 785.0 250.0Q852 178 967 178Q1040 178 1095.5 210.5Q1151 243 1182.5 304.5Q1214 366 1214 455ZM809 455Q809 550 846.5 605.5Q884 661 966 661Q1047 661 1085.0 605.5Q1123 550 1123 455Q1123 360 1085.0 306.0Q1047 252 965 252Q883 252 846.0 306.0Q809 360 809 455ZM1532 662Q1552 662 1573.0 658.5Q1594 655 1607 651V718Q1593 725 1567.0 729.5Q1541 734 1517 734Q1475 734 1439.5 719.5Q1404 705 1382.0 669.0Q1360 633 1360 568V256H1284V214L1361 179L1396 65H1448V188H1603V256H1448V566Q1448 615 1471.5 638.5Q1495 662 1532 662ZM2180 455Q2180 588 2112.5 661.0Q2045 734 1930 734Q1859 734 1803.5 701.5Q1748 669 1716.0 606.5Q1684 544 1684 455Q1684 322 1751.0 250.0Q1818 178 1933 178Q2006 178 2061.5 210.5Q2117 243 2148.5 304.5Q2180 366 2180 455ZM1775 455Q1775 550 1812.5 605.5Q1850 661 1932 661Q2013 661 2051.0 605.5Q2089 550 2089 455Q2089 360 2051.0 306.0Q2013 252 1931 252Q1849 252 1812.0 306.0Q1775 360 1775 455ZM2996 533Q2996 628 2927.0 681.0Q2858 734 2741 734Q2681 734 2630.0 725.0Q2579 716 2545 700V614Q2581 630 2634.5 643.0Q2688 656 2745 656Q2825 656 2865.5 625.0Q2906 594 2906 541Q2906 506 2891.0 482.0Q2876 458 2839.5 437.5Q2803 417 2738 394Q2692 377 2657.5 357.5Q2623 338 2600.0 313.0Q2577 288 2565.5 256.0Q2554 224 2554 182Q2554 125 2583.0 84.5Q2612 44 2663.5 22.0Q2715 0 2782 0Q2841 0 2890.0 11.0Q2939 22 2979 40L2951 117Q2914 101 2870.5 90.0Q2827 79 2780 79Q2713 79 2679.0 107.5Q2645 136 2645 183Q2645 219 2660.0 243.0Q2675 267 2709.0 286.0Q2743 305 2801 327Q2864 350 2907.5 376.5Q2951 403 2973.5 440.0Q2996 477 2996 533ZM3331 179Q3429 179 3476.0 222.0Q3523 265 3523 359V724H3459L3442 648H3438Q3403 692 3364.5 713.0Q3326 734 3258 734Q3185 734 3137.0 695.5Q3089 657 3089 575Q3089 495 3152.0 451.5Q3215 408 3346 404L3437 401V369Q3437 302 3408.0 276.0Q3379 250 3326 250Q3284 250 3246.0 262.5Q3208 275 3175 291L3148 225Q3183 206 3231.0 192.5Q3279 179 3331 179ZM3357 465Q3257 469 3218.5 497.0Q3180 525 3180 576Q3180 621 3207.5 642.0Q3235 663 3278 663Q3346 663 3391.0 625.5Q3436 588 3436 510V462ZM3947 178Q4043 178 4092.0 224.5Q4141 271 4141 375V724H4054V381Q4054 316 4025.0 284.0Q3996 252 3934 252Q3845 252 3811.0 302.0Q3777 352 3777 446V724H3689V188H3760L3773 261H3778Q3804 219 3850.0 198.5Q3896 178 3947 178ZM4656 576Q4656 654 4598.0 694.0Q4540 734 4442 734Q4386 734 4345.5 725.0Q4305 716 4274 700V620Q4306 636 4351.5 649.5Q4397 663 4444 663Q4511 663 4541.0 641.5Q4571 620 4571 584Q4571 564 4560.0 548.0Q4549 532 4520.5 516.0Q4492 500 4439 480Q4387 460 4350.0 440.0Q4313 420 4293.0 392.0Q4273 364 4273 320Q4273 252 4328.5 215.0Q4384 178 4474 178Q4523 178 4565.5 187.5Q4608 197 4645 214L4615 284Q4581 270 4544.0 260.0Q4507 250 4468 250Q4414 250 4385.5 267.5Q4357 285 4357 315Q4357 337 4370.0 352.5Q4383 368 4413.5 382.5Q4444 397 4495 417Q4546 436 4582.0 456.0Q4618 476 4637.0 504.5Q4656 533 4656 576ZM5262 10Q5396 10 5464.5 49.5Q5533 89 5533 187Q5533 250 5498.0 291.5Q5463 333 5397 345V350Q5442 357 5478.5 376.0Q5515 395 5536.0 430.0Q5557 465 5557 521Q5557 618 5490.5 671.0Q5424 724 5309 724H5058V10ZM5280 314Q5372 314 5406.0 284.5Q5440 255 5440 197Q5440 138 5398.5 112.5Q5357 87 5266 87H5148V314ZM5148 389V648H5292Q5387 648 5424.0 611.0Q5461 574 5461 514Q5461 458 5422.5 423.5Q5384 389 5285 389ZM5899 179Q5997 179 6044.0 222.0Q6091 265 6091 359V724H6027L6010 648H6006Q5971 692 5932.5 713.0Q5894 734 5826 734Q5753 734 5705.0 695.5Q5657 657 5657 575Q5657 495 5720.0 451.5Q5783 408 5914 404L6005 401V369Q6005 302 5976.0 276.0Q5947 250 5894 250Q5852 250 5814.0 262.5Q5776 275 5743 291L5716 225Q5751 206 5799.0 192.5Q5847 179 5899 179ZM5925 465Q5825 469 5786.5 497.0Q5748 525 5748 576Q5748 621 5775.5 642.0Q5803 663 5846 663Q5914 663 5959.0 625.5Q6004 588 6004 510V462ZM6845 178Q6936 178 6981.0 224.5Q7026 271 7026 375V724H6939V379Q6939 252 6830 252Q6752 252 6718.5 297.0Q6685 342 6685 428V724H6598V379Q6598 252 6488 252Q6407 252 6376.0 302.0Q6345 352 6345 446V724H6257V188H6328L6341 261H6346Q6371 219 6413.5 198.5Q6456 178 6504 178Q6566 178 6607.5 200.0Q6649 222 6668 268H6673Q6700 222 6746.5 200.0Q6793 178 6845 178ZM7640 188V724H7568L7555 653H7551Q7525 695 7479.0 714.5Q7433 734 7381 734Q7284 734 7235.0 687.5Q7186 641 7186 539V188H7275V533Q7275 597 7304.0 629.0Q7333 661 7394 661Q7483 661 7517.5 611.0Q7552 561 7552 467V188ZM8398 178Q8489 178 8534.0 224.5Q8579 271 8579 375V724H8492V379Q8492 252 8383 252Q8305 252 8271.5 297.0Q8238 342 8238 428V724H8151V379Q8151 252 8041 252Q7960 252 7929.0 302.0Q7898 352 7898 446V724H7810V188H7881L7894 261H7899Q7924 219 7966.5 198.5Q8009 178 8057 178Q8119 178 8160.5 200.0Q8202 222 8221 268H8226Q8253 222 8299.5 200.0Q8346 178 8398 178Z" fill="currentColor" /></svg>