<svg viewBox="0 0 9875 1362" xmlns="http://www.w3.org/2000/svg"><path d="M663 1069H558L176 476H172Q174 511 177.0 563.0Q180 615 180 670V1069H97V355H201L582 946H586Q585 930 583.5 898.0Q582 866 580.5 828.0Q579 790 579 758V355H663ZM1311 800Q1311 933 1243.5 1006.0Q1176 1079 1061 1079Q990 1079 934.5 1046.5Q879 1014 847.0 951.5Q815 889 815 800Q815 667 882.0 595.0Q949 523 1064 523Q1137 523 1192.5 555.5Q1248 588 1279.5 649.5Q1311 711 1311 800ZM906 800Q906 895 943.5 950.5Q981 1006 1063 1006Q1144 1006 1182.0 950.5Q1220 895 1220 800Q1220 705 1182.0 651.0Q1144 597 1062 597Q980 597 943.0 651.0Q906 705 906 800ZM1629 1007Q1649 1007 1670.0 1003.5Q1691 1000 1704 996V1063Q1690 1070 1664.0 1074.5Q1638 1079 1614 1079Q1572 1079 1536.5 1064.5Q1501 1050 1479.0 1014.0Q1457 978 1457 913V601H1381V559L1458 524L1493 410H1545V533H1700V601H1545V911Q1545 960 1568.5 983.5Q1592 1007 1629 1007ZM2277 800Q2277 933 2209.5 1006.0Q2142 1079 2027 1079Q1956 1079 1900.5 1046.5Q1845 1014 1813.0 951.5Q1781 889 1781 800Q1781 667 1848.0 595.0Q1915 523 2030 523Q2103 523 2158.5 555.5Q2214 588 2245.5 649.5Q2277 711 2277 800ZM1872 800Q1872 895 1909.5 950.5Q1947 1006 2029 1006Q2110 1006 2148.0 950.5Q2186 895 2186 800Q2186 705 2148.0 651.0Q2110 597 2028 597Q1946 597 1909.0 651.0Q1872 705 1872 800ZM3093 878Q3093 973 3024.0 1026.0Q2955 1079 2838 1079Q2778 1079 2727.0 1070.0Q2676 1061 2642 1045V959Q2678 975 2731.5 988.0Q2785 1001 2842 1001Q2922 1001 2962.5 970.0Q3003 939 3003 886Q3003 851 2988.0 827.0Q2973 803 2936.5 782.5Q2900 762 2835 739Q2744 706 2697.5 658.0Q2651 610 2651 527Q2651 470 2680.0 429.5Q2709 389 2760.5 367.0Q2812 345 2879 345Q2938 345 2987.0 356.0Q3036 367 3076 385L3048 462Q3011 446 2967.5 435.0Q2924 424 2877 424Q2810 424 2776.0 452.5Q2742 481 2742 528Q2742 564 2757.0 588.0Q2772 612 2806.0 631.0Q2840 650 2898 672Q2961 695 3004.5 721.5Q3048 748 3070.5 785.0Q3093 822 3093 878ZM3428 524Q3526 524 3573.0 567.0Q3620 610 3620 704V1069H3556L3539 993H3535Q3500 1037 3461.5 1058.0Q3423 1079 3355 1079Q3282 1079 3234.0 1040.5Q3186 1002 3186 920Q3186 840 3249.0 796.5Q3312 753 3443 749L3534 746V714Q3534 647 3505.0 621.0Q3476 595 3423 595Q3381 595 3343.0 607.5Q3305 620 3272 636L3245 570Q3280 551 3328.0 537.5Q3376 524 3428 524ZM3454 810Q3354 814 3315.5 842.0Q3277 870 3277 921Q3277 966 3304.5 987.0Q3332 1008 3375 1008Q3443 1008 3488.0 970.5Q3533 933 3533 855V807ZM4044 523Q4140 523 4189.0 569.5Q4238 616 4238 720V1069H4151V726Q4151 597 4031 597Q3942 597 3908.0 647.0Q3874 697 3874 791V1069H3786V533H3857L3870 606H3875Q3901 564 3947.0 543.5Q3993 523 4044 523ZM4753 921Q4753 999 4695.0 1039.0Q4637 1079 4539 1079Q4483 1079 4442.5 1070.0Q4402 1061 4371 1045V965Q4403 981 4448.5 994.5Q4494 1008 4541 1008Q4608 1008 4638.0 986.5Q4668 965 4668 929Q4668 909 4657.0 893.0Q4646 877 4617.5 861.0Q4589 845 4536 825Q4484 805 4447.0 785.0Q4410 765 4390.0 737.0Q4370 709 4370 665Q4370 597 4425.5 560.0Q4481 523 4571 523Q4620 523 4662.5 532.5Q4705 542 4742 559L4712 629Q4678 615 4641.0 605.0Q4604 595 4565 595Q4511 595 4482.5 612.5Q4454 630 4454 660Q4454 682 4467.0 697.5Q4480 713 4510.5 727.5Q4541 742 4592 762Q4643 781 4679.0 801.0Q4715 821 4734.0 849.5Q4753 878 4753 921ZM5560 878Q5560 973 5491.0 1026.0Q5422 1079 5305 1079Q5245 1079 5194.0 1070.0Q5143 1061 5109 1045V959Q5145 975 5198.5 988.0Q5252 1001 5309 1001Q5389 1001 5429.5 970.0Q5470 939 5470 886Q5470 851 5455.0 827.0Q5440 803 5403.5 782.5Q5367 762 5302 739Q5211 706 5164.5 658.0Q5118 610 5118 527Q5118 470 5147.0 429.5Q5176 389 5227.5 367.0Q5279 345 5346 345Q5405 345 5454.0 356.0Q5503 367 5543 385L5515 462Q5478 446 5434.5 435.0Q5391 424 5344 424Q5277 424 5243.0 452.5Q5209 481 5209 528Q5209 564 5224.0 588.0Q5239 612 5273.0 631.0Q5307 650 5365 672Q5428 695 5471.5 721.5Q5515 748 5537.5 785.0Q5560 822 5560 878ZM5895 524Q5993 524 6040.0 567.0Q6087 610 6087 704V1069H6023L6006 993H6002Q5967 1037 5928.5 1058.0Q5890 1079 5822 1079Q5749 1079 5701.0 1040.5Q5653 1002 5653 920Q5653 840 5716.0 796.5Q5779 753 5910 749L6001 746V714Q6001 647 5972.0 621.0Q5943 595 5890 595Q5848 595 5810.0 607.5Q5772 620 5739 636L5712 570Q5747 551 5795.0 537.5Q5843 524 5895 524ZM5921 810Q5821 814 5782.5 842.0Q5744 870 5744 921Q5744 966 5771.5 987.0Q5799 1008 5842 1008Q5910 1008 5955.0 970.5Q6000 933 6000 855V807ZM6841 523Q6932 523 6977.0 569.5Q7022 616 7022 720V1069H6935V724Q6935 597 6826 597Q6748 597 6714.5 642.0Q6681 687 6681 773V1069H6594V724Q6594 597 6484 597Q6403 597 6372.0 647.0Q6341 697 6341 791V1069H6253V533H6324L6337 606H6342Q6367 564 6409.5 543.5Q6452 523 6500 523Q6626 523 6664 613H6669Q6696 567 6742.5 545.0Q6789 523 6841 523ZM7391 524Q7489 524 7536.0 567.0Q7583 610 7583 704V1069H7519L7502 993H7498Q7463 1037 7424.5 1058.0Q7386 1079 7318 1079Q7245 1079 7197.0 1040.5Q7149 1002 7149 920Q7149 840 7212.0 796.5Q7275 753 7406 749L7497 746V714Q7497 647 7468.0 621.0Q7439 595 7386 595Q7344 595 7306.0 607.5Q7268 620 7235 636L7208 570Q7243 551 7291.0 537.5Q7339 524 7391 524ZM7417 810Q7317 814 7278.5 842.0Q7240 870 7240 921Q7240 966 7267.5 987.0Q7295 1008 7338 1008Q7406 1008 7451.0 970.5Q7496 933 7496 855V807ZM7999 523Q8014 523 8031.5 524.5Q8049 526 8062 529L8051 610Q8038 607 8022.5 605.0Q8007 603 7993 603Q7952 603 7916.0 625.5Q7880 648 7858.5 688.5Q7837 729 7837 783V1069H7749V533H7821L7831 631H7835Q7861 587 7902.0 555.0Q7943 523 7999 523ZM8207 332Q8227 332 8242.5 345.5Q8258 359 8258 388Q8258 416 8242.5 430.0Q8227 444 8207 444Q8185 444 8170.0 430.0Q8155 416 8155 388Q8155 359 8170.0 345.5Q8185 332 8207 332ZM8250 533V1069H8162V533ZM8599 1007Q8619 1007 8640.0 1003.5Q8661 1000 8674 996V1063Q8660 1070 8634.0 1074.5Q8608 1079 8584 1079Q8542 1079 8506.5 1064.5Q8471 1050 8449.0 1014.0Q8427 978 8427 913V601H8351V559L8428 524L8463 410H8515V533H8670V601H8515V911Q8515 960 8538.5 983.5Q8562 1007 8599 1007ZM8984 524Q9082 524 9129.0 567.0Q9176 610 9176 704V1069H9112L9095 993H9091Q9056 1037 9017.5 1058.0Q8979 1079 8911 1079Q8838 1079 8790.0 1040.5Q8742 1002 8742 920Q8742 840 8805.0 796.5Q8868 753 8999 749L9090 746V714Q9090 647 9061.0 621.0Q9032 595 8979 595Q8937 595 8899.0 607.5Q8861 620 8828 636L8801 570Q8836 551 8884.0 537.5Q8932 524 8984 524ZM9010 810Q8910 814 8871.5 842.0Q8833 870 8833 921Q8833 966 8860.5 987.0Q8888 1008 8931 1008Q8999 1008 9044.0 970.5Q9089 933 9089 855V807ZM9600 523Q9696 523 9745.0 569.5Q9794 616 9794 720V1069H9707V726Q9707 597 9587 597Q9498 597 9464.0 647.0Q9430 697 9430 791V1069H9342V533H9413L9426 606H9431Q9457 564 9503.0 543.5Q9549 523 9600 523Z" fill="currentColor" /></svg>