<svg viewBox="0 0 9119 1641" xmlns="http://www.w3.org/2000/svg"><path d="M663 1107H558L176 514H172Q174 549 177.0 601.0Q180 653 180 708V1107H97V393H201L582 984H586Q585 968 583.5 936.0Q582 904 580.5 866.0Q579 828 579 796V393H663ZM1311 838Q1311 971 1243.5 1044.0Q1176 1117 1061 1117Q990 1117 934.5 1084.5Q879 1052 847.0 989.5Q815 927 815 838Q815 705 882.0 633.0Q949 561 1064 561Q1137 561 1192.5 593.5Q1248 626 1279.5 687.5Q1311 749 1311 838ZM906 838Q906 933 943.5 988.5Q981 1044 1063 1044Q1144 1044 1182.0 988.5Q1220 933 1220 838Q1220 743 1182.0 689.0Q1144 635 1062 635Q980 635 943.0 689.0Q906 743 906 838ZM1629 1045Q1649 1045 1670.0 1041.5Q1691 1038 1704 1034V1101Q1690 1108 1664.0 1112.5Q1638 1117 1614 1117Q1572 1117 1536.5 1102.5Q1501 1088 1479.0 1052.0Q1457 1016 1457 951V639H1381V597L1458 562L1493 448H1545V571H1700V639H1545V949Q1545 998 1568.5 1021.5Q1592 1045 1629 1045ZM2277 838Q2277 971 2209.5 1044.0Q2142 1117 2027 1117Q1956 1117 1900.5 1084.5Q1845 1052 1813.0 989.5Q1781 927 1781 838Q1781 705 1848.0 633.0Q1915 561 2030 561Q2103 561 2158.5 593.5Q2214 626 2245.5 687.5Q2277 749 2277 838ZM1872 838Q1872 933 1909.5 988.5Q1947 1044 2029 1044Q2110 1044 2148.0 988.5Q2186 933 2186 838Q2186 743 2148.0 689.0Q2110 635 2028 635Q1946 635 1909.0 689.0Q1872 743 1872 838ZM3053 916Q3053 1011 2984.0 1064.0Q2915 1117 2798 1117Q2738 1117 2687.0 1108.0Q2636 1099 2602 1083V997Q2638 1013 2691.5 1026.0Q2745 1039 2802 1039Q2882 1039 2922.5 1008.0Q2963 977 2963 924Q2963 889 2948.0 865.0Q2933 841 2896.5 820.5Q2860 800 2795 777Q2704 744 2657.5 696.0Q2611 648 2611 565Q2611 508 2640.0 467.5Q2669 427 2720.5 405.0Q2772 383 2839 383Q2898 383 2947.0 394.0Q2996 405 3036 423L3008 500Q2971 484 2927.5 473.0Q2884 462 2837 462Q2770 462 2736.0 490.5Q2702 519 2702 566Q2702 602 2717.0 626.0Q2732 650 2766.0 669.0Q2800 688 2858 710Q2921 733 2964.5 759.5Q3008 786 3030.5 823.0Q3053 860 3053 916ZM3388 562Q3486 562 3533.0 605.0Q3580 648 3580 742V1107H3516L3499 1031H3495Q3460 1075 3421.5 1096.0Q3383 1117 3315 1117Q3242 1117 3194.0 1078.5Q3146 1040 3146 958Q3146 878 3209.0 834.5Q3272 791 3403 787L3494 784V752Q3494 685 3465.0 659.0Q3436 633 3383 633Q3341 633 3303.0 645.5Q3265 658 3232 674L3205 608Q3240 589 3288.0 575.5Q3336 562 3388 562ZM3414 848Q3314 852 3275.5 880.0Q3237 908 3237 959Q3237 1004 3264.5 1025.0Q3292 1046 3335 1046Q3403 1046 3448.0 1008.5Q3493 971 3493 893V845ZM4004 561Q4100 561 4149.0 607.5Q4198 654 4198 758V1107H4111V764Q4111 635 3991 635Q3902 635 3868.0 685.0Q3834 735 3834 829V1107H3746V571H3817L3830 644H3835Q3861 602 3907.0 581.5Q3953 561 4004 561ZM4713 959Q4713 1037 4655.0 1077.0Q4597 1117 4499 1117Q4443 1117 4402.5 1108.0Q4362 1099 4331 1083V1003Q4363 1019 4408.5 1032.5Q4454 1046 4501 1046Q4568 1046 4598.0 1024.5Q4628 1003 4628 967Q4628 947 4617.0 931.0Q4606 915 4577.5 899.0Q4549 883 4496 863Q4444 843 4407.0 823.0Q4370 803 4350.0 775.0Q4330 747 4330 703Q4330 635 4385.5 598.0Q4441 561 4531 561Q4580 561 4622.5 570.5Q4665 580 4702 597L4672 667Q4638 653 4601.0 643.0Q4564 633 4525 633Q4471 633 4442.5 650.5Q4414 668 4414 698Q4414 720 4427.0 735.5Q4440 751 4470.5 765.5Q4501 780 4552 800Q4603 819 4639.0 839.0Q4675 859 4694.0 887.5Q4713 916 4713 959ZM5390 1107 5155 481H5151Q5154 512 5156.0 564.5Q5158 617 5158 674V1107H5075V393H5208L5428 978H5432L5656 393H5788V1107H5699V668Q5699 616 5701.5 565.0Q5704 514 5706 482H5702L5464 1107ZM6173 562Q6271 562 6318.0 605.0Q6365 648 6365 742V1107H6301L6284 1031H6280Q6245 1075 6206.5 1096.0Q6168 1117 6100 1117Q6027 1117 5979.0 1078.5Q5931 1040 5931 958Q5931 878 5994.0 834.5Q6057 791 6188 787L6279 784V752Q6279 685 6250.0 659.0Q6221 633 6168 633Q6126 633 6088.0 645.5Q6050 658 6017 674L5990 608Q6025 589 6073.0 575.5Q6121 562 6173 562ZM6199 848Q6099 852 6060.5 880.0Q6022 908 6022 959Q6022 1004 6049.5 1025.0Q6077 1046 6120 1046Q6188 1046 6233.0 1008.5Q6278 971 6278 893V845ZM6781 561Q6796 561 6813.5 562.5Q6831 564 6844 567L6833 648Q6820 645 6804.5 643.0Q6789 641 6775 641Q6734 641 6698.0 663.5Q6662 686 6640.5 726.5Q6619 767 6619 821V1107H6531V571H6603L6613 669H6617Q6643 625 6684.0 593.0Q6725 561 6781 561ZM7139 1117Q7068 1117 7012.5 1088.0Q6957 1059 6925.5 998.0Q6894 937 6894 842Q6894 743 6927.0 681.0Q6960 619 7016.5 590.0Q7073 561 7145 561Q7186 561 7224.0 569.5Q7262 578 7286 590L7259 663Q7235 654 7203.0 646.0Q7171 638 7143 638Q6985 638 6985 841Q6985 938 7023.5 989.5Q7062 1041 7138 1041Q7182 1041 7215.5 1032.0Q7249 1023 7277 1010V1088Q7250 1102 7217.5 1109.5Q7185 1117 7139 1117ZM7492 570Q7492 610 7487 645H7493Q7519 604 7563.5 583.0Q7608 562 7660 562Q7758 562 7807.0 608.5Q7856 655 7856 758V1107H7769V764Q7769 635 7649 635Q7559 635 7525.5 685.5Q7492 736 7492 830V1107H7404V347H7492ZM8229 561Q8298 561 8347.5 591.0Q8397 621 8423.5 675.5Q8450 730 8450 803V856H8083Q8085 947 8129.5 994.5Q8174 1042 8254 1042Q8305 1042 8344.5 1032.5Q8384 1023 8426 1005V1082Q8385 1100 8345.0 1108.5Q8305 1117 8250 1117Q8174 1117 8115.5 1086.0Q8057 1055 8024.5 993.5Q7992 932 7992 843Q7992 755 8021.5 692.0Q8051 629 8104.5 595.0Q8158 561 8229 561ZM8228 633Q8165 633 8128.5 673.5Q8092 714 8085 786H8358Q8357 718 8326.0 675.5Q8295 633 8228 633ZM8844 561Q8940 561 8989.0 607.5Q9038 654 9038 758V1107H8951V764Q8951 635 8831 635Q8742 635 8708.0 685.0Q8674 735 8674 829V1107H8586V571H8657L8670 644H8675Q8701 602 8747.0 581.5Q8793 561 8844 561Z" fill="currentColor" /></svg>