<svg viewBox="0 0 10250 2499" xmlns="http://www.w3.org/2000/svg"><path d="M94 1239V525H505V1239ZM145 576V1188H454V576ZM694 1239V525H1105V1239ZM745 576V1188H1054V576ZM1294 1239V525H1705V1239ZM1345 576V1188H1654V576ZM1894 1239V525H2305V1239ZM1945 576V1188H2254V576ZM2819 1239V525H3230V1239ZM2870 576V1188H3179V576ZM3419 1239V525H3830V1239ZM3470 576V1188H3779V576ZM4019 1239V525H4430V1239ZM4070 576V1188H4379V576ZM4619 1239V525H5030V1239ZM4670 576V1188H4979V576ZM5219 1239V525H5630V1239ZM5270 576V1188H5579V576ZM6144 1239V525H6555V1239ZM6195 576V1188H6504V576ZM6744 1239V525H7155V1239ZM6795 576V1188H7104V576ZM7344 1239V525H7755V1239ZM7395 576V1188H7704V576ZM7944 1239V525H8355V1239ZM7995 576V1188H8304V576ZM8544 1239V525H8955V1239ZM8595 576V1188H8904V576ZM9144 1239V525H9555V1239ZM9195 576V1188H9504V576ZM9744 1239V525H10155V1239ZM9795 576V1188H10104V576Z" fill="currentColor" /></svg>