<svg viewBox="0 0 7796 1897" xmlns="http://www.w3.org/2000/svg"><path d="M663 1282H558L176 689H172Q174 712 175.5 743.5Q177 775 178.5 810.5Q180 846 180 883V1282H97V568H201L582 1159H586Q585 1143 583.5 1111.0Q582 1079 580.5 1041.0Q579 1003 579 971V568H663ZM1311 1013Q1311 1102 1280.5 1164.5Q1250 1227 1194.0 1259.5Q1138 1292 1061 1292Q990 1292 934.5 1259.5Q879 1227 847.0 1164.5Q815 1102 815 1013Q815 880 882.0 808.0Q949 736 1064 736Q1137 736 1192.5 768.5Q1248 801 1279.5 862.5Q1311 924 1311 1013ZM906 1013Q906 1076 922.5 1122.5Q939 1169 974.0 1194.0Q1009 1219 1063 1219Q1117 1219 1152.0 1194.0Q1187 1169 1203.5 1122.5Q1220 1076 1220 1013Q1220 949 1203.0 904.0Q1186 859 1151.5 834.5Q1117 810 1062 810Q980 810 943.0 864.0Q906 918 906 1013ZM1629 1220Q1649 1220 1670.0 1216.5Q1691 1213 1704 1209V1276Q1690 1283 1664.0 1287.5Q1638 1292 1614 1292Q1572 1292 1536.5 1277.5Q1501 1263 1479.0 1227.0Q1457 1191 1457 1126V814H1381V772L1458 737L1493 623H1545V746H1700V814H1545V1124Q1545 1173 1568.5 1196.5Q1592 1220 1629 1220ZM2277 1013Q2277 1102 2246.5 1164.5Q2216 1227 2160.0 1259.5Q2104 1292 2027 1292Q1956 1292 1900.5 1259.5Q1845 1227 1813.0 1164.5Q1781 1102 1781 1013Q1781 880 1848.0 808.0Q1915 736 2030 736Q2103 736 2158.5 768.5Q2214 801 2245.5 862.5Q2277 924 2277 1013ZM1872 1013Q1872 1076 1888.5 1122.5Q1905 1169 1940.0 1194.0Q1975 1219 2029 1219Q2083 1219 2118.0 1194.0Q2153 1169 2169.5 1122.5Q2186 1076 2186 1013Q2186 949 2169.0 904.0Q2152 859 2117.5 834.5Q2083 810 2028 810Q1946 810 1909.0 864.0Q1872 918 1872 1013ZM3290 1282H3184L2931 941L2858 1005V1282H2768V568H2858V920Q2888 886 2919.0 852.0Q2950 818 2981 784L3174 568H3279L2996 879ZM3823 746V1282H3751L3738 1211H3734Q3717 1239 3690.0 1257.0Q3663 1275 3631.0 1283.5Q3599 1292 3564 1292Q3500 1292 3456.5 1271.5Q3413 1251 3391.0 1208.0Q3369 1165 3369 1097V746H3458V1091Q3458 1155 3487.0 1187.0Q3516 1219 3577 1219Q3666 1219 3700.5 1169.0Q3735 1119 3735 1025V746ZM4240 814H4105V1282H4017V814H3923V773L4017 743V712Q4017 643 4037.5 600.0Q4058 557 4097.0 537.0Q4136 517 4191 517Q4223 517 4249.5 522.5Q4276 528 4295 535L4272 604Q4256 599 4235.0 594.0Q4214 589 4192 589Q4148 589 4126.5 618.5Q4105 648 4105 711V746H4240ZM4425 746V1282H4337V746ZM4382 545Q4402 545 4417.5 558.5Q4433 572 4433 601Q4433 629 4417.5 643.0Q4402 657 4382 657Q4360 657 4345.0 643.0Q4330 629 4330 601Q4330 572 4345.0 558.5Q4360 545 4382 545ZM5395 1282 5309 1061H5026L4941 1282H4850L5129 565H5210L5488 1282ZM5202 765Q5199 757 5192.0 736.0Q5185 715 5178.5 692.5Q5172 670 5168 658Q5163 678 5157.5 698.5Q5152 719 5146.5 736.0Q5141 753 5137 765L5056 981H5282ZM5824 736Q5839 736 5856.5 737.5Q5874 739 5887 742L5876 823Q5863 820 5847.5 818.0Q5832 816 5818 816Q5777 816 5741.0 838.5Q5705 861 5683.5 901.5Q5662 942 5662 996V1282H5574V746H5646L5656 844H5660Q5686 800 5727.0 768.0Q5768 736 5824 736ZM6170 737Q6268 737 6315.0 780.0Q6362 823 6362 917V1282H6298L6281 1206H6277Q6254 1235 6229.5 1254.5Q6205 1274 6173.5 1283.0Q6142 1292 6097 1292Q6024 1292 5976.0 1253.5Q5928 1215 5928 1133Q5928 1053 5991.0 1009.5Q6054 966 6185 962L6276 959V927Q6276 860 6247.0 834.0Q6218 808 6165 808Q6123 808 6085.0 820.5Q6047 833 6014 849L5987 783Q6022 764 6070.0 750.5Q6118 737 6170 737ZM6196 1023Q6096 1027 6057.5 1055.0Q6019 1083 6019 1134Q6019 1179 6046.5 1200.0Q6074 1221 6117 1221Q6185 1221 6230.0 1183.5Q6275 1146 6275 1068V1020ZM6616 707Q6616 741 6614.5 770.5Q6613 800 6611 817H6616Q6639 783 6679.0 760.0Q6719 737 6782 737Q6882 737 6942.5 806.5Q7003 876 7003 1014Q7003 1106 6975.5 1168.0Q6948 1230 6898.0 1261.0Q6848 1292 6782 1292Q6719 1292 6679.0 1269.0Q6639 1246 6616 1214H6609L6591 1282H6528V522H6616ZM6767 810Q6682 810 6649.0 859.0Q6616 908 6616 1011V1015Q6616 1114 6648.5 1166.5Q6681 1219 6769 1219Q6841 1219 6876.5 1166.0Q6912 1113 6912 1013Q6912 912 6876.5 861.0Q6841 810 6767 810ZM7231 746V1282H7143V746ZM7188 545Q7208 545 7223.5 558.5Q7239 572 7239 601Q7239 629 7223.5 643.0Q7208 657 7188 657Q7166 657 7151.0 643.0Q7136 629 7136 601Q7136 572 7151.0 558.5Q7166 545 7188 545ZM7616 1292Q7545 1292 7489.5 1263.0Q7434 1234 7402.5 1173.0Q7371 1112 7371 1017Q7371 918 7404.0 856.0Q7437 794 7493.5 765.0Q7550 736 7622 736Q7663 736 7701.0 744.5Q7739 753 7763 765L7736 838Q7712 829 7680.0 821.0Q7648 813 7620 813Q7566 813 7531.0 836.0Q7496 859 7479.0 904.0Q7462 949 7462 1016Q7462 1080 7479.0 1125.0Q7496 1170 7530.0 1193.0Q7564 1216 7615 1216Q7659 1216 7692.5 1207.0Q7726 1198 7754 1185V1263Q7727 1277 7694.5 1284.5Q7662 1292 7616 1292Z" fill="currentColor" /></svg>