<svg viewBox="0 0 9180 1362" xmlns="http://www.w3.org/2000/svg"><path d="M94 1069V355H505V1069ZM145 1018H454V406H145ZM694 1069V355H1105V1069ZM745 1018H1054V406H745ZM1294 1069V355H1705V1069ZM1345 1018H1654V406H1345ZM1894 1069V355H2305V1069ZM1945 1018H2254V406H1945ZM2754 1069V355H3165V1069ZM2805 1018H3114V406H2805ZM3354 1069V355H3765V1069ZM3405 1018H3714V406H3405ZM3954 1069V355H4365V1069ZM4005 1018H4314V406H4005ZM4554 1069V355H4965V1069ZM4605 1018H4914V406H4605ZM5414 1069V355H5825V1069ZM5465 1018H5774V406H5465ZM6014 1069V355H6425V1069ZM6065 1018H6374V406H6065ZM6614 1069V355H7025V1069ZM6665 1018H6974V406H6665ZM7214 1069V355H7625V1069ZM7265 1018H7574V406H7265ZM8074 1069V355H8485V1069ZM8125 1018H8434V406H8125ZM8674 1069V355H9085V1069ZM8725 1018H9034V406H8725Z" fill="currentColor" /></svg>