<svg viewBox="0 0 10536 1600" xmlns="http://www.w3.org/2000/svg"><path d="M663 1250H558L176 657H172Q174 680 175.5 711.5Q177 743 178.5 778.5Q180 814 180 851V1250H97V536H201L582 1127H586Q585 1111 583.5 1079.0Q582 1047 580.5 1009.0Q579 971 579 939V536H663ZM1311 981Q1311 1048 1293.5 1099.5Q1276 1151 1243.5 1187.0Q1211 1223 1164.5 1241.5Q1118 1260 1061 1260Q1008 1260 963.0 1241.5Q918 1223 885.0 1187.0Q852 1151 833.5 1099.5Q815 1048 815 981Q815 892 845.0 830.5Q875 769 931.0 736.5Q987 704 1064 704Q1137 704 1192.5 736.5Q1248 769 1279.5 830.5Q1311 892 1311 981ZM906 981Q906 1044 922.5 1090.5Q939 1137 974.0 1162.0Q1009 1187 1063 1187Q1117 1187 1152.0 1162.0Q1187 1137 1203.5 1090.5Q1220 1044 1220 981Q1220 917 1203.0 872.0Q1186 827 1151.5 802.5Q1117 778 1062 778Q980 778 943.0 832.0Q906 886 906 981ZM1629 1188Q1649 1188 1670.0 1184.5Q1691 1181 1704 1177V1244Q1690 1251 1664.0 1255.5Q1638 1260 1614 1260Q1572 1260 1536.5 1245.5Q1501 1231 1479.0 1195.0Q1457 1159 1457 1094V782H1381V740L1458 705L1493 591H1545V714H1700V782H1545V1092Q1545 1141 1568.5 1164.5Q1592 1188 1629 1188ZM2277 981Q2277 1048 2259.5 1099.5Q2242 1151 2209.5 1187.0Q2177 1223 2130.5 1241.5Q2084 1260 2027 1260Q1974 1260 1929.0 1241.5Q1884 1223 1851.0 1187.0Q1818 1151 1799.5 1099.5Q1781 1048 1781 981Q1781 892 1811.0 830.5Q1841 769 1897.0 736.5Q1953 704 2030 704Q2103 704 2158.5 736.5Q2214 769 2245.5 830.5Q2277 892 2277 981ZM1872 981Q1872 1044 1888.5 1090.5Q1905 1137 1940.0 1162.0Q1975 1187 2029 1187Q2083 1187 2118.0 1162.0Q2153 1137 2169.5 1090.5Q2186 1044 2186 981Q2186 917 2169.0 872.0Q2152 827 2117.5 802.5Q2083 778 2028 778Q1946 778 1909.0 832.0Q1872 886 1872 981ZM3093 1059Q3093 1123 3062.0 1167.5Q3031 1212 2973.5 1236.0Q2916 1260 2838 1260Q2798 1260 2761.5 1256.0Q2725 1252 2695.0 1244.5Q2665 1237 2642 1226V1140Q2678 1156 2731.5 1169.0Q2785 1182 2842 1182Q2895 1182 2931.0 1168.0Q2967 1154 2985.0 1128.0Q3003 1102 3003 1067Q3003 1032 2988.0 1008.0Q2973 984 2936.5 963.5Q2900 943 2835 920Q2774 898 2733.0 870.0Q2692 842 2671.5 802.5Q2651 763 2651 708Q2651 651 2680.0 610.5Q2709 570 2760.5 548.0Q2812 526 2879 526Q2938 526 2987.0 537.0Q3036 548 3076 566L3048 643Q3011 627 2967.5 616.0Q2924 605 2877 605Q2832 605 2802.0 618.0Q2772 631 2757.0 654.5Q2742 678 2742 709Q2742 745 2757.0 769.0Q2772 793 2806.0 812.0Q2840 831 2898 853Q2961 876 3004.5 902.5Q3048 929 3070.5 966.0Q3093 1003 3093 1059ZM3428 705Q3526 705 3573.0 748.0Q3620 791 3620 885V1250H3556L3539 1174H3535Q3512 1203 3487.5 1222.5Q3463 1242 3431.5 1251.0Q3400 1260 3355 1260Q3307 1260 3268.5 1243.0Q3230 1226 3208.0 1190.5Q3186 1155 3186 1101Q3186 1021 3249.0 977.5Q3312 934 3443 930L3534 927V895Q3534 828 3505.0 802.0Q3476 776 3423 776Q3381 776 3343.0 788.5Q3305 801 3272 817L3245 751Q3280 732 3328.0 718.5Q3376 705 3428 705ZM3454 991Q3354 995 3315.5 1023.0Q3277 1051 3277 1102Q3277 1147 3304.5 1168.0Q3332 1189 3375 1189Q3443 1189 3488.0 1151.5Q3533 1114 3533 1036V988ZM4044 704Q4140 704 4189.0 750.5Q4238 797 4238 901V1250H4151V907Q4151 842 4122.0 810.0Q4093 778 4031 778Q3942 778 3908.0 828.0Q3874 878 3874 972V1250H3786V714H3857L3870 787H3875Q3893 759 3919.5 740.5Q3946 722 3978.0 713.0Q4010 704 4044 704ZM4753 1102Q4753 1154 4727.0 1189.0Q4701 1224 4653.0 1242.0Q4605 1260 4539 1260Q4483 1260 4442.5 1251.0Q4402 1242 4371 1226V1146Q4403 1162 4448.5 1175.5Q4494 1189 4541 1189Q4608 1189 4638.0 1167.5Q4668 1146 4668 1110Q4668 1090 4657.0 1074.0Q4646 1058 4617.5 1042.0Q4589 1026 4536 1006Q4484 986 4447.0 966.0Q4410 946 4390.0 918.0Q4370 890 4370 846Q4370 778 4425.5 741.0Q4481 704 4571 704Q4620 704 4662.5 713.5Q4705 723 4742 740L4712 810Q4678 796 4641.0 786.0Q4604 776 4565 776Q4511 776 4482.5 793.5Q4454 811 4454 841Q4454 863 4467.0 878.5Q4480 894 4510.5 908.5Q4541 923 4592 943Q4643 962 4679.0 982.0Q4715 1002 4734.0 1030.5Q4753 1059 4753 1102ZM5155 1250V536H5245V1170H5557V1250ZM5870 705Q5968 705 6015.0 748.0Q6062 791 6062 885V1250H5998L5981 1174H5977Q5954 1203 5929.5 1222.5Q5905 1242 5873.5 1251.0Q5842 1260 5797 1260Q5749 1260 5710.5 1243.0Q5672 1226 5650.0 1190.5Q5628 1155 5628 1101Q5628 1021 5691.0 977.5Q5754 934 5885 930L5976 927V895Q5976 828 5947.0 802.0Q5918 776 5865 776Q5823 776 5785.0 788.5Q5747 801 5714 817L5687 751Q5722 732 5770.0 718.5Q5818 705 5870 705ZM5896 991Q5796 995 5757.5 1023.0Q5719 1051 5719 1102Q5719 1147 5746.5 1168.0Q5774 1189 5817 1189Q5885 1189 5930.0 1151.5Q5975 1114 5975 1036V988ZM6694 981Q6694 1048 6676.5 1099.5Q6659 1151 6626.5 1187.0Q6594 1223 6547.5 1241.5Q6501 1260 6444 1260Q6391 1260 6346.0 1241.5Q6301 1223 6268.0 1187.0Q6235 1151 6216.5 1099.5Q6198 1048 6198 981Q6198 892 6228.0 830.5Q6258 769 6314.0 736.5Q6370 704 6447 704Q6520 704 6575.5 736.5Q6631 769 6662.5 830.5Q6694 892 6694 981ZM6289 981Q6289 1044 6305.5 1090.5Q6322 1137 6357.0 1162.0Q6392 1187 6446 1187Q6500 1187 6535.0 1162.0Q6570 1137 6586.5 1090.5Q6603 1044 6603 981Q6603 917 6586.0 872.0Q6569 827 6534.5 802.5Q6500 778 6445 778Q6363 778 6326.0 832.0Q6289 886 6289 981ZM7105 1250V536H7195V1170H7507V1250ZM8083 981Q8083 1048 8065.5 1099.5Q8048 1151 8015.5 1187.0Q7983 1223 7936.5 1241.5Q7890 1260 7833 1260Q7780 1260 7735.0 1241.5Q7690 1223 7657.0 1187.0Q7624 1151 7605.5 1099.5Q7587 1048 7587 981Q7587 892 7617.0 830.5Q7647 769 7703.0 736.5Q7759 704 7836 704Q7909 704 7964.5 736.5Q8020 769 8051.5 830.5Q8083 892 8083 981ZM7678 981Q7678 1044 7694.5 1090.5Q7711 1137 7746.0 1162.0Q7781 1187 7835 1187Q7889 1187 7924.0 1162.0Q7959 1137 7975.5 1090.5Q7992 1044 7992 981Q7992 917 7975.0 872.0Q7958 827 7923.5 802.5Q7889 778 7834 778Q7752 778 7715.0 832.0Q7678 886 7678 981ZM8688 981Q8688 1048 8670.5 1099.5Q8653 1151 8620.5 1187.0Q8588 1223 8541.5 1241.5Q8495 1260 8438 1260Q8385 1260 8340.0 1241.5Q8295 1223 8262.0 1187.0Q8229 1151 8210.5 1099.5Q8192 1048 8192 981Q8192 892 8222.0 830.5Q8252 769 8308.0 736.5Q8364 704 8441 704Q8514 704 8569.5 736.5Q8625 769 8656.5 830.5Q8688 892 8688 981ZM8283 981Q8283 1044 8299.5 1090.5Q8316 1137 8351.0 1162.0Q8386 1187 8440 1187Q8494 1187 8529.0 1162.0Q8564 1137 8580.5 1090.5Q8597 1044 8597 981Q8597 917 8580.0 872.0Q8563 827 8528.5 802.5Q8494 778 8439 778Q8357 778 8320.0 832.0Q8283 886 8283 981ZM9082 704Q9181 704 9241.5 773.0Q9302 842 9302 981Q9302 1072 9274.5 1134.5Q9247 1197 9197.5 1228.5Q9148 1260 9081 1260Q9040 1260 9008.0 1249.0Q8976 1238 8953.5 1220.5Q8931 1203 8915 1182H8909Q8911 1199 8913.0 1225.0Q8915 1251 8915 1270V1490H8827V714H8899L8911 787H8915Q8931 764 8953.5 745.0Q8976 726 9007.5 715.0Q9039 704 9082 704ZM9066 778Q9012 778 8979.0 798.5Q8946 819 8931.0 860.0Q8916 901 8915 964V981Q8915 1047 8929.0 1093.0Q8943 1139 8976.5 1163.0Q9010 1187 9068 1187Q9117 1187 9148.5 1160.0Q9180 1133 9195.5 1086.5Q9211 1040 9211 980Q9211 888 9175.5 833.0Q9140 778 9066 778ZM9649 704Q9718 704 9767.5 734.0Q9817 764 9843.5 818.5Q9870 873 9870 946V999H9503Q9505 1090 9549.5 1137.5Q9594 1185 9674 1185Q9725 1185 9764.5 1175.5Q9804 1166 9846 1148V1225Q9805 1243 9765.0 1251.5Q9725 1260 9670 1260Q9594 1260 9535.5 1229.0Q9477 1198 9444.5 1136.5Q9412 1075 9412 986Q9412 898 9441.5 835.0Q9471 772 9524.5 738.0Q9578 704 9649 704ZM9648 776Q9585 776 9548.5 816.5Q9512 857 9505 929H9778Q9778 883 9764.0 849.0Q9750 815 9721.5 795.5Q9693 776 9648 776ZM10196 1260Q10096 1260 10036.0 1190.5Q9976 1121 9976 983Q9976 845 10036.5 774.5Q10097 704 10197 704Q10239 704 10270.0 714.5Q10301 725 10324.0 743.0Q10347 761 10363 783H10369Q10368 770 10365.5 744.5Q10363 719 10363 704V490H10451V1250H10380L10367 1178H10363Q10347 1201 10324.0 1219.5Q10301 1238 10269.5 1249.0Q10238 1260 10196 1260ZM10210 1187Q10295 1187 10329.5 1140.5Q10364 1094 10364 1000V984Q10364 884 10331.0 830.5Q10298 777 10209 777Q10138 777 10102.5 833.5Q10067 890 10067 985Q10067 1081 10102.5 1134.0Q10138 1187 10210 1187Z" fill="currentColor" /></svg>