<svg viewBox="0 0 8207 1362" xmlns="http://www.w3.org/2000/svg"><path d="M663 1069H558L176 476H172Q174 499 175.5 530.5Q177 562 178.5 597.5Q180 633 180 670V1069H97V355H201L582 946H586Q585 930 583.5 898.0Q582 866 580.5 828.0Q579 790 579 758V355H663ZM1311 800Q1311 867 1293.5 918.5Q1276 970 1243.5 1006.0Q1211 1042 1164.5 1060.5Q1118 1079 1061 1079Q1008 1079 963.0 1060.5Q918 1042 885.0 1006.0Q852 970 833.5 918.5Q815 867 815 800Q815 711 845.0 649.5Q875 588 931.0 555.5Q987 523 1064 523Q1137 523 1192.5 555.5Q1248 588 1279.5 649.5Q1311 711 1311 800ZM906 800Q906 863 922.5 909.5Q939 956 974.0 981.0Q1009 1006 1063 1006Q1117 1006 1152.0 981.0Q1187 956 1203.5 909.5Q1220 863 1220 800Q1220 736 1203.0 691.0Q1186 646 1151.5 621.5Q1117 597 1062 597Q980 597 943.0 651.0Q906 705 906 800ZM1629 1007Q1649 1007 1670.0 1003.5Q1691 1000 1704 996V1063Q1690 1070 1664.0 1074.5Q1638 1079 1614 1079Q1572 1079 1536.5 1064.5Q1501 1050 1479.0 1014.0Q1457 978 1457 913V601H1381V559L1458 524L1493 410H1545V533H1700V601H1545V911Q1545 960 1568.5 983.5Q1592 1007 1629 1007ZM2277 800Q2277 867 2259.5 918.5Q2242 970 2209.5 1006.0Q2177 1042 2130.5 1060.5Q2084 1079 2027 1079Q1974 1079 1929.0 1060.5Q1884 1042 1851.0 1006.0Q1818 970 1799.5 918.5Q1781 867 1781 800Q1781 711 1811.0 649.5Q1841 588 1897.0 555.5Q1953 523 2030 523Q2103 523 2158.5 555.5Q2214 588 2245.5 649.5Q2277 711 2277 800ZM1872 800Q1872 863 1888.5 909.5Q1905 956 1940.0 981.0Q1975 1006 2029 1006Q2083 1006 2118.0 981.0Q2153 956 2169.5 909.5Q2186 863 2186 800Q2186 736 2169.0 691.0Q2152 646 2117.5 621.5Q2083 597 2028 597Q1946 597 1909.0 651.0Q1872 705 1872 800ZM3093 878Q3093 942 3062.0 986.5Q3031 1031 2973.5 1055.0Q2916 1079 2838 1079Q2798 1079 2761.5 1075.0Q2725 1071 2695.0 1063.5Q2665 1056 2642 1045V959Q2678 975 2731.5 988.0Q2785 1001 2842 1001Q2895 1001 2931.0 987.0Q2967 973 2985.0 947.0Q3003 921 3003 886Q3003 851 2988.0 827.0Q2973 803 2936.5 782.5Q2900 762 2835 739Q2774 717 2733.0 689.0Q2692 661 2671.5 621.5Q2651 582 2651 527Q2651 470 2680.0 429.5Q2709 389 2760.5 367.0Q2812 345 2879 345Q2938 345 2987.0 356.0Q3036 367 3076 385L3048 462Q3011 446 2967.5 435.0Q2924 424 2877 424Q2832 424 2802.0 437.0Q2772 450 2757.0 473.5Q2742 497 2742 528Q2742 564 2757.0 588.0Q2772 612 2806.0 631.0Q2840 650 2898 672Q2961 695 3004.5 721.5Q3048 748 3070.5 785.0Q3093 822 3093 878ZM3428 524Q3526 524 3573.0 567.0Q3620 610 3620 704V1069H3556L3539 993H3535Q3512 1022 3487.5 1041.5Q3463 1061 3431.5 1070.0Q3400 1079 3355 1079Q3307 1079 3268.5 1062.0Q3230 1045 3208.0 1009.5Q3186 974 3186 920Q3186 840 3249.0 796.5Q3312 753 3443 749L3534 746V714Q3534 647 3505.0 621.0Q3476 595 3423 595Q3381 595 3343.0 607.5Q3305 620 3272 636L3245 570Q3280 551 3328.0 537.5Q3376 524 3428 524ZM3454 810Q3354 814 3315.5 842.0Q3277 870 3277 921Q3277 966 3304.5 987.0Q3332 1008 3375 1008Q3443 1008 3488.0 970.5Q3533 933 3533 855V807ZM4044 523Q4140 523 4189.0 569.5Q4238 616 4238 720V1069H4151V726Q4151 661 4122.0 629.0Q4093 597 4031 597Q3942 597 3908.0 647.0Q3874 697 3874 791V1069H3786V533H3857L3870 606H3875Q3893 578 3919.5 559.5Q3946 541 3978.0 532.0Q4010 523 4044 523ZM4753 921Q4753 973 4727.0 1008.0Q4701 1043 4653.0 1061.0Q4605 1079 4539 1079Q4483 1079 4442.5 1070.0Q4402 1061 4371 1045V965Q4403 981 4448.5 994.5Q4494 1008 4541 1008Q4608 1008 4638.0 986.5Q4668 965 4668 929Q4668 909 4657.0 893.0Q4646 877 4617.5 861.0Q4589 845 4536 825Q4484 805 4447.0 785.0Q4410 765 4390.0 737.0Q4370 709 4370 665Q4370 597 4425.5 560.0Q4481 523 4571 523Q4620 523 4662.5 532.5Q4705 542 4742 559L4712 629Q4678 615 4641.0 605.0Q4604 595 4565 595Q4511 595 4482.5 612.5Q4454 630 4454 660Q4454 682 4467.0 697.5Q4480 713 4510.5 727.5Q4541 742 4592 762Q4643 781 4679.0 801.0Q4715 821 4734.0 849.5Q4753 878 4753 921ZM5677 1069H5571L5318 728L5245 792V1069H5155V355H5245V707Q5275 673 5306.0 639.0Q5337 605 5368 571L5561 355H5666L5383 666ZM5850 532Q5850 551 5848.5 571.0Q5847 591 5845 607H5851Q5868 579 5894.0 561.0Q5920 543 5952.0 533.5Q5984 524 6018 524Q6083 524 6126.5 544.5Q6170 565 6192.0 608.0Q6214 651 6214 720V1069H6127V726Q6127 661 6098.0 629.0Q6069 597 6007 597Q5947 597 5913.0 619.5Q5879 642 5864.5 685.5Q5850 729 5850 792V1069H5762V309H5850ZM6968 523Q7059 523 7104.0 569.5Q7149 616 7149 720V1069H7062V724Q7062 661 7035.5 629.0Q7009 597 6953 597Q6875 597 6841.5 642.0Q6808 687 6808 773V1069H6721V724Q6721 682 6709.0 653.5Q6697 625 6673.0 611.0Q6649 597 6611 597Q6557 597 6526.0 619.5Q6495 642 6481.5 685.0Q6468 728 6468 791V1069H6380V533H6451L6464 606H6469Q6486 578 6510.5 559.5Q6535 541 6565.0 532.0Q6595 523 6627 523Q6689 523 6730.5 545.0Q6772 567 6791 613H6796Q6823 567 6869.5 545.0Q6916 523 6968 523ZM7522 523Q7591 523 7640.5 553.0Q7690 583 7716.5 637.5Q7743 692 7743 765V818H7376Q7378 909 7422.5 956.5Q7467 1004 7547 1004Q7598 1004 7637.5 994.5Q7677 985 7719 967V1044Q7678 1062 7638.0 1070.5Q7598 1079 7543 1079Q7467 1079 7408.5 1048.0Q7350 1017 7317.5 955.5Q7285 894 7285 805Q7285 717 7314.5 654.0Q7344 591 7397.5 557.0Q7451 523 7522 523ZM7521 595Q7458 595 7421.5 635.5Q7385 676 7378 748H7651Q7651 702 7637.0 668.0Q7623 634 7594.5 614.5Q7566 595 7521 595ZM8129 523Q8144 523 8161.5 524.5Q8179 526 8192 529L8181 610Q8168 607 8152.5 605.0Q8137 603 8123 603Q8092 603 8064.0 616.0Q8036 629 8014.0 652.5Q7992 676 7979.5 709.0Q7967 742 7967 783V1069H7879V533H7951L7961 631H7965Q7982 601 8006.0 576.5Q8030 552 8061.0 537.5Q8092 523 8129 523Z" fill="currentColor" /></svg>