<svg viewBox="0 0 12581 1362" xmlns="http://www.w3.org/2000/svg"><path d="M663 1069H558L176 476H172Q174 511 177.0 563.0Q180 615 180 670V1069H97V355H201L582 946H586Q585 930 583.5 898.0Q582 866 580.5 828.0Q579 790 579 758V355H663ZM1311 800Q1311 933 1243.5 1006.0Q1176 1079 1061 1079Q990 1079 934.5 1046.5Q879 1014 847.0 951.5Q815 889 815 800Q815 667 882.0 595.0Q949 523 1064 523Q1137 523 1192.5 555.5Q1248 588 1279.5 649.5Q1311 711 1311 800ZM906 800Q906 895 943.5 950.5Q981 1006 1063 1006Q1144 1006 1182.0 950.5Q1220 895 1220 800Q1220 705 1182.0 651.0Q1144 597 1062 597Q980 597 943.0 651.0Q906 705 906 800ZM1629 1007Q1649 1007 1670.0 1003.5Q1691 1000 1704 996V1063Q1690 1070 1664.0 1074.5Q1638 1079 1614 1079Q1572 1079 1536.5 1064.5Q1501 1050 1479.0 1014.0Q1457 978 1457 913V601H1381V559L1458 524L1493 410H1545V533H1700V601H1545V911Q1545 960 1568.5 983.5Q1592 1007 1629 1007ZM2277 800Q2277 933 2209.5 1006.0Q2142 1079 2027 1079Q1956 1079 1900.5 1046.5Q1845 1014 1813.0 951.5Q1781 889 1781 800Q1781 667 1848.0 595.0Q1915 523 2030 523Q2103 523 2158.5 555.5Q2214 588 2245.5 649.5Q2277 711 2277 800ZM1872 800Q1872 895 1909.5 950.5Q1947 1006 2029 1006Q2110 1006 2148.0 950.5Q2186 895 2186 800Q2186 705 2148.0 651.0Q2110 597 2028 597Q1946 597 1909.0 651.0Q1872 705 1872 800ZM3093 878Q3093 973 3024.0 1026.0Q2955 1079 2838 1079Q2778 1079 2727.0 1070.0Q2676 1061 2642 1045V959Q2678 975 2731.5 988.0Q2785 1001 2842 1001Q2922 1001 2962.5 970.0Q3003 939 3003 886Q3003 851 2988.0 827.0Q2973 803 2936.5 782.5Q2900 762 2835 739Q2744 706 2697.5 658.0Q2651 610 2651 527Q2651 470 2680.0 429.5Q2709 389 2760.5 367.0Q2812 345 2879 345Q2938 345 2987.0 356.0Q3036 367 3076 385L3048 462Q3011 446 2967.5 435.0Q2924 424 2877 424Q2810 424 2776.0 452.5Q2742 481 2742 528Q2742 564 2757.0 588.0Q2772 612 2806.0 631.0Q2840 650 2898 672Q2961 695 3004.5 721.5Q3048 748 3070.5 785.0Q3093 822 3093 878ZM3428 524Q3526 524 3573.0 567.0Q3620 610 3620 704V1069H3556L3539 993H3535Q3500 1037 3461.5 1058.0Q3423 1079 3355 1079Q3282 1079 3234.0 1040.5Q3186 1002 3186 920Q3186 840 3249.0 796.5Q3312 753 3443 749L3534 746V714Q3534 647 3505.0 621.0Q3476 595 3423 595Q3381 595 3343.0 607.5Q3305 620 3272 636L3245 570Q3280 551 3328.0 537.5Q3376 524 3428 524ZM3454 810Q3354 814 3315.5 842.0Q3277 870 3277 921Q3277 966 3304.5 987.0Q3332 1008 3375 1008Q3443 1008 3488.0 970.5Q3533 933 3533 855V807ZM4044 523Q4140 523 4189.0 569.5Q4238 616 4238 720V1069H4151V726Q4151 597 4031 597Q3942 597 3908.0 647.0Q3874 697 3874 791V1069H3786V533H3857L3870 606H3875Q3901 564 3947.0 543.5Q3993 523 4044 523ZM4753 921Q4753 999 4695.0 1039.0Q4637 1079 4539 1079Q4483 1079 4442.5 1070.0Q4402 1061 4371 1045V965Q4403 981 4448.5 994.5Q4494 1008 4541 1008Q4608 1008 4638.0 986.5Q4668 965 4668 929Q4668 909 4657.0 893.0Q4646 877 4617.5 861.0Q4589 845 4536 825Q4484 805 4447.0 785.0Q4410 765 4390.0 737.0Q4370 709 4370 665Q4370 597 4425.5 560.0Q4481 523 4571 523Q4620 523 4662.5 532.5Q4705 542 4742 559L4712 629Q4678 615 4641.0 605.0Q4604 595 4565 595Q4511 595 4482.5 612.5Q4454 630 4454 660Q4454 682 4467.0 697.5Q4480 713 4510.5 727.5Q4541 742 4592 762Q4643 781 4679.0 801.0Q4715 821 4734.0 849.5Q4753 878 4753 921ZM5344 355Q5484 355 5548.0 410.0Q5612 465 5612 565Q5612 624 5585.5 675.5Q5559 727 5496.5 759.0Q5434 791 5327 791H5245V1069H5155V355ZM5336 432H5245V714H5317Q5419 714 5469.0 681.0Q5519 648 5519 569Q5519 500 5475.0 466.0Q5431 432 5336 432ZM5951 524Q6049 524 6096.0 567.0Q6143 610 6143 704V1069H6079L6062 993H6058Q6023 1037 5984.5 1058.0Q5946 1079 5878 1079Q5805 1079 5757.0 1040.5Q5709 1002 5709 920Q5709 840 5772.0 796.5Q5835 753 5966 749L6057 746V714Q6057 647 6028.0 621.0Q5999 595 5946 595Q5904 595 5866.0 607.5Q5828 620 5795 636L5768 570Q5803 551 5851.0 537.5Q5899 524 5951 524ZM5977 810Q5877 814 5838.5 842.0Q5800 870 5800 921Q5800 966 5827.5 987.0Q5855 1008 5898 1008Q5966 1008 6011.0 970.5Q6056 933 6056 855V807ZM6397 532Q6397 572 6392 607H6398Q6424 566 6468.5 545.0Q6513 524 6565 524Q6663 524 6712.0 570.5Q6761 617 6761 720V1069H6674V726Q6674 597 6554 597Q6464 597 6430.5 647.5Q6397 698 6397 792V1069H6309V309H6397ZM7130 524Q7228 524 7275.0 567.0Q7322 610 7322 704V1069H7258L7241 993H7237Q7202 1037 7163.5 1058.0Q7125 1079 7057 1079Q6984 1079 6936.0 1040.5Q6888 1002 6888 920Q6888 840 6951.0 796.5Q7014 753 7145 749L7236 746V714Q7236 647 7207.0 621.0Q7178 595 7125 595Q7083 595 7045.0 607.5Q7007 620 6974 636L6947 570Q6982 551 7030.0 537.5Q7078 524 7130 524ZM7156 810Q7056 814 7017.5 842.0Q6979 870 6979 921Q6979 966 7006.5 987.0Q7034 1008 7077 1008Q7145 1008 7190.0 970.5Q7235 933 7235 855V807ZM7834 766Q7821 725 7811.5 685.5Q7802 646 7797 624H7793Q7789 646 7780.0 685.5Q7771 725 7757 767L7661 1068H7561L7414 532H7505L7579 818Q7590 861 7600.0 905.0Q7610 949 7614 978H7618Q7622 961 7627.5 936.0Q7633 911 7640.0 883.5Q7647 856 7654 834L7749 532H7845L7937 834Q7948 868 7958.5 908.0Q7969 948 7973 977H7977Q7980 952 7990.5 908.0Q8001 864 8013 818L8088 532H8178L8029 1068H7926ZM8362 532Q8362 572 8357 607H8363Q8389 566 8433.5 545.0Q8478 524 8530 524Q8628 524 8677.0 570.5Q8726 617 8726 720V1069H8639V726Q8639 597 8519 597Q8429 597 8395.5 647.5Q8362 698 8362 792V1069H8274V309H8362ZM9710 1069H9620V736H9254V1069H9164V355H9254V657H9620V355H9710ZM10481 523Q10572 523 10617.0 569.5Q10662 616 10662 720V1069H10575V724Q10575 597 10466 597Q10388 597 10354.5 642.0Q10321 687 10321 773V1069H10234V724Q10234 597 10124 597Q10043 597 10012.0 647.0Q9981 697 9981 791V1069H9893V533H9964L9977 606H9982Q10007 564 10049.5 543.5Q10092 523 10140 523Q10266 523 10304 613H10309Q10336 567 10382.5 545.0Q10429 523 10481 523ZM11294 800Q11294 933 11226.5 1006.0Q11159 1079 11044 1079Q10973 1079 10917.5 1046.5Q10862 1014 10830.0 951.5Q10798 889 10798 800Q10798 667 10865.0 595.0Q10932 523 11047 523Q11120 523 11175.5 555.5Q11231 588 11262.5 649.5Q11294 711 11294 800ZM10889 800Q10889 895 10926.5 950.5Q10964 1006 11046 1006Q11127 1006 11165.0 950.5Q11203 895 11203 800Q11203 705 11165.0 651.0Q11127 597 11045 597Q10963 597 10926.0 651.0Q10889 705 10889 800ZM11691 523Q11787 523 11836.0 569.5Q11885 616 11885 720V1069H11798V726Q11798 597 11678 597Q11589 597 11555.0 647.0Q11521 697 11521 791V1069H11433V533H11504L11517 606H11522Q11548 564 11594.0 543.5Q11640 523 11691 523ZM12241 523Q12294 523 12336.5 543.0Q12379 563 12409 604H12414L12426 533H12496V1078Q12496 1193 12437.5 1251.0Q12379 1309 12256 1309Q12138 1309 12063 1275V1194Q12142 1236 12261 1236Q12330 1236 12369.5 1195.5Q12409 1155 12409 1085V1064Q12409 1052 12410.0 1029.5Q12411 1007 12412 998H12408Q12354 1079 12242 1079Q12138 1079 12079.5 1006.0Q12021 933 12021 802Q12021 674 12079.5 598.5Q12138 523 12241 523ZM12253 597Q12186 597 12149.0 650.5Q12112 704 12112 803Q12112 902 12148.5 954.5Q12185 1007 12255 1007Q12336 1007 12373.0 963.5Q12410 920 12410 823V802Q12410 692 12372.0 644.5Q12334 597 12253 597Z" fill="currentColor" /></svg>