<svg viewBox="0 0 9102 1362" xmlns="http://www.w3.org/2000/svg"><path d="M663 1069H558L176 476H172Q174 511 177.0 563.0Q180 615 180 670V1069H97V355H201L582 946H586Q585 930 583.5 898.0Q582 866 580.5 828.0Q579 790 579 758V355H663ZM1311 800Q1311 933 1243.5 1006.0Q1176 1079 1061 1079Q990 1079 934.5 1046.5Q879 1014 847.0 951.5Q815 889 815 800Q815 667 882.0 595.0Q949 523 1064 523Q1137 523 1192.5 555.5Q1248 588 1279.5 649.5Q1311 711 1311 800ZM906 800Q906 895 943.5 950.5Q981 1006 1063 1006Q1144 1006 1182.0 950.5Q1220 895 1220 800Q1220 705 1182.0 651.0Q1144 597 1062 597Q980 597 943.0 651.0Q906 705 906 800ZM1629 1007Q1649 1007 1670.0 1003.5Q1691 1000 1704 996V1063Q1690 1070 1664.0 1074.5Q1638 1079 1614 1079Q1572 1079 1536.5 1064.5Q1501 1050 1479.0 1014.0Q1457 978 1457 913V601H1381V559L1458 524L1493 410H1545V533H1700V601H1545V911Q1545 960 1568.5 983.5Q1592 1007 1629 1007ZM2277 800Q2277 933 2209.5 1006.0Q2142 1079 2027 1079Q1956 1079 1900.5 1046.5Q1845 1014 1813.0 951.5Q1781 889 1781 800Q1781 667 1848.0 595.0Q1915 523 2030 523Q2103 523 2158.5 555.5Q2214 588 2245.5 649.5Q2277 711 2277 800ZM1872 800Q1872 895 1909.5 950.5Q1947 1006 2029 1006Q2110 1006 2148.0 950.5Q2186 895 2186 800Q2186 705 2148.0 651.0Q2110 597 2028 597Q1946 597 1909.0 651.0Q1872 705 1872 800ZM3093 878Q3093 973 3024.0 1026.0Q2955 1079 2838 1079Q2778 1079 2727.0 1070.0Q2676 1061 2642 1045V959Q2678 975 2731.5 988.0Q2785 1001 2842 1001Q2922 1001 2962.5 970.0Q3003 939 3003 886Q3003 851 2988.0 827.0Q2973 803 2936.5 782.5Q2900 762 2835 739Q2744 706 2697.5 658.0Q2651 610 2651 527Q2651 470 2680.0 429.5Q2709 389 2760.5 367.0Q2812 345 2879 345Q2938 345 2987.0 356.0Q3036 367 3076 385L3048 462Q3011 446 2967.5 435.0Q2924 424 2877 424Q2810 424 2776.0 452.5Q2742 481 2742 528Q2742 564 2757.0 588.0Q2772 612 2806.0 631.0Q2840 650 2898 672Q2961 695 3004.5 721.5Q3048 748 3070.5 785.0Q3093 822 3093 878ZM3428 524Q3526 524 3573.0 567.0Q3620 610 3620 704V1069H3556L3539 993H3535Q3500 1037 3461.5 1058.0Q3423 1079 3355 1079Q3282 1079 3234.0 1040.5Q3186 1002 3186 920Q3186 840 3249.0 796.5Q3312 753 3443 749L3534 746V714Q3534 647 3505.0 621.0Q3476 595 3423 595Q3381 595 3343.0 607.5Q3305 620 3272 636L3245 570Q3280 551 3328.0 537.5Q3376 524 3428 524ZM3454 810Q3354 814 3315.5 842.0Q3277 870 3277 921Q3277 966 3304.5 987.0Q3332 1008 3375 1008Q3443 1008 3488.0 970.5Q3533 933 3533 855V807ZM4044 523Q4140 523 4189.0 569.5Q4238 616 4238 720V1069H4151V726Q4151 597 4031 597Q3942 597 3908.0 647.0Q3874 697 3874 791V1069H3786V533H3857L3870 606H3875Q3901 564 3947.0 543.5Q3993 523 4044 523ZM4753 921Q4753 999 4695.0 1039.0Q4637 1079 4539 1079Q4483 1079 4442.5 1070.0Q4402 1061 4371 1045V965Q4403 981 4448.5 994.5Q4494 1008 4541 1008Q4608 1008 4638.0 986.5Q4668 965 4668 929Q4668 909 4657.0 893.0Q4646 877 4617.5 861.0Q4589 845 4536 825Q4484 805 4447.0 785.0Q4410 765 4390.0 737.0Q4370 709 4370 665Q4370 597 4425.5 560.0Q4481 523 4571 523Q4620 523 4662.5 532.5Q4705 542 4742 559L4712 629Q4678 615 4641.0 605.0Q4604 595 4565 595Q4511 595 4482.5 612.5Q4454 630 4454 660Q4454 682 4467.0 697.5Q4480 713 4510.5 727.5Q4541 742 4592 762Q4643 781 4679.0 801.0Q4715 821 4734.0 849.5Q4753 878 4753 921ZM5344 355Q5484 355 5548.0 410.0Q5612 465 5612 565Q5612 624 5585.5 675.5Q5559 727 5496.5 759.0Q5434 791 5327 791H5245V1069H5155V355ZM5336 432H5245V714H5317Q5419 714 5469.0 681.0Q5519 648 5519 569Q5519 500 5475.0 466.0Q5431 432 5336 432ZM5836 532Q5836 572 5831 607H5837Q5863 566 5907.5 545.0Q5952 524 6004 524Q6102 524 6151.0 570.5Q6200 617 6200 720V1069H6113V726Q6113 597 5993 597Q5903 597 5869.5 647.5Q5836 698 5836 792V1069H5748V309H5836ZM6569 524Q6667 524 6714.0 567.0Q6761 610 6761 704V1069H6697L6680 993H6676Q6641 1037 6602.5 1058.0Q6564 1079 6496 1079Q6423 1079 6375.0 1040.5Q6327 1002 6327 920Q6327 840 6390.0 796.5Q6453 753 6584 749L6675 746V714Q6675 647 6646.0 621.0Q6617 595 6564 595Q6522 595 6484.0 607.5Q6446 620 6413 636L6386 570Q6421 551 6469.0 537.5Q6517 524 6569 524ZM6595 810Q6495 814 6456.5 842.0Q6418 870 6418 921Q6418 966 6445.5 987.0Q6473 1008 6516 1008Q6584 1008 6629.0 970.5Q6674 933 6674 855V807ZM7117 523Q7170 523 7212.5 543.0Q7255 563 7285 604H7290L7302 533H7372V1078Q7372 1193 7313.5 1251.0Q7255 1309 7132 1309Q7014 1309 6939 1275V1194Q7018 1236 7137 1236Q7206 1236 7245.5 1195.5Q7285 1155 7285 1085V1064Q7285 1052 7286.0 1029.5Q7287 1007 7288 998H7284Q7230 1079 7118 1079Q7014 1079 6955.5 1006.0Q6897 933 6897 802Q6897 674 6955.5 598.5Q7014 523 7117 523ZM7129 597Q7062 597 7025.0 650.5Q6988 704 6988 803Q6988 902 7024.5 954.5Q7061 1007 7131 1007Q7212 1007 7249.0 963.5Q7286 920 7286 823V802Q7286 692 7248.0 644.5Q7210 597 7129 597ZM7891 921Q7891 999 7833.0 1039.0Q7775 1079 7677 1079Q7621 1079 7580.5 1070.0Q7540 1061 7509 1045V965Q7541 981 7586.5 994.5Q7632 1008 7679 1008Q7746 1008 7776.0 986.5Q7806 965 7806 929Q7806 909 7795.0 893.0Q7784 877 7755.5 861.0Q7727 845 7674 825Q7622 805 7585.0 785.0Q7548 765 7528.0 737.0Q7508 709 7508 665Q7508 597 7563.5 560.0Q7619 523 7709 523Q7758 523 7800.5 532.5Q7843 542 7880 559L7850 629Q7816 615 7779.0 605.0Q7742 595 7703 595Q7649 595 7620.5 612.5Q7592 630 7592 660Q7592 682 7605.0 697.5Q7618 713 7648.5 727.5Q7679 742 7730 762Q7781 781 7817.0 801.0Q7853 821 7872.0 849.5Q7891 878 7891 921ZM8222 355Q8362 355 8426.0 410.0Q8490 465 8490 565Q8490 624 8463.5 675.5Q8437 727 8374.5 759.0Q8312 791 8205 791H8123V1069H8033V355ZM8214 432H8123V714H8195Q8297 714 8347.0 681.0Q8397 648 8397 569Q8397 500 8353.0 466.0Q8309 432 8214 432ZM8829 524Q8927 524 8974.0 567.0Q9021 610 9021 704V1069H8957L8940 993H8936Q8901 1037 8862.5 1058.0Q8824 1079 8756 1079Q8683 1079 8635.0 1040.5Q8587 1002 8587 920Q8587 840 8650.0 796.5Q8713 753 8844 749L8935 746V714Q8935 647 8906.0 621.0Q8877 595 8824 595Q8782 595 8744.0 607.5Q8706 620 8673 636L8646 570Q8681 551 8729.0 537.5Q8777 524 8829 524ZM8855 810Q8755 814 8716.5 842.0Q8678 870 8678 921Q8678 966 8705.5 987.0Q8733 1008 8776 1008Q8844 1008 8889.0 970.5Q8934 933 8934 855V807Z" fill="currentColor" /></svg>