<svg viewBox="0 0 7553 747" xmlns="http://www.w3.org/2000/svg"><path d="M566 737H461L79 144H75Q77 179 80.0 231.0Q83 283 83 338V737H0V23H104L485 614H489Q488 598 486.5 566.0Q485 534 483.5 496.0Q482 458 482 426V23H566ZM1214 468Q1214 601 1146.5 674.0Q1079 747 964 747Q893 747 837.5 714.5Q782 682 750.0 619.5Q718 557 718 468Q718 335 785.0 263.0Q852 191 967 191Q1040 191 1095.5 223.5Q1151 256 1182.5 317.5Q1214 379 1214 468ZM809 468Q809 563 846.5 618.5Q884 674 966 674Q1047 674 1085.0 618.5Q1123 563 1123 468Q1123 373 1085.0 319.0Q1047 265 965 265Q883 265 846.0 319.0Q809 373 809 468ZM1532 675Q1552 675 1573.0 671.5Q1594 668 1607 664V731Q1593 738 1567.0 742.5Q1541 747 1517 747Q1475 747 1439.5 732.5Q1404 718 1382.0 682.0Q1360 646 1360 581V269H1284V227L1361 192L1396 78H1448V201H1603V269H1448V579Q1448 628 1471.5 651.5Q1495 675 1532 675ZM2180 468Q2180 601 2112.5 674.0Q2045 747 1930 747Q1859 747 1803.5 714.5Q1748 682 1716.0 619.5Q1684 557 1684 468Q1684 335 1751.0 263.0Q1818 191 1933 191Q2006 191 2061.5 223.5Q2117 256 2148.5 317.5Q2180 379 2180 468ZM1775 468Q1775 563 1812.5 618.5Q1850 674 1932 674Q2013 674 2051.0 618.5Q2089 563 2089 468Q2089 373 2051.0 319.0Q2013 265 1931 265Q1849 265 1812.0 319.0Q1775 373 1775 468ZM2996 546Q2996 641 2927.0 694.0Q2858 747 2741 747Q2681 747 2630.0 738.0Q2579 729 2545 713V627Q2581 643 2634.5 656.0Q2688 669 2745 669Q2825 669 2865.5 638.0Q2906 607 2906 554Q2906 519 2891.0 495.0Q2876 471 2839.5 450.5Q2803 430 2738 407Q2647 374 2600.5 326.0Q2554 278 2554 195Q2554 138 2583.0 97.5Q2612 57 2663.5 35.0Q2715 13 2782 13Q2841 13 2890.0 24.0Q2939 35 2979 53L2951 130Q2914 114 2870.5 103.0Q2827 92 2780 92Q2713 92 2679.0 120.5Q2645 149 2645 196Q2645 232 2660.0 256.0Q2675 280 2709.0 299.0Q2743 318 2801 340Q2864 363 2907.5 389.5Q2951 416 2973.5 453.0Q2996 490 2996 546ZM3331 192Q3429 192 3476.0 235.0Q3523 278 3523 372V737H3459L3442 661H3438Q3403 705 3364.5 726.0Q3326 747 3258 747Q3185 747 3137.0 708.5Q3089 670 3089 588Q3089 508 3152.0 464.5Q3215 421 3346 417L3437 414V382Q3437 315 3408.0 289.0Q3379 263 3326 263Q3284 263 3246.0 275.5Q3208 288 3175 304L3148 238Q3183 219 3231.0 205.5Q3279 192 3331 192ZM3357 478Q3257 482 3218.5 510.0Q3180 538 3180 589Q3180 634 3207.5 655.0Q3235 676 3278 676Q3346 676 3391.0 638.5Q3436 601 3436 523V475ZM3947 191Q4043 191 4092.0 237.5Q4141 284 4141 388V737H4054V394Q4054 265 3934 265Q3845 265 3811.0 315.0Q3777 365 3777 459V737H3689V201H3760L3773 274H3778Q3804 232 3850.0 211.5Q3896 191 3947 191ZM4656 589Q4656 667 4598.0 707.0Q4540 747 4442 747Q4386 747 4345.5 738.0Q4305 729 4274 713V633Q4306 649 4351.5 662.5Q4397 676 4444 676Q4511 676 4541.0 654.5Q4571 633 4571 597Q4571 577 4560.0 561.0Q4549 545 4520.5 529.0Q4492 513 4439 493Q4387 473 4350.0 453.0Q4313 433 4293.0 405.0Q4273 377 4273 333Q4273 265 4328.5 228.0Q4384 191 4474 191Q4523 191 4565.5 200.5Q4608 210 4645 227L4615 297Q4581 283 4544.0 273.0Q4507 263 4468 263Q4414 263 4385.5 280.5Q4357 298 4357 328Q4357 350 4370.0 365.5Q4383 381 4413.5 395.5Q4444 410 4495 430Q4546 449 4582.0 469.0Q4618 489 4637.0 517.5Q4656 546 4656 589ZM5284 737H5194V102H4971V23H5506V102H5284ZM5725 192Q5823 192 5870.0 235.0Q5917 278 5917 372V737H5853L5836 661H5832Q5797 705 5758.5 726.0Q5720 747 5652 747Q5579 747 5531.0 708.5Q5483 670 5483 588Q5483 508 5546.0 464.5Q5609 421 5740 417L5831 414V382Q5831 315 5802.0 289.0Q5773 263 5720 263Q5678 263 5640.0 275.5Q5602 288 5569 304L5542 238Q5577 219 5625.0 205.5Q5673 192 5725 192ZM5751 478Q5651 482 5612.5 510.0Q5574 538 5574 589Q5574 634 5601.5 655.0Q5629 676 5672 676Q5740 676 5785.0 638.5Q5830 601 5830 523V475ZM6128 0Q6148 0 6163.5 13.5Q6179 27 6179 56Q6179 84 6163.5 98.0Q6148 112 6128 112Q6106 112 6091.0 98.0Q6076 84 6076 56Q6076 27 6091.0 13.5Q6106 0 6128 0ZM6171 201V737H6083V201ZM6613 737V23H6703V657H7015V737ZM7332 191Q7401 191 7450.5 221.0Q7500 251 7526.5 305.5Q7553 360 7553 433V486H7186Q7188 577 7232.5 624.5Q7277 672 7357 672Q7408 672 7447.5 662.5Q7487 653 7529 635V712Q7488 730 7448.0 738.5Q7408 747 7353 747Q7277 747 7218.5 716.0Q7160 685 7127.5 623.5Q7095 562 7095 473Q7095 385 7124.5 322.0Q7154 259 7207.5 225.0Q7261 191 7332 191ZM7331 263Q7268 263 7231.5 303.5Q7195 344 7188 416H7461Q7460 348 7429.0 305.5Q7398 263 7331 263Z" /></svg>