<svg viewBox="0 0 8953 780" xmlns="http://www.w3.org/2000/svg"><path d="M0 770V728H13Q47 728 71.0 715.5Q95 703 95 656V166Q95 122 70.5 110.0Q46 98 13 98H0V56H183L541 609V166Q541 122 516.5 110.0Q492 98 459 98H446V56H697V98H684Q650 98 626.0 110.5Q602 123 602 170V770H531L156 194V656Q156 703 180.0 715.5Q204 728 238 728H251V770ZM1012 780Q904 780 842.0 711.0Q780 642 780 501Q780 361 839.5 292.5Q899 224 1015 224Q1123 224 1185.0 292.5Q1247 361 1247 501Q1247 642 1187.5 711.0Q1128 780 1012 780ZM1014 728Q1089 728 1119.5 670.5Q1150 613 1150 501Q1150 389 1119.0 333.0Q1088 277 1013 277Q938 277 907.5 333.0Q877 389 877 501Q877 613 908.0 670.5Q939 728 1014 728ZM1542 780Q1466 780 1431.5 745.5Q1397 711 1397 625V291H1321V251Q1339 251 1361.0 243.5Q1383 236 1399 219Q1416 201 1427.0 175.0Q1438 149 1445 111H1491V234H1622V291H1491V628Q1491 679 1512.0 703.0Q1533 727 1567 727Q1585 727 1600.0 725.0Q1615 723 1631 720V764Q1618 770 1592.0 775.0Q1566 780 1542 780ZM1941 780Q1833 780 1771.0 711.0Q1709 642 1709 501Q1709 361 1768.5 292.5Q1828 224 1944 224Q2052 224 2114.0 292.5Q2176 361 2176 501Q2176 642 2116.5 711.0Q2057 780 1941 780ZM1943 728Q2018 728 2048.5 670.5Q2079 613 2079 501Q2079 389 2048.0 333.0Q2017 277 1942 277Q1867 277 1836.5 333.0Q1806 389 1806 501Q1806 613 1837.0 670.5Q1868 728 1943 728ZM2738 780Q2640 780 2589.5 741.0Q2539 702 2539 639Q2539 609 2558.0 590.5Q2577 572 2611 572Q2613 613 2627.0 649.5Q2641 686 2670.0 708.5Q2699 731 2746 731Q2813 731 2851.0 698.5Q2889 666 2889 605Q2889 568 2874.5 542.5Q2860 517 2826.5 495.0Q2793 473 2734 449Q2641 411 2595.5 360.0Q2550 309 2550 227Q2550 170 2578.5 129.5Q2607 89 2656.5 67.5Q2706 46 2769 46Q2858 46 2907.0 80.0Q2956 114 2956 158Q2956 190 2934.5 206.5Q2913 223 2877 223Q2877 192 2866.5 163.0Q2856 134 2831.5 115.0Q2807 96 2765 96Q2707 96 2675.0 127.0Q2643 158 2643 210Q2643 250 2657.5 277.5Q2672 305 2706.0 326.5Q2740 348 2798 372Q2886 408 2935.0 455.0Q2984 502 2984 579Q2984 674 2917.5 727.0Q2851 780 2738 780ZM3322 780Q3213 780 3151.5 708.0Q3090 636 3090 506Q3090 366 3148.0 295.0Q3206 224 3312 224Q3409 224 3464.5 284.0Q3520 344 3520 463V509H3187Q3189 618 3226.5 667.5Q3264 717 3336 717Q3388 717 3424.5 695.5Q3461 674 3479 647Q3486 650 3492.0 659.0Q3498 668 3498 681Q3498 701 3479.0 724.0Q3460 747 3421.0 763.5Q3382 780 3322 780ZM3419 455Q3419 375 3394.5 326.5Q3370 278 3310 278Q3255 278 3224.5 323.5Q3194 369 3189 455ZM3603 770V728H3606Q3640 728 3664.0 715.5Q3688 703 3688 656V344Q3688 300 3663.5 288.0Q3639 276 3606 276H3603V234H3757L3776 333H3781Q3794 303 3809.0 278.0Q3824 253 3849.0 238.5Q3874 224 3918 224Q3973 224 3999.5 243.0Q4026 262 4026 297Q4026 328 4004.5 348.0Q3983 368 3933 368Q3933 327 3921.0 308.5Q3909 290 3880 290Q3852 290 3833.0 312.0Q3814 334 3803.0 368.0Q3792 402 3787.0 438.5Q3782 475 3782 504V661Q3782 705 3806.5 716.5Q3831 728 3864 728H3892V770ZM4202 134Q4178 134 4161.5 120.0Q4145 106 4145 72Q4145 37 4161.5 23.5Q4178 10 4202 10Q4225 10 4242.0 23.5Q4259 37 4259 72Q4259 106 4242.0 120.0Q4225 134 4202 134ZM4064 770V728H4077Q4110 728 4134.5 716.5Q4159 705 4159 661V344Q4159 300 4134.5 288.0Q4110 276 4077 276H4074V234H4253V656Q4253 703 4277.0 715.5Q4301 728 4335 728H4348V770ZM4388 770V728H4401Q4435 728 4459.0 715.5Q4483 703 4483 656V281H4392V234H4483V184Q4483 95 4530.5 47.5Q4578 0 4660 0Q4738 0 4769.0 19.5Q4800 39 4800 70Q4800 97 4777.0 111.5Q4754 126 4718 126Q4718 96 4704.0 71.0Q4690 46 4652 46Q4609 46 4593.0 79.0Q4577 112 4577 175V234H4718V281H4577V656Q4577 703 4601.0 715.5Q4625 728 4659 728H4697V770ZM5028 770V728H5041Q5075 728 5099.0 715.5Q5123 703 5123 656V166Q5123 122 5098.5 110.0Q5074 98 5041 98H5028V56H5296Q5426 56 5489.5 99.5Q5553 143 5553 235Q5553 302 5517.5 338.5Q5482 375 5429 392V396Q5497 408 5540.0 452.5Q5583 497 5583 577Q5583 770 5326 770ZM5293 371Q5381 371 5413.5 339.0Q5446 307 5446 235Q5446 161 5411.0 133.5Q5376 106 5291 106H5224V371ZM5321 720Q5406 720 5441.0 687.0Q5476 654 5476 574Q5476 496 5443.5 458.5Q5411 421 5323 421H5224V720ZM5849 780Q5782 780 5738.0 741.0Q5694 702 5694 620Q5694 540 5750.5 502.0Q5807 464 5922 460L6005 457V397Q6005 361 5999.0 333.5Q5993 306 5973.0 290.0Q5953 274 5912 274Q5874 274 5854.0 288.0Q5834 302 5827.5 326.5Q5821 351 5821 383Q5779 383 5757.5 368.5Q5736 354 5736 320Q5736 285 5760.5 264.0Q5785 243 5826.0 233.5Q5867 224 5916 224Q6008 224 6053.5 263.0Q6099 302 6099 397V656Q6099 698 6113.0 713.0Q6127 728 6161 728H6164V770H6029L6013 684H6005Q5984 712 5964.0 733.5Q5944 755 5917.5 767.5Q5891 780 5849 780ZM5872 718Q5933 718 5969.0 680.5Q6005 643 6005 579V498L5941 501Q5856 505 5823.5 535.5Q5791 566 5791 625Q5791 718 5872 718ZM6220 770V728H6233Q6267 728 6291.0 715.5Q6315 703 6315 656V120Q6315 76 6290.5 64.0Q6266 52 6233 52H6220V10H6409V656Q6409 703 6433.0 715.5Q6457 728 6491 728H6504V770ZM6678 134Q6654 134 6637.5 120.0Q6621 106 6621 72Q6621 37 6637.5 23.5Q6654 10 6678 10Q6701 10 6718.0 23.5Q6735 37 6735 72Q6735 106 6718.0 120.0Q6701 134 6678 134ZM6540 770V728H6553Q6586 728 6610.5 716.5Q6635 705 6635 661V344Q6635 300 6610.5 288.0Q6586 276 6553 276H6550V234H6729V656Q6729 703 6753.0 715.5Q6777 728 6811 728H6824V770ZM6865 770V728H6873Q6907 728 6931.0 715.5Q6955 703 6955 656V344Q6955 300 6931.5 288.0Q6908 276 6875 276H6870V234H7032L7045 315H7050Q7081 259 7119.5 241.5Q7158 224 7206 224Q7285 224 7329.5 270.5Q7374 317 7374 420V656Q7374 703 7394.5 715.5Q7415 728 7449 728H7454V770H7280V425Q7280 360 7255.5 324.0Q7231 288 7170 288Q7125 288 7098.5 310.5Q7072 333 7060.5 370.0Q7049 407 7049 450V661Q7049 705 7072.5 716.5Q7096 728 7129 728H7134V770ZM7769 780Q7660 780 7598.5 708.0Q7537 636 7537 506Q7537 366 7595.0 295.0Q7653 224 7759 224Q7856 224 7911.5 284.0Q7967 344 7967 463V509H7634Q7636 618 7673.5 667.5Q7711 717 7783 717Q7835 717 7871.5 695.5Q7908 674 7926 647Q7933 650 7939.0 659.0Q7945 668 7945 681Q7945 701 7926.0 724.0Q7907 747 7868.0 763.5Q7829 780 7769 780ZM7866 455Q7866 375 7841.5 326.5Q7817 278 7757 278Q7702 278 7671.5 323.5Q7641 369 7636 455ZM8227 780Q8152 780 8107.0 753.0Q8062 726 8062 674Q8062 647 8073.0 632.0Q8084 617 8098.5 611.0Q8113 605 8125 605Q8125 657 8148.5 694.5Q8172 732 8233 732Q8286 732 8314.5 706.5Q8343 681 8343 641Q8343 616 8332.5 600.0Q8322 584 8295.5 568.5Q8269 553 8220 532Q8169 509 8135.5 487.5Q8102 466 8085.5 437.5Q8069 409 8069 366Q8069 298 8120.5 261.5Q8172 225 8257 225Q8329 225 8366.0 252.0Q8403 279 8403 317Q8403 344 8384.5 360.5Q8366 377 8331 377Q8331 327 8310.0 299.0Q8289 271 8245 271Q8194 271 8172.0 293.5Q8150 316 8150 351Q8150 389 8178.5 409.5Q8207 430 8274 457Q8327 479 8360.0 501.0Q8393 523 8408.5 552.0Q8424 581 8424 623Q8424 701 8370.0 740.5Q8316 780 8227 780ZM8755 780Q8646 780 8584.5 708.0Q8523 636 8523 506Q8523 366 8581.0 295.0Q8639 224 8745 224Q8842 224 8897.5 284.0Q8953 344 8953 463V509H8620Q8622 618 8659.5 667.5Q8697 717 8769 717Q8821 717 8857.5 695.5Q8894 674 8912 647Q8919 650 8925.0 659.0Q8931 668 8931 681Q8931 701 8912.0 724.0Q8893 747 8854.0 763.5Q8815 780 8755 780ZM8852 455Q8852 375 8827.5 326.5Q8803 278 8743 278Q8688 278 8657.5 323.5Q8627 369 8622 455Z" fill="currentColor" /></svg>