<svg viewBox="0 0 10244 1437" xmlns="http://www.w3.org/2000/svg"><path d="M663 1069H558L176 476H172Q174 511 177.0 563.0Q180 615 180 670V1069H97V355H201L582 946H586Q585 930 583.5 898.0Q582 866 580.5 828.0Q579 790 579 758V355H663ZM1311 800Q1311 933 1243.5 1006.0Q1176 1079 1061 1079Q990 1079 934.5 1046.5Q879 1014 847.0 951.5Q815 889 815 800Q815 667 882.0 595.0Q949 523 1064 523Q1137 523 1192.5 555.5Q1248 588 1279.5 649.5Q1311 711 1311 800ZM906 800Q906 895 943.5 950.5Q981 1006 1063 1006Q1144 1006 1182.0 950.5Q1220 895 1220 800Q1220 705 1182.0 651.0Q1144 597 1062 597Q980 597 943.0 651.0Q906 705 906 800ZM1629 1007Q1649 1007 1670.0 1003.5Q1691 1000 1704 996V1063Q1690 1070 1664.0 1074.5Q1638 1079 1614 1079Q1572 1079 1536.5 1064.5Q1501 1050 1479.0 1014.0Q1457 978 1457 913V601H1381V559L1458 524L1493 410H1545V533H1700V601H1545V911Q1545 960 1568.5 983.5Q1592 1007 1629 1007ZM2277 800Q2277 933 2209.5 1006.0Q2142 1079 2027 1079Q1956 1079 1900.5 1046.5Q1845 1014 1813.0 951.5Q1781 889 1781 800Q1781 667 1848.0 595.0Q1915 523 2030 523Q2103 523 2158.5 555.5Q2214 588 2245.5 649.5Q2277 711 2277 800ZM1872 800Q1872 895 1909.5 950.5Q1947 1006 2029 1006Q2110 1006 2148.0 950.5Q2186 895 2186 800Q2186 705 2148.0 651.0Q2110 597 2028 597Q1946 597 1909.0 651.0Q1872 705 1872 800ZM3093 878Q3093 973 3024.0 1026.0Q2955 1079 2838 1079Q2778 1079 2727.0 1070.0Q2676 1061 2642 1045V959Q2678 975 2731.5 988.0Q2785 1001 2842 1001Q2922 1001 2962.5 970.0Q3003 939 3003 886Q3003 851 2988.0 827.0Q2973 803 2936.5 782.5Q2900 762 2835 739Q2789 722 2754.5 702.5Q2720 683 2697.0 658.0Q2674 633 2662.5 601.0Q2651 569 2651 527Q2651 470 2680.0 429.5Q2709 389 2760.5 367.0Q2812 345 2879 345Q2938 345 2987.0 356.0Q3036 367 3076 385L3048 462Q3011 446 2967.5 435.0Q2924 424 2877 424Q2810 424 2776.0 452.5Q2742 481 2742 528Q2742 564 2757.0 588.0Q2772 612 2806.0 631.0Q2840 650 2898 672Q2961 695 3004.5 721.5Q3048 748 3070.5 785.0Q3093 822 3093 878ZM3428 524Q3526 524 3573.0 567.0Q3620 610 3620 704V1069H3556L3539 993H3535Q3500 1037 3461.5 1058.0Q3423 1079 3355 1079Q3282 1079 3234.0 1040.5Q3186 1002 3186 920Q3186 840 3249.0 796.5Q3312 753 3443 749L3534 746V714Q3534 647 3505.0 621.0Q3476 595 3423 595Q3381 595 3343.0 607.5Q3305 620 3272 636L3245 570Q3280 551 3328.0 537.5Q3376 524 3428 524ZM3454 810Q3354 814 3315.5 842.0Q3277 870 3277 921Q3277 966 3304.5 987.0Q3332 1008 3375 1008Q3443 1008 3488.0 970.5Q3533 933 3533 855V807ZM4044 523Q4140 523 4189.0 569.5Q4238 616 4238 720V1069H4151V726Q4151 661 4122.0 629.0Q4093 597 4031 597Q3942 597 3908.0 647.0Q3874 697 3874 791V1069H3786V533H3857L3870 606H3875Q3901 564 3947.0 543.5Q3993 523 4044 523ZM4753 921Q4753 999 4695.0 1039.0Q4637 1079 4539 1079Q4483 1079 4442.5 1070.0Q4402 1061 4371 1045V965Q4403 981 4448.5 994.5Q4494 1008 4541 1008Q4608 1008 4638.0 986.5Q4668 965 4668 929Q4668 909 4657.0 893.0Q4646 877 4617.5 861.0Q4589 845 4536 825Q4484 805 4447.0 785.0Q4410 765 4390.0 737.0Q4370 709 4370 665Q4370 597 4425.5 560.0Q4481 523 4571 523Q4620 523 4662.5 532.5Q4705 542 4742 559L4712 629Q4678 615 4641.0 605.0Q4604 595 4565 595Q4511 595 4482.5 612.5Q4454 630 4454 660Q4454 682 4467.0 697.5Q4480 713 4510.5 727.5Q4541 742 4592 762Q4643 781 4679.0 801.0Q4715 821 4734.0 849.5Q4753 878 4753 921ZM5560 878Q5560 973 5491.0 1026.0Q5422 1079 5305 1079Q5245 1079 5194.0 1070.0Q5143 1061 5109 1045V959Q5145 975 5198.5 988.0Q5252 1001 5309 1001Q5389 1001 5429.5 970.0Q5470 939 5470 886Q5470 851 5455.0 827.0Q5440 803 5403.5 782.5Q5367 762 5302 739Q5256 722 5221.5 702.5Q5187 683 5164.0 658.0Q5141 633 5129.5 601.0Q5118 569 5118 527Q5118 470 5147.0 429.5Q5176 389 5227.5 367.0Q5279 345 5346 345Q5405 345 5454.0 356.0Q5503 367 5543 385L5515 462Q5478 446 5434.5 435.0Q5391 424 5344 424Q5277 424 5243.0 452.5Q5209 481 5209 528Q5209 564 5224.0 588.0Q5239 612 5273.0 631.0Q5307 650 5365 672Q5428 695 5471.5 721.5Q5515 748 5537.5 785.0Q5560 822 5560 878ZM6140 533V1069H6068L6055 998H6051Q6025 1040 5979.0 1059.5Q5933 1079 5881 1079Q5784 1079 5735.0 1032.5Q5686 986 5686 884V533H5775V878Q5775 942 5804.0 974.0Q5833 1006 5894 1006Q5983 1006 6017.5 956.0Q6052 906 6052 812V533ZM6568 523Q6664 523 6713.0 569.5Q6762 616 6762 720V1069H6675V726Q6675 661 6646.0 629.0Q6617 597 6555 597Q6466 597 6432.0 647.0Q6398 697 6398 791V1069H6310V533H6381L6394 606H6399Q6425 564 6471.0 543.5Q6517 523 6568 523ZM7118 1079Q7018 1079 6958.0 1009.5Q6898 940 6898 802Q6898 664 6958.5 593.5Q7019 523 7119 523Q7181 523 7220.5 546.0Q7260 569 7285 602H7291Q7290 589 7287.5 563.5Q7285 538 7285 523V309H7373V1069H7302L7289 997H7285Q7261 1031 7221.0 1055.0Q7181 1079 7118 1079ZM7132 1006Q7217 1006 7251.5 959.5Q7286 913 7286 819V803Q7286 703 7253.0 649.5Q7220 596 7131 596Q7060 596 7024.5 652.5Q6989 709 6989 804Q6989 900 7024.5 953.0Q7060 1006 7132 1006ZM7746 524Q7844 524 7891.0 567.0Q7938 610 7938 704V1069H7874L7857 993H7853Q7818 1037 7779.5 1058.0Q7741 1079 7673 1079Q7600 1079 7552.0 1040.5Q7504 1002 7504 920Q7504 840 7567.0 796.5Q7630 753 7761 749L7852 746V714Q7852 647 7823.0 621.0Q7794 595 7741 595Q7699 595 7661.0 607.5Q7623 620 7590 636L7563 570Q7598 551 7646.0 537.5Q7694 524 7746 524ZM7772 810Q7672 814 7633.5 842.0Q7595 870 7595 921Q7595 966 7622.5 987.0Q7650 1008 7693 1008Q7761 1008 7806.0 970.5Q7851 933 7851 855V807ZM8362 523Q8458 523 8507.0 569.5Q8556 616 8556 720V1069H8469V726Q8469 661 8440.0 629.0Q8411 597 8349 597Q8260 597 8226.0 647.0Q8192 697 8192 791V1069H8104V533H8175L8188 606H8193Q8219 564 8265.0 543.5Q8311 523 8362 523ZM8929 523Q8998 523 9047.5 553.0Q9097 583 9123.5 637.5Q9150 692 9150 765V818H8783Q8785 909 8829.5 956.5Q8874 1004 8954 1004Q9005 1004 9044.5 994.5Q9084 985 9126 967V1044Q9085 1062 9045.0 1070.5Q9005 1079 8950 1079Q8874 1079 8815.5 1048.0Q8757 1017 8724.5 955.5Q8692 894 8692 805Q8692 717 8721.5 654.0Q8751 591 8804.5 557.0Q8858 523 8929 523ZM8928 595Q8865 595 8828.5 635.5Q8792 676 8785 748H9058Q9057 680 9026.0 637.5Q8995 595 8928 595ZM9635 921Q9635 999 9577.0 1039.0Q9519 1079 9421 1079Q9365 1079 9324.5 1070.0Q9284 1061 9253 1045V965Q9285 981 9330.5 994.5Q9376 1008 9423 1008Q9490 1008 9520.0 986.5Q9550 965 9550 929Q9550 909 9539.0 893.0Q9528 877 9499.5 861.0Q9471 845 9418 825Q9366 805 9329.0 785.0Q9292 765 9272.0 737.0Q9252 709 9252 665Q9252 597 9307.5 560.0Q9363 523 9453 523Q9502 523 9544.5 532.5Q9587 542 9624 559L9594 629Q9560 615 9523.0 605.0Q9486 595 9447 595Q9393 595 9364.5 612.5Q9336 630 9336 660Q9336 682 9349.0 697.5Q9362 713 9392.5 727.5Q9423 742 9474 762Q9525 781 9561.0 801.0Q9597 821 9616.0 849.5Q9635 878 9635 921ZM9972 523Q10041 523 10090.5 553.0Q10140 583 10166.5 637.5Q10193 692 10193 765V818H9826Q9828 909 9872.5 956.5Q9917 1004 9997 1004Q10048 1004 10087.5 994.5Q10127 985 10169 967V1044Q10128 1062 10088.0 1070.5Q10048 1079 9993 1079Q9917 1079 9858.5 1048.0Q9800 1017 9767.5 955.5Q9735 894 9735 805Q9735 717 9764.5 654.0Q9794 591 9847.5 557.0Q9901 523 9972 523ZM9971 595Q9908 595 9871.5 635.5Q9835 676 9828 748H10101Q10100 680 10069.0 637.5Q10038 595 9971 595Z" fill="currentColor" /></svg>