<svg viewBox="0 0 8679 1000" xmlns="http://www.w3.org/2000/svg"><path d="M566 760H461L79 167H75Q77 190 78.5 221.5Q80 253 81.5 288.5Q83 324 83 361V760H0V46H104L485 637H489Q488 621 486.5 589.0Q485 557 483.5 519.0Q482 481 482 449V46H566ZM1214 491Q1214 558 1196.5 609.5Q1179 661 1146.5 697.0Q1114 733 1067.5 751.5Q1021 770 964 770Q911 770 866.0 751.5Q821 733 788.0 697.0Q755 661 736.5 609.5Q718 558 718 491Q718 402 748.0 340.5Q778 279 834.0 246.5Q890 214 967 214Q1040 214 1095.5 246.5Q1151 279 1182.5 340.5Q1214 402 1214 491ZM809 491Q809 554 825.5 600.5Q842 647 877.0 672.0Q912 697 966 697Q1020 697 1055.0 672.0Q1090 647 1106.5 600.5Q1123 554 1123 491Q1123 427 1106.0 382.0Q1089 337 1054.5 312.5Q1020 288 965 288Q883 288 846.0 342.0Q809 396 809 491ZM1532 698Q1552 698 1573.0 694.5Q1594 691 1607 687V754Q1593 761 1567.0 765.5Q1541 770 1517 770Q1475 770 1439.5 755.5Q1404 741 1382.0 705.0Q1360 669 1360 604V292H1284V250L1361 215L1396 101H1448V224H1603V292H1448V602Q1448 651 1471.5 674.5Q1495 698 1532 698ZM2180 491Q2180 558 2162.5 609.5Q2145 661 2112.5 697.0Q2080 733 2033.5 751.5Q1987 770 1930 770Q1877 770 1832.0 751.5Q1787 733 1754.0 697.0Q1721 661 1702.5 609.5Q1684 558 1684 491Q1684 402 1714.0 340.5Q1744 279 1800.0 246.5Q1856 214 1933 214Q2006 214 2061.5 246.5Q2117 279 2148.5 340.5Q2180 402 2180 491ZM1775 491Q1775 554 1791.5 600.5Q1808 647 1843.0 672.0Q1878 697 1932 697Q1986 697 2021.0 672.0Q2056 647 2072.5 600.5Q2089 554 2089 491Q2089 427 2072.0 382.0Q2055 337 2020.5 312.5Q1986 288 1931 288Q1849 288 1812.0 342.0Q1775 396 1775 491ZM2996 569Q2996 633 2965.0 677.5Q2934 722 2876.5 746.0Q2819 770 2741 770Q2701 770 2664.5 766.0Q2628 762 2598.0 754.5Q2568 747 2545 736V650Q2581 666 2634.5 679.0Q2688 692 2745 692Q2798 692 2834.0 678.0Q2870 664 2888.0 638.0Q2906 612 2906 577Q2906 542 2891.0 518.0Q2876 494 2839.5 473.5Q2803 453 2738 430Q2692 413 2657.5 393.5Q2623 374 2600.0 349.0Q2577 324 2565.5 292.0Q2554 260 2554 218Q2554 161 2583.0 120.5Q2612 80 2663.5 58.0Q2715 36 2782 36Q2841 36 2890.0 47.0Q2939 58 2979 76L2951 153Q2914 137 2870.5 126.0Q2827 115 2780 115Q2735 115 2705.0 128.0Q2675 141 2660.0 164.5Q2645 188 2645 219Q2645 255 2660.0 279.0Q2675 303 2709.0 322.0Q2743 341 2801 363Q2864 386 2907.5 412.5Q2951 439 2973.5 476.0Q2996 513 2996 569ZM3331 215Q3429 215 3476.0 258.0Q3523 301 3523 395V760H3459L3442 684H3438Q3415 713 3390.5 732.5Q3366 752 3334.5 761.0Q3303 770 3258 770Q3210 770 3171.5 753.0Q3133 736 3111.0 700.5Q3089 665 3089 611Q3089 531 3152.0 487.5Q3215 444 3346 440L3437 437V405Q3437 338 3408.0 312.0Q3379 286 3326 286Q3284 286 3246.0 298.5Q3208 311 3175 327L3148 261Q3183 242 3231.0 228.5Q3279 215 3331 215ZM3357 501Q3257 505 3218.5 533.0Q3180 561 3180 612Q3180 657 3207.5 678.0Q3235 699 3278 699Q3346 699 3391.0 661.5Q3436 624 3436 546V498ZM3947 214Q4043 214 4092.0 260.5Q4141 307 4141 411V760H4054V417Q4054 352 4025.0 320.0Q3996 288 3934 288Q3845 288 3811.0 338.0Q3777 388 3777 482V760H3689V224H3760L3773 297H3778Q3796 269 3822.5 250.5Q3849 232 3881.0 223.0Q3913 214 3947 214ZM4656 612Q4656 664 4630.0 699.0Q4604 734 4556.0 752.0Q4508 770 4442 770Q4386 770 4345.5 761.0Q4305 752 4274 736V656Q4306 672 4351.5 685.5Q4397 699 4444 699Q4511 699 4541.0 677.5Q4571 656 4571 620Q4571 600 4560.0 584.0Q4549 568 4520.5 552.0Q4492 536 4439 516Q4387 496 4350.0 476.0Q4313 456 4293.0 428.0Q4273 400 4273 356Q4273 288 4328.5 251.0Q4384 214 4474 214Q4523 214 4565.5 223.5Q4608 233 4645 250L4615 320Q4581 306 4544.0 296.0Q4507 286 4468 286Q4414 286 4385.5 303.5Q4357 321 4357 351Q4357 373 4370.0 388.5Q4383 404 4413.5 418.5Q4444 433 4495 453Q4546 472 4582.0 492.0Q4618 512 4637.0 540.5Q4656 569 4656 612ZM5457 760H5058V46H5457V125H5148V348H5439V426H5148V681H5457ZM5781 698Q5801 698 5822.0 694.5Q5843 691 5856 687V754Q5842 761 5816.0 765.5Q5790 770 5766 770Q5724 770 5688.5 755.5Q5653 741 5631.0 705.0Q5609 669 5609 604V292H5533V250L5610 215L5645 101H5697V224H5852V292H5697V602Q5697 651 5720.5 674.5Q5744 698 5781 698ZM6051 223Q6051 242 6049.5 262.0Q6048 282 6046 298H6052Q6069 270 6095.0 252.0Q6121 234 6153.0 224.5Q6185 215 6219 215Q6284 215 6327.5 235.5Q6371 256 6393.0 299.0Q6415 342 6415 411V760H6328V417Q6328 352 6299.0 320.0Q6270 288 6208 288Q6148 288 6114.0 310.5Q6080 333 6065.5 376.5Q6051 420 6051 483V760H5963V0H6051ZM6669 224V760H6581V224ZM6626 23Q6646 23 6661.5 36.5Q6677 50 6677 79Q6677 107 6661.5 121.0Q6646 135 6626 135Q6604 135 6589.0 121.0Q6574 107 6574 79Q6574 50 6589.0 36.5Q6604 23 6626 23ZM7305 491Q7305 558 7287.5 609.5Q7270 661 7237.5 697.0Q7205 733 7158.5 751.5Q7112 770 7055 770Q7002 770 6957.0 751.5Q6912 733 6879.0 697.0Q6846 661 6827.5 609.5Q6809 558 6809 491Q6809 402 6839.0 340.5Q6869 279 6925.0 246.5Q6981 214 7058 214Q7131 214 7186.5 246.5Q7242 279 7273.5 340.5Q7305 402 7305 491ZM6900 491Q6900 554 6916.5 600.5Q6933 647 6968.0 672.0Q7003 697 7057 697Q7111 697 7146.0 672.0Q7181 647 7197.5 600.5Q7214 554 7214 491Q7214 427 7197.0 382.0Q7180 337 7145.5 312.5Q7111 288 7056 288Q6974 288 6937.0 342.0Q6900 396 6900 491ZM7699 214Q7798 214 7858.5 283.0Q7919 352 7919 491Q7919 582 7891.5 644.5Q7864 707 7814.5 738.5Q7765 770 7698 770Q7657 770 7625.0 759.0Q7593 748 7570.5 730.5Q7548 713 7532 692H7526Q7528 709 7530.0 735.0Q7532 761 7532 780V1000H7444V224H7516L7528 297H7532Q7548 274 7570.5 255.0Q7593 236 7624.5 225.0Q7656 214 7699 214ZM7683 288Q7629 288 7596.0 308.5Q7563 329 7548.0 370.0Q7533 411 7532 474V491Q7532 557 7546.0 603.0Q7560 649 7593.5 673.0Q7627 697 7685 697Q7734 697 7765.5 670.0Q7797 643 7812.5 596.5Q7828 550 7828 490Q7828 398 7792.5 343.0Q7757 288 7683 288ZM8147 224V760H8059V224ZM8104 23Q8124 23 8139.5 36.5Q8155 50 8155 79Q8155 107 8139.5 121.0Q8124 135 8104 135Q8082 135 8067.0 121.0Q8052 107 8052 79Q8052 50 8067.0 36.5Q8082 23 8104 23ZM8532 770Q8461 770 8405.5 741.0Q8350 712 8318.5 651.0Q8287 590 8287 495Q8287 396 8320.0 334.0Q8353 272 8409.5 243.0Q8466 214 8538 214Q8579 214 8617.0 222.5Q8655 231 8679 243L8652 316Q8628 307 8596.0 299.0Q8564 291 8536 291Q8482 291 8447.0 314.0Q8412 337 8395.0 382.0Q8378 427 8378 494Q8378 558 8395.0 603.0Q8412 648 8446.0 671.0Q8480 694 8531 694Q8575 694 8608.5 685.0Q8642 676 8670 663V741Q8643 755 8610.5 762.5Q8578 770 8532 770Z" fill="currentColor" /></svg>