<svg viewBox="0 0 9925 1000" xmlns="http://www.w3.org/2000/svg"><path d="M566 760H461L79 167H75Q77 202 80.0 254.0Q83 306 83 361V760H0V46H104L485 637H489Q488 621 486.5 589.0Q485 557 483.5 519.0Q482 481 482 449V46H566ZM1214 491Q1214 624 1146.5 697.0Q1079 770 964 770Q893 770 837.5 737.5Q782 705 750.0 642.5Q718 580 718 491Q718 358 785.0 286.0Q852 214 967 214Q1040 214 1095.5 246.5Q1151 279 1182.5 340.5Q1214 402 1214 491ZM809 491Q809 586 846.5 641.5Q884 697 966 697Q1047 697 1085.0 641.5Q1123 586 1123 491Q1123 396 1085.0 342.0Q1047 288 965 288Q883 288 846.0 342.0Q809 396 809 491ZM1532 698Q1552 698 1573.0 694.5Q1594 691 1607 687V754Q1593 761 1567.0 765.5Q1541 770 1517 770Q1475 770 1439.5 755.5Q1404 741 1382.0 705.0Q1360 669 1360 604V292H1284V250L1361 215L1396 101H1448V224H1603V292H1448V602Q1448 651 1471.5 674.5Q1495 698 1532 698ZM2180 491Q2180 624 2112.5 697.0Q2045 770 1930 770Q1859 770 1803.5 737.5Q1748 705 1716.0 642.5Q1684 580 1684 491Q1684 358 1751.0 286.0Q1818 214 1933 214Q2006 214 2061.5 246.5Q2117 279 2148.5 340.5Q2180 402 2180 491ZM1775 491Q1775 586 1812.5 641.5Q1850 697 1932 697Q2013 697 2051.0 641.5Q2089 586 2089 491Q2089 396 2051.0 342.0Q2013 288 1931 288Q1849 288 1812.0 342.0Q1775 396 1775 491ZM2996 569Q2996 664 2927.0 717.0Q2858 770 2741 770Q2681 770 2630.0 761.0Q2579 752 2545 736V650Q2581 666 2634.5 679.0Q2688 692 2745 692Q2825 692 2865.5 661.0Q2906 630 2906 577Q2906 542 2891.0 518.0Q2876 494 2839.5 473.5Q2803 453 2738 430Q2647 397 2600.5 349.0Q2554 301 2554 218Q2554 161 2583.0 120.5Q2612 80 2663.5 58.0Q2715 36 2782 36Q2841 36 2890.0 47.0Q2939 58 2979 76L2951 153Q2914 137 2870.5 126.0Q2827 115 2780 115Q2713 115 2679.0 143.5Q2645 172 2645 219Q2645 255 2660.0 279.0Q2675 303 2709.0 322.0Q2743 341 2801 363Q2864 386 2907.5 412.5Q2951 439 2973.5 476.0Q2996 513 2996 569ZM3331 215Q3429 215 3476.0 258.0Q3523 301 3523 395V760H3459L3442 684H3438Q3403 728 3364.5 749.0Q3326 770 3258 770Q3185 770 3137.0 731.5Q3089 693 3089 611Q3089 531 3152.0 487.5Q3215 444 3346 440L3437 437V405Q3437 338 3408.0 312.0Q3379 286 3326 286Q3284 286 3246.0 298.5Q3208 311 3175 327L3148 261Q3183 242 3231.0 228.5Q3279 215 3331 215ZM3357 501Q3257 505 3218.5 533.0Q3180 561 3180 612Q3180 657 3207.5 678.0Q3235 699 3278 699Q3346 699 3391.0 661.5Q3436 624 3436 546V498ZM3947 214Q4043 214 4092.0 260.5Q4141 307 4141 411V760H4054V417Q4054 288 3934 288Q3845 288 3811.0 338.0Q3777 388 3777 482V760H3689V224H3760L3773 297H3778Q3804 255 3850.0 234.5Q3896 214 3947 214ZM4656 612Q4656 690 4598.0 730.0Q4540 770 4442 770Q4386 770 4345.5 761.0Q4305 752 4274 736V656Q4306 672 4351.5 685.5Q4397 699 4444 699Q4511 699 4541.0 677.5Q4571 656 4571 620Q4571 600 4560.0 584.0Q4549 568 4520.5 552.0Q4492 536 4439 516Q4387 496 4350.0 476.0Q4313 456 4293.0 428.0Q4273 400 4273 356Q4273 288 4328.5 251.0Q4384 214 4474 214Q4523 214 4565.5 223.5Q4608 233 4645 250L4615 320Q4581 306 4544.0 296.0Q4507 286 4468 286Q4414 286 4385.5 303.5Q4357 321 4357 351Q4357 373 4370.0 388.5Q4383 404 4413.5 418.5Q4444 433 4495 453Q4546 472 4582.0 492.0Q4618 512 4637.0 540.5Q4656 569 4656 612ZM5373 760 5138 134H5134Q5137 165 5139.0 217.5Q5141 270 5141 327V760H5058V46H5191L5411 631H5415L5639 46H5771V760H5682V321Q5682 269 5684.5 218.0Q5687 167 5689 135H5685L5447 760ZM6419 491Q6419 624 6351.5 697.0Q6284 770 6169 770Q6098 770 6042.5 737.5Q5987 705 5955.0 642.5Q5923 580 5923 491Q5923 358 5990.0 286.0Q6057 214 6172 214Q6245 214 6300.5 246.5Q6356 279 6387.5 340.5Q6419 402 6419 491ZM6014 491Q6014 586 6051.5 641.5Q6089 697 6171 697Q6252 697 6290.0 641.5Q6328 586 6328 491Q6328 396 6290.0 342.0Q6252 288 6170 288Q6088 288 6051.0 342.0Q6014 396 6014 491ZM6816 214Q6912 214 6961.0 260.5Q7010 307 7010 411V760H6923V417Q6923 288 6803 288Q6714 288 6680.0 338.0Q6646 388 6646 482V760H6558V224H6629L6642 297H6647Q6673 255 6719.0 234.5Q6765 214 6816 214ZM7366 214Q7419 214 7461.5 234.0Q7504 254 7534 295H7539L7551 224H7621V769Q7621 884 7562.5 942.0Q7504 1000 7381 1000Q7263 1000 7188 966V885Q7267 927 7386 927Q7455 927 7494.5 886.5Q7534 846 7534 776V755Q7534 743 7535.0 720.5Q7536 698 7537 689H7533Q7479 770 7367 770Q7263 770 7204.5 697.0Q7146 624 7146 493Q7146 365 7204.5 289.5Q7263 214 7366 214ZM7378 288Q7311 288 7274.0 341.5Q7237 395 7237 494Q7237 593 7273.5 645.5Q7310 698 7380 698Q7461 698 7498.0 654.5Q7535 611 7535 514V493Q7535 383 7497.0 335.5Q7459 288 7378 288ZM8257 491Q8257 624 8189.5 697.0Q8122 770 8007 770Q7936 770 7880.5 737.5Q7825 705 7793.0 642.5Q7761 580 7761 491Q7761 358 7828.0 286.0Q7895 214 8010 214Q8083 214 8138.5 246.5Q8194 279 8225.5 340.5Q8257 402 8257 491ZM7852 491Q7852 586 7889.5 641.5Q7927 697 8009 697Q8090 697 8128.0 641.5Q8166 586 8166 491Q8166 396 8128.0 342.0Q8090 288 8008 288Q7926 288 7889.0 342.0Q7852 396 7852 491ZM8484 760H8396V0H8484ZM8699 23Q8719 23 8734.5 36.5Q8750 50 8750 79Q8750 107 8734.5 121.0Q8719 135 8699 135Q8677 135 8662.0 121.0Q8647 107 8647 79Q8647 50 8662.0 36.5Q8677 23 8699 23ZM8742 224V760H8654V224ZM9115 215Q9213 215 9260.0 258.0Q9307 301 9307 395V760H9243L9226 684H9222Q9187 728 9148.5 749.0Q9110 770 9042 770Q8969 770 8921.0 731.5Q8873 693 8873 611Q8873 531 8936.0 487.5Q8999 444 9130 440L9221 437V405Q9221 338 9192.0 312.0Q9163 286 9110 286Q9068 286 9030.0 298.5Q8992 311 8959 327L8932 261Q8967 242 9015.0 228.5Q9063 215 9115 215ZM9141 501Q9041 505 9002.5 533.0Q8964 561 8964 612Q8964 657 8991.5 678.0Q9019 699 9062 699Q9130 699 9175.0 661.5Q9220 624 9220 546V498ZM9731 214Q9827 214 9876.0 260.5Q9925 307 9925 411V760H9838V417Q9838 288 9718 288Q9629 288 9595.0 338.0Q9561 388 9561 482V760H9473V224H9544L9557 297H9562Q9588 255 9634.0 234.5Q9680 214 9731 214Z" /></svg>