<svg viewBox="0 0 8951 1824" xmlns="http://www.w3.org/2000/svg"><path d="M38 1290V1248H51Q85 1248 109.0 1235.5Q133 1223 133 1176V686Q133 642 108.5 630.0Q84 618 51 618H38V576H221L579 1129V686Q579 642 554.5 630.0Q530 618 497 618H484V576H735V618H722Q688 618 664.0 630.5Q640 643 640 690V1290H569L194 714V1176Q194 1223 218.0 1235.5Q242 1248 276 1248H289V1290ZM1050 1300Q942 1300 880.0 1231.0Q818 1162 818 1021Q818 881 877.5 812.5Q937 744 1053 744Q1161 744 1223.0 812.5Q1285 881 1285 1021Q1285 1162 1225.5 1231.0Q1166 1300 1050 1300ZM1052 1248Q1127 1248 1157.5 1190.5Q1188 1133 1188 1021Q1188 909 1157.0 853.0Q1126 797 1051 797Q976 797 945.5 853.0Q915 909 915 1021Q915 1133 946.0 1190.5Q977 1248 1052 1248ZM1580 1300Q1504 1300 1469.5 1265.5Q1435 1231 1435 1145V811H1359V771Q1377 771 1399.0 763.5Q1421 756 1437 739Q1454 721 1465.0 695.0Q1476 669 1483 631H1529V754H1660V811H1529V1148Q1529 1199 1550.0 1223.0Q1571 1247 1605 1247Q1623 1247 1638.0 1245.0Q1653 1243 1669 1240V1284Q1656 1290 1630.0 1295.0Q1604 1300 1580 1300ZM1979 1300Q1871 1300 1809.0 1231.0Q1747 1162 1747 1021Q1747 881 1806.5 812.5Q1866 744 1982 744Q2090 744 2152.0 812.5Q2214 881 2214 1021Q2214 1162 2154.5 1231.0Q2095 1300 1979 1300ZM1981 1248Q2056 1248 2086.5 1190.5Q2117 1133 2117 1021Q2117 909 2086.0 853.0Q2055 797 1980 797Q1905 797 1874.5 853.0Q1844 909 1844 1021Q1844 1133 1875.0 1190.5Q1906 1248 1981 1248ZM2776 1300Q2678 1300 2627.5 1261.0Q2577 1222 2577 1159Q2577 1129 2596.0 1110.5Q2615 1092 2649 1092Q2651 1133 2665.0 1169.5Q2679 1206 2708.0 1228.5Q2737 1251 2784 1251Q2851 1251 2889.0 1218.5Q2927 1186 2927 1125Q2927 1088 2912.5 1062.5Q2898 1037 2864.5 1015.0Q2831 993 2772 969Q2679 931 2633.5 880.0Q2588 829 2588 747Q2588 690 2616.5 649.5Q2645 609 2694.5 587.5Q2744 566 2807 566Q2896 566 2945.0 600.0Q2994 634 2994 678Q2994 710 2972.5 726.5Q2951 743 2915 743Q2915 712 2904.5 683.0Q2894 654 2869.5 635.0Q2845 616 2803 616Q2745 616 2713.0 647.0Q2681 678 2681 730Q2681 770 2695.5 797.5Q2710 825 2744.0 846.5Q2778 868 2836 892Q2924 928 2973.0 975.0Q3022 1022 3022 1099Q3022 1194 2955.5 1247.0Q2889 1300 2776 1300ZM3360 1300Q3251 1300 3189.5 1228.0Q3128 1156 3128 1026Q3128 886 3186.0 815.0Q3244 744 3350 744Q3447 744 3502.5 804.0Q3558 864 3558 983V1029H3225Q3227 1138 3264.5 1187.5Q3302 1237 3374 1237Q3426 1237 3462.5 1215.5Q3499 1194 3517 1167Q3524 1170 3530.0 1179.0Q3536 1188 3536 1201Q3536 1221 3517.0 1244.0Q3498 1267 3459.0 1283.5Q3420 1300 3360 1300ZM3457 975Q3457 895 3432.5 846.5Q3408 798 3348 798Q3293 798 3262.5 843.5Q3232 889 3227 975ZM3641 1290V1248H3644Q3678 1248 3702.0 1235.5Q3726 1223 3726 1176V864Q3726 820 3701.5 808.0Q3677 796 3644 796H3641V754H3795L3814 853H3819Q3832 823 3847.0 798.0Q3862 773 3887.0 758.5Q3912 744 3956 744Q4011 744 4037.5 763.0Q4064 782 4064 817Q4064 848 4042.5 868.0Q4021 888 3971 888Q3971 847 3959.0 828.5Q3947 810 3918 810Q3890 810 3871.0 832.0Q3852 854 3841.0 888.0Q3830 922 3825.0 958.5Q3820 995 3820 1024V1181Q3820 1225 3844.5 1236.5Q3869 1248 3902 1248H3930V1290ZM4240 654Q4216 654 4199.5 640.0Q4183 626 4183 592Q4183 557 4199.5 543.5Q4216 530 4240 530Q4263 530 4280.0 543.5Q4297 557 4297 592Q4297 626 4280.0 640.0Q4263 654 4240 654ZM4102 1290V1248H4115Q4148 1248 4172.5 1236.5Q4197 1225 4197 1181V864Q4197 820 4172.5 808.0Q4148 796 4115 796H4112V754H4291V1176Q4291 1223 4315.0 1235.5Q4339 1248 4373 1248H4386V1290ZM4426 1290V1248H4439Q4473 1248 4497.0 1235.5Q4521 1223 4521 1176V801H4430V754H4521V704Q4521 615 4568.5 567.5Q4616 520 4698 520Q4776 520 4807.0 539.5Q4838 559 4838 590Q4838 617 4815.0 631.5Q4792 646 4756 646Q4756 616 4742.0 591.0Q4728 566 4690 566Q4647 566 4631.0 599.0Q4615 632 4615 695V754H4756V801H4615V1176Q4615 1223 4639.0 1235.5Q4663 1248 4697 1248H4735V1290ZM5429 1300Q5313 1300 5236.5 1254.0Q5160 1208 5122.5 1125.5Q5085 1043 5085 932Q5085 824 5124.5 741.5Q5164 659 5242.0 612.5Q5320 566 5435 566Q5546 566 5601.0 598.0Q5656 630 5656 678Q5656 710 5629.0 729.0Q5602 748 5563 748Q5563 717 5550.5 687.5Q5538 658 5509.0 638.5Q5480 619 5431 619Q5304 619 5250.0 700.5Q5196 782 5196 932Q5196 1082 5252.5 1162.5Q5309 1243 5445 1243Q5474 1243 5501.0 1240.0Q5528 1237 5549 1231V1070Q5549 1026 5524.5 1014.0Q5500 1002 5467 1002H5463V960H5723V1002H5719Q5691 1002 5670.5 1014.5Q5650 1027 5650 1074V1254Q5600 1277 5547.0 1288.5Q5494 1300 5429 1300ZM5775 1290V1248H5778Q5812 1248 5836.0 1235.5Q5860 1223 5860 1176V864Q5860 820 5835.5 808.0Q5811 796 5778 796H5775V754H5929L5948 853H5953Q5966 823 5981.0 798.0Q5996 773 6021.0 758.5Q6046 744 6090 744Q6145 744 6171.5 763.0Q6198 782 6198 817Q6198 848 6176.5 868.0Q6155 888 6105 888Q6105 847 6093.0 828.5Q6081 810 6052 810Q6024 810 6005.0 832.0Q5986 854 5975.0 888.0Q5964 922 5959.0 958.5Q5954 995 5954 1024V1181Q5954 1225 5978.5 1236.5Q6003 1248 6036 1248H6064V1290ZM6398 1300Q6331 1300 6287.0 1261.0Q6243 1222 6243 1140Q6243 1060 6299.5 1022.0Q6356 984 6471 980L6554 977V917Q6554 881 6548.0 853.5Q6542 826 6522.0 810.0Q6502 794 6461 794Q6423 794 6403.0 808.0Q6383 822 6376.5 846.5Q6370 871 6370 903Q6328 903 6306.5 888.5Q6285 874 6285 840Q6285 805 6309.5 784.0Q6334 763 6375.0 753.5Q6416 744 6465 744Q6557 744 6602.5 783.0Q6648 822 6648 917V1176Q6648 1218 6662.0 1233.0Q6676 1248 6710 1248H6713V1290H6578L6562 1204H6554Q6533 1232 6513.0 1253.5Q6493 1275 6466.5 1287.5Q6440 1300 6398 1300ZM6421 1238Q6482 1238 6518.0 1200.5Q6554 1163 6554 1099V1018L6490 1021Q6405 1025 6372.5 1055.5Q6340 1086 6340 1145Q6340 1238 6421 1238ZM6784 1290V1248H6792Q6826 1248 6850.0 1235.5Q6874 1223 6874 1176V864Q6874 820 6850.5 808.0Q6827 796 6794 796H6789V754H6951L6964 835H6969Q7000 779 7038.5 761.5Q7077 744 7125 744Q7204 744 7248.5 790.5Q7293 837 7293 940V1176Q7293 1223 7313.5 1235.5Q7334 1248 7368 1248H7373V1290H7199V945Q7199 880 7174.5 844.0Q7150 808 7089 808Q7044 808 7017.5 830.5Q6991 853 6979.5 890.0Q6968 927 6968 970V1181Q6968 1225 6991.5 1236.5Q7015 1248 7048 1248H7053V1290ZM7641 1300Q7565 1300 7530.5 1265.5Q7496 1231 7496 1145V811H7420V771Q7438 771 7460.0 763.5Q7482 756 7498 739Q7515 721 7526.0 695.0Q7537 669 7544 631H7590V754H7721V811H7590V1148Q7590 1199 7611.0 1223.0Q7632 1247 7666 1247Q7684 1247 7699.0 1245.0Q7714 1243 7730 1240V1284Q7717 1290 7691.0 1295.0Q7665 1300 7641 1300ZM7771 1290V1248H7779Q7813 1248 7837.0 1235.5Q7861 1223 7861 1176V640Q7861 596 7836.5 584.0Q7812 572 7779 572H7771V530H7955V750Q7955 768 7954.0 787.5Q7953 807 7952.0 821.0Q7951 835 7951 835H7956Q8002 744 8103 744Q8189 744 8234.5 790.5Q8280 837 8280 940V1176Q8280 1223 8301.5 1235.5Q8323 1248 8357 1248H8360V1290H8186V945Q8186 880 8161.5 844.0Q8137 808 8076 808Q8014 808 7984.5 852.0Q7955 896 7955 970V1181Q7955 1225 7979.5 1236.5Q8004 1248 8037 1248H8040V1290ZM8593 1300Q8526 1300 8482.0 1261.0Q8438 1222 8438 1140Q8438 1060 8494.5 1022.0Q8551 984 8666 980L8749 977V917Q8749 881 8743.0 853.5Q8737 826 8717.0 810.0Q8697 794 8656 794Q8618 794 8598.0 808.0Q8578 822 8571.5 846.5Q8565 871 8565 903Q8523 903 8501.5 888.5Q8480 874 8480 840Q8480 805 8504.5 784.0Q8529 763 8570.0 753.5Q8611 744 8660 744Q8752 744 8797.5 783.0Q8843 822 8843 917V1176Q8843 1218 8857.0 1233.0Q8871 1248 8905 1248H8908V1290H8773L8757 1204H8749Q8728 1232 8708.0 1253.5Q8688 1275 8661.5 1287.5Q8635 1300 8593 1300ZM8616 1238Q8677 1238 8713.0 1200.5Q8749 1163 8749 1099V1018L8685 1021Q8600 1025 8567.5 1055.5Q8535 1086 8535 1145Q8535 1238 8616 1238Z" fill="currentColor" /></svg>