<svg viewBox="0 0 8229 1010" xmlns="http://www.w3.org/2000/svg"><path d="M0 770V728H13Q36 728 54.5 723.0Q73 718 84.0 702.5Q95 687 95 656V166Q95 136 83.5 121.5Q72 107 53.5 102.5Q35 98 13 98H0V56H183L541 609V166Q541 136 529.5 121.5Q518 107 499.5 102.5Q481 98 459 98H446V56H697V98H684Q662 98 643.0 103.0Q624 108 613.0 123.0Q602 138 602 170V770H531L156 194V656Q156 687 167.0 702.5Q178 718 197.0 723.0Q216 728 238 728H251V770ZM1012 780Q904 780 842.0 711.0Q780 642 780 501Q780 361 839.5 292.5Q899 224 1015 224Q1123 224 1185.0 292.5Q1247 361 1247 501Q1247 642 1187.5 711.0Q1128 780 1012 780ZM1014 728Q1064 728 1094.0 702.5Q1124 677 1137.0 626.0Q1150 575 1150 501Q1150 389 1119.0 333.0Q1088 277 1013 277Q938 277 907.5 333.0Q877 389 877 501Q877 613 908.0 670.5Q939 728 1014 728ZM1542 780Q1466 780 1431.5 745.5Q1397 711 1397 625V291H1321V251Q1339 251 1361.0 243.5Q1383 236 1399 219Q1416 201 1427.0 175.0Q1438 149 1445 111H1491V234H1622V291H1491V628Q1491 679 1512.0 703.0Q1533 727 1567 727Q1585 727 1600.0 725.0Q1615 723 1631 720V764Q1618 770 1592.0 775.0Q1566 780 1542 780ZM1941 780Q1833 780 1771.0 711.0Q1709 642 1709 501Q1709 361 1768.5 292.5Q1828 224 1944 224Q2052 224 2114.0 292.5Q2176 361 2176 501Q2176 642 2116.5 711.0Q2057 780 1941 780ZM1943 728Q1993 728 2023.0 702.5Q2053 677 2066.0 626.0Q2079 575 2079 501Q2079 389 2048.0 333.0Q2017 277 1942 277Q1867 277 1836.5 333.0Q1806 389 1806 501Q1806 613 1837.0 670.5Q1868 728 1943 728ZM2761 780Q2712 780 2674.5 770.0Q2637 760 2612.0 741.0Q2587 722 2574.5 696.0Q2562 670 2562 639Q2562 619 2570.5 604.0Q2579 589 2595.0 580.5Q2611 572 2634 572Q2636 613 2650.0 649.5Q2664 686 2693.0 708.5Q2722 731 2769 731Q2836 731 2874.0 698.5Q2912 666 2912 605Q2912 568 2897.5 542.5Q2883 517 2849.5 495.0Q2816 473 2757 449Q2695 423 2654.0 393.0Q2613 363 2593.0 322.5Q2573 282 2573 227Q2573 170 2601.5 129.5Q2630 89 2679.5 67.5Q2729 46 2792 46Q2852 46 2893.5 62.0Q2935 78 2957.0 103.5Q2979 129 2979 158Q2979 190 2957.5 206.5Q2936 223 2900 223Q2900 192 2889.5 163.0Q2879 134 2854.5 115.0Q2830 96 2788 96Q2730 96 2698.0 127.0Q2666 158 2666 210Q2666 250 2680.5 277.5Q2695 305 2729.0 326.5Q2763 348 2821 372Q2880 396 2921.5 424.5Q2963 453 2985.0 490.0Q3007 527 3007 579Q3007 643 2977.0 687.5Q2947 732 2891.5 756.0Q2836 780 2761 780ZM3345 780Q3236 780 3174.5 708.0Q3113 636 3113 506Q3113 366 3171.0 295.0Q3229 224 3335 224Q3432 224 3487.5 284.0Q3543 344 3543 463V509H3210Q3212 618 3249.5 667.5Q3287 717 3359 717Q3411 717 3447.5 695.5Q3484 674 3502 647Q3509 650 3515.0 659.0Q3521 668 3521 681Q3521 701 3502.0 724.0Q3483 747 3444.0 763.5Q3405 780 3345 780ZM3442 455Q3442 375 3417.5 326.5Q3393 278 3333 278Q3278 278 3247.5 323.5Q3217 369 3212 455ZM3626 770V728H3629Q3652 728 3670.5 723.0Q3689 718 3700.0 702.5Q3711 687 3711 656V344Q3711 314 3699.5 299.5Q3688 285 3669.5 280.5Q3651 276 3629 276H3626V234H3780L3799 333H3804Q3817 303 3832.0 278.0Q3847 253 3872.0 238.5Q3897 224 3941 224Q3996 224 4022.5 243.0Q4049 262 4049 297Q4049 328 4027.5 348.0Q4006 368 3956 368Q3956 327 3944.0 308.5Q3932 290 3903 290Q3875 290 3856.0 312.0Q3837 334 3826.0 368.0Q3815 402 3810.0 438.5Q3805 475 3805 504V661Q3805 690 3816.5 704.5Q3828 719 3846.5 723.5Q3865 728 3887 728H3915V770ZM4087 770V728H4100Q4122 728 4140.5 723.5Q4159 719 4170.5 704.5Q4182 690 4182 661V344Q4182 314 4170.5 299.5Q4159 285 4140.5 280.5Q4122 276 4100 276H4097V234H4276V656Q4276 687 4287.0 702.5Q4298 718 4317.0 723.0Q4336 728 4358 728H4371V770ZM4225 134Q4201 134 4184.5 120.0Q4168 106 4168 72Q4168 37 4184.5 23.5Q4201 10 4225 10Q4248 10 4265.0 23.5Q4282 37 4282 72Q4282 106 4265.0 120.0Q4248 134 4225 134ZM4411 770V728H4424Q4447 728 4465.5 723.0Q4484 718 4495.0 702.5Q4506 687 4506 656V281H4415V234H4506V184Q4506 95 4553.5 47.5Q4601 0 4683 0Q4735 0 4765.5 9.0Q4796 18 4809.5 33.5Q4823 49 4823 70Q4823 88 4812.5 100.5Q4802 113 4783.5 119.5Q4765 126 4741 126Q4741 106 4735.0 87.5Q4729 69 4715.0 57.5Q4701 46 4675 46Q4632 46 4616.0 79.0Q4600 112 4600 175V234H4741V281H4600V656Q4600 687 4611.0 702.5Q4622 718 4641.0 723.0Q4660 728 4682 728H4720V770ZM5186 770V728H5209Q5231 728 5249.5 723.5Q5268 719 5279.5 704.5Q5291 690 5291 661V106H5195Q5151 106 5134.0 130.5Q5117 155 5113 188L5108 231H5056L5061 56H5624L5629 231H5577L5572 188Q5568 155 5551.0 130.5Q5534 106 5489 106H5392V656Q5392 687 5403.0 702.5Q5414 718 5433.0 723.0Q5452 728 5474 728H5497V770ZM5886 780Q5777 780 5715.5 708.0Q5654 636 5654 506Q5654 366 5712.0 295.0Q5770 224 5876 224Q5973 224 6028.5 284.0Q6084 344 6084 463V509H5751Q5753 618 5790.5 667.5Q5828 717 5900 717Q5952 717 5988.5 695.5Q6025 674 6043 647Q6050 650 6056.0 659.0Q6062 668 6062 681Q6062 701 6043.0 724.0Q6024 747 5985.0 763.5Q5946 780 5886 780ZM5983 455Q5983 375 5958.5 326.5Q5934 278 5874 278Q5819 278 5788.5 323.5Q5758 369 5753 455ZM6147 770V728H6160Q6183 728 6201.5 723.0Q6220 718 6231.0 702.5Q6242 687 6242 656V120Q6242 90 6230.5 75.5Q6219 61 6200.5 56.5Q6182 52 6160 52H6147V10H6336V656Q6336 687 6347.0 702.5Q6358 718 6377.0 723.0Q6396 728 6418 728H6431V770ZM6717 780Q6638 780 6595.0 733.5Q6552 687 6552 584V344Q6552 314 6540.5 299.5Q6529 285 6510.5 280.5Q6492 276 6470 276H6467V234H6646V579Q6646 622 6655.5 653.0Q6665 684 6688.0 700.0Q6711 716 6751 716Q6795 716 6823.0 695.5Q6851 675 6864.0 638.5Q6877 602 6877 554V348Q6877 316 6866.0 301.0Q6855 286 6836.5 281.0Q6818 276 6795 276H6792V234H6971V661Q6971 690 6982.5 704.5Q6994 719 7012.5 723.5Q7031 728 7053 728H7056V770H6897L6884 689H6879Q6848 745 6807.0 762.5Q6766 780 6717 780ZM7310 1010Q7206 1010 7154.0 971.5Q7102 933 7102 864Q7102 825 7119.5 798.5Q7137 772 7165.5 757.0Q7194 742 7227 736Q7207 727 7189.5 706.5Q7172 686 7172 654Q7172 624 7187.5 602.0Q7203 580 7237 560Q7194 542 7170.5 500.5Q7147 459 7147 409Q7147 323 7194.0 273.5Q7241 224 7335 224Q7371 224 7403.0 234.0Q7435 244 7449 257Q7463 241 7488.0 222.0Q7513 203 7546 203Q7576 203 7590.5 218.5Q7605 234 7605 255Q7605 276 7592.5 291.5Q7580 307 7552 307Q7552 296 7545.5 284.5Q7539 273 7519 273Q7506 273 7496.0 276.0Q7486 279 7476 285Q7493 306 7504.0 334.5Q7515 363 7515 406Q7515 480 7470.5 529.0Q7426 578 7335 578Q7323 578 7307.5 576.5Q7292 575 7282 573Q7263 583 7249.0 598.0Q7235 613 7235 636Q7235 654 7246.5 664.0Q7258 674 7297 674H7410Q7499 674 7537.0 716.0Q7575 758 7575 823Q7575 909 7510.5 959.5Q7446 1010 7310 1010ZM7312 961Q7384 961 7423.0 945.5Q7462 930 7477.5 902.5Q7493 875 7493 840Q7493 794 7467.0 778.5Q7441 763 7391 763H7293Q7265 763 7240.0 770.5Q7215 778 7199.0 798.0Q7183 818 7183 858Q7183 887 7194.0 910.5Q7205 934 7233.0 947.5Q7261 961 7312 961ZM7332 530Q7365 530 7384.5 517.0Q7404 504 7412.5 476.0Q7421 448 7421 405Q7421 360 7412.0 330.5Q7403 301 7383.5 287.0Q7364 273 7331 273Q7299 273 7279.0 287.5Q7259 302 7250.0 331.5Q7241 361 7241 406Q7241 470 7262.5 500.0Q7284 530 7332 530ZM7890 780Q7811 780 7768.0 733.5Q7725 687 7725 584V344Q7725 314 7713.5 299.5Q7702 285 7683.5 280.5Q7665 276 7643 276H7640V234H7819V579Q7819 622 7828.5 653.0Q7838 684 7861.0 700.0Q7884 716 7924 716Q7968 716 7996.0 695.5Q8024 675 8037.0 638.5Q8050 602 8050 554V348Q8050 316 8039.0 301.0Q8028 286 8009.5 281.0Q7991 276 7968 276H7965V234H8144V661Q8144 690 8155.5 704.5Q8167 719 8185.5 723.5Q8204 728 8226 728H8229V770H8070L8057 689H8052Q8021 745 7980.0 762.5Q7939 780 7890 780Z" fill="currentColor" /></svg>