<svg viewBox="0 0 10371 1699" xmlns="http://www.w3.org/2000/svg"><path d="M663 1069H558L176 476H172Q174 511 177.0 563.0Q180 615 180 670V1069H97V355H201L582 946H586Q585 930 583.5 898.0Q582 866 580.5 828.0Q579 790 579 758V355H663ZM1311 800Q1311 933 1243.5 1006.0Q1176 1079 1061 1079Q990 1079 934.5 1046.5Q879 1014 847.0 951.5Q815 889 815 800Q815 667 882.0 595.0Q949 523 1064 523Q1137 523 1192.5 555.5Q1248 588 1279.5 649.5Q1311 711 1311 800ZM906 800Q906 895 943.5 950.5Q981 1006 1063 1006Q1144 1006 1182.0 950.5Q1220 895 1220 800Q1220 705 1182.0 651.0Q1144 597 1062 597Q980 597 943.0 651.0Q906 705 906 800ZM1629 1007Q1649 1007 1670.0 1003.5Q1691 1000 1704 996V1063Q1690 1070 1664.0 1074.5Q1638 1079 1614 1079Q1572 1079 1536.5 1064.5Q1501 1050 1479.0 1014.0Q1457 978 1457 913V601H1381V559L1458 524L1493 410H1545V533H1700V601H1545V911Q1545 960 1568.5 983.5Q1592 1007 1629 1007ZM2277 800Q2277 933 2209.5 1006.0Q2142 1079 2027 1079Q1956 1079 1900.5 1046.5Q1845 1014 1813.0 951.5Q1781 889 1781 800Q1781 667 1848.0 595.0Q1915 523 2030 523Q2103 523 2158.5 555.5Q2214 588 2245.5 649.5Q2277 711 2277 800ZM1872 800Q1872 895 1909.5 950.5Q1947 1006 2029 1006Q2110 1006 2148.0 950.5Q2186 895 2186 800Q2186 705 2148.0 651.0Q2110 597 2028 597Q1946 597 1909.0 651.0Q1872 705 1872 800ZM3093 878Q3093 973 3024.0 1026.0Q2955 1079 2838 1079Q2778 1079 2727.0 1070.0Q2676 1061 2642 1045V959Q2678 975 2731.5 988.0Q2785 1001 2842 1001Q2922 1001 2962.5 970.0Q3003 939 3003 886Q3003 851 2988.0 827.0Q2973 803 2936.5 782.5Q2900 762 2835 739Q2744 706 2697.5 658.0Q2651 610 2651 527Q2651 470 2680.0 429.5Q2709 389 2760.5 367.0Q2812 345 2879 345Q2938 345 2987.0 356.0Q3036 367 3076 385L3048 462Q3011 446 2967.5 435.0Q2924 424 2877 424Q2810 424 2776.0 452.5Q2742 481 2742 528Q2742 564 2757.0 588.0Q2772 612 2806.0 631.0Q2840 650 2898 672Q2961 695 3004.5 721.5Q3048 748 3070.5 785.0Q3093 822 3093 878ZM3428 524Q3526 524 3573.0 567.0Q3620 610 3620 704V1069H3556L3539 993H3535Q3500 1037 3461.5 1058.0Q3423 1079 3355 1079Q3282 1079 3234.0 1040.5Q3186 1002 3186 920Q3186 840 3249.0 796.5Q3312 753 3443 749L3534 746V714Q3534 647 3505.0 621.0Q3476 595 3423 595Q3381 595 3343.0 607.5Q3305 620 3272 636L3245 570Q3280 551 3328.0 537.5Q3376 524 3428 524ZM3454 810Q3354 814 3315.5 842.0Q3277 870 3277 921Q3277 966 3304.5 987.0Q3332 1008 3375 1008Q3443 1008 3488.0 970.5Q3533 933 3533 855V807ZM4044 523Q4140 523 4189.0 569.5Q4238 616 4238 720V1069H4151V726Q4151 597 4031 597Q3942 597 3908.0 647.0Q3874 697 3874 791V1069H3786V533H3857L3870 606H3875Q3901 564 3947.0 543.5Q3993 523 4044 523ZM4753 921Q4753 999 4695.0 1039.0Q4637 1079 4539 1079Q4483 1079 4442.5 1070.0Q4402 1061 4371 1045V965Q4403 981 4448.5 994.5Q4494 1008 4541 1008Q4608 1008 4638.0 986.5Q4668 965 4668 929Q4668 909 4657.0 893.0Q4646 877 4617.5 861.0Q4589 845 4536 825Q4484 805 4447.0 785.0Q4410 765 4390.0 737.0Q4370 709 4370 665Q4370 597 4425.5 560.0Q4481 523 4571 523Q4620 523 4662.5 532.5Q4705 542 4742 559L4712 629Q4678 615 4641.0 605.0Q4604 595 4565 595Q4511 595 4482.5 612.5Q4454 630 4454 660Q4454 682 4467.0 697.5Q4480 713 4510.5 727.5Q4541 742 4592 762Q4643 781 4679.0 801.0Q4715 821 4734.0 849.5Q4753 878 4753 921ZM5560 878Q5560 973 5491.0 1026.0Q5422 1079 5305 1079Q5245 1079 5194.0 1070.0Q5143 1061 5109 1045V959Q5145 975 5198.5 988.0Q5252 1001 5309 1001Q5389 1001 5429.5 970.0Q5470 939 5470 886Q5470 851 5455.0 827.0Q5440 803 5403.5 782.5Q5367 762 5302 739Q5211 706 5164.5 658.0Q5118 610 5118 527Q5118 470 5147.0 429.5Q5176 389 5227.5 367.0Q5279 345 5346 345Q5405 345 5454.0 356.0Q5503 367 5543 385L5515 462Q5478 446 5434.5 435.0Q5391 424 5344 424Q5277 424 5243.0 452.5Q5209 481 5209 528Q5209 564 5224.0 588.0Q5239 612 5273.0 631.0Q5307 650 5365 672Q5428 695 5471.5 721.5Q5515 748 5537.5 785.0Q5560 822 5560 878ZM5608 533H5702L5818 838Q5833 878 5845.0 914.5Q5857 951 5863 984H5867Q5873 959 5886.0 918.5Q5899 878 5913 837L6022 533H6117L5886 1143Q5858 1219 5813.5 1264.0Q5769 1309 5691 1309Q5667 1309 5649.0 1306.5Q5631 1304 5618 1301V1231Q5629 1233 5644.5 1235.0Q5660 1237 5677 1237Q5723 1237 5751.5 1211.0Q5780 1185 5796 1142L5824 1071ZM6790 523Q6881 523 6926.0 569.5Q6971 616 6971 720V1069H6884V724Q6884 597 6775 597Q6697 597 6663.5 642.0Q6630 687 6630 773V1069H6543V724Q6543 597 6433 597Q6352 597 6321.0 647.0Q6290 697 6290 791V1069H6202V533H6273L6286 606H6291Q6316 564 6358.5 543.5Q6401 523 6449 523Q6575 523 6613 613H6618Q6645 567 6691.5 545.0Q6738 523 6790 523ZM7225 494Q7225 528 7223.5 557.5Q7222 587 7220 604H7225Q7248 570 7288.0 547.0Q7328 524 7391 524Q7491 524 7551.5 593.5Q7612 663 7612 801Q7612 939 7551.0 1009.0Q7490 1079 7391 1079Q7328 1079 7288.0 1056.0Q7248 1033 7225 1001H7218L7200 1069H7137V309H7225ZM7376 597Q7291 597 7258.0 646.0Q7225 695 7225 798V802Q7225 901 7257.5 953.5Q7290 1006 7378 1006Q7450 1006 7485.5 953.0Q7521 900 7521 800Q7521 597 7376 597ZM8218 800Q8218 933 8150.5 1006.0Q8083 1079 7968 1079Q7897 1079 7841.5 1046.5Q7786 1014 7754.0 951.5Q7722 889 7722 800Q7722 667 7789.0 595.0Q7856 523 7971 523Q8044 523 8099.5 555.5Q8155 588 8186.5 649.5Q8218 711 8218 800ZM7813 800Q7813 895 7850.5 950.5Q7888 1006 7970 1006Q8051 1006 8089.0 950.5Q8127 895 8127 800Q8127 705 8089.0 651.0Q8051 597 7969 597Q7887 597 7850.0 651.0Q7813 705 7813 800ZM8445 1069H8357V309H8445ZM8964 921Q8964 999 8906.0 1039.0Q8848 1079 8750 1079Q8694 1079 8653.5 1070.0Q8613 1061 8582 1045V965Q8614 981 8659.5 994.5Q8705 1008 8752 1008Q8819 1008 8849.0 986.5Q8879 965 8879 929Q8879 909 8868.0 893.0Q8857 877 8828.5 861.0Q8800 845 8747 825Q8695 805 8658.0 785.0Q8621 765 8601.0 737.0Q8581 709 8581 665Q8581 597 8636.5 560.0Q8692 523 8782 523Q8831 523 8873.5 532.5Q8916 542 8953 559L8923 629Q8889 615 8852.0 605.0Q8815 595 8776 595Q8722 595 8693.5 612.5Q8665 630 8665 660Q8665 682 8678.0 697.5Q8691 713 8721.5 727.5Q8752 742 8803 762Q8854 781 8890.0 801.0Q8926 821 8945.0 849.5Q8964 878 8964 921ZM9629 985V905L9763 771Q9812 722 9847.0 681.5Q9882 641 9882 595Q9882 562 9862.5 543.5Q9843 525 9812 525Q9781 525 9752.5 539.0Q9724 553 9691 582L9628 507Q9658 481 9685.5 463.5Q9713 446 9745.0 437.5Q9777 429 9820 429Q9904 429 9951.0 472.5Q9998 516 9998 581Q9998 630 9976.5 670.5Q9955 711 9920.0 747.0Q9885 783 9843 820L9772 882V890H10012V985Z" fill="currentColor" /></svg>