<svg viewBox="0 0 15797 1287" xmlns="http://www.w3.org/2000/svg"><path d="M663 995H558L176 402H172Q174 437 177.0 489.0Q180 541 180 596V995H97V281H201L582 872H586Q585 856 583.5 824.0Q582 792 580.5 754.0Q579 716 579 684V281H663ZM1311 726Q1311 859 1243.5 932.0Q1176 1005 1061 1005Q990 1005 934.5 972.5Q879 940 847.0 877.5Q815 815 815 726Q815 593 882.0 521.0Q949 449 1064 449Q1137 449 1192.5 481.5Q1248 514 1279.5 575.5Q1311 637 1311 726ZM906 726Q906 821 943.5 876.5Q981 932 1063 932Q1144 932 1182.0 876.5Q1220 821 1220 726Q1220 631 1182.0 577.0Q1144 523 1062 523Q980 523 943.0 577.0Q906 631 906 726ZM1629 933Q1649 933 1670.0 929.5Q1691 926 1704 922V989Q1690 996 1664.0 1000.5Q1638 1005 1614 1005Q1572 1005 1536.5 990.5Q1501 976 1479.0 940.0Q1457 904 1457 839V527H1381V485L1458 450L1493 336H1545V459H1700V527H1545V837Q1545 886 1568.5 909.5Q1592 933 1629 933ZM2277 726Q2277 859 2209.5 932.0Q2142 1005 2027 1005Q1956 1005 1900.5 972.5Q1845 940 1813.0 877.5Q1781 815 1781 726Q1781 593 1848.0 521.0Q1915 449 2030 449Q2103 449 2158.5 481.5Q2214 514 2245.5 575.5Q2277 637 2277 726ZM1872 726Q1872 821 1909.5 876.5Q1947 932 2029 932Q2110 932 2148.0 876.5Q2186 821 2186 726Q2186 631 2148.0 577.0Q2110 523 2028 523Q1946 523 1909.0 577.0Q1872 631 1872 726ZM3124 995H2629V927L3005 361H2641V281H3114V349L2738 915H3124ZM3506 449Q3602 449 3651.0 495.5Q3700 542 3700 646V995H3613V652Q3613 523 3493 523Q3404 523 3370.0 573.0Q3336 623 3336 717V995H3248V459H3319L3332 532H3337Q3363 490 3409.0 469.5Q3455 449 3506 449ZM4069 450Q4167 450 4214.0 493.0Q4261 536 4261 630V995H4197L4180 919H4176Q4141 963 4102.5 984.0Q4064 1005 3996 1005Q3923 1005 3875.0 966.5Q3827 928 3827 846Q3827 766 3890.0 722.5Q3953 679 4084 675L4175 672V640Q4175 573 4146.0 547.0Q4117 521 4064 521Q4022 521 3984.0 533.5Q3946 546 3913 562L3886 496Q3921 477 3969.0 463.5Q4017 450 4069 450ZM4095 736Q3995 740 3956.5 768.0Q3918 796 3918 847Q3918 892 3945.5 913.0Q3973 934 4016 934Q4084 934 4129.0 896.5Q4174 859 4174 781V733ZM5015 449Q5106 449 5151.0 495.5Q5196 542 5196 646V995H5109V650Q5109 523 5000 523Q4922 523 4888.5 568.0Q4855 613 4855 699V995H4768V650Q4768 523 4658 523Q4577 523 4546.0 573.0Q4515 623 4515 717V995H4427V459H4498L4511 532H4516Q4541 490 4583.5 469.5Q4626 449 4674 449Q4800 449 4838 539H4843Q4870 493 4916.5 471.0Q4963 449 5015 449ZM5569 449Q5638 449 5687.5 479.0Q5737 509 5763.5 563.5Q5790 618 5790 691V744H5423Q5425 835 5469.5 882.5Q5514 930 5594 930Q5645 930 5684.5 920.5Q5724 911 5766 893V970Q5725 988 5685.0 996.5Q5645 1005 5590 1005Q5514 1005 5455.5 974.0Q5397 943 5364.5 881.5Q5332 820 5332 731Q5332 643 5361.5 580.0Q5391 517 5444.5 483.0Q5498 449 5569 449ZM5568 521Q5505 521 5468.5 561.5Q5432 602 5425 674H5698Q5697 606 5666.0 563.5Q5635 521 5568 521ZM6184 449Q6280 449 6329.0 495.5Q6378 542 6378 646V995H6291V652Q6291 523 6171 523Q6082 523 6048.0 573.0Q6014 623 6014 717V995H5926V459H5997L6010 532H6015Q6041 490 6087.0 469.5Q6133 449 6184 449ZM6802 449Q6898 449 6947.0 495.5Q6996 542 6996 646V995H6909V652Q6909 523 6789 523Q6700 523 6666.0 573.0Q6632 623 6632 717V995H6544V459H6615L6628 532H6633Q6659 490 6705.0 469.5Q6751 449 6802 449ZM7078 459H7172L7288 764Q7303 804 7315.0 840.5Q7327 877 7333 910H7337Q7343 885 7356.0 844.5Q7369 804 7383 763L7492 459H7587L7356 1069Q7328 1145 7283.5 1190.0Q7239 1235 7161 1235Q7137 1235 7119.0 1232.5Q7101 1230 7088 1227V1157Q7099 1159 7114.5 1161.0Q7130 1163 7147 1163Q7193 1163 7221.5 1137.0Q7250 1111 7266 1068L7294 997ZM8259 995 8024 369H8020Q8023 400 8025.0 452.5Q8027 505 8027 562V995H7944V281H8077L8297 866H8301L8525 281H8657V995H8568V556Q8568 504 8570.5 453.0Q8573 402 8575 370H8571L8333 995ZM9287 459V995H9215L9202 924H9198Q9172 966 9126.0 985.5Q9080 1005 9028 1005Q8931 1005 8882.0 958.5Q8833 912 8833 810V459H8922V804Q8922 932 9041 932Q9130 932 9164.5 882.0Q9199 832 9199 738V459ZM9806 847Q9806 925 9748.0 965.0Q9690 1005 9592 1005Q9536 1005 9495.5 996.0Q9455 987 9424 971V891Q9456 907 9501.5 920.5Q9547 934 9594 934Q9661 934 9691.0 912.5Q9721 891 9721 855Q9721 835 9710.0 819.0Q9699 803 9670.5 787.0Q9642 771 9589 751Q9537 731 9500.0 711.0Q9463 691 9443.0 663.0Q9423 635 9423 591Q9423 523 9478.5 486.0Q9534 449 9624 449Q9673 449 9715.5 458.5Q9758 468 9795 485L9765 555Q9731 541 9694.0 531.0Q9657 521 9618 521Q9564 521 9535.5 538.5Q9507 556 9507 586Q9507 608 9520.0 623.5Q9533 639 9563.5 653.5Q9594 668 9645 688Q9696 707 9732.0 727.0Q9768 747 9787.0 775.5Q9806 804 9806 847ZM9981 258Q10001 258 10016.5 271.5Q10032 285 10032 314Q10032 342 10016.5 356.0Q10001 370 9981 370Q9959 370 9944.0 356.0Q9929 342 9929 314Q9929 285 9944.0 271.5Q9959 258 9981 258ZM10024 459V995H9936V459ZM10409 1005Q10338 1005 10282.5 976.0Q10227 947 10195.5 886.0Q10164 825 10164 730Q10164 631 10197.0 569.0Q10230 507 10286.5 478.0Q10343 449 10415 449Q10456 449 10494.0 457.5Q10532 466 10556 478L10529 551Q10505 542 10473.0 534.0Q10441 526 10413 526Q10255 526 10255 729Q10255 826 10293.5 877.5Q10332 929 10408 929Q10452 929 10485.5 920.0Q10519 911 10547 898V976Q10520 990 10487.5 997.5Q10455 1005 10409 1005ZM10877 450Q10975 450 11022.0 493.0Q11069 536 11069 630V995H11005L10988 919H10984Q10949 963 10910.5 984.0Q10872 1005 10804 1005Q10731 1005 10683.0 966.5Q10635 928 10635 846Q10635 766 10698.0 722.5Q10761 679 10892 675L10983 672V640Q10983 573 10954.0 547.0Q10925 521 10872 521Q10830 521 10792.0 533.5Q10754 546 10721 562L10694 496Q10729 477 10777.0 463.5Q10825 450 10877 450ZM10903 736Q10803 740 10764.5 768.0Q10726 796 10726 847Q10726 892 10753.5 913.0Q10781 934 10824 934Q10892 934 10937.0 896.5Q10982 859 10982 781V733ZM11323 995H11235V235H11323ZM12331 995H12226L11844 402H11840Q11842 437 11845.0 489.0Q11848 541 11848 596V995H11765V281H11869L12250 872H12254Q12253 856 12251.5 824.0Q12250 792 12248.5 754.0Q12247 716 12247 684V281H12331ZM12979 726Q12979 859 12911.5 932.0Q12844 1005 12729 1005Q12658 1005 12602.5 972.5Q12547 940 12515.0 877.5Q12483 815 12483 726Q12483 593 12550.0 521.0Q12617 449 12732 449Q12805 449 12860.5 481.5Q12916 514 12947.5 575.5Q12979 637 12979 726ZM12574 726Q12574 821 12611.5 876.5Q12649 932 12731 932Q12812 932 12850.0 876.5Q12888 821 12888 726Q12888 631 12850.0 577.0Q12812 523 12730 523Q12648 523 12611.0 577.0Q12574 631 12574 726ZM13297 933Q13317 933 13338.0 929.5Q13359 926 13372 922V989Q13358 996 13332.0 1000.5Q13306 1005 13282 1005Q13240 1005 13204.5 990.5Q13169 976 13147.0 940.0Q13125 904 13125 839V527H13049V485L13126 450L13161 336H13213V459H13368V527H13213V837Q13213 886 13236.5 909.5Q13260 933 13297 933ZM13682 450Q13780 450 13827.0 493.0Q13874 536 13874 630V995H13810L13793 919H13789Q13754 963 13715.5 984.0Q13677 1005 13609 1005Q13536 1005 13488.0 966.5Q13440 928 13440 846Q13440 766 13503.0 722.5Q13566 679 13697 675L13788 672V640Q13788 573 13759.0 547.0Q13730 521 13677 521Q13635 521 13597.0 533.5Q13559 546 13526 562L13499 496Q13534 477 13582.0 463.5Q13630 450 13682 450ZM13708 736Q13608 740 13569.5 768.0Q13531 796 13531 847Q13531 892 13558.5 913.0Q13586 934 13629 934Q13697 934 13742.0 896.5Q13787 859 13787 781V733ZM14219 933Q14239 933 14260.0 929.5Q14281 926 14294 922V989Q14280 996 14254.0 1000.5Q14228 1005 14204 1005Q14162 1005 14126.5 990.5Q14091 976 14069.0 940.0Q14047 904 14047 839V527H13971V485L14048 450L14083 336H14135V459H14290V527H14135V837Q14135 886 14158.5 909.5Q14182 933 14219 933ZM14446 258Q14466 258 14481.5 271.5Q14497 285 14497 314Q14497 342 14481.5 356.0Q14466 370 14446 370Q14424 370 14409.0 356.0Q14394 342 14394 314Q14394 285 14409.0 271.5Q14424 258 14446 258ZM14489 459V995H14401V459ZM15125 726Q15125 859 15057.5 932.0Q14990 1005 14875 1005Q14804 1005 14748.5 972.5Q14693 940 14661.0 877.5Q14629 815 14629 726Q14629 593 14696.0 521.0Q14763 449 14878 449Q14951 449 15006.5 481.5Q15062 514 15093.5 575.5Q15125 637 15125 726ZM14720 726Q14720 821 14757.5 876.5Q14795 932 14877 932Q14958 932 14996.0 876.5Q15034 821 15034 726Q15034 631 14996.0 577.0Q14958 523 14876 523Q14794 523 14757.0 577.0Q14720 631 14720 726ZM15522 449Q15618 449 15667.0 495.5Q15716 542 15716 646V995H15629V652Q15629 523 15509 523Q15420 523 15386.0 573.0Q15352 623 15352 717V995H15264V459H15335L15348 532H15353Q15379 490 15425.0 469.5Q15471 449 15522 449Z" fill="currentColor" /></svg>