<svg viewBox="0 0 9276 977" xmlns="http://www.w3.org/2000/svg"><path d="M566 737H461L79 144H75Q77 179 80.0 231.0Q83 283 83 338V737H0V23H104L485 614H489Q488 598 486.5 566.0Q485 534 483.5 496.0Q482 458 482 426V23H566ZM1214 468Q1214 601 1146.5 674.0Q1079 747 964 747Q893 747 837.5 714.5Q782 682 750.0 619.5Q718 557 718 468Q718 335 785.0 263.0Q852 191 967 191Q1040 191 1095.5 223.5Q1151 256 1182.5 317.5Q1214 379 1214 468ZM809 468Q809 563 846.5 618.5Q884 674 966 674Q1047 674 1085.0 618.5Q1123 563 1123 468Q1123 373 1085.0 319.0Q1047 265 965 265Q883 265 846.0 319.0Q809 373 809 468ZM1532 675Q1552 675 1573.0 671.5Q1594 668 1607 664V731Q1593 738 1567.0 742.5Q1541 747 1517 747Q1475 747 1439.5 732.5Q1404 718 1382.0 682.0Q1360 646 1360 581V269H1284V227L1361 192L1396 78H1448V201H1603V269H1448V579Q1448 628 1471.5 651.5Q1495 675 1532 675ZM2180 468Q2180 601 2112.5 674.0Q2045 747 1930 747Q1859 747 1803.5 714.5Q1748 682 1716.0 619.5Q1684 557 1684 468Q1684 335 1751.0 263.0Q1818 191 1933 191Q2006 191 2061.5 223.5Q2117 256 2148.5 317.5Q2180 379 2180 468ZM1775 468Q1775 563 1812.5 618.5Q1850 674 1932 674Q2013 674 2051.0 618.5Q2089 563 2089 468Q2089 373 2051.0 319.0Q2013 265 1931 265Q1849 265 1812.0 319.0Q1775 373 1775 468ZM2996 546Q2996 641 2927.0 694.0Q2858 747 2741 747Q2681 747 2630.0 738.0Q2579 729 2545 713V627Q2581 643 2634.5 656.0Q2688 669 2745 669Q2825 669 2865.5 638.0Q2906 607 2906 554Q2906 519 2891.0 495.0Q2876 471 2839.5 450.5Q2803 430 2738 407Q2647 374 2600.5 326.0Q2554 278 2554 195Q2554 138 2583.0 97.5Q2612 57 2663.5 35.0Q2715 13 2782 13Q2841 13 2890.0 24.0Q2939 35 2979 53L2951 130Q2914 114 2870.5 103.0Q2827 92 2780 92Q2713 92 2679.0 120.5Q2645 149 2645 196Q2645 232 2660.0 256.0Q2675 280 2709.0 299.0Q2743 318 2801 340Q2864 363 2907.5 389.5Q2951 416 2973.5 453.0Q2996 490 2996 546ZM3331 192Q3429 192 3476.0 235.0Q3523 278 3523 372V737H3459L3442 661H3438Q3403 705 3364.5 726.0Q3326 747 3258 747Q3185 747 3137.0 708.5Q3089 670 3089 588Q3089 508 3152.0 464.5Q3215 421 3346 417L3437 414V382Q3437 315 3408.0 289.0Q3379 263 3326 263Q3284 263 3246.0 275.5Q3208 288 3175 304L3148 238Q3183 219 3231.0 205.5Q3279 192 3331 192ZM3357 478Q3257 482 3218.5 510.0Q3180 538 3180 589Q3180 634 3207.5 655.0Q3235 676 3278 676Q3346 676 3391.0 638.5Q3436 601 3436 523V475ZM3947 191Q4043 191 4092.0 237.5Q4141 284 4141 388V737H4054V394Q4054 265 3934 265Q3845 265 3811.0 315.0Q3777 365 3777 459V737H3689V201H3760L3773 274H3778Q3804 232 3850.0 211.5Q3896 191 3947 191ZM4656 589Q4656 667 4598.0 707.0Q4540 747 4442 747Q4386 747 4345.5 738.0Q4305 729 4274 713V633Q4306 649 4351.5 662.5Q4397 676 4444 676Q4511 676 4541.0 654.5Q4571 633 4571 597Q4571 577 4560.0 561.0Q4549 545 4520.5 529.0Q4492 513 4439 493Q4387 473 4350.0 453.0Q4313 433 4293.0 405.0Q4273 377 4273 333Q4273 265 4328.5 228.0Q4384 191 4474 191Q4523 191 4565.5 200.5Q4608 210 4645 227L4615 297Q4581 283 4544.0 273.0Q4507 263 4468 263Q4414 263 4385.5 280.5Q4357 298 4357 328Q4357 350 4370.0 365.5Q4383 381 4413.5 395.5Q4444 410 4495 430Q4546 449 4582.0 469.0Q4618 489 4637.0 517.5Q4656 546 4656 589ZM5262 23Q5396 23 5464.5 62.5Q5533 102 5533 200Q5533 263 5498.0 304.5Q5463 346 5397 358V363Q5442 370 5478.5 389.0Q5515 408 5536.0 443.0Q5557 478 5557 534Q5557 631 5490.5 684.0Q5424 737 5309 737H5058V23ZM5280 327Q5372 327 5406.0 297.5Q5440 268 5440 210Q5440 151 5398.5 125.5Q5357 100 5266 100H5148V327ZM5148 402V661H5292Q5387 661 5424.0 624.0Q5461 587 5461 527Q5461 471 5422.5 436.5Q5384 402 5285 402ZM6144 201V737H6072L6059 666H6055Q6029 708 5983.0 727.5Q5937 747 5885 747Q5788 747 5739.0 700.5Q5690 654 5690 552V201H5779V546Q5779 674 5898 674Q5987 674 6021.5 624.0Q6056 574 6056 480V201ZM6504 191Q6557 191 6599.5 211.0Q6642 231 6672 272H6677L6689 201H6759V746Q6759 861 6700.5 919.0Q6642 977 6519 977Q6401 977 6326 943V862Q6405 904 6524 904Q6593 904 6632.5 863.5Q6672 823 6672 753V732Q6672 720 6673.0 697.5Q6674 675 6675 666H6671Q6617 747 6505 747Q6401 747 6342.5 674.0Q6284 601 6284 470Q6284 342 6342.5 266.5Q6401 191 6504 191ZM6516 265Q6449 265 6412.0 318.5Q6375 372 6375 471Q6375 570 6411.5 622.5Q6448 675 6518 675Q6599 675 6636.0 631.5Q6673 588 6673 491V470Q6673 360 6635.0 312.5Q6597 265 6516 265ZM6974 0Q6994 0 7009.5 13.5Q7025 27 7025 56Q7025 84 7009.5 98.0Q6994 112 6974 112Q6952 112 6937.0 98.0Q6922 84 6922 56Q6922 27 6937.0 13.5Q6952 0 6974 0ZM7017 201V737H6929V201ZM7445 191Q7541 191 7590.0 237.5Q7639 284 7639 388V737H7552V394Q7552 265 7432 265Q7343 265 7309.0 315.0Q7275 365 7275 459V737H7187V201H7258L7271 274H7276Q7302 232 7348.0 211.5Q7394 191 7445 191ZM8012 191Q8081 191 8130.5 221.0Q8180 251 8206.5 305.5Q8233 360 8233 433V486H7866Q7868 577 7912.5 624.5Q7957 672 8037 672Q8088 672 8127.5 662.5Q8167 653 8209 635V712Q8168 730 8128.0 738.5Q8088 747 8033 747Q7957 747 7898.5 716.0Q7840 685 7807.5 623.5Q7775 562 7775 473Q7775 385 7804.5 322.0Q7834 259 7887.5 225.0Q7941 191 8012 191ZM8011 263Q7948 263 7911.5 303.5Q7875 344 7868 416H8141Q8140 348 8109.0 305.5Q8078 263 8011 263ZM8718 589Q8718 667 8660.0 707.0Q8602 747 8504 747Q8448 747 8407.5 738.0Q8367 729 8336 713V633Q8368 649 8413.5 662.5Q8459 676 8506 676Q8573 676 8603.0 654.5Q8633 633 8633 597Q8633 577 8622.0 561.0Q8611 545 8582.5 529.0Q8554 513 8501 493Q8449 473 8412.0 453.0Q8375 433 8355.0 405.0Q8335 377 8335 333Q8335 265 8390.5 228.0Q8446 191 8536 191Q8585 191 8627.5 200.5Q8670 210 8707 227L8677 297Q8643 283 8606.0 273.0Q8569 263 8530 263Q8476 263 8447.5 280.5Q8419 298 8419 328Q8419 350 8432.0 365.5Q8445 381 8475.5 395.5Q8506 410 8557 430Q8608 449 8644.0 469.0Q8680 489 8699.0 517.5Q8718 546 8718 589ZM9055 191Q9124 191 9173.5 221.0Q9223 251 9249.5 305.5Q9276 360 9276 433V486H8909Q8911 577 8955.5 624.5Q9000 672 9080 672Q9131 672 9170.5 662.5Q9210 653 9252 635V712Q9211 730 9171.0 738.5Q9131 747 9076 747Q9000 747 8941.5 716.0Q8883 685 8850.5 623.5Q8818 562 8818 473Q8818 385 8847.5 322.0Q8877 259 8930.5 225.0Q8984 191 9055 191ZM9054 263Q8991 263 8954.5 303.5Q8918 344 8911 416H9184Q9183 348 9152.0 305.5Q9121 263 9054 263Z" fill="currentColor" /></svg>