<svg viewBox="0 0 8355 770" xmlns="http://www.w3.org/2000/svg"><path d="M566 760H461L79 167H75Q77 190 78.5 221.5Q80 253 81.5 288.5Q83 324 83 361V760H0V46H104L485 637H489Q488 621 486.5 589.0Q485 557 483.5 519.0Q482 481 482 449V46H566ZM1214 491Q1214 580 1183.5 642.5Q1153 705 1097.0 737.5Q1041 770 964 770Q893 770 837.5 737.5Q782 705 750.0 642.5Q718 580 718 491Q718 358 785.0 286.0Q852 214 967 214Q1040 214 1095.5 246.5Q1151 279 1182.5 340.5Q1214 402 1214 491ZM809 491Q809 554 825.5 600.5Q842 647 877.0 672.0Q912 697 966 697Q1020 697 1055.0 672.0Q1090 647 1106.5 600.5Q1123 554 1123 491Q1123 427 1106.0 382.0Q1089 337 1054.5 312.5Q1020 288 965 288Q883 288 846.0 342.0Q809 396 809 491ZM1532 698Q1552 698 1573.0 694.5Q1594 691 1607 687V754Q1593 761 1567.0 765.5Q1541 770 1517 770Q1475 770 1439.5 755.5Q1404 741 1382.0 705.0Q1360 669 1360 604V292H1284V250L1361 215L1396 101H1448V224H1603V292H1448V602Q1448 651 1471.5 674.5Q1495 698 1532 698ZM2180 491Q2180 580 2149.5 642.5Q2119 705 2063.0 737.5Q2007 770 1930 770Q1859 770 1803.5 737.5Q1748 705 1716.0 642.5Q1684 580 1684 491Q1684 358 1751.0 286.0Q1818 214 1933 214Q2006 214 2061.5 246.5Q2117 279 2148.5 340.5Q2180 402 2180 491ZM1775 491Q1775 554 1791.5 600.5Q1808 647 1843.0 672.0Q1878 697 1932 697Q1986 697 2021.0 672.0Q2056 647 2072.5 600.5Q2089 554 2089 491Q2089 427 2072.0 382.0Q2055 337 2020.5 312.5Q1986 288 1931 288Q1849 288 1812.0 342.0Q1775 396 1775 491ZM2996 569Q2996 633 2965.0 677.5Q2934 722 2876.5 746.0Q2819 770 2741 770Q2701 770 2664.5 766.0Q2628 762 2598.0 754.5Q2568 747 2545 736V650Q2581 666 2634.5 679.0Q2688 692 2745 692Q2798 692 2834.0 678.0Q2870 664 2888.0 638.0Q2906 612 2906 577Q2906 542 2891.0 518.0Q2876 494 2839.5 473.5Q2803 453 2738 430Q2692 413 2657.5 393.5Q2623 374 2600.0 349.0Q2577 324 2565.5 292.0Q2554 260 2554 218Q2554 161 2583.0 120.5Q2612 80 2663.5 58.0Q2715 36 2782 36Q2841 36 2890.0 47.0Q2939 58 2979 76L2951 153Q2914 137 2870.5 126.0Q2827 115 2780 115Q2735 115 2705.0 128.0Q2675 141 2660.0 164.5Q2645 188 2645 219Q2645 255 2660.0 279.0Q2675 303 2709.0 322.0Q2743 341 2801 363Q2864 386 2907.5 412.5Q2951 439 2973.5 476.0Q2996 513 2996 569ZM3331 215Q3429 215 3476.0 258.0Q3523 301 3523 395V760H3459L3442 684H3438Q3415 713 3390.5 732.5Q3366 752 3334.5 761.0Q3303 770 3258 770Q3185 770 3137.0 731.5Q3089 693 3089 611Q3089 531 3152.0 487.5Q3215 444 3346 440L3437 437V405Q3437 338 3408.0 312.0Q3379 286 3326 286Q3284 286 3246.0 298.5Q3208 311 3175 327L3148 261Q3183 242 3231.0 228.5Q3279 215 3331 215ZM3357 501Q3257 505 3218.5 533.0Q3180 561 3180 612Q3180 657 3207.5 678.0Q3235 699 3278 699Q3346 699 3391.0 661.5Q3436 624 3436 546V498ZM3947 214Q4043 214 4092.0 260.5Q4141 307 4141 411V760H4054V417Q4054 352 4025.0 320.0Q3996 288 3934 288Q3845 288 3811.0 338.0Q3777 388 3777 482V760H3689V224H3760L3773 297H3778Q3796 269 3822.5 250.5Q3849 232 3881.0 223.0Q3913 214 3947 214ZM4656 612Q4656 664 4630.0 699.0Q4604 734 4556.0 752.0Q4508 770 4442 770Q4386 770 4345.5 761.0Q4305 752 4274 736V656Q4306 672 4351.5 685.5Q4397 699 4444 699Q4511 699 4541.0 677.5Q4571 656 4571 620Q4571 600 4560.0 584.0Q4549 568 4520.5 552.0Q4492 536 4439 516Q4387 496 4350.0 476.0Q4313 456 4293.0 428.0Q4273 400 4273 356Q4273 288 4328.5 251.0Q4384 214 4474 214Q4523 214 4565.5 223.5Q4608 233 4645 250L4615 320Q4581 306 4544.0 296.0Q4507 286 4468 286Q4414 286 4385.5 303.5Q4357 321 4357 351Q4357 373 4370.0 388.5Q4383 404 4413.5 418.5Q4444 433 4495 453Q4546 472 4582.0 492.0Q4618 512 4637.0 540.5Q4656 569 4656 612ZM5284 760H5194V125H4971V46H5506V125H5284ZM5690 223Q5690 242 5688.5 262.0Q5687 282 5685 298H5691Q5708 270 5734.0 252.0Q5760 234 5792.0 224.5Q5824 215 5858 215Q5923 215 5966.5 235.5Q6010 256 6032.0 299.0Q6054 342 6054 411V760H5967V417Q5967 352 5938.0 320.0Q5909 288 5847 288Q5757 288 5723.5 338.5Q5690 389 5690 483V760H5602V0H5690ZM6423 215Q6521 215 6568.0 258.0Q6615 301 6615 395V760H6551L6534 684H6530Q6507 713 6482.5 732.5Q6458 752 6426.5 761.0Q6395 770 6350 770Q6277 770 6229.0 731.5Q6181 693 6181 611Q6181 531 6244.0 487.5Q6307 444 6438 440L6529 437V405Q6529 338 6500.0 312.0Q6471 286 6418 286Q6376 286 6338.0 298.5Q6300 311 6267 327L6240 261Q6275 242 6323.0 228.5Q6371 215 6423 215ZM6449 501Q6349 505 6310.5 533.0Q6272 561 6272 612Q6272 657 6299.5 678.0Q6327 699 6370 699Q6438 699 6483.0 661.5Q6528 624 6528 546V498ZM6984 215Q7082 215 7129.0 258.0Q7176 301 7176 395V760H7112L7095 684H7091Q7068 713 7043.5 732.5Q7019 752 6987.5 761.0Q6956 770 6911 770Q6838 770 6790.0 731.5Q6742 693 6742 611Q6742 531 6805.0 487.5Q6868 444 6999 440L7090 437V405Q7090 338 7061.0 312.0Q7032 286 6979 286Q6937 286 6899.0 298.5Q6861 311 6828 327L6801 261Q6836 242 6884.0 228.5Q6932 215 6984 215ZM7010 501Q6910 505 6871.5 533.0Q6833 561 6833 612Q6833 657 6860.5 678.0Q6888 699 6931 699Q6999 699 7044.0 661.5Q7089 624 7089 546V498ZM7600 214Q7696 214 7745.0 260.5Q7794 307 7794 411V760H7707V417Q7707 352 7678.0 320.0Q7649 288 7587 288Q7498 288 7464.0 338.0Q7430 388 7430 482V760H7342V224H7413L7426 297H7431Q7449 269 7475.5 250.5Q7502 232 7534.0 223.0Q7566 214 7600 214ZM8163 215Q8261 215 8308.0 258.0Q8355 301 8355 395V760H8291L8274 684H8270Q8247 713 8222.5 732.5Q8198 752 8166.5 761.0Q8135 770 8090 770Q8017 770 7969.0 731.5Q7921 693 7921 611Q7921 531 7984.0 487.5Q8047 444 8178 440L8269 437V405Q8269 338 8240.0 312.0Q8211 286 8158 286Q8116 286 8078.0 298.5Q8040 311 8007 327L7980 261Q8015 242 8063.0 228.5Q8111 215 8163 215ZM8189 501Q8089 505 8050.5 533.0Q8012 561 8012 612Q8012 657 8039.5 678.0Q8067 699 8110 699Q8178 699 8223.0 661.5Q8268 624 8268 546V498Z" fill="currentColor" /></svg>