<svg viewBox="0 0 8916 1380" xmlns="http://www.w3.org/2000/svg"><path d="M663 925H558L176 332H172Q174 367 177.0 419.0Q180 471 180 526V925H97V211H201L582 802H586Q585 786 583.5 754.0Q582 722 580.5 684.0Q579 646 579 614V211H663ZM1311 656Q1311 789 1243.5 862.0Q1176 935 1061 935Q990 935 934.5 902.5Q879 870 847.0 807.5Q815 745 815 656Q815 523 882.0 451.0Q949 379 1064 379Q1137 379 1192.5 411.5Q1248 444 1279.5 505.5Q1311 567 1311 656ZM906 656Q906 751 943.5 806.5Q981 862 1063 862Q1144 862 1182.0 806.5Q1220 751 1220 656Q1220 561 1182.0 507.0Q1144 453 1062 453Q980 453 943.0 507.0Q906 561 906 656ZM1629 863Q1649 863 1670.0 859.5Q1691 856 1704 852V919Q1690 926 1664.0 930.5Q1638 935 1614 935Q1572 935 1536.5 920.5Q1501 906 1479.0 870.0Q1457 834 1457 769V457H1381V415L1458 380L1493 266H1545V389H1700V457H1545V767Q1545 816 1568.5 839.5Q1592 863 1629 863ZM2277 656Q2277 789 2209.5 862.0Q2142 935 2027 935Q1956 935 1900.5 902.5Q1845 870 1813.0 807.5Q1781 745 1781 656Q1781 523 1848.0 451.0Q1915 379 2030 379Q2103 379 2158.5 411.5Q2214 444 2245.5 505.5Q2277 567 2277 656ZM1872 656Q1872 751 1909.5 806.5Q1947 862 2029 862Q2110 862 2148.0 806.5Q2186 751 2186 656Q2186 561 2148.0 507.0Q2110 453 2028 453Q1946 453 1909.0 507.0Q1872 561 1872 656ZM3093 734Q3093 829 3024.0 882.0Q2955 935 2838 935Q2778 935 2727.0 926.0Q2676 917 2642 901V815Q2678 831 2731.5 844.0Q2785 857 2842 857Q2922 857 2962.5 826.0Q3003 795 3003 742Q3003 707 2988.0 683.0Q2973 659 2936.5 638.5Q2900 618 2835 595Q2744 562 2697.5 514.0Q2651 466 2651 383Q2651 326 2680.0 285.5Q2709 245 2760.5 223.0Q2812 201 2879 201Q2938 201 2987.0 212.0Q3036 223 3076 241L3048 318Q3011 302 2967.5 291.0Q2924 280 2877 280Q2810 280 2776.0 308.5Q2742 337 2742 384Q2742 420 2757.0 444.0Q2772 468 2806.0 487.0Q2840 506 2898 528Q2961 551 3004.5 577.5Q3048 604 3070.5 641.0Q3093 678 3093 734ZM3428 380Q3526 380 3573.0 423.0Q3620 466 3620 560V925H3556L3539 849H3535Q3500 893 3461.5 914.0Q3423 935 3355 935Q3282 935 3234.0 896.5Q3186 858 3186 776Q3186 696 3249.0 652.5Q3312 609 3443 605L3534 602V570Q3534 503 3505.0 477.0Q3476 451 3423 451Q3381 451 3343.0 463.5Q3305 476 3272 492L3245 426Q3280 407 3328.0 393.5Q3376 380 3428 380ZM3454 666Q3354 670 3315.5 698.0Q3277 726 3277 777Q3277 822 3304.5 843.0Q3332 864 3375 864Q3443 864 3488.0 826.5Q3533 789 3533 711V663ZM4044 379Q4140 379 4189.0 425.5Q4238 472 4238 576V925H4151V582Q4151 453 4031 453Q3942 453 3908.0 503.0Q3874 553 3874 647V925H3786V389H3857L3870 462H3875Q3901 420 3947.0 399.5Q3993 379 4044 379ZM4753 777Q4753 855 4695.0 895.0Q4637 935 4539 935Q4483 935 4442.5 926.0Q4402 917 4371 901V821Q4403 837 4448.5 850.5Q4494 864 4541 864Q4608 864 4638.0 842.5Q4668 821 4668 785Q4668 765 4657.0 749.0Q4646 733 4617.5 717.0Q4589 701 4536 681Q4484 661 4447.0 641.0Q4410 621 4390.0 593.0Q4370 565 4370 521Q4370 453 4425.5 416.0Q4481 379 4571 379Q4620 379 4662.5 388.5Q4705 398 4742 415L4712 485Q4678 471 4641.0 461.0Q4604 451 4565 451Q4511 451 4482.5 468.5Q4454 486 4454 516Q4454 538 4467.0 553.5Q4480 569 4510.5 583.5Q4541 598 4592 618Q4643 637 4679.0 657.0Q4715 677 4734.0 705.5Q4753 734 4753 777ZM5560 734Q5560 829 5491.0 882.0Q5422 935 5305 935Q5245 935 5194.0 926.0Q5143 917 5109 901V815Q5145 831 5198.5 844.0Q5252 857 5309 857Q5389 857 5429.5 826.0Q5470 795 5470 742Q5470 707 5455.0 683.0Q5440 659 5403.5 638.5Q5367 618 5302 595Q5211 562 5164.5 514.0Q5118 466 5118 383Q5118 326 5147.0 285.5Q5176 245 5227.5 223.0Q5279 201 5346 201Q5405 201 5454.0 212.0Q5503 223 5543 241L5515 318Q5478 302 5434.5 291.0Q5391 280 5344 280Q5277 280 5243.0 308.5Q5209 337 5209 384Q5209 420 5224.0 444.0Q5239 468 5273.0 487.0Q5307 506 5365 528Q5428 551 5471.5 577.5Q5515 604 5537.5 641.0Q5560 678 5560 734ZM5780 388Q5780 428 5775 463H5781Q5807 422 5851.5 401.0Q5896 380 5948 380Q6046 380 6095.0 426.5Q6144 473 6144 576V925H6057V582Q6057 453 5937 453Q5847 453 5813.5 503.5Q5780 554 5780 648V925H5692V165H5780ZM6513 380Q6611 380 6658.0 423.0Q6705 466 6705 560V925H6641L6624 849H6620Q6585 893 6546.5 914.0Q6508 935 6440 935Q6367 935 6319.0 896.5Q6271 858 6271 776Q6271 696 6334.0 652.5Q6397 609 6528 605L6619 602V570Q6619 503 6590.0 477.0Q6561 451 6508 451Q6466 451 6428.0 463.5Q6390 476 6357 492L6330 426Q6365 407 6413.0 393.5Q6461 380 6513 380ZM6539 666Q6439 670 6400.5 698.0Q6362 726 6362 777Q6362 822 6389.5 843.0Q6417 864 6460 864Q6528 864 6573.0 826.5Q6618 789 6618 711V663ZM7121 379Q7136 379 7153.5 380.5Q7171 382 7184 385L7173 466Q7160 463 7144.5 461.0Q7129 459 7115 459Q7074 459 7038.0 481.5Q7002 504 6980.5 544.5Q6959 585 6959 639V925H6871V389H6943L6953 487H6957Q6983 443 7024.0 411.0Q7065 379 7121 379ZM7467 380Q7565 380 7612.0 423.0Q7659 466 7659 560V925H7595L7578 849H7574Q7539 893 7500.5 914.0Q7462 935 7394 935Q7321 935 7273.0 896.5Q7225 858 7225 776Q7225 696 7288.0 652.5Q7351 609 7482 605L7573 602V570Q7573 503 7544.0 477.0Q7515 451 7462 451Q7420 451 7382.0 463.5Q7344 476 7311 492L7284 426Q7319 407 7367.0 393.5Q7415 380 7467 380ZM7493 666Q7393 670 7354.5 698.0Q7316 726 7316 777Q7316 822 7343.5 843.0Q7371 864 7414 864Q7482 864 7527.0 826.5Q7572 789 7572 711V663ZM8015 935Q7915 935 7855.0 865.5Q7795 796 7795 658Q7795 520 7855.5 449.5Q7916 379 8016 379Q8078 379 8117.5 402.0Q8157 425 8182 458H8188Q8187 445 8184.5 419.5Q8182 394 8182 379V165H8270V925H8199L8186 853H8182Q8158 887 8118.0 911.0Q8078 935 8015 935ZM8029 862Q8114 862 8148.5 815.5Q8183 769 8183 675V659Q8183 559 8150.0 505.5Q8117 452 8028 452Q7957 452 7921.5 508.5Q7886 565 7886 660Q7886 756 7921.5 809.0Q7957 862 8029 862ZM8643 380Q8741 380 8788.0 423.0Q8835 466 8835 560V925H8771L8754 849H8750Q8715 893 8676.5 914.0Q8638 935 8570 935Q8497 935 8449.0 896.5Q8401 858 8401 776Q8401 696 8464.0 652.5Q8527 609 8658 605L8749 602V570Q8749 503 8720.0 477.0Q8691 451 8638 451Q8596 451 8558.0 463.5Q8520 476 8487 492L8460 426Q8495 407 8543.0 393.5Q8591 380 8643 380ZM8669 666Q8569 670 8530.5 698.0Q8492 726 8492 777Q8492 822 8519.5 843.0Q8547 864 8590 864Q8658 864 8703.0 826.5Q8748 789 8748 711V663Z" fill="currentColor" /></svg>