<svg viewBox="0 0 12014 1010" xmlns="http://www.w3.org/2000/svg"><path d="M0 770V728H13Q47 728 71.0 715.5Q95 703 95 656V166Q95 122 70.5 110.0Q46 98 13 98H0V56H183L541 609V166Q541 122 516.5 110.0Q492 98 459 98H446V56H697V98H684Q650 98 626.0 110.5Q602 123 602 170V770H531L156 194V656Q156 703 180.0 715.5Q204 728 238 728H251V770ZM1012 780Q904 780 842.0 711.0Q780 642 780 501Q780 361 839.5 292.5Q899 224 1015 224Q1123 224 1185.0 292.5Q1247 361 1247 501Q1247 642 1187.5 711.0Q1128 780 1012 780ZM1014 728Q1089 728 1119.5 670.5Q1150 613 1150 501Q1150 389 1119.0 333.0Q1088 277 1013 277Q938 277 907.5 333.0Q877 389 877 501Q877 613 908.0 670.5Q939 728 1014 728ZM1542 780Q1466 780 1431.5 745.5Q1397 711 1397 625V291H1321V251Q1339 251 1361.0 243.5Q1383 236 1399 219Q1416 201 1427.0 175.0Q1438 149 1445 111H1491V234H1622V291H1491V628Q1491 679 1512.0 703.0Q1533 727 1567 727Q1585 727 1600.0 725.0Q1615 723 1631 720V764Q1618 770 1592.0 775.0Q1566 780 1542 780ZM1941 780Q1833 780 1771.0 711.0Q1709 642 1709 501Q1709 361 1768.5 292.5Q1828 224 1944 224Q2052 224 2114.0 292.5Q2176 361 2176 501Q2176 642 2116.5 711.0Q2057 780 1941 780ZM1943 728Q2018 728 2048.5 670.5Q2079 613 2079 501Q2079 389 2048.0 333.0Q2017 277 1942 277Q1867 277 1836.5 333.0Q1806 389 1806 501Q1806 613 1837.0 670.5Q1868 728 1943 728ZM2738 780Q2640 780 2589.5 741.0Q2539 702 2539 639Q2539 609 2558.0 590.5Q2577 572 2611 572Q2613 613 2627.0 649.5Q2641 686 2670.0 708.5Q2699 731 2746 731Q2813 731 2851.0 698.5Q2889 666 2889 605Q2889 568 2874.5 542.5Q2860 517 2826.5 495.0Q2793 473 2734 449Q2641 411 2595.5 360.0Q2550 309 2550 227Q2550 170 2578.5 129.5Q2607 89 2656.5 67.5Q2706 46 2769 46Q2858 46 2907.0 80.0Q2956 114 2956 158Q2956 190 2934.5 206.5Q2913 223 2877 223Q2877 192 2866.5 163.0Q2856 134 2831.5 115.0Q2807 96 2765 96Q2707 96 2675.0 127.0Q2643 158 2643 210Q2643 250 2657.5 277.5Q2672 305 2706.0 326.5Q2740 348 2798 372Q2886 408 2935.0 455.0Q2984 502 2984 579Q2984 674 2917.5 727.0Q2851 780 2738 780ZM3322 780Q3213 780 3151.5 708.0Q3090 636 3090 506Q3090 366 3148.0 295.0Q3206 224 3312 224Q3409 224 3464.5 284.0Q3520 344 3520 463V509H3187Q3189 618 3226.5 667.5Q3264 717 3336 717Q3388 717 3424.5 695.5Q3461 674 3479 647Q3486 650 3492.0 659.0Q3498 668 3498 681Q3498 701 3479.0 724.0Q3460 747 3421.0 763.5Q3382 780 3322 780ZM3419 455Q3419 375 3394.5 326.5Q3370 278 3310 278Q3255 278 3224.5 323.5Q3194 369 3189 455ZM3603 770V728H3606Q3640 728 3664.0 715.5Q3688 703 3688 656V344Q3688 300 3663.5 288.0Q3639 276 3606 276H3603V234H3757L3776 333H3781Q3794 303 3809.0 278.0Q3824 253 3849.0 238.5Q3874 224 3918 224Q3973 224 3999.5 243.0Q4026 262 4026 297Q4026 328 4004.5 348.0Q3983 368 3933 368Q3933 327 3921.0 308.5Q3909 290 3880 290Q3852 290 3833.0 312.0Q3814 334 3803.0 368.0Q3792 402 3787.0 438.5Q3782 475 3782 504V661Q3782 705 3806.5 716.5Q3831 728 3864 728H3892V770ZM4202 134Q4178 134 4161.5 120.0Q4145 106 4145 72Q4145 37 4161.5 23.5Q4178 10 4202 10Q4225 10 4242.0 23.5Q4259 37 4259 72Q4259 106 4242.0 120.0Q4225 134 4202 134ZM4064 770V728H4077Q4110 728 4134.5 716.5Q4159 705 4159 661V344Q4159 300 4134.5 288.0Q4110 276 4077 276H4074V234H4253V656Q4253 703 4277.0 715.5Q4301 728 4335 728H4348V770ZM4388 770V728H4401Q4435 728 4459.0 715.5Q4483 703 4483 656V281H4392V234H4483V184Q4483 95 4530.5 47.5Q4578 0 4660 0Q4738 0 4769.0 19.5Q4800 39 4800 70Q4800 97 4777.0 111.5Q4754 126 4718 126Q4718 96 4704.0 71.0Q4690 46 4652 46Q4609 46 4593.0 79.0Q4577 112 4577 175V234H4718V281H4577V656Q4577 703 4601.0 715.5Q4625 728 4659 728H4697V770ZM5361 780Q5255 780 5185.0 734.0Q5115 688 5080.5 605.0Q5046 522 5046 411Q5046 300 5080.5 218.0Q5115 136 5185.5 90.5Q5256 45 5362 45Q5463 45 5532.5 90.5Q5602 136 5638.5 218.5Q5675 301 5675 412Q5675 523 5638.5 605.5Q5602 688 5532.0 734.0Q5462 780 5361 780ZM5361 726Q5473 726 5518.5 643.0Q5564 560 5564 412Q5564 263 5518.5 181.0Q5473 99 5362 99Q5250 99 5203.5 181.0Q5157 263 5157 412Q5157 560 5203.5 643.0Q5250 726 5361 726ZM5972 780Q5896 780 5861.5 745.5Q5827 711 5827 625V291H5751V251Q5769 251 5791.0 243.5Q5813 236 5829 219Q5846 201 5857.0 175.0Q5868 149 5875 111H5921V234H6052V291H5921V628Q5921 679 5942.0 703.0Q5963 727 5997 727Q6015 727 6030.0 725.0Q6045 723 6061 720V764Q6048 770 6022.0 775.0Q5996 780 5972 780ZM6324 780Q6248 780 6213.5 745.5Q6179 711 6179 625V291H6103V251Q6121 251 6143.0 243.5Q6165 236 6181 219Q6198 201 6209.0 175.0Q6220 149 6227 111H6273V234H6404V291H6273V628Q6273 679 6294.0 703.0Q6315 727 6349 727Q6367 727 6382.0 725.0Q6397 723 6413 720V764Q6400 770 6374.0 775.0Q6348 780 6324 780ZM6723 780Q6615 780 6553.0 711.0Q6491 642 6491 501Q6491 361 6550.5 292.5Q6610 224 6726 224Q6834 224 6896.0 292.5Q6958 361 6958 501Q6958 642 6898.5 711.0Q6839 780 6723 780ZM6725 728Q6800 728 6830.5 670.5Q6861 613 6861 501Q6861 389 6830.0 333.0Q6799 277 6724 277Q6649 277 6618.5 333.0Q6588 389 6588 501Q6588 613 6619.0 670.5Q6650 728 6725 728ZM7041 770V728H7054Q7088 728 7109.5 715.5Q7131 703 7131 656V344Q7131 300 7109.0 288.0Q7087 276 7054 276H7051V234H7208L7221 315H7226Q7256 259 7293.5 241.5Q7331 224 7377 224Q7425 224 7464.0 244.5Q7503 265 7522 315H7530Q7560 259 7600.5 241.5Q7641 224 7687 224Q7764 224 7807.0 270.5Q7850 317 7850 420V656Q7850 703 7871.5 715.5Q7893 728 7927 728H7930V770H7756V425Q7756 360 7732.5 324.0Q7709 288 7651 288Q7610 288 7585.5 308.5Q7561 329 7550.5 363.0Q7540 397 7540 437V656Q7540 703 7561.5 715.5Q7583 728 7617 728H7620V770H7446V425Q7446 360 7422.5 324.0Q7399 288 7341 288Q7298 288 7272.5 310.5Q7247 333 7236.0 370.0Q7225 407 7225 450V661Q7225 705 7249.5 716.5Q7274 728 7307 728H7310V770ZM8163 780Q8096 780 8052.0 741.0Q8008 702 8008 620Q8008 540 8064.5 502.0Q8121 464 8236 460L8319 457V397Q8319 361 8313.0 333.5Q8307 306 8287.0 290.0Q8267 274 8226 274Q8188 274 8168.0 288.0Q8148 302 8141.5 326.5Q8135 351 8135 383Q8093 383 8071.5 368.5Q8050 354 8050 320Q8050 285 8074.5 264.0Q8099 243 8140.0 233.5Q8181 224 8230 224Q8322 224 8367.5 263.0Q8413 302 8413 397V656Q8413 698 8427.0 713.0Q8441 728 8475 728H8478V770H8343L8327 684H8319Q8298 712 8278.0 733.5Q8258 755 8231.5 767.5Q8205 780 8163 780ZM8186 718Q8247 718 8283.0 680.5Q8319 643 8319 579V498L8255 501Q8170 505 8137.5 535.5Q8105 566 8105 625Q8105 718 8186 718ZM8549 770V728H8557Q8591 728 8615.0 715.5Q8639 703 8639 656V344Q8639 300 8615.5 288.0Q8592 276 8559 276H8554V234H8716L8729 315H8734Q8765 259 8803.5 241.5Q8842 224 8890 224Q8969 224 9013.5 270.5Q9058 317 9058 420V656Q9058 703 9078.5 715.5Q9099 728 9133 728H9138V770H8964V425Q8964 360 8939.5 324.0Q8915 288 8854 288Q8809 288 8782.5 310.5Q8756 333 8744.5 370.0Q8733 407 8733 450V661Q8733 705 8756.5 716.5Q8780 728 8813 728H8818V770ZM9673 780Q9575 780 9524.5 741.0Q9474 702 9474 639Q9474 609 9493.0 590.5Q9512 572 9546 572Q9548 613 9562.0 649.5Q9576 686 9605.0 708.5Q9634 731 9681 731Q9748 731 9786.0 698.5Q9824 666 9824 605Q9824 568 9809.5 542.5Q9795 517 9761.5 495.0Q9728 473 9669 449Q9576 411 9530.5 360.0Q9485 309 9485 227Q9485 170 9513.5 129.5Q9542 89 9591.5 67.5Q9641 46 9704 46Q9793 46 9842.0 80.0Q9891 114 9891 158Q9891 190 9869.5 206.5Q9848 223 9812 223Q9812 192 9801.5 163.0Q9791 134 9766.5 115.0Q9742 96 9700 96Q9642 96 9610.0 127.0Q9578 158 9578 210Q9578 250 9592.5 277.5Q9607 305 9641.0 326.5Q9675 348 9733 372Q9821 408 9870.0 455.0Q9919 502 9919 579Q9919 674 9852.5 727.0Q9786 780 9673 780ZM10131 134Q10107 134 10090.5 120.0Q10074 106 10074 72Q10074 37 10090.5 23.5Q10107 10 10131 10Q10154 10 10171.0 23.5Q10188 37 10188 72Q10188 106 10171.0 120.0Q10154 134 10131 134ZM9993 770V728H10006Q10039 728 10063.5 716.5Q10088 705 10088 661V344Q10088 300 10063.5 288.0Q10039 276 10006 276H10003V234H10182V656Q10182 703 10206.0 715.5Q10230 728 10264 728H10277V770ZM10328 963Q10396 963 10439.5 937.0Q10483 911 10510.0 866.5Q10537 822 10553 766L10368 329Q10355 298 10340.5 287.0Q10326 276 10297 276H10294V234H10534V276H10531Q10471 276 10471 324Q10471 341 10479 361L10552 539Q10562 562 10571.5 589.5Q10581 617 10589.0 642.0Q10597 667 10600 684Q10607 655 10618.5 624.0Q10630 593 10640 563L10707 368Q10716 344 10716 325Q10716 276 10650 276H10647V234H10855V276H10852Q10823 276 10808.0 291.0Q10793 306 10776 354L10624 774Q10598 847 10574.0 893.0Q10550 939 10520.5 964.5Q10491 990 10447.0 1000.0Q10403 1010 10337 1010H10328ZM11060 780Q10993 780 10949.0 741.0Q10905 702 10905 620Q10905 540 10961.5 502.0Q11018 464 11133 460L11216 457V397Q11216 361 11210.0 333.5Q11204 306 11184.0 290.0Q11164 274 11123 274Q11085 274 11065.0 288.0Q11045 302 11038.5 326.5Q11032 351 11032 383Q10990 383 10968.5 368.5Q10947 354 10947 320Q10947 285 10971.5 264.0Q10996 243 11037.0 233.5Q11078 224 11127 224Q11219 224 11264.5 263.0Q11310 302 11310 397V656Q11310 698 11324.0 713.0Q11338 728 11372 728H11375V770H11240L11224 684H11216Q11195 712 11175.0 733.5Q11155 755 11128.5 767.5Q11102 780 11060 780ZM11083 718Q11144 718 11180.0 680.5Q11216 643 11216 579V498L11152 501Q11067 505 11034.5 535.5Q11002 566 11002 625Q11002 718 11083 718ZM11715 1010V968H11748Q11782 968 11806.0 955.5Q11830 943 11830 896V810Q11830 794 11830.5 769.5Q11831 745 11832.0 720.0Q11833 695 11834 680H11830Q11808 726 11772.0 753.0Q11736 780 11677 780Q11578 780 11525.5 713.5Q11473 647 11473 503Q11473 358 11525.5 291.0Q11578 224 11677 224Q11735 224 11771.5 248.5Q11808 273 11830 312H11836L11854 234H12014V276H12006Q11972 276 11948.0 288.5Q11924 301 11924 348V900Q11924 944 11948.5 956.0Q11973 968 12006 968H12014V1010ZM11694 716Q11772 716 11801.0 663.5Q11830 611 11830 503Q11830 399 11801.0 343.5Q11772 288 11693 288Q11627 288 11598.5 343.5Q11570 399 11570 504Q11570 610 11598.5 663.0Q11627 716 11694 716Z" fill="currentColor" /></svg>