<svg viewBox="0 0 7909 1000" xmlns="http://www.w3.org/2000/svg"><path d="M537 760H432L78 167H74Q75 185 76.5 207.0Q78 229 79.0 254.5Q80 280 81.0 307.0Q82 334 82 361V760H0V46H104L457 637H461Q460 625 459.0 603.5Q458 582 457.0 555.5Q456 529 455.0 501.0Q454 473 454 449V46H537ZM1148 491Q1148 558 1131.5 609.5Q1115 661 1084.0 697.0Q1053 733 1009.0 751.5Q965 770 911 770Q861 770 818.5 751.5Q776 733 744.5 697.0Q713 661 696.0 609.5Q679 558 679 491Q679 402 707.5 340.5Q736 279 789.0 246.5Q842 214 914 214Q983 214 1035.5 246.5Q1088 279 1118.0 340.5Q1148 402 1148 491ZM769 491Q769 554 784.0 600.5Q799 647 831.0 672.0Q863 697 913 697Q963 697 995.0 672.0Q1027 647 1042.5 600.5Q1058 554 1058 491Q1058 427 1042.5 382.0Q1027 337 995.0 312.5Q963 288 912 288Q837 288 803.0 342.0Q769 396 769 491ZM1450 698Q1469 698 1489.0 694.5Q1509 691 1522 687V754Q1508 761 1482.5 765.5Q1457 770 1434 770Q1394 770 1360.0 755.5Q1326 741 1305.5 705.0Q1285 669 1285 604V292H1214V250L1287 215L1320 101H1372V224H1518V292H1372V602Q1372 651 1394.0 674.5Q1416 698 1450 698ZM2063 491Q2063 558 2046.5 609.5Q2030 661 1999.0 697.0Q1968 733 1924.0 751.5Q1880 770 1826 770Q1776 770 1733.5 751.5Q1691 733 1659.5 697.0Q1628 661 1611.0 609.5Q1594 558 1594 491Q1594 402 1622.5 340.5Q1651 279 1704.0 246.5Q1757 214 1829 214Q1898 214 1950.5 246.5Q2003 279 2033.0 340.5Q2063 402 2063 491ZM1684 491Q1684 554 1699.0 600.5Q1714 647 1746.0 672.0Q1778 697 1828 697Q1878 697 1910.0 672.0Q1942 647 1957.5 600.5Q1973 554 1973 491Q1973 427 1957.5 382.0Q1942 337 1910.0 312.5Q1878 288 1827 288Q1752 288 1718.0 342.0Q1684 396 1684 491ZM2830 569Q2830 633 2800.5 677.5Q2771 722 2717.5 746.0Q2664 770 2590 770Q2553 770 2518.5 766.0Q2484 762 2455.5 754.5Q2427 747 2405 736V650Q2440 666 2490.5 679.0Q2541 692 2594 692Q2643 692 2675.5 678.0Q2708 664 2724.5 638.0Q2741 612 2741 577Q2741 542 2726.5 518.0Q2712 494 2678.0 473.5Q2644 453 2585 430Q2530 408 2491.5 380.0Q2453 352 2433.0 312.5Q2413 273 2413 218Q2413 161 2440.5 120.5Q2468 80 2516.5 58.0Q2565 36 2629 36Q2684 36 2730.0 47.0Q2776 58 2815 76L2787 153Q2751 137 2710.5 126.0Q2670 115 2627 115Q2586 115 2558.5 128.0Q2531 141 2517.0 164.5Q2503 188 2503 219Q2503 255 2517.0 279.0Q2531 303 2563.0 322.0Q2595 341 2648 363Q2707 386 2747.5 412.5Q2788 439 2809.0 476.0Q2830 513 2830 569ZM3146 215Q3238 215 3283.5 258.0Q3329 301 3329 395V760H3266L3249 684H3245Q3223 713 3200.5 732.5Q3178 752 3148.5 761.0Q3119 770 3076 770Q3031 770 2995.0 753.0Q2959 736 2938.0 700.5Q2917 665 2917 611Q2917 531 2976.0 487.5Q3035 444 3158 440L3243 437V405Q3243 338 3216.5 312.0Q3190 286 3141 286Q3102 286 3066.5 298.5Q3031 311 2999 327L2972 261Q3006 242 3051.0 228.5Q3096 215 3146 215ZM3170 501Q3078 505 3042.5 533.0Q3007 561 3007 612Q3007 657 3032.0 678.0Q3057 699 3097 699Q3159 699 3201.0 661.5Q3243 624 3243 546V498ZM3730 214Q3820 214 3866.5 260.5Q3913 307 3913 411V760H3826V417Q3826 352 3799.0 320.0Q3772 288 3716 288Q3634 288 3602.5 338.0Q3571 388 3571 482V760H3484V224H3554L3567 297H3572Q3588 269 3613.0 250.5Q3638 232 3668.0 223.0Q3698 214 3730 214ZM4399 612Q4399 664 4374.5 699.0Q4350 734 4305.0 752.0Q4260 770 4197 770Q4144 770 4105.5 761.0Q4067 752 4038 736V656Q4069 672 4112.0 685.5Q4155 699 4199 699Q4260 699 4287.5 677.5Q4315 656 4315 620Q4315 600 4304.5 584.0Q4294 568 4267.5 552.0Q4241 536 4191 516Q4143 496 4108.5 476.0Q4074 456 4055.5 428.0Q4037 400 4037 356Q4037 288 4089.5 251.0Q4142 214 4227 214Q4273 214 4313.0 223.5Q4353 233 4389 250L4360 320Q4339 310 4316.0 302.5Q4293 295 4269.5 290.5Q4246 286 4222 286Q4173 286 4147.0 303.5Q4121 321 4121 351Q4121 373 4133.0 389.0Q4145 405 4172.5 419.5Q4200 434 4248 453Q4296 472 4330.0 492.0Q4364 512 4381.5 540.5Q4399 569 4399 612ZM5315 396Q5315 516 5273.0 597.0Q5231 678 5152.5 719.0Q5074 760 4963 760H4776V46H4983Q5085 46 5159.5 86.0Q5234 126 5274.5 203.5Q5315 281 5315 396ZM5221 399Q5221 304 5192.0 243.0Q5163 182 5107.5 152.5Q5052 123 4972 123H4865V683H4954Q5088 683 5154.5 611.5Q5221 540 5221 399ZM5539 224V760H5452V224ZM5496 23Q5516 23 5531.0 36.5Q5546 50 5546 79Q5546 107 5531.0 121.0Q5516 135 5496 135Q5475 135 5460.0 121.0Q5445 107 5445 79Q5445 50 5460.0 36.5Q5475 23 5496 23ZM6028 612Q6028 664 6003.5 699.0Q5979 734 5934.0 752.0Q5889 770 5826 770Q5773 770 5734.5 761.0Q5696 752 5667 736V656Q5698 672 5741.0 685.5Q5784 699 5828 699Q5889 699 5916.5 677.5Q5944 656 5944 620Q5944 600 5933.5 584.0Q5923 568 5896.5 552.0Q5870 536 5820 516Q5772 496 5737.5 476.0Q5703 456 5684.5 428.0Q5666 400 5666 356Q5666 288 5718.5 251.0Q5771 214 5856 214Q5902 214 5942.0 223.5Q5982 233 6018 250L5989 320Q5968 310 5945.0 302.5Q5922 295 5898.5 290.5Q5875 286 5851 286Q5802 286 5776.0 303.5Q5750 321 5750 351Q5750 373 5762.0 389.0Q5774 405 5801.5 419.5Q5829 434 5877 453Q5925 472 5959.0 492.0Q5993 512 6010.5 540.5Q6028 569 6028 612ZM6392 214Q6485 214 6541.5 283.0Q6598 352 6598 491Q6598 582 6572.0 644.5Q6546 707 6499.5 738.5Q6453 770 6391 770Q6352 770 6322.5 759.0Q6293 748 6272.0 730.5Q6251 713 6236 692H6230Q6232 709 6234.0 735.0Q6236 761 6236 780V1000H6149V224H6220L6232 297H6236Q6251 274 6272.0 255.0Q6293 236 6322.5 225.0Q6352 214 6392 214ZM6375 288Q6325 288 6294.5 308.5Q6264 329 6250.0 370.0Q6236 411 6236 474V491Q6236 557 6248.5 603.0Q6261 649 6292.0 673.0Q6323 697 6377 697Q6422 697 6451.0 670.0Q6480 643 6494.0 596.5Q6508 550 6508 490Q6508 398 6475.5 343.0Q6443 288 6375 288ZM6815 760H6728V0H6815ZM7166 215Q7258 215 7303.5 258.0Q7349 301 7349 395V760H7286L7269 684H7265Q7243 713 7220.5 732.5Q7198 752 7168.5 761.0Q7139 770 7096 770Q7051 770 7015.0 753.0Q6979 736 6958.0 700.5Q6937 665 6937 611Q6937 531 6996.0 487.5Q7055 444 7178 440L7263 437V405Q7263 338 7236.5 312.0Q7210 286 7161 286Q7122 286 7086.5 298.5Q7051 311 7019 327L6992 261Q7026 242 7071.0 228.5Q7116 215 7166 215ZM7190 501Q7098 505 7062.5 533.0Q7027 561 7027 612Q7027 657 7052.0 678.0Q7077 699 7117 699Q7179 699 7221.0 661.5Q7263 624 7263 546V498ZM7426 224H7520L7627 529Q7637 556 7645.0 581.0Q7653 606 7659.0 629.5Q7665 653 7668 675H7671Q7677 650 7688.5 609.5Q7700 569 7713 528L7814 224H7909L7692 834Q7674 884 7649.5 921.5Q7625 959 7590.0 979.5Q7555 1000 7506 1000Q7484 1000 7466.5 997.5Q7449 995 7437 992V922Q7447 924 7462.0 926.0Q7477 928 7493 928Q7522 928 7543.0 916.5Q7564 905 7579.0 883.5Q7594 862 7604 833L7629 762Z" /></svg>