<svg viewBox="0 0 8788 1362" xmlns="http://www.w3.org/2000/svg"><path d="M663 1069H558L176 476H172Q174 511 177.0 563.0Q180 615 180 670V1069H97V355H201L582 946H586Q585 930 583.5 898.0Q582 866 580.5 828.0Q579 790 579 758V355H663ZM1311 800Q1311 933 1243.5 1006.0Q1176 1079 1061 1079Q990 1079 934.5 1046.5Q879 1014 847.0 951.5Q815 889 815 800Q815 667 882.0 595.0Q949 523 1064 523Q1137 523 1192.5 555.5Q1248 588 1279.5 649.5Q1311 711 1311 800ZM906 800Q906 895 943.5 950.5Q981 1006 1063 1006Q1144 1006 1182.0 950.5Q1220 895 1220 800Q1220 705 1182.0 651.0Q1144 597 1062 597Q980 597 943.0 651.0Q906 705 906 800ZM1629 1007Q1649 1007 1670.0 1003.5Q1691 1000 1704 996V1063Q1690 1070 1664.0 1074.5Q1638 1079 1614 1079Q1572 1079 1536.5 1064.5Q1501 1050 1479.0 1014.0Q1457 978 1457 913V601H1381V559L1458 524L1493 410H1545V533H1700V601H1545V911Q1545 960 1568.5 983.5Q1592 1007 1629 1007ZM2277 800Q2277 933 2209.5 1006.0Q2142 1079 2027 1079Q1956 1079 1900.5 1046.5Q1845 1014 1813.0 951.5Q1781 889 1781 800Q1781 667 1848.0 595.0Q1915 523 2030 523Q2103 523 2158.5 555.5Q2214 588 2245.5 649.5Q2277 711 2277 800ZM1872 800Q1872 895 1909.5 950.5Q1947 1006 2029 1006Q2110 1006 2148.0 950.5Q2186 895 2186 800Q2186 705 2148.0 651.0Q2110 597 2028 597Q1946 597 1909.0 651.0Q1872 705 1872 800ZM3093 878Q3093 973 3024.0 1026.0Q2955 1079 2838 1079Q2778 1079 2727.0 1070.0Q2676 1061 2642 1045V959Q2678 975 2731.5 988.0Q2785 1001 2842 1001Q2922 1001 2962.5 970.0Q3003 939 3003 886Q3003 851 2988.0 827.0Q2973 803 2936.5 782.5Q2900 762 2835 739Q2744 706 2697.5 658.0Q2651 610 2651 527Q2651 470 2680.0 429.5Q2709 389 2760.5 367.0Q2812 345 2879 345Q2938 345 2987.0 356.0Q3036 367 3076 385L3048 462Q3011 446 2967.5 435.0Q2924 424 2877 424Q2810 424 2776.0 452.5Q2742 481 2742 528Q2742 564 2757.0 588.0Q2772 612 2806.0 631.0Q2840 650 2898 672Q2961 695 3004.5 721.5Q3048 748 3070.5 785.0Q3093 822 3093 878ZM3428 524Q3526 524 3573.0 567.0Q3620 610 3620 704V1069H3556L3539 993H3535Q3500 1037 3461.5 1058.0Q3423 1079 3355 1079Q3282 1079 3234.0 1040.5Q3186 1002 3186 920Q3186 840 3249.0 796.5Q3312 753 3443 749L3534 746V714Q3534 647 3505.0 621.0Q3476 595 3423 595Q3381 595 3343.0 607.5Q3305 620 3272 636L3245 570Q3280 551 3328.0 537.5Q3376 524 3428 524ZM3454 810Q3354 814 3315.5 842.0Q3277 870 3277 921Q3277 966 3304.5 987.0Q3332 1008 3375 1008Q3443 1008 3488.0 970.5Q3533 933 3533 855V807ZM4044 523Q4140 523 4189.0 569.5Q4238 616 4238 720V1069H4151V726Q4151 597 4031 597Q3942 597 3908.0 647.0Q3874 697 3874 791V1069H3786V533H3857L3870 606H3875Q3901 564 3947.0 543.5Q3993 523 4044 523ZM4753 921Q4753 999 4695.0 1039.0Q4637 1079 4539 1079Q4483 1079 4442.5 1070.0Q4402 1061 4371 1045V965Q4403 981 4448.5 994.5Q4494 1008 4541 1008Q4608 1008 4638.0 986.5Q4668 965 4668 929Q4668 909 4657.0 893.0Q4646 877 4617.5 861.0Q4589 845 4536 825Q4484 805 4447.0 785.0Q4410 765 4390.0 737.0Q4370 709 4370 665Q4370 597 4425.5 560.0Q4481 523 4571 523Q4620 523 4662.5 532.5Q4705 542 4742 559L4712 629Q4678 615 4641.0 605.0Q4604 595 4565 595Q4511 595 4482.5 612.5Q4454 630 4454 660Q4454 682 4467.0 697.5Q4480 713 4510.5 727.5Q4541 742 4592 762Q4643 781 4679.0 801.0Q4715 821 4734.0 849.5Q4753 878 4753 921ZM5603 1069 5517 848H5234L5149 1069H5058L5337 352H5418L5696 1069ZM5410 552Q5407 544 5400.0 523.0Q5393 502 5386.5 479.5Q5380 457 5376 445Q5369 476 5360.0 505.5Q5351 535 5345 552L5264 768H5490ZM5900 1069 5697 533H5791L5905 849Q5913 871 5922.0 898.0Q5931 925 5938.0 949.5Q5945 974 5948 991H5952Q5956 974 5963.5 949.0Q5971 924 5980.5 897.0Q5990 870 5997 849L6111 533H6205L6001 1069ZM6497 523Q6566 523 6615.5 553.0Q6665 583 6691.5 637.5Q6718 692 6718 765V818H6351Q6353 909 6397.5 956.5Q6442 1004 6522 1004Q6573 1004 6612.5 994.5Q6652 985 6694 967V1044Q6653 1062 6613.0 1070.5Q6573 1079 6518 1079Q6442 1079 6383.5 1048.0Q6325 1017 6292.5 955.5Q6260 894 6260 805Q6260 717 6289.5 654.0Q6319 591 6372.5 557.0Q6426 523 6497 523ZM6496 595Q6433 595 6396.5 635.5Q6360 676 6353 748H6626Q6625 680 6594.0 637.5Q6563 595 6496 595ZM7203 921Q7203 999 7145.0 1039.0Q7087 1079 6989 1079Q6933 1079 6892.5 1070.0Q6852 1061 6821 1045V965Q6853 981 6898.5 994.5Q6944 1008 6991 1008Q7058 1008 7088.0 986.5Q7118 965 7118 929Q7118 909 7107.0 893.0Q7096 877 7067.5 861.0Q7039 845 6986 825Q6934 805 6897.0 785.0Q6860 765 6840.0 737.0Q6820 709 6820 665Q6820 597 6875.5 560.0Q6931 523 7021 523Q7070 523 7112.5 532.5Q7155 542 7192 559L7162 629Q7128 615 7091.0 605.0Q7054 595 7015 595Q6961 595 6932.5 612.5Q6904 630 6904 660Q6904 682 6917.0 697.5Q6930 713 6960.5 727.5Q6991 742 7042 762Q7093 781 7129.0 801.0Q7165 821 7184.0 849.5Q7203 878 7203 921ZM7512 1007Q7532 1007 7553.0 1003.5Q7574 1000 7587 996V1063Q7573 1070 7547.0 1074.5Q7521 1079 7497 1079Q7455 1079 7419.5 1064.5Q7384 1050 7362.0 1014.0Q7340 978 7340 913V601H7264V559L7341 524L7376 410H7428V533H7583V601H7428V911Q7428 960 7451.5 983.5Q7475 1007 7512 1007ZM7897 524Q7995 524 8042.0 567.0Q8089 610 8089 704V1069H8025L8008 993H8004Q7969 1037 7930.5 1058.0Q7892 1079 7824 1079Q7751 1079 7703.0 1040.5Q7655 1002 7655 920Q7655 840 7718.0 796.5Q7781 753 7912 749L8003 746V714Q8003 647 7974.0 621.0Q7945 595 7892 595Q7850 595 7812.0 607.5Q7774 620 7741 636L7714 570Q7749 551 7797.0 537.5Q7845 524 7897 524ZM7923 810Q7823 814 7784.5 842.0Q7746 870 7746 921Q7746 966 7773.5 987.0Q7801 1008 7844 1008Q7912 1008 7957.0 970.5Q8002 933 8002 855V807ZM8513 523Q8609 523 8658.0 569.5Q8707 616 8707 720V1069H8620V726Q8620 597 8500 597Q8411 597 8377.0 647.0Q8343 697 8343 791V1069H8255V533H8326L8339 606H8344Q8370 564 8416.0 543.5Q8462 523 8513 523Z" fill="currentColor" /></svg>