<svg viewBox="0 0 10282 1010" xmlns="http://www.w3.org/2000/svg"><path d="M0 770V728H13Q47 728 71.0 715.5Q95 703 95 656V166Q95 122 70.5 110.0Q46 98 13 98H0V56H183L541 609V166Q541 122 516.5 110.0Q492 98 459 98H446V56H697V98H684Q650 98 626.0 110.5Q602 123 602 170V770H531L156 194V656Q156 703 180.0 715.5Q204 728 238 728H251V770ZM1012 780Q904 780 842.0 711.0Q780 642 780 501Q780 361 839.5 292.5Q899 224 1015 224Q1123 224 1185.0 292.5Q1247 361 1247 501Q1247 642 1187.5 711.0Q1128 780 1012 780ZM1014 728Q1089 728 1119.5 670.5Q1150 613 1150 501Q1150 389 1119.0 333.0Q1088 277 1013 277Q938 277 907.5 333.0Q877 389 877 501Q877 613 908.0 670.5Q939 728 1014 728ZM1542 780Q1466 780 1431.5 745.5Q1397 711 1397 625V291H1321V251Q1339 251 1361.0 243.5Q1383 236 1399 219Q1416 201 1427.0 175.0Q1438 149 1445 111H1491V234H1622V291H1491V628Q1491 679 1512.0 703.0Q1533 727 1567 727Q1585 727 1600.0 725.0Q1615 723 1631 720V764Q1618 770 1592.0 775.0Q1566 780 1542 780ZM1941 780Q1833 780 1771.0 711.0Q1709 642 1709 501Q1709 361 1768.5 292.5Q1828 224 1944 224Q2052 224 2114.0 292.5Q2176 361 2176 501Q2176 642 2116.5 711.0Q2057 780 1941 780ZM1943 728Q2018 728 2048.5 670.5Q2079 613 2079 501Q2079 389 2048.0 333.0Q2017 277 1942 277Q1867 277 1836.5 333.0Q1806 389 1806 501Q1806 613 1837.0 670.5Q1868 728 1943 728ZM2678 780Q2580 780 2529.5 741.0Q2479 702 2479 639Q2479 609 2498.0 590.5Q2517 572 2551 572Q2553 613 2567.0 649.5Q2581 686 2610.0 708.5Q2639 731 2686 731Q2753 731 2791.0 698.5Q2829 666 2829 605Q2829 568 2814.5 542.5Q2800 517 2766.5 495.0Q2733 473 2674 449Q2581 411 2535.5 360.0Q2490 309 2490 227Q2490 170 2518.5 129.5Q2547 89 2596.5 67.5Q2646 46 2709 46Q2798 46 2847.0 80.0Q2896 114 2896 158Q2896 190 2874.5 206.5Q2853 223 2817 223Q2817 192 2806.5 163.0Q2796 134 2771.5 115.0Q2747 96 2705 96Q2647 96 2615.0 127.0Q2583 158 2583 210Q2583 250 2597.5 277.5Q2612 305 2646.0 326.5Q2680 348 2738 372Q2826 408 2875.0 455.0Q2924 502 2924 579Q2924 674 2857.5 727.0Q2791 780 2678 780ZM3262 780Q3153 780 3091.5 708.0Q3030 636 3030 506Q3030 366 3088.0 295.0Q3146 224 3252 224Q3349 224 3404.5 284.0Q3460 344 3460 463V509H3127Q3129 618 3166.5 667.5Q3204 717 3276 717Q3328 717 3364.5 695.5Q3401 674 3419 647Q3426 650 3432.0 659.0Q3438 668 3438 681Q3438 701 3419.0 724.0Q3400 747 3361.0 763.5Q3322 780 3262 780ZM3359 455Q3359 375 3334.5 326.5Q3310 278 3250 278Q3195 278 3164.5 323.5Q3134 369 3129 455ZM3543 770V728H3546Q3580 728 3604.0 715.5Q3628 703 3628 656V344Q3628 300 3603.5 288.0Q3579 276 3546 276H3543V234H3697L3716 333H3721Q3734 303 3749.0 278.0Q3764 253 3789.0 238.5Q3814 224 3858 224Q3913 224 3939.5 243.0Q3966 262 3966 297Q3966 328 3944.5 348.0Q3923 368 3873 368Q3873 327 3861.0 308.5Q3849 290 3820 290Q3792 290 3773.0 312.0Q3754 334 3743.0 368.0Q3732 402 3727.0 438.5Q3722 475 3722 504V661Q3722 705 3746.5 716.5Q3771 728 3804 728H3832V770ZM4142 134Q4118 134 4101.5 120.0Q4085 106 4085 72Q4085 37 4101.5 23.5Q4118 10 4142 10Q4165 10 4182.0 23.5Q4199 37 4199 72Q4199 106 4182.0 120.0Q4165 134 4142 134ZM4004 770V728H4017Q4050 728 4074.5 716.5Q4099 705 4099 661V344Q4099 300 4074.5 288.0Q4050 276 4017 276H4014V234H4193V656Q4193 703 4217.0 715.5Q4241 728 4275 728H4288V770ZM4328 770V728H4341Q4375 728 4399.0 715.5Q4423 703 4423 656V281H4332V234H4423V184Q4423 95 4470.5 47.5Q4518 0 4600 0Q4678 0 4709.0 19.5Q4740 39 4740 70Q4740 97 4717.0 111.5Q4694 126 4658 126Q4658 96 4644.0 71.0Q4630 46 4592 46Q4549 46 4533.0 79.0Q4517 112 4517 175V234H4658V281H4517V656Q4517 703 4541.0 715.5Q4565 728 4599 728H4637V770ZM5241 780Q5135 780 5065.0 734.0Q4995 688 4960.5 605.0Q4926 522 4926 411Q4926 300 4960.5 218.0Q4995 136 5065.5 90.5Q5136 45 5242 45Q5343 45 5412.5 90.5Q5482 136 5518.5 218.5Q5555 301 5555 412Q5555 523 5518.5 605.5Q5482 688 5412.0 734.0Q5342 780 5241 780ZM5241 726Q5353 726 5398.5 643.0Q5444 560 5444 412Q5444 263 5398.5 181.0Q5353 99 5242 99Q5130 99 5083.5 181.0Q5037 263 5037 412Q5037 560 5083.5 643.0Q5130 726 5241 726ZM5625 770V728H5638Q5672 728 5696.0 715.5Q5720 703 5720 656V120Q5720 76 5695.5 64.0Q5671 52 5638 52H5625V10H5814V656Q5814 703 5838.0 715.5Q5862 728 5896 728H5909V770ZM6181 780Q6082 780 6029.5 713.5Q5977 647 5977 503Q5977 358 6029.5 291.0Q6082 224 6181 224Q6239 224 6275.5 248.5Q6312 273 6334 312H6340Q6337 287 6335.5 256.5Q6334 226 6334 202V120Q6334 76 6309.5 64.0Q6285 52 6252 52H6244V10H6428V660Q6428 704 6452.5 716.0Q6477 728 6510 728H6518V770H6349L6338 680H6334Q6312 726 6276.0 753.0Q6240 780 6181 780ZM6198 716Q6276 716 6305.0 663.5Q6334 611 6334 503Q6334 399 6305.0 343.5Q6276 288 6197 288Q6131 288 6102.5 343.5Q6074 399 6074 504Q6074 610 6102.5 663.0Q6131 716 6198 716ZM7098 780Q6980 780 6913.0 728.0Q6846 676 6846 554V166Q6846 122 6821.5 110.0Q6797 98 6764 98H6751V56H7042V98H7029Q6995 98 6971.0 110.5Q6947 123 6947 170V560Q6947 647 6994.0 683.5Q7041 720 7114 720Q7200 720 7241.0 676.0Q7282 632 7282 564V166Q7282 122 7257.5 110.0Q7233 98 7200 98H7187V56H7438V98H7425Q7391 98 7367.0 110.5Q7343 123 7343 170V566Q7343 666 7280.0 723.0Q7217 780 7098 780ZM7491 963Q7559 963 7602.5 937.0Q7646 911 7673.0 866.5Q7700 822 7716 766L7531 329Q7518 298 7503.5 287.0Q7489 276 7460 276H7457V234H7697V276H7694Q7634 276 7634 324Q7634 341 7642 361L7715 539Q7725 562 7734.5 589.5Q7744 617 7752.0 642.0Q7760 667 7763 684Q7770 655 7781.5 624.0Q7793 593 7803 563L7870 368Q7879 344 7879 325Q7879 276 7813 276H7810V234H8018V276H8015Q7986 276 7971.0 291.0Q7956 306 7939 354L7787 774Q7761 847 7737.0 893.0Q7713 939 7683.5 964.5Q7654 990 7610.0 1000.0Q7566 1010 7500 1010H7491ZM8249 1010Q8145 1010 8093.0 971.5Q8041 933 8041 864Q8041 805 8079.0 775.0Q8117 745 8166 736Q8146 727 8128.5 706.5Q8111 686 8111 654Q8111 624 8126.5 602.0Q8142 580 8176 560Q8133 542 8109.5 500.5Q8086 459 8086 409Q8086 323 8133.0 273.5Q8180 224 8274 224Q8310 224 8342.0 234.0Q8374 244 8388 257Q8402 241 8427.0 222.0Q8452 203 8485 203Q8515 203 8529.5 218.5Q8544 234 8544 255Q8544 276 8531.5 291.5Q8519 307 8491 307Q8491 296 8484.5 284.5Q8478 273 8458 273Q8435 273 8415 285Q8432 306 8443.0 334.5Q8454 363 8454 406Q8454 480 8409.5 529.0Q8365 578 8274 578Q8262 578 8246.5 576.5Q8231 575 8221 573Q8202 583 8188.0 598.0Q8174 613 8174 636Q8174 654 8185.5 664.0Q8197 674 8236 674H8349Q8438 674 8476.0 716.0Q8514 758 8514 823Q8514 909 8449.5 959.5Q8385 1010 8249 1010ZM8271 530Q8320 530 8340.0 500.0Q8360 470 8360 405Q8360 337 8339.5 305.0Q8319 273 8270 273Q8222 273 8201.0 306.0Q8180 339 8180 406Q8180 470 8201.5 500.0Q8223 530 8271 530ZM8251 961Q8323 961 8362.0 945.5Q8401 930 8416.5 902.5Q8432 875 8432 840Q8432 794 8406.0 778.5Q8380 763 8330 763H8232Q8204 763 8179.0 770.5Q8154 778 8138.0 798.0Q8122 818 8122 858Q8122 887 8133.0 910.5Q8144 934 8172.0 947.5Q8200 961 8251 961ZM8574 770V728H8582Q8616 728 8640.0 715.5Q8664 703 8664 656V120Q8664 76 8639.5 64.0Q8615 52 8582 52H8574V10H8758V230Q8758 248 8757.0 267.5Q8756 287 8755.0 301.0Q8754 315 8754 315H8759Q8805 224 8906 224Q8992 224 9037.5 270.5Q9083 317 9083 420V656Q9083 703 9104.5 715.5Q9126 728 9160 728H9163V770H8989V425Q8989 360 8964.5 324.0Q8940 288 8879 288Q8817 288 8787.5 332.0Q8758 376 8758 450V661Q8758 705 8782.5 716.5Q8807 728 8840 728H8843V770ZM9464 780Q9385 780 9342.0 733.5Q9299 687 9299 584V344Q9299 300 9274.5 288.0Q9250 276 9217 276H9214V234H9393V579Q9393 644 9415.0 680.0Q9437 716 9498 716Q9564 716 9594.0 671.5Q9624 627 9624 554V348Q9624 301 9600.0 288.5Q9576 276 9542 276H9539V234H9718V661Q9718 705 9742.5 716.5Q9767 728 9800 728H9803V770H9644L9631 689H9626Q9595 745 9554.0 762.5Q9513 780 9464 780ZM9859 770V728H9862Q9896 728 9920.0 715.5Q9944 703 9944 656V344Q9944 300 9919.5 288.0Q9895 276 9862 276H9859V234H10013L10032 333H10037Q10050 303 10065.0 278.0Q10080 253 10105.0 238.5Q10130 224 10174 224Q10229 224 10255.5 243.0Q10282 262 10282 297Q10282 328 10260.5 348.0Q10239 368 10189 368Q10189 327 10177.0 308.5Q10165 290 10136 290Q10108 290 10089.0 312.0Q10070 334 10059.0 368.0Q10048 402 10043.0 438.5Q10038 475 10038 504V661Q10038 705 10062.5 716.5Q10087 728 10120 728H10148V770Z" fill="currentColor" /></svg>