<svg viewBox="0 0 14111 1000" xmlns="http://www.w3.org/2000/svg"><path d="M566 760H461L79 167H75Q77 202 80.0 254.0Q83 306 83 361V760H0V46H104L485 637H489Q488 621 486.5 589.0Q485 557 483.5 519.0Q482 481 482 449V46H566ZM1214 491Q1214 624 1146.5 697.0Q1079 770 964 770Q893 770 837.5 737.5Q782 705 750.0 642.5Q718 580 718 491Q718 358 785.0 286.0Q852 214 967 214Q1040 214 1095.5 246.5Q1151 279 1182.5 340.5Q1214 402 1214 491ZM809 491Q809 586 846.5 641.5Q884 697 966 697Q1047 697 1085.0 641.5Q1123 586 1123 491Q1123 396 1085.0 342.0Q1047 288 965 288Q883 288 846.0 342.0Q809 396 809 491ZM1532 698Q1552 698 1573.0 694.5Q1594 691 1607 687V754Q1593 761 1567.0 765.5Q1541 770 1517 770Q1475 770 1439.5 755.5Q1404 741 1382.0 705.0Q1360 669 1360 604V292H1284V250L1361 215L1396 101H1448V224H1603V292H1448V602Q1448 651 1471.5 674.5Q1495 698 1532 698ZM2180 491Q2180 624 2112.5 697.0Q2045 770 1930 770Q1859 770 1803.5 737.5Q1748 705 1716.0 642.5Q1684 580 1684 491Q1684 358 1751.0 286.0Q1818 214 1933 214Q2006 214 2061.5 246.5Q2117 279 2148.5 340.5Q2180 402 2180 491ZM1775 491Q1775 586 1812.5 641.5Q1850 697 1932 697Q2013 697 2051.0 641.5Q2089 586 2089 491Q2089 396 2051.0 342.0Q2013 288 1931 288Q1849 288 1812.0 342.0Q1775 396 1775 491ZM2868 569Q2868 664 2799.0 717.0Q2730 770 2613 770Q2553 770 2502.0 761.0Q2451 752 2417 736V650Q2453 666 2506.5 679.0Q2560 692 2617 692Q2697 692 2737.5 661.0Q2778 630 2778 577Q2778 542 2763.0 518.0Q2748 494 2711.5 473.5Q2675 453 2610 430Q2519 397 2472.5 349.0Q2426 301 2426 218Q2426 161 2455.0 120.5Q2484 80 2535.5 58.0Q2587 36 2654 36Q2713 36 2762.0 47.0Q2811 58 2851 76L2823 153Q2786 137 2742.5 126.0Q2699 115 2652 115Q2585 115 2551.0 143.5Q2517 172 2517 219Q2517 255 2532.0 279.0Q2547 303 2581.0 322.0Q2615 341 2673 363Q2736 386 2779.5 412.5Q2823 439 2845.5 476.0Q2868 513 2868 569ZM3203 215Q3301 215 3348.0 258.0Q3395 301 3395 395V760H3331L3314 684H3310Q3275 728 3236.5 749.0Q3198 770 3130 770Q3057 770 3009.0 731.5Q2961 693 2961 611Q2961 531 3024.0 487.5Q3087 444 3218 440L3309 437V405Q3309 338 3280.0 312.0Q3251 286 3198 286Q3156 286 3118.0 298.5Q3080 311 3047 327L3020 261Q3055 242 3103.0 228.5Q3151 215 3203 215ZM3229 501Q3129 505 3090.5 533.0Q3052 561 3052 612Q3052 657 3079.5 678.0Q3107 699 3150 699Q3218 699 3263.0 661.5Q3308 624 3308 546V498ZM3819 214Q3915 214 3964.0 260.5Q4013 307 4013 411V760H3926V417Q3926 288 3806 288Q3717 288 3683.0 338.0Q3649 388 3649 482V760H3561V224H3632L3645 297H3650Q3676 255 3722.0 234.5Q3768 214 3819 214ZM4528 612Q4528 690 4470.0 730.0Q4412 770 4314 770Q4258 770 4217.5 761.0Q4177 752 4146 736V656Q4178 672 4223.5 685.5Q4269 699 4316 699Q4383 699 4413.0 677.5Q4443 656 4443 620Q4443 600 4432.0 584.0Q4421 568 4392.5 552.0Q4364 536 4311 516Q4259 496 4222.0 476.0Q4185 456 4165.0 428.0Q4145 400 4145 356Q4145 288 4200.5 251.0Q4256 214 4346 214Q4395 214 4437.5 223.5Q4480 233 4517 250L4487 320Q4453 306 4416.0 296.0Q4379 286 4340 286Q4286 286 4257.5 303.5Q4229 321 4229 351Q4229 373 4242.0 388.5Q4255 404 4285.5 418.5Q4316 433 4367 453Q4418 472 4454.0 492.0Q4490 512 4509.0 540.5Q4528 569 4528 612ZM5003 760H4745V708L4829 689V118L4745 98V46H5003V98L4919 118V689L5003 708ZM5387 214Q5483 214 5532.0 260.5Q5581 307 5581 411V760H5494V417Q5494 288 5374 288Q5285 288 5251.0 338.0Q5217 388 5217 482V760H5129V224H5200L5213 297H5218Q5244 255 5290.0 234.5Q5336 214 5387 214ZM5937 770Q5837 770 5777.0 700.5Q5717 631 5717 493Q5717 355 5777.5 284.5Q5838 214 5938 214Q6000 214 6039.5 237.0Q6079 260 6104 293H6110Q6109 280 6106.5 254.5Q6104 229 6104 214V0H6192V760H6121L6108 688H6104Q6080 722 6040.0 746.0Q6000 770 5937 770ZM5951 697Q6036 697 6070.5 650.5Q6105 604 6105 510V494Q6105 394 6072.0 340.5Q6039 287 5950 287Q5879 287 5843.5 343.5Q5808 400 5808 495Q5808 591 5843.5 644.0Q5879 697 5951 697ZM6407 23Q6427 23 6442.5 36.5Q6458 50 6458 79Q6458 107 6442.5 121.0Q6427 135 6407 135Q6385 135 6370.0 121.0Q6355 107 6355 79Q6355 50 6370.0 36.5Q6385 23 6407 23ZM6450 224V760H6362V224ZM6835 770Q6764 770 6708.5 741.0Q6653 712 6621.5 651.0Q6590 590 6590 495Q6590 396 6623.0 334.0Q6656 272 6712.5 243.0Q6769 214 6841 214Q6882 214 6920.0 222.5Q6958 231 6982 243L6955 316Q6931 307 6899.0 299.0Q6867 291 6839 291Q6681 291 6681 494Q6681 591 6719.5 642.5Q6758 694 6834 694Q6878 694 6911.5 685.0Q6945 676 6973 663V741Q6946 755 6913.5 762.5Q6881 770 6835 770ZM7649 569Q7649 664 7580.0 717.0Q7511 770 7394 770Q7334 770 7283.0 761.0Q7232 752 7198 736V650Q7234 666 7287.5 679.0Q7341 692 7398 692Q7478 692 7518.5 661.0Q7559 630 7559 577Q7559 542 7544.0 518.0Q7529 494 7492.5 473.5Q7456 453 7391 430Q7300 397 7253.5 349.0Q7207 301 7207 218Q7207 161 7236.0 120.5Q7265 80 7316.5 58.0Q7368 36 7435 36Q7494 36 7543.0 47.0Q7592 58 7632 76L7604 153Q7567 137 7523.5 126.0Q7480 115 7433 115Q7366 115 7332.0 143.5Q7298 172 7298 219Q7298 255 7313.0 279.0Q7328 303 7362.0 322.0Q7396 341 7454 363Q7517 386 7560.5 412.5Q7604 439 7626.5 476.0Q7649 513 7649 569ZM7826 23Q7846 23 7861.5 36.5Q7877 50 7877 79Q7877 107 7861.5 121.0Q7846 135 7826 135Q7804 135 7789.0 121.0Q7774 107 7774 79Q7774 50 7789.0 36.5Q7804 23 7826 23ZM7869 224V760H7781V224ZM7955 224H8049L8165 529Q8180 569 8192.0 605.5Q8204 642 8210 675H8214Q8220 650 8233.0 609.5Q8246 569 8260 528L8369 224H8464L8233 834Q8205 910 8160.5 955.0Q8116 1000 8038 1000Q8014 1000 7996.0 997.5Q7978 995 7965 992V922Q7976 924 7991.5 926.0Q8007 928 8024 928Q8070 928 8098.5 902.0Q8127 876 8143 833L8171 762ZM8752 215Q8850 215 8897.0 258.0Q8944 301 8944 395V760H8880L8863 684H8859Q8824 728 8785.5 749.0Q8747 770 8679 770Q8606 770 8558.0 731.5Q8510 693 8510 611Q8510 531 8573.0 487.5Q8636 444 8767 440L8858 437V405Q8858 338 8829.0 312.0Q8800 286 8747 286Q8705 286 8667.0 298.5Q8629 311 8596 327L8569 261Q8604 242 8652.0 228.5Q8700 215 8752 215ZM8778 501Q8678 505 8639.5 533.0Q8601 561 8601 612Q8601 657 8628.5 678.0Q8656 699 8699 699Q8767 699 8812.0 661.5Q8857 624 8857 546V498ZM9467 771Q9467 753 9468.0 729.0Q9469 705 9472 688H9466Q9443 722 9402.5 746.0Q9362 770 9298 770Q9201 770 9140.5 700.5Q9080 631 9080 493Q9080 355 9141.5 284.5Q9203 214 9301 214Q9364 214 9404.0 238.0Q9444 262 9468 297H9472L9485 224H9555V1000H9467ZM9315 697Q9398 697 9432.5 651.5Q9467 606 9468 512V494Q9468 392 9434.0 339.5Q9400 287 9313 287Q9241 287 9206.0 343.5Q9171 400 9171 495Q9171 590 9206.5 643.5Q9242 697 9315 697ZM10435 760H10330L9948 167H9944Q9946 202 9949.0 254.0Q9952 306 9952 361V760H9869V46H9973L10354 637H10358Q10357 621 10355.5 589.0Q10354 557 10352.5 519.0Q10351 481 10351 449V46H10435ZM11065 224V760H10993L10980 689H10976Q10950 731 10904.0 750.5Q10858 770 10806 770Q10709 770 10660.0 723.5Q10611 677 10611 575V224H10700V569Q10700 697 10819 697Q10908 697 10942.5 647.0Q10977 597 10977 503V224ZM11823 214Q11914 214 11959.0 260.5Q12004 307 12004 411V760H11917V415Q11917 288 11808 288Q11730 288 11696.5 333.0Q11663 378 11663 464V760H11576V415Q11576 288 11466 288Q11385 288 11354.0 338.0Q11323 388 11323 482V760H11235V224H11306L11319 297H11324Q11349 255 11391.5 234.5Q11434 214 11482 214Q11608 214 11646 304H11651Q11678 258 11724.5 236.0Q11771 214 11823 214ZM12258 185Q12258 219 12256.5 248.5Q12255 278 12253 295H12258Q12281 261 12321.0 238.0Q12361 215 12424 215Q12524 215 12584.5 284.5Q12645 354 12645 492Q12645 630 12584.0 700.0Q12523 770 12424 770Q12361 770 12321.0 747.0Q12281 724 12258 692H12251L12233 760H12170V0H12258ZM12409 288Q12324 288 12291.0 337.0Q12258 386 12258 489V493Q12258 592 12290.5 644.5Q12323 697 12411 697Q12483 697 12518.5 644.0Q12554 591 12554 491Q12554 288 12409 288ZM12992 214Q13061 214 13110.5 244.0Q13160 274 13186.5 328.5Q13213 383 13213 456V509H12846Q12848 600 12892.5 647.5Q12937 695 13017 695Q13068 695 13107.5 685.5Q13147 676 13189 658V735Q13148 753 13108.0 761.5Q13068 770 13013 770Q12937 770 12878.5 739.0Q12820 708 12787.5 646.5Q12755 585 12755 496Q12755 408 12784.5 345.0Q12814 282 12867.5 248.0Q12921 214 12992 214ZM12991 286Q12928 286 12891.5 326.5Q12855 367 12848 439H13121Q13120 371 13089.0 328.5Q13058 286 12991 286ZM13599 214Q13614 214 13631.5 215.5Q13649 217 13662 220L13651 301Q13638 298 13622.5 296.0Q13607 294 13593 294Q13552 294 13516.0 316.5Q13480 339 13458.5 379.5Q13437 420 13437 474V760H13349V224H13421L13431 322H13435Q13461 278 13502.0 246.0Q13543 214 13599 214ZM14111 612Q14111 690 14053.0 730.0Q13995 770 13897 770Q13841 770 13800.5 761.0Q13760 752 13729 736V656Q13761 672 13806.5 685.5Q13852 699 13899 699Q13966 699 13996.0 677.5Q14026 656 14026 620Q14026 600 14015.0 584.0Q14004 568 13975.5 552.0Q13947 536 13894 516Q13842 496 13805.0 476.0Q13768 456 13748.0 428.0Q13728 400 13728 356Q13728 288 13783.5 251.0Q13839 214 13929 214Q13978 214 14020.5 223.5Q14063 233 14100 250L14070 320Q14036 306 13999.0 296.0Q13962 286 13923 286Q13869 286 13840.5 303.5Q13812 321 13812 351Q13812 373 13825.0 388.5Q13838 404 13868.5 418.5Q13899 433 13950 453Q14001 472 14037.0 492.0Q14073 512 14092.0 540.5Q14111 569 14111 612Z" fill="currentColor" /></svg>