<svg viewBox="0 0 7868 770" xmlns="http://www.w3.org/2000/svg"><path d="M566 760H461L79 167H75Q77 202 80.0 254.0Q83 306 83 361V760H0V46H104L485 637H489Q488 621 486.5 589.0Q485 557 483.5 519.0Q482 481 482 449V46H566ZM1214 491Q1214 624 1146.5 697.0Q1079 770 964 770Q893 770 837.5 737.5Q782 705 750.0 642.5Q718 580 718 491Q718 358 785.0 286.0Q852 214 967 214Q1040 214 1095.5 246.5Q1151 279 1182.5 340.5Q1214 402 1214 491ZM809 491Q809 586 846.5 641.5Q884 697 966 697Q1047 697 1085.0 641.5Q1123 586 1123 491Q1123 396 1085.0 342.0Q1047 288 965 288Q883 288 846.0 342.0Q809 396 809 491ZM1532 698Q1552 698 1573.0 694.5Q1594 691 1607 687V754Q1593 761 1567.0 765.5Q1541 770 1517 770Q1475 770 1439.5 755.5Q1404 741 1382.0 705.0Q1360 669 1360 604V292H1284V250L1361 215L1396 101H1448V224H1603V292H1448V602Q1448 651 1471.5 674.5Q1495 698 1532 698ZM2180 491Q2180 624 2112.5 697.0Q2045 770 1930 770Q1859 770 1803.5 737.5Q1748 705 1716.0 642.5Q1684 580 1684 491Q1684 358 1751.0 286.0Q1818 214 1933 214Q2006 214 2061.5 246.5Q2117 279 2148.5 340.5Q2180 402 2180 491ZM1775 491Q1775 586 1812.5 641.5Q1850 697 1932 697Q2013 697 2051.0 641.5Q2089 586 2089 491Q2089 396 2051.0 342.0Q2013 288 1931 288Q1849 288 1812.0 342.0Q1775 396 1775 491ZM2986 569Q2986 664 2917.0 717.0Q2848 770 2731 770Q2671 770 2620.0 761.0Q2569 752 2535 736V650Q2571 666 2624.5 679.0Q2678 692 2735 692Q2815 692 2855.5 661.0Q2896 630 2896 577Q2896 542 2881.0 518.0Q2866 494 2829.5 473.5Q2793 453 2728 430Q2682 413 2647.5 393.5Q2613 374 2590.0 349.0Q2567 324 2555.5 292.0Q2544 260 2544 218Q2544 161 2573.0 120.5Q2602 80 2653.5 58.0Q2705 36 2772 36Q2831 36 2880.0 47.0Q2929 58 2969 76L2941 153Q2904 137 2860.5 126.0Q2817 115 2770 115Q2703 115 2669.0 143.5Q2635 172 2635 219Q2635 255 2650.0 279.0Q2665 303 2699.0 322.0Q2733 341 2791 363Q2854 386 2897.5 412.5Q2941 439 2963.5 476.0Q2986 513 2986 569ZM3321 215Q3419 215 3466.0 258.0Q3513 301 3513 395V760H3449L3432 684H3428Q3393 728 3354.5 749.0Q3316 770 3248 770Q3175 770 3127.0 731.5Q3079 693 3079 611Q3079 531 3142.0 487.5Q3205 444 3336 440L3427 437V405Q3427 338 3398.0 312.0Q3369 286 3316 286Q3274 286 3236.0 298.5Q3198 311 3165 327L3138 261Q3173 242 3221.0 228.5Q3269 215 3321 215ZM3347 501Q3247 505 3208.5 533.0Q3170 561 3170 612Q3170 657 3197.5 678.0Q3225 699 3268 699Q3336 699 3381.0 661.5Q3426 624 3426 546V498ZM3937 214Q4033 214 4082.0 260.5Q4131 307 4131 411V760H4044V417Q4044 352 4015.0 320.0Q3986 288 3924 288Q3835 288 3801.0 338.0Q3767 388 3767 482V760H3679V224H3750L3763 297H3768Q3794 255 3840.0 234.5Q3886 214 3937 214ZM4646 612Q4646 690 4588.0 730.0Q4530 770 4432 770Q4376 770 4335.5 761.0Q4295 752 4264 736V656Q4296 672 4341.5 685.5Q4387 699 4434 699Q4501 699 4531.0 677.5Q4561 656 4561 620Q4561 600 4550.0 584.0Q4539 568 4510.5 552.0Q4482 536 4429 516Q4377 496 4340.0 476.0Q4303 456 4283.0 428.0Q4263 400 4263 356Q4263 288 4318.5 251.0Q4374 214 4464 214Q4513 214 4555.5 223.5Q4598 233 4635 250L4605 320Q4571 306 4534.0 296.0Q4497 286 4458 286Q4404 286 4375.5 303.5Q4347 321 4347 351Q4347 373 4360.0 388.5Q4373 404 4403.5 418.5Q4434 433 4485 453Q4536 472 4572.0 492.0Q4608 512 4627.0 540.5Q4646 569 4646 612ZM5486 760 5400 539H5117L5032 760H4941L5220 43H5301L5579 760ZM5293 243Q5290 235 5283.0 214.0Q5276 193 5269.5 170.5Q5263 148 5259 136Q5254 156 5248.5 176.5Q5243 197 5237.5 214.0Q5232 231 5228 243L5147 459H5373ZM5855 770Q5755 770 5695.0 700.5Q5635 631 5635 493Q5635 355 5695.5 284.5Q5756 214 5856 214Q5918 214 5957.5 237.0Q5997 260 6022 293H6028Q6027 280 6024.5 254.5Q6022 229 6022 214V0H6110V760H6039L6026 688H6022Q5998 722 5958.0 746.0Q5918 770 5855 770ZM5869 697Q5954 697 5988.5 650.5Q6023 604 6023 510V494Q6023 394 5990.0 340.5Q5957 287 5868 287Q5797 287 5761.5 343.5Q5726 400 5726 495Q5726 591 5761.5 644.0Q5797 697 5869 697ZM6368 760H6280V0H6368ZM6741 215Q6839 215 6886.0 258.0Q6933 301 6933 395V760H6869L6852 684H6848Q6813 728 6774.5 749.0Q6736 770 6668 770Q6595 770 6547.0 731.5Q6499 693 6499 611Q6499 531 6562.0 487.5Q6625 444 6756 440L6847 437V405Q6847 338 6818.0 312.0Q6789 286 6736 286Q6694 286 6656.0 298.5Q6618 311 6585 327L6558 261Q6593 242 6641.0 228.5Q6689 215 6741 215ZM6767 501Q6667 505 6628.5 533.0Q6590 561 6590 612Q6590 657 6617.5 678.0Q6645 699 6688 699Q6756 699 6801.0 661.5Q6846 624 6846 546V498ZM7687 214Q7778 214 7823.0 260.5Q7868 307 7868 411V760H7781V415Q7781 288 7672 288Q7594 288 7560.5 333.0Q7527 378 7527 464V760H7440V415Q7440 288 7330 288Q7249 288 7218.0 338.0Q7187 388 7187 482V760H7099V224H7170L7183 297H7188Q7213 255 7255.5 234.5Q7298 214 7346 214Q7408 214 7449.5 236.0Q7491 258 7510 304H7515Q7542 258 7588.5 236.0Q7635 214 7687 214Z" /></svg>