<svg viewBox="0 0 11947 1362" xmlns="http://www.w3.org/2000/svg"><path d="M663 1069H558L176 476H172Q174 511 177.0 563.0Q180 615 180 670V1069H97V355H201L582 946H586Q585 930 583.5 898.0Q582 866 580.5 828.0Q579 790 579 758V355H663ZM1311 800Q1311 933 1243.5 1006.0Q1176 1079 1061 1079Q990 1079 934.5 1046.5Q879 1014 847.0 951.5Q815 889 815 800Q815 667 882.0 595.0Q949 523 1064 523Q1137 523 1192.5 555.5Q1248 588 1279.5 649.5Q1311 711 1311 800ZM906 800Q906 895 943.5 950.5Q981 1006 1063 1006Q1144 1006 1182.0 950.5Q1220 895 1220 800Q1220 705 1182.0 651.0Q1144 597 1062 597Q980 597 943.0 651.0Q906 705 906 800ZM1629 1007Q1649 1007 1670.0 1003.5Q1691 1000 1704 996V1063Q1690 1070 1664.0 1074.5Q1638 1079 1614 1079Q1572 1079 1536.5 1064.5Q1501 1050 1479.0 1014.0Q1457 978 1457 913V601H1381V559L1458 524L1493 410H1545V533H1700V601H1545V911Q1545 960 1568.5 983.5Q1592 1007 1629 1007ZM2277 800Q2277 933 2209.5 1006.0Q2142 1079 2027 1079Q1956 1079 1900.5 1046.5Q1845 1014 1813.0 951.5Q1781 889 1781 800Q1781 667 1848.0 595.0Q1915 523 2030 523Q2103 523 2158.5 555.5Q2214 588 2245.5 649.5Q2277 711 2277 800ZM1872 800Q1872 895 1909.5 950.5Q1947 1006 2029 1006Q2110 1006 2148.0 950.5Q2186 895 2186 800Q2186 705 2148.0 651.0Q2110 597 2028 597Q1946 597 1909.0 651.0Q1872 705 1872 800ZM3093 878Q3093 973 3024.0 1026.0Q2955 1079 2838 1079Q2778 1079 2727.0 1070.0Q2676 1061 2642 1045V959Q2678 975 2731.5 988.0Q2785 1001 2842 1001Q2922 1001 2962.5 970.0Q3003 939 3003 886Q3003 851 2988.0 827.0Q2973 803 2936.5 782.5Q2900 762 2835 739Q2789 722 2754.5 702.5Q2720 683 2697.0 658.0Q2674 633 2662.5 601.0Q2651 569 2651 527Q2651 470 2680.0 429.5Q2709 389 2760.5 367.0Q2812 345 2879 345Q2938 345 2987.0 356.0Q3036 367 3076 385L3048 462Q3011 446 2967.5 435.0Q2924 424 2877 424Q2810 424 2776.0 452.5Q2742 481 2742 528Q2742 564 2757.0 588.0Q2772 612 2806.0 631.0Q2840 650 2898 672Q2961 695 3004.5 721.5Q3048 748 3070.5 785.0Q3093 822 3093 878ZM3428 524Q3526 524 3573.0 567.0Q3620 610 3620 704V1069H3556L3539 993H3535Q3500 1037 3461.5 1058.0Q3423 1079 3355 1079Q3282 1079 3234.0 1040.5Q3186 1002 3186 920Q3186 840 3249.0 796.5Q3312 753 3443 749L3534 746V714Q3534 647 3505.0 621.0Q3476 595 3423 595Q3381 595 3343.0 607.5Q3305 620 3272 636L3245 570Q3280 551 3328.0 537.5Q3376 524 3428 524ZM3454 810Q3354 814 3315.5 842.0Q3277 870 3277 921Q3277 966 3304.5 987.0Q3332 1008 3375 1008Q3443 1008 3488.0 970.5Q3533 933 3533 855V807ZM4044 523Q4140 523 4189.0 569.5Q4238 616 4238 720V1069H4151V726Q4151 661 4122.0 629.0Q4093 597 4031 597Q3942 597 3908.0 647.0Q3874 697 3874 791V1069H3786V533H3857L3870 606H3875Q3901 564 3947.0 543.5Q3993 523 4044 523ZM4753 921Q4753 999 4695.0 1039.0Q4637 1079 4539 1079Q4483 1079 4442.5 1070.0Q4402 1061 4371 1045V965Q4403 981 4448.5 994.5Q4494 1008 4541 1008Q4608 1008 4638.0 986.5Q4668 965 4668 929Q4668 909 4657.0 893.0Q4646 877 4617.5 861.0Q4589 845 4536 825Q4484 805 4447.0 785.0Q4410 765 4390.0 737.0Q4370 709 4370 665Q4370 597 4425.5 560.0Q4481 523 4571 523Q4620 523 4662.5 532.5Q4705 542 4742 559L4712 629Q4678 615 4641.0 605.0Q4604 595 4565 595Q4511 595 4482.5 612.5Q4454 630 4454 660Q4454 682 4467.0 697.5Q4480 713 4510.5 727.5Q4541 742 4592 762Q4643 781 4679.0 801.0Q4715 821 4734.0 849.5Q4753 878 4753 921ZM5560 878Q5560 973 5491.0 1026.0Q5422 1079 5305 1079Q5245 1079 5194.0 1070.0Q5143 1061 5109 1045V959Q5145 975 5198.5 988.0Q5252 1001 5309 1001Q5389 1001 5429.5 970.0Q5470 939 5470 886Q5470 851 5455.0 827.0Q5440 803 5403.5 782.5Q5367 762 5302 739Q5256 722 5221.5 702.5Q5187 683 5164.0 658.0Q5141 633 5129.5 601.0Q5118 569 5118 527Q5118 470 5147.0 429.5Q5176 389 5227.5 367.0Q5279 345 5346 345Q5405 345 5454.0 356.0Q5503 367 5543 385L5515 462Q5478 446 5434.5 435.0Q5391 424 5344 424Q5277 424 5243.0 452.5Q5209 481 5209 528Q5209 564 5224.0 588.0Q5239 612 5273.0 631.0Q5307 650 5365 672Q5428 695 5471.5 721.5Q5515 748 5537.5 785.0Q5560 822 5560 878ZM6158 800Q6158 933 6090.5 1006.0Q6023 1079 5908 1079Q5837 1079 5781.5 1046.5Q5726 1014 5694.0 951.5Q5662 889 5662 800Q5662 667 5729.0 595.0Q5796 523 5911 523Q5984 523 6039.5 555.5Q6095 588 6126.5 649.5Q6158 711 6158 800ZM5753 800Q5753 895 5790.5 950.5Q5828 1006 5910 1006Q5991 1006 6029.0 950.5Q6067 895 6067 800Q6067 705 6029.0 651.0Q5991 597 5909 597Q5827 597 5790.0 651.0Q5753 705 5753 800ZM6547 523Q6562 523 6579.5 524.5Q6597 526 6610 529L6599 610Q6586 607 6570.5 605.0Q6555 603 6541 603Q6500 603 6464.0 625.5Q6428 648 6406.5 688.5Q6385 729 6385 783V1069H6297V533H6369L6379 631H6383Q6409 587 6450.0 555.0Q6491 523 6547 523ZM6913 524Q7011 524 7058.0 567.0Q7105 610 7105 704V1069H7041L7024 993H7020Q6985 1037 6946.5 1058.0Q6908 1079 6840 1079Q6767 1079 6719.0 1040.5Q6671 1002 6671 920Q6671 840 6734.0 796.5Q6797 753 6928 749L7019 746V714Q7019 647 6990.0 621.0Q6961 595 6908 595Q6866 595 6828.0 607.5Q6790 620 6757 636L6730 570Q6765 551 6813.0 537.5Q6861 524 6913 524ZM6939 810Q6839 814 6800.5 842.0Q6762 870 6762 921Q6762 966 6789.5 987.0Q6817 1008 6860 1008Q6928 1008 6973.0 970.5Q7018 933 7018 855V807ZM7948 878Q7948 973 7879.0 1026.0Q7810 1079 7693 1079Q7633 1079 7582.0 1070.0Q7531 1061 7497 1045V959Q7533 975 7586.5 988.0Q7640 1001 7697 1001Q7777 1001 7817.5 970.0Q7858 939 7858 886Q7858 851 7843.0 827.0Q7828 803 7791.5 782.5Q7755 762 7690 739Q7644 722 7609.5 702.5Q7575 683 7552.0 658.0Q7529 633 7517.5 601.0Q7506 569 7506 527Q7506 470 7535.0 429.5Q7564 389 7615.5 367.0Q7667 345 7734 345Q7793 345 7842.0 356.0Q7891 367 7931 385L7903 462Q7866 446 7822.5 435.0Q7779 424 7732 424Q7665 424 7631.0 452.5Q7597 481 7597 528Q7597 564 7612.0 588.0Q7627 612 7661.0 631.0Q7695 650 7753 672Q7816 695 7859.5 721.5Q7903 748 7925.5 785.0Q7948 822 7948 878ZM8546 800Q8546 933 8478.5 1006.0Q8411 1079 8296 1079Q8225 1079 8169.5 1046.5Q8114 1014 8082.0 951.5Q8050 889 8050 800Q8050 667 8117.0 595.0Q8184 523 8299 523Q8372 523 8427.5 555.5Q8483 588 8514.5 649.5Q8546 711 8546 800ZM8141 800Q8141 895 8178.5 950.5Q8216 1006 8298 1006Q8379 1006 8417.0 950.5Q8455 895 8455 800Q8455 705 8417.0 651.0Q8379 597 8297 597Q8215 597 8178.0 651.0Q8141 705 8141 800ZM9273 523Q9364 523 9409.0 569.5Q9454 616 9454 720V1069H9367V724Q9367 597 9258 597Q9180 597 9146.5 642.0Q9113 687 9113 773V1069H9026V724Q9026 597 8916 597Q8835 597 8804.0 647.0Q8773 697 8773 791V1069H8685V533H8756L8769 606H8774Q8799 564 8841.5 543.5Q8884 523 8932 523Q8994 523 9035.5 545.0Q9077 567 9096 613H9101Q9128 567 9174.5 545.0Q9221 523 9273 523ZM9875 523Q9974 523 10034.5 592.0Q10095 661 10095 800Q10095 937 10034.5 1008.0Q9974 1079 9874 1079Q9812 1079 9771.5 1055.5Q9731 1032 9708 1001H9702Q9704 1018 9706.0 1044.0Q9708 1070 9708 1089V1309H9620V533H9692L9704 606H9708Q9732 571 9771.0 547.0Q9810 523 9875 523ZM9859 597Q9777 597 9743.5 643.0Q9710 689 9708 783V800Q9708 899 9740.5 952.5Q9773 1006 9861 1006Q9910 1006 9941.5 979.0Q9973 952 9988.5 905.5Q10004 859 10004 799Q10004 707 9968.5 652.0Q9933 597 9859 597ZM10442 523Q10511 523 10560.5 553.0Q10610 583 10636.5 637.5Q10663 692 10663 765V818H10296Q10298 909 10342.5 956.5Q10387 1004 10467 1004Q10518 1004 10557.5 994.5Q10597 985 10639 967V1044Q10598 1062 10558.0 1070.5Q10518 1079 10463 1079Q10387 1079 10328.5 1048.0Q10270 1017 10237.5 955.5Q10205 894 10205 805Q10205 717 10234.5 654.0Q10264 591 10317.5 557.0Q10371 523 10442 523ZM10441 595Q10378 595 10341.5 635.5Q10305 676 10298 748H10571Q10570 680 10539.0 637.5Q10508 595 10441 595ZM11057 523Q11153 523 11202.0 569.5Q11251 616 11251 720V1069H11164V726Q11164 661 11135.0 629.0Q11106 597 11044 597Q10955 597 10921.0 647.0Q10887 697 10887 791V1069H10799V533H10870L10883 606H10888Q10914 564 10960.0 543.5Q11006 523 11057 523ZM11607 523Q11660 523 11702.5 543.0Q11745 563 11775 604H11780L11792 533H11862V1078Q11862 1193 11803.5 1251.0Q11745 1309 11622 1309Q11564 1309 11515.5 1300.5Q11467 1292 11429 1275V1194Q11508 1236 11627 1236Q11696 1236 11735.5 1195.5Q11775 1155 11775 1085V1064Q11775 1052 11776.0 1029.5Q11777 1007 11778 998H11774Q11746 1039 11704.5 1059.0Q11663 1079 11608 1079Q11504 1079 11445.5 1006.0Q11387 933 11387 802Q11387 674 11445.5 598.5Q11504 523 11607 523ZM11619 597Q11552 597 11515.0 650.5Q11478 704 11478 803Q11478 902 11514.5 954.5Q11551 1007 11621 1007Q11702 1007 11739.0 963.5Q11776 920 11776 823V802Q11776 692 11738.0 644.5Q11700 597 11619 597Z" fill="currentColor" /></svg>