<svg viewBox="0 0 11641 1412" xmlns="http://www.w3.org/2000/svg"><path d="M663 926H558L176 333H172Q174 356 175.5 387.5Q177 419 178.5 454.5Q180 490 180 527V926H97V212H201L582 803H586Q585 787 583.5 755.0Q582 723 580.5 685.0Q579 647 579 615V212H663ZM1311 657Q1311 746 1280.5 808.5Q1250 871 1194.0 903.5Q1138 936 1061 936Q990 936 934.5 903.5Q879 871 847.0 808.5Q815 746 815 657Q815 524 882.0 452.0Q949 380 1064 380Q1137 380 1192.5 412.5Q1248 445 1279.5 506.5Q1311 568 1311 657ZM906 657Q906 720 922.5 766.5Q939 813 974.0 838.0Q1009 863 1063 863Q1117 863 1152.0 838.0Q1187 813 1203.5 766.5Q1220 720 1220 657Q1220 593 1203.0 548.0Q1186 503 1151.5 478.5Q1117 454 1062 454Q980 454 943.0 508.0Q906 562 906 657ZM1629 864Q1649 864 1670.0 860.5Q1691 857 1704 853V920Q1690 927 1664.0 931.5Q1638 936 1614 936Q1572 936 1536.5 921.5Q1501 907 1479.0 871.0Q1457 835 1457 770V458H1381V416L1458 381L1493 267H1545V390H1700V458H1545V768Q1545 817 1568.5 840.5Q1592 864 1629 864ZM2277 657Q2277 746 2246.5 808.5Q2216 871 2160.0 903.5Q2104 936 2027 936Q1956 936 1900.5 903.5Q1845 871 1813.0 808.5Q1781 746 1781 657Q1781 524 1848.0 452.0Q1915 380 2030 380Q2103 380 2158.5 412.5Q2214 445 2245.5 506.5Q2277 568 2277 657ZM1872 657Q1872 720 1888.5 766.5Q1905 813 1940.0 838.0Q1975 863 2029 863Q2083 863 2118.0 838.0Q2153 813 2169.5 766.5Q2186 720 2186 657Q2186 593 2169.0 548.0Q2152 503 2117.5 478.5Q2083 454 2028 454Q1946 454 1909.0 508.0Q1872 562 1872 657ZM3093 735Q3093 799 3062.0 843.5Q3031 888 2973.5 912.0Q2916 936 2838 936Q2798 936 2761.5 932.0Q2725 928 2695.0 920.5Q2665 913 2642 902V816Q2678 832 2731.5 845.0Q2785 858 2842 858Q2895 858 2931.0 844.0Q2967 830 2985.0 804.0Q3003 778 3003 743Q3003 708 2988.0 684.0Q2973 660 2936.5 639.5Q2900 619 2835 596Q2774 574 2733.0 546.0Q2692 518 2671.5 478.5Q2651 439 2651 384Q2651 327 2680.0 286.5Q2709 246 2760.5 224.0Q2812 202 2879 202Q2938 202 2987.0 213.0Q3036 224 3076 242L3048 319Q3011 303 2967.5 292.0Q2924 281 2877 281Q2832 281 2802.0 294.0Q2772 307 2757.0 330.5Q2742 354 2742 385Q2742 421 2757.0 445.0Q2772 469 2806.0 488.0Q2840 507 2898 529Q2961 552 3004.5 578.5Q3048 605 3070.5 642.0Q3093 679 3093 735ZM3428 381Q3526 381 3573.0 424.0Q3620 467 3620 561V926H3556L3539 850H3535Q3512 879 3487.5 898.5Q3463 918 3431.5 927.0Q3400 936 3355 936Q3282 936 3234.0 897.5Q3186 859 3186 777Q3186 697 3249.0 653.5Q3312 610 3443 606L3534 603V571Q3534 504 3505.0 478.0Q3476 452 3423 452Q3381 452 3343.0 464.5Q3305 477 3272 493L3245 427Q3280 408 3328.0 394.5Q3376 381 3428 381ZM3454 667Q3354 671 3315.5 699.0Q3277 727 3277 778Q3277 823 3304.5 844.0Q3332 865 3375 865Q3443 865 3488.0 827.5Q3533 790 3533 712V664ZM4044 380Q4140 380 4189.0 426.5Q4238 473 4238 577V926H4151V583Q4151 518 4122.0 486.0Q4093 454 4031 454Q3942 454 3908.0 504.0Q3874 554 3874 648V926H3786V390H3857L3870 463H3875Q3893 435 3919.5 416.5Q3946 398 3978.0 389.0Q4010 380 4044 380ZM4753 778Q4753 830 4727.0 865.0Q4701 900 4653.0 918.0Q4605 936 4539 936Q4483 936 4442.5 927.0Q4402 918 4371 902V822Q4403 838 4448.5 851.5Q4494 865 4541 865Q4608 865 4638.0 843.5Q4668 822 4668 786Q4668 766 4657.0 750.0Q4646 734 4617.5 718.0Q4589 702 4536 682Q4484 662 4447.0 642.0Q4410 622 4390.0 594.0Q4370 566 4370 522Q4370 454 4425.5 417.0Q4481 380 4571 380Q4620 380 4662.5 389.5Q4705 399 4742 416L4712 486Q4678 472 4641.0 462.0Q4604 452 4565 452Q4511 452 4482.5 469.5Q4454 487 4454 517Q4454 539 4467.0 554.5Q4480 570 4510.5 584.5Q4541 599 4592 619Q4643 638 4679.0 658.0Q4715 678 4734.0 706.5Q4753 735 4753 778ZM5560 735Q5560 799 5529.0 843.5Q5498 888 5440.5 912.0Q5383 936 5305 936Q5265 936 5228.5 932.0Q5192 928 5162.0 920.5Q5132 913 5109 902V816Q5145 832 5198.5 845.0Q5252 858 5309 858Q5362 858 5398.0 844.0Q5434 830 5452.0 804.0Q5470 778 5470 743Q5470 708 5455.0 684.0Q5440 660 5403.5 639.5Q5367 619 5302 596Q5241 574 5200.0 546.0Q5159 518 5138.5 478.5Q5118 439 5118 384Q5118 327 5147.0 286.5Q5176 246 5227.5 224.0Q5279 202 5346 202Q5405 202 5454.0 213.0Q5503 224 5543 242L5515 319Q5478 303 5434.5 292.0Q5391 281 5344 281Q5299 281 5269.0 294.0Q5239 307 5224.0 330.5Q5209 354 5209 385Q5209 421 5224.0 445.0Q5239 469 5273.0 488.0Q5307 507 5365 529Q5428 552 5471.5 578.5Q5515 605 5537.5 642.0Q5560 679 5560 735ZM5608 390H5702L5818 695Q5833 735 5845.0 771.5Q5857 808 5863 841H5867Q5873 816 5886.0 775.5Q5899 735 5913 694L6022 390H6117L5886 1000Q5867 1050 5841.5 1087.5Q5816 1125 5779.5 1145.5Q5743 1166 5691 1166Q5667 1166 5649.0 1163.5Q5631 1161 5618 1158V1088Q5629 1090 5644.5 1092.0Q5660 1094 5677 1094Q5723 1094 5751.5 1068.0Q5780 1042 5796 999L5824 928ZM6452 380Q6467 380 6484.5 381.5Q6502 383 6515 386L6504 467Q6491 464 6475.5 462.0Q6460 460 6446 460Q6405 460 6369.0 482.5Q6333 505 6311.5 545.5Q6290 586 6290 640V926H6202V390H6274L6284 488H6288Q6314 444 6355.0 412.0Q6396 380 6452 380ZM6703 390V926H6615V390ZM6660 189Q6680 189 6695.5 202.5Q6711 216 6711 245Q6711 273 6695.5 287.0Q6680 301 6660 301Q6638 301 6623.0 287.0Q6608 273 6608 245Q6608 216 6623.0 202.5Q6638 189 6660 189ZM7076 381Q7174 381 7221.0 424.0Q7268 467 7268 561V926H7204L7187 850H7183Q7160 879 7135.5 898.5Q7111 918 7079.5 927.0Q7048 936 7003 936Q6930 936 6882.0 897.5Q6834 859 6834 777Q6834 697 6897.0 653.5Q6960 610 7091 606L7182 603V571Q7182 504 7153.0 478.0Q7124 452 7071 452Q7029 452 6991.0 464.5Q6953 477 6920 493L6893 427Q6928 408 6976.0 394.5Q7024 381 7076 381ZM7102 667Q7002 671 6963.5 699.0Q6925 727 6925 778Q6925 823 6952.5 844.0Q6980 865 7023 865Q7091 865 7136.0 827.5Q7181 790 7181 712V664ZM7649 936Q7578 936 7522.5 907.0Q7467 878 7435.5 817.0Q7404 756 7404 661Q7404 562 7437.0 500.0Q7470 438 7526.5 409.0Q7583 380 7655 380Q7696 380 7734.0 388.5Q7772 397 7796 409L7769 482Q7745 473 7713.0 465.0Q7681 457 7653 457Q7599 457 7564.0 480.0Q7529 503 7512.0 548.0Q7495 593 7495 660Q7495 724 7512.0 769.0Q7529 814 7563.0 837.0Q7597 860 7648 860Q7692 860 7725.5 851.0Q7759 842 7787 829V907Q7760 921 7727.5 928.5Q7695 936 7649 936ZM8585 926H8186V212H8585V291H8276V514H8567V592H8276V847H8585ZM8933 381Q9031 381 9078.0 424.0Q9125 467 9125 561V926H9061L9044 850H9040Q9017 879 8992.5 898.5Q8968 918 8936.5 927.0Q8905 936 8860 936Q8787 936 8739.0 897.5Q8691 859 8691 777Q8691 697 8754.0 653.5Q8817 610 8948 606L9039 603V571Q9039 504 9010.0 478.0Q8981 452 8928 452Q8886 452 8848.0 464.5Q8810 477 8777 493L8750 427Q8785 408 8833.0 394.5Q8881 381 8933 381ZM8959 667Q8859 671 8820.5 699.0Q8782 727 8782 778Q8782 823 8809.5 844.0Q8837 865 8880 865Q8948 865 8993.0 827.5Q9038 790 9038 712V664ZM9640 778Q9640 830 9614.0 865.0Q9588 900 9540.0 918.0Q9492 936 9426 936Q9370 936 9329.5 927.0Q9289 918 9258 902V822Q9290 838 9335.5 851.5Q9381 865 9428 865Q9495 865 9525.0 843.5Q9555 822 9555 786Q9555 766 9544.0 750.0Q9533 734 9504.5 718.0Q9476 702 9423 682Q9371 662 9334.0 642.0Q9297 622 9277.0 594.0Q9257 566 9257 522Q9257 454 9312.5 417.0Q9368 380 9458 380Q9507 380 9549.5 389.5Q9592 399 9629 416L9599 486Q9565 472 9528.0 462.0Q9491 452 9452 452Q9398 452 9369.5 469.5Q9341 487 9341 517Q9341 539 9354.0 554.5Q9367 570 9397.5 584.5Q9428 599 9479 619Q9530 638 9566.0 658.0Q9602 678 9621.0 706.5Q9640 735 9640 778ZM9949 864Q9969 864 9990.0 860.5Q10011 857 10024 853V920Q10010 927 9984.0 931.5Q9958 936 9934 936Q9892 936 9856.5 921.5Q9821 907 9799.0 871.0Q9777 835 9777 770V458H9701V416L9778 381L9813 267H9865V390H10020V458H9865V768Q9865 817 9888.5 840.5Q9912 864 9949 864ZM10338 380Q10407 380 10456.5 410.0Q10506 440 10532.5 494.5Q10559 549 10559 622V675H10192Q10194 766 10238.5 813.5Q10283 861 10363 861Q10414 861 10453.5 851.5Q10493 842 10535 824V901Q10494 919 10454.0 927.5Q10414 936 10359 936Q10283 936 10224.5 905.0Q10166 874 10133.5 812.5Q10101 751 10101 662Q10101 574 10130.5 511.0Q10160 448 10213.5 414.0Q10267 380 10338 380ZM10337 452Q10274 452 10237.5 492.5Q10201 533 10194 605H10467Q10466 537 10435.0 494.5Q10404 452 10337 452ZM10945 380Q10960 380 10977.5 381.5Q10995 383 11008 386L10997 467Q10984 464 10968.5 462.0Q10953 460 10939 460Q10898 460 10862.0 482.5Q10826 505 10804.5 545.5Q10783 586 10783 640V926H10695V390H10767L10777 488H10781Q10807 444 10848.0 412.0Q10889 380 10945 380ZM11366 380Q11462 380 11511.0 426.5Q11560 473 11560 577V926H11473V583Q11473 518 11444.0 486.0Q11415 454 11353 454Q11264 454 11230.0 504.0Q11196 554 11196 648V926H11108V390H11179L11192 463H11197Q11215 435 11241.5 416.5Q11268 398 11300.0 389.0Q11332 380 11366 380Z" fill="currentColor" /></svg>