<svg viewBox="0 0 7546 1240" xmlns="http://www.w3.org/2000/svg"><path d="M663 870H558L176 277H172Q174 300 175.5 331.5Q177 363 178.5 398.5Q180 434 180 471V870H97V156H201L582 747H586Q585 731 583.5 699.0Q582 667 580.5 629.0Q579 591 579 559V156H663ZM1311 601Q1311 668 1293.5 719.5Q1276 771 1243.5 807.0Q1211 843 1164.5 861.5Q1118 880 1061 880Q1008 880 963.0 861.5Q918 843 885.0 807.0Q852 771 833.5 719.5Q815 668 815 601Q815 512 845.0 450.5Q875 389 931.0 356.5Q987 324 1064 324Q1137 324 1192.5 356.5Q1248 389 1279.5 450.5Q1311 512 1311 601ZM906 601Q906 664 922.5 710.5Q939 757 974.0 782.0Q1009 807 1063 807Q1117 807 1152.0 782.0Q1187 757 1203.5 710.5Q1220 664 1220 601Q1220 537 1203.0 492.0Q1186 447 1151.5 422.5Q1117 398 1062 398Q980 398 943.0 452.0Q906 506 906 601ZM1629 808Q1649 808 1670.0 804.5Q1691 801 1704 797V864Q1690 871 1664.0 875.5Q1638 880 1614 880Q1572 880 1536.5 865.5Q1501 851 1479.0 815.0Q1457 779 1457 714V402H1381V360L1458 325L1493 211H1545V334H1700V402H1545V712Q1545 761 1568.5 784.5Q1592 808 1629 808ZM2277 601Q2277 668 2259.5 719.5Q2242 771 2209.5 807.0Q2177 843 2130.5 861.5Q2084 880 2027 880Q1974 880 1929.0 861.5Q1884 843 1851.0 807.0Q1818 771 1799.5 719.5Q1781 668 1781 601Q1781 512 1811.0 450.5Q1841 389 1897.0 356.5Q1953 324 2030 324Q2103 324 2158.5 356.5Q2214 389 2245.5 450.5Q2277 512 2277 601ZM1872 601Q1872 664 1888.5 710.5Q1905 757 1940.0 782.0Q1975 807 2029 807Q2083 807 2118.0 782.0Q2153 757 2169.5 710.5Q2186 664 2186 601Q2186 537 2169.0 492.0Q2152 447 2117.5 422.5Q2083 398 2028 398Q1946 398 1909.0 452.0Q1872 506 1872 601ZM3093 679Q3093 743 3062.0 787.5Q3031 832 2973.5 856.0Q2916 880 2838 880Q2798 880 2761.5 876.0Q2725 872 2695.0 864.5Q2665 857 2642 846V760Q2678 776 2731.5 789.0Q2785 802 2842 802Q2895 802 2931.0 788.0Q2967 774 2985.0 748.0Q3003 722 3003 687Q3003 652 2988.0 628.0Q2973 604 2936.5 583.5Q2900 563 2835 540Q2789 523 2754.5 503.5Q2720 484 2697.0 459.0Q2674 434 2662.5 402.0Q2651 370 2651 328Q2651 271 2680.0 230.5Q2709 190 2760.5 168.0Q2812 146 2879 146Q2938 146 2987.0 157.0Q3036 168 3076 186L3048 263Q3011 247 2967.5 236.0Q2924 225 2877 225Q2832 225 2802.0 238.0Q2772 251 2757.0 274.5Q2742 298 2742 329Q2742 365 2757.0 389.0Q2772 413 2806.0 432.0Q2840 451 2898 473Q2961 496 3004.5 522.5Q3048 549 3070.5 586.0Q3093 623 3093 679ZM3428 325Q3526 325 3573.0 368.0Q3620 411 3620 505V870H3556L3539 794H3535Q3512 823 3487.5 842.5Q3463 862 3431.5 871.0Q3400 880 3355 880Q3307 880 3268.5 863.0Q3230 846 3208.0 810.5Q3186 775 3186 721Q3186 641 3249.0 597.5Q3312 554 3443 550L3534 547V515Q3534 448 3505.0 422.0Q3476 396 3423 396Q3381 396 3343.0 408.5Q3305 421 3272 437L3245 371Q3280 352 3328.0 338.5Q3376 325 3428 325ZM3454 611Q3354 615 3315.5 643.0Q3277 671 3277 722Q3277 767 3304.5 788.0Q3332 809 3375 809Q3443 809 3488.0 771.5Q3533 734 3533 656V608ZM4044 324Q4140 324 4189.0 370.5Q4238 417 4238 521V870H4151V527Q4151 462 4122.0 430.0Q4093 398 4031 398Q3942 398 3908.0 448.0Q3874 498 3874 592V870H3786V334H3857L3870 407H3875Q3893 379 3919.5 360.5Q3946 342 3978.0 333.0Q4010 324 4044 324ZM4753 722Q4753 774 4727.0 809.0Q4701 844 4653.0 862.0Q4605 880 4539 880Q4483 880 4442.5 871.0Q4402 862 4371 846V766Q4403 782 4448.5 795.5Q4494 809 4541 809Q4608 809 4638.0 787.5Q4668 766 4668 730Q4668 710 4657.0 694.0Q4646 678 4617.5 662.0Q4589 646 4536 626Q4484 606 4447.0 586.0Q4410 566 4390.0 538.0Q4370 510 4370 466Q4370 398 4425.5 361.0Q4481 324 4571 324Q4620 324 4662.5 333.5Q4705 343 4742 360L4712 430Q4678 416 4641.0 406.0Q4604 396 4565 396Q4511 396 4482.5 413.5Q4454 431 4454 461Q4454 483 4467.0 498.5Q4480 514 4510.5 528.5Q4541 543 4592 563Q4643 582 4679.0 602.0Q4715 622 4734.0 650.5Q4753 679 4753 722ZM5381 870H5291V235H5068V156H5603V235H5381ZM5822 325Q5920 325 5967.0 368.0Q6014 411 6014 505V870H5950L5933 794H5929Q5906 823 5881.5 842.5Q5857 862 5825.5 871.0Q5794 880 5749 880Q5701 880 5662.5 863.0Q5624 846 5602.0 810.5Q5580 775 5580 721Q5580 641 5643.0 597.5Q5706 554 5837 550L5928 547V515Q5928 448 5899.0 422.0Q5870 396 5817 396Q5775 396 5737.0 408.5Q5699 421 5666 437L5639 371Q5674 352 5722.0 338.5Q5770 325 5822 325ZM5848 611Q5748 615 5709.5 643.0Q5671 671 5671 722Q5671 767 5698.5 788.0Q5726 809 5769 809Q5837 809 5882.0 771.5Q5927 734 5927 656V608ZM6768 324Q6859 324 6904.0 370.5Q6949 417 6949 521V870H6862V525Q6862 462 6835.5 430.0Q6809 398 6753 398Q6675 398 6641.5 443.0Q6608 488 6608 574V870H6521V525Q6521 483 6509.0 454.5Q6497 426 6473.0 412.0Q6449 398 6411 398Q6357 398 6326.0 420.5Q6295 443 6281.5 486.0Q6268 529 6268 592V870H6180V334H6251L6264 407H6269Q6286 379 6310.5 360.5Q6335 342 6365.0 333.0Q6395 324 6427 324Q6489 324 6530.5 346.0Q6572 368 6591 414H6596Q6623 368 6669.5 346.0Q6716 324 6768 324ZM7203 334V870H7115V334ZM7160 133Q7180 133 7195.5 146.5Q7211 160 7211 189Q7211 217 7195.5 231.0Q7180 245 7160 245Q7138 245 7123.0 231.0Q7108 217 7108 189Q7108 160 7123.0 146.5Q7138 133 7160 133ZM7461 870H7373V110H7461Z" fill="currentColor" /></svg>