<svg viewBox="0 0 9482 1596" xmlns="http://www.w3.org/2000/svg"><path d="M663 1239H558L176 646H172Q174 681 177.0 733.0Q180 785 180 840V1239H97V525H201L582 1116H586Q585 1100 583.5 1068.0Q582 1036 580.5 998.0Q579 960 579 928V525H663ZM1311 970Q1311 1103 1243.5 1176.0Q1176 1249 1061 1249Q990 1249 934.5 1216.5Q879 1184 847.0 1121.5Q815 1059 815 970Q815 837 882.0 765.0Q949 693 1064 693Q1137 693 1192.5 725.5Q1248 758 1279.5 819.5Q1311 881 1311 970ZM906 970Q906 1065 943.5 1120.5Q981 1176 1063 1176Q1144 1176 1182.0 1120.5Q1220 1065 1220 970Q1220 875 1182.0 821.0Q1144 767 1062 767Q980 767 943.0 821.0Q906 875 906 970ZM1629 1177Q1649 1177 1670.0 1173.5Q1691 1170 1704 1166V1233Q1690 1240 1664.0 1244.5Q1638 1249 1614 1249Q1572 1249 1536.5 1234.5Q1501 1220 1479.0 1184.0Q1457 1148 1457 1083V771H1381V729L1458 694L1493 580H1545V703H1700V771H1545V1081Q1545 1130 1568.5 1153.5Q1592 1177 1629 1177ZM2277 970Q2277 1103 2209.5 1176.0Q2142 1249 2027 1249Q1956 1249 1900.5 1216.5Q1845 1184 1813.0 1121.5Q1781 1059 1781 970Q1781 837 1848.0 765.0Q1915 693 2030 693Q2103 693 2158.5 725.5Q2214 758 2245.5 819.5Q2277 881 2277 970ZM1872 970Q1872 1065 1909.5 1120.5Q1947 1176 2029 1176Q2110 1176 2148.0 1120.5Q2186 1065 2186 970Q2186 875 2148.0 821.0Q2110 767 2028 767Q1946 767 1909.0 821.0Q1872 875 1872 970ZM3093 1048Q3093 1143 3024.0 1196.0Q2955 1249 2838 1249Q2778 1249 2727.0 1240.0Q2676 1231 2642 1215V1129Q2678 1145 2731.5 1158.0Q2785 1171 2842 1171Q2922 1171 2962.5 1140.0Q3003 1109 3003 1056Q3003 1021 2988.0 997.0Q2973 973 2936.5 952.5Q2900 932 2835 909Q2744 876 2697.5 828.0Q2651 780 2651 697Q2651 640 2680.0 599.5Q2709 559 2760.5 537.0Q2812 515 2879 515Q2938 515 2987.0 526.0Q3036 537 3076 555L3048 632Q3011 616 2967.5 605.0Q2924 594 2877 594Q2810 594 2776.0 622.5Q2742 651 2742 698Q2742 734 2757.0 758.0Q2772 782 2806.0 801.0Q2840 820 2898 842Q2961 865 3004.5 891.5Q3048 918 3070.5 955.0Q3093 992 3093 1048ZM3428 694Q3526 694 3573.0 737.0Q3620 780 3620 874V1239H3556L3539 1163H3535Q3500 1207 3461.5 1228.0Q3423 1249 3355 1249Q3282 1249 3234.0 1210.5Q3186 1172 3186 1090Q3186 1010 3249.0 966.5Q3312 923 3443 919L3534 916V884Q3534 817 3505.0 791.0Q3476 765 3423 765Q3381 765 3343.0 777.5Q3305 790 3272 806L3245 740Q3280 721 3328.0 707.5Q3376 694 3428 694ZM3454 980Q3354 984 3315.5 1012.0Q3277 1040 3277 1091Q3277 1136 3304.5 1157.0Q3332 1178 3375 1178Q3443 1178 3488.0 1140.5Q3533 1103 3533 1025V977ZM4044 693Q4140 693 4189.0 739.5Q4238 786 4238 890V1239H4151V896Q4151 767 4031 767Q3942 767 3908.0 817.0Q3874 867 3874 961V1239H3786V703H3857L3870 776H3875Q3901 734 3947.0 713.5Q3993 693 4044 693ZM4753 1091Q4753 1169 4695.0 1209.0Q4637 1249 4539 1249Q4483 1249 4442.5 1240.0Q4402 1231 4371 1215V1135Q4403 1151 4448.5 1164.5Q4494 1178 4541 1178Q4608 1178 4638.0 1156.5Q4668 1135 4668 1099Q4668 1079 4657.0 1063.0Q4646 1047 4617.5 1031.0Q4589 1015 4536 995Q4484 975 4447.0 955.0Q4410 935 4390.0 907.0Q4370 879 4370 835Q4370 767 4425.5 730.0Q4481 693 4571 693Q4620 693 4662.5 702.5Q4705 712 4742 729L4712 799Q4678 785 4641.0 775.0Q4604 765 4565 765Q4511 765 4482.5 782.5Q4454 800 4454 830Q4454 852 4467.0 867.5Q4480 883 4510.5 897.5Q4541 912 4592 932Q4643 951 4679.0 971.0Q4715 991 4734.0 1019.5Q4753 1048 4753 1091ZM5560 1048Q5560 1143 5491.0 1196.0Q5422 1249 5305 1249Q5245 1249 5194.0 1240.0Q5143 1231 5109 1215V1129Q5145 1145 5198.5 1158.0Q5252 1171 5309 1171Q5389 1171 5429.5 1140.0Q5470 1109 5470 1056Q5470 1021 5455.0 997.0Q5440 973 5403.5 952.5Q5367 932 5302 909Q5211 876 5164.5 828.0Q5118 780 5118 697Q5118 640 5147.0 599.5Q5176 559 5227.5 537.0Q5279 515 5346 515Q5405 515 5454.0 526.0Q5503 537 5543 555L5515 632Q5478 616 5434.5 605.0Q5391 594 5344 594Q5277 594 5243.0 622.5Q5209 651 5209 698Q5209 734 5224.0 758.0Q5239 782 5273.0 801.0Q5307 820 5365 842Q5428 865 5471.5 891.5Q5515 918 5537.5 955.0Q5560 992 5560 1048ZM6158 970Q6158 1103 6090.5 1176.0Q6023 1249 5908 1249Q5837 1249 5781.5 1216.5Q5726 1184 5694.0 1121.5Q5662 1059 5662 970Q5662 837 5729.0 765.0Q5796 693 5911 693Q5984 693 6039.5 725.5Q6095 758 6126.5 819.5Q6158 881 6158 970ZM5753 970Q5753 1065 5790.5 1120.5Q5828 1176 5910 1176Q5991 1176 6029.0 1120.5Q6067 1065 6067 970Q6067 875 6029.0 821.0Q5991 767 5909 767Q5827 767 5790.0 821.0Q5753 875 5753 970ZM6213 703H6307L6423 1008Q6438 1048 6450.0 1084.5Q6462 1121 6468 1154H6472Q6478 1129 6491.0 1088.5Q6504 1048 6518 1007L6627 703H6722L6491 1313Q6463 1389 6418.5 1434.0Q6374 1479 6296 1479Q6272 1479 6254.0 1476.5Q6236 1474 6223 1471V1401Q6234 1403 6249.5 1405.0Q6265 1407 6282 1407Q6328 1407 6356.5 1381.0Q6385 1355 6401 1312L6429 1241ZM7273 970Q7273 1103 7205.5 1176.0Q7138 1249 7023 1249Q6952 1249 6896.5 1216.5Q6841 1184 6809.0 1121.5Q6777 1059 6777 970Q6777 837 6844.0 765.0Q6911 693 7026 693Q7099 693 7154.5 725.5Q7210 758 7241.5 819.5Q7273 881 7273 970ZM6868 970Q6868 1065 6905.5 1120.5Q6943 1176 7025 1176Q7106 1176 7144.0 1120.5Q7182 1065 7182 970Q7182 875 7144.0 821.0Q7106 767 7024 767Q6942 767 6905.0 821.0Q6868 875 6868 970ZM8000 693Q8091 693 8136.0 739.5Q8181 786 8181 890V1239H8094V894Q8094 767 7985 767Q7907 767 7873.5 812.0Q7840 857 7840 943V1239H7753V894Q7753 767 7643 767Q7562 767 7531.0 817.0Q7500 867 7500 961V1239H7412V703H7483L7496 776H7501Q7526 734 7568.5 713.5Q7611 693 7659 693Q7785 693 7823 783H7828Q7855 737 7901.5 715.0Q7948 693 8000 693ZM8435 664Q8435 698 8433.5 727.5Q8432 757 8430 774H8435Q8458 740 8498.0 717.0Q8538 694 8601 694Q8701 694 8761.5 763.5Q8822 833 8822 971Q8822 1109 8761.0 1179.0Q8700 1249 8601 1249Q8538 1249 8498.0 1226.0Q8458 1203 8435 1171H8428L8410 1239H8347V479H8435ZM8586 767Q8501 767 8468.0 816.0Q8435 865 8435 968V972Q8435 1071 8467.5 1123.5Q8500 1176 8588 1176Q8660 1176 8695.5 1123.0Q8731 1070 8731 970Q8731 767 8586 767ZM9428 970Q9428 1103 9360.5 1176.0Q9293 1249 9178 1249Q9107 1249 9051.5 1216.5Q8996 1184 8964.0 1121.5Q8932 1059 8932 970Q8932 837 8999.0 765.0Q9066 693 9181 693Q9254 693 9309.5 725.5Q9365 758 9396.5 819.5Q9428 881 9428 970ZM9023 970Q9023 1065 9060.5 1120.5Q9098 1176 9180 1176Q9261 1176 9299.0 1120.5Q9337 1065 9337 970Q9337 875 9299.0 821.0Q9261 767 9179 767Q9097 767 9060.0 821.0Q9023 875 9023 970Z" fill="currentColor" /></svg>