<svg viewBox="0 0 6293 826" xmlns="http://www.w3.org/2000/svg"><path d="M4 811V782L110 771H129L255 782V811ZM99 811V110H134L135 468V811ZM454 117V88H704V117L599 127H581ZM576 819 126 154 124 153 104 123 0 117V88H158L590 731L573 737L572 438V88H607V819ZM1025 825Q964 825 909.0 796.0Q854 767 819.5 707.5Q785 648 785 558Q785 468 820.0 408.0Q855 348 910.0 318.5Q965 289 1025 289Q1086 289 1141.0 318.5Q1196 348 1231.0 408.0Q1266 468 1266 558Q1266 648 1231.0 707.5Q1196 767 1141.0 796.0Q1086 825 1025 825ZM1025 795Q1105 795 1151.5 733.5Q1198 672 1198 559Q1198 446 1151.5 383.0Q1105 320 1025 320Q945 320 898.5 383.0Q852 446 852 559Q852 672 898.5 733.5Q945 795 1025 795ZM1464 339V303H1644V339ZM1547 825Q1488 825 1460.5 793.5Q1433 762 1433 699Q1433 676 1433.5 658.5Q1434 641 1434 615V339H1329V309L1454 300L1434 315L1457 148H1500L1495 318V330V696Q1495 744 1512.5 765.5Q1530 787 1564 787Q1587 787 1604.5 781.0Q1622 775 1642 764L1656 782Q1636 803 1609.0 814.0Q1582 825 1547 825ZM1964 825Q1903 825 1848.0 796.0Q1793 767 1758.5 707.5Q1724 648 1724 558Q1724 468 1759.0 408.0Q1794 348 1849.0 318.5Q1904 289 1964 289Q2025 289 2080.0 318.5Q2135 348 2170.0 408.0Q2205 468 2205 558Q2205 648 2170.0 707.5Q2135 767 2080.0 796.0Q2025 825 1964 825ZM1964 795Q2044 795 2090.5 733.5Q2137 672 2137 559Q2137 446 2090.5 383.0Q2044 320 1964 320Q1884 320 1837.5 383.0Q1791 446 1791 559Q1791 672 1837.5 733.5Q1884 795 1964 795ZM2775 826Q2713 826 2658.5 808.5Q2604 791 2570 769L2575 625H2612L2635 780L2596 760L2593 730Q2641 766 2679.5 779.0Q2718 792 2772 792Q2855 792 2907.5 754.5Q2960 717 2960 641Q2960 604 2946.0 576.5Q2932 549 2898.5 526.0Q2865 503 2806 480L2765 463Q2679 428 2634.5 379.0Q2590 330 2590 257Q2590 195 2620.5 154.0Q2651 113 2701.5 92.5Q2752 72 2812 72Q2869 72 2909.5 86.0Q2950 100 2987 126L2983 262H2944L2921 113L2960 133L2961 162Q2924 132 2890.5 119.5Q2857 107 2813 107Q2742 107 2695.0 141.0Q2648 175 2648 243Q2648 301 2683.0 336.0Q2718 371 2778 396L2822 413Q2898 444 2941.0 475.0Q2984 506 3001.5 542.5Q3019 579 3019 629Q3019 690 2988.0 734.5Q2957 779 2902.0 802.5Q2847 826 2775 826ZM3369 825Q3298 825 3242.0 796.0Q3186 767 3154.5 707.5Q3123 648 3123 559Q3123 477 3155.5 416.5Q3188 356 3242.0 322.5Q3296 289 3360 289Q3422 289 3466.5 315.5Q3511 342 3535.0 387.5Q3559 433 3559 491Q3559 528 3553 551H3153V521H3458Q3482 521 3490.5 508.5Q3499 496 3499 470Q3499 407 3462.5 363.5Q3426 320 3359 320Q3311 320 3272.0 348.0Q3233 376 3210.0 427.5Q3187 479 3187 548Q3187 628 3212.0 680.0Q3237 732 3281.0 756.5Q3325 781 3382 781Q3435 781 3475.5 763.0Q3516 745 3548 709L3563 723Q3530 770 3482.0 797.5Q3434 825 3369 825ZM3651 811V784L3762 772H3785L3899 784V811ZM3738 811Q3739 787 3739.5 746.5Q3740 706 3740.5 662.0Q3741 618 3741 585V530Q3741 478 3740.5 435.5Q3740 393 3738 356L3646 352V326L3783 292L3796 300L3802 440V441V585Q3802 618 3802.5 662.0Q3803 706 3803.5 746.5Q3804 787 3805 811ZM3801 493 3784 444H3798Q3814 398 3841.0 363.0Q3868 328 3901.5 308.5Q3935 289 3971 289Q3998 289 4018.5 299.0Q4039 309 4046 325Q4046 349 4035.0 362.0Q4024 375 4000 375Q3984 375 3970.5 367.0Q3957 359 3940 343L3917 323H3966Q3910 334 3870.0 375.0Q3830 416 3801 493ZM4098 811V784L4209 773H4228L4333 784V811ZM4186 811Q4187 787 4188.0 746.5Q4189 706 4189.5 662.0Q4190 618 4190 585V530Q4190 479 4189.0 436.0Q4188 393 4186 355L4093 352V326L4240 292L4252 300L4250 434V585Q4250 618 4250.5 662.0Q4251 706 4251.5 746.5Q4252 787 4253 811ZM4211 156Q4190 156 4175.5 142.5Q4161 129 4161 107Q4161 85 4175.5 71.0Q4190 57 4211 57Q4231 57 4246.5 71.0Q4262 85 4262 107Q4262 129 4246.5 142.5Q4231 156 4211 156ZM4415 811V784L4532 773H4554L4681 784V811ZM4509 811Q4511 755 4512.0 698.0Q4513 641 4513 585V339H4413V309L4536 299L4512 311V307Q4516 211 4536.0 151.5Q4556 92 4597 53Q4626 26 4658.5 13.0Q4691 0 4725 0Q4759 0 4785.0 12.5Q4811 25 4818 47Q4817 61 4805.5 71.0Q4794 81 4775 81Q4758 81 4742.0 72.0Q4726 63 4705 46L4677 22V13H4716V22Q4686 24 4659.0 42.0Q4632 60 4615 88Q4599 112 4589.0 141.5Q4579 171 4575.5 215.0Q4572 259 4574 326V585Q4574 641 4575.0 698.0Q4576 755 4577 811ZM4544 339V303H4735V339ZM5189 811V782L5332 771H5351L5494 782V811ZM5306 811Q5308 728 5308.5 645.0Q5309 562 5309 478V421Q5309 337 5308.5 253.5Q5308 170 5306 88H5377Q5376 170 5375.5 253.5Q5375 337 5375 421V478Q5375 562 5375.5 645.0Q5376 728 5377 811ZM5041 271 5050 88H5633L5643 271H5604L5575 88L5606 122H5077L5109 88L5079 271ZM6077 826Q5997 826 5931.5 799.5Q5866 773 5818.5 723.5Q5771 674 5745.5 604.5Q5720 535 5720 450Q5720 366 5746.5 296.5Q5773 227 5821.0 176.5Q5869 126 5934.5 99.0Q6000 72 6077 72Q6136 72 6184.0 85.0Q6232 98 6281 127L6285 282H6244L6218 119L6260 133V168Q6217 135 6176.5 121.0Q6136 107 6086 107Q6000 107 5934.0 148.0Q5868 189 5830.5 265.5Q5793 342 5793 450Q5793 558 5830.0 635.0Q5867 712 5932.0 752.5Q5997 793 6080 793Q6130 793 6176.0 779.5Q6222 766 6265 734V766L6225 776L6252 617H6293L6290 771Q6238 802 6187.0 814.0Q6136 826 6077 826Z" /></svg>