<svg viewBox="0 0 10859 714" xmlns="http://www.w3.org/2000/svg"><path d="M0 0H411V714H0ZM360 663V51H51V663ZM599 0H1010V714H599ZM959 663V51H650V663ZM1198 0H1609V714H1198ZM1558 663V51H1249V663ZM1797 0H2208V714H1797ZM2157 663V51H1848V663ZM2684 0H3095V714H2684ZM3044 663V51H2735V663ZM3283 0H3694V714H3283ZM3643 663V51H3334V663ZM3882 0H4293V714H3882ZM4242 663V51H3933V663ZM4481 0H4892V714H4481ZM4841 663V51H4532V663ZM5368 0H5779V714H5368ZM5728 663V51H5419V663ZM5967 0H6378V714H5967ZM6327 663V51H6018V663ZM6566 0H6977V714H6566ZM6926 663V51H6617V663ZM7165 0H7576V714H7165ZM7525 663V51H7216V663ZM7764 0H8175V714H7764ZM8124 663V51H7815V663ZM8363 0H8774V714H8363ZM8723 663V51H8414V663ZM8962 0H9373V714H8962ZM9322 663V51H9013V663ZM9849 0H10260V714H9849ZM10209 663V51H9900V663ZM10448 0H10859V714H10448ZM10808 663V51H10499V663Z" fill="currentColor" /></svg>