<svg viewBox="0 0 15527 1010" xmlns="http://www.w3.org/2000/svg"><path d="M0 770V728H13Q47 728 71.0 715.5Q95 703 95 656V166Q95 122 70.5 110.0Q46 98 13 98H0V56H183L541 609V166Q541 122 516.5 110.0Q492 98 459 98H446V56H697V98H684Q650 98 626.0 110.5Q602 123 602 170V770H531L156 194V656Q156 703 180.0 715.5Q204 728 238 728H251V770ZM1012 780Q904 780 842.0 711.0Q780 642 780 501Q780 361 839.5 292.5Q899 224 1015 224Q1123 224 1185.0 292.5Q1247 361 1247 501Q1247 642 1187.5 711.0Q1128 780 1012 780ZM1014 728Q1089 728 1119.5 670.5Q1150 613 1150 501Q1150 389 1119.0 333.0Q1088 277 1013 277Q938 277 907.5 333.0Q877 389 877 501Q877 613 908.0 670.5Q939 728 1014 728ZM1542 780Q1466 780 1431.5 745.5Q1397 711 1397 625V291H1321V251Q1339 251 1361.0 243.5Q1383 236 1399 219Q1416 201 1427.0 175.0Q1438 149 1445 111H1491V234H1622V291H1491V628Q1491 679 1512.0 703.0Q1533 727 1567 727Q1585 727 1600.0 725.0Q1615 723 1631 720V764Q1618 770 1592.0 775.0Q1566 780 1542 780ZM1941 780Q1833 780 1771.0 711.0Q1709 642 1709 501Q1709 361 1768.5 292.5Q1828 224 1944 224Q2052 224 2114.0 292.5Q2176 361 2176 501Q2176 642 2116.5 711.0Q2057 780 1941 780ZM1943 728Q2018 728 2048.5 670.5Q2079 613 2079 501Q2079 389 2048.0 333.0Q2017 277 1942 277Q1867 277 1836.5 333.0Q1806 389 1806 501Q1806 613 1837.0 670.5Q1868 728 1943 728ZM3078 780Q2980 780 2929.5 741.0Q2879 702 2879 639Q2879 609 2898.0 590.5Q2917 572 2951 572Q2953 613 2967.0 649.5Q2981 686 3010.0 708.5Q3039 731 3086 731Q3153 731 3191.0 698.5Q3229 666 3229 605Q3229 568 3214.5 542.5Q3200 517 3166.5 495.0Q3133 473 3074 449Q2981 411 2935.5 360.0Q2890 309 2890 227Q2890 170 2918.5 129.5Q2947 89 2996.5 67.5Q3046 46 3109 46Q3198 46 3247.0 80.0Q3296 114 3296 158Q3296 190 3274.5 206.5Q3253 223 3217 223Q3217 192 3206.5 163.0Q3196 134 3171.5 115.0Q3147 96 3105 96Q3047 96 3015.0 127.0Q2983 158 2983 210Q2983 250 2997.5 277.5Q3012 305 3046.0 326.5Q3080 348 3138 372Q3226 408 3275.0 455.0Q3324 502 3324 579Q3324 674 3257.5 727.0Q3191 780 3078 780ZM3662 780Q3553 780 3491.5 708.0Q3430 636 3430 506Q3430 366 3488.0 295.0Q3546 224 3652 224Q3749 224 3804.5 284.0Q3860 344 3860 463V509H3527Q3529 618 3566.5 667.5Q3604 717 3676 717Q3728 717 3764.5 695.5Q3801 674 3819 647Q3826 650 3832.0 659.0Q3838 668 3838 681Q3838 701 3819.0 724.0Q3800 747 3761.0 763.5Q3722 780 3662 780ZM3759 455Q3759 375 3734.5 326.5Q3710 278 3650 278Q3595 278 3564.5 323.5Q3534 369 3529 455ZM3943 770V728H3946Q3980 728 4004.0 715.5Q4028 703 4028 656V344Q4028 300 4003.5 288.0Q3979 276 3946 276H3943V234H4097L4116 333H4121Q4134 303 4149.0 278.0Q4164 253 4189.0 238.5Q4214 224 4258 224Q4313 224 4339.5 243.0Q4366 262 4366 297Q4366 328 4344.5 348.0Q4323 368 4273 368Q4273 327 4261.0 308.5Q4249 290 4220 290Q4192 290 4173.0 312.0Q4154 334 4143.0 368.0Q4132 402 4127.0 438.5Q4122 475 4122 504V661Q4122 705 4146.5 716.5Q4171 728 4204 728H4232V770ZM4542 134Q4518 134 4501.5 120.0Q4485 106 4485 72Q4485 37 4501.5 23.5Q4518 10 4542 10Q4565 10 4582.0 23.5Q4599 37 4599 72Q4599 106 4582.0 120.0Q4565 134 4542 134ZM4404 770V728H4417Q4450 728 4474.5 716.5Q4499 705 4499 661V344Q4499 300 4474.5 288.0Q4450 276 4417 276H4414V234H4593V656Q4593 703 4617.0 715.5Q4641 728 4675 728H4688V770ZM4728 770V728H4741Q4775 728 4799.0 715.5Q4823 703 4823 656V281H4732V234H4823V184Q4823 95 4870.5 47.5Q4918 0 5000 0Q5078 0 5109.0 19.5Q5140 39 5140 70Q5140 97 5117.0 111.5Q5094 126 5058 126Q5058 96 5044.0 71.0Q5030 46 4992 46Q4949 46 4933.0 79.0Q4917 112 4917 175V234H5058V281H4917V656Q4917 703 4941.0 715.5Q4965 728 4999 728H5037V770ZM5708 770V728H5721Q5754 728 5778.5 716.5Q5803 705 5803 661V166Q5803 122 5778.5 110.0Q5754 98 5721 98H5708V56H5999V98H5986Q5952 98 5928.0 110.5Q5904 123 5904 170V452L6111 215Q6143 178 6154.5 155.5Q6166 133 6166 119Q6166 106 6154.0 101.5Q6142 97 6117 97V56H6338V97Q6304 97 6273.5 122.0Q6243 147 6204 191L6059 354L6270 648Q6299 687 6325.5 707.5Q6352 728 6380 728H6382V770H6371Q6321 770 6288.5 766.0Q6256 762 6234.5 752.0Q6213 742 6196.5 724.5Q6180 707 6161 680L5989 433L5904 517V656Q5904 703 5928.0 715.5Q5952 728 5986 728H5999V770ZM6388 770V728H6396Q6430 728 6454.0 715.5Q6478 703 6478 656V120Q6478 76 6453.5 64.0Q6429 52 6396 52H6388V10H6572V230Q6572 248 6571.0 267.5Q6570 287 6569.0 301.0Q6568 315 6568 315H6573Q6619 224 6720 224Q6806 224 6851.5 270.5Q6897 317 6897 420V656Q6897 703 6918.5 715.5Q6940 728 6974 728H6977V770H6803V425Q6803 360 6778.5 324.0Q6754 288 6693 288Q6631 288 6601.5 332.0Q6572 376 6572 450V661Q6572 705 6596.5 716.5Q6621 728 6654 728H6657V770ZM7166 134Q7142 134 7125.5 120.0Q7109 106 7109 72Q7109 37 7125.5 23.5Q7142 10 7166 10Q7189 10 7206.0 23.5Q7223 37 7223 72Q7223 106 7206.0 120.0Q7189 134 7166 134ZM7028 770V728H7041Q7074 728 7098.5 716.5Q7123 705 7123 661V344Q7123 300 7098.5 288.0Q7074 276 7041 276H7038V234H7217V656Q7217 703 7241.0 715.5Q7265 728 7299 728H7312V770ZM7565 780Q7489 780 7454.5 745.5Q7420 711 7420 625V291H7344V251Q7362 251 7384.0 243.5Q7406 236 7422 219Q7439 201 7450.0 175.0Q7461 149 7468 111H7514V234H7645V291H7514V628Q7514 679 7535.0 703.0Q7556 727 7590 727Q7608 727 7623.0 725.0Q7638 723 7654 720V764Q7641 770 7615.0 775.0Q7589 780 7565 780ZM7882 780Q7815 780 7771.0 741.0Q7727 702 7727 620Q7727 540 7783.5 502.0Q7840 464 7955 460L8038 457V397Q8038 361 8032.0 333.5Q8026 306 8006.0 290.0Q7986 274 7945 274Q7907 274 7887.0 288.0Q7867 302 7860.5 326.5Q7854 351 7854 383Q7812 383 7790.5 368.5Q7769 354 7769 320Q7769 285 7793.5 264.0Q7818 243 7859.0 233.5Q7900 224 7949 224Q8041 224 8086.5 263.0Q8132 302 8132 397V656Q8132 698 8146.0 713.0Q8160 728 8194 728H8197V770H8062L8046 684H8038Q8017 712 7997.0 733.5Q7977 755 7950.5 767.5Q7924 780 7882 780ZM7905 718Q7966 718 8002.0 680.5Q8038 643 8038 579V498L7974 501Q7889 505 7856.5 535.5Q7824 566 7824 625Q7824 718 7905 718ZM8268 770V728H8276Q8310 728 8334.0 715.5Q8358 703 8358 656V344Q8358 300 8334.5 288.0Q8311 276 8278 276H8273V234H8435L8448 315H8453Q8484 259 8522.5 241.5Q8561 224 8609 224Q8688 224 8732.5 270.5Q8777 317 8777 420V656Q8777 703 8797.5 715.5Q8818 728 8852 728H8857V770H8683V425Q8683 360 8658.5 324.0Q8634 288 8573 288Q8528 288 8501.5 310.5Q8475 333 8463.5 370.0Q8452 407 8452 450V661Q8452 705 8475.5 716.5Q8499 728 8532 728H8537V770ZM9732 780Q9634 780 9583.5 741.0Q9533 702 9533 639Q9533 609 9552.0 590.5Q9571 572 9605 572Q9607 613 9621.0 649.5Q9635 686 9664.0 708.5Q9693 731 9740 731Q9807 731 9845.0 698.5Q9883 666 9883 605Q9883 568 9868.5 542.5Q9854 517 9820.5 495.0Q9787 473 9728 449Q9635 411 9589.5 360.0Q9544 309 9544 227Q9544 170 9572.5 129.5Q9601 89 9650.5 67.5Q9700 46 9763 46Q9852 46 9901.0 80.0Q9950 114 9950 158Q9950 190 9928.5 206.5Q9907 223 9871 223Q9871 192 9860.5 163.0Q9850 134 9825.5 115.0Q9801 96 9759 96Q9701 96 9669.0 127.0Q9637 158 9637 210Q9637 250 9651.5 277.5Q9666 305 9700.0 326.5Q9734 348 9792 372Q9880 408 9929.0 455.0Q9978 502 9978 579Q9978 674 9911.5 727.0Q9845 780 9732 780ZM10057 770V728H10070Q10104 728 10125.5 715.5Q10147 703 10147 656V344Q10147 300 10125.0 288.0Q10103 276 10070 276H10067V234H10224L10237 315H10242Q10272 259 10309.5 241.5Q10347 224 10393 224Q10441 224 10480.0 244.5Q10519 265 10538 315H10546Q10576 259 10616.5 241.5Q10657 224 10703 224Q10780 224 10823.0 270.5Q10866 317 10866 420V656Q10866 703 10887.5 715.5Q10909 728 10943 728H10946V770H10772V425Q10772 360 10748.5 324.0Q10725 288 10667 288Q10626 288 10601.5 308.5Q10577 329 10566.5 363.0Q10556 397 10556 437V656Q10556 703 10577.5 715.5Q10599 728 10633 728H10636V770H10462V425Q10462 360 10438.5 324.0Q10415 288 10357 288Q10314 288 10288.5 310.5Q10263 333 10252.0 370.0Q10241 407 10241 450V661Q10241 705 10265.5 716.5Q10290 728 10323 728H10326V770ZM11179 780Q11112 780 11068.0 741.0Q11024 702 11024 620Q11024 540 11080.5 502.0Q11137 464 11252 460L11335 457V397Q11335 361 11329.0 333.5Q11323 306 11303.0 290.0Q11283 274 11242 274Q11204 274 11184.0 288.0Q11164 302 11157.5 326.5Q11151 351 11151 383Q11109 383 11087.5 368.5Q11066 354 11066 320Q11066 285 11090.5 264.0Q11115 243 11156.0 233.5Q11197 224 11246 224Q11338 224 11383.5 263.0Q11429 302 11429 397V656Q11429 698 11443.0 713.0Q11457 728 11491 728H11494V770H11359L11343 684H11335Q11314 712 11294.0 733.5Q11274 755 11247.5 767.5Q11221 780 11179 780ZM11202 718Q11263 718 11299.0 680.5Q11335 643 11335 579V498L11271 501Q11186 505 11153.5 535.5Q11121 566 11121 625Q11121 718 11202 718ZM11550 770V728H11563Q11597 728 11621.0 715.5Q11645 703 11645 656V120Q11645 76 11620.5 64.0Q11596 52 11563 52H11550V10H11739V656Q11739 703 11763.0 715.5Q11787 728 11821 728H11834V770ZM11860 770V728H11873Q11907 728 11931.0 715.5Q11955 703 11955 656V120Q11955 76 11930.5 64.0Q11906 52 11873 52H11860V10H12049V656Q12049 703 12073.0 715.5Q12097 728 12131 728H12144V770ZM13004 780Q12906 780 12855.5 741.0Q12805 702 12805 639Q12805 609 12824.0 590.5Q12843 572 12877 572Q12879 613 12893.0 649.5Q12907 686 12936.0 708.5Q12965 731 13012 731Q13079 731 13117.0 698.5Q13155 666 13155 605Q13155 568 13140.5 542.5Q13126 517 13092.5 495.0Q13059 473 13000 449Q12907 411 12861.5 360.0Q12816 309 12816 227Q12816 170 12844.5 129.5Q12873 89 12922.5 67.5Q12972 46 13035 46Q13124 46 13173.0 80.0Q13222 114 13222 158Q13222 190 13200.5 206.5Q13179 223 13143 223Q13143 192 13132.5 163.0Q13122 134 13097.5 115.0Q13073 96 13031 96Q12973 96 12941.0 127.0Q12909 158 12909 210Q12909 250 12923.5 277.5Q12938 305 12972.0 326.5Q13006 348 13064 372Q13152 408 13201.0 455.0Q13250 502 13250 579Q13250 674 13183.5 727.0Q13117 780 13004 780ZM13584 780Q13518 780 13466.5 752.0Q13415 724 13385.5 663.5Q13356 603 13356 505Q13356 398 13385.5 336.5Q13415 275 13465.5 249.5Q13516 224 13579 224Q13621 224 13661.0 235.0Q13701 246 13727.0 268.5Q13753 291 13753 326Q13753 360 13730.5 374.5Q13708 389 13664 389Q13664 342 13646.5 308.0Q13629 274 13579 274Q13541 274 13512.5 294.0Q13484 314 13468.5 364.0Q13453 414 13453 504Q13453 610 13488.5 662.5Q13524 715 13604 715Q13651 715 13685.5 695.5Q13720 676 13737 645Q13754 659 13754 684Q13754 707 13735.0 729.0Q13716 751 13678.5 765.5Q13641 780 13584 780ZM13826 770V728H13829Q13863 728 13887.0 715.5Q13911 703 13911 656V344Q13911 300 13886.5 288.0Q13862 276 13829 276H13826V234H13980L13999 333H14004Q14017 303 14032.0 278.0Q14047 253 14072.0 238.5Q14097 224 14141 224Q14196 224 14222.5 243.0Q14249 262 14249 297Q14249 328 14227.5 348.0Q14206 368 14156 368Q14156 327 14144.0 308.5Q14132 290 14103 290Q14075 290 14056.0 312.0Q14037 334 14026.0 368.0Q14015 402 14010.0 438.5Q14005 475 14005 504V661Q14005 705 14029.5 716.5Q14054 728 14087 728H14115V770ZM14425 134Q14401 134 14384.5 120.0Q14368 106 14368 72Q14368 37 14384.5 23.5Q14401 10 14425 10Q14448 10 14465.0 23.5Q14482 37 14482 72Q14482 106 14465.0 120.0Q14448 134 14425 134ZM14287 770V728H14300Q14333 728 14357.5 716.5Q14382 705 14382 661V344Q14382 300 14357.5 288.0Q14333 276 14300 276H14297V234H14476V656Q14476 703 14500.0 715.5Q14524 728 14558 728H14571V770ZM14602 1010V968H14610Q14644 968 14668.0 955.5Q14692 943 14692 896V344Q14692 300 14667.5 288.0Q14643 276 14610 276H14597V234H14772L14782 324H14786Q14809 278 14845.0 251.0Q14881 224 14939 224Q15038 224 15090.5 290.5Q15143 357 15143 501Q15143 646 15090.5 713.0Q15038 780 14939 780Q14881 780 14844.5 755.5Q14808 731 14786 692H14782Q14784 721 14785.0 753.5Q14786 786 14786 805V901Q14786 945 14810.5 956.5Q14835 968 14868 968H14871V1010ZM14923 716Q14989 716 15017.5 660.5Q15046 605 15046 500Q15046 393 15017.5 340.5Q14989 288 14922 288Q14844 288 14815.0 340.5Q14786 393 14786 501Q14786 605 14815.0 660.5Q14844 716 14923 716ZM15438 780Q15362 780 15327.5 745.5Q15293 711 15293 625V291H15217V251Q15235 251 15257.0 243.5Q15279 236 15295 219Q15312 201 15323.0 175.0Q15334 149 15341 111H15387V234H15518V291H15387V628Q15387 679 15408.0 703.0Q15429 727 15463 727Q15481 727 15496.0 725.0Q15511 723 15527 720V764Q15514 770 15488.0 775.0Q15462 780 15438 780Z" /></svg>