<svg viewBox="0 0 8000 1362" xmlns="http://www.w3.org/2000/svg"><path d="M628 1069H523L169 476H165Q166 494 167.5 516.0Q169 538 170.0 563.5Q171 589 172.0 616.0Q173 643 173 670V1069H91V355H195L548 946H552Q551 934 550.0 912.5Q549 891 548.0 864.5Q547 838 546.0 810.0Q545 782 545 758V355H628ZM1239 800Q1239 867 1222.5 918.5Q1206 970 1175.0 1006.0Q1144 1042 1100.0 1060.5Q1056 1079 1002 1079Q952 1079 909.5 1060.5Q867 1042 835.5 1006.0Q804 970 787.0 918.5Q770 867 770 800Q770 711 798.5 649.5Q827 588 880.0 555.5Q933 523 1005 523Q1074 523 1126.5 555.5Q1179 588 1209.0 649.5Q1239 711 1239 800ZM860 800Q860 863 875.0 909.5Q890 956 922.0 981.0Q954 1006 1004 1006Q1054 1006 1086.0 981.0Q1118 956 1133.5 909.5Q1149 863 1149 800Q1149 736 1133.5 691.0Q1118 646 1086.0 621.5Q1054 597 1003 597Q928 597 894.0 651.0Q860 705 860 800ZM1541 1007Q1560 1007 1580.0 1003.5Q1600 1000 1613 996V1063Q1599 1070 1573.5 1074.5Q1548 1079 1525 1079Q1485 1079 1451.0 1064.5Q1417 1050 1396.5 1014.0Q1376 978 1376 913V601H1305V559L1378 524L1411 410H1463V533H1609V601H1463V911Q1463 960 1485.0 983.5Q1507 1007 1541 1007ZM2154 800Q2154 867 2137.5 918.5Q2121 970 2090.0 1006.0Q2059 1042 2015.0 1060.5Q1971 1079 1917 1079Q1867 1079 1824.5 1060.5Q1782 1042 1750.5 1006.0Q1719 970 1702.0 918.5Q1685 867 1685 800Q1685 711 1713.5 649.5Q1742 588 1795.0 555.5Q1848 523 1920 523Q1989 523 2041.5 555.5Q2094 588 2124.0 649.5Q2154 711 2154 800ZM1775 800Q1775 863 1790.0 909.5Q1805 956 1837.0 981.0Q1869 1006 1919 1006Q1969 1006 2001.0 981.0Q2033 956 2048.5 909.5Q2064 863 2064 800Q2064 736 2048.5 691.0Q2033 646 2001.0 621.5Q1969 597 1918 597Q1843 597 1809.0 651.0Q1775 705 1775 800ZM2921 878Q2921 942 2891.5 986.5Q2862 1031 2808.5 1055.0Q2755 1079 2681 1079Q2644 1079 2609.5 1075.0Q2575 1071 2546.5 1063.5Q2518 1056 2496 1045V959Q2531 975 2581.5 988.0Q2632 1001 2685 1001Q2734 1001 2766.5 987.0Q2799 973 2815.5 947.0Q2832 921 2832 886Q2832 851 2817.5 827.0Q2803 803 2769.0 782.5Q2735 762 2676 739Q2621 717 2582.5 689.0Q2544 661 2524.0 621.5Q2504 582 2504 527Q2504 470 2531.5 429.5Q2559 389 2607.5 367.0Q2656 345 2720 345Q2775 345 2821.0 356.0Q2867 367 2906 385L2878 462Q2842 446 2801.5 435.0Q2761 424 2718 424Q2677 424 2649.5 437.0Q2622 450 2608.0 473.5Q2594 497 2594 528Q2594 564 2608.0 588.0Q2622 612 2654.0 631.0Q2686 650 2739 672Q2798 695 2838.5 721.5Q2879 748 2900.0 785.0Q2921 822 2921 878ZM3237 524Q3329 524 3374.5 567.0Q3420 610 3420 704V1069H3357L3340 993H3336Q3314 1022 3291.5 1041.5Q3269 1061 3239.5 1070.0Q3210 1079 3167 1079Q3122 1079 3086.0 1062.0Q3050 1045 3029.0 1009.5Q3008 974 3008 920Q3008 840 3067.0 796.5Q3126 753 3249 749L3334 746V714Q3334 647 3307.5 621.0Q3281 595 3232 595Q3193 595 3157.5 607.5Q3122 620 3090 636L3063 570Q3097 551 3142.0 537.5Q3187 524 3237 524ZM3261 810Q3169 814 3133.5 842.0Q3098 870 3098 921Q3098 966 3123.0 987.0Q3148 1008 3188 1008Q3250 1008 3292.0 970.5Q3334 933 3334 855V807ZM3821 523Q3911 523 3957.5 569.5Q4004 616 4004 720V1069H3917V726Q3917 661 3890.0 629.0Q3863 597 3807 597Q3725 597 3693.5 647.0Q3662 697 3662 791V1069H3575V533H3645L3658 606H3663Q3679 578 3704.0 559.5Q3729 541 3759.0 532.0Q3789 523 3821 523ZM4490 921Q4490 973 4465.5 1008.0Q4441 1043 4396.0 1061.0Q4351 1079 4288 1079Q4235 1079 4196.5 1070.0Q4158 1061 4129 1045V965Q4160 981 4203.0 994.5Q4246 1008 4290 1008Q4351 1008 4378.5 986.5Q4406 965 4406 929Q4406 909 4395.5 893.0Q4385 877 4358.5 861.0Q4332 845 4282 825Q4234 805 4199.5 785.0Q4165 765 4146.5 737.0Q4128 709 4128 665Q4128 597 4180.5 560.0Q4233 523 4318 523Q4364 523 4404.0 532.5Q4444 542 4480 559L4451 629Q4430 619 4407.0 611.5Q4384 604 4360.5 599.5Q4337 595 4313 595Q4264 595 4238.0 612.5Q4212 630 4212 660Q4212 682 4224.0 698.0Q4236 714 4263.5 728.5Q4291 743 4339 762Q4387 781 4421.0 801.0Q4455 821 4472.5 849.5Q4490 878 4490 921ZM5406 705Q5406 825 5364.0 906.0Q5322 987 5243.5 1028.0Q5165 1069 5054 1069H4867V355H5074Q5176 355 5250.5 395.0Q5325 435 5365.5 512.5Q5406 590 5406 705ZM5312 708Q5312 613 5283.0 552.0Q5254 491 5198.5 461.5Q5143 432 5063 432H4956V992H5045Q5179 992 5245.5 920.5Q5312 849 5312 708ZM5630 533V1069H5543V533ZM5587 332Q5607 332 5622.0 345.5Q5637 359 5637 388Q5637 416 5622.0 430.0Q5607 444 5587 444Q5566 444 5551.0 430.0Q5536 416 5536 388Q5536 359 5551.0 345.5Q5566 332 5587 332ZM6119 921Q6119 973 6094.5 1008.0Q6070 1043 6025.0 1061.0Q5980 1079 5917 1079Q5864 1079 5825.5 1070.0Q5787 1061 5758 1045V965Q5789 981 5832.0 994.5Q5875 1008 5919 1008Q5980 1008 6007.5 986.5Q6035 965 6035 929Q6035 909 6024.5 893.0Q6014 877 5987.5 861.0Q5961 845 5911 825Q5863 805 5828.5 785.0Q5794 765 5775.5 737.0Q5757 709 5757 665Q5757 597 5809.5 560.0Q5862 523 5947 523Q5993 523 6033.0 532.5Q6073 542 6109 559L6080 629Q6059 619 6036.0 611.5Q6013 604 5989.5 599.5Q5966 595 5942 595Q5893 595 5867.0 612.5Q5841 630 5841 660Q5841 682 5853.0 698.0Q5865 714 5892.5 728.5Q5920 743 5968 762Q6016 781 6050.0 801.0Q6084 821 6101.5 849.5Q6119 878 6119 921ZM6483 523Q6576 523 6632.5 592.0Q6689 661 6689 800Q6689 891 6663.0 953.5Q6637 1016 6590.5 1047.5Q6544 1079 6482 1079Q6443 1079 6413.5 1068.0Q6384 1057 6363.0 1039.5Q6342 1022 6327 1001H6321Q6323 1018 6325.0 1044.0Q6327 1070 6327 1089V1309H6240V533H6311L6323 606H6327Q6342 583 6363.0 564.0Q6384 545 6413.5 534.0Q6443 523 6483 523ZM6466 597Q6416 597 6385.5 617.5Q6355 638 6341.0 679.0Q6327 720 6327 783V800Q6327 866 6339.5 912.0Q6352 958 6383.0 982.0Q6414 1006 6468 1006Q6513 1006 6542.0 979.0Q6571 952 6585.0 905.5Q6599 859 6599 799Q6599 707 6566.5 652.0Q6534 597 6466 597ZM6906 1069H6819V309H6906ZM7257 524Q7349 524 7394.5 567.0Q7440 610 7440 704V1069H7377L7360 993H7356Q7334 1022 7311.5 1041.5Q7289 1061 7259.5 1070.0Q7230 1079 7187 1079Q7142 1079 7106.0 1062.0Q7070 1045 7049.0 1009.5Q7028 974 7028 920Q7028 840 7087.0 796.5Q7146 753 7269 749L7354 746V714Q7354 647 7327.5 621.0Q7301 595 7252 595Q7213 595 7177.5 607.5Q7142 620 7110 636L7083 570Q7117 551 7162.0 537.5Q7207 524 7257 524ZM7281 810Q7189 814 7153.5 842.0Q7118 870 7118 921Q7118 966 7143.0 987.0Q7168 1008 7208 1008Q7270 1008 7312.0 970.5Q7354 933 7354 855V807ZM7517 533H7611L7718 838Q7728 865 7736.0 890.0Q7744 915 7750.0 938.5Q7756 962 7759 984H7762Q7768 959 7779.5 918.5Q7791 878 7804 837L7905 533H8000L7783 1143Q7765 1193 7740.5 1230.5Q7716 1268 7681.0 1288.5Q7646 1309 7597 1309Q7575 1309 7557.5 1306.5Q7540 1304 7528 1301V1231Q7538 1233 7553.0 1235.0Q7568 1237 7584 1237Q7613 1237 7634.0 1225.5Q7655 1214 7670.0 1192.5Q7685 1171 7695 1142L7720 1071Z" fill="currentColor" /></svg>