<svg viewBox="0 0 6988 747" xmlns="http://www.w3.org/2000/svg"><path d="M566 737H461L79 144H75Q77 179 80.0 231.0Q83 283 83 338V737H0V23H104L485 614H489Q488 598 486.5 566.0Q485 534 483.5 496.0Q482 458 482 426V23H566ZM1214 468Q1214 601 1146.5 674.0Q1079 747 964 747Q893 747 837.5 714.5Q782 682 750.0 619.5Q718 557 718 468Q718 335 785.0 263.0Q852 191 967 191Q1040 191 1095.5 223.5Q1151 256 1182.5 317.5Q1214 379 1214 468ZM809 468Q809 563 846.5 618.5Q884 674 966 674Q1047 674 1085.0 618.5Q1123 563 1123 468Q1123 373 1085.0 319.0Q1047 265 965 265Q883 265 846.0 319.0Q809 373 809 468ZM1532 675Q1552 675 1573.0 671.5Q1594 668 1607 664V731Q1593 738 1567.0 742.5Q1541 747 1517 747Q1475 747 1439.5 732.5Q1404 718 1382.0 682.0Q1360 646 1360 581V269H1284V227L1361 192L1396 78H1448V201H1603V269H1448V579Q1448 628 1471.5 651.5Q1495 675 1532 675ZM2180 468Q2180 601 2112.5 674.0Q2045 747 1930 747Q1859 747 1803.5 714.5Q1748 682 1716.0 619.5Q1684 557 1684 468Q1684 335 1751.0 263.0Q1818 191 1933 191Q2006 191 2061.5 223.5Q2117 256 2148.5 317.5Q2180 379 2180 468ZM1775 468Q1775 563 1812.5 618.5Q1850 674 1932 674Q2013 674 2051.0 618.5Q2089 563 2089 468Q2089 373 2051.0 319.0Q2013 265 1931 265Q1849 265 1812.0 319.0Q1775 373 1775 468ZM2936 546Q2936 641 2867.0 694.0Q2798 747 2681 747Q2621 747 2570.0 738.0Q2519 729 2485 713V627Q2521 643 2574.5 656.0Q2628 669 2685 669Q2765 669 2805.5 638.0Q2846 607 2846 554Q2846 519 2831.0 495.0Q2816 471 2779.5 450.5Q2743 430 2678 407Q2632 390 2597.5 370.5Q2563 351 2540.0 326.0Q2517 301 2505.5 269.0Q2494 237 2494 195Q2494 138 2523.0 97.5Q2552 57 2603.5 35.0Q2655 13 2722 13Q2781 13 2830.0 24.0Q2879 35 2919 53L2891 130Q2854 114 2810.5 103.0Q2767 92 2720 92Q2653 92 2619.0 120.5Q2585 149 2585 196Q2585 232 2600.0 256.0Q2615 280 2649.0 299.0Q2683 318 2741 340Q2804 363 2847.5 389.5Q2891 416 2913.5 453.0Q2936 490 2936 546ZM3271 192Q3369 192 3416.0 235.0Q3463 278 3463 372V737H3399L3382 661H3378Q3343 705 3304.5 726.0Q3266 747 3198 747Q3125 747 3077.0 708.5Q3029 670 3029 588Q3029 508 3092.0 464.5Q3155 421 3286 417L3377 414V382Q3377 315 3348.0 289.0Q3319 263 3266 263Q3224 263 3186.0 275.5Q3148 288 3115 304L3088 238Q3123 219 3171.0 205.5Q3219 192 3271 192ZM3297 478Q3197 482 3158.5 510.0Q3120 538 3120 589Q3120 634 3147.5 655.0Q3175 676 3218 676Q3286 676 3331.0 638.5Q3376 601 3376 523V475ZM3887 191Q3983 191 4032.0 237.5Q4081 284 4081 388V737H3994V394Q3994 329 3965.0 297.0Q3936 265 3874 265Q3785 265 3751.0 315.0Q3717 365 3717 459V737H3629V201H3700L3713 274H3718Q3744 232 3790.0 211.5Q3836 191 3887 191ZM4596 589Q4596 667 4538.0 707.0Q4480 747 4382 747Q4326 747 4285.5 738.0Q4245 729 4214 713V633Q4246 649 4291.5 662.5Q4337 676 4384 676Q4451 676 4481.0 654.5Q4511 633 4511 597Q4511 577 4500.0 561.0Q4489 545 4460.5 529.0Q4432 513 4379 493Q4327 473 4290.0 453.0Q4253 433 4233.0 405.0Q4213 377 4213 333Q4213 265 4268.5 228.0Q4324 191 4414 191Q4463 191 4505.5 200.5Q4548 210 4585 227L4555 297Q4521 283 4484.0 273.0Q4447 263 4408 263Q4354 263 4325.5 280.5Q4297 298 4297 328Q4297 350 4310.0 365.5Q4323 381 4353.5 395.5Q4384 410 4435 430Q4486 449 4522.0 469.0Q4558 489 4577.0 517.5Q4596 546 4596 589ZM5460 737H5354L5101 396L5028 460V737H4938V23H5028V375Q5058 341 5089.0 307.0Q5120 273 5151 239L5344 23H5449L5166 334ZM5748 192Q5846 192 5893.0 235.0Q5940 278 5940 372V737H5876L5859 661H5855Q5820 705 5781.5 726.0Q5743 747 5675 747Q5602 747 5554.0 708.5Q5506 670 5506 588Q5506 508 5569.0 464.5Q5632 421 5763 417L5854 414V382Q5854 315 5825.0 289.0Q5796 263 5743 263Q5701 263 5663.0 275.5Q5625 288 5592 304L5565 238Q5600 219 5648.0 205.5Q5696 192 5748 192ZM5774 478Q5674 482 5635.5 510.0Q5597 538 5597 589Q5597 634 5624.5 655.0Q5652 676 5695 676Q5763 676 5808.0 638.5Q5853 601 5853 523V475ZM6452 434Q6446 413 6440.0 392.5Q6434 372 6429.5 353.5Q6425 335 6421.0 319.0Q6417 303 6415 292H6411Q6409 303 6405.5 319.0Q6402 335 6397.5 354.0Q6393 373 6387.5 393.5Q6382 414 6375 435L6279 736H6179L6032 200H6123L6197 486Q6205 515 6212.0 544.5Q6219 574 6224.5 600.5Q6230 627 6232 646H6236Q6239 634 6243.0 616.0Q6247 598 6251.5 578.0Q6256 558 6261.5 538.0Q6267 518 6272 502L6367 200H6463L6555 502Q6562 525 6569.5 551.0Q6577 577 6583.0 601.5Q6589 626 6591 645H6595Q6597 628 6602.5 602.5Q6608 577 6615.5 546.5Q6623 516 6631 486L6706 200H6796L6647 736H6544ZM6980 201V737H6892V201ZM6937 0Q6957 0 6972.5 13.5Q6988 27 6988 56Q6988 84 6972.5 98.0Q6957 112 6937 112Q6915 112 6900.0 98.0Q6885 84 6885 56Q6885 27 6900.0 13.5Q6915 0 6937 0Z" /></svg>