<svg viewBox="0 0 8181 1360" xmlns="http://www.w3.org/2000/svg"><path d="M594 1068H575L130 413H128Q129 442 129.0 467.0Q129 492 129.0 515.5Q129 539 129 566V1068H103V354H123L567 1007H569Q569 982 568.5 956.0Q568 930 568.0 905.0Q568 880 568 857V354H594ZM1213 804Q1213 862 1199.5 912.0Q1186 962 1157.5 999.0Q1129 1036 1086.0 1057.0Q1043 1078 984 1078Q927 1078 884.5 1057.5Q842 1037 813.5 1000.0Q785 963 771.0 913.0Q757 863 757 804Q757 720 784.5 658.5Q812 597 864.5 563.5Q917 530 990 530Q1070 530 1119.0 566.5Q1168 603 1190.5 665.0Q1213 727 1213 804ZM784 804Q784 877 806.0 933.5Q828 990 872.5 1021.5Q917 1053 984 1053Q1054 1053 1098.5 1021.0Q1143 989 1164.5 932.5Q1186 876 1186 804Q1186 735 1166.5 678.5Q1147 622 1104.0 588.5Q1061 555 990 555Q891 555 837.5 621.0Q784 687 784 804ZM1485 1053Q1510 1053 1529.0 1049.5Q1548 1046 1564 1040V1065Q1548 1070 1529.5 1074.0Q1511 1078 1485 1078Q1439 1078 1412.5 1060.0Q1386 1042 1375.0 1008.0Q1364 974 1364 928V565H1283V543L1363 540L1369 409H1390V540H1562V565H1390V925Q1390 986 1410.0 1019.5Q1430 1053 1485 1053ZM2107 804Q2107 862 2093.5 912.0Q2080 962 2051.5 999.0Q2023 1036 1980.0 1057.0Q1937 1078 1878 1078Q1821 1078 1778.5 1057.5Q1736 1037 1707.5 1000.0Q1679 963 1665.0 913.0Q1651 863 1651 804Q1651 720 1678.5 658.5Q1706 597 1758.5 563.5Q1811 530 1884 530Q1964 530 2013.0 566.5Q2062 603 2084.5 665.0Q2107 727 2107 804ZM1678 804Q1678 877 1700.0 933.5Q1722 990 1766.5 1021.5Q1811 1053 1878 1053Q1948 1053 1992.5 1021.0Q2037 989 2058.5 932.5Q2080 876 2080 804Q2080 735 2060.5 678.5Q2041 622 1998.0 588.5Q1955 555 1884 555Q1785 555 1731.5 621.0Q1678 687 1678 804ZM2926 888Q2926 952 2893.5 994.5Q2861 1037 2806.5 1057.5Q2752 1078 2687 1078Q2641 1078 2606.5 1073.5Q2572 1069 2544.5 1062.5Q2517 1056 2493 1049V1020Q2533 1034 2580.5 1043.5Q2628 1053 2689 1053Q2746 1053 2793.5 1035.5Q2841 1018 2870.0 981.5Q2899 945 2899 887Q2899 837 2875.0 806.5Q2851 776 2806.5 755.5Q2762 735 2700 716Q2642 697 2597.0 675.5Q2552 654 2526.5 618.5Q2501 583 2501 524Q2501 464 2531.5 424.0Q2562 384 2613.5 364.0Q2665 344 2728 344Q2775 344 2819.5 352.5Q2864 361 2908 381L2897 404Q2851 384 2808.5 376.5Q2766 369 2726 369Q2673 369 2628.0 385.0Q2583 401 2555.5 434.5Q2528 468 2528 522Q2528 576 2553.0 608.0Q2578 640 2620.5 658.5Q2663 677 2714 693Q2778 713 2825.5 735.5Q2873 758 2899.5 793.5Q2926 829 2926 888ZM3244 531Q3326 531 3367.0 575.5Q3408 620 3408 718V1068H3386L3382 965H3380Q3366 995 3341.5 1021.0Q3317 1047 3279.5 1062.5Q3242 1078 3188 1078Q3135 1078 3099.5 1060.5Q3064 1043 3046.0 1012.0Q3028 981 3028 939Q3028 860 3094.5 820.5Q3161 781 3279 774L3382 768V725Q3382 635 3348.0 595.5Q3314 556 3244 556Q3204 556 3166.5 565.0Q3129 574 3086 596L3077 570Q3117 552 3158.5 541.5Q3200 531 3244 531ZM3281 798Q3179 803 3117.5 836.0Q3056 869 3056 939Q3056 992 3090.0 1022.5Q3124 1053 3188 1053Q3288 1053 3334.5 996.0Q3381 939 3382 848V793ZM3800 530Q3886 530 3933.0 577.0Q3980 624 3980 722V1068H3954V723Q3954 635 3913.5 595.0Q3873 555 3800 555Q3714 555 3660.5 606.5Q3607 658 3607 766V1068H3581V540H3602L3606 651H3608Q3620 620 3643.5 592.5Q3667 565 3705.5 547.5Q3744 530 3800 530ZM4475 934Q4475 978 4453.0 1010.5Q4431 1043 4387.0 1060.5Q4343 1078 4277 1078Q4222 1078 4177.0 1067.5Q4132 1057 4103 1044V1014Q4143 1033 4187.0 1043.0Q4231 1053 4277 1053Q4368 1053 4408.0 1021.0Q4448 989 4448 934Q4448 895 4426.5 871.5Q4405 848 4368.5 833.5Q4332 819 4288 806Q4242 792 4203.5 777.5Q4165 763 4142.5 736.5Q4120 710 4120 661Q4120 599 4169.0 564.5Q4218 530 4302 530Q4349 530 4390.0 538.5Q4431 547 4462 560L4451 585Q4423 571 4382.5 563.0Q4342 555 4302 555Q4230 555 4188.5 581.5Q4147 608 4147 661Q4147 702 4167.5 723.5Q4188 745 4222.5 757.0Q4257 769 4297 782Q4341 796 4382.0 812.0Q4423 828 4449.0 855.5Q4475 883 4475 934ZM5395 1068H5369V705H4921V1068H4895V354H4921V680H5369V354H5395ZM5785 530Q5853 530 5895.0 563.0Q5937 596 5957.0 651.5Q5977 707 5977 777V802H5584Q5583 923 5637.0 988.0Q5691 1053 5794 1053Q5842 1053 5876.5 1046.0Q5911 1039 5957 1018V1045Q5919 1062 5880.5 1070.0Q5842 1078 5794 1078Q5711 1078 5658.5 1043.0Q5606 1008 5581.5 947.0Q5557 886 5557 809Q5557 734 5582.0 670.5Q5607 607 5657.5 568.5Q5708 530 5785 530ZM5785 555Q5701 555 5647.5 611.5Q5594 668 5585 777H5950Q5951 711 5933.0 661.0Q5915 611 5878.0 583.0Q5841 555 5785 555ZM6153 543Q6153 567 6152.5 602.0Q6152 637 6151 662H6153Q6170 604 6221.5 566.5Q6273 529 6349 529Q6454 529 6508.0 598.5Q6562 668 6562 802Q6562 878 6538.5 940.5Q6515 1003 6464.5 1040.5Q6414 1078 6333 1078Q6262 1078 6217.5 1045.5Q6173 1013 6155 964H6153L6149 1068H6127V308H6153ZM6349 554Q6249 554 6201.0 621.0Q6153 688 6153 805V815Q6153 931 6197.5 992.0Q6242 1053 6333 1053Q6432 1053 6483.5 987.5Q6535 922 6535 802Q6535 679 6488.5 616.5Q6442 554 6349 554ZM6899 532Q6923 532 6942.5 535.0Q6962 538 6980 543L6974 567Q6955 562 6938.5 559.5Q6922 557 6899 557Q6857 557 6827.0 572.0Q6797 587 6777.0 615.0Q6757 643 6747.5 682.5Q6738 722 6738 771V1068H6712V540H6736L6738 641H6740Q6750 610 6771.0 585.5Q6792 561 6824.5 546.5Q6857 532 6899 532ZM7263 530Q7331 530 7373.0 563.0Q7415 596 7435.0 651.5Q7455 707 7455 777V802H7062Q7061 923 7115.0 988.0Q7169 1053 7272 1053Q7320 1053 7354.5 1046.0Q7389 1039 7435 1018V1045Q7397 1062 7358.5 1070.0Q7320 1078 7272 1078Q7189 1078 7136.5 1043.0Q7084 1008 7059.5 947.0Q7035 886 7035 809Q7035 734 7060.0 670.5Q7085 607 7135.5 568.5Q7186 530 7263 530ZM7263 555Q7179 555 7125.5 611.5Q7072 668 7063 777H7428Q7429 711 7411.0 661.0Q7393 611 7356.0 583.0Q7319 555 7263 555ZM7876 680Q7871 662 7866.0 647.5Q7861 633 7856.5 618.5Q7852 604 7847 586H7845Q7840 604 7835.5 619.5Q7831 635 7826.5 649.5Q7822 664 7816 680L7687 1069H7665L7512 541H7541L7646 912Q7655 943 7660.0 962.5Q7665 982 7669.0 996.5Q7673 1011 7676 1027H7678Q7681 1015 7684.0 1004.0Q7687 993 7690.5 980.5Q7694 968 7699.5 951.5Q7705 935 7712 912L7837 541H7858L7977 911Q7985 936 7991.0 956.5Q7997 977 8002.0 994.0Q8007 1011 8011 1027H8013Q8015 1011 8018.5 995.5Q8022 980 8027.5 960.0Q8033 940 8040 912L8139 541H8165L8024 1069H8002Z" fill="currentColor" /></svg>