<svg viewBox="0 0 9404 770" xmlns="http://www.w3.org/2000/svg"><path d="M566 760H461L79 167H75Q77 190 78.5 221.5Q80 253 81.5 288.5Q83 324 83 361V760H0V46H104L485 637H489Q488 621 486.5 589.0Q485 557 483.5 519.0Q482 481 482 449V46H566ZM1214 491Q1214 580 1183.5 642.5Q1153 705 1097.0 737.5Q1041 770 964 770Q893 770 837.5 737.5Q782 705 750.0 642.5Q718 580 718 491Q718 358 785.0 286.0Q852 214 967 214Q1040 214 1095.5 246.5Q1151 279 1182.5 340.5Q1214 402 1214 491ZM809 491Q809 554 825.5 600.5Q842 647 877.0 672.0Q912 697 966 697Q1020 697 1055.0 672.0Q1090 647 1106.5 600.5Q1123 554 1123 491Q1123 427 1106.0 382.0Q1089 337 1054.5 312.5Q1020 288 965 288Q883 288 846.0 342.0Q809 396 809 491ZM1532 698Q1552 698 1573.0 694.5Q1594 691 1607 687V754Q1593 761 1567.0 765.5Q1541 770 1517 770Q1475 770 1439.5 755.5Q1404 741 1382.0 705.0Q1360 669 1360 604V292H1284V250L1361 215L1396 101H1448V224H1603V292H1448V602Q1448 651 1471.5 674.5Q1495 698 1532 698ZM2180 491Q2180 580 2149.5 642.5Q2119 705 2063.0 737.5Q2007 770 1930 770Q1859 770 1803.5 737.5Q1748 705 1716.0 642.5Q1684 580 1684 491Q1684 358 1751.0 286.0Q1818 214 1933 214Q2006 214 2061.5 246.5Q2117 279 2148.5 340.5Q2180 402 2180 491ZM1775 491Q1775 554 1791.5 600.5Q1808 647 1843.0 672.0Q1878 697 1932 697Q1986 697 2021.0 672.0Q2056 647 2072.5 600.5Q2089 554 2089 491Q2089 427 2072.0 382.0Q2055 337 2020.5 312.5Q1986 288 1931 288Q1849 288 1812.0 342.0Q1775 396 1775 491ZM2996 569Q2996 633 2965.0 677.5Q2934 722 2876.5 746.0Q2819 770 2741 770Q2701 770 2664.5 766.0Q2628 762 2598.0 754.5Q2568 747 2545 736V650Q2581 666 2634.5 679.0Q2688 692 2745 692Q2798 692 2834.0 678.0Q2870 664 2888.0 638.0Q2906 612 2906 577Q2906 542 2891.0 518.0Q2876 494 2839.5 473.5Q2803 453 2738 430Q2677 408 2636.0 380.0Q2595 352 2574.5 312.5Q2554 273 2554 218Q2554 161 2583.0 120.5Q2612 80 2663.5 58.0Q2715 36 2782 36Q2841 36 2890.0 47.0Q2939 58 2979 76L2951 153Q2914 137 2870.5 126.0Q2827 115 2780 115Q2735 115 2705.0 128.0Q2675 141 2660.0 164.5Q2645 188 2645 219Q2645 255 2660.0 279.0Q2675 303 2709.0 322.0Q2743 341 2801 363Q2864 386 2907.5 412.5Q2951 439 2973.5 476.0Q2996 513 2996 569ZM3331 215Q3429 215 3476.0 258.0Q3523 301 3523 395V760H3459L3442 684H3438Q3415 713 3390.5 732.5Q3366 752 3334.5 761.0Q3303 770 3258 770Q3185 770 3137.0 731.5Q3089 693 3089 611Q3089 531 3152.0 487.5Q3215 444 3346 440L3437 437V405Q3437 338 3408.0 312.0Q3379 286 3326 286Q3284 286 3246.0 298.5Q3208 311 3175 327L3148 261Q3183 242 3231.0 228.5Q3279 215 3331 215ZM3357 501Q3257 505 3218.5 533.0Q3180 561 3180 612Q3180 657 3207.5 678.0Q3235 699 3278 699Q3346 699 3391.0 661.5Q3436 624 3436 546V498ZM3947 214Q4043 214 4092.0 260.5Q4141 307 4141 411V760H4054V417Q4054 352 4025.0 320.0Q3996 288 3934 288Q3845 288 3811.0 338.0Q3777 388 3777 482V760H3689V224H3760L3773 297H3778Q3796 269 3822.5 250.5Q3849 232 3881.0 223.0Q3913 214 3947 214ZM4656 612Q4656 664 4630.0 699.0Q4604 734 4556.0 752.0Q4508 770 4442 770Q4386 770 4345.5 761.0Q4305 752 4274 736V656Q4306 672 4351.5 685.5Q4397 699 4444 699Q4511 699 4541.0 677.5Q4571 656 4571 620Q4571 600 4560.0 584.0Q4549 568 4520.5 552.0Q4492 536 4439 516Q4387 496 4350.0 476.0Q4313 456 4293.0 428.0Q4273 400 4273 356Q4273 288 4328.5 251.0Q4384 214 4474 214Q4523 214 4565.5 223.5Q4608 233 4645 250L4615 320Q4581 306 4544.0 296.0Q4507 286 4468 286Q4414 286 4385.5 303.5Q4357 321 4357 351Q4357 373 4370.0 388.5Q4383 404 4413.5 418.5Q4444 433 4495 453Q4546 472 4582.0 492.0Q4618 512 4637.0 540.5Q4656 569 4656 612ZM5364 115Q5288 115 5232.5 149.5Q5177 184 5147.0 248.5Q5117 313 5117 403Q5117 491 5144.5 556.0Q5172 621 5226.5 656.0Q5281 691 5363 691Q5410 691 5452.0 683.0Q5494 675 5534 663V741Q5494 756 5451.5 763.0Q5409 770 5350 770Q5241 770 5168.0 725.0Q5095 680 5058.5 597.0Q5022 514 5022 402Q5022 294 5061.5 211.5Q5101 129 5178.0 82.5Q5255 36 5365 36Q5420 36 5471.0 47.0Q5522 58 5562 78L5526 154Q5493 139 5452.5 127.0Q5412 115 5364 115ZM5766 223Q5766 242 5764.5 262.0Q5763 282 5761 298H5767Q5784 270 5810.0 252.0Q5836 234 5868.0 224.5Q5900 215 5934 215Q5999 215 6042.5 235.5Q6086 256 6108.0 299.0Q6130 342 6130 411V760H6043V417Q6043 352 6014.0 320.0Q5985 288 5923 288Q5833 288 5799.5 338.5Q5766 389 5766 483V760H5678V0H5766ZM6503 214Q6572 214 6621.5 244.0Q6671 274 6697.5 328.5Q6724 383 6724 456V509H6357Q6359 600 6403.5 647.5Q6448 695 6528 695Q6579 695 6618.5 685.5Q6658 676 6700 658V735Q6659 753 6619.0 761.5Q6579 770 6524 770Q6448 770 6389.5 739.0Q6331 708 6298.5 646.5Q6266 585 6266 496Q6266 408 6295.5 345.0Q6325 282 6378.5 248.0Q6432 214 6503 214ZM6502 286Q6439 286 6402.5 326.5Q6366 367 6359 439H6632Q6631 371 6600.0 328.5Q6569 286 6502 286ZM7110 214Q7125 214 7142.5 215.5Q7160 217 7173 220L7162 301Q7149 298 7133.5 296.0Q7118 294 7104 294Q7063 294 7027.0 316.5Q6991 339 6969.5 379.5Q6948 420 6948 474V760H6860V224H6932L6942 322H6946Q6972 278 7013.0 246.0Q7054 214 7110 214ZM7739 491Q7739 580 7708.5 642.5Q7678 705 7622.0 737.5Q7566 770 7489 770Q7418 770 7362.5 737.5Q7307 705 7275.0 642.5Q7243 580 7243 491Q7243 358 7310.0 286.0Q7377 214 7492 214Q7565 214 7620.5 246.5Q7676 279 7707.5 340.5Q7739 402 7739 491ZM7334 491Q7334 554 7350.5 600.5Q7367 647 7402.0 672.0Q7437 697 7491 697Q7545 697 7580.0 672.0Q7615 647 7631.5 600.5Q7648 554 7648 491Q7648 427 7631.0 382.0Q7614 337 7579.5 312.5Q7545 288 7490 288Q7408 288 7371.0 342.0Q7334 396 7334 491ZM7965 397Q7965 413 7963.5 439.0Q7962 465 7961 484H7965Q7971 476 7983.0 461.0Q7995 446 8007.5 430.5Q8020 415 8029 405L8200 224H8303L8086 453L8318 760H8212L8026 510L7965 563V760H7878V0H7965ZM8619 214Q8688 214 8737.5 244.0Q8787 274 8813.5 328.5Q8840 383 8840 456V509H8473Q8475 600 8519.5 647.5Q8564 695 8644 695Q8695 695 8734.5 685.5Q8774 676 8816 658V735Q8775 753 8735.0 761.5Q8695 770 8640 770Q8564 770 8505.5 739.0Q8447 708 8414.5 646.5Q8382 585 8382 496Q8382 408 8411.5 345.0Q8441 282 8494.5 248.0Q8548 214 8619 214ZM8618 286Q8555 286 8518.5 326.5Q8482 367 8475 439H8748Q8747 371 8716.0 328.5Q8685 286 8618 286ZM9183 214Q9252 214 9301.5 244.0Q9351 274 9377.5 328.5Q9404 383 9404 456V509H9037Q9039 600 9083.5 647.5Q9128 695 9208 695Q9259 695 9298.5 685.5Q9338 676 9380 658V735Q9339 753 9299.0 761.5Q9259 770 9204 770Q9128 770 9069.5 739.0Q9011 708 8978.5 646.5Q8946 585 8946 496Q8946 408 8975.5 345.0Q9005 282 9058.5 248.0Q9112 214 9183 214ZM9182 286Q9119 286 9082.5 326.5Q9046 367 9039 439H9312Q9311 371 9280.0 328.5Q9249 286 9182 286Z" fill="currentColor" /></svg>