<svg viewBox="0 0 9038 914" xmlns="http://www.w3.org/2000/svg"><path d="M566 724H461L79 131H75Q77 166 80.0 218.0Q83 270 83 325V724H0V10H104L485 601H489Q488 585 486.5 553.0Q485 521 483.5 483.0Q482 445 482 413V10H566ZM1214 455Q1214 588 1146.5 661.0Q1079 734 964 734Q893 734 837.5 701.5Q782 669 750.0 606.5Q718 544 718 455Q718 322 785.0 250.0Q852 178 967 178Q1040 178 1095.5 210.5Q1151 243 1182.5 304.5Q1214 366 1214 455ZM809 455Q809 550 846.5 605.5Q884 661 966 661Q1047 661 1085.0 605.5Q1123 550 1123 455Q1123 360 1085.0 306.0Q1047 252 965 252Q883 252 846.0 306.0Q809 360 809 455ZM1532 662Q1552 662 1573.0 658.5Q1594 655 1607 651V718Q1593 725 1567.0 729.5Q1541 734 1517 734Q1475 734 1439.5 719.5Q1404 705 1382.0 669.0Q1360 633 1360 568V256H1284V214L1361 179L1396 65H1448V188H1603V256H1448V566Q1448 615 1471.5 638.5Q1495 662 1532 662ZM2180 455Q2180 588 2112.5 661.0Q2045 734 1930 734Q1859 734 1803.5 701.5Q1748 669 1716.0 606.5Q1684 544 1684 455Q1684 322 1751.0 250.0Q1818 178 1933 178Q2006 178 2061.5 210.5Q2117 243 2148.5 304.5Q2180 366 2180 455ZM1775 455Q1775 550 1812.5 605.5Q1850 661 1932 661Q2013 661 2051.0 605.5Q2089 550 2089 455Q2089 360 2051.0 306.0Q2013 252 1931 252Q1849 252 1812.0 306.0Q1775 360 1775 455ZM2996 533Q2996 628 2927.0 681.0Q2858 734 2741 734Q2681 734 2630.0 725.0Q2579 716 2545 700V614Q2581 630 2634.5 643.0Q2688 656 2745 656Q2825 656 2865.5 625.0Q2906 594 2906 541Q2906 506 2891.0 482.0Q2876 458 2839.5 437.5Q2803 417 2738 394Q2692 377 2657.5 357.5Q2623 338 2600.0 313.0Q2577 288 2565.5 256.0Q2554 224 2554 182Q2554 125 2583.0 84.5Q2612 44 2663.5 22.0Q2715 0 2782 0Q2841 0 2890.0 11.0Q2939 22 2979 40L2951 117Q2914 101 2870.5 90.0Q2827 79 2780 79Q2713 79 2679.0 107.5Q2645 136 2645 183Q2645 219 2660.0 243.0Q2675 267 2709.0 286.0Q2743 305 2801 327Q2864 350 2907.5 376.5Q2951 403 2973.5 440.0Q2996 477 2996 533ZM3331 179Q3429 179 3476.0 222.0Q3523 265 3523 359V724H3459L3442 648H3438Q3403 692 3364.5 713.0Q3326 734 3258 734Q3185 734 3137.0 695.5Q3089 657 3089 575Q3089 495 3152.0 451.5Q3215 408 3346 404L3437 401V369Q3437 302 3408.0 276.0Q3379 250 3326 250Q3284 250 3246.0 262.5Q3208 275 3175 291L3148 225Q3183 206 3231.0 192.5Q3279 179 3331 179ZM3357 465Q3257 469 3218.5 497.0Q3180 525 3180 576Q3180 621 3207.5 642.0Q3235 663 3278 663Q3346 663 3391.0 625.5Q3436 588 3436 510V462ZM3947 178Q4043 178 4092.0 224.5Q4141 271 4141 375V724H4054V381Q4054 316 4025.0 284.0Q3996 252 3934 252Q3845 252 3811.0 302.0Q3777 352 3777 446V724H3689V188H3760L3773 261H3778Q3804 219 3850.0 198.5Q3896 178 3947 178ZM4656 576Q4656 654 4598.0 694.0Q4540 734 4442 734Q4386 734 4345.5 725.0Q4305 716 4274 700V620Q4306 636 4351.5 649.5Q4397 663 4444 663Q4511 663 4541.0 641.5Q4571 620 4571 584Q4571 564 4560.0 548.0Q4549 532 4520.5 516.0Q4492 500 4439 480Q4387 460 4350.0 440.0Q4313 420 4293.0 392.0Q4273 364 4273 320Q4273 252 4328.5 215.0Q4384 178 4474 178Q4523 178 4565.5 187.5Q4608 197 4645 214L4615 284Q4581 270 4544.0 260.0Q4507 250 4468 250Q4414 250 4385.5 267.5Q4357 285 4357 315Q4357 337 4370.0 352.5Q4383 368 4413.5 382.5Q4444 397 4495 417Q4546 436 4582.0 456.0Q4618 476 4637.0 504.5Q4656 533 4656 576ZM4957 914Q4933 914 4915.0 910.5Q4897 907 4883 901V825Q4899 829 4917.0 832.0Q4935 835 4955 835Q4980 835 5002.5 825.0Q5025 815 5039.0 790.0Q5053 765 5053 720V10H5143V713Q5143 782 5120.0 826.5Q5097 871 5055.0 892.5Q5013 914 4957 914ZM5522 179Q5620 179 5667.0 222.0Q5714 265 5714 359V724H5650L5633 648H5629Q5594 692 5555.5 713.0Q5517 734 5449 734Q5376 734 5328.0 695.5Q5280 657 5280 575Q5280 495 5343.0 451.5Q5406 408 5537 404L5628 401V369Q5628 302 5599.0 276.0Q5570 250 5517 250Q5475 250 5437.0 262.5Q5399 275 5366 291L5339 225Q5374 206 5422.0 192.5Q5470 179 5522 179ZM5548 465Q5448 469 5409.5 497.0Q5371 525 5371 576Q5371 621 5398.5 642.0Q5426 663 5469 663Q5537 663 5582.0 625.5Q5627 588 5627 510V462ZM5998 724 5795 188H5889L6003 504Q6011 526 6020.0 553.0Q6029 580 6036.0 604.5Q6043 629 6046 646H6050Q6054 629 6061.5 604.0Q6069 579 6078.5 552.0Q6088 525 6095 504L6209 188H6303L6099 724ZM6591 179Q6689 179 6736.0 222.0Q6783 265 6783 359V724H6719L6702 648H6698Q6663 692 6624.5 713.0Q6586 734 6518 734Q6445 734 6397.0 695.5Q6349 657 6349 575Q6349 495 6412.0 451.5Q6475 408 6606 404L6697 401V369Q6697 302 6668.0 276.0Q6639 250 6586 250Q6544 250 6506.0 262.5Q6468 275 6435 291L6408 225Q6443 206 6491.0 192.5Q6539 179 6591 179ZM6617 465Q6517 469 6478.5 497.0Q6440 525 6440 576Q6440 621 6467.5 642.0Q6495 663 6538 663Q6606 663 6651.0 625.5Q6696 588 6696 510V462ZM7207 178Q7303 178 7352.0 224.5Q7401 271 7401 375V724H7314V381Q7314 316 7285.0 284.0Q7256 252 7194 252Q7105 252 7071.0 302.0Q7037 352 7037 446V724H6949V188H7020L7033 261H7038Q7064 219 7110.0 198.5Q7156 178 7207 178ZM7774 178Q7843 178 7892.5 208.0Q7942 238 7968.5 292.5Q7995 347 7995 420V473H7628Q7630 564 7674.5 611.5Q7719 659 7799 659Q7850 659 7889.5 649.5Q7929 640 7971 622V699Q7930 717 7890.0 725.5Q7850 734 7795 734Q7719 734 7660.5 703.0Q7602 672 7569.5 610.5Q7537 549 7537 460Q7537 372 7566.5 309.0Q7596 246 7649.5 212.0Q7703 178 7774 178ZM7773 250Q7710 250 7673.5 290.5Q7637 331 7630 403H7903Q7902 335 7871.0 292.5Q7840 250 7773 250ZM8480 576Q8480 654 8422.0 694.0Q8364 734 8266 734Q8210 734 8169.5 725.0Q8129 716 8098 700V620Q8130 636 8175.5 649.5Q8221 663 8268 663Q8335 663 8365.0 641.5Q8395 620 8395 584Q8395 564 8384.0 548.0Q8373 532 8344.5 516.0Q8316 500 8263 480Q8211 460 8174.0 440.0Q8137 420 8117.0 392.0Q8097 364 8097 320Q8097 252 8152.5 215.0Q8208 178 8298 178Q8347 178 8389.5 187.5Q8432 197 8469 214L8439 284Q8405 270 8368.0 260.0Q8331 250 8292 250Q8238 250 8209.5 267.5Q8181 285 8181 315Q8181 337 8194.0 352.5Q8207 368 8237.5 382.5Q8268 397 8319 417Q8370 436 8406.0 456.0Q8442 476 8461.0 504.5Q8480 533 8480 576ZM8817 178Q8886 178 8935.5 208.0Q8985 238 9011.5 292.5Q9038 347 9038 420V473H8671Q8673 564 8717.5 611.5Q8762 659 8842 659Q8893 659 8932.5 649.5Q8972 640 9014 622V699Q8973 717 8933.0 725.5Q8893 734 8838 734Q8762 734 8703.5 703.0Q8645 672 8612.5 610.5Q8580 549 8580 460Q8580 372 8609.5 309.0Q8639 246 8692.5 212.0Q8746 178 8817 178ZM8816 250Q8753 250 8716.5 290.5Q8680 331 8673 403H8946Q8945 335 8914.0 292.5Q8883 250 8816 250Z" /></svg>