<svg viewBox="0 0 8157 780" xmlns="http://www.w3.org/2000/svg"><path d="M0 770V728H13Q47 728 71.0 715.5Q95 703 95 656V166Q95 122 70.5 110.0Q46 98 13 98H0V56H183L541 609V166Q541 122 516.5 110.0Q492 98 459 98H446V56H697V98H684Q650 98 626.0 110.5Q602 123 602 170V770H531L156 194V656Q156 703 180.0 715.5Q204 728 238 728H251V770ZM1012 780Q904 780 842.0 711.0Q780 642 780 501Q780 361 839.5 292.5Q899 224 1015 224Q1123 224 1185.0 292.5Q1247 361 1247 501Q1247 642 1187.5 711.0Q1128 780 1012 780ZM1014 728Q1089 728 1119.5 670.5Q1150 613 1150 501Q1150 389 1119.0 333.0Q1088 277 1013 277Q938 277 907.5 333.0Q877 389 877 501Q877 613 908.0 670.5Q939 728 1014 728ZM1542 780Q1466 780 1431.5 745.5Q1397 711 1397 625V291H1321V251Q1339 251 1361.0 243.5Q1383 236 1399 219Q1416 201 1427.0 175.0Q1438 149 1445 111H1491V234H1622V291H1491V628Q1491 679 1512.0 703.0Q1533 727 1567 727Q1585 727 1600.0 725.0Q1615 723 1631 720V764Q1618 770 1592.0 775.0Q1566 780 1542 780ZM1941 780Q1833 780 1771.0 711.0Q1709 642 1709 501Q1709 361 1768.5 292.5Q1828 224 1944 224Q2052 224 2114.0 292.5Q2176 361 2176 501Q2176 642 2116.5 711.0Q2057 780 1941 780ZM1943 728Q2018 728 2048.5 670.5Q2079 613 2079 501Q2079 389 2048.0 333.0Q2017 277 1942 277Q1867 277 1836.5 333.0Q1806 389 1806 501Q1806 613 1837.0 670.5Q1868 728 1943 728ZM2738 780Q2640 780 2589.5 741.0Q2539 702 2539 639Q2539 609 2558.0 590.5Q2577 572 2611 572Q2613 613 2627.0 649.5Q2641 686 2670.0 708.5Q2699 731 2746 731Q2813 731 2851.0 698.5Q2889 666 2889 605Q2889 568 2874.5 542.5Q2860 517 2826.5 495.0Q2793 473 2734 449Q2641 411 2595.5 360.0Q2550 309 2550 227Q2550 170 2578.5 129.5Q2607 89 2656.5 67.5Q2706 46 2769 46Q2858 46 2907.0 80.0Q2956 114 2956 158Q2956 190 2934.5 206.5Q2913 223 2877 223Q2877 192 2866.5 163.0Q2856 134 2831.5 115.0Q2807 96 2765 96Q2707 96 2675.0 127.0Q2643 158 2643 210Q2643 250 2657.5 277.5Q2672 305 2706.0 326.5Q2740 348 2798 372Q2886 408 2935.0 455.0Q2984 502 2984 579Q2984 674 2917.5 727.0Q2851 780 2738 780ZM3322 780Q3213 780 3151.5 708.0Q3090 636 3090 506Q3090 366 3148.0 295.0Q3206 224 3312 224Q3409 224 3464.5 284.0Q3520 344 3520 463V509H3187Q3189 618 3226.5 667.5Q3264 717 3336 717Q3388 717 3424.5 695.5Q3461 674 3479 647Q3486 650 3492.0 659.0Q3498 668 3498 681Q3498 701 3479.0 724.0Q3460 747 3421.0 763.5Q3382 780 3322 780ZM3419 455Q3419 375 3394.5 326.5Q3370 278 3310 278Q3255 278 3224.5 323.5Q3194 369 3189 455ZM3603 770V728H3606Q3640 728 3664.0 715.5Q3688 703 3688 656V344Q3688 300 3663.5 288.0Q3639 276 3606 276H3603V234H3757L3776 333H3781Q3794 303 3809.0 278.0Q3824 253 3849.0 238.5Q3874 224 3918 224Q3973 224 3999.5 243.0Q4026 262 4026 297Q4026 328 4004.5 348.0Q3983 368 3933 368Q3933 327 3921.0 308.5Q3909 290 3880 290Q3852 290 3833.0 312.0Q3814 334 3803.0 368.0Q3792 402 3787.0 438.5Q3782 475 3782 504V661Q3782 705 3806.5 716.5Q3831 728 3864 728H3892V770ZM4064 770V728H4077Q4110 728 4134.5 716.5Q4159 705 4159 661V344Q4159 300 4134.5 288.0Q4110 276 4077 276H4074V234H4253V656Q4253 703 4277.0 715.5Q4301 728 4335 728H4348V770ZM4202 134Q4178 134 4161.5 120.0Q4145 106 4145 72Q4145 37 4161.5 23.5Q4178 10 4202 10Q4225 10 4242.0 23.5Q4259 37 4259 72Q4259 106 4242.0 120.0Q4225 134 4202 134ZM4388 770V728H4401Q4435 728 4459.0 715.5Q4483 703 4483 656V281H4392V234H4483V184Q4483 95 4530.5 47.5Q4578 0 4660 0Q4738 0 4769.0 19.5Q4800 39 4800 70Q4800 97 4777.0 111.5Q4754 126 4718 126Q4718 96 4704.0 71.0Q4690 46 4652 46Q4609 46 4593.0 79.0Q4577 112 4577 175V234H4718V281H4577V656Q4577 703 4601.0 715.5Q4625 728 4659 728H4697V770ZM5140 770V728H5163Q5196 728 5220.5 716.5Q5245 705 5245 661V106H5149Q5105 106 5088.0 130.5Q5071 155 5067 188L5062 231H5010L5015 56H5578L5583 231H5531L5526 188Q5522 155 5505.0 130.5Q5488 106 5443 106H5346V656Q5346 703 5370.0 715.5Q5394 728 5428 728H5451V770ZM5840 780Q5732 780 5670.0 711.0Q5608 642 5608 501Q5608 361 5667.5 292.5Q5727 224 5843 224Q5951 224 6013.0 292.5Q6075 361 6075 501Q6075 642 6015.5 711.0Q5956 780 5840 780ZM5842 728Q5917 728 5947.5 670.5Q5978 613 5978 501Q5978 389 5947.0 333.0Q5916 277 5841 277Q5766 277 5735.5 333.0Q5705 389 5705 501Q5705 613 5736.0 670.5Q5767 728 5842 728ZM6389 780Q6290 780 6237.5 713.5Q6185 647 6185 503Q6185 358 6237.5 291.0Q6290 224 6389 224Q6447 224 6483.5 248.5Q6520 273 6542 312H6548Q6545 287 6543.5 256.5Q6542 226 6542 202V120Q6542 76 6517.5 64.0Q6493 52 6460 52H6452V10H6636V660Q6636 704 6660.5 716.0Q6685 728 6718 728H6726V770H6557L6546 680H6542Q6520 726 6484.0 753.0Q6448 780 6389 780ZM6406 716Q6484 716 6513.0 663.5Q6542 611 6542 503Q6542 399 6513.0 343.5Q6484 288 6405 288Q6339 288 6310.5 343.5Q6282 399 6282 504Q6282 610 6310.5 663.0Q6339 716 6406 716ZM6762 770V728H6770Q6804 728 6828.0 715.5Q6852 703 6852 656V120Q6852 76 6827.5 64.0Q6803 52 6770 52H6762V10H6946V230Q6946 248 6945.0 267.5Q6944 287 6943.0 301.0Q6942 315 6942 315H6947Q6993 224 7094 224Q7180 224 7225.5 270.5Q7271 317 7271 420V656Q7271 703 7292.5 715.5Q7314 728 7348 728H7351V770H7177V425Q7177 360 7152.5 324.0Q7128 288 7067 288Q7005 288 6975.5 332.0Q6946 376 6946 450V661Q6946 705 6970.5 716.5Q6995 728 7028 728H7031V770ZM7412 770V728H7415Q7449 728 7473.0 715.5Q7497 703 7497 656V344Q7497 300 7472.5 288.0Q7448 276 7415 276H7412V234H7566L7585 333H7590Q7603 303 7618.0 278.0Q7633 253 7658.0 238.5Q7683 224 7727 224Q7782 224 7808.5 243.0Q7835 262 7835 297Q7835 328 7813.5 348.0Q7792 368 7742 368Q7742 327 7730.0 308.5Q7718 290 7689 290Q7661 290 7642.0 312.0Q7623 334 7612.0 368.0Q7601 402 7596.0 438.5Q7591 475 7591 504V661Q7591 705 7615.5 716.5Q7640 728 7673 728H7701V770ZM7873 770V728H7886Q7919 728 7943.5 716.5Q7968 705 7968 661V344Q7968 300 7943.5 288.0Q7919 276 7886 276H7883V234H8062V656Q8062 703 8086.0 715.5Q8110 728 8144 728H8157V770ZM8011 134Q7987 134 7970.5 120.0Q7954 106 7954 72Q7954 37 7970.5 23.5Q7987 10 8011 10Q8034 10 8051.0 23.5Q8068 37 8068 72Q8068 106 8051.0 120.0Q8034 134 8011 134Z" fill="currentColor" /></svg>