<svg viewBox="0 0 8144 1362" xmlns="http://www.w3.org/2000/svg"><path d="M663 1069H558L176 476H172Q174 511 177.0 563.0Q180 615 180 670V1069H97V355H201L582 946H586Q585 930 583.5 898.0Q582 866 580.5 828.0Q579 790 579 758V355H663ZM1311 800Q1311 933 1243.5 1006.0Q1176 1079 1061 1079Q990 1079 934.5 1046.5Q879 1014 847.0 951.5Q815 889 815 800Q815 667 882.0 595.0Q949 523 1064 523Q1137 523 1192.5 555.5Q1248 588 1279.5 649.5Q1311 711 1311 800ZM906 800Q906 895 943.5 950.5Q981 1006 1063 1006Q1144 1006 1182.0 950.5Q1220 895 1220 800Q1220 705 1182.0 651.0Q1144 597 1062 597Q980 597 943.0 651.0Q906 705 906 800ZM1629 1007Q1649 1007 1670.0 1003.5Q1691 1000 1704 996V1063Q1690 1070 1664.0 1074.5Q1638 1079 1614 1079Q1572 1079 1536.5 1064.5Q1501 1050 1479.0 1014.0Q1457 978 1457 913V601H1381V559L1458 524L1493 410H1545V533H1700V601H1545V911Q1545 960 1568.5 983.5Q1592 1007 1629 1007ZM2277 800Q2277 933 2209.5 1006.0Q2142 1079 2027 1079Q1956 1079 1900.5 1046.5Q1845 1014 1813.0 951.5Q1781 889 1781 800Q1781 667 1848.0 595.0Q1915 523 2030 523Q2103 523 2158.5 555.5Q2214 588 2245.5 649.5Q2277 711 2277 800ZM1872 800Q1872 895 1909.5 950.5Q1947 1006 2029 1006Q2110 1006 2148.0 950.5Q2186 895 2186 800Q2186 705 2148.0 651.0Q2110 597 2028 597Q1946 597 1909.0 651.0Q1872 705 1872 800ZM3093 878Q3093 973 3024.0 1026.0Q2955 1079 2838 1079Q2778 1079 2727.0 1070.0Q2676 1061 2642 1045V959Q2678 975 2731.5 988.0Q2785 1001 2842 1001Q2922 1001 2962.5 970.0Q3003 939 3003 886Q3003 851 2988.0 827.0Q2973 803 2936.5 782.5Q2900 762 2835 739Q2744 706 2697.5 658.0Q2651 610 2651 527Q2651 470 2680.0 429.5Q2709 389 2760.5 367.0Q2812 345 2879 345Q2938 345 2987.0 356.0Q3036 367 3076 385L3048 462Q3011 446 2967.5 435.0Q2924 424 2877 424Q2810 424 2776.0 452.5Q2742 481 2742 528Q2742 564 2757.0 588.0Q2772 612 2806.0 631.0Q2840 650 2898 672Q2961 695 3004.5 721.5Q3048 748 3070.5 785.0Q3093 822 3093 878ZM3428 524Q3526 524 3573.0 567.0Q3620 610 3620 704V1069H3556L3539 993H3535Q3500 1037 3461.5 1058.0Q3423 1079 3355 1079Q3282 1079 3234.0 1040.5Q3186 1002 3186 920Q3186 840 3249.0 796.5Q3312 753 3443 749L3534 746V714Q3534 647 3505.0 621.0Q3476 595 3423 595Q3381 595 3343.0 607.5Q3305 620 3272 636L3245 570Q3280 551 3328.0 537.5Q3376 524 3428 524ZM3454 810Q3354 814 3315.5 842.0Q3277 870 3277 921Q3277 966 3304.5 987.0Q3332 1008 3375 1008Q3443 1008 3488.0 970.5Q3533 933 3533 855V807ZM4044 523Q4140 523 4189.0 569.5Q4238 616 4238 720V1069H4151V726Q4151 597 4031 597Q3942 597 3908.0 647.0Q3874 697 3874 791V1069H3786V533H3857L3870 606H3875Q3901 564 3947.0 543.5Q3993 523 4044 523ZM4753 921Q4753 999 4695.0 1039.0Q4637 1079 4539 1079Q4483 1079 4442.5 1070.0Q4402 1061 4371 1045V965Q4403 981 4448.5 994.5Q4494 1008 4541 1008Q4608 1008 4638.0 986.5Q4668 965 4668 929Q4668 909 4657.0 893.0Q4646 877 4617.5 861.0Q4589 845 4536 825Q4484 805 4447.0 785.0Q4410 765 4390.0 737.0Q4370 709 4370 665Q4370 597 4425.5 560.0Q4481 523 4571 523Q4620 523 4662.5 532.5Q4705 542 4742 559L4712 629Q4678 615 4641.0 605.0Q4604 595 4565 595Q4511 595 4482.5 612.5Q4454 630 4454 660Q4454 682 4467.0 697.5Q4480 713 4510.5 727.5Q4541 742 4592 762Q4643 781 4679.0 801.0Q4715 821 4734.0 849.5Q4753 878 4753 921ZM5155 1069V355H5245V989H5557V1069ZM5583 533H5677L5793 838Q5808 878 5820.0 914.5Q5832 951 5838 984H5842Q5848 959 5861.0 918.5Q5874 878 5888 837L5997 533H6092L5861 1143Q5833 1219 5788.5 1264.0Q5744 1309 5666 1309Q5642 1309 5624.0 1306.5Q5606 1304 5593 1301V1231Q5604 1233 5619.5 1235.0Q5635 1237 5652 1237Q5698 1237 5726.5 1211.0Q5755 1185 5771 1142L5799 1071ZM6367 1079Q6267 1079 6207.0 1009.5Q6147 940 6147 802Q6147 664 6207.5 593.5Q6268 523 6368 523Q6430 523 6469.5 546.0Q6509 569 6534 602H6540Q6539 589 6536.5 563.5Q6534 538 6534 523V309H6622V1069H6551L6538 997H6534Q6510 1031 6470.0 1055.0Q6430 1079 6367 1079ZM6381 1006Q6466 1006 6500.5 959.5Q6535 913 6535 819V803Q6535 703 6502.0 649.5Q6469 596 6380 596Q6309 596 6273.5 652.5Q6238 709 6238 804Q6238 900 6273.5 953.0Q6309 1006 6381 1006ZM6837 332Q6857 332 6872.5 345.5Q6888 359 6888 388Q6888 416 6872.5 430.0Q6857 444 6837 444Q6815 444 6800.0 430.0Q6785 416 6785 388Q6785 359 6800.0 345.5Q6815 332 6837 332ZM6880 533V1069H6792V533ZM7253 524Q7351 524 7398.0 567.0Q7445 610 7445 704V1069H7381L7364 993H7360Q7325 1037 7286.5 1058.0Q7248 1079 7180 1079Q7107 1079 7059.0 1040.5Q7011 1002 7011 920Q7011 840 7074.0 796.5Q7137 753 7268 749L7359 746V714Q7359 647 7330.0 621.0Q7301 595 7248 595Q7206 595 7168.0 607.5Q7130 620 7097 636L7070 570Q7105 551 7153.0 537.5Q7201 524 7253 524ZM7279 810Q7179 814 7140.5 842.0Q7102 870 7102 921Q7102 966 7129.5 987.0Q7157 1008 7200 1008Q7268 1008 7313.0 970.5Q7358 933 7358 855V807ZM7869 523Q7965 523 8014.0 569.5Q8063 616 8063 720V1069H7976V726Q7976 597 7856 597Q7767 597 7733.0 647.0Q7699 697 7699 791V1069H7611V533H7682L7695 606H7700Q7726 564 7772.0 543.5Q7818 523 7869 523Z" fill="currentColor" /></svg>