<svg viewBox="0 0 8799 780" xmlns="http://www.w3.org/2000/svg"><path d="M0 770V728H13Q36 728 54.5 723.0Q73 718 84.0 702.5Q95 687 95 656V166Q95 136 83.5 121.5Q72 107 53.5 102.5Q35 98 13 98H0V56H183L541 609V166Q541 136 529.5 121.5Q518 107 499.5 102.5Q481 98 459 98H446V56H697V98H684Q662 98 643.0 103.0Q624 108 613.0 123.0Q602 138 602 170V770H531L156 194V656Q156 687 167.0 702.5Q178 718 197.0 723.0Q216 728 238 728H251V770ZM1012 780Q904 780 842.0 711.0Q780 642 780 501Q780 361 839.5 292.5Q899 224 1015 224Q1123 224 1185.0 292.5Q1247 361 1247 501Q1247 642 1187.5 711.0Q1128 780 1012 780ZM1014 728Q1064 728 1094.0 702.5Q1124 677 1137.0 626.0Q1150 575 1150 501Q1150 389 1119.0 333.0Q1088 277 1013 277Q938 277 907.5 333.0Q877 389 877 501Q877 613 908.0 670.5Q939 728 1014 728ZM1542 780Q1466 780 1431.5 745.5Q1397 711 1397 625V291H1321V251Q1339 251 1361.0 243.5Q1383 236 1399 219Q1416 201 1427.0 175.0Q1438 149 1445 111H1491V234H1622V291H1491V628Q1491 679 1512.0 703.0Q1533 727 1567 727Q1585 727 1600.0 725.0Q1615 723 1631 720V764Q1618 770 1592.0 775.0Q1566 780 1542 780ZM1941 780Q1833 780 1771.0 711.0Q1709 642 1709 501Q1709 361 1768.5 292.5Q1828 224 1944 224Q2052 224 2114.0 292.5Q2176 361 2176 501Q2176 642 2116.5 711.0Q2057 780 1941 780ZM1943 728Q1993 728 2023.0 702.5Q2053 677 2066.0 626.0Q2079 575 2079 501Q2079 389 2048.0 333.0Q2017 277 1942 277Q1867 277 1836.5 333.0Q1806 389 1806 501Q1806 613 1837.0 670.5Q1868 728 1943 728ZM2738 780Q2689 780 2651.5 770.0Q2614 760 2589.0 741.0Q2564 722 2551.5 696.0Q2539 670 2539 639Q2539 619 2547.5 604.0Q2556 589 2572.0 580.5Q2588 572 2611 572Q2613 613 2627.0 649.5Q2641 686 2670.0 708.5Q2699 731 2746 731Q2813 731 2851.0 698.5Q2889 666 2889 605Q2889 568 2874.5 542.5Q2860 517 2826.5 495.0Q2793 473 2734 449Q2672 423 2631.0 393.0Q2590 363 2570.0 322.5Q2550 282 2550 227Q2550 170 2578.5 129.5Q2607 89 2656.5 67.5Q2706 46 2769 46Q2829 46 2870.5 62.0Q2912 78 2934.0 103.5Q2956 129 2956 158Q2956 190 2934.5 206.5Q2913 223 2877 223Q2877 192 2866.5 163.0Q2856 134 2831.5 115.0Q2807 96 2765 96Q2707 96 2675.0 127.0Q2643 158 2643 210Q2643 250 2657.5 277.5Q2672 305 2706.0 326.5Q2740 348 2798 372Q2857 396 2898.5 424.5Q2940 453 2962.0 490.0Q2984 527 2984 579Q2984 643 2954.0 687.5Q2924 732 2868.5 756.0Q2813 780 2738 780ZM3322 780Q3213 780 3151.5 708.0Q3090 636 3090 506Q3090 366 3148.0 295.0Q3206 224 3312 224Q3409 224 3464.5 284.0Q3520 344 3520 463V509H3187Q3189 618 3226.5 667.5Q3264 717 3336 717Q3388 717 3424.5 695.5Q3461 674 3479 647Q3486 650 3492.0 659.0Q3498 668 3498 681Q3498 701 3479.0 724.0Q3460 747 3421.0 763.5Q3382 780 3322 780ZM3419 455Q3419 375 3394.5 326.5Q3370 278 3310 278Q3255 278 3224.5 323.5Q3194 369 3189 455ZM3603 770V728H3606Q3629 728 3647.5 723.0Q3666 718 3677.0 702.5Q3688 687 3688 656V344Q3688 314 3676.5 299.5Q3665 285 3646.5 280.5Q3628 276 3606 276H3603V234H3757L3776 333H3781Q3794 303 3809.0 278.0Q3824 253 3849.0 238.5Q3874 224 3918 224Q3973 224 3999.5 243.0Q4026 262 4026 297Q4026 328 4004.5 348.0Q3983 368 3933 368Q3933 340 3928.0 323.0Q3923 306 3911.5 298.0Q3900 290 3880 290Q3852 290 3833.0 312.0Q3814 334 3803.0 368.0Q3792 402 3787.0 438.5Q3782 475 3782 504V661Q3782 690 3793.5 704.5Q3805 719 3823.5 723.5Q3842 728 3864 728H3892V770ZM4064 770V728H4077Q4099 728 4117.5 723.5Q4136 719 4147.5 704.5Q4159 690 4159 661V344Q4159 314 4147.5 299.5Q4136 285 4117.5 280.5Q4099 276 4077 276H4074V234H4253V656Q4253 687 4264.0 702.5Q4275 718 4294.0 723.0Q4313 728 4335 728H4348V770ZM4202 134Q4178 134 4161.5 120.0Q4145 106 4145 72Q4145 37 4161.5 23.5Q4178 10 4202 10Q4225 10 4242.0 23.5Q4259 37 4259 72Q4259 106 4242.0 120.0Q4225 134 4202 134ZM4388 770V728H4401Q4424 728 4442.5 723.0Q4461 718 4472.0 702.5Q4483 687 4483 656V281H4392V234H4483V184Q4483 95 4530.5 47.5Q4578 0 4660 0Q4712 0 4742.5 9.0Q4773 18 4786.5 33.5Q4800 49 4800 70Q4800 88 4789.5 100.5Q4779 113 4760.5 119.5Q4742 126 4718 126Q4718 106 4712.0 87.5Q4706 69 4692.0 57.5Q4678 46 4652 46Q4609 46 4593.0 79.0Q4577 112 4577 175V234H4718V281H4577V656Q4577 687 4588.0 702.5Q4599 718 4618.0 723.0Q4637 728 4659 728H4697V770ZM5028 770V728H5041Q5064 728 5082.5 723.0Q5101 718 5112.0 702.5Q5123 687 5123 656V166Q5123 136 5111.5 121.5Q5100 107 5081.5 102.5Q5063 98 5041 98H5028V56H5319V98H5306Q5284 98 5265.0 103.0Q5246 108 5235.0 123.0Q5224 138 5224 170V372H5549V170Q5549 138 5538.0 123.0Q5527 108 5508.5 103.0Q5490 98 5467 98H5454V56H5745V98H5732Q5710 98 5691.0 103.0Q5672 108 5661.0 123.0Q5650 138 5650 170V661Q5650 690 5661.5 704.5Q5673 719 5691.5 723.5Q5710 728 5732 728H5745V770H5454V728H5467Q5490 728 5508.5 723.0Q5527 718 5538.0 702.5Q5549 687 5549 656V422H5224V656Q5224 687 5235.0 702.5Q5246 718 5265.0 723.0Q5284 728 5306 728H5319V770ZM6070 780Q5961 780 5899.5 708.0Q5838 636 5838 506Q5838 366 5896.0 295.0Q5954 224 6060 224Q6157 224 6212.5 284.0Q6268 344 6268 463V509H5935Q5937 618 5974.5 667.5Q6012 717 6084 717Q6136 717 6172.5 695.5Q6209 674 6227 647Q6234 650 6240.0 659.0Q6246 668 6246 681Q6246 701 6227.0 724.0Q6208 747 6169.0 763.5Q6130 780 6070 780ZM6167 455Q6167 375 6142.5 326.5Q6118 278 6058 278Q6003 278 5972.5 323.5Q5942 369 5937 455ZM6673 780Q6615 780 6578.5 755.5Q6542 731 6520 692H6514L6496 770H6336V728H6344Q6367 728 6385.5 723.0Q6404 718 6415.0 702.5Q6426 687 6426 656V120Q6426 90 6414.5 75.5Q6403 61 6384.5 56.5Q6366 52 6344 52H6336V10H6520V194Q6520 211 6519.5 237.5Q6519 264 6518.0 288.5Q6517 313 6516 324H6520Q6543 278 6579.0 251.0Q6615 224 6673 224Q6772 224 6824.5 290.5Q6877 357 6877 501Q6877 597 6853.5 659.0Q6830 721 6784.5 750.5Q6739 780 6673 780ZM6657 716Q6723 716 6751.5 660.5Q6780 605 6780 500Q6780 393 6751.5 340.5Q6723 288 6656 288Q6578 288 6549.0 340.5Q6520 393 6520 501Q6520 570 6532.5 618.0Q6545 666 6575.0 691.0Q6605 716 6657 716ZM6965 770V728H6968Q6991 728 7009.5 723.0Q7028 718 7039.0 702.5Q7050 687 7050 656V344Q7050 314 7038.5 299.5Q7027 285 7008.5 280.5Q6990 276 6968 276H6965V234H7119L7138 333H7143Q7156 303 7171.0 278.0Q7186 253 7211.0 238.5Q7236 224 7280 224Q7335 224 7361.5 243.0Q7388 262 7388 297Q7388 328 7366.5 348.0Q7345 368 7295 368Q7295 340 7290.0 323.0Q7285 306 7273.5 298.0Q7262 290 7242 290Q7214 290 7195.0 312.0Q7176 334 7165.0 368.0Q7154 402 7149.0 438.5Q7144 475 7144 504V661Q7144 690 7155.5 704.5Q7167 719 7185.5 723.5Q7204 728 7226 728H7254V770ZM7690 780Q7581 780 7519.5 708.0Q7458 636 7458 506Q7458 366 7516.0 295.0Q7574 224 7680 224Q7777 224 7832.5 284.0Q7888 344 7888 463V509H7555Q7557 618 7594.5 667.5Q7632 717 7704 717Q7756 717 7792.5 695.5Q7829 674 7847 647Q7854 650 7860.0 659.0Q7866 668 7866 681Q7866 701 7847.0 724.0Q7828 747 7789.0 763.5Q7750 780 7690 780ZM7787 455Q7787 375 7762.5 326.5Q7738 278 7678 278Q7623 278 7592.5 323.5Q7562 369 7557 455ZM8013 329Q8006 308 7996.5 296.5Q7987 285 7974.5 280.5Q7962 276 7942 276H7939V234H8186V276H8173Q8143 276 8128.0 284.5Q8113 293 8113 318Q8113 326 8115.5 338.0Q8118 350 8121 361L8168 529Q8175 553 8181.5 582.5Q8188 612 8194.0 638.5Q8200 665 8203 682H8206Q8209 665 8215.5 641.0Q8222 617 8230.5 590.0Q8239 563 8247 539L8351 237H8414L8514 533Q8520 551 8526.5 571.5Q8533 592 8539.0 613.0Q8545 634 8550.0 652.0Q8555 670 8557 682H8560Q8565 657 8574.5 620.5Q8584 584 8599 536L8649 375Q8653 362 8655.5 347.5Q8658 333 8658 325Q8658 299 8641.5 287.5Q8625 276 8592 276H8585V234H8799V276H8786Q8767 276 8754.0 281.5Q8741 287 8731.0 304.0Q8721 321 8711 354L8582 770H8502L8365 352L8223 770H8144Z" fill="currentColor" /></svg>