<svg viewBox="0 0 9895 770" xmlns="http://www.w3.org/2000/svg"><path d="M566 760H461L79 167H75Q77 202 80.0 254.0Q83 306 83 361V760H0V46H104L485 637H489Q488 621 486.5 589.0Q485 557 483.5 519.0Q482 481 482 449V46H566ZM1214 491Q1214 624 1146.5 697.0Q1079 770 964 770Q893 770 837.5 737.5Q782 705 750.0 642.5Q718 580 718 491Q718 358 785.0 286.0Q852 214 967 214Q1040 214 1095.5 246.5Q1151 279 1182.5 340.5Q1214 402 1214 491ZM809 491Q809 586 846.5 641.5Q884 697 966 697Q1047 697 1085.0 641.5Q1123 586 1123 491Q1123 396 1085.0 342.0Q1047 288 965 288Q883 288 846.0 342.0Q809 396 809 491ZM1532 698Q1552 698 1573.0 694.5Q1594 691 1607 687V754Q1593 761 1567.0 765.5Q1541 770 1517 770Q1475 770 1439.5 755.5Q1404 741 1382.0 705.0Q1360 669 1360 604V292H1284V250L1361 215L1396 101H1448V224H1603V292H1448V602Q1448 651 1471.5 674.5Q1495 698 1532 698ZM2180 491Q2180 624 2112.5 697.0Q2045 770 1930 770Q1859 770 1803.5 737.5Q1748 705 1716.0 642.5Q1684 580 1684 491Q1684 358 1751.0 286.0Q1818 214 1933 214Q2006 214 2061.5 246.5Q2117 279 2148.5 340.5Q2180 402 2180 491ZM1775 491Q1775 586 1812.5 641.5Q1850 697 1932 697Q2013 697 2051.0 641.5Q2089 586 2089 491Q2089 396 2051.0 342.0Q2013 288 1931 288Q1849 288 1812.0 342.0Q1775 396 1775 491ZM3078 569Q3078 664 3009.0 717.0Q2940 770 2823 770Q2763 770 2712.0 761.0Q2661 752 2627 736V650Q2663 666 2716.5 679.0Q2770 692 2827 692Q2907 692 2947.5 661.0Q2988 630 2988 577Q2988 542 2973.0 518.0Q2958 494 2921.5 473.5Q2885 453 2820 430Q2774 413 2739.5 393.5Q2705 374 2682.0 349.0Q2659 324 2647.5 292.0Q2636 260 2636 218Q2636 161 2665.0 120.5Q2694 80 2745.5 58.0Q2797 36 2864 36Q2923 36 2972.0 47.0Q3021 58 3061 76L3033 153Q2996 137 2952.5 126.0Q2909 115 2862 115Q2795 115 2761.0 143.5Q2727 172 2727 219Q2727 255 2742.0 279.0Q2757 303 2791.0 322.0Q2825 341 2883 363Q2946 386 2989.5 412.5Q3033 439 3055.5 476.0Q3078 513 3078 569ZM3413 215Q3511 215 3558.0 258.0Q3605 301 3605 395V760H3541L3524 684H3520Q3485 728 3446.5 749.0Q3408 770 3340 770Q3267 770 3219.0 731.5Q3171 693 3171 611Q3171 531 3234.0 487.5Q3297 444 3428 440L3519 437V405Q3519 338 3490.0 312.0Q3461 286 3408 286Q3366 286 3328.0 298.5Q3290 311 3257 327L3230 261Q3265 242 3313.0 228.5Q3361 215 3413 215ZM3439 501Q3339 505 3300.5 533.0Q3262 561 3262 612Q3262 657 3289.5 678.0Q3317 699 3360 699Q3428 699 3473.0 661.5Q3518 624 3518 546V498ZM4029 214Q4125 214 4174.0 260.5Q4223 307 4223 411V760H4136V417Q4136 352 4107.0 320.0Q4078 288 4016 288Q3927 288 3893.0 338.0Q3859 388 3859 482V760H3771V224H3842L3855 297H3860Q3886 255 3932.0 234.5Q3978 214 4029 214ZM4738 612Q4738 690 4680.0 730.0Q4622 770 4524 770Q4468 770 4427.5 761.0Q4387 752 4356 736V656Q4388 672 4433.5 685.5Q4479 699 4526 699Q4593 699 4623.0 677.5Q4653 656 4653 620Q4653 600 4642.0 584.0Q4631 568 4602.5 552.0Q4574 536 4521 516Q4469 496 4432.0 476.0Q4395 456 4375.0 428.0Q4355 400 4355 356Q4355 288 4410.5 251.0Q4466 214 4556 214Q4605 214 4647.5 223.5Q4690 233 4727 250L4697 320Q4663 306 4626.0 296.0Q4589 286 4550 286Q4496 286 4467.5 303.5Q4439 321 4439 351Q4439 373 4452.0 388.5Q4465 404 4495.5 418.5Q4526 433 4577 453Q4628 472 4664.0 492.0Q4700 512 4719.0 540.5Q4738 569 4738 612ZM5426 46Q5560 46 5628.5 85.5Q5697 125 5697 223Q5697 286 5662.0 327.5Q5627 369 5561 381V386Q5606 393 5642.5 412.0Q5679 431 5700.0 466.0Q5721 501 5721 557Q5721 654 5654.5 707.0Q5588 760 5473 760H5222V46ZM5444 350Q5536 350 5570.0 320.5Q5604 291 5604 233Q5604 174 5562.5 148.5Q5521 123 5430 123H5312V350ZM5312 425V684H5456Q5551 684 5588.0 647.0Q5625 610 5625 550Q5625 494 5586.5 459.5Q5548 425 5449 425ZM6063 215Q6161 215 6208.0 258.0Q6255 301 6255 395V760H6191L6174 684H6170Q6135 728 6096.5 749.0Q6058 770 5990 770Q5917 770 5869.0 731.5Q5821 693 5821 611Q5821 531 5884.0 487.5Q5947 444 6078 440L6169 437V405Q6169 338 6140.0 312.0Q6111 286 6058 286Q6016 286 5978.0 298.5Q5940 311 5907 327L5880 261Q5915 242 5963.0 228.5Q6011 215 6063 215ZM6089 501Q5989 505 5950.5 533.0Q5912 561 5912 612Q5912 657 5939.5 678.0Q5967 699 6010 699Q6078 699 6123.0 661.5Q6168 624 6168 546V498ZM6770 612Q6770 690 6712.0 730.0Q6654 770 6556 770Q6500 770 6459.5 761.0Q6419 752 6388 736V656Q6420 672 6465.5 685.5Q6511 699 6558 699Q6625 699 6655.0 677.5Q6685 656 6685 620Q6685 600 6674.0 584.0Q6663 568 6634.5 552.0Q6606 536 6553 516Q6501 496 6464.0 476.0Q6427 456 6407.0 428.0Q6387 400 6387 356Q6387 288 6442.5 251.0Q6498 214 6588 214Q6637 214 6679.5 223.5Q6722 233 6759 250L6729 320Q6695 306 6658.0 296.0Q6621 286 6582 286Q6528 286 6499.5 303.5Q6471 321 6471 351Q6471 373 6484.0 388.5Q6497 404 6527.5 418.5Q6558 433 6609 453Q6660 472 6696.0 492.0Q6732 512 6751.0 540.5Q6770 569 6770 612ZM7249 612Q7249 690 7191.0 730.0Q7133 770 7035 770Q6979 770 6938.5 761.0Q6898 752 6867 736V656Q6899 672 6944.5 685.5Q6990 699 7037 699Q7104 699 7134.0 677.5Q7164 656 7164 620Q7164 600 7153.0 584.0Q7142 568 7113.5 552.0Q7085 536 7032 516Q6980 496 6943.0 476.0Q6906 456 6886.0 428.0Q6866 400 6866 356Q6866 288 6921.5 251.0Q6977 214 7067 214Q7116 214 7158.5 223.5Q7201 233 7238 250L7208 320Q7174 306 7137.0 296.0Q7100 286 7061 286Q7007 286 6978.5 303.5Q6950 321 6950 351Q6950 373 6963.0 388.5Q6976 404 7006.5 418.5Q7037 433 7088 453Q7139 472 7175.0 492.0Q7211 512 7230.0 540.5Q7249 569 7249 612ZM7582 215Q7680 215 7727.0 258.0Q7774 301 7774 395V760H7710L7693 684H7689Q7654 728 7615.5 749.0Q7577 770 7509 770Q7436 770 7388.0 731.5Q7340 693 7340 611Q7340 531 7403.0 487.5Q7466 444 7597 440L7688 437V405Q7688 338 7659.0 312.0Q7630 286 7577 286Q7535 286 7497.0 298.5Q7459 311 7426 327L7399 261Q7434 242 7482.0 228.5Q7530 215 7582 215ZM7608 501Q7508 505 7469.5 533.0Q7431 561 7431 612Q7431 657 7458.5 678.0Q7486 699 7529 699Q7597 699 7642.0 661.5Q7687 624 7687 546V498ZM8797 46 8542 760H8452L8197 46H8291L8452 504Q8463 533 8471.0 560.0Q8479 587 8485.5 611.5Q8492 636 8497 660Q8502 636 8508.5 611.0Q8515 586 8523.5 559.0Q8532 532 8542 502L8702 46ZM9085 215Q9183 215 9230.0 258.0Q9277 301 9277 395V760H9213L9196 684H9192Q9157 728 9118.5 749.0Q9080 770 9012 770Q8939 770 8891.0 731.5Q8843 693 8843 611Q8843 531 8906.0 487.5Q8969 444 9100 440L9191 437V405Q9191 338 9162.0 312.0Q9133 286 9080 286Q9038 286 9000.0 298.5Q8962 311 8929 327L8902 261Q8937 242 8985.0 228.5Q9033 215 9085 215ZM9111 501Q9011 505 8972.5 533.0Q8934 561 8934 612Q8934 657 8961.5 678.0Q8989 699 9032 699Q9100 699 9145.0 661.5Q9190 624 9190 546V498ZM9531 223Q9531 242 9529.5 262.0Q9528 282 9526 298H9532Q9558 257 9602.5 236.0Q9647 215 9699 215Q9797 215 9846.0 261.5Q9895 308 9895 411V760H9808V417Q9808 288 9688 288Q9598 288 9564.5 338.5Q9531 389 9531 483V760H9443V0H9531Z" fill="currentColor" /></svg>