<svg viewBox="0 0 7725 1362" xmlns="http://www.w3.org/2000/svg"><path d="M663 1069H558L176 476H172Q174 511 177.0 563.0Q180 615 180 670V1069H97V355H201L582 946H586Q585 930 583.5 898.0Q582 866 580.5 828.0Q579 790 579 758V355H663ZM1311 800Q1311 933 1243.5 1006.0Q1176 1079 1061 1079Q990 1079 934.5 1046.5Q879 1014 847.0 951.5Q815 889 815 800Q815 667 882.0 595.0Q949 523 1064 523Q1137 523 1192.5 555.5Q1248 588 1279.5 649.5Q1311 711 1311 800ZM906 800Q906 895 943.5 950.5Q981 1006 1063 1006Q1144 1006 1182.0 950.5Q1220 895 1220 800Q1220 705 1182.0 651.0Q1144 597 1062 597Q980 597 943.0 651.0Q906 705 906 800ZM1629 1007Q1649 1007 1670.0 1003.5Q1691 1000 1704 996V1063Q1690 1070 1664.0 1074.5Q1638 1079 1614 1079Q1572 1079 1536.5 1064.5Q1501 1050 1479.0 1014.0Q1457 978 1457 913V601H1381V559L1458 524L1493 410H1545V533H1700V601H1545V911Q1545 960 1568.5 983.5Q1592 1007 1629 1007ZM2277 800Q2277 933 2209.5 1006.0Q2142 1079 2027 1079Q1956 1079 1900.5 1046.5Q1845 1014 1813.0 951.5Q1781 889 1781 800Q1781 667 1848.0 595.0Q1915 523 2030 523Q2103 523 2158.5 555.5Q2214 588 2245.5 649.5Q2277 711 2277 800ZM1872 800Q1872 895 1909.5 950.5Q1947 1006 2029 1006Q2110 1006 2148.0 950.5Q2186 895 2186 800Q2186 705 2148.0 651.0Q2110 597 2028 597Q1946 597 1909.0 651.0Q1872 705 1872 800ZM3093 878Q3093 973 3024.0 1026.0Q2955 1079 2838 1079Q2778 1079 2727.0 1070.0Q2676 1061 2642 1045V959Q2678 975 2731.5 988.0Q2785 1001 2842 1001Q2922 1001 2962.5 970.0Q3003 939 3003 886Q3003 851 2988.0 827.0Q2973 803 2936.5 782.5Q2900 762 2835 739Q2744 706 2697.5 658.0Q2651 610 2651 527Q2651 470 2680.0 429.5Q2709 389 2760.5 367.0Q2812 345 2879 345Q2938 345 2987.0 356.0Q3036 367 3076 385L3048 462Q3011 446 2967.5 435.0Q2924 424 2877 424Q2810 424 2776.0 452.5Q2742 481 2742 528Q2742 564 2757.0 588.0Q2772 612 2806.0 631.0Q2840 650 2898 672Q2961 695 3004.5 721.5Q3048 748 3070.5 785.0Q3093 822 3093 878ZM3428 524Q3526 524 3573.0 567.0Q3620 610 3620 704V1069H3556L3539 993H3535Q3500 1037 3461.5 1058.0Q3423 1079 3355 1079Q3282 1079 3234.0 1040.5Q3186 1002 3186 920Q3186 840 3249.0 796.5Q3312 753 3443 749L3534 746V714Q3534 647 3505.0 621.0Q3476 595 3423 595Q3381 595 3343.0 607.5Q3305 620 3272 636L3245 570Q3280 551 3328.0 537.5Q3376 524 3428 524ZM3454 810Q3354 814 3315.5 842.0Q3277 870 3277 921Q3277 966 3304.5 987.0Q3332 1008 3375 1008Q3443 1008 3488.0 970.5Q3533 933 3533 855V807ZM4044 523Q4140 523 4189.0 569.5Q4238 616 4238 720V1069H4151V726Q4151 597 4031 597Q3942 597 3908.0 647.0Q3874 697 3874 791V1069H3786V533H3857L3870 606H3875Q3901 564 3947.0 543.5Q3993 523 4044 523ZM4753 921Q4753 999 4695.0 1039.0Q4637 1079 4539 1079Q4483 1079 4442.5 1070.0Q4402 1061 4371 1045V965Q4403 981 4448.5 994.5Q4494 1008 4541 1008Q4608 1008 4638.0 986.5Q4668 965 4668 929Q4668 909 4657.0 893.0Q4646 877 4617.5 861.0Q4589 845 4536 825Q4484 805 4447.0 785.0Q4410 765 4390.0 737.0Q4370 709 4370 665Q4370 597 4425.5 560.0Q4481 523 4571 523Q4620 523 4662.5 532.5Q4705 542 4742 559L4712 629Q4678 615 4641.0 605.0Q4604 595 4565 595Q4511 595 4482.5 612.5Q4454 630 4454 660Q4454 682 4467.0 697.5Q4480 713 4510.5 727.5Q4541 742 4592 762Q4643 781 4679.0 801.0Q4715 821 4734.0 849.5Q4753 878 4753 921ZM5359 355Q5493 355 5561.5 394.5Q5630 434 5630 532Q5630 595 5595.0 636.5Q5560 678 5494 690V695Q5539 702 5575.5 721.0Q5612 740 5633.0 775.0Q5654 810 5654 866Q5654 963 5587.5 1016.0Q5521 1069 5406 1069H5155V355ZM5377 659Q5469 659 5503.0 629.5Q5537 600 5537 542Q5537 483 5495.5 457.5Q5454 432 5363 432H5245V659ZM5245 734V993H5389Q5484 993 5521.0 956.0Q5558 919 5558 859Q5558 803 5519.5 768.5Q5481 734 5382 734ZM5996 524Q6094 524 6141.0 567.0Q6188 610 6188 704V1069H6124L6107 993H6103Q6068 1037 6029.5 1058.0Q5991 1079 5923 1079Q5850 1079 5802.0 1040.5Q5754 1002 5754 920Q5754 840 5817.0 796.5Q5880 753 6011 749L6102 746V714Q6102 647 6073.0 621.0Q6044 595 5991 595Q5949 595 5911.0 607.5Q5873 620 5840 636L5813 570Q5848 551 5896.0 537.5Q5944 524 5996 524ZM6022 810Q5922 814 5883.5 842.0Q5845 870 5845 921Q5845 966 5872.5 987.0Q5900 1008 5943 1008Q6011 1008 6056.0 970.5Q6101 933 6101 855V807ZM6533 1007Q6553 1007 6574.0 1003.5Q6595 1000 6608 996V1063Q6594 1070 6568.0 1074.5Q6542 1079 6518 1079Q6476 1079 6440.5 1064.5Q6405 1050 6383.0 1014.0Q6361 978 6361 913V601H6285V559L6362 524L6397 410H6449V533H6604V601H6449V911Q6449 960 6472.5 983.5Q6496 1007 6533 1007ZM6918 524Q7016 524 7063.0 567.0Q7110 610 7110 704V1069H7046L7029 993H7025Q6990 1037 6951.5 1058.0Q6913 1079 6845 1079Q6772 1079 6724.0 1040.5Q6676 1002 6676 920Q6676 840 6739.0 796.5Q6802 753 6933 749L7024 746V714Q7024 647 6995.0 621.0Q6966 595 6913 595Q6871 595 6833.0 607.5Q6795 620 6762 636L6735 570Q6770 551 6818.0 537.5Q6866 524 6918 524ZM6944 810Q6844 814 6805.5 842.0Q6767 870 6767 921Q6767 966 6794.5 987.0Q6822 1008 6865 1008Q6933 1008 6978.0 970.5Q7023 933 7023 855V807ZM7363 706Q7363 722 7361.5 748.0Q7360 774 7359 793H7363Q7369 785 7381.0 770.0Q7393 755 7405.5 739.5Q7418 724 7427 714L7598 533H7701L7484 762L7716 1069H7610L7424 819L7363 872V1069H7276V309H7363Z" fill="currentColor" /></svg>