<svg viewBox="0 0 7300 1262" xmlns="http://www.w3.org/2000/svg"><path d="M663 955H558L176 362H172Q174 397 177.0 449.0Q180 501 180 556V955H97V241H201L582 832H586Q585 816 583.5 784.0Q582 752 580.5 714.0Q579 676 579 644V241H663ZM1311 686Q1311 819 1243.5 892.0Q1176 965 1061 965Q990 965 934.5 932.5Q879 900 847.0 837.5Q815 775 815 686Q815 553 882.0 481.0Q949 409 1064 409Q1137 409 1192.5 441.5Q1248 474 1279.5 535.5Q1311 597 1311 686ZM906 686Q906 781 943.5 836.5Q981 892 1063 892Q1144 892 1182.0 836.5Q1220 781 1220 686Q1220 591 1182.0 537.0Q1144 483 1062 483Q980 483 943.0 537.0Q906 591 906 686ZM1629 893Q1649 893 1670.0 889.5Q1691 886 1704 882V949Q1690 956 1664.0 960.5Q1638 965 1614 965Q1572 965 1536.5 950.5Q1501 936 1479.0 900.0Q1457 864 1457 799V487H1381V445L1458 410L1493 296H1545V419H1700V487H1545V797Q1545 846 1568.5 869.5Q1592 893 1629 893ZM2277 686Q2277 819 2209.5 892.0Q2142 965 2027 965Q1956 965 1900.5 932.5Q1845 900 1813.0 837.5Q1781 775 1781 686Q1781 553 1848.0 481.0Q1915 409 2030 409Q2103 409 2158.5 441.5Q2214 474 2245.5 535.5Q2277 597 2277 686ZM1872 686Q1872 781 1909.5 836.5Q1947 892 2029 892Q2110 892 2148.0 836.5Q2186 781 2186 686Q2186 591 2148.0 537.0Q2110 483 2028 483Q1946 483 1909.0 537.0Q1872 591 1872 686ZM3093 764Q3093 859 3024.0 912.0Q2955 965 2838 965Q2778 965 2727.0 956.0Q2676 947 2642 931V845Q2678 861 2731.5 874.0Q2785 887 2842 887Q2922 887 2962.5 856.0Q3003 825 3003 772Q3003 737 2988.0 713.0Q2973 689 2936.5 668.5Q2900 648 2835 625Q2744 592 2697.5 544.0Q2651 496 2651 413Q2651 356 2680.0 315.5Q2709 275 2760.5 253.0Q2812 231 2879 231Q2938 231 2987.0 242.0Q3036 253 3076 271L3048 348Q3011 332 2967.5 321.0Q2924 310 2877 310Q2810 310 2776.0 338.5Q2742 367 2742 414Q2742 450 2757.0 474.0Q2772 498 2806.0 517.0Q2840 536 2898 558Q2961 581 3004.5 607.5Q3048 634 3070.5 671.0Q3093 708 3093 764ZM3428 410Q3526 410 3573.0 453.0Q3620 496 3620 590V955H3556L3539 879H3535Q3500 923 3461.5 944.0Q3423 965 3355 965Q3282 965 3234.0 926.5Q3186 888 3186 806Q3186 726 3249.0 682.5Q3312 639 3443 635L3534 632V600Q3534 533 3505.0 507.0Q3476 481 3423 481Q3381 481 3343.0 493.5Q3305 506 3272 522L3245 456Q3280 437 3328.0 423.5Q3376 410 3428 410ZM3454 696Q3354 700 3315.5 728.0Q3277 756 3277 807Q3277 852 3304.5 873.0Q3332 894 3375 894Q3443 894 3488.0 856.5Q3533 819 3533 741V693ZM4044 409Q4140 409 4189.0 455.5Q4238 502 4238 606V955H4151V612Q4151 483 4031 483Q3942 483 3908.0 533.0Q3874 583 3874 677V955H3786V419H3857L3870 492H3875Q3901 450 3947.0 429.5Q3993 409 4044 409ZM4753 807Q4753 885 4695.0 925.0Q4637 965 4539 965Q4483 965 4442.5 956.0Q4402 947 4371 931V851Q4403 867 4448.5 880.5Q4494 894 4541 894Q4608 894 4638.0 872.5Q4668 851 4668 815Q4668 795 4657.0 779.0Q4646 763 4617.5 747.0Q4589 731 4536 711Q4484 691 4447.0 671.0Q4410 651 4390.0 623.0Q4370 595 4370 551Q4370 483 4425.5 446.0Q4481 409 4571 409Q4620 409 4662.5 418.5Q4705 428 4742 445L4712 515Q4678 501 4641.0 491.0Q4604 481 4565 481Q4511 481 4482.5 498.5Q4454 516 4454 546Q4454 568 4467.0 583.5Q4480 599 4510.5 613.5Q4541 628 4592 648Q4643 667 4679.0 687.0Q4715 707 4734.0 735.5Q4753 764 4753 807ZM5381 955H5291V320H5068V241H5603V320H5381ZM5822 410Q5920 410 5967.0 453.0Q6014 496 6014 590V955H5950L5933 879H5929Q5894 923 5855.5 944.0Q5817 965 5749 965Q5676 965 5628.0 926.5Q5580 888 5580 806Q5580 726 5643.0 682.5Q5706 639 5837 635L5928 632V600Q5928 533 5899.0 507.0Q5870 481 5817 481Q5775 481 5737.0 493.5Q5699 506 5666 522L5639 456Q5674 437 5722.0 423.5Q5770 410 5822 410ZM5848 696Q5748 700 5709.5 728.0Q5671 756 5671 807Q5671 852 5698.5 873.0Q5726 894 5769 894Q5837 894 5882.0 856.5Q5927 819 5927 741V693ZM6267 592Q6267 608 6265.5 634.0Q6264 660 6263 679H6267Q6273 671 6285.0 656.0Q6297 641 6309.5 625.5Q6322 610 6331 600L6502 419H6605L6388 648L6620 955H6514L6328 705L6267 758V955H6180V195H6267ZM6964 409Q6979 409 6996.5 410.5Q7014 412 7027 415L7016 496Q7003 493 6987.5 491.0Q6972 489 6958 489Q6917 489 6881.0 511.5Q6845 534 6823.5 574.5Q6802 615 6802 669V955H6714V419H6786L6796 517H6800Q6826 473 6867.0 441.0Q6908 409 6964 409ZM7172 218Q7192 218 7207.5 231.5Q7223 245 7223 274Q7223 302 7207.5 316.0Q7192 330 7172 330Q7150 330 7135.0 316.0Q7120 302 7120 274Q7120 245 7135.0 231.5Q7150 218 7172 218ZM7215 419V955H7127V419Z" fill="currentColor" /></svg>