<svg viewBox="0 0 10839 1600" xmlns="http://www.w3.org/2000/svg"><path d="M663 1250H558L176 657H172Q174 680 175.5 711.5Q177 743 178.5 778.5Q180 814 180 851V1250H97V536H201L582 1127H586Q585 1111 583.5 1079.0Q582 1047 580.5 1009.0Q579 971 579 939V536H663ZM1311 981Q1311 1048 1293.5 1099.5Q1276 1151 1243.5 1187.0Q1211 1223 1164.5 1241.5Q1118 1260 1061 1260Q1008 1260 963.0 1241.5Q918 1223 885.0 1187.0Q852 1151 833.5 1099.5Q815 1048 815 981Q815 892 845.0 830.5Q875 769 931.0 736.5Q987 704 1064 704Q1137 704 1192.5 736.5Q1248 769 1279.5 830.5Q1311 892 1311 981ZM906 981Q906 1044 922.5 1090.5Q939 1137 974.0 1162.0Q1009 1187 1063 1187Q1117 1187 1152.0 1162.0Q1187 1137 1203.5 1090.5Q1220 1044 1220 981Q1220 917 1203.0 872.0Q1186 827 1151.5 802.5Q1117 778 1062 778Q980 778 943.0 832.0Q906 886 906 981ZM1629 1188Q1649 1188 1670.0 1184.5Q1691 1181 1704 1177V1244Q1690 1251 1664.0 1255.5Q1638 1260 1614 1260Q1572 1260 1536.5 1245.5Q1501 1231 1479.0 1195.0Q1457 1159 1457 1094V782H1381V740L1458 705L1493 591H1545V714H1700V782H1545V1092Q1545 1141 1568.5 1164.5Q1592 1188 1629 1188ZM2277 981Q2277 1048 2259.5 1099.5Q2242 1151 2209.5 1187.0Q2177 1223 2130.5 1241.5Q2084 1260 2027 1260Q1974 1260 1929.0 1241.5Q1884 1223 1851.0 1187.0Q1818 1151 1799.5 1099.5Q1781 1048 1781 981Q1781 892 1811.0 830.5Q1841 769 1897.0 736.5Q1953 704 2030 704Q2103 704 2158.5 736.5Q2214 769 2245.5 830.5Q2277 892 2277 981ZM1872 981Q1872 1044 1888.5 1090.5Q1905 1137 1940.0 1162.0Q1975 1187 2029 1187Q2083 1187 2118.0 1162.0Q2153 1137 2169.5 1090.5Q2186 1044 2186 981Q2186 917 2169.0 872.0Q2152 827 2117.5 802.5Q2083 778 2028 778Q1946 778 1909.0 832.0Q1872 886 1872 981ZM3093 1059Q3093 1123 3062.0 1167.5Q3031 1212 2973.5 1236.0Q2916 1260 2838 1260Q2798 1260 2761.5 1256.0Q2725 1252 2695.0 1244.5Q2665 1237 2642 1226V1140Q2678 1156 2731.5 1169.0Q2785 1182 2842 1182Q2895 1182 2931.0 1168.0Q2967 1154 2985.0 1128.0Q3003 1102 3003 1067Q3003 1032 2988.0 1008.0Q2973 984 2936.5 963.5Q2900 943 2835 920Q2774 898 2733.0 870.0Q2692 842 2671.5 802.5Q2651 763 2651 708Q2651 651 2680.0 610.5Q2709 570 2760.5 548.0Q2812 526 2879 526Q2938 526 2987.0 537.0Q3036 548 3076 566L3048 643Q3011 627 2967.5 616.0Q2924 605 2877 605Q2832 605 2802.0 618.0Q2772 631 2757.0 654.5Q2742 678 2742 709Q2742 745 2757.0 769.0Q2772 793 2806.0 812.0Q2840 831 2898 853Q2961 876 3004.5 902.5Q3048 929 3070.5 966.0Q3093 1003 3093 1059ZM3428 705Q3526 705 3573.0 748.0Q3620 791 3620 885V1250H3556L3539 1174H3535Q3512 1203 3487.5 1222.5Q3463 1242 3431.5 1251.0Q3400 1260 3355 1260Q3307 1260 3268.5 1243.0Q3230 1226 3208.0 1190.5Q3186 1155 3186 1101Q3186 1021 3249.0 977.5Q3312 934 3443 930L3534 927V895Q3534 828 3505.0 802.0Q3476 776 3423 776Q3381 776 3343.0 788.5Q3305 801 3272 817L3245 751Q3280 732 3328.0 718.5Q3376 705 3428 705ZM3454 991Q3354 995 3315.5 1023.0Q3277 1051 3277 1102Q3277 1147 3304.5 1168.0Q3332 1189 3375 1189Q3443 1189 3488.0 1151.5Q3533 1114 3533 1036V988ZM4044 704Q4140 704 4189.0 750.5Q4238 797 4238 901V1250H4151V907Q4151 842 4122.0 810.0Q4093 778 4031 778Q3942 778 3908.0 828.0Q3874 878 3874 972V1250H3786V714H3857L3870 787H3875Q3893 759 3919.5 740.5Q3946 722 3978.0 713.0Q4010 704 4044 704ZM4753 1102Q4753 1154 4727.0 1189.0Q4701 1224 4653.0 1242.0Q4605 1260 4539 1260Q4483 1260 4442.5 1251.0Q4402 1242 4371 1226V1146Q4403 1162 4448.5 1175.5Q4494 1189 4541 1189Q4608 1189 4638.0 1167.5Q4668 1146 4668 1110Q4668 1090 4657.0 1074.0Q4646 1058 4617.5 1042.0Q4589 1026 4536 1006Q4484 986 4447.0 966.0Q4410 946 4390.0 918.0Q4370 890 4370 846Q4370 778 4425.5 741.0Q4481 704 4571 704Q4620 704 4662.5 713.5Q4705 723 4742 740L4712 810Q4678 796 4641.0 786.0Q4604 776 4565 776Q4511 776 4482.5 793.5Q4454 811 4454 841Q4454 863 4467.0 878.5Q4480 894 4510.5 908.5Q4541 923 4592 943Q4643 962 4679.0 982.0Q4715 1002 4734.0 1030.5Q4753 1059 4753 1102ZM5381 1250H5291V615H5068V536H5603V615H5381ZM5787 713Q5787 732 5785.5 752.0Q5784 772 5782 788H5788Q5805 760 5831.0 742.0Q5857 724 5889.0 714.5Q5921 705 5955 705Q6020 705 6063.5 725.5Q6107 746 6129.0 789.0Q6151 832 6151 901V1250H6064V907Q6064 842 6035.0 810.0Q6006 778 5944 778Q5884 778 5850.0 800.5Q5816 823 5801.5 866.5Q5787 910 5787 973V1250H5699V490H5787ZM6520 705Q6618 705 6665.0 748.0Q6712 791 6712 885V1250H6648L6631 1174H6627Q6604 1203 6579.5 1222.5Q6555 1242 6523.5 1251.0Q6492 1260 6447 1260Q6399 1260 6360.5 1243.0Q6322 1226 6300.0 1190.5Q6278 1155 6278 1101Q6278 1021 6341.0 977.5Q6404 934 6535 930L6626 927V895Q6626 828 6597.0 802.0Q6568 776 6515 776Q6473 776 6435.0 788.5Q6397 801 6364 817L6337 751Q6372 732 6420.0 718.5Q6468 705 6520 705ZM6546 991Q6446 995 6407.5 1023.0Q6369 1051 6369 1102Q6369 1147 6396.5 1168.0Q6424 1189 6467 1189Q6535 1189 6580.0 1151.5Q6625 1114 6625 1036V988ZM6966 714V1250H6878V714ZM6923 513Q6943 513 6958.5 526.5Q6974 540 6974 569Q6974 597 6958.5 611.0Q6943 625 6923 625Q6901 625 6886.0 611.0Q6871 597 6871 569Q6871 540 6886.0 526.5Q6901 513 6923 513ZM7408 1250V536H7498V1170H7810V1250ZM8386 981Q8386 1048 8368.5 1099.5Q8351 1151 8318.5 1187.0Q8286 1223 8239.5 1241.5Q8193 1260 8136 1260Q8083 1260 8038.0 1241.5Q7993 1223 7960.0 1187.0Q7927 1151 7908.5 1099.5Q7890 1048 7890 981Q7890 892 7920.0 830.5Q7950 769 8006.0 736.5Q8062 704 8139 704Q8212 704 8267.5 736.5Q8323 769 8354.5 830.5Q8386 892 8386 981ZM7981 981Q7981 1044 7997.5 1090.5Q8014 1137 8049.0 1162.0Q8084 1187 8138 1187Q8192 1187 8227.0 1162.0Q8262 1137 8278.5 1090.5Q8295 1044 8295 981Q8295 917 8278.0 872.0Q8261 827 8226.5 802.5Q8192 778 8137 778Q8055 778 8018.0 832.0Q7981 886 7981 981ZM8991 981Q8991 1048 8973.5 1099.5Q8956 1151 8923.5 1187.0Q8891 1223 8844.5 1241.5Q8798 1260 8741 1260Q8688 1260 8643.0 1241.5Q8598 1223 8565.0 1187.0Q8532 1151 8513.5 1099.5Q8495 1048 8495 981Q8495 892 8525.0 830.5Q8555 769 8611.0 736.5Q8667 704 8744 704Q8817 704 8872.5 736.5Q8928 769 8959.5 830.5Q8991 892 8991 981ZM8586 981Q8586 1044 8602.5 1090.5Q8619 1137 8654.0 1162.0Q8689 1187 8743 1187Q8797 1187 8832.0 1162.0Q8867 1137 8883.5 1090.5Q8900 1044 8900 981Q8900 917 8883.0 872.0Q8866 827 8831.5 802.5Q8797 778 8742 778Q8660 778 8623.0 832.0Q8586 886 8586 981ZM9385 704Q9484 704 9544.5 773.0Q9605 842 9605 981Q9605 1072 9577.5 1134.5Q9550 1197 9500.5 1228.5Q9451 1260 9384 1260Q9343 1260 9311.0 1249.0Q9279 1238 9256.5 1220.5Q9234 1203 9218 1182H9212Q9214 1199 9216.0 1225.0Q9218 1251 9218 1270V1490H9130V714H9202L9214 787H9218Q9234 764 9256.5 745.0Q9279 726 9310.5 715.0Q9342 704 9385 704ZM9369 778Q9315 778 9282.0 798.5Q9249 819 9234.0 860.0Q9219 901 9218 964V981Q9218 1047 9232.0 1093.0Q9246 1139 9279.5 1163.0Q9313 1187 9371 1187Q9420 1187 9451.5 1160.0Q9483 1133 9498.5 1086.5Q9514 1040 9514 980Q9514 888 9478.5 833.0Q9443 778 9369 778ZM9952 704Q10021 704 10070.5 734.0Q10120 764 10146.5 818.5Q10173 873 10173 946V999H9806Q9808 1090 9852.5 1137.5Q9897 1185 9977 1185Q10028 1185 10067.5 1175.5Q10107 1166 10149 1148V1225Q10108 1243 10068.0 1251.5Q10028 1260 9973 1260Q9897 1260 9838.5 1229.0Q9780 1198 9747.5 1136.5Q9715 1075 9715 986Q9715 898 9744.5 835.0Q9774 772 9827.5 738.0Q9881 704 9952 704ZM9951 776Q9888 776 9851.5 816.5Q9815 857 9808 929H10081Q10081 883 10067.0 849.0Q10053 815 10024.5 795.5Q9996 776 9951 776ZM10499 1260Q10399 1260 10339.0 1190.5Q10279 1121 10279 983Q10279 845 10339.5 774.5Q10400 704 10500 704Q10542 704 10573.0 714.5Q10604 725 10627.0 743.0Q10650 761 10666 783H10672Q10671 770 10668.5 744.5Q10666 719 10666 704V490H10754V1250H10683L10670 1178H10666Q10650 1201 10627.0 1219.5Q10604 1238 10572.5 1249.0Q10541 1260 10499 1260ZM10513 1187Q10598 1187 10632.5 1140.5Q10667 1094 10667 1000V984Q10667 884 10634.0 830.5Q10601 777 10512 777Q10441 777 10405.5 833.5Q10370 890 10370 985Q10370 1081 10405.5 1134.0Q10441 1187 10513 1187Z" fill="currentColor" /></svg>