<svg viewBox="0 0 10466 1362" xmlns="http://www.w3.org/2000/svg"><path d="M663 1069H558L176 476H172Q174 511 177.0 563.0Q180 615 180 670V1069H97V355H201L582 946H586Q585 930 583.5 898.0Q582 866 580.5 828.0Q579 790 579 758V355H663ZM1311 800Q1311 933 1243.5 1006.0Q1176 1079 1061 1079Q990 1079 934.5 1046.5Q879 1014 847.0 951.5Q815 889 815 800Q815 667 882.0 595.0Q949 523 1064 523Q1137 523 1192.5 555.5Q1248 588 1279.5 649.5Q1311 711 1311 800ZM906 800Q906 895 943.5 950.5Q981 1006 1063 1006Q1144 1006 1182.0 950.5Q1220 895 1220 800Q1220 705 1182.0 651.0Q1144 597 1062 597Q980 597 943.0 651.0Q906 705 906 800ZM1629 1007Q1649 1007 1670.0 1003.5Q1691 1000 1704 996V1063Q1690 1070 1664.0 1074.5Q1638 1079 1614 1079Q1572 1079 1536.5 1064.5Q1501 1050 1479.0 1014.0Q1457 978 1457 913V601H1381V559L1458 524L1493 410H1545V533H1700V601H1545V911Q1545 960 1568.5 983.5Q1592 1007 1629 1007ZM2277 800Q2277 933 2209.5 1006.0Q2142 1079 2027 1079Q1956 1079 1900.5 1046.5Q1845 1014 1813.0 951.5Q1781 889 1781 800Q1781 667 1848.0 595.0Q1915 523 2030 523Q2103 523 2158.5 555.5Q2214 588 2245.5 649.5Q2277 711 2277 800ZM1872 800Q1872 895 1909.5 950.5Q1947 1006 2029 1006Q2110 1006 2148.0 950.5Q2186 895 2186 800Q2186 705 2148.0 651.0Q2110 597 2028 597Q1946 597 1909.0 651.0Q1872 705 1872 800ZM3093 878Q3093 973 3024.0 1026.0Q2955 1079 2838 1079Q2778 1079 2727.0 1070.0Q2676 1061 2642 1045V959Q2678 975 2731.5 988.0Q2785 1001 2842 1001Q2922 1001 2962.5 970.0Q3003 939 3003 886Q3003 851 2988.0 827.0Q2973 803 2936.5 782.5Q2900 762 2835 739Q2744 706 2697.5 658.0Q2651 610 2651 527Q2651 470 2680.0 429.5Q2709 389 2760.5 367.0Q2812 345 2879 345Q2938 345 2987.0 356.0Q3036 367 3076 385L3048 462Q3011 446 2967.5 435.0Q2924 424 2877 424Q2810 424 2776.0 452.5Q2742 481 2742 528Q2742 564 2757.0 588.0Q2772 612 2806.0 631.0Q2840 650 2898 672Q2961 695 3004.5 721.5Q3048 748 3070.5 785.0Q3093 822 3093 878ZM3428 524Q3526 524 3573.0 567.0Q3620 610 3620 704V1069H3556L3539 993H3535Q3500 1037 3461.5 1058.0Q3423 1079 3355 1079Q3282 1079 3234.0 1040.5Q3186 1002 3186 920Q3186 840 3249.0 796.5Q3312 753 3443 749L3534 746V714Q3534 647 3505.0 621.0Q3476 595 3423 595Q3381 595 3343.0 607.5Q3305 620 3272 636L3245 570Q3280 551 3328.0 537.5Q3376 524 3428 524ZM3454 810Q3354 814 3315.5 842.0Q3277 870 3277 921Q3277 966 3304.5 987.0Q3332 1008 3375 1008Q3443 1008 3488.0 970.5Q3533 933 3533 855V807ZM4044 523Q4140 523 4189.0 569.5Q4238 616 4238 720V1069H4151V726Q4151 597 4031 597Q3942 597 3908.0 647.0Q3874 697 3874 791V1069H3786V533H3857L3870 606H3875Q3901 564 3947.0 543.5Q3993 523 4044 523ZM4753 921Q4753 999 4695.0 1039.0Q4637 1079 4539 1079Q4483 1079 4442.5 1070.0Q4402 1061 4371 1045V965Q4403 981 4448.5 994.5Q4494 1008 4541 1008Q4608 1008 4638.0 986.5Q4668 965 4668 929Q4668 909 4657.0 893.0Q4646 877 4617.5 861.0Q4589 845 4536 825Q4484 805 4447.0 785.0Q4410 765 4390.0 737.0Q4370 709 4370 665Q4370 597 4425.5 560.0Q4481 523 4571 523Q4620 523 4662.5 532.5Q4705 542 4742 559L4712 629Q4678 615 4641.0 605.0Q4604 595 4565 595Q4511 595 4482.5 612.5Q4454 630 4454 660Q4454 682 4467.0 697.5Q4480 713 4510.5 727.5Q4541 742 4592 762Q4643 781 4679.0 801.0Q4715 821 4734.0 849.5Q4753 878 4753 921ZM5560 878Q5560 973 5491.0 1026.0Q5422 1079 5305 1079Q5245 1079 5194.0 1070.0Q5143 1061 5109 1045V959Q5145 975 5198.5 988.0Q5252 1001 5309 1001Q5389 1001 5429.5 970.0Q5470 939 5470 886Q5470 851 5455.0 827.0Q5440 803 5403.5 782.5Q5367 762 5302 739Q5211 706 5164.5 658.0Q5118 610 5118 527Q5118 470 5147.0 429.5Q5176 389 5227.5 367.0Q5279 345 5346 345Q5405 345 5454.0 356.0Q5503 367 5543 385L5515 462Q5478 446 5434.5 435.0Q5391 424 5344 424Q5277 424 5243.0 452.5Q5209 481 5209 528Q5209 564 5224.0 588.0Q5239 612 5273.0 631.0Q5307 650 5365 672Q5428 695 5471.5 721.5Q5515 748 5537.5 785.0Q5560 822 5560 878ZM5608 533H5702L5818 838Q5833 878 5845.0 914.5Q5857 951 5863 984H5867Q5873 959 5886.0 918.5Q5899 878 5913 837L6022 533H6117L5886 1143Q5858 1219 5813.5 1264.0Q5769 1309 5691 1309Q5667 1309 5649.0 1306.5Q5631 1304 5618 1301V1231Q5629 1233 5644.5 1235.0Q5660 1237 5677 1237Q5723 1237 5751.5 1211.0Q5780 1185 5796 1142L5824 1071ZM6290 1069H6202V309H6290ZM6926 800Q6926 933 6858.5 1006.0Q6791 1079 6676 1079Q6605 1079 6549.5 1046.5Q6494 1014 6462.0 951.5Q6430 889 6430 800Q6430 667 6497.0 595.0Q6564 523 6679 523Q6752 523 6807.5 555.5Q6863 588 6894.5 649.5Q6926 711 6926 800ZM6521 800Q6521 895 6558.5 950.5Q6596 1006 6678 1006Q6759 1006 6797.0 950.5Q6835 895 6835 800Q6835 705 6797.0 651.0Q6759 597 6677 597Q6595 597 6558.0 651.0Q6521 705 6521 800ZM7244 1007Q7264 1007 7285.0 1003.5Q7306 1000 7319 996V1063Q7305 1070 7279.0 1074.5Q7253 1079 7229 1079Q7187 1079 7151.5 1064.5Q7116 1050 7094.0 1014.0Q7072 978 7072 913V601H6996V559L7073 524L7108 410H7160V533H7315V601H7160V911Q7160 960 7183.5 983.5Q7207 1007 7244 1007ZM7471 332Q7491 332 7506.5 345.5Q7522 359 7522 388Q7522 416 7506.5 430.0Q7491 444 7471 444Q7449 444 7434.0 430.0Q7419 416 7419 388Q7419 359 7434.0 345.5Q7449 332 7471 332ZM7514 533V1069H7426V533ZM8522 1069H8417L8035 476H8031Q8033 511 8036.0 563.0Q8039 615 8039 670V1069H7956V355H8060L8441 946H8445Q8444 930 8442.5 898.0Q8441 866 8439.5 828.0Q8438 790 8438 758V355H8522ZM8907 524Q9005 524 9052.0 567.0Q9099 610 9099 704V1069H9035L9018 993H9014Q8979 1037 8940.5 1058.0Q8902 1079 8834 1079Q8761 1079 8713.0 1040.5Q8665 1002 8665 920Q8665 840 8728.0 796.5Q8791 753 8922 749L9013 746V714Q9013 647 8984.0 621.0Q8955 595 8902 595Q8860 595 8822.0 607.5Q8784 620 8751 636L8724 570Q8759 551 8807.0 537.5Q8855 524 8907 524ZM8933 810Q8833 814 8794.5 842.0Q8756 870 8756 921Q8756 966 8783.5 987.0Q8811 1008 8854 1008Q8922 1008 8967.0 970.5Q9012 933 9012 855V807ZM9455 523Q9508 523 9550.5 543.0Q9593 563 9623 604H9628L9640 533H9710V1078Q9710 1193 9651.5 1251.0Q9593 1309 9470 1309Q9352 1309 9277 1275V1194Q9356 1236 9475 1236Q9544 1236 9583.5 1195.5Q9623 1155 9623 1085V1064Q9623 1052 9624.0 1029.5Q9625 1007 9626 998H9622Q9568 1079 9456 1079Q9352 1079 9293.5 1006.0Q9235 933 9235 802Q9235 674 9293.5 598.5Q9352 523 9455 523ZM9467 597Q9400 597 9363.0 650.5Q9326 704 9326 803Q9326 902 9362.5 954.5Q9399 1007 9469 1007Q9550 1007 9587.0 963.5Q9624 920 9624 823V802Q9624 692 9586.0 644.5Q9548 597 9467 597ZM10130 523Q10145 523 10162.5 524.5Q10180 526 10193 529L10182 610Q10169 607 10153.5 605.0Q10138 603 10124 603Q10083 603 10047.0 625.5Q10011 648 9989.5 688.5Q9968 729 9968 783V1069H9880V533H9952L9962 631H9966Q9992 587 10033.0 555.0Q10074 523 10130 523ZM10338 332Q10358 332 10373.5 345.5Q10389 359 10389 388Q10389 416 10373.5 430.0Q10358 444 10338 444Q10316 444 10301.0 430.0Q10286 416 10286 388Q10286 359 10301.0 345.5Q10316 332 10338 332ZM10381 533V1069H10293V533Z" fill="currentColor" /></svg>