<svg viewBox="0 0 7004 780" xmlns="http://www.w3.org/2000/svg"><path d="M0 770V728H13Q47 728 71.0 715.5Q95 703 95 656V166Q95 122 70.5 110.0Q46 98 13 98H0V56H183L541 609V166Q541 122 516.5 110.0Q492 98 459 98H446V56H697V98H684Q650 98 626.0 110.5Q602 123 602 170V770H531L156 194V656Q156 703 180.0 715.5Q204 728 238 728H251V770ZM1012 780Q904 780 842.0 711.0Q780 642 780 501Q780 361 839.5 292.5Q899 224 1015 224Q1123 224 1185.0 292.5Q1247 361 1247 501Q1247 642 1187.5 711.0Q1128 780 1012 780ZM1014 728Q1089 728 1119.5 670.5Q1150 613 1150 501Q1150 389 1119.0 333.0Q1088 277 1013 277Q938 277 907.5 333.0Q877 389 877 501Q877 613 908.0 670.5Q939 728 1014 728ZM1542 780Q1466 780 1431.5 745.5Q1397 711 1397 625V291H1321V251Q1339 251 1361.0 243.5Q1383 236 1399 219Q1416 201 1427.0 175.0Q1438 149 1445 111H1491V234H1622V291H1491V628Q1491 679 1512.0 703.0Q1533 727 1567 727Q1585 727 1600.0 725.0Q1615 723 1631 720V764Q1618 770 1592.0 775.0Q1566 780 1542 780ZM1941 780Q1833 780 1771.0 711.0Q1709 642 1709 501Q1709 361 1768.5 292.5Q1828 224 1944 224Q2052 224 2114.0 292.5Q2176 361 2176 501Q2176 642 2116.5 711.0Q2057 780 1941 780ZM1943 728Q2018 728 2048.5 670.5Q2079 613 2079 501Q2079 389 2048.0 333.0Q2017 277 1942 277Q1867 277 1836.5 333.0Q1806 389 1806 501Q1806 613 1837.0 670.5Q1868 728 1943 728ZM2738 780Q2673 780 2628.5 762.5Q2584 745 2561.5 713.0Q2539 681 2539 639Q2539 619 2547.5 604.0Q2556 589 2572.0 580.5Q2588 572 2611 572Q2613 613 2627.0 649.5Q2641 686 2670.0 708.5Q2699 731 2746 731Q2813 731 2851.0 698.5Q2889 666 2889 605Q2889 568 2874.5 542.5Q2860 517 2826.5 495.0Q2793 473 2734 449Q2672 423 2631.0 393.0Q2590 363 2570.0 322.5Q2550 282 2550 227Q2550 170 2578.5 129.5Q2607 89 2656.5 67.5Q2706 46 2769 46Q2858 46 2907.0 80.0Q2956 114 2956 158Q2956 190 2934.5 206.5Q2913 223 2877 223Q2877 192 2866.5 163.0Q2856 134 2831.5 115.0Q2807 96 2765 96Q2707 96 2675.0 127.0Q2643 158 2643 210Q2643 250 2657.5 277.5Q2672 305 2706.0 326.5Q2740 348 2798 372Q2886 408 2935.0 455.0Q2984 502 2984 579Q2984 643 2954.0 687.5Q2924 732 2868.5 756.0Q2813 780 2738 780ZM3322 780Q3213 780 3151.5 708.0Q3090 636 3090 506Q3090 366 3148.0 295.0Q3206 224 3312 224Q3409 224 3464.5 284.0Q3520 344 3520 463V509H3187Q3189 618 3226.5 667.5Q3264 717 3336 717Q3388 717 3424.5 695.5Q3461 674 3479 647Q3486 650 3492.0 659.0Q3498 668 3498 681Q3498 701 3479.0 724.0Q3460 747 3421.0 763.5Q3382 780 3322 780ZM3419 455Q3419 375 3394.5 326.5Q3370 278 3310 278Q3255 278 3224.5 323.5Q3194 369 3189 455ZM3603 770V728H3606Q3640 728 3664.0 715.5Q3688 703 3688 656V344Q3688 300 3663.5 288.0Q3639 276 3606 276H3603V234H3757L3776 333H3781Q3794 303 3809.0 278.0Q3824 253 3849.0 238.5Q3874 224 3918 224Q3973 224 3999.5 243.0Q4026 262 4026 297Q4026 328 4004.5 348.0Q3983 368 3933 368Q3933 327 3921.0 308.5Q3909 290 3880 290Q3852 290 3833.0 312.0Q3814 334 3803.0 368.0Q3792 402 3787.0 438.5Q3782 475 3782 504V661Q3782 705 3806.5 716.5Q3831 728 3864 728H3892V770ZM4064 770V728H4077Q4099 728 4117.5 723.5Q4136 719 4147.5 704.5Q4159 690 4159 661V344Q4159 314 4147.5 299.5Q4136 285 4117.5 280.5Q4099 276 4077 276H4074V234H4253V656Q4253 687 4264.0 702.5Q4275 718 4294.0 723.0Q4313 728 4335 728H4348V770ZM4202 134Q4178 134 4161.5 120.0Q4145 106 4145 72Q4145 37 4161.5 23.5Q4178 10 4202 10Q4225 10 4242.0 23.5Q4259 37 4259 72Q4259 106 4242.0 120.0Q4225 134 4202 134ZM4388 770V728H4401Q4424 728 4442.5 723.0Q4461 718 4472.0 702.5Q4483 687 4483 656V281H4392V234H4483V184Q4483 95 4530.5 47.5Q4578 0 4660 0Q4712 0 4742.5 9.0Q4773 18 4786.5 33.5Q4800 49 4800 70Q4800 97 4777.0 111.5Q4754 126 4718 126Q4718 106 4712.0 87.5Q4706 69 4692.0 57.5Q4678 46 4652 46Q4609 46 4593.0 79.0Q4577 112 4577 175V234H4718V281H4577V656Q4577 687 4588.0 702.5Q4599 718 4618.0 723.0Q4637 728 4659 728H4697V770ZM5140 770V728H5163Q5196 728 5220.5 716.5Q5245 705 5245 661V106H5149Q5105 106 5088.0 130.5Q5071 155 5067 188L5062 231H5010L5015 56H5578L5583 231H5531L5526 188Q5522 155 5505.0 130.5Q5488 106 5443 106H5346V656Q5346 703 5370.0 715.5Q5394 728 5428 728H5451V770ZM5840 780Q5732 780 5670.0 711.0Q5608 642 5608 501Q5608 361 5667.5 292.5Q5727 224 5843 224Q5951 224 6013.0 292.5Q6075 361 6075 501Q6075 642 6015.5 711.0Q5956 780 5840 780ZM5842 728Q5917 728 5947.5 670.5Q5978 613 5978 501Q5978 389 5947.0 333.0Q5916 277 5841 277Q5766 277 5735.5 333.0Q5705 389 5705 501Q5705 613 5736.0 670.5Q5767 728 5842 728ZM6370 780Q6294 780 6259.5 745.5Q6225 711 6225 625V291H6149V251Q6167 251 6189.0 243.5Q6211 236 6227 219Q6244 201 6255.0 175.0Q6266 149 6273 111H6319V234H6450V291H6319V628Q6319 679 6340.0 703.0Q6361 727 6395 727Q6413 727 6428.0 725.0Q6443 723 6459 720V764Q6446 770 6420.0 775.0Q6394 780 6370 780ZM6769 780Q6661 780 6599.0 711.0Q6537 642 6537 501Q6537 361 6596.5 292.5Q6656 224 6772 224Q6880 224 6942.0 292.5Q7004 361 7004 501Q7004 642 6944.5 711.0Q6885 780 6769 780ZM6771 728Q6846 728 6876.5 670.5Q6907 613 6907 501Q6907 389 6876.0 333.0Q6845 277 6770 277Q6695 277 6664.5 333.0Q6634 389 6634 501Q6634 613 6665.0 670.5Q6696 728 6771 728Z" /></svg>