<svg viewBox="0 0 10597 775" xmlns="http://www.w3.org/2000/svg"><path d="M566 765H461L79 172H75Q77 207 80.0 259.0Q83 311 83 366V765H0V51H104L485 642H489Q488 626 486.5 594.0Q485 562 483.5 524.0Q482 486 482 454V51H566ZM1214 496Q1214 629 1146.5 702.0Q1079 775 964 775Q893 775 837.5 742.5Q782 710 750.0 647.5Q718 585 718 496Q718 363 785.0 291.0Q852 219 967 219Q1040 219 1095.5 251.5Q1151 284 1182.5 345.5Q1214 407 1214 496ZM809 496Q809 591 846.5 646.5Q884 702 966 702Q1047 702 1085.0 646.5Q1123 591 1123 496Q1123 401 1085.0 347.0Q1047 293 965 293Q883 293 846.0 347.0Q809 401 809 496ZM1532 703Q1552 703 1573.0 699.5Q1594 696 1607 692V759Q1593 766 1567.0 770.5Q1541 775 1517 775Q1475 775 1439.5 760.5Q1404 746 1382.0 710.0Q1360 674 1360 609V297H1284V255L1361 220L1396 106H1448V229H1603V297H1448V607Q1448 656 1471.5 679.5Q1495 703 1532 703ZM2180 496Q2180 629 2112.5 702.0Q2045 775 1930 775Q1859 775 1803.5 742.5Q1748 710 1716.0 647.5Q1684 585 1684 496Q1684 363 1751.0 291.0Q1818 219 1933 219Q2006 219 2061.5 251.5Q2117 284 2148.5 345.5Q2180 407 2180 496ZM1775 496Q1775 591 1812.5 646.5Q1850 702 1932 702Q2013 702 2051.0 646.5Q2089 591 2089 496Q2089 401 2051.0 347.0Q2013 293 1931 293Q1849 293 1812.0 347.0Q1775 401 1775 496ZM2996 574Q2996 669 2927.0 722.0Q2858 775 2741 775Q2681 775 2630.0 766.0Q2579 757 2545 741V655Q2581 671 2634.5 684.0Q2688 697 2745 697Q2825 697 2865.5 666.0Q2906 635 2906 582Q2906 547 2891.0 523.0Q2876 499 2839.5 478.5Q2803 458 2738 435Q2692 418 2657.5 398.5Q2623 379 2600.0 354.0Q2577 329 2565.5 297.0Q2554 265 2554 223Q2554 166 2583.0 125.5Q2612 85 2663.5 63.0Q2715 41 2782 41Q2841 41 2890.0 52.0Q2939 63 2979 81L2951 158Q2914 142 2870.5 131.0Q2827 120 2780 120Q2713 120 2679.0 148.5Q2645 177 2645 224Q2645 260 2660.0 284.0Q2675 308 2709.0 327.0Q2743 346 2801 368Q2864 391 2907.5 417.5Q2951 444 2973.5 481.0Q2996 518 2996 574ZM3331 220Q3429 220 3476.0 263.0Q3523 306 3523 400V765H3459L3442 689H3438Q3403 733 3364.5 754.0Q3326 775 3258 775Q3185 775 3137.0 736.5Q3089 698 3089 616Q3089 536 3152.0 492.5Q3215 449 3346 445L3437 442V410Q3437 343 3408.0 317.0Q3379 291 3326 291Q3284 291 3246.0 303.5Q3208 316 3175 332L3148 266Q3183 247 3231.0 233.5Q3279 220 3331 220ZM3357 506Q3257 510 3218.5 538.0Q3180 566 3180 617Q3180 662 3207.5 683.0Q3235 704 3278 704Q3346 704 3391.0 666.5Q3436 629 3436 551V503ZM3947 219Q4043 219 4092.0 265.5Q4141 312 4141 416V765H4054V422Q4054 357 4025.0 325.0Q3996 293 3934 293Q3845 293 3811.0 343.0Q3777 393 3777 487V765H3689V229H3760L3773 302H3778Q3804 260 3850.0 239.5Q3896 219 3947 219ZM4656 617Q4656 695 4598.0 735.0Q4540 775 4442 775Q4386 775 4345.5 766.0Q4305 757 4274 741V661Q4306 677 4351.5 690.5Q4397 704 4444 704Q4511 704 4541.0 682.5Q4571 661 4571 625Q4571 605 4560.0 589.0Q4549 573 4520.5 557.0Q4492 541 4439 521Q4387 501 4350.0 481.0Q4313 461 4293.0 433.0Q4273 405 4273 361Q4273 293 4328.5 256.0Q4384 219 4474 219Q4523 219 4565.5 228.5Q4608 238 4645 255L4615 325Q4581 311 4544.0 301.0Q4507 291 4468 291Q4414 291 4385.5 308.5Q4357 326 4357 356Q4357 378 4370.0 393.5Q4383 409 4413.5 423.5Q4444 438 4495 458Q4546 477 4582.0 497.0Q4618 517 4637.0 545.5Q4656 574 4656 617ZM5373 765 5138 139H5134Q5136 159 5137.5 190.0Q5139 221 5140.0 257.5Q5141 294 5141 332V765H5058V51H5191L5411 636H5415L5639 51H5771V765H5682V326Q5682 291 5683.0 256.5Q5684 222 5686.0 191.5Q5688 161 5689 140H5685L5447 765ZM6160 219Q6229 219 6278.5 249.0Q6328 279 6354.5 333.5Q6381 388 6381 461V514H6014Q6016 605 6060.5 652.5Q6105 700 6185 700Q6236 700 6275.5 690.5Q6315 681 6357 663V740Q6316 758 6276.0 766.5Q6236 775 6181 775Q6105 775 6046.5 744.0Q5988 713 5955.5 651.5Q5923 590 5923 501Q5923 413 5952.5 350.0Q5982 287 6035.5 253.0Q6089 219 6160 219ZM6159 291Q6096 291 6059.5 331.5Q6023 372 6016 444H6289Q6288 376 6257.0 333.5Q6226 291 6159 291ZM6707 775Q6607 775 6547.0 705.5Q6487 636 6487 498Q6487 360 6547.5 289.5Q6608 219 6708 219Q6770 219 6809.5 242.0Q6849 265 6874 298H6880Q6879 285 6876.5 259.5Q6874 234 6874 219V5H6962V765H6891L6878 693H6874Q6850 727 6810.0 751.0Q6770 775 6707 775ZM6721 702Q6806 702 6840.5 655.5Q6875 609 6875 515V499Q6875 399 6842.0 345.5Q6809 292 6720 292Q6649 292 6613.5 348.5Q6578 405 6578 500Q6578 596 6613.5 649.0Q6649 702 6721 702ZM7339 219Q7408 219 7457.5 249.0Q7507 279 7533.5 333.5Q7560 388 7560 461V514H7193Q7195 605 7239.5 652.5Q7284 700 7364 700Q7415 700 7454.5 690.5Q7494 681 7536 663V740Q7495 758 7455.0 766.5Q7415 775 7360 775Q7284 775 7225.5 744.0Q7167 713 7134.5 651.5Q7102 590 7102 501Q7102 413 7131.5 350.0Q7161 287 7214.5 253.0Q7268 219 7339 219ZM7338 291Q7275 291 7238.5 331.5Q7202 372 7195 444H7468Q7467 376 7436.0 333.5Q7405 291 7338 291ZM7943 297H7808V765H7720V297H7626V256L7720 226V195Q7720 126 7740.5 83.0Q7761 40 7800.0 20.0Q7839 0 7894 0Q7926 0 7952.5 5.5Q7979 11 7998 18L7975 87Q7959 82 7938.0 77.0Q7917 72 7895 72Q7851 72 7829.5 101.5Q7808 131 7808 194V229H7943ZM8243 220Q8341 220 8388.0 263.0Q8435 306 8435 400V765H8371L8354 689H8350Q8315 733 8276.5 754.0Q8238 775 8170 775Q8097 775 8049.0 736.5Q8001 698 8001 616Q8001 536 8064.0 492.5Q8127 449 8258 445L8349 442V410Q8349 343 8320.0 317.0Q8291 291 8238 291Q8196 291 8158.0 303.5Q8120 316 8087 332L8060 266Q8095 247 8143.0 233.5Q8191 220 8243 220ZM8269 506Q8169 510 8130.5 538.0Q8092 566 8092 617Q8092 662 8119.5 683.0Q8147 704 8190 704Q8258 704 8303.0 666.5Q8348 629 8348 551V503ZM8689 229V765H8601V229ZM8646 28Q8666 28 8681.5 41.5Q8697 55 8697 84Q8697 112 8681.5 126.0Q8666 140 8646 140Q8624 140 8609.0 126.0Q8594 112 8594 84Q8594 55 8609.0 41.5Q8624 28 8646 28ZM9049 775Q8949 775 8889.0 705.5Q8829 636 8829 498Q8829 360 8889.5 289.5Q8950 219 9050 219Q9112 219 9151.5 242.0Q9191 265 9216 298H9222Q9221 285 9218.5 259.5Q9216 234 9216 219V5H9304V765H9233L9220 693H9216Q9192 727 9152.0 751.0Q9112 775 9049 775ZM9063 702Q9148 702 9182.5 655.5Q9217 609 9217 515V499Q9217 399 9184.0 345.5Q9151 292 9062 292Q8991 292 8955.5 348.5Q8920 405 8920 500Q8920 596 8955.5 649.0Q8991 702 9063 702ZM9724 219Q9739 219 9756.5 220.5Q9774 222 9787 225L9776 306Q9763 303 9747.5 301.0Q9732 299 9718 299Q9677 299 9641.0 321.5Q9605 344 9583.5 384.5Q9562 425 9562 479V765H9474V229H9546L9556 327H9560Q9586 283 9627.0 251.0Q9668 219 9724 219ZM9975 229V765H9887V229ZM9932 28Q9952 28 9967.5 41.5Q9983 55 9983 84Q9983 112 9967.5 126.0Q9952 140 9932 140Q9910 140 9895.0 126.0Q9880 112 9880 84Q9880 55 9895.0 41.5Q9910 28 9932 28ZM10403 219Q10499 219 10548.0 265.5Q10597 312 10597 416V765H10510V422Q10510 357 10481.0 325.0Q10452 293 10390 293Q10301 293 10267.0 343.0Q10233 393 10233 487V765H10145V229H10216L10229 302H10234Q10260 260 10306.0 239.5Q10352 219 10403 219Z" /></svg>