<svg viewBox="0 0 8853 1703" xmlns="http://www.w3.org/2000/svg"><path d="M38 1069V1027H51Q85 1027 109.0 1014.5Q133 1002 133 955V465Q133 421 108.5 409.0Q84 397 51 397H38V355H221L579 908V465Q579 421 554.5 409.0Q530 397 497 397H484V355H735V397H722Q688 397 664.0 409.5Q640 422 640 469V1069H569L194 493V955Q194 1002 218.0 1014.5Q242 1027 276 1027H289V1069ZM1050 1079Q942 1079 880.0 1010.0Q818 941 818 800Q818 660 877.5 591.5Q937 523 1053 523Q1161 523 1223.0 591.5Q1285 660 1285 800Q1285 941 1225.5 1010.0Q1166 1079 1050 1079ZM1052 1027Q1127 1027 1157.5 969.5Q1188 912 1188 800Q1188 688 1157.0 632.0Q1126 576 1051 576Q976 576 945.5 632.0Q915 688 915 800Q915 912 946.0 969.5Q977 1027 1052 1027ZM1580 1079Q1504 1079 1469.5 1044.5Q1435 1010 1435 924V590H1359V550Q1377 550 1399.0 542.5Q1421 535 1437 518Q1454 500 1465.0 474.0Q1476 448 1483 410H1529V533H1660V590H1529V927Q1529 978 1550.0 1002.0Q1571 1026 1605 1026Q1623 1026 1638.0 1024.0Q1653 1022 1669 1019V1063Q1656 1069 1630.0 1074.0Q1604 1079 1580 1079ZM1979 1079Q1871 1079 1809.0 1010.0Q1747 941 1747 800Q1747 660 1806.5 591.5Q1866 523 1982 523Q2090 523 2152.0 591.5Q2214 660 2214 800Q2214 941 2154.5 1010.0Q2095 1079 1979 1079ZM1981 1027Q2056 1027 2086.5 969.5Q2117 912 2117 800Q2117 688 2086.0 632.0Q2055 576 1980 576Q1905 576 1874.5 632.0Q1844 688 1844 800Q1844 912 1875.0 969.5Q1906 1027 1981 1027ZM2528 1069V1027H2541Q2575 1027 2599.0 1014.5Q2623 1002 2623 955V465Q2623 421 2598.5 409.0Q2574 397 2541 397H2528V355H2711L3069 908V465Q3069 421 3044.5 409.0Q3020 397 2987 397H2974V355H3225V397H3212Q3178 397 3154.0 409.5Q3130 422 3130 469V1069H3059L2684 493V955Q2684 1002 2708.0 1014.5Q2732 1027 2766 1027H2779V1069ZM3458 1079Q3391 1079 3347.0 1040.0Q3303 1001 3303 919Q3303 839 3359.5 801.0Q3416 763 3531 759L3614 756V696Q3614 660 3608.0 632.5Q3602 605 3582.0 589.0Q3562 573 3521 573Q3483 573 3463.0 587.0Q3443 601 3436.5 625.5Q3430 650 3430 682Q3388 682 3366.5 667.5Q3345 653 3345 619Q3345 584 3369.5 563.0Q3394 542 3435.0 532.5Q3476 523 3525 523Q3617 523 3662.5 562.0Q3708 601 3708 696V955Q3708 997 3722.0 1012.0Q3736 1027 3770 1027H3773V1069H3638L3622 983H3614Q3593 1011 3573.0 1032.5Q3553 1054 3526.5 1066.5Q3500 1079 3458 1079ZM3481 1017Q3542 1017 3578.0 979.5Q3614 942 3614 878V797L3550 800Q3465 804 3432.5 834.5Q3400 865 3400 924Q3400 1017 3481 1017ZM4026 1079Q3951 1079 3906.0 1052.0Q3861 1025 3861 973Q3861 946 3872.0 931.0Q3883 916 3897.5 910.0Q3912 904 3924 904Q3924 956 3947.5 993.5Q3971 1031 4032 1031Q4085 1031 4113.5 1005.5Q4142 980 4142 940Q4142 915 4131.5 899.0Q4121 883 4094.5 867.5Q4068 852 4019 831Q3968 808 3934.5 786.5Q3901 765 3884.5 736.5Q3868 708 3868 665Q3868 597 3919.5 560.5Q3971 524 4056 524Q4128 524 4165.0 551.0Q4202 578 4202 616Q4202 643 4183.5 659.5Q4165 676 4130 676Q4130 626 4109.0 598.0Q4088 570 4044 570Q3993 570 3971.0 592.5Q3949 615 3949 650Q3949 688 3977.5 708.5Q4006 729 4073 756Q4126 778 4159.0 800.0Q4192 822 4207.5 851.0Q4223 880 4223 922Q4223 1000 4169.0 1039.5Q4115 1079 4026 1079ZM4285 1069V1027H4293Q4316 1027 4334.5 1022.0Q4353 1017 4364.0 1001.5Q4375 986 4375 955V419Q4375 389 4363.5 374.5Q4352 360 4333.5 355.5Q4315 351 4293 351H4285V309H4469V695Q4469 708 4468.5 729.0Q4468 750 4467.0 771.0Q4466 792 4465.5 806.5Q4465 821 4465 821L4590 684Q4622 648 4633.5 628.5Q4645 609 4645 595Q4645 582 4633.0 578.5Q4621 575 4596 575V533H4817V575Q4783 575 4749.0 599.5Q4715 624 4676 668L4606 747L4739 945Q4765 985 4790.5 1006.0Q4816 1027 4850 1027H4853V1069H4839Q4796 1069 4767.0 1066.0Q4738 1063 4718.5 1053.5Q4699 1044 4681.5 1024.5Q4664 1005 4643 972L4543 815L4469 870V960Q4469 989 4480.5 1003.5Q4492 1018 4510.5 1022.5Q4529 1027 4551 1027H4554V1069ZM4870 1069V1027H4878Q4912 1027 4936.0 1014.5Q4960 1002 4960 955V419Q4960 389 4948.5 374.5Q4937 360 4918.5 355.5Q4900 351 4878 351H4870V309H5054V529Q5054 547 5053.0 566.5Q5052 586 5051.0 600.0Q5050 614 5050 614H5055Q5078 569 5114.5 546.0Q5151 523 5202 523Q5288 523 5333.5 569.5Q5379 616 5379 719V955Q5379 1002 5400.5 1014.5Q5422 1027 5456 1027H5459V1069H5285V724Q5285 659 5260.5 623.0Q5236 587 5175 587Q5134 587 5107.0 607.0Q5080 627 5067.0 663.5Q5054 700 5054 749V960Q5054 1004 5078.5 1015.5Q5103 1027 5136 1027H5139V1069ZM5708 1069V1027H5727Q5756 1027 5770.5 1012.0Q5785 997 5803 949L6025 355H6103L6329 974Q6340 1005 6355.5 1016.0Q6371 1027 6400 1027H6413V1069H6138V1027H6161Q6191 1027 6206.0 1015.5Q6221 1004 6221 979Q6221 971 6219.0 962.0Q6217 953 6213 942L6173 830H5910L5872 935Q5868 947 5865.5 958.5Q5863 970 5863 978Q5863 1027 5929 1027H5952V1069ZM5929 780H6155L6093 605Q6077 561 6064.0 522.0Q6051 483 6043 447Q6036 483 6025.0 516.0Q6014 549 5997 596ZM6446 1069V1027H6449Q6483 1027 6507.0 1014.5Q6531 1002 6531 955V643Q6531 599 6506.5 587.0Q6482 575 6449 575H6446V533H6600L6619 632H6624Q6637 602 6652.0 577.0Q6667 552 6692.0 537.5Q6717 523 6761 523Q6816 523 6842.5 542.0Q6869 561 6869 596Q6869 627 6847.5 647.0Q6826 667 6776 667Q6776 626 6764.0 607.5Q6752 589 6723 589Q6695 589 6676.0 611.0Q6657 633 6646.0 667.0Q6635 701 6630.0 737.5Q6625 774 6625 803V960Q6625 1004 6649.5 1015.5Q6674 1027 6707 1027H6735V1069ZM7069 1079Q7002 1079 6958.0 1040.0Q6914 1001 6914 919Q6914 839 6970.5 801.0Q7027 763 7142 759L7225 756V696Q7225 660 7219.0 632.5Q7213 605 7193.0 589.0Q7173 573 7132 573Q7094 573 7074.0 587.0Q7054 601 7047.5 625.5Q7041 650 7041 682Q6999 682 6977.5 667.5Q6956 653 6956 619Q6956 584 6980.5 563.0Q7005 542 7046.0 532.5Q7087 523 7136 523Q7228 523 7273.5 562.0Q7319 601 7319 696V955Q7319 997 7333.0 1012.0Q7347 1027 7381 1027H7384V1069H7249L7233 983H7225Q7204 1011 7184.0 1032.5Q7164 1054 7137.5 1066.5Q7111 1079 7069 1079ZM7092 1017Q7153 1017 7189.0 979.5Q7225 942 7225 878V797L7161 800Q7076 804 7043.5 834.5Q7011 865 7011 924Q7011 1017 7092 1017ZM7782 1079Q7724 1079 7687.5 1054.5Q7651 1030 7629 991H7623L7605 1069H7445V1027H7453Q7476 1027 7494.5 1022.0Q7513 1017 7524.0 1001.5Q7535 986 7535 955V419Q7535 375 7510.5 363.0Q7486 351 7453 351H7445V309H7629V493Q7629 510 7628.5 536.5Q7628 563 7627.0 587.5Q7626 612 7625 623H7629Q7652 577 7688.0 550.0Q7724 523 7782 523Q7881 523 7933.5 589.5Q7986 656 7986 800Q7986 945 7933.5 1012.0Q7881 1079 7782 1079ZM7766 1015Q7832 1015 7860.5 959.5Q7889 904 7889 799Q7889 692 7860.5 639.5Q7832 587 7765 587Q7687 587 7658.0 639.5Q7629 692 7629 800Q7629 904 7658.0 959.5Q7687 1015 7766 1015ZM8064 1069V1027H8077Q8110 1027 8134.5 1015.5Q8159 1004 8159 960V643Q8159 599 8134.5 587.0Q8110 575 8077 575H8074V533H8253V955Q8253 1002 8277.0 1014.5Q8301 1027 8335 1027H8348V1069ZM8202 433Q8178 433 8161.5 419.0Q8145 405 8145 371Q8145 336 8161.5 322.5Q8178 309 8202 309Q8225 309 8242.0 322.5Q8259 336 8259 371Q8259 405 8242.0 419.0Q8225 433 8202 433ZM8644 1079Q8578 1079 8526.5 1051.0Q8475 1023 8445.5 962.5Q8416 902 8416 804Q8416 697 8445.5 635.5Q8475 574 8525.5 548.5Q8576 523 8639 523Q8681 523 8721.0 534.0Q8761 545 8787.0 567.5Q8813 590 8813 625Q8813 648 8803.0 662.0Q8793 676 8773.5 682.0Q8754 688 8724 688Q8724 656 8716.5 630.0Q8709 604 8691.0 588.5Q8673 573 8639 573Q8601 573 8572.5 593.0Q8544 613 8528.5 663.0Q8513 713 8513 803Q8513 909 8548.5 961.5Q8584 1014 8664 1014Q8711 1014 8745.5 994.5Q8780 975 8797 944Q8805 950 8809.5 959.5Q8814 969 8814 983Q8814 1006 8795.0 1028.0Q8776 1050 8738.5 1064.5Q8701 1079 8644 1079Z" fill="currentColor" /></svg>