<svg viewBox="0 0 10810 1590" xmlns="http://www.w3.org/2000/svg"><path d="M0 1590V520Q0 304 135 165Q277 20 505 20Q730 20 875 165Q1010 299 1010 520V1500L820 1590H810V520Q810 386 738 303Q649 200 505.0 200.0Q361 200 272 303Q200 386 200 520V1500L10 1590ZM1360 1170V830Q1360 665 1484 543Q1600 430 1775 430Q1948 430 2066 543Q2190 663 2190 830V1170Q2190 1335 2066 1457Q1950 1570 1775 1570Q1602 1570 1484 1457Q1360 1337 1360 1170ZM1560 1170Q1560 1285 1622.5 1338.5Q1685 1392 1775.0 1392.0Q1865 1392 1927.5 1338.5Q1990 1285 1990 1170V830Q1990 715 1927.5 661.5Q1865 608 1775.0 608.0Q1685 608 1622.5 661.5Q1560 715 1560 830ZM2726 1590 2340 492 2513 410H2523L2806 1244L3083 410H3093L3266 492L2909 1508L2736 1590ZM4176 1500 3986 1590H3976V1485Q3896 1570 3761 1570Q3574 1570 3470.0 1457.0Q3366 1344 3366 1190Q3366 1030 3479 918Q3588 810 3761 810Q3884 810 3976 895Q3976 718 3914 662Q3854 608 3761 608H3518V598L3598 430H3761Q3936 430 4052 543Q4176 664 4176 830ZM3562 1190Q3562 1279 3616 1337Q3668 1393 3762 1393Q3860 1393 3914 1336Q3974 1272 3974 1192Q3974 1102 3912.0 1046.0Q3850 990 3763 990Q3672 990 3617.0 1049.0Q3562 1108 3562 1190ZM5326 1590V90L5432 40H5811Q6039 40 6181 185Q6316 323 6316 540Q6316 758 6181 895Q6101 976 5994 1012L6340 1507L6164 1590H6154L5769 1040H5526V1500L5336 1590ZM5526 860H5811Q5942 860 6044 757Q6116 684 6116 540Q6116 406 6044 323Q5955 220 5811 220H5526ZM6590 1170V830Q6590 665 6714 543Q6830 430 7005 430Q7178 430 7296 543Q7420 663 7420 830V1170Q7420 1335 7296 1457Q7180 1570 7005 1570Q6832 1570 6714 1457Q6590 1337 6590 1170ZM6790 1170Q6790 1285 6852.5 1338.5Q6915 1392 7005.0 1392.0Q7095 1392 7157.5 1338.5Q7220 1285 7220 1170V830Q7220 715 7157.5 661.5Q7095 608 7005.0 608.0Q6915 608 6852.5 661.5Q6790 715 6790 830ZM8550 410V1170Q8550 1335 8426 1457Q8310 1570 8135 1570Q7962 1570 7844 1457Q7720 1337 7720 1170V500L7910 410H7920V1170Q7920 1285 7982.5 1338.5Q8045 1392 8135.0 1392.0Q8225 1392 8287.5 1338.5Q8350 1285 8350 1170V500L8540 410ZM8850 1590V830Q8850 665 8974 543Q9090 430 9265 430Q9438 430 9556 543Q9680 663 9680 830V1500L9490 1590H9480V830Q9480 715 9417.5 661.5Q9355 608 9265.0 608.0Q9175 608 9112.5 661.5Q9050 715 9050 830V1500L8860 1590ZM10180 1170Q10180 1285 10242.5 1338.5Q10305 1392 10395.0 1392.0Q10485 1392 10547.5 1338.5Q10610 1285 10610 1170V830Q10610 715 10547.5 661.5Q10485 608 10395.0 608.0Q10305 608 10242.5 661.5Q10180 715 10180 830ZM9980 1170V830Q9980 665 10104 543Q10220 430 10395 430Q10527 430 10610 515V90L10800 0H10810V1170Q10810 1335 10686 1457Q10570 1570 10395 1570Q10222 1570 10104 1457Q9980 1337 9980 1170Z" fill="currentColor" /></svg>