<svg viewBox="0 0 8645 1590" xmlns="http://www.w3.org/2000/svg"><path d="M0 1590V350Q0 167 227 73Q354 20 505.0 20.0Q656 20 783 73Q1010 167 1010 350V1500L820 1590H810V350Q810 281 689 233Q605 200 505.0 200.0Q405 200 321 233Q200 281 200 350V1500L10 1590ZM1560 1290Q1560 1340 1622.5 1365.0Q1685 1390 1775.0 1390.0Q1865 1390 1927.5 1365.0Q1990 1340 1990 1290V710Q1990 660 1927.5 635.0Q1865 610 1775.0 610.0Q1685 610 1622.5 635.0Q1560 660 1560 710ZM1360 1325V675Q1360 543 1547 469Q1648 430 1775.0 430.0Q1902 430 2003 469Q2190 543 2190 675V1325Q2190 1457 2003 1531Q1902 1570 1775.0 1570.0Q1648 1570 1547 1531Q1360 1457 1360 1325ZM2726 1590 2340 492 2513 410H2523L2806 1244L3083 410H3093L3266 492L2909 1508L2736 1590ZM4176 1500 3986 1590H3976V1536Q3880 1570 3771 1570Q3654 1570 3553 1531Q3366 1457 3366 1325V1055Q3366 921 3553 849Q3654 810 3771 810Q3881 810 3976 844V710Q3976 660 3913.5 635.0Q3851 610 3761 610H3518V600L3598 430H3761Q3888 430 3989 469Q4176 541 4176 675ZM3566 1290Q3566 1340 3628.5 1365.0Q3691 1390 3771.0 1390.0Q3851 1390 3913.5 1365.0Q3976 1340 3976 1290V1090Q3976 1040 3913.5 1015.0Q3851 990 3771.0 990.0Q3691 990 3628 1015Q3566 1040 3566 1090ZM5326 1590V90L5432 40H6066V50L5985 222H5526V704H6066V714L5985 886H5526V1500L5336 1590ZM6446 1590V90L6636 0H6646V1500L6456 1590ZM7756 1500 7566 1590H7556V1536Q7460 1570 7351 1570Q7234 1570 7133 1531Q6946 1457 6946 1325V1055Q6946 921 7133 849Q7234 810 7351 810Q7461 810 7556 844V710Q7556 660 7493.5 635.0Q7431 610 7341 610H7098V600L7178 430H7341Q7468 430 7569 469Q7756 541 7756 675ZM7146 1290Q7146 1340 7208.5 1365.0Q7271 1390 7351.0 1390.0Q7431 1390 7493.5 1365.0Q7556 1340 7556 1290V1090Q7556 1040 7493.5 1015.0Q7431 990 7351.0 990.0Q7271 990 7208 1015Q7146 1040 7146 1090ZM8188 1590V632H7931V622L8012 450H8188V90L8378 0H8388V450H8645V460L8564 632H8388V1500L8198 1590Z" fill="currentColor" /></svg>