<svg viewBox="0 0 2895 1364" xmlns="http://www.w3.org/2000/svg"><path d="M116 1017Q107 1017 101.5 1011.0Q96 1005 96 995V323Q96 312 101.0 306.0Q106 300 114 300Q123 300 127.5 303.0Q132 306 137 314L619 969H597V322Q597 311 602.5 305.5Q608 300 617 300Q626 300 631.0 305.5Q636 311 636 322V994Q636 1005 631.5 1011.0Q627 1017 619 1017Q612 1017 606.5 1013.5Q601 1010 596 1003L114 348H135V995Q135 1005 130.0 1011.0Q125 1017 116 1017ZM986 1019Q929 1019 891.0 998.0Q853 977 834.0 936.0Q815 895 815 834V543Q815 532 820.5 526.5Q826 521 836 521Q846 521 851.5 526.5Q857 532 857 543V830Q857 906 888.0 943.0Q919 980 986 980Q1059 980 1104.5 931.5Q1150 883 1150 804V543Q1150 532 1155.5 526.5Q1161 521 1171 521Q1181 521 1186.5 526.5Q1192 532 1192 543V995Q1192 1017 1172 1017Q1162 1017 1156.5 1011.0Q1151 1005 1151 995V890H1163Q1144 953 1096.0 986.0Q1048 1019 986 1019ZM1383 1017Q1373 1017 1367.5 1011.0Q1362 1005 1362 995V543Q1362 532 1367.5 526.5Q1373 521 1383 521Q1393 521 1398.0 526.5Q1403 532 1403 543V645H1392Q1412 582 1461.0 550.5Q1510 519 1574 519Q1632 519 1670.5 539.0Q1709 559 1728.0 600.0Q1747 641 1747 703V995Q1747 1005 1741.5 1011.0Q1736 1017 1726 1017Q1716 1017 1710.5 1011.0Q1705 1005 1705 995V707Q1705 630 1674.0 594.0Q1643 558 1574 558Q1497 558 1450.5 605.5Q1404 653 1404 733V995Q1404 1017 1383 1017ZM1936 1014Q1926 1014 1920.5 1008.0Q1915 1002 1915 992V546Q1915 535 1920.5 529.5Q1926 524 1936 524Q1946 524 1951.5 529.5Q1957 535 1957 546V992Q1957 1002 1952.0 1008.0Q1947 1014 1936 1014ZM1936 395Q1920 395 1910.5 385.5Q1901 376 1901 360Q1901 343 1910.5 334.5Q1920 326 1936 326Q1953 326 1962.0 334.5Q1971 343 1971 360Q1971 376 1962.0 385.5Q1953 395 1936 395ZM2297 1019Q2247 1019 2213.0 999.5Q2179 980 2162.0 943.5Q2145 907 2145 855V563H2064Q2054 563 2048.0 558.0Q2042 553 2042 545Q2042 537 2048.0 532.0Q2054 527 2064 527H2145V392Q2145 381 2150.5 375.5Q2156 370 2166 370Q2176 370 2181.5 375.5Q2187 381 2187 392V527H2330Q2341 527 2346.5 532.0Q2352 537 2352 545Q2352 553 2346.5 558.0Q2341 563 2330 563H2187V846Q2187 911 2213.0 945.5Q2239 980 2300 980Q2321 980 2334.5 975.5Q2348 971 2357 971Q2363 971 2367.5 976.0Q2372 981 2372 990Q2372 995 2369.5 1000.5Q2367 1006 2360 1008Q2350 1012 2331.5 1015.5Q2313 1019 2297 1019ZM2626 1019Q2560 1019 2511.5 988.0Q2463 957 2436.5 901.0Q2410 845 2410 769Q2410 712 2425.0 666.0Q2440 620 2468.5 587.0Q2497 554 2537.0 536.5Q2577 519 2626 519Q2692 519 2740.5 550.0Q2789 581 2815.5 637.0Q2842 693 2842 769Q2842 826 2827.0 872.0Q2812 918 2783.5 951.0Q2755 984 2715.5 1001.5Q2676 1019 2626 1019ZM2626 980Q2679 980 2718.0 955.0Q2757 930 2778.0 882.5Q2799 835 2799 769Q2799 669 2752.5 613.5Q2706 558 2626 558Q2573 558 2534.0 583.0Q2495 608 2474.0 655.0Q2453 702 2453 769Q2453 869 2500.0 924.5Q2547 980 2626 980Z" fill="currentColor" /></svg>