<svg viewBox="0 0 3520 750" xmlns="http://www.w3.org/2000/svg"><path d="M70 750Q42 750 21.0 729.0Q0 708 0 677V123Q0 92 21.0 71.0Q42 50 70 50H297Q329 50 349.5 71.0Q370 92 370 123V677Q370 708 349.5 729.0Q329 750 297 750ZM127 658H240Q257 658 267.5 647.0Q278 636 278 620V180Q278 163 267.5 152.5Q257 142 240 142H127Q113 142 102.5 152.5Q92 163 92 180V620Q92 636 102.5 647.0Q113 658 127 658ZM505 750Q474 750 453.0 729.0Q432 708 432 677V323Q432 292 453.0 271.0Q474 250 505 250H620V22L714 0V750ZM562 656H620V344H562Q548 344 537.0 354.0Q526 364 526 380V620Q526 634 537.0 645.0Q548 656 562 656ZM774 116V22L868 0V94ZM776 750V272L870 250V750ZM940 750V21L1034 0V250H1149Q1179 250 1200.5 271.0Q1222 292 1222 323V677Q1222 707 1200.5 728.5Q1179 750 1149 750ZM1034 656H1091Q1106 656 1117.0 645.5Q1128 635 1128 620V380Q1128 365 1117.0 354.5Q1106 344 1091 344H1034ZM1355 750Q1325 750 1303.5 728.5Q1282 707 1282 677V322Q1282 292 1303.5 271.0Q1325 250 1355 250H1491Q1522 250 1543.0 271.0Q1564 292 1564 322V474Q1564 504 1543.0 525.5Q1522 547 1491 547H1376V620Q1376 635 1386.5 645.5Q1397 656 1413 656H1543L1564 750ZM1376 453H1434Q1449 453 1459.5 442.5Q1470 432 1470 417V380Q1470 365 1459.5 354.5Q1449 344 1434 344H1413Q1397 344 1386.5 354.5Q1376 365 1376 380ZM1687 750Q1657 750 1635.5 728.5Q1614 707 1614 677V322Q1614 292 1635.5 271.0Q1657 250 1687 250H1823Q1854 250 1875.0 271.0Q1896 292 1896 322V474Q1896 504 1875.0 525.5Q1854 547 1823 547H1708V620Q1708 635 1718.5 645.5Q1729 656 1745 656H1875L1896 750ZM1708 453H1766Q1781 453 1791.5 442.5Q1802 432 1802 417V380Q1802 365 1791.5 354.5Q1781 344 1766 344H1745Q1729 344 1718.5 354.5Q1708 365 1708 380ZM2208 750Q2178 750 2157.0 729.0Q2136 708 2136 678V523L2229 544V621Q2229 636 2239.5 646.5Q2250 657 2264 657H2378Q2393 657 2403.5 646.5Q2414 636 2414 621V445Q2414 430 2403.5 419.5Q2393 409 2378 409H2208Q2178 409 2157.0 388.0Q2136 367 2136 337V122Q2136 92 2157.0 71.0Q2178 50 2208 50H2435Q2465 50 2486.0 71.0Q2507 92 2507 122V230L2414 208V179Q2414 164 2403.5 153.5Q2393 143 2378 143H2264Q2250 143 2239.5 153.5Q2229 164 2229 179V280Q2229 295 2239.5 305.5Q2250 316 2264 316H2435Q2465 316 2486.0 337.0Q2507 358 2507 388V678Q2507 708 2486.0 729.0Q2465 750 2435 750ZM2630 750Q2600 750 2578.5 729.0Q2557 708 2557 677V526Q2557 496 2578.5 474.5Q2600 453 2630 453H2708Q2724 453 2734.5 442.5Q2745 432 2745 417V380Q2745 365 2734.5 354.5Q2724 344 2708 344H2600L2621 250H2766Q2796 250 2817.5 271.5Q2839 293 2839 323V750ZM2687 656H2745V547H2687Q2672 547 2661.5 557.5Q2651 568 2651 583V620Q2651 635 2661.5 645.5Q2672 656 2687 656ZM2893 750V250H3102Q3131 250 3153.0 271.0Q3175 292 3175 322V750H3081V380Q3081 364 3070.0 354.0Q3059 344 3045 344H2987V750ZM3311 750Q3281 750 3260.0 728.5Q3239 707 3239 677V594H3332V620Q3332 635 3343.0 645.5Q3354 656 3369 656H3390Q3405 656 3415.5 645.5Q3426 635 3426 620V583Q3426 568 3415.5 557.5Q3405 547 3390 547H3311Q3281 547 3260.0 525.5Q3239 504 3239 474V323Q3239 293 3260.0 271.5Q3281 250 3311 250H3448Q3478 250 3499.0 271.5Q3520 293 3520 323V406H3426V380Q3426 365 3415.5 354.5Q3405 344 3390 344H3369Q3354 344 3343.0 354.5Q3332 365 3332 380V417Q3332 432 3343.0 442.5Q3354 453 3369 453H3448Q3478 453 3499.0 474.5Q3520 496 3520 526V681Q3519 709 3498.0 729.5Q3477 750 3448 750Z" /></svg>