<svg viewBox="0 0 3626 1261" xmlns="http://www.w3.org/2000/svg"><path d="M563 399V853Q563 929 502.5 970.0Q442 1011 328 1011Q216 1011 158.0 971.0Q100 931 100 853V399Q100 322 160.5 281.5Q221 241 335 241Q447 241 505.0 281.0Q563 321 563 399ZM180 389V863Q180 941 328 941Q404 941 443.5 921.0Q483 901 483 863V389Q483 311 335 311Q259 311 219.5 331.0Q180 351 180 389ZM743 396H813V339Q813 181 1019 181H1054Q1074 181 1074 216Q1074 251 1054 251H1019Q893 251 893 329V396H1008Q1028 396 1028 431Q1028 466 1008 466H893V1099Q893 1138 885.0 1171.5Q877 1205 863.5 1225.5Q850 1246 834 1246Q825 1246 813.0 1239.5Q801 1233 792.0 1223.5Q783 1214 783 1207Q783 1201 790.5 1189.5Q798 1178 805.5 1154.5Q813 1131 813 1089V466H743Q723 466 723 431Q723 396 743 396ZM1128 396H1198V339Q1198 181 1404 181H1439Q1459 181 1459 216Q1459 251 1439 251H1404Q1278 251 1278 329V396H1393Q1413 396 1413 431Q1413 466 1393 466H1278V1099Q1278 1138 1270.0 1171.5Q1262 1205 1248.5 1225.5Q1235 1246 1219 1246Q1210 1246 1198.0 1239.5Q1186 1233 1177.0 1223.5Q1168 1214 1168 1207Q1168 1201 1175.5 1189.5Q1183 1178 1190.5 1154.5Q1198 1131 1198 1089V466H1128Q1108 466 1108 431Q1108 396 1128 396ZM1873 569V530Q1873 451 1744 451Q1685 451 1652.0 470.5Q1619 490 1619 526V548Q1619 582 1624.0 600.5Q1629 619 1645.0 628.5Q1661 638 1693 646L1780 668Q1852 686 1890.0 704.5Q1928 723 1941.5 751.5Q1955 780 1955 828V864Q1955 935 1899.0 973.0Q1843 1011 1738 1011Q1523 1011 1523 852V820Q1523 808 1532.0 803.0Q1541 798 1563 798Q1580 798 1591.0 805.0Q1602 812 1602 823V868Q1602 906 1635.0 923.5Q1668 941 1739 941Q1876 941 1876 871V818Q1876 788 1853.5 770.5Q1831 753 1772 738L1684 716Q1624 701 1593.0 683.0Q1562 665 1551.0 633.5Q1540 602 1540 545V533Q1540 459 1592.5 420.0Q1645 381 1742 381Q1952 381 1952 537V572Q1952 593 1917 593Q1873 593 1873 569ZM2235 414V879Q2235 906 2242.5 923.0Q2250 940 2257.5 950.5Q2265 961 2265 967Q2265 974 2256.0 983.5Q2247 993 2235.5 999.5Q2224 1006 2214 1006Q2200 1006 2186.0 988.5Q2172 971 2163.5 944.0Q2155 917 2155 889V414Q2155 391 2195 391Q2235 391 2235 414ZM2238 288Q2238 313 2195 313Q2151 313 2151 288V201Q2151 176 2194 176Q2238 176 2238 201ZM2878 219V853Q2878 929 2822.5 970.0Q2767 1011 2662 1011Q2557 1011 2501.0 970.0Q2445 929 2445 853V554Q2445 477 2500.5 436.5Q2556 396 2661 396H2748Q2768 396 2768 431Q2768 466 2748 466H2661Q2525 466 2525 544V863Q2525 901 2560.0 921.0Q2595 941 2662 941Q2798 941 2798 863V219Q2798 196 2838 196Q2878 196 2878 219ZM3526 537V567Q3526 622 3511.5 654.5Q3497 687 3462.0 703.0Q3427 719 3363 725L3168 744V863Q3168 941 3298 941Q3374 941 3410.0 924.0Q3446 907 3446 873V835Q3446 812 3486 812Q3526 812 3526 835V863Q3526 1011 3306 1011Q3201 1011 3144.5 970.0Q3088 929 3088 853V539Q3088 462 3148.5 421.5Q3209 381 3321 381Q3426 381 3476.0 419.0Q3526 457 3526 537ZM3168 529V674L3356 655Q3411 650 3428.5 632.5Q3446 615 3446 567V529Q3446 491 3410.0 471.0Q3374 451 3306 451Q3239 451 3203.5 471.0Q3168 491 3168 529Z" fill="currentColor" /></svg>