<svg viewBox="0 0 11212 949" xmlns="http://www.w3.org/2000/svg"><path d="M0 419Q0 251 101.0 143.5Q202 36 387 36Q473 36 542.0 61.0Q611 86 651.0 122.5Q691 159 718.0 206.0Q745 253 755.0 292.5Q765 332 765 366Q765 502 712.0 595.5Q659 689 572.5 731.5Q486 774 373 774Q254 774 167.5 722.0Q81 670 40.5 591.0Q0 512 0 419ZM88 368Q88 408 99.0 454.5Q110 501 135.0 550.5Q160 600 195.5 639.5Q231 679 285.5 704.5Q340 730 405 730Q439 730 476.5 719.5Q514 709 551.0 687.0Q588 665 617.0 633.5Q646 602 664.5 556.5Q683 511 683 458Q683 277 588.0 176.5Q493 76 353 76Q243 76 165.5 150.0Q88 224 88 368ZM829 61Q829 58 830.5 55.0Q832 52 838.5 48.0Q845 44 855 44H882Q906 44 959.5 47.0Q1013 50 1099 50Q1170 50 1225.0 47.5Q1280 45 1326 45Q1343 45 1343 69Q1343 78 1341.0 91.5Q1339 105 1335.0 127.5Q1331 150 1329 171Q1327 191 1314 191Q1300 191 1300 171Q1300 105 1254 102Q1103 90 1074 90Q1029 90 1018.5 101.0Q1008 112 1007 146Q1007 151 1007 154Q1004 208 1004 321Q1004 370 1022 371Q1027 371 1035.5 371.5Q1044 372 1047 372Q1054 372 1068.0 371.5Q1082 371 1090 371H1121Q1181 371 1200.5 367.5Q1220 364 1236 353Q1245 347 1250.0 339.0Q1255 331 1257.0 320.0Q1259 309 1262.0 304.0Q1265 299 1274.0 299.0Q1283 299 1285.0 302.0Q1287 305 1287 315Q1287 322 1282.5 350.0Q1278 378 1278 398Q1278 417 1281.5 444.5Q1285 472 1285 480Q1285 496 1281.5 500.5Q1278 505 1271 505Q1254 505 1250 480Q1250 478 1249.0 471.0Q1248 464 1247.5 461.0Q1247 458 1245.0 452.5Q1243 447 1241.0 444.0Q1239 441 1236.0 437.5Q1233 434 1228 432Q1214 426 1178.0 422.0Q1142 418 1131 418H1044Q1003 418 1003 437Q1003 466 1002.0 509.5Q1001 553 1001 581Q1001 588 1000.5 601.5Q1000 615 1000 621Q1000 641 1004.0 661.0Q1008 681 1027.5 703.0Q1047 725 1080 725Q1110 725 1110 743Q1110 746 1108.0 750.0Q1106 754 1098.5 758.0Q1091 762 1079 762Q1063 762 1028.5 758.0Q994 754 982 754Q954 754 919.5 757.0Q885 760 861 760Q841 760 841 749Q841 736 845.5 733.0Q850 730 884 718Q910 709 916.0 664.5Q922 620 923 484Q923 431 923 401Q923 374 924.5 316.5Q926 259 926 227V169Q926 103 879 81Q872 78 862.0 76.5Q852 75 845.5 75.0Q839 75 834.0 71.5Q829 68 829 61ZM1383 63Q1383 45 1410 45Q1414 45 1423.0 46.0Q1432 47 1437 47Q1447 47 1474.5 49.0Q1502 51 1524 51Q1555 51 1590.0 49.0Q1625 47 1629 47Q1646 47 1646 57Q1646 71 1634.0 75.5Q1622 80 1607.5 81.5Q1593 83 1579.5 103.5Q1566 124 1564 165Q1562 204 1559.0 383.0Q1556 562 1556 583V623Q1556 695 1580 702Q1605 710 1623 710Q1698 710 1754.5 703.0Q1811 696 1839.5 685.5Q1868 675 1887.0 662.5Q1906 650 1911.5 639.5Q1917 629 1922.5 622.0Q1928 615 1934 615Q1946 615 1946 632Q1946 675 1903.0 719.0Q1860 763 1828 763Q1756 763 1665.5 758.0Q1575 753 1553 753Q1525 753 1488.5 757.0Q1452 761 1428 761Q1399 761 1399 749Q1399 742 1404.5 737.5Q1410 733 1415 733Q1430 733 1444 723Q1462 709 1470.0 671.5Q1478 634 1478 527V403Q1478 376 1479.5 319.0Q1481 262 1481 230Q1481 203 1479 139Q1478 110 1454.0 94.0Q1430 78 1398 77Q1388 77 1385.5 73.5Q1383 70 1383 63ZM2238 571Q2238 550 2252 550Q2265 550 2268 560Q2278 584 2286.5 601.5Q2295 619 2314.0 644.5Q2333 670 2355.0 686.5Q2377 703 2411.5 715.0Q2446 727 2487 727Q2562 727 2607.5 687.5Q2653 648 2653 584Q2653 537 2622.0 505.5Q2591 474 2551.0 460.5Q2511 447 2449.5 424.5Q2388 402 2349 379Q2258 325 2258 232Q2258 143 2322.5 89.5Q2387 36 2490 36Q2528 36 2580.5 52.5Q2633 69 2634 69Q2637 69 2645.0 65.0Q2653 61 2657 61Q2670 61 2672 69Q2693 190 2693 205Q2693 233 2679 233Q2670 233 2665 219Q2653 190 2641.5 172.0Q2630 154 2625.0 149.0Q2620 144 2599 125Q2545 77 2468 77Q2406 77 2364.0 107.0Q2322 137 2322 188Q2322 233 2346.5 262.0Q2371 291 2412.0 307.0Q2453 323 2498.0 337.0Q2543 351 2593.5 376.0Q2644 401 2677 436Q2717 479 2717 543Q2717 648 2650.0 709.5Q2583 771 2484 771Q2415 771 2373.0 763.5Q2331 756 2287 733Q2274 725 2256.0 655.0Q2238 585 2238 571ZM2814 555Q2814 463 2876.5 395.0Q2939 327 3050 327Q3144 327 3213.5 386.0Q3283 445 3283 549Q3283 655 3211.5 715.5Q3140 776 3043 776Q2935 776 2874.5 710.5Q2814 645 2814 555ZM2893 521Q2893 624 2948.0 685.0Q3003 746 3073 746Q3130 746 3169.0 702.5Q3208 659 3208 579Q3208 491 3160.0 422.5Q3112 354 3026 354Q2974 354 2933.5 395.0Q2893 436 2893 521ZM3344 378Q3344 367 3357.5 361.5Q3371 356 3407.5 344.5Q3444 333 3476 318Q3486 314 3490 314Q3503 314 3503 334Q3503 338 3502.5 347.0Q3502 356 3502 361Q3502 382 3503.0 391.0Q3504 400 3505.5 402.0Q3507 404 3510 404Q3512 404 3525.0 384.0Q3538 364 3562.0 343.5Q3586 323 3615 323Q3633 323 3662 342Q3683 356 3683 371Q3683 389 3675.0 403.0Q3667 417 3659.5 422.0Q3652 427 3649 427Q3641 427 3620.5 415.0Q3600 403 3573.0 403.0Q3546 403 3522.5 425.0Q3499 447 3499 465V569Q3499 605 3499.5 627.5Q3500 650 3500.0 655.5Q3500 661 3500.5 665.0Q3501 669 3501 674Q3501 695 3515.0 710.0Q3529 725 3548 728Q3554 729 3563.0 730.0Q3572 731 3577.0 731.5Q3582 732 3588.0 733.5Q3594 735 3596.5 738.0Q3599 741 3599 745Q3599 761 3587 761Q3570 761 3541.0 758.5Q3512 756 3502 756Q3470 756 3436.0 758.5Q3402 761 3398 761Q3388 761 3383.0 759.0Q3378 757 3377.0 755.0Q3376 753 3376 749Q3376 736 3389 732Q3415 726 3420.5 706.5Q3426 687 3426 623Q3426 558 3425.5 516.0Q3425 474 3425.0 462.5Q3425 451 3424.5 444.0Q3424 437 3424 432Q3424 421 3421.0 414.0Q3418 407 3406.5 401.0Q3395 395 3374 395Q3373 395 3369.0 394.5Q3365 394 3363 394Q3344 394 3344 378ZM3724 374Q3724 368 3727.5 363.5Q3731 359 3737.0 355.0Q3743 351 3754.5 341.5Q3766 332 3777 320Q3792 304 3808.5 281.5Q3825 259 3834.5 248.5Q3844 238 3853 238Q3864 238 3864 261Q3864 270 3862.0 289.0Q3860 308 3860 318Q3860 332 3865.5 335.0Q3871 338 3901 338H3936Q3958 338 3973.5 336.0Q3989 334 3995.0 331.0Q4001 328 4005.5 326.0Q4010 324 4013 324Q4023 324 4023 335Q4023 343 4010.0 366.5Q3997 390 3991 390Q3976 390 3962.0 389.5Q3948 389 3938.0 388.5Q3928 388 3919.0 387.0Q3910 386 3904.0 385.5Q3898 385 3893.5 384.5Q3889 384 3887 384L3885 383Q3866 383 3860.5 389.0Q3855 395 3855 416Q3855 427 3853.0 499.5Q3851 572 3851 602Q3851 667 3867.5 692.5Q3884 718 3937 718Q3958 718 3983.5 708.5Q4009 699 4011 699Q4021 699 4021 711Q4021 725 3986.5 746.5Q3952 768 3912 768Q3777 768 3777 651V636Q3777 597 3778.0 541.0Q3779 485 3780.0 444.5Q3781 404 3781 403Q3781 393 3777.0 390.0Q3773 387 3760 387Q3756 387 3749.5 387.5Q3743 388 3741 388Q3724 388 3724 374ZM4094 715V628Q4094 617 4098.5 609.5Q4103 602 4109 602Q4119 602 4122.5 606.5Q4126 611 4129.0 625.0Q4132 639 4135 645Q4172 737 4239 737Q4270 737 4298.0 720.5Q4326 704 4326 666Q4326 633 4303.0 611.0Q4280 589 4247.0 576.5Q4214 564 4181.0 550.5Q4148 537 4125.0 510.5Q4102 484 4102 444Q4102 388 4147.0 354.0Q4192 320 4253 320Q4300 320 4328.0 328.5Q4356 337 4361.5 344.0Q4367 351 4367 357Q4367 358 4369.0 384.0Q4371 410 4371 417Q4371 434 4367.0 440.0Q4363 446 4353 446Q4348 446 4339.5 431.5Q4331 417 4320.5 400.0Q4310 383 4286.5 368.5Q4263 354 4232 354Q4203 354 4184.0 368.5Q4165 383 4165 405Q4165 417 4168.0 427.5Q4171 438 4178.5 446.0Q4186 454 4191.5 459.5Q4197 465 4210.0 471.0Q4223 477 4229.5 479.5Q4236 482 4251.5 487.5Q4267 493 4272 495Q4344 522 4369.0 551.5Q4394 581 4394 639Q4394 695 4341 743Q4305 774 4242 774Q4224 774 4204.0 770.0Q4184 766 4172.5 762.5Q4161 759 4146.0 753.0Q4131 747 4130 747Q4126 746 4120.5 744.0Q4115 742 4112.5 741.5Q4110 741 4106.0 739.0Q4102 737 4100.5 735.5Q4099 734 4097.0 731.0Q4095 728 4094.5 724.0Q4094 720 4094 715ZM4665 63Q4665 48 4683 48Q4689 48 4710.5 50.0Q4732 52 4736 52Q4751 52 4777.0 51.0Q4803 50 4811 50Q4830 50 4835 64Q4847 90 4878.0 157.5Q4909 225 4927.5 265.0Q4946 305 4975.0 367.0Q5004 429 5022.0 467.5Q5040 506 5059.5 545.0Q5079 584 5089.5 602.5Q5100 621 5103.0 621.0Q5106 621 5109.5 617.5Q5113 614 5116.5 608.0Q5120 602 5122.5 596.0Q5125 590 5129.5 580.5Q5134 571 5136 566L5265 300Q5287 255 5304.0 219.0Q5321 183 5331.0 161.0Q5341 139 5348.0 123.0Q5355 107 5358.5 99.0Q5362 91 5363.5 86.5Q5365 82 5366.0 79.5Q5367 77 5368.0 75.0Q5369 73 5371.5 66.0Q5374 59 5376.5 56.5Q5379 54 5386.5 51.0Q5394 48 5406 48Q5425 48 5441.5 49.0Q5458 50 5492 50Q5509 50 5509 63Q5509 73 5502.5 77.5Q5496 82 5476 85Q5451 88 5441.0 110.0Q5431 132 5431 194Q5431 329 5437.0 438.5Q5443 548 5443 576Q5443 676 5459.0 703.5Q5475 731 5526 731Q5533 731 5538.5 736.0Q5544 741 5544 745Q5544 751 5543.0 754.0Q5542 757 5539.0 759.0Q5536 761 5533.0 761.0Q5530 761 5522 761Q5492 761 5463.0 759.0Q5434 757 5420 757Q5392 757 5362.0 759.5Q5332 762 5316 762Q5298 762 5298 748Q5298 739 5306.0 735.0Q5314 731 5324.5 730.0Q5335 729 5346.5 717.5Q5358 706 5363 683Q5367 663 5367 619Q5367 587 5365.5 542.0Q5364 497 5362.0 454.5Q5360 412 5358.0 374.5Q5356 337 5355 313L5353 289Q5353 246 5344 246Q5343 246 5341.0 247.0Q5339 248 5337.5 250.0Q5336 252 5334.0 254.0Q5332 256 5330.0 260.5Q5328 265 5326.0 268.0Q5324 271 5321.0 276.5Q5318 282 5316.0 286.0Q5314 290 5310.5 297.0Q5307 304 5305 309L5166 590Q5142 639 5115 695Q5097 733 5093.0 739.5Q5089 746 5083 746Q5074 746 5068.0 737.5Q5062 729 5050.0 700.0Q5038 671 5029 652Q4846 280 4841 273Q4838 269 4835 269Q4827 269 4827 309Q4826 387 4822.0 463.0Q4818 539 4818 573V618Q4818 644 4819.5 658.0Q4821 672 4827.5 690.5Q4834 709 4851.0 719.0Q4868 729 4895 732Q4900 732 4904.5 735.5Q4909 739 4909 743Q4909 754 4906.0 757.5Q4903 761 4894 761Q4874 761 4834.0 759.0Q4794 757 4790 757Q4788 757 4761.0 758.5Q4734 760 4708 760Q4700 760 4696.5 759.0Q4693 758 4690.0 754.5Q4687 751 4687 744Q4687 736 4696.0 733.0Q4705 730 4716.5 729.5Q4728 729 4742.0 713.5Q4756 698 4763 668Q4768 646 4775.0 494.0Q4782 342 4782 269Q4782 169 4762.5 131.0Q4743 93 4678 78Q4665 75 4665 63ZM5600 377Q5600 372 5602.5 369.0Q5605 366 5612.5 362.5Q5620 359 5628.0 356.5Q5636 354 5651.5 348.5Q5667 343 5681 337Q5692 332 5701.5 328.0Q5711 324 5714.0 322.5Q5717 321 5721.0 320.0Q5725 319 5731 319Q5746 319 5746 338Q5746 343 5743.0 360.0Q5740 377 5740 386V660Q5740 690 5749.5 707.0Q5759 724 5769.5 728.0Q5780 732 5796 733Q5808 734 5812.0 734.5Q5816 735 5821.0 738.0Q5826 741 5826 748Q5826 765 5809 765Q5807 765 5802.0 764.5Q5797 764 5794 764Q5772 764 5757.0 763.0Q5742 762 5723 762Q5699 762 5678.0 763.0Q5657 764 5652 764Q5612 764 5612 751Q5612 737 5627 732Q5628 732 5631 731Q5654 723 5659 711Q5668 691 5668 552V464Q5668 435 5661.0 418.0Q5654 401 5648.0 397.0Q5642 393 5627.5 390.5Q5613 388 5610 387Q5600 383 5600 377ZM5657 168Q5657 156 5674.5 134.5Q5692 113 5707 113Q5723 113 5738.0 133.5Q5753 154 5753.0 170.0Q5753 186 5734.0 205.5Q5715 225 5706 225Q5686 225 5671.5 204.0Q5657 183 5657 168ZM5868 65Q5868 59 5869.5 56.0Q5871 53 5876.0 50.5Q5881 48 5887.5 46.5Q5894 45 5908.0 40.5Q5922 36 5936 30Q5944 27 5961.0 19.0Q5978 11 5990.5 6.5Q6003 2 6012 2Q6024 2 6024 21Q6024 25 6022.0 44.5Q6020 64 6018.0 98.5Q6016 133 6016 173V229Q6016 276 6015.0 308.5Q6014 341 6014 362V660Q6014 681 6017.5 694.5Q6021 708 6040.5 720.5Q6060 733 6095 733Q6100 733 6104.0 738.0Q6108 743 6108 748Q6108 762 6077 762Q6068 762 6030.5 758.5Q5993 755 5976 755Q5950 755 5926.5 759.0Q5903 763 5895 763Q5888 763 5883.5 759.5Q5879 756 5879 753Q5879 745 5883.5 741.5Q5888 738 5898.5 735.5Q5909 733 5913 731Q5930 723 5935.0 709.0Q5940 695 5940 666Q5940 662 5939.5 653.5Q5939 645 5939 640V566Q5939 529 5941.0 369.5Q5943 210 5943 141Q5943 118 5935.5 99.5Q5928 81 5919.0 77.0Q5910 73 5879 73Q5868 73 5868 65ZM6147 65Q6147 59 6148.5 56.0Q6150 53 6155.0 50.5Q6160 48 6166.5 46.5Q6173 45 6187.0 40.5Q6201 36 6215 30Q6223 27 6240.0 19.0Q6257 11 6269.5 6.5Q6282 2 6291 2Q6303 2 6303 21Q6303 25 6301.0 44.5Q6299 64 6297.0 98.5Q6295 133 6295 173V229Q6295 276 6294.0 308.5Q6293 341 6293 362V660Q6293 681 6296.5 694.5Q6300 708 6319.5 720.5Q6339 733 6374 733Q6379 733 6383.0 738.0Q6387 743 6387 748Q6387 762 6356 762Q6347 762 6309.5 758.5Q6272 755 6255 755Q6229 755 6205.5 759.0Q6182 763 6174 763Q6167 763 6162.5 759.5Q6158 756 6158 753Q6158 745 6162.5 741.5Q6167 738 6177.5 735.5Q6188 733 6192 731Q6209 723 6214.0 709.0Q6219 695 6219 666Q6219 662 6218.5 653.5Q6218 645 6218 640V566Q6218 529 6220.0 369.5Q6222 210 6222 141Q6222 118 6214.5 99.5Q6207 81 6198.0 77.0Q6189 73 6158 73Q6147 73 6147 65ZM6663 429Q6663 320 6706.5 233.0Q6750 146 6840.0 92.5Q6930 39 7054 39Q7102 39 7144.0 46.5Q7186 54 7213.0 64.0Q7240 74 7260.0 84.5Q7280 95 7290.5 102.5Q7301 110 7303 110Q7306 110 7316.5 102.5Q7327 95 7331 95Q7346 95 7346 115Q7347 144 7350.5 176.0Q7354 208 7357.0 229.0Q7360 250 7360 254Q7360 271 7348.0 271.0Q7336 271 7331 259Q7296 183 7214.0 130.5Q7132 78 7045 78Q6920 78 6838.5 156.5Q6757 235 6757 374Q6757 466 6791.0 547.0Q6825 628 6894.5 681.0Q6964 734 7054 734Q7131 734 7193.5 699.0Q7256 664 7263 619Q7266 595 7266 493Q7266 454 7249 437Q7237 425 7205 421Q7175 418 7170 409Q7168 405 7168 399Q7168 388 7186 388Q7199 388 7242.0 390.5Q7285 393 7297 393Q7317 393 7340.0 392.5Q7363 392 7377 392H7392Q7408 392 7408 401Q7408 408 7382.5 419.0Q7357 430 7354 447Q7347 490 7347 559Q7347 589 7348.0 612.0Q7349 635 7349.5 644.5Q7350 654 7351.0 661.0Q7352 668 7352 671Q7352 676 7344.5 678.5Q7337 681 7320.0 685.5Q7303 690 7289 698L7282 702Q7275 707 7268.0 711.0Q7261 715 7249.5 721.0Q7238 727 7226.0 733.0Q7214 739 7199.0 745.5Q7184 752 7168.0 757.0Q7152 762 7135.0 766.0Q7118 770 7099.5 772.5Q7081 775 7063 775Q6954 775 6873.5 745.5Q6793 716 6749.0 665.5Q6705 615 6684.0 556.0Q6663 497 6663 429ZM7476 555Q7476 463 7538.5 395.0Q7601 327 7712 327Q7806 327 7875.5 386.0Q7945 445 7945 549Q7945 655 7873.5 715.5Q7802 776 7705 776Q7597 776 7536.5 710.5Q7476 645 7476 555ZM7555 521Q7555 624 7610.0 685.0Q7665 746 7735 746Q7792 746 7831.0 702.5Q7870 659 7870 579Q7870 491 7822.0 422.5Q7774 354 7688 354Q7636 354 7595.5 395.0Q7555 436 7555 521ZM8013 364Q8013 357 8017.5 352.5Q8022 348 8037.0 345.0Q8052 342 8080 342Q8087 342 8111.0 339.5Q8135 337 8137 337Q8154 337 8157.0 344.0Q8160 351 8160 387Q8160 407 8157.5 455.5Q8155 504 8155 563Q8155 651 8189.0 687.5Q8223 724 8266 724Q8330 724 8359.0 697.0Q8388 670 8388 602L8386 464Q8386 414 8378.0 396.5Q8370 379 8340 376Q8318 374 8318 363Q8318 340 8406 340Q8414 340 8426.0 337.5Q8438 335 8442 335Q8457 335 8461.5 340.0Q8466 345 8466 363Q8466 364 8465.5 378.5Q8465 393 8464.5 417.0Q8464 441 8463.0 471.0Q8462 501 8461.5 540.5Q8461 580 8461 618Q8461 679 8467.0 701.0Q8473 723 8489 723Q8494 723 8502.5 722.5Q8511 722 8515 722Q8539 722 8539 735Q8539 746 8532.0 749.0Q8525 752 8502 752Q8485 752 8444.5 757.5Q8404 763 8401 763Q8394 763 8389.5 737.5Q8385 712 8383 712Q8382 712 8364.0 728.0Q8346 744 8312.5 760.0Q8279 776 8239 776Q8078 776 8078 602Q8078 505 8078.5 464.5Q8079 424 8079 422Q8079 402 8068.5 390.0Q8058 378 8049 378H8031Q8013 378 8013 364ZM8599 563Q8599 466 8663.5 393.0Q8728 320 8842 320Q8868 320 8910.5 334.5Q8953 349 8956 349Q8961 349 8961 313Q8961 237 8962.0 213.5Q8963 190 8963 184Q8963 152 8962.0 137.0Q8961 122 8956.5 104.0Q8952 86 8940.5 79.0Q8929 72 8910 72H8899Q8884 72 8881.0 71.0Q8878 70 8878 64V63Q8878 56 8888.0 52.5Q8898 49 8928.5 39.5Q8959 30 8991 15Q8994 14 9003.0 9.5Q9012 5 9018.5 2.5Q9025 0 9030 0Q9042 0 9042 20Q9042 23 9035.5 105.0Q9029 187 9029 237Q9029 340 9028.0 460.0Q9027 580 9027 602Q9027 670 9033.5 693.0Q9040 716 9062 723Q9065 724 9079.0 726.5Q9093 729 9099.0 732.5Q9105 736 9105 744Q9105 756 9028 762Q9012 763 8991.0 767.5Q8970 772 8965 772Q8954 772 8954 761Q8954 758 8952.5 746.0Q8951 734 8951 724Q8951 707 8942 707Q8939 707 8927.5 717.0Q8916 727 8901.0 739.5Q8886 752 8857.5 762.0Q8829 772 8796 772Q8703 772 8651.0 710.5Q8599 649 8599 563ZM8671 516Q8671 592 8717.5 656.0Q8764 720 8837 720Q8882 720 8919.0 697.0Q8956 674 8956 641L8957 470Q8957 409 8929 393Q8855 349 8810 349Q8745 349 8708.0 396.5Q8671 444 8671 516ZM9135 346Q9135 334 9155 334Q9183 334 9212.5 335.0Q9242 336 9262 336Q9279 336 9292.5 335.0Q9306 334 9319 334Q9326 334 9331.5 337.5Q9337 341 9337 345Q9337 363 9313 363H9298Q9282 363 9282 391Q9282 413 9325 508Q9328 516 9330.0 520.5Q9332 525 9335.5 532.5Q9339 540 9342 547Q9348 560 9362.0 592.0Q9376 624 9383.5 639.0Q9391 654 9395 654Q9401 654 9441.5 539.0Q9482 424 9482 400Q9482 380 9472.5 371.0Q9463 362 9451.0 362.5Q9439 363 9429.5 359.5Q9420 356 9420 345Q9420 333 9439 333Q9454 333 9478.5 333.5Q9503 334 9511 334Q9521 334 9545.5 333.5Q9570 333 9573 333Q9594 333 9594 346Q9594 356 9576.5 360.5Q9559 365 9553 373Q9537 396 9499 499L9410 736Q9399 765 9388.0 795.5Q9377 826 9370.0 845.0Q9363 864 9356.0 883.0Q9349 902 9345.0 912.5Q9341 923 9336.5 932.0Q9332 941 9328.5 944.5Q9325 948 9322 948Q9321 948 9318.5 948.0Q9316 948 9306.0 948.5Q9296 949 9276 949Q9257 949 9257 936Q9257 933 9279.5 905.0Q9302 877 9325.0 836.0Q9348 795 9348 761Q9348 732 9291.0 608.0Q9234 484 9192 405Q9181 385 9169.5 374.0Q9158 363 9151.0 362.0Q9144 361 9139.5 358.0Q9135 355 9135 346ZM9846 178Q9846 138 9856 75Q9856 73 9856.5 68.0Q9857 63 9857.5 61.5Q9858 60 9858.5 56.5Q9859 53 9860.0 51.5Q9861 50 9862.5 47.5Q9864 45 9866.0 44.0Q9868 43 9871.0 42.0Q9874 41 9878.0 40.5Q9882 40 9887 40Q9903 40 9971.5 44.0Q10040 48 10169 48Q10389 48 10477 43Q10478 43 10480.5 42.5Q10483 42 10484 42Q10495 42 10499.0 48.0Q10503 54 10503 59Q10503 66 10506.0 101.0Q10509 136 10509 140Q10509 165 10506.0 171.5Q10503 178 10493 178Q10485 178 10482 166Q10474 137 10468.0 126.5Q10462 116 10442.0 108.0Q10422 100 10381 100H10251Q10227 100 10221.5 109.5Q10216 119 10216 164V213Q10216 347 10214.5 449.0Q10213 551 10213 579Q10213 593 10212.5 614.5Q10212 636 10212 644Q10212 687 10226 701Q10239 713 10255.0 719.5Q10271 726 10282.5 727.0Q10294 728 10302.0 732.0Q10310 736 10310 745Q10310 756 10305.0 759.0Q10300 762 10286 762Q10274 762 10233.0 758.0Q10192 754 10175 754Q10163 754 10126.5 757.5Q10090 761 10073 761Q10036 761 10036 745Q10036 735 10042.0 731.5Q10048 728 10065.5 725.5Q10083 723 10088 722Q10122 714 10126 682Q10136 594 10136 304L10135 125Q10135 106 10124.0 101.5Q10113 97 10059 97Q9989 97 9953.5 101.0Q9918 105 9912.0 108.5Q9906 112 9898 122Q9889 134 9883.5 148.5Q9878 163 9876.5 172.5Q9875 182 9870.5 188.5Q9866 195 9857 195Q9846 195 9846 178ZM10549 178Q10549 138 10559 75Q10559 73 10559.5 68.0Q10560 63 10560.5 61.5Q10561 60 10561.5 56.5Q10562 53 10563.0 51.5Q10564 50 10565.5 47.5Q10567 45 10569.0 44.0Q10571 43 10574.0 42.0Q10577 41 10581.0 40.5Q10585 40 10590 40Q10606 40 10674.5 44.0Q10743 48 10872 48Q11092 48 11180 43Q11181 43 11183.5 42.5Q11186 42 11187 42Q11198 42 11202.0 48.0Q11206 54 11206 59Q11206 66 11209.0 101.0Q11212 136 11212 140Q11212 165 11209.0 171.5Q11206 178 11196 178Q11188 178 11185 166Q11177 137 11171.0 126.5Q11165 116 11145.0 108.0Q11125 100 11084 100H10954Q10930 100 10924.5 109.5Q10919 119 10919 164V213Q10919 347 10917.5 449.0Q10916 551 10916 579Q10916 593 10915.5 614.5Q10915 636 10915 644Q10915 687 10929 701Q10942 713 10958.0 719.5Q10974 726 10985.5 727.0Q10997 728 11005.0 732.0Q11013 736 11013 745Q11013 756 11008.0 759.0Q11003 762 10989 762Q10977 762 10936.0 758.0Q10895 754 10878 754Q10866 754 10829.5 757.5Q10793 761 10776 761Q10739 761 10739 745Q10739 735 10745.0 731.5Q10751 728 10768.5 725.5Q10786 723 10791 722Q10825 714 10829 682Q10839 594 10839 304L10838 125Q10838 106 10827.0 101.5Q10816 97 10762 97Q10692 97 10656.5 101.0Q10621 105 10615.0 108.5Q10609 112 10601 122Q10592 134 10586.5 148.5Q10581 163 10579.5 172.5Q10578 182 10573.5 188.5Q10569 195 10560 195Q10549 195 10549 178Z" /></svg>