<svg viewBox="0 0 1572.5833333333333 911" xmlns="http://www.w3.org/2000/svg"><path d="M485 911Q245 911 122.5 809.0Q0 707 0 507Q0 287 124.0 184.0Q248 81 490 81Q748 81 868.0 182.5Q988 284 988 481Q988 704 861.0 807.5Q734 911 485 911ZM463 560H524V431H463ZM1020 893Q1012 873 1007.0 841.5Q1002 810 1001.5 775.0Q1001 740 1003.5 708.5Q1006 677 1013 657Q1028 651 1042.0 638.0Q1056 625 1065.5 599.0Q1075 573 1075 528Q1075 484 1063.5 459.5Q1052 435 1037.5 423.5Q1023 412 1013 407Q1004 390 1000.0 358.5Q996 327 996.5 290.0Q997 253 1002.0 219.0Q1007 185 1017 163Q1028 164 1036.0 165.5Q1044 167 1054 168Q1050 230 1079.0 274.5Q1108 319 1158.5 338.0Q1209 357 1266 346Q1218 344 1177.5 320.5Q1137 297 1112.5 257.5Q1088 218 1088 169Q1088 128 1107.5 89.5Q1127 51 1173.0 25.5Q1219 0 1297 0Q1422 0 1479.5 62.5Q1537 125 1537 247Q1537 304 1527.5 351.5Q1518 399 1508.5 442.5Q1499 486 1499 531Q1499 574 1508.5 600.0Q1518 626 1532.5 638.5Q1547 651 1561 657Q1568 677 1570.5 708.5Q1573 740 1572.5 775.0Q1572 810 1567.0 841.5Q1562 873 1554 893Q1526 890 1481.5 886.5Q1437 883 1385.0 880.5Q1333 878 1281 878Q1233 878 1183.5 880.5Q1134 883 1091.0 886.5Q1048 890 1020 893Z" /></svg>