<svg viewBox="0 0 2794 1275" xmlns="http://www.w3.org/2000/svg"><path d="M381 978Q271 978 197.0 931.0Q123 884 85.5 802.0Q48 720 48 617Q48 513 85.5 431.0Q123 349 197.0 302.0Q271 255 381 255Q491 255 564.5 302.0Q638 349 675.5 431.0Q713 513 713 617Q713 720 675.5 802.0Q638 884 564.5 931.0Q491 978 381 978ZM381 899Q465 899 519.0 860.5Q573 822 598.5 758.0Q624 694 624 617Q624 559 609.5 507.5Q595 456 565.0 417.0Q535 378 489.0 356.0Q443 334 381 334Q298 334 243.5 373.0Q189 412 162.5 476.0Q136 540 136 617Q136 693 162.0 757.0Q188 821 242.5 860.0Q297 899 381 899ZM828 970V443H910L914 523Q932 494 960.0 475.0Q988 456 1021.5 446.5Q1055 437 1087 437Q1164 437 1207.5 469.0Q1251 501 1269.5 555.5Q1288 610 1288 679V970H1203V702Q1203 665 1198.5 631.0Q1194 597 1180.5 570.0Q1167 543 1142.0 527.5Q1117 512 1075 512Q1023 512 986.5 541.0Q950 570 931.5 619.0Q913 668 913 729V970ZM1647 976Q1563 976 1508.0 941.5Q1453 907 1426.0 846.0Q1399 785 1399 707Q1399 628 1427.5 567.5Q1456 507 1511.0 472.0Q1566 437 1646 437Q1708 437 1752.5 460.5Q1797 484 1826.0 523.0Q1855 562 1868.0 608.5Q1881 655 1879 702Q1878 711 1877.5 720.0Q1877 729 1876 738H1485Q1489 784 1508.0 821.0Q1527 858 1562.0 879.5Q1597 901 1649 901Q1675 901 1701.5 894.5Q1728 888 1749.5 872.0Q1771 856 1780 829H1867Q1855 880 1822.0 912.5Q1789 945 1743.0 960.5Q1697 976 1647 976ZM1487 664H1792Q1791 619 1772.0 585.0Q1753 551 1720.5 532.0Q1688 513 1643 513Q1594 513 1560.5 534.0Q1527 555 1509.0 589.0Q1491 623 1487 664ZM2184 976Q2148 976 2111.5 969.0Q2075 962 2043.5 945.0Q2012 928 1991.0 899.0Q1970 870 1964 827H2050Q2060 854 2082.5 870.5Q2105 887 2133.5 894.0Q2162 901 2188 901Q2204 901 2225.0 899.0Q2246 897 2265.5 889.5Q2285 882 2297.5 867.0Q2310 852 2310 825Q2310 805 2301.0 792.0Q2292 779 2276.0 770.5Q2260 762 2237 758Q2190 748 2136.5 739.0Q2083 730 2042 705Q2028 696 2016.5 684.5Q2005 673 1997.0 658.5Q1989 644 1984.5 626.5Q1980 609 1980 588Q1980 549 1995.5 520.5Q2011 492 2039.0 473.5Q2067 455 2103.5 446.0Q2140 437 2182 437Q2234 437 2275.5 453.5Q2317 470 2344.0 501.5Q2371 533 2376 579H2297Q2290 550 2259.0 531.5Q2228 513 2180 513Q2164 513 2144.0 515.5Q2124 518 2106.0 525.5Q2088 533 2076.0 547.5Q2064 562 2064 586Q2064 608 2075.5 623.0Q2087 638 2108.0 647.0Q2129 656 2156 662Q2191 669 2233.0 676.5Q2275 684 2299 692Q2331 702 2352.5 720.0Q2374 738 2384.5 763.0Q2395 788 2395 821Q2395 868 2376.5 898.0Q2358 928 2327.0 945.0Q2296 962 2258.5 969.0Q2221 976 2184 976ZM2705 970Q2645 970 2608.5 952.0Q2572 934 2555.5 896.0Q2539 858 2539 800V518H2453V443H2539V286H2624V443H2765V518H2624V791Q2624 845 2643.5 870.5Q2663 896 2723 896H2762V970Z" fill="currentColor" /></svg>