<svg viewBox="0 0 4176 1225" xmlns="http://www.w3.org/2000/svg"><path d="M335 943Q273 943 217.5 919.0Q162 895 127.0 846.5Q92 798 92 725Q92 687 109.0 636.5Q126 586 152.0 536.5Q178 487 206 452Q237 413 279.5 378.0Q322 343 370.0 316.0Q418 289 467.0 273.5Q516 258 560 258Q614 258 664.5 279.0Q715 300 755.0 337.0Q795 374 818.5 422.5Q842 471 842 525Q842 577 819.0 628.0Q796 679 758.5 724.5Q721 770 675 808Q602 868 513.5 905.5Q425 943 336 943ZM329 910Q414 910 496.5 874.5Q579 839 646 784Q690 748 726.0 704.5Q762 661 784.0 613.5Q806 566 806 520Q806 475 785.5 434.0Q765 393 730.5 361.0Q696 329 652.0 310.5Q608 292 561 292Q519 292 472.5 307.0Q426 322 381.0 347.5Q336 373 296.5 406.5Q257 440 229 476Q203 510 179.0 557.0Q155 604 140.5 651.0Q126 698 126 733Q126 789 152.5 828.5Q179 868 225.0 889.0Q271 910 329 910ZM962 895Q881 895 881 804Q881 762 901.0 716.0Q921 670 954.0 630.5Q987 591 1027.5 566.0Q1068 541 1110 541Q1147 541 1164.0 569.0Q1181 597 1181 631Q1181 676 1163.0 722.5Q1145 769 1114.0 808.0Q1083 847 1044.0 871.0Q1005 895 962 895ZM961 863Q967 863 968 862Q1007 857 1040.0 834.0Q1073 811 1097.5 776.5Q1122 742 1135.0 702.0Q1148 662 1148 623Q1148 600 1135.0 587.0Q1122 574 1102 574Q1073 574 1040.5 598.0Q1008 622 979.5 659.0Q951 696 933.0 736.5Q915 777 915 809Q915 863 961 863ZM1295 895Q1214 895 1214 804Q1214 762 1234.0 716.0Q1254 670 1287.0 630.5Q1320 591 1360.5 566.0Q1401 541 1443 541Q1480 541 1497.0 569.0Q1514 597 1514 631Q1514 676 1496.0 722.5Q1478 769 1447.0 808.0Q1416 847 1377.0 871.0Q1338 895 1295 895ZM1294 863Q1300 863 1301 862Q1340 857 1373.0 834.0Q1406 811 1430.5 776.5Q1455 742 1468.0 702.0Q1481 662 1481 623Q1481 600 1468.0 587.0Q1455 574 1435 574Q1406 574 1373.5 598.0Q1341 622 1312.5 659.0Q1284 696 1266.0 736.5Q1248 777 1248 809Q1248 863 1294 863ZM1535 918Q1519 918 1519 902Q1519 881 1534.0 835.5Q1549 790 1573.5 730.5Q1598 671 1626 608Q1642 573 1659.0 539.5Q1676 506 1691 481Q1839 231 1875 231Q1889 231 1889 245Q1889 254 1875.5 278.5Q1862 303 1840.5 335.5Q1819 368 1794.5 401.0Q1770 434 1748.5 461.5Q1727 489 1714 503Q1703 516 1689.5 541.0Q1676 566 1663.0 592.5Q1650 619 1642 639L1604 733Q1619 713 1643 688Q1700 625 1761.5 592.5Q1823 560 1865 560Q1888 560 1902.0 574.0Q1916 588 1916 608Q1916 647 1865 739Q1814 830 1814 851Q1814 862 1826 862Q1854 862 1887.0 841.5Q1920 821 1955.0 789.0Q1990 757 2023 725Q2027 721 2035 721Q2050 721 2050 733Q2050 744 2036 758Q1969 825 1921.0 858.0Q1873 891 1820 891Q1780 891 1780 854Q1780 840 1785.0 827.0Q1790 814 1801 792L1847 701Q1864 667 1872.0 644.0Q1880 621 1880 609Q1880 592 1859 592Q1822 592 1772.5 621.5Q1723 651 1667 710Q1635 744 1609.5 782.0Q1584 820 1569 864L1557 899Q1550 918 1535 918ZM2248 974Q2232 974 2232 958Q2232 947 2239 926Q2222 926 2222 911Q2222 893 2251 895Q2288 805 2434 557Q2472 492 2513.0 425.0Q2554 358 2597 291Q2462 327 2471 327Q2455 327 2455 310Q2455 301 2466 296Q2483 288 2522.0 276.5Q2561 265 2622 250Q2631 236 2638.5 224.0Q2646 212 2653 203Q2674 175 2683 175Q2699 175 2699 189Q2699 195 2688.0 211.0Q2677 227 2667 244Q2691 240 2727.0 233.5Q2763 227 2816 227Q3015 227 3015 318Q3015 355 2991.0 386.5Q2967 418 2926.5 444.0Q2886 470 2837.0 490.5Q2788 511 2738 526Q2886 560 2886 665Q2886 720 2853.5 764.0Q2821 808 2768.0 840.0Q2715 872 2651 892Q2521 932 2348 932Q2312 932 2274 929Q2264 950 2264 958Q2264 974 2248 974ZM2355 900Q2511 900 2634 864Q2691 847 2741.5 818.0Q2792 789 2823.5 749.5Q2855 710 2855 664Q2855 601 2770 568Q2706 544 2630 544Q2604 544 2580 547Q2553 554 2550 554Q2535 554 2535 537Q2535 523 2551 523Q2653 523 2784 477Q2832 460 2877.5 436.5Q2923 413 2952.5 383.5Q2982 354 2982 321Q2982 261 2816 261Q2777 261 2734.5 266.0Q2692 271 2645 281Q2526 465 2436.0 619.0Q2346 773 2287 898Q2295 899 2307.0 899.5Q2319 900 2355 900ZM3014 910Q2956 910 2956 855Q2956 819 2973.5 777.5Q2991 736 3021.0 696.5Q3051 657 3088.0 624.5Q3125 592 3164.0 572.5Q3203 553 3239 553Q3303 553 3303 616Q3303 657 3283 657Q3265 657 3265 640Q3265 633 3268.5 625.5Q3272 618 3272 609Q3272 581 3234 581Q3173 581 3081 674Q3059 697 3038.0 728.0Q3017 759 3003.5 790.5Q2990 822 2990 850Q2990 877 3020 877Q3046 877 3075.5 861.0Q3105 845 3127 828Q3171 795 3217 738Q3224 730 3235.0 717.0Q3246 704 3260 688Q3265 683 3272 683Q3288 683 3288 699L3250 756Q3212 812 3212 848Q3212 874 3237 874Q3258 874 3283.0 863.0Q3308 852 3324 841Q3356 820 3391.0 788.5Q3426 757 3458 725Q3462 721 3470 721Q3485 721 3485 733Q3485 744 3471 758Q3431 798 3399.0 826.5Q3367 855 3338 873Q3319 884 3291.0 896.0Q3263 908 3227 908Q3178 908 3178 856Q3178 836 3183 823Q3092 910 3014 910ZM3491 959Q3463 959 3444.5 942.0Q3426 925 3426 898Q3426 888 3427 885Q3413 917 3401 917Q3385 917 3385 898L3463 694Q3481 646 3504.0 594.5Q3527 543 3550.5 495.5Q3574 448 3594.5 409.5Q3615 371 3628 348Q3660 293 3689.5 262.5Q3719 232 3736 232Q3755 232 3755 253Q3755 265 3743 265Q3717 265 3654 374Q3634 408 3616.5 441.5Q3599 475 3583 508Q3561 555 3537.0 609.0Q3513 663 3487 723Q3520 675 3560 635Q3595 600 3632.5 578.5Q3670 557 3707 557Q3748 557 3772.0 574.0Q3796 591 3796 638Q3796 677 3773.5 721.0Q3751 765 3715.5 807.0Q3680 849 3638.5 883.5Q3597 918 3558.0 938.5Q3519 959 3491 959ZM3488 926Q3518 926 3554.0 905.5Q3590 885 3626.0 852.0Q3662 819 3692.0 780.5Q3722 742 3740.0 704.5Q3758 667 3758 638Q3758 593 3713 593Q3673 593 3635.0 617.0Q3597 641 3561.5 681.0Q3526 721 3495.0 769.0Q3464 817 3438 866Q3447 857 3455 857Q3469 857 3469 870Q3469 876 3464 883Q3462 886 3460.0 890.0Q3458 894 3458 902Q3458 926 3488 926ZM3802 1231Q3741 1231 3741 1159Q3741 1098 3767 1041Q3771 1031 3780 1031Q3798 1031 3798 1047Q3798 1051 3795.5 1057.5Q3793 1064 3790 1072Q3783 1091 3779.0 1112.0Q3775 1133 3775 1156Q3775 1182 3782.0 1191.0Q3789 1200 3800 1200Q3826 1200 3861.5 1176.0Q3897 1152 3935 1100Q3962 1063 3991.0 1012.0Q4020 961 4053 895Q4097 808 4134 718Q4109 750 4082.0 780.0Q4055 810 4024 836Q3941 907 3886 907Q3820 907 3820 831Q3820 804 3830.5 766.0Q3841 728 3860 679Q3863 671 3863.0 665.5Q3863 660 3866 654Q3882 619 3919 576Q3927 567 3933 567Q3948 567 3948 589Q3851 732 3851 831Q3851 873 3884 873Q3921 873 3987 822Q4034 786 4074.0 740.5Q4114 695 4146 646Q4168 613 4181.5 587.5Q4195 562 4198 553Q4203 538 4212 538Q4231 538 4231 554Q4231 562 4223.5 582.5Q4216 603 4205 631Q4189 672 4159.0 741.0Q4129 810 4084 905Q4028 1023 3974 1098Q3934 1155 3886.5 1193.0Q3839 1231 3802 1231Z" fill="currentColor" /></svg>