<svg viewBox="0 0 5290 730" xmlns="http://www.w3.org/2000/svg"><path d="M470 365Q470 457 449.5 525.5Q429 594 395.5 639.5Q362 685 320.0 707.5Q278 730 235 730Q192 730 150.0 707.5Q108 685 74.5 639.5Q41 594 20.5 525.5Q0 457 0 365Q0 273 20.5 204.5Q41 136 74.5 90.5Q108 45 150.0 22.5Q192 0 235 0Q278 0 320.0 22.5Q362 45 395.5 90.5Q429 136 449.5 204.5Q470 273 470 365ZM375 365Q375 262 362.5 194.5Q350 127 329.5 87.0Q309 47 284.0 31.0Q259 15 235 15Q211 15 186.0 31.0Q161 47 140.5 87.0Q120 127 107.5 194.5Q95 262 95 365Q95 468 107.5 535.5Q120 603 140.5 643.0Q161 683 186.0 699.0Q211 715 235 715Q259 715 284.0 699.0Q309 683 329.5 643.0Q350 603 362.5 535.5Q375 468 375 365ZM685 690 745 705V715H545V705L605 690V280L545 265V255H685V375Q698 338 716 308Q732 282 755.0 261.0Q778 240 810 240Q821 240 831.0 241.5Q841 243 849 245Q858 248 865 250L835 325Q829 322 822 318Q816 315 807.5 312.5Q799 310 790 310Q764 310 744.0 324.0Q724 338 711 355Q695 375 685 400ZM1170 470Q1083 470 1041.5 508.5Q1000 547 1000 615Q1000 660 1022.0 685.0Q1044 710 1070 710Q1094 710 1112.5 696.0Q1131 682 1144 665Q1159 646 1170 620ZM1095 255Q1065 255 1045.0 275.5Q1025 296 1025 330Q1025 338 1025.5 344.0Q1026 350 1027 355Q1028 360 1030 365L950 385Q948 382 947 377Q946 372 945.5 366.0Q945 360 945 350Q945 329 955.0 309.5Q965 290 984.5 274.5Q1004 259 1031.5 249.5Q1059 240 1095 240Q1167 240 1208.5 281.0Q1250 322 1250 390V690L1310 705V715H1170V655Q1159 676 1142 693Q1128 707 1106.5 718.5Q1085 730 1055 730Q983 730 946.5 696.0Q910 662 910 605Q910 577 925.5 549.0Q941 521 972.5 499.0Q1004 477 1053.0 463.5Q1102 450 1170 450V390Q1170 315 1147.5 285.0Q1125 255 1095 255ZM1430 690V280L1370 265V255H1510V315Q1520 295 1537 278Q1551 264 1573.0 252.0Q1595 240 1625 240Q1655 240 1680.5 251.0Q1706 262 1725.0 281.5Q1744 301 1754.5 328.5Q1765 356 1765 390V690L1825 705V715H1630V705L1685 690V390Q1685 319 1662.5 289.5Q1640 260 1610 260Q1585 260 1567.0 274.0Q1549 288 1536 305Q1521 325 1510 350V690L1565 705V715H1370V705ZM1945 690V280L1885 265V255H2025V690L2085 705V715H1885V705ZM2030 140Q2030 159 2014.5 174.5Q1999 190 1980 190Q1961 190 1945.5 174.5Q1930 159 1930 140Q1930 121 1945.5 105.5Q1961 90 1980 90Q1999 90 2014.5 105.5Q2030 121 2030 140ZM2245 485Q2245 549 2254.5 592.0Q2264 635 2279.5 661.5Q2295 688 2314.5 699.0Q2334 710 2355 710Q2381 710 2404.0 700.0Q2427 690 2445.0 673.0Q2463 656 2474.5 632.0Q2486 608 2490 580H2505Q2501 612 2487.5 639.5Q2474 667 2453.0 687.0Q2432 707 2404.5 718.5Q2377 730 2345 730Q2307 730 2273.0 713.5Q2239 697 2212.5 665.5Q2186 634 2170.5 588.5Q2155 543 2155 485Q2155 425 2170.0 379.0Q2185 333 2209.5 302.5Q2234 272 2266.5 256.0Q2299 240 2335 240Q2371 240 2403.5 256.0Q2436 272 2460.5 302.5Q2485 333 2500.0 379.0Q2515 425 2515 485ZM2335 255Q2320 255 2305.0 264.5Q2290 274 2277.0 298.0Q2264 322 2255.5 362.5Q2247 403 2245 465H2425Q2423 403 2414.5 362.5Q2406 322 2393.0 298.0Q2380 274 2365.0 264.5Q2350 255 2335 255ZM2650 690V280L2590 265V255H2730V315Q2740 295 2757 278Q2771 264 2793.0 252.0Q2815 240 2845 240Q2875 240 2900.5 251.0Q2926 262 2945.0 281.5Q2964 301 2974.5 328.5Q2985 356 2985 390V690L3045 705V715H2850V705L2905 690V390Q2905 319 2882.5 289.5Q2860 260 2830 260Q2805 260 2787.0 274.0Q2769 288 2756 305Q2741 325 2730 350V690L2785 705V715H2590V705ZM3330 260Q3307 260 3290.0 269.5Q3273 279 3262 290Q3249 303 3240 320V620Q3251 646 3266 665Q3279 682 3297.0 696.0Q3315 710 3340 710Q3357 710 3374.5 699.0Q3392 688 3406.5 661.5Q3421 635 3430.5 592.0Q3440 549 3440 485Q3440 421 3430.5 378.0Q3421 335 3405.5 309.0Q3390 283 3370.5 271.5Q3351 260 3330 260ZM3345 240Q3381 240 3414.0 256.5Q3447 273 3473.0 304.5Q3499 336 3514.5 381.5Q3530 427 3530 485Q3530 543 3514.5 588.5Q3499 634 3474.5 665.5Q3450 697 3418.5 713.5Q3387 730 3355 730Q3325 730 3303.0 718.5Q3281 707 3267 693Q3250 676 3240 655V715H3100V705L3160 690V40L3100 25V15H3240V290Q3249 276 3264 265Q3277 256 3296.5 248.0Q3316 240 3345 240ZM3875 470Q3788 470 3746.5 508.5Q3705 547 3705 615Q3705 660 3727.0 685.0Q3749 710 3775 710Q3799 710 3817.5 696.0Q3836 682 3849 665Q3864 646 3875 620ZM3800 255Q3770 255 3750.0 275.5Q3730 296 3730 330Q3730 338 3730.5 344.0Q3731 350 3732 355Q3733 360 3735 365L3655 385Q3653 382 3652 377Q3651 372 3650.5 366.0Q3650 360 3650 350Q3650 329 3660.0 309.5Q3670 290 3689.5 274.5Q3709 259 3736.5 249.5Q3764 240 3800 240Q3872 240 3913.5 281.0Q3955 322 3955 390V690L4015 705V715H3875V655Q3864 676 3847 693Q3833 707 3811.5 718.5Q3790 730 3760 730Q3688 730 3651.5 696.0Q3615 662 3615 605Q3615 577 3630.5 549.0Q3646 521 3677.5 499.0Q3709 477 3758.0 463.5Q3807 450 3875 450V390Q3875 315 3852.5 285.0Q3830 255 3800 255ZM4450 280V690L4510 705V715H4370V655Q4359 676 4342 693Q4328 707 4306.5 718.5Q4285 730 4255 730Q4225 730 4199.5 719.0Q4174 708 4155.0 688.5Q4136 669 4125.5 641.5Q4115 614 4115 580V280L4055 265V255H4250V265L4195 280V580Q4195 651 4217.5 680.5Q4240 710 4270 710Q4294 710 4312.5 696.0Q4331 682 4344 665Q4359 646 4370 620V280L4315 265V255H4510V265ZM4640 690V280L4580 265V255H4720V315Q4730 295 4747 278Q4761 264 4783.0 252.0Q4805 240 4835 240Q4873 240 4897.5 254.0Q4922 268 4937 285Q4955 305 4965 330Q4978 305 4996 285Q5012 268 5035.0 254.0Q5058 240 5090 240Q5120 240 5145.5 251.0Q5171 262 5190.0 281.5Q5209 301 5219.5 328.5Q5230 356 5230 390V690L5290 705V715H5095V705L5150 690V390Q5150 319 5127.5 289.5Q5105 260 5075 260Q5050 260 5032.0 274.0Q5014 288 5001 305Q4986 325 4975 350V690L5030 705V715H4840V705L4895 690V390Q4895 319 4872.5 289.5Q4850 260 4820 260Q4795 260 4777.0 274.0Q4759 288 4746 305Q4731 325 4720 350V690L4775 705V715H4580V705Z" fill="currentColor" /></svg>