<svg viewBox="0 0 14187 2562" xmlns="http://www.w3.org/2000/svg"><path d="M1690 1315Q1690 1430 1661.0 1532.5Q1632 1635 1579.0 1722.0Q1526 1809 1452.0 1878.0Q1378 1947 1288.0 1995.0Q1198 2043 1095.0 2069.0Q992 2095 881 2095Q708 2095 562.5 2039.5Q417 1984 311.5 1882.0Q206 1780 147.0 1636.0Q88 1492 88 1315Q88 1202 116.0 1100.0Q144 998 195.0 911.5Q246 825 318.0 755.0Q390 685 478.5 636.5Q567 588 668.5 561.5Q770 535 881 535Q992 535 1095.5 560.5Q1199 586 1289.0 634.0Q1379 682 1453.0 751.0Q1527 820 1579.5 907.0Q1632 994 1661.0 1096.5Q1690 1199 1690 1315ZM1415 1315Q1415 1236 1401.5 1154.5Q1388 1073 1360.0 997.5Q1332 922 1289.5 855.5Q1247 789 1188.5 739.5Q1130 690 1056.0 661.5Q982 633 891 633Q800 633 726.0 662.0Q652 691 594.0 740.5Q536 790 493.0 856.5Q450 923 422.0 999.0Q394 1075 380.5 1156.0Q367 1237 367 1315Q367 1398 379.0 1481.0Q391 1564 417.0 1639.5Q443 1715 484.5 1780.5Q526 1846 584.0 1894.0Q642 1942 718.5 1969.5Q795 1997 891 1997Q984 1997 1059.0 1969.0Q1134 1941 1192.5 1892.0Q1251 1843 1293.0 1777.5Q1335 1712 1362.0 1636.0Q1389 1560 1402.0 1478.0Q1415 1396 1415 1315ZM2159 1061 2145 1323Q2171 1275 2206.0 1228.5Q2241 1182 2282.5 1141.5Q2324 1101 2370.5 1067.5Q2417 1034 2466 1012V1346Q2445 1323 2418.0 1313.0Q2391 1303 2360 1303Q2314 1303 2278.0 1318.0Q2242 1333 2215.0 1358.5Q2188 1384 2169.0 1418.5Q2150 1453 2137 1491L2108 2030L1932 2042L1874 1078ZM2949 856Q2949 892 2935.5 924.0Q2922 956 2898.0 980.0Q2874 1004 2842.0 1018.0Q2810 1032 2773 1032Q2736 1032 2703.5 1018.0Q2671 1004 2647.0 980.0Q2623 956 2609.0 924.0Q2595 892 2595 856Q2595 819 2609.0 786.5Q2623 754 2647.0 730.0Q2671 706 2703.5 692.0Q2736 678 2773 678Q2810 678 2842.0 692.0Q2874 706 2898.0 730.0Q2922 754 2935.5 786.5Q2949 819 2949 856ZM2915 1133 2839 2095 2646 2075 2634 1118ZM3642 1966Q3718 1966 3772.0 1938.0Q3826 1910 3859.5 1863.5Q3893 1817 3907.0 1756.5Q3921 1696 3918 1630L3906 1403Q3906 1360 3883.0 1319.0Q3860 1278 3824.0 1245.5Q3788 1213 3743.0 1193.5Q3698 1174 3654 1174Q3574 1174 3514.0 1207.0Q3454 1240 3414.5 1293.5Q3375 1347 3355.0 1415.5Q3335 1484 3335 1555Q3335 1624 3352.5 1697.0Q3370 1770 3407.0 1829.5Q3444 1889 3502.5 1927.5Q3561 1966 3642 1966ZM3541 2544Q3454 2544 3393.5 2510.5Q3333 2477 3292.0 2422.0Q3251 2367 3228.0 2296.0Q3205 2225 3193 2149L3468 2130Q3463 2158 3460.5 2185.5Q3458 2213 3458 2241Q3458 2281 3466.0 2322.0Q3474 2363 3493.5 2396.5Q3513 2430 3544.5 2451.0Q3576 2472 3623 2472Q3673 2472 3711.0 2445.0Q3749 2418 3777.0 2374.0Q3805 2330 3823.5 2273.0Q3842 2216 3854.0 2156.0Q3866 2096 3872.0 2037.5Q3878 1979 3881 1932Q3818 1998 3734.5 2033.5Q3651 2069 3548 2069Q3445 2069 3359.5 2027.5Q3274 1986 3213.0 1916.5Q3152 1847 3118.5 1756.0Q3085 1665 3085 1567Q3085 1470 3118.0 1381.0Q3151 1292 3211.0 1223.5Q3271 1155 3354.5 1114.0Q3438 1073 3539 1073Q3578 1073 3619.5 1079.0Q3661 1085 3700.5 1097.5Q3740 1110 3777.0 1129.0Q3814 1148 3845 1174L3836 1078L4088 1055Q4099 1182 4104.0 1307.0Q4109 1432 4109 1557Q4109 1631 4107.0 1712.5Q4105 1794 4096.5 1877.0Q4088 1960 4072.0 2042.0Q4056 2124 4028.0 2198.0Q4000 2272 3958.5 2335.5Q3917 2399 3858.0 2445.0Q3799 2491 3720.5 2517.5Q3642 2544 3541 2544ZM4670 856Q4670 892 4656.5 924.0Q4643 956 4619.0 980.0Q4595 1004 4563.0 1018.0Q4531 1032 4494 1032Q4457 1032 4424.5 1018.0Q4392 1004 4368.0 980.0Q4344 956 4330.0 924.0Q4316 892 4316 856Q4316 819 4330.0 786.5Q4344 754 4368.0 730.0Q4392 706 4424.5 692.0Q4457 678 4494 678Q4531 678 4563.0 692.0Q4595 706 4619.0 730.0Q4643 754 4656.5 786.5Q4670 819 4670 856ZM4636 1133 4560 2095 4367 2075 4355 1118ZM5115 1078 5105 1260Q5132 1211 5168.5 1168.5Q5205 1126 5250.5 1096.5Q5296 1067 5349.5 1053.0Q5403 1039 5463 1047Q5558 1061 5624.0 1105.0Q5690 1149 5730.5 1217.0Q5771 1285 5789.0 1375.0Q5807 1465 5807 1571Q5807 1630 5797.0 1695.0Q5787 1760 5770.0 1824.5Q5753 1889 5731.5 1951.0Q5710 2013 5688 2067L5441 2042Q5443 2041 5454.0 2018.0Q5465 1995 5480.0 1956.0Q5495 1917 5511.5 1864.5Q5528 1812 5542.5 1751.0Q5557 1690 5566.5 1622.5Q5576 1555 5576 1487Q5576 1412 5563.0 1354.0Q5550 1296 5522.5 1256.0Q5495 1216 5452.0 1195.0Q5409 1174 5348 1174Q5295 1174 5254.0 1202.5Q5213 1231 5182.0 1276.0Q5151 1321 5129.0 1377.5Q5107 1434 5092 1491L5066 2030L4880 2046L4841 1100ZM6659 2024 6684 1919Q6649 1950 6606.5 1975.0Q6564 2000 6519.0 2017.5Q6474 2035 6429.5 2044.5Q6385 2054 6348 2054Q6283 2054 6214.0 2035.0Q6145 2016 6089.0 1978.0Q6033 1940 5997.0 1883.0Q5961 1826 5961 1751Q5961 1653 5995.0 1581.0Q6029 1509 6087.5 1462.0Q6146 1415 6225.0 1392.5Q6304 1370 6395 1370Q6438 1370 6483.0 1377.0Q6528 1384 6571.0 1398.0Q6614 1412 6653.0 1435.0Q6692 1458 6723 1489Q6720 1435 6708.5 1375.0Q6697 1315 6672.5 1265.5Q6648 1216 6607.0 1183.5Q6566 1151 6503 1151Q6411 1151 6347.5 1198.5Q6284 1246 6260 1336L6000 1309Q6024 1247 6068.0 1199.5Q6112 1152 6167.5 1120.0Q6223 1088 6286.0 1071.5Q6349 1055 6413 1055Q6511 1055 6588.5 1083.0Q6666 1111 6725.0 1160.0Q6784 1209 6825.0 1275.5Q6866 1342 6892.0 1418.5Q6918 1495 6930.0 1578.5Q6942 1662 6942 1745Q6942 1819 6934.0 1891.5Q6926 1964 6911 2036ZM6712 1741Q6715 1718 6716.5 1696.0Q6718 1674 6720 1651Q6715 1604 6687.0 1567.5Q6659 1531 6619.0 1505.5Q6579 1480 6532.0 1467.0Q6485 1454 6440 1454Q6388 1454 6343.0 1471.5Q6298 1489 6265.0 1521.0Q6232 1553 6213.0 1597.0Q6194 1641 6194 1694Q6194 1748 6210.5 1792.5Q6227 1837 6257.0 1869.5Q6287 1902 6330.5 1920.0Q6374 1938 6428 1938Q6476 1938 6522.0 1924.0Q6568 1910 6606.5 1884.5Q6645 1859 6672.5 1822.5Q6700 1786 6712 1741ZM7415 434 7366 2040 7175 2056 7126 461ZM8848 2106Q8731 2106 8629.0 2077.0Q8527 2048 8443.0 1990.0Q8359 1932 8294.5 1845.0Q8230 1758 8189 1643L8535 1624Q8543 1808 8640.0 1904.5Q8737 2001 8914 2001Q8983 2001 9052.0 1987.0Q9121 1973 9175.5 1939.5Q9230 1906 9264.5 1851.0Q9299 1796 9299 1714Q9299 1657 9277.0 1616.5Q9255 1576 9218.5 1549.0Q9182 1522 9134.5 1505.5Q9087 1489 9036.5 1479.5Q8986 1470 8936.0 1465.0Q8886 1460 8844 1456Q8776 1451 8702.0 1440.0Q8628 1429 8556.5 1409.0Q8485 1389 8420.0 1358.0Q8355 1327 8306.0 1279.5Q8257 1232 8228.0 1167.0Q8199 1102 8199 1014Q8199 930 8227.0 862.0Q8255 794 8303.5 741.5Q8352 689 8415.5 650.5Q8479 612 8550.5 587.5Q8622 563 8697.0 551.0Q8772 539 8842 539Q8913 539 8991.5 548.0Q9070 557 9148.0 578.0Q9226 599 9298.5 632.5Q9371 666 9429.5 715.0Q9488 764 9527.0 829.5Q9566 895 9578 979L9244 1047Q9250 1010 9250 971Q9250 880 9213.0 817.0Q9176 754 9115.0 715.5Q9054 677 8977.0 660.0Q8900 643 8820 643Q8749 643 8679.5 661.5Q8610 680 8554.5 717.0Q8499 754 8465.0 810.0Q8431 866 8431 942Q8431 994 8459.0 1032.0Q8487 1070 8532.5 1097.5Q8578 1125 8635.0 1143.0Q8692 1161 8749.5 1172.5Q8807 1184 8859.0 1190.5Q8911 1197 8947 1200Q9011 1207 9081.0 1219.5Q9151 1232 9219.0 1254.0Q9287 1276 9349.0 1309.0Q9411 1342 9457.5 1389.0Q9504 1436 9531.5 1499.0Q9559 1562 9559 1643Q9559 1729 9525.0 1796.5Q9491 1864 9434.5 1915.5Q9378 1967 9305.0 2003.5Q9232 2040 9153.0 2062.5Q9074 2085 8995.0 2095.5Q8916 2106 8848 2106ZM10742 1112 10682 2038 10506 2054 10496 1829Q10473 1885 10439.0 1932.0Q10405 1979 10360.5 2013.0Q10316 2047 10261.0 2066.0Q10206 2085 10142 2085Q10042 2085 9965.5 2045.5Q9889 2006 9837.5 1936.0Q9786 1866 9760.0 1769.5Q9734 1673 9734 1559Q9734 1436 9752.0 1344.5Q9770 1253 9793 1190Q9819 1117 9853 1065L10139 1090Q10090 1149 10052 1231Q10019 1301 9992.0 1405.0Q9965 1509 9965 1645Q9965 1727 9984.0 1786.0Q10003 1845 10038.0 1883.5Q10073 1922 10122.5 1940.0Q10172 1958 10234 1958Q10287 1958 10328.0 1929.0Q10369 1900 10400.0 1854.0Q10431 1808 10452.5 1750.0Q10474 1692 10488 1635L10467 1096ZM11233 1061 11219 1323Q11245 1275 11280.0 1228.5Q11315 1182 11356.5 1141.5Q11398 1101 11444.5 1067.5Q11491 1034 11540 1012V1346Q11519 1323 11492.0 1313.0Q11465 1303 11434 1303Q11388 1303 11352.0 1318.0Q11316 1333 11289.0 1358.5Q11262 1384 11243.0 1418.5Q11224 1453 11211 1491L11182 2030L11006 2042L10948 1078ZM12304 1270H11966Q11970 1358 11983.0 1458.5Q11996 1559 12014.0 1659.5Q12032 1760 12053.5 1854.0Q12075 1948 12097 2022L11855 2087Q11829 2008 11808.5 1912.5Q11788 1817 11774.0 1717.0Q11760 1617 11752.5 1518.5Q11745 1420 11745 1336Q11745 1322 11745.0 1304.5Q11745 1287 11747 1270H11608V1196H11751Q11758 1130 11772.5 1057.0Q11787 984 11810.5 913.5Q11834 843 11867.5 779.5Q11901 716 11947.0 668.0Q11993 620 12052.0 591.5Q12111 563 12185 563Q12249 563 12309.5 577.5Q12370 592 12424.0 623.5Q12478 655 12525.0 706.0Q12572 757 12609 830L12347 944Q12345 918 12341.0 884.5Q12337 851 12328.5 816.5Q12320 782 12306.5 748.5Q12293 715 12273.5 689.0Q12254 663 12227.0 647.0Q12200 631 12165 631Q12121 631 12089.5 664.0Q12058 697 12035.5 748.5Q12013 800 11999.0 863.5Q11985 927 11977.5 988.0Q11970 1049 11967.0 1101.0Q11964 1153 11964 1182V1196H12304ZM12945 1755Q12866 1755 12788.5 1734.5Q12711 1714 12648 1669Q12649 1708 12653.0 1749.0Q12657 1790 12666.5 1828.5Q12676 1867 12691.5 1901.0Q12707 1935 12731.5 1960.5Q12756 1986 12790.5 2001.0Q12825 2016 12873 2016Q12918 2016 12957.0 1999.5Q12996 1983 13025.5 1955.0Q13055 1927 13074.0 1889.0Q13093 1851 13100 1807L13346 1862Q13317 1924 13264.5 1967.0Q13212 2010 13148.0 2036.5Q13084 2063 13014.5 2075.0Q12945 2087 12881 2087Q12766 2087 12676.0 2053.0Q12586 2019 12524.5 1955.0Q12463 1891 12430.5 1799.5Q12398 1708 12398 1594Q12398 1483 12436.0 1384.5Q12474 1286 12542.0 1213.0Q12610 1140 12705.5 1097.5Q12801 1055 12916 1055Q13000 1055 13083.0 1075.5Q13166 1096 13232.0 1139.5Q13298 1183 13338.5 1251.0Q13379 1319 13379 1415Q13379 1509 13341.5 1573.5Q13304 1638 13243.0 1678.5Q13182 1719 13104.0 1737.0Q13026 1755 12945 1755ZM12902 1129Q12856 1129 12820.5 1147.5Q12785 1166 12757.5 1198.0Q12730 1230 12711.0 1271.0Q12692 1312 12679.0 1357.0Q12666 1402 12659.0 1448.0Q12652 1494 12650 1534Q12688 1599 12751.0 1640.5Q12814 1682 12897 1682Q12950 1682 12992.0 1657.5Q13034 1633 13063.0 1594.0Q13092 1555 13107.5 1507.0Q13123 1459 13123 1411Q13123 1363 13109.0 1312.5Q13095 1262 13067.5 1221.5Q13040 1181 12998.5 1155.0Q12957 1129 12902 1129ZM13837 1061 13823 1323Q13849 1275 13884.0 1228.5Q13919 1182 13960.5 1141.5Q14002 1101 14048.5 1067.5Q14095 1034 14144 1012V1346Q14123 1323 14096.0 1313.0Q14069 1303 14038 1303Q13992 1303 13956.0 1318.0Q13920 1333 13893.0 1358.5Q13866 1384 13847.0 1418.5Q13828 1453 13815 1491L13786 2030L13610 2042L13552 1078Z" fill="currentColor" /></svg>