<svg viewBox="0 0 8404 2532" xmlns="http://www.w3.org/2000/svg"><path d="M730 1790Q565 1790 451.0 1726.5Q337 1663 268.0 1557.5Q199 1452 167.5 1324.0Q136 1196 136 1066Q136 936 167.5 808.0Q199 680 268.0 574.5Q337 469 451.0 405.5Q565 342 730 342Q896 342 1010.0 405.5Q1124 469 1193.0 574.5Q1262 680 1293.0 808.0Q1324 936 1324 1066Q1324 1196 1293.0 1324.0Q1262 1452 1193.0 1557.5Q1124 1663 1010.0 1726.5Q896 1790 730 1790ZM730 1626Q846 1626 925.0 1575.0Q1004 1524 1052.5 1440.5Q1101 1357 1122.5 1258.5Q1144 1160 1144 1066Q1144 963 1122.5 863.5Q1101 764 1052.5 682.5Q1004 601 925.0 552.5Q846 504 730 504Q615 504 536.0 555.0Q457 606 408.5 689.5Q360 773 338.0 872.0Q316 971 316 1066Q316 1169 338.0 1268.5Q360 1368 408.5 1449.0Q457 1530 536.0 1578.0Q615 1626 730 1626ZM1879 1766 1505 744H1681L1923 1426Q1932 1451 1940.0 1475.0Q1948 1499 1955 1526Q1963 1499 1970.5 1475.0Q1978 1451 1987 1426L2225 744H2399L2025 1766ZM3014 1790Q2874 1790 2772.0 1721.0Q2670 1652 2615.0 1531.0Q2560 1410 2560 1254Q2560 1085 2617.0 965.5Q2674 846 2776.0 783.0Q2878 720 3014 720Q3129 720 3225.0 771.5Q3321 823 3378.5 930.5Q3436 1038 3436 1206Q3436 1230 3434.5 1261.5Q3433 1293 3430 1326H2738Q2748 1419 2784.0 1489.0Q2820 1559 2879.0 1598.5Q2938 1638 3018 1638Q3083 1638 3138.5 1615.0Q3194 1592 3242 1544L3344 1658Q3287 1715 3202.5 1752.5Q3118 1790 3014 1790ZM2736 1174H3260Q3260 1087 3231.5 1018.5Q3203 950 3148.0 911.0Q3093 872 3014 872Q2903 872 2823.5 944.0Q2744 1016 2736 1174ZM3716 1766V744H3890V878Q3925 800 3986.5 760.0Q4048 720 4132 720Q4225 720 4290 772L4264 936Q4231 913 4195.5 902.5Q4160 892 4118 892Q4049 892 3998.0 929.0Q3947 966 3918.5 1033.0Q3890 1100 3890 1190V1766ZM4484 2172V744H4658V830Q4768 720 4920 720Q5050 720 5144.5 785.0Q5239 850 5290.5 970.0Q5342 1090 5342 1254Q5342 1418 5290.0 1538.5Q5238 1659 5143.5 1724.5Q5049 1790 4920 1790Q4839 1790 4774.0 1760.5Q4709 1731 4658 1670V2090ZM4898 1628Q5027 1628 5095.5 1531.0Q5164 1434 5164 1254Q5164 1081 5092.0 980.5Q5020 880 4898 880Q4820 880 4758.0 916.0Q4696 952 4658 1018V1490Q4711 1559 4771.0 1593.5Q4831 1628 4898 1628ZM5938 1790Q5772 1790 5677.0 1698.0Q5582 1606 5582 1446Q5582 1343 5629.0 1267.0Q5676 1191 5762.0 1149.5Q5848 1108 5964 1108Q6039 1108 6104.5 1124.5Q6170 1141 6228 1174V1102Q6228 983 6174.0 927.5Q6120 872 6006 872Q5933 872 5854.5 899.0Q5776 926 5708 974L5658 828Q5735 777 5833.5 748.5Q5932 720 6028 720Q6210 720 6301.0 812.5Q6392 905 6392 1088V1766H6228V1672Q6168 1729 6093.0 1759.5Q6018 1790 5938 1790ZM5964 1638Q6035 1638 6104.5 1603.0Q6174 1568 6228 1504V1328Q6177 1296 6112.0 1278.0Q6047 1260 5988 1260Q5876 1260 5811.0 1310.5Q5746 1361 5746 1448Q5746 1536 5804.0 1587.0Q5862 1638 5964 1638ZM6996 1790Q6888 1790 6788.5 1743.5Q6689 1697 6626 1618L6750 1512Q6804 1570 6870.0 1602.0Q6936 1634 7000 1634Q7090 1634 7140.0 1599.5Q7190 1565 7190 1504Q7190 1464 7167.5 1432.0Q7145 1400 7093.5 1371.0Q7042 1342 6956 1310Q6787 1247 6713.5 1173.0Q6640 1099 6640 990Q6640 870 6735.5 795.0Q6831 720 6984 720Q7089 720 7177.0 759.5Q7265 799 7328 874L7208 974Q7116 876 6982 876Q6903 876 6857.5 906.5Q6812 937 6812 990Q6812 1041 6863.5 1079.5Q6915 1118 7050 1168Q7160 1208 7228.5 1255.0Q7297 1302 7328.5 1362.0Q7360 1422 7360 1500Q7360 1635 7263.0 1712.5Q7166 1790 6996 1790ZM7934 1790Q7826 1790 7726.5 1743.5Q7627 1697 7564 1618L7688 1512Q7742 1570 7808.0 1602.0Q7874 1634 7938 1634Q8028 1634 8078.0 1599.5Q8128 1565 8128 1504Q8128 1464 8105.5 1432.0Q8083 1400 8031.5 1371.0Q7980 1342 7894 1310Q7725 1247 7651.5 1173.0Q7578 1099 7578 990Q7578 870 7673.5 795.0Q7769 720 7922 720Q8027 720 8115.0 759.5Q8203 799 8266 874L8146 974Q8054 876 7920 876Q7841 876 7795.5 906.5Q7750 937 7750 990Q7750 1041 7801.5 1079.5Q7853 1118 7988 1168Q8098 1208 8166.5 1255.0Q8235 1302 8266.5 1362.0Q8298 1422 8298 1500Q8298 1635 8201.0 1712.5Q8104 1790 7934 1790Z" fill="currentColor" /></svg>