<svg viewBox="0 0 13258.0 1977.0" xmlns="http://www.w3.org/2000/svg"><path d="M654.0 236.5Q586 153.0 491.0 153.0Q396 153.0 328.0 236.5Q260 320.0 228.0 457.0Q196 594.0 196.0 770.0Q196 946.0 228.0 1083.0Q260 1220.0 328.0 1303.0Q396 1386.0 491.0 1386.0Q586 1386.0 654.0 1303.0Q722 1220.0 754.0 1083.0Q786 946.0 786.0 770.0Q786 594.0 754.0 457.0Q722 320.0 654.0 236.5ZM117 1308.0Q0 1091.0 0 769.0Q0 371.0 157 162.0Q212 88.0 297.5 44.0Q383 0.0 491.0 0.0Q599 0.0 685 44.0Q841 124.0 911.5 322.5Q982 521.0 982 769.0Q982 1091.0 865 1308.0Q806 1416.0 710.0 1478.5Q614 1541.0 491.0 1541.0Q368 1541.0 272.0 1478.5Q176 1416.0 117 1308.0ZM1264 419.0H1472L1733 841.0L1994 419.0H2183L1846 951.0L2195 1516.0H1993L1725 1079.0L1446 1516.0H1246L1606 956.0ZM2979 1308.0 3269 419.0H3468Q3164 1277.0 3109.0 1418.5Q3054 1560.0 3034.0 1611.0Q3014 1662.0 2989.0 1716.0Q2964 1770.0 2930.0 1814.5Q2896 1859.0 2865.5 1880.5Q2835 1902.0 2769.5 1920.5Q2704 1939.0 2526 1939.0L2505 1786.0Q2638 1786.0 2664.5 1780.0Q2691 1774.0 2715.0 1766.5Q2739 1759.0 2751.0 1748.5Q2763 1738.0 2781 1721.0Q2827 1676.0 2884 1492.0Q2602 844.0 2477 528.0L2434 419.0H2631ZM4452 1306.0Q4418 1392.0 4332.0 1454.0Q4246 1516.0 4140 1516.0Q3932 1516.0 3811.0 1354.5Q3690 1193.0 3690 960.0Q3690 648.0 3846 494.0Q3957 386.0 4149.0 386.0Q4341 386.0 4452 568.0L4458 419.0H4643Q4634 664.0 4634 1070.0V1364.0Q4634 1718.0 4480 1846.0Q4370 1939.0 4146 1964.0Q4036 1977.0 3886 1977.0L3871 1837.0Q4089 1837.0 4183.5 1811.0Q4278 1785.0 4321.0 1753.0Q4364 1721.0 4395 1670.0Q4452 1575.0 4452 1379.0ZM4041 550.0Q3946 593.0 3909.5 701.0Q3873 809.0 3873.0 917.5Q3873 1026.0 3882 1080.0Q3900 1197.0 3966.0 1275.5Q4032 1354.0 4153 1354.0Q4345 1354.0 4414 1182.0Q4452 1088.0 4452.0 987.5Q4452 887.0 4444.5 827.0Q4437 767.0 4417.0 709.5Q4397 652.0 4365.5 612.5Q4334 573.0 4282.0 549.5Q4230 526.0 4161.5 526.0Q4093 526.0 4041 550.0ZM5407 385.0Q5639 385.0 5747.0 544.0Q5855 703.0 5855 935.0V996.0H5160Q5166 1165.0 5244.5 1283.0Q5323 1401.0 5480 1401.0Q5585 1391.0 5773 1287.0L5833 1411.0Q5703 1541.0 5478 1541.0Q5317 1541.0 5202.0 1464.5Q5087 1388.0 5031.5 1258.5Q4976 1129.0 4976.0 966.0Q4976 803.0 5027.5 673.5Q5079 544.0 5181.5 464.5Q5284 385.0 5407 385.0ZM5681 863.0Q5661 526.0 5445 526.0Q5201 526.0 5166 863.0ZM6735 386.0Q7076 386.0 7076 818.0V1516.0H6894V840.0Q6894 724.0 6882.0 674.0Q6870 624.0 6846 592.0Q6795 526.0 6679 526.0Q6562 526.0 6481.0 594.0Q6400 662.0 6400 774.0V1516.0H6218V419.0H6385L6395 538.0Q6504 386.0 6735 386.0ZM8815 286.0V1516.0H8629V25.0H8884L9097 714.0L9310 25.0H9559V1516.0H9378V286.0L9201 870.0H8992ZM10321 1401.0Q10512 1401.0 10581 1211.0Q10618 1109.0 10618.0 1001.5Q10618 894.0 10610 834.0Q10592 698.0 10523.5 612.0Q10455 526.0 10321 526.0Q10135 526.0 10067 720.0Q10031 824.0 10031 938.0Q10031 1140.0 10094.0 1270.5Q10157 1401.0 10321 1401.0ZM10321 1541.0Q10203 1541.0 10111.0 1496.0Q10019 1451.0 9962 1372.0Q9847 1213.0 9847.0 958.0Q9847 703.0 9974.0 544.5Q10101 386.0 10331.5 386.0Q10562 386.0 10681.0 546.0Q10800 706.0 10800.0 964.0Q10800 1222.0 10671.0 1381.5Q10542 1541.0 10321 1541.0ZM11651 386.0Q11992 386.0 11992 818.0V1516.0H11810V840.0Q11810 724.0 11798.0 674.0Q11786 624.0 11762 592.0Q11711 526.0 11595 526.0Q11478 526.0 11397.0 594.0Q11316 662.0 11316 774.0V1516.0H11134V419.0H11301L11311 538.0Q11420 386.0 11651 386.0ZM12779 1401.0Q12970 1401.0 13039 1211.0Q13076 1109.0 13076.0 1001.5Q13076 894.0 13068 834.0Q13050 698.0 12981.5 612.0Q12913 526.0 12779 526.0Q12593 526.0 12525 720.0Q12489 824.0 12489 938.0Q12489 1140.0 12552.0 1270.5Q12615 1401.0 12779 1401.0ZM12779 1541.0Q12661 1541.0 12569.0 1496.0Q12477 1451.0 12420 1372.0Q12305 1213.0 12305.0 958.0Q12305 703.0 12432.0 544.5Q12559 386.0 12789.5 386.0Q13020 386.0 13139.0 546.0Q13258 706.0 13258.0 964.0Q13258 1222.0 13129.0 1381.5Q13000 1541.0 12779 1541.0Z" /></svg>