<svg viewBox="0 0 3193 1256" xmlns="http://www.w3.org/2000/svg"><path d="M405 669 362 910Q337 1049 226 1049Q165 1049 113.5 1013.0Q62 977 31.0 903.0Q0 829 0 721Q0 518 65.5 376.5Q131 235 241.5 164.5Q352 94 485 94Q579 94 644.5 127.0Q710 160 743.5 216.5Q777 273 777 344Q777 429 733.0 500.0Q689 571 605.0 616.0Q521 661 405 669ZM628 353Q628 287 584.5 245.5Q541 204 450 204Q347 204 270.5 269.0Q194 334 152.5 449.5Q111 565 111 713Q111 775 123.5 823.0Q136 871 155.5 897.5Q175 924 193 924Q218 924 231 855L264 666Q225 660 230 661Q200 656 191.0 642.5Q182 629 182 608Q182 586 194.5 573.0Q207 560 229 560Q239 560 244 561Q268 565 281 566Q294 488 318 357Q324 323 345.5 308.5Q367 294 396 294Q429 294 443.5 306.5Q458 319 458 346Q458 362 456 372L423 566Q628 540 628 353ZM709 782Q709 702 746.0 630.5Q783 559 844.5 515.5Q906 472 975 472Q997 472 1004.5 480.5Q1012 489 1017 511Q1038 507 1061 507Q1110 507 1110 542Q1110 563 1095 642Q1072 757 1072 802Q1072 817 1079.5 826.0Q1087 835 1099 835Q1118 835 1145.0 810.5Q1172 786 1218 731Q1230 717 1245 717Q1258 717 1265.5 729.0Q1273 741 1273 762Q1273 802 1254 824Q1213 875 1167.0 910.0Q1121 945 1078 945Q1045 945 1017.5 922.5Q990 900 976 861Q924 945 845 945Q783 945 746.0 900.0Q709 855 709 782ZM952 749 989 565Q947 566 911.5 596.5Q876 627 855.0 677.0Q834 727 834 783Q834 814 846.5 829.0Q859 844 881 844Q903 844 923.0 818.0Q943 792 952 749ZM1176 743Q1176 662 1208.0 601.0Q1240 540 1291.0 507.0Q1342 474 1398 474Q1453 474 1483.5 506.5Q1514 539 1514 590Q1514 632 1495.5 661.0Q1477 690 1447 690Q1428 690 1416.5 681.0Q1405 672 1405 656Q1405 649 1407.0 640.0Q1409 631 1410 627Q1415 612 1415 599Q1415 586 1408.5 579.0Q1402 572 1390 572Q1367 572 1347.0 592.5Q1327 613 1315.0 648.0Q1303 683 1303 725Q1303 841 1404 841Q1445 841 1492.5 813.5Q1540 786 1586 731Q1598 717 1613 717Q1626 717 1633.5 729.0Q1641 741 1641 762Q1641 800 1622 824Q1575 882 1509.5 913.5Q1444 945 1383 945Q1285 945 1230.5 889.5Q1176 834 1176 743ZM1607 334Q1607 299 1634.5 275.5Q1662 252 1703 252Q1740 252 1763.0 270.0Q1786 288 1786 321Q1786 361 1760.0 384.5Q1734 408 1691 408Q1649 408 1628.0 388.5Q1607 369 1607 334ZM1559 777Q1559 732 1570.5 661.5Q1582 591 1600 530Q1609 498 1624.0 486.0Q1639 474 1672 474Q1723 474 1723 508Q1723 533 1704 624Q1680 734 1680 773Q1680 803 1688.0 819.0Q1696 835 1715 835Q1733 835 1760.0 810.0Q1787 785 1832 731Q1844 717 1859 717Q1872 717 1879.5 729.0Q1887 741 1887 762Q1887 802 1868 824Q1769 945 1683 945Q1618 945 1588.5 899.0Q1559 853 1559 777ZM2520 762Q2520 802 2501 824Q2460 874 2410.5 909.5Q2361 945 2311 945Q2246 945 2216.5 899.0Q2187 853 2187 777Q2187 738 2195.5 681.0Q2204 624 2218 569Q2118 569 1981 578Q1959 718 1959 839Q1959 932 1969.5 1033.5Q1980 1135 2001 1135Q2011 1135 2022.0 1100.0Q2033 1065 2040.0 1004.0Q2047 943 2047 869Q2047 788 2038 694Q2036 666 2047.5 652.5Q2059 639 2082 639Q2103 639 2113.0 650.0Q2123 661 2125 687Q2130 760 2130 861Q2130 1024 2090.5 1140.0Q2051 1256 1968 1256Q1897 1256 1866.0 1153.5Q1835 1051 1835 846Q1835 725 1854 587Q1847 588 1836 588Q1805 588 1794.5 577.0Q1784 566 1784 543Q1784 518 1797.5 503.0Q1811 488 1849 485Q1856 484 1871 484Q1898 349 1940.0 239.0Q1982 129 2036.0 64.5Q2090 0 2150 0Q2197 0 2222.5 36.5Q2248 73 2248 130Q2248 331 2086 472Q2208 467 2283 467Q2311 467 2329.0 477.5Q2347 488 2347 518Q2347 538 2340.5 579.0Q2334 620 2326 661Q2308 746 2308 773Q2308 803 2316.0 819.0Q2324 835 2343 835Q2360 835 2386.5 811.5Q2413 788 2465 731Q2477 717 2492 717Q2505 717 2512.5 729.0Q2520 741 2520 762ZM2003 452Q2053 417 2086.5 365.0Q2120 313 2136.5 257.5Q2153 202 2153 155Q2153 96 2131 96Q2107 96 2070.0 200.0Q2033 304 2003 452ZM2241 334Q2241 299 2268.5 275.5Q2296 252 2337 252Q2374 252 2397.0 270.0Q2420 288 2420 321Q2420 361 2394.0 384.5Q2368 408 2325 408Q2283 408 2262.0 388.5Q2241 369 2241 334ZM2423 743Q2423 662 2455.0 601.0Q2487 540 2538.0 507.0Q2589 474 2645 474Q2700 474 2730.5 506.5Q2761 539 2761 590Q2761 632 2742.5 661.0Q2724 690 2694 690Q2675 690 2663.5 681.0Q2652 672 2652 656Q2652 649 2654.0 640.0Q2656 631 2657 627Q2662 612 2662 599Q2662 586 2655.5 579.0Q2649 572 2637 572Q2614 572 2594.0 592.5Q2574 613 2562.0 648.0Q2550 683 2550 725Q2550 841 2651 841Q2692 841 2739.5 813.5Q2787 786 2833 731Q2845 717 2860 717Q2873 717 2880.5 729.0Q2888 741 2888 762Q2888 800 2869 824Q2822 882 2756.5 913.5Q2691 945 2630 945Q2532 945 2477.5 889.5Q2423 834 2423 743ZM2792 735Q2792 659 2820.5 599.5Q2849 540 2898.0 506.5Q2947 473 3008 473Q3067 473 3109.0 502.5Q3151 532 3172.0 580.0Q3193 628 3193 683Q3193 759 3164.0 818.5Q3135 878 3085.5 911.5Q3036 945 2976 945Q2917 945 2875.5 915.5Q2834 886 2813.0 838.0Q2792 790 2792 735ZM3068 692Q3068 637 3048.0 609.0Q3028 581 3000 581Q2964 581 2940.5 617.5Q2917 654 2917 726Q2917 783 2937.0 810.0Q2957 837 2987 837Q3021 837 3044.5 800.0Q3068 763 3068 692Z" fill="currentColor" /></svg>