<svg viewBox="0 0 8482 1448" xmlns="http://www.w3.org/2000/svg"><path d="M334 810Q333 804 333.0 798.5Q333 793 333 787Q334 707 335.0 628.5Q336 550 337 471Q337 459 331 447Q331 458 331.0 469.5Q331 481 330 492Q329 502 327.5 511.0Q326 520 324 529Q324 533 323.5 536.5Q323 540 324 544Q333 578 323 611Q322 615 320.5 618.5Q319 622 320 625Q326 637 323.5 649.5Q321 662 318 674Q316 681 317 683Q326 691 325.0 701.5Q324 712 323 722Q323 749 321.5 776.5Q320 804 319 832Q318 890 317.0 950.0Q316 1010 313 1069Q313 1093 311.0 1117.0Q309 1141 307 1164Q306 1173 305.5 1182.5Q305 1192 305 1203Q286 1203 269.0 1203.0Q252 1203 235 1202Q231 1202 227.0 1200.0Q223 1198 216 1200Q212 1203 204.0 1201.0Q196 1199 186 1198Q166 1205 142.5 1204.0Q119 1203 95 1202Q94 1199 93.5 1196.5Q93 1194 93 1193Q93 1153 92.5 1113.0Q92 1073 93 1033Q93 1026 95.5 1018.0Q98 1010 101 1000Q95 995 94.0 985.5Q93 976 94 963Q99 943 99.0 922.5Q99 902 100 882Q102 818 104.5 754.0Q107 690 108 626Q109 601 109.5 576.5Q110 552 111 527Q112 489 112.5 450.0Q113 411 114 373Q114 371 115.0 368.0Q116 365 117 360Q141 360 165.0 359.5Q189 359 213 360Q237 361 261.0 362.5Q285 364 309 358Q330 354 331 377Q331 388 331.5 400.5Q332 413 334 425Q335 410 336.0 395.0Q337 380 338 366Q361 359 382.0 364.0Q403 369 423 377Q437 382 451.5 390.0Q466 398 479 408Q496 419 512 442Q522 454 531.0 467.0Q540 480 547 494Q553 505 556.0 518.5Q559 532 560 544Q562 569 561.0 594.0Q560 619 561 645Q564 682 547.0 709.5Q530 737 506 760Q488 779 466.5 792.5Q445 806 421 815Q407 820 391.0 823.5Q375 827 360 830Q347 832 342.0 827.0Q337 822 334 810ZM1217 588Q1221 634 1224.5 680.0Q1228 726 1232 770Q1234 810 1233.5 840.5Q1233 871 1232 871V1192H1039Q1038 1180 1038.0 1168.0Q1038 1156 1038 1146Q1037 1057 1035.5 967.5Q1034 878 1034 789Q1034 740 1036.0 690.0Q1038 640 1039 588ZM746 964Q745 960 745.0 957.0Q745 954 745 951V929Q741 879 760.0 839.0Q779 799 809 762Q851 711 918 694Q934 689 950.5 688.0Q967 687 983 686Q998 685 1001.5 690.0Q1005 695 1005 709Q1004 763 1003.5 817.0Q1003 871 1001 926Q1000 958 999.0 990.0Q998 1022 996 1054Q995 1055 997 1062L996 1092Q994 1111 991.5 1129.0Q989 1147 986 1167Q970 1164 955.0 1161.5Q940 1159 926 1155Q877 1143 843.0 1112.5Q809 1082 783 1040Q773 1021 764.0 1002.0Q755 983 746 964ZM1612 542 1609 770V1008Q1610 1049 1609.0 1090.0Q1608 1131 1609 1172Q1619 1172 1628.0 1172.5Q1637 1173 1647 1173Q1647 1173 1648.0 1173.0Q1649 1173 1650 1175V1252Q1639 1250 1628.0 1250.0Q1617 1250 1606 1250H1438L1431 546Q1437 544 1459.0 543.5Q1481 543 1510.5 543.5Q1540 544 1567.5 543.5Q1595 543 1612 542ZM1963 942H1935Q1918 939 1900.5 936.5Q1883 934 1863 932Q1867 917 1869.5 902.5Q1872 888 1875 875Q1887 828 1915.5 796.0Q1944 764 1984 740Q2002 730 2020.0 721.5Q2038 713 2057 705Q2060 703 2068 703Q2073 703 2078.5 703.5Q2084 704 2089 703Q2136 700 2174.5 718.0Q2213 736 2247 764Q2295 803 2312 868Q2316 882 2317.5 898.0Q2319 914 2319 929Q2320 943 2316.0 946.5Q2312 950 2298 950Q2246 949 2195.0 948.0Q2144 947 2092 946Q2062 945 2031.5 944.0Q2001 943 1971 942Q1970 941 1968.0 941.5Q1966 942 1963 942ZM1983 1164Q1934 1135 1912.0 1091.5Q1890 1048 1885 996Q1884 990 1884.0 983.5Q1884 977 1884 971L2104 977Q2104 1018 2104.0 1059.5Q2104 1101 2103 1142Q2103 1146 2102.0 1149.5Q2101 1153 2101 1157Q2101 1163 2101.5 1169.5Q2102 1176 2103 1186Q2102 1187 2098.5 1189.5Q2095 1192 2091 1192Q2081 1193 2070.5 1191.5Q2060 1190 2050 1188Q2040 1186 2030.5 1184.0Q2021 1182 2012 1180Q2006 1179 2001 1175Q1997 1172 1992.5 1169.0Q1988 1166 1983 1164ZM2692 781Q2714 782 2735.5 783.0Q2757 784 2779 786Q2783 796 2784.5 821.0Q2786 846 2785.5 874.0Q2785 902 2781 921Q2759 920 2736.5 919.5Q2714 919 2691 918V1014Q2693 1074 2691.5 1133.5Q2690 1193 2695 1252H2523L2519 915Q2497 913 2474.0 911.0Q2451 909 2427 907V836Q2428 819 2428.5 801.0Q2429 783 2432.0 771.0Q2435 759 2441 762Q2460 763 2479.5 765.0Q2499 767 2518 769L2516 557Q2522 555 2544.0 555.0Q2566 555 2595.0 555.0Q2624 555 2651.5 554.5Q2679 554 2695 553L2692 778ZM3192 781Q3214 782 3235.5 783.0Q3257 784 3279 786Q3283 796 3284.5 821.0Q3286 846 3285.5 874.0Q3285 902 3281 921Q3259 920 3236.5 919.5Q3214 919 3191 918V1014Q3193 1074 3191.5 1133.5Q3190 1193 3195 1252H3023L3019 915Q2997 913 2974.0 911.0Q2951 909 2927 907V836Q2928 819 2928.5 801.0Q2929 783 2932.0 771.0Q2935 759 2941 762Q2960 763 2979.5 765.0Q2999 767 3018 769L3016 557Q3022 555 3044.0 555.0Q3066 555 3095.0 555.0Q3124 555 3151.5 554.5Q3179 554 3195 553L3192 778ZM3519 942H3491Q3474 939 3456.5 936.5Q3439 934 3419 932Q3423 917 3425.5 902.5Q3428 888 3431 875Q3443 828 3471.5 796.0Q3500 764 3540 740Q3558 730 3576.0 721.5Q3594 713 3613 705Q3616 703 3624 703Q3629 703 3634.5 703.5Q3640 704 3645 703Q3692 700 3730.5 718.0Q3769 736 3803 764Q3851 803 3868 868Q3872 882 3873.5 898.0Q3875 914 3875 929Q3876 943 3872.0 946.5Q3868 950 3854 950Q3802 949 3751.0 948.0Q3700 947 3648 946Q3618 945 3587.5 944.0Q3557 943 3527 942Q3526 941 3524.0 941.5Q3522 942 3519 942ZM3539 1164Q3490 1135 3468.0 1091.5Q3446 1048 3441 996Q3440 990 3440.0 983.5Q3440 977 3440 971L3660 977Q3660 1018 3660.0 1059.5Q3660 1101 3659 1142Q3659 1146 3658.0 1149.5Q3657 1153 3657 1157Q3657 1163 3657.5 1169.5Q3658 1176 3659 1186Q3658 1187 3654.5 1189.5Q3651 1192 3647 1192Q3637 1193 3626.5 1191.5Q3616 1190 3606 1188Q3596 1186 3586.5 1184.0Q3577 1182 3568 1180Q3562 1179 3557 1175Q3553 1172 3548.5 1169.0Q3544 1166 3539 1164ZM5613 432Q5617 441 5619.5 450.5Q5622 460 5626 470Q5628 478 5628.0 486.5Q5628 495 5620 501Q5617 502 5616.0 504.5Q5615 507 5615 509Q5620 534 5617.0 558.0Q5614 582 5618 608Q5623 634 5620.5 662.5Q5618 691 5618 720Q5618 758 5619.0 796.5Q5620 835 5620 873Q5620 924 5619.0 974.0Q5618 1024 5618 1074Q5617 1104 5615.5 1134.5Q5614 1165 5612 1196Q5612 1212 5608.5 1216.5Q5605 1221 5588 1221Q5572 1220 5557.5 1219.0Q5543 1218 5527 1217Q5510 1214 5493.0 1212.5Q5476 1211 5458 1210Q5452 1210 5437 1207V544Q5421 581 5396.0 603.0Q5371 625 5331 627Q5288 629 5261.5 607.0Q5235 585 5215 550Q5214 579 5212.5 605.0Q5211 631 5210 657Q5209 673 5207.0 687.5Q5205 702 5205 718Q5207 731 5206.5 744.0Q5206 757 5200 769Q5209 797 5208.0 825.0Q5207 853 5203.5 880.5Q5200 908 5200 936Q5200 958 5201.0 981.0Q5202 1004 5202 1027Q5202 1038 5200.5 1048.5Q5199 1059 5197 1069Q5196 1099 5195.5 1129.0Q5195 1159 5194 1189Q5193 1208 5186.0 1214.5Q5179 1221 5159 1221Q5149 1221 5138.5 1221.0Q5128 1221 5122 1209Q5116 1211 5110.5 1214.5Q5105 1218 5099 1220Q5097 1213 5093 1207Q5089 1211 5084.5 1213.5Q5080 1216 5075 1220Q5068 1212 5059.0 1212.0Q5050 1212 5040 1217Q5028 1223 5018.0 1216.0Q5008 1209 5008 1196V1117Q5007 1099 5009.0 1082.0Q5011 1065 5018 1051Q5019 1048 5019 1043Q5010 1019 5011.5 994.5Q5013 970 5017.5 945.0Q5022 920 5019 896Q5017 876 5018.0 857.0Q5019 838 5019 817Q5021 791 5022.0 763.5Q5023 736 5023 710Q5024 660 5025.0 610.0Q5026 560 5027 510Q5027 508 5025.5 504.5Q5024 501 5024 499Q5023 493 5021.0 487.0Q5019 481 5018 475Q5018 455 5021 428Q5023 428 5027.0 429.0Q5031 430 5032 430Q5046 414 5056.5 399.0Q5067 384 5080 371Q5092 359 5106.5 352.0Q5121 345 5139 345H5211Q5244 345 5269 368Q5285 382 5297.5 399.5Q5310 417 5319 441Q5326 430 5331.5 420.5Q5337 411 5343 403Q5363 377 5390.0 360.5Q5417 344 5453 345Q5461 345 5470.5 345.5Q5480 346 5490 345Q5522 342 5546.5 355.0Q5571 368 5588.0 389.5Q5605 411 5613 432ZM6240 893Q6239 905 6238.0 917.5Q6237 930 6235 942Q6234 949 6231.0 953.5Q6228 958 6220 954Q6206 946 6191.5 948.5Q6177 951 6163 950Q6134 947 6104.5 947.5Q6075 948 6046 947Q5986 944 5925.5 940.0Q5865 936 5801 932Q5803 919 5805.5 907.5Q5808 896 5809 886Q5810 853 5825.5 826.0Q5841 799 5861 775Q5878 755 5901.5 742.0Q5925 729 5952 723Q5987 715 6020.5 716.5Q6054 718 6088 726Q6111 731 6130.0 742.5Q6149 754 6165 769Q6182 785 6196.5 804.0Q6211 823 6217 847Q6219 854 6222.5 861.5Q6226 869 6233 874Q6237 877 6239.5 881.5Q6242 886 6240 893ZM5797 1029Q5796 1030 5793.0 1032.0Q5790 1034 5785 1037Q5784 1032 5783.0 1028.5Q5782 1025 5783 1021Q5784 1006 5785.0 991.0Q5786 976 5787 960Q5788 952 5789.5 946.0Q5791 940 5801 939Q5811 937 5815.5 942.0Q5820 947 5822 955Q5823 956 5823.5 957.0Q5824 958 5826 961Q5843 962 5861.5 962.0Q5880 962 5899 963Q5970 964 6040.0 964.5Q6110 965 6180 966Q6184 966 6188.0 967.0Q6192 968 6196 968Q6202 969 6209.0 968.5Q6216 968 6226 967Q6227 968 6230.0 971.0Q6233 974 6233 979Q6233 998 6228 1020Q6227 1030 6224.0 1039.5Q6221 1049 6219 1059Q6218 1063 6214 1069Q6211 1073 6208.0 1077.5Q6205 1082 6203 1087Q6173 1136 6127.5 1158.0Q6082 1180 6028 1185Q6004 1186 5980.5 1185.0Q5957 1184 5934 1178Q5928 1178 5925 1175Q5906 1164 5887.0 1151.5Q5868 1139 5850 1126Q5845 1122 5841.0 1115.0Q5837 1108 5834 1102Q5824 1084 5815.5 1066.0Q5807 1048 5797 1029ZM6694 714Q6730 735 6746.0 767.0Q6762 799 6766 838Q6767 842 6767.0 846.5Q6767 851 6767 856L6605 852Q6605 821 6605.0 791.0Q6605 761 6606 730Q6606 727 6608 719Q6608 714 6607.5 709.0Q6607 704 6606 697Q6607 697 6609.5 695.0Q6612 693 6615 693Q6623 692 6630.5 693.0Q6638 694 6645 696Q6653 697 6659.5 698.5Q6666 700 6673 702Q6679 704 6681 706Q6688 709 6694 714ZM6590 699Q6595 700 6598.0 702.5Q6601 705 6599 710Q6593 720 6595.0 730.0Q6597 740 6596 750Q6594 770 6594.5 791.0Q6595 812 6594 833Q6592 875 6589.0 917.5Q6586 960 6583 1005Q6574 1003 6566.5 1001.5Q6559 1000 6551 1000Q6528 998 6509.0 987.5Q6490 977 6473 963Q6458 951 6449.5 934.0Q6441 917 6436 898Q6431 874 6432.0 850.5Q6433 827 6438 803Q6445 771 6469 749Q6480 737 6493.5 727.0Q6507 717 6523 713Q6528 711 6533.0 708.5Q6538 706 6542 701Q6548 694 6556 696Q6564 697 6573.0 697.5Q6582 698 6590 699ZM6680 941Q6714 961 6729.0 992.0Q6744 1023 6747 1060Q6749 1076 6748.5 1092.0Q6748 1108 6743 1124Q6743 1129 6741 1130Q6733 1143 6725.0 1155.5Q6717 1168 6707 1180Q6704 1184 6699.5 1186.5Q6695 1189 6690 1192Q6678 1198 6666.0 1204.0Q6654 1210 6641 1217Q6642 1218 6643.0 1219.5Q6644 1221 6647 1224Q6643 1225 6640.5 1226.0Q6638 1227 6635 1226Q6625 1226 6615.0 1225.0Q6605 1224 6594 1223Q6589 1223 6585.0 1222.0Q6581 1221 6579 1214Q6578 1203 6590 1199Q6591 1199 6592.0 1198.5Q6593 1198 6595 1197Q6595 1185 6595.0 1172.5Q6595 1160 6596 1148Q6597 1100 6597.0 1052.0Q6597 1004 6598 957Q6598 952 6600 946Q6600 941 6599.5 936.5Q6599 932 6598 925Q6599 925 6601.5 923.0Q6604 921 6607 921Q6614 920 6621.0 921.0Q6628 922 6635 924Q6642 925 6648.0 926.5Q6654 928 6661 930Q6663 930 6665.0 931.0Q6667 932 6668 933ZM6582 1174Q6582 1179 6582.5 1184.0Q6583 1189 6584 1197Q6583 1198 6580.5 1200.0Q6578 1202 6574 1203Q6566 1203 6558.0 1201.5Q6550 1200 6542 1199Q6534 1197 6527.0 1195.5Q6520 1194 6512 1193Q6510 1192 6508.0 1191.0Q6506 1190 6504 1189Q6500 1187 6496.5 1184.5Q6493 1182 6489 1180Q6451 1158 6434.0 1123.5Q6417 1089 6412 1048Q6411 1043 6411.0 1038.0Q6411 1033 6411 1028L6585 1033Q6585 1065 6585.0 1097.5Q6585 1130 6584 1162Q6584 1165 6583.0 1168.0Q6582 1171 6582 1174ZM7400 588Q7404 634 7407.5 680.0Q7411 726 7415 770Q7417 810 7416.5 840.5Q7416 871 7415 871V1192H7222Q7221 1180 7221.0 1168.0Q7221 1156 7221 1146Q7220 1057 7218.5 967.5Q7217 878 7217 789Q7217 740 7219.0 690.0Q7221 640 7222 588ZM6929 964Q6928 960 6928.0 957.0Q6928 954 6928 951V929Q6924 879 6943.0 839.0Q6962 799 6992 762Q7034 711 7101 694Q7117 689 7133.5 688.0Q7150 687 7166 686Q7181 685 7184.5 690.0Q7188 695 7188 709Q7187 763 7186.5 817.0Q7186 871 7184 926Q7183 958 7182.0 990.0Q7181 1022 7179 1054Q7178 1055 7180 1062L7179 1092Q7177 1111 7174.5 1129.0Q7172 1147 7169 1167Q7153 1164 7138.0 1161.5Q7123 1159 7109 1155Q7060 1143 7026.0 1112.5Q6992 1082 6966 1040Q6956 1021 6947.0 1002.0Q6938 983 6929 964ZM7774 646Q7767 642 7760.0 644.0Q7753 646 7746 645Q7732 643 7717.5 644.0Q7703 645 7688 645Q7659 644 7629.5 643.0Q7600 642 7569 641Q7570 635 7570.5 629.5Q7571 624 7572 619Q7572 602 7579.0 589.0Q7586 576 7595 564Q7611 543 7640 537Q7657 532 7673.0 532.5Q7689 533 7706 537Q7717 538 7727.0 543.5Q7737 549 7744 557Q7752 564 7759.5 573.0Q7767 582 7770 594Q7773 603 7779 607Q7784 610 7783 616Q7782 622 7782.0 628.0Q7782 634 7781 640Q7781 643 7779.0 645.5Q7777 648 7774 646ZM7766 730 7763 892V1061Q7765 1104 7763.0 1147.0Q7761 1190 7766 1232H7598L7590 732Q7596 731 7617.5 730.5Q7639 730 7667.5 730.5Q7696 731 7723.0 731.0Q7750 731 7766 730ZM8228 796Q8227 817 8225.5 837.5Q8224 858 8222 878Q8221 896 8221.0 914.0Q8221 932 8221 951Q8222 970 8223.0 989.5Q8224 1009 8225 1029Q8226 1048 8226.0 1066.5Q8226 1085 8221 1103Q8220 1106 8222.0 1109.5Q8224 1113 8225 1116Q8226 1121 8227.5 1125.0Q8229 1129 8229 1134Q8230 1145 8228.0 1155.0Q8226 1165 8229 1176Q8230 1187 8216 1189Q8200 1190 8186.0 1187.0Q8172 1184 8158 1180Q8133 1172 8110.5 1160.0Q8088 1148 8065 1135Q8029 1111 8008.0 1077.0Q7987 1043 7973 1003Q7972 999 7972.0 995.5Q7972 992 7972 988Q7972 968 7972.5 948.0Q7973 928 7971 908Q7970 876 7980.5 849.0Q7991 822 8007 797Q8062 719 8158 688Q8163 686 8168.5 683.0Q8174 680 8180 680Q8193 679 8206.0 679.0Q8219 679 8231 679Q8231 689 8231.5 696.5Q8232 704 8231 712Q8230 733 8229.5 754.5Q8229 776 8228 796ZM8264 877Q8250 875 8250 860Q8252 816 8254.0 772.0Q8256 728 8258 684Q8258 684 8258.5 683.0Q8259 682 8260 681H8336Q8334 702 8335.0 722.5Q8336 743 8332 763Q8328 781 8327.5 800.0Q8327 819 8326 838Q8325 845 8325.0 852.0Q8325 859 8324 867Q8322 884 8308 883Q8297 882 8286.0 881.0Q8275 880 8264 877ZM8250 1171Q8250 1162 8249.5 1152.5Q8249 1143 8250 1134Q8250 1107 8250.5 1080.5Q8251 1054 8252 1026Q8252 1013 8256.0 1009.5Q8260 1006 8272 1006Q8285 1004 8298.0 1005.0Q8311 1006 8327 1006Q8327 1016 8327.5 1025.5Q8328 1035 8328 1043Q8328 1059 8327.5 1074.0Q8327 1089 8327 1103Q8327 1118 8326.5 1133.0Q8326 1148 8328 1163Q8330 1173 8326.5 1176.5Q8323 1180 8313 1182Q8303 1183 8293.0 1184.5Q8283 1186 8273 1188Q8251 1191 8250 1171Z" fill="currentColor" /></svg>