<svg viewBox="0 0 3400 953" xmlns="http://www.w3.org/2000/svg"><path d="M414 145Q427 155 426 166Q426 184 402 204Q405 213 405 222Q405 236 398.0 248.0Q391 260 381 265Q378 301 360 313Q357 324 340.0 332.5Q323 341 309 341Q302 347 284.0 352.5Q266 358 257 355Q245 371 224 371Q216 371 213 370Q207 373 197 373Q186 373 173 368Q157 378 108 378Q112 392 112 398Q112 410 104 419Q115 433 115 466Q115 492 110 505Q122 521 122 546Q122 568 112 588Q118 596 121.0 611.0Q124 626 124 642Q124 666 118 674Q120 688 120 695Q120 737 74 737Q53 737 42.5 715.5Q32 694 32 665Q32 636 40 620Q30 602 30 576Q30 565 32 549Q23 537 23 500Q23 469 29 460Q24 447 24 423Q24 400 29 390Q24 378 24 370Q24 362 27 355Q18 341 18 321Q18 307 22 300Q18 291 18 281Q18 270 22 263Q12 248 12 239Q12 229 20 218Q14 206 14 196Q14 180 26 170Q10 155 10 134Q10 130 12 118Q0 110 0 88Q0 72 7.0 58.0Q14 44 24 44Q25 32 36.5 25.5Q48 19 63 19Q77 19 88.5 24.5Q100 30 102 39Q122 30 133 30Q139 30 141 32Q144 31 155.0 27.5Q166 24 175 24Q188 24 201 32Q207 27 218.0 24.0Q229 21 241 21Q252 21 259 24Q263 23 270 23Q285 23 300.0 31.0Q315 39 323 49Q341 48 351.5 55.5Q362 63 369 83Q380 86 390.5 95.0Q401 104 398 113Q407 116 411.5 126.0Q416 136 414 145ZM118 295Q135 295 140 300Q147 293 167 293Q187 293 193 300Q200 295 214 295Q223 295 228 298Q239 286 252 286Q259 286 263 287Q265 279 285.0 268.5Q305 258 316 261Q316 253 322.0 240.0Q328 227 334 223Q330 219 330 207Q330 193 334.5 175.5Q339 158 344 153Q304 131 303 112Q287 109 266 96Q238 110 219 110Q208 110 188 105Q168 118 145 118Q131 118 122 112Q121 115 108.5 119.0Q96 123 91 122Q92 132 98 147Q105 164 105 177Q105 190 96 202Q100 210 100 229Q100 245 96 252Q105 261 105 278Q105 289 98 300Q104 295 118 295ZM479 324Q479 306 491 294Q494 279 505.0 265.5Q516 252 529.5 244.5Q543 237 551 239Q558 228 579.0 218.5Q600 209 618 209Q622 209 630 211Q641 199 659 199Q673 199 679 207Q692 198 713 198Q738 198 757.5 210.0Q777 222 780 242Q798 248 807.5 260.5Q817 273 819 295Q832 308 838.0 325.5Q844 343 844 361Q844 384 836 398Q843 408 848.0 428.0Q853 448 853 467Q853 475 851 487Q858 502 858 507Q858 510 855 521Q856 525 857.0 530.5Q858 536 858 544Q858 559 847 571Q851 582 851 598Q851 619 841 632Q843 636 843 645Q843 666 826 680Q822 694 811.0 701.5Q800 709 787 709Q774 709 766 701Q740 712 724 712Q716 712 712 711Q686 719 668 719Q655 719 632 714Q618 722 605 722Q593 722 583 715Q578 716 568 716Q529 716 508 681Q470 659 470 615Q470 604 471 598Q462 592 462 573Q462 560 467 550Q463 532 463 527Q463 498 491 475Q502 452 516.5 444.0Q531 436 553 432Q559 415 581.0 409.0Q603 403 624 405Q630 401 641.0 397.5Q652 394 663 394Q675 394 684 398Q686 396 694 396Q700 396 706.0 397.0Q712 398 714 400Q728 382 747 382Q753 382 759 385V382Q759 365 766 358Q756 355 744.5 340.5Q733 326 731 314Q715 307 709 291Q697 300 681 300Q670 300 660 294Q643 299 638 298Q624 308 607 308Q592 328 572 326Q563 342 547.5 354.0Q532 366 516 366Q498 366 487 349Q479 336 479 324ZM554 595Q554 603 550 615Q554 615 561.5 619.5Q569 624 570 629Q578 626 590 626Q612 626 619 636Q630 632 642 632Q661 632 672 643Q680 635 698.5 630.0Q717 625 732 625Q741 607 764 604Q766 597 775 586Q771 580 768.0 570.0Q765 560 765 550Q765 529 775 519Q764 505 764 486Q764 473 768 464Q760 469 750 469Q741 469 735 462Q726 471 710 471Q700 471 690 466Q679 477 663 477Q658 477 648 473Q633 488 621 482Q615 496 605.5 501.0Q596 506 579 506Q575 517 565.5 524.0Q556 531 546 529Q551 536 551 545Q551 560 542 572Q554 584 554 595ZM1095 338Q1088 358 1058 362Q1059 379 1051.0 390.5Q1043 402 1033 404Q1033 430 1022 458Q1024 466 1024 472Q1024 492 1016 508Q1021 518 1021 531Q1021 548 1015 566Q1024 578 1024 593Q1024 602 1019 614Q1022 620 1022 633Q1022 655 1013 665Q1017 679 1017 687Q1017 695 1014 701Q1014 718 1001.0 727.5Q988 737 970 737Q953 737 940.5 727.5Q928 718 929 701Q926 692 926 682Q926 661 933 642Q924 630 924 616Q924 607 929 595Q922 584 922 570Q922 560 926.0 552.0Q930 544 936 539Q922 523 922 502Q922 482 935 468Q931 463 928.0 453.0Q925 443 925 433Q925 420 931 414Q923 396 923 373Q923 353 929 346Q920 326 920 308Q920 288 929 279Q913 260 913 237Q913 209 937 196Q949 190 961 190Q980 190 993.0 205.5Q1006 221 1006 242Q1006 253 1001 265Q1014 278 1014 298Q1014 312 1012 321Q1020 292 1035 287Q1035 268 1047.0 252.0Q1059 236 1075.5 228.0Q1092 220 1103 223Q1128 196 1157 196Q1170 196 1180 201Q1189 194 1207 194Q1222 194 1235.0 199.5Q1248 205 1252 216Q1288 218 1303 246Q1316 247 1328.5 261.0Q1341 275 1341 293Q1341 301 1336 313Q1359 322 1359 348Q1359 357 1358 361Q1371 368 1376.5 375.5Q1382 383 1382 394Q1382 406 1376 426Q1388 435 1388 456Q1388 478 1377 489Q1386 504 1386 526Q1386 548 1376 561Q1382 591 1382 603Q1382 624 1373 632Q1381 650 1381 667Q1381 690 1370 701Q1371 717 1356.5 727.0Q1342 737 1324 737Q1310 737 1300.0 730.0Q1290 723 1290 710Q1282 691 1282 667Q1282 630 1300 613Q1293 604 1287.5 583.5Q1282 563 1282 545Q1282 520 1292 514Q1284 499 1284 483Q1284 465 1295 439Q1286 432 1280.0 418.0Q1274 404 1274 391Q1274 387 1276 379Q1265 370 1256.5 350.0Q1248 330 1249 314Q1240 313 1231.0 308.0Q1222 303 1217 294H1206Q1189 294 1182 287Q1174 297 1155.5 304.5Q1137 312 1123 309H1122Q1124 320 1115.5 328.5Q1107 337 1095 338ZM1781 802Q1779 794 1779 787Q1779 774 1783.5 762.5Q1788 751 1796 745Q1795 741 1795 734Q1795 721 1800.0 709.5Q1805 698 1811 694Q1751 724 1736 717Q1710 723 1694 723Q1673 723 1665 716Q1656 721 1641 721Q1621 721 1602.5 711.5Q1584 702 1577 687Q1550 685 1527.0 658.5Q1504 632 1502 597Q1484 591 1474.5 569.5Q1465 548 1465 522Q1465 493 1476 479Q1469 474 1464.5 455.5Q1460 437 1460 416Q1460 370 1483 354Q1480 349 1484.0 333.5Q1488 318 1497.0 303.0Q1506 288 1515 284Q1514 275 1522.0 264.0Q1530 253 1541.0 247.0Q1552 241 1558 243Q1562 226 1575.5 219.0Q1589 212 1608 208Q1613 193 1630.5 185.5Q1648 178 1671 178Q1694 178 1714.5 184.5Q1735 191 1745 201Q1755 193 1775 193Q1806 193 1813 218Q1821 215 1829 215Q1846 215 1859.0 227.5Q1872 240 1872 257Q1872 266 1870 270Q1880 284 1885.5 296.0Q1891 308 1889 320Q1892 329 1892 336Q1892 352 1884 360Q1885 363 1885 368Q1885 379 1877 392Q1884 402 1884 414Q1884 426 1877 436Q1879 454 1879 460Q1882 485 1882 494Q1882 499 1880 507Q1888 518 1888 539Q1888 560 1881 571Q1896 599 1896 614Q1896 626 1889 636Q1893 643 1893 652Q1893 662 1887 674Q1893 683 1893 702Q1893 723 1883 739Q1888 740 1885.0 751.5Q1882 763 1875 774Q1880 784 1880 792Q1880 804 1873.0 815.5Q1866 827 1855 832Q1842 869 1818 875Q1819 887 1809.0 898.5Q1799 910 1788 912Q1783 934 1750 934Q1743 943 1727.5 948.0Q1712 953 1693 953Q1656 953 1637 934Q1624 933 1612.0 924.5Q1600 916 1594 904Q1579 903 1568.5 892.0Q1558 881 1557 866Q1549 853 1549 843Q1549 826 1563.0 814.5Q1577 803 1595 803Q1607 803 1616.5 809.5Q1626 816 1631 829Q1652 834 1659 852Q1676 854 1686 864Q1689 859 1699.0 856.5Q1709 854 1720 854Q1731 854 1737 857Q1737 849 1745.0 841.5Q1753 834 1762 833Q1760 825 1767.0 814.0Q1774 803 1781 802ZM1743 629Q1758 629 1764 633Q1767 629 1779.5 620.5Q1792 612 1805 608Q1793 596 1793 563Q1793 541 1799 523Q1791 507 1791 493Q1791 480 1796 472Q1792 465 1792 453Q1792 436 1799 423Q1793 412 1793 396Q1793 389 1795 381Q1786 369 1786 347Q1786 332 1791 320Q1785 316 1781.0 305.5Q1777 295 1776 286Q1764 287 1752.0 282.5Q1740 278 1736 270Q1723 277 1710 277Q1691 277 1671 263Q1667 271 1650.0 281.0Q1633 291 1621 293Q1620 303 1611.5 311.0Q1603 319 1590 323Q1590 332 1582.5 347.0Q1575 362 1567 368L1568 383Q1568 402 1563.5 418.0Q1559 434 1549 437Q1556 443 1560.0 455.5Q1564 468 1564 482Q1564 504 1557 517Q1565 521 1573.0 532.5Q1581 544 1581 558Q1581 565 1578 574Q1583 577 1591.0 593.0Q1599 609 1600 614Q1615 615 1629.5 620.0Q1644 625 1650 635Q1665 626 1679 626Q1698 626 1716 640Q1725 629 1743 629ZM2219 737Q2200 737 2188 731Q2170 735 2156 735Q2117 735 2100 715Q2096 716 2089 716Q2066 716 2054 695Q2044 696 2028.5 684.5Q2013 673 2015 662Q1999 658 1988.5 642.5Q1978 627 1979 607Q1968 603 1962.0 591.0Q1956 579 1956 564Q1956 548 1961 541Q1950 524 1950 502Q1950 479 1964 465Q1953 457 1953 441Q1953 431 1958.0 421.0Q1963 411 1971 407Q1969 393 1974.5 380.5Q1980 368 1990 362Q1988 359 1988 353Q1988 344 1994.5 335.0Q2001 326 2009 324Q2008 321 2008 316Q2008 295 2024.0 279.5Q2040 264 2055 266Q2055 252 2067.5 242.5Q2080 233 2100 233Q2109 233 2114 234Q2121 219 2138.0 209.5Q2155 200 2173 200Q2185 200 2193 205Q2207 193 2228 193Q2245 193 2258.5 201.0Q2272 209 2275 223Q2291 223 2309.0 234.5Q2327 246 2330 258Q2354 265 2376.5 288.5Q2399 312 2399 336Q2399 340 2397 348Q2440 357 2436 435Q2445 450 2445 467Q2445 487 2432 507Q2435 516 2435 524Q2435 536 2430.0 547.0Q2425 558 2417 564Q2418 580 2411.5 590.0Q2405 600 2388 617Q2389 621 2389 629Q2389 659 2355 668Q2352 684 2338.5 694.0Q2325 704 2306 704Q2290 726 2267 726Q2260 726 2256 725Q2244 737 2219 737ZM2189 648Q2203 648 2204 652Q2212 643 2224.0 638.0Q2236 633 2246 634Q2263 617 2283 617Q2290 617 2293 618Q2292 609 2298.0 600.5Q2304 592 2312 589Q2312 576 2318.5 566.5Q2325 557 2335 552Q2335 532 2343 520Q2340 512 2340 504Q2340 493 2345.0 482.5Q2350 472 2359 465Q2349 456 2349 443Q2349 431 2356 419Q2336 407 2329.5 395.5Q2323 384 2323 353Q2314 354 2304.5 343.0Q2295 332 2293 318Q2282 321 2266.5 311.5Q2251 302 2251 287Q2243 291 2232 291Q2211 291 2198 276Q2187 287 2169.5 293.5Q2152 300 2139 298Q2138 308 2121.5 321.5Q2105 335 2092 339Q2095 345 2095 353Q2095 363 2090.0 373.0Q2085 383 2076 390Q2077 404 2069.5 417.0Q2062 430 2049 435Q2051 443 2051 448Q2051 462 2044 470Q2047 477 2047 484Q2047 495 2036 508Q2061 525 2061 557Q2061 574 2055 586Q2065 587 2069.0 592.0Q2073 597 2076 608Q2101 611 2113 632Q2124 632 2140.5 639.0Q2157 646 2162 655Q2170 648 2189 648ZM2647 646Q2647 661 2642.5 674.5Q2638 688 2631 694Q2634 713 2621.0 725.0Q2608 737 2590 737Q2578 737 2567 731Q2556 725 2551.0 711.0Q2546 697 2546 681Q2546 659 2553 646Q2548 637 2548 620Q2548 601 2554 581Q2547 573 2547 552Q2547 525 2555 512Q2549 498 2549 485Q2549 467 2558 449Q2550 428 2550 411Q2550 397 2556 379Q2546 368 2546 351Q2546 344 2547 341Q2536 328 2536 311Q2536 300 2542 290Q2535 274 2535 259Q2535 235 2547 223Q2541 209 2541 189Q2541 173 2546 166Q2541 163 2538.0 155.0Q2535 147 2535 137Q2535 120 2543 109Q2540 101 2540 88Q2540 78 2542 70Q2530 58 2530 42Q2530 25 2544.5 12.5Q2559 0 2577 0Q2589 0 2599.0 7.5Q2609 15 2613 30Q2628 40 2628 61Q2628 65 2626 73Q2638 85 2638 104Q2638 120 2628 129Q2633 133 2637.0 142.5Q2641 152 2641 163Q2641 181 2628 193Q2636 204 2636 220Q2636 236 2630 246Q2634 250 2634 266Q2634 275 2632.0 285.0Q2630 295 2626 299Q2641 312 2641 332Q2641 343 2637 351Q2643 360 2643 378Q2643 401 2635 415Q2642 429 2642 452Q2642 480 2633 492Q2640 502 2640 517Q2640 530 2634 548Q2643 558 2643 579Q2643 597 2637 612Q2647 623 2647 646ZM2744 64Q2744 80 2757 96Q2755 109 2771.0 121.0Q2787 133 2806 133Q2819 133 2829 126Q2857 111 2857 88Q2857 73 2845 54Q2846 34 2833.5 22.5Q2821 11 2804 11Q2785 11 2773 24Q2760 30 2752.0 41.0Q2744 52 2744 64ZM2855 520Q2855 542 2848 549Q2854 564 2854 578Q2854 596 2845 608Q2852 625 2852 648Q2852 667 2846 679Q2849 688 2849 696Q2849 714 2836.0 724.5Q2823 735 2805 735Q2788 735 2776.0 724.5Q2764 714 2765 696Q2760 690 2757.0 677.0Q2754 664 2754 650Q2754 624 2765 616Q2757 603 2757 577Q2757 551 2764 539Q2760 535 2758.0 520.0Q2756 505 2756 487Q2756 470 2758.0 456.5Q2760 443 2764 439Q2758 433 2758 406Q2758 375 2765 361Q2760 353 2756.0 340.0Q2752 327 2752 316Q2752 306 2754 302Q2746 276 2746 260Q2746 243 2754 225Q2752 210 2761.0 202.0Q2770 194 2787 194Q2833 194 2833 250Q2842 256 2846.5 266.5Q2851 277 2851 290Q2851 311 2841 326Q2845 332 2847.5 344.0Q2850 356 2850 368Q2850 384 2845 390Q2849 395 2849 411Q2849 426 2845.5 443.0Q2842 460 2838 466Q2846 469 2850.5 485.0Q2855 501 2855 520ZM3107 338Q3100 358 3070 362Q3071 379 3063.0 390.5Q3055 402 3045 404Q3045 430 3034 458Q3036 466 3036 472Q3036 492 3028 508Q3033 518 3033 531Q3033 548 3027 566Q3036 578 3036 593Q3036 602 3031 614Q3034 620 3034 633Q3034 655 3025 665Q3029 679 3029 687Q3029 695 3026 701Q3026 718 3013.0 727.5Q3000 737 2982 737Q2965 737 2952.5 727.5Q2940 718 2941 701Q2938 692 2938 682Q2938 661 2945 642Q2936 630 2936 616Q2936 607 2941 595Q2934 584 2934 570Q2934 560 2938.0 552.0Q2942 544 2948 539Q2934 523 2934 502Q2934 482 2947 468Q2943 463 2940.0 453.0Q2937 443 2937 433Q2937 420 2943 414Q2935 396 2935 373Q2935 353 2941 346Q2932 326 2932 308Q2932 288 2941 279Q2925 260 2925 237Q2925 209 2949 196Q2961 190 2973 190Q2992 190 3005.0 205.5Q3018 221 3018 242Q3018 253 3013 265Q3026 278 3026 298Q3026 312 3024 321Q3032 292 3047 287Q3047 268 3059.0 252.0Q3071 236 3087.5 228.0Q3104 220 3115 223Q3140 196 3169 196Q3182 196 3192 201Q3201 194 3219 194Q3234 194 3247.0 199.5Q3260 205 3264 216Q3300 218 3315 246Q3328 247 3340.5 261.0Q3353 275 3353 293Q3353 301 3348 313Q3371 322 3371 348Q3371 357 3370 361Q3383 368 3388.5 375.5Q3394 383 3394 394Q3394 406 3388 426Q3400 435 3400 456Q3400 478 3389 489Q3398 504 3398 526Q3398 548 3388 561Q3394 591 3394 603Q3394 624 3385 632Q3393 650 3393 667Q3393 690 3382 701Q3383 717 3368.5 727.0Q3354 737 3336 737Q3322 737 3312.0 730.0Q3302 723 3302 710Q3294 691 3294 667Q3294 630 3312 613Q3305 604 3299.5 583.5Q3294 563 3294 545Q3294 520 3304 514Q3296 499 3296 483Q3296 465 3307 439Q3298 432 3292.0 418.0Q3286 404 3286 391Q3286 387 3288 379Q3277 370 3268.5 350.0Q3260 330 3261 314Q3252 313 3243.0 308.0Q3234 303 3229 294H3218Q3201 294 3194 287Q3186 297 3167.5 304.5Q3149 312 3135 309H3134Q3136 320 3127.5 328.5Q3119 337 3107 338Z" fill="currentColor" /></svg>