<svg viewBox="0 0 3850 1208" xmlns="http://www.w3.org/2000/svg"><path d="M78 944Q43 944 21.5 916.0Q0 888 0 812Q0 776 7.5 716.0Q15 656 26.5 583.0Q38 510 49.5 434.5Q61 359 68.5 290.5Q76 222 76 172Q76 151 71.5 121.5Q67 92 61 73Q114 63 170.0 55.5Q226 48 279 48Q346 48 402.0 65.5Q458 83 492.0 127.5Q526 172 526 253Q526 320 499.0 372.5Q472 425 427.5 466.0Q383 507 329.0 536.5Q275 566 220.5 586.0Q166 606 120 618Q115 661 112.0 700.0Q109 739 109 771Q109 810 115.5 845.5Q122 881 147 908Q128 930 109.0 937.0Q90 944 78 944ZM129 550Q184 538 236.0 516.5Q288 495 330.0 462.0Q372 429 396.5 382.5Q421 336 421 274Q421 213 400.0 177.0Q379 141 342.0 125.0Q305 109 257 109Q225 109 189 115Q189 161 179.0 232.0Q169 303 155.0 385.5Q141 468 129 550ZM662 951Q594 951 554.5 884.0Q515 817 515 700Q515 606 537.5 524.5Q560 443 600.0 382.0Q640 321 693.0 287.0Q746 253 808 253Q893 253 949 320Q957 289 969.5 276.0Q982 263 1004 263Q1035 263 1058 289Q1049 313 1041.0 355.5Q1033 398 1027.0 450.5Q1021 503 1017.5 559.5Q1014 616 1014 668Q1014 758 1024.5 811.5Q1035 865 1060 907Q1031 944 992 944Q950 944 928.0 890.0Q906 836 906 733Q906 718 907.5 696.5Q909 675 911.0 652.5Q913 630 914 614Q880 710 835.5 786.5Q791 863 745.5 907.0Q700 951 662 951ZM696 845Q719 845 748.0 814.5Q777 784 808.5 733.0Q840 682 867.5 620.0Q895 558 915.0 494.0Q935 430 941 374Q873 322 812 322Q756 322 712.5 367.0Q669 412 644.5 491.5Q620 571 620 675Q620 754 640.5 799.5Q661 845 696 845ZM1291 1208Q1254 1208 1230.0 1175.5Q1206 1143 1206 1055Q1206 1009 1214.0 943.5Q1222 878 1232.5 796.0Q1243 714 1251.0 619.0Q1259 524 1259 421Q1259 385 1256.0 350.5Q1253 316 1238 287Q1249 276 1269.5 270.0Q1290 264 1304 264Q1338 264 1355.5 287.0Q1373 310 1373 369Q1373 407 1370.0 439.5Q1367 472 1361.0 511.0Q1355 550 1344 607Q1409 440 1473.5 346.5Q1538 253 1593 253Q1635 253 1672.0 282.0Q1709 311 1732.0 374.0Q1755 437 1755 539Q1755 611 1739.0 684.0Q1723 757 1690.0 817.5Q1657 878 1606.0 914.5Q1555 951 1485 951Q1443 951 1394.5 935.5Q1346 920 1317 896Q1315 921 1313.5 946.5Q1312 972 1312 998Q1312 1046 1319.5 1092.5Q1327 1139 1359 1172Q1341 1194 1322.5 1201.0Q1304 1208 1291 1208ZM1477 883Q1533 883 1572.0 841.0Q1611 799 1631.0 728.0Q1651 657 1651 570Q1651 514 1642.5 466.0Q1634 418 1615.0 388.5Q1596 359 1566 359Q1542 359 1507.5 397.0Q1473 435 1436.5 502.5Q1400 570 1369.5 658.0Q1339 746 1324 846Q1358 865 1396.5 874.0Q1435 883 1477 883ZM1999 944Q1964 944 1942.5 916.0Q1921 888 1921 812Q1921 753 1931.5 690.0Q1942 627 1952.5 559.0Q1963 491 1963 416Q1963 384 1960.0 349.5Q1957 315 1942 287Q1953 276 1974.0 270.0Q1995 264 2009 264Q2035 264 2055.5 281.0Q2076 298 2076 340Q2076 369 2066.5 431.0Q2057 493 2047 566Q2085 465 2129.0 395.0Q2173 325 2213.0 289.0Q2253 253 2280 253Q2299 253 2310.0 266.0Q2321 279 2325.5 296.0Q2330 313 2330 327Q2330 339 2328.0 353.0Q2326 367 2324 377Q2309 374 2296 374Q2255 374 2215.5 403.0Q2176 432 2142.5 478.5Q2109 525 2083.5 578.0Q2058 631 2044.0 680.5Q2030 730 2030 763Q2030 808 2036.5 844.5Q2043 881 2068 908Q2049 930 2030.0 937.0Q2011 944 1999 944ZM2576 96Q2576 107 2573.5 122.0Q2571 137 2565 157Q2528 180 2496 180Q2466 180 2454.0 168.5Q2442 157 2442 133Q2442 122 2444.0 108.0Q2446 94 2449 76Q2486 53 2518 53Q2541 53 2558.5 63.0Q2576 73 2576 96ZM2481 944Q2446 944 2424.5 916.0Q2403 888 2403 812Q2403 753 2413.5 690.0Q2424 627 2434.5 559.0Q2445 491 2445 416Q2445 384 2442.0 349.5Q2439 315 2424 287Q2435 276 2456.0 270.0Q2477 264 2491 264Q2517 264 2537.5 281.0Q2558 298 2558 340Q2558 365 2551.0 415.0Q2544 465 2535.0 527.5Q2526 590 2519.0 654.0Q2512 718 2512 771Q2512 810 2518.5 845.5Q2525 881 2550 908Q2531 930 2512.0 937.0Q2493 944 2481 944ZM3148 947Q3128 947 3101.0 930.5Q3074 914 3044 877Q3015 842 2975.5 774.0Q2936 706 2889 627L2844 667Q2842 695 2840.5 721.5Q2839 748 2839 771Q2839 810 2846.0 845.5Q2853 881 2877 908Q2858 930 2839.0 937.0Q2820 944 2808 944Q2773 944 2751.5 916.0Q2730 888 2730 812Q2730 776 2737.5 719.0Q2745 662 2755.5 592.0Q2766 522 2776.5 446.5Q2787 371 2794.5 296.5Q2802 222 2802 157Q2802 121 2799.0 86.5Q2796 52 2781 22Q2792 12 2812.5 6.0Q2833 0 2847 0Q2881 0 2898.5 23.0Q2916 46 2916 105Q2916 137 2909.5 188.5Q2903 240 2893.5 303.5Q2884 367 2873.5 435.5Q2863 504 2855 571Q2921 508 2974.0 448.0Q3027 388 3060.5 340.5Q3094 293 3100 269Q3141 269 3165.5 282.0Q3190 295 3190 315Q3190 326 3159.0 362.5Q3128 399 3076.0 451.0Q3024 503 2961 561Q2998 623 3033.0 680.0Q3068 737 3101 777Q3126 807 3156.5 830.5Q3187 854 3222 859Q3221 896 3207.0 915.0Q3193 934 3176.0 940.5Q3159 947 3148 947ZM3452 951Q3384 951 3344.5 884.0Q3305 817 3305 700Q3305 606 3327.5 524.5Q3350 443 3390.0 382.0Q3430 321 3483.0 287.0Q3536 253 3598 253Q3683 253 3739 320Q3747 289 3759.5 276.0Q3772 263 3794 263Q3825 263 3848 289Q3839 313 3831.0 355.5Q3823 398 3817.0 450.5Q3811 503 3807.5 559.5Q3804 616 3804 668Q3804 758 3814.5 811.5Q3825 865 3850 907Q3821 944 3782 944Q3740 944 3718.0 890.0Q3696 836 3696 733Q3696 718 3697.5 696.5Q3699 675 3701.0 652.5Q3703 630 3704 614Q3670 710 3625.5 786.5Q3581 863 3535.5 907.0Q3490 951 3452 951ZM3486 845Q3509 845 3538.0 814.5Q3567 784 3598.5 733.0Q3630 682 3657.5 620.0Q3685 558 3705.0 494.0Q3725 430 3731 374Q3663 322 3602 322Q3546 322 3502.5 367.0Q3459 412 3434.5 491.5Q3410 571 3410 675Q3410 754 3430.5 799.5Q3451 845 3486 845Z" fill="currentColor" /></svg>