<svg viewBox="0 0 4188 1100" xmlns="http://www.w3.org/2000/svg"><path d="M-1 838Q-5 839 -6 835Q-7 830 -7.5 824.0Q-8 818 -8 811Q-8 751 68 575Q26 554 26 519Q26 493 53.5 465.0Q81 437 130 415L133 414Q145 378 152.5 348.0Q160 318 161 294Q118 303 86 303Q6 303 6 251Q6 225 32.0 208.5Q58 192 92 192Q169 192 178 262L246 250Q299 241 368 241Q393 241 417.0 242.5Q441 244 463 246Q630 267 630 357Q630 430 547 490Q513 515 468.5 534.5Q424 554 369 570Q271 599 197 599Q184 599 171.5 598.5Q159 598 147 597Q99 694 99 734Q99 762 110 780Q121 802 143 802L150 800Q152 800 153.0 799.5Q154 799 155 799Q160 799 160 806Q160 811 155 811Q119 813 98.5 792.5Q78 772 75 738Q74 687 114 590Q95 587 82 581Q1 761 1 819Q1 828 2 832Q2 836 -1 838ZM75 272Q90 272 111.5 270.0Q133 268 161 264Q155 198 85 203Q62 204 44.0 217.5Q26 231 26 248Q26 272 75 272ZM184 584Q289 584 388 545Q449 521 494.5 489.0Q540 457 565.5 421.5Q591 386 591 354Q591 281 460 266Q426 263 384 263Q346 263 314.0 265.5Q282 268 256 275Q243 277 224.0 281.0Q205 285 179 291Q178 337 155 408Q183 397 218 393Q240 355 258 331Q270 313 296 313Q313 313 313 323Q313 326 309 331Q294 346 267 386Q296 383 320 383Q418 383 440 421Q443 427 436 427Q430 427 425 424Q406 412 375.5 405.5Q345 399 302 399Q291 399 279.5 399.5Q268 400 257 401Q201 488 155 582Q161 583 169.0 583.5Q177 584 184 584ZM121 575Q139 536 161.0 494.0Q183 452 208 408Q191 410 176.0 414.5Q161 419 148 424Q139 447 124.5 481.5Q110 516 89 563Q103 570 121 575ZM77 555Q110 478 126 435Q56 472 56 515Q56 536 77 555ZM468 751Q445 751 445 721Q445 697 463 669Q505 606 554 584Q575 574 595 574Q605 574 617.0 579.5Q629 585 629 595Q629 600 622 601Q618 602 616.5 603.0Q615 604 614 605Q591 648 591 685Q591 732 628 732Q667 732 725 671Q730 665 733 665Q736 665 736 669Q736 673 733 678Q666 750 616 750Q592 750 577 729Q561 707 560 676Q535 709 510 731Q484 751 468 751ZM489 721Q500 721 518 706Q534 692 545.0 678.5Q556 665 561 651Q563 634 567.5 620.5Q572 607 577 596Q525 595 488 668Q477 688 477 704Q477 721 489 721ZM770 756Q755 756 743.5 747.0Q732 738 729 725Q725 712 725 703Q725 697 727 695Q727 687 734 687Q736 687 737 688Q755 710 784 721Q784 712 781 702Q777 687 767 674Q747 647 747 616Q747 544 835 511Q859 503 877 503Q916 503 916 535Q916 555 903 574Q897 582 893 583Q889 584 889 579Q889 575 892 571Q899 558 899 549Q899 534 878 534Q876 534 873.0 534.0Q870 534 867 535Q799 547 775 614Q772 624 772 633Q772 649 787 675Q803 701 804 716Q804 724 803 727Q809 728 815.0 728.5Q821 729 827 729Q845 729 861 725Q887 718 910.0 704.5Q933 691 952 669Q955 665 959 665Q963 665 963 670Q963 675 959 679Q906 729 859 738Q841 741 825 741Q818 741 811.5 740.5Q805 740 799 739Q788 756 770 756ZM764 739Q772 739 777 734Q753 727 735 709Q735 722 744.5 730.5Q754 739 764 739ZM996 756Q981 756 969.5 747.0Q958 738 955 725Q951 712 951 703Q951 697 953 695Q953 687 960 687Q962 687 963 688Q981 710 1010 721Q1010 712 1007 702Q1003 687 993 674Q973 647 973 616Q973 544 1061 511Q1085 503 1103 503Q1142 503 1142 535Q1142 555 1129 574Q1123 582 1119 583Q1115 584 1115 579Q1115 575 1118 571Q1125 558 1125 549Q1125 534 1104 534Q1102 534 1099.0 534.0Q1096 534 1093 535Q1025 547 1001 614Q998 624 998 633Q998 649 1013 675Q1029 701 1030 716Q1030 724 1029 727Q1035 728 1041.0 728.5Q1047 729 1053 729Q1071 729 1087 725Q1113 718 1136.0 704.5Q1159 691 1178 669Q1181 665 1185 665Q1189 665 1189 670Q1189 675 1185 679Q1132 729 1085 738Q1067 741 1051 741Q1044 741 1037.5 740.5Q1031 740 1025 739Q1014 756 996 756ZM990 739Q998 739 1003 734Q979 727 961 709Q961 722 970.5 730.5Q980 739 990 739ZM1303 500Q1294 500 1286.5 492.5Q1279 485 1279 476Q1279 464 1290 456Q1298 449 1308 449Q1331 449 1331 469Q1331 500 1303 500ZM1236 750Q1178 749 1184 670Q1185 636 1221 583Q1227 572 1247 572Q1262 572 1262 581L1261 586L1236 629Q1221 657 1220 672Q1219 677 1218.5 682.5Q1218 688 1218 693Q1218 734 1247 734Q1287 734 1347 671Q1353 664 1357 664Q1360 665 1360 669Q1360 672 1357 677Q1287 752 1236 750ZM1383 768Q1342 768 1342 720Q1342 684 1360 636Q1359 631 1358.5 625.5Q1358 620 1358 614Q1358 561 1409 557Q1422 541 1433 541Q1451 541 1451 551Q1451 554 1448 557L1445 560Q1468 567 1483.0 586.0Q1498 605 1498 627Q1498 666 1477 704L1475 706Q1534 704 1570 667Q1573 664 1577 664Q1580 664 1580 669Q1580 674 1574 679Q1527 720 1466 720Q1449 741 1426.0 754.5Q1403 768 1383 768ZM1455 705Q1477 664 1477 626Q1477 603 1466.0 587.0Q1455 571 1436 569Q1406 602 1388 646Q1400 698 1455 705ZM1397 750Q1425 750 1447 719Q1401 713 1377 681Q1375 691 1373.5 700.0Q1372 709 1372 716Q1372 750 1397 750ZM1560 751Q1553 751 1548.0 745.0Q1543 739 1544 735L1574 666Q1600 605 1600 592Q1603 588 1620 580Q1624 578 1627.0 577.0Q1630 576 1633 576Q1640 576 1640 585Q1633 605 1619.5 636.5Q1606 668 1585 712L1692 597Q1706 582 1713 582Q1718 582 1718 588Q1718 590 1717.5 592.5Q1717 595 1716 598Q1695 671 1695 698Q1695 732 1718 732Q1739 732 1768 709Q1773 705 1783.5 695.0Q1794 685 1809 669Q1813 665 1817 665Q1820 665 1820 669Q1821 671 1818 676Q1755 746 1706 746Q1662 746 1662 677Q1662 669 1662.5 661.0Q1663 653 1664 644L1617 689Q1609 696 1601.5 704.0Q1594 712 1588 720L1568 745Q1565 751 1560 751ZM1853 756Q1838 756 1826.5 747.0Q1815 738 1812 725Q1808 712 1808 703Q1808 697 1810 695Q1810 687 1817 687Q1819 687 1820 688Q1838 710 1867 721Q1867 712 1864 702Q1860 687 1850 674Q1830 647 1830 616Q1830 544 1918 511Q1942 503 1960 503Q1999 503 1999 535Q1999 555 1986 574Q1980 582 1976 583Q1972 584 1972 579Q1972 575 1975 571Q1982 558 1982 549Q1982 534 1961 534Q1959 534 1956.0 534.0Q1953 534 1950 535Q1882 547 1858 614Q1855 624 1855 633Q1855 649 1870 675Q1886 701 1887 716Q1887 724 1886 727Q1892 728 1898.0 728.5Q1904 729 1910 729Q1928 729 1944 725Q1970 718 1993.0 704.5Q2016 691 2035 669Q2038 665 2042 665Q2046 665 2046 670Q2046 675 2042 679Q1989 729 1942 738Q1924 741 1908 741Q1901 741 1894.5 740.5Q1888 740 1882 739Q1871 756 1853 756ZM1847 739Q1855 739 1860 734Q1836 727 1818 709Q1818 722 1827.5 730.5Q1837 739 1847 739ZM2575 782Q2502 782 2450.0 759.5Q2398 737 2370.0 697.5Q2342 658 2342 608Q2342 560 2369 506Q2319 476 2319 418Q2319 361 2367 327Q2414 292 2483 292Q2535 292 2590 310Q2713 252 2841 252Q2910 252 2945 281Q2974 305 2974 343Q2974 370 2961 393Q2941 430 2901.5 462.5Q2862 495 2803 523L2802 524Q2796 526 2794 526Q2792 526 2792 524Q2792 520 2797 516Q2802 506 2802 497Q2802 468 2766 428Q2753 414 2741.0 403.0Q2729 392 2717 384Q2692 367 2667.0 353.0Q2642 339 2616 329Q2492 383 2422 476Q2415 483 2409.5 491.0Q2404 499 2399 507Q2441 524 2485 524Q2542 524 2552 503Q2552 501 2554 501Q2557 501 2558.5 503.0Q2560 505 2558 507Q2552 519 2528.5 526.0Q2505 533 2474 533Q2431 533 2392 519Q2361 571 2361 618Q2361 682 2421.0 719.5Q2481 757 2582 757Q2607 757 2634 754Q2710 746 2756 736Q2843 713 2891 668Q2895 664 2897 664Q2901 664 2901 670Q2900 673 2896 679Q2855 714 2766 746Q2729 759 2697.0 766.5Q2665 774 2636 778Q2620 780 2604.5 781.0Q2589 782 2575 782ZM2813 506Q2835 494 2851.5 484.0Q2868 474 2878 467Q2920 435 2938 397Q2948 377 2948 357Q2948 320 2912 301Q2878 283 2819 283Q2729 283 2627 324Q2652 334 2675.5 347.5Q2699 361 2722 378Q2754 401 2780 430Q2814 468 2814 496Q2814 498 2814.0 501.0Q2814 504 2813 506ZM2375 494Q2381 483 2388.0 472.5Q2395 462 2403 452Q2468 371 2576 316Q2531 304 2487 304Q2423 304 2374 336Q2329 366 2329 415Q2329 466 2375 494ZM2923 768Q2882 768 2882 720Q2882 684 2900 636Q2899 631 2898.5 625.5Q2898 620 2898 614Q2898 561 2949 557Q2962 541 2973 541Q2991 541 2991 551Q2991 554 2988 557L2985 560Q3008 567 3023.0 586.0Q3038 605 3038 627Q3038 666 3017 704L3015 706Q3074 704 3110 667Q3113 664 3117 664Q3120 664 3120 669Q3120 674 3114 679Q3067 720 3006 720Q2989 741 2966.0 754.5Q2943 768 2923 768ZM2995 705Q3017 664 3017 626Q3017 603 3006.0 587.0Q2995 571 2976 569Q2946 602 2928 646Q2940 698 2995 705ZM2937 750Q2965 750 2987 719Q2941 713 2917 681Q2915 691 2913.5 700.0Q2912 709 2912 716Q2912 750 2937 750ZM3100 751Q3093 751 3088.0 745.0Q3083 739 3084 735L3114 666Q3140 605 3140 592Q3143 588 3160 580Q3164 578 3167.0 577.0Q3170 576 3173 576Q3180 576 3180 585Q3173 605 3159.5 636.5Q3146 668 3125 712L3232 597Q3246 582 3253 582Q3258 582 3258 588Q3258 590 3257.5 592.5Q3257 595 3256 598Q3235 671 3235 698Q3235 732 3258 732Q3279 732 3308 709Q3313 705 3323.5 695.0Q3334 685 3349 669Q3353 665 3357 665Q3360 665 3360 669Q3361 671 3358 676Q3295 746 3246 746Q3202 746 3202 677Q3202 669 3202.5 661.0Q3203 653 3204 644L3157 689Q3149 696 3141.5 704.0Q3134 712 3128 720L3108 745Q3105 751 3100 751ZM3096 959Q3060 959 3037 938Q3017 918 3017 891Q3017 863 3037 843Q3040 839 3043 839Q3047 839 3047 843Q3047 845 3044 850Q3030 864 3030 888Q3030 911 3045 928Q3061 947 3091 947Q3137 947 3183 910Q3206 892 3226.5 867.5Q3247 843 3266 812Q3298 757 3326.5 703.0Q3355 649 3380 597L3353 598Q3332 596 3331 586V585Q3331 577 3345 577H3389Q3411 529 3425.5 497.5Q3440 466 3448 451Q3491 368 3527 335Q3545 317 3560 317Q3588 317 3588 361Q3588 382 3577 406Q3542 477 3429 576L3529 577Q3540 549 3555.0 517.0Q3570 485 3590 448Q3659 320 3709 320Q3735 320 3735 352Q3735 366 3729 383Q3701 472 3562 591Q3533 644 3533 696Q3533 736 3560 736Q3577 736 3602 721Q3616 713 3630.5 700.5Q3645 688 3661 671Q3667 664 3671 664Q3675 665 3675 669Q3675 673 3671 677Q3602 750 3553 750Q3503 750 3503 694Q3503 680 3506.5 660.0Q3510 640 3517 614Q3521 605 3522 597Q3508 598 3480.5 598.0Q3453 598 3412 599Q3373 677 3292 827Q3255 891 3212 922Q3163 959 3096 959ZM3570 571Q3590 551 3609.5 529.0Q3629 507 3648 482Q3670 453 3685.5 428.0Q3701 403 3709 381Q3716 363 3716 351Q3716 335 3705 335Q3688 335 3667 372Q3639 419 3615.0 469.0Q3591 519 3570 571ZM3426 568Q3520 480 3558 396Q3570 370 3570 353Q3570 341 3564 341Q3552 341 3523 389Q3501 429 3476.5 473.5Q3452 518 3426 568ZM3788 500Q3779 500 3771.5 492.5Q3764 485 3764 476Q3764 464 3775 456Q3783 449 3793 449Q3816 449 3816 469Q3816 500 3788 500ZM3721 750Q3663 749 3669 670Q3670 636 3706 583Q3712 572 3732 572Q3747 572 3747 581L3746 586L3721 629Q3706 657 3705 672Q3704 677 3703.5 682.5Q3703 688 3703 693Q3703 734 3732 734Q3772 734 3832 671Q3838 664 3842 664Q3845 665 3845 669Q3845 672 3842 677Q3772 752 3721 750ZM3887 757Q3832 757 3832 697Q3832 658 3871 612Q3913 562 3952 562Q3984 562 3984 591Q3984 601 3977 616Q3973 623 3970.0 627.5Q3967 632 3965 636Q3962 639 3960 639Q3954 639 3958 629Q3965 618 3965 609Q3965 597 3951 597Q3933 597 3913 612Q3888 631 3873.0 657.5Q3858 684 3858 706Q3858 742 3896 742Q3914 742 3944 731Q3983 714 4025 671Q4032 664 4035 664Q4038 665 4038 669Q4038 672 4035 677Q3960 757 3887 757ZM4085 750Q4045 749 4036 709Q4035 702 4034.5 696.0Q4034 690 4034 684Q4034 646 4055 597Q4042 598 4036.0 598.0Q4030 598 4032 599Q4016 597 4016 586V584Q4016 577 4030 577L4048 576H4066Q4070 568 4078.0 552.5Q4086 537 4099 515Q4106 503 4115.5 488.0Q4125 473 4136 456Q4150 444 4170 444Q4188 444 4188 453Q4188 455 4186 457Q4173 475 4153.0 505.0Q4133 535 4106 576H4204Q4213 579 4213 584Q4213 593 4191 596Q4187 597 4163.0 597.0Q4139 597 4095 597Q4064 655 4064 691Q4064 732 4099 732Q4116 732 4136 721Q4150 713 4165.0 700.5Q4180 688 4196 671Q4201 665 4205 665Q4209 665 4209 669Q4209 674 4206 677Q4136 751 4085 750Z" fill="currentColor" /></svg>