<svg viewBox="0 0 6078 1152" xmlns="http://www.w3.org/2000/svg"><path d="M63 954V254H187Q268 254 305.5 308.0Q343 362 343 478V483Q343 599 305.5 652.5Q268 706 187 706H143V954ZM143 643H187Q264 643 264 496V465Q264 318 187 318H143ZM518 969Q460 969 434.0 930.5Q408 892 408 805V787Q408 700 434.0 661.5Q460 623 518 623Q569 623 598 663V558Q598 462 538 462Q514 462 488.5 477.5Q463 493 441 521L414 465Q439 435 475.0 417.0Q511 399 545 399Q675 399 675 575V954H628L612 889Q602 926 577.0 947.5Q552 969 518 969ZM534 906Q598 906 598 809V782Q598 677 534 677Q484 677 484 772V811Q484 906 534 906ZM891 969Q801 969 801 836V476H751V414H804L831 281H877V414H948V476H877V852Q877 877 885.0 891.0Q893 905 906 905Q926 905 946 889L961 948Q928 969 891 969ZM1033 954V214H1106V478Q1128 399 1205 399Q1261 399 1286.5 450.0Q1312 501 1312 613V954H1235V586Q1235 461 1186 461Q1110 461 1110 675V954ZM1712 954 1640 534 1568 954H1491L1392 414H1468L1533 818L1601 414H1678L1748 817L1813 414H1888L1790 954ZM2067 969Q2009 969 1983.0 930.5Q1957 892 1957 805V787Q1957 700 1983.0 661.5Q2009 623 2067 623Q2118 623 2147 663V558Q2147 462 2087 462Q2063 462 2037.5 477.5Q2012 493 1990 521L1963 465Q1988 435 2024.0 417.0Q2060 399 2094 399Q2224 399 2224 575V954H2177L2161 889Q2151 926 2126.0 947.5Q2101 969 2067 969ZM2083 906Q2147 906 2147 809V782Q2147 677 2083 677Q2033 677 2033 772V811Q2033 906 2083 906ZM2369 1149Q2320 1149 2273 1104L2300 1052Q2336 1085 2364 1085Q2386 1085 2399.0 1065.5Q2412 1046 2420 1003L2428 957L2296 414H2373L2459 806L2534 414H2612L2474 1036Q2462 1088 2434.5 1118.5Q2407 1149 2369 1149ZM2954 969Q2886 969 2854.0 915.0Q2822 861 2822 745V468Q2822 348 2859.0 293.5Q2896 239 2977 239Q3042 239 3075.5 277.5Q3109 316 3116 399L3043 417Q3038 357 3022.0 330.5Q3006 304 2975 304Q2936 304 2918.5 339.0Q2901 374 2901 451V760Q2901 834 2918.0 869.0Q2935 904 2972 904Q3050 904 3050 769V647H2968V583H3125V953H3076L3062 888Q3033 969 2954 969ZM3371 969Q3298 969 3264.0 918.5Q3230 868 3230 759V609Q3230 499 3264.0 449.0Q3298 399 3371 399Q3444 399 3477.5 449.5Q3511 500 3511 609V759Q3511 868 3477.5 918.5Q3444 969 3371 969ZM3434 773V595Q3434 461 3371 461Q3306 461 3306 595V773Q3306 907 3371 907Q3434 907 3434 773ZM3720 969Q3630 969 3630 836V476H3580V414H3633L3660 281H3706V414H3777V476H3706V852Q3706 877 3714.0 891.0Q3722 905 3735 905Q3755 905 3775 889L3790 948Q3757 969 3720 969ZM3862 954V214H3935V478Q3957 399 4034 399Q4090 399 4115.5 450.0Q4141 501 4141 613V954H4064V586Q4064 461 4015 461Q3939 461 3939 675V954ZM4260 954V414H4337V954ZM4257 308V214H4340V308ZM4579 969Q4449 969 4449 779V609Q4449 500 4481.0 449.5Q4513 399 4582 399Q4644 399 4676.0 435.5Q4708 472 4715 551L4645 570Q4641 461 4584 461Q4552 461 4538.5 491.5Q4525 522 4525 595V786Q4525 849 4539.0 877.5Q4553 906 4584 906Q4616 906 4631.0 879.5Q4646 853 4653 787L4718 797Q4710 888 4677.0 928.5Q4644 969 4579 969ZM5096 969Q5014 969 4976.5 915.5Q4939 862 4939 745V463Q4939 346 4976.5 292.5Q5014 239 5096 239Q5177 239 5214.5 293.0Q5252 347 5252 463V745Q5252 861 5214.5 915.0Q5177 969 5096 969ZM5096 904Q5173 904 5173 760V448Q5173 304 5096 304Q5056 304 5037.0 339.0Q5018 374 5018 448V760Q5018 834 5037.0 869.0Q5056 904 5096 904ZM5364 954V414H5411L5431 500Q5452 399 5536 399Q5592 399 5617.5 450.0Q5643 501 5643 613V954H5566V586Q5566 461 5517 461Q5441 461 5441 675V954ZM5892 969Q5817 969 5782.5 918.5Q5748 868 5748 759V609Q5748 500 5782.5 449.5Q5817 399 5892 399Q5964 399 5996.5 448.5Q6029 498 6029 609V716H5824V773Q5824 907 5888 907Q5920 907 5936.5 883.0Q5953 859 5960 803L6027 814Q6020 895 5988.0 932.0Q5956 969 5892 969ZM5824 652H5952V595Q5952 461 5889 461Q5824 461 5824 595Z" fill="currentColor" /></svg>