<svg viewBox="0 0 7991 931" xmlns="http://www.w3.org/2000/svg"><path d="M0 40H208Q315 40 368.0 91.5Q421 143 421 246V287Q421 385 367.0 435.5Q313 486 208 486H56V436H192Q281 436 321.0 399.5Q361 363 361 287V246Q361 163 321.0 126.5Q281 90 192 90H46L60 72V740H0ZM861 567V371Q861 306 826.5 276.5Q792 247 716 247Q667 247 620.0 261.0Q573 275 532 301L522 250Q547 233 581.5 220.5Q616 208 654.0 200.5Q692 193 727 193Q824 193 872.5 237.5Q921 282 921 371V740H886ZM686 747Q603 747 555.5 707.5Q508 668 508 598V565Q508 494 556.0 454.5Q604 415 691 415Q783 415 837.0 452.5Q891 490 891 560V595Q891 666 836.0 706.5Q781 747 686 747ZM702 699Q775 699 818.0 667.5Q861 636 861 584V568Q861 518 820.5 490.5Q780 463 707 463Q640 463 604.0 487.5Q568 512 568 573V587Q568 642 603.0 670.5Q638 699 702 699ZM1253 747Q1184 747 1152.0 712.5Q1120 678 1120 605V200L1138 69H1180V605Q1180 656 1197.0 674.5Q1214 693 1260 693Q1274 693 1288.5 691.5Q1303 690 1317 686L1328 736Q1316 739 1303.5 741.5Q1291 744 1278.0 745.5Q1265 747 1253 747ZM1018 200H1315V250H1018ZM1834 409Q1834 322 1798.0 282.0Q1762 242 1685 242Q1596 242 1548.0 302.5Q1500 363 1500 476L1467 541L1468 476Q1468 339 1529.5 266.0Q1591 193 1705 193Q1801 193 1847.5 246.0Q1894 299 1894 409V740H1834ZM1440 0H1500V383V740H1440ZM1993 200H2052L2193 703H2197L2343 200H2436L2582 703H2585L2727 200H2786L2640 740H2530L2391 267H2388L2249 740H2139ZM3213 567V371Q3213 306 3178.5 276.5Q3144 247 3068 247Q3019 247 2972.0 261.0Q2925 275 2884 301L2874 250Q2899 233 2933.5 220.5Q2968 208 3006.0 200.5Q3044 193 3079 193Q3176 193 3224.5 237.5Q3273 282 3273 371V740H3238ZM3038 747Q2955 747 2907.5 707.5Q2860 668 2860 598V565Q2860 494 2908.0 454.5Q2956 415 3043 415Q3135 415 3189.0 452.5Q3243 490 3243 560V595Q3243 666 3188.0 706.5Q3133 747 3038 747ZM3054 699Q3127 699 3170.0 667.5Q3213 636 3213 584V568Q3213 518 3172.5 490.5Q3132 463 3059 463Q2992 463 2956.0 487.5Q2920 512 2920 573V587Q2920 642 2955.0 670.5Q2990 699 3054 699ZM3513 920 3584 729 3578 767 3362 200H3422L3605 674H3609L3779 200H3838L3578 931ZM4238 686H4586V740H4192V40H4582V94H4238L4252 51V390L4238 366H4563V416H4238L4252 392V729ZM4650 200H4723L5131 740H5058ZM4867 446 4922 463 4714 740H4645ZM4852 472 5057 200H5126L4908 488ZM5394 747Q5325 747 5293.0 712.5Q5261 678 5261 605V200L5279 69H5321V605Q5321 656 5338.0 674.5Q5355 693 5401 693Q5415 693 5429.5 691.5Q5444 690 5458 686L5469 736Q5457 739 5444.5 741.5Q5432 744 5419.0 745.5Q5406 747 5394 747ZM5159 200H5456V250H5159ZM5576 200H5611L5636 394V740H5576ZM5612 435Q5612 316 5660.5 254.5Q5709 193 5800 193Q5816 193 5832.5 195.0Q5849 197 5865 201L5861 255Q5832 247 5797 247Q5718 247 5677.0 299.0Q5636 351 5636 455ZM6149 747Q6075 747 6023.5 721.5Q5972 696 5945.0 646.5Q5918 597 5918 526V414Q5918 345 5946.5 295.5Q5975 246 6028.0 219.5Q6081 193 6155 193Q6267 193 6327.5 253.5Q6388 314 6388 424V493H5966V443H6339L6328 463V410Q6328 333 6282.0 290.0Q6236 247 6155 247Q6070 247 6024.0 291.0Q5978 335 5978 415V531Q5978 610 6022.5 651.5Q6067 693 6149 693Q6223 693 6268.0 663.5Q6313 634 6324 579L6382 582Q6366 661 6305.0 704.0Q6244 747 6149 747ZM7311 407Q7311 323 7275.0 282.5Q7239 242 7165 242Q7077 242 7030.0 302.5Q6983 363 6983 476L6950 541V476Q6950 339 7011.0 266.0Q7072 193 7186 193Q7280 193 7325.5 245.5Q7371 298 7371 407V740H7311ZM6535 200H6570L6595 393V740H6535ZM6923 407Q6923 323 6887.0 282.5Q6851 242 6777 242Q6689 242 6642.0 302.5Q6595 363 6595 476L6563 541V476Q6563 339 6623.5 266.0Q6684 193 6797 193Q6892 193 6937.5 246.0Q6983 299 6983 407V740H6923ZM7752 747Q7678 747 7626.5 721.5Q7575 696 7548.0 646.5Q7521 597 7521 526V414Q7521 345 7549.5 295.5Q7578 246 7631.0 219.5Q7684 193 7758 193Q7870 193 7930.5 253.5Q7991 314 7991 424V493H7569V443H7942L7931 463V410Q7931 333 7885.0 290.0Q7839 247 7758 247Q7673 247 7627.0 291.0Q7581 335 7581 415V531Q7581 610 7625.5 651.5Q7670 693 7752 693Q7826 693 7871.0 663.5Q7916 634 7927 579L7985 582Q7969 661 7908.0 704.0Q7847 747 7752 747Z" fill="currentColor" /></svg>