<svg viewBox="0 0 2855 1225" xmlns="http://www.w3.org/2000/svg"><path d="M70 1025V325H280Q344 325 394.0 348.5Q444 372 473.5 421.0Q503 470 503 547Q503 623 473.5 674.5Q444 726 394.0 752.0Q344 778 280 778H123V1025ZM123 730H280Q326 730 364.0 711.0Q402 692 425.5 652.5Q449 613 449 552Q449 492 425.5 452.0Q402 412 364.0 392.5Q326 373 280 373H123ZM1024 325H1077V1025H1024V699H648V1025H595V325H648V651H1024ZM1659 804V325H1606V805Q1606 866 1582.5 906.5Q1559 947 1519.5 967.5Q1480 988 1433 988Q1384 988 1344.0 967.5Q1304 947 1280.0 906.5Q1256 866 1256 805V325H1203V804Q1203 873 1224.0 918.0Q1245 963 1279.0 989.0Q1313 1015 1353.5 1025.5Q1394 1036 1433 1036Q1471 1036 1510.5 1025.5Q1550 1015 1583.5 989.0Q1617 963 1638.0 918.0Q1659 873 1659 804ZM1954 325H1784V1025H1954Q2039 1025 2105.5 987.5Q2172 950 2210.5 872.5Q2249 795 2249 675Q2249 554 2210.5 477.0Q2172 400 2105.5 362.5Q2039 325 1954 325ZM1952 977H1837V373H1952Q2062 373 2128.5 451.0Q2195 529 2195 675Q2195 818 2129.0 897.5Q2063 977 1952 977ZM2800 804V325H2747V805Q2747 866 2723.5 906.5Q2700 947 2660.5 967.5Q2621 988 2574 988Q2525 988 2485.0 967.5Q2445 947 2421.0 906.5Q2397 866 2397 805V325H2344V804Q2344 873 2365.0 918.0Q2386 963 2420.0 989.0Q2454 1015 2494.5 1025.5Q2535 1036 2574 1036Q2612 1036 2651.5 1025.5Q2691 1015 2724.5 989.0Q2758 963 2779.0 918.0Q2800 873 2800 804Z" fill="currentColor" /></svg>