<svg viewBox="0 0 3442 822.0" xmlns="http://www.w3.org/2000/svg"><path d="M180 89.0Q290 22.0 306.0 22.0Q322 22.0 356.5 63.0Q391 104.0 391 137.0V448.0Q391 455.0 311.5 487.0Q232 519.0 180 535.0V636.0Q180 673.0 188.0 689.0Q196 705.0 221 705.0V736.0L16 822.0L0 790.0Q22 790.0 42 764.0Q60 739.0 60 688.0V170.0Q60 109.0 19 101.0V79.0L120 22.0Q140 30.0 160.0 51.0Q180 72.0 180 89.0ZM219 118.0Q201 118.0 180 133.0V488.0Q206 488.0 238.0 471.5Q270 455.0 270 437.0V192.0Q270 118.0 219 118.0ZM601 288.0V642.0Q601 703.0 642 711.0V733.0L541 790.0Q519 781.0 500.0 760.5Q481 740.0 481 722.0V368.0Q481 307.0 440 299.0V277.0L541 220.0Q563 229.0 582.0 249.5Q601 270.0 601 288.0ZM466 95.0V34.0Q466 31.0 507.5 15.5Q549 0.0 555.5 0.0Q562 0.0 574.5 17.0Q587 34.0 587 52.0V125.0Q587 128.0 547.0 143.5Q507 159.0 498.0 159.0Q489 159.0 477.5 141.5Q466 124.0 466 95.0ZM652 280.0 762 220.0Q769 222.0 778.5 225.5Q788 229.0 804.5 245.0Q821 261.0 821 281.0Q826 279.0 868.5 249.5Q911 220.0 923 220.0Q955 220.0 983.0 262.0Q1011 304.0 1011 339.0V388.0L908 446.0L891 432.0Q891 348.0 875 336.0Q857 323.0 821 323.0V642.0Q821 703.0 862 711.0V733.0L761 790.0Q739 781.0 720.0 760.5Q701 740.0 701 722.0V390.0Q701 346.0 685.5 324.0Q670 302.0 652 302.0ZM1331 352.0V635.0Q1331 672.0 1343.0 686.5Q1355 701.0 1380 707.0V729.0L1271 790.0Q1249 781.0 1230.0 760.5Q1211 740.0 1211 723.0L1086 790.0Q1083 788.0 1077.0 784.5Q1071 781.0 1056.5 769.5Q1042 758.0 1031 745.0Q1001 712.0 1001 670.0V506.0Q1001 490.0 1053.0 465.0Q1105 440.0 1157 424.0L1210 407.0Q1210 350.0 1180.0 327.5Q1150 305.0 1064 305.0V275.0Q1219 220.0 1238 220.0Q1271 220.0 1301.0 263.0Q1331 306.0 1331 352.0ZM1211 678.0V452.0Q1186 461.0 1173.5 467.0Q1161 473.0 1147 486.0Q1121 510.0 1121 569.0V634.0Q1121 660.0 1136.5 676.5Q1152 693.0 1171.0 693.0Q1190 693.0 1211 678.0ZM1551 116.0V235.0H1602L1592 284.0H1551V642.0Q1551 703.0 1592 711.0V733.0L1491 790.0Q1469 781.0 1450.0 760.5Q1431 740.0 1431 722.0V285.0H1390L1400 243.0Q1430 243.0 1472.5 202.5Q1515 162.0 1523 116.0ZM1961 352.0V635.0Q1961 672.0 1973.0 686.5Q1985 701.0 2010 707.0V729.0L1901 790.0Q1879 781.0 1860.0 760.5Q1841 740.0 1841 723.0L1716 790.0Q1713 788.0 1707.0 784.5Q1701 781.0 1686.5 769.5Q1672 758.0 1661 745.0Q1631 712.0 1631 670.0V506.0Q1631 490.0 1683.0 465.0Q1735 440.0 1787 424.0L1840 407.0Q1840 350.0 1810.0 327.5Q1780 305.0 1694 305.0V275.0Q1849 220.0 1868 220.0Q1901 220.0 1931.0 263.0Q1961 306.0 1961 352.0ZM1841 678.0V452.0Q1816 461.0 1803.5 467.0Q1791 473.0 1777 486.0Q1751 510.0 1751 569.0V634.0Q1751 660.0 1766.5 676.5Q1782 693.0 1801.0 693.0Q1820 693.0 1841 678.0ZM2251 644.0V112.0Q2251 105.0 2365.0 62.5Q2479 20.0 2496.0 20.0Q2513 20.0 2547.5 61.0Q2582 102.0 2582 135.0V697.0Q2582 705.0 2472.5 747.5Q2363 790.0 2338.5 790.0Q2314 790.0 2282.5 747.0Q2251 704.0 2251 644.0ZM2422 698.0Q2441 698.0 2461 682.0V187.0Q2461 113.0 2410 113.0Q2390 113.0 2371 128.0V624.0Q2371 698.0 2422 698.0ZM2682 722.0V383.0Q2682 350.0 2668.0 326.0Q2654 302.0 2633 302.0V280.0Q2640 279.0 2742 219.0Q2749 221.0 2759.0 224.5Q2769 228.0 2785.5 244.0Q2802 260.0 2802 281.0Q2808 278.0 2836 262.0Q2910 220.0 2924 220.0Q2956 220.0 2984.0 262.0Q3012 304.0 3012 339.0V642.0Q3012 697.0 3061 707.0V729.0L2952 790.0Q2930 781.0 2911.0 760.5Q2892 740.0 2892 722.0V432.0Q2892 376.0 2879.5 346.5Q2867 317.0 2835 317.0L2802 323.0V642.0Q2802 703.0 2843 711.0V733.0L2742 790.0Q2720 781.0 2701.0 760.5Q2682 740.0 2682 722.0ZM3357 220.0Q3362 220.0 3382.0 235.5Q3402 251.0 3422.0 278.5Q3442 306.0 3442 332.0V500.0Q3442 518.0 3389.0 544.0Q3336 570.0 3286.5 586.5Q3237 603.0 3233 603.0Q3233 680.0 3300 698.0Q3333 706.0 3379 706.0V735.0Q3215 790.0 3204 790.0Q3174 790.0 3143.0 747.5Q3112 705.0 3112 648.0V312.0Q3112 305.0 3226.0 262.5Q3340 220.0 3357 220.0ZM3232 327.0V558.0Q3322 533.0 3322 450.0V379.0Q3322 351.0 3309.0 331.5Q3296 312.0 3276.0 312.0Q3256 312.0 3232 327.0Z" fill="currentColor" /></svg>