<svg viewBox="0 0 9834 1541" xmlns="http://www.w3.org/2000/svg"><path d="M718 170H792Q1089 170 1236 313Q1371 444 1371 684Q1371 897 1231 1027Q1082 1165 820 1165H718ZM0 170H538V1529H0ZM1608 0H2146V1531H1608ZM3153 511H3705V1531H3642Q3382 1531 3268 1440Q3153 1348 3153 1136ZM2431 1033Q2431 923 2460.0 828.5Q2489 734 2550 663Q2682 511 2928 511H3005V1531H2953Q2701 1531 2563 1393Q2431 1261 2431 1033ZM4064 895Q4061 883 4059 869L4055 841Q4051 811 4051.0 770.5Q4051 730 4069.5 677.0Q4088 624 4130 585Q4220 501 4408 501L5151 1154Q5161 1190 5161.0 1249.5Q5161 1309 5141.0 1362.5Q5121 1416 5077 1455Q4983 1541 4803 1541L4071 895ZM5168 511Q5198 557 5198 637Q5198 785 5087 858L4686 511ZM4035 1531Q4005 1485 4005 1405Q4005 1258 4115 1185L4517 1531ZM5994 1531Q5499 1531 5499 1079V517L5922 240H6072V1531ZM6217 511H6696V846H6217ZM6218 1104H6773V1192Q6773 1362 6669 1443Q6556 1531 6304 1531H6218ZM7754 511H7820Q8198 511 8281 767Q8308 852 8308 964V1074H7754ZM7032 1033Q7032 923 7061.0 828.5Q7090 734 7151 663Q7283 511 7529 511H7606V1531H7554Q7302 1531 7164 1393Q7032 1261 7032 1033ZM7754 1270H8254V1298Q8254 1391 8187 1455Q8105 1531 7954 1531H7754ZM9327 795Q9327 511 9694 511H9834V1021H9327ZM8627 511H9183V1531H8627Z" fill="currentColor" /></svg>