<svg viewBox="0 0 6094.240740740741 1284" xmlns="http://www.w3.org/2000/svg"><path d="M40.907407407407405 904Q-6.092592592592595 904 0.9074074074074048 874L209.9074074074074 42Q213.9074074074074 28 225.9074074074074 21.5Q237.9074074074074 15 259.9074074074074 15H421.9074074074074Q516.9074074074074 15 579.9074074074074 37.0Q642.9074074074074 59 674.9074074074074 103.5Q706.9074074074074 148 706.9074074074074 216Q706.9074074074074 292 677.4074074074074 348.0Q647.9074074074074 404 595.4074074074074 441.5Q542.9074074074074 479 472.9074074074074 502.0Q402.9074074074074 525 321.9074074074074 536Q284.9074074074074 540 244.9074074074074 542.5Q204.9074074074074 545 171.9074074074074 545L88.9074074074074 876Q84.9074074074074 890 74.4074074074074 897.0Q63.907407407407405 904 40.907407407407405 904ZM190.9074074074074 465Q213.9074074074074 465 239.9074074074074 464.0Q265.9074074074074 463 292.4074074074074 460.5Q318.9074074074074 458 342.9074074074074 455Q427.9074074074074 441 488.9074074074074 413.0Q549.9074074074074 385 583.4074074074074 338.5Q616.9074074074074 292 616.9074074074074 225Q616.9074074074074 179 594.9074074074074 150.0Q572.9074074074074 121 527.9074074074074 108.0Q482.9074074074074 95 410.9074074074074 95H284.9074074074074ZM786.9074074074074 907Q748.9074074074074 907 728.4074074074074 893.0Q707.9074074074074 879 700.4074074074074 856.0Q692.9074074074074 833 694.9074074074074 805.0Q696.9074074074074 777 702.9074074074074 748L885.9074074074074 31Q891.9074074074074 12 901.4074074074074 6.0Q910.9074074074074 0 929.9074074074074 0Q958.9074074074074 0 968.4074074074074 9.0Q977.9074074074074 18 971.9074074074074 36L791.9074074074074 745Q777.9074074074074 795 780.9074074074074 813.5Q783.9074074074074 832 805.9074074074074 832Q819.9074074074074 832 826.9074074074074 843.5Q833.9074074074074 855 831.9074074074074 869.5Q829.9074074074074 884 818.9074074074074 895.5Q807.9074074074074 907 786.9074074074074 907ZM781.9074074074074 907Q767.9074074074074 907 760.9074074074074 895.5Q753.9074074074074 884 755.4074074074074 869.5Q756.9074074074074 855 767.9074074074074 843.5Q778.9074074074074 832 799.9074074074074 832Q824.9074074074074 832 851.9074074074074 814.5Q878.9074074074074 797 907.4074074074074 764.5Q935.9074074074074 732 965.9074074074074 685.5Q995.9074074074074 639 1025.9074074074074 582Q1033.9074074074074 569 1047.4074074074074 570.0Q1060.9074074074074 571 1070.4074074074074 580.5Q1079.9074074074074 590 1072.9074074074074 604Q1034.9074074074074 679 999.9074074074074 736.5Q964.9074074074074 794 929.9074074074074 831.5Q894.9074074074074 869 858.9074074074074 888.0Q822.9074074074074 907 781.9074074074074 907ZM1113.9074074074074 907Q1075.9074074074074 907 1048.4074074074074 886.5Q1020.9074074074074 866 1005.4074074074074 828.5Q989.9074074074074 791 989.9074074074074 739Q989.9074074074074 692 1002.9074074074074 640.5Q1015.9074074074074 589 1041.9074074074074 541.5Q1067.9074074074074 494 1104.9074074074074 455.5Q1141.9074074074074 417 1190.9074074074074 394.0Q1239.9074074074074 371 1297.9074074074074 371Q1337.9074074074074 371 1380.4074074074074 384.0Q1422.9074074074074 397 1458.9074074074074 422L1444.9074074074074 494Q1397.9074074074074 467 1359.9074074074074 458.5Q1321.9074074074074 450 1290.9074074074074 450Q1250.9074074074074 450 1217.9074074074074 467.5Q1184.9074074074074 485 1159.4074074074074 514.0Q1133.9074074074074 543 1116.4074074074074 579.5Q1098.9074074074074 616 1089.9074074074074 654.0Q1080.9074074074074 692 1080.9074074074074 727Q1080.9074074074074 756 1087.4074074074074 779.0Q1093.9074074074074 802 1106.9074074074074 814.5Q1119.9074074074074 827 1138.9074074074074 827Q1176.9074074074074 827 1221.9074074074074 785.0Q1266.9074074074074 743 1314.4074074074074 662.5Q1361.9074074074074 582 1407.9074074074074 469L1440.9074074074074 515Q1389.9074074074074 646 1333.9074074074074 733.0Q1277.9074074074074 820 1222.4074074074074 863.5Q1166.9074074074074 907 1113.9074074074074 907ZM1416.9074074074074 907Q1377.9074074074074 907 1356.9074074074074 893.0Q1335.9074074074074 879 1328.4074074074074 856.0Q1320.9074074074074 833 1322.9074074074074 804.5Q1324.9074074074074 776 1331.9074074074074 748L1418.9074074074074 406Q1424.9074074074074 387 1434.4074074074074 381.0Q1443.9074074074074 375 1462.9074074074074 375Q1491.9074074074074 375 1501.4074074074074 384.0Q1510.9074074074074 393 1504.9074074074074 411L1419.9074074074074 745Q1405.9074074074074 795 1408.9074074074074 813.5Q1411.9074074074074 832 1433.9074074074074 832Q1447.9074074074074 832 1454.9074074074074 843.5Q1461.9074074074074 855 1460.4074074074074 869.5Q1458.9074074074074 884 1448.4074074074074 895.5Q1437.9074074074074 907 1416.9074074074074 907ZM1416.9074074074074 907Q1402.9074074074074 907 1395.9074074074074 895.5Q1388.9074074074074 884 1390.4074074074074 869.5Q1391.9074074074074 855 1402.9074074074074 843.5Q1413.9074074074074 832 1434.9074074074074 832Q1457.9074074074074 832 1486.9074074074074 809.0Q1515.9074074074074 786 1553.4074074074074 735.5Q1590.9074074074074 685 1641.9074074074074 601.0Q1692.9074074074074 517 1759.9074074074074 396Q1767.9074074074074 382 1781.9074074074074 383.5Q1795.9074074074074 385 1805.9074074074074 395.0Q1815.9074074074074 405 1807.9074074074074 418Q1734.9074074074074 561 1679.9074074074074 655.5Q1624.9074074074074 750 1581.9074074074074 805.0Q1538.9074074074074 860 1499.4074074074074 883.5Q1459.9074074074074 907 1416.9074074074074 907ZM1762.9074074074074 905Q1718.9074074074074 905 1692.4074074074074 884.5Q1665.9074074074074 864 1659.9074074074074 821.5Q1653.9074074074074 779 1670.9074074074074 715L1747.9074074074074 406Q1753.9074074074074 387 1763.4074074074074 381.0Q1772.9074074074074 375 1792.9074074074074 375Q1821.9074074074074 375 1830.9074074074074 384.0Q1839.9074074074074 393 1833.9074074074074 411L1751.9074074074074 731Q1744.9074074074074 758 1744.4074074074074 779.5Q1743.9074074074074 801 1754.4074074074074 813.5Q1764.9074074074074 826 1790.9074074074074 826Q1825.9074074074074 826 1864.4074074074074 797.0Q1902.9074074074074 768 1941.9074074074074 715.5Q1980.9074074074074 663 2017.4074074074074 591.5Q2053.9074074074074 520 2084.9074074074074 434L2087.9074074074074 406Q2093.9074074074074 387 2103.4074074074074 381.0Q2112.9074074074074 375 2132.9074074074074 375Q2161.9074074074074 375 2170.9074074074074 384.0Q2179.9074074074074 393 2174.9074074074074 411L2014.9074074074074 1040Q1991.9074074074074 1131 1962.4074074074074 1184.5Q1932.9074074074074 1238 1888.4074074074074 1261.0Q1843.9074074074074 1284 1775.9074074074074 1284Q1738.9074074074074 1284 1705.9074074074074 1275.0Q1672.9074074074074 1266 1645.4074074074074 1250.5Q1617.9074074074074 1235 1595.9074074074074 1217Q1580.9074074074074 1204 1576.4074074074074 1190.0Q1571.9074074074074 1176 1591.9074074074074 1159Q1608.9074074074074 1144 1619.9074074074074 1142.5Q1630.9074074074074 1141 1646.9074074074074 1155Q1675.9074074074074 1178 1707.9074074074074 1192.0Q1739.9074074074074 1206 1779.9074074074074 1206Q1821.9074074074074 1206 1849.4074074074074 1189.5Q1876.9074074074074 1173 1895.4074074074074 1136.0Q1913.9074074074074 1099 1929.9074074074074 1037L2014.9074074074074 701Q1985.9074074074074 752 1955.4074074074074 790.5Q1924.9074074074074 829 1892.9074074074074 854.5Q1860.9074074074074 880 1827.9074074074074 892.5Q1794.9074074074074 905 1762.9074074074074 905ZM2436.9074074074074 909Q2395.9074074074074 909 2370.9074074074074 892.0Q2345.9074074074074 875 2335.4074074074074 845.0Q2324.9074074074074 815 2326.9074074074074 776.5Q2328.9074074074074 738 2338.9074074074074 696L2408.9074074074074 405Q2412.9074074074074 391 2421.9074074074074 382.5Q2430.9074074074074 374 2455.9074074074074 374Q2485.9074074074074 374 2493.4074074074074 383.0Q2500.9074074074074 392 2495.9074074074074 410L2422.9074074074074 705Q2413.9074074074074 739 2411.4074074074074 767.0Q2408.9074074074074 795 2418.9074074074074 812.0Q2428.9074074074074 829 2457.9074074074074 829Q2486.9074074074074 829 2514.9074074074074 808.0Q2542.9074074074074 787 2567.9074074074074 752.5Q2592.9074074074074 718 2614.9074074074074 676.0Q2636.9074074074074 634 2651.9074074074074 592L2699.9074074074074 405Q2703.9074074074074 391 2712.4074074074074 382.5Q2720.9074074074074 374 2743.9074074074074 374Q2774.9074074074074 374 2781.9074074074074 383.0Q2788.9074074074074 392 2783.9074074074074 410L2717.9074074074074 692Q2714.9074074074074 711 2711.9074074074074 734.5Q2708.9074074074074 758 2711.4074074074074 780.0Q2713.9074074074074 802 2725.9074074074074 815.5Q2737.9074074074074 829 2763.9074074074074 829Q2795.9074074074074 829 2826.9074074074074 807.0Q2857.9074074074074 785 2883.9074074074074 749.5Q2909.9074074074074 714 2929.4074074074074 670.5Q2948.9074074074074 627 2958.9074074074074 583Q2964.9074074074074 555 2967.4074074074074 533.5Q2969.9074074074074 512 2968.9074074074074 492Q2946.9074074074074 476 2937.4074074074074 460.0Q2927.9074074074074 444 2927.9074074074074 424Q2927.9074074074074 401 2940.9074074074074 386.0Q2953.9074074074074 371 2980.9074074074074 371Q3011.9074074074074 371 3028.9074074074074 399.5Q3045.9074074074074 428 3048.9074074074074 472Q3050.9074074074074 490 3049.9074074074074 509.5Q3048.9074074074074 529 3046.4074074074074 549.5Q3043.9074074074074 570 3038.9074074074074 591Q3026.9074074074074 648 2999.9074074074074 704.5Q2972.9074074074074 761 2934.9074074074074 807.5Q2896.9074074074074 854 2848.4074074074074 881.5Q2799.9074074074074 909 2743.9074074074074 909Q2698.9074074074074 909 2671.9074074074074 891.5Q2644.9074074074074 874 2632.9074074074074 843.5Q2620.9074074074074 813 2618.9074074074074 775Q2594.9074074074074 816 2566.9074074074074 846.0Q2538.9074074074074 876 2506.9074074074074 892.5Q2474.9074074074074 909 2436.9074074074074 909ZM3113.9074074074074 499Q3070.9074074074074 499 3043.9074074074074 488.5Q3016.9074074074074 478 2986.9074074074074 457Q2975.9074074074074 450 2975.4074074074074 439.0Q2974.9074074074074 428 2980.9074074074074 418.0Q2986.9074074074074 408 2995.9074074074074 403.5Q3004.9074074074074 399 3012.9074074074074 405Q3030.9074074074074 418 3055.9074074074074 424.5Q3080.9074074074074 431 3120.9074074074074 431Q3157.9074074074074 431 3195.9074074074074 424.5Q3233.9074074074074 418 3264.4074074074074 407.5Q3294.9074074074074 397 3306.9074074074074 385Q3317.9074074074074 375 3327.9074074074074 383.0Q3337.9074074074074 391 3340.4074074074074 406.5Q3342.9074074074074 422 3328.9074074074074 434Q3289.9074074074074 465 3230.9074074074074 482.0Q3171.9074074074074 499 3113.9074074074074 499ZM3210.9074074074074 905Q3193.9074074074074 905 3180.4074074074074 898.0Q3166.9074074074074 891 3172.9074074074074 874L3288.9074074074074 406Q3294.9074074074074 387 3304.4074074074074 381.0Q3313.9074074074074 375 3333.9074074074074 375Q3362.9074074074074 375 3371.9074074074074 384.0Q3380.9074074074074 393 3374.9074074074074 411L3335.9074074074074 572Q3361.9074074074074 523 3387.9074074074074 485.0Q3413.9074074074074 447 3440.4074074074074 421.5Q3466.9074074074074 396 3490.4074074074074 383.5Q3513.9074074074074 371 3532.9074074074074 371Q3551.9074074074074 371 3559.9074074074074 383.0Q3567.9074074074074 395 3566.4074074074074 411.0Q3564.9074074074074 427 3554.4074074074074 439.0Q3543.9074074074074 451 3524.9074074074074 451Q3506.9074074074074 451 3476.4074074074074 478.0Q3445.9074074074074 505 3409.4074074074074 555.5Q3372.9074074074074 606 3336.4074074074074 675.5Q3299.9074074074074 745 3269.9074074074074 829L3257.9074074074074 879Q3254.9074074074074 892 3244.4074074074074 898.5Q3233.9074074074074 905 3210.9074074074074 905ZM3631.9074074074074 469Q3607.9074074074074 469 3588.4074074074074 464.5Q3568.9074074074074 460 3553.9074074074074 455.5Q3538.9074074074074 451 3525.9074074074074 451Q3506.9074074074074 451 3498.9074074074074 439.0Q3490.9074074074074 427 3491.9074074074074 411.0Q3492.9074074074074 395 3503.9074074074074 383.0Q3514.9074074074074 371 3533.9074074074074 371Q3557.9074074074074 371 3577.4074074074074 378.0Q3596.9074074074074 385 3614.9074074074074 392.0Q3632.9074074074074 399 3653.9074074074074 399Q3665.9074074074074 399 3677.9074074074074 396.0Q3689.9074074074074 393 3704.9074074074074 387Q3716.9074074074074 381 3726.9074074074074 390.0Q3736.9074074074074 399 3736.9074074074074 413.5Q3736.9074074074074 428 3718.9074074074074 439Q3684.9074074074074 459 3664.9074074074074 464.0Q3644.9074074074074 469 3631.9074074074074 469ZM3691.9074074074074 907Q3652.9074074074074 907 3632.4074074074074 893.0Q3611.9074074074074 879 3604.9074074074074 856.0Q3597.9074074074074 833 3599.9074074074074 805.0Q3601.9074074074074 777 3607.9074074074074 748L3692.9074074074074 406Q3698.9074074074074 387 3708.4074074074074 381.0Q3717.9074074074074 375 3737.9074074074074 375Q3766.9074074074074 375 3775.9074074074074 384.0Q3784.9074074074074 393 3778.9074074074074 411L3695.9074074074074 745Q3681.9074074074074 795 3684.9074074074074 813.5Q3687.9074074074074 832 3709.9074074074074 832Q3723.9074074074074 832 3730.9074074074074 843.5Q3737.9074074074074 855 3736.4074074074074 869.5Q3734.9074074074074 884 3723.9074074074074 895.5Q3712.9074074074074 907 3691.9074074074074 907ZM3784.9074074074074 221Q3762.9074074074074 221 3748.9074074074074 207.5Q3734.9074074074074 194 3734.9074074074074 168Q3734.9074074074074 139 3751.4074074074074 117.0Q3767.9074074074074 95 3802.9074074074074 95Q3825.9074074074074 95 3839.9074074074074 108.5Q3853.9074074074074 122 3853.9074074074074 149Q3853.9074074074074 177 3837.4074074074074 199.0Q3820.9074074074074 221 3784.9074074074074 221ZM3686.9074074074074 907Q3672.9074074074074 907 3665.9074074074074 895.5Q3658.9074074074074 884 3660.4074074074074 869.5Q3661.9074074074074 855 3672.9074074074074 843.5Q3683.9074074074074 832 3704.9074074074074 832Q3727.9074074074074 832 3758.4074074074074 814.0Q3788.9074074074074 796 3827.4074074074074 754.5Q3865.9074074074074 713 3913.9074074074074 643.0Q3961.9074074074074 573 4018.9074074074074 469Q4026.9074074074074 455 4041.4074074074074 456.5Q4055.9074074074074 458 4064.9074074074074 468.0Q4073.9074074074074 478 4066.9074074074074 492Q4000.9074074074074 615 3948.4074074074074 695.5Q3895.9074074074074 776 3852.4074074074074 822.5Q3808.9074074074074 869 3768.4074074074074 888.0Q3727.9074074074074 907 3686.9074074074074 907ZM4070.9074074074074 907Q4025.9074074074074 907 3996.4074074074074 886.5Q3966.9074074074074 866 3951.9074074074074 831.5Q3936.9074074074074 797 3935.9074074074074 752.0Q3934.9074074074074 707 3946.9074074074074 659L3995.9074074074074 470H3919.9074074074074Q3907.9074074074074 470 3903.4074074074074 460.0Q3898.9074074074074 450 3902.9074074074074 430Q3906.9074074074074 409 3916.4074074074074 399.5Q3925.9074074074074 390 3936.9074074074074 390H4016.9074074074074L4067.9074074074074 191Q4071.9074074074074 172 4081.9074074074074 166.0Q4091.9074074074074 160 4111.907407407407 160Q4140.907407407407 160 4149.907407407407 169.0Q4158.907407407407 178 4152.907407407407 196L4103.907407407407 390H4229.907407407407Q4241.907407407407 390 4246.907407407407 399.5Q4251.907407407407 409 4246.907407407407 430Q4242.907407407407 450 4233.907407407407 460.0Q4224.907407407407 470 4212.907407407407 470H4082.9074074074074L4031.9074074074074 664Q4020.9074074074074 705 4021.4074074074074 737.0Q4021.9074074074074 769 4030.4074074074074 790.0Q4038.9074074074074 811 4054.4074074074074 821.5Q4069.9074074074074 832 4089.9074074074074 832Q4103.907407407407 832 4110.907407407407 843.5Q4117.907407407407 855 4115.907407407407 869.5Q4113.907407407407 884 4102.907407407407 895.5Q4091.9074074074074 907 4070.9074074074074 907ZM4073.907407407408 907Q4059.907407407408 907 4052.907407407408 895.5Q4045.907407407408 884 4047.407407407408 869.5Q4048.907407407408 855 4059.907407407408 843.5Q4070.907407407408 832 4091.907407407408 832Q4112.907407407408 832 4140.907407407408 821.5Q4168.907407407408 811 4209.907407407408 788.0Q4250.907407407408 765 4310.907407407408 726Q4323.907407407408 717 4334.907407407408 721.5Q4345.907407407408 726 4351.407407407408 738.0Q4356.907407407408 750 4354.407407407408 763.5Q4351.907407407408 777 4336.907407407408 787Q4270.907407407408 832 4222.907407407408 858.5Q4174.907407407408 885 4139.407407407408 896.0Q4103.907407407408 907 4073.907407407408 907ZM4464.907407407408 907Q4402.907407407408 907 4361.907407407408 879.0Q4320.907407407408 851 4300.907407407408 802.0Q4280.907407407408 753 4280.907407407408 691Q4280.907407407408 642 4298.407407407408 587.0Q4315.907407407408 532 4348.907407407408 482.5Q4381.907407407408 433 4431.407407407408 402.0Q4480.907407407408 371 4543.907407407408 371Q4580.907407407408 371 4607.907407407408 384.0Q4634.907407407408 397 4649.407407407408 420.5Q4663.907407407408 444 4663.907407407408 479Q4663.907407407408 518 4641.907407407408 556.0Q4619.907407407408 594 4580.407407407408 631.0Q4540.907407407408 668 4488.407407407408 705.5Q4435.907407407408 743 4373.907407407408 781L4340.907407407408 718Q4373.907407407408 697 4413.907407407408 669.0Q4453.907407407408 641 4489.907407407408 610.0Q4525.907407407408 579 4549.407407407408 548.0Q4572.907407407408 517 4572.907407407408 490Q4572.907407407408 467 4560.407407407408 458.5Q4547.907407407408 450 4528.907407407408 450Q4492.907407407408 450 4463.407407407408 473.5Q4433.907407407408 497 4413.407407407408 534.0Q4392.907407407408 571 4381.407407407408 611.0Q4369.907407407408 651 4369.907407407408 684Q4369.907407407408 727 4381.407407407408 760.0Q4392.907407407408 793 4416.407407407408 810.0Q4439.907407407408 827 4474.907407407408 827Q4508.907407407408 827 4536.407407407408 814.0Q4563.907407407408 801 4587.407407407408 778.5Q4610.907407407408 756 4633.907407407408 731Q4644.907407407408 717 4660.407407407408 720.5Q4675.907407407408 724 4686.907407407408 735Q4697.907407407408 746 4699.907407407408 757.5Q4701.907407407408 769 4690.907407407408 784Q4654.907407407408 830 4616.907407407408 857.0Q4578.907407407408 884 4540.907407407408 895.5Q4502.907407407408 907 4464.907407407408 907ZM5160.907407407408 904Q5138.907407407408 904 5128.407407407408 897.0Q5117.907407407408 890 5120.907407407408 874L5331.907407407408 27Q5335.907407407408 13 5348.407407407408 6.5Q5360.907407407408 0 5382.907407407408 0Q5404.907407407408 0 5415.407407407408 7.0Q5425.907407407408 14 5421.907407407408 29L5209.907407407408 876Q5206.907407407408 890 5195.407407407408 897.0Q5183.907407407408 904 5160.907407407408 904ZM5702.907407407408 909Q5658.907407407408 909 5619.407407407408 898.5Q5579.907407407408 888 5545.907407407408 869.5Q5511.907407407408 851 5483.907407407408 826.0Q5455.907407407408 801 5434.907407407408 773Q5426.907407407408 761 5430.907407407408 750.5Q5434.907407407408 740 5445.907407407408 731Q5460.907407407408 719 5471.407407407408 716.0Q5481.907407407408 713 5492.907407407408 725Q5514.907407407408 750 5545.907407407408 772.5Q5576.907407407408 795 5616.407407407408 809.5Q5655.907407407408 824 5702.907407407408 824Q5749.907407407408 824 5789.407407407408 813.5Q5828.907407407408 803 5857.907407407408 783.0Q5886.907407407408 763 5902.907407407408 731.0Q5918.907407407408 699 5918.907407407408 656Q5918.907407407408 627 5909.407407407408 603.5Q5899.907407407408 580 5881.407407407408 559.5Q5862.907407407408 539 5836.407407407408 522.0Q5809.907407407408 505 5773.907407407408 487Q5740.907407407408 471 5710.907407407408 452.0Q5680.907407407408 433 5655.407407407408 411.0Q5629.907407407408 389 5610.907407407408 362.0Q5591.907407407408 335 5581.407407407408 301.5Q5570.907407407408 268 5570.907407407408 227Q5570.907407407408 177 5590.407407407408 135.0Q5609.907407407408 93 5647.407407407408 63.0Q5684.907407407408 33 5736.907407407408 16.5Q5788.907407407408 0 5853.907407407408 0Q5905.907407407408 0 5947.407407407408 14.0Q5988.907407407408 28 6023.407407407408 51.5Q6057.907407407408 75 6085.907407407408 102Q6095.907407407408 112 6093.907407407408 123.5Q6091.907407407408 135 6078.907407407408 146Q6066.907407407408 158 6055.407407407408 160.5Q6043.907407407408 163 6032.907407407408 155Q6009.907407407408 136 5984.907407407408 120.0Q5959.907407407408 104 5928.907407407408 94.5Q5897.907407407408 85 5853.907407407408 85Q5811.907407407408 85 5776.407407407408 94.0Q5740.907407407408 103 5715.907407407408 120.5Q5690.907407407408 138 5677.407407407408 164.5Q5663.907407407408 191 5663.907407407408 227Q5663.907407407408 259 5671.907407407408 284.0Q5679.907407407408 309 5698.407407407408 330.0Q5716.907407407408 351 5745.907407407408 370.0Q5774.907407407408 389 5816.907407407408 408Q5859.907407407408 429 5895.407407407408 453.5Q5930.907407407408 478 5957.407407407408 508.0Q5983.907407407408 538 5997.407407407408 574.5Q6010.907407407408 611 6010.907407407408 656Q6010.907407407408 714 5988.407407407408 760.5Q5965.907407407408 807 5924.407407407408 840.0Q5882.907407407408 873 5826.407407407408 891.0Q5769.907407407408 909 5702.907407407408 909Z" /></svg>