<svg viewBox="0 0 15060 1296" xmlns="http://www.w3.org/2000/svg"><path d="M400 553Q388 553 382.0 546.5Q376 540 376 528Q376 517 381.0 511.0Q386 505 397 505Q458 503 509.5 488.5Q561 474 602.5 450.5Q644 427 673.5 394.5Q703 362 719.0 323.0Q735 284 735 239Q735 195 716.5 160.5Q698 126 663.0 102.5Q628 79 578.5 67.0Q529 55 467 55Q394 55 329.0 69.0Q264 83 211.5 110.5Q159 138 121 180Q114 188 106.0 189.5Q98 191 88 183Q78 175 76.5 167.0Q75 159 83 150Q112 115 153.0 88.0Q194 61 243.5 42.0Q293 23 350.5 13.5Q408 4 471 4Q547 4 606.5 20.0Q666 36 707.5 66.0Q749 96 770.5 139.5Q792 183 792 238Q792 291 774.0 337.5Q756 384 722.0 421.5Q688 459 640.0 487.5Q592 516 531.5 532.5Q471 549 400 553ZM193 915Q158 915 128.0 902.0Q98 889 75.5 866.5Q53 844 38 818Q32 809 34.0 801.0Q36 793 46 785Q57 779 65.0 781.0Q73 783 80 792Q96 815 113.0 831.0Q130 847 150.5 855.0Q171 863 194 863Q234 863 253.0 835.0Q272 807 272 751V166Q272 155 279.0 150.5Q286 146 300 146Q314 146 320.5 150.5Q327 155 327 165V761Q327 808 311.5 842.5Q296 877 266.0 896.0Q236 915 193 915ZM0 1267H833V1277H0ZM0 878H833V898H0ZM0 393H833V398H0ZM0 9H833V19H0ZM744 915Q731 915 725.5 907.5Q720 900 720.0 891.0Q720 882 725.5 874.5Q731 867 744 867Q773 867 802.5 850.5Q832 834 861.0 805.0Q890 776 917.5 737.0Q945 698 970.5 651.5Q996 605 1018.5 553.5Q1041 502 1058.5 449.0Q1076 396 1089.0 344.0Q1102 292 1109.0 243.5Q1116 195 1116 154Q1116 143 1124.5 137.5Q1133 132 1143.5 132.0Q1154 132 1162.5 137.5Q1171 143 1171 154Q1171 196 1163.0 246.5Q1155 297 1140.5 352.5Q1126 408 1105.5 464.5Q1085 521 1060.0 576.0Q1035 631 1006.0 681.5Q977 732 945.5 774.5Q914 817 880.5 848.5Q847 880 812.5 897.5Q778 915 744 915ZM1131 915Q1075 915 1034.5 887.0Q994 859 973.0 804.5Q952 750 952 670V191Q952 95 980.0 47.5Q1008 0 1065 0Q1102 0 1125.0 18.0Q1148 36 1159.5 70.5Q1171 105 1171 154Q1171 166 1162.5 172.5Q1154 179 1143.5 179.0Q1133 179 1124.5 172.5Q1116 166 1116 154Q1116 120 1111.0 97.0Q1106 74 1094.5 62.0Q1083 50 1064 50Q1044 50 1030.5 63.5Q1017 77 1010.5 108.5Q1004 140 1004 193V669Q1004 735 1020.0 779.0Q1036 823 1066.0 845.0Q1096 867 1138 867Q1148 867 1153.5 874.5Q1159 882 1158.5 891.0Q1158 900 1151.0 907.5Q1144 915 1131 915ZM812 1267H1206V1277H812ZM812 878H1206V898H812ZM812 393H1206V398H812ZM812 9H1206V19H812ZM1131 915Q1120 915 1114.5 907.5Q1109 900 1109.5 891.0Q1110 882 1117.0 874.5Q1124 867 1137 867Q1168 867 1194.5 852.5Q1221 838 1241.5 813.5Q1262 789 1275.0 755.5Q1288 722 1294 683Q1295 672 1304.0 669.0Q1313 666 1321.0 670.0Q1329 674 1328 685Q1323 733 1307.0 774.5Q1291 816 1265.5 847.5Q1240 879 1206.0 897.0Q1172 915 1131 915ZM1206 1267V1277ZM1206 878V898ZM1206 393V398ZM1206 9V19ZM1474 915Q1420 915 1378.5 886.0Q1337 857 1313.5 801.0Q1290 745 1290 664Q1290 613 1299.5 569.5Q1309 526 1327.5 491.0Q1346 456 1374.0 431.0Q1402 406 1438.5 392.5Q1475 379 1520 379Q1558 379 1594.5 391.5Q1631 404 1667 428V479Q1627 449 1591.5 438.5Q1556 428 1521 428Q1489 428 1461.5 438.0Q1434 448 1412.5 467.0Q1391 486 1376.0 514.0Q1361 542 1353.5 578.5Q1346 615 1346 661Q1346 720 1361.0 766.0Q1376 812 1406.5 838.5Q1437 865 1483 865Q1520 865 1554.5 843.0Q1589 821 1616.0 772.0Q1643 723 1659 643L1678 692Q1659 778 1625.5 827.0Q1592 876 1552.5 895.5Q1513 915 1474 915ZM1768 915Q1738 915 1716.0 906.0Q1694 897 1680.0 879.5Q1666 862 1659.0 836.0Q1652 810 1652 775V402Q1652 392 1658.5 387.5Q1665 383 1679 383Q1692 383 1698.5 387.5Q1705 392 1705 402V774Q1705 821 1719.5 844.0Q1734 867 1774 867Q1782 867 1786.5 874.5Q1791 882 1790.5 891.0Q1790 900 1785.0 907.5Q1780 915 1768 915ZM1206 1267H1841V1277H1206ZM1206 878H1841V898H1206ZM1206 393H1841V398H1206ZM1206 9H1841V19H1206ZM1766 915Q1757 915 1752.5 907.5Q1748 900 1748.5 891.0Q1749 882 1755.0 874.5Q1761 867 1772 867Q1800 867 1821.0 853.5Q1842 840 1858.0 814.0Q1874 788 1885.5 748.5Q1897 709 1905 656Q1919 578 1932.0 525.5Q1945 473 1962.0 441.5Q1979 410 2001.5 396.0Q2024 382 2054 382Q2064 382 2068.5 389.0Q2073 396 2072.0 405.5Q2071 415 2065.5 422.5Q2060 430 2052 430Q2034 430 2021.0 441.0Q2008 452 1997.0 477.0Q1986 502 1976.5 543.0Q1967 584 1957 644Q1946 716 1929.0 767.5Q1912 819 1888.5 852.0Q1865 885 1835.0 900.0Q1805 915 1766 915ZM1841 1267H1941V1277H1841ZM1841 878H1941V898H1841ZM1841 393H1941V398H1841ZM1841 9H1941V19H1841ZM2326 1296Q2269 1296 2233.5 1263.5Q2198 1231 2198 1176Q2198 1146 2208.0 1121.0Q2218 1096 2237.0 1073.0Q2256 1050 2283.5 1027.0Q2311 1004 2346 980Q2365 968 2383.0 956.5Q2401 945 2419.0 934.0Q2437 923 2455 912V764Q2439 808 2416.5 837.0Q2394 866 2368.0 883.5Q2342 901 2315.5 908.5Q2289 916 2263 916Q2219 916 2184.5 898.0Q2150 880 2130.0 840.5Q2110 801 2110 737V515Q2110 471 2096.0 450.5Q2082 430 2052 430Q2041 430 2035.5 422.5Q2030 415 2030.5 405.5Q2031 396 2037.0 389.0Q2043 382 2054 382Q2081 382 2101.5 390.0Q2122 398 2135.5 415.0Q2149 432 2156.0 457.5Q2163 483 2163 518V731Q2163 775 2174.0 805.5Q2185 836 2209.0 852.0Q2233 868 2270 868Q2300 868 2328.5 855.5Q2357 843 2382.0 817.0Q2407 791 2425.5 749.0Q2444 707 2455 648V402Q2455 392 2461.5 387.5Q2468 383 2482 383Q2495 383 2501.0 387.5Q2507 392 2507 402V1048Q2507 1105 2495.0 1151.5Q2483 1198 2460.0 1230.0Q2437 1262 2403.5 1279.0Q2370 1296 2326 1296ZM2332 1247Q2369 1247 2396.5 1224.0Q2424 1201 2439.5 1157.0Q2455 1113 2455 1051V967Q2439 975 2424.0 984.0Q2409 993 2394.0 1002.5Q2379 1012 2365 1022Q2339 1041 2319.0 1058.5Q2299 1076 2284.5 1093.5Q2270 1111 2262.5 1130.0Q2255 1149 2255 1171Q2255 1192 2263.5 1209.5Q2272 1227 2289.5 1237.0Q2307 1247 2332 1247ZM1941 1267H2644V1277H1941ZM1941 878H2644V898H1941ZM1941 393H2644V398H1941ZM1941 9H2644V19H1941ZM2491 949Q2484 952 2477.5 948.0Q2471 944 2467.5 935.5Q2464 927 2466.5 918.5Q2469 910 2480 904Q2540 873 2578.5 829.5Q2617 786 2641.0 736.5Q2665 687 2679.0 637.0Q2693 587 2704.5 541.0Q2716 495 2729.5 459.0Q2743 423 2765.5 402.5Q2788 382 2826 382Q2837 382 2842.5 389.0Q2848 396 2847.5 405.5Q2847 415 2840.5 422.5Q2834 430 2823 430Q2799 430 2784.5 450.0Q2770 470 2760.0 505.0Q2750 540 2739.0 585.0Q2728 630 2712.0 679.5Q2696 729 2668.5 778.0Q2641 827 2598.0 871.0Q2555 915 2491 949ZM2644 1267H2750V1277H2644ZM2644 878H2750V898H2644ZM2644 393H2750V398H2644ZM2644 9H2750V19H2644ZM3025 917Q2991 917 2964.5 904.5Q2938 892 2919.5 868.0Q2901 844 2892.0 808.0Q2883 772 2883 725V515Q2883 471 2868.5 450.5Q2854 430 2823 430Q2813 430 2807.0 422.5Q2801 415 2801.5 405.5Q2802 396 2808.0 389.0Q2814 382 2826 382Q2853 382 2873.5 390.0Q2894 398 2907.5 415.0Q2921 432 2928.0 457.5Q2935 483 2935 518V719Q2935 766 2944.5 799.5Q2954 833 2975.5 850.5Q2997 868 3034 868Q3062 868 3088.5 854.0Q3115 840 3137.0 813.0Q3159 786 3172.0 748.0Q3185 710 3186 661V402Q3186 393 3192.5 388.0Q3199 383 3212 383Q3226 383 3232.0 388.0Q3238 393 3238 402V698Q3238 742 3243.0 774.0Q3248 806 3260.0 827.0Q3272 848 3291.5 858.0Q3311 868 3340 868Q3366 868 3390.0 856.5Q3414 845 3435.0 824.0Q3456 803 3471.0 773.5Q3486 744 3494.5 709.0Q3503 674 3503 634Q3503 582 3495.5 545.0Q3488 508 3476 479Q3447 466 3433.5 449.0Q3420 432 3420 414Q3420 400 3428.5 389.5Q3437 379 3453 379Q3475 379 3493.0 403.0Q3511 427 3525.0 465.0Q3539 503 3547.0 546.0Q3555 589 3555 626Q3555 669 3546.0 711.0Q3537 753 3519.0 790.0Q3501 827 3474.0 855.5Q3447 884 3411.5 900.5Q3376 917 3332 917Q3297 917 3269.5 903.0Q3242 889 3223.0 860.5Q3204 832 3196 788Q3180 828 3154.0 857.0Q3128 886 3095.0 901.5Q3062 917 3025 917ZM2750 1267H3638V1277H2750ZM2750 878H3638V898H2750ZM2750 393H3638V398H2750ZM2750 9H3638V19H2750ZM3557 492Q3538 492 3521.5 487.5Q3505 483 3491 476V432Q3507 441 3520.0 445.0Q3533 449 3550 449Q3577 449 3600.5 439.0Q3624 429 3645.5 415.5Q3667 402 3690.0 392.0Q3713 382 3739 382Q3748 382 3752.5 389.0Q3757 396 3757.0 405.5Q3757 415 3751.5 422.5Q3746 430 3735 430Q3718 430 3698.0 439.0Q3678 448 3655.0 460.5Q3632 473 3607.5 482.5Q3583 492 3557 492ZM3638 1267H3663V1277H3638ZM3638 878H3663V898H3638ZM3638 393H3663V398H3638ZM3638 9H3663V19H3638ZM3820 913Q3807 913 3801.0 908.5Q3795 904 3795 894V515Q3795 471 3780.5 450.5Q3766 430 3736 430Q3726 430 3721.5 422.5Q3717 415 3717.0 405.5Q3717 396 3723.0 389.0Q3729 382 3739 382Q3762 382 3780.0 388.0Q3798 394 3811.5 406.5Q3825 419 3833.5 439.0Q3842 459 3845 487L3846 529Q3859 486 3875.0 457.5Q3891 429 3909.0 411.5Q3927 394 3945.0 386.5Q3963 379 3978 379Q3989 379 3994.5 386.5Q4000 394 3999.5 404.0Q3999 414 3993.5 421.5Q3988 429 3978 429Q3959 429 3939.5 442.0Q3920 455 3903.0 482.5Q3886 510 3871.5 553.0Q3857 596 3847 655V894Q3847 904 3840.5 908.5Q3834 913 3820 913ZM3663 1267H4067V1277H3663ZM3663 878H4067V898H3663ZM3663 393H4067V398H3663ZM3663 9H4067V19H3663ZM4085 566Q4048 566 4023.0 548.5Q3998 531 3984.5 497.5Q3971 464 3968 417L3978 379Q3996 379 4005.0 384.5Q4014 390 4014 405Q4016 435 4021.0 457.5Q4026 480 4035.5 494.5Q4045 509 4058.5 516.0Q4072 523 4091 523Q4121 523 4146.5 504.5Q4172 486 4192.5 456.0Q4213 426 4226 393Q4229 387 4238.0 389.0Q4247 391 4254.5 398.5Q4262 406 4258 413Q4242 453 4216.5 487.5Q4191 522 4158.5 544.0Q4126 566 4085 566ZM4067 1267H4090V1277H4067ZM4067 878H4090V898H4067ZM4067 393H4090V398H4067ZM4067 9H4090V19H4067ZM4340 915Q4307 915 4283.5 906.0Q4260 897 4246.5 878.5Q4233 860 4227.0 833.5Q4221 807 4221 772V402Q4221 392 4227.5 387.5Q4234 383 4246 383Q4260 383 4266.5 387.5Q4273 392 4273 402V770Q4273 821 4288.0 844.0Q4303 867 4347 867Q4356 867 4360.5 874.5Q4365 882 4364.5 891.0Q4364 900 4358.0 907.5Q4352 915 4340 915ZM4246 215Q4224 215 4213.5 202.5Q4203 190 4203 166Q4203 141 4213.5 128.5Q4224 116 4246 116Q4268 116 4279.0 128.5Q4290 141 4290 166Q4290 191 4279.0 203.0Q4268 215 4246 215ZM4089 1267H4414V1277H4089ZM4089 878H4414V898H4089ZM4089 393H4414V398H4089ZM4089 9H4414V19H4089ZM4339 915Q4328 915 4322.5 907.5Q4317 900 4317.5 891.0Q4318 882 4325.0 874.5Q4332 867 4345 867Q4380 867 4412.0 853.0Q4444 839 4471.5 812.0Q4499 785 4521.0 745.5Q4543 706 4558 655Q4561 645 4570.0 645.0Q4579 645 4586.0 651.5Q4593 658 4590 668Q4575 727 4551.0 772.5Q4527 818 4494.5 850.0Q4462 882 4423.0 898.5Q4384 915 4339 915ZM4414 1267V1277ZM4414 878V898ZM4414 393V398ZM4414 9V19ZM4727 915Q4680 915 4647.0 900.0Q4614 885 4593.0 856.0Q4572 827 4562.0 785.5Q4552 744 4552 692V446H4462Q4452 446 4447.5 440.0Q4443 434 4443 422Q4443 409 4447.5 403.5Q4452 398 4462 398H4552V187Q4552 177 4558.5 172.5Q4565 168 4578 168Q4591 168 4598.0 172.5Q4605 177 4605 187V398H4745Q4756 398 4760.5 403.5Q4765 409 4765 422Q4765 434 4760.5 440.0Q4756 446 4745 446H4605V681Q4605 720 4611.0 754.0Q4617 788 4631.5 813.0Q4646 838 4671.0 852.5Q4696 867 4734 867Q4744 867 4749.0 874.5Q4754 882 4753.5 891.0Q4753 900 4746.5 907.5Q4740 915 4727 915ZM4414 1267H4802V1277H4414ZM4414 878H4802V898H4414ZM4414 393H4802V398H4414ZM4414 9H4802V19H4414ZM4727 915Q4716 915 4710.5 907.5Q4705 900 4705.5 891.0Q4706 882 4713.0 874.5Q4720 867 4733 867Q4756 867 4782.0 857.0Q4808 847 4841.0 825.5Q4874 804 4918 769Q4925 763 4933.0 766.0Q4941 769 4946.0 776.0Q4951 783 4950.5 792.0Q4950 801 4942 807Q4895 844 4856.5 868.5Q4818 893 4786.5 904.0Q4755 915 4727 915ZM4802 1267V1277ZM4802 878V898ZM4802 393V398ZM4802 9V19ZM5094 915Q5022 915 4973.0 881.0Q4924 847 4899.0 785.0Q4874 723 4874 641Q4874 587 4889.0 539.0Q4904 491 4931.5 455.0Q4959 419 4997.5 399.0Q5036 379 5082 379Q5125 379 5152.0 395.0Q5179 411 5192.0 437.0Q5205 463 5205 493Q5205 525 5191.5 558.5Q5178 592 5149.0 628.0Q5120 664 5073.5 705.5Q5027 747 4962 796L4924 767Q4985 721 5027.5 683.0Q5070 645 5097.0 613.0Q5124 581 5136.5 552.0Q5149 523 5149 497Q5149 464 5129.0 446.0Q5109 428 5076 428Q5050 428 5024.0 442.0Q4998 456 4976.5 483.0Q4955 510 4942.5 549.5Q4930 589 4930 639Q4930 721 4954.0 771.0Q4978 821 5016.0 844.0Q5054 867 5096 867Q5133 867 5159.5 853.5Q5186 840 5206.0 820.0Q5226 800 5240 783Q5248 775 5256.0 775.5Q5264 776 5272 782Q5280 788 5283.0 796.0Q5286 804 5280 812Q5262 838 5234.0 862.0Q5206 886 5170.5 900.5Q5135 915 5094 915ZM4802 1267H5328V1277H4802ZM4802 878H5328V898H4802ZM4802 393H5328V398H4802ZM4802 9H5328V19H4802ZM5856 915Q5821 915 5795.0 896.0Q5769 877 5754.5 844.5Q5740 812 5740 774Q5740 736 5750.5 703.0Q5761 670 5783.5 640.5Q5806 611 5840.0 585.5Q5874 560 5921 539V137Q5921 96 5907.0 75.5Q5893 55 5861 55Q5837 55 5814.5 66.5Q5792 78 5771.0 99.5Q5750 121 5730 154Q5724 163 5716.5 165.5Q5709 168 5697 161Q5686 155 5685.0 147.0Q5684 139 5690 129Q5713 90 5739.5 62.5Q5766 35 5797.0 20.0Q5828 5 5864 5Q5922 5 5948.5 39.0Q5975 73 5975 137V516Q6034 490 6094.0 462.5Q6154 435 6213.5 406.5Q6273 378 6331 349V183Q6331 124 6344.0 84.5Q6357 45 6384.0 25.0Q6411 5 6451 5Q6487 5 6512.5 23.0Q6538 41 6552.5 71.5Q6567 102 6567 141Q6567 178 6556.5 211.0Q6546 244 6524.0 273.0Q6502 302 6467.5 328.5Q6433 355 6386 378V751Q6386 789 6395.0 814.0Q6404 839 6422.5 851.0Q6441 863 6469 863Q6490 863 6509.5 855.0Q6529 847 6546.0 831.0Q6563 815 6576 793Q6583 783 6591.0 781.5Q6599 780 6609 786Q6620 792 6621.5 799.5Q6623 807 6617 817Q6602 845 6579.5 867.0Q6557 889 6528.0 902.0Q6499 915 6466 915Q6432 915 6407.0 904.0Q6382 893 6365.5 872.5Q6349 852 6340.5 823.0Q6332 794 6332 756L6331 407Q6292 427 6247.0 448.5Q6202 470 6155.5 491.5Q6109 513 6063.0 534.0Q6017 555 5975 574V739Q5975 797 5962.0 836.0Q5949 875 5922.5 895.0Q5896 915 5856 915ZM5857 865Q5890 865 5905.5 834.0Q5921 803 5921 734V594Q5889 608 5866.0 626.0Q5843 644 5827.0 666.5Q5811 689 5803.0 715.5Q5795 742 5795 771Q5795 811 5813.0 838.0Q5831 865 5857 865ZM6386 321Q6418 306 6441.5 287.5Q6465 269 6480.5 247.0Q6496 225 6503.5 199.5Q6511 174 6511 144Q6511 105 6494.5 80.0Q6478 55 6451 55Q6417 55 6401.5 85.5Q6386 116 6386 188ZM5628 1267H6666V1277H5628ZM5628 878H6666V898H5628ZM5628 393H6666V398H5628ZM5628 9H6666V19H5628ZM7468 917Q7443 917 7422.0 909.0Q7401 901 7380.5 885.0Q7360 869 7338.5 844.0Q7317 819 7293.0 784.5Q7269 750 7239 705Q7227 686 7216.0 669.0Q7205 652 7196.0 636.5Q7187 621 7177.5 606.5Q7168 592 7159.5 577.0Q7151 562 7142.5 546.5Q7134 531 7125 514Q7092 516 7069.0 502.5Q7046 489 7046 468Q7046 452 7056.5 441.0Q7067 430 7089 430Q7106 430 7122.5 438.0Q7139 446 7151 459Q7202 450 7244.5 429.0Q7287 408 7317.5 377.5Q7348 347 7365.0 308.5Q7382 270 7382 227Q7382 185 7364.5 153.0Q7347 121 7314.0 99.0Q7281 77 7234.0 66.0Q7187 55 7128 55Q7053 55 6989.5 69.0Q6926 83 6875.5 110.5Q6825 138 6787 180Q6779 188 6771.0 189.5Q6763 191 6753 183Q6743 175 6742.0 167.0Q6741 159 6748 150Q6778 115 6817.5 88.0Q6857 61 6905.5 42.0Q6954 23 7010.5 13.5Q7067 4 7132 4Q7204 4 7261.0 18.5Q7318 33 7357.5 61.5Q7397 90 7418.0 131.0Q7439 172 7439 224Q7439 265 7427.0 301.5Q7415 338 7392.5 370.0Q7370 402 7338.0 427.0Q7306 452 7265.5 471.0Q7225 490 7177 501Q7185 514 7192.0 526.5Q7199 539 7206.0 551.5Q7213 564 7221.0 577.0Q7229 590 7237.5 604.0Q7246 618 7256.0 634.0Q7266 650 7278 668Q7310 716 7333.5 750.5Q7357 785 7376.0 807.5Q7395 830 7410.0 842.5Q7425 855 7439.0 860.5Q7453 866 7469 866Q7496 866 7517.0 851.5Q7538 837 7561 806Q7567 797 7575.0 795.0Q7583 793 7593 801Q7603 807 7604.5 815.0Q7606 823 7601 830Q7584 858 7562.5 877.5Q7541 897 7517.0 907.0Q7493 917 7468 917ZM6858 915Q6823 915 6793.0 902.0Q6763 889 6740.5 866.5Q6718 844 6704 818Q6697 809 6699.0 801.0Q6701 793 6711 785Q6722 779 6730.5 781.0Q6739 783 6746 792Q6761 815 6778.0 831.0Q6795 847 6815.5 855.0Q6836 863 6859 863Q6899 863 6918.5 835.0Q6938 807 6938 751V166Q6938 155 6944.5 150.5Q6951 146 6966 146Q6979 146 6985.5 150.5Q6992 155 6992 165V761Q6992 808 6976.5 842.5Q6961 877 6931.5 896.0Q6902 915 6858 915ZM6666 1267H7602V1277H6666ZM6666 878H7602V898H6666ZM6666 393H7602V398H6666ZM6666 9H7602V19H6666ZM8033 919Q8003 919 7979.5 909.0Q7956 899 7943.0 880.0Q7930 861 7930 836Q7930 806 7946.5 784.0Q7963 762 7993.0 749.5Q8023 737 8064 737Q8103 737 8144.0 746.5Q8185 756 8227.5 770.5Q8270 785 8313.0 802.0Q8356 819 8399.0 833.5Q8442 848 8484.5 857.5Q8527 867 8569 867Q8581 867 8586.5 874.5Q8592 882 8591.0 891.0Q8590 900 8583.0 907.5Q8576 915 8563 915Q8515 915 8468.5 905.5Q8422 896 8377.5 882.0Q8333 868 8291.0 851.0Q8249 834 8209.0 820.0Q8169 806 8132.5 796.5Q8096 787 8063 787Q8038 787 8020.5 792.0Q8003 797 7994.0 807.0Q7985 817 7985 831Q7985 849 7998.5 860.0Q8012 871 8033 871Q8061 871 8082.5 852.5Q8104 834 8116.0 801.5Q8128 769 8128 726V249Q8128 185 8142.5 139.0Q8157 93 8184.5 63.0Q8212 33 8250.5 18.5Q8289 4 8338 4Q8386 4 8425.0 20.5Q8464 37 8492.5 70.5Q8521 104 8538 155Q8543 167 8539.5 175.0Q8536 183 8524 186Q8511 191 8503.5 187.0Q8496 183 8492 171Q8477 132 8454.5 106.0Q8432 80 8402.5 67.5Q8373 55 8335 55Q8299 55 8270.5 66.0Q8242 77 8222.0 101.0Q8202 125 8191.5 163.0Q8181 201 8181 255V726Q8181 785 8163.0 828.5Q8145 872 8111.5 895.5Q8078 919 8033 919ZM7902 1267H8638V1277H7902ZM7902 878H8638V898H7902ZM7902 393H8638V398H7902ZM7902 9H8638V19H7902ZM8563 915Q8552 915 8546.5 907.5Q8541 900 8541.5 891.0Q8542 882 8549.0 874.5Q8556 867 8569 867Q8603 867 8633.0 852.0Q8663 837 8688.5 808.5Q8714 780 8735.5 740.0Q8757 700 8774 649Q8777 639 8786.0 639.0Q8795 639 8801.5 646.0Q8808 653 8805 663Q8789 718 8766.0 764.0Q8743 810 8713.5 844.0Q8684 878 8646.5 896.5Q8609 915 8563 915ZM8638 1267V1277ZM8638 878V898ZM8638 393V398ZM8638 9V19ZM8889 915Q8856 915 8832.5 906.0Q8809 897 8795.5 878.5Q8782 860 8776.0 833.5Q8770 807 8770 772V402Q8770 392 8776.0 387.5Q8782 383 8795 383Q8809 383 8815.5 387.5Q8822 392 8822 402V770Q8822 821 8837.0 844.0Q8852 867 8896 867Q8904 867 8909.0 874.5Q8914 882 8913.5 891.0Q8913 900 8907.0 907.5Q8901 915 8889 915ZM8795 215Q8773 215 8762.5 203.0Q8752 191 8752 166Q8752 141 8762.5 128.5Q8773 116 8795 116Q8817 116 8828.0 128.5Q8839 141 8839 166Q8839 191 8828.0 203.0Q8817 215 8795 215ZM8888 915Q8877 915 8871.5 907.5Q8866 900 8866.5 891.0Q8867 882 8874.0 874.5Q8881 867 8894 867Q8928 867 8958.0 852.0Q8988 837 9013.5 808.5Q9039 780 9060.5 740.0Q9082 700 9099 649Q9102 639 9111.0 639.0Q9120 639 9126.5 646.0Q9133 653 9130 663Q9114 718 9091.0 764.0Q9068 810 9038.5 844.0Q9009 878 8971.5 896.5Q8934 915 8888 915ZM8995 1296Q8964 1296 8940.0 1281.5Q8916 1267 8903.0 1241.5Q8890 1216 8890 1182Q8890 1151 8900.0 1120.0Q8910 1089 8929.5 1059.5Q8949 1030 8977.0 1002.5Q9005 975 9040 952Q9053 942 9066.5 932.5Q9080 923 9094 913V402Q9094 392 9100.5 387.5Q9107 383 9120 383Q9133 383 9139.5 387.5Q9146 392 9146 402V1056Q9146 1111 9137.0 1155.5Q9128 1200 9109.5 1231.5Q9091 1263 9062.5 1279.5Q9034 1296 8995 1296ZM9001 1247Q9024 1247 9041.5 1234.0Q9059 1221 9070.5 1197.5Q9082 1174 9088.0 1140.0Q9094 1106 9094 1064V967Q9083 974 9073.0 982.0Q9063 990 9053 998Q9025 1018 9004.5 1039.5Q8984 1061 8970.5 1083.0Q8957 1105 8950.5 1129.5Q8944 1154 8944 1179Q8944 1199 8950.5 1214.5Q8957 1230 8970.5 1238.5Q8984 1247 9001 1247ZM9118 215Q9096 215 9085.5 203.0Q9075 191 9075 166Q9075 141 9085.5 128.5Q9096 116 9118 116Q9140 116 9151.0 128.5Q9162 141 9162 166Q9162 191 9151.0 203.0Q9140 215 9118 215ZM8638 1267H9279V1277H8638ZM8638 878H9279V898H8638ZM8638 393H9279V398H8638ZM8638 9H9279V19H8638ZM9132 947Q9126 950 9120.5 945.0Q9115 940 9111.5 931.5Q9108 923 9109.0 914.5Q9110 906 9116 903Q9152 885 9186.5 867.0Q9221 849 9255.5 830.0Q9290 811 9324.5 789.5Q9359 768 9395 745Q9402 741 9407.5 745.0Q9413 749 9416.5 757.0Q9420 765 9420.5 773.0Q9421 781 9415 784Q9378 807 9343.5 828.5Q9309 850 9275.0 869.5Q9241 889 9205.5 908.0Q9170 927 9132 947ZM9279 1267V1277ZM9279 878V898ZM9279 393V398ZM9279 9V19ZM9383 611Q9445 620 9491.0 614.0Q9537 608 9567.0 591.0Q9597 574 9611.5 549.5Q9626 525 9626 498Q9626 464 9606.0 446.0Q9586 428 9552 428Q9525 428 9499.0 441.5Q9473 455 9452.5 481.0Q9432 507 9419.5 545.0Q9407 583 9407 631Q9407 695 9425.0 740.0Q9443 785 9473.0 813.0Q9503 841 9539.0 854.0Q9575 867 9610 867Q9622 867 9627.5 874.5Q9633 882 9633.0 891.0Q9633 900 9627.5 907.5Q9622 915 9610 915Q9533 915 9474.5 880.0Q9416 845 9384.0 781.5Q9352 718 9352 633Q9352 581 9366.5 534.5Q9381 488 9408.0 453.0Q9435 418 9473.5 398.5Q9512 379 9559 379Q9601 379 9628.5 395.5Q9656 412 9669.0 438.0Q9682 464 9682 494Q9682 531 9663.5 564.5Q9645 598 9607.5 622.0Q9570 646 9514.0 656.0Q9458 666 9383 655ZM9279 1267H9767V1277H9279ZM9279 878H9767V898H9279ZM9279 393H9767V398H9279ZM9279 9H9767V19H9279ZM9610 915Q9598 915 9591.5 907.5Q9585 900 9585.0 891.0Q9585 882 9591.5 874.5Q9598 867 9610 867Q9658 867 9692.5 850.5Q9727 834 9751.0 803.5Q9775 773 9791.0 729.5Q9807 686 9817 632Q9829 570 9841.5 523.0Q9854 476 9872.0 444.5Q9890 413 9916.0 397.5Q9942 382 9980 382Q9990 382 9994.5 389.0Q9999 396 9998.0 405.5Q9997 415 9991.5 422.5Q9986 430 9978 430Q9954 430 9937.0 442.0Q9920 454 9907.5 479.5Q9895 505 9885.0 543.5Q9875 582 9865 635Q9857 683 9843.5 725.5Q9830 768 9810.0 802.5Q9790 837 9762.5 862.0Q9735 887 9697.5 901.0Q9660 915 9610 915ZM9767 1267H9867V1277H9767ZM9767 878H9867V898H9767ZM9767 393H9867V398H9767ZM9767 9H9867V19H9767ZM10203 917Q10166 917 10136.0 903.5Q10106 890 10084.0 864.0Q10062 838 10049.5 798.0Q10037 758 10037 706V515Q10037 471 10023.0 450.5Q10009 430 9978 430Q9967 430 9961.5 422.5Q9956 415 9956.5 405.5Q9957 396 9963.0 389.0Q9969 382 9980 382Q10007 382 10027.5 390.0Q10048 398 10062.0 415.0Q10076 432 10083.0 457.5Q10090 483 10090 518V698Q10090 741 10097.0 772.5Q10104 804 10119.0 825.0Q10134 846 10157.0 857.0Q10180 868 10210 868Q10237 868 10261.5 856.0Q10286 844 10306.5 822.5Q10327 801 10342.5 771.0Q10358 741 10366.5 705.5Q10375 670 10375 630Q10375 582 10367.0 545.0Q10359 508 10347 479Q10319 466 10305.0 449.0Q10291 432 10291 414Q10291 400 10299.5 389.5Q10308 379 10324 379Q10346 379 10364.5 403.0Q10383 427 10396.5 465.0Q10410 503 10418.0 546.0Q10426 589 10426 626Q10426 669 10417.0 711.0Q10408 753 10390.0 790.0Q10372 827 10345.5 855.5Q10319 884 10283.5 900.5Q10248 917 10203 917ZM9867 1267H10509V1277H9867ZM9867 878H10509V898H9867ZM9867 393H10509V398H9867ZM9867 9H10509V19H9867ZM10513 506Q10470 506 10430.0 496.0Q10390 486 10352 467Q10345 463 10343.5 455.5Q10342 448 10344.0 441.0Q10346 434 10351.5 430.0Q10357 426 10363 430Q10392 446 10429.5 454.5Q10467 463 10509 463Q10544 463 10581.5 458.0Q10619 453 10653.0 443.0Q10687 433 10710 419Q10718 414 10724.0 419.5Q10730 425 10730.0 433.5Q10730 442 10722 447Q10677 476 10621.0 491.0Q10565 506 10513 506ZM10509 1267V1277ZM10509 878V898ZM10509 393V398ZM10509 9V19ZM10776 915Q10722 915 10680.5 886.0Q10639 857 10615.0 801.0Q10591 745 10591 664Q10591 613 10600.5 569.5Q10610 526 10629.0 491.0Q10648 456 10676.0 431.0Q10704 406 10740.5 392.5Q10777 379 10822 379Q10856 379 10888.0 389.0Q10920 399 10954 418V402Q10954 392 10960.5 387.5Q10967 383 10981 383Q10995 383 11001.0 387.5Q11007 392 11007 402V806Q11007 827 11011.0 840.5Q11015 854 11024.0 861.0Q11033 868 11047 868Q11058 868 11067.5 863.5Q11077 859 11087.0 849.0Q11097 839 11107 825Q11112 818 11118.5 818.5Q11125 819 11132 825Q11139 830 11141.0 837.0Q11143 844 11139 850Q11128 870 11111.5 884.5Q11095 899 11076.5 907.0Q11058 915 11038 915Q11018 915 11003.0 909.5Q10988 904 10977.0 892.5Q10966 881 10960.5 864.0Q10955 847 10954 826Q10954 814 10954.0 801.0Q10954 788 10954 776Q10932 829 10902.0 859.5Q10872 890 10840.0 902.5Q10808 915 10776 915ZM10647 661Q10647 720 10662.0 766.0Q10677 812 10708.0 838.5Q10739 865 10785 865Q10820 865 10852.5 845.5Q10885 826 10911.5 781.5Q10938 737 10954 664V468Q10918 445 10886.0 436.5Q10854 428 10823 428Q10790 428 10763.0 438.0Q10736 448 10714.5 467.0Q10693 486 10678.0 514.0Q10663 542 10655.0 578.5Q10647 615 10647 661ZM10509 1267H11144V1277H10509ZM10509 878H11144V898H10509ZM10509 393H11144V398H10509ZM10509 9H11144V19H10509ZM12036 1296Q11994 1296 11963.5 1280.5Q11933 1265 11916.5 1236.5Q11900 1208 11900 1171Q11900 1158 11908.5 1151.5Q11917 1145 11928.0 1144.0Q11939 1143 11947.5 1148.5Q11956 1154 11956 1166Q11956 1205 11977.5 1226.0Q11999 1247 12040 1247Q12096 1247 12126.5 1201.5Q12157 1156 12157 1065V610Q12134 674 12101.0 725.0Q12068 776 12026.5 812.0Q11985 848 11938.5 867.5Q11892 887 11841 887Q11770 887 11711.5 858.0Q11653 829 11611.5 774.0Q11570 719 11548.0 642.5Q11526 566 11526 471Q11526 401 11538.5 339.5Q11551 278 11575.0 226.0Q11599 174 11633.0 133.0Q11667 92 11710.0 63.5Q11753 35 11803.0 19.5Q11853 4 11910 4Q11965 4 12012.5 16.5Q12060 29 12100.5 53.5Q12141 78 12177 114Q12186 123 12186.5 130.5Q12187 138 12176 148Q12167 158 12159.0 157.5Q12151 157 12141 148Q12108 117 12071.5 97.0Q12035 77 11994.5 67.0Q11954 57 11909 57Q11862 57 11819.0 70.5Q11776 84 11739.5 109.0Q11703 134 11674.5 170.5Q11646 207 11625.5 253.0Q11605 299 11594.5 354.0Q11584 409 11584 471Q11584 554 11602.0 621.0Q11620 688 11654.5 735.5Q11689 783 11737.0 808.0Q11785 833 11845 833Q11901 833 11951.0 805.0Q12001 777 12042.0 727.0Q12083 677 12112.5 611.0Q12142 545 12157 469Q12157 458 12163.5 453.5Q12170 449 12184 449Q12211 449 12211 468V1060Q12211 1137 12191.0 1189.5Q12171 1242 12132.0 1269.0Q12093 1296 12036 1296ZM11444 1267H12310V1277H11444ZM11444 878H12310V898H11444ZM11444 393H12310V398H11444ZM11444 9H12310V19H11444ZM11900 1171Q11900 1139 11911.0 1109.5Q11922 1080 11942.5 1051.5Q11963 1023 11995.0 995.5Q12027 968 12070.0 940.5Q12113 913 12167 886Q12219 858 12262.0 834.0Q12305 810 12339.5 789.0Q12374 768 12400.5 747.0Q12427 726 12446.5 704.0Q12466 682 12479.0 658.0Q12492 634 12500 604Q12503 594 12512.0 593.0Q12521 592 12528.5 597.0Q12536 602 12533 614Q12524 656 12506.0 690.0Q12488 724 12459.0 753.5Q12430 783 12390.0 810.5Q12350 838 12297.5 867.5Q12245 897 12179 932Q12133 957 12097.0 980.0Q12061 1003 12034.5 1026.0Q12008 1049 11990.5 1072.0Q11973 1095 11964.5 1118.0Q11956 1141 11956 1166Q11956 1179 11947.5 1185.5Q11939 1192 11928.0 1193.0Q11917 1194 11908.5 1188.5Q11900 1183 11900 1171ZM12310 1267H12360V1277H12310ZM12310 878H12360V898H12310ZM12310 393H12360V398H12310ZM12310 9H12360V19H12310ZM12645 916Q12601 916 12566.0 898.0Q12531 880 12511.5 840.5Q12492 801 12492 737V402Q12492 392 12498.0 388.0Q12504 384 12517 384Q12531 384 12537.5 388.0Q12544 392 12544 402V731Q12544 775 12555.5 805.5Q12567 836 12590.5 852.0Q12614 868 12651 868Q12681 868 12709.5 855.5Q12738 843 12763.0 817.5Q12788 792 12807.0 750.0Q12826 708 12836 650V401Q12836 392 12842.5 387.5Q12849 383 12863 383Q12876 383 12882.5 387.5Q12889 392 12889 401V770Q12889 823 12905.0 845.0Q12921 867 12963 867Q12972 867 12976.5 874.5Q12981 882 12980.5 891.0Q12980 900 12974.0 907.5Q12968 915 12957 915Q12929 915 12908.0 909.0Q12887 903 12873.0 889.5Q12859 876 12850.5 856.5Q12842 837 12839 809L12838 762Q12822 806 12799.5 836.0Q12777 866 12751.0 883.5Q12725 901 12698.0 908.5Q12671 916 12645 916ZM12360 1267H13031V1277H12360ZM12360 878H13031V898H12360ZM12360 393H13031V398H12360ZM12360 9H13031V19H12360ZM12956 915Q12945 915 12939.5 907.5Q12934 900 12934.5 891.0Q12935 882 12942.0 874.5Q12949 867 12962 867Q12996 867 13026.0 852.0Q13056 837 13081.5 808.5Q13107 780 13128.5 740.0Q13150 700 13167 649Q13170 639 13179.0 639.0Q13188 639 13194.5 646.0Q13201 653 13198 663Q13182 718 13159.0 764.0Q13136 810 13106.5 844.0Q13077 878 13039.5 896.5Q13002 915 12956 915ZM13031 1267V1277ZM13031 878V898ZM13031 393V398ZM13031 9V19ZM13282 915Q13249 915 13225.5 906.0Q13202 897 13188.5 878.5Q13175 860 13169.0 833.5Q13163 807 13163 772V402Q13163 392 13169.5 387.5Q13176 383 13188 383Q13202 383 13208.5 387.5Q13215 392 13215 402V770Q13215 821 13230.0 844.0Q13245 867 13289 867Q13298 867 13302.5 874.5Q13307 882 13306.5 891.0Q13306 900 13300.0 907.5Q13294 915 13282 915ZM13188 215Q13166 215 13155.5 202.5Q13145 190 13145 166Q13145 141 13155.5 128.5Q13166 116 13188 116Q13210 116 13221.0 128.5Q13232 141 13232 166Q13232 191 13221.0 203.0Q13210 215 13188 215ZM13031 1267H13356V1277H13031ZM13031 878H13356V898H13031ZM13031 393H13356V398H13031ZM13031 9H13356V19H13031ZM13281 915Q13270 915 13264.5 907.5Q13259 900 13259.5 891.0Q13260 882 13267.0 874.5Q13274 867 13287 867Q13318 867 13344.5 852.5Q13371 838 13391.5 813.5Q13412 789 13425.0 755.5Q13438 722 13444 683Q13445 672 13454.0 669.0Q13463 666 13471.0 670.0Q13479 674 13478 685Q13473 733 13457.0 774.5Q13441 816 13415.5 847.5Q13390 879 13356.0 897.0Q13322 915 13281 915ZM13356 1267V1277ZM13356 878V898ZM13356 393V398ZM13356 9V19ZM13623 915Q13569 915 13527.5 886.0Q13486 857 13462.5 801.0Q13439 745 13439 664Q13439 613 13448.5 569.5Q13458 526 13477.0 491.0Q13496 456 13523.5 431.0Q13551 406 13588.0 392.5Q13625 379 13670 379Q13704 379 13736.5 389.0Q13769 399 13802 418V23Q13802 13 13808.5 8.5Q13815 4 13829 4Q13842 4 13848.0 8.5Q13854 13 13854 23V776Q13854 826 13869.0 846.5Q13884 867 13929 867Q13938 867 13942.0 874.5Q13946 882 13945.5 891.0Q13945 900 13939.5 907.5Q13934 915 13923 915Q13894 915 13872.0 908.5Q13850 902 13835.5 888.5Q13821 875 13813.0 854.0Q13805 833 13804 805L13803 772Q13781 828 13751.0 859.0Q13721 890 13688.5 902.5Q13656 915 13623 915ZM13633 865Q13667 865 13699.5 845.5Q13732 826 13759.0 781.5Q13786 737 13802 663V470Q13766 445 13733.5 436.5Q13701 428 13670 428Q13638 428 13610.5 438.0Q13583 448 13561.5 467.0Q13540 486 13525.0 514.0Q13510 542 13502.5 578.5Q13495 615 13495 661Q13495 720 13510.0 766.0Q13525 812 13555.5 838.5Q13586 865 13633 865ZM13356 1267H13997V1277H13356ZM13356 878H13997V898H13356ZM13356 393H13997V398H13356ZM13356 9H13997V19H13356ZM13922 915Q13911 915 13905.5 907.5Q13900 900 13900.5 891.0Q13901 882 13908.0 874.5Q13915 867 13928 867Q13951 867 13977.0 857.0Q14003 847 14036.0 825.5Q14069 804 14113 769Q14120 763 14128.0 766.0Q14136 769 14141.0 776.0Q14146 783 14145.5 792.0Q14145 801 14137 807Q14090 844 14051.5 868.5Q14013 893 13981.5 904.0Q13950 915 13922 915ZM13997 1267V1277ZM13997 878V898ZM13997 393V398ZM13997 9V19ZM14126 762Q14184 718 14225.5 681.0Q14267 644 14293.5 612.0Q14320 580 14332.0 551.5Q14344 523 14344 497Q14344 463 14324.0 445.5Q14304 428 14270 428Q14243 428 14217.0 441.5Q14191 455 14170.5 481.0Q14150 507 14137.5 545.0Q14125 583 14125 631Q14125 695 14143.0 740.0Q14161 785 14190.5 813.0Q14220 841 14256.0 854.0Q14292 867 14328 867Q14340 867 14345.5 874.5Q14351 882 14351.0 891.0Q14351 900 14345.5 907.5Q14340 915 14328 915Q14250 915 14191.5 880.0Q14133 845 14101.5 781.5Q14070 718 14070 633Q14070 581 14084.5 534.5Q14099 488 14126.0 453.0Q14153 418 14191.5 398.5Q14230 379 14277 379Q14319 379 14346.5 395.0Q14374 411 14387.0 437.0Q14400 463 14400 493Q14400 525 14386.5 558.5Q14373 592 14344.5 627.5Q14316 663 14271.5 703.5Q14227 744 14164 791ZM13997 1267H14485V1277H13997ZM13997 878H14485V898H13997ZM13997 393H14485V398H13997ZM13997 9H14485V19H13997ZM14328 915Q14316 915 14309.5 907.5Q14303 900 14303.0 891.0Q14303 882 14309.5 874.5Q14316 867 14328 867Q14390 867 14447.0 836.0Q14504 805 14553.0 746.5Q14602 688 14640.0 605.0Q14678 522 14703 419Q14705 410 14715.0 409.0Q14725 408 14733.5 414.0Q14742 420 14739 435Q14715 545 14674.5 634.0Q14634 723 14580.5 785.5Q14527 848 14463.0 881.5Q14399 915 14328 915ZM14485 1267H14510V1277H14485ZM14485 878H14510V898H14485ZM14485 393H14510V398H14485ZM14485 9H14510V19H14485ZM14804 917Q14762 917 14723.0 904.5Q14684 892 14655 870Q14648 863 14647.5 855.0Q14647 847 14656 838Q14663 830 14670.0 828.5Q14677 827 14686 833Q14715 853 14744.0 862.5Q14773 872 14808 872Q14858 872 14887.0 841.0Q14916 810 14916 758Q14916 718 14900.0 689.0Q14884 660 14858.0 638.0Q14832 616 14802.5 595.0Q14773 574 14747.5 549.0Q14722 524 14705.5 491.5Q14689 459 14689 413Q14689 384 14700.5 363.0Q14712 342 14735 342Q14748 342 14755.0 348.5Q14762 355 14762 367Q14762 379 14756.0 397.5Q14750 416 14739 439Q14741 470 14758.0 493.5Q14775 517 14801.5 537.0Q14828 557 14857.0 578.0Q14886 599 14912.0 623.5Q14938 648 14954.5 680.5Q14971 713 14971 758Q14971 829 14925.5 873.0Q14880 917 14804 917ZM14510 1267H15060V1277H14510ZM14510 878H15060V898H14510ZM14510 393H15060V398H14510ZM14510 9H15060V19H14510Z" fill="currentColor" /></svg>