<svg viewBox="0 0 11511.384615384615 1474" xmlns="http://www.w3.org/2000/svg"><path d="M491.38461538461536 602Q477.38461538461536 603 471.88461538461536 596.5Q466.38461538461536 590 468.38461538461536 578Q469.38461538461536 566 476.38461538461536 559.5Q483.38461538461536 553 495.38461538461536 553Q568.3846153846154 551 636.8846153846154 538.0Q705.3846153846154 525 764.3846153846154 500.0Q823.3846153846154 475 867.8846153846154 438.0Q912.3846153846154 401 937.8846153846154 351.0Q963.3846153846154 301 963.3846153846154 237Q963.3846153846154 188 941.8846153846154 152.5Q920.3846153846154 117 883.3846153846154 94.5Q846.3846153846154 72 797.3846153846154 61.5Q748.3846153846154 51 693.3846153846154 51Q616.3846153846154 51 547.8846153846154 64.0Q479.38461538461536 77 417.38461538461536 104.5Q355.38461538461536 132 297.38461538461536 175Q286.38461538461536 184 277.38461538461536 181.5Q268.38461538461536 179 260.38461538461536 170Q254.3846153846154 161 255.38461538461536 151.5Q256.38461538461536 142 267.38461538461536 135Q312.38461538461536 101 361.38461538461536 75.5Q410.38461538461536 50 463.88461538461536 33.5Q517.3846153846154 17 575.8846153846154 8.5Q634.3846153846154 0 697.3846153846154 0Q769.3846153846154 0 828.3846153846154 15.0Q887.3846153846154 30 930.3846153846154 60.0Q973.3846153846154 90 996.8846153846154 133.5Q1020.3846153846154 177 1020.3846153846154 235Q1020.3846153846154 309 992.3846153846154 367.0Q964.3846153846154 425 913.8846153846154 468.0Q863.3846153846154 511 796.3846153846154 540.0Q729.3846153846154 569 651.8846153846154 584.0Q574.3846153846154 599 491.38461538461536 602ZM144.3846153846154 1002Q110.38461538461539 1002 81.88461538461539 988.5Q53.38461538461539 975 33.38461538461539 950.0Q13.384615384615385 925 1.384615384615385 890Q-1.615384615384615 880 1.884615384615385 872.0Q5.384615384615385 864 15.384615384615385 860Q26.384615384615387 855 33.88461538461539 858.0Q41.38461538461539 861 46.38461538461539 871Q59.38461538461539 902 75.38461538461539 919.5Q91.38461538461539 937 110.38461538461539 943.5Q129.3846153846154 950 150.3846153846154 950Q189.3846153846154 950 218.8846153846154 916.5Q248.3846153846154 883 274.38461538461536 805L482.38461538461536 170Q485.38461538461536 159 492.88461538461536 154.5Q500.38461538461536 150 515.3846153846154 150Q529.3846153846154 150 535.3846153846154 154.5Q541.3846153846154 159 537.3846153846154 170L328.38461538461536 810Q308.38461538461536 872 282.38461538461536 915.5Q256.38461538461536 959 222.88461538461536 980.5Q189.3846153846154 1002 144.3846153846154 1002ZM8.384615384615385 1445H915.3846153846154V1455H8.384615384615385ZM8.384615384615385 965H915.3846153846154V985H8.384615384615385ZM8.384615384615385 480H915.3846153846154V485H8.384615384615385ZM8.384615384615385 5H915.3846153846154V15H8.384615384615385ZM1069.3846153846152 1002Q1037.3846153846152 1002 1015.8846153846152 992.0Q994.3846153846154 982 983.3846153846154 961.5Q972.3846153846154 941 973.3846153846154 912.0Q974.3846153846154 883 986.3846153846154 845L1255.3846153846152 21Q1260.3846153846152 9 1266.3846153846152 4.5Q1272.3846153846152 0 1286.3846153846152 0Q1303.3846153846152 0 1309.3846153846152 6.0Q1315.3846153846152 12 1311.3846153846152 24L1040.3846153846152 851Q1023.3846153846154 904 1032.3846153846152 929.0Q1041.3846153846152 954 1084.3846153846152 954Q1093.3846153846152 954 1097.8846153846152 961.5Q1102.3846153846152 969 1100.8846153846152 978.0Q1099.3846153846152 987 1091.3846153846152 994.5Q1083.3846153846152 1002 1069.3846153846152 1002ZM915.3846153846154 1445H1216.3846153846152V1455H915.3846153846154ZM915.3846153846154 965H1216.3846153846152V985H915.3846153846154ZM915.3846153846154 480H1216.3846153846152V485H915.3846153846154ZM915.3846153846154 5H1216.3846153846152V15H915.3846153846154ZM1070.3846153846155 1002Q1059.3846153846155 1002 1054.8846153846155 994.5Q1050.3846153846155 987 1051.8846153846155 978.0Q1053.3846153846155 969 1061.8846153846155 961.5Q1070.3846153846155 954 1085.3846153846155 954Q1115.3846153846155 954 1145.8846153846155 939.5Q1176.3846153846155 925 1204.8846153846155 899.5Q1233.3846153846155 874 1257.3846153846155 840.0Q1281.3846153846155 806 1298.3846153846155 768Q1303.3846153846155 757 1311.8846153846155 757.0Q1320.3846153846155 757 1327.3846153846155 764.5Q1334.3846153846155 772 1330.3846153846155 782Q1311.3846153846155 828 1283.8846153846155 868.0Q1256.3846153846155 908 1222.8846153846155 938.0Q1189.3846153846155 968 1150.8846153846155 985.0Q1112.3846153846155 1002 1070.3846153846155 1002ZM1216.3846153846155 1445V1455ZM1216.3846153846155 965V985ZM1216.3846153846155 480V485ZM1216.3846153846155 5V15ZM1414.3846153846155 1002Q1373.3846153846155 1002 1343.3846153846155 982.0Q1313.3846153846155 962 1297.3846153846155 925.5Q1281.3846153846155 889 1281.3846153846155 839Q1281.3846153846155 795 1293.8846153846155 744.5Q1306.3846153846155 694 1331.3846153846155 644.5Q1356.3846153846155 595 1394.3846153846155 555.0Q1432.3846153846155 515 1484.8846153846155 490.5Q1537.3846153846155 466 1603.3846153846155 466Q1641.3846153846155 466 1680.8846153846155 480.0Q1720.3846153846155 494 1751.3846153846155 518L1739.3846153846155 562Q1698.3846153846155 534 1664.8846153846155 524.5Q1631.3846153846155 515 1600.3846153846155 515Q1546.3846153846155 515 1504.3846153846155 535.5Q1462.3846153846155 556 1430.8846153846155 591.0Q1399.3846153846155 626 1378.8846153846155 668.0Q1358.3846153846155 710 1348.3846153846155 753.5Q1338.3846153846155 797 1338.3846153846155 835Q1338.3846153846155 871 1348.3846153846155 897.5Q1358.3846153846155 924 1378.3846153846155 938.0Q1398.3846153846155 952 1429.3846153846155 952Q1464.3846153846155 952 1504.3846153846155 928.5Q1544.3846153846155 905 1585.8846153846155 856.0Q1627.3846153846155 807 1665.3846153846155 731L1678.3846153846155 771Q1634.3846153846155 861 1586.3846153846155 911.5Q1538.3846153846155 962 1493.8846153846155 982.0Q1449.3846153846155 1002 1414.3846153846155 1002ZM1703.3846153846155 1002Q1674.3846153846155 1002 1653.8846153846155 992.0Q1633.3846153846155 982 1622.8846153846155 962.5Q1612.3846153846155 943 1612.3846153846155 916.0Q1612.3846153846155 889 1623.3846153846155 855L1741.3846153846155 491Q1745.3846153846155 479 1751.8846153846155 474.5Q1758.3846153846155 470 1771.3846153846155 470Q1789.3846153846155 470 1794.3846153846155 477.5Q1799.3846153846155 485 1795.3846153846155 497L1676.3846153846155 860Q1660.3846153846155 911 1672.8846153846155 932.5Q1685.3846153846155 954 1718.3846153846155 954Q1727.3846153846155 954 1731.3846153846155 961.5Q1735.3846153846155 969 1733.8846153846155 978.0Q1732.3846153846155 987 1724.8846153846155 994.5Q1717.3846153846155 1002 1703.3846153846155 1002ZM1216.3846153846155 1445H1851.3846153846155V1455H1216.3846153846155ZM1216.3846153846155 965H1851.3846153846155V985H1216.3846153846155ZM1216.3846153846155 480H1851.3846153846155V485H1216.3846153846155ZM1216.3846153846155 5H1851.3846153846155V15H1216.3846153846155ZM1705.3846153846155 1002Q1694.3846153846155 1002 1689.8846153846155 994.5Q1685.3846153846155 987 1686.8846153846155 978.0Q1688.3846153846155 969 1696.8846153846155 961.5Q1705.3846153846155 954 1720.3846153846155 954Q1751.3846153846155 954 1783.8846153846155 938.5Q1816.3846153846155 923 1850.3846153846155 893.5Q1884.3846153846155 864 1919.3846153846155 822.5Q1954.3846153846155 781 1989.3846153846155 728Q1996.3846153846155 717 2005.3846153846155 718.5Q2014.3846153846155 720 2018.8846153846155 728.0Q2023.3846153846155 736 2017.3846153846155 746Q1980.3846153846155 807 1942.8846153846155 855.0Q1905.3846153846155 903 1866.8846153846155 935.5Q1828.3846153846155 968 1787.8846153846155 985.0Q1747.3846153846155 1002 1705.3846153846155 1002ZM1851.3846153846155 1445V1455ZM1851.3846153846155 965V985ZM1851.3846153846155 480V485ZM1851.3846153846155 5V15ZM2063.3846153846152 1001Q2016.3846153846155 1001 1984.8846153846155 980.0Q1953.3846153846155 959 1945.3846153846155 916.5Q1937.3846153846155 874 1958.3846153846155 809L2062.3846153846152 491Q2066.3846153846152 479 2072.8846153846152 474.5Q2079.3846153846152 470 2092.3846153846152 470Q2109.3846153846152 470 2115.3846153846152 476.0Q2121.3846153846152 482 2117.3846153846152 494L2011.3846153846155 818Q1997.3846153846155 860 1999.3846153846155 890.5Q2001.3846153846155 921 2020.3846153846155 936.5Q2039.3846153846155 952 2077.3846153846152 952Q2105.3846153846152 952 2137.8846153846152 939.5Q2170.3846153846152 927 2203.8846153846152 900.0Q2237.3846153846152 873 2269.8846153846152 830.0Q2302.3846153846152 787 2331.3846153846152 726L2407.3846153846152 491Q2411.3846153846152 479 2417.8846153846152 474.5Q2424.3846153846152 470 2437.3846153846152 470Q2455.3846153846152 470 2460.3846153846152 477.5Q2465.3846153846152 485 2461.3846153846152 497L2219.3846153846152 1240Q2193.3846153846152 1321 2161.8846153846152 1373.0Q2130.3846153846152 1425 2086.3846153846152 1449.5Q2042.3846153846155 1474 1976.3846153846155 1474Q1935.3846153846155 1474 1902.8846153846155 1461.5Q1870.3846153846155 1449 1846.3846153846155 1426.5Q1822.3846153846155 1404 1807.3846153846155 1373Q1802.3846153846155 1362 1803.3846153846155 1354.0Q1804.3846153846155 1346 1817.3846153846155 1339Q1830.3846153846155 1332 1837.3846153846155 1333.5Q1844.3846153846155 1335 1849.3846153846155 1344Q1871.3846153846155 1390 1903.3846153846155 1407.5Q1935.3846153846155 1425 1981.3846153846155 1425Q2030.3846153846155 1425 2063.3846153846152 1405.0Q2096.3846153846152 1385 2120.8846153846152 1343.5Q2145.3846153846152 1302 2166.3846153846152 1237L2288.3846153846152 858Q2260.3846153846152 899 2230.3846153846152 926.5Q2200.3846153846152 954 2170.8846153846152 970.5Q2141.3846153846152 987 2113.8846153846152 994.0Q2086.3846153846152 1001 2063.3846153846152 1001ZM1851.3846153846155 1445H2504.3846153846152V1455H1851.3846153846155ZM1851.3846153846155 965H2504.3846153846152V985H1851.3846153846155ZM1851.3846153846155 480H2504.3846153846152V485H1851.3846153846155ZM1851.3846153846155 5H2504.3846153846152V15H1851.3846153846155ZM2717.3846153846152 1004Q2676.3846153846152 1004 2649.8846153846152 989.0Q2623.3846153846152 974 2611.3846153846152 946.0Q2599.3846153846152 918 2600.3846153846152 881.0Q2601.3846153846152 844 2616.3846153846152 801L2717.3846153846152 491Q2721.3846153846152 479 2727.8846153846152 474.5Q2734.3846153846152 470 2748.3846153846152 470Q2764.3846153846152 470 2769.3846153846152 475.5Q2774.3846153846152 481 2769.3846153846152 493L2670.3846153846152 801Q2656.3846153846152 845 2655.3846153846152 880.0Q2654.3846153846152 915 2670.8846153846152 935.0Q2687.3846153846152 955 2724.3846153846152 955Q2753.3846153846152 955 2781.8846153846152 942.5Q2810.3846153846152 930 2836.8846153846152 905.5Q2863.3846153846152 881 2886.3846153846152 847.0Q2909.3846153846152 813 2925.3846153846152 768L3015.3846153846152 491Q3019.3846153846152 479 3026.3846153846152 474.5Q3033.3846153846152 470 3045.3846153846152 470Q3062.3846153846152 470 3067.3846153846152 475.5Q3072.3846153846152 481 3068.3846153846152 493L2976.3846153846152 777Q2963.3846153846152 816 2958.3846153846152 848.5Q2953.3846153846152 881 2958.3846153846152 905.0Q2963.3846153846152 929 2980.8846153846152 942.0Q2998.3846153846152 955 3030.3846153846152 955Q3070.3846153846152 955 3106.3846153846152 934.5Q3142.3846153846152 914 3172.3846153846152 880.0Q3202.3846153846152 846 3224.3846153846152 804.5Q3246.3846153846152 763 3260.3846153846152 720Q3274.3846153846152 671 3275.8846153846152 634.0Q3277.3846153846152 597 3274.3846153846152 567Q3253.3846153846152 554 3244.3846153846152 538.0Q3235.3846153846152 522 3235.3846153846152 506Q3235.3846153846152 489 3245.3846153846152 477.5Q3255.3846153846152 466 3271.3846153846152 466Q3293.3846153846152 466 3306.3846153846152 486.5Q3319.3846153846152 507 3321.3846153846152 548Q3325.3846153846152 570 3326.3846153846152 598.0Q3327.3846153846152 626 3323.8846153846152 659.0Q3320.3846153846152 692 3309.3846153846152 727Q3295.3846153846152 777 3268.8846153846152 826.5Q3242.3846153846152 876 3205.8846153846152 916.0Q3169.3846153846152 956 3122.8846153846152 980.0Q3076.3846153846152 1004 3022.3846153846152 1004Q2985.3846153846152 1004 2958.8846153846152 990.5Q2932.3846153846152 977 2918.3846153846152 952.0Q2904.3846153846152 927 2903.3846153846152 890Q2880.3846153846152 928 2849.3846153846152 953.5Q2818.3846153846152 979 2784.8846153846152 991.5Q2751.3846153846152 1004 2717.3846153846152 1004ZM2504.3846153846152 1445H3392.3846153846152V1455H2504.3846153846152ZM2504.3846153846152 965H3392.3846153846152V985H2504.3846153846152ZM2504.3846153846152 480H3392.3846153846152V485H2504.3846153846152ZM2504.3846153846152 5H3392.3846153846152V15H2504.3846153846152ZM3404.3846153846152 583Q3365.3846153846152 583 3334.8846153846152 575.0Q3304.3846153846152 567 3281.3846153846152 551Q3272.3846153846152 546 3271.8846153846152 538.0Q3271.3846153846152 530 3275.8846153846152 523.5Q3280.3846153846152 517 3287.3846153846152 514.0Q3294.3846153846152 511 3301.3846153846152 517Q3318.3846153846152 528 3343.8846153846152 534.0Q3369.3846153846152 540 3404.3846153846152 540Q3441.3846153846152 540 3479.8846153846152 533.0Q3518.3846153846152 526 3553.3846153846152 512.5Q3588.3846153846152 499 3612.3846153846152 480Q3619.3846153846152 473 3626.8846153846152 477.5Q3634.3846153846152 482 3635.8846153846152 491.5Q3637.3846153846152 501 3626.3846153846152 511Q3581.3846153846152 547 3521.8846153846152 565.0Q3462.3846153846152 583 3404.3846153846152 583ZM3391.3846153846152 1445V1455ZM3391.3846153846152 965V985ZM3391.3846153846152 480V485ZM3391.3846153846152 5V15ZM3467.3846153846152 1000Q3455.3846153846152 1000 3448.3846153846152 995.0Q3441.3846153846152 990 3445.3846153846152 978L3603.3846153846152 491Q3607.3846153846152 479 3614.3846153846152 474.5Q3621.3846153846152 470 3633.3846153846152 470Q3650.3846153846152 470 3655.8846153846152 476.5Q3661.3846153846152 483 3657.3846153846152 495L3620.3846153846152 608Q3646.3846153846152 567 3671.3846153846152 539.5Q3696.3846153846152 512 3719.8846153846152 496.0Q3743.3846153846152 480 3764.3846153846152 473.0Q3785.3846153846152 466 3804.3846153846152 466Q3815.3846153846152 466 3820.3846153846152 473.5Q3825.3846153846152 481 3823.3846153846152 491.0Q3821.3846153846152 501 3813.8846153846152 508.5Q3806.3846153846152 516 3793.3846153846152 516Q3769.3846153846152 516 3742.3846153846152 530.5Q3715.3846153846152 545 3686.8846153846152 574.5Q3658.3846153846152 604 3629.8846153846152 647.5Q3601.3846153846152 691 3574.3846153846152 748L3498.3846153846152 981Q3496.3846153846152 991 3488.8846153846152 995.5Q3481.3846153846152 1000 3467.3846153846152 1000ZM3392.3846153846152 1445H3796.3846153846152V1455H3392.3846153846152ZM3392.3846153846152 965H3796.3846153846152V985H3392.3846153846152ZM3392.3846153846152 480H3796.3846153846152V485H3392.3846153846152ZM3392.3846153846152 5H3796.3846153846152V15H3392.3846153846152ZM3940.3846153846152 545Q3915.3846153846152 545 3890.8846153846152 537.5Q3866.3846153846152 530 3842.8846153846152 523.0Q3819.3846153846152 516 3794.3846153846152 516Q3782.3846153846152 516 3778.3846153846152 508.5Q3774.3846153846152 501 3775.8846153846152 491.0Q3777.3846153846152 481 3784.8846153846152 473.5Q3792.3846153846152 466 3805.3846153846152 466Q3834.3846153846152 466 3859.8846153846152 474.5Q3885.3846153846152 483 3909.3846153846152 491.5Q3933.3846153846152 500 3956.3846153846152 500Q3973.3846153846152 500 3987.3846153846152 496.0Q4001.3846153846152 492 4015.3846153846152 484Q4023.3846153846152 479 4028.8846153846152 484.0Q4034.3846153846152 489 4035.3846153846152 497.5Q4036.3846153846152 506 4029.3846153846152 512Q4007.3846153846152 531 3984.3846153846152 538.0Q3961.3846153846152 545 3940.3846153846152 545ZM3796.3846153846152 1445V1455ZM3796.3846153846152 965V985ZM3796.3846153846152 480V485ZM3796.3846153846152 5V15ZM3974.3846153846152 1002Q3942.3846153846152 1002 3920.8846153846152 992.0Q3899.3846153846152 982 3888.8846153846152 961.5Q3878.3846153846152 941 3878.8846153846152 912.0Q3879.3846153846152 883 3891.3846153846152 845L4006.3846153846152 491Q4011.3846153846152 479 4017.8846153846152 474.5Q4024.3846153846152 470 4037.3846153846152 470Q4053.3846153846152 470 4059.8846153846152 476.0Q4066.3846153846152 482 4062.3846153846152 494L3945.3846153846152 851Q3927.3846153846152 904 3936.8846153846152 929.0Q3946.3846153846152 954 3989.3846153846152 954Q3999.3846153846152 954 4003.3846153846152 961.5Q4007.3846153846152 969 4005.8846153846152 978.0Q4004.3846153846152 987 3996.3846153846152 994.5Q3988.3846153846152 1002 3974.3846153846152 1002ZM4094.3846153846152 302Q4077.3846153846152 302 4065.8846153846152 293.0Q4054.3846153846152 284 4054.3846153846152 266Q4054.3846153846152 242 4069.3846153846152 222.5Q4084.3846153846152 203 4112.384615384615 203Q4129.384615384615 203 4140.884615384615 212.0Q4152.384615384615 221 4152.384615384615 240Q4152.384615384615 263 4137.884615384615 282.5Q4123.384615384615 302 4094.3846153846152 302ZM3796.3846153846152 1445H4121.384615384615V1455H3796.3846153846152ZM3796.3846153846152 965H4121.384615384615V985H3796.3846153846152ZM3796.3846153846152 480H4121.384615384615V485H3796.3846153846152ZM3796.3846153846152 5H4121.384615384615V15H3796.3846153846152ZM3975.3846153846152 1002Q3964.3846153846152 1002 3959.8846153846152 994.5Q3955.3846153846152 987 3956.8846153846152 978.0Q3958.3846153846152 969 3966.8846153846152 961.5Q3975.3846153846152 954 3990.3846153846152 954Q4020.3846153846152 954 4053.3846153846152 941.0Q4086.3846153846152 928 4120.384615384615 902.0Q4154.384615384615 876 4190.384615384615 836.0Q4226.384615384615 796 4262.384615384615 741Q4270.384615384615 728 4279.384615384615 730.0Q4288.384615384615 732 4292.884615384615 741.5Q4297.384615384615 751 4290.384615384615 760Q4250.384615384615 824 4210.884615384615 870.0Q4171.384615384615 916 4131.884615384615 945.0Q4092.3846153846152 974 4053.3846153846152 988.0Q4014.3846153846152 1002 3975.3846153846152 1002ZM4121.384615384615 1445V1455ZM4121.384615384615 965V985ZM4121.384615384615 480V485ZM4121.384615384615 5V15ZM4362.384615384615 1002Q4318.384615384615 1002 4287.884615384615 986.0Q4257.384615384615 970 4241.384615384615 940.0Q4225.384615384615 910 4225.884615384615 866.5Q4226.384615384615 823 4244.384615384615 768L4321.384615384615 533H4235.384615384615Q4224.384615384615 533 4221.884615384615 526.5Q4219.384615384615 520 4222.384615384615 508Q4226.384615384615 496 4232.884615384615 490.5Q4239.384615384615 485 4249.384615384615 485H4336.384615384615L4404.384615384615 276Q4408.384615384615 264 4414.884615384615 259.5Q4421.384615384615 255 4435.384615384615 255Q4452.384615384615 255 4458.384615384615 261.0Q4464.384615384615 267 4460.384615384615 279L4392.384615384615 485H4520.384615384615Q4531.384615384615 485 4533.884615384615 491.0Q4536.384615384615 497 4533.384615384615 509Q4529.384615384615 522 4522.884615384615 527.5Q4516.384615384615 533 4506.384615384615 533H4377.384615384615L4300.384615384615 766Q4284.384615384615 816 4282.384615384615 852.0Q4280.384615384615 888 4291.384615384615 910.5Q4302.384615384615 933 4323.884615384615 943.5Q4345.384615384615 954 4376.384615384615 954Q4386.384615384615 954 4390.384615384615 961.5Q4394.384615384615 969 4393.384615384615 978.0Q4392.384615384615 987 4384.384615384615 994.5Q4376.384615384615 1002 4362.384615384615 1002ZM4121.384615384615 1445H4509.384615384615V1455H4121.384615384615ZM4121.384615384615 965H4509.384615384615V985H4121.384615384615ZM4121.384615384615 480H4509.384615384615V485H4121.384615384615ZM4121.384615384615 5H4509.384615384615V15H4121.384615384615ZM4362.384615384615 1002Q4351.384615384615 1002 4346.884615384615 994.5Q4342.384615384615 987 4343.884615384615 978.0Q4345.384615384615 969 4353.884615384615 961.5Q4362.384615384615 954 4377.384615384615 954Q4394.384615384615 954 4421.384615384615 945.0Q4448.384615384615 936 4491.384615384615 913.0Q4534.384615384615 890 4598.384615384615 848Q4607.384615384615 842 4614.384615384615 845.0Q4621.384615384615 848 4625.384615384615 856.0Q4629.384615384615 864 4627.884615384615 873.0Q4626.384615384615 882 4618.384615384615 887Q4547.384615384615 933 4499.884615384615 958.0Q4452.384615384615 983 4419.884615384615 992.5Q4387.384615384615 1002 4362.384615384615 1002ZM4508.384615384615 1445V1455ZM4508.384615384615 965V985ZM4508.384615384615 480V485ZM4508.384615384615 5V15ZM4761.384615384615 1003Q4703.384615384615 1003 4662.384615384615 975.5Q4621.384615384615 948 4600.384615384615 900.0Q4579.384615384615 852 4579.384615384615 790Q4579.384615384615 736 4598.884615384615 679.0Q4618.384615384615 622 4654.884615384615 574.0Q4691.384615384615 526 4742.884615384615 496.0Q4794.384615384615 466 4857.384615384615 466Q4895.384615384615 466 4918.884615384615 479.0Q4942.384615384615 492 4953.884615384615 513.0Q4965.384615384615 534 4965.384615384615 559Q4965.384615384615 597 4945.384615384615 634.0Q4925.384615384615 671 4884.384615384615 709.5Q4843.384615384615 748 4781.384615384615 790.5Q4719.384615384615 833 4635.384615384615 883L4618.384615384615 841Q4694.384615384615 795 4748.884615384615 756.5Q4803.384615384615 718 4839.384615384615 685.0Q4875.384615384615 652 4892.384615384615 623.5Q4909.384615384615 595 4909.384615384615 569Q4909.384615384615 543 4894.884615384615 529.0Q4880.384615384615 515 4850.384615384615 515Q4802.384615384615 515 4762.884615384615 540.5Q4723.384615384615 566 4694.884615384615 607.0Q4666.384615384615 648 4650.384615384615 695.5Q4634.384615384615 743 4634.384615384615 786Q4634.384615384615 844 4653.384615384615 881.5Q4672.384615384615 919 4702.884615384615 936.5Q4733.384615384615 954 4768.384615384615 954Q4808.384615384615 954 4839.884615384615 940.5Q4871.384615384615 927 4895.884615384615 907.5Q4920.384615384615 888 4938.384615384615 872Q4947.384615384615 864 4955.384615384615 865.0Q4963.384615384615 866 4970.384615384615 872Q4977.384615384615 879 4979.384615384615 888.0Q4981.384615384615 897 4972.384615384615 906Q4948.384615384615 931 4915.884615384615 953.5Q4883.384615384615 976 4844.384615384615 989.5Q4805.384615384615 1003 4761.384615384615 1003ZM4509.384615384615 1445H5035.384615384615V1455H4509.384615384615ZM4509.384615384615 965H5035.384615384615V985H4509.384615384615ZM4509.384615384615 480H5035.384615384615V485H4509.384615384615ZM4509.384615384615 5H5035.384615384615V15H4509.384615384615ZM5475.384615384615 1002Q5439.384615384615 1002 5413.884615384615 986.0Q5388.384615384615 970 5374.384615384615 942.5Q5360.384615384615 915 5360.384615384615 881Q5360.384615384615 834 5381.884615384615 784.0Q5403.384615384615 734 5437.384615384615 686Q5445.384615384615 675 5452.384615384615 674.0Q5459.384615384615 673 5471.384615384615 679Q5483.384615384615 686 5484.884615384615 693.0Q5486.384615384615 700 5480.384615384615 711Q5452.384615384615 753 5434.384615384615 795.0Q5416.384615384615 837 5416.384615384615 876Q5416.384615384615 897 5423.384615384615 913.5Q5430.384615384615 930 5445.384615384615 940.0Q5460.384615384615 950 5481.384615384615 950Q5507.384615384615 950 5530.884615384615 936.0Q5554.384615384615 922 5578.884615384615 890.5Q5603.384615384615 859 5629.384615384615 807.0Q5655.384615384615 755 5684.384615384615 679.0Q5713.384615384615 603 5747.384615384615 500L5899.384615384615 30Q5903.384615384615 19 5911.384615384615 14.5Q5919.384615384615 10 5931.384615384615 10Q5944.384615384615 10 5951.384615384615 15.5Q5958.384615384615 21 5961.384615384615 33L6135.384615384615 885L6321.384615384615 316Q6349.384615384615 232 6376.884615384615 172.0Q6404.384615384615 112 6434.384615384615 74.0Q6464.384615384615 36 6500.384615384615 18.0Q6536.384615384615 0 6580.384615384615 0Q6606.384615384615 0 6632.384615384615 6.5Q6658.384615384615 13 6682.384615384615 24.5Q6706.384615384615 36 6726.384615384615 52Q6737.384615384615 60 6738.884615384615 68.5Q6740.384615384615 77 6732.384615384615 88Q6725.384615384615 98 6716.884615384615 99.0Q6708.384615384615 100 6697.384615384615 93Q6669.384615384615 74 6638.884615384615 63.0Q6608.384615384615 52 6576.384615384615 52Q6543.384615384615 52 6516.384615384615 68.0Q6489.384615384615 84 6466.384615384615 117.5Q6443.384615384615 151 6420.884615384615 203.0Q6398.384615384615 255 6374.384615384615 328L6160.384615384615 979Q6157.384615384615 989 6149.384615384615 994.0Q6141.384615384615 999 6128.384615384615 999Q6119.384615384615 999 6113.384615384615 996.5Q6107.384615384615 994 6103.884615384615 988.0Q6100.384615384615 982 6097.384615384615 970L5925.384615384615 122L5799.384615384615 511Q5762.384615384615 625 5729.384615384615 709.0Q5696.384615384615 793 5665.384615384615 849.5Q5634.384615384615 906 5603.884615384615 939.5Q5573.384615384615 973 5541.884615384615 987.5Q5510.384615384615 1002 5475.384615384615 1002ZM5335.384615384615 1445H6534.384615384615V1455H5335.384615384615ZM5335.384615384615 965H6534.384615384615V985H5335.384615384615ZM5335.384615384615 480H6534.384615384615V485H5335.384615384615ZM5335.384615384615 5H6534.384615384615V15H5335.384615384615ZM6985.384615384615 1004Q6914.384615384615 1004 6857.384615384615 980.5Q6800.384615384615 957 6759.884615384615 912.5Q6719.384615384615 868 6697.384615384615 804.0Q6675.384615384615 740 6675.384615384615 658Q6675.384615384615 585 6692.384615384615 508.0Q6709.384615384615 431 6741.884615384615 357.5Q6774.384615384615 284 6821.384615384615 219.5Q6868.384615384615 155 6929.384615384615 105.5Q6990.384615384615 56 7064.384615384615 28.0Q7138.384615384615 0 7222.384615384615 0Q7294.384615384615 0 7351.384615384615 23.0Q7408.384615384615 46 7448.384615384615 88.5Q7488.384615384615 131 7509.884615384615 192.0Q7531.384615384615 253 7531.384615384615 330Q7531.384615384615 404 7514.384615384615 482.5Q7497.384615384615 561 7464.884615384615 636.5Q7432.384615384615 712 7384.884615384615 778.5Q7337.384615384615 845 7276.884615384615 895.5Q7216.384615384615 946 7143.384615384615 975.0Q7070.384615384615 1004 6985.384615384615 1004ZM6992.384615384615 950Q7065.384615384615 950 7129.884615384615 923.5Q7194.384615384615 897 7247.884615384615 850.0Q7301.384615384615 803 7342.884615384615 742.0Q7384.384615384615 681 7413.384615384615 612.0Q7442.384615384615 543 7457.384615384615 472.0Q7472.384615384615 401 7472.384615384615 334Q7472.384615384615 266 7455.384615384615 213.5Q7438.384615384615 161 7404.884615384615 125.5Q7371.384615384615 90 7323.884615384615 71.5Q7276.384615384615 53 7216.384615384615 53Q7143.384615384615 53 7079.384615384615 78.5Q7015.384615384615 104 6961.384615384615 149.0Q6907.384615384615 194 6865.384615384615 252.5Q6823.384615384615 311 6793.884615384615 378.5Q6764.384615384615 446 6749.384615384615 516.5Q6734.384615384615 587 6734.384615384615 654Q6734.384615384615 725 6751.884615384615 780.0Q6769.384615384615 835 6802.384615384615 873.0Q6835.384615384615 911 6883.384615384615 930.5Q6931.384615384615 950 6992.384615384615 950ZM6524.384615384615 1445H7527.384615384615V1455H6524.384615384615ZM6524.384615384615 965H7527.384615384615V985H6524.384615384615ZM6524.384615384615 480H7527.384615384615V485H6524.384615384615ZM6524.384615384615 5H7527.384615384615V15H6524.384615384615ZM8261.384615384615 1474Q8224.384615384615 1474 8195.884615384615 1461.0Q8167.384615384615 1448 8151.884615384615 1423.5Q8136.384615384615 1399 8136.384615384615 1364Q8136.384615384615 1351 8144.884615384615 1344.5Q8153.384615384615 1338 8164.884615384615 1337.5Q8176.384615384615 1337 8184.884615384615 1343.0Q8193.384615384615 1349 8193.384615384615 1361Q8193.384615384615 1391 8212.884615384615 1407.5Q8232.384615384615 1424 8267.384615384615 1424Q8324.384615384615 1424 8371.884615384615 1372.0Q8419.384615384615 1320 8452.384615384615 1220L8616.384615384615 709Q8575.384615384615 772 8531.384615384615 821.0Q8487.384615384615 870 8440.384615384615 903.5Q8393.384615384615 937 8343.384615384615 954.0Q8293.384615384615 971 8240.384615384615 971Q8181.384615384615 971 8131.884615384615 949.5Q8082.384615384615 928 8046.384615384615 888.0Q8010.384615384615 848 7991.384615384615 789.5Q7972.384615384615 731 7972.384615384615 657Q7972.384615384615 570 7992.384615384615 488.5Q8012.384615384615 407 8049.384615384615 333.5Q8086.384615384615 260 8137.884615384615 199.0Q8189.384615384615 138 8251.884615384615 93.5Q8314.384615384615 49 8385.384615384615 24.5Q8456.384615384615 0 8532.384615384615 0Q8589.384615384615 0 8639.384615384615 13.0Q8689.384615384615 26 8729.884615384615 52.0Q8770.384615384615 78 8799.384615384615 115Q8806.384615384615 122 8805.384615384615 130.0Q8804.384615384615 138 8793.384615384615 147Q8783.384615384615 155 8774.884615384615 153.5Q8766.384615384615 152 8756.384615384615 142Q8726.384615384615 111 8691.384615384615 91.5Q8656.384615384615 72 8616.384615384615 62.5Q8576.384615384615 53 8529.384615384615 53Q8462.384615384615 53 8399.884615384615 75.5Q8337.384615384615 98 8281.384615384615 139.5Q8225.384615384615 181 8179.384615384615 237.5Q8133.384615384615 294 8099.884615384615 361.0Q8066.384615384615 428 8048.384615384615 502.5Q8030.384615384615 577 8030.384615384615 656Q8030.384615384615 719 8045.884615384615 768.0Q8061.384615384615 817 8090.384615384615 850.5Q8119.384615384615 884 8159.384615384615 901.0Q8199.384615384615 918 8247.384615384615 918Q8302.384615384615 918 8357.884615384615 893.5Q8413.384615384615 869 8468.384615384615 820.5Q8523.384615384615 772 8575.884615384615 697.5Q8628.384615384615 623 8676.384615384615 524Q8680.384615384615 513 8688.384615384615 508.5Q8696.384615384615 504 8710.384615384615 504Q8739.384615384615 504 8732.384615384615 524L8507.384615384615 1221Q8480.384615384615 1305 8444.384615384615 1361.0Q8408.384615384615 1417 8362.884615384615 1445.5Q8317.384615384615 1474 8261.384615384615 1474ZM7827.384615384615 1445H8761.384615384615V1455H7827.384615384615ZM7827.384615384615 965H8761.384615384615V985H7827.384615384615ZM7827.384615384615 480H8761.384615384615V485H7827.384615384615ZM7827.384615384615 5H8761.384615384615V15H7827.384615384615ZM8135.384615384615 1364Q8135.384615384615 1325 8152.384615384615 1286.5Q8169.384615384615 1248 8202.384615384615 1211.0Q8235.384615384615 1174 8283.884615384615 1138.0Q8332.384615384615 1102 8395.884615384615 1067.0Q8459.384615384615 1032 8537.384615384615 998Q8589.384615384615 976 8635.884615384615 953.5Q8682.384615384615 931 8723.384615384615 907.5Q8764.384615384615 884 8799.884615384615 858.5Q8835.384615384615 833 8865.884615384615 805.0Q8896.384615384615 777 8920.884615384615 746.5Q8945.384615384615 716 8963.384615384615 682Q8969.384615384615 670 8978.884615384615 671.5Q8988.384615384615 673 8993.884615384615 681.5Q8999.384615384615 690 8993.384615384615 701Q8969.384615384615 746 8935.884615384615 786.0Q8902.384615384615 826 8860.884615384615 861.0Q8819.384615384615 896 8769.884615384615 927.5Q8720.384615384615 959 8663.884615384615 988.0Q8607.384615384615 1017 8545.384615384615 1045Q8476.384615384615 1076 8420.884615384615 1107.0Q8365.384615384615 1138 8322.884615384615 1169.5Q8280.384615384615 1201 8251.384615384615 1232.5Q8222.384615384615 1264 8207.884615384615 1296.5Q8193.384615384615 1329 8193.384615384615 1361Q8193.384615384615 1374 8184.384615384615 1380.5Q8175.384615384615 1387 8163.884615384615 1387.5Q8152.384615384615 1388 8143.884615384615 1382.0Q8135.384615384615 1376 8135.384615384615 1364ZM8760.384615384615 1445H8810.384615384615V1455H8760.384615384615ZM8760.384615384615 965H8810.384615384615V985H8760.384615384615ZM8760.384615384615 480H8810.384615384615V485H8760.384615384615ZM8760.384615384615 5H8810.384615384615V15H8760.384615384615ZM9022.384615384615 1001Q8975.384615384615 1001 8943.384615384615 980.0Q8911.384615384615 959 8903.384615384615 916.5Q8895.384615384615 874 8916.384615384615 809L9021.384615384615 491Q9025.384615384615 479 9031.884615384615 474.5Q9038.384615384615 470 9051.384615384615 470Q9068.384615384615 470 9074.384615384615 476.0Q9080.384615384615 482 9076.384615384615 494L8969.384615384615 818Q8955.384615384615 860 8957.384615384615 890.5Q8959.384615384615 921 8978.884615384615 936.5Q8998.384615384615 952 9036.384615384615 952Q9064.384615384615 952 9096.884615384615 939.5Q9129.384615384615 927 9162.884615384615 899.5Q9196.384615384615 872 9228.884615384615 828.5Q9261.384615384615 785 9290.384615384615 723L9366.384615384615 489Q9370.384615384615 477 9376.384615384615 473.0Q9382.384615384615 469 9396.384615384615 469Q9412.384615384615 469 9418.884615384615 474.5Q9425.384615384615 480 9421.384615384615 492L9304.384615384615 851Q9287.384615384615 904 9296.884615384615 929.0Q9306.384615384615 954 9351.384615384615 954Q9361.384615384615 954 9364.884615384615 961.5Q9368.384615384615 969 9366.884615384615 978.0Q9365.384615384615 987 9357.384615384615 994.5Q9349.384615384615 1002 9335.384615384615 1002Q9309.384615384615 1002 9289.884615384615 994.5Q9270.384615384615 987 9258.384615384615 973.0Q9246.384615384615 959 9242.884615384615 938.0Q9239.384615384615 917 9242.384615384615 891L9253.384615384615 850Q9225.384615384615 893 9194.884615384615 922.0Q9164.384615384615 951 9133.884615384615 968.5Q9103.384615384615 986 9074.884615384615 993.5Q9046.384615384615 1001 9022.384615384615 1001ZM8811.384615384615 1445H9482.384615384615V1455H8811.384615384615ZM8811.384615384615 965H9482.384615384615V985H8811.384615384615ZM8811.384615384615 480H9482.384615384615V485H8811.384615384615ZM8811.384615384615 5H9482.384615384615V15H8811.384615384615ZM9335.384615384615 1002Q9324.384615384615 1002 9319.884615384615 994.5Q9315.384615384615 987 9316.884615384615 978.0Q9318.384615384615 969 9326.884615384615 961.5Q9335.384615384615 954 9350.384615384615 954Q9381.384615384615 954 9413.884615384615 938.5Q9446.384615384615 923 9480.384615384615 893.5Q9514.384615384615 864 9549.384615384615 822.5Q9584.384615384615 781 9619.384615384615 728Q9626.384615384615 717 9635.384615384615 718.5Q9644.384615384615 720 9648.884615384615 728.0Q9653.384615384615 736 9647.384615384615 746Q9610.384615384615 807 9572.884615384615 855.0Q9535.384615384615 903 9496.884615384615 935.5Q9458.384615384615 968 9417.884615384615 985.0Q9377.384615384615 1002 9335.384615384615 1002ZM9481.384615384615 1445V1455ZM9481.384615384615 965V985ZM9481.384615384615 480V485ZM9481.384615384615 5V15ZM9660.384615384615 1002Q9628.384615384615 1002 9606.884615384615 992.0Q9585.384615384615 982 9574.884615384615 961.5Q9564.384615384615 941 9564.884615384615 912.0Q9565.384615384615 883 9577.384615384615 845L9692.384615384615 491Q9697.384615384615 479 9703.884615384615 474.5Q9710.384615384615 470 9723.384615384615 470Q9739.384615384615 470 9745.884615384615 476.0Q9752.384615384615 482 9748.384615384615 494L9631.384615384615 851Q9613.384615384615 904 9622.884615384615 929.0Q9632.384615384615 954 9675.384615384615 954Q9685.384615384615 954 9689.384615384615 961.5Q9693.384615384615 969 9691.884615384615 978.0Q9690.384615384615 987 9682.384615384615 994.5Q9674.384615384615 1002 9660.384615384615 1002ZM9780.384615384615 302Q9763.384615384615 302 9751.884615384615 293.0Q9740.384615384615 284 9740.384615384615 266Q9740.384615384615 242 9755.384615384615 222.5Q9770.384615384615 203 9798.384615384615 203Q9815.384615384615 203 9826.884615384615 212.0Q9838.384615384615 221 9838.384615384615 240Q9838.384615384615 263 9823.884615384615 282.5Q9809.384615384615 302 9780.384615384615 302ZM9482.384615384615 1445H9807.384615384615V1455H9482.384615384615ZM9482.384615384615 965H9807.384615384615V985H9482.384615384615ZM9482.384615384615 480H9807.384615384615V485H9482.384615384615ZM9482.384615384615 5H9807.384615384615V15H9482.384615384615ZM9661.384615384615 1002Q9650.384615384615 1002 9645.884615384615 994.5Q9641.384615384615 987 9642.884615384615 978.0Q9644.384615384615 969 9652.884615384615 961.5Q9661.384615384615 954 9676.384615384615 954Q9706.384615384615 954 9736.884615384615 939.5Q9767.384615384615 925 9795.884615384615 899.5Q9824.384615384615 874 9848.384615384615 840.0Q9872.384615384615 806 9889.384615384615 768Q9894.384615384615 757 9902.884615384615 757.0Q9911.384615384615 757 9918.384615384615 764.5Q9925.384615384615 772 9921.384615384615 782Q9902.384615384615 828 9874.884615384615 868.0Q9847.384615384615 908 9813.884615384615 938.0Q9780.384615384615 968 9741.884615384615 985.0Q9703.384615384615 1002 9661.384615384615 1002ZM9807.384615384615 1445V1455ZM9807.384615384615 965V985ZM9807.384615384615 480V485ZM9807.384615384615 5V15ZM10001.384615384615 1002Q9960.384615384615 1002 9929.884615384615 982.0Q9899.384615384615 962 9883.384615384615 925.5Q9867.384615384615 889 9867.384615384615 839Q9867.384615384615 795 9879.884615384615 744.0Q9892.384615384615 693 9917.384615384615 644.0Q9942.384615384615 595 9981.384615384615 554.5Q10020.384615384615 514 10072.384615384615 490.0Q10124.384615384615 466 10190.384615384615 466Q10223.384615384615 466 10258.884615384615 477.0Q10294.384615384615 488 10322.384615384615 508L10481.384615384615 21Q10485.384615384615 9 10491.884615384615 4.5Q10498.384615384615 0 10511.384615384615 0Q10530.384615384615 0 10534.884615384615 7.5Q10539.384615384615 15 10535.384615384615 27L10266.384615384615 851Q10249.384615384615 904 10259.884615384615 929.0Q10270.384615384615 954 10314.384615384615 954Q10323.384615384615 954 10327.384615384615 961.5Q10331.384615384615 969 10329.884615384615 978.0Q10328.384615384615 987 10320.884615384615 994.5Q10313.384615384615 1002 10299.384615384615 1002Q10273.384615384615 1002 10254.384615384615 995.0Q10235.384615384615 988 10223.384615384615 974.5Q10211.384615384615 961 10206.384615384615 941.5Q10201.384615384615 922 10204.384615384615 896L10212.384615384615 862Q10174.384615384615 916 10136.384615384615 946.5Q10098.384615384615 977 10063.884615384615 989.5Q10029.384615384615 1002 10001.384615384615 1002ZM10016.384615384615 952Q10051.384615384615 952 10089.884615384615 929.5Q10128.384615384615 907 10168.384615384615 860.5Q10208.384615384615 814 10246.384615384615 742L10309.384615384615 551Q10273.384615384615 530 10243.384615384615 522.5Q10213.384615384615 515 10186.384615384615 515Q10133.384615384615 515 10090.884615384615 535.5Q10048.384615384615 556 10017.384615384615 591.0Q9986.384615384615 626 9965.884615384615 668.0Q9945.384615384615 710 9935.384615384615 753.5Q9925.384615384615 797 9925.384615384615 835Q9925.384615384615 871 9935.384615384615 897.5Q9945.384615384615 924 9965.384615384615 938.0Q9985.384615384615 952 10016.384615384615 952ZM9807.384615384615 1445H10448.384615384615V1455H9807.384615384615ZM9807.384615384615 965H10448.384615384615V985H9807.384615384615ZM9807.384615384615 480H10448.384615384615V485H9807.384615384615ZM9807.384615384615 5H10448.384615384615V15H9807.384615384615ZM10302.384615384615 1002Q10291.384615384615 1002 10286.884615384615 994.5Q10282.384615384615 987 10283.884615384615 978.0Q10285.384615384615 969 10293.884615384615 961.5Q10302.384615384615 954 10317.384615384615 954Q10334.384615384615 954 10361.384615384615 945.0Q10388.384615384615 936 10431.384615384615 913.0Q10474.384615384615 890 10538.384615384615 848Q10547.384615384615 842 10554.384615384615 845.0Q10561.384615384615 848 10565.384615384615 856.0Q10569.384615384615 864 10567.884615384615 873.0Q10566.384615384615 882 10558.384615384615 887Q10487.384615384615 933 10439.884615384615 958.0Q10392.384615384615 983 10359.884615384615 992.5Q10327.384615384615 1002 10302.384615384615 1002ZM10448.384615384615 1445V1455ZM10448.384615384615 965V985ZM10448.384615384615 480V485ZM10448.384615384615 5V15ZM10557.384615384615 841Q10633.384615384615 795 10687.884615384615 756.5Q10742.384615384615 718 10778.384615384615 685.0Q10814.384615384615 652 10831.384615384615 623.5Q10848.384615384615 595 10848.384615384615 569Q10848.384615384615 543 10833.884615384615 529.0Q10819.384615384615 515 10789.384615384615 515Q10742.384615384615 515 10702.884615384615 540.5Q10663.384615384615 566 10634.384615384615 607.0Q10605.384615384615 648 10589.384615384615 695.5Q10573.384615384615 743 10573.384615384615 786Q10573.384615384615 831 10586.384615384615 863.0Q10599.384615384615 895 10620.884615384615 915.5Q10642.384615384615 936 10670.384615384615 945.5Q10698.384615384615 955 10730.384615384615 955Q10740.384615384615 955 10744.884615384615 962.5Q10749.384615384615 970 10747.384615384615 979.5Q10745.384615384615 989 10738.884615384615 996.0Q10732.384615384615 1003 10722.384615384615 1003Q10658.384615384615 1003 10612.884615384615 977.0Q10567.384615384615 951 10542.884615384615 903.0Q10518.384615384615 855 10518.384615384615 790Q10518.384615384615 736 10538.384615384615 679.0Q10558.384615384615 622 10594.884615384615 574.0Q10631.384615384615 526 10682.384615384615 496.0Q10733.384615384615 466 10796.384615384615 466Q10834.384615384615 466 10857.884615384615 479.0Q10881.384615384615 492 10892.884615384615 513.0Q10904.384615384615 534 10904.384615384615 559Q10904.384615384615 597 10884.384615384615 634.0Q10864.384615384615 671 10823.384615384615 709.5Q10782.384615384615 748 10720.384615384615 790.5Q10658.384615384615 833 10574.384615384615 883ZM10448.384615384615 1445H10936.384615384615V1455H10448.384615384615ZM10448.384615384615 965H10936.384615384615V985H10448.384615384615ZM10448.384615384615 480H10936.384615384615V485H10448.384615384615ZM10448.384615384615 5H10936.384615384615V15H10448.384615384615ZM10723.384615384615 1003Q10710.384615384615 1003 10705.384615384615 996.0Q10700.384615384615 989 10701.884615384615 979.5Q10703.384615384615 970 10710.884615384615 962.5Q10718.384615384615 955 10730.384615384615 955Q10789.384615384615 955 10850.884615384615 925.0Q10912.384615384615 895 10974.384615384615 836.5Q11036.384615384615 778 11096.884615384615 693.5Q11157.384615384615 609 11215.384615384615 499Q11220.384615384615 490 11229.384615384615 491.0Q11238.384615384615 492 11244.884615384615 500.0Q11251.384615384615 508 11245.384615384615 521Q11187.384615384615 636 11124.884615384615 726.0Q11062.384615384615 816 10996.384615384615 878.0Q10930.384615384615 940 10861.884615384615 971.5Q10793.384615384615 1003 10723.384615384615 1003ZM10935.384615384615 1445H10960.384615384615V1455H10935.384615384615ZM10935.384615384615 965H10960.384615384615V985H10935.384615384615ZM10935.384615384615 480H10960.384615384615V485H10935.384615384615ZM10935.384615384615 5H10960.384615384615V15H10935.384615384615ZM11184.384615384615 1004Q11140.384615384615 1004 11103.884615384615 991.5Q11067.384615384615 979 11047.384615384615 960Q11039.384615384615 953 11039.384615384615 945.0Q11039.384615384615 937 11048.384615384615 928Q11057.384615384615 919 11064.384615384615 919.0Q11071.384615384615 919 11082.384615384615 927Q11102.384615384615 940 11128.884615384615 949.0Q11155.384615384615 958 11185.384615384615 958Q11247.384615384615 958 11280.884615384615 925.5Q11314.384615384615 893 11314.384615384615 834Q11314.384615384615 806 11306.884615384615 781.0Q11299.384615384615 756 11286.884615384615 732.0Q11274.384615384615 708 11260.884615384615 683.5Q11247.384615384615 659 11234.884615384615 632.5Q11222.384615384615 606 11214.884615384615 576.5Q11207.384615384615 547 11207.384615384615 512Q11207.384615384615 471 11219.884615384615 450.5Q11232.384615384615 430 11258.384615384615 430Q11273.384615384615 430 11279.384615384615 438.0Q11285.384615384615 446 11285.384615384615 455Q11285.384615384615 468 11277.884615384615 482.5Q11270.384615384615 497 11250.384615384615 524Q11253.384615384615 556 11262.884615384615 583.0Q11272.384615384615 610 11285.884615384615 634.0Q11299.384615384615 658 11313.884615384615 680.5Q11328.384615384615 703 11341.384615384615 726.5Q11354.384615384615 750 11362.384615384615 776.0Q11370.384615384615 802 11370.384615384615 834Q11370.384615384615 913 11319.884615384615 958.5Q11269.384615384615 1004 11184.384615384615 1004ZM10961.384615384615 1445H11511.384615384615V1455H10961.384615384615ZM10961.384615384615 965H11511.384615384615V985H10961.384615384615ZM10961.384615384615 480H11511.384615384615V485H10961.384615384615ZM10961.384615384615 5H11511.384615384615V15H10961.384615384615Z" fill="currentColor" /></svg>