<svg viewBox="0 0 10936 1538" xmlns="http://www.w3.org/2000/svg"><path d="M113 1033Q84 1033 90 1013L370 40Q373 30 380.0 25.5Q387 21 402 21H591Q684 21 746.5 42.0Q809 63 840.5 108.5Q872 154 872 229Q872 308 842.5 370.5Q813 433 758.5 477.5Q704 522 628.0 550.0Q552 578 459 591Q411 596 361.0 599.5Q311 603 262 605L144 1014Q141 1024 134.5 1028.5Q128 1033 113 1033ZM276 555Q307 554 339.0 552.0Q371 550 403.5 547.0Q436 544 465 540Q573 525 651.5 486.0Q730 447 772.5 384.0Q815 321 815 233Q815 173 790.0 138.0Q765 103 714.5 87.0Q664 71 588 71H415ZM0 1509H776V1519H0ZM0 999H776V1019H0ZM0 514H776V519H0ZM0 9H776V19H0ZM620 1036Q609 1036 605.5 1028.5Q602 1021 604.0 1012.0Q606 1003 613.0 995.5Q620 988 632 988Q664 988 704.0 966.0Q744 944 788.5 905.5Q833 867 879.5 815.5Q926 764 972.0 703.5Q1018 643 1060.0 578.5Q1102 514 1137.5 449.0Q1173 384 1200.0 323.0Q1227 262 1242.0 208.5Q1257 155 1257 115Q1257 104 1265.0 98.5Q1273 93 1284.0 93.0Q1295 93 1303.5 98.5Q1312 104 1312 115Q1312 158 1296.0 213.5Q1280 269 1251.0 333.5Q1222 398 1183.5 466.5Q1145 535 1099.5 603.5Q1054 672 1003.5 735.5Q953 799 902.0 853.5Q851 908 800.5 949.0Q750 990 704.0 1013.0Q658 1036 620 1036ZM1013 1036Q955 1036 919.0 1009.0Q883 982 874.5 928.0Q866 874 889 794L1068 173Q1094 83 1129.5 41.5Q1165 0 1217 0Q1247 0 1268.0 14.0Q1289 28 1300.5 53.5Q1312 79 1312 115Q1312 128 1303.5 134.0Q1295 140 1284.0 140.0Q1273 140 1265.0 134.0Q1257 128 1257 115Q1257 94 1251.5 80.0Q1246 66 1236.0 58.5Q1226 51 1211 51Q1192 51 1176.5 64.5Q1161 78 1147.0 107.0Q1133 136 1119 184L940 808Q921 873 926.0 912.5Q931 952 957.0 970.0Q983 988 1027 988Q1038 988 1042.5 995.5Q1047 1003 1044.5 1012.0Q1042 1021 1034.0 1028.5Q1026 1036 1013 1036ZM758 1509H1152V1519H758ZM758 999H1152V1019H758ZM758 514H1152V519H758ZM758 9H1152V19H758ZM1014 1036Q1003 1036 998.0 1028.5Q993 1021 995.0 1012.0Q997 1003 1005.0 995.5Q1013 988 1028 988Q1058 988 1088.0 973.5Q1118 959 1145.5 933.5Q1173 908 1196.0 874.0Q1219 840 1235 802Q1239 791 1248.0 791.0Q1257 791 1264.0 797.5Q1271 804 1267 815Q1249 861 1223.0 901.0Q1197 941 1164.5 971.5Q1132 1002 1094.0 1019.0Q1056 1036 1014 1036ZM1152 1509V1519ZM1152 999V1019ZM1152 514V519ZM1152 9V19ZM1358 1036Q1315 1036 1284.0 1015.0Q1253 994 1236.0 955.0Q1219 916 1219 863Q1219 819 1231.0 769.0Q1243 719 1267.5 671.5Q1292 624 1329.0 585.0Q1366 546 1416.5 523.0Q1467 500 1531 500Q1569 500 1608.0 514.0Q1647 528 1679 552L1668 596Q1627 568 1593.0 558.5Q1559 549 1528 549Q1477 549 1436.5 568.5Q1396 588 1365.5 621.0Q1335 654 1315.5 694.5Q1296 735 1286.0 777.5Q1276 820 1276 859Q1276 898 1286.5 926.5Q1297 955 1318.5 970.5Q1340 986 1372 986Q1408 986 1447.0 963.0Q1486 940 1526.0 890.5Q1566 841 1602 765L1615 806Q1574 895 1527.5 945.5Q1481 996 1437.0 1016.0Q1393 1036 1358 1036ZM1647 1036Q1618 1036 1597.5 1026.0Q1577 1016 1566.0 997.0Q1555 978 1554.0 951.0Q1553 924 1563 890L1668 525Q1672 513 1678.5 508.5Q1685 504 1698 504Q1716 504 1721.0 511.0Q1726 518 1722 530L1617 894Q1602 944 1614.5 966.0Q1627 988 1662 988Q1671 988 1675.0 995.5Q1679 1003 1677.5 1012.0Q1676 1021 1668.5 1028.5Q1661 1036 1647 1036ZM1152 1509H1787V1519H1152ZM1152 999H1787V1019H1152ZM1152 514H1787V519H1152ZM1152 9H1787V19H1152ZM1649 1036Q1640 1036 1636.0 1028.5Q1632 1021 1634.0 1012.0Q1636 1003 1643.5 995.5Q1651 988 1663 988Q1681 988 1702.5 978.0Q1724 968 1748.5 944.0Q1773 920 1800.5 877.0Q1828 834 1856 769Q1893 686 1921.5 634.0Q1950 582 1974.0 553.5Q1998 525 2021.5 514.0Q2045 503 2072 503Q2082 503 2085.0 510.0Q2088 517 2086.0 526.5Q2084 536 2078.5 543.5Q2073 551 2065 551Q2048 551 2031.0 562.0Q2014 573 1996.0 598.0Q1978 623 1956.0 665.5Q1934 708 1905 772Q1870 851 1838.0 902.5Q1806 954 1774.5 983.0Q1743 1012 1712.5 1024.0Q1682 1036 1649 1036ZM1787 1509H1887V1519H1787ZM1787 999H1887V1019H1787ZM1787 514H1887V519H1787ZM1787 9H1887V19H1787ZM2082 1538Q2027 1538 1997.0 1506.5Q1967 1475 1967 1425Q1967 1384 1983.5 1345.5Q2000 1307 2031.0 1271.0Q2062 1235 2104.5 1200.5Q2147 1166 2200 1133Q2219 1120 2238.5 1108.5Q2258 1097 2277.5 1085.0Q2297 1073 2316 1063L2366 891Q2339 932 2310.0 960.0Q2281 988 2252.0 1004.5Q2223 1021 2195.5 1028.5Q2168 1036 2144 1036Q2098 1036 2066.0 1015.0Q2034 994 2024.5 951.5Q2015 909 2034 845L2096 632Q2107 590 2100.0 570.5Q2093 551 2066 551Q2055 551 2049.5 543.5Q2044 536 2045.0 526.5Q2046 517 2053.0 510.0Q2060 503 2072 503Q2099 503 2117.5 512.0Q2136 521 2146.0 538.5Q2156 556 2157.0 581.5Q2158 607 2148 640L2087 852Q2075 894 2078.0 924.5Q2081 955 2100.5 970.5Q2120 986 2157 986Q2186 986 2218.0 973.5Q2250 961 2282.5 934.0Q2315 907 2346.0 864.0Q2377 821 2404 761L2472 524Q2476 513 2482.0 508.5Q2488 504 2501 504Q2519 504 2524.0 511.0Q2529 518 2525 530L2305 1292Q2287 1353 2265.0 1399.0Q2243 1445 2215.5 1476.0Q2188 1507 2155.0 1522.5Q2122 1538 2082 1538ZM2090 1489Q2124 1489 2154.5 1466.0Q2185 1443 2209.5 1398.0Q2234 1353 2251 1289L2298 1126Q2285 1134 2271.0 1142.5Q2257 1151 2243.5 1159.0Q2230 1167 2217 1176Q2172 1206 2136.0 1236.0Q2100 1266 2075.0 1296.0Q2050 1326 2037.0 1356.5Q2024 1387 2024 1419Q2024 1440 2031.0 1456.0Q2038 1472 2053.0 1480.5Q2068 1489 2090 1489ZM1887 1509H2590V1519H1887ZM1887 999H2590V1019H1887ZM1887 514H2590V519H1887ZM1887 9H2590V19H1887ZM2350 1098Q2343 1102 2337.5 1097.0Q2332 1092 2330.0 1083.5Q2328 1075 2330.5 1066.5Q2333 1058 2341 1054Q2391 1028 2435.0 1004.0Q2479 980 2518.5 953.5Q2558 927 2594.0 897.0Q2630 867 2664.0 830.5Q2698 794 2730 748Q2739 736 2747.0 738.0Q2755 740 2758.5 749.0Q2762 758 2756 768Q2725 816 2692.0 855.0Q2659 894 2622.5 927.0Q2586 960 2544.5 988.5Q2503 1017 2454.5 1043.5Q2406 1070 2350 1098ZM2589 1509V1519ZM2589 999V1019ZM2589 514V519ZM2589 9V19ZM2810 1038Q2769 1038 2743.0 1023.0Q2717 1008 2704.0 981.0Q2691 954 2691.5 917.0Q2692 880 2704 836L2794 524Q2798 513 2804.5 508.5Q2811 504 2824 504Q2841 504 2846.0 509.5Q2851 515 2847 527L2758 835Q2746 880 2746.0 915.0Q2746 950 2763.5 969.5Q2781 989 2818 989Q2846 989 2874.0 976.0Q2902 963 2928.0 939.0Q2954 915 2976.0 880.5Q2998 846 3012 802L3093 525Q3096 513 3103.0 508.5Q3110 504 3123 504Q3139 504 3144.0 509.5Q3149 515 3146 527L3064 812Q3053 852 3049.0 884.5Q3045 917 3050.5 940.5Q3056 964 3073.5 976.5Q3091 989 3123 989Q3163 989 3198.0 969.0Q3233 949 3262.0 915.0Q3291 881 3312.5 839.0Q3334 797 3345 754Q3358 705 3358.5 667.5Q3359 630 3355 601Q3334 588 3324.5 572.0Q3315 556 3315 539Q3315 523 3324.5 511.5Q3334 500 3350 500Q3372 500 3385.5 520.5Q3399 541 3401 581Q3406 602 3408.0 630.5Q3410 659 3407.5 691.5Q3405 724 3395 759Q3382 810 3357.0 859.5Q3332 909 3296.5 949.5Q3261 990 3215.0 1014.0Q3169 1038 3115 1038Q3078 1038 3051.5 1024.5Q3025 1011 3010.5 985.5Q2996 960 2995 923Q2972 961 2942.0 986.5Q2912 1012 2878.0 1025.0Q2844 1038 2810 1038ZM2590 1509H3478V1519H2590ZM2590 999H3478V1019H2590ZM2590 514H3478V519H2590ZM2590 9H3478V19H2590ZM3513 765Q3484 765 3458.0 751.0Q3432 737 3408.5 700.5Q3385 664 3364 598Q3360 585 3367.0 577.5Q3374 570 3384.5 570.5Q3395 571 3399 584Q3417 634 3434.5 664.5Q3452 695 3471.5 708.5Q3491 722 3515 722Q3551 722 3583.0 679.0Q3615 636 3642 551Q3646 539 3654.5 535.0Q3663 531 3671.5 532.5Q3680 534 3685.0 540.5Q3690 547 3687 556Q3666 626 3639.5 672.5Q3613 719 3581.0 742.0Q3549 765 3513 765ZM3477 1509V1519ZM3477 999V1019ZM3477 514V519ZM3477 9V19ZM3908 1036Q3880 1036 3859.0 1027.0Q3838 1018 3826.0 1000.5Q3814 983 3812.0 957.0Q3810 931 3820 897Q3826 873 3837.5 842.0Q3849 811 3863.0 777.5Q3877 744 3889.0 709.5Q3901 675 3908 645Q3920 599 3906.5 582.5Q3893 566 3866 566Q3841 566 3810.5 574.5Q3780 583 3748.0 591.0Q3716 599 3688 599Q3670 599 3657.5 590.0Q3645 581 3639.0 564.5Q3633 548 3633 527Q3633 509 3639.0 493.5Q3645 478 3656.5 468.0Q3668 458 3683 458Q3698 458 3705.0 468.0Q3712 478 3712 493Q3712 505 3707.0 522.0Q3702 539 3694 553Q3711 555 3733.0 549.0Q3755 543 3780.5 535.0Q3806 527 3832.0 521.0Q3858 515 3882 515Q3913 515 3934.5 528.5Q3956 542 3963.5 572.0Q3971 602 3959 652Q3952 681 3940.0 714.5Q3928 748 3914.5 782.0Q3901 816 3889.0 847.0Q3877 878 3871 903Q3859 947 3871.0 967.5Q3883 988 3921 988Q3931 988 3935.5 995.5Q3940 1003 3938.5 1012.0Q3937 1021 3929.0 1028.5Q3921 1036 3908 1036ZM3478 1509H4046V1519H3478ZM3478 999H4046V1019H3478ZM3478 514H4046V519H3478ZM3478 9H4046V19H3478ZM3907 1036Q3896 1036 3891.0 1028.5Q3886 1021 3888.0 1012.0Q3890 1003 3898.0 995.5Q3906 988 3921 988Q3952 988 3984.5 972.5Q4017 957 4050.0 928.0Q4083 899 4116.5 857.0Q4150 815 4182 763Q4189 752 4198.0 753.0Q4207 754 4212.0 762.0Q4217 770 4211 781Q4176 841 4140.0 888.5Q4104 936 4067.0 968.5Q4030 1001 3989.5 1018.5Q3949 1036 3907 1036ZM4045 1509V1519ZM4045 999V1019ZM4045 514V519ZM4045 9V19ZM4232 1036Q4200 1036 4178.5 1026.0Q4157 1016 4146.0 996.0Q4135 976 4134.5 947.0Q4134 918 4145 880L4248 524Q4251 513 4257.5 508.5Q4264 504 4278 504Q4294 504 4300.0 510.0Q4306 516 4303 527L4199 885Q4183 938 4193.0 963.0Q4203 988 4246 988Q4256 988 4260.0 995.5Q4264 1003 4262.5 1012.0Q4261 1021 4253.5 1028.5Q4246 1036 4232 1036ZM4329 336Q4311 336 4299.5 326.5Q4288 317 4288 298Q4288 274 4302.5 255.5Q4317 237 4344 237Q4362 237 4373.5 246.5Q4385 256 4385 275Q4385 298 4370.5 317.0Q4356 336 4329 336ZM4046 1509H4371V1519H4046ZM4046 999H4371V1019H4046ZM4046 514H4371V519H4046ZM4046 9H4371V19H4046ZM4233 1036Q4222 1036 4217.0 1028.5Q4212 1021 4214.0 1012.0Q4216 1003 4224.0 995.5Q4232 988 4247 988Q4277 988 4310.0 975.0Q4343 962 4376.5 935.5Q4410 909 4444.0 869.0Q4478 829 4512 775Q4520 763 4529.0 764.5Q4538 766 4542.5 775.0Q4547 784 4541 794Q4504 857 4466.0 902.5Q4428 948 4389.5 977.5Q4351 1007 4311.5 1021.5Q4272 1036 4233 1036ZM4371 1509V1519ZM4371 999V1019ZM4371 514V519ZM4371 9V19ZM4620 1036Q4576 1036 4545.0 1020.0Q4514 1004 4497.5 974.0Q4481 944 4480.5 901.0Q4480 858 4495 804L4564 567H4478Q4467 567 4464.5 560.5Q4462 554 4464 542Q4468 530 4474.0 524.5Q4480 519 4490 519H4578L4638 309Q4642 298 4648.5 293.5Q4655 289 4669 289Q4685 289 4691.0 295.0Q4697 301 4693 312L4633 519H4763Q4774 519 4776.5 525.0Q4779 531 4776 543Q4772 556 4766.0 561.5Q4760 567 4750 567H4620L4552 800Q4537 849 4536.0 884.5Q4535 920 4546.0 943.0Q4557 966 4579.5 977.0Q4602 988 4633 988Q4643 988 4647.5 995.5Q4652 1003 4650.5 1012.0Q4649 1021 4641.5 1028.5Q4634 1036 4620 1036ZM4371 1509H4759V1519H4371ZM4371 999H4759V1019H4371ZM4371 514H4759V519H4371ZM4371 9H4759V19H4371ZM4620 1036Q4607 1036 4603.0 1028.5Q4599 1021 4602.0 1012.0Q4605 1003 4613.5 995.5Q4622 988 4634 988Q4685 988 4743.5 967.5Q4802 947 4860 909Q4868 904 4874.5 907.0Q4881 910 4885.0 918.0Q4889 926 4888.5 934.0Q4888 942 4880 947Q4834 977 4788.0 997.0Q4742 1017 4699.0 1026.5Q4656 1036 4620 1036ZM4758 1509V1519ZM4758 999V1019ZM4758 514V519ZM4758 9V19ZM4863 910Q4895 891 4924.5 868.0Q4954 845 4978 821Q5011 790 5036.5 757.0Q5062 724 5076.5 689.5Q5091 655 5091 621Q5091 586 5074.5 567.5Q5058 549 5023 549Q4987 549 4958.5 572.5Q4930 596 4910.5 632.0Q4891 668 4881.0 709.0Q4871 750 4871 785Q4871 831 4883.0 868.0Q4895 905 4916.0 932.0Q4937 959 4965.0 973.5Q4993 988 5026 988Q5057 988 5084.5 977.5Q5112 967 5138.0 948.0Q5164 929 5189 906Q5198 898 5206.0 899.0Q5214 900 5221 906Q5228 913 5230.0 921.5Q5232 930 5224 939Q5201 964 5169.0 986.5Q5137 1009 5099.0 1023.0Q5061 1037 5018 1037Q4983 1037 4952.5 1024.5Q4922 1012 4897.0 989.5Q4872 967 4854.0 936.0Q4836 905 4826.5 867.0Q4817 829 4817 787Q4817 749 4826.0 709.0Q4835 669 4852.5 631.5Q4870 594 4896.5 564.5Q4923 535 4957.5 517.5Q4992 500 5034 500Q5073 500 5098.0 515.0Q5123 530 5135.0 555.5Q5147 581 5147 614Q5147 656 5130.0 697.0Q5113 738 5082.5 777.0Q5052 816 5013 852Q4985 880 4952.5 904.5Q4920 929 4885 950ZM4759 1509H5203V1519H4759ZM4759 999H5203V1019H4759ZM4759 514H5203V519H4759ZM4759 9H5203V19H4759ZM5757 1036Q5721 1036 5691.5 1022.5Q5662 1009 5640.5 983.0Q5619 957 5606 922Q5602 912 5605.5 904.0Q5609 896 5619 891Q5630 886 5637.5 888.5Q5645 891 5650 902Q5664 934 5681.5 952.0Q5699 970 5719.5 977.0Q5740 984 5762 984Q5803 984 5833.0 950.0Q5863 916 5886 836L6106 71H5939Q5886 71 5844.0 88.0Q5802 105 5773.0 137.0Q5744 169 5729 215Q5725 226 5715.5 230.0Q5706 234 5693 230Q5684 228 5681.0 221.5Q5678 215 5682 203Q5694 161 5718.0 127.5Q5742 94 5776.0 70.0Q5810 46 5852.5 33.5Q5895 21 5946 21H6486Q6496 21 6498.5 26.5Q6501 32 6498 46Q6494 60 6488.5 65.5Q6483 71 6472 71H6162L5940 841Q5921 905 5896.0 948.5Q5871 992 5837.0 1014.0Q5803 1036 5757 1036ZM5503 1509H6303V1519H5503ZM5503 999H6303V1019H5503ZM5503 514H6303V519H5503ZM5503 9H6303V19H5503ZM6830 1036Q6786 1036 6743.0 1028.5Q6700 1021 6657.0 1011.0Q6614 1001 6573.5 993.5Q6533 986 6495 986Q6465 986 6438.0 991.0Q6411 996 6386.0 1005.0Q6361 1014 6333 1027Q6323 1033 6312.0 1033.0Q6301 1033 6294 1023Q6288 1013 6290.5 1005.5Q6293 998 6303 988L7165 88Q7145 95 7123.0 99.0Q7101 103 7072 103Q7036 103 7003.5 96.0Q6971 89 6940.5 80.0Q6910 71 6877.5 64.0Q6845 57 6808 57Q6769 57 6732.5 69.0Q6696 81 6663.0 102.5Q6630 124 6598 154Q6589 163 6580.5 163.0Q6572 163 6562 154Q6553 144 6553.5 136.5Q6554 129 6563 119Q6601 83 6639.0 58.0Q6677 33 6719.5 19.5Q6762 6 6811 6Q6852 6 6886.5 13.5Q6921 21 6952.5 30.5Q6984 40 7016.0 47.0Q7048 54 7084 54Q7129 54 7162.0 46.5Q7195 39 7230 22Q7239 16 7247.5 15.0Q7256 14 7264 23Q7273 32 7271.5 40.5Q7270 49 7258 61L6407 953Q6431 945 6457.5 941.0Q6484 937 6515 937Q6555 937 6595.0 944.0Q6635 951 6675.0 961.0Q6715 971 6755.5 978.5Q6796 986 6835 986Q6889 986 6936.0 966.0Q6983 946 7022.5 906.5Q7062 867 7092 808Q7098 798 7105.5 795.5Q7113 793 7125 799Q7138 805 7141.0 812.5Q7144 820 7138 831Q7103 898 7056.5 944.0Q7010 990 6953.5 1013.0Q6897 1036 6830 1036ZM6283 1509H7211V1519H6283ZM6283 999H7211V1019H6283ZM6283 514H7211V519H6283ZM6283 9H7211V19H6283ZM7853 1039Q7814 1039 7781.0 1026.5Q7748 1014 7723.5 990.0Q7699 966 7683.0 933.0Q7667 900 7661 859Q7660 845 7665.0 838.5Q7670 832 7682 830Q7695 827 7701.5 831.0Q7708 835 7710 845Q7718 891 7737.0 922.5Q7756 954 7786.5 970.5Q7817 987 7857 987Q7915 987 7965.5 959.0Q8016 931 8061.5 873.5Q8107 816 8147.5 729.5Q8188 643 8225 526Q8177 557 8128.0 578.5Q8079 600 8032.5 610.5Q7986 621 7944 621Q7882 621 7839.0 599.0Q7796 577 7774.0 535.0Q7752 493 7752 433Q7752 380 7768.5 328.0Q7785 276 7814.0 227.5Q7843 179 7882.0 137.5Q7921 96 7966.0 65.5Q8011 35 8059.0 18.0Q8107 1 8154 1Q8194 1 8222.5 15.5Q8251 30 8266.0 57.0Q8281 84 8281 121Q8281 159 8265.5 198.0Q8250 237 8222.0 273.0Q8194 309 8157.0 340.0Q8120 371 8076.5 394.5Q8033 418 7986.0 431.5Q7939 445 7892 445Q7837 445 7800.0 425.5Q7763 406 7741.5 370.5Q7720 335 7713.5 285.5Q7707 236 7714.5 175.0Q7722 114 7743 44Q7746 34 7752.5 30.0Q7759 26 7772 26Q7786 26 7791.0 31.5Q7796 37 7793 49Q7770 132 7763.5 196.0Q7757 260 7769.5 304.0Q7782 348 7813.0 371.0Q7844 394 7897 394Q7936 394 7975.0 383.0Q8014 372 8051.0 352.0Q8088 332 8119.0 305.5Q8150 279 8173.5 249.5Q8197 220 8210.5 189.5Q8224 159 8224 130Q8224 93 8203.0 73.0Q8182 53 8142 53Q8104 53 8064.5 68.5Q8025 84 7987.5 111.5Q7950 139 7917.5 175.0Q7885 211 7860.0 253.5Q7835 296 7821.0 341.0Q7807 386 7807 431Q7807 475 7821.5 505.5Q7836 536 7868.5 552.5Q7901 569 7952 569Q7999 569 8042.5 558.0Q8086 547 8123.5 530.5Q8161 514 8191.0 496.5Q8221 479 8241 466Q8253 458 8259.0 456.0Q8265 454 8273 454Q8286 454 8291.5 459.5Q8297 465 8294 477Q8253 619 8206.0 725.0Q8159 831 8105.0 900.5Q8051 970 7988.5 1004.5Q7926 1039 7853 1039ZM7511 1509H8330V1519H7511ZM7511 999H8330V1019H7511ZM7511 514H8330V519H7511ZM7511 9H8330V19H7511ZM8524 1036Q8477 1036 8445.0 1015.0Q8413 994 8403.5 951.5Q8394 909 8413 845L8506 524Q8510 513 8516.5 508.5Q8523 504 8536 504Q8552 504 8558.5 510.0Q8565 516 8561 527L8466 852Q8454 894 8457.0 924.5Q8460 955 8479.5 970.5Q8499 986 8537 986Q8566 986 8598.0 973.5Q8630 961 8662.5 934.0Q8695 907 8726.0 863.5Q8757 820 8784 758L8851 523Q8855 511 8861.0 507.0Q8867 503 8880 503Q8897 503 8903.5 508.5Q8910 514 8906 525L8802 886Q8787 939 8797.5 963.5Q8808 988 8852 988Q8862 988 8865.5 995.5Q8869 1003 8867.5 1012.0Q8866 1021 8858.5 1028.5Q8851 1036 8837 1036Q8811 1036 8791.5 1028.5Q8772 1021 8759.5 1007.0Q8747 993 8743.0 972.5Q8739 952 8742 926L8751 884Q8724 927 8694.5 956.0Q8665 985 8635.0 1002.5Q8605 1020 8576.5 1028.0Q8548 1036 8524 1036ZM8330 1509H8976V1519H8330ZM8330 999H8976V1019H8330ZM8330 514H8976V519H8330ZM8330 9H8976V19H8330ZM8838 1036Q8827 1036 8822.0 1028.5Q8817 1021 8819.0 1012.0Q8821 1003 8829.0 995.5Q8837 988 8852 988Q8883 988 8915.5 972.5Q8948 957 8981.0 928.0Q9014 899 9047.5 857.0Q9081 815 9113 763Q9120 752 9129.0 753.0Q9138 754 9143.0 762.0Q9148 770 9142 781Q9107 841 9071.0 888.5Q9035 936 8998.0 968.5Q8961 1001 8920.5 1018.5Q8880 1036 8838 1036ZM8976 1509V1519ZM8976 999V1019ZM8976 514V519ZM8976 9V19ZM9162 1036Q9130 1036 9108.5 1026.0Q9087 1016 9076.0 996.0Q9065 976 9064.5 947.0Q9064 918 9075 880L9178 524Q9181 513 9187.5 508.5Q9194 504 9208 504Q9224 504 9230.0 510.0Q9236 516 9233 527L9129 885Q9113 938 9123.0 963.0Q9133 988 9176 988Q9186 988 9190.0 995.5Q9194 1003 9192.5 1012.0Q9191 1021 9183.5 1028.5Q9176 1036 9162 1036ZM9259 336Q9241 336 9229.5 326.5Q9218 317 9218 298Q9218 274 9232.5 255.5Q9247 237 9274 237Q9292 237 9303.5 246.5Q9315 256 9315 275Q9315 298 9300.5 317.0Q9286 336 9259 336ZM8976 1509H9301V1519H8976ZM8976 999H9301V1019H8976ZM8976 514H9301V519H8976ZM8976 9H9301V19H8976ZM9163 1036Q9152 1036 9147.0 1028.5Q9142 1021 9144.0 1012.0Q9146 1003 9154.0 995.5Q9162 988 9177 988Q9207 988 9237.0 973.5Q9267 959 9294.5 933.5Q9322 908 9345.0 874.0Q9368 840 9384 802Q9388 791 9397.0 791.0Q9406 791 9413.0 797.5Q9420 804 9416 815Q9398 861 9372.0 901.0Q9346 941 9313.5 971.5Q9281 1002 9243.0 1019.0Q9205 1036 9163 1036ZM9301 1509V1519ZM9301 999V1019ZM9301 514V519ZM9301 9V19ZM9503 1036Q9460 1036 9428.5 1015.0Q9397 994 9380.0 955.0Q9363 916 9363 863Q9363 819 9375.0 768.5Q9387 718 9412.0 670.5Q9437 623 9474.5 584.5Q9512 546 9562.0 523.0Q9612 500 9676 500Q9709 500 9744.0 511.0Q9779 522 9809 541L9959 24Q9962 13 9968.5 8.5Q9975 4 9989 4Q10006 4 10011.0 11.0Q10016 18 10012 30L9764 886Q9749 939 9760.0 963.5Q9771 988 9815 988Q9824 988 9828.0 995.5Q9832 1003 9830.5 1012.0Q9829 1021 9822.0 1028.5Q9815 1036 9801 1036Q9775 1036 9755.5 1029.0Q9736 1022 9723.5 1008.5Q9711 995 9706.0 975.5Q9701 956 9703 930L9711 896Q9675 950 9637.5 980.5Q9600 1011 9565.5 1023.5Q9531 1036 9503 1036ZM9517 986Q9552 986 9590.0 964.0Q9628 942 9666.5 895.5Q9705 849 9741 777L9796 586Q9761 564 9731.0 556.5Q9701 549 9673 549Q9622 549 9581.5 568.5Q9541 588 9511.0 621.0Q9481 654 9461.0 694.5Q9441 735 9431.0 777.5Q9421 820 9421 859Q9421 897 9431.5 926.0Q9442 955 9463.5 970.5Q9485 986 9517 986ZM9301 1509H9942V1519H9301ZM9301 999H9942V1019H9301ZM9301 514H9942V519H9301ZM9301 9H9942V19H9301ZM9804 1036Q9791 1036 9787.0 1028.5Q9783 1021 9786.0 1012.0Q9789 1003 9797.5 995.5Q9806 988 9818 988Q9869 988 9927.5 967.5Q9986 947 10044 909Q10052 904 10058.5 907.0Q10065 910 10069.0 918.0Q10073 926 10072.5 934.0Q10072 942 10064 947Q10018 977 9972.0 997.0Q9926 1017 9883.0 1026.5Q9840 1036 9804 1036ZM9942 1509V1519ZM9942 999V1019ZM9942 514V519ZM9942 9V19ZM10042 913Q10075 894 10105.0 870.5Q10135 847 10161 821Q10194 790 10219.5 757.0Q10245 724 10259.5 689.5Q10274 655 10274 621Q10274 586 10257.5 567.5Q10241 549 10206 549Q10196 549 10191.5 542.0Q10187 535 10188.5 525.0Q10190 515 10197.0 507.5Q10204 500 10217 500Q10257 500 10282.0 515.0Q10307 530 10318.5 555.5Q10330 581 10330 614Q10330 656 10312.5 697.5Q10295 739 10264.5 778.0Q10234 817 10194 854Q10166 882 10132.0 907.0Q10098 932 10063 953ZM9942 1509H10386V1519H9942ZM9942 999H10386V1019H9942ZM9942 514H10386V519H9942ZM9942 9H10386V19H9942ZM10210 1037Q10173 1037 10141.0 1025.0Q10109 1013 10083.0 991.0Q10057 969 10038.5 938.5Q10020 908 10010.5 870.5Q10001 833 10001 791Q10001 752 10010.0 711.0Q10019 670 10036.5 632.5Q10054 595 10080.0 565.0Q10106 535 10140.5 517.5Q10175 500 10218 500Q10227 500 10230.5 507.5Q10234 515 10231.5 524.5Q10229 534 10223.0 541.5Q10217 549 10208 549Q10170 549 10141.5 572.0Q10113 595 10094.0 631.0Q10075 667 10064.5 708.5Q10054 750 10054 788Q10054 832 10066.0 869.0Q10078 906 10099.5 932.5Q10121 959 10151.0 973.5Q10181 988 10218 988Q10271 988 10321.0 960.0Q10371 932 10420.5 874.5Q10470 817 10522.5 732.0Q10575 647 10634 534Q10639 524 10648.5 525.0Q10658 526 10664.5 534.0Q10671 542 10665 555Q10606 675 10550.5 765.5Q10495 856 10440.5 916.5Q10386 977 10329.5 1007.0Q10273 1037 10210 1037ZM10386 1509V1519ZM10386 999V1019ZM10386 514V519ZM10386 9V19ZM10617 1038Q10573 1038 10536.0 1025.5Q10499 1013 10478 994Q10471 987 10471.0 978.5Q10471 970 10479 962Q10488 953 10495.0 952.5Q10502 952 10513 960Q10534 974 10561.0 983.0Q10588 992 10619 992Q10679 992 10712.0 959.5Q10745 927 10745 869Q10745 840 10736.5 814.5Q10728 789 10714.0 765.5Q10700 742 10684.5 717.5Q10669 693 10655.5 667.0Q10642 641 10633.0 611.0Q10624 581 10624 545Q10624 505 10636.5 484.5Q10649 464 10675 464Q10690 464 10696.0 471.5Q10702 479 10702 489Q10702 502 10694.5 517.0Q10687 532 10668 558Q10671 590 10681.5 616.5Q10692 643 10707.0 666.5Q10722 690 10738.0 712.5Q10754 735 10768.5 758.5Q10783 782 10792.0 809.0Q10801 836 10801 869Q10801 947 10751.0 992.5Q10701 1038 10617 1038ZM10386 1509H10936V1519H10386ZM10386 999H10936V1019H10386ZM10386 514H10936V519H10386ZM10386 9H10936V19H10386Z" /></svg>