<svg viewBox="0 0 15185 1932" xmlns="http://www.w3.org/2000/svg"><path d="M187 1442Q160 1442 160 1423V449Q160 439 167.0 434.5Q174 430 188 430H400Q506 430 578.5 455.0Q651 480 688.0 535.0Q725 590 725 680Q725 755 698.5 811.0Q672 867 624.0 906.0Q576 945 511.5 968.5Q447 992 372 1001Q331 1006 291.0 1009.0Q251 1012 215 1014V1423Q215 1433 208.5 1437.5Q202 1442 187 1442ZM215 964Q239 963 265.5 961.5Q292 960 319.0 957.0Q346 954 371 951Q458 941 525.0 909.0Q592 877 630.0 820.5Q668 764 668 681Q668 608 637.5 564.0Q607 520 547.5 500.0Q488 480 400 480H215ZM0 1918H777V1928H0ZM0 1408H777V1428H0ZM0 923H777V928H0ZM0 418H777V428H0ZM1004 1445Q971 1445 947.5 1436.0Q924 1427 910.5 1408.5Q897 1390 891.0 1363.5Q885 1337 885 1302V432Q885 422 891.0 417.5Q897 413 910 413Q924 413 930.5 417.5Q937 422 937 432V1300Q937 1351 951.5 1374.0Q966 1397 1010 1397Q1019 1397 1023.5 1404.5Q1028 1412 1027.5 1421.0Q1027 1430 1021.5 1437.5Q1016 1445 1004 1445ZM777 1918H1077V1928H777ZM777 1408H1077V1428H777ZM777 923H1077V928H777ZM777 418H1077V428H777ZM1002 1445Q991 1445 985.5 1437.5Q980 1430 980.5 1421.0Q981 1412 988.0 1404.5Q995 1397 1008 1397Q1039 1397 1065.5 1382.5Q1092 1368 1112.5 1343.5Q1133 1319 1146.0 1285.5Q1159 1252 1165 1213Q1166 1202 1175.0 1199.0Q1184 1196 1192.0 1200.0Q1200 1204 1199 1215Q1194 1263 1178.0 1304.5Q1162 1346 1136.5 1377.5Q1111 1409 1077.0 1427.0Q1043 1445 1002 1445ZM1077 1918V1928ZM1077 1408V1428ZM1077 923V928ZM1077 418V428ZM1345 1445Q1291 1445 1249.5 1416.0Q1208 1387 1184.5 1331.0Q1161 1275 1161 1194Q1161 1143 1170.5 1099.5Q1180 1056 1198.5 1021.0Q1217 986 1245.0 961.0Q1273 936 1309.5 922.5Q1346 909 1391 909Q1429 909 1465.5 921.5Q1502 934 1538 958V1009Q1498 979 1462.5 968.5Q1427 958 1392 958Q1360 958 1332.5 968.0Q1305 978 1283.5 997.0Q1262 1016 1247.0 1044.0Q1232 1072 1224.5 1108.5Q1217 1145 1217 1191Q1217 1250 1232.0 1296.0Q1247 1342 1277.5 1368.5Q1308 1395 1354 1395Q1391 1395 1425.5 1373.0Q1460 1351 1487.0 1302.0Q1514 1253 1530 1173L1549 1222Q1530 1308 1496.5 1357.0Q1463 1406 1423.5 1425.5Q1384 1445 1345 1445ZM1639 1445Q1609 1445 1587.0 1436.0Q1565 1427 1551.0 1409.5Q1537 1392 1530.0 1366.0Q1523 1340 1523 1305V932Q1523 922 1529.5 917.5Q1536 913 1550 913Q1563 913 1569.5 917.5Q1576 922 1576 932V1304Q1576 1351 1590.5 1374.0Q1605 1397 1645 1397Q1653 1397 1657.5 1404.5Q1662 1412 1661.5 1421.0Q1661 1430 1656.0 1437.5Q1651 1445 1639 1445ZM1077 1918H1712V1928H1077ZM1077 1408H1712V1428H1077ZM1077 923H1712V928H1077ZM1077 418H1712V428H1077ZM1637 1445Q1626 1445 1620.5 1437.5Q1615 1430 1615.5 1421.0Q1616 1412 1623.0 1404.5Q1630 1397 1643 1397Q1677 1397 1707.0 1382.0Q1737 1367 1762.5 1338.5Q1788 1310 1809.5 1270.0Q1831 1230 1848 1179Q1851 1169 1860.0 1169.0Q1869 1169 1875.5 1176.0Q1882 1183 1879 1193Q1863 1248 1840.0 1294.0Q1817 1340 1787.5 1374.0Q1758 1408 1720.5 1426.5Q1683 1445 1637 1445ZM1712 1918V1928ZM1712 1408V1428ZM1712 923V928ZM1712 418V428ZM1997 1446Q1953 1446 1918.0 1428.0Q1883 1410 1863.5 1370.5Q1844 1331 1844 1267V932Q1844 922 1850.5 918.0Q1857 914 1870 914Q1883 914 1890.0 918.0Q1897 922 1897 932V1261Q1897 1305 1908.0 1335.5Q1919 1366 1942.5 1382.0Q1966 1398 2003 1398Q2034 1398 2062.5 1385.5Q2091 1373 2115.5 1347.0Q2140 1321 2159.0 1279.0Q2178 1237 2188 1178V932Q2188 922 2194.5 917.5Q2201 913 2215 913Q2228 913 2234.5 917.5Q2241 922 2241 932V1713Q2241 1790 2217.0 1842.5Q2193 1895 2148.5 1921.0Q2104 1947 2041 1947Q1997 1947 1962.0 1935.0Q1927 1923 1900.5 1901.0Q1874 1879 1855 1850Q1848 1841 1850.0 1832.0Q1852 1823 1864 1816Q1874 1809 1881.5 1810.5Q1889 1812 1896 1821Q1923 1859 1958.0 1878.5Q1993 1898 2047 1898Q2093 1898 2124.0 1878.0Q2155 1858 2171.5 1816.5Q2188 1775 2188 1710V1294Q2173 1337 2150.5 1366.5Q2128 1396 2102.0 1413.5Q2076 1431 2049.0 1438.5Q2022 1446 1997 1446ZM1712 1918H2365V1928H1712ZM1712 1408H2365V1428H1712ZM1712 923H2365V928H1712ZM1712 418H2365V428H1712ZM2545 1443Q2531 1443 2525.0 1437.5Q2519 1432 2516 1424L2359 944Q2354 932 2361.0 922.5Q2368 913 2385 913Q2396 913 2402.0 917.5Q2408 922 2410 932L2546 1362L2699 932Q2703 922 2709.5 917.5Q2716 913 2728 913Q2739 913 2745.0 917.5Q2751 922 2754 932L2910 1362L3043 932Q3046 922 3052.0 917.5Q3058 913 3069 913Q3087 913 3093.5 922.0Q3100 931 3094 946L2938 1424Q2935 1432 2928.5 1437.5Q2922 1443 2909 1443Q2896 1443 2890.5 1437.5Q2885 1432 2882 1424L2727 998L2573 1424Q2571 1432 2564.5 1437.5Q2558 1443 2545 1443ZM2325 1918H3129V1928H2325ZM2325 1408H3129V1428H2325ZM2325 923H3129V928H2325ZM2325 418H3129V428H2325ZM3178 986Q3149 986 3119.0 977.5Q3089 969 3070 958Q3063 954 3062.5 946.0Q3062 938 3066.5 930.5Q3071 923 3077.0 919.0Q3083 915 3088 918Q3108 929 3132.5 936.0Q3157 943 3180 943Q3200 943 3224.0 937.5Q3248 932 3267 918Q3274 912 3280.5 919.5Q3287 927 3289.0 937.5Q3291 948 3285 952Q3271 963 3253.0 971.0Q3235 979 3216.0 982.5Q3197 986 3178 986ZM3129 1918V1928ZM3129 1408V1428ZM3129 923V928ZM3129 418V428ZM3286 1443Q3273 1443 3267.0 1438.5Q3261 1434 3261 1424V932Q3261 922 3267.0 917.5Q3273 913 3286 913Q3300 913 3306.5 917.5Q3313 922 3313 932V1058Q3326 1016 3343.0 987.0Q3360 958 3379.5 941.0Q3399 924 3419.0 916.5Q3439 909 3459 909Q3469 909 3474.5 916.5Q3480 924 3480.0 934.0Q3480 944 3474.5 951.5Q3469 959 3458 959Q3435 959 3413.0 972.0Q3391 985 3372.0 1012.5Q3353 1040 3338.0 1082.5Q3323 1125 3313 1185V1424Q3313 1434 3306.5 1438.5Q3300 1443 3286 1443ZM3129 1918H3533V1928H3129ZM3129 1408H3533V1428H3129ZM3129 923H3533V928H3129ZM3129 418H3533V428H3129ZM3613 988Q3589 988 3562.5 980.5Q3536 973 3509.0 966.0Q3482 959 3457 959Q3446 959 3440.5 951.5Q3435 944 3435.0 934.0Q3435 924 3441.0 916.5Q3447 909 3458 909Q3487 909 3514.5 917.5Q3542 926 3568.5 934.5Q3595 943 3619 943Q3633 943 3645.0 939.0Q3657 935 3668 927Q3676 920 3683.5 924.5Q3691 929 3693.5 938.0Q3696 947 3688 955Q3669 974 3650.5 981.0Q3632 988 3613 988ZM3533 1918V1928ZM3533 1408V1428ZM3533 923V928ZM3533 418V428ZM3784 1445Q3751 1445 3727.5 1436.0Q3704 1427 3690.5 1408.5Q3677 1390 3671.0 1363.5Q3665 1337 3665 1302V932Q3665 922 3671.5 917.5Q3678 913 3690 913Q3704 913 3710.5 917.5Q3717 922 3717 932V1300Q3717 1351 3732.0 1374.0Q3747 1397 3791 1397Q3800 1397 3804.5 1404.5Q3809 1412 3808.5 1421.0Q3808 1430 3802.0 1437.5Q3796 1445 3784 1445ZM3690 745Q3668 745 3657.5 732.5Q3647 720 3647 696Q3647 671 3657.5 658.5Q3668 646 3690 646Q3712 646 3723.0 658.5Q3734 671 3734 696Q3734 721 3723.0 733.0Q3712 745 3690 745ZM3533 1918H3858V1928H3533ZM3533 1408H3858V1428H3533ZM3533 923H3858V928H3533ZM3533 418H3858V428H3533ZM3783 1445Q3772 1445 3766.5 1437.5Q3761 1430 3761.5 1421.0Q3762 1412 3769.0 1404.5Q3776 1397 3789 1397Q3824 1397 3856.0 1383.0Q3888 1369 3915.5 1342.0Q3943 1315 3965.0 1275.5Q3987 1236 4002 1185Q4005 1175 4014.0 1175.0Q4023 1175 4030.0 1181.5Q4037 1188 4034 1198Q4019 1257 3995.0 1302.5Q3971 1348 3938.5 1380.0Q3906 1412 3867.0 1428.5Q3828 1445 3783 1445ZM3858 1918V1928ZM3858 1408V1428ZM3858 923V928ZM3858 418V428ZM4171 1445Q4124 1445 4091.0 1430.0Q4058 1415 4037.0 1386.0Q4016 1357 4006.0 1315.5Q3996 1274 3996 1222V976H3906Q3896 976 3891.5 970.0Q3887 964 3887 952Q3887 939 3891.5 933.5Q3896 928 3906 928H3996V717Q3996 707 4002.5 702.5Q4009 698 4022 698Q4035 698 4042.0 702.5Q4049 707 4049 717V928H4189Q4200 928 4204.5 933.5Q4209 939 4209 952Q4209 964 4204.5 970.0Q4200 976 4189 976H4049V1211Q4049 1250 4055.0 1284.0Q4061 1318 4075.5 1343.0Q4090 1368 4115.0 1382.5Q4140 1397 4178 1397Q4188 1397 4193.0 1404.5Q4198 1412 4197.5 1421.0Q4197 1430 4190.5 1437.5Q4184 1445 4171 1445ZM3858 1918H4246V1928H3858ZM3858 1408H4246V1428H3858ZM3858 923H4246V928H3858ZM3858 418H4246V428H3858ZM4171 1445Q4160 1445 4154.5 1437.5Q4149 1430 4149.5 1421.0Q4150 1412 4157.0 1404.5Q4164 1397 4177 1397Q4200 1397 4226.0 1387.0Q4252 1377 4285.0 1355.5Q4318 1334 4362 1299Q4369 1293 4377.0 1296.0Q4385 1299 4390.0 1306.0Q4395 1313 4394.5 1322.0Q4394 1331 4386 1337Q4339 1374 4300.5 1398.5Q4262 1423 4230.5 1434.0Q4199 1445 4171 1445ZM4246 1918V1928ZM4246 1408V1428ZM4246 923V928ZM4246 418V428ZM4538 1445Q4466 1445 4417.0 1411.0Q4368 1377 4343.0 1315.0Q4318 1253 4318 1171Q4318 1117 4333.0 1069.0Q4348 1021 4375.5 985.0Q4403 949 4441.5 929.0Q4480 909 4526 909Q4569 909 4596.0 925.0Q4623 941 4636.0 967.0Q4649 993 4649 1023Q4649 1055 4635.5 1088.5Q4622 1122 4593.0 1158.0Q4564 1194 4517.5 1235.5Q4471 1277 4406 1326L4368 1297Q4429 1251 4471.5 1213.0Q4514 1175 4541.0 1143.0Q4568 1111 4580.5 1082.0Q4593 1053 4593 1027Q4593 994 4573.0 976.0Q4553 958 4520 958Q4494 958 4468.0 972.0Q4442 986 4420.5 1013.0Q4399 1040 4386.5 1079.5Q4374 1119 4374 1169Q4374 1251 4398.0 1301.0Q4422 1351 4460.0 1374.0Q4498 1397 4540 1397Q4577 1397 4603.5 1383.5Q4630 1370 4650.0 1350.0Q4670 1330 4684 1313Q4692 1305 4700.0 1305.5Q4708 1306 4716 1312Q4724 1318 4727.0 1326.0Q4730 1334 4724 1342Q4706 1368 4678.0 1392.0Q4650 1416 4614.5 1430.5Q4579 1445 4538 1445ZM4246 1918H4772V1928H4246ZM4246 1408H4772V1428H4246ZM4246 923H4772V928H4246ZM4246 418H4772V428H4246ZM5259 1442Q5232 1442 5232 1423V432Q5232 422 5238.5 417.5Q5245 413 5259 413Q5271 413 5277.0 416.5Q5283 420 5289 429L5843 1327V432Q5843 422 5849.5 417.5Q5856 413 5870 413Q5898 413 5898 432V1423Q5898 1433 5891.0 1437.5Q5884 1442 5871 1442Q5860 1442 5854.0 1438.5Q5848 1435 5842 1426L5287 524V1423Q5287 1433 5280.5 1437.5Q5274 1442 5259 1442ZM5072 1918H6057V1928H5072ZM5072 1408H6057V1428H5072ZM5072 923H6057V928H5072ZM5072 418H6057V428H5072ZM6500 1445Q6423 1445 6360.5 1411.5Q6298 1378 6252.5 1314.5Q6207 1251 6182.5 1161.5Q6158 1072 6158 960Q6158 880 6172.0 808.0Q6186 736 6212.0 675.0Q6238 614 6275.5 565.5Q6313 517 6360.5 483.0Q6408 449 6463.5 431.0Q6519 413 6582 413Q6642 413 6694.0 427.0Q6746 441 6791.5 469.5Q6837 498 6875 541Q6884 550 6884.0 558.0Q6884 566 6873 575Q6864 584 6856.0 583.0Q6848 582 6838 573Q6801 537 6761.5 513.0Q6722 489 6677.0 477.5Q6632 466 6582 466Q6527 466 6479.0 482.0Q6431 498 6390.0 529.0Q6349 560 6317.0 603.5Q6285 647 6262.5 702.0Q6240 757 6228.0 822.0Q6216 887 6216 960Q6216 1059 6237.0 1139.0Q6258 1219 6296.0 1275.5Q6334 1332 6387.0 1362.0Q6440 1392 6504 1392Q6571 1392 6628.0 1355.5Q6685 1319 6730.5 1254.5Q6776 1190 6807.5 1104.5Q6839 1019 6856 921Q6856 910 6862.5 906.0Q6869 902 6883 902Q6911 902 6911 921V1422Q6911 1432 6904.5 1436.5Q6898 1441 6884 1441Q6856 1441 6856 1422V1090Q6832 1170 6797.0 1235.5Q6762 1301 6716.0 1347.5Q6670 1394 6616.0 1419.5Q6562 1445 6500 1445ZM6057 1918H7028V1928H6057ZM6057 1408H7028V1428H6057ZM6057 923H7028V928H6057ZM6057 418H7028V428H6057ZM7515 1442Q7488 1442 7488 1423V432Q7488 422 7495.0 417.5Q7502 413 7516 413Q7530 413 7536.0 417.0Q7542 421 7547 430L7911 1076L8274 430Q8279 421 8285.0 417.0Q8291 413 8306 413Q8333 413 8333 432V1423Q8333 1433 8326.5 1437.5Q8320 1442 8306 1442Q8279 1442 8279 1423V527L7942 1123Q7936 1133 7929.5 1136.5Q7923 1140 7911 1140Q7899 1140 7892.5 1137.0Q7886 1134 7879 1123L7543 527V1423Q7543 1433 7536.5 1437.5Q7530 1442 7515 1442ZM7328 1918H8493V1928H7328ZM7328 1408H8493V1428H7328ZM7328 923H8493V928H7328ZM7328 418H8493V428H7328ZM8788 1447Q8720 1447 8669.5 1413.0Q8619 1379 8591.5 1318.5Q8564 1258 8564 1178Q8564 1118 8580.5 1069.0Q8597 1020 8627.5 984.0Q8658 948 8698.5 928.5Q8739 909 8788 909Q8854 909 8904.0 943.0Q8954 977 8982.5 1037.5Q9011 1098 9011 1178Q9011 1225 9000.5 1266.5Q8990 1308 8971.0 1341.0Q8952 1374 8925.0 1398.0Q8898 1422 8863.5 1434.5Q8829 1447 8788 1447ZM8788 1397Q8827 1397 8857.5 1381.5Q8888 1366 8910.0 1336.5Q8932 1307 8944.0 1266.5Q8956 1226 8956 1178Q8956 1113 8935.5 1063.5Q8915 1014 8877.5 986.5Q8840 959 8788 959Q8749 959 8718.0 974.5Q8687 990 8665.0 1019.5Q8643 1049 8631.0 1089.0Q8619 1129 8619 1178Q8619 1242 8639.5 1291.5Q8660 1341 8698.0 1369.0Q8736 1397 8788 1397ZM8493 1918H9081V1928H8493ZM8493 1408H9081V1428H8493ZM8493 923H9081V928H8493ZM8493 418H9081V428H8493ZM9094 1030Q9048 1030 8989.5 1015.0Q8931 1000 8872 969Q8864 964 8862.5 957.0Q8861 950 8863.5 943.0Q8866 936 8872.0 933.0Q8878 930 8886 934Q8916 951 8952.0 962.5Q8988 974 9025.5 980.0Q9063 986 9097 986Q9130 986 9164.0 981.0Q9198 976 9228.5 966.0Q9259 956 9279 942Q9288 936 9295.5 942.0Q9303 948 9304.5 958.0Q9306 968 9295 975Q9251 1003 9197.5 1016.5Q9144 1030 9094 1030ZM9081 1918V1928ZM9081 1408V1428ZM9081 923V928ZM9081 418V428ZM9348 1445Q9294 1445 9252.5 1416.0Q9211 1387 9187.5 1331.0Q9164 1275 9164 1194Q9164 1143 9173.5 1099.5Q9183 1056 9202.0 1021.0Q9221 986 9248.5 961.0Q9276 936 9313.0 922.5Q9350 909 9395 909Q9429 909 9461.5 919.0Q9494 929 9527 948V432Q9527 422 9533.5 417.5Q9540 413 9554 413Q9567 413 9573.0 417.5Q9579 422 9579 432V1306Q9579 1356 9594.0 1376.5Q9609 1397 9654 1397Q9663 1397 9667.0 1404.5Q9671 1412 9670.5 1421.0Q9670 1430 9664.5 1437.5Q9659 1445 9648 1445Q9619 1445 9597.0 1438.5Q9575 1432 9560.5 1418.5Q9546 1405 9538.0 1384.0Q9530 1363 9529 1335L9528 1302Q9506 1358 9476.0 1389.0Q9446 1420 9413.5 1432.5Q9381 1445 9348 1445ZM9358 1395Q9392 1395 9424.5 1375.5Q9457 1356 9484.0 1311.5Q9511 1267 9527 1193V1000Q9491 975 9458.5 966.5Q9426 958 9395 958Q9363 958 9335.5 968.0Q9308 978 9286.5 997.0Q9265 1016 9250.0 1044.0Q9235 1072 9227.5 1108.5Q9220 1145 9220 1191Q9220 1250 9235.0 1296.0Q9250 1342 9280.5 1368.5Q9311 1395 9358 1395ZM9081 1918H9722V1928H9081ZM9081 1408H9722V1428H9081ZM9081 923H9722V928H9081ZM9081 418H9722V428H9081ZM9647 1445Q9636 1445 9630.5 1437.5Q9625 1430 9625.5 1421.0Q9626 1412 9633.0 1404.5Q9640 1397 9653 1397Q9676 1397 9702.0 1387.0Q9728 1377 9761.0 1355.5Q9794 1334 9838 1299Q9845 1293 9853.0 1296.0Q9861 1299 9866.0 1306.0Q9871 1313 9870.5 1322.0Q9870 1331 9862 1337Q9815 1374 9776.5 1398.5Q9738 1423 9706.5 1434.0Q9675 1445 9647 1445ZM9722 1918V1928ZM9722 1408V1428ZM9722 923V928ZM9722 418V428ZM9851 1292Q9909 1248 9950.5 1211.0Q9992 1174 10018.5 1142.0Q10045 1110 10057.0 1081.5Q10069 1053 10069 1027Q10069 993 10049.0 975.5Q10029 958 9995 958Q9968 958 9942.0 971.5Q9916 985 9895.5 1011.0Q9875 1037 9862.5 1075.0Q9850 1113 9850 1161Q9850 1225 9868.0 1270.0Q9886 1315 9915.5 1343.0Q9945 1371 9981.0 1384.0Q10017 1397 10053 1397Q10065 1397 10070.5 1404.5Q10076 1412 10076.0 1421.0Q10076 1430 10070.5 1437.5Q10065 1445 10053 1445Q9975 1445 9916.5 1410.0Q9858 1375 9826.5 1311.5Q9795 1248 9795 1163Q9795 1111 9809.5 1064.5Q9824 1018 9851.0 983.0Q9878 948 9916.5 928.5Q9955 909 10002 909Q10044 909 10071.5 925.0Q10099 941 10112.0 967.0Q10125 993 10125 1023Q10125 1055 10111.5 1088.5Q10098 1122 10069.5 1157.5Q10041 1193 9996.5 1233.5Q9952 1274 9889 1321ZM9722 1918H10210V1928H9722ZM9722 1408H10210V1428H9722ZM9722 923H10210V928H9722ZM9722 418H10210V428H9722ZM10052 1445Q10044 1445 10039.0 1438.0Q10034 1431 10034.0 1421.5Q10034 1412 10039.0 1404.5Q10044 1397 10052 1397Q10101 1397 10144.5 1378.0Q10188 1359 10224.5 1326.5Q10261 1294 10291.0 1250.0Q10321 1206 10343 1157Q10348 1148 10356.5 1149.0Q10365 1150 10371.5 1157.0Q10378 1164 10374 1173Q10354 1224 10323.0 1272.5Q10292 1321 10251.5 1360.0Q10211 1399 10161.0 1422.0Q10111 1445 10052 1445ZM10210 1918V1928ZM10210 1408V1428ZM10210 923V928ZM10210 418V428ZM10367 1443Q10354 1443 10348.0 1438.5Q10342 1434 10342 1424V932Q10342 922 10348.0 917.5Q10354 913 10367 913Q10381 913 10387.5 917.5Q10394 922 10394 932V1058Q10407 1016 10424.0 987.0Q10441 958 10460.5 941.0Q10480 924 10500.0 916.5Q10520 909 10540 909Q10550 909 10555.5 916.5Q10561 924 10561.0 934.0Q10561 944 10555.5 951.5Q10550 959 10539 959Q10516 959 10494.0 972.0Q10472 985 10453.0 1012.5Q10434 1040 10419.0 1082.5Q10404 1125 10394 1185V1424Q10394 1434 10387.5 1438.5Q10381 1443 10367 1443ZM10210 1918H10614V1928H10210ZM10210 1408H10614V1428H10210ZM10210 923H10614V928H10210ZM10210 418H10614V428H10210ZM10694 988Q10670 988 10643.5 980.5Q10617 973 10590.0 966.0Q10563 959 10538 959Q10527 959 10521.5 951.5Q10516 944 10516.0 934.0Q10516 924 10522.0 916.5Q10528 909 10539 909Q10568 909 10595.5 917.5Q10623 926 10649.5 934.5Q10676 943 10700 943Q10714 943 10726.0 939.0Q10738 935 10749 927Q10757 920 10764.5 924.5Q10772 929 10774.5 938.0Q10777 947 10769 955Q10750 974 10731.5 981.0Q10713 988 10694 988ZM10614 1918V1928ZM10614 1408V1428ZM10614 923V928ZM10614 418V428ZM11178 1445Q11159 1445 11143.5 1439.0Q11128 1433 11117.0 1420.5Q11106 1408 11101.0 1390.0Q11096 1372 11096 1347V1096Q11096 1052 11085.0 1021.5Q11074 991 11050.0 975.0Q11026 959 10986 959Q10957 959 10928.5 970.0Q10900 981 10874.5 1006.0Q10849 1031 10829.5 1072.5Q10810 1114 10798 1175V1424Q10798 1434 10791.5 1438.5Q10785 1443 10771 1443Q10758 1443 10752.0 1438.5Q10746 1434 10746 1424V932Q10746 922 10752.0 917.5Q10758 913 10771 913Q10785 913 10791.5 917.5Q10798 922 10798 932V1060Q10815 1017 10837.5 988.0Q10860 959 10886.0 941.5Q10912 924 10939.0 916.5Q10966 909 10992 909Q11037 909 11072.5 927.0Q11108 945 11128.5 984.0Q11149 1023 11149 1087V1335Q11149 1355 11153.0 1368.5Q11157 1382 11165.5 1389.5Q11174 1397 11188 1397Q11199 1397 11209.0 1393.0Q11219 1389 11229.0 1379.5Q11239 1370 11249 1356Q11255 1349 11261.5 1349.0Q11268 1349 11275 1355Q11282 1361 11283.5 1367.5Q11285 1374 11281 1380Q11270 1400 11253.0 1415.0Q11236 1430 11217.0 1437.5Q11198 1445 11178 1445ZM10614 1918H11285V1928H10614ZM10614 1408H11285V1428H10614ZM10614 923H11285V928H10614ZM10614 418H11285V428H10614ZM12028 1445Q11951 1445 11888.5 1411.5Q11826 1378 11780.5 1314.5Q11735 1251 11710.5 1161.5Q11686 1072 11686 960Q11686 880 11700.0 808.0Q11714 736 11740.0 675.0Q11766 614 11803.5 565.5Q11841 517 11888.5 483.0Q11936 449 11991.5 431.0Q12047 413 12110 413Q12170 413 12222.0 427.0Q12274 441 12319.5 469.5Q12365 498 12403 541Q12412 550 12412.0 558.0Q12412 566 12401 575Q12392 584 12384.0 583.0Q12376 582 12366 573Q12329 537 12289.5 513.0Q12250 489 12205.0 477.5Q12160 466 12110 466Q12055 466 12007.0 482.0Q11959 498 11918.0 529.0Q11877 560 11845.0 603.5Q11813 647 11790.5 702.0Q11768 757 11756.0 822.0Q11744 887 11744 960Q11744 1059 11765.0 1139.0Q11786 1219 11824.0 1275.5Q11862 1332 11915.0 1362.0Q11968 1392 12032 1392Q12099 1392 12156.0 1355.5Q12213 1319 12258.5 1254.5Q12304 1190 12335.5 1104.5Q12367 1019 12384 921Q12384 910 12390.5 906.0Q12397 902 12411 902Q12439 902 12439 921V1422Q12439 1432 12432.5 1436.5Q12426 1441 12412 1441Q12384 1441 12384 1422V1090Q12360 1170 12325.0 1235.5Q12290 1301 12244.0 1347.5Q12198 1394 12144.0 1419.5Q12090 1445 12028 1445ZM11585 1918H12556V1928H11585ZM11585 1408H12556V1428H11585ZM11585 923H12556V928H11585ZM11585 418H12556V428H11585ZM12816 1446Q12772 1446 12737.0 1428.0Q12702 1410 12682.5 1370.5Q12663 1331 12663 1267V932Q12663 922 12669.0 918.0Q12675 914 12688 914Q12702 914 12708.5 918.0Q12715 922 12715 932V1261Q12715 1305 12726.5 1335.5Q12738 1366 12761.5 1382.0Q12785 1398 12822 1398Q12852 1398 12880.5 1385.5Q12909 1373 12934.0 1347.5Q12959 1322 12978.0 1280.0Q12997 1238 13007 1180V931Q13007 922 13013.5 917.5Q13020 913 13034 913Q13047 913 13053.5 917.5Q13060 922 13060 931V1300Q13060 1353 13076.0 1375.0Q13092 1397 13134 1397Q13143 1397 13147.5 1404.5Q13152 1412 13151.5 1421.0Q13151 1430 13145.0 1437.5Q13139 1445 13128 1445Q13100 1445 13079.0 1439.0Q13058 1433 13044.0 1419.5Q13030 1406 13021.5 1386.5Q13013 1367 13010 1339L13009 1292Q12993 1336 12970.5 1366.0Q12948 1396 12922.0 1413.5Q12896 1431 12869.0 1438.5Q12842 1446 12816 1446ZM12556 1918H13202V1928H12556ZM12556 1408H13202V1428H12556ZM12556 923H13202V928H12556ZM12556 418H13202V428H12556ZM13127 1445Q13116 1445 13110.5 1437.5Q13105 1430 13105.5 1421.0Q13106 1412 13113.0 1404.5Q13120 1397 13133 1397Q13167 1397 13197.0 1382.0Q13227 1367 13252.5 1338.5Q13278 1310 13299.5 1270.0Q13321 1230 13338 1179Q13341 1169 13350.0 1169.0Q13359 1169 13365.5 1176.0Q13372 1183 13369 1193Q13353 1248 13330.0 1294.0Q13307 1340 13277.5 1374.0Q13248 1408 13210.5 1426.5Q13173 1445 13127 1445ZM13202 1918V1928ZM13202 1408V1428ZM13202 923V928ZM13202 418V428ZM13453 1445Q13420 1445 13396.5 1436.0Q13373 1427 13359.5 1408.5Q13346 1390 13340.0 1363.5Q13334 1337 13334 1302V932Q13334 922 13340.5 917.5Q13347 913 13359 913Q13373 913 13379.5 917.5Q13386 922 13386 932V1300Q13386 1351 13401.0 1374.0Q13416 1397 13460 1397Q13469 1397 13473.5 1404.5Q13478 1412 13477.5 1421.0Q13477 1430 13471.0 1437.5Q13465 1445 13453 1445ZM13359 745Q13337 745 13326.5 732.5Q13316 720 13316 696Q13316 671 13326.5 658.5Q13337 646 13359 646Q13381 646 13392.0 658.5Q13403 671 13403 696Q13403 721 13392.0 733.0Q13381 745 13359 745ZM13202 1918H13527V1928H13202ZM13202 1408H13527V1428H13202ZM13202 923H13527V928H13202ZM13202 418H13527V428H13202ZM13452 1445Q13441 1445 13435.5 1437.5Q13430 1430 13430.5 1421.0Q13431 1412 13438.0 1404.5Q13445 1397 13458 1397Q13489 1397 13515.5 1382.5Q13542 1368 13562.5 1343.5Q13583 1319 13596.0 1285.5Q13609 1252 13615 1213Q13616 1202 13625.0 1199.0Q13634 1196 13642.0 1200.0Q13650 1204 13649 1215Q13644 1263 13628.0 1304.5Q13612 1346 13586.5 1377.5Q13561 1409 13527.0 1427.0Q13493 1445 13452 1445ZM13527 1918V1928ZM13527 1408V1428ZM13527 923V928ZM13527 418V428ZM13794 1445Q13740 1445 13698.5 1416.0Q13657 1387 13633.5 1331.0Q13610 1275 13610 1194Q13610 1143 13619.5 1099.5Q13629 1056 13648.0 1021.0Q13667 986 13694.5 961.0Q13722 936 13759.0 922.5Q13796 909 13841 909Q13875 909 13907.5 919.0Q13940 929 13973 948V432Q13973 422 13979.5 417.5Q13986 413 14000 413Q14013 413 14019.0 417.5Q14025 422 14025 432V1306Q14025 1356 14040.0 1376.5Q14055 1397 14100 1397Q14109 1397 14113.0 1404.5Q14117 1412 14116.5 1421.0Q14116 1430 14110.5 1437.5Q14105 1445 14094 1445Q14065 1445 14043.0 1438.5Q14021 1432 14006.5 1418.5Q13992 1405 13984.0 1384.0Q13976 1363 13975 1335L13974 1302Q13952 1358 13922.0 1389.0Q13892 1420 13859.5 1432.5Q13827 1445 13794 1445ZM13804 1395Q13838 1395 13870.5 1375.5Q13903 1356 13930.0 1311.5Q13957 1267 13973 1193V1000Q13937 975 13904.5 966.5Q13872 958 13841 958Q13809 958 13781.5 968.0Q13754 978 13732.5 997.0Q13711 1016 13696.0 1044.0Q13681 1072 13673.5 1108.5Q13666 1145 13666 1191Q13666 1250 13681.0 1296.0Q13696 1342 13726.5 1368.5Q13757 1395 13804 1395ZM13527 1918H14168V1928H13527ZM13527 1408H14168V1428H13527ZM13527 923H14168V928H13527ZM13527 418H14168V428H13527ZM14093 1445Q14082 1445 14076.5 1437.5Q14071 1430 14071.5 1421.0Q14072 1412 14079.0 1404.5Q14086 1397 14099 1397Q14122 1397 14148.0 1387.0Q14174 1377 14207.0 1355.5Q14240 1334 14284 1299Q14291 1293 14299.0 1296.0Q14307 1299 14312.0 1306.0Q14317 1313 14316.5 1322.0Q14316 1331 14308 1337Q14261 1374 14222.5 1398.5Q14184 1423 14152.5 1434.0Q14121 1445 14093 1445ZM14168 1918V1928ZM14168 1408V1428ZM14168 923V928ZM14168 418V428ZM14297 1292Q14355 1248 14396.5 1211.0Q14438 1174 14464.5 1142.0Q14491 1110 14503.0 1081.5Q14515 1053 14515 1027Q14515 993 14495.0 975.5Q14475 958 14441 958Q14414 958 14388.0 971.5Q14362 985 14341.5 1011.0Q14321 1037 14308.5 1075.0Q14296 1113 14296 1161Q14296 1225 14314.0 1270.0Q14332 1315 14361.5 1343.0Q14391 1371 14427.0 1384.0Q14463 1397 14499 1397Q14511 1397 14516.5 1404.5Q14522 1412 14522.0 1421.0Q14522 1430 14516.5 1437.5Q14511 1445 14499 1445Q14421 1445 14362.5 1410.0Q14304 1375 14272.5 1311.5Q14241 1248 14241 1163Q14241 1111 14255.5 1064.5Q14270 1018 14297.0 983.0Q14324 948 14362.5 928.5Q14401 909 14448 909Q14490 909 14517.5 925.0Q14545 941 14558.0 967.0Q14571 993 14571 1023Q14571 1055 14557.5 1088.5Q14544 1122 14515.5 1157.5Q14487 1193 14442.5 1233.5Q14398 1274 14335 1321ZM14168 1918H14656V1928H14168ZM14168 1408H14656V1428H14168ZM14168 923H14656V928H14168ZM14168 418H14656V428H14168ZM14499 1445Q14490 1445 14485.0 1438.0Q14480 1431 14480.0 1421.5Q14480 1412 14485.0 1404.5Q14490 1397 14499 1397Q14555 1397 14600.0 1370.0Q14645 1343 14681.5 1291.5Q14718 1240 14748.5 1168.0Q14779 1096 14805 1007Q14807 998 14817.0 997.0Q14827 996 14835.0 1000.5Q14843 1005 14840 1015Q14817 1109 14785.0 1187.5Q14753 1266 14711.0 1324.0Q14669 1382 14616.5 1413.5Q14564 1445 14499 1445ZM14656 1918H14706V1928H14656ZM14656 1408H14706V1428H14656ZM14656 923H14706V928H14656ZM14656 418H14706V428H14656ZM14957 1447Q14920 1447 14887.5 1439.0Q14855 1431 14830.5 1419.0Q14806 1407 14791 1395Q14783 1389 14783.5 1380.5Q14784 1372 14791 1363Q14798 1354 14805.5 1352.5Q14813 1351 14822 1358Q14849 1378 14885.5 1390.0Q14922 1402 14959 1402Q14994 1402 15019.0 1388.5Q15044 1375 15058.0 1351.5Q15072 1328 15072 1298Q15072 1263 15052.0 1243.0Q15032 1223 15001.0 1211.0Q14970 1199 14935.5 1188.0Q14901 1177 14869.5 1161.5Q14838 1146 14818.5 1118.5Q14799 1091 14799 1046Q14799 1007 14818.5 976.0Q14838 945 14874.5 927.0Q14911 909 14961 909Q14998 909 15029.0 919.0Q15060 929 15083.0 944.5Q15106 960 15120 977Q15127 984 15125.0 991.5Q15123 999 15116 1006Q15109 1013 15101.0 1013.0Q15093 1013 15085 1006Q15054 981 15025.5 968.0Q14997 955 14959 955Q14907 955 14879.5 978.5Q14852 1002 14852 1042Q14852 1077 14871.5 1097.0Q14891 1117 14922.5 1129.0Q14954 1141 14989.0 1152.5Q15024 1164 15055.5 1179.5Q15087 1195 15106.5 1221.5Q15126 1248 15126 1293Q15126 1331 15108.0 1366.5Q15090 1402 15053.0 1424.5Q15016 1447 14957 1447ZM14706 1918H15185V1928H14706ZM14706 1408H15185V1428H14706ZM14706 923H15185V928H14706ZM14706 418H15185V428H14706Z" fill="currentColor" /></svg>