<svg viewBox="0 0 1814 1157" xmlns="http://www.w3.org/2000/svg"><path d="M84 288H296Q341 288 368.5 290.0Q396 292 427 299Q459 306 478.5 320.0Q498 334 512 358Q525 381 525 416V551Q525 632 462.5 667.5Q400 703 278 703H181V937H84ZM291 642Q354 642 392.0 619.0Q430 596 430 546V428Q430 401 416.0 383.5Q402 366 376 359Q351 353 334.0 351.0Q317 349 289 349H180V642ZM648 237H738V937H648ZM866 793Q866 738 881.5 707.5Q897 677 934.5 664.0Q972 651 1041 651H1186V574Q1186 547 1175.5 532.5Q1165 518 1140.5 512.0Q1116 506 1069 506Q994 506 903 518V452Q1002 443 1082 443Q1166 443 1206.0 455.5Q1246 468 1261.0 499.0Q1276 530 1276 595V937H1189V891Q1178 947 1043 947Q974 947 936.5 934.0Q899 921 882.5 888.0Q866 855 866 793ZM1058 888Q1107 888 1141 881Q1186 872 1186 839V707H1047Q1004 707 985.0 713.5Q966 720 960.0 738.0Q954 756 954 796Q954 832 961.0 851.5Q968 871 986.0 879.5Q1004 888 1040 888ZM1547 944 1360 453H1458L1593 848H1595L1717 453H1808L1565 1145H1471Z" fill="currentColor" /></svg>