<svg viewBox="0 0 8826 1743" xmlns="http://www.w3.org/2000/svg"><path d="M131 1378Q114 1378 100.0 1368.0Q86 1358 86 1337Q86 1327 87.5 1305.5Q89 1284 92.0 1239.5Q95 1195 98.5 1117.0Q102 1039 106 916Q108 848 109.0 781.0Q110 714 110 648Q110 628 125.0 617.0Q140 606 159 606Q167 606 174.5 607.5Q182 609 195 609Q233 609 270.5 603.5Q308 598 345 598Q410 598 463.0 626.5Q516 655 547.5 706.5Q579 758 579 828Q579 903 547.5 949.0Q516 995 462.0 1018.5Q408 1042 338.5 1050.0Q269 1058 193 1058Q191 1141 187.0 1197.5Q183 1254 180.0 1287.5Q177 1321 177 1337Q177 1358 162.5 1368.0Q148 1378 131 1378ZM195 974Q248 973 300.0 969.5Q352 966 395.0 952.5Q438 939 464.0 909.5Q490 880 490 826Q490 806 483.0 781.5Q476 757 459.0 734.5Q442 712 412.0 697.5Q382 683 337 683Q303 683 269.0 687.5Q235 692 201 692Q200 763 199.0 834.5Q198 906 195 974ZM703 580Q704 560 717.0 549.0Q730 538 750 538Q763 538 773.5 543.5Q784 549 790.0 558.0Q796 567 795 580Q790 657 788.0 734.0Q786 811 786.5 883.5Q787 956 787 1020L783 1133Q783 1201 780.0 1248.0Q777 1295 769 1321Q762 1348 751.0 1359.5Q740 1371 724 1371Q700 1371 688.0 1356.0Q676 1341 680 1314Q683 1294 685.5 1258.0Q688 1222 690.5 1179.0Q693 1136 694.5 1096.5Q696 1057 696 1030Q696 925 696.5 846.0Q697 767 698.5 703.0Q700 639 703 580ZM901 1123Q901 1031 934.5 967.5Q968 904 1023.5 871.0Q1079 838 1144 838Q1168 838 1191.0 842.0Q1214 846 1236.5 853.0Q1259 860 1279 871L1284 853Q1288 841 1300.0 832.5Q1312 824 1325 824Q1345 824 1358.5 836.5Q1372 849 1372 869Q1372 884 1369.0 912.5Q1366 941 1359.5 980.5Q1353 1020 1342.5 1065.0Q1332 1110 1317 1158Q1317 1208 1324.0 1237.0Q1331 1266 1344.0 1277.5Q1357 1289 1376 1289Q1390 1289 1402.0 1275.0Q1414 1261 1426 1239Q1431 1231 1438.5 1225.5Q1446 1220 1459 1220Q1475 1220 1485.5 1232.5Q1496 1245 1496 1261Q1496 1272 1491.0 1285.5Q1486 1299 1478 1310Q1458 1337 1428.5 1355.0Q1399 1373 1364 1373Q1338 1373 1314.0 1362.0Q1290 1351 1272.5 1328.5Q1255 1306 1245 1273Q1213 1320 1174.0 1343.0Q1135 1366 1085 1366Q1029 1366 987.5 1335.5Q946 1305 923.5 1250.5Q901 1196 901 1123ZM994 1117Q994 1153 1001.0 1183.0Q1008 1213 1021.0 1235.0Q1034 1257 1053.0 1269.0Q1072 1281 1096 1281Q1145 1281 1174.0 1246.0Q1203 1211 1232 1153Q1232 1114 1235.5 1076.0Q1239 1038 1244.5 1006.0Q1250 974 1257 953Q1227 938 1201.5 929.5Q1176 921 1150 921Q1106 921 1070.5 943.5Q1035 966 1014.5 1009.5Q994 1053 994 1117ZM1588 865Q1588 842 1602.5 832.0Q1617 822 1633 822Q1651 822 1665.0 832.0Q1679 842 1679 865Q1679 901 1676.5 942.5Q1674 984 1671.5 1025.5Q1669 1067 1669 1104Q1669 1147 1675.5 1188.0Q1682 1229 1698.5 1255.0Q1715 1281 1743 1281Q1786 1281 1820.5 1225.5Q1855 1170 1878 1071Q1881 1019 1883.5 980.0Q1886 941 1890.0 912.5Q1894 884 1900 863Q1905 842 1917.5 831.0Q1930 820 1952 820Q1972 820 1981.5 830.5Q1991 841 1991 859Q1991 877 1987.5 908.0Q1984 939 1979.0 972.5Q1974 1006 1969 1033Q1966 1082 1964.5 1132.0Q1963 1182 1963 1232Q1963 1260 1963.5 1290.0Q1964 1320 1964 1350Q1964 1409 1954.0 1466.0Q1944 1523 1920.5 1569.0Q1897 1615 1857.0 1642.0Q1817 1669 1758 1669Q1713 1669 1671.0 1650.0Q1629 1631 1600.5 1596.0Q1572 1561 1566 1514Q1564 1499 1571.0 1489.0Q1578 1479 1589.0 1474.5Q1600 1470 1610 1470Q1625 1470 1634.5 1481.0Q1644 1492 1651 1511Q1658 1529 1670.5 1545.5Q1683 1562 1704.5 1572.5Q1726 1583 1758 1583Q1799 1583 1823.0 1554.0Q1847 1525 1859.0 1478.0Q1871 1431 1873.5 1376.0Q1876 1321 1874 1268Q1849 1313 1814.0 1340.0Q1779 1367 1732 1367Q1686 1367 1656.0 1345.0Q1626 1323 1609.5 1286.0Q1593 1249 1586.0 1202.5Q1579 1156 1579 1106Q1579 1065 1581.5 1019.5Q1584 974 1586.5 933.0Q1589 892 1588 865ZM2163 878Q2164 856 2177.0 846.0Q2190 836 2208 836Q2226 836 2240.5 846.0Q2255 856 2254 876Q2253 885 2253.0 894.5Q2253 904 2252 914Q2281 876 2323.0 852.0Q2365 828 2416 828Q2467 828 2502.0 849.0Q2537 870 2559.0 906.5Q2581 943 2591.0 988.0Q2601 1033 2601 1081Q2601 1159 2579.0 1213.5Q2557 1268 2520.0 1302.5Q2483 1337 2439.5 1352.5Q2396 1368 2352 1368Q2319 1368 2287.5 1362.0Q2256 1356 2232 1346L2220 1604Q2219 1625 2205.0 1635.0Q2191 1645 2174 1645Q2157 1645 2142.5 1635.0Q2128 1625 2129 1603ZM2235 1263Q2251 1270 2279.5 1277.0Q2308 1284 2353 1284Q2407 1284 2441.5 1255.5Q2476 1227 2492.5 1180.5Q2509 1134 2509 1080Q2509 1033 2497.5 995.0Q2486 957 2464.5 934.5Q2443 912 2414 912Q2369 912 2336.0 935.0Q2303 958 2283 990Q2267 1016 2258.5 1038.0Q2250 1060 2243 1089Q2241 1132 2239.0 1175.5Q2237 1219 2235 1263ZM2701 1151Q2692 1143 2686.5 1132.5Q2681 1122 2681 1109Q2682 1092 2694.5 1080.0Q2707 1068 2725 1070Q2733 1071 2743.5 1076.5Q2754 1082 2776.0 1087.5Q2798 1093 2838 1093Q2886 1093 2930.0 1075.5Q2974 1058 3001.5 1028.5Q3029 999 3029 963Q3029 940 3015.0 927.0Q3001 914 2981 914Q2950 914 2920.5 930.0Q2891 946 2868.5 974.0Q2846 1002 2832.5 1039.5Q2819 1077 2819 1120Q2819 1176 2834.5 1212.0Q2850 1248 2875.0 1265.0Q2900 1282 2929 1282Q2957 1282 2981.5 1272.5Q3006 1263 3032 1241Q3038 1236 3044.0 1233.5Q3050 1231 3057 1231Q3069 1231 3078.5 1237.0Q3088 1243 3093.0 1253.0Q3098 1263 3098 1275Q3098 1291 3086.0 1305.0Q3074 1319 3045 1334Q3015 1350 2987.0 1358.0Q2959 1366 2930 1366Q2868 1366 2822.5 1335.0Q2777 1304 2753.0 1248.0Q2729 1192 2729 1118Q2729 1062 2749.0 1011.0Q2769 960 2803.5 919.0Q2838 878 2881.5 854.5Q2925 831 2972 831Q3012 831 3045.0 847.0Q3078 863 3098.5 891.0Q3119 919 3119 956Q3119 1019 3082.5 1068.5Q3046 1118 2982.0 1146.5Q2918 1175 2836 1175Q2814 1175 2792.0 1173.5Q2770 1172 2751.5 1169.0Q2733 1166 2720.0 1161.5Q2707 1157 2701 1151ZM3247 1025Q3247 962 3243.0 928.5Q3239 895 3234.5 879.5Q3230 864 3230 854Q3230 837 3243.0 825.0Q3256 813 3275 813Q3294 813 3307.5 827.0Q3321 841 3327 867Q3329 880 3332.0 900.0Q3335 920 3336 952Q3362 910 3393.5 882.0Q3425 854 3461.0 840.0Q3497 826 3536 826Q3622 826 3666.0 885.5Q3710 945 3710 1057Q3710 1097 3704.5 1146.0Q3699 1195 3691.0 1245.5Q3683 1296 3673 1341Q3670 1355 3657.5 1363.5Q3645 1372 3630 1372Q3601 1372 3590.5 1355.0Q3580 1338 3584 1319Q3596 1264 3606.5 1192.0Q3617 1120 3617 1055Q3617 982 3596.5 947.0Q3576 912 3526 912Q3490 912 3459.5 928.5Q3429 945 3405.5 976.0Q3382 1007 3365.5 1051.0Q3349 1095 3340 1150Q3337 1170 3335.5 1195.5Q3334 1221 3334.0 1253.0Q3334 1285 3334 1327Q3334 1346 3321.5 1357.5Q3309 1369 3288 1369Q3275 1369 3264.5 1363.5Q3254 1358 3248.0 1348.5Q3242 1339 3242 1326Q3242 1300 3243.0 1263.5Q3244 1227 3244.5 1185.0Q3245 1143 3246.0 1101.5Q3247 1060 3247 1025ZM4607 696Q4614 703 4618.0 711.5Q4622 720 4622 728Q4622 741 4615.5 751.5Q4609 762 4598.5 768.0Q4588 774 4577 774Q4570 774 4562.0 770.5Q4554 767 4547 760Q4510 716 4470.0 694.5Q4430 673 4389 673Q4353 673 4325.0 688.5Q4297 704 4280.5 730.0Q4264 756 4264 788Q4264 829 4292.5 859.5Q4321 890 4391 921Q4465 953 4509.5 987.0Q4554 1021 4574.5 1062.0Q4595 1103 4595 1155Q4595 1203 4576.5 1244.5Q4558 1286 4525.5 1316.5Q4493 1347 4450.5 1364.0Q4408 1381 4360 1379Q4326 1378 4292.0 1368.0Q4258 1358 4227.5 1340.5Q4197 1323 4174 1298Q4161 1284 4155.5 1274.5Q4150 1265 4150 1255Q4150 1242 4156.0 1231.5Q4162 1221 4172.5 1214.5Q4183 1208 4194 1208Q4210 1208 4220.0 1217.0Q4230 1226 4239 1237Q4261 1263 4296.0 1277.5Q4331 1292 4364 1292Q4402 1292 4433.0 1274.5Q4464 1257 4483.0 1227.5Q4502 1198 4502 1163Q4502 1126 4488.5 1099.5Q4475 1073 4443.5 1051.0Q4412 1029 4359 1007Q4269 970 4220.0 916.5Q4171 863 4171 790Q4171 735 4201.0 689.0Q4231 643 4281.0 615.0Q4331 587 4390 587Q4429 587 4467.0 599.0Q4505 611 4540.5 635.0Q4576 659 4607 696ZM4727 1123Q4727 1031 4760.5 967.5Q4794 904 4849.5 871.0Q4905 838 4970 838Q4994 838 5017.0 842.0Q5040 846 5062.5 853.0Q5085 860 5105 871L5110 853Q5114 841 5126.0 832.5Q5138 824 5151 824Q5171 824 5184.5 836.5Q5198 849 5198 869Q5198 884 5195.0 912.5Q5192 941 5185.5 980.5Q5179 1020 5168.5 1065.0Q5158 1110 5143 1158Q5143 1208 5150.0 1237.0Q5157 1266 5170.0 1277.5Q5183 1289 5202 1289Q5216 1289 5228.0 1275.0Q5240 1261 5252 1239Q5257 1231 5264.5 1225.5Q5272 1220 5285 1220Q5301 1220 5311.5 1232.5Q5322 1245 5322 1261Q5322 1272 5317.0 1285.5Q5312 1299 5304 1310Q5284 1337 5254.5 1355.0Q5225 1373 5190 1373Q5164 1373 5140.0 1362.0Q5116 1351 5098.5 1328.5Q5081 1306 5071 1273Q5039 1320 5000.0 1343.0Q4961 1366 4911 1366Q4855 1366 4813.5 1335.5Q4772 1305 4749.5 1250.5Q4727 1196 4727 1123ZM4820 1117Q4820 1153 4827.0 1183.0Q4834 1213 4847.0 1235.0Q4860 1257 4879.0 1269.0Q4898 1281 4922 1281Q4971 1281 5000.0 1246.0Q5029 1211 5058 1153Q5058 1114 5061.5 1076.0Q5065 1038 5070.5 1006.0Q5076 974 5083 953Q5053 938 5027.5 929.5Q5002 921 4976 921Q4932 921 4896.5 943.5Q4861 966 4840.5 1009.5Q4820 1053 4820 1117ZM5427 846Q5430 833 5437.0 826.0Q5444 819 5453.5 816.0Q5463 813 5471 813Q5489 813 5502.5 824.5Q5516 836 5516 853Q5516 858 5514.0 873.5Q5512 889 5510.0 907.0Q5508 925 5507 941Q5540 884 5584.5 849.0Q5629 814 5685 814Q5771 814 5814.0 877.5Q5857 941 5857 1045Q5857 1083 5853.0 1119.5Q5849 1156 5843.0 1191.5Q5837 1227 5833.0 1261.5Q5829 1296 5829 1329Q5829 1351 5815.0 1361.0Q5801 1371 5784 1371Q5766 1371 5751.5 1361.0Q5737 1351 5737 1330Q5737 1293 5741.0 1258.5Q5745 1224 5751.0 1189.5Q5757 1155 5761.0 1119.5Q5765 1084 5765 1047Q5765 988 5752.0 956.0Q5739 924 5718.0 912.0Q5697 900 5671 900Q5639 900 5610.0 925.0Q5581 950 5555.0 995.0Q5529 1040 5507 1099Q5507 1174 5505.0 1228.5Q5503 1283 5501 1327Q5500 1346 5486.0 1357.5Q5472 1369 5452 1369Q5423 1369 5413.0 1344.0Q5403 1319 5403 1286Q5403 1261 5404.0 1235.5Q5405 1210 5408.5 1183.5Q5412 1157 5417 1131Q5416 1074 5416.0 1032.0Q5416 990 5417.0 957.5Q5418 925 5420.5 898.0Q5423 871 5427 846ZM6352 907Q6358 917 6360.5 927.5Q6363 938 6363 947Q6363 964 6351.5 973.5Q6340 983 6324 983Q6308 983 6296.0 973.5Q6284 964 6275 948Q6264 928 6240.5 914.5Q6217 901 6177 901Q6125 901 6105.0 922.0Q6085 943 6085 964Q6085 989 6107.5 1007.5Q6130 1026 6191 1053Q6233 1071 6268.5 1091.5Q6304 1112 6325.5 1142.0Q6347 1172 6347 1219Q6347 1265 6320.5 1301.0Q6294 1337 6252.0 1357.0Q6210 1377 6161 1377Q6108 1377 6057.5 1356.5Q6007 1336 5972 1305Q5960 1295 5957.0 1285.5Q5954 1276 5954 1268Q5954 1251 5967.0 1238.5Q5980 1226 5998 1226Q6009 1226 6018.0 1231.5Q6027 1237 6039 1248Q6053 1261 6085.0 1277.0Q6117 1293 6153 1293Q6192 1293 6214.0 1281.0Q6236 1269 6245.5 1253.5Q6255 1238 6255 1225Q6255 1205 6245.0 1190.5Q6235 1176 6209.5 1161.5Q6184 1147 6138 1128Q6099 1111 6066.5 1090.0Q6034 1069 6014.0 1040.0Q5994 1011 5994 971Q5994 928 6018.5 893.5Q6043 859 6085.0 838.5Q6127 818 6180 818Q6215 818 6249.0 828.5Q6283 839 6310.5 859.0Q6338 879 6352 907ZM6788 679Q6767 679 6757.0 666.5Q6747 654 6747 636Q6747 619 6757.0 605.5Q6767 592 6788 592Q6919 590 7051.5 589.0Q7184 588 7315 587Q7334 586 7344.5 599.5Q7355 613 7355 631Q7355 659 7334.0 668.0Q7313 677 7284 676Q7257 675 7211.5 675.0Q7166 675 7110.0 675.5Q7054 676 6995.5 676.5Q6937 677 6883.0 678.0Q6829 679 6788 679ZM6991 653Q6993 632 7007.0 622.0Q7021 612 7038 612Q7055 612 7069.5 622.0Q7084 632 7082 653Q7072 777 7066.5 903.5Q7061 1030 7061 1158Q7061 1201 7061.5 1244.0Q7062 1287 7063 1329Q7065 1348 7050.5 1359.5Q7036 1371 7018 1372Q6999 1373 6986.0 1359.5Q6973 1346 6972 1329Q6971 1287 6970.5 1244.0Q6970 1201 6970 1158Q6970 1030 6975.5 903.5Q6981 777 6991 653ZM7454 582Q7454 561 7467.5 551.0Q7481 541 7499 541Q7518 541 7531.0 551.5Q7544 562 7544 582Q7543 602 7542.5 625.0Q7542 648 7541.5 683.5Q7541 719 7540.5 774.5Q7540 830 7539 916Q7561 887 7586.5 866.5Q7612 846 7641.5 835.0Q7671 824 7702 824Q7754 824 7784.0 846.0Q7814 868 7828.5 902.5Q7843 937 7847.5 976.0Q7852 1015 7853 1050Q7855 1132 7851.5 1181.0Q7848 1230 7848 1271Q7848 1288 7849.0 1303.5Q7850 1319 7851 1335Q7852 1354 7838.5 1364.5Q7825 1375 7805 1375Q7786 1375 7773.5 1365.0Q7761 1355 7760 1334Q7758 1311 7758.0 1278.0Q7758 1245 7759.5 1208.5Q7761 1172 7762.0 1137.5Q7763 1103 7763 1078Q7763 983 7749.5 946.5Q7736 910 7696 910Q7667 910 7637.5 927.0Q7608 944 7582.5 979.5Q7557 1015 7541 1073Q7537 1137 7534.5 1200.5Q7532 1264 7530 1324Q7529 1343 7515.5 1354.5Q7502 1366 7482 1366Q7463 1366 7451.5 1354.0Q7440 1342 7439 1325Q7438 1301 7435.5 1275.5Q7433 1250 7434 1225Q7434 1185 7438.5 1145.5Q7443 1106 7451 1068Q7451 964 7451.0 890.5Q7451 817 7451.0 767.0Q7451 717 7451.5 683.5Q7452 650 7452.5 626.5Q7453 603 7454 582ZM7979 1129Q7979 1070 7997.0 1014.5Q8015 959 8048.0 915.0Q8081 871 8125.5 845.5Q8170 820 8223 820Q8253 820 8283.5 829.5Q8314 839 8343 862Q8348 840 8357.5 830.5Q8367 821 8383 821Q8403 821 8417.0 833.5Q8431 846 8430 869Q8429 900 8423.0 945.5Q8417 991 8411 1036Q8409 1050 8405.0 1075.5Q8401 1101 8398.5 1126.0Q8396 1151 8396 1166Q8396 1185 8399.0 1213.5Q8402 1242 8410.5 1264.0Q8419 1286 8433 1286Q8444 1286 8453.0 1278.0Q8462 1270 8470 1254Q8475 1243 8484.5 1238.5Q8494 1234 8504 1234Q8515 1234 8525.0 1239.5Q8535 1245 8540.5 1254.5Q8546 1264 8545 1278Q8545 1297 8530.0 1319.0Q8515 1341 8489.0 1356.5Q8463 1372 8430 1372Q8402 1372 8380.0 1360.0Q8358 1348 8344.0 1325.5Q8330 1303 8325 1271Q8295 1315 8259.0 1339.5Q8223 1364 8173 1364Q8109 1364 8066.0 1333.5Q8023 1303 8001.0 1250.0Q7979 1197 7979 1129ZM8072 1125Q8072 1174 8083.5 1208.5Q8095 1243 8118.0 1261.5Q8141 1280 8176 1280Q8204 1280 8224.0 1267.5Q8244 1255 8259.0 1233.0Q8274 1211 8285 1182Q8295 1157 8302.5 1127.0Q8310 1097 8315.0 1064.5Q8320 1032 8323.0 1001.0Q8326 970 8328 944Q8304 924 8276.5 913.5Q8249 903 8227 903Q8191 903 8162.5 921.5Q8134 940 8113.5 971.5Q8093 1003 8082.5 1042.5Q8072 1082 8072 1125ZM8649 856Q8649 836 8663.0 826.0Q8677 816 8693 816Q8705 816 8715.5 820.5Q8726 825 8733.0 834.0Q8740 843 8739 857Q8735 905 8732.0 955.0Q8729 1005 8727.5 1062.5Q8726 1120 8725.5 1189.0Q8725 1258 8725 1344Q8725 1360 8714.5 1372.5Q8704 1385 8681 1385Q8657 1385 8650.0 1375.0Q8643 1365 8639 1341Q8635 1320 8633.5 1289.5Q8632 1259 8632 1224Q8632 1171 8634.5 1113.5Q8637 1056 8640.0 1003.5Q8643 951 8645.5 911.5Q8648 872 8649 856ZM8641 642Q8641 610 8661.5 593.5Q8682 577 8702 577Q8731 577 8750.0 598.0Q8769 619 8769 645Q8769 658 8760.5 673.0Q8752 688 8736.5 699.0Q8721 710 8700 710Q8672 710 8656.5 688.5Q8641 667 8641 642Z" fill="currentColor" /></svg>