<svg viewBox="0 0 7391 1284" xmlns="http://www.w3.org/2000/svg"><path d="M44 904Q0 904 0 876V42Q0 28 11.5 21.5Q23 15 45 15H235Q335 15 402.0 37.0Q469 59 503.5 107.0Q538 155 538 234Q538 311 509.0 364.5Q480 418 433.0 452.0Q386 486 330.0 505.5Q274 525 219 534Q182 539 148.0 541.5Q114 544 88 544V876Q88 890 77.0 897.0Q66 904 44 904ZM88 465Q107 465 128.5 464.0Q150 463 173.0 460.5Q196 458 219 455Q276 445 328.5 421.0Q381 397 414.5 352.0Q448 307 448 235Q448 184 424.0 153.5Q400 123 352.5 109.0Q305 95 235 95H88ZM794 907Q764 907 740.5 898.5Q717 890 701.5 871.5Q686 853 678.0 824.5Q670 796 670 755V26Q670 13 680.5 6.5Q691 0 712 0Q734 0 745.0 6.5Q756 13 756 26V752Q756 796 768.0 814.0Q780 832 813 832Q827 832 834.0 843.5Q841 855 839.5 869.5Q838 884 827.0 895.5Q816 907 794 907ZM792 907Q778 907 771.5 895.5Q765 884 766.5 869.5Q768 855 779.0 843.5Q790 832 811 832Q838 832 860.5 823.0Q883 814 901.5 795.0Q920 776 933.5 746.0Q947 716 955 675Q958 660 971.0 656.5Q984 653 996.0 658.0Q1008 663 1006 678Q998 737 979.5 780.5Q961 824 933.5 851.5Q906 879 870.5 893.0Q835 907 792 907ZM1137 907Q1082 907 1040.0 879.0Q998 851 974.0 796.0Q950 741 950 658Q950 606 960.0 561.5Q970 517 988.5 481.5Q1007 446 1034.5 421.5Q1062 397 1097.0 384.0Q1132 371 1175 371Q1216 371 1258.0 386.0Q1300 401 1335 428V504Q1295 472 1258.0 461.0Q1221 450 1185 450Q1158 450 1135.0 458.0Q1112 466 1094.5 482.5Q1077 499 1064.5 523.5Q1052 548 1045.5 580.5Q1039 613 1039 655Q1039 707 1051.0 746.0Q1063 785 1087.5 806.0Q1112 827 1151 827Q1188 827 1221.0 802.5Q1254 778 1280.5 729.5Q1307 681 1324 608L1341 673Q1323 760 1290.5 811.5Q1258 863 1218.0 885.0Q1178 907 1137 907ZM1427 907Q1396 907 1373.0 898.5Q1350 890 1334.5 871.5Q1319 853 1311.0 824.5Q1303 796 1303 755V403Q1303 389 1314.0 382.0Q1325 375 1346 375Q1368 375 1378.5 381.5Q1389 388 1389 402V752Q1389 796 1401.0 814.0Q1413 832 1446 832Q1456 832 1461.0 843.5Q1466 855 1464.5 869.5Q1463 884 1454.0 895.5Q1445 907 1427 907ZM1427 907Q1413 907 1406.5 895.5Q1400 884 1401.5 869.5Q1403 855 1414.0 843.5Q1425 832 1446 832Q1475 832 1502.0 819.0Q1529 806 1553.0 779.0Q1577 752 1598.0 710.5Q1619 669 1638 614Q1643 599 1655.0 599.5Q1667 600 1676.5 609.5Q1686 619 1683 631Q1663 701 1637.5 753.0Q1612 805 1580.5 839.0Q1549 873 1511.0 890.0Q1473 907 1427 907ZM1856 1284Q1791 1284 1752.0 1251.5Q1713 1219 1713 1163Q1713 1137 1723.0 1111.5Q1733 1086 1753.5 1060.5Q1774 1035 1805.0 1009.0Q1836 983 1878 955Q1894 944 1909.0 935.0Q1924 926 1939.0 917.0Q1954 908 1969 899V785Q1955 816 1935.5 839.0Q1916 862 1893.5 877.0Q1871 892 1846.0 899.5Q1821 907 1794 907Q1742 907 1705.0 888.0Q1668 869 1648.5 829.5Q1629 790 1629 729V401Q1629 388 1639.5 381.5Q1650 375 1671 375Q1693 375 1704.0 381.5Q1715 388 1715 401V727Q1715 761 1725.0 784.0Q1735 807 1755.0 818.5Q1775 830 1806 830Q1836 830 1861.5 817.0Q1887 804 1907.5 780.5Q1928 757 1943.5 725.0Q1959 693 1969 655V401Q1969 388 1979.5 381.5Q1990 375 2012 375Q2033 375 2044.0 381.5Q2055 388 2055 401V1019Q2055 1082 2041.0 1131.5Q2027 1181 2001.0 1214.5Q1975 1248 1938.0 1266.0Q1901 1284 1856 1284ZM1861 1206Q1896 1206 1919.5 1184.5Q1943 1163 1956.0 1120.5Q1969 1078 1969 1015V983Q1957 989 1945.5 995.5Q1934 1002 1924.0 1008.5Q1914 1015 1904 1023Q1878 1043 1859.0 1059.5Q1840 1076 1827.5 1091.5Q1815 1107 1808.5 1122.5Q1802 1138 1802 1154Q1802 1170 1808.5 1181.5Q1815 1193 1828.0 1199.5Q1841 1206 1861 1206ZM2030 947Q2022 953 2015.5 944.5Q2009 936 2006.0 921.0Q2003 906 2005.0 893.0Q2007 880 2015 875Q2058 850 2091.0 822.0Q2124 794 2150.0 758.5Q2176 723 2197.5 675.0Q2219 627 2237.0 562.0Q2255 497 2273 411Q2275 400 2284.5 396.0Q2294 392 2305.5 394.0Q2317 396 2325.0 403.0Q2333 410 2331 421Q2315 518 2295.5 591.5Q2276 665 2251.0 719.5Q2226 774 2194.0 815.0Q2162 856 2121.5 888.0Q2081 920 2030 947ZM2479 905Q2457 905 2447.0 898.0Q2437 891 2432 879L2275 425Q2268 405 2279.5 390.0Q2291 375 2319 375Q2334 375 2343.0 381.0Q2352 387 2356 401L2480 781L2612 401Q2617 387 2626.5 381.0Q2636 375 2652 375Q2667 375 2677.0 381.0Q2687 387 2691 401L2826 781L2949 401Q2954 387 2963.0 381.0Q2972 375 2987 375Q3016 375 3027.0 389.0Q3038 403 3030 425L2871 879Q2867 891 2857.0 898.0Q2847 905 2825 905Q2803 905 2794.5 897.5Q2786 890 2782 879L2652 512L2525 879Q2521 890 2510.5 897.5Q2500 905 2479 905ZM3093 475Q3065 475 3035.5 467.0Q3006 459 2989 449Q2981 444 2982.0 432.5Q2983 421 2989.5 408.5Q2996 396 3003.5 388.0Q3011 380 3016 382Q3034 391 3057.0 398.0Q3080 405 3101 405Q3123 405 3143.5 400.5Q3164 396 3184 382Q3191 377 3198.5 388.5Q3206 400 3210.0 414.0Q3214 428 3208 433Q3196 446 3178.5 455.5Q3161 465 3139.5 470.0Q3118 475 3093 475ZM3215 905Q3194 905 3183.5 898.5Q3173 892 3173 879V401Q3173 388 3183.5 381.5Q3194 375 3215 375Q3237 375 3248.0 381.5Q3259 388 3259 401V500Q3271 468 3286.5 443.5Q3302 419 3319.5 403.0Q3337 387 3355.0 379.0Q3373 371 3391 371Q3410 371 3419.5 383.0Q3429 395 3429.0 411.0Q3429 427 3419.5 439.0Q3410 451 3391 451Q3372 451 3352.5 465.5Q3333 480 3315.5 506.0Q3298 532 3283.5 568.0Q3269 604 3259 647V879Q3259 892 3248.0 898.5Q3237 905 3215 905ZM3522 479Q3500 479 3477.5 471.5Q3455 464 3433.5 457.5Q3412 451 3391 451Q3372 451 3363.0 439.0Q3354 427 3354.0 411.0Q3354 395 3363.0 383.0Q3372 371 3391 371Q3420 371 3443.5 380.0Q3467 389 3490.5 399.0Q3514 409 3539 409Q3556 409 3566.0 405.0Q3576 401 3583 395Q3597 383 3609.0 388.0Q3621 393 3625.0 406.0Q3629 419 3617 432Q3593 459 3570.0 469.0Q3547 479 3522 479ZM3701 907Q3671 907 3647.5 898.5Q3624 890 3608.5 871.5Q3593 853 3585.0 824.5Q3577 796 3577 755V401Q3577 388 3587.5 381.5Q3598 375 3619 375Q3641 375 3652.0 381.5Q3663 388 3663 401V752Q3663 796 3675.0 814.0Q3687 832 3720 832Q3734 832 3741.0 843.5Q3748 855 3746.5 869.5Q3745 884 3734.0 895.5Q3723 907 3701 907ZM3619 221Q3591 221 3577.0 205.5Q3563 190 3563 159Q3563 127 3577.0 111.0Q3591 95 3619 95Q3647 95 3660.5 111.0Q3674 127 3674 159Q3676 190 3661.5 205.5Q3647 221 3619 221ZM3700 907Q3686 907 3679.5 895.5Q3673 884 3674.5 869.5Q3676 855 3687.0 843.5Q3698 832 3719 832Q3749 832 3776.5 819.0Q3804 806 3828.0 781.0Q3852 756 3874.0 717.0Q3896 678 3915 626Q3920 611 3932.5 612.0Q3945 613 3954.0 622.0Q3963 631 3960 642Q3939 710 3913.5 759.5Q3888 809 3856.0 842.0Q3824 875 3785.5 891.0Q3747 907 3700 907ZM4088 907Q4042 907 4007.5 892.0Q3973 877 3949.0 848.5Q3925 820 3913.0 777.5Q3901 735 3901 679V470H3823Q3809 470 3802.5 461.0Q3796 452 3796 430Q3796 407 3802.5 398.5Q3809 390 3823 390H3901V186Q3901 173 3911.5 166.5Q3922 160 3944 160Q3965 160 3976.0 166.5Q3987 173 3987 186V390H4114Q4129 390 4135.5 398.5Q4142 407 4142 430Q4142 452 4135.5 461.0Q4129 470 4114 470H3987V676Q3987 714 3994.5 742.5Q4002 771 4017.0 791.0Q4032 811 4054.5 821.5Q4077 832 4106 832Q4120 832 4127.0 843.5Q4134 855 4132.5 869.5Q4131 884 4120.0 895.5Q4109 907 4088 907ZM4088 907Q4074 907 4067.5 895.5Q4061 884 4062.5 869.5Q4064 855 4075.0 843.5Q4086 832 4107 832Q4127 832 4154.5 821.0Q4182 810 4214.5 790.0Q4247 770 4282 743Q4295 732 4306.5 735.5Q4318 739 4324.5 750.0Q4331 761 4330.5 774.5Q4330 788 4318 798Q4274 832 4232.0 856.5Q4190 881 4153.0 894.0Q4116 907 4088 907ZM4456 908Q4379 908 4329.5 873.0Q4280 838 4256.5 776.5Q4233 715 4233 635Q4233 580 4248.5 532.0Q4264 484 4292.5 447.5Q4321 411 4361.5 391.0Q4402 371 4452 371Q4490 371 4519.5 386.5Q4549 402 4566.0 430.0Q4583 458 4583 495Q4583 529 4570.0 561.5Q4557 594 4529.0 628.0Q4501 662 4458.0 698.5Q4415 735 4356 776L4287 744Q4340 707 4379.0 674.5Q4418 642 4443.5 612.5Q4469 583 4482.0 555.5Q4495 528 4495 503Q4495 476 4479.5 463.5Q4464 451 4440 451Q4415 451 4393.5 465.0Q4372 479 4355.5 504.0Q4339 529 4330.0 561.5Q4321 594 4321 630Q4321 696 4338.5 740.5Q4356 785 4386.5 807.0Q4417 829 4456 829Q4483 829 4505.5 820.0Q4528 811 4549.5 794.0Q4571 777 4591 755Q4605 740 4618.0 740.5Q4631 741 4645 752Q4659 763 4661.5 775.0Q4664 787 4655 800Q4629 839 4593.5 863.0Q4558 887 4521.5 897.5Q4485 908 4456 908ZM5398 907Q5327 907 5268.5 877.5Q5210 848 5167.5 793.0Q5125 738 5101.5 660.5Q5078 583 5078 488Q5078 417 5091.5 353.0Q5105 289 5129.5 234.5Q5154 180 5189.5 136.5Q5225 93 5270.0 63.0Q5315 33 5368.0 16.5Q5421 0 5480 0Q5538 0 5585.5 12.5Q5633 25 5675.0 51.5Q5717 78 5756 119Q5768 130 5767.5 142.0Q5767 154 5750 170Q5735 185 5723.5 182.5Q5712 180 5699 170Q5661 137 5625.0 118.5Q5589 100 5553.0 92.5Q5517 85 5480 85Q5433 85 5392.5 98.0Q5352 111 5317.5 136.0Q5283 161 5255.5 196.5Q5228 232 5209.5 277.0Q5191 322 5180.5 375.0Q5170 428 5170 488Q5170 564 5187.0 626.0Q5204 688 5234.5 732.0Q5265 776 5307.5 799.0Q5350 822 5401 822Q5464 822 5513.5 788.5Q5563 755 5600.5 699.5Q5638 644 5662.5 577.0Q5687 510 5698 445Q5698 431 5709.0 424.0Q5720 417 5742 417Q5786 417 5786 445V874Q5786 888 5775.0 895.0Q5764 902 5742 902Q5698 902 5698 874V670Q5673 727 5641.5 771.0Q5610 815 5572.0 845.5Q5534 876 5490.0 891.5Q5446 907 5398 907ZM6041 890Q5997 890 5997 862V42Q5997 15 6042 15H6243Q6325 15 6385.0 31.0Q6445 47 6477.5 88.0Q6510 129 6510 204Q6510 250 6490.5 286.0Q6471 322 6440.0 349.0Q6409 376 6374.0 394.5Q6339 413 6307 424V427Q6354 428 6397.0 439.0Q6440 450 6474.0 472.0Q6508 494 6527.5 530.5Q6547 567 6547 619Q6547 667 6532.0 709.0Q6517 751 6488.5 784.0Q6460 817 6419.5 841.0Q6379 865 6328.5 877.5Q6278 890 6218 890ZM6085 810H6218Q6283 810 6328.5 794.0Q6374 778 6402.0 750.5Q6430 723 6443.5 689.5Q6457 656 6457 620Q6457 579 6442.5 550.0Q6428 521 6399.5 502.5Q6371 484 6329.0 475.5Q6287 467 6231 467H6085ZM6085 387H6218Q6261 387 6297.5 373.5Q6334 360 6361.5 335.5Q6389 311 6404.5 277.5Q6420 244 6420 204Q6420 157 6397.0 134.0Q6374 111 6334.5 103.0Q6295 95 6243 95H6085ZM7141 909Q7080 909 7029.0 888.5Q6978 868 6941.0 828.0Q6904 788 6884 730Q6879 715 6887.5 707.5Q6896 700 6910 695Q6925 690 6937.5 690.5Q6950 691 6955 705Q6972 744 6994.0 770.5Q7016 797 7051.0 810.5Q7086 824 7141 824Q7168 824 7192.5 817.0Q7217 810 7237.0 796.0Q7257 782 7272.0 758.5Q7287 735 7295.0 701.5Q7303 668 7303 623V27Q7303 13 7314.0 6.5Q7325 0 7347 0Q7369 0 7380.0 6.5Q7391 13 7391 27V623Q7391 680 7379.0 725.5Q7367 771 7345.0 805.5Q7323 840 7292.0 863.0Q7261 886 7223.0 897.5Q7185 909 7141 909Z" /></svg>