<svg viewBox="0 0 12060 1800" xmlns="http://www.w3.org/2000/svg"><path d="M434 702Q421 703 414.5 696.0Q408 689 408 677Q408 664 414.5 658.0Q421 652 433 651Q528 647 605.0 620.0Q682 593 737.5 546.0Q793 499 822.5 432.5Q852 366 852 283Q852 172 798.0 113.5Q744 55 651 55Q600 55 554.0 77.0Q508 99 469.0 140.5Q430 182 401.5 242.5Q373 303 357.5 380.5Q342 458 342 552V1145Q342 1154 336.0 1159.0Q330 1164 316 1164Q302 1164 295.0 1159.0Q288 1154 288 1145V164Q268 219 239.0 263.5Q210 308 170.5 343.5Q131 379 75 410Q65 416 57.5 413.5Q50 411 43 398Q37 387 39.5 378.5Q42 370 52 365Q119 329 165.0 280.0Q211 231 240.0 166.5Q269 102 285 23Q287 13 295.0 9.0Q303 5 316 5Q329 5 335.5 9.5Q342 14 342 24V275Q371 185 418.5 125.0Q466 65 527.0 34.5Q588 4 657 4Q733 4 789.5 37.5Q846 71 877.5 133.0Q909 195 909 282Q909 376 875.5 451.5Q842 527 779.0 581.5Q716 636 629.0 667.0Q542 698 434 702ZM0 1771H965V1781H0ZM0 1130H965V1150H0ZM0 645H965V650H0ZM0 9H965V19H0ZM827 1167Q815 1167 809.0 1159.5Q803 1152 803.0 1143.0Q803 1134 809.0 1126.5Q815 1119 827 1119Q860 1119 892.0 1100.5Q924 1082 954.5 1048.0Q985 1014 1012.5 967.5Q1040 921 1064.5 864.0Q1089 807 1110.5 743.0Q1132 679 1148.5 609.5Q1165 540 1176.5 468.0Q1188 396 1194.5 324.5Q1201 253 1201 185Q1201 174 1209.0 168.0Q1217 162 1228.0 162.0Q1239 162 1247.0 168.0Q1255 174 1255 185Q1255 256 1248.0 330.5Q1241 405 1227.5 480.5Q1214 556 1195.0 628.5Q1176 701 1152.0 769.5Q1128 838 1099.5 898.0Q1071 958 1039.5 1007.0Q1008 1056 973.5 1092.0Q939 1128 902.0 1147.5Q865 1167 827 1167ZM1214 1167Q1153 1167 1110.5 1138.5Q1068 1110 1046.0 1055.0Q1024 1000 1024 921V200Q1024 99 1053.0 49.5Q1082 0 1142 0Q1180 0 1205.5 20.5Q1231 41 1243.0 82.0Q1255 123 1255 185Q1255 197 1247.0 203.5Q1239 210 1228.0 210.0Q1217 210 1209.0 203.5Q1201 197 1201 185Q1201 139 1194.5 109.0Q1188 79 1174.5 64.5Q1161 50 1141 50Q1119 50 1104.5 65.0Q1090 80 1083.0 112.5Q1076 145 1076 200V921Q1076 985 1092.5 1029.0Q1109 1073 1141.5 1096.0Q1174 1119 1220 1119Q1231 1119 1236.5 1126.5Q1242 1134 1241.5 1143.0Q1241 1152 1234.0 1159.5Q1227 1167 1214 1167ZM884 1771H1278V1781H884ZM884 1130H1278V1150H884ZM884 645H1278V650H884ZM884 9H1278V19H884ZM1213 1167Q1202 1167 1196.5 1159.5Q1191 1152 1191.5 1143.0Q1192 1134 1199.0 1126.5Q1206 1119 1219 1119Q1252 1119 1278.5 1107.0Q1305 1095 1324.0 1074.0Q1343 1053 1353.5 1025.0Q1364 997 1365 964Q1366 952 1375.0 948.5Q1384 945 1392.5 948.5Q1401 952 1400 964Q1399 1008 1384.5 1045.5Q1370 1083 1345.5 1110.0Q1321 1137 1287.0 1152.0Q1253 1167 1213 1167ZM1278 1771V1781ZM1278 1130V1150ZM1278 645V650ZM1278 9V19ZM1555 1167Q1500 1167 1456.0 1138.0Q1412 1109 1387.0 1052.0Q1362 995 1362 912Q1362 862 1371.5 819.0Q1381 776 1400.0 741.5Q1419 707 1446.5 682.5Q1474 658 1510.5 644.5Q1547 631 1592 631Q1630 631 1666.5 643.5Q1703 656 1739 680V731Q1699 701 1664.0 690.5Q1629 680 1593 680Q1561 680 1533.5 689.5Q1506 699 1484.5 718.0Q1463 737 1448.5 764.5Q1434 792 1426.0 828.0Q1418 864 1418 908Q1418 970 1434.5 1017.0Q1451 1064 1483.5 1090.5Q1516 1117 1565 1117Q1599 1117 1631.0 1101.0Q1663 1085 1689.5 1048.5Q1716 1012 1733 948L1751 991Q1730 1065 1696.5 1103.0Q1663 1141 1625.5 1154.0Q1588 1167 1555 1167ZM1851 1167Q1817 1167 1793.0 1157.0Q1769 1147 1754.0 1128.0Q1739 1109 1731.5 1081.0Q1724 1053 1724 1018V655Q1724 644 1731.0 639.5Q1738 635 1752 635Q1765 635 1771.0 639.5Q1777 644 1777 654V1017Q1777 1069 1794.0 1094.0Q1811 1119 1857 1119Q1864 1119 1868.0 1126.5Q1872 1134 1871.5 1143.0Q1871 1152 1866.5 1159.5Q1862 1167 1851 1167ZM1278 1771H1913V1781H1278ZM1278 1130H1913V1150H1278ZM1278 645H1913V650H1278ZM1278 9H1913V19H1278ZM1848 1167Q1839 1167 1834.5 1159.5Q1830 1152 1830.5 1143.0Q1831 1134 1837.0 1126.5Q1843 1119 1854 1119Q1885 1119 1907.5 1104.5Q1930 1090 1947.0 1062.5Q1964 1035 1974.5 995.0Q1985 955 1991 903Q1999 832 2009.5 781.0Q2020 730 2035.5 698.0Q2051 666 2073.5 650.5Q2096 635 2129 635Q2138 635 2142.5 642.0Q2147 649 2146.5 658.5Q2146 668 2141.0 675.5Q2136 683 2127 683Q2109 683 2096.0 694.5Q2083 706 2073.0 731.0Q2063 756 2055.5 796.0Q2048 836 2041 893Q2034 964 2018.5 1015.5Q2003 1067 1979.0 1101.0Q1955 1135 1922.5 1151.0Q1890 1167 1848 1167ZM1913 1771H2013V1781H1913ZM1913 1130H2013V1150H1913ZM1913 645H2013V650H1913ZM1913 9H2013V19H1913ZM2422 1800Q2358 1800 2321.0 1758.5Q2284 1717 2284 1643Q2284 1593 2293.5 1548.0Q2303 1503 2322.0 1461.0Q2341 1419 2369.0 1380.0Q2397 1341 2434 1303Q2452 1286 2470.0 1270.5Q2488 1255 2505.5 1241.0Q2523 1227 2540 1216V1055Q2525 1087 2503.5 1109.0Q2482 1131 2458.0 1144.0Q2434 1157 2408.5 1162.5Q2383 1168 2358 1168Q2310 1168 2273.0 1148.5Q2236 1129 2215.5 1088.5Q2195 1048 2195 984V776Q2195 726 2178.0 704.5Q2161 683 2127 683Q2116 683 2110.0 675.5Q2104 668 2104.5 658.5Q2105 649 2111.0 642.0Q2117 635 2129 635Q2158 635 2180.0 643.5Q2202 652 2217.0 670.0Q2232 688 2239.5 715.0Q2247 742 2247 780V979Q2247 1023 2259.5 1054.5Q2272 1086 2298.0 1103.0Q2324 1120 2365 1120Q2394 1120 2421.0 1111.0Q2448 1102 2471.0 1083.0Q2494 1064 2512.0 1034.0Q2530 1004 2540 963V654Q2540 644 2546.5 639.5Q2553 635 2567 635Q2580 635 2586.0 639.5Q2592 644 2592 654V1552Q2592 1613 2580.5 1659.5Q2569 1706 2547.0 1737.5Q2525 1769 2493.0 1784.5Q2461 1800 2422 1800ZM2426 1751Q2460 1751 2485.5 1729.5Q2511 1708 2525.5 1665.5Q2540 1623 2540 1559V1278Q2527 1286 2513.0 1296.5Q2499 1307 2485.5 1318.0Q2472 1329 2459 1341Q2431 1373 2409.0 1407.5Q2387 1442 2371.5 1479.0Q2356 1516 2348.0 1556.5Q2340 1597 2340 1641Q2340 1674 2350.0 1699.0Q2360 1724 2379.5 1737.5Q2399 1751 2426 1751ZM2013 1771H2728V1781H2013ZM2013 1130H2728V1150H2013ZM2013 645H2728V650H2013ZM2013 9H2728V19H2013ZM2572 1254Q2566 1257 2560.5 1252.0Q2555 1247 2551.5 1237.0Q2548 1227 2550.5 1217.5Q2553 1208 2563 1202Q2624 1163 2662.5 1113.5Q2701 1064 2723.0 1009.5Q2745 955 2758.0 902.0Q2771 849 2780.5 800.5Q2790 752 2803.0 715.0Q2816 678 2838.5 656.5Q2861 635 2901 635Q2912 635 2917.0 642.0Q2922 649 2921.5 658.5Q2921 668 2915.0 675.5Q2909 683 2898 683Q2872 683 2858.0 703.5Q2844 724 2835.0 760.5Q2826 797 2817.0 844.5Q2808 892 2793.5 945.5Q2779 999 2752.5 1053.5Q2726 1108 2682.5 1159.5Q2639 1211 2572 1254ZM2728 1771H2834V1781H2728ZM2728 1130H2834V1150H2728ZM2728 645H2834V650H2728ZM2728 9H2834V19H2728ZM3116 1168Q3080 1168 3052.0 1155.5Q3024 1143 3004.5 1117.5Q2985 1092 2975.5 1054.0Q2966 1016 2966 966V776Q2966 726 2949.0 704.5Q2932 683 2898 683Q2887 683 2881.0 675.5Q2875 668 2875.5 658.5Q2876 649 2882.0 642.0Q2888 635 2900 635Q2929 635 2951.0 643.5Q2973 652 2988.0 670.0Q3003 688 3010.5 715.0Q3018 742 3018 780V961Q3018 1012 3028.5 1048.0Q3039 1084 3062.5 1102.0Q3086 1120 3126 1120Q3151 1120 3176.0 1111.0Q3201 1102 3222.5 1081.5Q3244 1061 3256.5 1027.5Q3269 994 3269 945V654Q3269 644 3275.5 639.5Q3282 635 3296 635Q3310 635 3316.0 639.5Q3322 644 3322 654V946Q3322 992 3326.5 1024.5Q3331 1057 3343.0 1078.0Q3355 1099 3375.5 1109.5Q3396 1120 3426 1120Q3452 1120 3475.5 1110.5Q3499 1101 3519.5 1083.0Q3540 1065 3555.5 1038.5Q3571 1012 3579.5 978.0Q3588 944 3588 903Q3588 846 3579.5 805.0Q3571 764 3559 733Q3530 720 3516.5 703.0Q3503 686 3503 667Q3503 654 3511.0 642.5Q3519 631 3537 631Q3560 631 3579.0 657.0Q3598 683 3612.0 724.5Q3626 766 3633.5 811.5Q3641 857 3641 895Q3641 937 3632.0 977.5Q3623 1018 3605.0 1052.5Q3587 1087 3560.5 1113.0Q3534 1139 3499.0 1154.0Q3464 1169 3419 1169Q3385 1169 3358.0 1157.0Q3331 1145 3312.0 1121.0Q3293 1097 3282 1060Q3268 1095 3242.5 1119.0Q3217 1143 3184.5 1155.5Q3152 1168 3116 1168ZM2834 1771H3722V1781H2834ZM2834 1130H3722V1150H2834ZM2834 645H3722V650H2834ZM2834 9H3722V19H2834ZM3754 897Q3720 897 3689.0 878.5Q3658 860 3628.0 821.0Q3598 782 3566 721Q3559 707 3565.5 699.0Q3572 691 3583.0 691.0Q3594 691 3600 702Q3627 753 3652.5 786.5Q3678 820 3703.0 836.5Q3728 853 3754 853Q3790 853 3810.0 809.0Q3830 765 3830 687Q3830 677 3836.5 672.0Q3843 667 3851.5 667.0Q3860 667 3867.0 673.0Q3874 679 3874 691Q3874 757 3859.5 803.0Q3845 849 3818.5 873.0Q3792 897 3754 897ZM3722 1771V1781ZM3722 1130V1150ZM3722 645V650ZM3722 9V19ZM4226 1167Q4201 1167 4178.0 1161.0Q4155 1155 4137.0 1141.5Q4119 1128 4109.0 1106.0Q4099 1084 4099 1053Q4099 1026 4101.5 991.0Q4104 956 4106.5 917.5Q4109 879 4111.5 843.0Q4114 807 4114 776Q4114 731 4098.5 713.5Q4083 696 4052 696Q4027 696 3994.5 706.0Q3962 716 3930.0 725.5Q3898 735 3872 735Q3856 735 3841.5 718.5Q3827 702 3817.5 678.5Q3808 655 3808 636Q3808 623 3812.0 613.5Q3816 604 3824.5 598.0Q3833 592 3844 592Q3864 592 3873.0 610.0Q3882 628 3882 653Q3882 662 3881.5 671.0Q3881 680 3880 688Q3897 689 3917.5 683.0Q3938 677 3961.5 668.0Q3985 659 4010.0 652.5Q4035 646 4061 646Q4097 646 4120.0 659.0Q4143 672 4154.5 700.5Q4166 729 4166 774Q4166 805 4163.5 841.5Q4161 878 4158.5 915.0Q4156 952 4153.5 985.0Q4151 1018 4151 1042Q4151 1082 4172.0 1100.5Q4193 1119 4232 1119Q4243 1119 4248.0 1126.5Q4253 1134 4252.5 1143.0Q4252 1152 4245.5 1159.5Q4239 1167 4226 1167ZM3722 1771H4290V1781H3722ZM3722 1130H4290V1150H3722ZM3722 645H4290V650H3722ZM3722 9H4290V19H3722ZM4225 1167Q4214 1167 4208.5 1159.5Q4203 1152 4203.5 1143.0Q4204 1134 4211.0 1126.5Q4218 1119 4231 1119Q4268 1119 4299.0 1107.0Q4330 1095 4354.0 1075.0Q4378 1055 4396.0 1030.0Q4414 1005 4424 978Q4428 967 4437.0 967.5Q4446 968 4452.0 975.5Q4458 983 4455 993Q4444 1026 4424.0 1057.0Q4404 1088 4375.5 1113.0Q4347 1138 4309.0 1152.5Q4271 1167 4225 1167ZM4290 1771V1781ZM4290 1130V1150ZM4290 645V650ZM4290 9V19ZM4552 1167Q4514 1167 4488.5 1156.5Q4463 1146 4448.5 1126.0Q4434 1106 4428.0 1077.5Q4422 1049 4422 1013V654Q4422 644 4428.0 639.5Q4434 635 4447 635Q4461 635 4467.5 639.5Q4474 644 4474 654V1013Q4474 1068 4490.5 1093.5Q4507 1119 4558 1119Q4567 1119 4571.5 1126.5Q4576 1134 4575.5 1143.0Q4575 1152 4569.5 1159.5Q4564 1167 4552 1167ZM4448 467Q4426 467 4415.0 454.5Q4404 442 4404 418Q4404 393 4415.0 380.5Q4426 368 4448 368Q4469 368 4480.0 380.5Q4491 393 4491 418Q4492 443 4480.5 455.0Q4469 467 4448 467ZM4290 1771H4615V1781H4290ZM4290 1130H4615V1150H4290ZM4290 645H4615V650H4290ZM4290 9H4615V19H4290ZM4550 1167Q4539 1167 4533.5 1159.5Q4528 1152 4528.5 1143.0Q4529 1134 4536.0 1126.5Q4543 1119 4556 1119Q4593 1119 4625.5 1107.5Q4658 1096 4684.5 1076.0Q4711 1056 4730.0 1028.5Q4749 1001 4759 968Q4762 957 4771.5 958.0Q4781 959 4787.5 966.0Q4794 973 4791 983Q4779 1025 4757.0 1058.5Q4735 1092 4703.5 1116.5Q4672 1141 4633.0 1154.0Q4594 1167 4550 1167ZM4615 1771V1781ZM4615 1130V1150ZM4615 645V650ZM4615 9V19ZM4939 1167Q4888 1167 4852.5 1152.0Q4817 1137 4795.5 1108.5Q4774 1080 4763.5 1040.0Q4753 1000 4753 949V698H4662Q4651 698 4647.0 692.0Q4643 686 4643 674Q4643 661 4647.0 655.5Q4651 650 4662 650H4753V439Q4753 429 4759.5 424.5Q4766 420 4779 420Q4792 420 4799.0 424.5Q4806 429 4806 439V650H4947Q4958 650 4962.5 655.5Q4967 661 4967 674Q4967 686 4962.5 692.0Q4958 698 4947 698H4806V937Q4806 975 4812.0 1008.0Q4818 1041 4833.5 1065.5Q4849 1090 4876.0 1104.5Q4903 1119 4946 1119Q4956 1119 4961.0 1126.5Q4966 1134 4965.5 1143.0Q4965 1152 4958.5 1159.5Q4952 1167 4939 1167ZM4615 1771H5003V1781H4615ZM4615 1130H5003V1150H4615ZM4615 645H5003V650H4615ZM4615 9H5003V19H4615ZM4941 1167Q4928 1167 4922.5 1159.5Q4917 1152 4918.5 1143.0Q4920 1134 4927.5 1126.5Q4935 1119 4947 1119Q5003 1119 5057.0 1098.0Q5111 1077 5155 1045Q5163 1040 5169.5 1043.0Q5176 1046 5180.5 1053.5Q5185 1061 5185.0 1069.5Q5185 1078 5178 1083Q5144 1107 5104.0 1126.0Q5064 1145 5022.5 1156.0Q4981 1167 4941 1167ZM5003 1771V1781ZM5003 1130V1150ZM5003 645V650ZM5003 9V19ZM5155 1047Q5179 1030 5200.0 1010.5Q5221 991 5239 970Q5263 943 5280.0 913.5Q5297 884 5306.5 854.0Q5316 824 5316 796Q5316 737 5290.0 708.5Q5264 680 5218 680Q5197 680 5178.5 690.5Q5160 701 5146.0 721.0Q5132 741 5124.5 768.0Q5117 795 5117 828Q5117 894 5135.5 947.5Q5154 1001 5184.0 1039.0Q5214 1077 5249.0 1097.5Q5284 1118 5317 1118Q5347 1118 5370.0 1106.0Q5393 1094 5411.0 1076.5Q5429 1059 5442 1044Q5450 1035 5458.0 1035.5Q5466 1036 5475 1043Q5483 1049 5485.5 1056.5Q5488 1064 5482 1073Q5466 1097 5440.0 1118.5Q5414 1140 5381.0 1153.5Q5348 1167 5310 1167Q5272 1167 5235.5 1150.0Q5199 1133 5167.5 1102.0Q5136 1071 5112.5 1028.5Q5089 986 5075.5 935.5Q5062 885 5062 829Q5062 795 5069.5 764.5Q5077 734 5091.0 709.5Q5105 685 5125.0 667.5Q5145 650 5169.5 640.5Q5194 631 5222 631Q5275 631 5308.0 653.5Q5341 676 5356.0 713.0Q5371 750 5371 792Q5371 826 5359.5 861.5Q5348 897 5327.0 931.5Q5306 966 5277 998Q5257 1022 5232.0 1044.0Q5207 1066 5180 1085ZM5003 1771H5447V1781H5003ZM5003 1130H5447V1150H5003ZM5003 645H5447V650H5003ZM5003 9H5447V19H5003ZM6422 1162Q6372 1162 6324.5 1151.0Q6277 1140 6243 1120Q6231 1113 6229.0 1103.5Q6227 1094 6235 1082Q6241 1072 6250.0 1069.5Q6259 1067 6268 1073Q6303 1092 6344.0 1101.0Q6385 1110 6430 1110Q6492 1110 6546.0 1086.5Q6600 1063 6641.5 1021.0Q6683 979 6706.0 922.5Q6729 866 6729 800Q6729 724 6694.5 671.0Q6660 618 6594.5 591.0Q6529 564 6434 564Q6414 573 6394.0 578.0Q6374 583 6358 583Q6336 584 6321.5 573.5Q6307 563 6307 545Q6307 532 6314.0 522.0Q6321 512 6335.0 505.5Q6349 499 6368 498Q6386 498 6402.5 501.5Q6419 505 6433 511Q6476 503 6513.0 489.5Q6550 476 6578.5 456.0Q6607 436 6627.0 408.5Q6647 381 6657.5 346.0Q6668 311 6668 268Q6668 205 6642.5 157.0Q6617 109 6566.5 82.0Q6516 55 6438 55Q6383 55 6331.5 75.0Q6280 95 6236.0 135.0Q6192 175 6159.0 234.5Q6126 294 6107.5 373.5Q6089 453 6089 552V1145Q6089 1154 6083.0 1159.0Q6077 1164 6063 1164Q6049 1164 6042.0 1159.0Q6035 1154 6035 1145V164Q6015 219 5986.0 263.5Q5957 308 5917.5 343.5Q5878 379 5822 410Q5812 416 5804.0 413.5Q5796 411 5790 398Q5784 387 5786.5 378.5Q5789 370 5799 365Q5866 329 5912.0 280.0Q5958 231 5987.0 166.5Q6016 102 6032 23Q6034 13 6042.0 9.0Q6050 5 6063 5Q6076 5 6082.5 9.5Q6089 14 6089 24V288Q6114 215 6150.5 161.5Q6187 108 6234.0 73.5Q6281 39 6334.5 21.5Q6388 4 6446 4Q6538 4 6600.0 37.5Q6662 71 6693.5 129.5Q6725 188 6725 264Q6725 321 6709.5 365.0Q6694 409 6665.5 441.5Q6637 474 6596.5 496.0Q6556 518 6506 530V532Q6591 532 6654.0 565.0Q6717 598 6752.0 657.5Q6787 717 6787 798Q6787 876 6759.5 942.0Q6732 1008 6682.0 1057.5Q6632 1107 6565.5 1134.5Q6499 1162 6422 1162ZM5747 1771H6873V1781H5747ZM5747 1130H6873V1150H5747ZM5747 645H6873V650H5747ZM5747 9H6873V19H5747ZM7858 1169Q7821 1169 7789.5 1151.5Q7758 1134 7727.5 1098.5Q7697 1063 7662.5 1011.0Q7628 959 7584 890Q7557 849 7537.0 816.5Q7517 784 7500.5 757.0Q7484 730 7469.5 705.5Q7455 681 7442 657Q7414 659 7391.5 652.0Q7369 645 7355.0 632.0Q7341 619 7341 603Q7341 584 7354.0 573.0Q7367 562 7388 562Q7409 562 7429.5 572.0Q7450 582 7463 599Q7515 590 7560.0 570.5Q7605 551 7641.5 522.5Q7678 494 7704.5 457.5Q7731 421 7745.0 378.0Q7759 335 7759 285Q7759 215 7734.5 163.5Q7710 112 7662.0 83.5Q7614 55 7545 55Q7490 55 7440.0 76.5Q7390 98 7349.0 139.5Q7308 181 7278.0 241.5Q7248 302 7231.5 380.0Q7215 458 7215 552V1145Q7215 1154 7209.0 1159.0Q7203 1164 7189 1164Q7175 1164 7168.0 1159.0Q7161 1154 7161 1145V164Q7141 219 7112.0 263.5Q7083 308 7043.5 343.5Q7004 379 6948 410Q6938 416 6930.5 413.5Q6923 411 6916 398Q6910 387 6912.5 378.5Q6915 370 6925 365Q6992 329 7038.0 280.0Q7084 231 7113.0 166.5Q7142 102 7158 23Q7160 13 7168.0 9.0Q7176 5 7189 5Q7202 5 7208.5 9.5Q7215 14 7215 24V277Q7238 209 7272.0 158.0Q7306 107 7349.0 73.0Q7392 39 7443.0 21.5Q7494 4 7550 4Q7634 4 7693.5 38.0Q7753 72 7785.0 134.0Q7817 196 7817 279Q7817 334 7802.0 383.5Q7787 433 7758.5 474.0Q7730 515 7690.0 547.0Q7650 579 7600.0 602.5Q7550 626 7491 640Q7500 655 7511.0 674.0Q7522 693 7537.5 718.0Q7553 743 7574.0 776.5Q7595 810 7623 854Q7665 922 7696.5 968.5Q7728 1015 7751.5 1044.5Q7775 1074 7793.5 1089.5Q7812 1105 7828.0 1110.5Q7844 1116 7861 1116Q7881 1116 7899.0 1108.0Q7917 1100 7935.5 1084.5Q7954 1069 7973 1046Q7980 1038 7987.0 1037.5Q7994 1037 8004 1044Q8013 1051 8014.5 1058.5Q8016 1066 8010 1074Q7987 1104 7961.5 1125.5Q7936 1147 7910.0 1158.0Q7884 1169 7858 1169ZM6873 1771H8023V1781H6873ZM6873 1130H8023V1150H6873ZM6873 645H8023V650H6873ZM6873 9H8023V19H6873ZM9055 1800Q9006 1800 8970.5 1780.5Q8935 1761 8916.0 1724.0Q8897 1687 8897 1638Q8897 1625 8906.0 1619.0Q8915 1613 8926.0 1612.0Q8937 1611 8946.0 1617.0Q8955 1623 8955 1636Q8955 1690 8982.0 1720.0Q9009 1750 9060 1750Q9130 1750 9167.0 1690.0Q9204 1630 9204 1511V786Q9179 866 9141.5 931.0Q9104 996 9055.0 1042.5Q9006 1089 8949.5 1113.5Q8893 1138 8830 1138Q8741 1138 8667.5 1099.0Q8594 1060 8541.0 987.5Q8488 915 8459.5 814.5Q8431 714 8431 591Q8431 504 8446.0 427.0Q8461 350 8489.5 284.5Q8518 219 8558.5 167.0Q8599 115 8650.5 79.0Q8702 43 8762.5 23.5Q8823 4 8891 4Q8956 4 9013.0 20.5Q9070 37 9120.0 69.5Q9170 102 9212 150Q9221 159 9221.0 166.5Q9221 174 9211 184Q9201 193 9193.0 192.5Q9185 192 9175 182Q9137 140 9092.0 112.5Q9047 85 8997.0 71.0Q8947 57 8890 57Q8831 57 8778.0 74.5Q8725 92 8680.5 124.5Q8636 157 8600.5 204.5Q8565 252 8540.0 311.5Q8515 371 8502.0 441.0Q8489 511 8489 591Q8489 702 8513.5 792.5Q8538 883 8584.0 948.5Q8630 1014 8693.5 1049.0Q8757 1084 8834 1084Q8903 1084 8964.0 1049.0Q9025 1014 9073.5 951.0Q9122 888 9155.5 803.5Q9189 719 9204 620Q9204 609 9210.5 604.5Q9217 600 9231 600Q9258 600 9258 619V1508Q9258 1603 9235.0 1668.5Q9212 1734 9167.0 1767.0Q9122 1800 9055 1800ZM8323 1771H9379V1781H8323ZM8323 1130H9379V1150H8323ZM8323 645H9379V650H8323ZM8323 9H9379V19H8323ZM8898 1638Q8898 1591 8912.5 1544.0Q8927 1497 8954.5 1451.0Q8982 1405 9022.5 1360.5Q9063 1316 9115.5 1273.0Q9168 1230 9232 1189Q9286 1155 9331.0 1127.0Q9376 1099 9412.5 1074.5Q9449 1050 9477.0 1028.0Q9505 1006 9524.5 985.0Q9544 964 9555.0 942.5Q9566 921 9568 897Q9570 886 9579.0 884.5Q9588 883 9596.0 887.5Q9604 892 9602 902Q9598 939 9582.0 970.5Q9566 1002 9537.5 1031.5Q9509 1061 9467.0 1091.5Q9425 1122 9370.5 1157.0Q9316 1192 9247 1236Q9189 1274 9142.5 1313.0Q9096 1352 9061.0 1392.0Q9026 1432 9002.5 1472.5Q8979 1513 8967.0 1553.5Q8955 1594 8955 1636Q8955 1648 8946.5 1654.5Q8938 1661 8926.5 1661.5Q8915 1662 8906.5 1656.0Q8898 1650 8898 1638ZM9379 1771H9429V1781H9379ZM9379 1130H9429V1150H9379ZM9379 645H9429V650H9379ZM9379 9H9429V19H9379ZM9724 1168Q9676 1168 9639.0 1148.5Q9602 1129 9581.5 1088.5Q9561 1048 9561 984V654Q9561 645 9567.0 640.5Q9573 636 9586 636Q9600 636 9606.5 640.5Q9613 645 9613 654V979Q9613 1023 9625.5 1054.5Q9638 1086 9664.0 1103.0Q9690 1120 9731 1120Q9760 1120 9787.0 1111.0Q9814 1102 9837.0 1083.5Q9860 1065 9878.0 1035.0Q9896 1005 9906 964V654Q9906 644 9912.5 639.5Q9919 635 9933 635Q9946 635 9952.0 639.5Q9958 644 9958 654V1013Q9958 1072 9976.5 1095.5Q9995 1119 10042 1119Q10052 1119 10056.5 1126.5Q10061 1134 10060.5 1143.0Q10060 1152 10054.0 1159.5Q10048 1167 10036 1167Q10006 1167 9984.0 1160.5Q9962 1154 9946.5 1141.0Q9931 1128 9922.0 1108.5Q9913 1089 9909 1063L9908 1050Q9893 1084 9871.5 1107.0Q9850 1130 9825.5 1143.0Q9801 1156 9775.0 1162.0Q9749 1168 9724 1168ZM9429 1771H10100V1781H9429ZM9429 1130H10100V1150H9429ZM9429 645H10100V650H9429ZM9429 9H10100V19H9429ZM10035 1167Q10024 1167 10018.5 1159.5Q10013 1152 10013.5 1143.0Q10014 1134 10021.0 1126.5Q10028 1119 10041 1119Q10078 1119 10109.0 1107.0Q10140 1095 10164.0 1075.0Q10188 1055 10206.0 1030.0Q10224 1005 10234 978Q10238 967 10247.0 967.5Q10256 968 10262.0 975.5Q10268 983 10265 993Q10254 1026 10234.0 1057.0Q10214 1088 10185.5 1113.0Q10157 1138 10119.0 1152.5Q10081 1167 10035 1167ZM10100 1771V1781ZM10100 1130V1150ZM10100 645V650ZM10100 9V19ZM10362 1167Q10324 1167 10298.5 1156.5Q10273 1146 10258.5 1126.0Q10244 1106 10238.0 1077.5Q10232 1049 10232 1013V654Q10232 644 10238.0 639.5Q10244 635 10257 635Q10271 635 10277.5 639.5Q10284 644 10284 654V1013Q10284 1068 10300.5 1093.5Q10317 1119 10368 1119Q10377 1119 10381.5 1126.5Q10386 1134 10385.5 1143.0Q10385 1152 10379.5 1159.5Q10374 1167 10362 1167ZM10258 467Q10236 467 10225.0 454.5Q10214 442 10214 418Q10214 393 10225.0 380.5Q10236 368 10258 368Q10279 368 10290.0 380.5Q10301 393 10301 418Q10302 443 10290.5 455.0Q10279 467 10258 467ZM10100 1771H10425V1781H10100ZM10100 1130H10425V1150H10100ZM10100 645H10425V650H10100ZM10100 9H10425V19H10100ZM10360 1167Q10349 1167 10343.5 1159.5Q10338 1152 10338.5 1143.0Q10339 1134 10346.0 1126.5Q10353 1119 10366 1119Q10399 1119 10425.5 1107.0Q10452 1095 10471.0 1074.0Q10490 1053 10500.5 1025.0Q10511 997 10512 964Q10513 952 10522.0 948.5Q10531 945 10539.5 948.5Q10548 952 10547 964Q10546 1008 10531.5 1045.5Q10517 1083 10492.5 1110.0Q10468 1137 10434.0 1152.0Q10400 1167 10360 1167ZM10425 1771V1781ZM10425 1130V1150ZM10425 645V650ZM10425 9V19ZM10702 1167Q10647 1167 10603.0 1138.0Q10559 1109 10534.0 1052.0Q10509 995 10509 912Q10509 862 10518.5 819.0Q10528 776 10547.0 741.5Q10566 707 10594.0 682.5Q10622 658 10658.5 644.5Q10695 631 10740 631Q10773 631 10806.0 641.0Q10839 651 10872 670V23Q10872 13 10878.5 8.5Q10885 4 10899 4Q10912 4 10918.0 8.5Q10924 13 10924 23V1021Q10924 1077 10941.5 1098.0Q10959 1119 11010 1119Q11019 1119 11023.0 1126.5Q11027 1134 11026.5 1143.0Q11026 1152 11020.5 1159.5Q11015 1167 11004 1167Q10972 1167 10948.0 1160.0Q10924 1153 10908.5 1139.0Q10893 1125 10884.5 1104.5Q10876 1084 10874 1058V1054Q10852 1100 10822.0 1125.0Q10792 1150 10761.0 1158.5Q10730 1167 10702 1167ZM10712 1117Q10744 1117 10774.0 1103.0Q10804 1089 10829.5 1057.0Q10855 1025 10872 969V722Q10837 698 10804.5 689.0Q10772 680 10740 680Q10708 680 10680.5 689.5Q10653 699 10631.5 718.0Q10610 737 10595.5 764.5Q10581 792 10573.0 828.0Q10565 864 10565 908Q10565 970 10581.5 1017.0Q10598 1064 10630.5 1090.5Q10663 1117 10712 1117ZM10425 1771H11066V1781H10425ZM10425 1130H11066V1150H10425ZM10425 645H11066V650H10425ZM10425 9H11066V19H10425ZM11004 1167Q10991 1167 10985.5 1159.5Q10980 1152 10981.5 1143.0Q10983 1134 10990.5 1126.5Q10998 1119 11010 1119Q11066 1119 11120.0 1098.0Q11174 1077 11218 1045Q11226 1040 11232.5 1043.0Q11239 1046 11243.5 1053.5Q11248 1061 11248.0 1069.5Q11248 1078 11241 1083Q11207 1107 11167.0 1126.0Q11127 1145 11085.5 1156.0Q11044 1167 11004 1167ZM11066 1771V1781ZM11066 1130V1150ZM11066 645V650ZM11066 9V19ZM11221 1044Q11244 1028 11264.5 1009.5Q11285 991 11302 970Q11326 943 11343.0 913.5Q11360 884 11369.5 854.5Q11379 825 11379 795Q11379 736 11353.0 708.0Q11327 680 11281 680Q11271 680 11265.5 672.5Q11260 665 11261.0 655.5Q11262 646 11268.0 638.5Q11274 631 11285 631Q11338 631 11371.0 653.5Q11404 676 11419.0 713.0Q11434 750 11434 792Q11434 826 11422.5 861.5Q11411 897 11390.0 931.5Q11369 966 11340 998Q11321 1021 11297.5 1042.0Q11274 1063 11249 1081ZM11066 1771H11510V1781H11066ZM11066 1130H11510V1150H11066ZM11066 645H11510V650H11066ZM11066 9H11510V19H11066ZM11397 1167Q11354 1167 11313.5 1150.0Q11273 1133 11239.0 1102.0Q11205 1071 11179.5 1028.5Q11154 986 11139.0 935.5Q11124 885 11124 829Q11124 795 11132.0 764.5Q11140 734 11154.0 709.5Q11168 685 11188.0 667.5Q11208 650 11232.5 640.5Q11257 631 11285 631Q11294 631 11298.5 638.5Q11303 646 11302.0 655.5Q11301 665 11295.5 672.5Q11290 680 11281 680Q11259 680 11240.5 691.0Q11222 702 11208.5 721.5Q11195 741 11187.5 768.5Q11180 796 11180 828Q11180 894 11199.5 947.5Q11219 1001 11252.0 1039.0Q11285 1077 11324.0 1097.5Q11363 1118 11401 1118Q11453 1118 11497.5 1091.0Q11542 1064 11579.5 1009.0Q11617 954 11647.0 870.5Q11677 787 11701 675Q11703 666 11713.0 665.0Q11723 664 11732.0 670.0Q11741 676 11738 691Q11716 809 11683.5 898.5Q11651 988 11607.5 1047.5Q11564 1107 11511.5 1137.0Q11459 1167 11397 1167ZM11510 1771V1781ZM11510 1130V1150ZM11510 645V650ZM11510 9V19ZM11808 1169Q11766 1169 11728.0 1157.0Q11690 1145 11661 1123Q11655 1117 11654.5 1108.5Q11654 1100 11662 1091Q11669 1082 11676.5 1080.5Q11684 1079 11693 1085Q11721 1105 11748.5 1114.0Q11776 1123 11813 1123Q11864 1123 11893.5 1091.5Q11923 1060 11923 1006Q11923 964 11906.0 934.5Q11889 905 11862.0 883.5Q11835 862 11805.0 842.5Q11775 823 11748.0 799.5Q11721 776 11704.0 744.0Q11687 712 11687 665Q11687 639 11697.5 615.5Q11708 592 11732 592Q11745 592 11752.0 599.5Q11759 607 11759 620Q11759 631 11753.5 650.5Q11748 670 11738 694Q11739 723 11757.0 745.5Q11775 768 11802.0 786.5Q11829 805 11859.0 825.0Q11889 845 11916.0 869.5Q11943 894 11960.0 927.0Q11977 960 11977 1006Q11977 1079 11931.0 1124.0Q11885 1169 11808 1169ZM11510 1771H12060V1781H11510ZM11510 1130H12060V1150H11510ZM11510 645H12060V650H11510ZM11510 9H12060V19H11510Z" /></svg>