<svg viewBox="0 0 10003 1650" xmlns="http://www.w3.org/2000/svg"><path d="M104 1289Q75 1289 80 1269L295 419Q297 409 304.0 404.5Q311 400 327 400H498Q585 400 643.0 419.5Q701 439 730.5 481.0Q760 523 760 591Q760 662 733.0 716.0Q706 770 657.0 808.0Q608 846 541.0 869.5Q474 893 394 903Q352 908 308.5 910.5Q265 913 225 915L135 1270Q132 1280 125.5 1284.5Q119 1289 104 1289ZM237 865Q264 864 291.5 862.5Q319 861 347.0 858.5Q375 856 401 853Q493 840 560.5 808.5Q628 777 665.5 723.5Q703 670 703 594Q703 541 680.0 509.5Q657 478 610.5 464.0Q564 450 494 450H341ZM0 1640H699V1650H0ZM0 1255H699V1275H0ZM0 770H699V775H0ZM0 390H699V400H0ZM839 1292Q813 1292 796.5 1283.0Q780 1274 772.5 1257.5Q765 1241 765.0 1217.0Q765 1193 772 1163L965 405Q969 394 975.0 389.5Q981 385 995 385Q1011 385 1017.0 391.0Q1023 397 1020 408L827 1161Q815 1205 819.5 1224.5Q824 1244 851 1244Q861 1244 866.0 1251.5Q871 1259 869.5 1268.0Q868 1277 860.5 1284.5Q853 1292 839 1292ZM699 1640H1001V1650H699ZM699 1255H1001V1275H699ZM699 770H1001V775H699ZM699 390H1001V400H699ZM839 1292Q828 1292 823.0 1284.5Q818 1277 819.0 1268.0Q820 1259 828.5 1251.5Q837 1244 851 1244Q877 1244 907.5 1223.5Q938 1203 971.0 1166.5Q1004 1130 1037.0 1080.0Q1070 1030 1101 969Q1106 960 1114.5 960.5Q1123 961 1129.0 967.5Q1135 974 1131 983Q1099 1050 1064.0 1106.5Q1029 1163 991.5 1204.5Q954 1246 916.0 1269.0Q878 1292 839 1292ZM1001 1640V1650ZM1001 1255V1275ZM1001 770V775ZM1001 390V400ZM1187 1292Q1150 1292 1122.5 1271.5Q1095 1251 1080.0 1213.5Q1065 1176 1065 1124Q1065 1078 1078.0 1027.0Q1091 976 1116.5 928.0Q1142 880 1179.5 841.0Q1217 802 1266.0 779.0Q1315 756 1374 756Q1411 756 1449.5 768.0Q1488 780 1522 803L1511 849Q1468 822 1433.0 813.5Q1398 805 1368 805Q1322 805 1283.5 824.5Q1245 844 1215.0 876.5Q1185 909 1164.0 950.0Q1143 991 1132.0 1034.5Q1121 1078 1121 1119Q1121 1154 1129.5 1182.0Q1138 1210 1155.5 1226.0Q1173 1242 1199 1242Q1240 1242 1288.5 1200.5Q1337 1159 1388.0 1075.0Q1439 991 1488 866L1506 910Q1454 1042 1400.0 1126.5Q1346 1211 1292.5 1251.5Q1239 1292 1187 1292ZM1474 1292Q1449 1292 1433.5 1283.0Q1418 1274 1410.0 1257.5Q1402 1241 1402.5 1217.0Q1403 1193 1411 1164L1507 780Q1510 769 1517.0 764.5Q1524 760 1537 760Q1554 760 1559.0 766.5Q1564 773 1561 785L1465 1162Q1453 1206 1457.5 1225.0Q1462 1244 1486 1244Q1496 1244 1500.5 1251.5Q1505 1259 1503.5 1268.0Q1502 1277 1495.0 1284.5Q1488 1292 1474 1292ZM1001 1640H1636V1650H1001ZM1001 1255H1636V1275H1001ZM1001 770H1636V775H1001ZM1001 390H1636V400H1001ZM1474 1292Q1463 1292 1458.0 1284.5Q1453 1277 1454.0 1268.0Q1455 1259 1463.5 1251.5Q1472 1244 1486 1244Q1514 1244 1545.5 1220.0Q1577 1196 1617.5 1144.0Q1658 1092 1710.0 1007.0Q1762 922 1831 799Q1836 789 1845.0 789.5Q1854 790 1860.0 797.0Q1866 804 1861 814Q1788 950 1733.5 1042.0Q1679 1134 1636.0 1189.0Q1593 1244 1554.5 1268.0Q1516 1292 1474 1292ZM1636 1640V1650ZM1636 1255V1275ZM1636 770V775ZM1636 390V400ZM1831 1290Q1795 1290 1769.5 1272.5Q1744 1255 1736.5 1216.5Q1729 1178 1745 1115L1830 780Q1834 769 1840.0 764.5Q1846 760 1860 760Q1876 760 1882.0 766.0Q1888 772 1885 783L1799 1116Q1789 1157 1789.5 1185.0Q1790 1213 1803.0 1227.0Q1816 1241 1843 1241Q1874 1241 1913.0 1218.0Q1952 1195 1995.0 1145.5Q2038 1096 2081.0 1016.5Q2124 937 2164 822L2173 780Q2177 769 2183.5 764.5Q2190 760 2203 760Q2220 760 2225.0 767.0Q2230 774 2227 785L2060 1445Q2041 1522 2015.0 1572.0Q1989 1622 1950.5 1645.5Q1912 1669 1852 1669Q1814 1669 1780.5 1658.5Q1747 1648 1718.5 1629.0Q1690 1610 1665 1585Q1657 1576 1655.5 1567.0Q1654 1558 1666 1548Q1677 1538 1684.0 1538.0Q1691 1538 1699 1546Q1734 1580 1771.5 1600.0Q1809 1620 1856 1620Q1899 1620 1926.5 1601.0Q1954 1582 1972.5 1542.5Q1991 1503 2006 1442L2110 1029Q2076 1101 2038.5 1151.0Q2001 1201 1964.5 1231.5Q1928 1262 1893.5 1276.0Q1859 1290 1831 1290ZM1636 1640H2289V1650H1636ZM1636 1255H2289V1275H1636ZM1636 770H2289V775H1636ZM1636 390H2289V400H1636ZM2496 1294Q2463 1294 2440.5 1281.0Q2418 1268 2406.0 1243.5Q2394 1219 2393.5 1185.0Q2393 1151 2403 1111L2486 780Q2489 770 2495.0 765.0Q2501 760 2515 760Q2532 760 2537.0 765.5Q2542 771 2539 783L2455 1120Q2446 1154 2447.5 1183.0Q2449 1212 2463.0 1228.5Q2477 1245 2505 1245Q2542 1245 2576.5 1219.5Q2611 1194 2641.5 1153.0Q2672 1112 2696.5 1063.0Q2721 1014 2735 966L2784 781Q2786 771 2792.5 766.0Q2799 761 2812 761Q2828 761 2833.5 767.0Q2839 773 2837 784L2760 1088Q2753 1122 2750.5 1150.5Q2748 1179 2753.0 1200.5Q2758 1222 2773.0 1233.5Q2788 1245 2813 1245Q2852 1245 2888.5 1220.0Q2925 1195 2957.0 1153.5Q2989 1112 3013.0 1062.5Q3037 1013 3048 965Q3056 929 3057.0 901.5Q3058 874 3055 852Q3034 841 3025.0 826.0Q3016 811 3016 796Q3016 779 3026.0 767.5Q3036 756 3054 756Q3076 756 3087.0 776.5Q3098 797 3100 829Q3105 845 3106.5 867.0Q3108 889 3106.0 914.0Q3104 939 3099 965Q3087 1023 3059.5 1081.0Q3032 1139 2992.5 1187.0Q2953 1235 2905.0 1264.5Q2857 1294 2803 1294Q2764 1294 2738.5 1277.0Q2713 1260 2702.0 1225.0Q2691 1190 2697 1136Q2671 1183 2639.0 1218.5Q2607 1254 2571.5 1274.0Q2536 1294 2496 1294ZM2289 1640H3177V1650H2289ZM2289 1255H3177V1275H2289ZM2289 770H3177V775H2289ZM2289 390H3177V400H2289ZM3181 867Q3139 867 3110.5 858.0Q3082 849 3056 832Q3048 826 3047.5 818.5Q3047 811 3052.0 804.5Q3057 798 3063.5 795.5Q3070 793 3076 798Q3094 811 3119.0 818.0Q3144 825 3185 825Q3222 825 3260.0 818.0Q3298 811 3330.0 798.5Q3362 786 3379 770Q3386 763 3393.0 768.0Q3400 773 3401.5 783.0Q3403 793 3392 803Q3354 833 3296.0 850.0Q3238 867 3181 867ZM3176 1640V1650ZM3176 1255V1275ZM3176 770V775ZM3176 390V400ZM3269 1290Q3256 1290 3250.0 1285.5Q3244 1281 3247 1270L3370 780Q3373 769 3379.5 764.5Q3386 760 3399 760Q3415 760 3421.0 766.0Q3427 772 3423 783L3364 1016Q3399 938 3430.5 887.5Q3462 837 3491.0 808.0Q3520 779 3546.0 767.5Q3572 756 3596 756Q3608 756 3612.5 763.5Q3617 771 3615.0 781.0Q3613 791 3606.0 798.0Q3599 805 3587 805Q3562 805 3530.0 831.5Q3498 858 3462.0 910.5Q3426 963 3388.0 1040.5Q3350 1118 3313 1220L3300 1271Q3297 1281 3289.5 1285.5Q3282 1290 3269 1290ZM3177 1640H3581V1650H3177ZM3177 1255H3581V1275H3177ZM3177 770H3581V775H3177ZM3177 390H3581V400H3177ZM3721 828Q3697 828 3675.0 822.0Q3653 816 3632.0 810.5Q3611 805 3588 805Q3578 805 3573.5 798.0Q3569 791 3569.5 781.0Q3570 771 3577.0 763.5Q3584 756 3596 756Q3622 756 3643.5 763.0Q3665 770 3686.0 777.0Q3707 784 3728 784Q3741 784 3754.0 780.5Q3767 777 3782 771Q3790 767 3796.5 773.0Q3803 779 3804.0 787.5Q3805 796 3795 803Q3774 817 3755.0 822.5Q3736 828 3721 828ZM3581 1640V1650ZM3581 1255V1275ZM3581 770V775ZM3581 390V400ZM3745 1292Q3719 1292 3702.5 1283.0Q3686 1274 3678.0 1257.5Q3670 1241 3670.5 1217.0Q3671 1193 3678 1163L3774 780Q3777 769 3783.5 764.5Q3790 760 3803 760Q3819 760 3825.0 766.0Q3831 772 3828 783L3733 1161Q3721 1205 3725.5 1224.5Q3730 1244 3756 1244Q3767 1244 3771.5 1251.5Q3776 1259 3774.5 1268.0Q3773 1277 3765.5 1284.5Q3758 1292 3745 1292ZM3849 592Q3831 592 3819.5 582.0Q3808 572 3808 553Q3808 529 3822.0 511.0Q3836 493 3863 493Q3881 493 3892.5 503.0Q3904 513 3904 533Q3904 556 3890.0 574.0Q3876 592 3849 592ZM3581 1640H3906V1650H3581ZM3581 1255H3906V1275H3581ZM3581 770H3906V775H3581ZM3581 390H3906V400H3581ZM3744 1292Q3733 1292 3728.0 1284.5Q3723 1277 3724.0 1268.0Q3725 1259 3733.5 1251.5Q3742 1244 3756 1244Q3786 1244 3821.0 1223.0Q3856 1202 3897.0 1156.0Q3938 1110 3987.0 1034.0Q4036 958 4094 847Q4099 837 4108.5 837.5Q4118 838 4123.5 845.5Q4129 853 4123 863Q4063 984 4012.5 1066.0Q3962 1148 3917.0 1197.5Q3872 1247 3829.5 1269.5Q3787 1292 3744 1292ZM3906 1640V1650ZM3906 1255V1275ZM3906 770V775ZM3906 390V400ZM4133 1292Q4093 1292 4067.5 1274.0Q4042 1256 4029.5 1224.0Q4017 1192 4017.5 1148.5Q4018 1105 4031 1054L4091 823H4004Q3993 823 3990.0 817.0Q3987 811 3990 798Q3993 786 3999.0 780.5Q4005 775 4015 775H4104L4157 565Q4160 554 4166.5 549.5Q4173 545 4187 545Q4203 545 4209.0 550.5Q4215 556 4212 568L4158 775H4287Q4297 775 4300.0 781.0Q4303 787 4300 799Q4298 812 4292.0 817.5Q4286 823 4276 823H4146L4085 1054Q4072 1103 4071.0 1139.0Q4070 1175 4079.0 1198.0Q4088 1221 4104.5 1232.5Q4121 1244 4142 1244Q4152 1244 4157.0 1251.5Q4162 1259 4161.0 1268.0Q4160 1277 4153.5 1284.5Q4147 1292 4133 1292ZM3906 1640H4294V1650H3906ZM3906 1255H4294V1275H3906ZM3906 770H4294V775H3906ZM3906 390H4294V400H3906ZM4131 1292Q4120 1292 4115.0 1284.5Q4110 1277 4111.0 1268.0Q4112 1259 4120.5 1251.5Q4129 1244 4143 1244Q4160 1244 4187.5 1233.5Q4215 1223 4260.0 1198.0Q4305 1173 4373 1128Q4381 1123 4388.0 1126.0Q4395 1129 4399.0 1136.5Q4403 1144 4401.5 1153.5Q4400 1163 4390 1169Q4319 1217 4270.0 1244.0Q4221 1271 4188.0 1281.5Q4155 1292 4131 1292ZM4293 1640V1650ZM4293 1255V1275ZM4293 770V775ZM4293 390V400ZM4528 1292Q4470 1292 4431.5 1263.0Q4393 1234 4373.5 1185.0Q4354 1136 4354 1076Q4354 1025 4372.0 968.5Q4390 912 4424.0 864.0Q4458 816 4506.0 786.0Q4554 756 4614 756Q4653 756 4676.5 769.5Q4700 783 4711.0 804.5Q4722 826 4722 852Q4722 886 4702.5 921.5Q4683 957 4644.5 994.0Q4606 1031 4547.5 1073.0Q4489 1115 4410 1165L4389 1123Q4455 1082 4506.0 1044.5Q4557 1007 4592.5 974.0Q4628 941 4646.5 911.5Q4665 882 4665 857Q4665 831 4650.0 818.0Q4635 805 4607 805Q4563 805 4526.5 830.5Q4490 856 4464.0 896.5Q4438 937 4424.0 983.5Q4410 1030 4410 1072Q4410 1126 4425.5 1164.0Q4441 1202 4469.5 1222.0Q4498 1242 4536 1242Q4575 1242 4609.5 1224.0Q4644 1206 4672.5 1180.5Q4701 1155 4720 1134Q4728 1124 4736.5 1125.0Q4745 1126 4752 1133Q4759 1139 4761.0 1147.0Q4763 1155 4756 1164Q4731 1197 4695.0 1226.0Q4659 1255 4617.0 1273.5Q4575 1292 4528 1292ZM4294 1640H4820V1650H4294ZM4294 1255H4820V1275H4294ZM4294 770H4820V775H4294ZM4294 390H4820V400H4294ZM5224 1289Q5210 1289 5203.5 1284.0Q5197 1279 5200 1269L5417 404Q5420 394 5427.0 389.5Q5434 385 5448 385Q5463 385 5469.0 389.5Q5475 394 5472 405L5256 1270Q5253 1279 5246.0 1284.0Q5239 1289 5224 1289ZM5120 1640H5458V1650H5120ZM5120 1255H5458V1275H5120ZM5120 770H5458V775H5120ZM5120 390H5458V400H5120ZM5775 1294Q5725 1294 5683.5 1282.5Q5642 1271 5608.5 1252.0Q5575 1233 5550.5 1210.0Q5526 1187 5510 1166Q5504 1157 5506.0 1150.0Q5508 1143 5517 1135Q5528 1126 5535.0 1127.0Q5542 1128 5549 1136Q5570 1162 5603.0 1186.0Q5636 1210 5679.0 1225.0Q5722 1240 5775 1240Q5827 1240 5871.0 1226.5Q5915 1213 5947.0 1186.5Q5979 1160 5997.0 1123.0Q6015 1086 6015 1039Q6015 1003 6003.0 975.5Q5991 948 5968.0 926.5Q5945 905 5913.0 886.0Q5881 867 5842 846Q5812 831 5784.0 814.5Q5756 798 5732.0 778.5Q5708 759 5690.0 735.0Q5672 711 5662.0 680.5Q5652 650 5652 610Q5652 559 5671.5 517.5Q5691 476 5726.5 446.5Q5762 417 5810.0 401.0Q5858 385 5915 385Q5968 385 6010.5 399.0Q6053 413 6087.0 437.0Q6121 461 6147 491Q6155 500 6153.5 507.5Q6152 515 6143 523Q6135 530 6127.0 530.0Q6119 530 6110 523Q6086 499 6058.5 480.0Q6031 461 5996.0 449.5Q5961 438 5913 438Q5869 438 5831.5 450.0Q5794 462 5767.0 484.0Q5740 506 5724.5 538.0Q5709 570 5709 610Q5709 646 5720.0 673.0Q5731 700 5752.0 720.5Q5773 741 5803.0 760.0Q5833 779 5871 799Q5910 820 5946.0 841.5Q5982 863 6011.0 890.0Q6040 917 6056.5 953.0Q6073 989 6073 1037Q6073 1094 6050.5 1141.0Q6028 1188 5987.5 1222.0Q5947 1256 5892.5 1275.0Q5838 1294 5775 1294ZM5458 1640H6146V1650H5458ZM5458 1255H6146V1275H5458ZM5458 770H6146V775H5458ZM5458 390H6146V400H5458ZM6851 1294Q6786 1294 6733.5 1270.5Q6681 1247 6643.0 1202.5Q6605 1158 6585.0 1096.0Q6565 1034 6565 957Q6565 891 6580.0 824.0Q6595 757 6623.0 692.5Q6651 628 6692.5 572.5Q6734 517 6788.0 475.0Q6842 433 6907.5 409.0Q6973 385 7049 385Q7098 385 7140.0 396.0Q7182 407 7216.0 429.5Q7250 452 7274 487Q7281 496 7277.5 503.5Q7274 511 7263 518Q7253 524 7246.0 523.0Q7239 522 7229 511Q7206 487 7178.5 470.5Q7151 454 7117.5 446.0Q7084 438 7043 438Q6979 438 6923.5 459.0Q6868 480 6821.0 518.0Q6774 556 6737.5 605.5Q6701 655 6675.5 712.5Q6650 770 6637.0 831.0Q6624 892 6624 953Q6624 1021 6640.0 1074.0Q6656 1127 6686.0 1164.0Q6716 1201 6758.5 1220.5Q6801 1240 6855 1240Q6900 1240 6942.5 1226.0Q6985 1212 7023.5 1182.5Q7062 1153 7095.5 1108.5Q7129 1064 7157.5 1003.5Q7186 943 7207 867H6966Q6955 867 6953.0 860.0Q6951 853 6954 842Q6957 828 6962.5 822.5Q6968 817 6979 817H7255Q7267 817 7270.5 822.0Q7274 827 7271 840Q7242 959 7198.0 1045.0Q7154 1131 7098.5 1186.0Q7043 1241 6980.5 1267.5Q6918 1294 6851 1294ZM6446 1640H7322V1650H6446ZM6446 1255H7322V1275H6446ZM6446 770H7322V775H6446ZM6446 390H7322V400H6446ZM7492 1290Q7456 1290 7430.5 1272.5Q7405 1255 7397.0 1216.5Q7389 1178 7406 1115L7491 780Q7495 769 7501.0 764.5Q7507 760 7521 760Q7536 760 7542.5 766.0Q7549 772 7546 783L7460 1116Q7449 1157 7449.5 1185.0Q7450 1213 7463.5 1227.0Q7477 1241 7504 1241Q7535 1241 7574.5 1218.0Q7614 1195 7656.5 1146.0Q7699 1097 7742.0 1017.5Q7785 938 7825 823L7835 778Q7838 766 7844.5 762.0Q7851 758 7864 758Q7880 758 7886.5 763.0Q7893 768 7890 780L7793 1162Q7782 1205 7786.0 1224.5Q7790 1244 7817 1244Q7827 1244 7831.5 1251.5Q7836 1259 7834.5 1268.0Q7833 1277 7826.0 1284.5Q7819 1292 7805 1292Q7779 1292 7763.0 1283.0Q7747 1274 7739.0 1257.5Q7731 1241 7731.0 1217.0Q7731 1193 7738 1164L7770 1033Q7736 1104 7699.0 1153.5Q7662 1203 7625.5 1233.0Q7589 1263 7555.0 1276.5Q7521 1290 7492 1290ZM7322 1640H7968V1650H7322ZM7322 1255H7968V1275H7322ZM7322 770H7968V775H7322ZM7322 390H7968V400H7322ZM7806 1292Q7795 1292 7790.0 1284.5Q7785 1277 7786.0 1268.0Q7787 1259 7795.5 1251.5Q7804 1244 7818 1244Q7846 1244 7877.5 1220.0Q7909 1196 7949.5 1144.0Q7990 1092 8042.0 1007.0Q8094 922 8163 799Q8168 789 8177.0 789.5Q8186 790 8192.0 797.0Q8198 804 8193 814Q8120 950 8065.5 1042.0Q8011 1134 7968.0 1189.0Q7925 1244 7886.5 1268.0Q7848 1292 7806 1292ZM7968 1640V1650ZM7968 1255V1275ZM7968 770V775ZM7968 390V400ZM8132 1292Q8106 1292 8089.5 1283.0Q8073 1274 8065.0 1257.5Q8057 1241 8057.5 1217.0Q8058 1193 8065 1163L8161 780Q8164 769 8170.5 764.5Q8177 760 8190 760Q8206 760 8212.0 766.0Q8218 772 8215 783L8120 1161Q8108 1205 8112.5 1224.5Q8117 1244 8143 1244Q8154 1244 8158.5 1251.5Q8163 1259 8161.5 1268.0Q8160 1277 8152.5 1284.5Q8145 1292 8132 1292ZM8236 592Q8218 592 8206.5 582.0Q8195 572 8195 553Q8195 529 8209.0 511.0Q8223 493 8250 493Q8268 493 8279.5 503.0Q8291 513 8291 533Q8291 556 8277.0 574.0Q8263 592 8236 592ZM7968 1640H8293V1650H7968ZM7968 1255H8293V1275H7968ZM7968 770H8293V775H7968ZM7968 390H8293V400H7968ZM8131 1292Q8120 1292 8115.0 1284.5Q8110 1277 8111.0 1268.0Q8112 1259 8120.5 1251.5Q8129 1244 8143 1244Q8169 1244 8199.5 1223.5Q8230 1203 8263.0 1166.5Q8296 1130 8329.0 1080.0Q8362 1030 8393 969Q8398 960 8406.5 960.5Q8415 961 8421.0 967.5Q8427 974 8423 983Q8391 1050 8356.0 1106.5Q8321 1163 8283.5 1204.5Q8246 1246 8208.0 1269.0Q8170 1292 8131 1292ZM8293 1640V1650ZM8293 1255V1275ZM8293 770V775ZM8293 390V400ZM8475 1292Q8438 1292 8410.5 1271.5Q8383 1251 8367.5 1213.5Q8352 1176 8352 1124Q8352 1076 8365.5 1025.0Q8379 974 8405.0 926.0Q8431 878 8468.5 839.5Q8506 801 8554.5 778.5Q8603 756 8662 756Q8694 756 8728.5 765.5Q8763 775 8793 793L8892 405Q8895 394 8901.5 389.5Q8908 385 8922 385Q8938 385 8943.5 391.5Q8949 398 8946 410L8755 1161Q8744 1205 8748.5 1224.5Q8753 1244 8784 1244Q8792 1244 8795.5 1251.5Q8799 1259 8798.0 1268.0Q8797 1277 8790.5 1284.5Q8784 1292 8772 1292Q8745 1292 8727.5 1283.0Q8710 1274 8701.5 1257.5Q8693 1241 8693.0 1217.0Q8693 1193 8701 1164L8725 1061Q8683 1142 8641.0 1192.5Q8599 1243 8557.5 1267.5Q8516 1292 8475 1292ZM8487 1242Q8528 1242 8574.5 1203.0Q8621 1164 8671.5 1085.0Q8722 1006 8769 886L8782 840Q8744 818 8713.5 811.5Q8683 805 8656 805Q8610 805 8571.5 824.5Q8533 844 8503.0 876.5Q8473 909 8451.5 950.0Q8430 991 8419.0 1034.5Q8408 1078 8408 1119Q8408 1154 8416.5 1182.0Q8425 1210 8443.0 1226.0Q8461 1242 8487 1242ZM8293 1640H8934V1650H8293ZM8293 1255H8934V1275H8293ZM8293 770H8934V775H8293ZM8293 390H8934V400H8293ZM8772 1292Q8761 1292 8756.0 1284.5Q8751 1277 8752.0 1268.0Q8753 1259 8761.5 1251.5Q8770 1244 8784 1244Q8801 1244 8828.5 1233.5Q8856 1223 8901.0 1198.0Q8946 1173 9014 1128Q9022 1123 9029.0 1126.0Q9036 1129 9040.0 1136.5Q9044 1144 9042.5 1153.5Q9041 1163 9031 1169Q8960 1217 8911.0 1244.0Q8862 1271 8829.0 1281.5Q8796 1292 8772 1292ZM8934 1640V1650ZM8934 1255V1275ZM8934 770V775ZM8934 390V400ZM9029 1123Q9095 1082 9146.0 1044.5Q9197 1007 9232.5 974.0Q9268 941 9286.5 911.5Q9305 882 9305 857Q9305 831 9290.0 818.0Q9275 805 9247 805Q9203 805 9166.5 830.5Q9130 856 9104.0 896.5Q9078 937 9064.0 983.5Q9050 1030 9050 1072Q9050 1113 9059.0 1144.5Q9068 1176 9085.5 1198.0Q9103 1220 9127.0 1231.5Q9151 1243 9181 1243Q9190 1243 9194.0 1250.5Q9198 1258 9196.5 1267.5Q9195 1277 9189.0 1284.5Q9183 1292 9174 1292Q9114 1292 9074.0 1263.0Q9034 1234 9014.0 1185.0Q8994 1136 8994 1076Q8994 1025 9012.0 968.5Q9030 912 9064.0 864.0Q9098 816 9146.0 786.0Q9194 756 9254 756Q9293 756 9316.5 769.5Q9340 783 9351.0 804.5Q9362 826 9362 852Q9362 886 9342.5 921.5Q9323 957 9284.5 994.0Q9246 1031 9187.5 1073.0Q9129 1115 9050 1165ZM8934 1640H9422V1650H8934ZM8934 1255H9422V1275H8934ZM8934 770H9422V775H8934ZM8934 390H9422V400H8934ZM9173 1292Q9164 1292 9160.0 1284.5Q9156 1277 9157.0 1267.5Q9158 1258 9164.0 1250.5Q9170 1243 9180 1243Q9233 1243 9286.0 1212.0Q9339 1181 9391.5 1126.0Q9444 1071 9497.0 997.0Q9550 923 9602 838Q9608 830 9618.0 830.5Q9628 831 9635.5 837.0Q9643 843 9639 851Q9585 944 9529.5 1024.0Q9474 1104 9415.5 1164.0Q9357 1224 9296.5 1258.0Q9236 1292 9173 1292ZM9421 1640H9471V1650H9421ZM9421 1255H9471V1275H9421ZM9421 770H9471V775H9421ZM9421 390H9471V400H9421ZM9672 1294Q9628 1294 9597.0 1285.5Q9566 1277 9544.5 1264.0Q9523 1251 9507 1238Q9499 1231 9499.0 1223.0Q9499 1215 9507 1206Q9514 1198 9521.5 1197.0Q9529 1196 9538 1204Q9567 1226 9601.0 1237.0Q9635 1248 9674 1248Q9710 1248 9739.0 1236.5Q9768 1225 9785.0 1202.0Q9802 1179 9802 1146Q9802 1118 9786.5 1098.5Q9771 1079 9746.5 1064.5Q9722 1050 9695.0 1035.5Q9668 1021 9643.5 1004.0Q9619 987 9603.5 962.0Q9588 937 9588 901Q9588 857 9610.0 825.0Q9632 793 9670.5 774.5Q9709 756 9759 756Q9800 756 9831.0 769.0Q9862 782 9883.5 800.5Q9905 819 9916 836Q9922 845 9921.0 850.5Q9920 856 9909 864Q9901 870 9894.0 869.5Q9887 869 9880 862Q9854 832 9825.5 817.0Q9797 802 9755 802Q9705 802 9673.5 826.5Q9642 851 9642 895Q9642 923 9657.5 942.5Q9673 962 9697.5 977.0Q9722 992 9749.5 1006.5Q9777 1021 9801.5 1038.5Q9826 1056 9841.5 1080.0Q9857 1104 9857 1140Q9857 1189 9832.5 1223.5Q9808 1258 9766.0 1276.0Q9724 1294 9672 1294ZM9472 1640H10003V1650H9472ZM9472 1255H10003V1275H9472ZM9472 770H10003V775H9472ZM9472 390H10003V400H9472Z" fill="currentColor" /></svg>