<svg viewBox="0 0 6147 1650" xmlns="http://www.w3.org/2000/svg"><path d="M107 1289Q60 1289 67 1259L276 427Q280 413 292.0 406.5Q304 400 326 400H488Q583 400 646.0 422.0Q709 444 741.0 488.5Q773 533 773 601Q773 677 743.5 733.0Q714 789 661.5 826.5Q609 864 539.0 887.0Q469 910 388 921Q351 925 311.0 927.5Q271 930 238 930L155 1261Q151 1275 140.5 1282.0Q130 1289 107 1289ZM257 850Q280 850 306.0 849.0Q332 848 358.5 845.5Q385 843 409 840Q494 826 555.0 798.0Q616 770 649.5 723.5Q683 677 683 610Q683 564 661.0 535.0Q639 506 594.0 493.0Q549 480 477 480H351ZM853 1292Q815 1292 794.5 1278.0Q774 1264 766.5 1241.0Q759 1218 761.0 1190.0Q763 1162 769 1133L952 416Q958 397 967.5 391.0Q977 385 996 385Q1025 385 1034.5 394.0Q1044 403 1038 421L858 1130Q844 1180 847.0 1198.5Q850 1217 872 1217Q886 1217 893.0 1228.5Q900 1240 898.0 1254.5Q896 1269 885.0 1280.5Q874 1292 853 1292ZM848 1292Q834 1292 827.0 1280.5Q820 1269 821.5 1254.5Q823 1240 834.0 1228.5Q845 1217 866 1217Q891 1217 918.0 1199.5Q945 1182 973.5 1149.5Q1002 1117 1032.0 1070.5Q1062 1024 1092 967Q1100 954 1113.5 955.0Q1127 956 1136.5 965.5Q1146 975 1139 989Q1101 1064 1066.0 1121.5Q1031 1179 996.0 1216.5Q961 1254 925.0 1273.0Q889 1292 848 1292ZM1180 1292Q1142 1292 1114.5 1271.5Q1087 1251 1071.5 1213.5Q1056 1176 1056 1124Q1056 1077 1069.0 1025.5Q1082 974 1108.0 926.5Q1134 879 1171.0 840.5Q1208 802 1257.0 779.0Q1306 756 1364 756Q1404 756 1446.5 769.0Q1489 782 1525 807L1511 879Q1464 852 1426.0 843.5Q1388 835 1357 835Q1317 835 1284.0 852.5Q1251 870 1225.5 899.0Q1200 928 1182.5 964.5Q1165 1001 1156.0 1039.0Q1147 1077 1147 1112Q1147 1141 1153.5 1164.0Q1160 1187 1173.0 1199.5Q1186 1212 1205 1212Q1243 1212 1288.0 1170.0Q1333 1128 1380.5 1047.5Q1428 967 1474 854L1507 900Q1456 1031 1400.0 1118.0Q1344 1205 1288.5 1248.5Q1233 1292 1180 1292ZM1483 1292Q1444 1292 1423.0 1278.0Q1402 1264 1394.5 1241.0Q1387 1218 1389.0 1189.5Q1391 1161 1398 1133L1485 791Q1491 772 1500.5 766.0Q1510 760 1529 760Q1558 760 1567.5 769.0Q1577 778 1571 796L1486 1130Q1472 1180 1475.0 1198.5Q1478 1217 1500 1217Q1514 1217 1521.0 1228.5Q1528 1240 1526.5 1254.5Q1525 1269 1514.5 1280.5Q1504 1292 1483 1292ZM1483 1292Q1469 1292 1462.0 1280.5Q1455 1269 1456.5 1254.5Q1458 1240 1469.0 1228.5Q1480 1217 1501 1217Q1524 1217 1553.0 1194.0Q1582 1171 1619.5 1120.5Q1657 1070 1708.0 986.0Q1759 902 1826 781Q1834 767 1848.0 768.5Q1862 770 1872.0 780.0Q1882 790 1874 803Q1801 946 1746.0 1040.5Q1691 1135 1648.0 1190.0Q1605 1245 1565.5 1268.5Q1526 1292 1483 1292ZM1829 1290Q1785 1290 1758.5 1269.5Q1732 1249 1726.0 1206.5Q1720 1164 1737 1100L1814 791Q1820 772 1829.5 766.0Q1839 760 1859 760Q1888 760 1897.0 769.0Q1906 778 1900 796L1818 1116Q1811 1143 1810.5 1164.5Q1810 1186 1820.5 1198.5Q1831 1211 1857 1211Q1892 1211 1930.5 1182.0Q1969 1153 2008.0 1100.5Q2047 1048 2083.5 976.5Q2120 905 2151 819L2154 791Q2160 772 2169.5 766.0Q2179 760 2199 760Q2228 760 2237.0 769.0Q2246 778 2241 796L2081 1425Q2058 1516 2028.5 1569.5Q1999 1623 1954.5 1646.0Q1910 1669 1842 1669Q1805 1669 1772.0 1660.0Q1739 1651 1711.5 1635.5Q1684 1620 1662 1602Q1647 1589 1642.5 1575.0Q1638 1561 1658 1544Q1675 1529 1686.0 1527.5Q1697 1526 1713 1540Q1742 1563 1774.0 1577.0Q1806 1591 1846 1591Q1888 1591 1915.5 1574.5Q1943 1558 1961.5 1521.0Q1980 1484 1996 1422L2081 1086Q2052 1137 2021.5 1175.5Q1991 1214 1959.0 1239.5Q1927 1265 1894.0 1277.5Q1861 1290 1829 1290ZM2503 1294Q2462 1294 2437.0 1277.0Q2412 1260 2401.5 1230.0Q2391 1200 2393.0 1161.5Q2395 1123 2405 1081L2475 790Q2479 776 2488.0 767.5Q2497 759 2522 759Q2552 759 2559.5 768.0Q2567 777 2562 795L2489 1090Q2480 1124 2477.5 1152.0Q2475 1180 2485.0 1197.0Q2495 1214 2524 1214Q2553 1214 2581.0 1193.0Q2609 1172 2634.0 1137.5Q2659 1103 2681.0 1061.0Q2703 1019 2718 977L2766 790Q2770 776 2778.5 767.5Q2787 759 2810 759Q2841 759 2848.0 768.0Q2855 777 2850 795L2784 1077Q2781 1096 2778.0 1119.5Q2775 1143 2777.5 1165.0Q2780 1187 2792.0 1200.5Q2804 1214 2830 1214Q2862 1214 2893.0 1192.0Q2924 1170 2950.0 1134.5Q2976 1099 2995.5 1055.5Q3015 1012 3025 968Q3031 940 3033.5 918.5Q3036 897 3035 877Q3013 861 3003.5 845.0Q2994 829 2994 809Q2994 786 3007.0 771.0Q3020 756 3047 756Q3078 756 3095.0 784.5Q3112 813 3115 857Q3117 875 3116.0 894.5Q3115 914 3112.5 934.5Q3110 955 3105 976Q3093 1033 3066.0 1089.5Q3039 1146 3001.0 1192.5Q2963 1239 2914.5 1266.5Q2866 1294 2810 1294Q2765 1294 2738.0 1276.5Q2711 1259 2699.0 1228.5Q2687 1198 2685 1160Q2661 1201 2633.0 1231.0Q2605 1261 2573.0 1277.5Q2541 1294 2503 1294ZM3180 884Q3137 884 3110.0 873.5Q3083 863 3053 842Q3042 835 3041.5 824.0Q3041 813 3047.0 803.0Q3053 793 3062.0 788.5Q3071 784 3079 790Q3097 803 3122.0 809.5Q3147 816 3187 816Q3224 816 3262.0 809.5Q3300 803 3330.5 792.5Q3361 782 3373 770Q3384 760 3394.0 768.0Q3404 776 3406.5 791.5Q3409 807 3395 819Q3356 850 3297.0 867.0Q3238 884 3180 884ZM3277 1290Q3260 1290 3246.5 1283.0Q3233 1276 3239 1259L3355 791Q3361 772 3370.5 766.0Q3380 760 3400 760Q3429 760 3438.0 769.0Q3447 778 3441 796L3402 957Q3428 908 3454.0 870.0Q3480 832 3506.5 806.5Q3533 781 3556.5 768.5Q3580 756 3599 756Q3618 756 3626.0 768.0Q3634 780 3632.5 796.0Q3631 812 3620.5 824.0Q3610 836 3591 836Q3573 836 3542.5 863.0Q3512 890 3475.5 940.5Q3439 991 3402.5 1060.5Q3366 1130 3336 1214L3324 1264Q3321 1277 3310.5 1283.5Q3300 1290 3277 1290ZM3698 854Q3674 854 3654.5 849.5Q3635 845 3620.0 840.5Q3605 836 3592 836Q3573 836 3565.0 824.0Q3557 812 3558.0 796.0Q3559 780 3570.0 768.0Q3581 756 3600 756Q3624 756 3643.5 763.0Q3663 770 3681.0 777.0Q3699 784 3720 784Q3732 784 3744.0 781.0Q3756 778 3771 772Q3783 766 3793.0 775.0Q3803 784 3803.0 798.5Q3803 813 3785 824Q3751 844 3731.0 849.0Q3711 854 3698 854ZM3758 1292Q3719 1292 3698.5 1278.0Q3678 1264 3671.0 1241.0Q3664 1218 3666.0 1190.0Q3668 1162 3674 1133L3759 791Q3765 772 3774.5 766.0Q3784 760 3804 760Q3833 760 3842.0 769.0Q3851 778 3845 796L3762 1130Q3748 1180 3751.0 1198.5Q3754 1217 3776 1217Q3790 1217 3797.0 1228.5Q3804 1240 3802.5 1254.5Q3801 1269 3790.0 1280.5Q3779 1292 3758 1292ZM3851 606Q3829 606 3815.0 592.5Q3801 579 3801 553Q3801 524 3817.5 502.0Q3834 480 3869 480Q3892 480 3906.0 493.5Q3920 507 3920 534Q3920 562 3903.5 584.0Q3887 606 3851 606ZM3753 1292Q3739 1292 3732.0 1280.5Q3725 1269 3726.5 1254.5Q3728 1240 3739.0 1228.5Q3750 1217 3771 1217Q3794 1217 3824.5 1199.0Q3855 1181 3893.5 1139.5Q3932 1098 3980.0 1028.0Q4028 958 4085 854Q4093 840 4107.5 841.5Q4122 843 4131.0 853.0Q4140 863 4133 877Q4067 1000 4014.5 1080.5Q3962 1161 3918.5 1207.5Q3875 1254 3834.5 1273.0Q3794 1292 3753 1292ZM4137 1292Q4092 1292 4062.5 1271.5Q4033 1251 4018.0 1216.5Q4003 1182 4002.0 1137.0Q4001 1092 4013 1044L4062 855H3986Q3974 855 3969.5 845.0Q3965 835 3969 815Q3973 794 3982.5 784.5Q3992 775 4003 775H4083L4134 576Q4138 557 4148.0 551.0Q4158 545 4178 545Q4207 545 4216.0 554.0Q4225 563 4219 581L4170 775H4296Q4308 775 4313.0 784.5Q4318 794 4313 815Q4309 835 4300.0 845.0Q4291 855 4279 855H4149L4098 1049Q4087 1090 4087.5 1122.0Q4088 1154 4096.5 1175.0Q4105 1196 4120.5 1206.5Q4136 1217 4156 1217Q4170 1217 4177.0 1228.5Q4184 1240 4182.0 1254.5Q4180 1269 4169.0 1280.5Q4158 1292 4137 1292ZM4140 1292Q4126 1292 4119.0 1280.5Q4112 1269 4113.5 1254.5Q4115 1240 4126.0 1228.5Q4137 1217 4158 1217Q4179 1217 4207.0 1206.5Q4235 1196 4276.0 1173.0Q4317 1150 4377 1111Q4390 1102 4401.0 1106.5Q4412 1111 4417.5 1123.0Q4423 1135 4420.5 1148.5Q4418 1162 4403 1172Q4337 1217 4289.0 1243.5Q4241 1270 4205.5 1281.0Q4170 1292 4140 1292ZM4531 1292Q4469 1292 4428.0 1264.0Q4387 1236 4367.0 1187.0Q4347 1138 4347 1076Q4347 1027 4364.5 972.0Q4382 917 4415.0 867.5Q4448 818 4497.5 787.0Q4547 756 4610 756Q4647 756 4674.0 769.0Q4701 782 4715.5 805.5Q4730 829 4730 864Q4730 903 4708.0 941.0Q4686 979 4646.5 1016.0Q4607 1053 4554.5 1090.5Q4502 1128 4440 1166L4407 1103Q4440 1082 4480.0 1054.0Q4520 1026 4556.0 995.0Q4592 964 4615.5 933.0Q4639 902 4639 875Q4639 852 4626.5 843.5Q4614 835 4595 835Q4559 835 4529.5 858.5Q4500 882 4479.5 919.0Q4459 956 4447.5 996.0Q4436 1036 4436 1069Q4436 1112 4447.5 1145.0Q4459 1178 4482.5 1195.0Q4506 1212 4541 1212Q4575 1212 4602.5 1199.0Q4630 1186 4653.5 1163.5Q4677 1141 4700 1116Q4711 1102 4726.5 1105.5Q4742 1109 4753 1120Q4764 1131 4766.0 1142.5Q4768 1154 4757 1169Q4721 1215 4683.0 1242.0Q4645 1269 4607.0 1280.5Q4569 1292 4531 1292ZM5227 1289Q5205 1289 5194.5 1282.0Q5184 1275 5187 1259L5398 412Q5402 398 5414.5 391.5Q5427 385 5449 385Q5471 385 5481.5 392.0Q5492 399 5488 414L5276 1261Q5273 1275 5261.5 1282.0Q5250 1289 5227 1289ZM5769 1294Q5725 1294 5685.5 1283.5Q5646 1273 5612.0 1254.5Q5578 1236 5550.0 1211.0Q5522 1186 5501 1158Q5493 1146 5497.0 1135.5Q5501 1125 5512 1116Q5527 1104 5537.5 1101.0Q5548 1098 5559 1110Q5581 1135 5612.0 1157.5Q5643 1180 5682.5 1194.5Q5722 1209 5769 1209Q5816 1209 5855.5 1198.5Q5895 1188 5924.0 1168.0Q5953 1148 5969.0 1116.0Q5985 1084 5985 1041Q5985 1012 5975.5 988.5Q5966 965 5947.5 944.5Q5929 924 5902.5 907.0Q5876 890 5840 872Q5807 856 5777.0 837.0Q5747 818 5721.5 796.0Q5696 774 5677.0 747.0Q5658 720 5647.5 686.5Q5637 653 5637 612Q5637 562 5656.5 520.0Q5676 478 5713.5 448.0Q5751 418 5803.0 401.5Q5855 385 5920 385Q5972 385 6013.5 399.0Q6055 413 6089.5 436.5Q6124 460 6152 487Q6162 497 6160.0 508.5Q6158 520 6145 531Q6133 543 6121.5 545.5Q6110 548 6099 540Q6076 521 6051.0 505.0Q6026 489 5995.0 479.5Q5964 470 5920 470Q5878 470 5842.5 479.0Q5807 488 5782.0 505.5Q5757 523 5743.5 549.5Q5730 576 5730 612Q5730 644 5738.0 669.0Q5746 694 5764.5 715.0Q5783 736 5812.0 755.0Q5841 774 5883 793Q5926 814 5961.5 838.5Q5997 863 6023.5 893.0Q6050 923 6063.5 959.5Q6077 996 6077 1041Q6077 1099 6054.5 1145.5Q6032 1192 5990.5 1225.0Q5949 1258 5892.5 1276.0Q5836 1294 5769 1294Z" fill="currentColor" /></svg>