<svg viewBox="0 0 10362.723790322581 1606" xmlns="http://www.w3.org/2000/svg"><path d="M309.5625 710Q291.5625 711 283.5625 700.5Q275.5625 690 278.5625 668Q280.5625 649 289.0625 638.5Q297.5625 628 311.5625 627Q411.5625 620 492.5625 588.5Q573.5625 557 631.0625 507.5Q688.5625 458 719.5625 395.5Q750.5625 333 750.5625 264Q750.5625 210 725.5625 182.5Q700.5625 155 653.5625 155Q612.5625 155 567.5625 176.5Q522.5625 198 477.0625 237.5Q431.5625 277 389.0625 331.5Q346.5625 386 310.0625 452.5Q273.5625 519 246.5625 594L91.5625 1073Q87.5625 1087 75.5625 1094.0Q63.5625 1101 40.5625 1101Q18.5625 1101 7.5625 1094.0Q-3.4375 1087 1.5625 1071L260.5625 276Q235.5625 301 207.5625 324.0Q179.5625 347 149.0625 369.5Q118.5625 392 84.5625 416Q63.5625 430 49.5625 425.0Q35.5625 420 24.5625 402Q14.5625 386 16.5625 371.5Q18.5625 357 37.5625 346Q96.5625 309 147.0625 270.5Q197.5625 232 239.5625 189.5Q281.5625 147 312.5625 101Q324.5625 84 334.5625 78.0Q344.5625 72 366.5625 72Q389.5625 72 400.0625 79.0Q410.5625 86 404.5625 102L352.5625 267Q398.5625 205 450.0625 161.0Q501.5625 117 556.0625 94.5Q610.5625 72 665.5625 72Q719.5625 72 759.0625 94.0Q798.5625 116 819.5625 156.0Q840.5625 196 840.5625 251Q840.5625 345 801.5625 425.5Q762.5625 506 691.0625 567.5Q619.5625 629 522.0625 666.0Q424.5625 703 309.5625 710ZM506.5625 1104Q487.5625 1104 481.5625 1092.5Q475.5625 1081 480.0625 1066.5Q484.5625 1052 496.0625 1040.5Q507.5625 1029 523.5625 1029Q547.5625 1029 583.5625 1010.5Q619.5625 992 665.0625 958.0Q710.5625 924 761.0625 878.0Q811.5625 832 863.5625 777.5Q915.5625 723 965.0625 663.5Q1014.5625 604 1057.0625 543.0Q1099.5625 482 1132.0625 421.5Q1164.5625 361 1183.0625 305.5Q1201.5625 250 1201.5625 203Q1201.5625 188 1214.0625 180.5Q1226.5625 173 1243.5625 173.0Q1260.5625 173 1273.0625 180.5Q1285.5625 188 1285.5625 203Q1285.5625 252 1265.0625 311.5Q1244.5625 371 1208.5625 436.0Q1172.5625 501 1124.5625 568.0Q1076.5625 635 1021.0625 701.0Q965.5625 767 906.5625 826.5Q847.5625 886 789.5625 936.5Q731.5625 987 678.5625 1025.0Q625.5625 1063 581.0625 1083.5Q536.5625 1104 506.5625 1104ZM913.5625 1104Q857.5625 1104 825.0625 1069.5Q792.5625 1035 788.5625 972.5Q784.5625 910 811.5625 826L987.5625 291Q1024.5625 174 1070.0625 121.0Q1115.5625 68 1179.5625 68Q1211.5625 68 1235.0625 85.0Q1258.5625 102 1272.0625 132.0Q1285.5625 162 1285.5625 203Q1285.5625 222 1273.0625 231.0Q1260.5625 240 1243.5625 240.0Q1226.5625 240 1214.0625 231.0Q1201.5625 222 1201.5625 203Q1201.5625 186 1198.5625 174.0Q1195.5625 162 1188.5625 155.0Q1181.5625 148 1167.5625 148Q1151.5625 148 1137.0625 161.5Q1122.5625 175 1106.5625 210.5Q1090.5625 246 1067.5625 311L893.5625 843Q873.5625 904 872.0625 946.0Q870.5625 988 886.5625 1008.5Q902.5625 1029 932.5625 1029Q946.5625 1029 953.5625 1040.5Q960.5625 1052 958.5625 1066.5Q956.5625 1081 945.5625 1092.5Q934.5625 1104 913.5625 1104ZM914.5625 1104Q900.5625 1104 893.5625 1092.5Q886.5625 1081 888.0625 1066.5Q889.5625 1052 900.5625 1040.5Q911.5625 1029 932.5625 1029Q958.5625 1029 987.5625 1010.0Q1016.5625 991 1047.0625 957.0Q1077.5625 923 1109.5625 877.0Q1141.5625 831 1174.5625 777Q1182.5625 764 1196.5625 766.0Q1210.5625 768 1219.5625 778.5Q1228.5625 789 1220.5625 802Q1177.5625 877 1139.0625 934.0Q1100.5625 991 1064.0625 1028.5Q1027.5625 1066 991.0625 1085.0Q954.5625 1104 914.5625 1104ZM1241.5625 1104Q1207.5625 1104 1182.5625 1086.0Q1157.5625 1068 1143.5625 1035.0Q1129.5625 1002 1129.5625 957Q1129.5625 911 1143.5625 858.0Q1157.5625 805 1185.5625 754.0Q1213.5625 703 1253.5625 661.0Q1293.5625 619 1346.0625 593.5Q1398.5625 568 1461.5625 568Q1499.5625 568 1543.5625 581.5Q1587.5625 595 1622.5625 619L1604.5625 688Q1555.5625 662 1517.5625 654.5Q1479.5625 647 1447.5625 647Q1404.5625 647 1369.0625 667.0Q1333.5625 687 1306.0625 719.5Q1278.5625 752 1259.5625 791.5Q1240.5625 831 1230.5625 870.0Q1220.5625 909 1220.5625 941Q1220.5625 966 1226.5625 985.0Q1232.5625 1004 1244.0625 1014.0Q1255.5625 1024 1270.5625 1024Q1307.5625 1024 1354.5625 983.5Q1401.5625 943 1455.0625 864.0Q1508.5625 785 1564.5625 672L1601.5625 709Q1536.5625 843 1473.0625 930.5Q1409.5625 1018 1351.5625 1061.0Q1293.5625 1104 1241.5625 1104ZM1549.5625 1104Q1504.5625 1104 1483.0625 1087.5Q1461.5625 1071 1456.0625 1045.5Q1450.5625 1020 1455.5625 991.5Q1460.5625 963 1469.5625 939L1581.5625 604Q1588.5625 584 1598.0625 578.0Q1607.5625 572 1626.5625 572Q1657.5625 572 1666.0625 581.5Q1674.5625 591 1667.5625 611L1557.5625 938Q1540.5625 990 1542.0625 1009.5Q1543.5625 1029 1566.5625 1029Q1580.5625 1029 1587.5625 1040.5Q1594.5625 1052 1593.0625 1066.5Q1591.5625 1081 1581.0625 1092.5Q1570.5625 1104 1549.5625 1104ZM1549.5625 1104Q1535.5625 1104 1528.5625 1092.5Q1521.5625 1081 1523.0625 1066.5Q1524.5625 1052 1535.5625 1040.5Q1546.5625 1029 1567.5625 1029Q1591.5625 1029 1622.0625 1005.0Q1652.5625 981 1693.5625 929.5Q1734.5625 878 1790.5625 794.5Q1846.5625 711 1921.5625 592Q1930.5625 578 1945.0625 580.0Q1959.5625 582 1968.5625 593.0Q1977.5625 604 1969.5625 617Q1884.5625 761 1823.0625 855.5Q1761.5625 950 1715.5625 1004.5Q1669.5625 1059 1630.0625 1081.5Q1590.5625 1104 1549.5625 1104ZM1851.5625 1606Q1798.5625 1606 1765.0625 1576.5Q1731.5625 1547 1731.5625 1500Q1731.5625 1465 1745.0625 1430.5Q1758.5625 1396 1784.5625 1361.0Q1810.5625 1326 1850.0625 1289.5Q1889.5625 1253 1941.5625 1213Q1967.5625 1194 1991.0625 1177.0Q2014.5625 1160 2038.5625 1143.5Q2062.5625 1127 2088.5625 1110L2157.5625 897Q2126.5625 946 2094.0625 984.0Q2061.5625 1022 2027.5625 1048.5Q1993.5625 1075 1959.5625 1088.5Q1925.5625 1102 1890.5625 1102Q1844.5625 1102 1819.0625 1079.5Q1793.5625 1057 1791.5625 1012.5Q1789.5625 968 1810.5625 904L1910.5625 604Q1917.5625 584 1927.0625 578.0Q1936.5625 572 1955.5625 572Q1986.5625 572 1995.0625 581.5Q2003.5625 591 1996.5625 611L1890.5625 927Q1881.5625 952 1879.0625 974.0Q1876.5625 996 1886.0625 1009.0Q1895.5625 1022 1922.5625 1022Q1957.5625 1022 1998.5625 992.0Q2039.5625 962 2083.0625 908.0Q2126.5625 854 2168.5625 780.5Q2210.5625 707 2246.5625 620L2251.5625 604Q2258.5625 584 2268.0625 578.0Q2277.5625 572 2296.5625 572Q2327.5625 572 2336.0625 581.5Q2344.5625 591 2337.5625 611L2101.5625 1337Q2078.5625 1409 2053.0625 1460.0Q2027.5625 1511 1998.5625 1543.5Q1969.5625 1576 1933.0625 1591.0Q1896.5625 1606 1851.5625 1606ZM1866.5625 1529Q1896.5625 1529 1922.5625 1509.0Q1948.5625 1489 1971.5625 1446.0Q1994.5625 1403 2016.5625 1333L2053.5625 1220Q2039.5625 1229 2025.5625 1239.0Q2011.5625 1249 1997.5625 1259.0Q1983.5625 1269 1969.5625 1280Q1929.5625 1313 1901.0625 1341.5Q1872.5625 1370 1855.0625 1395.0Q1837.5625 1420 1829.0625 1442.5Q1820.5625 1465 1820.5625 1486Q1820.5625 1498 1825.5625 1508.0Q1830.5625 1518 1841.0625 1523.5Q1851.5625 1529 1866.5625 1529ZM2151.5625 1152Q2138.5625 1159 2128.0625 1152.5Q2117.5625 1146 2113.5625 1133.0Q2109.5625 1120 2113.0625 1106.0Q2116.5625 1092 2130.5625 1085Q2192.5625 1050 2244.5625 1012.5Q2296.5625 975 2341.5625 933.0Q2386.5625 891 2426.0625 843.0Q2465.5625 795 2503.0625 739.5Q2540.5625 684 2577.5625 620Q2587.5625 605 2600.5625 605.0Q2613.5625 605 2620.5625 617.0Q2627.5625 629 2617.5625 647Q2578.5625 721 2539.5625 783.0Q2500.5625 845 2459.0625 897.0Q2417.5625 949 2371.0625 993.0Q2324.5625 1037 2270.5625 1076.5Q2216.5625 1116 2151.5625 1152ZM2580.5625 1106Q2535.5625 1106 2510.5625 1087.0Q2485.5625 1068 2477.0625 1035.0Q2468.5625 1002 2473.5625 961.0Q2478.5625 920 2492.5625 877L2582.5625 603Q2587.5625 588 2596.0625 579.5Q2604.5625 571 2629.5625 571Q2661.5625 571 2668.5625 580.5Q2675.5625 590 2669.5625 609L2574.5625 899Q2563.5625 933 2559.0625 962.0Q2554.5625 991 2564.0625 1008.5Q2573.5625 1026 2604.5625 1026Q2632.5625 1026 2661.5625 1006.0Q2690.5625 986 2717.5625 952.5Q2744.5625 919 2768.5625 878.0Q2792.5625 837 2810.5625 795L2872.5625 603Q2877.5625 588 2886.0625 579.5Q2894.5625 571 2917.5625 571Q2950.5625 571 2956.5625 580.5Q2962.5625 590 2956.5625 609L2871.5625 886Q2867.5625 901 2862.5625 924.5Q2857.5625 948 2858.0625 971.5Q2858.5625 995 2870.0625 1010.5Q2881.5625 1026 2909.5625 1026Q2942.5625 1026 2974.5625 1004.5Q3006.5625 983 3034.5625 947.5Q3062.5625 912 3084.5625 868.5Q3106.5625 825 3119.5625 780Q3127.5625 752 3131.0625 730.5Q3134.5625 709 3134.5625 689Q3115.5625 674 3107.5625 659.0Q3099.5625 644 3099.5625 623Q3099.5625 600 3112.5625 584.0Q3125.5625 568 3154.5625 568Q3188.5625 568 3202.5625 598.0Q3216.5625 628 3216.5625 672Q3216.5625 691 3214.5625 711.0Q3212.5625 731 3208.5625 752.0Q3204.5625 773 3198.5625 794Q3182.5625 852 3152.5625 907.5Q3122.5625 963 3082.0625 1008.0Q3041.5625 1053 2992.0625 1079.5Q2942.5625 1106 2886.5625 1106Q2840.5625 1106 2814.5625 1088.0Q2788.5625 1070 2778.0625 1040.5Q2767.5625 1011 2767.5625 977Q2742.5625 1016 2713.5625 1045.0Q2684.5625 1074 2651.5625 1090.0Q2618.5625 1106 2580.5625 1106ZM3321.5625 818Q3293.5625 818 3264.0625 803.0Q3234.5625 788 3207.0625 749.0Q3179.5625 710 3157.5625 638Q3152.5625 620 3162.5625 608.0Q3172.5625 596 3187.0625 597.0Q3201.5625 598 3209.5625 619Q3228.5625 668 3248.0625 697.0Q3267.5625 726 3287.0625 738.5Q3306.5625 751 3324.5625 751Q3362.5625 751 3394.0625 714.5Q3425.5625 678 3452.5625 604Q3458.5625 589 3471.5625 584.0Q3484.5625 579 3498.0625 583.0Q3511.5625 587 3518.5625 597.5Q3525.5625 608 3518.5625 624Q3493.5625 690 3463.5625 733.0Q3433.5625 776 3398.5625 797.0Q3363.5625 818 3321.5625 818ZM3669.5625 1104Q3625.5625 1104 3604.5625 1088.0Q3583.5625 1072 3577.5625 1047.0Q3571.5625 1022 3576.0625 995.5Q3580.5625 969 3587.5625 949Q3591.5625 937 3602.5625 910.0Q3613.5625 883 3627.5625 848.5Q3641.5625 814 3655.0625 778.0Q3668.5625 742 3677.5625 712Q3685.5625 682 3681.0625 670.5Q3676.5625 659 3655.5625 659Q3632.5625 659 3606.5625 668.5Q3580.5625 678 3552.5625 687.5Q3524.5625 697 3493.5625 697Q3475.5625 697 3462.5625 682.0Q3449.5625 667 3442.0625 643.5Q3434.5625 620 3434.5625 594Q3434.5625 573 3441.5625 554.5Q3448.5625 536 3464.0625 524.0Q3479.5625 512 3503.5625 512Q3523.5625 512 3535.5625 525.0Q3547.5625 538 3547.5625 558Q3547.5625 571 3544.0625 586.5Q3540.5625 602 3529.5625 618Q3538.5625 618 3556.0625 611.5Q3573.5625 605 3597.0625 596.0Q3620.5625 587 3647.0625 580.5Q3673.5625 574 3699.5625 574Q3730.5625 574 3749.0625 589.0Q3767.5625 604 3771.5625 634.5Q3775.5625 665 3762.5625 714Q3755.5625 742 3742.0625 778.5Q3728.5625 815 3714.0625 851.5Q3699.5625 888 3688.0625 917.5Q3676.5625 947 3672.5625 961Q3663.5625 991 3664.5625 1010.0Q3665.5625 1029 3688.5625 1029Q3702.5625 1029 3709.0625 1040.5Q3715.5625 1052 3714.0625 1066.5Q3712.5625 1081 3701.5625 1092.5Q3690.5625 1104 3669.5625 1104ZM3669.5625 1104Q3655.5625 1104 3648.5625 1092.5Q3641.5625 1081 3643.0625 1066.5Q3644.5625 1052 3655.5625 1040.5Q3666.5625 1029 3687.5625 1029Q3711.5625 1029 3742.0625 1005.0Q3772.5625 981 3813.5625 929.5Q3854.5625 878 3910.5625 794.5Q3966.5625 711 4041.5625 592Q4050.5625 578 4065.0625 580.0Q4079.5625 582 4088.5625 593.0Q4097.5625 604 4089.5625 617Q4004.5625 761 3943.0625 855.5Q3881.5625 950 3835.5625 1004.5Q3789.5625 1059 3750.0625 1081.5Q3710.5625 1104 3669.5625 1104ZM4000.5625 1104Q3956.5625 1104 3935.0625 1088.0Q3913.5625 1072 3908.5625 1046.5Q3903.5625 1021 3908.5625 992.5Q3913.5625 964 3921.5625 939L4031.5625 604Q4038.5625 584 4048.0625 578.0Q4057.5625 572 4076.5625 572Q4107.5625 572 4116.0625 581.5Q4124.5625 591 4117.5625 611L4010.5625 938Q3992.5625 991 3994.0625 1010.0Q3995.5625 1029 4018.5625 1029Q4032.5625 1029 4039.5625 1040.5Q4046.5625 1052 4045.0625 1066.5Q4043.5625 1081 4032.5625 1092.5Q4021.5625 1104 4000.5625 1104ZM4138.5625 418Q4118.5625 418 4104.5625 405.0Q4090.5625 392 4090.5625 367Q4090.5625 340 4108.0625 316.0Q4125.5625 292 4162.5625 292Q4183.5625 292 4197.5625 304.5Q4211.5625 317 4211.5625 343Q4211.5625 370 4194.0625 394.0Q4176.5625 418 4138.5625 418ZM3995.5625 1104Q3981.5625 1104 3974.5625 1092.5Q3967.5625 1081 3969.0625 1066.5Q3970.5625 1052 3981.5625 1040.5Q3992.5625 1029 4013.5625 1029Q4037.5625 1029 4069.5625 1010.0Q4101.5625 991 4143.0625 948.5Q4184.5625 906 4237.0625 835.5Q4289.5625 765 4353.5625 662Q4362.5625 648 4377.0625 650.0Q4391.5625 652 4400.0625 663.0Q4408.5625 674 4400.5625 687Q4325.5625 813 4267.5625 894.0Q4209.5625 975 4162.5625 1021.0Q4115.5625 1067 4075.0625 1085.5Q4034.5625 1104 3995.5625 1104ZM4378.5625 1104Q4331.5625 1104 4302.0625 1082.5Q4272.5625 1061 4259.5625 1025.5Q4246.5625 990 4248.5625 946.0Q4250.5625 902 4265.5625 857L4328.5625 667H4252.5625Q4241.5625 667 4237.5625 657.0Q4233.5625 647 4238.5625 627Q4244.5625 607 4254.5625 597.0Q4264.5625 587 4275.5625 587H4355.5625L4420.5625 389Q4426.5625 369 4436.0625 363.0Q4445.5625 357 4465.5625 357Q4497.5625 357 4505.5625 366.5Q4513.5625 376 4506.5625 396L4442.5625 587H4568.5625Q4579.5625 587 4584.0625 596.5Q4588.5625 606 4582.5625 627Q4577.5625 646 4567.5625 656.5Q4557.5625 667 4546.5625 667H4416.5625L4350.5625 866Q4336.5625 908 4335.0625 939.0Q4333.5625 970 4341.0625 990.0Q4348.5625 1010 4363.5625 1019.5Q4378.5625 1029 4397.5625 1029Q4411.5625 1029 4418.5625 1040.5Q4425.5625 1052 4423.5625 1066.5Q4421.5625 1081 4410.5625 1092.5Q4399.5625 1104 4378.5625 1104ZM4382.5625 1104Q4363.5625 1104 4357.0625 1092.5Q4350.5625 1081 4354.0625 1066.5Q4357.5625 1052 4369.5625 1040.5Q4381.5625 1029 4400.5625 1029Q4441.5625 1029 4498.0625 1006.0Q4554.5625 983 4624.5625 937Q4636.5625 929 4646.5625 934.0Q4656.5625 939 4662.0625 951.0Q4667.5625 963 4665.5625 976.0Q4663.5625 989 4652.5625 997Q4593.5625 1036 4543.0625 1059.5Q4492.5625 1083 4452.0625 1093.5Q4411.5625 1104 4382.5625 1104ZM4626.5625 943Q4643.5625 932 4660.5625 920.5Q4677.5625 909 4694.5625 897Q4739.5625 864 4775.5625 829.0Q4811.5625 794 4833.0625 760.0Q4854.5625 726 4854.5625 697Q4854.5625 674 4844.5625 661.0Q4834.5625 648 4814.5625 648Q4783.5625 648 4759.5625 672.5Q4735.5625 697 4719.0625 734.0Q4702.5625 771 4694.5625 812.0Q4686.5625 853 4686.5625 886Q4686.5625 914 4693.5625 939.0Q4700.5625 964 4714.5625 983.0Q4728.5625 1002 4750.0625 1013.0Q4771.5625 1024 4800.5625 1024Q4831.5625 1024 4861.0625 1010.5Q4890.5625 997 4918.0625 974.5Q4945.5625 952 4969.5625 926Q4981.5625 912 4997.5625 916.0Q5013.5625 920 5023.5625 931Q5033.5625 942 5035.0625 954.0Q5036.5625 966 5024.5625 981Q4986.5625 1029 4946.0625 1055.5Q4905.5625 1082 4864.0625 1093.0Q4822.5625 1104 4781.5625 1104Q4744.5625 1104 4715.5625 1092.5Q4686.5625 1081 4664.5625 1061.0Q4642.5625 1041 4628.0625 1013.5Q4613.5625 986 4606.0625 954.0Q4598.5625 922 4598.5625 888Q4598.5625 851 4606.5625 808.0Q4614.5625 765 4632.0625 722.5Q4649.5625 680 4677.5625 645.0Q4705.5625 610 4744.5625 589.0Q4783.5625 568 4835.5625 568Q4865.5625 568 4890.5625 580.5Q4915.5625 593 4930.0625 616.5Q4944.5625 640 4944.5625 673Q4944.5625 718 4916.0625 767.5Q4887.5625 817 4840.5625 865.5Q4793.5625 914 4735.5625 956Q4716.5625 969 4696.5625 983.0Q4676.5625 997 4655.5625 1009ZM5679.5625 1104Q5607.5625 1104 5567.5625 1074.0Q5527.5625 1044 5521.0625 986.0Q5514.5625 928 5541.5625 843L5739.5625 231Q5752.5625 192 5751.0625 174.0Q5749.5625 156 5727.5625 156Q5711.5625 156 5692.0625 169.5Q5672.5625 183 5649.0625 210.0Q5625.5625 237 5594.5625 280Q5578.5625 303 5563.0625 307.5Q5547.5625 312 5528.5625 301Q5513.5625 292 5510.5625 278.5Q5507.5625 265 5520.5625 248Q5571.5625 175 5614.0625 137.0Q5656.5625 99 5690.5625 85.5Q5724.5625 72 5751.5625 72Q5814.5625 72 5834.5625 113.0Q5854.5625 154 5828.5625 234L5631.5625 840Q5612.5625 898 5613.5625 938.0Q5614.5625 978 5636.5625 998.0Q5658.5625 1018 5704.5625 1018Q5745.5625 1018 5789.0625 997.5Q5832.5625 977 5876.5625 940.0Q5920.5625 903 5963.5625 850.5Q6006.5625 798 6046.5625 735.0Q6086.5625 672 6120.5625 600L6282.5625 101Q6287.5625 87 6299.5625 80.0Q6311.5625 73 6333.5625 73Q6356.5625 73 6367.0625 80.0Q6377.5625 87 6372.5625 103L6109.5625 905Q6096.5625 945 6091.5625 970.5Q6086.5625 996 6091.5625 1008.0Q6096.5625 1020 6109.5625 1020Q6128.5625 1020 6154.5625 996.5Q6180.5625 973 6223.5625 913Q6235.5625 897 6247.0625 895.5Q6258.5625 894 6271.5625 902Q6288.5625 913 6291.0625 927.5Q6293.5625 942 6283.5625 956Q6268.5625 979 6247.0625 1005.0Q6225.5625 1031 6200.0625 1053.5Q6174.5625 1076 6145.5625 1090.0Q6116.5625 1104 6085.5625 1104Q6046.5625 1104 6025.0625 1083.0Q6003.5625 1062 6001.5625 1018.5Q5999.5625 975 6019.5625 908Q6024.5625 894 6029.0625 880.0Q6033.5625 866 6037.5625 853Q5998.5625 911 5955.0625 957.0Q5911.5625 1003 5865.5625 1036.0Q5819.5625 1069 5772.5625 1086.5Q5725.5625 1104 5679.5625 1104ZM6994.5625 1106Q6955.5625 1106 6920.0625 1097.5Q6884.5625 1089 6852.5625 1073.5Q6820.5625 1058 6794.0625 1037.0Q6767.5625 1016 6749.5625 993Q6736.5625 974 6738.5625 960.5Q6740.5625 947 6756.5625 933Q6770.5625 922 6782.0625 923.0Q6793.5625 924 6808.5625 939Q6835.5625 964 6863.5625 982.0Q6891.5625 1000 6923.5625 1009.5Q6955.5625 1019 6994.5625 1019Q7043.5625 1019 7084.5625 1003.5Q7125.5625 988 7155.5625 959.5Q7185.5625 931 7201.5625 890.0Q7217.5625 849 7217.5625 799Q7217.5625 761 7207.0625 723.5Q7196.5625 686 7178.5625 650.0Q7160.5625 614 7136.0625 577.5Q7111.5625 541 7082.5625 504.0Q7053.5625 467 7021.5625 428Q6928.5625 572 6857.0625 678.0Q6785.5625 784 6728.0625 857.5Q6670.5625 931 6622.0625 978.5Q6573.5625 1026 6527.0625 1052.0Q6480.5625 1078 6432.5625 1088.0Q6384.5625 1098 6326.5625 1098Q6306.5625 1098 6301.5625 1087.0Q6296.5625 1076 6303.5625 1052Q6308.5625 1034 6320.0625 1026.0Q6331.5625 1018 6350.5625 1018Q6385.5625 1018 6416.5625 1010.0Q6447.5625 1002 6479.5625 983.5Q6511.5625 965 6546.5625 932.5Q6581.5625 900 6623.5625 850.0Q6665.5625 800 6716.0625 730.5Q6766.5625 661 6829.5625 568.0Q6892.5625 475 6970.5625 355Q6955.5625 331 6943.0625 307.5Q6930.5625 284 6921.0625 260.5Q6911.5625 237 6906.5625 212.5Q6901.5625 188 6901.5625 163Q6901.5625 116 6920.5625 79.0Q6939.5625 42 6972.5625 21.0Q7005.5625 0 7048.5625 0Q7101.5625 0 7135.5625 32.5Q7169.5625 65 7169.5625 118Q7169.5625 147 7159.5625 179.5Q7149.5625 212 7128.0625 253.0Q7106.5625 294 7070.5625 351Q7092.5625 381 7118.0625 413.0Q7143.5625 445 7170.5625 480.0Q7197.5625 515 7222.0625 552.5Q7246.5625 590 7265.5625 629.5Q7284.5625 669 7296.0625 710.5Q7307.5625 752 7307.5625 794Q7307.5625 864 7285.0625 921.5Q7262.5625 979 7220.5625 1020.5Q7178.5625 1062 7121.0625 1084.0Q7063.5625 1106 6994.5625 1106ZM7021.5625 275Q7045.5625 235 7059.5625 207.5Q7073.5625 180 7079.5625 159.0Q7085.5625 138 7085.5625 121Q7085.5625 101 7074.0625 89.0Q7062.5625 77 7044.5625 77Q7026.5625 77 7013.5625 86.5Q7000.5625 96 6993.5625 114.5Q6986.5625 133 6986.5625 159Q6986.5625 179 6991.0625 198.5Q6995.5625 218 7003.0625 237.0Q7010.5625 256 7021.5625 275ZM7907.5625 1104Q7863.5625 1104 7830.0625 1082.0Q7796.5625 1060 7775.0625 1024.5Q7753.5625 989 7744.5625 950Q7740.5625 930 7745.0625 915.5Q7749.5625 901 7771.5625 896Q7792.5625 891 7803.5625 898.5Q7814.5625 906 7819.5625 923Q7829.5625 955 7842.0625 976.5Q7854.5625 998 7871.0625 1008.5Q7887.5625 1019 7908.5625 1019Q7941.5625 1019 7964.5625 993.0Q7987.5625 967 8010.5625 897L8245.5625 169H8122.5625Q8071.5625 169 8030.5625 181.0Q7989.5625 193 7958.5625 219.5Q7927.5625 246 7906.5625 292Q7897.5625 313 7884.5625 318.0Q7871.5625 323 7853.5625 320Q7838.5625 317 7831.5625 307.0Q7824.5625 297 7831.5625 276Q7846.5625 234 7872.5625 200.0Q7898.5625 166 7936.5625 141.0Q7974.5625 116 8025.5625 102.5Q8076.5625 89 8140.5625 89H8654.5625Q8669.5625 89 8673.0625 97.5Q8676.5625 106 8668.5625 129Q8661.5625 151 8652.5625 160.0Q8643.5625 169 8628.5625 169H8335.5625L8098.5625 904Q8080.5625 960 8053.5625 1005.5Q8026.5625 1051 7990.5625 1077.5Q7954.5625 1104 7907.5625 1104ZM8230.5625 1104Q8211.5625 1104 8205.0625 1092.5Q8198.5625 1081 8201.5625 1066.5Q8204.5625 1052 8216.5625 1040.5Q8228.5625 1029 8247.5625 1029Q8282.5625 1029 8320.5625 1008.0Q8358.5625 987 8401.5625 942.0Q8444.5625 897 8492.5625 824.0Q8540.5625 751 8595.5625 647L8650.5625 674Q8590.5625 795 8537.5625 877.5Q8484.5625 960 8434.0625 1010.0Q8383.5625 1060 8333.5625 1082.0Q8283.5625 1104 8230.5625 1104ZM8811.5625 1104Q8767.5625 1104 8746.5625 1088.0Q8725.5625 1072 8719.5625 1047.0Q8713.5625 1022 8718.0625 995.5Q8722.5625 969 8729.5625 949Q8733.5625 937 8744.5625 910.0Q8755.5625 883 8769.5625 848.5Q8783.5625 814 8797.0625 778.0Q8810.5625 742 8819.5625 712Q8827.5625 682 8823.0625 670.5Q8818.5625 659 8797.5625 659Q8774.5625 659 8748.5625 668.5Q8722.5625 678 8694.5625 687.5Q8666.5625 697 8635.5625 697Q8617.5625 697 8604.5625 682.0Q8591.5625 667 8584.0625 643.5Q8576.5625 620 8576.5625 594Q8576.5625 573 8583.5625 554.5Q8590.5625 536 8606.0625 524.0Q8621.5625 512 8645.5625 512Q8665.5625 512 8677.5625 525.0Q8689.5625 538 8689.5625 558Q8689.5625 571 8686.0625 586.5Q8682.5625 602 8671.5625 618Q8680.5625 618 8698.0625 611.5Q8715.5625 605 8739.0625 596.0Q8762.5625 587 8789.0625 580.5Q8815.5625 574 8841.5625 574Q8872.5625 574 8891.0625 589.0Q8909.5625 604 8913.5625 634.5Q8917.5625 665 8904.5625 714Q8897.5625 742 8884.0625 778.5Q8870.5625 815 8856.0625 851.5Q8841.5625 888 8830.0625 917.5Q8818.5625 947 8814.5625 961Q8805.5625 991 8806.5625 1010.0Q8807.5625 1029 8830.5625 1029Q8844.5625 1029 8851.0625 1040.5Q8857.5625 1052 8856.0625 1066.5Q8854.5625 1081 8843.5625 1092.5Q8832.5625 1104 8811.5625 1104ZM8811.5625 1104Q8797.5625 1104 8790.5625 1092.5Q8783.5625 1081 8785.0625 1066.5Q8786.5625 1052 8797.5625 1040.5Q8808.5625 1029 8829.5625 1029Q8855.5625 1029 8884.5625 1010.0Q8913.5625 991 8944.0625 957.0Q8974.5625 923 9006.5625 877.0Q9038.5625 831 9071.5625 777Q9079.5625 764 9093.5625 766.0Q9107.5625 768 9116.5625 778.5Q9125.5625 789 9117.5625 802Q9074.5625 877 9036.0625 934.0Q8997.5625 991 8961.0625 1028.5Q8924.5625 1066 8888.0625 1085.0Q8851.5625 1104 8811.5625 1104ZM9139.5625 1104Q9105.5625 1104 9080.5625 1086.0Q9055.5625 1068 9041.5625 1035.0Q9027.5625 1002 9027.5625 957Q9027.5625 911 9041.5625 858.0Q9055.5625 805 9083.5625 754.0Q9111.5625 703 9151.5625 661.0Q9191.5625 619 9244.0625 593.5Q9296.5625 568 9359.5625 568Q9397.5625 568 9441.5625 581.5Q9485.5625 595 9520.5625 619L9502.5625 688Q9453.5625 662 9415.5625 654.5Q9377.5625 647 9345.5625 647Q9302.5625 647 9267.0625 667.0Q9231.5625 687 9204.0625 719.5Q9176.5625 752 9157.5625 791.5Q9138.5625 831 9128.5625 870.0Q9118.5625 909 9118.5625 941Q9118.5625 966 9124.5625 985.0Q9130.5625 1004 9142.0625 1014.0Q9153.5625 1024 9168.5625 1024Q9205.5625 1024 9252.5625 983.5Q9299.5625 943 9353.0625 864.0Q9406.5625 785 9462.5625 672L9499.5625 709Q9434.5625 843 9371.0625 930.5Q9307.5625 1018 9249.5625 1061.0Q9191.5625 1104 9139.5625 1104ZM9447.5625 1104Q9402.5625 1104 9381.0625 1087.5Q9359.5625 1071 9354.0625 1045.5Q9348.5625 1020 9353.5625 991.5Q9358.5625 963 9367.5625 939L9479.5625 604Q9486.5625 584 9496.0625 578.0Q9505.5625 572 9524.5625 572Q9555.5625 572 9564.0625 581.5Q9572.5625 591 9565.5625 611L9455.5625 938Q9438.5625 990 9440.0625 1009.5Q9441.5625 1029 9464.5625 1029Q9478.5625 1029 9485.5625 1040.5Q9492.5625 1052 9491.0625 1066.5Q9489.5625 1081 9479.0625 1092.5Q9468.5625 1104 9447.5625 1104ZM9447.5625 1104Q9433.5625 1104 9426.5625 1092.5Q9419.5625 1081 9421.0625 1066.5Q9422.5625 1052 9433.5625 1040.5Q9444.5625 1029 9465.5625 1029Q9491.5625 1029 9520.5625 1010.0Q9549.5625 991 9580.0625 957.0Q9610.5625 923 9642.5625 877.0Q9674.5625 831 9707.5625 777Q9715.5625 764 9729.5625 766.0Q9743.5625 768 9752.5625 778.5Q9761.5625 789 9753.5625 802Q9710.5625 877 9672.0625 934.0Q9633.5625 991 9597.0625 1028.5Q9560.5625 1066 9524.0625 1085.0Q9487.5625 1104 9447.5625 1104ZM9762.5625 1104Q9728.5625 1104 9703.0625 1086.0Q9677.5625 1068 9663.5625 1035.0Q9649.5625 1002 9649.5625 957Q9649.5625 911 9663.5625 858.0Q9677.5625 805 9705.5625 754.0Q9733.5625 703 9774.0625 661.0Q9814.5625 619 9866.5625 593.5Q9918.5625 568 9982.5625 568Q10011.5625 568 10045.0625 576.0Q10078.5625 584 10109.5625 599L10273.5625 104Q10279.5625 84 10289.0625 78.0Q10298.5625 72 10318.5625 72Q10349.5625 72 10358.0625 81.5Q10366.5625 91 10359.5625 111L10070.5625 984Q10064.5625 1005 10066.5625 1015.5Q10068.5625 1026 10080.5625 1026Q10090.5625 1026 10099.5625 1020.0Q10108.5625 1014 10120.0625 1002.0Q10131.5625 990 10147.5625 971Q10155.5625 961 10163.5625 959.5Q10171.5625 958 10182.5625 966Q10198.5625 976 10202.0625 986.0Q10205.5625 996 10199.5625 1006Q10178.5625 1039 10156.0625 1060.5Q10133.5625 1082 10109.0625 1092.0Q10084.5625 1102 10057.5625 1102Q10021.5625 1102 10002.5625 1084.0Q9983.5625 1066 9982.5625 1030.0Q9981.5625 994 9997.5625 941Q9998.5625 938 9999.0625 934.5Q9999.5625 931 10000.5625 928Q9957.5625 987 9916.0625 1026.5Q9874.5625 1066 9835.5625 1085.0Q9796.5625 1104 9762.5625 1104ZM9740.5625 941Q9740.5625 966 9746.5625 985.0Q9752.5625 1004 9764.0625 1014.0Q9775.5625 1024 9790.5625 1024Q9825.5625 1024 9871.5625 987.5Q9917.5625 951 9969.0625 880.5Q10020.5625 810 10073.5625 708L10085.5625 669Q10051.5625 655 10022.0625 651.0Q9992.5625 647 9968.5625 647Q9925.5625 647 9889.5625 667.0Q9853.5625 687 9826.0625 719.5Q9798.5625 752 9779.5625 791.5Q9760.5625 831 9750.5625 870.0Q9740.5625 909 9740.5625 941Z" fill="currentColor" /></svg>