<svg viewBox="0 0 13352 1534" xmlns="http://www.w3.org/2000/svg"><path d="M104 1029Q74 1029 81 1009L396 36Q400 26 406.5 21.5Q413 17 429 17H615Q707 17 768.0 37.5Q829 58 859.5 102.5Q890 147 890 220Q890 300 860.5 363.0Q831 426 775.5 471.0Q720 516 643.0 545.0Q566 574 470 586Q421 592 369.5 595.5Q318 599 268 601L135 1010Q132 1020 125.5 1024.5Q119 1029 104 1029ZM284 551Q316 550 348.5 548.0Q381 546 414.0 543.0Q447 540 477 536Q587 520 667.0 480.5Q747 441 790.0 377.0Q833 313 833 224Q833 166 808.5 132.0Q784 98 735.0 82.5Q686 67 612 67H441ZM0 1505H776V1515H0ZM0 995H776V1015H0ZM0 510H776V515H0ZM0 5H776V15H0ZM911 1032Q881 1032 863.0 1022.0Q845 1012 836.5 993.5Q828 975 830.0 948.5Q832 922 842 890L1128 21Q1132 9 1138.5 4.5Q1145 0 1158 0Q1175 0 1181.0 6.0Q1187 12 1183 24L897 891Q881 940 886.0 962.0Q891 984 925 984Q935 984 939.5 991.5Q944 999 942.0 1008.0Q940 1017 932.5 1024.5Q925 1032 911 1032ZM776 1505H1078V1515H776ZM776 995H1078V1015H776ZM776 510H1078V515H776ZM776 5H1078V15H776ZM910 1032Q900 1032 895.0 1024.5Q890 1017 891.5 1008.0Q893 999 901.5 991.5Q910 984 925 984Q952 984 983.5 965.5Q1015 947 1048.0 914.0Q1081 881 1113.0 836.0Q1145 791 1174 738Q1179 728 1188.0 729.0Q1197 730 1203.0 736.5Q1209 743 1205 753Q1174 815 1138.5 866.0Q1103 917 1065.5 954.0Q1028 991 989.0 1011.5Q950 1032 910 1032ZM1078 1505V1515ZM1078 995V1015ZM1078 510V515ZM1078 5V15ZM1257 1032Q1221 1032 1194.5 1013.5Q1168 995 1153.0 960.5Q1138 926 1138 879Q1138 835 1152.0 783.0Q1166 731 1192.5 680.5Q1219 630 1259.0 588.0Q1299 546 1351.0 521.0Q1403 496 1467 496Q1504 496 1543.5 509.0Q1583 522 1615 545L1602 588Q1559 562 1524.5 553.5Q1490 545 1460 545Q1410 545 1368.0 566.5Q1326 588 1293.5 623.5Q1261 659 1239.0 702.5Q1217 746 1206.0 790.5Q1195 835 1195 874Q1195 906 1203.5 930.5Q1212 955 1229.0 968.5Q1246 982 1271 982Q1310 982 1357.0 946.5Q1404 911 1456.0 839.0Q1508 767 1560 659L1576 697Q1519 816 1463.0 890.0Q1407 964 1355.0 998.0Q1303 1032 1257 1032ZM1545 1032Q1518 1032 1500.5 1022.0Q1483 1012 1475.0 993.5Q1467 975 1468.5 950.0Q1470 925 1480 894L1602 521Q1606 509 1613.0 504.5Q1620 500 1633 500Q1650 500 1655.5 507.0Q1661 514 1656 526L1535 895Q1519 943 1525.0 963.5Q1531 984 1559 984Q1569 984 1573.0 991.5Q1577 999 1575.5 1008.0Q1574 1017 1566.5 1024.5Q1559 1032 1545 1032ZM1078 1505H1713V1515H1078ZM1078 995H1713V1015H1078ZM1078 510H1713V515H1078ZM1078 5H1713V15H1078ZM1545 1032Q1535 1032 1530.0 1024.5Q1525 1017 1526.5 1008.0Q1528 999 1536.5 991.5Q1545 984 1560 984Q1589 984 1622.0 963.0Q1655 942 1695.0 898.0Q1735 854 1785.5 783.0Q1836 712 1899 612Q1905 601 1914.5 602.5Q1924 604 1929.5 612.0Q1935 620 1929 630Q1859 744 1806.0 821.5Q1753 899 1709.5 945.5Q1666 992 1626.5 1012.0Q1587 1032 1545 1032ZM1713 1505V1515ZM1713 995V1015ZM1713 510V515ZM1713 5V15ZM1902 1030Q1862 1030 1835.0 1011.0Q1808 992 1802.0 951.5Q1796 911 1817 847L1925 521Q1929 509 1935.0 504.5Q1941 500 1955 500Q1972 500 1978.0 506.0Q1984 512 1980 524L1871 853Q1857 894 1856.5 923.0Q1856 952 1871.0 966.5Q1886 981 1916 981Q1946 981 1984.0 961.5Q2022 942 2064.0 899.5Q2106 857 2149.5 789.0Q2193 721 2235 624L2268 521Q2273 509 2279.5 504.5Q2286 500 2299 500Q2317 500 2321.5 507.5Q2326 515 2322 527L2068 1309Q2043 1387 2014.0 1437.0Q1985 1487 1944.5 1510.5Q1904 1534 1842 1534Q1804 1534 1771.5 1523.0Q1739 1512 1712.0 1491.5Q1685 1471 1663 1444Q1656 1434 1655.5 1425.0Q1655 1416 1667 1407Q1679 1398 1686.0 1398.5Q1693 1399 1700 1407Q1731 1446 1766.5 1465.5Q1802 1485 1847 1485Q1892 1485 1921.5 1465.5Q1951 1446 1972.5 1406.5Q1994 1367 2014 1306L2175 810Q2139 871 2102.0 913.0Q2065 955 2029.5 981.0Q1994 1007 1961.5 1018.5Q1929 1030 1902 1030ZM1713 1505H2366V1515H1713ZM1713 995H2366V1015H1713ZM1713 510H2366V515H1713ZM1713 5H2366V15H1713ZM2453 1030Q2440 1030 2435.0 1023.0Q2430 1016 2430 1004L2428 526Q2428 516 2433.5 508.0Q2439 500 2455 500Q2469 500 2475.0 505.0Q2481 510 2481 523L2477 945L2767 521Q2775 509 2782.5 504.5Q2790 500 2802 500Q2815 500 2821.5 507.0Q2828 514 2829 528L2844 944L3113 519Q3120 508 3127.0 503.0Q3134 498 3145 501Q3161 503 3165.5 512.0Q3170 521 3163 532L2855 1011Q2849 1019 2841.0 1024.5Q2833 1030 2820 1030Q2807 1030 2802.0 1023.0Q2797 1016 2797 1005L2780 585L2490 1011Q2485 1019 2476.0 1024.5Q2467 1030 2453 1030ZM2326 1505H3130V1515H2326ZM2326 995H3130V1015H2326ZM2326 510H3130V515H2326ZM2326 5H3130V15H2326ZM3247 573Q3215 573 3186.0 565.0Q3157 557 3139 546Q3132 542 3132.0 534.5Q3132 527 3136.0 518.5Q3140 510 3146.0 505.5Q3152 501 3157 504Q3179 515 3202.5 522.5Q3226 530 3252 530Q3272 530 3301.5 524.0Q3331 518 3350 505Q3358 500 3364.5 506.0Q3371 512 3373.0 521.0Q3375 530 3368 537Q3354 548 3332.0 556.5Q3310 565 3287.5 569.0Q3265 573 3247 573ZM3130 1505V1515ZM3130 995V1015ZM3130 510V515ZM3130 5V15ZM3204 1030Q3192 1030 3185.5 1025.0Q3179 1020 3182 1009L3341 521Q3345 509 3351.5 504.5Q3358 500 3371 500Q3387 500 3392.5 506.0Q3398 512 3394 525L3332 716Q3367 651 3398.5 608.5Q3430 566 3458.5 541.0Q3487 516 3512.0 506.0Q3537 496 3559 496Q3571 496 3575.5 503.5Q3580 511 3578.0 521.0Q3576 531 3568.5 538.0Q3561 545 3548 545Q3524 545 3492.5 568.5Q3461 592 3424.5 637.5Q3388 683 3349.5 748.5Q3311 814 3272 899L3235 1011Q3232 1021 3224.5 1025.5Q3217 1030 3204 1030ZM3130 1505H3534V1515H3130ZM3130 995H3534V1015H3130ZM3130 510H3534V515H3130ZM3130 5H3534V15H3130ZM3687 570Q3663 570 3640.0 563.5Q3617 557 3595.0 551.0Q3573 545 3550 545Q3539 545 3535.0 538.0Q3531 531 3532.0 521.0Q3533 511 3540.0 503.5Q3547 496 3560 496Q3586 496 3609.0 503.5Q3632 511 3653.5 518.5Q3675 526 3697 526Q3712 526 3725.0 522.5Q3738 519 3753 512Q3761 507 3767.5 513.0Q3774 519 3775.0 527.5Q3776 536 3767 542Q3745 558 3724.5 564.0Q3704 570 3687 570ZM3534 1505V1515ZM3534 995V1015ZM3534 510V515ZM3534 5V15ZM3692 1032Q3663 1032 3644.5 1022.0Q3626 1012 3618.0 993.5Q3610 975 3612.0 948.5Q3614 922 3624 890L3745 521Q3749 509 3755.0 504.5Q3761 500 3775 500Q3791 500 3797.0 506.0Q3803 512 3799 524L3679 891Q3663 940 3668.0 962.0Q3673 984 3706 984Q3716 984 3720.5 991.5Q3725 999 3723.5 1008.0Q3722 1017 3714.0 1024.5Q3706 1032 3692 1032ZM3834 332Q3816 332 3805.0 323.0Q3794 314 3794 296Q3794 272 3808.5 252.5Q3823 233 3851 233Q3868 233 3879.5 242.0Q3891 251 3891 270Q3891 293 3876.5 312.5Q3862 332 3834 332ZM3534 1505H3859V1515H3534ZM3534 995H3859V1015H3534ZM3534 510H3859V515H3534ZM3534 5H3859V15H3534ZM3691 1032Q3681 1032 3676.0 1024.5Q3671 1017 3672.5 1008.0Q3674 999 3682.5 991.5Q3691 984 3706 984Q3735 984 3770.5 966.0Q3806 948 3847.0 909.0Q3888 870 3936.0 805.5Q3984 741 4040 648Q4047 637 4056.0 638.0Q4065 639 4069.5 647.5Q4074 656 4068 667Q4008 771 3957.0 841.0Q3906 911 3861.0 953.0Q3816 995 3774.0 1013.5Q3732 1032 3691 1032ZM3859 1505V1515ZM3859 995V1015ZM3859 510V515ZM3859 5V15ZM4080 1032Q4038 1032 4011.5 1014.0Q3985 996 3972.0 964.5Q3959 933 3961.5 890.0Q3964 847 3981 796L4058 563H3971Q3960 563 3957.5 556.5Q3955 550 3959 538Q3963 526 3969.0 520.5Q3975 515 3985 515H4074L4142 306Q4146 294 4152.5 289.5Q4159 285 4173 285Q4190 285 4196.0 291.0Q4202 297 4198 309L4129 515H4256Q4267 515 4269.0 521.0Q4271 527 4268 539Q4264 552 4258.0 557.5Q4252 563 4241 563H4114L4036 796Q4020 847 4017.0 882.5Q4014 918 4023.0 940.5Q4032 963 4050.0 973.5Q4068 984 4091 984Q4101 984 4106.0 991.5Q4111 999 4110.0 1008.0Q4109 1017 4101.5 1024.5Q4094 1032 4080 1032ZM3859 1505H4247V1515H3859ZM3859 995H4247V1015H3859ZM3859 510H4247V515H3859ZM3859 5H4247V15H3859ZM4078 1032Q4068 1032 4063.0 1024.5Q4058 1017 4059.5 1008.0Q4061 999 4069.5 991.5Q4078 984 4093 984Q4110 984 4137.5 974.0Q4165 964 4210.5 939.5Q4256 915 4325 871Q4334 866 4341.0 869.0Q4348 872 4352.0 880.0Q4356 888 4354.0 897.0Q4352 906 4343 912Q4270 959 4220.0 985.5Q4170 1012 4136.5 1022.0Q4103 1032 4078 1032ZM4246 1505V1515ZM4246 995V1015ZM4246 510V515ZM4246 5V15ZM4479 1032Q4423 1032 4385.0 1004.5Q4347 977 4328.5 930.5Q4310 884 4310 828Q4310 775 4329.0 716.5Q4348 658 4384.0 608.5Q4420 559 4470.5 527.5Q4521 496 4584 496Q4622 496 4645.5 509.0Q4669 522 4680.0 543.5Q4691 565 4691 590Q4691 626 4670.5 662.0Q4650 698 4609.5 736.0Q4569 774 4507.0 816.5Q4445 859 4361 909L4343 866Q4414 823 4468.5 785.0Q4523 747 4560.0 714.0Q4597 681 4616.0 651.5Q4635 622 4635 597Q4635 572 4620.5 558.5Q4606 545 4577 545Q4529 545 4490.0 572.0Q4451 599 4423.0 642.0Q4395 685 4380.0 733.0Q4365 781 4365 824Q4365 874 4380.0 909.5Q4395 945 4423.5 964.0Q4452 983 4489 983Q4527 983 4561.5 966.5Q4596 950 4624.0 926.5Q4652 903 4671 883Q4680 875 4688.5 875.5Q4697 876 4704 883Q4710 890 4712.0 898.0Q4714 906 4706 916Q4680 946 4644.5 972.5Q4609 999 4567.5 1015.5Q4526 1032 4479 1032ZM4247 1505H4773V1515H4247ZM4247 995H4773V1015H4247ZM4247 510H4773V515H4247ZM4247 5H4773V15H4247ZM5051 1029Q5035 1029 5029.5 1020.0Q5024 1011 5033 995L5673 21Q5681 9 5688.5 4.5Q5696 0 5710 0Q5723 0 5729.5 5.5Q5736 11 5737 27L5792 1001Q5793 1015 5786.5 1022.0Q5780 1029 5765 1029Q5751 1029 5746.0 1023.5Q5741 1018 5740 1005L5723 712H5282L5089 1006Q5079 1020 5072.0 1024.5Q5065 1029 5051 1029ZM5314 662H5721L5690 85ZM5073 1505H5906V1515H5073ZM5073 995H5906V1015H5073ZM5073 510H5906V515H5073ZM5073 5H5906V15H5073ZM6215 1034Q6152 1034 6109.5 1008.5Q6067 983 6045.5 937.5Q6024 892 6025.0 829.5Q6026 767 6050 694L6268 19Q6271 9 6278.0 4.5Q6285 0 6301 0Q6315 0 6321.5 4.5Q6328 9 6324 20L6104 699Q6083 763 6080.0 815.0Q6077 867 6091.5 904.0Q6106 941 6138.0 960.5Q6170 980 6218 980Q6271 980 6325.0 958.5Q6379 937 6431.5 897.0Q6484 857 6534.0 803.0Q6584 749 6629.0 684.0Q6674 619 6714 547L6884 19Q6887 9 6894.5 4.5Q6902 0 6917 0Q6931 0 6937.0 5.0Q6943 10 6940 20L6620 1010Q6617 1019 6609.5 1024.0Q6602 1029 6587 1029Q6573 1029 6567.0 1023.5Q6561 1018 6565 1009L6660 713Q6614 783 6561.5 841.5Q6509 900 6452.0 943.5Q6395 987 6335.5 1010.5Q6276 1034 6215 1034ZM5878 1505H6860V1515H5878ZM5878 995H6860V1015H5878ZM5878 510H6860V515H5878ZM5878 5H6860V15H5878ZM7464 1029Q7437 1029 7443 1010L7749 67H7434Q7422 67 7419.5 61.0Q7417 55 7421 42Q7426 28 7432.0 22.5Q7438 17 7449 17H8122Q8135 17 8136.5 23.0Q8138 29 8134 42Q8131 56 8125.0 61.5Q8119 67 8107 67H7804L7497 1010Q7494 1020 7487.0 1024.5Q7480 1029 7464 1029ZM7160 1505H7926V1515H7160ZM7160 995H7926V1015H7160ZM7160 510H7926V515H7160ZM7160 5H7926V15H7160ZM7854 1029Q7838 1029 7832.5 1020.0Q7827 1011 7836 995L8476 21Q8484 9 8491.5 4.5Q8499 0 8513 0Q8526 0 8532.5 5.5Q8539 11 8540 27L8595 1001Q8596 1015 8589.5 1022.0Q8583 1029 8568 1029Q8554 1029 8549.0 1023.5Q8544 1018 8543 1005L8526 712H8085L7892 1006Q7882 1020 7875.0 1024.5Q7868 1029 7854 1029ZM8117 662H8524L8493 85ZM7876 1505H8709V1515H7876ZM7876 995H8709V1015H7876ZM7876 510H8709V515H7876ZM7876 5H8709V15H7876ZM9037 1034Q8979 1034 8932.0 1020.0Q8885 1006 8848.5 984.5Q8812 963 8786.5 938.0Q8761 913 8746 892Q8740 883 8742.0 876.0Q8744 869 8753 862Q8765 853 8772.0 854.0Q8779 855 8785 862Q8809 892 8845.5 919.0Q8882 946 8930.0 963.5Q8978 981 9038 981Q9100 981 9152.0 963.5Q9204 946 9242.0 913.5Q9280 881 9301.5 836.0Q9323 791 9323 736Q9323 697 9310.0 666.5Q9297 636 9273.0 611.5Q9249 587 9215.5 565.0Q9182 543 9139 519Q9109 502 9079.5 483.5Q9050 465 9025.0 443.5Q9000 422 8981.5 396.0Q8963 370 8952.5 337.5Q8942 305 8942 264Q8942 206 8963.5 157.5Q8985 109 9025.0 73.5Q9065 38 9119.5 19.0Q9174 0 9240 0Q9297 0 9344.5 15.5Q9392 31 9431.5 58.5Q9471 86 9502 121Q9511 130 9509.0 137.0Q9507 144 9498 152Q9490 159 9482.0 159.0Q9474 159 9465 152Q9437 124 9403.5 101.5Q9370 79 9330.0 66.0Q9290 53 9238 53Q9187 53 9143.5 68.0Q9100 83 9067.5 110.5Q9035 138 9017.0 176.5Q8999 215 8999 263Q8999 302 9011.0 331.5Q9023 361 9045.0 384.5Q9067 408 9099.5 430.0Q9132 452 9172 475Q9214 498 9251.0 522.5Q9288 547 9317.5 577.0Q9347 607 9363.5 645.5Q9380 684 9380 735Q9380 800 9354.5 854.5Q9329 909 9282.5 949.5Q9236 990 9173.5 1012.0Q9111 1034 9037 1034ZM8687 1505H9451V1515H8687ZM8687 995H9451V1015H8687ZM8687 510H9451V515H8687ZM8687 5H9451V15H8687ZM10135 1032Q10082 1032 10038.0 1010.5Q9994 989 9963.0 948.0Q9932 907 9915.0 849.0Q9898 791 9898 718Q9898 625 9920.0 536.0Q9942 447 9982.0 366.5Q10022 286 10076.5 219.5Q10131 153 10197.0 103.5Q10263 54 10336.0 27.0Q10409 0 10486 0Q10544 0 10594.0 14.5Q10644 29 10684.5 55.5Q10725 82 10754 117Q10762 126 10760.5 134.5Q10759 143 10747 152Q10736 160 10728.5 157.5Q10721 155 10712 146Q10683 117 10648.0 96.0Q10613 75 10572.0 64.0Q10531 53 10481 53Q10413 53 10347.5 78.5Q10282 104 10223.5 150.5Q10165 197 10116.5 259.5Q10068 322 10032.0 396.0Q9996 470 9976.0 552.0Q9956 634 9956 718Q9956 780 9969.5 828.5Q9983 877 10008.0 910.5Q10033 944 10067.0 961.5Q10101 979 10143 979Q10207 979 10271.5 946.0Q10336 913 10399.0 850.0Q10462 787 10523.0 699.0Q10584 611 10640 501Q10643 491 10650.5 486.0Q10658 481 10673 481Q10702 481 10696 500L10532 1010Q10529 1019 10521.5 1024.0Q10514 1029 10499 1029Q10470 1029 10477 1010L10580 689Q10530 767 10477.0 830.5Q10424 894 10367.5 939.0Q10311 984 10253.0 1008.0Q10195 1032 10135 1032ZM9751 1505H10723V1515H9751ZM9751 995H10723V1015H9751ZM9751 510H10723V515H9751ZM9751 5H10723V15H9751ZM10887 1030Q10846 1030 10819.5 1011.0Q10793 992 10786.5 951.5Q10780 911 10801 847L10909 521Q10914 509 10920.0 504.5Q10926 500 10940 500Q10956 500 10962.0 506.0Q10968 512 10964 524L10855 853Q10841 894 10841.0 923.0Q10841 952 10855.5 966.5Q10870 981 10900 981Q10931 981 10969.0 961.5Q11007 942 11049.5 899.5Q11092 857 11135.0 789.0Q11178 721 11220 623L11253 518Q11258 506 11264.0 502.0Q11270 498 11284 498Q11300 498 11306.5 503.5Q11313 509 11309 521L11187 892Q11171 941 11176.5 962.5Q11182 984 11215 984Q11225 984 11229.0 991.5Q11233 999 11231.5 1008.0Q11230 1017 11222.5 1024.5Q11215 1032 11201 1032Q11174 1032 11156.5 1023.0Q11139 1014 11130.5 997.5Q11122 981 11122.0 957.5Q11122 934 11130 906L11161 809Q11126 870 11089.0 912.5Q11052 955 11016.0 981.0Q10980 1007 10947.0 1018.5Q10914 1030 10887 1030ZM10723 1505H11369V1515H10723ZM10723 995H11369V1015H10723ZM10723 510H11369V515H10723ZM10723 5H11369V15H10723ZM11201 1032Q11191 1032 11186.0 1024.5Q11181 1017 11182.5 1008.0Q11184 999 11192.5 991.5Q11201 984 11216 984Q11245 984 11278.0 963.0Q11311 942 11351.0 898.0Q11391 854 11441.5 783.0Q11492 712 11555 612Q11561 601 11570.5 602.5Q11580 604 11585.5 612.0Q11591 620 11585 630Q11515 744 11462.0 821.5Q11409 899 11365.5 945.5Q11322 992 11282.5 1012.0Q11243 1032 11201 1032ZM11369 1505V1515ZM11369 995V1015ZM11369 510V515ZM11369 5V15ZM11527 1032Q11498 1032 11479.5 1022.0Q11461 1012 11453.0 993.5Q11445 975 11447.0 948.5Q11449 922 11459 890L11580 521Q11584 509 11590.0 504.5Q11596 500 11610 500Q11626 500 11632.0 506.0Q11638 512 11634 524L11514 891Q11498 940 11503.0 962.0Q11508 984 11541 984Q11551 984 11555.5 991.5Q11560 999 11558.5 1008.0Q11557 1017 11549.0 1024.5Q11541 1032 11527 1032ZM11669 332Q11651 332 11640.0 323.0Q11629 314 11629 296Q11629 272 11643.5 252.5Q11658 233 11686 233Q11703 233 11714.5 242.0Q11726 251 11726 270Q11726 293 11711.5 312.5Q11697 332 11669 332ZM11369 1505H11694V1515H11369ZM11369 995H11694V1015H11369ZM11369 510H11694V515H11369ZM11369 5H11694V15H11369ZM11526 1032Q11516 1032 11511.0 1024.5Q11506 1017 11507.5 1008.0Q11509 999 11517.5 991.5Q11526 984 11541 984Q11568 984 11599.5 965.5Q11631 947 11664.0 914.0Q11697 881 11729.0 836.0Q11761 791 11790 738Q11795 728 11804.0 729.0Q11813 730 11819.0 736.5Q11825 743 11821 753Q11790 815 11754.5 866.0Q11719 917 11681.5 954.0Q11644 991 11605.0 1011.5Q11566 1032 11526 1032ZM11694 1505V1515ZM11694 995V1015ZM11694 510V515ZM11694 5V15ZM11869 1032Q11833 1032 11806.0 1013.5Q11779 995 11764.5 960.5Q11750 926 11750 879Q11750 834 11763.5 782.0Q11777 730 11804.0 679.0Q11831 628 11871.0 587.0Q11911 546 11963.0 521.0Q12015 496 12079 496Q12111 496 12146.0 506.0Q12181 516 12210 535L12378 21Q12382 9 12389.0 4.5Q12396 0 12409 0Q12427 0 12432.0 7.0Q12437 14 12433 26L12149 892Q12133 941 12139.5 962.5Q12146 984 12181 984Q12189 984 12193.0 991.5Q12197 999 12195.5 1008.0Q12194 1017 12187.0 1024.5Q12180 1032 12167 1032Q12139 1032 12121.0 1023.0Q12103 1014 12094.0 998.0Q12085 982 12084.5 959.0Q12084 936 12091 908L12115 832Q12071 903 12028.0 947.0Q11985 991 11945.0 1011.5Q11905 1032 11869 1032ZM11883 982Q11921 982 11967.0 948.0Q12013 914 12063.5 846.0Q12114 778 12164 676L12196 579Q12159 558 12129.0 551.5Q12099 545 12072 545Q12022 545 11980.0 566.5Q11938 588 11905.5 623.5Q11873 659 11851.0 702.5Q11829 746 11817.5 790.5Q11806 835 11806 874Q11806 906 11814.5 930.5Q11823 955 11840.5 968.5Q11858 982 11883 982ZM11694 1505H12335V1515H11694ZM11694 995H12335V1015H11694ZM11694 510H12335V515H11694ZM11694 5H12335V15H11694ZM12167 1032Q12157 1032 12152.0 1024.5Q12147 1017 12148.5 1008.0Q12150 999 12158.5 991.5Q12167 984 12182 984Q12199 984 12226.5 974.0Q12254 964 12299.5 939.5Q12345 915 12414 871Q12423 866 12430.0 869.0Q12437 872 12441.0 880.0Q12445 888 12443.0 897.0Q12441 906 12432 912Q12359 959 12309.0 985.5Q12259 1012 12225.5 1022.0Q12192 1032 12167 1032ZM12335 1505V1515ZM12335 995V1015ZM12335 510V515ZM12335 5V15ZM12431 866Q12502 823 12556.5 785.0Q12611 747 12648.0 714.0Q12685 681 12704.0 651.5Q12723 622 12723 597Q12723 572 12708.5 558.5Q12694 545 12665 545Q12617 545 12578.0 572.0Q12539 599 12511.0 642.0Q12483 685 12468.0 733.0Q12453 781 12453 824Q12453 862 12462.5 892.0Q12472 922 12489.5 942.0Q12507 962 12531.5 973.0Q12556 984 12586 984Q12596 984 12600.0 991.5Q12604 999 12602.0 1008.5Q12600 1018 12593.5 1025.0Q12587 1032 12578 1032Q12518 1032 12478.0 1005.0Q12438 978 12418.0 931.5Q12398 885 12398 828Q12398 775 12417.0 716.5Q12436 658 12472.0 608.5Q12508 559 12558.5 527.5Q12609 496 12672 496Q12710 496 12733.5 509.0Q12757 522 12768.0 543.5Q12779 565 12779 590Q12779 626 12758.5 662.0Q12738 698 12697.5 736.0Q12657 774 12595.0 816.5Q12533 859 12449 909ZM12335 1505H12823V1515H12335ZM12335 995H12823V1015H12335ZM12335 510H12823V515H12335ZM12335 5H12823V15H12335ZM12576 1032Q12567 1032 12562.5 1025.0Q12558 1018 12559.5 1008.0Q12561 998 12567.5 991.0Q12574 984 12585 984Q12637 984 12688.5 953.5Q12740 923 12793.5 868.0Q12847 813 12901.5 739.0Q12956 665 13013 578Q13018 569 13028.5 570.0Q13039 571 13046.0 577.5Q13053 584 13048 593Q12990 686 12932.5 766.0Q12875 846 12817.0 906.0Q12759 966 12699.0 999.0Q12639 1032 12576 1032ZM12822 1505H12872V1515H12822ZM12822 995H12872V1015H12822ZM12822 510H12872V515H12822ZM12822 5H12872V15H12822ZM13058 1034Q13017 1034 12987.0 1026.5Q12957 1019 12936.0 1006.5Q12915 994 12900 981Q12892 974 12892.0 966.0Q12892 958 12899 950Q12907 941 12914.5 940.5Q12922 940 12931 947Q12959 967 12991.5 977.5Q13024 988 13060 988Q13098 988 13128.5 976.5Q13159 965 13177.0 941.5Q13195 918 13195 883Q13195 856 13181.0 837.0Q13167 818 13144.5 803.5Q13122 789 13096.5 775.0Q13071 761 13048.5 744.0Q13026 727 13012.0 703.0Q12998 679 12998 644Q12998 599 13020.0 566.0Q13042 533 13082.0 514.5Q13122 496 13173 496Q13215 496 13247.5 509.0Q13280 522 13301.5 540.0Q13323 558 13333 575Q13339 584 13338.0 589.5Q13337 595 13326 603Q13318 609 13311.0 608.5Q13304 608 13297 601Q13271 573 13241.5 557.5Q13212 542 13168 542Q13117 542 13084.5 567.5Q13052 593 13052 639Q13052 666 13066.5 684.5Q13081 703 13103.5 718.0Q13126 733 13151.5 747.0Q13177 761 13199.5 778.0Q13222 795 13236.5 818.5Q13251 842 13251 876Q13251 929 13224.5 964.0Q13198 999 13154.0 1016.5Q13110 1034 13058 1034ZM12873 1505H13352V1515H12873ZM12873 995H13352V1015H12873ZM12873 510H13352V515H12873ZM12873 5H13352V15H12873Z" fill="currentColor" /></svg>