<svg viewBox="0 0 9095 2030" xmlns="http://www.w3.org/2000/svg"><path d="M131 1295Q114 1295 100.0 1285.0Q86 1275 86 1254Q86 1244 87.5 1222.5Q89 1201 92.0 1156.5Q95 1112 98.5 1034.0Q102 956 106 833Q108 765 109.0 698.0Q110 631 110 565Q110 545 125.0 534.0Q140 523 159 523Q167 523 174.5 524.5Q182 526 195 526Q233 526 270.5 520.5Q308 515 345 515Q410 515 463.0 543.5Q516 572 547.5 623.5Q579 675 579 745Q579 820 547.5 866.0Q516 912 462.0 935.5Q408 959 338.5 967.0Q269 975 193 975Q191 1058 187.0 1114.5Q183 1171 180.0 1204.5Q177 1238 177 1254Q177 1275 162.5 1285.0Q148 1295 131 1295ZM195 891Q248 890 300.0 886.5Q352 883 395.0 869.5Q438 856 464.0 826.5Q490 797 490 743Q490 723 483.0 698.5Q476 674 459.0 651.5Q442 629 412.0 614.5Q382 600 337 600Q303 600 269.0 604.5Q235 609 201 609Q200 680 199.0 751.5Q198 823 195 891ZM703 497Q704 477 717.0 466.0Q730 455 750 455Q763 455 773.5 460.5Q784 466 790.0 475.0Q796 484 795 497Q790 574 788.0 651.0Q786 728 786.5 800.5Q787 873 787 937L783 1050Q783 1118 780.0 1165.0Q777 1212 769 1238Q762 1265 751.0 1276.5Q740 1288 724 1288Q700 1288 688.0 1273.0Q676 1258 680 1231Q683 1211 685.5 1175.0Q688 1139 690.5 1096.0Q693 1053 694.5 1013.5Q696 974 696 947Q696 842 696.5 763.0Q697 684 698.5 620.0Q700 556 703 497ZM901 1040Q901 948 934.5 884.5Q968 821 1023.5 788.0Q1079 755 1144 755Q1168 755 1191.0 759.0Q1214 763 1236.5 770.0Q1259 777 1279 788L1284 770Q1288 758 1300.0 749.5Q1312 741 1325 741Q1345 741 1358.5 753.5Q1372 766 1372 786Q1372 801 1369.0 829.5Q1366 858 1359.5 897.5Q1353 937 1342.5 982.0Q1332 1027 1317 1075Q1317 1125 1324.0 1154.0Q1331 1183 1344.0 1194.5Q1357 1206 1376 1206Q1390 1206 1402.0 1192.0Q1414 1178 1426 1156Q1431 1148 1438.5 1142.5Q1446 1137 1459 1137Q1475 1137 1485.5 1149.5Q1496 1162 1496 1178Q1496 1189 1491.0 1202.5Q1486 1216 1478 1227Q1458 1254 1428.5 1272.0Q1399 1290 1364 1290Q1338 1290 1314.0 1279.0Q1290 1268 1272.5 1245.5Q1255 1223 1245 1190Q1213 1237 1174.0 1260.0Q1135 1283 1085 1283Q1029 1283 987.5 1252.5Q946 1222 923.5 1167.5Q901 1113 901 1040ZM994 1034Q994 1070 1001.0 1100.0Q1008 1130 1021.0 1152.0Q1034 1174 1053.0 1186.0Q1072 1198 1096 1198Q1145 1198 1174.0 1163.0Q1203 1128 1232 1070Q1232 1031 1235.5 993.0Q1239 955 1244.5 923.0Q1250 891 1257 870Q1227 855 1201.5 846.5Q1176 838 1150 838Q1106 838 1070.5 860.5Q1035 883 1014.5 926.5Q994 970 994 1034ZM1588 782Q1588 759 1602.5 749.0Q1617 739 1633 739Q1651 739 1665.0 749.0Q1679 759 1679 782Q1679 818 1676.5 859.5Q1674 901 1671.5 942.5Q1669 984 1669 1021Q1669 1064 1675.5 1105.0Q1682 1146 1698.5 1172.0Q1715 1198 1743 1198Q1786 1198 1820.5 1142.5Q1855 1087 1878 988Q1881 936 1883.5 897.0Q1886 858 1890.0 829.5Q1894 801 1900 780Q1905 759 1917.5 748.0Q1930 737 1952 737Q1972 737 1981.5 747.5Q1991 758 1991 776Q1991 794 1987.5 825.0Q1984 856 1979.0 889.5Q1974 923 1969 950Q1966 999 1964.5 1049.0Q1963 1099 1963 1149Q1963 1177 1963.5 1207.0Q1964 1237 1964 1267Q1964 1326 1954.0 1383.0Q1944 1440 1920.5 1486.0Q1897 1532 1857.0 1559.0Q1817 1586 1758 1586Q1713 1586 1671.0 1567.0Q1629 1548 1600.5 1513.0Q1572 1478 1566 1431Q1564 1416 1571.0 1406.0Q1578 1396 1589.0 1391.5Q1600 1387 1610 1387Q1625 1387 1634.5 1398.0Q1644 1409 1651 1428Q1658 1446 1670.5 1462.5Q1683 1479 1704.5 1489.5Q1726 1500 1758 1500Q1799 1500 1823.0 1471.0Q1847 1442 1859.0 1395.0Q1871 1348 1873.5 1293.0Q1876 1238 1874 1185Q1849 1230 1814.0 1257.0Q1779 1284 1732 1284Q1686 1284 1656.0 1262.0Q1626 1240 1609.5 1203.0Q1593 1166 1586.0 1119.5Q1579 1073 1579 1023Q1579 982 1581.5 936.5Q1584 891 1586.5 850.0Q1589 809 1588 782ZM2163 795Q2164 773 2177.0 763.0Q2190 753 2208 753Q2226 753 2240.5 763.0Q2255 773 2254 793Q2253 802 2253.0 811.5Q2253 821 2252 831Q2281 793 2323.0 769.0Q2365 745 2416 745Q2467 745 2502.0 766.0Q2537 787 2559.0 823.5Q2581 860 2591.0 905.0Q2601 950 2601 998Q2601 1076 2579.0 1130.5Q2557 1185 2520.0 1219.5Q2483 1254 2439.5 1269.5Q2396 1285 2352 1285Q2319 1285 2287.5 1279.0Q2256 1273 2232 1263L2220 1521Q2219 1542 2205.0 1552.0Q2191 1562 2174 1562Q2157 1562 2142.5 1552.0Q2128 1542 2129 1520ZM2235 1180Q2251 1187 2279.5 1194.0Q2308 1201 2353 1201Q2407 1201 2441.5 1172.5Q2476 1144 2492.5 1097.5Q2509 1051 2509 997Q2509 950 2497.5 912.0Q2486 874 2464.5 851.5Q2443 829 2414 829Q2369 829 2336.0 852.0Q2303 875 2283 907Q2267 933 2258.5 955.0Q2250 977 2243 1006Q2241 1049 2239.0 1092.5Q2237 1136 2235 1180ZM2701 1068Q2692 1060 2686.5 1049.5Q2681 1039 2681 1026Q2682 1009 2694.5 997.0Q2707 985 2725 987Q2733 988 2743.5 993.5Q2754 999 2776.0 1004.5Q2798 1010 2838 1010Q2886 1010 2930.0 992.5Q2974 975 3001.5 945.5Q3029 916 3029 880Q3029 857 3015.0 844.0Q3001 831 2981 831Q2950 831 2920.5 847.0Q2891 863 2868.5 891.0Q2846 919 2832.5 956.5Q2819 994 2819 1037Q2819 1093 2834.5 1129.0Q2850 1165 2875.0 1182.0Q2900 1199 2929 1199Q2957 1199 2981.5 1189.5Q3006 1180 3032 1158Q3038 1153 3044.0 1150.5Q3050 1148 3057 1148Q3069 1148 3078.5 1154.0Q3088 1160 3093.0 1170.0Q3098 1180 3098 1192Q3098 1208 3086.0 1222.0Q3074 1236 3045 1251Q3015 1267 2987.0 1275.0Q2959 1283 2930 1283Q2868 1283 2822.5 1252.0Q2777 1221 2753.0 1165.0Q2729 1109 2729 1035Q2729 979 2749.0 928.0Q2769 877 2803.5 836.0Q2838 795 2881.5 771.5Q2925 748 2972 748Q3012 748 3045.0 764.0Q3078 780 3098.5 808.0Q3119 836 3119 873Q3119 936 3082.5 985.5Q3046 1035 2982.0 1063.5Q2918 1092 2836 1092Q2814 1092 2792.0 1090.5Q2770 1089 2751.5 1086.0Q2733 1083 2720.0 1078.5Q2707 1074 2701 1068ZM3247 942Q3247 879 3243.0 845.5Q3239 812 3234.5 796.5Q3230 781 3230 771Q3230 754 3243.0 742.0Q3256 730 3275 730Q3294 730 3307.5 744.0Q3321 758 3327 784Q3329 797 3332.0 817.0Q3335 837 3336 869Q3362 827 3393.5 799.0Q3425 771 3461.0 757.0Q3497 743 3536 743Q3622 743 3666.0 802.5Q3710 862 3710 974Q3710 1014 3704.5 1063.0Q3699 1112 3691.0 1162.5Q3683 1213 3673 1258Q3670 1272 3657.5 1280.5Q3645 1289 3630 1289Q3601 1289 3590.5 1272.0Q3580 1255 3584 1236Q3596 1181 3606.5 1109.0Q3617 1037 3617 972Q3617 899 3596.5 864.0Q3576 829 3526 829Q3490 829 3459.5 845.5Q3429 862 3405.5 893.0Q3382 924 3365.5 968.0Q3349 1012 3340 1067Q3337 1087 3335.5 1112.5Q3334 1138 3334.0 1170.0Q3334 1202 3334 1244Q3334 1263 3321.5 1274.5Q3309 1286 3288 1286Q3275 1286 3264.5 1280.5Q3254 1275 3248.0 1265.5Q3242 1256 3242 1243Q3242 1217 3243.0 1180.5Q3244 1144 3244.5 1102.0Q3245 1060 3246.0 1018.5Q3247 977 3247 942ZM4607 613Q4614 620 4618.0 628.5Q4622 637 4622 645Q4622 658 4615.5 668.5Q4609 679 4598.5 685.0Q4588 691 4577 691Q4570 691 4562.0 687.5Q4554 684 4547 677Q4510 633 4470.0 611.5Q4430 590 4389 590Q4353 590 4325.0 605.5Q4297 621 4280.5 647.0Q4264 673 4264 705Q4264 746 4292.5 776.5Q4321 807 4391 838Q4465 870 4509.5 904.0Q4554 938 4574.5 979.0Q4595 1020 4595 1072Q4595 1120 4576.5 1161.5Q4558 1203 4525.5 1233.5Q4493 1264 4450.5 1281.0Q4408 1298 4360 1296Q4326 1295 4292.0 1285.0Q4258 1275 4227.5 1257.5Q4197 1240 4174 1215Q4161 1201 4155.5 1191.5Q4150 1182 4150 1172Q4150 1159 4156.0 1148.5Q4162 1138 4172.5 1131.5Q4183 1125 4194 1125Q4210 1125 4220.0 1134.0Q4230 1143 4239 1154Q4261 1180 4296.0 1194.5Q4331 1209 4364 1209Q4402 1209 4433.0 1191.5Q4464 1174 4483.0 1144.5Q4502 1115 4502 1080Q4502 1043 4488.5 1016.5Q4475 990 4443.5 968.0Q4412 946 4359 924Q4269 887 4220.0 833.5Q4171 780 4171 707Q4171 652 4201.0 606.0Q4231 560 4281.0 532.0Q4331 504 4390 504Q4429 504 4467.0 516.0Q4505 528 4540.5 552.0Q4576 576 4607 613ZM4727 1040Q4727 948 4760.5 884.5Q4794 821 4849.5 788.0Q4905 755 4970 755Q4994 755 5017.0 759.0Q5040 763 5062.5 770.0Q5085 777 5105 788L5110 770Q5114 758 5126.0 749.5Q5138 741 5151 741Q5171 741 5184.5 753.5Q5198 766 5198 786Q5198 801 5195.0 829.5Q5192 858 5185.5 897.5Q5179 937 5168.5 982.0Q5158 1027 5143 1075Q5143 1125 5150.0 1154.0Q5157 1183 5170.0 1194.5Q5183 1206 5202 1206Q5216 1206 5228.0 1192.0Q5240 1178 5252 1156Q5257 1148 5264.5 1142.5Q5272 1137 5285 1137Q5301 1137 5311.5 1149.5Q5322 1162 5322 1178Q5322 1189 5317.0 1202.5Q5312 1216 5304 1227Q5284 1254 5254.5 1272.0Q5225 1290 5190 1290Q5164 1290 5140.0 1279.0Q5116 1268 5098.5 1245.5Q5081 1223 5071 1190Q5039 1237 5000.0 1260.0Q4961 1283 4911 1283Q4855 1283 4813.5 1252.5Q4772 1222 4749.5 1167.5Q4727 1113 4727 1040ZM4820 1034Q4820 1070 4827.0 1100.0Q4834 1130 4847.0 1152.0Q4860 1174 4879.0 1186.0Q4898 1198 4922 1198Q4971 1198 5000.0 1163.0Q5029 1128 5058 1070Q5058 1031 5061.5 993.0Q5065 955 5070.5 923.0Q5076 891 5083 870Q5053 855 5027.5 846.5Q5002 838 4976 838Q4932 838 4896.5 860.5Q4861 883 4840.5 926.5Q4820 970 4820 1034ZM5427 763Q5430 750 5437.0 743.0Q5444 736 5453.5 733.0Q5463 730 5471 730Q5489 730 5502.5 741.5Q5516 753 5516 770Q5516 775 5514.0 790.5Q5512 806 5510.0 824.0Q5508 842 5507 858Q5540 801 5584.5 766.0Q5629 731 5685 731Q5771 731 5814.0 794.5Q5857 858 5857 962Q5857 1000 5853.0 1036.5Q5849 1073 5843.0 1108.5Q5837 1144 5833.0 1178.5Q5829 1213 5829 1246Q5829 1268 5815.0 1278.0Q5801 1288 5784 1288Q5766 1288 5751.5 1278.0Q5737 1268 5737 1247Q5737 1210 5741.0 1175.5Q5745 1141 5751.0 1106.5Q5757 1072 5761.0 1036.5Q5765 1001 5765 964Q5765 905 5752.0 873.0Q5739 841 5718.0 829.0Q5697 817 5671 817Q5639 817 5610.0 842.0Q5581 867 5555.0 912.0Q5529 957 5507 1016Q5507 1091 5505.0 1145.5Q5503 1200 5501 1244Q5500 1263 5486.0 1274.5Q5472 1286 5452 1286Q5423 1286 5413.0 1261.0Q5403 1236 5403 1203Q5403 1178 5404.0 1152.5Q5405 1127 5408.5 1100.5Q5412 1074 5417 1048Q5416 991 5416.0 949.0Q5416 907 5417.0 874.5Q5418 842 5420.5 815.0Q5423 788 5427 763ZM6351 842Q6351 858 6340.0 868.5Q6329 879 6310 879Q6294 879 6282.0 870.5Q6270 862 6256 850Q6239 836 6217.5 828.0Q6196 820 6170 820Q6135 820 6112.0 837.0Q6089 854 6089 880Q6089 896 6097.0 908.5Q6105 921 6128.5 935.5Q6152 950 6199 974Q6270 1008 6300.0 1046.5Q6330 1085 6330 1142Q6330 1184 6304.5 1218.5Q6279 1253 6235.5 1274.0Q6192 1295 6136 1295Q6105 1295 6073.0 1285.5Q6041 1276 6014.0 1260.5Q5987 1245 5970.5 1226.5Q5954 1208 5954 1190Q5954 1173 5965.5 1161.0Q5977 1149 5993 1149Q6001 1149 6009.5 1153.0Q6018 1157 6031 1168Q6042 1177 6056.5 1187.0Q6071 1197 6091.5 1204.5Q6112 1212 6140 1212Q6179 1212 6208.0 1190.0Q6237 1168 6237 1139Q6237 1110 6217.0 1089.0Q6197 1068 6143 1043Q6066 1007 6031.5 970.0Q5997 933 5997 885Q5997 843 6019.5 809.5Q6042 776 6081.5 756.5Q6121 737 6171 737Q6215 737 6256.0 753.5Q6297 770 6324.0 794.0Q6351 818 6351 842ZM6805 564Q6805 549 6812.0 540.0Q6819 531 6829.5 526.5Q6840 522 6851 522Q6868 522 6882.5 532.0Q6897 542 6896 564Q6895 739 6890.0 914.5Q6885 1090 6876 1265Q6876 1287 6862.0 1297.0Q6848 1307 6830 1307Q6819 1307 6808.5 1302.5Q6798 1298 6791.5 1288.5Q6785 1279 6785 1264Q6794 1090 6799.0 914.5Q6804 739 6805 564ZM6865 617Q6844 619 6834.0 605.5Q6824 592 6824 576Q6824 559 6834.0 546.5Q6844 534 6865 531Q6886 527 6909.0 526.0Q6932 525 6956 525Q7069 525 7152.5 555.5Q7236 586 7290.5 640.0Q7345 694 7371.5 764.0Q7398 834 7398 913Q7398 1004 7366.0 1074.5Q7334 1145 7276.5 1193.0Q7219 1241 7142.5 1265.5Q7066 1290 6976 1290Q6930 1290 6900.5 1289.0Q6871 1288 6840 1284Q6821 1282 6809.5 1268.5Q6798 1255 6798 1238Q6798 1215 6812.5 1206.0Q6827 1197 6840 1198Q6869 1200 6895.0 1202.0Q6921 1204 6952 1204Q7073 1204 7151.5 1166.0Q7230 1128 7268.0 1062.5Q7306 997 7306 914Q7306 856 7288.5 801.5Q7271 747 7231.0 704.0Q7191 661 7124.5 636.0Q7058 611 6959 611Q6935 611 6911.5 612.5Q6888 614 6865 617ZM7746 1280Q7691 1280 7648.0 1258.0Q7605 1236 7575.0 1198.5Q7545 1161 7529.5 1114.5Q7514 1068 7514 1020Q7514 969 7534.5 919.0Q7555 869 7591.5 827.0Q7628 785 7676.0 760.0Q7724 735 7779 735Q7822 735 7854.5 752.5Q7887 770 7905.5 800.0Q7924 830 7924 870Q7924 912 7903.0 949.5Q7882 987 7844 1010Q7793 1045 7732.5 1058.5Q7672 1072 7610 1074Q7618 1103 7636.0 1131.0Q7654 1159 7682.5 1177.5Q7711 1196 7750 1196Q7787 1196 7821.5 1174.5Q7856 1153 7881 1125Q7887 1117 7894.5 1114.0Q7902 1111 7909 1111Q7921 1111 7931.0 1117.0Q7941 1123 7947.0 1133.0Q7953 1143 7953 1155Q7954 1163 7951.0 1170.5Q7948 1178 7941 1185Q7904 1225 7854.5 1252.5Q7805 1280 7746 1280ZM7606 992Q7646 990 7680.0 985.5Q7714 981 7751 966Q7784 953 7809.0 928.5Q7834 904 7834 869Q7834 855 7827.5 843.5Q7821 832 7808.5 824.5Q7796 817 7776 817Q7744 817 7715.0 833.0Q7686 849 7663.0 874.5Q7640 900 7625.5 931.0Q7611 962 7606 992ZM8018 797Q8017 792 8016.0 788.5Q8015 785 8015 781Q8015 763 8029.5 751.5Q8044 740 8062 740Q8077 740 8088.5 747.5Q8100 755 8104 771Q8119 817 8135.5 862.5Q8152 908 8169.0 955.0Q8186 1002 8202.5 1050.0Q8219 1098 8234 1148Q8256 1093 8276.0 1042.5Q8296 992 8315.5 945.5Q8335 899 8355.5 854.0Q8376 809 8399 766Q8405 754 8414.5 748.5Q8424 743 8434 743Q8446 743 8457.5 749.0Q8469 755 8476.5 764.5Q8484 774 8484 786Q8484 791 8482.0 798.0Q8480 805 8472 818Q8460 840 8439.0 885.5Q8418 931 8392.5 988.0Q8367 1045 8342.5 1102.0Q8318 1159 8298.5 1204.5Q8279 1250 8270 1272Q8266 1283 8254.5 1288.5Q8243 1294 8229 1294Q8213 1294 8199.5 1285.5Q8186 1277 8181 1261Q8165 1202 8145.0 1144.0Q8125 1086 8103.0 1028.0Q8081 970 8059.5 912.5Q8038 855 8018 797ZM8533 1057Q8533 998 8550.0 941.5Q8567 885 8598.0 839.0Q8629 793 8673.0 765.5Q8717 738 8772 738Q8795 738 8825.0 745.0Q8855 752 8881 769Q8885 751 8896.0 743.0Q8907 735 8923 735Q8940 735 8954.5 747.0Q8969 759 8968 780Q8968 828 8963.5 866.0Q8959 904 8954.5 946.0Q8950 988 8950 1049Q8950 1107 8954.5 1146.0Q8959 1185 8972 1205Q8981 1200 8990.0 1193.5Q8999 1187 9007.5 1179.0Q9016 1171 9022 1164Q9028 1158 9035.0 1155.0Q9042 1152 9049 1152Q9066 1152 9078.0 1163.5Q9090 1175 9090 1192Q9090 1199 9086.5 1207.0Q9083 1215 9075 1223Q9042 1257 9014.0 1273.0Q8986 1289 8963 1289Q8942 1289 8924.0 1275.5Q8906 1262 8893.5 1238.5Q8881 1215 8875 1186Q8858 1214 8835.5 1237.0Q8813 1260 8785.0 1273.5Q8757 1287 8722 1287Q8664 1287 8621.0 1254.0Q8578 1221 8555.5 1168.5Q8533 1116 8533 1057ZM8627 1048Q8626 1118 8653.0 1160.0Q8680 1202 8723 1202Q8760 1202 8785.0 1178.0Q8810 1154 8825.5 1114.5Q8841 1075 8850.0 1028.5Q8859 982 8863.5 936.0Q8868 890 8871 853Q8858 842 8840.5 835.5Q8823 829 8806.0 825.5Q8789 822 8776 822Q8735 822 8701.5 851.0Q8668 880 8648.0 931.0Q8628 982 8627 1048Z" fill="currentColor" /></svg>