<svg viewBox="0 0 11589 1899" xmlns="http://www.w3.org/2000/svg"><path d="M490 1021Q476 1022 470.5 1015.5Q465 1009 467 997Q468 985 474.5 978.5Q481 972 494 972Q571 969 642.0 955.0Q713 941 772.5 914.5Q832 888 876.5 850.0Q921 812 945.5 761.5Q970 711 970 649Q970 600 949.5 565.0Q929 530 892.5 507.0Q856 484 806.5 472.5Q757 461 698 461Q623 461 553.0 474.5Q483 488 417.5 515.5Q352 543 290 586Q278 595 269.5 593.0Q261 591 253 581Q247 572 248.5 563.0Q250 554 261 546Q308 512 360.0 486.5Q412 461 468.0 444.0Q524 427 583.0 418.5Q642 410 703 410Q777 410 837.0 425.5Q897 441 939.5 471.0Q982 501 1004.5 545.0Q1027 589 1027 646Q1027 718 999.5 776.5Q972 835 922.0 879.5Q872 924 805.0 954.0Q738 984 658.0 1001.0Q578 1018 490 1021ZM146 1427Q110 1427 81.5 1412.0Q53 1397 33.0 1368.0Q13 1339 0 1299Q-3 1288 0.5 1280.0Q4 1272 15 1268Q28 1264 34.5 1267.0Q41 1270 46 1281Q59 1317 74.5 1337.5Q90 1358 109.0 1366.5Q128 1375 151 1375Q188 1375 216.5 1340.5Q245 1306 272 1226L483 582Q486 571 493.5 567.0Q501 563 516 563Q530 563 536.0 567.5Q542 572 539 583L325 1233Q305 1297 279.5 1340.5Q254 1384 221.5 1405.5Q189 1427 146 1427ZM0 1885H919V1895H0ZM0 1390H919V1410H0ZM0 905H919V910H0ZM0 415H919V425H0ZM747 1427Q736 1427 732.5 1419.5Q729 1412 731.5 1403.0Q734 1394 741.5 1386.5Q749 1379 761 1379Q790 1379 829.0 1357.5Q868 1336 914.5 1297.5Q961 1259 1010.0 1208.0Q1059 1157 1109.0 1097.5Q1159 1038 1205.5 974.0Q1252 910 1291.5 845.5Q1331 781 1361.0 720.0Q1391 659 1408.0 606.0Q1425 553 1425 513Q1425 502 1433.0 496.5Q1441 491 1452.0 491.0Q1463 491 1471.0 496.5Q1479 502 1479 513Q1479 555 1461.5 611.0Q1444 667 1412.0 731.0Q1380 795 1337.0 863.0Q1294 931 1244.0 999.0Q1194 1067 1140.0 1130.0Q1086 1193 1031.5 1247.0Q977 1301 925.5 1341.5Q874 1382 828.5 1404.5Q783 1427 747 1427ZM1142 1427Q1087 1427 1054.0 1399.0Q1021 1371 1016.0 1316.0Q1011 1261 1037 1183L1227 595Q1259 496 1297.5 451.0Q1336 406 1387 406Q1417 406 1437.5 419.5Q1458 433 1468.5 457.0Q1479 481 1479 513Q1479 525 1471.0 531.5Q1463 538 1452.0 538.0Q1441 538 1433.0 531.5Q1425 525 1425 513Q1425 495 1420.5 482.5Q1416 470 1406.5 463.5Q1397 457 1382 457Q1362 457 1345.0 472.0Q1328 487 1311.5 521.0Q1295 555 1277 611L1088 1196Q1067 1261 1069.0 1301.0Q1071 1341 1093.5 1360.0Q1116 1379 1157 1379Q1167 1379 1171.5 1386.5Q1176 1394 1174.0 1403.0Q1172 1412 1163.5 1419.5Q1155 1427 1142 1427ZM906 1885H1300V1895H906ZM906 1390H1300V1410H906ZM906 905H1300V910H906ZM906 415H1300V425H906ZM1143 1427Q1132 1427 1127.5 1419.5Q1123 1412 1124.5 1403.0Q1126 1394 1134.5 1386.5Q1143 1379 1158 1379Q1186 1379 1217.0 1362.5Q1248 1346 1279.0 1317.0Q1310 1288 1338.0 1248.5Q1366 1209 1389 1163Q1394 1153 1403.0 1153.5Q1412 1154 1418.5 1160.5Q1425 1167 1420 1177Q1395 1231 1364.0 1277.0Q1333 1323 1297.0 1356.5Q1261 1390 1222.5 1408.5Q1184 1427 1143 1427ZM1300 1885V1895ZM1300 1390V1410ZM1300 905V910ZM1300 415V425ZM1489 1427Q1450 1427 1421.5 1408.0Q1393 1389 1378.0 1353.0Q1363 1317 1363 1269Q1363 1225 1376.0 1174.0Q1389 1123 1415.0 1073.0Q1441 1023 1480.0 981.5Q1519 940 1571.0 915.5Q1623 891 1688 891Q1726 891 1765.5 904.5Q1805 918 1836 941L1824 985Q1782 958 1748.0 949.0Q1714 940 1683 940Q1631 940 1589.0 961.0Q1547 982 1515.0 1017.5Q1483 1053 1462.0 1095.5Q1441 1138 1430.0 1182.0Q1419 1226 1419 1264Q1419 1299 1428.5 1324.0Q1438 1349 1456.5 1363.0Q1475 1377 1503 1377Q1540 1377 1583.5 1347.5Q1627 1318 1673.5 1257.5Q1720 1197 1766 1105L1780 1144Q1730 1249 1677.5 1311.0Q1625 1373 1577.0 1400.0Q1529 1427 1489 1427ZM1777 1427Q1749 1427 1730.0 1417.0Q1711 1407 1702.0 1388.0Q1693 1369 1693.5 1343.0Q1694 1317 1704 1285L1824 916Q1829 904 1835.5 899.5Q1842 895 1855 895Q1873 895 1878.0 902.5Q1883 910 1879 922L1758 1288Q1742 1337 1751.5 1358.0Q1761 1379 1792 1379Q1801 1379 1805.0 1386.5Q1809 1394 1807.5 1403.0Q1806 1412 1798.5 1419.5Q1791 1427 1777 1427ZM1300 1885H1935V1895H1300ZM1300 1390H1935V1410H1300ZM1300 905H1935V910H1300ZM1300 415H1935V425H1300ZM1779 1427Q1768 1427 1764.5 1419.5Q1761 1412 1763.5 1403.0Q1766 1394 1773.5 1386.5Q1781 1379 1793 1379Q1810 1379 1831.5 1367.5Q1853 1356 1878.5 1330.5Q1904 1305 1933.5 1261.5Q1963 1218 1995 1153Q2038 1071 2070.0 1019.5Q2102 968 2127.5 940.5Q2153 913 2176.5 903.0Q2200 893 2226 893Q2236 893 2238.5 900.5Q2241 908 2238.5 917.0Q2236 926 2230.0 933.5Q2224 941 2217 941Q2201 941 2184.5 950.5Q2168 960 2148.5 983.5Q2129 1007 2103.0 1050.5Q2077 1094 2041 1162Q2001 1241 1966.0 1292.5Q1931 1344 1899.5 1373.0Q1868 1402 1838.5 1414.5Q1809 1427 1779 1427ZM1935 1885H2035V1895H1935ZM1935 1390H2035V1410H1935ZM1935 905H2035V910H1935ZM1935 415H2035V425H1935ZM2197 1914Q2144 1914 2116.0 1885.0Q2088 1856 2088 1810Q2088 1772 2104.0 1735.5Q2120 1699 2150.0 1664.0Q2180 1629 2222.5 1594.5Q2265 1560 2318 1526Q2339 1511 2360.0 1498.0Q2381 1485 2401.5 1472.0Q2422 1459 2443 1447L2510 1243Q2478 1294 2444.5 1329.5Q2411 1365 2378.5 1386.0Q2346 1407 2316.0 1416.5Q2286 1426 2260 1426Q2217 1426 2188.0 1405.5Q2159 1385 2151.5 1343.5Q2144 1302 2165 1238L2239 1016Q2251 977 2245.5 959.0Q2240 941 2217 941Q2206 941 2201.0 933.5Q2196 926 2197.5 917.0Q2199 908 2206.0 900.5Q2213 893 2226 893Q2251 893 2268.5 902.0Q2286 911 2294.5 928.5Q2303 946 2302.0 970.5Q2301 995 2291 1025L2219 1245Q2205 1287 2206.0 1316.5Q2207 1346 2224.0 1361.0Q2241 1376 2274 1376Q2304 1376 2339.0 1360.0Q2374 1344 2412.0 1309.5Q2450 1275 2488.0 1219.5Q2526 1164 2561 1085L2616 916Q2620 904 2626.5 899.5Q2633 895 2646 895Q2663 895 2668.5 902.0Q2674 909 2669 922L2426 1670Q2407 1728 2384.0 1773.5Q2361 1819 2333.0 1850.5Q2305 1882 2271.5 1898.0Q2238 1914 2197 1914ZM2205 1865Q2241 1865 2271.5 1841.0Q2302 1817 2327.5 1771.5Q2353 1726 2372 1664L2422 1513Q2408 1522 2393.5 1531.0Q2379 1540 2364.5 1549.0Q2350 1558 2336 1567Q2290 1600 2254.0 1630.0Q2218 1660 2194.0 1689.0Q2170 1718 2157.5 1746.5Q2145 1775 2145 1804Q2145 1822 2151.5 1835.5Q2158 1849 2171.5 1857.0Q2185 1865 2205 1865ZM2035 1885H2725V1895H2035ZM2035 1390H2725V1410H2035ZM2035 905H2725V910H2035ZM2035 415H2725V425H2035ZM2476 1486Q2468 1491 2461.0 1487.5Q2454 1484 2450.5 1476.0Q2447 1468 2449.5 1459.0Q2452 1450 2463 1444Q2538 1401 2594.5 1351.0Q2651 1301 2693.5 1248.0Q2736 1195 2768.0 1143.5Q2800 1092 2826.0 1047.0Q2852 1002 2877.5 967.5Q2903 933 2931.5 913.0Q2960 893 2996 893Q3008 893 3012.5 900.5Q3017 908 3015.5 917.0Q3014 926 3006.5 933.5Q2999 941 2987 941Q2962 941 2940.5 961.0Q2919 981 2897.0 1015.5Q2875 1050 2849.0 1095.5Q2823 1141 2789.5 1192.0Q2756 1243 2712.0 1295.5Q2668 1348 2610.0 1396.5Q2552 1445 2476 1486ZM2725 1885H2831V1895H2725ZM2725 1390H2831V1410H2725ZM2725 905H2831V910H2725ZM2725 415H2831V425H2725ZM3035 1429Q2996 1429 2971.0 1414.0Q2946 1399 2934.5 1372.0Q2923 1345 2924.0 1309.0Q2925 1273 2939 1230L3009 1015Q3022 977 3017.0 959.0Q3012 941 2988 941Q2977 941 2972.0 933.5Q2967 926 2968.5 917.0Q2970 908 2977.0 900.5Q2984 893 2997 893Q3021 893 3037.5 902.0Q3054 911 3062.0 928.0Q3070 945 3069.5 969.5Q3069 994 3059 1025L2992 1235Q2979 1276 2978.5 1309.0Q2978 1342 2993.5 1361.0Q3009 1380 3043 1380Q3075 1380 3106.5 1363.0Q3138 1346 3167.0 1315.5Q3196 1285 3221.0 1245.0Q3246 1205 3262 1158L3341 916Q3345 905 3351.5 900.5Q3358 896 3371 896Q3388 896 3392.5 901.5Q3397 907 3394 919L3300 1209Q3288 1246 3283.5 1277.0Q3279 1308 3284.0 1331.0Q3289 1354 3305.5 1367.0Q3322 1380 3352 1380Q3393 1380 3430.0 1357.5Q3467 1335 3498.0 1298.0Q3529 1261 3552.0 1215.5Q3575 1170 3588.5 1123.0Q3602 1076 3603 1035Q3604 1023 3604.0 1012.5Q3604 1002 3603 993Q3581 979 3572.0 963.0Q3563 947 3563 929Q3563 913 3573.0 902.0Q3583 891 3600 891Q3613 891 3623.0 900.5Q3633 910 3640.5 927.0Q3648 944 3651.5 967.0Q3655 990 3655 1018Q3655 1067 3640.5 1123.0Q3626 1179 3599.0 1233.0Q3572 1287 3533.5 1331.5Q3495 1376 3447.0 1402.5Q3399 1429 3344 1429Q3305 1429 3278.5 1414.5Q3252 1400 3239.5 1371.5Q3227 1343 3229 1301Q3204 1342 3172.5 1370.5Q3141 1399 3106.0 1414.0Q3071 1429 3035 1429ZM2831 1885H3719V1895H2831ZM2831 1390H3719V1410H2831ZM2831 905H3719V910H2831ZM2831 415H3719V425H2831ZM3760 1152Q3732 1152 3706.0 1138.0Q3680 1124 3657.0 1088.0Q3634 1052 3614 987Q3610 975 3617.0 967.5Q3624 960 3634.0 960.5Q3644 961 3648 973Q3665 1023 3683.0 1053.0Q3701 1083 3720.5 1096.0Q3740 1109 3762 1109Q3797 1109 3831.0 1068.0Q3865 1027 3896 940Q3901 929 3909.5 925.0Q3918 921 3926.5 923.0Q3935 925 3939.5 931.0Q3944 937 3940 947Q3916 1018 3888.0 1063.5Q3860 1109 3828.0 1130.5Q3796 1152 3760 1152ZM3718 1885V1895ZM3718 1390V1410ZM3718 905V910ZM3718 415V425ZM4130 1427Q4102 1427 4082.5 1417.0Q4063 1407 4052.5 1388.5Q4042 1370 4042.0 1344.5Q4042 1319 4052 1288Q4059 1266 4072.0 1235.5Q4085 1205 4100.0 1170.5Q4115 1136 4129.0 1101.5Q4143 1067 4151 1036Q4163 991 4152.0 974.0Q4141 957 4113 957Q4087 957 4056.0 965.0Q4025 973 3994.5 981.0Q3964 989 3937 989Q3922 989 3910.5 981.0Q3899 973 3893.5 957.5Q3888 942 3888 920Q3888 902 3894.0 886.0Q3900 870 3912.0 860.0Q3924 850 3940 850Q3954 850 3961.0 859.0Q3968 868 3968 882Q3968 893 3963.0 909.5Q3958 926 3948 943Q3966 943 3987.5 937.5Q4009 932 4033.5 924.5Q4058 917 4083.0 911.5Q4108 906 4131 906Q4162 906 4182.0 920.0Q4202 934 4208.0 964.0Q4214 994 4202 1043Q4194 1071 4180.0 1105.5Q4166 1140 4151.0 1175.0Q4136 1210 4123.0 1241.0Q4110 1272 4104 1295Q4091 1338 4100.0 1358.5Q4109 1379 4144 1379Q4154 1379 4158.0 1386.5Q4162 1394 4160.0 1403.0Q4158 1412 4150.5 1419.5Q4143 1427 4130 1427ZM3719 1885H4287V1895H3719ZM3719 1390H4287V1410H3719ZM3719 905H4287V910H3719ZM3719 415H4287V425H3719ZM4129 1427Q4118 1427 4113.5 1419.5Q4109 1412 4110.5 1403.0Q4112 1394 4120.5 1386.5Q4129 1379 4144 1379Q4174 1379 4206.5 1361.0Q4239 1343 4276.5 1306.0Q4314 1269 4356.5 1213.0Q4399 1157 4448 1080Q4455 1069 4464.0 1070.5Q4473 1072 4478.0 1080.0Q4483 1088 4477 1098Q4424 1185 4378.5 1248.0Q4333 1311 4292.0 1350.5Q4251 1390 4211.0 1408.5Q4171 1427 4129 1427ZM4286 1885V1895ZM4286 1390V1410ZM4286 905V910ZM4286 415V425ZM4455 1427Q4425 1427 4405.0 1417.0Q4385 1407 4375.5 1387.5Q4366 1368 4367.0 1340.5Q4368 1313 4380 1278L4498 916Q4502 904 4508.0 899.5Q4514 895 4528 895Q4544 895 4550.0 901.0Q4556 907 4552 919L4434 1281Q4417 1332 4424.0 1355.5Q4431 1379 4469 1379Q4480 1379 4484.0 1386.5Q4488 1394 4486.5 1403.0Q4485 1412 4477.0 1419.5Q4469 1427 4455 1427ZM4586 727Q4569 727 4557.5 718.0Q4546 709 4546 691Q4546 667 4561.0 647.5Q4576 628 4603 628Q4621 628 4632.0 637.0Q4643 646 4643 665Q4643 688 4628.5 707.5Q4614 727 4586 727ZM4287 1885H4612V1895H4287ZM4287 1390H4612V1410H4287ZM4287 905H4612V910H4287ZM4287 415H4612V425H4287ZM4456 1427Q4445 1427 4441.0 1419.5Q4437 1412 4438.5 1403.0Q4440 1394 4447.0 1386.5Q4454 1379 4465 1379Q4491 1379 4528.0 1351.5Q4565 1324 4609.0 1276.0Q4653 1228 4701.0 1164.0Q4749 1100 4799.0 1026.0Q4849 952 4897.0 873.0Q4945 794 4988.5 715.5Q5032 637 5068.0 564.5Q5104 492 5130 432Q5134 424 5141.0 420.0Q5148 416 5156.0 416.0Q5164 416 5168.5 420.5Q5173 425 5170 432Q5143 499 5105.0 577.0Q5067 655 5022.0 738.0Q4977 821 4927.5 904.0Q4878 987 4826.5 1064.0Q4775 1141 4723.5 1207.0Q4672 1273 4624.0 1322.5Q4576 1372 4533.0 1399.5Q4490 1427 4456 1427ZM4612 1885H4637V1895H4612ZM4612 1390H4637V1410H4612ZM4612 905H4637V910H4612ZM4612 415H4637V425H4612ZM4836 1424Q4824 1424 4817.5 1419.5Q4811 1415 4814 1403L5129 432Q5133 420 5140.0 415.5Q5147 411 5160 411Q5176 411 5181.5 416.5Q5187 422 5182 434L4867 1406Q4864 1415 4857.5 1419.5Q4851 1424 4836 1424ZM4637 1885H5151V1895H4637ZM4637 1390H5151V1410H4637ZM4637 905H5151V910H4637ZM4637 415H5151V425H4637ZM4930 1400Q4863 1400 4817.0 1383.5Q4771 1367 4747.0 1341.5Q4723 1316 4723 1287Q4723 1261 4740.0 1243.5Q4757 1226 4784 1226Q4811 1226 4832.0 1241.5Q4853 1257 4862.0 1281.0Q4871 1305 4862 1333L4835 1346Q4842 1322 4835.5 1305.0Q4829 1288 4815.5 1278.5Q4802 1269 4789 1269Q4780 1269 4775.0 1273.0Q4770 1277 4770 1286Q4770 1301 4786.5 1318.0Q4803 1335 4839.0 1346.5Q4875 1358 4933 1358Q4978 1358 5029.0 1348.0Q5080 1338 5132.5 1319.0Q5185 1300 5235 1272Q5242 1267 5249.0 1271.0Q5256 1275 5260.0 1282.5Q5264 1290 5262.0 1298.0Q5260 1306 5251 1311Q5202 1339 5147.0 1359.0Q5092 1379 5036.5 1389.5Q4981 1400 4930 1400ZM5151 1885V1895ZM5151 1390V1410ZM5151 905V910ZM5151 415V425ZM5245 1294Q5272 1277 5297.5 1257.5Q5323 1238 5345 1218Q5387 1183 5418.0 1147.0Q5449 1111 5466.5 1075.0Q5484 1039 5484 1004Q5484 974 5469.0 957.0Q5454 940 5424 940Q5385 940 5355.0 966.0Q5325 992 5304.5 1031.5Q5284 1071 5274.0 1114.5Q5264 1158 5264 1194Q5264 1235 5274.0 1268.5Q5284 1302 5302.5 1327.0Q5321 1352 5348.0 1365.5Q5375 1379 5408 1379Q5442 1379 5473.0 1366.0Q5504 1353 5532.5 1332.0Q5561 1311 5585 1288Q5593 1279 5601.5 1280.0Q5610 1281 5617 1288Q5624 1295 5625.5 1303.0Q5627 1311 5619 1321Q5594 1348 5560.0 1372.5Q5526 1397 5485.0 1412.5Q5444 1428 5399 1428Q5364 1428 5335.0 1416.0Q5306 1404 5282.5 1383.0Q5259 1362 5243.0 1333.0Q5227 1304 5218.0 1269.0Q5209 1234 5209 1195Q5209 1157 5218.0 1115.5Q5227 1074 5245.5 1034.0Q5264 994 5291.0 961.5Q5318 929 5354.0 910.0Q5390 891 5436 891Q5470 891 5493.0 904.5Q5516 918 5527.5 941.0Q5539 964 5539 996Q5539 1039 5519.0 1082.5Q5499 1126 5462.0 1168.5Q5425 1211 5375 1253Q5350 1275 5322.0 1296.0Q5294 1317 5265 1335ZM5151 1885H5595V1895H5151ZM5151 1390H5595V1410H5151ZM5151 905H5595V910H5151ZM5151 415H5595V425H5151ZM6337 1429Q6270 1429 6216.0 1405.5Q6162 1382 6124.5 1338.0Q6087 1294 6067.0 1231.5Q6047 1169 6047 1091Q6047 1009 6065.0 927.5Q6083 846 6118.0 770.0Q6153 694 6202.5 628.5Q6252 563 6315.0 514.0Q6378 465 6452.5 437.5Q6527 410 6612 410Q6669 410 6716.0 423.0Q6763 436 6800.0 461.0Q6837 486 6863 524Q6870 534 6866.5 541.5Q6863 549 6851 556Q6841 562 6834.0 560.0Q6827 558 6816 547Q6780 505 6727.5 484.0Q6675 463 6605 463Q6533 463 6468.5 488.0Q6404 513 6348.0 557.5Q6292 602 6247.5 661.5Q6203 721 6171.0 791.0Q6139 861 6122.5 936.0Q6106 1011 6106 1086Q6106 1154 6121.5 1208.0Q6137 1262 6167.5 1299.0Q6198 1336 6242.5 1355.5Q6287 1375 6344 1375Q6386 1375 6426.0 1363.5Q6466 1352 6505.5 1329.5Q6545 1307 6583.0 1274.5Q6621 1242 6659 1199Q6667 1190 6675.0 1190.5Q6683 1191 6692 1200Q6701 1208 6701.5 1216.0Q6702 1224 6692 1234Q6635 1301 6575.0 1344.5Q6515 1388 6455.0 1408.5Q6395 1429 6337 1429ZM5895 1885H6745V1895H5895ZM5895 1390H6745V1410H5895ZM5895 905H6745V910H5895ZM5895 415H6745V425H5895ZM7259 1427Q7217 1427 7176.0 1418.5Q7135 1410 7096.0 1399.0Q7057 1388 7020.5 1379.5Q6984 1371 6949 1371Q6920 1371 6894.0 1376.5Q6868 1382 6843.5 1392.5Q6819 1403 6792 1419Q6782 1424 6770.5 1424.0Q6759 1424 6752 1414Q6745 1404 6748.0 1396.0Q6751 1388 6761 1378L7634 496Q7615 503 7595.5 507.0Q7576 511 7552 511Q7517 511 7488.0 503.5Q7459 496 7432.0 486.5Q7405 477 7376.0 469.5Q7347 462 7313 462Q7274 462 7234.0 475.0Q7194 488 7155.0 511.5Q7116 535 7079 569Q7070 577 7061.5 577.0Q7053 577 7044 567Q7035 558 7035.5 550.0Q7036 542 7045 533Q7090 493 7133.5 466.0Q7177 439 7222.0 425.5Q7267 412 7316 412Q7356 412 7387.5 419.5Q7419 427 7447.0 437.0Q7475 447 7503.5 455.0Q7532 463 7564 463Q7605 463 7636.5 454.5Q7668 446 7703 427Q7713 422 7721.5 421.0Q7730 420 7737 429Q7747 438 7745.0 446.0Q7743 454 7732 465L6873 1336Q6894 1329 6917.0 1325.0Q6940 1321 6967 1321Q7005 1321 7042.0 1329.5Q7079 1338 7115.5 1349.0Q7152 1360 7189.5 1368.5Q7227 1377 7266 1377Q7321 1377 7371.0 1356.5Q7421 1336 7465.5 1295.5Q7510 1255 7546 1196Q7552 1186 7560.0 1184.0Q7568 1182 7579 1188Q7593 1195 7595.5 1203.0Q7598 1211 7591 1221Q7549 1290 7497.5 1335.5Q7446 1381 7386.5 1404.0Q7327 1427 7259 1427ZM6745 1885H7663V1895H6745ZM6745 1390H7663V1410H6745ZM6745 905H7663V910H6745ZM6745 415H7663V425H6745ZM8404 1914Q8368 1914 8340.0 1901.0Q8312 1888 8296.5 1863.5Q8281 1839 8281 1804Q8281 1791 8289.5 1784.5Q8298 1778 8309.5 1777.5Q8321 1777 8329.5 1783.0Q8338 1789 8338 1801Q8338 1831 8357.0 1847.5Q8376 1864 8410 1864Q8467 1864 8514.5 1811.5Q8562 1759 8595 1657L8765 1129Q8723 1194 8678.0 1243.5Q8633 1293 8585.0 1327.0Q8537 1361 8486.5 1378.5Q8436 1396 8384 1396Q8322 1396 8271.5 1374.0Q8221 1352 8185.0 1310.5Q8149 1269 8130.0 1210.0Q8111 1151 8111 1077Q8111 989 8131.5 906.0Q8152 823 8190.0 748.5Q8228 674 8280.0 612.0Q8332 550 8396.0 504.5Q8460 459 8531.5 434.5Q8603 410 8679 410Q8738 410 8789.0 423.5Q8840 437 8881.0 462.5Q8922 488 8953 523Q8960 530 8959.0 538.0Q8958 546 8948 555Q8938 563 8929.5 561.5Q8921 560 8912 552Q8881 522 8845.0 502.5Q8809 483 8767.0 473.0Q8725 463 8676 463Q8608 463 8544.5 486.0Q8481 509 8424.5 551.0Q8368 593 8321.0 650.5Q8274 708 8240.0 776.5Q8206 845 8187.5 921.0Q8169 997 8169 1076Q8169 1140 8184.5 1189.5Q8200 1239 8229.0 1273.0Q8258 1307 8298.5 1324.5Q8339 1342 8390 1342Q8443 1342 8499.0 1318.5Q8555 1295 8611.5 1245.5Q8668 1196 8722.5 1120.0Q8777 1044 8826 939Q8830 929 8837.5 924.5Q8845 920 8860 920Q8889 920 8882 939L8649 1660Q8622 1744 8586.0 1800.5Q8550 1857 8505.0 1885.5Q8460 1914 8404 1914ZM7963 1885H8908V1895H7963ZM7963 1390H8908V1410H7963ZM7963 905H8908V910H7963ZM7963 415H8908V425H7963ZM8280 1804Q8280 1764 8297.0 1725.5Q8314 1687 8347.0 1648.5Q8380 1610 8429.5 1571.5Q8479 1533 8543.0 1495.0Q8607 1457 8685 1419Q8737 1395 8784.0 1368.5Q8831 1342 8873.5 1314.0Q8916 1286 8953.0 1255.5Q8990 1225 9022.0 1192.5Q9054 1160 9081.0 1124.0Q9108 1088 9129 1049Q9135 1037 9144.0 1038.0Q9153 1039 9158.5 1047.5Q9164 1056 9159 1067Q9132 1118 9096.0 1164.5Q9060 1211 9016.5 1252.5Q8973 1294 8922.0 1331.0Q8871 1368 8814.0 1401.5Q8757 1435 8694 1466Q8625 1500 8568.5 1534.0Q8512 1568 8469.0 1601.5Q8426 1635 8396.5 1668.5Q8367 1702 8352.0 1735.0Q8337 1768 8337 1801Q8337 1813 8328.5 1820.0Q8320 1827 8308.5 1827.5Q8297 1828 8288.5 1822.0Q8280 1816 8280 1804ZM8907 1885H8957V1895H8907ZM8907 1390H8957V1410H8907ZM8907 905H8957V910H8907ZM8907 415H8957V425H8907ZM9158 1426Q9114 1426 9085.0 1405.5Q9056 1385 9048.5 1343.5Q9041 1302 9062 1238L9168 916Q9173 904 9179.0 899.5Q9185 895 9199 895Q9215 895 9221.5 901.0Q9228 907 9223 919L9116 1245Q9102 1287 9102.5 1316.5Q9103 1346 9120.5 1361.0Q9138 1376 9171 1376Q9201 1376 9236.5 1360.0Q9272 1344 9310.0 1309.0Q9348 1274 9385.5 1218.5Q9423 1163 9459 1083L9513 914Q9517 902 9523.0 897.5Q9529 893 9543 893Q9560 893 9566.5 898.5Q9573 904 9568 916L9449 1282Q9432 1333 9440.0 1356.0Q9448 1379 9486 1379Q9496 1379 9500.0 1386.5Q9504 1394 9502.5 1403.0Q9501 1412 9493.0 1419.5Q9485 1427 9471 1427Q9445 1427 9426.5 1419.0Q9408 1411 9398.0 1395.5Q9388 1380 9386.0 1358.0Q9384 1336 9390 1309L9411 1239Q9379 1292 9345.0 1327.5Q9311 1363 9278.0 1384.5Q9245 1406 9214.5 1416.0Q9184 1426 9158 1426ZM8958 1885H9629V1895H8958ZM8958 1390H9629V1410H8958ZM8958 905H9629V910H8958ZM8958 415H9629V425H8958ZM9471 1427Q9460 1427 9455.5 1419.5Q9451 1412 9452.5 1403.0Q9454 1394 9462.5 1386.5Q9471 1379 9486 1379Q9516 1379 9548.5 1361.0Q9581 1343 9618.5 1306.0Q9656 1269 9698.5 1213.0Q9741 1157 9790 1080Q9797 1069 9806.0 1070.5Q9815 1072 9820.0 1080.0Q9825 1088 9819 1098Q9766 1185 9720.5 1248.0Q9675 1311 9634.0 1350.5Q9593 1390 9553.0 1408.5Q9513 1427 9471 1427ZM9628 1885V1895ZM9628 1390V1410ZM9628 905V910ZM9628 415V425ZM9797 1427Q9767 1427 9747.0 1417.0Q9727 1407 9717.5 1387.5Q9708 1368 9709.0 1340.5Q9710 1313 9722 1278L9840 916Q9844 904 9850.0 899.5Q9856 895 9870 895Q9886 895 9892.0 901.0Q9898 907 9894 919L9776 1281Q9759 1332 9766.0 1355.5Q9773 1379 9811 1379Q9822 1379 9826.0 1386.5Q9830 1394 9828.5 1403.0Q9827 1412 9819.0 1419.5Q9811 1427 9797 1427ZM9928 727Q9911 727 9899.5 718.0Q9888 709 9888 691Q9888 667 9903.0 647.5Q9918 628 9945 628Q9963 628 9974.0 637.0Q9985 646 9985 665Q9985 688 9970.5 707.5Q9956 727 9928 727ZM9629 1885H9954V1895H9629ZM9629 1390H9954V1410H9629ZM9629 905H9954V910H9629ZM9629 415H9954V425H9629ZM9797 1427Q9786 1427 9781.5 1419.5Q9777 1412 9778.5 1403.0Q9780 1394 9788.5 1386.5Q9797 1379 9812 1379Q9840 1379 9871.0 1362.5Q9902 1346 9933.0 1317.0Q9964 1288 9992.0 1248.5Q10020 1209 10043 1163Q10048 1153 10057.0 1153.5Q10066 1154 10072.5 1160.5Q10079 1167 10074 1177Q10049 1231 10018.0 1277.0Q9987 1323 9951.0 1356.5Q9915 1390 9876.5 1408.5Q9838 1427 9797 1427ZM9954 1885V1895ZM9954 1390V1410ZM9954 905V910ZM9954 415V425ZM10139 1427Q10100 1427 10071.5 1408.0Q10043 1389 10027.5 1353.0Q10012 1317 10012 1269Q10012 1224 10025.0 1172.5Q10038 1121 10064.0 1071.5Q10090 1022 10129.5 981.0Q10169 940 10221.0 915.5Q10273 891 10338 891Q10370 891 10405.5 901.5Q10441 912 10470 931L10633 431Q10637 419 10644.0 414.5Q10651 410 10664 410Q10682 410 10687.0 417.5Q10692 425 10687 437L10411 1282Q10394 1333 10402.5 1356.0Q10411 1379 10451 1379Q10459 1379 10463.0 1386.5Q10467 1394 10465.5 1403.0Q10464 1412 10457.0 1419.5Q10450 1427 10437 1427Q10410 1427 10391.0 1419.0Q10372 1411 10361.5 1396.5Q10351 1382 10348.5 1360.5Q10346 1339 10351 1312L10367 1257Q10326 1320 10285.5 1357.0Q10245 1394 10207.5 1410.5Q10170 1427 10139 1427ZM10153 1377Q10190 1377 10232.0 1349.0Q10274 1321 10319.5 1263.5Q10365 1206 10409 1119L10456 975Q10420 954 10390.0 947.0Q10360 940 10333 940Q10281 940 10239.0 961.0Q10197 982 10165.0 1017.5Q10133 1053 10111.5 1095.5Q10090 1138 10079.5 1182.0Q10069 1226 10069 1264Q10069 1299 10078.0 1324.0Q10087 1349 10106.0 1363.0Q10125 1377 10153 1377ZM9954 1885H10595V1895H9954ZM9954 1390H10595V1410H9954ZM9954 905H10595V910H9954ZM9954 415H10595V425H9954ZM10437 1427Q10425 1427 10421.0 1419.5Q10417 1412 10420.0 1403.0Q10423 1394 10431.5 1386.5Q10440 1379 10453 1379Q10501 1379 10561.0 1357.5Q10621 1336 10687 1293Q10694 1288 10700.5 1291.0Q10707 1294 10711.0 1302.0Q10715 1310 10714.0 1318.0Q10713 1326 10705 1331Q10654 1364 10605.5 1385.5Q10557 1407 10514.5 1417.0Q10472 1427 10437 1427ZM10595 1885V1895ZM10595 1390V1410ZM10595 905V910ZM10595 415V425ZM10684 1297Q10713 1281 10739.5 1260.5Q10766 1240 10789 1218Q10831 1183 10862.0 1147.5Q10893 1112 10910.5 1075.5Q10928 1039 10928 1004Q10928 974 10913.0 957.0Q10898 940 10868 940Q10857 940 10852.5 933.0Q10848 926 10849.5 916.0Q10851 906 10859.0 898.5Q10867 891 10880 891Q10915 891 10938.0 904.5Q10961 918 10972.0 941.0Q10983 964 10983 996Q10983 1039 10963.0 1082.5Q10943 1126 10906.0 1169.0Q10869 1212 10817 1254Q10792 1277 10763.0 1298.0Q10734 1319 10704 1337ZM10595 1885H11039V1895H10595ZM10595 1390H11039V1410H10595ZM10595 905H11039V910H10595ZM10595 415H11039V425H10595ZM10847 1428Q10811 1428 10781.0 1417.0Q10751 1406 10727.5 1385.0Q10704 1364 10687.5 1335.5Q10671 1307 10662.5 1272.5Q10654 1238 10654 1200Q10654 1161 10663.0 1118.5Q10672 1076 10690.0 1035.5Q10708 995 10735.0 962.5Q10762 930 10798.5 910.5Q10835 891 10880 891Q10889 891 10892.5 898.5Q10896 906 10893.5 915.5Q10891 925 10884.5 932.5Q10878 940 10869 940Q10829 940 10799.0 966.0Q10769 992 10748.5 1031.5Q10728 1071 10718.0 1115.5Q10708 1160 10708 1197Q10708 1237 10717.5 1270.0Q10727 1303 10746.0 1327.5Q10765 1352 10792.5 1365.5Q10820 1379 10855 1379Q10907 1379 10958.5 1350.0Q11010 1321 11063.5 1263.0Q11117 1205 11173.5 1119.5Q11230 1034 11292 921Q11297 912 11306.5 913.5Q11316 915 11322.0 923.0Q11328 931 11323 942Q11259 1063 11200.0 1154.0Q11141 1245 11083.0 1306.0Q11025 1367 10966.5 1397.5Q10908 1428 10847 1428ZM11039 1885V1895ZM11039 1390V1410ZM11039 905V910ZM11039 415V425ZM11259 1429Q11215 1429 11177.5 1416.5Q11140 1404 11118 1386Q11110 1378 11110.0 1369.5Q11110 1361 11118 1353Q11127 1344 11134.0 1344.0Q11141 1344 11152 1352Q11174 1365 11201.5 1374.0Q11229 1383 11260 1383Q11321 1383 11354.0 1351.0Q11387 1319 11387 1263Q11387 1236 11379.5 1211.0Q11372 1186 11360.0 1161.5Q11348 1137 11334.5 1112.0Q11321 1087 11309.0 1059.5Q11297 1032 11289.5 1001.0Q11282 970 11282 934Q11282 894 11296.5 875.0Q11311 856 11335 856Q11349 856 11355.5 863.5Q11362 871 11362 881Q11362 894 11353.5 909.5Q11345 925 11326 950Q11329 983 11338.0 1010.5Q11347 1038 11360.0 1062.5Q11373 1087 11387.5 1109.5Q11402 1132 11414.5 1156.0Q11427 1180 11434.5 1206.0Q11442 1232 11442 1263Q11442 1339 11392.5 1384.0Q11343 1429 11259 1429ZM11039 1885H11589V1895H11039ZM11039 1390H11589V1410H11039ZM11039 905H11589V910H11039ZM11039 415H11589V425H11039Z" fill="currentColor" /></svg>