<svg viewBox="0 0 10206.849624060149 1288" xmlns="http://www.w3.org/2000/svg"><path d="M40.421052631578945 908Q-7.578947368421055 908 1.4210526315789451 878L270.42105263157896 46Q275.42105263157896 32 287.42105263157896 25.5Q299.42105263157896 19 321.42105263157896 19H476.42105263157896Q569.421052631579 19 631.421052631579 41.0Q693.421052631579 63 724.421052631579 106.5Q755.421052631579 150 755.421052631579 215Q755.421052631579 291 725.921052631579 347.5Q696.421052631579 404 642.421052631579 442.5Q588.421052631579 481 514.421052631579 505.0Q440.42105263157896 529 352.42105263157896 540Q315.42105263157896 544 273.42105263157896 546.5Q231.42105263157896 549 196.42105263157896 549L89.42105263157895 880Q84.42105263157895 894 73.92105263157895 901.0Q63.421052631578945 908 40.421052631578945 908ZM221.42105263157896 469Q245.42105263157896 469 272.42105263157896 468.0Q299.42105263157896 467 326.92105263157896 464.5Q354.42105263157896 462 379.42105263157896 459Q471.42105263157896 444 534.921052631579 414.5Q598.421052631579 385 631.921052631579 338.5Q665.421052631579 292 665.421052631579 226Q665.421052631579 181 644.421052631579 153.0Q623.421052631579 125 578.921052631579 112.0Q534.421052631579 99 462.42105263157896 99H341.42105263157896ZM504.42105263157896 911Q485.42105263157896 911 479.42105263157896 899.5Q473.42105263157896 888 476.92105263157896 873.5Q480.42105263157896 859 492.92105263157896 847.5Q505.42105263157896 836 523.421052631579 836Q554.421052631579 836 592.421052631579 820.0Q630.421052631579 804 672.921052631579 776.0Q715.421052631579 748 758.921052631579 709.5Q802.421052631579 671 845.921052631579 625.5Q889.421052631579 580 929.421052631579 530.0Q969.421052631579 480 1002.921052631579 428.5Q1036.421052631579 377 1061.421052631579 326.0Q1086.421052631579 275 1100.421052631579 227.5Q1114.421052631579 180 1114.421052631579 139Q1114.421052631579 125 1127.421052631579 118.0Q1140.421052631579 111 1157.921052631579 111.0Q1175.421052631579 111 1188.921052631579 118.0Q1202.421052631579 125 1202.421052631579 139Q1202.421052631579 182 1185.921052631579 233.5Q1169.421052631579 285 1140.421052631579 341.0Q1111.421052631579 397 1071.921052631579 454.5Q1032.421052631579 512 985.421052631579 568.0Q938.421052631579 624 887.921052631579 674.5Q837.421052631579 725 785.921052631579 768.5Q734.421052631579 812 683.921052631579 843.5Q633.421052631579 875 587.921052631579 893.0Q542.421052631579 911 504.42105263157896 911ZM900.421052631579 911Q830.421052631579 911 792.921052631579 880.5Q755.421052631579 850 750.421052631579 790.0Q745.421052631579 730 773.421052631579 642L926.421052631579 169Q955.421052631579 80 995.921052631579 40.0Q1036.421052631579 0 1094.421052631579 0Q1126.421052631579 0 1150.921052631579 17.5Q1175.421052631579 35 1188.921052631579 66.0Q1202.421052631579 97 1202.421052631579 139Q1202.421052631579 158 1188.921052631579 167.0Q1175.421052631579 176 1157.921052631579 176.0Q1140.421052631579 176 1127.421052631579 167.0Q1114.421052631579 158 1114.421052631579 139Q1114.421052631579 122 1110.921052631579 109.5Q1107.421052631579 97 1099.921052631579 90.5Q1092.421052631579 84 1079.421052631579 84Q1068.421052631579 84 1056.921052631579 92.5Q1045.421052631579 101 1033.921052631579 122.0Q1022.421052631579 143 1010.421052631579 181L852.421052631579 672Q834.421052631579 730 834.921052631579 766.5Q835.421052631579 803 857.421052631579 819.5Q879.421052631579 836 923.421052631579 836Q937.421052631579 836 943.921052631579 847.5Q950.421052631579 859 947.421052631579 873.5Q944.421052631579 888 932.921052631579 899.5Q921.421052631579 911 900.421052631579 911ZM901.421052631579 911Q887.421052631579 911 880.921052631579 899.5Q874.421052631579 888 876.921052631579 873.5Q879.421052631579 859 891.421052631579 847.5Q903.421052631579 836 924.421052631579 836Q950.421052631579 836 976.921052631579 825.0Q1003.421052631579 814 1029.421052631579 792.5Q1055.421052631579 771 1077.421052631579 741.0Q1099.421052631579 711 1116.421052631579 674Q1121.421052631579 659 1133.921052631579 659.5Q1146.421052631579 660 1155.921052631579 669.5Q1165.421052631579 679 1161.421052631579 693Q1143.421052631579 744 1115.421052631579 784.5Q1087.421052631579 825 1053.421052631579 853.0Q1019.421052631579 881 980.421052631579 896.0Q941.421052631579 911 901.421052631579 911ZM1237.421052631579 911Q1194.421052631579 911 1163.421052631579 891.5Q1132.421052631579 872 1115.921052631579 835.0Q1099.421052631579 798 1099.421052631579 748Q1099.421052631579 704 1111.921052631579 653.0Q1124.421052631579 602 1149.921052631579 553.0Q1175.421052631579 504 1213.921052631579 463.5Q1252.421052631579 423 1304.421052631579 399.0Q1356.421052631579 375 1422.421052631579 375Q1465.421052631579 375 1506.421052631579 391.5Q1547.421052631579 408 1580.421052631579 433L1567.421052631579 502Q1524.421052631579 474 1490.921052631579 464.0Q1457.421052631579 454 1424.421052631579 454Q1373.421052631579 454 1334.921052631579 473.0Q1296.421052631579 492 1268.921052631579 524.0Q1241.421052631579 556 1223.921052631579 594.0Q1206.421052631579 632 1197.921052631579 669.5Q1189.421052631579 707 1189.421052631579 737Q1189.421052631579 768 1198.421052631579 788.5Q1207.421052631579 809 1224.421052631579 820.0Q1241.421052631579 831 1266.421052631579 831Q1301.421052631579 831 1338.421052631579 806.0Q1375.421052631579 781 1412.921052631579 733.5Q1450.421052631579 686 1484.421052631579 621L1506.421052631579 665Q1462.421052631579 760 1413.421052631579 814.0Q1364.421052631579 868 1318.921052631579 889.5Q1273.421052631579 911 1237.421052631579 911ZM1536.421052631579 911Q1498.421052631579 911 1474.421052631579 898.0Q1450.421052631579 885 1438.921052631579 861.5Q1427.421052631579 838 1427.921052631579 807.5Q1428.421052631579 777 1439.421052631579 742L1548.421052631579 411Q1555.421052631579 391 1564.921052631579 385.0Q1574.421052631579 379 1593.421052631579 379Q1624.421052631579 379 1632.921052631579 388.5Q1641.421052631579 398 1634.421052631579 418L1525.421052631579 751Q1509.421052631579 799 1518.421052631579 817.5Q1527.421052631579 836 1559.421052631579 836Q1573.421052631579 836 1578.921052631579 847.5Q1584.421052631579 859 1582.421052631579 873.5Q1580.421052631579 888 1568.921052631579 899.5Q1557.421052631579 911 1536.421052631579 911ZM1536.421052631579 911Q1522.421052631579 911 1515.921052631579 899.5Q1509.421052631579 888 1511.921052631579 873.5Q1514.421052631579 859 1526.421052631579 847.5Q1538.421052631579 836 1559.421052631579 836Q1589.421052631579 836 1619.921052631579 823.0Q1650.421052631579 810 1681.421052631579 782.5Q1712.421052631579 755 1745.921052631579 714.0Q1779.421052631579 673 1814.421052631579 617Q1823.421052631579 604 1835.421052631579 605.0Q1847.421052631579 606 1853.921052631579 615.5Q1860.421052631579 625 1854.421052631579 637Q1818.421052631579 707 1780.421052631579 759.0Q1742.421052631579 811 1702.921052631579 844.5Q1663.421052631579 878 1621.921052631579 894.5Q1580.421052631579 911 1536.421052631579 911ZM1854.421052631579 1288Q1795.421052631579 1288 1759.921052631579 1256.5Q1724.421052631579 1225 1724.421052631579 1175Q1724.421052631579 1138 1741.421052631579 1108.0Q1758.421052631579 1078 1788.921052631579 1052.0Q1819.421052631579 1026 1862.421052631579 1002.0Q1905.421052631579 978 1956.421052631579 954Q1973.421052631579 946 1989.921052631579 938.0Q2006.421052631579 930 2022.921052631579 922.0Q2039.421052631579 914 2055.421052631579 906L2091.421052631579 795Q2068.421052631579 823 2043.4210526315792 844.5Q2018.421052631579 866 1992.921052631579 880.5Q1967.421052631579 895 1941.421052631579 902.5Q1915.421052631579 910 1889.421052631579 910Q1835.421052631579 910 1803.421052631579 886.0Q1771.421052631579 862 1764.921052631579 817.5Q1758.421052631579 773 1777.421052631579 713L1876.421052631579 411Q1883.421052631579 391 1892.921052631579 385.0Q1902.421052631579 379 1921.421052631579 379Q1952.421052631579 379 1960.921052631579 388.5Q1969.421052631579 398 1962.421052631579 418L1863.421052631579 719Q1851.421052631579 757 1852.421052631579 782.0Q1853.421052631579 807 1869.921052631579 819.5Q1886.421052631579 832 1920.421052631579 832Q1947.421052631579 832 1976.921052631579 817.0Q2006.421052631579 802 2036.4210526315792 774.0Q2066.421052631579 746 2094.921052631579 708.0Q2123.421052631579 670 2146.421052631579 623L2214.421052631579 411Q2221.421052631579 391 2230.921052631579 385.0Q2240.421052631579 379 2259.421052631579 379Q2290.421052631579 379 2298.921052631579 388.5Q2307.421052631579 398 2300.421052631579 418L2104.421052631579 1021Q2081.421052631579 1094 2055.921052631579 1145.0Q2030.421052631579 1196 1999.921052631579 1227.5Q1969.421052631579 1259 1933.921052631579 1273.5Q1898.421052631579 1288 1854.421052631579 1288ZM1867.421052631579 1210Q1897.421052631579 1210 1923.921052631579 1190.5Q1950.421052631579 1171 1974.421052631579 1129.0Q1998.421052631579 1087 2019.421052631579 1019L2025.421052631579 1000Q2016.421052631579 1004 2006.921052631579 1008.5Q1997.421052631579 1013 1987.921052631579 1018.0Q1978.421052631579 1023 1969.421052631579 1028Q1933.421052631579 1045 1904.421052631579 1061.5Q1875.421052631579 1078 1854.921052631579 1093.5Q1834.421052631579 1109 1823.921052631579 1126.0Q1813.421052631579 1143 1813.421052631579 1163Q1813.421052631579 1178 1819.921052631579 1188.5Q1826.421052631579 1199 1838.921052631579 1204.5Q1851.421052631579 1210 1867.421052631579 1210ZM2101.4210526315787 971Q2095.4210526315787 974 2090.4210526315787 964.0Q2085.4210526315787 954 2083.4210526315787 939.0Q2081.4210526315787 924 2082.9210526315787 911.0Q2084.4210526315787 898 2091.4210526315787 895Q2149.4210526315787 871 2198.4210526315787 839.5Q2247.4210526315787 808 2289.4210526315787 768.0Q2331.4210526315787 728 2369.9210526315787 676.0Q2408.4210526315787 624 2444.9210526315787 557.5Q2481.4210526315787 491 2518.4210526315787 407Q2523.4210526315787 398 2533.4210526315787 395.5Q2543.4210526315787 393 2553.9210526315787 396.5Q2564.4210526315787 400 2570.4210526315787 407.5Q2576.4210526315787 415 2572.4210526315787 425Q2533.4210526315787 520 2494.9210526315787 594.5Q2456.4210526315787 669 2414.4210526315787 727.0Q2372.4210526315787 785 2324.9210526315787 829.5Q2277.4210526315787 874 2222.4210526315787 908.5Q2167.4210526315787 943 2101.4210526315787 971ZM2566.4210526315787 909Q2545.4210526315787 909 2537.4210526315787 900.5Q2529.4210526315787 892 2528.4210526315787 871L2516.4210526315787 418Q2516.4210526315787 404 2524.4210526315787 391.5Q2532.4210526315787 379 2560.4210526315787 379Q2582.4210526315787 379 2591.9210526315787 387.5Q2601.4210526315787 396 2601.4210526315787 419L2604.4210526315787 773L2844.4210526315787 410Q2856.4210526315787 392 2869.4210526315787 385.5Q2882.4210526315787 379 2901.4210526315787 379Q2918.4210526315787 379 2930.9210526315787 389.0Q2943.4210526315787 399 2944.4210526315787 425L2955.4210526315787 771L3185.4210526315787 406Q3196.4210526315787 389 3208.4210526315787 384.0Q3220.4210526315787 379 3234.4210526315787 379Q3262.4210526315787 379 3272.4210526315787 393.0Q3282.4210526315787 407 3270.4210526315787 426L2973.4210526315787 883Q2966.4210526315787 894 2951.4210526315787 901.5Q2936.4210526315787 909 2914.4210526315787 909Q2892.4210526315787 909 2883.9210526315787 900.5Q2875.4210526315787 892 2875.4210526315787 871L2864.4210526315787 516L2621.4210526315787 883Q2614.4210526315787 893 2601.4210526315787 901.0Q2588.4210526315787 909 2566.4210526315787 909ZM3330.4210526315787 479Q3306.4210526315787 479 3278.4210526315787 473.5Q3250.4210526315787 468 3230.4210526315787 454Q3221.4210526315787 447 3222.4210526315787 434.5Q3223.4210526315787 422 3230.9210526315787 409.0Q3238.4210526315787 396 3246.4210526315787 388.5Q3254.4210526315787 381 3259.4210526315787 384Q3279.4210526315787 395 3302.4210526315787 402.5Q3325.4210526315787 410 3348.4210526315787 410Q3367.4210526315787 410 3392.9210526315787 403.0Q3418.4210526315787 396 3434.4210526315787 386Q3445.4210526315787 379 3454.4210526315787 388.5Q3463.4210526315787 398 3465.4210526315787 411.5Q3467.4210526315787 425 3459.4210526315787 433Q3444.4210526315787 447 3422.4210526315787 457.5Q3400.4210526315787 468 3376.4210526315787 473.5Q3352.4210526315787 479 3330.4210526315787 479ZM3305.4210526315787 909Q3289.4210526315787 909 3275.4210526315787 902.0Q3261.4210526315787 895 3268.4210526315787 876L3418.4210526315787 411Q3425.4210526315787 391 3434.9210526315787 385.0Q3444.4210526315787 379 3463.4210526315787 379Q3494.4210526315787 379 3502.9210526315787 388.5Q3511.4210526315787 398 3504.4210526315787 418L3479.4210526315787 497Q3499.4210526315787 468 3520.4210526315787 445.0Q3541.4210526315787 422 3563.4210526315787 406.5Q3585.4210526315787 391 3605.9210526315787 383.0Q3626.4210526315787 375 3646.4210526315787 375Q3665.4210526315787 375 3672.4210526315787 387.0Q3679.4210526315787 399 3675.4210526315787 415.0Q3671.4210526315787 431 3658.4210526315787 443.0Q3645.4210526315787 455 3625.4210526315787 455Q3604.4210526315787 455 3577.9210526315787 471.0Q3551.4210526315787 487 3522.9210526315787 517.0Q3494.4210526315787 547 3467.4210526315787 589.0Q3440.4210526315787 631 3418.4210526315787 683L3353.4210526315787 883Q3349.4210526315787 896 3338.9210526315787 902.5Q3328.4210526315787 909 3305.4210526315787 909ZM3758.4210526315787 483Q3731.4210526315787 483 3710.4210526315787 475.5Q3689.4210526315787 468 3670.4210526315787 461.5Q3651.4210526315787 455 3626.4210526315787 455Q3607.4210526315787 455 3601.4210526315787 443.0Q3595.4210526315787 431 3599.4210526315787 415.0Q3603.4210526315787 399 3615.9210526315787 387.0Q3628.4210526315787 375 3647.4210526315787 375Q3679.4210526315787 375 3703.4210526315787 384.0Q3727.4210526315787 393 3748.9210526315787 403.0Q3770.4210526315787 413 3793.4210526315787 413Q3807.4210526315787 413 3816.9210526315787 409.5Q3826.4210526315787 406 3835.4210526315787 400Q3847.4210526315787 391 3855.9210526315787 398.0Q3864.4210526315787 405 3865.4210526315787 418.0Q3866.4210526315787 431 3855.4210526315787 440Q3823.4210526315787 468 3798.4210526315787 475.5Q3773.4210526315787 483 3758.4210526315787 483ZM3810.4210526315787 911Q3773.4210526315787 911 3748.9210526315787 898.0Q3724.4210526315787 885 3712.9210526315787 861.5Q3701.4210526315787 838 3701.4210526315787 808.0Q3701.4210526315787 778 3713.4210526315787 742L3821.4210526315787 411Q3828.4210526315787 391 3837.9210526315787 385.0Q3847.4210526315787 379 3866.4210526315787 379Q3897.4210526315787 379 3905.9210526315787 388.5Q3914.4210526315787 398 3907.4210526315787 418L3799.4210526315787 751Q3782.4210526315787 799 3791.4210526315787 817.5Q3800.4210526315787 836 3833.4210526315787 836Q3847.4210526315787 836 3853.4210526315787 847.5Q3859.4210526315787 859 3856.9210526315787 873.5Q3854.4210526315787 888 3842.9210526315787 899.5Q3831.4210526315787 911 3810.4210526315787 911ZM3928.4210526315787 225Q3908.4210526315787 225 3894.4210526315787 212.0Q3880.4210526315787 199 3880.4210526315787 174Q3880.4210526315787 147 3897.9210526315787 123.0Q3915.4210526315787 99 3952.4210526315787 99Q3973.4210526315787 99 3987.4210526315787 111.5Q4001.4210526315787 124 4001.4210526315787 150Q4001.4210526315787 177 3983.9210526315787 201.0Q3966.4210526315787 225 3928.4210526315787 225ZM3809.4210526315787 911Q3795.4210526315787 911 3788.9210526315787 899.5Q3782.4210526315787 888 3784.9210526315787 873.5Q3787.4210526315787 859 3799.4210526315787 847.5Q3811.4210526315787 836 3832.4210526315787 836Q3863.4210526315787 836 3894.4210526315787 823.0Q3925.4210526315787 810 3957.4210526315787 784.0Q3989.4210526315787 758 4022.4210526315787 718.5Q4055.4210526315787 679 4089.4210526315787 626Q4098.421052631578 612 4109.921052631578 613.0Q4121.421052631578 614 4128.421052631578 623.5Q4135.421052631578 633 4130.421052631578 645Q4095.4210526315787 713 4057.9210526315787 763.0Q4020.4210526315787 813 3979.9210526315787 846.0Q3939.4210526315787 879 3896.9210526315787 895.0Q3854.4210526315787 911 3809.4210526315787 911ZM4193.421052631578 911Q4144.421052631578 911 4109.921052631578 894.0Q4075.4210526315787 877 4057.4210526315787 846.0Q4039.4210526315787 815 4038.4210526315787 772.5Q4037.4210526315787 730 4054.4210526315787 679L4121.421052631578 474H4042.4210526315787Q4031.4210526315787 474 4027.4210526315787 464.0Q4023.4210526315787 454 4028.4210526315787 434Q4034.4210526315787 414 4044.4210526315787 404.0Q4054.4210526315787 394 4064.4210526315787 394H4147.421052631578L4211.421052631578 196Q4217.421052631578 176 4226.921052631578 170.0Q4236.421052631578 164 4256.421052631578 164Q4287.421052631578 164 4295.921052631578 173.5Q4304.421052631578 183 4297.421052631578 203L4235.421052631578 394H4361.421052631578Q4372.421052631578 394 4376.921052631578 403.5Q4381.421052631578 413 4375.421052631578 434Q4370.421052631578 453 4360.421052631578 463.5Q4350.421052631578 474 4339.421052631578 474H4210.421052631578L4140.421052631578 689Q4128.421052631578 725 4128.421052631578 753.0Q4128.421052631578 781 4138.921052631578 799.5Q4149.421052631578 818 4169.421052631578 827.0Q4189.421052631578 836 4217.421052631578 836Q4231.421052631578 836 4236.921052631578 847.5Q4242.421052631578 859 4240.421052631578 873.5Q4238.421052631578 888 4226.421052631578 899.5Q4214.421052631578 911 4193.421052631578 911ZM4196.421052631579 911Q4177.421052631579 911 4171.421052631579 899.5Q4165.421052631579 888 4169.921052631579 873.5Q4174.421052631579 859 4187.421052631579 847.5Q4200.421052631579 836 4219.421052631579 836Q4267.421052631579 836 4322.421052631579 818.0Q4377.421052631579 800 4431.421052631579 766Q4442.421052631579 758 4452.421052631579 763.5Q4462.421052631579 769 4468.421052631579 781.0Q4474.421052631579 793 4473.921052631579 805.5Q4473.421052631579 818 4463.421052631579 824Q4414.421052631579 855 4366.421052631579 874.5Q4318.421052631579 894 4275.421052631579 902.5Q4232.421052631579 911 4196.421052631579 911ZM4434.421052631579 771Q4472.421052631579 750 4505.421052631579 724.5Q4538.421052631579 699 4564.421052631579 672Q4589.421052631579 648 4609.921052631579 621.0Q4630.421052631579 594 4642.421052631579 566.0Q4654.421052631579 538 4654.421052631579 512Q4654.421052631579 484 4642.421052631579 469.5Q4630.421052631579 455 4603.421052631579 455Q4572.421052631579 455 4548.921052631579 476.5Q4525.421052631579 498 4508.921052631579 531.0Q4492.421052631579 564 4484.421052631579 600.5Q4476.421052631579 637 4476.421052631579 667Q4476.421052631579 704 4486.421052631579 734.5Q4496.421052631579 765 4514.421052631579 787.0Q4532.421052631579 809 4555.921052631579 820.5Q4579.421052631579 832 4605.421052631579 832Q4631.421052631579 832 4655.921052631579 822.5Q4680.421052631579 813 4703.421052631579 796.0Q4726.421052631579 779 4748.421052631579 760Q4762.421052631579 747 4775.421052631579 749.5Q4788.421052631579 752 4799.421052631579 763Q4812.421052631579 775 4814.421052631579 788.5Q4816.421052631579 802 4803.421052631579 815Q4770.421052631579 849 4735.421052631579 871.0Q4700.421052631579 893 4663.921052631579 902.5Q4627.421052631579 912 4589.421052631579 912Q4555.421052631579 912 4524.421052631579 900.5Q4493.421052631579 889 4468.421052631579 867.5Q4443.421052631579 846 4424.921052631579 816.0Q4406.421052631579 786 4396.921052631579 749.5Q4387.421052631579 713 4387.421052631579 672Q4387.421052631579 633 4396.421052631579 592.0Q4405.421052631579 551 4423.921052631579 512.0Q4442.421052631579 473 4470.421052631579 442.5Q4498.421052631579 412 4536.421052631579 393.5Q4574.421052631579 375 4622.421052631579 375Q4661.421052631579 375 4688.921052631579 390.5Q4716.421052631579 406 4730.421052631579 432.5Q4744.421052631579 459 4744.421052631579 493Q4744.421052631579 535 4728.921052631579 575.0Q4713.421052631579 615 4685.921052631579 651.5Q4658.421052631579 688 4623.421052631579 720Q4591.421052631579 753 4552.421052631579 782.0Q4513.421052631579 811 4469.421052631579 834ZM5173.421052631579 894Q5128.421052631579 894 5138.421052631579 866L5405.421052631579 46Q5410.421052631579 32 5423.421052631579 25.5Q5436.421052631579 19 5458.421052631579 19H5611.421052631579Q5700.421052631579 19 5765.921052631579 41.0Q5831.421052631579 63 5874.921052631579 101.5Q5918.421052631579 140 5939.421052631579 190.0Q5960.421052631579 240 5960.421052631579 296Q5960.421052631579 401 5928.921052631579 492.5Q5897.421052631579 584 5840.921052631579 657.5Q5784.421052631579 731 5708.921052631579 784.0Q5633.421052631579 837 5544.421052631579 865.5Q5455.421052631579 894 5360.421052631579 894ZM5244.421052631579 809H5360.421052631579Q5435.421052631579 809 5507.921052631579 786.5Q5580.421052631579 764 5644.421052631579 720.5Q5708.421052631579 677 5757.421052631579 614.0Q5806.421052631579 551 5833.921052631579 471.0Q5861.421052631579 391 5861.421052631579 296Q5861.421052631579 251 5843.421052631579 215.0Q5825.421052631579 179 5791.921052631579 154.5Q5758.421052631579 130 5712.421052631579 117.0Q5666.421052631579 104 5610.421052631579 104H5474.421052631579ZM6038.421052631579 908Q6016.421052631579 908 6007.921052631579 901.0Q5999.421052631579 894 6003.421052631579 880L6279.421052631579 31Q6288.421052631579 4 6332.421052631579 4Q6376.421052631579 4 6367.421052631579 31L6253.421052631579 379L6725.421052631579 18Q6744.421052631579 4 6756.421052631579 6.5Q6768.421052631579 9 6780.421052631579 26Q6793.421052631579 44 6791.921052631579 54.5Q6790.421052631579 65 6769.421052631579 81L6293.421052631579 440Q6335.421052631579 522 6376.921052631579 591.5Q6418.421052631579 661 6462.921052631579 723.0Q6507.421052631579 785 6558.421052631579 848Q6572.421052631579 865 6567.921052631579 877.0Q6563.421052631579 889 6543.421052631579 904Q6528.421052631579 914 6514.921052631579 911.0Q6501.421052631579 908 6493.421052631579 898Q6452.421052631579 848 6414.921052631579 794.5Q6377.421052631579 741 6343.921052631579 686.0Q6310.421052631579 631 6280.921052631579 575.0Q6251.421052631579 519 6225.421052631579 464L6090.421052631579 880Q6086.421052631579 894 6073.421052631579 901.0Q6060.421052631579 908 6038.421052631579 908ZM6988.421052631579 894Q6943.421052631579 894 6956.421052631579 854L7221.421052631579 31Q7226.421052631579 17 7236.421052631579 10.5Q7246.421052631579 4 7268.421052631579 4Q7291.421052631579 4 7302.421052631579 11.0Q7313.421052631579 18 7307.421052631579 34L7056.421052631579 814H7420.421052631579Q7431.421052631579 814 7435.421052631579 823.5Q7439.421052631579 833 7433.421052631579 854Q7428.421052631579 873 7418.421052631579 883.5Q7408.421052631579 894 7397.421052631579 894ZM7763.421052631579 913Q7701.421052631579 913 7658.421052631579 888.0Q7615.421052631579 863 7593.921052631579 818.5Q7572.421052631579 774 7572.421052631579 718Q7572.421052631579 665 7591.421052631579 605.5Q7610.421052631579 546 7647.921052631579 493.5Q7685.421052631579 441 7741.921052631579 408.0Q7798.421052631579 375 7873.421052631579 375Q7935.421052631579 375 7977.921052631579 398.5Q8020.421052631579 422 8041.921052631579 464.5Q8063.421052631579 507 8063.421052631579 563Q8063.421052631579 603 8051.921052631579 650.5Q8040.421052631579 698 8016.921052631579 744.5Q7993.421052631579 791 7957.421052631579 829.0Q7921.421052631579 867 7872.921052631579 890.0Q7824.421052631579 913 7763.421052631579 913ZM7773.421052631579 833Q7822.421052631579 833 7859.421052631579 807.0Q7896.421052631579 781 7921.421052631579 740.5Q7946.421052631579 700 7959.421052631579 655.5Q7972.421052631579 611 7972.421052631579 573Q7972.421052631579 534 7959.421052631579 508.0Q7946.421052631579 482 7922.421052631579 468.5Q7898.421052631579 455 7865.421052631579 455Q7815.421052631579 455 7777.421052631579 480.5Q7739.421052631579 506 7713.921052631579 546.0Q7688.421052631579 586 7675.421052631579 630.0Q7662.421052631579 674 7662.421052631579 711Q7662.421052631579 750 7675.921052631579 777.5Q7689.421052631579 805 7714.421052631579 819.0Q7739.421052631579 833 7773.421052631579 833ZM8139.421052631579 521Q8089.421052631579 521 8043.421052631579 505.5Q7997.421052631579 490 7953.421052631579 463Q7940.421052631579 455 7938.921052631579 442.0Q7937.421052631579 429 7943.921052631579 417.0Q7950.421052631579 405 7960.921052631579 399.5Q7971.421052631579 394 7980.421052631579 400Q8005.421052631579 416 8033.421052631579 428.0Q8061.421052631579 440 8093.921052631579 446.0Q8126.421052631579 452 8163.421052631579 452Q8191.421052631579 452 8226.92105263158 447.5Q8262.42105263158 443 8297.42105263158 432.5Q8332.42105263158 422 8358.42105263158 408Q8369.42105263158 401 8378.42105263158 411.0Q8387.42105263158 421 8387.92105263158 435.0Q8388.42105263158 449 8376.42105263158 456Q8305.42105263158 494 8246.92105263158 507.5Q8188.421052631579 521 8139.421052631579 521ZM8364.42105263158 913Q8302.42105263158 913 8259.42105263158 888.0Q8216.42105263158 863 8194.92105263158 818.5Q8173.421052631579 774 8173.421052631579 718Q8173.421052631579 665 8192.42105263158 605.5Q8211.42105263158 546 8248.92105263158 493.5Q8286.42105263158 441 8342.92105263158 408.0Q8399.42105263158 375 8474.42105263158 375Q8536.42105263158 375 8578.92105263158 398.5Q8621.42105263158 422 8642.92105263158 464.5Q8664.42105263158 507 8664.42105263158 563Q8664.42105263158 603 8652.92105263158 650.5Q8641.42105263158 698 8617.92105263158 744.5Q8594.42105263158 791 8558.42105263158 829.0Q8522.42105263158 867 8473.92105263158 890.0Q8425.42105263158 913 8364.42105263158 913ZM8374.42105263158 833Q8423.42105263158 833 8460.42105263158 807.0Q8497.42105263158 781 8522.42105263158 740.5Q8547.42105263158 700 8560.42105263158 655.5Q8573.42105263158 611 8573.42105263158 573Q8573.42105263158 534 8560.42105263158 508.0Q8547.42105263158 482 8523.42105263158 468.5Q8499.42105263158 455 8466.42105263158 455Q8416.42105263158 455 8378.42105263158 480.5Q8340.42105263158 506 8314.92105263158 546.0Q8289.42105263158 586 8276.42105263158 630.0Q8263.42105263158 674 8263.42105263158 711Q8263.42105263158 750 8276.92105263158 777.5Q8290.42105263158 805 8315.42105263158 819.0Q8340.42105263158 833 8374.42105263158 833ZM8736.421052631578 513Q8694.421052631578 513 8650.421052631578 501.0Q8606.421052631578 489 8560.421052631578 459Q8547.421052631578 452 8545.921052631578 440.0Q8544.421052631578 428 8549.921052631578 417.0Q8555.421052631578 406 8564.421052631578 400.5Q8573.421052631578 395 8581.421052631578 400Q8617.421052631578 424 8659.921052631578 434.0Q8702.421052631578 444 8748.421052631578 444Q8777.421052631578 444 8808.921052631578 437.5Q8840.421052631578 431 8870.421052631578 418.0Q8900.421052631578 405 8922.421052631578 388Q8932.421052631578 381 8941.421052631578 385.0Q8950.421052631578 389 8955.421052631578 399.0Q8960.421052631578 409 8959.921052631578 420.5Q8959.421052631578 432 8951.421052631578 439Q8911.421052631578 468 8873.421052631578 484.5Q8835.421052631578 501 8800.921052631578 507.0Q8766.421052631578 513 8736.421052631578 513ZM9192.421052631578 911Q9170.421052631578 911 9146.921052631578 908.5Q9123.421052631578 906 9097.421052631578 904.0Q9071.421052631578 902 9039.421052631578 902.0Q9007.421052631578 902 8968.421052631578 907L9000.421052631578 874Q9031.421052631578 866 9062.921052631578 859.0Q9094.421052631578 852 9123.421052631578 847.0Q9152.421052631578 842 9175.921052631578 839.0Q9199.421052631578 836 9215.421052631578 836Q9224.421052631578 836 9226.921052631578 847.5Q9229.421052631578 859 9225.421052631578 873.5Q9221.421052631578 888 9212.921052631578 899.5Q9204.421052631578 911 9192.421052631578 911ZM8672.421052631578 1284Q8656.421052631578 1284 8642.421052631578 1277.0Q8628.421052631578 1270 8635.421052631578 1251L8906.421052631578 411Q8913.421052631578 391 8922.921052631578 385.0Q8932.421052631578 379 8951.421052631578 379Q8982.421052631578 379 8990.921052631578 388.5Q8999.421052631578 398 8992.421052631578 418L8974.421052631578 475Q9006.421052631578 437 9037.421052631578 415.5Q9068.421052631578 394 9096.921052631578 384.5Q9125.421052631578 375 9150.421052631578 375Q9214.421052631578 375 9250.921052631578 419.0Q9287.421052631578 463 9287.421052631578 539Q9287.421052631578 585 9274.421052631578 636.0Q9261.421052631578 687 9235.421052631578 736.0Q9209.421052631578 785 9170.921052631578 824.5Q9132.421052631578 864 9081.421052631578 887.5Q9030.421052631578 911 8966.421052631578 911Q8934.421052631578 911 8903.421052631578 901.0Q8872.421052631578 891 8844.421052631578 875L8720.421052631578 1258Q8716.421052631578 1271 8705.921052631578 1277.5Q8695.421052631578 1284 8672.421052631578 1284ZM8865.421052631578 809Q8893.421052631578 822 8916.421052631578 827.5Q8939.421052631578 833 8964.421052631578 833Q9013.421052631578 833 9051.421052631578 813.5Q9089.421052631578 794 9116.921052631578 762.5Q9144.421052631578 731 9161.921052631578 693.5Q9179.421052631578 656 9187.921052631578 618.0Q9196.421052631578 580 9196.421052631578 549Q9196.421052631578 519 9187.921052631578 498.0Q9179.421052631578 477 9162.921052631578 466.0Q9146.421052631578 455 9121.421052631578 455Q9090.421052631578 455 9057.421052631578 474.5Q9024.421052631578 494 8991.421052631578 531.5Q8958.421052631578 569 8926.421052631578 623ZM9202.421052631578 911Q9183.421052631578 911 9177.421052631578 899.5Q9171.421052631578 888 9175.921052631578 873.5Q9180.421052631578 859 9193.421052631578 847.5Q9206.421052631578 836 9225.421052631578 836Q9273.421052631578 836 9328.421052631578 818.0Q9383.421052631578 800 9437.421052631578 766Q9448.421052631578 758 9458.421052631578 763.5Q9468.421052631578 769 9474.421052631578 781.0Q9480.421052631578 793 9479.921052631578 805.5Q9479.421052631578 818 9469.421052631578 824Q9420.421052631578 855 9372.421052631578 874.5Q9324.421052631578 894 9281.421052631578 902.5Q9238.421052631578 911 9202.421052631578 911ZM9426.421052631578 773Q9460.421052631578 756 9490.921052631578 733.0Q9521.421052631578 710 9546.421052631578 685Q9576.421052631578 660 9599.921052631578 630.5Q9623.421052631578 601 9636.921052631578 570.5Q9650.421052631578 540 9650.421052631578 512Q9650.421052631578 484 9638.421052631578 469.5Q9626.421052631578 455 9599.421052631578 455Q9585.421052631578 455 9578.921052631578 443.0Q9572.421052631578 431 9573.921052631578 415.0Q9575.421052631578 399 9586.421052631578 387.0Q9597.421052631578 375 9618.421052631578 375Q9657.421052631578 375 9684.921052631578 390.5Q9712.421052631578 406 9726.421052631578 432.5Q9740.421052631578 459 9740.421052631578 493Q9740.421052631578 537 9721.921052631578 580.5Q9703.421052631578 624 9671.421052631578 664.5Q9639.421052631578 705 9598.421052631578 741Q9568.421052631578 769 9531.921052631578 793.0Q9495.421052631578 817 9457.421052631578 837ZM9600.421052631578 912Q9555.421052631578 912 9520.421052631578 899.5Q9485.421052631578 887 9459.921052631578 864.0Q9434.421052631578 841 9417.421052631578 810.5Q9400.421052631578 780 9392.421052631578 744.5Q9384.421052631578 709 9384.421052631578 672Q9384.421052631578 631 9394.421052631578 588.5Q9404.421052631578 546 9422.921052631578 507.5Q9441.421052631578 469 9469.421052631578 439.0Q9497.421052631578 409 9534.921052631578 392.0Q9572.421052631578 375 9618.421052631578 375Q9629.421052631578 375 9632.921052631578 387.0Q9636.421052631578 399 9632.921052631578 415.0Q9629.421052631578 431 9620.921052631578 443.0Q9612.421052631578 455 9600.421052631578 455Q9572.421052631578 455 9549.421052631578 474.5Q9526.421052631578 494 9509.421052631578 525.5Q9492.421052631578 557 9482.921052631578 594.5Q9473.421052631578 632 9473.421052631578 668Q9473.421052631578 699 9480.921052631578 729.0Q9488.421052631578 759 9505.421052631578 782.5Q9522.421052631578 806 9550.421052631578 820.0Q9578.421052631578 834 9619.421052631578 834Q9674.421052631578 834 9730.421052631578 804.5Q9786.421052631578 775 9838.421052631578 718.0Q9890.421052631578 661 9931.421052631578 579Q9936.421052631578 571 9948.921052631578 571.5Q9961.421052631578 572 9971.421052631578 579.5Q9981.421052631578 587 9974.421052631578 603Q9941.421052631578 677 9898.421052631578 734.5Q9855.421052631578 792 9805.921052631578 832.0Q9756.421052631578 872 9704.421052631578 892.0Q9652.421052631578 912 9600.421052631578 912ZM9948.421052631578 910Q9894.421052631578 910 9871.921052631578 885.0Q9849.421052631578 860 9850.921052631578 818.0Q9852.421052631578 776 9868.421052631578 723L9949.421052631578 474H9870.421052631578Q9859.421052631578 474 9855.421052631578 464.0Q9851.421052631578 454 9856.421052631578 434Q9862.421052631578 414 9872.421052631578 404.0Q9882.421052631578 394 9893.421052631578 394H9975.421052631578L10039.421052631578 196Q10045.421052631578 176 10054.921052631578 170.0Q10064.421052631578 164 10084.421052631578 164Q10115.421052631578 164 10123.921052631578 173.5Q10132.421052631578 183 10125.421052631578 203L10063.421052631578 394H10189.421052631578Q10200.421052631578 394 10204.921052631578 403.5Q10209.421052631578 413 10203.421052631578 434Q10198.421052631578 453 10188.421052631578 463.5Q10178.421052631578 474 10167.421052631578 474H10038.421052631578L9943.421052631578 765Q9932.421052631578 800 9937.921052631578 817.5Q9943.421052631578 835 9964.421052631578 835Q9994.421052631578 835 10018.421052631578 815.0Q10042.421052631578 795 10059.421052631578 774Q10065.421052631578 765 10075.921052631578 762.0Q10086.421052631578 759 10101.421052631578 769Q10118.421052631578 779 10119.421052631578 789.0Q10120.421052631578 799 10114.421052631578 810Q10102.421052631578 830 10079.921052631578 854.0Q10057.421052631578 878 10024.921052631578 894.0Q9992.421052631578 910 9948.421052631578 910Z" fill="currentColor" /></svg>