<svg viewBox="0 0 7921 2079" xmlns="http://www.w3.org/2000/svg"><path d="M436 1104Q417 1104 407.5 1093.0Q398 1082 398 1062Q398 1042 407.0 1031.5Q416 1021 435 1021Q518 1020 585.0 999.0Q652 978 699.5 937.5Q747 897 772.5 838.0Q798 779 798 702Q798 610 750.0 560.5Q702 511 620 511Q572 511 530.5 531.0Q489 551 454.5 589.0Q420 627 395.0 680.0Q370 733 357.0 799.5Q344 866 344 944V1494Q344 1507 334.0 1514.5Q324 1522 301 1522Q279 1522 268.0 1514.5Q257 1507 257 1494V651Q238 687 213.5 716.5Q189 746 157.5 771.0Q126 796 86 819Q69 828 56.0 824.0Q43 820 32 800Q22 782 25.0 769.0Q28 756 47 747Q105 716 145.5 674.0Q186 632 211.5 577.5Q237 523 250 458Q254 438 266.5 433.0Q279 428 301 428Q322 428 333.0 434.5Q344 441 344 455V623Q375 558 418.0 515.0Q461 472 514.0 450.0Q567 428 626 428Q705 428 764.0 461.0Q823 494 856.0 555.0Q889 616 889 701Q889 794 856.0 868.0Q823 942 762.5 994.0Q702 1046 619.0 1074.0Q536 1102 436 1104ZM802 1525Q783 1525 774.0 1513.5Q765 1502 765.0 1487.5Q765 1473 774.0 1461.5Q783 1450 802 1450Q833 1450 862.5 1434.5Q892 1419 921.0 1390.5Q950 1362 976.0 1322.0Q1002 1282 1026.0 1232.0Q1050 1182 1070.5 1125.0Q1091 1068 1107.5 1004.5Q1124 941 1135.5 874.0Q1147 807 1153.0 737.0Q1159 667 1159 598Q1159 583 1172.0 575.0Q1185 567 1202.5 567.0Q1220 567 1233.0 575.0Q1246 583 1246 598Q1246 668 1238.0 740.0Q1230 812 1216.0 884.0Q1202 956 1181.5 1024.5Q1161 1093 1136.0 1156.5Q1111 1220 1081.0 1276.5Q1051 1333 1018.5 1378.0Q986 1423 950.5 1456.0Q915 1489 877.5 1507.0Q840 1525 802 1525ZM1178 1525Q1110 1525 1066.5 1495.0Q1023 1465 1002.5 1409.5Q982 1354 982 1280V616Q982 519 1015.5 471.5Q1049 424 1117 424Q1160 424 1188.5 443.5Q1217 463 1231.5 501.5Q1246 540 1246 598Q1246 617 1233.0 626.0Q1220 635 1202.5 635.0Q1185 635 1172.0 626.0Q1159 617 1159 598Q1159 566 1154.0 545.0Q1149 524 1139.5 514.0Q1130 504 1115 504Q1100 504 1089.0 514.5Q1078 525 1073.0 549.5Q1068 574 1068 616V1280Q1068 1332 1079.5 1370.5Q1091 1409 1119.5 1429.5Q1148 1450 1197 1450Q1211 1450 1217.5 1461.5Q1224 1473 1222.5 1487.5Q1221 1502 1210.0 1513.5Q1199 1525 1178 1525ZM1178 1525Q1164 1525 1157.5 1513.5Q1151 1502 1152.5 1487.5Q1154 1473 1165.0 1461.5Q1176 1450 1197 1450Q1227 1450 1250.5 1442.0Q1274 1434 1291.0 1418.0Q1308 1402 1318.5 1378.0Q1329 1354 1333 1322Q1335 1307 1348.0 1302.5Q1361 1298 1373.5 1302.5Q1386 1307 1384 1322Q1380 1375 1363.0 1413.5Q1346 1452 1319.0 1476.5Q1292 1501 1256.5 1513.0Q1221 1525 1178 1525ZM1523 1525Q1466 1525 1422.0 1497.5Q1378 1470 1353.0 1414.0Q1328 1358 1328 1273Q1328 1221 1338.0 1177.0Q1348 1133 1366.5 1098.0Q1385 1063 1412.5 1039.0Q1440 1015 1475.0 1002.0Q1510 989 1552 989Q1593 989 1636.0 1005.0Q1679 1021 1713 1047V1122Q1673 1090 1636.5 1079.0Q1600 1068 1561 1068Q1535 1068 1512.5 1076.0Q1490 1084 1472.5 1100.0Q1455 1116 1442.5 1140.0Q1430 1164 1423.5 1196.0Q1417 1228 1417 1269Q1417 1324 1430.0 1363.5Q1443 1403 1469.5 1424.0Q1496 1445 1536 1445Q1572 1445 1603.5 1428.5Q1635 1412 1661.5 1375.5Q1688 1339 1707 1279L1723 1340Q1700 1417 1666.5 1457.0Q1633 1497 1595.5 1511.0Q1558 1525 1523 1525ZM1813 1525Q1779 1525 1754.0 1515.5Q1729 1506 1713.0 1486.5Q1697 1467 1689.5 1437.5Q1682 1408 1682 1368V1022Q1682 1007 1693.0 1000.0Q1704 993 1726 993Q1747 993 1757.5 999.5Q1768 1006 1768 1020V1368Q1768 1413 1781.5 1431.5Q1795 1450 1832 1450Q1841 1450 1845.5 1461.5Q1850 1473 1848.5 1487.5Q1847 1502 1838.5 1513.5Q1830 1525 1813 1525ZM1813 1525Q1804 1525 1800.0 1513.5Q1796 1502 1798.0 1487.5Q1800 1473 1808.0 1461.5Q1816 1450 1831 1450Q1855 1450 1873.5 1437.0Q1892 1424 1906.0 1398.0Q1920 1372 1930.0 1334.0Q1940 1296 1946 1245Q1955 1171 1969.5 1122.5Q1984 1074 2004.0 1045.5Q2024 1017 2049.0 1005.0Q2074 993 2104 993Q2113 993 2117.5 1004.5Q2122 1016 2121.5 1030.5Q2121 1045 2116.0 1056.5Q2111 1068 2102 1068Q2090 1068 2078.5 1074.5Q2067 1081 2057.0 1098.5Q2047 1116 2038.5 1148.5Q2030 1181 2023 1233Q2012 1323 1993.5 1380.5Q1975 1438 1949.5 1469.5Q1924 1501 1890.0 1513.0Q1856 1525 1813 1525ZM2388 2092Q2318 2092 2276.0 2052.0Q2234 2012 2234 1940Q2234 1905 2244.0 1868.0Q2254 1831 2274.0 1793.5Q2294 1756 2324.5 1718.5Q2355 1681 2395 1643Q2412 1628 2429.0 1613.5Q2446 1599 2463.0 1585.5Q2480 1572 2498 1559V1432Q2485 1453 2467.5 1470.5Q2450 1488 2428.5 1500.0Q2407 1512 2383.0 1518.5Q2359 1525 2332 1525Q2274 1525 2235.0 1504.5Q2196 1484 2176.5 1443.5Q2157 1403 2157 1342V1139Q2157 1097 2145.0 1082.5Q2133 1068 2102 1068Q2086 1068 2077.5 1056.5Q2069 1045 2069.0 1030.5Q2069 1016 2077.5 1004.5Q2086 993 2104 993Q2140 993 2166.5 1003.0Q2193 1013 2210.0 1034.0Q2227 1055 2235.0 1086.0Q2243 1117 2243 1159V1342Q2243 1377 2254.0 1401.0Q2265 1425 2287.5 1437.0Q2310 1449 2343 1449Q2371 1449 2395.0 1440.0Q2419 1431 2438.5 1415.0Q2458 1399 2473.0 1377.0Q2488 1355 2498 1330V1019Q2498 1006 2508.5 999.5Q2519 993 2541 993Q2562 993 2573.0 999.5Q2584 1006 2584 1019V1835Q2584 1896 2570.5 1944.0Q2557 1992 2531.5 2025.0Q2506 2058 2469.5 2075.0Q2433 2092 2388 2092ZM2394 2015Q2427 2015 2450.0 1994.0Q2473 1973 2485.5 1932.5Q2498 1892 2498 1833V1651Q2485 1660 2473.5 1669.0Q2462 1678 2451.5 1686.5Q2441 1695 2431 1703Q2405 1731 2385.0 1760.0Q2365 1789 2351.0 1818.0Q2337 1847 2330.0 1876.0Q2323 1905 2323 1934Q2323 1959 2331.0 1977.5Q2339 1996 2354.5 2005.5Q2370 2015 2394 2015ZM2543 1622Q2534 1627 2525.0 1618.5Q2516 1610 2511.0 1595.5Q2506 1581 2510.0 1566.0Q2514 1551 2531 1543Q2589 1513 2625.0 1468.5Q2661 1424 2681.5 1372.5Q2702 1321 2714.5 1267.5Q2727 1214 2737.0 1165.0Q2747 1116 2762.0 1077.0Q2777 1038 2803.5 1015.5Q2830 993 2876 993Q2890 993 2897.0 1004.5Q2904 1016 2903.5 1030.5Q2903 1045 2895.0 1056.5Q2887 1068 2872 1068Q2848 1068 2835.0 1089.0Q2822 1110 2814.0 1146.0Q2806 1182 2797.5 1228.5Q2789 1275 2774.0 1327.0Q2759 1379 2731.5 1432.0Q2704 1485 2658.5 1533.5Q2613 1582 2543 1622ZM3082 1525Q3046 1525 3017.5 1513.5Q2989 1502 2969.0 1479.0Q2949 1456 2938.5 1422.0Q2928 1388 2928 1342V1139Q2928 1097 2916.0 1082.5Q2904 1068 2873 1068Q2857 1068 2848.5 1056.5Q2840 1045 2840.0 1030.5Q2840 1016 2848.5 1004.5Q2857 993 2875 993Q2911 993 2937.5 1003.0Q2964 1013 2981.0 1034.0Q2998 1055 3006.0 1086.0Q3014 1117 3014 1159V1342Q3014 1377 3022.5 1401.0Q3031 1425 3049.5 1437.0Q3068 1449 3097 1449Q3117 1449 3139.0 1441.5Q3161 1434 3180.5 1415.0Q3200 1396 3212.0 1362.5Q3224 1329 3224 1278V1019Q3224 1007 3234.5 1000.0Q3245 993 3267 993Q3290 993 3300.0 1000.0Q3310 1007 3310 1019V1297Q3310 1343 3314.5 1372.0Q3319 1401 3329.5 1417.5Q3340 1434 3357.0 1440.5Q3374 1447 3398 1447Q3418 1447 3438.0 1441.0Q3458 1435 3476.5 1421.5Q3495 1408 3509.0 1386.0Q3523 1364 3531.5 1333.5Q3540 1303 3540 1262Q3540 1215 3535.0 1181.0Q3530 1147 3522 1118Q3492 1102 3475.5 1085.5Q3459 1069 3459 1042Q3459 1025 3469.5 1007.0Q3480 989 3510 989Q3540 989 3561.0 1013.5Q3582 1038 3596.0 1078.0Q3610 1118 3616.5 1164.0Q3623 1210 3623 1253Q3623 1295 3613.0 1335.5Q3603 1376 3584.0 1410.5Q3565 1445 3536.5 1471.0Q3508 1497 3471.0 1512.0Q3434 1527 3388 1527Q3355 1527 3326.0 1516.0Q3297 1505 3275.5 1482.5Q3254 1460 3241 1425Q3224 1458 3199.0 1480.0Q3174 1502 3144.0 1513.5Q3114 1525 3082 1525ZM3726 1247Q3689 1247 3655.5 1229.0Q3622 1211 3589.5 1169.5Q3557 1128 3521 1059Q3511 1039 3521.5 1027.5Q3532 1016 3549.0 1016.5Q3566 1017 3575 1035Q3601 1084 3626.5 1116.0Q3652 1148 3677.0 1163.5Q3702 1179 3726 1179Q3756 1179 3772.0 1140.0Q3788 1101 3788 1045Q3788 1032 3798.5 1024.0Q3809 1016 3822.5 1015.0Q3836 1014 3846.5 1022.0Q3857 1030 3857 1049Q3857 1112 3841.0 1156.5Q3825 1201 3796.0 1224.0Q3767 1247 3726 1247ZM4188 1525Q4165 1525 4142.0 1518.5Q4119 1512 4099.5 1498.5Q4080 1485 4068.5 1462.5Q4057 1440 4057 1408Q4057 1383 4059.5 1349.0Q4062 1315 4064.5 1277.5Q4067 1240 4069.5 1206.0Q4072 1172 4072 1147Q4072 1108 4062.5 1093.5Q4053 1079 4027 1079Q3999 1079 3963.0 1089.0Q3927 1099 3893.0 1108.5Q3859 1118 3838 1118Q3820 1118 3803.5 1098.5Q3787 1079 3776.0 1050.5Q3765 1022 3765 995Q3765 977 3771.5 963.0Q3778 949 3790.5 941.0Q3803 933 3821 933Q3852 933 3863.5 953.0Q3875 973 3875 998Q3875 1009 3873.0 1020.0Q3871 1031 3868 1039Q3878 1039 3896.5 1032.5Q3915 1026 3939.0 1017.0Q3963 1008 3990.5 1001.5Q4018 995 4045 995Q4085 995 4110.0 1010.0Q4135 1025 4146.5 1056.5Q4158 1088 4158 1139Q4158 1162 4155.5 1197.5Q4153 1233 4150.5 1271.0Q4148 1309 4145.5 1342.0Q4143 1375 4143 1393Q4143 1424 4160.0 1437.0Q4177 1450 4207 1450Q4221 1450 4228.0 1461.5Q4235 1473 4233.5 1487.5Q4232 1502 4221.0 1513.5Q4210 1525 4188 1525ZM4190 1525Q4176 1525 4169.5 1513.5Q4163 1502 4164.5 1487.5Q4166 1473 4177.0 1461.5Q4188 1450 4209 1450Q4242 1450 4270.0 1439.0Q4298 1428 4321.0 1408.0Q4344 1388 4361.5 1361.0Q4379 1334 4391 1303Q4397 1288 4408.5 1289.5Q4420 1291 4428.5 1301.0Q4437 1311 4434 1322Q4419 1370 4395.5 1407.5Q4372 1445 4341.5 1471.5Q4311 1498 4273.0 1511.5Q4235 1525 4190 1525ZM4515 1525Q4481 1525 4456.0 1515.5Q4431 1506 4415.0 1486.5Q4399 1467 4391.5 1437.5Q4384 1408 4384 1368V1019Q4384 1006 4394.5 999.5Q4405 993 4426 993Q4448 993 4459.0 999.5Q4470 1006 4470 1019V1368Q4470 1413 4483.5 1431.5Q4497 1450 4534 1450Q4548 1450 4555.0 1461.5Q4562 1473 4560.5 1487.5Q4559 1502 4548.0 1513.5Q4537 1525 4515 1525ZM4428 839Q4400 839 4385.5 823.5Q4371 808 4371 777Q4371 745 4385.5 729.0Q4400 713 4428 713Q4455 713 4469.0 729.0Q4483 745 4483 777Q4484 808 4469.5 823.5Q4455 839 4428 839ZM4515 1525Q4501 1525 4494.5 1513.5Q4488 1502 4489.5 1487.5Q4491 1473 4502.0 1461.5Q4513 1450 4534 1450Q4568 1450 4596.5 1438.0Q4625 1426 4648.0 1405.0Q4671 1384 4689.5 1355.0Q4708 1326 4721 1292Q4727 1277 4739.0 1278.5Q4751 1280 4759.5 1289.0Q4768 1298 4765 1309Q4749 1360 4725.0 1400.0Q4701 1440 4669.5 1468.0Q4638 1496 4599.5 1510.5Q4561 1525 4515 1525ZM4903 1525Q4855 1525 4819.0 1511.0Q4783 1497 4758.5 1469.0Q4734 1441 4721.5 1400.0Q4709 1359 4709 1305V1088H4631Q4616 1088 4610.0 1079.0Q4604 1070 4604 1048Q4604 1025 4610.0 1016.5Q4616 1008 4631 1008H4709V804Q4709 791 4719.5 784.5Q4730 778 4751 778Q4773 778 4784.0 784.5Q4795 791 4795 804V1008H4921Q4936 1008 4942.5 1016.5Q4949 1025 4949 1048Q4949 1070 4942.5 1079.0Q4936 1088 4921 1088H4795V1305Q4795 1341 4803.0 1368.0Q4811 1395 4827.0 1413.0Q4843 1431 4866.5 1440.5Q4890 1450 4921 1450Q4935 1450 4942.0 1461.5Q4949 1473 4947.5 1487.5Q4946 1502 4935.0 1513.5Q4924 1525 4903 1525ZM4903 1525Q4884 1525 4877.5 1513.5Q4871 1502 4875.0 1487.5Q4879 1473 4891.0 1461.5Q4903 1450 4922 1450Q4978 1450 5029.5 1431.0Q5081 1412 5118 1384Q5132 1375 5142.0 1380.0Q5152 1385 5157.0 1397.5Q5162 1410 5160.5 1423.5Q5159 1437 5148 1444Q5116 1467 5074.5 1485.5Q5033 1504 4989.0 1514.5Q4945 1525 4903 1525ZM5119 1388Q5142 1373 5162.5 1355.5Q5183 1338 5199 1319Q5221 1294 5236.5 1267.5Q5252 1241 5260.0 1214.0Q5268 1187 5268 1162Q5268 1109 5248.0 1088.5Q5228 1068 5194 1068Q5177 1068 5162.5 1075.5Q5148 1083 5137.0 1098.5Q5126 1114 5120.0 1136.0Q5114 1158 5114 1187Q5114 1244 5130.5 1291.5Q5147 1339 5174.0 1373.0Q5201 1407 5231.5 1426.0Q5262 1445 5289 1445Q5308 1445 5326.0 1437.5Q5344 1430 5363.5 1415.0Q5383 1400 5403 1378Q5417 1362 5430.0 1362.5Q5443 1363 5457 1374Q5471 1385 5473.5 1397.0Q5476 1409 5467 1423Q5442 1461 5408.5 1483.5Q5375 1506 5341.0 1515.5Q5307 1525 5278 1525Q5238 1525 5200.5 1508.0Q5163 1491 5131.5 1460.0Q5100 1429 5076.5 1386.5Q5053 1344 5040.0 1293.5Q5027 1243 5027 1187Q5027 1153 5035.0 1122.5Q5043 1092 5058.0 1067.5Q5073 1043 5094.0 1025.5Q5115 1008 5141.0 998.5Q5167 989 5197 989Q5254 989 5289.5 1012.0Q5325 1035 5341.0 1072.5Q5357 1110 5357 1153Q5357 1187 5344.5 1223.0Q5332 1259 5310.0 1293.5Q5288 1328 5259 1360Q5237 1385 5212.0 1407.0Q5187 1429 5158 1448ZM6172 1525Q6084 1525 6014.0 1490.0Q5944 1455 5895.0 1388.0Q5846 1321 5820.0 1224.5Q5794 1128 5794 1006Q5794 922 5810.0 846.5Q5826 771 5855.0 706.5Q5884 642 5925.5 590.5Q5967 539 6019.0 502.5Q6071 466 6131.5 447.0Q6192 428 6260 428Q6340 428 6407.0 453.0Q6474 478 6526.5 530.0Q6579 582 6611 662Q6619 680 6620.0 696.0Q6621 712 6599 724Q6575 738 6563.0 729.0Q6551 720 6543 702Q6513 635 6469.0 593.5Q6425 552 6372.0 532.5Q6319 513 6259 513Q6205 513 6156.5 529.5Q6108 546 6066.5 576.5Q6025 607 5992.0 651.0Q5959 695 5935.5 749.5Q5912 804 5899.5 868.5Q5887 933 5887 1005Q5887 1108 5906.0 1188.5Q5925 1269 5962.5 1325.5Q6000 1382 6054.0 1411.0Q6108 1440 6177 1440Q6226 1440 6271.5 1420.0Q6317 1400 6358.0 1359.5Q6399 1319 6432.5 1258.0Q6466 1197 6491.5 1114.5Q6517 1032 6530 927Q6530 913 6541.0 906.5Q6552 900 6574 900Q6596 900 6607.0 906.5Q6618 913 6618 927L6617 1324Q6617 1354 6621.5 1376.0Q6626 1398 6635.0 1412.5Q6644 1427 6657.5 1434.0Q6671 1441 6689 1441Q6707 1441 6722.0 1434.0Q6737 1427 6750.5 1414.0Q6764 1401 6775 1383Q6786 1366 6798.5 1362.5Q6811 1359 6828 1370Q6846 1381 6847.5 1395.0Q6849 1409 6839 1425Q6825 1449 6808.0 1468.0Q6791 1487 6771.0 1499.5Q6751 1512 6729.5 1518.5Q6708 1525 6684 1525Q6634 1525 6599.5 1503.0Q6565 1481 6547.5 1436.0Q6530 1391 6530 1325V1201Q6503 1277 6465.5 1337.0Q6428 1397 6382.0 1439.0Q6336 1481 6283.5 1503.0Q6231 1525 6172 1525ZM7754 1527Q7715 1527 7683.0 1510.5Q7651 1494 7622.0 1462.0Q7593 1430 7562.5 1385.0Q7532 1340 7496 1282Q7468 1237 7447.5 1204.5Q7427 1172 7412.5 1147.5Q7398 1123 7385.0 1101.0Q7372 1079 7359 1054Q7328 1055 7306.0 1045.5Q7284 1036 7272.5 1021.0Q7261 1006 7261 990Q7261 968 7277.5 954.0Q7294 940 7322 940Q7344 940 7365.5 950.0Q7387 960 7402 975Q7444 966 7481.0 948.5Q7518 931 7547.0 905.5Q7576 880 7597.5 848.5Q7619 817 7630.5 779.0Q7642 741 7642 698Q7642 641 7621.5 598.5Q7601 556 7561.5 533.5Q7522 511 7466 511Q7415 511 7370.5 530.0Q7326 549 7289.0 585.0Q7252 621 7225.0 674.0Q7198 727 7183.5 794.5Q7169 862 7169 944V1494Q7169 1507 7159.0 1514.5Q7149 1522 7126 1522Q7104 1522 7093.0 1514.5Q7082 1507 7082 1494V651Q7063 687 7038.5 716.5Q7014 746 6982.5 771.0Q6951 796 6911 819Q6894 827 6881.0 823.5Q6868 820 6857 800Q6847 782 6850.0 769.0Q6853 756 6872 747Q6930 716 6970.5 674.0Q7011 632 7036.5 577.5Q7062 523 7075 458Q7079 438 7091.5 433.0Q7104 428 7126 428Q7147 428 7158.0 434.5Q7169 441 7169 455V630Q7193 580 7225.0 542.0Q7257 504 7295.5 479.0Q7334 454 7378.0 441.0Q7422 428 7470 428Q7552 428 7611.0 460.5Q7670 493 7701.5 552.5Q7733 612 7733 692Q7733 743 7720.0 789.0Q7707 835 7682.0 873.5Q7657 912 7621.5 943.5Q7586 975 7541.0 998.5Q7496 1022 7442 1037Q7452 1056 7462.0 1073.5Q7472 1091 7484.5 1112.0Q7497 1133 7515.0 1161.0Q7533 1189 7558 1228Q7595 1286 7622.0 1325.0Q7649 1364 7670.0 1387.5Q7691 1411 7706.0 1423.5Q7721 1436 7733.5 1440.0Q7746 1444 7757 1444Q7775 1444 7790.0 1436.5Q7805 1429 7818.5 1415.0Q7832 1401 7846 1384Q7854 1374 7866.0 1374.0Q7878 1374 7892 1384Q7906 1394 7909.5 1407.0Q7913 1420 7905 1431Q7883 1462 7857.0 1483.5Q7831 1505 7804.0 1516.0Q7777 1527 7754 1527Z" fill="currentColor" /></svg>