<svg viewBox="0 0 13272 1932" xmlns="http://www.w3.org/2000/svg"><path d="M104 1442Q74 1442 81 1422L396 449Q400 439 406.5 434.5Q413 430 429 430H615Q707 430 768.0 450.5Q829 471 859.5 515.5Q890 560 890 633Q890 713 860.5 776.0Q831 839 775.5 884.0Q720 929 643.0 958.0Q566 987 470 999Q421 1005 369.5 1008.5Q318 1012 268 1014L135 1423Q132 1433 125.5 1437.5Q119 1442 104 1442ZM284 964Q316 963 348.5 961.0Q381 959 414.0 956.0Q447 953 477 949Q587 933 667.0 893.5Q747 854 790.0 790.0Q833 726 833 637Q833 579 808.5 545.0Q784 511 735.0 495.5Q686 480 612 480H441ZM0 1918H776V1928H0ZM0 1408H776V1428H0ZM0 923H776V928H0ZM0 418H776V428H0ZM911 1445Q881 1445 863.0 1435.0Q845 1425 836.5 1406.5Q828 1388 830.0 1361.5Q832 1335 842 1303L1128 434Q1132 422 1138.5 417.5Q1145 413 1158 413Q1175 413 1181.0 419.0Q1187 425 1183 437L897 1304Q881 1353 886.0 1375.0Q891 1397 925 1397Q935 1397 939.5 1404.5Q944 1412 942.0 1421.0Q940 1430 932.5 1437.5Q925 1445 911 1445ZM776 1918H1078V1928H776ZM776 1408H1078V1428H776ZM776 923H1078V928H776ZM776 418H1078V428H776ZM910 1445Q900 1445 895.0 1437.5Q890 1430 891.5 1421.0Q893 1412 901.5 1404.5Q910 1397 925 1397Q952 1397 983.5 1378.5Q1015 1360 1048.0 1327.0Q1081 1294 1113.0 1249.0Q1145 1204 1174 1151Q1179 1141 1188.0 1142.0Q1197 1143 1203.0 1149.5Q1209 1156 1205 1166Q1174 1228 1138.5 1279.0Q1103 1330 1065.5 1367.0Q1028 1404 989.0 1424.5Q950 1445 910 1445ZM1078 1918V1928ZM1078 1408V1428ZM1078 923V928ZM1078 418V428ZM1257 1445Q1221 1445 1194.5 1426.5Q1168 1408 1153.0 1373.5Q1138 1339 1138 1292Q1138 1248 1152.0 1196.0Q1166 1144 1192.5 1093.5Q1219 1043 1259.0 1001.0Q1299 959 1351.0 934.0Q1403 909 1467 909Q1504 909 1543.5 922.0Q1583 935 1615 958L1602 1001Q1559 975 1524.5 966.5Q1490 958 1460 958Q1410 958 1368.0 979.5Q1326 1001 1293.5 1036.5Q1261 1072 1239.0 1115.5Q1217 1159 1206.0 1203.5Q1195 1248 1195 1287Q1195 1319 1203.5 1343.5Q1212 1368 1229.0 1381.5Q1246 1395 1271 1395Q1310 1395 1357.0 1359.5Q1404 1324 1456.0 1252.0Q1508 1180 1560 1072L1576 1110Q1519 1229 1463.0 1303.0Q1407 1377 1355.0 1411.0Q1303 1445 1257 1445ZM1545 1445Q1518 1445 1500.5 1435.0Q1483 1425 1475.0 1406.5Q1467 1388 1468.5 1363.0Q1470 1338 1480 1307L1602 934Q1606 922 1613.0 917.5Q1620 913 1633 913Q1650 913 1655.5 920.0Q1661 927 1656 939L1535 1308Q1519 1356 1525.0 1376.5Q1531 1397 1559 1397Q1569 1397 1573.0 1404.5Q1577 1412 1575.5 1421.0Q1574 1430 1566.5 1437.5Q1559 1445 1545 1445ZM1078 1918H1713V1928H1078ZM1078 1408H1713V1428H1078ZM1078 923H1713V928H1078ZM1078 418H1713V428H1078ZM1545 1445Q1535 1445 1530.0 1437.5Q1525 1430 1526.5 1421.0Q1528 1412 1536.5 1404.5Q1545 1397 1560 1397Q1589 1397 1622.0 1376.0Q1655 1355 1695.0 1311.0Q1735 1267 1785.5 1196.0Q1836 1125 1899 1025Q1905 1014 1914.5 1015.5Q1924 1017 1929.5 1025.0Q1935 1033 1929 1043Q1859 1157 1806.0 1234.5Q1753 1312 1709.5 1358.5Q1666 1405 1626.5 1425.0Q1587 1445 1545 1445ZM1713 1918V1928ZM1713 1408V1428ZM1713 923V928ZM1713 418V428ZM1902 1443Q1862 1443 1835.0 1424.0Q1808 1405 1802.0 1364.5Q1796 1324 1817 1260L1925 934Q1929 922 1935.0 917.5Q1941 913 1955 913Q1972 913 1978.0 919.0Q1984 925 1980 937L1871 1266Q1857 1307 1856.5 1336.0Q1856 1365 1871.0 1379.5Q1886 1394 1916 1394Q1946 1394 1984.0 1374.5Q2022 1355 2064.0 1312.5Q2106 1270 2149.5 1202.0Q2193 1134 2235 1037L2268 934Q2273 922 2279.5 917.5Q2286 913 2299 913Q2317 913 2321.5 920.5Q2326 928 2322 940L2068 1722Q2043 1800 2014.0 1850.0Q1985 1900 1944.5 1923.5Q1904 1947 1842 1947Q1804 1947 1771.5 1936.0Q1739 1925 1712.0 1904.5Q1685 1884 1663 1857Q1656 1847 1655.5 1838.0Q1655 1829 1667 1820Q1679 1811 1686.0 1811.5Q1693 1812 1700 1820Q1731 1859 1766.5 1878.5Q1802 1898 1847 1898Q1892 1898 1921.5 1878.5Q1951 1859 1972.5 1819.5Q1994 1780 2014 1719L2175 1223Q2139 1284 2102.0 1326.0Q2065 1368 2029.5 1394.0Q1994 1420 1961.5 1431.5Q1929 1443 1902 1443ZM1713 1918H2366V1928H1713ZM1713 1408H2366V1428H1713ZM1713 923H2366V928H1713ZM1713 418H2366V428H1713ZM2565 1447Q2529 1447 2505.0 1432.5Q2481 1418 2469.5 1391.5Q2458 1365 2459.5 1329.5Q2461 1294 2475 1253L2579 933Q2583 923 2589.0 918.0Q2595 913 2609 913Q2626 913 2631.0 919.0Q2636 925 2632 936L2526 1262Q2514 1300 2514.0 1331.0Q2514 1362 2528.5 1380.0Q2543 1398 2575 1398Q2609 1398 2642.0 1377.5Q2675 1357 2705.5 1322.5Q2736 1288 2761.5 1244.5Q2787 1201 2805 1154L2877 934Q2880 924 2886.5 919.0Q2893 914 2906 914Q2923 914 2928.0 920.0Q2933 926 2930 937L2834 1235Q2823 1269 2818.0 1298.5Q2813 1328 2817.5 1350.5Q2822 1373 2837.0 1385.5Q2852 1398 2880 1398Q2919 1398 2957.0 1374.5Q2995 1351 3028.0 1312.5Q3061 1274 3086.5 1227.5Q3112 1181 3126 1134Q3138 1093 3140.0 1062.0Q3142 1031 3140 1007Q3121 996 3112.5 981.0Q3104 966 3104 950Q3104 934 3114.0 921.5Q3124 909 3143 909Q3165 909 3176.0 930.0Q3187 951 3187 986Q3190 1004 3190.5 1028.5Q3191 1053 3187.5 1080.5Q3184 1108 3176 1138Q3161 1193 3131.5 1247.5Q3102 1302 3062.0 1347.5Q3022 1393 2973.5 1420.0Q2925 1447 2870 1447Q2832 1447 2806.5 1431.5Q2781 1416 2770.0 1385.5Q2759 1355 2765 1310Q2738 1352 2706.0 1383.0Q2674 1414 2638.5 1430.5Q2603 1447 2565 1447ZM2366 1918H3254V1928H2366ZM2366 1408H3254V1428H2366ZM2366 923H3254V928H2366ZM2366 418H3254V428H2366ZM3225 1024Q3201 1024 3184.5 1019.5Q3168 1015 3157 1011L3160 962Q3172 970 3188.0 976.0Q3204 982 3231 982Q3258 982 3285.5 971.0Q3313 960 3341.0 946.0Q3369 932 3396.5 921.0Q3424 910 3452 910Q3460 910 3463.0 917.5Q3466 925 3465.0 934.0Q3464 943 3458.5 950.5Q3453 958 3442 958Q3423 958 3398.5 968.0Q3374 978 3346.0 991.0Q3318 1004 3287.5 1014.0Q3257 1024 3225 1024ZM3253 1918H3278V1928H3253ZM3253 1408H3278V1428H3253ZM3253 923H3278V928H3253ZM3253 418H3278V428H3253ZM3355 1443Q3343 1443 3335.5 1438.0Q3328 1433 3331 1422L3459 1027Q3470 992 3466.5 975.0Q3463 958 3442 958Q3432 958 3428.0 950.5Q3424 943 3425.5 934.0Q3427 925 3434.5 917.5Q3442 910 3453 910Q3477 910 3492.5 918.0Q3508 926 3515.0 941.5Q3522 957 3521.5 978.5Q3521 1000 3514 1026L3484 1120Q3518 1058 3547.0 1017.0Q3576 976 3601.5 952.5Q3627 929 3649.5 919.0Q3672 909 3691 909Q3703 909 3707.5 916.5Q3712 924 3710.5 934.0Q3709 944 3701.0 951.0Q3693 958 3681 958Q3659 958 3631.0 981.0Q3603 1004 3569.5 1047.5Q3536 1091 3500.0 1155.0Q3464 1219 3426 1301L3386 1424Q3383 1434 3376.5 1438.5Q3370 1443 3355 1443ZM3279 1918H3683V1928H3279ZM3279 1408H3683V1428H3279ZM3279 923H3683V928H3279ZM3279 418H3683V428H3279ZM3742 1092Q3710 1092 3693.0 1072.5Q3676 1053 3672.0 1021.5Q3668 990 3672 955L3691 909Q3708 909 3714.0 914.5Q3720 920 3720 932Q3716 960 3715.0 981.5Q3714 1003 3717.5 1018.0Q3721 1033 3729.5 1041.0Q3738 1049 3752 1049Q3776 1049 3804.5 1031.0Q3833 1013 3864.0 983.5Q3895 954 3924 921Q3931 913 3939.5 917.5Q3948 922 3952.5 931.5Q3957 941 3949 950Q3917 986 3882.5 1018.5Q3848 1051 3813.5 1071.5Q3779 1092 3742 1092ZM3683 1918H3706V1928H3683ZM3683 1408H3706V1428H3683ZM3683 923H3706V928H3683ZM3683 418H3706V428H3683ZM3863 1445Q3834 1445 3815.5 1435.0Q3797 1425 3789.0 1406.5Q3781 1388 3783.0 1361.5Q3785 1335 3795 1303L3916 934Q3920 922 3926.0 917.5Q3932 913 3946 913Q3962 913 3968.0 919.0Q3974 925 3970 937L3850 1304Q3834 1353 3839.0 1375.0Q3844 1397 3877 1397Q3887 1397 3891.5 1404.5Q3896 1412 3894.5 1421.0Q3893 1430 3885.0 1437.5Q3877 1445 3863 1445ZM4005 745Q3987 745 3976.0 736.0Q3965 727 3965 709Q3965 685 3979.5 665.5Q3994 646 4022 646Q4039 646 4050.5 655.0Q4062 664 4062 683Q4062 706 4047.5 725.5Q4033 745 4005 745ZM3705 1918H4030V1928H3705ZM3705 1408H4030V1428H3705ZM3705 923H4030V928H3705ZM3705 418H4030V428H3705ZM3862 1445Q3852 1445 3847.0 1437.5Q3842 1430 3843.5 1421.0Q3845 1412 3853.5 1404.5Q3862 1397 3877 1397Q3906 1397 3941.5 1379.0Q3977 1361 4018.0 1322.0Q4059 1283 4107.0 1218.5Q4155 1154 4211 1061Q4218 1050 4227.0 1051.0Q4236 1052 4240.5 1060.5Q4245 1069 4239 1080Q4179 1184 4128.0 1254.0Q4077 1324 4032.0 1366.0Q3987 1408 3945.0 1426.5Q3903 1445 3862 1445ZM4030 1918V1928ZM4030 1408V1428ZM4030 923V928ZM4030 418V428ZM4251 1445Q4209 1445 4182.5 1427.0Q4156 1409 4143.0 1377.5Q4130 1346 4132.5 1303.0Q4135 1260 4152 1209L4229 976H4142Q4131 976 4128.5 969.5Q4126 963 4130 951Q4134 939 4140.0 933.5Q4146 928 4156 928H4245L4313 719Q4317 707 4323.5 702.5Q4330 698 4344 698Q4361 698 4367.0 704.0Q4373 710 4369 722L4300 928H4427Q4438 928 4440.0 934.0Q4442 940 4439 952Q4435 965 4429.0 970.5Q4423 976 4412 976H4285L4207 1209Q4191 1260 4188.0 1295.5Q4185 1331 4194.0 1353.5Q4203 1376 4221.0 1386.5Q4239 1397 4262 1397Q4272 1397 4277.0 1404.5Q4282 1412 4281.0 1421.0Q4280 1430 4272.5 1437.5Q4265 1445 4251 1445ZM4030 1918H4418V1928H4030ZM4030 1408H4418V1428H4030ZM4030 923H4418V928H4030ZM4030 418H4418V428H4030ZM4249 1445Q4239 1445 4234.0 1437.5Q4229 1430 4230.5 1421.0Q4232 1412 4240.5 1404.5Q4249 1397 4264 1397Q4281 1397 4308.5 1387.0Q4336 1377 4381.5 1352.5Q4427 1328 4496 1284Q4505 1279 4512.0 1282.0Q4519 1285 4523.0 1293.0Q4527 1301 4525.0 1310.0Q4523 1319 4514 1325Q4441 1372 4391.0 1398.5Q4341 1425 4307.5 1435.0Q4274 1445 4249 1445ZM4417 1918V1928ZM4417 1408V1428ZM4417 923V928ZM4417 418V428ZM4650 1445Q4594 1445 4556.0 1417.5Q4518 1390 4499.5 1343.5Q4481 1297 4481 1241Q4481 1188 4500.0 1129.5Q4519 1071 4555.0 1021.5Q4591 972 4641.5 940.5Q4692 909 4755 909Q4793 909 4816.5 922.0Q4840 935 4851.0 956.5Q4862 978 4862 1003Q4862 1039 4841.5 1075.0Q4821 1111 4780.5 1149.0Q4740 1187 4678.0 1229.5Q4616 1272 4532 1322L4514 1279Q4585 1236 4639.5 1198.0Q4694 1160 4731.0 1127.0Q4768 1094 4787.0 1064.5Q4806 1035 4806 1010Q4806 985 4791.5 971.5Q4777 958 4748 958Q4700 958 4661.0 985.0Q4622 1012 4594.0 1055.0Q4566 1098 4551.0 1146.0Q4536 1194 4536 1237Q4536 1287 4551.0 1322.5Q4566 1358 4594.5 1377.0Q4623 1396 4660 1396Q4698 1396 4732.5 1379.5Q4767 1363 4795.0 1339.5Q4823 1316 4842 1296Q4851 1288 4859.5 1288.5Q4868 1289 4875 1296Q4881 1303 4883.0 1311.0Q4885 1319 4877 1329Q4851 1359 4815.5 1385.5Q4780 1412 4738.5 1428.5Q4697 1445 4650 1445ZM4418 1918H4944V1928H4418ZM4418 1408H4944V1428H4418ZM4418 923H4944V928H4418ZM4418 418H4944V428H4418ZM5222 1442Q5206 1442 5200.5 1433.0Q5195 1424 5204 1408L5844 434Q5852 422 5859.5 417.5Q5867 413 5881 413Q5894 413 5900.5 418.5Q5907 424 5908 440L5963 1414Q5964 1428 5957.5 1435.0Q5951 1442 5936 1442Q5922 1442 5917.0 1436.5Q5912 1431 5911 1418L5894 1125H5453L5260 1419Q5250 1433 5243.0 1437.5Q5236 1442 5222 1442ZM5485 1075H5892L5861 498ZM5244 1918H6077V1928H5244ZM5244 1408H6077V1428H5244ZM5244 923H6077V928H5244ZM5244 418H6077V428H5244ZM6386 1447Q6323 1447 6280.5 1421.5Q6238 1396 6216.5 1350.5Q6195 1305 6196.0 1242.5Q6197 1180 6221 1107L6439 432Q6442 422 6449.0 417.5Q6456 413 6472 413Q6486 413 6492.5 417.5Q6499 422 6495 433L6275 1112Q6254 1176 6251.0 1228.0Q6248 1280 6262.5 1317.0Q6277 1354 6309.0 1373.5Q6341 1393 6389 1393Q6442 1393 6496.0 1371.5Q6550 1350 6602.5 1310.0Q6655 1270 6705.0 1216.0Q6755 1162 6800.0 1097.0Q6845 1032 6885 960L7055 432Q7058 422 7065.5 417.5Q7073 413 7088 413Q7102 413 7108.0 418.0Q7114 423 7111 433L6791 1423Q6788 1432 6780.5 1437.0Q6773 1442 6758 1442Q6744 1442 6738.0 1436.5Q6732 1431 6736 1422L6831 1126Q6785 1196 6732.5 1254.5Q6680 1313 6623.0 1356.5Q6566 1400 6506.5 1423.5Q6447 1447 6386 1447ZM6049 1918H7031V1928H6049ZM6049 1408H7031V1428H6049ZM6049 923H7031V928H6049ZM6049 418H7031V428H6049ZM7672 1442Q7660 1442 7653.5 1436.0Q7647 1430 7646 1415L7605 441Q7605 426 7611.5 419.5Q7618 413 7633 413Q7648 413 7652.5 418.0Q7657 423 7658 436L7694 1355L8285 436Q8294 422 8301.0 417.5Q8308 413 8323 413Q8339 413 8344.0 423.0Q8349 433 8340 446L7710 1420Q7702 1432 7694.5 1437.0Q7687 1442 7672 1442ZM7331 1918H8136V1928H7331ZM7331 1408H8136V1428H7331ZM7331 923H8136V928H7331ZM7331 418H8136V428H7331ZM8240 1442Q8226 1442 8220.0 1437.0Q8214 1432 8217 1422L8536 432Q8540 422 8547.0 417.5Q8554 413 8569 413Q8584 413 8590.0 417.5Q8596 422 8592 433L8273 1423Q8270 1432 8263.0 1437.0Q8256 1442 8240 1442ZM8136 1918H8511V1928H8136ZM8136 1408H8511V1428H8136ZM8136 923H8511V928H8136ZM8136 418H8511V428H8136ZM8959 1448Q8891 1448 8837.0 1425.0Q8783 1402 8745.0 1357.0Q8707 1312 8686.5 1247.5Q8666 1183 8666 1101Q8666 1026 8683.5 946.0Q8701 866 8734.5 789.0Q8768 712 8817.0 644.0Q8866 576 8929.0 524.0Q8992 472 9069.5 442.5Q9147 413 9237 413Q9294 413 9342.5 426.5Q9391 440 9429.5 465.5Q9468 491 9493 529Q9500 538 9496.5 545.5Q9493 553 9481 560Q9471 566 9464.5 564.5Q9458 563 9446 552Q9421 523 9389.0 504.0Q9357 485 9317.5 475.5Q9278 466 9230 466Q9154 466 9086.5 493.0Q9019 520 8962.5 567.5Q8906 615 8862.0 676.5Q8818 738 8787.5 809.0Q8757 880 8741.0 953.5Q8725 1027 8725 1097Q8725 1168 8741.0 1223.5Q8757 1279 8788.0 1317.0Q8819 1355 8863.5 1375.0Q8908 1395 8965 1395Q9012 1395 9055.0 1380.0Q9098 1365 9139.0 1339.0Q9180 1313 9218.5 1277.0Q9257 1241 9294 1198Q9302 1189 9309.5 1190.0Q9317 1191 9326 1199Q9335 1207 9335.5 1215.0Q9336 1223 9328 1233Q9270 1304 9208.5 1352.0Q9147 1400 9084.0 1424.0Q9021 1448 8959 1448ZM8511 1918H9371V1928H8511ZM8511 1408H9371V1428H8511ZM8511 923H9371V928H8511ZM8511 418H9371V428H8511ZM10055 1445Q10002 1445 9958.0 1423.5Q9914 1402 9883.0 1361.0Q9852 1320 9835.0 1262.0Q9818 1204 9818 1131Q9818 1038 9840.0 949.0Q9862 860 9902.0 779.5Q9942 699 9996.5 632.5Q10051 566 10117.0 516.5Q10183 467 10256.0 440.0Q10329 413 10406 413Q10464 413 10514.0 427.5Q10564 442 10604.5 468.5Q10645 495 10674 530Q10682 539 10680.5 547.5Q10679 556 10667 565Q10656 573 10648.5 570.5Q10641 568 10632 559Q10603 530 10568.0 509.0Q10533 488 10492.0 477.0Q10451 466 10401 466Q10333 466 10267.5 491.5Q10202 517 10143.5 563.5Q10085 610 10036.5 672.5Q9988 735 9952.0 809.0Q9916 883 9896.0 965.0Q9876 1047 9876 1131Q9876 1193 9889.5 1241.5Q9903 1290 9928.0 1323.5Q9953 1357 9987.0 1374.5Q10021 1392 10063 1392Q10127 1392 10191.5 1359.0Q10256 1326 10319.0 1263.0Q10382 1200 10443.0 1112.0Q10504 1024 10560 914Q10563 904 10570.5 899.0Q10578 894 10593 894Q10622 894 10616 913L10452 1423Q10449 1432 10441.5 1437.0Q10434 1442 10419 1442Q10390 1442 10397 1423L10500 1102Q10450 1180 10397.0 1243.5Q10344 1307 10287.5 1352.0Q10231 1397 10173.0 1421.0Q10115 1445 10055 1445ZM9671 1918H10643V1928H9671ZM9671 1408H10643V1428H9671ZM9671 923H10643V928H9671ZM9671 418H10643V428H9671ZM10807 1443Q10766 1443 10739.5 1424.0Q10713 1405 10706.5 1364.5Q10700 1324 10721 1260L10829 934Q10834 922 10840.0 917.5Q10846 913 10860 913Q10876 913 10882.0 919.0Q10888 925 10884 937L10775 1266Q10761 1307 10761.0 1336.0Q10761 1365 10775.5 1379.5Q10790 1394 10820 1394Q10851 1394 10889.0 1374.5Q10927 1355 10969.5 1312.5Q11012 1270 11055.0 1202.0Q11098 1134 11140 1036L11173 931Q11178 919 11184.0 915.0Q11190 911 11204 911Q11220 911 11226.5 916.5Q11233 922 11229 934L11107 1305Q11091 1354 11096.5 1375.5Q11102 1397 11135 1397Q11145 1397 11149.0 1404.5Q11153 1412 11151.5 1421.0Q11150 1430 11142.5 1437.5Q11135 1445 11121 1445Q11094 1445 11076.5 1436.0Q11059 1427 11050.5 1410.5Q11042 1394 11042.0 1370.5Q11042 1347 11050 1319L11081 1222Q11046 1283 11009.0 1325.5Q10972 1368 10936.0 1394.0Q10900 1420 10867.0 1431.5Q10834 1443 10807 1443ZM10643 1918H11289V1928H10643ZM10643 1408H11289V1428H10643ZM10643 923H11289V928H10643ZM10643 418H11289V428H10643ZM11121 1445Q11111 1445 11106.0 1437.5Q11101 1430 11102.5 1421.0Q11104 1412 11112.5 1404.5Q11121 1397 11136 1397Q11165 1397 11198.0 1376.0Q11231 1355 11271.0 1311.0Q11311 1267 11361.5 1196.0Q11412 1125 11475 1025Q11481 1014 11490.5 1015.5Q11500 1017 11505.5 1025.0Q11511 1033 11505 1043Q11435 1157 11382.0 1234.5Q11329 1312 11285.5 1358.5Q11242 1405 11202.5 1425.0Q11163 1445 11121 1445ZM11289 1918V1928ZM11289 1408V1428ZM11289 923V928ZM11289 418V428ZM11447 1445Q11418 1445 11399.5 1435.0Q11381 1425 11373.0 1406.5Q11365 1388 11367.0 1361.5Q11369 1335 11379 1303L11500 934Q11504 922 11510.0 917.5Q11516 913 11530 913Q11546 913 11552.0 919.0Q11558 925 11554 937L11434 1304Q11418 1353 11423.0 1375.0Q11428 1397 11461 1397Q11471 1397 11475.5 1404.5Q11480 1412 11478.5 1421.0Q11477 1430 11469.0 1437.5Q11461 1445 11447 1445ZM11589 745Q11571 745 11560.0 736.0Q11549 727 11549 709Q11549 685 11563.5 665.5Q11578 646 11606 646Q11623 646 11634.5 655.0Q11646 664 11646 683Q11646 706 11631.5 725.5Q11617 745 11589 745ZM11289 1918H11614V1928H11289ZM11289 1408H11614V1428H11289ZM11289 923H11614V928H11289ZM11289 418H11614V428H11289ZM11446 1445Q11436 1445 11431.0 1437.5Q11426 1430 11427.5 1421.0Q11429 1412 11437.5 1404.5Q11446 1397 11461 1397Q11488 1397 11519.5 1378.5Q11551 1360 11584.0 1327.0Q11617 1294 11649.0 1249.0Q11681 1204 11710 1151Q11715 1141 11724.0 1142.0Q11733 1143 11739.0 1149.5Q11745 1156 11741 1166Q11710 1228 11674.5 1279.0Q11639 1330 11601.5 1367.0Q11564 1404 11525.0 1424.5Q11486 1445 11446 1445ZM11614 1918V1928ZM11614 1408V1428ZM11614 923V928ZM11614 418V428ZM11789 1445Q11753 1445 11726.0 1426.5Q11699 1408 11684.5 1373.5Q11670 1339 11670 1292Q11670 1247 11683.5 1195.0Q11697 1143 11724.0 1092.0Q11751 1041 11791.0 1000.0Q11831 959 11883.0 934.0Q11935 909 11999 909Q12031 909 12066.0 919.0Q12101 929 12130 948L12298 434Q12302 422 12309.0 417.5Q12316 413 12329 413Q12347 413 12352.0 420.0Q12357 427 12353 439L12069 1305Q12053 1354 12059.5 1375.5Q12066 1397 12101 1397Q12109 1397 12113.0 1404.5Q12117 1412 12115.5 1421.0Q12114 1430 12107.0 1437.5Q12100 1445 12087 1445Q12059 1445 12041.0 1436.0Q12023 1427 12014.0 1411.0Q12005 1395 12004.5 1372.0Q12004 1349 12011 1321L12035 1245Q11991 1316 11948.0 1360.0Q11905 1404 11865.0 1424.5Q11825 1445 11789 1445ZM11803 1395Q11841 1395 11887.0 1361.0Q11933 1327 11983.5 1259.0Q12034 1191 12084 1089L12116 992Q12079 971 12049.0 964.5Q12019 958 11992 958Q11942 958 11900.0 979.5Q11858 1001 11825.5 1036.5Q11793 1072 11771.0 1115.5Q11749 1159 11737.5 1203.5Q11726 1248 11726 1287Q11726 1319 11734.5 1343.5Q11743 1368 11760.5 1381.5Q11778 1395 11803 1395ZM11614 1918H12255V1928H11614ZM11614 1408H12255V1428H11614ZM11614 923H12255V928H11614ZM11614 418H12255V428H11614ZM12087 1445Q12077 1445 12072.0 1437.5Q12067 1430 12068.5 1421.0Q12070 1412 12078.5 1404.5Q12087 1397 12102 1397Q12119 1397 12146.5 1387.0Q12174 1377 12219.5 1352.5Q12265 1328 12334 1284Q12343 1279 12350.0 1282.0Q12357 1285 12361.0 1293.0Q12365 1301 12363.0 1310.0Q12361 1319 12352 1325Q12279 1372 12229.0 1398.5Q12179 1425 12145.5 1435.0Q12112 1445 12087 1445ZM12255 1918V1928ZM12255 1408V1428ZM12255 923V928ZM12255 418V428ZM12351 1279Q12422 1236 12476.5 1198.0Q12531 1160 12568.0 1127.0Q12605 1094 12624.0 1064.5Q12643 1035 12643 1010Q12643 985 12628.5 971.5Q12614 958 12585 958Q12537 958 12498.0 985.0Q12459 1012 12431.0 1055.0Q12403 1098 12388.0 1146.0Q12373 1194 12373 1237Q12373 1275 12382.5 1305.0Q12392 1335 12409.5 1355.0Q12427 1375 12451.5 1386.0Q12476 1397 12506 1397Q12516 1397 12520.0 1404.5Q12524 1412 12522.0 1421.5Q12520 1431 12513.5 1438.0Q12507 1445 12498 1445Q12438 1445 12398.0 1418.0Q12358 1391 12338.0 1344.5Q12318 1298 12318 1241Q12318 1188 12337.0 1129.5Q12356 1071 12392.0 1021.5Q12428 972 12478.5 940.5Q12529 909 12592 909Q12630 909 12653.5 922.0Q12677 935 12688.0 956.5Q12699 978 12699 1003Q12699 1039 12678.5 1075.0Q12658 1111 12617.5 1149.0Q12577 1187 12515.0 1229.5Q12453 1272 12369 1322ZM12255 1918H12743V1928H12255ZM12255 1408H12743V1428H12255ZM12255 923H12743V928H12255ZM12255 418H12743V428H12255ZM12496 1445Q12487 1445 12482.5 1438.0Q12478 1431 12479.5 1421.0Q12481 1411 12487.5 1404.0Q12494 1397 12505 1397Q12557 1397 12608.5 1366.5Q12660 1336 12713.5 1281.0Q12767 1226 12821.5 1152.0Q12876 1078 12933 991Q12938 982 12948.5 983.0Q12959 984 12966.0 990.5Q12973 997 12968 1006Q12910 1099 12852.5 1179.0Q12795 1259 12737.0 1319.0Q12679 1379 12619.0 1412.0Q12559 1445 12496 1445ZM12742 1918H12792V1928H12742ZM12742 1408H12792V1428H12742ZM12742 923H12792V928H12742ZM12742 418H12792V428H12742ZM12978 1447Q12937 1447 12907.0 1439.5Q12877 1432 12856.0 1419.5Q12835 1407 12820 1394Q12812 1387 12812.0 1379.0Q12812 1371 12819 1363Q12827 1354 12834.5 1353.5Q12842 1353 12851 1360Q12879 1380 12911.5 1390.5Q12944 1401 12980 1401Q13018 1401 13048.5 1389.5Q13079 1378 13097.0 1354.5Q13115 1331 13115 1296Q13115 1269 13101.0 1250.0Q13087 1231 13064.5 1216.5Q13042 1202 13016.5 1188.0Q12991 1174 12968.5 1157.0Q12946 1140 12932.0 1116.0Q12918 1092 12918 1057Q12918 1012 12940.0 979.0Q12962 946 13002.0 927.5Q13042 909 13093 909Q13135 909 13167.5 922.0Q13200 935 13221.5 953.0Q13243 971 13253 988Q13259 997 13258.0 1002.5Q13257 1008 13246 1016Q13238 1022 13231.0 1021.5Q13224 1021 13217 1014Q13191 986 13161.5 970.5Q13132 955 13088 955Q13037 955 13004.5 980.5Q12972 1006 12972 1052Q12972 1079 12986.5 1097.5Q13001 1116 13023.5 1131.0Q13046 1146 13071.5 1160.0Q13097 1174 13119.5 1191.0Q13142 1208 13156.5 1231.5Q13171 1255 13171 1289Q13171 1342 13144.5 1377.0Q13118 1412 13074.0 1429.5Q13030 1447 12978 1447ZM12793 1918H13272V1928H12793ZM12793 1408H13272V1428H12793ZM12793 923H13272V928H12793ZM12793 418H13272V428H12793Z" fill="currentColor" /></svg>