<svg viewBox="0 0 7040.503293807641 1500" xmlns="http://www.w3.org/2000/svg"><path d="M522.2608695652174 628Q506.2608695652174 628 500.7608695652174 616.5Q495.2608695652174 605 499.2608695652174 588Q504.2608695652174 573 513.7608695652174 562.0Q523.2608695652174 551 540.2608695652174 551Q603.2608695652174 550 665.2608695652174 538.0Q727.2608695652174 526 781.7608695652174 502.5Q836.2608695652174 479 878.2608695652174 444.0Q920.2608695652174 409 944.2608695652174 362.0Q968.2608695652174 315 968.2608695652174 256Q968.2608695652174 213 949.2608695652174 181.0Q930.2608695652174 149 895.2608695652174 127.5Q860.2608695652174 106 810.7608695652174 95.5Q761.2608695652174 85 699.2608695652174 85Q620.2608695652174 85 549.7608695652174 101.0Q479.2608695652174 117 420.2608695652174 147.0Q361.2608695652174 177 315.2608695652174 220Q300.2608695652174 235 284.7608695652174 228.0Q269.2608695652174 221 260.2608695652174 207Q252.26086956521738 196 253.26086956521738 183.0Q254.26086956521738 170 267.2608695652174 159Q304.2608695652174 122 351.2608695652174 93.5Q398.2608695652174 65 453.7608695652174 45.0Q509.2608695652174 25 572.2608695652174 14.5Q635.2608695652174 4 704.2608695652174 4Q795.2608695652174 4 862.2608695652174 22.5Q929.2608695652174 41 973.2608695652174 74.5Q1017.2608695652174 108 1038.7608695652175 153.5Q1060.2608695652175 199 1060.2608695652175 255Q1060.2608695652175 330 1030.7608695652175 388.5Q1001.2608695652174 447 949.2608695652174 491.0Q897.2608695652174 535 828.7608695652174 564.0Q760.2608695652174 593 682.2608695652174 609.0Q604.2608695652174 625 522.2608695652174 628ZM159.26086956521738 1017Q122.26086956521739 1017 90.26086956521739 1002.0Q58.26086956521739 987 36.26086956521739 962.5Q14.26086956521739 938 4.260869565217391 910Q-2.7391304347826093 892 1.7608695652173907 880.5Q6.260869565217391 869 21.26086956521739 862Q38.26086956521739 854 49.76086956521739 858.0Q61.26086956521739 862 72.26086956521739 879Q85.26086956521739 897 100.26086956521739 909.0Q115.26086956521739 921 132.26086956521738 926.5Q149.26086956521738 932 168.26086956521738 932Q207.26086956521738 932 233.76086956521738 902.0Q260.2608695652174 872 285.2608695652174 792L473.2608695652174 205Q478.2608695652174 191 490.7608695652174 184.5Q503.2608695652174 178 525.2608695652174 178Q548.2608695652174 178 558.7608695652174 185.0Q569.2608695652174 192 563.2608695652174 208L378.2608695652174 783Q353.2608695652174 860 323.7608695652174 912.5Q294.2608695652174 965 254.76086956521738 991.0Q215.26086956521738 1017 159.26086956521738 1017ZM795.2608695652174 1017Q776.2608695652174 1017 770.2608695652174 1005.5Q764.2608695652174 994 767.7608695652174 979.5Q771.2608695652174 965 783.7608695652174 953.5Q796.2608695652174 942 814.2608695652174 942Q848.2608695652174 942 889.2608695652174 922.5Q930.2608695652174 903 975.2608695652174 869.0Q1020.2608695652174 835 1065.7608695652175 789.0Q1111.2608695652175 743 1155.7608695652175 688.5Q1200.2608695652175 634 1240.7608695652175 575.5Q1281.2608695652175 517 1315.2608695652175 457.5Q1349.2608695652175 398 1374.2608695652175 341.0Q1399.2608695652175 284 1413.7608695652175 233.0Q1428.2608695652175 182 1428.2608695652175 142Q1428.2608695652175 127 1441.7608695652175 119.5Q1455.2608695652175 112 1472.7608695652175 112.0Q1490.2608695652175 112 1503.2608695652175 119.5Q1516.2608695652175 127 1516.2608695652175 142Q1516.2608695652175 185 1500.2608695652175 239.5Q1484.2608695652175 294 1455.2608695652175 356.0Q1426.2608695652175 418 1386.2608695652175 483.0Q1346.2608695652175 548 1299.2608695652175 613.0Q1252.2608695652175 678 1200.2608695652175 737.5Q1148.2608695652175 797 1095.2608695652175 848.0Q1042.2608695652175 899 989.2608695652175 936.5Q936.2608695652174 974 886.7608695652174 995.5Q837.2608695652174 1017 795.2608695652174 1017ZM1186.2608695652175 1017Q1112.2608695652175 1017 1072.7608695652175 987.5Q1033.2608695652175 958 1028.7608695652175 898.0Q1024.2608695652175 838 1053.2608695652175 746L1245.2608695652175 151Q1271.2608695652175 71 1310.7608695652175 35.5Q1350.2608695652175 0 1406.2608695652175 0Q1441.2608695652175 0 1465.7608695652175 17.5Q1490.2608695652175 35 1503.2608695652175 66.5Q1516.2608695652175 98 1516.2608695652175 142Q1516.2608695652175 161 1503.2608695652175 170.0Q1490.2608695652175 179 1472.7608695652175 179.0Q1455.2608695652175 179 1441.7608695652175 170.0Q1428.2608695652175 161 1428.2608695652175 142Q1428.2608695652175 123 1423.7608695652175 110.5Q1419.2608695652175 98 1411.2608695652175 91.5Q1403.2608695652175 85 1391.2608695652175 85Q1381.2608695652175 85 1370.2608695652175 92.5Q1359.2608695652175 100 1349.2608695652175 116.0Q1339.2608695652175 132 1330.2608695652175 160L1131.2608695652175 780Q1112.2608695652175 840 1113.2608695652175 875.5Q1114.2608695652175 911 1138.2608695652175 926.5Q1162.2608695652175 942 1211.2608695652175 942Q1225.2608695652175 942 1231.2608695652175 953.5Q1237.2608695652175 965 1234.2608695652175 979.5Q1231.2608695652175 994 1219.2608695652175 1005.5Q1207.2608695652175 1017 1186.2608695652175 1017ZM1187.2608695652175 1017Q1173.2608695652175 1017 1167.2608695652175 1005.5Q1161.2608695652175 994 1164.2608695652175 979.5Q1167.2608695652175 965 1179.2608695652175 953.5Q1191.2608695652175 942 1212.2608695652175 942Q1238.2608695652175 942 1264.2608695652175 933.5Q1290.2608695652175 925 1314.2608695652175 908.0Q1338.2608695652175 891 1357.2608695652175 866.5Q1376.2608695652175 842 1387.2608695652175 810Q1392.2608695652175 795 1404.2608695652175 794.5Q1416.2608695652175 794 1425.7608695652175 803.5Q1435.2608695652175 813 1432.2608695652175 827Q1422.2608695652175 870 1398.2608695652175 905.0Q1374.2608695652175 940 1340.7608695652175 965.0Q1307.2608695652175 990 1267.7608695652175 1003.5Q1228.2608695652175 1017 1187.2608695652175 1017ZM1527.2608695652175 1017Q1481.2608695652175 1017 1448.2608695652175 997.0Q1415.2608695652175 977 1397.7608695652175 939.0Q1380.2608695652175 901 1380.2608695652175 849Q1380.2608695652175 805 1392.2608695652175 755.0Q1404.2608695652175 705 1428.7608695652175 656.5Q1453.2608695652175 608 1491.2608695652175 568.0Q1529.2608695652175 528 1581.2608695652175 504.5Q1633.2608695652175 481 1700.2608695652175 481Q1745.2608695652175 481 1785.2608695652175 498.5Q1825.2608695652175 516 1857.2608695652175 542L1845.2608695652175 611Q1805.2608695652175 582 1773.2608695652175 571.0Q1741.2608695652175 560 1707.2608695652175 560Q1654.2608695652175 560 1614.7608695652175 579.0Q1575.2608695652175 598 1547.2608695652175 629.5Q1519.2608695652175 661 1502.2608695652175 698.5Q1485.2608695652175 736 1477.7608695652175 773.0Q1470.2608695652175 810 1470.2608695652175 840Q1470.2608695652175 872 1479.7608695652175 893.5Q1489.2608695652175 915 1508.2608695652175 926.0Q1527.2608695652175 937 1555.2608695652175 937Q1590.2608695652175 937 1623.7608695652175 917.5Q1657.2608695652175 898 1689.2608695652175 861.0Q1721.2608695652175 824 1748.2608695652175 774L1765.2608695652175 821Q1728.2608695652175 903 1684.2608695652175 945.5Q1640.2608695652175 988 1598.7608695652175 1002.5Q1557.2608695652175 1017 1527.2608695652175 1017ZM1822.2608695652175 1017Q1787.2608695652175 1017 1762.2608695652175 1005.0Q1737.2608695652175 993 1723.7608695652175 970.5Q1710.2608695652175 948 1709.2608695652175 917.0Q1708.2608695652175 886 1720.2608695652175 847L1828.2608695652175 517Q1835.2608695652175 497 1844.7608695652175 491.0Q1854.2608695652175 485 1873.2608695652175 485Q1904.2608695652175 485 1912.7608695652175 494.5Q1921.2608695652175 504 1914.2608695652175 524L1805.2608695652175 859Q1789.2608695652175 906 1800.7608695652175 924.0Q1812.2608695652175 942 1847.2608695652175 942Q1861.2608695652175 942 1866.7608695652175 953.5Q1872.2608695652175 965 1869.7608695652175 979.5Q1867.2608695652175 994 1855.2608695652175 1005.5Q1843.2608695652175 1017 1822.2608695652175 1017ZM1822.2608695652175 1017Q1808.2608695652175 1017 1802.2608695652175 1005.5Q1796.2608695652175 994 1799.2608695652175 979.5Q1802.2608695652175 965 1814.2608695652175 953.5Q1826.2608695652175 942 1847.2608695652175 942Q1879.2608695652175 942 1909.7608695652175 932.5Q1940.2608695652175 923 1968.2608695652175 904.0Q1996.2608695652175 885 2021.7608695652175 858.0Q2047.2608695652175 831 2069.2608695652175 796Q2078.2608695652175 783 2089.2608695652175 784.0Q2100.2608695652175 785 2106.2608695652175 793.5Q2112.2608695652175 802 2107.2608695652175 814Q2087.2608695652175 860 2057.2608695652175 897.5Q2027.2608695652175 935 1989.7608695652175 961.5Q1952.2608695652175 988 1909.7608695652175 1002.5Q1867.2608695652175 1017 1822.2608695652175 1017ZM2098.2608695652175 1500Q2036.2608695652175 1500 2000.2608695652175 1466.0Q1964.2608695652175 1432 1964.2608695652175 1378Q1964.2608695652175 1333 1983.7608695652175 1294.5Q2003.2608695652175 1256 2038.2608695652175 1221.0Q2073.2608695652175 1186 2121.7608695652175 1154.0Q2170.2608695652175 1122 2227.2608695652175 1092Q2243.2608695652175 1084 2259.7608695652175 1075.0Q2276.2608695652175 1066 2292.7608695652175 1057.5Q2309.2608695652175 1049 2324.2608695652175 1041L2360.2608695652175 932Q2339.2608695652175 952 2317.2608695652175 968.0Q2295.2608695652175 984 2272.2608695652175 995.0Q2249.2608695652175 1006 2225.7608695652175 1011.5Q2202.2608695652175 1017 2179.2608695652175 1017Q2123.2608695652175 1017 2089.2608695652175 992.5Q2055.2608695652175 968 2046.7608695652175 923.5Q2038.2608695652175 879 2057.2608695652175 820L2155.2608695652175 517Q2162.2608695652175 497 2171.7608695652175 491.0Q2181.2608695652175 485 2200.2608695652175 485Q2232.2608695652175 485 2240.2608695652175 494.5Q2248.2608695652175 504 2242.2608695652175 524L2145.2608695652175 820Q2132.2608695652175 862 2134.2608695652175 888.5Q2136.2608695652175 915 2155.2608695652175 927.0Q2174.2608695652175 939 2210.2608695652175 939Q2234.2608695652175 939 2260.2608695652175 929.0Q2286.2608695652175 919 2311.7608695652175 900.0Q2337.2608695652175 881 2361.2608695652175 855.0Q2385.2608695652175 829 2404.2608695652175 796L2493.2608695652175 517Q2500.2608695652175 497 2509.7608695652175 491.0Q2519.2608695652175 485 2538.2608695652175 485Q2569.2608695652175 485 2577.7608695652175 494.5Q2586.2608695652175 504 2579.2608695652175 524L2348.2608695652175 1233Q2324.2608695652175 1306 2298.7608695652175 1357.0Q2273.2608695652175 1408 2242.7608695652175 1439.5Q2212.2608695652175 1471 2176.7608695652175 1485.5Q2141.2608695652175 1500 2098.2608695652175 1500ZM2111.2608695652175 1423Q2141.2608695652175 1423 2167.2608695652175 1403.0Q2193.2608695652175 1383 2217.2608695652175 1341.0Q2241.2608695652175 1299 2263.2608695652175 1231L2293.2608695652175 1138Q2284.2608695652175 1143 2275.7608695652175 1147.5Q2267.2608695652175 1152 2258.7608695652175 1156.5Q2250.2608695652175 1161 2242.2608695652175 1166Q2199.2608695652175 1190 2164.2608695652175 1214.5Q2129.2608695652175 1239 2104.2608695652175 1263.0Q2079.2608695652175 1287 2066.2608695652175 1312.5Q2053.2608695652175 1338 2053.2608695652175 1366Q2053.2608695652175 1385 2060.2608695652175 1398.0Q2067.2608695652175 1411 2080.7608695652175 1417.0Q2094.2608695652175 1423 2111.2608695652175 1423ZM2372.2608695652175 1100Q2365.2608695652175 1104 2359.2608695652175 1094.0Q2353.2608695652175 1084 2351.7608695652175 1069.5Q2350.2608695652175 1055 2353.7608695652175 1042.0Q2357.2608695652175 1029 2366.2608695652175 1027Q2419.2608695652175 1007 2463.7608695652175 986.0Q2508.2608695652175 965 2546.7608695652175 941.5Q2585.2608695652175 918 2619.7608695652175 890.5Q2654.2608695652175 863 2684.7608695652175 831.0Q2715.2608695652175 799 2745.2608695652175 762Q2755.2608695652175 749 2766.7608695652175 753.5Q2778.2608695652175 758 2783.2608695652175 771.0Q2788.2608695652175 784 2778.2608695652175 798Q2747.2608695652175 843 2714.2608695652175 880.0Q2681.2608695652175 917 2645.2608695652175 948.0Q2609.2608695652175 979 2567.7608695652175 1005.5Q2526.2608695652175 1032 2478.2608695652175 1055.0Q2430.2608695652175 1078 2372.2608695652175 1100ZM2843.2608695652175 1019Q2794.2608695652175 1019 2765.2608695652175 1001.0Q2736.2608695652175 983 2724.2608695652175 953.5Q2712.2608695652175 924 2713.2608695652175 889.0Q2714.2608695652175 854 2725.2608695652175 820L2824.2608695652175 517Q2831.2608695652175 497 2840.7608695652175 491.0Q2850.2608695652175 485 2869.2608695652175 485Q2900.2608695652175 485 2908.7608695652175 494.5Q2917.2608695652175 504 2910.2608695652175 524L2814.2608695652175 820Q2806.2608695652175 845 2803.7608695652175 873.0Q2801.2608695652175 901 2814.2608695652175 920.5Q2827.2608695652175 940 2865.2608695652175 940Q2883.2608695652175 940 2903.2608695652175 934.0Q2923.2608695652175 928 2943.7608695652175 914.0Q2964.2608695652175 900 2982.7608695652175 877.5Q3001.2608695652175 855 3016.2608695652175 822L3115.2608695652175 517Q3122.2608695652175 497 3131.7608695652175 491.0Q3141.2608695652175 485 3160.2608695652175 485Q3192.2608695652175 485 3200.2608695652175 494.0Q3208.2608695652175 503 3202.2608695652175 522L3127.2608695652175 755Q3116.2608695652175 789 3105.7608695652175 822.0Q3095.2608695652175 855 3093.7608695652175 881.5Q3092.2608695652175 908 3106.7608695652175 923.5Q3121.2608695652175 939 3159.2608695652175 939Q3195.2608695652175 939 3226.2608695652175 922.0Q3257.2608695652175 905 3282.2608695652175 877.0Q3307.2608695652175 849 3325.7608695652175 814.5Q3344.2608695652175 780 3356.2608695652175 745Q3367.2608695652175 710 3372.7608695652175 677.0Q3378.2608695652175 644 3376.2608695652175 610Q3350.2608695652175 592 3337.7608695652175 571.5Q3325.2608695652175 551 3325.2608695652175 527Q3325.2608695652175 506 3338.7608695652175 493.0Q3352.2608695652175 480 3369.2608695652175 480Q3398.2608695652175 480 3421.2608695652175 505.5Q3444.2608695652175 531 3451.2608695652175 592Q3455.2608695652175 621 3454.2608695652175 650.0Q3453.2608695652175 679 3448.2608695652175 708.0Q3443.2608695652175 737 3433.2608695652175 767Q3418.2608695652175 813 3392.7608695652175 858.0Q3367.2608695652175 903 3331.2608695652175 939.5Q3295.2608695652175 976 3249.7608695652175 997.5Q3204.2608695652175 1019 3149.2608695652175 1019Q3105.2608695652175 1019 3076.2608695652175 1007.5Q3047.2608695652175 996 3032.2608695652175 976.0Q3017.2608695652175 956 3011.2608695652175 930Q2991.2608695652175 960 2965.7608695652175 980.0Q2940.2608695652175 1000 2909.2608695652175 1009.5Q2878.2608695652175 1019 2843.2608695652175 1019ZM3546.2608695652175 742Q3513.2608695652175 742 3482.7608695652175 728.5Q3452.2608695652175 715 3425.7608695652175 675.5Q3399.2608695652175 636 3376.2608695652175 559Q3372.2608695652175 544 3384.2608695652175 532.5Q3396.2608695652175 521 3412.2608695652175 521.5Q3428.2608695652175 522 3435.2608695652175 544Q3450.2608695652175 588 3467.2608695652175 617.0Q3484.2608695652175 646 3504.7608695652175 660.5Q3525.2608695652175 675 3547.2608695652175 675Q3579.2608695652175 675 3608.7608695652175 633.5Q3638.2608695652175 592 3661.2608695652175 522Q3667.2608695652175 505 3680.2608695652175 499.0Q3693.2608695652175 493 3706.7608695652175 496.0Q3720.2608695652175 499 3727.7608695652175 509.5Q3735.2608695652175 520 3730.2608695652175 537Q3710.2608695652175 604 3680.7608695652175 650.0Q3651.2608695652175 696 3616.2608695652175 719.0Q3581.2608695652175 742 3546.2608695652175 742ZM3942.2608695652175 1017Q3908.2608695652175 1017 3884.2608695652175 1005.0Q3860.2608695652175 993 3847.2608695652175 972.0Q3834.2608695652175 951 3832.2608695652175 922.0Q3830.2608695652175 893 3841.2608695652175 859Q3847.2608695652175 837 3860.2608695652175 808.0Q3873.2608695652175 779 3888.2608695652175 747.0Q3903.2608695652175 715 3916.7608695652175 682.0Q3930.2608695652175 649 3938.2608695652175 619Q3946.2608695652175 590 3937.2608695652175 580.5Q3928.2608695652175 571 3912.2608695652175 571Q3887.2608695652175 571 3854.2608695652175 581.0Q3821.2608695652175 591 3786.7608695652175 600.5Q3752.2608695652175 610 3722.2608695652175 610Q3699.2608695652175 610 3683.7608695652175 596.0Q3668.2608695652175 582 3660.7608695652175 560.0Q3653.2608695652175 538 3653.2608695652175 514Q3653.2608695652175 489 3661.2608695652175 465.5Q3669.2608695652175 442 3684.7608695652175 427.0Q3700.2608695652175 412 3723.2608695652175 412Q3749.2608695652175 412 3759.7608695652175 426.0Q3770.2608695652175 440 3770.2608695652175 459Q3770.2608695652175 476 3762.7608695652175 496.0Q3755.2608695652175 516 3741.2608695652175 531Q3758.2608695652175 531 3782.2608695652175 524.5Q3806.2608695652175 518 3833.2608695652175 509.0Q3860.2608695652175 500 3888.7608695652175 493.5Q3917.2608695652175 487 3943.2608695652175 487Q3972.2608695652175 487 3994.7608695652175 500.0Q4017.2608695652175 513 4026.2608695652175 544.0Q4035.2608695652175 575 4021.2608695652175 629Q4013.2608695652175 657 3999.7608695652175 689.0Q3986.2608695652175 721 3971.2608695652175 753.5Q3956.2608695652175 786 3942.7608695652175 816.0Q3929.2608695652175 846 3922.2608695652175 870Q3910.2608695652175 909 3921.2608695652175 925.5Q3932.2608695652175 942 3967.2608695652175 942Q3981.2608695652175 942 3987.2608695652175 953.5Q3993.2608695652175 965 3990.2608695652175 979.5Q3987.2608695652175 994 3975.2608695652175 1005.5Q3963.2608695652175 1017 3942.2608695652175 1017ZM3942.2608695652175 1017Q3928.2608695652175 1017 3922.2608695652175 1005.5Q3916.2608695652175 994 3919.2608695652175 979.5Q3922.2608695652175 965 3934.2608695652175 953.5Q3946.2608695652175 942 3967.2608695652175 942Q3999.2608695652175 942 4029.7608695652175 932.5Q4060.2608695652175 923 4088.260869565218 904.0Q4116.260869565218 885 4141.760869565218 858.0Q4167.260869565218 831 4189.260869565218 796Q4198.260869565218 783 4209.260869565218 784.0Q4220.260869565218 785 4226.260869565218 793.5Q4232.260869565218 802 4227.260869565218 814Q4207.260869565218 860 4177.260869565218 897.5Q4147.260869565218 935 4109.760869565218 961.5Q4072.2608695652175 988 4029.7608695652175 1002.5Q3987.2608695652175 1017 3942.2608695652175 1017ZM4268.260869565218 1017Q4233.260869565218 1017 4207.760869565218 1005.0Q4182.260869565218 993 4168.760869565218 970.5Q4155.260869565218 948 4153.760869565218 917.0Q4152.260869565218 886 4165.260869565218 847L4273.260869565218 517Q4279.260869565218 497 4288.760869565218 491.0Q4298.260869565218 485 4318.260869565218 485Q4349.260869565218 485 4357.760869565218 494.5Q4366.260869565218 504 4359.260869565218 524L4250.260869565218 859Q4234.260869565218 906 4245.760869565218 924.0Q4257.260869565218 942 4293.260869565218 942Q4307.260869565218 942 4312.760869565218 953.5Q4318.260869565218 965 4315.760869565218 979.5Q4313.260869565218 994 4301.260869565218 1005.5Q4289.260869565218 1017 4268.260869565218 1017ZM4380.260869565218 331Q4360.260869565218 331 4345.760869565218 318.0Q4331.260869565218 305 4331.260869565218 280Q4331.260869565218 253 4349.260869565218 229.0Q4367.260869565218 205 4404.260869565218 205Q4424.260869565218 205 4438.760869565218 217.5Q4453.260869565218 230 4453.260869565218 256Q4453.260869565218 283 4435.760869565218 307.0Q4418.260869565218 331 4380.260869565218 331ZM4268.260869565217 1017Q4254.260869565217 1017 4248.260869565217 1005.5Q4242.260869565217 994 4245.260869565217 979.5Q4248.260869565217 965 4260.260869565217 953.5Q4272.260869565217 942 4293.260869565217 942Q4326.260869565217 942 4357.260869565217 931.0Q4388.260869565217 920 4417.260869565217 899.5Q4446.260869565217 879 4472.760869565217 850.0Q4499.260869565217 821 4523.260869565217 784Q4532.260869565217 770 4542.760869565217 771.0Q4553.260869565217 772 4559.760869565217 781.0Q4566.260869565217 790 4561.260869565217 801Q4540.260869565217 850 4509.760869565217 890.0Q4479.260869565217 930 4440.760869565217 958.5Q4402.260869565217 987 4358.760869565217 1002.0Q4315.260869565217 1017 4268.260869565217 1017ZM4653.260869565217 1017Q4603.260869565217 1017 4567.260869565217 1001.5Q4531.260869565217 986 4511.760869565217 956.5Q4492.260869565217 927 4490.260869565217 885.0Q4488.260869565217 843 4505.260869565217 790L4573.260869565217 580H4494.260869565217Q4483.260869565217 580 4479.260869565217 570.0Q4475.260869565217 560 4480.260869565217 540Q4486.260869565217 520 4495.760869565217 510.0Q4505.260869565217 500 4516.260869565217 500H4599.260869565217L4663.260869565217 302Q4669.260869565217 282 4678.760869565217 276.0Q4688.260869565217 270 4708.260869565217 270Q4739.260869565217 270 4747.760869565217 279.5Q4756.260869565217 289 4749.260869565217 309L4688.260869565217 500H4814.260869565217Q4825.260869565217 500 4829.260869565217 509.5Q4833.260869565217 519 4828.260869565217 540Q4822.260869565217 559 4812.260869565217 569.5Q4802.260869565217 580 4791.260869565217 580H4663.260869565217L4591.260869565217 801Q4580.260869565217 835 4580.760869565217 861.5Q4581.260869565217 888 4592.760869565217 906.0Q4604.260869565217 924 4625.760869565217 933.0Q4647.260869565217 942 4678.260869565217 942Q4692.260869565217 942 4697.760869565217 953.5Q4703.260869565217 965 4700.760869565217 979.5Q4698.260869565217 994 4686.260869565217 1005.5Q4674.260869565217 1017 4653.260869565217 1017ZM4655.260869565217 1017Q4641.260869565217 1017 4635.260869565217 1005.5Q4629.260869565217 994 4632.260869565217 979.5Q4635.260869565217 965 4647.260869565217 953.5Q4659.260869565217 942 4680.260869565217 942Q4700.260869565217 942 4731.260869565217 931.0Q4762.260869565217 920 4802.260869565217 899.5Q4842.260869565217 879 4887.260869565217 849Q4899.260869565217 841 4909.260869565217 846.0Q4919.260869565217 851 4925.260869565217 863.5Q4931.260869565217 876 4929.260869565217 889.5Q4927.260869565217 903 4915.260869565217 911Q4858.260869565217 948 4811.760869565217 971.5Q4765.260869565217 995 4726.760869565217 1006.0Q4688.260869565217 1017 4655.260869565217 1017ZM5049.260869565217 1019Q4982.260869565217 1019 4940.260869565217 988.5Q4898.260869565217 958 4878.760869565217 906.0Q4859.260869565217 854 4859.260869565217 789Q4859.260869565217 744 4876.760869565217 691.0Q4894.260869565217 638 4930.260869565217 590.0Q4966.260869565217 542 5020.260869565217 511.5Q5074.260869565217 481 5147.260869565217 481Q5178.260869565217 481 5204.260869565217 493.0Q5230.260869565217 505 5246.260869565217 527.5Q5262.260869565217 550 5262.260869565217 584Q5262.260869565217 628 5239.760869565217 669.0Q5217.260869565217 710 5175.760869565217 749.0Q5134.260869565217 788 5076.760869565217 826.0Q5019.260869565217 864 4949.260869565217 902L4923.260869565217 835Q4986.260869565217 801 5033.260869565217 769.0Q5080.260869565217 737 5111.260869565217 707.5Q5142.260869565217 678 5157.760869565217 651.5Q5173.260869565217 625 5173.260869565217 601Q5173.260869565217 581 5163.260869565217 571.0Q5153.260869565217 561 5133.260869565217 561Q5085.260869565217 561 5050.760869565217 585.5Q5016.260869565217 610 4993.760869565217 647.0Q4971.260869565217 684 4960.260869565217 722.0Q4949.260869565217 760 4949.260869565217 787Q4949.260869565217 840 4964.260869565217 874.0Q4979.260869565217 908 5004.260869565217 923.5Q5029.260869565217 939 5059.260869565217 939Q5089.260869565217 939 5114.760869565217 930.5Q5140.260869565217 922 5162.760869565217 907.0Q5185.260869565217 892 5206.260869565217 875Q5220.260869565217 863 5232.760869565217 864.5Q5245.260869565217 866 5256.260869565217 877Q5270.260869565217 890 5272.260869565217 904.0Q5274.260869565217 918 5261.260869565217 930Q5229.260869565217 960 5194.260869565217 980.0Q5159.260869565217 1000 5122.760869565217 1009.5Q5086.260869565217 1019 5049.260869565217 1019ZM5839.260869565217 1019Q5798.260869565217 1019 5760.760869565217 1005.5Q5723.260869565217 992 5693.260869565217 967.5Q5663.260869565217 943 5644.260869565217 907Q5637.260869565217 893 5642.260869565217 881.0Q5647.260869565217 869 5663.260869565217 858Q5678.260869565217 849 5688.760869565217 851.5Q5699.260869565217 854 5712.260869565217 866Q5740.260869565217 898 5772.260869565217 916.0Q5804.260869565217 934 5844.260869565217 934Q5882.260869565217 934 5910.260869565217 918.0Q5938.260869565217 902 5960.260869565217 865.0Q5982.260869565217 828 6001.260869565217 768L6211.260869565217 120Q6198.260869565217 127 6180.260869565217 131.5Q6162.260869565217 136 6138.260869565217 136Q6120.260869565217 136 6101.260869565217 132.0Q6082.260869565217 128 6064.760869565217 123.0Q6047.260869565217 118 6031.260869565217 114.0Q6015.260869565217 110 6001.260869565217 110Q5986.260869565217 110 5974.260869565217 114.5Q5962.260869565217 119 5953.760869565217 130.5Q5945.260869565217 142 5938.260869565217 161Q5932.260869565217 181 5922.760869565217 188.5Q5913.260869565217 196 5892.260869565217 196Q5865.260869565217 196 5858.260869565217 185.5Q5851.260869565217 175 5854.260869565217 160Q5862.260869565217 120 5881.760869565217 89.5Q5901.260869565217 59 5932.260869565217 42.5Q5963.260869565217 26 6006.260869565217 26Q6030.260869565217 26 6051.260869565217 30.0Q6072.260869565217 34 6091.760869565217 39.5Q6111.260869565217 45 6129.260869565217 49.0Q6147.260869565217 53 6165.260869565217 53Q6197.260869565217 53 6216.260869565217 42.0Q6235.260869565217 31 6251.260869565217 19Q6259.260869565217 12 6267.760869565217 8.0Q6276.260869565217 4 6290.260869565217 4Q6313.260869565217 4 6323.760869565217 11.0Q6334.260869565217 18 6329.260869565217 34L6086.260869565217 780Q6060.260869565217 864 6025.260869565217 917.0Q5990.260869565217 970 5944.760869565217 994.5Q5899.260869565217 1019 5839.260869565217 1019ZM6535.260869565217 1019Q6451.260869565217 1019 6391.260869565217 991.5Q6331.260869565217 964 6298.760869565217 914.0Q6266.260869565217 864 6266.260869565217 797Q6266.260869565217 742 6287.260869565217 690.5Q6308.260869565217 639 6346.260869565217 596.0Q6384.260869565217 553 6435.260869565217 523.0Q6486.260869565217 493 6547.260869565217 481Q6515.260869565217 472 6489.260869565217 447.0Q6463.260869565217 422 6447.760869565217 386.0Q6432.260869565217 350 6432.260869565217 308Q6432.260869565217 255 6449.260869565217 208.0Q6466.260869565217 161 6497.260869565217 123.5Q6528.260869565217 86 6571.760869565217 59.0Q6615.260869565217 32 6668.760869565217 18.0Q6722.260869565217 4 6782.260869565217 4Q6836.260869565217 4 6881.760869565217 17.0Q6927.260869565217 30 6965.260869565217 54.5Q7003.260869565217 79 7030.260869565217 116Q7043.260869565217 132 7039.760869565217 144.5Q7036.260869565217 157 7023.260869565217 168Q7009.260869565217 181 6996.760869565217 178.5Q6984.260869565217 176 6965.260869565217 161Q6940.260869565217 139 6909.260869565217 123.0Q6878.260869565217 107 6841.260869565217 99.0Q6804.260869565217 91 6762.260869565217 91Q6707.260869565217 91 6663.260869565217 108.0Q6619.260869565217 125 6587.760869565217 155.5Q6556.260869565217 186 6539.760869565217 225.0Q6523.260869565217 264 6523.260869565217 306Q6523.260869565217 345 6539.760869565217 376.5Q6556.260869565217 408 6590.760869565217 427.0Q6625.260869565217 446 6681.260869565217 446H6816.260869565217Q6832.260869565217 446 6835.260869565217 454.5Q6838.260869565217 463 6832.260869565217 486Q6825.260869565217 507 6816.260869565217 516.5Q6807.260869565217 526 6792.260869565217 526H6663.260869565217Q6601.260869565217 526 6545.760869565217 546.5Q6490.260869565217 567 6448.760869565217 604.0Q6407.260869565217 641 6383.760869565217 688.0Q6360.260869565217 735 6360.260869565217 786Q6360.260869565217 834 6383.760869565217 866.0Q6407.260869565217 898 6451.760869565217 915.0Q6496.260869565217 932 6557.260869565217 932Q6604.260869565217 932 6650.760869565217 917.0Q6697.260869565217 902 6742.760869565217 873.0Q6788.260869565217 844 6831.260869565217 800Q6848.260869565217 782 6860.260869565217 782.5Q6872.260869565217 783 6887.260869565217 798Q6904.260869565217 814 6901.760869565217 826.5Q6899.260869565217 839 6881.260869565217 857Q6822.260869565217 917 6763.760869565217 952.5Q6705.260869565217 988 6647.760869565217 1003.5Q6590.260869565217 1019 6535.260869565217 1019Z" /></svg>