<svg viewBox="0 0 7052 1901" xmlns="http://www.w3.org/2000/svg"><path d="M448 1035Q431 1036 422.5 1024.5Q414 1013 414 997Q414 981 420.0 971.0Q426 961 441 960Q506 957 559.5 943.0Q613 929 655.5 904.0Q698 879 727.5 845.0Q757 811 772.5 769.0Q788 727 788 679Q788 632 768.5 596.5Q749 561 712.0 537.5Q675 514 623.5 502.5Q572 491 508 491Q424 491 354.0 507.0Q284 523 227.5 555.5Q171 588 126 636Q114 650 100.5 652.0Q87 654 72 643Q56 630 54.0 616.5Q52 603 64 589Q99 545 146.0 512.0Q193 479 250.5 456.5Q308 434 374.5 422.0Q441 410 515 410Q603 410 671.0 428.0Q739 446 785.5 480.0Q832 514 856.0 564.0Q880 614 880 679Q880 739 860.0 792.0Q840 845 803.0 888.0Q766 931 713.0 962.5Q660 994 593.5 1012.5Q527 1031 448 1035ZM204 1428Q161 1428 127.5 1411.5Q94 1395 71.5 1373.0Q49 1351 38 1336Q27 1319 28.0 1305.0Q29 1291 45 1280Q63 1269 75.5 1272.5Q88 1276 102 1291Q117 1306 132.0 1318.0Q147 1330 165.5 1337.0Q184 1344 207 1344Q246 1344 263.5 1313.5Q281 1283 281 1217V612Q281 598 292.0 591.5Q303 585 324 585Q346 585 357.0 591.5Q368 598 368 612V1223Q368 1285 350.5 1331.5Q333 1378 296.5 1403.0Q260 1428 204 1428ZM1138 1428Q1104 1428 1079.0 1418.5Q1054 1409 1038.0 1389.5Q1022 1370 1014.5 1340.5Q1007 1311 1007 1271V436Q1007 423 1017.5 416.5Q1028 410 1049 410Q1071 410 1082.0 416.5Q1093 423 1093 436V1271Q1093 1316 1106.5 1334.5Q1120 1353 1157 1353Q1171 1353 1178.0 1364.5Q1185 1376 1183.5 1390.5Q1182 1405 1171.0 1416.5Q1160 1428 1138 1428ZM1137 1428Q1123 1428 1116.5 1416.5Q1110 1405 1111.5 1390.5Q1113 1376 1124.0 1364.5Q1135 1353 1156 1353Q1186 1353 1209.5 1345.0Q1233 1337 1250.0 1321.0Q1267 1305 1277.5 1281.0Q1288 1257 1292 1225Q1294 1210 1307.0 1205.5Q1320 1201 1332.5 1205.5Q1345 1210 1343 1225Q1339 1278 1322.0 1316.5Q1305 1355 1278.0 1379.5Q1251 1404 1215.5 1416.0Q1180 1428 1137 1428ZM1482 1428Q1425 1428 1381.0 1400.5Q1337 1373 1312.0 1317.0Q1287 1261 1287 1176Q1287 1124 1297.0 1080.0Q1307 1036 1325.5 1001.0Q1344 966 1371.5 942.0Q1399 918 1434.0 905.0Q1469 892 1511 892Q1552 892 1595.0 908.0Q1638 924 1672 950V1025Q1632 993 1595.5 982.0Q1559 971 1520 971Q1494 971 1471.5 979.0Q1449 987 1431.5 1003.0Q1414 1019 1401.5 1043.0Q1389 1067 1382.5 1099.0Q1376 1131 1376 1172Q1376 1227 1389.0 1266.5Q1402 1306 1428.5 1327.0Q1455 1348 1495 1348Q1531 1348 1562.5 1331.5Q1594 1315 1620.5 1278.5Q1647 1242 1666 1182L1682 1243Q1659 1320 1625.5 1360.0Q1592 1400 1554.5 1414.0Q1517 1428 1482 1428ZM1772 1428Q1738 1428 1713.0 1418.5Q1688 1409 1672.0 1389.5Q1656 1370 1648.5 1340.5Q1641 1311 1641 1271V925Q1641 910 1652.0 903.0Q1663 896 1685 896Q1706 896 1716.5 902.5Q1727 909 1727 923V1271Q1727 1316 1740.5 1334.5Q1754 1353 1791 1353Q1800 1353 1804.5 1364.5Q1809 1376 1807.5 1390.5Q1806 1405 1797.5 1416.5Q1789 1428 1772 1428ZM1772 1428Q1758 1428 1751.5 1416.5Q1745 1405 1746.5 1390.5Q1748 1376 1759.0 1364.5Q1770 1353 1791 1353Q1824 1353 1852.0 1342.0Q1880 1331 1903.0 1311.0Q1926 1291 1943.5 1264.0Q1961 1237 1973 1206Q1979 1191 1990.5 1192.5Q2002 1194 2010.5 1204.0Q2019 1214 2016 1225Q2001 1273 1977.5 1310.5Q1954 1348 1923.5 1374.5Q1893 1401 1855.0 1414.5Q1817 1428 1772 1428ZM2195 1916Q2126 1916 2084.5 1879.0Q2043 1842 2043 1775Q2043 1744 2053.0 1712.0Q2063 1680 2083.0 1648.0Q2103 1616 2134.0 1583.5Q2165 1551 2205 1519Q2222 1506 2239.0 1493.5Q2256 1481 2273.0 1469.5Q2290 1458 2307 1446V1334Q2294 1356 2276.5 1373.5Q2259 1391 2238.0 1403.0Q2217 1415 2192.5 1421.5Q2168 1428 2141 1428Q2083 1428 2044.0 1407.5Q2005 1387 1985.5 1346.5Q1966 1306 1966 1245V922Q1966 909 1976.5 902.5Q1987 896 2008 896Q2030 896 2041.0 902.5Q2052 909 2052 922V1245Q2052 1280 2063.0 1304.0Q2074 1328 2096.5 1340.0Q2119 1352 2152 1352Q2180 1352 2204.0 1343.0Q2228 1334 2247.5 1318.5Q2267 1303 2282.0 1281.0Q2297 1259 2307 1234V922Q2307 909 2317.5 902.5Q2328 896 2350 896Q2371 896 2382.0 902.5Q2393 909 2393 922V1654Q2393 1716 2379.0 1765.0Q2365 1814 2339.0 1847.5Q2313 1881 2276.5 1898.5Q2240 1916 2195 1916ZM2200 1839Q2234 1839 2257.5 1817.5Q2281 1796 2294.0 1754.0Q2307 1712 2307 1651V1534Q2293 1542 2281.0 1550.0Q2269 1558 2258.0 1565.5Q2247 1573 2236 1582Q2210 1606 2191.0 1629.5Q2172 1653 2158.5 1676.0Q2145 1699 2138.5 1722.0Q2132 1745 2132 1768Q2132 1790 2139.5 1806.0Q2147 1822 2162.0 1830.5Q2177 1839 2200 1839ZM2365 1495Q2358 1498 2351.0 1490.0Q2344 1482 2340.5 1468.0Q2337 1454 2339.0 1441.5Q2341 1429 2350 1424Q2399 1398 2437.5 1374.5Q2476 1351 2505.5 1329.0Q2535 1307 2558.5 1283.5Q2582 1260 2601.5 1233.5Q2621 1207 2638 1178Q2648 1161 2661.5 1161.5Q2675 1162 2682.5 1172.0Q2690 1182 2684 1196Q2665 1237 2643.0 1271.0Q2621 1305 2594.0 1334.0Q2567 1363 2533.0 1389.5Q2499 1416 2457.5 1441.5Q2416 1467 2365 1495ZM2791 1428Q2755 1428 2726.5 1416.5Q2698 1405 2678.0 1382.0Q2658 1359 2647.5 1325.0Q2637 1291 2637 1245V922Q2637 909 2647.5 902.5Q2658 896 2680 896Q2701 896 2712.0 902.5Q2723 909 2723 922V1245Q2723 1280 2731.5 1304.0Q2740 1328 2758.5 1340.0Q2777 1352 2806 1352Q2832 1352 2852.0 1343.0Q2872 1334 2887.0 1318.5Q2902 1303 2913.0 1281.5Q2924 1260 2931 1235V922Q2931 910 2941.5 903.0Q2952 896 2973 896Q2997 896 3007.0 903.0Q3017 910 3017 922V1200Q3017 1246 3021.0 1275.0Q3025 1304 3034.5 1320.5Q3044 1337 3060.5 1343.5Q3077 1350 3101 1350Q3126 1350 3151.0 1340.0Q3176 1330 3197.0 1308.5Q3218 1287 3230.5 1251.5Q3243 1216 3243 1165Q3243 1118 3238.0 1084.0Q3233 1050 3225 1021Q3195 1005 3178.0 988.5Q3161 972 3161 945Q3161 928 3172.5 910.0Q3184 892 3214 892Q3243 892 3264.5 917.0Q3286 942 3300 981Q3310 1007 3315.5 1036.5Q3321 1066 3323.5 1096.5Q3326 1127 3326 1156Q3326 1209 3310.5 1258.0Q3295 1307 3265.5 1346.0Q3236 1385 3192.0 1407.5Q3148 1430 3091 1430Q3058 1430 3030.0 1419.5Q3002 1409 2981.5 1386.5Q2961 1364 2948 1330Q2932 1360 2908.0 1382.0Q2884 1404 2854.5 1416.0Q2825 1428 2791 1428ZM3315 1031Q3299 1031 3282.5 1027.0Q3266 1023 3251 1016V946Q3268 956 3280.5 959.5Q3293 963 3306 963Q3332 963 3354.0 953.0Q3376 943 3397.5 929.5Q3419 916 3441.5 906.0Q3464 896 3491 896Q3507 896 3515.0 907.5Q3523 919 3522.5 933.5Q3522 948 3513.5 959.5Q3505 971 3488 971Q3470 971 3451.0 980.0Q3432 989 3411.0 1001.0Q3390 1013 3366.0 1022.0Q3342 1031 3315 1031ZM3586 1426Q3565 1426 3554.5 1419.5Q3544 1413 3544 1400V1042Q3544 1000 3532.0 985.5Q3520 971 3489 971Q3474 971 3467.0 959.5Q3460 948 3460.0 933.5Q3460 919 3468.0 907.5Q3476 896 3491 896Q3520 896 3542.0 902.0Q3564 908 3580.5 921.0Q3597 934 3608.0 953.0Q3619 972 3624 998L3625 1003Q3636 977 3651.0 956.5Q3666 936 3683.0 921.5Q3700 907 3718.5 899.5Q3737 892 3755 892Q3774 892 3783.5 904.0Q3793 916 3793.0 932.0Q3793 948 3783.5 960.0Q3774 972 3755 972Q3737 972 3718.5 982.5Q3700 993 3683.5 1012.5Q3667 1032 3653.5 1058.5Q3640 1085 3630 1117V1400Q3630 1413 3619.0 1419.5Q3608 1426 3586 1426ZM3852 1067Q3809 1067 3781.5 1051.0Q3754 1035 3741.0 1003.5Q3728 972 3728 927L3755 892Q3779 892 3792.0 902.5Q3805 913 3805 938Q3805 954 3808.5 965.5Q3812 977 3819.5 984.5Q3827 992 3838.0 996.0Q3849 1000 3864 1000Q3889 1000 3912.5 988.5Q3936 977 3953.5 957.5Q3971 938 3978 913Q3981 905 3992.0 908.0Q4003 911 4013.0 920.5Q4023 930 4020 940Q4011 976 3985.5 1005.0Q3960 1034 3925.0 1050.5Q3890 1067 3852 1067ZM4101 1428Q4067 1428 4042.0 1418.5Q4017 1409 4001.0 1389.5Q3985 1370 3977.5 1340.5Q3970 1311 3970 1271V922Q3970 909 3980.5 902.5Q3991 896 4012 896Q4034 896 4045.0 902.5Q4056 909 4056 922V1271Q4056 1316 4069.5 1334.5Q4083 1353 4120 1353Q4134 1353 4141.0 1364.5Q4148 1376 4146.5 1390.5Q4145 1405 4134.0 1416.5Q4123 1428 4101 1428ZM4014 742Q3986 742 3971.5 726.5Q3957 711 3957 680Q3957 648 3971.5 632.0Q3986 616 4014 616Q4041 616 4055.0 632.0Q4069 648 4069 680Q4070 711 4055.5 726.5Q4041 742 4014 742ZM4101 1428Q4087 1428 4080.5 1416.5Q4074 1405 4075.5 1390.5Q4077 1376 4088.0 1364.5Q4099 1353 4120 1353Q4154 1353 4182.5 1341.0Q4211 1329 4234.0 1308.0Q4257 1287 4275.5 1258.0Q4294 1229 4307 1195Q4313 1180 4325.0 1181.5Q4337 1183 4345.5 1192.0Q4354 1201 4351 1212Q4335 1263 4311.0 1303.0Q4287 1343 4255.5 1371.0Q4224 1399 4185.5 1413.5Q4147 1428 4101 1428ZM4489 1428Q4441 1428 4405.0 1414.0Q4369 1400 4344.5 1372.0Q4320 1344 4307.5 1303.0Q4295 1262 4295 1208V991H4217Q4202 991 4196.0 982.0Q4190 973 4190 951Q4190 928 4196.0 919.5Q4202 911 4217 911H4295V707Q4295 694 4305.5 687.5Q4316 681 4337 681Q4359 681 4370.0 687.5Q4381 694 4381 707V911H4507Q4522 911 4528.5 919.5Q4535 928 4535 951Q4535 973 4528.5 982.0Q4522 991 4507 991H4381V1208Q4381 1244 4389.0 1271.0Q4397 1298 4413.0 1316.0Q4429 1334 4452.5 1343.5Q4476 1353 4507 1353Q4521 1353 4528.0 1364.5Q4535 1376 4533.5 1390.5Q4532 1405 4521.0 1416.5Q4510 1428 4489 1428ZM4489 1428Q4470 1428 4463.5 1416.5Q4457 1405 4461.0 1390.5Q4465 1376 4477.0 1364.5Q4489 1353 4508 1353Q4564 1353 4615.5 1334.0Q4667 1315 4704 1287Q4718 1278 4728.0 1283.0Q4738 1288 4743.0 1300.5Q4748 1313 4746.5 1326.5Q4745 1340 4734 1347Q4702 1370 4660.5 1388.5Q4619 1407 4575.0 1417.5Q4531 1428 4489 1428ZM4705 1291Q4728 1276 4748.5 1258.5Q4769 1241 4785 1222Q4807 1197 4822.5 1170.5Q4838 1144 4846.0 1117.0Q4854 1090 4854 1065Q4854 1012 4834.0 991.5Q4814 971 4780 971Q4763 971 4748.5 978.5Q4734 986 4723.0 1001.5Q4712 1017 4706.0 1039.0Q4700 1061 4700 1090Q4700 1147 4716.5 1194.5Q4733 1242 4760.0 1276.0Q4787 1310 4817.5 1329.0Q4848 1348 4875 1348Q4894 1348 4912.0 1340.5Q4930 1333 4949.5 1318.0Q4969 1303 4989 1281Q5003 1265 5016.0 1265.5Q5029 1266 5043 1277Q5057 1288 5059.5 1300.0Q5062 1312 5053 1326Q5028 1364 4994.5 1386.5Q4961 1409 4927.0 1418.5Q4893 1428 4864 1428Q4824 1428 4786.5 1411.0Q4749 1394 4717.5 1363.0Q4686 1332 4662.5 1289.5Q4639 1247 4626.0 1196.5Q4613 1146 4613 1090Q4613 1056 4621.0 1025.5Q4629 995 4644.0 970.5Q4659 946 4680.0 928.5Q4701 911 4727.0 901.5Q4753 892 4783 892Q4840 892 4875.5 915.0Q4911 938 4927.0 975.5Q4943 1013 4943 1056Q4943 1090 4930.5 1126.0Q4918 1162 4896.0 1196.5Q4874 1231 4845 1263Q4823 1288 4798.0 1310.0Q4773 1332 4744 1351ZM5756 1035Q5739 1036 5730.5 1024.5Q5722 1013 5722 997Q5722 981 5728.0 971.0Q5734 961 5749 960Q5814 957 5867.5 943.0Q5921 929 5963.5 904.0Q6006 879 6035.5 845.0Q6065 811 6080.5 769.0Q6096 727 6096 679Q6096 632 6076.5 596.5Q6057 561 6020.0 537.5Q5983 514 5931.5 502.5Q5880 491 5816 491Q5732 491 5662.0 507.0Q5592 523 5535.5 555.5Q5479 588 5434 636Q5422 650 5408.5 652.0Q5395 654 5380 643Q5364 630 5362.0 616.5Q5360 603 5372 589Q5407 545 5454.0 512.0Q5501 479 5558.5 456.5Q5616 434 5682.5 422.0Q5749 410 5823 410Q5911 410 5979.0 428.0Q6047 446 6093.5 480.0Q6140 514 6164.0 564.0Q6188 614 6188 679Q6188 739 6168.0 792.0Q6148 845 6111.0 888.0Q6074 931 6021.0 962.5Q5968 994 5901.5 1012.5Q5835 1031 5756 1035ZM5512 1428Q5469 1428 5435.5 1411.5Q5402 1395 5379.5 1373.0Q5357 1351 5346 1336Q5335 1319 5336.0 1305.0Q5337 1291 5353 1280Q5371 1269 5383.5 1272.5Q5396 1276 5410 1291Q5425 1306 5440.0 1318.0Q5455 1330 5473.5 1337.0Q5492 1344 5515 1344Q5554 1344 5571.5 1313.5Q5589 1283 5589 1217V612Q5589 598 5600.0 591.5Q5611 585 5632 585Q5654 585 5665.0 591.5Q5676 598 5676 612V1223Q5676 1285 5658.5 1331.5Q5641 1378 5604.5 1403.0Q5568 1428 5512 1428ZM6348 1432Q6308 1432 6277.5 1419.5Q6247 1407 6230.0 1382.0Q6213 1357 6213 1322Q6213 1285 6229.5 1256.5Q6246 1228 6275.5 1212.0Q6305 1196 6343 1196Q6380 1196 6411.0 1206.5Q6442 1217 6470.0 1233.0Q6498 1249 6526.5 1267.0Q6555 1285 6587.0 1301.0Q6619 1317 6656.5 1327.0Q6694 1337 6742 1337Q6796 1337 6837.5 1318.0Q6879 1299 6907.0 1269.0Q6935 1239 6947 1205Q6954 1188 6966.0 1182.5Q6978 1177 6997 1183Q7014 1187 7019.5 1198.0Q7025 1209 7020 1229Q7005 1284 6965.0 1327.5Q6925 1371 6868.5 1396.0Q6812 1421 6745 1421Q6675 1421 6624.5 1406.0Q6574 1391 6536.5 1369.5Q6499 1348 6467.5 1326.5Q6436 1305 6405.5 1290.0Q6375 1275 6338 1275Q6317 1275 6306.5 1286.5Q6296 1298 6296 1315Q6296 1333 6310.5 1344.0Q6325 1355 6344 1355Q6385 1355 6408.5 1318.5Q6432 1282 6432 1223V685Q6432 618 6448.0 566.5Q6464 515 6495.5 480.5Q6527 446 6573.5 428.0Q6620 410 6681 410Q6738 410 6782.5 428.5Q6827 447 6858.0 484.0Q6889 521 6905 579Q6912 602 6907.0 614.5Q6902 627 6883 633Q6860 640 6848.0 633.5Q6836 627 6829 606Q6817 571 6797.5 545.5Q6778 520 6748.5 506.5Q6719 493 6679 493Q6640 493 6610.0 504.5Q6580 516 6560.0 539.0Q6540 562 6529.5 598.5Q6519 635 6519 685V1223Q6519 1287 6498.0 1334.0Q6477 1381 6439.0 1406.5Q6401 1432 6348 1432Z" fill="currentColor" /></svg>