<svg viewBox="0 0 13878 1370" xmlns="http://www.w3.org/2000/svg"><path d="M176 949Q148 949 148 930V35Q148 25 155.5 20.5Q163 16 177 16H374Q475 16 542.5 39.0Q610 62 645.0 112.5Q680 163 680 246Q680 316 654.5 368.0Q629 420 584.0 456.0Q539 492 478.5 513.5Q418 535 348 544Q311 548 274.0 551.0Q237 554 203 555V930Q203 940 196.5 944.5Q190 949 176 949ZM203 505Q226 505 250.0 503.5Q274 502 299.0 499.0Q324 496 348 494Q428 484 490.0 455.0Q552 426 587.5 374.5Q623 323 623 247Q623 181 595.0 141.5Q567 102 512.0 84.0Q457 66 374 66H203ZM0 1345H728V1355H0ZM0 915H728V935H0ZM0 430H728V435H0ZM0 5H728V15H0ZM920 952Q880 952 858.0 927.0Q836 902 836 853V19Q836 9 842.0 4.5Q848 0 861 0Q875 0 881.5 4.5Q888 9 888 19V841Q888 872 898.0 888.0Q908 904 930 904Q941 904 951.0 901.0Q961 898 971.0 890.5Q981 883 991 873Q997 867 1003.5 867.0Q1010 867 1017 875Q1022 880 1023.5 886.5Q1025 893 1021 900Q1010 916 993.5 927.5Q977 939 958.0 945.5Q939 952 920 952ZM728 1345H1030V1355H728ZM728 915H1030V935H728ZM728 430H1030V435H728ZM728 5H1030V15H728ZM1295 952Q1240 952 1196.0 923.0Q1152 894 1126.5 837.0Q1101 780 1101 697Q1101 647 1110.5 604.0Q1120 561 1139.0 526.5Q1158 492 1186.0 467.5Q1214 443 1250.5 429.5Q1287 416 1331 416Q1365 416 1398.0 426.0Q1431 436 1464 456V440Q1464 429 1470.5 424.5Q1477 420 1491 420Q1505 420 1511.0 424.5Q1517 429 1517 439V844Q1517 865 1521.5 878.5Q1526 892 1536.0 898.5Q1546 905 1561 905Q1571 905 1580.5 901.5Q1590 898 1599.5 890.5Q1609 883 1620 872Q1625 866 1631.5 866.5Q1638 867 1644 874Q1651 880 1652.0 887.0Q1653 894 1649 901Q1638 916 1622.0 927.5Q1606 939 1588.0 945.5Q1570 952 1552 952Q1531 952 1515.5 946.5Q1500 941 1488.5 929.5Q1477 918 1471.5 901.5Q1466 885 1465 863Q1465 859 1464.5 853.5Q1464 848 1464 843Q1441 888 1412.0 911.5Q1383 935 1352.5 943.5Q1322 952 1295 952ZM1157 693Q1157 755 1173.5 802.0Q1190 849 1222.5 875.5Q1255 902 1304 902Q1336 902 1366.5 888.5Q1397 875 1422.5 842.5Q1448 810 1464 754V506Q1429 482 1397.0 473.5Q1365 465 1332 465Q1300 465 1273.0 474.5Q1246 484 1224.5 503.0Q1203 522 1188.0 549.5Q1173 577 1165.0 613.0Q1157 649 1157 693ZM1030 1345H1653V1355H1030ZM1030 915H1653V935H1030ZM1030 430H1653V435H1030ZM1030 5H1653V15H1030ZM2118 451 1790 1351Q1787 1360 1780.5 1365.0Q1774 1370 1762 1370Q1745 1370 1739.5 1361.5Q1734 1353 1740 1338L1886 934L1686 451Q1681 439 1688.5 429.5Q1696 420 1713 420Q1724 420 1730.0 424.5Q1736 429 1739 439L1912 867L2066 439Q2070 429 2075.5 424.5Q2081 420 2093 420Q2110 420 2116.5 428.5Q2123 437 2118 451ZM1653 1345H2162V1355H1653ZM1653 915H2162V935H1653ZM1653 430H2162V435H1653ZM1653 5H2162V15H1653ZM2382 950Q2368 950 2362.0 944.5Q2356 939 2353 931L2196 451Q2191 439 2198.0 429.5Q2205 420 2222 420Q2233 420 2239.0 424.5Q2245 429 2247 439L2383 869L2536 439Q2540 429 2546.5 424.5Q2553 420 2565 420Q2576 420 2582.0 424.5Q2588 429 2591 439L2747 869L2880 439Q2883 429 2889.0 424.5Q2895 420 2906 420Q2924 420 2930.5 429.0Q2937 438 2931 453L2775 931Q2772 939 2765.5 944.5Q2759 950 2746 950Q2733 950 2727.5 944.5Q2722 939 2719 931L2564 505L2410 931Q2408 939 2401.5 944.5Q2395 950 2382 950ZM2162 1345H2967V1355H2162ZM2162 915H2967V935H2162ZM2162 430H2967V435H2162ZM2162 5H2967V15H2162ZM3099 950Q3086 950 3080.0 945.5Q3074 941 3074 931V439Q3074 429 3080.0 424.5Q3086 420 3099 420Q3113 420 3119.5 424.5Q3126 429 3126 439V528Q3141 497 3160.5 476.0Q3180 455 3202.0 441.5Q3224 428 3247.0 422.0Q3270 416 3291 416Q3319 416 3345.0 423.5Q3371 431 3385 440Q3393 445 3394.5 452.0Q3396 459 3389 472Q3384 482 3377.0 484.5Q3370 487 3361 484Q3348 479 3327.5 472.5Q3307 466 3283 466Q3258 466 3234.5 475.0Q3211 484 3190.0 502.5Q3169 521 3153.0 550.0Q3137 579 3126 619V931Q3126 941 3119.5 945.5Q3113 950 3099 950ZM2967 1345H3418V1355H2967ZM2967 915H3418V935H2967ZM2967 430H3418V435H2967ZM2967 5H3418V15H2967ZM3610 952Q3569 952 3547.0 927.0Q3525 902 3525 853V439Q3525 429 3531.0 424.5Q3537 420 3550 420Q3564 420 3570.5 424.5Q3577 429 3577 439V841Q3577 872 3587.0 888.0Q3597 904 3620 904Q3631 904 3641.0 900.5Q3651 897 3661.0 890.0Q3671 883 3681 873Q3686 867 3693.0 867.5Q3700 868 3706 875Q3712 881 3713.0 887.5Q3714 894 3710 901Q3699 916 3682.5 927.5Q3666 939 3647.5 945.5Q3629 952 3610 952ZM3551 252Q3529 252 3518.0 240.0Q3507 228 3507 203Q3507 178 3518.0 165.5Q3529 153 3551 153Q3572 153 3583.0 165.5Q3594 178 3594 203Q3595 228 3583.5 240.0Q3572 252 3551 252ZM3418 1345H3719V1355H3418ZM3418 915H3719V935H3418ZM3418 430H3719V435H3418ZM3418 5H3719V15H3418ZM3959 952Q3924 952 3900.5 937.5Q3877 923 3865.5 895.0Q3854 867 3854 828V483H3776Q3766 483 3761.5 477.5Q3757 472 3757 460Q3757 447 3761.5 441.0Q3766 435 3776 435H3854V224Q3854 214 3860.0 209.5Q3866 205 3879 205Q3893 205 3900.0 209.5Q3907 214 3907 224V435H4043Q4054 435 4058.5 441.0Q4063 447 4063 460Q4063 472 4058.5 477.5Q4054 483 4043 483H3907V816Q3907 857 3918.5 880.5Q3930 904 3965 904Q3990 904 4008.0 890.0Q4026 876 4043 856Q4050 847 4057.5 848.5Q4065 850 4073 856Q4080 863 4081.5 870.5Q4083 878 4079 885Q4065 906 4046.5 921.0Q4028 936 4006.0 944.0Q3984 952 3959 952ZM3719 1345H4107V1355H3719ZM3719 915H4107V935H3719ZM3719 430H4107V435H3719ZM3719 5H4107V15H3719ZM4400 953Q4326 953 4276.5 920.0Q4227 887 4202.5 831.0Q4178 775 4178 706Q4178 641 4195.0 587.5Q4212 534 4243.5 495.5Q4275 457 4319.0 436.5Q4363 416 4418 416Q4472 416 4506.0 433.0Q4540 450 4557.0 478.5Q4574 507 4574 542Q4574 580 4557.0 610.5Q4540 641 4509.0 663.5Q4478 686 4435.0 701.0Q4392 716 4339.0 724.0Q4286 732 4227 732V686Q4272 687 4314.5 681.5Q4357 676 4394.0 665.5Q4431 655 4459.0 638.0Q4487 621 4502.5 598.0Q4518 575 4518 545Q4518 505 4490.5 485.0Q4463 465 4414 465Q4379 465 4346.5 479.0Q4314 493 4288.5 521.5Q4263 550 4248.0 593.0Q4233 636 4233 695Q4233 767 4256.0 813.0Q4279 859 4317.5 881.5Q4356 904 4403 904Q4442 904 4467.5 893.0Q4493 882 4511.5 865.0Q4530 848 4546 829Q4555 821 4562.5 821.5Q4570 822 4579 828Q4587 834 4590.0 842.0Q4593 850 4586 858Q4570 882 4543.5 904.0Q4517 926 4481.0 939.5Q4445 953 4400 953ZM4107 1345H4633V1355H4107ZM4107 915H4633V935H4107ZM4107 430H4633V435H4107ZM4107 5H4633V15H4107ZM5109 935Q5081 935 5081 916V35Q5081 25 5088.0 20.5Q5095 16 5109 16H5297Q5396 16 5477.5 42.5Q5559 69 5618.5 121.0Q5678 173 5710.5 249.5Q5743 326 5743 428Q5743 513 5723.5 589.5Q5704 666 5664.0 729.0Q5624 792 5564.0 838.5Q5504 885 5423.0 910.0Q5342 935 5239 935ZM5137 883H5239Q5329 883 5401.0 861.0Q5473 839 5526.0 798.0Q5579 757 5614.0 700.5Q5649 644 5666.5 575.0Q5684 506 5684 428Q5684 335 5655.0 267.0Q5626 199 5573.5 155.0Q5521 111 5450.5 89.5Q5380 68 5297 68H5137ZM4933 1345H5836V1355H4933ZM4933 915H5836V935H4933ZM4933 430H5836V435H4933ZM4933 5H5836V15H4933ZM6012 935Q5998 935 5991.0 929.5Q5984 924 5984 912V35Q5984 25 5991.0 20.5Q5998 16 6012 16H6460Q6468 16 6472.5 21.5Q6477 27 6477 41Q6477 55 6472.5 60.5Q6468 66 6460 66H6039V424H6395Q6403 424 6407.5 429.5Q6412 435 6412 449Q6412 463 6407.5 468.5Q6403 474 6395 474H6039V885H6460Q6468 885 6472.5 890.5Q6477 896 6477 910Q6477 924 6472.5 929.5Q6468 935 6460 935ZM5836 1345H6525V1355H5836ZM5836 915H6525V935H5836ZM5836 430H6525V435H5836ZM5836 5H6525V15H5836ZM7284 954Q7202 954 7135.0 919.5Q7068 885 7019.5 822.5Q6971 760 6945.0 672.0Q6919 584 6919 476Q6919 405 6931.5 342.0Q6944 279 6968.5 225.5Q6993 172 7027.5 130.5Q7062 89 7105.5 60.0Q7149 31 7200.5 15.5Q7252 0 7309 0Q7356 0 7399.5 11.5Q7443 23 7481.5 47.0Q7520 71 7551 111Q7559 120 7557.5 126.5Q7556 133 7547 142Q7536 150 7529.0 150.0Q7522 150 7513 140Q7486 111 7454.5 91.5Q7423 72 7386.5 62.5Q7350 53 7309 53Q7261 53 7218.0 66.0Q7175 79 7138.0 104.5Q7101 130 7071.5 166.5Q7042 203 7020.5 250.0Q6999 297 6988.0 354.0Q6977 411 6977 476Q6977 575 6999.5 653.0Q7022 731 7063.0 786.5Q7104 842 7160.5 871.0Q7217 900 7284 900Q7334 900 7377.0 886.5Q7420 873 7455.5 844.5Q7491 816 7516.5 769.5Q7542 723 7556.0 657.5Q7570 592 7570 504H7314Q7306 504 7301.5 498.5Q7297 493 7297 479Q7297 465 7301.5 459.5Q7306 454 7314 454H7604Q7617 454 7621.5 459.0Q7626 464 7626 477Q7626 604 7601.0 694.0Q7576 784 7530.5 842.0Q7485 900 7422.0 927.0Q7359 954 7284 954ZM6825 1345H7724V1355H6825ZM6825 915H7724V935H6825ZM6825 430H7724V435H6825ZM6825 5H7724V15H6825ZM7856 950Q7843 950 7837.0 945.5Q7831 941 7831 931V439Q7831 429 7837.0 424.5Q7843 420 7856 420Q7870 420 7876.5 424.5Q7883 429 7883 439V528Q7898 497 7917.5 476.0Q7937 455 7959.0 441.5Q7981 428 8004.0 422.0Q8027 416 8048 416Q8076 416 8102.0 423.5Q8128 431 8142 440Q8150 445 8151.5 452.0Q8153 459 8146 472Q8141 482 8134.0 484.5Q8127 487 8118 484Q8105 479 8084.5 472.5Q8064 466 8040 466Q8015 466 7991.5 475.0Q7968 484 7947.0 502.5Q7926 521 7910.0 550.0Q7894 579 7883 619V931Q7883 941 7876.5 945.5Q7870 950 7856 950ZM7724 1345H8175V1355H7724ZM7724 915H8175V935H7724ZM7724 430H8175V435H7724ZM7724 5H8175V15H7724ZM8445 953Q8397 953 8360.0 933.5Q8323 914 8302.5 873.5Q8282 833 8282 769V439Q8282 430 8288.0 425.5Q8294 421 8307 421Q8321 421 8327.5 425.5Q8334 430 8334 439V764Q8334 808 8346.5 839.5Q8359 871 8385.0 888.0Q8411 905 8452 905Q8481 905 8508.0 896.0Q8535 887 8558.0 868.5Q8581 850 8599.0 820.0Q8617 790 8627 749V439Q8627 429 8633.5 424.5Q8640 420 8654 420Q8667 420 8673.0 424.5Q8679 429 8679 439V842Q8679 862 8683.5 876.5Q8688 891 8698.0 898.5Q8708 906 8722 906Q8732 906 8742.0 902.5Q8752 899 8762.0 892.0Q8772 885 8782 874Q8788 868 8795.0 868.5Q8802 869 8808 876Q8813 881 8814.5 888.0Q8816 895 8811 901Q8800 916 8784.0 928.0Q8768 940 8750.0 947.0Q8732 954 8712 954Q8692 954 8677.0 948.0Q8662 942 8651.0 930.0Q8640 918 8634.0 900.0Q8628 882 8627 859V838Q8612 872 8590.5 894.0Q8569 916 8545.0 929.0Q8521 942 8495.5 947.5Q8470 953 8445 953ZM8175 1345H8821V1355H8175ZM8175 915H8821V935H8175ZM8175 430H8821V435H8175ZM8175 5H8821V15H8175ZM9363 952Q9343 952 9327.0 945.5Q9311 939 9300.0 927.0Q9289 915 9283.5 896.5Q9278 878 9278 853V609Q9278 564 9266.0 532.0Q9254 500 9227.5 483.0Q9201 466 9158 466Q9130 466 9103.0 474.0Q9076 482 9052.5 499.5Q9029 517 9010.5 547.0Q8992 577 8980 621V931Q8980 941 8973.5 945.5Q8967 950 8953 950Q8940 950 8934.0 945.5Q8928 941 8928 931V439Q8928 429 8934.0 424.5Q8940 420 8953 420Q8967 420 8973.5 424.5Q8980 429 8980 439V530Q8997 498 9018.0 476.0Q9039 454 9063.5 441.0Q9088 428 9113.5 422.0Q9139 416 9165 416Q9213 416 9250.5 435.0Q9288 454 9310.0 494.5Q9332 535 9332 601V841Q9332 861 9336.0 875.0Q9340 889 9349.5 896.5Q9359 904 9374 904Q9384 904 9394.0 901.0Q9404 898 9414.0 890.5Q9424 883 9434 873Q9440 867 9446.5 867.5Q9453 868 9460 875Q9466 881 9467.0 887.5Q9468 894 9463 901Q9452 916 9435.5 928.0Q9419 940 9401.0 946.0Q9383 952 9363 952ZM8821 1345H9467V1355H8821ZM8821 915H9467V935H8821ZM8821 430H9467V435H8821ZM8821 5H9467V15H8821ZM9732 952Q9677 952 9633.0 923.0Q9589 894 9563.5 837.0Q9538 780 9538 697Q9538 647 9547.5 604.0Q9557 561 9576.0 526.5Q9595 492 9623.0 467.5Q9651 443 9688.0 429.5Q9725 416 9770 416Q9803 416 9835.5 425.5Q9868 435 9902 455V19Q9902 9 9908.5 4.5Q9915 0 9928 0Q9942 0 9948.0 4.5Q9954 9 9954 19V844Q9954 875 9965.0 890.0Q9976 905 9998 905Q10008 905 10018.0 901.5Q10028 898 10037.5 890.0Q10047 882 10057 872Q10063 866 10069.5 867.0Q10076 868 10082 875Q10088 881 10089.5 887.5Q10091 894 10086 901Q10075 916 10059.0 927.5Q10043 939 10025.0 945.5Q10007 952 9989 952Q9960 952 9940.5 940.5Q9921 929 9911.5 908.5Q9902 888 9902 860Q9902 856 9902.0 851.5Q9902 847 9902 843Q9879 888 9849.5 911.5Q9820 935 9789.5 943.5Q9759 952 9732 952ZM9594 693Q9594 755 9610.5 802.0Q9627 849 9659.5 875.5Q9692 902 9741 902Q9773 902 9803.5 888.5Q9834 875 9859.5 842.5Q9885 810 9902 754V507Q9867 483 9834.5 474.0Q9802 465 9769 465Q9737 465 9710.0 474.5Q9683 484 9661.5 503.0Q9640 522 9625.0 549.5Q9610 577 9602.0 613.0Q9594 649 9594 693ZM9467 1345H10096V1355H9467ZM9467 915H10096V935H9467ZM9467 430H10096V435H9467ZM9467 5H10096V15H9467ZM10855 954Q10773 954 10706.0 919.5Q10639 885 10590.5 822.5Q10542 760 10516.0 672.0Q10490 584 10490 476Q10490 405 10502.5 342.0Q10515 279 10539.5 225.5Q10564 172 10598.5 130.5Q10633 89 10676.5 60.0Q10720 31 10771.5 15.5Q10823 0 10880 0Q10927 0 10970.5 11.5Q11014 23 11052.5 47.0Q11091 71 11122 111Q11130 120 11128.5 126.5Q11127 133 11118 142Q11107 150 11100.0 150.0Q11093 150 11084 140Q11057 111 11025.5 91.5Q10994 72 10957.5 62.5Q10921 53 10880 53Q10832 53 10789.0 66.0Q10746 79 10709.0 104.5Q10672 130 10642.5 166.5Q10613 203 10591.5 250.0Q10570 297 10559.0 354.0Q10548 411 10548 476Q10548 575 10570.5 653.0Q10593 731 10634.0 786.5Q10675 842 10731.5 871.0Q10788 900 10855 900Q10905 900 10948.0 886.5Q10991 873 11026.5 844.5Q11062 816 11087.5 769.5Q11113 723 11127.0 657.5Q11141 592 11141 504H10885Q10877 504 10872.5 498.5Q10868 493 10868 479Q10868 465 10872.5 459.5Q10877 454 10885 454H11175Q11188 454 11192.5 459.0Q11197 464 11197 477Q11197 604 11172.0 694.0Q11147 784 11101.5 842.0Q11056 900 10993.0 927.0Q10930 954 10855 954ZM10396 1345H11295V1355H10396ZM10396 915H11295V935H10396ZM10396 430H11295V435H10396ZM10396 5H11295V15H10396ZM11565 953Q11517 953 11480.0 933.5Q11443 914 11422.5 873.5Q11402 833 11402 769V439Q11402 430 11408.0 425.5Q11414 421 11427 421Q11441 421 11447.5 425.5Q11454 430 11454 439V764Q11454 808 11466.5 839.5Q11479 871 11505.0 888.0Q11531 905 11572 905Q11601 905 11628.0 896.0Q11655 887 11678.0 868.5Q11701 850 11719.0 820.0Q11737 790 11747 749V439Q11747 429 11753.5 424.5Q11760 420 11774 420Q11787 420 11793.0 424.5Q11799 429 11799 439V842Q11799 862 11803.5 876.5Q11808 891 11818.0 898.5Q11828 906 11842 906Q11852 906 11862.0 902.5Q11872 899 11882.0 892.0Q11892 885 11902 874Q11908 868 11915.0 868.5Q11922 869 11928 876Q11933 881 11934.5 888.0Q11936 895 11931 901Q11920 916 11904.0 928.0Q11888 940 11870.0 947.0Q11852 954 11832 954Q11812 954 11797.0 948.0Q11782 942 11771.0 930.0Q11760 918 11754.0 900.0Q11748 882 11747 859V838Q11732 872 11710.5 894.0Q11689 916 11665.0 929.0Q11641 942 11615.5 947.5Q11590 953 11565 953ZM11295 1345H11941V1355H11295ZM11295 915H11941V935H11295ZM11295 430H11941V435H11295ZM11295 5H11941V15H11295ZM12133 952Q12092 952 12070.0 927.0Q12048 902 12048 853V439Q12048 429 12054.0 424.5Q12060 420 12073 420Q12087 420 12093.5 424.5Q12100 429 12100 439V841Q12100 872 12110.0 888.0Q12120 904 12143 904Q12154 904 12164.0 900.5Q12174 897 12184.0 890.0Q12194 883 12204 873Q12209 867 12216.0 867.5Q12223 868 12229 875Q12235 881 12236.0 887.5Q12237 894 12233 901Q12222 916 12205.5 927.5Q12189 939 12170.5 945.5Q12152 952 12133 952ZM12074 252Q12052 252 12041.0 240.0Q12030 228 12030 203Q12030 178 12041.0 165.5Q12052 153 12074 153Q12095 153 12106.0 165.5Q12117 178 12117 203Q12118 228 12106.5 240.0Q12095 252 12074 252ZM11941 1345H12242V1355H11941ZM11941 915H12242V935H11941ZM11941 430H12242V435H11941ZM11941 5H12242V15H11941ZM12507 952Q12452 952 12408.0 923.0Q12364 894 12338.5 837.0Q12313 780 12313 697Q12313 647 12322.5 604.0Q12332 561 12351.0 526.5Q12370 492 12398.0 467.5Q12426 443 12463.0 429.5Q12500 416 12545 416Q12578 416 12610.5 425.5Q12643 435 12677 455V19Q12677 9 12683.5 4.5Q12690 0 12703 0Q12717 0 12723.0 4.5Q12729 9 12729 19V844Q12729 875 12740.0 890.0Q12751 905 12773 905Q12783 905 12793.0 901.5Q12803 898 12812.5 890.0Q12822 882 12832 872Q12838 866 12844.5 867.0Q12851 868 12857 875Q12863 881 12864.5 887.5Q12866 894 12861 901Q12850 916 12834.0 927.5Q12818 939 12800.0 945.5Q12782 952 12764 952Q12735 952 12715.5 940.5Q12696 929 12686.5 908.5Q12677 888 12677 860Q12677 856 12677.0 851.5Q12677 847 12677 843Q12654 888 12624.5 911.5Q12595 935 12564.5 943.5Q12534 952 12507 952ZM12369 693Q12369 755 12385.5 802.0Q12402 849 12434.5 875.5Q12467 902 12516 902Q12548 902 12578.5 888.5Q12609 875 12634.5 842.5Q12660 810 12677 754V507Q12642 483 12609.5 474.0Q12577 465 12544 465Q12512 465 12485.0 474.5Q12458 484 12436.5 503.0Q12415 522 12400.0 549.5Q12385 577 12377.0 613.0Q12369 649 12369 693ZM12242 1345H12871V1355H12242ZM12242 915H12871V935H12242ZM12242 430H12871V435H12242ZM12242 5H12871V15H12242ZM13164 953Q13090 953 13040.5 920.0Q12991 887 12966.5 831.0Q12942 775 12942 706Q12942 641 12959.0 587.5Q12976 534 13007.5 495.5Q13039 457 13083.0 436.5Q13127 416 13182 416Q13236 416 13270.0 433.0Q13304 450 13321.0 478.5Q13338 507 13338 542Q13338 580 13321.0 610.5Q13304 641 13273.0 663.5Q13242 686 13199.0 701.0Q13156 716 13103.0 724.0Q13050 732 12991 732V686Q13036 687 13078.5 681.5Q13121 676 13158.0 665.5Q13195 655 13223.0 638.0Q13251 621 13266.5 598.0Q13282 575 13282 545Q13282 505 13254.5 485.0Q13227 465 13178 465Q13143 465 13110.5 479.0Q13078 493 13052.5 521.5Q13027 550 13012.0 593.0Q12997 636 12997 695Q12997 767 13020.0 813.0Q13043 859 13081.5 881.5Q13120 904 13167 904Q13206 904 13231.5 893.0Q13257 882 13275.5 865.0Q13294 848 13310 829Q13319 821 13326.5 821.5Q13334 822 13343 828Q13351 834 13354.0 842.0Q13357 850 13350 858Q13334 882 13307.5 904.0Q13281 926 13245.0 939.5Q13209 953 13164 953ZM12871 1345H13397V1355H12871ZM12871 915H13397V935H12871ZM12871 430H13397V435H12871ZM12871 5H13397V15H12871ZM13646 954Q13600 954 13564.0 942.5Q13528 931 13502.0 914.5Q13476 898 13464 885Q13457 877 13458.5 869.5Q13460 862 13467 852Q13475 844 13482.5 843.5Q13490 843 13498 850Q13530 876 13567.0 892.0Q13604 908 13649 908Q13684 908 13709.5 894.5Q13735 881 13749.0 857.0Q13763 833 13763 802Q13763 766 13743.0 746.5Q13723 727 13692.0 716.0Q13661 705 13626.5 695.0Q13592 685 13560.5 670.0Q13529 655 13509.0 628.0Q13489 601 13489 555Q13489 515 13509.0 484.0Q13529 453 13566.0 434.5Q13603 416 13653 416Q13690 416 13721.0 425.5Q13752 435 13775.5 450.0Q13799 465 13814 481Q13821 489 13819.0 496.0Q13817 503 13810 511Q13804 518 13795.5 518.0Q13787 518 13779 512Q13747 488 13718.0 475.0Q13689 462 13650 462Q13598 462 13570.5 486.0Q13543 510 13543 550Q13543 585 13562.5 605.0Q13582 625 13613.5 636.5Q13645 648 13680.5 658.0Q13716 668 13747.0 683.0Q13778 698 13798.0 724.5Q13818 751 13818 797Q13818 835 13799.5 871.5Q13781 908 13743.5 931.0Q13706 954 13646 954ZM13397 1345H13878V1355H13397ZM13397 915H13878V935H13397ZM13397 430H13878V435H13397ZM13397 5H13878V15H13397Z" /></svg>