<svg viewBox="0 0 11902 2079" xmlns="http://www.w3.org/2000/svg"><path d="M415 1088Q402 1088 396.0 1081.5Q390 1075 390 1062Q390 1049 396.0 1043.0Q402 1037 414 1036Q504 1033 577.0 1008.0Q650 983 702.0 938.5Q754 894 782.0 832.0Q810 770 810 692Q810 588 759.0 533.5Q708 479 620 479Q572 479 528.0 499.5Q484 520 447.5 559.0Q411 598 384.0 655.0Q357 712 342.0 784.5Q327 857 327 944V1503Q327 1512 321.0 1517.0Q315 1522 301 1522Q287 1522 280.0 1517.0Q273 1512 273 1503V584Q254 635 227.0 675.5Q200 716 162.5 749.0Q125 782 73 811Q62 817 54.5 814.5Q47 812 41 800Q35 788 37.0 780.0Q39 772 50 767Q113 733 156.5 687.0Q200 641 227.5 581.0Q255 521 270 448Q272 437 280.5 433.0Q289 429 301 429Q314 429 320.5 433.5Q327 438 327 448V678Q355 596 400.0 540.0Q445 484 503.0 456.0Q561 428 626 428Q699 428 753.0 459.5Q807 491 837.5 550.0Q868 609 868 691Q868 780 835.5 851.5Q803 923 743.5 974.0Q684 1025 600.5 1054.0Q517 1083 415 1088ZM0 2063H919V2073H0ZM0 1488H919V1508H0ZM0 1003H919V1008H0ZM0 433H919V443H0ZM796 1525Q784 1525 778.0 1517.5Q772 1510 772.0 1501.0Q772 1492 778.0 1484.5Q784 1477 796 1477Q828 1477 859.5 1459.0Q891 1441 921.0 1409.0Q951 1377 978.5 1332.5Q1006 1288 1030.5 1234.0Q1055 1180 1076.0 1119.5Q1097 1059 1113.5 994.0Q1130 929 1142.0 862.5Q1154 796 1160.0 730.5Q1166 665 1166 603Q1166 592 1174.5 586.5Q1183 581 1193.5 581.0Q1204 581 1212.5 586.5Q1221 592 1221 603Q1221 667 1214.0 735.5Q1207 804 1193.5 874.0Q1180 944 1161.0 1012.5Q1142 1081 1118.0 1145.5Q1094 1210 1065.5 1267.0Q1037 1324 1006.0 1371.0Q975 1418 940.5 1452.5Q906 1487 869.5 1506.0Q833 1525 796 1525ZM1183 1525Q1122 1525 1079.5 1496.5Q1037 1468 1015.0 1413.0Q993 1358 993 1279V621Q993 521 1021.5 472.5Q1050 424 1109 424Q1147 424 1172.0 444.0Q1197 464 1209.0 503.5Q1221 543 1221 603Q1221 616 1212.5 622.0Q1204 628 1193.5 628.0Q1183 628 1174.5 622.0Q1166 616 1166 603Q1166 559 1160.0 530.5Q1154 502 1141.0 488.0Q1128 474 1108 474Q1087 474 1073.0 488.0Q1059 502 1052.0 534.0Q1045 566 1045 621V1279Q1045 1343 1061.5 1387.0Q1078 1431 1110.5 1454.0Q1143 1477 1189 1477Q1200 1477 1205.5 1484.5Q1211 1492 1210.5 1501.0Q1210 1510 1203.0 1517.5Q1196 1525 1183 1525ZM853 2063H1247V2073H853ZM853 1488H1247V1508H853ZM853 1003H1247V1008H853ZM853 433H1247V443H853ZM1182 1525Q1171 1525 1165.5 1517.5Q1160 1510 1160.5 1501.0Q1161 1492 1168.0 1484.5Q1175 1477 1188 1477Q1221 1477 1247.5 1465.0Q1274 1453 1293.0 1432.0Q1312 1411 1322.5 1383.0Q1333 1355 1334 1322Q1335 1310 1344.0 1306.5Q1353 1303 1361.5 1306.5Q1370 1310 1369 1322Q1368 1366 1353.5 1403.5Q1339 1441 1314.5 1468.0Q1290 1495 1256.0 1510.0Q1222 1525 1182 1525ZM1247 2063V2073ZM1247 1488V1508ZM1247 1003V1008ZM1247 433V443ZM1524 1525Q1469 1525 1425.0 1496.0Q1381 1467 1356.0 1410.0Q1331 1353 1331 1270Q1331 1220 1340.5 1177.0Q1350 1134 1369.0 1099.5Q1388 1065 1415.5 1040.5Q1443 1016 1479.5 1002.5Q1516 989 1561 989Q1599 989 1635.5 1001.5Q1672 1014 1708 1038V1089Q1668 1059 1633.0 1048.5Q1598 1038 1562 1038Q1530 1038 1502.5 1047.5Q1475 1057 1453.5 1076.0Q1432 1095 1417.5 1122.5Q1403 1150 1395.0 1186.0Q1387 1222 1387 1266Q1387 1328 1403.5 1375.0Q1420 1422 1452.5 1448.5Q1485 1475 1534 1475Q1568 1475 1600.0 1459.0Q1632 1443 1658.5 1406.5Q1685 1370 1702 1306L1720 1349Q1699 1423 1665.5 1461.0Q1632 1499 1594.5 1512.0Q1557 1525 1524 1525ZM1820 1525Q1786 1525 1762.0 1515.0Q1738 1505 1723.0 1486.0Q1708 1467 1700.5 1439.0Q1693 1411 1693 1376V1013Q1693 1002 1700.0 997.5Q1707 993 1721 993Q1734 993 1740.0 997.5Q1746 1002 1746 1012V1375Q1746 1427 1763.0 1452.0Q1780 1477 1826 1477Q1833 1477 1837.0 1484.5Q1841 1492 1840.5 1501.0Q1840 1510 1835.5 1517.5Q1831 1525 1820 1525ZM1247 2063H1882V2073H1247ZM1247 1488H1882V1508H1247ZM1247 1003H1882V1008H1247ZM1247 433H1882V443H1247ZM1817 1525Q1808 1525 1803.5 1517.5Q1799 1510 1799.5 1501.0Q1800 1492 1806.0 1484.5Q1812 1477 1823 1477Q1854 1477 1876.5 1462.5Q1899 1448 1916.0 1420.5Q1933 1393 1943.5 1353.0Q1954 1313 1960 1261Q1968 1190 1978.5 1139.0Q1989 1088 2004.5 1056.0Q2020 1024 2042.5 1008.5Q2065 993 2098 993Q2107 993 2111.5 1000.0Q2116 1007 2115.5 1016.5Q2115 1026 2110.0 1033.5Q2105 1041 2096 1041Q2078 1041 2065.0 1052.5Q2052 1064 2042.0 1089.0Q2032 1114 2024.5 1154.0Q2017 1194 2010 1251Q2003 1322 1987.5 1373.5Q1972 1425 1948.0 1459.0Q1924 1493 1891.5 1509.0Q1859 1525 1817 1525ZM1882 2063H1982V2073H1882ZM1882 1488H1982V1508H1882ZM1882 1003H1982V1008H1882ZM1882 433H1982V443H1882ZM2387 2092Q2325 2092 2287.5 2052.5Q2250 2013 2250 1943Q2250 1899 2260.0 1859.0Q2270 1819 2289.0 1782.5Q2308 1746 2336.0 1711.5Q2364 1677 2400 1643Q2418 1628 2436.5 1613.5Q2455 1599 2473.0 1585.5Q2491 1572 2509 1561V1413Q2494 1445 2472.5 1467.0Q2451 1489 2427.0 1502.0Q2403 1515 2377.5 1520.5Q2352 1526 2327 1526Q2279 1526 2242.0 1506.5Q2205 1487 2184.5 1446.5Q2164 1406 2164 1342V1134Q2164 1084 2147.0 1062.5Q2130 1041 2096 1041Q2085 1041 2079.0 1033.5Q2073 1026 2073.5 1016.5Q2074 1007 2080.0 1000.0Q2086 993 2098 993Q2127 993 2149.0 1001.5Q2171 1010 2186.0 1028.0Q2201 1046 2208.5 1073.0Q2216 1100 2216 1138V1337Q2216 1381 2228.5 1412.5Q2241 1444 2267.0 1461.0Q2293 1478 2334 1478Q2363 1478 2390.0 1469.0Q2417 1460 2440.0 1441.0Q2463 1422 2481.0 1392.0Q2499 1362 2509 1321V1012Q2509 1002 2515.5 997.5Q2522 993 2536 993Q2549 993 2555.0 997.5Q2561 1002 2561 1012V1845Q2561 1905 2549.0 1951.5Q2537 1998 2514.5 2029.5Q2492 2061 2460.0 2076.5Q2428 2092 2387 2092ZM2392 2043Q2426 2043 2452.5 2021.5Q2479 2000 2494.0 1957.5Q2509 1915 2509 1851V1621Q2494 1630 2479.5 1639.5Q2465 1649 2450.5 1660.0Q2436 1671 2422 1683Q2395 1711 2373.5 1740.5Q2352 1770 2337.0 1801.5Q2322 1833 2314.5 1868.0Q2307 1903 2307 1940Q2307 1971 2317.0 1994.5Q2327 2018 2346.0 2030.5Q2365 2043 2392 2043ZM1982 2063H2697V2073H1982ZM1982 1488H2697V1508H1982ZM1982 1003H2697V1008H1982ZM1982 433H2697V443H1982ZM2541 1599Q2535 1602 2529.5 1597.0Q2524 1592 2520.5 1583.0Q2517 1574 2519.5 1564.5Q2522 1555 2532 1550Q2593 1514 2631.0 1466.5Q2669 1419 2691.5 1366.0Q2714 1313 2726.5 1260.0Q2739 1207 2749.0 1159.0Q2759 1111 2772.0 1073.5Q2785 1036 2807.5 1014.5Q2830 993 2870 993Q2881 993 2886.0 1000.0Q2891 1007 2890.5 1016.5Q2890 1026 2884.0 1033.5Q2878 1041 2867 1041Q2841 1041 2827.0 1062.0Q2813 1083 2804.0 1119.5Q2795 1156 2786.0 1203.0Q2777 1250 2762.5 1302.5Q2748 1355 2721.5 1408.5Q2695 1462 2651.5 1511.0Q2608 1560 2541 1599ZM2697 2063H2803V2073H2697ZM2697 1488H2803V1508H2697ZM2697 1003H2803V1008H2697ZM2697 433H2803V443H2697ZM3085 1526Q3049 1526 3021.0 1513.5Q2993 1501 2973.5 1475.5Q2954 1450 2944.5 1412.0Q2935 1374 2935 1324V1134Q2935 1084 2918.0 1062.5Q2901 1041 2867 1041Q2856 1041 2850.0 1033.5Q2844 1026 2844.5 1016.5Q2845 1007 2851.0 1000.0Q2857 993 2869 993Q2898 993 2920.0 1001.5Q2942 1010 2957.0 1028.0Q2972 1046 2979.5 1073.0Q2987 1100 2987 1138V1319Q2987 1370 2997.5 1406.0Q3008 1442 3031.5 1460.0Q3055 1478 3095 1478Q3120 1478 3145.0 1469.0Q3170 1460 3191.5 1439.5Q3213 1419 3225.5 1385.5Q3238 1352 3238 1303V1012Q3238 1002 3244.5 997.5Q3251 993 3265 993Q3279 993 3285.0 997.5Q3291 1002 3291 1012V1304Q3291 1350 3295.5 1382.5Q3300 1415 3312.0 1436.0Q3324 1457 3344.5 1467.5Q3365 1478 3395 1478Q3421 1478 3444.5 1468.5Q3468 1459 3488.5 1441.0Q3509 1423 3524.5 1396.5Q3540 1370 3548.5 1336.0Q3557 1302 3557 1261Q3557 1204 3548.5 1163.0Q3540 1122 3528 1091Q3499 1078 3485.5 1061.0Q3472 1044 3472 1025Q3472 1012 3480.0 1000.5Q3488 989 3506 989Q3529 989 3548.0 1015.0Q3567 1041 3581.0 1082.5Q3595 1124 3602.5 1169.5Q3610 1215 3610 1253Q3610 1295 3601.0 1335.5Q3592 1376 3574.0 1410.5Q3556 1445 3529.5 1471.0Q3503 1497 3468.0 1512.0Q3433 1527 3388 1527Q3354 1527 3327.0 1515.0Q3300 1503 3281.0 1479.0Q3262 1455 3251 1418Q3237 1453 3211.5 1477.0Q3186 1501 3153.5 1513.5Q3121 1526 3085 1526ZM2803 2063H3691V2073H2803ZM2803 1488H3691V1508H2803ZM2803 1003H3691V1008H2803ZM2803 433H3691V443H2803ZM3723 1255Q3689 1255 3658.0 1236.5Q3627 1218 3597.0 1179.0Q3567 1140 3535 1079Q3528 1065 3534.5 1057.0Q3541 1049 3552.0 1049.0Q3563 1049 3569 1060Q3596 1111 3621.5 1144.5Q3647 1178 3672.0 1194.5Q3697 1211 3723 1211Q3759 1211 3779.0 1167.0Q3799 1123 3799 1045Q3799 1035 3805.5 1030.0Q3812 1025 3820.5 1025.0Q3829 1025 3836.0 1031.0Q3843 1037 3843 1049Q3843 1115 3828.5 1161.0Q3814 1207 3787.5 1231.0Q3761 1255 3723 1255ZM3691 2063V2073ZM3691 1488V1508ZM3691 1003V1008ZM3691 433V443ZM4195 1525Q4170 1525 4147.0 1519.0Q4124 1513 4106.0 1499.5Q4088 1486 4078.0 1464.0Q4068 1442 4068 1411Q4068 1384 4070.5 1349.0Q4073 1314 4075.5 1275.5Q4078 1237 4080.5 1201.0Q4083 1165 4083 1134Q4083 1089 4067.5 1071.5Q4052 1054 4021 1054Q3996 1054 3963.5 1064.0Q3931 1074 3899.0 1083.5Q3867 1093 3841 1093Q3825 1093 3810.5 1076.5Q3796 1060 3786.5 1036.5Q3777 1013 3777 994Q3777 981 3781.0 971.5Q3785 962 3793.5 956.0Q3802 950 3813 950Q3833 950 3842.0 968.0Q3851 986 3851 1011Q3851 1020 3850.5 1029.0Q3850 1038 3849 1046Q3866 1047 3886.5 1041.0Q3907 1035 3930.5 1026.0Q3954 1017 3979.0 1010.5Q4004 1004 4030 1004Q4066 1004 4089.0 1017.0Q4112 1030 4123.5 1058.5Q4135 1087 4135 1132Q4135 1163 4132.5 1199.5Q4130 1236 4127.5 1273.0Q4125 1310 4122.5 1343.0Q4120 1376 4120 1400Q4120 1440 4141.0 1458.5Q4162 1477 4201 1477Q4212 1477 4217.0 1484.5Q4222 1492 4221.5 1501.0Q4221 1510 4214.5 1517.5Q4208 1525 4195 1525ZM3691 2063H4259V2073H3691ZM3691 1488H4259V1508H3691ZM3691 1003H4259V1008H3691ZM3691 433H4259V443H3691ZM4194 1525Q4183 1525 4177.5 1517.5Q4172 1510 4172.5 1501.0Q4173 1492 4180.0 1484.5Q4187 1477 4200 1477Q4237 1477 4268.0 1465.0Q4299 1453 4323.0 1433.0Q4347 1413 4365.0 1388.0Q4383 1363 4393 1336Q4397 1325 4406.0 1325.5Q4415 1326 4421.0 1333.5Q4427 1341 4424 1351Q4413 1384 4393.0 1415.0Q4373 1446 4344.5 1471.0Q4316 1496 4278.0 1510.5Q4240 1525 4194 1525ZM4259 2063V2073ZM4259 1488V1508ZM4259 1003V1008ZM4259 433V443ZM4521 1525Q4483 1525 4457.5 1514.5Q4432 1504 4417.5 1484.0Q4403 1464 4397.0 1435.5Q4391 1407 4391 1371V1012Q4391 1002 4397.0 997.5Q4403 993 4416 993Q4430 993 4436.5 997.5Q4443 1002 4443 1012V1371Q4443 1426 4459.5 1451.5Q4476 1477 4527 1477Q4536 1477 4540.5 1484.5Q4545 1492 4544.5 1501.0Q4544 1510 4538.5 1517.5Q4533 1525 4521 1525ZM4417 825Q4395 825 4384.0 812.5Q4373 800 4373 776Q4373 751 4384.0 738.5Q4395 726 4417 726Q4438 726 4449.0 738.5Q4460 751 4460 776Q4461 801 4449.5 813.0Q4438 825 4417 825ZM4259 2063H4584V2073H4259ZM4259 1488H4584V1508H4259ZM4259 1003H4584V1008H4259ZM4259 433H4584V443H4259ZM4519 1525Q4508 1525 4502.5 1517.5Q4497 1510 4497.5 1501.0Q4498 1492 4505.0 1484.5Q4512 1477 4525 1477Q4562 1477 4594.5 1465.5Q4627 1454 4653.5 1434.0Q4680 1414 4699.0 1386.5Q4718 1359 4728 1326Q4731 1315 4740.5 1316.0Q4750 1317 4756.5 1324.0Q4763 1331 4760 1341Q4748 1383 4726.0 1416.5Q4704 1450 4672.5 1474.5Q4641 1499 4602.0 1512.0Q4563 1525 4519 1525ZM4584 2063V2073ZM4584 1488V1508ZM4584 1003V1008ZM4584 433V443ZM4908 1525Q4857 1525 4821.5 1510.0Q4786 1495 4764.5 1466.5Q4743 1438 4732.5 1398.0Q4722 1358 4722 1307V1056H4631Q4620 1056 4616.0 1050.0Q4612 1044 4612 1032Q4612 1019 4616.0 1013.5Q4620 1008 4631 1008H4722V797Q4722 787 4728.5 782.5Q4735 778 4748 778Q4761 778 4768.0 782.5Q4775 787 4775 797V1008H4916Q4927 1008 4931.5 1013.5Q4936 1019 4936 1032Q4936 1044 4931.5 1050.0Q4927 1056 4916 1056H4775V1295Q4775 1333 4781.0 1366.0Q4787 1399 4802.5 1423.5Q4818 1448 4845.0 1462.5Q4872 1477 4915 1477Q4925 1477 4930.0 1484.5Q4935 1492 4934.5 1501.0Q4934 1510 4927.5 1517.5Q4921 1525 4908 1525ZM4584 2063H4972V2073H4584ZM4584 1488H4972V1508H4584ZM4584 1003H4972V1008H4584ZM4584 433H4972V443H4584ZM4910 1525Q4897 1525 4891.5 1517.5Q4886 1510 4887.5 1501.0Q4889 1492 4896.5 1484.5Q4904 1477 4916 1477Q4972 1477 5026.0 1456.0Q5080 1435 5124 1403Q5132 1398 5138.5 1401.0Q5145 1404 5149.5 1411.5Q5154 1419 5154.0 1427.5Q5154 1436 5147 1441Q5113 1465 5073.0 1484.0Q5033 1503 4991.5 1514.0Q4950 1525 4910 1525ZM4972 2063V2073ZM4972 1488V1508ZM4972 1003V1008ZM4972 433V443ZM5124 1405Q5148 1388 5169.0 1368.5Q5190 1349 5208 1328Q5232 1301 5249.0 1271.5Q5266 1242 5275.5 1212.0Q5285 1182 5285 1154Q5285 1095 5259.0 1066.5Q5233 1038 5187 1038Q5166 1038 5147.5 1048.5Q5129 1059 5115.0 1079.0Q5101 1099 5093.5 1126.0Q5086 1153 5086 1186Q5086 1252 5104.5 1305.5Q5123 1359 5153.0 1397.0Q5183 1435 5218.0 1455.5Q5253 1476 5286 1476Q5316 1476 5339.0 1464.0Q5362 1452 5380.0 1434.5Q5398 1417 5411 1402Q5419 1393 5427.0 1393.5Q5435 1394 5444 1401Q5452 1407 5454.5 1414.5Q5457 1422 5451 1431Q5435 1455 5409.0 1476.5Q5383 1498 5350.0 1511.5Q5317 1525 5279 1525Q5241 1525 5204.5 1508.0Q5168 1491 5136.5 1460.0Q5105 1429 5081.5 1386.5Q5058 1344 5044.5 1293.5Q5031 1243 5031 1187Q5031 1153 5038.5 1122.5Q5046 1092 5060.0 1067.5Q5074 1043 5094.0 1025.5Q5114 1008 5138.5 998.5Q5163 989 5191 989Q5244 989 5277.0 1011.5Q5310 1034 5325.0 1071.0Q5340 1108 5340 1150Q5340 1184 5328.5 1219.5Q5317 1255 5296.0 1289.5Q5275 1324 5246 1356Q5226 1380 5201.0 1402.0Q5176 1424 5149 1443ZM4972 2063H5416V2073H4972ZM4972 1488H5416V1508H4972ZM4972 1003H5416V1008H4972ZM4972 433H5416V443H4972ZM6170 1525Q6084 1525 6017.0 1489.5Q5950 1454 5902.5 1386.5Q5855 1319 5830.0 1222.0Q5805 1125 5805 1001Q5805 917 5820.0 842.5Q5835 768 5863.5 704.0Q5892 640 5932.0 589.0Q5972 538 6022.0 502.0Q6072 466 6130.5 447.0Q6189 428 6254 428Q6335 428 6402.0 456.0Q6469 484 6519.5 538.0Q6570 592 6599 672Q6604 685 6603.5 695.0Q6603 705 6590 712Q6575 720 6567.0 715.0Q6559 710 6553 698Q6524 625 6479.5 577.0Q6435 529 6378.0 505.0Q6321 481 6254 481Q6197 481 6146.5 498.5Q6096 516 6052.0 548.5Q6008 581 5973.5 627.0Q5939 673 5914.5 731.0Q5890 789 5877.0 857.0Q5864 925 5864 1001Q5864 1112 5884.5 1199.5Q5905 1287 5945.0 1347.5Q5985 1408 6043.0 1440.0Q6101 1472 6174 1472Q6228 1472 6277.0 1448.5Q6326 1425 6368.5 1380.0Q6411 1335 6445.0 1269.5Q6479 1204 6504.0 1118.0Q6529 1032 6542 928Q6542 917 6548.5 912.5Q6555 908 6569 908Q6583 908 6589.5 912.5Q6596 917 6596 927L6595 1333Q6595 1370 6600.5 1396.5Q6606 1423 6617.0 1440.0Q6628 1457 6645.0 1465.0Q6662 1473 6685 1473Q6707 1473 6724.5 1466.0Q6742 1459 6758.5 1442.5Q6775 1426 6792 1399Q6799 1389 6807.0 1387.5Q6815 1386 6825 1393Q6836 1400 6837.5 1408.0Q6839 1416 6833 1426Q6818 1450 6801.5 1469.0Q6785 1488 6766.5 1500.5Q6748 1513 6727.0 1519.0Q6706 1525 6681 1525Q6634 1525 6603.0 1504.5Q6572 1484 6557.0 1441.5Q6542 1399 6542 1333V1130Q6518 1222 6481.0 1295.5Q6444 1369 6396.0 1420.0Q6348 1471 6291.0 1498.0Q6234 1525 6170 1525ZM5716 2063H6859V2073H5716ZM5716 1488H6859V1508H5716ZM5716 1003H6859V1008H5716ZM5716 433H6859V443H5716ZM7757 1527Q7721 1527 7691.0 1510.0Q7661 1493 7632.0 1460.0Q7603 1427 7570.0 1378.0Q7537 1329 7496 1264Q7470 1225 7451.0 1194.5Q7432 1164 7416.5 1138.5Q7401 1113 7387.5 1090.0Q7374 1067 7360 1044Q7334 1046 7312.5 1039.0Q7291 1032 7278.0 1019.5Q7265 1007 7265 992Q7265 974 7277.5 963.0Q7290 952 7310 952Q7330 952 7350.0 961.5Q7370 971 7382 988Q7431 979 7473.5 960.5Q7516 942 7550.5 915.5Q7585 889 7610.0 855.0Q7635 821 7648.0 780.5Q7661 740 7661 693Q7661 628 7637.5 580.0Q7614 532 7569.5 505.5Q7525 479 7460 479Q7407 479 7360.0 499.0Q7313 519 7274.0 558.0Q7235 597 7206.0 653.5Q7177 710 7161.5 783.0Q7146 856 7146 944V1503Q7146 1512 7140.0 1517.0Q7134 1522 7120 1522Q7106 1522 7099.0 1517.0Q7092 1512 7092 1503V584Q7073 635 7046.0 675.5Q7019 716 6981.5 749.0Q6944 782 6892 811Q6881 817 6873.5 814.5Q6866 812 6860 800Q6854 788 6856.0 780.0Q6858 772 6869 767Q6932 733 6975.5 687.0Q7019 641 7046.5 581.0Q7074 521 7089 448Q7091 437 7099.5 433.0Q7108 429 7120 429Q7133 429 7139.5 433.5Q7146 438 7146 448V681Q7168 618 7200.5 571.0Q7233 524 7274.0 492.0Q7315 460 7363.0 444.0Q7411 428 7464 428Q7544 428 7600.5 460.5Q7657 493 7688.0 551.0Q7719 609 7719 687Q7719 740 7704.5 786.0Q7690 832 7663.5 870.5Q7637 909 7599.0 939.5Q7561 970 7513.5 992.5Q7466 1015 7410 1028Q7419 1044 7429.5 1061.5Q7440 1079 7454.5 1102.5Q7469 1126 7488.5 1157.0Q7508 1188 7535 1229Q7575 1293 7605.0 1336.5Q7635 1380 7657.0 1407.5Q7679 1435 7696.0 1449.5Q7713 1464 7728.5 1469.0Q7744 1474 7760 1474Q7778 1474 7795.0 1467.0Q7812 1460 7829.5 1445.0Q7847 1430 7865 1409Q7871 1401 7878.5 1401.0Q7886 1401 7895 1407Q7905 1414 7906.5 1421.5Q7908 1429 7902 1437Q7881 1466 7856.5 1486.0Q7832 1506 7806.5 1516.5Q7781 1527 7757 1527ZM6819 2063H7915V2073H6819ZM6819 1488H7915V1508H6819ZM6819 1003H7915V1008H6819ZM6819 433H7915V443H6819ZM8910 2092Q8863 2092 8828.5 2073.5Q8794 2055 8776.0 2020.5Q8758 1986 8758 1939Q8758 1927 8766.5 1920.5Q8775 1914 8786.0 1913.0Q8797 1912 8806.0 1918.0Q8815 1924 8815 1936Q8815 1987 8840.5 2014.5Q8866 2042 8915 2042Q8981 2042 9016.5 1987.0Q9052 1932 9052 1820V1167Q9028 1243 8992.0 1303.5Q8956 1364 8909.5 1407.0Q8863 1450 8809.0 1473.0Q8755 1496 8696 1496Q8611 1496 8541.5 1459.5Q8472 1423 8421.5 1355.0Q8371 1287 8343.5 1192.5Q8316 1098 8316 982Q8316 900 8330.5 827.0Q8345 754 8372.0 692.5Q8399 631 8438.0 582.0Q8477 533 8526.0 498.5Q8575 464 8633.0 446.0Q8691 428 8756 428Q8818 428 8872.5 443.5Q8927 459 8974.5 489.5Q9022 520 9063 566Q9072 575 9071.5 582.5Q9071 590 9061 599Q9051 609 9043.0 608.5Q9035 608 9025 598Q8989 559 8946.5 533.0Q8904 507 8856.5 494.0Q8809 481 8755 481Q8699 481 8648.5 497.5Q8598 514 8556.0 544.5Q8514 575 8480.0 619.5Q8446 664 8422.5 719.5Q8399 775 8386.5 841.0Q8374 907 8374 982Q8374 1086 8397.5 1170.5Q8421 1255 8464.0 1316.0Q8507 1377 8567.0 1410.0Q8627 1443 8700 1443Q8766 1443 8823.5 1409.5Q8881 1376 8927.5 1317.0Q8974 1258 9005.5 1178.5Q9037 1099 9052 1007Q9052 997 9058.5 992.5Q9065 988 9079 988Q9106 988 9106 1007V1816Q9106 1906 9084.0 1968.0Q9062 2030 9018.5 2061.0Q8975 2092 8910 2092ZM8215 2063H9221V2073H8215ZM8215 1488H9221V1508H8215ZM8215 1003H9221V1008H8215ZM8215 433H9221V443H8215ZM8758 1939Q8758 1896 8771.5 1853.5Q8785 1811 8811.0 1769.5Q8837 1728 8875.5 1688.0Q8914 1648 8964.5 1609.5Q9015 1571 9078 1534Q9131 1503 9175.5 1477.0Q9220 1451 9256.0 1428.0Q9292 1405 9319.5 1384.5Q9347 1364 9366.0 1344.0Q9385 1324 9396.0 1303.5Q9407 1283 9410 1261Q9412 1250 9421.0 1248.5Q9430 1247 9438.0 1251.5Q9446 1256 9443 1267Q9439 1302 9423.0 1332.0Q9407 1362 9379.0 1390.0Q9351 1418 9310.0 1446.5Q9269 1475 9214.5 1508.0Q9160 1541 9091 1581Q9036 1615 8992.0 1650.0Q8948 1685 8914.5 1720.0Q8881 1755 8859.0 1791.0Q8837 1827 8826.0 1863.0Q8815 1899 8815 1936Q8815 1949 8806.5 1955.5Q8798 1962 8786.5 1962.5Q8775 1963 8766.5 1957.0Q8758 1951 8758 1939ZM9221 2063H9271V2073H9221ZM9221 1488H9271V1508H9221ZM9221 1003H9271V1008H9221ZM9221 433H9271V443H9221ZM9566 1526Q9518 1526 9481.0 1506.5Q9444 1487 9423.5 1446.5Q9403 1406 9403 1342V1012Q9403 1003 9409.0 998.5Q9415 994 9428 994Q9442 994 9448.5 998.5Q9455 1003 9455 1012V1337Q9455 1381 9467.5 1412.5Q9480 1444 9506.0 1461.0Q9532 1478 9573 1478Q9602 1478 9629.0 1469.0Q9656 1460 9679.0 1441.5Q9702 1423 9720.0 1393.0Q9738 1363 9748 1322V1012Q9748 1002 9754.5 997.5Q9761 993 9775 993Q9788 993 9794.0 997.5Q9800 1002 9800 1012V1371Q9800 1430 9818.5 1453.5Q9837 1477 9884 1477Q9894 1477 9898.5 1484.5Q9903 1492 9902.5 1501.0Q9902 1510 9896.0 1517.5Q9890 1525 9878 1525Q9848 1525 9826.0 1518.5Q9804 1512 9788.5 1499.0Q9773 1486 9764.0 1466.5Q9755 1447 9751 1421L9750 1408Q9735 1442 9713.5 1465.0Q9692 1488 9667.5 1501.0Q9643 1514 9617.0 1520.0Q9591 1526 9566 1526ZM9271 2063H9942V2073H9271ZM9271 1488H9942V1508H9271ZM9271 1003H9942V1008H9271ZM9271 433H9942V443H9271ZM9877 1525Q9866 1525 9860.5 1517.5Q9855 1510 9855.5 1501.0Q9856 1492 9863.0 1484.5Q9870 1477 9883 1477Q9920 1477 9951.0 1465.0Q9982 1453 10006.0 1433.0Q10030 1413 10048.0 1388.0Q10066 1363 10076 1336Q10080 1325 10089.0 1325.5Q10098 1326 10104.0 1333.5Q10110 1341 10107 1351Q10096 1384 10076.0 1415.0Q10056 1446 10027.5 1471.0Q9999 1496 9961.0 1510.5Q9923 1525 9877 1525ZM9942 2063V2073ZM9942 1488V1508ZM9942 1003V1008ZM9942 433V443ZM10204 1525Q10166 1525 10140.5 1514.5Q10115 1504 10100.5 1484.0Q10086 1464 10080.0 1435.5Q10074 1407 10074 1371V1012Q10074 1002 10080.0 997.5Q10086 993 10099 993Q10113 993 10119.5 997.5Q10126 1002 10126 1012V1371Q10126 1426 10142.5 1451.5Q10159 1477 10210 1477Q10219 1477 10223.5 1484.5Q10228 1492 10227.5 1501.0Q10227 1510 10221.5 1517.5Q10216 1525 10204 1525ZM10100 825Q10078 825 10067.0 812.5Q10056 800 10056 776Q10056 751 10067.0 738.5Q10078 726 10100 726Q10121 726 10132.0 738.5Q10143 751 10143 776Q10144 801 10132.5 813.0Q10121 825 10100 825ZM9942 2063H10267V2073H9942ZM9942 1488H10267V1508H9942ZM9942 1003H10267V1008H9942ZM9942 433H10267V443H9942ZM10202 1525Q10191 1525 10185.5 1517.5Q10180 1510 10180.5 1501.0Q10181 1492 10188.0 1484.5Q10195 1477 10208 1477Q10241 1477 10267.5 1465.0Q10294 1453 10313.0 1432.0Q10332 1411 10342.5 1383.0Q10353 1355 10354 1322Q10355 1310 10364.0 1306.5Q10373 1303 10381.5 1306.5Q10390 1310 10389 1322Q10388 1366 10373.5 1403.5Q10359 1441 10334.5 1468.0Q10310 1495 10276.0 1510.0Q10242 1525 10202 1525ZM10267 2063V2073ZM10267 1488V1508ZM10267 1003V1008ZM10267 433V443ZM10544 1525Q10489 1525 10445.0 1496.0Q10401 1467 10376.0 1410.0Q10351 1353 10351 1270Q10351 1220 10360.5 1177.0Q10370 1134 10389.0 1099.5Q10408 1065 10436.0 1040.5Q10464 1016 10500.5 1002.5Q10537 989 10582 989Q10615 989 10648.0 999.0Q10681 1009 10714 1028V447Q10714 437 10720.5 432.5Q10727 428 10741 428Q10754 428 10760.0 432.5Q10766 437 10766 447V1379Q10766 1435 10783.5 1456.0Q10801 1477 10852 1477Q10861 1477 10865.0 1484.5Q10869 1492 10868.5 1501.0Q10868 1510 10862.5 1517.5Q10857 1525 10846 1525Q10814 1525 10790.0 1518.0Q10766 1511 10750.5 1497.0Q10735 1483 10726.5 1462.5Q10718 1442 10716 1416V1412Q10694 1458 10664.0 1483.0Q10634 1508 10603.0 1516.5Q10572 1525 10544 1525ZM10554 1475Q10586 1475 10616.0 1461.0Q10646 1447 10671.5 1415.0Q10697 1383 10714 1327V1080Q10679 1056 10646.5 1047.0Q10614 1038 10582 1038Q10550 1038 10522.5 1047.5Q10495 1057 10473.5 1076.0Q10452 1095 10437.5 1122.5Q10423 1150 10415.0 1186.0Q10407 1222 10407 1266Q10407 1328 10423.5 1375.0Q10440 1422 10472.5 1448.5Q10505 1475 10554 1475ZM10267 2063H10908V2073H10267ZM10267 1488H10908V1508H10267ZM10267 1003H10908V1008H10267ZM10267 433H10908V443H10267ZM10846 1525Q10833 1525 10827.5 1517.5Q10822 1510 10823.5 1501.0Q10825 1492 10832.5 1484.5Q10840 1477 10852 1477Q10908 1477 10962.0 1456.0Q11016 1435 11060 1403Q11068 1398 11074.5 1401.0Q11081 1404 11085.5 1411.5Q11090 1419 11090.0 1427.5Q11090 1436 11083 1441Q11049 1465 11009.0 1484.0Q10969 1503 10927.5 1514.0Q10886 1525 10846 1525ZM10908 2063V2073ZM10908 1488V1508ZM10908 1003V1008ZM10908 433V443ZM11063 1402Q11086 1386 11106.5 1367.5Q11127 1349 11144 1328Q11168 1301 11185.0 1271.5Q11202 1242 11211.5 1212.5Q11221 1183 11221 1153Q11221 1094 11195.0 1066.0Q11169 1038 11123 1038Q11113 1038 11107.5 1030.5Q11102 1023 11103.0 1013.5Q11104 1004 11110.0 996.5Q11116 989 11127 989Q11180 989 11213.0 1011.5Q11246 1034 11261.0 1071.0Q11276 1108 11276 1150Q11276 1184 11264.5 1219.5Q11253 1255 11232.0 1289.5Q11211 1324 11182 1356Q11163 1379 11139.5 1400.0Q11116 1421 11091 1439ZM10908 2063H11352V2073H10908ZM10908 1488H11352V1508H10908ZM10908 1003H11352V1008H10908ZM10908 433H11352V443H10908ZM11239 1525Q11196 1525 11155.5 1508.0Q11115 1491 11081.0 1460.0Q11047 1429 11021.5 1386.5Q10996 1344 10981.0 1293.5Q10966 1243 10966 1187Q10966 1153 10974.0 1122.5Q10982 1092 10996.0 1067.5Q11010 1043 11030.0 1025.5Q11050 1008 11074.5 998.5Q11099 989 11127 989Q11136 989 11140.5 996.5Q11145 1004 11144.0 1013.5Q11143 1023 11137.5 1030.5Q11132 1038 11123 1038Q11101 1038 11082.5 1049.0Q11064 1060 11050.5 1079.5Q11037 1099 11029.5 1126.5Q11022 1154 11022 1186Q11022 1252 11041.5 1305.5Q11061 1359 11094.0 1397.0Q11127 1435 11166.0 1455.5Q11205 1476 11243 1476Q11295 1476 11339.5 1449.0Q11384 1422 11421.5 1367.0Q11459 1312 11489.0 1228.5Q11519 1145 11543 1033Q11545 1024 11555.0 1023.0Q11565 1022 11574.0 1028.0Q11583 1034 11580 1049Q11558 1167 11525.5 1256.5Q11493 1346 11449.5 1405.5Q11406 1465 11353.5 1495.0Q11301 1525 11239 1525ZM11352 2063V2073ZM11352 1488V1508ZM11352 1003V1008ZM11352 433V443ZM11650 1527Q11608 1527 11570.0 1515.0Q11532 1503 11503 1481Q11497 1475 11496.5 1466.5Q11496 1458 11504 1449Q11511 1440 11518.5 1438.5Q11526 1437 11535 1443Q11563 1463 11590.5 1472.0Q11618 1481 11655 1481Q11706 1481 11735.5 1449.5Q11765 1418 11765 1364Q11765 1322 11748.0 1292.5Q11731 1263 11704.0 1241.5Q11677 1220 11647.0 1200.5Q11617 1181 11590.0 1157.5Q11563 1134 11546.0 1102.0Q11529 1070 11529 1023Q11529 997 11539.5 973.5Q11550 950 11574 950Q11587 950 11594.0 957.5Q11601 965 11601 978Q11601 989 11595.5 1008.5Q11590 1028 11580 1052Q11581 1081 11599.0 1103.5Q11617 1126 11644.0 1144.5Q11671 1163 11701.0 1183.0Q11731 1203 11758.0 1227.5Q11785 1252 11802.0 1285.0Q11819 1318 11819 1364Q11819 1437 11773.0 1482.0Q11727 1527 11650 1527ZM11352 2063H11902V2073H11352ZM11352 1488H11902V1508H11352ZM11352 1003H11902V1008H11352ZM11352 433H11902V443H11352Z" fill="currentColor" /></svg>