<svg viewBox="0 0 10550 1650" xmlns="http://www.w3.org/2000/svg"><path d="M89 1289Q41 1289 50 1259L319 427Q324 413 336.0 406.5Q348 400 370 400H525Q618 400 680.0 422.0Q742 444 773.0 487.5Q804 531 804 596Q804 672 774.5 728.5Q745 785 691.0 823.5Q637 862 563.0 886.0Q489 910 401 921Q364 925 322.0 927.5Q280 930 245 930L138 1261Q133 1275 122.5 1282.0Q112 1289 89 1289ZM270 850Q294 850 321.0 849.0Q348 848 375.5 845.5Q403 843 428 840Q520 825 583.5 795.5Q647 766 680.5 719.5Q714 673 714 607Q714 562 693.0 534.0Q672 506 627.5 493.0Q583 480 511 480H390ZM861 1292Q823 1292 799.0 1279.0Q775 1266 763.5 1242.5Q752 1219 752.5 1189.0Q753 1159 764 1123L994 417Q1001 397 1010.5 391.0Q1020 385 1039 385Q1071 385 1079.0 394.5Q1087 404 1081 424L850 1132Q834 1180 843.0 1198.5Q852 1217 884 1217Q898 1217 904.0 1228.5Q910 1240 907.5 1254.5Q905 1269 893.5 1280.5Q882 1292 861 1292ZM857 1292Q843 1292 836.5 1280.5Q830 1269 832.5 1254.5Q835 1240 847.0 1228.5Q859 1217 880 1217Q906 1217 932.5 1206.0Q959 1195 985.0 1173.5Q1011 1152 1033.0 1122.0Q1055 1092 1072 1055Q1077 1040 1089.5 1040.5Q1102 1041 1111.5 1050.5Q1121 1060 1117 1074Q1099 1125 1071.0 1165.5Q1043 1206 1009.0 1234.0Q975 1262 936.0 1277.0Q897 1292 857 1292ZM1193 1292Q1150 1292 1119.0 1272.5Q1088 1253 1071.5 1216.0Q1055 1179 1055 1129Q1055 1085 1067.5 1034.0Q1080 983 1105.5 934.0Q1131 885 1169.5 844.5Q1208 804 1260.0 780.0Q1312 756 1378 756Q1421 756 1462.0 772.5Q1503 789 1536 814L1523 883Q1480 855 1446.5 845.0Q1413 835 1380 835Q1329 835 1290.5 854.0Q1252 873 1224.5 905.0Q1197 937 1179.5 975.0Q1162 1013 1153.5 1050.5Q1145 1088 1145 1118Q1145 1149 1154.0 1169.5Q1163 1190 1180.0 1201.0Q1197 1212 1222 1212Q1257 1212 1294.0 1187.0Q1331 1162 1368.5 1114.5Q1406 1067 1440 1002L1462 1046Q1418 1141 1369.0 1195.0Q1320 1249 1274.5 1270.5Q1229 1292 1193 1292ZM1492 1292Q1454 1292 1430.0 1279.0Q1406 1266 1394.5 1242.5Q1383 1219 1383.5 1188.5Q1384 1158 1395 1123L1504 792Q1511 772 1520.5 766.0Q1530 760 1549 760Q1580 760 1588.5 769.5Q1597 779 1590 799L1481 1132Q1465 1180 1474.0 1198.5Q1483 1217 1515 1217Q1529 1217 1534.5 1228.5Q1540 1240 1538.0 1254.5Q1536 1269 1524.5 1280.5Q1513 1292 1492 1292ZM1492 1292Q1478 1292 1471.5 1280.5Q1465 1269 1467.5 1254.5Q1470 1240 1482.0 1228.5Q1494 1217 1515 1217Q1545 1217 1575.5 1204.0Q1606 1191 1637.0 1163.5Q1668 1136 1701.5 1095.0Q1735 1054 1770 998Q1779 985 1791.0 986.0Q1803 987 1809.5 996.5Q1816 1006 1810 1018Q1774 1088 1736.0 1140.0Q1698 1192 1658.5 1225.5Q1619 1259 1577.5 1275.5Q1536 1292 1492 1292ZM1845 1291Q1791 1291 1759.0 1267.0Q1727 1243 1720.5 1198.5Q1714 1154 1733 1094L1832 792Q1839 772 1848.5 766.0Q1858 760 1877 760Q1908 760 1916.5 769.5Q1925 779 1918 799L1819 1100Q1807 1138 1808.0 1163.0Q1809 1188 1825.5 1200.5Q1842 1213 1876 1213Q1903 1213 1932.5 1198.0Q1962 1183 1992.5 1155.0Q2023 1127 2051.0 1088.5Q2079 1050 2102 1003L2170 792Q2177 772 2186.5 766.0Q2196 760 2215 760Q2246 760 2254.5 769.5Q2263 779 2256 799L2054 1425Q2024 1514 1989.0 1567.5Q1954 1621 1905.5 1645.0Q1857 1669 1786 1669Q1747 1669 1713.5 1657.5Q1680 1646 1655.5 1627.0Q1631 1608 1617 1585Q1608 1569 1606.5 1556.0Q1605 1543 1627 1531Q1646 1520 1657.0 1521.0Q1668 1522 1677 1537Q1696 1570 1726.0 1580.5Q1756 1591 1793 1591Q1840 1591 1871.5 1574.5Q1903 1558 1926.0 1521.0Q1949 1484 1969 1422L2047 1176Q2023 1204 1998.5 1225.5Q1974 1247 1948.5 1261.5Q1923 1276 1896.5 1283.5Q1870 1291 1845 1291ZM2395 1290Q2374 1290 2366.0 1281.5Q2358 1273 2357 1252L2345 799Q2345 785 2353.0 772.5Q2361 760 2389 760Q2411 760 2420.5 768.5Q2430 777 2430 800L2433 1154L2673 791Q2685 773 2698.0 766.5Q2711 760 2730 760Q2747 760 2759.5 770.0Q2772 780 2773 806L2784 1152L3014 787Q3025 770 3037.0 765.0Q3049 760 3063 760Q3091 760 3101.0 774.0Q3111 788 3099 807L2802 1264Q2795 1275 2780.0 1282.5Q2765 1290 2743 1290Q2721 1290 2712.5 1281.5Q2704 1273 2704 1252L2693 897L2450 1264Q2443 1274 2430.0 1282.0Q2417 1290 2395 1290ZM3159 860Q3135 860 3107.0 854.5Q3079 849 3059 835Q3050 828 3051.0 815.5Q3052 803 3059.5 790.0Q3067 777 3075.0 769.5Q3083 762 3088 765Q3108 776 3131.0 783.5Q3154 791 3177 791Q3196 791 3221.5 784.0Q3247 777 3263 767Q3274 760 3283.0 769.5Q3292 779 3294.0 792.5Q3296 806 3288 814Q3273 828 3251.0 838.5Q3229 849 3205.0 854.5Q3181 860 3159 860ZM3134 1290Q3118 1290 3104.0 1283.0Q3090 1276 3097 1257L3247 792Q3254 772 3263.5 766.0Q3273 760 3292 760Q3323 760 3331.5 769.5Q3340 779 3333 799L3308 878Q3328 849 3349.0 826.0Q3370 803 3392.0 787.5Q3414 772 3434.5 764.0Q3455 756 3475 756Q3494 756 3501.0 768.0Q3508 780 3504.0 796.0Q3500 812 3487.0 824.0Q3474 836 3454 836Q3433 836 3406.5 852.0Q3380 868 3351.5 898.0Q3323 928 3296.0 970.0Q3269 1012 3247 1064L3182 1264Q3178 1277 3167.5 1283.5Q3157 1290 3134 1290ZM3587 864Q3560 864 3539.0 856.5Q3518 849 3499.0 842.5Q3480 836 3455 836Q3436 836 3430.0 824.0Q3424 812 3428.0 796.0Q3432 780 3444.5 768.0Q3457 756 3476 756Q3508 756 3532.0 765.0Q3556 774 3577.5 784.0Q3599 794 3622 794Q3636 794 3645.5 790.5Q3655 787 3664 781Q3676 772 3684.5 779.0Q3693 786 3694.0 799.0Q3695 812 3684 821Q3652 849 3627.0 856.5Q3602 864 3587 864ZM3639 1292Q3602 1292 3577.5 1279.0Q3553 1266 3541.5 1242.5Q3530 1219 3530.0 1189.0Q3530 1159 3542 1123L3650 792Q3657 772 3666.5 766.0Q3676 760 3695 760Q3726 760 3734.5 769.5Q3743 779 3736 799L3628 1132Q3611 1180 3620.0 1198.5Q3629 1217 3662 1217Q3676 1217 3682.0 1228.5Q3688 1240 3685.5 1254.5Q3683 1269 3671.5 1280.5Q3660 1292 3639 1292ZM3757 606Q3737 606 3723.0 593.0Q3709 580 3709 555Q3709 528 3726.5 504.0Q3744 480 3781 480Q3802 480 3816.0 492.5Q3830 505 3830 531Q3830 558 3812.5 582.0Q3795 606 3757 606ZM3638 1292Q3624 1292 3617.5 1280.5Q3611 1269 3613.5 1254.5Q3616 1240 3628.0 1228.5Q3640 1217 3661 1217Q3692 1217 3723.0 1204.0Q3754 1191 3786.0 1165.0Q3818 1139 3851.0 1099.5Q3884 1060 3918 1007Q3927 993 3938.5 994.0Q3950 995 3957.0 1004.5Q3964 1014 3959 1026Q3924 1094 3886.5 1144.0Q3849 1194 3808.5 1227.0Q3768 1260 3725.5 1276.0Q3683 1292 3638 1292ZM4022 1292Q3973 1292 3938.5 1275.0Q3904 1258 3886.0 1227.0Q3868 1196 3867.0 1153.5Q3866 1111 3883 1060L3950 855H3871Q3860 855 3856.0 845.0Q3852 835 3857 815Q3863 795 3873.0 785.0Q3883 775 3893 775H3976L4040 577Q4046 557 4055.5 551.0Q4065 545 4085 545Q4116 545 4124.5 554.5Q4133 564 4126 584L4064 775H4190Q4201 775 4205.5 784.5Q4210 794 4204 815Q4199 834 4189.0 844.5Q4179 855 4168 855H4039L3969 1070Q3957 1106 3957.0 1134.0Q3957 1162 3967.5 1180.5Q3978 1199 3998.0 1208.0Q4018 1217 4046 1217Q4060 1217 4065.5 1228.5Q4071 1240 4069.0 1254.5Q4067 1269 4055.0 1280.5Q4043 1292 4022 1292ZM4025 1292Q4006 1292 4000.0 1280.5Q3994 1269 3998.5 1254.5Q4003 1240 4016.0 1228.5Q4029 1217 4048 1217Q4096 1217 4151.0 1199.0Q4206 1181 4260 1147Q4271 1139 4281.0 1144.5Q4291 1150 4297.0 1162.0Q4303 1174 4302.5 1186.5Q4302 1199 4292 1205Q4243 1236 4195.0 1255.5Q4147 1275 4104.0 1283.5Q4061 1292 4025 1292ZM4263 1152Q4301 1131 4334.0 1105.5Q4367 1080 4393 1053Q4418 1029 4438.5 1002.0Q4459 975 4471.0 947.0Q4483 919 4483 893Q4483 865 4471.0 850.5Q4459 836 4432 836Q4401 836 4377.5 857.5Q4354 879 4337.5 912.0Q4321 945 4313.0 981.5Q4305 1018 4305 1048Q4305 1085 4315.0 1115.5Q4325 1146 4343.0 1168.0Q4361 1190 4384.5 1201.5Q4408 1213 4434 1213Q4460 1213 4484.5 1203.5Q4509 1194 4532.0 1177.0Q4555 1160 4577 1141Q4591 1128 4604.0 1130.5Q4617 1133 4628 1144Q4641 1156 4643.0 1169.5Q4645 1183 4632 1196Q4599 1230 4564.0 1252.0Q4529 1274 4492.5 1283.5Q4456 1293 4418 1293Q4384 1293 4353.0 1281.5Q4322 1270 4297.0 1248.5Q4272 1227 4253.5 1197.0Q4235 1167 4225.5 1130.5Q4216 1094 4216 1053Q4216 1014 4225.0 973.0Q4234 932 4252.5 893.0Q4271 854 4299.0 823.5Q4327 793 4365.0 774.5Q4403 756 4451 756Q4490 756 4517.5 771.5Q4545 787 4559.0 813.5Q4573 840 4573 874Q4573 916 4557.5 956.0Q4542 996 4514.5 1032.5Q4487 1069 4452 1101Q4420 1134 4381.0 1163.0Q4342 1192 4298 1215ZM5002 1275Q4957 1275 4967 1247L5234 427Q5239 413 5252.0 406.5Q5265 400 5287 400H5440Q5529 400 5594.5 422.0Q5660 444 5703.5 482.5Q5747 521 5768.0 571.0Q5789 621 5789 677Q5789 782 5757.5 873.5Q5726 965 5669.5 1038.5Q5613 1112 5537.5 1165.0Q5462 1218 5373.0 1246.5Q5284 1275 5189 1275ZM5073 1190H5189Q5264 1190 5336.5 1167.5Q5409 1145 5473.0 1101.5Q5537 1058 5586.0 995.0Q5635 932 5662.5 852.0Q5690 772 5690 677Q5690 632 5672.0 596.0Q5654 560 5620.5 535.5Q5587 511 5541.0 498.0Q5495 485 5439 485H5303ZM5867 1289Q5845 1289 5836.5 1282.0Q5828 1275 5832 1261L6108 412Q6117 385 6161 385Q6205 385 6196 412L6082 760L6554 399Q6573 385 6585.0 387.5Q6597 390 6609 407Q6622 425 6620.5 435.5Q6619 446 6598 462L6122 821Q6164 903 6205.5 972.5Q6247 1042 6291.5 1104.0Q6336 1166 6387 1229Q6401 1246 6396.5 1258.0Q6392 1270 6372 1285Q6357 1295 6343.5 1292.0Q6330 1289 6322 1279Q6281 1229 6243.5 1175.5Q6206 1122 6172.5 1067.0Q6139 1012 6109.5 956.0Q6080 900 6054 845L5919 1261Q5915 1275 5902.0 1282.0Q5889 1289 5867 1289ZM7094 1294Q7018 1294 6962.5 1273.5Q6907 1253 6875.0 1213.5Q6843 1174 6837.5 1115.0Q6832 1056 6856 980L7037 412Q7042 398 7053.5 391.5Q7065 385 7089 385Q7112 385 7123.0 392.0Q7134 399 7129 415L6942 991Q6917 1070 6930.5 1118.0Q6944 1166 6988.5 1187.5Q7033 1209 7101 1209Q7179 1209 7237.5 1183.5Q7296 1158 7336.0 1109.5Q7376 1061 7397 991L7575 412Q7580 398 7591.5 391.5Q7603 385 7626 385Q7674 385 7665 415L7484 1002Q7455 1097 7399.5 1162.0Q7344 1227 7267.0 1260.5Q7190 1294 7094 1294ZM7750 1292Q7712 1292 7688.0 1279.0Q7664 1266 7652.5 1242.5Q7641 1219 7641.5 1189.0Q7642 1159 7653 1123L7883 417Q7890 397 7899.5 391.0Q7909 385 7928 385Q7960 385 7968.0 394.5Q7976 404 7970 424L7739 1132Q7723 1180 7732.0 1198.5Q7741 1217 7773 1217Q7787 1217 7793.0 1228.5Q7799 1240 7796.5 1254.5Q7794 1269 7782.5 1280.5Q7771 1292 7750 1292ZM7746 1292Q7732 1292 7725.5 1280.5Q7719 1269 7721.5 1254.5Q7724 1240 7736.0 1228.5Q7748 1217 7769 1217Q7795 1217 7821.5 1206.0Q7848 1195 7874.0 1173.5Q7900 1152 7922.0 1122.0Q7944 1092 7961 1055Q7966 1040 7978.5 1040.5Q7991 1041 8000.5 1050.5Q8010 1060 8006 1074Q7988 1125 7960.0 1165.5Q7932 1206 7898.0 1234.0Q7864 1262 7825.0 1277.0Q7786 1292 7746 1292ZM8144 1294Q8082 1294 8039.0 1269.0Q7996 1244 7974.5 1199.5Q7953 1155 7953 1099Q7953 1046 7972.0 986.5Q7991 927 8028.5 874.5Q8066 822 8122.5 789.0Q8179 756 8254 756Q8316 756 8358.5 779.5Q8401 803 8422.5 845.5Q8444 888 8444 944Q8444 984 8432.5 1031.5Q8421 1079 8397.5 1125.5Q8374 1172 8338.0 1210.0Q8302 1248 8253.5 1271.0Q8205 1294 8144 1294ZM8154 1214Q8203 1214 8240.0 1188.0Q8277 1162 8302.0 1121.5Q8327 1081 8340.0 1036.5Q8353 992 8353 954Q8353 915 8340.0 889.0Q8327 863 8303.0 849.5Q8279 836 8246 836Q8196 836 8158.0 861.5Q8120 887 8094.5 927.0Q8069 967 8056.0 1011.0Q8043 1055 8043 1092Q8043 1131 8056.5 1158.5Q8070 1186 8095.0 1200.0Q8120 1214 8154 1214ZM8520 902Q8470 902 8424.0 886.5Q8378 871 8334 844Q8321 836 8319.5 823.0Q8318 810 8324.5 798.0Q8331 786 8341.5 780.5Q8352 775 8361 781Q8386 797 8414.0 809.0Q8442 821 8474.5 827.0Q8507 833 8544 833Q8572 833 8607.5 828.5Q8643 824 8678.0 813.5Q8713 803 8739 789Q8750 782 8759.0 792.0Q8768 802 8768.5 816.0Q8769 830 8757 837Q8686 875 8627.5 888.5Q8569 902 8520 902ZM8745 1294Q8683 1294 8640.0 1269.0Q8597 1244 8575.5 1199.5Q8554 1155 8554 1099Q8554 1046 8573.0 986.5Q8592 927 8629.5 874.5Q8667 822 8723.5 789.0Q8780 756 8855 756Q8917 756 8959.5 779.5Q9002 803 9023.5 845.5Q9045 888 9045 944Q9045 984 9033.5 1031.5Q9022 1079 8998.5 1125.5Q8975 1172 8939.0 1210.0Q8903 1248 8854.5 1271.0Q8806 1294 8745 1294ZM8755 1214Q8804 1214 8841.0 1188.0Q8878 1162 8903.0 1121.5Q8928 1081 8941.0 1036.5Q8954 992 8954 954Q8954 915 8941.0 889.0Q8928 863 8904.0 849.5Q8880 836 8847 836Q8797 836 8759.0 861.5Q8721 887 8695.5 927.0Q8670 967 8657.0 1011.0Q8644 1055 8644 1092Q8644 1131 8657.5 1158.5Q8671 1186 8696.0 1200.0Q8721 1214 8755 1214ZM9117 894Q9075 894 9031.0 882.0Q8987 870 8941 840Q8928 833 8926.5 821.0Q8925 809 8930.5 798.0Q8936 787 8945.0 781.5Q8954 776 8962 781Q8998 805 9040.5 815.0Q9083 825 9129 825Q9158 825 9189.5 818.5Q9221 812 9251.0 799.0Q9281 786 9303 769Q9313 762 9322.0 766.0Q9331 770 9336.0 780.0Q9341 790 9340.5 801.5Q9340 813 9332 820Q9292 849 9254.0 865.5Q9216 882 9181.5 888.0Q9147 894 9117 894ZM9573 1292Q9551 1292 9527.5 1289.5Q9504 1287 9478.0 1285.0Q9452 1283 9420.0 1283.0Q9388 1283 9349 1288L9381 1255Q9412 1247 9443.5 1240.0Q9475 1233 9504.0 1228.0Q9533 1223 9556.5 1220.0Q9580 1217 9596 1217Q9605 1217 9607.5 1228.5Q9610 1240 9606.0 1254.5Q9602 1269 9593.5 1280.5Q9585 1292 9573 1292ZM9053 1665Q9037 1665 9023.0 1658.0Q9009 1651 9016 1632L9287 792Q9294 772 9303.5 766.0Q9313 760 9332 760Q9363 760 9371.5 769.5Q9380 779 9373 799L9355 856Q9387 818 9418.0 796.5Q9449 775 9477.5 765.5Q9506 756 9531 756Q9595 756 9631.5 800.0Q9668 844 9668 920Q9668 966 9655.0 1017.0Q9642 1068 9616.0 1117.0Q9590 1166 9551.5 1205.5Q9513 1245 9462.0 1268.5Q9411 1292 9347 1292Q9315 1292 9284.0 1282.0Q9253 1272 9225 1256L9101 1639Q9097 1652 9086.5 1658.5Q9076 1665 9053 1665ZM9246 1190Q9274 1203 9297.0 1208.5Q9320 1214 9345 1214Q9394 1214 9432.0 1194.5Q9470 1175 9497.5 1143.5Q9525 1112 9542.5 1074.5Q9560 1037 9568.5 999.0Q9577 961 9577 930Q9577 900 9568.5 879.0Q9560 858 9543.5 847.0Q9527 836 9502 836Q9471 836 9438.0 855.5Q9405 875 9372.0 912.5Q9339 950 9307 1004ZM9583 1292Q9564 1292 9558.0 1280.5Q9552 1269 9556.5 1254.5Q9561 1240 9574.0 1228.5Q9587 1217 9606 1217Q9654 1217 9709.0 1199.0Q9764 1181 9818 1147Q9829 1139 9839.0 1144.5Q9849 1150 9855.0 1162.0Q9861 1174 9860.5 1186.5Q9860 1199 9850 1205Q9801 1236 9753.0 1255.5Q9705 1275 9662.0 1283.5Q9619 1292 9583 1292ZM9807 1154Q9841 1137 9871.5 1114.0Q9902 1091 9927 1066Q9957 1041 9980.5 1011.5Q10004 982 10017.5 951.5Q10031 921 10031 893Q10031 865 10019.0 850.5Q10007 836 9980 836Q9966 836 9959.5 824.0Q9953 812 9954.5 796.0Q9956 780 9967.0 768.0Q9978 756 9999 756Q10038 756 10065.5 771.5Q10093 787 10107.0 813.5Q10121 840 10121 874Q10121 918 10102.5 961.5Q10084 1005 10052.0 1045.5Q10020 1086 9979 1122Q9949 1150 9912.5 1174.0Q9876 1198 9838 1218ZM9981 1293Q9936 1293 9901.0 1280.5Q9866 1268 9840.5 1245.0Q9815 1222 9798.0 1191.5Q9781 1161 9773.0 1125.5Q9765 1090 9765 1053Q9765 1012 9775.0 969.5Q9785 927 9803.5 888.5Q9822 850 9850.0 820.0Q9878 790 9915.5 773.0Q9953 756 9999 756Q10010 756 10013.5 768.0Q10017 780 10013.5 796.0Q10010 812 10001.5 824.0Q9993 836 9981 836Q9953 836 9930.0 855.5Q9907 875 9890.0 906.5Q9873 938 9863.5 975.5Q9854 1013 9854 1049Q9854 1080 9861.5 1110.0Q9869 1140 9886.0 1163.5Q9903 1187 9931.0 1201.0Q9959 1215 10000 1215Q10055 1215 10111.0 1185.5Q10167 1156 10219.0 1099.0Q10271 1042 10312 960Q10317 952 10329.5 952.5Q10342 953 10352.0 960.5Q10362 968 10355 984Q10322 1058 10279.0 1115.5Q10236 1173 10186.5 1213.0Q10137 1253 10085.0 1273.0Q10033 1293 9981 1293ZM10329 1291Q10275 1291 10252.5 1266.0Q10230 1241 10231.5 1199.0Q10233 1157 10249 1104L10330 855H10251Q10240 855 10236.0 845.0Q10232 835 10237 815Q10243 795 10253.0 785.0Q10263 775 10274 775H10356L10420 577Q10426 557 10435.5 551.0Q10445 545 10465 545Q10496 545 10504.5 554.5Q10513 564 10506 584L10444 775H10570Q10581 775 10585.5 784.5Q10590 794 10584 815Q10579 834 10569.0 844.5Q10559 855 10548 855H10419L10324 1146Q10313 1181 10318.5 1198.5Q10324 1216 10345 1216Q10375 1216 10399.0 1196.0Q10423 1176 10440 1155Q10446 1146 10456.5 1143.0Q10467 1140 10482 1150Q10499 1160 10500.0 1170.0Q10501 1180 10495 1191Q10483 1211 10460.5 1235.0Q10438 1259 10405.5 1275.0Q10373 1291 10329 1291Z" fill="currentColor" /></svg>