<svg viewBox="0 0 3688 1108" xmlns="http://www.w3.org/2000/svg"><path d="M302 270Q409 270 465.5 317.0Q522 364 522 454Q522 545 465.5 593.0Q409 641 302 641H210V790H330V859H37V790H130V339H37V270ZM301 571Q437 571 437 455Q437 339 301 339H211V571ZM791 415Q858 415 907.5 442.5Q957 470 985.0 521.5Q1013 573 1013 645Q1013 752 952.0 813.0Q891 874 791 874Q727 874 677.5 846.5Q628 819 600.5 767.5Q573 716 573 645Q573 573 600.5 521.5Q628 470 677.5 442.5Q727 415 791 415ZM792 479Q723 479 688.0 522.5Q653 566 653 645Q653 724 688.0 767.0Q723 810 792 810Q863 810 898.0 767.0Q933 724 933 645Q933 566 898.0 522.5Q863 479 792 479ZM1575 876 1442 830Q1381 874 1312 874Q1209 874 1151.5 810.5Q1094 747 1094 635Q1094 531 1151.5 473.0Q1209 415 1312 415Q1339 415 1368.5 420.5Q1398 426 1423 436V305L1328 272L1349 210L1501 262V780L1595 812ZM1313 810Q1338 810 1368.0 799.5Q1398 789 1423 773V504Q1401 493 1370.5 486.0Q1340 479 1313 479Q1251 479 1212.5 521.5Q1174 564 1174 634Q1174 713 1212.5 761.5Q1251 810 1313 810ZM1649 208 1801 260V610H1892L1961 492H1909V430H2119V492H2035L1952 635L2049 797H2135V859H2002L1889 672H1801V797H1846V859H1639V797H1723V303L1628 270ZM2377 415Q2444 415 2493.5 442.5Q2543 470 2571.0 521.5Q2599 573 2599 645Q2599 752 2538.0 813.0Q2477 874 2377 874Q2313 874 2263.5 846.5Q2214 819 2186.5 767.5Q2159 716 2159 645Q2159 573 2186.5 521.5Q2214 470 2263.5 442.5Q2313 415 2377 415ZM2378 479Q2309 479 2274.0 522.5Q2239 566 2239 645Q2239 724 2274.0 767.0Q2309 810 2378 810Q2449 810 2484.0 767.0Q2519 724 2519 645Q2519 566 2484.0 522.5Q2449 479 2378 479ZM2602 430H2812V492H2766L2856 705L2892 790L2928 705L3018 492H2974V430H3174V492H3096L2932 859H2844L2685 492H2602ZM3512 830Q3447 874 3371 874Q3287 874 3243.5 840.0Q3200 806 3199 741Q3197 610 3365 610L3494 611Q3494 544 3469.0 511.5Q3444 479 3393 479Q3369 479 3346.0 482.0Q3323 485 3303 491L3293 546L3229 534L3245 443Q3283 429 3319.5 422.0Q3356 415 3390 415Q3480 415 3526.0 463.5Q3572 512 3572 607V781L3667 812L3647 876ZM3368 673Q3325 673 3302.0 690.0Q3279 707 3279 740Q3279 810 3375 810Q3444 810 3494 772V674Z" fill="currentColor" /></svg>