<svg viewBox="0 0 5815 1200" xmlns="http://www.w3.org/2000/svg"><path d="M155 1000Q98 1000 74.5 977.5Q51 955 51 911Q51 898 52.5 869.5Q54 841 57.0 802.0Q60 763 63.5 717.0Q67 671 71 623Q76 564 79.5 521.5Q83 479 85.0 448.5Q87 418 88.5 397.5Q90 377 90.5 361.5Q91 346 91.5 333.0Q92 320 92 305Q92 297 97.0 293.5Q102 290 107 290Q133 290 164.0 288.5Q195 287 226.0 285.0Q257 283 286.0 281.5Q315 280 337 280Q401 280 447.0 295.5Q493 311 521.5 340.5Q550 370 563.5 412.0Q577 454 577 508Q577 567 561.5 621.5Q546 676 513.0 718.0Q480 760 428.0 785.0Q376 810 304 810Q261 810 231 801L217 985Q216 993 213.0 996.5Q210 1000 201 1000ZM317 430Q304 430 288.0 431.5Q272 433 254 435Q252 477 249.0 537.0Q246 597 241 663Q256 667 270.5 668.5Q285 670 297 670Q332 670 353.5 653.5Q375 637 387.0 613.0Q399 589 403.0 563.0Q407 537 407 518Q407 475 387.5 452.5Q368 430 317 430ZM853 1010Q784 1010 738.5 990.5Q693 971 666.0 937.0Q639 903 628.0 857.5Q617 812 617 760Q617 700 631.5 642.5Q646 585 681.0 540.0Q716 495 773.5 467.5Q831 440 917 440Q1043 440 1097.5 501.5Q1152 563 1152 674Q1152 705 1147.5 742.5Q1143 780 1130.5 817.0Q1118 854 1096.5 889.0Q1075 924 1042.0 951.0Q1009 978 962.5 994.0Q916 1010 853 1010ZM900 573Q862 573 839.5 592.5Q817 612 805.5 639.5Q794 667 790.5 697.5Q787 728 787 749Q787 815 808.0 846.0Q829 877 868 877Q903 877 925.5 855.0Q948 833 960.5 802.0Q973 771 977.5 737.0Q982 703 982 680Q982 630 963.5 601.5Q945 573 900 573ZM1458 1010Q1414 1010 1370.5 999.0Q1327 988 1292.5 961.0Q1258 934 1236.0 889.0Q1214 844 1214 776Q1214 751 1218.0 716.0Q1222 681 1233.5 644.0Q1245 607 1265.5 570.5Q1286 534 1319.0 505.0Q1352 476 1399.0 458.0Q1446 440 1511 440Q1563 440 1599.0 452.0Q1635 464 1657.0 484.5Q1679 505 1689.0 532.0Q1699 559 1699 590Q1699 636 1680.5 668.0Q1662 700 1632.5 721.5Q1603 743 1567.0 755.0Q1531 767 1496.0 773.5Q1461 780 1431.5 781.5Q1402 783 1386 783Q1386 802 1391.5 820.5Q1397 839 1408.0 853.0Q1419 867 1437.0 876.0Q1455 885 1481 885Q1507 885 1521.5 876.5Q1536 868 1545.0 857.5Q1554 847 1560.5 838.5Q1567 830 1578 830Q1583 830 1595.5 832.5Q1608 835 1621.0 843.0Q1634 851 1644.0 865.0Q1654 879 1654 901Q1654 930 1636.0 951.0Q1618 972 1589.5 985.0Q1561 998 1526.0 1004.0Q1491 1010 1458 1010ZM1477 573Q1455 573 1439.5 585.5Q1424 598 1413.5 617.0Q1403 636 1397.5 659.0Q1392 682 1389 703Q1451 702 1489.5 682.0Q1528 662 1528 625Q1528 605 1515.5 589.0Q1503 573 1477 573ZM1974 585Q1971 623 1967.5 660.0Q1964 697 1961.0 730.0Q1958 763 1956.5 789.0Q1955 815 1955 829Q1955 855 1961.0 863.5Q1967 872 1981 872Q1992 872 2000.0 868.0Q2008 864 2015.0 859.0Q2022 854 2027.5 850.0Q2033 846 2040 846Q2047 846 2053.0 854.0Q2059 862 2059 891Q2059 946 2029.0 978.0Q1999 1010 1926 1010Q1854 1010 1819.5 976.5Q1785 943 1785 874Q1785 859 1786.5 838.5Q1788 818 1791.0 785.0Q1794 752 1798.5 704.0Q1803 656 1808 585H1755Q1747 585 1745.5 581.5Q1744 578 1744 571L1747 520Q1748 507 1750.5 494.5Q1753 482 1760.5 472.0Q1768 462 1782.0 456.0Q1796 450 1819 450Q1826 432 1835.0 407.0Q1844 382 1853.0 358.5Q1862 335 1870.5 319.0Q1879 303 1886 303H1915Q1957 303 1973.0 329.0Q1989 355 1989 391Q1989 411 1986 450H2091Q2107 450 2107 464L2103 518Q2101 548 2086.5 566.5Q2072 585 2027 585ZM2391 440Q2476 440 2516.0 473.5Q2556 507 2556 559Q2556 603 2528.5 626.0Q2501 649 2449 649Q2435 649 2430.0 646.0Q2425 643 2425 635Q2425 626 2423.5 614.5Q2422 603 2416.5 592.5Q2411 582 2399.5 575.0Q2388 568 2367 568Q2339 568 2322.0 581.5Q2305 595 2305 615Q2305 636 2322.5 648.5Q2340 661 2366.5 672.0Q2393 683 2424.0 694.5Q2455 706 2481.5 725.0Q2508 744 2525.5 772.5Q2543 801 2543 846Q2543 918 2492.0 964.0Q2441 1010 2339 1010Q2311 1010 2274.5 1005.5Q2238 1001 2205.0 991.5Q2172 982 2149.5 966.0Q2127 950 2127 926Q2127 917 2130.5 904.0Q2134 891 2141.5 879.0Q2149 867 2159.5 858.5Q2170 850 2185 850Q2197 850 2207.0 856.0Q2217 862 2230.5 868.5Q2244 875 2264.0 881.0Q2284 887 2317 887Q2342 887 2361.5 881.0Q2381 875 2381 854Q2381 835 2365.0 823.5Q2349 812 2324.5 802.0Q2300 792 2271.5 780.5Q2243 769 2218.5 750.0Q2194 731 2178.0 701.5Q2162 672 2162 625Q2162 574 2182.5 538.5Q2203 503 2235.5 481.0Q2268 459 2309.0 449.5Q2350 440 2391 440ZM2859 1010Q2815 1010 2771.5 999.0Q2728 988 2693.5 961.0Q2659 934 2637.0 889.0Q2615 844 2615 776Q2615 751 2619.0 716.0Q2623 681 2634.5 644.0Q2646 607 2666.5 570.5Q2687 534 2720.0 505.0Q2753 476 2800.0 458.0Q2847 440 2912 440Q2964 440 3000.0 452.0Q3036 464 3058.0 484.5Q3080 505 3090.0 532.0Q3100 559 3100 590Q3100 636 3081.5 668.0Q3063 700 3033.5 721.5Q3004 743 2968.0 755.0Q2932 767 2897.0 773.5Q2862 780 2832.5 781.5Q2803 783 2787 783Q2787 802 2792.5 820.5Q2798 839 2809.0 853.0Q2820 867 2838.0 876.0Q2856 885 2882 885Q2908 885 2922.5 876.5Q2937 868 2946.0 857.5Q2955 847 2961.5 838.5Q2968 830 2979 830Q2984 830 2996.5 832.5Q3009 835 3022.0 843.0Q3035 851 3045.0 865.0Q3055 879 3055 901Q3055 930 3037.0 951.0Q3019 972 2990.5 985.0Q2962 998 2927.0 1004.0Q2892 1010 2859 1010ZM2878 573Q2856 573 2840.5 585.5Q2825 598 2814.5 617.0Q2804 636 2798.5 659.0Q2793 682 2790 703Q2852 702 2890.5 682.0Q2929 662 2929 625Q2929 605 2916.5 589.0Q2904 573 2878 573ZM3501 912Q3501 890 3504.5 854.5Q3508 819 3511.5 779.5Q3515 740 3518.5 703.0Q3522 666 3522 641Q3522 615 3509.5 594.5Q3497 574 3461 574Q3426 574 3403.0 591.0Q3380 608 3364.5 653.0Q3349 698 3339.0 777.0Q3329 856 3320 980Q3319 992 3315.0 996.0Q3311 1000 3298 1000H3262Q3231 1000 3211.5 993.5Q3192 987 3180.5 975.0Q3169 963 3164.5 945.5Q3160 928 3160 905Q3160 890 3161.5 862.5Q3163 835 3167.0 786.5Q3171 738 3176.5 663.5Q3182 589 3190 479Q3191 457 3195 453Q3198 450 3211 450H3250Q3280 450 3299.5 457.0Q3319 464 3331.0 475.5Q3343 487 3348.0 502.5Q3353 518 3354 534Q3385 481 3425.0 460.5Q3465 440 3525 440Q3567 440 3598.0 449.0Q3629 458 3649.5 479.5Q3670 501 3680.0 535.5Q3690 570 3690 621Q3690 637 3688.0 667.0Q3686 697 3683.0 732.5Q3680 768 3676.5 806.5Q3673 845 3670.0 878.0Q3667 911 3665.0 936.0Q3663 961 3663 969Q3663 991 3658.0 995.5Q3653 1000 3636 1000H3604Q3572 1000 3552.0 994.0Q3532 988 3521.0 977.0Q3510 966 3505.5 949.5Q3501 933 3501 912ZM4358 279Q4431 279 4483.0 299.5Q4535 320 4568.0 359.5Q4601 399 4616.0 455.5Q4631 512 4631 584Q4631 624 4625.5 671.0Q4620 718 4605.5 765.5Q4591 813 4566.0 857.0Q4541 901 4501.5 935.0Q4462 969 4407.0 989.5Q4352 1010 4277 1010Q4194 1010 4139.5 985.0Q4085 960 4052.5 917.5Q4020 875 4006.5 817.0Q3993 759 3993 693Q3993 615 4011.0 540.5Q4029 466 4071.5 408.0Q4114 350 4184.0 314.5Q4254 279 4358 279ZM4337 434Q4302 434 4276.5 446.5Q4251 459 4233.5 480.0Q4216 501 4205.5 527.0Q4195 553 4189.0 580.5Q4183 608 4181.0 633.5Q4179 659 4179 679Q4179 770 4209.5 812.0Q4240 854 4296 854Q4342 854 4371.0 824.5Q4400 795 4416.5 753.5Q4433 712 4439.0 667.5Q4445 623 4445 592Q4445 519 4420.0 476.5Q4395 434 4337 434ZM5046 912Q5046 890 5049.5 854.5Q5053 819 5056.5 779.5Q5060 740 5063.5 703.0Q5067 666 5067 641Q5067 615 5054.5 594.5Q5042 574 5006 574Q4971 574 4948.0 591.0Q4925 608 4909.5 653.0Q4894 698 4884.0 777.0Q4874 856 4865 980Q4864 992 4860.0 996.0Q4856 1000 4843 1000H4807Q4776 1000 4756.5 993.5Q4737 987 4725.5 975.0Q4714 963 4709.5 945.5Q4705 928 4705 905Q4705 890 4706.5 862.5Q4708 835 4712.0 786.5Q4716 738 4721.5 663.5Q4727 589 4735 479Q4736 457 4740 453Q4743 450 4756 450H4795Q4825 450 4844.5 457.0Q4864 464 4876.0 475.5Q4888 487 4893.0 502.5Q4898 518 4899 534Q4930 481 4970.0 460.5Q5010 440 5070 440Q5112 440 5143.0 449.0Q5174 458 5194.5 479.5Q5215 501 5225.0 535.5Q5235 570 5235 621Q5235 637 5233.0 667.0Q5231 697 5228.0 732.5Q5225 768 5221.5 806.5Q5218 845 5215.0 878.0Q5212 911 5210.0 936.0Q5208 961 5208 969Q5208 991 5203.0 995.5Q5198 1000 5181 1000H5149Q5117 1000 5097.0 994.0Q5077 988 5066.0 977.0Q5055 966 5050.5 949.5Q5046 933 5046 912ZM5555 1010Q5511 1010 5467.5 999.0Q5424 988 5389.5 961.0Q5355 934 5333.0 889.0Q5311 844 5311 776Q5311 751 5315.0 716.0Q5319 681 5330.5 644.0Q5342 607 5362.5 570.5Q5383 534 5416.0 505.0Q5449 476 5496.0 458.0Q5543 440 5608 440Q5660 440 5696.0 452.0Q5732 464 5754.0 484.5Q5776 505 5786.0 532.0Q5796 559 5796 590Q5796 636 5777.5 668.0Q5759 700 5729.5 721.5Q5700 743 5664.0 755.0Q5628 767 5593.0 773.5Q5558 780 5528.5 781.5Q5499 783 5483 783Q5483 802 5488.5 820.5Q5494 839 5505.0 853.0Q5516 867 5534.0 876.0Q5552 885 5578 885Q5604 885 5618.5 876.5Q5633 868 5642.0 857.5Q5651 847 5657.5 838.5Q5664 830 5675 830Q5680 830 5692.5 832.5Q5705 835 5718.0 843.0Q5731 851 5741.0 865.0Q5751 879 5751 901Q5751 930 5733.0 951.0Q5715 972 5686.5 985.0Q5658 998 5623.0 1004.0Q5588 1010 5555 1010ZM5574 573Q5552 573 5536.5 585.5Q5521 598 5510.5 617.0Q5500 636 5494.5 659.0Q5489 682 5486 703Q5548 702 5586.5 682.0Q5625 662 5625 625Q5625 605 5612.5 589.0Q5600 573 5574 573Z" fill="currentColor" /></svg>