<svg viewBox="0 0 1843 991" xmlns="http://www.w3.org/2000/svg"><path d="M6 772 0 733Q53 724 64.5 713.0Q76 702 76 671V180Q76 149 64.5 138.0Q53 127 0 118L6 79H285Q391 79 444.0 130.5Q497 182 497.0 276.0Q497 370 427.5 437.0Q358 504 225 504H173V695Q173 719 193 721L294 733L290 772ZM173 451H217Q283 451 332 420Q390 383 390 284Q390 192 342 159Q302 132 255 132H193Q173 132 173 156ZM771.5 781.0Q663 781 605.0 717.0Q547 653 547.0 538.0Q547 423 608.5 353.5Q670 284 778.5 284.0Q887 284 945.0 348.5Q1003 413 1003.0 528.0Q1003 643 941.5 712.0Q880 781 771.5 781.0ZM866 698Q884 678 895.0 634.5Q906 591 906 540Q906 451 870.0 394.0Q834 337 772.0 337.0Q710 337 684 367Q666 387 655.0 430.5Q644 474 644 525Q644 614 680.0 671.0Q716 728 778.0 728.0Q840 728 866 698ZM1075 772 1069 733Q1118 723 1128.5 712.5Q1139 702 1139 676V95Q1139 74 1123.0 64.5Q1107 55 1063 46L1069 14Q1176 0 1218 0L1229 10V700Q1229 712 1234.5 715.5Q1240 719 1249 721L1298 733L1294 772ZM1367 889Q1391 892 1433.5 892.0Q1476 892 1501.0 881.5Q1526 871 1561 772L1395 374Q1387 355 1380.5 350.0Q1374 345 1342 338L1348 299H1554L1558 338L1497 353Q1490 354 1490 361Q1490 362 1494 374L1596 641Q1601 655 1601 672H1609L1715 397Q1721 381 1721.0 370.5Q1721 360 1706.5 353.0Q1692 346 1655 338L1661 299H1839L1843 338Q1799 348 1796 355L1638 747Q1618 797 1606.0 823.5Q1594 850 1573.0 883.0Q1552 916 1529 934Q1472 977 1391 991Q1365 965 1365 909Q1365 903 1367 889Z" fill="currentColor" /></svg>