<svg viewBox="0 0 2607 1355" xmlns="http://www.w3.org/2000/svg"><path d="M40 972 132 957V229L40 215V193H354Q502 193 574.0 256.0Q646 319 646 438Q646 557 574.0 620.0Q502 683 354 683H242V957L334 972V993H40ZM340 659Q525 659 525 458V418Q525 218 340 218H242V659ZM711 973 781 963V505L711 495V475H881V552Q944 466 1023 466Q1061 466 1090.0 485.5Q1119 505 1119 541Q1119 567 1102.0 584.5Q1085 602 1057 602Q1025 602 1005 577Q1016 563 1016 547Q1016 530 1004.5 519.5Q993 509 974 509Q953 509 931.0 528.5Q909 548 881 589V963L961 973V993H711ZM1172 870Q1172 776 1251.0 736.5Q1330 697 1434 697H1501V620Q1501 568 1489.5 539.5Q1478 511 1454.0 499.5Q1430 488 1389 488Q1342 488 1319.0 506.5Q1296 525 1296 556Q1296 585 1324 594Q1324 619 1305.0 638.0Q1286 657 1260 657Q1232 657 1215.0 641.5Q1198 626 1198 594Q1198 536 1256.0 501.0Q1314 466 1401 466Q1601 466 1601 640V926Q1601 948 1610.5 959.5Q1620 971 1638 971Q1655 971 1665.0 959.5Q1675 948 1675 928H1696Q1696 963 1673.5 983.0Q1651 1003 1611 1003Q1565 1003 1533.5 976.5Q1502 950 1501 894Q1477 945 1427.5 974.0Q1378 1003 1318 1003Q1254 1003 1213.0 969.5Q1172 936 1172 870ZM1501 823V719H1434Q1352 719 1311.5 755.5Q1271 792 1271 858Q1271 913 1297.0 936.0Q1323 959 1373 959Q1400 959 1428.5 943.0Q1457 927 1477.0 896.5Q1497 866 1501 823ZM1782 865V505L1711 495V475H1782V392L1882 367V475H2012V495L1882 505V863Q1882 969 1958 969Q1974 969 1988.5 964.0Q2003 959 2011.5 954.0Q2020 949 2022 947L2035 963Q1990 1003 1927 1003Q1861 1003 1821.5 970.0Q1782 937 1782 865ZM2086 870Q2086 776 2165.0 736.5Q2244 697 2348 697H2415V620Q2415 568 2403.5 539.5Q2392 511 2368.0 499.5Q2344 488 2303 488Q2256 488 2233.0 506.5Q2210 525 2210 556Q2210 585 2238 594Q2238 619 2219.0 638.0Q2200 657 2174 657Q2146 657 2129.0 641.5Q2112 626 2112 594Q2112 536 2170.0 501.0Q2228 466 2315 466Q2515 466 2515 640V926Q2515 948 2524.5 959.5Q2534 971 2552 971Q2569 971 2579.0 959.5Q2589 948 2589 928H2610Q2610 963 2587.5 983.0Q2565 1003 2525 1003Q2479 1003 2447.5 976.5Q2416 950 2415 894Q2391 945 2341.5 974.0Q2292 1003 2232 1003Q2168 1003 2127.0 969.5Q2086 936 2086 870ZM2415 823V719H2348Q2266 719 2225.5 755.5Q2185 792 2185 858Q2185 913 2211.0 936.0Q2237 959 2287 959Q2314 959 2342.5 943.0Q2371 927 2391.0 896.5Q2411 866 2415 823Z" fill="currentColor" /></svg>