<svg viewBox="0 0 13875 875" xmlns="http://www.w3.org/2000/svg"><path d="M0 875V0H750V125H875V500H750V625H250V875ZM250 500H625V125H250ZM1375 375H1500V500H1375V875H1125V250H1375ZM1875 250V375H1500V250ZM2125 875V750H2000V375H2125V250H2750V375H2875V625H2250V750H2750V875ZM2250 500H2625V375H2250ZM3000 875V750H3625V625H3125V500H3000V375H3125V250H3750V375H3250V500H3750V625H3875V750H3750V875ZM4000 875V750H4625V625H4125V500H4000V375H4125V250H4750V375H4250V500H4750V625H4875V750H4750V875ZM6125 875V750H6000V625H6250V750H6625V500H6125V375H6000V125H6125V0H6750V125H6875V250H6625V125H6250V375H6750V500H6875V750H6750V875ZM7375 875V375H7125V250H7375V0H7625V250H7875V375H7625V875ZM8125 875V750H8000V625H8125V500H8625V375H8125V250H8750V375H8875V875ZM8250 750H8625V625H8250ZM9375 375H9500V500H9375V875H9125V250H9375ZM9875 250V375H9500V250ZM10375 875V375H10125V250H10375V0H10625V250H10875V375H10625V875ZM12000 875V625H12125V500H12250V375H12500V250H12625V125H12250V250H12000V125H12125V0H12750V125H12875V375H12750V500H12625V625H12375V750H12875V875ZM13000 875V0H13750V125H13875V500H13750V625H13250V875ZM13250 500H13625V125H13250Z" /></svg>