<svg viewBox="0 0 10618 1622" xmlns="http://www.w3.org/2000/svg"><path d="M196 1602H0V137H400Q516 137 615.5 166.5Q715 196 788.5 253.0Q862 310 904.0 394.5Q946 479 946 590Q946 669 925.0 736.5Q904 804 866.5 859.0Q829 914 779.0 956.5Q729 999 671.0 1028.0Q613 1057 550.0 1072.0Q487 1087 424 1087Q412 1087 398.0 1086.5Q384 1086 364 1083L378 933Q396 936 409.0 936.5Q422 937 435 937Q499 937 555.5 917.5Q612 898 654.5 858.0Q697 818 721.5 757.5Q746 697 746 614Q746 529 719.5 468.0Q693 407 643.5 368.0Q594 329 522.5 310.5Q451 292 362 292H196ZM1219 542H1367L1397 860Q1410 835 1424.5 808.5Q1439 782 1453.5 757.0Q1468 732 1482.0 710.0Q1496 688 1507 672Q1529 641 1556.5 613.5Q1584 586 1616.0 565.5Q1648 545 1684.0 533.5Q1720 522 1761 522Q1790 522 1816.0 528.5Q1842 535 1859 550L1839 728Q1821 723 1803.5 721.5Q1786 720 1769 720Q1698 720 1645.5 743.0Q1593 766 1551.5 805.5Q1510 845 1476.5 898.0Q1443 951 1409 1012V1602H1219ZM2484 1622Q2366 1622 2274.0 1580.0Q2182 1538 2118.5 1467.0Q2055 1396 2021.5 1301.5Q1988 1207 1988 1102Q1988 982 2030.5 876.5Q2073 771 2148.5 692.0Q2224 613 2328.0 567.5Q2432 522 2554 522Q2673 522 2766.0 564.5Q2859 607 2922.5 679.0Q2986 751 3019.0 845.5Q3052 940 3052 1044Q3052 1165 3009.0 1270.5Q2966 1376 2890.0 1454.0Q2814 1532 2710.0 1577.0Q2606 1622 2484 1622ZM2526 1470Q2599 1470 2658.5 1440.5Q2718 1411 2760.5 1360.0Q2803 1309 2826.5 1239.5Q2850 1170 2850 1090Q2850 1011 2827.0 936.5Q2804 862 2760.5 803.5Q2717 745 2654.0 709.5Q2591 674 2512 674Q2439 674 2379.5 703.5Q2320 733 2277.5 784.5Q2235 836 2211.5 906.0Q2188 976 2188 1056Q2188 1135 2211.0 1209.5Q2234 1284 2277.5 1342.0Q2321 1400 2383.5 1435.0Q2446 1470 2526 1470ZM3262 1526 3740 834 3838 706V686L3648 694H3285L3325 542H4076V618L3604 1296L3496 1438V1458L3672 1450H4106L4066 1602H3262ZM4964 1444Q4939 1465 4903.5 1495.5Q4868 1526 4823.5 1554.0Q4779 1582 4726.5 1602.0Q4674 1622 4615 1622Q4562 1622 4511.5 1603.5Q4461 1585 4422.0 1548.5Q4383 1512 4359.5 1458.0Q4336 1404 4336 1334Q4336 1291 4346.5 1247.0Q4357 1203 4382.0 1162.5Q4407 1122 4447.5 1086.5Q4488 1051 4547.5 1024.5Q4607 998 4688.0 983.0Q4769 968 4874 968H4964V876Q4964 830 4948.0 793.0Q4932 756 4903.5 729.5Q4875 703 4835.5 688.5Q4796 674 4748 674Q4712 674 4671.5 682.0Q4631 690 4590.5 705.0Q4550 720 4513.0 740.0Q4476 760 4448 784L4430 774L4390 628Q4448 596 4502.0 575.5Q4556 555 4605.5 543.0Q4655 531 4700.0 526.5Q4745 522 4786 522Q4973 522 5063.5 599.5Q5154 677 5154 832V1354Q5154 1367 5156.0 1385.5Q5158 1404 5165.5 1421.0Q5173 1438 5187.5 1450.0Q5202 1462 5227 1462Q5241 1462 5264.0 1457.5Q5287 1453 5310 1442V1548Q5262 1581 5213.5 1601.5Q5165 1622 5120 1622Q5079 1622 5052.5 1605.5Q5026 1589 5008.5 1563.0Q4991 1537 4981.0 1505.5Q4971 1474 4964 1444ZM4964 1084H4888Q4771 1084 4701.5 1100.5Q4632 1117 4595.5 1144.5Q4559 1172 4547.5 1208.0Q4536 1244 4536 1283Q4536 1325 4548.0 1358.0Q4560 1391 4581.5 1414.5Q4603 1438 4633.0 1450.0Q4663 1462 4698 1462Q4725 1462 4753.5 1455.5Q4782 1449 4814.5 1432.5Q4847 1416 4883.5 1388.0Q4920 1360 4964 1316ZM6035 1602V137H6231V1447H6837L6807 1602ZM7092 542H7282V1602H7092ZM7188 312Q7163 312 7141.0 303.0Q7119 294 7103.0 278.0Q7087 262 7078.0 240.5Q7069 219 7069 193Q7069 167 7079.0 144.0Q7089 121 7105.5 104.0Q7122 87 7144.5 77.5Q7167 68 7192 68Q7216 68 7237.5 77.5Q7259 87 7275.0 104.0Q7291 121 7300.0 143.5Q7309 166 7309 191Q7309 218 7299.0 240.5Q7289 263 7272.5 278.5Q7256 294 7234.0 303.0Q7212 312 7188 312ZM7637 0H7827V714Q7873 672 7918.0 637.0Q7963 602 8010.5 576.5Q8058 551 8108.0 536.5Q8158 522 8214 522Q8312 522 8389.5 564.5Q8467 607 8520.5 678.0Q8574 749 8602.5 841.5Q8631 934 8631 1034Q8631 1156 8589.0 1263.0Q8547 1370 8466.0 1449.5Q8385 1529 8267.5 1575.5Q8150 1622 8000 1622Q7921 1622 7827.5 1607.0Q7734 1592 7637 1556ZM7827 1418Q7887 1445 7947.5 1457.5Q8008 1470 8061 1470Q8153 1470 8222.5 1437.0Q8292 1404 8338.5 1348.5Q8385 1293 8408.0 1221.0Q8431 1149 8431 1070Q8431 997 8411.5 927.5Q8392 858 8354.0 803.5Q8316 749 8261.0 715.5Q8206 682 8134 682Q8070 682 7993.5 716.0Q7917 750 7827 840ZM8917 542H9065L9095 860Q9108 835 9122.5 808.5Q9137 782 9151.5 757.0Q9166 732 9180.0 710.0Q9194 688 9205 672Q9227 641 9254.5 613.5Q9282 586 9314.0 565.5Q9346 545 9382.0 533.5Q9418 522 9459 522Q9488 522 9514.0 528.5Q9540 535 9557 550L9537 728Q9519 723 9501.5 721.5Q9484 720 9467 720Q9396 720 9343.5 743.0Q9291 766 9249.5 805.5Q9208 845 9174.5 898.0Q9141 951 9107 1012V1602H8917ZM10588 1512Q10550 1539 10500.5 1559.5Q10451 1580 10398.0 1594.0Q10345 1608 10291.5 1615.0Q10238 1622 10192 1622Q10090 1622 9998.0 1588.0Q9906 1554 9837.0 1488.0Q9768 1422 9727.0 1324.5Q9686 1227 9686 1100Q9686 969 9729.5 862.0Q9773 755 9846.0 679.5Q9919 604 10014.5 563.0Q10110 522 10215 522Q10300 522 10373.5 550.5Q10447 579 10501.5 636.0Q10556 693 10587.0 778.5Q10618 864 10618 978Q10618 1001 10616.0 1033.0Q10614 1065 10608 1100H9884Q9884 1186 9914.5 1253.5Q9945 1321 10000.5 1367.5Q10056 1414 10133.0 1438.0Q10210 1462 10303 1462Q10326 1462 10359.0 1460.0Q10392 1458 10430.0 1452.0Q10468 1446 10509.0 1434.5Q10550 1423 10588 1404ZM10438 982Q10438 907 10417.0 849.5Q10396 792 10360.0 753.0Q10324 714 10276.5 694.0Q10229 674 10175 674Q10115 674 10062.0 698.5Q10009 723 9969.5 765.0Q9930 807 9907.0 863.0Q9884 919 9884 982Z" /></svg>