<svg viewBox="0 0 8172 1325" xmlns="http://www.w3.org/2000/svg"><path d="M32 395V339H136Q181 339 233.5 335.0Q286 331 335 331Q390 331 443.0 341.5Q496 352 537.0 377.0Q578 402 603.5 443.5Q629 485 629 547Q629 606 603.0 648.5Q577 691 534.5 718.0Q492 745 436.5 758.0Q381 771 322 771Q316 771 304.0 771.0Q292 771 278.5 770.5Q265 770 253.0 769.0Q241 768 235 767V983H335V1039H32V983H123V395ZM235 710Q240 712 250.5 712.5Q261 713 273.0 714.0Q285 715 296.5 715.0Q308 715 314 715Q353 715 387.5 705.5Q422 696 448.0 676.0Q474 656 489.0 624.0Q504 592 504 547Q504 465 452.5 426.0Q401 387 312 387Q285 387 267.0 388.5Q249 390 235 393ZM1175 1039H857V983H960V395H781L761 417V546H689V339H1343V546H1271V417L1251 395H1072V983H1175ZM1765 941 1783 965Q1801 978 1832.5 986.5Q1864 995 1902 995Q1938 995 1968.5 987.5Q1999 980 2022.0 965.0Q2045 950 2058.0 927.0Q2071 904 2071 872Q2071 831 2043.5 804.0Q2016 777 1975.0 756.0Q1934 735 1886.0 715.0Q1838 695 1797.0 668.0Q1756 641 1728.5 603.0Q1701 565 1701 507Q1701 422 1765.5 374.5Q1830 327 1940 327Q2009 327 2059.0 336.0Q2109 345 2144 360V532H2080V424L2064 399Q2045 391 2009.0 387.0Q1973 383 1938 383Q1878 383 1844.0 410.5Q1810 438 1810 488Q1810 529 1837.5 556.5Q1865 584 1906.0 606.0Q1947 628 1995.0 648.5Q2043 669 2084.0 695.5Q2125 722 2152.5 759.0Q2180 796 2180 851Q2180 948 2105.0 999.5Q2030 1051 1900 1051Q1829 1051 1777.0 1036.0Q1725 1021 1701 1004V822H1765ZM2734 970Q2708 1007 2660.5 1028.5Q2613 1050 2550 1050Q2484 1050 2433.5 1030.5Q2383 1011 2349.0 975.5Q2315 940 2297.5 889.5Q2280 839 2280 777Q2280 643 2347.0 573.5Q2414 504 2535 504Q2575 504 2613.5 514.0Q2652 524 2682.0 547.0Q2712 570 2730.5 608.0Q2749 646 2749 702Q2749 719 2747.0 738.0Q2745 757 2741 778H2393Q2393 822 2404.5 858.0Q2416 894 2439.5 920.0Q2463 946 2498.0 960.5Q2533 975 2581 975Q2620 975 2653.5 962.0Q2687 949 2707 932ZM2531 551Q2500 551 2476.5 560.0Q2453 569 2436.0 590.0Q2419 611 2409.0 645.5Q2399 680 2396 731H2637Q2638 722 2638.5 712.5Q2639 703 2639 695Q2639 629 2612.5 590.0Q2586 551 2531 551ZM3085 604Q3062 616 3047.0 632.0Q3032 648 3015 678V989H3103V1039H2836V989H2910V564H2836V514H3015V615H3019Q3036 582 3059.0 557.5Q3082 533 3111 514H3207V604ZM3532 1039H3279V989H3353V564H3279V514H3458V989H3532ZM3331 352Q3331 323 3351.5 306.0Q3372 289 3404 289Q3438 289 3457.5 306.0Q3477 323 3477 352Q3477 381 3457.5 398.0Q3438 415 3404 415Q3372 415 3351.5 398.0Q3331 381 3331 352ZM3920 289Q3955 289 3982.5 295.0Q4010 301 4024 306V403H3928V339Q3895 339 3870.5 345.0Q3846 351 3830.0 368.0Q3814 385 3806.0 414.5Q3798 444 3798 492V514H3926V578H3798V989H3905V1039H3619V989H3693V578H3608V514H3693V498Q3693 397 3753.5 343.0Q3814 289 3920 289ZM4801 855H4865V1012Q4834 1029 4783.0 1040.0Q4732 1051 4682 1051Q4590 1051 4517.0 1030.0Q4444 1009 4393.5 964.5Q4343 920 4316.0 852.0Q4289 784 4289 689Q4289 591 4319.0 522.5Q4349 454 4400.0 410.5Q4451 367 4518.0 347.0Q4585 327 4659 327Q4695 327 4724.0 329.5Q4753 332 4776.5 337.0Q4800 342 4820.0 349.0Q4840 356 4859 364V535H4795V430L4781 410Q4770 405 4746.5 398.0Q4723 391 4671 391Q4617 391 4570.0 408.0Q4523 425 4488.5 461.0Q4454 497 4434.0 553.5Q4414 610 4414 689Q4414 832 4486.5 909.5Q4559 987 4690 987Q4726 987 4750.5 981.5Q4775 976 4787 967L4801 948ZM5394 900Q5394 923 5395.0 946.5Q5396 970 5398 989H5464V1039H5307L5297 944H5292Q5287 964 5273.5 983.0Q5260 1002 5239.5 1017.0Q5219 1032 5191.0 1041.0Q5163 1050 5129 1050Q5095 1050 5066.5 1040.0Q5038 1030 5017.0 1012.0Q4996 994 4984.5 968.5Q4973 943 4973 911Q4973 862 4993.5 830.0Q5014 798 5054.0 779.5Q5094 761 5154.0 753.0Q5214 745 5294 744Q5296 728 5296.0 713.5Q5296 699 5296 685Q5296 623 5275.0 590.5Q5254 558 5200 558Q5180 558 5157.0 560.0Q5134 562 5115 572V664H5025V553Q5061 534 5110.0 519.0Q5159 504 5225 504Q5282 504 5316.5 518.5Q5351 533 5369.5 556.5Q5388 580 5393.5 609.5Q5399 639 5399 668Q5399 731 5396.5 788.5Q5394 846 5394 900ZM5175 983Q5199 983 5218.0 975.5Q5237 968 5251.5 956.5Q5266 945 5276.5 931.0Q5287 917 5294 904V785Q5229 785 5188.5 793.5Q5148 802 5125.0 816.0Q5102 830 5093.5 849.5Q5085 869 5085 891Q5085 936 5109.0 959.5Q5133 983 5175 983ZM5786 1239H5533V1189H5607V564H5533V514H5712V619H5713Q5735 566 5775.5 535.0Q5816 504 5882 504Q5981 504 6035.5 565.0Q6090 626 6090 765Q6090 831 6071.5 884.0Q6053 937 6018.5 974.0Q5984 1011 5935.5 1030.5Q5887 1050 5827 1050Q5807 1050 5791.5 1049.0Q5776 1048 5763.0 1046.0Q5750 1044 5737.5 1040.0Q5725 1036 5712 1031V1189H5786ZM5843 571Q5789 571 5757.5 601.5Q5726 632 5712 688V981Q5732 994 5756.5 998.5Q5781 1003 5822 1003Q5859 1003 5888.0 985.5Q5917 968 5937.0 936.5Q5957 905 5967.5 861.5Q5978 818 5978 765Q5978 722 5971.0 686.5Q5964 651 5948.5 625.5Q5933 600 5907.0 585.5Q5881 571 5843 571ZM6140 514H6229V389H6334V514H6500V578H6334V870Q6334 933 6350.0 959.0Q6366 985 6402 985Q6433 985 6455.5 974.0Q6478 963 6497 950L6522 989Q6513 998 6497.5 1008.5Q6482 1019 6462.0 1028.0Q6442 1037 6417.5 1043.0Q6393 1049 6367 1049Q6300 1049 6264.5 1014.5Q6229 980 6229 900V578H6140ZM6839 1039H6586V989H6660V564H6586V514H6765V989H6839ZM6638 352Q6638 323 6658.5 306.0Q6679 289 6711 289Q6745 289 6764.5 306.0Q6784 323 6784 352Q6784 381 6764.5 398.0Q6745 415 6711 415Q6679 415 6658.5 398.0Q6638 381 6638 352ZM6925 777Q6925 711 6944.0 660.0Q6963 609 6997.5 574.5Q7032 540 7081.5 522.0Q7131 504 7191 504Q7261 504 7311.5 523.5Q7362 543 7394.0 578.5Q7426 614 7441.5 664.5Q7457 715 7457 777Q7457 843 7438.5 893.5Q7420 944 7385.5 978.5Q7351 1013 7301.5 1031.0Q7252 1049 7191 1049Q7123 1049 7073.0 1029.5Q7023 1010 6990.0 974.5Q6957 939 6941.0 889.0Q6925 839 6925 777ZM7038 777Q7038 825 7047.0 866.0Q7056 907 7076.5 937.0Q7097 967 7129.5 984.5Q7162 1002 7209 1002Q7268 1002 7306.0 948.0Q7344 894 7344 777Q7344 729 7335.0 687.5Q7326 646 7306.5 615.5Q7287 585 7256.5 568.0Q7226 551 7182 551Q7116 551 7077.0 605.0Q7038 659 7038 777ZM8153 1039H7908V989H7974V738Q7974 659 7950.0 615.0Q7926 571 7862 571Q7834 571 7810.5 580.0Q7787 589 7768.5 604.0Q7750 619 7736.5 639.0Q7723 659 7716 681V989H7782V1039H7537V989H7611V564H7537V514H7716V618H7717Q7740 570 7784.5 537.0Q7829 504 7892 504Q7937 504 7972.0 513.5Q8007 523 8030.5 548.0Q8054 573 8066.5 615.0Q8079 657 8079 722V989H8153Z" fill="currentColor" /></svg>