<svg viewBox="0 0 1297 810" xmlns="http://www.w3.org/2000/svg"><path d="M200 470V340Q185 366 157.5 373.0Q130 380 100 380Q59 380 29.5 402.5Q0 425 0 470Q0 507 29.5 533.5Q59 560 100 560Q110 560 120 561V810L200 790V710V600Q200 600 200 600V470ZM100 450Q108 450 114.0 456.0Q120 462 120.0 470.0Q120 478 114.0 484.0Q108 490 100 490Q92 490 86.0 484.0Q80 478 80.0 470.0Q80 462 86.0 456.0Q92 450 100 450ZM360 560H440V470V340Q425 366 397.5 373.0Q370 380 340 380Q299 380 269.5 406.0Q240 432 240 470Q240 515 269.5 537.5Q299 560 340 560Q351 560 360 559ZM340 490Q332 490 326.0 484.0Q320 478 320.0 470.0Q320 462 326.0 456.0Q332 450 340 450Q348 450 354 456Q360 462 360 470Q360 478 354 484Q348 490 340 490ZM560 560V470Q560 462 566.0 456.0Q572 450 580.0 450.0Q588 450 594.0 456.0Q600 462 600 470V580L680 560V470Q680 432 650.5 406.0Q621 380 580 380Q570 380 560 379V0L480 20V580ZM800 480V360L720 380V480Q720 517 743.5 538.5Q767 560 797 560Q820 560 842.0 547.5Q864 535 880 510Q864 517 847 517Q829 517 814.5 508.0Q800 499 800 480ZM800 321V301L720 322V342ZM1097 412Q1083 398 1063.0 389.0Q1043 380 1020 380Q990 380 962.5 373.0Q935 366 920 340V580L1000 560V470Q1000 462 1006.0 456.0Q1012 450 1020 450Q1032 450 1037 460ZM1217 480V360L1137 380V480Q1137 517 1160.5 538.5Q1184 560 1214 560Q1237 560 1259.0 547.5Q1281 535 1297 510Q1281 517 1264 517Q1246 517 1231.5 508.0Q1217 499 1217 480ZM1217 321V301L1137 322V342Z" /></svg>