<svg viewBox="0 0 11564 3140" xmlns="http://www.w3.org/2000/svg"><path d="M1864 2435Q1786 2479 1727.0 2503.0Q1668 2527 1627 2538Q1579 2551 1546 2554Q1484 2554 1406.0 2528.5Q1328 2503 1247.5 2466.5Q1167 2430 1090.5 2389.0Q1014 2348 954 2316Q883 2339 814.5 2351.5Q746 2364 686 2364Q625 2364 556.5 2345.5Q488 2327 420.5 2290.5Q353 2254 291.0 2199.5Q229 2145 181.5 2073.5Q134 2002 106.0 1913.5Q78 1825 78 1720Q78 1593 104.0 1490.5Q130 1388 174.5 1305.5Q219 1223 277.5 1160.5Q336 1098 401.5 1051.5Q467 1005 535.0 974.0Q603 943 666.0 924.0Q729 905 783.0 897.0Q837 889 874 889Q945 889 1020.0 904.0Q1095 919 1166.5 952.0Q1238 985 1302.0 1037.5Q1366 1090 1414.0 1165.0Q1462 1240 1490.0 1339.5Q1518 1439 1518 1565Q1518 1682 1489.5 1781.0Q1461 1880 1412.5 1961.0Q1364 2042 1298.5 2106.0Q1233 2170 1159 2218Q1226 2261 1292.5 2303.5Q1359 2346 1426.5 2380.0Q1494 2414 1564.0 2435.0Q1634 2456 1708 2456Q1742 2456 1781.0 2451.0Q1820 2446 1864 2435ZM1335 1626Q1335 1460 1288.0 1341.5Q1241 1223 1161.5 1147.0Q1082 1071 976.0 1035.5Q870 1000 752 1000Q684 1000 620.0 1012.0Q556 1024 499.5 1052.0Q443 1080 396.5 1126.5Q350 1173 316.5 1242.5Q283 1312 264.5 1407.0Q246 1502 246 1626Q246 1737 273.5 1826.5Q301 1916 347.5 1985.5Q394 2055 456.0 2105.0Q518 2155 587.5 2187.5Q657 2220 729.5 2235.5Q802 2251 870 2251Q959 2251 1043.0 2215.5Q1127 2180 1192.0 2104.5Q1257 2029 1296.0 1910.5Q1335 1792 1335 1626ZM2775 2083Q2727 2125 2696.0 2153.5Q2665 2182 2645 2199Q2622 2219 2609 2232Q2594 2247 2568.5 2269.5Q2543 2292 2513.5 2313.0Q2484 2334 2453.5 2348.5Q2423 2363 2398 2361Q2357 2359 2338.5 2288.5Q2320 2218 2320 2097V2001Q2285 2048 2253.5 2085.5Q2222 2123 2198 2149Q2170 2180 2146 2204Q2096 2253 2053.0 2285.5Q2010 2318 1974.0 2336.0Q1938 2354 1910.0 2359.5Q1882 2365 1861 2361Q1841 2357 1824.0 2342.0Q1807 2327 1795.0 2295.0Q1783 2263 1776.5 2211.5Q1770 2160 1771 2083Q1772 2006 1775.5 1929.5Q1779 1853 1782.5 1784.0Q1786 1715 1790.5 1657.5Q1795 1600 1798 1561Q1801 1511 1787.5 1480.5Q1774 1450 1740 1450Q1720 1450 1695.0 1461.5Q1670 1473 1638 1499Q1662 1476 1694.0 1443.5Q1726 1411 1761.5 1381.0Q1797 1351 1833.0 1330.0Q1869 1309 1900 1309Q1924 1309 1936.5 1321.5Q1949 1334 1954.5 1352.0Q1960 1370 1960.5 1390.5Q1961 1411 1961 1426Q1961 1498 1956.0 1568.5Q1951 1639 1945.0 1708.5Q1939 1778 1934.0 1847.0Q1929 1916 1929 1985Q1929 2033 1933.5 2077.5Q1938 2122 1950.0 2155.0Q1962 2188 1982.5 2206.5Q2003 2225 2035 2222Q2077 2218 2118.5 2187.0Q2160 2156 2197.0 2106.5Q2234 2057 2264.0 1994.0Q2294 1931 2312 1864Q2314 1856 2317 1845Q2319 1836 2322.5 1825.0Q2326 1814 2330 1800Q2336 1703 2346.5 1609.0Q2357 1515 2371 1421L2566 1282Q2529 1465 2507.5 1633.0Q2486 1801 2486 1968Q2486 2047 2493.5 2096.0Q2501 2145 2514.5 2171.0Q2528 2197 2547.0 2203.0Q2566 2209 2588 2202Q2608 2193 2635 2168Q2658 2147 2693.0 2107.0Q2728 2067 2775 1999ZM1638 1499 1632 1503ZM3284 2030 3262 2112Q3245 2129 3220.5 2154.5Q3196 2180 3166.5 2208.5Q3137 2237 3105.0 2265.0Q3073 2293 3042.0 2315.0Q3011 2337 2982.5 2349.5Q2954 2362 2932 2359Q2898 2354 2883.5 2309.5Q2869 2265 2869 2165Q2869 2147 2870.5 2106.5Q2872 2066 2874.5 2012.0Q2877 1958 2880.5 1893.5Q2884 1829 2888.0 1763.5Q2892 1698 2896.5 1634.5Q2901 1571 2906 1518Q2909 1483 2892.0 1467.5Q2875 1452 2850 1452Q2829 1452 2806.0 1462.0Q2783 1472 2764 1489Q2804 1450 2835.0 1423.5Q2866 1397 2888 1380Q2914 1361 2932 1348Q2957 1333 2980.5 1332.5Q3004 1332 3022.5 1344.0Q3041 1356 3051.5 1379.0Q3062 1402 3061 1434Q3060 1456 3056.5 1504.5Q3053 1553 3048.5 1615.0Q3044 1677 3038.5 1746.0Q3033 1815 3028.5 1879.0Q3024 1943 3020.5 1995.0Q3017 2047 3016 2075Q3014 2132 3028.5 2167.0Q3043 2202 3075 2202Q3099 2202 3130.5 2181.0Q3162 2160 3193.0 2132.0Q3224 2104 3248.5 2075.0Q3273 2046 3284 2030ZM3114 555Q3116 604 3111.5 642.5Q3107 681 3101 708Q3094 740 3084 764Q3072 788 3047 816Q3026 840 2989.5 871.5Q2953 903 2895 938Q2914 900 2925.0 857.5Q2936 815 2942 779Q2949 737 2951 696ZM3599 1356Q3606 1374 3608.0 1409.0Q3610 1444 3610 1489Q3610 1521 3609.0 1557.0Q3608 1593 3606 1630Q3635 1588 3669.0 1543.5Q3703 1499 3740.5 1458.5Q3778 1418 3819.0 1384.0Q3860 1350 3903.5 1328.5Q3947 1307 3992.5 1300.5Q4038 1294 4085 1309Q4111 1317 4127.5 1333.0Q4144 1349 4154.0 1372.5Q4164 1396 4167.5 1426.0Q4171 1456 4171 1491Q4171 1569 4165.0 1645.0Q4159 1721 4151.5 1795.5Q4144 1870 4138.0 1944.0Q4132 2018 4132 2091Q4132 2141 4140.5 2170.0Q4149 2199 4171 2204Q4193 2203 4220 2185Q4243 2171 4275.0 2139.0Q4307 2107 4345 2048L4337 2124Q4310 2154 4274.5 2196.0Q4239 2238 4200.5 2275.5Q4162 2313 4122.5 2338.0Q4083 2363 4048 2359Q4010 2354 3986.0 2315.5Q3962 2277 3962 2194Q3962 2153 3965.0 2097.5Q3968 2042 3973.0 1981.0Q3978 1920 3983.5 1857.0Q3989 1794 3994.5 1737.0Q4000 1680 4004.5 1632.5Q4009 1585 4011 1555Q4013 1525 4005.5 1500.5Q3998 1476 3982.5 1458.0Q3967 1440 3946.0 1430.5Q3925 1421 3900 1421Q3873 1421 3843.0 1434.5Q3813 1448 3782 1477Q3767 1492 3745.5 1518.5Q3724 1545 3699.0 1587.5Q3674 1630 3646.5 1689.0Q3619 1748 3593 1827Q3591 1850 3590.0 1872.0Q3589 1894 3589 1913Q3587 1961 3583 2015Q3580 2061 3576.0 2119.0Q3572 2177 3567 2237L3409 2376Q3420 2133 3428.5 1974.5Q3437 1816 3442 1724Q3448 1616 3452 1559Q3455 1492 3434.0 1464.0Q3413 1436 3382 1436Q3358 1436 3330.5 1451.0Q3303 1466 3278 1489Q3303 1461 3333.5 1429.0Q3364 1397 3398.0 1370.0Q3432 1343 3467.5 1325.0Q3503 1307 3538 1307Q3560 1307 3575.5 1318.5Q3591 1330 3599 1356ZM5011 2009 4990 2112Q4967 2131 4936.5 2159.5Q4906 2188 4870.5 2219.0Q4835 2250 4797.0 2279.5Q4759 2309 4721.0 2329.5Q4683 2350 4646.5 2358.5Q4610 2367 4579 2355Q4559 2348 4544.5 2334.0Q4530 2320 4520.5 2294.0Q4511 2268 4506.0 2227.5Q4501 2187 4501 2128Q4501 1950 4508.5 1782.5Q4516 1615 4527 1450Q4485 1453 4444.5 1460.5Q4404 1468 4382 1485Q4445 1429 4481.0 1381.5Q4517 1334 4536 1297L4548 1114L4720 971L4699 1329Q4721 1331 4740.0 1331.0Q4759 1331 4777 1331Q4864 1331 4938.5 1315.5Q5013 1300 5082 1274Q5018 1325 4959.5 1357.0Q4901 1389 4851.0 1408.5Q4801 1428 4760.0 1436.5Q4719 1445 4691 1448Q4681 1628 4675.5 1739.5Q4670 1851 4667 1912Q4663 1984 4663 2017Q4660 2066 4669.0 2104.0Q4678 2142 4696.5 2167.0Q4715 2192 4741.5 2202.0Q4768 2212 4800 2204Q4825 2196 4858 2172Q4886 2152 4924.5 2113.5Q4963 2075 5011 2009ZM4382 1485 4376 1489ZM5656 2050Q5603 2110 5558.5 2155.5Q5514 2201 5480 2232Q5440 2268 5408 2294Q5320 2364 5255 2364Q5218 2364 5191.5 2344.5Q5165 2325 5146.0 2294.0Q5127 2263 5115.0 2224.0Q5103 2185 5096.5 2145.5Q5090 2106 5087.5 2070.0Q5085 2034 5085 2009Q5085 1942 5100.5 1864.0Q5116 1786 5145.5 1708.5Q5175 1631 5218.0 1559.5Q5261 1488 5316.5 1432.5Q5372 1377 5438.5 1344.0Q5505 1311 5582 1311Q5603 1311 5617.0 1318.5Q5631 1326 5640.0 1339.0Q5649 1352 5652.5 1368.0Q5656 1384 5656 1401Q5656 1445 5636.0 1489.0Q5616 1533 5582.5 1575.5Q5549 1618 5506.0 1658.5Q5463 1699 5416.5 1735.5Q5370 1772 5324.0 1804.0Q5278 1836 5240 1862V1884Q5240 1909 5242.5 1944.5Q5245 1980 5251.5 2018.5Q5258 2057 5269.0 2095.0Q5280 2133 5297.0 2163.0Q5314 2193 5337.5 2211.5Q5361 2230 5392 2230Q5406 2230 5421.0 2225.5Q5436 2221 5451 2210Q5477 2189 5510 2152Q5538 2120 5575.0 2069.0Q5612 2018 5656 1940ZM5470 1460Q5458 1446 5439.0 1442.0Q5420 1438 5398.5 1444.0Q5377 1450 5356.5 1467.0Q5336 1484 5322 1512Q5302 1552 5278.0 1626.5Q5254 1701 5244 1798Q5276 1779 5310.0 1754.0Q5344 1729 5375.5 1701.0Q5407 1673 5432.5 1642.5Q5458 1612 5472.5 1580.5Q5487 1549 5488.0 1518.5Q5489 1488 5470 1460ZM6303 1344Q6298 1356 6280 1374Q6265 1390 6235.5 1415.5Q6206 1441 6153 1479Q6154 1462 6148.5 1450.5Q6143 1439 6135 1433Q6126 1426 6115 1423Q6051 1411 6014 1423Q6005 1427 6000.5 1442.5Q5996 1458 5996 1481Q5996 1536 6016.5 1579.5Q6037 1623 6068.0 1660.5Q6099 1698 6135.0 1732.0Q6171 1766 6202.0 1801.5Q6233 1837 6253.5 1876.0Q6274 1915 6274 1962Q6274 2002 6257.5 2044.5Q6241 2087 6207 2122Q6178 2152 6144.5 2184.0Q6111 2216 6075.5 2245.0Q6040 2274 6003.0 2298.0Q5966 2322 5930 2337Q5869 2359 5813 2359Q5775 2359 5747.0 2348.0Q5719 2337 5713 2314Q5708 2296 5724.0 2269.5Q5740 2243 5764.0 2216.5Q5788 2190 5814.5 2166.5Q5841 2143 5856 2130Q5854 2178 5878.5 2198.5Q5903 2219 5957 2222Q5984 2224 6014.0 2218.5Q6044 2213 6069.5 2201.5Q6095 2190 6111.5 2172.0Q6128 2154 6127 2130Q6125 2074 6103.5 2027.5Q6082 1981 6050.5 1939.5Q6019 1898 5983.5 1858.5Q5948 1819 5917.5 1778.0Q5887 1737 5866.5 1691.0Q5846 1645 5846 1591Q5846 1568 5851.0 1547.0Q5856 1526 5869 1507Q5892 1473 5932.0 1436.0Q5972 1399 6017.0 1368.0Q6062 1337 6106.0 1315.5Q6150 1294 6182 1290Q6213 1286 6237.5 1289.5Q6262 1293 6278.0 1301.0Q6294 1309 6300.5 1320.5Q6307 1332 6303 1344ZM6942 1344Q6937 1356 6919 1374Q6904 1390 6874.5 1415.5Q6845 1441 6792 1479Q6793 1462 6787.5 1450.5Q6782 1439 6774 1433Q6765 1426 6754 1423Q6690 1411 6653 1423Q6644 1427 6639.5 1442.5Q6635 1458 6635 1481Q6635 1536 6655.5 1579.5Q6676 1623 6707.0 1660.5Q6738 1698 6774.0 1732.0Q6810 1766 6841.0 1801.5Q6872 1837 6892.5 1876.0Q6913 1915 6913 1962Q6913 2002 6896.5 2044.5Q6880 2087 6846 2122Q6817 2152 6783.5 2184.0Q6750 2216 6714.5 2245.0Q6679 2274 6642.0 2298.0Q6605 2322 6569 2337Q6508 2359 6452 2359Q6414 2359 6386.0 2348.0Q6358 2337 6352 2314Q6347 2296 6363.0 2269.5Q6379 2243 6403.0 2216.5Q6427 2190 6453.5 2166.5Q6480 2143 6495 2130Q6493 2178 6517.5 2198.5Q6542 2219 6596 2222Q6623 2224 6653.0 2218.5Q6683 2213 6708.5 2201.5Q6734 2190 6750.5 2172.0Q6767 2154 6766 2130Q6764 2074 6742.5 2027.5Q6721 1981 6689.5 1939.5Q6658 1898 6622.5 1858.5Q6587 1819 6556.5 1778.0Q6526 1737 6505.5 1691.0Q6485 1645 6485 1591Q6485 1568 6490.0 1547.0Q6495 1526 6508 1507Q6531 1473 6571.0 1436.0Q6611 1399 6656.0 1368.0Q6701 1337 6745.0 1315.5Q6789 1294 6821 1290Q6852 1286 6876.5 1289.5Q6901 1293 6917.0 1301.0Q6933 1309 6939.5 1320.5Q6946 1332 6942 1344ZM7634 2050Q7581 2110 7536.5 2155.5Q7492 2201 7458 2232Q7418 2268 7386 2294Q7298 2364 7233 2364Q7196 2364 7169.5 2344.5Q7143 2325 7124.0 2294.0Q7105 2263 7093.0 2224.0Q7081 2185 7074.5 2145.5Q7068 2106 7065.5 2070.0Q7063 2034 7063 2009Q7063 1942 7078.5 1864.0Q7094 1786 7123.5 1708.5Q7153 1631 7196.0 1559.5Q7239 1488 7294.5 1432.5Q7350 1377 7416.5 1344.0Q7483 1311 7560 1311Q7581 1311 7595.0 1318.5Q7609 1326 7618.0 1339.0Q7627 1352 7630.5 1368.0Q7634 1384 7634 1401Q7634 1445 7614.0 1489.0Q7594 1533 7560.5 1575.5Q7527 1618 7484.0 1658.5Q7441 1699 7394.5 1735.5Q7348 1772 7302.0 1804.0Q7256 1836 7218 1862V1884Q7218 1909 7220.5 1944.5Q7223 1980 7229.5 2018.5Q7236 2057 7247.0 2095.0Q7258 2133 7275.0 2163.0Q7292 2193 7315.5 2211.5Q7339 2230 7370 2230Q7384 2230 7399.0 2225.5Q7414 2221 7429 2210Q7455 2189 7488 2152Q7516 2120 7553.0 2069.0Q7590 2018 7634 1940ZM7448 1460Q7436 1446 7417.0 1442.0Q7398 1438 7376.5 1444.0Q7355 1450 7334.5 1467.0Q7314 1484 7300 1512Q7280 1552 7256.0 1626.5Q7232 1701 7222 1798Q7254 1779 7288.0 1754.0Q7322 1729 7353.5 1701.0Q7385 1673 7410.5 1642.5Q7436 1612 7450.5 1580.5Q7465 1549 7466.0 1518.5Q7467 1488 7448 1460ZM8045 1356Q8052 1374 8054.0 1409.0Q8056 1444 8056 1489Q8056 1521 8055.0 1557.0Q8054 1593 8052 1630Q8081 1588 8115.0 1543.5Q8149 1499 8186.5 1458.5Q8224 1418 8265.0 1384.0Q8306 1350 8349.5 1328.5Q8393 1307 8438.5 1300.5Q8484 1294 8531 1309Q8557 1317 8573.5 1333.0Q8590 1349 8600.0 1372.5Q8610 1396 8613.5 1426.0Q8617 1456 8617 1491Q8617 1569 8611.0 1645.0Q8605 1721 8597.5 1795.5Q8590 1870 8584.0 1944.0Q8578 2018 8578 2091Q8578 2141 8586.5 2170.0Q8595 2199 8617 2204Q8639 2203 8666 2185Q8689 2171 8721.0 2139.0Q8753 2107 8791 2048L8783 2124Q8756 2154 8720.5 2196.0Q8685 2238 8646.5 2275.5Q8608 2313 8568.5 2338.0Q8529 2363 8494 2359Q8456 2354 8432.0 2315.5Q8408 2277 8408 2194Q8408 2153 8411.0 2097.5Q8414 2042 8419.0 1981.0Q8424 1920 8429.5 1857.0Q8435 1794 8440.5 1737.0Q8446 1680 8450.5 1632.5Q8455 1585 8457 1555Q8459 1525 8451.5 1500.5Q8444 1476 8428.5 1458.0Q8413 1440 8392.0 1430.5Q8371 1421 8346 1421Q8319 1421 8289.0 1434.5Q8259 1448 8228 1477Q8213 1492 8191.5 1518.5Q8170 1545 8145.0 1587.5Q8120 1630 8092.5 1689.0Q8065 1748 8039 1827Q8037 1850 8036.0 1872.0Q8035 1894 8035 1913Q8033 1961 8029 2015Q8026 2061 8022.0 2119.0Q8018 2177 8013 2237L7855 2376Q7866 2133 7874.5 1974.5Q7883 1816 7888 1724Q7894 1616 7898 1559Q7901 1492 7880.0 1464.0Q7859 1436 7828 1436Q7804 1436 7776.5 1451.0Q7749 1466 7724 1489Q7749 1461 7779.5 1429.0Q7810 1397 7844.0 1370.0Q7878 1343 7913.5 1325.0Q7949 1307 7984 1307Q8006 1307 8021.5 1318.5Q8037 1330 8045 1356ZM9457 2009 9436 2112Q9413 2131 9382.5 2159.5Q9352 2188 9316.5 2219.0Q9281 2250 9243.0 2279.5Q9205 2309 9167.0 2329.5Q9129 2350 9092.5 2358.5Q9056 2367 9025 2355Q9005 2348 8990.5 2334.0Q8976 2320 8966.5 2294.0Q8957 2268 8952.0 2227.5Q8947 2187 8947 2128Q8947 1950 8954.5 1782.5Q8962 1615 8973 1450Q8931 1453 8890.5 1460.5Q8850 1468 8828 1485Q8891 1429 8927.0 1381.5Q8963 1334 8982 1297L8994 1114L9166 971L9145 1329Q9167 1331 9186.0 1331.0Q9205 1331 9223 1331Q9310 1331 9384.5 1315.5Q9459 1300 9528 1274Q9464 1325 9405.5 1357.0Q9347 1389 9297.0 1408.5Q9247 1428 9206.0 1436.5Q9165 1445 9137 1448Q9127 1628 9121.5 1739.5Q9116 1851 9113 1912Q9109 1984 9109 2017Q9106 2066 9115.0 2104.0Q9124 2142 9142.5 2167.0Q9161 2192 9187.5 2202.0Q9214 2212 9246 2204Q9271 2196 9304 2172Q9332 2152 9370.5 2113.5Q9409 2075 9457 2009ZM8828 1485 8822 1489ZM10034 2030 10012 2112Q9995 2129 9970.5 2154.5Q9946 2180 9916.5 2208.5Q9887 2237 9855.0 2265.0Q9823 2293 9792.0 2315.0Q9761 2337 9732.5 2349.5Q9704 2362 9682 2359Q9648 2354 9633.5 2309.5Q9619 2265 9619 2165Q9619 2147 9620.5 2106.5Q9622 2066 9624.5 2012.0Q9627 1958 9630.5 1893.5Q9634 1829 9638.0 1763.5Q9642 1698 9646.5 1634.5Q9651 1571 9656 1518Q9659 1483 9642.0 1467.5Q9625 1452 9600 1452Q9579 1452 9556.0 1462.0Q9533 1472 9514 1489Q9554 1450 9585.0 1423.5Q9616 1397 9638 1380Q9664 1361 9682 1348Q9707 1333 9730.5 1332.5Q9754 1332 9772.5 1344.0Q9791 1356 9801.5 1379.0Q9812 1402 9811 1434Q9810 1456 9806.5 1504.5Q9803 1553 9798.5 1615.0Q9794 1677 9788.5 1746.0Q9783 1815 9778.5 1879.0Q9774 1943 9770.5 1995.0Q9767 2047 9766 2075Q9764 2132 9778.5 2167.0Q9793 2202 9825 2202Q9849 2202 9880.5 2181.0Q9912 2160 9943.0 2132.0Q9974 2104 9998.5 2075.0Q10023 2046 10034 2030ZM9864 555Q9866 604 9861.5 642.5Q9857 681 9851 708Q9844 740 9834 764Q9822 788 9797 816Q9776 840 9739.5 871.5Q9703 903 9645 938Q9664 900 9675.0 857.5Q9686 815 9692 779Q9699 737 9701 696ZM11021 2081Q11012 2095 10996.0 2114.5Q10980 2134 10964 2153Q10946 2175 10925 2198Q10899 2230 10869.0 2260.0Q10839 2290 10809.5 2313.5Q10780 2337 10752.0 2351.0Q10724 2365 10702 2364Q10660 2362 10644.0 2312.5Q10628 2263 10628 2169Q10628 2119 10631.0 2061.0Q10634 2003 10640 1931Q10618 1966 10598.0 1995.0Q10578 2024 10562 2046Q10544 2072 10526 2093Q10473 2158 10423.5 2208.0Q10374 2258 10332.5 2292.0Q10291 2326 10259.5 2344.0Q10228 2362 10210 2364Q10192 2366 10166.5 2352.0Q10141 2338 10118.0 2298.0Q10095 2258 10078.5 2186.0Q10062 2114 10063 1999Q10064 1884 10087.5 1796.5Q10111 1709 10148.5 1643.5Q10186 1578 10232.0 1530.5Q10278 1483 10323 1448Q10416 1377 10501.5 1334.5Q10587 1292 10669 1290Q10696 1289 10722 1291Q10745 1293 10771.5 1297.5Q10798 1302 10822 1311L10851 1288Q10845 1316 10838.5 1364.0Q10832 1412 10826.0 1472.0Q10820 1532 10814.0 1600.0Q10808 1668 10803.5 1736.5Q10799 1805 10795.0 1869.5Q10791 1934 10788.5 1987.0Q10786 2040 10785.5 2077.0Q10785 2114 10786 2128Q10791 2185 10812.5 2206.0Q10834 2227 10872 2202Q10887 2190 10909 2164Q10928 2142 10955.5 2103.5Q10983 2065 11021 2003ZM10679 1444Q10584 1432 10523 1432Q10458 1432 10410.0 1453.0Q10362 1474 10328.0 1509.5Q10294 1545 10272.0 1591.5Q10250 1638 10237.5 1690.0Q10225 1742 10220.5 1796.0Q10216 1850 10216 1899Q10216 1916 10218.0 1945.0Q10220 1974 10225.5 2007.0Q10231 2040 10239.5 2074.0Q10248 2108 10261.5 2135.5Q10275 2163 10293.0 2180.5Q10311 2198 10335 2198Q10361 2198 10398.5 2169.5Q10436 2141 10489 2073Q10520 2031 10551 1972Q10577 1922 10606.5 1849.0Q10636 1776 10659 1679ZM11589 2079Q11569 2105 11544.5 2136.5Q11520 2168 11492.0 2201.0Q11464 2234 11433.0 2264.5Q11402 2295 11368.5 2318.5Q11335 2342 11300.0 2355.0Q11265 2368 11230 2366Q11200 2363 11181.0 2338.5Q11162 2314 11151.0 2275.5Q11140 2237 11137.0 2187.0Q11134 2137 11136 2083Q11137 2056 11141.0 1987.5Q11145 1919 11150.5 1825.0Q11156 1731 11162.5 1619.0Q11169 1507 11175.0 1392.0Q11181 1277 11187.0 1166.5Q11193 1056 11197.5 966.0Q11202 876 11205.0 813.5Q11208 751 11208 731Q11208 677 11199.5 647.0Q11191 617 11157 617Q11124 617 11060 647Q11104 609 11136.0 582.0Q11168 555 11189 538Q11214 519 11230 506Q11260 481 11296 481Q11327 481 11349.5 504.0Q11372 527 11368 576Q11367 595 11363.5 657.5Q11360 720 11356.0 811.5Q11352 903 11346.5 1015.5Q11341 1128 11336.0 1247.5Q11331 1367 11325.5 1485.5Q11320 1604 11316.0 1706.0Q11312 1808 11309.5 1887.0Q11307 1966 11306 2007Q11305 2063 11312.0 2103.0Q11319 2143 11331.0 2168.0Q11343 2193 11360.0 2204.5Q11377 2216 11396 2216Q11419 2216 11442.0 2202.0Q11465 2188 11486.0 2166.0Q11507 2144 11526.0 2116.0Q11545 2088 11561.0 2060.0Q11577 2032 11588.5 2007.0Q11600 1982 11607 1966Z" fill="currentColor" /></svg>