<svg viewBox="0 0 6166 745" xmlns="http://www.w3.org/2000/svg"><path d="M0 735V45H233Q301 45 356.0 70.0Q411 95 444.0 142.5Q477 190 477 260Q477 342 432.5 393.0Q388 444 318 464L495 735H381L220 475H96V735ZM96 392H228Q292 392 335.0 357.5Q378 323 378 260Q378 198 335.5 164.5Q293 131 228 131H96ZM610 603Q610 558 634.0 520.0Q658 482 713.0 457.0Q768 432 861 429L916 427V421Q916 355 885.0 326.5Q854 298 799 298Q759 298 725.0 310.0Q691 322 657 341L625 263Q660 241 711.0 225.5Q762 210 808 210Q865 210 910.0 232.0Q955 254 981.5 298.5Q1008 343 1008 410V613Q1008 634 1009.5 651.5Q1011 669 1015 691L1023 735H937L922 662Q892 698 847.5 721.5Q803 745 752 745Q715 745 682.5 728.0Q650 711 630.0 679.0Q610 647 610 603ZM704 595Q704 626 722.5 643.5Q741 661 772 661Q810 661 846.5 643.0Q883 625 916 594V493L865 498Q800 504 765.0 519.0Q730 534 717.0 553.5Q704 573 704 595ZM1148 482Q1148 397 1174.5 336.0Q1201 275 1248.5 242.5Q1296 210 1360 210Q1398 210 1435.0 227.5Q1472 245 1497 283V20L1589 0V613Q1589 634 1590.5 651.5Q1592 669 1596 691L1604 735H1518L1503 661Q1470 698 1428.0 721.5Q1386 745 1340 745Q1288 745 1244.0 713.5Q1200 682 1174.0 623.0Q1148 564 1148 482ZM1242 479Q1242 537 1258.0 577.5Q1274 618 1302.0 639.0Q1330 660 1365 660Q1400 660 1433.5 642.5Q1467 625 1497 594V452Q1497 394 1479.5 358.0Q1462 322 1434.0 304.5Q1406 287 1376 287Q1314 287 1278.0 340.5Q1242 394 1242 479ZM1769 735V220H1861V735ZM1754 68Q1754 41 1771.5 23.0Q1789 5 1815 5Q1843 5 1859.5 23.0Q1876 41 1876 68Q1876 94 1859.5 112.0Q1843 130 1815 130Q1789 130 1771.5 112.0Q1754 94 1754 68ZM2006 478Q2006 391 2036.0 331.5Q2066 272 2118.0 241.0Q2170 210 2237 210Q2304 210 2356.0 241.0Q2408 272 2438.0 331.5Q2468 391 2468 478Q2468 564 2438.0 624.0Q2408 684 2356.0 714.5Q2304 745 2237 745Q2170 745 2118.0 714.5Q2066 684 2036.0 624.0Q2006 564 2006 478ZM2100 478Q2100 538 2116.5 579.5Q2133 621 2163.5 642.5Q2194 664 2237 664Q2280 664 2310.5 642.5Q2341 621 2357.5 579.5Q2374 538 2374 478Q2374 418 2357.5 376.5Q2341 335 2310.5 313.0Q2280 291 2237 291Q2194 291 2163.5 313.0Q2133 335 2116.5 376.5Q2100 418 2100 478ZM2833 390Q2833 304 2857.5 238.0Q2882 172 2925.5 127.0Q2969 82 3025.5 58.5Q3082 35 3146 35Q3206 35 3260.0 59.0Q3314 83 3359 127L3291 192Q3260 160 3223.5 143.0Q3187 126 3146 126Q3085 126 3036.5 156.0Q2988 186 2960.0 245.0Q2932 304 2932 390Q2932 476 2960.0 535.0Q2988 594 3036.5 624.0Q3085 654 3146 654Q3193 654 3232.0 637.0Q3271 620 3302 586L3367 651Q3322 697 3266.5 721.0Q3211 745 3146 745Q3082 745 3025.5 722.0Q2969 699 2925.5 653.5Q2882 608 2857.5 542.0Q2833 476 2833 390ZM3477 603Q3477 558 3501.0 520.0Q3525 482 3580.0 457.0Q3635 432 3728 429L3783 427V421Q3783 355 3752.0 326.5Q3721 298 3666 298Q3626 298 3592.0 310.0Q3558 322 3524 341L3492 263Q3527 241 3578.0 225.5Q3629 210 3675 210Q3732 210 3777.0 232.0Q3822 254 3848.5 298.5Q3875 343 3875 410V613Q3875 634 3876.5 651.5Q3878 669 3882 691L3890 735H3804L3789 662Q3759 698 3714.5 721.5Q3670 745 3619 745Q3582 745 3549.5 728.0Q3517 711 3497.0 679.0Q3477 647 3477 603ZM3571 595Q3571 626 3589.5 643.5Q3608 661 3639 661Q3677 661 3713.5 643.0Q3750 625 3783 594V493L3732 498Q3667 504 3632.0 519.0Q3597 534 3584.0 553.5Q3571 573 3571 595ZM4035 220H4121L4136 294Q4169 256 4211.5 233.0Q4254 210 4300 210Q4351 210 4391.5 233.0Q4432 256 4455.5 302.0Q4479 348 4479 419V735H4387V431Q4387 384 4372.5 354.5Q4358 325 4333.0 311.0Q4308 297 4276 297Q4241 297 4207.0 314.0Q4173 331 4142 361V735H4050V342Q4050 321 4048.5 303.5Q4047 286 4043 264ZM4624 603Q4624 558 4648.0 520.0Q4672 482 4727.0 457.0Q4782 432 4875 429L4930 427V421Q4930 355 4899.0 326.5Q4868 298 4813 298Q4773 298 4739.0 310.0Q4705 322 4671 341L4639 263Q4674 241 4725.0 225.5Q4776 210 4822 210Q4879 210 4924.0 232.0Q4969 254 4995.5 298.5Q5022 343 5022 410V613Q5022 634 5023.5 651.5Q5025 669 5029 691L5037 735H4951L4936 662Q4906 698 4861.5 721.5Q4817 745 4766 745Q4729 745 4696.5 728.0Q4664 711 4644.0 679.0Q4624 647 4624 603ZM4718 595Q4718 626 4736.5 643.5Q4755 661 4786 661Q4824 661 4860.5 643.0Q4897 625 4930 594V493L4879 498Q4814 504 4779.0 519.0Q4744 534 4731.0 553.5Q4718 573 4718 595ZM5162 482Q5162 397 5188.5 336.0Q5215 275 5262.5 242.5Q5310 210 5374 210Q5412 210 5449.0 227.5Q5486 245 5511 283V20L5603 0V613Q5603 634 5604.5 651.5Q5606 669 5610 691L5618 735H5532L5517 661Q5484 698 5442.0 721.5Q5400 745 5354 745Q5302 745 5258.0 713.5Q5214 682 5188.0 623.0Q5162 564 5162 482ZM5256 479Q5256 537 5272.0 577.5Q5288 618 5316.0 639.0Q5344 660 5379 660Q5414 660 5447.5 642.5Q5481 625 5511 594V452Q5511 394 5493.5 358.0Q5476 322 5448.0 304.5Q5420 287 5390 287Q5328 287 5292.0 340.5Q5256 394 5256 479ZM5753 603Q5753 558 5777.0 520.0Q5801 482 5856.0 457.0Q5911 432 6004 429L6059 427V421Q6059 355 6028.0 326.5Q5997 298 5942 298Q5902 298 5868.0 310.0Q5834 322 5800 341L5768 263Q5803 241 5854.0 225.5Q5905 210 5951 210Q6008 210 6053.0 232.0Q6098 254 6124.5 298.5Q6151 343 6151 410V613Q6151 634 6152.5 651.5Q6154 669 6158 691L6166 735H6080L6065 662Q6035 698 5990.5 721.5Q5946 745 5895 745Q5858 745 5825.5 728.0Q5793 711 5773.0 679.0Q5753 647 5753 603ZM5847 595Q5847 626 5865.5 643.5Q5884 661 5915 661Q5953 661 5989.5 643.0Q6026 625 6059 594V493L6008 498Q5943 504 5908.0 519.0Q5873 534 5860.0 553.5Q5847 573 5847 595Z" fill="currentColor" /></svg>