<svg viewBox="0 0 4972 609" xmlns="http://www.w3.org/2000/svg"><path d="M392 601 259 384H119V601H0V30H285Q387 30 442.5 74.0Q498 118 498 200Q498 260 464.0 303.5Q430 347 372 361L526 601ZM378 205Q378 123 272 123H119V291H276Q326 291 352.0 268.5Q378 246 378 205ZM702 609Q638 609 602.5 574.5Q567 540 567 477Q567 409 611.5 373.5Q656 338 740 337L835 335V313Q835 270 820.0 249.0Q805 228 771 228Q739 228 724.5 242.5Q710 257 706 290L587 284Q598 220 645.5 187.0Q693 154 776.0 154.0Q859 154 904.0 195.0Q949 236 949 312V471Q949 508 957.0 522.0Q965 536 985 536Q998 536 1010 534V595Q1000 597 992.0 599.5Q984 602 975.5 603.0Q967 604 958.0 605.0Q949 606 937 606Q894 606 873.5 585.0Q853 564 849 523H847Q798 609 702 609ZM835 398 776 399Q736 401 719.5 408.0Q703 415 694.5 429.5Q686 444 686 468Q686 499 700.5 514.5Q715 530 739 530Q766 530 788.0 515.0Q810 500 822.5 474.5Q835 449 835 420ZM1320 601V355Q1320 239 1254 239Q1220 239 1198.0 274.5Q1176 310 1176 366V601H1062V261Q1062 226 1061.0 203.0Q1060 180 1059 162H1167Q1168 170 1170.5 203.5Q1173 237 1173 250H1174Q1195 200 1226.5 177.0Q1258 154 1302 154Q1403 154 1424 250H1426Q1448 199 1479.5 176.5Q1511 154 1559 154Q1623 154 1657.0 197.5Q1691 241 1691 323V601H1577V355Q1577 239 1511 239Q1478 239 1456.5 271.5Q1435 304 1433 361V601ZM1901 609Q1837 609 1801.5 574.5Q1766 540 1766 477Q1766 409 1810.5 373.5Q1855 338 1939 337L2034 335V313Q2034 270 2019.0 249.0Q2004 228 1970 228Q1938 228 1923.5 242.5Q1909 257 1905 290L1786 284Q1797 220 1844.5 187.0Q1892 154 1975.0 154.0Q2058 154 2103.0 195.0Q2148 236 2148 312V471Q2148 508 2156.0 522.0Q2164 536 2184 536Q2197 536 2209 534V595Q2199 597 2191.0 599.5Q2183 602 2174.5 603.0Q2166 604 2157.0 605.0Q2148 606 2136 606Q2093 606 2072.5 585.0Q2052 564 2048 523H2046Q1997 609 1901 609ZM2034 398 1975 399Q1935 401 1918.5 408.0Q1902 415 1893.5 429.5Q1885 444 1885 468Q1885 499 1899.5 514.5Q1914 530 1938 530Q1965 530 1987.0 515.0Q2009 500 2021.5 474.5Q2034 449 2034 420ZM2676 380Q2676 489 2632.5 549.0Q2589 609 2508 609Q2461 609 2427.0 589.0Q2393 569 2375 530H2374Q2374 544 2372.0 569.0Q2370 594 2368 601H2258Q2261 563 2261 501V0H2375V167L2373 239H2375Q2414 155 2515 154Q2593 154 2634.5 213.0Q2676 272 2676 380ZM2557 380Q2557 305 2535.0 269.0Q2513 233 2468 233Q2422 233 2397.5 272.0Q2373 311 2373 384Q2373 454 2397.0 492.5Q2421 531 2467 531Q2557 531 2557 380ZM2879 250Q2902 200 2937.0 177.0Q2972 154 3020 154Q3090 154 3127.5 197.0Q3165 240 3165 323V601H3051V355Q3051 239 2973 240Q2932 240 2906.5 275.5Q2881 311 2881 366V601H2767V0H2881V164Q2881 208 2878 250ZM3374 609Q3310 609 3274.5 574.5Q3239 540 3239 477Q3239 409 3283.5 373.5Q3328 338 3412 337L3507 335V313Q3507 270 3492.0 249.0Q3477 228 3443 228Q3411 228 3396.5 242.5Q3382 257 3378 290L3259 284Q3270 220 3317.5 187.0Q3365 154 3448.0 154.0Q3531 154 3576.0 195.0Q3621 236 3621 312V471Q3621 508 3629.0 522.0Q3637 536 3657 536Q3670 536 3682 534V595Q3672 597 3664.0 599.5Q3656 602 3647.5 603.0Q3639 604 3630.0 605.0Q3621 606 3609 606Q3566 606 3545.5 585.0Q3525 564 3521 523H3519Q3470 609 3374 609ZM3507 398 3448 399Q3408 401 3391.5 408.0Q3375 415 3366.5 429.5Q3358 444 3358 468Q3358 499 3372.5 514.5Q3387 530 3411 530Q3438 530 3460.0 515.0Q3482 500 3494.5 474.5Q3507 449 3507 420ZM4018 601Q4016 595 4014.0 570.5Q4012 546 4012 530H4010Q3973 609 3870 609Q3793 609 3751.5 549.5Q3710 490 3710 382Q3710 273 3754.0 213.5Q3798 154 3879 154Q3926 154 3959.5 173.5Q3993 193 4011 232H4012L4011 160V0H4125V505Q4125 546 4128 601ZM4013 379Q4013 308 3989.0 270.0Q3965 232 3919.0 232.0Q3873 232 3851.0 269.0Q3829 306 3829 382Q3829 531 3918 531Q3963 531 3988.0 491.5Q4013 452 4013 379ZM4240 601V265Q4240 229 4239.0 205.0Q4238 181 4237 162H4345Q4346 169 4348.5 206.5Q4351 244 4351 256H4352Q4369 210 4382.0 191.0Q4395 172 4412.5 163.0Q4430 154 4457 154Q4479 154 4492 160V255Q4464 249 4444 249Q4401 249 4377.5 283.5Q4354 318 4354 386V601ZM4664 609Q4600 609 4564.5 574.5Q4529 540 4529 477Q4529 409 4573.5 373.5Q4618 338 4702 337L4797 335V313Q4797 270 4782.0 249.0Q4767 228 4733 228Q4701 228 4686.5 242.5Q4672 257 4668 290L4549 284Q4560 220 4607.5 187.0Q4655 154 4738.0 154.0Q4821 154 4866.0 195.0Q4911 236 4911 312V471Q4911 508 4919.0 522.0Q4927 536 4947 536Q4960 536 4972 534V595Q4962 597 4954.0 599.5Q4946 602 4937.5 603.0Q4929 604 4920.0 605.0Q4911 606 4899 606Q4856 606 4835.5 585.0Q4815 564 4811 523H4809Q4760 609 4664 609ZM4797 398 4738 399Q4698 401 4681.5 408.0Q4665 415 4656.5 429.5Q4648 444 4648 468Q4648 499 4662.5 514.5Q4677 530 4701 530Q4728 530 4750.0 515.0Q4772 500 4784.5 474.5Q4797 449 4797 420Z" /></svg>