<svg viewBox="0 0 6653 1033.0" xmlns="http://www.w3.org/2000/svg"><path d="M343 782.0 272 654.0V836.0L100 851.0L0 801.0V41.0L251 19.0Q259 18.0 266.5 18.0Q274 18.0 281 18.0Q339 18.0 393.0 36.0Q447 54.0 490.0 89.0Q533 124.0 558.0 173.5Q583 223.0 583 286.0Q583 445.0 467 515.0L636 816.0L443 832.0ZM353 461.0Q415 427.0 444.0 371.0Q473 315.0 473 236.0Q473 143.0 421.5 85.5Q370 28.0 277 28.0Q271 28.0 265.0 28.0Q259 28.0 252 29.0L10 50.0V791.0L162 778.0V514.0L205 510.0L348 772.0L519 757.0ZM162 181.0 228 175.0H239Q272 175.0 294.5 194.5Q317 214.0 317 262.0Q317 312.0 293.0 339.5Q269 367.0 228 371.0L162 377.0ZM272 346.0Q307 321.0 307 262.0Q307 255.0 306.5 249.0Q306 243.0 305 237.0L272 240.0ZM1206 810.0Q1174 823.0 1140 823.0Q1109 823.0 1083.0 814.5Q1057 806.0 1043 798.0Q999 851.0 914 859.0Q906 860.0 898.0 860.0Q890 860.0 882 860.0Q820 860.0 768.0 838.5Q716 817.0 684.5 773.5Q653 730.0 653 666.0Q653 597.0 691.5 556.0Q730 515.0 807 478.0L756 461.0L656 411.0Q681 324.0 737.5 280.0Q794 236.0 866 229.0Q875 228.0 884.0 227.5Q893 227.0 901 227.0Q973 227.0 1032.0 253.5Q1091 280.0 1126.0 328.5Q1161 377.0 1161 442.0V632.0L1222 662.0ZM1110 629.0Q1086 640.0 1074 640.0Q1051 640.0 1051 610.0V392.0Q1051 238.0 896 238.0Q889 238.0 882.0 238.0Q875 238.0 867 239.0Q798 246.0 744.0 287.0Q690 328.0 668 406.0L780 443.0Q791 409.0 810.5 388.0Q830 367.0 855 365.0Q858 365.0 861.0 364.5Q864 364.0 866 364.0Q889 364.0 901.0 375.0Q913 386.0 913 405.0Q913 426.0 900.0 438.5Q887 451.0 864 462.0L819 483.0Q742 519.0 702.5 558.5Q663 598.0 663 666.0Q663 800.0 789 800.0Q795 800.0 801.0 800.0Q807 800.0 813 799.0Q861 795.0 896.0 776.0Q931 757.0 949 722.0Q956 743.0 979.0 755.0Q1002 767.0 1033 767.0Q1066 767.0 1096 754.0ZM841 683.0Q824 683.0 813.0 673.5Q802 664.0 802 646.0Q802 603.0 846 582.0L866 572.0Q880 565.0 893.5 558.5Q907 552.0 914 544.0V613.0Q909 644.0 890.0 662.5Q871 681.0 848 683.0ZM1798 787.0V834.0L1637 849.0L1542 799.0V847.0L1379 861.0L1279 811.0V262.0L1432 249.0L1459 273.0Q1475 258.0 1498.0 247.5Q1521 237.0 1545 235.0Q1549 235.0 1552.5 234.5Q1556 234.0 1560 234.0Q1601 234.0 1636.5 253.0Q1672 272.0 1691 296.0Q1705 270.0 1733.0 247.5Q1761 225.0 1801 222.0Q1806 222.0 1811.5 221.5Q1817 221.0 1823 221.0Q1884 221.0 1937.0 244.0Q1990 267.0 2022.5 310.5Q2055 354.0 2055 416.0V823.0L1892 836.0ZM1945 366.0Q1945 297.0 1909.0 264.0Q1873 231.0 1819 231.0Q1815 231.0 1811.0 231.5Q1807 232.0 1802 232.0Q1770 235.0 1745.5 252.0Q1721 269.0 1706.0 293.0Q1691 317.0 1685 342.0L1682 341.0Q1674 305.0 1644.5 274.5Q1615 244.0 1561 244.0Q1557 244.0 1553.5 244.5Q1550 245.0 1546 245.0Q1497 249.0 1465.0 283.0Q1433 317.0 1425 360.0L1422 361.0V260.0L1289 271.0V800.0L1432 789.0V462.0Q1437 437.0 1452.5 417.0Q1468 397.0 1495 395.0H1502Q1523 395.0 1535.0 409.5Q1547 424.0 1547 457.0V789.0L1688 776.0V449.0Q1693 425.0 1708.5 405.0Q1724 385.0 1750 383.0H1757Q1779 383.0 1790.5 397.0Q1802 411.0 1802 444.0V776.0L1945 764.0ZM2149 983.0V260.0L2302 247.0L2326 259.0Q2342 246.0 2363.0 236.5Q2384 227.0 2411 225.0Q2417 224.0 2423.0 224.0Q2429 224.0 2435 224.0Q2489 224.0 2539.5 244.0Q2590 264.0 2630.5 304.5Q2671 345.0 2695.0 405.0Q2719 465.0 2719 546.0Q2719 688.0 2664.0 765.0Q2609 842.0 2511 850.0Q2507 851.0 2502.5 851.0Q2498 851.0 2493 851.0Q2465 851.0 2444.5 845.0Q2424 839.0 2412 834.0V1019.0L2249 1033.0ZM2305 748.0Q2313 767.0 2336.0 779.5Q2359 792.0 2393 792.0Q2397 792.0 2401.5 792.0Q2406 792.0 2410 791.0Q2505 783.0 2557.0 708.0Q2609 633.0 2609 496.0Q2609 365.0 2561.0 299.5Q2513 234.0 2430 234.0Q2426 234.0 2421.5 234.0Q2417 234.0 2412 235.0Q2365 239.0 2336.0 263.5Q2307 288.0 2295 319.0H2292V258.0L2159 269.0V972.0L2302 960.0V749.0ZM2369 658.0Q2344 658.0 2325.5 645.0Q2307 632.0 2302 611.0V473.0Q2302 428.0 2323.5 399.0Q2345 370.0 2380 367.0H2386Q2418 367.0 2440.0 400.5Q2462 434.0 2462 509.0Q2462 585.0 2442.0 619.5Q2422 654.0 2378 658.0ZM2412 637.0Q2430 623.0 2441.0 592.0Q2452 561.0 2452 509.0Q2452 489.0 2450.5 471.5Q2449 454.0 2445 441.0Q2427 447.0 2419.5 464.5Q2412 482.0 2412 523.0ZM3318 810.0Q3286 823.0 3252 823.0Q3221 823.0 3195.0 814.5Q3169 806.0 3155 798.0Q3111 851.0 3026 859.0Q3018 860.0 3010.0 860.0Q3002 860.0 2994 860.0Q2932 860.0 2880.0 838.5Q2828 817.0 2796.5 773.5Q2765 730.0 2765 666.0Q2765 597.0 2803.5 556.0Q2842 515.0 2919 478.0L2868 461.0L2768 411.0Q2793 324.0 2849.5 280.0Q2906 236.0 2978 229.0Q2987 228.0 2996.0 227.5Q3005 227.0 3013 227.0Q3085 227.0 3144.0 253.5Q3203 280.0 3238.0 328.5Q3273 377.0 3273 442.0V632.0L3334 662.0ZM3222 629.0Q3198 640.0 3186 640.0Q3163 640.0 3163 610.0V392.0Q3163 238.0 3008 238.0Q3001 238.0 2994.0 238.0Q2987 238.0 2979 239.0Q2910 246.0 2856.0 287.0Q2802 328.0 2780 406.0L2892 443.0Q2903 409.0 2922.5 388.0Q2942 367.0 2967 365.0Q2970 365.0 2973.0 364.5Q2976 364.0 2978 364.0Q3001 364.0 3013.0 375.0Q3025 386.0 3025 405.0Q3025 426.0 3012.0 438.5Q2999 451.0 2976 462.0L2931 483.0Q2854 519.0 2814.5 558.5Q2775 598.0 2775 666.0Q2775 800.0 2901 800.0Q2907 800.0 2913.0 800.0Q2919 800.0 2925 799.0Q2973 795.0 3008.0 776.0Q3043 757.0 3061 722.0Q3068 743.0 3091.0 755.0Q3114 767.0 3145 767.0Q3178 767.0 3208 754.0ZM2953 683.0Q2936 683.0 2925.0 673.5Q2914 664.0 2914 646.0Q2914 603.0 2958 582.0L2978 572.0Q2992 565.0 3005.5 558.5Q3019 552.0 3026 544.0V613.0Q3021 644.0 3002.0 662.5Q2983 681.0 2960 683.0ZM3391 795.0V246.0L3552 231.0L3577 243.0Q3607 213.0 3647 210.0H3660Q3677 210.0 3692.0 212.5Q3707 215.0 3721 218.0L3821 268.0L3840 440.0Q3794 422.0 3762 422.0Q3757 422.0 3751.5 422.0Q3746 422.0 3741 423.0Q3717 425.0 3697.0 441.0Q3677 457.0 3665.5 481.5Q3654 506.0 3654 532.0V830.0L3491 845.0ZM3544 482.0Q3544 453.0 3557.0 426.5Q3570 400.0 3592.0 382.5Q3614 365.0 3640 363.0Q3646 362.0 3652.0 362.0Q3658 362.0 3663 362.0Q3681 362.0 3696.5 365.5Q3712 369.0 3728 375.0L3711 227.0Q3702 225.0 3689.0 222.5Q3676 220.0 3660 220.0H3648Q3613 223.0 3583.5 251.5Q3554 280.0 3545 324.0H3542V242.0L3401 255.0V785.0L3544 772.0ZM4276 839.0Q4253 840.0 4231.5 841.5Q4210 843.0 4190 843.0Q4048 843.0 3980.0 791.0Q3912 739.0 3912 620.0V429.0L3848 397.0V246.0L3912 241.0V78.0L4074 63.0L4174 113.0V228.0L4257 269.0V420.0L4174 427.0V628.0L4208 625.0L4308 675.0ZM4195 637.0Q4173 639.0 4156.5 640.5Q4140 642.0 4126 642.0Q4084 642.0 4074.0 627.0Q4064 612.0 4064 575.0V368.0L4147 361.0V230.0L4064 237.0V74.0L3922 87.0V250.0L3858 255.0V386.0L3922 381.0V620.0Q3922 680.0 3937.0 716.0Q3952 752.0 3988.5 768.0Q4025 784.0 4090 784.0Q4107 784.0 4126.0 783.0Q4145 782.0 4167 780.0ZM5086 854.0Q5079 855.0 5071.5 855.0Q5064 855.0 5057 855.0Q5005 855.0 4961.5 840.5Q4918 826.0 4877 807.0Q4770 754.0 4720.5 657.5Q4671 561.0 4671 428.0Q4671 350.0 4690.5 276.5Q4710 203.0 4749.0 143.5Q4788 84.0 4846.5 46.0Q4905 8.0 4984 1.0Q4992 0.0 4999.0 0.0Q5006 0.0 5013 0.0Q5063 0.0 5102.0 12.5Q5141 25.0 5181 41.0Q5253 70.0 5301.0 127.0Q5349 184.0 5373.0 260.5Q5397 337.0 5397 424.0Q5397 505.0 5378.0 579.0Q5359 653.0 5320.5 712.5Q5282 772.0 5223.5 809.5Q5165 847.0 5086 854.0ZM4985 794.0Q5062 788.0 5119.0 751.5Q5176 715.0 5213.0 656.5Q5250 598.0 5268.5 525.5Q5287 453.0 5287 374.0Q5287 302.0 5270.5 236.5Q5254 171.0 5220.0 120.0Q5186 69.0 5134.5 39.5Q5083 10.0 5013 10.0Q5006 10.0 4999.5 10.0Q4993 10.0 4985 11.0Q4908 18.0 4851.0 54.5Q4794 91.0 4756.0 149.5Q4718 208.0 4699.5 279.5Q4681 351.0 4681 428.0Q4681 503.0 4698.0 569.5Q4715 636.0 4749.0 686.5Q4783 737.0 4835.0 766.0Q4887 795.0 4956 795.0Q4964 795.0 4971.0 795.0Q4978 795.0 4985 794.0ZM4985 639.0Q4981 639.0 4977.5 639.5Q4974 640.0 4970 640.0Q4910 640.0 4875.5 588.0Q4841 536.0 4841 414.0Q4841 327.0 4860.0 274.0Q4879 221.0 4912.0 195.5Q4945 170.0 4985 167.0Q4989 167.0 4993.0 166.5Q4997 166.0 5001 166.0Q5060 166.0 5093.0 216.5Q5126 267.0 5126 389.0Q5126 519.0 5086.5 576.5Q5047 634.0 4985 639.0ZM4982 629.0Q5041 624.0 5078.5 569.0Q5116 514.0 5116 389.0Q5116 332.0 5109.0 292.0Q5102 252.0 5088 227.0Q5083 226.0 5078.0 225.5Q5073 225.0 5068 225.0Q5009 225.0 4980.0 286.5Q4951 348.0 4951 464.0Q4951 522.0 4959.0 562.5Q4967 603.0 4982 629.0ZM5742 788.0V475.0Q5730 487.0 5727 503.0V835.0L5576 850.0L5476 800.0V251.0L5629 237.0L5661 263.0Q5678 249.0 5698.0 237.5Q5718 226.0 5746 224.0Q5751 224.0 5755.0 223.5Q5759 223.0 5763 223.0Q5808 223.0 5851.5 239.0Q5895 255.0 5929.5 283.5Q5964 312.0 5984.5 350.0Q6005 388.0 6005 432.0V823.0L5842 837.0ZM5895 366.0Q5895 297.0 5857.5 265.0Q5820 233.0 5765 233.0Q5761 233.0 5756.5 233.0Q5752 233.0 5747 234.0Q5698 238.0 5664.0 271.5Q5630 305.0 5622 349.0H5619V248.0L5486 260.0V790.0L5629 777.0V452.0Q5634 428.0 5651.5 408.0Q5669 388.0 5697 385.0H5701Q5722 385.0 5737.0 399.5Q5752 414.0 5752 447.0V777.0L5895 764.0ZM6648 658.0Q6621 742.0 6568.5 794.0Q6516 846.0 6426 854.0Q6415 855.0 6404.5 855.5Q6394 856.0 6383 856.0Q6296 856.0 6226.5 820.5Q6157 785.0 6116.0 714.0Q6075 643.0 6075 538.0Q6075 446.0 6106.5 379.0Q6138 312.0 6192.5 273.5Q6247 235.0 6317 229.0Q6324 228.0 6331.5 228.0Q6339 228.0 6346 228.0Q6402 228.0 6456.5 247.5Q6511 267.0 6555.5 308.0Q6600 349.0 6626.5 413.5Q6653 478.0 6653 568.0Q6653 576.0 6653.0 584.5Q6653 593.0 6652 601.0L6547 610.0ZM6412 581.0Q6403 615.0 6379.0 637.0Q6355 659.0 6317 663.0H6309Q6275 663.0 6253.0 638.0Q6231 613.0 6231 569.0L6542 542.0Q6543 532.0 6543.0 522.5Q6543 513.0 6543 504.0Q6543 378.0 6489.0 308.0Q6435 238.0 6340 238.0Q6335 238.0 6329.5 238.0Q6324 238.0 6318 239.0Q6251 244.0 6198.0 281.5Q6145 319.0 6115.0 384.0Q6085 449.0 6085 538.0Q6085 667.0 6143.0 731.0Q6201 795.0 6297 795.0Q6304 795.0 6311.0 795.0Q6318 795.0 6325 794.0Q6411 787.0 6461.5 738.0Q6512 689.0 6534 616.0ZM6236 457.0Q6236 424.0 6259.0 400.0Q6282 376.0 6318 373.0H6327Q6357 373.0 6376.5 390.5Q6396 408.0 6396 443.0ZM6317 631.0Q6317 636.0 6321.5 641.0Q6326 646.0 6331 651.0Q6349 646.0 6359.0 639.0Q6369 632.0 6376 625.0Z" /></svg>