<svg viewBox="0 0 3636 852" xmlns="http://www.w3.org/2000/svg"><path d="M0 841Q3 746 4.0 651.5Q5 557 5 472Q5 351 3.5 242.0Q2 133 0 23Q49 18 98.5 14.5Q148 11 199 11Q272 11 336.0 21.5Q400 32 447.0 60.5Q494 89 521.5 139.0Q549 189 549 268Q549 366 508.5 422.0Q468 478 399 506L562 841H384L251 536Q210 539 166 539Q166 616 167.0 690.0Q168 764 173 841ZM166 387Q197 390 223 390Q291 390 319.5 364.5Q348 339 348 288Q348 257 339.5 238.0Q331 219 316.5 208.0Q302 197 282.5 193.0Q263 189 241 189Q225 189 205.5 190.5Q186 192 166 195ZM1048 841H911V792Q875 821 835.0 836.5Q795 852 757 852Q712 852 674.0 830.0Q636 808 608.5 768.5Q581 729 565.0 674.0Q549 619 549 554Q549 486 566.0 427.0Q583 368 612.5 324.5Q642 281 682.5 256.5Q723 232 770 232Q811 232 848.0 249.5Q885 267 911 293V243H1053ZM740 480Q740 521 762.5 546.0Q785 571 820 571Q858 571 884.5 544.0Q911 517 911 475Q911 456 904.5 439.0Q898 422 886.0 409.5Q874 397 858.0 390.0Q842 383 824 383Q788 383 764.0 410.0Q740 437 740 480ZM1246 243V297Q1270 267 1304.5 249.5Q1339 232 1375 232Q1419 232 1453.0 256.0Q1487 280 1498 313Q1503 328 1506.5 354.5Q1510 381 1510 414V841H1363V551Q1363 506 1346.5 490.5Q1330 475 1308 475Q1279 475 1262.5 493.5Q1246 512 1246 541V841H1101Q1101 808 1101.5 771.5Q1102 735 1102.0 698.5Q1102 662 1102.0 626.0Q1102 590 1102 558Q1102 539 1102.0 501.0Q1102 463 1101.5 418.0Q1101 373 1101.0 326.0Q1101 279 1101 243ZM1834 232Q1893 232 1941 249Q1941 266 1941.5 285.5Q1942 305 1942 325Q1942 346 1941.5 367.0Q1941 388 1941 406Q1908 378 1860 378Q1830 378 1810.0 387.5Q1790 397 1777.5 412.0Q1765 427 1760.0 444.5Q1755 462 1755 478Q1755 500 1763.0 519.5Q1771 539 1785.0 554.0Q1799 569 1817.5 577.5Q1836 586 1857 586Q1877 586 1899.0 578.0Q1921 570 1941 556Q1941 589 1941.5 624.5Q1942 660 1942 696Q1942 731 1941.5 767.5Q1941 804 1941 840Q1885 852 1830 852Q1762 852 1709.0 830.5Q1656 809 1619.0 769.0Q1582 729 1562.5 671.5Q1543 614 1543 543Q1543 476 1561.0 418.5Q1579 361 1615.5 320.0Q1652 279 1706.5 255.5Q1761 232 1834 232ZM2144 0Q2141 56 2139.0 97.5Q2137 139 2136.0 173.5Q2135 208 2134.5 237.5Q2134 267 2134 297Q2158 267 2192.0 249.5Q2226 232 2261 232Q2283 232 2303.5 238.5Q2324 245 2341.0 256.0Q2358 267 2370.5 282.5Q2383 298 2389 316Q2393 330 2395.5 356.5Q2398 383 2398 414V841H2251V541Q2251 511 2236.5 493.5Q2222 476 2198 476Q2173 476 2153.5 492.0Q2134 508 2134 531V841H1987Q1989 708 1989.0 556.5Q1989 405 1989 231Q1989 177 1989.0 140.5Q1989 104 1989.0 79.0Q1989 54 1988.5 36.0Q1988 18 1988 0ZM2652 526Q2665 569 2695.0 596.0Q2725 623 2778 623Q2794 623 2812.5 620.5Q2831 618 2849.0 613.5Q2867 609 2883.0 603.5Q2899 598 2911 593Q2913 622 2913.5 654.5Q2914 687 2914 719Q2914 772 2911 814Q2833 852 2736 852Q2691 852 2645.0 842.0Q2599 832 2556 804Q2518 779 2493.5 745.5Q2469 712 2455.0 676.5Q2441 641 2436.0 607.0Q2431 573 2431 546Q2431 506 2440.5 462.5Q2450 419 2470.0 379.5Q2490 340 2521.0 307.0Q2552 274 2594 255Q2645 232 2702 232Q2762 232 2810.0 256.0Q2858 280 2888 322Q2917 362 2924.5 411.0Q2932 460 2932 526ZM2709 340Q2688 340 2669.0 357.5Q2650 375 2644 419H2775Q2771 379 2751.5 359.5Q2732 340 2709 340ZM3096 243 3103 319Q3115 300 3132.0 284.0Q3149 268 3167.5 256.5Q3186 245 3204.5 238.5Q3223 232 3239 232Q3241 258 3242.5 291.5Q3244 325 3244 360Q3244 400 3242.5 439.0Q3241 478 3239 511Q3230 507 3214.0 505.0Q3198 503 3187 503Q3150 503 3132.5 520.5Q3115 538 3115 564V841H2968Q2969 679 2969.5 533.5Q2970 388 2970 243ZM3340 280Q3374 253 3413.0 242.5Q3452 232 3492 232Q3521 232 3549.5 237.0Q3578 242 3604 250Q3606 311 3606.5 349.5Q3607 388 3607 409Q3607 439 3606.0 451.5Q3605 464 3604 475Q3602 475 3594.0 473.0Q3586 471 3575.0 469.0Q3564 467 3551.5 465.5Q3539 464 3527 464Q3509 464 3496.5 468.5Q3484 473 3484 486Q3484 497 3492.0 506.5Q3500 516 3511.5 525.5Q3523 535 3536.5 543.5Q3550 552 3562 559Q3589 577 3612.5 607.5Q3636 638 3636 688Q3636 732 3616.5 763.0Q3597 794 3567.0 814.0Q3537 834 3499.5 843.0Q3462 852 3426 852Q3412 852 3394.0 851.0Q3376 850 3357.5 847.0Q3339 844 3321.0 839.5Q3303 835 3288 828Q3283 811 3281.0 791.5Q3279 772 3279 753Q3279 744 3279.5 731.0Q3280 718 3281.0 704.5Q3282 691 3284.0 678.0Q3286 665 3288 656Q3299 661 3313.5 666.5Q3328 672 3344.0 677.0Q3360 682 3375.5 685.5Q3391 689 3405 689Q3425 689 3436.0 681.0Q3447 673 3447 659Q3447 647 3440.0 637.5Q3433 628 3423.0 619.5Q3413 611 3401.0 604.5Q3389 598 3379 593Q3360 583 3340.0 571.0Q3320 559 3304.0 541.5Q3288 524 3278.0 499.0Q3268 474 3268 438Q3268 396 3284.5 354.0Q3301 312 3340 280Z" /></svg>