<svg viewBox="0 0 3275 700" xmlns="http://www.w3.org/2000/svg"><path d="M202 308Q233 308 241.0 295.0Q249 282 249 251V115Q249 84 241.0 71.0Q233 58 202 58H80V673Q80 689 74.5 694.5Q69 700 53 700H0V27Q0 11 5.5 5.5Q11 0 27 0H234Q286 0 307.5 21.5Q329 43 329 95V271Q329 318 312.0 339.5Q295 361 254 365L355 700H304Q288 700 280.5 694.5Q273 689 268 673L175 366H145Q129 366 124.5 360.5Q120 355 120 339V308ZM681 307Q681 276 673.0 263.0Q665 250 634 250H461Q467 221 479.5 206.5Q492 192 521 192H666Q718 192 739.5 213.5Q761 235 761 287V700H708Q692 700 686.5 694.5Q681 689 681 673ZM536 700Q484 700 462.5 678.5Q441 657 441 605V495Q441 443 462.5 421.5Q484 400 536 400H621Q650 400 662.5 414.5Q675 429 681 458H568Q537 458 529.0 471.0Q521 484 521 515V593Q521 624 532.5 633.0Q544 642 575 642H641V673Q641 689 636.5 694.5Q632 700 616 700ZM1070 192Q1086 192 1090.5 197.5Q1095 203 1095 219V250H972V585Q972 616 980.0 629.0Q988 642 1019 642H1106Q1104 671 1094.5 685.5Q1085 700 1056 700H987Q935 700 913.5 678.5Q892 657 892 605V103Q892 87 897.5 81.5Q903 76 919 76H972V192ZM1191 85Q1191 69 1196.5 63.5Q1202 58 1218 58H1279V111Q1279 127 1273.5 132.5Q1268 138 1252 138H1191ZM1275 192V673Q1275 689 1269.5 694.5Q1264 700 1248 700H1195V219Q1195 203 1200.5 197.5Q1206 192 1222 192ZM1403 287Q1403 235 1424.5 213.5Q1446 192 1498 192H1638Q1690 192 1711.5 213.5Q1733 235 1733 287V605Q1733 657 1711.5 678.5Q1690 700 1638 700H1498Q1446 700 1424.5 678.5Q1403 657 1403 605ZM1530 250Q1499 250 1491.0 263.0Q1483 276 1483 307V585Q1483 616 1491.0 629.0Q1499 642 1530 642H1606Q1637 642 1645.0 629.0Q1653 616 1653 585V307Q1653 276 1645.0 263.0Q1637 250 1606 250ZM2096 192Q2148 192 2169.5 213.5Q2191 235 2191 287V673Q2191 689 2185.5 694.5Q2180 700 2164 700H2111V307Q2111 276 2103.0 263.0Q2095 250 2064 250H1941V673Q1941 689 1935.5 694.5Q1930 700 1914 700H1861V219Q1861 203 1866.5 197.5Q1872 192 1888 192H1941V250Q1947 221 1959.5 206.5Q1972 192 2001 192ZM2546 307Q2546 276 2538.0 263.0Q2530 250 2499 250H2326Q2332 221 2344.5 206.5Q2357 192 2386 192H2531Q2583 192 2604.5 213.5Q2626 235 2626 287V700H2573Q2557 700 2551.5 694.5Q2546 689 2546 673ZM2401 700Q2349 700 2327.5 678.5Q2306 657 2306 605V495Q2306 443 2327.5 421.5Q2349 400 2401 400H2486Q2515 400 2527.5 414.5Q2540 429 2546 458H2433Q2402 458 2394.0 471.0Q2386 484 2386 515V593Q2386 624 2397.5 633.0Q2409 642 2440 642H2506V673Q2506 689 2501.5 694.5Q2497 700 2481 700ZM2842 0V673Q2842 689 2836.5 694.5Q2831 700 2815 700H2762V27Q2762 11 2767.5 5.5Q2773 0 2789 0ZM3246 642V673Q3246 689 3241.5 694.5Q3237 700 3221 700H3070Q3018 700 2996.5 678.5Q2975 657 2975 605V287Q2975 235 2996.5 213.5Q3018 192 3070 192H3180Q3232 192 3253.5 213.5Q3275 235 3275 287V399Q3275 451 3253.5 472.5Q3232 494 3180 494H3120Q3104 494 3099.5 488.5Q3095 483 3095 467V436H3153Q3184 436 3192.0 423.0Q3200 410 3200 379V302Q3200 271 3190.0 260.5Q3180 250 3149 250H3106Q3073 250 3064.0 261.5Q3055 273 3055 307V585Q3055 616 3063.0 629.0Q3071 642 3102 642Z" /></svg>