<svg viewBox="0 0 18880 1556" xmlns="http://www.w3.org/2000/svg"><path d="M118 940V784H370Q486 784 555.0 703.5Q624 623 624 496Q624 373 552.0 299.5Q480 226 360 226H118V66H388Q511 66 604.0 118.0Q697 170 748.5 263.5Q800 357 800 482Q800 615 744.5 718.5Q689 822 588.5 881.0Q488 940 354 940ZM0 1540V66H176V1540ZM684 1540 344 912 476 806 880 1540ZM1422 1556Q1290 1556 1191.5 1486.0Q1093 1416 1038.5 1289.0Q984 1162 984 990Q984 828 1033.5 705.0Q1083 582 1175.0 513.0Q1267 444 1394 444Q1513 444 1601.5 506.0Q1690 568 1739.0 680.0Q1788 792 1788 942Q1788 978 1785.5 1009.5Q1783 1041 1780 1068H1112V928H1624Q1624 781 1563.0 690.5Q1502 600 1394 600Q1315 600 1260.0 650.0Q1205 700 1176.5 789.0Q1148 878 1148 996Q1148 1119 1181.0 1209.5Q1214 1300 1276.0 1350.0Q1338 1400 1424 1400Q1480 1400 1544.0 1376.0Q1608 1352 1660 1306L1722 1458Q1659 1504 1579.5 1530.0Q1500 1556 1422 1556ZM2822 1556Q2767 1526 2733.0 1495.0Q2699 1464 2682.5 1427.5Q2666 1391 2664 1344L2694 1372H2616L2660 1250V718L2618 600H2638V0H2806V1278Q2806 1329 2827.0 1355.0Q2848 1381 2888 1404ZM2358 1556Q2169 1556 2062.5 1406.5Q1956 1257 1956 998Q1956 740 2063.0 592.0Q2170 444 2360 444Q2543 444 2641.5 592.0Q2740 740 2740 998Q2740 1259 2640.5 1407.5Q2541 1556 2358 1556ZM2392 1400Q2517 1400 2585.5 1293.5Q2654 1187 2654 998Q2654 812 2585.5 706.0Q2517 600 2392 600Q2269 600 2196.5 706.0Q2124 812 2124 998Q2124 1184 2196.0 1292.0Q2268 1400 2392 1400ZM3906 1556Q3851 1526 3817.0 1495.0Q3783 1464 3766.5 1427.5Q3750 1391 3748 1344L3778 1372H3700L3744 1250V718L3702 600H3722V0H3890V1278Q3890 1329 3911.0 1355.0Q3932 1381 3972 1404ZM3442 1556Q3253 1556 3146.5 1406.5Q3040 1257 3040 998Q3040 740 3147.0 592.0Q3254 444 3444 444Q3627 444 3725.5 592.0Q3824 740 3824 998Q3824 1259 3724.5 1407.5Q3625 1556 3442 1556ZM3476 1400Q3601 1400 3669.5 1293.5Q3738 1187 3738 998Q3738 812 3669.5 706.0Q3601 600 3476 600Q3353 600 3280.5 706.0Q3208 812 3208 998Q3208 1184 3280.0 1292.0Q3352 1400 3476 1400ZM4192 1540V460H4360V1540ZM4276 310Q4221 310 4183.5 272.5Q4146 235 4146 180Q4146 125 4183.5 87.5Q4221 50 4276 50Q4331 50 4368.5 87.5Q4406 125 4406 180Q4406 235 4368.5 272.5Q4331 310 4276 310ZM4992 1556Q4857 1556 4785.5 1469.0Q4714 1382 4714 1244V138H4882V1228Q4882 1309 4916.5 1354.5Q4951 1400 5002 1400Q5020 1400 5039.0 1393.0Q5058 1386 5074 1376L5136 1524Q5111 1534 5075.0 1545.0Q5039 1556 4992 1556ZM4548 616V460H5110V616ZM6140 1556Q6055 1556 5975.0 1527.0Q5895 1498 5828.0 1450.0Q5761 1402 5716 1346L5792 1166Q5831 1224 5885.5 1275.5Q5940 1327 6003.0 1359.5Q6066 1392 6132 1392Q6197 1392 6251.5 1359.0Q6306 1326 6339.0 1268.0Q6372 1210 6372 1136Q6372 1065 6339.5 1013.5Q6307 962 6246.0 923.5Q6185 885 6100 852Q5991 809 5911.5 748.0Q5832 687 5789.0 606.5Q5746 526 5746 424Q5746 314 5794.5 229.5Q5843 145 5928.5 97.5Q6014 50 6124 50Q6232 50 6332.5 98.0Q6433 146 6500 226L6432 390Q6391 337 6341.0 297.5Q6291 258 6236.5 236.0Q6182 214 6128 214Q6035 214 5978.5 276.0Q5922 338 5922 428Q5922 534 5993.5 598.5Q6065 663 6186 710Q6282 747 6364.5 801.0Q6447 855 6497.5 936.5Q6548 1018 6548 1138Q6548 1263 6492.5 1357.0Q6437 1451 6344.5 1503.5Q6252 1556 6140 1556ZM7010 1556Q6920 1556 6850.0 1514.0Q6780 1472 6740.0 1399.0Q6700 1326 6700 1234Q6700 1076 6811.5 988.0Q6923 900 7106 900H7296V1036H7112Q6994 1036 6927.0 1087.0Q6860 1138 6860 1228Q6860 1310 6909.0 1361.0Q6958 1412 7036 1412Q7099 1412 7152.0 1378.5Q7205 1345 7236.5 1286.5Q7268 1228 7268 1152V1030L7264 972V782Q7264 698 7208.0 649.0Q7152 600 7068 600Q7002 600 6930.0 627.5Q6858 655 6810 700L6746 552Q6814 501 6907.0 472.5Q7000 444 7082 444Q7235 444 7329.5 531.5Q7424 619 7424 766V1270Q7424 1321 7440.0 1350.0Q7456 1379 7486 1396L7504 1406L7440 1556L7416 1544Q7356 1514 7321.5 1463.0Q7287 1412 7284 1370L7314 1402H7254L7306 1364Q7266 1451 7189.0 1503.5Q7112 1556 7010 1556ZM7704 1540V460H7872V580H7910L7842 648Q7874 550 7958.0 497.0Q8042 444 8144 444Q8285 444 8370.5 543.5Q8456 643 8456 804V1540H8288V824Q8288 722 8233.5 659.0Q8179 596 8090 596Q8026 596 7977.0 625.0Q7928 654 7900.0 705.5Q7872 757 7872 826V1540ZM8996 1556Q8903 1556 8807.5 1512.5Q8712 1469 8644 1394L8712 1242Q8772 1317 8847.0 1360.5Q8922 1404 8988 1404Q9059 1404 9105.5 1357.5Q9152 1311 9152 1244Q9152 1175 9102.0 1127.5Q9052 1080 8948 1046Q8870 1020 8808.5 974.0Q8747 928 8711.5 865.0Q8676 802 8676 724Q8676 640 8717.0 577.0Q8758 514 8827.5 479.0Q8897 444 8984 444Q9067 444 9147.0 476.0Q9227 508 9278 564L9216 712Q9171 658 9109.5 627.0Q9048 596 8988 596Q8924 596 8882.0 634.0Q8840 672 8840 732Q8840 796 8889.5 841.5Q8939 887 9042 922Q9120 948 9182.0 991.5Q9244 1035 9280.0 1098.0Q9316 1161 9316 1246Q9316 1336 9274.0 1406.0Q9232 1476 9159.5 1516.0Q9087 1556 8996 1556ZM10548 1556Q10359 1556 10219.0 1463.0Q10079 1370 10001.5 1200.5Q9924 1031 9924 802Q9924 574 10002.0 405.0Q10080 236 10222.0 143.0Q10364 50 10556 50Q10660 50 10769.0 87.0Q10878 124 10950 184L10882 348Q10828 286 10742.5 248.0Q10657 210 10570 210Q10427 210 10321.5 283.5Q10216 357 10158.0 490.0Q10100 623 10100 802Q10100 981 10156.5 1114.5Q10213 1248 10316.5 1322.0Q10420 1396 10560 1396Q10653 1396 10740.0 1351.5Q10827 1307 10882 1238L10952 1404Q10874 1474 10764.5 1515.0Q10655 1556 10548 1556ZM11504 1556Q11372 1556 11274.5 1486.0Q11177 1416 11123.5 1289.5Q11070 1163 11070 994Q11070 828 11123.5 704.5Q11177 581 11274.5 512.5Q11372 444 11504 444Q11635 444 11732.0 512.5Q11829 581 11882.5 704.5Q11936 828 11936 994Q11936 1164 11882.5 1290.5Q11829 1417 11732.0 1486.5Q11635 1556 11504 1556ZM11504 1400Q11624 1400 11696.0 1290.0Q11768 1180 11768 994Q11768 815 11696.0 707.5Q11624 600 11504 600Q11383 600 11310.5 707.5Q11238 815 11238 994Q11238 1178 11310.5 1289.0Q11383 1400 11504 1400ZM12148 1540V460H12316V580H12354L12286 648Q12318 550 12402.0 497.0Q12486 444 12588 444Q12729 444 12814.5 543.5Q12900 643 12900 804V1540H12732V824Q12732 722 12677.5 659.0Q12623 596 12534 596Q12470 596 12421.0 625.0Q12372 654 12344.0 705.5Q12316 757 12316 826V1540ZM13974 1556Q13919 1526 13885.0 1495.0Q13851 1464 13834.5 1427.5Q13818 1391 13816 1344L13846 1372H13768L13812 1250V718L13770 600H13790V0H13958V1278Q13958 1329 13979.0 1355.0Q14000 1381 14040 1404ZM13510 1556Q13321 1556 13214.5 1406.5Q13108 1257 13108 998Q13108 740 13215.0 592.0Q13322 444 13512 444Q13695 444 13793.5 592.0Q13892 740 13892 998Q13892 1259 13792.5 1407.5Q13693 1556 13510 1556ZM13544 1400Q13669 1400 13737.5 1293.5Q13806 1187 13806 998Q13806 812 13737.5 706.0Q13669 600 13544 600Q13421 600 13348.5 706.0Q13276 812 13276 998Q13276 1184 13348.0 1292.0Q13420 1400 13544 1400ZM14630 1556Q14498 1556 14399.5 1486.0Q14301 1416 14246.5 1289.0Q14192 1162 14192 990Q14192 828 14241.5 705.0Q14291 582 14383.0 513.0Q14475 444 14602 444Q14721 444 14809.5 506.0Q14898 568 14947.0 680.0Q14996 792 14996 942Q14996 978 14993.5 1009.5Q14991 1041 14988 1068H14320V928H14832Q14832 781 14771.0 690.5Q14710 600 14602 600Q14523 600 14468.0 650.0Q14413 700 14384.5 789.0Q14356 878 14356 996Q14356 1119 14389.0 1209.5Q14422 1300 14484.0 1350.0Q14546 1400 14632 1400Q14688 1400 14752.0 1376.0Q14816 1352 14868 1306L14930 1458Q14867 1504 14787.5 1530.0Q14708 1556 14630 1556ZM15208 1540V460H15376V580H15414L15346 648Q15378 550 15462.0 497.0Q15546 444 15648 444Q15789 444 15874.5 543.5Q15960 643 15960 804V1540H15792V824Q15792 722 15737.5 659.0Q15683 596 15594 596Q15530 596 15481.0 625.0Q15432 654 15404.0 705.5Q15376 757 15376 826V1540ZM16500 1556Q16407 1556 16311.5 1512.5Q16216 1469 16148 1394L16216 1242Q16276 1317 16351.0 1360.5Q16426 1404 16492 1404Q16563 1404 16609.5 1357.5Q16656 1311 16656 1244Q16656 1175 16606.0 1127.5Q16556 1080 16452 1046Q16374 1020 16312.5 974.0Q16251 928 16215.5 865.0Q16180 802 16180 724Q16180 640 16221.0 577.0Q16262 514 16331.5 479.0Q16401 444 16488 444Q16571 444 16651.0 476.0Q16731 508 16782 564L16720 712Q16675 658 16613.5 627.0Q16552 596 16492 596Q16428 596 16386.0 634.0Q16344 672 16344 732Q16344 796 16393.5 841.5Q16443 887 16546 922Q16624 948 16686.0 991.5Q16748 1035 16784.0 1098.0Q16820 1161 16820 1246Q16820 1336 16778.0 1406.0Q16736 1476 16663.5 1516.0Q16591 1556 16500 1556ZM17414 1556Q17282 1556 17183.5 1486.0Q17085 1416 17030.5 1289.0Q16976 1162 16976 990Q16976 828 17025.5 705.0Q17075 582 17167.0 513.0Q17259 444 17386 444Q17505 444 17593.5 506.0Q17682 568 17731.0 680.0Q17780 792 17780 942Q17780 978 17777.5 1009.5Q17775 1041 17772 1068H17104V928H17616Q17616 781 17555.0 690.5Q17494 600 17386 600Q17307 600 17252.0 650.0Q17197 700 17168.5 789.0Q17140 878 17140 996Q17140 1119 17173.0 1209.5Q17206 1300 17268.0 1350.0Q17330 1400 17416 1400Q17472 1400 17536.0 1376.0Q17600 1352 17652 1306L17714 1458Q17651 1504 17571.5 1530.0Q17492 1556 17414 1556ZM18814 1556Q18759 1526 18725.0 1495.0Q18691 1464 18674.5 1427.5Q18658 1391 18656 1344L18686 1372H18608L18652 1250V718L18610 600H18630V0H18798V1278Q18798 1329 18819.0 1355.0Q18840 1381 18880 1404ZM18350 1556Q18161 1556 18054.5 1406.5Q17948 1257 17948 998Q17948 740 18055.0 592.0Q18162 444 18352 444Q18535 444 18633.5 592.0Q18732 740 18732 998Q18732 1259 18632.5 1407.5Q18533 1556 18350 1556ZM18384 1400Q18509 1400 18577.5 1293.5Q18646 1187 18646 998Q18646 812 18577.5 706.0Q18509 600 18384 600Q18261 600 18188.5 706.0Q18116 812 18116 998Q18116 1184 18188.0 1292.0Q18260 1400 18384 1400Z" fill="currentColor" /></svg>