<svg viewBox="0 0 4674 751" xmlns="http://www.w3.org/2000/svg"><path d="M559 728Q559 735 554.0 743.0Q549 751 540 751Q535 751 529 748Q493 731 445.0 720.5Q397 710 346.5 702.0Q296 694 248.0 684.5Q200 675 164 660Q170 673 176.0 681.0Q182 689 186.5 695.0Q191 701 194.0 706.5Q197 712 197 721Q197 729 191.0 733.0Q185 737 179 737Q167 737 153.5 722.0Q140 707 126.0 684.0Q112 661 98.5 632.5Q85 604 74.0 577.0Q63 550 55.0 527.5Q47 505 44 493L0 317Q0 314 1.5 309.0Q3 304 9 299Q5 291 5 282Q5 254 37.0 230.5Q69 207 114.5 190.5Q160 174 210.0 165.0Q260 156 295 156Q305 156 325.0 157.5Q345 159 364.5 165.0Q384 171 398.5 183.5Q413 196 413 218Q413 239 391.5 266.0Q370 293 338.0 323.0Q306 353 269.0 384.5Q232 416 200.0 447.5Q168 479 146.5 508.5Q125 538 125 563Q125 582 141.5 596.5Q158 611 183.0 622.0Q208 633 237.5 641.0Q267 649 293.5 654.0Q320 659 339.5 661.5Q359 664 363 664Q376 664 408.0 667.0Q440 670 473.5 677.5Q507 685 533.0 697.0Q559 709 559 728ZM366 219Q366 212 359.0 206.5Q352 201 340.5 197.5Q329 194 315.5 192.5Q302 191 289 191Q269 191 241.0 197.0Q213 203 184.5 212.0Q156 221 132.0 230.0Q108 239 97 245Q76 257 56.0 271.5Q36 286 36 300Q36 302 39.0 304.0Q42 306 42 311Q42 317 48.0 341.5Q54 366 62.0 396.5Q70 427 79.5 457.0Q89 487 97 505Q138 447 185.5 403.5Q233 360 273.0 326.5Q313 293 339.5 267.5Q366 242 366 219ZM797 577Q798 579 798 583Q798 589 789 601Q786 605 776.0 614.0Q766 623 749.0 632.0Q732 641 707.5 648.0Q683 655 650 655Q627 655 605.0 644.5Q583 634 566.0 613.5Q549 593 538.0 562.5Q527 532 527 491Q527 452 537.0 418.0Q547 384 562.5 358.0Q578 332 597.0 317.0Q616 302 634 302Q650 302 666.5 308.5Q683 315 696.5 325.0Q710 335 718.0 347.5Q726 360 726 373Q726 388 712.5 404.0Q699 420 680.0 433.5Q661 447 642.0 455.5Q623 464 612 464Q606 464 601.5 458.5Q597 453 597 445Q597 431 609.5 423.0Q622 415 637.0 408.5Q652 402 664.5 393.0Q677 384 677 368Q677 366 672.0 358.0Q667 350 645 350Q635 350 622.0 361.5Q609 373 597.0 392.5Q585 412 577.0 438.5Q569 465 569 496Q569 522 578.5 543.0Q588 564 603.0 578.5Q618 593 638.0 601.0Q658 609 679 609Q694 609 711.5 602.5Q729 596 744.5 588.5Q760 581 771.5 574.5Q783 568 786 568Q789 568 792.5 571.0Q796 574 797 577ZM1146 577Q1147 579 1147 583Q1147 589 1138 601Q1135 605 1125.0 614.0Q1115 623 1098.0 632.0Q1081 641 1056.5 648.0Q1032 655 999 655Q976 655 954.0 644.5Q932 634 915.0 613.5Q898 593 887.0 562.5Q876 532 876 491Q876 452 886.0 418.0Q896 384 911.5 358.0Q927 332 946.0 317.0Q965 302 983 302Q999 302 1015.5 308.5Q1032 315 1045.5 325.0Q1059 335 1067.0 347.5Q1075 360 1075 373Q1075 388 1061.5 404.0Q1048 420 1029.0 433.5Q1010 447 991.0 455.5Q972 464 961 464Q955 464 950.5 458.5Q946 453 946 445Q946 431 958.5 423.0Q971 415 986.0 408.5Q1001 402 1013.5 393.0Q1026 384 1026 368Q1026 366 1021.0 358.0Q1016 350 994 350Q984 350 971.0 361.5Q958 373 946.0 392.5Q934 412 926.0 438.5Q918 465 918 496Q918 522 927.5 543.0Q937 564 952.0 578.5Q967 593 987.0 601.0Q1007 609 1028 609Q1043 609 1060.5 602.5Q1078 596 1093.5 588.5Q1109 581 1120.5 574.5Q1132 568 1135 568Q1138 568 1141.5 571.0Q1145 574 1146 577ZM1517 559Q1517 565 1513.0 571.0Q1509 577 1503.5 582.0Q1498 587 1491.5 590.5Q1485 594 1480 594Q1463 594 1436.5 586.5Q1410 579 1394 563Q1377 546 1364.0 522.5Q1351 499 1335 453Q1324 497 1309.5 540.0Q1295 583 1263 619Q1261 621 1257 621Q1250 621 1242.0 614.0Q1234 607 1234 600Q1234 593 1232.5 567.5Q1231 542 1229.0 510.5Q1227 479 1225.5 446.5Q1224 414 1224 393Q1224 383 1225.0 366.5Q1226 350 1231 338Q1232 336 1238.5 330.0Q1245 324 1253 324Q1260 324 1261.0 333.0Q1262 342 1262 353V511Q1262 516 1263.5 525.0Q1265 534 1268 538Q1279 514 1288.5 481.5Q1298 449 1307.0 419.5Q1316 390 1325.0 369.5Q1334 349 1343 349Q1353 349 1359.0 353.0Q1365 357 1369 369Q1374 398 1377.0 420.5Q1380 443 1384.5 461.0Q1389 479 1397.5 494.5Q1406 510 1421 523Q1435 536 1452.5 542.0Q1470 548 1483 548Q1489 548 1496.0 545.5Q1503 543 1506 543Q1510 543 1513.5 550.0Q1517 557 1517 559ZM1628 222Q1628 224 1621.0 230.0Q1614 236 1604.5 242.5Q1595 249 1585.0 254.0Q1575 259 1569 259Q1565 259 1558.5 258.5Q1552 258 1545.5 255.0Q1539 252 1534.0 246.5Q1529 241 1529 232Q1529 218 1539.0 205.5Q1549 193 1565 193Q1568 193 1578.5 195.5Q1589 198 1600.0 202.0Q1611 206 1619.5 211.0Q1628 216 1628 222ZM1661 596Q1661 603 1650.5 608.0Q1640 613 1635 613Q1625 613 1617.0 600.0Q1609 587 1603.0 570.0Q1597 553 1593.0 537.5Q1589 522 1587 516Q1584 506 1579.0 492.0Q1574 478 1569.5 465.0Q1565 452 1562.0 442.0Q1559 432 1559 431Q1559 417 1564.5 405.0Q1570 393 1578 393Q1587 393 1597.0 407.0Q1607 421 1616.5 442.5Q1626 464 1634.0 489.5Q1642 515 1648.0 537.5Q1654 560 1657.5 576.5Q1661 593 1661 596ZM2002 577Q2003 579 2003 583Q2003 589 1994 601Q1991 605 1981.0 614.0Q1971 623 1954.0 632.0Q1937 641 1912.5 648.0Q1888 655 1855 655Q1832 655 1810.0 644.5Q1788 634 1771.0 613.5Q1754 593 1743.0 562.5Q1732 532 1732 491Q1732 452 1742.0 418.0Q1752 384 1767.5 358.0Q1783 332 1802.0 317.0Q1821 302 1839 302Q1855 302 1871.5 308.5Q1888 315 1901.5 325.0Q1915 335 1923.0 347.5Q1931 360 1931 373Q1931 388 1917.5 404.0Q1904 420 1885.0 433.5Q1866 447 1847.0 455.5Q1828 464 1817 464Q1811 464 1806.5 458.5Q1802 453 1802 445Q1802 431 1814.5 423.0Q1827 415 1842.0 408.5Q1857 402 1869.5 393.0Q1882 384 1882 368Q1882 366 1877.0 358.0Q1872 350 1850 350Q1840 350 1827.0 361.5Q1814 373 1802.0 392.5Q1790 412 1782.0 438.5Q1774 465 1774 496Q1774 522 1783.5 543.0Q1793 564 1808.0 578.5Q1823 593 1843.0 601.0Q1863 609 1884 609Q1899 609 1916.5 602.5Q1934 596 1949.5 588.5Q1965 581 1976.5 574.5Q1988 568 1991 568Q1994 568 1997.5 571.0Q2001 574 2002 577ZM2963 381Q2963 407 2951.0 432.0Q2939 457 2921.0 479.0Q2903 501 2882.0 519.5Q2861 538 2844 551Q2826 565 2802.0 581.0Q2778 597 2755.5 611.0Q2733 625 2716.0 636.5Q2699 648 2695 652L2666 675Q2661 679 2654.5 680.0Q2648 681 2644 681Q2637 681 2633.0 673.5Q2629 666 2629 658Q2629 652 2640.5 636.5Q2652 621 2667 610Q2682 599 2704.0 588.0Q2726 577 2764 553Q2783 541 2810.0 521.5Q2837 502 2861.0 479.5Q2885 457 2902.0 432.5Q2919 408 2919 385Q2919 376 2897.5 366.5Q2876 357 2837 357Q2797 357 2753.0 369.0Q2709 381 2671.5 395.0Q2634 409 2607.0 421.0Q2580 433 2574 433Q2577 456 2581.5 489.5Q2586 523 2591 554Q2596 590 2602 629H2606Q2608 639 2614.0 658.0Q2620 677 2620 688Q2620 704 2608 704Q2602 704 2594.5 693.0Q2587 682 2579.5 667.0Q2572 652 2566.5 637.5Q2561 623 2559 617Q2550 584 2541.5 541.0Q2533 498 2526.5 454.5Q2520 411 2516.5 372.5Q2513 334 2513 309Q2513 302 2516.5 297.0Q2520 292 2520 287Q2520 282 2517.5 279.5Q2515 277 2515 271Q2515 268 2516.5 264.5Q2518 261 2525 261Q2532 263 2538.5 263.0Q2545 263 2550.0 265.5Q2555 268 2558.0 274.0Q2561 280 2561 293V299Q2561 301 2560.5 303.5Q2560 306 2560 308Q2560 325 2561.0 335.0Q2562 345 2564 345Q2567 345 2585.5 330.5Q2604 316 2630.0 294.0Q2656 272 2686.5 245.0Q2717 218 2745 193Q2756 183 2775.0 164.5Q2794 146 2812.5 125.0Q2831 104 2844.5 85.5Q2858 67 2858 57Q2858 47 2852 47Q2844 47 2818.0 54.0Q2792 61 2759.0 72.5Q2726 84 2691.0 99.0Q2656 114 2629 130Q2601 149 2573.0 172.0Q2545 195 2522.5 215.5Q2500 236 2485.5 250.5Q2471 265 2470 267Q2468 269 2468 271Q2468 273 2469.5 276.5Q2471 280 2471 282Q2471 285 2467.0 287.0Q2463 289 2458 289Q2450 289 2438.0 285.5Q2426 282 2426 266Q2426 252 2442.0 231.0Q2458 210 2483.5 186.0Q2509 162 2540.0 138.5Q2571 115 2601 95Q2631 76 2666.5 58.5Q2702 41 2736.5 28.0Q2771 15 2802.0 7.5Q2833 0 2853 0Q2861 0 2871.0 2.0Q2881 4 2890.0 8.0Q2899 12 2905.0 18.5Q2911 25 2911 34Q2911 61 2895.0 89.5Q2879 118 2853.0 147.0Q2827 176 2794.5 205.5Q2762 235 2729.5 262.5Q2697 290 2667.0 315.5Q2637 341 2617 362Q2628 358 2653.0 348.5Q2678 339 2707.5 329.5Q2737 320 2767.0 313.0Q2797 306 2820 306Q2827 306 2850.0 307.0Q2873 308 2898.0 315.0Q2923 322 2943.0 337.5Q2963 353 2963 381ZM3330 577Q3331 579 3331 583Q3331 589 3322 601Q3319 605 3309.0 614.0Q3299 623 3282.0 632.0Q3265 641 3240.5 648.0Q3216 655 3183 655Q3160 655 3138.0 644.5Q3116 634 3099.0 613.5Q3082 593 3071.0 562.5Q3060 532 3060 491Q3060 452 3070.0 418.0Q3080 384 3095.5 358.0Q3111 332 3130.0 317.0Q3149 302 3167 302Q3183 302 3199.5 308.5Q3216 315 3229.5 325.0Q3243 335 3251.0 347.5Q3259 360 3259 373Q3259 388 3245.5 404.0Q3232 420 3213.0 433.5Q3194 447 3175.0 455.5Q3156 464 3145 464Q3139 464 3134.5 458.5Q3130 453 3130 445Q3130 431 3142.5 423.0Q3155 415 3170.0 408.5Q3185 402 3197.5 393.0Q3210 384 3210 368Q3210 366 3205.0 358.0Q3200 350 3178 350Q3168 350 3155.0 361.5Q3142 373 3130.0 392.5Q3118 412 3110.0 438.5Q3102 465 3102 496Q3102 522 3111.5 543.0Q3121 564 3136.0 578.5Q3151 593 3171.0 601.0Q3191 609 3212 609Q3227 609 3244.5 602.5Q3262 596 3277.5 588.5Q3293 581 3304.5 574.5Q3316 568 3319 568Q3322 568 3325.5 571.0Q3329 574 3330 577ZM3876 474Q3876 492 3859.5 518.5Q3843 545 3815.0 570.0Q3787 595 3750.0 612.5Q3713 630 3673 630Q3655 630 3635.0 624.0Q3615 618 3596.0 606.5Q3577 595 3562.0 578.5Q3547 562 3540 541Q3534 547 3525.5 561.0Q3517 575 3507.0 589.5Q3497 604 3485.0 614.5Q3473 625 3460 625Q3447 625 3438.5 611.5Q3430 598 3425.0 581.5Q3420 565 3418.0 550.0Q3416 535 3416 533Q3416 521 3423.0 487.5Q3430 454 3444.0 418.0Q3458 382 3479.5 354.0Q3501 326 3530 326Q3541 326 3544.5 335.5Q3548 345 3548 354V384Q3553 388 3558.5 389.5Q3564 391 3568.5 393.5Q3573 396 3575.5 401.0Q3578 406 3578 417Q3578 424 3577.0 429.5Q3576 435 3576 440Q3576 466 3580.0 491.0Q3584 516 3596.0 535.5Q3608 555 3629.0 567.5Q3650 580 3685 580Q3729 580 3759.5 561.5Q3790 543 3810.5 520.5Q3831 498 3843.0 479.5Q3855 461 3863 461Q3876 461 3876 474ZM3525 430Q3525 426 3523.0 422.5Q3521 419 3521 416Q3521 412 3523.0 409.0Q3525 406 3525 401Q3525 398 3523.0 396.5Q3521 395 3521 393Q3512 395 3502.5 410.0Q3493 425 3484.5 445.0Q3476 465 3471.0 485.5Q3466 506 3466 519Q3466 526 3470.0 542.0Q3474 558 3479 563Q3496 528 3510.5 495.0Q3525 462 3525 430ZM4188 559Q4188 565 4184.0 571.0Q4180 577 4174.5 582.0Q4169 587 4162.5 590.5Q4156 594 4151 594Q4134 594 4107.5 586.5Q4081 579 4065 563Q4048 546 4035.0 522.5Q4022 499 4006 453Q3995 497 3980.5 540.0Q3966 583 3934 619Q3932 621 3928 621Q3921 621 3913.0 614.0Q3905 607 3905 600Q3905 593 3903.5 567.5Q3902 542 3900.0 510.5Q3898 479 3896.5 446.5Q3895 414 3895 393Q3895 383 3896.0 366.5Q3897 350 3902 338Q3903 336 3909.5 330.0Q3916 324 3924 324Q3931 324 3932.0 333.0Q3933 342 3933 353V511Q3933 516 3934.5 525.0Q3936 534 3939 538Q3950 514 3959.5 481.5Q3969 449 3978.0 419.5Q3987 390 3996.0 369.5Q4005 349 4014 349Q4024 349 4030.0 353.0Q4036 357 4040 369Q4045 398 4048.0 420.5Q4051 443 4055.5 461.0Q4060 479 4068.5 494.5Q4077 510 4092 523Q4106 536 4123.5 542.0Q4141 548 4154 548Q4160 548 4167.0 545.5Q4174 543 4177 543Q4181 543 4184.5 550.0Q4188 557 4188 559ZM4299 222Q4299 224 4292.0 230.0Q4285 236 4275.5 242.5Q4266 249 4256.0 254.0Q4246 259 4240 259Q4236 259 4229.5 258.5Q4223 258 4216.5 255.0Q4210 252 4205.0 246.5Q4200 241 4200 232Q4200 218 4210.0 205.5Q4220 193 4236 193Q4239 193 4249.5 195.5Q4260 198 4271.0 202.0Q4282 206 4290.5 211.0Q4299 216 4299 222ZM4332 596Q4332 603 4321.5 608.0Q4311 613 4306 613Q4296 613 4288.0 600.0Q4280 587 4274.0 570.0Q4268 553 4264.0 537.5Q4260 522 4258 516Q4255 506 4250.0 492.0Q4245 478 4240.5 465.0Q4236 452 4233.0 442.0Q4230 432 4230 431Q4230 417 4235.5 405.0Q4241 393 4249 393Q4258 393 4268.0 407.0Q4278 421 4287.5 442.5Q4297 464 4305.0 489.5Q4313 515 4319.0 537.5Q4325 560 4328.5 576.5Q4332 593 4332 596ZM4673 577Q4674 579 4674 583Q4674 589 4665 601Q4662 605 4652.0 614.0Q4642 623 4625.0 632.0Q4608 641 4583.5 648.0Q4559 655 4526 655Q4503 655 4481.0 644.5Q4459 634 4442.0 613.5Q4425 593 4414.0 562.5Q4403 532 4403 491Q4403 452 4413.0 418.0Q4423 384 4438.5 358.0Q4454 332 4473.0 317.0Q4492 302 4510 302Q4526 302 4542.5 308.5Q4559 315 4572.5 325.0Q4586 335 4594.0 347.5Q4602 360 4602 373Q4602 388 4588.5 404.0Q4575 420 4556.0 433.5Q4537 447 4518.0 455.5Q4499 464 4488 464Q4482 464 4477.5 458.5Q4473 453 4473 445Q4473 431 4485.5 423.0Q4498 415 4513.0 408.5Q4528 402 4540.5 393.0Q4553 384 4553 368Q4553 366 4548.0 358.0Q4543 350 4521 350Q4511 350 4498.0 361.5Q4485 373 4473.0 392.5Q4461 412 4453.0 438.5Q4445 465 4445 496Q4445 522 4454.5 543.0Q4464 564 4479.0 578.5Q4494 593 4514.0 601.0Q4534 609 4555 609Q4570 609 4587.5 602.5Q4605 596 4620.5 588.5Q4636 581 4647.5 574.5Q4659 568 4662 568Q4665 568 4668.5 571.0Q4672 574 4673 577Z" fill="currentColor" /></svg>