<svg viewBox="0 0 16405.0 2075" xmlns="http://www.w3.org/2000/svg"><path d="M303 1383Q353 1378 434 1378L469 131Q385 135 323 141ZM1055 1401Q964 1275 964 971V935Q964 917 966 903Q865 921 829 924Q825 952 825.0 1005.5Q825 1059 834.5 1126.0Q844 1193 870 1251Q927 1383 1055 1401ZM555 807Q622 821 706.0 821.0Q790 821 853.0 814.0Q916 807 976.5 791.0Q1037 775 1091.0 748.5Q1145 722 1186 683Q1274 596 1274 465Q1274 268 1087 189Q974 142 854.0 133.5Q734 125 681 125H609Q590 125 573 127ZM1337 1133 1335 1102Q1335 1079 1351.5 1065.0Q1368 1051 1388 1051Q1408 1051 1423.0 1064.5Q1438 1078 1440 1098L1442 1133Q1442 1298 1348 1401Q1252 1507 1096 1507H1093Q833 1500 753 1233Q721 1127 721 995L723 928Q646 928 553 914L538 1432Q538 1456 522.5 1469.5Q507 1483 485 1483Q251 1483 59 1507H53Q30 1507 15.0 1491.5Q0 1476 0 1456Q0 1436 12.5 1421.0Q25 1406 53.5 1402.0Q82 1398 120.5 1395.0Q159 1392 196 1389L219 156L67 186Q60 191 45.0 191.0Q30 191 15.0 175.0Q0 159 0 139Q0 99 37 88Q238 21 651 21Q883 33 988.5 57.0Q1094 81 1161.0 111.5Q1228 142 1276 190Q1378 290 1378 465Q1378 608 1293 719Q1212 825 1073 871Q1069 917 1069.0 952.5Q1069 988 1070.0 1026.0Q1071 1064 1075.0 1109.0Q1079 1154 1087.5 1201.0Q1096 1248 1110 1287Q1143 1374 1200 1374Q1270 1374 1308 1281Q1337 1212 1337 1133ZM2013 617Q1962 625 1876 625H1868V1378Q1887 1376 1905 1376Q1941 1376 1968.0 1376.0Q1995 1376 2013 1378ZM2001 199Q2001 168 1979.5 146.5Q1958 125 1927 125Q1896 125 1875.0 146.5Q1854 168 1854 199Q1854 230 1875.0 251.0Q1896 272 1927 272Q1958 272 1979.5 251.0Q2001 230 2001 199ZM2251 1514Q2086 1481 1943.0 1481.0Q1800 1481 1635 1514Q1612 1514 1597.5 1497.0Q1583 1480 1583.0 1461.0Q1583 1442 1594.5 1427.0Q1606 1412 1632.5 1406.5Q1659 1401 1694.5 1396.5Q1730 1392 1764 1387V621L1610 608Q1590 605 1577.5 590.0Q1565 575 1565.0 552.5Q1565 530 1583.0 517.0Q1601 504 1618 504H1624Q1625 504 1647.0 506.5Q1669 509 1704 512Q1799 520 1878 520Q1988 520 2056 504H2067Q2090 504 2105.0 519.5Q2120 535 2120 555L2118 1387Q2153 1392 2188.5 1396.5Q2224 1401 2252 1407Q2304 1417 2304 1460Q2304 1483 2287.0 1498.5Q2270 1514 2251 1514ZM2106 199Q2106 274 2054 325Q2000 377 1927 377Q1853 377 1801.0 325.0Q1749 273 1749 199Q1749 125 1801.0 73.0Q1853 21 1927 21Q2000 21 2054 73Q2106 124 2106 199ZM2557 174 2552 752Q2552 1007 2556.5 1095.5Q2561 1184 2586.0 1247.0Q2611 1310 2655 1357Q2748 1456 2890 1460Q2712 1352 2706 1063Q2702 949 2702.0 792.5Q2702 636 2703.0 470.0Q2704 304 2704 152Q2642 167 2557 174ZM3363 953Q3363 874 3349.0 805.5Q3335 737 3303 686Q3236 576 3095 576Q2983 576 2891 678Q2814 761 2806 825Q2806 1107 2825.0 1183.5Q2844 1260 2874 1305Q2938 1401 3058 1401Q3208 1401 3291 1257Q3363 1132 3363 953ZM2452 1103Q2448 992 2448.0 665.0Q2448 338 2452 178Q2369 178 2317.0 171.0Q2265 164 2253.0 161.5Q2241 159 2229.0 144.0Q2217 129 2217.0 113.5Q2217 98 2222.5 88.0Q2228 78 2236 71Q2252 57 2262 57H2274Q2276 57 2277.5 58.0Q2279 59 2293.0 61.0Q2307 63 2331 65Q2393 72 2457 72Q2617 72 2743 35Q2751 31 2765.5 31.0Q2780 31 2795.5 47.5Q2811 64 2811 84V86Q2811 87 2810.0 130.5Q2809 174 2808.5 246.5Q2808 319 2807.0 414.0Q2806 509 2806 612Q2877 512 3006 481Q3048 471 3119.5 471.0Q3191 471 3262.0 508.5Q3333 546 3379 611Q3468 739 3468 952Q3468 1216 3323 1386Q3170 1565 2913 1565Q2721 1565 2591 1438Q2459 1310 2452 1103ZM4001 594Q3738 689 3738 993Q3738 1184 3870 1313Q3911 1353 3964 1380Q3878 1252 3878 1030Q3878 873 3901 796Q3937 674 4001 594ZM3984 987Q4096 1022 4241.0 1022.0Q4386 1022 4523 961V944Q4523 702 4368 610Q4314 578 4238 567Q3994 595 3984 987ZM4627 942 4625 1000Q4615 1083 4361 1118Q4280 1129 4189.5 1129.0Q4099 1129 3986 1098Q4008 1325 4138 1405Q4186 1434 4232.5 1434.0Q4279 1434 4311.0 1427.5Q4343 1421 4374 1409Q4444 1380 4472 1339Q4489 1319 4511.5 1319.0Q4534 1319 4550.0 1335.5Q4566 1352 4566.0 1372.5Q4566 1393 4553 1405Q4510 1472 4393 1511Q4176 1582 3976 1499Q3766 1413 3678 1209Q3634 1109 3634.0 987.5Q3634 866 3672.0 766.5Q3710 667 3780 599Q3923 459 4175 459Q4627 478 4627 942ZM4856 1718Q4856 1687 4834.5 1666.0Q4813 1645 4782 1645Q4751 1645 4729.5 1666.0Q4708 1687 4708 1718Q4708 1749 4729.5 1770.5Q4751 1792 4782 1792Q4813 1792 4834.5 1770.5Q4856 1749 4856 1718ZM5704 545Q5684 547 5664 547H5556Q5460 964 5385.5 1210.0Q5311 1456 5288 1520Q5178 1821 5050 1952Q5244 1883 5367 1649Q5422 1545 5449.0 1462.5Q5476 1380 5495.0 1317.0Q5514 1254 5534.5 1182.5Q5555 1111 5575.0 1037.0Q5595 963 5614.5 890.5Q5634 818 5650.5 753.5Q5667 689 5681.0 635.0Q5695 581 5704 545ZM5378 428Q5486 442 5626.0 442.0Q5766 442 5876 428H5882Q5905 428 5920.0 444.5Q5935 461 5935 481Q5935 501 5921.5 516.0Q5908 531 5888.5 533.5Q5869 536 5850.5 537.5Q5832 539 5812 541Q5805 569 5792.5 619.5Q5780 670 5763.0 735.0Q5746 800 5726.5 876.0Q5707 952 5686.0 1031.0Q5665 1110 5643.0 1188.0Q5621 1266 5600 1335Q5556 1485 5521.5 1569.0Q5487 1653 5430.5 1746.5Q5374 1840 5300 1913Q5137 2075 4936 2075Q4790 2075 4694 2001Q4588 1919 4588 1786Q4588 1687 4638 1617Q4693 1540 4782 1540Q4856 1540 4908.0 1592.0Q4960 1644 4960 1718Q4960 1791 4908 1845Q4857 1897 4782 1897Q4752 1897 4721 1886Q4772 1950 4827.5 1950.0Q4883 1950 4923.0 1923.5Q4963 1897 4998.5 1855.0Q5034 1813 5064.0 1761.0Q5094 1709 5118 1657Q5174 1539 5193.5 1475.5Q5213 1412 5222 1385Q5033 1127 4944 870Q4886 705 4880 565Q4716 565 4694 541Q4680 526 4680.0 505.0Q4680 484 4696.5 468.5Q4713 453 4733 453H4739Q4795 461 4869 461Q5006 461 5067.0 450.5Q5128 440 5141.5 440.0Q5155 440 5170.5 457.0Q5186 474 5186.0 493.0Q5186 512 5173.5 527.0Q5161 542 5130 547Q5057 557 4985 563Q4990 750 5120 1018Q5173 1129 5261 1258Q5357 931 5450 541Q5430 539 5408.5 537.5Q5387 536 5366.5 533.5Q5346 531 5332.5 516.0Q5319 501 5319.0 479.0Q5319 457 5336.0 442.5Q5353 428 5372 428ZM6369 594Q6106 689 6106 993Q6106 1184 6238 1313Q6279 1353 6332 1380Q6246 1252 6246 1030Q6246 873 6269 796Q6305 674 6369 594ZM6352 987Q6464 1022 6609.0 1022.0Q6754 1022 6891 961V944Q6891 702 6736 610Q6682 578 6606 567Q6362 595 6352 987ZM6995 942 6993 1000Q6983 1083 6729 1118Q6648 1129 6557.5 1129.0Q6467 1129 6354 1098Q6376 1325 6506 1405Q6554 1434 6600.5 1434.0Q6647 1434 6679.0 1427.5Q6711 1421 6742 1409Q6812 1380 6840 1339Q6857 1319 6879.5 1319.0Q6902 1319 6918.0 1335.5Q6934 1352 6934.0 1372.5Q6934 1393 6921 1405Q6878 1472 6761 1511Q6544 1582 6344 1499Q6134 1413 6046 1209Q6002 1109 6002.0 987.5Q6002 866 6040.0 766.5Q6078 667 6148 599Q6291 459 6543 459Q6995 478 6995 942ZM8170 182Q8155 229 8148.5 283.0Q8142 337 8136 379L8619 1323Q8633 1285 8649 1235L8685 1129ZM9348 1368Q9424 1362 9502 1358Q9474 946 9367 288Q9355 214 9348 176Q9274 182 9184 186Q9311 720 9348 1368ZM9573 47 9582 45Q9605 45 9620.0 61.5Q9635 78 9635 98Q9635 118 9622.5 132.5Q9610 147 9592 150Q9554 156 9455 168Q9461 210 9473.5 285.5Q9486 361 9500.5 458.5Q9515 556 9531.0 670.0Q9547 784 9562 902Q9594 1157 9606 1354Q9663 1354 9705.5 1354.0Q9748 1354 9772.0 1355.0Q9796 1356 9810.5 1370.5Q9825 1385 9825.0 1407.5Q9825 1430 9809.5 1445.0Q9794 1460 9770.0 1459.0Q9746 1458 9720.0 1458.0Q9694 1458 9668 1458Q9388 1458 9108 1507H9098Q9075 1507 9061.0 1491.5Q9047 1476 9047.0 1457.0Q9047 1438 9058.5 1423.0Q9070 1408 9099 1403Q9165 1390 9244 1380Q9202 747 9100 293Q8952 654 8726 1333Q8726 1333 8693 1433Q8680 1471 8680 1473Q8670 1507 8631 1507Q8597 1507 8584 1481L8099 533Q8021 1120 8011 1366Q8193 1374 8219 1407Q8230 1421 8230.0 1443.5Q8230 1466 8212.0 1478.5Q8194 1491 8179 1491H8168Q8052 1469 7949.0 1469.0Q7846 1469 7773 1483H7765Q7742 1483 7727.0 1467.0Q7712 1451 7712 1431Q7712 1387 7755 1378Q7810 1369 7904 1364Q7921 943 8025 376Q8047 253 8074 135Q7955 131 7855 103Q7816 92 7816.0 61.0Q7816 30 7832.5 15.0Q7849 0 7861 0H7876Q7879 0 7909 8Q7993 31 8103 31L8175 29Q8204 29 8222 55L8732 993Q8980 266 9072 109Q9087 84 9117 84ZM10600 1139Q10596 1105 10596 1067H10559Q10395 1067 10237 1127Q10035 1203 10035 1344Q10035 1396 10082 1425Q10121 1448 10184.0 1448.0Q10247 1448 10310.5 1420.5Q10374 1393 10428 1349Q10524 1269 10600 1139ZM10841 1387Q10844 1357 10844.0 1267.0Q10844 1177 10840.5 1095.5Q10837 1014 10825.0 938.0Q10813 862 10789.0 795.0Q10765 728 10724 679Q10633 571 10471 571Q10468 571 10466.0 572.5Q10464 574 10461 574H10465Q10626 661 10674 863Q10701 974 10703.5 1073.5Q10706 1173 10706 1230Q10706 1320 10698 1411Q10770 1396 10841 1387ZM11009 1376 11081 1378Q11103 1380 11116.5 1395.0Q11130 1410 11130.0 1431.5Q11130 1453 11115.5 1469.0Q11101 1485 11079 1485H11075Q11058 1483 11040 1483H11005Q10822 1483 10651 1532L10637 1534Q10614 1534 10599.5 1516.5Q10585 1499 10585 1481V1473Q10585 1471 10590.0 1432.5Q10595 1394 10600 1325Q10397 1552 10178 1552Q10077 1552 10006 1496Q9930 1437 9930.0 1353.0Q9930 1269 9962.5 1212.0Q9995 1155 10048.0 1112.5Q10101 1070 10168.5 1041.5Q10236 1013 10306 995Q10436 963 10559 963H10583Q10583 836 10502 741Q10416 641 10293 641Q10201 641 10121 735Q10043 826 10043 926Q10043 946 10026.5 959.5Q10010 973 9989.0 973.0Q9968 973 9952.0 956.5Q9936 940 9936.0 906.0Q9936 872 9953.0 819.5Q9970 767 10002.5 716.5Q10035 666 10081.5 621.0Q10128 576 10188 541Q10316 467 10448.5 467.0Q10581 467 10660.5 502.0Q10740 537 10793.5 597.0Q10847 657 10878.0 736.0Q10909 815 10925 903Q10950 1041 10950 1256L10948 1378ZM11591 621Q11553 627 11453 627H11445V1362Q11464 1360 11482 1360Q11482 1360 11591 1360ZM12150 843Q12156 830 12156.0 807.0Q12156 784 12134.5 762.5Q12113 741 12082 741Q12051 741 12029.5 762.5Q12008 784 12008.0 807.0Q12008 830 12014.0 843.0Q12020 856 12030 867Q12051 889 12082 889Q12129 889 12150 843ZM11697 631Q11797 492 11961 492Q12097 496 12181 575Q12267 654 12267 782Q12267 867 12217 929Q12165 993 12082 993Q12008 993 11956.0 941.0Q11904 889 11904 815Q11904 742 11956 689Q12008 635 12082 635Q12087 635 12091.5 636.0Q12096 637 12101 637Q12048 596 11976.0 596.0Q11904 596 11862.0 619.5Q11820 643 11790.5 678.5Q11761 714 11743.0 755.5Q11725 797 11715 833Q11697 894 11697 926L11695 1370Q11730 1373 11765.5 1379.0Q11801 1385 11829 1391Q11881 1401 11881 1444Q11881 1466 11864.0 1480.5Q11847 1495 11828 1495H11818Q11651 1464 11519 1464Q11389 1464 11222 1495H11212Q11189 1495 11175.0 1479.5Q11161 1464 11161 1445Q11161 1402 11202 1391Q11237 1385 11272.0 1379.0Q11307 1373 11341 1370V625Q11209 619 11187 610Q11167 608 11154.5 593.5Q11142 579 11142.0 556.5Q11142 534 11159.5 520.0Q11177 506 11195 506H11202Q11209 513 11308.5 517.5Q11408 522 11455 522Q11566 522 11601.0 514.0Q11636 506 11651.5 506.0Q11667 506 11682.0 522.5Q11697 539 11697 559ZM12805 621Q12767 627 12667 627H12659V1362Q12678 1360 12696 1360Q12696 1360 12805 1360ZM13364 843Q13370 830 13370.0 807.0Q13370 784 13348.5 762.5Q13327 741 13296 741Q13265 741 13243.5 762.5Q13222 784 13222.0 807.0Q13222 830 13228.0 843.0Q13234 856 13244 867Q13265 889 13296 889Q13343 889 13364 843ZM12911 631Q13011 492 13175 492Q13311 496 13395 575Q13481 654 13481 782Q13481 867 13431 929Q13379 993 13296 993Q13222 993 13170.0 941.0Q13118 889 13118 815Q13118 742 13170 689Q13222 635 13296 635Q13301 635 13305.5 636.0Q13310 637 13315 637Q13262 596 13190.0 596.0Q13118 596 13076.0 619.5Q13034 643 13004.5 678.5Q12975 714 12957.0 755.5Q12939 797 12929 833Q12911 894 12911 926L12909 1370Q12944 1373 12979.5 1379.0Q13015 1385 13043 1391Q13095 1401 13095 1444Q13095 1466 13078.0 1480.5Q13061 1495 13042 1495H13032Q12865 1464 12733 1464Q12603 1464 12436 1495H12426Q12403 1495 12389.0 1479.5Q12375 1464 12375 1445Q12375 1402 12416 1391Q12451 1385 12486.0 1379.0Q12521 1373 12555 1370V625Q12423 619 12401 610Q12381 608 12368.5 593.5Q12356 579 12356.0 556.5Q12356 534 12373.5 520.0Q12391 506 12409 506H12416Q12423 513 12522.5 517.5Q12622 522 12669 522Q12780 522 12815.0 514.0Q12850 506 12865.5 506.0Q12881 506 12896.0 522.5Q12911 539 12911 559ZM13963 588Q13784 657 13727 847Q13707 913 13707.0 996.0Q13707 1079 13726.0 1145.0Q13745 1211 13777 1261Q13839 1354 13949 1399Q13849 1260 13849.0 991.0Q13849 722 13963 588ZM14407 639Q14326 574 14230 574Q14036 574 13977 802Q13955 886 13955.0 957.5Q13955 1029 13959.0 1078.5Q13963 1128 13973.0 1176.5Q13983 1225 14000.0 1270.0Q14017 1315 14044 1349Q14103 1423 14195.5 1423.0Q14288 1423 14356.5 1386.5Q14425 1350 14472.0 1290.0Q14519 1230 14543.5 1153.0Q14568 1076 14568.0 1011.0Q14568 946 14557.0 896.0Q14546 846 14525.0 799.0Q14504 752 14474.0 711.0Q14444 670 14407 639ZM14672 1000Q14672 1115 14629.0 1215.0Q14586 1315 14513 1387Q14358 1538 14137 1538Q13894 1538 13748 1390Q13603 1243 13603 995Q13603 760 13757 605Q13909 451 14137 451Q14369 451 14523 613Q14672 769 14672 1000ZM15293 1395Q15351 1291 15365 1264Q15253 1089 15180 857Q15132 707 15113 569Q15084 571 15054 571H14980Q15013 838 15148 1136Q15205 1263 15293 1395ZM15844 1409Q15902 1305 15915 1280Q15758 1046 15653 793Q15631 887 15594 989Q15668 1175 15844 1409ZM15979 451Q16035 465 16138.5 465.0Q16242 465 16352 445Q16373 445 16389.0 461.5Q16405 478 16405.0 497.0Q16405 516 16392 531Q16367 561 16210 567Q16134 1060 16019 1305Q15975 1398 15893 1530Q15875 1555 15850 1555Q15826 1555 15807 1534Q15638 1323 15543 1127Q15430 1375 15340 1518Q15323 1542 15295.5 1542.0Q15268 1542 15252 1520Q15009 1185 14912 784Q14881 658 14873 569Q14850 567 14828.5 566.0Q14807 565 14786.0 562.5Q14765 560 14751.5 545.0Q14738 530 14738.0 508.5Q14738 487 14755.5 473.0Q14773 459 14791 459H14795Q14920 467 15037.5 467.0Q15155 467 15315 447L15324 445Q15347 445 15361.0 461.5Q15375 478 15375 498Q15375 518 15362.5 532.5Q15350 547 15327.0 550.5Q15304 554 15275.0 557.0Q15246 560 15217 563Q15277 899 15418 1149Q15562 831 15584 584Q15586 561 15602.0 549.0Q15618 537 15636 537Q15675 537 15686 574Q15789 890 15965 1165Q16023 1016 16055.5 845.5Q16088 675 16106 567Q16038 567 15995.0 560.0Q15952 553 15939.0 538.5Q15926 524 15926.0 503.0Q15926 482 15942.5 466.5Q15959 451 15979 451Z" fill="currentColor" /></svg>