<svg viewBox="0 0 9574 2543" xmlns="http://www.w3.org/2000/svg"><path d="M420 870V1444H707Q766 1444 818.0 1421.5Q870 1399 909.0 1360.0Q948 1321 970.5 1268.5Q993 1216 993 1157Q993 1098 970.5 1045.5Q948 993 909.0 954.0Q870 915 818.0 892.5Q766 870 707 870ZM420 2017H133V583H707Q786 583 859.0 603.5Q932 624 995.5 661.5Q1059 699 1111.5 751.5Q1164 804 1201.5 868.0Q1239 932 1259.5 1005.0Q1280 1078 1280 1157Q1280 1231 1261.5 1301.0Q1243 1371 1208.5 1434.0Q1174 1497 1124.0 1550.0Q1074 1603 1012 1642L1171 2017H866L741 1728L420 1730ZM1761 655Q1761 693 1746.5 726.0Q1732 759 1707.0 783.5Q1682 808 1648.5 822.5Q1615 837 1577 837Q1539 837 1505.5 822.5Q1472 808 1447.5 783.5Q1423 759 1408.5 726.0Q1394 693 1394 655Q1394 618 1408.5 584.5Q1423 551 1447.5 526.5Q1472 502 1505.5 487.5Q1539 473 1577 473Q1615 473 1648.5 487.5Q1682 502 1707.0 526.5Q1732 551 1746.5 584.5Q1761 618 1761 655ZM1714 2017H1439V946H1714ZM2684 1472Q2684 1416 2662.5 1363.5Q2641 1311 2604.0 1270.5Q2567 1230 2517.5 1205.5Q2468 1181 2412 1181Q2356 1181 2306.5 1200.0Q2257 1219 2220.5 1256.0Q2184 1293 2163.0 1347.5Q2142 1402 2142 1472Q2142 1539 2163.0 1592.5Q2184 1646 2220.5 1684.0Q2257 1722 2306.5 1742.5Q2356 1763 2412 1763Q2468 1763 2517.5 1738.5Q2567 1714 2604.0 1673.5Q2641 1633 2662.5 1580.5Q2684 1528 2684 1472ZM2959 1882Q2959 1995 2916.0 2094.0Q2873 2193 2798.5 2267.0Q2724 2341 2624.5 2384.0Q2525 2427 2412 2427L2275 2425V2152L2410 2154Q2474 2154 2519.0 2137.5Q2564 2121 2595.0 2092.5Q2626 2064 2644.5 2027.0Q2663 1990 2674 1949Q2658 1975 2628.0 1991.5Q2598 2008 2561.5 2018.5Q2525 2029 2485.5 2033.0Q2446 2037 2412 2037Q2299 2037 2199.5 1998.0Q2100 1959 2025.5 1886.5Q1951 1814 1908.0 1709.0Q1865 1604 1865 1472Q1865 1351 1908.0 1247.0Q1951 1143 2025.5 1067.0Q2100 991 2199.5 948.0Q2299 905 2412 905Q2464 905 2515.0 918.0Q2566 931 2614.0 954.0Q2662 977 2705.5 1008.0Q2749 1039 2787 1075L2893 948H2959ZM3440 2017H3167V520H3440V993Q3489 956 3541.0 940.5Q3593 925 3647 925Q3746 925 3833.0 962.5Q3920 1000 3984.5 1065.5Q4049 1131 4086.5 1218.5Q4124 1306 4124 1405V2017H3849V1405H3851Q3851 1363 3835.0 1325.5Q3819 1288 3791.0 1260.0Q3763 1232 3726.0 1216.0Q3689 1200 3647 1200Q3604 1200 3566.0 1216.0Q3528 1232 3500.0 1260.0Q3472 1288 3456.0 1325.5Q3440 1363 3440 1405ZM4841 2017Q4742 2017 4655.0 1979.5Q4568 1942 4502.5 1876.5Q4437 1811 4399.5 1724.0Q4362 1637 4362 1538V1220H4229V948H4362V520H4634V948H5048V1220H4634V1538Q4634 1581 4650.0 1618.5Q4666 1656 4694.0 1684.0Q4722 1712 4760.0 1728.5Q4798 1745 4841 1745H5048V2017ZM5627 1755Q5643 1760 5659.0 1761.5Q5675 1763 5691 1763Q5731 1763 5768.0 1752.0Q5805 1741 5837.5 1720.5Q5870 1700 5895.5 1670.5Q5921 1641 5937 1605L6137 1806Q6099 1860 6049.5 1903.0Q6000 1946 5942.5 1976.0Q5885 2006 5821.5 2021.5Q5758 2037 5691 2037Q5578 2037 5478.5 1995.0Q5379 1953 5304.5 1878.0Q5230 1803 5187.0 1699.5Q5144 1596 5144 1472Q5144 1345 5187.0 1240.0Q5230 1135 5304.5 1061.0Q5379 987 5478.5 946.0Q5578 905 5691 905Q5758 905 5822.0 921.0Q5886 937 5943.5 967.0Q6001 997 6051.0 1040.5Q6101 1084 6139 1138ZM5767 1192Q5748 1185 5729.5 1183.0Q5711 1181 5691 1181Q5635 1181 5585.5 1201.5Q5536 1222 5499.5 1260.0Q5463 1298 5442.0 1351.5Q5421 1405 5421 1472Q5421 1487 5422.5 1506.0Q5424 1525 5427.5 1544.5Q5431 1564 5436.0 1582.0Q5441 1600 5449 1614ZM7303 1472Q7303 1592 7260.0 1695.5Q7217 1799 7143.0 1874.5Q7069 1950 6969.5 1993.5Q6870 2037 6756 2037Q6643 2037 6543.5 1993.5Q6444 1950 6369.5 1874.5Q6295 1799 6252.0 1695.5Q6209 1592 6209 1472Q6209 1350 6252.0 1246.0Q6295 1142 6369.5 1066.5Q6444 991 6543.5 948.0Q6643 905 6756 905Q6870 905 6969.5 945.5Q7069 986 7143.0 1060.5Q7217 1135 7260.0 1239.5Q7303 1344 7303 1472ZM7028 1472Q7028 1406 7006.5 1352.5Q6985 1299 6948.0 1260.5Q6911 1222 6861.5 1201.5Q6812 1181 6756 1181Q6700 1181 6650.5 1201.5Q6601 1222 6564.5 1260.5Q6528 1299 6507.0 1352.5Q6486 1406 6486 1472Q6486 1534 6507.0 1587.0Q6528 1640 6564.5 1679.0Q6601 1718 6650.5 1740.5Q6700 1763 6756 1763Q6812 1763 6861.5 1742.0Q6911 1721 6948.0 1683.0Q6985 1645 7006.5 1591.0Q7028 1537 7028 1472ZM8241 1892Q8208 1922 8170.5 1948.5Q8133 1975 8092.0 1994.5Q8051 2014 8007.5 2025.5Q7964 2037 7919 2037Q7820 2037 7733.0 2002.0Q7646 1967 7580.5 1902.5Q7515 1838 7477.5 1745.5Q7440 1653 7440 1538V946H7712V1538Q7712 1592 7728.5 1634.5Q7745 1677 7773.0 1706.0Q7801 1735 7838.5 1750.0Q7876 1765 7919 1765Q7961 1765 7998.5 1745.5Q8036 1726 8064.0 1694.0Q8092 1662 8108.0 1621.5Q8124 1581 8124 1538V946H8397V2017H8331ZM9193 2017H8569V1745H9193Q9221 1745 9241.0 1725.0Q9261 1705 9261 1677Q9261 1648 9241.0 1639.0Q9221 1630 9193 1630H8909Q8838 1630 8776.0 1603.0Q8714 1576 8668.0 1529.5Q8622 1483 8595.5 1421.0Q8569 1359 8569 1288Q8569 1217 8595.5 1155.0Q8622 1093 8668.0 1047.0Q8714 1001 8776.0 974.5Q8838 948 8909 948H9462V1220H8909Q8881 1220 8861.0 1240.0Q8841 1260 8841 1288Q8841 1317 8861.0 1337.5Q8881 1358 8909 1358H9193Q9263 1358 9325.0 1381.5Q9387 1405 9433.0 1447.0Q9479 1489 9506.0 1548.0Q9533 1607 9533 1677Q9533 1748 9506.0 1809.5Q9479 1871 9433.0 1917.5Q9387 1964 9325.0 1990.5Q9263 2017 9193 2017Z" fill="currentColor" /></svg>