<svg viewBox="0 0 10730 2400" xmlns="http://www.w3.org/2000/svg"><path d="M170 1900H362V1306H644Q878 1306 1005.0 1186.0Q1132 1066 1132 872Q1132 678 1005.0 561.0Q878 444 644 444H170ZM362 1150V600H644Q810 600 875.0 678.0Q940 756 940 872Q940 988 875.0 1069.0Q810 1150 644 1150ZM996 1900H1210L830 1199L640 1228ZM1335 1390Q1335 1628 1470.0 1779.0Q1605 1930 1831 1930Q2057 1930 2192.0 1779.0Q2327 1628 2327 1390V1358Q2327 1120 2192.0 969.0Q2057 818 1831 818Q1605 818 1470.0 969.0Q1335 1120 1335 1358ZM1525 1358Q1525 1195 1602.0 1082.5Q1679 970 1831 970Q1983 970 2060.0 1082.5Q2137 1195 2137 1358V1390Q2137 1553 2060.0 1665.5Q1983 1778 1831 1778Q1679 1778 1602.0 1665.5Q1525 1553 1525 1390ZM2560 1900H2728L2736 1763H2742Q2782 1828 2864.5 1874.0Q2947 1920 3057 1920Q3257 1920 3377.0 1770.0Q3497 1620 3497 1390V1358Q3497 1128 3377.0 978.0Q3257 828 3057 828Q2947 828 2869.5 867.5Q2792 907 2746 972V364H2560ZM2746 1588V1160Q2777 1090 2847.0 1035.0Q2917 980 3017 980Q3167 980 3237.0 1089.0Q3307 1198 3307 1358V1390Q3307 1550 3237.0 1659.0Q3167 1768 3017 1768Q2917 1768 2847.0 1713.0Q2777 1658 2746 1588ZM3667 1390Q3667 1628 3802.0 1779.0Q3937 1930 4163 1930Q4389 1930 4524.0 1779.0Q4659 1628 4659 1390V1358Q4659 1120 4524.0 969.0Q4389 818 4163 818Q3937 818 3802.0 969.0Q3667 1120 3667 1358ZM3857 1358Q3857 1195 3934.0 1082.5Q4011 970 4163 970Q4315 970 4392.0 1082.5Q4469 1195 4469 1358V1390Q4469 1553 4392.0 1665.5Q4315 1778 4163 1778Q4011 1778 3934.0 1665.5Q3857 1553 3857 1390ZM4744 990H5344V848H4744ZM4932 1640Q4932 1790 5000.5 1860.0Q5069 1930 5184 1930Q5234 1930 5276.0 1921.0Q5318 1912 5344 1900V1748Q5316 1758 5289.0 1764.0Q5262 1770 5234 1770Q5174 1770 5146.0 1740.0Q5118 1710 5118 1640V588H4932V904V934ZM5459 1390Q5459 1628 5594.0 1779.0Q5729 1930 5955 1930Q6181 1930 6316.0 1779.0Q6451 1628 6451 1390V1358Q6451 1120 6316.0 969.0Q6181 818 5955 818Q5729 818 5594.0 969.0Q5459 1120 5459 1358ZM5649 1358Q5649 1195 5726.0 1082.5Q5803 970 5955 970Q6107 970 6184.0 1082.5Q6261 1195 6261 1358V1390Q6261 1553 6184.0 1665.5Q6107 1778 5955 1778Q5803 1778 5726.0 1665.5Q5649 1553 5649 1390ZM7206 1900H7398V1257H8009V1099H7398V602H8108V444H7206ZM8322 1900H8508V364H8322ZM8749 1390Q8749 1628 8879.5 1779.0Q9010 1930 9255 1930Q9405 1930 9509.5 1865.0Q9614 1800 9664 1725L9544 1630Q9499 1690 9427.0 1734.0Q9355 1778 9255 1778Q9093 1778 9016.0 1665.5Q8939 1553 8939 1390V1358Q8939 1195 9012.0 1082.5Q9085 970 9233 970Q9355 970 9420.0 1050.0Q9485 1130 9485 1244V1268H8863V1416H9672V1340Q9672 1100 9556.0 959.0Q9440 818 9225 818Q9010 818 8879.5 969.0Q8749 1120 8749 1358ZM9772 1900H9982L10299 1416H10310L10690 848H10480L10183 1318H10172ZM9792 848 10172 1416H10180L10497 1900H10710L10310 1318H10302L10005 848Z" fill="currentColor" /></svg>