<svg viewBox="0 0 5536 2349" xmlns="http://www.w3.org/2000/svg"><path d="M543 1680Q525 1614 513.0 1559.5Q501 1505 492.0 1452.5Q483 1400 475.0 1345.0Q467 1290 457 1223Q546 1189 614.0 1146.0Q682 1103 728.0 1048.0Q774 993 797.5 923.5Q821 854 821 768Q821 761 818.5 737.0Q816 713 810.5 687.0Q805 661 796.5 641.0Q788 621 776 621Q764 621 742.0 638.0Q720 655 693.5 680.5Q667 706 638.5 736.5Q610 767 586 795Q558 880 525.5 977.0Q493 1074 460.0 1175.5Q427 1277 394.0 1377.5Q361 1478 331.5 1569.0Q302 1660 277.5 1736.5Q253 1813 236 1866Q210 1870 181 1871Q156 1873 123.0 1872.0Q90 1871 55 1866L49 1856Q61 1834 85.0 1770.5Q109 1707 141.5 1617.5Q174 1528 211.0 1420.0Q248 1312 285.5 1200.5Q323 1089 358.0 982.0Q393 875 420.5 787.0Q448 699 465.5 639.0Q483 579 485 561Q485 550 479 541Q441 544 405.0 550.0Q369 556 340 566Q327 571 312.0 582.5Q297 594 284.0 611.0Q271 628 262.5 648.5Q254 669 254 690Q254 703 256.0 722.5Q258 742 264 762L252 774Q201 737 171.0 696.5Q141 656 141 621Q141 601 154.5 577.0Q168 553 188.0 532.5Q208 512 231.0 498.0Q254 484 272 484Q334 484 408.0 489.0Q482 494 565 494Q583 494 597.0 494.0Q611 494 624.0 493.5Q637 493 650.5 492.5Q664 492 682 490L688 500Q679 525 660.0 579.0Q641 633 616 707Q646 669 681.0 629.0Q716 589 750.5 556.0Q785 523 815.0 501.5Q845 480 866 480Q889 480 913.0 496.5Q937 513 956.5 540.5Q976 568 988.5 605.0Q1001 642 1001 682Q1001 788 971.0 871.5Q941 955 889.0 1018.5Q837 1082 767.0 1128.5Q697 1175 616 1207Q622 1248 630.5 1297.5Q639 1347 649.0 1402.5Q659 1458 672.0 1518.5Q685 1579 700 1641Q722 1726 743.0 1783.0Q764 1840 786.0 1878.0Q808 1916 831.5 1939.5Q855 1963 881 1981L868 2007Q832 2001 786.0 1985.5Q740 1970 694.5 1934.5Q649 1899 608.5 1838.0Q568 1777 543 1680ZM954 1346Q978 1288 1013.0 1241.5Q1048 1195 1090.0 1162.5Q1132 1130 1179.0 1113.0Q1226 1096 1274 1096Q1295 1096 1320.5 1107.5Q1346 1119 1368.0 1139.0Q1390 1159 1404.5 1187.5Q1419 1216 1419 1250Q1419 1279 1412.0 1316.5Q1405 1354 1394.0 1393.5Q1383 1433 1370.0 1472.0Q1357 1511 1345.0 1543.5Q1333 1576 1323.5 1599.0Q1314 1622 1310 1630Q1286 1689 1251.0 1735.0Q1216 1781 1174.0 1813.5Q1132 1846 1085.5 1863.0Q1039 1880 991 1880Q970 1880 944.5 1869.0Q919 1858 897.0 1837.5Q875 1817 860.5 1789.0Q846 1761 846 1727Q846 1697 853.0 1659.5Q860 1622 871.0 1582.5Q882 1543 895.0 1504.0Q908 1465 920.0 1433.0Q932 1401 941.0 1377.5Q950 1354 954 1346ZM1231 1151Q1208 1151 1181.5 1191.5Q1155 1232 1128.5 1295.0Q1102 1358 1077.5 1432.5Q1053 1507 1034.5 1576.0Q1016 1645 1004.5 1697.5Q993 1750 993 1768Q993 1797 1004.0 1810.0Q1015 1823 1034 1823Q1051 1823 1070.0 1799.5Q1089 1776 1109.0 1737.0Q1129 1698 1148.5 1647.0Q1168 1596 1186.0 1541.5Q1204 1487 1219.5 1433.0Q1235 1379 1246.5 1333.0Q1258 1287 1264.5 1253.5Q1271 1220 1271 1207Q1271 1178 1260.0 1164.5Q1249 1151 1231 1151ZM1650 1856Q1665 1821 1687.5 1761.0Q1710 1701 1734.0 1631.0Q1758 1561 1782.0 1488.0Q1806 1415 1824.5 1354.0Q1843 1293 1855.0 1251.5Q1867 1210 1867 1202Q1867 1188 1859 1188Q1849 1188 1827.5 1209.5Q1806 1231 1780.0 1262.5Q1754 1294 1727.0 1329.0Q1700 1364 1679 1391Q1658 1452 1635.0 1517.0Q1612 1582 1590.5 1645.0Q1569 1708 1551.0 1765.0Q1533 1822 1521 1866Q1510 1868 1497 1869Q1474 1872 1437 1872Q1420 1872 1401.0 1870.5Q1382 1869 1364 1866L1357 1856Q1362 1846 1374.5 1815.0Q1387 1784 1403.5 1740.0Q1420 1696 1439.5 1642.0Q1459 1588 1478.0 1532.0Q1497 1476 1515.0 1422.0Q1533 1368 1546.5 1323.0Q1560 1278 1568.5 1246.5Q1577 1215 1577 1204Q1577 1193 1574.5 1187.0Q1572 1181 1570 1176Q1567 1172 1564 1168V1153Q1587 1139 1618.0 1128.0Q1649 1117 1678 1110Q1711 1102 1747 1096L1751 1102Q1751 1114 1746.0 1140.0Q1741 1166 1734.5 1196.0Q1728 1226 1720.5 1255.5Q1713 1285 1708 1303Q1737 1264 1767.0 1225.5Q1797 1187 1825.0 1156.5Q1853 1126 1876.5 1107.0Q1900 1088 1917 1088Q1924 1088 1940.5 1094.0Q1957 1100 1974.0 1112.0Q1991 1124 2004.5 1143.0Q2018 1162 2019 1188Q2019 1197 2009.0 1229.0Q1999 1261 1986 1301Q2017 1262 2048.5 1224.0Q2080 1186 2108.5 1156.0Q2137 1126 2161.5 1107.0Q2186 1088 2203 1088Q2210 1088 2228.0 1094.5Q2246 1101 2265.0 1114.5Q2284 1128 2298.5 1148.5Q2313 1169 2314 1198Q2314 1208 2300.0 1244.0Q2286 1280 2265.5 1330.0Q2245 1380 2221.0 1439.0Q2197 1498 2176.5 1555.0Q2156 1612 2142.0 1661.0Q2128 1710 2128 1741Q2128 1753 2130.5 1758.5Q2133 1764 2142 1764Q2153 1763 2175.0 1752.5Q2197 1742 2226.0 1721.0Q2255 1700 2288.5 1669.5Q2322 1639 2355 1598L2377 1618Q2335 1671 2283.0 1718.5Q2231 1766 2180.0 1802.0Q2129 1838 2084.0 1859.0Q2039 1880 2011 1880Q2006 1880 1998.0 1876.0Q1990 1872 1982.0 1863.0Q1974 1854 1968.0 1838.0Q1962 1822 1962 1798Q1962 1786 1965.0 1767.5Q1968 1749 1972.0 1729.5Q1976 1710 1980.0 1693.5Q1984 1677 1986 1669Q1995 1634 2011.5 1590.5Q2028 1547 2047.0 1500.0Q2066 1453 2086.0 1406.5Q2106 1360 2122.0 1319.5Q2138 1279 2148.0 1248.5Q2158 1218 2158 1202Q2158 1188 2150 1188Q2141 1188 2119.0 1208.0Q2097 1228 2070.5 1257.0Q2044 1286 2015.5 1319.5Q1987 1353 1964 1381Q1936 1471 1914.0 1541.0Q1892 1611 1874.0 1668.0Q1856 1725 1841.0 1772.5Q1826 1820 1814 1866Q1803 1868 1790 1869Q1767 1872 1730 1872Q1713 1872 1694.0 1870.5Q1675 1869 1657 1866ZM2957 1602Q2913 1655 2862.5 1704.5Q2812 1754 2763.5 1792.0Q2715 1830 2673.0 1853.0Q2631 1876 2603 1876Q2597 1876 2588.0 1870.5Q2579 1865 2576 1860Q2565 1840 2560.5 1809.5Q2556 1779 2556 1753Q2556 1745 2558.5 1730.5Q2561 1716 2564 1700Q2531 1735 2495.5 1767.5Q2460 1800 2427.5 1825.0Q2395 1850 2369.5 1865.0Q2344 1880 2332 1880Q2324 1880 2318.5 1874.0Q2313 1868 2308.5 1858.0Q2304 1848 2301.5 1837.0Q2299 1826 2298 1815Q2295 1780 2300.5 1738.5Q2306 1697 2316.0 1654.0Q2326 1611 2338.5 1569.5Q2351 1528 2363.0 1493.5Q2375 1459 2384.0 1435.0Q2393 1411 2396 1403Q2400 1391 2409.5 1374.5Q2419 1358 2431.0 1341.5Q2443 1325 2455.5 1309.5Q2468 1294 2480 1282Q2502 1261 2537.0 1237.0Q2572 1213 2613.5 1190.0Q2655 1167 2699.0 1145.0Q2743 1123 2782.5 1107.0Q2822 1091 2853.0 1081.0Q2884 1071 2900 1071Q2914 1071 2924.5 1072.0Q2935 1073 2941 1075L2943 1080Q2932 1094 2916.0 1128.0Q2900 1162 2881.0 1207.0Q2862 1252 2842.0 1306.0Q2822 1360 2802.5 1415.0Q2783 1470 2766.0 1522.5Q2749 1575 2735.5 1618.0Q2722 1661 2714.5 1690.5Q2707 1720 2707 1729Q2707 1747 2722 1747Q2732 1746 2754.0 1735.5Q2776 1725 2805.0 1704.0Q2834 1683 2867.5 1652.5Q2901 1622 2935 1581ZM2466 1735Q2474 1735 2487.0 1726.0Q2500 1717 2515.0 1703.0Q2530 1689 2547.0 1670.5Q2564 1652 2580 1633Q2590 1598 2602.5 1556.0Q2615 1514 2629.0 1470.0Q2643 1426 2658.0 1382.0Q2673 1338 2687.5 1298.5Q2702 1259 2715.0 1226.5Q2728 1194 2738 1172Q2722 1177 2696.0 1186.5Q2670 1196 2638 1221Q2611 1242 2587.0 1284.0Q2563 1326 2543.0 1378.5Q2523 1431 2506.5 1487.0Q2490 1543 2478.5 1591.0Q2467 1639 2461.0 1673.0Q2455 1707 2455 1714Q2455 1722 2456.5 1728.5Q2458 1735 2466 1735ZM2996 1866Q2985 1868 2972 1869Q2949 1872 2912 1872Q2895 1872 2876.0 1870.5Q2857 1869 2839 1866L2832 1856Q2837 1846 2849.5 1815.0Q2862 1784 2878.5 1740.0Q2895 1696 2914.5 1642.0Q2934 1588 2953.0 1532.0Q2972 1476 2990.0 1422.0Q3008 1368 3021.5 1323.0Q3035 1278 3043.5 1246.5Q3052 1215 3052 1204Q3052 1193 3049.5 1187.0Q3047 1181 3045 1176Q3042 1172 3039 1168V1153Q3062 1139 3093.0 1128.0Q3124 1117 3153 1110Q3186 1102 3222 1096L3226 1102Q3226 1114 3221.0 1141.0Q3216 1168 3209.0 1199.0Q3202 1230 3194.5 1259.5Q3187 1289 3183 1307Q3214 1268 3246.0 1228.5Q3278 1189 3307.5 1158.0Q3337 1127 3362.0 1107.5Q3387 1088 3404 1088Q3411 1088 3428.5 1094.5Q3446 1101 3465.0 1114.5Q3484 1128 3498.5 1148.5Q3513 1169 3514 1198Q3514 1208 3500.0 1244.0Q3486 1280 3465.5 1330.0Q3445 1380 3421.0 1439.0Q3397 1498 3376.5 1555.0Q3356 1612 3342.0 1661.0Q3328 1710 3328 1741Q3328 1753 3330.5 1758.5Q3333 1764 3342 1764Q3353 1763 3375.0 1752.5Q3397 1742 3426.0 1721.0Q3455 1700 3488.5 1669.5Q3522 1639 3555 1598L3578 1618Q3536 1671 3483.5 1718.5Q3431 1766 3380.0 1802.0Q3329 1838 3284.0 1859.0Q3239 1880 3211 1880Q3206 1880 3198.0 1876.0Q3190 1872 3182.0 1863.0Q3174 1854 3168.0 1838.0Q3162 1822 3162 1798Q3162 1786 3165.0 1767.5Q3168 1749 3172.0 1729.5Q3176 1710 3180.5 1693.5Q3185 1677 3187 1669Q3196 1634 3212.5 1590.5Q3229 1547 3248.0 1500.0Q3267 1453 3287.0 1406.5Q3307 1360 3323.0 1319.5Q3339 1279 3349.0 1248.5Q3359 1218 3359 1202Q3359 1188 3351 1188Q3341 1188 3316.5 1210.0Q3292 1232 3262.5 1264.5Q3233 1297 3203.0 1332.5Q3173 1368 3152 1395Q3131 1456 3108.0 1520.5Q3085 1585 3064.0 1647.5Q3043 1710 3025.5 1766.0Q3008 1822 2996 1866ZM3626 1880Q3604 1880 3582.0 1865.5Q3560 1851 3542.0 1828.5Q3524 1806 3512.5 1779.0Q3501 1752 3501 1727Q3501 1697 3508.5 1659.0Q3516 1621 3527.5 1580.0Q3539 1539 3553.0 1499.0Q3567 1459 3579.5 1425.5Q3592 1392 3601.5 1368.0Q3611 1344 3615 1336Q3635 1288 3677.5 1243.0Q3720 1198 3770.5 1163.0Q3821 1128 3872.5 1107.0Q3924 1086 3963 1086Q3995 1086 4015.0 1121.0Q4035 1156 4035 1209Q4035 1236 4022.5 1262.0Q4010 1288 3990.5 1311.0Q3971 1334 3948.5 1354.0Q3926 1374 3906 1389L3697 1549Q3679 1617 3667.5 1669.5Q3656 1722 3656 1741Q3656 1770 3664.0 1785.0Q3672 1800 3697 1800Q3750 1800 3807.0 1747.5Q3864 1695 3918 1579L3947 1598Q3920 1661 3884.5 1713.0Q3849 1765 3808.0 1802.0Q3767 1839 3720.5 1859.5Q3674 1880 3626 1880ZM3890 1143Q3870 1143 3847.0 1174.0Q3824 1205 3801.0 1254.5Q3778 1304 3756.0 1366.5Q3734 1429 3716 1491L3886 1356Q3898 1313 3908.0 1271.5Q3918 1230 3918 1209Q3918 1198 3916.5 1186.5Q3915 1175 3912.0 1165.0Q3909 1155 3903.5 1149.0Q3898 1143 3890 1143ZM4363 1080Q4384 1080 4399.0 1094.5Q4414 1109 4423.0 1132.0Q4432 1155 4433.5 1185.0Q4435 1215 4428 1245Q4420 1281 4396.5 1303.5Q4373 1326 4347 1339Q4317 1354 4281 1362Q4302 1322 4307.5 1294.0Q4313 1266 4313 1241Q4313 1231 4311.5 1220.5Q4310 1210 4306.5 1201.0Q4303 1192 4297.0 1186.0Q4291 1180 4283 1180Q4274 1180 4261.5 1186.5Q4249 1193 4237.5 1205.0Q4226 1217 4218.5 1233.5Q4211 1250 4211 1270Q4211 1278 4219.0 1302.0Q4227 1326 4238.5 1360.5Q4250 1395 4263.5 1436.0Q4277 1477 4288.5 1518.0Q4300 1559 4308.0 1597.0Q4316 1635 4316 1663Q4316 1691 4298.0 1718.5Q4280 1746 4253.0 1771.0Q4226 1796 4193.5 1817.5Q4161 1839 4131.5 1855.0Q4102 1871 4080.5 1880.0Q4059 1889 4053 1889Q4044 1889 4029.0 1886.5Q4014 1884 4004 1878Q3993 1872 3981.0 1857.0Q3969 1842 3957.5 1822.0Q3946 1802 3936.5 1779.0Q3927 1756 3922 1735L4045 1624Q4053 1672 4066 1709Q4072 1725 4079.0 1740.5Q4086 1756 4095.0 1768.0Q4104 1780 4115.0 1787.0Q4126 1794 4139 1794Q4159 1794 4169.5 1776.5Q4180 1759 4180 1733Q4180 1725 4172.5 1696.5Q4165 1668 4153.0 1630.0Q4141 1592 4128.0 1548.5Q4115 1505 4103.0 1467.5Q4091 1430 4083.5 1403.0Q4076 1376 4076 1370Q4076 1353 4082.5 1327.0Q4089 1301 4103 1282Q4108 1275 4126.0 1257.0Q4144 1239 4168.5 1216.5Q4193 1194 4221.0 1170.0Q4249 1146 4276.5 1126.0Q4304 1106 4326.5 1093.0Q4349 1080 4363 1080ZM4588 1800Q4641 1800 4698.0 1747.5Q4755 1695 4809 1579L4838 1598Q4811 1661 4775.5 1713.0Q4740 1765 4699.0 1802.0Q4658 1839 4611.5 1859.5Q4565 1880 4517 1880Q4495 1880 4473.0 1865.0Q4451 1850 4433.0 1827.0Q4415 1804 4403.5 1777.5Q4392 1751 4392 1727Q4392 1697 4399.0 1659.0Q4406 1621 4417.0 1580.0Q4428 1539 4441.0 1499.0Q4454 1459 4466.0 1425.5Q4478 1392 4487.0 1368.0Q4496 1344 4500 1336Q4520 1288 4559.0 1243.0Q4598 1198 4646.5 1163.0Q4695 1128 4747.5 1107.0Q4800 1086 4848 1086Q4864 1086 4879.0 1095.5Q4894 1105 4906.0 1121.5Q4918 1138 4925.0 1160.5Q4932 1183 4932 1209Q4932 1248 4920.5 1275.0Q4909 1302 4892.0 1320.5Q4875 1339 4854.5 1349.5Q4834 1360 4815.5 1365.5Q4797 1371 4783.5 1372.5Q4770 1374 4766 1374Q4777 1353 4784.0 1329.0Q4791 1305 4795.5 1282.5Q4800 1260 4801.5 1241.0Q4803 1222 4803 1209Q4803 1198 4801.5 1186.5Q4800 1175 4797.0 1165.0Q4794 1155 4788.5 1149.0Q4783 1143 4775 1143Q4758 1143 4739.0 1165.5Q4720 1188 4701.0 1226.0Q4682 1264 4663.0 1313.0Q4644 1362 4627.0 1415.0Q4610 1468 4595.5 1520.5Q4581 1573 4570.0 1617.5Q4559 1662 4553.0 1695.0Q4547 1728 4547 1741Q4547 1770 4558.5 1785.0Q4570 1800 4588 1800ZM4983 1346Q5007 1288 5042.0 1241.5Q5077 1195 5119.0 1162.5Q5161 1130 5208.0 1113.0Q5255 1096 5303 1096Q5324 1096 5349.5 1107.5Q5375 1119 5397.0 1139.0Q5419 1159 5433.5 1187.5Q5448 1216 5448 1250Q5448 1279 5441.0 1316.5Q5434 1354 5423.0 1393.5Q5412 1433 5399.0 1472.0Q5386 1511 5374.0 1543.5Q5362 1576 5352.5 1599.0Q5343 1622 5339 1630Q5315 1689 5280.0 1735.0Q5245 1781 5203.0 1813.5Q5161 1846 5114.5 1863.0Q5068 1880 5020 1880Q4999 1880 4973.5 1869.0Q4948 1858 4926.0 1837.5Q4904 1817 4889.5 1789.0Q4875 1761 4875 1727Q4875 1697 4882.0 1659.5Q4889 1622 4900.0 1582.5Q4911 1543 4924.0 1504.0Q4937 1465 4949.0 1433.0Q4961 1401 4970.0 1377.5Q4979 1354 4983 1346ZM5260 1151Q5237 1151 5210.5 1191.5Q5184 1232 5157.5 1295.0Q5131 1358 5106.5 1432.5Q5082 1507 5063.5 1576.0Q5045 1645 5033.5 1697.5Q5022 1750 5022 1768Q5022 1797 5033.0 1810.0Q5044 1823 5063 1823Q5080 1823 5099.0 1799.5Q5118 1776 5138.0 1737.0Q5158 1698 5177.5 1647.0Q5197 1596 5215.0 1541.5Q5233 1487 5248.5 1433.0Q5264 1379 5275.5 1333.0Q5287 1287 5293.5 1253.5Q5300 1220 5300 1207Q5300 1178 5289.0 1164.5Q5278 1151 5260 1151Z" fill="currentColor" /></svg>