<svg viewBox="0 0 3984 776.0" xmlns="http://www.w3.org/2000/svg"><path d="M14 33 166 36H285Q398 36 463.0 84.5Q528 133 528 235Q528 312 487.5 361.5Q447 411 377 431Q412 492 464.5 570.0Q517 648 549.5 684.5Q582 721 604.0 724.5Q626 728 672 728Q674 736 674.0 743.5Q674 751 672 759Q599 763 558.5 769.5Q518 776 510.5 776.0Q503 776 480.5 750.5Q458 725 428.0 679.5Q398 634 373.5 595.0Q349 556 318.5 505.5Q288 455 281 444Q217 444 182 440V589Q182 649 189 721Q220 728 277 728Q280 736 280.0 745.5Q280 755 277 759L144 756Q68 756 5 764Q0 758 0 747L1 739Q53 727 69 702Q82 682 86 652Q98 561 98 406Q98 75 80 69Q61 64 14 64Q10 57 10.0 51.0Q10 45 14 33ZM193 72Q182 116 182 404Q218 407 282.0 407.0Q346 407 393.5 363.0Q441 319 441.0 245.5Q441 172 399.5 120.0Q358 68 289.0 68.0Q220 68 193 72ZM1218 512Q1218 734 960 776Q854 776 781.5 700.5Q709 625 709 512Q709 288 968 247Q1073 247 1145.5 324.0Q1218 401 1218 512ZM982 733Q1126 733 1126 549Q1126 445 1078.0 367.0Q1030 289 951.0 289.0Q872 289 836.5 339.5Q801 390 801.0 483.5Q801 577 850.0 655.0Q899 733 982 733ZM1577 309Q1547 283 1500 283Q1403 283 1403 361Q1403 386 1421.5 408.5Q1440 431 1467 444L1545 481Q1659 536 1659 628Q1659 696 1605.0 736.0Q1551 776 1477 776Q1438 776 1395.5 768.5Q1353 761 1335 753Q1332 708 1317 628Q1328 621 1335.5 621.0Q1343 621 1346 623Q1366 683 1381 700Q1392 711 1420.0 724.0Q1448 737 1486.5 737.0Q1525 737 1553.0 716.0Q1581 695 1581 653Q1581 625 1570.0 611.0Q1559 597 1551.5 589.5Q1544 582 1534.5 576.0Q1525 570 1518.5 566.5Q1512 563 1505.5 559.5Q1499 556 1498 556L1423 520Q1326 474 1326 387Q1326 316 1380.0 281.5Q1434 247 1502 247Q1535 247 1576.5 255.5Q1618 264 1639 273Q1632 297 1623 385Q1618 389 1609.5 389.0Q1601 389 1593 387Q1585 337 1577 309ZM2116 392 2113 636Q2113 709 2160 709L2196 708Q2200 713 2200 724L2198 735Q2121 749 2088 776Q2066 770 2050.5 748.5Q2035 727 2033 703Q1953 752 1874 776Q1840 776 1804.0 737.5Q1768 699 1768 641Q1768 612 1781.0 588.5Q1794 565 1812 556Q1886 519 2032 491V396Q2032 341 2014.5 314.0Q1997 287 1972.5 287.0Q1948 287 1920.0 295.5Q1892 304 1880.5 328.0Q1869 352 1869 396Q1869 400 1855.5 404.5Q1842 409 1821.5 409.0Q1801 409 1793.5 399.5Q1786 390 1786 371Q1786 335 1838 293Q1850 285 1908.5 266.0Q1967 247 1976 247Q2048 247 2082.0 289.0Q2116 331 2116 392ZM2029 663Q2032 604 2032 527Q1948 538 1884 575Q1857 588 1857 636Q1857 660 1876.0 688.0Q1895 716 1919.5 716.0Q1944 716 1976.0 699.0Q2008 682 2029 663ZM2281 307 2242 308Q2237 303 2237 293L2239 281Q2307 272 2350 253Q2364 247 2367 247Q2378 247 2392.0 286.5Q2406 326 2409 365Q2484 287 2545 247Q2585 247 2611.0 270.5Q2637 294 2637 329Q2637 369 2566 369Q2551 316 2515 316Q2491 316 2415 399Q2409 475 2409 641Q2409 724 2422 725Q2445 728 2503 728Q2506 735 2506.0 744.0Q2506 753 2503 759L2391 756Q2309 756 2246 764Q2241 758 2241 747L2242 739Q2295 729 2310 708Q2321 692 2326.0 656.5Q2331 621 2331.0 517.0Q2331 413 2330.5 402.0Q2330 391 2329.0 373.0Q2328 355 2325.0 346.0Q2322 337 2316 326Q2306 307 2281 307ZM2906 759 2816 756Q2746 756 2684 764Q2678 756 2678 747L2680 739Q2723 729 2738 708Q2749 692 2755.0 669.5Q2761 647 2761 540V444Q2761 382 2755.5 358.0Q2750 334 2739.0 326.0Q2728 318 2710 316L2673 313Q2670 309 2670 300L2673 287Q2725 276 2757.5 264.5Q2790 253 2834 231Q2845 231 2849 243Q2837 311 2837 567Q2837 613 2840.5 668.5Q2844 724 2850 725Q2865 728 2906 728Q2909 735 2909.0 744.0Q2909 753 2906 759ZM2812 117Q2776 92 2761 51Q2773 37 2793.5 21.5Q2814 6 2829 0Q2867 28 2878 67Q2850 103 2812 117ZM3046 263 3130 260Q3133 265 3133 275L3130 291Q3099 291 3086 293Q3095 364 3133 448L3221 641L3290 456Q3326 359 3335 296Q3305 291 3271 291Q3269 284 3269.0 274.5Q3269 265 3271 260Q3311 263 3358.5 263.0Q3406 263 3442 257Q3449 268 3449 283Q3424 294 3413 305Q3379 339 3350 412L3202 776H3187L3039 428Q2998 329 2974 303Q2961 287 2934 279Q2933 276 2933.0 268.0Q2933 260 2939 253Q3008 263 3046 263ZM3984 512Q3984 734 3726 776Q3620 776 3547.5 700.5Q3475 625 3475 512Q3475 288 3734 247Q3839 247 3911.5 324.0Q3984 401 3984 512ZM3748 733Q3892 733 3892 549Q3892 445 3844.0 367.0Q3796 289 3717.0 289.0Q3638 289 3602.5 339.5Q3567 390 3567.0 483.5Q3567 577 3616.0 655.0Q3665 733 3748 733Z" /></svg>