<svg viewBox="0 0 3049 741" xmlns="http://www.w3.org/2000/svg"><path d="M0 0H217Q286 0 342.0 17.5Q398 35 430.5 79.0Q463 123 463 201Q463 241 444.0 278.0Q425 315 393.5 342.5Q362 370 324 382L528 728H420L232 401H107V728H14V66ZM107 69V333H187Q237 333 277.5 321.5Q318 310 342.0 280.0Q366 250 366 195Q366 152 345.0 124.5Q324 97 290.0 83.0Q256 69 217 69ZM760 741Q687 741 637.5 704.5Q588 668 563.5 609.0Q539 550 539 483Q539 433 554.0 385.5Q569 338 598.0 300.5Q627 263 669.5 241.0Q712 219 766 219Q840 219 889.5 255.0Q939 291 963.5 350.0Q988 409 988 477Q988 528 973.0 575.5Q958 623 929.5 660.0Q901 697 858.5 719.0Q816 741 760 741ZM761 678Q800 678 826.5 659.5Q853 641 869.5 611.0Q886 581 893.0 546.5Q900 512 900 480Q900 447 893.5 412.5Q887 378 872.0 348.5Q857 319 830.5 300.5Q804 282 765 282Q726 282 699.5 300.5Q673 319 657.0 349.0Q641 379 634.0 413.5Q627 448 627 480Q627 511 634.0 545.5Q641 580 656.5 610.0Q672 640 698.0 659.0Q724 678 761 678ZM1276 219Q1310 219 1343.5 227.5Q1377 236 1405 254L1376 318Q1354 300 1327.0 291.0Q1300 282 1274 282Q1237 282 1209.5 299.0Q1182 316 1182 350Q1182 374 1193.5 390.0Q1205 406 1224.0 417.0Q1243 428 1265 439Q1290 451 1315.5 463.5Q1341 476 1362.5 493.5Q1384 511 1397.5 535.5Q1411 560 1411 596Q1411 646 1386.5 678.5Q1362 711 1322.5 726.0Q1283 741 1237 741Q1197 741 1157.0 730.0Q1117 719 1083 699L1118 638Q1142 656 1172.0 667.0Q1202 678 1230 678Q1268 678 1296.5 660.0Q1325 642 1325 606Q1325 581 1309.5 564.5Q1294 548 1270.0 535.0Q1246 522 1220 510Q1190 495 1161.5 477.5Q1133 460 1115.0 433.0Q1097 406 1097 364Q1097 316 1122.5 284.0Q1148 252 1189.0 235.5Q1230 219 1276 219ZM1715 219Q1794 219 1834.0 262.0Q1874 305 1874 383V632Q1874 653 1882.0 660.5Q1890 668 1901 668Q1910 668 1920.0 665.5Q1930 663 1939 659L1957 713Q1941 722 1916.5 729.5Q1892 737 1866 737Q1840 737 1819.0 722.5Q1798 708 1793 669Q1764 700 1725.0 719.5Q1686 739 1643 739Q1584 739 1545.0 704.0Q1506 669 1506 608Q1506 551 1533.5 517.0Q1561 483 1605.0 466.0Q1649 449 1698.5 443.0Q1748 437 1791 437V384Q1791 356 1784.0 333.5Q1777 311 1759.0 297.5Q1741 284 1708 284Q1670 284 1635.0 299.0Q1600 314 1565 343L1524 284Q1565 251 1614.0 235.0Q1663 219 1715 219ZM1791 502Q1764 502 1730.0 504.5Q1696 507 1664.0 516.5Q1632 526 1611.5 547.0Q1591 568 1591 605Q1591 638 1613.5 653.5Q1636 669 1670 669Q1706 669 1733.0 649.0Q1760 629 1775.5 598.0Q1791 567 1791 534ZM2095 222Q2113 266 2118 315Q2144 274 2188.0 248.0Q2232 222 2281 222L2261 310Q2213 310 2179.5 335.0Q2146 360 2120 398V728H2037V368Q2037 348 2034.0 323.0Q2031 298 2024.0 274.0Q2017 250 2005 233ZM2490 64Q2490 89 2472.5 107.0Q2455 125 2429 125Q2404 125 2386.5 107.0Q2369 89 2369 64Q2369 39 2386.5 21.0Q2404 3 2429 3Q2454 3 2472.0 21.0Q2490 39 2490 64ZM2472 231V728H2389V290L2377 231ZM2821 741Q2748 741 2698.5 704.5Q2649 668 2624.5 609.0Q2600 550 2600 483Q2600 433 2615.0 385.5Q2630 338 2659.0 300.5Q2688 263 2730.5 241.0Q2773 219 2827 219Q2901 219 2950.5 255.0Q3000 291 3024.5 350.0Q3049 409 3049 477Q3049 528 3034.0 575.5Q3019 623 2990.5 660.0Q2962 697 2919.5 719.0Q2877 741 2821 741ZM2822 678Q2861 678 2887.5 659.5Q2914 641 2930.5 611.0Q2947 581 2954.0 546.5Q2961 512 2961 480Q2961 447 2954.5 412.5Q2948 378 2933.0 348.5Q2918 319 2891.5 300.5Q2865 282 2826 282Q2787 282 2760.5 300.5Q2734 319 2718.0 349.0Q2702 379 2695.0 413.5Q2688 448 2688 480Q2688 511 2695.0 545.5Q2702 580 2717.5 610.0Q2733 640 2759.0 659.0Q2785 678 2822 678Z" /></svg>