<svg viewBox="0 0 9345 1008" xmlns="http://www.w3.org/2000/svg"><path d="M19 623 31 621 15 616 28 614 11 609 26 607 6 602 23 600 2 595 22 593 2 588 22 586 1 581 22 578 1 573 22 571 1 566 22 564 1 559 21 557 0 552 21 550 0 545 21 543 0 538 21 536 1 531 22 529 1 524 22 522 1 517 22 514 2 509 22 507 2 502 23 500 3 495 23 493 4 488 24 486 5 481 24 479 6 474 25 472 7 467 26 465 8 460 26 458 9 453 27 450 11 445 28 443 12 438 29 436 14 431 30 429 15 424 31 422 16 417 31 415 18 410 32 408 19 403 33 401 21 396 34 393 23 389 35 386 24 381 36 379 26 374 37 372 27 367 38 365 29 360 39 358 30 353 40 351 32 346 40 344 33 339 41 337 35 332 42 329 36 325 43 322 38 317 44 315 39 310 44 308 40 303 45 301 41 296 46 294 42 289 46 287 43 282 47 280 44 275 47 272 44 267 47 264 45 259 48 257 45 252 48 249 45 244 48 242 45 237 47 234 45 229 47 227 44 222 47 220 44 214 46 212 43 206 46 205 42 199 46 197 41 191 45 189 40 184 45 182 40 176 44 174 39 169 44 167 38 161 44 160 37 154 44 152 37 146 44 145 37 138 45 137 38 129 49 130 41 116 53 118 48 105 56 109 52 99 64 105 61 87 72 98 75 80 81 91 85 76 91 89 96 73 101 86 107 70 110 83 116 69 119 81 124 67 127 80 132 66 134 79 140 65 142 78 147 64 150 78 155 63 157 77 163 62 165 77 171 61 172 76 178 60 180 75 185 59 187 75 193 58 195 74 200 56 202 74 208 55 210 72 216 53 218 71 223 51 225 70 230 50 233 69 238 48 240 68 245 46 247 67 253 45 255 67 260 43 262 66 268 42 270 65 275 41 278 68 285 40 286 70 296 40V68L306 41L304 67L314 42L312 67L321 43L319 68L329 44L326 69L336 45L334 70L343 47L341 72L351 49L348 73L358 50L355 75L365 52L362 77L372 55L369 79L379 57L376 81L386 59L383 83L392 62L389 85L399 65L396 87L406 67L403 89L413 70L410 92L420 73L417 94L426 76L424 96L433 78L430 99L440 81L437 101L447 84L444 103L453 87L451 106L460 90L457 108L467 93L464 111L473 96L471 113L480 99L478 116L487 102L484 118L493 105L491 121L500 109L498 124L506 112L504 127L513 116L511 130L519 120L518 133L526 123L524 136L532 127L531 139L539 131L537 142L545 135L544 145L552 138L550 148L558 142L557 152L565 146L564 155L571 149L570 158L578 153L577 162L585 158L583 166L592 163L589 172L600 170L595 178L606 179L601 185L609 187L604 193L611 195L607 200L613 203L609 207L614 210L610 214L615 218L612 221L616 225L613 229L616 232L614 236L616 240L615 243L617 247L616 251L617 254V259V262L618 267L617 265V264V265L619 271V272V274V273L620 278V279V281L621 285V286V288L622 292V293V295L623 299V300V302V306L624 307V309V313V314V316L625 320V322V323V327V329V330L626 335V334V336V337V343V344V343V341L627 351L628 361L630 368L629 369L631 375L629 377L632 383L630 384L633 390L630 392L634 398L629 399L634 406L628 407L633 415H626L630 424L623 423L627 431L620 429L624 438L616 436L621 445L613 442L617 452L609 449L613 459L605 455L609 465L601 461L605 472L596 467L601 478L592 473L597 485L588 479L593 491L583 485L589 498L580 492L585 504L577 498L583 509L575 504L581 514L574 510L581 518L574 516L581 522L576 520L578 521L584 522L581 523L582 524L579 523L583 525H572L568 526L587 529L573 534H589L577 539L591 538L578 545L594 542L580 551L597 548L582 558L600 554L585 564L604 560L588 571L608 567L592 578L611 573L595 584L615 580L599 591L618 586L602 597L621 593L605 604L624 600L608 610L627 606L611 617L629 613L615 623L632 620L618 630L635 626L621 636L637 633L624 643L640 639L627 649L643 646L630 655L646 652L633 662L649 658L635 669L652 666L639 676L656 673L642 684L660 681L644 692L664 691L647 700L667 701L649 709L670 713L651 719L670 724L645 730L668 749L642 744L653 768L634 754L637 782L622 762L616 786L611 771L607 787L603 772L598 786L595 773L590 786L587 773L582 785L579 772L574 784L572 772L566 783L564 771L559 782L557 771L552 780L550 770L545 779L543 769L537 778L535 769L530 777L528 768L523 776L521 767L516 775L513 767L508 774L506 766L501 772L499 765L493 771L491 765L486 770L484 763L477 769L475 762L467 767L466 760L458 764L457 758L448 761V755L441 757V751L434 752L435 747H427L429 742H421L423 737L416 736L418 731L411 729L414 725L406 722L409 718L402 715L405 711L398 708L401 704L394 701L398 697L390 695L394 691L387 688L391 684L383 681L388 677L379 674L384 670L376 668L381 664L372 662L377 657L369 655L374 651L366 649L371 644L362 643L368 638L359 636L365 631L356 630L362 625L353 623L359 618L350 617L356 611L347 610L353 605L344 603L350 598L341 597L347 592L338 591L344 586L335 585L340 580H332L337 575H329L333 570H326L328 566L323 568L325 560L315 564L316 556L308 560L307 554L301 559L300 554L296 559L292 554L289 564L285 561V566L282 564L284 571L276 569L280 580L276 579L281 584L273 585L281 591L273 592L281 598L274 600L282 605L274 607L283 612L274 614L285 619L275 621L286 626L275 629L287 634L277 636L288 641L277 643L289 648L278 650L290 655L278 657L291 662L279 664L291 669L279 671L292 677L279 678L293 684L279 686L293 691L278 693L293 699L278 701L293 708L277 709L292 718L275 717L290 728L272 726L287 738L270 734L282 747L261 740L273 764L253 751L257 775L246 762L248 780L238 765L239 784L230 768L228 787L221 771L218 789L213 773L208 790L205 774L199 790L197 776L192 790L189 776L185 790L182 776L177 790L175 776L170 790L168 776L163 790L161 776L155 790L153 776L148 789L146 776L141 789L139 775L133 788L132 775L126 787L124 774L119 787L117 773L111 786L110 771L102 785L101 770L92 783V768L81 780L83 763L67 775L74 758L54 764L61 750L44 756L55 742H36L48 733L31 730L44 723L28 719L41 714L27 709L39 705L26 701L37 697L25 692L37 689L25 685L36 682L25 677L36 675L24 669L36 667L24 662L35 660L24 655L35 653L24 648L35 646L24 641L35 639L24 634L29 633L24 631L34 629ZM625 346 626 351V350V344L625 343L626 337L624 335L625 330L624 328V322L623 320L624 315L622 313L623 308L621 306L622 301L620 299L621 294L620 292V287L619 284L620 279L618 277V272L617 269V264L616 258V257L617 269L618 276V277V283L619 284V290L620 292L619 297L620 299V304L621 306L620 311L622 313L621 318L623 320L622 325L624 328L623 332L624 335V339L625 343ZM367 356 373 362 372 351 378 357 375 347 381 352 377 343 383 347 378 340 386 343 380 336 388 339 382 332 390 334 382 328 392 329 383 323H392L383 319L392 318L382 314L392 312L382 310L391 307L380 306L389 302H379L387 297L377 298L384 293L375 295L381 290L373 293L378 287L370 291L374 285L367 289L371 282L364 288L368 279L361 287L364 277L357 286L359 275L353 285L354 273L348 284L349 272L343 284V271L337 284V270L332 284L331 269L326 284L324 268L319 284L318 271L314 285L312 274L310 285L308 278V286L307 282V287L305 283L306 288V287H305V289L303 287V286L305 290L303 288L305 290L292 285L306 293L290 292L305 298H290L304 303L289 304L304 309L288 310L304 314L287 316L303 320L288 322L303 326L287 329L303 332L288 335L303 338L287 342L296 343L299 342L298 344H303L299 345L292 350L289 353L299 349H300L303 348L297 353L294 360L305 352L302 363L309 354L308 365L313 356V368L317 358L318 370L323 360L325 371L329 361L332 372L335 361L338 372L342 362L346 372L349 361L353 371L356 361L360 369L361 363V361L362 362V360L366 367L367 368ZM306 287 303 284 304 286ZM822 755 823 750 813 753 815 747 803 751 807 743 794 748 800 738 783 744 794 731 776 735 787 724 770 726 782 717 766 718 778 710H763L774 703H759L771 696L756 695L768 689L753 688L765 681H751L763 674L748 673L761 667L746 666L758 660L743 659L756 653L741 652L754 646L739 644L752 639L737 637L750 632L735 630L748 625L734 623L747 617L732 615L746 610L731 608L744 603L730 601L743 596L729 593L742 588L729 586L741 581L728 578L740 574L727 571L739 567L727 564L738 559L726 556L737 552L725 549L737 545L725 541L736 537L724 534L735 530L724 526L735 522L723 518L735 515L723 509L735 507L724 501L734 499L724 494L734 492L724 487L734 484L724 479L734 477L725 472L735 470L725 465L735 463L725 458L735 456L725 451L735 448L725 443L735 441L725 436L735 434L725 429L735 427L725 422L734 420L724 415L734 412L724 407L734 405L723 399L734 397L723 392L733 390L722 384L732 382L720 377L732 375L719 369L731 367L718 361L730 359L716 354L729 352L714 346L728 344L712 338L728 336L711 329L727 328L709 321L727 320L708 312H728L707 302L730 303L708 290L733 294L710 277L742 287L720 258L747 276L732 243L758 265L746 230L768 259L766 222L775 246V219L783 244L785 217L793 244L796 215L802 242L807 215L811 240L816 215L819 240L825 215L827 239L833 216L835 238L841 217L843 238L848 218L850 239L855 219L858 239L862 219L865 239L870 220L872 240L877 220L880 241L885 220L888 241L893 220L895 241L902 220L904 242L911 220L912 243L920 221V244L930 221L929 245L940 222L937 249L953 224L947 253L967 228L957 259L983 236L965 269L1002 252L975 277L1014 270L988 286L1020 282L991 295L1025 294L995 305L1028 306L999 314L1030 317L1001 322L1031 328L1004 331L1031 337L1005 339L1031 345L1007 347L1031 352L1006 354L1031 360L1006 362L1031 367L1006 369L1031 374L1006 377L1030 382L1006 384L1030 389L1006 391L1029 396L1005 398L1029 404L1005 406L1028 411L1005 413L1027 418L1004 420L1026 425L1003 428L1025 433L1003 435L1024 440L1002 442L1023 447L1001 449L1021 455L1000 457L1020 462L999 464L1018 469L998 471L1016 476L997 479L1015 484L996 486L1013 491L995 493L1011 498L994 500L1009 505L993 508L1007 513L991 515L1005 520L991 523L1003 527L991 530L1002 534L990 536L1000 540L989 543L999 547L989 550L998 553L990 556L998 559L990 563L998 565L992 569L999 570L993 574L1000 575L996 580H1002L999 584L1004 583L1001 591L1011 589L1009 596L1018 594L1017 599L1022 596L1023 602L1029 597L1030 604L1036 599L1039 604L1043 598L1046 603L1050 597L1054 601L1057 593L1063 596L1066 588L1069 590L1070 584L1074 585V579H1078V574L1081 573V568L1084 567L1083 562L1086 560L1085 555L1088 553L1087 548L1089 546L1088 541L1090 539L1089 534L1091 532L1090 527L1091 525L1090 519L1091 517V512L1092 510L1090 504L1091 503L1090 497L1091 495L1090 490L1091 488L1089 483L1090 481L1088 476L1090 474L1087 468L1089 467L1086 461L1088 459L1084 454L1088 452L1083 447L1087 445L1082 440L1086 438L1080 432L1085 431L1079 425L1085 423L1078 418L1084 416L1077 411L1083 409L1076 404L1083 402L1075 397L1082 394L1074 389L1082 387L1074 382L1082 380L1073 375L1081 373L1073 368L1081 366L1072 360L1081 358L1072 353L1082 351L1072 345L1081 342L1072 336L1082 334L1072 328L1082 326L1072 319L1083 317L1073 310L1087 309L1075 295L1090 296L1082 281L1096 285L1090 266L1104 274L1103 256L1113 268L1118 247L1127 262L1136 244L1140 255L1144 242L1148 253L1153 241L1156 252L1161 240L1164 251L1169 239L1171 251L1177 238L1179 250L1185 238L1186 250L1192 237L1194 250L1199 237L1201 249L1207 237L1208 249L1214 237L1216 250L1221 236L1224 249L1229 236L1231 249L1237 235L1239 249L1245 235L1247 250L1253 235L1255 250L1263 235L1264 251L1272 237V253L1282 238L1281 255L1292 241L1288 263L1310 248L1302 269L1326 261L1312 279L1337 277L1319 290L1343 296L1329 302L1345 305L1331 311L1347 314L1333 318L1348 323L1334 326L1348 331L1334 334L1348 339L1335 341L1348 347L1335 349L1348 354L1335 356L1348 361L1335 363L1347 368L1335 370L1347 375L1335 377L1347 382L1334 384L1347 389L1335 391L1347 397L1335 399L1347 404L1335 406L1347 411L1335 413L1347 418L1334 420L1347 425L1334 427L1347 432L1334 434L1347 439L1334 441L1347 446L1334 448L1347 453L1334 455L1346 460L1334 463L1346 468L1334 470L1346 475L1334 477L1346 482L1334 484L1346 489L1334 491L1346 496L1334 498L1346 503L1334 505L1346 510L1334 512L1346 517L1334 519L1346 524L1334 527L1346 532L1334 534L1346 539L1334 541L1347 546L1334 548L1347 553L1335 555L1347 560L1335 562L1348 567L1335 569L1348 574L1336 576L1349 581L1336 583L1349 588L1336 590L1350 596L1337 598L1351 603L1337 605L1352 610L1338 612L1353 617L1338 619L1354 624L1339 626L1355 631L1340 633L1356 638L1340 640L1357 645L1341 647L1358 652L1341 654L1359 659L1342 662L1360 666L1342 669L1361 673L1343 676L1362 681L1342 683L1362 689L1342 691L1363 697L1342 699L1363 706L1341 707L1362 715H1340L1361 724L1339 723L1360 733L1329 730L1355 753L1324 745L1345 770L1327 760L1340 777L1312 760L1326 793L1303 768L1306 803L1294 781L1296 807L1285 784V810L1277 787L1274 812L1268 789L1264 814L1260 791L1255 814L1252 792L1246 815L1244 794L1239 815L1237 795L1232 815L1229 795L1224 816L1222 795L1217 816L1215 796L1210 817L1208 796L1203 818L1201 796L1195 818L1193 797L1188 819L1186 797L1180 820L1178 795L1171 820L1170 794L1161 820V792L1151 820L1152 790L1139 819L1142 788L1127 816L1133 784L1114 812L1124 778L1099 805L1114 773L1086 795L1091 787L1090 782L1086 784V786V785L1083 787V788L1082 787L1081 789H1080L1081 788L1082 786H1081L1079 789L1081 785L1078 780L1074 785L1076 791L1063 772L1068 794L1056 775L1061 797L1048 777L1053 799L1041 779L1044 802L1033 782L1036 804L1027 788L1030 805L1019 786L1021 807L1010 786V810L1001 790L1000 811L993 792L991 811L985 793L982 811L977 794L973 811L969 794L965 810L962 794L957 809L954 794L949 808L946 793L941 807L939 793L933 805L931 792L925 804L924 791L918 802L916 789L910 800L909 788L902 798L901 786L895 796L894 785L887 793V782L880 790L879 780L872 787V777L865 783V774L858 780V771L851 775V767L844 770L845 763L837 764L838 758H832V756H831V753ZM1070 769 1074 784 1076 778ZM1092 780 1091 787 1101 774ZM1081 776 1082 782V777V776ZM1082 785H1083H1082ZM1663 764V761L1659 766L1657 774V784L1658 796L1654 786L1656 797L1648 782L1652 799L1640 781L1647 803L1632 781L1639 807L1624 782L1630 812L1615 783L1618 817L1605 786L1606 820L1596 790L1594 823L1587 794L1584 824L1579 796L1575 825L1571 799L1566 825L1563 798L1558 826L1555 799L1549 826L1547 799L1541 826L1539 800L1533 826L1531 800L1525 826L1523 800L1518 826L1516 800L1510 826L1508 800L1502 825L1500 797L1493 825L1491 795L1482 824V793L1471 823L1473 791L1459 820L1463 789L1448 817L1456 776L1424 807L1442 770L1405 791L1430 759L1389 774L1422 750L1380 753L1408 740L1377 742L1406 731H1375L1403 722L1373 720L1401 714L1373 710L1399 705L1373 701L1397 698L1373 693L1398 690L1374 684L1397 682L1375 677L1397 674L1376 670L1398 667L1377 662L1399 660L1379 655L1400 653L1381 648L1401 645L1383 640L1402 638L1385 633L1404 631L1388 626L1405 624L1390 619L1406 616L1392 611L1408 609L1395 604L1409 602L1397 597L1410 595L1399 590L1412 588L1402 582L1413 580L1404 575L1414 573L1406 568L1415 566L1408 561L1416 559L1409 554L1417 552L1411 547L1418 544L1412 540L1418 537L1413 532L1419 530L1413 525L1419 523L1413 518L1419 516L1414 511L1419 509L1413 504L1419 502L1413 497L1419 495L1413 490L1418 488L1412 483L1418 481L1412 476L1418 474L1411 469L1417 467L1410 462L1417 460L1410 454L1417 452L1410 447L1417 445L1409 440L1417 438L1409 433L1417 431L1410 426L1417 424L1410 419L1417 417L1410 412L1417 410L1410 405L1417 403L1410 398L1417 396L1411 391L1418 388L1411 383L1418 381L1411 376L1418 374L1412 369L1418 367L1412 362L1418 360L1413 355L1419 353L1413 348L1419 346L1413 341L1419 339L1414 334L1420 332L1414 327L1420 325L1415 320L1420 317L1415 313L1420 310L1416 305L1421 303L1416 298L1421 296L1417 291L1421 289L1417 284L1422 282L1418 277L1422 275L1418 270L1422 268L1419 263L1423 261L1420 256L1423 253L1420 249L1424 246L1421 241L1424 239L1422 234L1424 231L1422 227L1424 224L1423 219L1425 217L1423 212L1425 210L1424 205L1425 203L1424 198L1425 196V191L1426 189L1425 184L1426 181L1425 177L1426 174L1425 170L1426 167V162V160V155L1427 153L1426 147L1427 144V139V136V131L1428 128L1429 123V120L1430 115L1431 112L1433 104L1436 100L1432 109L1437 97L1438 96L1441 91L1443 90L1446 85H1450L1454 82H1456L1462 78L1464 79L1470 76L1473 77L1479 73L1481 75L1486 72L1488 74L1494 70L1496 73L1501 69L1503 72L1508 67L1510 71L1515 66L1517 70L1522 65L1524 69L1530 64L1532 69L1537 63L1539 68L1544 61L1546 67L1551 60L1553 67L1558 59L1560 66L1565 58L1567 66L1573 57L1575 65L1580 56L1582 65L1588 55L1590 65L1597 54L1598 66L1606 55V68L1616 56L1615 70L1627 60L1624 71L1634 63L1629 79L1649 71L1638 86L1659 85L1647 96H1667L1652 107L1672 111L1657 117L1674 122L1660 126L1675 132L1661 135L1676 141L1663 144L1677 150L1664 152L1678 157L1664 160L1679 165L1665 167L1680 173L1666 175L1681 180L1666 182L1682 188L1667 190L1683 195L1667 197L1683 203L1668 205L1684 210L1668 212L1685 218L1669 220L1686 225L1669 227L1686 232L1668 234L1687 240L1670 243L1683 246L1682 242L1685 247H1687L1686 248L1692 258L1690 239L1700 256L1698 235L1708 252L1707 233L1715 250V231L1723 247V228L1730 245L1731 227L1738 244L1740 225L1746 242L1748 224L1754 241L1757 223L1761 240L1765 223L1770 242L1777 222L1779 242L1788 223V241L1797 224V242L1806 226L1804 243L1814 228L1812 244L1822 229L1820 246L1829 232L1827 248L1837 234L1834 250L1844 236L1841 252L1852 238L1849 255L1859 241L1856 257L1866 244L1863 260L1873 247L1869 263L1881 250L1876 266L1888 253L1883 269L1895 256L1890 272L1901 260L1897 275L1908 264L1903 279L1915 267L1910 283L1922 271L1916 286L1929 276L1923 291L1936 280L1929 295L1942 285L1936 300L1949 291L1942 305L1956 297L1947 312L1964 305L1954 319L1971 314L1961 324L1975 321L1965 331L1979 328L1969 337L1983 336L1972 344L1986 343L1976 351L1989 350L1979 358L1992 357L1982 365H1995L1985 372H1998L1987 379L2000 380L1990 386L2003 387L1992 393L2005 394L1993 400L2007 403L1996 408L2009 410L1998 415L2011 418L1999 423L2012 426L2001 430L2014 433L2002 437L2015 441L2003 445L2016 448L2004 452L2017 456L2005 459L2017 463L2006 466L2018 471L2006 474L2019 478L2007 481L2019 485L2007 488L2019 493L2007 496L2020 501L2005 504L2019 511L2005 512L2018 520H2005L2017 528H2004L2015 536L2003 535L2014 543L2001 542L2012 550H2000L2011 558L1998 557L2009 565L1996 564L2007 572L1994 571L2005 579L1993 578L2003 586L1991 585L2001 593L1989 592L1999 600L1987 599L1997 607L1985 605L1995 614L1983 612L1994 621L1981 619L1992 628L1979 626L1990 635L1977 633L1988 643L1975 640L1987 650L1973 647L1985 657L1971 654L1984 664L1969 661L1982 672L1967 668L1980 679L1965 675L1979 686L1963 682L1977 693L1961 689L1974 701L1958 696L1972 708L1955 703L1969 715L1952 710L1967 722L1949 717L1963 729L1946 723L1960 737L1942 730L1956 744L1937 737L1951 752L1931 743L1945 761L1923 748L1935 772L1916 756L1923 779L1911 765L1915 783L1904 769L1908 787L1897 772L1900 791L1890 775L1892 794L1883 779L1884 796L1875 780V799L1866 783V802L1858 786L1857 804L1850 788L1848 806L1842 790L1839 807L1834 791L1831 809L1826 792L1822 810L1818 793L1814 810L1810 794L1806 811L1802 794L1797 811L1794 794L1789 810L1786 794L1781 810L1779 794L1772 809L1771 793L1764 808L1763 791L1755 806L1754 790L1746 803V788L1737 800L1738 786L1729 797L1730 783L1722 793L1723 780L1714 789L1716 777L1707 784L1709 773L1700 780L1702 769L1694 775L1695 766L1687 770L1689 762L1681 766L1682 758L1675 761L1676 758L1674 759V756ZM1683 253V248L1678 249L1680 252ZM1676 251V250H1672H1673ZM1683 257H1684V255H1683L1682 256ZM1676 257H1677H1676ZM1684 259ZM1728 502 1742 499 1726 496 1740 492 1724 490 1737 486 1722 485 1734 480H1720L1730 476L1719 477L1727 472L1717 474L1723 470L1716 472L1721 468L1715 471L1720 464L1713 469L1718 461L1711 467L1715 459L1709 465L1711 459L1708 464V462V463V458L1706 463L1705 456L1704 462L1702 453L1701 462L1697 453L1698 462L1693 455L1695 463L1691 459L1693 463L1687 458L1690 465L1683 460L1688 467L1678 463L1685 471L1674 468L1682 475L1671 473L1680 481L1668 480L1678 486H1666L1676 492L1665 493L1675 498L1664 499L1674 505L1663 506L1674 511L1663 513L1674 518L1663 520L1674 524L1663 527L1675 531L1664 534L1675 538L1665 541L1677 544L1666 548L1678 550L1668 554L1679 555L1670 559L1681 560L1673 564H1683L1676 568L1685 567L1678 572L1687 570L1681 576L1690 573L1684 580L1693 576L1688 583L1695 578L1693 585L1697 580H1698V582L1697 593L1706 580L1707 590L1710 582L1713 590L1714 579L1720 588L1719 578L1725 583L1721 574L1730 580L1725 570L1733 574L1727 566L1735 569L1729 562L1738 564L1730 557L1740 559L1731 552L1742 553L1732 547L1743 548L1732 541H1744L1732 536L1744 535L1732 530L1745 529L1732 523L1745 522L1731 517L1744 515L1730 511L1733 510H1729L1745 507ZM2062 673 2072 671 2060 666 2071 664 2059 659 2070 657 2058 652 2070 650 2056 645 2069 643 2056 638 2069 636 2055 631 2068 629 2054 624 2068 622 2054 617 2068 615 2053 610 2067 608 2053 603 2067 601 2052 596 2067 594 2052 589 2067 587 2052 582 2067 580 2052 575 2067 573 2053 568 2068 565 2053 561 2068 558 2054 553 2068 551 2055 546 2069 544 2056 539 2069 537 2056 532 2070 530 2057 525 2070 523 2058 518 2071 516 2059 511 2071 509 2060 504 2072 502 2060 497 2072 495 2061 490 2073 488 2062 483 2073 481 2062 476 2073 474 2063 469 2073 467 2063 462 2073 460 2063 455 2073 453 2063 448 2073 446 2063 441 2073 439 2062 434 2072 432 2061 427 2072 425 2060 420 2071 418 2059 413 2070 411 2058 406 2070 404 2056 399 2069 397 2055 392 2069 389 2054 384 2068 381 2052 376 2067 374 2051 368 2067 366 2050 361 2066 358 2049 353 2066 351 2048 345 2065 343 2047 337 2065 335 2047 329 2065 327 2046 320 2066 319 2046 311 2070 310 2046 298 2072 300 2048 284 2073 289 2051 272 2084 281 2062 249 2090 270 2080 234 2100 259 2095 224 2113 255 2116 217 2124 246 2130 214 2134 241 2140 215 2137 221 2136 204 2125 219 2126 200 2111 215 2116 196 2099 207 2107 191 2090 199 2100 185 2082 190 2094 178 2077 181 2090 171H2073L2086 163L2070 162L2083 155L2067 153L2081 147L2066 144L2079 139L2065 135L2078 132L2064 127L2078 124L2064 119L2077 116L2064 111L2077 109L2064 103L2077 101L2064 95L2078 94L2064 86L2079 85L2065 77H2081L2067 66L2084 68L2070 54L2088 59L2077 43L2090 49L2082 36L2096 46L2089 29L2105 40L2101 19L2114 34L2115 12L2123 28L2125 9L2131 24L2135 8L2139 22L2144 7L2147 20L2152 6L2155 20L2160 4L2163 18L2167 3L2170 17L2175 2L2177 17L2182 2L2185 16L2190 1L2192 16L2197 1L2199 16L2204 0L2206 16L2212 0L2213 16L2219 0L2221 16L2226 0L2228 17L2234 1L2236 18L2243 1L2244 19L2252 2V21L2262 4L2260 23L2272 7L2268 25L2281 10L2275 35L2299 20L2286 42L2312 34L2293 52L2323 51L2302 65L2328 70L2311 77L2330 79L2313 85L2331 88L2314 93L2332 97L2315 101L2332 106L2315 109L2332 114L2315 117L2332 123L2315 125L2331 132L2314 133L2330 140L2314 141L2328 148H2305L2325 168L2301 164L2316 185L2294 178L2305 201L2287 187L2290 211L2276 194L2274 217L2276 213L2273 246L2289 216L2282 258L2315 227L2295 265L2335 249L2306 273L2346 266L2313 288L2352 289L2324 297L2354 301L2330 305L2354 309L2330 313L2355 318L2330 321L2355 326L2331 329L2355 334L2332 337L2356 342L2332 344L2356 350L2333 352L2356 357L2333 359L2356 365L2333 366L2356 372L2333 374L2356 379L2333 381L2356 387L2333 388L2356 394L2333 395L2355 401L2333 402L2355 407L2333 409L2354 414L2331 416L2354 422L2331 424L2353 429L2331 431L2352 436L2330 438L2351 443L2330 446L2351 451L2330 453L2350 458L2329 460L2349 465L2328 467L2348 472L2328 474L2347 479L2327 481L2346 486L2327 488L2345 493L2326 496L2344 501L2325 503L2343 508L2325 510L2341 515L2324 517L2340 522L2324 524L2339 529L2323 531L2338 536L2322 539L2337 544L2322 546L2336 551L2321 553L2336 558L2321 560L2335 565L2320 567L2334 572L2320 574L2333 579L2319 581L2332 586L2319 589L2332 594L2319 596L2331 601L2318 603L2330 608L2317 610L2330 616L2318 618L2329 623L2317 625L2329 630L2317 632L2329 637L2317 639L2329 644L2317 646L2329 651L2317 653L2329 658L2317 660L2329 665L2317 667L2328 672L2317 674L2328 679L2317 681L2328 686L2317 688L2328 693L2315 695L2327 702L2314 705L2326 712L2313 714L2325 721L2312 723L2323 731L2307 732L2319 746L2304 744L2311 757L2301 754L2306 763L2294 758L2296 772L2287 764L2284 776L2279 769L2276 777L2271 771L2268 779L2264 772L2259 779L2256 773L2251 779L2248 773L2243 779L2241 773L2236 778L2233 773L2228 777L2226 773L2221 776L2219 772L2214 776L2212 772L2207 776L2205 772L2199 776L2197 773L2192 777L2190 773L2185 777L2183 774L2178 778L2176 774L2171 779L2169 775L2163 780L2161 775L2156 781L2154 776L2148 782L2146 776L2140 783L2139 776L2132 783L2131 775L2124 783L2123 771L2106 780L2109 766L2092 770L2097 759L2080 761L2090 751L2073 747L2083 740L2069 737L2080 731L2067 727L2078 723L2066 717L2076 714L2065 708L2075 706L2064 700L2075 697L2064 691L2074 689L2064 684L2068 683L2063 681L2073 679ZM2262 211 2263 244 2273 219 2263 199 2254 223 2251 211 2253 241ZM2141 214 2144 238 2147 222 2146 206ZM2240 210 2243 239 2251 210 2249 206 2244 224 2240 208 2235 224 2234 219 2235 234ZM2150 217 2152 235 2156 217 2155 207ZM2226 222 2227 234 2232 212 2231 209ZM2219 220 2220 234 2224 215 2223 209ZM2158 219 2160 235 2163 217 2162 209ZM2211 218 2212 234 2216 218 2215 210ZM2166 219 2167 234 2171 217 2170 210ZM2173 219 2175 234 2178 217 2177 210ZM2181 219 2182 234 2186 218 2184 210ZM2204 218 2205 234 2208 220 2206 210ZM2189 219 2190 234 2193 219 2192 210ZM2196 218 2197 234 2200 220 2199 211ZM2387 642 2395 640 2382 635 2392 633 2376 628 2389 626 2371 621 2386 619 2366 614 2385 612 2366 606 2385 604 2367 599 2386 597 2369 592 2387 590 2370 585 2388 583 2371 578 2388 576 2373 571 2389 569 2374 564 2390 562 2375 557 2391 554 2377 549 2392 547 2378 542 2392 540 2380 535 2393 533 2381 528 2394 526 2382 521 2395 519 2384 514 2396 512 2385 507 2396 504 2386 499 2397 497 2387 492 2397 490 2388 485 2398 483 2388 478 2398 476 2389 471 2399 469 2390 464 2399 462 2391 457 2399 455 2391 450 2400 447 2392 442 2400 440 2393 435 2401 433 2394 428 2402 426 2396 421 2403 419 2397 414 2403 412 2398 407 2404 404 2400 400 2405 397 2401 393 2406 390 2403 385 2407 383 2405 378 2408 376 2406 371 2409 368 2408 364 2410 361 2409 357 2411 352V350V345V282V272V267V257V252V245V238V228L2412 229L2411 235L2412 237L2411 243L2413 245L2412 250L2414 252L2412 258L2414 260L2412 265L2415 267L2412 273L2415 275L2412 280L2415 282L2412 288L2415 290L2412 296L2415 298L2412 303L2415 305L2412 310L2414 312L2412 317L2414 319L2412 324L2413 327L2412 332L2413 334L2411 339L2412 342L2411 348V355L2412 343V342L2413 335V334L2414 328L2413 327L2415 321L2414 319L2416 314L2414 312L2417 307L2415 305L2418 300L2415 298L2418 293L2415 290L2418 285L2415 282L2418 277L2415 275L2418 270L2415 267L2417 262L2414 260L2416 255L2414 252L2415 247L2413 245L2414 240L2412 237L2413 233L2412 229V225L2411 220V230V223L2410 210L2409 203V202L2408 196L2409 194L2407 188L2408 186L2406 181L2408 179L2406 173L2408 171L2405 165L2407 163L2404 158L2407 156L2404 150L2407 148L2403 142L2406 141L2403 135L2406 133L2402 127L2407 125L2402 117L2408 116L2404 108H2410L2406 100L2413 101L2410 92L2417 93L2414 84L2422 87L2421 76L2428 81L2429 70L2436 77L2439 64L2445 73L2450 61L2454 70L2460 59L2463 68L2469 58L2472 67L2477 57L2480 66L2485 56L2487 65L2493 56L2495 65L2500 56L2502 65L2508 56L2510 65L2515 56L2517 65L2523 56L2525 65L2530 56L2532 65L2538 56L2540 65L2545 57L2547 66L2553 57L2555 66L2562 57L2564 67L2571 57L2572 68L2581 58V70L2593 61L2591 74L2605 67L2601 80L2619 75L2611 88H2628L2618 98L2637 100L2624 109L2641 115L2631 119L2643 123L2633 127L2645 131L2634 135L2647 139L2635 142L2648 147L2636 149L2649 155L2637 157L2650 162L2637 164L2650 170L2638 172L2651 177L2638 179L2651 184L2638 186L2651 191L2638 193L2651 198L2638 201L2651 206L2638 208L2650 213L2638 215L2650 220L2637 222L2650 227L2637 229L2649 234L2637 236L2649 241L2637 244L2649 249L2637 251L2649 256L2637 258L2650 263L2638 265L2650 270L2638 272L2651 277L2639 279L2652 284L2639 286L2653 292L2640 294L2654 299L2640 301L2655 306L2641 308L2657 313L2642 315L2655 319L2652 316L2669 324L2654 308L2673 317L2657 301L2676 310L2660 294L2681 304L2664 285L2686 296L2668 276L2692 289L2673 265L2699 282L2680 255L2704 273L2688 245L2711 266L2696 237L2720 262L2708 227L2729 257L2721 219L2738 251L2735 213L2748 246L2747 210L2757 242L2759 207L2766 239L2770 205L2775 237L2781 204L2784 235L2790 204L2793 233L2799 203L2801 231L2806 203L2809 231L2814 203L2816 230L2821 203L2824 230L2829 203L2831 230L2836 203L2838 230L2843 204L2845 231L2851 204L2853 231L2858 204L2860 231L2865 205L2867 231L2872 205L2875 234L2881 206L2884 235L2890 207L2892 237L2900 207L2902 239L2912 209L2911 240L2923 211L2920 253L2947 216L2936 259L2972 233L2953 258L2966 250L2977 239L2972 246L2980 241L2973 250L2980 244L2952 283H2953L2998 287L2969 289L2997 299L2962 300L2995 317L2958 314L2988 337L2960 327L2982 348L2958 337L2976 356L2955 345L2971 362L2950 351L2966 369L2947 359L2961 374L2943 364L2957 379L2939 370L2952 385L2934 375L2948 390L2930 380L2943 395L2925 386L2938 401L2921 391L2933 406L2916 397L2928 411L2911 402L2922 416L2907 407L2917 421L2902 413L2912 426L2897 418L2906 431L2892 423L2901 435L2887 428L2895 440L2882 434L2890 445L2877 439L2884 450L2873 445L2879 455L2868 450L2874 459L2864 455L2870 464L2860 460L2866 468L2857 465L2862 473L2854 471L2859 477L2851 476L2857 482H2849L2855 486L2848 487L2854 491L2846 492L2853 497L2847 499L2854 502L2848 505L2856 507L2849 511L2858 513L2852 518L2860 519L2855 524L2864 525L2858 530L2867 531L2862 537H2871L2866 543H2875L2870 549H2879L2874 556L2883 555L2878 562H2887L2882 568H2891L2886 574L2895 575L2890 581H2898L2893 587L2901 588L2896 593L2904 595L2899 600L2906 601L2903 606L2909 608L2906 612L2912 614L2909 618L2916 620L2913 624L2919 626L2916 630L2922 632L2920 636L2926 638L2923 642L2930 644L2927 648L2933 650L2931 654L2937 655L2935 659L2941 661L2939 665L2946 667L2943 671L2950 673L2947 677L2953 679L2951 684L2957 686L2955 690L2960 692L2958 696L2963 699L2961 703L2966 706L2964 710L2968 713L2966 718L2972 727L2969 732L2970 737L2967 740V744L2965 748V749V748L2969 746L2965 749L2964 754V750L2961 752L2954 757L2955 754L2961 752L2963 749L2964 748L2965 746V745V744L2966 739L2965 746L2963 748V749L2956 752L2955 754L2946 759L2945 760H2952L2943 765L2944 764L2936 766V765L2932 766H2931H2929L2923 767H2913H2905H2896H2890H2883H2881H2880H2875H2873H2868H2866H2865H2859H2858H2859H2856H2851H2852H2858H2859H2861L2849 768L2842 769H2840L2834 770L2833 769L2827 771L2825 770L2820 772L2818 770L2813 773L2811 771L2805 773L2804 771L2798 773L2796 770L2791 773L2789 770L2783 773L2782 769L2776 771L2775 767L2769 770L2768 766L2761 768V763L2754 765V760L2745 761L2746 755L2738 756L2739 750H2731L2733 745H2724L2727 739L2718 738L2721 733L2712 732L2716 727L2706 726L2711 721L2701 720L2705 714H2695L2701 708H2690L2696 702L2685 703L2691 697H2680L2687 691H2675L2682 685H2670L2678 679L2666 680L2674 673L2661 674L2669 667L2657 668L2665 661L2652 663L2661 655L2650 658L2654 660L2642 661L2655 666L2641 667L2655 673L2641 674L2656 680L2640 682L2657 688L2640 690L2658 696L2640 698L2658 705L2639 707L2658 715H2638L2657 726L2636 725L2656 737L2629 733L2651 755L2623 747L2641 773L2619 758L2631 784L2612 766L2620 793L2604 773L2608 800L2595 778L2597 806L2586 782L2585 809L2577 786L2574 812L2568 789L2564 814L2559 792L2555 815L2552 793L2547 816L2544 794L2539 816L2536 795L2531 817L2529 795L2523 817L2521 795L2516 817L2514 796L2508 817L2506 796L2501 817L2499 796L2493 816L2492 795L2486 816L2484 794L2479 815L2477 791L2469 814L2468 789L2458 812V786L2446 809L2449 783L2434 805L2439 781L2424 799L2432 770L2405 789L2420 763L2393 772L2413 753H2382L2405 739L2378 732L2395 725L2378 722L2394 717L2378 713L2394 709L2379 705L2394 701L2381 696L2394 694L2382 688L2395 686L2384 681L2396 679L2386 674L2397 672L2387 666L2398 664L2389 660L2399 657L2391 653L2396 651L2392 650L2399 648ZM2649 323 2666 330 2656 320 2642 322 2651 325ZM2660 336H2659L2662 337L2654 328L2642 330L2648 332L2646 329L2658 335ZM2657 342 2652 336 2646 337 2653 341ZM2645 338 2644 337 2643 338ZM2659 343H2658ZM2647 346 2653 348 2650 344 2645 345ZM2649 353 2648 352H2645ZM2648 649 2649 647 2646 646H2645L2644 647ZM2644 646H2643ZM2654 652 2656 650 2652 651ZM2644 653H2640L2649 657L2653 652L2645 653ZM2965 748V745V744V745ZM2965 748ZM2940 759 2939 761 2944 763 2945 760ZM2933 760 2932 762 2937 764 2939 761ZM2926 760 2924 763 2930 765 2932 762ZM2918 760 2916 763 2922 766 2924 763ZM2910 761 2907 764 2914 767 2916 763ZM2901 761 2899 764 2905 767 2907 764ZM2892 761 2890 764 2896 767 2899 764ZM2885 762 2882 765 2888 766 2890 764ZM2878 763 2875 765 2880 766 2882 765ZM2870 764 2867 766 2873 767 2875 765ZM2863 765 2859 767H2866L2867 766ZM3351 777 3356 757 3347 767 3350 750 3342 758 3345 743 3339 748 3340 736 3335 738V733L3328 735V730L3321 732L3322 727L3315 729V724L3308 726L3309 720L3301 722L3302 716L3295 718L3296 712L3288 714L3290 708L3281 710L3284 703L3275 705L3278 699L3268 700L3272 694L3262 695L3266 688L3255 690L3260 683L3249 685L3254 677L3243 679L3249 671L3237 673L3243 665L3232 667L3239 659L3226 660L3234 652L3221 653L3230 645H3216L3227 638L3212 636L3224 629L3208 626L3222 621L3206 616L3226 611L3205 593L3227 595L3214 574L3234 583L3225 556L3243 572L3245 546L3253 561L3254 542L3261 558L3263 538L3269 555L3273 536L3277 553L3282 534L3285 551L3290 533L3293 550L3298 532L3300 550L3306 531L3309 549L3314 531L3316 549L3322 530L3324 549L3330 530L3332 549L3338 530L3340 549L3346 530L3348 549L3354 530L3356 549L3362 531L3364 549L3370 531L3372 549L3378 532L3380 550L3386 532L3388 551L3395 534L3396 553L3403 535L3404 554L3412 537V556L3422 540L3420 558L3431 543L3429 560L3440 546L3437 563L3447 550L3444 566L3455 554L3451 569L3461 558L3458 572L3468 561L3464 575L3474 565L3471 577L3479 568L3477 580L3485 571L3483 583L3491 574L3489 585L3496 577L3495 588L3502 579L3501 590L3507 581L3508 592L3513 583L3514 593L3519 585L3520 595L3526 587L3527 596L3532 588L3534 597L3539 589L3541 598L3546 590L3548 598L3552 590L3555 598L3559 590L3562 597L3565 590L3569 596L3572 589L3576 594L3578 587L3582 592L3584 585L3589 590L3591 582L3596 585V576L3603 578L3602 570H3605L3602 566L3609 564L3603 556L3605 555L3601 553L3606 547L3595 543L3597 540L3591 541L3593 535L3585 537L3586 532L3579 535L3580 529L3574 532V527L3567 531L3568 525L3561 529V523L3555 529V522L3548 528V521L3541 528V520L3534 527V519L3527 527V516L3517 526L3519 514L3508 523L3509 514L3501 521L3503 512L3495 520L3497 509L3489 518L3490 507L3482 516L3484 505L3475 513L3477 502L3469 511L3471 500L3463 508L3464 497L3456 505L3458 494L3450 503L3451 492L3443 500L3445 489L3437 497L3438 486L3431 494L3432 483L3424 491L3425 481L3418 488L3419 478L3411 485L3412 475L3405 482L3406 473L3398 479L3399 470L3392 476L3393 467L3385 473L3386 465L3379 471L3380 462L3372 469L3373 460L3365 466L3366 458L3359 464L3360 456L3352 463L3353 454L3345 461L3346 452L3338 460L3339 450L3330 458L3332 448L3323 457L3325 446L3316 456L3318 444L3308 454L3312 442L3301 453L3305 440L3293 451L3298 437L3286 449L3291 435L3278 447L3284 432L3270 444L3277 428L3262 441L3271 423L3253 436L3266 414L3241 426L3258 407L3231 413L3249 400L3225 404L3243 392L3220 395L3239 383L3216 386L3234 375L3212 377L3231 367L3208 368L3228 360H3206L3225 352L3203 351L3223 344L3202 342L3222 336L3200 333L3221 328L3200 324L3221 319L3199 314L3220 311L3199 305L3220 302L3200 296L3220 294L3201 287L3221 286L3203 279L3222 278L3205 270H3223L3207 262H3225L3209 254H3229L3213 244L3231 246L3216 234L3234 237L3220 226L3237 229L3225 218L3244 222L3232 204L3250 213L3244 194L3255 203L3251 190L3261 199L3258 186L3267 194L3265 182L3274 191L3271 179L3280 187L3278 175L3286 183L3285 172L3292 179L3291 169L3299 176L3298 165L3305 172L3304 162L3311 168V158L3317 165V155L3323 161V151L3329 157V148L3335 154V144L3341 150V140L3348 146L3347 136L3354 142L3353 132L3359 138V128L3365 134V124L3371 130V119L3377 126V115L3383 122V111L3389 118V107L3395 114L3394 102L3401 110L3400 98L3407 106L3406 94L3413 103L3412 89L3420 99L3418 85L3426 95L3424 81L3432 91L3430 77L3438 87L3437 73L3445 84L3443 69L3452 81L3450 65L3459 78L3458 61L3468 78L3470 57L3477 75L3482 55L3486 70L3490 54L3494 70L3499 54L3502 69L3507 53L3510 69L3515 53L3518 69L3524 53L3526 70L3532 54L3534 69L3541 54L3542 70L3549 55L3551 71L3557 56L3559 71L3566 57L3567 73L3574 59L3575 74L3583 60V75L3591 62V77L3599 64V78L3607 66L3606 80L3614 69V81L3621 71V84L3629 73L3628 86L3636 76L3635 88L3643 79L3642 90L3651 82L3649 93L3658 85L3656 96L3665 88L3663 99L3672 92L3670 102L3680 95L3678 106L3687 99L3685 109L3694 103L3692 112L3701 107L3699 116L3707 111L3705 120L3714 115L3712 124L3721 120L3719 128L3727 124L3725 132L3734 128L3732 136L3740 132L3738 140L3747 137L3744 145L3754 142L3751 149L3761 147L3758 154L3767 152L3764 159L3774 157L3770 164L3780 162L3776 170L3786 168L3782 175L3792 173L3787 181L3798 179L3793 186L3804 184L3798 191L3810 190L3803 197L3815 196L3808 203L3821 202L3812 210H3827L3816 217L3832 218L3819 226L3836 228L3822 234L3839 239L3816 244L3839 266L3814 261L3824 287L3806 273L3810 300L3795 281L3791 306L3785 289L3781 308L3775 291L3770 309L3766 292L3760 310L3757 294L3751 310L3748 295L3743 309L3741 295L3736 309L3733 294L3728 308L3726 294L3720 307L3718 293L3713 306L3711 293L3705 305L3703 293L3698 305L3696 292L3691 304L3689 292L3683 303L3681 291L3675 303L3673 291L3667 303L3665 291L3659 303L3657 291L3651 303L3650 291L3643 303L3642 291L3635 303L3634 290L3626 303V289L3617 303V289L3608 302L3609 287L3599 301L3601 286L3590 300L3592 284L3581 298L3584 282L3573 296L3577 281L3566 294L3569 279L3559 292L3563 277L3553 290L3556 276L3547 288L3550 275L3542 286L3544 274L3538 285L3539 273L3534 284V271L3529 283L3528 271L3524 282L3522 271L3520 282L3517 272L3516 282L3513 273L3512 283L3508 275L3509 284L3504 275L3506 286L3503 282L3504 285L3500 282L3502 286H3504L3503 287L3504 288L3502 290L3500 292L3504 293L3507 292L3502 297L3509 294L3504 300L3511 295L3506 305L3515 298L3511 308L3519 300L3515 312L3523 302L3520 315L3528 304L3525 317L3533 307L3531 320L3538 309L3537 323L3544 312L3543 325L3550 314L3549 327L3556 317V330L3562 319V332L3569 321V334L3575 324L3576 336L3582 326L3583 338L3590 328V341L3598 331V341L3604 333V343L3611 335V345L3618 337V346L3625 338V347L3632 339V349L3639 340L3640 349L3646 341L3647 350L3654 341V351L3661 341V352L3668 342L3669 352L3676 342V353L3684 342L3683 354L3691 342V354L3699 342L3698 356L3707 343L3706 357L3715 343L3713 359L3724 345L3721 361L3732 347L3728 364L3741 349L3736 368L3751 353L3745 368L3757 356L3751 370L3763 358L3757 376L3772 362L3765 379L3780 365L3772 383L3788 369L3779 387L3796 373L3787 391L3804 377L3794 396L3812 382L3800 401L3820 388L3807 406L3828 394L3813 412L3835 401L3819 419L3842 408L3825 425L3848 416L3830 433L3854 424L3834 441L3859 434L3839 449L3864 444L3844 457L3867 454L3848 465L3870 463L3850 474L3872 473L3852 483H3873L3854 492L3874 494L3855 501L3874 504L3856 510L3874 514L3857 519L3873 523L3857 527L3871 533L3856 536L3870 542L3856 545L3868 551L3855 554L3865 560L3853 562L3862 569L3851 570L3860 577L3849 578L3856 586H3847L3853 594H3844L3850 602L3842 603L3846 610H3839L3843 618H3836L3839 625H3832L3834 635L3827 633L3826 642L3821 639L3820 647L3815 644L3814 652L3810 649L3809 656L3804 653L3803 661L3799 657L3798 666L3793 662L3792 670L3787 666V675L3782 670L3781 680L3776 675V684L3770 679V689L3764 683L3765 693L3759 687V698L3753 691V702L3747 695L3748 707L3741 700L3742 712L3736 704L3737 717L3730 708L3732 722L3725 713L3727 727L3719 717L3721 732L3713 722L3716 737L3708 726L3711 742L3702 731L3706 748L3696 735L3700 753L3691 739L3695 758L3685 744L3689 762L3679 748L3684 767L3673 752L3678 771L3667 755L3672 775L3661 759L3666 779L3655 763L3659 783L3648 766L3653 787L3642 769L3647 790L3635 772L3640 793L3629 775L3633 796L3622 778L3626 799L3615 781L3619 802L3608 782L3611 805L3597 780V809L3588 783L3583 810L3579 790L3575 810L3571 790L3567 810L3563 790L3559 810L3556 791L3551 810L3548 791L3543 810L3541 791L3536 811L3533 791L3528 811L3526 790L3519 811L3517 791L3511 811L3509 791L3502 812L3501 791L3494 812L3493 791L3485 812V791L3477 812V790L3469 812V790L3460 812L3461 789L3452 811L3453 788L3443 811L3444 788L3435 810L3437 787L3428 809L3429 786L3420 807L3422 785L3412 805L3415 783L3405 803L3407 781L3397 801L3400 779L3390 799L3393 777L3382 796L3386 775L3375 794L3379 773L3368 791L3372 770L3360 789L3364 773L3356 787L3362 763ZM3501 289 3504 288 3501 287H3500ZM3494 290 3499 289H3494H3490ZM3888 854 3915 851 3902 847 3923 844 3916 840 3932 836 3929 833 3937 828V836V838L3943 826L3941 824L3943 819L3941 817L3943 811L3941 809L3943 804L3940 802L3943 797L3940 795L3942 790L3940 788L3942 783L3939 781L3941 776L3939 773L3940 769L3938 766L3939 762L3938 758V755L3937 750V747V742V752L3936 740V733V732L3935 726L3936 725L3934 719L3935 717L3934 712L3935 710L3933 705L3934 703L3932 698L3934 696L3932 691L3934 689L3931 683L3933 682L3930 676L3933 674L3930 669L3932 667L3929 662L3932 660L3928 655L3932 653L3928 648L3931 646L3927 641L3931 639L3927 634L3931 632L3926 627L3930 625L3925 619L3930 617L3925 612L3930 610L3924 605L3929 603L3923 598L3929 596L3923 591L3928 589L3922 584L3928 582L3921 577L3928 575L3921 570L3927 568L3920 562L3927 560L3919 555L3926 553L3918 548L3926 546L3918 541L3925 539L3917 534L3925 532L3916 527L3924 525L3915 520L3924 518L3914 513L3923 511L3913 506L3923 504L3912 498L3922 496L3911 491L3921 489L3910 484L3921 482L3909 477L3920 475L3908 470L3920 468L3907 463L3919 461L3906 456L3919 454L3906 449L3919 447L3905 441L3918 439L3905 434L3918 432L3905 427L3918 425L3904 420L3918 418L3904 413L3918 411L3905 406L3918 404L3905 399L3918 396L3905 391L3919 389L3906 384L3919 382L3906 377L3919 375L3907 370L3919 368L3907 363L3920 361L3907 356L3920 354L3908 349L3920 347L3908 341L3921 339L3908 334L3921 332L3909 325L3922 324L3909 317L3923 316L3910 308H3925L3912 298L3926 300L3914 289L3934 293L3921 272L3940 281L3932 259L3943 268L3937 252L3953 267L3950 242L3963 261L3965 235L3973 254L3977 231L3983 249L3986 227L3991 247L3996 225L4000 244L4005 223L4008 242L4013 221L4015 240L4020 220L4022 237L4027 219L4029 239L4034 217L4036 238L4041 216L4044 238L4049 215L4051 238L4056 214L4059 238L4065 214L4067 238L4073 213L4075 239L4083 213V239L4092 213V240L4103 213L4100 242L4114 214L4109 245L4125 216L4118 248L4138 219L4127 252L4151 224L4138 255L4156 236L4155 233L4156 235L4160 232V230V231L4162 229L4161 232L4165 239L4168 236L4165 228L4169 234L4170 232V234L4171 233L4170 234H4171L4170 235V236L4173 241L4177 237L4172 224L4191 252L4181 220L4199 249L4191 216L4207 245L4201 213L4215 242L4210 211L4223 239L4219 209L4231 237L4229 207L4239 236L4238 206L4247 234V206L4255 233L4256 205L4263 232L4266 205L4271 231L4275 205L4280 231L4284 205L4288 231L4293 206L4296 231L4302 206L4304 231L4311 207L4312 231L4319 208L4320 232L4328 208V233L4337 209L4336 234L4346 210L4344 235L4354 212L4352 236L4363 214L4360 238L4372 216L4368 242L4382 219L4377 244L4391 222L4385 247L4401 226L4393 251L4410 230L4402 255L4419 236L4410 260L4428 242L4418 264L4436 248L4425 268L4442 253L4432 273L4449 260L4438 279L4455 266L4444 284L4461 273L4449 290L4467 280L4455 296L4473 287L4460 303L4478 295L4464 311L4485 304L4469 319L4490 314L4475 326L4493 323L4479 333L4496 331L4482 340L4499 339L4485 347H4501L4487 354H4503L4490 361L4506 362L4492 369H4508L4494 376L4510 377L4496 383L4512 384L4498 390L4513 391L4500 397L4515 399L4502 404L4517 406L4503 411L4518 413L4505 418L4519 420L4506 425L4520 428L4507 433L4521 435L4508 440L4522 442L4509 447L4522 450L4510 454L4523 457L4511 461L4523 465L4511 469L4523 472L4512 476L4524 479L4513 483L4524 487L4513 490L4524 494L4514 498L4525 502L4514 505L4525 509L4514 513L4525 517L4514 520L4524 526L4513 528L4523 535L4513 537L4522 543L4512 544L4521 550L4511 551L4520 557L4510 558L4519 565H4509L4517 572L4508 573L4516 579L4507 580L4514 586L4505 587L4513 593L4504 594L4511 601H4502L4510 608H4501L4508 615H4499L4506 622H4497L4504 629H4496L4502 636H4494L4500 643H4492L4498 650H4489L4496 657H4487L4493 664H4485L4490 671H4482L4487 678L4479 677L4484 685L4476 684L4481 692L4473 691L4477 699L4469 698L4472 706L4464 704L4467 713L4460 710L4461 718L4454 716L4455 724L4449 721V729L4443 726V733L4437 731L4436 738L4431 735L4430 742L4425 740L4423 745L4419 743L4416 748L4412 747L4409 751L4405 750L4401 755L4398 754L4394 757H4390L4386 760H4381L4378 762L4373 763H4375V762V763L4368 765H4367L4366 766L4361 767L4360 768H4358H4359L4354 769H4353L4351 770L4347 771H4346H4344L4340 772H4339L4337 773H4333H4332L4330 774H4326H4324H4323L4319 775H4317H4316H4312H4310H4309H4305V776H4303H4302V775H4297V776L4296 775H4295H4290H4289H4287H4283H4282H4280L4276 774H4275H4273L4269 773H4268H4266L4262 772H4261L4259 771L4255 770H4254H4252L4248 769H4249L4247 768H4246L4242 767L4240 766H4239L4235 764H4234L4232 763L4228 762H4229L4227 761H4226L4219 758H4220L4221 759L4220 758L4213 755L4203 751H4202L4195 750V749H4188L4187 747L4179 749L4178 748L4174 755H4171L4169 761H4167L4170 770L4166 771L4170 777L4166 778L4171 783L4166 785L4172 790L4166 792L4174 797L4167 799L4175 805L4168 807L4176 812L4168 814L4178 820L4169 822L4179 827L4170 829L4180 834L4170 836L4181 842L4171 844L4182 849L4171 851L4183 857L4172 859L4184 864L4172 866L4184 872L4172 874L4185 880L4172 882L4185 888L4172 889L4185 896L4171 897L4184 905L4169 906L4183 914L4167 915L4181 926L4163 924L4176 940L4158 933L4168 952L4152 944L4160 963L4143 952L4147 973L4136 960V979L4128 964L4126 982L4119 968L4117 985L4111 971L4108 987L4103 972L4099 989L4095 974L4090 990L4087 975L4082 991L4080 977L4074 992L4072 978L4067 993L4065 979L4060 994L4058 980L4053 996L4051 979L4045 997L4043 980L4038 998L4035 981L4030 1000L4028 981L4022 1001L4019 981L4013 1002L4011 981L4004 1003L4003 981L3994 1004V981L3985 1004L3986 979L3975 1003L3977 976L3963 1002L3967 975L3951 999L3961 963L3929 991L3948 957L3912 975L3939 947L3896 957L3930 934L3887 933L3916 922H3883L3913 913L3880 910L3910 903L3878 899L3907 895L3876 889L3905 886L3875 880L3903 878L3875 872L3901 870L3874 865L3887 864L3874 862L3908 859ZM4160 233 4162 242 4163 241 4160 233ZM4160 242V234L4158 238ZM4174 242 4182 253 4177 238ZM4156 240 4148 256 4158 246ZM4173 252 4171 248V249ZM4236 477 4250 470H4236L4247 464H4236L4244 458L4236 459L4240 455L4237 457L4242 447L4230 453L4235 442L4224 449L4225 446L4222 449L4223 442L4219 449L4218 441L4215 449L4213 442L4211 450L4208 442L4207 451L4203 444V452L4198 446L4200 454L4194 449L4196 456L4191 452L4194 458L4186 454L4191 462L4182 459L4188 466L4178 464L4185 471L4175 470L4182 477H4173L4180 484H4171L4178 490L4169 491L4176 496L4168 497L4174 503L4166 504L4173 509L4165 511L4172 516L4165 518L4171 523L4164 526L4170 530L4164 533L4169 537L4163 540L4169 545L4164 548L4169 553L4165 556L4170 560L4166 563L4172 567L4168 570L4174 573L4171 576L4177 578L4175 582L4181 583L4179 586L4186 587L4184 591L4191 590L4189 594L4196 592L4194 597L4201 594L4200 599L4206 595V598L4209 594L4211 602L4218 593L4220 601L4226 592L4227 594L4228 590L4231 594V587L4236 592L4234 584L4240 588L4237 580L4244 584L4240 576L4246 579L4242 572L4249 574L4243 567L4252 569L4244 562L4254 563L4245 555L4255 556L4245 549H4256L4245 541H4256L4244 535L4256 534L4244 528L4256 527L4243 522L4255 520L4242 515L4255 513L4241 509L4254 506L4239 502L4254 499L4238 495L4253 492L4237 488L4250 485L4245 484L4237 485L4240 483H4236L4252 478H4253ZM3937 781V774V750V757L3938 758L3937 764L3938 766L3937 771L3939 773L3938 779L3939 781L3938 786L3940 788L3938 793L3940 795L3938 800L3940 802L3938 807L3941 809L3938 814L3941 817L3938 822L3941 824L3937 831V821V816V809V802V795V788ZM4215 755H4214L4220 758H4221L4226 761L4228 760L4225 758H4221L4217 755L4213 754ZM4232 759 4228 760 4233 763 4235 762ZM4355 766 4354 767H4359L4362 765H4367L4370 763H4375L4382 760L4370 763L4363 765H4362ZM4239 761 4235 762 4240 765 4242 764ZM4245 762 4242 764 4247 767 4249 765ZM4252 763 4249 765 4253 769 4256 766ZM4259 764 4256 766 4260 770 4263 767ZM4266 764 4263 767 4267 771 4270 768ZM4272 765 4270 768 4274 772 4277 769ZM4279 766 4277 769 4281 773 4283 769ZM4286 766 4283 769 4288 774 4290 770ZM4348 766 4347 768 4352 769 4354 767ZM4292 766 4290 770 4295 774 4298 770ZM4300 767 4298 770 4303 774 4305 770ZM4341 767 4340 769 4345 770 4347 768ZM4307 767 4305 770 4310 774 4312 770ZM4334 767 4333 769 4338 771 4340 769ZM4313 767 4312 770 4317 773 4319 770ZM4327 767 4326 770 4331 772 4333 769ZM4320 767 4319 770 4324 773 4326 770ZM4565 611 4579 609 4565 604 4579 602 4566 597 4579 595 4566 590 4579 588 4566 583 4579 581 4566 576 4580 574 4567 569 4580 567 4567 562 4580 560 4568 555 4580 553 4568 548 4580 546 4568 541 4580 539 4568 533 4580 531 4567 526 4580 524 4567 519 4580 517 4566 512 4579 510 4566 505 4579 503 4565 498 4579 496 4565 491 4578 489 4564 484 4578 482 4564 477 4578 475 4564 470 4578 468 4564 463 4578 461 4564 456 4578 453 4564 448 4579 446 4565 441 4579 439 4566 434 4580 432 4567 427 4580 425 4568 420 4581 418 4569 413 4582 411 4570 406 4582 404 4571 399 4583 397 4572 392 4583 390 4573 385 4584 383 4574 378 4585 375 4575 370 4585 367 4576 362 4586 360 4577 355 4586 352 4577 347 4586 345 4577 339 4587 337 4578 331 4587 329 4578 323 4587 321 4578 315 4592 313 4580 298H4594L4586 282L4599 285L4592 270L4605 276L4603 261L4613 271L4617 252L4626 263L4631 247L4636 258L4641 245L4645 256L4651 243L4654 255L4660 242L4663 254L4669 242L4671 253L4677 242L4679 253L4685 242L4687 253L4693 241L4695 252L4701 241L4703 252L4709 240L4711 252L4717 239L4719 251L4724 238L4727 250L4732 237L4734 250L4740 236L4742 250L4748 235L4750 250L4757 235L4758 250L4766 235V257L4784 237L4781 260L4802 244L4794 265L4816 252L4805 271L4826 262L4814 276L4831 270L4822 279L4835 274L4830 279V280L4833 278V276L4834 278L4837 277L4835 279L4837 285V276L4843 286L4842 275L4849 285L4848 273L4856 284L4854 271L4863 281L4862 268L4870 279V265L4878 276V262L4885 272L4886 260L4892 270L4893 258L4899 268L4901 256L4906 266L4909 254L4914 264L4916 252L4921 262L4924 250L4928 260L4931 249L4935 259L4939 247L4943 257L4946 246L4950 256L4954 244L4957 255L4962 243L4965 254L4969 242L4972 253L4977 240L4980 254L4986 240L4988 254L4996 240L4997 255L5007 241L5005 260L5022 246L5015 264L5036 255L5027 273L5048 265L5034 281L5057 280L5044 290H5062L5047 299L5065 301L5050 308L5067 312L5052 317L5068 322L5053 325L5069 331L5055 334L5069 339L5055 342L5069 348L5055 350L5069 356L5056 358L5069 363L5056 365L5069 371L5056 373L5069 378L5056 380L5069 386L5055 388L5069 394L5055 395L5069 402L5054 403L5068 410L5053 411L5067 419H5052L5065 428L5044 426L5059 446L5039 439L5047 460L5030 448L5034 473L5019 457L5017 480L5009 465L5007 483L5000 468L4997 485L4991 470L4987 486L4983 471L4977 487L4974 472L4969 487L4966 473L4960 487L4958 474L4953 486L4950 474L4945 486L4943 474L4938 486L4936 474L4931 486L4928 474L4924 486L4921 474L4917 486L4914 474L4910 486L4907 475L4903 486L4900 476L4897 487L4894 477L4891 488L4887 479L4885 489L4881 481L4880 491L4875 483V493L4870 486L4871 496L4866 489L4868 498L4862 493L4865 501L4858 496L4863 505L4856 501L4861 508L4853 505L4859 512L4850 510L4858 517L4848 515L4857 522L4846 521L4856 527H4845L4856 533H4844L4856 539L4843 540L4856 546L4843 547L4856 552L4842 554L4856 560L4843 561L4856 566L4843 568L4857 573L4843 575L4857 580L4843 582L4858 587L4843 589L4858 594L4843 596L4859 601L4844 603L4859 608L4844 610L4859 615L4844 617L4860 622L4844 624L4860 629L4845 631L4861 636L4845 638L4861 643L4845 645L4862 650L4845 652L4862 657L4846 659L4862 664L4846 666L4863 671L4846 673L4863 678L4845 681L4864 687L4845 689L4864 695L4844 697L4864 704L4843 706L4864 714H4843L4863 723H4834L4860 744L4831 738L4852 763L4824 751L4840 780L4816 761L4823 793L4808 774L4813 800L4799 778L4801 805L4790 782V808L4781 785L4778 811L4772 788L4768 812L4764 790L4759 813L4755 793L4751 814L4748 793L4743 814L4740 794L4735 815L4733 794L4728 815L4725 795L4720 816L4718 795L4712 816L4710 795L4705 816L4703 795L4697 817L4695 795L4689 817L4687 795L4681 817L4680 795L4674 817L4672 795L4666 817L4664 794L4657 817V793L4648 816V789L4637 815L4639 787L4625 813L4629 787L4616 810L4622 777L4598 804L4611 771L4581 790L4596 772L4576 784L4598 757L4562 767L4591 747L4555 745L4581 736L4553 733L4579 725L4552 721L4576 716L4552 710L4574 706L4552 701L4573 698L4553 694L4573 691L4554 686L4573 683L4555 679L4573 676L4556 671L4574 669L4557 664L4574 662L4558 657L4575 655L4559 650L4576 648L4561 643L4576 641L4562 636L4577 634L4563 629L4578 627L4564 622L4571 621L4565 619L4580 617ZM5122 758 5127 748 5112 756 5119 744 5102 753 5111 740 5092 750 5104 735 5082 745 5098 728 5075 737 5092 720 5068 727 5087 712 5063 717 5081 705 5059 709 5076 698 5056 701 5074 690 5053 692 5071 683 5051 684 5069 675 5049 674 5067 667 5047 665 5066 658 5046 656 5065 650 5045 645 5065 641 5045 635 5065 632 5046 625 5065 622 5047 614 5066 613 5049 604H5066L5051 596H5068L5054 587L5070 589L5056 579L5073 581L5060 570L5080 574L5066 557L5085 566L5076 546L5088 556L5082 541L5094 550L5089 536L5100 545L5095 531L5105 540L5101 526L5111 536L5107 522L5117 531L5113 518L5123 527L5120 514L5129 523L5126 510L5135 519L5132 506L5141 515L5138 502L5147 512L5145 499L5153 508L5151 495L5159 504L5157 491L5165 500L5163 488L5171 497L5170 484L5178 493L5176 480L5184 489L5182 477L5190 486L5188 473L5196 482L5194 470L5202 479L5201 466L5208 475L5207 463L5215 472L5214 459L5221 468L5220 456L5229 467V451L5237 464L5239 449L5244 459L5247 447L5251 458L5254 446L5258 456L5261 444L5266 455L5268 443L5273 454L5277 441L5281 453L5285 440L5289 451L5293 439L5298 450L5301 437L5306 448L5309 436L5314 447L5318 434L5322 445L5325 433L5329 443L5332 432L5336 442L5338 431L5342 440L5344 429L5348 438L5350 427L5355 437L5356 425L5361 434L5362 423V424V423L5363 424L5362 421L5365 423H5368L5363 421H5365L5367 419V418H5366H5364L5366 417L5363 415L5360 416L5367 409L5368 406H5367L5359 416V413V414L5357 408L5355 409L5357 406L5356 401L5351 416L5347 406L5345 417L5340 407L5339 418L5334 408L5333 420L5327 410V423L5320 412V425L5313 414L5312 428L5305 416L5303 431L5297 418L5294 433L5289 421L5285 435L5281 422L5277 436L5273 423L5269 437L5266 424L5261 438L5258 425L5253 438L5250 426L5245 439L5243 426L5238 439L5236 426L5230 439L5228 426L5223 439L5220 426L5215 439L5213 426L5207 439L5205 426L5199 439L5197 426L5192 439L5190 425L5183 438L5182 424L5175 437L5173 423L5166 436L5165 422L5157 434V420L5148 432L5149 414L5134 427L5139 410L5122 417L5129 406L5121 409L5117 411L5118 409L5116 410L5126 397L5108 400L5122 389L5112 387L5105 386H5108L5105 385L5117 382L5104 377L5120 372L5104 361H5121L5109 347L5122 351L5113 338L5127 343L5119 329L5132 335L5125 320L5137 327L5131 313L5142 320L5137 306L5148 314L5143 300L5153 308L5149 294L5159 303L5155 289L5165 298L5162 284L5172 293L5169 279L5178 289L5176 274L5185 285L5183 270L5191 281L5190 266L5198 277L5197 263L5203 270L5201 261L5209 270L5207 256L5218 268L5216 251L5225 263V247L5232 259L5233 244L5240 256L5241 241L5247 254L5249 239L5254 252L5256 237L5261 250L5264 235L5269 248L5271 233L5276 247L5279 232L5283 245L5286 231L5291 245L5294 230L5298 244L5301 230L5305 243L5309 229L5312 243L5316 229L5320 243L5324 230L5327 242L5331 230L5334 243L5339 230L5341 243L5346 231L5349 243L5353 232L5356 243L5361 233L5363 244L5368 234L5370 244L5375 235L5378 245L5383 236L5385 246L5390 237L5392 246L5397 238L5399 247L5405 240L5406 248L5412 241L5414 250L5420 243L5421 251L5427 245L5428 252L5435 246L5436 254L5442 248L5443 255L5450 249V256L5457 251L5458 258L5464 252L5465 259L5472 253V261L5479 255V262L5487 257V264L5494 258V266L5502 260L5501 268L5509 262L5508 271L5517 265L5515 274L5524 268L5523 277L5531 271L5529 280L5539 275L5536 284L5546 279L5543 288L5553 284L5550 293L5561 289L5557 298L5568 295L5564 304L5575 301L5571 310L5583 308L5577 317L5590 316L5584 323H5595L5588 330H5600L5593 336L5604 337L5596 343L5608 344L5600 350L5612 351L5603 356L5616 358L5606 363L5619 365L5609 370L5623 371L5612 377L5626 378L5615 384L5629 385L5617 390L5631 392L5619 397L5634 399L5622 404L5636 406L5624 411L5638 413L5625 418L5640 420L5627 426L5641 428L5628 433L5643 435L5630 440L5644 442L5631 447L5645 449L5632 454L5646 457L5633 461L5646 464L5634 468L5647 471L5635 476L5647 479L5636 483L5648 486L5636 490L5648 494L5637 497L5649 501L5637 505L5649 509L5637 512L5649 517L5637 520L5649 525L5637 527L5649 533L5638 536L5648 541L5638 543L5648 548L5638 550L5649 555L5638 557L5649 563L5639 565L5649 570L5639 572L5650 577L5639 579L5650 585L5640 587L5651 592L5640 594L5652 599L5640 601L5652 606L5641 609L5653 614L5641 616L5653 621L5640 623L5654 629L5641 631L5654 636L5641 639L5654 644L5641 646L5654 651L5641 654L5654 659L5641 661L5654 666L5641 669L5654 674L5641 676L5654 682L5641 684L5654 689L5641 691L5654 697L5640 699L5654 705L5638 707L5653 716H5637L5651 726L5635 725L5649 737L5632 735L5645 748L5629 744L5640 758L5621 751L5631 773L5614 760L5618 783L5605 768L5606 791L5594 774L5592 797L5585 780L5582 800L5577 783L5573 802L5569 786L5564 803L5561 787L5556 805L5553 789L5549 806L5546 790L5541 807L5539 790L5534 808L5532 791L5527 809L5524 792L5519 810L5517 792L5512 811L5510 793L5505 811L5503 793L5498 812L5496 791L5489 812L5487 791L5480 813L5479 790L5471 813L5470 789L5460 812L5461 787L5450 811L5452 785L5438 808L5443 782L5426 804L5433 779L5415 799L5424 777L5407 795L5415 775L5400 790L5407 772L5394 787L5399 773L5398 774L5394 785V783L5393 780V783L5392 781L5390 784V783L5386 772L5387 783L5380 771L5382 784L5373 771L5376 786L5366 772L5369 788L5359 773L5361 791L5352 776L5353 793L5344 778L5345 796L5337 781V797L5329 783L5328 799L5321 784L5320 800L5314 787L5313 801L5306 787L5304 802L5298 788L5294 803L5290 789L5285 802L5282 790L5277 802L5274 790L5269 801L5266 789L5261 800L5259 789L5253 799L5252 788L5246 797L5244 787L5238 796L5237 786L5231 794L5230 785L5223 793L5222 784L5216 791L5215 782L5208 790V781L5201 788V779L5193 786V777L5186 784V775L5178 782L5179 773L5171 779L5172 770L5163 777L5165 767L5156 773L5158 764L5148 770L5151 760L5140 765L5144 756L5133 760L5135 757L5131 760L5135 751ZM5370 414 5372 413 5373 412 5371 413ZM5365 415H5367V414ZM5373 420 5372 419H5371L5373 421L5374 420H5373ZM5365 421H5368V420ZM5371 428 5370 426 5367 425ZM5370 588 5371 586V583L5364 595L5363 586L5360 599L5358 590L5357 603L5353 591V603L5347 591L5348 603L5342 592L5343 603L5337 593L5339 603L5332 595L5335 603L5328 596L5331 604L5323 598L5324 600L5326 602H5325L5327 605L5319 601L5314 600L5323 609H5317L5311 612L5322 615L5320 617L5318 624L5326 620L5325 629L5333 624L5334 630L5339 624L5342 630L5345 624L5348 629L5350 623L5353 627L5355 621L5358 625L5359 618L5363 622V615L5367 618L5366 611L5371 614L5369 607L5374 609L5371 602L5377 605L5373 597L5380 599L5375 593H5382L5379 591H5378L5379 590L5374 587L5370 591L5371 588ZM5374 587 5382 585V584H5380L5375 586ZM5390 775V782L5391 778ZM5801 872 5806 873 5800 864 5807 865 5800 856 5808 857 5800 847 5809 849 5799 839 5811 842 5802 832 5814 835 5804 825 5816 827 5806 817 5819 820 5808 810 5821 813 5811 803 5824 806 5813 796 5828 799 5817 788 5830 791 5819 781 5833 784 5822 775 5835 777 5825 768 5837 771 5827 763 5839 764 5829 757 5840 758 5831 752 5841 751 5832 747 5841 746 5832 743 5842 740 5832 738 5842 734 5831 732 5841 728 5830 726 5840 722 5828 721 5838 716 5826 715 5836 709H5824L5834 703H5821L5831 697H5818L5828 690L5815 691L5825 684L5812 685L5822 678L5808 679L5819 672H5805L5811 668L5803 670L5812 662L5798 665L5811 653L5793 657L5806 647L5788 649L5801 640L5784 642L5798 633L5781 634L5794 626L5778 627L5791 619L5775 620L5789 612L5773 613L5786 605H5771L5784 598H5769L5782 591H5767L5780 584H5765L5778 578L5763 577L5775 571L5761 570L5773 564L5759 563L5771 557L5757 556L5769 550L5756 549L5767 543H5754L5765 537L5751 536L5763 530L5749 529L5760 523H5747L5758 517H5744L5755 511H5741L5752 504L5739 505L5749 498L5736 499L5745 493L5733 494L5742 487L5730 489L5737 483L5727 486L5737 476L5722 480L5735 468L5716 471L5728 461L5711 464L5724 455L5708 456L5721 448L5704 450L5717 442L5701 443L5714 435L5698 436L5711 428L5695 429L5709 422L5692 423L5706 415L5689 416L5703 408L5686 409L5700 402L5684 403L5698 395L5681 396L5695 389L5678 390L5692 383L5675 384L5689 376L5673 378L5686 370L5670 372L5683 364L5667 366L5680 358L5664 360L5677 353L5661 355L5678 345L5657 347L5677 335H5652L5673 326L5648 324L5670 317L5646 314L5676 305L5644 291L5676 292L5651 270L5684 280L5666 245L5692 268L5691 230L5704 253L5703 225L5713 250L5715 222L5722 246L5726 220L5731 244L5737 219L5740 242L5746 219L5748 241L5754 218L5756 239L5762 218L5764 238L5769 218L5771 239L5777 218L5779 239L5785 218L5787 239L5792 217L5794 239L5800 217L5802 240L5809 217L5810 240L5817 218L5818 241L5826 218V244L5836 220V246L5847 221L5845 250L5860 225L5855 254L5873 230L5865 258L5886 238L5874 262L5896 247L5882 268L5904 256L5889 274L5910 265L5895 281L5915 275L5899 288L5919 284L5904 296L5921 293L5907 303L5923 302L5910 311L5925 310L5912 318H5926L5913 326L5927 327L5916 333L5928 334L5917 340L5928 342L5919 348L5929 349L5920 355L5930 357L5922 362L5931 364L5924 369L5932 371L5925 376L5933 379L5927 383L5935 386L5929 390L5937 393L5931 397L5938 400L5933 404L5941 407L5936 411L5943 414L5938 418L5946 422L5941 426L5949 429L5944 433L5952 436L5947 440L5955 443L5950 447L5958 450L5953 455L5962 457L5956 462L5965 464L5960 468L5968 469L5964 472H5970L5969 474V475L5972 476V473L5973 475L5969 469L5979 472L5971 462L5981 464L5972 455L5983 458L5974 449L5985 451L5975 442L5988 445L5976 435L5991 438L5978 426L5993 430L5981 419L5994 422L5983 413L5997 416L5985 406L5999 409L5988 400L6002 403L5991 394L6005 397L5994 388L6008 390L5997 381L6011 384L6000 375L6014 377L6004 369L6017 371L6008 362L6020 364L6012 356L6024 358L6016 350L6027 351L6020 343L6031 345L6024 337L6034 339L6028 331L6037 332L6033 325L6041 326L6037 318L6045 319L6041 311L6049 312L6045 304L6052 305L6049 297L6056 298L6053 289L6061 291L6058 281L6066 285L6065 274L6072 278V267L6079 273L6080 261L6086 267L6088 256L6094 263L6097 251L6102 260L6105 248L6110 257L6114 245L6117 255L6122 242L6125 253L6131 240L6133 252L6139 239L6141 251L6147 238L6149 250L6155 237L6157 250L6163 237L6164 249L6170 236L6172 249L6177 236L6179 249L6184 236L6186 249L6191 236L6194 249L6199 236L6201 250L6207 236L6209 250L6216 236L6217 252L6225 237V253L6235 239L6234 255L6245 242L6241 264L6265 251L6255 271L6278 266L6261 281L6288 285L6268 296L6289 306L6274 307L6288 315H6272L6286 325L6269 323L6283 336L6268 332L6279 344L6267 341L6277 351L6264 347L6275 357L6262 354L6272 363L6259 360L6269 370L6256 367L6267 376L6253 373L6264 383L6250 380L6261 389L6248 386L6258 396L6245 393L6255 402L6241 399L6251 409L6238 406L6248 416L6235 413L6244 422L6232 419L6241 429L6228 426L6237 436L6225 432L6233 442L6220 439L6228 451L6216 446L6222 458L6214 455L6219 462L6210 459L6216 467L6206 464L6213 473L6203 470L6210 479L6200 476L6207 485L6197 483L6204 491L6194 489L6201 497L6191 495L6198 504L6188 502L6195 510L6186 508L6193 517L6183 515L6190 523L6180 521L6188 530L6178 528L6185 536L6175 535L6183 543L6173 541L6181 550L6171 548L6179 556L6168 555L6177 563L6166 561L6175 570L6164 568L6173 577L6162 575L6172 584L6160 582L6170 591L6159 589L6169 598L6157 596L6169 606L6156 603L6168 613L6154 610L6167 620L6153 617L6167 628L6152 624L6167 635L6151 631L6166 643L6149 638L6166 650L6148 645L6166 658L6147 653L6165 665L6145 660L6164 672L6144 667L6163 680L6142 674L6162 687L6140 681L6161 694L6138 688L6159 701L6135 694L6157 708L6133 701L6154 715L6130 708L6152 722L6128 714L6149 728L6125 721L6146 735L6122 728L6143 742L6119 734L6139 748L6116 741L6136 755L6112 747L6132 762L6109 754L6129 768L6105 761L6125 775L6102 767L6121 782L6098 774L6117 789L6094 780L6113 797L6089 787L6109 805L6082 793L6103 815L6090 808L6100 817L6095 815L6101 819L6081 812L6099 825L6078 818L6097 832L6076 825L6095 838L6073 831L6093 845L6071 838L6092 852L6069 845L6090 859L6067 851L6089 866L6064 858L6087 873L6062 865L6085 880L6059 871L6083 887L6057 878L6080 894L6054 885L6077 901L6050 891L6074 908L6050 899L6071 914L6046 905L6068 920L6041 911L6064 927L6036 917L6060 936L6030 924L6056 944L6024 931L6050 954L6018 939L6042 964L6011 946L6033 975L6003 952L6022 985L5995 959L6008 994L5986 966L5995 1001L5977 971L5982 1005L5968 975L5969 1007L5959 979L5958 1008L5950 981L5947 1008L5942 982L5937 1007L5933 983L5929 1006L5925 982L5920 1004L5917 983L5912 1002L5909 982L5904 1000L5902 981L5896 998L5894 980L5889 996L5886 978L5881 994L5879 977L5873 992L5871 976L5866 989L5864 975L5858 987L5856 973L5851 985L5849 971L5843 982L5841 970L5834 980L5833 968L5826 977V967L5819 974L5818 960L5804 968L5808 955H5792L5798 945L5784 942L5794 935L5784 926L5792 924L5786 916L5794 915L5789 907L5796 906L5792 899H5799L5795 891H5802L5799 884H5802L5801 881H5805ZM5969 475V474L5968 475ZM5968 477 5969 476 5968 475ZM5966 480 5967 477 5964 479ZM6507 630 6514 628 6506 623 6513 621 6504 616 6512 614 6503 608 6511 606 6501 601 6511 599 6501 594 6511 592 6501 587 6511 585 6500 580 6510 578 6499 573 6510 571 6499 566 6510 564 6498 559 6509 557 6498 551 6509 549 6497 544 6509 542 6497 537 6508 535 6496 530 6508 528 6496 523 6508 521 6495 516 6507 514 6495 509 6507 507 6494 502 6507 500 6494 494 6507 492 6494 487 6507 485 6494 480 6507 478 6494 473 6507 471 6494 466 6507 464 6494 459 6507 457 6494 452 6507 450 6494 445 6507 442 6495 437 6507 435 6495 430 6508 428 6495 423 6508 421 6496 416 6508 414 6496 409 6508 407 6497 402 6509 400 6497 395 6509 393 6498 388 6509 385 6498 380 6510 378 6499 373 6510 371 6499 366 6510 364 6500 359 6510 357 6500 352 6511 350 6501 345 6511 343 6501 338 6511 336 6501 331 6511 328 6501 323 6511 321 6502 316 6511 314 6502 309 6511 307 6502 302 6511 300 6501 295 6511 293 6501 288 6511 286 6501 281 6511 279 6500 274 6510 272 6499 266 6510 264 6499 259 6509 257 6498 252 6509 250 6497 244 6508 242 6496 237 6508 235 6495 230 6507 228 6494 223 6507 221 6493 216 6506 214 6492 209 6505 207 6491 202 6505 200 6490 195 6504 193 6489 187 6504 185 6488 180 6503 178 6487 173 6503 171 6487 165 6503 164 6486 158 6504 156 6486 150 6505 148 6485 140H6507L6486 129L6513 131L6491 112L6516 121L6498 99L6525 111L6510 80L6535 101L6530 67L6544 88L6541 61L6553 84V57L6562 80L6564 54L6571 77L6575 52L6580 75L6585 51L6588 72L6593 50L6596 71L6602 49L6604 70L6609 48L6612 69L6617 48L6619 68L6625 47L6627 68L6632 46L6634 67L6640 45L6642 67L6647 45L6649 66L6654 44L6656 66L6662 43L6664 65L6669 42L6671 65L6677 42L6678 65L6684 41L6686 64L6691 41L6693 64L6698 40L6700 64L6706 40L6708 64L6713 40L6715 64L6720 40L6722 65L6728 40L6730 64L6735 40L6737 64L6743 40L6745 64L6750 40L6752 64L6757 41L6759 65L6765 41L6767 65L6772 42L6774 65L6779 42L6782 68L6788 43L6790 70L6798 44V69L6806 45V69L6814 47V70L6821 48V70L6828 50V72L6836 51L6835 73L6843 53L6842 74L6850 54L6849 75L6857 56L6856 77L6864 58L6863 78L6871 59L6870 80L6878 61L6877 81L6885 63L6884 83L6892 66L6891 85L6899 68L6898 87L6906 71L6905 89L6913 73L6912 91L6920 76L6919 93L6927 79L6926 96L6934 82L6933 98L6940 85L6939 100L6947 89L6946 103L6954 92L6953 106L6960 96V108L6967 99L6966 111L6974 103L6973 114L6980 106V117L6987 110V120L6993 114V123L7000 117V126L7006 121V129L7013 125V132L7020 129V135L7026 133V139L7033 137L7032 143L7039 142V147H7045L7044 152H7052L7050 157L7057 158L7056 162L7063 163L7062 168L7068 169L7067 173L7074 175L7072 179L7079 181L7077 185L7084 187L7082 191L7089 193L7086 197L7094 200L7091 204L7099 207L7096 211L7103 214L7100 218L7108 222L7103 226L7112 229L7107 233L7115 236L7110 241L7119 244L7113 248L7123 252L7117 256L7127 259L7120 263L7131 267L7122 271L7134 274L7125 278L7137 282L7127 286L7140 290L7129 294L7143 298L7131 301L7146 306L7132 309L7147 315L7133 317L7149 323L7134 325L7150 332L7134 333L7151 340L7134 341L7151 348L7134 349L7150 356L7133 357L7150 364H7132L7149 373L7131 372L7147 381L7129 379L7145 389L7127 387L7143 397L7125 395L7140 405L7123 402L7137 413L7120 409L7134 421L7117 417L7130 428L7114 424L7127 436L7106 429L7119 449L7100 437L7109 460L7096 448L7102 466L7090 454L7096 471L7085 459L7091 477L7079 464L7085 483L7074 469L7080 488L7068 474L7074 494L7063 479L7069 499L7057 484L7064 505L7052 489L7059 511L7046 494L7053 516L7040 498L7048 521L7035 503L7042 526L7029 507L7037 531L7023 511L7031 536L7017 515L7025 540L7011 519L7019 544L7005 523L7012 548L6998 526L7006 551L6992 529L6999 554L6985 532L6992 557L6979 535L6985 559L6972 538L6978 562L6965 541L6971 564L6959 543L6964 567L6952 546L6957 569L6945 548L6950 571L6938 551L6943 573L6931 553L6935 576L6924 555L6927 578L6916 556L6918 580L6906 553L6905 583L6896 556L6892 584L6887 563L6884 584L6880 563L6876 584L6873 563L6869 583L6865 563L6861 583L6858 563L6854 582L6851 563L6846 581L6844 563L6839 580L6837 562L6832 578L6829 561L6825 577L6822 561L6818 575L6815 560L6811 573L6809 559L6804 572L6801 559L6798 570L6795 559L6793 569L6788 559L6787 568L6782 559L6781 568L6776 561V568L6770 563L6772 571L6762 568L6765 577L6758 576L6762 581L6755 582L6759 588L6752 590L6756 596L6750 598L6754 604L6749 607L6752 612L6748 615L6750 619L6747 622L6748 626L6746 629L6747 634L6745 637L6746 641L6745 646V650V658V665V668V672V674V675V679V681V682V687V695L6744 702V704V705V704L6743 710H6744L6743 711V712L6742 717V719V720V719L6740 725L6739 727L6737 734L6735 730L6739 726L6737 723L6741 719L6739 716L6743 711L6741 709L6744 704L6742 701L6744 696L6742 694L6744 688L6742 686L6744 681L6743 679L6744 674L6743 672L6744 667L6743 664L6745 659L6744 656L6745 651V648V645V643V646V643V639V637V636V645L6744 655V656L6743 663V664L6742 670L6743 672L6742 677L6743 679L6741 684L6742 686L6741 692L6742 694L6740 699L6742 701L6739 706L6741 709L6738 714L6739 716L6736 721L6737 723L6734 727L6735 730L6731 735V737L6725 740V743L6717 747L6716 749L6710 750L6708 752H6715L6716 749L6723 748L6714 753L6715 752L6706 754L6698 755L6690 756H6684L6677 757H6676H6674H6669H6670H6669H6667H6661H6660H6661H6662L6651 758H6643H6642L6636 759H6634H6629H6627L6621 760L6620 759L6614 760L6612 759L6607 761L6605 759L6600 761L6598 760L6592 761L6591 760L6585 762L6583 760L6578 762L6576 760L6570 762L6569 759L6563 761L6561 759L6556 761L6554 757L6545 759V753L6534 750V745L6525 743L6528 737L6521 733L6525 730L6518 725L6522 722L6516 716L6521 713L6515 708L6519 705L6514 700L6518 697L6513 692L6518 690L6512 685L6517 682L6512 677L6517 675L6511 670L6517 668L6511 662L6516 660L6510 655L6516 653L6510 648L6516 646L6509 640L6512 639L6508 638L6515 636ZM6785 371 6787 381 6793 372 6795 382 6800 373 6802 383 6807 374 6809 383 6814 375 6816 383 6821 375 6823 383 6827 376 6830 383 6834 376 6837 383 6840 376 6843 382 6846 375 6849 380 6851 374 6855 378 6856 372 6861 375V369L6866 371L6865 365L6870 367V361L6875 362L6873 356H6878L6877 350H6881L6879 344H6884L6882 338L6886 337L6884 332L6887 330L6885 325L6889 324L6886 319L6889 317L6886 312L6889 310L6885 305L6888 303L6885 299L6887 296L6883 292L6885 290L6881 286L6883 284L6878 281L6880 277L6874 274L6875 271L6870 269L6871 265L6865 264L6866 260H6860V256H6854L6853 253L6848 254L6846 250L6841 252L6839 249L6834 251L6832 248L6827 250L6825 247L6819 249L6817 247L6812 249L6809 246L6804 249L6802 246L6796 249L6794 246L6789 249L6787 246L6782 249L6780 246L6775 249L6772 247L6766 250L6764 248L6758 251V252L6756 250L6753 252L6752 259H6748L6747 266H6746L6748 271L6745 273L6749 279L6745 281L6749 286L6746 288L6750 293L6746 295L6751 301L6747 303L6752 308L6747 310L6753 316L6748 318L6754 324L6748 326L6755 331L6749 333L6756 339L6749 341L6757 346L6750 348L6758 354L6752 356L6759 360L6752 362L6761 367L6755 370V371L6758 372L6760 369V370L6761 368L6760 373L6764 374L6760 377V379L6769 370V380L6776 370V371L6777 370L6779 381ZM6732 741V740L6724 746L6725 743L6732 740L6731 737L6738 733ZM6702 752 6700 753 6707 754 6708 752ZM6695 753 6692 754 6698 755 6700 753ZM6687 754 6684 755 6690 756 6692 754ZM6679 755 6676 756H6682L6684 755ZM6672 756 6669 757H6674L6676 756ZM6657 757H6653H6654H6660H6661H6667H6669L6665 756L6661 757ZM7212 758 7217 748 7202 756 7209 744 7192 753 7201 740 7182 750 7194 735 7172 745 7188 728 7165 737 7182 720 7158 727 7177 712 7153 717 7171 705 7149 709 7166 698 7146 701 7164 690 7143 692 7161 683 7141 684 7159 675 7139 674 7157 667 7137 665 7156 658 7136 656 7155 650 7135 645 7155 641 7135 635 7155 632 7136 625 7155 622 7137 614 7156 613 7139 604H7156L7141 596H7158L7144 587L7160 589L7146 579L7163 581L7150 570L7170 574L7156 557L7175 566L7166 546L7178 556L7172 541L7184 550L7179 536L7190 545L7185 531L7195 540L7191 526L7201 536L7197 522L7207 531L7203 518L7213 527L7210 514L7219 523L7216 510L7225 519L7222 506L7231 515L7228 502L7237 512L7235 499L7243 508L7241 495L7249 504L7247 491L7255 500L7253 488L7261 497L7260 484L7268 493L7266 480L7274 489L7272 477L7280 486L7278 473L7286 482L7284 470L7292 479L7291 466L7298 475L7297 463L7305 472L7304 459L7311 468L7310 456L7319 467V451L7327 464L7329 449L7334 459L7337 447L7341 458L7344 446L7348 456L7351 444L7356 455L7358 443L7363 454L7367 441L7371 453L7375 440L7379 451L7383 439L7388 450L7391 437L7396 448L7399 436L7404 447L7408 434L7412 445L7415 433L7419 443L7422 432L7426 442L7428 431L7432 440L7434 429L7438 438L7440 427L7445 437L7446 425L7451 434L7452 423V424V423L7453 424L7452 421L7455 423H7458L7453 421H7455L7457 419V418H7456H7454L7456 417L7453 415L7450 416L7457 409L7458 406H7457L7449 416V413V414L7447 408L7445 409L7447 406L7446 401L7441 416L7437 406L7435 417L7430 407L7429 418L7424 408L7423 420L7417 410V423L7410 412V425L7403 414L7402 428L7395 416L7393 431L7387 418L7384 433L7379 421L7375 435L7371 422L7367 436L7363 423L7359 437L7356 424L7351 438L7348 425L7343 438L7340 426L7335 439L7333 426L7328 439L7326 426L7320 439L7318 426L7313 439L7310 426L7305 439L7303 426L7297 439L7295 426L7289 439L7287 426L7282 439L7280 425L7273 438L7272 424L7265 437L7263 423L7256 436L7255 422L7247 434V420L7238 432L7239 414L7224 427L7229 410L7212 417L7219 406L7211 409L7207 411L7208 409L7206 410L7216 397L7198 400L7212 389L7202 387L7195 386H7198L7195 385L7207 382L7194 377L7210 372L7194 361H7211L7199 347L7212 351L7203 338L7217 343L7209 329L7222 335L7215 320L7227 327L7221 313L7232 320L7227 306L7238 314L7233 300L7243 308L7239 294L7249 303L7245 289L7255 298L7252 284L7262 293L7259 279L7268 289L7266 274L7275 285L7273 270L7281 281L7280 266L7288 277L7287 263L7293 270L7291 261L7299 270L7297 256L7308 268L7306 251L7315 263V247L7322 259L7323 244L7330 256L7331 241L7337 254L7339 239L7344 252L7346 237L7351 250L7354 235L7359 248L7361 233L7366 247L7369 232L7373 245L7376 231L7381 245L7384 230L7388 244L7391 230L7395 243L7399 229L7402 243L7406 229L7410 243L7414 230L7417 242L7421 230L7424 243L7429 230L7431 243L7436 231L7439 243L7443 232L7446 243L7451 233L7453 244L7458 234L7460 244L7465 235L7468 245L7473 236L7475 246L7480 237L7482 246L7487 238L7489 247L7495 240L7496 248L7502 241L7504 250L7510 243L7511 251L7517 245L7518 252L7525 246L7526 254L7532 248L7533 255L7540 249V256L7547 251L7548 258L7554 252L7555 259L7562 253V261L7569 255V262L7577 257V264L7584 258V266L7592 260L7591 268L7599 262L7598 271L7607 265L7605 274L7614 268L7613 277L7621 271L7619 280L7629 275L7626 284L7636 279L7633 288L7643 284L7640 293L7651 289L7647 298L7658 295L7654 304L7665 301L7661 310L7673 308L7667 317L7680 316L7674 323H7685L7678 330H7690L7683 336L7694 337L7686 343L7698 344L7690 350L7702 351L7693 356L7706 358L7696 363L7709 365L7699 370L7713 371L7702 377L7716 378L7705 384L7719 385L7707 390L7721 392L7709 397L7724 399L7712 404L7726 406L7714 411L7728 413L7715 418L7730 420L7717 426L7731 428L7718 433L7733 435L7720 440L7734 442L7721 447L7735 449L7722 454L7736 457L7723 461L7736 464L7724 468L7737 471L7725 476L7737 479L7726 483L7738 486L7726 490L7738 494L7727 497L7739 501L7727 505L7739 509L7727 512L7739 517L7727 520L7739 525L7727 527L7739 533L7728 536L7738 541L7728 543L7738 548L7728 550L7739 555L7728 557L7739 563L7729 565L7739 570L7729 572L7740 577L7729 579L7740 585L7730 587L7741 592L7730 594L7742 599L7730 601L7742 606L7731 609L7743 614L7731 616L7743 621L7730 623L7744 629L7731 631L7744 636L7731 639L7744 644L7731 646L7744 651L7731 654L7744 659L7731 661L7744 666L7731 669L7744 674L7731 676L7744 682L7731 684L7744 689L7731 691L7744 697L7730 699L7744 705L7728 707L7743 716H7727L7741 726L7725 725L7739 737L7722 735L7735 748L7719 744L7730 758L7711 751L7721 773L7704 760L7708 783L7695 768L7696 791L7684 774L7682 797L7675 780L7672 800L7667 783L7663 802L7659 786L7654 803L7651 787L7646 805L7643 789L7639 806L7636 790L7631 807L7629 790L7624 808L7622 791L7617 809L7614 792L7609 810L7607 792L7602 811L7600 793L7595 811L7593 793L7588 812L7586 791L7579 812L7577 791L7570 813L7569 790L7561 813L7560 789L7550 812L7551 787L7540 811L7542 785L7528 808L7533 782L7516 804L7523 779L7505 799L7514 777L7497 795L7505 775L7490 790L7497 772L7484 787L7489 773L7488 774L7484 785V783L7483 780V783L7482 781L7480 784V783L7476 772L7477 783L7470 771L7472 784L7463 771L7466 786L7456 772L7459 788L7449 773L7451 791L7442 776L7443 793L7434 778L7435 796L7427 781V797L7419 783L7418 799L7411 784L7410 800L7404 787L7403 801L7396 787L7394 802L7388 788L7384 803L7380 789L7375 802L7372 790L7367 802L7364 790L7359 801L7356 789L7351 800L7349 789L7343 799L7342 788L7336 797L7334 787L7328 796L7327 786L7321 794L7320 785L7313 793L7312 784L7306 791L7305 782L7298 790V781L7291 788V779L7283 786V777L7276 784V775L7268 782L7269 773L7261 779L7262 770L7253 777L7255 767L7246 773L7248 764L7238 770L7241 760L7230 765L7234 756L7223 760L7225 757L7221 760L7225 751ZM7460 414 7462 413 7463 412 7461 413ZM7455 415H7457V414ZM7463 420 7462 419H7461L7463 421L7464 420H7463ZM7455 421H7458V420ZM7461 428 7460 426 7457 425ZM7460 588 7461 586V583L7454 595L7453 586L7450 599L7448 590L7447 603L7443 591V603L7437 591L7438 603L7432 592L7433 603L7427 593L7429 603L7422 595L7425 603L7418 596L7421 604L7413 598L7414 600L7416 602H7415L7417 605L7409 601L7404 600L7413 609H7407L7401 612L7412 615L7410 617L7408 624L7416 620L7415 629L7423 624L7424 630L7429 624L7432 630L7435 624L7438 629L7440 623L7443 627L7445 621L7448 625L7449 618L7453 622V615L7457 618L7456 611L7461 614L7459 607L7464 609L7461 602L7467 605L7463 597L7470 599L7465 593H7472L7469 591H7468L7469 590L7464 587L7460 591L7461 588ZM7464 587 7472 585V584H7470L7465 586ZM7480 775V782L7481 778ZM7793 673 7803 671 7791 666 7802 664 7790 659 7801 657 7789 652 7801 650 7787 645 7800 643 7787 638 7800 636 7786 631 7799 629 7785 624 7799 622 7785 617 7799 615 7784 610 7798 608 7784 603 7798 601 7783 596 7798 594 7783 589 7798 587 7783 582 7798 580 7783 575 7798 573 7784 568 7799 565 7784 561 7799 558 7785 553 7799 551 7786 546 7800 544 7787 539 7800 537 7787 532 7801 530 7788 525 7801 523 7789 518 7802 516 7790 511 7802 509 7791 504 7803 502 7791 497 7803 495 7792 490 7804 488 7793 483 7804 481 7793 476 7804 474 7794 469 7804 467 7794 462 7804 460 7794 455 7804 453 7794 448 7804 446 7794 441 7804 439 7793 434 7803 432 7792 427 7803 425 7791 420 7802 418 7790 413 7801 411 7789 406 7801 404 7787 399 7800 397 7786 392 7800 389 7785 384 7799 381 7783 376 7798 374 7782 368 7798 366 7781 361 7797 358 7780 353 7797 351 7779 345 7796 343 7778 337 7796 335 7778 329 7796 327 7777 320 7797 319 7777 311 7801 310 7777 298 7803 300 7779 284 7804 289 7782 272 7815 281 7793 249 7821 270 7811 234 7831 259 7826 224 7844 255 7847 217 7855 246 7861 214 7865 241 7871 215 7868 221 7867 204 7856 219 7857 200 7842 215 7847 196 7830 207 7838 191 7821 199 7831 185 7813 190 7825 178 7808 181 7821 171H7804L7817 163L7801 162L7814 155L7798 153L7812 147L7797 144L7810 139L7796 135L7809 132L7795 127L7809 124L7795 119L7808 116L7795 111L7808 109L7795 103L7808 101L7795 95L7809 94L7795 86L7810 85L7796 77H7812L7798 66L7815 68L7801 54L7819 59L7808 43L7821 49L7813 36L7827 46L7820 29L7836 40L7832 19L7845 34L7846 12L7854 28L7856 9L7862 24L7866 8L7870 22L7875 7L7878 20L7883 6L7886 20L7891 4L7894 18L7898 3L7901 17L7906 2L7908 17L7913 2L7916 16L7921 1L7923 16L7928 1L7930 16L7935 0L7937 16L7943 0L7944 16L7950 0L7952 16L7957 0L7959 17L7965 1L7967 18L7974 1L7975 19L7983 2V21L7993 4L7991 23L8003 7L7999 25L8012 10L8006 35L8030 20L8017 42L8043 34L8024 52L8054 51L8033 65L8059 70L8042 77L8061 79L8044 85L8062 88L8045 93L8063 97L8046 101L8063 106L8046 109L8063 114L8046 117L8063 123L8046 125L8062 132L8045 133L8061 140L8045 141L8059 148H8036L8056 168L8032 164L8047 185L8025 178L8036 201L8018 187L8021 211L8007 194L8005 217L8007 213L8004 246L8020 216L8013 258L8046 227L8026 265L8066 249L8037 273L8077 266L8044 288L8083 289L8055 297L8085 301L8061 305L8085 309L8061 313L8086 318L8061 321L8086 326L8062 329L8086 334L8063 337L8087 342L8063 344L8087 350L8064 352L8087 357L8064 359L8087 365L8064 366L8087 372L8064 374L8087 379L8064 381L8087 387L8064 388L8087 394L8064 395L8086 401L8064 402L8086 407L8064 409L8085 414L8062 416L8085 422L8062 424L8084 429L8062 431L8083 436L8061 438L8082 443L8061 446L8082 451L8061 453L8081 458L8060 460L8080 465L8059 467L8079 472L8059 474L8078 479L8058 481L8077 486L8058 488L8076 493L8057 496L8075 501L8056 503L8074 508L8056 510L8072 515L8055 517L8071 522L8055 524L8070 529L8054 531L8069 536L8053 539L8068 544L8053 546L8067 551L8052 553L8067 558L8052 560L8066 565L8051 567L8065 572L8051 574L8064 579L8050 581L8063 586L8050 589L8063 594L8050 596L8062 601L8049 603L8061 608L8048 610L8061 616L8049 618L8060 623L8048 625L8060 630L8048 632L8060 637L8048 639L8060 644L8048 646L8060 651L8048 653L8060 658L8048 660L8060 665L8048 667L8059 672L8048 674L8059 679L8048 681L8059 686L8048 688L8059 693L8046 695L8058 702L8045 705L8057 712L8044 714L8056 721L8043 723L8054 731L8038 732L8050 746L8035 744L8042 757L8032 754L8037 763L8025 758L8027 772L8018 764L8015 776L8010 769L8007 777L8002 771L7999 779L7995 772L7990 779L7987 773L7982 779L7979 773L7974 779L7972 773L7967 778L7964 773L7959 777L7957 773L7952 776L7950 772L7945 776L7943 772L7938 776L7936 772L7930 776L7928 773L7923 777L7921 773L7916 777L7914 774L7909 778L7907 774L7902 779L7900 775L7894 780L7892 775L7887 781L7885 776L7879 782L7877 776L7871 783L7870 776L7863 783L7862 775L7855 783L7854 771L7837 780L7840 766L7823 770L7828 759L7811 761L7821 751L7804 747L7814 740L7800 737L7811 731L7798 727L7809 723L7797 717L7807 714L7796 708L7806 706L7795 700L7806 697L7795 691L7805 689L7795 684L7799 683L7794 681L7804 679ZM7993 211 7994 244 8004 219 7994 199 7985 223 7982 211 7984 241ZM7872 214 7875 238 7878 222 7877 206ZM7971 210 7974 239 7982 210 7980 206 7975 224 7971 208 7966 224 7965 219 7966 234ZM7881 217 7883 235 7887 217 7886 207ZM7957 222 7958 234 7963 212 7962 209ZM7950 220 7951 234 7955 215 7954 209ZM7889 219 7891 235 7894 217 7893 209ZM7942 218 7943 234 7947 218 7946 210ZM7897 219 7898 234 7902 217 7901 210ZM7904 219 7906 234 7909 217 7908 210ZM7912 219 7913 234 7917 218 7915 210ZM7935 218 7936 234 7939 220 7937 210ZM7920 219 7921 234 7924 219 7923 210ZM7927 218 7928 234 7931 220 7930 211ZM8155 657 8171 654 8156 649 8171 647 8157 642 8172 640 8158 635 8173 633 8159 628 8173 626 8159 621 8173 619 8160 614 8173 612 8160 607 8174 605 8161 600 8174 598 8161 593 8174 590 8162 585 8174 583 8162 578 8175 576 8162 571 8175 569 8163 564 8175 562 8163 557 8175 555 8163 550 8175 548 8163 543 8175 541 8163 536 8175 534 8163 529 8175 527 8163 521 8175 519 8162 514 8175 512 8162 507 8175 505 8162 500 8175 498 8163 493 8175 491 8163 486 8175 484 8163 479 8176 477 8164 472 8176 470 8165 465 8177 462 8166 458 8177 455 8167 450 8178 448 8169 443 8179 441 8170 436 8180 434 8172 429 8181 427 8174 422 8182 420 8175 415 8183 413 8177 408 8184 405 8178 401 8185 398 8180 394 8186 391 8181 386 8186 383 8183 378 8187 376 8184 371 8188 368 8185 363 8188 361 8186 356 8189 354 8186 349 8189 346 8187 341 8189 339 8187 334 8190 331 8188 326 8190 324 8189 318 8191 316 8190 309 8193 307 8192 300 8195 299V291L8199 290L8198 282L8204 283L8206 276L8211 277L8218 266L8223 269L8230 262L8233 266L8240 260L8243 263L8248 258L8251 262L8257 257L8259 261L8265 257L8268 261L8273 257L8276 261L8281 257L8284 262L8289 258L8291 262L8297 258L8299 262L8305 258L8307 262L8312 258L8314 262L8320 258L8322 262L8328 258L8330 262L8335 258L8337 262L8343 258L8345 263L8351 259L8353 263L8359 260L8361 265L8368 261V267L8376 263V269L8385 267L8384 273L8393 270L8392 276L8401 274L8400 280L8409 277L8407 284L8417 281V283L8420 280L8421 287L8427 280V284L8430 280L8433 288L8439 275L8443 282L8445 272L8449 279L8450 269L8455 276L8456 265L8462 273V261L8468 270V257L8475 267V253L8481 262V250L8488 260V245L8496 257L8497 241L8504 253L8506 238L8512 251L8514 236L8519 249L8522 234L8527 247L8530 232L8534 245L8538 231L8542 244L8546 230L8549 243L8554 229L8557 243L8562 229L8565 242L8570 228L8572 242L8578 228L8580 242L8585 229L8587 242L8593 229L8595 243L8602 230L8603 244L8610 231V245L8618 232V246L8627 234L8626 248L8636 236L8634 251L8645 239L8642 252L8652 242L8649 256L8660 245L8656 260L8668 249L8664 263L8677 253L8672 267L8685 258L8679 272L8693 263L8687 277L8701 269L8694 281L8708 274L8701 286L8714 279L8707 291L8721 284L8712 296L8728 290L8718 302L8734 296L8723 310L8742 305L8729 317L8748 314L8735 324L8752 322L8739 331L8757 330L8743 338L8760 337L8746 345H8763L8749 352H8766L8752 359L8769 360L8754 366L8771 367L8756 374L8774 375L8759 381L8776 382L8761 388L8778 389L8763 395L8780 397L8764 402L8782 404L8766 410L8783 411L8768 417L8785 419L8769 424L8787 426L8771 431L8788 433L8772 438L8790 441L8774 446L8791 448L8775 453L8793 455L8776 460L8794 463L8777 467L8795 470L8778 475L8796 478L8779 482L8797 485L8780 489L8798 493L8781 497L8799 500L8782 504L8800 508L8782 512L8801 516L8782 520L8801 525L8783 528L8802 534L8784 536L8802 541L8784 543L8802 549L8785 551L8802 556L8785 558L8802 564L8785 566L8802 571L8785 573L8802 578L8785 581L8802 586L8785 588L8802 593L8784 595L8802 601L8783 603L8801 609L8784 611L8801 616L8784 618L8801 624L8783 626L8800 631L8783 633L8800 639L8783 641L8799 646L8783 648L8799 654L8782 656L8798 661L8782 663L8798 669L8782 671L8797 676L8781 678L8797 684L8781 686L8796 691L8781 693L8796 699L8779 701L8795 707L8778 709L8794 716L8777 717L8792 726L8774 725L8789 736L8769 733L8784 749L8764 742L8775 761L8759 751L8766 770L8752 758L8757 777L8745 764L8747 783L8737 769L8738 787L8729 772V790L8721 776L8720 793L8714 778L8711 795L8706 780L8703 797L8698 782L8694 799L8690 784L8686 800L8682 785L8677 802L8674 786L8669 803L8666 787L8661 804L8658 788L8653 805L8650 789L8645 806L8643 790L8638 807L8636 790L8630 808L8628 791L8623 808L8621 791L8616 809L8614 791L8608 809L8606 790L8600 809L8598 789L8591 808L8590 787L8581 807L8582 785L8571 804L8574 781L8560 800L8565 777L8549 794L8557 773L8539 786L8549 767L8530 777L8542 760L8522 767L8536 752L8517 756L8533 743L8512 742L8531 732L8510 724L8524 719L8510 715L8523 710L8510 706L8523 702L8511 697L8523 694L8512 689L8523 686L8513 681L8523 678L8514 673L8523 671L8514 665L8524 663L8514 658L8524 655L8514 650L8523 648L8514 643L8523 641L8514 636L8523 634L8514 629L8523 627L8513 621L8522 619L8512 614L8522 612L8512 607L8522 605L8511 600L8521 598L8511 593L8521 591L8510 586L8521 584L8510 579L8521 577L8510 572L8521 570L8511 565L8521 562L8511 557L8523 555L8512 549L8523 547L8513 542L8523 539L8513 534L8523 532L8514 527L8524 525L8515 520L8524 517L8516 513L8524 510L8516 506L8524 503L8516 499L8524 495L8516 491L8523 487L8515 483L8522 480L8515 476L8521 473L8513 470L8518 466L8511 464L8516 460L8508 459L8512 455H8505L8508 450L8501 451L8504 446L8497 448L8499 443L8492 446L8494 440L8488 444V439L8483 443V438L8478 443L8477 439L8475 443L8472 435L8467 446L8464 441L8462 448L8459 444V450L8454 447L8456 454L8450 450L8452 457L8446 454L8449 462L8442 459L8446 467L8439 465L8444 472L8437 471L8442 478L8435 477L8441 484L8433 483L8440 490H8432L8439 496H8432L8440 502L8431 503L8440 509L8431 510L8441 516L8431 518L8442 523L8432 525L8443 530L8432 532L8443 537L8432 539L8444 544L8433 546L8445 551L8433 553L8445 558L8433 560L8445 565L8433 567L8445 572L8433 574L8445 579L8433 581L8445 586L8433 588L8445 593L8432 595L8444 600L8432 603L8444 608L8432 610L8443 615L8432 617L8443 622L8431 624L8442 629L8431 631L8442 636L8431 638L8441 643L8431 645L8441 650L8430 652L8440 657L8430 660L8440 665L8430 667L8439 672L8429 674L8439 679L8429 681L8439 687L8429 689L8439 694L8429 696L8438 702L8428 704L8438 710L8427 712L8438 719L8426 720L8436 728H8424L8434 738L8422 736L8431 747L8419 744L8427 756L8411 750L8418 771L8403 760V782L8393 770V787L8384 774L8382 791L8375 777L8371 794L8366 780L8361 796L8357 781L8352 797L8349 783L8343 797L8341 784L8336 797L8334 784L8329 797L8327 784L8322 797L8319 784L8314 797L8312 784L8307 797L8305 784L8300 797L8298 784L8293 796L8291 784L8286 796L8284 784L8278 796L8277 784L8271 796L8269 784L8264 796L8262 783L8257 796L8255 782L8248 795L8246 781L8238 795V780L8229 793L8230 778L8219 791L8221 776L8210 787L8214 768L8193 780L8203 761L8181 767L8194 751L8169 752L8188 739L8163 732L8178 727L8161 723L8176 718L8159 714L8174 710L8158 705L8173 702L8157 697L8172 694L8156 689L8171 687L8155 681L8170 679L8155 674L8170 672L8154 667L8161 666L8153 664L8171 662ZM9067 782 9068 771 9058 783 9060 770 9049 784 9052 769 9040 785 9043 768 9030 785 9035 765 9022 782 9028 762 9013 778 9020 758 9004 774 9012 754 8994 769 9004 751 8987 765 8997 746 8979 760 8990 742 8972 755 8984 737 8965 750 8977 732 8958 744 8971 727 8951 739 8965 722 8945 733 8960 716 8939 726 8955 710 8933 720 8950 704 8927 713 8945 697 8922 705 8941 690 8918 697 8937 683 8914 689 8934 675 8910 680 8931 667 8907 670 8927 659 8905 661 8925 652H8904L8923 644L8903 643L8922 636L8903 635L8921 628L8903 626L8920 620L8903 618L8920 613L8904 610L8919 605L8905 602L8920 597L8906 594L8920 590L8908 586L8920 582L8909 578L8921 575L8911 570L8922 567L8913 562L8922 560L8914 555L8923 552L8916 548L8924 545L8918 540L8925 538L8919 533L8926 531L8920 526L8926 524L8921 519L8927 517L8922 512L8927 510L8923 505L8928 503L8923 498L8928 496L8923 491L8928 488L8923 483L8928 480L8922 475L8927 473L8921 467L8926 465L8920 460L8925 457L8919 453L8922 450L8913 448L8916 443H8908L8910 438L8902 442V436L8895 440V434L8889 439L8888 433L8882 439L8881 432L8875 438L8874 430L8867 437L8866 429L8859 436V424L8843 431L8847 419L8830 420L8837 410L8819 409L8829 399L8813 394L8822 389L8810 385L8819 381L8807 377L8817 373L8806 368L8816 365L8804 360L8815 357L8803 352L8814 350L8803 344L8814 342L8802 336L8814 334L8802 329L8814 327L8802 320L8815 319L8802 311H8816L8804 301L8818 302L8806 292L8821 294L8809 282L8826 287L8816 271L8831 279L8825 261L8837 271L8833 254L8846 267V246L8856 263L8861 241L8868 254L8870 239L8876 251L8878 237L8883 248L8885 235L8889 244L8890 233L8895 242L8894 230L8897 234L8896 231L8901 234L8897 227L8910 232L8901 220H8900H8909L8900 216L8912 215L8900 210L8913 209L8900 204L8914 203L8900 197L8914 195L8900 189L8914 187L8899 182L8914 180L8899 174L8914 172L8898 166L8914 165L8898 159L8914 157L8898 151L8915 149L8897 142L8916 140L8897 132L8917 130L8898 120L8920 121L8900 108L8921 110L8903 96L8924 101L8908 85L8928 93L8914 75L8934 85L8921 65L8941 79L8931 55L8949 73L8944 47L8957 68V42L8966 63L8968 39L8975 59L8978 38L8983 57L8987 38L8990 55L8995 37L8998 56L9003 38L9006 56L9012 38L9014 55L9020 38L9022 56L9028 39L9030 56L9035 40L9037 56L9043 40L9045 57L9051 41L9053 57L9058 42L9060 58L9066 43L9068 58L9074 44L9076 59L9082 45L9084 61L9091 46L9092 62L9101 48V65L9111 51L9109 68L9122 55L9118 72L9133 61L9126 77L9142 69L9133 83L9149 77L9140 89L9156 86L9145 97L9161 96L9148 105L9166 107L9151 114L9168 119L9155 124L9169 128L9156 132L9171 137L9157 141L9171 146L9158 149L9172 154L9159 157L9172 162L9159 164L9171 170L9159 172L9171 177L9159 179L9171 184L9159 186L9170 191L9159 193L9170 197L9159 200L9170 204L9160 206L9170 210L9160 213L9170 215L9161 219L9170 221L9163 225L9171 226L9163 231H9172L9166 236H9173L9169 242L9178 239L9175 249L9186 245L9185 249L9188 246L9189 253L9194 247L9195 255L9200 248L9202 256L9207 248L9209 256L9214 248L9216 256L9221 248L9223 256L9229 248L9230 256L9236 247L9238 256L9244 247L9245 256L9253 247V261L9270 249L9268 264L9285 256L9279 271L9301 265L9290 280H9311L9299 289L9318 291L9304 300L9323 303L9309 308L9325 312L9312 316L9327 321L9313 324L9328 329L9314 332L9328 337L9314 339L9328 345L9314 347L9328 352L9313 354L9327 361L9312 362L9326 370L9310 371L9324 379H9309L9321 388H9302L9316 406L9297 400L9304 420L9289 411L9293 432L9279 421V439L9272 428L9270 442L9264 431L9262 444L9256 432L9252 446L9248 434L9243 448L9240 436L9235 448L9232 437L9227 449L9225 438L9220 449L9218 438L9213 450L9211 439L9207 450L9205 440L9201 451L9199 442L9196 452L9193 443L9191 453L9187 444L9186 455L9182 447V456L9179 451L9180 458L9177 455L9178 458L9171 453L9170 452L9177 461L9166 459L9175 466L9164 465L9173 471H9162L9171 477H9160L9170 483L9158 484L9169 490L9158 492L9168 497L9158 499L9168 504L9157 507L9167 511L9157 514L9167 518L9158 521L9168 525L9158 528L9168 532L9159 536L9169 540L9160 543L9170 546L9163 550L9172 551L9165 555L9174 556L9169 560L9176 559L9172 564L9180 562L9175 568L9183 565L9179 571L9187 567L9184 574L9191 569L9189 576L9195 570L9193 578L9200 571L9199 580L9205 572V581L9210 572L9211 582L9216 572L9217 583L9222 572L9224 584L9229 572L9231 584L9237 572L9238 585L9245 572L9246 586L9253 572L9254 587L9262 573V590L9273 575L9271 592L9285 578L9281 596L9297 583L9289 603L9311 593L9299 609L9320 604L9303 620L9331 621L9310 634L9337 641L9319 647L9339 651L9321 656L9340 661L9323 665L9342 670L9324 673L9342 679L9325 681L9343 687L9325 689L9344 696L9325 698L9345 705L9324 707L9345 715L9323 716L9345 726L9322 725L9343 737L9313 733L9338 759L9308 749L9325 778L9299 762L9311 794L9290 770L9291 804L9280 782V808L9271 785L9269 811L9262 788L9259 813L9254 790L9249 814L9246 792L9241 815L9238 794L9233 815L9230 795L9225 816L9223 795L9218 816L9215 796L9211 816L9208 796L9203 816L9201 796L9196 816L9194 795L9189 816L9187 795L9182 815L9180 795L9174 815L9173 794L9167 813L9165 793L9160 812L9158 792L9152 811L9151 791L9145 809L9144 790L9138 807L9137 788L9130 804L9129 787L9123 802L9122 785L9116 800L9115 783L9108 797V781L9101 794V779L9093 791V776L9085 787L9086 774L9078 783V777L9076 781L9077 771Z" fill="currentColor" /></svg>