<svg viewBox="0 0 9025 1185" xmlns="http://www.w3.org/2000/svg"><path d="M231 208 265 213 283 236 239 230 227 227ZM160 220H179L181 236ZM236 831V829L234 832H235L243 861L219 853L214 860L197 891H166L153 910L141 915H82L63 907L55 888V848L53 844V746L55 747V701L64 698L90 697L89 690H80L71 693V497L55 499V460L66 456L57 453L44 458V438L46 419L62 420V408H57L56 380L47 376V356L55 370V368L71 377L83 361L79 362L83 354L59 353V274L63 252V242L66 241L67 235V241L82 235H87V234L89 235H133L145 228L144 235H161L173 244H181V237V236L182 237H279L268 252H271L279 243L282 253H292L284 274L315 277L322 259L296 257L310 240H389H423V239L449 241H454L495 247L516 251L536 256L528 259L514 254L515 257L516 258L535 265L552 273L550 266L564 270L559 297L578 298L579 292L564 277L580 287L582 274L602 294V289L607 298L620 311H615L627 322L642 302L655 327L643 340V341L635 352H650L644 341L651 352H669L666 360L671 372L669 367L666 360L662 372L665 377L662 373V374L663 376L669 390L661 376L659 381L665 391H656L663 413L671 391L673 396L678 416L677 414L682 437L685 457L686 478L682 522L677 543L662 582L652 600L623 601L598 610L602 577L599 543L629 553L616 518L614 515L597 509L568 505L566 504L561 524L549 493L540 488L521 490L523 482L517 480L508 457L526 421L530 391L513 402L510 421L474 426L460 446L463 450L467 449L480 430L478 426L514 421L498 452L500 454L504 448L521 492L496 486L483 508L480 487L468 486L461 493L465 515L503 524L522 522L524 544L492 541L507 567L488 574L500 582L520 575L525 556L540 564L526 541L545 543L542 536L540 514L568 531L597 535L600 569L596 602L591 601V603L588 613L609 630L636 633L608 610L633 601L662 600L637 633L640 634L608 662L586 667L587 670H558H552H562L560 681L562 670L587 700L581 698L587 709H589L607 717L615 741H628L623 751L626 750L642 781L654 771L647 750L657 768L659 767L662 778L666 785H664L657 809L692 873L704 902L682 924H664L663 919L645 924L658 892L642 890L636 905L626 889H622L619 884H615L618 882L608 867L615 884L633 911L656 946H544L533 931H528L523 929L532 930L516 909L555 921L541 894L553 896L550 880L544 878L547 883L508 882L517 894L505 893L510 898L473 905L484 892H474L480 894H461L435 887L410 850L404 835L403 839L380 786L409 778H410L427 782V781L416 778L444 748L461 754L452 739L449 734L444 691L457 690L454 668L428 669L433 712L405 706L395 691L398 699L417 728L420 730L435 734L440 726L458 750L432 740L431 742L437 748L409 778L395 764L390 771L397 778L381 782L378 786L377 784L367 786L374 777L355 734L364 720L320 717L309 704H275L262 668L250 686L226 693L200 689L217 672L229 658L261 667L259 664L238 658L235 639L217 627L212 629L215 658L203 672L190 685L194 689L220 693L211 708L212 717L202 722L198 729L165 730L171 741L201 740L225 728L223 704L247 697L260 678L274 715H308L297 746L302 759L318 757L345 765V842L344 844L345 847H343L342 849L340 846L326 845V870L324 844H321L323 841V839L326 832V837L329 833L327 830L295 800L273 788L285 761H287L278 758L245 762L238 778L243 780V778L245 782L255 787L287 817L262 811L268 822L242 818L243 820L237 824ZM83 241 96 262 102 259 93 244ZM473 272 484 273 483 272 476 271 475 254 470 246 450 244 467 279 471 278ZM235 269 236 290 241 306 240 269 284 275 264 297H290L284 274L278 267H258L269 255L267 253L266 254L240 250L236 266L207 255L232 249L204 256L228 265L224 266L227 267L228 266L229 267ZM398 280 396 283 405 291 413 260 408 256ZM159 264 164 273 180 275 194 271 195 267ZM429 285 432 301 440 303 435 278V279L419 264ZM166 316 171 310 173 303 214 296 218 343 259 341 263 299 272 341 290 299 308 334 290 365 281 400V401L290 367L329 377L332 371L309 365L327 334L336 314L361 304L368 292V291L360 286L349 284L333 282L354 298L317 313L308 333L290 298V297L272 339L263 298V299L259 341L218 343L214 296L225 271L224 266L213 269L201 296L169 301L166 310L154 298L150 299L128 327ZM464 280 466 279 438 268 437 270 463 281ZM540 270 546 296 557 297 552 274ZM460 341 451 354 452 355 462 341 472 352H484L493 341H477L486 322L477 314L493 304V303L488 296L501 281L498 282L485 297L478 301L473 314L460 341ZM505 356 504 396 505 397 509 395V356L538 334H540L543 322L525 323L526 307L518 306L516 307L515 327L520 334L514 335L519 340L493 341V352H497L487 365ZM602 317 604 348 607 357 617 359 614 350 603 328 602 311V310ZM397 327 394 331 415 336V333L406 331L402 321L395 325ZM107 411 106 384 121 386 110 357 138 363V358L128 356L136 342L124 333L114 349L103 336L97 349L110 345L106 384L71 377L78 392L95 395L96 422L114 446L132 440L124 430L99 422L109 410L108 409ZM444 340H443L444 342V340ZM359 358 370 391 379 377 416 369 415 362 412 366 399 342 401 348 385 345 379 354V355L378 356L362 343L356 356ZM154 353 167 364 177 361 180 354 176 347ZM371 389 360 356 380 375ZM162 398 170 377 166 364H167L140 358L142 364L150 365L161 402L176 398L175 395ZM565 359H560L565 370H574ZM481 378 488 369 487 365 480 375ZM452 396 470 400V397L468 396L471 392L472 382L462 396L451 367L438 370L434 404ZM595 391 600 399 599 383 587 381ZM612 419 613 422 631 423 632 426 637 420 645 449 639 448 641 452 669 464 658 430 660 422 631 410 623 381 603 404ZM182 432 198 395 209 432 222 386 215 389 209 410 204 392 198 394 196 389 183 392 181 396 190 394 180 417H182L181 436L182 449L191 444L192 432ZM118 398 126 399 123 391 109 408H110ZM560 417 576 426 586 424 574 394 569 391ZM492 405 496 402 481 399 476 401ZM75 421 69 408H63V420ZM403 520 419 501 451 485V477L437 459L419 468L424 436L419 427H418L419 431L416 427H408L391 421V422L360 423H342L320 422L305 458V490L304 497L342 504L327 522L342 545L356 527H392L411 522L429 512L434 514L439 510L429 506ZM286 445 293 453 301 454 286 437V434L280 440L284 447ZM458 449 457 448 450 436 439 437 451 451 459 450ZM244 495 237 486 247 514 260 508 244 504 263 477 286 478 277 462 270 461 274 457 271 451 263 450 261 445 248 446 221 452 235 454 230 471 263 468ZM221 492 208 455 206 453 183 450 196 463 207 457 199 467 207 475 184 488V487L183 488V494L174 520L182 524L185 516L183 514H186L188 508L192 516L221 522L214 551L216 554L224 551L228 531L221 534L224 511L209 508L231 479L229 476L224 471ZM634 489 651 518 648 494 644 485 632 463 601 454 613 483ZM109 464 125 483 124 476 109 458 93 463 102 466 81 496 97 494 103 499 124 497 113 510 116 513 127 495 126 490 88 494ZM301 514 313 517 303 501ZM258 612H266L265 605L241 579L285 570L262 546L269 510L265 509L258 546L243 516L244 515L236 514L244 524L237 527L247 546L233 551L222 568L224 579L211 580L208 585L219 600L217 603L233 605L239 630L257 642L263 623ZM124 541 165 549 155 534 153 536 130 531ZM378 596 386 598 387 597 385 595 384 596 383 593 375 583 381 573 380 566 389 549 376 538 361 566 365 596H363L375 610ZM250 546 273 570 229 579ZM144 600 137 604 132 613 136 611V608L140 609L155 601L151 600L183 573L193 577L191 574L207 572L213 564V558L212 561L206 551L201 549L191 562L168 554L167 552L161 558L171 573H168L144 593ZM213 555 215 554H214ZM439 570 437 580 455 578 450 566 438 567ZM411 566 401 587 414 624 422 595ZM556 576V575L554 574L537 587L535 592L545 609L547 603L571 607L567 600L571 597L558 595ZM484 647 514 619 525 648 517 667 527 669 537 670H551H549L539 669L545 653L539 629L541 621L530 625L527 637L516 608L526 604L515 596L514 597V596L510 593L478 591L479 577L470 580L471 583L469 599L473 606L506 608L481 632ZM138 680 136 664 126 661 105 658 94 643 96 607 126 584 135 579V577L121 584L91 607L89 643L100 658L102 669H105ZM232 579 256 605 221 600ZM340 638 355 656 346 658 355 701 344 702V703L366 701L357 656L371 643L370 640L368 638L374 613L351 607L359 596L350 597ZM184 620 183 630 194 611 157 602 155 613ZM284 641 309 612H297L277 634L280 641L273 642L297 657L327 660L331 659L309 657ZM577 629 584 657 601 632ZM533 691 522 675 519 680 521 690 547 698 548 688 537 675ZM573 697 574 696 571 695ZM526 721 522 706 510 738 530 732 535 719ZM552 769 568 744 570 773 589 737 561 738 535 747 520 771ZM624 769 620 756 612 771 618 791ZM180 780 183 791 186 774 182 767ZM580 794 596 770 577 777 571 785 572 787 570 788 554 811 561 814V809L562 815L565 816L575 831L585 828H624L644 833L650 844V843L633 811L613 806L617 794ZM485 818 494 780 503 777V773L475 791L470 794L464 822L481 825L505 813L496 851L522 838L533 857L552 858L556 856L547 840L544 833L540 827H541L536 817L534 818L535 815L533 812L523 808L505 813L516 806L511 805ZM441 786 445 785 428 781V783ZM406 817 404 833 420 843 421 842 420 839 423 818H421L410 782ZM233 789 235 797 239 794 236 783ZM539 804 540 802 535 799 537 803ZM130 815 153 803 128 816 140 835 143 834ZM143 854 155 821 193 833 185 851 192 849 194 846 200 832H204L205 831H193L188 814L154 804L143 835L132 870L139 883L147 870ZM167 930 180 911H211V913L231 877L245 860L277 864L290 878L298 902L303 886L296 867H298L284 842L257 853L270 831L268 829L272 827L276 820L279 824L302 815L291 829L318 836L300 867L320 870L309 907L305 894V916L297 935L290 938L294 943L267 946H189L202 943L204 933L194 935H155ZM235 829V826L233 828ZM576 851 570 842 568 853ZM110 844 119 864H122L112 843ZM641 864H636H641ZM281 925 287 933 293 919 283 920ZM673 948 674 953H655ZM881 928 902 935 933 956 912 953 873 940 854 930 837 918 833 899 837 892 817 872 805 855 795 836 781 797 777 777 773 756 772 735 771 703 761 697 771 688V616L791 641L795 636V634L784 619V607H780L770 582L752 580L761 557L759 526L770 514V507L766 481V442L793 415H982L1002 423L1009 442V480L1016 500L1009 497V500L1008 497L987 488L985 493L1002 500L985 534L969 535H958H957H958L939 547L941 548L942 551L960 562L975 578L960 592L976 578L993 566L989 562L966 548L986 535L1016 534L1033 500V557L1005 578V711L1007 733L1002 729V734L1019 767H1020L1007 794L1025 804L1042 820L1048 809L1043 804H1048L1047 803L1028 804V805L1023 768L1041 772L1042 770L1030 767L1008 726L1017 733L1056 768V767H1063V766V767L1091 764L1105 767L1108 733L1113 703L1124 726L1141 702L1138 687L1118 713L1104 684L1100 714L1102 693V655L1109 659L1111 647L1120 664L1123 666L1142 656L1149 637L1153 672L1156 668L1153 637L1138 620L1128 648L1111 615H1110V605L1107 579L1110 578V577L1112 578L1121 574L1122 576L1125 569L1117 557V558L1111 573V560L1107 561V446L1127 435L1145 469L1148 463L1131 431L1158 436L1153 432L1149 431L1150 429L1136 417L1130 431L1110 442L1136 416L1134 415H1190L1191 411H1248L1250 424L1226 465L1223 460L1220 465L1224 473L1226 469L1252 472L1256 477L1289 463L1288 461L1272 467L1246 464L1270 423L1268 410H1344L1364 418L1360 421L1330 424L1299 423L1303 435H1310L1340 432L1343 429L1348 441L1351 431L1358 464L1351 466V468L1349 481L1351 505L1352 502V521L1346 533L1349 535V537L1355 559L1346 556L1322 561L1307 582L1315 586L1321 585L1331 567L1332 582L1344 580L1334 598V600L1340 606L1344 610L1337 613L1335 617L1340 619L1345 610L1366 617V656L1357 636L1344 640L1342 655L1337 643L1327 646L1333 633L1330 626L1324 638L1326 646L1312 642L1318 656L1334 651L1343 690L1338 691V704L1315 706L1317 709L1322 708L1338 744L1340 759L1341 758L1340 760L1341 772L1338 789L1341 800L1351 793L1345 813L1339 832L1336 809L1331 807L1330 809L1334 837L1346 876V895L1332 897L1346 915L1319 942H1280L1299 930L1298 927L1285 935H1168L1130 927L1125 909L1101 895L1080 892L1045 884L1039 864L1047 862L1041 850L1034 859L1035 861L1038 862L1018 893L1023 909L1011 906L1002 897L992 913L983 902H982L977 920H975L991 940L976 944L955 945L975 920H971L956 940L938 939L934 944L920 934L902 935V899V922L881 915L878 902L875 903ZM1178 469H1195L1194 457L1193 456H1194L1192 444L1213 456H1221L1212 438L1189 425L1188 426L1193 463H1178L1176 469L1161 441L1160 442L1176 473L1186 498H1187L1200 525L1209 526L1240 532L1257 526L1270 516L1256 521L1262 503L1249 513L1247 491H1246H1243L1232 523L1201 517L1192 498H1189ZM873 647 878 621 899 644V643L879 621L895 578L890 570L888 571L891 575L885 576L881 581L878 577L865 578L873 568L868 559L851 557L860 530H856L858 490L872 469L867 459H869L858 443L835 432H834L857 443L853 447L862 459L854 460L834 490L832 530L847 529L838 557L804 559L827 576V577L832 578L833 572L819 561L853 559L864 579L874 578L861 613L871 621L866 647L859 648L866 674L878 661L874 647ZM833 432 834 459V458V432ZM881 444 869 459H871L882 445ZM922 456 945 495 953 498 932 461ZM789 460V461L806 471L805 469ZM957 472 997 462 996 460 955 471ZM1319 470 1312 493 1323 490ZM1207 485H1203L1205 489H1207L1214 488L1216 485H1207ZM893 489 916 528 918 526 896 489ZM819 498V496L802 494L800 496ZM1318 525 1309 501V503L1318 528L1325 499L1324 496ZM1272 501 1273 514 1279 509ZM949 514 957 532 962 518 957 506ZM1292 515 1298 509 1292 515ZM1296 524 1316 530 1317 529 1295 522ZM1154 548 1147 577 1153 586 1162 548 1199 551 1177 524 1169 523 1191 550 1154 547ZM917 528H918H916ZM916 528ZM871 529H868L906 531H907ZM881 558V559H884L864 529L861 530L880 559ZM926 530 956 535 926 530ZM1326 534 1329 530H1320L1323 534ZM1340 531ZM1302 544 1318 546 1319 545 1301 543ZM1282 674 1299 655 1300 646 1302 651 1310 641 1305 639 1277 618 1295 579 1282 585 1290 568 1282 564 1281 563 1247 561 1212 560 1215 563 1239 564 1275 566 1265 588 1282 580 1263 621 1291 642 1268 669 1280 674 1298 695 1304 696 1296 680V676ZM1299 577 1298 578 1305 581 1304 574 1296 570ZM1132 587 1142 591 1135 583 1123 577ZM842 578 841 577 842 580 848 581 855 580ZM837 603 834 608H840L834 597H826L829 587L826 581L819 603ZM1146 593 1149 611H1154L1151 593L1152 590L1144 587L1143 592ZM924 644 926 641 909 611 908 618ZM835 649 842 648 851 616 845 612ZM1110 650 1109 651V653V651L1106 654V615L1109 639V634L1113 631L1110 648ZM1229 639 1228 642H1247L1246 639ZM1183 669V671L1186 670L1184 648L1175 656ZM1358 650V669L1357 679ZM917 711H951L950 713H957V711H953L956 703L942 667L927 711L915 668L902 652L897 658L905 668ZM1206 691 1197 689 1195 692V694L1217 701L1212 673L1213 670L1210 671L1204 680ZM1247 671 1218 706 1238 701 1259 675ZM812 683 805 671 797 677ZM844 685 867 706 881 742H892L867 770L873 768L896 743L895 742L883 711H879L876 701L858 685L868 680L865 674ZM1267 696 1253 700 1279 707 1270 697ZM826 703 805 709 807 710 825 705ZM1220 723 1231 722 1218 707V740L1205 716L1178 706L1190 737L1207 743L1193 766L1208 765L1221 743L1226 754L1244 743H1236V732L1227 738ZM994 710 981 725 985 727 995 715ZM960 716 942 735H943L961 717ZM1364 756 1348 720 1376 718 1377 748V787L1373 786L1358 795L1364 763L1365 765ZM937 731 932 726 935 734 940 735 938 730ZM1138 737 1146 749 1151 735 1149 729 1125 728 1127 732 1132 746ZM961 757 984 728 980 729 960 755ZM919 733 930 765H932L921 733ZM1165 772 1157 751 1164 774 1179 771 1185 767 1191 766 1182 743 1174 745ZM1228 758H1227V760L1252 758L1251 753L1226 755ZM1292 773 1268 802 1298 786H1299L1311 771L1324 766L1322 760ZM917 835 899 826 898 827 914 844 921 848 930 859 932 852 919 835 936 790 967 799 970 794 959 761 956 762 968 797 937 788V787L936 788L937 790H935L921 828L908 790H905L907 787L906 783H911L919 775L916 766L903 763L894 766L903 790H902ZM1224 774 1231 791 1236 789 1226 765ZM1044 772 1055 775 1056 774V773L1043 770ZM858 802 868 782 861 775 847 803 857 807 883 806 888 801ZM1317 786 1309 790 1312 792 1326 776V775ZM934 783 933 781 932 782 933 783ZM1211 785V783L1210 781V783ZM1122 824 1147 821 1175 819 1155 857 1149 858 1173 863 1193 882 1223 890H1224L1239 861V858L1230 851L1220 848L1217 846H1210L1208 837L1204 833L1195 831L1173 839L1184 829L1180 828L1194 801L1187 802L1191 793L1184 790L1177 803L1154 819L1142 792L1133 804L1110 800L1101 791L1089 796L1095 802L1085 803L1101 817L1071 822V830L1063 823L1049 826L1053 830L1040 831V832L1064 830L1048 862L1067 858L1101 853H1102L1123 861L1131 859L1114 853L1094 834ZM895 795 899 799 902 791ZM1244 806 1242 808 1253 817H1259V813L1239 795L1237 791L1231 802H1232L1234 800L1239 805ZM889 801 890 806H896L898 800ZM1048 804H1050L1051 803H1048ZM1311 835 1316 828 1290 834 1265 806 1264 807V817H1271L1268 823L1285 841ZM892 815 895 807 891 812ZM1032 833H1034V832L1021 833L1026 844L1033 834ZM882 858 858 851 853 862 882 871 916 859 907 849ZM964 851 980 878 981 875 967 851ZM952 880 928 881 953 880ZM924 894 942 921H946L949 917L927 884ZM992 941 1011 909 1013 919 1021 921 1023 912 1052 920V919L1023 911L1044 884V885L1079 893L1101 896L1093 907L1076 918L1038 935L1020 939L1018 949L1016 940L997 943ZM1246 902 1245 895 1225 892 1249 917 1250 901ZM913 711H894L914 727L921 717ZM829 759V756H813L812 760H827V762L859 745L861 771L865 770L863 742H860L836 755V756H834ZM1441 888V885L1443 861L1452 876L1454 874L1461 876L1469 861L1474 846L1472 844L1470 850L1463 839L1454 855L1444 840L1442 861V849L1441 856V839L1440 828V689L1446 705L1459 678L1457 679L1447 700L1442 679L1445 678V677L1442 669V675L1441 680V660V665L1442 662L1445 673L1444 669V510L1450 507V436L1441 414L1453 402L1438 391V371L1473 382V381L1472 379L1441 369L1459 345L1458 344L1438 371V312L1445 315L1438 272L1441 267V247L1444 263L1465 225H1502L1528 263L1542 261L1518 225H1555L1544 261L1564 259L1557 276L1575 277L1583 259L1600 283L1590 287L1597 289L1594 299L1615 306L1600 329L1604 339L1617 340L1620 325L1642 345L1676 350L1674 338L1665 337L1643 317L1638 340L1626 307L1633 281L1614 275L1597 251L1561 255L1572 217H1665L1703 225L1710 244V284L1686 273L1691 283L1711 292V332L1704 318L1690 303L1699 342L1687 340V412L1682 432L1681 436L1695 439L1724 419L1744 413L1784 406L1804 405L1814 421L1826 422L1848 461L1834 487L1804 461L1802 432L1795 431L1798 472L1827 497L1833 498L1847 472L1862 464L1845 433L1872 409L1893 413L1912 420L1948 438L1904 435L1905 437L1933 439L1964 466L1965 467H1966L1965 468L1989 498L2006 535L2010 549L2022 558L2028 599L2029 619L2030 672L2029 698L2008 696L2004 701H1995L2001 709L1981 736L1998 744H2005L2026 714L2024 738L2023 744H2025L2023 747L2022 759L2019 756L2018 757L2021 759L2016 781L2033 799L2012 820L1998 795H1991L1996 790L1989 775V774L1988 770L1950 761L1942 752L1917 764L1929 779L1967 788L1977 812L1983 823L1996 828L2018 820L2033 819L2025 838L2014 856L1972 848L1943 860L1956 889L1941 903L1924 915L1887 932L1867 938L1827 944L1799 937L1794 939L1793 945L1806 939L1834 947H1813L1793 946L1791 957L1751 951L1731 944L1713 936L1695 925L1681 913L1653 911L1657 917L1638 924H1619L1622 917L1621 916L1619 920L1606 909H1599V910L1619 927H1591L1562 944L1559 931H1487L1449 923L1441 904V888ZM1548 295 1561 290 1555 280ZM1556 436 1582 429 1567 418 1597 422 1593 431 1602 457H1609L1604 442H1602L1603 441L1598 426L1604 413L1623 383L1594 379L1600 371L1574 367L1598 384L1563 394L1535 401L1521 364L1517 341L1509 338L1507 383L1511 406L1499 440H1511L1531 443ZM1823 393 1867 397 1839 421ZM1502 433 1514 399 1528 436ZM1465 421 1453 439 1461 458 1474 439 1462 438 1479 405H1478L1473 410V406H1471L1466 417L1465 407ZM1652 484 1675 482 1680 468 1659 456 1645 492 1656 494ZM1707 464 1703 466 1708 469 1717 464 1756 460 1755 459ZM1891 459 1873 469 1879 495 1896 480ZM1485 486 1479 490V495L1496 472L1491 465ZM1933 473 1937 472 1941 468 1923 471 1924 473 1910 485 1914 493 1911 519 1869 524 1893 552 1858 556 1818 562 1820 565 1821 563 1862 557 1897 553 1873 525 1915 520 1928 549 1939 529 1935 519 1915 520 1918 494 1934 475ZM1555 470H1558L1559 469H1554ZM1504 489H1507V487L1500 477L1504 499ZM1793 490 1815 526H1820L1799 491ZM1710 490 1696 515 1704 525 1720 522 1726 510ZM1605 561 1613 560 1623 529 1628 536V535L1624 529L1600 519L1613 497L1626 494L1610 491L1586 497L1580 506L1582 507L1579 508L1573 519L1563 513L1544 518L1531 503H1530L1553 530L1591 519L1615 529ZM1679 550 1687 564H1702L1682 528L1686 515L1681 496L1674 497L1672 501L1683 531L1675 528L1670 546L1672 549ZM1508 515 1504 520V514L1479 501V517L1505 563L1506 564L1507 557L1485 517L1517 533L1512 510L1508 515ZM1651 531 1656 520 1647 517 1646 533 1657 538ZM1764 523 1773 552 1775 539 1770 523ZM1704 751V776L1710 759L1721 778L1730 764L1749 759L1756 751L1779 760L1780 756L1761 748L1780 723V699L1781 677L1780 643L1776 621L1778 609L1793 615L1794 596H1795L1810 553L1806 548L1793 585L1794 586L1793 605L1778 599L1756 582L1752 587L1731 584L1704 589L1708 551L1705 548L1703 567L1702 566L1693 575L1701 589H1680L1696 631L1681 627L1680 632L1679 681L1680 706L1681 716L1683 715L1694 730L1689 744L1696 757ZM1639 642 1671 652 1657 614 1652 609V610L1634 588L1631 592H1610L1621 622ZM1874 589 1886 606 1892 605 1881 589ZM1957 593 1923 600 1919 607 1951 601ZM1930 629 1922 664 1925 661 1934 625ZM1592 638 1589 635 1590 637ZM1857 664 1859 672H1864L1880 656L1886 675H1889L1888 677L1892 676L1889 663L1880 635L1857 659L1825 662L1828 666ZM1500 644 1463 652 1464 675 1492 670ZM1539 744 1528 771 1531 781 1536 780 1539 772 1559 795H1562L1539 768L1562 743L1584 778L1595 773L1594 772L1584 776L1586 758L1573 739L1579 699L1618 705L1609 704L1568 697L1594 675L1589 654L1561 659L1568 675L1562 715L1539 740L1516 739L1525 721H1524L1516 736L1501 711L1499 710L1490 698L1484 715L1498 734L1505 745L1516 743ZM1977 675 1986 688 1993 678 1981 661 1960 657 1926 661 1932 674 1956 671ZM1897 688 1898 695 1906 683H1904ZM1937 727 1944 742 1959 734 1947 728 1937 706 1928 689 1918 686 1921 698 1898 702 1899 712 1900 718 1923 724 1921 698 1933 726ZM1874 696 1883 697 1877 692ZM1654 713V727L1676 718L1672 713L1651 711L1650 712ZM1824 731 1815 754 1821 755 1829 733 1850 731 1848 726 1829 728 1797 722 1796 726ZM1873 814 1874 815 1877 807 1882 814 1907 791 1899 755 1915 762 1904 735 1878 759 1882 735 1857 755 1856 751 1851 759H1845L1827 789L1834 811H1838L1832 791L1851 759L1860 789L1885 769L1881 793ZM1615 763 1595 771V773L1615 765L1627 762L1628 760L1626 761L1598 739L1597 749ZM1709 745 1730 748 1704 747ZM1671 770V769V766L1673 760L1665 758L1656 781L1672 774L1671 770ZM1673 794 1672 777 1661 809H1647L1654 834H1661L1656 862L1659 861L1689 836L1692 805L1681 788ZM1447 832 1453 825 1448 818 1459 820 1475 805 1492 803 1485 790 1474 791 1466 799 1469 802 1457 807 1446 818 1445 838 1455 833ZM1695 807 1697 800 1693 804ZM1611 828 1614 837H1629L1625 835L1637 809L1616 807ZM1568 872 1598 865 1624 874 1622 867 1598 860 1568 867 1571 831 1568 861 1542 829H1538L1533 811L1501 817L1495 808L1479 836L1483 843L1501 851L1495 864L1497 868L1501 859L1539 851L1543 866ZM1765 833 1764 834 1766 836 1767 835 1765 833H1768L1781 816H1778ZM1803 818 1821 841 1835 845 1815 818ZM1740 837 1743 831 1734 819H1727ZM1831 863 1843 876 1847 870 1838 859 1842 821 1841 819 1838 849 1837 847 1832 856 1833 857H1831L1821 872L1823 875ZM1942 836 1935 824 1911 858 1945 844 1942 856 1953 840ZM1719 839 1718 824 1710 827ZM1476 841 1477 837H1475L1474 840ZM1869 844 1864 852 1877 882 1881 871ZM1657 878 1655 867 1654 872 1647 848H1645L1640 845L1626 875L1644 887L1645 880L1657 882L1671 894H1692L1705 919L1734 894L1740 926L1761 920L1788 922L1790 909L1829 919L1818 897L1797 892L1761 890L1740 896L1734 864L1705 889L1692 864L1675 863ZM1779 850 1757 851 1750 868 1795 865 1777 845H1775ZM1892 853 1889 863 1903 886 1909 882ZM1991 856ZM2004 873 1991 889 2014 856ZM1490 875 1486 868 1484 867 1492 880 1495 872 1492 870ZM1924 895 1925 891 1920 890 1923 895ZM1917 908 1909 896H1899L1879 909ZM1555 904 1558 916 1585 904 1553 899ZM1633 440 1623 441 1610 457 1624 456H1640L1634 428L1631 432ZM2228 360H2217H2215H2210L2195 359L2161 360L2192 328L2207 327L2201 320L2192 328L2146 343L2145 301L2155 281L2183 272L2176 305L2203 312L2216 309L2202 305L2209 272L2218 274L2211 262L2175 256L2147 265L2137 285L2124 263L2107 230V196L2115 176L2132 179L2154 170L2196 174L2231 179L2258 176L2288 170L2257 200L2270 202L2286 186L2295 206L2304 207L2288 172L2302 171L2305 207V208L2313 200L2312 185L2332 193L2340 229L2330 210L2322 217L2331 247V281L2322 285L2331 316V333L2304 360H2266L2256 359L2229 360ZM2216 235 2225 238 2234 220 2229 210ZM2243 271 2259 284 2273 243 2319 245 2320 219 2318 221V229L2272 227L2258 268L2242 255L2234 276L2240 277ZM2104 247 2121 279 2134 301 2122 326 2104 298ZM2107 304 2125 331 2137 306 2138 348 2184 333 2153 365H2134L2115 357L2107 338ZM2235 314 2223 311 2222 325 2236 314 2244 323V312ZM2232 328 2243 339 2244 327ZM2222 342 2219 339 2218 352 2228 342H2230L2231 328H2222ZM2116 664 2119 630V597L2152 608L2168 604L2167 598L2140 571H2162L2168 560L2154 564L2121 553V483L2118 491L2112 520V461L2120 423L2139 415H2140L2144 404L2164 411L2199 412L2198 415H2199L2195 424L2235 418L2239 415H2318L2323 424L2321 428L2328 452L2333 487L2320 484L2322 492L2321 496L2328 509L2359 518L2366 539V578L2361 570L2346 569L2359 603L2343 638L2341 632V675L2312 668L2311 662V663L2306 662L2307 668L2336 675V694L2318 704L2336 733L2329 759L2320 725L2288 719H2287V722L2306 725L2312 749L2317 733V756L2328 759L2335 779V830L2334 821L2335 850V889L2318 875L2336 908L2328 927L2309 935H2148L2129 927L2121 908V811L2130 809H2129L2119 811V733L2139 725L2132 686L2125 667ZM2291 434 2297 431 2300 427 2298 422 2270 434 2253 453 2234 476 2264 482 2253 508 2237 512 2272 504 2252 534 2245 568 2248 567 2254 538 2274 508 2279 497 2271 482 2284 485 2285 482 2255 476 2274 453ZM2135 448 2133 454 2142 467 2154 455ZM2185 493ZM2203 632 2226 629H2201L2229 597L2196 595L2208 568L2211 545L2215 520L2217 513L2205 493L2196 524L2186 494L2170 511L2169 510L2159 528L2168 536L2186 524L2182 549V550L2186 555L2200 572H2179L2167 598H2170L2173 586L2175 599H2184L2200 600L2176 627L2171 644L2189 633H2203ZM2336 568 2335 570 2336 580 2343 569ZM2278 610 2280 613 2315 598 2321 614 2325 606 2330 603 2324 606 2320 595 2318 598 2307 570H2306L2316 594ZM2282 667 2275 697 2257 719 2276 697 2283 667 2290 658 2274 655 2260 625 2232 629H2231L2245 658L2235 664L2239 673L2245 659L2257 662L2262 659L2261 663ZM2092 636 2100 630 2097 664 2092 656ZM2127 630 2122 634 2147 671 2157 674ZM2107 686 2114 725 2094 733V694L2099 664L2102 673V656L2107 664L2104 679ZM2231 724 2243 760 2231 724V722L2206 720L2207 722ZM2284 788 2291 753H2290L2284 787L2260 746L2256 720L2260 747L2246 777L2269 806L2267 814L2277 824L2296 841L2310 844L2317 873V874L2310 844L2334 816L2310 844L2287 824L2269 806L2246 777L2260 747ZM2188 793 2178 806 2208 809 2207 807 2195 806ZM2267 873 2245 874 2267 873 2280 840 2271 838 2262 859ZM2276 904 2305 866 2275 904ZM2183 868 2171 889 2183 902 2189 892ZM2197 870 2196 878 2201 870ZM2213 913 2216 873 2203 871ZM2260 900 2270 930H2271L2261 900H2260L2244 886ZM2505 821V820V812L2507 813L2511 794L2509 790L2479 798L2461 788V554L2446 549V531L2439 530L2446 524V501L2435 512L2425 491H2422L2430 451L2446 482V469L2453 470V386L2440 356L2436 391V252L2444 233L2482 225H2488L2491 218H2588L2581 248L2582 251L2588 227H2627L2646 235L2654 254L2642 252L2596 257L2588 269L2583 261L2554 265L2560 273L2588 269V270L2596 258L2642 253L2654 255V312L2642 301L2648 289L2645 282H2642H2623L2642 301L2654 332V370L2626 377L2621 408L2614 362L2594 387L2587 381L2560 393L2555 403L2558 405L2556 408L2564 412L2591 400L2614 371L2621 418L2626 387L2654 379V474H2652V481L2646 522L2639 549L2641 550L2649 522L2655 538L2642 550L2648 551L2645 558L2654 571L2638 603L2632 591L2624 596L2608 561L2624 559L2618 547L2614 546H2612L2602 565L2611 584L2621 603L2612 604L2613 606L2607 605L2596 606V605L2591 613L2594 614L2581 632L2584 641L2590 653L2595 658L2587 641H2629L2604 666V667L2630 641L2635 669H2602L2604 667H2603L2601 669L2600 668L2593 696L2574 692L2579 703L2591 705L2593 700L2594 702L2601 675H2634L2664 674L2666 665L2677 686L2660 700L2657 711L2677 695L2695 671L2714 699L2718 691L2700 665L2689 666L2677 681L2666 660L2655 640H2648L2649 641H2635L2634 643V641H2607L2633 606L2635 611L2646 605L2644 611L2660 609L2666 617L2678 619L2676 602L2660 600L2639 603L2655 571L2661 599L2682 580L2683 588L2688 579L2677 575L2660 590L2654 561L2661 563L2653 551L2663 541V538L2702 512L2712 496V517L2714 520L2738 509L2726 524L2738 527L2752 509L2788 516L2790 530L2796 532L2797 520L2794 515H2797L2798 505L2811 468L2844 495L2859 467L2860 508L2863 510L2872 492L2876 524L2866 544L2848 553L2849 555L2864 550L2859 573V574L2863 591L2872 588L2866 599L2868 608L2866 621L2848 628L2845 632L2844 629L2836 632L2837 602L2836 599L2822 602L2825 608L2834 606L2833 626L2836 632L2833 633V639L2830 633L2810 636L2790 595L2787 597L2766 578L2799 582L2804 577L2828 565L2806 558L2798 572L2768 569L2766 577L2763 568H2761L2762 564L2755 545H2756L2752 544L2747 565L2722 530L2718 535L2715 546L2741 582L2707 572L2709 579L2707 580L2734 588L2744 582L2752 548L2763 580L2750 606L2747 605L2733 622L2739 624L2754 606L2760 605L2770 586L2785 600L2788 599L2810 643L2835 639L2865 628L2866 666L2909 732L2881 694L2879 731H2880L2881 711L2896 732H2909L2942 782L2915 751L2933 783L2927 782L2941 799L2943 802H2948V801L2964 821L2963 826L2974 832L3004 879L3006 871L3019 898L3021 900L2997 924L2999 912L2988 935L2997 936H2978L2945 934L2971 916L2966 908H2947L2945 909L2921 911H2882V910L2868 911L2882 944L2856 943L2866 911H2864L2858 930L2827 931H2808L2801 909L2772 899L2764 901L2758 914L2691 802L2685 796L2687 795L2683 789L2674 788L2637 782L2654 834V885L2644 870V869L2611 876L2612 878L2644 871L2634 905L2637 906L2644 882L2654 897V917L2650 916L2646 926L2619 924V923H2618L2619 929L2588 938L2577 912L2613 900L2615 911L2616 910L2613 895L2612 889L2585 870L2613 835L2611 872V874L2613 839L2629 846L2620 832L2613 829L2589 802L2566 830L2567 832L2589 805L2613 832L2585 867L2584 866L2577 895L2562 856L2535 867L2497 859L2490 838L2487 837L2489 835L2488 832H2492L2505 821ZM2652 281H2649L2651 283ZM2535 329 2537 333 2546 308 2574 299 2568 292 2546 299ZM2595 346 2574 364 2595 346 2611 304ZM2499 360 2519 371 2516 368 2499 359ZM2552 369 2549 363 2530 378 2536 383 2553 369ZM2475 371 2472 375 2474 379 2477 375ZM2892 506 2894 498H2890V495L2883 490L2891 487V478L2860 490L2859 448L2844 476L2811 449L2798 486L2765 495L2762 493L2746 490L2723 496L2729 487L2726 486L2690 502V473L2720 465L2732 472L2739 470L2753 448L2747 445L2740 428L2779 418L2777 423L2791 415H2881V414L2888 400L2878 399H2889L2890 396L2892 399H2915L2908 400H2892L2897 414H2900L2899 415L2922 416L2935 410V409L2958 428L2942 408H2960L2988 415L3010 418L2995 380L2960 372H2996L3020 396L3015 411L3001 431L3011 454L2987 451L2935 524V497H2922L2917 511L2911 510V511L2909 509ZM2897 377 2913 397 2890 378ZM2936 422 2939 441 2945 438 2935 411 2922 440 2924 441ZM2500 433 2532 444 2529 436 2512 415ZM2769 449 2785 458 2801 422 2774 429 2767 445ZM2561 462V463H2571L2578 444L2571 429L2561 423L2554 443ZM2917 446 2901 470 2916 473 2923 456 2916 452 2921 445V440L2904 434V436L2890 431L2885 433L2884 434L2890 436H2884L2876 449ZM2480 555 2499 552 2505 543 2522 548 2523 541 2516 506 2527 509 2528 501 2515 497 2521 488 2517 484 2522 479 2518 478 2533 464V465L2536 461L2537 458L2534 450L2518 469L2482 476L2461 436L2454 470H2475L2499 494H2492L2495 497L2482 520L2498 521L2484 542L2488 551L2475 553ZM2594 480 2586 484 2585 486V487L2597 481V480ZM2610 512 2604 543 2610 532 2613 512 2614 511 2600 485 2597 506 2600 511ZM2463 495 2466 502 2469 495ZM2592 545 2593 546H2602L2603 544L2591 519L2576 547L2592 546ZM2839 550 2837 535 2824 534 2823 538 2836 558 2840 550ZM2870 633 2868 628 2870 615 2897 571 2861 581 2870 541 2915 540V568ZM2704 555 2705 561 2708 546ZM2545 590 2542 600 2559 571 2538 575 2534 584 2539 590 2532 591 2533 593ZM2583 582 2585 579 2584 577 2581 581ZM2700 586 2712 607 2713 604 2701 582 2684 588V591ZM2506 599 2515 597 2516 595 2510 596ZM2535 661 2528 676H2530L2534 668L2553 631L2537 618L2533 632L2519 602L2505 627L2516 645ZM2642 626 2641 622V623ZM2772 640 2768 639 2753 665 2775 653ZM2805 646 2808 652H2813L2809 643ZM2571 686 2578 671H2576L2571 684ZM2505 679 2511 678 2509 672 2503 673ZM2806 714 2795 756H2797L2806 722L2845 717L2843 710L2806 714L2802 703L2786 706L2771 686L2764 687L2786 718ZM2605 725 2602 721 2588 727 2590 732ZM2700 735 2689 754 2690 757 2700 740 2708 754 2721 756V759L2746 763L2730 784H2732L2748 761L2746 749L2714 745L2704 729ZM2558 732 2565 744H2569L2559 731ZM2526 740 2516 752H2526L2522 746L2541 745V744L2526 733ZM2767 745 2766 746 2752 776 2753 778ZM2526 753 2525 759 2528 756ZM2808 815 2835 806 2843 791 2844 795 2863 799 2877 822 2894 847 2881 843 2858 845 2860 853 2884 851 2897 855 2925 856 2927 859 2943 856 2928 833H2924L2925 840L2900 839L2897 842L2880 818L2866 795L2845 791L2850 783L2834 757H2824V762L2837 782L2847 784L2837 802L2830 789L2827 788L2835 805L2800 817L2821 787V784L2800 813L2768 815V816L2749 801L2719 804L2716 807L2751 804L2753 815L2768 827L2769 829L2800 827L2814 857L2817 850L2822 848L2823 847ZM2709 788 2702 794 2701 805 2709 797 2710 788 2699 761 2691 759 2700 784 2703 782 2702 787ZM2542 780 2531 761 2524 762 2522 770 2526 774 2541 782ZM2608 766 2610 777 2614 762 2608 765ZM2783 772 2753 782 2783 773ZM2912 781 2914 788 2927 789 2923 782ZM2933 800 2931 796 2929 802H2932ZM2425 897V890V886V884L2418 881L2410 862V843L2411 863H2426V854L2430 862H2433V856L2426 843L2425 826V806L2443 816L2467 810L2473 801L2488 836L2454 840L2451 845L2457 852L2488 848L2468 866L2497 871L2478 909L2507 893L2497 870L2527 876L2528 875V877L2535 878L2562 867L2551 902L2552 919L2562 888L2577 927L2588 953H2569L2553 950L2552 932H2491L2498 930L2477 909V910L2460 926L2458 905L2426 907L2425 896ZM2702 809 2708 808V805L2700 806V807ZM2847 811 2846 807 2841 808 2839 812ZM2922 820 2923 827 2924 824 2923 817ZM2836 820 2847 840 2836 820ZM2951 858 2954 864 2962 842 2958 839ZM2433 862H2435L2434 858ZM2447 876 2446 882 2462 867 2459 864ZM2972 868 3001 880ZM2943 872 2933 868 2936 872ZM2862 881 2859 872 2843 896 2852 895ZM3004 882V881L3001 880ZM2613 899 2577 911 2585 880ZM2445 882H2446L2445 881ZM2950 906 2966 907 2960 899ZM2617 917 2618 923H2619L2617 917ZM2940 944H2921L2945 942ZM3600 207 3620 208 3610 211ZM3795 792V812L3828 814L3856 823L3831 789L3828 788L3795 786L3785 788L3784 789V790L3763 808L3783 804ZM3419 244H3426L3435 226L3398 218L3399 235H3410ZM3337 266 3325 264 3345 289 3362 266V258L3337 225L3322 235ZM3386 273 3409 279 3400 245V244V245V246V248L3397 252ZM3490 254H3489L3499 279L3514 262L3513 259ZM3693 282 3706 306 3707 302 3736 268 3749 300 3754 328 3729 334 3715 336V337L3729 335L3754 329V328L3772 368V367L3754 327L3749 299L3736 267L3707 301L3694 278ZM3565 274 3567 273ZM3308 280 3300 288 3315 291 3306 273ZM3515 278 3523 283 3521 277ZM3512 369 3516 392 3507 395 3512 396 3525 392 3521 369 3538 367H3541L3530 335L3531 311H3521L3514 278L3499 279L3480 309L3465 300L3472 334L3507 335L3518 367L3508 368ZM3529 286V285V286ZM3693 303 3706 308V307L3693 303ZM3551 331 3560 356 3571 346 3569 343 3549 316 3582 327 3588 326 3602 306 3561 315 3552 312 3536 311ZM3675 337 3677 330 3666 314 3662 315 3675 334 3648 356 3644 351 3643 358 3646 362 3645 381 3663 386 3665 353 3683 338ZM3390 389 3367 402 3366 404 3393 389 3379 365 3406 336 3430 335 3441 333 3439 331 3411 335 3387 336 3361 364 3379 365 3378 369ZM3577 397 3549 400V401L3581 397L3574 413H3583L3596 384L3613 361L3610 342L3608 344L3591 360L3593 374L3581 369L3579 371L3578 368L3559 360L3561 364L3577 371L3570 382ZM3321 360 3323 366 3325 364 3324 362H3326L3330 357L3328 346L3320 356ZM3557 363 3558 360 3554 362ZM3546 385 3547 391 3552 378 3550 374ZM3845 401 3866 436 3868 435H3870L3883 399V398L3880 399L3868 433L3849 401ZM3428 455 3431 456 3432 455 3434 457 3453 438 3480 431 3485 422 3462 428 3477 405 3493 402 3494 400 3486 402 3468 405H3466L3453 424L3435 403L3433 405L3453 428L3426 455L3404 460V461L3402 466L3403 470L3406 468L3413 469L3421 467L3430 457ZM3509 685 3530 703 3551 721H3563L3586 727L3581 739H3590L3586 730L3607 737L3622 734L3652 700L3649 719L3672 703L3699 692L3736 705L3729 679L3715 674L3688 685L3665 701L3668 682L3675 662L3676 646L3661 617V575L3669 569L3701 579L3709 604L3725 580L3746 546L3748 538L3731 566L3724 558L3705 587L3697 562L3665 552L3657 557V536L3660 522L3659 504L3656 482L3638 452L3620 440L3637 429L3659 418L3664 451H3697L3707 446L3703 461L3706 452L3721 441L3722 440L3677 441L3675 423L3668 410L3650 419L3652 415L3614 414L3639 426L3619 419L3577 417L3572 416L3568 425L3569 426H3568L3535 424L3511 417L3510 420L3505 451L3513 449V461L3520 488L3513 497V519L3517 511V530L3512 529L3505 544L3501 543L3500 548L3478 554L3480 558L3492 555L3484 568L3489 579L3495 569L3511 585L3498 603L3493 604L3484 630H3497L3506 603L3519 643H3510V669L3508 685ZM3490 428 3491 420 3486 422 3499 452 3504 451 3495 427ZM3618 439 3593 427 3635 428ZM3875 460 3880 459 3898 437H3894ZM3470 476 3480 485 3498 466 3495 454 3488 456ZM3421 540 3422 539 3415 529 3430 527 3436 518 3441 526H3445L3444 529L3449 537L3459 515L3473 532L3479 518H3482L3474 508L3493 504L3497 499L3491 494L3457 501L3455 483L3449 481L3453 515L3423 518L3449 480H3448V479L3412 532L3409 542L3426 544L3423 540ZM3659 489 3656 482 3664 507 3673 501 3679 479ZM3839 493 3844 501 3839 493ZM3759 505 3781 510 3779 542ZM3347 522 3344 525 3345 542 3359 541 3358 522 3369 516 3367 510ZM3306 532 3313 547 3315 538 3310 525ZM3454 566 3455 565 3448 549 3443 542H3438L3436 545H3437V552L3452 570L3438 568L3439 570L3461 580L3469 595L3470 593L3480 592L3488 580L3479 576L3468 592L3462 580L3460 577ZM3520 551 3528 592 3515 579V585L3514 578L3512 576L3513 574L3507 544L3515 546V567ZM3268 550 3266 555 3264 575 3265 573ZM3326 600 3371 608 3397 599H3406L3421 574L3419 599H3431L3430 600L3440 602L3439 577L3421 574H3415L3402 599L3387 574L3386 572L3393 552L3391 550L3375 552L3371 561L3387 588L3361 597L3316 589L3311 568L3310 573L3316 600L3306 634L3333 637L3352 664L3360 662L3343 637L3316 634ZM3285 561 3278 567 3296 568ZM3524 648 3511 607 3524 589ZM3691 597 3702 625 3707 624 3703 613 3709 604ZM3418 641 3411 630 3409 634 3418 650 3419 618ZM3417 666 3421 671 3448 675 3463 644 3481 676 3483 675 3477 659 3465 638 3464 640 3457 638 3448 656 3419 651 3428 666 3413 661 3407 672 3411 678ZM3809 663 3813 678 3814 677 3810 662ZM3380 735 3404 726 3402 706 3399 701 3401 696 3400 686V687L3399 686L3380 694L3388 680L3381 675L3376 686ZM3401 686 3405 689 3408 683ZM3413 723 3405 750 3414 752H3417L3413 727L3436 691L3434 689L3412 723L3411 724ZM3752 689 3751 690 3768 722 3780 701 3772 698 3768 701 3764 694ZM3737 705 3746 727 3750 691 3749 692V696L3748 693L3736 705ZM3466 707 3465 713 3468 703 3467 702 3459 706 3462 709ZM3864 705 3859 722 3868 713ZM3523 897 3489 906 3482 884 3466 878 3473 902 3460 907 3464 914 3453 926H3454H3453H3458L3469 914L3490 906L3524 897L3533 882L3547 854L3555 813H3539L3567 792L3569 810H3586L3598 814L3600 805L3593 803L3586 810L3585 800L3569 795L3578 785L3566 789L3585 746L3595 768L3600 763L3618 761L3611 754L3603 751L3600 762L3594 748L3589 746L3579 743L3567 770L3561 753H3538L3550 738L3533 724L3518 722L3486 713L3467 715L3473 721L3462 726L3458 742L3445 735L3437 738V740L3447 746L3460 743L3481 741L3513 750L3553 755L3533 780L3510 799L3474 801L3459 798H3452L3437 823H3408L3432 851L3429 854H3436L3437 850L3441 853L3467 807L3469 815L3479 817L3515 815L3538 796L3539 817L3530 861L3520 881L3532 882ZM3347 787 3357 785 3360 779 3355 777 3359 754 3366 763 3367 761 3363 719 3352 731 3355 761 3344 786 3348 788ZM3783 767 3794 753 3809 756 3813 751 3820 753 3797 723 3765 727 3768 722 3748 731V732L3746 735L3765 747L3754 761L3761 760L3773 775ZM3742 744 3731 764 3747 762ZM3729 764H3731L3703 746L3714 784L3721 782L3728 773L3733 779L3741 777ZM3377 785 3385 814 3389 792 3390 790 3386 776 3397 780 3400 777 3403 773 3401 760 3380 780 3386 787 3373 783 3368 784 3362 800 3368 810ZM3684 802V804V805L3688 811V818L3698 824L3710 852L3725 824H3712L3709 829L3707 824H3698L3685 784H3687L3672 762L3671 765L3684 784L3677 785L3683 803ZM3325 780 3343 786 3327 767ZM3618 847 3614 843 3613 850 3582 842 3583 845 3596 849 3592 859 3593 866 3597 875 3598 874 3596 854 3625 851 3627 849H3632L3637 836L3645 848H3650L3651 840L3658 838L3649 824L3674 788L3675 791L3677 785L3665 787V788H3664H3662V787L3644 780L3637 790L3635 777H3633H3631L3637 809L3609 806L3627 824H3628ZM3277 782ZM3783 789 3784 788H3783ZM3539 811 3538 790H3567ZM3255 849V810L3262 841ZM3366 852 3364 844 3361 843 3366 862 3396 850 3401 838 3386 844 3385 850 3377 848ZM3337 853 3354 841H3353L3336 853ZM3465 869 3463 868 3464 873 3475 857 3474 855ZM3318 871 3312 857 3291 891 3295 902 3298 904ZM3663 866 3667 872 3699 871 3701 868 3700 865ZM3561 868 3562 869 3582 877 3581 876ZM3434 930 3446 928 3425 908 3420 928 3422 930ZM3454 930 3457 927 3454 926 3449 930 3453 932 3455 930ZM3264 842V822L3266 820L3264 813H3288L3286 810H3266L3268 786L3267 784H3268L3269 781L3270 783H3274V771L3275 774L3285 771L3284 767L3301 759L3320 758L3317 755L3303 756L3286 764L3266 771V755L3264 774V755L3266 749V732L3293 727L3264 732V575V505L3265 498L3268 486V477L3269 484L3275 458L3301 503L3327 495L3331 487L3304 495L3278 450L3315 462L3297 427L3305 402L3338 399L3327 369H3324L3335 397L3302 400L3294 425L3312 460L3275 448L3272 451L3262 490L3261 458L3264 455V301L3273 310L3285 299L3281 284L3288 285L3286 283V263L3294 225L3313 217H3428L3436 225L3439 219L3445 244H3463L3468 245H3552L3554 255H3557L3553 247L3550 235H3589L3613 236L3618 237H3619L3648 246L3617 241L3594 245L3593 266L3588 268L3606 305L3603 306L3609 319L3613 318L3614 303L3618 302L3606 279L3607 258L3637 253L3666 257L3662 247H3652L3623 238L3663 243L3681 247H3695L3694 249L3700 251L3702 245L3740 258L3758 266L3793 285L3810 297L3825 309L3840 323V324L3865 355L3876 372L3859 366L3839 371L3840 338V337L3839 369L3823 393L3801 410L3790 398L3768 385V386L3753 370V371L3768 387L3733 389L3696 399L3700 389L3678 381L3688 403L3696 406V407L3733 397L3768 395L3790 408L3801 420L3823 403L3839 379L3859 374L3876 381L3878 386L3881 392H3883L3882 394L3893 418L3897 432H3898L3893 414L3900 433H3898V432L3897 433L3898 436V437V436H3900L3904 450L3905 446L3912 485L3897 472L3896 476H3895L3888 507L3890 506L3896 479L3912 493L3913 513H3907L3914 547L3891 541L3884 578L3853 577L3844 575L3841 582L3837 574L3821 572V573L3808 572L3803 588L3786 570L3780 569V563L3770 554L3779 555V545L3834 531V530L3837 523L3815 528L3790 503L3799 493L3793 478L3785 476L3765 492L3752 472L3747 452H3745L3743 454L3746 468L3759 488L3752 511L3707 519L3697 483L3694 493L3686 471L3682 475L3684 477L3682 478L3689 492L3692 490L3703 528L3713 539L3750 532L3753 523L3773 560L3774 584L3767 612L3742 620L3773 610L3780 582L3810 613L3815 608L3813 599H3817L3823 578L3837 604L3841 605L3846 601L3853 583L3884 584L3891 547L3914 554L3915 575L3914 604V638L3911 683L3908 691L3905 723L3894 761H3895L3887 780L3861 781L3873 748L3894 761L3893 755L3875 745L3873 748L3871 734H3870L3872 750L3858 764L3869 729L3870 733V731V727H3872L3883 705L3887 725L3888 723L3883 698L3903 675L3900 669L3883 689V688L3869 716L3860 742L3828 743L3856 724L3845 722L3831 739L3834 720L3821 753L3858 762L3839 774L3847 784H3860L3886 783L3867 817L3855 834L3827 862L3812 875L3795 851V853L3812 877L3795 889V875L3755 876L3757 865L3755 864H3758L3765 830L3795 839V831L3766 822L3754 834L3748 825L3744 835L3752 833L3746 860L3755 879L3778 888L3741 904L3722 910L3703 916L3664 923L3644 926L3624 928L3601 925L3604 929L3593 928L3595 933L3621 935H3503L3509 926H3488L3484 933L3489 935H3427L3437 944H3402L3404 935H3384L3405 932L3409 918L3415 923L3403 905L3421 904L3438 888L3432 878L3434 869L3425 859L3409 873L3390 874L3386 884L3402 909L3369 914H3355L3354 915L3351 914H3322L3306 928L3293 914H3291L3287 910L3277 908V900L3264 887L3277 890V876L3272 862L3284 844V843L3271 844L3267 828ZM4120 360H4109H4107H4102L4087 359L4053 360L4084 328L4099 327L4093 320L4084 328L4038 343L4037 301L4047 281L4075 272L4068 305L4095 312L4108 309L4094 305L4101 272L4110 274L4103 262L4067 256L4039 265L4029 285L4016 263L3999 230V196L4007 176L4024 179L4046 170L4088 174L4123 179L4150 176L4180 170L4149 200L4162 202L4178 186L4187 206L4196 207L4180 172L4194 171L4197 207V208L4205 200L4204 185L4224 193L4232 229L4222 210L4214 217L4223 247V281L4214 285L4223 316V333L4196 360H4158L4148 359L4121 360ZM4108 235 4117 238 4126 220 4121 210ZM4135 271 4151 284 4165 243 4211 245 4212 219 4210 221V229L4164 227L4150 268L4134 255L4126 276L4132 277ZM3996 247 4013 279 4026 301 4014 326 3996 298ZM3999 304 4017 331 4029 306 4030 348 4076 333 4045 365H4026L4007 357L3999 338ZM4127 314 4115 311 4114 325 4128 314 4136 323V312ZM4124 328 4135 339 4136 327ZM4114 342 4111 339 4110 352 4120 342H4122L4123 328H4114ZM4008 664 4011 630V597L4044 608L4060 604L4059 598L4032 571H4054L4060 560L4046 564L4013 553V483L4010 491L4004 520V461L4012 423L4031 415H4032L4036 404L4056 411L4091 412L4090 415H4091L4087 424L4127 418L4131 415H4210L4215 424L4213 428L4220 452L4225 487L4212 484L4214 492L4213 496L4220 509L4251 518L4258 539V578L4253 570L4238 569L4251 603L4235 638L4233 632V675L4204 668L4203 662V663L4198 662L4199 668L4228 675V694L4210 704L4228 733L4221 759L4212 725L4180 719H4179V722L4198 725L4204 749L4209 733V756L4220 759L4227 779V830L4226 821L4227 850V889L4210 875L4228 908L4220 927L4201 935H4040L4021 927L4013 908V811L4022 809H4021L4011 811V733L4031 725L4024 686L4017 667ZM4183 434 4189 431 4192 427 4190 422 4162 434 4145 453 4126 476 4156 482 4145 508 4129 512 4164 504 4144 534 4137 568 4140 567 4146 538 4166 508 4171 497 4163 482 4176 485 4177 482 4147 476 4166 453ZM4027 448 4025 454 4034 467 4046 455ZM4077 493ZM4095 632 4118 629H4093L4121 597L4088 595L4100 568L4103 545L4107 520L4109 513L4097 493L4088 524L4078 494L4062 511L4061 510L4051 528L4060 536L4078 524L4074 549V550L4078 555L4092 572H4071L4059 598H4062L4065 586L4067 599H4076L4092 600L4068 627L4063 644L4081 633H4095ZM4228 568 4227 570 4228 580 4235 569ZM4170 610 4172 613 4207 598 4213 614 4217 606 4222 603 4216 606 4212 595 4210 598 4199 570H4198L4208 594ZM4174 667 4167 697 4149 719 4168 697 4175 667 4182 658 4166 655 4152 625 4124 629H4123L4137 658L4127 664L4131 673L4137 659L4149 662L4154 659L4153 663ZM3984 636 3992 630 3989 664 3984 656ZM4019 630 4014 634 4039 671 4049 674ZM3999 686 4006 725 3986 733V694L3991 664L3994 673V656L3999 664L3996 679ZM4123 724 4135 760 4123 724V722L4098 720L4099 722ZM4176 788 4183 753H4182L4176 787L4152 746L4148 720L4152 747L4138 777L4161 806L4159 814L4169 824L4188 841L4202 844L4209 873V874L4202 844L4226 816L4202 844L4179 824L4161 806L4138 777L4152 747ZM4080 793 4070 806 4100 809 4099 807 4087 806ZM4159 873 4137 874 4159 873 4172 840 4163 838 4154 859ZM4168 904 4197 866 4167 904ZM4075 868 4063 889 4075 902 4081 892ZM4089 870 4088 878 4093 870ZM4105 913 4108 873 4095 871ZM4152 900 4162 930H4163L4153 900H4152L4136 886ZM4448 687 4421 683 4431 658 4427 643 4394 644 4411 673 4399 702 4383 690 4368 675 4369 671 4349 639 4342 619 4338 599 4361 618 4373 611 4411 623 4414 616 4376 604 4362 613 4363 584 4358 580 4357 581 4350 603 4351 585 4338 594 4353 543 4339 550 4344 530 4364 493 4380 487 4412 500 4404 466 4421 464 4465 467 4463 464 4416 461 4399 463 4407 497 4375 484 4359 490 4388 459 4405 447 4423 436 4442 426 4461 419 4481 412 4502 407 4543 401 4585 399 4564 433 4582 437 4568 451 4555 465 4528 428H4497L4519 463H4520L4503 436H4534L4555 465L4568 451L4585 488L4587 487L4570 451L4584 437L4566 433L4587 399L4607 403L4633 401L4654 404L4657 439L4659 469L4661 471L4662 470L4659 467L4657 437L4654 402L4695 411L4700 421L4716 426L4724 432L4740 435L4716 417L4755 434L4773 444L4791 456L4807 469L4822 484L4844 520L4849 540L4827 567H4728L4706 555L4703 513L4681 497L4687 458L4681 497L4663 472H4662L4681 499L4703 515L4689 544V564H4673L4669 569L4644 550L4631 549L4621 574L4635 576L4661 592L4687 593L4704 600L4742 598L4762 606L4748 616L4765 655L4735 658L4746 680L4774 677L4757 705L4745 682L4734 678L4740 710L4716 717L4674 714L4647 710L4635 685L4614 646L4609 692V691L4603 701L4609 714L4635 707L4639 716H4647L4660 734L4674 736V737L4716 740L4697 773L4696 772L4684 768L4690 778H4660L4647 797L4633 774L4635 773L4631 766L4632 758L4615 756L4613 772L4576 756L4556 751L4534 741L4533 745L4501 738L4466 731L4436 724L4417 715L4399 704L4426 708L4465 709L4466 687ZM4684 436 4687 450H4688L4684 429L4660 466L4667 462ZM4688 450 4687 454ZM4636 463 4652 486H4654L4638 463H4604ZM4512 488 4521 473 4517 470 4507 485 4481 482 4483 485ZM4534 477 4541 484 4549 473H4537ZM4625 493 4602 528 4603 529 4627 493ZM4689 570V569V545H4690L4703 517L4706 557L4728 569H4690ZM4424 590 4421 597 4451 589 4450 565 4464 551 4489 534 4506 564 4508 580V588H4509L4508 570L4506 554L4491 527L4467 544L4453 558L4424 590L4418 560L4416 562L4421 588ZM4540 574 4547 588 4574 593 4584 582ZM4599 613H4612L4624 586H4616L4615 589L4599 602L4572 607L4563 617L4567 620ZM4449 621 4462 655 4484 636 4485 646 4510 620 4542 616 4552 642 4584 648 4569 634 4552 631 4542 605 4510 609 4509 589V590L4510 619L4468 622L4462 625L4461 622ZM4572 934 4574 920H4572V919L4545 894L4568 849L4584 816L4573 799L4631 795L4637 806L4644 797L4671 811L4668 818H4690L4670 784L4697 793L4716 760L4720 790L4749 782L4790 786L4779 824L4790 847L4809 846V850L4816 848L4814 825H4816L4814 821L4809 820L4811 815L4809 811V819L4790 820L4809 783L4790 781L4781 762H4777L4752 769L4748 741L4740 715L4751 717L4761 701V700L4765 693L4770 704L4775 705L4795 728L4826 730L4817 712L4805 711L4787 677L4770 638L4784 628L4821 648L4824 667L4846 710L4856 727L4869 767L4871 768L4870 779L4871 789H4870L4869 790L4865 810L4848 847L4836 863L4832 867L4827 882L4810 895L4775 914L4756 922L4717 933L4697 937L4677 940L4657 942L4617 945L4625 926H4622L4643 882V924L4648 925V878L4676 895L4669 875L4658 871L4661 865L4643 854L4632 837L4624 847L4643 878L4622 922L4611 945L4598 921H4590L4592 925ZM4609 710 4614 664 4635 703ZM4598 691H4608L4599 671L4594 683ZM4569 675 4576 704 4579 695 4574 677 4569 674 4542 703H4543ZM4584 691H4589L4591 685L4587 683ZM4580 720H4578L4571 743L4593 741L4609 714H4595L4593 718L4580 719ZM4760 735ZM4647 768V770L4654 768L4663 754L4660 750L4640 756ZM4361 872 4351 857 4327 847 4345 832 4344 816V815L4328 796V797L4343 816L4329 821V822V821L4328 822V813L4326 802L4327 799L4326 796L4327 797L4332 783L4368 775H4369V776L4378 788L4377 819H4389L4396 860L4412 822L4436 829L4433 810L4418 811L4412 822L4408 811H4402L4403 797L4399 787L4401 785L4393 775H4412L4432 766H4443L4445 763L4446 766H4452L4448 772L4457 800H4455L4472 820L4486 852L4494 862L4508 856L4505 852L4491 820L4474 800L4465 775H4523L4526 799L4541 796L4552 799L4563 816L4547 849L4524 894L4551 919V943L4572 944L4611 945H4591L4566 944H4551L4519 942L4525 943L4485 938L4465 934L4458 921L4461 916L4437 909L4418 902L4417 892L4404 910L4370 888L4372 882ZM4631 795 4613 772 4633 774ZM4852 787 4848 795 4854 808 4859 798 4852 782 4848 781ZM4810 783V788L4811 783ZM4846 826 4851 815 4843 812 4841 816 4846 826ZM4817 825 4833 828 4830 824 4819 822ZM4835 828 4844 830 4846 826 4837 825ZM4731 839 4739 878 4745 865 4741 845ZM4666 856 4667 854 4664 852ZM4679 865 4696 863 4704 855V854L4672 856L4673 863ZM4506 876 4515 864 4513 862 4505 875ZM4579 879 4577 893 4584 890ZM4496 888 4495 883 4476 891 4474 895 4479 915 4503 880 4501 881ZM4408 886 4389 889 4391 894 4417 889V888ZM4751 908 4734 897 4727 911ZM4714 913 4725 912 4724 903ZM5123 900 5134 879 5127 870 5138 872 5139 870 5141 872 5162 876 5156 871 5150 870 5151 867 5132 851 5127 870 5111 900 5110 909 5092 899 5074 887 5045 858 5048 853 5036 836 5020 797 5015 777 5011 757 5041 755 5018 729 5021 721H5008L5005 680V629L4985 589L5010 604H5012L5019 601L5003 581L4998 582L4987 590L4974 569L4971 568L4989 541L4971 568L4957 536L4958 534L4941 515L4909 512L4901 494L4925 485L4939 451L4955 432L4943 433L4937 441L4923 475L4899 483V432L4926 405H4946L4936 424L4944 423L4948 415H4968L4988 423L5018 427L5005 381V345L5042 340L5054 331L5070 374L5103 372L5114 402L5115 403L5114 404L5115 406L5155 400L5154 395L5118 400L5117 402L5116 401H5115L5116 399L5105 367L5145 357L5147 355V356H5149L5148 358V361L5158 364L5159 348L5147 344L5103 355L5089 316L5085 298L5083 301L5089 327L5103 366L5070 368L5054 325L5042 334L5005 339V249H5007L5013 234L5032 226H5066L5071 222L5073 225H5090L5103 247H5105L5090 222H5133L5134 224H5207L5226 232L5205 279L5176 280L5175 311L5147 299L5154 312L5175 321L5176 288L5205 287L5226 240L5234 277V385L5253 415L5244 411L5229 423L5233 429L5249 417L5256 423L5276 424L5282 409L5261 408L5254 402H5362L5382 409L5389 429V498L5368 502L5371 507L5349 502L5328 478L5345 475L5342 470L5315 475L5289 469L5298 433L5268 445L5261 461L5293 448L5284 484L5310 490L5308 519L5311 529H5317L5311 575L5313 572L5318 535L5325 569L5322 572L5339 591H5303L5312 580L5313 575L5306 583H5288L5278 569L5276 575L5286 589H5250L5236 580V603V621L5208 638L5197 658L5196 663L5198 665L5208 647L5236 629V684L5240 725L5238 726L5249 752L5252 748L5259 762L5271 758L5277 747L5296 783L5281 797L5284 798L5297 786L5305 804L5309 805L5296 776L5306 740H5368L5387 748L5395 767L5383 778L5387 785L5396 777V814L5395 813V828L5403 839L5395 842V860L5387 869L5395 898L5387 917L5368 925H5339L5335 935H5278L5254 934L5233 933L5213 931L5192 928L5176 907H5178L5179 888L5178 887L5179 885V882L5181 883L5185 876L5162 872V876H5163L5154 891L5160 899L5153 906L5170 928L5129 917L5133 913L5122 909ZM5114 326H5116L5135 299L5132 300ZM5189 350 5182 348 5159 365H5160L5168 364L5189 350H5208L5206 343H5193L5201 323V322ZM5207 394 5200 367 5197 366 5204 393ZM5096 454 5065 447 5064 448 5096 455 5099 454 5081 429 5103 419 5114 406H5115L5113 405L5102 418L5079 429V430ZM5131 418 5124 444 5125 445 5133 419ZM5150 459H5151L5154 451L5143 420L5135 419ZM5021 427 5030 451 5045 436 5044 421 5028 439 5022 424 5021 427ZM5104 424 5099 454 5104 453 5107 429ZM5186 437 5178 428 5173 427 5171 431 5181 443ZM5171 480 5196 488 5204 459 5244 452V450L5239 442L5206 449L5197 481L5168 471L5163 478L5152 482L5154 486ZM5061 452 5069 497 5070 504 5072 507 5070 493 5062 450V451L5030 453L5029 455ZM5121 506 5124 551 5128 557 5124 508 5120 503H5119L5120 502L5114 497L5123 494L5134 465L5127 452L5120 454L5104 495L5084 512V538V537L5044 545L5070 510L5067 507L5060 506L5040 534L5044 546L5084 538L5085 577L5095 579L5094 540V517L5091 512ZM5324 479 5345 503 5367 508 5375 516 5388 513V529V530L5389 511V530L5397 539L5398 537L5390 573L5370 571L5362 537L5335 561L5328 527L5322 508ZM4907 509 4899 508V491ZM5115 506 5085 512 5105 495ZM5022 550 5023 546 5012 516 4978 506V507L5010 516L5022 550ZM5070 509 5072 507H5070ZM4942 573 4957 537 4971 569 4985 591H4926L4907 583L4899 564V512L4907 513L4939 516L4957 537H4954L4940 570ZM5196 530 5215 512ZM5344 590 5347 588 5336 576 5358 582 5359 581 5325 572 5352 548 5360 580H5361L5381 582L5368 585L5371 586L5354 596L5348 589ZM5199 562 5194 567 5193 604 5197 599ZM5229 567 5227 569 5232 571V568ZM5042 589 5047 591 5042 580 5066 574 5056 572 5035 577 5040 590ZM5084 601H5088L5089 598L5083 601ZM5114 616 5121 627H5122L5115 615ZM5015 693 5028 707 5039 684 5050 692 5056 676 5059 665 5036 648 5040 632 5038 630 5032 634 5036 648ZM5034 654 5047 667 5043 683ZM5178 745 5179 746 5184 741 5182 709 5201 718 5203 716 5199 703 5213 696 5216 689 5217 693 5219 692 5218 690V691V689V688H5219V686L5201 666H5198L5213 683L5191 695V696H5190L5186 697L5187 692L5178 680L5172 677H5170L5188 702L5173 698L5174 717L5181 716L5168 742L5174 741L5167 767L5171 772L5176 753L5174 751L5177 748ZM5138 722 5157 720 5168 697 5158 694 5167 677 5166 678 5161 688 5153 679 5129 683 5117 680 5087 715 5079 678 5061 708 5060 709 5059 712 5042 755H5043L5065 743L5083 713L5091 750L5121 715L5133 718L5153 747H5155ZM5230 731 5232 730 5221 699 5220 701ZM5277 728H5306L5296 764ZM5232 781 5258 777 5253 767 5243 768 5231 781 5214 747H5213L5231 781H5232ZM5240 820 5260 781V780L5239 820V827L5242 823ZM5281 840 5307 853 5333 817 5349 820 5371 816 5361 804 5326 810 5310 807V806L5307 809L5311 817L5303 815L5284 841L5280 839ZM5119 850H5131L5162 839V856L5185 875V840L5163 839L5188 816L5189 812L5166 834L5135 845H5122L5086 839L5053 842L5051 847L5083 844ZM5223 819 5207 840H5229L5234 833ZM5261 839 5247 868 5249 873 5273 884 5261 839V837V838ZM5171 908V900L5170 899L5171 897L5172 882L5178 887L5171 897V900L5176 907ZM5539 879 5573 863 5585 894 5584 897 5604 885 5615 903H5620L5609 932L5585 900L5583 899L5608 934L5614 920L5638 919L5642 905L5619 906L5626 883L5605 885L5597 873L5584 881L5572 850L5538 866L5534 893L5515 917H5496L5469 890V850H5467V734L5472 729V728L5466 733V714L5482 687L5488 727L5510 697L5532 722L5534 721L5544 749L5546 747L5536 723L5560 733L5568 732L5548 693L5578 686L5589 665L5577 630L5572 639L5581 665L5549 674L5535 671L5533 689L5510 663L5487 695L5481 653L5465 680V503L5464 501V502V464L5472 425L5491 417V423L5506 463L5507 462L5491 421V415H5549L5563 431L5538 459H5546L5563 440V431H5567L5553 416H5573L5587 430L5615 415L5598 449L5589 433H5586L5597 451L5581 480H5580L5574 502L5555 487L5546 490L5573 511L5581 480L5585 486L5598 462L5615 428L5629 472L5650 470L5669 441L5665 439L5652 459V435L5651 434V458L5630 460L5616 416L5651 422V426L5652 427V423L5671 430V431L5686 434L5694 453V470L5698 485L5704 484H5700L5710 467L5700 449H5734L5712 434L5748 412L5767 403L5748 417L5760 442L5774 432L5814 420V430L5825 429L5837 410L5859 412L5884 420L5877 414H5907L5901 405L5920 413L5911 420L5908 415L5902 422L5907 429L5915 423V424L5919 418L5936 450L5925 444V454L5924 443L5918 441L5922 460L5927 462V481L5926 490L5920 481L5891 484L5890 486L5894 493L5926 490L5904 511L5897 518L5925 501L5922 511L5937 496L5938 507H5937V541L5925 547V598L5917 618L5898 625H5880H5879H5827V615H5826L5827 628H5808L5805 600L5803 597L5806 625H5787L5755 626L5731 636L5733 631L5729 638L5726 681L5714 693L5699 697V716H5700V754L5699 755V836L5679 849L5664 807H5662L5654 824H5610L5604 802L5599 811L5572 808L5578 828L5582 830L5594 848H5624L5644 837L5676 842L5691 884L5658 876L5654 887L5671 891L5682 912L5659 918L5663 928L5697 919L5698 941L5679 949H5603L5608 935H5571L5572 930H5516L5535 906ZM5633 412H5652L5654 420ZM5628 413 5650 421 5615 415 5587 430 5570 413ZM5908 440 5905 449 5906 451 5921 459 5906 431 5904 435ZM5836 483 5817 446 5812 454 5811 456 5824 481ZM5783 462 5794 482 5795 478 5798 481 5788 463 5765 452 5766 454ZM5742 471V483L5744 485H5742V498H5744L5746 485L5773 492L5756 459L5744 456H5743ZM5867 491 5862 488 5857 496 5875 507 5866 480 5864 483ZM5704 484 5711 498 5712 484ZM5818 499H5828L5817 489L5805 487ZM5675 498 5686 508 5699 506 5689 496ZM5677 589 5656 566 5652 571 5650 564 5646 566 5650 577 5652 572 5677 600 5686 579 5710 613 5739 612H5741H5742L5757 614L5779 568L5781 571L5807 570L5818 542L5854 543L5857 540L5887 552L5872 529L5867 527L5856 498L5855 499H5845L5857 532L5816 531L5805 559L5779 560L5762 569L5757 579L5739 577L5710 578L5693 553L5685 554L5686 557L5680 555L5677 556L5662 561L5659 563L5686 568ZM5909 548 5924 541 5935 509 5919 518ZM5511 512 5505 513 5504 520 5520 517V515ZM5894 519H5895L5892 512L5880 513L5884 520ZM5532 518H5531V519L5532 521ZM5532 605 5521 623 5529 636 5538 638 5567 626 5569 630 5576 628 5575 626 5587 606 5620 598H5611L5620 581L5608 578L5621 553L5618 546L5607 567L5576 572L5570 574L5564 584L5559 578H5558V584L5564 592L5556 595L5554 608L5550 597L5532 605L5516 579L5510 549L5502 568L5474 602L5507 591L5501 606L5502 608L5504 602L5512 583L5515 598ZM5636 589H5645L5648 583H5632ZM5470 607 5484 622 5485 621 5471 605ZM5739 613H5740L5739 612ZM5695 637 5697 647 5719 643 5717 636ZM5647 663 5665 643 5664 640 5648 659ZM5676 672H5671L5663 685L5666 687L5674 672L5687 690V681L5693 684L5702 668L5700 666L5675 671ZM5540 691H5541L5549 674L5570 686L5541 693L5561 732L5536 721L5540 693V692ZM5684 702 5687 695V693L5670 725L5686 720L5687 719V701ZM5619 700 5610 709 5621 735 5629 753 5639 756 5642 754 5633 735ZM5701 716 5713 704V722ZM5515 823 5518 826 5533 821 5530 818H5517L5518 805L5517 804L5516 822L5490 790L5469 794L5482 755L5510 748V746L5509 747L5506 745L5481 752V753V756L5468 795L5489 791ZM5520 775 5522 776 5546 752 5543 751 5518 776 5519 779 5520 778ZM5568 789 5552 755 5548 754 5565 788ZM5610 779H5614L5616 776L5610 777ZM5519 779 5517 804H5518L5520 779ZM5611 790 5621 791 5623 786 5614 783ZM5735 911 5734 889 5743 854V892ZM5699 884 5719 871 5710 905ZM5742 508 5723 485 5715 484 5733 507ZM6133 824 6136 839H6137L6135 833L6140 835L6141 834L6132 802L6124 815L6128 834L6115 831L6127 834L6112 848H6113L6110 849L6112 877L6100 872L6091 897L6074 887L6067 882L6063 889L6064 895L6073 903L6061 894V895L6060 894L6057 891L6027 864L6024 859L6056 855V854L6021 859L6023 864L6010 848L5990 814L5982 795L5985 777L5980 761L5976 741L5974 721L5972 680L5979 645H5996V644H5983L5959 645L5958 637L5952 667L5954 635L5958 633V628L5959 607L5975 596L5972 627L5985 624V622L5980 623L5983 592L5986 562H5987L6003 529L6004 526L6015 509L6027 500L6017 529L5995 561L5994 562H6049L6028 595L6027 605L6047 621L6076 623V618L6059 617L6032 595L6053 562L6093 564L6096 562H6090L6094 555L6087 540L6073 562H6010L6033 529L6040 531L6039 530L6034 529L6036 522L6027 500L6044 497L6047 492L6077 464L6094 451L6112 441L6150 424L6162 428L6161 432L6169 434V433L6182 430L6144 416L6131 412L6151 406L6171 401L6184 430L6189 429L6210 426H6259L6276 425L6296 429L6306 418H6331L6369 430L6387 437L6365 468L6355 497L6356 502L6343 529L6344 531L6358 502L6372 463L6394 433L6412 442L6429 452L6445 464L6474 492L6494 525L6495 524L6487 507L6496 523L6497 522L6506 532L6504 535L6508 541L6503 536L6501 538L6505 546L6508 541L6517 560L6529 598L6520 583L6534 617L6537 637L6517 643L6509 644V647L6507 644L6486 647L6497 635L6494 632L6482 647L6469 618H6471L6470 617L6458 612V595L6455 590H6456L6454 584L6455 602L6409 608L6408 584L6403 583L6404 605L6373 606L6347 600L6352 613L6350 614L6377 619L6408 618L6454 612L6456 621L6470 626L6483 655L6477 686L6471 698L6481 678L6487 647L6513 673L6518 643L6537 674L6540 707L6523 711L6532 726L6513 734H6454L6427 729L6422 737L6390 742H6370L6326 736L6290 740L6284 729L6271 730L6275 701L6276 702L6290 687H6275L6271 686V689H6251L6246 688L6258 714L6228 702L6237 688L6229 687L6228 688L6226 687H6214L6216 683L6215 682L6204 684V677L6196 673L6203 672V669H6196V642L6174 649L6186 609H6178L6168 642V678L6153 690L6127 694L6109 699L6123 660L6130 644L6112 608L6122 592L6117 593L6104 615L6090 600L6089 609L6098 619L6116 655L6109 671L6095 710L6082 735H6091L6106 706L6108 705L6107 704L6122 701H6124L6133 700L6169 718L6194 735L6192 763L6211 798L6224 819L6221 830L6239 832L6251 792L6272 824L6262 856L6277 898L6280 920L6264 914L6259 921L6235 920L6214 919L6194 916L6174 913V902L6169 900L6168 902L6167 918L6125 904L6122 863L6142 872L6140 860V863L6134 861L6119 862L6124 856L6120 854ZM6485 470 6497 495 6472 455ZM6344 553 6328 558 6331 562 6357 554 6392 556 6409 560 6410 546 6411 548 6426 520 6414 494H6411L6424 520L6406 554L6385 549L6359 547L6356 554L6352 547H6350L6351 545L6344 532L6343 531L6342 532L6341 531L6322 524L6324 504L6321 500L6342 463L6341 461L6316 505V500L6287 493L6313 469L6310 467L6281 492L6311 499L6309 523L6332 531ZM6284 465 6310 466ZM6180 470 6151 472V473L6180 471ZM6081 493 6060 497 6050 517 6058 535 6061 534ZM6142 516 6121 545 6128 561 6130 556 6159 516 6130 503 6100 496 6102 500 6113 503ZM6219 496 6188 500V501L6217 497ZM6443 503 6436 516 6455 515 6451 511H6440L6444 504ZM6448 555 6450 564 6466 525 6461 521ZM6205 526 6215 529 6216 528 6206 524ZM6097 530 6098 550 6100 547 6099 532 6098 530 6097 527 6095 528 6094 529ZM6201 607H6203L6192 580L6216 587H6219L6215 608L6232 609L6226 596L6255 593L6250 609H6252L6269 624L6272 618L6270 616H6273L6288 586L6307 590L6288 552L6277 545L6278 543H6261L6262 545L6242 546L6229 532L6222 530L6224 532H6225H6224L6231 539L6212 580L6189 573L6186 583L6197 610H6187L6197 633L6204 630L6208 615ZM6057 535 6043 531V532ZM6280 533 6260 539V540L6280 534ZM6481 546 6495 548 6499 539 6491 538ZM6104 563 6091 592 6118 585 6127 564ZM6312 564V563L6309 564L6315 568L6316 565ZM6512 613H6509L6506 618L6511 617L6514 613L6517 579L6516 578L6511 566L6493 571L6487 586H6486ZM6428 581 6425 575 6412 571V575ZM6341 596 6335 620 6339 617 6343 600 6339 588 6329 576 6315 575 6310 592ZM6513 613 6487 586 6516 578ZM6153 583 6151 584 6155 585 6154 582ZM6302 621 6308 591 6307 590 6303 612 6301 621 6297 622 6287 637H6294L6304 621ZM6208 607 6207 605 6206 607ZM6229 633 6235 616 6234 613 6227 631ZM6018 617V615L5988 621V623ZM6275 625 6284 637H6287L6276 624L6270 625H6271H6270H6268L6269 624L6247 616L6246 620L6269 629ZM6288 646 6289 645H6288L6284 650L6287 651L6303 655L6334 626L6346 657V655L6333 623L6304 650ZM6350 685 6320 688 6299 687 6302 694 6316 695 6320 691 6350 688 6383 680 6409 658 6425 688 6428 653 6463 645 6460 637 6427 645 6424 680 6408 650 6382 672 6349 680ZM6243 660 6248 662 6252 652 6247 641 6235 642ZM6290 644 6291 642 6290 644ZM6164 685 6181 684 6182 683 6183 684H6192L6224 699L6210 732L6185 715L6174 698L6167 695L6170 693ZM6276 703 6281 712 6301 707 6297 697ZM6026 712 6017 721 6021 725 6028 718ZM6002 731 6019 763 6031 766 6029 762 6024 760 6008 732 6007 731V732V731ZM6038 749 6043 764 6047 763 6056 744 6049 739H6043ZM6273 772 6279 761 6275 756 6308 742 6296 776 6300 781ZM6123 768 6136 744 6123 768 6095 767 6098 770 6106 771 6149 769 6148 767ZM6031 766 6039 764 6032 762ZM6290 779 6299 795H6300L6308 771L6339 775L6384 771H6403L6430 778L6435 783L6455 781L6480 776L6482 770L6523 792L6519 794L6505 833L6493 850L6479 866L6465 880L6468 879L6433 903L6415 913L6406 898L6376 908L6356 912L6335 916L6293 920L6290 897L6275 855L6285 823L6284 822L6281 827L6267 800L6262 799L6249 778ZM6010 830 6016 828 6023 803 6018 800ZM6088 823 6110 829ZM6433 828H6432L6431 831L6434 829ZM6183 866 6176 882 6181 877 6185 866ZM6169 900 6174 902V886L6173 888ZM6099 913 6081 904 6096 911ZM6707 687 6680 683 6690 658 6686 643 6653 644 6670 673 6658 702 6642 690 6627 675 6628 671 6608 639 6601 619 6597 599 6620 618 6632 611 6670 623 6673 616 6635 604 6621 613 6622 584 6617 580 6616 581 6609 603 6610 585 6597 594 6612 543 6598 550 6603 530 6623 493 6639 487 6671 500 6663 466 6680 464 6724 467 6722 464 6675 461 6658 463 6666 497 6634 484 6618 490 6647 459 6664 447 6682 436 6701 426 6720 419 6740 412 6761 407 6802 401 6844 399 6823 433 6841 437 6827 451 6814 465 6787 428H6756L6778 463H6779L6762 436H6793L6814 465L6827 451L6844 488L6846 487L6829 451L6843 437L6825 433L6846 399L6866 403L6892 401L6913 404L6916 439L6918 469L6920 471L6921 470L6918 467L6916 437L6913 402L6954 411L6959 421L6975 426L6983 432L6999 435L6975 417L7014 434L7032 444L7050 456L7066 469L7081 484L7103 520L7108 540L7086 567H6987L6965 555L6962 513L6940 497L6946 458L6940 497L6922 472H6921L6940 499L6962 515L6948 544V564H6932L6928 569L6903 550L6890 549L6880 574L6894 576L6920 592L6946 593L6963 600L7001 598L7021 606L7007 616L7024 655L6994 658L7005 680L7033 677L7016 705L7004 682L6993 678L6999 710L6975 717L6933 714L6906 710L6894 685L6873 646L6868 692V691L6862 701L6868 714L6894 707L6898 716H6906L6919 734L6933 736V737L6975 740L6956 773L6955 772L6943 768L6949 778H6919L6906 797L6892 774L6894 773L6890 766L6891 758L6874 756L6872 772L6835 756L6815 751L6793 741L6792 745L6760 738L6725 731L6695 724L6676 715L6658 704L6685 708L6724 709L6725 687ZM6943 436 6946 450H6947L6943 429L6919 466L6926 462ZM6947 450 6946 454ZM6895 463 6911 486H6913L6897 463H6863ZM6771 488 6780 473 6776 470 6766 485 6740 482 6742 485ZM6793 477 6800 484 6808 473H6796ZM6884 493 6861 528 6862 529 6886 493ZM6948 570V569V545H6949L6962 517L6965 557L6987 569H6949ZM6683 590 6680 597 6710 589 6709 565 6723 551 6748 534 6765 564 6767 580V588H6768L6767 570L6765 554L6750 527L6726 544L6712 558L6683 590L6677 560L6675 562L6680 588ZM6799 574 6806 588 6833 593 6843 582ZM6858 613H6871L6883 586H6875L6874 589L6858 602L6831 607L6822 617L6826 620ZM6708 621 6721 655 6743 636 6744 646 6769 620 6801 616 6811 642 6843 648 6828 634 6811 631 6801 605 6769 609 6768 589V590L6769 619L6727 622L6721 625L6720 622ZM6831 934 6833 920H6831V919L6804 894L6827 849L6843 816L6832 799L6890 795L6896 806L6903 797L6930 811L6927 818H6949L6929 784L6956 793L6975 760L6979 790L7008 782L7049 786L7038 824L7049 847L7068 846V850L7075 848L7073 825H7075L7073 821L7068 820L7070 815L7068 811V819L7049 820L7068 783L7049 781L7040 762H7036L7011 769L7007 741L6999 715L7010 717L7020 701V700L7024 693L7029 704L7034 705L7054 728L7085 730L7076 712L7064 711L7046 677L7029 638L7043 628L7080 648L7083 667L7105 710L7115 727L7128 767L7130 768L7129 779L7130 789H7129L7128 790L7124 810L7107 847L7095 863L7091 867L7086 882L7069 895L7034 914L7015 922L6976 933L6956 937L6936 940L6916 942L6876 945L6884 926H6881L6902 882V924L6907 925V878L6935 895L6928 875L6917 871L6920 865L6902 854L6891 837L6883 847L6902 878L6881 922L6870 945L6857 921H6849L6851 925ZM6868 710 6873 664 6894 703ZM6857 691H6867L6858 671L6853 683ZM6828 675 6835 704 6838 695 6833 677 6828 674 6801 703H6802ZM6843 691H6848L6850 685L6846 683ZM6839 720H6837L6830 743L6852 741L6868 714H6854L6852 718L6839 719ZM7019 735ZM6906 768V770L6913 768L6922 754L6919 750L6899 756ZM6620 872 6610 857 6586 847 6604 832 6603 816V815L6587 796V797L6602 816L6588 821V822V821L6587 822V813L6585 802L6586 799L6585 796L6586 797L6591 783L6627 775H6628V776L6637 788L6636 819H6648L6655 860L6671 822L6695 829L6692 810L6677 811L6671 822L6667 811H6661L6662 797L6658 787L6660 785L6652 775H6671L6691 766H6702L6704 763L6705 766H6711L6707 772L6716 800H6714L6731 820L6745 852L6753 862L6767 856L6764 852L6750 820L6733 800L6724 775H6782L6785 799L6800 796L6811 799L6822 816L6806 849L6783 894L6810 919V943L6831 944L6870 945H6850L6825 944H6810L6778 942L6784 943L6744 938L6724 934L6717 921L6720 916L6696 909L6677 902L6676 892L6663 910L6629 888L6631 882ZM6890 795 6872 772 6892 774ZM7111 787 7107 795 7113 808 7118 798 7111 782 7107 781ZM7069 783V788L7070 783ZM7105 826 7110 815 7102 812 7100 816 7105 826ZM7076 825 7092 828 7089 824 7078 822ZM7094 828 7103 830 7105 826 7096 825ZM6990 839 6998 878 7004 865 7000 845ZM6925 856 6926 854 6923 852ZM6938 865 6955 863 6963 855V854L6931 856L6932 863ZM6765 876 6774 864 6772 862 6764 875ZM6838 879 6836 893 6843 890ZM6755 888 6754 883 6735 891 6733 895 6738 915 6762 880 6760 881ZM6667 886 6648 889 6650 894 6676 889V888ZM7010 908 6993 897 6986 911ZM6973 913 6984 912 6983 903ZM7297 687 7270 683 7280 658 7276 643 7243 644 7260 673 7248 702 7232 690 7217 675 7218 671 7198 639 7191 619 7187 599 7210 618 7222 611 7260 623 7263 616 7225 604 7211 613 7212 584 7207 580 7206 581 7199 603 7200 585 7187 594 7202 543 7188 550 7193 530 7213 493 7229 487 7261 500 7253 466 7270 464 7314 467 7312 464 7265 461 7248 463 7256 497 7224 484 7208 490 7237 459 7254 447 7272 436 7291 426 7310 419 7330 412 7351 407 7392 401 7434 399 7413 433 7431 437 7417 451 7404 465 7377 428H7346L7368 463H7369L7352 436H7383L7404 465L7417 451L7434 488L7436 487L7419 451L7433 437L7415 433L7436 399L7456 403L7482 401L7503 404L7506 439L7508 469L7510 471L7511 470L7508 467L7506 437L7503 402L7544 411L7549 421L7565 426L7573 432L7589 435L7565 417L7604 434L7622 444L7640 456L7656 469L7671 484L7693 520L7698 540L7676 567H7577L7555 555L7552 513L7530 497L7536 458L7530 497L7512 472H7511L7530 499L7552 515L7538 544V564H7522L7518 569L7493 550L7480 549L7470 574L7484 576L7510 592L7536 593L7553 600L7591 598L7611 606L7597 616L7614 655L7584 658L7595 680L7623 677L7606 705L7594 682L7583 678L7589 710L7565 717L7523 714L7496 710L7484 685L7463 646L7458 692V691L7452 701L7458 714L7484 707L7488 716H7496L7509 734L7523 736V737L7565 740L7546 773L7545 772L7533 768L7539 778H7509L7496 797L7482 774L7484 773L7480 766L7481 758L7464 756L7462 772L7425 756L7405 751L7383 741L7382 745L7350 738L7315 731L7285 724L7266 715L7248 704L7275 708L7314 709L7315 687ZM7533 436 7536 450H7537L7533 429L7509 466L7516 462ZM7537 450 7536 454ZM7485 463 7501 486H7503L7487 463H7453ZM7361 488 7370 473 7366 470 7356 485 7330 482 7332 485ZM7383 477 7390 484 7398 473H7386ZM7474 493 7451 528 7452 529 7476 493ZM7538 570V569V545H7539L7552 517L7555 557L7577 569H7539ZM7273 590 7270 597 7300 589 7299 565 7313 551 7338 534 7355 564 7357 580V588H7358L7357 570L7355 554L7340 527L7316 544L7302 558L7273 590L7267 560L7265 562L7270 588ZM7389 574 7396 588 7423 593 7433 582ZM7448 613H7461L7473 586H7465L7464 589L7448 602L7421 607L7412 617L7416 620ZM7298 621 7311 655 7333 636 7334 646 7359 620 7391 616 7401 642 7433 648 7418 634 7401 631 7391 605 7359 609 7358 589V590L7359 619L7317 622L7311 625L7310 622ZM7421 934 7423 920H7421V919L7394 894L7417 849L7433 816L7422 799L7480 795L7486 806L7493 797L7520 811L7517 818H7539L7519 784L7546 793L7565 760L7569 790L7598 782L7639 786L7628 824L7639 847L7658 846V850L7665 848L7663 825H7665L7663 821L7658 820L7660 815L7658 811V819L7639 820L7658 783L7639 781L7630 762H7626L7601 769L7597 741L7589 715L7600 717L7610 701V700L7614 693L7619 704L7624 705L7644 728L7675 730L7666 712L7654 711L7636 677L7619 638L7633 628L7670 648L7673 667L7695 710L7705 727L7718 767L7720 768L7719 779L7720 789H7719L7718 790L7714 810L7697 847L7685 863L7681 867L7676 882L7659 895L7624 914L7605 922L7566 933L7546 937L7526 940L7506 942L7466 945L7474 926H7471L7492 882V924L7497 925V878L7525 895L7518 875L7507 871L7510 865L7492 854L7481 837L7473 847L7492 878L7471 922L7460 945L7447 921H7439L7441 925ZM7458 710 7463 664 7484 703ZM7447 691H7457L7448 671L7443 683ZM7418 675 7425 704 7428 695 7423 677 7418 674 7391 703H7392ZM7433 691H7438L7440 685L7436 683ZM7429 720H7427L7420 743L7442 741L7458 714H7444L7442 718L7429 719ZM7609 735ZM7496 768V770L7503 768L7512 754L7509 750L7489 756ZM7210 872 7200 857 7176 847 7194 832 7193 816V815L7177 796V797L7192 816L7178 821V822V821L7177 822V813L7175 802L7176 799L7175 796L7176 797L7181 783L7217 775H7218V776L7227 788L7226 819H7238L7245 860L7261 822L7285 829L7282 810L7267 811L7261 822L7257 811H7251L7252 797L7248 787L7250 785L7242 775H7261L7281 766H7292L7294 763L7295 766H7301L7297 772L7306 800H7304L7321 820L7335 852L7343 862L7357 856L7354 852L7340 820L7323 800L7314 775H7372L7375 799L7390 796L7401 799L7412 816L7396 849L7373 894L7400 919V943L7421 944L7460 945H7440L7415 944H7400L7368 942L7374 943L7334 938L7314 934L7307 921L7310 916L7286 909L7267 902L7266 892L7253 910L7219 888L7221 882ZM7480 795 7462 772 7482 774ZM7701 787 7697 795 7703 808 7708 798 7701 782 7697 781ZM7659 783V788L7660 783ZM7695 826 7700 815 7692 812 7690 816 7695 826ZM7666 825 7682 828 7679 824 7668 822ZM7684 828 7693 830 7695 826 7686 825ZM7580 839 7588 878 7594 865 7590 845ZM7515 856 7516 854 7513 852ZM7528 865 7545 863 7553 855V854L7521 856L7522 863ZM7355 876 7364 864 7362 862 7354 875ZM7428 879 7426 893 7433 890ZM7345 888 7344 883 7325 891 7323 895 7328 915 7352 880 7350 881ZM7257 886 7238 889 7240 894 7266 889V888ZM7600 908 7583 897 7576 911ZM7563 913 7574 912 7573 903ZM7936 824 7939 839H7940L7938 833L7943 835L7944 834L7935 802L7927 815L7931 834L7918 831L7930 834L7915 848H7916L7913 849L7915 877L7903 872L7894 897L7877 887L7870 882L7866 889L7867 895L7876 903L7864 894V895L7863 894L7860 891L7830 864L7827 859L7859 855V854L7824 859L7826 864L7813 848L7793 814L7785 795L7788 777L7783 761L7779 741L7777 721L7775 680L7782 645H7799V644H7786L7762 645L7761 637L7755 667L7757 635L7761 633V628L7762 607L7778 596L7775 627L7788 624V622L7783 623L7786 592L7789 562H7790L7806 529L7807 526L7818 509L7830 500L7820 529L7798 561L7797 562H7852L7831 595L7830 605L7850 621L7879 623V618L7862 617L7835 595L7856 562L7896 564L7899 562H7893L7897 555L7890 540L7876 562H7813L7836 529L7843 531L7842 530L7837 529L7839 522L7830 500L7847 497L7850 492L7880 464L7897 451L7915 441L7953 424L7965 428L7964 432L7972 434V433L7985 430L7947 416L7934 412L7954 406L7974 401L7987 430L7992 429L8013 426H8062L8079 425L8099 429L8109 418H8134L8172 430L8190 437L8168 468L8158 497L8159 502L8146 529L8147 531L8161 502L8175 463L8197 433L8215 442L8232 452L8248 464L8277 492L8297 525L8298 524L8290 507L8299 523L8300 522L8309 532L8307 535L8311 541L8306 536L8304 538L8308 546L8311 541L8320 560L8332 598L8323 583L8337 617L8340 637L8320 643L8312 644V647L8310 644L8289 647L8300 635L8297 632L8285 647L8272 618H8274L8273 617L8261 612V595L8258 590H8259L8257 584L8258 602L8212 608L8211 584L8206 583L8207 605L8176 606L8150 600L8155 613L8153 614L8180 619L8211 618L8257 612L8259 621L8273 626L8286 655L8280 686L8274 698L8284 678L8290 647L8316 673L8321 643L8340 674L8343 707L8326 711L8335 726L8316 734H8257L8230 729L8225 737L8193 742H8173L8129 736L8093 740L8087 729L8074 730L8078 701L8079 702L8093 687H8078L8074 686V689H8054L8049 688L8061 714L8031 702L8040 688L8032 687L8031 688L8029 687H8017L8019 683L8018 682L8007 684V677L7999 673L8006 672V669H7999V642L7977 649L7989 609H7981L7971 642V678L7956 690L7930 694L7912 699L7926 660L7933 644L7915 608L7925 592L7920 593L7907 615L7893 600L7892 609L7901 619L7919 655L7912 671L7898 710L7885 735H7894L7909 706L7911 705L7910 704L7925 701H7927L7936 700L7972 718L7997 735L7995 763L8014 798L8027 819L8024 830L8042 832L8054 792L8075 824L8065 856L8080 898L8083 920L8067 914L8062 921L8038 920L8017 919L7997 916L7977 913V902L7972 900L7971 902L7970 918L7928 904L7925 863L7945 872L7943 860V863L7937 861L7922 862L7927 856L7923 854ZM8288 470 8300 495 8275 455ZM8147 553 8131 558 8134 562 8160 554 8195 556 8212 560 8213 546 8214 548 8229 520 8217 494H8214L8227 520L8209 554L8188 549L8162 547L8159 554L8155 547H8153L8154 545L8147 532L8146 531L8145 532L8144 531L8125 524L8127 504L8124 500L8145 463L8144 461L8119 505V500L8090 493L8116 469L8113 467L8084 492L8114 499L8112 523L8135 531ZM8087 465 8113 466ZM7983 470 7954 472V473L7983 471ZM7884 493 7863 497 7853 517 7861 535 7864 534ZM7945 516 7924 545 7931 561 7933 556 7962 516 7933 503 7903 496 7905 500 7916 503ZM8022 496 7991 500V501L8020 497ZM8246 503 8239 516 8258 515 8254 511H8243L8247 504ZM8251 555 8253 564 8269 525 8264 521ZM8008 526 8018 529 8019 528 8009 524ZM7900 530 7901 550 7903 547 7902 532 7901 530 7900 527 7898 528 7897 529ZM8004 607H8006L7995 580L8019 587H8022L8018 608L8035 609L8029 596L8058 593L8053 609H8055L8072 624L8075 618L8073 616H8076L8091 586L8110 590L8091 552L8080 545L8081 543H8064L8065 545L8045 546L8032 532L8025 530L8027 532H8028H8027L8034 539L8015 580L7992 573L7989 583L8000 610H7990L8000 633L8007 630L8011 615ZM7860 535 7846 531V532ZM8083 533 8063 539V540L8083 534ZM8284 546 8298 548 8302 539 8294 538ZM7907 563 7894 592 7921 585 7930 564ZM8115 564V563L8112 564L8118 568L8119 565ZM8315 613H8312L8309 618L8314 617L8317 613L8320 579L8319 578L8314 566L8296 571L8290 586H8289ZM8231 581 8228 575 8215 571V575ZM8144 596 8138 620 8142 617 8146 600 8142 588 8132 576 8118 575 8113 592ZM8316 613 8290 586 8319 578ZM7956 583 7954 584 7958 585 7957 582ZM8105 621 8111 591 8110 590 8106 612 8104 621 8100 622 8090 637H8097L8107 621ZM8011 607 8010 605 8009 607ZM8032 633 8038 616 8037 613 8030 631ZM7821 617V615L7791 621V623ZM8078 625 8087 637H8090L8079 624L8073 625H8074H8073H8071L8072 624L8050 616L8049 620L8072 629ZM8091 646 8092 645H8091L8087 650L8090 651L8106 655L8137 626L8149 657V655L8136 623L8107 650ZM8153 685 8123 688 8102 687 8105 694 8119 695 8123 691 8153 688 8186 680 8212 658 8228 688 8231 653 8266 645 8263 637 8230 645 8227 680 8211 650 8185 672 8152 680ZM8046 660 8051 662 8055 652 8050 641 8038 642ZM8093 644 8094 642 8093 644ZM7967 685 7984 684 7985 683 7986 684H7995L8027 699L8013 732L7988 715L7977 698L7970 695L7973 693ZM8079 703 8084 712 8104 707 8100 697ZM7829 712 7820 721 7824 725 7831 718ZM7805 731 7822 763 7834 766 7832 762 7827 760 7811 732 7810 731V732V731ZM7841 749 7846 764 7850 763 7859 744 7852 739H7846ZM8076 772 8082 761 8078 756 8111 742 8099 776 8103 781ZM7926 768 7939 744 7926 768 7898 767 7901 770 7909 771 7952 769 7951 767ZM7834 766 7842 764 7835 762ZM8093 779 8102 795H8103L8111 771L8142 775L8187 771H8206L8233 778L8238 783L8258 781L8283 776L8285 770L8326 792L8322 794L8308 833L8296 850L8282 866L8268 880L8271 879L8236 903L8218 913L8209 898L8179 908L8159 912L8138 916L8096 920L8093 897L8078 855L8088 823L8087 822L8084 827L8070 800L8065 799L8052 778ZM7813 830 7819 828 7826 803 7821 800ZM7891 823 7913 829ZM8236 828H8235L8234 831L8237 829ZM7986 866 7979 882 7984 877 7988 866ZM7972 900 7977 902V886L7976 888ZM7902 913 7884 904 7899 911ZM8768 194H8805L8820 219L8775 232ZM8585 953 8608 935 8609 925 8584 944 8564 942 8532 934 8524 943 8505 935 8485 923 8510 935 8507 920 8485 909 8505 922 8487 911 8471 899 8442 869 8431 852 8422 833 8408 794V789L8401 755L8412 769V770H8438L8452 794H8454L8469 771L8489 787L8477 826L8493 828L8501 825L8489 789L8512 799V798L8491 789L8496 762L8541 773L8529 756L8496 748L8491 775L8471 759L8456 782L8441 755L8433 734H8426L8439 765H8410L8400 751L8397 731H8398L8397 713L8409 708L8430 711L8425 697L8411 695L8399 700L8398 647L8418 630L8407 626L8386 643L8389 593L8391 573H8401L8409 535L8424 497L8434 479L8446 462V470L8472 443L8469 444L8473 441L8475 433L8481 428L8502 425L8535 412L8555 408L8557 423H8569L8567 412L8589 418L8608 409L8626 414L8609 440L8621 450L8623 454L8637 451L8641 468L8646 472L8640 441L8637 448L8635 442L8625 444L8631 434L8626 420L8641 419L8647 410L8654 429L8663 409L8683 413L8702 430L8732 431V312L8739 346L8744 358L8764 354L8785 355L8793 374L8797 377L8811 375L8796 342H8835L8848 324H8831L8807 312L8826 325L8812 342L8806 311L8802 309H8793L8799 338L8790 337L8791 339L8769 344L8774 323L8764 341L8750 309H8755L8752 294L8761 292L8750 291L8735 294V234L8743 215L8754 242L8762 207L8767 236H8768L8767 238L8769 245L8813 232L8808 225H8864L8902 231L8917 255L8933 252L8926 238L8914 241L8899 217L8916 211L8924 226L8952 233H8975L8983 252V288L8987 293L8983 295V312L8980 324V351L8973 354L8976 355L8986 371L8978 376V451L8977 461H8992L8993 491V590L8989 582L8993 610L8980 611V643L8973 641L8940 647L8946 638L8943 637H8931L8932 640L8927 637L8913 636L8897 634L8891 660L8860 667L8867 692L8899 685L8901 695L8907 669L8940 686L8958 679L8942 685V656L8975 650L8982 691L8979 709L8977 693L8979 716L8980 708V716L8982 715L8980 719V728V733L8973 735L8965 750L8969 756L8978 757L8980 752V757L8996 759L8980 764V832L8979 833L8964 850L8955 854L8944 886L8954 887L8964 857L8980 899L8973 898V908L8965 927L8946 935H8857L8859 938H8783L8813 912L8838 910L8836 907L8827 884L8802 906V892L8821 865L8798 854V829L8802 817L8800 814L8787 815L8779 840V865L8724 860L8722 863L8730 878L8729 879L8730 877L8767 881L8779 867L8802 878L8783 905V919L8772 908H8771L8740 913L8711 906L8715 900L8706 895V893L8698 906L8686 882L8682 895L8678 896L8674 915L8688 923L8649 933L8641 934L8648 941L8608 945V954ZM8863 275H8864L8854 252H8852ZM8949 288 8944 301 8956 306 8959 300ZM8779 311V312L8784 324L8792 309H8781L8788 300L8779 293L8767 292L8763 310L8776 311L8777 307L8779 311ZM8936 393 8948 395 8956 385 8958 384 8942 382 8951 348 8945 337 8941 347 8931 325 8908 326 8919 314 8912 311 8899 293 8860 297 8855 318 8864 329 8867 315 8910 311 8885 340V352L8902 377L8909 363L8893 340L8924 338L8917 354ZM8964 306 8963 305 8968 331 8969 333ZM8970 342 8967 341 8965 351 8971 353 8972 348 8969 334V335ZM8850 348H8866L8863 344L8838 347L8813 375L8827 373ZM8870 352 8854 373 8883 370V367ZM8973 354ZM8794 521 8773 562 8784 583 8786 576 8777 559 8805 557 8807 553 8822 525 8801 518 8762 517 8775 490 8805 486 8829 473 8847 496 8832 520 8842 523 8858 496 8840 473 8810 458 8830 433 8833 406 8845 379 8824 382 8813 406 8810 433 8790 458 8820 473 8796 486 8766 490 8756 510 8760 517 8756 520ZM8599 405 8580 414 8558 408 8578 406ZM8658 409 8634 410 8616 405 8638 406ZM8736 429 8733 431H8735ZM8534 460 8536 430H8525L8524 439ZM8661 491 8659 493 8661 496 8677 505 8657 472 8683 441 8655 438 8652 439 8672 441 8646 472 8658 492ZM8501 459 8486 483H8490L8495 475L8500 482L8510 481L8501 468L8512 446L8510 442ZM8596 462 8601 446H8600L8595 461ZM8730 449 8728 457 8731 449ZM8993 451V471L8992 461ZM8732 475 8750 472 8751 471 8724 475 8738 488 8741 484ZM8552 480 8519 488 8525 502 8541 498ZM8640 527 8653 526V499L8640 511V526L8612 508L8638 484L8608 495L8596 511L8608 495L8612 509L8627 530L8633 534L8632 538L8636 543ZM8641 491 8639 487V499L8649 495ZM8730 493 8738 491 8737 489 8730 491ZM8902 516 8910 528 8919 533 8916 536 8923 546 8897 551 8888 563 8890 568 8902 573 8905 572 8924 546 8935 534 8903 516 8911 490H8909L8901 516L8895 519H8896ZM8701 493 8700 516 8708 506ZM8436 507 8443 526 8462 528 8473 511ZM8479 530 8462 565H8466L8479 539L8500 522L8523 520L8519 511L8500 513ZM8730 536 8735 533 8700 519V524ZM8868 532 8877 546H8879L8869 532L8892 521ZM8686 542 8700 531 8720 552H8722L8699 528V529L8686 530ZM8841 573 8850 584 8857 578 8853 588 8855 591 8850 595 8843 610 8850 617 8868 576 8876 602 8888 598 8882 582 8877 579 8874 582 8873 578 8869 576 8872 572 8871 569 8866 576 8852 558 8844 539 8835 552 8838 558 8835 590 8801 587 8810 596 8824 597 8828 596 8829 597H8830L8829 598L8830 597V598L8839 606V604L8838 605ZM8462 584 8475 597 8483 595 8463 574H8462V573L8453 563L8462 565L8456 555L8450 563L8447 556L8444 566L8450 564L8453 563V569L8462 584ZM8640 836 8650 852 8651 854 8656 863 8684 877 8687 867H8686L8673 860L8657 833L8681 818L8685 817L8691 805L8699 814L8708 812L8704 820L8713 830L8724 819L8696 787L8687 759L8724 753L8735 738L8721 741L8728 712L8718 718L8720 669L8737 633H8740L8738 617L8728 610L8694 582L8684 587L8674 585L8675 575L8669 574L8652 585L8647 572H8643L8653 594L8642 632L8643 642L8642 664L8643 708H8633V719L8624 708H8616L8640 736H8642L8641 708L8650 738L8660 741L8656 745L8665 751L8664 754L8687 770H8686L8688 777L8690 776L8689 779L8695 798L8677 802L8672 810L8670 805L8649 818L8652 822L8634 821L8629 822L8628 821H8622L8636 837ZM8753 626H8752L8750 631L8763 628L8779 591L8782 592L8783 587L8772 583L8759 610L8760 611L8754 622ZM8452 603 8462 601V584L8452 587ZM8784 692 8768 718 8777 725 8813 726 8796 741 8799 744H8792L8786 750L8820 765L8814 780H8819L8829 755L8833 754L8837 733L8853 737L8856 736L8855 737L8863 739L8873 718L8842 710L8833 703L8830 704V699L8828 697L8827 718L8796 692L8812 666L8805 637L8792 606L8786 629L8765 633L8777 663ZM8863 629 8872 630 8874 627 8864 617 8854 621ZM8922 645 8940 648V677ZM8428 681 8447 684 8441 670 8423 668ZM8974 692 8976 702 8977 692 8976 682ZM8538 727 8549 711V697L8532 690L8531 709L8502 706L8498 695L8494 705L8501 707L8504 715L8509 712L8520 727L8538 729L8553 764V749L8559 750L8550 731ZM8439 705 8450 691 8432 712 8458 702 8454 701V699ZM8571 733 8576 735 8585 719 8579 700 8568 698 8563 707ZM8931 744 8936 752 8941 744 8931 705 8920 701ZM8963 713 8958 720 8974 717 8975 710 8957 711ZM8606 731 8595 734 8594 736 8610 732ZM8611 740 8623 757 8633 746 8626 736 8612 732 8598 772 8600 774ZM8581 739 8591 737V735L8583 737ZM8876 791V792L8878 791L8885 764L8927 767L8909 744L8885 743L8877 775L8871 788ZM8653 750 8652 749 8643 759 8644 767 8655 773 8657 758 8654 747 8653 749ZM8748 787 8776 776 8764 752 8748 758 8745 762 8736 785 8748 787ZM8958 798 8973 767 8964 771 8958 763 8941 761ZM8569 831 8584 820V837L8622 839V821L8611 820L8621 811L8611 799H8612L8601 782L8596 784L8598 779L8570 769H8569L8555 783L8556 803L8570 787H8571L8605 799L8582 820H8583L8568 831L8582 856L8584 859ZM8658 775V776L8660 781L8682 778L8686 770L8662 774V777L8661 774L8657 775ZM8528 819 8544 846 8558 893 8536 887 8504 891 8507 905 8536 901 8537 916 8538 915 8536 889 8558 895 8559 894 8558 891 8546 848 8530 821 8520 805 8522 811 8528 820ZM8830 827 8853 805 8836 815 8828 822ZM8526 823 8527 821 8526 822ZM8872 832 8866 837 8873 862 8878 830H8881L8874 825ZM8514 850 8523 830 8509 829H8507L8505 834ZM9012 830 9013 848V888L8997 847ZM8925 832H8919L8926 860L8932 858ZM8584 841 8585 859 8598 857ZM8700 868 8710 873 8713 862 8701 855 8696 859ZM8621 887 8632 886 8644 866 8632 868ZM8596 881 8594 878 8564 889 8560 894ZM8704 906 8733 913 8715 923 8697 932ZM8626 917 8640 933 8648 932 8635 918ZM8980 486 8967 461H8952L8965 486L8934 492L8942 493ZM8445 639 8442 642 8445 649 8465 642 8478 672 8497 643 8522 644 8511 667 8526 674 8536 654 8549 676 8551 675 8550 672 8532 644 8570 643 8597 650 8621 642 8639 621 8638 613 8619 635 8595 643 8568 636 8530 637 8516 613 8525 577 8555 581 8569 547 8596 556 8569 547 8555 581 8525 577 8516 613 8502 580 8497 579 8507 602 8521 626 8496 625 8477 654 8464 624 8434 635ZM8686 542 8685 552H8686Z" fill="currentColor" /></svg>