<svg viewBox="0 0 10365 1185" xmlns="http://www.w3.org/2000/svg"><path d="M286 557 240 676 166 853 133 918 128 925 115 929 109 931 106 923 101 912 103 901 115 870 111 880 95 904 89 910 82 904 75 898 77 893 81 876 78 880 72 874 64 866 63 858 62 841 66 801 94 723 236 381 271 295 290 260 297 251 316 242 326 246 333 249 334 255 333 273 337 267 344 264H353L356 275L354 293L342 323L366 277L373 269L384 268L392 270L396 281L394 299L376 346L358 387L346 405L333 416L322 410L317 407L282 493L284 491L289 502L291 520ZM247 341 112 665 79 744 75 751 59 759 58 750 60 727 81 671 74 683 66 682 59 681 57 672 56 652 59 578 92 479 156 327 195 254 206 245 222 242 231 245 244 256V267V279L239 292L242 286L260 271L268 284L263 299ZM165 290 134 369 89 477 74 512 68 524 54 530 51 522 48 493 53 383 80 308 102 266 118 252 131 248 139 246 150 250 160 254 163 261 167 274ZM443 318 414 386 402 404 397 411 389 410H378L377 399L375 389L379 376L378 377L380 372L381 369L382 367L383 364L387 352L408 300L415 286L418 278L429 274L430 273H438H447L449 281L452 293ZM507 320 409 556 353 692 326 727 306 735 302 743 294 754 292 771 291 818 265 902 252 928 246 937 236 941 225 945 206 935 205 927 206 908 258 780 312 649 342 578 369 543 400 512 406 438 433 362V361L441 338L459 299L460 297L461 293L465 288V287L474 274L472 282L482 273L498 275L506 280L514 294L512 302ZM64 318 52 333 40 322 41 314 46 290 50 280 67 275 69 280 73 293 70 301ZM568 402 459 665 416 769 407 785 400 793 392 794 393 788 397 766V764L389 765L383 766L377 760L369 751L366 740L379 652L482 404L514 327L534 293L551 282H560L575 287L586 299L587 310L576 356L581 353V361ZM661 509 613 625 582 682 563 744 517 858 493 908 485 919 472 925 466 928 458 925 445 917 436 903V895L439 869L446 852L443 854L436 859L430 853L421 843L418 826L422 790L447 726L569 433L601 357L614 337L619 330L627 331L641 336L649 348V359L641 399H640L645 395L652 400L662 406L667 418ZM316 391 324 367 268 502 276 496 305 426 315 403ZM672 571 662 586 652 592 645 596 646 591 649 573 672 516 680 498H686L695 501L693 514ZM328 595 220 856 191 914 183 923 172 922H166L165 916L164 894L175 868V867L182 846L198 807L278 615L301 564L312 550L311 559L318 554L325 556L334 560V569ZM577 855 559 897 549 912 537 923 534 918 527 908 529 897 533 887 526 886 527 875 539 837 580 741 586 729 597 721 604 719 606 732 603 750 591 780 599 787 597 803ZM612 916H601H596L595 911L593 897L597 882L607 858L586 897L576 904L573 894L576 876L587 849L608 806L619 798L622 808L621 821L610 852L612 848L618 836L634 825L640 831L647 837L646 842L645 861L635 885ZM657 917 644 910 643 902 641 891 649 871 656 867 666 861 673 866 682 872 683 878 685 895 676 910 673 915ZM285 883 295 866 299 873 306 881 302 897 301 902 288 908 286 903ZM1176 501 1123 631 1106 662 1099 666 1095 659 1090 616 1096 565 1115 510 1121 497 1120 492 1118 478 1119 460 1127 432 1146 423 1156 433 1155 441 1152 449 1160 445 1170 441 1179 447 1186 451V463ZM927 485 825 730 799 786 794 795 776 794 773 789 766 770 771 704 787 664 782 666 775 665 776 654 789 613 839 493 855 461 862 451 872 457 869 466 886 438 904 426 918 425H927L934 436L938 443L936 454ZM1282 493 1147 820 1106 890 1100 896 1087 899 1079 901 1077 893 1073 883 1066 898 1060 906 1048 912 1041 916 1035 910 1030 904V898L1032 883L1045 850L1068 796L1104 726L1123 663L1178 530L1209 456L1223 436L1228 430L1242 427L1248 425L1250 431L1256 444L1254 452L1263 440L1269 434L1280 435H1290L1293 447L1295 455L1292 465ZM1336 604 1289 738 1228 883 1201 925 1193 933 1176 934 1171 935 1168 930 1162 917 1163 909 1166 899 1158 903 1152 897 1143 887V871L1152 834L1173 782L1275 537L1304 466L1317 442L1322 433L1335 427H1345L1356 435L1357 449L1342 505L1331 531L1336 540L1338 556ZM825 522 789 608 777 628 769 630 764 622 765 612 784 540 795 513 785 535 773 540 765 526 772 464 789 436 797 428 807 431 818 433V445L819 456L811 478L821 457L830 445L841 444H848V450V460L842 481ZM1003 589 949 751 912 839 892 885 880 904 867 910 859 914 852 910 839 903 837 898 830 882 835 847 841 832 835 842 812 852 799 842 798 834 797 813 821 745 917 514 944 453 956 437 962 431 978 430H984L987 435L994 448L993 461L981 494L986 486L994 482L999 480L1000 485L1004 506ZM1322 883 1314 900 1304 910 1298 916 1292 911 1285 906 1286 901 1287 898 1282 904 1276 909 1260 910H1255L1252 905L1246 891L1248 878L1264 831L1321 693L1343 647L1354 638L1360 651L1363 672L1361 720L1332 803L1337 801L1338 807L1340 822ZM1025 866 1005 913 987 940 970 951 956 949 949 947 948 941 945 927 948 917 949 914 947 916 936 917 925 918 916 911 908 904 905 881 914 853 978 699 996 657 1002 645 1010 647 1016 648V657L1018 681L1021 764L1012 792L1026 790L1035 793L1043 805L1042 818ZM1332 885 1343 869 1347 876 1352 883 1347 897 1346 902 1329 901ZM1582 299 1479 547 1453 605 1438 619 1436 613 1430 594 1436 522 1459 457 1452 461 1450 450 1448 439 1452 418 1472 364 1503 291 1523 253 1534 244 1545 251V256L1544 262L1545 260L1563 247L1576 249L1582 250L1584 255L1590 268L1588 276ZM1664 271 1665 291 1643 359 1614 428 1490 729 1447 832 1434 856 1429 864V855L1428 826V755L1429 710L1451 643L1452 640L1453 635L1457 620L1485 553L1573 340L1596 286L1604 267H1609L1612 260L1628 246L1636 247L1653 252ZM1483 318 1458 377 1448 394H1443H1435L1434 388L1430 374L1431 344L1441 287L1458 259L1465 252L1479 248L1489 251L1498 262L1497 275ZM1740 479 1683 614 1588 845 1559 908 1546 922 1530 929 1524 931 1514 926 1506 922 1504 913 1502 902 1505 890 1492 902 1480 901H1472L1467 894L1459 885V877L1458 858L1493 755L1632 420L1665 342L1671 330L1686 321L1688 329L1691 352L1689 458L1687 462L1718 434L1730 428L1738 433L1748 439L1747 448ZM1836 465 1805 541 1794 568 1788 581 1772 596 1766 591 1755 584V578L1754 562L1758 551L1751 556L1740 553L1733 550L1732 542L1731 531L1737 511L1765 444L1782 415L1803 405L1815 415L1816 426L1812 440L1822 433L1830 435L1838 438V443ZM1890 507 1756 829 1733 883 1721 900 1708 911H1698H1689L1684 904L1678 895V887L1682 863L1713 796L1744 765L1764 728L1775 643L1800 573L1837 485L1853 456L1859 447L1867 445V443V444L1870 443L1879 440L1888 446L1895 450L1897 459L1900 471ZM1972 568 1924 687 1847 874 1804 939 1792 945 1780 943 1772 941 1767 934 1761 924V911L1766 895L1763 900L1749 902H1743V896L1746 874L1776 800L1885 537L1914 477L1919 471L1929 469L1934 471L1935 481L1927 508L1933 500L1939 494H1955H1960L1969 504ZM2020 734 1967 880 1934 906 1924 910 1917 905 1910 899 1912 885 1919 865 1911 884 1884 921 1875 928 1859 927H1854L1851 922L1844 909L1846 901L1850 883L1872 829L1951 637L1976 578L1991 557L2009 558L2014 569L2016 622L1993 683L1998 671L2003 661L2008 660L2019 658L2020 664L2021 675ZM1679 844 1658 894 1647 913 1642 920 1629 927 1621 926 1612 916 1613 905 1614 901 1607 905 1599 908 1592 903 1584 896V891L1586 875L1609 818L1654 710L1672 672L1682 665L1691 685L1679 767L1674 781L1683 785L1691 789V800ZM2192 291 2171 339 2155 364 2140 371 2135 374 2124 367 2117 362 2116 351V340L2122 319L2126 312L2117 313L2116 308L2113 296L2114 277L2127 228L2138 209L2146 202L2155 195L2163 197L2173 199L2175 211L2177 220L2176 224L2184 220L2190 218L2200 223L2208 227V241ZM2278 292 2258 336 2251 348 2232 358 2222 352 2215 347V341L2216 328L2221 313L2217 314V308L2214 294L2223 269L2244 220L2254 205L2259 199L2268 200L2276 202L2274 210L2273 211H2280H2292L2298 224L2297 242ZM2291 319 2298 307 2300 302 2310 303 2300 295 2301 290 2304 280 2321 238 2337 223 2344 228 2342 236 2322 289 2311 303 2313 304 2314 315 2310 339 2307 346 2302 349 2292 354 2289 346 2286 335ZM2271 515 2149 810 2119 878 2116 885 2098 892 2095 885 2090 873 2089 862 2103 773 2134 696 2135 689 2150 649 2226 467 2240 436 2247 424 2258 417 2260 424 2263 435 2261 440 2267 439 2276 438 2284 445 2290 450 2289 464ZM2191 503 2159 579 2139 628 2124 662 2113 681 2101 689 2096 682 2092 663 2094 634 2116 562 2122 549V543L2121 531L2125 512L2141 467L2157 439L2164 431L2169 434L2176 441V444L2180 440L2188 443L2199 446L2201 457L2202 468ZM2327 537 2281 665 2205 847 2169 916 2160 924 2149 923 2141 922 2138 914 2136 903 2138 893 2145 875 2144 876 2145 870 2147 851 2178 777 2284 522 2302 478 2309 464 2324 453 2323 462 2319 472 2329 476 2330 489ZM2100 463 2110 477 2108 485 2101 507 2096 517 2088 519 2082 518 2081 507 2082 486 2083 478ZM2325 737 2321 819 2283 914 2264 934 2254 938 2243 941 2233 940 2223 938 2216 928 2211 921 2213 908 2219 890 2213 894 2203 885 2205 877 2225 819 2304 630 2316 601 2326 585 2338 579 2339 587 2342 599 2336 628 2318 674H2319L2322 684ZM2325 898 2314 889 2317 880 2327 854 2331 848H2336L2345 849V854L2346 865L2343 882L2340 890ZM2612 287 2562 408 2478 612 2445 688 2441 698 2432 704 2422 703 2416 683 2417 598 2444 507 2432 505 2431 494 2439 444 2462 384 2498 298 2520 259 2529 249 2545 253 2546 265 2556 252 2568 245 2576 240H2592H2597L2608 248L2615 253V262ZM2451 317 2460 294 2466 280 2475 262 2477 269 2483 260 2489 253 2505 256 2504 267 2489 313 2468 365 2455 394 2443 421 2437 429 2426 432 2425 421 2429 388 2448 332 2451 326ZM2626 440 2501 742 2451 863 2441 882 2436 890 2431 888 2423 885 2424 876 2430 855 2445 819 2442 815 2437 805 2436 789 2459 686 2596 353 2630 275 2635 265 2644 259 2650 254 2658 262 2663 280 2659 320 2635 383 2636 392ZM2430 324 2420 323V313L2431 277L2443 269L2449 280L2447 290ZM2920 495 2853 651 2796 793 2766 864 2751 887 2744 883 2734 877V871L2735 860L2743 832H2742L2728 834L2722 829L2709 812L2704 800L2713 738L2790 554L2817 488L2837 444L2868 415L2878 413L2889 411L2898 416L2908 420L2910 431L2913 441L2911 448L2912 446L2921 448L2929 449V460ZM2970 486 2918 560 2899 578 2900 570 2908 545 2937 474 2949 450 2955 441 2968 433 2973 430 2980 434 2987 438V450ZM2715 482 2743 443 2755 437 2756 445 2757 449 2764 441 2776 435 2784 432 2795 434 2807 436 2810 444 2815 457 2810 475 2745 635 2716 706 2698 747 2686 765 2662 786 2653 793 2645 813 2644 829 2639 878 2598 937 2587 940 2575 935 2567 932 2566 924 2563 910 2567 897 2572 885 2541 921 2529 923 2516 917 2511 915 2510 910 2505 896 2508 888 2515 866 2539 807 2607 644 2629 590 2642 561 2655 544 2689 519ZM2630 562 2514 843 2484 909 2463 925 2458 919 2451 911 2453 898 2465 862 2483 818 2590 559 2616 498H2617L2634 455L2645 433L2652 437L2649 445L2638 475L2635 483L2641 488V499ZM2901 818 2874 882 2857 912 2839 924 2828 921 2819 918 2817 908 2814 897 2815 892 2800 907H2789H2781L2778 899L2772 887L2776 866L2794 819L2825 743L2844 702L2851 691L2873 686L2884 699L2885 710L2874 753L2876 751L2884 743L2897 745L2903 746L2908 756L2912 764V775ZM2945 883 2936 889 2939 882 2923 911 2904 923 2891 920 2883 918 2881 912 2877 898 2879 890 2884 870 2905 818 2916 799 2924 793 2933 787 2940 792 2950 798 2952 804 2957 818 2943 875ZM2985 922 2972 925 2967 926 2958 919 2951 914V904L2964 867L2972 857L2981 858L2995 864L3003 876L3005 897L3000 907L2997 915ZM3368 295 3296 470 3276 513 3263 520 3256 509 3257 453 3275 391 3285 367 3280 361 3279 352V276L3283 258L3290 246L3294 239L3312 230L3326 234L3333 236L3335 241L3340 257L3339 263L3347 256L3359 258L3368 260L3369 268L3372 282ZM3802 250 3816 239 3832 245V250V257L3834 255L3844 250L3854 245L3869 248L3875 249L3878 254L3885 267L3883 275L3878 295L3726 662L3704 714L3680 750L3669 758L3656 761L3648 762L3642 756L3632 747V742L3631 726L3632 723L3625 729L3614 726L3606 725L3602 717L3597 705L3599 689L3611 654L3632 602L3709 415L3767 301ZM3994 333 3848 685 3827 737 3818 757 3796 811 3779 832 3780 826 3786 805 3796 781 3787 779 3786 771 3785 751 3796 666 3844 547 3923 355 3960 269 3967 257 3977 249 3984 243 3989 245 4003 249 4008 261ZM3503 357 3476 430 3442 514 3329 784 3287 885 3276 906 3267 905 3259 903 3256 895 3253 882 3254 866 3280 790 3275 796 3278 789 3285 769 3296 743 3293 745 3289 754 3282 763 3288 748 3283 752 3280 744 3277 720 3299 623 3419 333 3449 265 3464 250 3470 244 3481 250 3488 255 3489 265 3479 309 3478 319 3475 326 3493 321 3503 330V338ZM3415 313 3305 579 3278 640 3261 653 3256 632 3273 556 3284 530V527L3303 477L3368 320L3387 278L3396 267V274L3399 270L3404 264L3412 265H3420L3422 274L3424 285ZM3911 351 3831 545 3804 609 3789 646 3780 662 3769 667 3743 681 3725 707 3720 716 3714 710 3716 705 3713 702 3719 687 3745 625 3848 377 3881 298 3895 277 3894 283V284L3905 272L3913 266L3930 270L3931 276L3934 290L3929 306ZM3533 456 3387 807 3365 859 3351 890 3343 904 3334 905 3329 907V899L3332 887L3322 900L3316 905L3306 901L3299 898L3300 889L3306 868L3338 789L3472 467L3510 376L3524 356L3532 352L3543 365L3541 378L3530 415L3544 408V416L3543 428ZM3976 545 3859 826 3831 892 3818 909 3819 904 3820 898 3811 905 3801 902 3793 900 3791 892 3787 880 3789 865 3801 826 3824 770 3956 450 3989 371 4007 353 4014 361 4015 369 4012 441 3987 508 3989 507 3987 515ZM3481 841 3475 910 3470 923 3461 933 3455 939 3444 942 3434 944 3425 937 3418 931V923L3421 900L3427 885L3397 921L3384 924L3371 918L3363 914L3362 906L3360 892L3363 882L3392 810L3515 513L3549 432L3555 420L3565 413L3573 408L3584 414L3592 418L3597 428L3606 459L3604 480L3593 509L3631 490L3660 452L3678 432L3675 442L3657 487L3582 668L3560 711L3552 722H3544L3532 723L3524 712L3528 645L3519 657L3511 668L3507 681L3499 732L3474 798L3477 804ZM4001 747 3999 809 3977 878 3962 910 3949 926 3939 931 3931 935 3916 933 3908 927 3900 913 3902 902 3909 877 3890 912 3881 920 3869 922 3856 919 3846 910 3845 898 3865 832 3963 596 3990 535 4005 532 4008 543 4011 589 4004 650 3987 694 3997 695 3999 705ZM3984 903 3982 887 3987 874 3990 866 3997 861 4007 857 4010 870 4009 889 4008 897 4001 905 3992 912ZM4364 524 4336 563 4326 570 4311 572 4303 569 4295 555 4297 547 4298 542 4292 544 4283 542 4275 531 4276 521 4285 490 4306 441 4323 414 4341 404 4350 409 4357 413V425L4354 435L4357 434L4367 429L4377 435L4386 441L4387 446L4388 458L4384 477ZM4290 878 4264 925 4259 932 4243 929 4242 918 4250 890 4243 887V875L4248 855L4261 820L4322 675L4343 629L4351 616L4359 614L4371 609V615L4377 608L4394 545L4406 507L4410 499L4403 493L4404 481L4415 450L4422 436L4435 419L4443 421L4450 423V434L4445 452L4457 454V466L4442 512L4365 696L4349 724L4340 730L4331 733L4295 820L4296 821L4303 825L4302 837ZM4268 500 4248 544 4237 559 4224 569 4212 564 4207 562 4206 551 4204 540 4208 530 4210 524 4205 515 4209 500 4228 456 4241 438 4251 447 4256 439 4269 432 4278 439 4285 445 4283 458ZM4520 544 4387 864 4338 938 4329 944 4317 946 4308 947 4302 942 4293 936V928V915L4297 902L4303 889L4305 883L4323 838L4334 821L4336 826V827L4355 805L4380 771L4383 727L4388 684L4395 667L4394 666L4399 654L4411 624L4470 482L4481 458L4487 450L4496 449L4494 458L4497 456L4509 455H4518L4527 462L4535 468L4537 480L4538 491L4535 504ZM4627 629 4570 776 4536 857 4516 903 4497 929 4488 936 4474 939 4468 941 4458 935 4450 931 4448 926 4444 912 4446 904 4450 889 4438 891 4433 892 4422 888 4414 884 4412 878 4407 865 4408 857 4416 831 4443 767 4529 558 4554 499 4565 478 4569 471 4583 464 4588 462 4595 465 4607 471 4609 476 4616 490V502L4604 544L4607 546L4618 551L4622 561ZM4120 523 4153 490 4164 483 4169 484 4182 487V493V504L4176 522L4156 565L4142 581L4130 583L4122 585L4114 576L4108 570V561L4107 550ZM4294 696 4242 821 4210 897 4195 920 4190 926 4173 929 4164 926 4153 914V900L4164 864H4162H4154L4151 857L4145 844L4149 823L4163 785L4189 721L4209 675L4224 647L4238 632L4248 630L4256 629L4262 638L4265 645L4268 642L4283 639L4288 638L4297 645L4303 650V659ZM4624 748 4573 870 4558 898 4550 901 4553 893 4554 890 4546 898 4534 891 4538 880 4553 840 4610 702 4626 668 4637 659 4644 661 4643 667 4642 677 4636 698 4627 721 4633 717 4631 725ZM4182 708 4143 803 4128 833 4123 843 4114 845 4103 849 4098 842 4092 833 4093 811 4104 778 4115 752 4113 746 4114 733 4125 703 4137 685 4145 688H4146L4153 676L4170 664L4181 666L4189 668V677V690ZM4659 691V763L4657 807L4646 837L4625 888L4622 893L4621 897L4618 904H4616L4610 914L4603 923H4598H4579L4566 922L4561 921L4565 911L4576 884L4623 772L4646 716ZM4912 500 4809 749 4774 833 4760 864 4752 871 4754 865 4757 855 4753 861 4749 853 4743 834V746L4776 636L4829 508L4854 449L4874 421L4887 415L4894 411L4908 412L4917 413L4924 422L4930 428V437L4922 470L4926 466L4923 473ZM4958 822 4942 895 4929 922 4914 936 4902 935 4893 934 4891 929 4886 913V910L4876 916L4868 919L4861 915L4851 909V903V888L4863 856L4887 797L4990 549L5024 470L5044 439L5056 431L5062 428L5071 432L5079 435L5080 444L5081 452L5093 443L5104 446L5112 448L5114 457L5116 469L5107 498L5078 569L5057 612L5042 626L5030 629L5022 630L5019 625L5013 615L4990 654L4972 717L4950 774H4955L4957 785ZM4820 508 4762 648 4751 673 4745 683H4733L4730 671L4729 625L4759 524L4754 529L4758 516L4776 472L4785 460L4784 461L4789 452L4797 441L4815 430L4825 433L4833 436L4835 442L4838 455L4835 468ZM5152 502 5114 590 5110 597 5092 603V597L5091 582L5095 572L5105 547L5109 537L5110 534L5123 504L5133 479L5140 464L5143 456L5159 439L5157 447L5154 454L5157 453L5160 460L5164 467L5161 477ZM4997 508 4883 783 4837 894 4827 910 4823 916H4817L4809 914L4810 910L4798 920H4781L4771 916L4761 904L4760 896V882L4764 869L4795 793L4895 552L4924 483L4936 459L4941 449L4959 440L4968 445L4992 475V480L5003 479L5002 484ZM5173 533 5154 574 5143 584 5135 577 5137 566 5148 533 5166 491 5174 475 5189 465 5190 477 5187 496ZM5190 566 5184 584 5174 589 5166 593 5164 586 5161 576 5166 556 5175 537 5183 535 5191 534 5192 542ZM5437 287 5387 408 5303 612 5270 688 5266 698 5257 704 5247 703 5241 683 5242 598 5269 507 5257 505 5256 494 5264 444 5287 384 5323 298 5345 259 5354 249 5370 253 5371 265 5381 252 5393 245 5401 240H5417H5422L5433 248L5440 253V262ZM5276 317 5285 294 5291 280 5300 262 5302 269 5308 260 5314 253 5330 256 5329 267 5314 313 5293 365 5280 394 5268 421 5262 429 5251 432 5250 421 5254 388 5273 332 5276 326ZM5451 440 5326 742 5276 863 5266 882 5261 890 5256 888 5248 885 5249 876 5255 855 5270 819 5267 815 5262 805 5261 789 5284 686 5421 353 5455 275 5460 265 5469 259 5475 254 5483 262 5488 280 5484 320 5460 383 5461 392ZM5255 324 5245 323V313L5256 277L5268 269L5274 280L5272 290ZM5745 495 5678 651 5621 793 5591 864 5576 887 5569 883 5559 877V871L5560 860L5568 832H5567L5553 834L5547 829L5534 812L5529 800L5538 738L5615 554L5642 488L5662 444L5693 415L5703 413L5714 411L5723 416L5733 420L5735 431L5738 441L5736 448L5737 446L5746 448L5754 449V460ZM5795 486 5743 560 5724 578 5725 570 5733 545 5762 474 5774 450 5780 441 5793 433 5798 430 5805 434 5812 438V450ZM5540 482 5568 443 5580 437 5581 445 5582 449 5589 441 5601 435 5609 432 5620 434 5632 436 5635 444 5640 457 5635 475 5570 635 5541 706 5523 747 5511 765 5487 786 5478 793 5470 813 5469 829 5464 878 5423 937 5412 940 5400 935 5392 932 5391 924 5388 910 5392 897 5397 885 5366 921 5354 923 5341 917 5336 915 5335 910 5330 896 5333 888 5340 866 5364 807 5432 644 5454 590 5467 561 5480 544 5514 519ZM5455 562 5339 843 5309 909 5288 925 5283 919 5276 911 5278 898 5290 862 5308 818 5415 559 5441 498H5442L5459 455L5470 433L5477 437L5474 445L5463 475L5460 483L5466 488V499ZM5726 818 5699 882 5682 912 5664 924 5653 921 5644 918 5642 908 5639 897 5640 892 5625 907H5614H5606L5603 899L5597 887L5601 866L5619 819L5650 743L5669 702L5676 691L5698 686L5709 699L5710 710L5699 753L5701 751L5709 743L5722 745L5728 746L5733 756L5737 764V775ZM5770 883 5761 889 5764 882 5748 911 5729 923 5716 920 5708 918 5706 912 5702 898 5704 890 5709 870 5730 818 5741 799 5749 793 5758 787 5765 792 5775 798 5777 804 5782 818 5768 875ZM5810 922 5797 925 5792 926 5783 919 5776 914V904L5789 867L5797 857L5806 858L5820 864L5828 876L5830 897L5825 907L5822 915ZM6141 856 6114 920 6095 949 6077 960 6063 959 6054 958 6046 947 6041 941 6042 930 6046 911 6037 914 6031 916 6020 911 6012 908 6007 894 6004 886 6008 870 6029 816 6079 695 6110 630 6149 602 6162 593 6165 582 6168 571 6166 560 6160 528 6179 456 6196 429 6214 419 6228 421 6236 422 6243 433 6248 440 6246 453 6241 470 6254 469H6260L6271 478L6277 483L6280 493L6282 503L6269 546L6223 659L6188 731L6166 750L6155 752L6145 753L6127 742L6126 736V730L6112 750L6104 793L6093 829V828L6124 818L6134 817L6141 822L6148 828L6146 836ZM6077 484 5956 776 5925 841 5916 851 5905 852H5897L5892 845L5885 835L5884 824L5901 764L5897 763L5899 758L5903 745L5925 691L6000 509L6020 463L6032 452L6033 454L6049 437L6058 432L6070 433L6079 434L6083 441L6087 451L6085 460ZM6144 512 6124 547 6103 578 6098 591 6090 626 6080 668 6022 808 5992 877 5988 884 5978 888 5972 890V884L5974 865L5975 861L5973 862L5968 864L5969 859L5974 840L6005 764L6110 510L6136 449L6150 434L6157 443L6154 453H6159L6161 465L6157 483ZM6106 502 5991 780 5963 843 5957 853 5950 857 5945 859V854L5947 835L5950 829L5947 831L5948 825L5951 808L5980 739L6075 508L6091 471L6099 455L6113 442L6112 447L6121 452L6120 458ZM5871 575 5906 507 5923 498 5929 496 5928 502 5927 508 5941 480 5965 459 5974 454 5990 453 5997 458 6004 470 5998 488 5907 707 5891 746 5879 763 5863 767 5852 753 5850 696 5868 642 5871 634 5860 633 5861 622ZM6356 604 6323 688 6294 736 6276 749H6262L6253 750L6245 743L6237 736L6236 730V714L6246 684L6245 681L6242 673L6246 660L6261 623L6309 508L6319 486L6325 476L6332 473L6343 472L6345 481L6347 489L6344 500L6334 527L6333 530L6334 531L6349 541L6358 555ZM6391 644 6375 697 6362 721 6341 730 6331 721 6332 713 6335 695 6358 639 6368 621 6377 619 6386 597 6399 579 6400 589 6388 621ZM6403 689 6402 674 6409 662 6414 657 6423 668 6421 673 6415 688ZM6254 853 6226 917 6205 947 6174 960 6162 961 6154 955 6145 949V943L6146 927L6156 901L6154 887L6175 830L6197 787L6210 778L6222 786L6220 798H6233H6241L6250 805L6257 810L6259 819L6260 830ZM6311 850 6294 892 6283 911 6272 924 6264 923H6253L6252 912L6251 901L6257 881L6278 835L6285 823L6298 811L6300 807L6313 798L6309 809L6318 810L6319 819L6320 830ZM6326 858 6348 809 6362 805 6361 811 6363 809 6372 799 6389 804 6390 810 6391 824 6386 836 6365 866 6355 876 6343 879 6335 873 6336 867 6337 863 6326 866ZM6674 500 6571 749 6536 833 6522 864 6514 871 6516 865 6519 855 6515 861 6511 853 6505 834V746L6538 636L6591 508L6616 449L6636 421L6649 415L6656 411L6670 412L6679 413L6686 422L6692 428V437L6684 470L6688 466L6685 473ZM6720 822 6704 895 6691 922 6676 936 6664 935 6655 934 6653 929 6648 913V910L6638 916L6630 919L6623 915L6613 909V903V888L6625 856L6649 797L6752 549L6786 470L6806 439L6818 431L6824 428L6833 432L6841 435L6842 444L6843 452L6855 443L6866 446L6874 448L6876 457L6878 469L6869 498L6840 569L6819 612L6804 626L6792 629L6784 630L6781 625L6775 615L6752 654L6734 717L6712 774H6717L6719 785ZM6582 508 6524 648 6513 673 6507 683H6495L6492 671L6491 625L6521 524L6516 529L6520 516L6538 472L6547 460L6546 461L6551 452L6559 441L6577 430L6587 433L6595 436L6597 442L6600 455L6597 468ZM6914 502 6876 590 6872 597 6854 603V597L6853 582L6857 572L6867 547L6871 537L6872 534L6885 504L6895 479L6902 464L6905 456L6921 439L6919 447L6916 454L6919 453L6922 460L6926 467L6923 477ZM6759 508 6645 783 6599 894 6589 910 6585 916H6579L6571 914L6572 910L6560 920H6543L6533 916L6523 904L6522 896V882L6526 869L6557 793L6657 552L6686 483L6698 459L6703 449L6721 440L6730 445L6754 475V480L6765 479L6764 484ZM6935 533 6916 574 6905 584 6897 577 6899 566 6910 533 6928 491 6936 475 6951 465 6952 477 6949 496ZM6952 566 6946 584 6936 589 6928 593 6926 586 6923 576 6928 556 6937 537 6945 535 6953 534 6954 542ZM7784 325 7652 644 7633 691 7621 718 7611 733H7601H7595L7592 726L7585 708L7576 673L7581 655L7571 662L7557 659L7549 657L7547 649L7543 636L7545 626L7573 554L7622 439L7658 348L7685 285L7705 244L7720 229L7730 226L7741 223L7750 232L7756 237V246V259L7763 256L7771 252L7784 254L7794 260L7801 274L7798 285ZM7331 299 7234 535 7216 577 7208 594 7193 604 7185 596 7184 585 7187 512 7204 456 7211 440 7209 438 7202 429V421V405L7216 277L7232 248L7239 239L7252 233L7259 229L7273 231L7281 232L7289 243L7294 249L7292 261L7296 256L7308 251L7316 249L7326 253L7336 258V267L7337 281ZM7427 353 7368 516 7259 779 7215 882 7202 901 7190 897 7185 896 7183 888 7180 858 7207 758 7204 759 7198 761V753L7197 729L7206 626L7248 519L7319 347L7352 271L7368 250L7373 244L7389 239L7395 237L7405 244L7412 248L7413 254L7415 271L7407 292H7408L7414 288L7423 297L7428 315ZM7806 379 7681 682 7632 799 7621 819 7613 826 7605 824 7606 816 7611 793 7624 760 7620 762 7621 753 7625 731 7660 645 7778 360 7807 291 7819 269 7828 275 7826 283 7823 291 7826 290 7832 289 7833 295V312ZM7634 339 7600 420 7593 434 7580 440 7578 432 7574 410 7588 313 7605 286 7612 278 7626 275 7636 278 7645 287 7646 298ZM7191 283 7196 281 7189 293ZM7822 430 7674 787 7639 870 7628 890 7616 888 7617 883 7620 868 7625 856 7618 852 7621 844 7629 822 7676 706 7796 418 7826 345 7835 328 7846 326 7844 336 7829 376 7839 377 7837 388ZM7462 462V481L7446 532L7421 593L7328 817L7307 866L7287 900L7277 910L7266 913L7257 915L7250 911L7240 905L7238 900L7234 886L7236 878L7242 855L7265 799L7392 494L7423 418L7432 401L7441 395L7453 400L7454 405L7455 416ZM7841 636 7786 779 7757 847 7738 891 7718 917 7709 924 7693 922 7688 921 7687 916 7683 900 7685 896 7676 904H7665L7657 905L7653 897L7648 887L7651 871L7664 836L7685 785L7808 487L7838 419L7857 404L7861 412L7865 420V431L7864 455L7831 553L7835 549L7846 557L7847 565ZM7472 588 7362 853 7335 914 7322 925 7317 927V922V903L7319 898H7317L7311 899L7310 893L7309 872L7341 796L7432 574L7458 513L7469 492L7473 485L7487 479L7496 482L7503 494L7500 507L7488 540L7485 556ZM7541 562 7506 648 7481 695 7463 708 7449 706 7443 705 7441 699 7436 686 7439 675 7451 640 7480 570 7501 529 7518 514 7530 515H7532L7535 508L7546 488L7541 502L7536 515H7539L7542 523L7547 533L7546 541ZM7813 819 7796 860 7773 908 7762 916 7757 918 7756 908 7761 890 7757 891 7754 882 7757 869 7769 836 7823 706 7839 675 7846 665 7856 675 7854 683 7846 709 7829 751 7831 762 7828 778ZM7411 839 7396 910 7380 938 7363 951 7349 950 7341 944 7335 932 7337 921 7346 894 7380 811 7392 784 7396 774 7401 777 7408 786 7409 810 7437 744 7447 729 7444 737 7429 774 7415 805 7410 819ZM7824 894 7813 910 7802 908 7805 897 7809 884H7808H7802L7803 878L7809 856L7838 787L7854 770L7853 779L7847 803L7837 828L7831 842L7837 836L7842 843L7838 857ZM7442 884 7445 876 7450 870 7457 879 7450 892 7446 897ZM7837 908 7833 898 7830 893 7838 881 7842 874 7846 882 7849 889 7846 897ZM8207 524 8179 563 8169 570 8154 572 8146 569 8138 555 8140 547 8141 542 8135 544 8126 542 8118 531 8119 521 8128 490 8149 441 8166 414 8184 404 8193 409 8200 413V425L8197 435L8200 434L8210 429L8220 435L8229 441L8230 446L8231 458L8227 477ZM8133 878 8107 925 8102 932 8086 929 8085 918 8093 890 8086 887V875L8091 855L8104 820L8165 675L8186 629L8194 616L8202 614L8214 609V615L8220 608L8237 545L8249 507L8253 499L8246 493L8247 481L8258 450L8265 436L8278 419L8286 421L8293 423V434L8288 452L8300 454V466L8285 512L8208 696L8192 724L8183 730L8174 733L8138 820L8139 821L8146 825L8145 837ZM8111 500 8091 544 8080 559 8067 569 8055 564 8050 562 8049 551 8047 540 8051 530 8053 524 8048 515 8052 500 8071 456 8084 438 8094 447 8099 439 8112 432 8121 439 8128 445 8126 458ZM8363 544 8230 864 8181 938 8172 944 8160 946 8151 947 8145 942 8136 936V928V915L8140 902L8146 889L8148 883L8166 838L8177 821L8179 826V827L8198 805L8223 771L8226 727L8231 684L8238 667L8237 666L8242 654L8254 624L8313 482L8324 458L8330 450L8339 449L8337 458L8340 456L8352 455H8361L8370 462L8378 468L8380 480L8381 491L8378 504ZM8470 629 8413 776 8379 857 8359 903 8340 929 8331 936 8317 939 8311 941 8301 935 8293 931 8291 926 8287 912 8289 904 8293 889 8281 891 8276 892 8265 888 8257 884 8255 878 8250 865 8251 857 8259 831 8286 767 8372 558 8397 499 8408 478 8412 471 8426 464 8431 462 8438 465 8450 471 8452 476 8459 490V502L8447 544L8450 546L8461 551L8465 561ZM7963 523 7996 490 8007 483 8012 484 8025 487V493V504L8019 522L7999 565L7985 581L7973 583L7965 585L7957 576L7951 570V561L7950 550ZM8137 696 8085 821 8053 897 8038 920 8033 926 8016 929 8007 926 7996 914V900L8007 864H8005H7997L7994 857L7988 844L7992 823L8006 785L8032 721L8052 675L8067 647L8081 632L8091 630L8099 629L8105 638L8108 645L8111 642L8126 639L8131 638L8140 645L8146 650V659ZM8467 748 8416 870 8401 898 8393 901 8396 893 8397 890 8389 898 8377 891 8381 880 8396 840 8453 702 8469 668 8480 659 8487 661 8486 667 8485 677 8479 698 8470 721 8476 717 8474 725ZM8025 708 7986 803 7971 833 7966 843 7957 845 7946 849 7941 842 7935 833 7936 811 7947 778 7958 752 7956 746 7957 733 7968 703 7980 685 7988 688H7989L7996 676L8013 664L8024 666L8032 668V677V690ZM8502 691V763L8500 807L8489 837L8468 888L8465 893L8464 897L8461 904H8459L8453 914L8446 923H8441H8422L8409 922L8404 921L8408 911L8419 884L8466 772L8489 716ZM8763 310 8693 477 8671 532 8657 563 8643 580 8632 584 8623 588 8608 583 8603 582 8600 576 8595 563 8596 554 8601 532 8622 480 8686 326 8689 319 8695 306 8706 279 8712 267 8714 266 8717 260 8726 249 8738 240 8745 236 8767 235 8775 246 8780 252 8778 265ZM8841 333 8705 660 8672 736 8653 755 8649 748 8644 737V724L8668 644L8654 648L8652 643L8650 620L8669 546L8768 307L8790 261L8802 248L8817 241L8823 250L8827 256L8825 265L8822 272L8823 271L8828 262L8837 257L8844 252L8850 258L8858 264V275ZM8620 309 8623 290 8629 278 8633 271 8651 259 8663 263 8671 265 8673 271 8677 287 8675 295 8668 318 8644 375 8633 392 8627 398 8625 393 8619 378ZM8846 438 8724 734 8693 805 8674 819 8668 809 8671 796 8686 757 8671 766 8672 761 8676 745 8711 661 8824 388 8853 317 8861 300 8864 292H8873V298L8874 310L8871 326L8857 367L8851 383L8852 382L8854 393ZM8954 493 8919 568 8875 616 8862 701 8816 826 8797 872 8782 898 8763 910 8752 909 8743 908 8737 901 8729 893 8727 875 8733 849 8731 851 8720 852 8711 853 8707 846 8701 836 8702 822 8714 784 8732 740 8825 516 8852 452 8862 430 8868 421 8893 414 8905 423V435V446V448L8919 434L8929 429H8939L8950 430L8957 439L8964 448L8963 459ZM9006 553 9002 572 8993 583 8988 589 8974 591 8966 588 8958 576 8960 560 8965 547 8961 548 8952 539 8953 534 8958 519 8987 447 8999 429 9003 423 9013 426 9021 428V439L9022 450L9009 485L9005 494L9006 497L9008 513ZM8584 520 8566 562 8555 580 8544 591 8538 590 8526 587 8519 573 8516 554 8524 501 8554 455 8563 449 8579 447H8584L8594 456L8599 462V474ZM8890 770 8886 777 8892 774 8903 775H8912L8919 784L8924 791L8923 802L8914 837L8888 898L8869 930L8852 942L8835 941L8827 936L8817 923L8818 912L8825 883H8824H8819L8818 877L8817 862L8820 851L8830 826L8858 758L8871 734L8876 725H8885H8893L8894 734L8896 746ZM9017 839 9000 895 8984 923 8972 934 8955 941 8947 944 8937 941 8926 938 8924 933 8918 918 8919 910 8923 895 8919 888 8915 881 8917 875 8921 860 8952 787 8961 771 8968 766 8981 772 8979 782 8991 779 9001 781 9014 792 9016 802ZM9018 886 9027 874 9030 879 9035 887 9022 900ZM9295 508 9188 766 9169 807 9162 819 9147 822 9139 820 9129 807 9128 799 9129 775 9152 713 9246 486 9274 431 9284 422 9290 417 9303 414 9315 418 9322 430 9320 438ZM9332 835 9307 900 9289 931 9272 943H9260L9251 944L9244 938L9235 931L9234 925L9232 910L9234 900L9240 885H9239L9230 888L9227 879L9223 869L9225 858L9257 774L9368 506L9397 443L9417 424L9425 428L9432 432V443L9430 450L9446 443L9459 447L9470 454L9478 475L9475 494L9463 526L9442 575L9429 602L9424 611L9413 615L9403 619L9393 613L9384 607L9380 598L9374 567L9347 602L9331 686L9305 755L9317 757L9322 767L9335 814ZM9365 489 9231 811 9208 865 9197 881 9182 892 9176 890 9163 885 9160 877 9155 864 9156 853 9184 776 9286 530 9316 461 9331 440 9337 435 9351 431 9356 429 9365 435 9372 440 9373 451ZM9578 563 9544 623 9535 630 9520 631 9511 628 9501 617V608L9503 596L9500 598L9487 600L9479 601L9474 594L9466 582L9467 577L9469 561L9483 526L9502 480L9517 454L9523 445L9547 439L9561 448L9563 459L9564 470L9555 501H9558H9569L9576 510L9583 519V527L9584 540ZM9234 496 9149 700 9133 737 9125 747 9120 756 9122 752 9105 756 9096 748V737L9110 675L9163 547L9197 470L9218 445L9225 440L9234 442L9242 444L9244 455L9245 463L9242 474ZM9156 551 9133 605 9119 639 9102 673 9095 681 9096 673 9104 645 9110 632 9108 631 9102 625 9103 617 9106 592 9127 532 9143 502 9162 480 9175 476 9181 480 9180 485 9175 504 9172 510 9171 512ZM9620 532 9625 525 9622 533 9618 545 9616 539ZM9618 570 9628 554 9635 567 9622 581ZM9573 601 9589 562 9599 557 9597 568 9585 598ZM9625 597 9629 608 9631 613 9615 621 9613 604ZM9479 801 9444 887 9420 934 9404 949 9394 951 9383 954 9374 948 9364 941 9365 936 9366 918 9367 915H9366L9357 918L9351 913L9342 907L9340 898L9338 887L9342 869L9355 834L9406 752L9430 735L9440 730L9446 736L9451 746L9463 745L9471 743L9479 750L9487 757V768L9488 779ZM9523 774 9509 809 9500 831 9489 852 9484 851 9491 834 9519 765 9528 746 9533 740 9534 746ZM9581 802 9528 909 9512 920 9505 924 9495 920 9486 917V911V895L9491 882L9489 880L9491 872L9499 849L9528 778L9543 753L9550 745L9551 750L9553 756L9564 749L9575 753L9583 756L9585 765L9588 776ZM9628 815 9596 860 9580 865 9575 866V860L9577 840L9596 794L9608 767L9621 750L9638 749L9640 754L9644 767L9642 777ZM9492 829 9476 866 9455 910 9446 921V916L9448 895L9481 814L9500 779L9509 774L9508 785ZM9923 264 9875 382 9795 576 9763 649 9757 657 9748 679 9737 697V691L9742 673L9745 667L9742 663L9737 643V556L9769 448L9819 326L9844 267L9863 235L9880 222L9895 219L9903 218L9914 222L9925 227L9926 235L9928 248ZM9813 306 9750 458 9736 488 9730 499 9719 496V485L9727 447L9737 421L9735 423L9734 417L9730 397L9751 319L9770 275L9780 259L9792 246L9808 252V263L9806 270L9813 263L9818 268L9824 274L9822 282ZM9930 336 9783 690 9747 776 9736 797 9732 804 9724 798 9726 791 9733 771 9744 746V745L9740 732L9743 724L9778 634L9901 336L9932 265L9950 247L9952 255L9955 262L9952 269L9946 287L9945 291L9944 292ZM9949 400 9890 546 9790 787 9767 841 9751 877 9744 888 9733 891 9725 894 9726 885 9730 862 9746 822 9743 821 9746 814 9754 791 9793 697 9907 422 9952 314 9960 297 9963 289 9971 286V297L9960 335L9954 348L9956 353L9959 361L9957 372ZM9959 500 9908 625 9825 824 9791 899 9785 908 9774 912 9766 915 9762 909 9756 900 9760 884 9773 850 9795 798 9917 503 9947 431H9948V430L9956 413L9961 408L9955 423L9954 427L9966 419L9970 432L9971 451ZM10079 524 10061 565 10052 581 10035 587 10030 573 10042 536 10038 531 10040 520 10050 490 10068 448 10077 429 10089 415 10102 416 10107 419 10106 430 10096 458 10097 466 10094 484ZM10170 495 10098 670 10077 713 10065 720 10055 710V694L10054 651L10100 505L10122 459L10130 448L10134 447L10136 442L10139 435L10149 430L10147 435L10146 441L10150 440L10161 443L10169 445L10171 451L10177 464L10176 472ZM10028 501 9996 577 9967 636 9946 699 9897 817 9866 891 9850 911 9848 905 9847 899 9844 906 9833 918H9819L9811 919L9807 911L9802 899L9805 886L9818 849L9839 797L9922 598L9970 485L10003 447L10014 440L10030 445V450L10029 460L10040 469L10037 477ZM10213 502 10205 521 10217 492 10231 474 10238 468H10244H10258L10268 478L10269 555L10153 833L10124 898L10109 911L10102 916L10095 911L10083 904L10080 894L10084 814L10112 743L10101 770L10091 780L10086 783L10084 777L10080 761L10097 701L10177 509L10191 477L10202 462L10214 454L10220 463L10224 470L10221 477ZM10294 667 10215 859 10202 888 10191 903 10179 908V894L10183 881L10168 907L10160 914L10149 913L10140 911L10139 906L10137 885L10164 815L10247 616L10270 560L10279 543L10282 536L10296 530L10305 532L10313 546V555L10307 589L10297 613L10307 611L10308 622ZM10308 809 10282 873 10271 895 10266 904 10243 914 10233 905 10234 900 10236 884 10248 854 10228 896 10218 906 10206 901 10208 889 10222 848 10281 706 10303 660 10315 653 10319 665 10306 717 10298 736 10302 726 10315 721 10317 727 10322 741 10321 754ZM9940 856 9911 918 9903 929 9893 928H9887V922L9888 906L9897 884L9893 879L9896 867L9908 834L9954 723L9969 690L9975 680L9988 679L9989 690L9985 723L9954 803L9945 825ZM10312 902 10299 906 10293 905 10288 894 10285 889 10289 876 10304 836 10314 817 10317 810 10324 815 10333 822V834L10328 878L10324 888ZM9976 854 9968 871 9963 859 9965 854 9971 838 9983 828 9982 833Z" fill="currentColor" /></svg>