<svg viewBox="0 0 7475 1185" xmlns="http://www.w3.org/2000/svg"><path d="M85 812Q49 812 37.0 799.0Q25 786 37.0 773.0Q49 760 85 760Q67 760 56.0 744.5Q45 729 41.5 706.0Q38 683 41.5 659.5Q45 636 56.0 620.5Q67 605 85 605Q60 605 47.0 588.5Q34 572 34.0 551.0Q34 530 47.0 513.5Q60 497 85 497Q51 497 39.5 484.0Q28 471 39.5 458.0Q51 445 85 445Q50 445 38.5 435.0Q27 425 38.5 415.5Q50 406 85 406Q50 406 38.5 394.0Q27 382 38.5 370.0Q50 358 85 358Q53 358 42.5 343.0Q32 328 42.5 313.0Q53 298 85 298Q69 275 76.0 259.0Q83 243 100.5 242.5Q118 242 134 265Q134 226 149.0 213.5Q164 201 179.0 213.5Q194 226 194 265Q194 236 208.0 222.0Q222 208 240.0 208.0Q258 208 272.0 222.0Q286 236 286 265Q286 241 299.5 229.5Q313 218 330.0 218.0Q347 218 360.5 229.5Q374 241 374 265Q377 242 398.5 233.0Q420 224 446.0 227.5Q472 231 490.0 245.0Q508 259 505 282Q520 246 536.0 239.0Q552 232 558.0 248.5Q564 265 550 301Q563 288 582.5 295.5Q602 303 619.5 321.0Q637 339 643.5 359.0Q650 379 637 392Q663 386 678.5 394.5Q694 403 697.5 417.5Q701 432 690.5 446.0Q680 460 654 466Q672 471 676.0 492.5Q680 514 673.0 539.5Q666 565 651.5 581.5Q637 598 619 593Q638 615 631.5 636.0Q625 657 608 667Q614 682 584 694Q603 695 618.0 709.0Q633 723 640.0 742.5Q647 762 642.0 781.0Q637 800 617 812Q647 795 663.5 797.5Q680 800 677.0 813.5Q674 827 648 844Q671 832 686.0 841.5Q701 851 700.5 869.5Q700 888 676 905Q676 925 661.5 937.0Q647 949 626.0 953.0Q605 957 584.0 953.0Q563 949 548.5 937.0Q534 925 534 905Q525 925 507.0 928.5Q489 932 471.0 924.0Q453 916 444.0 899.5Q435 883 444 864Q425 872 409.5 865.5Q394 859 386.0 844.0Q378 829 380.5 812.5Q383 796 399 785Q379 794 358.5 780.0Q338 766 329 744Q322 748 313 748Q318 766 308.5 783.5Q299 801 275 801Q295 801 305.0 812.0Q315 823 315.0 837.0Q315 851 305.0 861.5Q295 872 275 872Q290 892 285.0 906.5Q280 921 264.5 922.5Q249 924 234 905Q234 929 218.5 942.0Q203 955 180.5 955.5Q158 956 136.0 941.5Q114 927 99.0 895.5Q84 864 85 812ZM275 494Q295 494 303.5 508.5Q312 523 311 536Q327 524 354.0 523.5Q381 523 396 534Q395 517 407.0 496.5Q419 476 434 470Q421 465 427 455Q408 460 396.5 446.0Q385 432 393 414Q381 420 363.5 420.0Q346 420 331.0 414.5Q316 409 312 398Q314 418 300 422Q301 432 295.0 441.0Q289 450 275 450Q294 450 300.5 461.0Q307 472 300.5 483.0Q294 494 275 494ZM887 906Q876 919 860.0 916.0Q844 913 830.5 901.0Q817 889 812.0 873.5Q807 858 818 846Q800 853 787.5 847.5Q775 842 770.0 830.5Q765 819 770.5 806.0Q776 793 794 786Q773 788 761.5 777.0Q750 766 748.5 750.0Q747 734 756.5 721.0Q766 708 787 706Q767 706 757.0 691.0Q747 676 747.0 656.0Q747 636 757.0 621.0Q767 606 787 606Q764 606 756.5 596.0Q749 586 756.5 576.0Q764 566 787 566Q762 566 753.5 553.0Q745 540 753.5 527.0Q762 514 787 514Q765 509 757.0 495.0Q749 481 752.5 466.5Q756 452 769.5 443.5Q783 435 805 440Q805 422 819.5 411.5Q834 401 855.5 397.5Q877 394 898.0 397.5Q919 401 933.5 411.5Q948 422 948 440Q968 428 983.0 437.0Q998 446 1000.0 463.5Q1002 481 982 493Q995 493 1001.5 505.0Q1008 517 1008.0 533.0Q1008 549 1001.5 561.0Q995 573 982 573Q997 573 1005.0 586.0Q1013 599 1013.0 616.0Q1013 633 1005.0 646.5Q997 660 982 660Q997 659 1005.5 670.0Q1014 681 1014.5 696.5Q1015 712 1008 723Q1026 721 1048.5 730.0Q1071 739 1084 753Q1088 742 1096.5 733.5Q1105 725 1115 723Q1100 715 1104.5 699.0Q1109 683 1132 683Q1118 683 1110.5 665.0Q1103 647 1103.0 623.5Q1103 600 1110.5 582.5Q1118 565 1132 565Q1112 565 1105.5 554.0Q1099 543 1105.5 532.0Q1112 521 1132 521Q1117 519 1110.5 506.0Q1104 493 1106.0 477.0Q1108 461 1117.0 449.5Q1126 438 1142 440Q1142 418 1153.5 407.0Q1165 396 1179.5 396.0Q1194 396 1205.5 407.0Q1217 418 1217 440Q1217 417 1230.0 409.5Q1243 402 1256.0 409.5Q1269 417 1269 440Q1277 425 1290.0 423.0Q1303 421 1314.5 427.5Q1326 434 1330.5 446.5Q1335 459 1326 474Q1346 474 1356.0 484.0Q1366 494 1366.0 507.5Q1366 521 1356.0 531.5Q1346 542 1326 542Q1351 542 1359.0 555.5Q1367 569 1359.0 583.0Q1351 597 1326 597Q1342 597 1350.0 614.5Q1358 632 1358.0 655.0Q1358 678 1350.0 695.5Q1342 713 1326 713Q1346 713 1355.5 727.5Q1365 742 1365.0 761.0Q1365 780 1355.5 794.0Q1346 808 1326 808Q1338 811 1341.0 827.5Q1344 844 1339.5 864.5Q1335 885 1325.5 899.0Q1316 913 1304 910Q1304 936 1290.0 944.5Q1276 953 1262.0 944.5Q1248 936 1248 910Q1248 935 1233.5 943.5Q1219 952 1204.0 944.0Q1189 936 1189 910Q1182 931 1171.0 937.0Q1160 943 1151.5 936.0Q1143 929 1144 912Q1136 928 1114.5 933.0Q1093 938 1074.0 930.5Q1055 923 1055 903Q1056 917 1041.0 926.5Q1026 936 1000.5 938.0Q975 940 945.0 933.0Q915 926 887 906ZM1783 918Q1775 936 1757.0 939.0Q1739 942 1719.5 934.5Q1700 927 1688 913Q1681 922 1668.5 924.5Q1656 927 1642 916Q1638 944 1626.0 952.0Q1614 960 1604.0 950.0Q1594 940 1598 914Q1595 930 1576.5 938.0Q1558 946 1534.5 945.5Q1511 945 1493.5 936.0Q1476 927 1476 910Q1455 914 1446.0 904.0Q1437 894 1441.0 881.0Q1445 868 1466 864Q1437 864 1427.0 854.0Q1417 844 1427.0 834.0Q1437 824 1466 824Q1452 824 1444.0 809.5Q1436 795 1433.0 773.5Q1430 752 1433.0 730.5Q1436 709 1444.0 694.5Q1452 680 1466 680Q1447 680 1437.0 660.5Q1427 641 1427.0 616.0Q1427 591 1437.0 571.5Q1447 552 1466 552Q1445 552 1435.0 538.5Q1425 525 1425.0 508.0Q1425 491 1435.0 477.5Q1445 464 1466 464Q1450 464 1442.5 444.0Q1435 424 1435.0 398.0Q1435 372 1442.5 352.0Q1450 332 1466 332Q1450 332 1441.5 320.0Q1433 308 1433.0 292.0Q1433 276 1441.5 264.0Q1450 252 1466 252Q1466 236 1482.0 227.0Q1498 218 1519.5 218.0Q1541 218 1557.5 226.0Q1574 234 1574 250Q1574 231 1586.5 221.5Q1599 212 1615.5 211.5Q1632 211 1644.5 220.5Q1657 230 1657 250Q1683 251 1691.0 264.0Q1699 277 1689.5 289.0Q1680 301 1655 300Q1674 300 1683.5 312.0Q1693 324 1693.0 340.0Q1693 356 1683.5 368.0Q1674 380 1655 380Q1672 380 1680.5 386.5Q1689 393 1690 401Q1707 401 1722.0 411.5Q1737 422 1735 438Q1740 425 1760.5 417.5Q1781 410 1805.5 409.0Q1830 408 1848.5 415.0Q1867 422 1868 437Q1877 425 1897.5 431.5Q1918 438 1938.5 454.5Q1959 471 1970.0 489.0Q1981 507 1972 519Q1992 515 2006.5 531.0Q2021 547 2026.5 571.0Q2032 595 2026.0 615.5Q2020 636 2000 641Q2017 641 2025.0 655.5Q2033 670 2033.0 689.0Q2033 708 2024.0 722.0Q2015 736 1998 736Q2014 741 2016.5 760.0Q2019 779 2012.5 801.0Q2006 823 1993.0 837.0Q1980 851 1965 846Q1976 859 1972.5 873.0Q1969 887 1957.5 897.5Q1946 908 1932.0 910.0Q1918 912 1906 900Q1911 921 1898.5 934.0Q1886 947 1865.0 951.0Q1844 955 1821.5 947.0Q1799 939 1783 918ZM1654 657Q1669 657 1674.0 664.0Q1679 671 1674.0 678.0Q1669 685 1654 685Q1664 684 1669.5 694.0Q1675 704 1675.5 716.5Q1676 729 1670 736Q1681 734 1695.5 740.5Q1710 747 1723.5 758.0Q1737 769 1744 779Q1744 765 1761.0 748.0Q1778 731 1791 731Q1781 724 1779.5 707.5Q1778 691 1784.5 677.0Q1791 663 1804 664Q1795 663 1789.0 650.0Q1783 637 1781.0 621.5Q1779 606 1784 597Q1774 602 1763.0 595.5Q1752 589 1750 578Q1742 590 1726.5 590.5Q1711 591 1703 580Q1702 588 1697.0 591.0Q1692 594 1685 590Q1690 601 1683.5 613.0Q1677 625 1665 626Q1682 631 1679.0 644.5Q1676 658 1654 657ZM2132 274Q2111 269 2103.0 256.0Q2095 243 2098.5 230.5Q2102 218 2115.0 211.0Q2128 204 2150 210Q2150 195 2164.0 186.5Q2178 178 2199.0 175.0Q2220 172 2241.5 175.0Q2263 178 2277.0 186.5Q2291 195 2291 210Q2312 207 2324.0 218.5Q2336 230 2339.0 247.5Q2342 265 2333.5 280.0Q2325 295 2305 298Q2310 310 2298.5 321.5Q2287 333 2268.5 340.5Q2250 348 2233.5 347.5Q2217 347 2213 335Q2213 351 2201.0 358.0Q2189 365 2173.0 359.5Q2157 354 2145.0 333.5Q2133 313 2132 274ZM2127 908Q2111 908 2102.0 893.0Q2093 878 2089.5 856.0Q2086 834 2089.5 812.0Q2093 790 2102.0 775.5Q2111 761 2127 761Q2107 761 2097.0 744.5Q2087 728 2087.0 707.0Q2087 686 2097.0 669.5Q2107 653 2127 653Q2110 653 2100.0 638.0Q2090 623 2086.5 601.0Q2083 579 2086.5 557.0Q2090 535 2100.0 520.5Q2110 506 2127 506Q2109 506 2100.5 495.5Q2092 485 2091.5 471.5Q2091 458 2100.0 448.0Q2109 438 2127 438Q2127 420 2139.5 411.5Q2152 403 2168.5 403.5Q2185 404 2197.0 413.0Q2209 422 2209 440Q2209 425 2220.0 418.0Q2231 411 2246.0 411.0Q2261 411 2272.5 418.0Q2284 425 2284 440Q2299 428 2310.5 433.0Q2322 438 2323.5 450.0Q2325 462 2310 474Q2328 474 2336.5 491.0Q2345 508 2345.0 530.0Q2345 552 2336.5 568.5Q2328 585 2310 585Q2326 585 2334.0 602.0Q2342 619 2342.0 641.0Q2342 663 2334.0 680.0Q2326 697 2310 697Q2322 697 2329.5 712.5Q2337 728 2339.5 751.5Q2342 775 2339.5 798.0Q2337 821 2329.5 836.5Q2322 852 2310 852Q2332 856 2337.0 871.5Q2342 887 2332.0 900.5Q2322 914 2300 910Q2300 935 2290.0 943.5Q2280 952 2270.0 943.5Q2260 935 2260 910Q2260 931 2240.5 942.0Q2221 953 2194.5 952.5Q2168 952 2148.0 941.0Q2128 930 2127 908ZM2450 840Q2421 840 2411.0 828.0Q2401 816 2411.0 804.0Q2421 792 2450 792Q2430 792 2420.0 778.5Q2410 765 2410.0 748.0Q2410 731 2420.0 717.5Q2430 704 2450 704Q2433 704 2422.5 688.0Q2412 672 2408.5 649.0Q2405 626 2408.5 603.0Q2412 580 2422.5 564.0Q2433 548 2450 548Q2437 548 2428.5 533.5Q2420 519 2417.5 497.5Q2415 476 2417.5 454.5Q2420 433 2428.5 418.5Q2437 404 2450 404Q2430 404 2420.0 389.5Q2410 375 2410.0 356.0Q2410 337 2420.0 322.5Q2430 308 2450 308Q2426 310 2416.5 296.0Q2407 282 2413.5 266.0Q2420 250 2444 248Q2445 231 2455.5 222.5Q2466 214 2479.0 214.5Q2492 215 2502.0 224.0Q2512 233 2512 250Q2511 231 2528.5 220.0Q2546 209 2569.5 208.0Q2593 207 2611.5 216.0Q2630 225 2631 244Q2649 245 2657.5 265.5Q2666 286 2666.0 313.0Q2666 340 2656.5 360.0Q2647 380 2629 380Q2645 380 2653.0 395.5Q2661 411 2661.0 432.0Q2661 453 2653.0 468.5Q2645 484 2629 484Q2647 483 2656.0 500.5Q2665 518 2664 536Q2667 537 2669 539Q2672 521 2688.5 509.0Q2705 497 2724 509Q2710 500 2712.5 485.5Q2715 471 2726.5 462.0Q2738 453 2753 462Q2750 446 2765.5 434.5Q2781 423 2803.5 418.5Q2826 414 2844.5 419.0Q2863 424 2866 440Q2866 417 2878.0 409.5Q2890 402 2902.0 409.5Q2914 417 2914 440Q2913 415 2927.5 406.5Q2942 398 2957.0 406.0Q2972 414 2972 439Q2985 448 2983.0 465.0Q2981 482 2969.5 498.5Q2958 515 2943.0 522.5Q2928 530 2915 521Q2930 532 2925.0 555.5Q2920 579 2903.5 601.5Q2887 624 2868 634Q2885 641 2894.0 659.5Q2903 678 2900.0 696.5Q2897 715 2878 723Q2892 717 2909.5 729.5Q2927 742 2940.5 763.5Q2954 785 2957.0 805.5Q2960 826 2946 835Q2961 826 2976.0 832.5Q2991 839 3000.0 853.5Q3009 868 3008.5 884.0Q3008 900 2993 910Q2993 930 2975.5 940.0Q2958 950 2935.5 950.0Q2913 950 2895.5 940.0Q2878 930 2878 910Q2876 929 2859.0 936.5Q2842 944 2821.5 941.5Q2801 939 2786.0 928.0Q2771 917 2773 898Q2751 911 2738.0 906.0Q2725 901 2727.0 887.5Q2729 874 2750 861Q2739 868 2723.5 857.0Q2708 846 2694.0 826.0Q2680 806 2672 785Q2658 796 2643 792Q2652 804 2653.5 826.0Q2655 848 2649.0 866.0Q2643 884 2629 884Q2639 906 2627.5 919.5Q2616 933 2598.5 932.5Q2581 932 2571 910Q2571 925 2559.5 933.0Q2548 941 2533.5 941.0Q2519 941 2507.5 933.0Q2496 925 2496 910Q2496 937 2485.0 943.5Q2474 950 2462.5 926.0Q2451 902 2450 840ZM3294 776Q3267 776 3253.0 759.5Q3239 743 3239.0 720.5Q3239 698 3253.0 681.5Q3267 665 3294 665Q3269 665 3256.0 649.0Q3243 633 3243.0 612.5Q3243 592 3256.0 576.5Q3269 561 3294 561Q3275 561 3263.5 546.5Q3252 532 3248.5 510.5Q3245 489 3248.5 468.0Q3252 447 3263.5 432.5Q3275 418 3294 418Q3259 418 3247.0 402.0Q3235 386 3247.0 370.0Q3259 354 3294 354Q3272 352 3261.5 338.0Q3251 324 3252.0 306.5Q3253 289 3265.0 276.5Q3277 264 3299 265Q3299 236 3316.0 221.0Q3333 206 3355.0 206.0Q3377 206 3394.0 221.0Q3411 236 3411 265Q3411 245 3426.5 233.5Q3442 222 3464.5 218.0Q3487 214 3509.5 218.0Q3532 222 3547.5 233.5Q3563 245 3563 265Q3563 236 3577.0 221.5Q3591 207 3609.5 207.0Q3628 207 3641.5 221.5Q3655 236 3655 266Q3658 240 3669.5 228.5Q3681 217 3694.5 218.5Q3708 220 3717.0 234.0Q3726 248 3723 273Q3732 241 3747.0 233.0Q3762 225 3770.5 239.5Q3779 254 3770 286Q3784 269 3803.0 269.0Q3822 269 3837.0 281.5Q3852 294 3856.5 312.0Q3861 330 3847 348Q3874 342 3890.5 353.5Q3907 365 3911.5 384.0Q3916 403 3906.5 421.0Q3897 439 3870 445Q3893 453 3901.0 467.0Q3909 481 3904.0 494.0Q3899 507 3884.0 513.0Q3869 519 3846 510Q3869 540 3866.0 558.5Q3863 577 3844.0 576.0Q3825 575 3802 545Q3813 559 3814 574Q3840 584 3859.0 606.0Q3878 628 3866 649Q3890 643 3905.0 649.5Q3920 656 3923.5 669.0Q3927 682 3918.0 695.0Q3909 708 3885 715Q3913 721 3924.5 737.0Q3936 753 3932.5 770.5Q3929 788 3912.5 799.0Q3896 810 3867 804Q3887 823 3887.0 843.0Q3887 863 3874.0 876.5Q3861 890 3841.0 890.5Q3821 891 3801 872Q3814 903 3809.5 917.5Q3805 932 3791.0 925.5Q3777 919 3764 888Q3767 910 3752.5 925.0Q3738 940 3715.5 947.0Q3693 954 3669.5 952.0Q3646 950 3629.0 938.5Q3612 927 3609 905Q3609 932 3593.0 946.0Q3577 960 3555.5 960.0Q3534 960 3518.0 946.0Q3502 932 3502 905Q3502 928 3489.5 939.5Q3477 951 3460.0 951.0Q3443 951 3430.5 939.5Q3418 928 3418 905Q3418 924 3405.5 933.5Q3393 943 3374.0 941.0Q3355 939 3336.5 922.0Q3318 905 3305.5 869.5Q3293 834 3294 776ZM3484 460Q3500 460 3507.5 473.5Q3515 487 3517.0 503.0Q3519 519 3519 526Q3521 510 3533.0 504.0Q3545 498 3558.0 502.5Q3571 507 3574 521Q3572 503 3591.0 494.5Q3610 486 3625 493Q3623 482 3629.5 470.5Q3636 459 3648 455Q3638 449 3632.5 435.5Q3627 422 3629 411Q3621 417 3615.5 413.0Q3610 409 3612 398Q3600 413 3576.5 411.5Q3553 410 3543 394Q3543 406 3534.0 414.5Q3525 423 3513 423Q3518 435 3510.5 447.5Q3503 460 3484 460ZM3575 793Q3574 776 3588.5 769.5Q3603 763 3617 767Q3612 750 3619.5 730.5Q3627 711 3642 701Q3626 694 3613.0 679.5Q3600 665 3598 650Q3590 663 3572.0 666.0Q3554 669 3538 664Q3541 680 3529.5 694.0Q3518 708 3500 706Q3515 715 3520.0 735.0Q3525 755 3522 771Q3537 764 3556.0 769.5Q3575 775 3575 793ZM4108 906Q4097 919 4081.0 916.0Q4065 913 4051.5 901.0Q4038 889 4033.0 873.5Q4028 858 4039 846Q4021 853 4008.5 847.5Q3996 842 3991.0 830.5Q3986 819 3991.5 806.0Q3997 793 4015 786Q3994 788 3982.5 777.0Q3971 766 3969.5 750.0Q3968 734 3977.5 721.0Q3987 708 4008 706Q3988 706 3978.0 691.0Q3968 676 3968.0 656.0Q3968 636 3978.0 621.0Q3988 606 4008 606Q3985 606 3977.5 596.0Q3970 586 3977.5 576.0Q3985 566 4008 566Q3983 566 3974.5 553.0Q3966 540 3974.5 527.0Q3983 514 4008 514Q3986 509 3978.0 495.0Q3970 481 3973.5 466.5Q3977 452 3990.5 443.5Q4004 435 4026 440Q4026 422 4040.5 411.5Q4055 401 4076.5 397.5Q4098 394 4119.0 397.5Q4140 401 4154.5 411.5Q4169 422 4169 440Q4189 428 4204.0 437.0Q4219 446 4221.0 463.5Q4223 481 4203 493Q4216 493 4222.5 505.0Q4229 517 4229.0 533.0Q4229 549 4222.5 561.0Q4216 573 4203 573Q4218 573 4226.0 586.0Q4234 599 4234.0 616.0Q4234 633 4226.0 646.5Q4218 660 4203 660Q4218 659 4226.5 670.0Q4235 681 4235.5 696.5Q4236 712 4229 723Q4247 721 4269.5 730.0Q4292 739 4305 753Q4309 742 4317.5 733.5Q4326 725 4336 723Q4321 715 4325.5 699.0Q4330 683 4353 683Q4339 683 4331.5 665.0Q4324 647 4324.0 623.5Q4324 600 4331.5 582.5Q4339 565 4353 565Q4333 565 4326.5 554.0Q4320 543 4326.5 532.0Q4333 521 4353 521Q4338 519 4331.5 506.0Q4325 493 4327.0 477.0Q4329 461 4338.0 449.5Q4347 438 4363 440Q4363 418 4374.5 407.0Q4386 396 4400.5 396.0Q4415 396 4426.5 407.0Q4438 418 4438 440Q4438 417 4451.0 409.5Q4464 402 4477.0 409.5Q4490 417 4490 440Q4498 425 4511.0 423.0Q4524 421 4535.5 427.5Q4547 434 4551.5 446.5Q4556 459 4547 474Q4567 474 4577.0 484.0Q4587 494 4587.0 507.5Q4587 521 4577.0 531.5Q4567 542 4547 542Q4572 542 4580.0 555.5Q4588 569 4580.0 583.0Q4572 597 4547 597Q4563 597 4571.0 614.5Q4579 632 4579.0 655.0Q4579 678 4571.0 695.5Q4563 713 4547 713Q4567 713 4576.5 727.5Q4586 742 4586.0 761.0Q4586 780 4576.5 794.0Q4567 808 4547 808Q4559 811 4562.0 827.5Q4565 844 4560.5 864.5Q4556 885 4546.5 899.0Q4537 913 4525 910Q4525 936 4511.0 944.5Q4497 953 4483.0 944.5Q4469 936 4469 910Q4469 935 4454.5 943.5Q4440 952 4425.0 944.0Q4410 936 4410 910Q4403 931 4392.0 937.0Q4381 943 4372.5 936.0Q4364 929 4365 912Q4357 928 4335.5 933.0Q4314 938 4295.0 930.5Q4276 923 4276 903Q4277 917 4262.0 926.5Q4247 936 4221.5 938.0Q4196 940 4166.0 933.0Q4136 926 4108 906ZM5004 918Q4996 936 4978.0 939.0Q4960 942 4940.5 934.5Q4921 927 4909 913Q4902 922 4889.5 924.5Q4877 927 4863 916Q4859 944 4847.0 952.0Q4835 960 4825.0 950.0Q4815 940 4819 914Q4816 930 4797.5 938.0Q4779 946 4755.5 945.5Q4732 945 4714.5 936.0Q4697 927 4697 910Q4676 914 4667.0 904.0Q4658 894 4662.0 881.0Q4666 868 4687 864Q4658 864 4648.0 854.0Q4638 844 4648.0 834.0Q4658 824 4687 824Q4673 824 4665.0 809.5Q4657 795 4654.0 773.5Q4651 752 4654.0 730.5Q4657 709 4665.0 694.5Q4673 680 4687 680Q4668 680 4658.0 660.5Q4648 641 4648.0 616.0Q4648 591 4658.0 571.5Q4668 552 4687 552Q4666 552 4656.0 538.5Q4646 525 4646.0 508.0Q4646 491 4656.0 477.5Q4666 464 4687 464Q4671 464 4663.5 444.0Q4656 424 4656.0 398.0Q4656 372 4663.5 352.0Q4671 332 4687 332Q4671 332 4662.5 320.0Q4654 308 4654.0 292.0Q4654 276 4662.5 264.0Q4671 252 4687 252Q4687 236 4703.0 227.0Q4719 218 4740.5 218.0Q4762 218 4778.5 226.0Q4795 234 4795 250Q4795 231 4807.5 221.5Q4820 212 4836.5 211.5Q4853 211 4865.5 220.5Q4878 230 4878 250Q4904 251 4912.0 264.0Q4920 277 4910.5 289.0Q4901 301 4876 300Q4895 300 4904.5 312.0Q4914 324 4914.0 340.0Q4914 356 4904.5 368.0Q4895 380 4876 380Q4893 380 4901.5 386.5Q4910 393 4911 401Q4928 401 4943.0 411.5Q4958 422 4956 438Q4961 425 4981.5 417.5Q5002 410 5026.5 409.0Q5051 408 5069.5 415.0Q5088 422 5089 437Q5098 425 5118.5 431.5Q5139 438 5159.5 454.5Q5180 471 5191.0 489.0Q5202 507 5193 519Q5213 515 5227.5 531.0Q5242 547 5247.5 571.0Q5253 595 5247.0 615.5Q5241 636 5221 641Q5238 641 5246.0 655.5Q5254 670 5254.0 689.0Q5254 708 5245.0 722.0Q5236 736 5219 736Q5235 741 5237.5 760.0Q5240 779 5233.5 801.0Q5227 823 5214.0 837.0Q5201 851 5186 846Q5197 859 5193.5 873.0Q5190 887 5178.5 897.5Q5167 908 5153.0 910.0Q5139 912 5127 900Q5132 921 5119.5 934.0Q5107 947 5086.0 951.0Q5065 955 5042.5 947.0Q5020 939 5004 918ZM4875 657Q4890 657 4895.0 664.0Q4900 671 4895.0 678.0Q4890 685 4875 685Q4885 684 4890.5 694.0Q4896 704 4896.5 716.5Q4897 729 4891 736Q4902 734 4916.5 740.5Q4931 747 4944.5 758.0Q4958 769 4965 779Q4965 765 4982.0 748.0Q4999 731 5012 731Q5002 724 5000.5 707.5Q4999 691 5005.5 677.0Q5012 663 5025 664Q5016 663 5010.0 650.0Q5004 637 5002.0 621.5Q5000 606 5005 597Q4995 602 4984.0 595.5Q4973 589 4971 578Q4963 590 4947.5 590.5Q4932 591 4924 580Q4923 588 4918.0 591.0Q4913 594 4906 590Q4911 601 4904.5 613.0Q4898 625 4886 626Q4903 631 4900.0 644.5Q4897 658 4875 657ZM5665 918Q5657 936 5639.0 939.0Q5621 942 5601.5 934.5Q5582 927 5570 913Q5563 922 5550.5 924.5Q5538 927 5524 916Q5520 944 5508.0 952.0Q5496 960 5486.0 950.0Q5476 940 5480 914Q5477 930 5458.5 938.0Q5440 946 5416.5 945.5Q5393 945 5375.5 936.0Q5358 927 5358 910Q5337 914 5328.0 904.0Q5319 894 5323.0 881.0Q5327 868 5348 864Q5319 864 5309.0 854.0Q5299 844 5309.0 834.0Q5319 824 5348 824Q5334 824 5326.0 809.5Q5318 795 5315.0 773.5Q5312 752 5315.0 730.5Q5318 709 5326.0 694.5Q5334 680 5348 680Q5329 680 5319.0 660.5Q5309 641 5309.0 616.0Q5309 591 5319.0 571.5Q5329 552 5348 552Q5327 552 5317.0 538.5Q5307 525 5307.0 508.0Q5307 491 5317.0 477.5Q5327 464 5348 464Q5332 464 5324.5 444.0Q5317 424 5317.0 398.0Q5317 372 5324.5 352.0Q5332 332 5348 332Q5332 332 5323.5 320.0Q5315 308 5315.0 292.0Q5315 276 5323.5 264.0Q5332 252 5348 252Q5348 236 5364.0 227.0Q5380 218 5401.5 218.0Q5423 218 5439.5 226.0Q5456 234 5456 250Q5456 231 5468.5 221.5Q5481 212 5497.5 211.5Q5514 211 5526.5 220.5Q5539 230 5539 250Q5565 251 5573.0 264.0Q5581 277 5571.5 289.0Q5562 301 5537 300Q5556 300 5565.5 312.0Q5575 324 5575.0 340.0Q5575 356 5565.5 368.0Q5556 380 5537 380Q5554 380 5562.5 386.5Q5571 393 5572 401Q5589 401 5604.0 411.5Q5619 422 5617 438Q5622 425 5642.5 417.5Q5663 410 5687.5 409.0Q5712 408 5730.5 415.0Q5749 422 5750 437Q5759 425 5779.5 431.5Q5800 438 5820.5 454.5Q5841 471 5852.0 489.0Q5863 507 5854 519Q5874 515 5888.5 531.0Q5903 547 5908.5 571.0Q5914 595 5908.0 615.5Q5902 636 5882 641Q5899 641 5907.0 655.5Q5915 670 5915.0 689.0Q5915 708 5906.0 722.0Q5897 736 5880 736Q5896 741 5898.5 760.0Q5901 779 5894.5 801.0Q5888 823 5875.0 837.0Q5862 851 5847 846Q5858 859 5854.5 873.0Q5851 887 5839.5 897.5Q5828 908 5814.0 910.0Q5800 912 5788 900Q5793 921 5780.5 934.0Q5768 947 5747.0 951.0Q5726 955 5703.5 947.0Q5681 939 5665 918ZM5536 657Q5551 657 5556.0 664.0Q5561 671 5556.0 678.0Q5551 685 5536 685Q5546 684 5551.5 694.0Q5557 704 5557.5 716.5Q5558 729 5552 736Q5563 734 5577.5 740.5Q5592 747 5605.5 758.0Q5619 769 5626 779Q5626 765 5643.0 748.0Q5660 731 5673 731Q5663 724 5661.5 707.5Q5660 691 5666.5 677.0Q5673 663 5686 664Q5677 663 5671.0 650.0Q5665 637 5663.0 621.5Q5661 606 5666 597Q5656 602 5645.0 595.5Q5634 589 5632 578Q5624 590 5608.5 590.5Q5593 591 5585 580Q5584 588 5579.0 591.0Q5574 594 5567 590Q5572 601 5565.5 613.0Q5559 625 5547 626Q5564 631 5561.0 644.5Q5558 658 5536 657ZM6009 904Q5996 904 5988.5 890.0Q5981 876 5978.0 855.0Q5975 834 5978.0 813.0Q5981 792 5988.5 778.0Q5996 764 6009 764Q5990 764 5980.5 747.0Q5971 730 5971.0 708.0Q5971 686 5980.5 669.0Q5990 652 6009 652Q5989 652 5979.0 642.5Q5969 633 5969.0 620.0Q5969 607 5979.0 597.5Q5989 588 6009 588Q5989 588 5979.0 569.5Q5969 551 5969.0 526.0Q5969 501 5979.0 482.5Q5989 464 6009 464Q5988 464 5977.5 453.5Q5967 443 5967.0 430.0Q5967 417 5977.5 406.5Q5988 396 6009 396Q5994 396 5984.5 382.0Q5975 368 5972.0 347.0Q5969 326 5972.0 305.0Q5975 284 5984.5 270.0Q5994 256 6009 256Q6005 233 6013.5 224.0Q6022 215 6032.5 221.0Q6043 227 6047 250Q6047 233 6061.5 223.0Q6076 213 6097.0 209.5Q6118 206 6139.5 209.5Q6161 213 6175.5 223.0Q6190 233 6190 250Q6209 250 6218.5 269.5Q6228 289 6228.5 314.5Q6229 340 6220.0 360.0Q6211 380 6192 380Q6208 380 6218.0 395.0Q6228 410 6231.0 432.0Q6234 454 6231.0 476.0Q6228 498 6218.0 513.0Q6208 528 6192 528Q6211 528 6220.5 539.0Q6230 550 6230.0 564.0Q6230 578 6220.5 589.0Q6211 600 6192 600Q6207 600 6215.0 610.5Q6223 621 6223.0 634.0Q6223 647 6215.0 657.5Q6207 668 6192 668Q6211 668 6220.5 688.5Q6230 709 6230.0 736.0Q6230 763 6220.5 783.5Q6211 804 6192 804Q6212 804 6221.5 816.0Q6231 828 6231.0 844.0Q6231 860 6221.5 872.0Q6212 884 6192 884Q6205 902 6199.5 915.0Q6194 928 6180.5 928.0Q6167 928 6154 910Q6154 939 6138.0 948.5Q6122 958 6106.5 948.5Q6091 939 6091 910Q6091 926 6078.5 934.0Q6066 942 6050.5 941.5Q6035 941 6022.5 931.5Q6010 922 6009 904ZM6520 917Q6514 938 6498.0 944.5Q6482 951 6464.5 946.5Q6447 942 6436.0 928.0Q6425 914 6431 893Q6420 908 6405.0 909.5Q6390 911 6377.5 902.0Q6365 893 6361.5 878.5Q6358 864 6370 848Q6355 855 6340.0 841.5Q6325 828 6315.0 805.5Q6305 783 6305.0 763.0Q6305 743 6320 736Q6302 736 6293.0 719.0Q6284 702 6284.0 679.0Q6284 656 6293.0 639.0Q6302 622 6319 622Q6292 614 6287.0 598.0Q6282 582 6294.5 571.0Q6307 560 6334 568Q6325 560 6328.5 544.5Q6332 529 6344.0 512.0Q6356 495 6371.0 481.5Q6386 468 6400.5 462.0Q6415 456 6424 464Q6419 447 6433.5 434.0Q6448 421 6470.0 414.5Q6492 408 6511.0 411.5Q6530 415 6535 432Q6536 413 6557.5 405.5Q6579 398 6605.5 400.0Q6632 402 6652.0 413.0Q6672 424 6670 443Q6678 424 6692.5 422.5Q6707 421 6716.5 432.0Q6726 443 6719 462Q6730 451 6748.5 458.5Q6767 466 6784.5 483.0Q6802 500 6809.5 519.0Q6817 538 6806 549Q6821 546 6833.5 559.0Q6846 572 6853.5 593.0Q6861 614 6862.0 636.5Q6863 659 6857.0 676.0Q6851 693 6835 696Q6864 709 6861.0 715.5Q6858 722 6829 709Q6829 722 6812.5 728.5Q6796 735 6775.0 735.0Q6754 735 6737.5 728.5Q6721 722 6721 709Q6721 726 6706.0 734.5Q6691 743 6671.5 743.5Q6652 744 6637.0 735.5Q6622 727 6622 711Q6623 728 6605.5 738.5Q6588 749 6566 751Q6576 763 6582.5 776.5Q6589 790 6591 801Q6601 790 6621.0 782.0Q6641 774 6662.0 772.0Q6683 770 6699.5 774.5Q6716 779 6719 793Q6719 776 6732.5 767.0Q6746 758 6764.0 758.0Q6782 758 6795.5 767.0Q6809 776 6809 793Q6829 797 6833.0 809.5Q6837 822 6828.0 831.5Q6819 841 6800 837Q6809 850 6803.0 863.5Q6797 877 6783.5 886.5Q6770 896 6755.5 897.0Q6741 898 6732 886Q6738 905 6726.5 919.0Q6715 933 6696.0 939.0Q6677 945 6659.5 939.5Q6642 934 6636 915Q6638 942 6621.5 952.0Q6605 962 6577.5 953.5Q6550 945 6520 917ZM6561 634Q6561 614 6572.0 611.5Q6583 609 6587 624Q6590 615 6599.0 607.0Q6608 599 6618 596Q6606 587 6598.0 570.0Q6590 553 6593 540Q6584 545 6571.5 546.0Q6559 547 6550 543Q6553 554 6549.0 569.0Q6545 584 6536.5 596.0Q6528 608 6517 609Q6530 612 6536.5 623.0Q6543 634 6561 634ZM7090 912Q7084 939 7072.0 945.0Q7060 951 7052.5 940.0Q7045 929 7051 903Q7044 918 7028.0 919.5Q7012 921 6996.5 913.5Q6981 906 6972.5 892.5Q6964 879 6971 863Q6955 858 6950.5 845.5Q6946 833 6950.5 820.5Q6955 808 6966.5 801.0Q6978 794 6994 800Q6994 785 7006.0 777.5Q7018 770 7033.5 770.0Q7049 770 7061.0 777.5Q7073 785 7073 800Q7076 785 7094.0 779.0Q7112 773 7136.0 775.0Q7160 777 7179 786Q7180 779 7185 775Q7180 766 7185 753Q7174 762 7153.0 762.0Q7132 762 7110.5 755.0Q7089 748 7076.0 736.0Q7063 724 7066 710Q7059 730 7046.0 733.0Q7033 736 7025.0 725.5Q7017 715 7024 694Q7013 702 6998.5 693.5Q6984 685 6969.5 668.0Q6955 651 6945.0 631.0Q6935 611 6933.0 594.0Q6931 577 6942 570Q6931 564 6932.5 548.0Q6934 532 6943.5 515.0Q6953 498 6965.5 488.0Q6978 478 6989 484Q6979 467 6987.5 454.0Q6996 441 7011.0 439.5Q7026 438 7037 455Q7034 439 7046.5 427.0Q7059 415 7079.0 408.0Q7099 401 7120.5 400.5Q7142 400 7158.0 407.0Q7174 414 7177 430Q7179 411 7192.5 403.5Q7206 396 7221.5 398.0Q7237 400 7248.0 411.0Q7259 422 7256 440Q7262 421 7273.5 417.5Q7285 414 7293.0 423.0Q7301 432 7295 451Q7303 436 7320.0 436.0Q7337 436 7353.5 445.0Q7370 454 7378.5 469.0Q7387 484 7378 499Q7401 506 7404.5 521.0Q7408 536 7396.5 546.5Q7385 557 7363 550Q7363 568 7349.0 576.5Q7335 585 7317.0 585.0Q7299 585 7285.5 576.5Q7272 568 7272 550Q7269 562 7254.5 566.0Q7240 570 7221.0 567.5Q7202 565 7185 558Q7186 571 7176 582Q7198 587 7217.0 600.0Q7236 613 7231 626Q7234 612 7248.0 607.0Q7262 602 7278.0 605.5Q7294 609 7305.0 619.0Q7316 629 7313 643Q7320 635 7335.5 639.5Q7351 644 7368.5 656.5Q7386 669 7401.0 684.5Q7416 700 7423.0 714.5Q7430 729 7423 737Q7444 736 7454.0 746.0Q7464 756 7464.5 769.0Q7465 782 7455.5 792.0Q7446 802 7426 803Q7438 812 7435.5 828.0Q7433 844 7421.5 859.0Q7410 874 7395.5 880.5Q7381 887 7368 878Q7376 896 7369.0 909.0Q7362 922 7348.0 928.0Q7334 934 7319.5 929.0Q7305 924 7298 907Q7300 925 7280.5 936.0Q7261 947 7229.0 949.0Q7197 951 7160.5 942.0Q7124 933 7090 912Z" fill="currentColor" /></svg>