<svg viewBox="0 0 2904 1155" xmlns="http://www.w3.org/2000/svg"><path d="M113 232Q202 220 296.5 220.0Q391 220 447.0 267.0Q503 314 503 399Q503 544 356 584L456 781Q480 830 500.5 849.5Q521 869 550 869L553 917Q549 921 513.5 921.0Q478 921 450.0 895.5Q422 870 395 816L283 596Q268 599 248 599H186V914H110ZM186 536H250Q423 536 423 403Q423 286 285 286Q229 286 186 292ZM661 513Q661 465 649 442L706 432Q723 436 727.5 452.0Q732 468 732 485Q732 497 728.0 622.5Q724 748 724.0 762.0Q724 776 725.5 793.5Q727 811 735 830Q749 869 803 869Q843 869 871.5 840.5Q900 812 913 765Q938 680 938 579V444H1005V717Q1005 806 1018.0 839.5Q1031 873 1076 873L1078 918Q1062 922 1038 922Q988 922 968.5 892.5Q949 863 949 824Q949 813 950 801H944Q928 862 885.5 894.0Q843 926 774.5 926.0Q706 926 679.0 884.0Q652 842 652 769Q652 760 656.5 640.0Q661 520 661 513ZM1196 828V181L1268 169V787Q1268 840 1276.0 855.5Q1284 871 1322 871L1324 915Q1308 922 1270.0 922.0Q1232 922 1214.0 900.0Q1196 878 1196 828ZM1458 513Q1458 465 1446 442L1503 432Q1520 436 1524.5 452.0Q1529 468 1529 485Q1529 497 1525.0 622.5Q1521 748 1521.0 762.0Q1521 776 1522.5 793.5Q1524 811 1532 830Q1546 869 1600 869Q1640 869 1668.5 840.5Q1697 812 1710 765Q1735 680 1735 579V444H1802V717Q1802 806 1815.0 839.5Q1828 873 1873 873L1875 918Q1859 922 1835 922Q1785 922 1765.5 892.5Q1746 863 1746 824Q1746 813 1747 801H1741Q1725 862 1682.5 894.0Q1640 926 1571.5 926.0Q1503 926 1476.0 884.0Q1449 842 1449 769Q1449 760 1453.5 640.0Q1458 520 1458 513ZM1991 914V181L2059 169L2060 444Q2060 497 2052 543H2058Q2075 492 2116.0 462.0Q2157 432 2212.0 432.0Q2267 432 2302.5 462.0Q2338 492 2338.0 546.5Q2338 601 2295.0 637.5Q2252 674 2188 688L2246 789Q2273 835 2295.0 853.5Q2317 872 2347 872L2349 917Q2343 922 2319 922Q2271 922 2242.0 897.5Q2213 873 2186 821L2108 672V654Q2171 654 2217.0 626.0Q2263 598 2263 546Q2263 518 2244.5 503.0Q2226 488 2197 488Q2150 488 2117 523Q2059 586 2059 708V914ZM2636 873Q2686 873 2718.0 842.0Q2750 811 2761.5 767.0Q2773 723 2773 666Q2773 487 2646 487Q2599 487 2568 517Q2512 570 2512 686Q2512 873 2636 873ZM2848.0 667.0Q2848 777 2792.5 851.5Q2737 926 2632.5 926.0Q2528 926 2484.0 865.5Q2440 805 2440.0 688.0Q2440 571 2491.0 501.5Q2542 432 2645.0 432.0Q2748 432 2798.0 494.5Q2848 557 2848.0 667.0Z" fill="currentColor" /></svg>