<svg viewBox="0 0 3983 2560" xmlns="http://www.w3.org/2000/svg"><path d="M565 2008Q514 2040 449.0 2040.0Q384 2040 333 2008Q282 2040 238.5 2040.0Q195 2040 167.0 2032.5Q139 2025 118 2012Q75 1986 75 1947Q75 1927 86 1912Q108 1929 142 1929Q231 1929 265 1853V1364Q265 1318 246 1296Q216 1259 143 1223Q211 1192 231 1168Q265 1129 265 1080V658Q231 581 142 581Q108 581 86 598Q75 583 75.0 563.5Q75 544 86.5 527.0Q98 510 118 498Q164 470 223.5 470.0Q283 470 333 503Q385 470 449.0 470.0Q513 470 565 503Q678 460 815.5 460.0Q953 460 1046.0 485.0Q1139 510 1206 556Q1341 649 1374 815Q1387 889 1469 927Q1391 971 1367 1067Q1318 1265 1122 1314Q1223 1341 1287 1425Q1353 1512 1353 1630V1730Q1353 1874 1446 1916Q1474 1929 1507.0 1929.0Q1540 1929 1562 1912Q1573 1927 1573.0 1946.5Q1573 1966 1563.0 1983.0Q1553 2000 1536 2012Q1500 2040 1452.0 2040.0Q1404 2040 1358 2014Q1274 2060 1201 2023Q1173 2040 1142.0 2040.0Q1111 2040 1082.5 2026.0Q1054 2012 1032 1980Q985 1911 985 1768V1694Q985 1463 853 1394Q809 1371 750 1371H633V1858Q660 1929 736 1929Q770 1929 792 1912Q803 1927 803.0 1956.0Q803 1985 771.5 2012.5Q740 2040 677.0 2040.0Q614 2040 565 2008ZM825 593Q633 593 633 742V1151Q633 1203 674 1221Q713 1238 789.5 1238.0Q866 1238 896.5 1229.5Q927 1221 949 1200Q994 1157 994 1056V764Q994 639 890 604Q859 593 825 593ZM1061 657Q1092 727 1092 881Q1092 1146 1067 1198Q1122 1187 1146 1051L1154 1010Q1165 945 1218 927Q1179 914 1168 896Q1156 875 1146.5 824.5Q1137 774 1127.0 743.0Q1117 712 1106 694Q1087 662 1061 657ZM361 1755Q411 1736 416 1624Q422 1512 422.0 1314.0Q422 1116 421.5 1050.5Q421 985 420 945Q417 827 397.5 802.5Q378 778 361 770Q361 1118 349 1166Q335 1206 281 1223Q341 1244 349 1274Q361 1322 361 1625ZM1051 1481Q1091 1526 1091 1591V1723Q1091 1889 1157 1900Q1175 1903 1192 1899Q1156 1843 1156 1781V1641Q1156 1562 1134 1529Q1096 1473 1051 1481ZM2816 989Q2794 975 2746 975Q2650 975 2601 1105L2570 1192Q2536 1287 2535.5 1322.0Q2535 1357 2547.5 1378.5Q2560 1400 2604 1423Q2496 1453 2457 1524Q2445 1546 2436 1570L2270 2021Q2173 2300 2090 2399Q2014 2490 1900 2490Q1813 2490 1736 2434Q1648 2371 1648 2286Q1648 2233 1676.0 2205.5Q1704 2178 1727.5 2178.0Q1751 2178 1760.0 2178.5Q1769 2179 1778 2182Q1796 2190 1812 2218Q1791 2258 1839 2306Q1884 2353 1923.5 2353.0Q1963 2353 1989.5 2338.0Q2016 2323 2037 2292Q2083 2224 2083 2097Q2083 2028 2046 1945Q2036 1917 2022 1886L1880 1566Q1857 1515 1810.5 1475.5Q1764 1436 1706 1423Q1775 1388 1775 1331Q1775 1290 1742 1210L1683 1068Q1657 1010 1640 995Q1610 971 1570.5 971.0Q1531 971 1509 988Q1497 976 1496.5 953.0Q1496 930 1502.0 914.5Q1508 899 1522 887Q1552 860 1608.5 860.0Q1665 860 1715 896Q1756 860 1815.0 860.0Q1874 860 1919 893Q1964 860 2020.0 860.0Q2076 860 2108.5 886.5Q2141 913 2142 939Q2143 978 2129 992Q2105 974 2079.0 974.0Q2053 974 2036.5 989.0Q2020 1004 2022 1038L2253 1662L2472 1021Q2461 970 2399 970Q2360 970 2325 989Q2315 970 2315.5 940.0Q2316 910 2343.5 885.0Q2371 860 2418.5 860.0Q2466 860 2500 892Q2536 860 2581.0 860.0Q2626 860 2663 888Q2697 860 2738.5 860.0Q2780 860 2804.5 884.0Q2829 908 2828 934Q2826 974 2816 989ZM1853 1089Q1830 1104 1830.5 1127.0Q1831 1150 1832.5 1162.5Q1834 1175 1838 1192Q1847 1224 1874.5 1286.5Q1902 1349 1903.5 1364.5Q1905 1380 1893.0 1398.5Q1881 1417 1864 1423Q1928 1435 1943 1468Q1950 1482 1963 1512L2031 1664Q2051 1710 2073 1755Q2114 1705 2037 1525ZM3728 1718Q3750 1676 3809 1676Q3849 1676 3871 1709Q3889 1735 3889.0 1772.5Q3889 1810 3870.0 1848.0Q3851 1886 3818.0 1917.0Q3785 1948 3742.5 1972.0Q3700 1996 3652 2012Q3553 2045 3446.0 2045.0Q3339 2045 3245.5 2009.5Q3152 1974 3085 1910Q2954 1784 2925 1564Q2918 1515 2902 1494Q2872 1457 2803 1423Q2890 1384 2914 1298Q2921 1274 2925 1250Q2950 1074 3103 950Q3251 830 3434 830Q3624 830 3763 964Q3907 1102 3907 1303Q3907 1310 3906.5 1317.0Q3906 1324 3907 1330Q3909 1343 3923 1345Q3941 1368 3941 1394Q3941 1454 3877 1465Q3861 1468 3827 1473L3263 1563V1659Q3263 1775 3333 1843Q3399 1908 3500 1908Q3607 1908 3672 1864Q3733 1822 3733 1754Q3733 1738 3728 1718ZM3553 1395V1115Q3553 1049 3527 1018Q3481 965 3436.0 965.0Q3391 965 3361.0 978.5Q3331 992 3309 1021Q3263 1082 3263 1211V1442ZM3701 1370V1339Q3701 1153 3670 1114Q3656 1097 3639 1089V1380ZM3100 1755Q3114 1744 3114 1730Q3114 1708 3105 1674Q3064 1517 3064.0 1455.5Q3064 1394 3068.0 1359.5Q3072 1325 3079 1290Q3091 1222 3105 1170Q3114 1136 3114 1124Q3114 1100 3100 1089Q3058 1139 3036.0 1223.0Q3014 1307 3000 1371Q2995 1398 2941 1423Q2995 1448 3000 1473Q3037 1642 3061.0 1688.0Q3085 1734 3100 1755Z" fill="currentColor" /></svg>