<svg viewBox="0 0 8174 1550" xmlns="http://www.w3.org/2000/svg"><path d="M1714 450Q1711 464 1701.0 472.0Q1691 480 1679 480Q1661 480 1650.0 468.5Q1639 457 1639 442Q1639 427 1642.0 412.5Q1645 398 1645 384Q1645 311 1600.0 253.0Q1555 195 1472.5 155.5Q1390 116 1272.0 95.0Q1154 74 1009 74Q898 74 785.5 88.5Q673 103 569.5 130.5Q466 158 376.0 199.5Q286 241 219.5 295.5Q153 350 115.0 416.5Q77 483 77 562Q77 623 103.5 669.5Q130 716 176.0 750.5Q222 785 284.5 809.5Q347 834 420.0 850.5Q493 867 572.0 877.5Q651 888 731 895L885 908Q1000 918 1091.0 929.0Q1182 940 1251 957Q1366 986 1421.0 1040.0Q1476 1094 1476 1184Q1476 1271 1428.0 1337.0Q1380 1403 1297.0 1448.0Q1214 1493 1103.0 1516.0Q992 1539 865 1539Q727 1539 622.5 1520.5Q518 1502 447.5 1479.5Q377 1457 340.0 1438.0Q303 1419 300 1417Q282 1407 282 1385Q282 1368 294.0 1357.5Q306 1347 320 1347Q331 1347 340 1353Q341 1353 374.5 1370.5Q408 1388 474.5 1409.0Q541 1430 639.0 1447.0Q737 1464 867 1464Q996 1464 1095.0 1443.0Q1194 1422 1261.5 1384.5Q1329 1347 1363.5 1296.5Q1398 1246 1398 1187Q1398 1152 1385.5 1126.5Q1373 1101 1351.0 1082.5Q1329 1064 1298.5 1051.0Q1268 1038 1232 1029Q1194 1019 1150.5 1012.0Q1107 1005 1061.0 1000.0Q1015 995 968.5 991.0Q922 987 877 983L723 970Q541 955 405.5 923.5Q270 892 180.0 842.5Q90 793 45.0 724.0Q0 655 0 563Q0 469 42.5 390.5Q85 312 158.5 249.0Q232 186 330.5 139.5Q429 93 541.0 62.0Q653 31 773.0 15.5Q893 0 1009 0Q1154 0 1261.5 17.5Q1369 35 1445.5 62.5Q1522 90 1571.0 125.0Q1620 160 1650 194Q1721 277 1721 383Q1721 418 1714 450ZM2392 1221Q2388 1229 2375.5 1254.5Q2363 1280 2343.5 1313.0Q2324 1346 2298.0 1382.0Q2272 1418 2240.0 1448.0Q2208 1478 2171.0 1497.5Q2134 1517 2093 1517Q2035 1517 1995.5 1480.0Q1956 1443 1938 1387Q1904 1444 1857.0 1477.5Q1810 1511 1763 1511Q1726 1511 1696.0 1497.5Q1666 1484 1645.0 1459.5Q1624 1435 1612.5 1402.0Q1601 1369 1601 1330Q1601 1252 1627.5 1192.5Q1654 1133 1695.0 1093.0Q1736 1053 1785.5 1033.0Q1835 1013 1881 1013Q1912 1013 1938.0 1021.5Q1964 1030 1982.5 1040.0Q2001 1050 2011.0 1058.5Q2021 1067 2022 1068Q2033 1081 2033 1095Q2033 1110 2022.0 1121.5Q2011 1133 1996 1133Q1980 1133 1969 1122Q1967 1120 1960.0 1114.5Q1953 1109 1941.0 1103.0Q1929 1097 1912.5 1092.5Q1896 1088 1875 1088Q1844 1088 1809.0 1102.0Q1774 1116 1745.0 1145.5Q1716 1175 1696.5 1219.5Q1677 1264 1677 1325Q1677 1344 1681.0 1363.5Q1685 1383 1695.0 1399.0Q1705 1415 1722.0 1425.0Q1739 1435 1764 1435Q1782 1435 1805.5 1423.0Q1829 1411 1850.5 1386.0Q1872 1361 1889.5 1323.0Q1907 1285 1914 1233Q1916 1219 1927.0 1209.5Q1938 1200 1953 1200Q1967 1200 1977.5 1211.0Q1988 1222 1989 1236Q1990 1255 1993.0 1289.5Q1996 1324 2006.5 1358.0Q2017 1392 2038.0 1417.0Q2059 1442 2096 1442Q2120 1442 2143.5 1429.0Q2167 1416 2189.5 1394.5Q2212 1373 2232.5 1345.5Q2253 1318 2270.0 1290.0Q2287 1262 2300.0 1236.0Q2313 1210 2322 1191Q2327 1180 2336.5 1174.0Q2346 1168 2357 1168Q2374 1168 2384.5 1180.5Q2395 1193 2395 1207Q2395 1214 2392 1221ZM2977 1223Q2971 1234 2956.5 1263.0Q2942 1292 2917.5 1328.5Q2893 1365 2859.0 1404.0Q2825 1443 2781.0 1475.5Q2737 1508 2682.5 1529.0Q2628 1550 2564 1550Q2507 1550 2463.0 1529.5Q2419 1509 2388.0 1471.5Q2357 1434 2341.0 1383.0Q2325 1332 2325 1270Q2325 1210 2342.0 1157.5Q2359 1105 2388.5 1066.0Q2418 1027 2457.0 1004.5Q2496 982 2540 982Q2573 982 2600.0 993.5Q2627 1005 2645.5 1024.0Q2664 1043 2674.5 1066.0Q2685 1089 2685 1112Q2685 1134 2679.5 1153.0Q2674 1172 2665.5 1186.5Q2657 1201 2646.0 1209.5Q2635 1218 2624 1218Q2607 1218 2596.5 1207.0Q2586 1196 2586 1180Q2586 1172 2589.5 1166.0Q2593 1160 2597.5 1153.5Q2602 1147 2605.5 1137.5Q2609 1128 2609 1113Q2609 1092 2589.5 1075.0Q2570 1058 2540 1058Q2512 1058 2486.5 1075.0Q2461 1092 2442.0 1120.5Q2423 1149 2411.5 1187.5Q2400 1226 2400 1269Q2400 1310 2410.0 1347.0Q2420 1384 2440.0 1412.5Q2460 1441 2490.5 1458.0Q2521 1475 2563 1475Q2617 1475 2663.0 1455.5Q2709 1436 2747.0 1406.0Q2785 1376 2814.0 1340.5Q2843 1305 2863.5 1273.5Q2884 1242 2895.5 1218.5Q2907 1195 2909 1189Q2913 1179 2922.5 1173.5Q2932 1168 2943 1168Q2960 1168 2970.5 1180.0Q2981 1192 2981 1207Q2981 1213 2977 1223ZM3014 1089Q3010 1116 3004.0 1139.5Q2998 1163 2992.5 1180.5Q2987 1198 2983.0 1209.0Q2979 1220 2978 1221Q2968 1244 2943 1244Q2929 1244 2917.0 1233.5Q2905 1223 2905 1207Q2905 1201 2907.0 1198.0Q2909 1195 2913.0 1186.0Q2917 1177 2923.0 1156.0Q2929 1135 2938 1091Q2921 1091 2903.0 1090.0Q2885 1089 2869.5 1083.0Q2854 1077 2844.0 1064.0Q2834 1051 2834 1028Q2834 1011 2843.5 982.0Q2853 953 2869.0 925.0Q2885 897 2905.0 876.5Q2925 856 2945 856Q2968 856 2982.5 873.0Q2997 890 3005.0 914.5Q3013 939 3016.5 966.0Q3020 993 3020 1013Q3037 1013 3053.5 1012.5Q3070 1012 3085 1012Q3142 1012 3172.0 1037.0Q3202 1062 3202 1119Q3202 1142 3199.0 1167.0Q3196 1192 3192.0 1218.5Q3188 1245 3185.0 1271.0Q3182 1297 3182 1322Q3182 1358 3192.0 1381.5Q3202 1405 3217.0 1419.0Q3232 1433 3249.0 1438.5Q3266 1444 3280 1444Q3323 1444 3361.0 1416.0Q3399 1388 3431.0 1348.5Q3463 1309 3488.5 1265.0Q3514 1221 3531 1188Q3536 1179 3545.0 1174.0Q3554 1169 3564 1169Q3582 1169 3592.0 1180.5Q3602 1192 3602 1206Q3602 1216 3598 1224Q3575 1265 3544.5 1316.5Q3514 1368 3475.0 1413.0Q3436 1458 3387.5 1489.0Q3339 1520 3281 1520Q3245 1520 3213.0 1506.5Q3181 1493 3157.5 1467.5Q3134 1442 3120.0 1404.5Q3106 1367 3106 1320Q3106 1270 3116.0 1220.5Q3126 1171 3126 1126Q3126 1107 3117.5 1097.5Q3109 1088 3080 1088Q3066 1088 3049.5 1088.0Q3033 1088 3014 1089ZM2947 1015Q2947 1008 2946.5 996.5Q2946 985 2944.5 974.0Q2943 963 2940.5 955.0Q2938 947 2935 947Q2932 947 2927.5 954.5Q2923 962 2918.0 972.5Q2913 983 2909.0 995.0Q2905 1007 2903 1015ZM4303 1221Q4299 1229 4286.5 1254.5Q4274 1280 4254.5 1313.0Q4235 1346 4209.0 1382.0Q4183 1418 4151.0 1448.0Q4119 1478 4082.0 1497.5Q4045 1517 4004 1517Q3946 1517 3906.5 1480.0Q3867 1443 3849 1387Q3815 1444 3768.0 1477.5Q3721 1511 3674 1511Q3637 1511 3607.0 1497.5Q3577 1484 3556.0 1459.5Q3535 1435 3523.5 1402.0Q3512 1369 3512 1330Q3512 1252 3538.5 1192.5Q3565 1133 3606.0 1093.0Q3647 1053 3696.5 1033.0Q3746 1013 3792 1013Q3823 1013 3849.0 1021.5Q3875 1030 3893.5 1040.0Q3912 1050 3922.0 1058.5Q3932 1067 3933 1068Q3944 1081 3944 1095Q3944 1110 3933.0 1121.5Q3922 1133 3907 1133Q3891 1133 3880 1122Q3878 1120 3871.0 1114.5Q3864 1109 3852.0 1103.0Q3840 1097 3823.5 1092.5Q3807 1088 3786 1088Q3755 1088 3720.0 1102.0Q3685 1116 3656.0 1145.5Q3627 1175 3607.5 1219.5Q3588 1264 3588 1325Q3588 1344 3592.0 1363.5Q3596 1383 3606.0 1399.0Q3616 1415 3633.0 1425.0Q3650 1435 3675 1435Q3693 1435 3716.5 1423.0Q3740 1411 3761.5 1386.0Q3783 1361 3800.5 1323.0Q3818 1285 3825 1233Q3827 1219 3838.0 1209.5Q3849 1200 3864 1200Q3878 1200 3888.5 1211.0Q3899 1222 3900 1236Q3901 1255 3904.0 1289.5Q3907 1324 3917.5 1358.0Q3928 1392 3949.0 1417.0Q3970 1442 4007 1442Q4031 1442 4054.5 1429.0Q4078 1416 4100.5 1394.5Q4123 1373 4143.5 1345.5Q4164 1318 4181.0 1290.0Q4198 1262 4211.0 1236.0Q4224 1210 4233 1191Q4238 1180 4247.5 1174.0Q4257 1168 4268 1168Q4285 1168 4295.5 1180.5Q4306 1193 4306 1207Q4306 1214 4303 1221ZM4465 1411Q4480 1381 4503.5 1336.5Q4527 1292 4552.5 1247.0Q4578 1202 4602.5 1162.0Q4627 1122 4644 1101Q4673 1066 4704.0 1051.0Q4735 1036 4761 1036Q4787 1036 4805.5 1047.0Q4824 1058 4836.0 1076.5Q4848 1095 4854.0 1119.5Q4860 1144 4860 1172Q4860 1188 4858.5 1214.0Q4857 1240 4855.5 1270.0Q4854 1300 4852.5 1332.0Q4851 1364 4850 1392Q4865 1362 4884.0 1325.5Q4903 1289 4922.5 1253.0Q4942 1217 4960.0 1185.5Q4978 1154 4993 1134Q5036 1075 5073.5 1055.0Q5111 1035 5140 1035Q5174 1035 5196.0 1047.5Q5218 1060 5230.5 1079.5Q5243 1099 5248.0 1123.0Q5253 1147 5253 1169Q5253 1203 5248.0 1240.0Q5243 1277 5243 1328Q5243 1349 5245.0 1370.0Q5247 1391 5253.5 1407.0Q5260 1423 5274.0 1433.0Q5288 1443 5312 1443Q5338 1443 5363.0 1429.5Q5388 1416 5411.0 1394.0Q5434 1372 5454.5 1344.0Q5475 1316 5492.0 1288.0Q5509 1260 5522.0 1234.5Q5535 1209 5543 1191Q5548 1180 5557.0 1174.0Q5566 1168 5577 1168Q5594 1168 5604.5 1180.5Q5615 1193 5615 1207Q5615 1214 5612 1221Q5608 1229 5596.0 1254.5Q5584 1280 5564.0 1312.5Q5544 1345 5517.5 1381.0Q5491 1417 5459.0 1447.5Q5427 1478 5390.0 1497.5Q5353 1517 5312 1517Q5268 1517 5240.5 1501.5Q5213 1486 5196.5 1460.0Q5180 1434 5174.0 1400.0Q5168 1366 5168 1329Q5168 1280 5173.0 1238.5Q5178 1197 5178 1174Q5178 1149 5173.5 1136.0Q5169 1123 5162.5 1117.5Q5156 1112 5150.0 1111.5Q5144 1111 5141 1111Q5117 1111 5090.5 1137.5Q5064 1164 5036.0 1208.0Q5008 1252 4978.5 1308.0Q4949 1364 4919 1422Q4902 1454 4890.5 1475.0Q4879 1496 4868.5 1508.0Q4858 1520 4848.0 1525.0Q4838 1530 4826 1530Q4800 1530 4786.5 1512.0Q4773 1494 4773 1465Q4773 1450 4774.0 1425.0Q4775 1400 4776.0 1370.0Q4777 1340 4779.0 1308.0Q4781 1276 4782.0 1246.5Q4783 1217 4784.0 1194.0Q4785 1171 4785 1159Q4785 1133 4776.0 1121.5Q4767 1110 4755 1110Q4744 1110 4730.5 1118.0Q4717 1126 4699 1149Q4685 1167 4663.5 1201.5Q4642 1236 4618.0 1278.0Q4594 1320 4570.5 1364.0Q4547 1408 4530 1443Q4509 1485 4488.0 1500.5Q4467 1516 4447 1516Q4418 1516 4404.0 1498.5Q4390 1481 4390 1452Q4390 1449 4391.5 1416.0Q4393 1383 4395.0 1335.5Q4397 1288 4399.5 1234.0Q4402 1180 4404 1133Q4405 1108 4402.0 1087.0Q4399 1066 4394 1062Q4386 1064 4362.5 1099.0Q4339 1134 4303 1221Q4298 1232 4288.0 1238.0Q4278 1244 4267 1244Q4250 1244 4240.0 1232.5Q4230 1221 4230 1206Q4230 1199 4233 1191Q4278 1084 4319.0 1033.5Q4360 983 4399 983Q4422 983 4437.5 993.5Q4453 1004 4462.0 1020.5Q4471 1037 4475.0 1058.0Q4479 1079 4479 1099Q4479 1188 4474.5 1262.0Q4470 1336 4465 1411ZM5663 1390Q5684 1419 5717.0 1436.5Q5750 1454 5798 1454Q5847 1454 5887.0 1430.5Q5927 1407 5960.0 1369.0Q5993 1331 6019.0 1284.0Q6045 1237 6066 1190Q6071 1179 6080.0 1173.5Q6089 1168 6100 1168Q6117 1168 6127.5 1180.0Q6138 1192 6138 1206Q6138 1211 6137.0 1214.5Q6136 1218 6134 1222Q6065 1374 5983.5 1451.0Q5902 1528 5799 1530Q5733 1530 5685.0 1504.5Q5637 1479 5606.0 1438.5Q5575 1398 5560.0 1347.0Q5545 1296 5545 1245Q5545 1194 5557.5 1151.0Q5570 1108 5593.5 1076.0Q5617 1044 5649.5 1026.0Q5682 1008 5721 1008Q5744 1008 5766.5 1017.5Q5789 1027 5807.0 1044.5Q5825 1062 5836.0 1087.0Q5847 1112 5847 1144Q5847 1185 5833.0 1221.0Q5819 1257 5794.5 1288.0Q5770 1319 5736.0 1345.0Q5702 1371 5663 1390ZM5633 1325Q5664 1312 5689.5 1292.0Q5715 1272 5733.0 1248.0Q5751 1224 5761.0 1197.5Q5771 1171 5771 1144Q5771 1114 5756.0 1098.5Q5741 1083 5721 1083Q5694 1083 5675.0 1098.0Q5656 1113 5644.0 1137.0Q5632 1161 5626.5 1190.5Q5621 1220 5621 1249Q5621 1267 5624.5 1287.0Q5628 1307 5633 1325ZM6288 1410Q6304 1377 6325.0 1337.5Q6346 1298 6370.0 1257.5Q6394 1217 6420.5 1177.0Q6447 1137 6476 1101Q6505 1066 6534.5 1050.5Q6564 1035 6590 1035Q6642 1035 6667.0 1073.0Q6692 1111 6692 1167Q6692 1180 6690.5 1198.5Q6689 1217 6687.5 1238.0Q6686 1259 6684.5 1280.5Q6683 1302 6683 1321Q6683 1345 6685.5 1367.0Q6688 1389 6695.0 1405.5Q6702 1422 6715.0 1431.5Q6728 1441 6749 1441Q6787 1441 6823.0 1411.5Q6859 1382 6889.5 1341.5Q6920 1301 6942.5 1259.0Q6965 1217 6976 1191Q6981 1180 6990.5 1174.0Q7000 1168 7011 1168Q7028 1168 7038.5 1180.5Q7049 1193 7049 1207Q7049 1214 7046 1221Q7042 1229 7030.0 1254.0Q7018 1279 6998.5 1311.5Q6979 1344 6953.0 1380.5Q6927 1417 6895.5 1447.0Q6864 1477 6827.5 1497.0Q6791 1517 6751 1517Q6706 1517 6678.0 1499.5Q6650 1482 6634.0 1453.5Q6618 1425 6612.5 1390.5Q6607 1356 6607 1321Q6607 1306 6608.5 1287.0Q6610 1268 6612.5 1247.0Q6615 1226 6616.5 1205.0Q6618 1184 6618 1165Q6618 1133 6608.0 1121.5Q6598 1110 6590 1110Q6574 1110 6553.5 1128.5Q6533 1147 6510.5 1177.0Q6488 1207 6464.5 1244.5Q6441 1282 6420.5 1319.0Q6400 1356 6382.5 1389.5Q6365 1423 6355 1445Q6335 1487 6315.0 1501.5Q6295 1516 6274 1516Q6245 1516 6227.5 1498.5Q6210 1481 6210 1449Q6210 1442 6212.0 1421.5Q6214 1401 6217.0 1372.5Q6220 1344 6223.0 1311.0Q6226 1278 6229.0 1245.5Q6232 1213 6234.0 1185.0Q6236 1157 6236 1138Q6236 1113 6234.0 1090.0Q6232 1067 6226 1062Q6217 1065 6194.0 1099.5Q6171 1134 6135 1221Q6130 1232 6120.0 1238.0Q6110 1244 6099 1244Q6082 1244 6072.0 1232.5Q6062 1221 6062 1206Q6062 1199 6065 1191Q6110 1084 6149.5 1033.5Q6189 983 6228 983Q6251 983 6267.0 994.5Q6283 1006 6292.5 1025.0Q6302 1044 6306.5 1067.0Q6311 1090 6311 1114Q6311 1132 6308.5 1170.0Q6306 1208 6302.0 1251.5Q6298 1295 6294.5 1338.0Q6291 1381 6288 1410ZM7787 499Q7787 515 7776.0 524.5Q7765 534 7749 534H7242V545Q7242 606 7233.0 675.0Q7224 744 7208.5 812.5Q7193 881 7173.5 946.0Q7154 1011 7133.5 1066.0Q7113 1121 7093.0 1161.5Q7073 1202 7057 1222Q7070 1268 7088.0 1307.5Q7106 1347 7128.5 1376.5Q7151 1406 7177.0 1423.0Q7203 1440 7233 1440Q7268 1440 7302.5 1410.5Q7337 1381 7366.5 1340.5Q7396 1300 7418.5 1258.5Q7441 1217 7451 1192Q7461 1168 7486 1168Q7503 1168 7513.5 1180.0Q7524 1192 7524 1206Q7524 1213 7521 1220Q7518 1227 7506.5 1252.0Q7495 1277 7476.5 1310.0Q7458 1343 7433.5 1379.5Q7409 1416 7378.5 1446.0Q7348 1476 7313.0 1496.0Q7278 1516 7239 1516Q7170 1516 7115.0 1471.0Q7060 1426 7021.5 1345.0Q6983 1264 6963.0 1153.0Q6943 1042 6943 910Q6943 877 6944.0 832.5Q6945 788 6948.0 738.5Q6951 689 6957.0 636.5Q6963 584 6973 534H6614Q6598 534 6587.0 524.5Q6576 515 6576 499Q6576 483 6587.0 473.5Q6598 464 6614 464H6990Q7000 428 7013.5 398.0Q7027 368 7044.5 346.0Q7062 324 7083.5 311.5Q7105 299 7131 299Q7156 299 7174.5 311.5Q7193 324 7206.0 346.0Q7219 368 7226.5 398.0Q7234 428 7238 464H7749Q7765 464 7776.0 473.5Q7787 483 7787 499ZM7034 1122Q7064 1056 7088.5 979.5Q7113 903 7130.5 825.0Q7148 747 7157.5 672.0Q7167 597 7167 534H7049Q7035 596 7026.5 687.5Q7018 779 7018 910Q7018 983 7022.0 1032.5Q7026 1082 7034 1122ZM7127 374Q7118 374 7101.0 393.5Q7084 413 7067 464H7163Q7158 422 7148.5 398.0Q7139 374 7127 374ZM7050 1194V1195ZM7916 1390Q7891 1390 7872 1386Q7857 1416 7836.0 1441.5Q7815 1467 7787.5 1486.0Q7760 1505 7726.0 1516.0Q7692 1527 7652 1527Q7605 1527 7566.0 1510.5Q7527 1494 7498.0 1464.5Q7469 1435 7453.0 1393.5Q7437 1352 7437 1302Q7437 1238 7460.0 1190.5Q7483 1143 7513.0 1111.5Q7543 1080 7573.0 1064.5Q7603 1049 7618 1049Q7635 1049 7643.5 1058.0Q7652 1067 7652 1082Q7652 1099 7641.5 1107.5Q7631 1116 7615 1124Q7599 1132 7581.0 1146.5Q7563 1161 7547.5 1183.0Q7532 1205 7522.0 1235.0Q7512 1265 7512 1302Q7512 1335 7522.0 1363.5Q7532 1392 7551.0 1412.5Q7570 1433 7596.0 1444.5Q7622 1456 7654 1456Q7711 1456 7748.5 1429.5Q7786 1403 7806 1362Q7747 1331 7709.0 1274.0Q7671 1217 7671 1146Q7671 1089 7698.5 1053.0Q7726 1017 7771 1017Q7798 1017 7822.0 1030.0Q7846 1043 7864.5 1071.0Q7883 1099 7894.0 1143.0Q7905 1187 7905 1248Q7905 1280 7897 1315Q7903 1316 7909.0 1316.0Q7915 1316 7922 1316Q7956 1316 7983.0 1308.0Q8010 1300 8032.0 1284.0Q8054 1268 8071.5 1243.0Q8089 1218 8105 1185Q8108 1179 8118.0 1173.5Q8128 1168 8138 1168Q8151 1168 8162.5 1178.5Q8174 1189 8174 1206Q8174 1214 8170.0 1223.5Q8166 1233 8162 1241Q8145 1271 8122.5 1298.5Q8100 1326 8069.5 1346.5Q8039 1367 8001.0 1379.0Q7963 1391 7916 1390ZM7745 1138Q7745 1157 7750.0 1178.0Q7755 1199 7765.5 1219.5Q7776 1240 7791.5 1258.5Q7807 1277 7828 1290Q7831 1269 7831 1249Q7831 1222 7827.0 1194.0Q7823 1166 7815.5 1142.5Q7808 1119 7797.0 1104.5Q7786 1090 7771 1090Q7765 1090 7755.0 1099.0Q7745 1108 7745 1138Z" /></svg>