<svg viewBox="0 0 3018 1553" xmlns="http://www.w3.org/2000/svg"><path d="M62 1084 57 1074Q58 1068 61.0 1044.0Q64 1020 66.5 981.5Q69 943 69 900L114 895Q114 970 124.0 1006.0Q134 1042 161.0 1055.5Q188 1069 244 1069Q307 1069 345.0 1039.5Q383 1010 383 959Q383 929 362.5 905.0Q342 881 314.0 864.0Q286 847 231 818Q179 791 146.0 768.5Q113 746 90.5 715.0Q68 684 68 643Q68 591 98.5 548.5Q129 506 181.5 481.5Q234 457 298 457Q338 457 372.0 462.5Q406 468 426.0 474.0Q446 480 451 482L454 488Q453 494 449.0 516.0Q445 538 440.0 577.0Q435 616 432 657L393 661L387 656Q388 652 389.0 637.5Q390 623 390 604Q390 551 364.0 531.0Q338 511 271 511Q216 511 180.5 538.5Q145 566 145 607Q145 647 179.5 676.5Q214 706 281 741Q346 774 380.0 795.5Q414 817 440.0 849.0Q466 881 466 923Q466 979 434.5 1023.5Q403 1068 347.0 1093.0Q291 1118 219 1118Q177 1118 142.0 1110.5Q107 1103 84.5 1094.0Q62 1085 62 1084ZM707 708Q679 708 645.0 722.0Q611 736 587 758L582 755L570 712Q621 682 667.5 662.0Q714 642 733 642Q798 642 835.0 676.0Q872 710 872 771Q872 793 865 861Q854 971 854 1001Q854 1023 865.0 1035.0Q876 1047 895 1047Q909 1047 925.5 1040.0Q942 1033 955 1022L969 1038Q953 1066 928.5 1088.5Q904 1111 882 1118Q801 1118 793 1037L789 1036Q753 1072 723.5 1093.0Q694 1114 679 1114Q623 1114 587.0 1079.0Q551 1044 551 990Q551 961 565.5 939.0Q580 917 604 910L793 858L795 814Q795 764 772.0 736.0Q749 708 707 708ZM627 979Q627 1008 646.5 1027.0Q666 1046 696 1046Q715 1046 740.5 1032.5Q766 1019 787 998L791 896L656 937Q627 946 627 979ZM1063 1012V480Q1063 453 1054.0 440.5Q1045 428 1026 428H1005L1001 425L1005 393Q1048 387 1094.0 377.0Q1140 367 1153 364L1159 377Q1152 388 1145.5 482.5Q1139 577 1135 720Q1249 642 1285 642Q1350 642 1386.0 676.0Q1422 710 1422 771Q1422 791 1415 863Q1406 980 1406 1008Q1406 1037 1414.0 1050.5Q1422 1064 1441 1064Q1452 1064 1462.0 1063.0Q1472 1062 1476 1062L1478 1066L1470 1109Q1461 1108 1436.0 1107.0Q1411 1106 1381 1106Q1355 1106 1321.5 1111.0Q1288 1116 1278 1118L1282 1077Q1312 1069 1325.0 1053.5Q1338 1038 1338 1012L1344 814Q1344 764 1322.5 737.0Q1301 710 1261 710Q1227 710 1191.5 728.5Q1156 747 1134 765Q1131 880 1131 1008Q1131 1039 1139.0 1051.5Q1147 1064 1167 1064Q1178 1064 1188.0 1063.0Q1198 1062 1202 1062L1204 1066L1195 1109Q1186 1108 1160.0 1107.0Q1134 1106 1104 1106Q1071 1106 1043.0 1107.0Q1015 1108 1005 1108L1011 1067Q1040 1064 1051.5 1052.0Q1063 1040 1063 1012ZM1594 453Q1594 428 1611.0 411.0Q1628 394 1653 394Q1674 394 1688.0 408.5Q1702 423 1702 445Q1702 470 1685.0 487.0Q1668 504 1643 504Q1621 504 1607.5 490.0Q1594 476 1594 453ZM1614 1012V758Q1614 704 1577 704Q1570 704 1562.0 705.5Q1554 707 1552 708L1556 671Q1598 665 1642.5 655.0Q1687 645 1700 642L1705 654Q1696 675 1689.0 782.5Q1682 890 1682 1008Q1682 1037 1690.0 1050.5Q1698 1064 1717 1064Q1728 1064 1738.0 1063.0Q1748 1062 1752 1062L1754 1066L1746 1109Q1737 1108 1712.0 1107.0Q1687 1106 1657 1106Q1631 1106 1597.5 1111.0Q1564 1116 1554 1118L1558 1077Q1588 1069 1601.0 1053.5Q1614 1038 1614 1012ZM1817 701 1813 695 1818 665Q1847 651 1874.5 630.5Q1902 610 1919.5 594.5Q1937 579 1942 574L1962 582Q1961 587 1959.0 606.0Q1957 625 1954 657L2101 654L2104 657L2095 710L1950 707Q1943 817 1943 957Q1943 1008 1960.5 1029.0Q1978 1050 2021 1050Q2036 1050 2051.0 1046.0Q2066 1042 2076.0 1037.5Q2086 1033 2089 1032L2099 1058Q2093 1063 2073.5 1077.0Q2054 1091 2031.5 1104.5Q2009 1118 1998 1118Q1930 1118 1902.0 1090.5Q1874 1063 1874 997V751Q1874 724 1862.0 713.0Q1850 702 1817 701ZM2469 713Q2469 687 2431 687H2385L2383 683L2389 650Q2398 651 2428.5 652.5Q2459 654 2490 654L2575 653L2568 690Q2546 694 2534.5 705.5Q2523 717 2512 747L2383 1051Q2326 1181 2294.5 1240.0Q2263 1299 2232.5 1323.5Q2202 1348 2158 1347Q2150 1347 2132.0 1323.5Q2114 1300 2114 1290L2119 1283Q2177 1283 2228.5 1236.5Q2280 1190 2314 1107Q2290 1031 2250.5 919.0Q2211 807 2183 738Q2171 713 2155.5 702.0Q2140 691 2115 690L2113 686L2119 653L2202 654Q2239 654 2275.5 651.0Q2312 648 2322 647L2324 652L2318 683Q2284 684 2271.5 689.5Q2259 695 2259 709Q2259 725 2279.0 793.0Q2299 861 2320.0 928.0Q2341 995 2348 1015H2352Q2469 735 2469 713ZM2749 708Q2721 708 2687.0 722.0Q2653 736 2629 758L2624 755L2612 712Q2663 682 2709.5 662.0Q2756 642 2775 642Q2840 642 2877.0 676.0Q2914 710 2914 771Q2914 793 2907 861Q2896 971 2896 1001Q2896 1023 2907.0 1035.0Q2918 1047 2937 1047Q2951 1047 2967.5 1040.0Q2984 1033 2997 1022L3011 1038Q2995 1066 2970.5 1088.5Q2946 1111 2924 1118Q2843 1118 2835 1037L2831 1036Q2795 1072 2765.5 1093.0Q2736 1114 2721 1114Q2665 1114 2629.0 1079.0Q2593 1044 2593 990Q2593 961 2607.5 939.0Q2622 917 2646 910L2835 858L2837 814Q2837 764 2814.0 736.0Q2791 708 2749 708ZM2669 979Q2669 1008 2688.5 1027.0Q2708 1046 2738 1046Q2757 1046 2782.5 1032.5Q2808 1019 2829 998L2833 896L2698 937Q2669 946 2669 979Z" fill="currentColor" /></svg>