<svg viewBox="0 0 5834 1574" xmlns="http://www.w3.org/2000/svg"><path d="M54 1130V1065Q89 1070 131.0 1073.5Q173 1077 202 1077Q242 1077 265.5 1071.5Q289 1066 304 1052Q318 1039 322.5 1014.0Q327 989 327 947Q327 892 323.0 870.0Q319 848 304.5 838.5Q290 829 253 823L137 805Q95 798 74.0 776.5Q53 755 46.5 721.0Q40 687 40 630Q40 526 84.0 482.5Q128 439 225 439Q318 439 377 455V517Q310 505 242 505Q199 505 174.0 512.5Q149 520 136 535Q123 550 119.0 572.0Q115 594 115 628Q115 674 119.0 694.5Q123 715 135.0 723.0Q147 731 175 736L287 754Q329 761 353.0 775.0Q377 789 390 823Q402 852 402 938Q402 1015 385.5 1059.0Q369 1103 330.5 1123.0Q292 1143 225 1143Q132 1143 54 1130ZM477 995Q477 937 488.5 904.5Q500 872 527.5 858.0Q555 844 605 844Q634 844 737 849V813Q737 750 728.5 722.5Q720 695 697.5 686.5Q675 678 623 678Q600 678 563.5 681.5Q527 685 502 689V631Q567 617 643 617Q713 617 747.5 634.0Q782 651 795.0 692.0Q808 733 808 812V1135H745L741 1065H736Q721 1112 687.5 1127.5Q654 1143 609 1143Q539 1143 508.0 1111.0Q477 1079 477 995ZM722 1037Q737 997 737 930V897H623Q591 897 575.5 903.5Q560 910 553.5 929.5Q547 949 547 990Q547 1029 553.5 1048.0Q560 1067 578.0 1074.5Q596 1082 632 1082Q667 1082 689.0 1073.5Q711 1065 722 1037ZM929 475V392H1004V475ZM931 1135V625H1002V1135ZM1127 625H1189L1193 720H1199Q1212 661 1244.5 639.0Q1277 617 1331 617V689Q1279 689 1250.0 711.0Q1221 733 1209.5 776.5Q1198 820 1198 893V1135H1127ZM1373 995Q1373 937 1384.5 904.5Q1396 872 1423.5 858.0Q1451 844 1501 844Q1530 844 1633 849V813Q1633 750 1624.5 722.5Q1616 695 1593.5 686.5Q1571 678 1519 678Q1496 678 1459.5 681.5Q1423 685 1398 689V631Q1463 617 1539 617Q1609 617 1643.5 634.0Q1678 651 1691.0 692.0Q1704 733 1704 812V1135H1641L1637 1065H1632Q1617 1112 1583.5 1127.5Q1550 1143 1505 1143Q1435 1143 1404.0 1111.0Q1373 1079 1373 995ZM1618 1037Q1633 997 1633 930V897H1519Q1487 897 1471.5 903.5Q1456 910 1449.5 929.5Q1443 949 1443 990Q1443 1029 1449.5 1048.0Q1456 1067 1474.0 1074.5Q1492 1082 1528 1082Q1563 1082 1585.0 1073.5Q1607 1065 1618 1037ZM2211 1143Q2121 1143 2079.5 1116.0Q2038 1089 2023.5 1017.5Q2009 946 2009 791Q2009 637 2023.5 565.5Q2038 494 2079.5 466.5Q2121 439 2211 439Q2239 439 2270.0 443.0Q2301 447 2321 453V514Q2265 505 2227 505Q2158 505 2130.0 523.0Q2102 541 2093.5 597.0Q2085 653 2085 791Q2085 929 2093.5 985.0Q2102 1041 2130.0 1059.0Q2158 1077 2227 1077Q2277 1077 2324 1068V1131Q2302 1136 2270.5 1139.5Q2239 1143 2211 1143ZM2403 880Q2403 763 2413.5 711.0Q2424 659 2459.5 638.0Q2495 617 2576 617Q2657 617 2692.5 638.0Q2728 659 2738.0 711.0Q2748 763 2748 880Q2748 997 2738.0 1049.0Q2728 1101 2692.5 1122.0Q2657 1143 2576 1143Q2495 1143 2459.5 1122.0Q2424 1101 2413.5 1049.0Q2403 997 2403 880ZM2677 880Q2677 782 2672.0 744.0Q2667 706 2646.5 692.0Q2626 678 2576 678Q2525 678 2505.0 692.0Q2485 706 2479.5 744.5Q2474 783 2474 880Q2474 977 2479.5 1015.5Q2485 1054 2505.0 1068.0Q2525 1082 2576 1082Q2626 1082 2646.5 1068.0Q2667 1054 2672.0 1016.0Q2677 978 2677 880ZM3117 837Q3117 765 3110.5 733.5Q3104 702 3086.0 691.5Q3068 681 3027 681Q2981 681 2960.0 703.0Q2939 725 2934.0 762.0Q2929 799 2929 870V1135H2858V625H2920L2924 696H2930Q2942 658 2971.5 637.5Q3001 617 3056 617Q3112 617 3140.5 637.0Q3169 657 3178.5 697.5Q3188 738 3188 813V1135H3117ZM3295 881Q3295 774 3307.0 718.0Q3319 662 3349.5 639.5Q3380 617 3439 617Q3487 617 3516.0 633.0Q3545 649 3559 687H3564V392H3635V1135H3572L3568 1065H3563Q3549 1111 3517.5 1127.0Q3486 1143 3440 1143Q3381 1143 3350.5 1121.0Q3320 1099 3307.5 1044.0Q3295 989 3295 881ZM3553 1019Q3560 993 3562.0 960.5Q3564 928 3564 872Q3564 787 3555 752Q3547 713 3525.5 697.0Q3504 681 3464 681Q3419 681 3399.0 694.0Q3379 707 3372.5 747.0Q3366 787 3366 880Q3366 973 3373.0 1013.0Q3380 1053 3399.5 1066.0Q3419 1079 3466 1079Q3503 1079 3524.0 1065.0Q3545 1051 3553 1019ZM4078 903H3816Q3816 984 3823.5 1019.5Q3831 1055 3855.5 1068.5Q3880 1082 3938 1082Q4004 1082 4064 1071V1129Q4041 1135 4001.0 1139.0Q3961 1143 3924 1143Q3843 1143 3806.0 1119.5Q3769 1096 3757.0 1043.0Q3745 990 3745 881Q3745 772 3755.0 719.5Q3765 667 3801.5 642.0Q3838 617 3919 617Q3995 617 4028.0 641.0Q4061 665 4069.5 716.0Q4078 767 4078 880ZM3816 850H4010V838Q4010 765 4002.0 731.5Q3994 698 3975.5 687.5Q3957 677 3918 677Q3871 677 3850.0 689.0Q3829 701 3822.5 735.5Q3816 770 3816 850ZM4448 837Q4448 765 4441.5 733.5Q4435 702 4417.0 691.5Q4399 681 4358 681Q4312 681 4291.0 703.0Q4270 725 4265.0 762.0Q4260 799 4260 870V1135H4189V625H4251L4255 696H4261Q4273 658 4302.5 637.5Q4332 617 4387 617Q4443 617 4471.5 637.0Q4500 657 4509.5 697.5Q4519 738 4519 813V1135H4448ZM4629 1131V1072Q4693 1083 4761 1083Q4799 1083 4818.0 1073.0Q4837 1063 4843.0 1045.0Q4849 1027 4849 996Q4849 959 4845.0 943.5Q4841 928 4831.5 922.5Q4822 917 4799 914L4699 899Q4651 892 4634.0 862.5Q4617 833 4617 766Q4617 706 4636.0 673.5Q4655 641 4688.5 629.0Q4722 617 4775 617Q4806 617 4841.0 621.0Q4876 625 4897 631V689Q4874 684 4840.5 680.5Q4807 677 4775 677Q4728 677 4707.0 694.0Q4686 711 4686 761Q4686 794 4690.0 809.5Q4694 825 4703.5 831.0Q4713 837 4735 840L4832 853Q4864 857 4882.5 869.5Q4901 882 4910.0 911.0Q4919 940 4919 994Q4919 1078 4883.0 1110.5Q4847 1143 4766 1143Q4732 1143 4693.0 1139.5Q4654 1136 4629 1131ZM5336 903H5074Q5074 984 5081.5 1019.5Q5089 1055 5113.5 1068.5Q5138 1082 5196 1082Q5262 1082 5322 1071V1129Q5299 1135 5259.0 1139.0Q5219 1143 5182 1143Q5101 1143 5064.0 1119.5Q5027 1096 5015.0 1043.0Q5003 990 5003 881Q5003 772 5013.0 719.5Q5023 667 5059.5 642.0Q5096 617 5177 617Q5253 617 5286.0 641.0Q5319 665 5327.5 716.0Q5336 767 5336 880ZM5074 850H5268V838Q5268 765 5260.0 731.5Q5252 698 5233.5 687.5Q5215 677 5176 677Q5129 677 5108.0 689.0Q5087 701 5080.5 735.5Q5074 770 5074 850ZM5431 881Q5431 774 5443.0 718.0Q5455 662 5485.5 639.5Q5516 617 5575 617Q5623 617 5652.0 633.0Q5681 649 5695 687H5700V392H5771V1135H5708L5704 1065H5699Q5685 1111 5653.5 1127.0Q5622 1143 5576 1143Q5517 1143 5486.5 1121.0Q5456 1099 5443.5 1044.0Q5431 989 5431 881ZM5689 1019Q5696 993 5698.0 960.5Q5700 928 5700 872Q5700 787 5691 752Q5683 713 5661.5 697.0Q5640 681 5600 681Q5555 681 5535.0 694.0Q5515 707 5508.5 747.0Q5502 787 5502 880Q5502 973 5509.0 1013.0Q5516 1053 5535.5 1066.0Q5555 1079 5602 1079Q5639 1079 5660.0 1065.0Q5681 1051 5689 1019Z" fill="currentColor" /></svg>