<svg viewBox="0 0 4011 1278" xmlns="http://www.w3.org/2000/svg"><path d="M117 1004H61Q48 1004 48 992V758Q48 745 61 745H124Q136 745 136 758V779Q136 798 159.0 829.5Q182 861 205.0 881.0Q228 901 266.5 915.5Q305 930 350 930Q427 930 470.5 898.0Q514 866 514 809Q514 776 489.5 752.5Q465 729 426.0 715.0Q387 701 339.5 689.0Q292 677 244.5 661.5Q197 646 158.0 624.5Q119 603 94.5 564.5Q70 526 70 474Q70 390 133.5 335.0Q197 280 304 280Q439 280 502 359L500 297Q500 285 513 285H569Q581 285 581 297V515Q581 527 569 527H506Q494 527 494 515V487Q494 446 448.0 404.0Q402 362 313 362Q247 362 206.5 393.5Q166 425 166 474Q166 509 191.0 534.0Q216 559 256.0 574.0Q296 589 344.0 601.5Q392 614 440.0 629.0Q488 644 528.0 665.0Q568 686 593.0 722.5Q618 759 618 809Q618 897 555.0 954.0Q492 1011 367 1011Q275 1011 215.0 974.0Q155 937 128 894L129 992Q129 1004 117 1004ZM1179 1004H1092Q1049 1004 1049 962V911H1047Q974 1012 852 1012Q780 1012 734.0 974.5Q688 937 688 873Q688 791 759.5 752.5Q831 714 956 714H1040V702Q1040 577 910 577Q849 577 822.0 588.5Q795 600 783.5 607.0Q772 614 766 618Q751 630 744 620L716 585Q709 577 718 569Q735 547 788 526Q841 505 913 505Q1123 505 1123 705V937H1179Q1191 937 1191 949V992Q1191 1004 1179 1004ZM1040 774H961Q903 774 865.0 780.0Q827 786 800.5 806.0Q774 826 774.0 861.0Q774 896 802.5 918.5Q831 941 877 941Q974 941 1040 855ZM1798 1004H1703Q1660 1004 1660 962V699Q1660 641 1632.0 609.0Q1604 577 1550 577Q1473 577 1430 640Q1425 646 1417 662V937H1470Q1483 937 1483 949V992Q1483 1004 1470 1004H1279Q1266 1004 1266 992V949Q1266 937 1279 937H1334V579H1279Q1266 579 1266 567V524Q1266 512 1279 512H1396Q1409 512 1409 524L1407 592H1410Q1462 505 1571 505Q1651 505 1696.0 552.0Q1741 599 1742 679V937H1798Q1811 937 1811 949V992Q1811 1004 1798 1004ZM2317 888Q2323 893 2323.0 897.5Q2323 902 2318.5 909.5Q2314 917 2299.5 932.0Q2285 947 2259.5 966.0Q2234 985 2193.5 998.0Q2153 1011 2107 1011Q2002 1011 1931.5 942.0Q1861 873 1861.0 756.5Q1861 640 1931.5 572.5Q2002 505 2104.0 505.0Q2206 505 2258 579H2259L2258 524Q2258 511 2271 511H2309Q2321 511 2321 524V694Q2321 706 2309 706H2263Q2251 706 2251 694V677Q2250 641 2210.0 608.0Q2170 575 2108.5 575.0Q2047 575 1996.0 624.0Q1945 673 1945.0 757.5Q1945 842 1995.0 891.5Q2045 941 2107.0 941.0Q2169 941 2212.5 914.5Q2256 888 2271 863Q2278 851 2288 860ZM2929 1004H2834Q2791 1004 2791 962V699Q2791 641 2763.0 609.0Q2735 577 2681 577Q2640 577 2618.5 589.5Q2597 602 2586.0 611.5Q2575 621 2568 630Q2556 646 2548 663V937H2601Q2614 937 2614 949V992Q2614 1004 2601 1004H2410Q2397 1004 2397 992V949Q2397 937 2410 937H2465V353H2410Q2397 353 2397 341V298Q2397 286 2410 286H2536Q2548 286 2548 298V521Q2548 554 2544 582H2546Q2595 505 2702 505Q2782 505 2827.0 552.0Q2872 599 2873 679V937H2929Q2942 937 2942 949V992Q2942 1004 2929 1004ZM3437 768H3077Q3081 851 3129.5 896.0Q3178 941 3239.0 941.0Q3300 941 3343.5 915.0Q3387 889 3402 864Q3410 854 3420 861L3447 888Q3453 894 3453.0 898.5Q3453 903 3448.5 910.0Q3444 917 3430.0 932.0Q3416 947 3390.5 966.0Q3365 985 3324.5 998.0Q3284 1011 3238 1011Q3133 1011 3062.5 942.0Q2992 873 2992.0 756.5Q2992 640 3062.0 572.5Q3132 505 3233.5 505.0Q3335 505 3393.0 570.5Q3451 636 3451 747Q3451 751 3451 755Q3451 768 3437 768ZM3079 707H3368Q3365 645 3329.0 608.0Q3293 571 3233.0 571.0Q3173 571 3130.0 605.0Q3087 639 3079 707ZM3960 1004H3543Q3530 1004 3530 992V951Q3530 932 3545 917L3869 579H3598V656Q3598 668 3586 668H3543Q3530 668 3530 656V524Q3530 512 3543 512H3960Q3973 512 3973 524V559Q3973 577 3957 591L3629 937H3904V858Q3904 846 3917 846H3960Q3973 846 3973 858V992Q3973 1004 3960 1004Z" fill="currentColor" /></svg>