<svg viewBox="0 0 5354 742" xmlns="http://www.w3.org/2000/svg"><path d="M327 740Q153 740 15 693V489Q176 595 346 595Q375 595 398.5 586.0Q422 577 422 555Q422 538 403.0 528.5Q384 519 366 513L170 448Q94 419 47.0 374.0Q0 329 0 249Q0 177 32.5 129.0Q65 81 119.5 52.5Q174 24 242.0 12.0Q310 0 381 0Q460 0 526.5 10.0Q593 20 647 42V245Q525 149 375 149Q355 149 335.0 151.0Q315 153 302.0 162.0Q289 171 289 191Q289 222 329.5 238.5Q370 255 454 278Q488 287 529.0 301.5Q570 316 607.0 339.0Q644 362 667.5 398.0Q691 434 691 487Q691 575 642.5 631.0Q594 687 511.5 713.5Q429 740 327 740ZM686 716Q736 684 736 625V111Q736 83 723.0 57.0Q710 31 686 16H1463V226Q1430 184 1368 184H1019V285H1383V434H1019V549H1342Q1388 549 1423.0 537.5Q1458 526 1475 486V716ZM2363 727Q2296 727 2245.5 715.5Q2195 704 2153.5 676.5Q2112 649 2071 602L1940 453L1846 533Q1854 681 1900 716H1540Q1594 675 1594 502V230Q1594 56 1540 16H1900Q1846 53 1846 230V299L2028 143Q2050 124 2070.5 101.0Q2091 78 2098.5 55.5Q2106 33 2089 16H2451Q2438 24 2422.0 38.0Q2406 52 2386 69L2120 297L2288 489Q2312 517 2341.0 549.5Q2370 582 2402.0 612.0Q2434 642 2466.0 662.5Q2498 683 2526 687Q2464 727 2363 727ZM2958 742Q2846 742 2768.0 718.5Q2690 695 2642.0 654.0Q2594 613 2572.0 561.5Q2550 510 2550 455V104Q2550 47 2501 16H2856Q2834 41 2834 104V433Q2834 503 2874.5 535.0Q2915 567 2982 567Q3059 567 3089.5 530.5Q3120 494 3120 418V104Q3120 41 3095 16H3435Q3385 48 3385 109V450Q3385 563 3332.0 626.5Q3279 690 3183.5 716.0Q3088 742 2958 742ZM3810 716Q3845 694 3857.0 640.0Q3869 586 3869 501V479L3568 88Q3522 28 3483 16H3863Q3844 32 3850.0 48.5Q3856 65 3873 88L4005 259L4138 88Q4154 68 4160.0 50.0Q4166 32 4149 16H4528Q4507 24 4481.0 46.5Q4455 69 4443 88L4141 479V501Q4141 677 4200 716ZM4270 716Q4302 690 4335.5 643.0Q4369 596 4404 529L4625 119Q4645 77 4645 64Q4645 32 4626 16H4945L5220 529Q5255 596 5288.5 643.0Q5322 690 5354 716H4995Q5014 703 5014 666Q5014 635 4993 598L4975 565L4630 598Q4610 640 4610 666Q4610 703 4629 716ZM4705 461 4909 442 4811 261Z" /></svg>