<svg viewBox="0 0 5022 1325" xmlns="http://www.w3.org/2000/svg"><path d="M219 1025Q122 1025 55 979Q-20 926 -20 834Q-20 764 34 712Q89 659 157 659Q201 659 232.5 685.5Q264 712 264 757Q264 773 247 773Q236 773 230 753Q221 724 212 715Q196 694 159 694Q103 694 58 736Q14 778 14 833Q14 909 77 953Q133 991 216 991Q272 991 320.5 977.5Q369 964 410 936Q499 874 499 779Q499 682 406 636L235 573Q143 532 143 447Q143 364 218 315Q283 273 368 273Q433 273 478 306Q529 343 529 408Q529 449 498 477Q469 505 427 505Q402 505 385.0 490.0Q368 475 368 450Q368 433 385 433Q397 433 403 456Q407 472 428 472Q451 472 472.5 453.5Q494 435 494 408Q494 357 454 330Q419 307 364 307Q296 307 240 342Q177 382 177 444Q177 515 269 551L441 617Q533 670 533 778Q533 890 435 961Q346 1025 219 1025ZM703 988Q628 988 587.0 941.0Q546 894 546 819Q546 707 621 637Q686 575 764 575Q805 575 830.5 595.5Q856 616 856 654Q856 714 788 752Q729 784 653 784Q612 784 586 774Q584 785 582.5 796.5Q581 808 581 819Q581 880 612.0 918.5Q643 957 702 957Q808 957 871 858Q879 846 885.0 839.0Q891 832 899 832Q909 832 909 844Q909 851 907.5 855.0Q906 859 905 861Q871 919 817.0 953.5Q763 988 703 988ZM650 750Q714 750 764 725Q822 697 822 652Q822 609 761 609Q706 609 659 650Q617 686 595 741Q618 750 650 750ZM1175 983Q1138 983 1117.0 963.0Q1096 943 1096 907Q1096 894 1103.0 866.0Q1110 838 1122 804Q1136 763 1143.5 738.0Q1151 713 1153 703Q1155 692 1156.0 683.0Q1157 674 1157 666Q1157 609 1109 609Q1041 609 978 715Q946 769 902 884Q898 898 889.5 918.5Q881 939 870 966Q865 977 857 977Q850 977 844.0 970.5Q838 964 838 958Q838 954 872 861Q937 681 937 584Q937 565 954 565Q964 565 970.0 578.5Q976 592 976 602Q976 629 967 667Q1035 574 1114 574Q1197 574 1197 664Q1197 703 1156 820Q1149 840 1142.5 864.0Q1136 888 1136 908Q1136 926 1143.5 937.5Q1151 949 1171 949Q1193 949 1218.0 935.5Q1243 922 1266.0 901.0Q1289 880 1303 857Q1312 843 1317.5 836.0Q1323 829 1331 829Q1343 829 1343 843Q1343 845 1341.0 852.0Q1339 859 1337 861Q1320 893 1293.0 921.0Q1266 949 1235.0 966.0Q1204 983 1175 983ZM1691 991Q1607 991 1587 893Q1517 981 1430 981Q1371 981 1338 934Q1308 892 1308 832Q1308 728 1391 651Q1465 582 1545 582Q1585 582 1608 605Q1676 353 1771 353Q1824 353 1824 406Q1824 471 1740 632Q1729 653 1697.5 708.0Q1666 763 1614 852Q1617 904 1637.0 931.5Q1657 959 1692 959Q1734 959 1767.5 927.5Q1801 896 1823 858Q1828 850 1836.5 841.0Q1845 832 1852 832Q1857 832 1859.0 835.5Q1861 839 1861 843Q1861 846 1859.5 852.5Q1858 859 1857 861Q1842 890 1816.5 920.5Q1791 951 1759.0 971.0Q1727 991 1691 991ZM1614 781Q1651 717 1676.0 673.5Q1701 630 1714 606Q1781 480 1790 423Q1791 419 1791.0 415.5Q1791 412 1791 409Q1791 386 1773 386Q1747 386 1713 435Q1673 495 1644 599Q1619 692 1614 781ZM1431 947Q1516 947 1580 844Q1579 835 1579.0 826.0Q1579 817 1579 808Q1579 788 1580.5 768.0Q1582 748 1584 726Q1574 729 1559 729Q1532 729 1532 713Q1532 694 1550 694Q1553 694 1556 695H1562Q1587 695 1591 679L1597 655Q1593 618 1542 618Q1464 618 1403 685Q1343 752 1343 831Q1343 879 1363 911Q1387 947 1431 947ZM2299 1006Q2212 1006 2149 961Q2079 910 2079 825Q2079 742 2132 689Q2185 636 2267 636Q2323 636 2363 664Q2408 695 2408 751Q2408 769 2398 782Q2386 799 2368 799Q2349 799 2349 780Q2349 764 2366 762Q2373 762 2373 752Q2373 714 2339 692Q2308 672 2267 672Q2200 672 2158.0 715.0Q2116 758 2116 825Q2116 895 2175 936Q2227 970 2304 970Q2561 970 2648 575H2508Q2491 575 2491 557Q2491 539 2508 539H2655Q2679 440 2731 367Q2696 360 2595 322Q2513 290 2443 290Q2364 290 2305 328Q2239 371 2239 444Q2239 475 2254.5 496.0Q2270 517 2298 517Q2312 517 2327.0 509.5Q2342 502 2348 502Q2364 502 2364 519Q2364 532 2341 543Q2320 553 2303 553Q2257 553 2230.0 522.0Q2203 491 2203 444Q2203 355 2280 302Q2349 254 2441 254Q2516 254 2592 281L2674 313Q2699 322 2720.0 328.0Q2741 334 2759 336Q2805 287 2855 287Q2894 287 2894 320Q2894 344 2855 361Q2822 375 2795 375Q2793 375 2787.5 375.0Q2782 375 2773 374Q2717 439 2693 539H2734Q2752 539 2752 557Q2752 575 2734 575H2685Q2593 1006 2299 1006ZM2854 991Q2771 991 2764 877Q2759 792 2816 621Q2867 469 2917 379Q2976 272 3029 272Q3074 272 3074 344Q3074 420 3016 521Q2924 681 2812 772Q2807 798 2804.0 820.5Q2801 843 2801 863Q2801 958 2860 958Q2895 958 2928.5 938.5Q2962 919 3003 858Q3006 854 3015.5 841.5Q3025 829 3032 829Q3042 829 3042 842Q3042 844 3041.0 850.0Q3040 856 3037 861Q3021 892 2995.0 922.0Q2969 952 2933.5 971.5Q2898 991 2854 991ZM2828 712Q2918 620 2985 503Q3041 405 3041 337Q3041 305 3027 305Q3017 305 3000 322Q2965 360 2925 452Q2900 508 2876.0 573.0Q2852 638 2828 712ZM3145 984Q3082 984 3047 934Q3019 891 3019 825Q3019 757 3051 685Q3086 607 3144 578Q3166 567 3182 567Q3199 567 3210 578Q3235 561 3260 561Q3307 561 3332 610Q3352 648 3352 697Q3352 788 3296 880Q3233 984 3145 984ZM3144 949Q3215 949 3270 858Q3318 777 3318 698Q3318 665 3304 632Q3288 595 3260 595Q3229 595 3206 630Q3183 665 3183 699Q3183 741 3214 741Q3230 741 3230 758Q3230 775 3214 775Q3150 775 3150 701Q3150 645 3185 601Q3184 600 3182 600Q3177 600 3159 608Q3112 634 3081 702Q3053 762 3053 824Q3053 874 3073 909Q3098 949 3144 949ZM3469 986Q3377 986 3377 874Q3377 861 3378.5 848.0Q3380 835 3382 822Q3385 804 3395.0 771.0Q3405 738 3422 691Q3460 583 3475 583Q3493 583 3493 599Q3493 604 3492 606Q3411 798 3411 877Q3411 951 3469 951Q3556 951 3617 774Q3625 746 3638.5 705.0Q3652 664 3671 611Q3676 603 3685 603Q3707 603 3704 620Q3696 644 3684.0 686.0Q3672 728 3655 789Q3640 852 3640 883Q3640 945 3691 945Q3763 945 3829 840Q3890 743 3890 658Q3890 600 3866 569Q3847 542 3818 542Q3783 542 3783 576Q3783 592 3792.5 596.5Q3802 601 3811.5 603.5Q3821 606 3821 617Q3821 634 3805 634Q3782 634 3765.5 617.0Q3749 600 3749 577Q3749 546 3769.5 527.5Q3790 509 3819 509Q3860 509 3890 544Q3925 585 3925 657Q3925 756 3863 857Q3789 979 3683 979Q3607 979 3606 879Q3546 986 3469 986ZM4110 988Q4035 988 3994.0 941.0Q3953 894 3953 819Q3953 707 4028 637Q4093 575 4171 575Q4212 575 4237.5 595.5Q4263 616 4263 654Q4263 714 4195 752Q4136 784 4060 784Q4019 784 3993 774Q3991 785 3989.5 796.5Q3988 808 3988 819Q3988 880 4019.0 918.5Q4050 957 4109 957Q4215 957 4278 858Q4286 846 4292.0 839.0Q4298 832 4306 832Q4316 832 4316 844Q4316 851 4314.5 855.0Q4313 859 4312 861Q4278 919 4224.0 953.5Q4170 988 4110 988ZM4057 750Q4121 750 4171 725Q4229 697 4229 652Q4229 609 4168 609Q4113 609 4066 650Q4024 686 4002 741Q4025 750 4057 750ZM4546 985Q4513 985 4491.5 960.5Q4470 936 4470 890Q4470 806 4541 675Q4511 686 4487 686Q4438 686 4401 646Q4395 679 4379.5 718.5Q4364 758 4346.0 795.5Q4328 833 4312 861Q4308 869 4302.0 871.0Q4296 873 4293 873Q4278 873 4278 858Q4298 826 4318.0 783.5Q4338 741 4355.5 694.0Q4373 647 4382 603Q4376 579 4376 549Q4376 500 4398 500Q4422 500 4422 549Q4422 560 4420.5 574.0Q4419 588 4417 604Q4421 625 4442.5 638.0Q4464 651 4488 651Q4522 651 4575 616Q4586 608 4588 608Q4607 608 4607 626Q4607 628 4606.5 630.0Q4606 632 4605 634Q4580 677 4560.0 716.5Q4540 756 4525 794Q4505 845 4505 887Q4505 951 4547 951Q4580 951 4607.5 921.5Q4635 892 4657 858Q4662 850 4671.5 837.0Q4681 824 4688 824Q4693 824 4695.5 826.0Q4698 828 4698 836Q4698 841 4695.5 850.0Q4693 859 4691 861Q4664 910 4629.5 947.5Q4595 985 4546 985ZM4790 995Q4734 995 4696 966Q4653 933 4653 877Q4653 841 4671.0 808.0Q4689 775 4720 757Q4740 728 4767.0 694.0Q4794 660 4828 620Q4816 588 4816 560Q4816 527 4828 502Q4844 468 4876 468Q4923 468 4923 517Q4923 548 4907 570L4869 624L4932 712Q4950 737 4958.5 763.0Q4967 789 4967 814Q4967 889 4916 942Q4865 995 4790 995ZM4854 590Q4868 574 4878 558Q4892 532 4892 518Q4892 503 4876 503Q4849 503 4849 561Q4849 568 4850.5 575.0Q4852 582 4854 590ZM4789 960Q4852 960 4892 918Q4933 875 4933 814Q4933 772 4901 728L4845 652L4771 744Q4841 748 4841 813Q4841 833 4827 853Q4820 863 4809 863Q4795 863 4795 845Q4795 839 4801.0 829.0Q4807 819 4807 813Q4807 778 4769 778Q4757 778 4746 781Q4747 802 4729.5 827.5Q4712 853 4688 870Q4694 960 4789 960Z" fill="currentColor" /></svg>