<svg viewBox="0 0 3334 725" xmlns="http://www.w3.org/2000/svg"><path d="M374 208 343 213Q327 153 298 116Q269 80 211 80Q159 80 131 111Q103 143 103 188Q103 237 133 268Q162 299 229 333Q270 354 293 368Q316 382 346 406Q375 431 389 462Q403 494 403 533Q403 615 340 670Q277 725 177 725Q126 725 79 710Q61 704 27 689Q15 655 0 531L30 523Q37 550 49 575Q61 601 81 628Q100 655 130 671Q160 688 196 688Q250 688 281 656Q312 625 312 571Q312 522 281 490Q250 459 185 424Q155 408 139 399Q123 390 96 370Q69 350 55 332Q41 314 30 286Q18 258 18 226Q18 149 76 97Q133 45 228 45Q278 45 356 68Q358 88 365 134Q371 180 374 208ZM955 710H740V683Q783 678 793 666Q803 654 803 607V440Q803 320 710 320Q653 320 612 367V607Q612 654 622 666Q631 679 673 683V710H456L457 683Q502 678 513 666Q524 655 524 606V131Q524 84 515 74Q505 64 458 59V34Q537 23 612 0V331Q683 260 753 260Q817 260 854 302Q891 345 891 430V607Q891 655 902 666Q912 678 955 683ZM1414 670 1325 722Q1296 722 1276 702Q1259 685 1251 659Q1248 661 1235 670Q1221 680 1216 683Q1210 687 1199 695Q1187 703 1181 706Q1174 709 1165 713Q1156 718 1149 720Q1142 722 1136 722Q1083 722 1048 684Q1013 647 1013 599Q1013 529 1093 501Q1225 455 1249 435V416Q1249 364 1228 334Q1206 305 1169 305Q1142 305 1126 324Q1109 344 1097 391Q1090 416 1065 416Q1049 416 1034 402Q1018 389 1018 372Q1018 354 1051 330Q1077 311 1121 289Q1165 268 1203 260Q1254 260 1288 287Q1334 325 1334 412V594Q1334 653 1369 653Q1387 653 1404 643ZM1249 627V470Q1240 475 1225 482Q1209 490 1190 498Q1171 507 1165 510Q1135 525 1121 541Q1107 557 1107 583Q1107 619 1129 639Q1150 659 1176 659Q1215 659 1249 627ZM1473 272H1519V251Q1519 206 1530 171Q1552 102 1609 54Q1664 7 1721 0Q1772 1 1800 33Q1809 44 1809 56Q1809 63 1806 70Q1800 85 1785 96Q1771 107 1756 94Q1717 55 1675 55Q1642 55 1626 83Q1606 115 1606 223Q1606 228 1606 233L1607 272H1724Q1729 279 1726 293Q1722 308 1714 313H1607V601Q1607 654 1620 666Q1633 678 1692 684V710H1450V683Q1497 678 1508 666Q1519 654 1519 606V313H1450L1445 302ZM2161 670 2072 722Q2043 722 2023 702Q2006 685 1998 659Q1995 661 1982 670Q1968 680 1963 683Q1957 687 1946 695Q1934 703 1928 706Q1921 709 1912 713Q1903 718 1896 720Q1889 722 1883 722Q1830 722 1795 684Q1760 647 1760 599Q1760 529 1840 501Q1972 455 1996 435V416Q1996 364 1975 334Q1953 305 1916 305Q1889 305 1873 324Q1856 344 1844 391Q1837 416 1812 416Q1796 416 1781 402Q1765 389 1765 372Q1765 354 1798 330Q1824 311 1868 289Q1912 268 1950 260Q2001 260 2035 287Q2081 325 2081 412V594Q2081 653 2116 653Q2134 653 2151 643ZM1996 627V470Q1987 475 1972 482Q1956 490 1937 498Q1918 507 1912 510Q1882 525 1868 541Q1854 557 1854 583Q1854 619 1876 639Q1897 659 1923 659Q1962 659 1996 627ZM2355 367H2357Q2420 260 2476 260Q2502 260 2519 276Q2536 292 2536 312Q2536 351 2501 366Q2484 373 2474 363Q2453 343 2430 343Q2411 343 2391 363Q2370 384 2355 423V606Q2355 655 2368 667Q2380 679 2437 683V710H2199V683Q2245 678 2256 666Q2267 654 2267 606V397Q2267 350 2258 339Q2249 328 2207 322V298Q2285 286 2355 258ZM2682 177Q2660 177 2644 161Q2628 145 2628 123Q2628 99 2644 83Q2660 67 2683 67Q2705 67 2721 83Q2736 99 2736 123Q2736 145 2720 161Q2704 177 2682 177ZM2802 710H2575V683Q2622 678 2633 666Q2644 654 2644 603V398Q2644 351 2635 340Q2626 329 2583 322V298Q2671 283 2732 259V603Q2732 654 2743 666Q2754 678 2802 683ZM3334 710 3190 711Q3175 695 3154 669Q3133 643 3117 622Q3100 601 3073 565Q3045 530 3033 514Q3015 493 3003 493Q2995 493 2989 495V605Q2989 654 3001 666Q3012 678 3060 683V710H2830V683Q2879 679 2891 666Q2902 654 2902 605V134Q2902 86 2892 74Q2882 63 2837 59V35Q2899 28 2989 0V468Q3025 461 3051 433Q3084 398 3119 345Q3130 329 3130 320Q3130 317 3129 314Q3123 306 3089 302V275L3295 266V292Q3245 300 3220 311Q3195 323 3167 349Q3139 377 3084 443Q3099 465 3154 532Q3209 599 3237 629Q3284 679 3334 683Z" /></svg>