<svg viewBox="0 0 3357 1542" xmlns="http://www.w3.org/2000/svg"><path d="M415 578 384 583Q368 523 339 486Q310 450 252 450Q200 450 172 481Q144 513 144 558Q144 607 174 638Q203 669 270 703Q311 724 334 738Q357 752 387 776Q416 801 430 832Q444 864 444 903Q444 985 381 1040Q318 1095 218 1095Q167 1095 120 1080Q102 1074 68 1059Q56 1025 41 901L71 893Q78 920 90 945Q102 971 122 998Q141 1025 171 1041Q201 1058 237 1058Q291 1058 322 1026Q353 995 353 941Q353 892 322 860Q291 829 226 794Q196 778 180 769Q164 760 137 740Q110 720 96 702Q82 684 71 656Q59 628 59 596Q59 519 117 467Q174 415 269 415Q319 415 397 438Q399 458 406 504Q412 550 415 578ZM996 1080H781V1053Q824 1048 834 1036Q844 1024 844 977V810Q844 690 751 690Q694 690 653 737V977Q653 1024 663 1036Q672 1049 714 1053V1080H497L498 1053Q543 1048 554 1036Q565 1025 565 976V501Q565 454 556 444Q546 434 499 429V404Q578 393 653 370V701Q724 630 794 630Q858 630 895 672Q932 715 932 800V977Q932 1025 943 1036Q953 1048 996 1053ZM1455 1040 1366 1092Q1337 1092 1317 1072Q1300 1055 1292 1029Q1289 1031 1276 1040Q1262 1050 1257 1053Q1251 1057 1240 1065Q1228 1073 1222 1076Q1215 1079 1206 1083Q1197 1088 1190 1090Q1183 1092 1177 1092Q1124 1092 1089 1054Q1054 1017 1054 969Q1054 899 1134 871Q1266 825 1290 805V786Q1290 734 1269 704Q1247 675 1210 675Q1183 675 1167 694Q1150 714 1138 761Q1131 786 1106 786Q1090 786 1075 772Q1059 759 1059 742Q1059 724 1092 700Q1118 681 1162 659Q1206 638 1244 630Q1295 630 1329 657Q1375 695 1375 782V964Q1375 1023 1410 1023Q1428 1023 1445 1013ZM1290 997V840Q1281 845 1266 852Q1250 860 1231 868Q1212 877 1206 880Q1176 895 1162 911Q1148 927 1148 953Q1148 989 1170 1009Q1191 1029 1217 1029Q1256 1029 1290 997ZM1514 642H1560V621Q1560 576 1571 541Q1593 472 1650 424Q1705 377 1762 370Q1813 371 1841 403Q1850 414 1850 426Q1850 433 1847 440Q1841 455 1826 466Q1812 477 1797 464Q1758 425 1716 425Q1683 425 1667 453Q1647 485 1647 593Q1647 598 1647 603L1648 642H1765Q1770 649 1767 663Q1763 678 1755 683H1648V971Q1648 1024 1661 1036Q1674 1048 1733 1054V1080H1491V1053Q1538 1048 1549 1036Q1560 1024 1560 976V683H1491L1486 672ZM2202 1040 2113 1092Q2084 1092 2064 1072Q2047 1055 2039 1029Q2036 1031 2023 1040Q2009 1050 2004 1053Q1998 1057 1987 1065Q1975 1073 1969 1076Q1962 1079 1953 1083Q1944 1088 1937 1090Q1930 1092 1924 1092Q1871 1092 1836 1054Q1801 1017 1801 969Q1801 899 1881 871Q2013 825 2037 805V786Q2037 734 2016 704Q1994 675 1957 675Q1930 675 1914 694Q1897 714 1885 761Q1878 786 1853 786Q1837 786 1822 772Q1806 759 1806 742Q1806 724 1839 700Q1865 681 1909 659Q1953 638 1991 630Q2042 630 2076 657Q2122 695 2122 782V964Q2122 1023 2157 1023Q2175 1023 2192 1013ZM2037 997V840Q2028 845 2013 852Q1997 860 1978 868Q1959 877 1953 880Q1923 895 1909 911Q1895 927 1895 953Q1895 989 1917 1009Q1938 1029 1964 1029Q2003 1029 2037 997ZM2396 737H2398Q2461 630 2517 630Q2543 630 2560 646Q2577 662 2577 682Q2577 721 2542 736Q2525 743 2515 733Q2494 713 2471 713Q2452 713 2432 733Q2411 754 2396 793V976Q2396 1025 2409 1037Q2421 1049 2478 1053V1080H2240V1053Q2286 1048 2297 1036Q2308 1024 2308 976V767Q2308 720 2299 709Q2290 698 2248 692V668Q2326 656 2396 628ZM2723 547Q2701 547 2685 531Q2669 515 2669 493Q2669 469 2685 453Q2701 437 2724 437Q2746 437 2762 453Q2777 469 2777 493Q2777 515 2761 531Q2745 547 2723 547ZM2843 1080H2616V1053Q2663 1048 2674 1036Q2685 1024 2685 973V768Q2685 721 2676 710Q2667 699 2624 692V668Q2712 653 2773 629V973Q2773 1024 2784 1036Q2795 1048 2843 1053ZM3375 1080 3231 1081Q3216 1065 3195 1039Q3174 1013 3158 992Q3141 971 3114 935Q3086 900 3074 884Q3056 863 3044 863Q3036 863 3030 865V975Q3030 1024 3042 1036Q3053 1048 3101 1053V1080H2871V1053Q2920 1049 2932 1036Q2943 1024 2943 975V504Q2943 456 2933 444Q2923 433 2878 429V405Q2940 398 3030 370V838Q3066 831 3092 803Q3125 768 3160 715Q3171 699 3171 690Q3171 687 3170 684Q3164 676 3130 672V645L3336 636V662Q3286 670 3261 681Q3236 693 3208 719Q3180 747 3125 813Q3140 835 3195 902Q3250 969 3278 999Q3325 1049 3375 1053Z" fill="currentColor" /></svg>