<svg viewBox="0 0 4045 700" xmlns="http://www.w3.org/2000/svg"><path d="M149 700H17V624H159Q196 624 219.0 602.0Q242 580 242 549V445Q242 415 226.5 396.5Q211 378 180 378H160Q86 378 43.0 334.5Q0 291 0 208V170Q0 85 46.5 42.5Q93 0 180 0H313V76H170Q133 76 110.0 98.0Q87 120 87 151V227Q87 258 107.0 278.5Q127 299 159 299H179Q250 299 289.5 340.0Q329 381 329 464V530Q329 615 282.5 657.5Q236 700 149 700ZM464 0H549V220Q579 200 624 200H650Q731 200 770.5 238.0Q810 276 810 360V700H725V340Q725 310 707.5 292.5Q690 275 660 275H614Q582 275 565.5 291.5Q549 308 549 327V700H464ZM1205 670Q1182 700 1144 700H1075Q999 700 964.5 669.5Q930 639 930 565V545Q930 390 1076 390H1180V340Q1180 309 1161.0 292.0Q1142 275 1105 275H970V200H1095Q1182 200 1223.5 238.0Q1265 276 1265 360V600Q1265 615 1276.5 622.5Q1288 630 1315 630V700H1260Q1247 700 1231.5 692.0Q1216 684 1205 670ZM1180 575V465H1075Q1049 465 1032.0 482.0Q1015 499 1015 525V575Q1015 601 1027.0 613.0Q1039 625 1065 625H1134Q1164 625 1172.0 611.0Q1180 597 1180 575ZM1435 200H1515V227Q1548 200 1595 200H1668V280H1585Q1552 280 1536.0 302.0Q1520 324 1520 345V700H1435ZM1743 540V360Q1743 274 1780.0 237.0Q1817 200 1903 200H1930Q2001 200 2037.5 239.5Q2074 279 2074 355V485H1828V560Q1828 591 1847.0 608.0Q1866 625 1903 625H2042V700H1913Q1825 700 1784.0 662.5Q1743 625 1743 540ZM1991 410V335Q1991 309 1974.0 292.0Q1957 275 1931 275H1893Q1857 275 1842.5 291.5Q1828 308 1828 340V410ZM2655 76V700H2568V76H2414V0H2809V76ZM2824 540V360Q2824 274 2861.0 237.0Q2898 200 2984 200H3011Q3082 200 3118.5 239.5Q3155 279 3155 355V485H2909V560Q2909 591 2928.0 608.0Q2947 625 2984 625H3123V700H2994Q2906 700 2865.0 662.5Q2824 625 2824 540ZM3072 410V335Q3072 309 3055.0 292.0Q3038 275 3012 275H2974Q2938 275 2923.5 291.5Q2909 308 2909 340V410ZM3290 540V360Q3290 276 3331.5 238.0Q3373 200 3460 200H3569V275H3450Q3413 275 3394.0 292.0Q3375 309 3375 340V560Q3375 591 3394.0 608.0Q3413 625 3450 625H3569V700H3460Q3372 700 3331.0 662.5Q3290 625 3290 540ZM3699 0H3784V220Q3814 200 3859 200H3885Q3966 200 4005.5 238.0Q4045 276 4045 360V700H3960V340Q3960 310 3942.5 292.5Q3925 275 3895 275H3849Q3817 275 3800.5 291.5Q3784 308 3784 327V700H3699Z" fill="currentColor" /></svg>