<svg viewBox="0 0 3075 1448" xmlns="http://www.w3.org/2000/svg"><path d="M285 449Q317 451 354.5 462.5Q392 474 429 497Q463 518 485.0 550.0Q507 582 520 617Q527 634 522.5 653.5Q518 673 499 683Q482 693 464.5 688.0Q447 683 436 663Q417 627 397.0 601.5Q377 576 346.0 563.0Q315 550 263 554Q240 555 216.5 569.5Q193 584 176.0 605.0Q159 626 155 650Q153 659 155.5 669.5Q158 680 162 690Q179 727 209.5 752.5Q240 778 277 797Q307 812 337.5 825.5Q368 839 398 854Q460 887 497.5 936.5Q535 986 538 1060Q540 1106 516.0 1147.5Q492 1189 452.5 1217.0Q413 1245 366 1249Q296 1256 235.0 1249.5Q174 1243 120 1207Q110 1201 90.5 1183.0Q71 1165 52.5 1140.0Q34 1115 26.5 1086.5Q19 1058 32 1031Q45 1007 65.0 1001.5Q85 996 102 1016Q116 1032 133.5 1053.0Q151 1074 166 1088Q207 1128 257.0 1137.5Q307 1147 360 1143Q383 1141 398.0 1124.5Q413 1108 416 1086Q424 1045 406.5 1013.0Q389 981 352 961Q302 932 251.5 903.5Q201 875 153 843Q105 811 79.0 758.5Q53 706 46 650Q41 601 61.0 564.5Q81 528 116 500Q147 475 186.5 460.5Q226 446 285 449ZM307 1232H322Q381 1228 427.5 1208.0Q474 1188 501 1132Q516 1101 515.5 1062.5Q515 1024 499.5 986.5Q484 949 453 921Q402 874 335 849Q283 829 237.5 798.5Q192 768 156 725Q130 692 130.5 656.5Q131 621 153.0 591.0Q175 561 211 546Q259 526 296.0 528.0Q333 530 359.5 544.5Q386 559 403.5 578.0Q421 597 429 610Q437 622 444.0 634.0Q451 646 460 657Q463 661 470.5 663.0Q478 665 482 664Q487 661 492.0 654.5Q497 648 497 642Q498 635 495.0 627.5Q492 620 490 613Q478 566 439.5 535.0Q401 504 349.5 489.0Q298 474 246.5 477.0Q195 480 156 503Q124 522 101.5 554.0Q79 586 71.5 624.0Q64 662 77 701Q95 756 133.5 791.5Q172 827 218 856Q256 880 296.5 900.5Q337 921 377 943Q418 965 434.5 1000.5Q451 1036 449 1081Q447 1112 425.0 1138.5Q403 1165 372 1168Q301 1174 238.0 1156.0Q175 1138 128 1077Q114 1057 96 1042Q92 1037 83.0 1032.5Q74 1028 67 1030Q63 1033 57.0 1041.0Q51 1049 51 1064Q51 1080 56.5 1093.5Q62 1107 70 1121Q97 1163 135.5 1185.5Q174 1208 218.5 1218.0Q263 1228 307 1232ZM740 785Q740 792 746.0 794.5Q752 797 758 793Q795 761 838.5 752.0Q882 743 927 743Q963 742 998.5 764.5Q1034 787 1057.5 821.5Q1081 856 1081 892Q1082 939 1081.5 983.0Q1081 1027 1078.0 1077.5Q1075 1128 1070 1195Q1069 1226 1047.5 1247.0Q1026 1268 1006 1264Q988 1260 976.0 1234.5Q964 1209 967 1179Q972 1122 977.5 1063.5Q983 1005 985 946Q987 913 971.5 890.0Q956 867 929.5 857.0Q903 847 871 853Q822 861 786.0 893.5Q750 926 732.0 973.5Q714 1021 719 1076Q722 1107 723.0 1138.5Q724 1170 722 1202Q721 1235 708.0 1248.5Q695 1262 671 1261Q643 1260 618.5 1243.0Q594 1226 595 1195Q597 1112 601.5 1028.5Q606 945 610 862Q611 833 613.0 789.0Q615 745 617.0 695.5Q619 646 621.0 600.0Q623 554 625.0 521.0Q627 488 628 478Q630 458 647.0 444.0Q664 430 689 431Q709 431 727.0 448.0Q745 465 745 486Q745 538 744.0 588.5Q743 639 741 691Q740 710 739.5 737.5Q739 765 740 785ZM716 629Q716 594 716.5 558.5Q717 523 715 487Q714 479 705.5 470.5Q697 462 692 461Q674 460 664.0 472.5Q654 485 650.5 504.0Q647 523 646.0 541.5Q645 560 645 571Q640 701 635.0 830.0Q630 959 625 1088Q624 1118 624.0 1147.0Q624 1176 626 1204Q627 1213 639.5 1224.0Q652 1235 662 1236Q676 1237 681.0 1229.0Q686 1221 690 1214Q695 1203 697.5 1190.0Q700 1177 700 1165Q701 1131 700.5 1096.5Q700 1062 701 1028Q702 972 729.0 928.0Q756 884 801.0 857.5Q846 831 901 831Q950 831 977 871Q1000 905 1006.0 941.0Q1012 977 1010.0 1014.0Q1008 1051 1004 1088Q1002 1115 999.0 1142.0Q996 1169 997 1196Q997 1206 1002.5 1220.5Q1008 1235 1020 1237Q1031 1238 1042.5 1223.0Q1054 1208 1054 1184Q1054 1113 1054.5 1041.5Q1055 970 1053 899Q1052 862 1032.0 833.5Q1012 805 978.0 788.0Q944 771 903.5 769.5Q863 768 821.0 785.5Q779 803 742 844Q732 859 722.5 854.0Q713 849 709 833Q707 822 709 809Q710 786 711.5 756.0Q713 726 714.0 696.5Q715 667 715.5 648.0Q716 629 716 629ZM1175 512Q1176 477 1195.5 453.5Q1215 430 1243 431Q1260 431 1276.5 442.0Q1293 453 1304.0 469.5Q1315 486 1315 504Q1316 524 1304.0 543.0Q1292 562 1274.0 574.0Q1256 586 1236 587Q1209 587 1192.0 566.5Q1175 546 1175 512ZM1200 512Q1199 562 1234 563Q1256 564 1272.5 547.0Q1289 530 1290 507Q1290 487 1275.5 471.0Q1261 455 1243 455Q1224 454 1213.0 469.5Q1202 485 1200 512ZM1184 808Q1189 773 1205.0 760.0Q1221 747 1244 750Q1272 754 1286.0 774.0Q1300 794 1300 827Q1299 887 1300.5 947.5Q1302 1008 1301 1068Q1300 1103 1298.0 1137.0Q1296 1171 1294 1206Q1293 1231 1275.0 1249.5Q1257 1268 1234 1270Q1206 1272 1195.0 1256.0Q1184 1240 1179 1218Q1175 1200 1173.5 1181.0Q1172 1162 1172 1143Q1171 1112 1171.0 1081.5Q1171 1051 1171 1020Q1171 1020 1171.5 997.5Q1172 975 1173.5 940.5Q1175 906 1178.0 870.0Q1181 834 1184 808ZM1269 878Q1269 861 1269.5 844.0Q1270 827 1268 811Q1267 805 1260.5 798.0Q1254 791 1248 790Q1246 789 1238.0 787.0Q1230 785 1221.0 787.0Q1212 789 1206.0 801.0Q1200 813 1200 842Q1201 894 1201.5 944.5Q1202 995 1200 1048Q1199 1082 1199.0 1123.0Q1199 1164 1201 1197Q1202 1207 1203.0 1220.0Q1204 1233 1210.0 1242.0Q1216 1251 1233 1250Q1248 1249 1254.0 1240.0Q1260 1231 1261.5 1218.0Q1263 1205 1263 1195Q1263 1164 1263.5 1122.5Q1264 1081 1265.0 1038.5Q1266 996 1266.5 959.5Q1267 923 1267.5 900.5Q1268 878 1269 878ZM1519 1182Q1556 1182 1587.5 1181.0Q1619 1180 1655 1181Q1670 1182 1686.5 1181.0Q1703 1180 1716 1185Q1722 1187 1725.0 1196.5Q1728 1206 1728 1220Q1728 1226 1722.0 1231.0Q1716 1236 1707 1241Q1703 1243 1698.0 1244.0Q1693 1245 1688 1245Q1625 1246 1562.0 1247.0Q1499 1248 1437 1250Q1433 1250 1429.0 1249.5Q1425 1249 1421 1249Q1406 1247 1393.5 1241.5Q1381 1236 1376 1221Q1367 1192 1385 1174Q1404 1152 1429.5 1121.5Q1455 1091 1482.5 1059.0Q1510 1027 1534.5 998.0Q1559 969 1575.0 949.5Q1591 930 1594 926Q1586 926 1566.5 926.5Q1547 927 1523.5 927.0Q1500 927 1478.5 927.0Q1457 927 1445 927Q1435 927 1426.5 923.0Q1418 919 1409 915Q1405 912 1400.5 904.5Q1396 897 1396 892Q1396 883 1400.5 874.5Q1405 866 1420.0 860.5Q1435 855 1468 855Q1489 855 1520.0 854.5Q1551 854 1582.0 853.0Q1613 852 1634.5 851.5Q1656 851 1657 851Q1687 853 1701.5 869.5Q1716 886 1705 914Q1691 946 1670 972Q1634 1017 1596.0 1061.0Q1558 1105 1520 1149Q1515 1154 1507.5 1162.0Q1500 1170 1500.5 1176.0Q1501 1182 1519 1182ZM1629 912Q1632 919 1621.5 932.5Q1611 946 1603 954Q1554 1012 1503.0 1068.5Q1452 1125 1402 1181Q1397 1187 1393.0 1198.0Q1389 1209 1391 1214Q1396 1220 1406.0 1224.5Q1416 1229 1424 1229Q1495 1232 1562 1232Q1627 1232 1693 1229Q1703 1228 1704.5 1221.0Q1706 1214 1703.0 1207.5Q1700 1201 1696 1200Q1690 1196 1682.0 1195.5Q1674 1195 1665 1195Q1619 1196 1573.0 1196.5Q1527 1197 1481 1198Q1466 1198 1463.5 1192.0Q1461 1186 1465.0 1178.0Q1469 1170 1472 1166Q1513 1126 1542.0 1092.0Q1571 1058 1598.0 1023.5Q1625 989 1658 949Q1663 943 1671.0 930.0Q1679 917 1684.5 903.0Q1690 889 1686 882Q1681 872 1668.0 872.0Q1655 872 1644 872Q1615 870 1575.0 870.0Q1535 870 1496.5 872.0Q1458 874 1432 880Q1425 881 1422.5 887.5Q1420 894 1421 897Q1424 907 1440.0 908.5Q1456 910 1477 909Q1509 908 1541.5 907.5Q1574 907 1606 906Q1611 906 1618.0 905.0Q1625 904 1629 912ZM2080 915Q2080 883 2079.0 856.0Q2078 829 2079 798Q2079 781 2085.5 768.5Q2092 756 2108 752Q2129 746 2144.0 757.5Q2159 769 2160 793Q2161 836 2161.0 879.0Q2161 922 2159 966Q2159 995 2157.0 1025.0Q2155 1055 2150 1084Q2146 1114 2138.5 1143.0Q2131 1172 2123 1201Q2116 1223 2098.5 1237.0Q2081 1251 2060 1257Q2011 1271 1960.5 1271.0Q1910 1271 1862 1249Q1834 1235 1818.5 1214.0Q1803 1193 1796 1164Q1780 1094 1778.0 1024.0Q1776 954 1781 884Q1783 862 1784.0 841.0Q1785 820 1787 799Q1788 791 1789.5 782.5Q1791 774 1795 767Q1802 753 1813.5 748.0Q1825 743 1837 747Q1859 754 1866 774Q1870 784 1870.5 792.5Q1871 801 1870 812Q1864 889 1862.5 966.0Q1861 1043 1874 1119Q1889 1199 1970 1193Q2014 1189 2035.5 1172.5Q2057 1156 2064 1113Q2068 1088 2071.5 1054.5Q2075 1021 2077.0 989.0Q2079 957 2080.0 936.0Q2081 915 2080 915ZM1852 797Q1849 789 1844.0 779.5Q1839 770 1831 769Q1823 768 1815.5 775.5Q1808 783 1805 791Q1802 799 1800.5 827.5Q1799 856 1798.5 897.5Q1798 939 1799.5 984.5Q1801 1030 1804.5 1073.5Q1808 1117 1814 1150Q1823 1196 1847.5 1219.5Q1872 1243 1920 1251Q1950 1257 1978.5 1255.0Q2007 1253 2035 1247Q2071 1239 2089.0 1217.0Q2107 1195 2114 1164Q2136 1078 2138.0 991.5Q2140 905 2143 819Q2144 814 2142.5 804.0Q2141 794 2137.0 784.5Q2133 775 2125 774Q2119 773 2112.0 778.0Q2105 783 2102 788Q2098 793 2097.0 801.0Q2096 809 2096 817Q2096 867 2096.5 917.5Q2097 968 2094 1018Q2092 1052 2086.0 1085.5Q2080 1119 2069 1151Q2061 1177 2039.0 1193.0Q2017 1209 1989.5 1214.5Q1962 1220 1934.5 1213.5Q1907 1207 1888 1187Q1867 1167 1860.0 1141.0Q1853 1115 1853 1088Q1852 1063 1852.0 1027.5Q1852 992 1852.5 953.5Q1853 915 1853.0 880.5Q1853 846 1853.0 823.5Q1853 801 1852 797ZM2334 829Q2360 804 2388.0 790.5Q2416 777 2446 779Q2502 783 2537.5 820.5Q2573 858 2578 936Q2580 946 2579.5 956.0Q2579 966 2578 975Q2577 993 2567.0 1003.0Q2557 1013 2540 1012Q2507 1012 2504 976Q2503 961 2501.0 946.0Q2499 931 2496 916Q2489 880 2463.0 876.5Q2437 873 2411 884Q2386 894 2371.0 913.5Q2356 933 2345 957Q2338 974 2336.5 1008.0Q2335 1042 2336.0 1080.5Q2337 1119 2339.0 1150.5Q2341 1182 2341 1195Q2341 1211 2330.0 1230.0Q2319 1249 2305 1259Q2294 1266 2278.5 1264.5Q2263 1263 2251.5 1254.5Q2240 1246 2238 1233Q2236 1215 2236.5 1193.5Q2237 1172 2238 1155Q2239 1130 2239.0 1092.0Q2239 1054 2239.5 1012.5Q2240 971 2240.5 933.0Q2241 895 2241.0 868.5Q2241 842 2242 835Q2243 822 2247.0 806.0Q2251 790 2256 777Q2263 762 2279.5 757.0Q2296 752 2311 756Q2327 760 2331.0 775.0Q2335 790 2334 804ZM2327 877Q2321 881 2319.5 876.0Q2318 871 2318.0 863.0Q2318 855 2318 851Q2318 840 2319.5 829.5Q2321 819 2321 809Q2321 798 2317.0 789.0Q2313 780 2300 779Q2287 777 2280.5 784.5Q2274 792 2272 804Q2270 819 2268.0 834.0Q2266 849 2266 864Q2265 933 2264.0 1001.5Q2263 1070 2262 1138Q2262 1159 2262.5 1181.0Q2263 1203 2265 1225Q2267 1238 2279.5 1242.0Q2292 1246 2300 1236Q2314 1219 2316 1193Q2318 1152 2315.0 1109.5Q2312 1067 2314 1025Q2317 981 2332.5 943.0Q2348 905 2384 877Q2406 861 2430.5 853.5Q2455 846 2480 860Q2503 873 2509.0 897.0Q2515 921 2516 946Q2517 954 2516.0 962.5Q2515 971 2517 979Q2519 984 2525.0 989.0Q2531 994 2536 995Q2541 996 2547.5 991.0Q2554 986 2555 982Q2557 969 2558.5 956.0Q2560 943 2558 930Q2553 865 2518.5 833.0Q2484 801 2427 805Q2417 806 2401.0 812.0Q2385 818 2372 828Q2347 847 2339.0 860.5Q2331 874 2327 877ZM2953 915Q2953 883 2952.0 856.0Q2951 829 2952 798Q2952 781 2958.5 768.5Q2965 756 2981 752Q3002 746 3017.0 757.5Q3032 769 3033 793Q3034 836 3034.0 879.0Q3034 922 3032 966Q3032 995 3030.0 1025.0Q3028 1055 3023 1084Q3019 1114 3011.5 1143.0Q3004 1172 2996 1201Q2989 1223 2971.5 1237.0Q2954 1251 2933 1257Q2884 1271 2833.5 1271.0Q2783 1271 2735 1249Q2707 1235 2691.5 1214.0Q2676 1193 2669 1164Q2653 1094 2651.0 1024.0Q2649 954 2654 884Q2656 862 2657.0 841.0Q2658 820 2660 799Q2661 791 2662.5 782.5Q2664 774 2668 767Q2675 753 2686.5 748.0Q2698 743 2710 747Q2732 754 2739 774Q2743 784 2743.5 792.5Q2744 801 2743 812Q2737 889 2735.5 966.0Q2734 1043 2747 1119Q2762 1199 2843 1193Q2887 1189 2908.5 1172.5Q2930 1156 2937 1113Q2941 1088 2944.5 1054.5Q2948 1021 2950.0 989.0Q2952 957 2953.0 936.0Q2954 915 2953 915ZM2725 797Q2722 789 2717.0 779.5Q2712 770 2704 769Q2696 768 2688.5 775.5Q2681 783 2678 791Q2675 799 2673.5 827.5Q2672 856 2671.5 897.5Q2671 939 2672.5 984.5Q2674 1030 2677.5 1073.5Q2681 1117 2687 1150Q2696 1196 2720.5 1219.5Q2745 1243 2793 1251Q2823 1257 2851.5 1255.0Q2880 1253 2908 1247Q2944 1239 2962.0 1217.0Q2980 1195 2987 1164Q3009 1078 3011.0 991.5Q3013 905 3016 819Q3017 814 3015.5 804.0Q3014 794 3010.0 784.5Q3006 775 2998 774Q2992 773 2985.0 778.0Q2978 783 2975 788Q2971 793 2970.0 801.0Q2969 809 2969 817Q2969 867 2969.5 917.5Q2970 968 2967 1018Q2965 1052 2959.0 1085.5Q2953 1119 2942 1151Q2934 1177 2912.0 1193.0Q2890 1209 2862.5 1214.5Q2835 1220 2807.5 1213.5Q2780 1207 2761 1187Q2740 1167 2733.0 1141.0Q2726 1115 2726 1088Q2725 1063 2725.0 1027.5Q2725 992 2725.5 953.5Q2726 915 2726.0 880.5Q2726 846 2726.0 823.5Q2726 801 2725 797Z" fill="currentColor" /></svg>