<svg viewBox="0 0 14958 2712" xmlns="http://www.w3.org/2000/svg"><path d="M1628 1336Q1631 1358 1631.5 1379.0Q1632 1400 1632 1420Q1632 1525 1599.5 1617.0Q1567 1709 1510.0 1786.0Q1453 1863 1375.5 1924.0Q1298 1985 1207.0 2027.0Q1116 2069 1016.5 2091.5Q917 2114 817 2114Q723 2114 636.0 2106.0Q549 2098 471 2098Q411 2098 358.0 2106.5Q305 2115 260 2141Q223 2004 181.5 1892.5Q140 1781 105 1702Q64 1610 23 1537Q142 1599 261.5 1635.0Q381 1671 489.0 1690.5Q597 1710 686.0 1715.5Q775 1721 834 1721Q900 1721 967.0 1713.0Q1034 1705 1102 1688Q1085 1665 1067.0 1647.0Q1049 1629 1034 1618Q1016 1605 999 1596Q970 1582 920.5 1568.5Q871 1555 810.5 1539.0Q750 1523 681.5 1504.0Q613 1485 545.5 1460.0Q478 1435 416.5 1403.0Q355 1371 307 1330Q269 1297 244.0 1258.5Q219 1220 204.5 1179.5Q190 1139 183.5 1098.5Q177 1058 176 1021Q141 1035 113.0 1048.0Q85 1061 65 1070L25 1090Q61 982 125.5 899.0Q190 816 270.5 755.0Q351 694 442.5 652.0Q534 610 624 583Q834 520 1079 511Q1155 511 1241 505Q1315 500 1410.0 489.5Q1505 479 1610 459Q1578 507 1558.5 563.0Q1539 619 1528.0 676.0Q1517 733 1513.0 788.5Q1509 844 1509 890Q1509 921 1510.0 946.0Q1511 971 1513 989Q1515 1010 1518 1027Q1343 948 1177.0 916.5Q1011 885 856 885Q803 885 755.0 888.5Q707 892 659 898Q670 946 698.5 978.0Q727 1010 756 1030Q790 1053 829 1066Q905 1090 994.0 1124.5Q1083 1159 1172.0 1210.0Q1261 1261 1343.0 1330.0Q1425 1399 1487 1490Q1525 1458 1561.0 1419.5Q1597 1381 1628 1336ZM2312 2049Q2221 2033 2151.0 2025.5Q2081 2018 2013 2018Q1885 2018 1712 2055Q1787 1881 1828.5 1700.0Q1870 1519 1870 1326Q1870 1208 1854.0 1089.5Q1838 971 1804 846Q1868 864 1930.0 878.0Q1992 892 2054.0 902.0Q2116 912 2180.0 917.5Q2244 923 2312 924Q2321 1179 2324 1434Q2400 1426 2473.5 1417.5Q2547 1409 2621 1399Q2632 1250 2656.0 1100.0Q2680 950 2724 795Q2781 818 2832.5 833.5Q2884 849 2935.0 858.5Q2986 868 3038.0 872.5Q3090 877 3148 877H3217Q3160 986 3122.5 1096.0Q3085 1206 3068 1322Q3113 1312 3158.5 1302.0Q3204 1292 3250 1281Q3232 1391 3232 1510Q3232 1567 3236.5 1624.5Q3241 1682 3250 1737Q3202 1735 3157.5 1733.5Q3113 1732 3068 1729Q3079 1803 3096.5 1877.0Q3114 1951 3140 2026Q3112 2025 3092.0 2024.5Q3072 2024 3056.5 2023.5Q3041 2023 3028.0 2022.5Q3015 2022 3002 2022Q2915 2022 2827.5 2037.5Q2740 2053 2636 2083Q2625 1980 2619.0 1875.5Q2613 1771 2613 1662Q2538 1645 2467.0 1624.0Q2396 1603 2324 1580Q2322 1697 2319.5 1814.0Q2317 1931 2312 2049ZM4661 859Q4626 887 4595.0 917.5Q4564 948 4536 982Q4630 1000 4714.0 1039.5Q4798 1079 4860.0 1139.0Q4922 1199 4958.5 1278.5Q4995 1358 4995 1455Q4995 1565 4958.5 1653.5Q4922 1742 4857.5 1811.5Q4793 1881 4705.0 1931.5Q4617 1982 4514.0 2014.5Q4411 2047 4297.0 2063.0Q4183 2079 4067 2079Q4026 2079 3982.0 2077.5Q3938 2076 3896.5 2073.0Q3855 2070 3819.5 2064.5Q3784 2059 3760 2051Q3788 2028 3813.5 2004.5Q3839 1981 3860 1957Q3765 1939 3681.5 1903.0Q3598 1867 3535.0 1810.5Q3472 1754 3435.5 1677.5Q3399 1601 3399 1502Q3399 1386 3441.5 1292.5Q3484 1199 3558.0 1126.0Q3632 1053 3732.0 1001.0Q3832 949 3947.0 915.0Q4062 881 4186.5 865.0Q4311 849 4434 849Q4485 849 4538.5 851.5Q4592 854 4651 859ZM4561 1385Q4561 1300 4524.5 1246.0Q4488 1192 4428 1160Q4417 1186 4407.0 1213.5Q4397 1241 4389 1270Q4319 1250 4271.5 1243.0Q4224 1236 4192 1236Q4129 1236 4065.0 1257.0Q4001 1278 3950.0 1317.5Q3899 1357 3866.5 1413.5Q3834 1470 3834 1541Q3834 1609 3868.5 1665.5Q3903 1722 3959 1770Q3968 1739 3972.5 1707.0Q3977 1675 3979 1641Q4053 1675 4110.0 1688.0Q4167 1701 4210 1701Q4276 1701 4339.0 1679.5Q4402 1658 4451.5 1617.0Q4501 1576 4531.0 1517.5Q4561 1459 4561 1385ZM6283 1582Q6206 1700 6096.0 1793.5Q5986 1887 5840.5 1954.5Q5695 2022 5513.0 2063.0Q5331 2104 5111 2118Q5111 2055 5110.0 1999.5Q5109 1944 5101.0 1890.0Q5093 1836 5075.5 1781.0Q5058 1726 5025 1664Q5166 1706 5292.0 1725.0Q5418 1744 5535 1744Q5588 1744 5640.5 1740.5Q5693 1737 5746 1731Q5728 1487 5686.0 1241.5Q5644 996 5576 769Q5722 820 5857.0 852.5Q5992 885 6117 885H6186Q6172 956 6161.5 1034.0Q6151 1112 6143.0 1191.5Q6135 1271 6131.0 1350.0Q6127 1429 6127 1502Q6127 1537 6127.5 1571.0Q6128 1605 6131 1639Q6168 1627 6206.5 1612.0Q6245 1597 6283 1582ZM7894 832Q7894 1138 7835.5 1370.5Q7777 1603 7661.5 1759.5Q7546 1916 7375.0 1995.5Q7204 2075 6979 2075Q6920 2075 6859.0 2068.0Q6798 2061 6735 2047Q6747 2041 6761 2031Q6773 2023 6788.5 2011.5Q6804 2000 6821 1985Q6716 1952 6635.0 1878.5Q6554 1805 6499.5 1699.5Q6445 1594 6417.0 1460.5Q6389 1327 6389 1174Q6389 1137 6390.5 1107.0Q6392 1077 6395.0 1047.0Q6398 1017 6402.5 984.5Q6407 952 6413 910Q6437 912 6464 914Q6487 916 6517.0 917.0Q6547 918 6579 918Q6621 918 6671.0 915.0Q6721 912 6776.5 904.5Q6832 897 6891.5 883.0Q6951 869 7012 846Q6975 931 6947.0 1001.5Q6919 1072 6900.5 1135.5Q6882 1199 6873.0 1258.5Q6864 1318 6864 1379Q6864 1482 6889.0 1570.5Q6914 1659 6966 1733L6971 1703Q7041 1721 7081 1721Q7141 1721 7188.0 1699.0Q7235 1677 7270.0 1640.5Q7305 1604 7330.0 1556.0Q7355 1508 7370.0 1456.0Q7385 1404 7392.0 1351.5Q7399 1299 7399 1252Q7399 1211 7388.5 1158.5Q7378 1106 7360.0 1048.5Q7342 991 7318.5 932.5Q7295 874 7268 820Q7309 832 7358.0 842.0Q7407 852 7458.0 859.5Q7509 867 7560.5 871.0Q7612 875 7659 875Q7718 875 7777.5 866.0Q7837 857 7894 832ZM9842 879Q9804 957 9778.0 1029.0Q9752 1101 9736.0 1167.0Q9720 1233 9713.5 1294.0Q9707 1355 9707 1410Q9707 1518 9730.5 1607.5Q9754 1697 9791.0 1770.5Q9828 1844 9874.5 1903.0Q9921 1962 9967 2008Q9927 2008 9893.5 2004.0Q9860 2000 9820 2000Q9777 2000 9736.0 2005.5Q9695 2011 9652.5 2021.5Q9610 2032 9564.0 2048.0Q9518 2064 9465 2086Q9419 1967 9391.0 1848.0Q9363 1729 9351 1610Q9301 1709 9267.0 1817.0Q9233 1925 9218 2049Q9206 2049 9167.5 2050.0Q9129 2051 9073.5 2055.5Q9018 2060 8952.0 2070.5Q8886 2081 8820 2100Q8806 1966 8773.0 1847.5Q8740 1729 8689 1623Q8677 1738 8648.0 1854.0Q8619 1970 8574 2086Q8368 2000 8163 2000Q8132 2000 8089.0 2003.5Q8046 2007 8003 2010Q8160 1859 8241.5 1671.5Q8323 1484 8323 1254Q8323 1228 8321.0 1198.5Q8319 1169 8316 1137Q8241 1066 8156.5 998.0Q8072 930 7978 859Q8020 867 8090.5 880.5Q8161 894 8259 894Q8344 894 8447.0 877.0Q8550 860 8665 812Q8731 903 8796 1022Q8852 1124 8913.5 1266.5Q8975 1409 9025 1586L9095 1412Q9129 1327 9160.5 1248.0Q9192 1169 9219.5 1092.5Q9247 1016 9269.5 938.5Q9292 861 9310 777Q9382 815 9457.0 836.0Q9532 857 9602.5 866.5Q9673 876 9735.0 877.5Q9797 879 9842 879ZM11599 1643Q11557 1663 11516.0 1681.5Q11475 1700 11433 1717Q11525 1883 11636 2030Q11481 2030 11340.0 2060.5Q11199 2091 11054 2155Q11065 2129 11067.5 2101.5Q11070 2074 11070 2045Q11070 1997 11061.0 1939.5Q11052 1882 11034 1819Q10992 1825 10950.0 1827.5Q10908 1830 10868 1830Q10797 1830 10728.5 1821.5Q10660 1813 10597 1793Q10580 1867 10566.0 1944.5Q10552 2022 10538 2104Q10487 2078 10426 2057Q10374 2040 10305.5 2025.0Q10237 2010 10161 2010Q10096 2010 10023.0 2021.0Q9950 2032 9862 2057Q9930 1990 9989.5 1920.5Q10049 1851 10098.5 1786.5Q10148 1722 10186.5 1665.5Q10225 1609 10251 1567Q10222 1532 10197.5 1492.0Q10173 1452 10151 1406Q10191 1426 10230.0 1442.5Q10269 1459 10307 1473Q10353 1392 10404.0 1310.0Q10455 1228 10513 1150Q10501 1121 10482.5 1084.0Q10464 1047 10442.5 1007.5Q10421 968 10397.0 929.0Q10373 890 10350 857Q10446 883 10542.5 898.0Q10639 913 10735 918Q10790 873 10850.0 835.5Q10910 798 10976 769Q10955 804 10935.0 841.0Q10915 878 10896 916Q10946 911 10997.0 904.5Q11048 898 11103 887Q11140 1022 11184.0 1150.0Q11228 1278 11279 1402Q11323 1377 11366.5 1350.5Q11410 1324 11453 1293Q11484 1398 11520.0 1486.0Q11556 1574 11599 1643ZM10929 1537Q10894 1459 10852.5 1379.5Q10811 1300 10763 1219Q10704 1377 10655 1555Q10673 1557 10690.5 1557.0Q10708 1557 10726 1557Q10777 1557 10827.5 1552.5Q10878 1548 10929 1537ZM13277 1967Q13131 1978 12993.5 2017.5Q12856 2057 12714 2126Q12692 1911 12609 1729Q12569 1738 12528.0 1743.0Q12487 1748 12443 1748Q12426 1748 12409.5 1748.0Q12393 1748 12376 1746Q12379 1901 12388 2055Q12356 2050 12324.0 2048.5Q12292 2047 12263 2047Q12164 2047 12046.0 2069.5Q11928 2092 11792 2137Q11843 1999 11879.5 1863.0Q11916 1727 11937 1588Q11869 1543 11820.5 1500.0Q11772 1457 11747 1428Q11796 1442 11848.5 1454.0Q11901 1466 11954 1475Q11966 1361 11966 1244V1207Q11912 1224 11859.0 1243.0Q11806 1262 11753 1285Q11784 1185 11784 1100Q11784 1029 11766.0 965.5Q11748 902 11714 846Q11929 816 12094.5 805.5Q12260 795 12390 795Q12450 795 12528.0 797.5Q12606 800 12688.0 810.0Q12770 820 12851.5 839.0Q12933 858 13001.0 891.0Q13069 924 13117.5 974.0Q13166 1024 13183 1094Q13206 1083 13228.0 1072.0Q13250 1061 13273 1047Q13261 1119 13233.0 1190.5Q13205 1262 13163.5 1329.0Q13122 1396 13067.5 1456.0Q13013 1516 12949 1567Q13093 1795 13277 1967ZM12599 1100Q12559 1100 12504.0 1104.5Q12449 1109 12384 1115Q12381 1211 12378.5 1306.5Q12376 1402 12376 1496Q12436 1487 12489.0 1466.5Q12542 1446 12583.0 1413.0Q12624 1380 12650.5 1332.5Q12677 1285 12685 1221Q12723 1215 12762.5 1209.0Q12802 1203 12843 1195Q12841 1195 12841 1194V1193H12843Q12823 1171 12801.5 1153.5Q12780 1136 12752.0 1124.0Q12724 1112 12687.0 1106.0Q12650 1100 12599 1100ZM14894 832Q14894 1138 14835.5 1370.5Q14777 1603 14661.5 1759.5Q14546 1916 14375.0 1995.5Q14204 2075 13979 2075Q13920 2075 13859.0 2068.0Q13798 2061 13735 2047Q13747 2041 13761 2031Q13773 2023 13788.5 2011.5Q13804 2000 13821 1985Q13716 1952 13635.0 1878.5Q13554 1805 13499.5 1699.5Q13445 1594 13417.0 1460.5Q13389 1327 13389 1174Q13389 1137 13390.5 1107.0Q13392 1077 13395.0 1047.0Q13398 1017 13402.5 984.5Q13407 952 13413 910Q13437 912 13464 914Q13487 916 13517.0 917.0Q13547 918 13579 918Q13621 918 13671.0 915.0Q13721 912 13776.5 904.5Q13832 897 13891.5 883.0Q13951 869 14012 846Q13975 931 13947.0 1001.5Q13919 1072 13900.5 1135.5Q13882 1199 13873.0 1258.5Q13864 1318 13864 1379Q13864 1482 13889.0 1570.5Q13914 1659 13966 1733L13971 1703Q14041 1721 14081 1721Q14141 1721 14188.0 1699.0Q14235 1677 14270.0 1640.5Q14305 1604 14330.0 1556.0Q14355 1508 14370.0 1456.0Q14385 1404 14392.0 1351.5Q14399 1299 14399 1252Q14399 1211 14388.5 1158.5Q14378 1106 14360.0 1048.5Q14342 991 14318.5 932.5Q14295 874 14268 820Q14309 832 14358.0 842.0Q14407 852 14458.0 859.5Q14509 867 14560.5 871.0Q14612 875 14659 875Q14718 875 14777.5 866.0Q14837 857 14894 832Z" fill="currentColor" /></svg>