<svg viewBox="0 0 5778 1458" xmlns="http://www.w3.org/2000/svg"><path d="M574 410 597 391Q621 372 636.5 365.0Q652 358 672 358Q696 358 710.0 368.5Q724 379 724 399Q724 407 721 416L679 554Q672 578 661.5 588.0Q651 598 630 598Q608 598 591.5 584.5Q575 571 540 529Q505 489 476.5 472.5Q448 456 418 456Q396 456 381.0 470.5Q366 485 366 506Q366 530 390.0 550.5Q414 571 465 602Q517 633 551.0 658.0Q585 683 609.0 720.0Q633 757 633 805Q633 836 623 867Q599 947 530.0 988.5Q461 1030 369 1030Q300 1030 253.0 1014.0Q206 998 157 960L121 990Q96 1011 80.0 1018.5Q64 1026 44 1026Q21 1026 7.5 1015.0Q-6 1004 -6 985Q-6 975 -2 964L47 815Q55 789 69.0 778.0Q83 767 105 767Q128 767 146.5 783.0Q165 799 195 841Q227 887 254.5 905.0Q282 923 320 923Q347 923 361.5 914.5Q376 906 382 887Q384 882 384 872Q384 848 361.0 828.0Q338 808 290 780Q239 749 207.0 724.5Q175 700 151.5 663.0Q128 626 128 576Q128 541 139 507Q160 438 225.0 396.0Q290 354 374 354Q430 354 477.5 367.5Q525 381 574 410ZM1302 888Q1300 892 1300 900Q1300 907 1303.5 911.0Q1307 915 1313 915Q1325 915 1333.5 904.5Q1342 894 1345 894Q1350 894 1353.0 900.5Q1356 907 1356 916Q1357 945 1337.0 972.5Q1317 1000 1278.5 1017.5Q1240 1035 1186 1035Q1120 1035 1081.0 1004.5Q1042 974 1041 923Q1041 886 1059 840L1114 696Q1119 683 1119 675Q1119 662 1110.5 654.5Q1102 647 1090 647Q1071 647 1051.5 664.5Q1032 682 1020 721V719L957 922Q954 934 954 943Q954 956 959.0 963.5Q964 971 973 978Q980 985 983.0 989.5Q986 994 984 1001Q979 1014 964.0 1020.0Q949 1026 918 1026H690Q664 1026 652.0 1017.5Q640 1009 644 995Q648 983 665 974Q680 966 690.0 955.0Q700 944 707 920L859 421Q862 412 862 406Q862 395 856.5 388.0Q851 381 842 374Q832 366 827.5 360.0Q823 354 826 344Q832 321 889.0 304.0Q946 287 1008 287Q1066 287 1093.5 309.0Q1121 331 1121 369Q1121 391 1114 412L1060 588Q1099 537 1142.5 517.0Q1186 497 1237 497Q1298 497 1335.5 534.0Q1373 571 1373 630Q1373 661 1363 691ZM2013 615Q2013 634 2009 650Q1999 691 1971.0 713.0Q1943 735 1904 735Q1866 735 1846.5 717.0Q1827 699 1812 669Q1804 652 1797.0 644.0Q1790 636 1781 636Q1771 636 1763.5 644.0Q1756 652 1750 672L1673 922Q1671 927 1671 937Q1671 950 1678.5 958.5Q1686 967 1699 975Q1711 983 1715.0 988.0Q1719 993 1718 1001Q1716 1014 1703.5 1020.0Q1691 1026 1661 1026H1405Q1379 1026 1367.5 1017.5Q1356 1009 1359 995Q1363 983 1380 974Q1395 966 1405.0 955.0Q1415 944 1422 920L1511 631Q1513 626 1513 617Q1513 606 1508.5 600.0Q1504 594 1494 585Q1484 577 1480.0 571.0Q1476 565 1479 555Q1485 532 1542.0 514.5Q1599 497 1661 497Q1702 497 1729.0 515.5Q1756 534 1764 568Q1812 497 1890 497Q1946 497 1979.5 531.0Q2013 565 2013 615ZM2350 579Q2350 602 2343 623L2251 922Q2248 934 2248 943Q2248 956 2253.0 963.5Q2258 971 2267 978Q2274 985 2277.0 989.5Q2280 994 2278 1001Q2273 1014 2258.0 1020.0Q2243 1026 2212 1026H1984Q1958 1026 1946.0 1017.5Q1934 1009 1938 995Q1942 983 1959 974Q1974 966 1984.0 955.0Q1994 944 2001 920L2088 631Q2091 622 2091 616Q2091 605 2086.0 598.5Q2081 592 2071 585Q2061 577 2057.0 571.0Q2053 565 2056 555Q2062 532 2119.0 514.5Q2176 497 2238 497Q2296 497 2323.0 519.0Q2350 541 2350 579ZM2396 364Q2396 390 2382.5 415.0Q2369 440 2344.5 455.5Q2320 471 2290 471Q2252 471 2226.5 445.5Q2201 420 2200 382Q2200 357 2213.0 332.5Q2226 308 2250.0 292.0Q2274 276 2305 276Q2344 276 2370.0 301.5Q2396 327 2396 364ZM3063 605Q3063 653 3034.0 680.0Q3005 707 2958 707Q2916 707 2893.0 685.5Q2870 664 2871 637Q2861 635 2854.0 645.0Q2847 655 2839 684Q2834 703 2820 719Q2888 724 2921.0 750.0Q2954 776 2954 817Q2954 837 2947 857L2939 888Q2937 893 2937 901Q2937 915 2950 915Q2962 915 2970.5 904.5Q2979 894 2982 894Q2987 894 2990.0 900.5Q2993 907 2993 916Q2994 945 2975.5 972.5Q2957 1000 2919.5 1017.5Q2882 1035 2829 1035Q2765 1035 2722.5 1003.0Q2680 971 2680 919Q2680 900 2688 876L2707 826Q2712 808 2712 800Q2712 787 2703.5 781.0Q2695 775 2677 775H2657L2612 922Q2609 934 2609 943Q2609 956 2614.0 963.5Q2619 971 2628 978Q2635 985 2638.0 989.5Q2641 994 2639 1001Q2634 1014 2619.0 1020.0Q2604 1026 2573 1026H2345Q2319 1026 2307.0 1017.5Q2295 1009 2299 995Q2303 983 2320 974Q2335 966 2345.0 955.0Q2355 944 2362 920L2514 421Q2517 412 2517 406Q2517 395 2511.5 388.0Q2506 381 2497 374Q2487 366 2482.5 360.0Q2478 354 2481 344Q2487 321 2544.0 304.0Q2601 287 2663 287Q2721 287 2748.0 308.5Q2775 330 2775 368Q2775 391 2768 412L2681 696H2714Q2734 696 2746.5 684.0Q2759 672 2766 649Q2791 575 2831.0 536.0Q2871 497 2937 497Q2994 497 3028.5 528.5Q3063 560 3063 605ZM3656 888Q3654 892 3654 900Q3654 907 3657.5 911.0Q3661 915 3667 915Q3679 915 3687.5 904.5Q3696 894 3699 894Q3704 894 3707.0 900.5Q3710 907 3710 916Q3711 945 3691.0 972.5Q3671 1000 3632.5 1017.5Q3594 1035 3540 1035Q3474 1035 3435.0 1004.5Q3396 974 3395 923Q3395 886 3413 840L3468 696Q3473 683 3473 675Q3473 662 3464.5 654.5Q3456 647 3444 647Q3425 647 3405.5 664.5Q3386 682 3374 721V719L3311 922Q3308 934 3308 943Q3308 956 3313.0 963.5Q3318 971 3327 978Q3334 985 3337.0 989.5Q3340 994 3338 1001Q3333 1014 3318.0 1020.0Q3303 1026 3272 1026H3044Q3018 1026 3006.0 1017.5Q2994 1009 2998 995Q3002 983 3019 974Q3034 966 3044.0 955.0Q3054 944 3061 920L3213 421Q3216 412 3216 406Q3216 395 3210.5 388.0Q3205 381 3196 374Q3186 366 3181.5 360.0Q3177 354 3180 344Q3186 321 3243.0 304.0Q3300 287 3362 287Q3420 287 3447.5 309.0Q3475 331 3475 369Q3475 391 3468 412L3414 588Q3453 537 3496.5 517.0Q3540 497 3591 497Q3652 497 3689.5 534.0Q3727 571 3727 630Q3727 661 3717 691ZM4363 669Q4363 702 4351 744L4310 882Q4309 886 4309 892Q4309 908 4322 908Q4334 908 4342.5 897.5Q4351 887 4354 887Q4359 887 4362.5 894.0Q4366 901 4366 910Q4367 937 4345.5 965.0Q4324 993 4288.0 1011.0Q4252 1029 4209 1029Q4157 1029 4120.0 1010.0Q4083 991 4069 954Q4039 990 3998.0 1009.5Q3957 1029 3910 1029Q3857 1029 3821.0 1008.5Q3785 988 3767.5 955.5Q3750 923 3750 887Q3750 871 3753 856Q3769 787 3822.5 752.0Q3876 717 3950 717Q4033 717 4113 743L4138 677Q4151 635 4151 612Q4150 588 4135.0 576.0Q4120 564 4089 564Q4095 580 4095 597Q4095 634 4067.0 661.0Q4039 688 3987 688Q3938 688 3910.5 666.5Q3883 645 3883 613Q3883 563 3939.0 530.0Q3995 497 4110 497Q4225 497 4294.0 539.5Q4363 582 4363 669ZM3991 868Q3991 884 3998.5 894.0Q4006 904 4020 904Q4033 904 4048.5 893.5Q4064 883 4071 862L4092 803Q4075 800 4054 800Q4026 800 4008.5 821.5Q3991 843 3991 868ZM5026 888Q5024 892 5024 900Q5024 907 5027.5 911.0Q5031 915 5037 915Q5049 915 5057.5 904.5Q5066 894 5069 894Q5074 894 5077.0 900.5Q5080 907 5080 916Q5081 945 5061.0 972.5Q5041 1000 5002.5 1017.5Q4964 1035 4910 1035Q4844 1035 4805.0 1004.5Q4766 974 4765 923Q4765 886 4783 840L4838 696Q4843 683 4843 675Q4843 662 4834.5 654.5Q4826 647 4814 647Q4792 647 4772.0 667.5Q4752 688 4743 718L4681 922Q4677 933 4677 943Q4677 955 4682.0 962.5Q4687 970 4696 978Q4703 984 4706.0 989.0Q4709 994 4707 1001Q4703 1014 4688.0 1020.0Q4673 1026 4641 1026H4413Q4387 1026 4375.5 1017.5Q4364 1009 4367 995Q4371 983 4388 974Q4403 966 4413.0 955.0Q4423 944 4430 920L4519 631Q4521 626 4521 617Q4521 606 4516.5 600.0Q4512 594 4502 585Q4492 577 4488.0 571.0Q4484 565 4487 555Q4493 532 4550.0 514.5Q4607 497 4669 497Q4719 497 4748.0 524.5Q4777 552 4774 601Q4815 542 4861.0 519.5Q4907 497 4961 497Q5022 497 5059.5 534.0Q5097 571 5097 630Q5097 661 5087 691ZM5680 893Q5680 900 5684.0 904.0Q5688 908 5694 908Q5706 908 5714.5 897.5Q5723 887 5726 887Q5731 887 5734.0 894.0Q5737 901 5737 910Q5738 937 5716.5 965.0Q5695 993 5659.0 1011.0Q5623 1029 5581 1029Q5531 1029 5494.0 1010.0Q5457 991 5443 960Q5416 995 5381.0 1012.0Q5346 1029 5307 1029Q5261 1029 5221.5 1006.0Q5182 983 5158.5 940.5Q5135 898 5135 844Q5135 753 5169.5 672.5Q5204 592 5266.0 542.5Q5328 493 5407 493Q5450 493 5480.5 503.0Q5511 513 5536 533L5570 421Q5573 412 5573 406Q5573 395 5567.5 388.0Q5562 381 5553 374Q5543 366 5538.5 360.0Q5534 354 5537 344Q5543 321 5600.0 304.0Q5657 287 5719 287Q5777 287 5804.5 309.0Q5832 331 5832 369Q5832 391 5825 412L5682 882Q5680 890 5680 893ZM5480 587Q5451 587 5423.0 630.0Q5395 673 5378.0 734.0Q5361 795 5362 844Q5362 899 5398 899Q5411 899 5420.0 888.5Q5429 878 5437 854L5515 601Q5499 587 5480 587Z" fill="currentColor" /></svg>