<svg viewBox="0 0 3721 1113.857142857143" xmlns="http://www.w3.org/2000/svg"><path d="M258 895Q191 895 132.0 879.0Q73 863 29 834Q24 810 19.5 787.0Q15 764 10.5 734.0Q6 704 0 660V657Q2 648 14 640Q49 663 78.0 674.0Q107 685 126 685H156L173 686Q196 686 216 679Q242 669 245.5 653.0Q249 637 233.0 623.0Q217 609 184 605Q138 599 96.0 570.0Q54 541 27.5 497.0Q1 453 1 403Q1 314 50.0 264.5Q99 215 175 193Q242 174 323 174Q346 174 374.0 176.5Q402 179 444 185Q453 190 471 191L497 197Q514 201 525.5 201.5Q537 202 544 202Q545 202 545.5 202.5Q546 203 547 203Q549 204 551 206Q553 211 555.0 212.5Q557 214 558 214H560L562 236Q562 245 563.0 252.5Q564 260 565 267Q567 280 568.0 293.5Q569 307 569 321Q569 370 549 385L462 374H448Q441 374 422.0 373.0Q403 372 381.5 372.5Q360 373 344.5 377.5Q329 382 329 392Q329 404 336.5 415.5Q344 427 360 435Q367 439 373.0 443.0Q379 447 386 449Q394 451 399.0 453.0Q404 455 405 456Q440 468 469.5 485.5Q499 503 526 530Q555 558 565.0 596.5Q575 635 573 672Q564 747 520 801Q495 826 466.0 843.5Q437 861 403 873Q343 895 258 895ZM734 196 728 193Q728 191 726 191Q723 191 722 192Q721 193 718 193L709 195L702 193Q699 193 698 192Q697 191 694 191L671 188L664 185H659Q659 187 657 187Q650 187 648 186Q647 185 643 185Q635 180 632 169Q631 167 631.0 164.5Q631 162 630 161Q629 160 629.0 158.5Q629 157 628 156V61Q629 57 629 49V23Q629 10 627 5V3Q627 2 636.0 1.0Q645 0 653 0Q661 0 663.5 0.0Q666 0 667 1H681L701 3L720 9Q727 10 746.0 12.0Q765 14 769 14Q774 14 788.5 17.0Q803 20 807 19Q812 18 817.0 22.5Q822 27 826 27Q844 24 863 32Q874 36 882.0 38.5Q890 41 891 49L892 80Q893 109 896.5 127.5Q900 146 896 178L889 185L804 193Q796 193 782.5 193.5Q769 194 766 195Q762 196 758.0 196.0Q754 196 749 196ZM842 877 818 874 772 869 758 870H723Q722 866 717 866L703 867Q696 868 689.5 869.0Q683 870 680 870Q678 868 673 867H668Q668 866 666 866L663 867L662 868Q648 868 643 860Q639 853 637.0 840.5Q635 828 635 803Q636 796 635.5 787.0Q635 778 633 758L630 717V434Q630 417 629.5 401.0Q629 385 627 362Q626 353 624 346Q623 345 623 339Q625 299 640.5 285.5Q656 272 700 272Q700 272 706 270Q709 269 713 269H714Q715 269 716 270Q725 270 727 272H731Q735 272 738 269L813 270Q817 270 822.0 269.5Q827 269 834 268Q840 267 860 267Q906 267 906 283V437Q906 471 905.0 513.0Q904 555 903.0 592.0Q902 629 900 650L897 691Q895 725 894.0 750.0Q893 775 892 791Q891 792 891.0 795.5Q891 799 891 813Q891 840 884.0 856.5Q877 873 865 873ZM1257 1113Q1225 1113 1208.5 1111.5Q1192 1110 1181.0 1107.5Q1170 1105 1152 1104Q1111 1095 1091.5 1086.0Q1072 1077 1055 1061H1044L1043 1054H1035L1028 1045Q1013 1029 1002.5 1018.0Q992 1007 986.5 989.0Q981 971 981 936Q981 916 998.5 889.0Q1016 862 1041 845Q970 820 973 753Q975 724 1000.0 699.5Q1025 675 1068 652L1094 638H1098Q1075 633 1049.0 620.0Q1023 607 1015 597H1006V589Q1005 589 1004.0 588.5Q1003 588 1001 588L992 576Q974 553 964.5 517.0Q955 481 956 444Q959 388 993.5 349.0Q1028 310 1103 280Q1122 269 1141.5 266.0Q1161 263 1180 261Q1205 261 1234.0 262.0Q1263 263 1291 263H1296Q1300 263 1300 264Q1309 263 1333 264Q1347 265 1356.0 266.5Q1365 268 1375 271L1394 277Q1405 280 1407.0 273.5Q1409 267 1408.5 257.0Q1408 247 1411 240Q1419 223 1429.5 201.5Q1440 180 1453 153L1460 152L1490 161Q1497 161 1499 163Q1502 167 1504.0 168.0Q1506 169 1507 171L1527 179Q1531 177 1538 181L1551 186L1554 189Q1558 189 1559 190Q1562 193 1562 193Q1564 191 1564 194Q1566 194 1567 195L1570 197L1592 207L1595 211Q1599 211 1599 212Q1602 215 1604 215L1609 218Q1615 224 1611 228Q1604 236 1598.0 243.5Q1592 251 1567 274Q1565 277 1561.5 279.5Q1558 282 1556 284L1541 295Q1536 299 1536 301L1527 310Q1524 313 1519.0 318.0Q1514 323 1510 328Q1564 375 1559 462Q1557 493 1548.5 526.0Q1540 559 1530 575Q1517 597 1494.0 615.5Q1471 634 1447 642L1427 649Q1424 650 1421 652H1415Q1413 653 1404.5 655.5Q1396 658 1375 663Q1369 664 1362.0 663.5Q1355 663 1353 663Q1340 663 1332.5 662.5Q1325 662 1323 663Q1318 664 1310.5 662.5Q1303 661 1298 662Q1268 659 1254.0 665.5Q1240 672 1239.5 682.0Q1239 692 1249.0 700.5Q1259 709 1276 710Q1321 715 1341.5 718.5Q1362 722 1371.5 724.5Q1381 727 1390.0 729.5Q1399 732 1419 735Q1601 762 1600 910Q1598 1052 1439 1097Q1437 1097 1436.0 1095.0Q1435 1093 1430 1097Q1429 1098 1425 1098Q1419 1101 1407 1101H1400Q1372 1101 1348.0 1108.5Q1324 1116 1304 1113Q1299 1112 1290.0 1112.5Q1281 1113 1278 1113ZM1266 543 1286 542 1304 526 1309 523 1315 509V500Q1317 495 1318.5 490.5Q1320 486 1324 479V475L1325 468L1299 404Q1295 387 1284 384Q1269 381 1266.0 379.0Q1263 377 1254 377Q1252 377 1247.0 378.5Q1242 380 1235 382Q1207 400 1207 433V441Q1207 458 1209.5 473.5Q1212 489 1216 494Q1221 501 1220.0 505.0Q1219 509 1219 511Q1219 521 1228.5 527.0Q1238 533 1248 539Q1250 541 1254.0 542.5Q1258 544 1266 543ZM1319 967Q1353 960 1372.0 946.5Q1391 933 1390.0 920.5Q1389 908 1363 904Q1353 902 1353.5 901.0Q1354 900 1349 900H1323Q1322 899 1314.0 898.0Q1306 897 1297 896Q1286 894 1289.0 893.5Q1292 893 1284 894Q1271 893 1265.5 892.0Q1260 891 1255.5 890.0Q1251 889 1240 888Q1227 887 1210.5 886.0Q1194 885 1189 885Q1181 885 1181.0 886.0Q1181 887 1179 890L1175 898Q1169 910 1175.0 928.5Q1181 947 1194 957Q1211 970 1239.5 972.0Q1268 974 1319 967ZM2545 697Q2545 702 2543.0 711.0Q2541 720 2541 731Q2541 749 2540.5 773.0Q2540 797 2540 822Q2540 832 2540.0 835.0Q2540 838 2541 840Q2541 845 2541.5 850.0Q2542 855 2542 859Q2542 866 2536.5 868.5Q2531 871 2515 871H2466Q2447 871 2426.0 870.5Q2405 870 2367 869Q2302 867 2286 844Q2283 835 2283 800Q2283 762 2283.5 739.0Q2284 716 2284 691V672Q2284 649 2284.0 636.5Q2284 624 2285 612Q2287 574 2285.0 540.5Q2283 507 2286 480Q2291 436 2281.5 421.5Q2272 407 2241 412Q2220 415 2219.5 436.0Q2219 457 2217 489L2215 627L2217 637L2213 693Q2213 699 2211.0 708.0Q2209 717 2209 727V842Q2209 864 2184 864Q2151 864 2133.5 864.0Q2116 864 2106.0 863.0Q2096 862 2085 861Q2063 858 2053.5 860.0Q2044 862 2034.5 861.5Q2025 861 2003 854Q1998 844 1998 803Q1998 765 1998.5 738.0Q1999 711 1999 687Q2001 683 2001 667Q2001 644 2001.0 632.0Q2001 620 2002 610Q2004 567 2002.0 532.0Q2000 497 2003 469Q2004 433 1994.5 421.0Q1985 409 1953 408Q1939 407 1932.5 416.5Q1926 426 1923.5 437.0Q1921 448 1920 454V468H1919V849Q1919 853 1917 854Q1916 855 1916 861Q1915 864 1911 864Q1908 864 1908 864Q1906 866 1905.0 865.5Q1904 865 1902 866Q1880 866 1863.0 867.0Q1846 868 1834 870H1773Q1728 870 1700.5 867.5Q1673 865 1650 858Q1643 858 1643 852Q1641 845 1640.0 841.5Q1639 838 1639 831Q1636 773 1633.0 729.5Q1630 686 1628 654Q1626 620 1624.5 565.0Q1623 510 1623 442V412L1624 368L1626 329L1628 311Q1628 298 1629 296Q1629 292 1634 292Q1641 292 1650 288Q1652 288 1654.0 287.5Q1656 287 1659 286Q1667 286 1670 288H1832Q1846 288 1850.5 288.0Q1855 288 1858 289L1889 290Q1916 291 1919 331Q1942 310 1986.5 296.5Q2031 283 2077 283Q2117 283 2151.0 302.0Q2185 321 2204 355Q2230 321 2271.0 306.5Q2312 292 2379 292Q2448 292 2491.0 325.5Q2534 359 2541 419Q2546 452 2547.5 483.0Q2549 514 2549 557Q2549 590 2548.0 624.5Q2547 659 2545 697ZM2768 889Q2674 893 2627.0 849.5Q2580 806 2576 712Q2575 672 2583.5 648.0Q2592 624 2620 592Q2650 556 2688.0 540.5Q2726 525 2790 524Q2815 523 2833.5 522.5Q2852 522 2862 523Q2891 524 2907 523Q2904 492 2887 479Q2877 471 2859.0 468.0Q2841 465 2807 464H2727Q2717 464 2716.5 464.5Q2716 465 2707 465H2699L2640 472Q2626 467 2626 433Q2626 427 2626.0 420.5Q2626 414 2626.0 397.5Q2626 381 2624 345Q2626 338 2625 327L2626 312Q2630 312 2632 310L2637 304Q2638 302 2640 302Q2644 302 2651.5 300.5Q2659 299 2669 297L2691 293Q2699 291 2703 291Q2731 285 2740.5 283.0Q2750 281 2765 280Q2822 277 2877.0 278.5Q2932 280 2975.5 285.0Q3019 290 3039 299Q3101 324 3130.0 371.5Q3159 419 3161 502L3165 648Q3166 676 3167.0 697.5Q3168 719 3168 727L3169 749Q3165 769 3163.5 783.5Q3162 798 3163 815Q3165 845 3160.5 856.5Q3156 868 3143 869L2981 874Q2973 872 2943 873Q2932 874 2924.0 871.5Q2916 869 2908 866Q2894 860 2894 836V824Q2894 822 2895 821V818Q2893 816 2892 816Q2872 847 2837.5 867.0Q2803 887 2768 889ZM2844 729Q2889 729 2902 681L2903 662Q2904 642 2891.0 624.5Q2878 607 2863 608Q2844 609 2830.5 625.0Q2817 641 2819 661L2823 699Q2831 729 2844 729ZM2896 820Q2896 820 2896 820ZM3384 876Q3334 876 3306.0 873.0Q3278 870 3257 863Q3251 863 3249 858Q3245 849 3245 838L3234 669Q3232 641 3231.0 617.0Q3230 593 3229.5 564.5Q3229 536 3229 497V468L3230 426L3232 376L3234 339Q3234 322 3234.0 317.5Q3234 313 3235 310Q3235 307 3239 307Q3248 307 3257 303Q3259 303 3261.0 303.0Q3263 303 3267 302Q3269 302 3272.5 302.0Q3276 302 3278 303H3419Q3434 303 3439.0 303.0Q3444 303 3448 304L3479 305Q3491 306 3496.5 307.0Q3502 308 3505 314L3513 342V408Q3537 368 3600 324Q3626 305 3651.0 301.0Q3676 297 3693 293Q3705 290 3713.0 296.5Q3721 303 3721 316Q3721 441 3715.0 490.5Q3709 540 3693 539Q3675 538 3654.5 533.5Q3634 529 3607 529Q3566 529 3538.5 550.5Q3511 572 3511 604V854Q3511 859 3509 860Q3508 861 3508 865Q3507 869 3503 869Q3504 869 3500 871L3495 873Q3456 873 3421 876Z" /></svg>