<svg viewBox="0 0 17704 1418" xmlns="http://www.w3.org/2000/svg"><path d="M0 1268Q4 1224 29.5 1181.0Q55 1138 86 1113Q173 1171 279.0 1210.0Q385 1249 487 1249Q613 1249 683.5 1195.0Q754 1141 754 1054Q754 979 703.5 923.5Q653 868 565 830L323 729Q197 676 123.0 593.0Q49 510 49 384Q49 277 105.5 190.0Q162 103 263.0 51.5Q364 0 497 0Q620 0 728.5 32.0Q837 64 915 102Q914 145 894.0 188.5Q874 232 842 260Q763 221 670.5 193.5Q578 166 502 166Q387 166 320.0 222.5Q253 279 253 362Q253 432 301.5 475.0Q350 518 425 550L663 649Q789 701 875.5 792.5Q962 884 962 1020Q962 1134 909.0 1224.0Q856 1314 748.0 1366.0Q640 1418 476 1418Q352 1418 225.5 1377.5Q99 1337 0 1268ZM1214 302Q1235 298 1263.5 296.0Q1292 294 1313 294Q1336 294 1362.0 296.0Q1388 298 1411 302V1392Q1388 1396 1362.0 1398.0Q1336 1400 1313 1400Q1292 1400 1263.5 1398.0Q1235 1396 1214 1392ZM2181 810Q2247 808 2312.0 807.0Q2377 806 2445 806Q2535 806 2567.0 835.5Q2599 865 2599 923V1348Q2518 1376 2400.0 1397.0Q2282 1418 2170 1418Q2031 1418 1936.0 1371.5Q1841 1325 1783.5 1246.0Q1726 1167 1700.5 1066.0Q1675 965 1675 855Q1675 697 1718.0 586.0Q1761 475 1834.5 407.0Q1908 339 2001.5 307.5Q2095 276 2194 276Q2302 276 2408.5 305.0Q2515 334 2591 384Q2584 428 2558.0 470.0Q2532 512 2503 534Q2437 490 2358.0 465.5Q2279 441 2194 441Q2105 441 2033.5 482.0Q1962 523 1920.5 614.0Q1879 705 1879 856Q1879 1262 2206 1262Q2266 1262 2318.0 1254.0Q2370 1246 2411 1235V1071Q2411 1049 2412.0 1023.5Q2413 998 2415 972Q2374 973 2334.5 973.0Q2295 973 2260 973Q2169 973 2169 886Q2169 870 2172.5 847.0Q2176 824 2181 810ZM3182 758Q3155 711 3122.0 646.5Q3089 582 3065 536L3057 538Q3060 596 3063.0 669.5Q3066 743 3067.5 809.5Q3069 876 3069 913V1392Q3044 1396 3020.5 1398.0Q2997 1400 2977 1400Q2957 1400 2932.0 1398.0Q2907 1396 2883 1392V305Q2907 300 2940.5 297.0Q2974 294 2997 294Q3022 294 3054.5 295.5Q3087 297 3110 302L3479 938Q3506 984 3540.5 1054.0Q3575 1124 3600 1170L3609 1168Q3605 1116 3600.5 1042.5Q3596 969 3593.0 899.0Q3590 829 3590 786V410Q3590 345 3614.0 319.5Q3638 294 3698 294H3768L3779 305V1390Q3754 1395 3721.5 1397.5Q3689 1400 3665 1400Q3641 1400 3606.5 1398.5Q3572 1397 3550 1392ZM4128 302Q4149 298 4177.5 296.0Q4206 294 4227 294Q4250 294 4276.0 296.0Q4302 298 4325 302V1392Q4302 1396 4276.0 1398.0Q4250 1400 4227 1400Q4206 1400 4177.5 1398.0Q4149 1396 4128 1392ZM5548 1339Q5528 1367 5492.0 1385.5Q5456 1404 5421 1404Q5368 1403 5342.0 1375.5Q5316 1348 5292 1296L5177 1047Q5142 971 5102.5 941.0Q5063 911 4988 911Q4970 910 4937.5 911.5Q4905 913 4871 915V1392Q4849 1396 4822.5 1398.0Q4796 1400 4773 1400Q4752 1400 4724.0 1398.0Q4696 1396 4674 1392V302Q4696 298 4724.0 296.0Q4752 294 4773 294Q4796 294 4822.5 296.0Q4849 298 4871 302V751L4959 748Q4990 747 5002.0 738.0Q5014 729 5032 703L5247 371Q5270 335 5293.5 315.0Q5317 295 5369 295Q5389 295 5422.5 297.0Q5456 299 5483 302L5496 318L5233 716Q5200 767 5161 799Q5240 814 5284.0 862.0Q5328 910 5362 983L5463 1205Q5484 1253 5504.5 1286.0Q5525 1319 5548 1339ZM6007 1144Q5996 1144 5957.5 1143.0Q5919 1142 5896 1142L5806 1393Q5771 1402 5722 1402Q5664 1402 5630 1388L5624 1378L6023 302Q6047 298 6081.0 295.5Q6115 293 6140 293Q6163 293 6194.5 295.5Q6226 298 6250 302L6647 1383Q6624 1394 6592.5 1400.0Q6561 1406 6534 1406Q6493 1406 6465.5 1389.0Q6438 1372 6418 1314L6357 1142Q6337 1142 6300.5 1143.0Q6264 1144 6252 1144ZM6041 735 5952 983Q5974 983 6004.5 982.0Q6035 981 6045 981H6219Q6229 981 6255.0 982.0Q6281 983 6301 983L6228 777Q6206 713 6178.5 624.0Q6151 535 6131 468H6122Q6104 532 6081.0 608.5Q6058 685 6041 735ZM7607 538Q7570 464 7538.0 395.0Q7506 326 7477 261L7471 262Q7476 364 7481.5 496.5Q7487 629 7487 739V1392Q7461 1396 7437.5 1398.0Q7414 1400 7394 1400Q7375 1400 7350.0 1398.0Q7325 1396 7301 1392V28Q7325 23 7360.5 20.5Q7396 18 7419 18Q7445 18 7478.0 20.0Q7511 22 7540 26L7976 879Q8015 957 8048.5 1030.5Q8082 1104 8112 1167L8118 1166Q8111 1048 8106.5 912.5Q8102 777 8102 673V143Q8102 77 8124.5 47.5Q8147 18 8209 18H8275L8287 29V1390Q8263 1395 8229.5 1397.5Q8196 1400 8166 1400Q8137 1400 8106.0 1398.0Q8075 1396 8046 1392ZM9402 1229Q9402 1322 9373.0 1357.5Q9344 1393 9276 1393H8757Q8705 1393 8674.0 1361.5Q8643 1330 8643 1275V313L8654 302H9370Q9374 323 9375.0 343.0Q9376 363 9376 380Q9376 396 9372.5 419.0Q9369 442 9361 465H8950Q8930 465 8899.0 464.5Q8868 464 8836 464Q8836 486 8837.0 511.0Q8838 536 8838 566V760Q8869 759 8899.5 759.0Q8930 759 8950 759H9271Q9278 778 9279.5 800.5Q9281 823 9281 838Q9281 855 9279.5 877.5Q9278 900 9271 919H8950Q8930 919 8899.5 918.5Q8869 918 8838 918V1147Q8838 1171 8837.0 1193.0Q8836 1215 8836 1233Q8862 1231 8889.5 1230.0Q8917 1229 8955 1229ZM10065 810Q10131 808 10196.0 807.0Q10261 806 10329 806Q10419 806 10451.0 835.5Q10483 865 10483 923V1348Q10402 1376 10284.0 1397.0Q10166 1418 10054 1418Q9915 1418 9820.0 1371.5Q9725 1325 9667.5 1246.0Q9610 1167 9584.5 1066.0Q9559 965 9559 855Q9559 697 9602.0 586.0Q9645 475 9718.5 407.0Q9792 339 9885.5 307.5Q9979 276 10078 276Q10186 276 10292.5 305.0Q10399 334 10475 384Q10468 428 10442.0 470.0Q10416 512 10387 534Q10321 490 10242.0 465.5Q10163 441 10078 441Q9989 441 9917.5 482.0Q9846 523 9804.5 614.0Q9763 705 9763 856Q9763 1262 10090 1262Q10150 1262 10202.0 1254.0Q10254 1246 10295 1235V1071Q10295 1049 10296.0 1023.5Q10297 998 10299 972Q10258 973 10218.5 973.0Q10179 973 10144 973Q10053 973 10053 886Q10053 870 10056.5 847.0Q10060 824 10065 810ZM11008 1144Q10997 1144 10958.5 1143.0Q10920 1142 10897 1142L10807 1393Q10772 1402 10723 1402Q10665 1402 10631 1388L10625 1378L11024 302Q11048 298 11082.0 295.5Q11116 293 11141 293Q11164 293 11195.5 295.5Q11227 298 11251 302L11648 1383Q11625 1394 11593.5 1400.0Q11562 1406 11535 1406Q11494 1406 11466.5 1389.0Q11439 1372 11419 1314L11358 1142Q11338 1142 11301.5 1143.0Q11265 1144 11253 1144ZM11042 735 10953 983Q10975 983 11005.5 982.0Q11036 981 11046 981H11220Q11230 981 11256.0 982.0Q11282 983 11302 983L11229 777Q11207 713 11179.5 624.0Q11152 535 11132 468H11123Q11105 532 11082.0 608.5Q11059 685 11042 735ZM11919 582Q11919 550 11920.0 523.5Q11921 497 11921 463Q11902 463 11868.5 464.0Q11835 465 11816 465H11603Q11599 444 11597.0 423.0Q11595 402 11595 385Q11595 367 11597.0 345.0Q11599 323 11603 302H12426Q12431 319 12434.0 340.5Q12437 362 12437 377Q12437 420 12414.5 442.5Q12392 465 12331 465H12217Q12199 465 12165.5 464.0Q12132 463 12114 463Q12114 497 12115.0 523.5Q12116 550 12116 582V1392Q12097 1396 12069.0 1398.0Q12041 1400 12018 1400Q11996 1400 11968.0 1398.0Q11940 1396 11919 1392ZM12625 302Q12646 298 12674.5 296.0Q12703 294 12724 294Q12747 294 12773.0 296.0Q12799 298 12822 302V1392Q12799 1396 12773.0 1398.0Q12747 1400 12724 1400Q12703 1400 12674.5 1398.0Q12646 1396 12625 1392ZM13814 302Q13835 297 13854.5 295.0Q13874 293 13891 293Q13912 293 13937.5 295.5Q13963 298 13987 307L13995 318L13640 1393Q13607 1398 13567.0 1399.5Q13527 1401 13490 1401Q13441 1401 13406.5 1385.0Q13372 1369 13354 1310L13030 315Q13058 303 13087.5 296.5Q13117 290 13147 290Q13188 290 13214.0 309.5Q13240 329 13257 383L13430 914Q13450 977 13472.5 1058.0Q13495 1139 13513 1213Q13518 1228 13529 1228ZM14947 1229Q14947 1322 14918.0 1357.5Q14889 1393 14821 1393H14302Q14250 1393 14219.0 1361.5Q14188 1330 14188 1275V313L14199 302H14915Q14919 323 14920.0 343.0Q14921 363 14921 380Q14921 396 14917.5 419.0Q14914 442 14906 465H14495Q14475 465 14444.0 464.5Q14413 464 14381 464Q14381 486 14382.0 511.0Q14383 536 14383 566V760Q14414 759 14444.5 759.0Q14475 759 14495 759H14816Q14823 778 14824.5 800.5Q14826 823 14826 838Q14826 855 14824.5 877.5Q14823 900 14816 919H14495Q14475 919 14444.5 918.5Q14414 918 14383 918V1147Q14383 1171 14382.0 1193.0Q14381 1215 14381 1233Q14407 1231 14434.5 1230.0Q14462 1229 14500 1229ZM15539 1268Q15543 1224 15568.5 1181.0Q15594 1138 15625 1113Q15712 1171 15818.0 1210.0Q15924 1249 16026 1249Q16152 1249 16222.5 1195.0Q16293 1141 16293 1054Q16293 979 16242.5 923.5Q16192 868 16104 830L15862 729Q15736 676 15662.0 593.0Q15588 510 15588 384Q15588 277 15644.5 190.0Q15701 103 15802.0 51.5Q15903 0 16036 0Q16159 0 16267.5 32.0Q16376 64 16454 102Q16453 145 16433.0 188.5Q16413 232 16381 260Q16302 221 16209.5 193.5Q16117 166 16041 166Q15926 166 15859.0 222.5Q15792 279 15792 362Q15792 432 15840.5 475.0Q15889 518 15964 550L16202 649Q16328 701 16414.5 792.5Q16501 884 16501 1020Q16501 1134 16448.0 1224.0Q16395 1314 16287.0 1366.0Q16179 1418 16015 1418Q15891 1418 15764.5 1377.5Q15638 1337 15539 1268ZM17508 489Q17508 414 17482.5 339.0Q17457 264 17394.5 214.0Q17332 164 17222 164Q17060 164 16976.0 304.5Q16892 445 16892 716Q16892 968 16982.0 1105.5Q17072 1243 17231 1243Q17323 1243 17412.0 1204.0Q17501 1165 17590 1090Q17623 1111 17652.0 1147.5Q17681 1184 17691 1219Q17609 1302 17479.5 1360.0Q17350 1418 17198 1418Q17056 1418 16957.5 1359.0Q16859 1300 16798.0 1200.0Q16737 1100 16709.5 974.5Q16682 849 16682 715Q16682 467 16757.0 309.0Q16832 151 16955.5 75.5Q17079 0 17225 0Q17373 0 17480.0 55.5Q17587 111 17645.5 199.5Q17704 288 17704 387Q17704 437 17678.5 469.5Q17653 502 17591 502Q17568 502 17549.5 499.0Q17531 496 17508 489Z" /></svg>