<svg viewBox="0 0 17850 2464" xmlns="http://www.w3.org/2000/svg"><path d="M64 1756Q68 1712 93.5 1669.0Q119 1626 150 1601Q237 1659 343.0 1698.0Q449 1737 551 1737Q677 1737 747.5 1683.0Q818 1629 818 1542Q818 1467 767.5 1411.5Q717 1356 629 1318L387 1217Q261 1164 187.0 1081.0Q113 998 113 872Q113 765 169.5 678.0Q226 591 327.0 539.5Q428 488 561 488Q684 488 792.5 520.0Q901 552 979 590Q978 633 958.0 676.5Q938 720 906 748Q827 709 734.5 681.5Q642 654 566 654Q451 654 384.0 710.5Q317 767 317 850Q317 920 365.5 963.0Q414 1006 489 1038L727 1137Q853 1189 939.5 1280.5Q1026 1372 1026 1508Q1026 1622 973.0 1712.0Q920 1802 812.0 1854.0Q704 1906 540 1906Q416 1906 289.5 1865.5Q163 1825 64 1756ZM1278 790Q1299 786 1327.5 784.0Q1356 782 1377 782Q1400 782 1426.0 784.0Q1452 786 1475 790V1880Q1452 1884 1426.0 1886.0Q1400 1888 1377 1888Q1356 1888 1327.5 1886.0Q1299 1884 1278 1880ZM2245 1298Q2311 1296 2376.0 1295.0Q2441 1294 2509 1294Q2599 1294 2631.0 1323.5Q2663 1353 2663 1411V1836Q2582 1864 2464.0 1885.0Q2346 1906 2234 1906Q2095 1906 2000.0 1859.5Q1905 1813 1847.5 1734.0Q1790 1655 1764.5 1554.0Q1739 1453 1739 1343Q1739 1185 1782.0 1074.0Q1825 963 1898.5 895.0Q1972 827 2065.5 795.5Q2159 764 2258 764Q2366 764 2472.5 793.0Q2579 822 2655 872Q2648 916 2622.0 958.0Q2596 1000 2567 1022Q2501 978 2422.0 953.5Q2343 929 2258 929Q2169 929 2097.5 970.0Q2026 1011 1984.5 1102.0Q1943 1193 1943 1344Q1943 1750 2270 1750Q2330 1750 2382.0 1742.0Q2434 1734 2475 1723V1559Q2475 1537 2476.0 1511.5Q2477 1486 2479 1460Q2438 1461 2398.5 1461.0Q2359 1461 2324 1461Q2233 1461 2233 1374Q2233 1358 2236.5 1335.0Q2240 1312 2245 1298ZM3246 1246Q3219 1199 3186.0 1134.5Q3153 1070 3129 1024L3121 1026Q3124 1084 3127.0 1157.5Q3130 1231 3131.5 1297.5Q3133 1364 3133 1401V1880Q3108 1884 3084.5 1886.0Q3061 1888 3041 1888Q3021 1888 2996.0 1886.0Q2971 1884 2947 1880V793Q2971 788 3004.5 785.0Q3038 782 3061 782Q3086 782 3118.5 783.5Q3151 785 3174 790L3543 1426Q3570 1472 3604.5 1542.0Q3639 1612 3664 1658L3673 1656Q3669 1604 3664.5 1530.5Q3660 1457 3657.0 1387.0Q3654 1317 3654 1274V898Q3654 833 3678.0 807.5Q3702 782 3762 782H3832L3843 793V1878Q3818 1883 3785.5 1885.5Q3753 1888 3729 1888Q3705 1888 3670.5 1886.5Q3636 1885 3614 1880ZM4192 790Q4213 786 4241.5 784.0Q4270 782 4291 782Q4314 782 4340.0 784.0Q4366 786 4389 790V1880Q4366 1884 4340.0 1886.0Q4314 1888 4291 1888Q4270 1888 4241.5 1886.0Q4213 1884 4192 1880ZM5612 1827Q5592 1855 5556.0 1873.5Q5520 1892 5485 1892Q5432 1891 5406.0 1863.5Q5380 1836 5356 1784L5241 1535Q5206 1459 5166.5 1429.0Q5127 1399 5052 1399Q5034 1398 5001.5 1399.5Q4969 1401 4935 1403V1880Q4913 1884 4886.5 1886.0Q4860 1888 4837 1888Q4816 1888 4788.0 1886.0Q4760 1884 4738 1880V790Q4760 786 4788.0 784.0Q4816 782 4837 782Q4860 782 4886.5 784.0Q4913 786 4935 790V1239L5023 1236Q5054 1235 5066.0 1226.0Q5078 1217 5096 1191L5311 859Q5334 823 5357.5 803.0Q5381 783 5433 783Q5453 783 5486.5 785.0Q5520 787 5547 790L5560 806L5297 1204Q5264 1255 5225 1287Q5304 1302 5348.0 1350.0Q5392 1398 5426 1471L5527 1693Q5548 1741 5568.5 1774.0Q5589 1807 5612 1827ZM6071 1632Q6060 1632 6021.5 1631.0Q5983 1630 5960 1630L5870 1881Q5835 1890 5786 1890Q5728 1890 5694 1876L5688 1866L6087 790Q6111 786 6145.0 783.5Q6179 781 6204 781Q6227 781 6258.5 783.5Q6290 786 6314 790L6711 1871Q6688 1882 6656.5 1888.0Q6625 1894 6598 1894Q6557 1894 6529.5 1877.0Q6502 1860 6482 1802L6421 1630Q6401 1630 6364.5 1631.0Q6328 1632 6316 1632ZM6105 1223 6016 1471Q6038 1471 6068.5 1470.0Q6099 1469 6109 1469H6283Q6293 1469 6319.0 1470.0Q6345 1471 6365 1471L6292 1265Q6270 1201 6242.5 1112.0Q6215 1023 6195 956H6186Q6168 1020 6145.0 1096.5Q6122 1173 6105 1223ZM7671 1026Q7634 952 7602.0 883.0Q7570 814 7541 749L7535 750Q7540 852 7545.5 984.5Q7551 1117 7551 1227V1880Q7525 1884 7501.5 1886.0Q7478 1888 7458 1888Q7439 1888 7414.0 1886.0Q7389 1884 7365 1880V516Q7389 511 7424.5 508.5Q7460 506 7483 506Q7509 506 7542.0 508.0Q7575 510 7604 514L8040 1367Q8079 1445 8112.5 1518.5Q8146 1592 8176 1655L8182 1654Q8175 1536 8170.5 1400.5Q8166 1265 8166 1161V631Q8166 565 8188.5 535.5Q8211 506 8273 506H8339L8351 517V1878Q8327 1883 8293.5 1885.5Q8260 1888 8230 1888Q8201 1888 8170.0 1886.0Q8139 1884 8110 1880ZM9466 1717Q9466 1810 9437.0 1845.5Q9408 1881 9340 1881H8821Q8769 1881 8738.0 1849.5Q8707 1818 8707 1763V801L8718 790H9434Q9438 811 9439.0 831.0Q9440 851 9440 868Q9440 884 9436.5 907.0Q9433 930 9425 953H9014Q8994 953 8963.0 952.5Q8932 952 8900 952Q8900 974 8901.0 999.0Q8902 1024 8902 1054V1248Q8933 1247 8963.5 1247.0Q8994 1247 9014 1247H9335Q9342 1266 9343.5 1288.5Q9345 1311 9345 1326Q9345 1343 9343.5 1365.5Q9342 1388 9335 1407H9014Q8994 1407 8963.5 1406.5Q8933 1406 8902 1406V1635Q8902 1659 8901.0 1681.0Q8900 1703 8900 1721Q8926 1719 8953.5 1718.0Q8981 1717 9019 1717ZM10129 1298Q10195 1296 10260.0 1295.0Q10325 1294 10393 1294Q10483 1294 10515.0 1323.5Q10547 1353 10547 1411V1836Q10466 1864 10348.0 1885.0Q10230 1906 10118 1906Q9979 1906 9884.0 1859.5Q9789 1813 9731.5 1734.0Q9674 1655 9648.5 1554.0Q9623 1453 9623 1343Q9623 1185 9666.0 1074.0Q9709 963 9782.5 895.0Q9856 827 9949.5 795.5Q10043 764 10142 764Q10250 764 10356.5 793.0Q10463 822 10539 872Q10532 916 10506.0 958.0Q10480 1000 10451 1022Q10385 978 10306.0 953.5Q10227 929 10142 929Q10053 929 9981.5 970.0Q9910 1011 9868.5 1102.0Q9827 1193 9827 1344Q9827 1750 10154 1750Q10214 1750 10266.0 1742.0Q10318 1734 10359 1723V1559Q10359 1537 10360.0 1511.5Q10361 1486 10363 1460Q10322 1461 10282.5 1461.0Q10243 1461 10208 1461Q10117 1461 10117 1374Q10117 1358 10120.5 1335.0Q10124 1312 10129 1298ZM11072 1632Q11061 1632 11022.5 1631.0Q10984 1630 10961 1630L10871 1881Q10836 1890 10787 1890Q10729 1890 10695 1876L10689 1866L11088 790Q11112 786 11146.0 783.5Q11180 781 11205 781Q11228 781 11259.5 783.5Q11291 786 11315 790L11712 1871Q11689 1882 11657.5 1888.0Q11626 1894 11599 1894Q11558 1894 11530.5 1877.0Q11503 1860 11483 1802L11422 1630Q11402 1630 11365.5 1631.0Q11329 1632 11317 1632ZM11106 1223 11017 1471Q11039 1471 11069.5 1470.0Q11100 1469 11110 1469H11284Q11294 1469 11320.0 1470.0Q11346 1471 11366 1471L11293 1265Q11271 1201 11243.5 1112.0Q11216 1023 11196 956H11187Q11169 1020 11146.0 1096.5Q11123 1173 11106 1223ZM11983 1070Q11983 1038 11984.0 1011.5Q11985 985 11985 951Q11966 951 11932.5 952.0Q11899 953 11880 953H11667Q11663 932 11661.0 911.0Q11659 890 11659 873Q11659 855 11661.0 833.0Q11663 811 11667 790H12490Q12495 807 12498.0 828.5Q12501 850 12501 865Q12501 908 12478.5 930.5Q12456 953 12395 953H12281Q12263 953 12229.5 952.0Q12196 951 12178 951Q12178 985 12179.0 1011.5Q12180 1038 12180 1070V1880Q12161 1884 12133.0 1886.0Q12105 1888 12082 1888Q12060 1888 12032.0 1886.0Q12004 1884 11983 1880ZM12689 790Q12710 786 12738.5 784.0Q12767 782 12788 782Q12811 782 12837.0 784.0Q12863 786 12886 790V1880Q12863 1884 12837.0 1886.0Q12811 1888 12788 1888Q12767 1888 12738.5 1886.0Q12710 1884 12689 1880ZM13878 790Q13899 785 13918.5 783.0Q13938 781 13955 781Q13976 781 14001.5 783.5Q14027 786 14051 795L14059 806L13704 1881Q13671 1886 13631.0 1887.5Q13591 1889 13554 1889Q13505 1889 13470.5 1873.0Q13436 1857 13418 1798L13094 803Q13122 791 13151.5 784.5Q13181 778 13211 778Q13252 778 13278.0 797.5Q13304 817 13321 871L13494 1402Q13514 1465 13536.5 1546.0Q13559 1627 13577 1701Q13582 1716 13593 1716ZM15011 1717Q15011 1810 14982.0 1845.5Q14953 1881 14885 1881H14366Q14314 1881 14283.0 1849.5Q14252 1818 14252 1763V801L14263 790H14979Q14983 811 14984.0 831.0Q14985 851 14985 868Q14985 884 14981.5 907.0Q14978 930 14970 953H14559Q14539 953 14508.0 952.5Q14477 952 14445 952Q14445 974 14446.0 999.0Q14447 1024 14447 1054V1248Q14478 1247 14508.5 1247.0Q14539 1247 14559 1247H14880Q14887 1266 14888.5 1288.5Q14890 1311 14890 1326Q14890 1343 14888.5 1365.5Q14887 1388 14880 1407H14559Q14539 1407 14508.5 1406.5Q14478 1406 14447 1406V1635Q14447 1659 14446.0 1681.0Q14445 1703 14445 1721Q14471 1719 14498.5 1718.0Q14526 1717 14564 1717ZM15603 1756Q15607 1712 15632.5 1669.0Q15658 1626 15689 1601Q15776 1659 15882.0 1698.0Q15988 1737 16090 1737Q16216 1737 16286.5 1683.0Q16357 1629 16357 1542Q16357 1467 16306.5 1411.5Q16256 1356 16168 1318L15926 1217Q15800 1164 15726.0 1081.0Q15652 998 15652 872Q15652 765 15708.5 678.0Q15765 591 15866.0 539.5Q15967 488 16100 488Q16223 488 16331.5 520.0Q16440 552 16518 590Q16517 633 16497.0 676.5Q16477 720 16445 748Q16366 709 16273.5 681.5Q16181 654 16105 654Q15990 654 15923.0 710.5Q15856 767 15856 850Q15856 920 15904.5 963.0Q15953 1006 16028 1038L16266 1137Q16392 1189 16478.5 1280.5Q16565 1372 16565 1508Q16565 1622 16512.0 1712.0Q16459 1802 16351.0 1854.0Q16243 1906 16079 1906Q15955 1906 15828.5 1865.5Q15702 1825 15603 1756ZM17572 977Q17572 902 17546.5 827.0Q17521 752 17458.5 702.0Q17396 652 17286 652Q17124 652 17040.0 792.5Q16956 933 16956 1204Q16956 1456 17046.0 1593.5Q17136 1731 17295 1731Q17387 1731 17476.0 1692.0Q17565 1653 17654 1578Q17687 1599 17716.0 1635.5Q17745 1672 17755 1707Q17673 1790 17543.5 1848.0Q17414 1906 17262 1906Q17120 1906 17021.5 1847.0Q16923 1788 16862.0 1688.0Q16801 1588 16773.5 1462.5Q16746 1337 16746 1203Q16746 955 16821.0 797.0Q16896 639 17019.5 563.5Q17143 488 17289 488Q17437 488 17544.0 543.5Q17651 599 17709.5 687.5Q17768 776 17768 875Q17768 925 17742.5 957.5Q17717 990 17655 990Q17632 990 17613.5 987.0Q17595 984 17572 977Z" fill="currentColor" /></svg>