<svg viewBox="0 0 3623 1024" xmlns="http://www.w3.org/2000/svg"><path d="M0 603 72 590Q91 722 235 722Q398 722 398 593Q398 537 368.0 510.0Q338 483 268 464L202 445Q99 417 57.0 373.5Q15 330 15.0 240.5Q15 151 75.0 93.0Q135 35 249.5 35.0Q364 35 416.0 84.0Q468 133 482 225L410 238Q391 106 258 106Q103 106 103 235Q103 291 130.5 318.5Q158 346 224 364L293 383Q399 413 442.5 456.0Q486 499 486.0 588.5Q486 678 423.5 735.5Q361 793 242.5 793.0Q124 793 69.0 744.0Q14 695 0 603ZM648 207H734V779H648ZM691 111Q640 111 640.0 55.5Q640 0 691 0Q744 0 744.0 55.5Q744 111 691 111ZM1021 267Q1122 193 1220.0 193.0Q1318 193 1358.0 237.5Q1398 282 1398 373V779H1312V375Q1312 315 1289.0 289.0Q1266 263 1212 263Q1119 263 1032 330V779H946V207H997ZM1515 266V207H1613V103L1699 69V207H1820V266H1699V645Q1699 690 1711.5 708.5Q1724 727 1748.0 727.0Q1772 727 1807 719L1817 777Q1763 793 1725.5 793.0Q1688 793 1664.0 781.0Q1640 769 1630 745Q1613 709 1613 648V266ZM2057.5 704.5Q2091 723 2141.0 723.0Q2191 723 2224.5 704.5Q2258 686 2274.0 651.5Q2290 617 2296.5 579.5Q2303 542 2303.0 493.0Q2303 444 2296.5 406.5Q2290 369 2274.0 334.5Q2258 300 2224.5 281.5Q2191 263 2141.0 263.0Q2091 263 2057.5 281.5Q2024 300 2007.5 334.5Q1991 369 1985.0 406.0Q1979 443 1979.0 493.0Q1979 543 1985.0 580.0Q1991 617 2007.5 651.5Q2024 686 2057.5 704.5ZM2389.0 493.0Q2389 793 2141.0 793.0Q1893 793 1893.0 493.0Q1893 193 2141.0 193.0Q2389 193 2389.0 493.0ZM2624 267Q2725 193 2823.0 193.0Q2921 193 2961.0 237.5Q3001 282 3001 373V779H2915V375Q2915 315 2892.0 289.0Q2869 263 2815 263Q2722 263 2635 330V779H2549V207H2600ZM3319 1024 3241 1010 3329 783 3113 207H3202L3371 670L3535 207H3623Z" fill="currentColor" /></svg>