<svg viewBox="0 0 9458 1607" xmlns="http://www.w3.org/2000/svg"><path d="M465 783Q544 798 606.5 820.0Q669 842 712.0 866.5Q755 891 786.0 923.0Q817 955 834.5 985.0Q852 1015 862.0 1054.0Q872 1093 875.0 1125.5Q878 1158 878 1201Q878 1281 848.0 1354.0Q818 1427 773.5 1474.5Q729 1522 681.0 1550.0Q633 1578 594 1578Q573 1578 573 1558Q573 1545 589 1529Q640 1480 664.0 1410.0Q688 1340 688 1283Q688 1249 687.0 1230.0Q686 1211 680.5 1178.0Q675 1145 664.5 1124.5Q654 1104 633.0 1077.5Q612 1051 582.0 1033.5Q552 1016 505.5 1000.5Q459 985 399 976Q323 965 262.5 946.5Q202 928 162.5 907.0Q123 886 94.5 858.0Q66 830 51.0 805.5Q36 781 28.0 750.0Q20 719 18.0 698.5Q16 678 16 652Q16 622 25 595Q39 552 89.0 513.0Q139 474 176 474Q194 474 203.5 481.5Q213 489 213 513Q213 589 222.5 633.0Q232 677 263.0 707.0Q294 737 338.0 752.0Q382 767 465 783ZM302 1607Q226 1607 168.5 1587.5Q111 1568 43 1506Q10 1476 10 1443Q10 1416 32 1394Q98 1328 151 1328Q185 1328 227 1363Q285 1413 323.5 1428.0Q362 1443 414 1443Q458 1443 495.5 1426.0Q533 1409 540 1409Q565 1409 565 1441Q565 1457 552.0 1482.0Q539 1507 511.5 1536.5Q484 1566 428.5 1586.5Q373 1607 302 1607ZM800 261Q800 300 748.5 339.0Q697 378 659 378Q635 378 594.0 360.0Q553 342 501.5 324.0Q450 306 401 306Q317 306 244.5 337.5Q172 369 90 437Q36 482 22 482Q0 482 0 458Q0 442 19.0 409.0Q38 376 55 355Q231 142 522 142Q577 142 640.0 155.5Q703 169 751.5 197.5Q800 226 800 261ZM1253 564V1457Q1253 1495 1235 1519Q1209 1549 1173.5 1567.5Q1138 1586 1108 1586Q1073 1586 1073 1543V650Q1073 612 1091 589Q1117 559 1152.5 540.0Q1188 521 1218 521Q1253 521 1253 564ZM1253 43V188Q1253 226 1235 250Q1209 280 1173.5 298.5Q1138 317 1108 317Q1073 317 1073 274V129Q1073 90 1091 68Q1117 38 1152.5 19.0Q1188 0 1218 0Q1253 0 1253 43ZM1501 1543V1039Q1501 983 1528 953Q1555 922 1592.0 896.5Q1629 871 1650 871Q1681 871 1681 914V1460Q1681 1515 1632.0 1550.5Q1583 1586 1536 1586Q1501 1586 1501 1543ZM1931 521Q1988 521 2050.5 546.0Q2113 571 2113 611Q2113 643 2071.0 677.5Q2029 712 1997 712Q1970 712 1921 687Q1875 665 1837 665Q1813 665 1791.0 672.5Q1769 680 1740.0 701.5Q1711 723 1692.5 738.5Q1674 754 1629.5 795.5Q1585 837 1560 859Q1538 878 1523 878Q1501 878 1501 841V647Q1501 593 1550.5 557.0Q1600 521 1646 521Q1681 521 1681 564V620Q1681 652 1695 652Q1706 652 1730 628Q1837 521 1931 521ZM2416 564V1457Q2416 1495 2398 1519Q2372 1549 2336.5 1567.5Q2301 1586 2271 1586Q2236 1586 2236 1543V650Q2236 612 2254 589Q2280 559 2315.5 540.0Q2351 521 2381 521Q2416 521 2416 564ZM2416 43V188Q2416 226 2398 250Q2372 280 2336.5 298.5Q2301 317 2271 317Q2236 317 2236 274V129Q2236 90 2254 68Q2280 38 2315.5 19.0Q2351 0 2381 0Q2416 0 2416 43ZM2664 1543V1005Q2664 949 2691 919Q2718 888 2755.0 863.5Q2792 839 2813 839Q2844 839 2844 882V1457Q2844 1512 2794.5 1549.0Q2745 1586 2699 1586Q2664 1586 2664 1543ZM2899 606Q2956 564 3018.0 542.5Q3080 521 3129 521Q3303 521 3384.0 618.5Q3465 716 3465 945V1457Q3465 1511 3416.0 1548.5Q3367 1586 3320 1586Q3285 1586 3285 1543V1148Q3285 1054 3283.5 1006.0Q3282 958 3275.5 891.0Q3269 824 3254.0 791.5Q3239 759 3213.5 725.0Q3188 691 3147.0 678.0Q3106 665 3049 665Q2934 665 2734 818Q2702 843 2684 843Q2664 843 2664 809V650Q2664 596 2713.5 558.5Q2763 521 2809 521Q2844 521 2844 564V589Q2844 625 2860 625Q2874 625 2899 606ZM4540 783Q4619 798 4681.5 820.0Q4744 842 4787.0 866.5Q4830 891 4861.0 923.0Q4892 955 4909.5 985.0Q4927 1015 4937.0 1054.0Q4947 1093 4950.0 1125.5Q4953 1158 4953 1201Q4953 1281 4923.0 1354.0Q4893 1427 4848.5 1474.5Q4804 1522 4756.0 1550.0Q4708 1578 4669 1578Q4648 1578 4648 1558Q4648 1545 4664 1529Q4715 1480 4739.0 1410.0Q4763 1340 4763 1283Q4763 1249 4762.0 1230.0Q4761 1211 4755.5 1178.0Q4750 1145 4739.5 1124.5Q4729 1104 4708.0 1077.5Q4687 1051 4657.0 1033.5Q4627 1016 4580.5 1000.5Q4534 985 4474 976Q4398 965 4337.5 946.5Q4277 928 4237.5 907.0Q4198 886 4169.5 858.0Q4141 830 4126.0 805.5Q4111 781 4103.0 750.0Q4095 719 4093.0 698.5Q4091 678 4091 652Q4091 622 4100 595Q4114 552 4164.0 513.0Q4214 474 4251 474Q4269 474 4278.5 481.5Q4288 489 4288 513Q4288 589 4297.5 633.0Q4307 677 4338.0 707.0Q4369 737 4413.0 752.0Q4457 767 4540 783ZM4377 1607Q4301 1607 4243.5 1587.5Q4186 1568 4118 1506Q4085 1476 4085 1443Q4085 1416 4107 1394Q4173 1328 4226 1328Q4260 1328 4302 1363Q4360 1413 4398.5 1428.0Q4437 1443 4489 1443Q4533 1443 4570.5 1426.0Q4608 1409 4615 1409Q4640 1409 4640 1441Q4640 1457 4627.0 1482.0Q4614 1507 4586.5 1536.5Q4559 1566 4503.5 1586.5Q4448 1607 4377 1607ZM4875 261Q4875 300 4823.5 339.0Q4772 378 4734 378Q4710 378 4669.0 360.0Q4628 342 4576.5 324.0Q4525 306 4476 306Q4392 306 4319.5 337.5Q4247 369 4165 437Q4111 482 4097 482Q4075 482 4075 458Q4075 442 4094.0 409.0Q4113 376 4130 355Q4306 142 4597 142Q4652 142 4715.0 155.5Q4778 169 4826.5 197.5Q4875 226 4875 261ZM5422 802V1152Q5422 1238 5432.0 1297.5Q5442 1357 5461.5 1394.0Q5481 1431 5510.5 1447.0Q5540 1463 5580 1463Q5627 1463 5658.5 1451.5Q5690 1440 5711.0 1426.5Q5732 1413 5746.0 1401.5Q5760 1390 5774 1390Q5787 1390 5793.0 1397.5Q5799 1405 5799 1417Q5799 1434 5785.5 1465.5Q5772 1497 5740.0 1528.5Q5708 1560 5655.5 1583.5Q5603 1607 5524 1607Q5447 1607 5393.5 1585.0Q5340 1563 5306.0 1513.5Q5272 1464 5257.0 1384.5Q5242 1305 5242 1189V802Q5242 780 5251.5 768.5Q5261 757 5275.5 752.0Q5290 747 5305.5 747.0Q5321 747 5333 747Q5351 747 5367.5 748.5Q5384 750 5396.0 755.5Q5408 761 5415.0 772.0Q5422 783 5422 802ZM5190 585V642Q5190 667 5179.0 681.0Q5168 695 5137 695H5090Q5055 695 5055 673Q5055 646 5098.5 599.0Q5142 552 5168 552Q5190 552 5190 585ZM5422 370V499Q5422 530 5436.0 541.0Q5450 552 5475 552H5743Q5778 552 5778 575Q5778 599 5744.5 635.0Q5711 671 5678 683Q5646 695 5563 695H5295Q5270 695 5256.0 684.0Q5242 673 5242 642V453Q5242 398 5291.0 362.5Q5340 327 5387 327Q5422 327 5422 370ZM6116 939Q6116 967 6133.5 974.5Q6151 982 6185 982Q6272 982 6334.0 967.0Q6396 952 6429.0 925.0Q6462 898 6476.5 868.0Q6491 838 6491 802Q6491 740 6448.0 702.5Q6405 665 6310 665Q6161 665 6030 759Q5991 788 5981 788Q5964 788 5964 769Q5964 744 5993 708Q6047 639 6116.0 595.0Q6185 551 6242.0 536.0Q6299 521 6355 521Q6427 521 6485.0 536.0Q6543 551 6588.0 582.5Q6633 614 6658.0 668.5Q6683 723 6683 796Q6683 952 6534.5 1036.5Q6386 1121 6129 1121Q6057 1121 5966 1113Q5921 1110 5921 1069Q5921 958 5953.0 902.5Q5985 847 6036 817Q6086 788 6112 788Q6136 788 6136 818Q6136 830 6126.0 876.5Q6116 923 6116 939ZM5929 1218Q5929 1166 5977 1166H6063Q6089 1166 6099.5 1176.0Q6110 1186 6116 1220Q6155 1463 6382 1463Q6439 1463 6489.0 1449.0Q6539 1435 6566.5 1418.0Q6594 1401 6617.5 1387.0Q6641 1373 6652 1373Q6675 1373 6675 1398Q6675 1419 6652.0 1452.0Q6629 1485 6586.5 1520.5Q6544 1556 6469.5 1581.5Q6395 1607 6308 1607Q6128 1607 6028.5 1498.5Q5929 1390 5929 1218ZM6886 1543V1005Q6886 949 6913 919Q6940 888 6977.0 863.5Q7014 839 7035 839Q7066 839 7066 882V1457Q7066 1512 7016.5 1549.0Q6967 1586 6921 1586Q6886 1586 6886 1543ZM7121 606Q7178 564 7240.0 542.5Q7302 521 7351 521Q7525 521 7606.0 618.5Q7687 716 7687 945V1457Q7687 1511 7638.0 1548.5Q7589 1586 7542 1586Q7507 1586 7507 1543V1148Q7507 1054 7505.5 1006.0Q7504 958 7497.5 891.0Q7491 824 7476.0 791.5Q7461 759 7435.5 725.0Q7410 691 7369.0 678.0Q7328 665 7271 665Q7156 665 6956 818Q6924 843 6906 843Q6886 843 6886 809V650Q6886 596 6935.5 558.5Q6985 521 7031 521Q7066 521 7066 564V589Q7066 625 7082 625Q7096 625 7121 606ZM8080 1068Q8080 1461 8360 1461Q8418 1461 8469.0 1447.5Q8520 1434 8547.5 1417.0Q8575 1400 8599.0 1386.5Q8623 1373 8633 1373Q8657 1373 8657 1396Q8657 1418 8631.0 1452.5Q8605 1487 8561.0 1522.0Q8517 1557 8447.5 1582.0Q8378 1607 8303 1607Q8093 1607 7992.0 1480.5Q7891 1354 7891 1117Q7891 950 7936 882Q7959 847 8006.0 816.5Q8053 786 8086 786Q8110 786 8110 814Q8110 815 8095.0 901.0Q8080 987 8080 1068ZM8596 579Q8626 602 8626 626Q8626 651 8586.0 686.5Q8546 722 8512 722Q8483 722 8444 704Q8360 665 8291 665Q8139 665 7998 763Q7955 792 7946 792Q7932 792 7932 775Q7932 763 7943.0 742.0Q7954 721 7963 710Q8039 613 8131.0 567.0Q8223 521 8364 521Q8427 521 8493.0 536.0Q8559 551 8596 579ZM9032 564V1457Q9032 1495 9014 1519Q8988 1549 8952.5 1567.5Q8917 1586 8887 1586Q8852 1586 8852 1543V650Q8852 612 8870 589Q8896 559 8931.5 540.0Q8967 521 8997 521Q9032 521 9032 564ZM9032 43V188Q9032 226 9014 250Q8988 280 8952.5 298.5Q8917 317 8887 317Q8852 317 8852 274V129Q8852 90 8870 68Q8896 38 8931.5 19.0Q8967 0 8997 0Q9032 0 9032 43ZM9278 1543V165Q9278 111 9327.0 75.5Q9376 40 9423 40Q9458 40 9458 83V1461Q9458 1516 9409.0 1551.0Q9360 1586 9313 1586Q9278 1586 9278 1543Z" /></svg>