<svg viewBox="0 0 21298.0 996" xmlns="http://www.w3.org/2000/svg"><path d="M188.0 868H630.0Q658.0 868 674.0 853.0Q690.0 838 690.0 818.0Q690.0 798 674.0 783.0Q658.0 768 630.0 768H188.0Q160.0 768 144.0 783.0Q128.0 798 128.0 818.0Q128.0 838 144.0 853.0Q160.0 868 188.0 868ZM60.0 740H246.0Q274.0 740 290.0 725.0Q306.0 710 306.0 690.0Q306.0 670 290.0 655.0Q274.0 640 246.0 640H60.0Q32.0 640 16.0 655.0Q0.0 670 0.0 690.0Q0.0 710 16.0 725.0Q32.0 740 60.0 740ZM572.0 740H758.0Q786.0 740 802.0 725.0Q818.0 710 818.0 690.0Q818.0 670 802.0 655.0Q786.0 640 758.0 640H572.0Q544.0 640 528.0 655.0Q512.0 670 512.0 690.0Q512.0 710 528.0 725.0Q544.0 740 572.0 740ZM572.0 612H758.0Q786.0 612 802.0 597.0Q818.0 582 818.0 562.0Q818.0 542 802.0 527.0Q786.0 512 758.0 512H572.0Q544.0 512 528.0 527.0Q512.0 542 512.0 562.0Q512.0 582 528.0 597.0Q544.0 612 572.0 612ZM188.0 484H630.0Q658.0 484 674.0 469.0Q690.0 454 690.0 434.0Q690.0 414 674.0 399.0Q658.0 384 630.0 384H188.0Q160.0 384 144.0 399.0Q128.0 414 128.0 434.0Q128.0 454 144.0 469.0Q160.0 484 188.0 484ZM60.0 356H246.0Q274.0 356 290.0 341.0Q306.0 326 306.0 306.0Q306.0 286 290.0 271.0Q274.0 256 246.0 256H60.0Q32.0 256 16.0 271.0Q0.0 286 0.0 306.0Q0.0 326 16.0 341.0Q32.0 356 60.0 356ZM60.0 228H246.0Q274.0 228 290.0 213.0Q306.0 198 306.0 178.0Q306.0 158 290.0 143.0Q274.0 128 246.0 128H60.0Q32.0 128 16.0 143.0Q0.0 158 0.0 178.0Q0.0 198 16.0 213.0Q32.0 228 60.0 228ZM572.0 228H758.0Q786.0 228 802.0 213.0Q818.0 198 818.0 178.0Q818.0 158 802.0 143.0Q786.0 128 758.0 128H572.0Q544.0 128 528.0 143.0Q512.0 158 512.0 178.0Q512.0 198 528.0 213.0Q544.0 228 572.0 228ZM188.0 100H630.0Q658.0 100 674.0 85.0Q690.0 70 690.0 50.0Q690.0 30 674.0 15.0Q658.0 0 630.0 0H188.0Q160.0 0 144.0 15.0Q128.0 30 128.0 50.0Q128.0 70 144.0 85.0Q160.0 100 188.0 100ZM1212.0 868H1654.0Q1682.0 868 1698.0 853.0Q1714.0 838 1714.0 818.0Q1714.0 798 1698.0 783.0Q1682.0 768 1654.0 768H1212.0Q1184.0 768 1168.0 783.0Q1152.0 798 1152.0 818.0Q1152.0 838 1168.0 853.0Q1184.0 868 1212.0 868ZM1340.0 740H1526.0Q1554.0 740 1570.0 725.0Q1586.0 710 1586.0 690.0Q1586.0 670 1570.0 655.0Q1554.0 640 1526.0 640H1340.0Q1312.0 640 1296.0 655.0Q1280.0 670 1280.0 690.0Q1280.0 710 1296.0 725.0Q1312.0 740 1340.0 740ZM1340.0 612H1526.0Q1554.0 612 1570.0 597.0Q1586.0 582 1586.0 562.0Q1586.0 542 1570.0 527.0Q1554.0 512 1526.0 512H1340.0Q1312.0 512 1296.0 527.0Q1280.0 542 1280.0 562.0Q1280.0 582 1296.0 597.0Q1312.0 612 1340.0 612ZM1212.0 484H1526.0Q1554.0 484 1570.0 469.0Q1586.0 454 1586.0 434.0Q1586.0 414 1570.0 399.0Q1554.0 384 1526.0 384H1212.0Q1184.0 384 1168.0 399.0Q1152.0 414 1152.0 434.0Q1152.0 454 1168.0 469.0Q1184.0 484 1212.0 484ZM1340.0 228H1526.0Q1554.0 228 1570.0 213.0Q1586.0 198 1586.0 178.0Q1586.0 158 1570.0 143.0Q1554.0 128 1526.0 128H1340.0Q1312.0 128 1296.0 143.0Q1280.0 158 1280.0 178.0Q1280.0 198 1296.0 213.0Q1312.0 228 1340.0 228ZM2108.0 868H2294.0Q2322.0 868 2338.0 853.0Q2354.0 838 2354.0 818.0Q2354.0 798 2338.0 783.0Q2322.0 768 2294.0 768H2108.0Q2080.0 768 2064.0 783.0Q2048.0 798 2048.0 818.0Q2048.0 838 2064.0 853.0Q2080.0 868 2108.0 868ZM2620.0 868H2806.0Q2834.0 868 2850.0 853.0Q2866.0 838 2866.0 818.0Q2866.0 798 2850.0 783.0Q2834.0 768 2806.0 768H2620.0Q2592.0 768 2576.0 783.0Q2560.0 798 2560.0 818.0Q2560.0 838 2576.0 853.0Q2592.0 868 2620.0 868ZM2236.0 740H2678.0Q2706.0 740 2722.0 725.0Q2738.0 710 2738.0 690.0Q2738.0 670 2722.0 655.0Q2706.0 640 2678.0 640H2236.0Q2208.0 640 2192.0 655.0Q2176.0 670 2176.0 690.0Q2176.0 710 2192.0 725.0Q2208.0 740 2236.0 740ZM2364.0 612H2550.0Q2578.0 612 2594.0 597.0Q2610.0 582 2610.0 562.0Q2610.0 542 2594.0 527.0Q2578.0 512 2550.0 512H2364.0Q2336.0 512 2320.0 527.0Q2304.0 542 2304.0 562.0Q2304.0 582 2320.0 597.0Q2336.0 612 2364.0 612ZM2236.0 484H2678.0Q2706.0 484 2722.0 469.0Q2738.0 454 2738.0 434.0Q2738.0 414 2722.0 399.0Q2706.0 384 2678.0 384H2236.0Q2208.0 384 2192.0 399.0Q2176.0 414 2176.0 434.0Q2176.0 454 2192.0 469.0Q2208.0 484 2236.0 484ZM2108.0 356H2294.0Q2322.0 356 2338.0 341.0Q2354.0 326 2354.0 306.0Q2354.0 286 2338.0 271.0Q2322.0 256 2294.0 256H2108.0Q2080.0 256 2064.0 271.0Q2048.0 286 2048.0 306.0Q2048.0 326 2064.0 341.0Q2080.0 356 2108.0 356ZM2620.0 356H2806.0Q2834.0 356 2850.0 341.0Q2866.0 326 2866.0 306.0Q2866.0 286 2850.0 271.0Q2834.0 256 2806.0 256H2620.0Q2592.0 256 2576.0 271.0Q2560.0 286 2560.0 306.0Q2560.0 326 2576.0 341.0Q2592.0 356 2620.0 356ZM3516.0 868H3830.0Q3858.0 868 3874.0 853.0Q3890.0 838 3890.0 818.0Q3890.0 798 3874.0 783.0Q3858.0 768 3830.0 768H3516.0Q3488.0 768 3472.0 783.0Q3456.0 798 3456.0 818.0Q3456.0 838 3472.0 853.0Q3488.0 868 3516.0 868ZM3388.0 740H3574.0Q3602.0 740 3618.0 725.0Q3634.0 710 3634.0 690.0Q3634.0 670 3618.0 655.0Q3602.0 640 3574.0 640H3388.0Q3360.0 640 3344.0 655.0Q3328.0 670 3328.0 690.0Q3328.0 710 3344.0 725.0Q3360.0 740 3388.0 740ZM3388.0 612H3574.0Q3602.0 612 3618.0 597.0Q3634.0 582 3634.0 562.0Q3634.0 542 3618.0 527.0Q3602.0 512 3574.0 512H3388.0Q3360.0 512 3344.0 527.0Q3328.0 542 3328.0 562.0Q3328.0 582 3344.0 597.0Q3360.0 612 3388.0 612ZM3388.0 484H3574.0Q3602.0 484 3618.0 469.0Q3634.0 454 3634.0 434.0Q3634.0 414 3618.0 399.0Q3602.0 384 3574.0 384H3388.0Q3360.0 384 3344.0 399.0Q3328.0 414 3328.0 434.0Q3328.0 454 3344.0 469.0Q3360.0 484 3388.0 484ZM3132.0 356H3830.0Q3858.0 356 3874.0 341.0Q3890.0 326 3890.0 306.0Q3890.0 286 3874.0 271.0Q3858.0 256 3830.0 256H3132.0Q3104.0 256 3088.0 271.0Q3072.0 286 3072.0 306.0Q3072.0 326 3088.0 341.0Q3104.0 356 3132.0 356ZM3388.0 228H3574.0Q3602.0 228 3618.0 213.0Q3634.0 198 3634.0 178.0Q3634.0 158 3618.0 143.0Q3602.0 128 3574.0 128H3388.0Q3360.0 128 3344.0 143.0Q3328.0 158 3328.0 178.0Q3328.0 198 3344.0 213.0Q3360.0 228 3388.0 228ZM4156.0 996H4726.0Q4754.0 996 4770.0 981.0Q4786.0 966 4786.0 946.0Q4786.0 926 4770.0 911.0Q4754.0 896 4726.0 896H4156.0Q4128.0 896 4112.0 911.0Q4096.0 926 4096.0 946.0Q4096.0 966 4112.0 981.0Q4128.0 996 4156.0 996ZM4668.0 868H4854.0Q4882.0 868 4898.0 853.0Q4914.0 838 4914.0 818.0Q4914.0 798 4898.0 783.0Q4882.0 768 4854.0 768H4668.0Q4640.0 768 4624.0 783.0Q4608.0 798 4608.0 818.0Q4608.0 838 4624.0 853.0Q4640.0 868 4668.0 868ZM4284.0 740H4854.0Q4882.0 740 4898.0 725.0Q4914.0 710 4914.0 690.0Q4914.0 670 4898.0 655.0Q4882.0 640 4854.0 640H4284.0Q4256.0 640 4240.0 655.0Q4224.0 670 4224.0 690.0Q4224.0 710 4240.0 725.0Q4256.0 740 4284.0 740ZM4156.0 612H4342.0Q4370.0 612 4386.0 597.0Q4402.0 582 4402.0 562.0Q4402.0 542 4386.0 527.0Q4370.0 512 4342.0 512H4156.0Q4128.0 512 4112.0 527.0Q4096.0 542 4096.0 562.0Q4096.0 582 4112.0 597.0Q4128.0 612 4156.0 612ZM4668.0 612H4854.0Q4882.0 612 4898.0 597.0Q4914.0 582 4914.0 562.0Q4914.0 542 4898.0 527.0Q4882.0 512 4854.0 512H4668.0Q4640.0 512 4624.0 527.0Q4608.0 542 4608.0 562.0Q4608.0 582 4624.0 597.0Q4640.0 612 4668.0 612ZM4156.0 484H4342.0Q4370.0 484 4386.0 469.0Q4402.0 454 4402.0 434.0Q4402.0 414 4386.0 399.0Q4370.0 384 4342.0 384H4156.0Q4128.0 384 4112.0 399.0Q4096.0 414 4096.0 434.0Q4096.0 454 4112.0 469.0Q4128.0 484 4156.0 484ZM4668.0 484H4854.0Q4882.0 484 4898.0 469.0Q4914.0 454 4914.0 434.0Q4914.0 414 4898.0 399.0Q4882.0 384 4854.0 384H4668.0Q4640.0 384 4624.0 399.0Q4608.0 414 4608.0 434.0Q4608.0 454 4624.0 469.0Q4640.0 484 4668.0 484ZM4156.0 356H4342.0Q4370.0 356 4386.0 341.0Q4402.0 326 4402.0 306.0Q4402.0 286 4386.0 271.0Q4370.0 256 4342.0 256H4156.0Q4128.0 256 4112.0 271.0Q4096.0 286 4096.0 306.0Q4096.0 326 4112.0 341.0Q4128.0 356 4156.0 356ZM4668.0 356H4854.0Q4882.0 356 4898.0 341.0Q4914.0 326 4914.0 306.0Q4914.0 286 4898.0 271.0Q4882.0 256 4854.0 256H4668.0Q4640.0 256 4624.0 271.0Q4608.0 286 4608.0 306.0Q4608.0 326 4624.0 341.0Q4640.0 356 4668.0 356ZM5436.0 868H5622.0Q5650.0 868 5666.0 853.0Q5682.0 838 5682.0 818.0Q5682.0 798 5666.0 783.0Q5650.0 768 5622.0 768H5436.0Q5408.0 768 5392.0 783.0Q5376.0 798 5376.0 818.0Q5376.0 838 5392.0 853.0Q5408.0 868 5436.0 868ZM5436.0 740H5622.0Q5650.0 740 5666.0 725.0Q5682.0 710 5682.0 690.0Q5682.0 670 5666.0 655.0Q5650.0 640 5622.0 640H5436.0Q5408.0 640 5392.0 655.0Q5376.0 670 5376.0 690.0Q5376.0 710 5392.0 725.0Q5408.0 740 5436.0 740ZM5436.0 612H5622.0Q5650.0 612 5666.0 597.0Q5682.0 582 5682.0 562.0Q5682.0 542 5666.0 527.0Q5650.0 512 5622.0 512H5436.0Q5408.0 512 5392.0 527.0Q5376.0 542 5376.0 562.0Q5376.0 582 5392.0 597.0Q5408.0 612 5436.0 612ZM5308.0 484H5878.0Q5906.0 484 5922.0 469.0Q5938.0 454 5938.0 434.0Q5938.0 414 5922.0 399.0Q5906.0 384 5878.0 384H5308.0Q5280.0 384 5264.0 399.0Q5248.0 414 5248.0 434.0Q5248.0 454 5264.0 469.0Q5280.0 484 5308.0 484ZM5436.0 356H5622.0Q5650.0 356 5666.0 341.0Q5682.0 326 5682.0 306.0Q5682.0 286 5666.0 271.0Q5650.0 256 5622.0 256H5436.0Q5408.0 256 5392.0 271.0Q5376.0 286 5376.0 306.0Q5376.0 326 5392.0 341.0Q5408.0 356 5436.0 356ZM5564.0 228H5878.0Q5906.0 228 5922.0 213.0Q5938.0 198 5938.0 178.0Q5938.0 158 5922.0 143.0Q5906.0 128 5878.0 128H5564.0Q5536.0 128 5520.0 143.0Q5504.0 158 5504.0 178.0Q5504.0 198 5520.0 213.0Q5536.0 228 5564.0 228ZM6332.0 868H6774.0Q6802.0 868 6818.0 853.0Q6834.0 838 6834.0 818.0Q6834.0 798 6818.0 783.0Q6802.0 768 6774.0 768H6332.0Q6304.0 768 6288.0 783.0Q6272.0 798 6272.0 818.0Q6272.0 838 6288.0 853.0Q6304.0 868 6332.0 868ZM6204.0 740H6390.0Q6418.0 740 6434.0 725.0Q6450.0 710 6450.0 690.0Q6450.0 670 6434.0 655.0Q6418.0 640 6390.0 640H6204.0Q6176.0 640 6160.0 655.0Q6144.0 670 6144.0 690.0Q6144.0 710 6160.0 725.0Q6176.0 740 6204.0 740ZM6716.0 740H6902.0Q6930.0 740 6946.0 725.0Q6962.0 710 6962.0 690.0Q6962.0 670 6946.0 655.0Q6930.0 640 6902.0 640H6716.0Q6688.0 640 6672.0 655.0Q6656.0 670 6656.0 690.0Q6656.0 710 6672.0 725.0Q6688.0 740 6716.0 740ZM6204.0 612H6390.0Q6418.0 612 6434.0 597.0Q6450.0 582 6450.0 562.0Q6450.0 542 6434.0 527.0Q6418.0 512 6390.0 512H6204.0Q6176.0 512 6160.0 527.0Q6144.0 542 6144.0 562.0Q6144.0 582 6160.0 597.0Q6176.0 612 6204.0 612ZM6716.0 612H6902.0Q6930.0 612 6946.0 597.0Q6962.0 582 6962.0 562.0Q6962.0 542 6946.0 527.0Q6930.0 512 6902.0 512H6716.0Q6688.0 512 6672.0 527.0Q6656.0 542 6656.0 562.0Q6656.0 582 6672.0 597.0Q6688.0 612 6716.0 612ZM6204.0 484H6390.0Q6418.0 484 6434.0 469.0Q6450.0 454 6450.0 434.0Q6450.0 414 6434.0 399.0Q6418.0 384 6390.0 384H6204.0Q6176.0 384 6160.0 399.0Q6144.0 414 6144.0 434.0Q6144.0 454 6160.0 469.0Q6176.0 484 6204.0 484ZM6716.0 484H6902.0Q6930.0 484 6946.0 469.0Q6962.0 454 6962.0 434.0Q6962.0 414 6946.0 399.0Q6930.0 384 6902.0 384H6716.0Q6688.0 384 6672.0 399.0Q6656.0 414 6656.0 434.0Q6656.0 454 6672.0 469.0Q6688.0 484 6716.0 484ZM6332.0 356H6774.0Q6802.0 356 6818.0 341.0Q6834.0 326 6834.0 306.0Q6834.0 286 6818.0 271.0Q6802.0 256 6774.0 256H6332.0Q6304.0 256 6288.0 271.0Q6272.0 286 6272.0 306.0Q6272.0 326 6288.0 341.0Q6304.0 356 6332.0 356ZM7356.0 868H7926.0Q7954.0 868 7970.0 853.0Q7986.0 838 7986.0 818.0Q7986.0 798 7970.0 783.0Q7954.0 768 7926.0 768H7356.0Q7328.0 768 7312.0 783.0Q7296.0 798 7296.0 818.0Q7296.0 838 7312.0 853.0Q7328.0 868 7356.0 868ZM7228.0 740H7414.0Q7442.0 740 7458.0 725.0Q7474.0 710 7474.0 690.0Q7474.0 670 7458.0 655.0Q7442.0 640 7414.0 640H7228.0Q7200.0 640 7184.0 655.0Q7168.0 670 7168.0 690.0Q7168.0 710 7184.0 725.0Q7200.0 740 7228.0 740ZM7740.0 740H7926.0Q7954.0 740 7970.0 725.0Q7986.0 710 7986.0 690.0Q7986.0 670 7970.0 655.0Q7954.0 640 7926.0 640H7740.0Q7712.0 640 7696.0 655.0Q7680.0 670 7680.0 690.0Q7680.0 710 7696.0 725.0Q7712.0 740 7740.0 740ZM7228.0 612H7414.0Q7442.0 612 7458.0 597.0Q7474.0 582 7474.0 562.0Q7474.0 542 7458.0 527.0Q7442.0 512 7414.0 512H7228.0Q7200.0 512 7184.0 527.0Q7168.0 542 7168.0 562.0Q7168.0 582 7184.0 597.0Q7200.0 612 7228.0 612ZM7740.0 612H7926.0Q7954.0 612 7970.0 597.0Q7986.0 582 7986.0 562.0Q7986.0 542 7970.0 527.0Q7954.0 512 7926.0 512H7740.0Q7712.0 512 7696.0 527.0Q7680.0 542 7680.0 562.0Q7680.0 582 7696.0 597.0Q7712.0 612 7740.0 612ZM7228.0 484H7414.0Q7442.0 484 7458.0 469.0Q7474.0 454 7474.0 434.0Q7474.0 414 7458.0 399.0Q7442.0 384 7414.0 384H7228.0Q7200.0 384 7184.0 399.0Q7168.0 414 7168.0 434.0Q7168.0 454 7184.0 469.0Q7200.0 484 7228.0 484ZM7740.0 484H7926.0Q7954.0 484 7970.0 469.0Q7986.0 454 7986.0 434.0Q7986.0 414 7970.0 399.0Q7954.0 384 7926.0 384H7740.0Q7712.0 384 7696.0 399.0Q7680.0 414 7680.0 434.0Q7680.0 454 7696.0 469.0Q7712.0 484 7740.0 484ZM7228.0 356H7414.0Q7442.0 356 7458.0 341.0Q7474.0 326 7474.0 306.0Q7474.0 286 7458.0 271.0Q7442.0 256 7414.0 256H7228.0Q7200.0 256 7184.0 271.0Q7168.0 286 7168.0 306.0Q7168.0 326 7184.0 341.0Q7200.0 356 7228.0 356ZM7740.0 356H7926.0Q7954.0 356 7970.0 341.0Q7986.0 326 7986.0 306.0Q7986.0 286 7970.0 271.0Q7954.0 256 7926.0 256H7740.0Q7712.0 256 7696.0 271.0Q7680.0 286 7680.0 306.0Q7680.0 326 7696.0 341.0Q7712.0 356 7740.0 356ZM8252.0 868H8438.0Q8466.0 868 8482.0 853.0Q8498.0 838 8498.0 818.0Q8498.0 798 8482.0 783.0Q8466.0 768 8438.0 768H8252.0Q8224.0 768 8208.0 783.0Q8192.0 798 8192.0 818.0Q8192.0 838 8208.0 853.0Q8224.0 868 8252.0 868ZM8252.0 740H8438.0Q8466.0 740 8482.0 725.0Q8498.0 710 8498.0 690.0Q8498.0 670 8482.0 655.0Q8466.0 640 8438.0 640H8252.0Q8224.0 640 8208.0 655.0Q8192.0 670 8192.0 690.0Q8192.0 710 8208.0 725.0Q8224.0 740 8252.0 740ZM8252.0 612H8438.0Q8466.0 612 8482.0 597.0Q8498.0 582 8498.0 562.0Q8498.0 542 8482.0 527.0Q8466.0 512 8438.0 512H8252.0Q8224.0 512 8208.0 527.0Q8192.0 542 8192.0 562.0Q8192.0 582 8208.0 597.0Q8224.0 612 8252.0 612ZM8252.0 484H8438.0Q8466.0 484 8482.0 469.0Q8498.0 454 8498.0 434.0Q8498.0 414 8482.0 399.0Q8466.0 384 8438.0 384H8252.0Q8224.0 384 8208.0 399.0Q8192.0 414 8192.0 434.0Q8192.0 454 8208.0 469.0Q8224.0 484 8252.0 484ZM8764.0 484H8950.0Q8978.0 484 8994.0 469.0Q9010.0 454 9010.0 434.0Q9010.0 414 8994.0 399.0Q8978.0 384 8950.0 384H8764.0Q8736.0 384 8720.0 399.0Q8704.0 414 8704.0 434.0Q8704.0 454 8720.0 469.0Q8736.0 484 8764.0 484ZM8252.0 356H8822.0Q8850.0 356 8866.0 341.0Q8882.0 326 8882.0 306.0Q8882.0 286 8866.0 271.0Q8850.0 256 8822.0 256H8252.0Q8224.0 256 8208.0 271.0Q8192.0 286 8192.0 306.0Q8192.0 326 8208.0 341.0Q8224.0 356 8252.0 356ZM10428.0 868H10870.0Q10898.0 868 10914.0 853.0Q10930.0 838 10930.0 818.0Q10930.0 798 10914.0 783.0Q10898.0 768 10870.0 768H10428.0Q10400.0 768 10384.0 783.0Q10368.0 798 10368.0 818.0Q10368.0 838 10384.0 853.0Q10400.0 868 10428.0 868ZM10300.0 740H10486.0Q10514.0 740 10530.0 725.0Q10546.0 710 10546.0 690.0Q10546.0 670 10530.0 655.0Q10514.0 640 10486.0 640H10300.0Q10272.0 640 10256.0 655.0Q10240.0 670 10240.0 690.0Q10240.0 710 10256.0 725.0Q10272.0 740 10300.0 740ZM10812.0 740H10998.0Q11026.0 740 11042.0 725.0Q11058.0 710 11058.0 690.0Q11058.0 670 11042.0 655.0Q11026.0 640 10998.0 640H10812.0Q10784.0 640 10768.0 655.0Q10752.0 670 10752.0 690.0Q10752.0 710 10768.0 725.0Q10784.0 740 10812.0 740ZM10300.0 612H10486.0Q10514.0 612 10530.0 597.0Q10546.0 582 10546.0 562.0Q10546.0 542 10530.0 527.0Q10514.0 512 10486.0 512H10300.0Q10272.0 512 10256.0 527.0Q10240.0 542 10240.0 562.0Q10240.0 582 10256.0 597.0Q10272.0 612 10300.0 612ZM10300.0 484H10486.0Q10514.0 484 10530.0 469.0Q10546.0 454 10546.0 434.0Q10546.0 414 10530.0 399.0Q10514.0 384 10486.0 384H10300.0Q10272.0 384 10256.0 399.0Q10240.0 414 10240.0 434.0Q10240.0 454 10256.0 469.0Q10272.0 484 10300.0 484ZM10300.0 356H10486.0Q10514.0 356 10530.0 341.0Q10546.0 326 10546.0 306.0Q10546.0 286 10530.0 271.0Q10514.0 256 10486.0 256H10300.0Q10272.0 256 10256.0 271.0Q10240.0 286 10240.0 306.0Q10240.0 326 10256.0 341.0Q10272.0 356 10300.0 356ZM10300.0 228H10486.0Q10514.0 228 10530.0 213.0Q10546.0 198 10546.0 178.0Q10546.0 158 10530.0 143.0Q10514.0 128 10486.0 128H10300.0Q10272.0 128 10256.0 143.0Q10240.0 158 10240.0 178.0Q10240.0 198 10256.0 213.0Q10272.0 228 10300.0 228ZM10812.0 228H10998.0Q11026.0 228 11042.0 213.0Q11058.0 198 11058.0 178.0Q11058.0 158 11042.0 143.0Q11026.0 128 10998.0 128H10812.0Q10784.0 128 10768.0 143.0Q10752.0 158 10752.0 178.0Q10752.0 198 10768.0 213.0Q10784.0 228 10812.0 228ZM10428.0 100H10870.0Q10898.0 100 10914.0 85.0Q10930.0 70 10930.0 50.0Q10930.0 30 10914.0 15.0Q10898.0 0 10870.0 0H10428.0Q10400.0 0 10384.0 15.0Q10368.0 30 10368.0 50.0Q10368.0 70 10384.0 85.0Q10400.0 100 10428.0 100ZM11452.0 868H11894.0Q11922.0 868 11938.0 853.0Q11954.0 838 11954.0 818.0Q11954.0 798 11938.0 783.0Q11922.0 768 11894.0 768H11452.0Q11424.0 768 11408.0 783.0Q11392.0 798 11392.0 818.0Q11392.0 838 11408.0 853.0Q11424.0 868 11452.0 868ZM11324.0 740H11510.0Q11538.0 740 11554.0 725.0Q11570.0 710 11570.0 690.0Q11570.0 670 11554.0 655.0Q11538.0 640 11510.0 640H11324.0Q11296.0 640 11280.0 655.0Q11264.0 670 11264.0 690.0Q11264.0 710 11280.0 725.0Q11296.0 740 11324.0 740ZM11836.0 740H12022.0Q12050.0 740 12066.0 725.0Q12082.0 710 12082.0 690.0Q12082.0 670 12066.0 655.0Q12050.0 640 12022.0 640H11836.0Q11808.0 640 11792.0 655.0Q11776.0 670 11776.0 690.0Q11776.0 710 11792.0 725.0Q11808.0 740 11836.0 740ZM11324.0 612H11510.0Q11538.0 612 11554.0 597.0Q11570.0 582 11570.0 562.0Q11570.0 542 11554.0 527.0Q11538.0 512 11510.0 512H11324.0Q11296.0 512 11280.0 527.0Q11264.0 542 11264.0 562.0Q11264.0 582 11280.0 597.0Q11296.0 612 11324.0 612ZM11836.0 612H12022.0Q12050.0 612 12066.0 597.0Q12082.0 582 12082.0 562.0Q12082.0 542 12066.0 527.0Q12050.0 512 12022.0 512H11836.0Q11808.0 512 11792.0 527.0Q11776.0 542 11776.0 562.0Q11776.0 582 11792.0 597.0Q11808.0 612 11836.0 612ZM11324.0 484H11510.0Q11538.0 484 11554.0 469.0Q11570.0 454 11570.0 434.0Q11570.0 414 11554.0 399.0Q11538.0 384 11510.0 384H11324.0Q11296.0 384 11280.0 399.0Q11264.0 414 11264.0 434.0Q11264.0 454 11280.0 469.0Q11296.0 484 11324.0 484ZM11836.0 484H12022.0Q12050.0 484 12066.0 469.0Q12082.0 454 12082.0 434.0Q12082.0 414 12066.0 399.0Q12050.0 384 12022.0 384H11836.0Q11808.0 384 11792.0 399.0Q11776.0 414 11776.0 434.0Q11776.0 454 11792.0 469.0Q11808.0 484 11836.0 484ZM11452.0 356H11894.0Q11922.0 356 11938.0 341.0Q11954.0 326 11954.0 306.0Q11954.0 286 11938.0 271.0Q11922.0 256 11894.0 256H11452.0Q11424.0 256 11408.0 271.0Q11392.0 286 11392.0 306.0Q11392.0 326 11408.0 341.0Q11424.0 356 11452.0 356ZM12348.0 868H12534.0Q12562.0 868 12578.0 853.0Q12594.0 838 12594.0 818.0Q12594.0 798 12578.0 783.0Q12562.0 768 12534.0 768H12348.0Q12320.0 768 12304.0 783.0Q12288.0 798 12288.0 818.0Q12288.0 838 12304.0 853.0Q12320.0 868 12348.0 868ZM12860.0 868H13046.0Q13074.0 868 13090.0 853.0Q13106.0 838 13106.0 818.0Q13106.0 798 13090.0 783.0Q13074.0 768 13046.0 768H12860.0Q12832.0 768 12816.0 783.0Q12800.0 798 12800.0 818.0Q12800.0 838 12816.0 853.0Q12832.0 868 12860.0 868ZM12348.0 740H12534.0Q12562.0 740 12578.0 725.0Q12594.0 710 12594.0 690.0Q12594.0 670 12578.0 655.0Q12562.0 640 12534.0 640H12348.0Q12320.0 640 12304.0 655.0Q12288.0 670 12288.0 690.0Q12288.0 710 12304.0 725.0Q12320.0 740 12348.0 740ZM12860.0 740H13046.0Q13074.0 740 13090.0 725.0Q13106.0 710 13106.0 690.0Q13106.0 670 13090.0 655.0Q13074.0 640 13046.0 640H12860.0Q12832.0 640 12816.0 655.0Q12800.0 670 12800.0 690.0Q12800.0 710 12816.0 725.0Q12832.0 740 12860.0 740ZM12348.0 612H12534.0Q12562.0 612 12578.0 597.0Q12594.0 582 12594.0 562.0Q12594.0 542 12578.0 527.0Q12562.0 512 12534.0 512H12348.0Q12320.0 512 12304.0 527.0Q12288.0 542 12288.0 562.0Q12288.0 582 12304.0 597.0Q12320.0 612 12348.0 612ZM12860.0 612H13046.0Q13074.0 612 13090.0 597.0Q13106.0 582 13106.0 562.0Q13106.0 542 13090.0 527.0Q13074.0 512 13046.0 512H12860.0Q12832.0 512 12816.0 527.0Q12800.0 542 12800.0 562.0Q12800.0 582 12816.0 597.0Q12832.0 612 12860.0 612ZM12348.0 484H12534.0Q12562.0 484 12578.0 469.0Q12594.0 454 12594.0 434.0Q12594.0 414 12578.0 399.0Q12562.0 384 12534.0 384H12348.0Q12320.0 384 12304.0 399.0Q12288.0 414 12288.0 434.0Q12288.0 454 12304.0 469.0Q12320.0 484 12348.0 484ZM12860.0 484H13046.0Q13074.0 484 13090.0 469.0Q13106.0 454 13106.0 434.0Q13106.0 414 13090.0 399.0Q13074.0 384 13046.0 384H12860.0Q12832.0 384 12816.0 399.0Q12800.0 414 12800.0 434.0Q12800.0 454 12816.0 469.0Q12832.0 484 12860.0 484ZM12348.0 356H12918.0Q12946.0 356 12962.0 341.0Q12978.0 326 12978.0 306.0Q12978.0 286 12962.0 271.0Q12946.0 256 12918.0 256H12348.0Q12320.0 256 12304.0 271.0Q12288.0 286 12288.0 306.0Q12288.0 326 12304.0 341.0Q12320.0 356 12348.0 356ZM13628.0 868H13814.0Q13842.0 868 13858.0 853.0Q13874.0 838 13874.0 818.0Q13874.0 798 13858.0 783.0Q13842.0 768 13814.0 768H13628.0Q13600.0 768 13584.0 783.0Q13568.0 798 13568.0 818.0Q13568.0 838 13584.0 853.0Q13600.0 868 13628.0 868ZM13500.0 740H13942.0Q13970.0 740 13986.0 725.0Q14002.0 710 14002.0 690.0Q14002.0 670 13986.0 655.0Q13970.0 640 13942.0 640H13500.0Q13472.0 640 13456.0 655.0Q13440.0 670 13440.0 690.0Q13440.0 710 13456.0 725.0Q13472.0 740 13500.0 740ZM13372.0 612H13558.0Q13586.0 612 13602.0 597.0Q13618.0 582 13618.0 562.0Q13618.0 542 13602.0 527.0Q13586.0 512 13558.0 512H13372.0Q13344.0 512 13328.0 527.0Q13312.0 542 13312.0 562.0Q13312.0 582 13328.0 597.0Q13344.0 612 13372.0 612ZM13884.0 612H14070.0Q14098.0 612 14114.0 597.0Q14130.0 582 14130.0 562.0Q14130.0 542 14114.0 527.0Q14098.0 512 14070.0 512H13884.0Q13856.0 512 13840.0 527.0Q13824.0 542 13824.0 562.0Q13824.0 582 13840.0 597.0Q13856.0 612 13884.0 612ZM13372.0 484H13558.0Q13586.0 484 13602.0 469.0Q13618.0 454 13618.0 434.0Q13618.0 414 13602.0 399.0Q13586.0 384 13558.0 384H13372.0Q13344.0 384 13328.0 399.0Q13312.0 414 13312.0 434.0Q13312.0 454 13328.0 469.0Q13344.0 484 13372.0 484ZM13884.0 484H14070.0Q14098.0 484 14114.0 469.0Q14130.0 454 14130.0 434.0Q14130.0 414 14114.0 399.0Q14098.0 384 14070.0 384H13884.0Q13856.0 384 13840.0 399.0Q13824.0 414 13824.0 434.0Q13824.0 454 13840.0 469.0Q13856.0 484 13884.0 484ZM13372.0 356H13558.0Q13586.0 356 13602.0 341.0Q13618.0 326 13618.0 306.0Q13618.0 286 13602.0 271.0Q13586.0 256 13558.0 256H13372.0Q13344.0 256 13328.0 271.0Q13312.0 286 13312.0 306.0Q13312.0 326 13328.0 341.0Q13344.0 356 13372.0 356ZM13884.0 356H14070.0Q14098.0 356 14114.0 341.0Q14130.0 326 14130.0 306.0Q14130.0 286 14114.0 271.0Q14098.0 256 14070.0 256H13884.0Q13856.0 256 13840.0 271.0Q13824.0 286 13824.0 306.0Q13824.0 326 13840.0 341.0Q13856.0 356 13884.0 356ZM14524.0 868H14966.0Q14994.0 868 15010.0 853.0Q15026.0 838 15026.0 818.0Q15026.0 798 15010.0 783.0Q14994.0 768 14966.0 768H14524.0Q14496.0 768 14480.0 783.0Q14464.0 798 14464.0 818.0Q14464.0 838 14480.0 853.0Q14496.0 868 14524.0 868ZM14396.0 740H14582.0Q14610.0 740 14626.0 725.0Q14642.0 710 14642.0 690.0Q14642.0 670 14626.0 655.0Q14610.0 640 14582.0 640H14396.0Q14368.0 640 14352.0 655.0Q14336.0 670 14336.0 690.0Q14336.0 710 14352.0 725.0Q14368.0 740 14396.0 740ZM14396.0 612H15094.0Q15122.0 612 15138.0 597.0Q15154.0 582 15154.0 562.0Q15154.0 542 15138.0 527.0Q15122.0 512 15094.0 512H14396.0Q14368.0 512 14352.0 527.0Q14336.0 542 14336.0 562.0Q14336.0 582 14352.0 597.0Q14368.0 612 14396.0 612ZM14396.0 484H14582.0Q14610.0 484 14626.0 469.0Q14642.0 454 14642.0 434.0Q14642.0 414 14626.0 399.0Q14610.0 384 14582.0 384H14396.0Q14368.0 384 14352.0 399.0Q14336.0 414 14336.0 434.0Q14336.0 454 14352.0 469.0Q14368.0 484 14396.0 484ZM14908.0 484H15094.0Q15122.0 484 15138.0 469.0Q15154.0 454 15154.0 434.0Q15154.0 414 15138.0 399.0Q15122.0 384 15094.0 384H14908.0Q14880.0 384 14864.0 399.0Q14848.0 414 14848.0 434.0Q14848.0 454 14864.0 469.0Q14880.0 484 14908.0 484ZM14524.0 356H14966.0Q14994.0 356 15010.0 341.0Q15026.0 326 15026.0 306.0Q15026.0 286 15010.0 271.0Q14994.0 256 14966.0 256H14524.0Q14496.0 256 14480.0 271.0Q14464.0 286 14464.0 306.0Q14464.0 326 14480.0 341.0Q14496.0 356 14524.0 356ZM15420.0 868H15606.0Q15634.0 868 15650.0 853.0Q15666.0 838 15666.0 818.0Q15666.0 798 15650.0 783.0Q15634.0 768 15606.0 768H15420.0Q15392.0 768 15376.0 783.0Q15360.0 798 15360.0 818.0Q15360.0 838 15376.0 853.0Q15392.0 868 15420.0 868ZM15420.0 740H15606.0Q15634.0 740 15650.0 725.0Q15666.0 710 15666.0 690.0Q15666.0 670 15650.0 655.0Q15634.0 640 15606.0 640H15420.0Q15392.0 640 15376.0 655.0Q15360.0 670 15360.0 690.0Q15360.0 710 15376.0 725.0Q15392.0 740 15420.0 740ZM15420.0 612H15606.0Q15634.0 612 15650.0 597.0Q15666.0 582 15666.0 562.0Q15666.0 542 15650.0 527.0Q15634.0 512 15606.0 512H15420.0Q15392.0 512 15376.0 527.0Q15360.0 542 15360.0 562.0Q15360.0 582 15376.0 597.0Q15392.0 612 15420.0 612ZM15420.0 484H15606.0Q15634.0 484 15650.0 469.0Q15666.0 454 15666.0 434.0Q15666.0 414 15650.0 399.0Q15634.0 384 15606.0 384H15420.0Q15392.0 384 15376.0 399.0Q15360.0 414 15360.0 434.0Q15360.0 454 15376.0 469.0Q15392.0 484 15420.0 484ZM15932.0 484H16118.0Q16146.0 484 16162.0 469.0Q16178.0 454 16178.0 434.0Q16178.0 414 16162.0 399.0Q16146.0 384 16118.0 384H15932.0Q15904.0 384 15888.0 399.0Q15872.0 414 15872.0 434.0Q15872.0 454 15888.0 469.0Q15904.0 484 15932.0 484ZM15420.0 356H15990.0Q16018.0 356 16034.0 341.0Q16050.0 326 16050.0 306.0Q16050.0 286 16034.0 271.0Q16018.0 256 15990.0 256H15420.0Q15392.0 256 15376.0 271.0Q15360.0 286 15360.0 306.0Q15360.0 326 15376.0 341.0Q15392.0 356 15420.0 356ZM16444.0 996H17014.0Q17042.0 996 17058.0 981.0Q17074.0 966 17074.0 946.0Q17074.0 926 17058.0 911.0Q17042.0 896 17014.0 896H16444.0Q16416.0 896 16400.0 911.0Q16384.0 926 16384.0 946.0Q16384.0 966 16400.0 981.0Q16416.0 996 16444.0 996ZM16956.0 868H17142.0Q17170.0 868 17186.0 853.0Q17202.0 838 17202.0 818.0Q17202.0 798 17186.0 783.0Q17170.0 768 17142.0 768H16956.0Q16928.0 768 16912.0 783.0Q16896.0 798 16896.0 818.0Q16896.0 838 16912.0 853.0Q16928.0 868 16956.0 868ZM16572.0 740H17142.0Q17170.0 740 17186.0 725.0Q17202.0 710 17202.0 690.0Q17202.0 670 17186.0 655.0Q17170.0 640 17142.0 640H16572.0Q16544.0 640 16528.0 655.0Q16512.0 670 16512.0 690.0Q16512.0 710 16528.0 725.0Q16544.0 740 16572.0 740ZM16444.0 612H16630.0Q16658.0 612 16674.0 597.0Q16690.0 582 16690.0 562.0Q16690.0 542 16674.0 527.0Q16658.0 512 16630.0 512H16444.0Q16416.0 512 16400.0 527.0Q16384.0 542 16384.0 562.0Q16384.0 582 16400.0 597.0Q16416.0 612 16444.0 612ZM16956.0 612H17142.0Q17170.0 612 17186.0 597.0Q17202.0 582 17202.0 562.0Q17202.0 542 17186.0 527.0Q17170.0 512 17142.0 512H16956.0Q16928.0 512 16912.0 527.0Q16896.0 542 16896.0 562.0Q16896.0 582 16912.0 597.0Q16928.0 612 16956.0 612ZM16444.0 484H16630.0Q16658.0 484 16674.0 469.0Q16690.0 454 16690.0 434.0Q16690.0 414 16674.0 399.0Q16658.0 384 16630.0 384H16444.0Q16416.0 384 16400.0 399.0Q16384.0 414 16384.0 434.0Q16384.0 454 16400.0 469.0Q16416.0 484 16444.0 484ZM16956.0 484H17142.0Q17170.0 484 17186.0 469.0Q17202.0 454 17202.0 434.0Q17202.0 414 17186.0 399.0Q17170.0 384 17142.0 384H16956.0Q16928.0 384 16912.0 399.0Q16896.0 414 16896.0 434.0Q16896.0 454 16912.0 469.0Q16928.0 484 16956.0 484ZM16572.0 356H17142.0Q17170.0 356 17186.0 341.0Q17202.0 326 17202.0 306.0Q17202.0 286 17186.0 271.0Q17170.0 256 17142.0 256H16572.0Q16544.0 256 16528.0 271.0Q16512.0 286 16512.0 306.0Q16512.0 326 16528.0 341.0Q16544.0 356 16572.0 356ZM17596.0 868H18038.0Q18066.0 868 18082.0 853.0Q18098.0 838 18098.0 818.0Q18098.0 798 18082.0 783.0Q18066.0 768 18038.0 768H17596.0Q17568.0 768 17552.0 783.0Q17536.0 798 17536.0 818.0Q17536.0 838 17552.0 853.0Q17568.0 868 17596.0 868ZM17468.0 740H17654.0Q17682.0 740 17698.0 725.0Q17714.0 710 17714.0 690.0Q17714.0 670 17698.0 655.0Q17682.0 640 17654.0 640H17468.0Q17440.0 640 17424.0 655.0Q17408.0 670 17408.0 690.0Q17408.0 710 17424.0 725.0Q17440.0 740 17468.0 740ZM17468.0 612H18166.0Q18194.0 612 18210.0 597.0Q18226.0 582 18226.0 562.0Q18226.0 542 18210.0 527.0Q18194.0 512 18166.0 512H17468.0Q17440.0 512 17424.0 527.0Q17408.0 542 17408.0 562.0Q17408.0 582 17424.0 597.0Q17440.0 612 17468.0 612ZM17468.0 484H17654.0Q17682.0 484 17698.0 469.0Q17714.0 454 17714.0 434.0Q17714.0 414 17698.0 399.0Q17682.0 384 17654.0 384H17468.0Q17440.0 384 17424.0 399.0Q17408.0 414 17408.0 434.0Q17408.0 454 17424.0 469.0Q17440.0 484 17468.0 484ZM17980.0 484H18166.0Q18194.0 484 18210.0 469.0Q18226.0 454 18226.0 434.0Q18226.0 414 18210.0 399.0Q18194.0 384 18166.0 384H17980.0Q17952.0 384 17936.0 399.0Q17920.0 414 17920.0 434.0Q17920.0 454 17936.0 469.0Q17952.0 484 17980.0 484ZM17596.0 356H18038.0Q18066.0 356 18082.0 341.0Q18098.0 326 18098.0 306.0Q18098.0 286 18082.0 271.0Q18066.0 256 18038.0 256H17596.0Q17568.0 256 17552.0 271.0Q17536.0 286 17536.0 306.0Q17536.0 326 17552.0 341.0Q17568.0 356 17596.0 356ZM18492.0 868H18678.0Q18706.0 868 18722.0 853.0Q18738.0 838 18738.0 818.0Q18738.0 798 18722.0 783.0Q18706.0 768 18678.0 768H18492.0Q18464.0 768 18448.0 783.0Q18432.0 798 18432.0 818.0Q18432.0 838 18448.0 853.0Q18464.0 868 18492.0 868ZM19004.0 868H19190.0Q19218.0 868 19234.0 853.0Q19250.0 838 19250.0 818.0Q19250.0 798 19234.0 783.0Q19218.0 768 19190.0 768H19004.0Q18976.0 768 18960.0 783.0Q18944.0 798 18944.0 818.0Q18944.0 838 18960.0 853.0Q18976.0 868 19004.0 868ZM18492.0 740H18678.0Q18706.0 740 18722.0 725.0Q18738.0 710 18738.0 690.0Q18738.0 670 18722.0 655.0Q18706.0 640 18678.0 640H18492.0Q18464.0 640 18448.0 655.0Q18432.0 670 18432.0 690.0Q18432.0 710 18448.0 725.0Q18464.0 740 18492.0 740ZM19004.0 740H19190.0Q19218.0 740 19234.0 725.0Q19250.0 710 19250.0 690.0Q19250.0 670 19234.0 655.0Q19218.0 640 19190.0 640H19004.0Q18976.0 640 18960.0 655.0Q18944.0 670 18944.0 690.0Q18944.0 710 18960.0 725.0Q18976.0 740 19004.0 740ZM18492.0 612H18678.0Q18706.0 612 18722.0 597.0Q18738.0 582 18738.0 562.0Q18738.0 542 18722.0 527.0Q18706.0 512 18678.0 512H18492.0Q18464.0 512 18448.0 527.0Q18432.0 542 18432.0 562.0Q18432.0 582 18448.0 597.0Q18464.0 612 18492.0 612ZM19004.0 612H19190.0Q19218.0 612 19234.0 597.0Q19250.0 582 19250.0 562.0Q19250.0 542 19234.0 527.0Q19218.0 512 19190.0 512H19004.0Q18976.0 512 18960.0 527.0Q18944.0 542 18944.0 562.0Q18944.0 582 18960.0 597.0Q18976.0 612 19004.0 612ZM18492.0 484H18678.0Q18706.0 484 18722.0 469.0Q18738.0 454 18738.0 434.0Q18738.0 414 18722.0 399.0Q18706.0 384 18678.0 384H18492.0Q18464.0 384 18448.0 399.0Q18432.0 414 18432.0 434.0Q18432.0 454 18448.0 469.0Q18464.0 484 18492.0 484ZM19004.0 484H19190.0Q19218.0 484 19234.0 469.0Q19250.0 454 19250.0 434.0Q19250.0 414 19234.0 399.0Q19218.0 384 19190.0 384H19004.0Q18976.0 384 18960.0 399.0Q18944.0 414 18944.0 434.0Q18944.0 454 18960.0 469.0Q18976.0 484 19004.0 484ZM18492.0 356H19062.0Q19090.0 356 19106.0 341.0Q19122.0 326 19122.0 306.0Q19122.0 286 19106.0 271.0Q19090.0 256 19062.0 256H18492.0Q18464.0 256 18448.0 271.0Q18432.0 286 18432.0 306.0Q18432.0 326 18448.0 341.0Q18464.0 356 18492.0 356ZM19644.0 868H20086.0Q20114.0 868 20130.0 853.0Q20146.0 838 20146.0 818.0Q20146.0 798 20130.0 783.0Q20114.0 768 20086.0 768H19644.0Q19616.0 768 19600.0 783.0Q19584.0 798 19584.0 818.0Q19584.0 838 19600.0 853.0Q19616.0 868 19644.0 868ZM19516.0 740H19702.0Q19730.0 740 19746.0 725.0Q19762.0 710 19762.0 690.0Q19762.0 670 19746.0 655.0Q19730.0 640 19702.0 640H19516.0Q19488.0 640 19472.0 655.0Q19456.0 670 19456.0 690.0Q19456.0 710 19472.0 725.0Q19488.0 740 19516.0 740ZM19516.0 612H19702.0Q19730.0 612 19746.0 597.0Q19762.0 582 19762.0 562.0Q19762.0 542 19746.0 527.0Q19730.0 512 19702.0 512H19516.0Q19488.0 512 19472.0 527.0Q19456.0 542 19456.0 562.0Q19456.0 582 19472.0 597.0Q19488.0 612 19516.0 612ZM19516.0 484H19702.0Q19730.0 484 19746.0 469.0Q19762.0 454 19762.0 434.0Q19762.0 414 19746.0 399.0Q19730.0 384 19702.0 384H19516.0Q19488.0 384 19472.0 399.0Q19456.0 414 19456.0 434.0Q19456.0 454 19472.0 469.0Q19488.0 484 19516.0 484ZM19644.0 356H20086.0Q20114.0 356 20130.0 341.0Q20146.0 326 20146.0 306.0Q20146.0 286 20130.0 271.0Q20114.0 256 20086.0 256H19644.0Q19616.0 256 19600.0 271.0Q19584.0 286 19584.0 306.0Q19584.0 326 19600.0 341.0Q19616.0 356 19644.0 356ZM20668.0 868H21110.0Q21138.0 868 21154.0 853.0Q21170.0 838 21170.0 818.0Q21170.0 798 21154.0 783.0Q21138.0 768 21110.0 768H20668.0Q20640.0 768 20624.0 783.0Q20608.0 798 20608.0 818.0Q20608.0 838 20624.0 853.0Q20640.0 868 20668.0 868ZM20540.0 740H20726.0Q20754.0 740 20770.0 725.0Q20786.0 710 20786.0 690.0Q20786.0 670 20770.0 655.0Q20754.0 640 20726.0 640H20540.0Q20512.0 640 20496.0 655.0Q20480.0 670 20480.0 690.0Q20480.0 710 20496.0 725.0Q20512.0 740 20540.0 740ZM20540.0 612H21238.0Q21266.0 612 21282.0 597.0Q21298.0 582 21298.0 562.0Q21298.0 542 21282.0 527.0Q21266.0 512 21238.0 512H20540.0Q20512.0 512 20496.0 527.0Q20480.0 542 20480.0 562.0Q20480.0 582 20496.0 597.0Q20512.0 612 20540.0 612ZM20540.0 484H20726.0Q20754.0 484 20770.0 469.0Q20786.0 454 20786.0 434.0Q20786.0 414 20770.0 399.0Q20754.0 384 20726.0 384H20540.0Q20512.0 384 20496.0 399.0Q20480.0 414 20480.0 434.0Q20480.0 454 20496.0 469.0Q20512.0 484 20540.0 484ZM21052.0 484H21238.0Q21266.0 484 21282.0 469.0Q21298.0 454 21298.0 434.0Q21298.0 414 21282.0 399.0Q21266.0 384 21238.0 384H21052.0Q21024.0 384 21008.0 399.0Q20992.0 414 20992.0 434.0Q20992.0 454 21008.0 469.0Q21024.0 484 21052.0 484ZM20668.0 356H21110.0Q21138.0 356 21154.0 341.0Q21170.0 326 21170.0 306.0Q21170.0 286 21154.0 271.0Q21138.0 256 21110.0 256H20668.0Q20640.0 256 20624.0 271.0Q20608.0 286 20608.0 306.0Q20608.0 326 20624.0 341.0Q20640.0 356 20668.0 356Z" /></svg>