<svg viewBox="0 0 5769 2498" xmlns="http://www.w3.org/2000/svg"><path d="M87 882 88 679Q88 475 266 450Q317 442 376 442Q472 442 540 483Q569 501 586 524H594V450H672L668 991H596V864Q596 819 569.5 794.0Q543 769 492 769H266Q223 769 193.5 794.0Q164 819 164.0 865.0Q164 911 162.0 955.5Q160 1000 161.5 1041.0Q163 1082 171.0 1103.5Q179 1125 194 1136Q218 1155 289 1155H477Q589 1155 654 1237Q709 1307 709 1406V1736Q709 1877 642 1934Q571 1994 395 1994Q223 1994 147 1882H135V1986H61L76 1351L145 1353Q144 1399 143.5 1440.0Q143 1481 143 1522V1593Q143 1652 158 1667Q181 1691 225 1691L349 1692L524 1693Q618 1693 630 1618Q633 1595 633 1566V1417Q633 1241 446 1241H293Q200 1241 164 1218Q86 1167 86 1019ZM985 1319Q985 1269 938 1269H854L852 962H1097V1109H1110Q1132 1004 1236 966Q1268 954 1306 954Q1370 954 1423 1015Q1446 1041 1462 1075Q1503 1011 1578 973Q1616 954 1665 954Q1798 954 1820 1105Q1827 1152 1827 1208L1814 1642Q1814 1687 1873 1690Q1890 1691 1908 1691H1968V1986H1732L1747 1355Q1747 1296 1712.5 1273.5Q1678 1251 1619.5 1251.0Q1561 1251 1531.0 1260.0Q1501 1269 1480 1285Q1435 1319 1435 1374L1427 1634Q1427 1679 1464 1688Q1474 1691 1482 1691H1579V1986H1335Q1360 1415 1360.0 1392.0Q1360 1369 1361.0 1345.5Q1362 1322 1352 1298Q1328 1241 1233 1241Q1139 1241 1092 1306Q1059 1353 1059 1398V1634Q1059 1668 1071.0 1679.5Q1083 1691 1106 1691H1202L1192 1986H843L854 1689H942Q987 1689 987 1640V1614L985 1376ZM2047 1640 2049 1418Q2050 1333 2051.0 1270.5Q2052 1208 2052.0 1173.5Q2052 1139 2059.0 1106.5Q2066 1074 2082.5 1046.0Q2099 1018 2132 997Q2203 952 2349 952Q2558 952 2613 1050Q2641 1100 2641 1151V1699Q2641 1820 2616.5 1867.5Q2592 1915 2560 1940Q2486 1998 2349 1998Q2143 1998 2083 1902Q2050 1849 2048.5 1792.0Q2047 1735 2047 1704ZM2119 1376V1578Q2119 1651 2165 1678Q2215 1707 2316.0 1707.0Q2417 1707 2460.0 1699.0Q2503 1691 2528 1676Q2570 1650 2570 1587V1376Q2570 1305 2525 1274Q2476 1241 2377 1241Q2212 1241 2165.5 1269.5Q2119 1298 2119 1376ZM3096 450 3086 753H3022Q2996 753 2980.5 760.5Q2965 768 2965 800V1351Q2965 1356 2966.0 1360.0Q2967 1364 2975 1361Q3156 1260 3174.0 1242.5Q3192 1225 3201.5 1216.0Q3211 1207 3217 1196Q3231 1175 3231 1134V966L3559 962L3553 1269H3362Q3293 1269 3250 1286L3475 1669Q3487 1689 3510 1689H3620L3627 1986L3289 1988L3293 1693H3387Q3402 1693 3389 1673L3186 1316L2971 1449Q2965 1452 2965 1460V1609Q2965 1640 2984.0 1665.5Q3003 1691 3043 1691H3115L3113 1986H2754L2762 1689H2828Q2868 1689 2883 1654Q2889 1641 2889 1621V806Q2889 774 2874.5 765.5Q2860 757 2840 757H2756V452ZM3801 1296Q3801 1267 3768 1267H3672L3663 962H4009V1267H3932Q3896 1267 3888 1274Q3876 1283 3876 1316V1580Q3876 1679 3990 1692Q4027 1697 4084.0 1697.0Q4141 1697 4181.5 1682.0Q4222 1667 4245 1644Q4282 1607 4282 1548V1312Q4282 1280 4264.0 1273.5Q4246 1267 4218 1267H4179Q4155 1267 4153 1265L4157 962L4491 968L4489 1267H4419Q4360 1267 4360 1306V1330L4359 1427V1486Q4358 1556 4358.0 1610.5Q4358 1665 4369.0 1677.0Q4380 1689 4417 1689H4491L4489 1986H4282V1847H4272Q4258 1913 4202.5 1954.5Q4147 1996 4062.0 1996.0Q3977 1996 3931.0 1982.5Q3885 1969 3856 1938Q3799 1879 3799 1736V1689L3801 1336ZM4770 1319Q4770 1269 4723 1269H4639L4637 962H4882V1109H4895Q4917 1004 5021 966Q5053 954 5091 954Q5155 954 5208 1015Q5231 1041 5247 1075Q5288 1011 5363 973Q5401 954 5450 954Q5583 954 5605 1105Q5612 1152 5612 1208L5599 1642Q5599 1687 5658 1690Q5675 1691 5693 1691H5753V1986H5517L5532 1355Q5532 1296 5497.5 1273.5Q5463 1251 5404.5 1251.0Q5346 1251 5316.0 1260.0Q5286 1269 5265 1285Q5220 1319 5220 1374L5212 1634Q5212 1679 5249 1688Q5259 1691 5267 1691H5364V1986H5120Q5145 1415 5145.0 1392.0Q5145 1369 5146.0 1345.5Q5147 1322 5137 1298Q5113 1241 5018 1241Q4924 1241 4877 1306Q4844 1353 4844 1398V1634Q4844 1668 4856.0 1679.5Q4868 1691 4891 1691H4987L4977 1986H4628L4639 1689H4727Q4772 1689 4772 1640V1614L4770 1376Z" fill="currentColor" /></svg>