<svg viewBox="0 0 2199 1186.0" xmlns="http://www.w3.org/2000/svg"><path d="M458 653Q458 605 435.5 571.0Q413 537 377.5 518.0Q342 499 299.0 484.0Q256 469 213.0 453.5Q170 438 134.5 416.5Q99 395 76.5 357.0Q54 319 54 265Q54 172 122.5 119.0Q191 66 298.5 66.0Q406 66 470.0 115.0Q534 164 534 222Q534 262 518.5 281.5Q503 301 482 301Q443 301 432 286L429 281Q439 268 439 231Q439 174 391.0 141.5Q343 109 279.5 109.0Q216 109 179.0 143.0Q142 177 142.0 226.0Q142 275 164.5 307.5Q187 340 223.0 358.0Q259 376 302.5 390.0Q346 404 389.5 420.5Q433 437 469.0 460.5Q505 484 527.5 527.0Q550 570 550 631Q550 738 474.0 795.0Q398 852 283.5 852.0Q169 852 84.5 793.5Q0 735 0 647Q0 606 16.0 582.5Q32 559 54 559Q93 559 104 572L107 577Q98 602 98 638Q98 706 153.5 757.0Q209 808 299 808Q364 808 411.0 762.5Q458 717 458 653ZM793.5 354.0Q882 354 938.0 413.0Q994 472 994.0 573.5Q994 675 941.5 742.0Q889 809 801.0 809.0Q713 809 654.5 748.5Q596 688 596.0 580.5Q596 473 650.5 413.5Q705 354 793.5 354.0ZM794 393Q767 393 747.5 406.5Q728 420 728 445Q728 509 778.0 567.5Q828 626 897 645Q899 607 899 580Q899 476 877.0 434.5Q855 393 794 393ZM691 580Q691 682 716.5 726.0Q742 770 800 770Q840 770 861.5 749.5Q883 729 891 683Q826 669 771.5 624.0Q717 579 692 524Q691 541 691 580ZM1304 403H1153V1172Q1143 1186 1118.0 1186.0Q1093 1186 1078.0 1170.5Q1063 1155 1063 1125V247Q1063 120 1090.0 60.0Q1117 0 1186 0Q1285 0 1285 134Q1285 288 1181 368H1270Q1291 368 1297.5 376.0Q1304 384 1304 403ZM1242 135Q1242 39 1194 39Q1181 39 1174.0 47.5Q1167 56 1163 91Q1155 151 1153 347Q1242 282 1242 135ZM1350.0 256.0Q1333 239 1333.0 214.0Q1333 189 1350.0 171.5Q1367 154 1392.0 154.0Q1417 154 1434.5 171.5Q1452 189 1452.0 214.0Q1452 239 1434.5 256.0Q1417 273 1392.0 273.0Q1367 273 1350.0 256.0ZM1436 368V655Q1436 712 1458.0 741.0Q1480 770 1518.0 770.0Q1556 770 1589.0 724.0Q1622 678 1622 575Q1624 569 1637 569Q1655 569 1655 622Q1655 699 1613.0 754.0Q1571 809 1506 809Q1425 809 1385.5 761.0Q1346 713 1346 625V415Q1346 385 1361.0 369.5Q1376 354 1399.0 354.0Q1422 354 1436 368ZM1921 383Q1934 354 1962.5 354.0Q1991 354 2005 368V655Q2005 712 2023.0 741.0Q2041 770 2072 770Q2166 770 2166 575Q2167 569 2181 569Q2199 569 2199 622Q2199 707 2162.5 758.0Q2126 809 2060 809Q1959 809 1926 720Q1907 761 1874.0 785.0Q1841 809 1799 809Q1624 809 1624 580Q1624 464 1678.5 409.0Q1733 354 1823 354Q1892 354 1921 383ZM1914 635V498Q1914 451 1889.5 422.0Q1865 393 1834.5 393.0Q1804 393 1786.0 399.0Q1768 405 1752 424Q1719 460 1719 580Q1719 659 1733.0 703.0Q1747 747 1765.0 758.5Q1783 770 1813.0 770.0Q1843 770 1878.5 732.5Q1914 695 1914 635Z" fill="currentColor" /></svg>