<svg viewBox="0 0 6986 1276" xmlns="http://www.w3.org/2000/svg"><path d="M315 998Q240 998 181.0 971.5Q122 945 88.0 890.5Q54 836 54 752V733H118V752Q118 849 173.5 895.5Q229 942 315 942Q402 942 449.0 901.5Q496 861 496 798Q496 756 475.5 730.5Q455 705 418.5 689.5Q382 674 334 662L270 646Q213 631 168.0 608.5Q123 586 97.0 549.5Q71 513 71 456Q71 399 100.5 357.0Q130 315 182.0 292.5Q234 270 303 270Q372 270 427.5 294.0Q483 318 515.5 364.5Q548 411 548 481V528H484V481Q484 426 460.0 392.0Q436 358 395.0 342.0Q354 326 303 326Q230 326 182.5 359.5Q135 393 135 456Q135 498 154.5 523.0Q174 548 209.5 563.0Q245 578 293 590L357 606Q412 619 458.0 640.5Q504 662 532.0 699.5Q560 737 560 798Q560 859 529.5 904.0Q499 949 444.0 973.5Q389 998 315 998ZM704 1184V498H762V587H774Q795 547 839.5 515.5Q884 484 964 484Q1029 484 1082.0 514.5Q1135 545 1166.5 601.0Q1198 657 1198 735V747Q1198 824 1167.0 880.5Q1136 937 1083.0 967.5Q1030 998 964 998Q911 998 873.5 983.5Q836 969 812.5 946.0Q789 923 776 899H764V1184ZM950 944Q1033 944 1084.5 891.0Q1136 838 1136 745V737Q1136 644 1084.5 591.0Q1033 538 950 538Q868 538 816.0 591.0Q764 644 764 737V745Q764 838 816.0 891.0Q868 944 950 944ZM1499 998Q1448 998 1406.5 980.5Q1365 963 1341.0 929.0Q1317 895 1317 847Q1317 798 1341.0 766.0Q1365 734 1406.0 718.0Q1447 702 1497 702H1675V663Q1675 604 1641.0 571.0Q1607 538 1542 538Q1478 538 1440.5 569.5Q1403 601 1390 654L1332 637Q1344 594 1370.0 559.5Q1396 525 1439.0 504.5Q1482 484 1542 484Q1634 484 1684.5 532.0Q1735 580 1735 666V902Q1735 932 1763 932H1810V984H1746Q1715 984 1697.0 965.5Q1679 947 1679 915V908H1669Q1656 930 1635.5 951.0Q1615 972 1582.0 985.0Q1549 998 1499 998ZM1503 944Q1580 944 1627.5 897.5Q1675 851 1675 766V754H1498Q1446 754 1411.5 776.5Q1377 799 1377 846Q1377 893 1412.5 918.5Q1448 944 1503 944ZM2131 998Q2060 998 2004.5 967.5Q1949 937 1917.0 880.0Q1885 823 1885 746V736Q1885 658 1917.0 601.5Q1949 545 2004.5 514.5Q2060 484 2131 484Q2201 484 2249.5 510.5Q2298 537 2325.5 579.5Q2353 622 2360 669L2301 681Q2296 642 2276.0 609.5Q2256 577 2220.0 557.5Q2184 538 2131 538Q2078 538 2036.0 562.5Q1994 587 1969.5 631.5Q1945 676 1945 737V745Q1945 806 1969.5 850.5Q1994 895 2036.0 919.5Q2078 944 2131 944Q2211 944 2253.0 902.5Q2295 861 2305 801L2364 813Q2355 860 2326.5 902.5Q2298 945 2249.5 971.5Q2201 998 2131 998ZM2736 998Q2661 998 2605.5 966.5Q2550 935 2519.0 878.0Q2488 821 2488 747V735Q2488 660 2519.0 603.5Q2550 547 2604.5 515.5Q2659 484 2729 484Q2797 484 2849.5 512.5Q2902 541 2932.0 594.5Q2962 648 2962 722V754H2548Q2551 845 2603.5 894.5Q2656 944 2736 944Q2804 944 2841.5 913.0Q2879 882 2899 837L2953 861Q2938 894 2911.5 925.5Q2885 957 2843.0 977.5Q2801 998 2736 998ZM2549 702H2901Q2897 623 2850.0 580.5Q2803 538 2729 538Q2656 538 2608.0 580.5Q2560 623 2549 702ZM3610 998Q3530 998 3470.0 965.5Q3410 933 3377.0 869.5Q3344 806 3344 713V555Q3344 415 3417.5 342.5Q3491 270 3614 270Q3736 270 3798.5 338.0Q3861 406 3861 519V524H3797V517Q3797 462 3778.0 419.5Q3759 377 3718.5 352.5Q3678 328 3614 328Q3517 328 3462.5 387.0Q3408 446 3408 553V715Q3408 822 3462.5 881.0Q3517 940 3614 940Q3709 940 3754.0 885.0Q3799 830 3799 737V717H3568V661H3861V984H3803V905H3791Q3779 929 3757.0 950.5Q3735 972 3699.5 985.0Q3664 998 3610 998ZM4027 984V498H4085V559H4097Q4111 526 4138.5 511.0Q4166 496 4215 496H4272V552H4208Q4153 552 4120.0 583.0Q4087 614 4087 680V984ZM4600 998Q4526 998 4470.5 966.5Q4415 935 4384.5 878.5Q4354 822 4354 747V735Q4354 660 4384.5 603.5Q4415 547 4470.5 515.5Q4526 484 4600 484Q4674 484 4729.5 515.5Q4785 547 4815.5 603.5Q4846 660 4846 735V747Q4846 822 4815.5 878.5Q4785 935 4729.5 966.5Q4674 998 4600 998ZM4600 944Q4686 944 4736.0 889.5Q4786 835 4786 745V737Q4786 647 4736.0 592.5Q4686 538 4600 538Q4515 538 4464.5 592.5Q4414 647 4414 737V745Q4414 835 4464.5 889.5Q4515 944 4600 944ZM5153 984Q5114 984 5094.5 964.0Q5075 944 5075 908V552H4919V498H5075V316H5135V498H5305V552H5135V900Q5135 930 5165 930H5279V984ZM5645 998Q5570 998 5514.5 966.5Q5459 935 5428.0 878.0Q5397 821 5397 747V735Q5397 660 5428.0 603.5Q5459 547 5513.5 515.5Q5568 484 5638 484Q5706 484 5758.5 512.5Q5811 541 5841.0 594.5Q5871 648 5871 722V754H5457Q5460 845 5512.5 894.5Q5565 944 5645 944Q5713 944 5750.5 913.0Q5788 882 5808 837L5862 861Q5847 894 5820.5 925.5Q5794 957 5752.0 977.5Q5710 998 5645 998ZM5458 702H5810Q5806 623 5759.0 580.5Q5712 538 5638 538Q5565 538 5517.0 580.5Q5469 623 5458 702ZM6212 998Q6124 998 6061.5 956.0Q5999 914 5985 817L6044 806Q6052 859 6076.5 889.5Q6101 920 6136.5 933.0Q6172 946 6212 946Q6272 946 6308.5 921.5Q6345 897 6345 854Q6345 810 6310.5 793.0Q6276 776 6219 766L6173 758Q6127 750 6090.0 733.5Q6053 717 6031.5 689.0Q6010 661 6010 619Q6010 556 6059.5 520.0Q6109 484 6191 484Q6274 484 6324.5 521.5Q6375 559 6388 630L6332 642Q6322 584 6284.5 560.0Q6247 536 6191 536Q6136 536 6103.0 557.0Q6070 578 6070 619Q6070 659 6100.0 677.5Q6130 696 6182 705L6228 713Q6278 721 6318.0 736.5Q6358 752 6381.5 780.0Q6405 808 6405 854Q6405 923 6353.0 960.5Q6301 998 6212 998ZM6547 984V284H6607V706H6619L6868 498H6956L6668 735L6964 984H6877L6619 765H6607V984Z" fill="currentColor" /></svg>