<svg viewBox="0 0 2635.0 957.0" xmlns="http://www.w3.org/2000/svg"><path d="M132.0 364.0Q76.0 345.0 49.0 307.0Q22.0 269.0 22.0 203.0Q22.0 111.0 92.0 55.5Q162.0 0.0 234.5 0.0Q307.0 0.0 362.5 32.5Q418.0 65.0 418.0 121.0Q418.0 155.0 397.0 173.0Q376.0 191.0 346.5 191.0Q317.0 191.0 299.5 174.5Q282.0 158.0 282.0 143.5Q282.0 129.0 287.5 129.0Q293.0 129.0 297.0 135.5Q301.0 142.0 304.0 150.0Q312.0 171.0 338.5 171.0Q365.0 171.0 380.5 158.0Q396.0 145.0 396.0 121.0Q396.0 77.0 347.0 49.0Q298.0 21.0 236.0 21.0Q174.0 21.0 120.0 59.0Q66.0 97.0 66.0 155.0Q66.0 194.0 93.5 219.5Q121.0 245.0 155.5 256.0Q190.0 267.0 245.5 282.0Q301.0 297.0 332.0 311.0Q440.0 359.0 440.0 484.0Q440.0 547.0 416.5 595.0Q393.0 643.0 357.0 668.0Q286.0 716.0 214.0 716.0Q148.0 716.0 78.0 675.0Q44.0 655.0 22.0 619.0Q0.0 583.0 0.0 534.5Q0.0 486.0 26.5 463.5Q53.0 441.0 73.5 441.0Q94.0 441.0 109.0 450.0Q124.0 459.0 124.0 470.0Q124.0 481.0 119.0 481.0Q114.0 481.0 111.5 478.0Q109.0 475.0 107.0 471.0Q100.0 461.0 74.5 461.0Q49.0 461.0 33.5 482.5Q18.0 504.0 18.0 537.0Q18.0 609.0 79.0 652.5Q140.0 696.0 210.0 696.0Q306.0 696.0 363.0 631.0Q396.0 592.0 396.0 531.0Q396.0 470.0 354.5 439.5Q313.0 409.0 238.0 391.5Q163.0 374.0 132.0 364.0ZM640.0 244.0V301.0Q729.0 235.0 796.0 235.0Q855.0 235.0 911.0 283.0Q941.0 308.0 960.0 358.5Q979.0 409.0 979.0 477.0Q979.0 591.0 925.5 654.0Q872.0 717.0 781.0 717.0Q725.0 717.0 685.5 694.5Q646.0 672.0 640.0 628.0V957.0H540.0V244.0ZM879.0 464.0Q879.0 376.0 843.5 317.5Q808.0 259.0 763.0 259.0Q718.0 259.0 640.0 324.0V598.0Q643.0 573.0 657.0 554.0Q681.0 521.0 703.0 521.0Q711.0 521.0 711.0 531.0Q711.0 536.0 693.0 548.0Q659.0 572.0 659.0 609.5Q659.0 647.0 694.5 672.0Q730.0 697.0 769.0 697.0Q879.0 697.0 879.0 464.0ZM1178.0 245.0V708.0H1078.0V245.0ZM1090.5 150.5Q1075.0 135.0 1075.0 113.0Q1075.0 91.0 1090.5 75.5Q1106.0 60.0 1128.0 60.0Q1150.0 60.0 1165.5 75.5Q1181.0 91.0 1181.0 113.0Q1181.0 135.0 1165.5 150.5Q1150.0 166.0 1128.0 166.0Q1106.0 166.0 1090.5 150.5ZM1634.0 282.0Q1634.0 293.0 1625.5 299.0Q1617.0 305.0 1604.0 305.0Q1591.0 305.0 1583.0 297.5Q1575.0 290.0 1572.5 281.0Q1570.0 272.0 1560.0 264.5Q1550.0 257.0 1532.0 257.0Q1488.0 257.0 1450.0 321.0Q1412.0 385.0 1406.0 466.0V707.0H1306.0V244.0H1406.0V362.0Q1430.0 304.0 1468.5 265.5Q1507.0 227.0 1546.0 227.0Q1585.0 227.0 1609.5 240.5Q1634.0 254.0 1634.0 282.0ZM1828.0 717.0Q1756.0 717.0 1700.5 676.5Q1645.0 636.0 1645.0 564.0Q1645.0 522.0 1665.5 491.0Q1686.0 460.0 1718.0 445.0Q1777.0 415.0 1833.0 415.0Q1889.0 415.0 1960.0 445.0Q1959.0 329.0 1931.5 290.5Q1904.0 252.0 1847.0 252.0Q1790.0 252.0 1748.5 273.0Q1707.0 294.0 1707.0 329.0Q1707.0 341.0 1696.5 341.0Q1686.0 341.0 1686.0 330.0Q1686.0 288.0 1732.5 260.5Q1779.0 233.0 1870.0 233.0Q2060.0 233.0 2060.0 457.0V707.0H1960.0V628.0Q1953.0 667.0 1915.0 692.0Q1877.0 717.0 1828.0 717.0ZM1916.0 530.0Q1952.0 555.0 1960.0 599.0V463.0Q1888.0 434.0 1842.5 434.0Q1797.0 434.0 1771.0 472.0Q1745.0 510.0 1745.0 565.0Q1745.0 620.0 1766.5 658.5Q1788.0 697.0 1831.5 697.0Q1875.0 697.0 1908.0 674.5Q1941.0 652.0 1941.0 621.0Q1941.0 567.0 1905.0 547.0Q1890.0 538.0 1890.0 530.0Q1890.0 522.0 1897.0 522.0Q1904.0 522.0 1916.0 530.0ZM2626.0 588.0Q2635.0 588.0 2635.0 600.0Q2634.0 644.0 2599.5 678.0Q2565.0 712.0 2526.5 712.0Q2488.0 712.0 2457.0 691.0Q2426.0 670.0 2407.0 633.0L2345.0 512.0Q2272.0 560.0 2232.0 606.0Q2192.0 652.0 2190.0 707.0H2170.0Q2170.0 641.0 2210.0 596.0Q2250.0 551.0 2336.0 494.0L2279.0 381.0Q2227.0 279.0 2193.0 279.0Q2156.0 279.0 2140.0 342.0Q2135.0 364.0 2133.0 365.0Q2124.0 365.0 2124.0 353.5Q2124.0 342.0 2133.5 318.0Q2143.0 294.0 2171.0 267.5Q2199.0 241.0 2235.0 241.0Q2271.0 241.0 2304.5 266.5Q2338.0 292.0 2360.0 337.0L2416.0 448.0Q2489.0 401.0 2526.5 352.5Q2564.0 304.0 2567.0 244.0H2587.0Q2587.0 314.0 2550.0 361.5Q2513.0 409.0 2426.0 466.0L2513.0 638.0Q2532.0 674.0 2566.0 674.0Q2588.0 674.0 2601.5 653.5Q2615.0 633.0 2620.0 611.0Z" fill="currentColor" /></svg>