<svg viewBox="0 0 2661 1074" xmlns="http://www.w3.org/2000/svg"><path d="M15 724Q0 724 0 698Q0 681 9 677Q19 670 36.5 661.0Q54 652 79 641Q96 636 127 626Q175 606 211 575Q226 564 252 534Q260 521 260 504Q260 481 250.5 467.5Q241 454 227 445L199 427Q192 421 181.0 412.0Q170 403 156 392Q144 387 123 369Q104 356 85 316Q71 287 64.0 266.0Q57 245 57 224Q57 177 84 146Q102 124 123.5 100.0Q145 76 170 49Q208 17 251 7Q278 0 305 0Q316 0 316 20Q316 50 300 50Q279 50 255 56Q202 70 154 125Q147 133 134.5 147.5Q122 162 105 182Q91 208 91 216Q91 225 96.0 243.0Q101 261 110 280Q125 311 142 328L172 346Q182 354 192.5 363.0Q203 372 215 382Q230 392 245.0 402.5Q260 413 274 431Q291 454 291 493Q291 531 273 563Q260 585 225 616Q203 636 180.5 650.5Q158 665 135 675L85 690L20 723ZM491 992Q470 992 458 964Q451 943 449 920Q443 713 530 546Q521 550 461 596Q410 636 392 653Q376 672 342 672Q324 672 311.0 652.5Q298 633 301 615Q304 589 322.0 558.5Q340 528 366.5 497.5Q393 467 423.5 443.5Q454 420 482 410Q493 406 503.0 404.0Q513 402 523 402Q566 402 566 432Q566 443 556 443Q550 443 546 439Q526 425 513 425Q498 425 469 442Q446 456 424.0 477.0Q402 498 382 524Q363 549 352.0 568.5Q341 588 339 603Q338 607 338 613Q338 629 351 629Q367 629 411 600Q516 530 557 476Q560 472 564.5 463.5Q569 455 576 442Q587 418 599 418Q607 418 612 426H614Q622 426 622 435Q622 443 616 457Q615 475 600 496Q592 510 580.5 532.0Q569 554 554 583Q483 746 483 920Q483 957 501 957Q519 957 550 926Q554 922 557 922Q564 922 564 934Q564 946 557 953Q521 992 491 992ZM847 681Q825 682 813 655Q811 650 808.0 638.0Q805 626 800 607Q796 582 787 587Q771 612 741 642Q703 680 684 680Q663 680 648 648Q635 623 635 600Q635 523 655 465Q660 453 670 453Q679 453 687.0 462.0Q695 471 695 482Q695 488 687 506Q668 543 668 589Q668 639 687 639Q696 639 731 610Q793 557 820 472Q825 460 836 460Q854 460 854 475Q854 485 851.5 497.0Q849 509 844 524Q840 539 838.0 551.0Q836 563 836 573Q836 580 837.0 589.5Q838 599 840 610Q845 640 851 645Q851 645 861.5 639.5Q872 634 885.5 627.5Q899 621 908.5 615.5Q918 610 918 610Q928 610 928 618Q928 626 911.5 641.0Q895 656 876.0 668.0Q857 680 847 681ZM1192 693Q1187 693 1183 689Q1156 661 1155 607Q1155 603 1156.0 597.5Q1157 592 1157 585L1158 564V561Q1158 543 1145 548Q1125 562 1091.5 588.5Q1058 615 1011 653Q991 672 960 672Q942 672 929.5 652.5Q917 633 920 615Q923 589 941.0 558.5Q959 528 985.5 497.5Q1012 467 1042.5 443.5Q1073 420 1101 410Q1112 406 1122.0 404.0Q1132 402 1142 402Q1185 402 1185 432Q1185 442 1177 442Q1174 442 1171.0 441.5Q1168 441 1165 439Q1147 424 1132 424Q1117 424 1088 442Q1065 456 1043.0 477.0Q1021 498 1001 524Q982 549 971.0 568.5Q960 588 958 603Q957 607 957 613Q957 629 970 629Q986 629 1030 600Q1135 530 1176 476Q1186 463 1194 441Q1199 427 1215 427Q1233 427 1233 447Q1233 463 1218 487Q1194 560 1194 588Q1196 631 1215 657Q1218 660 1218 665Q1218 674 1209.0 683.5Q1200 693 1192 693ZM1334 674Q1324 674 1321.0 650.5Q1318 627 1318 602Q1318 586 1318.5 572.5Q1319 559 1319 552Q1319 542 1320.0 526.5Q1321 511 1323 491Q1326 450 1326 429Q1326 419 1325.0 409.5Q1324 400 1324 392V388Q1324 376 1337 376Q1347 376 1348 388Q1350 399 1351.0 433.0Q1352 467 1353 523Q1353 538 1359 538Q1366 538 1380 515Q1409 467 1443 434Q1468 411 1489 411Q1514 411 1532 433Q1538 440 1538 448Q1538 461 1527 461Q1523 461 1518 458L1517 459Q1498 445 1492 445Q1468 445 1447 471Q1374 561 1357 653Q1353 674 1334 674ZM1651 702Q1607 702 1579.5 675.0Q1552 648 1552 602Q1552 592 1553.5 582.0Q1555 572 1557 562Q1568 519 1618 470Q1674 417 1715 417Q1749 417 1747 455Q1746 504 1693 551Q1670 570 1645.5 586.0Q1621 602 1594 602H1593Q1596 667 1660 667Q1681 667 1707 657Q1709 656 1713 656Q1726 656 1726 669Q1726 678 1717 683Q1689 702 1651 702ZM1620 555Q1651 548 1673 529Q1712 496 1712 466V464Q1712 457 1707.0 453.0Q1702 449 1700 451Q1669 451 1634 496Q1629 503 1622.0 514.5Q1615 526 1607 542Q1606 544 1606 546Q1606 555 1620 555ZM2039 454Q2032 448 2032 435Q2032 418 2046 406L2083 374Q2097 365 2117.5 349.0Q2138 333 2166 311Q2181 298 2195.0 284.5Q2209 271 2218 252Q2225 238 2227.0 230.0Q2229 222 2229 218Q2229 212 2224.0 203.5Q2219 195 2217 189Q2210 180 2198 176Q2177 170 2172 167Q2165 163 2153.5 156.5Q2142 150 2127 141Q2110 134 2085.5 122.5Q2061 111 2030 95Q2025 89 2016.0 81.5Q2007 74 1995 64Q1991 60 1991 51Q1991 40 1997.0 29.5Q2003 19 2010 19Q2014 19 2017 22L2018 23Q2027 31 2046 48Q2055 54 2066.0 59.5Q2077 65 2090 70Q2098 74 2110.0 80.0Q2122 86 2138 95Q2146 99 2157.5 105.5Q2169 112 2185 122L2210 130Q2219 133 2227.0 138.5Q2235 144 2240 153Q2263 182 2263 218Q2263 250 2244 282Q2228 310 2184 351Q2165 370 2139 387Q2117 401 2106.5 408.0Q2096 415 2086.5 424.0Q2077 433 2055 453Q2047 460 2039 454ZM1980 748Q1974 748 1970 741Q1955 708 1955 663Q1955 647 1958 616Q1959 601 1959.5 590.0Q1960 579 1960 572Q1960 550 1962.0 527.5Q1964 505 1967 481L1978 394Q1982 366 1988.0 320.5Q1994 275 2001 212Q2005 178 2007 151Q2008 126 2025 126Q2044 126 2044 153Q2042 163 2038.5 178.5Q2035 194 2031 216L2012 397Q2009 424 2004.0 466.0Q1999 508 1995 567L1992 618Q1991 632 1990.5 642.0Q1990 652 1990 657Q1990 686 2001 708Q2003 714 2003 718Q2003 729 1995.5 738.5Q1988 748 1980 748ZM2252 702Q2208 702 2180.5 675.0Q2153 648 2153 602Q2153 592 2154.5 582.0Q2156 572 2158 562Q2169 519 2219 470Q2275 417 2316 417Q2350 417 2348 455Q2347 504 2294 551Q2271 570 2246.5 586.0Q2222 602 2195 602H2194Q2197 667 2261 667Q2282 667 2308 657Q2310 656 2314 656Q2327 656 2327 669Q2327 678 2318 683Q2290 702 2252 702ZM2221 555Q2252 548 2274 529Q2313 496 2313 466V464Q2313 457 2308.0 453.0Q2303 449 2301 451Q2270 451 2235 496Q2230 503 2223.0 514.5Q2216 526 2208 542Q2207 544 2207 546Q2207 555 2221 555ZM2380 1074Q2316 1074 2316 982Q2316 925 2356 858Q2373 830 2393.0 804.0Q2413 778 2438 755L2546 651Q2547 630 2547.5 616.5Q2548 603 2548 596Q2536 610 2501 627Q2462 646 2430 646Q2408 646 2395.5 629.5Q2383 613 2383 590Q2383 556 2400.5 521.0Q2418 486 2450 449Q2513 375 2576 375Q2591 375 2591 391Q2591 407 2576 407Q2525 407 2480 453Q2440 494 2418 555Q2414 564 2414 575Q2414 612 2444 612Q2452 612 2459 609Q2556 579 2579 451Q2582 437 2596 437Q2609 437 2609 448Q2609 450 2608.5 452.5Q2608 455 2607 458Q2604 468 2600.5 488.0Q2597 508 2594.0 530.0Q2591 552 2589.0 569.5Q2587 587 2587 593Q2587 605 2597 605Q2603 605 2607 601Q2616 596 2636 582Q2646 575 2653 575Q2661 575 2661 587Q2661 598 2651 602Q2637 609 2619.5 621.5Q2602 634 2582 651Q2577 703 2572.5 741.0Q2568 779 2563 805Q2545 908 2506 978Q2454 1074 2380 1074ZM2372 1042Q2504 1042 2538 732Q2538 729 2538.5 726.0Q2539 723 2539 721Q2539 702 2530 702Q2523 702 2511 714Q2501 724 2490.5 733.0Q2480 742 2463 758Q2414 804 2379 863Q2336 931 2336 983Q2336 1042 2372 1042Z" fill="currentColor" /></svg>