<svg viewBox="0 0 3406 1200" xmlns="http://www.w3.org/2000/svg"><path d="M169 504Q169 436 205.0 375.0Q241 314 301.5 277.0Q362 240 431 240Q461 240 484.0 246.0Q507 252 546 265Q579 278 604.5 284.5Q630 291 660 291Q726 291 792 257Q762 287 724.0 304.0Q686 321 644 321Q616 321 591.5 314.5Q567 308 532 295Q496 282 472.5 276.0Q449 270 423 270Q367 270 317.5 303.0Q268 336 238.5 388.0Q209 440 209 495Q209 545 240.0 574.5Q271 604 329 604Q392 604 446 563Q398 634 308 634Q244 634 206.5 599.0Q169 564 169 504ZM658 618Q658 711 602.5 787.5Q547 864 454 910Q481 949 502 995Q471 947 443 915Q345 960 235 960Q151 960 86.0 941.5Q21 923 -5 892Q-11 875 -11 855Q-11 796 31.5 760.5Q74 725 146 725Q233 725 307.0 769.0Q381 813 437 885Q519 845 568.5 776.0Q618 707 618 624Q618 563 578.0 533.0Q538 503 465 503Q423 503 387.0 517.5Q351 532 316 562Q370 476 482 476Q564 476 611.0 512.0Q658 548 658 618ZM423 892Q363 828 291.0 791.5Q219 755 139 755Q87 755 56.0 792.5Q25 830 25 893Q49 910 106.0 920.0Q163 930 242 930Q336 930 423 892ZM729 939 830 531Q831 528 831 523Q831 515 822 515Q811 515 791.5 524.5Q772 534 738 556Q771 520 803.5 498.0Q836 476 858 476Q874 476 874 491Q874 501 870 516L851 594Q940 470 1029 470Q1059 470 1075.5 482.0Q1092 494 1092 518Q1092 542 1079.0 562.0Q1066 582 1046 582Q1029 582 1025 566Q1037 565 1045.0 555.5Q1053 546 1053 530Q1053 502 1017 502Q977 502 930.0 542.5Q883 583 834 662L765 939Q763 947 756.5 951.5Q750 956 742 956Q734 956 730.5 951.5Q727 947 729 939ZM1221 321Q1221 299 1239.0 283.0Q1257 267 1279 267Q1295 267 1305.0 276.5Q1315 286 1315 301Q1315 323 1297.0 339.0Q1279 355 1257 355Q1241 355 1231.0 345.5Q1221 336 1221 321ZM1099 941Q1099 931 1103 916L1200 529Q1201 526 1201 521Q1201 513 1192 513Q1170 513 1107 554Q1140 518 1172.5 496.0Q1205 474 1227 474Q1236 474 1240.0 477.0Q1244 480 1244 487Q1244 494 1239 514L1143 901Q1142 904 1142 909Q1142 917 1151 917Q1173 917 1235 876Q1203 911 1170.0 933.5Q1137 956 1115 956Q1099 956 1099 941ZM1369 633Q1369 586 1394.0 548.5Q1419 511 1460.0 490.5Q1501 470 1548 470Q1600 470 1635.5 494.5Q1671 519 1686 562Q1638 500 1555 500Q1487 500 1446.0 536.0Q1405 572 1405 632Q1405 677 1442.5 702.0Q1480 727 1553 732Q1524 740 1497 740Q1439 740 1404.0 711.0Q1369 682 1369 633ZM1291 875Q1291 838 1320.0 810.0Q1349 782 1389 782Q1417 782 1433.0 796.0Q1449 810 1449 833Q1449 848 1442 865Q1430 811 1386 811Q1360 811 1344.0 828.5Q1328 846 1328 869Q1328 898 1360.0 914.0Q1392 930 1444 930Q1522 930 1567.5 889.5Q1613 849 1613 781Q1613 690 1466 681Q1496 673 1522 673Q1579 673 1614.0 701.5Q1649 730 1649 781Q1649 835 1621.5 875.5Q1594 916 1546.5 938.0Q1499 960 1438 960Q1372 960 1331.5 937.5Q1291 915 1291 875ZM2076 909Q2076 917 2085 917Q2096 917 2115.5 907.5Q2135 898 2169 876Q2136 912 2103.5 934.0Q2071 956 2049 956Q2041 956 2037.5 952.5Q2034 949 2034 941Q2034 932 2037 916L2057 835Q2023 890 1970.0 925.0Q1917 960 1872 960Q1837 960 1812.5 940.0Q1788 920 1768 883Q1758 846 1758 810Q1758 723 1794.5 644.5Q1831 566 1896.5 518.0Q1962 470 2043 470Q2132 470 2201 550Q2117 500 2038 500Q1968 500 1912.0 546.5Q1856 593 1824.5 667.0Q1793 741 1793 821Q1793 856 1798 891Q1816 911 1832.5 920.5Q1849 930 1871 930Q1921 930 1979.0 883.0Q2037 836 2076 759L2122 576Q2124 568 2130.0 563.5Q2136 559 2144 559Q2152 559 2156.0 563.5Q2160 568 2158 576L2077 901Q2076 904 2076 909ZM2724 518Q2724 544 2704.0 562.5Q2684 581 2653 585Q2668 573 2678.5 557.0Q2689 541 2689 524Q2689 500 2653 500Q2626 500 2603.0 516.0Q2580 532 2538 578L2436 689Q2461 789 2505.0 893.0Q2549 997 2629 1128Q2535 1013 2482.5 913.5Q2430 814 2406 721L2311 825L2282 939Q2280 947 2274.0 951.5Q2268 956 2260 956Q2252 956 2248.0 951.5Q2244 947 2246 939L2419 247Q2420 244 2420 238Q2420 231 2412 231Q2390 231 2327 272Q2360 236 2392.5 214.0Q2425 192 2447 192Q2456 192 2460.0 195.0Q2464 198 2464 205Q2464 212 2459 232L2325 769L2513 562Q2559 511 2592.5 490.5Q2626 470 2660 470Q2690 470 2707.0 483.0Q2724 496 2724 518ZM3046 901Q3045 904 3045 909Q3045 917 3054 917Q3077 917 3138 876Q3106 911 3073.0 933.5Q3040 956 3018 956Q3010 956 3006.5 952.5Q3003 949 3003 941Q3003 932 3006 916L3026 835Q2992 889 2937.0 924.5Q2882 960 2837 960Q2802 960 2777.5 940.0Q2753 920 2733 883Q2723 846 2723 810Q2723 722 2758.0 643.5Q2793 565 2852.0 517.5Q2911 470 2978 470Q3014 470 3038.0 482.5Q3062 495 3078 521Q3030 500 2978 500Q2916 500 2865.5 548.0Q2815 596 2786.5 670.5Q2758 745 2758 821Q2758 856 2763 891Q2781 911 2798.0 920.5Q2815 930 2837 930Q2869 930 2907.5 909.0Q2946 888 2982.5 849.0Q3019 810 3045 759L3173 247Q3174 244 3174 239Q3174 231 3165 231Q3143 231 3081 272Q3113 237 3146.0 214.5Q3179 192 3201 192Q3217 192 3217 207Q3217 217 3213 232ZM3348 321Q3348 299 3366.0 283.0Q3384 267 3406 267Q3422 267 3432.0 276.5Q3442 286 3442 301Q3442 323 3424.0 339.0Q3406 355 3384 355Q3368 355 3358.0 345.5Q3348 336 3348 321ZM3226 941Q3226 931 3230 916L3327 529Q3328 526 3328 521Q3328 513 3319 513Q3297 513 3234 554Q3267 518 3299.5 496.0Q3332 474 3354 474Q3363 474 3367.0 477.0Q3371 480 3371 487Q3371 494 3366 514L3270 901Q3269 904 3269 909Q3269 917 3278 917Q3300 917 3362 876Q3330 911 3297.0 933.5Q3264 956 3242 956Q3226 956 3226 941Z" fill="currentColor" /></svg>