<svg viewBox="0 0 4408 1250" xmlns="http://www.w3.org/2000/svg"><path d="M210 960Q156 960 111.5 932.5Q67 905 40.5 859.5Q14 814 14 759V713Q14 708 19 708H131Q135 708 135 713V759Q135 792 157.0 815.5Q179 839 210 839Q241 839 263.0 815.0Q285 791 285 759Q285 722 237 695Q221 686 187.0 667.0Q153 648 123 631Q68 599 41.5 550.5Q15 502 15 441Q15 385 42.0 340.5Q69 296 113.5 270.0Q158 244 210 244Q263 244 307.5 270.5Q352 297 378.5 341.5Q405 386 405 441V523Q405 527 401 527H289Q285 527 285 523L284 441Q284 406 262.0 384.0Q240 362 210 362Q179 362 157.0 385.5Q135 409 135 441Q135 474 149.0 496.0Q163 518 200 538Q205 541 219.5 548.5Q234 556 251.0 565.5Q268 575 281.5 582.0Q295 589 298 591Q348 619 377.0 659.5Q406 700 406 759Q406 816 379.5 861.5Q353 907 308.5 933.5Q264 960 210 960ZM571 950Q567 950 567 945V375H437Q432 375 432 370L433 258Q433 254 437 254H817Q822 254 822 258V370Q822 375 818 375H687L688 945Q688 950 684 950ZM801 945 925 258Q926 254 930 254H1075Q1079 254 1080 258L1199 945Q1200 950 1195 950H1084Q1080 950 1079 945L1068 872H932L921 945Q920 950 916 950H805Q801 950 801 945ZM952 765H1048L1007 484L1001 447L997 484ZM1230 945 1354 258Q1355 254 1359 254H1504Q1508 254 1509 258L1628 945Q1629 950 1624 950H1513Q1509 950 1508 945L1497 872H1361L1350 945Q1349 950 1345 950H1234Q1230 950 1230 945ZM1381 765H1477L1436 484L1430 447L1426 484ZM1743 950Q1739 950 1739 945V375H1609Q1604 375 1604 370L1605 258Q1605 254 1609 254H1989Q1994 254 1994 258V370Q1994 375 1990 375H1859L1860 945Q1860 950 1856 950ZM2067 950Q2063 950 2063 945L2064 259Q2064 254 2069 254H2180Q2185 254 2185 259L2184 827H2390Q2395 827 2395 832V945Q2395 950 2390 950ZM2465 950Q2460 950 2460 945L2461 258Q2461 254 2465 254H2577Q2581 254 2581 258L2582 945Q2582 950 2578 950ZM2854 960Q2799 960 2754.5 932.5Q2710 905 2684.0 859.0Q2658 813 2658 756L2659 444Q2659 389 2684.5 343.5Q2710 298 2754.5 270.5Q2799 243 2854 243Q2909 243 2953.0 270.0Q2997 297 3023.0 342.5Q3049 388 3049 444V490Q3049 494 3045 494H2933Q2929 494 2929 490V444Q2929 411 2907.5 387.0Q2886 363 2854 363Q2818 363 2799.0 387.5Q2780 412 2780 444V756Q2780 793 2801.5 816.0Q2823 839 2854 839Q2886 839 2907.5 813.5Q2929 788 2929 756V710Q2929 706 2933 706H3046Q3050 706 3050 710V756Q3050 813 3023.5 859.0Q2997 905 2953.0 932.5Q2909 960 2854 960ZM3127 950Q3123 950 3123 945L3124 258Q3124 254 3129 254H3240Q3245 254 3245 258L3244 530H3394V258Q3394 254 3398 254H3509Q3514 254 3514 258L3516 945Q3516 950 3511 950H3399Q3394 950 3394 945V651H3244V945Q3244 950 3240 950ZM3602 950Q3598 950 3598 945L3599 258Q3599 254 3603 254H3924Q3928 254 3928 259V371Q3928 375 3924 375H3719V531H3924Q3928 531 3928 535L3929 648Q3929 652 3925 652H3719V827H3925Q3929 827 3929 832V946Q3929 950 3925 950ZM4182 960Q4128 960 4083.5 932.5Q4039 905 4012.5 859.5Q3986 814 3986 759V713Q3986 708 3991 708H4103Q4107 708 4107 713V759Q4107 792 4129.0 815.5Q4151 839 4182 839Q4213 839 4235.0 815.0Q4257 791 4257 759Q4257 722 4209 695Q4193 686 4159.0 667.0Q4125 648 4095 631Q4040 599 4013.5 550.5Q3987 502 3987 441Q3987 385 4014.0 340.5Q4041 296 4085.5 270.0Q4130 244 4182 244Q4235 244 4279.5 270.5Q4324 297 4350.5 341.5Q4377 386 4377 441V523Q4377 527 4373 527H4261Q4257 527 4257 523L4256 441Q4256 406 4234.0 384.0Q4212 362 4182 362Q4151 362 4129.0 385.5Q4107 409 4107 441Q4107 474 4121.0 496.0Q4135 518 4172 538Q4177 541 4191.5 548.5Q4206 556 4223.0 565.5Q4240 575 4253.5 582.0Q4267 589 4270 591Q4320 619 4349.0 659.5Q4378 700 4378 759Q4378 816 4351.5 861.5Q4325 907 4280.5 933.5Q4236 960 4182 960Z" fill="currentColor" /></svg>