<svg viewBox="0 0 9287 1300" xmlns="http://www.w3.org/2000/svg"><path d="M123 777Q127 830 155.0 867.5Q183 905 229.5 924.5Q276 944 334 944Q423 944 475.5 908.0Q528 872 528 811Q528 771 502.0 748.5Q476 726 433.0 714.0Q390 702 339.0 693.5Q288 685 237.0 674.0Q186 663 143.0 643.0Q100 623 74.0 586.5Q48 550 48 490Q48 434 81.5 387.0Q115 340 177.0 312.0Q239 284 324 284Q399 284 460.5 314.0Q522 344 558.5 397.5Q595 451 595 522H513Q509 442 462.5 399.0Q416 356 319 356Q223 356 174.5 392.0Q126 428 126 490Q126 533 152.0 557.0Q178 581 221.0 593.5Q264 606 315.0 613.5Q366 621 417.0 631.5Q468 642 511.0 661.5Q554 681 580.0 716.5Q606 752 606 811Q606 909 532.5 962.5Q459 1016 328 1016Q247 1016 182.5 984.5Q118 953 80.5 899.0Q43 845 40 777ZM668 440H963V502H668ZM772 300H845V868Q845 905 861.5 921.5Q878 938 909 938H979V1000H908Q840 1000 806.0 962.0Q772 924 772 868ZM1409 680H1482V1000H1409ZM1260 424Q1371 424 1426.5 493.0Q1482 562 1482 680H1409Q1409 619 1392.5 577.5Q1376 536 1343.0 514.0Q1310 492 1260 492Q1184 492 1144.0 533.5Q1104 575 1104 637H1025Q1025 583 1052.0 534.5Q1079 486 1131.5 455.0Q1184 424 1260 424ZM1413 658 1434 719Q1274 700 1192.0 735.5Q1110 771 1110 837Q1110 895 1145.0 925.5Q1180 956 1251 956Q1304 956 1339.0 930.5Q1374 905 1391.5 864.5Q1409 824 1409 779L1436 830Q1425 886 1401.5 928.0Q1378 970 1337.0 993.0Q1296 1016 1232 1016Q1177 1016 1132.0 995.5Q1087 975 1060.5 936.0Q1034 897 1034 841Q1034 787 1056.0 751.5Q1078 716 1116.0 694.5Q1154 673 1202.5 663.5Q1251 654 1305.0 653.5Q1359 653 1413 658ZM2110 765Q2105 837 2072.5 894.0Q2040 951 1983.0 983.5Q1926 1016 1847 1016Q1760 1016 1696.0 978.5Q1632 941 1596.5 874.0Q1561 807 1561 721Q1561 634 1596.5 567.0Q1632 500 1696.0 462.0Q1760 424 1847 424Q1923 424 1980.0 457.5Q2037 491 2070.0 544.5Q2103 598 2108 660H2032Q2027 618 2006.0 579.5Q1985 541 1946.0 516.5Q1907 492 1847 492Q1781 492 1734.0 521.5Q1687 551 1662.0 602.5Q1637 654 1637 721Q1637 787 1662.0 838.5Q1687 890 1734.0 919.0Q1781 948 1847 948Q1912 948 1952.0 922.0Q1992 896 2011.5 854.0Q2031 812 2036 765ZM2193 250H2266V1000H2193ZM2334 681 2398 645 2629 1000H2539ZM2596 440 2222 874 2231 757 2504 440ZM2984 777Q2988 830 3016.0 867.5Q3044 905 3090.5 924.5Q3137 944 3195 944Q3284 944 3336.5 908.0Q3389 872 3389 811Q3389 771 3363.0 748.5Q3337 726 3294.0 714.0Q3251 702 3200.0 693.5Q3149 685 3098.0 674.0Q3047 663 3004.0 643.0Q2961 623 2935.0 586.5Q2909 550 2909 490Q2909 434 2942.5 387.0Q2976 340 3038.0 312.0Q3100 284 3185 284Q3260 284 3321.5 314.0Q3383 344 3419.5 397.5Q3456 451 3456 522H3374Q3370 442 3323.5 399.0Q3277 356 3180 356Q3084 356 3035.5 392.0Q2987 428 2987 490Q2987 533 3013.0 557.0Q3039 581 3082.0 593.5Q3125 606 3176.0 613.5Q3227 621 3278.0 631.5Q3329 642 3372.0 661.5Q3415 681 3441.0 716.5Q3467 752 3467 811Q3467 909 3393.5 962.5Q3320 1016 3189 1016Q3108 1016 3043.5 984.5Q2979 953 2941.5 899.0Q2904 845 2901 777ZM3926 680H3999V1000H3926ZM3777 424Q3888 424 3943.5 493.0Q3999 562 3999 680H3926Q3926 619 3909.5 577.5Q3893 536 3860.0 514.0Q3827 492 3777 492Q3701 492 3661.0 533.5Q3621 575 3621 637H3542Q3542 583 3569.0 534.5Q3596 486 3648.5 455.0Q3701 424 3777 424ZM3930 658 3951 719Q3791 700 3709.0 735.5Q3627 771 3627 837Q3627 895 3662.0 925.5Q3697 956 3768 956Q3821 956 3856.0 930.5Q3891 905 3908.5 864.5Q3926 824 3926 779L3953 830Q3942 886 3918.5 928.0Q3895 970 3854.0 993.0Q3813 1016 3749 1016Q3694 1016 3649.0 995.5Q3604 975 3577.5 936.0Q3551 897 3551 841Q3551 787 3573.0 751.5Q3595 716 3633.0 694.5Q3671 673 3719.5 663.5Q3768 654 3822.0 653.5Q3876 653 3930 658ZM4099 440H4172V538Q4185 509 4209.0 483.0Q4233 457 4271.5 440.5Q4310 424 4364 424Q4418 424 4461.5 446.0Q4505 468 4530.0 518.5Q4555 569 4555 655V1000H4482V668Q4482 610 4469.0 570.0Q4456 530 4426.5 509.0Q4397 488 4349 488Q4299 488 4259.0 517.5Q4219 547 4195.5 598.0Q4172 649 4172 716V1000H4099ZM4705 823Q4710 885 4757.5 919.5Q4805 954 4874 954Q4942 954 4982.0 927.0Q5022 900 5022 846Q5022 815 5001.5 798.0Q4981 781 4947.0 772.0Q4913 763 4873.0 757.0Q4833 751 4792.5 742.5Q4752 734 4718.0 717.5Q4684 701 4663.5 671.5Q4643 642 4643 594Q4643 549 4670.0 510.0Q4697 471 4747.5 447.5Q4798 424 4866 424Q4927 424 4976.5 448.5Q5026 473 5055.5 516.0Q5085 559 5085 616H5022Q5018 554 4972.5 520.0Q4927 486 4862 486Q4789 486 4752.0 516.5Q4715 547 4715 594Q4715 627 4735.5 645.0Q4756 663 4790.0 672.5Q4824 682 4864.5 688.0Q4905 694 4945.0 702.5Q4985 711 5019.0 726.5Q5053 742 5073.5 770.5Q5094 799 5094 846Q5094 899 5067.0 937.0Q5040 975 4990.0 995.5Q4940 1016 4869 1016Q4803 1016 4751.0 990.5Q4699 965 4668.5 921.5Q4638 878 4636 823ZM5391 300H5466V1000H5391ZM5865 300H5940V1000H5865ZM5426 615H5918V681H5426ZM6313 1016Q6226 1016 6162.0 978.5Q6098 941 6062.5 874.0Q6027 807 6027 721Q6027 634 6062.5 567.0Q6098 500 6162.0 462.0Q6226 424 6313 424Q6370 424 6419.0 445.5Q6468 467 6503.5 508.5Q6539 550 6556.5 609.5Q6574 669 6569 745H6069V679H6545L6502 715Q6502 649 6479.0 599.0Q6456 549 6414.0 520.5Q6372 492 6313 492Q6247 492 6200.0 521.5Q6153 551 6128.0 602.5Q6103 654 6103 721Q6103 787 6128.0 838.5Q6153 890 6200.0 919.0Q6247 948 6313 948Q6390 948 6432.0 911.5Q6474 875 6490 823H6567Q6553 881 6519.0 924.0Q6485 967 6433.0 991.5Q6381 1016 6313 1016ZM7024 680H7097V1000H7024ZM6875 424Q6986 424 7041.5 493.0Q7097 562 7097 680H7024Q7024 619 7007.5 577.5Q6991 536 6958.0 514.0Q6925 492 6875 492Q6799 492 6759.0 533.5Q6719 575 6719 637H6640Q6640 583 6667.0 534.5Q6694 486 6746.5 455.0Q6799 424 6875 424ZM7028 658 7049 719Q6889 700 6807.0 735.5Q6725 771 6725 837Q6725 895 6760.0 925.5Q6795 956 6866 956Q6919 956 6954.0 930.5Q6989 905 7006.5 864.5Q7024 824 7024 779L7051 830Q7040 886 7016.5 928.0Q6993 970 6952.0 993.0Q6911 1016 6847 1016Q6792 1016 6747.0 995.5Q6702 975 6675.5 936.0Q6649 897 6649 841Q6649 787 6671.0 751.5Q6693 716 6731.0 694.5Q6769 673 6817.5 663.5Q6866 654 6920.0 653.5Q6974 653 7028 658ZM7428 1016Q7354 1016 7297.0 978.5Q7240 941 7208.0 874.0Q7176 807 7176 721Q7176 634 7208.0 567.0Q7240 500 7297.0 462.0Q7354 424 7428 424Q7501 424 7551.0 458.0Q7601 492 7628 550V892Q7603 947 7553.0 981.5Q7503 1016 7428 1016ZM7433 948Q7498 948 7541.0 919.0Q7584 890 7606.0 838.5Q7628 787 7628 721Q7628 654 7606.0 602.5Q7584 551 7541.0 521.5Q7498 492 7433 492Q7380 492 7339.0 519.0Q7298 546 7275.0 597.5Q7252 649 7252 721Q7252 792 7275.0 843.0Q7298 894 7339.0 921.0Q7380 948 7433 948ZM7628 1000V250H7701V1000ZM7807 250H7880V1000H7807ZM7994 440H8067V1000H7994ZM7986 250H8075V343H7986ZM8179 440H8252V538Q8265 509 8289.0 483.0Q8313 457 8351.5 440.5Q8390 424 8444 424Q8498 424 8541.5 446.0Q8585 468 8610.0 518.5Q8635 569 8635 655V1000H8562V668Q8562 610 8549.0 570.0Q8536 530 8506.5 509.0Q8477 488 8429 488Q8379 488 8339.0 517.5Q8299 547 8275.5 598.0Q8252 649 8252 716V1000H8179ZM9000 1016Q8913 1016 8849.0 978.5Q8785 941 8749.5 874.0Q8714 807 8714 721Q8714 634 8749.5 567.0Q8785 500 8849.0 462.0Q8913 424 9000 424Q9057 424 9106.0 445.5Q9155 467 9190.5 508.5Q9226 550 9243.5 609.5Q9261 669 9256 745H8756V679H9232L9189 715Q9189 649 9166.0 599.0Q9143 549 9101.0 520.5Q9059 492 9000 492Q8934 492 8887.0 521.5Q8840 551 8815.0 602.5Q8790 654 8790 721Q8790 787 8815.0 838.5Q8840 890 8887.0 919.0Q8934 948 9000 948Q9077 948 9119.0 911.5Q9161 875 9177 823H9254Q9240 881 9206.0 924.0Q9172 967 9120.0 991.5Q9068 1016 9000 1016Z" fill="currentColor" /></svg>