<svg viewBox="0 0 4495 705" xmlns="http://www.w3.org/2000/svg"><path d="M233 703V665Q253 665 281.0 653.0Q309 641 336.5 618.5Q364 596 382.5 564.0Q401 532 401 491Q401 449 379.5 424.0Q358 399 324.5 385.0Q291 371 253.5 364.0Q216 357 183.0 352.0Q150 347 131 340Q94 326 66.5 308.0Q39 290 23.5 261.0Q8 232 8 186Q8 135 28.0 99.5Q48 64 77.5 42.0Q107 20 137.5 10.0Q168 0 188 0V38Q176 38 153.0 46.0Q130 54 106.0 72.0Q82 90 65.0 119.5Q48 149 48 192Q48 228 67.5 251.5Q87 275 118.0 288.5Q149 302 185.0 310.0Q221 318 255.0 323.0Q289 328 313 335Q348 344 377.0 361.5Q406 379 423.5 411.0Q441 443 441 497Q441 549 413.0 596.0Q385 643 338.0 673.0Q291 703 233 703ZM188 703Q145 703 110.5 686.0Q76 669 51.5 643.0Q27 617 13.5 590.0Q0 563 0 542L37 529Q47 576 72.5 605.5Q98 635 129.5 649.0Q161 663 188 665ZM375 159Q364 116 339.0 90.0Q314 64 285.5 51.5Q257 39 233 38V0Q274 0 306.5 16.5Q339 33 361.5 57.5Q384 82 397.0 106.5Q410 131 413 147ZM708 700Q647 699 613.5 678.5Q580 658 567.0 620.5Q554 583 554 532V235H491V196H554V0H594V196H657V235H594V541Q594 598 618.5 630.0Q643 662 713 662H714L723 700ZM773 700V184H813V700ZM793 144Q782 144 773.5 136.0Q765 128 765 117Q765 106 773.5 98.0Q782 90 793 90Q804 90 812.0 98.0Q820 106 820 117Q820 128 812.0 136.0Q804 144 793 144ZM1061 700Q1016 700 985.0 685.0Q954 670 936.0 647.0Q918 624 910.0 600.5Q902 577 902 559V328Q902 306 912.0 281.0Q922 256 942.0 234.0Q962 212 992.0 198.0Q1022 184 1062 184V222Q1027 222 1000.0 240.0Q973 258 958.0 283.0Q943 308 943 331V559Q943 579 958.0 603.5Q973 628 999.5 645.0Q1026 662 1061 662ZM1105 701V663Q1133 663 1159.0 648.5Q1185 634 1203.0 609.5Q1221 585 1224 555L1225 541L1264 556Q1264 595 1241.0 628.0Q1218 661 1181.5 681.0Q1145 701 1105 701ZM1214 342 1213 326Q1210 290 1192.5 267.5Q1175 245 1151.5 234.0Q1128 223 1106 223V184Q1147 184 1180.0 203.5Q1213 223 1233.0 255.5Q1253 288 1253 328ZM1672 700 1396 443 1672 186H1732L1456 443L1732 700ZM1334 700V2H1374V700ZM2458 700 2034 24V0H2073L2479 647V700ZM2034 700V104H2042L2074 156V700ZM2471 564 2439 511V0H2479V564ZM2723 701Q2681 701 2650.0 686.0Q2619 671 2599.0 648.0Q2579 625 2569.0 601.0Q2559 577 2559 559V324Q2559 306 2569.0 282.0Q2579 258 2599.5 235.5Q2620 213 2651.0 198.5Q2682 184 2723 184V222Q2683 222 2655.5 241.0Q2628 260 2613.5 286.5Q2599 313 2599 337V546Q2599 567 2615.0 594.5Q2631 622 2659.0 642.5Q2687 663 2723 663ZM2764 701V663Q2802 663 2828.5 643.5Q2855 624 2869.0 597.0Q2883 570 2883 548V337Q2883 314 2869.0 287.5Q2855 261 2828.5 241.5Q2802 222 2764 222V184Q2805 184 2834.5 198.5Q2864 213 2884.0 235.5Q2904 258 2913.5 282.0Q2923 306 2923 324V559Q2923 577 2913.5 601.5Q2904 626 2884.0 648.5Q2864 671 2834.5 686.0Q2805 701 2764 701ZM3326 701V663H3422Q3483 663 3524.0 647.5Q3565 632 3589.0 606.5Q3613 581 3623.0 551.5Q3633 522 3633 495Q3633 441 3601.0 404.0Q3569 367 3487 367H3326V329H3487Q3543 329 3573.5 312.5Q3604 296 3616.5 267.0Q3629 238 3629 203Q3629 168 3611.5 129.5Q3594 91 3556.0 64.5Q3518 38 3455 38H3326V0H3457Q3514 0 3554.5 18.5Q3595 37 3620.0 67.5Q3645 98 3657.0 133.5Q3669 169 3669 203Q3669 255 3647.5 291.5Q3626 328 3600 348Q3619 363 3635.5 381.0Q3652 399 3662.5 426.0Q3673 453 3673 495Q3673 555 3645.0 601.5Q3617 648 3569.5 674.5Q3522 701 3461 701ZM3241 700V0H3281V700ZM3763 700V184H3803V700ZM3783 144Q3772 144 3763.5 136.0Q3755 128 3755 117Q3755 106 3763.5 98.0Q3772 90 3783 90Q3794 90 3802.0 98.0Q3810 106 3810 117Q3810 128 3802.0 136.0Q3794 144 3783 144ZM3894 700V2H3934V700ZM4018 700V2H4058V700ZM4323 705V668Q4350 668 4381.0 654.5Q4412 641 4433.5 614.0Q4455 587 4455 547Q4455 521 4435.0 504.0Q4415 487 4381.5 476.0Q4348 465 4306.5 456.5Q4265 448 4223 438Q4208 434 4184.5 424.5Q4161 415 4142.5 394.0Q4124 373 4124 335Q4124 295 4139.0 266.0Q4154 237 4178.0 218.5Q4202 200 4229.0 191.5Q4256 183 4280 183V221Q4257 221 4230.0 235.0Q4203 249 4183.5 274.5Q4164 300 4164 335Q4164 365 4190.0 380.0Q4216 395 4265.0 405.5Q4314 416 4383 434Q4395 437 4413.5 443.5Q4432 450 4451.0 463.0Q4470 476 4482.5 496.5Q4495 517 4495 547Q4495 595 4472.0 630.5Q4449 666 4410.0 685.5Q4371 705 4323 705ZM4282 705Q4234 705 4197.5 683.5Q4161 662 4140.5 629.0Q4120 596 4120 564L4159 557Q4159 589 4179.0 614.0Q4199 639 4227.5 653.0Q4256 667 4282 667ZM4447 332Q4447 295 4424.5 270.5Q4402 246 4372.5 234.0Q4343 222 4322 222V183Q4371 183 4407.5 205.0Q4444 227 4465.0 259.5Q4486 292 4486 326Z" /></svg>