<svg viewBox="0 0 2564 800" xmlns="http://www.w3.org/2000/svg"><path d="M196 633Q176 633 153.0 630.0Q130 627 108.5 622.5Q87 618 69.0 612.5Q51 607 41 601Q22 590 11.0 569.0Q0 548 0 528Q0 509 9.0 498.5Q18 488 29 488Q38 488 69 513Q98 538 127.5 550.0Q157 562 201 562Q246 562 273.0 539.0Q300 516 300 473Q300 452 292.5 437.0Q285 422 268.0 409.0Q251 396 224.5 382.0Q198 368 159 350Q128 335 101.0 319.5Q74 304 53.5 283.5Q33 263 21.5 235.5Q10 208 10 170Q10 102 64.0 59.5Q118 17 221 17Q284 17 326 35Q346 44 359.0 64.5Q372 85 372 102Q372 144 344 144Q337 144 292 114Q246 84 201 84Q156 84 128.0 105.0Q100 126 100 164Q100 183 106.5 197.0Q113 211 128.5 224.0Q144 237 170.5 251.0Q197 265 237 283Q269 297 297.5 313.0Q326 329 348.0 350.0Q370 371 383.0 399.5Q396 428 396 467Q396 485 392.0 501.5Q388 518 381 534Q356 585 304.5 609.0Q253 633 199 633ZM655 626H639Q576 626 552.0 578.0Q528 530 528 430Q528 332 517 294Q512 279 495 262Q478 245 478 232V226Q478 216 498 202Q508 195 513.5 191.5Q519 188 522.0 182.5Q525 177 527.5 168.0Q530 159 534 141Q544 105 554.5 90.5Q565 76 583 76Q601 76 608.0 86.5Q615 97 623 129Q627 145 630.5 155.5Q634 166 640.0 173.0Q646 180 656.0 185.5Q666 191 684 197Q719 209 719 227Q719 243 682 257Q647 269 636 289Q618 325 618 418Q618 512 634 531Q650 552 686 557Q722 561 722 584Q722 601 701.5 613.5Q681 626 655 626ZM885 447Q806 272 806 254Q806 233 821.0 224.5Q836 216 867 216Q883 216 892.0 220.0Q901 224 906.0 233.0Q911 242 914.5 258.0Q918 274 923 298Q928 322 938.0 357.5Q948 393 959.5 426.5Q971 460 982.5 483.5Q994 507 1001 507Q1005 507 1013 496Q1024 482 1036.5 453.5Q1049 425 1060.0 391.5Q1071 358 1079.0 322.0Q1087 286 1089 257Q1091 231 1098.5 218.0Q1106 205 1135 205H1146Q1185 205 1185 235Q1185 254 1170 292Q1154 331 1147 356Q1077 593 1043 660Q1011 727 972.0 763.5Q933 800 892 800Q852 800 852 774Q852 757 889 742Q927 727 949.5 701.0Q972 675 972 630Q972 607 938 547Q921 517 907.5 492.0Q894 467 885 447ZM1282 34Q1282 0 1338 0H1345Q1386 0 1390 33V174L1388 223V264L1387 272V337L1388 392Q1389 397 1389 431Q1389 463 1397.0 498.5Q1405 534 1418 554Q1431 574 1431 590Q1431 604 1413.5 615.5Q1396 627 1362 627H1347Q1286 627 1286 579Q1286 577 1287.0 571.5Q1288 566 1290 556Q1292 547 1292.5 530.0Q1293 513 1294 487L1296 384L1297 376V327L1298 319V237L1299 221V140Q1299 91 1290 66Q1282 39 1282 34ZM1600 627H1578Q1560 627 1547.0 616.5Q1534 606 1534 593Q1534 584 1542 558Q1549 537 1549 517L1551 484V315Q1549 290 1544 276L1540 267Q1531 244 1531 243V234Q1531 209 1583 209H1598Q1614 209 1622.0 212.0Q1630 215 1633.5 225.0Q1637 235 1637.5 255.0Q1638 275 1638 309V407L1641 468Q1641 519 1662 555Q1670 571 1670 587Q1670 605 1650.0 616.0Q1630 627 1600 627ZM1593 24H1608Q1626 24 1639.5 35.0Q1653 46 1653 68V78Q1653 96 1641.5 110.0Q1630 124 1611 124L1603 125H1589Q1585 124 1576 124Q1568 124 1557.5 113.5Q1547 103 1547 90L1545 76V74L1547 60Q1547 50 1558.0 37.0Q1569 24 1593 24ZM1771 309Q1771 283 1782.5 261.5Q1794 240 1815.0 224.5Q1836 209 1865.0 200.5Q1894 192 1928 192Q1942 192 1964.5 193.5Q1987 195 2008.0 200.5Q2029 206 2044.0 218.5Q2059 231 2059 252Q2059 288 2036 288Q2028 288 1992 270Q1956 253 1924 253Q1891 253 1874.5 268.0Q1858 283 1858 307Q1858 319 1863.0 327.0Q1868 335 1879.5 342.5Q1891 350 1910.5 358.0Q1930 366 1960 378Q2019 402 2049.5 429.0Q2080 456 2080 509Q2080 536 2068.5 558.5Q2057 581 2036.0 598.0Q2015 615 1986.0 624.5Q1957 634 1922 634Q1805 634 1776 588Q1767 573 1767 562Q1767 525 1790 525Q1797 525 1841 547Q1883 571 1918 571Q1953 571 1972.5 556.5Q1992 542 1992 516Q1992 503 1987.0 493.5Q1982 484 1970.0 475.5Q1958 467 1938.5 458.5Q1919 450 1890 438Q1867 429 1845.5 418.0Q1824 407 1807.5 392.5Q1791 378 1781.0 358.0Q1771 338 1771 309ZM2564 566Q2564 614 2510 614Q2486 614 2474.5 605.5Q2463 597 2463 577V567L2464 557V534L2460 430Q2460 386 2455.5 356.5Q2451 327 2441.0 310.0Q2431 293 2415.5 286.0Q2400 279 2378 279Q2355 279 2332.5 293.5Q2310 308 2297 338Q2284 365 2284 494Q2284 512 2287 538Q2288 549 2288 558Q2289 562 2289 565Q2289 589 2274.5 604.0Q2260 619 2230 619H2219Q2174 619 2174 584V573Q2174 567 2179 549L2185 525Q2193 487 2193 376V213L2195 117L2196 104V78Q2196 72 2196.0 66.5Q2196 61 2194 56L2192 47Q2189 33 2189 31Q2189 11 2213 11H2224Q2246 11 2258.0 17.5Q2270 24 2276.0 37.5Q2282 51 2283.5 71.5Q2285 92 2286 119Q2288 147 2288.5 167.5Q2289 188 2291 202Q2296 230 2309 230Q2312 230 2316.0 229.0Q2320 228 2325 226L2335 222Q2379 203 2415 203Q2454 203 2479.5 216.0Q2505 229 2519.5 257.5Q2534 286 2540.0 331.5Q2546 377 2546 442Q2546 490 2555 523Q2564 557 2564 566Z" /></svg>