<svg viewBox="0 0 3838 502.0" xmlns="http://www.w3.org/2000/svg"><path d="M89 87.0Q82 101.0 82 117.0Q82 148.0 105.5 168.5Q129 189.0 169 203.0Q254 235.0 298.0 269.5Q342 304.0 342 359.0Q342 460.0 239 493.0Q208 502.0 179 502.0Q65 502.0 0 445.0L15 355.0L66 357.0Q66 410.0 80 434.0Q107 461.0 171 461.0Q211 461.0 239.5 438.0Q268 415.0 268 380.0Q268 326.0 189 287.0Q164 275.0 135.0 264.0Q106 253.0 83 240.0Q9 199.0 9 129.0Q9 40.0 113 10.0Q148 0.0 190.5 0.0Q233 0.0 272.5 9.0Q312 18.0 321 33.0Q321 36.0 321 41.0L319 54.0Q315 93.0 310 128.0L267 124.0Q267 77.0 248.5 59.0Q230 41.0 178 41.0Q110 41.0 89 87.0ZM625 143.0Q649 137.0 694.0 137.0Q739 137.0 755 143.0V399.0Q755 425.0 761 455.0H815V484.0Q775 493.0 736.0 493.0Q697 493.0 687.5 487.0Q678 481.0 678 462.0V451.0L651 469.0Q609 497.0 550 497.0Q452 497.0 452 389.0V211.0Q452 193.0 448 179.0Q436 175.0 420 175.0H392V143.0Q416 137.0 461.5 137.0Q507 137.0 523 143.0V371.0Q523 415.0 530 429.0Q544 455.0 584.5 455.0Q625 455.0 669 427.0Q678 421.0 678 420.0Q684 387.0 684 311.0V211.0Q684 192.0 680 179.0Q668 175.0 652 175.0H625ZM852 143.0Q876 137.0 921.0 137.0Q966 137.0 984 143.0V224.0Q1015 176.0 1031 162.0Q1064 133.0 1098.0 133.0Q1132 133.0 1152 143.0L1143 236.0H1113L1105 187.0Q1087 185.0 1077.0 185.0Q1067 185.0 1050.0 194.0Q1033 203.0 1019 219.0Q987 257.0 987 299.0V411.0Q987 443.0 993.5 452.0Q1000 461.0 1027 465.0L1030 493.0Q982 489.0 948.0 489.0Q914 489.0 872 493.0L874 465.0Q904 461.0 909.5 454.0Q915 447.0 915 420.0V203.0Q915 192.0 913 180.0Q901 175.0 890 175.0H852ZM1267 395.0Q1267 455.0 1334 455.0Q1367 455.0 1414 420.0Q1419 375.0 1419 325.0H1366Q1318 325.0 1292.5 343.0Q1267 361.0 1267 395.0ZM1490 399.0Q1490 435.0 1496 455.0H1549V483.0Q1511 496.0 1440 493.0Q1422 491.0 1417.5 480.0Q1413 469.0 1413 457.0L1412 451.0Q1361 497.0 1304 497.0Q1227 497.0 1203 441.0Q1195 423.0 1195 398.0Q1195 287.0 1370 287.0H1419V264.0Q1419 214.0 1408.0 197.0Q1397 180.0 1384.5 174.5Q1372 169.0 1344 169.0Q1292 169.0 1251 236.0L1204 207.0Q1208 179.0 1249.5 156.0Q1291 133.0 1351 133.0Q1490 133.0 1490 261.0ZM1581 143.0Q1599 137.0 1662.0 137.0Q1725 137.0 1757 143.0L1763 175.0H1745Q1727 175.0 1718 180.0Q1719 187.0 1722.5 194.0Q1726 201.0 1751.5 274.0Q1777 347.0 1816 437.0L1901 209.0Q1904 201.0 1906.0 194.0Q1908 187.0 1910 180.0Q1902 175.0 1884 175.0H1866L1869 143.0Q1888 137.0 1942.0 137.0Q1996 137.0 2018 143.0V175.0H1999Q1982 175.0 1969 180.0Q1957 194.0 1913.0 303.0Q1869 412.0 1859 434.0L1832 492.0H1795Q1778 492.0 1773.5 489.0Q1769 486.0 1766 482.0L1651 209.0L1644 194.0Q1640 187.0 1635 180.0Q1623 175.0 1605 175.0H1586ZM2125 395.0Q2125 455.0 2192 455.0Q2225 455.0 2272 420.0Q2277 375.0 2277 325.0H2224Q2176 325.0 2150.5 343.0Q2125 361.0 2125 395.0ZM2348 399.0Q2348 435.0 2354 455.0H2407V483.0Q2369 496.0 2298 493.0Q2280 491.0 2275.5 480.0Q2271 469.0 2271 457.0L2270 451.0Q2219 497.0 2162 497.0Q2085 497.0 2061 441.0Q2053 423.0 2053 398.0Q2053 287.0 2228 287.0H2277V264.0Q2277 214.0 2266.0 197.0Q2255 180.0 2242.5 174.5Q2230 169.0 2202 169.0Q2150 169.0 2109 236.0L2062 207.0Q2066 179.0 2107.5 156.0Q2149 133.0 2209 133.0Q2348 133.0 2348 261.0ZM2459 143.0Q2483 137.0 2528.0 137.0Q2573 137.0 2591 143.0V224.0Q2622 176.0 2638 162.0Q2671 133.0 2705.0 133.0Q2739 133.0 2759 143.0L2750 236.0H2720L2712 187.0Q2694 185.0 2684.0 185.0Q2674 185.0 2657.0 194.0Q2640 203.0 2626 219.0Q2594 257.0 2594 299.0V411.0Q2594 443.0 2600.5 452.0Q2607 461.0 2634 465.0L2637 493.0Q2589 489.0 2555.0 489.0Q2521 489.0 2479 493.0L2481 465.0Q2511 461.0 2516.5 454.0Q2522 447.0 2522 420.0V203.0Q2522 192.0 2520 180.0Q2508 175.0 2497 175.0H2459ZM2874 395.0Q2874 455.0 2941 455.0Q2974 455.0 3021 420.0Q3026 375.0 3026 325.0H2973Q2925 325.0 2899.5 343.0Q2874 361.0 2874 395.0ZM3097 399.0Q3097 435.0 3103 455.0H3156V483.0Q3118 496.0 3047 493.0Q3029 491.0 3024.5 480.0Q3020 469.0 3020 457.0L3019 451.0Q2968 497.0 2911 497.0Q2834 497.0 2810 441.0Q2802 423.0 2802 398.0Q2802 287.0 2977 287.0H3026V264.0Q3026 214.0 3015.0 197.0Q3004 180.0 2991.5 174.5Q2979 169.0 2951 169.0Q2899 169.0 2858 236.0L2811 207.0Q2815 179.0 2856.5 156.0Q2898 133.0 2958 133.0Q3097 133.0 3097 261.0ZM3707 465.0 3709 395.0 3708 268.0Q3708 214.0 3699.5 199.0Q3691 184.0 3681.0 179.5Q3671 175.0 3654 175.0Q3608 175.0 3573 218.0Q3563 229.0 3559 239.0V410.0Q3559 440.0 3565.5 449.5Q3572 459.0 3603 465.0L3606 493.0Q3566 489.0 3522.5 489.0Q3479 489.0 3445 493.0L3446 465.0Q3474 461.0 3480.5 454.5Q3487 448.0 3487.5 441.5Q3488 435.0 3488 423.0V268.0Q3488 212.0 3479 198.0Q3466 175.0 3435.0 175.0Q3404 175.0 3375.5 196.0Q3347 217.0 3340 239.0V410.0Q3340 441.0 3346.0 450.5Q3352 460.0 3380 465.0L3382 493.0Q3344 489.0 3300.5 489.0Q3257 489.0 3225 493.0L3226 465.0Q3256 461.0 3262.0 452.5Q3268 444.0 3268 419.0V208.0Q3268 191.0 3265 180.0Q3253 175.0 3237 175.0H3204V143.0Q3228 137.0 3274.0 137.0Q3320 137.0 3338 143.0V186.0Q3397 133.0 3466.0 133.0Q3535 133.0 3554 193.0Q3578 166.0 3597 155.0Q3638 133.0 3685 133.0Q3781 133.0 3781 238.0V399.0Q3781 430.0 3786 455.0H3835L3838 485.0Q3802 493.0 3771.5 493.0Q3741 493.0 3729 491.0Q3707 488.0 3707 465.0Z" /></svg>