<svg viewBox="0 0 2272 1260" xmlns="http://www.w3.org/2000/svg"><path d="M253 990Q187 990 134.5 966.5Q82 943 49 901L68 880Q100 920 148.0 941.5Q196 963 254 963Q342 963 393.5 917.0Q445 871 445 796Q445 748 424.0 718.5Q403 689 369.0 672.0Q335 655 294.5 644.0Q254 633 213.0 622.0Q172 611 138.0 592.5Q104 574 83.0 542.5Q62 511 62 460Q62 402 89.0 359.5Q116 317 165.0 293.5Q214 270 280 270Q335 270 378.0 286.5Q421 303 449 334L430 355Q402 326 364.5 311.5Q327 297 279 297Q194 297 142.5 341.5Q91 386 91 457Q91 503 112.0 530.5Q133 558 167.0 573.5Q201 589 242.0 599.5Q283 610 324.0 621.5Q365 633 399.0 652.5Q433 672 454.0 705.0Q475 738 475 793Q475 854 447.0 898.5Q419 943 369.0 966.5Q319 990 253 990ZM862 990Q787 990 732.0 961.5Q677 933 647.0 879.5Q617 826 617 752V280H645V751Q645 848 704.0 905.0Q763 962 862 962Q962 962 1021.0 905.0Q1080 848 1080 751V280H1108V752Q1108 826 1078.0 879.5Q1048 933 993.0 961.5Q938 990 862 990ZM1455 990Q1389 990 1336.5 966.5Q1284 943 1251 901L1270 880Q1302 920 1350.0 941.5Q1398 963 1456 963Q1544 963 1595.5 917.0Q1647 871 1647 796Q1647 748 1626.0 718.5Q1605 689 1571.0 672.0Q1537 655 1496.5 644.0Q1456 633 1415.0 622.0Q1374 611 1340.0 592.5Q1306 574 1285.0 542.5Q1264 511 1264 460Q1264 402 1291.0 359.5Q1318 317 1367.0 293.5Q1416 270 1482 270Q1537 270 1580.0 286.5Q1623 303 1651 334L1632 355Q1604 326 1566.5 311.5Q1529 297 1481 297Q1396 297 1344.5 341.5Q1293 386 1293 457Q1293 503 1314.0 530.5Q1335 558 1369.0 573.5Q1403 589 1444.0 599.5Q1485 610 1526.0 621.5Q1567 633 1601.0 652.5Q1635 672 1656.0 705.0Q1677 738 1677 793Q1677 854 1649.0 898.5Q1621 943 1571.0 966.5Q1521 990 1455 990ZM1922 980Q1877 980 1848.0 950.5Q1819 921 1819 877V383Q1819 339 1848.0 309.5Q1877 280 1922 280H2217V308H1926Q1892 308 1870.0 330.5Q1848 353 1848 386V874Q1848 907 1870.0 929.5Q1892 952 1926 952H2217V980ZM1837 644V616H2196V644Z" fill="currentColor" /></svg>