<svg viewBox="0 0 14771 1976" xmlns="http://www.w3.org/2000/svg"><path d="M491 1581Q358 1581 235.0 1542.0Q112 1503 0 1422V1111H153L186 1340Q251 1380 327.0 1402.0Q403 1424 491 1424Q592 1424 661 1393Q804 1331 804 1183Q804 1117 772 1065Q740 1014 666.5 975.5Q593 937 466 908Q320 874 213 814Q2 695 2 481Q2 366 63 277Q123 187 231.0 135.0Q339 83 483 83Q636 83 753.5 129.5Q871 176 947 242V533H794L761 325Q716 289 649.0 265.0Q582 241 483 241Q401 241 335 270Q271 300 235.0 353.0Q199 406 199 478Q199 541 232 588Q292 677 534 737Q1001 853 1001 1181Q1001 1298 938 1388Q875 1479 760.5 1530.0Q646 1581 491 1581ZM1641 1581Q1465 1581 1366.0 1468.0Q1267 1355 1267 1116V633L1143 605V478H1464V1118Q1464 1291 1515.0 1356.0Q1566 1421 1674 1421Q1779 1421 1847.5 1378.5Q1916 1336 1951 1258V633L1806 605V478H2148V1406L2272 1434V1560H1971L1958 1400Q1907 1487 1826.5 1534.0Q1746 1581 1641 1581ZM3526 1560 3307 910 3255 736 3249 737 3198 910 2963 1560H2794L2509 619L2388 605V478H2835V605L2702 627L2851 1166L2885 1294H2891L2935 1166L3170 478H3336L3560 1164L3608 1316H3614L3661 1164L3812 626L3676 605V478H4113V605L3993 622L3713 1560ZM4583 1581Q4414 1581 4326.0 1498.5Q4238 1416 4238 1266Q4238 1162 4295 1086Q4351 1009 4458.0 967.0Q4565 925 4714 925H4907V819Q4907 721 4847.5 667.0Q4788 613 4680 613Q4612 613 4562.0 629.5Q4512 646 4471 675L4450 826H4298V578Q4445 458 4683 458Q4880 458 4992.0 552.0Q5104 646 5104 821V1342Q5104 1363 5104.5 1383.0Q5105 1403 5107 1423L5212 1434V1560H4929Q4912 1478 4908 1411Q4851 1484 4765.5 1532.5Q4680 1581 4583 1581ZM4612 1416Q4710 1416 4791.0 1369.0Q4872 1322 4907 1256V1060H4707Q4571 1060 4503.0 1125.0Q4435 1190 4435 1270Q4435 1416 4612 1416ZM5725 771V1406L5888 1434V1560H5365V1434L5528 1406V633L5365 605V478H5704L5718 639Q5772 553 5853.5 505.5Q5935 458 6039 458Q6214 458 6310.0 560.5Q6406 663 6406 877V1406L6569 1434V1560H6046V1434L6209 1406V881Q6209 738 6152.5 678.0Q6096 618 5980 618Q5895 618 5829.5 659.0Q5764 700 5725 771ZM7068 771V1406L7231 1434V1560H6708V1434L6871 1406V633L6708 605V478H7047L7061 639Q7115 553 7196.5 505.5Q7278 458 7382 458Q7557 458 7653.0 560.5Q7749 663 7749 877V1406L7912 1434V1560H7389V1434L7552 1406V881Q7552 738 7495.5 678.0Q7439 618 7323 618Q7238 618 7172.5 659.0Q7107 700 7068 771ZM8401 1581Q8232 1581 8144.0 1498.5Q8056 1416 8056 1266Q8056 1162 8113 1086Q8169 1009 8276.0 967.0Q8383 925 8532 925H8725V819Q8725 721 8665.5 667.0Q8606 613 8498 613Q8430 613 8380.0 629.5Q8330 646 8289 675L8268 826H8116V578Q8263 458 8501 458Q8698 458 8810.0 552.0Q8922 646 8922 821V1342Q8922 1363 8922.5 1383.0Q8923 1403 8925 1423L9030 1434V1560H8747Q8730 1478 8726 1411Q8669 1484 8583.5 1532.5Q8498 1581 8401 1581ZM8430 1416Q8528 1416 8609.0 1369.0Q8690 1322 8725 1256V1060H8525Q8389 1060 8321.0 1125.0Q8253 1190 8253 1270Q8253 1416 8430 1416ZM9503 1448V1821L9675 1849V1976H9153V1849L9306 1821V633L9143 605V478H9475L9493 610Q9604 458 9804 458Q9939 458 10033 530Q10128 603 10178.0 733.5Q10228 864 10228 1039V1060Q10228 1215 10178 1333Q10127 1450 10033.0 1515.5Q9939 1581 9807 1581Q9610 1581 9503 1448ZM9746 1427Q9886 1427 9958.0 1325.0Q10030 1223 10030 1060V1039Q10030 916 9998 820Q9966 725 9902.5 671.5Q9839 618 9744 618Q9660 618 9600.0 656.0Q9540 694 9503 760V1287Q9540 1354 9599.5 1390.5Q9659 1427 9746 1427ZM10715 761V1406L10878 1434V1560H10355V1434L10518 1406V155L10355 127V0H10715V622Q10771 544 10852.0 501.0Q10933 458 11032 458Q11206 458 11302.0 562.0Q11398 666 11398 882V1406L11561 1434V1560H11038V1434L11201 1406V880Q11201 618 10972 618Q10891 618 10824.5 656.5Q10758 695 10715 761ZM12171 1581Q11995 1581 11896.0 1468.0Q11797 1355 11797 1116V633L11673 605V478H11994V1118Q11994 1291 12045.0 1356.0Q12096 1421 12204 1421Q12309 1421 12377.5 1378.5Q12446 1336 12481 1258V633L12336 605V478H12678V1406L12802 1434V1560H12501L12488 1400Q12437 1487 12356.5 1534.0Q12276 1581 12171 1581ZM13300 759V1406L13463 1434V1560H12940V1434L13103 1406V633L12940 605V478H13280L13293 619Q13345 542 13427.0 500.0Q13509 458 13617 458Q13725 458 13802.5 508.0Q13880 558 13919 658Q13970 566 14054.0 512.0Q14138 458 14250 458Q14416 458 14512.0 571.5Q14608 685 14608 913V1406L14771 1434V1560H14247V1434L14410 1406V911Q14410 751 14355.0 684.5Q14300 618 14192 618Q14089 618 14026.5 690.5Q13964 763 13954 873V1406L14117 1434V1560H13594V1434L13757 1406V911Q13757 759 13700.5 688.5Q13644 618 13537 618Q13447 618 13389.0 655.0Q13331 692 13300 759Z" fill="currentColor" /></svg>