<svg viewBox="0 0 8261 1034.3846153846152" xmlns="http://www.w3.org/2000/svg"><path d="M0 415.38461538461536Q0 404.38461538461536 1.0 397.38461538461536Q2 390.38461538461536 10 381.38461538461536Q29 393.38461538461536 38.5 405.38461538461536Q48 417.38461538461536 54.0 427.88461538461536Q60 438.38461538461536 67.0 447.38461538461536Q74 456.38461538461536 90.0 463.38461538461536Q106 470.38461538461536 134.0 474.38461538461536Q162 478.38461538461536 210 478.38461538461536Q220 478.38461538461536 238.0 478.38461538461536Q256 478.38461538461536 277.5 475.88461538461536Q299 473.38461538461536 321.0 468.88461538461536Q343 464.38461538461536 361.0 455.88461538461536Q379 447.38461538461536 390.5 434.88461538461536Q402 422.38461538461536 402 404.38461538461536Q402 401.38461538461536 401.0 396.88461538461536Q400 392.38461538461536 400 391.38461538461536L352 342.38461538461536L30 254.38461538461536Q21 252.38461538461536 16.5 247.38461538461536Q12 242.38461538461536 10.0 236.38461538461536Q8 230.38461538461536 8 223.38461538461536V209.38461538461536Q8 182.38461538461536 26.5 162.38461538461536Q45 142.38461538461536 73.5 129.38461538461536Q102 116.38461538461536 137.5 107.88461538461536Q173 99.38461538461536 207.5 94.88461538461536Q242 90.38461538461536 271.5 89.38461538461536Q301 88.38461538461536 317 88.38461538461536H328Q335 88.38461538461536 343.5 88.38461538461536Q352 88.38461538461536 359 88.38461538461536H370Q380 91.38461538461536 381.0 98.88461538461536Q382 106.38461538461536 382 113.38461538461536Q382 127.38461538461536 363.5 133.88461538461536Q345 140.38461538461536 316.5 143.88461538461536Q288 147.38461538461536 252.0 150.38461538461536Q216 153.38461538461536 182.5 158.88461538461536Q149 164.38461538461536 121.0 175.38461538461536Q93 186.38461538461536 79 205.38461538461536L97 215.38461538461536L380 293.38461538461536Q397 298.38461538461536 412.0 311.88461538461536Q427 325.38461538461536 437.5 342.88461538461536Q448 360.38461538461536 454.0 379.88461538461536Q460 399.38461538461536 460 415.38461538461536Q460 439.38461538461536 449.0 457.88461538461536Q438 476.38461538461536 421.0 488.88461538461536Q404 501.38461538461536 382.0 508.88461538461536Q360 516.3846153846154 337.0 520.8846153846154Q314 525.3846153846154 291.5 526.8846153846154Q269 528.3846153846154 251 528.3846153846154Q232 528.3846153846154 205.5 527.8846153846154Q179 527.3846153846154 151.0 524.3846153846154Q123 521.3846153846154 96.0 514.8846153846154Q69 508.38461538461536 47.5 495.88461538461536Q26 483.38461538461536 13.0 464.38461538461536Q0 445.38461538461536 0 415.38461538461536ZM496 254.38461538461536Q496 241.38461538461536 503.5 228.38461538461536Q511 215.38461538461536 526 215.38461538461536Q545 215.38461538461536 552.5 230.38461538461536Q560 245.38461538461536 562.5 265.88461538461536Q565 286.38461538461536 564.0 307.88461538461536Q563 329.38461538461536 565 342.38461538461536Q565 349.38461538461536 567.5 365.88461538461536Q570 382.38461538461536 573.0 400.88461538461536Q576 419.38461538461536 579.0 436.38461538461536Q582 453.38461538461536 584 460.38461538461536Q585 460.38461538461536 591.5 461.38461538461536Q598 462.38461538461536 599 462.38461538461536Q618 462.38461538461536 631.0 450.88461538461536Q644 439.38461538461536 652.5 422.88461538461536Q661 406.38461538461536 667.5 386.38461538461536Q674 366.38461538461536 681.5 349.88461538461536Q689 333.38461538461536 699.5 322.38461538461536Q710 311.38461538461536 725 311.38461538461536Q746 311.38461538461536 760.5 323.38461538461536Q775 335.38461538461536 788.5 352.88461538461536Q802 370.38461538461536 813.5 390.88461538461536Q825 411.38461538461536 839.5 428.88461538461536Q854 446.38461538461536 871.0 458.38461538461536Q888 470.38461538461536 910 470.38461538461536Q911 470.38461538461536 917.5 469.38461538461536Q924 468.38461538461536 925 468.38461538461536Q934 455.38461538461536 943.0 430.38461538461536Q952 405.38461538461536 961.5 375.88461538461536Q971 346.38461538461536 980.5 316.38461538461536Q990 286.38461538461536 999.5 260.88461538461536Q1009 235.38461538461536 1019.0 220.38461538461536Q1029 205.38461538461536 1037 205.38461538461536Q1038 205.38461538461536 1038.5 205.38461538461536Q1039 205.38461538461536 1041 205.38461538461536H1042Q1044 206.38461538461536 1046.5 208.88461538461536Q1049 211.38461538461536 1052.5 214.88461538461536Q1056 218.38461538461536 1058.5 221.38461538461536Q1061 224.38461538461536 1062 225.38461538461536V227.38461538461536Q1062 228.38461538461536 1062.5 229.38461538461536Q1063 230.38461538461536 1063 230.38461538461536Q1063 230.38461538461536 1062.5 232.38461538461536Q1062 234.38461538461536 1062 235.38461538461536Q1059 243.38461538461536 1054.0 260.88461538461536Q1049 278.38461538461536 1042.0 300.38461538461536Q1035 322.38461538461536 1028.0 346.88461538461536Q1021 371.38461538461536 1014.0 394.38461538461536Q1007 417.38461538461536 1001.0 434.38461538461536Q995 451.38461538461536 993 460.38461538461536Q986 476.38461538461536 979 489.38461538461536Q973 500.38461538461536 966.5 509.38461538461536Q960 518.3846153846154 955 518.3846153846154H857Q845 518.3846153846154 832.5 509.38461538461536Q820 500.38461538461536 808.5 486.88461538461536Q797 473.38461538461536 785.5 456.88461538461536Q774 440.38461538461536 764.0 425.38461538461536Q754 410.38461538461536 745.0 398.38461538461536Q736 386.38461538461536 730 381.38461538461536Q709 394.38461538461536 697.0 409.38461538461536Q685 424.38461538461536 677.0 440.88461538461536Q669 457.38461538461536 662.0 472.88461538461536Q655 488.38461538461536 644.0 500.88461538461536Q633 513.3846153846154 615.5 520.3846153846154Q598 527.3846153846154 568 527.3846153846154Q558 527.3846153846154 548.5 509.38461538461536Q539 491.38461538461536 531.0 464.38461538461536Q523 437.38461538461536 516.5 404.38461538461536Q510 371.38461538461536 505.5 340.88461538461536Q501 310.38461538461536 498.5 287.38461538461536Q496 264.38461538461536 496 254.38461538461536ZM1388 478.38461538461536Q1372 478.38461538461536 1354.5 482.88461538461536Q1337 487.38461538461536 1320.0 493.38461538461536Q1303 499.38461538461536 1284.5 503.88461538461536Q1266 508.38461538461536 1247 508.38461538461536Q1218 508.38461538461536 1191.0 499.38461538461536Q1164 490.38461538461536 1143.5 472.38461538461536Q1123 454.38461538461536 1111.0 428.88461538461536Q1099 403.38461538461536 1099 371.38461538461536Q1099 343.38461538461536 1116.5 319.38461538461536Q1134 295.38461538461536 1160.0 279.38461538461536Q1186 263.38461538461536 1216.0 254.38461538461536Q1246 245.38461538461536 1270 245.38461538461536Q1281 245.38461538461536 1297.5 246.88461538461536Q1314 248.38461538461536 1333.5 251.88461538461536Q1353 255.38461538461536 1373.0 260.88461538461536Q1393 266.38461538461536 1409.5 275.38461538461536Q1426 284.38461538461536 1437.5 295.88461538461536Q1449 307.38461538461536 1451 322.38461538461536Q1451 327.38461538461536 1449.0 339.88461538461536Q1447 352.38461538461536 1446.0 366.38461538461536Q1445 380.38461538461536 1443.5 392.88461538461536Q1442 405.38461538461536 1441 411.38461538461536V417.38461538461536Q1441 439.38461538461536 1451.0 450.38461538461536Q1461 461.38461538461536 1475.5 465.88461538461536Q1490 470.38461538461536 1506 470.38461538461536H1538Q1553 470.38461538461536 1557.0 469.88461538461536Q1561 469.38461538461536 1562.5 469.38461538461536Q1564 469.38461538461536 1567.5 468.88461538461536Q1571 468.38461538461536 1587 468.38461538461536Q1600 468.38461538461536 1607.0 473.38461538461536Q1614 478.38461538461536 1614 494.38461538461536Q1614 511.38461538461536 1603.0 518.3846153846154Q1592 525.3846153846154 1577.0 527.8846153846154Q1562 530.3846153846154 1547.0 529.3846153846154Q1532 528.3846153846154 1524 528.3846153846154Q1501 528.3846153846154 1480.5 520.3846153846154Q1460 512.3846153846154 1443.0 502.88461538461536Q1426 493.38461538461536 1412.0 485.88461538461536Q1398 478.38461538461536 1388 478.38461538461536ZM1158 381.38461538461536Q1158 405.38461538461536 1168.5 419.88461538461536Q1179 434.38461538461536 1194.5 440.88461538461536Q1210 447.38461538461536 1229.0 448.88461538461536Q1248 450.38461538461536 1266 450.38461538461536Q1273 450.38461538461536 1289.5 449.38461538461536Q1306 448.38461538461536 1324.0 444.88461538461536Q1342 441.38461538461536 1356.5 435.38461538461536Q1371 429.38461538461536 1373 420.38461538461536L1393 342.38461538461536Q1395 334.38461538461536 1389.0 328.38461538461536Q1383 322.38461538461536 1372.5 318.38461538461536Q1362 314.38461538461536 1349.5 311.38461538461536Q1337 308.38461538461536 1325.0 306.38461538461536Q1313 304.38461538461536 1303.5 303.38461538461536Q1294 302.38461538461536 1292 302.38461538461536Q1274 302.38461538461536 1250.5 305.88461538461536Q1227 309.38461538461536 1206.5 317.88461538461536Q1186 326.38461538461536 1172.0 341.38461538461536Q1158 356.38461538461536 1158 381.38461538461536ZM1861 312.38461538461536Q1826 312.38461538461536 1799.5 324.88461538461536Q1773 337.38461538461536 1752.0 357.38461538461536Q1731 377.38461538461536 1717.0 399.88461538461536Q1703 422.38461538461536 1692.5 442.38461538461536Q1682 462.38461538461536 1676.5 475.38461538461536Q1671 488.38461538461536 1669 488.38461538461536Q1642 488.38461538461536 1631.0 474.38461538461536Q1620 460.38461538461536 1617.0 439.88461538461536Q1614 419.38461538461536 1616.5 396.88461538461536Q1619 374.38461538461536 1619 357.38461538461536V340.38461538461536Q1619 328.38461538461536 1619.5 315.38461538461536Q1620 302.38461538461536 1620 291.38461538461536V274.38461538461536Q1623 266.38461538461536 1628.0 265.38461538461536Q1633 264.38461538461536 1639 264.38461538461536Q1648 264.38461538461536 1654.0 274.88461538461536Q1660 285.38461538461536 1665.0 300.38461538461536Q1670 315.38461538461536 1673.0 329.88461538461536Q1676 344.38461538461536 1678 352.38461538461536Q1690 350.38461538461536 1700.0 342.38461538461536Q1710 334.38461538461536 1720.5 323.38461538461536Q1731 312.38461538461536 1743.0 300.38461538461536Q1755 288.38461538461536 1771.0 277.88461538461536Q1787 267.38461538461536 1808.5 260.38461538461536Q1830 253.38461538461536 1858 253.38461538461536Q1914 253.38461538461536 1950.0 277.88461538461536Q1986 302.38461538461536 2005.5 341.88461538461536Q2025 381.38461538461536 2032.0 430.88461538461536Q2039 480.38461538461536 2039 531.3846153846154Q2009 531.3846153846154 1992.5 521.8846153846154Q1976 512.3846153846154 1969.0 496.88461538461536Q1962 481.38461538461536 1961.0 461.88461538461536Q1960 442.38461538461536 1960.0 421.88461538461536Q1960 401.38461538461536 1957.5 381.38461538461536Q1955 361.38461538461536 1945.5 346.38461538461536Q1936 331.38461538461536 1916.5 321.88461538461536Q1897 312.38461538461536 1861 312.38461538461536ZM2184 360.38461538461536Q2179 360.38461538461536 2171.5 361.88461538461536Q2164 363.38461538461536 2164 371.38461538461536V507.38461538461536Q2164 508.38461538461536 2157.0 512.3846153846154Q2150 516.3846153846154 2146 518.3846153846154H2136Q2127 513.3846153846154 2120 511.38461538461536Q2115 507.38461538461536 2111.0 504.38461538461536Q2107 501.38461538461536 2107 498.38461538461536V381.38461538461536Q2105 381.38461538461536 2098.5 377.38461538461536Q2092 373.38461538461536 2085.5 368.38461538461536Q2079 363.38461538461536 2073.5 357.88461538461536Q2068 352.38461538461536 2068 347.38461538461536Q2068 335.38461538461536 2078.0 322.38461538461536Q2088 309.38461538461536 2097 303.38461538461536V289.38461538461536Q2097 278.38461538461536 2097.0 266.38461538461536Q2097 254.38461538461536 2097 244.38461538461536V230.38461538461536Q2097 201.38461538461536 2097.0 177.88461538461536Q2097 154.38461538461536 2095.0 132.88461538461536Q2093 111.38461538461536 2089.0 86.88461538461536Q2085 62.38461538461536 2077 31.38461538461536Q2077 27.38461538461536 2080.0 21.88461538461536Q2083 16.38461538461536 2087.0 10.884615384615358Q2091 5.384615384615358 2096.5 1.8846153846153584Q2102 -1.6153846153846416 2107 1.3846153846153584Q2118 6.384615384615358 2127.0 25.38461538461536Q2136 44.38461538461536 2142.0 71.38461538461536Q2148 98.38461538461536 2152.0 129.88461538461536Q2156 161.38461538461536 2158.5 189.88461538461536Q2161 218.38461538461536 2162.5 241.38461538461536Q2164 264.38461538461536 2164 274.38461538461536Q2180 261.38461538461536 2198.0 252.88461538461536Q2216 244.38461538461536 2234.5 236.38461538461536Q2253 228.38461538461536 2270.0 219.38461538461536Q2287 210.38461538461536 2301 196.38461538461536Q2307 190.38461538461536 2314.0 178.88461538461536Q2321 167.38461538461536 2328.0 155.88461538461536Q2335 144.38461538461536 2344.0 136.38461538461536Q2353 128.38461538461536 2365 128.38461538461536Q2371 128.38461538461536 2374.5 130.88461538461536Q2378 133.38461538461536 2379.0 137.88461538461536Q2380 142.38461538461536 2380 147.38461538461536V156.38461538461536Q2380 182.38461538461536 2366.0 203.38461538461536Q2352 224.38461538461536 2331.5 241.88461538461536Q2311 259.38461538461536 2287.0 272.88461538461536Q2263 286.38461538461536 2243 293.38461538461536Q2283 340.38461538461536 2319.0 372.38461538461536Q2355 404.38461538461536 2394.5 426.88461538461536Q2434 449.38461538461536 2482.0 463.88461538461536Q2530 478.38461538461536 2594 488.38461538461536Q2606 488.38461538461536 2610.5 493.38461538461536Q2615 498.38461538461536 2615 507.38461538461536Q2615 508.38461538461536 2614.0 512.8846153846154Q2613 517.3846153846154 2613 518.3846153846154Q2595 524.3846153846154 2581.0 526.3846153846154Q2567 528.3846153846154 2549 528.3846153846154Q2526 528.3846153846154 2500.0 526.3846153846154Q2474 524.3846153846154 2447.5 519.8846153846154Q2421 515.3846153846154 2396.5 507.88461538461536Q2372 500.38461538461536 2350 488.38461538461536Q2328 476.38461538461536 2310.0 455.38461538461536Q2292 434.38461538461536 2273.5 412.88461538461536Q2255 391.38461538461536 2233.5 375.88461538461536Q2212 360.38461538461536 2184 360.38461538461536ZM2545 865.3846153846154Q2545 853.3846153846154 2546.0 836.3846153846154Q2547 819.3846153846154 2552.5 803.3846153846154Q2558 787.3846153846154 2568.0 775.3846153846154Q2578 763.3846153846154 2594 761.3846153846154Q2594 762.3846153846154 2594.5 765.8846153846154Q2595 769.3846153846154 2595 771.3846153846154Q2595 785.3846153846154 2589.0 796.8846153846154Q2583 808.3846153846154 2583 825.3846153846154Q2583 853.3846153846154 2594.0 876.3846153846154Q2605 899.3846153846154 2623.0 917.3846153846154Q2641 935.3846153846154 2664.5 948.3846153846154Q2688 961.3846153846154 2714.5 969.8846153846154Q2741 978.3846153846154 2768.0 982.3846153846154Q2795 986.3846153846154 2818 986.3846153846154Q2851 986.3846153846154 2874.0 975.3846153846154Q2897 964.3846153846154 2913.5 945.8846153846154Q2930 927.3846153846154 2940.0 902.8846153846154Q2950 878.3846153846154 2955.5 851.8846153846154Q2961 825.3846153846154 2963.5 798.3846153846154Q2966 771.3846153846154 2966 747.3846153846154Q2966 743.3846153846154 2965.0 722.8846153846154Q2964 702.3846153846154 2962.0 674.8846153846154Q2960 647.3846153846154 2957.0 616.3846153846154Q2954 585.3846153846154 2949.0 558.3846153846154Q2944 531.3846153846154 2937.0 514.3846153846154Q2930 497.38461538461536 2921 497.38461538461536Q2902 497.38461538461536 2883.5 502.38461538461536Q2865 507.38461538461536 2847.0 513.3846153846154Q2829 519.3846153846154 2809.5 524.3846153846154Q2790 529.3846153846154 2769 529.3846153846154Q2765 529.3846153846154 2755.5 529.3846153846154Q2746 529.3846153846154 2735.0 528.8846153846154Q2724 528.3846153846154 2714.5 527.8846153846154Q2705 527.3846153846154 2701 527.3846153846154Q2680 519.3846153846154 2666.5 503.38461538461536Q2653 487.38461538461536 2645.0 466.88461538461536Q2637 446.38461538461536 2634.0 423.88461538461536Q2631 401.38461538461536 2631 382.38461538461536Q2631 354.38461538461536 2632.5 331.88461538461536Q2634 309.38461538461536 2643 284.38461538461536Q2644 282.38461538461536 2650.0 281.88461538461536Q2656 281.38461538461536 2657 281.38461538461536Q2675 281.38461538461536 2681.0 296.38461538461536Q2687 311.38461538461536 2688.0 333.38461538461536Q2689 355.38461538461536 2689.5 380.88461538461536Q2690 406.38461538461536 2697.0 428.38461538461536Q2704 450.38461538461536 2720.5 464.88461538461536Q2737 479.38461538461536 2771 479.38461538461536Q2817 479.38461538461536 2843.0 468.38461538461536Q2869 457.38461538461536 2882.0 434.88461538461536Q2895 412.38461538461536 2897.0 379.88461538461536Q2899 347.38461538461536 2896 303.38461538461536Q2895 290.38461538461536 2901.0 286.38461538461536Q2907 282.38461538461536 2915 282.38461538461536Q2925 282.38461538461536 2936.5 304.38461538461536Q2948 326.38461538461536 2958.0 360.38461538461536Q2968 394.38461538461536 2978.0 433.88461538461536Q2988 473.38461538461536 2995.0 509.38461538461536Q3002 545.3846153846154 3006.5 571.8846153846154Q3011 598.3846153846154 3012 605.3846153846154Q3013 609.3846153846154 3015.0 620.8846153846154Q3017 632.3846153846154 3018.5 648.8846153846154Q3020 665.3846153846154 3022.0 682.8846153846154Q3024 700.3846153846154 3026.0 716.8846153846154Q3028 733.3846153846154 3030.0 745.3846153846154Q3032 757.3846153846154 3032 761.3846153846154V766.3846153846154Q3032 818.3846153846154 3019.5 866.3846153846154Q3007 914.3846153846154 2980.5 951.8846153846154Q2954 989.3846153846154 2913.5 1011.8846153846152Q2873 1034.3846153846152 2816 1034.3846153846152Q2792 1034.3846153846152 2762.5 1030.3846153846152Q2733 1026.3846153846152 2703.0 1017.8846153846152Q2673 1009.3846153846154 2644.5 996.3846153846154Q2616 983.3846153846154 2594.0 963.8846153846154Q2572 944.3846153846154 2558.5 920.3846153846154Q2545 896.3846153846154 2545 865.3846153846154ZM3635 478.38461538461536Q3619 478.38461538461536 3601.5 482.88461538461536Q3584 487.38461538461536 3567.0 493.38461538461536Q3550 499.38461538461536 3531.5 503.88461538461536Q3513 508.38461538461536 3494 508.38461538461536Q3465 508.38461538461536 3438.0 499.38461538461536Q3411 490.38461538461536 3390.5 472.38461538461536Q3370 454.38461538461536 3358.0 428.88461538461536Q3346 403.38461538461536 3346 371.38461538461536Q3346 343.38461538461536 3363.5 319.38461538461536Q3381 295.38461538461536 3407.0 279.38461538461536Q3433 263.38461538461536 3463.0 254.38461538461536Q3493 245.38461538461536 3517 245.38461538461536Q3528 245.38461538461536 3544.5 246.88461538461536Q3561 248.38461538461536 3580.5 251.88461538461536Q3600 255.38461538461536 3620.0 260.88461538461536Q3640 266.38461538461536 3656.5 275.38461538461536Q3673 284.38461538461536 3684.5 295.88461538461536Q3696 307.38461538461536 3698 322.38461538461536Q3698 327.38461538461536 3696.0 339.88461538461536Q3694 352.38461538461536 3693.0 366.38461538461536Q3692 380.38461538461536 3690.5 392.88461538461536Q3689 405.38461538461536 3688 411.38461538461536V417.38461538461536Q3688 439.38461538461536 3698.0 450.38461538461536Q3708 461.38461538461536 3722.5 465.88461538461536Q3737 470.38461538461536 3753 470.38461538461536H3785Q3800 470.38461538461536 3804.0 469.88461538461536Q3808 469.38461538461536 3809.5 469.38461538461536Q3811 469.38461538461536 3814.5 468.88461538461536Q3818 468.38461538461536 3834 468.38461538461536Q3847 468.38461538461536 3854.0 473.38461538461536Q3861 478.38461538461536 3861 494.38461538461536Q3861 511.38461538461536 3850.0 518.3846153846154Q3839 525.3846153846154 3824.0 527.8846153846154Q3809 530.3846153846154 3794.0 529.3846153846154Q3779 528.3846153846154 3771 528.3846153846154Q3748 528.3846153846154 3727.5 520.3846153846154Q3707 512.3846153846154 3690.0 502.88461538461536Q3673 493.38461538461536 3659.0 485.88461538461536Q3645 478.38461538461536 3635 478.38461538461536ZM3405 381.38461538461536Q3405 405.38461538461536 3415.5 419.88461538461536Q3426 434.38461538461536 3441.5 440.88461538461536Q3457 447.38461538461536 3476.0 448.88461538461536Q3495 450.38461538461536 3513 450.38461538461536Q3520 450.38461538461536 3536.5 449.38461538461536Q3553 448.38461538461536 3571.0 444.88461538461536Q3589 441.38461538461536 3603.5 435.38461538461536Q3618 429.38461538461536 3620 420.38461538461536L3640 342.38461538461536Q3642 334.38461538461536 3636.0 328.38461538461536Q3630 322.38461538461536 3619.5 318.38461538461536Q3609 314.38461538461536 3596.5 311.38461538461536Q3584 308.38461538461536 3572.0 306.38461538461536Q3560 304.38461538461536 3550.5 303.38461538461536Q3541 302.38461538461536 3539 302.38461538461536Q3521 302.38461538461536 3497.5 305.88461538461536Q3474 309.38461538461536 3453.5 317.88461538461536Q3433 326.38461538461536 3419.0 341.38461538461536Q3405 356.38461538461536 3405 381.38461538461536ZM4108 312.38461538461536Q4073 312.38461538461536 4046.5 324.88461538461536Q4020 337.38461538461536 3999.0 357.38461538461536Q3978 377.38461538461536 3964.0 399.88461538461536Q3950 422.38461538461536 3939.5 442.38461538461536Q3929 462.38461538461536 3923.5 475.38461538461536Q3918 488.38461538461536 3916 488.38461538461536Q3889 488.38461538461536 3878.0 474.38461538461536Q3867 460.38461538461536 3864.0 439.88461538461536Q3861 419.38461538461536 3863.5 396.88461538461536Q3866 374.38461538461536 3866 357.38461538461536V340.38461538461536Q3866 328.38461538461536 3866.5 315.38461538461536Q3867 302.38461538461536 3867 291.38461538461536V274.38461538461536Q3870 266.38461538461536 3875.0 265.38461538461536Q3880 264.38461538461536 3886 264.38461538461536Q3895 264.38461538461536 3901.0 274.88461538461536Q3907 285.38461538461536 3912.0 300.38461538461536Q3917 315.38461538461536 3920.0 329.88461538461536Q3923 344.38461538461536 3925 352.38461538461536Q3937 350.38461538461536 3947.0 342.38461538461536Q3957 334.38461538461536 3967.5 323.38461538461536Q3978 312.38461538461536 3990.0 300.38461538461536Q4002 288.38461538461536 4018.0 277.88461538461536Q4034 267.38461538461536 4055.5 260.38461538461536Q4077 253.38461538461536 4105 253.38461538461536Q4161 253.38461538461536 4197.0 277.88461538461536Q4233 302.38461538461536 4252.5 341.88461538461536Q4272 381.38461538461536 4279.0 430.88461538461536Q4286 480.38461538461536 4286 531.3846153846154Q4256 531.3846153846154 4239.5 521.8846153846154Q4223 512.3846153846154 4216.0 496.88461538461536Q4209 481.38461538461536 4208.0 461.88461538461536Q4207 442.38461538461536 4207.0 421.88461538461536Q4207 401.38461538461536 4204.5 381.38461538461536Q4202 361.38461538461536 4192.5 346.38461538461536Q4183 331.38461538461536 4163.5 321.88461538461536Q4144 312.38461538461536 4108 312.38461538461536ZM4663 497.38461538461536Q4630 497.38461538461536 4598.5 502.88461538461536Q4567 508.38461538461536 4535 508.38461538461536Q4513 508.38461538461536 4487.5 507.88461538461536Q4462 507.38461538461536 4436.5 503.88461538461536Q4411 500.38461538461536 4387.0 492.88461538461536Q4363 485.38461538461536 4344.5 471.88461538461536Q4326 458.38461538461536 4314.5 438.38461538461536Q4303 418.38461538461536 4303 388.38461538461536Q4303 352.38461538461536 4322.5 326.38461538461536Q4342 300.38461538461536 4370.5 284.88461538461536Q4399 269.38461538461536 4433.5 261.88461538461536Q4468 254.38461538461536 4500 254.38461538461536Q4542 254.38461538461536 4585.5 267.88461538461536Q4629 281.38461538461536 4666 303.38461538461536V118.38461538461536Q4666 105.38461538461536 4670.5 101.88461538461536Q4675 98.38461538461536 4683 98.38461538461536Q4697 98.38461538461536 4707.0 125.88461538461536Q4717 153.38461538461536 4724.0 196.38461538461536Q4731 239.38461538461536 4735.5 291.38461538461536Q4740 343.38461538461536 4742.0 391.38461538461536Q4744 439.38461538461536 4744.5 476.88461538461536Q4745 514.3846153846154 4745 530.3846153846154Q4729 530.3846153846154 4717.5 524.8846153846154Q4706 519.3846153846154 4697.5 513.3846153846154Q4689 507.38461538461536 4681.0 502.38461538461536Q4673 497.38461538461536 4663 497.38461538461536ZM4362 388.38461538461536Q4362 408.38461538461536 4373.0 420.88461538461536Q4384 433.38461538461536 4402.0 441.38461538461536Q4420 449.38461538461536 4442.0 453.38461538461536Q4464 457.38461538461536 4486.0 458.88461538461536Q4508 460.38461538461536 4528 460.38461538461536H4561Q4563 460.38461538461536 4579.5 461.38461538461536Q4596 462.38461538461536 4615.0 460.88461538461536Q4634 459.38461538461536 4650.0 454.88461538461536Q4666 450.38461538461536 4666 439.38461538461536V332.38461538461536Q4655 343.38461538461536 4646.5 348.38461538461536Q4638 353.38461538461536 4625 353.38461538461536Q4624 353.38461538461536 4614.0 346.88461538461536Q4604 340.38461538461536 4587.5 332.88461538461536Q4571 325.38461538461536 4549.5 318.88461538461536Q4528 312.38461538461536 4503 312.38461538461536Q4486 312.38461538461536 4462.0 315.88461538461536Q4438 319.38461538461536 4415.5 327.88461538461536Q4393 336.38461538461536 4377.5 351.38461538461536Q4362 366.38461538461536 4362 388.38461538461536ZM5606 498.38461538461536Q5605 489.38461538461536 5603.5 470.88461538461536Q5602 452.38461538461536 5600.5 429.38461538461536Q5599 406.38461538461536 5597.0 380.88461538461536Q5595 355.38461538461536 5592.5 332.38461538461536Q5590 309.38461538461536 5588.5 291.38461538461536Q5587 273.38461538461536 5586 264.38461538461536Q5586 261.38461538461536 5585.0 253.88461538461536Q5584 246.38461538461536 5581.5 237.88461538461536Q5579 229.38461538461536 5574.0 222.38461538461536Q5569 215.38461538461536 5561 215.38461538461536Q5546 215.38461538461536 5525.0 221.38461538461536Q5504 227.38461538461536 5481.5 234.38461538461536Q5459 241.38461538461536 5437.5 246.38461538461536Q5416 251.38461538461536 5398 251.38461538461536Q5362 251.38461538461536 5334.0 238.38461538461536Q5306 225.38461538461536 5280.5 210.38461538461536Q5255 195.38461538461536 5228.5 182.38461538461536Q5202 169.38461538461536 5169 169.38461538461536Q5169 228.38461538461536 5173.5 284.38461538461536Q5178 340.38461538461536 5178 397.38461538461536Q5178 402.38461538461536 5177.5 409.88461538461536Q5177 417.38461538461536 5177 423.38461538461536Q5176 431.38461538461536 5176 439.38461538461536L5128 468.38461538461536L5119 460.38461538461536Q5118 459.38461538461536 5117.5 448.38461538461536Q5117 437.38461538461536 5116.0 419.38461538461536Q5115 401.38461538461536 5114.0 379.38461538461536Q5113 357.38461538461536 5111.5 334.88461538461536Q5110 312.38461538461536 5109.5 290.88461538461536Q5109 269.38461538461536 5108 254.38461538461536V242.38461538461536Q5108 231.38461538461536 5107.5 217.88461538461536Q5107 204.38461538461536 5107 190.38461538461536V149.38461538461536Q5107 136.38461538461536 5107.5 122.38461538461536Q5108 108.38461538461536 5108 96.38461538461536V79.38461538461536Q5110 70.38461538461536 5118.0 69.38461538461536Q5126 68.38461538461536 5133 68.38461538461536Q5134 68.38461538461536 5140.5 69.38461538461536Q5147 70.38461538461536 5148 70.38461538461536Q5182 94.38461538461536 5212.5 116.38461538461536Q5243 138.38461538461536 5274.5 154.88461538461536Q5306 171.38461538461536 5340.0 181.38461538461536Q5374 191.38461538461536 5416 191.38461538461536Q5437 198.38461538461536 5461.0 190.88461538461536Q5485 183.38461538461536 5508.0 169.88461538461536Q5531 156.38461538461536 5551.5 141.38461538461536Q5572 126.38461538461536 5586 117.38461538461536Q5596 117.38461538461536 5604.5 123.38461538461536Q5613 129.38461538461536 5620.0 138.38461538461536Q5627 147.38461538461536 5630.5 157.38461538461536Q5634 167.38461538461536 5635 177.38461538461536Q5635 187.38461538461536 5637.5 207.88461538461536Q5640 228.38461538461536 5643 254.38461538461536L5655 363.38461538461536Q5658 388.38461538461536 5660.5 409.38461538461536Q5663 430.38461538461536 5664 439.38461538461536Q5665 449.38461538461536 5668 457.38461538461536L5675 475.38461538461536Q5679 483.38461538461536 5682.0 492.38461538461536Q5685 501.38461538461536 5685 508.38461538461536Q5685 516.3846153846154 5679.5 520.3846153846154Q5674 524.3846153846154 5667.5 526.3846153846154Q5661 528.3846153846154 5652 528.3846153846154H5639Q5624 528.3846153846154 5617.5 520.8846153846154Q5611 513.3846153846154 5606 498.38461538461536ZM5712 409.38461538461536Q5712 375.38461538461536 5724.0 339.38461538461536Q5736 303.38461538461536 5758.5 273.38461538461536Q5781 243.38461538461536 5812.0 224.38461538461536Q5843 205.38461538461536 5883 205.38461538461536Q5939 205.38461538461536 5977.0 216.38461538461536Q6015 227.38461538461536 6039.0 249.88461538461536Q6063 272.38461538461536 6073.5 307.88461538461536Q6084 343.38461538461536 6084 391.38461538461536Q6084 394.38461538461536 6083.5 402.88461538461536Q6083 411.38461538461536 6083.0 420.38461538461536Q6083 429.38461538461536 6082.5 437.88461538461536Q6082 446.38461538461536 6082 450.38461538461536Q6075 475.38461538461536 6055.5 490.88461538461536Q6036 506.38461538461536 6010.5 514.3846153846154Q5985 522.3846153846154 5957.5 525.3846153846154Q5930 528.3846153846154 5908 528.3846153846154Q5877 528.3846153846154 5843.0 524.3846153846154Q5809 520.3846153846154 5779.5 507.88461538461536Q5750 495.38461538461536 5731.0 471.88461538461536Q5712 448.38461538461536 5712 409.38461538461536ZM5762 396.38461538461536Q5762 422.38461538461536 5777.5 438.88461538461536Q5793 455.38461538461536 5815.0 464.38461538461536Q5837 473.38461538461536 5862.5 476.38461538461536Q5888 479.38461538461536 5906 479.38461538461536Q5924 479.38461538461536 5937.5 479.38461538461536Q5951 479.38461538461536 5964.0 476.38461538461536Q5977 473.38461538461536 5991.0 467.38461538461536Q6005 461.38461538461536 6024 450.38461538461536Q6034 434.38461538461536 6035.0 418.88461538461536Q6036 403.38461538461536 6036 386.38461538461536Q6036 352.38461538461536 6023.0 326.38461538461536Q6010 300.38461538461536 5988.0 284.38461538461536Q5966 268.38461538461536 5935.5 262.88461538461536Q5905 257.38461538461536 5868 264.38461538461536Q5853 267.38461538461536 5834.0 282.38461538461536Q5815 297.38461538461536 5799.0 317.38461538461536Q5783 337.38461538461536 5772.5 358.88461538461536Q5762 380.38461538461536 5762 396.38461538461536ZM6131 409.38461538461536Q6131 375.38461538461536 6143.0 339.38461538461536Q6155 303.38461538461536 6177.5 273.38461538461536Q6200 243.38461538461536 6231.0 224.38461538461536Q6262 205.38461538461536 6302 205.38461538461536Q6358 205.38461538461536 6396.0 216.38461538461536Q6434 227.38461538461536 6458.0 249.88461538461536Q6482 272.38461538461536 6492.5 307.88461538461536Q6503 343.38461538461536 6503 391.38461538461536Q6503 394.38461538461536 6502.5 402.88461538461536Q6502 411.38461538461536 6502.0 420.38461538461536Q6502 429.38461538461536 6501.5 437.88461538461536Q6501 446.38461538461536 6501 450.38461538461536Q6494 475.38461538461536 6474.5 490.88461538461536Q6455 506.38461538461536 6429.5 514.3846153846154Q6404 522.3846153846154 6376.5 525.3846153846154Q6349 528.3846153846154 6327 528.3846153846154Q6296 528.3846153846154 6262.0 524.3846153846154Q6228 520.3846153846154 6198.5 507.88461538461536Q6169 495.38461538461536 6150.0 471.88461538461536Q6131 448.38461538461536 6131 409.38461538461536ZM6181 396.38461538461536Q6181 422.38461538461536 6196.5 438.88461538461536Q6212 455.38461538461536 6234.0 464.38461538461536Q6256 473.38461538461536 6281.5 476.38461538461536Q6307 479.38461538461536 6325 479.38461538461536Q6343 479.38461538461536 6356.5 479.38461538461536Q6370 479.38461538461536 6383.0 476.38461538461536Q6396 473.38461538461536 6410.0 467.38461538461536Q6424 461.38461538461536 6443 450.38461538461536Q6453 434.38461538461536 6454.0 418.88461538461536Q6455 403.38461538461536 6455 386.38461538461536Q6455 352.38461538461536 6442.0 326.38461538461536Q6429 300.38461538461536 6407.0 284.38461538461536Q6385 268.38461538461536 6354.5 262.88461538461536Q6324 257.38461538461536 6287 264.38461538461536Q6272 267.38461538461536 6253.0 282.38461538461536Q6234 297.38461538461536 6218.0 317.38461538461536Q6202 337.38461538461536 6191.5 358.88461538461536Q6181 380.38461538461536 6181 396.38461538461536ZM7364 498.38461538461536Q7363 489.38461538461536 7361.5 470.88461538461536Q7360 452.38461538461536 7358.5 429.38461538461536Q7357 406.38461538461536 7355.0 380.88461538461536Q7353 355.38461538461536 7350.5 332.38461538461536Q7348 309.38461538461536 7346.5 291.38461538461536Q7345 273.38461538461536 7344 264.38461538461536Q7344 261.38461538461536 7343.0 253.88461538461536Q7342 246.38461538461536 7339.5 237.88461538461536Q7337 229.38461538461536 7332.0 222.38461538461536Q7327 215.38461538461536 7319 215.38461538461536Q7304 215.38461538461536 7283.0 221.38461538461536Q7262 227.38461538461536 7239.5 234.38461538461536Q7217 241.38461538461536 7195.5 246.38461538461536Q7174 251.38461538461536 7156 251.38461538461536Q7120 251.38461538461536 7092.0 238.38461538461536Q7064 225.38461538461536 7038.5 210.38461538461536Q7013 195.38461538461536 6986.5 182.38461538461536Q6960 169.38461538461536 6927 169.38461538461536Q6927 228.38461538461536 6931.5 284.38461538461536Q6936 340.38461538461536 6936 397.38461538461536Q6936 402.38461538461536 6935.5 409.88461538461536Q6935 417.38461538461536 6935 423.38461538461536Q6934 431.38461538461536 6934 439.38461538461536L6886 468.38461538461536L6877 460.38461538461536Q6876 459.38461538461536 6875.5 448.38461538461536Q6875 437.38461538461536 6874.0 419.38461538461536Q6873 401.38461538461536 6872.0 379.38461538461536Q6871 357.38461538461536 6869.5 334.88461538461536Q6868 312.38461538461536 6867.5 290.88461538461536Q6867 269.38461538461536 6866 254.38461538461536V242.38461538461536Q6866 231.38461538461536 6865.5 217.88461538461536Q6865 204.38461538461536 6865 190.38461538461536V149.38461538461536Q6865 136.38461538461536 6865.5 122.38461538461536Q6866 108.38461538461536 6866 96.38461538461536V79.38461538461536Q6868 70.38461538461536 6876.0 69.38461538461536Q6884 68.38461538461536 6891 68.38461538461536Q6892 68.38461538461536 6898.5 69.38461538461536Q6905 70.38461538461536 6906 70.38461538461536Q6940 94.38461538461536 6970.5 116.38461538461536Q7001 138.38461538461536 7032.5 154.88461538461536Q7064 171.38461538461536 7098.0 181.38461538461536Q7132 191.38461538461536 7174 191.38461538461536Q7195 198.38461538461536 7219.0 190.88461538461536Q7243 183.38461538461536 7266.0 169.88461538461536Q7289 156.38461538461536 7309.5 141.38461538461536Q7330 126.38461538461536 7344 117.38461538461536Q7354 117.38461538461536 7362.5 123.38461538461536Q7371 129.38461538461536 7378.0 138.38461538461536Q7385 147.38461538461536 7388.5 157.38461538461536Q7392 167.38461538461536 7393 177.38461538461536Q7393 187.38461538461536 7395.5 207.88461538461536Q7398 228.38461538461536 7401 254.38461538461536L7413 363.38461538461536Q7416 388.38461538461536 7418.5 409.38461538461536Q7421 430.38461538461536 7422 439.38461538461536Q7423 449.38461538461536 7426 457.38461538461536L7433 475.38461538461536Q7437 483.38461538461536 7440.0 492.38461538461536Q7443 501.38461538461536 7443 508.38461538461536Q7443 516.3846153846154 7437.5 520.3846153846154Q7432 524.3846153846154 7425.5 526.3846153846154Q7419 528.3846153846154 7410 528.3846153846154H7397Q7382 528.3846153846154 7375.5 520.8846153846154Q7369 513.3846153846154 7364 498.38461538461536ZM7470 409.38461538461536Q7470 375.38461538461536 7482.0 339.38461538461536Q7494 303.38461538461536 7516.5 273.38461538461536Q7539 243.38461538461536 7570.0 224.38461538461536Q7601 205.38461538461536 7641 205.38461538461536Q7697 205.38461538461536 7735.0 216.38461538461536Q7773 227.38461538461536 7797.0 249.88461538461536Q7821 272.38461538461536 7831.5 307.88461538461536Q7842 343.38461538461536 7842 391.38461538461536Q7842 394.38461538461536 7841.5 402.88461538461536Q7841 411.38461538461536 7841.0 420.38461538461536Q7841 429.38461538461536 7840.5 437.88461538461536Q7840 446.38461538461536 7840 450.38461538461536Q7833 475.38461538461536 7813.5 490.88461538461536Q7794 506.38461538461536 7768.5 514.3846153846154Q7743 522.3846153846154 7715.5 525.3846153846154Q7688 528.3846153846154 7666 528.3846153846154Q7635 528.3846153846154 7601.0 524.3846153846154Q7567 520.3846153846154 7537.5 507.88461538461536Q7508 495.38461538461536 7489.0 471.88461538461536Q7470 448.38461538461536 7470 409.38461538461536ZM7520 396.38461538461536Q7520 422.38461538461536 7535.5 438.88461538461536Q7551 455.38461538461536 7573.0 464.38461538461536Q7595 473.38461538461536 7620.5 476.38461538461536Q7646 479.38461538461536 7664 479.38461538461536Q7682 479.38461538461536 7695.5 479.38461538461536Q7709 479.38461538461536 7722.0 476.38461538461536Q7735 473.38461538461536 7749.0 467.38461538461536Q7763 461.38461538461536 7782 450.38461538461536Q7792 434.38461538461536 7793.0 418.88461538461536Q7794 403.38461538461536 7794 386.38461538461536Q7794 352.38461538461536 7781.0 326.38461538461536Q7768 300.38461538461536 7746.0 284.38461538461536Q7724 268.38461538461536 7693.5 262.88461538461536Q7663 257.38461538461536 7626 264.38461538461536Q7611 267.38461538461536 7592.0 282.38461538461536Q7573 297.38461538461536 7557.0 317.38461538461536Q7541 337.38461538461536 7530.5 358.88461538461536Q7520 380.38461538461536 7520 396.38461538461536ZM7889 409.38461538461536Q7889 375.38461538461536 7901.0 339.38461538461536Q7913 303.38461538461536 7935.5 273.38461538461536Q7958 243.38461538461536 7989.0 224.38461538461536Q8020 205.38461538461536 8060 205.38461538461536Q8116 205.38461538461536 8154.0 216.38461538461536Q8192 227.38461538461536 8216.0 249.88461538461536Q8240 272.38461538461536 8250.5 307.88461538461536Q8261 343.38461538461536 8261 391.38461538461536Q8261 394.38461538461536 8260.5 402.88461538461536Q8260 411.38461538461536 8260.0 420.38461538461536Q8260 429.38461538461536 8259.5 437.88461538461536Q8259 446.38461538461536 8259 450.38461538461536Q8252 475.38461538461536 8232.5 490.88461538461536Q8213 506.38461538461536 8187.5 514.3846153846154Q8162 522.3846153846154 8134.5 525.3846153846154Q8107 528.3846153846154 8085 528.3846153846154Q8054 528.3846153846154 8020.0 524.3846153846154Q7986 520.3846153846154 7956.5 507.88461538461536Q7927 495.38461538461536 7908.0 471.88461538461536Q7889 448.38461538461536 7889 409.38461538461536ZM7939 396.38461538461536Q7939 422.38461538461536 7954.5 438.88461538461536Q7970 455.38461538461536 7992.0 464.38461538461536Q8014 473.38461538461536 8039.5 476.38461538461536Q8065 479.38461538461536 8083 479.38461538461536Q8101 479.38461538461536 8114.5 479.38461538461536Q8128 479.38461538461536 8141.0 476.38461538461536Q8154 473.38461538461536 8168.0 467.38461538461536Q8182 461.38461538461536 8201 450.38461538461536Q8211 434.38461538461536 8212.0 418.88461538461536Q8213 403.38461538461536 8213 386.38461538461536Q8213 352.38461538461536 8200.0 326.38461538461536Q8187 300.38461538461536 8165.0 284.38461538461536Q8143 268.38461538461536 8112.5 262.88461538461536Q8082 257.38461538461536 8045 264.38461538461536Q8030 267.38461538461536 8011.0 282.38461538461536Q7992 297.38461538461536 7976.0 317.38461538461536Q7960 337.38461538461536 7949.5 358.88461538461536Q7939 380.38461538461536 7939 396.38461538461536Z" /></svg>