<svg viewBox="0 0 2063.6252354048966 860" xmlns="http://www.w3.org/2000/svg"><path d="M1.7777777777777786 449H73.77777777777777Q76.77777777777777 491 98.77777777777777 524.0Q120.77777777777777 557 159.27777777777777 576.0Q197.77777777777777 595 249.77777777777777 595Q294.77777777777777 595 325.27777777777777 581.5Q355.77777777777777 568 371.27777777777777 544.0Q386.77777777777777 520 386.77777777777777 488Q386.77777777777777 455 370.77777777777777 435.0Q354.77777777777777 415 324.77777777777777 401.0Q294.77777777777777 387 253.77777777777777 374Q214.77777777777777 362 174.77777777777777 346.0Q134.77777777777777 330 100.27777777777777 307.0Q65.77777777777777 284 44.77777777777777 251.5Q23.77777777777778 219 23.77777777777778 173Q23.77777777777778 128 48.27777777777777 88.5Q72.77777777777777 49 120.27777777777777 24.5Q167.77777777777777 0 234.77777777777777 0Q339.77777777777777 0 391.77777777777777 57.0Q443.77777777777777 114 441.77777777777777 208H369.77777777777777Q367.77777777777777 137 329.77777777777777 106.0Q291.77777777777777 75 230.77777777777777 75Q179.77777777777777 75 141.77777777777777 98.5Q103.77777777777777 122 103.77777777777777 172Q103.77777777777777 194 112.27777777777777 210.5Q120.77777777777777 227 140.27777777777777 241.0Q159.77777777777777 255 193.27777777777777 268.5Q226.77777777777777 282 275.77777777777777 298Q307.77777777777777 308 341.27777777777777 322.0Q374.77777777777777 336 403.27777777777777 357.0Q431.77777777777777 378 449.27777777777777 410.5Q466.77777777777777 443 466.77777777777777 492Q466.77777777777777 539 444.27777777777777 579.5Q421.77777777777777 620 374.27777777777777 645.0Q326.77777777777777 670 251.77777777777777 670Q187.77777777777777 670 142.27777777777777 652.5Q96.77777777777777 635 67.77777777777777 607.0Q38.77777777777778 579 23.27777777777778 548.5Q7.777777777777779 518 2.7777777777777786 491.0Q-2.2222222222222214 464 1.7777777777777786 449ZM526.7777777777778 160H612.7777777777778L791.7777777777778 640L721.7777777777778 660ZM991.7777777777778 160 712.7777777777778 860H625.7777777777778L746.7777777777778 590L906.7777777777778 160ZM1076.7777777777778 160H1156.7777777777778V660H1076.7777777777778ZM1328.7777777777778 150Q1368.7777777777778 150 1400.7777777777778 162.0Q1432.7777777777778 174 1454.7777777777778 197.0Q1476.7777777777778 220 1488.7777777777778 252.5Q1500.7777777777778 285 1500.7777777777778 326V660H1420.7777777777778V346Q1420.7777777777778 288 1393.7777777777778 259.0Q1366.7777777777778 230 1312.7777777777778 230Q1271.7777777777778 230 1236.7777777777778 251.0Q1201.7777777777778 272 1179.2777777777778 308.5Q1156.7777777777778 345 1151.7777777777778 393L1150.7777777777778 335Q1155.7777777777778 293 1171.2777777777778 259.0Q1186.7777777777778 225 1210.2777777777778 200.5Q1233.7777777777778 176 1264.2777777777778 163.0Q1294.7777777777778 150 1328.7777777777778 150ZM1984.7777777777778 499H2059.777777777778Q2051.777777777778 548 2024.2777777777778 586.5Q1996.7777777777778 625 1952.2777777777778 647.5Q1907.7777777777778 670 1849.7777777777778 670Q1779.7777777777778 670 1723.7777777777778 636.5Q1667.7777777777778 603 1635.2777777777778 544.5Q1602.7777777777778 486 1602.7777777777778 411Q1602.7777777777778 336 1634.2777777777778 277.0Q1665.7777777777778 218 1720.7777777777778 184.0Q1775.7777777777778 150 1844.7777777777778 150Q1917.7777777777778 150 1968.2777777777778 182.5Q2018.7777777777778 215 2043.2777777777778 277.5Q2067.777777777778 340 2062.777777777778 431H1682.7777777777778Q1687.7777777777778 480 1709.7777777777778 517.0Q1731.7777777777778 554 1767.7777777777778 574.5Q1803.7777777777778 595 1849.7777777777778 595Q1900.7777777777778 595 1936.2777777777778 568.5Q1971.7777777777778 542 1984.7777777777778 499ZM1847.7777777777778 225Q1785.7777777777778 225 1743.7777777777778 261.0Q1701.7777777777778 297 1687.7777777777778 359H1980.7777777777778Q1976.7777777777778 293 1938.2777777777778 259.0Q1899.7777777777778 225 1847.7777777777778 225Z" fill="currentColor" /></svg>