<svg viewBox="0 0 4848.53125 860" xmlns="http://www.w3.org/2000/svg"><path d="M38.53125 449Q74.53125 449 78.53125 513L176.53125 595H299.53125L367.53125 538V458L330.53125 417L298.53125 394Q273.53125 384 238.53125 372.5Q203.53125 361 165.53125 347L85.53125 309L23.53125 235V129L72.53125 48L165.53125 0H328.53125L436.53125 113Q434.53125 208 399.53125 208Q362.53125 208 361.53125 141L285.53125 76H172.53125L103.53125 126V206L138.53125 248L188.53125 272Q210.53125 280 228.03125 286.0Q245.53125 292 252.53125 294Q267.53125 301 280.53125 305Q287.53125 308 305.53125 315.5Q323.53125 323 353.53125 334L401.53125 371L447.53125 437V571L341.53125 670H163.53125L50.53125 600L0.53125 505Q0.53125 479 0.03125 467.5Q-0.46875 456 7.03125 452.5Q14.53125 449 38.53125 449ZM969.53125 160Q980.53125 160 976.03125 189.5Q971.53125 219 956.53125 269.0Q941.53125 319 919.03125 381.5Q896.53125 444 869.53125 510.0Q842.53125 576 814.53125 638.5Q786.53125 701 761.03125 751.0Q735.53125 801 716.03125 830.5Q696.53125 860 685.53125 860Q643.53125 860 688.53125 756Q733.53125 654 635.53125 406Q538.53125 160 580.53125 160Q622.53125 160 698.53125 358Q774.53125 555 850.53125 358Q927.53125 160 969.53125 160ZM1411.53125 150 1485.53125 183 1536.53125 263V494Q1536.53125 660 1496.53125 660Q1456.53125 660 1456.53125 504V230H1277.53125L1206.53125 316Q1192.53125 370 1192.53125 514Q1192.53125 660 1152.53125 660Q1112.53125 660 1112.53125 410Q1112.53125 160 1152.53125 160Q1192.53125 160 1192.53125 234Q1192.53125 309 1210.53125 251L1300.53125 150ZM2057.53125 499Q2095.53125 499 2082.53125 575L1977.53125 670H1820.53125L1711.53125 604L1650.53125 486V336L1709.53125 217L1816.53125 150H1994.53125L2103.53125 295Q2097.53125 431 1914.53125 431Q1730.53125 431 1737.53125 504L1823.53125 593H1990.53125Q2018.53125 499 2057.53125 499ZM1823.53125 227 1750.53125 297Q1735.53125 359 1875.53125 359Q2015.53125 359 2011.53125 295L1942.53125 227ZM3164.53125 10Q3204.53125 10 3204.53125 335Q3204.53125 660 3164.53125 660Q3124.53125 660 3124.53125 445Q3124.53125 232 3069.53125 445Q3013.53125 660 2974.53125 660Q2935.53125 660 2879.53125 447Q2824.53125 236 2824.53125 447Q2824.53125 660 2784.53125 660Q2744.53125 660 2744.53125 335Q2744.53125 10 2784.53125 10Q2824.53125 10 2899.53125 281Q2974.53125 552 3049.53125 281Q3124.53125 10 3164.53125 10ZM3459.53125 670 3357.53125 607 3300.53125 490V332L3357.53125 214L3459.53125 150H3590.53125L3691.53125 214L3748.53125 332V490L3692.53125 607L3591.53125 670ZM3590.53125 593 3668.53125 497V325L3590.53125 227H3460.53125L3380.53125 325V497L3459.53125 593ZM4161.53125 150 4235.53125 183 4286.53125 263V494Q4286.53125 660 4246.53125 660Q4206.53125 660 4206.53125 504V230H4027.53125L3956.53125 316Q3942.53125 370 3942.53125 514Q3942.53125 660 3902.53125 660Q3862.53125 660 3862.53125 410Q3862.53125 160 3902.53125 160Q3942.53125 160 3942.53125 234Q3942.53125 309 3960.53125 251L4050.53125 150ZM4559.53125 670 4457.53125 607 4400.53125 490V332L4457.53125 214L4559.53125 150H4690.53125L4791.53125 214L4848.53125 332V490L4792.53125 607L4691.53125 670ZM4690.53125 593 4768.53125 497V325L4690.53125 227H4560.53125L4480.53125 325V497L4559.53125 593Z" fill="currentColor" /></svg>