<svg viewBox="0 0 3812.25 857.2352941176471" xmlns="http://www.w3.org/2000/svg"><path d="M5.25 639.2352941176471Q2.25 639.2352941176471 2.25 636.2352941176471Q2.25 632.2352941176471 6.75 626.7352941176471Q11.25 621.2352941176471 15.25 622.2352941176471Q30.25 622.2352941176471 43.25 622.7352941176471Q56.25 623.2352941176471 66.25 623.2352941176471Q104.25 623.2352941176471 125.75 619.7352941176471Q147.25 616.2352941176471 158.25 604.2352941176471Q169.25 592.2352941176471 175.75 568.7352941176471Q182.25 545.2352941176471 190.25 506.2352941176471Q195.25 483.2352941176471 200.25 452.2352941176471Q205.25 421.2352941176471 210.75 388.2352941176471Q216.25 355.2352941176471 220.25 327.2352941176471Q228.25 274.2352941176471 235.25 222.73529411764707Q242.25 171.23529411764707 246.25 131.23529411764707Q247.25 122.23529411764707 247.75 114.73529411764707Q248.25 107.23529411764707 248.25 100.23529411764707Q248.25 68.23529411764707 231.75 58.73529411764707Q215.25 49.23529411764707 169.25 49.23529411764707Q108.25 49.23529411764707 71.25 88.23529411764707Q34.25 127.23529411764707 11.25 195.23529411764707Q10.25 198.23529411764707 8.25 198.23529411764707Q5.25 198.23529411764707 2.25 194.73529411764707Q-0.75 191.23529411764707 0.25 187.23529411764707Q4.25 175.23529411764707 9.25 154.23529411764707Q14.25 133.23529411764707 21.25 108.23529411764707Q30.25 78.23529411764707 37.25 53.23529411764707Q44.25 28.235294117647072 57.75 13.235294117647072Q71.25 -1.7647058823529278 98.25 0.2352941176470722Q138.25 2.235294117647072 199.75 6.235294117647072Q261.25 10.235294117647072 325.25 10.235294117647072Q363.25 10.235294117647072 392.75 9.235294117647072Q422.25 8.235294117647072 453.75 6.235294117647072Q485.25 4.235294117647072 527.25 2.235294117647072Q555.25 0.2352941176470722 566.75 10.235294117647072Q578.25 20.235294117647072 578.25 44.23529411764707Q578.25 49.23529411764707 577.75 54.73529411764707Q577.25 60.23529411764707 576.25 67.23529411764707Q572.25 103.23529411764707 571.25 128.23529411764707Q570.25 153.23529411764707 568.25 194.23529411764707Q568.25 200.23529411764707 562.25 200.23529411764707Q553.25 200.23529411764707 553.25 187.23529411764707Q553.25 182.23529411764707 553.75 175.73529411764707Q554.25 169.23529411764707 554.25 164.23529411764707Q554.25 104.23529411764707 528.75 81.23529411764707Q503.25 58.23529411764707 463.25 58.23529411764707Q414.25 58.23529411764707 390.75 64.73529411764707Q367.25 71.23529411764707 359.25 85.73529411764707Q351.25 100.23529411764707 347.25 127.23529411764707Q347.25 127.23529411764707 342.75 158.73529411764707Q338.25 190.23529411764707 331.25 238.23529411764707Q324.25 286.2352941176471 316.25 335.2352941176471Q309.25 386.2352941176471 304.75 430.7352941176471Q300.25 475.2352941176471 298.25 502.2352941176471Q296.25 529.2352941176471 296.25 529.2352941176471Q295.25 536.2352941176471 294.75 544.2352941176471Q294.25 552.2352941176471 294.25 560.2352941176471Q294.25 579.2352941176471 300.75 596.2352941176471Q307.25 613.2352941176471 326.25 616.2352941176471Q334.25 617.2352941176471 354.75 618.2352941176471Q375.25 619.2352941176471 400.75 620.2352941176471Q426.25 621.2352941176471 448.75 621.2352941176471Q471.25 621.2352941176471 483.25 621.2352941176471H484.25Q489.25 621.2352941176471 489.25 625.2352941176471Q489.25 629.2352941176471 484.25 634.2352941176471Q479.25 639.2352941176471 474.25 639.2352941176471Q447.25 639.2352941176471 405.25 638.2352941176471Q363.25 637.2352941176471 317.75 636.2352941176471Q272.25 635.2352941176471 233.25 635.2352941176471Q219.25 635.2352941176471 206.75 635.2352941176471Q194.25 635.2352941176471 184.25 636.2352941176471Q169.25 636.2352941176471 139.75 637.2352941176471Q110.25 638.2352941176471 74.75 638.7352941176471Q39.25 639.2352941176471 6.25 639.2352941176471ZM610.25 645.2352941176471Q591.25 645.2352941176471 578.75 633.2352941176471Q566.25 621.2352941176471 558.75 604.7352941176471Q551.25 588.2352941176471 548.25 571.7352941176471Q545.25 555.2352941176471 545.25 546.2352941176471Q545.25 502.2352941176471 564.75 472.2352941176471Q584.25 442.2352941176471 615.75 423.7352941176471Q647.25 405.2352941176471 684.75 395.7352941176471Q722.25 386.2352941176471 759.75 382.7352941176471Q797.25 379.2352941176471 826.25 380.2352941176471Q826.25 380.2352941176471 828.75 361.2352941176471Q831.25 342.2352941176471 832.25 328.2352941176471Q833.25 310.2352941176471 831.25 288.2352941176471Q829.25 266.2352941176471 819.25 250.23529411764707Q817.25 247.23529411764707 812.25 239.73529411764707Q807.25 232.23529411764707 814.25 229.23529411764707Q815.25 228.23529411764707 818.25 228.23529411764707Q824.25 228.23529411764707 831.25 239.23529411764707Q839.25 250.23529411764707 841.75 267.2352941176471Q844.25 284.2352941176471 844.25 303.2352941176471Q844.25 310.2352941176471 844.25 316.2352941176471Q844.25 322.2352941176471 843.25 329.2352941176471Q842.25 345.2352941176471 839.75 362.7352941176471Q837.25 380.2352941176471 837.25 380.2352941176471Q839.25 381.2352941176471 842.25 381.2352941176471Q854.25 381.2352941176471 855.25 371.2352941176471Q857.25 357.2352941176471 859.75 332.7352941176471Q862.25 308.2352941176471 862.25 282.2352941176471Q862.25 245.23529411764707 852.75 215.73529411764707Q843.25 186.23529411764707 813.25 186.23529411764707Q794.25 186.23529411764707 777.25 194.73529411764707Q760.25 203.23529411764707 748.25 214.23529411764707Q730.25 231.23529411764707 722.75 253.73529411764707Q715.25 276.2352941176471 710.75 296.2352941176471Q706.25 316.2352941176471 695.25 326.2352941176471Q682.25 339.2352941176471 671.75 343.2352941176471Q661.25 347.2352941176471 645.25 357.2352941176471Q640.25 360.2352941176471 630.75 364.7352941176471Q621.25 369.2352941176471 613.25 369.2352941176471Q606.25 369.2352941176471 601.25 363.2352941176471Q596.25 357.2352941176471 598.25 341.2352941176471Q601.25 319.2352941176471 604.25 293.7352941176471Q607.25 268.2352941176471 611.25 261.2352941176471Q624.25 240.23529411764707 648.75 224.23529411764707Q673.25 208.23529411764707 703.25 196.73529411764707Q733.25 185.23529411764707 762.25 179.23529411764707Q791.25 173.23529411764707 813.25 172.23529411764707Q856.25 169.23529411764707 893.75 181.23529411764707Q931.25 193.23529411764707 954.25 218.23529411764707Q977.25 243.23529411764707 977.25 281.2352941176471Q977.25 294.2352941176471 974.25 309.2352941176471Q964.25 352.2352941176471 957.25 395.7352941176471Q950.25 439.2352941176471 946.25 483.2352941176471Q945.25 493.2352941176471 942.75 513.2352941176471Q940.25 533.2352941176471 940.25 554.2352941176471Q940.25 577.2352941176471 946.25 596.2352941176471Q952.25 615.2352941176471 969.25 618.2352941176471Q980.25 620.2352941176471 997.25 621.2352941176471Q1014.25 622.2352941176471 1029.75 622.2352941176471Q1045.25 622.2352941176471 1053.25 622.2352941176471H1054.25Q1059.25 622.2352941176471 1059.25 626.2352941176471Q1059.25 630.2352941176471 1054.25 634.7352941176471Q1049.25 639.2352941176471 1043.25 639.2352941176471Q1008.25 639.2352941176471 973.25 638.2352941176471Q938.25 637.2352941176471 903.25 637.2352941176471Q886.25 637.2352941176471 868.75 638.2352941176471Q851.25 639.2352941176471 833.25 639.2352941176471H823.25Q811.25 639.2352941176471 811.25 633.2352941176471Q811.25 630.2352941176471 812.75 624.7352941176471Q814.25 619.2352941176471 816.25 611.2352941176471Q822.25 589.2352941176471 828.25 557.2352941176471Q834.25 525.2352941176471 839.75 492.7352941176471Q845.25 460.2352941176471 848.25 435.7352941176471Q851.25 411.2352941176471 851.25 404.2352941176471V402.2352941176471Q851.25 395.2352941176471 846.25 393.2352941176471Q841.25 391.2352941176471 836.25 390.2352941176471Q831.25 433.2352941176471 818.75 477.7352941176471Q806.25 522.2352941176471 788.75 560.2352941176471Q771.25 598.2352941176471 752.25 621.7352941176471Q733.25 645.2352941176471 715.25 645.2352941176471ZM717.25 582.2352941176471Q747.25 582.2352941176471 767.25 559.2352941176471Q783.25 541.2352941176471 794.25 514.7352941176471Q805.25 488.2352941176471 811.75 461.2352941176471Q818.25 434.2352941176471 821.75 414.2352941176471Q825.25 394.2352941176471 826.25 389.2352941176471Q820.25 388.2352941176471 814.75 388.2352941176471Q809.25 388.2352941176471 804.25 388.2352941176471Q778.25 388.2352941176471 755.75 395.7352941176471Q733.25 403.2352941176471 716.25 415.2352941176471Q694.25 431.2352941176471 678.25 459.7352941176471Q662.25 488.2352941176471 662.25 518.2352941176471Q662.25 536.2352941176471 669.25 551.2352941176471Q676.25 567.2352941176471 689.25 574.7352941176471Q702.25 582.2352941176471 717.25 582.2352941176471ZM988.25 829.2352941176471Q981.25 829.2352941176471 981.25 819.2352941176471Q981.25 810.2352941176471 988.25 810.2352941176471Q1005.25 811.2352941176471 1018.25 812.2352941176471Q1031.25 813.2352941176471 1045.25 813.2352941176471Q1065.25 813.2352941176471 1079.75 795.2352941176471Q1094.25 777.2352941176471 1104.25 751.2352941176471Q1111.25 734.2352941176471 1119.25 695.7352941176471Q1127.25 657.2352941176471 1135.25 607.2352941176471Q1143.25 557.2352941176471 1150.75 502.7352941176471Q1158.25 448.2352941176471 1163.75 398.2352941176471Q1169.25 348.2352941176471 1172.75 310.2352941176471Q1176.25 272.2352941176471 1176.25 256.2352941176471Q1176.25 216.23529411764707 1152.75 207.23529411764707Q1129.25 198.23529411764707 1092.25 198.23529411764707H1058.25Q1045.25 198.23529411764707 1045.25 193.23529411764707Q1045.25 188.23529411764707 1050.75 184.73529411764707Q1056.25 181.23529411764707 1061.25 181.23529411764707L1124.25 182.23529411764707Q1159.25 183.23529411764707 1198.75 184.73529411764707Q1238.25 186.23529411764707 1272.25 186.23529411764707Q1285.25 186.23529411764707 1296.25 185.73529411764707Q1307.25 185.23529411764707 1317.25 184.23529411764707Q1339.25 182.23529411764707 1359.75 178.23529411764707Q1380.25 174.23529411764707 1401.25 174.23529411764707Q1419.25 174.23529411764707 1435.25 178.23529411764707Q1493.25 191.23529411764707 1517.75 233.73529411764707Q1542.25 276.2352941176471 1542.25 346.2352941176471Q1542.25 376.2352941176471 1536.75 415.7352941176471Q1531.25 455.2352941176471 1518.75 495.2352941176471Q1506.25 535.2352941176471 1483.25 569.2352941176471Q1460.25 603.2352941176471 1425.75 624.2352941176471Q1391.25 645.2352941176471 1342.25 645.2352941176471Q1300.25 645.2352941176471 1284.75 617.7352941176471Q1269.25 590.2352941176471 1269.25 550.2352941176471Q1269.25 530.2352941176471 1271.75 509.2352941176471Q1274.25 488.2352941176471 1278.25 467.2352941176471Q1289.25 410.2352941176471 1303.25 341.2352941176471Q1317.25 272.2352941176471 1332.25 211.23529411764707Q1324.25 212.23529411764707 1317.25 213.73529411764707Q1310.25 215.23529411764707 1304.25 216.23529411764707Q1299.25 227.23529411764707 1286.25 290.2352941176471Q1273.25 353.2352941176471 1254.25 460.2352941176471Q1246.25 505.2352941176471 1238.75 555.2352941176471Q1231.25 605.2352941176471 1225.75 651.2352941176471Q1220.25 697.2352941176471 1216.75 730.7352941176471Q1213.25 764.2352941176471 1213.25 778.2352941176471Q1214.25 794.2352941176471 1233.25 802.2352941176471Q1252.25 810.2352941176471 1279.25 812.7352941176471Q1306.25 815.2352941176471 1329.25 815.2352941176471Q1342.25 815.2352941176471 1352.75 814.7352941176471Q1363.25 814.2352941176471 1367.25 814.2352941176471H1368.25Q1374.25 814.2352941176471 1374.25 820.2352941176471Q1374.25 829.2352941176471 1360.25 829.2352941176471Q1355.25 829.2352941176471 1335.75 828.7352941176471Q1316.25 828.2352941176471 1289.25 827.2352941176471Q1262.25 826.2352941176471 1232.75 825.7352941176471Q1203.25 825.2352941176471 1179.25 825.2352941176471Q1171.25 825.2352941176471 1146.25 825.7352941176471Q1121.25 826.2352941176471 1090.25 826.7352941176471Q1059.25 827.2352941176471 1031.25 827.7352941176471Q1003.25 828.2352941176471 989.25 829.2352941176471ZM1344.25 622.2352941176471Q1382.25 622.2352941176471 1402.75 591.7352941176471Q1423.25 561.2352941176471 1430.75 514.7352941176471Q1438.25 468.2352941176471 1438.25 422.2352941176471Q1438.25 384.2352941176471 1435.25 352.7352941176471Q1432.25 321.2352941176471 1429.25 304.2352941176471Q1422.25 263.2352941176471 1404.25 235.73529411764707Q1386.25 208.23529411764707 1359.25 208.23529411764707Q1354.25 208.23529411764707 1346.25 210.23529411764707Q1330.25 274.2352941176471 1319.75 323.2352941176471Q1309.25 372.2352941176471 1304.25 394.2352941176471Q1300.25 415.2352941176471 1295.25 450.2352941176471Q1290.25 485.2352941176471 1290.25 521.2352941176471Q1290.25 561.2352941176471 1301.25 591.7352941176471Q1312.25 622.2352941176471 1344.25 622.2352941176471ZM1756.25 647.2352941176471Q1726.25 647.2352941176471 1696.25 635.2352941176471Q1666.25 623.2352941176471 1647.25 597.2352941176471Q1627.25 568.2352941176471 1617.25 529.7352941176471Q1607.25 491.2352941176471 1607.25 451.2352941176471Q1607.25 381.2352941176471 1633.25 323.2352941176471Q1652.25 280.2352941176471 1685.75 245.23529411764707Q1719.25 210.23529411764707 1759.25 189.23529411764707Q1799.25 168.23529411764707 1839.25 168.23529411764707Q1861.25 168.23529411764707 1881.75 175.23529411764707Q1902.25 182.23529411764707 1920.25 197.23529411764707Q1930.25 205.23529411764707 1936.75 213.23529411764707Q1943.25 221.23529411764707 1949.25 229.23529411764707Q1954.25 237.23529411764707 1954.25 243.23529411764707Q1954.25 250.23529411764707 1949.25 255.23529411764707Q1936.25 271.2352941176471 1921.75 300.2352941176471Q1907.25 329.2352941176471 1901.25 358.2352941176471Q1908.25 356.2352941176471 1935.25 353.7352941176471Q1962.25 351.2352941176471 1987.25 351.2352941176471Q1995.25 351.2352941176471 2001.75 351.7352941176471Q2008.25 352.2352941176471 2013.25 353.2352941176471Q2027.25 354.2352941176471 2027.25 361.2352941176471Q2027.25 368.2352941176471 2014.25 365.2352941176471Q2010.25 363.2352941176471 2004.25 363.2352941176471Q1998.25 363.2352941176471 1991.25 363.2352941176471Q1975.25 363.2352941176471 1955.75 365.2352941176471Q1936.25 367.2352941176471 1921.25 369.7352941176471Q1906.25 372.2352941176471 1901.25 373.2352941176471Q1901.25 377.2352941176471 1900.25 380.2352941176471Q1898.25 395.2352941176471 1890.25 395.2352941176471Q1884.25 395.2352941176471 1885.25 382.2352941176471Q1886.25 380.2352941176471 1886.25 375.2352941176471Q1830.25 385.2352941176471 1783.75 402.2352941176471Q1737.25 419.2352941176471 1697.25 441.2352941176471Q1715.25 512.2352941176471 1749.75 538.7352941176471Q1784.25 565.2352941176471 1821.25 565.2352941176471Q1855.25 565.2352941176471 1884.75 549.7352941176471Q1914.25 534.2352941176471 1930.25 518.2352941176471Q1933.25 515.2352941176471 1935.25 515.2352941176471Q1938.25 515.2352941176471 1938.25 520.2352941176471Q1938.25 525.2352941176471 1929.25 534.2352941176471Q1920.25 543.2352941176471 1907.75 552.7352941176471Q1895.25 562.2352941176471 1886.25 568.2352941176471Q1866.25 581.2352941176471 1849.25 604.7352941176471Q1832.25 628.2352941176471 1809.25 637.2352941176471Q1784.25 647.2352941176471 1756.25 647.2352941176471ZM1693.25 412.2352941176471Q1738.25 395.2352941176471 1787.75 380.7352941176471Q1837.25 366.2352941176471 1889.25 359.2352941176471Q1892.25 286.2352941176471 1864.25 251.23529411764707Q1836.25 216.23529411764707 1800.25 216.23529411764707Q1774.25 216.23529411764707 1748.75 234.73529411764707Q1723.25 253.23529411764707 1707.25 288.2352941176471Q1691.25 323.2352941176471 1691.25 375.2352941176471Q1691.25 384.2352941176471 1691.75 393.2352941176471Q1692.25 402.2352941176471 1693.25 412.2352941176471ZM2099.25 658.2352941176471Q2070.25 658.2352941176471 2045.75 650.2352941176471Q2021.25 642.2352941176471 2004.25 624.2352941176471Q1997.25 616.2352941176471 1985.25 603.2352941176471Q1973.25 590.2352941176471 1973.25 577.2352941176471Q1973.25 570.2352941176471 1977.25 565.2352941176471Q1991.25 546.2352941176471 2005.75 528.7352941176471Q2020.25 511.2352941176471 2033.25 473.2352941176471Q2036.25 465.2352941176471 2038.25 455.7352941176471Q2040.25 446.2352941176471 2047.25 450.2352941176471Q2050.25 451.2352941176471 2047.75 465.2352941176471Q2045.25 479.2352941176471 2045.25 488.2352941176471Q2045.25 521.2352941176471 2062.25 548.7352941176471Q2079.25 576.2352941176471 2107.25 593.2352941176471Q2135.25 610.2352941176471 2168.25 610.2352941176471Q2194.25 610.2352941176471 2218.25 596.2352941176471Q2242.25 582.2352941176471 2257.75 557.2352941176471Q2273.25 532.2352941176471 2273.25 499.2352941176471Q2273.25 474.2352941176471 2258.25 459.7352941176471Q2243.25 445.2352941176471 2220.75 438.2352941176471Q2198.25 431.2352941176471 2173.75 428.2352941176471Q2149.25 425.2352941176471 2131.25 424.2352941176471Q2073.25 419.2352941176471 2042.75 394.7352941176471Q2012.25 370.2352941176471 2012.25 341.2352941176471Q2012.25 310.2352941176471 2035.75 280.2352941176471Q2059.25 250.23529411764707 2096.75 225.73529411764707Q2134.25 201.23529411764707 2179.75 186.73529411764707Q2225.25 172.23529411764707 2268.25 172.23529411764707Q2301.25 172.23529411764707 2330.25 181.73529411764707Q2359.25 191.23529411764707 2380.25 214.23529411764707Q2392.25 226.23529411764707 2392.25 237.23529411764707Q2392.25 245.23529411764707 2387.75 253.23529411764707Q2383.25 261.2352941176471 2380.25 271.2352941176471Q2380.25 271.2352941176471 2371.25 281.2352941176471Q2362.25 291.2352941176471 2350.75 307.2352941176471Q2339.25 323.2352941176471 2330.25 342.2352941176471Q2326.25 351.2352941176471 2322.25 351.2352941176471Q2319.25 351.2352941176471 2319.25 346.2352941176471Q2319.25 342.2352941176471 2322.25 336.2352941176471Q2323.25 333.2352941176471 2324.25 325.7352941176471Q2325.25 318.2352941176471 2325.25 308.2352941176471Q2325.25 287.2352941176471 2316.25 261.7352941176471Q2307.25 236.23529411764707 2276.25 221.23529411764707Q2254.25 210.23529411764707 2229.25 210.23529411764707Q2204.25 210.23529411764707 2180.75 220.73529411764707Q2157.25 231.23529411764707 2141.75 251.23529411764707Q2126.25 271.2352941176471 2126.25 300.2352941176471Q2126.25 336.2352941176471 2147.75 352.2352941176471Q2169.25 368.2352941176471 2200.25 372.2352941176471Q2231.25 376.2352941176471 2257.25 376.2352941176471Q2290.25 376.2352941176471 2318.75 380.2352941176471Q2347.25 384.2352941176471 2364.75 398.2352941176471Q2382.25 412.2352941176471 2382.25 443.2352941176471Q2382.25 486.2352941176471 2355.25 525.2352941176471Q2328.25 564.2352941176471 2285.75 594.2352941176471Q2243.25 624.2352941176471 2193.75 641.2352941176471Q2144.25 658.2352941176471 2099.25 658.2352941176471ZM2591.25 646.2352941176471Q2538.25 646.2352941176471 2514.25 617.7352941176471Q2490.25 589.2352941176471 2490.25 531.2352941176471Q2490.25 521.2352941176471 2490.75 511.2352941176471Q2491.25 501.2352941176471 2492.25 490.2352941176471Q2500.25 415.2352941176471 2510.25 347.7352941176471Q2520.25 280.2352941176471 2530.25 213.23529411764707H2466.25Q2462.25 213.23529411764707 2465.75 205.73529411764707Q2469.25 198.23529411764707 2475.75 190.73529411764707Q2482.25 183.23529411764707 2486.25 183.23529411764707H2534.25Q2535.25 169.23529411764707 2536.75 160.23529411764707Q2538.25 151.23529411764707 2538.25 133.23529411764707Q2538.25 104.23529411764707 2527.75 94.23529411764707Q2517.25 84.23529411764707 2491.25 84.23529411764707Q2484.25 84.23529411764707 2476.25 85.23529411764707Q2468.25 86.23529411764707 2458.25 86.23529411764707H2457.25Q2449.25 86.23529411764707 2449.25 78.23529411764707Q2449.25 70.23529411764707 2458.25 70.23529411764707H2497.25Q2530.25 70.23529411764707 2571.75 69.23529411764707Q2613.25 68.23529411764707 2647.25 68.23529411764707Q2655.25 68.23529411764707 2655.25 76.23529411764707Q2655.25 80.23529411764707 2654.25 88.73529411764707Q2653.25 97.23529411764707 2651.25 110.23529411764707Q2650.25 116.23529411764707 2646.25 132.73529411764707Q2642.25 149.23529411764707 2636.25 181.23529411764707H2788.25Q2795.25 181.23529411764707 2791.75 189.23529411764707Q2788.25 197.23529411764707 2780.75 205.23529411764707Q2773.25 213.23529411764707 2768.25 213.23529411764707H2632.25Q2632.25 217.23529411764707 2628.25 245.23529411764707Q2624.25 273.2352941176471 2618.25 314.2352941176471Q2612.25 355.2352941176471 2605.75 400.2352941176471Q2599.25 445.2352941176471 2594.25 482.2352941176471Q2592.25 495.2352941176471 2589.75 514.2352941176471Q2587.25 533.2352941176471 2587.25 551.2352941176471Q2587.25 575.2352941176471 2595.75 593.7352941176471Q2604.25 612.2352941176471 2630.25 612.2352941176471Q2659.25 612.2352941176471 2680.75 581.7352941176471Q2702.25 551.2352941176471 2715.25 511.2352941176471Q2726.25 479.2352941176471 2733.25 445.2352941176471Q2740.25 411.2352941176471 2742.25 392.2352941176471Q2742.25 383.2352941176471 2749.25 383.2352941176471Q2759.25 383.2352941176471 2756.25 396.2352941176471L2741.25 469.2352941176471Q2732.25 513.2352941176471 2717.75 552.2352941176471Q2703.25 591.2352941176471 2677.75 616.2352941176471Q2652.25 641.2352941176471 2610.25 645.2352941176471Q2605.25 646.2352941176471 2600.75 646.2352941176471Q2596.25 646.2352941176471 2591.25 646.2352941176471ZM2795.25 640.2352941176471Q2787.25 640.2352941176471 2778.25 639.7352941176471Q2769.25 639.2352941176471 2758.25 639.2352941176471H2757.25Q2754.25 639.2352941176471 2754.25 636.2352941176471Q2754.25 632.2352941176471 2759.25 626.7352941176471Q2764.25 621.2352941176471 2768.25 621.2352941176471Q2781.25 621.2352941176471 2791.75 621.7352941176471Q2802.25 622.2352941176471 2810.25 622.2352941176471Q2835.25 622.2352941176471 2849.25 614.7352941176471Q2863.25 607.2352941176471 2873.75 580.7352941176471Q2884.25 554.2352941176471 2895.25 498.2352941176471Q2903.25 460.2352941176471 2907.75 416.7352941176471Q2912.25 373.2352941176471 2915.25 332.2352941176471Q2918.25 291.2352941176471 2919.25 262.2352941176471Q2919.25 252.23529411764707 2917.75 238.73529411764707Q2916.25 225.23529411764707 2908.75 213.73529411764707Q2901.25 202.23529411764707 2883.25 201.23529411764707Q2865.25 199.23529411764707 2837.25 199.23529411764707Q2809.25 199.23529411764707 2793.25 199.23529411764707Q2787.25 199.23529411764707 2787.25 194.23529411764707Q2787.25 190.23529411764707 2790.75 186.23529411764707Q2794.25 182.23529411764707 2800.25 182.23529411764707Q2846.25 182.23529411764707 2891.75 180.73529411764707Q2937.25 179.23529411764707 2983.25 179.23529411764707Q2997.25 179.23529411764707 3011.25 179.23529411764707Q3025.25 179.23529411764707 3038.25 180.23529411764707Q3049.25 180.23529411764707 3049.25 184.23529411764707Q3049.25 186.23529411764707 3048.25 188.73529411764707Q3047.25 191.23529411764707 3046.25 195.23529411764707Q3044.25 205.23529411764707 3039.25 226.73529411764707Q3034.25 248.23529411764707 3029.25 272.7352941176471Q3024.25 297.2352941176471 3020.25 318.2352941176471Q3016.25 339.2352941176471 3014.25 349.2352941176471Q3004.25 419.2352941176471 2995.75 477.7352941176471Q2987.25 536.2352941176471 2987.25 574.2352941176471Q2987.25 603.2352941176471 2996.25 603.2352941176471Q3001.25 603.2352941176471 3003.25 595.2352941176471Q3010.25 568.2352941176471 3016.75 526.7352941176471Q3023.25 485.2352941176471 3031.25 437.2352941176471Q3039.25 389.2352941176471 3050.75 341.7352941176471Q3062.25 294.2352941176471 3078.75 254.73529411764707Q3095.25 215.23529411764707 3119.75 191.73529411764707Q3144.25 168.23529411764707 3178.25 168.23529411764707Q3198.25 168.23529411764707 3213.75 171.73529411764707Q3229.25 175.23529411764707 3244.25 175.23529411764707Q3258.25 175.23529411764707 3268.75 172.23529411764707Q3279.25 169.23529411764707 3283.25 166.23529411764707Q3286.25 163.23529411764707 3288.25 163.23529411764707Q3289.25 163.23529411764707 3289.25 166.23529411764707Q3289.25 171.23529411764707 3287.25 174.23529411764707Q3282.25 186.23529411764707 3267.75 207.23529411764707Q3253.25 228.23529411764707 3237.25 245.73529411764707Q3221.25 263.2352941176471 3211.25 267.2352941176471Q3201.25 271.2352941176471 3190.25 273.2352941176471Q3179.25 275.2352941176471 3168.25 275.2352941176471Q3157.25 275.2352941176471 3145.75 273.7352941176471Q3134.25 272.2352941176471 3122.25 271.2352941176471Q3103.25 268.2352941176471 3089.75 288.7352941176471Q3076.25 309.2352941176471 3066.25 344.2352941176471Q3056.25 379.2352941176471 3048.75 420.2352941176471Q3041.25 461.2352941176471 3035.75 501.2352941176471Q3030.25 541.2352941176471 3024.75 572.2352941176471Q3019.25 603.2352941176471 3012.25 616.2352941176471Q3023.25 618.2352941176471 3041.75 619.7352941176471Q3060.25 621.2352941176471 3077.75 621.7352941176471Q3095.25 622.2352941176471 3103.25 622.2352941176471H3104.25Q3109.25 622.2352941176471 3109.25 626.2352941176471Q3109.25 630.2352941176471 3104.25 634.7352941176471Q3099.25 639.2352941176471 3093.25 639.2352941176471Q3051.25 639.2352941176471 3010.75 637.2352941176471Q2970.25 635.2352941176471 2929.25 635.2352941176471Q2919.25 635.2352941176471 2908.75 635.2352941176471Q2898.25 635.2352941176471 2887.25 636.2352941176471Q2868.25 637.2352941176471 2848.25 638.7352941176471Q2828.25 640.2352941176471 2795.25 640.2352941176471ZM3331.25 857.2352941176471Q3312.25 857.2352941176471 3296.75 854.2352941176471Q3281.25 851.2352941176471 3272.25 844.2352941176471Q3265.25 839.2352941176471 3254.25 828.7352941176471Q3243.25 818.2352941176471 3243.25 807.2352941176471Q3243.25 801.2352941176471 3246.25 797.2352941176471Q3254.25 785.2352941176471 3262.25 778.7352941176471Q3270.25 772.2352941176471 3277.75 762.2352941176471Q3285.25 752.2352941176471 3291.25 730.2352941176471Q3293.25 722.2352941176471 3294.25 714.7352941176471Q3295.25 707.2352941176471 3302.25 709.2352941176471Q3304.25 709.2352941176471 3304.25 715.2352941176471Q3304.25 720.2352941176471 3303.25 727.7352941176471Q3302.25 735.2352941176471 3302.25 740.2352941176471Q3302.25 754.2352941176471 3307.25 766.7352941176471Q3312.25 779.2352941176471 3319.25 788.2352941176471Q3327.25 797.2352941176471 3338.25 801.2352941176471Q3349.25 805.2352941176471 3361.25 805.2352941176471Q3398.25 805.2352941176471 3421.25 782.2352941176471Q3477.25 726.2352941176471 3477.25 654.2352941176471Q3477.25 626.2352941176471 3468.25 599.2352941176471Q3456.25 561.2352941176471 3438.75 511.7352941176471Q3421.25 462.2352941176471 3403.25 413.2352941176471Q3385.25 364.2352941176471 3370.75 325.7352941176471Q3356.25 287.2352941176471 3349.25 269.2352941176471Q3338.25 242.23529411764707 3328.25 226.73529411764707Q3318.25 211.23529411764707 3302.25 204.73529411764707Q3286.25 198.23529411764707 3257.25 198.23529411764707H3256.25Q3251.25 198.23529411764707 3251.25 194.23529411764707Q3251.25 190.23529411764707 3255.25 185.73529411764707Q3259.25 181.23529411764707 3264.25 181.23529411764707Q3303.25 181.23529411764707 3348.25 182.73529411764707Q3393.25 184.23529411764707 3439.25 184.23529411764707Q3489.25 184.23529411764707 3506.25 182.73529411764707Q3523.25 181.23529411764707 3531.25 181.23529411764707Q3533.25 181.23529411764707 3533.25 183.23529411764707Q3533.25 187.23529411764707 3528.75 193.73529411764707Q3524.25 200.23529411764707 3520.25 200.23529411764707Q3508.25 200.23529411764707 3492.75 201.73529411764707Q3477.25 203.23529411764707 3465.25 209.23529411764707Q3453.25 215.23529411764707 3453.25 232.23529411764707Q3453.25 235.23529411764707 3453.75 238.23529411764707Q3454.25 241.23529411764707 3455.25 244.23529411764707Q3467.25 291.2352941176471 3484.75 340.7352941176471Q3502.25 390.2352941176471 3520.75 436.2352941176471Q3539.25 482.2352941176471 3552.25 519.2352941176471Q3578.25 459.2352941176471 3598.75 401.2352941176471Q3619.25 343.2352941176471 3644.25 285.2352941176471Q3657.25 255.23529411764707 3657.25 236.23529411764707Q3657.25 215.23529411764707 3645.25 207.73529411764707Q3633.25 200.23529411764707 3617.25 199.73529411764707Q3601.25 199.23529411764707 3587.25 200.23529411764707Q3583.25 200.23529411764707 3583.25 197.23529411764707Q3583.25 193.23529411764707 3589.75 187.23529411764707Q3596.25 181.23529411764707 3600.25 181.23529411764707Q3608.25 181.23529411764707 3621.25 181.73529411764707Q3634.25 182.23529411764707 3665.25 182.23529411764707H3708.25Q3758.25 182.23529411764707 3780.25 181.73529411764707Q3802.25 181.23529411764707 3809.25 181.23529411764707Q3812.25 181.23529411764707 3812.25 185.23529411764707Q3812.25 189.23529411764707 3807.75 194.73529411764707Q3803.25 200.23529411764707 3799.25 200.23529411764707Q3797.25 200.23529411764707 3792.75 199.73529411764707Q3788.25 199.23529411764707 3782.25 199.23529411764707Q3768.25 199.23529411764707 3748.75 207.73529411764707Q3729.25 216.23529411764707 3710.25 248.23529411764707Q3695.25 275.2352941176471 3676.25 319.7352941176471Q3657.25 364.2352941176471 3635.75 417.7352941176471Q3614.25 471.2352941176471 3592.25 525.2352941176471Q3572.25 574.2352941176471 3551.75 622.7352941176471Q3531.25 671.2352941176471 3511.25 712.2352941176471Q3492.25 750.2352941176471 3469.25 783.7352941176471Q3446.25 817.2352941176471 3413.25 837.2352941176471Q3380.25 857.2352941176471 3331.25 857.2352941176471Z" fill="currentColor" /></svg>