<svg viewBox="0 0 4695 1711" xmlns="http://www.w3.org/2000/svg"><path d="M372 319H0V117H988V319H617V1688H372ZM1140 1380Q1140 1196 1267.5 1099.5Q1395 1003 1643 1003H1787V941Q1787 886 1774.5 844.5Q1762 803 1734.5 775.0Q1707 747 1662.5 732.5Q1618 718 1554 718Q1510 718 1471.0 725.0Q1432 732 1394.0 744.0Q1356 756 1316.5 773.0Q1277 790 1233 809V610Q1272 591 1313.0 576.0Q1354 561 1400.0 550.5Q1446 540 1498.0 535.0Q1550 530 1611 530Q1822 530 1925.5 637.0Q2029 744 2029 949V1428Q2029 1465 2029.0 1497.0Q2029 1529 2031.5 1560.0Q2034 1591 2040.0 1622.5Q2046 1654 2058 1688H1811Q1801 1661 1796.0 1630.0Q1791 1599 1789 1567Q1736 1633 1660.5 1672.0Q1585 1711 1484 1711Q1406 1711 1342.5 1684.0Q1279 1657 1234.0 1611.5Q1189 1566 1164.5 1506.0Q1140 1446 1140 1380ZM1385 1347Q1385 1380 1395.0 1411.5Q1405 1443 1426.5 1468.0Q1448 1493 1482.0 1508.0Q1516 1523 1564 1523Q1625 1523 1683.0 1498.0Q1741 1473 1787 1422V1166H1652Q1577 1166 1526.0 1179.0Q1475 1192 1443.5 1216.0Q1412 1240 1398.5 1273.5Q1385 1307 1385 1347ZM2363 553H2605V1267Q2605 1397 2648.0 1460.0Q2691 1523 2789 1523Q2855 1523 2913.0 1493.5Q2971 1464 3014 1402V553H3256V1688H3041L3028 1568Q2981 1633 2907.0 1672.0Q2833 1711 2720 1711Q2543 1711 2453.0 1603.5Q2363 1496 2363 1275ZM3596 553H3809L3823 684Q3878 612 3957.5 571.5Q4037 531 4134 531Q4173 531 4188 538V791Q4154 774 4109.0 768.0Q4064 762 4016.0 770.0Q3968 778 3921.5 802.5Q3875 827 3838 870V1688H3596ZM4534 303Q4498 303 4469.0 292.0Q4440 281 4419.0 261.0Q4398 241 4387.0 213.0Q4376 185 4376 151Q4376 117 4387.0 89.5Q4398 62 4419.0 42.0Q4440 22 4469.0 11.0Q4498 0 4534 0Q4608 0 4651.5 41.5Q4695 83 4695 151Q4695 219 4651.5 261.0Q4608 303 4534 303ZM4414 553H4654V1688H4414Z" fill="currentColor" /></svg>