<svg viewBox="0 0 4902 2560" xmlns="http://www.w3.org/2000/svg"><path d="M438 671H66V469H1054V671H683V2040H438ZM1206 1732Q1206 1548 1333.5 1451.5Q1461 1355 1709 1355H1853V1293Q1853 1238 1840.5 1196.5Q1828 1155 1800.5 1127.0Q1773 1099 1728.5 1084.5Q1684 1070 1620 1070Q1576 1070 1537.0 1077.0Q1498 1084 1460.0 1096.0Q1422 1108 1382.5 1125.0Q1343 1142 1299 1161V962Q1338 943 1379.0 928.0Q1420 913 1466.0 902.5Q1512 892 1564.0 887.0Q1616 882 1677 882Q1888 882 1991.5 989.0Q2095 1096 2095 1301V1780Q2095 1817 2095.0 1849.0Q2095 1881 2097.5 1912.0Q2100 1943 2106.0 1974.5Q2112 2006 2124 2040H1877Q1867 2013 1862.0 1982.0Q1857 1951 1855 1919Q1802 1985 1726.5 2024.0Q1651 2063 1550 2063Q1472 2063 1408.5 2036.0Q1345 2009 1300.0 1963.5Q1255 1918 1230.5 1858.0Q1206 1798 1206 1732ZM1451 1699Q1451 1732 1461.0 1763.5Q1471 1795 1492.5 1820.0Q1514 1845 1548.0 1860.0Q1582 1875 1630 1875Q1691 1875 1749.0 1850.0Q1807 1825 1853 1774V1518H1718Q1643 1518 1592.0 1531.0Q1541 1544 1509.5 1568.0Q1478 1592 1464.5 1625.5Q1451 1659 1451 1699ZM2429 905H2671V1619Q2671 1749 2714.0 1812.0Q2757 1875 2855 1875Q2921 1875 2979.0 1845.5Q3037 1816 3080 1754V905H3322V2040H3107L3094 1920Q3047 1985 2973.0 2024.0Q2899 2063 2786 2063Q2609 2063 2519.0 1955.5Q2429 1848 2429 1627ZM3662 905H3875L3889 1036Q3944 964 4023.5 923.5Q4103 883 4200 883Q4239 883 4254 890V1143Q4220 1126 4175.0 1120.0Q4130 1114 4082.0 1122.0Q4034 1130 3987.5 1154.5Q3941 1179 3904 1222V2040H3662ZM4600 655Q4564 655 4535.0 644.0Q4506 633 4485.0 613.0Q4464 593 4453.0 565.0Q4442 537 4442 503Q4442 469 4453.0 441.5Q4464 414 4485.0 394.0Q4506 374 4535.0 363.0Q4564 352 4600 352Q4674 352 4717.5 393.5Q4761 435 4761 503Q4761 571 4717.5 613.0Q4674 655 4600 655ZM4480 905H4720V2040H4480Z" fill="currentColor" /></svg>