<svg viewBox="0 0 5012 377.0" xmlns="http://www.w3.org/2000/svg"><path d="M260 42Q216 35 187 35H157Q155 46 155 56V299Q155 338 162 372H98Q105 338 105 299V56Q105 46 103 35H73Q44 35 0 42V5H260ZM526 286V333Q489 377 425.0 377.0Q361 377 325.5 334.0Q290 291 290.0 238.5Q290 186 324 143Q360 100 421.0 100.0Q482 100 518 148Q541 183 541 238L540 253H343Q346 296 365 317Q388 346 431 346Q489 346 523 286ZM491 223Q491 181 475 160Q452 130 418.5 130.0Q385 130 365 160Q346 182 343 223ZM608 372Q614 336 614 299V185Q614 149 608 112L671 100Q668 110 666 132Q692 100 744.0 100.0Q796 100 827 138Q850 166 850 213V299Q850 338 857 372H794Q801 336 801 299V213Q801 176 790 161Q772 130 732 130Q692 130 674 161Q663 176 663 213V299Q663 338 671 372ZM1179 299Q1179 330 1186 372H1123Q1125 366 1125.5 359.0Q1126 352 1127 345Q1099 377 1053 377Q994 377 958.5 334.0Q923 291 923.0 238.5Q923 186 957 143Q993 100 1048.0 100.0Q1103 100 1126 130Q1126 121 1123 112L1186 100Q1179 142 1179 173ZM1109 160Q1087 130 1052.5 130.0Q1018 130 998 160Q976 186 976 238Q976 290 998 317Q1018 346 1052.5 346.0Q1087 346 1108.5 318.0Q1130 290 1130 238Q1130 186 1109 160ZM1270 372Q1276 336 1276 299V85Q1276 50 1270 12L1333 0Q1325 33 1325 73V299Q1325 338 1333 372ZM1416 372Q1422 336 1422 299V185Q1422 149 1416 112L1479 100Q1471 133 1471 173V299Q1471 338 1479 372ZM1447 65Q1434 65 1425.0 55.5Q1416 46 1416.0 33.0Q1416 20 1424 9Q1435 0 1447 0Q1459 0 1469 9Q1479 18 1479.0 31.5Q1479 45 1469.5 55.0Q1460 65 1447 65ZM1815 35Q1812 68 1812 77V193H1841Q1877 193 1898.5 171.5Q1920 150 1920.0 115.0Q1920 80 1900 58Q1875 35 1841 35ZM1859 223 1841 224H1812V299Q1812 338 1820 372H1757Q1763 336 1763 299V77Q1763 42 1757 5H1841Q1901 5 1936 36Q1973 67 1973.0 114.5Q1973 162 1936 193Q1929 198 1922.0 203.0Q1915 208 1907 211L1976 315Q1997 346 2022 372H1949Q1930 328 1914 307ZM2303 299Q2303 330 2310 372H2247Q2249 366 2249.5 359.0Q2250 352 2251 345Q2223 377 2177 377Q2118 377 2082.5 334.0Q2047 291 2047.0 238.5Q2047 186 2081 143Q2117 100 2172.0 100.0Q2227 100 2250 130Q2250 121 2247 112L2310 100Q2303 142 2303 173ZM2233 160Q2211 130 2176.5 130.0Q2142 130 2122 160Q2100 186 2100 238Q2100 290 2122 317Q2142 346 2176.5 346.0Q2211 346 2232.5 318.0Q2254 290 2254 238Q2254 186 2233 160ZM2687 130Q2625 130 2625 213V299Q2625 338 2633 372H2569Q2576 336 2576 299V213Q2576 175 2565 160Q2548 130 2512.5 130.0Q2477 130 2460 159Q2449 176 2449 213V299Q2449 338 2457 372H2394Q2400 336 2400 299V185Q2400 149 2394 112L2457 100Q2454 110 2452 132Q2481 100 2528.0 100.0Q2575 100 2604 140Q2637 100 2692.0 100.0Q2747 100 2778 138Q2800 168 2800 213V299Q2800 338 2807 372H2744Q2752 338 2752 299V213Q2752 178 2741 160Q2722 130 2687 130ZM3130 299Q3130 330 3137 372H3074Q3076 366 3076.5 359.0Q3077 352 3078 345Q3050 377 3004 377Q2945 377 2909.5 334.0Q2874 291 2874.0 238.5Q2874 186 2908 143Q2944 100 2999.0 100.0Q3054 100 3077 130Q3077 121 3074 112L3137 100Q3130 142 3130 173ZM3060 160Q3038 130 3003.5 130.0Q2969 130 2949 160Q2927 186 2927 238Q2927 290 2949 317Q2969 346 3003.5 346.0Q3038 346 3059.5 318.0Q3081 290 3081 238Q3081 186 3060 160ZM3221 372Q3227 336 3227 299V85Q3227 50 3221 12L3284 0Q3276 33 3276 73V218L3336 162Q3364 137 3383 104H3447Q3417 128 3391 152L3317 221L3430 327Q3463 356 3488 372H3400Q3383 344 3351 316L3285 255L3276 265V299Q3276 338 3284 372ZM3530 372Q3536 336 3536 299V185Q3536 149 3530 112L3593 100Q3590 110 3588 132Q3614 100 3653 100Q3675 100 3695 110V165H3693Q3673 130 3643.5 130.0Q3614 130 3596 161Q3585 176 3585 213V299Q3585 338 3593 372ZM3742 372Q3748 336 3748 299V185Q3748 149 3742 112L3805 100Q3797 133 3797 173V299Q3797 338 3805 372ZM3773 65Q3760 65 3751.0 55.5Q3742 46 3742.0 33.0Q3742 20 3750 9Q3761 0 3773 0Q3785 0 3795 9Q3805 18 3805.0 31.5Q3805 45 3795.5 55.0Q3786 65 3773 65ZM4005 164Q3990 130 3960 130Q3947 130 3936.0 136.5Q3925 143 3925.0 159.5Q3925 176 3950 191L3995 218Q4041 245 4041.0 287.5Q4041 330 4012.0 353.5Q3983 377 3948 377Q3906 375 3896 369Q3874 355 3865 346V282H3867Q3890 346 3947 346Q3969 346 3983.0 332.0Q3997 318 3997.0 295.5Q3997 273 3972 258L3933 235Q3883 205 3883 163Q3883 134 3907 114Q3925 100 3955 100Q3985 100 4007 114V164ZM4102 372Q4108 336 4108 299V85Q4108 50 4102 12L4165 0Q4157 33 4157 73V134Q4185 100 4237.5 100.0Q4290 100 4321 138Q4344 166 4344 213V299Q4344 338 4351 372H4288Q4295 336 4295 299V213Q4295 176 4284 161Q4266 130 4226 130Q4186 130 4168 161Q4157 176 4157 213V299Q4157 338 4165 372ZM4434 372Q4440 336 4440 299V185Q4440 149 4434 112L4497 100Q4494 110 4492 132Q4518 100 4570.0 100.0Q4622 100 4653 138Q4676 166 4676 213V299Q4676 338 4683 372H4620Q4627 336 4627 299V213Q4627 176 4616 161Q4598 130 4558 130Q4518 130 4500 161Q4489 176 4489 213V299Q4489 338 4497 372ZM5005 299Q5005 330 5012 372H4949Q4951 366 4951.5 359.0Q4952 352 4953 345Q4925 377 4879 377Q4820 377 4784.5 334.0Q4749 291 4749.0 238.5Q4749 186 4783 143Q4819 100 4874.0 100.0Q4929 100 4952 130Q4952 121 4949 112L5012 100Q5005 142 5005 173ZM4935 160Q4913 130 4878.5 130.0Q4844 130 4824 160Q4802 186 4802 238Q4802 290 4824 317Q4844 346 4878.5 346.0Q4913 346 4934.5 318.0Q4956 290 4956 238Q4956 186 4935 160Z" fill="currentColor" /></svg>