<svg viewBox="0 0 5402 732.0" xmlns="http://www.w3.org/2000/svg"><path d="M236 106H246Q266 106 266 125V710Q266 718 260.5 724.0Q255 730 246 730H236Q227 730 221.5 724.0Q216 718 216 710V125Q216 106 236 106ZM20 30H464Q473 30 478.5 36.0Q484 42 484 50V61Q484 79 464 79H20Q0 79 0 61V50Q0 42 6.0 36.0Q12 30 20 30ZM909 393V453Q909 496 868 496H652Q643 496 637.5 490.0Q632 484 632 476V468Q632 460 637.5 454.0Q643 448 652 448H862V394Q862 337 827.0 306.5Q792 276 738.0 276.0Q684 276 648.5 306.5Q613 337 613 394V566Q613 623 648.5 653.5Q684 684 737.5 684.0Q791 684 826.5 654.5Q862 625 862 570Q862 562 867.5 556.0Q873 550 881 550H889Q898 550 903.5 556.0Q909 562 909 570Q908 647 861.0 689.5Q814 732 738.0 732.0Q662 732 613.5 688.5Q565 645 565 567V393Q565 314 613.0 271.0Q661 228 738.0 228.0Q815 228 862.0 271.5Q909 315 909 393ZM1336 230H1347Q1358 230 1363.0 240.5Q1368 251 1363 261Q1341 295 1295.5 365.0Q1250 435 1229 469V468Q1223 477 1222 478L1228 488V487L1370 699Q1373 704 1373 709Q1373 730 1353 730H1343Q1334 730 1326 722L1194 521Q1172 555 1127.5 621.5Q1083 688 1061 722Q1053 730 1044 730H1034Q1021 730 1017.5 722.5Q1014 715 1014.0 710.0Q1014 705 1017 699L1159 486V487L1165 478Q1160 471 1158 468L1024 261Q1019 251 1024.0 240.5Q1029 230 1040 230H1050Q1059 230 1067 238L1194 434L1320 238Q1328 230 1336 230ZM1540 0H1548Q1567 0 1567 19L1564 576Q1565 627 1592.5 655.0Q1620 683 1665 683H1690Q1698 683 1703.5 689.0Q1709 695 1709 702V710Q1709 730 1664 730Q1598 730 1558.0 689.5Q1518 649 1517 577L1520 19Q1522 0 1540 0ZM1463 230H1487Q1496 230 1501.5 236.0Q1507 242 1507 250V256Q1507 264 1501.5 270.0Q1496 276 1487 276H1463Q1454 276 1448.5 270.0Q1443 264 1443 256V250Q1443 242 1448.5 236.0Q1454 230 1463 230ZM1597 230H1671Q1679 230 1684.5 236.0Q1690 242 1690 250V256Q1690 264 1684.5 270.0Q1679 276 1671 276H1597Q1589 276 1583.0 270.0Q1577 264 1577 256V250Q1577 242 1583.0 236.0Q1589 230 1597 230ZM2801 27Q2817 27 2829.0 37.5Q2841 48 2841 70V710Q2841 718 2835.5 724.0Q2830 730 2821 730H2812Q2803 730 2797.5 724.0Q2792 718 2792 710V115L2618 545Q2607 571 2582 574Q2553 574 2541 546L2357 111V710Q2357 718 2351.0 724.0Q2345 730 2337 730H2327Q2319 730 2313.5 724.0Q2308 718 2308 710V70Q2308 27 2347 27Q2374 27 2387 57L2579 510L2761 57Q2775 27 2801 27ZM3327 393V453Q3327 496 3286 496H3070Q3061 496 3055.5 490.0Q3050 484 3050 476V468Q3050 460 3055.5 454.0Q3061 448 3070 448H3280V394Q3280 337 3245.0 306.5Q3210 276 3156.0 276.0Q3102 276 3066.5 306.5Q3031 337 3031 394V566Q3031 623 3066.5 653.5Q3102 684 3155.5 684.0Q3209 684 3244.5 654.5Q3280 625 3280 570Q3280 562 3285.5 556.0Q3291 550 3299 550H3307Q3316 550 3321.5 556.0Q3327 562 3327 570Q3326 647 3279.0 689.5Q3232 732 3156.0 732.0Q3080 732 3031.5 688.5Q2983 645 2983 567V393Q2983 314 3031.0 271.0Q3079 228 3156.0 228.0Q3233 228 3280.0 271.5Q3327 315 3327 393ZM4440 276V479Q4440 542 4421.5 590.0Q4403 638 4376.5 664.0Q4350 690 4315 706Q4259 731 4197 731Q4132 731 4086.5 709.0Q4041 687 4015.0 661.0Q3989 635 3971.0 587.5Q3953 540 3953 479V276Q3953 213 3971.5 166.0Q3990 119 4016.0 94.0Q4042 69 4078.0 53.5Q4114 38 4141.0 34.0Q4168 30 4196.5 30.0Q4225 30 4253.0 34.5Q4281 39 4316.5 55.0Q4352 71 4378.0 96.5Q4404 122 4422.0 168.5Q4440 215 4440 276ZM4002 280V476Q4002 527 4016.5 566.0Q4031 605 4052.5 626.5Q4074 648 4102.0 661.0Q4130 674 4152.5 678.0Q4175 682 4197.0 682.0Q4219 682 4241.5 678.0Q4264 674 4292.0 661.0Q4320 648 4341.0 626.5Q4362 605 4376.5 566.0Q4391 527 4391 476V280Q4391 229 4376.0 190.5Q4361 152 4340.0 131.5Q4319 111 4290.5 98.5Q4262 86 4240.5 82.5Q4219 79 4196.5 79.0Q4174 79 4152.0 82.5Q4130 86 4101.5 98.5Q4073 111 4052.0 131.5Q4031 152 4016.5 190.5Q4002 229 4002 280ZM4757 228Q4832 228 4872.0 267.5Q4912 307 4912 383V710Q4912 730 4893 730H4885Q4865 730 4865 710V394Q4865 275 4756 275Q4699 275 4659 320Q4648 329 4640 329Q4622 329 4621 309Q4621 301 4625 293Q4646 264 4681.0 246.0Q4716 228 4757 228ZM4588 231H4596Q4604 231 4610.0 236.5Q4616 242 4616 251V710Q4616 719 4610.0 724.5Q4604 730 4596 730H4588Q4580 730 4574.0 724.5Q4568 719 4568 710V251Q4568 242 4574.0 236.5Q4580 231 4588 231ZM5402 393V453Q5402 496 5361 496H5145Q5136 496 5130.5 490.0Q5125 484 5125 476V468Q5125 460 5130.5 454.0Q5136 448 5145 448H5355V394Q5355 337 5320.0 306.5Q5285 276 5231.0 276.0Q5177 276 5141.5 306.5Q5106 337 5106 394V566Q5106 623 5141.5 653.5Q5177 684 5230.5 684.0Q5284 684 5319.5 654.5Q5355 625 5355 570Q5355 562 5360.5 556.0Q5366 550 5374 550H5382Q5391 550 5396.5 556.0Q5402 562 5402 570Q5401 647 5354.0 689.5Q5307 732 5231.0 732.0Q5155 732 5106.5 688.5Q5058 645 5058 567V393Q5058 314 5106.0 271.0Q5154 228 5231.0 228.0Q5308 228 5355.0 271.5Q5402 315 5402 393Z" /></svg>