<svg viewBox="0 0 3600 1227" xmlns="http://www.w3.org/2000/svg"><path d="M60 420H540L557 656L509 662L495 467H325V936H446V983H154V936H275V467H105L91 662L43 656ZM625 366 772 354V609Q802 587 821.5 575.0Q841 563 875.5 550.5Q910 538 943 538Q1011 538 1051.0 583.5Q1091 629 1091 703V936H1175V983H956V936H1041V707Q1041 653 1015.0 620.5Q989 588 945 588Q870 588 772 668V936H851V983H638V936H722V405L629 413ZM1661 687V936H1750V983H1611V911Q1518 997 1420 997Q1349 997 1304.0 954.0Q1259 911 1259 856Q1259 833 1269.5 809.0Q1280 785 1302.5 760.5Q1325 736 1368.5 720.5Q1412 705 1471 705Q1545 705 1611 718V687Q1611 673 1610.0 663.5Q1609 654 1603.0 636.5Q1597 619 1585.0 608.5Q1573 598 1548.5 589.5Q1524 581 1490 581Q1415 581 1319 623L1300 578Q1408 533 1491 533Q1539 533 1573.5 546.0Q1608 559 1624.5 575.0Q1641 591 1650.0 616.5Q1659 642 1660.0 655.0Q1661 668 1661 687ZM1611 844V764Q1548 753 1481 753Q1435 753 1400.5 763.0Q1366 773 1350.0 785.5Q1334 798 1325.0 815.5Q1316 833 1314.5 841.5Q1313 850 1313 857Q1313 894 1345.0 921.5Q1377 949 1419 949Q1517 949 1611 844ZM1805 363 1947 354V637H1949Q2016 549 2120 549Q2213 549 2278.5 614.0Q2344 679 2344 772Q2344 859 2281.0 926.0Q2218 993 2124 993Q2087 993 2056.5 984.5Q2026 976 2003.0 958.5Q1980 941 1970.5 932.0Q1961 923 1947 906V983H1817V936H1897V405L1805 410ZM1948 770Q1948 841 1998.5 892.0Q2049 943 2123 943Q2195 943 2242.5 892.0Q2290 841 2290.0 771.0Q2290 701 2242.0 650.0Q2194 599 2122 599Q2049 599 1998.5 650.0Q1948 701 1948 770ZM2530 553H2727V936H2900V983H2501V936H2677V600H2530ZM2655 446V327H2727V446ZM3173 420H3223V567H3465V614H3223V803Q3223 833 3223.5 847.5Q3224 862 3229.5 885.0Q3235 908 3245.0 918.5Q3255 929 3276.0 938.0Q3297 947 3327 947Q3396 947 3520 895L3538 940Q3412 997 3332 997Q3253 997 3208 952Q3184 928 3178.5 896.5Q3173 865 3173 803V614H3105V567H3173Z" fill="currentColor" /></svg>