<svg viewBox="0 0 2550 1222" xmlns="http://www.w3.org/2000/svg"><path d="M299 292H207L154 668H58L110 292H17L27 214H311ZM401 206Q406 181 423.0 165.0Q440 149 462.5 149.0Q485 149 497.5 165.0Q510 181 506.5 205.5Q503 230 486.0 245.5Q469 261 446.5 261.0Q424 261 411.0 245.5Q398 230 401 206ZM435 668H342L390 320L486 307ZM585 314H667L663 361Q668 357 676.5 347.5Q685 338 697 329Q728 306 760.0 306.0Q792 306 808.0 317.5Q824 329 828 360Q848 331 892 312Q908 306 926 306Q971 306 987.0 334.0Q1003 362 994 428L962 668H869L900 436Q905 413 901.0 400.0Q897 387 879 387Q864 387 851 398Q831 414 826 426L793 668H703L736 436Q740 413 736.0 400.0Q732 387 713 387Q697 387 685 398Q665 416 661 426L627 668H535ZM1070 314H1152L1148 361Q1153 357 1161.5 347.5Q1170 338 1182 329Q1213 306 1245.0 306.0Q1277 306 1293.0 317.5Q1309 329 1313 360Q1333 331 1377 312Q1393 306 1411 306Q1456 306 1472.0 334.0Q1488 362 1479 428L1447 668H1354L1385 436Q1390 413 1386.0 400.0Q1382 387 1364 387Q1349 387 1336 398Q1316 414 1311 426L1278 668H1188L1221 436Q1225 413 1221.0 400.0Q1217 387 1198 387Q1182 387 1170 398Q1150 416 1146 426L1112 668H1020ZM1734 381Q1716 379 1687.0 379.0Q1658 379 1638.5 403.0Q1619 427 1610.5 489.5Q1602 552 1611.5 575.0Q1621 598 1649 598Q1666 598 1682.5 587.5Q1699 577 1709 565ZM1709 626Q1652 677 1598 677Q1520 677 1509 580Q1505 546 1512.0 495.5Q1519 445 1536.0 409.0Q1553 373 1576 350Q1619 308 1683 308Q1759 308 1836 323L1787 668H1709ZM1913 314H1995L1991 359H1993Q1998 356 2007.5 347.0Q2017 338 2032 329Q2069 306 2105 306Q2155 306 2171.0 336.0Q2187 366 2178 429L2144 668H2053L2082 452Q2087 414 2081.0 400.5Q2075 387 2054 387Q2036 387 2021 398Q1993 420 1990 426L1956 668H1863ZM2438 381Q2420 379 2391.0 379.0Q2362 379 2342.5 403.0Q2323 427 2314.5 489.5Q2306 552 2315.5 575.0Q2325 598 2353 598Q2370 598 2386.5 587.5Q2403 577 2413 565ZM2413 626Q2356 677 2302 677Q2224 677 2213 580Q2209 546 2216.0 495.5Q2223 445 2240.0 409.0Q2257 373 2280 350Q2323 308 2387 308Q2463 308 2540 323L2491 668H2413Z" fill="currentColor" /></svg>