<svg viewBox="0 0 2523 528.0" xmlns="http://www.w3.org/2000/svg"><path d="M282 143.0H190L137 519.0H41L93 143.0H0L10 65.0H294ZM384 57.0Q389 32.0 406.0 16.0Q423 0.0 445.5 0.0Q468 0.0 480.5 16.0Q493 32.0 489.5 56.5Q486 81.0 469.0 96.5Q452 112.0 429.5 112.0Q407 112.0 394.0 96.5Q381 81.0 384 57.0ZM418 519.0H325L373 171.0L469 158.0ZM568 165.0H650L646 212.0Q651 208.0 659.5 198.5Q668 189.0 680 180.0Q711 157.0 743.0 157.0Q775 157.0 791.0 168.5Q807 180.0 811 211.0Q831 182.0 875 163.0Q891 157.0 909 157.0Q954 157.0 970.0 185.0Q986 213.0 977 279.0L945 519.0H852L883 287.0Q888 264.0 884.0 251.0Q880 238.0 862 238.0Q847 238.0 834 249.0Q814 265.0 809 277.0L776 519.0H686L719 287.0Q723 264.0 719.0 251.0Q715 238.0 696 238.0Q680 238.0 668 249.0Q648 267.0 644 277.0L610 519.0H518ZM1053 165.0H1135L1131 212.0Q1136 208.0 1144.5 198.5Q1153 189.0 1165 180.0Q1196 157.0 1228.0 157.0Q1260 157.0 1276.0 168.5Q1292 180.0 1296 211.0Q1316 182.0 1360 163.0Q1376 157.0 1394 157.0Q1439 157.0 1455.0 185.0Q1471 213.0 1462 279.0L1430 519.0H1337L1368 287.0Q1373 264.0 1369.0 251.0Q1365 238.0 1347 238.0Q1332 238.0 1319 249.0Q1299 265.0 1294 277.0L1261 519.0H1171L1204 287.0Q1208 264.0 1204.0 251.0Q1200 238.0 1181 238.0Q1165 238.0 1153 249.0Q1133 267.0 1129 277.0L1095 519.0H1003ZM1717 232.0Q1699 230.0 1670.0 230.0Q1641 230.0 1621.5 254.0Q1602 278.0 1593.5 340.5Q1585 403.0 1594.5 426.0Q1604 449.0 1632 449.0Q1649 449.0 1665.5 438.5Q1682 428.0 1692 416.0ZM1692 477.0Q1635 528.0 1581 528.0Q1503 528.0 1492 431.0Q1488 397.0 1495.0 346.5Q1502 296.0 1519.0 260.0Q1536 224.0 1559 201.0Q1602 159.0 1666 159.0Q1742 159.0 1819 174.0L1770 519.0H1692ZM1896 165.0H1978L1974 210.0H1976Q1981 207.0 1990.5 198.0Q2000 189.0 2015 180.0Q2052 157.0 2088 157.0Q2138 157.0 2154.0 187.0Q2170 217.0 2161 280.0L2127 519.0H2036L2065 303.0Q2070 265.0 2064.0 251.5Q2058 238.0 2037 238.0Q2019 238.0 2004 249.0Q1976 271.0 1973 277.0L1939 519.0H1846ZM2421 232.0Q2403 230.0 2374.0 230.0Q2345 230.0 2325.5 254.0Q2306 278.0 2297.5 340.5Q2289 403.0 2298.5 426.0Q2308 449.0 2336 449.0Q2353 449.0 2369.5 438.5Q2386 428.0 2396 416.0ZM2396 477.0Q2339 528.0 2285 528.0Q2207 528.0 2196 431.0Q2192 397.0 2199.0 346.5Q2206 296.0 2223.0 260.0Q2240 224.0 2263 201.0Q2306 159.0 2370 159.0Q2446 159.0 2523 174.0L2474 519.0H2396Z" fill="currentColor" /></svg>