<svg viewBox="0 0 10088 1000" xmlns="http://www.w3.org/2000/svg"><path d="M183 756Q181 741 183 724Q233 719 254.0 714.5Q275 710 280.0 695.0Q285 680 285 644V98H213Q160 98 129.5 112.5Q99 127 80.5 156.0Q62 185 44 230Q28 232 12 230Q18 182 23.5 138.0Q29 94 33 53Q98 57 177.0 57.5Q256 58 341 58Q427 58 506.5 57.5Q586 57 650 53Q654 93 658.0 137.5Q662 182 668 230Q651 232 635 230Q616 184 597.0 155.0Q578 126 548.5 112.0Q519 98 466 98H395V631Q395 662 397.0 680.0Q399 698 408.5 706.0Q418 714 439.0 717.5Q460 721 497 724Q500 740 497 756Q476 756 446.5 755.5Q417 755 388.0 754.5Q359 754 339 754Q320 754 291.5 754.5Q263 755 233.5 755.5Q204 756 183 756ZM957 756Q929 756 899.0 755.0Q869 754 834 754Q802 754 769.5 755.0Q737 756 707 756Q704 740 707 725Q741 723 757.0 718.5Q773 714 778.0 699.0Q783 684 783 651V427Q783 388 780.0 369.0Q777 350 761.5 342.5Q746 335 708 330Q705 316 708 304Q752 296 792.0 284.0Q832 272 869 258L886 264Q885 295 884.5 322.0Q884 349 884 373V641Q884 680 888.5 697.0Q893 714 908.5 718.5Q924 723 957 725Q960 740 957 756ZM757 88Q757 59 777.5 39.0Q798 19 827 19Q855 19 875.5 39.0Q896 59 896 87Q896 113 876.0 134.5Q856 156 825 156Q797 156 777.0 136.0Q757 116 757 88ZM1005 756Q1002 740 1005 725Q1039 723 1055.0 718.5Q1071 714 1076.0 699.0Q1081 684 1081 651V427Q1081 388 1077.5 369.0Q1074 350 1058.5 342.5Q1043 335 1006 330Q1003 316 1006 304Q1046 296 1084.0 285.5Q1122 275 1164 258L1181 264V352Q1251 263 1324 263Q1359 263 1376.0 281.5Q1393 300 1393 323Q1393 350 1375.0 364.5Q1357 379 1334 379Q1315 379 1296.5 369.0Q1278 359 1269 338Q1235 338 1208.5 364.5Q1182 391 1182 426V641Q1182 680 1186.5 697.0Q1191 714 1210.5 718.5Q1230 723 1274 725Q1276 739 1274 756Q1240 756 1204.0 755.0Q1168 754 1130 754Q1093 754 1064.5 755.0Q1036 756 1005 756ZM1649 767Q1576 767 1521.5 735.5Q1467 704 1437.0 648.5Q1407 593 1407 521Q1407 443 1438.5 385.0Q1470 327 1527.0 295.0Q1584 263 1658 263Q1731 263 1785.0 295.0Q1839 327 1869.0 383.0Q1899 439 1899 510Q1899 583 1867.5 641.5Q1836 700 1780.0 733.5Q1724 767 1649 767ZM1520 509Q1520 611 1553.5 670.5Q1587 730 1654 730Q1718 730 1752.0 673.5Q1786 617 1786 522Q1786 421 1752.0 361.0Q1718 301 1653 301Q1589 301 1554.5 356.0Q1520 411 1520 509ZM2347 56Q2378 56 2418.0 55.0Q2458 54 2484 54Q2681 54 2782.0 138.0Q2883 222 2883 383Q2883 501 2831.5 584.5Q2780 668 2689.0 712.0Q2598 756 2480 756Q2466 756 2441.0 755.5Q2416 755 2390.0 754.5Q2364 754 2346 754Q2330 754 2301.0 754.5Q2272 755 2242.0 755.5Q2212 756 2192 756Q2190 741 2192 724Q2239 719 2259.0 714.5Q2279 710 2284.0 695.0Q2289 680 2289 644V179Q2289 137 2284.0 119.0Q2279 101 2258.5 95.5Q2238 90 2192 86Q2190 71 2192 54Q2213 54 2242.0 54.5Q2271 55 2299.5 55.5Q2328 56 2347 56ZM2399 100V631Q2399 656 2399.0 673.0Q2399 690 2400 701Q2448 715 2499 715Q2586 715 2644.5 674.0Q2703 633 2732.5 562.0Q2762 491 2762 401Q2762 261 2690.5 178.0Q2619 95 2479 95Q2454 95 2431.5 97.0Q2409 99 2399 100ZM3192 767Q3121 767 3072.0 734.0Q3023 701 2997.5 645.5Q2972 590 2972 523Q2972 454 2998.5 395.0Q3025 336 3076.0 299.5Q3127 263 3200 263Q3288 263 3337.5 315.5Q3387 368 3387 451Q3387 461 3386.5 468.5Q3386 476 3385 481L3070 478Q3070 482 3070 485Q3070 583 3115.0 639.0Q3160 695 3241 695Q3309 695 3375 651Q3385 663 3390 674Q3305 767 3192 767ZM3073 441 3280 437Q3281 435 3281.0 431.5Q3281 428 3281 427Q3281 373 3257.5 337.0Q3234 301 3188 301Q3145 301 3113.0 336.0Q3081 371 3073 441ZM3707 750 3652 761 3496 370Q3488 348 3479.0 336.5Q3470 325 3455.5 319.0Q3441 313 3413 310Q3411 296 3413 278Q3442 278 3473.5 279.0Q3505 280 3536 280Q3565 280 3599.0 279.0Q3633 278 3656 278Q3659 294 3656 310Q3622 312 3609.5 317.0Q3597 322 3597 338Q3597 346 3600.5 358.0Q3604 370 3607 378Q3610 386 3619.0 410.0Q3628 434 3640.5 465.5Q3653 497 3666.0 530.5Q3679 564 3690.5 592.0Q3702 620 3709 637Q3730 589 3759.5 521.0Q3789 453 3817 383Q3822 369 3825.5 357.5Q3829 346 3829 339Q3829 325 3816.0 319.0Q3803 313 3769 310Q3768 294 3769 278Q3795 278 3818.5 279.0Q3842 280 3875 280Q3890 280 3903.5 279.5Q3917 279 3954 278Q3956 295 3954 310Q3912 313 3897.0 328.5Q3882 344 3868 375ZM4295 765Q4229 765 4212 699Q4141 767 4067 767Q4016 767 3980.5 736.5Q3945 706 3945 652Q3945 520 4214 486Q4214 462 4214.5 437.0Q4215 412 4215 384Q4215 349 4189.5 329.5Q4164 310 4128 310Q4102 310 4084 318Q4084 341 4074.0 365.0Q4064 389 4046.5 405.5Q4029 422 4004 422Q3982 422 3969.5 409.5Q3957 397 3957 379Q3957 355 3979.5 333.5Q4002 312 4037.0 296.5Q4072 281 4110.0 272.0Q4148 263 4178 263Q4215 263 4246.5 276.5Q4278 290 4297.5 316.5Q4317 343 4317 382Q4317 406 4316.0 444.5Q4315 483 4314.5 526.5Q4314 570 4313.0 609.0Q4312 648 4312 672Q4312 704 4340 704Q4358 704 4395 692Q4399 697 4400.5 703.0Q4402 709 4403 714Q4378 741 4350.5 753.0Q4323 765 4295 765ZM4212 672 4214 522Q4122 534 4087.5 561.0Q4053 588 4053 630Q4053 665 4071.5 683.5Q4090 702 4118 702Q4136 702 4158.5 694.0Q4181 686 4212 672ZM4745 756Q4743 740 4745 725Q4776 723 4791.0 718.5Q4806 714 4811.0 699.0Q4816 684 4816 651V449Q4816 389 4797.5 359.5Q4779 330 4724 330Q4695 330 4668.0 340.5Q4641 351 4609 380V641Q4609 680 4613.5 697.0Q4618 714 4633.0 718.5Q4648 723 4680 725Q4682 740 4680 756Q4652 756 4621.5 755.0Q4591 754 4556 754Q4524 754 4493.0 755.0Q4462 756 4432 756Q4429 740 4432 725Q4466 723 4482.0 718.5Q4498 714 4503.0 699.0Q4508 684 4508 651V427Q4508 388 4504.5 369.0Q4501 350 4485.5 342.5Q4470 335 4433 330Q4430 316 4433 304Q4519 287 4591 258L4608 264V339Q4654 297 4698.0 280.0Q4742 263 4782 263Q4848 263 4883.0 302.0Q4918 341 4918 414V641Q4918 680 4922.5 697.0Q4927 714 4942.0 718.5Q4957 723 4990 725Q4992 740 4990 756Q4960 756 4931.5 755.0Q4903 754 4865 754Q4828 754 4800.5 755.0Q4773 756 4745 756ZM5391 765Q5325 765 5308 699Q5237 767 5163 767Q5112 767 5076.5 736.5Q5041 706 5041 652Q5041 520 5310 486Q5310 462 5310.5 437.0Q5311 412 5311 384Q5311 349 5285.5 329.5Q5260 310 5224 310Q5198 310 5180 318Q5180 341 5170.0 365.0Q5160 389 5142.5 405.5Q5125 422 5100 422Q5078 422 5065.5 409.5Q5053 397 5053 379Q5053 355 5075.5 333.5Q5098 312 5133.0 296.5Q5168 281 5206.0 272.0Q5244 263 5274 263Q5311 263 5342.5 276.5Q5374 290 5393.5 316.5Q5413 343 5413 382Q5413 406 5412.0 444.5Q5411 483 5410.5 526.5Q5410 570 5409.0 609.0Q5408 648 5408 672Q5408 704 5436 704Q5454 704 5491 692Q5495 697 5496.5 703.0Q5498 709 5499 714Q5474 741 5446.5 753.0Q5419 765 5391 765ZM5308 672 5310 522Q5218 534 5183.5 561.0Q5149 588 5149 630Q5149 665 5167.5 683.5Q5186 702 5214 702Q5232 702 5254.5 694.0Q5277 686 5308 672ZM5724 1010Q5636 1010 5582.0 979.0Q5528 948 5528 893Q5528 850 5558.0 822.0Q5588 794 5632 766Q5593 757 5573.0 734.5Q5553 712 5553 681Q5553 627 5632 572Q5599 551 5579.0 517.5Q5559 484 5559 440Q5559 385 5587.5 345.5Q5616 306 5662.5 284.5Q5709 263 5762 263Q5840 263 5892 306Q5946 263 5998 263Q6024 263 6039.0 274.5Q6054 286 6054 308Q6054 330 6040.0 343.0Q6026 356 6006 356Q5987 356 5973.5 344.5Q5960 333 5956 312Q5942 315 5933.5 319.0Q5925 323 5914 330Q5948 373 5948 432Q5948 487 5921.0 525.5Q5894 564 5849.5 584.5Q5805 605 5752 605Q5702 605 5659 587Q5634 612 5634 640Q5634 665 5653.0 671.5Q5672 678 5723 678Q5746 678 5778.0 677.5Q5810 677 5825 677Q5925 677 5969.0 712.5Q6013 748 6013 810Q6013 859 5989.0 896.5Q5965 934 5924.0 959.5Q5883 985 5831.5 997.5Q5780 1010 5724 1010ZM5675 771Q5621 816 5621 866Q5621 901 5642.0 923.0Q5663 945 5697.0 955.0Q5731 965 5769 965Q5803 965 5840.0 955.0Q5877 945 5903.0 919.5Q5929 894 5929 848Q5929 806 5899.5 788.0Q5870 770 5790 770Q5771 770 5743.0 770.5Q5715 771 5681 771Q5678 771 5675 771ZM5754 570Q5798 570 5821.5 534.5Q5845 499 5845 436Q5845 372 5821.0 335.0Q5797 298 5751 298Q5708 298 5684.5 332.5Q5661 367 5661 430Q5661 494 5685.5 532.0Q5710 570 5754 570ZM6422 765Q6356 765 6339 699Q6268 767 6194 767Q6143 767 6107.5 736.5Q6072 706 6072 652Q6072 520 6341 486Q6341 462 6341.5 437.0Q6342 412 6342 384Q6342 349 6316.5 329.5Q6291 310 6255 310Q6229 310 6211 318Q6211 341 6201.0 365.0Q6191 389 6173.5 405.5Q6156 422 6131 422Q6109 422 6096.5 409.5Q6084 397 6084 379Q6084 355 6106.5 333.5Q6129 312 6164.0 296.5Q6199 281 6237.0 272.0Q6275 263 6305 263Q6342 263 6373.5 276.5Q6405 290 6424.5 316.5Q6444 343 6444 382Q6444 406 6443.0 444.5Q6442 483 6441.5 526.5Q6441 570 6440.0 609.0Q6439 648 6439 672Q6439 704 6467 704Q6485 704 6522 692Q6526 697 6527.5 703.0Q6529 709 6530 714Q6505 741 6477.5 753.0Q6450 765 6422 765ZM6339 672 6341 522Q6249 534 6214.5 561.0Q6180 588 6180 630Q6180 665 6198.5 683.5Q6217 702 6245 702Q6263 702 6285.5 694.0Q6308 686 6339 672ZM6559 756Q6556 740 6559 725Q6593 723 6609.0 718.5Q6625 714 6630.0 699.0Q6635 684 6635 651V427Q6635 388 6631.5 369.0Q6628 350 6612.5 342.5Q6597 335 6560 330Q6557 316 6560 304Q6600 296 6638.0 285.5Q6676 275 6718 258L6735 264V352Q6805 263 6878 263Q6913 263 6930.0 281.5Q6947 300 6947 323Q6947 350 6929.0 364.5Q6911 379 6888 379Q6869 379 6850.5 369.0Q6832 359 6823 338Q6789 338 6762.5 364.5Q6736 391 6736 426V641Q6736 680 6740.5 697.0Q6745 714 6764.5 718.5Q6784 723 6828 725Q6830 739 6828 756Q6794 756 6758.0 755.0Q6722 754 6684 754Q6647 754 6618.5 755.0Q6590 756 6559 756ZM7219 756Q7191 756 7161.0 755.0Q7131 754 7096 754Q7064 754 7031.5 755.0Q6999 756 6969 756Q6966 740 6969 725Q7003 723 7019.0 718.5Q7035 714 7040.0 699.0Q7045 684 7045 651V427Q7045 388 7042.0 369.0Q7039 350 7023.5 342.5Q7008 335 6970 330Q6967 316 6970 304Q7014 296 7054.0 284.0Q7094 272 7131 258L7148 264Q7147 295 7146.5 322.0Q7146 349 7146 373V641Q7146 680 7150.5 697.0Q7155 714 7170.5 718.5Q7186 723 7219 725Q7222 740 7219 756ZM7019 88Q7019 59 7039.5 39.0Q7060 19 7089 19Q7117 19 7137.5 39.0Q7158 59 7158 87Q7158 113 7138.0 134.5Q7118 156 7087 156Q7059 156 7039.0 136.0Q7019 116 7019 88ZM7492 756Q7489 741 7492 724Q7538 720 7558.5 715.0Q7579 710 7584.5 694.5Q7590 679 7590 644V179Q7590 137 7585.0 119.0Q7580 101 7559.0 95.5Q7538 90 7491 86Q7488 71 7491 54Q7511 54 7540.5 54.5Q7570 55 7599.0 55.5Q7628 56 7646 56Q7664 56 7692.5 55.5Q7721 55 7750.5 54.5Q7780 54 7798 54Q7801 69 7798 86Q7752 90 7731.0 95.0Q7710 100 7705.0 115.5Q7700 131 7700 166V363H8060V179Q8060 137 8055.0 119.0Q8050 101 8030.0 95.5Q8010 90 7963 86Q7961 71 7963 54Q7982 54 8011.0 54.5Q8040 55 8069.0 55.5Q8098 56 8116 56Q8136 56 8164.0 55.5Q8192 55 8220.5 54.5Q8249 54 8269 54Q8271 69 8269 86Q8222 90 8201.0 95.0Q8180 100 8175.0 115.5Q8170 131 8170 166V631Q8170 672 8175.0 690.5Q8180 709 8200.5 714.5Q8221 720 8269 724Q8271 741 8269 756Q8248 756 8219.0 755.5Q8190 755 8161.5 754.5Q8133 754 8114 754Q8096 754 8068.0 754.5Q8040 755 8012.0 755.5Q7984 756 7964 756Q7961 741 7964 724Q8010 720 8030.0 715.0Q8050 710 8055.0 694.5Q8060 679 8060 644V407H7700V631Q7700 673 7705.0 691.0Q7710 709 7730.5 714.5Q7751 720 7798 724Q7800 741 7798 756Q7778 756 7749.0 755.5Q7720 755 7691.5 754.5Q7663 754 7644 754Q7626 754 7597.5 754.5Q7569 755 7540.5 755.5Q7512 756 7492 756ZM8577 756Q8549 756 8519.0 755.0Q8489 754 8454 754Q8422 754 8389.5 755.0Q8357 756 8327 756Q8324 740 8327 725Q8361 723 8377.0 718.5Q8393 714 8398.0 699.0Q8403 684 8403 651V427Q8403 388 8400.0 369.0Q8397 350 8381.5 342.5Q8366 335 8328 330Q8325 316 8328 304Q8372 296 8412.0 284.0Q8452 272 8489 258L8506 264Q8505 295 8504.5 322.0Q8504 349 8504 373V641Q8504 680 8508.5 697.0Q8513 714 8528.5 718.5Q8544 723 8577 725Q8580 740 8577 756ZM8377 88Q8377 59 8397.5 39.0Q8418 19 8447 19Q8475 19 8495.5 39.0Q8516 59 8516 87Q8516 113 8496.0 134.5Q8476 156 8445 156Q8417 156 8397.0 136.0Q8377 116 8377 88ZM8938 756Q8936 740 8938 725Q8969 723 8984.0 718.5Q8999 714 9004.0 699.0Q9009 684 9009 651V449Q9009 389 8990.5 359.5Q8972 330 8917 330Q8888 330 8861.0 340.5Q8834 351 8802 380V641Q8802 680 8806.5 697.0Q8811 714 8826.0 718.5Q8841 723 8873 725Q8875 740 8873 756Q8845 756 8814.5 755.0Q8784 754 8749 754Q8717 754 8686.0 755.0Q8655 756 8625 756Q8622 740 8625 725Q8659 723 8675.0 718.5Q8691 714 8696.0 699.0Q8701 684 8701 651V427Q8701 388 8697.5 369.0Q8694 350 8678.5 342.5Q8663 335 8626 330Q8623 316 8626 304Q8712 287 8784 258L8801 264V339Q8847 297 8891.0 280.0Q8935 263 8975 263Q9041 263 9076.0 302.0Q9111 341 9111 414V641Q9111 680 9115.5 697.0Q9120 714 9135.0 718.5Q9150 723 9183 725Q9185 740 9183 756Q9153 756 9124.5 755.0Q9096 754 9058 754Q9021 754 8993.5 755.0Q8966 756 8938 756ZM9617 768 9601 761 9597 692Q9562 730 9525.5 748.5Q9489 767 9445 767Q9383 767 9336.5 733.5Q9290 700 9265.0 646.0Q9240 592 9240 529Q9240 456 9271.5 396.0Q9303 336 9360.5 299.5Q9418 263 9495 263Q9518 263 9543.0 266.5Q9568 270 9595 278V150Q9595 119 9589.0 103.5Q9583 88 9565.5 81.5Q9548 75 9513 72Q9510 59 9513 45Q9553 40 9595.0 29.5Q9637 19 9681 0L9698 6Q9697 28 9696.5 56.0Q9696 84 9696 117V613Q9696 651 9699.0 670.0Q9702 689 9717.0 696.5Q9732 704 9768 710Q9771 723 9768 737Q9728 743 9690.0 750.0Q9652 757 9617 768ZM9596 363Q9553 304 9483 304Q9414 304 9379.0 354.5Q9344 405 9344 494Q9344 546 9358.0 594.0Q9372 642 9404.0 673.0Q9436 704 9489 704Q9556 704 9596 646ZM10067 756Q10039 756 10009.0 755.0Q9979 754 9944 754Q9912 754 9879.5 755.0Q9847 756 9817 756Q9814 740 9817 725Q9851 723 9867.0 718.5Q9883 714 9888.0 699.0Q9893 684 9893 651V427Q9893 388 9890.0 369.0Q9887 350 9871.5 342.5Q9856 335 9818 330Q9815 316 9818 304Q9862 296 9902.0 284.0Q9942 272 9979 258L9996 264Q9995 295 9994.5 322.0Q9994 349 9994 373V641Q9994 680 9998.5 697.0Q10003 714 10018.5 718.5Q10034 723 10067 725Q10070 740 10067 756ZM9867 88Q9867 59 9887.5 39.0Q9908 19 9937 19Q9965 19 9985.5 39.0Q10006 59 10006 87Q10006 113 9986.0 134.5Q9966 156 9935 156Q9907 156 9887.0 136.0Q9867 116 9867 88Z" fill="currentColor" /></svg>