<svg viewBox="0 0 8202 2200" xmlns="http://www.w3.org/2000/svg"><path d="M422 1800V683H75V400H1051V683H704V1800ZM449 1773H677V656H1024V427H102V656H449ZM1272 1800 1066 1594V926L1272 720H1897L2103 926V1594L1897 1800ZM1283 1773H1886L2076 1583V937L1886 747H1283L1093 937V1583ZM1399 1544 1322 1467V1053L1399 976H1770L1847 1053V1467L1770 1544ZM1410 1517H1759L1820 1456V1064L1759 1003H1410L1349 1064V1456ZM2529 1800 2323 1594V720H2606V1456L2667 1517H2961L3022 1456V720H3305V1594L3099 1800ZM2540 1773H3088L3278 1583V747H3049V1467L2972 1544H2656L2579 1467V747H2350V1583ZM3525 1800V1518H3719V1017L3704 1002H3527V720H3780L3848 800L3925 720H4314L4533 939L4315 1151L4177 1003H4063L4002 1064V1519H4196V1800ZM3553 1773H4169V1546H3975V1053L4052 976H4189L4318 1113L4496 938L4303 747H3936L3846 840L3763 747H3554V975H3716L3746 1006V1546H3553ZM4673 1800V926L4879 720H5427L5633 926V1800H5351V1064L5290 1003H5016L4955 1064V1800ZM4700 1773H4928V1053L5005 976H5301L5378 1053V1773H5606V937L5416 747H4890L4700 937ZM6680.0 720.0 6886.0 926.0V1211.0L6680.0 1417.0H6136.0V1456.0L6197.0 1517.0H6872.0V1800.0H6059.0L5853.0 1594.0V926.0L6059.0 720.0ZM6554.0 976.0 6631.0 1053.0V1114.0L6573.0 1172.0H6109.0V1053.0L6186.0 976.0ZM6669.0 747.0H6070.0L5880.0 937.0V1584.0L6070.0 1774.0H6844.0V1545.0H6186.0L6109.0 1468.0V1391.0H6669.0L6859.0 1200.0V937.0ZM6542.0 1003.0H6197.0L6136.0 1064.0V1144.0H6562.0L6604.0 1102.0V1064.0ZM7312 1800 7106 1594V720H7389V1456L7450 1517H7695L7795 1417V720H8077V1994L7871 2200H7156V1918H7714L7795 1837V1780L7775 1800ZM7184 2174H7860L8050 1983V746H7822V1429L7706 1544H7439L7362 1467V746H7133V1583L7323 1773H7764L7822 1715V1849L7725 1945H7184Z" fill="currentColor" /></svg>