<svg viewBox="0 0 6465.260869565217 930.2" xmlns="http://www.w3.org/2000/svg"><path d="M728 7.2000000000000455Q727 12.200000000000045 727.0 17.700000000000045Q727 23.200000000000045 726 28.200000000000045Q718 35.200000000000045 712.5 37.200000000000045Q707 39.200000000000045 703 47.200000000000045Q700 52.200000000000045 700.0 58.200000000000045Q700 64.20000000000005 697 69.20000000000005Q694 76.20000000000005 682.5 83.70000000000005Q671 91.20000000000005 666 93.20000000000005Q660 96.20000000000005 653.5 98.20000000000005Q647 100.20000000000005 641 103.20000000000005Q632 107.20000000000005 626.5 109.20000000000005Q621 111.20000000000005 615.0 111.70000000000005Q609 112.20000000000005 602.0 112.70000000000005Q595 113.20000000000005 584 115.20000000000005Q581 115.20000000000005 580.0 116.70000000000005Q579 118.20000000000005 576.0 120.20000000000005Q573 122.20000000000005 567.0 123.70000000000005Q561 125.20000000000005 549 126.20000000000005Q538 127.20000000000005 532.5 127.70000000000005Q527 128.20000000000005 515 130.20000000000005Q508 132.20000000000005 502.0 136.20000000000005Q496 140.20000000000005 489 143.20000000000005Q475 151.20000000000005 468.5 158.70000000000005Q462 166.20000000000005 458 172.20000000000005Q452 182.20000000000005 452.5 194.70000000000005Q453 207.20000000000005 448 221.20000000000005Q444 231.20000000000005 435.0 241.20000000000005Q426 251.20000000000005 422 262.20000000000005Q421 267.20000000000005 422.0 273.20000000000005Q423 279.20000000000005 422 286.20000000000005Q420 299.20000000000005 413.0 312.70000000000005Q406 326.20000000000005 401 341.20000000000005Q399 349.20000000000005 399.5 357.20000000000005Q400 365.20000000000005 398 373.20000000000005Q395 392.20000000000005 389.0 413.70000000000005Q383 435.20000000000005 378 456.20000000000005Q376 468.20000000000005 376.5 480.70000000000005Q377 493.20000000000005 374 502.20000000000005Q372 511.20000000000005 366.5 519.2Q361 527.2 356.5 535.7Q352 544.2 350.5 553.7Q349 563.2 355 574.2Q352 611.2 345.0 649.2Q338 687.2 327 722.2Q324 733.2 317.5 751.2Q311 769.2 305 774.2Q299 779.2 289.5 780.7Q280 782.2 270.5 780.2Q261 778.2 253.0 773.2Q245 768.2 242 761.2Q236 765.2 231.5 772.2Q227 779.2 219 783.2Q209 788.2 198.5 787.2Q188 786.2 177 791.2Q167 795.2 159.0 800.7Q151 806.2 143 808.2Q138 810.2 133.5 809.7Q129 809.2 125 811.2Q119 814.2 116.0 821.2Q113 828.2 107 832.2Q99 830.2 89.0 829.7Q79 829.2 74 824.2Q72 798.2 82.0 778.7Q92 759.2 97 740.2Q101 729.2 102.5 719.2Q104 709.2 106 696.2Q110 682.2 116.0 666.7Q122 651.2 125 635.2Q128 624.2 128.5 612.7Q129 601.2 133 590.2Q135 582.2 143.0 572.7Q151 563.2 155 552.2Q159 541.2 162.0 527.2Q165 513.2 170 500.20000000000005Q175 483.20000000000005 184.5 471.20000000000005Q194 459.20000000000005 193 444.20000000000005Q193 437.20000000000005 190.0 433.20000000000005Q187 429.20000000000005 187 424.20000000000005Q186 416.20000000000005 189.0 402.20000000000005Q192 388.20000000000005 195 377.20000000000005Q200 356.20000000000005 205.0 339.20000000000005Q210 322.20000000000005 215 305.20000000000005Q217 297.20000000000005 218.5 289.70000000000005Q220 282.20000000000005 222 276.20000000000005Q224 268.20000000000005 228.5 262.70000000000005Q233 257.20000000000005 235 251.20000000000005Q237 244.20000000000005 238.5 234.20000000000005Q240 224.20000000000005 243 215.20000000000005Q246 208.20000000000005 249.5 202.20000000000005Q253 196.20000000000005 254 190.20000000000005Q256 177.20000000000005 250.5 166.20000000000005Q245 155.20000000000005 245 143.20000000000005Q234 135.20000000000005 219.0 133.70000000000005Q204 132.20000000000005 190 133.20000000000005Q176 134.20000000000005 165.0 134.70000000000005Q154 135.20000000000005 140 136.20000000000005Q117 137.20000000000005 100.0 140.20000000000005Q83 143.20000000000005 67.5 146.20000000000005Q52 149.20000000000005 36.0 150.70000000000005Q20 152.20000000000005 0 151.20000000000005Q2 140.20000000000005 2.5 127.70000000000005Q3 115.20000000000005 6 107.20000000000005Q12 102.20000000000005 18.0 101.70000000000005Q24 101.20000000000005 31 100.20000000000005Q27 94.20000000000005 27.5 89.20000000000005Q28 84.20000000000005 29.5 79.70000000000005Q31 75.20000000000005 33.5 70.70000000000005Q36 66.20000000000005 37 62.200000000000045Q39 52.200000000000045 38.5 42.200000000000045Q38 32.200000000000045 47 26.200000000000045Q61 25.200000000000045 72.0 26.200000000000045Q83 27.200000000000045 93.0 28.700000000000045Q103 30.200000000000045 113.5 31.200000000000045Q124 32.200000000000045 138 31.200000000000045Q170 29.200000000000045 190.5 26.200000000000045Q211 23.200000000000045 241 22.200000000000045Q262 22.200000000000045 281.5 22.700000000000045Q301 23.200000000000045 318 25.200000000000045Q336 28.200000000000045 344.5 28.200000000000045Q353 28.200000000000045 360.0 27.700000000000045Q367 27.200000000000045 375.0 26.200000000000045Q383 25.200000000000045 399 25.200000000000045Q416 25.200000000000045 431.5 22.700000000000045Q447 20.200000000000045 464 21.200000000000045Q483 21.200000000000045 490.5 23.700000000000045Q498 26.200000000000045 503.0 28.200000000000045Q508 30.200000000000045 514.0 31.700000000000045Q520 33.200000000000045 536 31.200000000000045Q547 29.200000000000045 550.0 26.700000000000045Q553 24.200000000000045 564 22.200000000000045Q574 21.200000000000045 584.0 21.700000000000045Q594 22.200000000000045 605 21.200000000000045Q635 18.200000000000045 665.5 10.700000000000045Q696 3.2000000000000455 728 7.2000000000000455ZM978 243.20000000000005Q986 245.20000000000005 994.0 245.20000000000005Q1002 245.20000000000005 1010 247.20000000000005Q1013 247.20000000000005 1016.0 249.20000000000005Q1019 251.20000000000005 1022 252.20000000000005Q1025 253.20000000000005 1028.0 252.20000000000005Q1031 251.20000000000005 1034 252.20000000000005Q1057 258.20000000000005 1071.0 270.70000000000005Q1085 283.20000000000005 1099 301.20000000000005Q1105 311.20000000000005 1114.0 324.70000000000005Q1123 338.20000000000005 1129.0 354.70000000000005Q1135 371.20000000000005 1136.0 389.20000000000005Q1137 407.20000000000005 1129 425.20000000000005Q1127 430.20000000000005 1123.0 437.70000000000005Q1119 445.20000000000005 1115 453.20000000000005Q1109 464.20000000000005 1100.0 476.20000000000005Q1091 488.20000000000005 1081 493.20000000000005Q1073 498.20000000000005 1067.5 502.20000000000005Q1062 506.20000000000005 1054 510.20000000000005Q1040 515.2 1026.5 524.7Q1013 534.2 999 540.2Q994 542.2 988.5 542.7Q983 543.2 978 545.2Q971 549.2 967.0 556.2Q963 563.2 952 566.2Q977 572.2 998.0 593.7Q1019 615.2 1030 638.2Q1035 652.2 1044.0 663.2Q1053 674.2 1052 688.2Q1059 694.2 1063.5 703.7Q1068 713.2 1071.0 724.2Q1074 735.2 1076.5 746.7Q1079 758.2 1083 767.2Q1089 780.2 1096.0 788.7Q1103 797.2 1111.0 804.7Q1119 812.2 1127.0 820.7Q1135 829.2 1141 842.2Q1145 841.2 1147.5 839.7Q1150 838.2 1155 839.2Q1170 850.2 1188.5 856.2Q1207 862.2 1234 866.2Q1257 870.2 1277.5 868.7Q1298 867.2 1320 863.2Q1327 862.2 1337.5 857.7Q1348 853.2 1358.5 850.2Q1369 847.2 1377.0 847.7Q1385 848.2 1385 858.2Q1385 865.2 1376.0 875.2Q1367 885.2 1360 890.2Q1343 902.2 1321.0 909.2Q1299 916.2 1275.0 920.7Q1251 925.2 1226.0 927.2Q1201 929.2 1179 930.2Q1165 930.2 1153.5 925.7Q1142 921.2 1133 919.2Q1113 916.2 1097.5 912.2Q1082 908.2 1068 900.2Q1056 893.2 1047.0 880.7Q1038 868.2 1022 865.2Q996 842.2 970.0 818.7Q944 795.2 929 760.2Q924 751.2 918.0 742.7Q912 734.2 909 724.2Q906 717.2 905.5 709.2Q905 701.2 903 691.2Q901 680.2 897.0 667.7Q893 655.2 889 644.2Q888 641.2 886.0 638.2Q884 635.2 883 632.2Q881 626.2 879.0 617.7Q877 609.2 872 604.2Q867 600.2 855.5 595.2Q844 590.2 836 588.2Q825 586.2 814.5 589.2Q804 592.2 795 593.2Q782 595.2 770.0 593.7Q758 592.2 750 595.2Q736 600.2 727.0 621.2Q718 642.2 716 665.2Q712 688.2 704.0 709.7Q696 731.2 691 751.2Q687 764.2 678.0 772.7Q669 781.2 653 779.2Q645 778.2 640.5 777.7Q636 777.2 629 773.2Q624 775.2 611.5 782.7Q599 790.2 594 793.2Q561 803.2 556.5 788.2Q552 773.2 560 740.2Q565 719.2 575.5 699.2Q586 679.2 590 665.2Q592 656.2 591.5 648.7Q591 641.2 590.0 634.2Q589 627.2 589.0 621.7Q589 616.2 593 611.2Q594 600.2 599.0 593.7Q604 587.2 606 576.2Q608 566.2 611.0 555.2Q614 544.2 615 534.2Q616 522.2 616.5 511.70000000000005Q617 501.20000000000005 623 487.20000000000005Q628 474.20000000000005 633.5 460.70000000000005Q639 447.20000000000005 641 434.20000000000005Q643 424.20000000000005 643.5 413.70000000000005Q644 403.20000000000005 648 393.20000000000005Q650 385.20000000000005 656.5 380.20000000000005Q663 375.20000000000005 665 367.20000000000005Q666 361.20000000000005 664.0 356.20000000000005Q662 351.20000000000005 664 346.20000000000005Q670 326.20000000000005 668.0 314.70000000000005Q666 303.20000000000005 661.5 295.70000000000005Q657 288.20000000000005 653.5 281.20000000000005Q650 274.20000000000005 653 262.20000000000005Q658 261.20000000000005 662.0 253.70000000000005Q666 246.20000000000005 673 244.20000000000005Q677 243.20000000000005 688.0 242.70000000000005Q699 242.20000000000005 712.0 241.70000000000005Q725 241.20000000000005 737.0 241.70000000000005Q749 242.20000000000005 756 242.20000000000005Q764 243.20000000000005 776.0 241.70000000000005Q788 240.20000000000005 801.0 239.70000000000005Q814 239.20000000000005 825.5 239.20000000000005Q837 239.20000000000005 845 243.20000000000005ZM826 498.20000000000005Q834 498.20000000000005 841.5 494.20000000000005Q849 490.20000000000005 856 492.20000000000005Q866 494.20000000000005 876.0 495.20000000000005Q886 496.20000000000005 898 498.20000000000005Q903 499.20000000000005 908.0 497.20000000000005Q913 495.20000000000005 921 496.20000000000005Q937 484.20000000000005 949.5 478.20000000000005Q962 472.20000000000005 973 454.20000000000005Q978 445.20000000000005 984.0 436.70000000000005Q990 428.20000000000005 992 422.20000000000005Q999 399.20000000000005 990.0 382.70000000000005Q981 366.20000000000005 973 353.20000000000005Q963 338.20000000000005 954.0 331.70000000000005Q945 325.20000000000005 924 327.20000000000005Q907 328.20000000000005 889.0 326.70000000000005Q871 325.20000000000005 854.5 326.20000000000005Q838 327.20000000000005 825.0 332.20000000000005Q812 337.20000000000005 806 350.20000000000005Q801 365.20000000000005 794.0 383.20000000000005Q787 401.20000000000005 781.0 419.70000000000005Q775 438.20000000000005 771.0 457.20000000000005Q767 476.20000000000005 767 494.20000000000005Q782 492.20000000000005 797.0 495.70000000000005Q812 499.20000000000005 826 498.20000000000005ZM1369 309.20000000000005Q1388 296.20000000000005 1402.0 279.20000000000005Q1416 262.20000000000005 1429 245.20000000000005Q1437 246.20000000000005 1443.0 242.20000000000005Q1449 238.20000000000005 1456 236.20000000000005Q1470 232.20000000000005 1484.5 236.70000000000005Q1499 241.20000000000005 1513 240.20000000000005Q1530 238.20000000000005 1545.5 231.20000000000005Q1561 224.20000000000005 1582 224.20000000000005Q1589 224.20000000000005 1595.0 228.70000000000005Q1601 233.20000000000005 1607 234.20000000000005Q1615 236.20000000000005 1621.5 232.20000000000005Q1628 228.20000000000005 1636 228.20000000000005Q1650 228.20000000000005 1657.5 237.20000000000005Q1665 246.20000000000005 1675 255.20000000000005Q1680 278.20000000000005 1676.0 300.20000000000005Q1672 322.20000000000005 1674 345.20000000000005Q1676 360.20000000000005 1678.5 374.20000000000005Q1681 388.20000000000005 1681 403.20000000000005Q1682 416.20000000000005 1679.5 430.70000000000005Q1677 445.20000000000005 1678 459.20000000000005Q1679 464.20000000000005 1681.0 469.20000000000005Q1683 474.20000000000005 1682 479.20000000000005Q1680 490.20000000000005 1673.0 496.20000000000005Q1666 502.20000000000005 1665 512.2Q1663 527.2 1671.5 540.2Q1680 553.2 1682 567.2Q1683 573.2 1681.0 580.2Q1679 587.2 1679 593.2Q1677 615.2 1679.5 642.2Q1682 669.2 1683 692.2Q1683 700.2 1684.5 708.2Q1686 716.2 1684 721.2Q1683 726.2 1679.5 729.2Q1676 732.2 1674 736.2Q1673 741.2 1674.5 750.2Q1676 759.2 1676 767.2Q1676 774.2 1675.0 780.7Q1674 787.2 1674 792.2Q1675 795.2 1676.5 798.7Q1678 802.2 1677 805.2Q1675 814.2 1663.5 824.7Q1652 835.2 1640 834.2Q1634 833.2 1622.5 824.7Q1611 816.2 1606 811.2Q1597 800.2 1595.0 783.2Q1593 766.2 1586 752.2Q1583 747.2 1577.5 742.7Q1572 738.2 1568 732.2Q1562 721.2 1560.0 709.7Q1558 698.2 1557.5 686.7Q1557 675.2 1556.0 663.7Q1555 652.2 1551 640.2Q1549 636.2 1545.0 633.2Q1541 630.2 1538 625.2Q1532 615.2 1530.0 608.2Q1528 601.2 1517 597.2Q1482 597.2 1446.5 595.2Q1411 593.2 1377 597.2Q1369 598.2 1363.0 600.7Q1357 603.2 1349 604.2Q1345 604.2 1341.0 603.2Q1337 602.2 1334 602.2Q1320 604.2 1307.0 614.7Q1294 625.2 1287 635.2Q1283 641.2 1282.5 649.7Q1282 658.2 1279 666.2Q1276 674.2 1269.0 680.7Q1262 687.2 1264 697.2Q1253 705.2 1245.5 717.2Q1238 729.2 1231.0 741.7Q1224 754.2 1215.5 765.2Q1207 776.2 1195 781.2Q1190 783.2 1185.5 786.2Q1181 789.2 1176 789.2Q1171 788.2 1170.5 786.2Q1170 784.2 1164 780.2Q1158 776.2 1149.5 771.2Q1141 766.2 1133.0 760.2Q1125 754.2 1118.5 747.7Q1112 741.2 1109 735.2Q1101 718.2 1106.0 710.7Q1111 703.2 1119 692.2Q1130 676.2 1144.0 656.2Q1158 636.2 1169 618.2Q1175 608.2 1179.5 599.2Q1184 590.2 1191 582.2Q1199 571.2 1211.5 564.2Q1224 557.2 1229 546.2Q1231 541.2 1231.0 535.7Q1231 530.2 1233 524.2Q1241 504.20000000000005 1258.0 488.20000000000005Q1275 472.20000000000005 1284 452.20000000000005Q1286 447.20000000000005 1286.5 442.70000000000005Q1287 438.20000000000005 1289 433.20000000000005Q1305 396.20000000000005 1328.5 367.20000000000005Q1352 338.20000000000005 1369 309.20000000000005ZM1509 306.20000000000005Q1497 315.20000000000005 1488.5 326.70000000000005Q1480 338.20000000000005 1466 344.20000000000005Q1462 353.20000000000005 1456.5 361.20000000000005Q1451 369.20000000000005 1442 374.20000000000005Q1439 390.20000000000005 1430.0 401.70000000000005Q1421 413.20000000000005 1413 424.20000000000005Q1409 428.20000000000005 1406.0 432.70000000000005Q1403 437.20000000000005 1399 442.20000000000005Q1394 447.20000000000005 1389.0 449.70000000000005Q1384 452.20000000000005 1380 456.20000000000005Q1374 464.20000000000005 1367.0 478.20000000000005Q1360 492.20000000000005 1354 501.20000000000005Q1349 506.20000000000005 1344.0 511.20000000000005Q1339 516.2 1341 524.2Q1344 532.2 1353.0 534.7Q1362 537.2 1373.5 537.7Q1385 538.2 1396.0 537.2Q1407 536.2 1414 536.2Q1428 536.2 1442.5 536.7Q1457 537.2 1470.5 536.2Q1484 535.2 1494.5 531.2Q1505 527.2 1511 519.2Q1521 487.20000000000005 1516.0 454.70000000000005Q1511 422.20000000000005 1507 390.20000000000005Q1505 381.20000000000005 1504.0 370.20000000000005Q1503 359.20000000000005 1504 350.20000000000005Q1505 340.20000000000005 1510.5 330.70000000000005Q1516 321.20000000000005 1512 308.20000000000005ZM1765 705.2Q1772 689.2 1777.0 674.7Q1782 660.2 1790 642.2Q1794 632.2 1796.0 621.2Q1798 610.2 1803 599.2Q1808 590.2 1815.5 581.2Q1823 572.2 1827 561.2Q1833 544.2 1828.0 522.7Q1823 501.20000000000005 1829 479.20000000000005Q1834 458.20000000000005 1840.5 437.70000000000005Q1847 417.20000000000005 1849 401.20000000000005Q1851 390.20000000000005 1851.0 378.70000000000005Q1851 367.20000000000005 1853 355.20000000000005Q1855 342.20000000000005 1861.0 329.70000000000005Q1867 317.20000000000005 1868 306.20000000000005Q1870 283.20000000000005 1857.5 264.70000000000005Q1845 246.20000000000005 1832 233.20000000000005Q1833 227.20000000000005 1838.5 223.70000000000005Q1844 220.20000000000005 1847 221.20000000000005Q1859 223.20000000000005 1874.0 229.20000000000005Q1889 235.20000000000005 1903 237.20000000000005Q1915 239.20000000000005 1929.5 237.20000000000005Q1944 235.20000000000005 1960 237.20000000000005Q1977 239.20000000000005 2001.0 241.20000000000005Q2025 243.20000000000005 2048 243.20000000000005Q2074 244.20000000000005 2098.0 242.20000000000005Q2122 240.20000000000005 2145 243.20000000000005Q2162 245.20000000000005 2176.0 252.20000000000005Q2190 259.20000000000005 2207 257.20000000000005Q2221 273.20000000000005 2239.5 281.70000000000005Q2258 290.20000000000005 2273 303.20000000000005Q2294 320.20000000000005 2309.0 343.70000000000005Q2324 367.20000000000005 2345 384.20000000000005Q2345 392.20000000000005 2349.0 399.20000000000005Q2353 406.20000000000005 2354 415.20000000000005Q2354 420.20000000000005 2352.0 426.70000000000005Q2350 433.20000000000005 2350 439.20000000000005Q2351 448.20000000000005 2356.0 453.70000000000005Q2361 459.20000000000005 2360 470.20000000000005Q2359 505.20000000000005 2342.0 539.2Q2325 573.2 2308 599.2Q2297 600.2 2292.5 608.2Q2288 616.2 2281 626.2Q2271 640.2 2257.5 649.7Q2244 659.2 2233 673.2Q2211 681.2 2192.5 694.2Q2174 707.2 2151 718.2Q2143 722.2 2134.5 725.7Q2126 729.2 2118 733.2Q2108 736.2 2099.0 740.2Q2090 744.2 2082 746.2Q2076 748.2 2069.5 747.2Q2063 746.2 2057 748.2Q2044 751.2 2032.0 758.7Q2020 766.2 2008 768.2Q1994 770.2 1980.0 766.2Q1966 762.2 1953 759.2Q1936 761.2 1919.0 760.7Q1902 760.2 1884.0 759.2Q1866 758.2 1846.0 759.2Q1826 760.2 1803 764.2Q1797 765.2 1790.5 768.2Q1784 771.2 1778 772.2Q1767 774.2 1753.5 774.2Q1740 774.2 1728 774.2Q1723 774.2 1716.0 773.7Q1709 773.2 1702.5 772.2Q1696 771.2 1691.0 768.7Q1686 766.2 1685 762.2Q1684 756.2 1688.5 751.7Q1693 747.2 1699.5 743.7Q1706 740.2 1713.0 737.7Q1720 735.2 1724 733.2Q1736 726.2 1744.5 717.7Q1753 709.2 1765 705.2ZM2031 318.20000000000005Q2023 326.20000000000005 2019.5 337.20000000000005Q2016 348.20000000000005 2013.5 360.70000000000005Q2011 373.20000000000005 2009.0 386.20000000000005Q2007 399.20000000000005 2003 411.20000000000005Q1999 419.20000000000005 1995.0 426.70000000000005Q1991 434.20000000000005 1989 442.20000000000005Q1984 461.20000000000005 1983.0 479.20000000000005Q1982 497.20000000000005 1977 517.2Q1975 528.2 1969.5 538.7Q1964 549.2 1962 560.2Q1960 571.2 1962.0 581.2Q1964 591.2 1962 602.2Q1960 610.2 1956.5 617.2Q1953 624.2 1951 632.2Q1946 659.2 1961.0 671.7Q1976 684.2 1997 689.2Q2033 697.2 2063.5 684.7Q2094 672.2 2112 656.2Q2125 641.2 2139.0 623.7Q2153 606.2 2161 585.2Q2164 577.2 2167.0 563.7Q2170 550.2 2174 537.2Q2177 526.2 2181.5 516.7Q2186 507.20000000000005 2189 497.20000000000005Q2200 471.20000000000005 2197.5 441.70000000000005Q2195 412.20000000000005 2187 395.20000000000005Q2184 389.20000000000005 2177.5 382.20000000000005Q2171 375.20000000000005 2165 368.20000000000005Q2158 360.20000000000005 2152.5 352.20000000000005Q2147 344.20000000000005 2143 340.20000000000005Q2129 327.20000000000005 2109.5 321.70000000000005Q2090 316.20000000000005 2074 303.20000000000005Q2057 304.20000000000005 2049.0 309.20000000000005Q2041 314.20000000000005 2031 318.20000000000005ZM2887 298.20000000000005Q2860 311.20000000000005 2833.0 311.20000000000005Q2806 311.20000000000005 2773 309.20000000000005Q2764 309.20000000000005 2753.5 310.20000000000005Q2743 311.20000000000005 2734 312.20000000000005Q2687 317.20000000000005 2655.0 347.70000000000005Q2623 378.20000000000005 2608 424.20000000000005Q2603 441.20000000000005 2600.0 455.20000000000005Q2597 469.20000000000005 2613 471.20000000000005Q2623 473.20000000000005 2633.0 471.20000000000005Q2643 469.20000000000005 2653.5 465.70000000000005Q2664 462.20000000000005 2674.0 459.20000000000005Q2684 456.20000000000005 2694 456.20000000000005Q2698 456.20000000000005 2701.5 458.20000000000005Q2705 460.20000000000005 2709 460.20000000000005Q2726 462.20000000000005 2745.0 457.70000000000005Q2764 453.20000000000005 2780 457.20000000000005Q2783 458.20000000000005 2785.5 460.70000000000005Q2788 463.20000000000005 2793 465.20000000000005Q2806 470.20000000000005 2824.0 471.70000000000005Q2842 473.20000000000005 2853 478.20000000000005Q2858 480.20000000000005 2863.0 485.70000000000005Q2868 491.20000000000005 2868 493.20000000000005Q2868 504.20000000000005 2855.0 507.20000000000005Q2842 510.20000000000005 2833 511.20000000000005Q2825 512.2 2817.0 511.20000000000005Q2809 510.20000000000005 2801 512.2Q2787 514.2 2774.0 517.7Q2761 521.2 2746 526.2Q2729 532.2 2714.0 540.7Q2699 549.2 2681 551.2Q2668 553.2 2656.0 551.2Q2644 549.2 2630 551.2Q2625 552.2 2620.5 554.2Q2616 556.2 2611 557.2Q2602 559.2 2597.5 559.7Q2593 560.2 2590.5 562.2Q2588 564.2 2585.5 568.2Q2583 572.2 2578 580.2Q2570 598.2 2568.0 618.7Q2566 639.2 2564 662.2Q2575 673.2 2585.0 679.7Q2595 686.2 2616 686.2Q2627 686.2 2633.5 683.7Q2640 681.2 2651 680.2Q2662 680.2 2673.0 681.7Q2684 683.2 2698 682.2Q2727 680.2 2747.0 674.7Q2767 669.2 2796 671.2Q2802 671.2 2817.5 672.2Q2833 673.2 2849.0 674.7Q2865 676.2 2877.5 679.2Q2890 682.2 2890 687.2Q2890 693.2 2882.5 699.7Q2875 706.2 2865.5 711.7Q2856 717.2 2846.5 720.7Q2837 724.2 2834 725.2Q2817 730.2 2801.0 727.7Q2785 725.2 2766 727.2Q2752 729.2 2741.0 733.2Q2730 737.2 2719.0 741.7Q2708 746.2 2696.5 750.7Q2685 755.2 2670 756.2Q2650 758.2 2636.0 760.7Q2622 763.2 2603 767.2Q2595 769.2 2588.0 771.7Q2581 774.2 2573 776.2Q2544 782.2 2510.5 778.7Q2477 775.2 2438 779.2Q2413 782.2 2393.5 786.7Q2374 791.2 2354 789.2Q2347 788.2 2340.5 787.7Q2334 787.2 2329 782.2Q2331 774.2 2338.0 768.2Q2345 762.2 2352 757.2Q2359 751.2 2365.5 744.7Q2372 738.2 2378 732.2Q2384 724.2 2388.0 712.7Q2392 701.2 2395.5 689.2Q2399 677.2 2403.5 666.7Q2408 656.2 2415 648.2Q2407 630.2 2415.5 607.2Q2424 584.2 2431 559.2Q2433 553.2 2433.0 547.2Q2433 541.2 2435 536.2Q2437 526.2 2444.0 518.7Q2451 511.20000000000005 2453 503.20000000000005Q2454 498.20000000000005 2453.5 493.20000000000005Q2453 488.20000000000005 2454 483.20000000000005Q2456 468.20000000000005 2461.5 454.70000000000005Q2467 441.20000000000005 2469 430.20000000000005Q2471 422.20000000000005 2469.5 413.70000000000005Q2468 405.20000000000005 2469 397.20000000000005Q2471 377.20000000000005 2477.5 359.20000000000005Q2484 341.20000000000005 2485 327.20000000000005Q2486 316.20000000000005 2482.0 303.20000000000005Q2478 290.20000000000005 2474 283.20000000000005Q2471 278.20000000000005 2465.0 272.70000000000005Q2459 267.20000000000005 2453.0 262.20000000000005Q2447 257.20000000000005 2442.5 252.70000000000005Q2438 248.20000000000005 2438 244.20000000000005Q2439 233.20000000000005 2447.0 232.70000000000005Q2455 232.20000000000005 2462 226.20000000000005Q2498 227.20000000000005 2530.5 234.20000000000005Q2563 241.20000000000005 2598 243.20000000000005Q2611 245.20000000000005 2625.0 242.70000000000005Q2639 240.20000000000005 2652 239.20000000000005Q2673 238.20000000000005 2699.5 245.20000000000005Q2726 252.20000000000005 2752 250.20000000000005Q2787 248.20000000000005 2818.0 248.20000000000005Q2849 248.20000000000005 2883 246.20000000000005Q2889 251.20000000000005 2901.0 250.70000000000005Q2913 250.20000000000005 2925.5 248.70000000000005Q2938 247.20000000000005 2948.5 248.20000000000005Q2959 249.20000000000005 2963 257.20000000000005Q2969 271.20000000000005 2961.0 281.20000000000005Q2953 291.20000000000005 2939 294.20000000000005Q2935 294.20000000000005 2928.0 295.20000000000005Q2921 296.20000000000005 2913.0 297.20000000000005Q2905 298.20000000000005 2897.5 298.20000000000005Q2890 298.20000000000005 2887 298.20000000000005ZM4460 80.20000000000005Q4455 81.20000000000005 4451.0 83.20000000000005Q4447 85.20000000000005 4442 86.20000000000005Q4425 107.20000000000005 4412.5 132.20000000000005Q4400 157.20000000000005 4386 183.20000000000005Q4381 194.20000000000005 4373.5 208.70000000000005Q4366 223.20000000000005 4362 238.20000000000005Q4354 268.20000000000005 4348.0 301.20000000000005Q4342 334.20000000000005 4326 358.20000000000005Q4324 362.20000000000005 4319.0 368.20000000000005Q4314 374.20000000000005 4309 379.20000000000005Q4305 384.20000000000005 4298.0 389.20000000000005Q4291 394.20000000000005 4290 398.20000000000005Q4289 404.20000000000005 4292.0 410.20000000000005Q4295 416.20000000000005 4294 422.20000000000005Q4293 431.20000000000005 4285.5 439.20000000000005Q4278 447.20000000000005 4273 457.20000000000005Q4269 466.20000000000005 4266.0 474.70000000000005Q4263 483.20000000000005 4258 493.20000000000005Q4249 510.20000000000005 4236.0 529.2Q4223 548.2 4213 567.2Q4198 597.2 4184.5 628.7Q4171 660.2 4152 686.2Q4145 696.2 4137.5 703.2Q4130 710.2 4125 721.2Q4123 725.2 4123.0 729.2Q4123 733.2 4121 737.2Q4116 747.2 4105.5 756.2Q4095 765.2 4086 775.2Q4078 786.2 4068.5 795.2Q4059 804.2 4049 809.2Q4028 805.2 4009.0 800.7Q3990 796.2 3971 791.2Q3965 790.2 3962.0 785.2Q3959 780.2 3957 775.2Q3946 784.2 3939.5 780.2Q3933 776.2 3923 771.2Q3918 769.2 3913.5 767.7Q3909 766.2 3906 764.2Q3887 754.2 3880 742.2Q3875 704.2 3871.0 665.7Q3867 627.2 3861 590.2Q3859 581.2 3856.5 572.2Q3854 563.2 3856 552.2Q3858 540.2 3864.5 527.7Q3871 515.2 3871 503.20000000000005Q3872 495.20000000000005 3867.0 489.70000000000005Q3862 484.20000000000005 3859 476.20000000000005Q3857 469.20000000000005 3855.0 457.70000000000005Q3853 446.20000000000005 3851 435.20000000000005Q3847 408.20000000000005 3851.5 375.20000000000005Q3856 342.20000000000005 3861.0 310.20000000000005Q3866 278.20000000000005 3867.0 249.20000000000005Q3868 220.20000000000005 3856 200.20000000000005Q3847 200.20000000000005 3842.0 204.70000000000005Q3837 209.20000000000005 3834.5 215.70000000000005Q3832 222.20000000000005 3830.0 230.20000000000005Q3828 238.20000000000005 3824 245.20000000000005Q3819 255.20000000000005 3810.5 262.70000000000005Q3802 270.20000000000005 3795 281.20000000000005Q3785 295.20000000000005 3778.0 315.20000000000005Q3771 335.20000000000005 3762 352.20000000000005Q3756 365.20000000000005 3747.5 379.70000000000005Q3739 394.20000000000005 3737 414.20000000000005Q3732 416.20000000000005 3729.0 420.20000000000005Q3726 424.20000000000005 3721 426.20000000000005Q3707 452.20000000000005 3690.5 478.20000000000005Q3674 504.20000000000005 3657.0 530.7Q3640 557.2 3624.0 584.7Q3608 612.2 3597 639.2Q3593 644.2 3585.0 649.7Q3577 655.2 3572 663.2Q3569 669.2 3568.5 676.7Q3568 684.2 3565 692.2Q3561 703.2 3553.0 713.7Q3545 724.2 3540 735.2Q3531 755.2 3517.5 773.7Q3504 792.2 3487 805.2Q3480 810.2 3469.0 815.2Q3458 820.2 3445 817.2Q3440 816.2 3435.5 812.7Q3431 809.2 3426.0 805.7Q3421 802.2 3415.0 800.7Q3409 799.2 3401 801.2Q3393 794.2 3390.0 787.2Q3387 780.2 3379 773.2Q3374 769.2 3368.5 766.7Q3363 764.2 3357.5 761.2Q3352 758.2 3347.5 753.7Q3343 749.2 3341 741.2Q3338 728.2 3337.0 710.2Q3336 692.2 3336.5 672.7Q3337 653.2 3337.0 632.7Q3337 612.2 3336 592.2Q3334 571.2 3334.0 553.7Q3334 536.2 3332 519.2Q3332 514.2 3330.0 508.20000000000005Q3328 502.20000000000005 3328 497.20000000000005Q3329 486.20000000000005 3335.0 477.70000000000005Q3341 469.20000000000005 3341 461.20000000000005Q3341 449.20000000000005 3336 436.20000000000005Q3328 420.20000000000005 3323.0 399.70000000000005Q3318 379.20000000000005 3320 352.20000000000005Q3322 332.20000000000005 3324.5 310.20000000000005Q3327 288.20000000000005 3325 263.20000000000005Q3324 239.20000000000005 3321.5 218.70000000000005Q3319 198.20000000000005 3323 172.20000000000005Q3324 161.20000000000005 3328.0 147.70000000000005Q3332 134.20000000000005 3330 117.20000000000005Q3329 110.20000000000005 3324.5 100.70000000000005Q3320 91.20000000000005 3314.0 81.20000000000005Q3308 71.20000000000005 3303.5 60.700000000000045Q3299 50.200000000000045 3298 41.200000000000045Q3309 28.200000000000045 3325.0 30.200000000000045Q3341 32.200000000000045 3358 35.200000000000045Q3366 36.200000000000045 3374.0 35.200000000000045Q3382 34.200000000000045 3390 35.200000000000045Q3416 37.200000000000045 3445.0 41.700000000000045Q3474 46.200000000000045 3501 44.200000000000045Q3546 40.200000000000045 3587.0 37.700000000000045Q3628 35.200000000000045 3670 32.200000000000045Q3670 38.200000000000045 3669.0 45.200000000000045Q3668 52.200000000000045 3665 57.200000000000045Q3659 65.20000000000005 3644.0 73.20000000000005Q3629 81.20000000000005 3616 85.20000000000005Q3604 89.20000000000005 3597.0 90.20000000000005Q3590 91.20000000000005 3579 97.20000000000005Q3567 104.20000000000005 3561.5 112.20000000000005Q3556 120.20000000000005 3548 129.20000000000005Q3543 153.20000000000005 3544.5 183.70000000000005Q3546 214.20000000000005 3544 244.20000000000005Q3542 260.20000000000005 3540.0 275.20000000000005Q3538 290.20000000000005 3538 304.20000000000005Q3538 318.20000000000005 3538.0 330.20000000000005Q3538 342.20000000000005 3527 353.20000000000005Q3530 392.20000000000005 3529.0 434.20000000000005Q3528 476.20000000000005 3532 515.2Q3541 512.2 3552.0 502.20000000000005Q3563 492.20000000000005 3568 482.20000000000005Q3571 474.20000000000005 3571.5 465.20000000000005Q3572 456.20000000000005 3575 448.20000000000005Q3580 432.20000000000005 3589.0 418.70000000000005Q3598 405.20000000000005 3607.0 391.70000000000005Q3616 378.20000000000005 3624.0 364.20000000000005Q3632 350.20000000000005 3636 333.20000000000005Q3641 332.20000000000005 3644.5 330.20000000000005Q3648 328.20000000000005 3652 326.20000000000005Q3657 312.20000000000005 3659.0 301.20000000000005Q3661 290.20000000000005 3672 279.20000000000005Q3676 274.20000000000005 3682.5 270.70000000000005Q3689 267.20000000000005 3695.0 263.20000000000005Q3701 259.20000000000005 3705.5 255.20000000000005Q3710 251.20000000000005 3712 244.20000000000005Q3714 238.20000000000005 3711.5 233.20000000000005Q3709 228.20000000000005 3711 221.20000000000005Q3712 213.20000000000005 3720.5 201.70000000000005Q3729 190.20000000000005 3734 179.20000000000005Q3746 159.20000000000005 3754.0 146.70000000000005Q3762 134.20000000000005 3775 117.20000000000005Q3788 101.20000000000005 3797.0 91.20000000000005Q3806 81.20000000000005 3819 66.20000000000005Q3827 57.200000000000045 3834.5 47.200000000000045Q3842 37.200000000000045 3847 35.200000000000045Q3858 29.200000000000045 3872.5 31.700000000000045Q3887 34.200000000000045 3902 32.200000000000045Q3911 31.200000000000045 3922.0 25.200000000000045Q3933 19.200000000000045 3946 17.200000000000045Q3963 14.200000000000045 3981.0 15.200000000000045Q3999 16.200000000000045 4015.0 20.700000000000045Q4031 25.200000000000045 4042.0 34.200000000000045Q4053 43.200000000000045 4055 58.200000000000045Q4051 72.20000000000005 4054.5 87.20000000000005Q4058 102.20000000000005 4055 119.20000000000005Q4050 143.20000000000005 4035.5 165.20000000000005Q4021 187.20000000000005 4017 213.20000000000005Q4015 230.20000000000005 4020.5 248.20000000000005Q4026 266.20000000000005 4028 286.20000000000005Q4029 293.20000000000005 4027.5 300.20000000000005Q4026 307.20000000000005 4028 315.20000000000005Q4031 344.20000000000005 4034 375.20000000000005Q4035 388.20000000000005 4032.0 401.70000000000005Q4029 415.20000000000005 4025.5 428.70000000000005Q4022 442.20000000000005 4018.5 455.20000000000005Q4015 468.20000000000005 4015 480.20000000000005Q4016 497.20000000000005 4018.0 517.2Q4020 537.2 4024 548.2Q4026 553.2 4031.5 558.2Q4037 563.2 4039 568.2Q4043 579.2 4040.5 591.2Q4038 603.2 4043 611.2Q4055 609.2 4055.0 600.7Q4055 592.2 4058 585.2Q4063 571.2 4074.0 556.2Q4085 541.2 4096 524.2Q4117 492.20000000000005 4131 462.20000000000005Q4137 452.20000000000005 4140.5 440.20000000000005Q4144 428.20000000000005 4149 420.20000000000005Q4155 411.20000000000005 4162.5 405.70000000000005Q4170 400.20000000000005 4172 389.20000000000005Q4176 380.20000000000005 4174.0 371.70000000000005Q4172 363.20000000000005 4173 355.20000000000005Q4174 344.20000000000005 4180.5 332.20000000000005Q4187 320.20000000000005 4195.0 307.20000000000005Q4203 294.20000000000005 4210.5 280.70000000000005Q4218 267.20000000000005 4223 252.20000000000005Q4228 234.20000000000005 4233.0 219.70000000000005Q4238 205.20000000000005 4246 190.20000000000005Q4251 179.20000000000005 4258.5 169.70000000000005Q4266 160.20000000000005 4270 151.20000000000005Q4275 140.20000000000005 4276.5 128.20000000000005Q4278 116.20000000000005 4282 105.20000000000005Q4285 94.20000000000005 4290.0 82.70000000000005Q4295 71.20000000000005 4296 63.200000000000045Q4296 58.200000000000045 4295.0 54.200000000000045Q4294 50.200000000000045 4295 47.200000000000045Q4296 41.200000000000045 4302.0 35.700000000000045Q4308 30.200000000000045 4315.5 25.200000000000045Q4323 20.200000000000045 4331.5 16.200000000000045Q4340 12.200000000000045 4346 10.200000000000045Q4366 5.2000000000000455 4394.0 8.700000000000045Q4422 12.200000000000045 4447 14.200000000000045Q4462 15.200000000000045 4483.0 13.200000000000045Q4504 11.200000000000045 4525 9.200000000000045Q4549 7.2000000000000455 4573.5 3.2000000000000455Q4598 -0.7999999999999545 4618 0.20000000000004547Q4623 0.20000000000004547 4631.0 2.7000000000000455Q4639 5.2000000000000455 4639 10.200000000000045Q4640 15.200000000000045 4635.5 18.700000000000045Q4631 22.200000000000045 4624.5 25.700000000000045Q4618 29.200000000000045 4610.5 31.700000000000045Q4603 34.200000000000045 4597 35.200000000000045Q4578 40.200000000000045 4558.5 43.200000000000045Q4539 46.200000000000045 4521.0 49.700000000000045Q4503 53.200000000000045 4487.0 60.200000000000045Q4471 67.20000000000005 4460 80.20000000000005ZM4389 714.2Q4391 691.2 4404.5 672.7Q4418 654.2 4425 634.2Q4429 621.2 4430.5 606.7Q4432 592.2 4432.5 577.7Q4433 563.2 4435.0 548.7Q4437 534.2 4442 520.2Q4437 511.20000000000005 4438.0 500.20000000000005Q4439 489.20000000000005 4439 477.20000000000005Q4444 470.20000000000005 4447.0 461.20000000000005Q4450 452.20000000000005 4461 449.20000000000005Q4471 427.20000000000005 4471.0 403.70000000000005Q4471 380.20000000000005 4476 355.20000000000005Q4477 350.20000000000005 4480.0 346.20000000000005Q4483 342.20000000000005 4485 337.20000000000005Q4492 316.20000000000005 4492.0 292.70000000000005Q4492 269.20000000000005 4500 248.20000000000005Q4506 246.20000000000005 4515.0 241.70000000000005Q4524 237.20000000000005 4533.5 232.70000000000005Q4543 228.20000000000005 4552.0 225.20000000000005Q4561 222.20000000000005 4568 223.20000000000005Q4573 225.20000000000005 4578.0 228.70000000000005Q4583 232.20000000000005 4590 237.20000000000005Q4595 240.20000000000005 4599.5 244.20000000000005Q4604 248.20000000000005 4609 251.20000000000005Q4613 253.20000000000005 4619.5 254.70000000000005Q4626 256.20000000000005 4628 258.20000000000005Q4629 259.20000000000005 4634.5 265.20000000000005Q4640 271.20000000000005 4645.5 278.20000000000005Q4651 285.20000000000005 4656.0 291.70000000000005Q4661 298.20000000000005 4662 300.20000000000005Q4663 306.20000000000005 4661.0 313.70000000000005Q4659 321.20000000000005 4655.5 328.70000000000005Q4652 336.20000000000005 4648.5 343.70000000000005Q4645 351.20000000000005 4643 357.20000000000005Q4640 368.20000000000005 4637.0 378.70000000000005Q4634 389.20000000000005 4629 400.20000000000005Q4624 413.20000000000005 4618.0 430.20000000000005Q4612 447.20000000000005 4610 466.20000000000005Q4608 480.20000000000005 4599.5 487.20000000000005Q4591 494.20000000000005 4588 507.20000000000005Q4586 516.2 4586.0 526.2Q4586 536.2 4586.5 545.7Q4587 555.2 4586.5 564.2Q4586 573.2 4582 581.2Q4579 586.2 4573.0 588.7Q4567 591.2 4563 596.2Q4557 606.2 4552.5 621.2Q4548 636.2 4545.0 652.7Q4542 669.2 4542.5 685.7Q4543 702.2 4548 715.2Q4543 731.2 4530.5 743.2Q4518 755.2 4501.0 761.7Q4484 768.2 4464.5 768.7Q4445 769.2 4425 762.2Q4417 750.2 4406.0 739.7Q4395 729.2 4389 714.2ZM4715 747.2Q4694 754.2 4678.0 741.7Q4662 729.2 4658 712.2Q4656 704.2 4658.0 687.7Q4660 671.2 4664 661.2Q4668 650.2 4681.0 635.2Q4694 620.2 4701 601.2Q4708 583.2 4712.5 566.7Q4717 550.2 4726 540.2Q4733 533.2 4741.0 527.7Q4749 522.2 4750 513.2Q4750 505.20000000000005 4745.5 499.20000000000005Q4741 493.20000000000005 4742 483.20000000000005Q4742 474.20000000000005 4747.5 460.20000000000005Q4753 446.20000000000005 4758 435.20000000000005Q4769 411.20000000000005 4775 386.20000000000005Q4777 379.20000000000005 4778.5 369.70000000000005Q4780 360.20000000000005 4782 355.20000000000005Q4785 351.20000000000005 4788.5 342.20000000000005Q4792 333.20000000000005 4797.0 324.20000000000005Q4802 315.20000000000005 4808.0 307.70000000000005Q4814 300.20000000000005 4821 297.20000000000005Q4829 294.20000000000005 4838.5 292.70000000000005Q4848 291.20000000000005 4856 287.20000000000005Q4865 284.20000000000005 4867.0 280.20000000000005Q4869 276.20000000000005 4877 272.20000000000005Q4883 270.20000000000005 4889.5 270.20000000000005Q4896 270.20000000000005 4903 268.20000000000005Q4911 265.20000000000005 4920.0 259.20000000000005Q4929 253.20000000000005 4941 260.20000000000005Q4946 263.20000000000005 4951.0 278.20000000000005Q4956 293.20000000000005 4961 306.20000000000005Q4963 313.20000000000005 4966.5 323.20000000000005Q4970 333.20000000000005 4973.0 343.70000000000005Q4976 354.20000000000005 4979.0 362.70000000000005Q4982 371.20000000000005 4984 375.20000000000005Q4989 385.20000000000005 4991.0 396.20000000000005Q4993 407.20000000000005 4997 416.20000000000005Q5002 426.20000000000005 5007.0 435.20000000000005Q5012 444.20000000000005 5017 455.20000000000005Q5022 466.20000000000005 5026.0 476.20000000000005Q5030 486.20000000000005 5036 497.20000000000005Q5040 505.20000000000005 5048.0 511.70000000000005Q5056 518.2 5058 526.2Q5061 534.2 5058.0 543.7Q5055 553.2 5057 561.2Q5060 572.2 5070.0 579.2Q5080 586.2 5088 594.2Q5093 600.2 5094.0 606.2Q5095 612.2 5103 614.2Q5105 595.2 5107.5 581.2Q5110 567.2 5113.0 553.7Q5116 540.2 5119.0 525.7Q5122 511.20000000000005 5124 493.20000000000005Q5134 480.20000000000005 5142.0 468.70000000000005Q5150 457.20000000000005 5149 438.20000000000005Q5148 432.20000000000005 5145.5 426.20000000000005Q5143 420.20000000000005 5144 413.20000000000005Q5145 403.20000000000005 5148.0 395.20000000000005Q5151 387.20000000000005 5156 375.20000000000005Q5159 367.20000000000005 5161.0 358.70000000000005Q5163 350.20000000000005 5166 340.20000000000005Q5169 332.20000000000005 5171.5 327.20000000000005Q5174 322.20000000000005 5177.0 317.70000000000005Q5180 313.20000000000005 5182.0 307.70000000000005Q5184 302.20000000000005 5186 291.20000000000005Q5189 274.20000000000005 5189.0 262.20000000000005Q5189 250.20000000000005 5194 238.20000000000005Q5202 220.20000000000005 5219.5 207.70000000000005Q5237 195.20000000000005 5253 187.20000000000005Q5281 188.20000000000005 5299.0 201.70000000000005Q5317 215.20000000000005 5322 234.20000000000005Q5329 252.20000000000005 5321.0 263.70000000000005Q5313 275.20000000000005 5305 289.20000000000005Q5300 298.20000000000005 5297.5 306.20000000000005Q5295 314.20000000000005 5293.5 321.70000000000005Q5292 329.20000000000005 5290.5 337.20000000000005Q5289 345.20000000000005 5285 355.20000000000005Q5282 365.20000000000005 5276.0 371.70000000000005Q5270 378.20000000000005 5268 385.20000000000005Q5271 399.20000000000005 5270.5 408.20000000000005Q5270 417.20000000000005 5267.5 424.70000000000005Q5265 432.20000000000005 5262.5 439.70000000000005Q5260 447.20000000000005 5258 456.20000000000005Q5256 463.20000000000005 5256.0 470.20000000000005Q5256 477.20000000000005 5254 483.20000000000005Q5251 495.20000000000005 5246.0 505.20000000000005Q5241 515.2 5236 524.2Q5229 539.2 5220.5 552.2Q5212 565.2 5210 587.2Q5209 601.2 5208.5 611.7Q5208 622.2 5207.5 631.2Q5207 640.2 5204.5 650.2Q5202 660.2 5198 674.2Q5196 682.2 5192.5 689.7Q5189 697.2 5187 705.2Q5181 731.2 5170.0 744.7Q5159 758.2 5137 772.2Q5125 775.2 5113.0 778.2Q5101 781.2 5089.5 781.2Q5078 781.2 5068.0 777.7Q5058 774.2 5051 763.2Q5046 755.2 5040.5 739.7Q5035 724.2 5028 709.2Q5025 702.2 5021.5 695.7Q5018 689.2 5016 682.2Q5011 671.2 5009.5 663.2Q5008 655.2 5003 641.2Q4996 619.2 4981.0 608.2Q4966 597.2 4955 584.2Q4954 574.2 4952.0 566.2Q4950 558.2 4943 553.2Q4941 551.2 4938.0 550.7Q4935 550.2 4933 547.2Q4930 543.2 4929.0 537.7Q4928 532.2 4925 529.2Q4923 527.2 4919.0 520.2Q4915 513.2 4911.5 506.20000000000005Q4908 499.20000000000005 4904.0 493.70000000000005Q4900 488.20000000000005 4898 489.20000000000005Q4893 489.20000000000005 4888.5 497.20000000000005Q4884 505.20000000000005 4879.5 515.2Q4875 525.2 4871.0 534.7Q4867 544.2 4864 548.2Q4859 555.2 4856.5 568.7Q4854 582.2 4850 590.2Q4843 602.2 4837.5 614.2Q4832 626.2 4840 640.2Q4840 647.2 4836.5 651.7Q4833 656.2 4835 666.2Q4829 677.2 4823.5 691.2Q4818 705.2 4812 722.2Q4809 732.2 4807.0 742.7Q4805 753.2 4802.0 762.7Q4799 772.2 4793.5 779.2Q4788 786.2 4779 787.2Q4767 789.2 4759.0 784.2Q4751 779.2 4744.0 772.7Q4737 766.2 4730.0 758.7Q4723 751.2 4715 747.2ZM5327 705.2Q5334 689.2 5339.0 674.7Q5344 660.2 5352 642.2Q5356 632.2 5358.0 621.2Q5360 610.2 5365 599.2Q5370 590.2 5377.5 581.2Q5385 572.2 5389 561.2Q5395 544.2 5390.0 522.7Q5385 501.20000000000005 5391 479.20000000000005Q5396 458.20000000000005 5402.5 437.70000000000005Q5409 417.20000000000005 5411 401.20000000000005Q5413 390.20000000000005 5413.0 378.70000000000005Q5413 367.20000000000005 5415 355.20000000000005Q5417 342.20000000000005 5423.0 329.70000000000005Q5429 317.20000000000005 5430 306.20000000000005Q5432 283.20000000000005 5419.5 264.70000000000005Q5407 246.20000000000005 5394 233.20000000000005Q5395 227.20000000000005 5400.5 223.70000000000005Q5406 220.20000000000005 5409 221.20000000000005Q5421 223.20000000000005 5436.0 229.20000000000005Q5451 235.20000000000005 5465 237.20000000000005Q5477 239.20000000000005 5491.5 237.20000000000005Q5506 235.20000000000005 5522 237.20000000000005Q5539 239.20000000000005 5563.0 241.20000000000005Q5587 243.20000000000005 5610 243.20000000000005Q5636 244.20000000000005 5660.0 242.20000000000005Q5684 240.20000000000005 5707 243.20000000000005Q5724 245.20000000000005 5738.0 252.20000000000005Q5752 259.20000000000005 5769 257.20000000000005Q5783 273.20000000000005 5801.5 281.70000000000005Q5820 290.20000000000005 5835 303.20000000000005Q5856 320.20000000000005 5871.0 343.70000000000005Q5886 367.20000000000005 5907 384.20000000000005Q5907 392.20000000000005 5911.0 399.20000000000005Q5915 406.20000000000005 5916 415.20000000000005Q5916 420.20000000000005 5914.0 426.70000000000005Q5912 433.20000000000005 5912 439.20000000000005Q5913 448.20000000000005 5918.0 453.70000000000005Q5923 459.20000000000005 5922 470.20000000000005Q5921 505.20000000000005 5904.0 539.2Q5887 573.2 5870 599.2Q5859 600.2 5854.5 608.2Q5850 616.2 5843 626.2Q5833 640.2 5819.5 649.7Q5806 659.2 5795 673.2Q5773 681.2 5754.5 694.2Q5736 707.2 5713 718.2Q5705 722.2 5696.5 725.7Q5688 729.2 5680 733.2Q5670 736.2 5661.0 740.2Q5652 744.2 5644 746.2Q5638 748.2 5631.5 747.2Q5625 746.2 5619 748.2Q5606 751.2 5594.0 758.7Q5582 766.2 5570 768.2Q5556 770.2 5542.0 766.2Q5528 762.2 5515 759.2Q5498 761.2 5481.0 760.7Q5464 760.2 5446.0 759.2Q5428 758.2 5408.0 759.2Q5388 760.2 5365 764.2Q5359 765.2 5352.5 768.2Q5346 771.2 5340 772.2Q5329 774.2 5315.5 774.2Q5302 774.2 5290 774.2Q5285 774.2 5278.0 773.7Q5271 773.2 5264.5 772.2Q5258 771.2 5253.0 768.7Q5248 766.2 5247 762.2Q5246 756.2 5250.5 751.7Q5255 747.2 5261.5 743.7Q5268 740.2 5275.0 737.7Q5282 735.2 5286 733.2Q5298 726.2 5306.5 717.7Q5315 709.2 5327 705.2ZM5593 318.20000000000005Q5585 326.20000000000005 5581.5 337.20000000000005Q5578 348.20000000000005 5575.5 360.70000000000005Q5573 373.20000000000005 5571.0 386.20000000000005Q5569 399.20000000000005 5565 411.20000000000005Q5561 419.20000000000005 5557.0 426.70000000000005Q5553 434.20000000000005 5551 442.20000000000005Q5546 461.20000000000005 5545.0 479.20000000000005Q5544 497.20000000000005 5539 517.2Q5537 528.2 5531.5 538.7Q5526 549.2 5524 560.2Q5522 571.2 5524.0 581.2Q5526 591.2 5524 602.2Q5522 610.2 5518.5 617.2Q5515 624.2 5513 632.2Q5508 659.2 5523.0 671.7Q5538 684.2 5559 689.2Q5595 697.2 5625.5 684.7Q5656 672.2 5674 656.2Q5687 641.2 5701.0 623.7Q5715 606.2 5723 585.2Q5726 577.2 5729.0 563.7Q5732 550.2 5736 537.2Q5739 526.2 5743.5 516.7Q5748 507.20000000000005 5751 497.20000000000005Q5762 471.20000000000005 5759.5 441.70000000000005Q5757 412.20000000000005 5749 395.20000000000005Q5746 389.20000000000005 5739.5 382.20000000000005Q5733 375.20000000000005 5727 368.20000000000005Q5720 360.20000000000005 5714.5 352.20000000000005Q5709 344.20000000000005 5705 340.20000000000005Q5691 327.20000000000005 5671.5 321.70000000000005Q5652 316.20000000000005 5636 303.20000000000005Q5619 304.20000000000005 5611.0 309.20000000000005Q5603 314.20000000000005 5593 318.20000000000005ZM6285 347.20000000000005Q6294 351.20000000000005 6297.0 357.70000000000005Q6300 364.20000000000005 6301.5 371.20000000000005Q6303 378.20000000000005 6305.0 385.20000000000005Q6307 392.20000000000005 6315 396.20000000000005Q6317 398.20000000000005 6322.0 401.20000000000005Q6327 404.20000000000005 6333.0 407.70000000000005Q6339 411.20000000000005 6344.5 413.70000000000005Q6350 416.20000000000005 6353 415.20000000000005Q6359 414.20000000000005 6364.0 406.20000000000005Q6369 398.20000000000005 6372.5 387.70000000000005Q6376 377.20000000000005 6377.0 366.20000000000005Q6378 355.20000000000005 6376 348.20000000000005Q6374 345.20000000000005 6365.0 339.70000000000005Q6356 334.20000000000005 6351 332.20000000000005Q6337 327.20000000000005 6325.0 320.20000000000005Q6313 313.20000000000005 6299 308.20000000000005Q6293 306.20000000000005 6286.5 301.70000000000005Q6280 297.20000000000005 6274 297.20000000000005Q6270 296.20000000000005 6265.0 298.70000000000005Q6260 301.20000000000005 6255 301.20000000000005Q6249 302.20000000000005 6240.5 301.70000000000005Q6232 301.20000000000005 6223.0 302.20000000000005Q6214 303.20000000000005 6204.5 305.20000000000005Q6195 307.20000000000005 6188 312.20000000000005Q6175 323.20000000000005 6169.5 336.70000000000005Q6164 350.20000000000005 6155 367.20000000000005Q6153 371.20000000000005 6148.0 376.20000000000005Q6143 381.20000000000005 6143 388.20000000000005Q6143 392.20000000000005 6146.5 395.20000000000005Q6150 398.20000000000005 6152 404.20000000000005Q6155 410.20000000000005 6156.0 416.70000000000005Q6157 423.20000000000005 6159 428.20000000000005Q6162 431.20000000000005 6165.0 433.70000000000005Q6168 436.20000000000005 6170 438.20000000000005Q6173 441.20000000000005 6174.5 445.20000000000005Q6176 449.20000000000005 6179 451.20000000000005Q6184 454.20000000000005 6196.5 461.70000000000005Q6209 469.20000000000005 6220 471.20000000000005Q6239 475.20000000000005 6254.5 483.70000000000005Q6270 492.20000000000005 6285 498.20000000000005Q6296 503.20000000000005 6302.5 509.70000000000005Q6309 516.2 6314.0 522.7Q6319 529.2 6324.5 535.2Q6330 541.2 6340 544.2Q6345 546.2 6349.0 546.2Q6353 546.2 6358 548.2Q6363 550.2 6368.0 554.7Q6373 559.2 6379 564.2Q6383 568.2 6386.5 572.7Q6390 577.2 6392 581.2Q6395 587.2 6396.0 596.7Q6397 606.2 6397 612.2Q6398 636.2 6396.0 650.2Q6394 664.2 6389.0 676.2Q6384 688.2 6376.5 700.2Q6369 712.2 6360 731.2Q6347 737.2 6333.0 744.7Q6319 752.2 6309 760.2Q6304 764.2 6295.0 770.2Q6286 776.2 6279 778.2Q6265 783.2 6245.0 784.2Q6225 785.2 6208 791.2Q6198 794.2 6184.5 792.2Q6171 790.2 6160 791.2Q6147 793.2 6138.0 795.7Q6129 798.2 6117 796.2Q6103 794.2 6086.0 785.7Q6069 777.2 6056 769.2Q6051 767.2 6048.0 763.7Q6045 760.2 6040 757.2Q6033 753.2 6026.0 751.7Q6019 750.2 6013 745.2Q6007 740.2 6002.0 735.7Q5997 731.2 5992 726.2Q5980 718.2 5965.5 709.7Q5951 701.2 5945 692.2Q5941 687.2 5940.5 678.7Q5940 670.2 5936 662.2Q5934 655.2 5929.0 650.2Q5924 645.2 5923 640.2Q5920 626.2 5926.0 609.2Q5932 592.2 5937 580.2Q5956 577.2 5968.5 583.7Q5981 590.2 5990.0 601.2Q5999 612.2 6006.0 625.7Q6013 639.2 6020 649.2Q6028 662.2 6045.0 669.2Q6062 676.2 6078 683.2Q6084 686.2 6089.5 688.7Q6095 691.2 6100 693.2Q6113 698.2 6122.5 703.7Q6132 709.2 6143 710.2Q6153 710.2 6162.5 708.7Q6172 707.2 6184 705.2Q6196 701.2 6208.0 701.7Q6220 702.2 6231 697.2Q6244 692.2 6246.0 685.2Q6248 678.2 6255 666.2Q6251 647.2 6246.0 639.2Q6241 631.2 6228 620.2Q6223 616.2 6216.5 613.7Q6210 611.2 6205 608.2Q6184 595.2 6159.0 582.2Q6134 569.2 6104 564.2Q6085 558.2 6064.5 547.7Q6044 537.2 6035 519.2Q6032 515.2 6031.5 511.20000000000005Q6031 507.20000000000005 6029 502.20000000000005Q6021 482.20000000000005 6006.5 464.20000000000005Q5992 446.20000000000005 5987 423.20000000000005Q5985 416.20000000000005 5986.0 408.70000000000005Q5987 401.20000000000005 5988.5 394.20000000000005Q5990 387.20000000000005 5991.0 379.20000000000005Q5992 371.20000000000005 5990 362.20000000000005Q5994 358.20000000000005 5995.0 354.20000000000005Q5996 350.20000000000005 5998 346.20000000000005Q6002 340.20000000000005 6003.5 333.70000000000005Q6005 327.20000000000005 6012 321.20000000000005Q6019 315.20000000000005 6023.5 308.70000000000005Q6028 302.20000000000005 6033 298.20000000000005Q6036 296.20000000000005 6040.0 295.70000000000005Q6044 295.20000000000005 6047 293.20000000000005Q6052 290.20000000000005 6056.0 285.70000000000005Q6060 281.20000000000005 6065 277.20000000000005Q6085 262.20000000000005 6110.0 251.70000000000005Q6135 241.20000000000005 6161 235.20000000000005Q6165 230.20000000000005 6174.0 226.70000000000005Q6183 223.20000000000005 6193.5 221.70000000000005Q6204 220.20000000000005 6214.0 219.20000000000005Q6224 218.20000000000005 6231 217.20000000000005Q6262 221.20000000000005 6280.5 227.20000000000005Q6299 233.20000000000005 6315.5 239.70000000000005Q6332 246.20000000000005 6351.0 252.20000000000005Q6370 258.20000000000005 6400 262.20000000000005Q6412 271.20000000000005 6425.5 283.70000000000005Q6439 296.20000000000005 6449.0 311.20000000000005Q6459 326.20000000000005 6463.5 342.70000000000005Q6468 359.20000000000005 6461 376.20000000000005Q6456 386.20000000000005 6453.0 398.70000000000005Q6450 411.20000000000005 6444 421.20000000000005Q6439 429.20000000000005 6433.5 440.20000000000005Q6428 451.20000000000005 6421 458.20000000000005Q6407 472.20000000000005 6385.0 478.20000000000005Q6363 484.20000000000005 6342 482.20000000000005Q6336 472.20000000000005 6323.5 465.20000000000005Q6311 458.20000000000005 6298.5 450.70000000000005Q6286 443.20000000000005 6275.5 433.70000000000005Q6265 424.20000000000005 6262 410.20000000000005Q6259 393.20000000000005 6263.5 374.20000000000005Q6268 355.20000000000005 6285 347.20000000000005Z" fill="currentColor" /></svg>