<svg viewBox="0 0 9920 2260" xmlns="http://www.w3.org/2000/svg"><path d="M616 1830V494H168V430H1130V494H682V1830ZM1394 1830V1766H1628V894H1394V830H1694V1088V1766H1956V1830ZM1692 1244 1639 1236Q1642 1175 1666.0 1113.5Q1690 1052 1731.0 996.5Q1772 941 1828.0 898.5Q1884 856 1952.0 831.0Q2020 806 2096 806Q2152 806 2185.5 816.0Q2219 826 2233 834L2209 902Q2198 894 2166.0 884.0Q2134 874 2084 874Q2015 874 1949.0 907.0Q1883 940 1828.5 994.0Q1774 1048 1738.0 1113.5Q1702 1179 1692 1244ZM2534 1830V1766H2902V894H2584V830H2968V1766H3326V1830ZM2894 430H2974V586H2894ZM4064 1852Q3969 1852 3889.5 1826.0Q3810 1800 3755.0 1760.5Q3700 1721 3678 1680L3738 1630Q3751 1659 3780.0 1687.0Q3809 1715 3852.0 1737.5Q3895 1760 3949.5 1773.0Q4004 1786 4068 1786Q4134 1786 4192.5 1773.0Q4251 1760 4296.0 1732.0Q4341 1704 4366.5 1658.0Q4392 1612 4392 1546Q4392 1470 4340.0 1427.5Q4288 1385 4210.5 1363.5Q4133 1342 4055 1331Q3996 1322 3935.0 1304.0Q3874 1286 3822.0 1254.5Q3770 1223 3738.0 1174.5Q3706 1126 3706 1058Q3706 1004 3728.5 962.5Q3751 921 3789.0 891.5Q3827 862 3875.5 843.0Q3924 824 3977.0 815.0Q4030 806 4080 806Q4168 806 4239.0 832.5Q4310 859 4358.0 899.0Q4406 939 4424 980L4364 1022Q4350 989 4322.5 962.0Q4295 935 4257.5 914.5Q4220 894 4175.0 883.0Q4130 872 4080 872Q4040 872 3988.0 879.5Q3936 887 3888.5 907.0Q3841 927 3809.5 963.5Q3778 1000 3778 1058Q3778 1126 3820.0 1167.5Q3862 1209 3930.5 1232.0Q3999 1255 4078 1268Q4127 1276 4180.5 1287.5Q4234 1299 4284.5 1318.0Q4335 1337 4375.5 1367.0Q4416 1397 4440.0 1440.5Q4464 1484 4464 1546Q4464 1610 4441.5 1660.0Q4419 1710 4380.0 1746.0Q4341 1782 4290.0 1805.5Q4239 1829 4181.0 1840.5Q4123 1852 4064 1852ZM4974 2230V830H5040V972V2230ZM5378 1852Q5287 1852 5215.5 1815.5Q5144 1779 5094.0 1718.5Q5044 1658 5018.0 1583.0Q4992 1508 4992 1432L5036 1420Q5044 1486 5069.5 1551.0Q5095 1616 5136.5 1669.0Q5178 1722 5235.5 1754.0Q5293 1786 5366 1786Q5455 1786 5536.5 1739.0Q5618 1692 5670.0 1591.0Q5722 1490 5722 1328Q5722 1163 5672.0 1063.5Q5622 964 5542.5 919.0Q5463 874 5374 874Q5301 874 5243.0 903.5Q5185 933 5142.0 982.5Q5099 1032 5072.5 1093.0Q5046 1154 5036 1216L4992 1206Q4992 1133 5020.0 1062.5Q5048 992 5100.0 934.5Q5152 877 5225.0 842.5Q5298 808 5388 808Q5484 808 5576.0 861.5Q5668 915 5728.0 1030.0Q5788 1145 5788 1328Q5788 1465 5751.5 1564.5Q5715 1664 5655.0 1727.5Q5595 1791 5522.5 1821.5Q5450 1852 5378 1852ZM6618 1852Q6530 1852 6458.0 1830.5Q6386 1809 6335.5 1768.0Q6285 1727 6257.5 1667.5Q6230 1608 6230 1532Q6230 1469 6252.5 1419.0Q6275 1369 6314.5 1332.0Q6354 1295 6405.0 1270.5Q6456 1246 6513.5 1234.0Q6571 1222 6630 1222Q6711 1222 6779.5 1240.5Q6848 1259 6897.0 1286.5Q6946 1314 6968 1340V1134Q6968 1056 6939.0 1004.5Q6910 953 6862.5 923.5Q6815 894 6757.0 882.0Q6699 870 6640 870Q6588 870 6538.5 882.5Q6489 895 6445.5 914.5Q6402 934 6369.0 956.5Q6336 979 6316 1000L6274 943Q6307 911 6361.0 879.5Q6415 848 6488.0 827.0Q6561 806 6650 806Q6703 806 6757.5 816.5Q6812 827 6861.5 850.0Q6911 873 6950.0 910.0Q6989 947 7011.5 999.0Q7034 1051 7034 1121V1766H7202V1830H6968V1697Q6947 1730 6900.0 1766.0Q6853 1802 6782.0 1827.0Q6711 1852 6618 1852ZM6620 1788Q6723 1788 6792.5 1756.5Q6862 1725 6904.5 1682.0Q6947 1639 6968 1606V1422Q6943 1389 6889.0 1358.0Q6835 1327 6767.5 1306.5Q6700 1286 6632 1286Q6549 1286 6472.5 1312.0Q6396 1338 6347.0 1392.5Q6298 1447 6298 1532Q6298 1617 6337.0 1674.0Q6376 1731 6448.0 1759.5Q6520 1788 6620 1788ZM8025 1852Q7967 1852 7904.0 1833.0Q7841 1814 7782.0 1774.5Q7723 1735 7675.5 1673.0Q7628 1611 7600.0 1525.5Q7572 1440 7572 1328Q7572 1215 7600.0 1129.0Q7628 1043 7675.5 981.5Q7723 920 7782.0 881.5Q7841 843 7904.0 824.5Q7967 806 8025 806Q8102 806 8163.0 827.5Q8224 849 8270.0 884.0Q8316 919 8345.0 958.5Q8374 998 8386 1034L8321 1066Q8306 1021 8267.5 976.0Q8229 931 8168.0 901.5Q8107 872 8025 872Q7963 872 7896.5 898.5Q7830 925 7772.5 980.5Q7715 1036 7679.5 1122.5Q7644 1209 7644 1328Q7644 1446 7679.5 1532.0Q7715 1618 7772.5 1674.5Q7830 1731 7896.5 1758.5Q7963 1786 8025 1786Q8108 1786 8169.0 1755.0Q8230 1724 8268.0 1679.0Q8306 1634 8319 1592L8386 1626Q8376 1657 8347.5 1696.0Q8319 1735 8272.5 1770.5Q8226 1806 8164.0 1829.0Q8102 1852 8025 1852ZM9271 1852Q9194 1852 9113.0 1823.5Q9032 1795 8963.0 1733.0Q8894 1671 8851.5 1571.0Q8809 1471 8809 1328Q8809 1185 8853.0 1085.0Q8897 985 8967.0 923.5Q9037 862 9118.5 834.0Q9200 806 9275 806Q9358 806 9437.0 835.0Q9516 864 9579.0 920.5Q9642 977 9679.0 1061.5Q9716 1146 9716 1257Q9716 1270 9715.5 1289.5Q9715 1309 9713 1322H8858V1258H9639Q9639 1249 9639.0 1245.5Q9639 1242 9639 1233Q9639 1113 9586.0 1032.5Q9533 952 9449.0 912.0Q9365 872 9273 872Q9209 872 9140.5 897.0Q9072 922 9013.0 976.0Q8954 1030 8917.5 1117.0Q8881 1204 8881 1328Q8881 1483 8940.5 1584.5Q9000 1686 9090.0 1736.0Q9180 1786 9271 1786Q9364 1786 9435.0 1758.0Q9506 1730 9552.0 1687.0Q9598 1644 9614 1598L9683 1636Q9668 1672 9632.5 1710.0Q9597 1748 9543.5 1780.0Q9490 1812 9421.5 1832.0Q9353 1852 9271 1852Z" fill="currentColor" /></svg>