<svg viewBox="0 0 3822 1390" xmlns="http://www.w3.org/2000/svg"><path d="M158 1048Q159 1033 160.0 999.5Q161 966 162.5 922.5Q164 879 165.0 832.5Q166 786 166.5 743.0Q167 700 167 669Q167 625 166.0 572.5Q165 520 164.5 473.0Q164 426 163.0 395.5Q162 365 162 365L242 366Q242 366 241.5 382.0Q241 398 240.5 426.5Q240 455 239.5 494.0Q239 533 238.5 580.0Q238 627 238 678Q238 729 238.5 782.0Q239 835 240.0 883.0Q241 931 241.5 969.0Q242 1007 242.5 1029.0Q243 1051 243 1051ZM9 420 12 349Q12 349 32.0 349.0Q52 349 81.0 348.5Q110 348 139.0 348.0Q168 348 186 348Q201 348 226.0 348.0Q251 348 280.0 347.5Q309 347 335.0 346.5Q361 346 377.5 346.0Q394 346 394 346L397 412Q397 412 381.5 412.0Q366 412 342.0 412.5Q318 413 290.5 413.5Q263 414 238.5 414.0Q214 414 199 414Q184 414 160.5 415.0Q137 416 111.0 416.5Q85 417 61.5 418.0Q38 419 23.5 419.5Q9 420 9 420ZM634 769Q640 734 645.0 702.5Q650 671 650 646Q650 613 639.5 593.5Q629 574 602 574Q584 574 563.0 589.5Q542 605 526.5 646.0Q511 687 511 764L472 806Q473 781 476.0 744.0Q479 707 487.0 667.0Q495 627 510.0 592.5Q525 558 550.5 536.5Q576 515 614 515Q650 515 671.0 534.0Q692 553 701.0 584.5Q710 616 710 655Q710 688 705.0 722.5Q700 757 692 789ZM445 1055Q446 1035 446.5 1015.5Q447 996 447.5 975.0Q448 954 448.5 929.0Q449 904 449.0 873.5Q449 843 449 804Q449 742 448.0 692.0Q447 642 445.5 602.5Q444 563 441 534L500 540Q502 562 503.5 594.0Q505 626 507.0 668.0Q509 710 511 764Q511 811 511.5 852.5Q512 894 514.0 929.5Q516 965 517.5 994.0Q519 1023 520 1044ZM899 1060Q856 1060 834.5 1038.5Q813 1017 806.5 978.5Q800 940 800 891Q800 886 800.5 865.5Q801 845 802.0 814.0Q803 783 804 748Q805 708 806.0 671.0Q807 634 808.0 604.5Q809 575 809.5 555.5Q810 536 810 532L879 526Q878 551 876.0 579.0Q874 607 872.0 637.5Q870 668 868.5 700.0Q867 732 865 767Q864 792 863.0 814.5Q862 837 861.5 856.0Q861 875 860.5 889.5Q860 904 860 912Q860 940 864.0 961.5Q868 983 878.0 995.0Q888 1007 906 1007Q929 1007 949.5 990.5Q970 974 986.5 942.5Q1003 911 1012.5 867.0Q1022 823 1022 769L1046 762Q1046 809 1042.0 853.5Q1038 898 1029.0 935.5Q1020 973 1003.0 1001.0Q986 1029 960.5 1044.5Q935 1060 899 1060ZM1026 1050 1020 945Q1022 901 1022.0 857.0Q1022 813 1022 769Q1022 746 1021.5 717.5Q1021 689 1020.0 657.5Q1019 626 1018.5 592.5Q1018 559 1017 525L1088 526Q1087 546 1086.5 573.0Q1086 600 1085.5 630.0Q1085 660 1084.5 687.5Q1084 715 1084.0 736.0Q1084 757 1084 766Q1085 794 1085.5 822.5Q1086 851 1087.0 879.5Q1088 908 1089.0 936.5Q1090 965 1090.5 993.0Q1091 1021 1092 1050ZM1360 1063Q1308 1063 1278.0 1032.0Q1248 1001 1233 954Q1223 919 1218.5 878.5Q1214 838 1214 798Q1214 748 1219.5 703.5Q1225 659 1239 623Q1251 594 1269.0 572.5Q1287 551 1314.5 539.0Q1342 527 1379 527Q1424 527 1451.0 549.0Q1478 571 1490.0 608.0Q1502 645 1502 690Q1502 708 1500.0 727.0Q1498 746 1495 765L1432 764Q1434 741 1436.0 719.0Q1438 697 1438 678Q1438 650 1432.5 628.0Q1427 606 1412.5 593.5Q1398 581 1371 581Q1339 581 1320.5 602.0Q1302 623 1293 657Q1285 688 1282.5 725.5Q1280 763 1280 800Q1280 821 1281.0 842.0Q1282 863 1284.0 882.5Q1286 902 1289 920Q1297 957 1315.0 981.5Q1333 1006 1367 1006Q1395 1006 1411.5 994.0Q1428 982 1435.5 962.5Q1443 943 1443 919Q1443 911 1442.5 902.5Q1442 894 1440 885L1502 883Q1503 891 1503.5 898.5Q1504 906 1504 914Q1504 957 1489.0 990.5Q1474 1024 1442.5 1043.5Q1411 1063 1360 1063ZM1725 1060Q1682 1060 1661.0 1038.5Q1640 1017 1634.0 978.5Q1628 940 1628 891Q1628 861 1628.5 831.0Q1629 801 1629.0 771.0Q1629 741 1629.0 711.5Q1629 682 1629.0 652.0Q1629 622 1629.5 592.0Q1630 562 1630 532L1699 521Q1698 546 1696.5 589.5Q1695 633 1693.5 683.5Q1692 734 1690.5 781.5Q1689 829 1688.5 864.5Q1688 900 1688 912Q1688 940 1691.5 961.5Q1695 983 1704.5 995.0Q1714 1007 1732 1007Q1762 1007 1788.5 977.5Q1815 948 1831.0 894.5Q1847 841 1847 769Q1847 746 1846.5 722.0Q1846 698 1845.0 671.5Q1844 645 1843.5 615.5Q1843 586 1842 552L1914 553Q1913 626 1912.5 675.0Q1912 724 1912.0 763.0Q1912 802 1912.0 843.5Q1912 885 1912 943Q1912 965 1914.5 981.5Q1917 998 1923.0 1011.0Q1929 1024 1937 1038L1878 1060Q1867 1046 1860.5 1021.5Q1854 997 1851 951Q1835 1000 1805.0 1030.0Q1775 1060 1725 1060ZM2056 1048Q2057 1025 2057.5 986.0Q2058 947 2058.5 898.5Q2059 850 2059.0 797.0Q2059 744 2059 693Q2059 654 2059.0 609.0Q2059 564 2058.5 519.5Q2058 475 2057.5 434.5Q2057 394 2057 364L2131 356Q2130 381 2128.5 412.0Q2127 443 2125.5 478.5Q2124 514 2123.0 551.0Q2122 588 2121.5 624.0Q2121 660 2121 692Q2121 745 2122.5 811.0Q2124 877 2126.5 940.0Q2129 1003 2131 1048ZM2412 1062Q2357 1062 2326.0 1032.5Q2295 1003 2280 954Q2269 917 2265.0 873.0Q2261 829 2261 781Q2261 741 2265.5 704.0Q2270 667 2280 636Q2297 587 2331.0 556.5Q2365 526 2423 526Q2471 526 2498.0 548.0Q2525 570 2536.5 607.5Q2548 645 2548 691Q2548 719 2544.5 748.0Q2541 777 2536 807L2478 756Q2481 734 2483.0 713.5Q2485 693 2485 675Q2485 647 2479.0 626.0Q2473 605 2458.5 593.0Q2444 581 2417 581Q2389 581 2371.0 600.5Q2353 620 2343 650Q2334 678 2330.5 713.0Q2327 748 2327 782Q2327 807 2327.5 831.5Q2328 856 2330.0 878.5Q2332 901 2336 921Q2344 959 2362.5 982.5Q2381 1006 2416 1006Q2444 1006 2460.0 993.5Q2476 981 2483.0 960.5Q2490 940 2490 917Q2490 909 2489.5 901.0Q2489 893 2487 885H2546Q2548 895 2549.0 905.0Q2550 915 2550 925Q2550 964 2534.5 995.0Q2519 1026 2488.5 1044.0Q2458 1062 2412 1062ZM2288 814 2287 755 2536 753V807Q2536 807 2520.5 807.0Q2505 807 2479.5 808.0Q2454 809 2421.5 809.5Q2389 810 2354.5 811.0Q2320 812 2288 814ZM2980 1053 2900 1049Q2901 1032 2902.5 1007.5Q2904 983 2905.5 951.5Q2907 920 2908.0 880.5Q2909 841 2909 794Q2909 781 2909.0 764.0Q2909 747 2909.0 727.0Q2909 707 2909 685Q2909 647 2902.0 625.5Q2895 604 2882.5 595.0Q2870 586 2853 586Q2830 586 2806.5 605.0Q2783 624 2767.5 669.0Q2752 714 2752 792L2714 839Q2714 802 2717.0 760.0Q2720 718 2729.0 677.0Q2738 636 2755.0 602.0Q2772 568 2799.5 548.0Q2827 528 2867 528Q2898 528 2921.0 543.0Q2944 558 2957.5 591.5Q2971 625 2971 680Q2971 718 2971.0 734.0Q2971 750 2971.0 759.0Q2971 768 2971 787Q2971 842 2972.0 883.5Q2973 925 2974.5 956.0Q2976 987 2977.5 1010.5Q2979 1034 2980 1053ZM2681 1049Q2682 1028 2683.5 1007.0Q2685 986 2686.5 959.0Q2688 932 2689.0 895.0Q2690 858 2690 804Q2690 731 2689.0 669.5Q2688 608 2687.0 571.0Q2686 534 2686 534L2753 531Q2753 553 2752.0 594.0Q2751 635 2751.0 686.5Q2751 738 2752 792Q2752 869 2753.0 915.0Q2754 961 2755.0 990.5Q2756 1020 2756 1049ZM3249 1060Q3210 1060 3186.0 1048.0Q3162 1036 3148.5 1014.5Q3135 993 3130.0 965.0Q3125 937 3125 905Q3125 885 3125.5 861.0Q3126 837 3126.5 809.0Q3127 781 3128 751Q3129 719 3130.0 686.5Q3131 654 3132.0 622.5Q3133 591 3133.5 560.0Q3134 529 3135.0 499.0Q3136 469 3136 441L3213 433Q3210 460 3207.5 496.5Q3205 533 3202.5 576.5Q3200 620 3197.5 666.0Q3195 712 3193 757Q3191 799 3190.0 833.5Q3189 868 3189 890Q3189 927 3193.5 953.0Q3198 979 3211.0 992.5Q3224 1006 3249 1006Q3284 1006 3299.5 989.5Q3315 973 3319.5 945.5Q3324 918 3324 885Q3324 875 3323.5 864.5Q3323 854 3322.0 843.0Q3321 832 3320 821L3380 807Q3382 828 3383.5 848.0Q3385 868 3385 887Q3385 939 3371.0 977.5Q3357 1016 3327.0 1038.0Q3297 1060 3249 1060ZM3074 594 3080 536Q3078 536 3095.5 536.0Q3113 536 3138.5 536.5Q3164 537 3185.5 537.0Q3207 537 3211 537Q3228 537 3250.5 536.5Q3273 536 3297.0 535.5Q3321 535 3343.5 534.5Q3366 534 3384 534L3378 585Q3367 585 3353.0 585.5Q3339 586 3323.5 586.0Q3308 586 3291.5 586.5Q3275 587 3259.0 587.5Q3243 588 3229 588Q3206 588 3177.0 589.5Q3148 591 3121.0 592.0Q3094 593 3074 594ZM3727 1060Q3717 1047 3711.5 1031.0Q3706 1015 3703.0 994.5Q3700 974 3699.0 949.0Q3698 924 3698.0 894.0Q3698 864 3698 829Q3698 809 3698.0 789.0Q3698 769 3698.5 749.0Q3699 729 3699.0 709.0Q3699 689 3699 669Q3699 629 3688.0 609.0Q3677 589 3659.5 581.5Q3642 574 3622 574Q3585 574 3570.0 599.5Q3555 625 3555 659Q3555 669 3556.5 680.0Q3558 691 3560 702L3503 721Q3499 706 3497.5 691.0Q3496 676 3496 663Q3496 623 3511.5 592.0Q3527 561 3557.0 543.0Q3587 525 3630 525Q3669 525 3694.0 537.0Q3719 549 3734.0 569.5Q3749 590 3755.0 617.5Q3761 645 3761 676Q3761 717 3761.0 749.5Q3761 782 3761.0 811.0Q3761 840 3761.0 872.0Q3761 904 3761 944Q3761 976 3767.0 997.0Q3773 1018 3786 1038ZM3588 1055Q3555 1055 3532.0 1039.0Q3509 1023 3497.0 995.0Q3485 967 3485 930Q3485 885 3503.5 855.5Q3522 826 3550.0 805.5Q3578 785 3607 768Q3631 754 3652.0 740.0Q3673 726 3686.0 709.0Q3699 692 3699 669L3735 676Q3735 713 3719.0 737.5Q3703 762 3678.5 779.0Q3654 796 3628 812Q3607 825 3588.5 840.5Q3570 856 3558.5 876.5Q3547 897 3547 927Q3547 949 3551.0 965.0Q3555 981 3566.0 989.5Q3577 998 3596 998Q3620 998 3638.5 986.0Q3657 974 3670.5 951.5Q3684 929 3691.0 898.0Q3698 867 3698 829L3730 766Q3730 824 3726.0 870.5Q3722 917 3712.0 951.5Q3702 986 3686.0 1009.0Q3670 1032 3645.5 1043.5Q3621 1055 3588 1055Z" fill="currentColor" /></svg>