<svg viewBox="0 0 7584 2174" xmlns="http://www.w3.org/2000/svg"><path d="M291 1551 505 1508V266H319Q209 266 168 304Q132 338 86 476Q27 476 0 459L38 144H1158L1199 459Q1167 476 1113 476Q1067 337 1037.5 309.5Q1008 282 973.0 274.0Q938 266 881 266H694V1508L911 1551L918 1564L903 1636H287L282 1627ZM2051 823Q1994 755 1917 755Q1851 755 1758 886Q1718 943 1681 1016V1508L1932 1542L1936 1556L1925 1636H1387L1380 1627L1389 1551L1522 1508V840L1382 779L1373 767L1382 713L1646 607L1662 616L1681 875Q1766 656 1908 600Q1940 588 1999.0 588.0Q2058 588 2120 621Q2116 755 2051 823ZM2400 2086Q2586 1805 2674 1631L2318 744L2203 715L2196 703L2207 623H2623L2630 633L2620 706L2509 744L2762 1474H2771Q2834 1319 2883 1186L2967 953Q3007 837 3037 741L2893 715L2888 703L2900 623H3277L3284 633L3270 715L3164 744L2868 1483Q2815 1612 2758 1736L2655 1957L2548 2174Q2492 2174 2440 2130Q2417 2111 2400 2086ZM3453 1551 3583 1508V220L3425 180L3416 166L3425 112L3727 0L3743 9V1092L4131 744L3990 715L3983 703L3995 623H4445L4450 633L4440 706L4297 753L3960 1031L4383 1508L4522 1542L4527 1556L4516 1636H4068L4061 1627L4071 1551L4176 1508L3844 1125L3743 1209V1508L3904 1542L3911 1556L3896 1636H3448L3444 1627ZM4649 1551 4779 1508V220L4621 180L4612 166L4621 112L4923 0L4939 9V1092L5327 744L5186 715L5179 703L5191 623H5641L5646 633L5636 706L5493 753L5156 1031L5579 1508L5718 1542L5723 1556L5712 1636H5264L5257 1627L5267 1551L5372 1508L5040 1125L4939 1209V1508L5100 1542L5107 1556L5092 1636H4644L4640 1627ZM6591 1409Q6643 1430 6648 1483Q6495 1628 6340 1664Q6306 1672 6271 1672Q6061 1672 5930 1524Q5800 1379 5800 1162Q5800 926 5955 756Q6026 678 6119.0 633.0Q6212 588 6307.5 588.0Q6403 588 6469.5 621.5Q6536 655 6580 712Q6668 824 6668 998Q6668 1047 6659 1083Q6648 1108 6248 1108Q6115 1108 5967 1104Q5969 1295 6090 1412Q6198 1516 6334.0 1516.0Q6470 1516 6591 1409ZM6050 1012Q6350 1012 6488 993Q6488 886 6424 796Q6354 699 6257 699Q6151 699 6074 778Q5991 861 5972 1012ZM7515 823Q7458 755 7381 755Q7315 755 7222 886Q7182 943 7145 1016V1508L7396 1542L7400 1556L7389 1636H6851L6844 1627L6853 1551L6986 1508V840L6846 779L6837 767L6846 713L7110 607L7126 616L7145 875Q7230 656 7372 600Q7404 588 7463.0 588.0Q7522 588 7584 621Q7580 755 7515 823Z" fill="currentColor" /></svg>