<svg viewBox="0 0 4283 2232" xmlns="http://www.w3.org/2000/svg"><path d="M451 374V441H266V1767H191V441H5V374ZM789 749V1585Q789 1629 778.0 1666.0Q767 1703 745.0 1730.0Q723 1757 690.5 1772.0Q658 1787 615 1787Q572 1787 539.5 1773.5Q507 1760 485.5 1735.5Q464 1711 453.0 1677.5Q442 1644 442 1604V749H517V1610Q517 1656 542.5 1688.0Q568 1720 616 1720Q663 1720 688.5 1683.5Q714 1647 714 1595V749ZM924 1767V203H999V1767ZM1481 1584Q1481 1623 1470.0 1656.5Q1459 1690 1437.0 1714.5Q1415 1739 1382.5 1753.0Q1350 1767 1308 1767H1209V2211H1134V931Q1134 892 1145.0 858.5Q1156 825 1178.0 800.5Q1200 776 1232.5 762.5Q1265 749 1308 749H1481ZM1406 816H1308Q1260 816 1234.5 848.0Q1209 880 1209 926V1700H1308Q1355 1700 1380.5 1668.5Q1406 1637 1406 1591ZM1780 816Q1732 816 1706.5 848.0Q1681 880 1681 926V1279H1780Q1827 1279 1852.5 1248.0Q1878 1217 1878 1170V816ZM1953 749V1163Q1953 1203 1942.0 1236.5Q1931 1270 1909.0 1294.5Q1887 1319 1854.5 1332.5Q1822 1346 1780 1346H1681V1611Q1681 1657 1706.5 1688.5Q1732 1720 1780 1720Q1827 1720 1852.5 1684.0Q1878 1648 1878 1596L1952 1585Q1952 1628 1941.0 1665.0Q1930 1702 1908.5 1729.0Q1887 1756 1854.5 1771.5Q1822 1787 1780 1787Q1737 1787 1704.5 1773.0Q1672 1759 1650.0 1734.5Q1628 1710 1617.0 1676.5Q1606 1643 1606 1604V932Q1606 892 1617.0 858.5Q1628 825 1650.0 800.5Q1672 776 1704.5 762.5Q1737 749 1780 749ZM2420 1767H2345V926Q2345 880 2319.5 848.0Q2294 816 2247 816H2148V1767H2073V749H2247Q2289 749 2321.5 762.5Q2354 776 2376.0 800.5Q2398 825 2409.0 858.5Q2420 892 2420 931ZM2485 1767ZM3264 1505Q3264 1560 3254.0 1611.0Q3244 1662 3218.5 1701.0Q3193 1740 3149.5 1763.5Q3106 1787 3040 1787Q2978 1787 2936.0 1764.5Q2894 1742 2868.5 1704.0Q2843 1666 2832.0 1614.5Q2821 1563 2821 1505V646Q2821 613 2822.5 578.0Q2824 543 2831.0 511.0Q2838 479 2854.0 450.5Q2870 422 2898.5 400.5Q2927 379 2971.5 367.0Q3016 355 3081 355H3264ZM3189 422H3102Q3049 422 3010.0 431.0Q2971 440 2945.5 461.5Q2920 483 2908.0 520.0Q2896 557 2896 613V1538Q2896 1574 2903.5 1606.5Q2911 1639 2928.5 1664.5Q2946 1690 2974.0 1705.0Q3002 1720 3044 1720Q3084 1720 3111.5 1705.5Q3139 1691 3156.0 1666.0Q3173 1641 3181.0 1608.0Q3189 1575 3189 1538ZM3761 1767H3686V926Q3686 880 3660.5 848.0Q3635 816 3588 816H3489V1767H3414V749H3588Q3630 749 3662.5 762.5Q3695 776 3717.0 800.5Q3739 825 3750.0 858.5Q3761 892 3761 931ZM4060 816Q4012 816 3986.5 848.0Q3961 880 3961 926V1279H4060Q4107 1279 4132.5 1248.0Q4158 1217 4158 1170V816ZM4233 749V1163Q4233 1203 4222.0 1236.5Q4211 1270 4189.0 1294.5Q4167 1319 4134.5 1332.5Q4102 1346 4060 1346H3961V1611Q3961 1657 3986.5 1688.5Q4012 1720 4060 1720Q4107 1720 4132.5 1684.0Q4158 1648 4158 1596L4232 1585Q4232 1628 4221.0 1665.0Q4210 1702 4188.5 1729.0Q4167 1756 4134.5 1771.5Q4102 1787 4060 1787Q4017 1787 3984.5 1773.0Q3952 1759 3930.0 1734.5Q3908 1710 3897.0 1676.5Q3886 1643 3886 1604V932Q3886 892 3897.0 858.5Q3908 825 3930.0 800.5Q3952 776 3984.5 762.5Q4017 749 4060 749Z" fill="currentColor" /></svg>