<svg viewBox="0 0 5500 1000" xmlns="http://www.w3.org/2000/svg"><path d="M250 843Q195 843 156.5 827.0Q118 811 94.0 782.0Q70 753 59.0 711.0Q48 669 48 617V211H130V608Q130 655 138.5 686.5Q147 718 162.5 737.0Q178 756 200.0 764.0Q222 772 250 772Q278 772 300.0 764.0Q322 756 337.5 737.0Q353 718 361.5 686.5Q370 655 370 608V211H452V617Q452 669 441.0 711.0Q430 753 406.0 782.0Q382 811 343.5 827.0Q305 843 250 843ZM654 383Q669 374 697.5 364.5Q726 355 761 355Q808 355 845.0 373.0Q882 391 907.5 423.0Q933 455 946.5 499.5Q960 544 960 598Q960 654 944.0 699.0Q928 744 899.0 775.5Q870 807 829.0 824.0Q788 841 738 841Q683 841 640.0 833.0Q597 825 571 817V151L654 137ZM654 758Q673 763 692.0 765.5Q711 768 728 768Q797 768 836.0 725.5Q875 683 875 598Q875 562 868.0 530.5Q861 499 846.0 476.5Q831 454 807.5 441.0Q784 428 751 428Q722 428 695.0 439.5Q668 451 654 464ZM1429 817Q1402 824 1357.5 832.0Q1313 840 1253 840Q1200 840 1165.0 824.5Q1130 809 1108.0 780.5Q1086 752 1077.0 713.0Q1068 674 1068 627V366H1150V609Q1150 695 1175.5 731.0Q1201 767 1261 767Q1274 767 1287.5 766.0Q1301 765 1313.0 763.5Q1325 762 1334.0 760.5Q1343 759 1346 758V366H1429ZM1571 379Q1616 368 1660.5 362.0Q1705 356 1744 356Q1837 356 1884.5 404.0Q1932 452 1932 558V830H1850V573Q1850 528 1842.0 500.0Q1834 472 1819.5 456.5Q1805 441 1784.5 435.0Q1764 429 1740 429Q1720 429 1697.5 431.5Q1675 434 1654 438V830H1571ZM2243 366H2439V435H2243V651Q2243 686 2248.0 708.0Q2253 730 2264.5 743.5Q2276 757 2294.0 762.0Q2312 767 2338 767Q2374 767 2396.0 761.0Q2418 755 2438 745L2450 815Q2436 821 2405.5 831.0Q2375 841 2330 841Q2278 841 2245.0 829.0Q2212 817 2193.5 793.0Q2175 769 2168.0 733.5Q2161 698 2161 651V435H2063V366H2161V236L2243 222ZM2929 817Q2902 824 2857.5 832.0Q2813 840 2753 840Q2700 840 2665.0 824.5Q2630 809 2608.0 780.5Q2586 752 2577.0 713.0Q2568 674 2568 627V366H2650V609Q2650 695 2675.5 731.0Q2701 767 2761 767Q2774 767 2787.5 766.0Q2801 765 2813.0 763.5Q2825 762 2834.0 760.5Q2843 759 2846 758V366H2929ZM3751 519 3847 211H3924Q3944 357 3952.5 510.0Q3961 663 3968 830H3888Q3887 776 3886.0 713.0Q3885 650 3883.5 583.0Q3882 516 3880.5 447.0Q3879 378 3877 313L3787 595H3715L3623 313Q3622 378 3620.5 446.5Q3619 515 3617.5 582.5Q3616 650 3614.5 713.0Q3613 776 3612 830H3532Q3535 754 3539.0 674.0Q3543 594 3548.5 515.0Q3554 436 3561.5 359.0Q3569 282 3578 211H3654ZM4460 598Q4460 653 4444.5 697.5Q4429 742 4401.0 774.0Q4373 806 4334.0 823.5Q4295 841 4249 841Q4204 841 4165.5 823.5Q4127 806 4099.0 774.0Q4071 742 4055.5 697.5Q4040 653 4040 598Q4040 543 4055.5 498.0Q4071 453 4099.0 421.5Q4127 390 4165.5 372.5Q4204 355 4249 355Q4295 355 4334.0 372.5Q4373 390 4401.0 421.5Q4429 453 4444.5 498.0Q4460 543 4460 598ZM4375 598Q4375 519 4341.0 473.5Q4307 428 4249 428Q4192 428 4158.5 473.5Q4125 519 4125 598Q4125 676 4158.5 721.5Q4192 767 4249 767Q4307 767 4341.0 721.5Q4375 676 4375 598ZM4571 379Q4616 368 4660.5 362.0Q4705 356 4744 356Q4837 356 4884.5 404.0Q4932 452 4932 558V830H4850V573Q4850 528 4842.0 500.0Q4834 472 4819.5 456.5Q4805 441 4784.5 435.0Q4764 429 4740 429Q4720 429 4697.5 431.5Q4675 434 4654 438V830H4571ZM5460 598Q5460 653 5444.5 697.5Q5429 742 5401.0 774.0Q5373 806 5334.0 823.5Q5295 841 5249 841Q5204 841 5165.5 823.5Q5127 806 5099.0 774.0Q5071 742 5055.5 697.5Q5040 653 5040 598Q5040 543 5055.5 498.0Q5071 453 5099.0 421.5Q5127 390 5165.5 372.5Q5204 355 5249 355Q5295 355 5334.0 372.5Q5373 390 5401.0 421.5Q5429 453 5444.5 498.0Q5460 543 5460 598ZM5375 598Q5375 519 5341.0 473.5Q5307 428 5249 428Q5192 428 5158.5 473.5Q5125 519 5125 598Q5125 676 5158.5 721.5Q5192 767 5249 767Q5307 767 5341.0 721.5Q5375 676 5375 598Z" fill="currentColor" /></svg>