<svg viewBox="0 0 8854 791" xmlns="http://www.w3.org/2000/svg"><path d="M224 791Q145 791 95.5 760.5Q46 730 23.0 673.5Q0 617 0 541V83H78V530Q78 604 96.5 646.0Q115 688 148.0 705.5Q181 723 223 723Q266 723 298.5 706.0Q331 689 349.5 647.0Q368 605 368 531V83H446V541Q446 617 423.5 673.5Q401 730 352.5 760.5Q304 791 224 791ZM768 788Q726 788 691.5 783.5Q657 779 630.5 772.5Q604 766 586 761V14L665 0V279Q679 270 712.0 258.0Q745 246 788 246Q858 246 909.0 280.5Q960 315 987.5 376.0Q1015 437 1015 517Q1015 601 983.5 661.5Q952 722 896.5 755.0Q841 788 768 788ZM754 718Q837 718 885.0 666.5Q933 615 933 518Q933 462 918.0 416.5Q903 371 869.5 344.0Q836 317 782 317Q748 317 714.5 331.5Q681 346 665 362V704Q688 711 710.5 714.5Q733 718 754 718ZM1347 787Q1272 787 1227.0 757.0Q1182 727 1162.0 673.5Q1142 620 1142 551V258H1220V529Q1220 597 1234.0 638.5Q1248 680 1278.0 698.0Q1308 716 1356 716Q1391 716 1423.0 712.0Q1455 708 1462 705V258H1540V762Q1512 769 1463.5 778.0Q1415 787 1347 787ZM1706 776V272Q1759 258 1808.0 252.5Q1857 247 1894 247Q1959 247 2006.0 268.5Q2053 290 2078.5 338.5Q2104 387 2104 469V776H2026V485Q2026 413 2008.0 377.5Q1990 342 1959.5 330.0Q1929 318 1891 318Q1866 318 1838.0 321.0Q1810 324 1784 329V776ZM2556 788Q2475 788 2435.0 761.5Q2395 735 2382.0 687.0Q2369 639 2369 575V325H2263V258H2369V109L2447 95V258H2667V325H2447V576Q2447 631 2458.0 661.5Q2469 692 2494.5 704.0Q2520 716 2563 716Q2603 716 2626.5 708.5Q2650 701 2668 693L2680 759Q2672 763 2640.0 775.5Q2608 788 2556 788ZM3027 787Q2952 787 2907.0 757.0Q2862 727 2842.0 673.5Q2822 620 2822 551V258H2900V529Q2900 597 2914.0 638.5Q2928 680 2958.0 698.0Q2988 716 3036 716Q3071 716 3103.0 712.0Q3135 708 3142 705V258H3220V762Q3192 769 3143.5 778.0Q3095 787 3027 787ZM4126 791Q4078 791 4038.5 782.5Q3999 774 3971.0 762.5Q3943 751 3930 743L3955 678Q3974 689 4018.5 705.5Q4063 722 4126 722Q4173 722 4207.0 710.0Q4241 698 4260.0 673.0Q4279 648 4279 609Q4279 561 4255.0 531.5Q4231 502 4193.5 482.0Q4156 462 4115 446Q4081 432 4050.5 414.5Q4020 397 3997.0 375.0Q3974 353 3961.0 323.5Q3948 294 3948 256Q3948 167 4003.5 117.0Q4059 67 4159 67Q4215 67 4263.5 79.5Q4312 92 4333 109L4307 177Q4285 164 4244.5 150.0Q4204 136 4156 136Q4123 136 4093.5 148.0Q4064 160 4045.0 183.5Q4026 207 4026 242Q4026 284 4044.0 310.0Q4062 336 4094.5 354.0Q4127 372 4168 391Q4213 410 4248.0 429.0Q4283 448 4307.0 471.5Q4331 495 4343.5 527.5Q4356 560 4356 606Q4356 694 4295.5 742.5Q4235 791 4126 791ZM4717 788Q4677 788 4637.5 781.5Q4598 775 4565.5 757.0Q4533 739 4513.0 706.5Q4493 674 4493 623Q4493 564 4526.0 529.0Q4559 494 4610.0 478.5Q4661 463 4715 463Q4744 463 4771.5 466.5Q4799 470 4825 476V448Q4825 415 4815.5 384.0Q4806 353 4778.5 333.0Q4751 313 4697 313Q4647 313 4610.5 320.5Q4574 328 4557 335L4548 268Q4565 260 4608.0 253.0Q4651 246 4702 246Q4778 246 4822.0 271.0Q4866 296 4885.0 339.5Q4904 383 4904 440V768Q4870 774 4819.0 781.0Q4768 788 4717 788ZM4711 720Q4749 720 4778.5 717.0Q4808 714 4825 710V546Q4807 540 4779.5 535.5Q4752 531 4721 531Q4686 531 4652.0 539.0Q4618 547 4596.0 567.0Q4574 587 4574 623Q4574 678 4610.5 699.0Q4647 720 4711 720ZM5066 776V272Q5119 258 5168.0 252.5Q5217 247 5254 247Q5319 247 5366.0 268.5Q5413 290 5438.5 338.5Q5464 387 5464 469V776H5386V485Q5386 413 5368.0 377.5Q5350 342 5319.5 330.0Q5289 318 5251 318Q5226 318 5198.0 321.0Q5170 324 5144 329V776ZM5802 788Q5770 788 5739.5 785.0Q5709 782 5680.0 774.5Q5651 767 5621 754L5638 680Q5677 699 5720.5 710.0Q5764 721 5814 721Q5880 721 5913.0 703.5Q5946 686 5946 649Q5946 622 5925.5 603.5Q5905 585 5872.5 571.0Q5840 557 5803 545Q5772 534 5741.0 520.5Q5710 507 5685.0 489.5Q5660 472 5645.0 447.0Q5630 422 5630 388Q5630 347 5652.5 315.0Q5675 283 5721.0 264.5Q5767 246 5837 246Q5878 246 5923.0 252.0Q5968 258 5999 266L5985 339Q5973 331 5948.5 325.5Q5924 320 5895.0 316.5Q5866 313 5838 313Q5774 313 5740.5 330.0Q5707 347 5707 387Q5707 408 5724.0 423.5Q5741 439 5769.0 450.5Q5797 462 5830 474Q5864 487 5898.5 501.5Q5933 516 5962.0 535.0Q5991 554 6008.5 580.5Q6026 607 6026 643Q6026 691 6001.5 723.5Q5977 756 5927.5 772.0Q5878 788 5802 788ZM6702 776Q6705 690 6710.0 602.0Q6715 514 6721.5 426.0Q6728 338 6736.5 251.5Q6745 165 6756 83H6833Q6853 148 6871.5 206.5Q6890 265 6908.5 322.0Q6927 379 6945 439Q6963 380 6980.5 323.0Q6998 266 7016.5 207.0Q7035 148 7055 83H7133Q7149 187 7158.0 299.5Q7167 412 7172.5 531.0Q7178 650 7184 776H7106Q7103 698 7100.5 598.5Q7098 499 7095.0 392.0Q7092 285 7087 185L6982 508H6908L6798 185Q6797 284 6793.0 391.0Q6789 498 6785.5 598.0Q6782 698 6780 776ZM7501 787Q7435 787 7383.5 753.5Q7332 720 7302.0 659.5Q7272 599 7272 517Q7272 435 7301.5 374.5Q7331 314 7383.0 280.0Q7435 246 7501 246Q7569 246 7621.5 280.0Q7674 314 7704.0 374.5Q7734 435 7734 517Q7734 599 7704.0 659.5Q7674 720 7621.5 753.5Q7569 787 7501 787ZM7502 715Q7547 715 7581.0 691.5Q7615 668 7634.0 623.5Q7653 579 7653 517Q7653 455 7634.0 410.0Q7615 365 7580.5 341.0Q7546 317 7501 317Q7457 317 7423.5 341.0Q7390 365 7371.5 410.0Q7353 455 7353 517Q7353 579 7372.0 623.5Q7391 668 7425.0 691.5Q7459 715 7502 715ZM7866 776V272Q7919 258 7968.0 252.5Q8017 247 8054 247Q8119 247 8166.0 268.5Q8213 290 8238.5 338.5Q8264 387 8264 469V776H8186V485Q8186 413 8168.0 377.5Q8150 342 8119.5 330.0Q8089 318 8051 318Q8026 318 7998.0 321.0Q7970 324 7944 329V776ZM8621 787Q8555 787 8503.5 753.5Q8452 720 8422.0 659.5Q8392 599 8392 517Q8392 435 8421.5 374.5Q8451 314 8503.0 280.0Q8555 246 8621 246Q8689 246 8741.5 280.0Q8794 314 8824.0 374.5Q8854 435 8854 517Q8854 599 8824.0 659.5Q8794 720 8741.5 753.5Q8689 787 8621 787ZM8622 715Q8667 715 8701.0 691.5Q8735 668 8754.0 623.5Q8773 579 8773 517Q8773 455 8754.0 410.0Q8735 365 8700.5 341.0Q8666 317 8621 317Q8577 317 8543.5 341.0Q8510 365 8491.5 410.0Q8473 455 8473 517Q8473 579 8492.0 623.5Q8511 668 8545.0 691.5Q8579 715 8622 715Z" fill="currentColor" /></svg>