<svg viewBox="0 0 6531 2627" xmlns="http://www.w3.org/2000/svg"><path d="M930 593V964Q854 964 824.5 987.5Q795 1011 795 1065V1527Q795 1564 803.0 1598.0Q811 1632 830.5 1658.5Q850 1685 882.5 1700.5Q915 1716 965 1716Q1061 1716 1105.0 1665.5Q1149 1615 1149 1529V1069Q1149 1007 1112.0 985.5Q1075 964 1010 964V593H1669V964Q1602 964 1566.0 983.5Q1530 1003 1530 1065V1542Q1530 1634 1506.5 1733.5Q1483 1833 1414.5 1915.5Q1346 1998 1219.0 2052.5Q1092 2107 883 2107Q731 2107 621.5 2079.5Q512 2052 436.0 2007.0Q360 1962 315.0 1904.5Q270 1847 245.5 1785.5Q221 1724 213.0 1665.5Q205 1607 205 1558V1077Q205 1011 167.0 987.5Q129 964 41 964V593ZM2490 593V1587Q2490 1654 2523.0 1674.5Q2556 1695 2607 1695H2634V2066H1792V1695H1831Q1884 1695 1909.5 1661.5Q1935 1628 1935 1589V1077Q1935 1019 1898.5 991.5Q1862 964 1814 964H1792V593ZM3395 593V964H3694V1335H3395V1642Q3395 1708 3413.5 1750.0Q3432 1792 3490 1792Q3522 1792 3541.5 1779.5Q3561 1767 3572.5 1746.5Q3584 1726 3587.0 1699.5Q3590 1673 3590 1642V1493H3705V1654Q3705 1751 3684.5 1835.0Q3664 1919 3614.5 1980.0Q3565 2041 3480.0 2077.0Q3395 2113 3266 2113Q3123 2113 3038.0 2078.0Q2953 2043 2909.0 1982.0Q2865 1921 2851.5 1837.0Q2838 1753 2838 1654V1335H2681V1005Q2756 1005 2820.5 972.5Q2885 940 2931.5 882.5Q2978 825 3003.5 751.0Q3029 677 3029 593ZM4401 964 4384 1239H4401Q4436 1081 4517.5 1000.0Q4599 919 4729 919Q4806 919 4861.5 943.5Q4917 968 4951.0 1009.0Q4985 1050 5000.0 1103.5Q5015 1157 5015 1214Q5015 1261 5001.0 1307.0Q4987 1353 4956.0 1390.0Q4925 1427 4876.0 1449.5Q4827 1472 4755 1472Q4655 1472 4597.5 1421.0Q4540 1370 4540 1298Q4540 1263 4548.0 1238.5Q4556 1214 4564.5 1198.5Q4573 1183 4576.0 1176.0Q4579 1169 4569 1169Q4548 1169 4523.5 1217.0Q4499 1265 4499 1368V1597Q4499 1650 4517.5 1672.5Q4536 1695 4589 1695H4649V2066H3807V1695H3866Q3907 1695 3928.5 1668.5Q3950 1642 3950 1605V1415Q3950 1368 3922.5 1351.5Q3895 1335 3860 1335H3807V964ZM5576 1103Q5525 1103 5488.5 1110.5Q5452 1118 5426.0 1128.0Q5400 1138 5383.0 1150.5Q5366 1163 5353 1173L5363 1183Q5382 1173 5404.5 1163.0Q5427 1153 5462 1153Q5521 1153 5564.0 1191.5Q5607 1230 5607 1314Q5607 1394 5541.5 1442.5Q5476 1491 5366 1491Q5261 1491 5198.5 1430.5Q5136 1370 5136 1259Q5136 1198 5170.0 1137.5Q5204 1077 5275.5 1029.0Q5347 981 5457.5 950.0Q5568 919 5724 919Q5910 919 6028.0 954.0Q6146 989 6211.5 1044.0Q6277 1099 6301.5 1169.0Q6326 1239 6326 1310V1701Q6326 1792 6332.0 1824.5Q6338 1857 6377 1857Q6408 1857 6420.5 1827.5Q6433 1798 6433 1726V1601H6547V1728Q6547 1818 6532.0 1887.5Q6517 1957 6475.0 2006.5Q6433 2056 6361.0 2081.5Q6289 2107 6177 2107Q6076 2107 6009.5 2085.5Q5943 2064 5904.0 2032.0Q5865 2000 5848.5 1965.5Q5832 1931 5832 1904H5816Q5810 1945 5781.5 1982.0Q5753 2019 5702.5 2047.5Q5652 2076 5581.5 2093.5Q5511 2111 5421 2111Q5335 2111 5264.5 2094.5Q5194 2078 5144.5 2042.5Q5095 2007 5067.5 1950.5Q5040 1894 5040 1816Q5040 1720 5094.0 1664.5Q5148 1609 5230.0 1576.5Q5312 1544 5408.5 1523.5Q5505 1503 5587.0 1474.0Q5669 1445 5723.0 1399.0Q5777 1353 5777 1269Q5777 1194 5730.0 1148.5Q5683 1103 5576 1103ZM5777 1536Q5755 1568 5722.0 1587.5Q5689 1607 5658.5 1625.5Q5628 1644 5605.5 1669.5Q5583 1695 5583 1738Q5583 1771 5601.0 1797.5Q5619 1824 5671 1824Q5718 1824 5747.5 1787.5Q5777 1751 5777 1685Z" fill="currentColor" /></svg>