<svg viewBox="0 0 17253 2695" xmlns="http://www.w3.org/2000/svg"><path d="M1083 585H1753V622Q1699 622 1664.5 633.5Q1630 645 1610.5 664.5Q1591 684 1584.0 709.0Q1577 734 1577 762V1843Q1577 1863 1583.5 1887.0Q1590 1911 1608.5 1932.0Q1627 1953 1661.5 1967.5Q1696 1982 1753 1982V2019H1260V1869Q1224 1908 1181.0 1942.5Q1138 1977 1085.5 2003.0Q1033 2029 971.0 2044.5Q909 2060 836 2060Q746 2060 656.0 2041.0Q566 2022 483.5 1984.0Q401 1946 330.0 1889.5Q259 1833 206.5 1758.5Q154 1684 124.0 1590.5Q94 1497 94 1386Q94 1266 121.5 1164.5Q149 1063 194.5 979.5Q240 896 298.0 829.5Q356 763 417 712Q560 592 741 520L768 544Q764 547 739.0 570.0Q714 593 678.0 638.0Q642 683 601.0 751.5Q560 820 525.0 915.0Q490 1010 467.0 1133.0Q444 1256 444 1409Q444 1554 475.5 1662.5Q507 1771 563.0 1843.5Q619 1916 695.5 1952.0Q772 1988 862 1988Q943 1988 1015.0 1957.0Q1087 1926 1141.5 1870.0Q1196 1814 1228.0 1736.5Q1260 1659 1260 1566V762Q1260 742 1253.5 717.5Q1247 693 1228.5 672.0Q1210 651 1175.0 636.5Q1140 622 1083 622ZM2454 2019H1892V1982Q1934 1982 1960.5 1973.5Q1987 1965 2002.0 1950.5Q2017 1936 2022.5 1917.5Q2028 1899 2028 1878V1081Q2028 1066 2022.5 1048.5Q2017 1031 2002.0 1016.5Q1987 1002 1960.5 992.5Q1934 983 1892 983V944H2454V983Q2414 983 2387.5 991.0Q2361 999 2345.5 1012.0Q2330 1025 2324.0 1042.5Q2318 1060 2318 1079V1333Q2353 1402 2402.0 1480.5Q2451 1559 2517.0 1637.0Q2583 1715 2668.0 1787.0Q2753 1859 2859 1915V1087Q2859 1072 2854.5 1053.5Q2850 1035 2835.5 1019.5Q2821 1004 2794.5 993.5Q2768 983 2724 983V944H3285V983Q3245 983 3219.0 991.0Q3193 999 3177.5 1012.0Q3162 1025 3156.0 1042.5Q3150 1060 3150 1079V1884Q3150 1899 3155.5 1916.0Q3161 1933 3176.0 1947.5Q3191 1962 3217.0 1972.0Q3243 1982 3285 1982V2019H2859Q2786 2001 2710.5 1958.0Q2635 1915 2564.5 1860.5Q2494 1806 2430.5 1746.0Q2367 1686 2318 1634V1878Q2318 1893 2323.0 1911.0Q2328 1929 2342.5 1944.5Q2357 1960 2383.5 1971.0Q2410 1982 2454 1982ZM4479 1212 4446 1214Q4423 1167 4387.0 1130.0Q4351 1093 4307.5 1067.5Q4264 1042 4216.5 1028.5Q4169 1015 4124 1015Q4035 1015 3963.0 1060.0Q3891 1105 3840.0 1176.5Q3789 1248 3761.0 1337.0Q3733 1426 3733 1513Q3733 1605 3764.0 1689.5Q3795 1774 3852.0 1838.5Q3909 1903 3991.0 1941.5Q4073 1980 4175 1980Q4259 1980 4314.5 1956.5Q4370 1933 4403.5 1903.5Q4437 1874 4452.5 1848.0Q4468 1822 4472 1816L4458 1933Q4440 1959 4405.5 1982.0Q4371 2005 4324.5 2022.0Q4278 2039 4220.5 2048.5Q4163 2058 4098 2058Q3949 2058 3826.5 2026.5Q3704 1995 3615.5 1930.5Q3527 1866 3478.5 1768.5Q3430 1671 3430 1540Q3433 1422 3463.0 1332.0Q3493 1242 3546.0 1175.0Q3599 1108 3672.5 1063.0Q3746 1018 3835.0 990.5Q3924 963 4027.5 951.5Q4131 940 4243 940Q4317 940 4372.5 942.0Q4428 944 4474 944Q4465 979 4461.5 1018.0Q4458 1057 4458 1083Q4458 1118 4463.5 1149.0Q4469 1180 4479 1212ZM5175 2019H4613V1982Q4655 1982 4681.5 1973.5Q4708 1965 4723.0 1950.5Q4738 1936 4743.5 1917.5Q4749 1899 4749 1878V1087Q4749 1072 4744.0 1053.5Q4739 1035 4724.5 1019.5Q4710 1004 4683.5 993.5Q4657 983 4613 983V944H5175V983Q5135 983 5108.5 991.0Q5082 999 5066.5 1012.0Q5051 1025 5045.0 1042.5Q5039 1060 5039 1079V1878Q5039 1893 5044.0 1911.0Q5049 1929 5063.5 1944.5Q5078 1960 5104.5 1971.0Q5131 1982 5175 1982ZM4740 678Q4740 646 4752.5 617.5Q4765 589 4786.0 568.0Q4807 547 4835.5 534.5Q4864 522 4896 522Q4928 522 4956.5 534.5Q4985 547 5006.0 568.0Q5027 589 5039.5 617.5Q5052 646 5052 678Q5052 710 5039.5 738.5Q5027 767 5006.0 788.0Q4985 809 4956.5 821.0Q4928 833 4896 833Q4864 833 4835.5 821.0Q4807 809 4786.0 788.0Q4765 767 4752.5 738.5Q4740 710 4740 678ZM5930 901Q6005 901 6067.5 917.0Q6130 933 6178.5 956.0Q6227 979 6262.5 1005.0Q6298 1031 6319 1052Q6350 1028 6386.0 1008.5Q6422 989 6459.0 975.0Q6496 961 6532.5 953.5Q6569 946 6602 944L6614 977Q6574 993 6542 1029Q6515 1060 6492.0 1114.0Q6469 1168 6467 1255Q6466 1306 6466.0 1361.0Q6466 1416 6465.5 1469.5Q6465 1523 6464.5 1571.5Q6464 1620 6463.5 1658.0Q6463 1696 6463.0 1719.5Q6463 1743 6463 1747Q6463 1834 6485.5 1888.0Q6508 1942 6536 1973Q6569 2009 6610 2025L6598 2058Q6549 2056 6493.0 2041.0Q6437 2026 6384.0 1999.0Q6331 1972 6286.0 1934.5Q6241 1897 6213 1849Q6193 1887 6162.0 1923.0Q6131 1959 6086.0 1987.0Q6041 2015 5980.0 2032.5Q5919 2050 5840 2050Q5710 2050 5611.5 2003.5Q5513 1957 5447.0 1881.5Q5381 1806 5347.5 1711.0Q5314 1616 5314 1519Q5314 1446 5331.5 1372.0Q5349 1298 5383.5 1229.5Q5418 1161 5469.5 1101.0Q5521 1041 5589.5 996.5Q5658 952 5743.0 926.5Q5828 901 5930 901ZM5934 1945Q6004 1945 6050.0 1913.0Q6096 1881 6123.5 1835.0Q6151 1789 6164.0 1738.0Q6177 1687 6182 1648L6190 1269Q6188 1248 6182.5 1218.0Q6177 1188 6166.0 1156.0Q6155 1124 6137.5 1091.5Q6120 1059 6093.0 1034.0Q6066 1009 6028.5 993.0Q5991 977 5941 977Q5866 977 5805.0 1015.0Q5744 1053 5701.0 1118.5Q5658 1184 5634.5 1271.0Q5611 1358 5611 1456Q5611 1584 5638.5 1676.0Q5666 1768 5711.5 1828.0Q5757 1888 5815.0 1916.5Q5873 1945 5934 1945ZM6725 1982Q6764 1982 6790.0 1974.5Q6816 1967 6831.5 1954.0Q6847 1941 6853.5 1923.5Q6860 1906 6860 1886V579Q6860 564 6854.5 546.5Q6849 529 6834.0 514.5Q6819 500 6793.0 490.5Q6767 481 6725 481V442H7151V1884Q7151 1899 7156.5 1916.0Q7162 1933 7177.0 1947.5Q7192 1962 7218.5 1972.0Q7245 1982 7286 1982V2019H6725ZM9588 1966Q9497 2003 9422.0 2016.0Q9347 2029 9287 2029Q9239 2029 9204.0 2023.5Q9169 2018 9144 2010Q9115 2001 9094 1990Q9050 1965 9017.0 1925.0Q8984 1885 8957.5 1839.0Q8931 1793 8910.0 1744.0Q8889 1695 8869 1652L8844 1599Q8743 1628 8655.5 1665.5Q8568 1703 8500.0 1739.5Q8432 1776 8385.5 1806.5Q8339 1837 8320 1851Q8283 1892 8237.0 1924.0Q8191 1956 8134.0 1978.5Q8077 2001 8007.0 2013.0Q7937 2025 7853 2025L7843 1982Q7940 1966 8010.5 1920.0Q8081 1874 8132.0 1806.5Q8183 1739 8219.0 1654.5Q8255 1570 8283 1476Q8299 1422 8325.5 1362.0Q8352 1302 8389.5 1245.5Q8427 1189 8475.5 1139.5Q8524 1090 8586 1056Q8569 1024 8552.5 990.5Q8536 957 8521 923Q8500 883 8479.0 834.5Q8458 786 8429.5 744.5Q8401 703 8362.5 675.0Q8324 647 8267 647Q8227 647 8188.5 656.0Q8150 665 8115 678L8101 637Q8188 608 8277.5 587.5Q8367 567 8455 567Q8497 567 8538.0 572.5Q8579 578 8617 592Q8650 604 8681.0 631.5Q8712 659 8740.0 696.5Q8768 734 8792.5 777.0Q8817 820 8838.5 863.0Q8860 906 8877.5 944.5Q8895 983 8908 1011Q8996 1200 9083.0 1389.5Q9170 1579 9270 1763Q9288 1796 9308.5 1828.0Q9329 1860 9354.5 1885.0Q9380 1910 9411.0 1925.0Q9442 1940 9481 1939Q9495 1939 9519.5 1936.0Q9544 1933 9573 1921ZM8642 1171Q8616 1213 8594.5 1258.0Q8573 1303 8555.0 1349.5Q8537 1396 8522.0 1442.0Q8507 1488 8492 1530Q8477 1576 8459.5 1619.5Q8442 1663 8420 1704Q8495 1660 8596.0 1612.0Q8697 1564 8812 1530ZM10096 2019H9534V1982Q9576 1982 9602.5 1973.5Q9629 1965 9644.0 1950.5Q9659 1936 9664.5 1917.5Q9670 1899 9670 1878V1081Q9670 1066 9664.5 1048.5Q9659 1031 9644.0 1016.5Q9629 1002 9602.5 992.5Q9576 983 9534 983V944H10096V983Q10056 983 10029.5 991.0Q10003 999 9987.5 1012.0Q9972 1025 9966.0 1042.5Q9960 1060 9960 1079V1333Q9995 1402 10044.0 1480.5Q10093 1559 10159.0 1637.0Q10225 1715 10310.0 1787.0Q10395 1859 10501 1915V1087Q10501 1072 10496.5 1053.5Q10492 1035 10477.5 1019.5Q10463 1004 10436.5 993.5Q10410 983 10366 983V944H10927V983Q10887 983 10861.0 991.0Q10835 999 10819.5 1012.0Q10804 1025 10798.0 1042.5Q10792 1060 10792 1079V1884Q10792 1899 10797.5 1916.0Q10803 1933 10818.0 1947.5Q10833 1962 10859.0 1972.0Q10885 1982 10927 1982V2019H10501Q10428 2001 10352.5 1958.0Q10277 1915 10206.5 1860.5Q10136 1806 10072.5 1746.0Q10009 1686 9960 1634V1878Q9960 1893 9965.0 1911.0Q9970 1929 9984.5 1944.5Q9999 1960 10025.5 1971.0Q10052 1982 10096 1982ZM11037 1007Q11065 952 11072.5 897.5Q11080 843 11080 802Q11080 791 11079.5 782.5Q11079 774 11079 768Q11078 761 11078 755L11115 749Q11118 794 11139.5 826.0Q11161 858 11192.5 879.5Q11224 901 11262.0 914.0Q11300 927 11337.0 933.5Q11374 940 11405.5 942.0Q11437 944 11457 944H12239Q12212 1000 12204.0 1054.0Q12196 1108 12196 1149Q12196 1160 12196.0 1168.5Q12196 1177 12197 1183Q12197 1190 12198 1196L12162 1202Q12158 1157 12136.5 1125.0Q12115 1093 12083.5 1071.5Q12052 1050 12014.0 1037.0Q11976 1024 11939.5 1017.5Q11903 1011 11871.0 1009.0Q11839 1007 11820 1007H11801Q11706 1012 11631.5 1053.5Q11557 1095 11505.5 1162.5Q11454 1230 11426.5 1317.0Q11399 1404 11398 1499Q11398 1594 11414.0 1681.5Q11430 1769 11465.0 1836.0Q11500 1903 11557.0 1942.5Q11614 1982 11695 1982Q11754 1982 11797.0 1963.0Q11840 1944 11871.0 1910.5Q11902 1877 11924.0 1832.0Q11946 1787 11963 1734L12198 1814Q12162 1865 12115.5 1908.0Q12069 1951 12008.5 1982.5Q11948 2014 11872.0 2032.0Q11796 2050 11701 2050Q11600 2050 11516.5 2028.0Q11433 2006 11366.5 1967.0Q11300 1928 11250.5 1875.5Q11201 1823 11168.0 1762.0Q11135 1701 11119.0 1635.0Q11103 1569 11103 1503Q11103 1419 11128.0 1343.5Q11153 1268 11200.5 1204.5Q11248 1141 11318.0 1091.0Q11388 1041 11478 1007ZM12899 2019H12337V1982Q12379 1982 12405.5 1973.5Q12432 1965 12447.0 1950.5Q12462 1936 12467.5 1917.5Q12473 1899 12473 1878V1087Q12473 1072 12468.0 1053.5Q12463 1035 12448.5 1019.5Q12434 1004 12407.5 993.5Q12381 983 12337 983V944H12899V983Q12859 983 12832.5 991.0Q12806 999 12790.5 1012.0Q12775 1025 12769.0 1042.5Q12763 1060 12763 1079V1878Q12763 1893 12768.0 1911.0Q12773 1929 12787.5 1944.5Q12802 1960 12828.5 1971.0Q12855 1982 12899 1982ZM12464 678Q12464 646 12476.5 617.5Q12489 589 12510.0 568.0Q12531 547 12559.5 534.5Q12588 522 12620 522Q12652 522 12680.5 534.5Q12709 547 12730.0 568.0Q12751 589 12763.5 617.5Q12776 646 12776 678Q12776 710 12763.5 738.5Q12751 767 12730.0 788.0Q12709 809 12680.5 821.0Q12652 833 12620 833Q12588 833 12559.5 821.0Q12531 809 12510.0 788.0Q12489 767 12476.5 738.5Q12464 710 12464 678ZM13046 1536Q13046 1421 13080.0 1332.5Q13114 1244 13172.0 1178.5Q13230 1113 13307.0 1068.0Q13384 1023 13469.0 995.5Q13554 968 13643.0 956.0Q13732 944 13814 944H14281V983Q14237 983 14210.5 993.5Q14184 1004 14169.5 1019.5Q14155 1035 14150.5 1053.5Q14146 1072 14146 1087V2283Q14146 2298 14150.5 2316.0Q14155 2334 14169.5 2350.0Q14184 2366 14210.5 2377.0Q14237 2388 14281 2388V2425H13720V2388Q13791 2388 13822.0 2365.0Q13853 2342 13853 2308V1958Q13802 2003 13739.0 2031.5Q13676 2060 13599 2060Q13491 2060 13391.0 2034.0Q13291 2008 13214.5 1947.0Q13138 1886 13092.0 1785.5Q13046 1685 13046 1536ZM13626 1999Q13656 1999 13695.0 1984.5Q13734 1970 13769.5 1944.5Q13805 1919 13829.0 1883.0Q13853 1847 13853 1804V1007H13851Q13813 1007 13761.5 1016.0Q13710 1025 13654.0 1047.5Q13598 1070 13543.0 1109.5Q13488 1149 13444.5 1209.5Q13401 1270 13374.0 1354.5Q13347 1439 13347 1552Q13347 1627 13364.5 1706.5Q13382 1786 13416.5 1851.0Q13451 1916 13503.5 1957.5Q13556 1999 13626 1999ZM14922 981Q14880 981 14854.0 989.5Q14828 998 14813.0 1012.5Q14798 1027 14792.5 1045.5Q14787 1064 14787 1085V1677Q14787 1755 14811.0 1809.0Q14835 1863 14873.0 1894.5Q14911 1926 14957.5 1936.0Q15004 1946 15049 1935Q15113 1920 15162.0 1881.5Q15211 1843 15244.5 1788.0Q15278 1733 15295.5 1665.5Q15313 1598 15313 1525V1085Q15313 1070 15308.5 1052.0Q15304 1034 15289.5 1018.5Q15275 1003 15248.5 992.0Q15222 981 15178 981V944H15751V981Q15710 981 15683.5 989.5Q15657 998 15642.0 1012.5Q15627 1027 15621.5 1045.5Q15616 1064 15616 1085V1878Q15616 1893 15621.0 1911.0Q15626 1929 15640.0 1944.5Q15654 1960 15680.5 1971.0Q15707 1982 15751 1982V2019H15313V1816Q15292 1855 15263.0 1892.0Q15234 1929 15194.0 1960.0Q15154 1991 15102.5 2014.5Q15051 2038 14987 2050Q14902 2065 14833.0 2055.0Q14764 2045 14709.5 2017.0Q14655 1989 14615.0 1945.5Q14575 1902 14548.5 1849.0Q14522 1796 14509.0 1736.0Q14496 1676 14496 1616V1079Q14496 1064 14490.5 1047.0Q14485 1030 14470.0 1015.5Q14455 1001 14428.5 991.0Q14402 981 14361 981V944H14922ZM16507 901Q16582 901 16644.5 917.0Q16707 933 16755.5 956.0Q16804 979 16839.5 1005.0Q16875 1031 16896 1052Q16927 1028 16963.0 1008.5Q16999 989 17036.0 975.0Q17073 961 17109.5 953.5Q17146 946 17179 944L17191 977Q17151 993 17119 1029Q17092 1060 17069.0 1114.0Q17046 1168 17044 1255Q17043 1306 17043.0 1361.0Q17043 1416 17042.5 1469.5Q17042 1523 17041.5 1571.5Q17041 1620 17040.5 1658.0Q17040 1696 17040.0 1719.5Q17040 1743 17040 1747Q17040 1834 17062.5 1888.0Q17085 1942 17113 1973Q17146 2009 17187 2025L17175 2058Q17126 2056 17070.0 2041.0Q17014 2026 16961.0 1999.0Q16908 1972 16863.0 1934.5Q16818 1897 16790 1849Q16770 1887 16739.0 1923.0Q16708 1959 16663.0 1987.0Q16618 2015 16557.0 2032.5Q16496 2050 16417 2050Q16287 2050 16188.5 2003.5Q16090 1957 16024.0 1881.5Q15958 1806 15924.5 1711.0Q15891 1616 15891 1519Q15891 1446 15908.5 1372.0Q15926 1298 15960.5 1229.5Q15995 1161 16046.5 1101.0Q16098 1041 16166.5 996.5Q16235 952 16320.0 926.5Q16405 901 16507 901ZM16511 1945Q16581 1945 16627.0 1913.0Q16673 1881 16700.5 1835.0Q16728 1789 16741.0 1738.0Q16754 1687 16759 1648L16767 1269Q16765 1248 16759.5 1218.0Q16754 1188 16743.0 1156.0Q16732 1124 16714.5 1091.5Q16697 1059 16670.0 1034.0Q16643 1009 16605.5 993.0Q16568 977 16518 977Q16443 977 16382.0 1015.0Q16321 1053 16278.0 1118.5Q16235 1184 16211.5 1271.0Q16188 1358 16188 1456Q16188 1584 16215.5 1676.0Q16243 1768 16288.5 1828.0Q16334 1888 16392.0 1916.5Q16450 1945 16511 1945Z" fill="currentColor" /></svg>