<svg viewBox="0 0 3539 1068" xmlns="http://www.w3.org/2000/svg"><path d="M274 816H424V238H638V276H594V639Q594 732 573.0 783.5Q552 835 515.5 857.0Q479 879 432.5 883.5Q386 888 334 888Q290 888 248.5 885.5Q207 883 172.0 872.0Q137 861 110.5 834.5Q84 808 69.0 761.0Q54 714 54 639V276H10V238H274ZM1300 873H1070V399H923V873H693V835H733V361H693V323H826L861 399H874Q889 359 914.0 339.5Q939 320 976.0 314.0Q1013 308 1063 308Q1124 308 1168.0 321.0Q1212 334 1236.0 366.5Q1260 399 1260 458V835H1300ZM1385 144H1615V835H1655V873H1385V835H1425V182H1385ZM2282 559V637Q2282 712 2267.5 759.5Q2253 807 2226.5 833.5Q2200 860 2165.5 871.5Q2131 883 2090.0 885.5Q2049 888 2005 888Q1956 888 1911.0 883.5Q1866 879 1830.5 856.5Q1795 834 1775.0 782.5Q1755 731 1755 637V559Q1755 484 1769.5 436.5Q1784 389 1810.5 362.5Q1837 336 1871.5 324.5Q1906 313 1947.0 310.5Q1988 308 2032 308Q2082 308 2126.5 312.5Q2171 317 2206.5 339.5Q2242 362 2262.0 413.5Q2282 465 2282 559ZM2092 813V383H1945V813ZM2662 888Q2621 888 2582.5 885.5Q2544 883 2511.5 871.5Q2479 860 2454.0 833.5Q2429 807 2415.5 759.5Q2402 712 2402 637V559Q2402 484 2415.5 436.5Q2429 389 2454.0 362.5Q2479 336 2511.5 324.5Q2544 313 2582.5 310.5Q2621 308 2662 308Q2714 308 2763.5 316.0Q2813 324 2862 338L2838 494H2723L2696 373H2592V823H2696L2723 702H2838L2862 858Q2811 877 2762.5 882.5Q2714 888 2662 888ZM3167 873H2937V835H2977V182H2937V144H3194V293L3175 300Q3157 307 3153.0 312.5Q3149 318 3149 330V514H3167Q3189 438 3214.0 394.5Q3239 351 3271.0 332.5Q3303 314 3346 314Q3367 314 3398.5 315.5Q3430 317 3451 322L3431 479H3309V532Q3309 551 3318.0 554.5Q3327 558 3339 558H3424L3490 835H3529V873H3288L3240 605H3167Z" fill="currentColor" /></svg>