<svg viewBox="0 0 4638 1480" xmlns="http://www.w3.org/2000/svg"><path d="M281 1090 35 390H107L312 989H314L522 390H594L346 1090ZM857 1105Q777 1105 722.5 1068.5Q668 1032 640.5 965.5Q613 899 613 810Q613 725 643.0 662.0Q673 599 727.0 564.0Q781 529 852 529Q922 529 972.5 559.0Q1023 589 1050.0 649.0Q1077 709 1077 798V828H662V768H1024L1007 772Q1008 767 1008.0 761.5Q1008 756 1008 752Q1008 678 969.5 633.5Q931 589 852 589Q774 589 728.0 638.5Q682 688 682 805Q682 928 722.0 986.5Q762 1045 856 1045Q910 1045 954.0 1017.0Q998 989 1013 924L1072 938Q1054 1008 1019.0 1044.0Q984 1080 941.5 1092.5Q899 1105 857 1105ZM1569 1090V769Q1569 589 1426 589Q1348 589 1303.5 641.5Q1259 694 1259 798L1249 689Q1253 612 1305.5 570.5Q1358 529 1437 529Q1543 529 1590.0 590.0Q1637 651 1637 758V1090ZM1191 1090V543H1259V1090ZM1975 1105Q1913 1105 1860.0 1073.5Q1807 1042 1775.0 978.0Q1743 914 1743 817Q1743 719 1775.0 655.5Q1807 592 1860.0 560.5Q1913 529 1975 529Q2023 529 2065.5 550.5Q2108 572 2136.5 611.0Q2165 650 2171 705L2220 817L2171 929Q2165 983 2136.5 1022.5Q2108 1062 2065.5 1083.5Q2023 1105 1975 1105ZM1988 1045Q2042 1045 2079.0 1014.5Q2116 984 2134.5 932.5Q2153 881 2153 817Q2153 753 2134.5 701.5Q2116 650 2079.0 619.5Q2042 589 1988 589Q1903 589 1857.0 648.5Q1811 708 1811 817Q1811 926 1857.0 985.5Q1903 1045 1988 1045ZM2153 1090V926V708V330H2221V1090ZM2794 1105Q2729 1105 2674.5 1082.5Q2620 1060 2584.0 1012.0Q2548 964 2540 887L2609 880Q2616 934 2635.0 966.5Q2654 999 2680.0 1016.0Q2706 1033 2734.5 1039.0Q2763 1045 2788 1045Q2820 1045 2852.0 1032.5Q2884 1020 2906.5 992.5Q2929 965 2932 920Q2937 850 2890.0 813.5Q2843 777 2737 752Q2672 737 2634.0 706.5Q2596 676 2580.0 637.5Q2564 599 2564 560Q2564 505 2589.0 463.5Q2614 422 2660.5 398.5Q2707 375 2772 375Q2800 375 2834.5 381.5Q2869 388 2902.0 407.0Q2935 426 2960.0 464.5Q2985 503 2993 566L2926 578Q2916 521 2893.0 490.0Q2870 459 2838.5 447.0Q2807 435 2769 435Q2734 435 2703.0 447.5Q2672 460 2653.0 485.0Q2634 510 2634 548Q2634 580 2643.0 606.0Q2652 632 2682.0 652.5Q2712 673 2773 689Q2857 711 2907.5 739.0Q2958 767 2980.5 806.5Q3003 846 3003 903Q3003 958 2983.5 996.5Q2964 1035 2932.5 1059.0Q2901 1083 2864.5 1094.0Q2828 1105 2794 1105ZM3440 1090V704Q3440 644 3405.5 616.5Q3371 589 3320 589Q3263 589 3225.0 614.5Q3187 640 3170 690L3107 661Q3135 594 3189.0 561.5Q3243 529 3321 529Q3371 529 3414.0 546.0Q3457 563 3483.5 602.5Q3510 642 3510 711V1090ZM3268 1101Q3187 1101 3143.5 1057.0Q3100 1013 3100 948Q3100 873 3151.0 829.0Q3202 785 3302 771L3453 750V810L3298 832Q3234 845 3201.5 869.5Q3169 894 3169 942Q3169 993 3200.5 1016.5Q3232 1040 3278 1040Q3354 1040 3397.0 990.5Q3440 941 3440 849L3457 933Q3453 1011 3405.5 1056.0Q3358 1101 3268 1101ZM4028 1090V769Q4028 589 3885 589Q3807 589 3762.5 641.5Q3718 694 3718 798L3708 689Q3712 612 3764.5 570.5Q3817 529 3896 529Q4002 529 4049.0 590.0Q4096 651 4096 758V1090ZM3650 1090V543H3718V1090ZM4406 1105Q4320 1105 4264.5 1068.0Q4209 1031 4192 950L4254 933Q4264 992 4307.0 1018.5Q4350 1045 4409 1045Q4465 1045 4499.0 1019.5Q4533 994 4533 955Q4533 908 4497.0 881.5Q4461 855 4378 836Q4292 816 4253.5 774.5Q4215 733 4215 676Q4215 632 4238.0 599.0Q4261 566 4301.5 547.5Q4342 529 4396 529Q4478 529 4527.0 563.5Q4576 598 4592 681L4531 699Q4518 634 4481.0 611.5Q4444 589 4396 589Q4348 589 4316.5 610.0Q4285 631 4285 668Q4285 709 4313.0 735.5Q4341 762 4415 779Q4507 800 4555.0 838.0Q4603 876 4603 941Q4603 1016 4548.0 1060.5Q4493 1105 4406 1105Z" fill="currentColor" /></svg>