<svg viewBox="0 0 4608 1578" xmlns="http://www.w3.org/2000/svg"><path d="M459 19Q479 19 498 30Q537 54 539 97Q498 420 475 607Q417 1069 417 1131Q417 1383 547 1384Q787 1383 975 1157Q1133 966 1219 667Q1037 659 927 571Q799 468 799 286Q800 161 899 74Q986 0 1093 0Q1232 0 1325 90Q1430 193 1430 364Q1430 403 1423 490Q1445 485 1467 477Q1521 459 1601 409Q1658 373 1695 373Q1710 373 1726 382Q1763 403 1763 447Q1762 509 1664 567Q1548 635 1386 657Q1386 658 1385 659Q1293 1007 1108 1245Q858 1569 515 1569Q467 1569 427 1554Q255 1488 255 1150Q255 967 300 675Q346 378 355 267Q256 330 198 365Q100 425 82 425Q59 425 38 412Q0 387 0 344Q1 300 48 269Q51 267 56 264Q402 33 459 19ZM961 311Q961 360 983 399Q1045 509 1256 509Q1272 424 1272 359Q1272 314 1259 274Q1223 169 1120 169Q1070 169 1029 193Q961 234 961 311ZM1877 791Q1877 820 1867 916Q1836 1200 1836 1269Q1836 1315 1855 1355Q1883 1415 1930 1415Q1940 1415 1951 1413Q1980 1406 2035 1366Q2089 1326 2122 1326Q2136 1326 2150 1336Q2178 1356 2178 1389Q2174 1440 2099 1497Q2007 1561 1906 1561Q1821 1561 1765 1502Q1681 1412 1681 1216Q1681 1149 1708 954Q1720 863 1725 820Q1726 811 1727 802Q1743 702 1809 702Q1820 702 1831 704Q1877 715 1877 791ZM1763 529Q1763 511 1771 495Q1791 456 1836 456Q1854 456 1870 464Q1909 484 1909 529Q1909 547 1901 563Q1881 602 1836 602Q1818 602 1802 594Q1763 574 1763 529ZM2447 36Q2457 36 2468 37Q2641 48 2641 238Q2641 442 2467 692Q2353 855 2226 959Q2234 1023 2246 1078Q2317 1418 2501 1418Q2572 1418 2636 1377Q2752 1302 2821 1117Q2772 1110 2731 1088Q2625 1030 2625 900Q2625 834 2673 785Q2727 730 2800 730Q2872 730 2924 770Q2994 825 2994 922Q2993 962 2993 963Q3010 955 3035 940Q3074 915 3100 915Q3114 915 3128 923Q3161 941 3161 980Q3161 1003 3144 1024Q3098 1081 2965 1109Q2920 1272 2823 1394Q2686 1566 2513 1566Q2265 1565 2150 1257Q2071 1043 2071 748Q2071 731 2073 705Q2087 495 2152 319Q2257 36 2447 36ZM2233 621Q2222 702 2219 777Q2282 714 2346 625Q2505 404 2505 250Q2505 242 2501 231Q2485 187 2449 187Q2368 188 2313 295Q2263 395 2233 621ZM2814 869Q2804 869 2793 873Q2761 885 2761 917Q2762 974 2857 983Q2857 976 2858 962Q2860 941 2860 932Q2860 927 2859 921Q2854 869 2814 869ZM4142 1405Q4116 1326 4116 1201Q4116 1106 4135 974Q4101 991 4060 999Q4048 1060 4029 1123Q3961 1353 3861 1473Q3844 1493 3820 1512Q3735 1578 3641 1578Q3517 1577 3464 1465Q3376 1574 3222 1575Q3187 1575 3156 1566Q2980 1514 2980 1180Q2980 1174 2980 1167Q2982 1005 3015 859Q3044 732 3113 731Q3178 732 3180 810Q3180 825 3171 878Q3136 1105 3136 1205Q3136 1413 3241 1415Q3382 1405 3432 1046Q3445 949 3451 828Q3452 818 3452 816Q3460 737 3529 736Q3536 736 3543 737Q3593 747 3593 817Q3568 1075 3568 1258Q3568 1284 3572 1311Q3588 1430 3659 1430Q3738 1430 3806 1310Q3859 1217 3924 995Q3892 986 3864 971Q3760 912 3760 784Q3760 742 3781 704Q3825 628 3921 628Q3970 628 4014 654Q4086 698 4086 777Q4086 809 4081 859Q4120 839 4186 791Q4205 778 4231 777Q4271 778 4300 803Q4316 816 4317 830Q4317 841 4310 862Q4258 1038 4258 1165Q4258 1245 4275 1318Q4275 1320 4276 1323Q4299 1406 4360 1406Q4390 1403 4460 1362Q4522 1321 4552 1321Q4567 1321 4582 1332Q4608 1351 4608 1377Q4604 1433 4529 1492Q4440 1556 4339 1556Q4316 1556 4293 1551Q4186 1527 4142 1405ZM3880 791Q3881 847 3950 871Q3960 818 3960 791Q3960 785 3958 778Q3951 751 3921 751Q3916 751 3909 753Q3880 761 3880 791Z" /></svg>