<svg viewBox="0 0 9431 1218" xmlns="http://www.w3.org/2000/svg"><path d="M15 278 292 684H304L307 664Q310 642 314.0 612.5Q318 583 321.5 551.5Q325 520 328 499V487Q329 476 334.0 446.0Q339 416 345.0 383.0Q351 350 356.0 320.0Q361 290 363 278Q365 268 374.0 267.0Q383 266 391 266Q401 266 407.0 268.0Q413 270 416.5 275.0Q420 280 423.0 287.0Q426 294 431 302Q458 342 486.5 388.5Q515 435 545.5 482.0Q576 529 608.5 574.5Q641 620 676 661Q677 663 680.0 666.0Q683 669 686.5 673.0Q690 677 693.5 680.0Q697 683 698 684L710 661Q713 647 720.5 619.0Q728 591 738.5 555.5Q749 520 760.0 480.5Q771 441 781.5 406.0Q792 371 801.0 343.0Q810 315 814 302Q818 292 829.5 268.5Q841 245 853.5 219.5Q866 194 878.0 171.0Q890 148 896 139Q898 136 906.5 132.0Q915 128 919 128Q937 128 940.5 135.5Q944 143 944 156Q944 175 928.0 199.5Q912 224 891.5 250.5Q871 277 851.5 304.5Q832 332 826 359L733 742Q731 752 724.0 753.0Q717 754 710 754Q700 754 696.5 753.0Q693 752 687 742L400 334L385 349Q383 350 380.0 363.5Q377 377 374.0 395.0Q371 413 367.5 432.5Q364 452 363 464Q361 475 359.0 498.0Q357 521 354.5 549.0Q352 577 349.5 608.5Q347 640 345.0 669.0Q343 698 341.0 720.5Q339 743 339 754Q333 763 326.5 770.5Q320 778 310 778Q303 778 300.0 775.5Q297 773 292 765L38 383Q24 362 12.0 333.5Q0 305 0 278ZM919 673Q919 644 925.5 601.0Q932 558 944.5 511.5Q957 465 976.5 418.0Q996 371 1021.0 333.5Q1046 296 1078.0 273.0Q1110 250 1148 250Q1148 264 1136.5 277.5Q1125 291 1110.5 303.5Q1096 316 1081.0 327.5Q1066 339 1060 349Q1036 380 1017.0 417.5Q998 455 984.0 494.5Q970 534 962.0 575.5Q954 617 954 656Q954 662 956.0 674.5Q958 687 961.5 700.0Q965 713 971.0 722.5Q977 732 984 732H987Q988 732 989 731Q1016 701 1034.0 666.0Q1052 631 1065.0 593.5Q1078 556 1087.0 517.0Q1096 478 1105 440Q1108 429 1107.5 407.0Q1107 385 1109.5 364.0Q1112 343 1120.0 327.5Q1128 312 1149 312Q1153 312 1158.5 312.5Q1164 313 1164 314Q1201 391 1227.0 444.5Q1253 498 1271.0 533.0Q1289 568 1300.0 588.0Q1311 608 1316.5 618.5Q1322 629 1324.0 632.5Q1326 636 1326 638Q1327 642 1328.0 652.5Q1329 663 1329.5 674.5Q1330 686 1330.5 696.5Q1331 707 1331 710Q1321 710 1309.0 709.0Q1297 708 1292 696L1164 430L1153 418Q1150 429 1141.5 457.0Q1133 485 1123.5 516.5Q1114 548 1106.0 576.0Q1098 604 1095 615Q1089 630 1079.5 657.0Q1070 684 1056.0 711.0Q1042 738 1024.0 758.0Q1006 778 984 778Q966 778 954.0 766.5Q942 755 934.0 738.0Q926 721 922.5 703.0Q919 685 919 673ZM1323 322Q1329 322 1336.5 326.0Q1344 330 1346 337L1416 684Q1428 702 1433.5 713.0Q1439 724 1439 742Q1439 751 1436.0 764.5Q1433 778 1422 778H1418Q1416 778 1416 777Q1414 776 1410 773L1395 758Q1392 755 1392 754L1323 359ZM1306 98Q1328 98 1338.5 103.5Q1349 109 1349 130Q1349 137 1348.0 147.0Q1347 157 1336 160Q1316 152 1311.0 134.0Q1306 116 1306 98ZM1671 464Q1649 464 1627.0 470.0Q1605 476 1583.5 482.5Q1562 489 1540.5 494.5Q1519 500 1496 500Q1483 500 1475.0 495.0Q1467 490 1467 475Q1467 463 1473.5 458.5Q1480 454 1489.5 453.5Q1499 453 1509.5 454.0Q1520 455 1526 453Q1534 451 1555.5 446.0Q1577 441 1601.0 436.0Q1625 431 1646.5 426.0Q1668 421 1676 418Q1676 415 1676.5 407.5Q1677 400 1677.5 391.5Q1678 383 1678 376V365Q1678 335 1674.0 306.5Q1670 278 1665.5 249.0Q1661 220 1657.0 191.0Q1653 162 1653 133Q1653 123 1655.5 113.5Q1658 104 1671 104Q1676 104 1681.5 106.5Q1687 109 1688 116L1723 405Q1724 406 1725 406H1728Q1738 406 1759.0 401.0Q1780 396 1806.0 389.0Q1832 382 1861.5 374.0Q1891 366 1918.0 359.5Q1945 353 1967.0 349.5Q1989 346 2001 349Q2005 350 2014.0 358.5Q2023 367 2025 371Q2027 381 2008.0 390.5Q1989 400 1958.5 408.5Q1928 417 1891.0 424.0Q1854 431 1820.5 436.5Q1787 442 1763.0 446.5Q1739 451 1734 453V473Q1734 486 1733.5 501.5Q1733 517 1733 531V551Q1733 602 1740.0 650.5Q1747 699 1747 748Q1747 755 1743.0 759.5Q1739 764 1733.0 767.5Q1727 771 1721.0 773.5Q1715 776 1712 777Q1704 734 1700.5 698.5Q1697 663 1695.5 628.0Q1694 593 1692.5 553.5Q1691 514 1688 464ZM1954 322Q1960 322 1967.5 326.0Q1975 330 1977 337L2047 684Q2059 702 2064.5 713.0Q2070 724 2070 742Q2070 751 2067.0 764.5Q2064 778 2053 778H2049Q2047 778 2047 777Q2045 776 2041 773L2026 758Q2023 755 2023 754L1954 359ZM1937 98Q1959 98 1969.5 103.5Q1980 109 1980 130Q1980 137 1979.0 147.0Q1978 157 1967 160Q1947 152 1942.0 134.0Q1937 116 1937 98ZM2115 405Q2115 399 2115.5 391.0Q2116 383 2117.5 375.5Q2119 368 2124.0 363.0Q2129 358 2138 358Q2140 358 2144.5 358.5Q2149 359 2151 359Q2152 430 2158.5 505.0Q2165 580 2185 650Q2186 639 2190.5 612.5Q2195 586 2200.5 556.5Q2206 527 2211.5 501.0Q2217 475 2219 464Q2226 443 2238.0 420.5Q2250 398 2267.5 379.0Q2285 360 2306.5 348.0Q2328 336 2352 336Q2392 336 2423.0 354.0Q2454 372 2478.5 401.5Q2503 431 2520.0 468.5Q2537 506 2548.0 545.0Q2559 584 2564.0 620.0Q2569 656 2569 684V696Q2569 702 2567.5 707.5Q2566 713 2562.5 716.5Q2559 720 2550 720Q2540 720 2533 708Q2532 683 2527.5 650.0Q2523 617 2515.5 580.5Q2508 544 2495.5 508.5Q2483 473 2464.5 445.0Q2446 417 2421.0 399.5Q2396 382 2361 382Q2333 382 2312.5 392.0Q2292 402 2278.0 419.5Q2264 437 2255.5 460.5Q2247 484 2243 511Q2240 525 2235.0 561.0Q2230 597 2224.0 638.0Q2218 679 2213.5 715.0Q2209 751 2208 765Q2205 775 2197.5 777.0Q2190 779 2182 779Q2181 779 2177.0 778.5Q2173 778 2173 777L2116 430Q2116 428 2115.5 419.0Q2115 410 2115 405ZM2726 1160Q2726 1151 2727.5 1141.5Q2729 1132 2733.5 1129.5Q2738 1127 2744.5 1135.0Q2751 1143 2761 1168Q2793 1168 2819.5 1154.5Q2846 1141 2867.0 1118.0Q2888 1095 2902.5 1065.0Q2917 1035 2927.0 1003.0Q2937 971 2941.5 939.5Q2946 908 2946 881Q2946 777 2926.0 668.5Q2906 560 2865 464Q2845 508 2830.0 555.0Q2815 602 2794.0 645.5Q2773 689 2742.5 723.5Q2712 758 2661 778Q2643 778 2632.5 768.5Q2622 759 2616.5 745.0Q2611 731 2610.0 715.5Q2609 700 2609 686Q2609 664 2614.5 627.5Q2620 591 2632.0 549.0Q2644 507 2660.5 465.0Q2677 423 2699.0 389.0Q2721 355 2748.0 334.0Q2775 313 2807 313Q2817 313 2827.0 318.0Q2837 323 2847 329L2867 341Q2877 346 2888 349Q2891 362 2898.0 392.0Q2905 422 2913.0 459.5Q2921 497 2929.5 539.0Q2938 581 2946.0 618.5Q2954 656 2960.5 686.5Q2967 717 2969 731Q2970 738 2972.5 754.5Q2975 771 2976.5 789.5Q2978 808 2979.5 824.0Q2981 840 2981 846Q2981 875 2977.0 914.0Q2973 953 2963.0 994.0Q2953 1035 2937.0 1075.0Q2921 1115 2897.0 1147.0Q2873 1179 2840.5 1198.5Q2808 1218 2766 1218Q2742 1218 2734.0 1200.0Q2726 1182 2726 1160ZM2643 677V694Q2643 703 2645.0 711.5Q2647 720 2652.0 726.5Q2657 733 2668 733Q2686 732 2704.5 713.0Q2723 694 2738.5 669.0Q2754 644 2766.5 618.5Q2779 593 2784 580Q2788 571 2796.5 546.0Q2805 521 2814.0 493.5Q2823 466 2831.0 440.5Q2839 415 2842 405V400Q2842 392 2835.5 386.0Q2829 380 2820.5 377.0Q2812 374 2803.0 372.0Q2794 370 2788 370Q2766 370 2746.5 391.0Q2727 412 2711.0 444.0Q2695 476 2682.5 513.5Q2670 551 2661.0 585.5Q2652 620 2647.5 645.5Q2643 671 2643 677ZM3626 464Q3610 464 3595.5 470.0Q3581 476 3567.5 482.5Q3554 489 3539.5 494.5Q3525 500 3509 500Q3480 500 3480 468V466Q3480 465 3481 464L3632 418Q3635 374 3633.5 330.5Q3632 287 3631.0 246.5Q3630 206 3632.5 170.0Q3635 134 3644.0 103.0Q3653 72 3671.5 49.0Q3690 26 3723 11Q3734 11 3747.5 14.0Q3761 17 3772.0 23.5Q3783 30 3791.0 40.5Q3799 51 3799 64Q3755 64 3729.5 79.5Q3704 95 3691.0 120.0Q3678 145 3675.0 178.5Q3672 212 3673.5 248.5Q3675 285 3678.5 322.0Q3682 359 3682 392Q3716 392 3748.5 385.0Q3781 378 3813.5 369.5Q3846 361 3879.0 354.5Q3912 348 3945 348Q3969 348 3969 371Q3969 380 3952.0 387.0Q3935 394 3908.0 399.5Q3881 405 3848.0 410.5Q3815 416 3782.5 422.5Q3750 429 3722.0 436.0Q3694 443 3678 453Q3673 491 3677.5 528.5Q3682 566 3689.5 602.5Q3697 639 3704.5 675.5Q3712 712 3713 748Q3713 757 3709.5 767.5Q3706 778 3696 778Q3688 778 3683.0 772.0Q3678 766 3674.5 758.5Q3671 751 3669.0 743.5Q3667 736 3666 731Q3659 694 3653.0 661.5Q3647 629 3642.5 597.5Q3638 566 3635.5 534.0Q3633 502 3632 464ZM3905 626Q3905 606 3905.5 572.5Q3906 539 3910.0 500.5Q3914 462 3922.0 422.0Q3930 382 3945.0 350.0Q3960 318 3983.0 298.0Q4006 278 4040 278Q4087 278 4115.5 304.0Q4144 330 4159.5 368.5Q4175 407 4180.5 450.5Q4186 494 4186 529Q4186 567 4175.0 611.0Q4164 655 4141.0 692.0Q4118 729 4083.5 753.5Q4049 778 4001 778Q3970 778 3951.0 763.5Q3932 749 3922.5 727.0Q3913 705 3909.0 678.0Q3905 651 3905 626ZM3939 614Q3939 633 3940.0 653.5Q3941 674 3946.0 692.0Q3951 710 3964.0 721.0Q3977 732 4002 732Q4046 732 4074.5 712.0Q4103 692 4120.0 660.5Q4137 629 4143.5 591.0Q4150 553 4150 518Q4150 496 4146.5 461.0Q4143 426 4132.0 393.0Q4121 360 4100.0 336.5Q4079 313 4045 313Q4021 313 4003.5 332.0Q3986 351 3974.0 381.0Q3962 411 3955.5 447.0Q3949 483 3945.0 516.0Q3941 549 3940.0 576.0Q3939 603 3939 614ZM4247 395 4306 638H4318Q4321 606 4329.5 570.0Q4338 534 4353.0 498.5Q4368 463 4388.5 430.0Q4409 397 4435.0 372.0Q4461 347 4493.5 332.0Q4526 317 4565 317Q4565 341 4545.5 359.0Q4526 377 4499.0 394.0Q4472 411 4443.5 430.0Q4415 449 4399 476Q4382 503 4371.5 538.5Q4361 574 4354.5 611.5Q4348 649 4345.0 686.5Q4342 724 4340 754Q4334 763 4327.5 770.5Q4321 778 4311 778Q4307 778 4301.0 775.5Q4295 773 4293 765L4221 395ZM5248 464Q5226 464 5204.0 470.0Q5182 476 5160.5 482.5Q5139 489 5117.5 494.5Q5096 500 5073 500Q5060 500 5052.0 495.0Q5044 490 5044 475Q5044 463 5050.5 458.5Q5057 454 5066.5 453.5Q5076 453 5086.5 454.0Q5097 455 5103 453Q5111 451 5132.5 446.0Q5154 441 5178.0 436.0Q5202 431 5223.5 426.0Q5245 421 5253 418Q5253 415 5253.5 407.5Q5254 400 5254.5 391.5Q5255 383 5255 376V365Q5255 335 5251.0 306.5Q5247 278 5242.5 249.0Q5238 220 5234.0 191.0Q5230 162 5230 133Q5230 123 5232.5 113.5Q5235 104 5248 104Q5253 104 5258.5 106.5Q5264 109 5265 116L5300 405Q5301 406 5302 406H5305Q5315 406 5336.0 401.0Q5357 396 5383.0 389.0Q5409 382 5438.5 374.0Q5468 366 5495.0 359.5Q5522 353 5544.0 349.5Q5566 346 5578 349Q5582 350 5591.0 358.5Q5600 367 5602 371Q5604 381 5585.0 390.5Q5566 400 5535.5 408.5Q5505 417 5468.0 424.0Q5431 431 5397.5 436.5Q5364 442 5340.0 446.5Q5316 451 5311 453V473Q5311 486 5310.5 501.5Q5310 517 5310 531V551Q5310 602 5317.0 650.5Q5324 699 5324 748Q5324 755 5320.0 759.5Q5316 764 5310.0 767.5Q5304 771 5298.0 773.5Q5292 776 5289 777Q5281 734 5277.5 698.5Q5274 663 5272.5 628.0Q5271 593 5269.5 553.5Q5268 514 5265 464ZM5534 7 5577 0 5623 545Q5630 511 5644.0 471.0Q5658 431 5681.5 398.0Q5705 365 5739.5 346.5Q5774 328 5820 337Q5852 342 5875.5 361.5Q5899 381 5916.0 409.0Q5933 437 5943.5 470.5Q5954 504 5960.0 538.5Q5966 573 5968.5 605.0Q5971 637 5971 661Q5971 682 5967.5 689.5Q5964 697 5949 697Q5942 697 5935.0 695.5Q5928 694 5925 684Q5927 665 5927.0 634.0Q5927 603 5923.5 570.0Q5920 537 5912.0 503.5Q5904 470 5889.5 443.0Q5875 416 5852.0 399.5Q5829 383 5797 383Q5764 383 5739.5 397.5Q5715 412 5698.5 435.0Q5682 458 5672.0 486.5Q5662 515 5658 545Q5658 553 5656.5 570.5Q5655 588 5653.0 609.5Q5651 631 5650.0 655.5Q5649 680 5648.0 701.5Q5647 723 5646.5 740.0Q5646 757 5646 765Q5643 775 5637.0 776.5Q5631 778 5623 778Q5622 778 5617.5 777.5Q5613 777 5611 777ZM6035 545Q6012 559 5988.0 566.5Q5964 574 5949 557Q5949 538 5962.0 531.5Q5975 525 5991.5 521.0Q6008 517 6024.5 511.0Q6041 505 6047 487Q6053 467 6058.0 439.0Q6063 411 6072.0 385.0Q6081 359 6098.0 341.5Q6115 324 6145 324Q6162 324 6187.5 335.5Q6213 347 6236.0 363.0Q6259 379 6275.0 397.0Q6291 415 6291 430Q6291 437 6289.5 443.0Q6288 449 6279 453L6082 521L6081 526Q6081 530 6080 537V549Q6080 556 6080 559Q6080 579 6083.0 608.5Q6086 638 6095.5 665.5Q6105 693 6122.0 713.0Q6139 733 6168 733Q6179 733 6186.5 728.5Q6194 724 6201.5 718.5Q6209 713 6216.5 708.5Q6224 704 6234 704Q6234 719 6227.5 732.5Q6221 746 6210.0 756.0Q6199 766 6185.0 772.0Q6171 778 6157 778Q6119 778 6096.0 751.5Q6073 725 6060.5 687.5Q6048 650 6043.0 610.5Q6038 571 6035 545ZM6157 368Q6139 368 6126.5 378.0Q6114 388 6106.0 403.0Q6098 418 6094.5 435.5Q6091 453 6091 467Q6107 467 6126.5 465.0Q6146 463 6165.0 457.0Q6184 451 6199.5 441.5Q6215 432 6221 418Q6206 394 6193.0 381.0Q6180 368 6157 368ZM6907 713Q6907 701 6915.0 690.5Q6923 680 6932 673Q6934 701 6950.0 716.5Q6966 732 6994 732Q7019 732 7051.0 723.0Q7083 714 7110.5 697.0Q7138 680 7156.5 655.5Q7175 631 7175 601Q7175 565 7147.0 543.0Q7119 521 7076.0 505.5Q7033 490 6983.0 476.0Q6933 462 6890.5 442.0Q6848 422 6819.5 392.0Q6791 362 6791 314Q6781 286 6797.5 257.5Q6814 229 6844.5 204.0Q6875 179 6915.0 157.0Q6955 135 6992.5 121.0Q7030 107 7060.0 100.0Q7090 93 7101.0 97.0Q7112 101 7098.5 117.0Q7085 133 7036 163Q7029 163 7022.0 162.0Q7015 161 7013 152Q6991 160 6961.0 177.0Q6931 194 6903.5 216.5Q6876 239 6857.0 265.5Q6838 292 6838 318Q6838 359 6866.5 382.5Q6895 406 6937.5 422.5Q6980 439 7030.0 452.5Q7080 466 7123.0 484.5Q7166 503 7194.0 532.5Q7222 562 7222 610Q7222 637 7209.0 659.5Q7196 682 7175.0 700.5Q7154 719 7127.0 733.0Q7100 747 7071.5 757.0Q7043 767 7015.5 772.0Q6988 777 6967 777Q6957 777 6946.5 770.5Q6936 764 6927.5 754.0Q6919 744 6913.0 733.0Q6907 722 6907 713ZM7376 777Q7357 784 7341.5 773.5Q7326 763 7314.0 741.5Q7302 720 7293.0 692.5Q7284 665 7279.0 638.0Q7274 611 7272.5 589.0Q7271 567 7273 557Q7273 547 7274.0 526.0Q7275 505 7276.0 478.5Q7277 452 7278.5 423.5Q7280 395 7281.0 368.0Q7282 341 7283.0 320.5Q7284 300 7284 290Q7286 290 7287 289L7290 288Q7300 288 7307.0 297.0Q7314 306 7319 314Q7319 328 7318.5 364.0Q7318 400 7318.0 441.0Q7318 482 7318.5 518.5Q7319 555 7319 569Q7320 581 7323.5 606.5Q7327 632 7333.0 658.5Q7339 685 7349.5 706.5Q7360 728 7376 731Q7418 731 7446.5 700.0Q7475 669 7494.0 622.0Q7513 575 7524.5 520.5Q7536 466 7544.0 418.0Q7552 370 7558.5 337.5Q7565 305 7574 302L7598 307L7654 694Q7660 697 7664.0 703.0Q7668 709 7671.5 716.0Q7675 723 7676.5 730.0Q7678 737 7678 740Q7676 747 7666.0 755.0Q7656 763 7649 764H7645Q7644 764 7643 764Q7641 761 7637.5 754.5Q7634 748 7630.0 741.0Q7626 734 7623.5 726.5Q7621 719 7620 717Q7617 707 7613.5 686.0Q7610 665 7607.0 639.5Q7604 614 7601.5 585.5Q7599 557 7596.5 530.5Q7594 504 7591.5 483.5Q7589 463 7586 453Q7581 476 7572.0 507.5Q7563 539 7549.5 574.0Q7536 609 7519.0 642.5Q7502 676 7480.5 704.5Q7459 733 7433.0 752.5Q7407 772 7376 777ZM7720 405Q7720 399 7720.5 391.0Q7721 383 7722.5 375.5Q7724 368 7729.0 363.0Q7734 358 7743 358Q7745 358 7749.5 358.5Q7754 359 7756 359Q7757 430 7763.5 505.0Q7770 580 7790 650Q7791 639 7795.5 612.5Q7800 586 7805.5 556.5Q7811 527 7816.5 501.0Q7822 475 7824 464Q7831 443 7843.0 420.5Q7855 398 7872.5 379.0Q7890 360 7911.5 348.0Q7933 336 7957 336Q7997 336 8028.0 354.0Q8059 372 8083.5 401.5Q8108 431 8125.0 468.5Q8142 506 8153.0 545.0Q8164 584 8169.0 620.0Q8174 656 8174 684V696Q8174 702 8172.5 707.5Q8171 713 8167.5 716.5Q8164 720 8155 720Q8145 720 8138 708Q8137 683 8132.5 650.0Q8128 617 8120.5 580.5Q8113 544 8100.5 508.5Q8088 473 8069.5 445.0Q8051 417 8026.0 399.5Q8001 382 7966 382Q7938 382 7917.5 392.0Q7897 402 7883.0 419.5Q7869 437 7860.5 460.5Q7852 484 7848 511Q7845 525 7840.0 561.0Q7835 597 7829.0 638.0Q7823 679 7818.5 715.0Q7814 751 7813 765Q7810 775 7802.5 777.0Q7795 779 7787 779Q7786 779 7782.0 778.5Q7778 778 7778 777L7721 430Q7721 428 7720.5 419.0Q7720 410 7720 405ZM8241 395 8300 638H8312Q8315 606 8323.5 570.0Q8332 534 8347.0 498.5Q8362 463 8382.5 430.0Q8403 397 8429.0 372.0Q8455 347 8487.5 332.0Q8520 317 8559 317Q8559 341 8539.5 359.0Q8520 377 8493.0 394.0Q8466 411 8437.5 430.0Q8409 449 8393 476Q8376 503 8365.5 538.5Q8355 574 8348.5 611.5Q8342 649 8339.0 686.5Q8336 724 8334 754Q8328 763 8321.5 770.5Q8315 778 8305 778Q8301 778 8295.0 775.5Q8289 773 8287 765L8215 395ZM8578 322Q8584 322 8591.5 326.0Q8599 330 8601 337L8671 684Q8683 702 8688.5 713.0Q8694 724 8694 742Q8694 751 8691.0 764.5Q8688 778 8677 778H8673Q8671 778 8671 777Q8669 776 8665 773L8650 758Q8647 755 8647 754L8578 359ZM8561 98Q8583 98 8593.5 103.5Q8604 109 8604 130Q8604 137 8603.0 147.0Q8602 157 8591 160Q8571 152 8566.0 134.0Q8561 116 8561 98ZM8780 743Q8780 731 8782.0 722.5Q8784 714 8788.5 710.5Q8793 707 8799.5 710.5Q8806 714 8816 727Q8834 727 8858.0 725.0Q8882 723 8908.0 718.0Q8934 713 8959.5 705.0Q8985 697 9004.5 683.5Q9024 670 9036.0 651.5Q9048 633 9048 608Q9048 583 9025.0 571.0Q9002 559 8966.5 552.5Q8931 546 8890.5 539.5Q8850 533 8815.0 519.5Q8780 506 8756.5 480.5Q8733 455 8733 409Q8733 377 8744.0 355.0Q8755 333 8781 314Q8792 305 8820.0 285.5Q8848 266 8879.5 243.5Q8911 221 8939.0 201.5Q8967 182 8978 174Q8980 174 8983.5 173.5Q8987 173 8989 173Q9014 173 9014 197Q9014 208 8996.0 220.5Q8978 233 8950.5 248.0Q8923 263 8891.5 280.0Q8860 297 8832.5 317.5Q8805 338 8787.0 361.5Q8769 385 8769 412Q8769 441 8783.5 454.0Q8798 467 8827 476Q8839 479 8868.5 487.5Q8898 496 8931.5 505.5Q8965 515 8994.5 523.0Q9024 531 9036 534Q9062 548 9078.5 564.5Q9095 581 9095 610Q9095 638 9080.5 661.0Q9066 684 9042.5 702.5Q9019 721 8988.5 735.5Q8958 750 8927.0 759.5Q8896 769 8866.5 773.5Q8837 778 8814 778Q8792 778 8786.0 771.5Q8780 765 8780 743ZM9175 545Q9152 559 9128.0 566.5Q9104 574 9089 557Q9089 538 9102.0 531.5Q9115 525 9131.5 521.0Q9148 517 9164.5 511.0Q9181 505 9187 487Q9193 467 9198.0 439.0Q9203 411 9212.0 385.0Q9221 359 9238.0 341.5Q9255 324 9285 324Q9302 324 9327.5 335.5Q9353 347 9376.0 363.0Q9399 379 9415.0 397.0Q9431 415 9431 430Q9431 437 9429.5 443.0Q9428 449 9419 453L9222 521L9221 526Q9221 530 9220 537V549Q9220 556 9220 559Q9220 579 9223.0 608.5Q9226 638 9235.5 665.5Q9245 693 9262.0 713.0Q9279 733 9308 733Q9319 733 9326.5 728.5Q9334 724 9341.5 718.5Q9349 713 9356.5 708.5Q9364 704 9374 704Q9374 719 9367.5 732.5Q9361 746 9350.0 756.0Q9339 766 9325.0 772.0Q9311 778 9297 778Q9259 778 9236.0 751.5Q9213 725 9200.5 687.5Q9188 650 9183.0 610.5Q9178 571 9175 545ZM9297 368Q9279 368 9266.5 378.0Q9254 388 9246.0 403.0Q9238 418 9234.5 435.5Q9231 453 9231 467Q9247 467 9266.5 465.0Q9286 463 9305.0 457.0Q9324 451 9339.5 441.5Q9355 432 9361 418Q9346 394 9333.0 381.0Q9320 368 9297 368Z" /></svg>