<svg viewBox="0 0 200 960" xmlns="http://www.w3.org/2000/svg"><path d="M0 947H25V12H0ZM13 935Q9 935 6.0 936.5Q3 938 1.5 941.0Q0 944 0 947Q0 951 1.5 954.0Q3 957 6.0 958.5Q9 960 13 960Q16 960 19.0 958.5Q22 957 23.5 954.0Q25 951 25 947Q25 944 23.5 941.0Q22 938 19.0 936.5Q16 935 13 935ZM13 0Q9 0 6.0 1.5Q3 3 1.5 6.0Q0 9 0 12Q0 16 1.5 19.0Q3 22 6.0 23.5Q9 25 13 25Q16 25 19.0 23.5Q22 22 23.5 19.0Q25 16 25 12Q25 9 23.5 6.0Q22 3 19.0 1.5Q16 0 13 0ZM30 950Q28 950 26.5 951.5Q25 953 25 955Q25 957 26.5 958.5Q28 960 30 960H45Q47 960 48.5 958.5Q50 957 50 955Q50 953 48.5 951.5Q47 950 45 950ZM50 947H75V552H50ZM63 935Q59 935 56.0 936.5Q53 938 51.5 941.0Q50 944 50 947Q50 951 51.5 954.0Q53 957 56.0 958.5Q59 960 63 960Q66 960 69.0 958.5Q72 957 73.5 954.0Q75 951 75 947Q75 944 73.5 941.0Q72 938 69.0 936.5Q66 935 63 935ZM63 540Q59 540 56.0 541.5Q53 543 51.5 546.0Q50 549 50 552Q50 556 51.5 559.0Q53 562 56.0 563.5Q59 565 63 565Q66 565 69.0 563.5Q72 562 73.5 559.0Q75 556 75 552Q75 549 73.5 546.0Q72 543 69.0 541.5Q66 540 63 540ZM75 947H100V892H75ZM88 935Q84 935 81.0 936.5Q78 938 76.5 941.0Q75 944 75 947Q75 951 76.5 954.0Q78 957 81.0 958.5Q84 960 88 960Q91 960 94.0 958.5Q97 957 98.5 954.0Q100 951 100 947Q100 944 98.5 941.0Q97 938 94.0 936.5Q91 935 88 935ZM88 880Q84 880 81.0 881.5Q78 883 76.5 886.0Q75 889 75 892Q75 896 76.5 899.0Q78 902 81.0 903.5Q84 905 88 905Q91 905 94.0 903.5Q97 902 98.5 899.0Q100 896 100 892Q100 889 98.5 886.0Q97 883 94.0 881.5Q91 880 88 880ZM100 947H125V872H100ZM113 935Q109 935 106.0 936.5Q103 938 101.5 941.0Q100 944 100 947Q100 951 101.5 954.0Q103 957 106.0 958.5Q109 960 113 960Q116 960 119.0 958.5Q122 957 123.5 954.0Q125 951 125 947Q125 944 123.5 941.0Q122 938 119.0 936.5Q116 935 113 935ZM113 860Q109 860 106.0 861.5Q103 863 101.5 866.0Q100 869 100 872Q100 876 101.5 879.0Q103 882 106.0 883.5Q109 885 113 885Q116 885 119.0 883.5Q122 882 123.5 879.0Q125 876 125 872Q125 869 123.5 866.0Q122 863 119.0 861.5Q116 860 113 860ZM125 947H150V692H125ZM138 935Q134 935 131.0 936.5Q128 938 126.5 941.0Q125 944 125 947Q125 951 126.5 954.0Q128 957 131.0 958.5Q134 960 138 960Q141 960 144.0 958.5Q147 957 148.5 954.0Q150 951 150 947Q150 944 148.5 941.0Q147 938 144.0 936.5Q141 935 138 935ZM138 680Q134 680 131.0 681.5Q128 683 126.5 686.0Q125 689 125 692Q125 696 126.5 699.0Q128 702 131.0 703.5Q134 705 138 705Q141 705 144.0 703.5Q147 702 148.5 699.0Q150 696 150 692Q150 689 148.5 686.0Q147 683 144.0 681.5Q141 680 138 680ZM150 947H175V712H150ZM163 935Q159 935 156.0 936.5Q153 938 151.5 941.0Q150 944 150 947Q150 951 151.5 954.0Q153 957 156.0 958.5Q159 960 163 960Q166 960 169.0 958.5Q172 957 173.5 954.0Q175 951 175 947Q175 944 173.5 941.0Q172 938 169.0 936.5Q166 935 163 935ZM163 700Q159 700 156.0 701.5Q153 703 151.5 706.0Q150 709 150 712Q150 716 151.5 719.0Q153 722 156.0 723.5Q159 725 163 725Q166 725 169.0 723.5Q172 722 173.5 719.0Q175 716 175 712Q175 709 173.5 706.0Q172 703 169.0 701.5Q166 700 163 700ZM175 947H200V592H175ZM188 935Q184 935 181.0 936.5Q178 938 176.5 941.0Q175 944 175 947Q175 951 176.5 954.0Q178 957 181.0 958.5Q184 960 188 960Q191 960 194.0 958.5Q197 957 198.5 954.0Q200 951 200 947Q200 944 198.5 941.0Q197 938 194.0 936.5Q191 935 188 935ZM188 580Q184 580 181.0 581.5Q178 583 176.5 586.0Q175 589 175 592Q175 596 176.5 599.0Q178 602 181.0 603.5Q184 605 188 605Q191 605 194.0 603.5Q197 602 198.5 599.0Q200 596 200 592Q200 589 198.5 586.0Q197 583 194.0 581.5Q191 580 188 580Z" /></svg>