<svg viewBox="0 0 9115 1765" xmlns="http://www.w3.org/2000/svg"><path d="M28 381Q0 381 0 349L10 181Q11 164 17.5 159.5Q24 155 41 154L504 134Q521 135 524.0 142.5Q527 150 528 164L538 330Q536 347 530.0 352.5Q524 358 508 358L347 356L573 1353L813 185Q816 165 837 164L988 153Q1009 155 1013 176L1276 1357L1475 353L1321 349Q1309 349 1304.5 344.0Q1300 339 1298 326L1303 164Q1305 136 1333 134L1779 147Q1801 149 1801 179L1791 336Q1790 352 1784.0 358.0Q1778 364 1761 365L1665 361L1353 1655Q1349 1674 1329 1676L1172 1684Q1151 1682 1147 1661L900 596L667 1655Q663 1674 643 1676L476 1684Q458 1683 451 1661L122 372ZM2670 1670Q2542 1702 2345 1702Q2144 1702 2053 1578Q1958 1449 1958 1169Q1958 875 2039 730Q2131 570 2333 535Q2403 523 2489 523Q2674 523 2758.0 614.0Q2842 705 2842 892Q2842 1014 2799 1080Q2785 1101 2761.0 1127.5Q2737 1154 2672.5 1174.5Q2608 1195 2525 1206Q2396 1222 2170 1222Q2183 1391 2253 1452Q2306 1500 2437 1500Q2560 1500 2682 1479L2685 1427Q2686 1415 2690.5 1411.0Q2695 1407 2707 1404L2851 1372Q2873 1372 2876 1391Q2879 1408 2882.0 1457.5Q2885 1507 2888.0 1543.0Q2891 1579 2893 1612L2897 1668Q2898 1693 2898 1710Q2898 1740 2854 1745L2688 1765Q2666 1765 2666 1743ZM2581 761Q2542 713 2454 713Q2284 713 2227 799Q2173 879 2167 1075Q2516 1070 2577 1015Q2603 992 2608.5 961.5Q2614 931 2614.0 889.5Q2614 848 2606.5 816.0Q2599 784 2581 761ZM3145 320Q3127 320 3127 298L3133 102Q3133 90 3139.0 86.5Q3145 83 3157 81L3482 89Q3493 89 3496.0 94.5Q3499 100 3500 112L3493 271L3508 1467L3644 1456Q3658 1456 3660 1475L3672 1656Q3670 1668 3665.5 1671.5Q3661 1675 3648 1676L3105 1670Q3091 1670 3091 1646V1475Q3091 1456 3107 1456L3296 1468V308ZM3828 320Q3810 320 3810 298L3816 102Q3816 90 3822.0 86.5Q3828 83 3840 81L4165 89Q4176 89 4179.0 94.5Q4182 100 4183 112L4176 271L4191 1467L4327 1456Q4341 1456 4343 1475L4355 1656Q4353 1668 4348.5 1671.5Q4344 1675 4331 1676L3788 1670Q3774 1670 3774 1646V1475Q3774 1456 3790 1456L3979 1468V308ZM5068 44 5069 17Q5069 0 5088 0H5245Q5263 0 5266 23L5250 318Q5248 338 5235 338L5087 342Q5062 341 5061 319L5064 213Q5026 209 4987.0 209.0Q4948 209 4918.0 220.0Q4888 231 4868 256Q4828 304 4828.0 399.0Q4828 494 4830 578L5125 574Q5139 575 5142.5 580.5Q5146 586 5147 598L5137 751Q5135 770 5115 772L4843 765V1470L5027 1466Q5043 1466 5043 1485L5025 1656Q5023 1668 5018.5 1671.5Q5014 1675 5001 1676L4518 1670Q4504 1670 4504 1646L4514 1495Q4516 1476 4530 1476L4630 1474L4639 767L4463 778Q4446 777 4443 761L4422 606Q4422 584 4444 584L4633 581Q4624 494 4624.0 389.5Q4624 285 4649.0 224.0Q4674 163 4720.5 122.5Q4767 82 4834.0 62.0Q4901 42 4965.5 42.0Q5030 42 5068 44ZM5365 320Q5347 320 5347 298L5353 102Q5353 90 5359.0 86.5Q5365 83 5377 81L5702 89Q5713 89 5716.0 94.5Q5719 100 5720 112L5713 271L5728 1467L5864 1456Q5878 1456 5880 1475L5892 1656Q5890 1668 5885.5 1671.5Q5881 1675 5868 1676L5325 1670Q5311 1670 5311 1646V1475Q5311 1456 5327 1456L5516 1468V308ZM6769 1670Q6641 1702 6444 1702Q6243 1702 6152 1578Q6057 1449 6057 1169Q6057 875 6138 730Q6230 570 6432 535Q6502 523 6588 523Q6773 523 6857.0 614.0Q6941 705 6941 892Q6941 1014 6898 1080Q6884 1101 6860.0 1127.5Q6836 1154 6771.5 1174.5Q6707 1195 6624 1206Q6495 1222 6269 1222Q6282 1391 6352 1452Q6405 1500 6536 1500Q6659 1500 6781 1479L6784 1427Q6785 1415 6789.5 1411.0Q6794 1407 6806 1404L6950 1372Q6972 1372 6975 1391Q6978 1408 6981.0 1457.5Q6984 1507 6987.0 1543.0Q6990 1579 6992 1612L6996 1668Q6997 1693 6997 1710Q6997 1740 6953 1745L6787 1765Q6765 1765 6765 1743ZM6680 761Q6641 713 6553 713Q6383 713 6326 799Q6272 879 6266 1075Q6615 1070 6676 1015Q6702 992 6707.5 961.5Q6713 931 6713.0 889.5Q6713 848 6705.5 816.0Q6698 784 6680 761ZM7965 1670Q7837 1702 7640 1702Q7439 1702 7348 1578Q7253 1449 7253 1169Q7253 875 7334 730Q7426 570 7628 535Q7698 523 7784 523Q7969 523 8053.0 614.0Q8137 705 8137 892Q8137 1014 8094 1080Q8080 1101 8056.0 1127.5Q8032 1154 7967.5 1174.5Q7903 1195 7820 1206Q7691 1222 7465 1222Q7478 1391 7548 1452Q7601 1500 7732 1500Q7855 1500 7977 1479L7980 1427Q7981 1415 7985.5 1411.0Q7990 1407 8002 1404L8146 1372Q8168 1372 8171 1391Q8174 1408 8177.0 1457.5Q8180 1507 8183.0 1543.0Q8186 1579 8188 1612L8192 1668Q8193 1693 8193 1710Q8193 1740 8149 1745L7983 1765Q7961 1765 7961 1743ZM7876 761Q7837 713 7749 713Q7579 713 7522 799Q7468 879 7462 1075Q7811 1070 7872 1015Q7898 992 7903.5 961.5Q7909 931 7909.0 889.5Q7909 848 7901.5 816.0Q7894 784 7876 761ZM8922 1670Q8874 1673 8780.5 1673.0Q8687 1673 8628.5 1654.0Q8570 1635 8532 1593Q8457 1510 8457 1326Q8457 1207 8460.5 1098.5Q8464 990 8466.5 905.5Q8469 821 8472 738L8339 728Q8319 727 8319 701L8318 586Q8318 564 8340 564L8480 561Q8482 509 8484 462L8492 311Q8495 258 8500.0 250.5Q8505 243 8518 241L8704 219Q8725 219 8725 241Q8725 273 8714 386L8699 555L9091 544Q9113 544 9113 568V731Q9113 751 9091 752L8686 735Q8669 969 8669.0 1143.0Q8669 1317 8676.5 1368.0Q8684 1419 8704 1447Q8738 1495 8849 1495Q8881 1495 8907 1493Q8904 1458 8904.0 1440.5Q8904 1423 8923 1420L9090 1400Q9111 1400 9111 1423L9115 1677Q9115 1694 9100 1697L8952 1721Q8929 1719 8926 1702Z" /></svg>