<svg viewBox="0 0 1996 720" xmlns="http://www.w3.org/2000/svg"><path d="M342 700Q344 706 344 707Q344 720 331 720Q318 720 318 707Q318 702 320 700L225 81L130 700Q132 703 132 707Q132 720 119 720Q106 720 106 707Q106 702 108 700L4 23Q0 19 0 13Q0 0 13 0Q26 0 26 13Q26 18 24 20L119 639L214 20Q212 18 212 13Q212 0 225 0Q238 0 238 13Q238 18 236 20L331 639L426 20Q424 18 424 13Q424 0 437 0Q450 0 450 13Q450 17 446 23ZM525 90Q528 93 528 98Q528 111 515 111Q502 111 502 98Q502 93 505 90V61Q502 56 502 52Q502 39 515 39Q528 39 528 52Q528 56 525 61ZM525 699Q528 702 528 707Q528 720 515 720Q502 720 502 707Q502 702 505 699V222Q502 217 502 213Q502 200 515 200Q528 200 528 213Q528 217 525 222ZM627 699Q630 702 630 707Q630 720 617 720Q604 720 604 707Q604 702 607 699V222Q604 217 604 213Q604 200 617 200Q630 200 630 213Q630 217 627 222V257Q641 234 660.5 222.0Q680 210 710 210H727Q732 207 736 207Q749 207 749 220Q749 233 736 233Q732 233 727 230H710Q668 230 647.5 260.0Q627 290 627 325ZM984 429H798V605Q798 628 805.5 650.0Q813 672 831.5 686.0Q850 700 881 700Q928 700 945.5 673.5Q963 647 964 614Q961 611 961 606Q961 593 974 593Q987 593 987 606Q987 611 984 614Q982 641 972.0 665.0Q962 689 940.5 704.5Q919 720 881 720Q842 720 819.5 703.0Q797 686 787.5 659.5Q778 633 778 605V315Q778 286 787.5 260.0Q797 234 819.5 217.0Q842 200 881 200Q920 200 942.5 217.0Q965 234 974.5 260.0Q984 286 984 315ZM964 409V315Q964 292 957.0 270.5Q950 249 932.0 234.5Q914 220 881 220Q850 220 831.5 234.5Q813 249 805.5 270.5Q798 292 798 315V409ZM1428 609Q1428 637 1418.0 662.5Q1408 688 1385.5 704.0Q1363 720 1324 720Q1284 720 1261.5 704.0Q1239 688 1229.5 662.5Q1220 637 1220 609V114Q1220 85 1229.5 59.0Q1239 33 1261.5 16.5Q1284 0 1324 0Q1363 0 1385.5 16.5Q1408 33 1418.0 59.0Q1428 85 1428 114ZM1240 609Q1240 644 1258.0 672.0Q1276 700 1324 700Q1372 700 1390.0 672.0Q1408 644 1408 609V114Q1408 91 1400.5 69.5Q1393 48 1374.5 34.0Q1356 20 1324 20Q1292 20 1273.5 34.0Q1255 48 1247.5 69.5Q1240 91 1240 114ZM1714 699Q1717 702 1717 707Q1717 720 1704 720Q1691 720 1691 707Q1691 702 1694 699V315Q1694 292 1687.0 270.5Q1680 249 1662.0 234.5Q1644 220 1611 220Q1583 220 1564.5 234.5Q1546 249 1537.0 270.5Q1528 292 1528 315V699Q1531 702 1531 707Q1531 720 1518 720Q1505 720 1505 707Q1505 702 1508 699V222Q1505 217 1505 213Q1505 200 1518 200Q1531 200 1531 213Q1531 217 1528 222V247Q1554 200 1611 200Q1651 200 1673.5 217.0Q1696 234 1705.0 260.0Q1714 286 1714 315ZM1993 429H1807V605Q1807 628 1814.5 650.0Q1822 672 1840.5 686.0Q1859 700 1890 700Q1937 700 1954.5 673.5Q1972 647 1973 614Q1970 611 1970 606Q1970 593 1983 593Q1996 593 1996 606Q1996 611 1993 614Q1991 641 1981.0 665.0Q1971 689 1949.5 704.5Q1928 720 1890 720Q1851 720 1828.5 703.0Q1806 686 1796.5 659.5Q1787 633 1787 605V315Q1787 286 1796.5 260.0Q1806 234 1828.5 217.0Q1851 200 1890 200Q1929 200 1951.5 217.0Q1974 234 1983.5 260.0Q1993 286 1993 315ZM1973 409V315Q1973 292 1966.0 270.5Q1959 249 1941.0 234.5Q1923 220 1890 220Q1859 220 1840.5 234.5Q1822 249 1814.5 270.5Q1807 292 1807 315V409Z" fill="currentColor" /></svg>