<svg viewBox="0 0 4500 1190" xmlns="http://www.w3.org/2000/svg"><path d="M16 970V936H87L213 607L81 264H10V230H223V264H153L254 527L355 264H300V230H458V264H387L270 568L412 936H483V970H263V936H340L229 649L119 936H179V970ZM684 980Q629 980 597.5 946.5Q566 913 566 865Q566 820 588.5 790.5Q611 761 645.0 741.0Q679 721 712 706L814 659V562Q814 513 783.0 485.0Q752 457 705 457Q662 457 634.0 478.0Q606 499 595 519Q618 543 629.5 557.0Q641 571 641 590Q641 607 629.5 622.0Q618 637 595 637Q573 637 560.5 621.5Q548 606 548 583Q548 560 559.5 532.5Q571 505 594.5 479.0Q618 453 654.0 436.5Q690 420 739 420Q792 420 823.5 441.0Q855 462 868.5 494.5Q882 527 882 562V886Q882 928 911 928Q930 928 941.0 912.5Q952 897 956 882L974 888Q971 908 960.0 929.5Q949 951 930.5 965.5Q912 980 885 980Q855 980 834.5 960.0Q814 940 814 898Q806 916 788.0 935.0Q770 954 744.0 967.0Q718 980 684 980ZM627 842Q627 881 651.0 908.5Q675 936 715 936Q741 936 761.5 924.5Q782 913 795.5 897.0Q809 881 814 866V683L719 730Q696 741 675.0 754.5Q654 768 640.5 788.0Q627 808 627 842ZM1014 970V942L1098 934V482H996V458L1098 445L1142 420H1166V501H1169Q1177 483 1194.0 464.5Q1211 446 1237.0 433.0Q1263 420 1297 420Q1346 420 1374.5 450.5Q1403 481 1403 540V936H1487V970H1335V546Q1335 466 1265 466Q1237 466 1216.5 479.0Q1196 492 1183.5 511.5Q1171 531 1166 549V934L1265 942V970ZM1514 970V936H1598V282H1496V258L1598 245L1642 220H1666V501H1669Q1677 483 1694.0 464.5Q1711 446 1737.0 433.0Q1763 420 1797 420Q1846 420 1874.5 450.5Q1903 481 1903 540V936H1987V970H1835V546Q1835 466 1765 466Q1737 466 1716.5 479.0Q1696 492 1683.5 511.5Q1671 531 1666 549V936H1725V937H1765V970ZM2501 970V936H2561V264H2501V230H2599L2744 854L2889 230H3002V264H2938V936H3002V970H2816V936H2870V444L2748 970H2717L2595 444V936H2659V970ZM3250 980Q3200 980 3163.0 956.5Q3126 933 3101.5 892.5Q3077 852 3065.0 802.0Q3053 752 3053 700Q3053 647 3065.0 597.5Q3077 548 3101.5 507.5Q3126 467 3163.0 443.5Q3200 420 3250 420Q3300 420 3337.0 443.5Q3374 467 3398.5 507.5Q3423 548 3435.0 597.5Q3447 647 3447 700Q3447 752 3435.0 802.0Q3423 852 3398.5 892.5Q3374 933 3337.0 956.5Q3300 980 3250 980ZM3250 948Q3313 948 3345.0 895.5Q3377 843 3377 750V650Q3377 557 3345.0 504.5Q3313 452 3250 452Q3187 452 3155.0 504.5Q3123 557 3123 650V750Q3123 843 3155.0 895.5Q3187 948 3250 948ZM3514 970V942L3598 934V482H3496V458L3598 445L3642 420H3666V501H3669Q3677 483 3694.0 464.5Q3711 446 3737.0 433.0Q3763 420 3797 420Q3846 420 3874.5 450.5Q3903 481 3903 540V936H3987V970H3835V546Q3835 466 3765 466Q3737 466 3716.5 479.0Q3696 492 3683.5 511.5Q3671 531 3666 549V934L3765 942V970ZM4250 980Q4200 980 4163.0 956.5Q4126 933 4101.5 892.5Q4077 852 4065.0 802.0Q4053 752 4053 700Q4053 647 4065.0 597.5Q4077 548 4101.5 507.5Q4126 467 4163.0 443.5Q4200 420 4250 420Q4300 420 4337.0 443.5Q4374 467 4398.5 507.5Q4423 548 4435.0 597.5Q4447 647 4447 700Q4447 752 4435.0 802.0Q4423 852 4398.5 892.5Q4374 933 4337.0 956.5Q4300 980 4250 980ZM4250 948Q4313 948 4345.0 895.5Q4377 843 4377 750V650Q4377 557 4345.0 504.5Q4313 452 4250 452Q4187 452 4155.0 504.5Q4123 557 4123 650V750Q4123 843 4155.0 895.5Q4187 948 4250 948Z" fill="currentColor" /></svg>