<svg viewBox="0 0 5941 1015" xmlns="http://www.w3.org/2000/svg"><path d="M759 50Q774 50 774 65V95Q774 110 759 110Q726 110 694.5 133.0Q663 156 634 206L480 467Q475 474 475 486V645Q475 685 489.5 712.5Q504 740 542 740H549Q564 740 564 755V785Q564 800 549 800H241Q226 800 226 785V755Q226 740 241 740H247Q285 740 300.0 712.5Q315 685 315 645V491Q315 482 309 473L129 206Q95 156 71.0 133.0Q47 110 15 110Q0 110 0 95V65Q0 50 15 50H362Q377 50 377 65V95Q377 110 362 110Q335 110 313.5 120.5Q292 131 292 157Q292 178 309 206L426 393L534 206Q556 166 556 143Q556 110 510 110Q495 110 495 95V65Q495 50 510 50ZM925 287Q982 287 1030.5 309.5Q1079 332 1114.0 370.5Q1149 409 1168.5 456.5Q1188 504 1188 555Q1188 629 1153.0 687.5Q1118 746 1061.0 779.5Q1004 813 937 813Q880 813 832.0 791.0Q784 769 748.5 731.5Q713 694 693.5 645.5Q674 597 674 544Q674 471 708.0 413.0Q742 355 799.0 321.0Q856 287 925 287ZM968 732Q987 732 1010.0 722.0Q1033 712 1050.5 687.0Q1068 662 1068 618Q1068 583 1054.5 540.5Q1041 498 1017.5 458.5Q994 419 962.5 393.5Q931 368 894 368Q853 368 823.0 398.5Q793 429 793 482Q793 516 806.5 559.0Q820 602 843.5 641.5Q867 681 899.0 706.5Q931 732 968 732ZM1767 598Q1767 624 1770.5 649.5Q1774 675 1786.5 692.5Q1799 710 1826 713Q1834 714 1835.5 717.5Q1837 721 1837 726V759Q1837 773 1823 773Q1774 773 1741.5 778.5Q1709 784 1685.5 792.5Q1662 801 1639 811Q1635 813 1631 813H1629Q1627 813 1627 810Q1627 807 1630.5 779.5Q1634 752 1643 684Q1629 712 1604.0 742.0Q1579 772 1543.5 792.5Q1508 813 1462 813Q1408 813 1374.5 796.5Q1341 780 1323.0 752.5Q1305 725 1298.5 690.5Q1292 656 1292 620V455Q1292 414 1273.5 387.0Q1255 360 1218 360H1214Q1199 360 1199 345V315Q1199 300 1214 300H1417Q1432 300 1432 315V626Q1432 653 1437.0 675.5Q1442 698 1457.5 711.5Q1473 725 1504 725Q1529 725 1554.0 712.5Q1579 700 1598.5 680.5Q1618 661 1626 640V455Q1626 414 1607.5 387.0Q1589 360 1553 360H1551Q1536 360 1536 345V315Q1536 300 1551 300H1752Q1767 300 1767 315ZM2438 474V645Q2438 700 2455.5 720.0Q2473 740 2502 740H2510Q2525 740 2525 755V785Q2525 800 2510 800H2244Q2229 800 2229 785V755Q2229 740 2244 740H2251Q2272 740 2285.0 720.0Q2298 700 2298 645V474Q2298 426 2283.0 400.5Q2268 375 2226 375Q2201 375 2176.0 387.5Q2151 400 2132.0 419.5Q2113 439 2104 461V645Q2104 685 2121.5 712.5Q2139 740 2168 740H2170Q2185 740 2185 755V785Q2185 800 2170 800H1889Q1874 800 1874 785V755Q1874 740 1889 740H1891Q1928 740 1946.0 712.5Q1964 685 1964 645V519Q1964 492 1960.5 467.0Q1957 442 1944.5 424.5Q1932 407 1904 404Q1893 403 1893 391V357Q1893 347 1907 344Q1979 333 2030.5 310.0Q2082 287 2102 273Q2107 269 2110 269H2111Q2113 269 2113 271Q2113 273 2112 279L2095 402Q2109 379 2132.0 352.5Q2155 326 2189.0 306.5Q2223 287 2268 287Q2322 287 2356.0 303.0Q2390 319 2407.5 346.0Q2425 373 2431.5 406.0Q2438 439 2438 474ZM3046 270Q3050 269 3054 269Q3059 269 3059 284Q3059 333 3040.5 360.0Q3022 387 2988 387Q3012 427 3012 479Q3012 532 2985.5 575.5Q2959 619 2910.0 644.5Q2861 670 2792 670Q2722 670 2671 642Q2658 652 2658 667Q2658 682 2669.0 692.5Q2680 703 2711.5 709.5Q2743 716 2804 719Q2848 721 2889.5 728.0Q2931 735 2964.0 750.5Q2997 766 3016.5 794.0Q3036 822 3036 867Q3036 908 3014.5 936.5Q2993 965 2956.5 982.0Q2920 999 2876.0 1007.0Q2832 1015 2787 1015Q2726 1015 2674.5 1002.0Q2623 989 2591.5 962.0Q2560 935 2560 893Q2560 860 2577.5 836.5Q2595 813 2620 799Q2569 767 2569 708Q2569 674 2586.5 650.0Q2604 626 2631 615Q2572 561 2572 479Q2572 426 2598.5 382.5Q2625 339 2674.5 313.0Q2724 287 2792 287Q2834 287 2868.5 297.5Q2903 308 2930 326Q2935 329 2938.5 329.5Q2942 330 2944 330Q2952 330 2957.0 324.5Q2962 319 2962 304V301Q2962 288 2973 286ZM2792 347Q2754 347 2732.5 368.0Q2711 389 2702.5 419.5Q2694 450 2694 479Q2694 508 2702.5 538.5Q2711 569 2732.5 590.0Q2754 611 2792 611Q2830 611 2849.5 590.0Q2869 569 2876.0 538.5Q2883 508 2883 479Q2883 450 2876.0 419.5Q2869 389 2849.5 368.0Q2830 347 2792 347ZM2788 946Q2862 946 2901.5 932.0Q2941 918 2941 895Q2941 863 2899.0 852.5Q2857 842 2781 838Q2727 835 2688 826Q2660 845 2660 879Q2660 894 2671.0 909.5Q2682 925 2710.0 935.5Q2738 946 2788 946ZM3931 277Q3928 278 3925.0 279.5Q3922 281 3919 281Q3911 281 3902 269Q3838 189 3776.0 154.0Q3714 119 3648 119Q3608 119 3579.5 140.0Q3551 161 3551 206Q3551 243 3574.0 267.0Q3597 291 3633.5 306.5Q3670 322 3708 333Q3765 349 3820.5 369.0Q3876 389 3921.0 416.5Q3966 444 3993.0 483.5Q4020 523 4020 579Q4020 647 3985.5 700.0Q3951 753 3886.0 783.0Q3821 813 3729 813Q3684 813 3644.5 801.5Q3605 790 3568 772Q3560 768 3553 768Q3544 768 3544 778Q3544 781 3546 789Q3549 796 3549 801Q3549 812 3532 812H3482Q3464 812 3457 798L3336 571Q3332 563 3332 559Q3332 548 3343 542L3387 517Q3390 515 3393.0 514.0Q3396 513 3399 513Q3409 513 3416 525Q3484 628 3566.5 678.0Q3649 728 3735 728Q3800 728 3835.0 698.5Q3870 669 3870 624Q3870 580 3848.0 555.0Q3826 530 3780.0 513.0Q3734 496 3662 475Q3613 461 3565.0 441.0Q3517 421 3478.0 392.5Q3439 364 3415.5 324.5Q3392 285 3392 231Q3392 165 3425.5 122.0Q3459 79 3516.0 58.5Q3573 38 3645 38Q3701 38 3740.0 52.0Q3779 66 3800 78Q3817 88 3823 88Q3828 88 3828 82Q3828 77 3825.5 68.0Q3823 59 3823 49Q3823 34 3841 34H3877Q3895 34 3902 51L3972 230Q3974 234 3975.0 237.5Q3976 241 3976 244Q3976 253 3965 259ZM4215 621Q4232 663 4269.5 696.0Q4307 729 4365 729Q4397 729 4432.0 711.0Q4467 693 4493 655Q4496 650 4501 650Q4506 650 4511.5 653.0Q4517 656 4541 670Q4545 673 4545 678Q4545 685 4539 695Q4511 747 4463.0 780.0Q4415 813 4338 813Q4255 813 4195.0 776.0Q4135 739 4102.5 678.0Q4070 617 4070 545Q4070 476 4090.5 426.5Q4111 377 4145.0 346.5Q4179 316 4221.5 301.5Q4264 287 4308 287Q4358 287 4396.0 306.5Q4434 326 4460.5 356.0Q4487 386 4500.5 419.5Q4514 453 4514 482Q4514 490 4505 494ZM4364 478Q4364 430 4341.0 399.0Q4318 368 4283 368Q4242 368 4218.0 400.5Q4194 433 4194 482Q4194 497 4195.5 519.0Q4197 541 4203 559ZM4786 405Q4813 347 4861.0 317.0Q4909 287 4962 287Q5009 287 5042.0 313.0Q5075 339 5075 390Q5075 412 5071.0 429.0Q5067 446 5049 454L4955 492Q4949 494 4946 494Q4937 494 4937 485Q4937 482 4939 476Q4945 462 4946.5 449.0Q4948 436 4948 426Q4948 399 4934.5 386.5Q4921 374 4901 374Q4878 374 4858.0 388.0Q4838 402 4823.0 422.0Q4808 442 4801 461V645Q4801 685 4819.0 712.5Q4837 740 4874 740H4876Q4891 740 4891 755V785Q4891 800 4876 800H4585Q4570 800 4570 785V755Q4570 740 4585 740H4587Q4624 740 4642.0 712.5Q4660 685 4660 645V519Q4660 492 4656.5 467.0Q4653 442 4641.0 424.5Q4629 407 4601 404Q4589 403 4589 391V357Q4589 347 4604 344Q4675 333 4728.5 309.0Q4782 285 4801 271Q4804 269 4806 269H4808Q4810 269 4810 271Q4810 272 4807.5 286.0Q4805 300 4801.5 321.5Q4798 343 4793.5 365.5Q4789 388 4786 405ZM5402 740Q5417 740 5417 755V785Q5417 800 5400 800H5117Q5100 800 5100 785V755Q5100 740 5115 740H5117Q5154 740 5171.5 712.5Q5189 685 5189 645V539Q5189 516 5185.5 493.0Q5182 470 5170.0 453.0Q5158 436 5130 433Q5118 432 5118 420V386Q5118 380 5122.0 377.5Q5126 375 5133 373Q5212 347 5254.5 319.5Q5297 292 5317 271Q5319 269 5321 269H5324Q5326 269 5326 271V644Q5326 684 5344.0 712.0Q5362 740 5399 740ZM5259 60Q5285 60 5310 85Q5335 110 5335 135Q5335 160 5310 185Q5285 210 5259 210Q5235 210 5209 185Q5184 161 5184 135Q5184 110 5209 85Q5234 60 5259 60ZM5558 292Q5558 247 5569.0 196.5Q5580 146 5605.5 101.5Q5631 57 5674.5 28.5Q5718 0 5784 0Q5864 0 5902.5 30.5Q5941 61 5941 106Q5941 132 5931 156Q5928 163 5922.5 168.0Q5917 173 5906 175Q5888 179 5863.5 184.5Q5839 190 5819.5 194.0Q5800 198 5797 198Q5791 198 5791 189Q5791 184 5794 178Q5813 140 5813 112Q5813 84 5798.5 69.5Q5784 55 5766 55Q5742 55 5724 77Q5705 99 5698.5 138.0Q5692 177 5692 234V300H5826Q5841 300 5841 315V358Q5841 373 5826 373H5692V645Q5692 685 5710.5 712.5Q5729 740 5766 740Q5781 740 5781 755V785Q5781 800 5766 800H5484Q5469 800 5469 785V755Q5469 740 5484 740Q5521 740 5539.0 712.5Q5557 685 5557 645V474Q5557 447 5554.0 420.5Q5551 394 5535.5 377.0Q5520 360 5484 360Q5469 360 5469 345V315Q5469 300 5484 300H5558Z" /></svg>