<svg viewBox="0 0 3324 735" xmlns="http://www.w3.org/2000/svg"><path d="M263 495 0 63H155L347 419ZM238 721V421H367V721ZM345 489 277 419 472 63H607ZM714 735Q683 735 653.5 730.0Q624 725 599.5 717.0Q575 709 558 699L589 607Q616 630 652.5 643.5Q689 657 720 657Q752 657 764.5 642.5Q777 628 777 612Q777 591 762.5 579.0Q748 567 724.5 558.5Q701 550 675.5 541.5Q650 533 626.5 519.0Q603 505 588.5 482.5Q574 460 574 423Q574 377 596.5 347.0Q619 317 656.5 301.5Q694 286 739 286Q772 286 806.5 293.5Q841 301 866 316L835 402Q815 380 783.0 370.0Q751 360 733 360Q702 360 690.0 372.0Q678 384 678 398Q678 417 693.0 428.5Q708 440 731.5 448.5Q755 457 781.5 466.0Q808 475 831.5 489.5Q855 504 870.0 527.0Q885 550 885 587Q885 616 874.5 642.5Q864 669 842.5 690.0Q821 711 789.0 723.0Q757 735 714 735ZM1290 729Q1245 729 1218.5 697.5Q1192 666 1193 605L1197 435Q1198 409 1193.0 393.5Q1188 378 1178.0 371.0Q1168 364 1153 364Q1138 364 1121.0 370.5Q1104 377 1091.5 393.5Q1079 410 1077 439L966 426Q972 396 990.5 371.0Q1009 346 1037.0 327.5Q1065 309 1099.5 299.0Q1134 289 1172 289Q1243 289 1273.5 324.5Q1304 360 1303 419L1301 627Q1301 638 1306.5 643.5Q1312 649 1320 649Q1328 649 1335.5 646.0Q1343 643 1349 638L1381 692Q1366 708 1342.5 718.5Q1319 729 1290 729ZM1069 729Q1018 729 987.0 700.5Q956 672 956 627Q956 601 967.5 577.5Q979 554 1009.0 535.0Q1039 516 1094 504L1257 468L1262 519L1121 560Q1090 569 1080.5 582.5Q1071 596 1071 609Q1071 625 1082.5 635.0Q1094 645 1113 645Q1138 645 1175.0 627.0Q1212 609 1258 585L1260 624Q1216 667 1169.0 698.0Q1122 729 1069 729ZM1635 731Q1577 731 1526.5 716.0Q1476 701 1456 676L1570 616Q1590 637 1616.0 647.0Q1642 657 1670 657Q1706 657 1728.0 639.0Q1750 621 1760.0 592.5Q1770 564 1770 531Q1770 480 1755.5 446.0Q1741 412 1716.0 395.5Q1691 379 1660 379Q1623 379 1592.0 397.5Q1561 416 1540 449L1503 419Q1526 385 1556.5 356.0Q1587 327 1625.5 308.5Q1664 290 1710 290Q1745 290 1777.5 303.0Q1810 316 1837.0 341.0Q1864 366 1879.5 403.5Q1895 441 1895 491Q1895 550 1867.5 605.5Q1840 661 1782.5 696.0Q1725 731 1635 731ZM1456 676V21L1570 0V616ZM2174 734Q2114 734 2067.0 709.5Q2020 685 1993.5 638.0Q1967 591 1967 525Q1967 454 1997.0 400.5Q2027 347 2078.0 317.0Q2129 287 2193 287Q2274 287 2315.0 336.0Q2356 385 2356 468Q2356 479 2355.5 493.5Q2355 508 2353 521H2255V466Q2255 419 2239.0 393.0Q2223 367 2182 367Q2149 367 2125.0 384.5Q2101 402 2088.5 433.5Q2076 465 2076 507Q2076 572 2110.0 608.5Q2144 645 2199 645Q2230 645 2259.5 633.5Q2289 622 2316 599L2353 659Q2324 688 2293.0 704.5Q2262 721 2232.0 727.5Q2202 734 2174 734ZM2023 521 2036 452H2340V521ZM2764 729Q2719 729 2692.5 697.5Q2666 666 2667 605L2671 435Q2672 409 2667.0 393.5Q2662 378 2652.0 371.0Q2642 364 2627 364Q2612 364 2595.0 370.5Q2578 377 2565.5 393.5Q2553 410 2551 439L2440 426Q2446 396 2464.5 371.0Q2483 346 2511.0 327.5Q2539 309 2573.5 299.0Q2608 289 2646 289Q2717 289 2747.5 324.5Q2778 360 2777 419L2775 627Q2775 638 2780.5 643.5Q2786 649 2794 649Q2802 649 2809.5 646.0Q2817 643 2823 638L2855 692Q2840 708 2816.5 718.5Q2793 729 2764 729ZM2543 729Q2492 729 2461.0 700.5Q2430 672 2430 627Q2430 601 2441.5 577.5Q2453 554 2483.0 535.0Q2513 516 2568 504L2731 468L2736 519L2595 560Q2564 569 2554.5 582.5Q2545 596 2545 609Q2545 625 2556.5 635.0Q2568 645 2587 645Q2612 645 2649.0 627.0Q2686 609 2732 585L2734 624Q2690 667 2643.0 698.0Q2596 729 2543 729ZM3070 728Q3005 728 2962.0 687.0Q2919 646 2919 575V310L3035 289V533Q3035 584 3056.5 613.5Q3078 643 3119 643Q3140 643 3163.0 635.0Q3186 627 3206.0 612.0Q3226 597 3238 575L3275 600Q3248 641 3215.0 669.5Q3182 698 3145.5 713.0Q3109 728 3070 728ZM3229 732 3208 646V310L3324 289V710Z" /></svg>