<svg viewBox="0 0 5499.285714285715 836.7563636363637" xmlns="http://www.w3.org/2000/svg"><path d="M626.2857142857143 56.120000000000005Q592.2857142857143 58.120000000000005 568.7857142857143 70.62Q545.2857142857143 83.12 527.2857142857143 103.12Q505.2857142857143 127.12 488.2857142857143 158.62Q471.2857142857143 190.12 454.2857142857143 221.12Q446.2857142857143 237.12 434.2857142857143 253.12Q422.2857142857143 270.12 409.2857142857143 283.12Q396.2857142857143 296.12 386.2857142857143 312.12Q376.2857142857143 329.12 363.2857142857143 345.62Q350.2857142857143 362.12 339.2857142857143 371.12Q343.2857142857143 394.12 343.2857142857143 423.62Q343.2857142857143 453.12 342.2857142857143 484.12Q342.2857142857143 518.12 342.2857142857143 550.12Q342.2857142857143 582.12 347.2857142857143 606.12Q351.2857142857143 610.12 356.2857142857143 609.12Q361.2857142857143 608.12 363.2857142857143 603.12Q372.2857142857143 613.12 385.2857142857143 618.62Q398.2857142857143 624.12 409.2857142857143 630.12Q421.2857142857143 637.12 425.7857142857143 648.62Q430.2857142857143 660.12 414.2857142857143 673.12Q390.2857142857143 670.12 365.7857142857143 670.12Q341.2857142857143 670.12 316.2857142857143 670.12Q286.2857142857143 671.12 255.78571428571428 670.62Q225.28571428571428 670.12 193.28571428571428 665.12Q192.28571428571428 639.12 206.28571428571428 628.12Q220.28571428571428 617.12 237.28571428571428 609.12Q246.28571428571428 604.12 255.28571428571428 599.62Q264.2857142857143 595.12 270.2857142857143 587.12Q270.2857142857143 579.12 270.7857142857143 563.62Q271.2857142857143 548.12 271.2857142857143 528.12Q272.2857142857143 502.12 272.7857142857143 472.62Q273.2857142857143 443.12 272.7857142857143 416.62Q272.2857142857143 390.12 270.2857142857143 375.12Q267.2857142857143 355.12 252.28571428571428 335.12Q237.28571428571428 315.12 222.28571428571428 296.12Q209.28571428571428 278.12 196.28571428571428 258.62Q183.28571428571428 239.12 170.28571428571428 220.12Q152.28571428571428 192.12 134.78571428571428 164.62Q117.28571428571428 137.12 100.28571428571428 111.12Q98.28571428571428 103.12 90.28571428571428 101.12Q82.28571428571428 99.12 77.28571428571428 95.12Q77.28571428571428 87.12 76.28571428571428 79.62Q75.28571428571428 72.12 71.28571428571428 68.12Q65.28571428571428 67.12 58.78571428571428 66.62Q52.285714285714285 66.12 45.285714285714285 66.12Q37.285714285714285 66.12 28.785714285714285 65.62Q20.285714285714285 65.12 10.285714285714285 63.120000000000005Q8.285714285714285 61.120000000000005 7.285714285714285 57.620000000000005Q6.285714285714285 54.120000000000005 1.2857142857142847 53.120000000000005Q-1.7142857142857153 39.120000000000005 2.2857142857142847 33.120000000000005Q6.285714285714285 27.120000000000005 12.285714285714285 22.120000000000005Q15.285714285714285 19.120000000000005 16.285714285714285 18.120000000000005Q36.285714285714285 21.120000000000005 60.28571428571428 20.120000000000005Q84.28571428571428 19.120000000000005 108.28571428571428 17.120000000000005Q120.28571428571428 16.120000000000005 132.28571428571428 15.120000000000005Q144.28571428571428 14.120000000000005 155.28571428571428 14.120000000000005Q186.28571428571428 13.120000000000005 208.78571428571428 21.120000000000005Q231.28571428571428 29.120000000000005 238.28571428571428 53.120000000000005Q224.28571428571428 63.120000000000005 202.78571428571428 65.62Q181.28571428571428 68.12 158.28571428571428 68.12Q178.28571428571428 105.12 204.78571428571428 143.62Q231.28571428571428 182.12 260.2857142857143 220.12Q277.2857142857143 241.12 293.2857142857143 262.62Q309.2857142857143 284.12 324.2857142857143 304.12Q339.2857142857143 283.12 353.7857142857143 262.12Q368.2857142857143 241.12 383.2857142857143 220.12Q409.2857142857143 182.12 435.2857142857143 144.62Q461.2857142857143 107.12 485.2857142857143 68.12Q477.2857142857143 67.12 464.2857142857143 68.12Q451.2857142857143 69.12 436.2857142857143 70.12Q428.2857142857143 71.12 420.2857142857143 71.62Q412.2857142857143 72.12 405.2857142857143 72.12Q390.2857142857143 64.12 393.7857142857143 44.620000000000005Q397.2857142857143 25.120000000000005 410.2857142857143 18.120000000000005Q430.2857142857143 20.120000000000005 451.7857142857143 19.120000000000005Q473.2857142857143 18.120000000000005 495.2857142857143 17.120000000000005Q508.2857142857143 16.120000000000005 521.2857142857143 15.120000000000005Q534.2857142857143 14.120000000000005 546.2857142857143 14.120000000000005Q575.2857142857143 14.120000000000005 597.2857142857143 22.620000000000005Q619.2857142857143 31.120000000000005 626.2857142857143 56.120000000000005ZM1242.2857142857142 654.12Q1237.2857142857142 669.12 1222.7857142857142 674.12Q1208.2857142857142 679.12 1190.2857142857142 680.12Q1181.2857142857142 680.12 1171.2857142857142 679.62Q1161.2857142857142 679.12 1152.2857142857142 679.12Q1144.2857142857142 678.12 1136.7857142857142 678.12Q1129.2857142857142 678.12 1123.2857142857142 678.12Q1108.2857142857142 671.12 1106.7857142857142 656.62Q1105.2857142857142 642.12 1107.2857142857142 625.12Q1107.2857142857142 618.12 1107.7857142857142 611.12Q1108.2857142857142 604.12 1108.2857142857142 597.12Q1096.2857142857142 603.12 1085.7857142857142 611.62Q1075.2857142857142 620.12 1064.2857142857142 629.12Q1042.2857142857142 647.12 1016.7857142857142 663.12Q991.2857142857143 679.12 952.2857142857143 678.12Q931.2857142857143 677.12 918.2857142857143 668.62Q905.2857142857143 660.12 883.2857142857143 658.12Q854.2857142857143 623.12 845.2857142857143 575.12Q836.2857142857143 527.12 835.2857142857143 473.12Q835.2857142857143 452.12 835.7857142857143 429.62Q836.2857142857143 407.12 837.2857142857143 385.12Q838.2857142857143 354.12 838.7857142857143 324.12Q839.2857142857143 294.12 837.2857142857143 265.12Q833.2857142857143 265.12 828.2857142857143 265.62Q823.2857142857143 266.12 818.2857142857143 267.12Q807.2857142857143 269.12 796.7857142857143 269.12Q786.2857142857143 269.12 780.2857142857143 261.12Q781.2857142857143 244.12 791.7857142857143 234.12Q802.2857142857143 224.12 818.2857142857143 220.12Q826.2857142857143 218.12 834.7857142857143 217.12Q843.2857142857143 216.12 851.2857142857143 216.12Q860.2857142857143 216.12 869.2857142857143 217.12Q878.2857142857143 218.12 886.2857142857143 220.12Q911.2857142857143 226.12 921.2857142857143 238.12Q905.2857142857143 292.12 901.7857142857143 360.12Q898.2857142857143 428.12 899.2857142857143 502.12Q900.2857142857143 527.12 903.2857142857143 552.62Q906.2857142857143 578.12 914.7857142857143 597.62Q923.2857142857143 617.12 937.2857142857143 623.12Q960.2857142857143 632.12 985.2857142857143 628.12Q1010.2857142857143 624.12 1032.2857142857142 612.12Q1054.2857142857142 600.12 1067.2857142857142 585.12Q1086.2857142857142 564.12 1095.7857142857142 534.12Q1105.2857142857142 504.12 1108.2857142857142 469.12Q1111.2857142857142 434.12 1110.2857142857142 396.12Q1109.2857142857142 358.12 1107.2857142857142 322.12Q1107.2857142857142 310.12 1106.2857142857142 298.62Q1105.2857142857142 287.12 1105.2857142857142 276.12Q1101.2857142857142 276.12 1093.2857142857142 277.12Q1081.2857142857142 278.12 1068.2857142857142 276.62Q1055.2857142857142 275.12 1048.2857142857142 261.12Q1050.2857142857142 254.12 1052.7857142857142 248.62Q1055.2857142857142 243.12 1055.2857142857142 234.12Q1072.2857142857142 232.12 1088.2857142857142 227.62Q1104.2857142857142 223.12 1118.2857142857142 220.12Q1133.2857142857142 217.12 1146.2857142857142 217.12Q1152.2857142857142 217.12 1157.7857142857142 218.12Q1163.2857142857142 219.12 1168.2857142857142 221.12Q1183.2857142857142 226.12 1195.2857142857142 238.12Q1182.2857142857142 242.12 1181.7857142857142 257.12Q1181.2857142857142 272.12 1174.2857142857142 283.12Q1176.2857142857142 325.12 1176.7857142857142 379.12Q1177.2857142857142 433.12 1177.2857142857142 489.12Q1177.2857142857142 500.12 1176.7857142857142 510.62Q1176.2857142857142 521.12 1175.2857142857142 532.12Q1173.2857142857142 559.12 1173.7857142857142 582.62Q1174.2857142857142 606.12 1188.2857142857142 623.12Q1203.2857142857142 629.12 1216.2857142857142 637.62Q1229.2857142857142 646.12 1242.2857142857142 654.12ZM1652.2857142857142 230.12Q1634.2857142857142 259.12 1631.2857142857142 313.12Q1628.2857142857142 367.12 1630.2857142857142 430.12Q1630.2857142857142 440.12 1630.7857142857142 450.12Q1631.2857142857142 460.12 1632.2857142857142 470.12Q1635.2857142857142 538.12 1635.7857142857142 606.62Q1636.2857142857142 675.12 1625.2857142857142 728.12Q1617.2857142857142 765.12 1600.7857142857142 791.62Q1584.2857142857142 818.12 1555.2857142857142 827.12Q1548.2857142857142 829.12 1527.2857142857142 831.62Q1506.2857142857142 834.12 1482.2857142857142 833.62Q1458.2857142857142 833.12 1441.2857142857142 829.12Q1426.2857142857142 824.12 1414.7857142857142 813.62Q1403.2857142857142 803.12 1386.2857142857142 795.12Q1379.2857142857142 778.12 1375.2857142857142 756.12Q1371.2857142857142 734.12 1377.2857142857142 713.12Q1397.2857142857142 689.12 1413.7857142857142 690.62Q1430.2857142857142 692.12 1443.2857142857142 706.12Q1458.2857142857142 722.12 1469.2857142857142 747.12Q1480.2857142857142 772.12 1485.2857142857142 790.12Q1516.2857142857142 791.12 1540.2857142857142 775.62Q1564.2857142857142 760.12 1568.2857142857142 729.12Q1575.2857142857142 681.12 1572.7857142857142 608.62Q1570.2857142857142 536.12 1566.2857142857142 462.12Q1563.2857142857142 409.12 1560.7857142857142 360.12Q1558.2857142857142 311.12 1560.2857142857142 274.12Q1554.2857142857142 272.12 1547.7857142857142 273.62Q1541.2857142857142 275.12 1533.2857142857142 278.12Q1525.2857142857142 281.12 1515.2857142857142 283.12Q1505.2857142857142 285.12 1492.2857142857142 283.12Q1488.2857142857142 274.12 1484.7857142857142 263.62Q1481.2857142857142 253.12 1480.2857142857142 240.12Q1502.2857142857142 227.12 1533.2857142857142 220.12Q1558.2857142857142 215.12 1584.2857142857142 214.12Q1610.2857142857142 213.12 1631.2857142857142 220.12Q1637.2857142857142 221.12 1642.7857142857142 224.12Q1648.2857142857142 227.12 1652.2857142857142 230.12ZM1638.2857142857142 116.12Q1625.2857142857142 138.12 1602.2857142857142 139.62Q1579.2857142857142 141.12 1560.2857142857142 128.62Q1541.2857142857142 116.12 1539.2857142857142 96.12Q1537.2857142857142 67.12 1555.2857142857142 53.120000000000005Q1573.2857142857142 39.120000000000005 1594.2857142857142 41.120000000000005Q1616.2857142857142 43.120000000000005 1631.7857142857142 62.120000000000005Q1647.2857142857142 81.12 1638.2857142857142 116.12ZM2101.285714285714 650.12Q2101.285714285714 660.12 2082.285714285714 665.12Q2063.285714285714 670.12 2036.7857142857142 671.62Q2010.2857142857142 673.12 1986.2857142857142 673.12Q1979.2857142857142 673.12 1972.2857142857142 673.62Q1965.2857142857142 674.12 1960.2857142857142 674.12Q1957.2857142857142 674.12 1947.2857142857142 672.12Q1938.2857142857142 669.12 1927.2857142857142 667.62Q1916.2857142857142 666.12 1906.2857142857142 671.12Q1893.2857142857142 664.12 1894.2857142857142 656.62Q1895.2857142857142 649.12 1898.2857142857142 641.12Q1900.2857142857142 638.12 1901.2857142857142 634.12Q1902.2857142857142 630.12 1902.2857142857142 627.12Q1919.2857142857142 619.12 1936.7857142857142 613.12Q1954.2857142857142 607.12 1963.2857142857142 592.12Q1963.2857142857142 533.12 1962.7857142857142 482.62Q1962.2857142857142 432.12 1962.7857142857142 380.62Q1963.2857142857142 329.12 1963.2857142857142 269.12Q1953.2857142857142 264.12 1942.7857142857142 264.12Q1932.2857142857142 264.12 1922.2857142857142 265.12Q1916.2857142857142 265.12 1911.2857142857142 265.62Q1906.2857142857142 266.12 1902.2857142857142 265.12Q1902.2857142857142 260.12 1900.2857142857142 256.12Q1898.2857142857142 252.12 1895.2857142857142 248.12Q1891.2857142857142 243.12 1890.2857142857142 238.12Q1889.2857142857142 233.12 1898.2857142857142 225.12Q1908.2857142857142 224.12 1918.7857142857142 222.62Q1929.2857142857142 221.12 1940.2857142857142 220.12Q1966.2857142857142 217.12 1991.7857142857142 215.12Q2017.2857142857142 213.12 2040.2857142857142 218.12V220.12Q2040.2857142857142 270.12 2038.7857142857142 330.12Q2037.2857142857142 390.12 2034.7857142857142 450.12Q2032.2857142857142 510.12 2029.2857142857142 561.12Q2029.2857142857142 563.12 2029.2857142857142 569.12Q2028.2857142857142 575.12 2028.2857142857142 581.62Q2028.2857142857142 588.12 2029.2857142857142 592.12Q2032.2857142857142 603.12 2043.7857142857142 609.62Q2055.285714285714 616.12 2067.285714285714 621.12Q2080.285714285714 626.12 2090.785714285714 632.62Q2101.285714285714 639.12 2101.285714285714 650.12ZM2040.2857142857142 70.12Q2051.285714285714 94.12 2043.7857142857142 113.12Q2036.2857142857142 132.12 2015.2857142857142 139.12Q1994.2857142857142 146.12 1963.2857142857142 136.12Q1945.2857142857142 112.12 1949.2857142857142 90.12Q1953.2857142857142 68.12 1967.2857142857142 55.120000000000005Q1983.2857142857142 41.120000000000005 2005.7857142857142 42.120000000000005Q2028.2857142857142 43.120000000000005 2040.2857142857142 70.12ZM2951.285714285714 544.12Q2940.285714285714 588.12 2907.785714285714 619.62Q2875.285714285714 651.12 2831.285714285714 666.12Q2787.285714285714 681.12 2735.785714285714 679.62Q2684.285714285714 678.12 2632.285714285714 658.12Q2622.285714285714 660.12 2615.285714285714 665.62Q2608.285714285714 671.12 2602.285714285714 678.12Q2593.285714285714 687.12 2584.285714285714 691.62Q2575.285714285714 696.12 2559.285714285714 683.12Q2548.285714285714 665.12 2544.285714285714 635.62Q2540.285714285714 606.12 2541.785714285714 572.62Q2543.285714285714 539.12 2549.285714285714 509.62Q2555.285714285714 480.12 2564.285714285714 463.12Q2587.285714285714 471.12 2595.285714285714 488.62Q2603.285714285714 506.12 2607.285714285714 527.12Q2612.285714285714 549.12 2616.785714285714 570.62Q2621.285714285714 592.12 2637.285714285714 609.12Q2654.285714285714 626.12 2678.285714285714 633.62Q2702.285714285714 641.12 2728.285714285714 641.12Q2761.285714285714 640.12 2793.785714285714 628.62Q2826.285714285714 617.12 2850.785714285714 597.62Q2875.285714285714 578.12 2882.285714285714 553.12Q2888.285714285714 510.12 2879.285714285714 484.12Q2870.285714285714 458.12 2851.285714285714 441.12Q2828.285714285714 419.12 2794.785714285714 405.62Q2761.285714285714 392.12 2728.285714285714 373.12Q2715.285714285714 365.12 2704.785714285714 354.12Q2694.285714285714 343.12 2681.285714285714 336.12Q2667.285714285714 328.12 2651.785714285714 323.12Q2636.285714285714 318.12 2625.285714285714 311.12Q2602.285714285714 296.12 2585.785714285714 272.12Q2569.285714285714 248.12 2561.285714285714 220.12Q2557.285714285714 206.12 2555.285714285714 191.12Q2553.285714285714 176.12 2553.285714285714 160.12Q2553.285714285714 128.12 2563.785714285714 97.12Q2574.285714285714 66.12 2596.285714285714 41.120000000000005Q2635.285714285714 23.120000000000005 2684.285714285714 13.120000000000005Q2733.285714285714 3.1200000000000045 2784.285714285714 4.6200000000000045Q2835.285714285714 6.1200000000000045 2879.285714285714 25.120000000000005Q2883.285714285714 23.120000000000005 2886.285714285714 20.120000000000005Q2889.285714285714 17.120000000000005 2891.285714285714 13.120000000000005Q2897.285714285714 6.1200000000000045 2903.785714285714 1.6200000000000045Q2910.285714285714 -2.8799999999999955 2923.285714285714 5.1200000000000045Q2929.285714285714 29.120000000000005 2930.785714285714 64.62Q2932.285714285714 100.12 2928.785714285714 133.62Q2925.285714285714 167.12 2915.285714285714 184.12Q2894.285714285714 183.12 2885.785714285714 169.62Q2877.285714285714 156.12 2875.785714285714 136.12Q2874.285714285714 116.12 2874.285714285714 94.12Q2874.285714285714 92.12 2874.285714285714 91.12Q2851.285714285714 70.12 2815.285714285714 58.620000000000005Q2779.285714285714 47.120000000000005 2741.285714285714 47.120000000000005Q2711.285714285714 47.120000000000005 2684.785714285714 55.620000000000005Q2658.285714285714 64.12 2641.285714285714 82.12Q2627.285714285714 97.12 2621.285714285714 118.12Q2615.285714285714 139.12 2621.285714285714 168.12Q2623.285714285714 179.12 2631.785714285714 192.62Q2640.285714285714 206.12 2648.285714285714 214.12L2654.285714285714 220.12Q2678.285714285714 242.12 2713.785714285714 261.12Q2749.285714285714 280.12 2789.285714285714 299.62Q2829.285714285714 319.12 2864.285714285714 343.12Q2897.285714285714 365.12 2921.285714285714 393.12Q2945.285714285714 421.12 2954.785714285714 458.12Q2964.285714285714 495.12 2951.285714285714 544.12ZM3614.285714285714 249.12Q3609.285714285714 262.12 3597.785714285714 265.62Q3586.285714285714 269.12 3572.785714285714 271.62Q3559.285714285714 274.12 3548.285714285714 284.12Q3538.285714285714 294.12 3536.285714285714 302.12Q3534.285714285714 310.12 3527.285714285714 328.12Q3516.285714285714 358.12 3496.785714285714 400.62Q3477.285714285714 443.12 3453.785714285714 491.62Q3430.285714285714 540.12 3406.285714285714 589.62Q3382.285714285714 639.12 3360.785714285714 683.62Q3339.285714285714 728.12 3324.285714285714 760.12Q3316.285714285714 779.12 3306.285714285714 796.62Q3296.285714285714 814.12 3279.285714285714 825.12Q3255.285714285714 841.12 3218.285714285714 835.12Q3197.285714285714 831.12 3187.785714285714 818.12Q3178.285714285714 805.12 3157.285714285714 795.12Q3156.285714285714 774.12 3164.285714285714 760.62Q3172.285714285714 747.12 3185.285714285714 740.12Q3202.285714285714 732.12 3221.785714285714 735.62Q3241.285714285714 739.12 3254.285714285714 755.12Q3271.285714285714 745.12 3287.785714285714 718.62Q3304.285714285714 692.12 3317.285714285714 663.12Q3330.285714285714 634.12 3338.285714285714 615.12Q3335.285714285714 606.12 3328.285714285714 602.12Q3321.285714285714 598.12 3315.285714285714 592.12Q3287.285714285714 509.12 3254.285714285714 430.62Q3221.285714285714 352.12 3190.285714285714 272.12Q3172.285714285714 273.12 3156.285714285714 272.12Q3140.285714285714 271.12 3129.285714285714 265.12Q3122.285714285714 257.12 3123.785714285714 252.62Q3125.285714285714 248.12 3128.285714285714 244.12Q3130.285714285714 242.12 3132.285714285714 238.62Q3134.285714285714 235.12 3133.285714285714 230.12Q3138.285714285714 230.12 3143.785714285714 229.62Q3149.285714285714 229.12 3155.285714285714 228.12Q3174.285714285714 226.12 3198.285714285714 224.12Q3222.285714285714 222.12 3246.285714285714 223.12Q3277.285714285714 224.12 3302.785714285714 230.12Q3328.285714285714 236.12 3338.285714285714 253.12Q3322.285714285714 260.12 3304.785714285714 266.62Q3287.285714285714 273.12 3267.285714285714 278.12Q3290.285714285714 345.12 3316.785714285714 406.62Q3343.285714285714 468.12 3366.285714285714 535.12Q3404.285714285714 479.12 3430.785714285714 413.62Q3457.285714285714 348.12 3483.285714285714 281.12Q3479.285714285714 277.12 3471.285714285714 276.62Q3463.285714285714 276.12 3454.285714285714 276.12Q3446.285714285714 277.12 3438.285714285714 276.62Q3430.285714285714 276.12 3425.285714285714 272.12Q3425.285714285714 268.12 3424.785714285714 264.62Q3424.285714285714 261.12 3423.285714285714 257.12Q3421.285714285714 249.12 3421.785714285714 242.62Q3422.285714285714 236.12 3431.285714285714 230.12Q3442.285714285714 230.12 3451.785714285714 229.62Q3461.285714285714 229.12 3471.285714285714 229.12Q3514.285714285714 228.12 3547.785714285714 230.12Q3581.285714285714 232.12 3614.285714285714 249.12ZM4229.285714285714 654.12Q4224.285714285714 669.12 4209.785714285714 674.12Q4195.285714285714 679.12 4177.285714285714 680.12Q4168.285714285714 680.12 4158.285714285714 679.62Q4148.285714285714 679.12 4139.285714285714 679.12Q4131.285714285714 678.12 4123.785714285714 678.12Q4116.285714285714 678.12 4110.285714285714 678.12Q4095.285714285714 671.12 4093.785714285714 656.62Q4092.285714285714 642.12 4094.285714285714 625.12Q4094.285714285714 618.12 4094.785714285714 611.12Q4095.285714285714 604.12 4095.285714285714 597.12Q4083.285714285714 603.12 4072.785714285714 611.62Q4062.285714285714 620.12 4051.285714285714 629.12Q4029.285714285714 647.12 4003.785714285714 663.12Q3978.285714285714 679.12 3939.285714285714 678.12Q3918.285714285714 677.12 3905.285714285714 668.62Q3892.285714285714 660.12 3870.285714285714 658.12Q3841.285714285714 623.12 3832.285714285714 575.12Q3823.285714285714 527.12 3822.285714285714 473.12Q3822.285714285714 452.12 3822.785714285714 429.62Q3823.285714285714 407.12 3824.285714285714 385.12Q3825.285714285714 354.12 3825.785714285714 324.12Q3826.285714285714 294.12 3824.285714285714 265.12Q3820.285714285714 265.12 3815.285714285714 265.62Q3810.285714285714 266.12 3805.285714285714 267.12Q3794.285714285714 269.12 3783.785714285714 269.12Q3773.285714285714 269.12 3767.285714285714 261.12Q3768.285714285714 244.12 3778.785714285714 234.12Q3789.285714285714 224.12 3805.285714285714 220.12Q3813.285714285714 218.12 3821.785714285714 217.12Q3830.285714285714 216.12 3838.285714285714 216.12Q3847.285714285714 216.12 3856.285714285714 217.12Q3865.285714285714 218.12 3873.285714285714 220.12Q3898.285714285714 226.12 3908.285714285714 238.12Q3892.285714285714 292.12 3888.785714285714 360.12Q3885.285714285714 428.12 3886.285714285714 502.12Q3887.285714285714 527.12 3890.285714285714 552.62Q3893.285714285714 578.12 3901.785714285714 597.62Q3910.285714285714 617.12 3924.285714285714 623.12Q3947.285714285714 632.12 3972.285714285714 628.12Q3997.285714285714 624.12 4019.285714285714 612.12Q4041.285714285714 600.12 4054.285714285714 585.12Q4073.285714285714 564.12 4082.785714285714 534.12Q4092.285714285714 504.12 4095.285714285714 469.12Q4098.285714285714 434.12 4097.285714285714 396.12Q4096.285714285714 358.12 4094.285714285714 322.12Q4094.285714285714 310.12 4093.285714285714 298.62Q4092.285714285714 287.12 4092.285714285714 276.12Q4088.285714285714 276.12 4080.285714285714 277.12Q4068.285714285714 278.12 4055.285714285714 276.62Q4042.285714285714 275.12 4035.285714285714 261.12Q4037.285714285714 254.12 4039.785714285714 248.62Q4042.285714285714 243.12 4042.285714285714 234.12Q4059.285714285714 232.12 4075.285714285714 227.62Q4091.285714285714 223.12 4105.285714285714 220.12Q4120.285714285714 217.12 4133.285714285714 217.12Q4139.285714285714 217.12 4144.785714285714 218.12Q4150.285714285714 219.12 4155.285714285714 221.12Q4170.285714285714 226.12 4182.285714285714 238.12Q4169.285714285714 242.12 4168.785714285714 257.12Q4168.285714285714 272.12 4161.285714285714 283.12Q4163.285714285714 325.12 4163.785714285714 379.12Q4164.285714285714 433.12 4164.285714285714 489.12Q4164.285714285714 500.12 4163.785714285714 510.62Q4163.285714285714 521.12 4162.285714285714 532.12Q4160.285714285714 559.12 4160.785714285714 582.62Q4161.285714285714 606.12 4175.285714285714 623.12Q4190.285714285714 629.12 4203.285714285714 637.62Q4216.285714285714 646.12 4229.285714285714 654.12ZM4872.285714285715 639.12Q4870.285714285715 654.12 4858.785714285715 660.62Q4847.285714285715 667.12 4832.285714285715 669.12Q4820.285714285715 671.12 4808.285714285715 670.62Q4796.285714285715 670.12 4785.285714285715 670.12Q4780.285714285715 669.12 4776.285714285715 669.12Q4772.285714285715 669.12 4768.285714285715 669.12Q4734.285714285715 613.12 4699.285714285715 558.62Q4664.285714285715 504.12 4630.285714285715 447.12Q4608.285714285715 460.12 4592.285714285715 479.12Q4576.285714285715 498.12 4558.285714285715 515.12Q4557.285714285715 527.12 4557.285714285715 538.12Q4557.285714285715 549.12 4557.285714285715 559.12Q4557.285714285715 570.12 4557.285714285715 580.62Q4557.285714285715 591.12 4555.285714285715 603.12Q4570.285714285715 619.12 4594.785714285715 626.12Q4619.285714285715 633.12 4638.285714285715 644.12Q4634.285714285715 659.12 4615.785714285715 665.12Q4597.285714285715 671.12 4576.285714285715 671.12Q4555.285714285715 671.12 4542.285714285715 666.12Q4517.285714285715 671.12 4487.285714285715 674.62Q4457.285714285715 678.12 4433.285714285715 668.12Q4428.285714285715 661.12 4429.285714285715 656.62Q4430.285714285715 652.12 4433.285714285715 648.12Q4435.285714285715 645.12 4436.785714285715 642.12Q4438.285714285715 639.12 4437.285714285715 635.12Q4447.285714285715 625.12 4462.285714285715 620.62Q4477.285714285715 616.12 4492.285714285715 612.12Q4496.285714285715 522.12 4494.285714285715 424.62Q4492.285714285715 327.12 4488.285714285715 226.12V220.12Q4487.285714285715 183.12 4485.785714285715 146.12Q4484.285714285715 109.12 4483.285714285715 72.12Q4474.285714285715 72.12 4467.785714285715 74.62Q4461.285714285715 77.12 4456.285714285715 79.12Q4448.285714285715 82.12 4440.785714285715 84.12Q4433.285714285715 86.12 4423.285714285715 83.12Q4419.285714285715 77.12 4420.285714285715 70.12Q4421.285714285715 63.120000000000005 4423.285714285715 55.120000000000005Q4425.285714285715 51.120000000000005 4426.285714285715 47.620000000000005Q4427.285714285715 44.120000000000005 4427.285714285715 40.120000000000005Q4451.285714285715 35.120000000000005 4475.285714285715 27.620000000000005Q4499.285714285715 20.120000000000005 4519.285714285715 20.120000000000005Q4533.285714285715 20.120000000000005 4544.785714285715 25.620000000000005Q4556.285714285715 31.120000000000005 4565.285714285715 45.120000000000005Q4556.285714285715 81.12 4553.785714285715 125.62Q4551.285714285715 170.12 4552.285714285715 220.12Q4553.285714285715 275.12 4554.785714285715 331.12Q4556.285714285715 387.12 4556.285714285715 440.12Q4599.285714285715 409.12 4641.285714285715 361.12Q4683.285714285715 313.12 4720.285714285715 267.12Q4713.285714285715 266.12 4694.785714285715 264.12Q4676.285714285715 262.12 4653.285714285715 260.12Q4655.285714285715 249.12 4655.785714285715 238.12Q4656.285714285715 227.12 4660.285714285715 220.12Q4661.285714285715 218.12 4663.285714285715 216.12Q4682.285714285715 220.12 4701.785714285715 219.62Q4721.285714285715 219.12 4741.285714285715 217.12Q4749.285714285715 216.12 4757.785714285715 215.62Q4766.285714285715 215.12 4774.285714285715 215.12Q4787.285714285715 215.12 4799.285714285715 216.12Q4811.285714285715 217.12 4821.285714285715 221.12Q4828.285714285715 223.12 4834.785714285715 226.62Q4841.285714285715 230.12 4846.285714285715 235.12Q4839.285714285715 251.12 4819.785714285715 255.12Q4800.285714285715 259.12 4783.285714285715 266.12Q4753.285714285715 297.12 4727.785714285715 332.12Q4702.285714285715 367.12 4674.285714285715 401.12Q4690.285714285715 435.12 4713.285714285715 470.12Q4736.285714285715 505.12 4758.285714285715 537.62Q4780.285714285715 570.12 4792.285714285715 599.12Q4814.285714285715 606.12 4836.785714285715 614.62Q4859.285714285715 623.12 4872.285714285715 639.12ZM5499.285714285715 654.12Q5494.285714285715 669.12 5479.785714285715 674.12Q5465.285714285715 679.12 5447.285714285715 680.12Q5438.285714285715 680.12 5428.285714285715 679.62Q5418.285714285715 679.12 5409.285714285715 679.12Q5401.285714285715 678.12 5393.785714285715 678.12Q5386.285714285715 678.12 5380.285714285715 678.12Q5365.285714285715 671.12 5363.785714285715 656.62Q5362.285714285715 642.12 5364.285714285715 625.12Q5364.285714285715 618.12 5364.785714285715 611.12Q5365.285714285715 604.12 5365.285714285715 597.12Q5353.285714285715 603.12 5342.785714285715 611.62Q5332.285714285715 620.12 5321.285714285715 629.12Q5299.285714285715 647.12 5273.785714285715 663.12Q5248.285714285715 679.12 5209.285714285715 678.12Q5188.285714285715 677.12 5175.285714285715 668.62Q5162.285714285715 660.12 5140.285714285715 658.12Q5111.285714285715 623.12 5102.285714285715 575.12Q5093.285714285715 527.12 5092.285714285715 473.12Q5092.285714285715 452.12 5092.785714285715 429.62Q5093.285714285715 407.12 5094.285714285715 385.12Q5095.285714285715 354.12 5095.785714285715 324.12Q5096.285714285715 294.12 5094.285714285715 265.12Q5090.285714285715 265.12 5085.285714285715 265.62Q5080.285714285715 266.12 5075.285714285715 267.12Q5064.285714285715 269.12 5053.785714285715 269.12Q5043.285714285715 269.12 5037.285714285715 261.12Q5038.285714285715 244.12 5048.785714285715 234.12Q5059.285714285715 224.12 5075.285714285715 220.12Q5083.285714285715 218.12 5091.785714285715 217.12Q5100.285714285715 216.12 5108.285714285715 216.12Q5117.285714285715 216.12 5126.285714285715 217.12Q5135.285714285715 218.12 5143.285714285715 220.12Q5168.285714285715 226.12 5178.285714285715 238.12Q5162.285714285715 292.12 5158.785714285715 360.12Q5155.285714285715 428.12 5156.285714285715 502.12Q5157.285714285715 527.12 5160.285714285715 552.62Q5163.285714285715 578.12 5171.785714285715 597.62Q5180.285714285715 617.12 5194.285714285715 623.12Q5217.285714285715 632.12 5242.285714285715 628.12Q5267.285714285715 624.12 5289.285714285715 612.12Q5311.285714285715 600.12 5324.285714285715 585.12Q5343.285714285715 564.12 5352.785714285715 534.12Q5362.285714285715 504.12 5365.285714285715 469.12Q5368.285714285715 434.12 5367.285714285715 396.12Q5366.285714285715 358.12 5364.285714285715 322.12Q5364.285714285715 310.12 5363.285714285715 298.62Q5362.285714285715 287.12 5362.285714285715 276.12Q5358.285714285715 276.12 5350.285714285715 277.12Q5338.285714285715 278.12 5325.285714285715 276.62Q5312.285714285715 275.12 5305.285714285715 261.12Q5307.285714285715 254.12 5309.785714285715 248.62Q5312.285714285715 243.12 5312.285714285715 234.12Q5329.285714285715 232.12 5345.285714285715 227.62Q5361.285714285715 223.12 5375.285714285715 220.12Q5390.285714285715 217.12 5403.285714285715 217.12Q5409.285714285715 217.12 5414.785714285715 218.12Q5420.285714285715 219.12 5425.285714285715 221.12Q5440.285714285715 226.12 5452.285714285715 238.12Q5439.285714285715 242.12 5438.785714285715 257.12Q5438.285714285715 272.12 5431.285714285715 283.12Q5433.285714285715 325.12 5433.785714285715 379.12Q5434.285714285715 433.12 5434.285714285715 489.12Q5434.285714285715 500.12 5433.785714285715 510.62Q5433.285714285715 521.12 5432.285714285715 532.12Q5430.285714285715 559.12 5430.785714285715 582.62Q5431.285714285715 606.12 5445.285714285715 623.12Q5460.285714285715 629.12 5473.285714285715 637.62Q5486.285714285715 646.12 5499.285714285715 654.12Z" /></svg>