<svg viewBox="0 0 5405 1448" xmlns="http://www.w3.org/2000/svg"><path d="M363 1126Q363 1140 353.0 1150.0Q343 1160 329 1160H269Q255 1160 245.0 1150.0Q235 1140 235 1126V875L59 460Q49 439 49 423Q49 400 85 400H125Q136 400 146.0 404.0Q156 408 160 419L296 761L438 419Q443 408 452.5 404.0Q462 400 473 400H513Q550 400 550 422Q550 433 539 460L363 864ZM1018 1126Q1018 1140 1008.0 1150.0Q998 1160 984 1160H934Q922 1160 912.5 1152.5Q903 1145 901 1133Q869 1150 829.5 1160.0Q790 1170 744 1170Q673 1170 632.5 1148.0Q592 1126 573.5 1072.0Q555 1018 550.0 924.0Q545 830 545 686Q545 670 555.0 660.0Q565 650 579 650H629Q643 650 653.0 660.5Q663 671 663 687Q663 799 666.5 875.0Q670 951 676.5 998.0Q683 1045 693.0 1069.0Q703 1093 715.5 1101.5Q728 1110 744 1110Q789 1110 824.0 1088.0Q859 1066 879.5 1027.5Q900 989 900 939V684Q900 670 910.0 660.0Q920 650 934 650H984Q998 650 1008.0 660.0Q1018 670 1018 684ZM1101 1056Q1098 1050 1098 1045Q1098 1033 1109.0 1024.5Q1120 1016 1134 1016H1192Q1216 1016 1223 1044Q1231 1073 1260.0 1091.0Q1289 1109 1347 1109Q1411 1109 1435.5 1086.0Q1460 1063 1460 1020Q1460 976 1427.0 950.5Q1394 925 1334 927Q1250 929 1200.5 911.5Q1151 894 1129.5 863.0Q1108 832 1108 794Q1108 723 1171.5 681.5Q1235 640 1351 640Q1480 640 1547 695Q1574 717 1574 734Q1574 744 1566 749L1549 762Q1539 769 1530 769Q1520 769 1514 764Q1471 732 1431.5 716.0Q1392 700 1351 700Q1295 700 1265.5 726.5Q1236 753 1236 794Q1236 833 1258.5 850.0Q1281 867 1334 867Q1402 867 1460.0 885.0Q1518 903 1553.0 937.5Q1588 972 1588 1020Q1588 1063 1557.0 1097.0Q1526 1131 1471.5 1150.0Q1417 1169 1347 1169Q1256 1169 1189.5 1136.0Q1123 1103 1101 1056ZM2076 1093Q2045 1124 1997.5 1147.0Q1950 1170 1894 1170Q1770 1170 1701.5 1098.5Q1633 1027 1633 906Q1633 830 1664.5 770.0Q1696 710 1751.5 675.0Q1807 640 1880 640Q1955 640 2011.5 672.0Q2068 704 2100.0 760.0Q2132 816 2132 889Q2132 903 2122.5 912.0Q2113 921 2099 921H1741Q1745 1010 1788.0 1060.0Q1831 1110 1894 1110Q1926 1110 1945.0 1093.0Q1964 1076 1983 1045Q1994 1023 2017 1028L2054 1037Q2085 1045 2085 1072Q2085 1084 2076 1093ZM1880 700Q1851 700 1823.0 721.5Q1795 743 1774.0 779.0Q1753 815 1745 861H2003Q1997 790 1964.0 745.0Q1931 700 1880 700ZM2320 523Q2320 537 2310.0 547.0Q2300 557 2286 557H2226Q2212 557 2202.0 547.0Q2192 537 2192 523V464Q2192 450 2202.0 440.0Q2212 430 2226 430H2286Q2300 430 2310.0 440.0Q2320 450 2320 464ZM2320 1126Q2320 1140 2310.0 1150.0Q2300 1160 2286 1160H2226Q2212 1160 2202.0 1150.0Q2192 1140 2192 1126V684Q2192 670 2202.0 660.0Q2212 650 2226 650H2286Q2300 650 2310.0 660.0Q2320 670 2320 684ZM3171 1016Q3162 1036 3149 1036Q3136 1036 3127 1016L2950 630V1127Q2950 1160 2917 1160H2873Q2840 1160 2840 1127V433Q2840 400 2873 400H2911Q2938 400 2950 425L3147 837L3343 425Q3354 400 3382 400H3420Q3453 400 3453 433V1127Q3453 1160 3420 1160H3376Q3343 1160 3343 1127V633ZM3728 1170Q3664 1170 3619.5 1136.5Q3575 1103 3551.5 1044.0Q3528 985 3528 909Q3528 834 3555.5 773.0Q3583 712 3632.0 676.0Q3681 640 3747 640Q3833 640 3890.0 676.5Q3947 713 3975.0 771.0Q4003 829 4003 894Q4003 898 4003 902Q4010 969 4019.0 1023.5Q4028 1078 4037 1114Q4038 1117 4038 1122Q4038 1152 4007 1157L3950 1164Q3922 1167 3915 1141Q3911 1125 3908 1108Q3874 1137 3829.0 1153.5Q3784 1170 3728 1170ZM3728 1110Q3777 1110 3809.0 1077.5Q3841 1045 3857.5 995.0Q3874 945 3874 892Q3874 892 3874.0 891.5Q3874 891 3874 888Q3873 883 3873 877Q3873 872 3873 868Q3870 824 3855.0 785.5Q3840 747 3813.0 723.5Q3786 700 3747 700Q3726 700 3705.0 730.5Q3684 761 3670.0 809.0Q3656 857 3656 909Q3656 961 3667.0 1007.0Q3678 1053 3695.0 1081.5Q3712 1110 3728 1110ZM4152 1284Q4141 1273 4141 1260Q4141 1234 4171 1224L4203 1214Q4206 1213 4211 1213Q4228 1213 4238 1228Q4264 1266 4281.5 1278.0Q4299 1290 4327 1290Q4381 1290 4411.5 1266.5Q4442 1243 4442 1194V1124Q4416 1146 4383.5 1158.0Q4351 1170 4311 1170Q4240 1170 4186.0 1134.5Q4132 1099 4102.0 1037.5Q4072 976 4072 899Q4072 823 4099.0 765.0Q4126 707 4176.5 673.5Q4227 640 4298 640Q4343 640 4379.0 651.0Q4415 662 4442 682Q4443 668 4452.0 659.0Q4461 650 4476 650H4526Q4540 650 4550.0 660.0Q4560 670 4560 684V1194Q4560 1240 4529.5 1275.0Q4499 1310 4446.0 1330.0Q4393 1350 4327 1350Q4220 1350 4152 1284ZM4311 1109Q4342 1109 4372.0 1088.0Q4402 1067 4421.5 1021.5Q4441 976 4441 905Q4441 796 4404.0 748.5Q4367 701 4298 701Q4273 701 4248.0 722.5Q4223 744 4206.5 788.0Q4190 832 4190 899Q4190 959 4202.5 1006.5Q4215 1054 4241.5 1081.5Q4268 1109 4311 1109ZM4788 523Q4788 537 4778.0 547.0Q4768 557 4754 557H4694Q4680 557 4670.0 547.0Q4660 537 4660 523V464Q4660 450 4670.0 440.0Q4680 430 4694 430H4754Q4768 430 4778.0 440.0Q4788 450 4788 464ZM4788 1126Q4788 1140 4778.0 1150.0Q4768 1160 4754 1160H4694Q4680 1160 4670.0 1150.0Q4660 1140 4660 1126V684Q4660 670 4670.0 660.0Q4680 650 4694 650H4754Q4768 650 4778.0 660.0Q4788 670 4788 684ZM5363 787Q5366 794 5366 800Q5366 813 5356.0 821.5Q5346 830 5332 832L5278 837Q5266 838 5256.5 831.0Q5247 824 5244 812Q5229 762 5198.5 731.0Q5168 700 5125 700Q5092 700 5065.0 728.0Q5038 756 5022.0 803.0Q5006 850 5006 906Q5006 1002 5040.0 1056.0Q5074 1110 5139 1110Q5183 1110 5210.0 1077.0Q5237 1044 5250 983Q5257 954 5285 956L5342 961Q5356 962 5365.5 971.0Q5375 980 5375 993Q5375 997 5373 1003Q5351 1078 5290.0 1124.0Q5229 1170 5139 1170Q5015 1170 4946.5 1098.5Q4878 1027 4878 906Q4878 830 4909.5 770.0Q4941 710 4996.5 675.0Q5052 640 5125 640Q5180 640 5227.5 660.0Q5275 680 5310.5 713.0Q5346 746 5363 787Z" fill="currentColor" /></svg>