<svg viewBox="0 0 7095 746" xmlns="http://www.w3.org/2000/svg"><path d="M0 643 466 152 30 117 39 22 573 67 603 146 154 618 674 573 683 667 39 723ZM768 686 836 52 889 10 1404 86 1391 180 924 111 868 637 1427 577 1437 671 821 737ZM1598 722 1552 671 1597 107 1640 65 2082 20 2135 66 2156 680 2108 728ZM2061 633 2042 118 1687 155 1651 628ZM2322 722 2276 671 2321 107 2364 65 2806 20 2859 66 2880 680 2832 728ZM2785 633 2766 118 2411 155 2375 628ZM3050 717 3005 664 3076 17 3170 28 3105 624 3524 637 3520 730ZM3859 734 3955 0 4049 11 3953 746ZM4055 441 4060 371 4354 139 4413 213 4159 414 4400 668 4333 733ZM4854 643 4538 695 4483 646 4507 242 4601 247 4581 592 4832 552 4853 241 4948 249 4926 576 5011 627 4962 707ZM5556 699 5538 678 5125 744 5071 687 5129 458 5174 422H5490L5469 266L5109 354L5086 263L5497 162L5555 202L5611 617L5681 637L5656 727ZM5512 586 5503 517H5211L5180 639ZM5766 147 5857 122 5887 234 5796 259ZM5741 714 5790 317 5884 328 5835 725ZM6037 717 5992 664 6063 17 6157 28 6092 624 6511 637 6507 730ZM6619 673 6581 620 6629 264 6671 224 6964 200 7010 225 7095 393 7062 460 6751 525 6731 434 6982 380 6940 297 6716 314 6680 589 7024 653 7006 745Z" /></svg>