<svg viewBox="0 0 6043 1200" xmlns="http://www.w3.org/2000/svg"><path d="M164 950 663 146H698L199 950ZM10 950 509 146H544L45 950ZM87 950 586 146H621L122 950ZM82 176V146H467L449 176ZM82 242V212H427L408 242ZM82 308V278H386L367 308ZM317 818 336 788H626V818ZM276 884 295 854H626V884ZM236 950 254 920H626V950ZM794 950V548H1033V578H824V614H1033V644H824V701H1001V731H824V767H1001V797H824V854H1033V884H824V920H1033V950ZM728 950V548H758V950ZM1091 950V548H1121V950ZM1425 950V548H1455V950ZM1359 838 1187 599V660L1359 899ZM1157 950V548H1187L1359 787V548H1389V950H1359L1187 711V950ZM1785 176V146H2406V176ZM1785 242V212H2406V242ZM1785 308V278H2406V308ZM2147 950V340H2177V950ZM2015 950V340H2045V950ZM2081 950V340H2111V950ZM2770 749Q2770 697 2745.5 656.5Q2721 616 2678.5 592.0Q2636 568 2583 568Q2530 568 2487.5 592.0Q2445 616 2420.5 656.5Q2396 697 2396 749Q2396 800 2420.5 841.0Q2445 882 2487.5 906.0Q2530 930 2583 930Q2636 930 2678.5 906.0Q2721 882 2745.5 841.0Q2770 800 2770 749ZM2704 749Q2704 699 2669.5 666.5Q2635 634 2583 634Q2531 634 2496.5 666.5Q2462 699 2462 749Q2462 798 2496.5 831.0Q2531 864 2583 864Q2635 864 2669.5 831.0Q2704 798 2704 749ZM2583 894Q2540 894 2506.0 875.0Q2472 856 2452.0 823.0Q2432 790 2432 749Q2432 708 2452.0 675.0Q2472 642 2506.0 623.0Q2540 604 2583 604Q2626 604 2660.0 623.0Q2694 642 2714.0 675.0Q2734 708 2734 749Q2734 790 2714.0 823.0Q2694 856 2660.0 875.0Q2626 894 2583 894ZM2583 960Q2522 960 2473.0 932.0Q2424 904 2395.0 856.0Q2366 808 2366 749Q2366 689 2395.0 641.5Q2424 594 2473.0 566.0Q2522 538 2583 538Q2644 538 2693.0 566.0Q2742 594 2771.0 641.5Q2800 689 2800 749Q2800 808 2771.0 856.0Q2742 904 2693.0 932.0Q2644 960 2583 960ZM3162 950 2978 720 3076 548H3111L3014 717L3038 747L3153 548H3188L3058 771L3201 950ZM2936 950V548H2966V762L3116 950H3078L2966 810V950ZM2870 950V548H2900V950ZM3444 755 3302 548H3339L3422 669L3505 548H3542L3441 697L3462 728L3586 548H3623L3481 755ZM3363 755 3221 548H3258L3400 755ZM3440 950V779H3470V950ZM3374 950V779H3404V950ZM4027 749Q4027 697 4002.5 656.5Q3978 616 3935.5 592.0Q3893 568 3840 568Q3787 568 3744.5 592.0Q3702 616 3677.5 656.5Q3653 697 3653 749Q3653 800 3677.5 841.0Q3702 882 3744.5 906.0Q3787 930 3840 930Q3893 930 3935.5 906.0Q3978 882 4002.5 841.0Q4027 800 4027 749ZM3961 749Q3961 699 3926.5 666.5Q3892 634 3840 634Q3788 634 3753.5 666.5Q3719 699 3719 749Q3719 798 3753.5 831.0Q3788 864 3840 864Q3892 864 3926.5 831.0Q3961 798 3961 749ZM3840 894Q3797 894 3763.0 875.0Q3729 856 3709.0 823.0Q3689 790 3689 749Q3689 708 3709.0 675.0Q3729 642 3763.0 623.0Q3797 604 3840 604Q3883 604 3917.0 623.0Q3951 642 3971.0 675.0Q3991 708 3991 749Q3991 790 3971.0 823.0Q3951 856 3917.0 875.0Q3883 894 3840 894ZM3840 960Q3779 960 3730.0 932.0Q3681 904 3652.0 856.0Q3623 808 3623 749Q3623 689 3652.0 641.5Q3681 594 3730.0 566.0Q3779 538 3840 538Q3901 538 3950.0 566.0Q3999 594 4028.0 641.5Q4057 689 4057 749Q4057 808 4028.0 856.0Q3999 904 3950.0 932.0Q3901 960 3840 960ZM4531 950 5030 146H5065L4566 950ZM4377 950 4876 146H4911L4412 950ZM4454 950 4953 146H4988L4489 950ZM4449 176V146H4834L4816 176ZM4449 242V212H4794L4775 242ZM4449 308V278H4753L4734 308ZM4684 818 4703 788H4993V818ZM4643 884 4662 854H4993V884ZM4603 950 4621 920H4993V950ZM5489 749Q5489 697 5464.5 656.5Q5440 616 5397.5 592.0Q5355 568 5302 568Q5249 568 5206.5 592.0Q5164 616 5139.5 656.5Q5115 697 5115 749Q5115 800 5139.5 841.0Q5164 882 5206.5 906.0Q5249 930 5302 930Q5355 930 5397.5 906.0Q5440 882 5464.5 841.0Q5489 800 5489 749ZM5423 749Q5423 699 5388.5 666.5Q5354 634 5302 634Q5250 634 5215.5 666.5Q5181 699 5181 749Q5181 798 5215.5 831.0Q5250 864 5302 864Q5354 864 5388.5 831.0Q5423 798 5423 749ZM5302 894Q5259 894 5225.0 875.0Q5191 856 5171.0 823.0Q5151 790 5151 749Q5151 708 5171.0 675.0Q5191 642 5225.0 623.0Q5259 604 5302 604Q5345 604 5379.0 623.0Q5413 642 5433.0 675.0Q5453 708 5453 749Q5453 790 5433.0 823.0Q5413 856 5379.0 875.0Q5345 894 5302 894ZM5302 960Q5241 960 5192.0 932.0Q5143 904 5114.0 856.0Q5085 808 5085 749Q5085 689 5114.0 641.5Q5143 594 5192.0 566.0Q5241 538 5302 538Q5363 538 5412.0 566.0Q5461 594 5490.0 641.5Q5519 689 5519 749Q5519 808 5490.0 856.0Q5461 904 5412.0 932.0Q5363 960 5302 960ZM5983 749Q5983 697 5958.5 656.5Q5934 616 5891.5 592.0Q5849 568 5796 568Q5743 568 5700.5 592.0Q5658 616 5633.5 656.5Q5609 697 5609 749Q5609 800 5633.5 841.0Q5658 882 5700.5 906.0Q5743 930 5796 930Q5849 930 5891.5 906.0Q5934 882 5958.5 841.0Q5983 800 5983 749ZM5917 749Q5917 699 5882.5 666.5Q5848 634 5796 634Q5744 634 5709.5 666.5Q5675 699 5675 749Q5675 798 5709.5 831.0Q5744 864 5796 864Q5848 864 5882.5 831.0Q5917 798 5917 749ZM5796 894Q5753 894 5719.0 875.0Q5685 856 5665.0 823.0Q5645 790 5645 749Q5645 708 5665.0 675.0Q5685 642 5719.0 623.0Q5753 604 5796 604Q5839 604 5873.0 623.0Q5907 642 5927.0 675.0Q5947 708 5947 749Q5947 790 5927.0 823.0Q5907 856 5873.0 875.0Q5839 894 5796 894ZM5796 960Q5735 960 5686.0 932.0Q5637 904 5608.0 856.0Q5579 808 5579 749Q5579 689 5608.0 641.5Q5637 594 5686.0 566.0Q5735 538 5796 538Q5857 538 5906.0 566.0Q5955 594 5984.0 641.5Q6013 689 6013 749Q6013 808 5984.0 856.0Q5955 904 5906.0 932.0Q5857 960 5796 960Z" fill="currentColor" /></svg>