<svg viewBox="0 0 3915 1200" xmlns="http://www.w3.org/2000/svg"><path d="M514 944H34L32 900L416 361V358H136L108 491L46 482L71 294H519L521 334L135 877V880H449L477 742L540 751ZM682 384V293H758V384ZM837 944H611V887H689V556H609V499H759V887H837ZM1103 944H877V887H955V313H876V256H1025V887H1103ZM1369 944H1143V887H1221V313H1142V256H1291V887H1369ZM1470 533Q1505 510 1544.0 500.0Q1583 490 1627 490Q1786 490 1786 639V851Q1786 899 1824 899Q1841 899 1854 893L1855 939Q1828 954 1797 954Q1718 954 1716 864V862Q1695 898 1656.5 926.0Q1618 954 1564 954Q1520 954 1474.5 927.0Q1429 900 1429 829Q1429 745 1495.5 718.5Q1562 692 1637 692Q1657 692 1677.5 693.0Q1698 694 1716 696V656Q1716 608 1695.5 578.0Q1675 548 1615 548Q1566 548 1529 566L1512 643L1454 636ZM1716 777V743Q1697 742 1676.0 740.0Q1655 738 1633 738Q1583 738 1542.5 753.5Q1502 769 1502 821Q1502 864 1529.0 880.0Q1556 896 1585 896Q1631 896 1671.5 864.0Q1712 832 1716 777ZM2589 762Q2589 856 2522.5 905.0Q2456 954 2357 954Q2221 954 2148 901L2162 773L2222 779L2218 861Q2251 878 2284.0 884.0Q2317 890 2353 890Q2417 890 2463.5 862.5Q2510 835 2510 769Q2510 695 2459.0 672.5Q2408 650 2348 636Q2302 626 2257.0 610.5Q2212 595 2182.0 561.5Q2152 528 2152 464Q2152 372 2213.5 328.0Q2275 284 2359 284Q2413 284 2468.0 299.0Q2523 314 2554 338L2560 467L2500 473L2490 376Q2459 360 2427.0 354.5Q2395 349 2366 349Q2305 349 2267.5 376.5Q2230 404 2230 456Q2230 517 2275.0 538.0Q2320 559 2375 572Q2419 582 2468.5 597.5Q2518 613 2553.5 650.5Q2589 688 2589 762ZM2878 944H2652V887H2730V313H2651V256H2800V887H2878ZM2979 533Q3014 510 3053.0 500.0Q3092 490 3136 490Q3295 490 3295 639V851Q3295 899 3333 899Q3350 899 3363 893L3364 939Q3337 954 3306 954Q3227 954 3225 864V862Q3204 898 3165.5 926.0Q3127 954 3073 954Q3029 954 2983.5 927.0Q2938 900 2938 829Q2938 745 3004.5 718.5Q3071 692 3146 692Q3166 692 3186.5 693.0Q3207 694 3225 696V656Q3225 608 3204.5 578.0Q3184 548 3124 548Q3075 548 3038 566L3021 643L2963 636ZM3225 777V743Q3206 742 3185.0 740.0Q3164 738 3142 738Q3092 738 3051.5 753.5Q3011 769 3011 821Q3011 864 3038.0 880.0Q3065 896 3094 896Q3140 896 3180.5 864.0Q3221 832 3225 777ZM3877 710Q3877 769 3857.0 825.0Q3837 881 3793.0 917.5Q3749 954 3679 954Q3567 954 3523 870L3513 944H3443Q3447 915 3452.0 881.0Q3457 847 3457 814V313H3380V256H3527V591Q3547 550 3584.5 520.0Q3622 490 3686 490Q3769 490 3823.0 547.0Q3877 604 3877 710ZM3803 717Q3803 634 3764.0 592.0Q3725 550 3669 550Q3605 550 3567.0 597.0Q3529 644 3527 693V760Q3527 816 3566.5 855.0Q3606 894 3664 894Q3737 894 3770.0 840.0Q3803 786 3803 717Z" fill="currentColor" /></svg>