<?xml version="1.0" encoding="UTF-8"?>
<svg height="16px" viewBox="0 0 16 16" width="16px" xmlns="http://www.w3.org/2000/svg">
    <path d="m 9.808594 1.695312 c -0.511719 0 -0.925782 0.417969 -0.925782 0.925782 v 10.183594 c 0 0.511718 0.414063 0.925781 0.925782 0.925781 h 2.777344 c 1.515624 0 2.765624 -1.246094 2.765624 -2.761719 v -1.890625 c 0 -1.515625 -1.25 -2.765625 -2.765624 -2.765625 h -1.851563 v -3.691406 c 0 -0.507813 -0.414063 -0.925782 -0.925781 -0.925782 z m -7.40625 2.777344 c -0.511719 0 -0.925782 0.417969 -0.925782 0.925782 c 0 0.511718 0.414063 0.925781 0.925782 0.925781 h 1.851562 c 0.515625 0 0.917969 0.398437 0.925782 0.914062 h -1.296876 c -1.785156 -0.039062 -3.28125 1.398438 -3.316406 3.175781 v 0.019532 c 0 1.8125 1.484375 3.296875 3.292969 3.296875 h 2.246094 c 0.511719 0 0.925781 -0.414063 0.925781 -0.925781 v -5.554688 c 0 -1.523438 -1.253906 -2.777344 -2.777344 -2.777344 z m 8.332031 3.691406 h 1.851563 c 0.511718 0 0.914062 0.398438 0.914062 0.914063 v 1.890625 c 0 0.511719 -0.402344 0.910156 -0.914062 0.910156 h -1.851563 z m -6.894531 0.925782 h 1.339844 v 2.789062 h -1.320313 c -0.800781 0 -1.433594 -0.632812 -1.4375 -1.433594 c 0.019531 -0.773437 0.640625 -1.371093 1.417969 -1.355468 z m 0 0" fill="#2e3434"/>
</svg>
